<svg xmlns="http://www.w3.org/2000/svg" width="1085" height="1450" viewBox="0 0 1085 1450">
  <title>0002</title>
  <path d="M517 1333 L521 1331 L525 1333 L524 1334 L518 1334 Z M606 1331 L601 1334 L586 1336 L580 1338 L573 1338 L572 1337 L578 1334 L581 1335 L582 1334 L596 1332 L600 1330 L605 1330 Z M515 1332 L515 1334 L517 1336 L522 1336 L527 1333 L526 1331 L523 1330 L519 1330 Z M431 1311 L432 1310 L434 1311 L433 1312 Z M427 1309 L429 1308 L432 1310 L429 1311 Z M629 1308 L625 1312 L622 1311 L625 1308 L628 1307 Z M425 1308 L426 1307 L428 1308 L427 1309 Z M565 1307 L566 1306 L567 1307 L566 1308 Z M566 1306 L567 1305 L569 1306 L568 1307 Z M405 1306 L406 1305 L407 1306 L406 1307 Z M569 1305 L570 1304 L572 1305 L571 1306 Z M423 1306 L423 1308 L427 1311 L437 1315 L440 1315 L433 1312 L435 1310 L425 1305 Z M403 1305 L404 1304 L405 1305 L404 1306 Z M401 1304 L402 1303 L404 1304 L403 1305 Z M399 1303 L400 1302 L402 1303 L401 1304 Z M549 1294 L550 1293 L551 1294 L550 1295 Z M574 1291 L575 1290 L577 1291 L576 1292 Z M602 1284 L598 1291 L597 1290 L594 1291 L586 1298 L578 1302 L576 1302 L574 1300 L569 1304 L557 1307 L554 1307 L547 1304 L550 1299 L550 1297 L553 1294 L561 1295 L564 1291 L568 1291 L569 1292 L573 1291 L575 1293 L577 1293 L579 1291 L584 1290 L590 1284 L598 1279 L600 1280 L600 1282 Z M635 1251 L636 1250 L637 1252 L636 1253 Z M636 1250 L637 1249 L638 1250 L637 1251 Z M637 1249 L638 1248 L639 1249 L638 1250 Z M359 1248 L360 1247 L361 1248 L360 1249 Z M347 1248 L348 1247 L350 1248 L349 1249 Z M638 1248 L640 1246 L641 1247 L640 1249 Z M640 1246 L641 1245 L642 1246 L641 1247 Z M643 1244 L644 1243 L645 1244 L644 1245 Z M616 1242 L618 1245 L615 1250 L612 1252 L610 1250 L610 1247 L613 1243 Z M646 1242 L647 1241 L648 1242 L647 1243 Z M648 1241 L649 1240 L651 1241 L650 1242 Z M650 1240 L651 1239 L652 1240 L651 1241 Z M616 1240 L613 1241 L609 1245 L608 1250 L611 1253 L614 1253 L620 1245 L619 1242 Z M652 1239 L653 1238 L655 1239 L654 1240 Z M654 1238 L655 1237 L657 1238 L656 1239 Z M668 1235 L665 1238 L658 1238 L657 1237 L664 1234 Z M669 1234 L668 1233 L658 1234 L646 1240 L640 1244 L634 1250 L632 1256 L634 1257 L640 1251 L643 1246 L658 1239 L666 1239 L669 1236 Z M379 1210 L382 1215 L381 1218 L378 1216 L377 1213 Z M376 1210 L377 1217 L379 1219 L383 1220 L384 1216 L382 1211 L379 1209 Z M353 1208 L356 1210 L357 1213 L357 1223 L359 1230 L359 1235 L358 1236 L353 1231 L353 1223 L351 1219 L352 1217 L351 1212 L353 1210 L352 1209 Z M353 1206 L350 1211 L351 1229 L355 1237 L358 1238 L361 1234 L361 1231 L359 1228 L359 1213 L357 1209 Z M599 1201 L601 1201 L603 1203 L600 1208 L597 1206 L597 1203 Z M600 1199 L595 1203 L596 1208 L599 1210 L605 1204 Z M698 1195 L701 1198 L703 1203 L703 1209 L704 1210 L704 1216 L703 1217 L704 1221 L699 1227 L699 1231 L696 1234 L693 1232 L693 1228 L690 1224 L690 1221 L692 1216 L691 1203 L694 1199 L694 1197 Z M697 1193 L693 1196 L690 1201 L690 1210 L691 1212 L690 1213 L689 1226 L691 1227 L692 1233 L694 1235 L697 1235 L700 1232 L701 1227 L704 1225 L706 1220 L705 1218 L706 1210 L703 1197 Z M269 1185 L270 1184 L271 1185 L270 1186 Z M322 1194 L322 1200 L324 1203 L324 1207 L319 1213 L320 1216 L325 1221 L329 1221 L332 1223 L332 1229 L334 1231 L334 1240 L337 1245 L337 1248 L339 1252 L345 1258 L347 1258 L349 1256 L347 1250 L351 1249 L354 1255 L356 1256 L357 1260 L364 1268 L368 1276 L395 1302 L409 1310 L411 1308 L405 1302 L402 1301 L397 1302 L368 1273 L366 1268 L361 1263 L358 1258 L358 1255 L361 1248 L365 1248 L366 1249 L367 1253 L370 1256 L374 1264 L378 1267 L380 1271 L396 1279 L398 1283 L410 1295 L413 1294 L417 1297 L424 1298 L426 1296 L425 1294 L426 1292 L428 1293 L429 1292 L437 1293 L454 1301 L466 1310 L472 1313 L475 1313 L485 1319 L479 1321 L473 1321 L472 1320 L457 1318 L454 1316 L446 1316 L445 1315 L444 1316 L459 1320 L471 1321 L472 1322 L486 1322 L489 1321 L487 1318 L475 1312 L472 1312 L465 1308 L460 1303 L455 1300 L444 1296 L438 1292 L433 1292 L430 1290 L429 1291 L425 1291 L423 1297 L422 1296 L418 1296 L414 1293 L410 1293 L403 1287 L397 1278 L390 1274 L388 1274 L380 1268 L372 1258 L367 1247 L363 1244 L361 1244 L357 1248 L357 1253 L356 1254 L354 1252 L354 1250 L349 1245 L347 1245 L346 1246 L346 1254 L347 1255 L345 1256 L340 1250 L338 1246 L338 1242 L335 1239 L334 1223 L329 1219 L326 1220 L323 1217 L322 1211 L325 1209 L326 1203 L324 1200 L324 1195 L326 1194 L329 1197 L331 1197 L333 1194 L331 1187 L331 1181 L334 1177 L338 1179 L342 1186 L346 1188 L350 1185 L352 1181 L355 1181 L361 1186 L364 1191 L368 1192 L375 1200 L380 1200 L386 1191 L386 1169 L388 1164 L393 1162 L398 1167 L399 1175 L403 1182 L406 1184 L411 1182 L414 1184 L415 1191 L418 1196 L420 1203 L423 1203 L425 1205 L429 1214 L432 1216 L437 1216 L443 1211 L446 1213 L453 1213 L460 1221 L469 1219 L472 1222 L477 1235 L492 1248 L494 1253 L494 1257 L490 1259 L479 1253 L476 1253 L473 1256 L467 1256 L460 1253 L457 1255 L455 1259 L457 1268 L460 1273 L454 1275 L448 1273 L442 1268 L436 1266 L424 1257 L421 1256 L418 1250 L415 1247 L414 1248 L418 1255 L438 1269 L440 1269 L447 1274 L453 1276 L456 1282 L462 1287 L473 1289 L479 1294 L488 1296 L497 1301 L500 1305 L496 1309 L488 1306 L488 1307 L507 1314 L508 1313 L512 1313 L524 1316 L531 1314 L540 1314 L541 1313 L544 1314 L549 1312 L555 1312 L572 1307 L577 1303 L586 1299 L597 1291 L598 1293 L596 1297 L599 1299 L603 1300 L606 1298 L614 1296 L622 1292 L632 1283 L634 1283 L636 1285 L634 1290 L634 1294 L636 1298 L633 1300 L631 1304 L619 1310 L619 1312 L616 1316 L618 1316 L629 1311 L631 1309 L630 1306 L638 1298 L636 1293 L636 1289 L638 1286 L633 1281 L629 1283 L627 1286 L618 1293 L603 1298 L600 1298 L598 1296 L604 1285 L604 1283 L600 1278 L597 1278 L593 1280 L581 1290 L578 1290 L576 1288 L573 1290 L566 1290 L563 1288 L564 1281 L570 1275 L571 1272 L570 1267 L574 1256 L581 1246 L581 1242 L578 1238 L577 1233 L574 1230 L572 1230 L569 1232 L564 1239 L560 1247 L556 1251 L554 1256 L551 1259 L551 1261 L547 1264 L543 1271 L526 1271 L521 1268 L516 1268 L512 1265 L506 1267 L500 1263 L495 1262 L495 1264 L500 1265 L505 1268 L512 1267 L515 1269 L520 1269 L527 1273 L531 1273 L532 1272 L543 1273 L552 1262 L552 1260 L555 1257 L558 1251 L560 1250 L563 1243 L566 1240 L569 1234 L571 1232 L574 1232 L577 1236 L580 1245 L575 1251 L572 1257 L571 1262 L569 1265 L569 1273 L564 1278 L563 1277 L554 1280 L557 1280 L561 1278 L563 1279 L561 1283 L561 1291 L562 1292 L561 1294 L545 1293 L541 1296 L538 1296 L534 1292 L531 1291 L528 1288 L528 1286 L523 1282 L521 1283 L514 1282 L512 1284 L510 1284 L500 1280 L490 1271 L490 1268 L493 1265 L493 1263 L491 1263 L491 1265 L488 1268 L489 1272 L500 1282 L503 1282 L508 1285 L514 1285 L515 1284 L520 1285 L523 1284 L527 1287 L527 1289 L534 1296 L541 1297 L546 1294 L549 1294 L550 1295 L545 1303 L547 1306 L553 1308 L558 1308 L559 1307 L563 1307 L564 1308 L548 1312 L530 1313 L526 1315 L513 1312 L501 1311 L497 1309 L501 1307 L502 1305 L497 1299 L495 1299 L489 1295 L482 1294 L473 1288 L464 1287 L456 1279 L457 1277 L460 1277 L462 1273 L459 1268 L457 1261 L457 1258 L460 1255 L471 1258 L475 1257 L478 1254 L486 1259 L493 1260 L496 1256 L496 1252 L493 1247 L480 1236 L473 1221 L470 1218 L460 1219 L458 1215 L454 1212 L446 1211 L445 1210 L441 1210 L436 1215 L433 1215 L429 1211 L426 1204 L420 1200 L419 1195 L416 1190 L416 1184 L412 1181 L406 1182 L403 1179 L400 1173 L399 1166 L393 1160 L388 1162 L384 1169 L384 1191 L379 1198 L376 1198 L369 1190 L365 1190 L361 1183 L353 1179 L346 1186 L335 1175 L331 1177 L329 1183 L331 1189 L331 1194 L329 1195 L325 1192 Z M785 1156 L788 1161 L787 1176 L785 1177 L785 1179 L781 1185 L777 1186 L773 1190 L770 1191 L769 1188 L776 1181 L780 1171 L780 1168 L782 1165 L783 1159 Z M786 1155 L783 1156 L781 1159 L780 1166 L775 1180 L767 1188 L768 1192 L772 1192 L778 1187 L781 1187 L788 1177 L788 1171 L790 1165 L789 1164 L789 1159 Z M676 1151 L677 1152 L677 1157 L676 1158 L677 1159 L674 1163 L669 1166 L666 1163 L666 1159 L664 1157 L664 1155 L666 1153 L671 1153 Z M676 1149 L670 1152 L665 1152 L662 1156 L665 1161 L665 1164 L668 1167 L672 1166 L678 1160 L678 1151 Z M539 1138 L542 1139 L544 1137 L540 1137 Z M507 1137 L507 1139 L510 1140 L512 1139 L519 1139 L520 1140 L527 1139 L526 1138 L522 1138 L521 1139 L520 1138 L508 1138 Z M549 1138 L553 1137 L553 1136 L550 1136 Z M234 1135 L237 1134 L239 1136 L236 1137 Z M241 1124 L245 1129 L248 1137 L253 1143 L255 1158 L258 1163 L258 1165 L270 1182 L269 1184 L260 1172 L257 1170 L253 1170 L249 1166 L242 1155 L236 1148 L231 1139 L232 1135 L237 1139 L240 1137 L240 1131 L239 1130 L240 1127 L239 1126 Z M806 1115 L808 1117 L808 1119 L804 1123 L802 1121 L802 1119 Z M805 1114 L801 1117 L801 1121 L803 1125 L807 1124 L810 1119 L809 1115 Z M361 1085 L381 1101 L405 1113 L402 1115 L398 1115 L394 1113 L391 1116 L388 1116 L384 1120 L384 1126 L382 1130 L382 1134 L377 1138 L376 1144 L374 1146 L371 1146 L368 1141 L369 1124 L368 1123 L368 1115 L366 1110 L367 1099 L364 1094 L364 1092 L361 1089 L360 1086 Z M815 1087 L815 1085 L818 1083 L820 1083 L822 1086 L819 1089 L817 1089 Z M821 1082 L815 1083 L813 1087 L816 1090 L819 1091 L823 1088 L823 1084 Z M906 1069 L907 1068 L908 1069 L907 1070 Z M514 1068 L518 1065 L524 1063 L547 1062 L552 1064 L555 1067 L554 1068 L554 1079 L551 1082 L544 1084 L521 1085 L518 1084 L515 1081 L515 1070 Z M472 1067 L475 1064 L482 1061 L491 1061 L492 1062 L504 1063 L510 1066 L513 1069 L513 1080 L510 1084 L507 1085 L501 1085 L500 1086 L481 1085 L476 1083 L473 1080 L473 1068 Z M462 1060 L463 1059 L466 1060 L465 1061 Z M591 1061 L590 1062 L591 1063 L591 1069 L587 1075 L577 1079 L566 1080 L565 1081 L561 1081 L556 1078 L556 1066 L563 1061 L572 1060 L573 1059 L580 1059 L581 1058 L589 1058 Z M434 1058 L435 1057 L439 1057 L440 1058 L455 1059 L467 1064 L471 1067 L470 1069 L471 1080 L469 1082 L463 1083 L462 1082 L451 1081 L442 1078 L439 1075 L437 1070 L437 1059 Z M623 1055 L624 1054 L625 1055 L624 1056 Z M621 1053 L621 1059 L615 1066 L599 1072 L594 1072 L592 1070 L593 1062 L592 1061 L596 1056 L601 1056 L617 1052 Z M633 1049 L626 1055 L623 1053 L624 1050 L630 1048 Z M484 1049 L485 1048 L487 1049 L486 1050 Z M632 1048 L633 1047 L634 1048 L633 1049 Z M388 1047 L391 1046 L400 1050 L421 1054 L422 1055 L427 1055 L435 1060 L435 1071 L436 1073 L435 1074 L428 1074 L412 1067 L408 1063 L406 1053 L405 1053 L405 1058 L402 1059 L397 1056 Z M387 1046 L388 1045 L389 1046 L388 1047 Z M160 1039 L161 1038 L162 1039 L161 1040 Z M500 1039 L498 1038 L497 1042 L493 1045 L491 1045 L491 1047 L497 1044 L498 1040 Z M596 1043 L599 1039 L599 1034 L602 1031 L607 1029 L610 1030 L614 1034 L619 1034 L622 1037 L628 1037 L629 1038 L628 1040 L603 1046 L598 1046 Z M507 1011 L509 1013 L510 1018 L506 1025 L503 1026 L500 1023 L501 1022 L502 1014 Z M722 1003 L723 1002 L724 1003 L723 1004 Z M721 1001 L722 1000 L723 1001 L722 1002 Z M718 998 L720 997 L722 1000 L721 1001 Z M716 997 L717 996 L719 997 L718 998 Z M724 1007 L723 1013 L711 1027 L708 1025 L706 1026 L705 1025 L706 1022 L705 1022 L693 1038 L671 1063 L650 1084 L630 1099 L617 1106 L595 1114 L575 1119 L555 1121 L554 1122 L544 1122 L543 1123 L504 1123 L503 1122 L491 1122 L490 1121 L481 1121 L480 1120 L467 1119 L466 1118 L461 1118 L460 1117 L456 1117 L430 1111 L407 1103 L386 1092 L374 1083 L343 1051 L316 1018 L314 1013 L314 1007 L317 1000 L321 997 L325 999 L352 1026 L371 1038 L383 1043 L385 1047 L394 1056 L402 1061 L405 1061 L410 1068 L422 1074 L428 1076 L435 1076 L437 1075 L442 1080 L457 1084 L469 1084 L472 1082 L475 1085 L482 1087 L507 1087 L510 1086 L513 1083 L518 1086 L531 1087 L532 1086 L548 1085 L553 1083 L555 1080 L562 1083 L576 1081 L589 1076 L591 1073 L599 1074 L609 1071 L618 1066 L624 1058 L633 1052 L642 1043 L658 1036 L674 1025 L695 1004 L701 1000 L709 998 L704 997 L699 999 L691 1005 L675 1022 L656 1035 L630 1047 L602 1054 L597 1054 L593 1056 L581 1056 L580 1057 L573 1057 L566 1059 L558 1059 L559 1062 L556 1064 L551 1062 L554 1061 L554 1060 L532 1060 L531 1061 L520 1062 L514 1066 L506 1062 L507 1061 L504 1062 L500 1060 L493 1060 L492 1059 L475 1059 L477 1061 L471 1065 L465 1061 L466 1060 L465 1058 L431 1055 L391 1045 L367 1034 L355 1026 L341 1014 L328 999 L330 998 L352 1020 L365 1029 L383 1038 L395 1042 L417 1046 L418 1047 L432 1048 L433 1049 L478 1050 L479 1051 L495 1052 L508 1055 L525 1055 L526 1054 L545 1052 L546 1051 L586 1050 L587 1049 L601 1048 L624 1042 L628 1042 L645 1036 L659 1029 L673 1019 L696 998 L707 994 L716 995 L717 996 L716 997 L711 997 L711 998 L714 998 L718 1000 L721 1005 Z M294 1002 L296 998 L298 1000 L302 996 L307 994 L318 995 L319 996 L313 1003 L312 1007 L313 1014 L310 1015 L311 1019 L315 1020 L322 1027 L346 1057 L368 1080 L388 1095 L410 1106 L431 1113 L435 1113 L443 1116 L447 1116 L458 1119 L476 1121 L477 1122 L484 1122 L485 1123 L494 1123 L495 1124 L536 1125 L537 1124 L550 1124 L551 1123 L567 1122 L593 1116 L616 1108 L636 1097 L651 1085 L683 1052 L705 1025 L707 1027 L711 1028 L703 1039 L680 1066 L658 1088 L641 1102 L632 1108 L618 1115 L598 1122 L578 1127 L567 1128 L566 1129 L547 1130 L546 1131 L501 1131 L500 1130 L489 1130 L488 1129 L471 1128 L470 1127 L459 1126 L439 1121 L435 1121 L409 1113 L406 1111 L405 1112 L387 1103 L371 1092 L357 1079 L340 1060 L312 1025 L295 1008 Z M318 993 L321 992 L329 998 L327 999 Z M726 991 L729 992 L729 995 L731 997 L731 1002 L727 1006 L725 1001 L721 996 Z M480 991 L480 995 L482 1001 L486 1008 L488 1022 L494 1027 L496 1027 L498 1025 L506 1027 L512 1019 L510 1011 L505 1010 L502 1012 L500 1016 L500 1021 L498 1025 L495 1026 L490 1022 L489 1014 L487 1011 L487 1006 L483 999 L483 995 L481 993 L481 991 Z M296 998 L300 993 L307 990 L315 990 L319 992 L318 993 L314 992 L306 993 L297 999 Z M223 973 L224 972 L225 973 L224 974 Z M766 973 L768 971 L776 976 L778 979 L778 982 L777 983 L774 982 L766 975 Z M478 971 L479 970 L480 972 L479 973 Z M222 971 L223 970 L224 971 L223 972 Z M765 971 L764 974 L766 978 L775 984 L779 983 L779 978 L776 974 L769 970 Z M342 969 L345 969 L347 971 L347 974 L345 977 L343 977 L341 974 L341 970 Z M343 967 L340 969 L339 974 L344 979 L347 977 L349 972 L346 968 Z M553 966 L554 965 L555 966 L554 967 Z M220 963 L219 964 L220 965 L219 968 L221 973 L225 978 L226 978 L225 976 L226 974 L232 980 L231 975 Z M466 957 L477 969 L476 971 L478 974 L478 980 L480 983 L480 988 L481 988 L481 981 L479 976 L480 972 L488 977 L498 981 L508 982 L509 983 L517 983 L518 982 L524 982 L532 980 L544 974 L553 966 L554 967 L554 973 L551 978 L552 985 L550 989 L549 1000 L546 1012 L546 1029 L545 1030 L545 1037 L544 1038 L545 1045 L552 1048 L551 1049 L533 1051 L527 1053 L506 1053 L493 1050 L490 1051 L488 1049 L489 1048 L488 1049 L487 1048 L487 1046 L483 1046 L478 1043 L471 1043 L464 1038 L463 1036 L464 1035 L463 1027 L470 1017 L472 1010 L471 1000 L473 996 L473 993 L475 991 L474 983 L473 982 L473 975 L470 972 L468 965 L465 961 Z M564 955 L565 954 L566 955 L565 956 Z M565 954 L566 953 L567 954 L566 955 Z M566 953 L567 952 L568 953 L567 954 Z M567 952 L568 951 L569 952 L568 953 Z M140 950 L142 955 L142 964 L145 967 L145 972 L147 974 L147 981 L150 989 L150 999 L153 1006 L153 1011 L156 1019 L156 1027 L161 1037 L160 1039 L149 1026 L139 1004 L138 985 L140 982 L140 979 L138 973 L138 957 Z M487 945 L489 945 L493 949 L496 957 L498 959 L505 961 L506 965 L505 966 L505 971 L503 973 L500 974 L494 973 L493 970 L489 966 L490 961 L485 949 Z M580 943 L570 952 L568 951 L578 942 Z M579 942 L580 941 L582 942 L581 943 Z M581 941 L582 940 L583 941 L582 942 Z M592 937 L593 939 L589 949 L590 962 L587 966 L582 966 L580 968 L580 973 L578 976 L580 984 L580 994 L582 996 L583 1003 L577 1008 L576 1011 L576 1016 L574 1023 L574 1035 L570 1040 L566 1040 L560 1045 L556 1046 L548 1045 L546 1043 L548 1008 L551 999 L551 992 L553 987 L553 977 L556 973 L556 963 L559 960 L566 957 L571 952 L574 951 L587 939 Z M334 934 L329 938 L328 935 L331 932 Z M333 931 L330 931 L327 933 L326 936 L328 939 L332 939 L335 936 L335 933 Z M206 927 L212 935 L212 938 L210 941 L206 939 L206 935 L204 932 Z M205 926 L203 929 L204 939 L211 943 L214 939 L213 933 L207 926 Z M459 924 L462 923 L464 925 L464 927 L461 928 Z M459 921 L457 924 L458 927 L461 930 L465 930 L466 929 L465 924 L463 922 Z M146 919 L150 925 L148 929 L148 937 L150 940 L151 951 L153 954 L155 965 L160 976 L162 978 L164 986 L168 991 L171 998 L182 1013 L180 1019 L175 1019 L173 1017 L169 1018 L168 1026 L170 1030 L170 1036 L169 1037 L170 1039 L170 1043 L169 1044 L170 1043 L171 1044 L170 1046 L168 1046 L166 1044 L158 1028 L157 1016 L151 997 L151 987 L148 980 L147 966 L143 963 L143 953 L139 940 L139 930 L141 925 L140 922 L142 920 L143 921 L143 925 L144 925 Z M319 916 L321 916 L325 921 L324 925 L318 920 Z M320 914 L316 917 L316 919 L322 927 L325 927 L327 924 L327 921 Z M527 910 L528 912 L530 911 L530 910 Z M264 909 L268 915 L270 921 L269 924 L264 923 L261 918 L262 912 Z M543 909 L541 909 L538 912 L537 911 L539 913 Z M474 909 L475 908 L476 909 L475 910 Z M567 908 L567 909 L570 909 L570 908 L568 909 Z M550 908 L548 908 L548 913 L550 912 Z M515 908 L514 910 L515 913 L516 913 L518 911 Z M263 908 L259 917 L262 924 L269 926 L271 924 L271 919 L268 911 L265 908 Z M477 905 L478 904 L480 906 L483 906 L487 910 L487 913 L485 915 L483 915 L476 910 L478 909 Z M507 904 L505 907 L506 919 L508 918 L510 912 L508 912 L508 914 L507 915 L505 911 L507 907 L508 909 L510 909 Z M738 903 L740 901 L751 903 L757 908 L760 908 L762 910 L764 910 L766 913 L762 917 L758 919 L758 921 L755 924 L745 926 L744 924 L746 920 L746 914 Z M473 906 L473 913 L475 911 L478 914 L484 917 L488 915 L489 910 L486 906 L482 905 L478 902 Z M431 900 L435 903 L437 903 L436 901 Z M736 903 L739 908 L744 913 L744 920 L742 925 L745 928 L751 926 L755 926 L768 913 L766 909 L763 909 L752 902 L749 902 L741 899 L737 901 Z M422 898 L427 900 L424 897 Z M414 897 L416 900 L420 899 L420 898 L417 899 Z M412 895 L410 896 L410 902 L411 902 Z M556 894 L554 894 L556 898 L555 907 L554 908 L556 909 L556 906 L557 905 L558 906 L558 913 L557 914 L555 912 L557 920 L557 924 L554 931 L555 932 L558 925 L558 921 L560 915 L560 907 Z M165 889 L166 888 L167 890 L166 891 Z M175 881 L177 884 L176 894 L175 895 L178 900 L178 905 L176 907 L173 905 L171 897 L172 896 L173 884 Z M165 879 L166 880 L165 884 L164 883 Z M175 878 L171 884 L170 902 L174 909 L177 909 L180 905 L180 900 L177 896 L177 890 L179 885 L176 880 L176 878 Z M163 877 L164 876 L165 878 L164 879 Z M914 861 L916 863 L917 870 L919 874 L919 898 L918 899 L918 903 L919 904 L919 914 L918 915 L919 916 L919 926 L918 927 L918 931 L919 934 L917 941 L917 957 L914 964 L914 974 L908 988 L907 994 L902 1003 L902 1008 L895 1018 L894 1022 L891 1025 L886 1027 L882 1034 L878 1038 L870 1041 L863 1048 L854 1052 L846 1064 L842 1066 L839 1066 L832 1072 L831 1071 L830 1072 L829 1070 L833 1064 L836 1056 L836 1053 L835 1052 L831 1052 L828 1049 L829 1044 L844 1034 L857 1020 L862 1010 L869 1001 L872 995 L877 981 L880 977 L880 974 L884 966 L884 963 L887 962 L890 959 L893 964 L893 972 L894 973 L896 973 L899 968 L899 961 L900 960 L901 961 L900 957 L902 955 L902 946 L906 935 L906 915 L909 907 L908 900 L911 895 L911 877 L913 869 L912 865 Z M915 858 L912 861 L910 869 L911 873 L909 877 L909 895 L907 898 L907 908 L905 912 L904 934 L900 948 L900 955 L897 961 L897 969 L896 970 L895 969 L895 964 L891 957 L889 957 L887 960 L885 960 L883 962 L879 971 L878 977 L875 981 L870 995 L867 1001 L860 1010 L855 1020 L842 1034 L837 1036 L828 1043 L826 1047 L827 1051 L830 1053 L834 1053 L835 1054 L827 1071 L828 1074 L833 1073 L837 1069 L846 1066 L849 1063 L855 1053 L858 1051 L862 1051 L870 1043 L879 1039 L883 1035 L885 1031 L895 1023 L896 1019 L903 1009 L904 1002 L909 993 L909 989 L915 975 L916 961 L919 952 L919 937 L920 936 L920 925 L921 924 L921 905 L920 904 L921 885 L920 884 L920 871 L917 866 L917 861 Z M896 842 L900 849 L900 853 L903 861 L902 894 L899 895 L896 899 L895 906 L893 910 L893 919 L887 929 L886 928 L885 911 L882 910 L880 907 L880 893 L876 888 L874 888 L870 885 L868 879 L872 872 L877 872 L879 870 L882 862 L881 856 L884 849 L887 848 L889 850 L891 850 L894 846 L894 843 Z M897 840 L895 840 L893 842 L891 848 L885 846 L882 849 L880 854 L880 862 L877 870 L869 872 L866 878 L866 881 L868 885 L878 892 L878 907 L883 912 L884 929 L887 931 L891 927 L895 919 L895 909 L897 906 L898 898 L902 897 L904 894 L905 861 L901 851 L900 844 Z M851 836 L853 841 L853 847 L851 853 L851 869 L853 876 L852 880 L848 881 L843 879 L841 881 L837 881 L835 882 L829 890 L827 891 L824 890 L822 892 L819 892 L815 894 L813 892 L813 890 L818 884 L828 860 L828 855 L825 851 L824 843 L828 840 L830 836 L832 836 L834 840 L834 844 L836 847 L836 851 L840 855 L845 851 L848 837 Z M851 834 L849 834 L846 837 L844 850 L841 853 L838 851 L838 847 L836 844 L835 838 L832 834 L829 834 L828 837 L823 841 L822 848 L826 856 L826 862 L817 883 L813 887 L811 891 L812 894 L817 895 L824 892 L829 892 L837 883 L840 883 L842 881 L846 881 L850 883 L854 880 L855 875 L853 871 L854 869 L853 867 L853 852 L855 849 L855 841 Z M153 822 L154 821 L155 822 L154 823 Z M589 810 L585 817 L583 826 L584 826 L585 820 L588 814 L593 808 L597 806 L610 806 L619 810 L626 815 L634 823 L640 832 L645 845 L647 860 L649 860 L647 846 L642 832 L636 823 L626 813 L614 806 L607 804 L599 804 L594 806 Z M447 813 L444 808 L439 803 L434 801 L422 802 L410 809 L399 820 L390 836 L390 839 L391 839 L392 835 L400 821 L411 810 L419 805 L424 803 L435 803 L439 805 L443 809 L447 818 L448 825 L449 825 L449 819 Z M223 766 L226 767 L226 771 L224 773 L221 771 Z M224 764 L221 765 L219 769 L219 771 L222 775 L225 775 L228 771 L228 767 Z M159 756 L160 759 L158 766 L159 767 L158 769 L158 777 L153 794 L154 807 L149 820 L149 829 L148 830 L147 829 L147 813 L146 813 L143 822 L143 827 L141 834 L141 844 L140 845 L140 850 L141 851 L144 840 L143 836 L144 826 L145 825 L146 826 L146 832 L148 833 L153 822 L154 823 L154 831 L152 834 L151 846 L150 847 L150 855 L149 856 L149 871 L148 872 L148 884 L147 885 L147 897 L146 898 L146 916 L144 919 L143 918 L141 919 L139 917 L136 893 L135 892 L135 882 L134 881 L134 860 L135 859 L135 854 L134 853 L132 856 L128 850 L127 834 L128 833 L128 826 L131 814 L134 809 L135 812 L136 812 L137 808 L136 791 L140 774 L141 760 L143 758 L146 760 L147 759 L148 763 L150 765 L152 765 L156 757 Z M828 746 L831 749 L832 752 L836 754 L843 754 L849 765 L847 769 L843 769 L842 770 L837 769 L831 774 L831 781 L828 784 L828 786 L819 789 L817 785 L820 777 L820 770 L818 767 L817 761 L814 758 L814 752 L816 749 L821 750 L826 746 Z M827 744 L820 749 L819 748 L815 748 L812 752 L812 757 L816 762 L816 767 L819 772 L818 780 L816 783 L816 788 L818 790 L827 789 L832 782 L833 779 L832 775 L837 771 L841 771 L842 772 L847 771 L851 765 L849 761 L847 760 L846 755 L843 752 L838 752 L837 753 L833 751 L831 747 Z M611 729 L612 728 L613 729 L612 730 Z M600 729 L603 728 L607 729 L608 731 L603 733 Z M581 729 L586 753 L588 759 L589 759 L583 735 L583 731 Z M455 729 L453 731 L452 741 L448 754 L450 754 L451 752 Z M613 728 L614 727 L615 728 L614 729 Z M428 728 L429 727 L436 727 L437 729 L436 730 L429 730 Z M424 727 L425 726 L426 727 L425 728 Z M602 723 L603 722 L604 723 L603 724 Z M434 721 L435 720 L436 721 L435 722 Z M604 720 L605 719 L606 720 L605 721 Z M605 719 L606 718 L607 719 L606 720 Z M433 719 L434 718 L435 719 L434 720 Z M432 718 L433 717 L434 718 L433 719 Z M431 716 L432 715 L433 716 L432 717 Z M430 714 L431 713 L432 715 L431 716 Z M429 713 L430 712 L431 713 L430 714 Z M197 711 L198 710 L202 711 L201 712 Z M836 710 L837 709 L839 710 L838 711 Z M204 710 L205 709 L208 710 L207 711 Z M833 709 L834 708 L836 709 L835 710 Z M822 709 L819 712 L811 712 L810 711 L819 708 Z M801 709 L805 708 L809 710 L805 711 Z M797 708 L798 707 L801 708 L800 709 Z M210 706 L211 705 L212 706 L211 707 Z M212 705 L213 704 L214 705 L213 706 Z M214 704 L215 703 L217 704 L216 705 Z M245 703 L246 702 L247 703 L246 704 Z M226 702 L228 702 L229 705 L233 707 L253 704 L255 706 L254 713 L261 720 L258 724 L245 724 L242 726 L239 730 L240 733 L238 737 L233 737 L229 733 L223 733 L222 732 L216 733 L213 736 L212 739 L209 741 L206 741 L203 736 L199 734 L197 734 L191 739 L191 743 L188 747 L188 758 L186 761 L186 777 L191 779 L191 785 L188 796 L188 805 L190 812 L190 824 L191 825 L190 826 L195 833 L194 848 L193 849 L193 864 L195 872 L198 875 L201 874 L203 875 L208 871 L208 865 L211 862 L211 854 L208 848 L208 843 L207 842 L210 835 L210 832 L213 828 L217 833 L225 825 L227 827 L226 836 L228 840 L226 846 L226 853 L225 854 L226 863 L227 864 L227 869 L225 873 L226 882 L229 884 L232 882 L235 885 L235 898 L238 907 L237 918 L240 924 L239 931 L244 938 L250 938 L252 942 L251 946 L253 949 L253 952 L250 955 L240 953 L237 956 L238 960 L237 963 L240 966 L241 970 L245 972 L248 972 L252 976 L258 976 L262 977 L264 979 L263 983 L264 986 L262 988 L254 986 L246 988 L240 985 L239 986 L236 983 L232 984 L230 986 L230 990 L235 995 L238 996 L241 1001 L240 1002 L239 1001 L235 1002 L232 1000 L227 1001 L225 1003 L225 1005 L228 1009 L227 1010 L217 1004 L212 1003 L203 994 L198 992 L195 992 L192 994 L191 996 L192 1001 L191 1002 L187 999 L184 995 L184 993 L180 989 L179 985 L171 976 L172 972 L171 969 L173 967 L173 962 L170 957 L169 950 L163 945 L161 929 L156 922 L156 915 L158 908 L157 895 L156 894 L158 886 L158 879 L160 875 L163 880 L163 885 L164 886 L163 888 L165 894 L168 891 L168 888 L167 889 L166 888 L167 880 L165 875 L165 867 L166 866 L165 864 L169 854 L168 846 L169 845 L169 836 L171 832 L171 825 L168 817 L168 812 L171 806 L173 808 L175 805 L175 799 L177 791 L175 784 L176 773 L174 769 L177 763 L177 755 L182 741 L182 734 L181 732 L177 729 L173 730 L171 728 L170 721 L168 717 L171 711 L173 710 L176 712 L179 712 L184 707 L189 707 L190 710 L193 713 L200 714 L203 712 L210 711 L213 707 L216 707 Z M217 703 L218 702 L220 703 L219 704 Z M247 702 L248 701 L251 702 L250 703 Z M242 702 L243 701 L244 702 L243 703 Z M230 703 L232 701 L242 702 L243 703 L240 705 L233 705 Z M220 702 L221 701 L222 702 L221 703 Z M812 701 L813 700 L815 701 L814 702 Z M754 701 L755 700 L757 701 L756 702 Z M815 702 L817 699 L834 708 L831 709 L822 706 Z M811 700 L812 699 L813 700 L812 701 Z M809 699 L810 698 L812 699 L811 700 Z M222 699 L223 698 L224 699 L223 700 Z M752 700 L751 701 L743 701 L742 700 L722 699 L716 703 L716 705 L708 714 L702 715 L700 717 L698 717 L693 720 L690 724 L683 726 L681 728 L671 732 L666 731 L660 727 L646 729 L642 726 L638 727 L633 724 L635 719 L637 719 L648 713 L663 708 L666 706 L669 706 L684 701 L702 699 L703 698 L714 698 L715 697 L734 697 L735 698 L744 698 Z M223 698 L224 697 L226 698 L225 699 Z M232 696 L233 695 L235 696 L234 697 Z M234 695 L235 694 L237 695 L236 696 Z M233 697 L224 702 L221 701 L225 699 L226 696 L228 697 L227 696 L229 694 L231 695 L230 696 Z M230 694 L231 693 L232 694 L231 695 Z M457 693 L455 695 L455 717 L456 717 L457 714 Z M231 693 L232 692 L234 693 L233 694 Z M808 692 L809 691 L811 692 L810 693 Z M233 692 L234 691 L235 692 L234 693 Z M836 700 L830 705 L818 699 L810 693 L812 692 L817 695 L819 694 L823 695 L830 690 L832 692 L832 694 L835 696 Z M798 707 L794 708 L769 701 L754 699 L753 698 L747 698 L746 697 L738 697 L737 696 L709 696 L708 697 L693 698 L692 699 L671 703 L650 711 L634 719 L632 719 L630 721 L624 723 L616 728 L614 727 L624 719 L639 710 L661 700 L691 692 L706 691 L707 690 L733 690 L734 691 L741 691 L742 692 L756 694 L760 696 L764 696 L768 698 L785 702 Z M574 691 L578 715 L580 716 L575 691 Z M234 691 L235 690 L237 691 L236 692 Z M236 690 L237 689 L238 690 L237 691 Z M237 689 L238 688 L239 689 L238 690 Z M238 688 L239 687 L241 688 L240 689 Z M251 687 L238 695 L236 694 L245 687 L246 688 L249 686 Z M240 687 L241 686 L242 687 L241 688 Z M246 686 L247 685 L248 686 L247 687 Z M241 686 L242 685 L244 686 L243 687 Z M248 685 L249 684 L250 685 L249 686 Z M243 685 L244 684 L245 685 L244 686 Z M531 683 L534 686 L534 691 L535 692 L534 704 L538 716 L538 724 L541 731 L545 735 L547 740 L547 753 L543 764 L543 770 L546 777 L552 782 L554 788 L554 798 L551 805 L551 811 L553 815 L549 822 L549 824 L551 829 L557 831 L559 833 L561 839 L569 846 L569 849 L562 856 L563 864 L564 865 L564 876 L565 877 L566 886 L570 893 L570 900 L575 906 L574 908 L576 911 L577 919 L580 920 L584 917 L586 914 L587 906 L590 902 L598 905 L606 904 L611 899 L615 898 L617 900 L617 904 L618 905 L617 907 L620 912 L623 912 L628 907 L630 908 L623 920 L617 926 L608 930 L588 935 L578 940 L571 945 L545 971 L539 975 L529 979 L521 980 L520 981 L507 981 L495 978 L493 976 L494 974 L498 976 L499 975 L503 975 L507 971 L507 960 L504 958 L499 958 L496 954 L495 948 L489 943 L485 944 L483 949 L488 961 L488 967 L492 971 L492 975 L491 976 L482 971 L469 958 L456 942 L440 928 L433 924 L413 918 L408 915 L405 912 L407 911 L407 907 L408 906 L407 903 L408 902 L406 903 L407 906 L404 911 L398 902 L395 892 L397 887 L398 863 L400 855 L402 853 L402 850 L406 842 L409 839 L413 840 L413 844 L415 848 L414 850 L414 854 L415 855 L414 863 L417 869 L417 872 L421 877 L422 881 L429 884 L431 886 L434 886 L440 881 L442 876 L442 872 L444 870 L445 861 L446 860 L445 837 L446 834 L448 832 L450 832 L453 827 L454 803 L457 800 L458 797 L460 797 L463 802 L463 806 L465 809 L464 821 L465 824 L467 825 L472 825 L478 819 L483 819 L495 814 L505 804 L504 787 L503 784 L500 781 L500 775 L502 773 L505 766 L507 758 L506 751 L515 731 L515 725 L510 713 L510 704 L512 702 L518 701 L521 698 L523 689 Z M332 684 L332 686 L341 686 L357 690 L362 690 L351 686 Z M249 684 L250 683 L251 684 L250 685 Z M244 684 L245 683 L246 684 L245 685 Z M250 683 L251 682 L252 683 L251 684 Z M532 682 L529 682 L522 688 L519 698 L517 700 L512 700 L510 702 L507 709 L509 710 L509 716 L513 724 L514 730 L510 737 L510 739 L508 741 L507 747 L505 749 L505 761 L503 764 L502 770 L498 775 L498 780 L502 785 L502 789 L503 790 L503 796 L504 797 L503 804 L495 812 L490 815 L487 815 L483 817 L478 817 L470 824 L468 824 L466 821 L467 809 L465 806 L464 798 L460 795 L458 795 L452 803 L451 827 L445 833 L443 837 L443 852 L444 853 L443 867 L441 871 L441 875 L438 881 L435 884 L432 885 L430 883 L426 882 L419 873 L418 868 L416 865 L416 854 L415 853 L416 847 L414 839 L412 837 L408 838 L401 848 L396 864 L396 884 L395 885 L393 884 L391 867 L389 868 L392 888 L396 902 L398 905 L398 909 L403 914 L405 914 L408 917 L416 921 L428 924 L440 930 L464 954 L463 960 L466 965 L466 968 L471 976 L471 984 L474 989 L471 993 L471 997 L469 1000 L470 1011 L468 1017 L461 1027 L461 1031 L462 1032 L461 1037 L464 1041 L466 1041 L472 1045 L478 1045 L480 1047 L484 1048 L483 1049 L472 1049 L471 1048 L431 1047 L430 1046 L411 1044 L388 1038 L378 1034 L360 1024 L350 1016 L328 994 L318 989 L313 989 L312 988 L304 989 L300 991 L293 999 L292 1002 L293 1008 L309 1024 L342 1065 L359 1083 L359 1088 L365 1099 L365 1112 L366 1113 L366 1121 L368 1127 L368 1132 L366 1136 L366 1140 L368 1145 L372 1148 L376 1147 L378 1144 L378 1139 L383 1135 L384 1128 L386 1125 L386 1120 L394 1115 L402 1117 L406 1116 L408 1114 L421 1119 L424 1119 L440 1124 L444 1124 L460 1128 L473 1129 L474 1130 L490 1131 L491 1132 L504 1132 L507 1135 L509 1133 L544 1133 L545 1132 L571 1130 L572 1129 L576 1129 L577 1128 L598 1124 L623 1115 L639 1105 L641 1106 L640 1105 L643 1102 L653 1095 L672 1077 L698 1048 L716 1024 L725 1014 L726 1008 L729 1007 L733 1003 L734 999 L731 995 L731 992 L728 989 L725 990 L719 995 L710 992 L703 993 L696 996 L689 1001 L675 1015 L665 1023 L654 1030 L641 1036 L632 1039 L629 1035 L623 1036 L621 1033 L615 1033 L611 1029 L605 1028 L600 1030 L597 1034 L597 1039 L595 1042 L596 1046 L595 1047 L591 1047 L590 1048 L569 1048 L568 1049 L557 1049 L556 1048 L563 1045 L566 1042 L571 1041 L576 1034 L575 1025 L576 1024 L578 1010 L584 1004 L584 998 L581 992 L582 984 L579 978 L582 972 L581 969 L585 967 L588 967 L592 962 L590 954 L591 953 L591 947 L594 942 L594 937 L593 936 L600 933 L608 932 L617 928 L627 918 L635 899 L638 887 L638 882 L639 881 L639 869 L640 867 L639 866 L638 851 L634 841 L632 840 L636 850 L638 870 L637 871 L636 887 L631 904 L621 910 L619 908 L620 903 L616 897 L612 897 L608 901 L604 903 L597 903 L591 900 L588 901 L586 904 L585 913 L580 918 L578 916 L576 905 L571 899 L571 891 L567 885 L566 872 L565 871 L564 855 L567 852 L570 851 L571 848 L570 845 L562 838 L560 831 L554 829 L551 826 L551 821 L554 817 L554 812 L552 807 L556 796 L556 790 L553 781 L546 774 L544 768 L549 751 L549 743 L548 742 L548 738 L546 734 L542 730 L541 725 L539 722 L539 713 L536 706 L536 687 Z M701 681 L702 680 L703 681 L702 682 Z M647 680 L648 679 L649 680 L648 681 Z M400 679 L411 691 L416 699 L423 707 L429 717 L435 724 L434 726 L427 725 L397 703 L400 698 L400 687 L399 686 L400 685 L399 684 L399 680 Z M782 679 L783 678 L784 679 L783 680 Z M398 679 L399 678 L400 679 L399 680 Z M781 678 L782 677 L783 678 L782 679 Z M650 678 L651 677 L652 678 L651 679 Z M397 678 L398 677 L399 678 L398 679 Z M779 677 L780 676 L781 677 L780 678 Z M651 677 L652 676 L653 677 L652 678 Z M396 677 L397 676 L398 677 L397 678 Z M777 676 L778 675 L780 676 L779 677 Z M653 676 L654 675 L655 676 L654 677 Z M395 676 L396 675 L397 676 L396 677 Z M654 675 L655 674 L656 675 L655 676 Z M393 675 L394 674 L396 675 L395 676 Z M655 674 L656 673 L658 674 L657 675 Z M392 674 L393 673 L394 674 L393 675 Z M391 673 L392 672 L393 673 L392 674 Z M390 672 L391 671 L392 672 L391 673 Z M663 671 L659 674 L657 673 L661 670 Z M387 670 L389 669 L391 671 L389 672 Z M673 666 L671 668 L670 672 L662 670 L670 665 Z M672 665 L673 664 L675 665 L674 666 Z M674 664 L675 663 L677 664 L676 665 Z M816 706 L813 708 L808 708 L778 698 L747 690 L741 690 L735 688 L708 688 L707 689 L700 689 L699 690 L682 692 L658 699 L635 710 L614 725 L607 728 L603 727 L622 704 L641 685 L644 685 L662 673 L667 672 L671 681 L676 686 L682 688 L691 688 L699 684 L701 681 L703 682 L707 674 L707 664 L713 662 L722 663 L745 670 L759 677 L761 677 L777 686 L776 685 L777 683 L787 689 L790 692 L794 693 Z M702 664 L703 667 L702 676 L699 681 L694 685 L691 686 L681 686 L677 684 L673 680 L672 669 L674 667 L682 664 L688 664 L693 662 L698 662 Z M676 663 L677 662 L679 663 L678 664 Z M333 663 L334 662 L335 663 L334 664 Z M679 662 L686 659 L690 659 L696 657 L715 657 L716 658 L725 658 L726 659 L735 660 L753 666 L780 679 L810 698 L808 699 L789 689 L782 684 L779 683 L776 684 L774 682 L754 672 L729 663 L716 661 L715 660 L709 660 L705 664 L698 660 L694 660 L683 663 Z M336 663 L338 658 L341 656 L354 656 L367 662 L366 663 L367 662 L369 664 L370 670 L363 679 L355 682 L348 681 L344 679 L340 675 L337 669 L337 664 Z M250 701 L265 695 L272 694 L287 689 L291 689 L306 685 L322 685 L321 684 L311 684 L310 683 L309 665 L314 658 L319 656 L328 655 L332 658 L332 668 L334 673 L337 677 L348 683 L359 683 L365 680 L370 675 L372 671 L372 668 L375 666 L388 673 L397 681 L399 686 L399 695 L395 704 L388 700 L386 700 L384 698 L383 699 L399 707 L425 726 L422 727 L381 703 L363 696 L346 692 L331 691 L330 690 L311 690 L310 691 L288 693 L253 702 Z M320 654 L314 656 L308 662 L307 665 L307 678 L308 682 L307 683 L280 689 L247 700 L236 700 L235 699 L237 697 L248 692 L264 681 L265 682 L267 679 L298 660 L316 653 Z M319 653 L320 652 L324 652 L325 653 L324 654 L320 654 Z M324 652 L331 650 L346 650 L347 651 L356 652 L374 659 L388 669 L386 670 L378 665 L373 665 L372 666 L367 659 L358 655 L341 654 L335 660 L331 654 Z M394 648 L396 646 L398 646 L407 653 L403 657 Z M910 645 L911 646 L910 665 L908 670 L906 683 L900 698 L898 723 L894 732 L895 742 L898 748 L898 752 L901 761 L903 764 L904 772 L906 776 L906 781 L908 786 L908 791 L910 795 L910 802 L911 803 L911 810 L912 812 L910 814 L910 820 L908 821 L906 816 L906 812 L901 800 L901 796 L898 787 L896 775 L892 772 L890 768 L890 753 L888 748 L886 746 L882 747 L879 744 L879 740 L877 736 L874 733 L868 732 L865 735 L863 735 L858 744 L855 741 L855 738 L850 731 L850 729 L853 724 L852 714 L857 712 L853 711 L853 709 L856 705 L859 703 L863 705 L863 707 L866 711 L871 710 L875 706 L876 701 L878 698 L878 694 L882 688 L885 689 L886 698 L890 698 L893 693 L894 685 L897 682 L897 678 L899 672 L903 665 L903 661 Z M395 645 L393 647 L393 651 L402 658 L405 658 L408 653 L403 647 L401 647 L399 645 Z M542 643 L545 646 L543 649 L541 648 L541 644 Z M542 641 L540 642 L539 647 L543 651 L545 650 L546 645 Z M606 718 L620 698 L636 680 L651 667 L669 656 L682 651 L690 650 L691 649 L700 649 L701 648 L702 649 L704 648 L718 649 L719 650 L733 652 L737 654 L741 654 L741 653 L735 652 L731 650 L726 650 L714 647 L696 647 L672 653 L660 660 L659 658 L656 658 L653 656 L653 654 L659 649 L666 649 L668 647 L676 646 L681 640 L681 637 L683 634 L685 633 L688 634 L693 631 L696 631 L698 633 L698 636 L702 640 L709 643 L712 641 L720 640 L724 643 L735 645 L740 639 L743 639 L745 637 L749 637 L753 641 L753 643 L758 647 L758 649 L767 656 L768 659 L775 662 L777 665 L791 675 L795 677 L800 677 L805 682 L806 685 L808 686 L808 690 L805 691 L770 667 L752 657 L746 656 L752 658 L757 662 L771 669 L778 675 L776 676 L774 674 L757 666 L738 659 L734 659 L729 657 L718 656 L717 655 L691 656 L690 657 L682 658 L672 662 L654 672 L637 686 L616 708 L607 719 Z M598 728 L598 730 L601 734 L607 734 L631 722 L634 727 L637 728 L641 727 L647 731 L650 731 L657 728 L671 733 L678 731 L684 727 L689 726 L694 721 L703 716 L709 715 L713 712 L713 710 L718 705 L718 703 L723 700 L731 702 L740 701 L741 702 L750 702 L751 703 L752 702 L754 703 L764 703 L765 702 L813 714 L821 713 L824 708 L839 713 L847 713 L848 714 L849 713 L850 714 L851 724 L848 729 L848 731 L851 734 L853 738 L853 741 L856 745 L859 745 L863 740 L863 738 L870 733 L875 736 L877 740 L877 744 L879 747 L881 748 L885 747 L888 754 L888 768 L895 777 L899 799 L904 811 L906 821 L908 823 L910 823 L912 819 L911 818 L913 812 L913 804 L911 800 L912 796 L908 782 L906 768 L904 765 L896 738 L896 731 L899 728 L899 723 L901 717 L902 697 L907 684 L908 678 L910 675 L910 668 L912 665 L912 651 L913 648 L911 643 L907 646 L905 654 L903 656 L900 667 L892 685 L892 691 L890 694 L888 695 L886 688 L884 686 L881 686 L876 694 L876 698 L874 704 L870 709 L867 709 L863 703 L858 702 L853 705 L850 711 L846 711 L837 708 L833 705 L836 703 L838 698 L831 689 L828 689 L823 693 L819 692 L816 693 L810 689 L809 685 L804 678 L801 676 L797 676 L792 674 L776 661 L771 659 L765 652 L763 652 L759 648 L759 646 L754 642 L753 638 L750 636 L746 635 L741 638 L738 638 L735 643 L726 642 L719 638 L707 641 L700 636 L699 632 L697 630 L693 629 L689 632 L683 632 L681 634 L678 642 L673 646 L669 645 L666 647 L660 647 L651 654 L651 657 L653 659 L657 659 L658 661 L640 674 L625 689 L610 708 L608 712 L605 715 L604 714 L605 716 L600 723 Z M250 686 L261 674 L286 657 L306 647 L318 643 L318 642 L314 643 L311 640 L310 630 L313 625 L318 623 L322 623 L326 626 L326 628 L331 634 L337 634 L344 632 L348 632 L349 633 L355 633 L359 631 L361 632 L366 639 L361 643 L348 641 L347 640 L334 640 L334 641 L344 641 L359 645 L363 645 L365 647 L367 647 L377 652 L386 658 L412 684 L422 698 L430 712 L429 713 L409 686 L387 665 L370 655 L351 649 L331 648 L330 649 L324 649 L309 653 L283 666 L252 687 Z M519 621 L520 624 L518 626 L516 624 Z M518 619 L516 620 L515 625 L516 627 L519 628 L521 626 L522 622 Z M137 610 L138 609 L139 610 L138 611 Z M250 607 L253 610 L253 647 L251 649 L250 654 L252 658 L253 669 L257 671 L257 675 L247 684 L245 683 L246 682 L245 681 L244 683 L234 690 L226 694 L216 701 L210 702 L208 704 L204 703 L202 697 L200 695 L200 688 L202 681 L204 662 L209 654 L213 658 L213 663 L215 665 L215 669 L219 685 L221 687 L225 686 L231 687 L234 684 L235 681 L235 671 L237 665 L236 656 L240 650 L240 639 L241 638 L241 629 L242 628 L242 621 L243 620 L242 618 L244 611 Z M517 606 L519 608 L519 610 L517 612 L515 610 L515 608 Z M251 606 L248 606 L245 608 L241 615 L240 629 L239 630 L239 641 L238 642 L239 649 L234 658 L235 665 L233 671 L233 677 L234 678 L233 679 L233 683 L231 685 L227 684 L222 685 L221 684 L214 656 L212 654 L208 653 L204 657 L202 662 L201 672 L200 673 L200 680 L199 681 L200 682 L198 687 L198 695 L201 699 L201 702 L203 704 L205 704 L206 706 L203 708 L198 709 L195 712 L190 706 L186 705 L183 706 L179 710 L175 710 L174 709 L170 710 L167 715 L167 720 L170 729 L173 731 L176 730 L180 733 L180 739 L179 740 L179 746 L176 751 L175 763 L173 767 L173 772 L174 773 L173 785 L174 786 L174 793 L175 794 L173 799 L174 804 L170 805 L167 810 L167 819 L170 829 L168 833 L166 859 L163 867 L164 868 L164 875 L163 876 L162 874 L160 874 L157 877 L156 888 L155 889 L156 912 L154 920 L155 921 L155 925 L159 929 L159 934 L162 946 L168 951 L169 959 L171 961 L171 967 L170 968 L170 977 L171 979 L178 986 L178 988 L182 993 L183 997 L189 1003 L193 1003 L194 1002 L193 995 L198 993 L202 995 L210 1003 L220 1007 L225 1011 L229 1011 L230 1009 L227 1004 L228 1002 L241 1003 L243 1001 L242 997 L234 992 L232 987 L234 985 L236 985 L238 987 L242 987 L245 989 L253 987 L261 990 L265 987 L266 980 L262 975 L254 975 L249 971 L244 970 L239 963 L239 956 L240 955 L244 955 L249 957 L253 955 L254 948 L253 947 L253 940 L252 938 L249 936 L245 937 L241 932 L242 925 L239 919 L240 908 L236 892 L236 883 L234 881 L230 882 L228 881 L228 875 L227 874 L229 869 L228 847 L230 841 L228 837 L229 828 L227 824 L225 823 L223 824 L220 829 L217 831 L214 827 L212 827 L209 830 L205 842 L210 859 L206 865 L206 870 L203 873 L199 874 L196 871 L195 850 L196 849 L197 834 L192 824 L192 813 L190 806 L190 797 L193 786 L193 779 L191 776 L188 775 L188 761 L190 757 L190 748 L193 743 L193 740 L198 735 L201 736 L203 740 L208 743 L212 741 L216 735 L220 735 L221 734 L228 734 L232 738 L237 739 L241 736 L242 733 L241 731 L244 726 L246 725 L250 726 L255 725 L256 726 L260 724 L262 721 L261 717 L255 711 L256 708 L255 704 L256 703 L283 696 L298 694 L299 693 L307 693 L308 692 L330 692 L331 693 L341 693 L342 694 L357 696 L378 704 L430 732 L437 731 L440 726 L432 710 L409 678 L390 659 L378 651 L366 645 L364 645 L363 644 L367 641 L367 637 L365 636 L365 633 L360 630 L352 632 L344 630 L342 632 L334 633 L330 631 L330 629 L324 622 L319 621 L314 624 L312 624 L308 631 L309 640 L311 643 L310 645 L302 647 L300 649 L290 653 L259 674 L258 670 L254 667 L254 661 L252 654 L252 651 L254 648 L254 644 L255 643 L255 637 L254 636 L255 610 Z M514 606 L513 610 L515 613 L518 613 L521 610 L521 608 L518 605 Z M136 603 L137 604 L136 608 L135 607 Z M938 601 L939 600 L940 601 L939 602 Z M248 596 L242 600 L220 622 L213 631 L210 637 L212 636 L214 632 L223 621 Z M945 593 L946 594 L946 606 L938 623 L938 627 L936 631 L936 637 L934 643 L933 658 L937 664 L934 688 L929 695 L923 698 L922 697 L922 692 L923 688 L925 686 L925 675 L927 667 L927 653 L929 645 L929 637 L931 630 L931 624 L936 609 L941 603 Z M599 589 L593 594 L587 602 L580 615 L576 626 L574 641 L573 642 L573 649 L572 650 L572 676 L573 678 L574 677 L573 676 L574 645 L575 644 L575 638 L578 628 L578 624 L585 608 L592 597 Z M239 588 L242 591 L240 597 L238 597 L235 594 L235 591 Z M240 587 L236 588 L233 591 L233 594 L239 599 L243 595 L243 590 Z M861 581 L863 583 L863 591 L862 592 L862 596 L859 599 L857 593 L854 590 L854 587 L856 583 Z M859 580 L857 582 L856 581 L854 582 L852 590 L856 595 L856 598 L858 600 L861 600 L864 596 L865 583 L864 581 Z M412 578 L429 595 L439 612 L444 623 L453 648 L453 652 L455 658 L455 680 L457 680 L457 660 L456 659 L455 649 L445 621 L437 605 L429 593 L419 582 L414 578 Z M767 577 L781 585 L799 599 L832 632 L819 616 L794 593 L775 580 Z M134 577 L135 576 L136 577 L135 578 Z M524 567 L529 573 L532 584 L534 587 L535 596 L533 599 L530 597 L525 588 L525 581 L521 573 Z M524 566 L520 570 L520 575 L524 582 L524 587 L523 588 L529 598 L531 600 L534 600 L536 598 L535 585 L529 570 Z M309 566 L296 569 L283 574 L265 583 L261 587 L281 576 L300 569 L307 568 Z M133 557 L135 562 L135 575 L134 576 L132 572 L132 562 L131 561 L131 559 Z M925 555 L923 555 L921 560 L921 563 L923 566 L926 563 L926 556 Z M545 554 L546 553 L547 555 L546 556 Z M546 552 L547 551 L548 553 L547 554 Z M547 550 L548 549 L549 551 L548 552 Z M461 550 L462 549 L463 551 L462 552 Z M460 548 L461 547 L462 549 L461 550 Z M198 543 L200 545 L201 570 L197 574 L196 580 L193 584 L190 579 L190 574 L187 570 L187 566 L189 560 L188 553 L189 549 L191 547 L194 547 Z M199 542 L196 542 L193 546 L189 546 L186 552 L187 562 L185 566 L185 570 L188 574 L188 579 L191 585 L196 584 L198 579 L198 575 L203 570 L202 546 Z M902 539 L906 544 L907 547 L907 557 L909 560 L908 581 L906 587 L906 594 L903 604 L903 609 L900 617 L900 621 L896 627 L894 640 L892 644 L892 650 L888 660 L885 662 L882 657 L882 643 L880 637 L877 633 L877 626 L879 618 L884 614 L886 605 L888 603 L887 602 L888 601 L888 596 L892 586 L892 581 L893 580 L893 570 L894 569 L893 557 L896 553 L897 543 Z M903 537 L901 537 L895 544 L895 548 L892 556 L892 570 L891 571 L890 586 L887 593 L886 601 L883 608 L883 611 L878 616 L875 626 L875 633 L879 639 L879 643 L880 644 L880 657 L882 662 L886 664 L891 659 L891 656 L894 650 L894 644 L897 636 L898 627 L901 622 L905 609 L905 604 L908 593 L908 585 L910 581 L909 579 L910 578 L910 571 L911 570 L911 561 L909 557 L909 547 L907 545 L907 542 Z M525 530 L526 529 L527 530 L526 531 Z M528 528 L529 531 L527 532 L526 531 Z M526 528 L527 527 L528 528 L527 529 Z M526 526 L524 528 L524 532 L528 534 L531 531 L531 529 L529 526 Z M155 521 L158 528 L157 530 L158 532 L158 542 L157 543 L157 553 L154 558 L152 555 L152 552 L150 550 L150 544 L149 543 L150 537 L149 536 L150 535 L151 526 L153 522 Z M153 520 L148 531 L148 547 L151 554 L151 557 L153 559 L156 559 L159 552 L158 548 L159 544 L159 527 L157 521 Z M516 517 L518 515 L521 516 L521 518 L518 520 Z M921 515 L919 516 L917 524 L917 538 L916 541 L918 547 L921 546 L925 532 L925 527 L923 528 L924 536 L921 539 L920 538 L920 543 L919 544 L918 543 L918 537 L919 536 L918 526 L921 517 L923 521 L923 524 L924 525 L925 524 L925 521 Z M518 513 L515 515 L515 520 L520 521 L523 518 L523 516 L520 513 Z M886 510 L883 510 L881 513 L878 513 L876 515 L875 524 L873 529 L873 541 L874 542 L873 555 L875 562 L875 568 L877 570 L880 570 L886 562 L884 561 L881 565 L881 567 L879 569 L877 568 L876 566 L876 553 L875 552 L875 548 L876 547 L875 529 L877 525 L877 518 L880 514 L881 515 L885 511 L888 515 L887 528 L889 533 L887 541 L887 553 L888 554 L885 557 L885 559 L889 556 L889 540 L890 539 L889 513 Z M581 502 L582 501 L583 502 L582 503 Z M528 495 L531 491 L536 491 L537 492 L535 495 L531 497 Z M967 488 L968 489 L968 495 L967 496 L967 506 L966 507 L966 516 L965 517 L963 540 L957 562 L951 573 L950 577 L951 579 L947 590 L944 592 L940 600 L939 599 L939 595 L940 594 L940 587 L942 581 L942 574 L945 567 L944 560 L946 554 L946 546 L949 541 L951 544 L952 551 L954 553 L956 549 L958 534 L959 533 L959 527 L961 523 L961 504 L964 492 Z M538 491 L535 489 L530 490 L526 493 L526 496 L529 498 L535 497 L538 494 Z M286 483 L287 482 L288 483 L287 484 Z M116 473 L117 472 L120 473 L119 474 Z M895 470 L897 473 L897 480 L894 485 L891 478 L893 475 L892 474 L893 471 Z M323 471 L322 477 L324 481 L328 484 L327 485 L321 485 L316 487 L312 487 L296 492 L289 493 L269 501 L267 500 L275 493 L288 485 L313 473 L318 472 L321 470 Z M316 469 L317 468 L319 469 L318 470 Z M895 468 L892 470 L890 476 L890 481 L893 487 L895 487 L897 485 L899 479 L898 471 Z M176 467 L179 468 L179 479 L180 480 L179 486 L181 490 L180 499 L177 508 L173 506 L171 496 L168 495 L165 492 L165 484 L166 483 L165 477 L167 474 L167 471 L169 469 L173 470 Z M754 489 L743 492 L718 492 L717 491 L709 491 L692 487 L687 487 L680 485 L672 485 L671 484 L657 484 L656 485 L650 485 L645 487 L641 487 L622 494 L589 512 L574 523 L562 534 L549 550 L548 549 L548 547 L552 540 L565 522 L589 499 L618 479 L632 472 L643 468 L652 467 L653 466 L672 466 L690 471 L697 475 L718 483 L731 486 L747 487 Z M324 470 L327 468 L332 467 L333 468 L332 471 L333 473 L334 472 L334 468 L336 466 L348 465 L349 464 L366 464 L367 465 L377 466 L394 473 L402 478 L418 491 L438 511 L448 523 L456 535 L456 537 L458 539 L461 547 L460 548 L451 536 L426 511 L402 494 L387 487 L371 483 L345 482 L344 483 L330 484 L329 483 L332 480 L330 480 L328 482 L324 477 Z M178 465 L176 465 L173 468 L166 469 L164 475 L164 485 L163 486 L163 491 L165 495 L170 497 L171 505 L176 510 L180 507 L183 494 L183 490 L181 487 L181 468 Z M277 457 L281 462 L281 466 L282 467 L281 479 L285 482 L285 485 L272 494 L270 491 L264 489 L261 489 L255 494 L252 494 L249 492 L247 487 L245 486 L240 487 L239 490 L236 493 L235 500 L231 505 L229 510 L229 515 L228 516 L229 532 L228 533 L228 537 L225 540 L224 545 L222 548 L217 547 L215 545 L215 539 L213 535 L212 492 L213 491 L213 484 L215 479 L215 472 L216 471 L217 462 L219 458 L222 455 L227 456 L230 454 L233 454 L235 456 L236 460 L240 463 L246 457 L251 457 L255 461 L259 461 L260 462 L266 462 L274 456 Z M129 447 L130 448 L131 509 L132 510 L132 531 L133 532 L133 547 L134 548 L134 553 L130 558 L128 555 L128 512 L127 511 L127 498 L126 497 L126 490 L125 489 L125 481 L121 471 L118 470 L116 472 L114 468 L114 457 L117 452 L118 454 L119 453 L117 452 L121 448 Z M587 441 L591 445 L591 448 L594 453 L595 459 L593 460 L590 469 L590 480 L591 481 L590 484 L591 487 L588 491 L588 496 L585 499 L580 500 L578 498 L572 498 L570 495 L570 481 L571 480 L570 460 L571 457 L574 454 L577 454 L579 452 L582 444 L585 441 Z M542 564 L544 564 L548 555 L559 540 L577 523 L599 508 L629 493 L649 487 L674 486 L675 487 L681 487 L682 488 L693 489 L694 490 L710 492 L711 493 L718 493 L719 494 L741 494 L742 493 L748 493 L759 490 L764 487 L764 485 L761 486 L735 485 L711 479 L684 467 L671 464 L654 464 L632 470 L613 480 L590 496 L589 495 L590 491 L593 485 L591 472 L592 471 L592 467 L597 458 L597 456 L595 454 L595 451 L591 442 L588 440 L585 440 L580 444 L578 451 L574 452 L569 458 L569 492 L568 493 L572 500 L576 500 L577 499 L582 503 L568 516 L551 538 L544 552 L542 559 Z M961 431 L960 435 L961 438 L962 438 L963 432 Z M952 423 L962 424 L967 429 L969 436 L969 484 L965 487 L963 480 L961 480 L959 486 L956 490 L954 489 L953 480 L951 476 L952 472 L952 466 L951 465 L952 463 L952 456 L951 452 L947 447 L949 442 L949 437 L955 434 L960 428 L951 434 L950 433 L950 429 Z M174 407 L175 406 L176 407 L175 408 Z M187 401 L189 404 L188 416 L183 424 L182 423 L178 423 L175 419 L176 418 L175 412 L177 410 L178 404 L179 403 L182 404 L185 401 Z M334 387 L336 390 L336 395 L338 398 L333 403 L332 406 L332 411 L334 414 L334 426 L338 429 L341 427 L343 427 L345 429 L345 433 L348 439 L349 447 L346 452 L346 456 L341 460 L342 462 L341 464 L336 464 L333 466 L320 468 L316 467 L314 465 L313 461 L315 449 L319 440 L320 401 L323 392 L325 390 L330 390 Z M216 460 L214 466 L213 479 L211 483 L211 490 L210 491 L210 510 L211 511 L210 519 L211 520 L211 535 L213 538 L213 546 L219 550 L221 550 L225 547 L226 541 L230 537 L230 533 L231 532 L230 516 L231 515 L232 506 L237 500 L237 495 L240 491 L240 489 L243 487 L246 488 L249 494 L253 496 L258 494 L260 491 L265 491 L270 493 L270 495 L263 501 L260 505 L260 507 L277 499 L311 489 L315 489 L326 486 L342 485 L343 484 L364 484 L365 485 L377 486 L392 491 L402 496 L417 506 L430 517 L445 532 L457 547 L464 559 L466 559 L466 555 L462 543 L457 533 L448 520 L427 497 L405 478 L394 471 L380 465 L366 463 L365 462 L349 462 L348 463 L344 463 L343 462 L343 460 L348 456 L348 453 L350 450 L351 445 L346 428 L342 425 L340 427 L337 427 L335 425 L334 404 L339 400 L339 396 L337 393 L338 390 L335 386 L332 386 L328 389 L324 389 L321 392 L320 398 L318 402 L318 415 L319 416 L318 433 L317 434 L316 445 L313 450 L313 455 L311 459 L312 465 L315 469 L313 472 L304 475 L288 483 L283 478 L283 474 L284 473 L283 463 L280 458 L276 455 L271 456 L265 461 L256 460 L252 456 L248 455 L245 456 L240 461 L237 459 L236 455 L231 452 L228 454 L221 454 Z M840 377 L843 378 L851 388 L851 392 L850 393 L837 380 Z M838 376 L836 381 L842 386 L847 394 L851 394 L853 392 L851 384 L843 376 L840 375 Z M241 338 L243 340 L242 344 L243 353 L240 360 L240 366 L241 367 L240 379 L241 380 L241 385 L239 389 L234 393 L232 400 L228 406 L226 407 L224 406 L223 407 L218 407 L217 406 L218 402 L217 388 L218 387 L218 383 L220 381 L221 373 L222 372 L223 354 L227 345 L230 342 L234 342 L237 339 Z M240 336 L233 341 L231 340 L228 341 L222 352 L221 362 L220 363 L220 372 L215 388 L215 392 L216 393 L215 406 L216 408 L219 409 L229 407 L234 400 L235 394 L239 392 L242 388 L243 384 L242 380 L242 373 L243 372 L242 358 L244 355 L244 338 Z M829 315 L831 318 L833 327 L837 337 L843 342 L846 343 L851 342 L861 354 L866 364 L872 386 L882 406 L891 418 L890 420 L891 435 L886 452 L886 466 L887 467 L886 487 L882 491 L881 499 L877 505 L875 503 L875 494 L874 493 L874 480 L875 479 L874 457 L872 450 L867 443 L867 441 L871 437 L872 429 L869 421 L869 414 L870 413 L869 400 L863 394 L864 387 L859 381 L857 374 L850 366 L849 361 L844 357 L840 358 L834 353 L833 350 L834 349 L833 340 L831 336 L831 332 L829 329 L829 325 L827 317 Z M598 280 L596 282 L595 286 L591 290 L588 290 L585 292 L581 292 L575 295 L572 295 L568 293 L588 282 L596 279 Z M597 279 L598 278 L599 279 L598 280 Z M602 277 L603 276 L604 277 L603 278 Z M622 276 L621 293 L618 299 L617 308 L614 311 L605 312 L604 318 L600 325 L598 326 L595 325 L591 321 L587 321 L581 327 L575 322 L574 318 L570 317 L564 321 L561 321 L559 327 L556 329 L544 329 L543 328 L542 318 L544 314 L542 308 L545 305 L558 299 L565 294 L574 297 L579 294 L585 293 L588 291 L592 291 L596 287 L598 281 L602 278 L603 279 L609 279 L617 275 L621 275 Z M299 262 L300 263 L299 264 L300 263 L301 264 L302 268 L300 271 L300 274 L297 276 L294 273 L295 266 Z M297 261 L293 267 L292 273 L296 277 L300 277 L302 274 L303 265 L300 261 Z M669 251 L672 253 L672 268 L673 269 L673 277 L669 290 L670 291 L671 307 L667 311 L667 315 L665 319 L666 320 L666 326 L665 327 L649 327 L648 326 L649 315 L647 310 L647 304 L650 297 L651 263 L653 258 L656 255 L661 255 L667 251 Z M670 250 L666 250 L660 254 L657 253 L653 255 L649 264 L649 273 L648 274 L649 288 L648 289 L648 297 L645 305 L645 309 L647 314 L646 327 L650 329 L652 328 L665 329 L668 325 L667 324 L667 317 L669 311 L673 307 L672 298 L671 297 L671 288 L674 280 L675 271 L673 266 L673 256 L674 255 L673 252 Z M312 207 L317 209 L322 208 L324 210 L324 213 L322 216 L322 220 L319 225 L317 225 L315 223 L309 223 L308 222 L309 210 Z M311 206 L307 209 L306 222 L309 225 L313 225 L314 224 L319 227 L322 225 L324 220 L324 216 L326 214 L325 208 L322 206 L319 207 Z M307 192 L309 192 L311 194 L310 198 L308 200 L306 200 L304 197 Z M309 190 L306 191 L302 196 L303 200 L305 202 L309 202 L311 200 L312 193 Z M790 160 L793 161 L792 171 L793 172 L794 183 L792 186 L788 182 L781 181 L780 180 L780 176 L776 171 L777 167 L780 164 L785 164 Z M803 151 L806 151 L837 172 L856 187 L878 208 L892 225 L909 251 L931 297 L938 319 L944 343 L944 348 L945 349 L947 365 L948 366 L949 388 L950 389 L950 413 L949 414 L948 436 L947 437 L946 446 L942 452 L940 460 L939 471 L937 478 L937 485 L936 486 L936 495 L935 496 L933 494 L929 478 L922 464 L922 462 L920 460 L920 458 L908 438 L883 404 L880 396 L874 386 L872 380 L872 376 L864 355 L853 341 L851 340 L845 341 L839 337 L831 314 L819 302 L812 286 L806 264 L799 249 L796 229 L793 222 L792 212 L791 211 L791 192 L796 183 L796 178 L794 173 L794 165 L797 157 Z M285 143 L289 149 L289 152 L291 156 L292 195 L291 196 L291 204 L289 211 L288 224 L281 243 L281 246 L279 250 L275 266 L267 282 L255 301 L196 372 L180 394 L179 397 L163 421 L152 442 L152 444 L147 454 L145 462 L143 465 L139 481 L137 485 L135 501 L134 502 L133 501 L132 456 L131 455 L132 389 L133 388 L133 379 L134 378 L136 354 L137 353 L137 348 L141 332 L142 322 L146 306 L148 302 L148 299 L155 280 L162 266 L162 264 L174 243 L191 219 L202 206 L214 194 L234 177 L250 165 Z M692 99 L696 101 L712 105 L737 115 L742 118 L744 118 L780 136 L802 149 L796 155 L794 159 L791 158 L788 159 L784 163 L781 162 L777 164 L774 169 L774 171 L778 176 L779 181 L782 183 L788 184 L791 188 L789 194 L789 209 L790 210 L791 221 L794 228 L795 239 L800 257 L805 266 L807 276 L815 298 L818 304 L827 311 L826 323 L828 327 L829 337 L832 342 L832 352 L837 358 L845 359 L847 361 L848 366 L852 370 L857 381 L862 387 L861 395 L867 401 L868 404 L867 419 L870 432 L869 433 L869 437 L866 439 L865 443 L869 448 L872 457 L872 472 L873 473 L872 492 L873 493 L873 503 L874 505 L877 507 L880 505 L883 498 L883 493 L888 487 L888 481 L887 480 L889 472 L888 453 L893 435 L893 430 L892 429 L892 422 L893 421 L913 449 L924 470 L931 490 L934 508 L936 507 L936 503 L937 502 L938 484 L939 483 L939 477 L941 470 L941 464 L944 452 L946 449 L949 452 L950 455 L950 479 L953 491 L957 492 L962 483 L963 484 L963 488 L964 489 L962 491 L962 496 L960 500 L960 507 L959 508 L960 510 L959 517 L960 518 L959 519 L955 544 L953 545 L951 540 L948 539 L945 545 L944 555 L943 556 L943 567 L941 571 L941 579 L939 582 L938 599 L935 605 L934 609 L935 610 L933 611 L931 617 L931 621 L929 625 L929 631 L927 639 L927 648 L926 649 L925 673 L923 677 L924 685 L921 690 L919 706 L918 707 L921 731 L925 744 L926 778 L927 779 L928 799 L929 800 L929 807 L930 808 L931 842 L933 844 L932 843 L932 833 L933 832 L936 839 L937 862 L938 863 L938 868 L941 880 L941 898 L942 899 L943 916 L945 923 L942 925 L938 941 L936 938 L936 931 L934 929 L933 923 L931 921 L929 921 L926 927 L923 956 L922 957 L922 964 L923 965 L922 973 L915 996 L911 1004 L911 1007 L908 1014 L906 1016 L906 1019 L901 1029 L902 1033 L906 1032 L913 1025 L918 1016 L921 1013 L923 1014 L923 1018 L919 1028 L918 1037 L915 1044 L915 1047 L917 1050 L916 1053 L912 1057 L911 1061 L912 1061 L913 1058 L917 1054 L918 1051 L917 1042 L921 1031 L921 1026 L924 1020 L924 1013 L921 1011 L917 1015 L917 1017 L914 1020 L913 1023 L906 1030 L904 1031 L903 1028 L907 1021 L907 1018 L911 1012 L911 1009 L913 1006 L913 1003 L918 992 L918 989 L921 982 L922 975 L924 972 L923 959 L925 954 L924 951 L925 950 L925 942 L926 941 L927 929 L929 927 L929 923 L930 922 L933 928 L933 931 L935 935 L935 942 L937 946 L940 942 L942 930 L944 926 L947 934 L947 969 L946 970 L946 987 L945 988 L945 997 L943 1004 L943 1010 L937 1035 L925 1056 L913 1067 L908 1069 L907 1068 L911 1063 L909 1063 L903 1071 L888 1074 L879 1081 L855 1117 L831 1144 L761 1234 L746 1250 L720 1274 L716 1280 L710 1286 L700 1294 L691 1299 L685 1301 L680 1301 L665 1312 L646 1321 L629 1327 L626 1327 L610 1332 L608 1332 L607 1329 L600 1328 L590 1332 L577 1333 L570 1336 L570 1338 L568 1340 L554 1341 L553 1342 L543 1342 L542 1343 L508 1343 L507 1342 L498 1342 L497 1341 L478 1339 L477 1338 L456 1334 L431 1326 L424 1323 L415 1317 L403 1317 L398 1315 L376 1302 L347 1278 L304 1233 L280 1203 L272 1190 L273 1186 L269 1177 L266 1174 L265 1171 L262 1169 L256 1157 L256 1150 L255 1149 L254 1141 L249 1136 L244 1125 L242 1123 L239 1123 L237 1127 L218 1108 L205 1101 L196 1092 L192 1086 L190 1078 L186 1069 L179 1058 L171 1049 L173 1044 L171 1042 L172 1032 L170 1027 L170 1020 L171 1019 L181 1020 L183 1018 L184 1014 L179 1005 L172 997 L168 988 L165 985 L163 977 L161 975 L156 964 L154 953 L152 949 L152 943 L149 935 L149 930 L151 928 L151 923 L147 918 L148 887 L149 886 L151 852 L153 845 L153 836 L155 832 L155 827 L156 826 L156 820 L151 818 L154 813 L154 810 L156 806 L155 803 L155 792 L157 784 L159 781 L159 771 L161 764 L161 755 L159 754 L156 755 L151 763 L147 757 L145 758 L141 756 L141 751 L144 742 L145 729 L146 728 L146 715 L147 714 L146 695 L144 689 L144 683 L143 683 L143 691 L144 692 L144 699 L143 700 L137 696 L134 690 L134 683 L133 682 L134 652 L133 651 L135 649 L135 646 L134 647 L132 644 L131 637 L127 628 L125 610 L124 609 L125 605 L124 604 L127 601 L131 601 L134 606 L134 611 L133 612 L132 611 L132 614 L134 614 L137 611 L139 612 L139 642 L140 643 L141 616 L140 615 L140 608 L138 605 L138 596 L137 595 L137 566 L136 565 L135 537 L134 536 L135 504 L136 503 L136 499 L142 473 L145 467 L147 459 L153 444 L166 419 L174 407 L175 408 L174 420 L178 425 L180 424 L183 425 L186 423 L190 416 L189 409 L191 404 L187 399 L185 399 L182 402 L179 402 L178 401 L203 366 L255 304 L269 282 L277 266 L282 246 L284 242 L284 239 L287 234 L287 231 L290 223 L291 209 L292 208 L293 196 L294 195 L293 157 L290 147 L288 144 L289 141 L315 128 L317 128 L344 116 L385 102 L394 100 L395 101 L393 103 L390 111 L389 122 L386 130 L386 133 L395 163 L401 175 L411 190 L414 197 L424 210 L433 229 L445 242 L452 253 L472 274 L484 290 L494 300 L505 307 L512 313 L517 315 L540 307 L542 313 L541 317 L542 329 L545 331 L555 331 L558 330 L562 323 L569 319 L572 319 L574 321 L575 325 L579 328 L584 327 L588 322 L590 322 L596 327 L599 327 L603 324 L607 313 L610 312 L614 313 L618 310 L620 305 L620 300 L623 294 L623 285 L624 284 L624 276 L622 274 L618 273 L607 278 L603 276 L640 259 L661 245 L687 219 L697 205 L704 191 L710 172 L711 161 L712 160 L712 152 L710 145 L709 129 L707 123 L700 111 L689 100 Z M688 99 L689 98 L690 99 L689 100 Z M687 100 L698 111 L705 123 L707 129 L707 140 L710 153 L710 159 L709 160 L708 172 L702 191 L696 203 L684 220 L663 241 L640 257 L598 277 L589 280 L571 289 L547 303 L534 308 L525 310 L519 313 L512 311 L505 305 L494 298 L483 286 L477 277 L452 250 L448 243 L435 229 L426 210 L414 194 L396 161 L388 133 L393 107 L395 103 L400 98 L450 84 L459 83 L469 80 L480 79 L481 78 L494 77 L495 76 L517 75 L518 74 L566 74 L567 75 L581 75 L582 76 L600 77 L601 78 L614 79 L615 80 L625 81 L626 82 L648 86 L652 88 L655 88 L672 94 L678 95 Z M563 72 L523 72 L522 73 L507 73 L506 74 L497 74 L496 75 L476 77 L475 78 L460 80 L446 84 L438 85 L434 87 L423 89 L392 99 L382 101 L355 110 L352 112 L347 113 L327 121 L285 141 L247 165 L220 186 L196 210 L179 232 L164 257 L150 288 L142 314 L142 318 L141 319 L141 323 L139 328 L137 343 L135 349 L134 361 L133 362 L133 370 L132 371 L132 379 L131 380 L131 391 L130 392 L130 409 L129 410 L129 444 L118 448 L113 454 L112 458 L112 468 L113 471 L117 476 L120 476 L123 480 L123 488 L124 489 L124 496 L125 497 L125 510 L126 511 L126 547 L125 550 L126 551 L126 556 L130 561 L131 575 L135 582 L136 603 L135 604 L131 599 L127 599 L122 604 L125 628 L129 637 L132 649 L132 667 L131 668 L132 689 L134 695 L139 700 L145 702 L144 729 L143 730 L142 743 L139 751 L139 758 L140 759 L139 760 L139 768 L138 769 L138 776 L134 793 L135 805 L132 808 L129 814 L126 827 L126 834 L125 835 L126 849 L132 859 L133 890 L134 891 L136 910 L138 916 L137 957 L136 958 L136 971 L138 977 L138 982 L136 986 L136 997 L140 1012 L151 1032 L172 1052 L184 1069 L191 1088 L197 1096 L206 1104 L218 1110 L235 1127 L237 1131 L236 1132 L232 1132 L229 1135 L229 1140 L249 1169 L254 1172 L257 1172 L262 1177 L282 1209 L299 1230 L335 1269 L353 1286 L376 1304 L401 1318 L404 1319 L416 1319 L429 1327 L446 1333 L449 1333 L453 1335 L469 1339 L490 1342 L491 1343 L510 1344 L511 1345 L539 1345 L540 1344 L559 1343 L560 1342 L567 1342 L568 1341 L585 1339 L591 1337 L596 1337 L597 1336 L618 1332 L643 1324 L655 1318 L657 1318 L674 1308 L679 1303 L690 1301 L703 1294 L720 1278 L726 1270 L738 1260 L759 1239 L811 1172 L820 1162 L826 1153 L859 1115 L881 1082 L885 1078 L891 1075 L903 1073 L915 1068 L924 1060 L933 1047 L941 1029 L943 1016 L944 1015 L944 1010 L945 1009 L946 997 L947 996 L948 968 L949 967 L949 940 L948 939 L948 930 L946 924 L944 900 L943 899 L942 874 L939 864 L938 840 L936 833 L932 827 L932 810 L931 809 L931 801 L930 800 L930 792 L929 791 L928 765 L927 764 L927 744 L925 741 L923 733 L920 706 L921 705 L921 701 L928 698 L934 692 L936 687 L938 670 L939 669 L939 664 L935 658 L937 637 L938 636 L941 619 L944 616 L948 605 L948 594 L947 592 L952 583 L953 573 L959 562 L964 544 L965 534 L966 533 L966 526 L967 525 L968 505 L969 504 L969 495 L970 494 L970 482 L971 481 L971 438 L970 437 L970 432 L967 426 L963 423 L957 421 L953 421 L952 422 L951 421 L951 415 L952 414 L951 376 L950 375 L950 368 L949 367 L949 361 L946 349 L946 344 L937 309 L930 290 L913 255 L902 236 L885 213 L854 183 L823 160 L787 138 L744 116 L742 116 L720 106 L699 99 L681 95 L665 89 L662 89 L639 82 L635 82 L619 78 L614 78 L613 77 L600 76 L599 75 L580 74 L579 73 L564 73 Z" fill="#eef3f4" fill-rule="evenodd"/>
</svg>
