<svg xmlns="http://www.w3.org/2000/svg" width="1122" height="1402" viewBox="0 0 1122 1402">
  <title>0006</title>
  <path d="M432 1181 L432 1183 L444 1198 L461 1215 L476 1227 L493 1238 L513 1248 L532 1255 L552 1260 L557 1260 L564 1262 L572 1262 L573 1263 L605 1263 L606 1262 L615 1262 L616 1261 L621 1261 L622 1260 L643 1256 L662 1249 L678 1241 L699 1227 L723 1204 L729 1196 L727 1196 L721 1204 L706 1219 L695 1228 L675 1241 L663 1247 L641 1255 L625 1259 L619 1259 L611 1261 L601 1261 L600 1262 L583 1262 L582 1261 L579 1262 L578 1261 L567 1261 L566 1260 L555 1259 L534 1254 L510 1245 L491 1235 L471 1221 L456 1208 Z M582 1081 L589 1078 L608 1078 L613 1080 L616 1083 L616 1085 L615 1086 L583 1085 Z M545 1083 L549 1079 L554 1079 L555 1078 L573 1078 L580 1082 L579 1085 L548 1086 L547 1087 Z M645 1079 L642 1082 L633 1086 L618 1086 L617 1085 L618 1081 L625 1078 L642 1077 Z M515 1078 L519 1076 L536 1077 L544 1082 L544 1086 L543 1087 L525 1087 L521 1086 L515 1082 Z M495 1066 L496 1065 L501 1066 L509 1071 L513 1076 L513 1080 L512 1081 Z M494 1065 L495 1064 L496 1065 L495 1066 Z M649 1032 L650 1031 L651 1032 L650 1033 Z M505 1031 L506 1030 L507 1031 L506 1032 Z M496 1030 L497 1029 L498 1030 L497 1031 Z M505 1028 L506 1027 L507 1028 L506 1029 Z M375 1026 L373 1026 L368 1043 L368 1060 L371 1070 L372 1069 L370 1062 L370 1041 L371 1040 L372 1032 Z M680 1030 L680 1037 L669 1054 L661 1063 L654 1067 L646 1076 L630 1075 L629 1076 L621 1077 L617 1080 L608 1076 L588 1076 L581 1080 L577 1077 L573 1076 L553 1076 L549 1077 L545 1080 L539 1076 L531 1074 L518 1074 L515 1075 L507 1067 L499 1063 L495 1063 L494 1062 L492 1063 L479 1049 L476 1044 L476 1036 L477 1034 L485 1028 L487 1028 L502 1035 L508 1034 L513 1039 L526 1042 L537 1042 L540 1040 L546 1044 L550 1044 L551 1045 L576 1045 L579 1043 L584 1045 L611 1044 L615 1043 L621 1039 L624 1040 L634 1040 L646 1037 L652 1034 L654 1031 L661 1031 L674 1024 Z M480 1020 L481 1019 L482 1020 L481 1021 Z M540 1018 L542 1017 L554 1022 L565 1025 L578 1026 L579 1027 L578 1028 L579 1040 L575 1043 L554 1043 L553 1042 L544 1041 L541 1038 Z M621 1017 L621 1036 L618 1039 L614 1041 L600 1042 L599 1043 L585 1043 L580 1040 L580 1027 L581 1026 L594 1024 L617 1016 Z M690 1013 L691 1014 L690 1018 L683 1030 L677 1022 L680 1018 L682 1018 Z M690 1013 L691 1012 L692 1013 L691 1014 Z M510 1012 L519 1012 L520 1013 L525 1013 L526 1014 L531 1014 L539 1016 L540 1017 L539 1018 L539 1038 L536 1040 L530 1040 L529 1039 L530 1038 L534 1038 L534 1037 L532 1036 L531 1037 L522 1036 L512 1033 L508 1029 L508 1015 Z M654 1012 L654 1025 L649 1030 L643 1033 L634 1035 L631 1038 L625 1038 L622 1036 L623 1035 L623 1020 L621 1016 L622 1015 L637 1013 L638 1012 L644 1012 L645 1011 L653 1011 Z M743 1011 L745 1025 L746 1026 L746 1051 L741 1070 L743 1069 L748 1049 L748 1029 L747 1028 L745 1014 Z M483 1010 L484 1009 L485 1010 L496 1010 L497 1011 L509 1011 L510 1012 L507 1013 L506 1016 L506 1027 L503 1029 L499 1029 L489 1024 L484 1020 Z M679 1009 L676 1020 L675 1018 L660 1026 L658 1029 L655 1028 L656 1025 L655 1011 L656 1010 L672 1009 L673 1008 L678 1008 Z M466 1008 L467 1007 L471 1007 L472 1008 L481 1009 L482 1010 L481 1011 L481 1018 L479 1019 L469 1012 Z M461 1008 L462 1007 L463 1008 L462 1009 Z M456 1007 L461 1011 L463 1011 L466 1015 L475 1022 L482 1023 L484 1025 L475 1034 L473 1041 L463 1026 L462 1022 L455 1009 Z M416 1008 L412 1015 L409 1027 L409 1050 L410 1051 L411 1060 L413 1063 L414 1062 L411 1051 L411 1027 L412 1026 L413 1017 L417 1009 Z M465 1007 L466 1006 L467 1007 L466 1008 Z M693 1006 L691 1009 L690 1008 L681 1014 L680 1013 L680 1008 L681 1007 L689 1006 L690 1005 Z M454 1006 L455 1005 L456 1007 L455 1008 Z M457 1005 L459 1004 L463 1006 L461 1008 Z M166 1003 L167 1002 L168 1004 L167 1005 Z M443 998 L444 997 L449 1000 L464 1032 L476 1049 L484 1058 L510 1082 L520 1088 L529 1089 L530 1090 L534 1090 L535 1089 L552 1089 L553 1088 L569 1088 L570 1087 L602 1087 L603 1088 L628 1089 L629 1088 L634 1088 L641 1085 L664 1064 L664 1062 L671 1055 L680 1042 L680 1040 L688 1027 L688 1025 L695 1013 L699 1003 L705 999 L707 1000 L700 1020 L694 1047 L692 1051 L692 1055 L681 1087 L672 1102 L657 1116 L647 1120 L641 1120 L640 1121 L619 1120 L618 1119 L612 1119 L604 1117 L595 1117 L594 1116 L571 1116 L570 1117 L556 1118 L555 1119 L537 1121 L536 1122 L521 1122 L509 1119 L499 1114 L488 1104 L479 1092 L469 1073 L469 1071 L462 1056 Z M442 997 L443 996 L444 997 L443 998 Z M249 997 L250 996 L251 998 L250 999 Z M715 992 L716 991 L717 992 L716 993 Z M448 997 L449 996 L470 995 L471 994 L476 994 L477 993 L499 990 L500 989 L522 988 L523 989 L530 989 L541 992 L566 1005 L578 1006 L591 1002 L603 995 L615 991 L625 990 L626 989 L655 989 L656 990 L662 990 L663 991 L678 993 L692 997 L697 997 L700 999 L697 1001 L682 1005 L659 1007 L658 1008 L648 1008 L647 1009 L640 1009 L639 1010 L623 1012 L586 1023 L569 1023 L556 1020 L553 1018 L529 1011 L507 1009 L506 1008 L504 1009 L503 1008 L491 1008 L490 1007 L475 1006 L462 1003 Z M725 973 L726 972 L727 973 L726 974 Z M318 968 L316 971 L314 979 L313 996 L314 997 L314 1005 L315 1006 L315 1011 L317 1019 L323 1032 L323 1029 L318 1017 L318 1013 L316 1008 L316 997 L315 996 L316 978 L319 969 Z M299 968 L297 971 L297 975 L296 976 L296 1000 L300 1017 L304 1026 L305 1024 L301 1015 L299 1007 L299 1002 L298 1001 L298 976 L300 968 Z M823 967 L821 967 L825 974 L827 982 L827 987 L828 988 L828 1016 L827 1017 L827 1023 L824 1035 L817 1053 L815 1055 L815 1057 L818 1054 L826 1035 L829 1023 L830 1007 L831 1006 L829 982 L826 972 Z M850 961 L849 962 L851 965 L853 973 L853 999 L852 1000 L850 1014 L846 1024 L849 1022 L854 1003 L854 997 L855 996 L855 976 L854 975 L853 967 Z M416 968 L416 970 L420 970 L426 975 L430 983 L440 996 L462 1061 L478 1094 L483 1101 L495 1113 L501 1117 L513 1122 L525 1123 L526 1124 L540 1123 L541 1122 L546 1122 L559 1119 L566 1119 L567 1118 L578 1118 L579 1117 L601 1118 L602 1119 L609 1119 L610 1120 L623 1121 L624 1122 L645 1122 L660 1116 L672 1105 L683 1087 L692 1062 L703 1016 L710 996 L715 992 L716 993 L716 996 L714 998 L714 1001 L709 1016 L709 1020 L705 1034 L697 1076 L695 1080 L692 1093 L686 1105 L686 1107 L681 1114 L680 1113 L681 1115 L679 1118 L670 1127 L659 1133 L651 1135 L644 1135 L643 1136 L626 1135 L625 1134 L613 1133 L600 1130 L583 1130 L582 1129 L552 1132 L551 1133 L546 1133 L533 1136 L515 1136 L502 1133 L492 1128 L475 1111 L463 1089 L452 1059 L452 1056 L447 1042 L441 1017 L436 1004 L435 1004 L455 1074 L457 1077 L460 1087 L469 1105 L479 1119 L489 1128 L500 1134 L517 1138 L531 1138 L532 1137 L539 1137 L540 1136 L545 1136 L546 1135 L551 1135 L564 1132 L574 1132 L575 1131 L601 1132 L602 1133 L608 1133 L621 1136 L642 1138 L643 1137 L651 1137 L661 1134 L674 1126 L679 1121 L686 1111 L696 1087 L702 1063 L711 1015 L717 995 L720 989 L720 985 L723 980 L731 972 L738 971 L738 969 L733 969 L727 973 L726 972 L725 964 L723 961 L719 960 L724 966 L723 975 L716 987 L706 996 L696 996 L677 991 L661 989 L660 988 L653 988 L652 987 L630 987 L629 988 L622 988 L621 989 L612 990 L601 994 L589 1001 L579 1004 L575 1004 L574 1003 L566 1003 L560 1001 L542 991 L533 988 L521 987 L520 986 L518 987 L513 986 L512 987 L496 988 L495 989 L490 989 L489 990 L484 990 L483 991 L478 991 L465 994 L457 994 L456 995 L454 994 L445 994 L441 992 L436 987 L428 974 L426 968 L428 959 L426 960 L424 964 L424 969 L423 970 L420 968 Z M589 945 L587 945 L590 952 L592 971 L591 972 L591 977 L587 986 L591 982 L593 975 L593 959 Z M557 945 L553 957 L553 974 L557 984 L559 986 L561 986 L556 980 L554 973 L554 960 L555 959 L555 954 L558 947 L558 945 Z M287 937 L289 939 L305 945 L317 948 L329 949 L330 950 L359 950 L360 949 L371 948 L375 946 L375 945 L373 945 L372 946 L359 947 L358 948 L332 948 L331 947 L313 945 L296 940 L290 937 Z M871 931 L869 931 L858 939 L850 943 L825 952 L821 952 L805 956 L798 956 L797 957 L777 957 L776 958 L780 959 L796 959 L797 958 L805 958 L806 957 L811 957 L828 953 L856 942 L867 935 Z M481 911 L482 910 L484 911 L483 912 Z M660 909 L661 908 L663 909 L662 910 Z M634 907 L635 906 L636 907 L635 908 Z M478 902 L480 900 L481 904 L483 906 L490 909 L505 910 L510 908 L514 912 L510 914 L491 914 L490 913 L486 913 L485 909 L481 908 L478 905 Z M664 901 L664 904 L659 908 L661 910 L654 913 L650 913 L649 914 L630 914 L627 912 L630 909 L633 910 L651 909 L659 905 L662 899 Z M659 900 L659 902 L657 904 L650 907 L638 908 L635 906 L645 900 L649 899 L658 899 Z M483 901 L487 899 L491 899 L495 901 L498 901 L506 906 L503 908 L491 907 L485 905 L483 903 Z M948 844 L947 847 L947 864 L948 865 L949 879 L953 895 L976 951 L981 971 L982 989 L981 990 L981 998 L979 1006 L976 1012 L976 1014 L977 1014 L979 1011 L983 996 L983 989 L984 988 L983 971 L976 946 L961 912 L954 892 L951 880 L950 869 L949 868 L949 853 L948 852 L949 851 L949 845 Z M196 816 L200 825 L201 837 L202 838 L201 864 L200 865 L199 876 L194 892 L194 895 L172 955 L169 968 L168 979 L167 980 L167 997 L166 998 L165 997 L165 969 L166 968 L167 951 L168 950 L171 933 L184 901 L184 898 L186 895 L192 874 L194 858 L195 857 L195 849 L196 848 L196 829 L195 828 L195 818 L194 817 Z M453 813 L454 812 L455 813 L454 814 Z M454 812 L455 811 L456 812 L455 813 Z M456 811 L457 810 L458 811 L457 812 Z M458 810 L459 809 L460 810 L459 811 Z M680 809 L681 808 L683 809 L682 810 Z M678 808 L679 807 L681 808 L680 809 Z M677 807 L678 806 L679 807 L678 808 Z M761 988 L761 980 L757 970 L747 961 L723 950 L710 941 L699 929 L691 915 L688 905 L688 895 L696 886 L702 872 L703 849 L702 848 L701 839 L697 828 L692 820 L682 810 L683 809 L687 811 L698 822 L704 832 L707 840 L708 848 L709 849 L709 855 L710 856 L710 870 L709 871 L708 881 L704 891 L706 890 L708 886 L711 874 L711 866 L712 865 L711 849 L705 830 L699 820 L690 811 L678 804 L671 802 L655 802 L643 807 L637 812 L633 818 L631 823 L631 827 L632 827 L634 820 L637 815 L643 809 L649 806 L664 805 L674 808 L682 813 L693 826 L700 845 L700 853 L701 854 L700 869 L697 879 L692 888 L683 897 L674 902 L673 904 L667 908 L664 909 L662 908 L666 904 L666 900 L664 898 L660 896 L650 896 L641 899 L634 903 L612 920 L600 926 L581 931 L563 931 L543 926 L529 919 L504 901 L494 897 L482 897 L479 898 L476 901 L477 907 L481 910 L479 911 L470 907 L467 904 L456 898 L443 885 L439 877 L437 869 L437 849 L441 835 L447 825 L454 817 L456 818 L455 817 L459 813 L466 809 L473 807 L488 807 L497 811 L504 818 L508 832 L509 831 L509 827 L505 816 L498 809 L486 804 L479 804 L478 803 L468 804 L461 806 L450 812 L440 821 L436 826 L429 840 L426 851 L426 861 L425 862 L426 863 L426 871 L430 884 L433 889 L436 891 L431 882 L428 872 L428 852 L429 851 L429 847 L437 828 L449 815 L453 813 L454 814 L445 823 L438 836 L434 853 L434 865 L437 878 L443 889 L451 897 L451 903 L450 904 L449 912 L443 925 L435 936 L406 962 L403 969 L403 975 L405 975 L405 968 L409 961 L429 945 L443 929 L449 918 L452 909 L452 903 L454 899 L467 908 L480 914 L488 916 L495 916 L496 917 L505 917 L517 913 L529 922 L541 928 L559 933 L576 934 L577 933 L590 932 L602 928 L615 921 L624 914 L635 917 L645 917 L646 916 L656 915 L670 909 L685 898 L686 899 L686 906 L688 913 L692 922 L698 931 L706 940 L719 950 L750 965 L757 973 L759 978 L759 990 Z M653 751 L657 757 L664 762 L674 767 L691 773 L699 775 L704 775 L705 776 L711 776 L712 777 L740 778 L741 777 L760 776 L761 775 L778 772 L792 766 L792 765 L790 765 L781 769 L764 773 L751 774 L750 775 L737 775 L736 776 L714 775 L713 774 L700 773 L679 767 L661 758 Z M491 751 L489 750 L489 752 L480 761 L470 767 L454 773 L446 775 L441 775 L440 776 L434 776 L433 777 L420 777 L419 778 L415 777 L414 778 L413 777 L391 776 L390 775 L385 775 L372 772 L353 765 L352 766 L365 772 L390 778 L408 779 L409 780 L436 779 L437 778 L442 778 L455 775 L474 767 L483 761 L488 756 Z M284 740 L275 745 L261 760 L252 777 L246 795 L243 807 L243 812 L240 825 L240 834 L239 835 L239 866 L240 867 L240 874 L242 875 L242 868 L241 867 L241 838 L242 837 L244 813 L245 812 L248 795 L255 775 L263 760 L275 747 L283 742 Z M867 736 L885 755 L897 778 L901 790 L907 816 L908 829 L909 830 L909 840 L910 841 L910 851 L911 851 L911 834 L910 833 L909 817 L900 781 L892 763 L885 752 L877 743 Z M664 735 L665 734 L666 735 L665 736 Z M472 734 L473 733 L474 734 L473 735 Z M466 725 L473 733 L471 734 L463 730 Z M854 724 L848 725 L845 727 L838 727 L837 728 L806 728 L805 727 L788 727 L787 726 L735 727 L734 728 L720 729 L719 730 L714 730 L713 731 L696 734 L676 741 L664 747 L667 748 L669 746 L671 746 L678 742 L700 735 L720 732 L721 731 L735 730 L736 729 L783 728 L784 729 L803 729 L804 730 L837 730 L850 727 L854 725 Z M677 722 L681 728 L666 735 L665 734 Z M430 700 L431 699 L450 710 L463 722 L463 727 L460 730 L451 727 L426 724 L425 723 L429 717 L431 710 L431 702 Z M423 696 L428 699 L429 711 L426 719 L421 724 L418 724 L414 722 L417 720 L421 714 L422 711 L422 701 L420 697 Z M419 696 L420 695 L421 696 L420 697 Z M719 695 L719 704 L721 711 L726 718 L725 719 L708 721 L703 723 L694 724 L683 728 L679 721 L685 715 L704 701 L718 694 Z M370 695 L368 698 L367 708 L369 716 L373 722 L372 723 L334 722 L333 721 L322 721 L317 719 L330 712 L341 704 L351 699 L363 695 L367 695 L368 694 Z M373 693 L379 693 L380 694 L377 699 L376 708 L379 716 L385 722 L384 723 L376 723 L371 716 L369 709 L369 703 Z M379 699 L384 692 L403 692 L404 693 L415 694 L418 697 L420 702 L420 711 L417 717 L411 722 L408 723 L391 723 L386 721 L381 716 L378 708 Z M728 690 L730 691 L728 695 L729 707 L733 713 L737 716 L734 718 L729 718 L724 713 L721 705 L722 693 Z M485 744 L485 742 L471 726 L458 713 L450 707 L435 698 L413 691 L397 690 L396 689 L393 690 L391 689 L390 690 L380 690 L379 691 L371 691 L366 693 L362 693 L347 698 L324 713 L314 718 L307 720 L291 719 L280 714 L282 717 L287 720 L289 720 L290 721 L288 722 L294 728 L300 731 L318 736 L346 737 L347 738 L349 737 L376 737 L377 736 L423 736 L424 737 L435 737 L436 738 L452 740 L466 744 L471 747 L478 749 L475 746 L466 742 L443 736 L427 735 L426 734 L329 735 L328 734 L320 734 L319 733 L313 733 L305 731 L295 727 L289 722 L290 721 L294 722 L316 721 L324 723 L347 724 L348 725 L417 725 L418 726 L429 726 L430 727 L437 727 L438 728 L444 728 L445 729 L458 731 L467 734 Z M783 684 L784 683 L790 683 L802 686 L819 696 L828 704 L837 710 L833 712 L823 712 L822 713 L821 712 L820 713 L781 714 L780 713 L784 707 L786 700 L786 693 Z M782 683 L783 682 L784 683 L783 684 Z M779 682 L782 686 L784 694 L783 704 L780 711 L777 714 L768 715 L767 714 L773 708 L776 700 L775 690 L770 683 L771 682 Z M771 686 L774 693 L774 700 L771 708 L765 714 L757 716 L747 716 L744 717 L737 714 L731 707 L730 695 L734 688 L749 684 L761 683 L762 682 L767 682 Z M940 681 L941 680 L942 682 L941 683 Z M865 711 L864 710 L860 712 L848 712 L842 710 L831 703 L813 689 L797 682 L788 681 L787 680 L758 680 L726 688 L721 691 L714 693 L698 702 L682 714 L670 725 L655 742 L655 744 L676 732 L691 727 L712 723 L713 722 L727 721 L735 719 L743 719 L744 718 L774 717 L775 716 L776 717 L777 716 L795 716 L796 715 L819 715 L820 714 L832 714 L833 713 L841 713 L842 712 L855 715 Z M281 704 L288 709 L295 711 L301 711 L314 706 L335 691 L347 685 L369 679 L376 679 L377 678 L409 679 L434 686 L450 695 L458 701 L468 711 L476 721 L483 733 L485 734 L485 732 L481 725 L473 714 L456 697 L442 688 L431 683 L408 677 L379 676 L378 677 L370 677 L357 680 L345 684 L335 689 L314 704 L303 709 L294 709 Z M854 704 L842 697 L823 680 L807 671 L786 666 L758 666 L757 667 L751 667 L750 668 L745 668 L721 675 L693 689 L681 698 L665 714 L655 728 L653 733 L656 731 L657 728 L670 711 L685 697 L698 688 L723 676 L751 669 L757 669 L758 668 L785 668 L786 669 L798 670 L807 673 L819 679 L845 701 Z M626 655 L624 656 L615 674 L609 694 L607 713 L606 714 L606 749 L607 750 L608 766 L609 767 L610 778 L612 784 L612 789 L617 809 L619 813 L620 820 L622 824 L622 828 L624 832 L626 845 L627 846 L627 852 L628 853 L628 879 L625 891 L618 903 L614 907 L607 912 L598 916 L587 919 L580 919 L579 920 L552 919 L534 913 L528 909 L521 902 L517 895 L514 886 L514 881 L513 880 L513 856 L514 855 L515 842 L522 815 L523 806 L526 797 L526 792 L527 791 L527 786 L530 773 L530 767 L531 766 L532 745 L533 744 L533 713 L532 712 L531 700 L525 679 L520 669 L518 668 L525 683 L530 703 L530 709 L531 710 L531 748 L530 749 L529 768 L528 769 L528 775 L526 781 L525 792 L524 793 L522 807 L519 816 L519 820 L516 829 L516 833 L512 849 L511 878 L512 879 L512 885 L514 892 L521 905 L532 914 L543 919 L557 921 L558 922 L581 922 L582 921 L587 921 L601 917 L613 910 L621 902 L627 891 L629 883 L629 878 L630 877 L630 855 L629 854 L629 848 L628 847 L626 833 L615 794 L612 774 L611 773 L611 768 L610 767 L610 761 L609 760 L609 751 L608 750 L608 711 L609 710 L610 698 L612 693 L612 689 L615 682 L615 679 Z M279 630 L280 629 L281 630 L280 631 Z M280 628 L281 627 L282 628 L281 629 Z M642 608 L643 607 L644 608 L643 609 Z M871 607 L872 606 L873 607 L872 608 Z M643 607 L644 606 L645 607 L644 608 Z M500 607 L501 606 L502 607 L501 608 Z M870 606 L871 605 L872 606 L871 607 Z M499 606 L500 605 L501 606 L500 607 Z M312 637 L313 638 L322 630 L331 624 L347 616 L366 610 L376 609 L377 608 L384 608 L385 607 L401 607 L402 608 L417 609 L438 615 L452 622 L465 631 L479 645 L486 655 L495 674 L501 700 L501 728 L500 729 L499 738 L497 741 L499 742 L503 725 L503 701 L502 700 L501 688 L497 674 L490 658 L479 642 L468 631 L451 619 L436 612 L433 612 L430 610 L413 606 L406 606 L405 605 L375 606 L374 607 L365 608 L347 614 L331 622 L318 631 Z M869 604 L870 603 L871 604 L870 605 Z M868 603 L869 602 L870 603 L869 604 Z M867 602 L868 601 L869 602 L868 603 Z M956 600 L957 599 L958 600 L957 601 Z M821 619 L803 609 L789 604 L776 601 L771 601 L770 600 L746 599 L745 600 L730 601 L711 606 L690 616 L671 630 L654 649 L647 660 L637 685 L636 694 L635 695 L635 703 L634 704 L634 716 L635 717 L635 725 L637 733 L644 748 L647 750 L640 737 L637 725 L637 719 L636 718 L636 704 L637 703 L637 696 L638 695 L640 682 L644 671 L655 651 L662 642 L674 630 L683 623 L694 616 L709 609 L721 605 L725 605 L730 603 L736 603 L737 602 L769 602 L770 603 L781 604 L803 611 L817 618 L819 620 L821 620 Z M916 571 L917 572 L916 575 L915 574 Z M215 569 L216 568 L217 569 L216 570 Z M193 565 L204 565 L211 568 L218 576 L222 587 L222 591 L225 599 L225 603 L227 607 L229 620 L230 621 L231 635 L233 643 L233 651 L234 652 L234 661 L235 662 L235 673 L236 674 L237 721 L236 722 L235 733 L233 737 L228 741 L219 741 L213 738 L207 732 L203 726 L198 712 L199 696 L202 690 L206 686 L210 686 L214 690 L215 694 L215 709 L214 712 L217 710 L217 691 L216 690 L215 676 L214 675 L214 669 L213 668 L213 662 L212 661 L209 640 L207 635 L204 619 L194 593 L188 586 L184 585 L181 588 L181 590 L180 591 L179 590 L180 578 L183 571 L186 568 Z M210 565 L211 564 L212 565 L211 566 Z M215 561 L216 562 L216 568 L215 569 L214 568 L214 562 Z M500 604 L499 606 L475 590 L459 582 L444 577 L431 574 L415 573 L414 572 L393 573 L392 574 L385 574 L384 575 L379 575 L362 579 L337 588 L323 595 L307 605 L291 618 L282 628 L281 627 L285 619 L291 611 L309 593 L323 583 L344 572 L354 569 L357 567 L360 567 L375 562 L379 562 L385 560 L392 560 L393 559 L403 559 L404 558 L425 559 L426 560 L436 561 L451 566 L465 573 L478 582 Z M508 613 L500 601 L488 588 L477 579 L455 566 L434 559 L423 558 L422 557 L396 557 L395 558 L389 558 L388 559 L377 560 L349 568 L328 578 L315 586 L305 594 L291 608 L284 617 L275 633 L270 647 L270 650 L272 649 L276 639 L285 627 L295 617 L315 602 L327 595 L347 586 L369 579 L378 578 L384 576 L390 576 L391 575 L425 575 L426 576 L431 576 L444 579 L469 589 L486 599 L507 614 Z M644 606 L650 598 L660 588 L675 576 L686 569 L702 561 L719 555 L737 552 L738 551 L746 551 L747 550 L780 551 L781 552 L786 552 L799 555 L814 560 L827 566 L829 568 L831 568 L846 578 L868 600 L867 602 L859 595 L843 584 L825 575 L820 574 L817 572 L814 572 L811 570 L785 564 L749 563 L748 564 L740 564 L739 565 L728 566 L692 578 L690 580 L682 583 L662 595 L646 607 Z M637 613 L637 615 L661 598 L679 587 L697 578 L707 575 L710 573 L727 568 L744 566 L745 565 L778 565 L779 566 L786 566 L787 567 L792 567 L809 571 L823 576 L843 586 L861 599 L872 610 L880 621 L885 634 L887 635 L881 617 L876 608 L864 592 L849 578 L834 568 L813 558 L794 552 L790 552 L785 550 L777 550 L776 549 L755 548 L754 549 L734 550 L717 554 L700 560 L686 567 L665 581 L645 601 L644 600 L645 602 Z M325 516 L343 510 L350 509 L357 506 L361 506 L389 499 L407 497 L414 495 L428 494 L429 493 L458 491 L459 490 L470 490 L471 489 L499 488 L500 487 L518 487 L519 486 L540 486 L541 485 L567 485 L568 484 L676 484 L677 485 L715 486 L716 487 L728 487 L729 488 L748 489 L749 490 L778 493 L784 495 L804 498 L824 503 L839 509 L842 509 L864 519 L883 531 L904 551 L913 565 L914 589 L913 590 L912 622 L911 623 L911 632 L910 633 L910 642 L909 643 L909 652 L908 653 L908 664 L907 665 L907 674 L906 675 L906 686 L905 687 L904 732 L905 733 L905 739 L910 758 L912 772 L914 777 L916 797 L917 798 L918 818 L919 819 L920 863 L919 864 L919 888 L918 889 L918 902 L917 903 L915 931 L914 932 L914 938 L913 939 L913 945 L912 946 L909 970 L908 971 L905 990 L901 1003 L901 1007 L891 1038 L881 1063 L877 1070 L877 1072 L859 1107 L835 1143 L818 1164 L787 1195 L759 1217 L721 1241 L690 1256 L666 1265 L663 1265 L656 1268 L636 1273 L631 1273 L618 1276 L610 1276 L609 1277 L597 1277 L595 1278 L594 1277 L563 1277 L562 1276 L555 1276 L554 1275 L548 1275 L547 1274 L531 1272 L493 1261 L463 1249 L433 1234 L390 1207 L368 1190 L353 1177 L335 1159 L323 1145 L304 1119 L290 1095 L280 1075 L280 1073 L269 1049 L269 1046 L263 1033 L254 1004 L251 988 L249 983 L249 979 L247 974 L247 970 L246 969 L243 948 L242 947 L239 919 L238 918 L238 911 L237 910 L237 901 L236 900 L235 878 L234 877 L234 852 L233 851 L234 812 L235 811 L235 801 L236 800 L238 779 L239 778 L240 768 L242 763 L242 759 L245 750 L247 735 L248 734 L248 691 L247 690 L247 675 L246 674 L246 662 L245 661 L243 619 L242 618 L242 597 L241 596 L242 595 L242 583 L254 563 L266 550 L281 538 L294 530 Z M976 555 L979 566 L979 581 L978 582 L978 594 L977 595 L977 607 L976 608 L976 671 L975 672 L975 690 L974 691 L974 705 L975 706 L974 748 L973 749 L972 764 L971 765 L971 770 L970 771 L968 784 L962 801 L953 816 L955 815 L956 816 L955 829 L954 830 L954 854 L955 855 L955 863 L958 873 L958 877 L965 898 L983 941 L986 953 L987 965 L988 966 L988 995 L987 996 L987 1002 L984 1015 L978 1029 L972 1037 L960 1047 L952 1051 L941 1054 L920 1054 L907 1050 L899 1046 L892 1040 L901 1014 L904 1026 L909 1035 L914 1040 L925 1046 L941 1046 L953 1042 L962 1036 L967 1031 L972 1023 L969 1025 L964 1032 L953 1040 L941 1044 L926 1044 L917 1040 L909 1032 L904 1021 L903 1010 L902 1009 L909 981 L910 971 L913 959 L914 947 L915 946 L915 940 L916 939 L918 914 L919 913 L919 903 L920 902 L921 868 L922 867 L922 840 L921 839 L920 806 L919 805 L916 777 L909 749 L909 745 L907 739 L907 731 L906 730 L906 703 L907 702 L908 676 L909 675 L909 665 L910 664 L911 644 L912 643 L913 623 L914 622 L916 575 L917 574 L919 577 L920 583 L921 583 L921 578 L916 566 L903 547 L886 531 L868 519 L852 511 L825 501 L805 496 L796 495 L791 493 L767 490 L766 489 L760 489 L759 488 L751 488 L750 487 L742 487 L741 486 L733 486 L732 485 L721 485 L720 484 L685 483 L684 482 L649 482 L648 481 L560 482 L559 483 L535 483 L534 484 L514 484 L513 485 L481 486 L480 487 L467 487 L466 488 L456 488 L455 489 L427 491 L426 492 L412 493 L411 494 L388 497 L378 500 L373 500 L357 504 L353 506 L346 507 L342 509 L339 509 L336 511 L322 515 L292 529 L269 545 L254 560 L245 573 L240 583 L234 600 L234 604 L235 604 L239 592 L240 593 L239 601 L240 602 L241 637 L242 638 L243 664 L244 665 L245 691 L246 692 L246 732 L245 733 L245 739 L236 778 L234 800 L233 801 L233 811 L232 812 L232 830 L231 831 L232 878 L233 879 L235 911 L236 912 L236 919 L237 920 L237 927 L239 934 L241 953 L242 954 L247 983 L250 992 L250 996 L244 1020 L238 1031 L229 1040 L220 1044 L205 1044 L200 1042 L199 1043 L205 1046 L220 1046 L232 1040 L239 1033 L245 1022 L248 1014 L249 1005 L251 999 L254 1011 L257 1018 L257 1021 L263 1037 L263 1040 L255 1047 L243 1053 L230 1056 L215 1056 L214 1055 L205 1054 L193 1049 L187 1045 L176 1033 L170 1020 L170 1017 L172 1016 L169 1006 L169 979 L170 978 L170 973 L176 948 L197 892 L201 876 L202 866 L203 865 L203 858 L204 857 L204 839 L203 838 L202 826 L200 820 L193 809 L189 800 L186 790 L185 778 L184 777 L184 699 L183 698 L183 686 L182 685 L181 665 L180 664 L180 635 L181 634 L181 610 L180 607 L182 606 L181 604 L181 595 L182 594 L182 590 L184 587 L187 588 L191 592 L198 608 L194 612 L191 618 L188 631 L186 669 L187 669 L188 666 L188 659 L189 658 L189 645 L190 644 L191 626 L194 616 L197 612 L200 613 L208 647 L207 650 L202 652 L198 656 L193 665 L189 680 L189 688 L188 689 L188 760 L189 761 L190 777 L196 799 L205 815 L208 827 L209 826 L208 818 L197 796 L191 770 L191 760 L190 759 L190 691 L191 690 L191 682 L192 681 L193 672 L199 658 L204 653 L208 652 L210 657 L210 663 L211 664 L211 670 L212 671 L212 677 L214 685 L213 686 L211 684 L207 684 L200 689 L196 699 L196 713 L197 717 L203 730 L213 740 L218 743 L222 743 L223 744 L231 742 L236 736 L238 729 L238 723 L239 722 L239 690 L238 689 L238 673 L237 672 L236 652 L235 651 L235 643 L234 642 L234 635 L232 627 L233 609 L231 611 L229 610 L228 601 L230 598 L233 586 L240 572 L249 559 L267 541 L289 526 L324 510 L353 501 L369 497 L373 497 L382 494 L387 494 L388 493 L393 493 L394 492 L411 490 L412 489 L418 489 L419 488 L425 488 L426 487 L443 486 L444 485 L477 483 L478 482 L492 482 L493 481 L508 481 L509 480 L554 479 L555 478 L604 478 L605 477 L683 479 L684 480 L700 480 L701 481 L713 481 L714 482 L725 482 L726 483 L737 483 L738 484 L762 486 L763 487 L788 490 L789 491 L803 493 L823 498 L852 508 L861 513 L863 513 L885 526 L899 537 L907 545 L915 555 L923 569 L926 577 L927 585 L924 594 L921 623 L920 624 L920 633 L919 634 L917 663 L916 664 L916 676 L915 677 L915 700 L914 701 L914 712 L915 713 L916 730 L918 735 L923 740 L933 741 L944 735 L954 722 L959 709 L960 698 L956 686 L949 680 L944 680 L943 681 L941 680 L941 673 L942 672 L945 648 L946 647 L951 647 L954 649 L960 657 L962 662 L965 675 L965 682 L966 683 L966 712 L967 713 L966 715 L965 753 L964 754 L964 760 L963 761 L963 766 L962 767 L959 784 L951 805 L949 807 L943 820 L942 831 L944 831 L944 824 L946 817 L957 796 L964 772 L965 762 L966 761 L966 753 L967 752 L967 743 L968 742 L968 721 L969 720 L968 681 L967 680 L967 674 L966 673 L965 665 L960 653 L953 646 L947 645 L946 642 L955 603 L958 602 L963 608 L964 616 L965 617 L967 652 L968 653 L969 663 L970 663 L967 616 L963 604 L957 599 L957 597 L961 585 L968 572 L970 570 L973 570 L975 575 L977 576 L975 569 L971 568 L965 573 L958 587 L948 622 L948 626 L946 631 L945 641 L942 652 L942 657 L941 658 L940 671 L939 672 L937 699 L936 700 L937 708 L939 708 L938 699 L939 698 L940 686 L945 681 L947 681 L951 683 L956 690 L957 700 L958 701 L957 709 L953 720 L948 728 L942 734 L932 739 L926 739 L922 737 L919 733 L917 725 L916 699 L917 698 L917 679 L918 678 L918 665 L919 664 L922 624 L923 623 L926 595 L930 581 L930 577 L934 563 L938 556 L946 549 L958 546 L969 548 Z M224 590 L225 581 L229 569 L237 554 L244 544 L263 525 L265 526 L264 525 L268 521 L285 510 L303 501 L305 501 L325 492 L328 492 L344 486 L347 486 L351 484 L371 479 L375 479 L396 474 L407 473 L408 472 L428 470 L429 469 L437 469 L438 468 L445 468 L446 467 L457 467 L458 466 L469 466 L470 465 L498 464 L499 463 L541 462 L542 461 L572 461 L573 460 L661 461 L662 462 L682 462 L683 463 L724 465 L725 466 L735 466 L736 467 L744 467 L745 468 L752 468 L753 469 L760 469 L761 470 L767 470 L774 472 L780 472 L781 473 L791 474 L796 476 L805 477 L821 482 L824 482 L857 494 L881 507 L895 517 L913 534 L914 536 L913 537 L914 536 L917 539 L928 558 L931 568 L928 577 L922 562 L912 548 L896 532 L881 521 L869 514 L845 503 L809 492 L805 492 L789 488 L784 488 L783 487 L778 487 L777 486 L772 486 L771 485 L766 485 L765 484 L759 484 L758 483 L740 482 L739 481 L731 481 L730 480 L718 480 L717 479 L705 479 L704 478 L690 478 L689 477 L635 476 L634 475 L547 476 L546 477 L524 477 L523 478 L505 478 L504 479 L488 479 L487 480 L462 481 L461 482 L450 482 L449 483 L441 483 L440 484 L424 485 L417 487 L410 487 L409 488 L404 488 L403 489 L398 489 L397 490 L392 490 L391 491 L372 494 L352 499 L324 508 L309 514 L289 524 L279 530 L269 538 L267 537 L268 538 L249 556 L243 564 L234 579 L234 581 L229 591 L227 599 Z M956 432 L957 433 L956 437 L955 436 Z M829 422 L830 421 L831 422 L830 423 Z M387 409 L388 408 L389 409 L388 410 Z M752 403 L753 402 L754 403 L753 404 Z M704 396 L705 395 L706 396 L705 397 Z M411 404 L408 406 L404 406 L393 409 L389 409 L388 408 L394 402 L399 394 L403 399 Z M779 391 L780 390 L781 391 L780 392 Z M731 399 L739 394 L742 390 L747 397 L753 402 L752 403 L748 403 L742 401 L735 401 Z M601 390 L602 389 L603 390 L602 391 Z M410 373 L414 366 L423 360 L427 360 L428 359 L438 360 L451 367 L473 390 L479 394 L473 396 L464 396 L463 397 L449 398 L441 400 L440 399 L444 395 L447 386 L445 379 L441 373 L434 370 L430 370 L424 374 L422 377 L422 383 L424 386 L431 389 L426 392 L417 391 L412 387 L410 383 Z M732 367 L733 378 L732 381 L726 387 L718 388 L714 385 L718 384 L722 380 L722 374 L719 370 L715 368 L711 368 L704 372 L700 379 L700 387 L702 392 L705 395 L704 396 L671 394 L670 393 L678 387 L688 375 L703 361 L713 358 L719 358 L727 361 Z M456 352 L457 351 L458 352 L457 353 Z M692 350 L693 349 L694 350 L693 351 Z M502 342 L503 346 L502 347 L501 355 L495 360 L487 360 L484 357 L483 354 L484 351 L487 348 L491 348 L491 345 L486 341 L481 341 L477 343 L472 348 L470 354 L471 364 L477 375 L488 385 L499 391 L501 391 L502 392 L501 393 L483 394 L472 387 L447 362 L435 357 L427 357 L420 359 L411 367 L408 373 L408 383 L410 387 L415 392 L420 394 L425 394 L430 392 L433 389 L434 384 L431 386 L428 386 L424 383 L425 376 L428 373 L431 372 L435 372 L439 374 L444 381 L444 390 L441 396 L435 401 L415 404 L407 400 L402 395 L400 390 L398 390 L396 396 L390 404 L382 411 L377 413 L366 415 L362 417 L356 417 L348 414 L342 407 L341 403 L342 395 L344 391 L350 387 L357 388 L360 392 L360 395 L357 399 L353 399 L352 398 L352 402 L356 406 L365 407 L376 402 L381 397 L382 398 L381 397 L389 387 L401 361 L411 351 L417 348 L424 346 L437 346 L445 348 L451 351 L459 358 L460 357 L460 350 L463 342 L465 340 L466 341 L465 339 L468 336 L477 331 L489 331 L492 332 Z M649 341 L656 333 L660 331 L669 330 L678 333 L685 339 L689 348 L689 356 L693 354 L697 350 L706 346 L718 345 L719 346 L727 347 L733 350 L741 358 L744 363 L751 382 L755 388 L761 394 L767 397 L771 397 L772 398 L779 396 L782 393 L784 388 L781 389 L777 388 L775 386 L775 381 L779 377 L785 377 L792 384 L793 390 L791 397 L786 403 L781 406 L770 407 L765 405 L761 405 L754 401 L747 394 L743 386 L741 387 L740 390 L735 395 L727 399 L713 398 L709 396 L703 390 L702 387 L702 380 L704 375 L707 372 L714 370 L717 371 L720 374 L720 380 L718 382 L712 381 L712 385 L716 389 L719 390 L726 389 L732 384 L735 378 L735 370 L732 364 L727 359 L720 356 L711 356 L705 358 L697 363 L688 372 L683 379 L674 388 L667 393 L651 392 L650 391 L662 384 L673 373 L679 361 L679 351 L676 345 L671 341 L668 340 L663 341 L660 343 L659 348 L663 348 L666 351 L666 356 L661 360 L656 360 L652 358 L649 354 L648 351 Z M720 317 L721 319 L714 336 L706 344 L694 350 L693 349 L694 339 L696 335 L696 332 L699 327 L706 320 L710 318 Z M437 316 L446 319 L453 325 L457 335 L457 351 L456 352 L447 347 L442 342 L437 330 L437 322 L436 321 L436 317 Z M569 273 L579 273 L580 274 L589 275 L597 278 L606 284 L617 296 L621 303 L625 316 L625 335 L624 336 L624 340 L621 348 L615 358 L602 370 L592 375 L581 378 L561 377 L552 374 L543 369 L535 362 L529 354 L525 346 L522 335 L522 318 L523 317 L524 309 L532 294 L543 283 L549 279 L559 275 L568 274 Z M576 271 L557 274 L546 279 L539 284 L533 290 L525 302 L520 319 L521 339 L524 348 L531 360 L544 372 L554 377 L565 380 L582 380 L601 373 L609 367 L618 357 L623 348 L626 339 L627 326 L628 325 L627 323 L627 315 L625 308 L617 293 L606 282 L600 278 L598 278 L596 276 L588 273 L577 272 Z M553 261 L561 259 L567 259 L568 258 L581 258 L582 259 L592 260 L608 267 L614 271 L626 283 L632 292 L638 306 L639 314 L640 315 L640 324 L641 325 L640 328 L640 338 L637 349 L632 360 L624 371 L613 381 L603 387 L592 391 L586 391 L585 392 L561 392 L546 388 L531 379 L520 368 L513 357 L510 350 L507 338 L507 316 L512 298 L517 289 L530 274 L543 265 Z M830 421 L827 422 L807 415 L779 408 L786 405 L792 399 L795 391 L794 384 L792 380 L785 375 L779 375 L773 381 L774 388 L780 392 L777 395 L771 396 L760 391 L754 384 L748 370 L747 365 L742 356 L735 349 L728 345 L720 343 L712 343 L711 342 L716 336 L723 319 L723 317 L720 315 L710 316 L703 320 L698 325 L694 332 L691 345 L689 344 L684 335 L680 332 L670 328 L660 329 L654 332 L650 336 L647 341 L646 351 L648 356 L653 361 L661 362 L665 360 L668 356 L668 350 L664 346 L661 345 L664 343 L672 344 L677 351 L677 361 L673 370 L663 381 L656 386 L643 392 L639 391 L612 391 L611 390 L604 390 L603 389 L616 381 L628 369 L633 362 L638 352 L642 337 L642 315 L641 314 L640 306 L638 300 L629 284 L614 269 L608 265 L592 258 L583 257 L582 256 L567 256 L566 257 L561 257 L553 259 L538 266 L532 270 L520 282 L512 294 L507 306 L506 316 L505 317 L505 337 L508 350 L511 355 L511 357 L521 372 L527 378 L538 386 L547 390 L546 391 L507 392 L503 391 L487 382 L483 378 L484 377 L483 378 L477 372 L472 361 L472 354 L474 349 L479 344 L485 343 L488 345 L483 349 L482 357 L487 362 L491 363 L496 362 L501 358 L504 352 L504 343 L501 337 L496 332 L490 329 L482 328 L474 330 L469 333 L462 340 L460 344 L459 343 L458 331 L455 325 L448 318 L442 315 L436 314 L434 315 L435 329 L438 339 L442 344 L441 345 L438 344 L423 344 L414 347 L409 350 L401 358 L397 364 L391 379 L385 390 L376 400 L366 405 L358 405 L354 402 L360 399 L362 396 L362 392 L360 388 L355 385 L350 385 L346 387 L340 394 L339 404 L341 409 L347 415 L352 417 L353 419 L320 430 L310 435 L308 434 L312 426 L319 401 L326 388 L339 376 L348 372 L363 370 L368 367 L374 344 L380 332 L385 325 L398 313 L410 307 L421 304 L427 304 L428 303 L445 304 L461 308 L466 303 L467 300 L476 288 L491 273 L504 264 L517 257 L539 249 L556 246 L557 245 L574 244 L575 243 L576 244 L577 243 L599 244 L600 245 L607 245 L608 246 L617 247 L635 253 L647 259 L659 267 L672 279 L680 289 L687 301 L692 305 L705 302 L721 302 L735 306 L743 311 L751 319 L757 328 L762 339 L764 348 L768 358 L772 360 L781 360 L782 361 L791 362 L799 366 L809 376 L816 391 L817 397 L825 415 Z M854 429 L852 431 L845 429 L836 425 L830 419 L824 409 L817 388 L812 377 L801 365 L788 359 L772 358 L768 355 L764 339 L758 326 L750 315 L743 309 L730 302 L721 301 L720 300 L707 300 L694 303 L690 302 L687 296 L677 282 L663 268 L649 258 L635 251 L621 246 L608 243 L603 243 L602 242 L573 241 L572 242 L563 242 L562 243 L556 243 L555 244 L542 246 L524 252 L509 259 L486 275 L475 286 L461 306 L445 302 L428 301 L427 302 L421 302 L410 305 L395 313 L385 322 L377 333 L369 353 L367 365 L365 367 L348 370 L340 374 L337 373 L339 374 L333 378 L326 385 L320 394 L316 403 L313 417 L306 435 L303 438 L297 440 L289 445 L288 444 L297 426 L305 392 L311 379 L319 368 L327 361 L338 355 L350 352 L353 350 L359 331 L367 316 L374 307 L385 297 L400 288 L416 283 L421 283 L422 282 L443 282 L444 283 L452 284 L454 283 L458 277 L469 265 L482 254 L496 245 L510 238 L528 231 L553 225 L568 224 L569 223 L599 223 L600 224 L607 224 L608 225 L623 227 L641 233 L661 243 L676 254 L692 271 L700 282 L720 281 L721 282 L732 283 L738 285 L752 293 L768 310 L777 327 L781 339 L785 342 L793 343 L807 349 L820 361 L826 371 L836 403 L844 416 L853 424 L853 428 Z M254 188 L256 188 L260 191 L258 196 L253 189 Z M252 188 L253 187 L254 188 L253 189 Z M246 185 L252 190 L257 198 L252 205 L248 202 L244 203 L242 208 L242 220 L243 221 L243 267 L242 268 L241 297 L240 298 L239 318 L238 319 L238 327 L236 334 L234 355 L233 356 L229 385 L227 391 L227 397 L225 403 L225 409 L223 416 L223 424 L222 425 L222 433 L221 434 L221 442 L220 443 L219 486 L220 487 L220 507 L221 508 L221 513 L219 516 L215 533 L214 532 L213 506 L212 505 L211 458 L212 457 L212 436 L213 435 L214 416 L215 415 L217 396 L221 380 L221 375 L223 370 L225 353 L227 347 L229 325 L230 324 L230 314 L231 313 L231 300 L232 299 L232 255 L231 254 L231 241 L230 240 L230 227 L229 226 L230 224 L229 223 L229 209 L230 208 L230 200 L234 189 L238 185 Z M898 172 L904 172 L907 175 L911 190 L912 253 L913 254 L914 279 L915 280 L915 287 L916 288 L917 299 L921 316 L921 321 L922 322 L922 326 L923 327 L923 331 L929 357 L929 362 L931 368 L933 387 L934 388 L935 400 L936 401 L938 428 L939 429 L941 475 L942 476 L942 500 L943 501 L943 510 L942 511 L942 543 L941 544 L941 551 L936 556 L932 564 L931 563 L932 513 L930 509 L930 502 L931 501 L931 468 L930 467 L929 434 L928 433 L927 412 L926 411 L926 403 L925 402 L920 361 L919 360 L914 325 L912 319 L912 313 L909 302 L909 296 L908 295 L908 290 L905 277 L905 270 L904 269 L904 262 L903 261 L902 241 L901 240 L901 222 L900 221 L903 212 L903 204 L900 197 L900 194 L898 192 L893 194 L889 204 L886 200 L880 183 L880 181 L883 178 L885 178 L890 175 L892 176 L889 180 L891 180 L893 176 Z M999 168 L1000 169 L1000 176 L999 177 L999 186 L998 187 L996 208 L995 209 L992 232 L990 238 L990 243 L988 249 L987 260 L981 286 L980 297 L979 298 L976 318 L974 324 L971 347 L969 353 L969 358 L968 359 L968 364 L966 370 L966 376 L965 377 L965 382 L964 383 L964 388 L963 389 L963 394 L960 407 L958 428 L957 429 L956 428 L956 420 L957 419 L959 387 L960 386 L960 378 L961 377 L961 370 L962 369 L968 321 L969 320 L969 315 L971 309 L971 304 L973 298 L974 287 L975 286 L976 276 L980 260 L980 255 L983 244 L985 229 L987 224 L988 215 L990 210 L990 206 L992 201 L993 192 Z M1000 163 L1001 164 L1000 168 L999 167 Z M310 253 L311 254 L350 234 L352 234 L369 225 L371 225 L415 204 L417 204 L453 188 L458 187 L463 184 L471 182 L474 180 L494 173 L497 173 L514 167 L530 164 L535 162 L545 161 L546 160 L553 160 L554 159 L561 159 L562 158 L603 158 L604 159 L612 159 L613 160 L631 162 L657 168 L706 184 L726 193 L733 195 L751 204 L753 204 L777 216 L779 218 L803 230 L837 250 L846 254 L843 251 L828 242 L807 231 L798 225 L787 220 L785 218 L749 200 L747 200 L738 195 L736 195 L709 183 L687 176 L684 174 L681 174 L678 172 L675 172 L668 169 L661 168 L649 164 L645 164 L636 161 L619 159 L618 158 L601 157 L600 156 L565 156 L564 157 L545 158 L540 160 L530 161 L510 166 L476 177 L426 197 L403 208 L401 208 L356 230 L354 230 L352 232 L348 233 Z M245 226 L246 225 L250 226 L257 222 L261 218 L270 205 L281 183 L290 168 L296 160 L309 147 L319 140 L331 134 L351 129 L373 129 L389 133 L404 141 L433 164 L445 170 L458 173 L475 173 L476 172 L481 172 L494 169 L497 167 L506 165 L521 158 L523 158 L561 139 L581 133 L604 133 L616 137 L619 137 L635 145 L661 161 L663 161 L679 169 L698 174 L713 174 L730 169 L743 161 L766 142 L783 134 L791 133 L792 132 L813 132 L827 136 L843 147 L855 162 L861 174 L873 206 L880 217 L886 223 L890 225 L896 225 L898 223 L899 224 L899 242 L900 243 L900 252 L901 253 L903 277 L904 278 L907 301 L909 307 L909 313 L911 319 L911 324 L912 325 L912 330 L913 331 L913 336 L914 337 L914 342 L915 343 L915 348 L916 349 L916 354 L919 367 L919 373 L920 374 L922 393 L923 394 L924 411 L925 412 L927 447 L928 448 L928 473 L929 474 L929 498 L928 499 L929 502 L928 503 L919 489 L907 477 L881 459 L866 452 L862 449 L860 449 L838 439 L800 427 L779 423 L775 421 L771 421 L765 419 L733 415 L728 413 L718 413 L717 412 L701 411 L700 410 L699 411 L698 410 L689 410 L688 409 L664 408 L663 407 L652 407 L651 406 L649 407 L645 406 L629 406 L628 405 L544 405 L543 406 L522 406 L521 407 L481 409 L480 410 L471 410 L470 411 L439 414 L438 415 L421 417 L416 419 L411 419 L391 424 L382 425 L331 440 L328 442 L315 446 L282 462 L260 476 L246 488 L238 497 L231 507 L224 521 L224 523 L226 523 L227 518 L231 510 L241 496 L259 479 L277 467 L302 454 L304 454 L323 445 L369 430 L389 425 L393 425 L398 423 L413 421 L418 419 L436 417 L443 415 L449 415 L450 414 L486 411 L487 410 L514 409 L515 408 L534 408 L535 407 L581 407 L582 406 L583 407 L635 407 L636 408 L654 408 L655 409 L669 409 L670 410 L682 410 L683 411 L713 413 L714 414 L729 415 L730 416 L744 417 L756 420 L767 421 L815 433 L841 442 L864 453 L866 453 L868 455 L889 466 L904 477 L919 492 L925 501 L930 514 L930 550 L928 554 L920 540 L909 527 L898 517 L883 506 L871 499 L843 486 L840 486 L831 482 L828 482 L806 475 L797 474 L787 471 L770 469 L769 468 L763 468 L762 467 L738 465 L737 464 L728 464 L727 463 L716 463 L715 462 L688 461 L687 460 L636 459 L635 458 L535 459 L534 460 L514 460 L513 461 L467 463 L466 464 L444 465 L443 466 L413 469 L412 470 L384 474 L379 476 L358 480 L314 494 L283 509 L259 526 L245 540 L236 552 L229 564 L223 581 L219 575 L218 560 L217 559 L217 534 L218 533 L218 528 L220 520 L226 504 L235 489 L255 468 L282 450 L325 430 L361 418 L412 406 L418 406 L435 402 L441 402 L442 401 L455 400 L463 398 L482 397 L483 396 L492 396 L493 395 L506 395 L507 394 L525 394 L526 393 L584 394 L592 392 L618 392 L619 393 L659 394 L660 395 L705 398 L706 399 L722 400 L723 401 L729 401 L730 402 L736 402 L737 403 L761 406 L766 408 L771 408 L776 410 L780 410 L812 418 L857 435 L877 445 L894 457 L896 457 L895 455 L885 448 L855 432 L855 424 L845 414 L840 407 L836 398 L836 395 L829 373 L821 359 L812 350 L806 346 L794 341 L785 340 L782 337 L779 327 L768 307 L752 291 L746 287 L730 281 L726 281 L725 280 L703 280 L702 281 L691 267 L674 250 L658 239 L639 230 L619 224 L602 222 L601 221 L567 221 L566 222 L558 222 L557 223 L552 223 L551 224 L534 227 L519 232 L503 239 L501 241 L492 245 L474 258 L458 274 L452 282 L440 281 L439 280 L425 280 L424 281 L413 282 L401 286 L382 297 L366 314 L356 333 L352 347 L349 350 L340 352 L329 358 L327 357 L328 358 L313 372 L309 378 L302 395 L298 416 L294 428 L287 440 L285 446 L278 451 L268 456 L252 468 L237 483 L229 494 L228 493 L229 495 L223 506 L222 505 L222 480 L221 479 L221 474 L222 473 L222 445 L223 444 L223 434 L224 433 L227 405 L228 404 L228 399 L229 398 L229 393 L230 392 L230 387 L231 386 L231 381 L232 380 L232 375 L233 374 L233 369 L236 356 L239 328 L240 327 L240 320 L242 312 L243 288 L244 287 L244 270 L245 269 Z M166 129 L174 130 L188 134 L225 151 L266 165 L269 165 L272 167 L264 182 L263 186 L261 188 L241 182 L236 184 L232 188 L229 195 L228 205 L227 206 L227 229 L228 230 L229 260 L230 261 L230 294 L229 295 L229 309 L228 310 L228 321 L227 322 L226 339 L225 340 L225 345 L222 358 L222 364 L220 370 L218 367 L217 353 L216 352 L213 328 L207 304 L207 300 L205 295 L205 291 L194 247 L186 221 L185 214 L174 180 L174 177 L172 173 L172 170 L170 166 L165 146 L164 131 Z M141 129 L160 128 L163 130 L162 131 L162 139 L163 140 L164 150 L169 166 L170 173 L172 177 L172 180 L174 183 L174 186 L180 204 L180 207 L183 214 L189 239 L191 243 L202 287 L204 300 L207 309 L207 313 L211 329 L211 334 L213 340 L216 368 L217 369 L217 378 L218 379 L218 384 L217 385 L214 407 L213 408 L212 421 L211 422 L210 450 L209 451 L209 490 L210 491 L211 523 L212 524 L212 533 L213 534 L213 541 L214 542 L214 550 L213 551 L211 547 L210 535 L209 534 L208 522 L207 521 L206 510 L204 504 L204 498 L202 492 L201 481 L197 465 L196 454 L193 443 L193 438 L192 437 L190 422 L187 412 L180 373 L178 368 L173 340 L164 304 L163 295 L160 286 L160 281 L157 271 L156 262 L153 253 L153 249 L151 244 L147 222 L144 213 L144 209 L135 173 L133 153 L132 152 L132 140 L134 134 L138 130 Z M970 126 L972 128 L971 151 L968 160 L967 168 L954 209 L954 212 L951 219 L951 222 L949 226 L948 233 L941 256 L941 260 L938 269 L938 273 L933 294 L931 313 L930 314 L929 330 L927 337 L923 321 L923 316 L922 315 L918 287 L917 286 L917 279 L916 278 L915 253 L914 252 L914 198 L913 197 L912 182 L910 176 L904 170 L898 170 L879 178 L873 164 L898 154 L907 149 L909 149 L942 132 L957 127 Z M992 125 L996 126 L1000 129 L1002 140 L1001 141 L1001 147 L997 164 L996 174 L991 192 L991 196 L989 200 L986 219 L981 239 L981 244 L980 245 L977 265 L972 286 L972 292 L969 303 L966 327 L965 328 L965 334 L963 341 L963 347 L962 348 L962 355 L961 356 L961 363 L960 364 L960 371 L959 372 L959 379 L958 380 L957 395 L956 396 L954 433 L953 434 L953 451 L952 452 L951 488 L950 489 L948 523 L947 524 L947 531 L946 532 L946 543 L944 549 L943 548 L943 543 L944 542 L944 473 L943 472 L942 442 L941 441 L940 419 L939 418 L939 410 L938 409 L935 381 L934 380 L931 357 L929 352 L932 313 L933 312 L933 306 L934 305 L937 282 L940 273 L940 269 L942 264 L942 260 L946 244 L948 240 L949 233 L957 209 L959 199 L963 189 L963 186 L965 182 L965 179 L972 156 L973 146 L974 145 L974 128 L972 126 L973 125 Z M901 204 L901 211 L900 212 L899 220 L896 223 L888 222 L880 214 L874 204 L863 174 L858 164 L850 152 L841 143 L834 138 L828 135 L811 130 L795 130 L778 134 L759 145 L748 155 L734 165 L722 170 L712 171 L711 172 L698 172 L678 167 L655 156 L634 143 L620 136 L600 131 L585 131 L562 137 L547 144 L543 147 L541 147 L536 150 L534 149 L535 150 L524 156 L490 168 L482 170 L477 170 L476 171 L459 171 L458 170 L457 171 L456 170 L448 169 L436 164 L423 155 L405 140 L392 133 L381 129 L371 128 L370 127 L353 127 L352 128 L347 128 L335 131 L325 135 L309 145 L298 155 L290 165 L282 177 L270 201 L261 215 L252 223 L247 223 L244 220 L244 208 L247 204 L251 208 L256 204 L273 169 L279 159 L285 151 L301 135 L313 127 L323 122 L334 118 L351 115 L352 114 L377 114 L378 115 L384 115 L399 119 L404 122 L406 122 L417 129 L442 151 L452 156 L461 157 L462 158 L476 157 L499 150 L524 138 L546 124 L558 118 L573 113 L584 112 L585 111 L609 112 L626 117 L642 125 L670 146 L683 153 L697 158 L714 158 L721 156 L732 150 L755 131 L771 123 L790 118 L811 117 L831 122 L841 127 L849 133 L858 142 L865 152 L872 166 L873 171 L878 181 L880 190 L887 205 L891 208 L893 207 L891 204 L896 194 L898 195 Z M137 128 L132 132 L130 137 L130 157 L131 158 L132 170 L139 198 L139 202 L142 211 L142 215 L145 224 L145 228 L153 260 L155 274 L157 279 L158 288 L160 293 L163 311 L165 316 L168 334 L171 343 L175 366 L180 385 L180 390 L181 391 L181 395 L186 416 L186 421 L192 447 L192 452 L195 463 L197 479 L199 485 L199 490 L200 491 L200 496 L202 502 L203 514 L204 515 L204 520 L207 533 L207 539 L210 552 L210 558 L211 559 L211 564 L210 565 L205 563 L192 563 L186 565 L180 571 L177 579 L177 604 L178 605 L177 659 L178 660 L179 684 L180 685 L180 694 L181 695 L181 720 L182 721 L182 731 L181 732 L181 774 L182 775 L182 783 L183 784 L184 793 L186 797 L186 800 L190 807 L191 815 L192 816 L192 824 L193 825 L193 853 L192 854 L191 866 L187 879 L187 883 L184 890 L182 899 L168 934 L166 942 L166 947 L165 948 L165 953 L164 954 L163 981 L162 982 L163 986 L163 1000 L164 1001 L164 1006 L168 1022 L173 1033 L184 1046 L193 1052 L205 1057 L216 1058 L217 1059 L234 1058 L245 1055 L255 1050 L264 1043 L274 1068 L279 1077 L279 1079 L299 1116 L318 1143 L345 1173 L359 1186 L379 1202 L408 1222 L439 1240 L481 1259 L517 1271 L521 1271 L534 1275 L539 1275 L552 1278 L572 1279 L573 1280 L612 1279 L613 1278 L620 1278 L621 1277 L637 1275 L661 1269 L698 1255 L726 1241 L755 1223 L784 1201 L824 1161 L839 1142 L859 1112 L877 1078 L877 1076 L882 1067 L882 1065 L888 1053 L889 1048 L892 1043 L893 1045 L907 1053 L917 1056 L921 1056 L922 1057 L938 1057 L939 1056 L948 1055 L954 1053 L966 1046 L977 1035 L983 1025 L988 1011 L988 1007 L990 1001 L990 993 L991 992 L991 969 L990 968 L989 955 L985 939 L967 896 L967 893 L961 878 L958 865 L957 848 L956 847 L956 836 L957 835 L957 826 L958 825 L959 813 L970 786 L974 769 L974 764 L975 763 L976 743 L977 742 L977 681 L978 680 L978 662 L979 661 L978 618 L979 617 L979 601 L980 600 L980 590 L981 589 L981 563 L980 562 L980 558 L981 557 L980 558 L977 552 L970 546 L964 544 L955 544 L949 546 L948 545 L948 539 L949 538 L949 530 L950 529 L954 473 L955 472 L955 464 L956 463 L957 447 L959 439 L959 432 L960 431 L963 404 L964 403 L968 374 L970 368 L972 351 L974 345 L975 333 L976 332 L979 311 L981 305 L981 300 L983 294 L983 289 L984 288 L984 284 L990 258 L991 247 L993 241 L993 236 L994 235 L994 230 L995 229 L995 224 L998 211 L1000 191 L1001 190 L1002 174 L1003 173 L1003 162 L1004 161 L1004 134 L1002 128 L996 124 L988 122 L975 122 L974 123 L966 123 L965 124 L956 125 L932 134 L930 136 L928 136 L926 138 L924 138 L910 146 L908 146 L897 152 L885 156 L873 162 L871 160 L866 149 L860 141 L848 129 L842 125 L830 119 L824 118 L820 116 L816 116 L815 115 L794 115 L793 116 L787 116 L779 118 L761 125 L748 133 L731 148 L720 154 L713 156 L700 156 L689 153 L678 148 L662 138 L643 123 L622 113 L606 109 L582 109 L559 115 L540 125 L535 129 L514 140 L512 142 L493 150 L474 155 L457 155 L443 149 L415 125 L398 116 L381 112 L360 111 L359 112 L344 113 L332 116 L312 125 L304 130 L292 140 L282 151 L273 164 L261 161 L221 147 L192 133 L170 127 L162 127 L161 126 L145 126 Z" fill="#eef3f4" fill-rule="evenodd"/>
</svg>
