<svg xmlns="http://www.w3.org/2000/svg" width="561" height="701" viewBox="0 0 561 701">
  <title>0010</title>
  <path d="M264 636 L265 637 L267 653 L269 659 L271 661 L270 662 L256 662 L255 661 L257 660 L260 652 L262 638 Z M336 625 L337 624 L338 625 L337 626 Z M188 626 L189 625 L194 627 L204 626 L225 616 L237 613 L247 613 L248 612 L282 612 L283 613 L297 614 L308 618 L322 625 L326 626 L336 625 L337 627 L319 645 L309 652 L294 659 L286 661 L274 662 L271 659 L269 654 L267 639 L266 638 L266 632 L265 631 L265 623 L264 620 L263 620 L262 632 L261 633 L260 644 L257 656 L252 662 L246 662 L245 661 L234 660 L216 652 L205 644 Z M350 604 L351 603 L352 605 L351 606 Z M351 603 L352 602 L353 603 L352 604 Z M173 603 L174 602 L175 604 L174 605 Z M172 602 L173 601 L174 602 L173 603 Z M352 601 L353 600 L354 601 L353 602 Z M174 605 L175 604 L183 610 L191 611 L213 602 L221 601 L222 600 L229 600 L230 599 L298 599 L299 600 L307 600 L315 602 L334 610 L342 610 L349 605 L351 607 L346 615 L340 621 L333 624 L322 623 L308 616 L297 612 L283 611 L282 610 L251 610 L250 611 L237 611 L236 612 L228 613 L207 623 L200 625 L193 625 L188 623 L181 617 Z M171 600 L172 599 L173 600 L172 601 Z M353 599 L354 598 L355 599 L354 600 Z M170 597 L171 596 L172 598 L171 599 Z M354 596 L355 595 L356 597 L355 598 Z M204 570 L205 569 L210 569 L215 574 L214 575 L209 575 Z M312 574 L318 568 L324 568 L325 569 L317 575 L313 575 Z M344 569 L344 584 L342 589 L338 592 L333 591 L322 586 L309 583 L303 583 L297 581 L298 580 L306 579 L309 576 L317 577 L330 566 L338 561 L342 564 Z M182 569 L185 563 L188 561 L196 567 L200 568 L209 577 L218 576 L224 580 L229 580 L230 581 L224 583 L218 583 L217 584 L209 585 L191 592 L187 592 L182 586 L182 581 L181 580 Z M336 560 L326 567 L321 566 L315 568 L304 578 L300 578 L289 581 L278 581 L277 580 L235 580 L234 579 L224 578 L220 576 L213 569 L211 568 L204 569 L199 567 L191 560 L192 559 L200 559 L233 569 L248 570 L249 571 L278 571 L279 570 L287 570 L288 569 L299 568 L329 558 Z M179 578 L180 584 L183 589 L183 591 L188 594 L192 594 L208 587 L212 587 L223 584 L232 584 L233 583 L292 583 L293 584 L303 584 L304 585 L309 585 L322 588 L338 594 L343 590 L343 588 L345 586 L346 583 L346 570 L344 564 L339 559 L334 557 L326 557 L303 565 L295 566 L290 568 L269 569 L268 570 L244 569 L243 568 L231 567 L207 559 L194 557 L186 560 L183 563 L180 570 L180 577 Z M355 575 L355 584 L354 585 L353 595 L350 602 L346 606 L342 608 L334 608 L312 599 L300 598 L299 597 L231 597 L230 598 L222 598 L210 601 L191 609 L187 609 L181 607 L175 601 L172 593 L172 587 L171 586 L171 577 L172 576 L173 566 L178 557 L183 553 L188 551 L205 551 L231 557 L247 558 L248 559 L253 559 L256 561 L264 562 L280 558 L295 557 L320 551 L335 550 L344 553 L350 559 L354 569 L354 574 Z M273 530 L271 530 L273 551 L269 556 L272 555 L275 552 Z M146 520 L147 519 L148 521 L147 522 Z M378 519 L379 518 L380 520 L379 521 Z M145 519 L146 518 L147 519 L146 520 Z M309 513 L310 512 L311 513 L310 514 Z M297 513 L298 512 L299 513 L298 514 Z M216 513 L217 512 L218 513 L217 514 Z M298 512 L304 509 L307 509 L309 511 L306 514 L301 514 Z M218 510 L219 509 L223 509 L229 512 L221 514 Z M300 461 L301 462 L300 463 L303 464 L295 468 L290 473 L287 479 L286 478 L287 472 L291 465 L297 461 Z M228 461 L234 463 L239 468 L243 478 L243 483 L242 484 L240 477 L237 472 L231 467 L225 465 L228 463 L227 462 Z M301 461 L302 460 L305 461 L304 462 Z M223 461 L224 460 L228 461 L227 462 Z M168 532 L168 534 L174 533 L179 530 L184 524 L188 515 L191 499 L195 486 L202 473 L212 464 L218 461 L223 461 L224 462 L223 463 L221 463 L213 468 L207 477 L204 487 L204 500 L206 507 L214 515 L217 516 L232 515 L247 526 L253 527 L254 528 L254 532 L253 533 L252 552 L257 555 L253 551 L254 541 L255 540 L255 530 L254 529 L255 528 L268 529 L269 528 L277 527 L289 520 L294 515 L301 515 L302 516 L313 515 L321 507 L323 499 L323 489 L322 488 L321 479 L318 472 L312 466 L304 462 L305 461 L309 461 L317 465 L328 477 L334 492 L339 516 L343 525 L350 532 L357 534 L357 532 L354 532 L350 530 L346 526 L342 519 L335 489 L328 474 L320 465 L314 461 L304 458 L295 460 L288 466 L284 478 L284 498 L286 497 L286 488 L292 473 L296 469 L300 467 L309 467 L318 476 L321 488 L320 504 L315 512 L311 513 L310 509 L307 507 L301 508 L283 522 L270 527 L258 527 L247 524 L231 511 L223 507 L218 508 L216 510 L217 512 L216 513 L212 512 L207 505 L206 488 L207 487 L207 482 L210 475 L218 468 L227 467 L231 469 L237 475 L241 486 L242 498 L244 498 L244 484 L245 481 L242 469 L236 462 L230 459 L223 458 L213 461 L206 466 L199 474 L193 486 L187 508 L187 512 L182 524 L176 530 L172 532 Z M172 438 L174 437 L176 439 L183 442 L196 443 L197 444 L196 445 L186 445 L179 443 Z M171 437 L172 436 L173 437 L172 438 Z M170 436 L171 435 L172 436 L171 437 Z M169 435 L170 434 L171 435 L170 436 Z M168 434 L169 433 L170 434 L169 435 Z M167 433 L168 432 L169 433 L168 434 Z M166 432 L167 431 L168 432 L167 433 Z M165 431 L166 430 L167 431 L166 432 Z M164 429 L165 428 L166 429 L165 430 Z M363 426 L364 428 L362 430 L361 428 Z M163 427 L164 426 L165 428 L164 429 Z M162 425 L163 424 L164 426 L163 427 Z M161 423 L162 422 L163 424 L162 425 Z M365 421 L366 424 L364 427 L363 424 Z M301 415 L299 421 L302 431 L301 434 L303 433 L308 438 L316 442 L303 430 L301 424 Z M263 410 L273 412 L277 415 L276 418 L276 452 L277 453 L277 469 L278 470 L280 510 L276 513 L268 516 L256 515 L248 509 L249 508 L251 466 L252 465 L252 420 L250 415 L257 411 L262 411 Z M259 409 L249 413 L250 429 L251 430 L251 444 L250 445 L250 467 L249 468 L249 484 L248 485 L247 509 L254 516 L265 518 L276 515 L280 512 L280 510 L282 508 L281 506 L281 492 L280 491 L280 476 L279 475 L279 457 L278 456 L278 416 L279 415 L278 413 L272 410 Z M329 399 L333 398 L341 399 L345 401 L350 407 L351 410 L350 420 L342 428 L339 429 L328 428 L323 424 L320 419 L320 415 L319 414 L320 409 L322 405 Z M189 398 L195 398 L200 400 L205 405 L207 409 L207 418 L205 422 L200 427 L195 429 L188 429 L183 427 L178 422 L176 417 L176 411 L179 404 L182 401 Z M360 396 L361 395 L362 396 L361 397 Z M334 396 L326 399 L321 403 L318 409 L318 419 L325 428 L332 431 L338 431 L344 429 L349 425 L352 420 L353 411 L352 407 L346 400 L341 397 Z M191 396 L182 399 L177 404 L174 411 L174 417 L176 422 L180 427 L185 430 L194 431 L202 428 L206 424 L209 418 L209 409 L207 405 L201 399 L197 397 Z M373 393 L374 394 L373 398 L367 409 L365 407 L364 402 L361 397 L362 396 L369 396 Z M154 393 L157 395 L165 395 L166 396 L163 401 L160 411 L159 407 L153 396 Z M158 393 L159 392 L163 392 L164 393 L163 394 L159 394 Z M152 393 L153 392 L154 393 L153 394 Z M370 392 L371 391 L372 392 L371 393 Z M248 398 L254 393 L261 391 L267 391 L268 392 L272 392 L279 396 L279 404 L276 405 L270 402 L259 402 L250 405 L248 403 Z M374 387 L375 386 L376 387 L375 388 Z M375 385 L376 384 L377 385 L376 386 Z M348 385 L349 384 L354 385 L361 389 L363 391 L362 392 L364 391 L371 393 L367 395 L361 394 Z M334 384 L346 386 L354 391 L360 398 L364 408 L364 417 L359 429 L352 436 L340 441 L328 441 L320 438 L311 430 L306 419 L306 407 L311 396 L317 390 L322 387 Z M246 391 L253 386 L265 384 L266 385 L274 386 L278 388 L281 392 L279 394 L269 390 L258 390 L252 393 L247 393 Z M190 384 L199 385 L211 391 L217 398 L221 408 L221 418 L217 428 L209 436 L201 440 L197 440 L196 441 L187 441 L176 437 L167 428 L163 419 L163 407 L168 396 L177 388 Z M345 384 L346 383 L349 384 L348 385 Z M182 384 L166 393 L163 392 L169 387 L178 383 Z M342 383 L343 382 L344 383 L343 384 Z M290 383 L286 399 L286 414 L287 415 L287 421 L289 429 L294 440 L302 448 L331 461 L345 462 L354 458 L361 451 L368 438 L374 420 L378 403 L376 404 L368 433 L360 449 L355 455 L348 459 L335 460 L328 458 L302 446 L294 437 L290 426 L289 415 L288 414 L288 397 L291 387 L291 383 Z M245 390 L245 393 L248 395 L246 398 L246 404 L249 407 L247 410 L257 404 L263 404 L264 403 L265 404 L274 405 L280 409 L279 406 L281 403 L281 397 L279 396 L282 394 L283 391 L278 386 L270 383 L257 383 L249 386 Z M182 383 L183 382 L185 383 L184 384 Z M283 380 L284 379 L285 380 L284 381 Z M242 380 L243 379 L244 380 L243 381 Z M236 380 L235 380 L235 382 L238 388 L240 406 L239 407 L238 423 L236 431 L232 439 L225 446 L220 449 L218 449 L209 454 L196 459 L192 459 L191 460 L179 459 L173 456 L167 450 L160 437 L159 432 L156 426 L152 408 L150 403 L149 403 L152 418 L158 437 L163 447 L170 456 L174 459 L182 462 L192 462 L209 456 L225 448 L231 443 L237 433 L241 416 L241 395 Z M374 366 L375 365 L376 366 L375 367 Z M377 360 L371 367 L362 371 L340 372 L339 373 L332 373 L324 375 L311 382 L303 390 L299 397 L299 399 L300 399 L305 390 L311 384 L321 378 L338 374 L362 373 L371 369 L374 366 L375 367 L374 385 L370 391 L367 391 L354 383 L348 381 L332 381 L323 384 L312 392 L307 399 L304 407 L304 419 L308 429 L314 436 L325 442 L340 443 L352 438 L361 429 L362 430 L361 433 L354 440 L349 443 L351 443 L356 440 L362 434 L370 418 L366 422 L365 421 L366 416 L377 392 L377 388 L378 387 L376 384 Z M149 360 L149 377 L151 384 L149 385 L149 390 L156 404 L159 415 L162 420 L161 423 L159 421 L160 425 L163 431 L170 439 L174 442 L186 447 L197 447 L213 441 L225 432 L227 425 L227 420 L225 421 L225 426 L223 430 L214 439 L206 443 L198 444 L197 443 L198 442 L204 441 L211 437 L216 432 L221 424 L223 417 L223 409 L218 396 L205 384 L192 380 L183 380 L173 383 L157 393 L154 391 L155 389 L153 387 L151 380 L151 366 L152 365 L157 370 L164 373 L168 373 L169 374 L189 374 L206 378 L216 384 L222 390 L227 399 L229 399 L224 390 L216 382 L199 374 L187 373 L186 372 L168 372 L157 368 Z M397 344 L399 347 L399 353 L400 354 L399 398 L398 399 L399 477 L400 478 L401 492 L402 493 L404 509 L405 510 L405 516 L406 517 L406 528 L402 533 L396 533 L390 531 L380 525 L386 505 L387 491 L388 490 L388 474 L389 473 L388 440 L387 439 L387 428 L386 427 L386 399 L387 398 L387 392 L390 380 L391 369 Z M129 344 L131 349 L131 353 L135 369 L135 375 L136 376 L139 401 L140 402 L140 431 L139 432 L139 444 L138 445 L138 491 L139 492 L140 507 L146 525 L136 531 L130 533 L123 533 L120 530 L120 514 L125 493 L126 479 L127 478 L128 399 L127 398 L126 357 L127 356 L127 348 Z M274 306 L275 305 L276 306 L275 307 Z M252 306 L253 305 L254 306 L253 307 Z M377 323 L375 336 L372 342 L366 348 L359 351 L354 351 L353 352 L335 352 L334 353 L322 354 L307 360 L300 365 L293 373 L290 371 L288 366 L288 357 L290 350 L297 338 L310 327 L318 323 L338 316 L350 304 L358 307 L372 320 Z M151 323 L158 318 L167 309 L176 304 L178 304 L183 311 L190 316 L216 326 L230 337 L235 344 L240 357 L240 363 L238 370 L235 373 L225 363 L219 359 L209 355 L201 353 L194 353 L193 352 L174 352 L163 349 L155 342 L151 331 Z M280 302 L286 303 L290 307 L291 310 L290 321 L281 339 L279 341 L276 351 L276 366 L280 375 L284 379 L283 380 L275 372 L272 362 L272 354 L275 343 L287 319 L286 309 L282 306 L276 306 L275 305 Z M248 302 L253 305 L252 306 L248 305 L242 308 L240 312 L240 318 L243 326 L246 330 L254 347 L255 351 L255 365 L251 375 L246 380 L244 380 L243 379 L247 376 L251 368 L252 353 L250 345 L237 319 L237 308 L240 304 Z M379 321 L374 319 L358 305 L350 302 L339 313 L331 317 L318 321 L309 326 L307 325 L308 326 L294 339 L288 350 L286 357 L286 365 L289 373 L291 375 L294 375 L303 365 L309 361 L319 357 L327 356 L328 355 L334 355 L335 354 L354 354 L362 352 L368 349 L373 344 L376 338 L379 327 Z M149 321 L149 330 L152 340 L155 345 L161 350 L168 353 L173 353 L174 354 L191 354 L192 355 L201 355 L209 357 L222 363 L231 371 L233 375 L236 375 L239 372 L241 368 L242 357 L239 347 L234 339 L224 329 L218 325 L187 312 L182 307 L179 302 L171 304 L159 314 L158 313 L159 314 L155 318 Z M400 300 L403 304 L403 312 L395 341 L395 345 L393 350 L393 354 L389 370 L388 381 L387 382 L386 381 L386 374 L387 373 L388 304 L390 301 Z M127 300 L134 300 L139 305 L139 346 L140 347 L140 383 L139 384 L138 383 L137 370 L135 364 L132 343 L124 313 L124 303 Z M281 300 L277 301 L273 304 L270 312 L272 312 L276 308 L283 308 L285 311 L285 319 L274 340 L271 350 L270 360 L274 374 L279 380 L282 381 L285 384 L288 382 L288 380 L281 373 L279 369 L277 357 L278 356 L279 346 L292 321 L293 310 L292 307 L287 302 Z M247 300 L240 302 L235 308 L235 319 L248 345 L248 348 L250 352 L249 368 L246 374 L239 380 L242 383 L251 378 L254 374 L257 364 L257 351 L253 339 L245 326 L242 318 L242 312 L245 308 L247 307 L252 308 L256 312 L257 312 L257 308 L254 303 Z M378 285 L379 284 L380 285 L379 286 Z M163 275 L171 271 L186 266 L203 263 L204 262 L218 261 L219 260 L243 259 L244 258 L292 259 L293 260 L302 260 L303 261 L310 261 L311 262 L328 264 L355 272 L371 281 L382 293 L386 302 L385 400 L384 401 L384 425 L385 426 L386 452 L387 453 L386 492 L385 493 L385 500 L384 501 L384 506 L382 514 L368 529 L364 531 L365 532 L369 530 L378 520 L379 521 L377 528 L372 538 L362 580 L356 595 L355 592 L357 584 L357 576 L354 563 L347 553 L342 550 L334 549 L333 548 L317 550 L292 556 L282 556 L267 560 L260 560 L255 558 L243 557 L242 556 L233 556 L203 549 L189 549 L185 550 L176 557 L172 564 L170 571 L170 577 L169 578 L169 585 L170 586 L171 595 L170 596 L169 595 L163 578 L156 546 L147 522 L148 521 L159 531 L164 532 L157 528 L144 515 L142 507 L142 502 L141 501 L141 493 L140 492 L140 444 L141 443 L141 432 L142 431 L142 401 L141 400 L141 387 L142 386 L141 304 L143 297 L149 287 L156 280 Z M150 281 L156 275 L166 268 L175 264 L196 258 L211 256 L212 255 L219 255 L220 254 L229 254 L230 253 L274 252 L275 253 L292 253 L293 254 L310 255 L311 256 L317 256 L318 257 L328 258 L344 262 L363 270 L375 279 L379 284 L378 285 L368 277 L356 271 L331 263 L327 263 L316 260 L310 260 L309 259 L301 259 L300 258 L264 257 L263 256 L221 258 L220 259 L213 259 L212 260 L196 262 L170 270 L162 274 L152 282 Z M375 236 L390 241 L383 253 L380 265 L378 267 L377 266 L377 259 L376 258 L376 251 L375 250 L375 243 L374 242 L374 237 Z M151 236 L152 237 L152 242 L151 243 L149 262 L147 267 L142 250 L137 242 L141 240 L144 240 Z M373 236 L374 235 L375 236 L374 237 Z M151 236 L152 235 L153 236 L152 237 Z M364 221 L368 226 L372 235 L377 276 L379 275 L383 258 L388 246 L392 241 L394 243 L394 254 L393 255 L391 280 L389 287 L389 297 L387 300 L384 293 L379 287 L380 282 L376 278 L364 269 L340 259 Z M163 220 L181 250 L187 258 L184 260 L169 265 L155 274 L144 285 L145 286 L150 281 L151 282 L144 291 L140 300 L139 299 L139 292 L138 291 L138 276 L137 275 L137 266 L136 265 L135 244 L136 243 L140 249 L147 277 L149 276 L149 269 L150 268 L150 262 L151 261 L151 255 L152 254 L152 248 L153 247 L155 233 Z M336 207 L363 219 L340 256 L339 255 L338 235 L337 234 L337 225 L336 224 L336 215 L335 214 L335 208 Z M191 207 L192 208 L192 212 L191 213 L191 223 L190 224 L189 248 L187 256 L164 219 L168 216 Z M300 192 L315 201 L333 207 L335 231 L336 232 L337 253 L338 254 L338 258 L337 259 L326 256 L316 255 L315 254 L309 254 L308 253 L290 252 L289 251 L267 251 L266 250 L271 243 Z M231 193 L232 192 L296 192 L297 194 L284 215 L266 248 L264 249 L236 200 Z M228 192 L231 195 L262 250 L261 251 L223 252 L222 253 L215 253 L214 254 L203 255 L191 258 L190 257 L190 247 L191 246 L191 232 L192 231 L194 207 L195 206 L203 205 L213 201 Z M296 192 L297 191 L298 192 L297 193 Z M136 239 L137 235 L149 222 L156 217 L163 214 L171 208 L179 204 L203 196 L220 188 L228 186 L250 175 L264 171 L281 176 L301 186 L308 188 L334 200 L347 204 L359 210 L381 224 L389 232 L393 238 L392 239 L388 239 L374 234 L368 222 L364 217 L338 205 L330 204 L320 201 L299 189 L230 189 L211 200 L200 204 L193 204 L164 216 L161 219 L153 233 L144 238 L137 240 Z M396 126 L397 127 L394 132 L391 142 L391 147 L389 152 L387 167 L385 172 L384 181 L379 200 L377 214 L375 218 L373 216 L371 216 L370 214 L373 206 L373 202 L378 187 L380 176 L382 172 L383 164 L387 152 L387 148 L389 143 L392 127 Z M404 125 L407 132 L407 147 L406 148 L406 155 L405 156 L404 169 L403 170 L402 182 L398 199 L398 204 L396 209 L393 229 L391 232 L377 218 L379 213 L380 203 L387 175 L394 137 L397 129 L401 125 Z M396 126 L397 125 L398 126 L397 127 Z M132 124 L137 128 L140 145 L155 203 L157 214 L154 217 L151 215 L150 203 L147 192 L146 182 L144 177 L144 172 L143 171 L140 152 L138 147 L136 135 L134 131 L135 129 L134 130 L131 126 Z M129 124 L130 123 L131 124 L130 125 Z M123 123 L126 123 L133 131 L138 151 L138 155 L139 156 L139 160 L145 186 L145 191 L148 202 L148 207 L150 213 L150 219 L137 232 L135 229 L133 217 L131 212 L131 208 L127 192 L127 187 L125 181 L121 148 L120 147 L120 130 Z M134 123 L135 122 L136 123 L135 124 Z M156 93 L160 97 L162 111 L163 112 L166 132 L168 138 L168 143 L171 153 L171 158 L172 159 L172 163 L173 164 L173 168 L174 169 L174 173 L180 201 L178 203 L172 205 L160 213 L157 208 L156 200 L150 179 L150 175 L137 123 L137 115 L143 105 Z M371 92 L382 103 L391 118 L390 119 L390 128 L389 129 L388 140 L378 180 L376 184 L374 195 L368 214 L352 204 L348 203 L346 201 L348 193 L348 188 L351 176 L351 171 L354 159 L354 154 L357 142 L357 137 L358 136 L360 119 L363 108 L363 103 L366 94 Z M367 93 L368 92 L369 93 L368 94 Z M368 92 L369 91 L370 92 L369 93 Z M164 90 L166 90 L168 92 L169 98 L171 102 L172 110 L175 118 L175 122 L187 170 L188 179 L190 184 L190 189 L192 194 L192 197 L190 199 L184 201 L181 199 L180 191 L174 165 L174 160 L172 155 L172 150 L168 134 L168 129 L166 123 L163 102 L161 95 L159 93 Z M362 86 L367 90 L363 96 L361 104 L361 109 L359 115 L359 120 L358 121 L357 132 L356 133 L354 149 L352 155 L351 166 L349 172 L348 183 L346 189 L346 194 L343 201 L335 198 L333 196 L333 194 L334 193 L334 188 L335 187 L338 168 L341 159 L341 155 L352 111 L354 107 L358 89 L360 86 Z M358 84 L339 155 L335 178 L332 188 L332 195 L331 196 L311 187 L301 184 L281 174 L265 169 L250 173 L228 184 L217 187 L195 197 L192 190 L189 171 L187 166 L187 162 L182 144 L182 140 L178 127 L178 123 L171 95 L169 91 L169 89 L182 78 L202 66 L205 65 L207 66 L203 74 L203 89 L204 90 L204 97 L205 98 L206 109 L207 110 L212 139 L214 144 L217 161 L220 168 L225 173 L231 175 L241 172 L248 168 L264 155 L266 155 L276 164 L291 173 L303 174 L307 172 L310 169 L314 160 L317 144 L320 135 L320 131 L322 126 L325 106 L326 105 L328 86 L329 85 L329 76 L327 68 L325 65 L327 64 L337 69 L351 78 Z M324 64 L325 63 L326 64 L325 65 Z M212 62 L225 57 L237 54 L249 53 L250 52 L263 52 L264 51 L293 53 L310 57 L321 62 L325 68 L327 76 L326 93 L325 94 L324 105 L320 121 L320 126 L317 135 L317 139 L315 144 L312 160 L309 167 L303 172 L291 171 L279 164 L265 153 L262 154 L246 167 L232 173 L227 172 L222 167 L219 161 L218 153 L216 148 L215 139 L210 119 L210 114 L208 109 L206 90 L205 89 L205 75 L206 71 Z M259 49 L258 50 L248 50 L247 51 L236 52 L228 55 L225 55 L213 59 L194 68 L180 77 L167 88 L160 89 L150 95 L143 102 L138 109 L135 115 L135 122 L134 123 L130 121 L123 121 L119 126 L118 130 L118 145 L119 146 L121 168 L122 169 L122 174 L123 175 L123 180 L124 181 L124 186 L126 192 L128 207 L135 235 L133 242 L133 253 L134 254 L134 263 L135 264 L137 298 L136 299 L134 298 L127 298 L122 303 L122 313 L129 341 L125 347 L125 356 L124 357 L125 397 L126 398 L125 478 L124 479 L123 493 L122 494 L119 514 L118 515 L118 529 L121 534 L129 535 L138 532 L146 527 L147 528 L154 546 L160 574 L168 598 L173 608 L183 623 L194 636 L206 647 L216 654 L228 660 L239 663 L275 664 L276 663 L286 663 L294 661 L309 654 L323 644 L341 625 L352 609 L360 592 L364 580 L371 548 L378 528 L380 527 L390 533 L397 535 L404 534 L407 530 L408 519 L407 518 L407 511 L406 510 L406 505 L405 504 L405 499 L404 498 L402 481 L401 480 L401 452 L400 451 L401 347 L397 341 L404 316 L405 305 L402 299 L400 298 L392 298 L391 299 L390 295 L391 294 L394 264 L395 263 L395 254 L396 253 L396 242 L393 234 L394 233 L397 214 L399 209 L404 176 L405 175 L405 170 L406 169 L408 147 L409 146 L409 132 L408 128 L405 124 L403 123 L399 123 L395 125 L394 124 L391 113 L385 104 L376 94 L366 86 L360 84 L353 77 L339 68 L321 59 L299 52 L288 51 L287 50 L277 50 L276 49 Z" fill="#eef3f4" fill-rule="evenodd"/>
</svg>
