<svg xmlns="http://www.w3.org/2000/svg" width="561" height="701" viewBox="0 0 561 701">
  <title>0012</title>
  <path d="M179 545 L180 543 L182 544 L192 544 L204 557 L212 562 L226 567 L236 568 L237 569 L252 569 L253 568 L266 567 L281 561 L287 557 L300 543 L301 544 L306 544 L307 543 L310 544 L297 565 L285 578 L277 584 L269 588 L259 591 L252 591 L251 592 L232 591 L221 588 L211 583 L204 578 L192 566 Z M297 543 L296 546 L287 555 L280 560 L271 564 L258 567 L233 567 L217 563 L205 556 L194 544 L199 542 L209 552 L213 553 L220 559 L225 559 L227 562 L229 561 L237 561 L238 562 L244 562 L247 564 L248 562 L252 562 L253 561 L264 562 L266 559 L271 558 L274 556 L277 556 L292 541 Z M308 540 L309 539 L312 540 L311 541 Z M177 540 L178 539 L181 540 L180 541 Z M175 539 L176 538 L177 539 L176 540 Z M244 532 L245 531 L253 531 L254 532 L253 533 L245 533 Z M202 542 L203 540 L221 531 L233 531 L245 535 L253 535 L265 531 L274 531 L280 533 L290 540 L289 543 L279 550 L276 554 L263 559 L257 559 L249 561 L234 560 L233 559 L229 560 L227 558 L221 557 L213 551 L211 551 Z M240 531 L241 530 L245 531 L244 532 Z M253 531 L267 526 L277 526 L288 531 L293 535 L301 539 L309 541 L308 542 L296 541 L282 532 L274 529 L265 529 L257 532 Z M241 530 L238 531 L233 529 L222 529 L218 530 L197 541 L193 542 L181 542 L180 541 L181 540 L189 540 L196 538 L210 530 L220 526 L232 526 Z M165 531 L168 536 L177 544 L189 565 L199 576 L211 585 L219 589 L233 593 L257 593 L269 590 L283 582 L297 568 L312 544 L324 533 L324 532 L322 532 L320 534 L311 538 L304 538 L296 535 L288 529 L277 524 L267 524 L253 529 L244 529 L231 524 L221 524 L190 538 L179 538 Z M191 476 L192 475 L194 476 L193 477 Z M288 477 L294 474 L300 474 L301 475 L299 478 L289 478 Z M194 473 L195 472 L200 472 L209 476 L208 477 L198 477 Z M90 471 L91 470 L92 471 L91 472 Z M398 470 L399 469 L400 470 L399 471 Z M282 436 L283 435 L284 436 L283 437 Z M210 435 L211 434 L212 436 L211 437 Z M283 435 L284 432 L289 427 L293 425 L300 425 L306 428 L305 429 L293 430 L284 436 Z M188 427 L194 424 L203 424 L208 428 L211 434 L210 435 L205 431 L198 428 L189 428 Z M300 423 L301 422 L303 423 L302 424 Z M181 421 L182 420 L183 421 L182 422 Z M316 390 L317 389 L318 390 L317 391 Z M273 386 L272 396 L271 397 L271 408 L270 409 L270 426 L271 427 L272 442 L274 445 L273 434 L272 433 L272 404 L273 403 L273 391 L274 390 L274 386 Z M220 386 L219 386 L221 395 L222 421 L221 422 L221 437 L219 445 L221 443 L222 434 L223 433 L223 399 Z M230 387 L231 389 L236 389 L247 385 L257 389 L264 389 L264 388 L255 387 L249 384 L244 384 L238 387 Z M312 373 L313 374 L313 380 L315 386 L317 388 L316 390 L313 388 L302 385 L309 379 Z M181 372 L184 379 L189 384 L177 387 L176 385 L179 380 Z M396 362 L392 366 L385 385 L380 393 L372 401 L360 407 L350 408 L349 409 L334 408 L322 403 L308 394 L303 393 L298 390 L296 390 L296 391 L301 394 L309 396 L321 404 L330 408 L341 409 L342 410 L350 410 L351 409 L360 408 L373 402 L381 394 L389 380 L390 375 L394 366 L396 364 Z M349 354 L350 355 L355 355 L363 360 L367 366 L368 375 L365 383 L359 389 L348 392 L340 390 L333 384 L330 377 L330 369 L332 364 L337 358 L340 356 L348 355 Z M100 355 L105 372 L112 386 L118 393 L130 401 L134 401 L137 403 L141 403 L142 404 L159 404 L167 402 L179 396 L187 393 L190 393 L196 390 L196 389 L194 389 L191 391 L182 393 L171 399 L162 402 L145 403 L144 402 L138 402 L134 400 L131 400 L124 396 L114 386 L107 372 L103 358 Z M391 354 L392 353 L393 354 L392 355 Z M380 352 L392 355 L386 361 L384 366 L382 359 L379 354 Z M343 353 L337 356 L331 362 L328 369 L328 377 L330 383 L337 390 L344 393 L354 393 L359 391 L366 385 L369 379 L369 375 L370 374 L369 367 L367 362 L361 356 L355 353 Z M378 352 L379 351 L380 352 L379 353 Z M139 351 L149 351 L154 353 L161 360 L163 365 L163 374 L160 380 L155 385 L148 388 L140 388 L133 385 L127 379 L125 373 L125 366 L127 360 L134 353 Z M377 351 L378 350 L379 351 L378 352 Z M139 349 L131 353 L125 360 L123 366 L123 374 L125 379 L131 386 L140 390 L147 390 L155 387 L161 382 L165 373 L165 366 L161 357 L154 351 L149 349 Z M116 345 L117 346 L111 359 L109 354 L103 347 L104 346 L111 347 Z M102 346 L103 345 L104 346 L103 347 Z M396 345 L397 344 L398 345 L397 346 Z M116 345 L117 344 L118 345 L117 346 Z M397 344 L398 343 L399 344 L398 345 Z M281 342 L282 343 L277 352 L277 357 L276 358 L277 371 L275 378 L272 381 L264 384 L260 384 L252 381 L247 375 L246 371 L246 353 L249 346 L270 345 Z M281 342 L282 341 L283 342 L282 343 Z M212 340 L224 344 L235 345 L236 346 L246 346 L247 347 L244 354 L244 370 L246 375 L241 381 L237 383 L231 384 L222 381 L218 377 L216 371 L216 351 L214 345 L211 341 Z M203 341 L208 358 L208 378 L204 394 L197 406 L189 414 L174 424 L164 434 L156 448 L152 460 L149 478 L148 479 L148 484 L147 485 L147 491 L146 492 L145 505 L144 506 L142 526 L141 527 L141 549 L146 565 L148 568 L150 568 L145 559 L143 551 L142 538 L143 537 L143 526 L144 525 L144 518 L146 511 L146 504 L147 503 L150 478 L151 477 L154 460 L158 448 L167 433 L176 425 L178 425 L183 422 L191 422 L192 421 L194 422 L192 424 L186 426 L179 432 L174 442 L173 446 L173 459 L177 469 L174 472 L171 480 L171 498 L170 499 L169 511 L158 533 L156 540 L156 556 L157 557 L158 556 L157 555 L158 538 L171 510 L172 495 L173 494 L173 479 L174 475 L177 471 L187 478 L191 478 L192 479 L211 479 L214 480 L225 489 L234 493 L243 494 L244 495 L254 495 L255 494 L256 495 L257 519 L253 524 L255 524 L259 519 L258 496 L257 495 L258 494 L264 493 L271 490 L284 480 L295 480 L296 481 L306 480 L314 476 L317 472 L321 479 L321 485 L322 486 L321 509 L322 510 L323 519 L328 529 L331 539 L331 556 L332 557 L333 553 L333 539 L324 515 L324 510 L323 509 L323 480 L322 476 L318 471 L322 460 L322 448 L320 441 L315 433 L310 428 L302 424 L306 422 L320 427 L333 439 L340 451 L346 470 L346 476 L347 477 L347 544 L346 545 L345 555 L339 568 L341 568 L347 554 L348 542 L349 541 L349 478 L348 477 L348 471 L347 470 L346 462 L339 445 L332 435 L323 427 L302 414 L291 402 L287 394 L285 386 L285 378 L284 377 L286 353 L284 356 L284 361 L283 362 L283 384 L286 396 L294 409 L310 421 L309 422 L294 423 L286 428 L280 436 L277 448 L278 448 L280 443 L284 438 L292 432 L303 430 L311 433 L315 436 L320 448 L320 460 L318 467 L315 472 L311 476 L306 478 L302 477 L303 474 L301 472 L294 472 L284 477 L275 485 L266 490 L260 492 L247 493 L246 492 L239 492 L231 490 L225 487 L211 475 L203 471 L196 470 L192 473 L191 476 L188 476 L182 473 L178 468 L175 460 L175 446 L179 436 L183 432 L189 429 L200 430 L206 433 L212 440 L215 446 L217 447 L214 435 L208 426 L199 421 L195 420 L186 420 L185 421 L182 420 L190 415 L200 405 L207 391 L209 383 L209 377 L210 376 L210 361 L209 360 L209 355 L207 347 L204 341 Z M342 339 L356 339 L365 342 L370 345 L376 351 L381 362 L381 377 L376 388 L364 399 L353 403 L341 403 L329 399 L321 392 L315 380 L315 374 L314 373 L315 372 L315 365 L319 355 L331 343 Z M210 340 L211 339 L212 340 L211 341 Z M98 338 L99 337 L100 338 L99 339 Z M202 337 L203 336 L204 337 L203 338 Z M97 337 L98 336 L99 337 L98 338 Z M128 338 L141 334 L153 335 L161 338 L171 346 L170 348 L171 347 L174 350 L179 361 L179 374 L174 386 L169 391 L160 396 L152 397 L151 398 L145 398 L130 393 L119 383 L114 372 L113 361 L115 353 L118 347 Z M401 338 L395 343 L390 344 L377 335 L371 332 L360 329 L345 330 L332 334 L320 342 L312 351 L308 359 L304 372 L296 383 L304 376 L309 361 L314 351 L324 341 L337 334 L345 332 L350 332 L351 331 L365 332 L377 337 L380 340 L390 346 L396 345 L397 347 L392 351 L386 352 L380 350 L369 342 L357 337 L348 336 L347 337 L337 338 L326 344 L319 351 L313 362 L309 376 L303 383 L298 385 L297 387 L308 388 L314 390 L329 401 L337 404 L351 405 L362 402 L369 398 L376 391 L380 385 L386 365 L388 361 L398 350 L401 343 Z M208 327 L209 326 L210 327 L209 328 Z M292 326 L293 325 L294 326 L293 327 Z M94 331 L95 337 L98 342 L98 344 L107 354 L109 358 L112 372 L117 383 L124 391 L130 395 L141 399 L156 399 L160 398 L181 387 L196 387 L195 385 L190 383 L185 377 L180 357 L175 348 L166 339 L159 335 L148 332 L135 333 L111 345 L106 345 L99 340 L100 338 L103 339 L109 338 L116 333 L131 327 L146 327 L160 331 L171 338 L179 347 L184 356 L188 374 L191 379 L194 382 L196 382 L190 374 L188 363 L182 348 L170 335 L164 331 L147 325 L131 325 L127 326 L106 337 L102 337 Z M402 296 L403 295 L404 296 L403 297 Z M403 295 L404 294 L405 295 L404 296 Z M404 294 L405 293 L406 294 L405 295 Z M421 292 L422 295 L420 299 L416 318 L412 330 L408 320 L407 314 L405 311 L412 305 Z M421 292 L422 291 L423 292 L422 293 Z M101 291 L106 295 L117 299 L142 300 L159 304 L168 308 L179 315 L193 327 L203 339 L204 337 L211 344 L214 351 L214 371 L217 379 L221 383 L227 385 L239 384 L247 378 L252 383 L257 385 L268 385 L275 381 L278 376 L278 372 L279 371 L278 357 L282 346 L289 339 L298 334 L315 320 L329 312 L337 309 L347 308 L348 307 L386 308 L393 306 L400 302 L402 303 L402 307 L408 322 L411 335 L407 336 L404 340 L401 372 L398 384 L390 401 L383 412 L376 421 L362 434 L363 435 L366 433 L377 422 L385 412 L393 399 L399 386 L402 375 L405 346 L407 343 L406 340 L408 338 L410 338 L413 341 L417 351 L417 355 L419 361 L419 368 L420 369 L420 403 L419 404 L419 411 L418 412 L418 417 L417 418 L413 439 L405 458 L384 488 L376 504 L370 520 L370 523 L371 523 L377 505 L384 491 L398 471 L399 473 L396 480 L392 496 L388 521 L382 542 L372 560 L353 580 L306 612 L287 630 L280 635 L270 640 L262 642 L244 643 L243 642 L236 642 L235 641 L227 640 L210 634 L198 628 L185 619 L165 600 L153 596 L137 587 L130 579 L125 568 L119 562 L110 550 L103 536 L99 523 L96 503 L95 502 L94 487 L91 475 L92 472 L94 474 L102 490 L106 500 L106 503 L108 506 L108 509 L111 516 L113 525 L114 525 L111 511 L101 484 L91 466 L84 456 L74 433 L69 416 L69 412 L66 401 L66 394 L65 393 L65 364 L68 351 L71 343 L76 335 L84 328 L89 332 L92 350 L93 351 L93 357 L94 358 L94 364 L96 369 L97 377 L103 394 L110 408 L116 417 L129 431 L133 433 L118 417 L112 408 L105 394 L97 369 L92 335 L90 330 L86 326 L87 320 L91 310 L98 299 L98 296 Z M104 291 L105 290 L106 291 L105 292 Z M101 287 L102 286 L103 287 L102 288 Z M86 283 L93 299 L95 300 L87 315 L86 314 L86 304 L85 303 L85 284 Z M397 283 L398 282 L399 283 L398 284 Z M88 279 L100 291 L98 296 L95 299 L87 281 Z M86 278 L87 277 L88 279 L87 280 Z M85 277 L86 276 L87 277 L86 278 Z M119 275 L120 274 L121 275 L120 276 Z M374 274 L375 273 L376 275 L375 276 Z M404 273 L386 291 L378 296 L375 296 L372 298 L366 298 L366 299 L374 299 L386 293 L397 283 L398 285 L395 290 L396 291 L402 280 Z M143 272 L144 271 L145 272 L144 273 Z M83 270 L84 269 L85 270 L84 271 Z M82 268 L83 267 L84 268 L83 269 Z M100 267 L101 266 L102 267 L101 268 Z M81 266 L82 265 L83 267 L82 268 Z M116 268 L119 279 L124 286 L120 277 L121 275 L133 287 L141 292 L149 294 L148 292 L149 289 L147 286 L147 283 L144 276 L145 273 L152 284 L166 298 L172 302 L175 302 L167 297 L155 285 L148 275 L143 265 L141 265 L141 270 L145 285 L148 290 L147 292 L145 292 L134 286 Z M396 264 L397 263 L398 264 L397 265 Z M80 264 L81 263 L82 265 L81 266 Z M122 259 L123 258 L124 259 L123 260 Z M439 254 L440 257 L430 278 L414 298 L410 305 L405 309 L402 300 L411 291 L419 278 L435 262 Z M440 251 L441 252 L440 255 L439 254 Z M440 250 L441 249 L442 251 L441 252 Z M441 247 L442 246 L443 248 L442 249 Z M442 244 L443 243 L444 245 L443 246 Z M430 241 L431 242 L430 245 L429 244 Z M443 240 L444 239 L445 241 L444 242 Z M71 239 L81 261 L80 264 L73 251 L70 242 Z M70 235 L71 236 L70 240 L69 239 Z M446 226 L447 225 L448 227 L447 228 Z M444 216 L445 215 L446 217 L445 218 Z M445 214 L446 213 L447 214 L446 215 Z M448 205 L449 206 L449 220 L448 221 L446 213 Z M91 199 L92 198 L93 200 L92 201 Z M431 196 L433 201 L434 210 L433 211 L432 225 L425 253 L425 257 L429 248 L432 245 L432 243 L436 236 L438 228 L444 217 L445 218 L445 230 L447 231 L446 237 L445 238 L444 234 L443 234 L441 244 L435 258 L428 267 L417 278 L414 283 L403 294 L401 294 L397 297 L392 298 L394 299 L397 297 L402 296 L403 297 L399 301 L393 304 L385 306 L375 306 L374 305 L347 305 L346 306 L341 306 L337 308 L331 309 L321 314 L297 332 L290 330 L296 325 L300 324 L305 320 L319 306 L328 294 L336 279 L337 274 L339 272 L340 273 L340 281 L339 282 L338 294 L336 299 L338 302 L345 300 L354 295 L374 275 L375 278 L368 293 L369 294 L377 277 L379 266 L377 267 L376 270 L370 278 L357 291 L344 299 L338 300 L337 299 L341 287 L341 269 L340 266 L338 266 L338 269 L335 277 L329 289 L321 301 L304 319 L295 326 L293 325 L303 314 L312 301 L317 291 L322 277 L322 273 L324 268 L324 261 L325 260 L325 230 L323 223 L324 222 L333 226 L343 236 L350 249 L355 266 L357 270 L360 270 L366 263 L371 253 L373 243 L380 228 L381 221 L383 217 L395 206 L398 198 L398 193 L400 192 L402 194 L405 202 L405 217 L395 257 L395 268 L396 268 L406 257 L410 246 L413 231 L427 209 L428 195 L429 194 Z M88 185 L90 193 L92 196 L91 199 L86 192 L86 188 Z M431 170 L432 169 L433 171 L432 172 Z M80 158 L81 157 L82 158 L81 159 Z M82 150 L84 153 L84 156 L82 158 L81 157 L81 151 Z M266 135 L267 134 L268 135 L267 136 Z M285 133 L286 132 L287 133 L286 134 Z M276 132 L277 131 L278 133 L277 134 Z M286 131 L287 130 L288 132 L287 133 Z M249 130 L250 129 L251 130 L250 131 Z M287 129 L288 128 L289 130 L288 131 Z M277 129 L278 128 L279 130 L278 131 Z M268 128 L269 129 L268 133 L267 132 Z M239 129 L240 128 L241 129 L240 130 Z M229 128 L230 127 L231 128 L230 129 Z M288 127 L289 126 L290 128 L289 129 Z M238 126 L239 125 L240 126 L239 127 Z M289 125 L290 124 L291 126 L290 127 Z M290 123 L291 122 L292 124 L291 125 Z M249 122 L250 123 L249 127 L248 126 Z M269 121 L270 122 L270 126 L269 127 L268 126 L268 122 Z M237 122 L238 121 L239 123 L238 124 Z M226 121 L227 120 L228 121 L227 122 Z M302 120 L303 119 L304 120 L303 121 Z M291 120 L292 119 L293 121 L292 122 Z M281 118 L282 122 L279 129 L278 125 Z M236 119 L237 118 L238 120 L237 121 Z M303 118 L304 117 L305 118 L304 119 Z M225 118 L226 117 L227 118 L226 119 Z M293 116 L294 117 L293 120 L292 119 Z M248 115 L249 116 L249 121 L248 122 L247 121 L247 116 Z M304 115 L305 114 L306 115 L305 116 Z M282 114 L283 115 L282 119 L281 118 Z M270 114 L271 115 L271 120 L270 121 L269 120 L269 115 Z M236 114 L237 115 L236 118 L235 117 Z M224 115 L225 114 L226 115 L225 116 Z M295 110 L296 114 L294 117 L293 114 Z M283 110 L284 111 L283 115 L282 114 Z M259 110 L260 111 L260 135 L259 136 L258 135 L258 111 Z M235 110 L236 111 L235 114 L234 113 Z M224 110 L225 111 L224 114 L223 113 Z M247 109 L248 110 L248 114 L247 115 L246 114 L246 110 Z M212 110 L213 109 L214 110 L213 111 Z M296 107 L297 108 L296 111 L295 110 Z M271 106 L272 107 L272 112 L271 113 L270 112 L270 107 Z M234 106 L235 107 L234 110 L233 109 Z M223 106 L224 107 L223 110 L222 109 Z M323 106 L324 105 L325 106 L324 107 Z M284 105 L285 106 L285 110 L284 111 L283 110 L283 106 Z M297 104 L298 105 L297 108 L296 107 Z M221 104 L222 103 L223 105 L222 106 Z M246 101 L247 102 L247 108 L246 109 L245 108 L245 102 Z M66 193 L67 192 L68 184 L73 172 L77 166 L91 153 L99 148 L113 142 L122 141 L133 138 L163 120 L189 107 L198 101 L200 105 L200 109 L202 115 L206 121 L216 131 L231 139 L241 142 L253 143 L254 144 L271 144 L272 143 L285 142 L293 139 L296 139 L310 131 L318 123 L322 116 L323 108 L325 106 L343 120 L377 143 L392 151 L409 157 L419 163 L440 184 L448 198 L448 201 L446 204 L444 213 L437 226 L434 237 L431 242 L430 241 L430 237 L433 230 L433 226 L435 220 L435 211 L436 210 L435 201 L431 192 L422 181 L423 180 L422 181 L418 177 L416 177 L427 189 L426 191 L427 192 L426 194 L426 205 L422 215 L415 223 L411 231 L405 255 L398 264 L397 263 L397 257 L407 216 L406 198 L401 190 L398 188 L396 193 L395 202 L393 206 L381 216 L378 228 L372 240 L369 253 L365 261 L359 268 L357 266 L350 244 L344 234 L336 226 L330 222 L321 219 L321 224 L323 230 L323 260 L322 261 L321 273 L317 286 L311 299 L298 317 L284 330 L284 331 L288 331 L293 334 L281 340 L268 343 L262 343 L261 344 L236 344 L235 343 L229 343 L224 341 L220 341 L204 334 L178 312 L159 302 L142 298 L117 297 L116 296 L112 296 L105 292 L107 290 L101 282 L102 281 L117 290 L123 292 L127 292 L127 291 L124 291 L112 286 L102 279 L96 273 L96 276 L102 286 L101 287 L100 286 L101 287 L99 288 L91 280 L86 273 L87 271 L84 266 L79 251 L75 245 L70 226 L71 223 L79 243 L87 257 L98 268 L104 270 L101 255 L98 248 L96 234 L94 229 L94 224 L88 205 L87 198 L88 197 L95 212 L98 231 L100 235 L101 241 L104 246 L100 233 L97 214 L92 202 L93 200 L98 207 L102 229 L110 247 L117 257 L123 263 L125 263 L124 235 L123 234 L123 225 L121 217 L121 198 L125 187 L133 178 L134 179 L133 196 L135 204 L143 219 L144 234 L145 235 L145 241 L147 249 L152 261 L156 267 L159 268 L163 258 L163 255 L167 243 L175 230 L180 225 L189 219 L195 217 L199 217 L200 219 L194 227 L189 240 L188 257 L187 258 L188 280 L194 302 L199 312 L209 326 L207 327 L197 318 L188 305 L180 286 L178 273 L177 272 L177 267 L176 266 L173 273 L172 291 L173 295 L174 295 L174 276 L175 275 L177 277 L177 281 L181 294 L191 313 L203 326 L209 330 L216 331 L208 322 L200 310 L194 297 L190 280 L189 258 L190 257 L191 240 L195 229 L202 220 L202 217 L200 215 L196 215 L187 218 L182 221 L171 232 L165 243 L158 266 L155 262 L149 249 L147 241 L147 236 L146 235 L145 218 L137 204 L135 196 L136 175 L133 176 L124 185 L119 198 L119 216 L120 217 L121 234 L122 235 L122 247 L123 248 L123 258 L122 259 L117 254 L106 235 L103 225 L101 210 L93 196 L90 187 L89 179 L88 179 L85 183 L84 195 L87 208 L91 219 L91 224 L95 238 L95 243 L101 262 L101 266 L100 267 L87 254 L75 230 L73 224 L73 219 L71 215 L71 203 L75 188 L81 179 L90 169 L79 179 L73 189 L70 198 L70 204 L69 205 L70 216 L68 220 L69 222 L69 230 L70 231 L70 235 L69 236 L67 231 L66 218 L65 217 Z M298 100 L299 101 L298 104 L297 103 Z M285 100 L286 101 L285 105 L284 104 Z M233 100 L234 101 L233 105 L232 104 Z M221 98 L222 99 L221 102 L220 101 Z M298 97 L299 96 L300 97 L299 98 Z M272 96 L273 97 L273 104 L272 105 L271 104 L271 97 Z M286 95 L287 96 L286 100 L285 99 Z M232 95 L233 96 L232 100 L231 99 Z M245 92 L246 93 L246 99 L245 100 L244 99 L244 93 Z M219 93 L220 92 L221 94 L220 95 Z M456 88 L460 91 L461 95 L460 96 L459 106 L457 111 L457 115 L454 124 L454 128 L452 133 L452 137 L448 153 L446 176 L445 177 L445 186 L444 187 L433 173 L436 167 L439 153 L438 153 L433 170 L432 168 L430 170 L423 164 L423 162 L426 156 L426 153 L435 126 L446 101 L448 94 L452 89 Z M287 88 L288 89 L288 93 L287 94 L286 93 L286 89 Z M231 88 L232 89 L231 93 L230 92 Z M258 85 L259 86 L259 105 L258 106 L257 105 L257 86 Z M244 84 L245 85 L244 89 L243 88 Z M273 81 L274 82 L274 95 L273 96 L272 95 L272 82 Z M61 80 L62 79 L63 80 L62 81 Z M311 79 L310 80 L310 89 L309 90 L306 107 L301 120 L293 134 L295 134 L305 121 L309 111 L312 98 L312 81 Z M75 78 L82 101 L85 116 L88 123 L94 149 L87 154 L84 152 L81 147 L79 131 L76 122 L76 128 L79 141 L79 161 L72 170 L71 169 L71 152 L70 151 L69 128 L68 127 L68 120 L67 119 L66 105 L65 104 L66 103 L64 98 L62 81 L63 80 L67 84 L69 92 L71 95 L71 81 L73 78 Z M211 78 L208 89 L210 106 L216 121 L220 125 L220 127 L222 127 L218 118 L213 101 L212 91 L211 90 L211 81 L212 80 Z M73 76 L74 75 L75 76 L74 77 Z M301 69 L300 69 L300 78 L299 79 L299 87 L298 88 L297 98 L295 102 L292 115 L282 136 L282 138 L290 131 L295 121 L299 109 L300 101 L301 100 L301 94 L302 93 L302 72 Z M64 62 L69 63 L72 66 L74 72 L74 75 L70 80 L70 85 L69 86 L66 80 L60 74 L60 66 Z M250 25 L256 23 L267 23 L272 25 L280 33 L303 62 L312 76 L320 93 L317 95 L317 103 L314 110 L314 113 L307 127 L309 126 L316 117 L319 109 L319 96 L320 95 L322 101 L322 108 L320 115 L316 122 L307 131 L296 137 L281 141 L275 141 L274 142 L272 141 L275 135 L279 134 L285 118 L288 98 L289 97 L289 89 L290 88 L290 68 L288 61 L287 62 L288 68 L286 75 L285 93 L279 119 L276 126 L274 135 L270 142 L266 142 L265 141 L268 140 L269 138 L271 125 L272 124 L273 111 L274 110 L274 102 L275 101 L276 70 L275 69 L275 57 L274 55 L273 55 L273 65 L272 66 L272 77 L271 78 L271 89 L270 90 L268 118 L267 119 L265 137 L263 142 L261 141 L261 129 L262 128 L262 124 L261 123 L261 94 L260 93 L260 77 L259 76 L259 65 L258 64 L258 54 L256 53 L256 62 L255 63 L256 122 L257 123 L257 140 L260 141 L259 142 L255 141 L252 130 L248 98 L247 97 L244 56 L243 56 L243 60 L242 61 L242 92 L243 93 L243 103 L244 104 L245 118 L246 119 L248 133 L251 140 L250 141 L246 140 L238 116 L238 112 L236 107 L234 92 L233 91 L231 62 L230 62 L229 66 L230 101 L231 102 L232 111 L239 133 L243 139 L240 140 L233 137 L236 134 L234 132 L228 118 L228 115 L226 111 L222 95 L221 78 L220 77 L221 69 L219 69 L218 79 L217 80 L218 98 L222 114 L230 132 L234 136 L233 137 L228 136 L215 128 L210 123 L203 112 L201 105 L201 98 L205 84 L210 74 L226 50 L238 36 Z M267 21 L256 21 L250 23 L240 31 L223 51 L213 65 L203 84 L200 93 L200 97 L194 102 L163 118 L132 137 L111 141 L97 148 L95 147 L92 131 L90 127 L89 120 L87 116 L86 109 L84 105 L75 69 L71 62 L67 60 L62 61 L58 66 L58 74 L60 80 L60 85 L61 86 L61 91 L64 104 L65 118 L66 119 L68 151 L69 152 L69 167 L70 168 L70 175 L67 181 L64 194 L64 203 L63 204 L64 225 L71 251 L81 270 L83 276 L83 302 L84 303 L84 313 L85 314 L85 324 L73 336 L65 355 L64 364 L63 365 L63 392 L64 393 L64 401 L65 402 L66 411 L71 427 L71 430 L79 450 L85 460 L90 475 L95 514 L96 515 L97 523 L100 530 L100 533 L108 550 L115 560 L124 570 L129 581 L138 590 L153 598 L165 602 L186 622 L196 629 L217 639 L230 643 L241 644 L242 645 L257 645 L258 644 L267 643 L273 641 L285 634 L309 612 L329 598 L340 592 L357 579 L372 563 L383 545 L388 529 L388 525 L392 510 L392 505 L394 500 L394 496 L398 480 L404 463 L413 445 L420 417 L421 402 L422 401 L422 370 L421 369 L420 356 L417 345 L413 338 L413 334 L424 293 L440 262 L448 237 L450 221 L451 220 L451 203 L447 193 L448 168 L449 167 L449 160 L450 159 L450 154 L451 153 L454 133 L463 97 L461 89 L456 86 L452 87 L446 94 L430 134 L421 163 L413 157 L404 153 L396 151 L377 141 L327 106 L323 102 L322 93 L317 83 L317 81 L306 63 L280 30 L275 25 Z" fill="#eef3f4" fill-rule="evenodd"/>
</svg>
