<svg xmlns="http://www.w3.org/2000/svg" width="1185" height="1327" viewBox="0 0 1185 1327">
  <title>0013</title>
  <path d="M782 897 L783 896 L784 898 L783 899 Z M783 895 L784 894 L785 896 L784 897 Z M784 893 L785 892 L786 894 L785 895 Z M785 891 L786 890 L787 891 L786 892 Z M405 891 L406 890 L409 896 L418 910 L433 929 L451 947 L471 961 L491 970 L517 977 L535 979 L536 980 L543 980 L544 981 L578 982 L579 983 L629 983 L630 982 L668 981 L669 980 L676 980 L677 979 L684 979 L685 978 L694 977 L714 971 L732 961 L747 948 L763 928 L782 898 L783 901 L775 921 L773 923 L773 925 L767 937 L755 956 L748 965 L729 984 L720 990 L697 1000 L685 1003 L674 1004 L673 1005 L667 1005 L659 1007 L650 1007 L649 1008 L637 1008 L636 1009 L597 1010 L596 1009 L560 1008 L559 1007 L550 1007 L549 1006 L527 1004 L526 1003 L508 1000 L489 994 L471 985 L457 975 L440 958 L425 937 L414 916 L414 914 L407 899 Z M404 889 L405 888 L406 890 L405 891 Z M403 887 L404 886 L405 888 L404 889 Z M428 861 L429 860 L494 860 L495 861 L507 862 L508 863 L528 866 L539 869 L544 869 L545 870 L552 870 L553 871 L560 871 L561 872 L572 872 L573 873 L622 873 L623 872 L637 872 L638 871 L654 870 L655 869 L668 868 L669 867 L693 864 L694 863 L702 863 L703 862 L755 862 L756 861 L766 861 L767 860 L772 860 L773 861 L744 875 L741 875 L732 879 L729 879 L725 881 L709 885 L682 889 L681 890 L674 890 L673 891 L643 893 L642 894 L627 894 L626 895 L573 895 L572 894 L557 894 L556 893 L546 893 L545 892 L525 890 L524 889 L509 887 L504 885 L500 885 L480 880 L452 871 Z M426 860 L427 859 L428 860 L427 861 Z M790 857 L791 856 L792 857 L791 858 Z M403 856 L406 855 L410 857 L413 857 L427 864 L432 865 L445 871 L472 880 L475 880 L479 882 L499 887 L503 887 L519 891 L524 891 L525 892 L530 892 L531 893 L536 893 L537 894 L545 894 L546 895 L554 895 L555 896 L568 896 L569 897 L628 897 L629 896 L643 896 L644 895 L665 894 L666 893 L694 890 L695 889 L699 889 L700 888 L704 888 L730 882 L764 869 L783 858 L787 857 L791 858 L781 875 L763 894 L744 907 L721 917 L700 923 L680 926 L679 927 L674 927 L673 928 L658 929 L657 930 L633 931 L632 932 L592 932 L591 931 L579 931 L578 930 L561 929 L560 928 L554 928 L553 927 L548 927 L547 926 L542 926 L541 925 L522 922 L502 917 L498 915 L495 915 L467 905 L452 898 L429 884 L408 864 Z M402 855 L403 854 L404 855 L403 856 Z M817 851 L821 861 L821 872 L822 876 L823 876 L822 857 L820 852 Z M391 851 L393 850 L398 852 L409 869 L417 877 L432 889 L453 901 L457 902 L466 907 L497 918 L500 918 L516 923 L520 923 L540 928 L557 930 L558 931 L566 931 L567 932 L574 932 L575 933 L586 933 L587 934 L637 934 L638 933 L660 932 L661 931 L675 930 L676 929 L681 929 L682 928 L702 925 L728 917 L747 908 L768 893 L784 875 L794 856 L802 852 L804 853 L800 858 L789 883 L763 925 L749 943 L736 956 L723 965 L705 973 L693 976 L682 977 L681 978 L660 979 L659 980 L642 980 L641 981 L574 981 L573 980 L540 979 L539 978 L519 976 L502 972 L480 964 L460 952 L449 943 L436 930 L420 910 L406 888 L399 874 L394 856 Z M383 843 L390 852 L398 876 L399 883 L403 892 L403 895 L411 915 L420 933 L437 958 L457 978 L470 987 L486 995 L503 1001 L525 1005 L526 1006 L531 1006 L532 1007 L556 1009 L557 1010 L568 1010 L569 1011 L589 1011 L590 1012 L640 1011 L641 1010 L652 1010 L653 1009 L675 1007 L707 999 L726 989 L735 982 L746 971 L762 950 L763 951 L762 949 L768 940 L781 913 L798 867 L807 851 L813 846 L812 845 L806 849 L785 856 L763 858 L762 859 L713 859 L712 860 L691 861 L684 863 L678 863 L677 864 L659 866 L658 867 L651 867 L650 868 L643 868 L642 869 L616 870 L615 871 L579 871 L578 870 L565 870 L564 869 L542 867 L541 866 L536 866 L510 860 L498 859 L497 858 L487 858 L486 857 L463 857 L462 858 L423 857 L422 856 L416 856 L396 850 Z M446 736 L454 744 L463 748 L470 748 L470 747 L460 745 Z M384 835 L395 824 L404 812 L419 784 L427 761 L430 748 L430 743 L431 742 L431 735 L433 729 L439 740 L446 748 L453 753 L464 758 L468 759 L485 759 L496 756 L517 756 L522 759 L554 771 L566 774 L581 775 L582 776 L595 776 L596 775 L605 775 L606 774 L615 773 L635 767 L656 758 L665 757 L666 756 L680 756 L695 760 L713 760 L727 755 L738 747 L749 733 L750 734 L751 747 L759 770 L769 788 L781 805 L793 819 L813 837 L810 839 L800 842 L786 843 L785 842 L777 842 L776 841 L767 840 L751 834 L748 834 L732 828 L724 827 L723 826 L718 826 L717 825 L694 825 L677 829 L652 839 L631 845 L615 847 L614 848 L604 848 L603 849 L583 849 L582 848 L572 848 L571 847 L554 844 L512 829 L504 828 L503 827 L494 827 L493 826 L472 828 L438 837 L428 838 L427 839 L420 839 L419 840 L405 840 L404 839 L393 838 Z M203 724 L204 725 L205 774 L206 775 L206 785 L207 786 L207 793 L208 794 L208 800 L211 812 L211 817 L218 845 L225 864 L225 867 L229 875 L232 885 L235 890 L236 895 L242 906 L242 908 L213 921 L204 924 L192 925 L185 922 L181 918 L178 912 L176 904 L176 886 L177 885 L179 862 L181 856 L182 844 L183 843 L184 832 L186 826 L186 820 L188 814 L191 790 L192 789 L193 778 L196 767 L197 755 L198 754 L198 749 L199 748 L199 743 L200 742 L200 737 Z M992 721 L993 722 L993 732 L994 733 L995 747 L996 748 L997 762 L998 763 L1000 788 L1002 796 L1003 813 L1004 814 L1004 821 L1005 822 L1005 831 L1006 832 L1007 848 L1008 849 L1008 856 L1009 857 L1010 877 L1011 878 L1011 891 L1012 892 L1011 913 L1008 920 L1001 925 L991 925 L983 923 L967 917 L964 917 L950 911 L956 901 L956 899 L963 885 L969 867 L971 864 L974 852 L977 845 L982 825 L982 821 L984 816 L987 794 L988 793 L988 787 L989 786 L989 777 L990 776 L990 765 L991 764 L991 722 Z M491 629 L491 630 L494 630 L500 632 L504 635 L506 635 L499 630 Z M356 868 L358 868 L358 857 L360 852 L364 848 L372 844 L381 837 L399 842 L426 842 L470 831 L475 831 L482 829 L498 829 L499 830 L509 831 L551 846 L563 849 L575 850 L576 851 L610 851 L611 850 L619 850 L645 844 L679 831 L692 828 L700 828 L701 827 L711 827 L712 828 L719 828 L720 829 L725 829 L733 831 L761 841 L780 845 L781 846 L780 847 L786 849 L798 847 L800 845 L815 839 L817 839 L823 843 L825 842 L807 829 L788 810 L777 796 L768 782 L757 759 L752 742 L752 736 L749 733 L757 713 L758 701 L759 700 L758 678 L755 666 L746 648 L733 634 L724 628 L711 623 L692 622 L684 624 L678 627 L667 638 L664 645 L664 649 L665 649 L666 644 L670 637 L679 629 L692 624 L705 624 L719 628 L729 634 L739 643 L747 654 L751 662 L756 680 L756 705 L755 706 L754 715 L750 726 L742 739 L733 748 L721 755 L710 758 L698 758 L687 755 L672 754 L671 753 L675 751 L683 749 L688 749 L689 748 L697 749 L695 747 L686 746 L665 752 L647 760 L624 768 L608 772 L590 773 L588 774 L587 773 L569 772 L549 767 L513 752 L494 746 L484 745 L478 747 L478 749 L486 747 L487 748 L492 748 L500 750 L504 752 L500 754 L493 754 L482 757 L472 757 L471 756 L463 755 L454 751 L442 740 L434 726 L429 707 L428 692 L429 691 L430 677 L435 662 L440 653 L450 641 L462 632 L470 628 L485 624 L494 624 L507 628 L518 638 L521 647 L523 649 L522 642 L519 636 L511 628 L500 623 L485 622 L469 626 L455 634 L445 643 L436 655 L430 668 L430 671 L427 679 L426 703 L427 704 L428 715 L430 719 L430 733 L429 734 L429 740 L428 741 L426 756 L418 781 L407 803 L396 819 L383 833 L359 850 L356 857 Z M910 586 L900 594 L888 600 L874 605 L840 613 L834 613 L829 615 L821 615 L813 617 L802 617 L801 618 L762 618 L761 617 L752 617 L751 616 L745 616 L744 615 L739 615 L731 613 L717 607 L710 601 L710 603 L716 608 L724 612 L747 618 L767 619 L768 620 L807 619 L808 618 L817 618 L818 617 L825 617 L826 616 L843 614 L876 606 L898 597 L907 591 L910 588 Z M703 586 L704 585 L705 586 L704 587 Z M478 584 L479 583 L480 584 L479 585 Z M272 584 L278 591 L284 595 L294 600 L308 605 L334 611 L339 611 L340 612 L345 612 L346 613 L363 615 L370 617 L386 618 L387 619 L419 620 L420 619 L440 618 L441 617 L454 615 L465 611 L470 608 L475 603 L474 602 L469 607 L456 613 L448 615 L443 615 L442 616 L437 616 L436 617 L426 617 L425 618 L384 617 L383 616 L367 615 L361 613 L343 611 L342 610 L310 604 L291 597 L289 595 L282 592 Z M701 580 L702 579 L703 581 L702 582 Z M478 574 L479 573 L480 575 L479 576 Z M477 571 L478 570 L479 572 L478 573 Z M476 569 L477 568 L478 570 L477 571 Z M906 557 L907 556 L911 557 L910 558 Z M290 572 L298 567 L324 539 L334 531 L344 525 L357 520 L361 520 L366 518 L380 517 L381 516 L398 516 L399 517 L407 517 L408 518 L421 520 L435 526 L449 536 L460 548 L467 558 L478 579 L479 583 L478 584 L461 575 L436 566 L419 563 L418 562 L413 562 L412 561 L394 560 L393 559 L349 559 L348 560 L339 560 L309 567 L295 573 L291 573 Z M905 560 L904 561 L893 562 L892 561 L887 561 L871 557 L853 556 L852 555 L814 555 L813 556 L802 556 L801 557 L780 559 L755 565 L730 574 L706 586 L704 585 L704 583 L717 559 L725 549 L739 536 L751 528 L761 523 L776 518 L784 517 L785 516 L791 516 L792 515 L818 514 L819 515 L834 516 L851 521 L871 533 L894 555 Z M477 566 L476 569 L468 555 L459 543 L449 533 L438 525 L425 519 L409 515 L404 515 L403 514 L377 514 L376 515 L369 515 L356 518 L339 525 L325 535 L297 565 L284 572 L280 572 L279 571 L289 567 L294 563 L305 551 L312 541 L326 527 L336 520 L348 514 L357 511 L371 509 L372 508 L383 508 L384 507 L402 508 L403 509 L413 510 L424 513 L441 521 L451 528 L460 537 L470 551 Z M702 578 L704 570 L712 554 L721 542 L735 529 L745 522 L764 513 L777 509 L793 507 L794 506 L824 506 L850 512 L870 523 L898 551 L907 556 L904 557 L894 552 L872 531 L862 524 L852 519 L840 515 L832 514 L831 513 L825 513 L824 512 L796 512 L795 513 L783 514 L771 517 L768 519 L765 519 L750 526 L739 533 L721 550 L709 567 L709 569 L707 571 L703 579 Z M271 570 L272 572 L277 574 L289 575 L290 576 L291 575 L296 575 L307 570 L313 569 L320 566 L334 564 L335 563 L352 562 L353 561 L388 561 L389 562 L402 562 L403 563 L410 563 L411 564 L427 566 L460 577 L480 588 L482 588 L484 585 L481 569 L475 555 L464 538 L451 525 L437 516 L428 512 L411 507 L397 506 L396 505 L377 505 L376 506 L363 507 L352 510 L335 518 L326 524 L310 540 L294 560 L282 568 Z M698 588 L701 591 L738 573 L759 566 L781 562 L782 561 L787 561 L788 560 L803 559 L804 558 L817 558 L818 557 L850 557 L851 558 L861 558 L862 559 L875 560 L891 564 L901 564 L917 559 L921 557 L921 555 L912 555 L902 551 L875 524 L865 517 L851 510 L834 505 L821 504 L820 503 L789 504 L788 505 L775 507 L760 512 L744 520 L731 529 L717 543 L708 556 L699 578 Z M661 475 L658 478 L652 490 L646 507 L642 524 L641 535 L640 536 L639 561 L638 562 L638 587 L639 588 L640 618 L641 619 L644 651 L645 652 L646 664 L647 665 L647 670 L648 671 L651 693 L652 694 L653 712 L654 713 L652 736 L651 740 L645 750 L647 750 L650 746 L654 736 L655 725 L656 724 L656 712 L655 711 L654 693 L653 692 L652 681 L651 680 L649 664 L648 663 L647 650 L645 643 L645 635 L644 634 L643 617 L642 616 L641 583 L640 582 L641 548 L642 547 L642 538 L643 537 L643 531 L644 530 L644 525 L645 524 L647 511 L651 501 L651 498 L661 477 Z M521 461 L528 476 L535 498 L538 511 L539 522 L540 523 L541 538 L542 539 L543 564 L544 565 L544 608 L543 609 L543 626 L542 627 L541 649 L540 650 L540 659 L539 660 L539 668 L538 669 L537 686 L536 687 L536 697 L535 698 L535 731 L536 732 L536 737 L538 745 L541 752 L548 760 L551 761 L545 755 L541 748 L537 731 L537 699 L538 698 L538 688 L539 687 L539 679 L540 678 L540 670 L541 669 L541 661 L542 660 L542 652 L543 651 L544 629 L545 628 L545 612 L546 611 L546 564 L545 563 L544 538 L543 537 L543 530 L542 529 L540 511 L538 506 L536 494 L528 471 L523 461 Z M663 451 L664 450 L665 451 L664 452 Z M664 450 L665 449 L666 450 L665 451 Z M519 447 L520 446 L521 447 L520 448 Z M287 447 L288 446 L289 447 L288 448 Z M518 446 L519 445 L520 446 L519 447 Z M288 446 L289 445 L290 446 L289 447 Z M517 445 L518 444 L519 445 L518 446 Z M516 444 L517 443 L518 444 L517 445 Z M289 444 L290 443 L291 444 L290 445 Z M665 449 L675 435 L689 421 L712 404 L729 395 L734 394 L737 392 L755 387 L768 386 L769 385 L791 385 L792 386 L800 386 L801 387 L813 388 L822 391 L830 392 L855 400 L871 408 L885 417 L898 429 L904 437 L902 438 L894 431 L874 419 L847 409 L831 405 L815 403 L814 402 L808 402 L807 401 L767 400 L766 401 L758 401 L757 402 L742 404 L717 412 L695 424 L681 435 L666 450 Z M654 465 L656 466 L665 454 L689 431 L706 420 L723 412 L739 407 L753 405 L754 404 L760 404 L761 403 L771 403 L772 402 L793 402 L794 403 L812 404 L813 405 L819 405 L820 406 L834 408 L849 413 L852 413 L868 419 L884 427 L902 440 L911 450 L913 450 L913 448 L911 443 L901 429 L886 415 L876 408 L871 406 L869 404 L870 403 L868 404 L859 399 L842 393 L809 385 L796 384 L795 383 L765 383 L764 384 L753 385 L733 391 L714 400 L703 407 L690 417 L672 435 L661 450 L655 461 Z M517 442 L516 444 L503 432 L488 421 L476 414 L458 406 L444 402 L428 400 L427 399 L395 399 L394 400 L388 400 L387 401 L381 401 L380 402 L366 404 L342 412 L339 411 L340 412 L333 415 L314 425 L303 433 L291 444 L290 443 L297 432 L313 416 L329 405 L345 397 L367 389 L388 384 L404 383 L405 382 L420 382 L421 383 L428 383 L429 384 L438 385 L450 389 L468 398 L490 414 Z M280 458 L281 461 L293 445 L309 431 L322 423 L344 413 L360 408 L377 404 L382 404 L383 403 L400 402 L401 401 L424 401 L425 402 L432 402 L433 403 L447 405 L464 411 L482 420 L502 434 L531 463 L533 463 L526 450 L509 429 L489 410 L474 399 L471 398 L469 396 L470 395 L468 396 L462 392 L446 385 L425 380 L399 380 L398 381 L391 381 L390 382 L381 383 L351 392 L331 401 L313 413 L300 425 L286 444 Z M942 366 L959 366 L960 367 L964 367 L968 369 L972 373 L974 380 L972 518 L971 519 L971 573 L970 574 L970 603 L969 604 L962 591 L950 573 L946 560 L946 555 L944 549 L944 542 L943 541 L942 515 L941 514 L941 367 Z M255 366 L256 367 L256 373 L255 374 L255 398 L256 399 L257 511 L256 512 L256 536 L255 537 L254 560 L253 561 L251 575 L248 581 L228 607 L227 606 L227 564 L226 563 L226 539 L225 538 L225 494 L224 493 L223 442 L222 441 L221 381 L224 372 L229 368 L238 367 L239 366 Z M580 326 L593 325 L600 327 L610 336 L612 340 L614 348 L612 360 L610 364 L602 372 L594 375 L579 374 L575 372 L566 362 L564 356 L564 344 L569 334 L573 330 Z M584 323 L575 326 L566 334 L562 343 L561 353 L565 365 L571 372 L581 377 L591 378 L603 374 L610 368 L615 359 L616 346 L612 335 L603 326 L595 323 Z M552 107 L582 106 L583 105 L627 105 L628 106 L642 106 L643 107 L664 108 L665 109 L679 110 L680 111 L685 111 L686 112 L691 112 L692 113 L712 116 L736 122 L767 132 L807 150 L833 166 L861 189 L878 207 L888 220 L901 240 L916 270 L928 304 L934 328 L936 346 L937 347 L937 354 L938 355 L938 364 L939 365 L938 366 L939 367 L939 525 L940 526 L940 537 L941 538 L942 552 L947 572 L953 583 L963 597 L971 614 L977 632 L981 648 L983 662 L984 663 L986 682 L987 683 L987 691 L988 692 L988 703 L989 704 L989 758 L988 759 L987 783 L986 784 L986 791 L985 792 L985 798 L982 810 L982 815 L979 824 L976 840 L971 854 L971 857 L957 893 L941 925 L925 952 L896 993 L865 1029 L835 1058 L804 1083 L778 1100 L750 1115 L710 1131 L676 1139 L663 1140 L662 1141 L653 1141 L652 1142 L643 1142 L642 1143 L621 1143 L620 1144 L556 1143 L555 1142 L544 1142 L543 1141 L535 1141 L534 1140 L515 1138 L487 1131 L448 1116 L427 1105 L404 1091 L367 1063 L350 1048 L321 1019 L306 1002 L283 972 L259 935 L259 933 L253 924 L241 900 L223 854 L223 851 L217 833 L217 829 L211 805 L209 784 L208 783 L208 773 L207 772 L207 746 L206 745 L207 690 L208 689 L208 678 L209 677 L209 669 L210 668 L212 652 L215 640 L222 622 L231 606 L251 581 L254 574 L255 564 L256 563 L257 544 L258 543 L258 526 L259 525 L258 361 L259 360 L261 336 L262 335 L264 320 L273 287 L281 267 L292 245 L304 226 L314 213 L338 188 L362 169 L386 154 L422 137 L441 131 L444 129 L454 127 L468 122 L480 120 L489 117 L493 117 L498 115 L513 113 L514 112 L542 109 L543 108 L551 108 Z M577 103 L576 104 L550 105 L549 106 L541 106 L540 107 L533 107 L532 108 L513 110 L512 111 L483 116 L471 120 L453 124 L429 132 L409 141 L407 141 L378 156 L354 172 L338 185 L316 207 L299 229 L284 255 L283 254 L284 256 L272 283 L262 318 L262 322 L259 333 L259 339 L258 340 L256 363 L255 364 L235 364 L226 367 L222 371 L219 378 L219 420 L220 421 L220 449 L221 450 L221 472 L222 473 L222 495 L223 496 L223 541 L224 542 L224 567 L225 568 L225 608 L224 609 L224 615 L220 621 L213 639 L209 660 L208 661 L207 675 L206 676 L206 686 L205 687 L205 701 L204 702 L202 717 L200 723 L200 728 L199 729 L199 734 L198 735 L198 740 L195 753 L195 759 L194 760 L193 771 L192 772 L190 788 L188 794 L188 800 L187 801 L187 806 L184 818 L184 823 L183 824 L183 829 L182 830 L182 835 L179 848 L179 854 L176 867 L175 883 L174 884 L174 905 L178 918 L185 925 L191 927 L205 926 L224 919 L243 910 L245 912 L254 931 L276 966 L295 992 L316 1017 L335 1037 L367 1066 L397 1089 L431 1110 L449 1119 L451 1119 L458 1123 L463 1124 L471 1128 L493 1135 L514 1139 L515 1140 L533 1142 L534 1143 L555 1144 L556 1145 L622 1146 L623 1145 L640 1145 L641 1144 L652 1144 L653 1143 L670 1142 L671 1141 L682 1140 L683 1139 L704 1135 L711 1132 L720 1130 L745 1119 L747 1119 L786 1098 L808 1083 L833 1063 L881 1015 L899 993 L905 984 L908 981 L909 982 L908 980 L924 958 L925 959 L924 957 L941 930 L949 914 L985 926 L1002 927 L1006 925 L1010 921 L1013 914 L1013 910 L1014 909 L1014 889 L1013 888 L1013 876 L1012 875 L1012 866 L1011 865 L1011 856 L1010 855 L1010 847 L1009 846 L1009 837 L1008 836 L1008 828 L1007 827 L1007 820 L1006 819 L1005 802 L1004 801 L1001 770 L1000 769 L999 755 L998 754 L998 746 L997 745 L995 723 L994 722 L992 702 L991 701 L990 689 L989 688 L988 674 L987 673 L986 662 L985 661 L985 657 L984 656 L980 635 L973 615 L973 606 L972 605 L973 531 L974 530 L974 479 L975 478 L975 437 L976 436 L976 379 L974 372 L968 366 L961 364 L942 364 L941 363 L937 332 L931 306 L924 284 L916 264 L907 246 L897 229 L885 212 L874 199 L858 183 L841 169 L822 156 L790 139 L788 139 L768 130 L744 122 L726 118 L722 116 L718 116 L713 114 L709 114 L693 110 L675 108 L674 107 L667 107 L666 106 L659 106 L658 105 L633 104 L632 103 Z" fill="#eef3f4" fill-rule="evenodd"/>
</svg>
