<svg xmlns="http://www.w3.org/2000/svg" width="1086" height="1448" viewBox="0 0 1086 1448">
  <title>0016</title>
  <path d="M637 1190 L621 1203 L610 1210 L590 1219 L567 1225 L547 1226 L546 1227 L524 1226 L523 1225 L516 1225 L515 1224 L498 1221 L485 1216 L485 1218 L507 1225 L517 1226 L518 1227 L525 1227 L526 1228 L558 1228 L559 1227 L571 1226 L592 1220 L608 1213 L625 1202 Z M422 1168 L431 1182 L445 1196 L459 1206 L475 1214 L478 1214 L478 1213 L462 1206 L446 1195 L433 1182 L425 1171 L424 1168 Z M436 1158 L443 1169 L457 1183 L467 1190 L489 1199 L502 1202 L517 1203 L518 1204 L560 1204 L561 1203 L568 1203 L569 1202 L579 1201 L583 1199 L589 1198 L602 1192 L616 1182 L627 1170 L633 1161 L631 1161 L626 1169 L611 1184 L604 1189 L592 1195 L570 1201 L549 1202 L548 1203 L531 1203 L530 1202 L515 1202 L514 1201 L501 1200 L488 1197 L477 1193 L458 1182 L444 1168 L438 1159 Z M576 1142 L577 1168 L573 1171 L563 1171 L562 1172 L540 1172 L538 1170 L538 1144 L540 1142 L569 1142 L570 1141 L575 1141 Z M494 1141 L495 1140 L503 1140 L504 1141 L531 1142 L532 1143 L531 1171 L530 1172 L519 1172 L518 1171 L506 1171 L505 1170 L495 1169 L493 1167 Z M621 1138 L607 1153 L600 1158 L590 1163 L584 1164 L580 1166 L579 1165 L579 1153 L578 1152 L578 1142 L579 1141 L608 1139 L609 1138 L616 1138 L617 1137 Z M760 1136 L761 1137 L760 1140 L759 1139 Z M760 1135 L761 1134 L762 1135 L761 1136 Z M447 1135 L451 1134 L464 1137 L491 1139 L492 1140 L491 1164 L490 1165 L477 1161 L466 1155 L451 1141 Z M637 1133 L638 1132 L639 1133 L638 1134 Z M429 1130 L431 1129 L443 1133 L454 1148 L468 1159 L476 1163 L491 1167 L494 1171 L497 1172 L515 1173 L516 1174 L531 1174 L532 1173 L538 1173 L539 1174 L565 1174 L566 1173 L574 1173 L578 1171 L579 1168 L589 1166 L603 1159 L620 1143 L625 1136 L631 1135 L635 1133 L637 1133 L638 1135 L623 1160 L610 1173 L603 1178 L591 1184 L569 1190 L548 1191 L547 1192 L529 1192 L528 1191 L516 1191 L515 1190 L507 1190 L506 1189 L496 1188 L476 1182 L464 1176 L457 1171 L445 1159 L438 1149 Z M319 1130 L320 1129 L321 1131 L320 1132 Z M458 1133 L460 1131 L468 1130 L484 1124 L497 1121 L504 1121 L516 1124 L529 1131 L533 1132 L539 1132 L560 1123 L571 1122 L572 1123 L581 1124 L592 1129 L614 1135 L613 1136 L606 1136 L605 1137 L582 1138 L581 1139 L565 1139 L564 1140 L521 1140 L520 1139 L506 1139 L505 1138 L495 1138 L494 1137 L485 1137 L484 1136 L476 1136 L475 1135 L466 1135 Z M419 1122 L420 1124 L427 1129 L433 1144 L444 1161 L454 1171 L462 1177 L473 1183 L496 1190 L501 1190 L502 1191 L507 1191 L508 1192 L528 1193 L529 1194 L550 1194 L551 1193 L561 1193 L562 1192 L574 1191 L591 1186 L605 1179 L612 1174 L623 1163 L635 1145 L640 1134 L644 1130 L650 1127 L650 1125 L648 1125 L642 1129 L629 1133 L613 1133 L600 1130 L589 1125 L576 1121 L561 1121 L554 1123 L539 1130 L532 1130 L513 1121 L498 1119 L497 1120 L488 1121 L472 1127 L459 1130 L440 1130 L430 1127 L421 1121 Z M660 1112 L666 1123 L666 1139 L664 1144 L665 1145 L668 1138 L668 1125 L664 1115 Z M413 1105 L411 1105 L409 1107 L403 1120 L403 1133 L405 1139 L407 1139 L405 1135 L405 1119 L409 1110 Z M573 1074 L581 1069 L585 1069 L586 1071 L589 1072 L580 1075 L576 1074 L574 1075 Z M484 1070 L487 1069 L488 1067 L492 1067 L500 1072 L499 1073 L492 1073 Z M374 1068 L369 1071 L357 1083 L354 1088 L348 1104 L347 1122 L348 1123 L348 1130 L349 1131 L349 1136 L352 1148 L362 1174 L374 1196 L385 1212 L392 1219 L375 1195 L362 1170 L353 1145 L350 1132 L350 1126 L349 1125 L349 1110 L353 1094 L360 1082 L369 1073 L376 1069 L376 1068 Z M788 1061 L789 1132 L790 1133 L789 1202 L788 1203 L788 1218 L787 1219 L785 1243 L784 1244 L782 1257 L777 1270 L781 1265 L786 1247 L786 1242 L788 1235 L788 1227 L789 1226 L789 1217 L790 1216 L790 1200 L791 1199 L791 1152 L792 1149 L791 1148 L791 1096 L790 1095 L790 1062 Z M299 1061 L297 1062 L296 1088 L295 1089 L294 1109 L293 1110 L290 1148 L289 1149 L287 1188 L286 1189 L285 1232 L286 1233 L287 1248 L290 1253 L291 1252 L289 1248 L288 1234 L287 1233 L287 1209 L288 1208 L288 1188 L289 1187 L290 1160 L291 1159 L292 1137 L293 1136 L293 1127 L294 1126 L295 1108 L296 1107 L298 1074 L299 1073 Z M697 1060 L695 1060 L695 1061 L697 1061 L710 1068 L724 1082 L727 1087 L730 1096 L731 1112 L730 1113 L730 1120 L726 1137 L715 1166 L697 1200 L683 1220 L687 1217 L694 1207 L715 1170 L715 1168 L725 1146 L732 1119 L732 1097 L726 1082 L714 1069 Z M340 1042 L334 1049 L326 1068 L325 1079 L324 1080 L324 1096 L325 1097 L325 1104 L326 1105 L326 1110 L329 1122 L336 1142 L341 1152 L342 1152 L331 1123 L327 1106 L327 1100 L326 1099 L326 1078 L327 1077 L327 1072 L330 1061 L336 1049 L341 1043 Z M739 1038 L750 1050 L754 1058 L756 1066 L756 1089 L755 1090 L752 1107 L746 1123 L746 1125 L747 1125 L754 1106 L757 1093 L757 1088 L758 1087 L758 1067 L755 1056 L751 1048 L743 1040 Z M605 1022 L606 1021 L607 1022 L606 1023 Z M604 1021 L605 1020 L606 1021 L605 1022 Z M468 1016 L469 1015 L470 1016 L469 1017 Z M469 1015 L470 1014 L471 1015 L470 1016 Z M391 1117 L391 1125 L394 1112 L399 1102 L405 1094 L426 1075 L447 1060 L459 1048 L462 1043 L463 1044 L463 1049 L467 1059 L476 1069 L484 1073 L492 1074 L493 1075 L503 1074 L515 1083 L521 1086 L529 1088 L547 1088 L559 1084 L570 1076 L580 1077 L581 1076 L589 1075 L595 1072 L601 1067 L607 1057 L608 1051 L610 1050 L619 1063 L627 1071 L658 1094 L669 1104 L677 1115 L680 1123 L680 1127 L681 1130 L682 1130 L682 1124 L680 1118 L673 1106 L663 1096 L631 1072 L615 1055 L609 1043 L609 1033 L606 1025 L607 1022 L612 1027 L616 1033 L620 1043 L621 1043 L620 1038 L612 1024 L604 1016 L595 1011 L587 1011 L584 1013 L584 1015 L587 1013 L593 1013 L597 1015 L604 1024 L607 1034 L607 1049 L602 1062 L594 1070 L590 1072 L588 1071 L587 1067 L581 1067 L554 1084 L548 1086 L540 1086 L539 1087 L528 1086 L519 1083 L511 1078 L502 1070 L492 1065 L486 1065 L485 1069 L482 1070 L477 1067 L470 1060 L465 1048 L465 1032 L468 1023 L473 1015 L478 1011 L481 1010 L486 1010 L489 1012 L491 1012 L491 1011 L487 1008 L479 1008 L470 1012 L457 1024 L449 1037 L451 1037 L459 1024 L468 1016 L469 1018 L467 1020 L464 1027 L463 1038 L458 1046 L445 1059 L418 1079 L405 1091 L397 1102 Z M751 1002 L761 1012 L769 1027 L773 1044 L773 1052 L774 1053 L773 1062 L774 1063 L775 1059 L774 1041 L769 1023 L763 1012 L755 1004 Z M336 1002 L331 1004 L324 1011 L316 1025 L311 1043 L310 1064 L311 1064 L312 1045 L317 1027 L326 1011 Z M428 993 L417 996 L400 997 L384 1001 L373 1006 L360 1017 L362 1017 L367 1012 L383 1003 L389 1002 L393 1000 L404 999 L405 998 L420 997 L427 995 Z M632 986 L637 991 L651 998 L666 1003 L677 1005 L697 1012 L714 1022 L722 1029 L711 1018 L694 1009 L653 997 Z M607 949 L608 951 L625 958 L638 960 L639 961 L647 961 L648 962 L679 961 L680 960 L691 959 L696 957 L711 955 L712 954 L718 954 L719 953 L736 954 L745 957 L751 961 L748 957 L742 954 L735 952 L729 952 L728 951 L713 952 L692 957 L687 957 L680 959 L672 959 L671 960 L646 960 L645 959 L638 959 L637 958 L632 958 L624 956 Z M338 956 L340 956 L348 950 L358 947 L373 948 L402 956 L415 957 L416 958 L445 957 L446 956 L451 956 L468 951 L470 949 L467 949 L452 954 L441 955 L440 956 L414 956 L413 955 L401 954 L377 947 L360 945 L359 946 L351 947 L343 951 Z M734 928 L735 927 L736 928 L735 929 Z M733 927 L734 926 L735 927 L734 928 Z M732 926 L733 925 L734 926 L733 927 Z M599 937 L605 937 L606 936 L611 936 L622 933 L646 930 L647 929 L679 928 L680 929 L687 929 L688 930 L697 931 L701 933 L707 934 L735 947 L734 945 L727 941 L725 941 L709 933 L691 928 L676 927 L675 926 L642 928 L641 929 L636 929 L635 930 L624 931 L614 934 L600 935 Z M595 924 L596 923 L597 924 L596 925 Z M349 924 L350 923 L351 924 L350 925 Z M350 923 L351 922 L352 923 L351 924 Z M352 941 L385 928 L398 925 L403 925 L404 924 L436 924 L437 925 L445 925 L446 926 L466 929 L479 933 L482 933 L482 932 L468 928 L464 928 L448 924 L443 924 L442 923 L408 922 L407 923 L400 923 L399 924 L390 925 L374 930 L354 939 L352 939 Z M565 921 L563 922 L562 938 L561 939 L561 970 L562 971 L561 1038 L560 1039 L559 1052 L556 1061 L559 1058 L561 1050 L561 1045 L562 1044 L562 1036 L563 1035 L563 1016 L564 1015 L563 932 L564 931 Z M523 920 L522 921 L523 925 L523 959 L522 960 L522 971 L521 972 L520 992 L519 993 L519 1002 L518 1003 L518 1014 L517 1015 L517 1051 L518 1052 L518 1057 L520 1061 L521 1061 L519 1053 L519 1044 L518 1043 L518 1028 L519 1027 L519 1012 L520 1011 L520 1001 L521 1000 L523 970 L524 969 L524 957 L525 956 L525 927 Z M482 920 L483 919 L484 920 L483 921 Z M481 918 L482 917 L483 918 L482 919 Z M602 914 L604 918 L597 924 L596 922 Z M722 912 L733 925 L732 926 L724 921 L720 917 Z M479 912 L482 916 L481 918 L477 914 Z M363 909 L365 914 L352 923 L351 922 Z M501 906 L504 918 L503 923 L505 923 L505 913 L502 906 Z M585 905 L583 906 L579 916 L579 921 L580 921 L581 915 Z M416 896 L417 895 L418 896 L417 897 Z M829 888 L830 889 L829 927 L828 928 L828 937 L827 938 L827 948 L826 949 L824 975 L823 976 L823 983 L822 984 L819 1014 L818 1015 L814 1000 L813 978 L814 977 L815 958 L816 957 L819 933 L821 928 L821 924 L822 923 L822 919 L823 918 L823 914 Z M263 886 L264 887 L264 893 L265 894 L265 899 L266 900 L266 905 L269 918 L269 924 L270 925 L270 932 L271 933 L273 956 L274 957 L274 972 L275 973 L273 992 L270 1005 L268 1009 L267 1008 L266 986 L265 985 L263 937 L262 936 L262 918 L261 917 L261 888 Z M640 885 L641 886 L639 890 L639 894 L641 899 L644 902 L628 907 L625 904 L624 901 L625 893 L627 891 Z M449 883 L456 886 L462 891 L461 892 L461 898 L458 902 L455 902 L444 898 L448 891 L448 884 Z M672 882 L682 884 L690 888 L690 896 L686 903 L671 901 L670 900 L673 895 L673 887 L671 884 Z M447 883 L448 882 L449 883 L448 884 Z M589 930 L591 932 L600 923 L610 916 L630 907 L643 904 L649 904 L650 903 L678 903 L679 904 L685 904 L689 906 L692 906 L709 913 L721 920 L749 943 L757 948 L757 946 L752 943 L740 931 L731 919 L713 900 L699 890 L687 884 L673 880 L652 880 L637 884 L629 888 L617 896 L602 911 Z M634 879 L623 884 L616 889 L602 903 L600 908 L617 890 L628 883 L634 881 Z M490 929 L481 910 L477 904 L463 889 L456 884 L439 877 L421 876 L420 877 L415 877 L412 879 L416 879 L417 880 L414 886 L415 892 L417 895 L415 897 L408 897 L402 899 L399 895 L399 886 L402 882 L408 880 L408 879 L402 880 L389 886 L366 903 L333 940 L335 940 L356 922 L369 913 L385 905 L401 900 L413 899 L414 898 L440 899 L460 905 L472 912 L484 924 L488 931 L490 931 Z M451 875 L452 877 L459 880 L466 885 L477 896 L475 892 L466 883 L459 878 Z M643 877 L651 875 L673 875 L674 876 L680 876 L677 874 L672 874 L671 873 L653 873 L652 874 L644 875 Z M409 872 L409 874 L414 872 L431 871 L444 874 L444 872 L437 870 L416 870 Z M598 857 L596 857 L591 862 L584 872 L580 880 L576 893 L576 899 L575 900 L576 902 L577 902 L577 897 L581 882 L589 867 Z M703 856 L704 858 L714 861 L728 869 L737 877 L745 887 L747 887 L742 880 L729 868 L713 859 Z M586 923 L587 923 L591 908 L600 891 L615 875 L633 864 L644 860 L648 860 L654 858 L679 858 L697 863 L705 867 L718 876 L731 889 L741 902 L750 916 L751 915 L733 889 L719 875 L708 867 L694 860 L683 857 L678 857 L677 856 L656 856 L636 861 L631 864 L629 864 L615 873 L601 887 L596 894 L590 906 L586 918 Z M492 854 L500 865 L506 877 L510 892 L510 905 L512 905 L512 893 L509 880 L503 867 L494 855 Z M387 854 L379 856 L366 862 L356 869 L343 883 L345 883 L356 871 L364 865 L378 858 L386 856 Z M750 853 L751 852 L752 853 L751 854 Z M345 903 L345 904 L347 903 L354 892 L371 874 L384 865 L396 859 L409 855 L436 854 L449 857 L462 863 L477 876 L482 883 L488 895 L492 909 L493 924 L495 923 L494 910 L491 898 L484 883 L479 876 L469 866 L458 859 L445 854 L434 853 L433 852 L418 852 L417 853 L406 854 L394 858 L384 863 L370 873 L357 886 Z M518 836 L519 838 L523 840 L543 845 L558 845 L559 844 L565 844 L580 840 L580 838 L575 840 L567 842 L562 842 L561 843 L541 843 L540 842 L531 841 Z M507 794 L507 796 L519 802 L530 806 L543 809 L570 810 L571 809 L584 808 L593 805 L593 804 L591 804 L586 806 L574 807 L573 808 L549 808 L548 807 L542 807 L529 804 L516 799 Z M597 832 L600 823 L606 814 L616 805 L628 798 L639 794 L647 793 L648 792 L654 792 L655 791 L665 791 L666 790 L686 791 L704 796 L714 801 L721 806 L735 820 L742 830 L749 844 L751 852 L750 853 L730 832 L722 826 L711 820 L692 815 L665 815 L664 816 L651 817 L635 821 L618 828 L599 841 L597 840 Z M594 835 L595 841 L597 843 L600 843 L619 830 L636 823 L653 819 L659 819 L660 818 L690 817 L691 818 L702 819 L711 822 L720 827 L733 837 L752 858 L754 857 L754 852 L751 843 L744 829 L732 813 L722 804 L713 798 L702 793 L687 789 L679 789 L678 788 L652 789 L651 790 L642 791 L627 796 L615 803 L605 812 L596 827 Z M502 828 L502 838 L499 840 L479 825 L460 816 L436 810 L408 809 L407 810 L401 810 L393 812 L377 819 L359 832 L340 851 L339 850 L343 840 L351 827 L360 816 L370 807 L380 800 L394 793 L416 787 L441 786 L442 787 L455 788 L468 792 L480 798 L492 808 L497 815 Z M504 827 L501 817 L495 808 L484 798 L469 790 L456 786 L445 785 L444 784 L421 784 L420 785 L414 785 L393 791 L379 798 L363 810 L348 827 L340 841 L336 851 L336 854 L337 855 L340 854 L354 839 L374 823 L385 817 L402 812 L426 811 L427 812 L435 812 L436 813 L450 815 L464 820 L478 827 L498 842 L502 842 L504 839 Z M500 773 L502 775 L517 780 L530 783 L541 784 L542 785 L550 785 L551 786 L581 786 L582 785 L590 785 L591 784 L597 784 L610 781 L610 780 L605 780 L599 782 L585 783 L584 784 L549 784 L548 783 L541 783 L540 782 L524 780 L503 773 Z M638 772 L638 773 L640 773 L657 767 L671 765 L672 764 L693 763 L694 764 L701 764 L713 767 L725 773 L734 781 L736 781 L729 774 L723 770 L712 765 L699 762 L675 762 L674 763 L668 763 L651 767 Z M283 759 L284 762 L282 767 L281 766 L281 762 Z M284 756 L285 757 L284 760 L283 759 Z M367 781 L368 782 L380 771 L394 763 L410 758 L415 758 L416 757 L437 757 L438 758 L449 759 L472 767 L481 772 L482 771 L469 764 L452 758 L448 758 L442 756 L435 756 L434 755 L419 755 L418 756 L407 757 L395 761 L380 769 Z M796 744 L807 755 L815 767 L813 815 L812 816 L812 835 L811 836 L811 855 L810 856 L809 897 L808 898 L807 916 L804 925 L802 921 L802 910 L801 909 L801 890 L800 889 L798 834 L797 833 L797 777 L796 776 L796 754 L795 753 L795 745 Z M632 751 L632 752 L635 752 L642 749 L645 749 L661 744 L676 743 L677 742 L687 742 L688 743 L701 744 L711 747 L727 756 L726 754 L712 746 L694 741 L671 741 L670 742 L664 742 L643 747 Z M307 734 L308 737 L307 738 L304 766 L303 767 L303 778 L302 779 L302 789 L301 790 L299 825 L298 826 L297 843 L296 844 L294 869 L293 870 L291 911 L289 918 L287 914 L287 907 L286 906 L286 882 L285 881 L285 766 L286 765 L286 761 L292 751 Z M372 756 L393 743 L403 739 L415 736 L420 736 L421 735 L453 736 L477 742 L481 742 L497 747 L510 749 L515 751 L537 754 L538 755 L555 756 L556 757 L596 757 L597 756 L612 755 L619 752 L609 753 L608 754 L600 754 L599 755 L583 755 L582 756 L553 755 L552 754 L536 753 L535 752 L530 752 L529 751 L509 748 L500 745 L496 745 L456 735 L431 733 L430 734 L413 735 L396 740 L384 746 L378 750 Z M724 731 L719 727 L709 722 L692 718 L670 718 L669 719 L663 719 L617 730 L599 732 L598 733 L588 733 L587 734 L551 734 L550 733 L540 733 L539 732 L525 731 L510 727 L509 728 L529 733 L536 733 L537 734 L544 734 L545 735 L565 735 L566 736 L571 736 L572 735 L575 736 L576 735 L593 735 L594 734 L608 733 L609 732 L619 731 L624 729 L628 729 L637 726 L641 726 L645 724 L649 724 L665 720 L689 719 L690 720 L696 720 L711 724 L722 731 Z M375 732 L386 722 L400 714 L410 711 L424 710 L425 709 L449 711 L470 716 L494 724 L496 724 L496 723 L475 716 L447 709 L419 708 L418 709 L408 710 L391 717 L381 724 L375 730 Z M814 706 L814 719 L815 721 L817 721 L816 720 L816 707 Z M291 700 L289 700 L289 706 L288 707 L287 715 L289 715 L290 712 Z M637 698 L636 699 L629 699 L595 708 L578 710 L577 711 L570 711 L569 712 L530 712 L529 711 L522 711 L521 710 L505 708 L487 702 L486 703 L499 708 L512 711 L517 711 L518 712 L537 713 L538 714 L561 714 L562 713 L574 713 L575 712 L593 710 L626 701 L638 700 Z M299 680 L302 684 L305 684 L308 680 L309 681 L308 686 L304 691 L301 691 L298 685 L298 681 Z M308 680 L309 679 L310 680 L309 681 Z M796 675 L797 674 L798 675 L797 676 Z M796 673 L797 672 L798 673 L797 674 Z M321 721 L335 711 L359 699 L384 690 L418 682 L437 680 L438 679 L445 679 L446 678 L453 678 L454 677 L485 675 L486 674 L499 674 L500 673 L523 673 L524 672 L587 673 L588 674 L602 674 L603 675 L614 675 L615 676 L640 678 L641 679 L652 680 L653 681 L657 681 L683 687 L716 699 L748 714 L750 714 L776 728 L792 741 L793 763 L794 764 L794 817 L795 818 L796 863 L797 864 L797 880 L798 881 L799 915 L800 916 L800 924 L802 928 L804 928 L806 926 L808 922 L809 913 L810 912 L816 793 L823 788 L830 788 L832 790 L832 796 L833 797 L833 834 L832 835 L832 849 L831 850 L831 860 L830 861 L829 875 L828 876 L827 887 L825 892 L825 896 L820 917 L820 922 L817 933 L815 951 L814 952 L814 959 L813 960 L813 969 L812 970 L812 999 L813 1000 L814 1010 L816 1016 L818 1017 L814 1021 L809 1021 L804 1019 L799 1014 L797 1014 L802 1020 L808 1023 L812 1023 L813 1024 L813 1031 L812 1032 L809 1110 L808 1111 L807 1145 L806 1146 L806 1160 L805 1161 L803 1196 L802 1197 L801 1214 L800 1215 L800 1222 L799 1223 L799 1230 L798 1231 L798 1238 L797 1239 L796 1252 L794 1259 L794 1265 L793 1269 L789 1273 L784 1275 L774 1276 L773 1275 L764 1274 L760 1269 L759 1164 L760 1163 L760 1156 L761 1155 L761 1149 L762 1148 L765 1127 L768 1115 L771 1108 L771 1105 L777 1089 L787 1049 L787 1044 L790 1033 L793 1008 L794 1007 L794 999 L796 992 L800 949 L798 949 L796 976 L795 977 L794 991 L793 992 L793 998 L791 1005 L791 1011 L790 1012 L787 1036 L786 1037 L783 1056 L780 1065 L780 1069 L773 1091 L773 1094 L770 1101 L770 1104 L752 1149 L738 1176 L721 1202 L710 1216 L691 1236 L674 1251 L655 1264 L639 1272 L620 1279 L603 1283 L588 1284 L587 1285 L574 1285 L573 1286 L534 1286 L533 1285 L508 1284 L507 1283 L500 1283 L499 1282 L493 1282 L492 1281 L472 1278 L452 1272 L431 1262 L414 1250 L393 1231 L368 1204 L348 1178 L337 1160 L327 1140 L325 1133 L322 1128 L319 1117 L317 1114 L317 1111 L314 1104 L314 1101 L312 1097 L307 1077 L307 1073 L303 1058 L301 1041 L300 1040 L297 1010 L296 1009 L295 990 L294 989 L294 979 L293 978 L292 951 L290 951 L291 976 L292 977 L292 990 L293 991 L295 1021 L296 1022 L298 1042 L299 1043 L303 1070 L316 1119 L317 1136 L318 1137 L318 1162 L317 1163 L317 1172 L316 1173 L316 1183 L315 1184 L312 1219 L311 1220 L311 1227 L310 1228 L310 1235 L309 1236 L307 1253 L303 1257 L295 1259 L289 1259 L288 1258 L280 1257 L274 1252 L273 1248 L273 1232 L272 1231 L273 1058 L272 1057 L272 1020 L271 1019 L272 1018 L274 1019 L280 1018 L286 1015 L290 1011 L290 1009 L279 1016 L271 1016 L268 1013 L270 1011 L275 992 L275 986 L276 985 L276 960 L275 959 L273 930 L272 929 L271 916 L270 915 L270 910 L269 909 L269 904 L266 891 L264 867 L263 866 L263 845 L262 844 L263 799 L264 798 L264 791 L267 785 L274 784 L282 789 L283 899 L284 900 L285 916 L287 921 L290 922 L293 913 L295 875 L296 874 L296 864 L297 863 L298 846 L299 845 L301 820 L302 819 L304 782 L305 781 L305 771 L306 770 L308 744 L311 731 Z M309 678 L310 675 L313 672 L318 674 L317 678 L312 677 L310 679 Z M796 670 L795 671 L795 677 L799 678 L800 672 L798 670 Z M320 673 L316 670 L311 671 L308 676 L308 679 L305 682 L303 682 L301 676 L299 676 L296 680 L296 686 L299 692 L303 694 L306 693 L310 686 L311 680 L312 679 L318 680 L320 678 Z M776 669 L774 672 L774 678 L777 687 L781 692 L785 694 L791 694 L792 693 L795 694 L798 701 L798 704 L800 706 L803 706 L805 702 L801 690 L796 685 L792 685 L792 687 L797 688 L800 692 L803 702 L802 704 L800 702 L797 693 L793 691 L785 692 L781 689 L776 678 L776 672 L777 671 L780 673 L780 676 L784 685 L785 685 L785 683 L783 680 L781 671 L779 669 Z M284 755 L290 745 L301 732 L323 712 L337 703 L355 694 L382 684 L424 674 L449 671 L450 670 L457 670 L458 669 L465 669 L466 668 L499 666 L500 665 L563 664 L564 665 L604 666 L605 667 L615 667 L616 668 L624 668 L625 669 L632 669 L639 671 L651 672 L688 681 L723 694 L760 711 L785 726 L795 734 L812 752 L818 762 L819 770 L818 771 L817 770 L817 766 L810 755 L792 737 L783 730 L757 715 L755 715 L742 708 L740 708 L710 694 L691 688 L688 686 L654 678 L636 676 L635 675 L628 675 L627 674 L619 674 L618 673 L595 672 L594 671 L576 671 L575 670 L513 670 L512 671 L480 672 L479 673 L470 673 L469 674 L461 674 L460 675 L428 678 L427 679 L416 680 L386 687 L365 694 L334 709 L313 725 L293 746 L285 757 Z M312 655 L310 655 L308 657 L308 662 L309 663 L311 663 L313 661 L313 656 Z M357 647 L358 646 L359 647 L358 648 Z M359 646 L363 645 L371 649 L367 650 Z M373 647 L364 643 L359 643 L351 654 L350 657 L344 662 L336 661 L333 658 L332 653 L334 651 L336 651 L340 655 L344 656 L351 650 L351 648 L344 654 L336 649 L333 649 L330 653 L331 659 L335 663 L341 665 L347 663 L354 655 L355 651 L357 649 L362 649 L364 651 L370 653 L372 652 Z M700 638 L702 636 L705 636 L709 645 L713 649 L718 651 L727 650 L728 649 L736 649 L741 651 L747 656 L754 669 L752 671 L750 671 L747 668 L743 660 L737 655 L728 655 L724 657 L714 657 L708 654 L702 647 Z M698 638 L699 645 L703 652 L709 657 L714 659 L724 659 L729 657 L736 657 L741 661 L745 669 L749 673 L754 673 L755 672 L756 668 L751 658 L742 649 L736 647 L728 647 L727 648 L719 649 L714 647 L710 643 L707 635 L701 634 Z M730 634 L732 632 L735 635 L732 637 Z M732 630 L729 632 L728 635 L731 639 L734 639 L736 637 L736 632 Z M394 633 L395 632 L399 632 L402 636 L406 638 L411 638 L422 631 L428 629 L432 629 L443 634 L451 634 L456 630 L459 630 L461 632 L461 635 L456 639 L450 641 L442 640 L433 635 L426 635 L414 644 L405 645 L400 643 L395 638 Z M463 631 L460 628 L456 628 L450 632 L444 632 L439 629 L429 627 L428 628 L424 628 L410 636 L404 635 L397 629 L393 631 L392 635 L394 640 L399 645 L404 647 L412 647 L415 646 L427 637 L432 637 L441 642 L445 643 L454 642 L462 637 Z M508 624 L509 627 L513 631 L519 633 L530 631 L533 629 L545 626 L556 627 L564 631 L568 635 L576 638 L574 635 L565 631 L558 626 L552 624 L539 625 L522 631 L516 630 L510 624 Z M607 621 L611 620 L614 625 L619 630 L624 632 L629 632 L645 627 L657 628 L670 637 L676 644 L674 646 L671 646 L661 637 L654 633 L645 633 L632 638 L621 638 L616 636 L608 628 Z M605 620 L605 626 L607 630 L611 635 L620 640 L632 640 L645 635 L653 635 L659 638 L670 648 L675 648 L678 645 L677 641 L665 630 L657 626 L645 625 L625 630 L620 628 L615 623 L614 619 L609 617 Z M497 620 L497 626 L500 632 L506 638 L512 641 L516 641 L517 642 L527 641 L546 633 L555 634 L561 637 L565 641 L570 643 L573 643 L576 641 L576 640 L572 641 L568 640 L554 631 L545 631 L532 637 L521 640 L513 639 L508 637 L502 631 L499 625 L499 621 L501 619 L504 619 L506 621 L508 621 L508 620 L504 617 L501 617 Z M421 618 L421 616 L423 614 L426 615 L425 618 L423 617 L425 618 L424 619 Z M643 613 L647 612 L648 615 L645 617 L643 615 Z M533 613 L535 611 L537 611 L539 614 L537 616 L535 616 Z M423 612 L419 615 L419 618 L420 620 L425 621 L428 618 L428 614 Z M643 610 L641 612 L641 616 L643 618 L648 618 L650 615 L649 611 Z M535 609 L532 611 L532 615 L533 617 L538 618 L541 615 L541 612 L540 610 Z M284 685 L288 669 L294 656 L304 641 L320 624 L338 611 L357 601 L377 593 L396 587 L417 583 L418 582 L422 582 L423 581 L433 580 L434 579 L442 579 L443 578 L460 577 L461 576 L488 575 L489 574 L511 574 L512 573 L588 574 L589 575 L601 575 L602 576 L621 577 L622 578 L651 581 L694 591 L720 600 L742 610 L744 610 L762 619 L779 630 L788 637 L805 654 L817 672 L822 689 L822 746 L821 747 L821 762 L820 763 L814 752 L804 740 L789 727 L765 712 L710 687 L677 676 L656 672 L655 671 L651 671 L650 670 L645 670 L644 669 L623 667 L622 666 L613 666 L612 665 L602 665 L601 664 L559 663 L558 662 L504 663 L503 664 L489 664 L488 665 L478 665 L477 666 L468 666 L467 667 L444 669 L443 670 L437 670 L436 671 L425 672 L405 677 L401 677 L368 687 L337 701 L318 714 L296 735 L286 748 L282 756 L281 755 L281 732 L282 731 L282 711 L283 710 Z M694 429 L695 428 L696 429 L695 430 Z M691 428 L692 427 L694 428 L693 429 Z M419 427 L420 426 L421 427 L420 428 Z M292 647 L293 646 L295 619 L296 618 L296 613 L297 612 L297 607 L298 606 L301 586 L304 578 L305 571 L314 546 L326 522 L341 498 L355 480 L376 460 L389 451 L405 443 L422 437 L438 433 L443 433 L444 432 L460 430 L461 429 L467 429 L468 428 L493 426 L494 425 L506 425 L507 424 L579 423 L580 424 L600 424 L601 425 L615 425 L616 426 L634 427 L635 428 L660 431 L686 437 L707 445 L726 455 L740 465 L758 482 L772 499 L785 519 L793 535 L803 561 L803 564 L805 568 L809 584 L809 589 L810 590 L812 607 L813 608 L814 626 L815 627 L815 643 L816 644 L816 663 L815 664 L805 650 L793 638 L779 627 L765 618 L724 599 L689 587 L659 580 L626 576 L625 575 L617 575 L616 574 L594 573 L593 572 L578 572 L577 571 L501 571 L500 572 L468 573 L467 574 L457 574 L456 575 L432 577 L431 578 L426 578 L425 579 L415 580 L410 582 L398 584 L370 593 L353 601 L351 601 L340 607 L321 620 L304 637 L294 651 L293 654 L292 653 Z M403 440 L408 434 L421 429 L448 424 L449 423 L467 421 L468 420 L493 418 L494 417 L507 417 L508 416 L574 415 L575 416 L615 417 L616 418 L635 419 L642 421 L660 423 L697 432 L703 435 L706 438 L707 441 L705 442 L684 434 L676 433 L672 431 L668 431 L662 429 L652 428 L651 427 L629 425 L628 424 L620 424 L619 423 L588 422 L587 421 L520 421 L519 422 L502 422 L501 423 L481 424 L480 425 L465 426 L464 427 L437 431 L417 436 L405 441 Z M421 426 L459 406 L469 399 L477 391 L493 385 L508 383 L509 382 L531 381 L532 380 L585 380 L586 381 L599 381 L600 382 L608 382 L609 383 L621 384 L639 390 L645 398 L655 407 L679 419 L692 427 L689 428 L676 424 L672 424 L656 420 L651 420 L650 419 L637 418 L636 417 L628 417 L627 416 L619 416 L618 415 L606 415 L605 414 L586 414 L585 413 L522 413 L521 414 L502 414 L501 415 L491 415 L490 416 L466 418 L465 419 L460 419 L459 420 L454 420 L453 421 L433 424 L424 427 Z M476 388 L477 385 L481 381 L494 377 L512 375 L513 374 L520 374 L521 373 L538 373 L539 372 L578 372 L579 373 L595 373 L596 374 L613 375 L614 376 L619 376 L635 380 L640 385 L640 387 L638 388 L635 386 L621 382 L616 382 L609 380 L601 380 L600 379 L587 379 L586 378 L532 378 L531 379 L518 379 L517 380 L502 381 L501 382 L493 383 L478 389 Z M624 307 L628 341 L629 342 L631 358 L635 374 L634 378 L613 373 L595 372 L594 371 L576 371 L575 370 L524 371 L523 372 L505 373 L486 378 L483 377 L490 355 L492 339 L504 331 L515 327 L532 324 L533 323 L556 321 L557 320 L567 320 L568 319 L578 319 L579 318 L599 316 L613 312 L623 306 Z M625 299 L624 303 L619 307 L603 313 L586 315 L585 316 L555 318 L554 319 L532 321 L506 328 L498 332 L493 336 L492 335 L492 331 L496 327 L516 319 L529 317 L530 316 L543 315 L544 314 L575 312 L576 311 L584 311 L585 310 L597 309 L613 304 L618 301 L623 296 Z M616 235 L619 270 L620 271 L621 286 L622 287 L622 294 L616 300 L601 306 L597 306 L591 308 L564 310 L563 311 L553 311 L552 312 L544 312 L543 313 L524 315 L509 319 L499 323 L495 326 L494 325 L495 301 L496 300 L496 279 L497 278 L497 270 L505 264 L516 260 L574 249 L590 244 L593 244 L602 241 L615 234 Z M616 225 L616 230 L613 233 L599 240 L569 248 L516 258 L507 261 L497 267 L496 266 L496 262 L499 259 L505 256 L523 251 L543 248 L544 247 L548 247 L549 246 L553 246 L554 245 L558 245 L559 244 L563 244 L564 243 L585 239 L602 233 L612 227 L615 224 Z M609 173 L610 191 L611 192 L612 208 L613 209 L613 216 L614 217 L614 222 L610 226 L599 232 L584 237 L558 243 L553 243 L548 245 L543 245 L542 246 L518 250 L504 254 L499 257 L498 256 L499 211 L500 210 L500 197 L504 194 L515 191 L553 187 L554 186 L559 186 L560 185 L580 182 L601 175 L607 171 Z M609 163 L609 167 L607 169 L594 176 L572 182 L562 183 L561 184 L516 189 L515 190 L507 191 L501 194 L499 193 L499 189 L501 187 L507 185 L526 183 L527 182 L552 180 L553 179 L574 176 L594 170 L603 165 L607 161 Z M602 110 L602 119 L603 120 L604 138 L605 139 L606 157 L607 158 L601 164 L589 170 L575 174 L554 177 L553 178 L513 182 L503 185 L501 184 L501 150 L502 149 L502 127 L503 126 L529 127 L530 126 L555 124 L556 123 L561 123 L562 122 L579 119 L593 114 L600 109 Z M602 101 L601 106 L596 110 L585 115 L579 116 L575 118 L555 121 L554 122 L547 122 L546 123 L539 123 L538 124 L528 124 L527 125 L510 125 L509 124 L504 124 L501 122 L501 119 L503 117 L508 119 L524 120 L525 119 L547 118 L548 117 L554 117 L555 116 L570 114 L584 110 L594 105 L600 99 Z M600 96 L593 103 L586 107 L565 113 L547 115 L546 116 L538 116 L537 117 L525 117 L524 118 L508 117 L503 114 L503 94 L505 86 L509 78 L525 62 L541 55 L546 55 L547 54 L563 55 L578 62 L587 70 L593 78 L597 86 Z M544 52 L531 56 L517 65 L508 75 L504 82 L501 91 L500 116 L499 117 L500 129 L499 130 L498 186 L496 190 L497 194 L496 246 L495 247 L495 259 L493 263 L493 267 L494 268 L494 285 L493 286 L492 325 L489 333 L490 336 L489 347 L487 352 L485 364 L480 379 L475 384 L474 390 L461 402 L424 421 L407 431 L403 435 L400 443 L391 447 L377 456 L355 476 L340 495 L320 528 L309 552 L298 588 L295 608 L294 609 L294 614 L293 615 L292 630 L291 631 L289 662 L286 667 L283 676 L282 686 L281 687 L281 698 L280 699 L278 764 L280 770 L283 773 L282 774 L282 784 L281 785 L271 781 L267 782 L263 786 L262 789 L261 803 L260 804 L260 859 L261 860 L262 876 L259 883 L258 912 L259 913 L259 929 L260 930 L261 965 L262 966 L262 981 L263 982 L264 1005 L265 1006 L266 1015 L269 1018 L269 1045 L270 1046 L270 1189 L269 1190 L270 1246 L272 1254 L275 1257 L282 1260 L297 1261 L304 1259 L309 1254 L311 1238 L312 1237 L312 1231 L313 1230 L314 1214 L315 1213 L316 1197 L317 1196 L317 1188 L318 1187 L318 1179 L319 1178 L319 1169 L320 1168 L320 1156 L321 1155 L320 1132 L321 1131 L336 1164 L358 1196 L378 1219 L401 1242 L415 1254 L433 1266 L451 1274 L467 1279 L484 1282 L485 1283 L505 1285 L506 1286 L514 1286 L515 1287 L527 1287 L528 1288 L577 1288 L578 1287 L591 1287 L592 1286 L610 1284 L630 1278 L658 1265 L678 1251 L708 1222 L727 1198 L745 1169 L745 1167 L747 1165 L759 1139 L760 1140 L760 1145 L759 1146 L758 1158 L757 1159 L757 1168 L756 1169 L756 1213 L757 1214 L757 1262 L758 1263 L758 1271 L761 1275 L766 1277 L770 1277 L771 1278 L785 1277 L792 1274 L796 1268 L800 1236 L801 1235 L801 1229 L802 1228 L803 1212 L804 1211 L804 1204 L805 1203 L805 1194 L806 1193 L806 1183 L807 1182 L808 1157 L809 1156 L815 1026 L816 1023 L821 1017 L824 989 L825 988 L825 981 L826 980 L829 945 L830 944 L830 934 L831 933 L831 923 L832 922 L832 908 L833 907 L833 893 L830 880 L832 873 L834 846 L835 845 L836 807 L835 806 L835 792 L834 788 L830 785 L824 785 L819 788 L817 787 L817 777 L822 770 L823 757 L824 756 L825 692 L824 691 L823 681 L818 669 L819 668 L818 665 L819 663 L818 661 L818 632 L817 631 L817 620 L816 619 L814 597 L813 596 L810 577 L806 565 L806 562 L797 538 L783 511 L765 486 L755 475 L739 461 L721 449 L712 445 L710 443 L709 438 L707 435 L700 429 L686 420 L665 410 L654 403 L646 395 L642 389 L643 386 L641 381 L638 379 L638 375 L636 370 L636 366 L632 350 L632 344 L631 343 L629 323 L627 315 L627 308 L626 307 L627 297 L624 293 L622 267 L621 266 L621 259 L620 258 L620 249 L619 248 L619 241 L618 240 L618 224 L616 222 L613 186 L612 185 L612 178 L611 177 L611 161 L609 159 L609 153 L608 152 L606 123 L605 122 L605 114 L604 113 L604 99 L602 96 L601 90 L596 78 L592 72 L578 59 L565 53 L561 52 Z" fill="#eef3f4" fill-rule="evenodd"/>
</svg>
