<svg xmlns="http://www.w3.org/2000/svg" width="1086" height="1448" viewBox="0 0 1086 1448">
  <title>0020</title>
  <path d="M699 1295 L678 1325 L657 1347 L661 1345 L681 1324 L695 1304 L699 1297 Z M386 1290 L390 1298 L404 1317 L426 1339 L434 1344 L408 1319 L393 1300 L387 1290 Z M640 1254 L635 1262 L624 1273 L610 1281 L591 1287 L575 1289 L574 1290 L564 1290 L563 1291 L533 1291 L532 1290 L514 1289 L513 1288 L508 1288 L495 1285 L475 1277 L465 1270 L455 1259 L455 1257 L458 1256 L462 1258 L470 1259 L475 1261 L490 1262 L491 1263 L539 1264 L540 1265 L555 1266 L556 1265 L573 1264 L574 1263 L588 1263 L589 1262 L607 1261 L608 1260 L613 1260 L626 1257 L637 1253 Z M650 1253 L649 1253 L648 1261 L645 1271 L637 1288 L629 1299 L618 1310 L624 1306 L630 1300 L643 1281 L648 1268 L650 1260 Z M438 1253 L440 1267 L446 1282 L454 1294 L466 1305 L451 1287 L444 1273 L441 1264 L440 1253 Z M645 1252 L642 1263 L635 1277 L631 1283 L619 1295 L607 1303 L598 1307 L585 1311 L581 1311 L575 1313 L567 1313 L566 1314 L530 1314 L529 1313 L521 1313 L520 1312 L510 1311 L494 1306 L477 1297 L460 1281 L456 1275 L448 1257 L449 1254 L454 1255 L455 1256 L454 1257 L455 1261 L468 1274 L482 1282 L496 1287 L509 1290 L514 1290 L515 1291 L522 1291 L523 1292 L560 1293 L561 1292 L572 1292 L573 1291 L586 1290 L607 1284 L625 1274 L636 1263 L639 1257 L641 1255 L642 1256 L639 1253 L643 1251 Z M469 1257 L474 1255 L484 1255 L485 1254 L492 1254 L500 1252 L515 1251 L516 1252 L529 1253 L547 1261 L554 1261 L570 1253 L578 1251 L608 1251 L609 1252 L631 1252 L632 1253 L607 1259 L591 1260 L590 1261 L562 1262 L554 1264 L539 1263 L538 1262 L490 1261 L482 1259 L475 1259 Z M763 1246 L764 1245 L765 1246 L764 1247 Z M764 1245 L765 1244 L766 1245 L765 1246 Z M765 1243 L766 1242 L767 1243 L766 1244 Z M766 1241 L767 1240 L768 1242 L767 1243 Z M767 1240 L768 1239 L769 1240 L768 1241 Z M768 1238 L769 1237 L770 1239 L769 1240 Z M771 1234 L772 1236 L770 1238 L769 1236 Z M310 1229 L311 1228 L312 1229 L311 1230 Z M309 1227 L310 1226 L311 1227 L310 1228 Z M307 1224 L308 1223 L310 1226 L309 1227 Z M721 1206 L715 1210 L709 1216 L689 1229 L662 1243 L645 1249 L632 1250 L631 1251 L607 1250 L606 1249 L580 1249 L568 1252 L560 1257 L552 1260 L543 1258 L529 1251 L525 1251 L524 1250 L501 1250 L500 1251 L493 1251 L492 1252 L478 1253 L477 1254 L455 1254 L426 1244 L412 1237 L390 1224 L371 1209 L384 1222 L406 1236 L418 1242 L408 1248 L398 1251 L385 1252 L384 1251 L377 1251 L373 1249 L371 1250 L381 1253 L398 1253 L408 1250 L421 1243 L425 1245 L426 1247 L413 1260 L394 1270 L386 1272 L379 1272 L378 1273 L388 1273 L401 1269 L416 1260 L428 1247 L430 1247 L436 1250 L444 1252 L447 1256 L449 1265 L460 1284 L475 1298 L491 1307 L510 1313 L520 1314 L521 1315 L528 1315 L529 1316 L566 1316 L567 1315 L575 1315 L576 1314 L593 1311 L611 1303 L621 1296 L630 1287 L636 1279 L643 1265 L646 1256 L646 1251 L660 1245 L669 1257 L684 1269 L695 1274 L703 1276 L710 1276 L694 1272 L684 1267 L676 1261 L667 1252 L662 1245 L667 1242 L669 1242 L681 1249 L693 1252 L707 1252 L717 1249 L691 1250 L681 1247 L671 1241 L705 1221 L715 1213 Z M562 1199 L565 1243 L566 1244 L567 1243 L566 1223 L565 1222 L564 1204 Z M534 1194 L532 1196 L531 1210 L530 1211 L530 1241 L532 1243 L531 1225 L532 1224 L532 1208 L533 1207 L533 1197 Z M461 1193 L457 1197 L442 1218 L437 1227 L433 1239 L434 1239 L436 1233 L444 1218 L460 1196 Z M629 1191 L630 1194 L646 1216 L655 1234 L657 1234 L650 1219 L630 1191 Z M495 1188 L494 1188 L492 1203 L488 1217 L480 1234 L476 1239 L476 1241 L483 1232 L491 1214 L494 1202 L494 1197 L495 1196 Z M445 1187 L441 1190 L430 1203 L419 1212 L413 1215 L411 1218 L427 1208 L438 1197 Z M595 1186 L594 1187 L595 1198 L600 1216 L606 1228 L610 1234 L614 1237 L607 1227 L602 1216 L598 1204 L598 1200 L596 1194 L596 1187 Z M644 1183 L648 1189 L654 1195 L662 1201 L672 1206 L671 1204 L659 1197 Z M507 1177 L508 1176 L510 1177 L509 1178 Z M743 1174 L743 1176 L750 1177 L756 1180 L765 1190 L767 1197 L767 1209 L764 1222 L760 1233 L749 1255 L737 1274 L734 1277 L733 1280 L740 1272 L749 1258 L761 1235 L765 1225 L768 1213 L768 1208 L769 1207 L769 1198 L764 1185 L756 1178 Z M591 1174 L592 1173 L593 1174 L592 1175 Z M594 1173 L595 1172 L600 1172 L601 1173 L600 1174 L595 1174 Z M363 1168 L354 1170 L341 1178 L335 1185 L331 1193 L329 1201 L329 1217 L334 1237 L336 1240 L339 1250 L348 1268 L356 1280 L357 1280 L356 1277 L352 1272 L343 1255 L334 1231 L332 1223 L332 1218 L331 1217 L331 1200 L333 1193 L338 1184 L348 1175 L356 1171 L361 1170 Z M582 1148 L581 1149 L582 1151 L582 1167 L580 1173 L582 1172 L584 1165 L584 1154 Z M320 1146 L312 1154 L308 1162 L305 1175 L305 1184 L306 1185 L307 1197 L312 1214 L325 1243 L327 1245 L330 1252 L333 1254 L317 1223 L311 1207 L308 1195 L308 1190 L307 1189 L307 1172 L308 1171 L308 1167 L312 1157 L321 1147 Z M460 1141 L459 1141 L458 1145 L451 1157 L441 1167 L430 1173 L410 1178 L389 1178 L388 1177 L384 1177 L384 1178 L392 1180 L409 1180 L410 1179 L421 1178 L430 1175 L444 1167 L451 1160 L458 1148 Z M517 1139 L515 1147 L515 1166 L517 1172 L519 1173 L517 1167 L517 1142 L518 1141 L518 1139 Z M633 1138 L633 1141 L641 1155 L650 1164 L669 1174 L677 1175 L678 1176 L684 1176 L685 1177 L704 1177 L705 1176 L730 1174 L730 1173 L717 1173 L716 1174 L707 1174 L706 1175 L683 1175 L666 1171 L656 1166 L648 1160 L641 1152 Z M770 1130 L771 1132 L775 1133 L783 1140 L789 1152 L790 1162 L791 1163 L791 1173 L788 1188 L789 1188 L792 1178 L792 1156 L791 1152 L786 1141 L778 1133 Z M465 1127 L466 1126 L467 1127 L466 1128 Z M624 1125 L625 1124 L626 1125 L625 1126 Z M300 1113 L294 1119 L288 1135 L287 1149 L288 1150 L289 1165 L291 1170 L292 1168 L291 1167 L290 1155 L289 1154 L290 1135 L294 1122 Z M674 1132 L670 1134 L661 1135 L660 1136 L645 1135 L635 1131 L623 1119 L621 1119 L613 1114 L614 1113 L622 1113 L637 1119 L646 1120 L647 1121 L659 1120 L661 1118 L658 1119 L645 1119 L621 1111 L611 1112 L603 1117 L598 1126 L600 1125 L602 1121 L607 1116 L613 1116 L617 1118 L621 1122 L624 1128 L626 1136 L626 1153 L624 1160 L621 1165 L618 1168 L612 1171 L605 1171 L604 1170 L592 1171 L578 1178 L573 1182 L565 1185 L555 1186 L554 1187 L535 1186 L528 1184 L504 1172 L494 1171 L491 1173 L502 1173 L508 1176 L507 1177 L501 1177 L500 1176 L482 1173 L473 1168 L468 1161 L465 1149 L465 1142 L466 1141 L466 1136 L468 1128 L472 1121 L479 1116 L485 1117 L490 1122 L492 1127 L494 1126 L488 1117 L479 1112 L466 1113 L452 1120 L442 1123 L430 1123 L431 1125 L440 1125 L452 1122 L469 1114 L476 1114 L477 1115 L470 1121 L468 1121 L456 1134 L447 1139 L439 1140 L438 1141 L430 1141 L429 1140 L424 1140 L424 1141 L432 1142 L433 1143 L447 1141 L458 1135 L465 1127 L466 1130 L463 1141 L463 1149 L466 1162 L472 1170 L479 1174 L486 1176 L518 1181 L530 1187 L534 1187 L540 1189 L556 1189 L569 1186 L585 1177 L605 1175 L613 1173 L620 1169 L624 1164 L628 1154 L628 1136 L625 1127 L626 1125 L635 1133 L641 1136 L650 1137 L651 1138 L665 1137 L673 1134 Z M785 1092 L785 1093 L790 1095 L798 1103 L803 1113 L804 1121 L805 1122 L805 1143 L804 1144 L804 1148 L805 1148 L807 1140 L807 1123 L806 1122 L805 1113 L798 1100 L791 1094 Z M253 1086 L257 1097 L263 1130 L265 1134 L267 1145 L274 1167 L281 1182 L281 1184 L291 1204 L299 1217 L293 1228 L293 1232 L291 1238 L287 1339 L286 1343 L282 1347 L265 1347 L264 1346 L263 1317 L262 1316 L262 1294 L261 1293 L261 1274 L260 1273 L260 1252 L259 1251 L259 1229 L258 1228 L258 1205 L257 1204 L257 1182 L256 1181 L254 1111 L253 1110 L253 1097 L252 1096 L252 1087 Z M251 1086 L252 1085 L253 1086 L252 1087 Z M863 1074 L864 1075 L864 1092 L863 1093 L860 1175 L859 1176 L859 1196 L858 1197 L858 1215 L857 1216 L856 1250 L855 1251 L855 1265 L854 1266 L854 1283 L853 1284 L853 1305 L852 1306 L851 1332 L848 1340 L843 1345 L831 1349 L826 1349 L825 1348 L826 1347 L826 1336 L827 1335 L827 1320 L828 1319 L831 1260 L832 1259 L835 1204 L836 1203 L837 1177 L838 1176 L838 1164 L839 1163 L839 1149 L840 1148 L840 1135 L841 1134 L841 1122 L842 1121 L843 1087 L841 1095 L839 1131 L838 1132 L838 1145 L837 1146 L837 1158 L836 1159 L836 1172 L835 1173 L835 1185 L834 1186 L832 1228 L831 1229 L828 1285 L827 1286 L827 1300 L826 1301 L826 1315 L825 1316 L824 1345 L822 1349 L807 1348 L803 1345 L801 1340 L798 1223 L793 1207 L808 1179 L818 1154 L828 1122 L835 1092 L837 1088 L842 1083 L850 1083 L857 1080 Z M231 1074 L239 1081 L247 1082 L252 1084 L251 1086 L251 1112 L252 1113 L255 1212 L256 1213 L258 1277 L259 1278 L259 1298 L260 1299 L260 1319 L261 1320 L261 1343 L262 1344 L261 1347 L256 1347 L248 1344 L244 1340 L242 1334 L241 1300 L240 1299 L240 1283 L239 1282 L238 1253 L237 1252 L237 1233 L236 1232 L235 1189 L234 1188 L232 1103 L231 1102 L231 1082 L230 1081 L230 1075 Z M468 1061 L464 1068 L460 1084 L460 1100 L463 1108 L461 1090 L462 1089 L463 1076 Z M621 1059 L628 1082 L628 1090 L629 1091 L629 1098 L627 1105 L628 1106 L630 1101 L630 1082 L626 1068 L623 1061 Z M314 1047 L319 1074 L327 1096 L336 1114 L348 1131 L362 1144 L344 1123 L337 1112 L328 1094 L322 1078 L322 1075 L317 1059 L315 1047 Z M344 1037 L344 1039 L359 1050 L373 1057 L395 1063 L417 1063 L418 1062 L423 1062 L437 1058 L446 1053 L443 1053 L438 1056 L419 1061 L409 1061 L408 1062 L394 1061 L381 1058 L366 1052 L350 1042 Z M734 1035 L720 1045 L708 1051 L696 1055 L686 1056 L685 1057 L673 1057 L660 1054 L658 1055 L663 1057 L674 1058 L675 1059 L683 1059 L684 1058 L691 1058 L699 1056 L718 1048 L731 1039 Z M495 1030 L493 1032 L492 1038 L484 1060 L483 1068 L482 1069 L482 1079 L483 1078 L483 1073 L484 1072 L484 1067 L486 1059 L493 1040 Z M476 1028 L461 1043 L449 1052 L451 1052 L461 1045 L471 1035 Z M460 1028 L451 1031 L447 1034 L452 1033 Z M774 1027 L773 1028 L773 1035 L772 1036 L771 1047 L763 1075 L756 1090 L756 1092 L739 1121 L725 1138 L727 1138 L741 1121 L750 1107 L759 1090 L768 1065 L772 1049 L773 1039 L774 1038 Z M613 1027 L629 1043 L635 1047 L651 1054 L650 1052 L635 1045 L629 1041 Z M489 1019 L484 1034 L471 1053 L471 1055 L482 1041 L489 1026 L490 1022 Z M514 1019 L515 1020 L515 1036 L516 1037 L516 1122 L518 1124 L518 1054 L517 1053 L517 1023 L516 1022 L516 1018 Z M571 1015 L564 1018 L553 1019 L552 1020 L539 1020 L522 1016 L524 1018 L530 1020 L541 1021 L542 1022 L550 1022 L551 1021 L562 1020 L570 1017 Z M336 1009 L341 1015 L356 1026 L371 1034 L390 1040 L395 1040 L396 1041 L406 1041 L407 1042 L423 1041 L430 1039 L428 1038 L427 1039 L419 1039 L418 1040 L403 1040 L402 1039 L394 1039 L381 1036 L364 1029 L351 1021 Z M596 1008 L595 1009 L596 1016 L600 1028 L609 1043 L619 1055 L618 1052 L605 1034 L601 1026 Z M327 1008 L315 1013 L304 1020 L292 1033 L304 1022 L317 1014 L326 1010 Z M742 1005 L726 1016 L712 1023 L695 1029 L691 1029 L685 1031 L678 1031 L677 1032 L658 1032 L650 1030 L646 1030 L646 1031 L654 1032 L655 1033 L662 1033 L663 1034 L684 1033 L685 1032 L694 1031 L698 1029 L704 1028 L722 1020 L732 1014 L740 1008 Z M232 1003 L232 1012 L231 1013 L231 1021 L230 1022 L230 1046 L232 1053 L232 1046 L231 1045 L231 1026 L232 1025 L232 1017 L233 1016 L233 1004 Z M352 1001 L332 1006 L332 1008 L339 1005 L347 1003 L352 1003 Z M737 999 L737 1001 L742 1001 L750 1003 L772 1011 L789 1020 L798 1027 L789 1018 L770 1008 L756 1003 Z M610 994 L611 993 L612 994 L611 995 Z M473 994 L474 993 L475 994 L474 995 Z M512 992 L514 1013 L516 1014 L515 1001 L514 1000 L513 992 Z M864 991 L860 1003 L860 1018 L862 1026 L862 1048 L861 1051 L862 1051 L863 1042 L864 1041 L864 1029 L863 1028 L863 1021 L861 1013 L861 1004 L865 994 Z M342 990 L328 991 L324 993 L319 993 L310 996 L296 1003 L289 1008 L286 1012 L299 1003 L312 997 L317 996 L320 994 L325 994 L332 992 L341 992 Z M753 988 L753 990 L758 990 L763 992 L771 993 L788 999 L805 1008 L801 1004 L785 996 L773 992 L769 992 Z M511 987 L511 989 L521 994 L534 997 L557 997 L558 996 L563 996 L571 994 L576 991 L575 990 L572 992 L564 994 L559 994 L558 995 L533 995 L518 991 Z M461 989 L463 986 L465 986 L474 993 L472 994 Z M629 986 L628 988 L623 989 L613 994 L611 993 L620 985 L626 981 Z M226 982 L227 989 L231 998 L233 1000 L227 985 L227 982 Z M759 977 L759 978 L774 978 L775 979 L787 980 L798 983 L809 988 L808 986 L791 979 L787 979 L781 977 L774 977 L773 976 Z M584 975 L582 976 L580 988 L578 990 L581 991 L579 994 L578 1010 L577 1011 L577 1062 L578 1063 L578 1099 L579 1100 L579 1127 L580 1128 L580 1135 L581 1135 L581 1100 L580 1099 L580 1059 L579 1058 L579 1009 L580 1008 L580 997 L581 996 L581 991 L580 990 L582 988 L582 983 Z M410 973 L411 972 L412 973 L411 974 Z M335 973 L335 974 L342 977 L372 996 L392 1006 L412 1013 L425 1015 L426 1016 L431 1016 L432 1017 L457 1017 L472 1013 L472 1012 L469 1012 L464 1014 L453 1015 L452 1016 L437 1016 L436 1015 L429 1015 L408 1010 L394 1005 L377 997 L343 976 Z M282 989 L283 990 L295 983 L308 979 L312 979 L313 978 L329 978 L330 979 L333 978 L344 985 L355 994 L376 1007 L386 1012 L405 1019 L418 1022 L423 1022 L424 1023 L432 1023 L433 1024 L448 1024 L449 1023 L460 1022 L465 1020 L465 1018 L461 1020 L450 1021 L449 1022 L432 1022 L431 1021 L424 1021 L423 1020 L413 1019 L399 1015 L396 1013 L391 1012 L366 999 L344 983 L328 973 L326 973 L326 974 L330 976 L329 977 L326 976 L313 976 L312 977 L304 978 L291 983 Z M842 972 L841 973 L840 1005 L839 1006 L837 1025 L839 1023 L841 1005 L842 1004 Z M761 972 L759 972 L750 977 L740 985 L715 1001 L698 1009 L684 1014 L667 1018 L661 1018 L660 1019 L637 1019 L623 1016 L623 1017 L627 1019 L631 1019 L637 1021 L659 1021 L660 1020 L666 1020 L667 1019 L672 1019 L684 1016 L701 1010 L719 1001 Z M752 972 L743 976 L728 986 L704 999 L677 1009 L664 1012 L658 1012 L657 1013 L634 1013 L633 1012 L626 1012 L621 1010 L618 1010 L618 1011 L623 1013 L636 1014 L637 1015 L654 1015 L655 1014 L667 1013 L683 1009 L708 999 L749 975 Z M448 970 L457 975 L462 980 L463 984 L460 989 L442 983 L445 981 L447 977 L447 971 Z M641 969 L642 970 L642 975 L647 982 L635 986 L631 986 L628 983 L627 978 L634 972 Z M620 969 L615 973 L608 982 L607 985 Z M646 967 L648 968 L647 971 L648 975 L651 978 L655 980 L654 981 L650 981 L644 975 L644 969 Z M441 967 L445 970 L446 974 L445 978 L440 983 L438 983 L433 980 L437 978 L440 974 L440 969 L439 968 Z M647 967 L648 966 L649 967 L648 968 Z M868 963 L866 972 L858 993 L860 992 L864 983 L868 970 L868 966 L869 965 Z M704 966 L706 961 L720 961 L721 962 L706 967 Z M722 961 L723 960 L724 961 L723 962 Z M407 960 L410 961 L408 967 L411 972 L409 974 L405 971 L405 963 Z M384 966 L381 967 L366 962 L367 961 L381 961 L383 960 L384 961 Z M362 961 L363 960 L366 961 L365 962 Z M683 959 L685 962 L685 968 L684 971 L679 974 L678 973 L681 968 L680 960 Z M684 959 L685 958 L701 958 L703 961 L703 966 L699 969 L686 972 L685 971 L687 965 L686 961 Z M385 962 L390 958 L404 959 L405 960 L403 963 L403 970 L404 972 L402 973 L387 968 L385 965 Z M298 959 L302 963 L313 967 L316 967 L314 965 L306 963 Z M797 957 L795 957 L793 959 L786 962 L774 965 L771 967 L776 967 L794 960 Z M744 958 L724 958 L723 957 L714 957 L713 956 L679 956 L678 957 L672 957 L671 958 L666 958 L643 965 L629 972 L619 979 L611 988 L605 1000 L607 1000 L608 998 L620 992 L632 988 L671 979 L675 977 L693 973 L700 970 L703 970 L724 963 Z M343 958 L343 959 L346 960 L351 960 L390 972 L397 973 L422 981 L455 989 L467 993 L475 997 L479 1001 L481 1001 L477 992 L467 980 L453 970 L431 961 L418 958 L413 958 L412 957 L403 957 L402 956 L376 956 L375 957 L364 957 L363 958 Z M464 951 L478 964 L484 973 L489 985 L489 990 L490 991 L489 1003 L491 1002 L491 986 L488 976 L481 965 L469 953 Z M629 950 L627 950 L623 953 L608 968 L600 983 L599 990 L601 990 L602 983 L609 970 Z M590 950 L588 950 L583 967 L570 971 L553 972 L552 973 L528 972 L527 971 L521 971 L513 969 L510 967 L510 963 L507 954 L506 953 L505 954 L508 961 L508 964 L510 966 L508 967 L509 969 L522 973 L549 975 L550 974 L569 973 L584 968 Z M483 945 L488 953 L495 975 L496 990 L497 991 L497 1010 L496 1011 L496 1019 L495 1021 L497 1021 L498 1009 L499 1008 L499 989 L498 988 L497 975 L494 963 L490 953 L486 947 Z M786 941 L774 946 L764 947 L763 948 L732 948 L731 947 L709 946 L708 945 L706 946 L690 945 L689 946 L671 947 L645 954 L629 962 L623 966 L622 968 L644 956 L660 951 L675 949 L676 948 L705 946 L706 947 L716 947 L717 948 L725 948 L726 949 L733 949 L734 950 L761 950 L781 945 Z M289 941 L298 950 L308 955 L324 959 L333 959 L333 958 L330 957 L322 957 L305 952 Z M300 940 L303 943 L305 943 L315 948 L326 949 L327 950 L350 949 L352 951 L359 951 L360 950 L368 950 L369 949 L394 948 L395 949 L410 949 L411 950 L417 950 L418 951 L423 951 L446 958 L462 967 L477 981 L482 989 L482 987 L478 980 L467 969 L457 962 L434 952 L421 949 L406 948 L405 947 L376 947 L375 948 L364 948 L363 949 L355 949 L354 950 L350 949 L352 947 L347 947 L346 948 L324 948 L323 947 L314 946 Z M800 939 L791 947 L778 954 L772 955 L768 957 L754 958 L754 959 L766 959 L778 956 L791 949 Z M726 938 L727 937 L731 938 L730 939 Z M394 937 L371 938 L355 942 L362 942 L375 939 L393 939 Z M693 930 L693 931 L697 931 L698 932 L712 933 L725 937 L724 938 L698 937 L698 938 L701 939 L719 939 L720 940 L729 940 L730 941 L740 941 L741 940 L744 941 L757 941 L758 942 L760 941 L769 941 L780 938 L782 936 L783 937 L789 934 L788 933 L785 935 L771 939 L752 940 L751 939 L732 937 L708 931 Z M736 929 L737 928 L740 929 L739 930 Z M395 928 L375 929 L346 938 L335 939 L334 940 L319 940 L304 936 L306 938 L316 941 L331 942 L332 941 L346 940 L374 931 L395 929 Z M623 945 L637 934 L649 928 L660 924 L674 922 L675 921 L705 921 L706 922 L718 923 L736 928 L735 929 L730 929 L729 928 L723 928 L715 926 L703 926 L703 927 L716 928 L723 930 L731 930 L732 931 L738 931 L740 929 L743 929 L755 932 L774 932 L785 928 L785 927 L776 930 L764 931 L763 930 L755 930 L754 929 L739 927 L730 924 L726 924 L710 920 L703 920 L702 919 L677 919 L676 920 L670 920 L669 921 L661 922 L647 927 L633 935 L623 943 Z M468 947 L462 940 L452 933 L440 927 L414 920 L405 920 L404 919 L381 920 L380 921 L364 923 L332 931 L313 931 L302 927 L303 929 L311 932 L330 933 L331 932 L347 930 L351 928 L372 924 L373 923 L377 923 L378 922 L409 921 L410 922 L415 922 L416 923 L421 923 L440 929 L452 935 Z M358 913 L358 914 L360 914 L365 912 L375 911 L376 910 L384 910 L385 909 L403 909 L404 910 L412 910 L413 911 L422 912 L442 919 L453 925 L463 932 L478 946 L471 937 L453 923 L439 916 L421 910 L411 909 L410 908 L382 908 L381 909 L375 909 Z M730 912 L721 909 L709 908 L708 907 L682 907 L681 908 L675 908 L653 914 L637 922 L626 930 L616 940 L615 939 L611 947 L605 955 L598 973 L595 997 L597 998 L598 981 L602 967 L608 954 L616 942 L624 934 L637 924 L655 915 L678 909 L706 908 L707 909 L715 909 L716 910 L726 911 L730 913 Z M610 907 L596 917 L594 920 L592 920 L584 926 L574 931 L555 936 L532 936 L514 931 L500 923 L482 909 L481 910 L508 930 L499 940 L491 945 L491 946 L493 946 L499 942 L510 931 L523 936 L533 937 L534 938 L553 938 L554 937 L560 937 L568 935 L579 930 L594 944 L602 947 L602 946 L595 943 L590 939 L582 929 L590 924 L594 920 L597 919 L609 909 Z M252 906 L253 907 L253 916 L252 917 L251 916 L251 907 Z M776 906 L777 905 L778 906 L777 907 Z M311 907 L311 912 L313 912 L339 898 L358 891 L370 888 L384 887 L385 886 L409 886 L410 887 L416 887 L429 890 L451 899 L467 909 L487 927 L487 925 L473 912 L454 899 L437 891 L415 885 L387 884 L386 885 L378 885 L377 886 L367 887 L342 895 L321 906 L319 908 L313 910 L312 908 L315 898 L323 883 L326 880 L325 879 L319 887 L314 897 Z M779 905 L777 899 L768 882 L758 871 L770 888 L777 903 L776 906 L774 906 L767 901 L751 893 L734 887 L721 884 L716 884 L715 883 L684 883 L683 884 L676 884 L675 885 L667 886 L647 893 L626 905 L617 912 L604 925 L601 923 L604 927 L619 912 L630 904 L644 896 L662 889 L670 887 L675 887 L676 886 L681 886 L682 885 L705 884 L706 885 L723 886 L752 895 L779 909 Z M474 868 L484 872 L487 872 L499 876 L515 878 L516 879 L525 879 L526 880 L551 880 L552 879 L568 878 L569 877 L574 877 L595 872 L605 868 L604 867 L580 874 L564 876 L563 877 L555 877 L554 878 L523 878 L522 877 L514 877 L513 876 L508 876 L507 875 L486 871 L476 867 Z M357 857 L358 858 L365 855 L369 855 L375 853 L395 852 L396 853 L404 853 L417 856 L440 864 L434 860 L417 854 L409 852 L404 852 L403 851 L395 851 L394 850 L371 852 L360 855 Z M653 863 L677 854 L685 852 L690 852 L691 851 L716 851 L717 852 L722 852 L730 854 L736 857 L737 856 L729 852 L721 850 L716 850 L715 849 L692 849 L668 855 L656 861 L654 861 Z M612 838 L588 844 L570 846 L569 847 L561 847 L560 848 L521 848 L520 847 L511 847 L510 846 L503 846 L502 845 L496 845 L484 842 L479 842 L483 844 L504 847 L505 848 L511 848 L512 849 L521 849 L522 850 L559 850 L560 849 L568 849 L569 848 L575 848 L576 847 L591 845 L607 841 L612 839 Z M838 828 L844 829 L849 834 L851 839 L852 852 L853 853 L854 881 L855 882 L857 961 L856 964 L852 968 L849 968 L845 964 L841 949 L841 885 L840 884 L840 871 L839 870 L838 855 L837 854 L836 844 L833 833 Z M245 820 L246 819 L247 820 L246 821 Z M875 818 L880 820 L883 825 L883 841 L882 842 L881 866 L880 867 L880 877 L879 878 L879 888 L878 889 L878 899 L877 900 L876 921 L875 922 L875 933 L874 934 L874 945 L873 946 L873 957 L872 958 L869 1029 L868 1030 L868 1044 L867 1045 L867 1054 L866 1055 L865 1066 L859 1076 L852 1080 L843 1081 L839 1083 L834 1089 L826 1121 L821 1135 L821 1138 L809 1171 L787 1214 L772 1235 L771 1233 L785 1209 L800 1177 L813 1141 L813 1138 L820 1115 L820 1111 L822 1106 L824 1091 L826 1085 L828 1064 L830 1056 L830 1048 L831 1047 L831 1039 L832 1038 L834 1005 L835 1004 L835 989 L836 988 L837 941 L838 940 L839 941 L840 956 L842 962 L846 969 L852 971 L852 990 L854 991 L852 1005 L850 1009 L849 1016 L843 1035 L842 1054 L844 1060 L848 1064 L851 1065 L855 1064 L860 1058 L859 1057 L853 1063 L850 1063 L845 1058 L844 1055 L844 1039 L855 998 L855 991 L853 990 L853 970 L858 965 L859 955 L860 954 L862 920 L863 919 L863 907 L864 906 L864 892 L865 891 L865 877 L866 876 L866 863 L867 862 L869 820 Z M761 836 L757 832 L743 825 L730 821 L720 820 L719 819 L697 819 L685 822 L659 834 L631 844 L628 844 L626 846 L629 846 L654 838 L685 824 L697 821 L720 821 L721 822 L726 822 L743 827 L754 832 L759 836 Z M329 837 L331 837 L333 835 L348 828 L363 824 L380 822 L381 821 L401 821 L418 825 L445 835 L466 840 L465 838 L441 832 L411 821 L401 820 L400 819 L383 819 L382 820 L368 821 L355 824 L341 829 L332 834 Z M257 818 L261 821 L261 824 L257 838 L257 843 L254 855 L253 869 L252 870 L252 878 L251 879 L247 951 L244 964 L241 969 L238 969 L235 967 L233 962 L233 953 L234 952 L236 911 L237 910 L239 872 L240 871 L240 861 L241 860 L243 833 L245 825 L251 819 Z M217 817 L221 817 L224 819 L225 846 L226 847 L226 865 L227 866 L227 884 L228 885 L228 905 L229 906 L231 963 L233 968 L237 972 L237 977 L236 978 L237 1003 L248 1044 L248 1054 L244 1063 L239 1063 L235 1060 L238 1064 L243 1065 L247 1062 L250 1053 L250 1046 L249 1045 L248 1035 L246 1031 L245 1024 L242 1017 L238 1000 L238 973 L244 969 L249 951 L250 952 L251 992 L252 993 L252 1003 L253 1004 L255 1031 L256 1032 L256 1039 L257 1040 L257 1047 L259 1054 L260 1068 L261 1069 L261 1074 L262 1075 L267 1108 L269 1113 L270 1122 L275 1142 L284 1171 L292 1191 L297 1200 L297 1202 L308 1222 L307 1224 L304 1221 L293 1203 L283 1183 L275 1163 L266 1133 L266 1129 L263 1120 L263 1116 L262 1115 L262 1111 L261 1110 L257 1089 L252 1082 L242 1080 L235 1076 L232 1072 L229 1064 L227 1036 L226 1035 L226 1022 L225 1021 L223 984 L222 983 L222 972 L221 971 L221 960 L220 959 L220 949 L219 948 L217 920 L216 919 L213 872 L212 871 L210 838 L209 837 L209 825 L210 822 L214 818 Z M646 794 L624 802 L612 805 L594 807 L593 808 L586 808 L585 809 L575 809 L574 810 L562 810 L561 811 L505 811 L504 810 L488 810 L487 809 L478 809 L477 808 L471 808 L471 809 L481 810 L482 811 L510 812 L511 813 L558 813 L559 812 L572 812 L573 811 L592 810 L593 809 L599 809 L600 808 L615 806 L635 800 L646 795 Z M757 805 L741 797 L725 793 L718 793 L717 792 L696 793 L682 797 L641 819 L625 824 L625 826 L643 820 L685 798 L702 794 L726 795 L742 799 L753 804 L755 806 L757 806 Z M357 796 L357 798 L362 796 L370 795 L371 794 L377 794 L378 793 L404 793 L421 797 L446 806 L460 809 L460 808 L455 806 L448 805 L417 794 L409 792 L404 792 L403 791 L379 791 L378 792 L373 792 Z M661 783 L684 777 L712 777 L713 778 L716 778 L716 777 L708 775 L685 775 L684 776 L679 776 L662 781 Z M403 775 L387 775 L386 776 L380 776 L379 777 L374 777 L366 779 L349 785 L339 790 L330 796 L325 802 L339 792 L359 783 L385 777 L404 777 Z M437 760 L438 762 L474 775 L495 780 L500 780 L501 781 L516 782 L517 783 L530 783 L531 784 L561 783 L562 782 L569 782 L570 781 L587 779 L607 774 L611 772 L614 772 L638 764 L643 761 L631 764 L618 769 L615 769 L608 772 L592 776 L578 778 L577 779 L563 780 L562 781 L550 781 L549 782 L530 782 L529 781 L507 780 L506 779 L500 779 L499 778 L485 776 L473 772 L470 772 Z M338 753 L356 748 L377 745 L378 744 L384 744 L385 743 L392 743 L393 742 L421 740 L422 739 L435 739 L436 738 L479 737 L480 736 L551 736 L552 737 L559 737 L560 736 L588 736 L589 737 L623 737 L624 738 L643 738 L644 739 L658 739 L659 740 L687 742 L688 743 L695 743 L696 744 L714 746 L715 747 L719 747 L720 748 L741 752 L770 764 L787 774 L798 782 L810 793 L825 812 L831 831 L831 835 L835 850 L836 863 L837 864 L838 890 L839 891 L839 929 L838 930 L837 929 L836 894 L835 893 L835 883 L834 882 L834 874 L833 873 L832 861 L831 860 L827 839 L820 819 L818 817 L826 842 L829 859 L830 860 L831 872 L832 873 L833 893 L834 894 L834 912 L835 913 L835 965 L834 966 L834 987 L833 988 L832 1015 L831 1016 L830 1037 L829 1038 L829 1046 L828 1047 L828 1055 L827 1056 L825 1078 L824 1079 L823 1090 L821 1096 L820 1106 L817 1115 L817 1119 L806 1156 L804 1159 L803 1164 L795 1184 L790 1193 L790 1195 L777 1221 L762 1246 L764 1248 L739 1284 L712 1316 L683 1344 L671 1354 L651 1368 L626 1381 L603 1389 L585 1392 L584 1393 L571 1394 L570 1395 L559 1395 L558 1396 L539 1396 L538 1395 L519 1394 L518 1393 L507 1392 L490 1388 L470 1381 L447 1370 L425 1356 L408 1343 L393 1330 L358 1294 L324 1248 L310 1224 L298 1200 L281 1156 L281 1153 L274 1131 L274 1127 L272 1122 L272 1118 L267 1098 L267 1093 L266 1092 L266 1087 L265 1086 L264 1075 L262 1068 L262 1062 L261 1061 L261 1055 L260 1054 L260 1048 L259 1047 L259 1040 L258 1039 L255 1002 L254 1001 L254 990 L253 989 L252 961 L251 960 L251 937 L253 935 L255 901 L256 900 L256 892 L257 891 L257 884 L258 883 L260 864 L266 839 L276 811 L274 813 L269 824 L260 855 L258 870 L257 871 L257 877 L256 878 L256 885 L255 886 L254 904 L253 905 L252 904 L252 894 L253 893 L254 873 L255 872 L255 865 L256 864 L256 857 L257 856 L259 839 L264 819 L269 808 L278 799 L287 787 L306 770 L320 761 Z M246 816 L249 806 L253 798 L258 793 L269 794 L276 787 L279 782 L297 764 L305 758 L327 746 L344 740 L361 736 L385 733 L386 732 L414 730 L415 729 L428 729 L429 728 L444 728 L445 727 L471 727 L472 726 L592 726 L593 727 L626 727 L627 728 L628 727 L629 728 L662 729 L663 730 L674 730 L675 731 L700 733 L701 734 L718 736 L719 737 L740 741 L763 749 L784 760 L805 775 L822 792 L830 803 L834 804 L842 811 L846 818 L849 830 L848 831 L846 828 L842 826 L838 826 L833 830 L827 810 L818 798 L804 784 L782 768 L756 755 L735 748 L731 748 L715 744 L710 744 L709 743 L704 743 L703 742 L671 739 L670 738 L660 738 L659 737 L626 736 L625 735 L542 735 L541 734 L451 735 L450 736 L433 736 L432 737 L401 739 L400 740 L377 742 L376 743 L355 746 L332 753 L311 764 L296 775 L283 788 L278 795 L270 802 L263 815 L262 819 L257 816 L253 816 L247 820 Z M518 603 L520 607 L526 613 L544 623 L551 625 L558 623 L569 617 L576 612 L582 605 L582 603 L581 603 L579 607 L575 611 L562 619 L551 623 L542 620 L529 613 Z M591 512 L592 511 L593 512 L592 513 Z M510 511 L524 512 L528 517 L529 521 L529 536 L528 537 L528 592 L530 596 L534 600 L547 607 L557 606 L562 603 L570 594 L570 590 L571 589 L571 523 L572 522 L572 518 L574 514 L577 512 L591 512 L592 513 L589 518 L589 525 L588 526 L588 551 L587 552 L588 600 L589 601 L587 611 L582 617 L555 633 L552 634 L547 633 L520 618 L514 612 L512 608 L511 601 L512 600 L513 562 L514 561 L514 525 L513 524 L512 515 L509 512 Z M268 495 L269 497 L264 506 L261 515 L257 521 L246 520 L240 515 L239 508 L240 505 L245 499 L256 495 Z M681 491 L682 490 L683 492 L682 493 Z M424 491 L425 490 L428 493 L427 494 L428 493 L435 497 L447 500 L497 500 L498 499 L524 499 L525 498 L571 498 L572 499 L596 499 L597 500 L620 500 L621 501 L658 501 L659 500 L665 500 L672 498 L681 492 L682 495 L673 505 L666 508 L660 508 L659 509 L606 509 L605 510 L577 510 L571 515 L570 525 L569 526 L569 590 L568 594 L560 602 L554 605 L548 605 L533 597 L530 592 L529 572 L530 571 L530 530 L531 529 L531 524 L530 523 L530 517 L527 512 L524 510 L461 509 L460 508 L442 507 L432 503 L426 497 Z M682 490 L683 489 L684 490 L683 491 Z M423 490 L424 489 L425 490 L424 491 Z M851 490 L855 495 L855 500 L851 504 L842 507 L839 507 L837 505 L837 503 L830 490 L831 489 L839 489 L843 487 Z M251 490 L254 489 L257 486 L272 490 L270 493 L259 493 Z M281 476 L273 487 L266 487 L265 486 L270 481 L279 475 Z M821 473 L822 472 L825 474 L824 475 L825 474 L837 483 L840 482 L843 478 L847 482 L840 486 L829 487 Z M820 472 L821 471 L822 472 L821 473 Z M836 462 L837 461 L838 462 L837 463 Z M835 461 L836 460 L837 461 L836 462 Z M261 460 L262 459 L263 460 L262 461 Z M315 458 L316 459 L307 474 L292 507 L291 512 L277 547 L273 561 L271 564 L267 576 L267 579 L265 582 L265 585 L263 588 L253 627 L252 643 L251 644 L251 661 L241 671 L235 683 L234 691 L233 692 L234 707 L238 717 L242 717 L245 714 L247 708 L241 716 L238 714 L236 710 L235 699 L234 698 L235 696 L235 689 L239 677 L242 672 L250 664 L251 665 L252 686 L253 687 L253 696 L254 697 L254 705 L255 706 L254 712 L234 750 L226 770 L224 778 L223 777 L223 769 L222 768 L222 751 L221 750 L221 686 L222 685 L222 671 L223 670 L223 661 L224 660 L227 632 L228 631 L229 621 L232 612 L232 608 L236 592 L244 568 L244 565 L258 526 L264 514 L267 505 L270 501 L270 499 L273 495 L279 482 L284 474 L287 471 L288 472 L287 471 L300 463 Z M837 457 L838 456 L839 457 L838 458 Z M787 455 L799 459 L809 464 L819 474 L828 492 L830 494 L841 518 L846 533 L848 536 L861 577 L865 593 L866 602 L868 607 L868 611 L869 612 L871 628 L872 629 L874 650 L875 651 L875 662 L876 663 L876 680 L877 681 L875 737 L874 738 L874 749 L873 750 L872 767 L870 775 L862 750 L845 712 L845 704 L846 703 L846 696 L847 695 L847 683 L848 682 L848 666 L849 665 L857 673 L863 688 L864 704 L861 716 L859 718 L854 713 L853 710 L852 710 L854 715 L858 719 L860 719 L862 717 L865 708 L865 689 L864 685 L858 672 L848 662 L846 639 L845 638 L845 633 L844 632 L841 612 L837 596 L835 592 L835 589 L833 585 L833 582 L831 578 L831 575 L829 571 L829 568 L824 554 L824 551 L803 488 L792 464 L786 456 Z M270 454 L271 453 L272 454 L271 455 Z M271 453 L272 452 L273 453 L272 454 Z M272 452 L273 451 L274 452 L273 453 Z M273 451 L274 450 L276 451 L275 452 Z M275 450 L277 448 L279 449 L277 451 Z M278 448 L279 447 L281 448 L280 449 Z M825 447 L826 446 L827 447 L826 448 Z M280 447 L281 446 L282 447 L281 448 Z M824 446 L825 445 L826 446 L825 447 Z M281 446 L282 445 L284 446 L283 447 Z M823 445 L824 444 L825 445 L824 446 Z M283 445 L284 444 L285 445 L284 446 Z M821 444 L822 443 L823 444 L822 445 Z M285 444 L286 443 L287 444 L286 445 Z M820 443 L821 442 L822 443 L821 444 Z M287 443 L288 442 L289 443 L288 444 Z M818 442 L819 441 L820 442 L819 443 Z M289 442 L290 441 L291 442 L290 443 Z M817 441 L818 440 L819 441 L818 442 Z M377 440 L378 442 L375 454 L373 480 L372 481 L370 521 L369 522 L369 542 L368 543 L367 553 L364 559 L349 574 L322 597 L318 597 L314 593 L310 586 L303 570 L303 562 L304 561 L305 549 L314 517 L324 492 L329 483 L329 481 L346 449 L351 446 L365 443 L366 444 L361 460 L361 464 L357 480 L357 485 L356 486 L356 491 L355 492 L349 545 L343 561 L332 574 L333 574 L343 564 L351 547 L358 486 L359 485 L359 480 L360 479 L363 460 L366 451 L366 447 L368 442 Z M815 440 L816 439 L817 440 L816 441 Z M728 439 L736 441 L740 450 L748 482 L748 486 L752 502 L752 507 L753 508 L753 513 L754 514 L754 519 L755 520 L758 546 L762 560 L768 570 L779 580 L767 566 L762 554 L760 540 L759 539 L759 532 L757 525 L755 507 L752 496 L752 491 L750 486 L749 477 L744 457 L739 443 L740 442 L751 444 L757 447 L763 458 L763 460 L765 462 L765 464 L771 475 L771 477 L778 492 L789 527 L793 543 L794 553 L796 559 L796 566 L797 567 L797 586 L792 598 L789 600 L783 597 L760 578 L746 564 L743 559 L741 551 L741 536 L740 535 L738 502 L737 501 L737 494 L736 493 L736 486 L735 485 L735 478 L734 477 L732 460 L727 440 Z M637 438 L639 444 L640 456 L641 457 L641 472 L643 472 L642 450 L639 438 Z M459 438 L457 440 L456 450 L455 451 L455 469 L456 469 L456 458 L457 457 L457 448 L458 447 Z M618 437 L619 445 L620 446 L620 453 L621 454 L622 473 L623 472 L623 457 L622 456 L621 442 L620 438 Z M473 437 L470 449 L470 471 L471 471 L472 447 L474 439 Z M572 436 L573 438 L573 472 L575 472 L575 441 L574 440 L574 436 Z M538 436 L537 436 L536 439 L536 450 L535 451 L535 465 L537 472 Z M523 436 L521 436 L521 441 L520 442 L520 460 L519 461 L520 471 L521 471 L521 453 L522 452 L522 438 Z M490 436 L488 437 L487 449 L486 450 L486 472 L488 472 L488 449 L489 448 Z M835 435 L836 434 L837 435 L836 436 Z M592 435 L591 437 L592 438 L592 449 L593 450 L593 467 L594 468 L594 475 L595 475 L596 473 L595 449 L594 448 L594 439 Z M555 435 L555 472 L556 472 L557 470 L557 436 Z M507 435 L505 436 L505 441 L504 442 L504 455 L503 456 L503 470 L504 473 L505 473 Z M686 470 L685 472 L685 482 L682 488 L676 494 L670 497 L661 498 L660 499 L617 499 L616 498 L567 497 L566 496 L532 496 L531 497 L503 497 L502 498 L446 498 L445 497 L437 496 L431 493 L423 485 L421 480 L421 453 L422 452 L422 447 L425 441 L429 437 L439 433 L442 433 L443 436 L441 444 L441 467 L444 474 L449 478 L454 480 L466 481 L467 482 L565 481 L566 482 L641 483 L642 482 L654 481 L660 478 L664 472 L665 469 L665 448 L664 447 L664 440 L662 434 L663 432 L671 434 L677 437 L681 441 L684 449 L685 469 Z M321 456 L328 453 L331 453 L342 449 L344 450 L339 457 L328 479 L328 481 L318 502 L317 507 L309 527 L301 561 L301 570 L304 580 L301 581 L299 579 L295 570 L291 574 L284 587 L280 598 L277 617 L272 633 L274 632 L277 624 L283 594 L294 572 L298 580 L302 583 L301 588 L302 588 L305 581 L315 598 L322 599 L350 576 L364 562 L368 556 L370 550 L370 543 L371 542 L372 507 L373 506 L375 471 L376 470 L377 455 L378 454 L378 448 L380 440 L400 435 L405 435 L411 433 L435 430 L436 429 L443 429 L444 430 L432 433 L427 436 L423 440 L419 452 L419 460 L418 461 L419 483 L421 491 L425 499 L433 506 L441 509 L459 510 L460 511 L503 511 L510 515 L511 523 L512 524 L512 554 L511 555 L511 579 L510 580 L510 599 L509 600 L510 609 L513 615 L519 620 L542 632 L544 634 L550 636 L555 635 L580 621 L589 612 L591 605 L591 600 L590 599 L590 526 L591 525 L591 518 L596 512 L659 511 L660 510 L665 510 L675 506 L679 503 L683 497 L686 489 L687 476 L688 475 L687 455 L686 454 L685 445 L682 439 L679 436 L672 432 L664 431 L663 430 L664 429 L687 431 L688 432 L705 434 L711 436 L716 436 L725 439 L729 455 L731 473 L733 480 L733 486 L734 487 L736 514 L737 515 L737 526 L738 527 L739 552 L741 559 L745 566 L758 579 L787 602 L792 601 L799 589 L801 591 L801 606 L794 632 L790 642 L778 665 L764 684 L750 698 L739 704 L731 701 L715 698 L706 695 L701 695 L700 694 L678 691 L677 690 L664 689 L663 688 L636 686 L635 685 L625 685 L624 684 L594 683 L593 682 L568 682 L567 681 L515 681 L514 682 L461 683 L460 684 L447 684 L446 685 L414 687 L413 688 L406 688 L405 689 L380 692 L369 695 L362 695 L351 689 L337 676 L326 662 L318 649 L311 635 L306 621 L303 604 L302 603 L302 590 L300 591 L300 599 L301 600 L301 607 L305 623 L313 643 L315 645 L320 656 L332 673 L347 688 L361 696 L331 706 L317 713 L314 716 L330 708 L353 700 L379 694 L404 691 L405 690 L433 688 L434 687 L446 687 L447 686 L461 686 L462 685 L481 685 L482 684 L569 683 L570 684 L592 684 L593 685 L609 685 L610 686 L645 688 L646 689 L678 692 L679 693 L684 693 L685 694 L690 694 L696 696 L711 698 L735 704 L753 710 L779 722 L790 729 L789 727 L776 719 L742 704 L751 699 L759 692 L768 682 L778 668 L792 642 L799 622 L802 609 L802 604 L803 603 L803 592 L816 581 L819 585 L823 597 L826 618 L829 629 L831 631 L827 615 L824 594 L818 580 L816 579 L802 591 L799 587 L800 576 L799 575 L798 558 L789 520 L773 476 L759 448 L762 447 L766 449 L782 453 L791 467 L802 492 L816 533 L816 536 L823 556 L823 559 L826 566 L827 573 L835 598 L842 628 L844 648 L845 649 L845 660 L846 661 L846 681 L845 682 L845 694 L844 695 L844 702 L843 703 L843 712 L862 755 L868 776 L868 803 L867 804 L865 854 L864 855 L864 869 L863 870 L863 884 L862 885 L862 899 L861 900 L861 914 L860 915 L860 931 L859 932 L858 931 L857 886 L856 885 L856 870 L855 869 L854 846 L853 845 L853 839 L851 834 L851 829 L848 818 L843 809 L836 803 L833 802 L811 778 L796 766 L775 753 L755 744 L739 739 L717 735 L716 734 L697 732 L696 731 L689 731 L688 730 L680 730 L679 729 L642 727 L641 726 L618 726 L617 725 L517 725 L516 724 L495 724 L494 725 L455 725 L454 726 L421 727 L420 728 L410 728 L409 729 L399 729 L398 730 L375 732 L374 733 L369 733 L368 734 L363 734 L353 737 L349 737 L330 743 L313 751 L292 766 L280 778 L270 791 L268 792 L264 791 L256 792 L251 798 L247 806 L242 827 L240 849 L239 850 L239 860 L238 861 L237 886 L236 887 L236 899 L235 900 L235 914 L234 915 L234 932 L233 933 L232 932 L232 924 L231 923 L230 882 L229 881 L229 863 L228 862 L227 826 L226 825 L226 805 L225 804 L225 780 L228 768 L232 758 L242 738 L249 727 L257 709 L255 685 L254 684 L253 653 L254 652 L255 629 L256 628 L256 623 L260 606 L289 521 L299 496 L303 489 L303 487 L313 467 Z M661 429 L662 428 L664 429 L663 430 Z M443 429 L444 428 L445 429 L444 430 Z M443 444 L444 443 L445 432 L447 429 L454 427 L475 426 L476 425 L509 424 L510 423 L590 423 L591 424 L613 424 L614 425 L654 427 L658 428 L660 430 L662 446 L663 447 L663 469 L660 475 L656 478 L649 480 L640 480 L639 481 L566 480 L565 479 L527 479 L526 480 L469 480 L468 479 L460 479 L448 475 L443 468 Z M283 424 L284 423 L287 424 L286 425 Z M264 439 L265 424 L267 421 L271 424 L278 426 L284 426 L285 427 L277 431 L265 440 Z M820 424 L821 423 L827 423 L834 420 L836 422 L836 434 L835 435 L831 431 Z M813 420 L814 419 L815 420 L814 421 Z M810 419 L811 418 L813 419 L812 420 Z M808 418 L809 417 L811 418 L810 419 Z M305 417 L306 416 L307 417 L306 418 Z M307 416 L308 415 L309 416 L308 417 Z M841 412 L842 413 L842 420 L844 427 L845 446 L846 447 L846 456 L847 457 L847 469 L848 470 L848 478 L847 479 L844 475 L843 470 L841 467 L841 449 L840 448 L839 429 L838 428 L838 420 L837 419 L837 417 Z M795 413 L796 412 L797 413 L796 414 Z M793 412 L794 411 L796 412 L795 413 Z M259 411 L264 418 L263 431 L261 439 L261 447 L260 448 L260 455 L259 456 L259 466 L258 467 L258 471 L255 476 L255 485 L252 488 L250 488 L248 484 L249 483 L249 476 L251 468 L251 460 L253 453 L254 438 L255 437 L256 425 L257 424 L258 412 Z M258 483 L259 475 L267 466 L269 467 L278 460 L298 450 L325 440 L328 440 L341 435 L355 432 L359 430 L375 426 L379 426 L388 423 L407 420 L408 419 L413 419 L414 418 L425 417 L432 415 L438 415 L439 414 L446 414 L447 413 L475 411 L476 410 L490 410 L491 409 L512 409 L513 408 L597 408 L598 409 L619 409 L620 410 L647 411 L648 412 L657 412 L658 413 L687 416 L688 417 L700 418 L701 419 L725 423 L769 434 L795 443 L824 457 L823 455 L817 451 L803 444 L801 444 L791 439 L783 437 L780 435 L777 435 L767 431 L735 423 L726 422 L711 418 L706 418 L705 417 L689 415 L688 414 L682 414 L681 413 L675 413 L674 412 L649 410 L648 409 L638 409 L637 408 L604 407 L603 406 L545 405 L544 406 L508 406 L507 407 L474 408 L473 409 L454 410 L453 411 L424 414 L423 415 L418 415 L407 418 L392 420 L387 422 L383 422 L374 425 L358 428 L354 430 L347 431 L340 434 L337 434 L327 438 L318 440 L286 454 L272 464 L270 462 L265 466 L263 465 L270 457 L290 444 L308 435 L321 431 L343 421 L359 416 L366 415 L370 413 L386 410 L391 408 L400 407 L401 406 L406 406 L407 405 L412 405 L425 402 L431 402 L432 401 L438 401 L439 400 L447 400 L448 399 L455 399 L456 398 L467 398 L468 397 L480 397 L481 396 L524 395 L525 394 L592 394 L593 395 L618 395 L619 396 L634 396 L635 397 L657 398 L658 399 L667 399 L668 400 L696 403 L697 404 L707 405 L708 406 L727 409 L732 411 L736 411 L752 415 L777 423 L791 430 L793 430 L809 438 L823 447 L835 457 L836 459 L835 461 L831 459 L830 460 L840 470 L842 476 L837 481 L829 474 L818 467 L803 459 L798 458 L788 453 L756 443 L740 439 L736 439 L727 436 L702 432 L701 431 L675 428 L674 427 L667 427 L666 426 L658 426 L657 425 L635 424 L634 423 L620 423 L619 422 L535 420 L534 421 L503 421 L502 422 L487 422 L486 423 L451 425 L450 426 L443 426 L442 427 L435 427 L434 428 L428 428 L421 430 L415 430 L414 431 L404 432 L384 437 L380 437 L352 444 L338 449 L335 449 L323 454 L315 456 L312 458 L304 460 L274 476 L262 486 Z M372 388 L373 387 L375 388 L374 389 Z M730 387 L731 386 L734 387 L733 388 Z M369 387 L370 386 L372 387 L371 388 Z M734 386 L735 385 L737 386 L736 387 Z M367 386 L368 385 L369 386 L368 387 Z M737 385 L738 384 L739 385 L738 386 Z M681 385 L682 384 L684 385 L683 386 Z M739 384 L740 383 L741 384 L740 385 Z M262 449 L264 445 L271 438 L280 432 L310 418 L339 408 L342 408 L352 404 L363 402 L367 400 L371 400 L376 398 L380 398 L385 396 L405 393 L416 390 L435 388 L436 387 L443 387 L444 386 L451 386 L452 385 L474 384 L475 383 L492 383 L493 382 L627 382 L628 383 L642 383 L643 384 L663 385 L664 386 L671 386 L672 387 L679 387 L680 388 L705 391 L706 392 L730 396 L735 398 L739 398 L748 401 L752 401 L784 411 L804 419 L828 432 L837 442 L838 445 L838 455 L837 456 L828 445 L813 435 L785 423 L754 413 L734 408 L730 408 L725 406 L715 405 L714 404 L693 401 L692 400 L686 400 L685 399 L678 399 L677 398 L662 397 L661 396 L652 396 L651 395 L640 395 L639 394 L601 393 L600 392 L516 392 L515 393 L492 393 L491 394 L476 394 L475 395 L453 396 L452 397 L437 398 L436 399 L430 399 L429 400 L423 400 L422 401 L399 404 L360 413 L306 431 L275 447 L270 451 L263 460 L262 459 Z M851 380 L857 386 L861 394 L860 452 L859 453 L859 467 L858 468 L857 488 L855 493 L851 488 L845 486 L850 481 L850 471 L849 470 L846 427 L845 426 L845 419 L844 418 L844 406 L848 396 L849 388 L850 387 L850 381 Z M251 380 L252 381 L254 398 L257 405 L257 411 L256 412 L255 424 L253 431 L253 438 L252 439 L249 468 L248 469 L248 476 L247 477 L246 485 L247 489 L252 492 L253 494 L244 498 L239 505 L238 504 L238 492 L237 491 L237 455 L236 454 L236 391 L240 390 Z M534 378 L535 377 L539 378 L538 379 Z M530 377 L531 376 L534 377 L533 378 Z M285 377 L286 376 L287 377 L286 378 Z M821 376 L824 375 L827 377 L824 379 Z M526 376 L527 375 L530 376 L529 377 Z M523 375 L524 374 L527 375 L526 376 Z M521 374 L522 373 L524 374 L523 375 Z M519 373 L520 372 L522 373 L521 374 Z M290 372 L281 375 L277 379 L281 379 L285 377 L286 378 L283 381 L280 381 L282 383 L287 380 Z M817 372 L823 380 L826 380 L827 377 L829 376 L827 373 L825 373 L823 371 Z M596 370 L594 372 L583 377 L575 379 L570 379 L569 378 L584 374 L594 369 Z M513 370 L515 369 L520 372 L517 373 Z M511 369 L512 368 L514 369 L513 370 Z M595 369 L597 367 L599 368 L597 370 Z M510 368 L511 367 L512 368 L511 369 Z M508 367 L509 366 L511 367 L510 368 Z M598 367 L600 365 L602 366 L600 368 Z M507 366 L508 365 L509 366 L508 367 Z M601 365 L602 364 L603 365 L602 366 Z M505 365 L506 364 L508 365 L507 366 Z M602 364 L603 363 L605 364 L604 365 Z M504 364 L505 363 L506 364 L505 365 Z M604 363 L605 362 L606 363 L605 364 Z M503 363 L504 362 L505 363 L504 364 Z M605 362 L606 361 L607 362 L606 363 Z M502 362 L503 361 L504 362 L503 363 Z M606 361 L607 360 L608 361 L607 362 Z M500 361 L501 360 L503 361 L502 362 Z M607 360 L608 359 L609 360 L608 361 Z M499 360 L500 359 L501 360 L500 361 Z M608 359 L609 358 L610 359 L609 360 Z M498 359 L499 358 L500 359 L499 360 Z M724 392 L735 389 L749 381 L760 371 L769 357 L770 358 L770 363 L773 375 L779 390 L781 392 L784 399 L794 411 L791 412 L764 402 L761 402 L757 400 L741 396 L728 394 Z M609 358 L610 357 L611 358 L610 359 Z M497 358 L498 357 L499 358 L498 359 Z M496 357 L497 356 L498 357 L497 358 Z M495 356 L496 355 L497 356 L496 357 Z M384 394 L341 405 L317 413 L311 416 L308 415 L319 403 L328 387 L334 369 L336 353 L337 352 L344 367 L353 378 L363 386 L373 391 Z M705 343 L706 342 L707 343 L706 344 Z M827 342 L826 342 L826 362 L827 363 L824 365 L821 362 L821 359 L819 360 L819 363 L824 367 L828 365 L828 349 L827 348 L828 347 L832 349 L834 349 L835 347 L836 348 L836 346 L828 345 Z M712 342 L713 341 L719 341 L720 342 L719 343 L713 343 Z M397 342 L398 341 L401 342 L400 343 Z M290 342 L291 341 L292 342 L291 343 Z M286 342 L285 342 L284 346 L284 353 L285 354 L285 361 L286 363 L282 367 L280 365 L281 364 L281 346 L279 345 L278 348 L273 348 L269 351 L269 352 L272 353 L276 352 L278 350 L279 351 L279 367 L280 368 L284 368 L287 364 Z M776 340 L777 341 L777 352 L778 353 L779 364 L786 387 L795 403 L809 417 L808 418 L798 412 L788 401 L778 383 L773 367 L772 356 L771 355 L771 352 Z M708 341 L709 340 L712 341 L711 342 Z M405 341 L406 340 L407 341 L406 342 Z M700 339 L700 340 L704 342 L704 344 L708 348 L712 349 L718 349 L722 346 L716 348 L715 347 L710 347 L706 344 L707 343 L711 343 L712 344 L724 344 L727 343 L727 342 L722 342 L719 340 L713 340 L712 339 L703 340 Z M415 339 L411 339 L410 340 L405 339 L403 341 L398 340 L393 343 L391 343 L391 344 L403 344 L409 342 L410 343 L407 346 L403 346 L402 347 L395 346 L397 348 L405 348 L410 345 L411 343 L409 342 L410 341 L415 340 Z M809 336 L816 343 L820 344 L820 342 L817 338 Z M298 336 L291 339 L288 342 L288 345 L292 344 L298 338 Z M277 338 L272 336 L267 340 L272 338 L277 340 Z M828 338 L837 337 L835 335 L831 335 Z M551 334 L552 333 L557 333 L558 334 L566 333 L567 334 L563 336 L554 336 Z M561 331 L562 330 L564 331 L563 332 Z M720 329 L721 328 L722 330 L721 331 Z M544 330 L544 332 L549 333 L551 336 L555 338 L563 338 L568 335 L567 333 L568 332 L573 331 L573 330 L565 330 L564 329 L559 331 L556 329 L551 331 Z M808 326 L813 328 L818 333 L820 333 L815 327 L811 325 Z M298 324 L293 325 L289 329 L286 335 L288 335 L289 332 Z M581 379 L599 371 L614 358 L624 344 L634 320 L641 343 L650 358 L664 373 L681 384 L680 385 L674 385 L673 384 L666 384 L665 383 L645 382 L644 381 L630 381 L629 380 L582 380 Z M430 385 L446 374 L461 357 L470 340 L473 332 L474 324 L476 320 L482 339 L492 355 L507 369 L528 379 L527 380 L472 381 L471 382 L451 383 L450 384 L443 384 L442 385 L435 385 L434 386 Z M253 317 L254 318 L253 321 L252 320 Z M280 316 L281 315 L282 317 L281 318 Z M281 314 L282 313 L283 315 L282 316 Z M824 312 L825 313 L824 317 L823 316 Z M733 313 L734 312 L736 313 L735 314 Z M381 313 L382 312 L384 313 L383 314 Z M723 313 L724 312 L728 312 L729 313 L728 314 L725 314 L727 316 L734 316 L740 313 L743 310 L725 310 L723 311 Z M394 312 L391 310 L385 310 L376 313 L380 315 L390 315 L392 313 L394 313 Z M696 310 L700 308 L704 309 L701 311 L697 311 Z M694 309 L695 308 L696 309 L695 310 Z M822 308 L821 315 L822 318 L825 320 L827 314 L826 310 L824 308 Z M282 308 L279 311 L278 315 L280 320 L282 320 L284 316 L284 310 Z M418 306 L419 305 L420 306 L419 307 Z M425 303 L415 304 L408 309 L407 306 L405 307 L404 319 L405 320 L405 324 L408 326 L408 328 L404 329 L402 331 L399 330 L396 331 L395 330 L395 327 L396 326 L398 327 L398 321 L399 320 L398 310 L396 307 L397 325 L394 326 L393 329 L394 331 L402 333 L406 330 L408 330 L410 328 L410 326 L406 322 L406 309 L407 308 L408 311 L416 310 L420 308 L422 305 L424 305 Z M723 302 L724 301 L726 302 L725 303 Z M685 302 L686 304 L690 306 L693 306 L694 308 L693 309 L691 308 L691 309 L695 312 L703 312 L704 309 L707 310 L706 308 L702 306 L690 304 Z M742 305 L739 302 L735 301 L728 301 L726 302 L725 301 L726 299 L724 299 L719 304 L718 307 L718 321 L720 329 L716 332 L714 332 L711 329 L708 330 L706 327 L706 325 L708 324 L707 323 L705 325 L706 330 L711 331 L713 333 L722 332 L724 330 L724 328 L721 325 L720 322 L720 314 L719 313 L720 306 L723 302 L724 303 L723 305 L727 303 L737 303 Z M572 298 L573 297 L579 297 L580 298 L579 299 L573 299 Z M562 298 L561 300 L562 313 L563 316 L565 314 L566 315 L566 318 L565 319 L564 318 L560 321 L556 321 L554 319 L551 320 L549 318 L550 315 L549 314 L548 315 L548 319 L551 322 L554 321 L559 323 L562 321 L566 321 L568 319 L568 315 L564 312 L563 299 Z M552 297 L552 315 L554 314 L554 300 Z M374 300 L375 301 L379 299 L386 299 L392 302 L392 300 L387 297 L380 297 Z M686 296 L686 297 L699 298 L707 303 L704 299 L698 296 Z M527 296 L527 298 L529 297 L543 297 L544 298 L543 299 L532 299 L536 301 L541 301 L544 298 L547 299 L547 297 L542 295 Z M569 299 L571 298 L572 300 L582 300 L585 298 L580 298 L579 297 L580 296 L589 296 L590 294 L578 294 L569 297 Z M289 293 L293 294 L300 301 L305 312 L307 326 L308 327 L308 349 L307 350 L307 356 L304 368 L299 380 L295 386 L287 394 L279 396 L274 394 L269 389 L264 379 L262 371 L262 365 L261 364 L261 335 L262 334 L264 321 L272 304 L282 295 Z M741 295 L735 293 L727 295 L727 297 L733 295 L738 295 L739 296 L741 296 Z M814 290 L822 290 L826 292 L833 299 L840 316 L841 324 L842 325 L842 332 L843 333 L843 354 L842 355 L842 364 L839 377 L833 389 L830 392 L825 394 L820 393 L817 391 L808 380 L801 362 L800 353 L799 352 L799 345 L798 344 L798 324 L799 323 L799 317 L801 309 L808 295 Z M289 291 L288 292 L284 292 L278 295 L271 302 L264 315 L259 335 L259 365 L260 366 L261 376 L264 385 L267 390 L272 395 L279 398 L282 398 L289 395 L296 388 L300 382 L307 365 L309 349 L310 348 L310 328 L309 327 L309 321 L306 309 L299 296 L295 293 Z M426 289 L420 289 L415 291 L409 297 L409 299 L420 291 L426 291 Z M814 288 L810 290 L806 294 L799 308 L797 316 L797 321 L796 322 L796 347 L797 348 L797 354 L798 355 L799 363 L806 381 L810 387 L816 393 L825 396 L834 391 L839 383 L842 374 L843 366 L844 365 L844 356 L845 355 L845 333 L844 332 L844 325 L843 324 L842 315 L835 298 L831 293 L823 288 Z M247 287 L249 293 L250 311 L251 312 L251 377 L252 378 L239 389 L236 386 L232 375 L232 306 L233 302 L239 291 L242 288 Z M853 286 L856 287 L861 292 L865 301 L864 372 L863 373 L862 383 L860 386 L851 377 L852 348 L853 347 L851 304 L852 303 L852 290 L853 289 L852 287 Z M690 286 L690 287 L694 288 L703 293 L709 299 L709 297 L704 292 L693 286 Z M557 284 L555 286 L556 289 L558 289 L560 287 Z M527 285 L530 284 L540 285 L548 290 L550 290 L547 286 L540 283 L528 283 Z M565 290 L579 283 L586 283 L587 284 L589 284 L588 282 L575 282 L570 284 Z M841 277 L851 287 L851 297 L849 301 L844 286 L840 279 Z M399 277 L400 276 L401 277 L400 278 Z M713 275 L714 272 L718 272 L719 273 L714 276 Z M396 273 L397 272 L398 273 L397 274 Z M314 272 L324 282 L328 289 L332 301 L332 305 L333 306 L332 329 L333 330 L333 338 L335 344 L334 358 L327 384 L318 401 L299 420 L293 423 L287 424 L286 423 L287 422 L289 422 L298 416 L307 407 L312 400 L321 382 L327 359 L328 342 L329 341 L328 312 L323 291 L317 279 L312 273 Z M397 272 L398 271 L400 272 L399 273 Z M311 272 L312 271 L313 272 L312 273 Z M310 271 L311 270 L312 271 L311 272 Z M711 272 L711 276 L714 279 L718 280 L722 276 L721 272 L718 270 L714 270 Z M398 269 L395 271 L394 277 L395 279 L400 280 L403 277 L404 272 L402 270 Z M299 267 L305 269 L313 276 L319 286 L323 297 L325 311 L326 312 L326 320 L327 321 L326 352 L324 359 L324 365 L318 384 L309 401 L292 418 L284 422 L276 423 L270 421 L263 414 L259 406 L256 395 L255 385 L254 384 L254 373 L253 372 L253 348 L254 347 L255 326 L261 301 L270 284 L283 271 L290 268 Z M796 265 L797 266 L791 272 L784 285 L778 306 L775 293 L777 287 L786 272 L793 266 Z M796 265 L797 264 L798 265 L797 266 Z M807 262 L817 262 L826 266 L832 271 L838 279 L843 289 L849 311 L849 320 L850 321 L850 366 L849 367 L848 386 L845 399 L839 412 L833 418 L829 420 L821 420 L811 416 L796 401 L786 381 L779 353 L779 346 L778 345 L778 318 L779 317 L779 310 L782 297 L786 285 L794 271 L799 266 Z M554 263 L557 262 L559 264 L556 266 Z M554 260 L551 263 L551 267 L553 269 L557 270 L561 267 L561 262 L558 260 Z M810 259 L811 258 L814 259 L813 260 Z M697 258 L712 257 L723 260 L730 264 L743 277 L751 294 L752 303 L753 304 L753 320 L749 336 L742 348 L732 357 L725 360 L709 361 L695 356 L682 345 L677 338 L671 325 L669 317 L669 312 L668 311 L668 296 L671 284 L680 269 L690 261 Z M414 256 L420 258 L428 263 L434 269 L440 279 L444 294 L444 312 L443 313 L442 322 L440 328 L433 341 L417 357 L409 361 L401 363 L389 363 L381 361 L371 355 L364 347 L360 340 L357 331 L356 319 L355 318 L355 310 L356 309 L357 297 L364 280 L370 272 L379 264 L390 258 L397 256 L403 256 L404 255 Z M701 255 L686 261 L674 273 L667 289 L667 293 L666 294 L666 313 L670 329 L675 339 L682 348 L690 355 L701 361 L709 362 L710 363 L720 363 L735 357 L744 349 L751 337 L755 322 L755 303 L749 283 L742 272 L731 262 L718 256 Z M414 254 L409 254 L408 253 L397 254 L390 256 L377 263 L363 278 L356 293 L354 307 L353 308 L353 319 L354 320 L354 327 L357 338 L362 348 L368 355 L375 360 L385 364 L399 365 L400 364 L408 363 L420 357 L435 342 L441 331 L444 322 L445 314 L446 313 L446 293 L443 281 L436 268 L426 259 Z M454 248 L462 257 L468 267 L474 287 L474 319 L473 320 L473 325 L468 340 L462 352 L454 363 L442 375 L427 385 L418 388 L397 391 L396 392 L383 392 L375 390 L374 389 L375 388 L379 389 L401 389 L420 383 L437 372 L449 359 L456 348 L461 338 L467 318 L468 290 L467 289 L467 283 L466 282 L465 274 L461 263 L457 255 L453 250 Z M546 247 L564 247 L565 248 L569 248 L584 255 L598 269 L602 277 L605 287 L605 293 L606 294 L605 309 L602 319 L596 330 L583 343 L571 349 L563 350 L562 351 L543 350 L534 347 L525 342 L512 328 L508 320 L505 310 L504 295 L505 294 L505 288 L507 280 L510 273 L517 263 L525 256 L533 251 Z M452 248 L453 247 L454 248 L453 249 Z M657 246 L658 248 L650 260 L645 274 L644 283 L643 284 L643 291 L642 292 L642 308 L643 309 L644 321 L649 338 L656 352 L661 359 L675 373 L681 377 L693 383 L702 386 L713 387 L714 388 L730 387 L731 388 L730 389 L715 391 L714 390 L697 388 L685 384 L667 373 L653 359 L647 350 L641 338 L636 320 L636 315 L635 314 L635 308 L636 307 L636 285 L640 271 L646 259 Z M451 247 L452 246 L453 247 L452 248 Z M657 246 L658 245 L659 246 L658 247 Z M450 246 L451 245 L452 246 L451 247 Z M658 245 L659 244 L660 245 L659 246 Z M449 245 L450 244 L451 245 L450 246 Z M659 244 L660 243 L661 244 L660 245 Z M553 244 L552 245 L546 245 L535 248 L524 254 L515 262 L510 269 L504 283 L503 292 L502 293 L502 304 L503 305 L504 315 L510 329 L522 342 L534 349 L543 352 L562 353 L573 350 L583 345 L594 336 L601 326 L605 317 L607 309 L607 303 L608 302 L608 294 L607 293 L607 287 L604 276 L599 267 L589 256 L578 249 L565 245 Z M448 244 L449 243 L450 244 L449 245 Z M660 243 L661 242 L662 243 L661 244 Z M423 231 L435 235 L441 239 L452 250 L462 269 L466 286 L467 301 L466 302 L465 319 L461 334 L456 345 L447 359 L438 369 L424 379 L407 386 L395 387 L394 388 L378 387 L368 384 L357 378 L348 369 L344 363 L338 349 L335 336 L334 315 L335 314 L336 299 L340 284 L348 267 L356 256 L366 246 L376 239 L396 231 L401 231 L402 230 L418 230 L419 231 Z M724 230 L728 229 L748 234 L752 236 L755 236 L759 238 L762 238 L793 249 L811 258 L808 260 L799 261 L791 265 L783 273 L779 279 L775 289 L773 286 L768 271 L757 254 L741 239 Z M683 231 L691 229 L710 229 L711 230 L719 231 L732 236 L745 245 L754 254 L765 270 L770 281 L776 307 L776 326 L775 327 L775 333 L774 334 L773 342 L770 351 L762 365 L751 376 L738 383 L725 386 L712 386 L693 381 L681 375 L674 370 L663 359 L654 345 L654 343 L650 336 L646 322 L645 310 L644 309 L644 291 L645 290 L645 283 L646 282 L647 273 L651 262 L659 249 L670 238 Z M720 229 L721 228 L725 229 L724 230 Z M717 228 L718 227 L721 228 L720 229 Z M712 227 L713 226 L716 227 L715 228 Z M544 220 L566 220 L567 221 L572 221 L585 225 L600 233 L617 249 L622 256 L629 270 L633 286 L634 303 L633 304 L632 317 L627 332 L618 347 L605 360 L591 369 L575 375 L565 376 L564 377 L543 377 L542 376 L533 375 L517 369 L506 362 L489 344 L483 333 L477 314 L477 306 L476 305 L477 286 L483 266 L493 249 L506 236 L515 230 L525 225 Z M711 226 L710 227 L703 227 L702 226 L700 227 L690 227 L676 231 L662 239 L650 250 L643 260 L638 271 L635 281 L633 278 L630 267 L621 251 L606 235 L596 228 L586 223 L568 218 L550 217 L549 218 L537 219 L527 222 L514 228 L497 241 L485 257 L479 270 L477 280 L475 284 L471 270 L466 260 L459 250 L448 240 L436 233 L425 229 L421 229 L420 228 L400 228 L383 233 L377 236 L365 244 L354 255 L348 263 L341 276 L334 298 L332 296 L330 289 L324 279 L315 270 L303 265 L292 265 L281 270 L270 280 L261 295 L257 306 L255 317 L254 318 L252 316 L252 303 L251 302 L251 295 L249 288 L254 283 L273 270 L306 253 L308 253 L328 244 L367 232 L379 230 L401 224 L410 223 L411 222 L416 222 L427 219 L445 217 L452 215 L477 213 L478 212 L488 212 L489 211 L501 211 L502 210 L520 210 L521 209 L587 209 L588 210 L606 210 L607 211 L619 211 L620 212 L646 214 L647 215 L660 216 L661 217 L684 220 L690 222 L695 222 Z M297 199 L298 198 L299 200 L298 201 Z M296 197 L297 196 L298 198 L297 199 Z M791 196 L793 194 L800 205 L811 212 L810 213 L805 213 L801 211 L795 205 L791 198 Z M790 195 L791 192 L793 194 L791 196 Z M285 193 L286 192 L287 193 L286 194 Z M794 192 L795 191 L796 192 L795 193 Z M804 190 L805 189 L806 190 L805 191 Z M787 190 L787 192 L774 200 L772 199 L782 191 L786 189 Z M286 192 L289 189 L292 190 L291 192 L288 193 Z M293 189 L295 188 L298 191 L296 193 Z M308 187 L309 186 L310 187 L309 188 Z M295 186 L296 185 L297 186 L296 187 Z M307 184 L309 188 L307 190 L306 189 L306 185 Z M803 183 L804 187 L800 197 L798 198 L795 193 L799 190 Z M804 180 L805 181 L804 184 L803 183 Z M805 176 L806 177 L805 180 L804 179 Z M305 173 L306 174 L305 187 L301 199 L298 196 L298 194 L302 186 Z M806 172 L807 173 L806 176 L805 175 Z M807 163 L808 164 L808 170 L807 171 L806 170 L806 164 Z M664 163 L667 162 L671 164 L674 164 L675 163 L684 162 L686 166 L691 171 L699 175 L707 177 L716 177 L719 180 L716 183 L708 184 L694 178 L684 168 L674 169 L667 166 Z M373 161 L374 160 L375 161 L374 162 Z M683 160 L684 159 L685 160 L684 161 Z M548 161 L544 166 L538 170 L525 175 L509 174 L500 170 L498 168 L499 165 L502 165 L510 168 L525 169 L526 168 L534 167 L541 163 L545 159 Z M395 156 L399 155 L402 158 L399 162 Z M689 153 L690 156 L685 160 L684 159 Z M394 155 L393 158 L383 158 L376 161 L374 160 L378 156 L385 153 L391 153 Z M678 150 L679 149 L681 151 L687 153 L681 159 Z M252 149 L253 150 L254 166 L255 167 L255 177 L256 178 L256 186 L257 187 L258 207 L259 208 L259 216 L260 217 L262 249 L263 250 L264 270 L265 271 L262 275 L257 278 L256 277 L256 258 L255 257 L254 230 L253 229 L251 194 L250 193 L248 159 L247 158 L248 154 Z M306 148 L307 149 L307 172 L306 173 L305 172 L305 149 Z M717 145 L712 150 L704 155 L701 156 L694 156 L693 155 L694 154 L698 154 L715 144 Z M717 144 L718 143 L721 144 L720 145 Z M305 143 L306 144 L305 148 L304 147 Z M838 142 L846 149 L846 151 L845 152 L845 160 L844 161 L843 177 L842 178 L842 188 L841 189 L838 230 L837 231 L837 242 L836 243 L835 268 L834 269 L825 262 L826 261 L825 262 L824 261 L824 257 L825 256 L827 226 L828 225 L829 207 L830 206 L830 198 L831 197 L831 188 L832 187 L833 171 L834 170 L835 151 L836 150 L836 143 Z M555 142 L556 141 L557 142 L556 143 Z M532 142 L531 144 L519 145 L504 151 L502 150 L507 145 L518 140 L530 139 Z M304 139 L305 140 L304 143 L303 142 Z M303 136 L304 137 L303 140 L302 139 Z M794 135 L795 138 L791 147 L790 155 L789 156 L789 162 L788 163 L789 179 L792 188 L789 189 L787 186 L787 182 L786 181 L786 159 L787 158 L787 153 L789 145 Z M301 135 L302 134 L303 136 L302 137 Z M794 134 L795 133 L796 135 L795 136 Z M795 133 L796 132 L797 133 L796 134 Z M800 128 L802 130 L807 142 L808 155 L807 156 L806 155 L805 143 L803 141 L804 143 L804 151 L805 152 L805 166 L801 183 L798 189 L795 190 L793 188 L791 181 L790 160 L791 159 L791 154 L794 142 L798 134 L798 132 L797 133 L796 131 Z M298 128 L302 132 L301 135 L300 133 L299 134 L302 141 L303 152 L304 153 L303 175 L302 176 L301 184 L299 187 L294 176 L293 161 L292 162 L292 174 L296 184 L295 186 L292 185 L290 178 L290 172 L289 171 L289 156 L290 155 L291 144 L295 132 Z M596 130 L595 131 L579 132 L568 136 L558 142 L556 141 L563 134 L575 129 L587 127 L588 128 L593 128 Z M259 124 L262 125 L262 140 L263 141 L265 171 L266 172 L266 180 L267 181 L267 191 L268 192 L268 200 L269 201 L269 211 L270 212 L273 252 L274 253 L274 263 L275 264 L275 266 L267 272 L266 271 L265 246 L264 245 L264 235 L263 234 L263 224 L262 223 L261 205 L260 204 L260 196 L259 195 L259 185 L258 184 L258 174 L257 173 L255 146 L254 145 L247 153 L246 152 L247 138 L250 132 Z M839 123 L843 125 L848 131 L848 143 L846 146 L841 142 L836 140 L837 139 L837 130 Z M699 123 L700 124 L700 128 L699 129 L698 128 L698 124 Z M700 117 L701 118 L701 122 L700 123 L699 122 L699 118 Z M779 106 L784 107 L801 115 L803 115 L824 127 L823 129 L823 137 L822 138 L822 146 L821 147 L819 176 L817 181 L812 181 L811 183 L813 182 L817 182 L818 183 L811 186 L806 190 L805 186 L808 179 L809 169 L810 168 L810 148 L809 147 L809 143 L806 134 L801 126 L798 126 L792 134 L787 146 L784 159 L784 180 L786 187 L775 194 L770 199 L770 202 L774 202 L787 194 L795 208 L792 214 L783 223 L776 226 L770 226 L768 224 L769 223 L779 222 L782 219 L778 221 L769 221 L767 223 L767 226 L770 228 L779 227 L786 223 L791 218 L796 210 L806 215 L811 214 L813 211 L806 208 L800 202 L800 200 L804 193 L817 185 L818 186 L817 187 L817 194 L816 195 L816 204 L815 205 L814 223 L813 224 L813 232 L812 233 L812 244 L811 245 L811 253 L810 254 L787 244 L765 237 L762 235 L763 223 L764 222 L764 214 L765 213 L765 205 L766 204 L766 196 L767 195 L767 187 L768 186 L768 178 L769 177 L769 170 L770 169 L770 162 L771 161 L771 154 L772 153 L772 147 L774 139 L777 110 Z M317 106 L318 107 L319 121 L320 122 L320 128 L321 129 L321 135 L323 143 L324 158 L326 165 L326 172 L328 180 L328 187 L329 188 L329 195 L330 196 L330 203 L331 204 L331 211 L332 212 L332 219 L333 220 L335 239 L332 241 L327 242 L307 250 L289 259 L287 253 L287 243 L286 242 L282 198 L291 193 L293 193 L296 202 L301 208 L301 210 L295 218 L292 220 L286 221 L287 222 L292 222 L300 215 L303 210 L307 212 L313 212 L317 210 L322 204 L321 202 L317 208 L313 210 L306 210 L300 205 L298 201 L299 200 L304 205 L308 207 L313 206 L314 205 L307 205 L303 201 L305 192 L308 191 L317 183 L322 181 L324 178 L321 177 L322 179 L316 182 L310 187 L309 184 L308 185 L307 184 L308 169 L309 168 L308 146 L305 138 L305 135 L302 129 L298 125 L293 133 L288 151 L287 168 L288 169 L288 177 L291 186 L285 190 L282 196 L281 195 L278 157 L277 156 L275 129 L274 128 L288 118 L304 110 Z M696 100 L684 112 L676 129 L675 147 L677 155 L681 159 L675 162 L670 162 L661 157 L660 160 L665 167 L671 170 L675 171 L683 170 L691 178 L697 182 L706 185 L714 185 L720 181 L719 177 L701 174 L692 169 L685 162 L692 157 L694 158 L704 157 L712 152 L717 147 L723 145 L723 143 L721 141 L716 142 L699 152 L698 151 L697 152 L696 151 L690 152 L687 150 L681 149 L677 146 L677 133 L680 123 L684 115 L693 104 L699 101 L701 103 L701 108 L700 109 L697 106 L690 113 L685 120 L680 133 L680 140 L681 144 L683 145 L682 134 L684 126 L688 118 L697 108 L698 109 L697 128 L691 148 L692 148 L695 142 L698 129 L699 130 L699 135 L696 144 L696 149 L698 147 L698 143 L701 133 L702 120 L703 119 L703 105 L700 100 Z M545 88 L548 95 L549 104 L550 105 L550 121 L549 122 L549 127 L547 135 L543 141 L537 129 L536 109 L540 95 Z M331 83 L332 84 L332 92 L333 93 L336 123 L337 124 L337 132 L338 133 L338 140 L339 141 L339 149 L340 150 L340 158 L341 159 L343 186 L344 187 L345 204 L346 205 L346 213 L347 214 L347 222 L348 223 L349 234 L347 236 L341 237 L338 239 L336 238 L336 228 L335 227 L333 204 L331 196 L331 188 L330 187 L329 173 L328 172 L328 166 L326 158 L326 151 L325 150 L325 144 L324 143 L324 137 L322 129 L322 122 L321 121 L319 105 L316 104 L304 108 L288 116 L273 127 L273 136 L274 137 L274 147 L275 148 L276 166 L277 167 L279 197 L280 198 L282 225 L283 226 L285 251 L286 252 L286 259 L287 260 L278 265 L277 264 L277 257 L276 256 L274 224 L273 223 L273 214 L272 213 L271 195 L270 194 L269 176 L268 175 L268 166 L267 165 L267 156 L266 155 L264 122 L273 111 L285 103 L307 92 Z M766 80 L772 81 L792 89 L818 102 L831 110 L836 116 L834 141 L833 142 L833 151 L832 152 L831 169 L830 170 L830 179 L829 180 L829 189 L828 190 L828 199 L827 200 L827 209 L826 210 L826 219 L825 220 L825 228 L824 229 L824 238 L823 239 L822 259 L821 260 L813 256 L812 254 L813 253 L816 213 L817 212 L817 204 L818 203 L818 195 L819 194 L819 186 L820 185 L820 177 L821 176 L821 168 L822 167 L824 137 L825 136 L825 125 L809 116 L807 116 L796 110 L780 104 L777 104 L776 107 L773 133 L771 140 L771 148 L770 149 L769 163 L768 164 L767 178 L766 179 L766 187 L765 188 L765 196 L763 204 L761 234 L758 235 L748 231 L750 209 L751 208 L751 199 L752 198 L752 190 L753 189 L753 181 L754 180 L755 164 L756 163 L757 147 L758 146 L758 138 L759 137 L761 113 L762 112 L762 105 L763 104 L763 96 L764 95 L765 81 Z M340 80 L345 80 L346 81 L345 82 L346 83 L346 91 L347 92 L347 100 L348 101 L348 109 L349 110 L349 117 L350 118 L350 126 L351 127 L351 135 L352 136 L352 144 L353 145 L353 153 L354 154 L354 162 L355 163 L356 180 L357 181 L357 189 L358 190 L358 199 L359 200 L361 231 L354 234 L351 233 L351 227 L350 226 L348 201 L347 200 L347 191 L346 190 L346 182 L345 181 L345 173 L344 172 L344 163 L343 162 L342 146 L341 145 L340 129 L339 128 L339 120 L338 119 L338 112 L337 111 L337 104 L336 103 L336 96 L335 95 L335 88 L334 87 L334 84 Z M756 76 L763 80 L763 84 L761 92 L760 109 L759 110 L759 117 L758 118 L757 133 L756 134 L756 141 L755 142 L755 150 L754 151 L754 158 L753 159 L753 167 L752 168 L752 176 L751 177 L751 184 L750 185 L746 230 L744 231 L736 229 L735 225 L736 224 L737 202 L738 201 L738 192 L739 191 L739 183 L740 182 L740 174 L741 173 L741 164 L742 163 L742 154 L743 153 L743 144 L744 143 L744 135 L745 134 L745 125 L746 124 L746 117 L747 116 L747 109 L748 108 L750 83 L751 82 L751 77 L752 76 Z M543 76 L546 76 L549 79 L553 87 L556 96 L557 109 L558 110 L557 128 L553 145 L550 150 L544 143 L546 141 L549 133 L549 129 L551 124 L551 117 L552 116 L551 102 L547 88 L545 85 L539 95 L534 112 L534 123 L537 134 L546 149 L555 157 L567 160 L576 159 L582 157 L583 158 L580 160 L572 163 L566 163 L565 164 L553 162 L545 157 L539 151 L531 138 L527 123 L528 107 L532 94 L537 84 Z M653 74 L673 76 L674 77 L679 77 L680 78 L700 81 L720 86 L727 89 L730 89 L733 91 L732 93 L732 102 L731 103 L731 114 L730 115 L730 125 L729 126 L726 166 L725 167 L725 175 L724 176 L723 197 L722 198 L721 216 L720 217 L720 224 L719 225 L717 224 L718 223 L717 224 L713 224 L687 218 L675 217 L674 216 L650 213 L649 212 L643 212 L642 211 L643 192 L644 191 L644 177 L645 176 L646 147 L647 146 L647 133 L648 132 L648 120 L649 119 L649 107 L650 106 L650 94 L651 93 L651 82 Z M445 74 L447 78 L447 88 L448 89 L448 98 L449 99 L449 110 L450 111 L450 122 L451 123 L451 133 L452 134 L452 144 L453 145 L453 158 L454 159 L457 212 L456 213 L450 213 L449 214 L443 214 L442 215 L419 218 L418 219 L399 222 L394 224 L390 224 L381 227 L377 227 L376 226 L376 216 L375 215 L375 206 L374 205 L374 197 L373 196 L370 164 L371 163 L374 164 L385 159 L394 160 L407 173 L396 183 L390 186 L386 186 L385 187 L375 186 L378 188 L392 187 L402 181 L408 174 L415 176 L427 175 L436 170 L443 162 L441 160 L428 167 L424 168 L416 168 L413 167 L412 165 L415 159 L424 149 L431 144 L442 140 L443 137 L442 136 L434 136 L426 140 L423 143 L431 138 L435 138 L436 137 L440 137 L441 138 L426 145 L415 156 L409 165 L403 163 L406 166 L414 169 L429 168 L437 164 L438 165 L433 170 L424 174 L413 174 L404 169 L401 166 L400 163 L406 155 L411 144 L414 132 L414 121 L409 109 L404 104 L399 102 L399 104 L405 107 L409 112 L412 121 L412 131 L411 132 L410 141 L403 156 L401 153 L394 153 L390 144 L389 135 L388 134 L388 120 L392 105 L396 100 L399 99 L407 102 L413 108 L417 116 L418 127 L419 128 L417 145 L420 146 L419 145 L420 142 L420 132 L421 131 L420 129 L420 121 L417 111 L411 103 L405 99 L396 98 L391 104 L387 117 L387 137 L390 149 L392 151 L391 152 L388 151 L382 152 L378 154 L371 162 L369 157 L369 148 L368 147 L368 138 L367 137 L363 93 L365 91 L372 88 L402 79 L417 77 L418 76 L424 76 L425 75 Z M546 74 L543 74 L538 79 L531 91 L527 102 L526 112 L525 113 L525 123 L526 124 L526 129 L529 136 L524 138 L515 139 L506 144 L501 149 L501 152 L503 153 L521 146 L532 146 L544 158 L540 162 L529 167 L513 167 L500 163 L497 164 L496 168 L500 172 L504 174 L515 177 L523 177 L536 173 L544 168 L550 162 L557 165 L570 165 L577 163 L583 160 L587 156 L584 154 L572 158 L560 157 L555 155 L552 152 L554 146 L556 144 L558 144 L562 141 L578 134 L597 133 L598 132 L598 129 L592 126 L580 126 L567 130 L558 136 L557 135 L559 128 L559 121 L560 120 L559 100 L553 82 L548 75 Z M469 70 L470 71 L470 80 L469 81 L468 80 L468 71 Z M468 53 L469 54 L469 67 L468 68 L467 67 L467 54 Z M466 53 L467 52 L468 53 L467 54 Z M463 51 L465 53 L465 64 L466 65 L466 78 L467 79 L470 131 L471 132 L471 146 L472 147 L472 164 L473 165 L475 210 L474 211 L465 211 L464 212 L460 212 L459 211 L455 146 L454 145 L453 121 L452 120 L452 109 L451 108 L451 98 L450 97 L448 72 L435 72 L434 73 L412 75 L384 82 L361 91 L363 119 L364 120 L365 138 L366 139 L366 148 L367 149 L367 157 L368 158 L368 168 L369 169 L370 186 L371 187 L371 195 L372 196 L372 204 L373 205 L373 214 L374 215 L374 223 L375 224 L375 227 L373 229 L365 230 L363 227 L360 186 L359 185 L359 177 L358 176 L358 168 L357 167 L357 159 L356 158 L356 149 L355 148 L352 113 L351 112 L351 105 L350 104 L350 97 L349 96 L349 89 L348 88 L348 79 L356 75 L377 68 L380 68 L387 65 L407 60 Z M633 50 L635 51 L642 51 L643 52 L650 52 L651 53 L658 53 L665 55 L671 55 L672 56 L677 56 L678 57 L697 60 L717 65 L721 67 L724 67 L737 72 L740 72 L746 74 L749 77 L748 79 L747 95 L746 96 L745 112 L744 113 L743 129 L742 130 L739 167 L738 168 L737 186 L736 187 L736 196 L735 197 L735 206 L734 207 L734 218 L733 219 L733 227 L732 228 L726 226 L722 226 L721 224 L722 223 L722 216 L723 215 L726 179 L727 178 L727 168 L728 167 L728 159 L729 158 L729 148 L730 147 L731 126 L732 125 L732 115 L733 114 L733 102 L734 101 L734 89 L716 83 L700 80 L695 78 L686 77 L685 76 L666 74 L665 73 L655 73 L654 72 L650 73 L647 118 L646 119 L646 130 L645 131 L645 143 L644 144 L644 157 L643 158 L641 207 L639 211 L624 210 L623 209 L624 182 L625 181 L625 160 L626 159 L626 142 L627 141 L627 123 L628 122 L628 105 L629 104 L630 71 L631 70 L631 55 L632 54 L631 52 Z M616 49 L624 49 L629 52 L627 97 L626 98 L626 115 L625 116 L625 135 L624 136 L624 153 L623 154 L622 195 L621 196 L621 208 L620 209 L612 209 L609 207 L613 65 L614 64 L614 51 Z M481 49 L484 49 L486 51 L489 170 L490 171 L490 199 L491 200 L491 208 L485 210 L478 210 L477 209 L476 174 L475 173 L475 151 L474 150 L474 130 L473 129 L473 109 L472 108 L472 77 L471 76 L471 52 L474 50 L480 50 Z M489 48 L515 47 L516 46 L574 46 L575 47 L610 48 L612 50 L612 56 L611 57 L611 80 L610 81 L610 109 L609 110 L609 139 L608 140 L608 176 L607 177 L607 205 L606 206 L607 207 L606 208 L595 208 L594 207 L515 207 L514 208 L499 208 L498 209 L494 209 L493 208 L492 165 L491 164 L491 132 L490 131 L490 102 L489 101 L489 77 L488 76 L488 54 L487 53 L487 50 Z M531 43 L530 44 L496 45 L495 46 L488 46 L486 48 L485 47 L476 47 L472 49 L458 49 L451 51 L445 51 L444 52 L420 55 L419 56 L415 56 L389 62 L357 72 L354 74 L349 75 L347 77 L342 77 L333 81 L328 81 L303 91 L277 105 L268 112 L261 122 L257 122 L250 128 L245 136 L244 139 L244 156 L245 157 L245 164 L246 165 L247 188 L248 189 L250 223 L251 224 L254 280 L250 284 L245 284 L241 286 L236 291 L230 304 L229 366 L230 367 L231 380 L235 389 L234 390 L233 413 L234 414 L234 461 L235 462 L236 512 L238 517 L242 521 L248 523 L256 523 L257 524 L249 543 L239 573 L236 587 L233 594 L233 598 L230 606 L230 610 L226 625 L226 630 L225 631 L223 647 L222 648 L222 655 L221 656 L220 676 L219 677 L219 762 L220 763 L221 780 L223 786 L222 787 L222 793 L223 794 L223 813 L224 814 L223 815 L215 815 L211 817 L207 823 L206 832 L207 833 L207 844 L208 845 L210 878 L211 879 L211 889 L212 890 L212 900 L213 901 L214 924 L215 925 L215 934 L216 935 L217 953 L218 954 L218 965 L219 966 L219 977 L220 978 L220 989 L221 990 L221 1002 L222 1003 L222 1015 L223 1016 L223 1026 L224 1027 L225 1050 L226 1051 L226 1060 L228 1067 L235 1257 L236 1258 L238 1309 L239 1310 L239 1330 L240 1331 L240 1336 L243 1343 L248 1347 L259 1350 L262 1349 L264 1350 L280 1350 L285 1348 L289 1342 L290 1314 L291 1313 L293 1242 L294 1241 L294 1234 L296 1227 L301 1220 L337 1271 L361 1301 L395 1335 L425 1359 L442 1370 L466 1382 L496 1392 L500 1392 L516 1396 L522 1396 L523 1397 L532 1397 L533 1398 L564 1398 L565 1397 L574 1397 L575 1396 L592 1394 L608 1390 L630 1382 L651 1371 L676 1353 L689 1342 L718 1313 L735 1293 L755 1266 L791 1211 L794 1216 L795 1228 L796 1229 L798 1335 L799 1336 L800 1345 L802 1348 L809 1351 L833 1351 L843 1348 L849 1343 L853 1334 L853 1328 L854 1327 L855 1287 L856 1286 L858 1236 L859 1235 L860 1203 L861 1202 L861 1183 L862 1182 L862 1164 L863 1163 L863 1142 L864 1141 L864 1122 L865 1121 L867 1066 L869 1059 L870 1041 L871 1040 L875 951 L876 950 L878 917 L879 916 L881 884 L882 883 L882 874 L883 873 L886 826 L884 821 L880 817 L870 816 L869 815 L870 814 L871 783 L872 782 L874 765 L875 764 L877 732 L878 731 L878 714 L879 713 L879 668 L878 667 L878 656 L877 655 L877 647 L876 646 L874 625 L872 619 L870 604 L861 568 L849 532 L840 511 L841 509 L848 508 L854 505 L858 498 L860 473 L861 472 L861 460 L862 459 L863 420 L864 419 L864 397 L863 396 L863 392 L861 389 L864 384 L865 376 L866 375 L866 366 L867 365 L867 331 L868 330 L868 304 L864 292 L860 287 L855 284 L852 284 L844 276 L837 271 L840 225 L841 224 L842 202 L843 201 L844 182 L845 181 L845 173 L846 172 L846 164 L847 163 L847 153 L849 151 L850 147 L850 130 L846 124 L838 120 L838 114 L835 110 L816 98 L798 89 L796 89 L768 77 L765 78 L761 75 L755 73 L750 74 L748 72 L712 61 L691 57 L690 56 L686 56 L685 55 L681 55 L680 54 L655 51 L654 50 L647 50 L646 49 L639 49 L638 48 L631 48 L629 49 L626 47 L613 47 L605 45 L585 45 L584 44 Z" fill="#eef3f4" fill-rule="evenodd"/>
</svg>
