<svg xmlns="http://www.w3.org/2000/svg" width="1086" height="1448" viewBox="0 0 1086 1448">
  <title>0021</title>
  <path d="M762 1227 L763 1226 L764 1227 L763 1228 Z M321 1226 L322 1225 L323 1226 L322 1227 Z M761 1225 L762 1224 L763 1225 L762 1226 Z M322 1224 L323 1223 L324 1224 L323 1225 Z M619 1201 L620 1200 L621 1201 L620 1202 Z M461 1201 L462 1200 L468 1204 L479 1208 L500 1212 L512 1216 L520 1221 L533 1235 L539 1238 L544 1238 L550 1235 L563 1221 L570 1217 L583 1213 L599 1210 L608 1207 L618 1201 L620 1203 L611 1212 L602 1217 L594 1224 L589 1231 L579 1253 L572 1263 L561 1275 L554 1291 L553 1305 L552 1306 L553 1311 L552 1312 L534 1312 L533 1311 L532 1291 L526 1277 L509 1257 L505 1251 L497 1233 L492 1226 L483 1218 L469 1210 Z M620 1200 L621 1199 L622 1200 L621 1201 Z M460 1200 L461 1199 L462 1200 L461 1201 Z M754 1185 L755 1186 L755 1193 L756 1194 L757 1204 L762 1221 L761 1225 L744 1205 Z M333 1185 L343 1204 L324 1224 L323 1221 L327 1211 L331 1194 L331 1189 Z M459 1132 L463 1131 L469 1133 L474 1133 L481 1135 L489 1135 L490 1136 L522 1136 L523 1137 L533 1137 L540 1139 L547 1139 L553 1137 L562 1137 L563 1136 L596 1136 L597 1135 L611 1134 L621 1131 L625 1132 L615 1151 L603 1164 L595 1170 L587 1174 L574 1177 L513 1177 L512 1176 L507 1176 L499 1174 L484 1166 L474 1157 L464 1143 Z M447 1124 L448 1123 L456 1123 L457 1124 L464 1124 L465 1125 L472 1125 L473 1126 L480 1126 L481 1127 L491 1127 L492 1128 L510 1127 L523 1124 L533 1124 L542 1127 L545 1127 L552 1124 L562 1124 L563 1125 L568 1125 L574 1127 L583 1127 L584 1128 L597 1128 L598 1127 L607 1127 L608 1126 L623 1125 L624 1124 L633 1124 L634 1125 L618 1130 L601 1132 L600 1133 L556 1134 L549 1136 L537 1136 L530 1134 L486 1133 L485 1132 L479 1132 L478 1131 L472 1131 L467 1129 L463 1129 Z M343 1081 L344 1080 L348 1089 L357 1101 L371 1110 L383 1113 L399 1112 L414 1107 L431 1098 L461 1078 L475 1071 L491 1067 L501 1067 L516 1071 L527 1081 L533 1093 L539 1098 L547 1098 L549 1097 L554 1092 L560 1080 L566 1074 L573 1070 L581 1068 L601 1069 L610 1072 L624 1079 L657 1100 L676 1110 L687 1114 L696 1115 L697 1116 L713 1115 L725 1110 L738 1099 L742 1094 L748 1082 L749 1086 L745 1100 L740 1110 L735 1117 L727 1125 L721 1129 L705 1135 L698 1135 L697 1136 L683 1135 L665 1130 L648 1123 L633 1122 L632 1121 L611 1123 L603 1125 L577 1125 L576 1124 L558 1122 L557 1121 L556 1122 L550 1122 L543 1125 L536 1122 L531 1122 L530 1121 L520 1122 L514 1124 L508 1124 L507 1125 L484 1125 L483 1124 L468 1123 L460 1121 L438 1121 L437 1122 L432 1122 L405 1132 L386 1133 L375 1130 L367 1126 L358 1118 L352 1110 L347 1100 L344 1091 Z M341 1077 L342 1093 L349 1110 L354 1117 L363 1126 L369 1130 L383 1135 L394 1136 L395 1135 L403 1135 L411 1133 L435 1124 L440 1124 L455 1129 L457 1131 L458 1136 L467 1152 L481 1167 L497 1176 L509 1179 L515 1179 L516 1180 L570 1180 L571 1179 L578 1179 L589 1176 L601 1169 L610 1161 L622 1144 L626 1136 L627 1131 L629 1129 L641 1125 L646 1125 L672 1135 L680 1137 L685 1137 L686 1138 L703 1138 L714 1135 L727 1128 L739 1116 L746 1104 L751 1088 L751 1078 L749 1077 L738 1095 L727 1106 L720 1110 L711 1113 L694 1113 L693 1112 L685 1111 L675 1107 L650 1093 L627 1078 L611 1070 L598 1066 L589 1066 L588 1065 L587 1066 L578 1066 L566 1071 L560 1076 L557 1080 L552 1091 L548 1095 L540 1096 L535 1092 L530 1081 L520 1071 L512 1067 L504 1065 L489 1065 L474 1069 L460 1076 L433 1094 L413 1105 L397 1110 L379 1110 L372 1108 L362 1102 L352 1091 L344 1076 Z M544 1052 L548 1067 L548 1082 L544 1090 L545 1090 L548 1087 L550 1080 L550 1068 L547 1055 Z M475 1029 L484 1028 L490 1030 L508 1040 L521 1045 L530 1046 L531 1047 L556 1047 L557 1046 L562 1046 L575 1042 L600 1029 L610 1028 L612 1030 L612 1028 L610 1026 L602 1026 L596 1028 L573 1040 L564 1043 L554 1044 L553 1045 L535 1045 L534 1044 L528 1044 L520 1041 L517 1041 L486 1026 L478 1026 Z M610 980 L602 979 L599 981 L600 982 L601 981 L606 981 L613 984 L621 993 L626 1008 L626 1023 L624 1029 L616 1036 L613 1037 L595 1037 L590 1039 L587 1042 L590 1042 L593 1040 L597 1040 L598 1039 L615 1039 L618 1038 L625 1032 L627 1028 L628 1020 L629 1019 L629 1012 L625 996 L619 986 Z M477 980 L472 983 L467 988 L461 1000 L460 1008 L459 1009 L459 1023 L460 1027 L464 1034 L470 1038 L473 1039 L491 1039 L500 1042 L498 1039 L493 1037 L476 1037 L468 1034 L463 1028 L461 1021 L461 1012 L462 1011 L462 1005 L468 991 L478 982 L481 981 L488 982 L488 980 L486 979 Z M383 878 L384 877 L385 878 L384 879 Z M624 875 L625 876 L626 884 L632 894 L618 899 L604 907 L603 904 L606 897 L616 883 Z M462 874 L467 878 L480 895 L484 903 L483 907 L469 899 L454 894 L457 891 L460 885 L461 877 L462 876 L461 875 Z M252 859 L253 858 L254 859 L253 860 Z M653 856 L654 858 L652 862 L652 871 L656 880 L663 886 L660 888 L656 888 L635 894 L629 886 L626 874 L632 868 Z M433 854 L435 855 L434 856 L436 855 L445 860 L455 867 L460 872 L460 878 L457 887 L451 894 L433 889 L425 888 L422 886 L429 880 L432 875 L434 868 L434 862 L432 857 Z M431 854 L432 853 L433 854 L432 855 Z M298 848 L299 847 L300 848 L299 849 Z M698 847 L699 846 L724 847 L758 856 L759 858 L757 860 L741 867 L720 874 L703 878 L702 877 L705 871 L706 862 L705 861 L705 857 L702 851 Z M700 852 L703 858 L703 870 L698 879 L669 886 L662 883 L657 877 L655 873 L654 864 L657 856 L660 853 L677 848 L690 847 L691 846 L695 847 Z M297 847 L298 846 L299 847 L298 848 Z M789 846 L790 845 L791 846 L790 847 Z M385 852 L392 845 L396 843 L404 844 L425 850 L429 854 L431 859 L431 870 L428 877 L424 882 L416 886 L390 880 L385 875 L382 867 L382 861 Z M392 843 L387 846 L383 851 L380 859 L380 868 L384 877 L383 878 L376 877 L366 873 L354 870 L339 863 L337 863 L326 857 L344 849 L361 844 L373 843 L374 842 L391 842 Z M793 843 L791 843 L783 848 L773 849 L772 848 L764 847 L761 845 L738 837 L725 834 L720 834 L719 833 L706 833 L705 832 L681 834 L664 838 L646 845 L628 856 L614 869 L607 878 L602 887 L603 888 L612 874 L625 861 L633 855 L654 844 L677 837 L691 836 L692 835 L714 835 L715 836 L722 836 L723 837 L728 837 L740 840 L760 847 L763 849 L771 851 L783 850 L789 846 L790 848 L785 853 L778 856 L765 856 L737 847 L722 845 L721 844 L711 844 L710 843 L685 844 L684 845 L678 845 L666 848 L660 851 L655 852 L641 859 L628 868 L609 888 L601 902 L600 907 L602 910 L604 910 L609 906 L630 897 L633 897 L637 895 L653 891 L657 891 L677 886 L681 886 L686 884 L690 884 L695 882 L699 882 L722 875 L725 875 L750 866 L764 858 L768 858 L769 859 L780 858 L785 856 L792 849 Z M295 844 L296 845 L296 849 L298 852 L304 857 L311 859 L324 858 L326 860 L342 868 L347 869 L358 874 L361 874 L368 877 L371 877 L390 883 L394 883 L399 885 L408 886 L413 888 L422 889 L427 891 L436 892 L456 897 L468 901 L478 906 L484 911 L487 908 L486 901 L477 886 L459 867 L443 856 L419 845 L403 841 L398 841 L397 840 L379 839 L378 840 L368 840 L367 841 L354 843 L320 856 L309 856 L302 853 L299 850 L300 848 L307 851 L318 850 L346 837 L364 832 L392 831 L393 832 L410 834 L433 842 L454 854 L463 861 L474 872 L482 883 L484 888 L486 888 L482 880 L476 872 L460 856 L444 845 L427 837 L403 830 L388 829 L387 828 L376 828 L375 829 L366 829 L350 833 L325 845 L313 849 L306 849 L301 847 L297 843 Z M612 816 L602 827 L590 848 L585 862 L583 875 L582 876 L582 882 L581 883 L581 892 L580 893 L581 933 L582 934 L582 945 L583 946 L583 954 L584 955 L584 962 L585 963 L585 971 L586 972 L586 978 L587 979 L587 985 L588 986 L590 1001 L592 1001 L591 999 L591 993 L590 992 L590 986 L588 978 L586 954 L585 953 L585 944 L584 943 L584 930 L583 929 L583 885 L584 884 L584 877 L585 876 L586 867 L591 851 L600 833 L607 823 L612 818 Z M477 816 L477 818 L487 830 L496 847 L502 864 L504 880 L505 881 L505 893 L506 894 L505 928 L504 929 L504 939 L503 940 L501 966 L500 967 L500 973 L499 974 L499 980 L498 981 L498 987 L496 995 L496 1001 L497 1001 L499 993 L499 988 L500 987 L500 982 L501 981 L501 975 L502 974 L504 950 L505 949 L505 942 L506 941 L506 931 L507 930 L507 917 L508 916 L507 879 L506 878 L506 873 L502 857 L496 842 L489 830 Z M834 811 L837 813 L839 817 L840 827 L841 828 L841 844 L840 845 L840 850 L836 859 L832 858 L828 846 L828 824 L830 816 Z M258 811 L261 812 L264 819 L264 823 L265 824 L265 841 L264 842 L263 852 L260 858 L256 859 L252 849 L252 827 L255 815 Z M842 758 L847 762 L849 767 L850 844 L851 845 L851 1021 L850 1022 L850 1079 L849 1080 L848 1146 L847 1147 L847 1164 L846 1165 L846 1180 L845 1181 L843 1221 L842 1222 L842 1233 L841 1234 L841 1243 L840 1244 L839 1257 L835 1269 L832 1272 L826 1274 L821 1272 L817 1268 L811 1255 L808 1242 L808 1235 L807 1234 L806 1201 L807 1200 L807 1183 L808 1182 L810 1152 L811 1151 L811 1144 L812 1143 L815 1107 L816 1106 L816 1096 L817 1095 L817 1085 L818 1084 L818 1075 L819 1074 L819 1063 L820 1062 L820 1052 L821 1051 L821 1040 L822 1039 L823 1016 L824 1015 L824 1005 L825 1004 L825 994 L826 993 L826 982 L827 981 L829 954 L830 953 L832 930 L833 929 L836 900 L838 892 L838 884 L839 883 L841 857 L842 856 L842 847 L843 846 L843 826 L842 825 L841 816 L836 809 L833 809 L829 813 L826 823 L826 846 L830 859 L834 862 L838 860 L839 861 L839 865 L838 866 L837 882 L836 883 L836 890 L834 898 L832 921 L831 922 L829 943 L828 944 L825 979 L824 980 L822 1011 L821 1012 L821 1023 L820 1024 L820 1035 L819 1036 L819 1047 L818 1048 L816 1081 L815 1082 L815 1092 L814 1093 L812 1123 L811 1124 L810 1141 L809 1142 L807 1167 L806 1168 L806 1178 L805 1179 L805 1191 L804 1192 L804 1230 L805 1231 L805 1238 L806 1239 L807 1249 L811 1261 L816 1270 L821 1274 L820 1275 L816 1275 L801 1271 L793 1266 L781 1255 L775 1247 L768 1233 L763 1219 L759 1198 L758 1197 L756 1180 L772 1144 L789 1095 L803 1040 L806 1020 L808 1014 L808 1009 L809 1008 L809 1003 L810 1002 L811 990 L812 989 L814 968 L815 967 L815 959 L816 958 L817 936 L818 935 L818 913 L819 912 L818 864 L817 863 L817 846 L816 845 L816 832 L815 831 L815 818 L814 817 L814 787 L817 777 L823 767 L832 759 Z M252 757 L261 760 L268 767 L274 778 L278 795 L277 828 L276 829 L276 840 L275 841 L275 850 L274 851 L273 876 L272 877 L272 895 L271 896 L271 932 L272 933 L272 949 L273 950 L275 981 L276 982 L277 996 L278 997 L278 1003 L279 1004 L280 1015 L282 1021 L282 1026 L298 1091 L311 1130 L313 1133 L314 1138 L316 1141 L326 1169 L331 1179 L328 1198 L323 1216 L319 1226 L309 1244 L290 1263 L276 1271 L265 1274 L258 1274 L257 1273 L263 1267 L268 1258 L275 1235 L276 1223 L277 1222 L277 1213 L278 1212 L278 1175 L277 1174 L277 1161 L276 1160 L275 1139 L274 1138 L272 1107 L271 1106 L271 1094 L270 1093 L270 1081 L269 1080 L267 1037 L266 1036 L266 1021 L265 1020 L265 1004 L264 1003 L264 989 L263 988 L263 974 L262 973 L262 962 L261 961 L261 951 L260 950 L257 908 L256 907 L255 887 L254 886 L254 875 L253 874 L253 861 L254 860 L258 862 L262 859 L265 852 L266 843 L267 842 L267 824 L266 823 L266 819 L263 811 L260 809 L257 809 L252 816 L250 824 L250 832 L249 833 L249 844 L250 845 L250 860 L251 861 L251 876 L252 877 L252 887 L253 888 L253 899 L254 900 L254 910 L255 911 L257 941 L258 942 L258 951 L259 952 L260 976 L261 977 L261 991 L262 992 L262 1007 L263 1008 L263 1024 L264 1025 L264 1040 L265 1041 L265 1056 L266 1057 L266 1071 L267 1072 L269 1111 L270 1112 L271 1133 L272 1134 L274 1163 L275 1164 L276 1207 L275 1208 L275 1220 L274 1221 L273 1233 L268 1252 L261 1266 L253 1273 L245 1272 L241 1268 L238 1260 L237 1248 L236 1247 L236 1236 L235 1235 L234 1187 L233 1186 L233 1084 L234 1083 L234 1047 L235 1046 L235 1011 L236 1010 L238 918 L239 917 L239 891 L240 890 L240 868 L241 867 L243 767 L245 761 Z M771 721 L771 723 L754 740 L739 752 L714 767 L712 767 L703 772 L688 778 L647 792 L644 792 L634 796 L627 797 L615 801 L606 801 L602 799 L599 796 L596 790 L595 778 L597 773 L601 769 L607 769 L611 774 L615 776 L628 772 L644 764 L666 750 L689 732 L703 719 L708 716 L724 716 L725 717 L760 719 L761 720 L770 720 Z M324 721 L325 720 L332 720 L333 719 L367 717 L368 716 L388 716 L423 746 L457 769 L470 775 L477 775 L481 770 L488 769 L492 773 L493 776 L492 789 L489 795 L484 800 L482 801 L474 801 L458 796 L419 780 L414 779 L409 776 L386 767 L361 754 L343 741 Z M775 719 L761 718 L760 717 L750 717 L749 716 L739 716 L738 715 L727 715 L726 714 L713 714 L712 713 L706 714 L683 734 L666 747 L651 757 L633 767 L618 773 L614 773 L610 768 L606 766 L599 767 L595 771 L593 775 L592 784 L594 792 L598 799 L602 802 L607 804 L613 804 L626 801 L643 795 L646 795 L695 778 L723 765 L739 755 L753 744 L773 724 Z M320 719 L327 729 L348 748 L369 761 L408 779 L443 793 L456 797 L459 799 L476 804 L481 804 L486 802 L491 797 L494 791 L496 783 L496 778 L494 771 L491 768 L487 766 L483 766 L478 769 L475 773 L472 773 L462 769 L450 762 L423 743 L389 714 L386 713 L382 714 L367 714 L366 715 L343 716 L342 717 L333 717 L332 718 Z M870 704 L859 710 L853 711 L849 713 L848 712 L848 707 L851 705 L864 704 L865 703 L869 703 Z M224 704 L225 703 L231 703 L232 704 L243 705 L244 706 L244 711 L243 712 L238 711 Z M845 706 L846 707 L846 721 L847 722 L848 757 L846 758 L844 756 L837 755 L833 756 L825 761 L817 771 L812 785 L806 766 L802 745 L801 744 L800 730 L799 729 L799 702 L800 701 L804 701 L805 702 L813 702 L814 703 L823 703 L824 704 L833 704 L834 705 Z M248 705 L272 703 L273 702 L283 702 L284 701 L293 701 L294 702 L294 718 L293 719 L293 729 L292 730 L291 742 L282 780 L279 786 L276 776 L272 768 L266 761 L255 755 L250 755 L245 758 L244 757 L246 712 Z M225 701 L226 700 L228 701 L227 702 Z M297 700 L329 698 L330 697 L342 697 L343 696 L357 696 L358 695 L390 694 L391 693 L412 693 L413 692 L436 692 L437 691 L475 691 L476 690 L619 690 L620 691 L654 691 L655 692 L681 692 L682 693 L733 695 L734 696 L747 696 L748 697 L760 697 L761 698 L794 700 L797 702 L796 705 L797 735 L798 736 L799 747 L805 772 L811 790 L811 812 L812 813 L814 858 L815 859 L815 880 L816 881 L816 920 L815 921 L815 939 L814 940 L813 961 L812 962 L812 970 L811 971 L807 1004 L806 1005 L804 1021 L803 1022 L800 1041 L797 1050 L797 1054 L791 1078 L789 1082 L788 1089 L786 1093 L786 1096 L775 1129 L773 1132 L767 1150 L757 1171 L757 1173 L741 1205 L731 1221 L708 1249 L682 1273 L661 1288 L648 1295 L633 1301 L615 1306 L600 1308 L599 1309 L592 1309 L591 1310 L557 1311 L556 1312 L555 1311 L556 1293 L561 1280 L579 1258 L585 1247 L591 1232 L602 1220 L611 1215 L620 1207 L625 1198 L625 1194 L617 1200 L607 1205 L590 1210 L577 1212 L563 1218 L547 1234 L542 1236 L537 1235 L534 1233 L520 1218 L511 1213 L502 1210 L488 1208 L474 1204 L464 1199 L457 1193 L456 1194 L461 1205 L469 1213 L483 1221 L492 1230 L506 1257 L523 1277 L527 1284 L530 1294 L530 1299 L531 1300 L531 1311 L530 1312 L529 1311 L497 1310 L496 1309 L488 1309 L487 1308 L471 1306 L451 1300 L429 1290 L410 1277 L391 1261 L370 1239 L349 1210 L334 1181 L334 1179 L328 1167 L318 1142 L317 1137 L315 1134 L313 1126 L311 1123 L305 1105 L305 1102 L300 1089 L288 1042 L288 1038 L283 1017 L282 1006 L281 1005 L278 976 L277 975 L276 954 L275 953 L275 938 L274 937 L274 889 L275 888 L275 871 L276 870 L276 859 L277 858 L279 825 L280 824 L280 806 L281 805 L280 793 L288 768 L289 760 L292 750 L292 745 L295 733 L295 726 L296 725 L296 701 Z M811 664 L812 663 L813 664 L812 665 Z M227 700 L246 692 L275 684 L279 684 L295 680 L300 680 L301 679 L306 679 L307 678 L312 678 L313 677 L318 677 L319 676 L348 673 L349 672 L356 672 L357 671 L387 669 L388 668 L400 668 L401 667 L414 667 L415 666 L453 665 L454 664 L578 663 L579 664 L613 664 L614 665 L636 665 L637 666 L669 667 L670 668 L683 668 L684 669 L694 669 L695 670 L705 670 L706 671 L742 674 L743 675 L764 677 L765 678 L777 679 L778 680 L783 680 L784 681 L789 681 L790 682 L795 682 L796 683 L801 683 L802 684 L821 687 L830 690 L842 692 L855 697 L858 697 L866 701 L865 702 L857 702 L856 703 L846 704 L845 703 L838 703 L837 702 L799 699 L798 698 L790 698 L789 697 L755 695 L754 694 L741 694 L740 693 L727 693 L726 692 L669 690 L668 689 L644 689 L643 688 L600 688 L599 687 L452 688 L451 689 L425 689 L424 690 L402 690 L401 691 L382 691 L381 692 L336 694 L335 695 L323 695 L322 696 L312 696 L311 697 L300 697 L299 698 L290 698 L289 699 L259 701 L258 702 L250 702 L249 703 L230 702 Z M221 695 L224 692 L237 686 L263 678 L284 674 L289 672 L294 672 L300 670 L318 668 L325 666 L338 665 L339 664 L347 664 L348 663 L373 661 L374 660 L384 660 L385 659 L396 659 L397 658 L426 657 L427 656 L471 655 L472 654 L515 654 L516 653 L518 654 L531 654 L532 653 L548 653 L549 654 L596 654 L597 655 L620 655 L621 656 L657 657 L658 658 L697 660 L698 661 L707 661 L708 662 L717 662 L718 663 L726 663 L727 664 L758 667 L759 668 L777 670 L783 672 L788 672 L805 676 L815 677 L851 686 L872 695 L872 700 L871 701 L856 694 L853 694 L846 691 L830 687 L826 687 L821 685 L817 685 L801 681 L796 681 L790 679 L778 678 L765 675 L758 675 L751 673 L718 670 L717 669 L708 669 L707 668 L697 668 L696 667 L672 666 L671 665 L640 664 L639 663 L619 663 L618 662 L586 662 L585 661 L483 661 L482 662 L428 663 L427 664 L412 664 L411 665 L374 667 L373 668 L365 668 L364 669 L331 672 L330 673 L305 676 L299 678 L284 680 L252 688 L232 695 L223 700 L221 699 Z M240 654 L241 653 L242 654 L241 655 Z M742 648 L743 647 L744 648 L743 649 Z M324 646 L325 648 L322 651 L320 649 Z M324 646 L325 645 L326 646 L325 647 Z M638 639 L639 638 L640 639 L639 640 Z M418 636 L419 635 L420 636 L419 637 Z M527 633 L528 632 L529 633 L528 634 Z M835 619 L836 618 L837 619 L836 620 Z M733 633 L733 635 L745 636 L755 632 L768 621 L772 619 L776 619 L782 622 L786 626 L798 642 L796 647 L796 653 L799 660 L803 664 L807 666 L814 666 L816 664 L814 664 L812 661 L809 660 L805 655 L805 651 L806 650 L814 654 L819 654 L824 652 L831 646 L835 646 L849 662 L851 660 L852 661 L851 655 L845 644 L838 637 L831 635 L825 638 L816 646 L821 645 L827 639 L831 637 L835 638 L843 645 L851 660 L850 661 L843 651 L836 644 L833 643 L827 646 L820 652 L813 652 L807 648 L805 648 L803 650 L803 655 L805 659 L811 663 L810 664 L806 663 L800 657 L798 652 L798 646 L800 641 L788 625 L779 618 L767 619 L754 630 L745 634 L735 634 Z M835 610 L836 609 L837 610 L836 611 Z M575 610 L580 609 L583 611 L584 615 L581 619 L577 619 L574 617 L573 613 Z M458 610 L462 609 L466 612 L466 616 L463 619 L459 619 L456 616 L456 613 Z M740 627 L742 628 L750 625 L766 612 L778 611 L784 614 L795 626 L803 639 L808 644 L813 646 L805 638 L793 620 L786 613 L778 609 L768 609 L762 612 L746 625 Z M574 608 L571 613 L572 618 L576 621 L582 621 L586 616 L585 610 L581 607 Z M462 607 L456 609 L454 612 L455 619 L461 622 L466 620 L468 617 L467 610 Z M301 608 L297 606 L290 606 L286 608 L280 614 L279 622 L271 625 L263 632 L244 660 L243 659 L243 655 L246 648 L241 650 L236 658 L235 662 L236 670 L239 673 L243 673 L251 667 L269 640 L279 630 L273 633 L267 639 L249 666 L242 671 L240 671 L237 668 L237 661 L240 655 L241 656 L241 661 L242 662 L246 661 L265 633 L273 626 L281 624 L281 617 L288 609 L297 608 L301 611 L300 612 L295 611 L288 615 L287 620 L290 624 L301 629 L309 628 L309 627 L307 628 L295 625 L289 620 L290 616 L295 613 L300 614 L303 616 L304 612 Z M729 605 L730 604 L734 604 L737 607 L737 611 L735 613 L732 613 L729 610 Z M729 602 L726 606 L727 611 L731 615 L736 615 L739 612 L738 604 L733 601 Z M820 599 L821 598 L822 599 L821 600 Z M627 622 L628 624 L631 625 L637 625 L638 626 L646 625 L660 619 L680 603 L684 601 L693 601 L698 604 L705 611 L710 618 L722 629 L719 635 L719 641 L722 648 L725 651 L731 654 L739 654 L743 652 L746 648 L745 644 L742 646 L735 646 L730 642 L729 637 L731 635 L730 634 L727 638 L729 644 L735 648 L742 648 L743 649 L738 652 L732 652 L726 649 L724 647 L721 640 L721 635 L724 630 L724 628 L713 618 L700 603 L693 599 L684 599 L678 602 L662 615 L646 623 L630 623 Z M460 598 L451 600 L441 605 L434 610 L418 618 L410 620 L405 623 L402 626 L400 631 L401 636 L406 639 L411 639 L417 636 L419 637 L415 642 L406 646 L398 644 L393 638 L393 630 L395 625 L398 622 L398 620 L393 620 L387 618 L378 612 L367 607 L355 607 L349 609 L340 614 L315 633 L309 641 L308 646 L311 650 L320 649 L322 651 L318 655 L313 657 L306 656 L302 651 L302 643 L306 635 L298 635 L292 633 L290 631 L284 630 L294 636 L302 637 L303 638 L300 644 L300 652 L301 654 L307 659 L314 659 L319 657 L327 649 L329 645 L329 642 L327 641 L317 648 L314 649 L310 647 L310 643 L314 636 L344 614 L352 610 L362 608 L370 610 L381 617 L389 621 L394 622 L395 623 L391 630 L392 641 L395 645 L399 647 L407 648 L416 644 L421 639 L423 634 L423 632 L421 631 L411 637 L405 637 L402 634 L402 631 L404 626 L407 623 L416 621 L421 618 L423 618 L447 604 L458 600 Z M465 597 L469 599 L475 600 L490 609 L503 615 L498 622 L497 631 L501 639 L505 642 L511 644 L520 643 L526 640 L531 634 L531 629 L529 629 L522 633 L514 633 L510 630 L509 625 L513 618 L509 621 L507 626 L509 632 L514 635 L522 635 L526 633 L528 634 L526 637 L516 642 L512 642 L506 640 L501 635 L499 629 L500 623 L506 614 L494 609 L478 599 L471 597 Z M406 593 L407 592 L408 593 L407 594 Z M628 588 L631 588 L635 591 L636 594 L633 598 L629 598 L626 596 L625 591 Z M515 618 L528 618 L538 615 L544 612 L571 593 L582 591 L593 596 L610 614 L616 618 L612 623 L611 633 L613 638 L618 643 L624 646 L634 646 L641 642 L644 638 L644 634 L642 634 L637 637 L629 637 L625 635 L622 630 L622 628 L625 624 L623 624 L621 627 L622 634 L626 638 L638 639 L639 640 L633 644 L625 644 L619 641 L615 637 L613 633 L614 623 L619 618 L612 613 L595 595 L589 591 L582 589 L574 590 L567 593 L548 607 L537 613 L528 616 L516 616 Z M518 587 L522 587 L525 590 L525 594 L522 597 L518 597 L515 594 L515 590 Z M628 586 L623 590 L623 595 L627 600 L631 601 L634 600 L637 597 L638 592 L634 587 Z M514 587 L512 593 L515 598 L523 599 L527 595 L527 589 L524 586 L518 585 Z M409 590 L407 587 L402 584 L393 583 L386 586 L382 590 L379 596 L379 600 L378 601 L375 599 L363 596 L349 599 L335 607 L319 621 L312 625 L312 627 L318 624 L340 606 L352 600 L368 599 L372 600 L380 605 L382 605 L381 604 L381 596 L383 592 L390 586 L398 585 L403 587 L405 589 L404 590 L405 589 L407 592 L406 593 L402 591 L395 591 L389 596 L389 604 L394 611 L401 614 L405 614 L406 612 L400 612 L396 610 L392 606 L390 599 L395 593 L402 593 L408 598 L410 595 Z M529 606 L529 607 L532 607 L539 604 L558 590 L570 583 L577 581 L585 581 L598 587 L624 613 L632 616 L643 616 L657 609 L677 593 L686 590 L691 590 L697 592 L703 596 L710 603 L718 614 L728 624 L735 627 L735 625 L731 624 L719 612 L706 596 L701 592 L691 588 L681 589 L673 593 L652 610 L646 613 L637 615 L636 614 L631 614 L623 610 L597 584 L588 580 L577 579 L562 585 L542 600 L531 606 Z M493 576 L494 575 L495 576 L494 577 Z M319 576 L320 575 L321 576 L320 577 Z M330 573 L324 576 L320 575 L325 568 Z M512 606 L510 606 L496 599 L483 590 L478 585 L477 580 L482 576 L491 577 L496 581 L498 580 L498 577 L496 573 L491 569 L485 567 L477 567 L472 569 L467 573 L465 577 L465 584 L467 588 L466 589 L458 589 L447 592 L421 607 L410 612 L414 612 L419 610 L450 593 L457 591 L471 591 L467 584 L467 577 L471 572 L477 569 L488 570 L494 575 L493 576 L488 574 L479 575 L476 578 L477 586 L485 594 L494 600 L508 607 L512 607 Z M222 685 L223 684 L223 679 L226 667 L230 656 L235 646 L245 631 L258 618 L269 610 L288 600 L290 600 L305 593 L333 584 L348 581 L352 579 L356 579 L361 577 L365 577 L381 573 L386 573 L392 571 L417 568 L418 567 L426 567 L427 566 L435 566 L436 565 L444 565 L445 564 L455 564 L456 563 L466 563 L467 562 L480 562 L481 561 L555 559 L556 560 L590 560 L591 561 L621 562 L622 563 L633 563 L634 564 L642 564 L643 565 L651 565 L652 566 L681 569 L682 570 L687 570 L688 571 L693 571 L694 572 L699 572 L700 573 L719 576 L724 578 L728 578 L756 585 L794 598 L813 607 L829 617 L837 623 L850 636 L858 647 L864 658 L870 676 L872 691 L871 692 L861 687 L826 677 L822 677 L821 676 L817 676 L812 674 L807 674 L791 670 L767 667 L760 665 L754 665 L753 664 L739 663 L738 662 L711 660 L710 659 L700 659 L699 658 L689 658 L688 657 L677 657 L676 656 L648 655 L647 654 L608 653 L607 652 L570 652 L569 651 L463 652 L462 653 L439 653 L438 654 L421 654 L420 655 L405 655 L404 656 L381 657 L380 658 L371 658 L370 659 L337 662 L336 663 L316 665 L315 666 L310 666 L309 667 L304 667 L303 668 L283 671 L248 680 L229 687 L223 691 L222 690 Z M254 614 L261 607 L268 602 L300 586 L323 578 L366 567 L370 567 L391 562 L396 562 L397 561 L409 560 L410 559 L417 559 L418 558 L425 558 L426 557 L441 556 L442 555 L451 555 L452 554 L477 553 L478 552 L495 552 L496 551 L520 551 L521 550 L566 550 L567 551 L610 552 L611 553 L624 553 L625 554 L652 556 L653 557 L667 558 L668 559 L674 559 L675 560 L699 563 L700 564 L714 566 L719 568 L728 569 L732 571 L748 574 L752 576 L769 580 L772 582 L775 582 L805 594 L829 608 L835 613 L836 618 L835 619 L830 615 L814 605 L790 594 L757 583 L725 575 L721 575 L695 569 L690 569 L689 568 L683 568 L682 567 L669 566 L661 564 L635 562 L634 561 L610 560 L609 559 L593 559 L592 558 L560 558 L559 557 L530 557 L529 558 L499 558 L498 559 L465 560 L464 561 L453 561 L452 562 L443 562 L442 563 L417 565 L416 566 L410 566 L409 567 L403 567 L402 568 L391 569 L385 571 L380 571 L379 572 L375 572 L374 573 L370 573 L347 579 L339 580 L307 590 L287 598 L273 605 L255 618 Z M288 546 L289 547 L289 553 L292 555 L293 558 L293 563 L290 571 L287 574 L287 589 L286 590 L285 589 L285 574 L282 572 L281 566 L283 558 L287 553 L287 547 Z M289 532 L290 531 L291 533 L290 534 Z M290 527 L291 526 L292 527 L291 528 Z M278 519 L279 518 L280 519 L279 520 Z M279 515 L280 514 L281 516 L280 517 Z M295 507 L297 510 L297 513 L292 525 L290 523 L290 517 Z M805 502 L806 501 L807 503 L806 504 Z M778 500 L779 503 L784 507 L787 514 L786 523 L782 526 L782 550 L783 551 L782 554 L787 559 L788 570 L783 575 L783 581 L782 582 L780 581 L780 575 L776 571 L774 567 L774 560 L776 556 L780 554 L780 532 L779 531 L779 525 L773 520 L771 515 L772 506 L777 503 Z M329 498 L330 499 L329 517 L332 518 L335 523 L335 531 L332 537 L326 542 L326 567 L324 568 L323 567 L324 542 L321 541 L318 538 L317 528 L319 523 L326 517 L327 505 Z M777 494 L778 495 L778 499 L777 500 L776 499 L776 495 Z M776 488 L777 489 L777 493 L776 494 L775 493 L775 489 Z M775 484 L776 485 L775 489 L774 488 Z M335 468 L336 471 L340 474 L340 483 L332 491 L330 499 L329 498 L329 492 L325 488 L325 481 L327 476 L331 472 L334 471 Z M769 467 L771 467 L777 474 L778 479 L775 482 L774 485 L773 481 L769 477 L767 473 L767 469 Z M828 464 L829 465 L829 470 L828 471 L827 470 L827 465 Z M335 465 L336 464 L337 466 L336 467 Z M336 461 L337 460 L338 462 L337 463 Z M337 458 L338 457 L339 459 L338 460 Z M263 457 L264 458 L263 461 L262 460 Z M558 455 L561 455 L568 464 L573 479 L574 491 L575 492 L575 506 L576 507 L576 529 L575 530 L575 548 L574 549 L543 548 L542 547 L542 507 L543 506 L543 492 L544 491 L545 480 L551 463 Z M338 455 L339 454 L340 456 L339 457 Z M770 449 L771 448 L772 449 L771 450 Z M319 449 L320 448 L321 449 L320 450 Z M320 448 L321 447 L322 448 L321 449 Z M769 447 L770 446 L771 447 L770 448 Z M768 446 L769 445 L770 446 L769 447 Z M767 445 L768 444 L769 445 L768 446 Z M346 439 L347 440 L347 445 L341 451 L340 454 L338 450 L339 444 L343 440 Z M560 438 L575 453 L581 465 L584 474 L585 484 L586 485 L586 492 L587 493 L587 510 L588 511 L588 539 L587 540 L587 548 L586 549 L579 549 L578 548 L578 497 L577 496 L577 488 L576 487 L576 481 L574 473 L569 461 L560 452 L557 453 L551 459 L546 469 L542 483 L541 501 L540 502 L540 547 L539 548 L531 548 L530 547 L530 507 L531 506 L532 485 L533 484 L533 479 L537 465 L544 452 L551 444 Z M716 422 L722 423 L727 428 L728 433 L725 435 L725 440 L727 445 L728 453 L731 454 L736 459 L738 464 L737 471 L734 474 L732 474 L733 487 L734 488 L734 498 L742 505 L744 511 L744 515 L743 518 L739 522 L736 523 L736 542 L739 543 L743 548 L744 555 L742 560 L740 562 L736 563 L736 568 L735 569 L733 567 L733 562 L728 558 L726 554 L727 546 L733 541 L733 523 L726 517 L724 512 L724 507 L725 504 L730 499 L732 499 L732 495 L731 494 L729 474 L727 474 L721 468 L719 463 L720 456 L725 453 L726 451 L723 441 L723 437 L715 428 L715 423 Z M389 417 L392 420 L392 422 L390 427 L383 433 L378 454 L378 460 L381 461 L384 464 L385 471 L383 476 L375 483 L374 494 L373 495 L373 505 L372 506 L372 511 L376 512 L380 518 L380 526 L378 530 L374 534 L370 536 L370 558 L372 563 L367 565 L366 564 L366 560 L367 559 L367 536 L363 534 L360 529 L360 521 L362 517 L367 512 L369 512 L372 483 L369 482 L366 479 L365 471 L368 465 L371 462 L374 461 L376 457 L376 452 L380 437 L380 433 L377 431 L377 425 L383 418 Z M674 404 L680 406 L684 410 L684 415 L679 418 L680 429 L681 431 L684 432 L688 436 L690 441 L688 447 L683 450 L683 466 L684 468 L688 469 L691 472 L694 479 L694 483 L692 487 L688 491 L684 493 L685 520 L688 521 L691 524 L693 529 L693 534 L687 541 L684 542 L684 557 L683 558 L680 557 L681 556 L681 541 L678 540 L674 536 L673 533 L674 524 L678 520 L681 520 L681 492 L678 491 L673 486 L671 480 L673 472 L677 468 L680 468 L680 453 L679 449 L676 448 L671 441 L671 437 L673 433 L678 431 L676 417 L670 411 L670 406 Z M587 404 L588 403 L589 404 L588 405 Z M435 399 L437 401 L437 407 L434 411 L429 414 L427 433 L426 434 L426 436 L429 437 L433 441 L434 447 L432 452 L427 457 L424 458 L424 469 L423 470 L423 484 L427 485 L431 489 L432 492 L431 502 L427 507 L422 509 L422 531 L427 533 L429 540 L427 545 L424 548 L421 549 L421 555 L419 556 L418 555 L418 549 L414 548 L411 543 L411 538 L413 534 L418 531 L418 509 L414 508 L411 505 L409 497 L412 489 L419 484 L419 480 L420 479 L420 463 L421 462 L421 459 L414 454 L413 446 L414 443 L419 438 L423 436 L426 413 L424 413 L422 411 L421 408 L422 405 L425 401 L429 399 Z M638 393 L643 399 L642 402 L637 405 L639 422 L642 423 L647 428 L648 432 L647 436 L643 440 L640 441 L640 475 L642 481 L642 501 L638 515 L625 538 L623 550 L622 551 L596 550 L590 548 L590 498 L589 497 L588 481 L585 469 L576 450 L567 440 L561 436 L559 436 L552 440 L545 447 L540 454 L532 473 L530 487 L529 488 L529 498 L528 499 L528 524 L527 525 L528 526 L528 547 L523 549 L499 549 L498 548 L497 535 L486 515 L484 508 L484 503 L483 502 L484 488 L485 487 L486 488 L488 495 L493 500 L498 501 L502 498 L503 490 L497 475 L494 464 L494 449 L495 445 L500 436 L501 437 L501 444 L503 450 L509 455 L513 455 L516 453 L518 449 L517 418 L519 412 L526 403 L528 402 L529 403 L528 411 L527 412 L529 422 L534 428 L541 429 L549 421 L551 413 L556 403 L563 395 L565 398 L567 409 L574 427 L579 432 L583 432 L587 428 L589 423 L589 409 L588 408 L589 404 L595 411 L599 419 L601 427 L602 444 L601 445 L600 456 L602 461 L607 462 L611 458 L613 452 L613 444 L614 443 L618 448 L620 453 L622 468 L621 469 L620 479 L616 489 L616 497 L618 500 L624 501 L630 496 L633 491 L636 481 L636 472 L637 471 L637 447 L636 446 L636 441 L633 440 L628 434 L628 427 L633 422 L636 421 L635 406 L628 401 L627 396 L631 392 Z M477 391 L480 393 L481 399 L477 404 L473 406 L471 421 L470 422 L470 428 L472 428 L476 432 L477 439 L476 442 L471 447 L467 449 L466 464 L465 465 L465 475 L471 481 L471 488 L467 493 L463 495 L463 505 L462 506 L462 522 L467 525 L469 529 L468 535 L463 540 L459 541 L454 539 L451 535 L451 529 L453 525 L458 522 L458 511 L459 510 L459 494 L454 491 L453 483 L454 480 L458 476 L461 475 L462 458 L464 450 L463 448 L458 445 L456 438 L458 433 L462 429 L466 428 L470 405 L468 405 L465 402 L465 397 L468 393 L472 391 Z M478 389 L469 390 L463 396 L463 403 L467 407 L465 425 L461 427 L456 432 L454 437 L454 441 L456 446 L462 451 L460 459 L459 473 L453 478 L450 485 L452 492 L458 497 L457 498 L456 520 L449 527 L448 533 L450 538 L453 541 L459 543 L467 540 L471 533 L471 529 L469 524 L464 520 L464 504 L465 503 L465 497 L472 491 L474 486 L472 478 L467 473 L467 467 L468 466 L469 451 L474 448 L479 441 L479 433 L477 429 L472 425 L475 408 L482 402 L484 398 L483 393 Z M720 385 L721 384 L722 385 L721 386 Z M719 384 L720 383 L721 384 L720 385 Z M370 384 L371 383 L372 384 L371 385 Z M815 382 L816 381 L817 382 L816 383 Z M815 377 L816 378 L815 381 L814 380 Z M814 373 L815 374 L814 377 L813 376 Z M268 593 L269 592 L271 565 L272 564 L275 543 L282 519 L290 499 L297 485 L311 464 L323 450 L340 434 L360 419 L377 409 L395 400 L434 386 L450 382 L455 382 L460 380 L465 380 L466 379 L483 377 L484 376 L501 375 L502 374 L514 374 L515 373 L540 373 L541 372 L580 373 L581 374 L604 375 L605 376 L612 376 L613 377 L619 377 L631 380 L636 380 L641 382 L657 385 L678 392 L693 399 L695 399 L704 404 L706 404 L729 417 L754 436 L774 456 L785 470 L798 492 L798 494 L805 508 L814 538 L817 558 L818 559 L818 566 L819 567 L819 574 L820 575 L820 586 L821 587 L821 598 L819 599 L800 589 L786 584 L784 582 L784 578 L790 572 L791 564 L789 558 L784 553 L784 529 L783 528 L788 524 L790 518 L789 517 L789 512 L786 506 L780 501 L780 497 L777 486 L777 483 L779 481 L779 474 L777 470 L771 465 L768 465 L765 468 L765 473 L767 478 L772 483 L774 491 L774 498 L775 499 L775 501 L770 506 L769 515 L773 524 L778 528 L779 552 L775 554 L772 559 L772 568 L774 572 L778 576 L778 579 L774 580 L761 575 L758 575 L754 573 L738 569 L738 565 L741 564 L744 561 L746 556 L745 547 L739 540 L739 530 L738 529 L738 525 L742 523 L745 519 L746 509 L743 502 L736 495 L736 486 L735 485 L734 477 L738 474 L740 470 L740 463 L738 458 L730 451 L727 437 L730 433 L730 429 L726 423 L720 420 L714 421 L713 429 L716 434 L721 437 L721 441 L723 447 L723 451 L719 454 L717 458 L717 465 L720 471 L728 479 L728 486 L729 487 L729 495 L730 497 L726 499 L723 503 L722 514 L725 520 L731 525 L731 539 L726 543 L724 547 L724 556 L726 560 L731 564 L731 567 L730 568 L721 565 L701 562 L695 560 L690 560 L686 558 L686 544 L690 542 L695 535 L695 527 L693 523 L687 518 L687 496 L686 495 L694 489 L696 483 L696 478 L693 471 L689 467 L685 465 L685 452 L690 448 L692 443 L690 435 L682 427 L682 420 L686 415 L686 410 L681 404 L676 402 L673 402 L669 404 L667 409 L669 414 L675 420 L675 427 L676 428 L670 433 L669 435 L669 442 L671 446 L678 452 L677 453 L678 465 L671 471 L669 476 L669 482 L672 489 L679 494 L679 517 L672 523 L670 530 L672 537 L679 543 L679 553 L677 557 L671 557 L670 556 L663 556 L662 555 L655 555 L654 554 L647 554 L646 553 L627 552 L625 550 L627 539 L639 519 L644 504 L645 485 L642 473 L642 444 L648 439 L650 435 L649 427 L645 422 L641 420 L641 416 L640 415 L640 407 L645 402 L645 398 L643 394 L639 391 L630 390 L626 393 L625 399 L626 402 L630 406 L633 407 L633 418 L634 419 L627 424 L626 426 L626 435 L634 443 L635 469 L634 470 L634 479 L631 490 L622 499 L618 497 L618 489 L623 475 L623 469 L624 468 L623 457 L619 446 L611 438 L611 452 L610 455 L606 460 L604 459 L605 458 L604 459 L603 458 L603 446 L604 445 L603 425 L597 410 L590 402 L585 399 L583 399 L587 410 L587 422 L585 427 L582 430 L577 427 L572 417 L567 397 L565 393 L561 394 L556 399 L550 410 L549 415 L545 423 L540 427 L535 426 L532 423 L530 418 L530 406 L533 398 L528 399 L520 406 L517 411 L514 421 L514 433 L516 438 L516 448 L512 453 L510 453 L506 450 L503 442 L503 433 L498 435 L493 444 L491 460 L492 461 L493 470 L500 487 L500 491 L501 492 L500 497 L499 498 L494 498 L490 494 L487 483 L484 484 L481 493 L481 506 L486 521 L494 534 L496 541 L496 549 L495 550 L463 551 L462 552 L451 552 L450 553 L441 553 L440 554 L431 554 L430 555 L424 555 L423 554 L423 551 L429 546 L431 542 L431 536 L429 532 L424 528 L424 511 L428 509 L432 505 L435 497 L433 488 L431 485 L425 482 L426 460 L433 455 L436 448 L435 439 L429 434 L429 427 L430 426 L431 416 L438 410 L440 405 L440 402 L436 397 L430 396 L424 399 L420 404 L419 409 L420 412 L424 416 L422 424 L422 430 L421 434 L414 439 L411 445 L411 453 L413 457 L419 461 L418 462 L417 482 L410 488 L407 495 L408 505 L416 512 L416 529 L411 533 L409 537 L409 545 L413 550 L416 551 L416 555 L414 557 L407 557 L406 558 L395 559 L376 563 L372 557 L372 538 L380 531 L382 527 L382 517 L380 513 L377 510 L374 509 L375 507 L376 488 L377 485 L383 480 L387 472 L386 463 L384 460 L380 458 L380 455 L381 454 L384 436 L392 428 L394 422 L393 417 L387 414 L379 418 L375 424 L374 430 L378 436 L375 446 L373 458 L366 464 L363 470 L363 478 L370 485 L369 486 L367 509 L360 516 L357 525 L360 534 L365 538 L364 565 L333 573 L328 568 L328 543 L335 537 L337 533 L338 525 L336 519 L331 515 L331 507 L332 506 L333 494 L340 488 L343 481 L342 473 L338 469 L341 456 L349 446 L349 439 L347 437 L342 438 L336 445 L335 449 L337 454 L334 461 L333 468 L325 475 L323 480 L323 489 L327 494 L325 510 L324 511 L324 515 L317 522 L315 527 L316 539 L322 544 L321 546 L321 569 L316 578 L301 583 L291 588 L289 587 L289 575 L294 569 L295 565 L295 557 L294 554 L290 550 L291 549 L292 528 L293 524 L295 522 L298 515 L298 507 L296 505 L292 508 L288 517 L289 526 L288 527 L285 552 L282 555 L279 563 L279 570 L280 573 L283 576 L283 591 L269 599 L268 598 Z M279 364 L280 363 L281 364 L280 365 Z M280 361 L281 360 L282 361 L281 362 Z M282 356 L283 357 L282 360 L281 359 Z M624 338 L628 337 L656 348 L685 363 L709 379 L723 390 L744 411 L760 431 L768 444 L767 445 L751 430 L729 414 L697 397 L655 382 L634 378 L633 377 L629 377 L628 376 L622 376 L620 374 L623 369 L623 365 L624 364 Z M623 337 L624 336 L625 337 L624 338 Z M496 335 L495 337 L495 344 L494 345 L494 358 L495 359 L495 365 L498 371 L497 373 L481 374 L480 375 L475 375 L474 376 L469 376 L468 377 L448 380 L432 385 L429 385 L398 396 L377 406 L360 416 L336 434 L322 448 L321 447 L326 438 L338 422 L352 406 L371 388 L395 371 L425 355 L445 347 L479 337 L483 337 L494 334 Z M499 332 L501 328 L508 321 L522 316 L532 315 L533 314 L544 314 L545 313 L574 314 L575 315 L582 315 L583 316 L588 316 L600 319 L614 326 L620 334 L622 341 L622 362 L621 363 L621 368 L617 375 L615 374 L608 374 L607 373 L598 373 L597 372 L565 371 L564 370 L530 370 L529 371 L502 372 L498 366 L498 361 L497 360 L497 341 L498 340 Z M720 382 L719 384 L709 376 L679 357 L646 341 L622 333 L620 329 L614 323 L602 317 L586 313 L571 312 L570 311 L537 311 L536 312 L530 312 L529 313 L516 315 L505 320 L500 325 L496 332 L486 333 L462 339 L424 353 L397 367 L373 384 L371 383 L391 362 L422 336 L446 320 L477 304 L501 295 L511 293 L513 295 L530 303 L540 306 L548 307 L568 301 L584 293 L586 291 L612 300 L632 310 L655 324 L686 348 Z M507 291 L504 293 L501 293 L481 300 L452 314 L431 327 L397 354 L371 380 L356 399 L342 413 L319 444 L307 466 L297 480 L287 499 L282 513 L281 514 L280 513 L284 493 L291 473 L291 470 L301 445 L315 416 L342 373 L356 355 L377 332 L404 308 L423 294 L441 283 L461 273 L477 267 L491 280 Z M589 290 L605 278 L617 266 L643 278 L660 288 L681 303 L703 322 L727 347 L740 363 L768 404 L783 432 L783 434 L793 455 L801 479 L806 500 L805 501 L801 492 L792 476 L782 462 L768 438 L755 420 L734 397 L719 378 L690 349 L660 325 L638 311 L617 300 Z M653 206 L675 219 L693 233 L732 272 L748 292 L764 315 L778 338 L794 370 L806 400 L817 434 L819 445 L821 449 L825 465 L828 485 L830 491 L832 515 L833 516 L833 527 L834 528 L835 560 L836 561 L836 609 L835 610 L824 602 L823 577 L822 576 L822 568 L821 567 L819 549 L818 548 L814 527 L810 516 L810 507 L802 475 L790 442 L776 414 L765 395 L751 374 L729 346 L693 310 L674 295 L656 283 L627 268 L618 265 L626 256 L639 238 L648 242 L679 262 L706 285 L729 309 L752 339 L768 364 L776 380 L778 382 L793 414 L799 432 L801 435 L810 463 L818 495 L821 516 L822 517 L823 530 L824 531 L825 558 L827 559 L827 544 L826 543 L825 523 L824 522 L823 509 L817 485 L817 481 L815 477 L813 466 L804 437 L802 434 L801 429 L791 404 L779 380 L777 378 L777 376 L763 352 L743 323 L722 298 L705 281 L685 264 L662 248 L640 236 L640 234 L646 224 L651 209 Z M439 199 L445 218 L453 234 L430 245 L408 259 L384 279 L363 301 L344 325 L331 344 L314 373 L301 399 L301 401 L298 406 L286 436 L286 439 L279 458 L279 461 L277 465 L277 468 L275 472 L270 492 L266 519 L265 520 L264 538 L263 539 L263 571 L264 571 L264 555 L265 554 L266 529 L267 528 L269 509 L271 503 L272 493 L275 484 L275 480 L283 455 L283 452 L292 426 L301 406 L301 404 L305 397 L305 395 L322 363 L343 330 L364 303 L394 273 L412 259 L442 241 L444 241 L454 236 L466 254 L476 265 L473 267 L463 270 L456 274 L454 274 L435 284 L412 299 L398 310 L360 347 L338 375 L328 390 L307 427 L307 429 L297 449 L285 482 L285 485 L283 489 L279 505 L279 509 L276 520 L276 530 L272 544 L269 564 L268 565 L267 583 L266 584 L266 597 L265 601 L255 610 L254 609 L255 549 L256 548 L257 518 L258 517 L258 506 L259 505 L261 480 L262 479 L265 460 L267 456 L268 448 L275 426 L275 423 L283 399 L295 369 L299 362 L299 360 L310 337 L312 335 L324 312 L341 286 L362 259 L387 233 L399 223 L419 209 Z M658 165 L683 183 L713 212 L731 233 L751 259 L779 303 L802 351 L819 399 L823 416 L825 435 L826 436 L826 443 L827 444 L827 453 L828 454 L828 464 L827 465 L825 460 L823 448 L815 423 L815 420 L798 374 L783 343 L758 302 L741 279 L729 265 L704 240 L677 218 L653 204 L655 196 L655 191 L656 190 L657 166 Z M436 163 L437 164 L437 187 L438 188 L439 197 L424 204 L409 213 L386 231 L368 249 L350 270 L321 313 L300 353 L300 355 L294 366 L289 380 L286 385 L272 426 L264 457 L263 456 L263 451 L264 450 L266 429 L267 428 L267 423 L268 422 L269 412 L270 411 L275 384 L290 345 L314 297 L340 256 L355 236 L376 211 L402 186 L419 173 Z M650 124 L669 140 L700 171 L715 188 L752 235 L774 267 L793 303 L800 323 L802 326 L802 329 L807 342 L807 345 L812 361 L812 365 L814 370 L813 374 L801 343 L785 310 L783 308 L772 287 L750 254 L723 220 L694 190 L675 174 L656 162 L655 148 L654 147 L651 130 L649 127 Z M443 124 L444 127 L440 138 L437 160 L414 174 L392 192 L377 207 L353 235 L336 258 L317 288 L291 338 L291 340 L283 357 L282 353 L287 339 L287 336 L300 301 L315 272 L331 247 L353 217 L388 175 L422 141 Z M648 124 L649 123 L650 124 L649 125 Z M443 124 L444 123 L445 124 L444 125 Z M462 110 L457 118 L451 140 L450 157 L449 158 L450 181 L451 182 L453 196 L460 216 L469 234 L479 249 L487 259 L503 274 L518 284 L536 292 L540 293 L555 292 L575 283 L584 277 L595 268 L614 247 L626 229 L638 202 L642 185 L642 179 L643 178 L643 150 L642 149 L642 142 L641 141 L639 128 L632 111 L630 110 L636 124 L639 141 L640 142 L640 149 L641 150 L641 176 L640 177 L640 184 L639 185 L639 190 L633 210 L626 223 L626 225 L609 250 L587 272 L574 281 L560 288 L551 291 L540 291 L522 284 L508 275 L497 266 L488 257 L475 240 L462 216 L457 203 L453 187 L452 167 L451 166 L453 139 L456 126 Z M481 101 L482 100 L483 101 L482 102 Z M610 99 L615 104 L621 115 L625 128 L626 140 L627 141 L626 172 L625 173 L623 187 L616 207 L609 221 L598 238 L586 252 L571 265 L555 274 L548 276 L541 276 L529 272 L513 261 L496 243 L482 221 L475 206 L469 188 L469 184 L466 173 L466 166 L465 165 L465 144 L466 143 L467 130 L471 116 L476 106 L481 101 L482 104 L480 108 L477 121 L477 127 L476 128 L476 140 L475 141 L476 165 L477 166 L477 172 L481 189 L486 204 L497 227 L508 243 L524 259 L538 266 L550 266 L556 264 L564 259 L580 244 L589 232 L598 217 L608 194 L613 176 L614 166 L615 165 L615 157 L616 156 L616 132 L615 131 L614 117 L609 102 Z M482 100 L483 99 L484 100 L483 101 Z M608 99 L609 98 L610 99 L609 100 Z M606 94 L605 94 L605 96 L610 108 L612 121 L613 122 L613 129 L614 130 L614 157 L613 158 L611 175 L605 196 L596 216 L581 239 L563 257 L549 264 L539 264 L525 257 L516 249 L506 237 L494 217 L483 188 L480 176 L479 165 L478 164 L478 152 L477 151 L479 121 L482 108 L487 95 L482 97 L476 103 L470 114 L464 137 L463 161 L464 162 L465 179 L471 201 L481 224 L497 248 L513 264 L523 271 L533 276 L540 278 L550 278 L566 271 L581 260 L591 250 L602 236 L609 225 L618 207 L624 190 L628 173 L629 142 L628 141 L627 129 L622 113 L615 101 Z M513 86 L514 88 L510 98 L508 106 L508 111 L507 112 L507 118 L506 119 L506 150 L507 151 L508 165 L514 190 L524 215 L533 229 L536 232 L542 235 L546 235 L551 233 L562 220 L573 197 L581 171 L581 167 L583 162 L583 156 L584 155 L584 147 L585 146 L585 116 L584 115 L583 103 L578 88 L579 86 L583 88 L587 92 L593 103 L593 106 L595 110 L596 123 L597 124 L597 145 L596 146 L596 154 L595 155 L593 170 L586 192 L577 212 L567 228 L554 242 L547 246 L541 246 L534 242 L528 236 L519 224 L507 200 L501 183 L497 167 L496 157 L495 156 L495 148 L494 147 L495 119 L496 118 L497 110 L502 97 Z M577 86 L578 85 L579 86 L578 87 Z M513 86 L514 85 L515 86 L514 87 Z M517 82 L508 87 L503 92 L499 98 L495 109 L494 117 L493 118 L493 124 L492 125 L492 150 L493 151 L494 164 L498 181 L503 196 L517 225 L524 235 L534 245 L540 248 L548 248 L555 244 L569 229 L578 215 L590 188 L592 179 L595 172 L595 168 L598 157 L598 150 L599 149 L599 122 L598 121 L598 114 L595 103 L591 94 L585 87 L576 82 L574 82 L578 92 L581 104 L581 109 L582 110 L582 117 L583 118 L583 143 L582 144 L582 153 L581 154 L580 165 L571 196 L560 219 L556 225 L550 231 L546 233 L540 232 L534 227 L524 210 L515 185 L511 164 L510 163 L509 148 L508 147 L508 122 L509 121 L509 112 L510 111 L511 102 L515 89 L518 84 Z M551 79 L552 80 L556 80 L559 85 L561 93 L561 98 L562 99 L563 127 L562 128 L561 153 L560 154 L560 159 L559 160 L556 180 L550 199 L544 209 L537 194 L537 191 L533 179 L531 164 L530 163 L529 148 L528 147 L528 106 L529 105 L530 93 L534 82 L537 80 L541 80 L542 79 Z M550 77 L537 78 L532 81 L527 96 L526 113 L525 114 L525 139 L526 140 L526 152 L527 153 L528 166 L529 167 L533 188 L537 200 L543 211 L545 211 L548 208 L555 192 L562 163 L563 149 L564 148 L564 138 L565 137 L565 105 L564 104 L563 92 L559 80 L557 78 L551 78 Z M543 63 L567 65 L585 71 L606 82 L627 97 L639 109 L644 116 L644 119 L648 129 L651 141 L652 151 L653 152 L653 160 L654 161 L654 185 L653 186 L653 193 L650 206 L644 222 L629 248 L622 257 L602 277 L593 284 L571 297 L550 304 L543 304 L535 302 L513 292 L494 279 L474 260 L458 238 L449 221 L442 200 L442 196 L440 190 L440 181 L439 180 L440 153 L441 152 L443 137 L449 117 L454 109 L471 93 L494 78 L517 68 L533 64 L542 64 Z M535 61 L534 62 L521 64 L507 69 L482 82 L468 92 L454 105 L448 113 L447 116 L417 142 L392 167 L368 194 L334 238 L311 274 L293 311 L279 354 L274 374 L274 378 L272 383 L269 402 L268 403 L268 408 L267 409 L263 436 L262 437 L261 452 L260 453 L258 488 L257 489 L255 519 L254 520 L253 552 L252 553 L251 621 L241 632 L235 641 L227 657 L226 662 L223 668 L220 681 L220 688 L219 689 L219 703 L224 707 L234 712 L244 715 L243 718 L243 735 L242 736 L241 774 L240 775 L238 876 L237 877 L236 934 L235 935 L235 962 L234 963 L234 998 L233 999 L233 1032 L232 1033 L231 1116 L230 1117 L231 1196 L232 1197 L232 1222 L233 1223 L233 1241 L234 1242 L235 1258 L238 1268 L241 1272 L246 1275 L254 1277 L267 1276 L277 1273 L293 1264 L306 1252 L314 1241 L316 1236 L344 1206 L355 1224 L371 1244 L401 1273 L418 1286 L433 1295 L461 1306 L478 1310 L490 1311 L491 1312 L513 1313 L514 1314 L573 1314 L574 1313 L596 1312 L597 1311 L603 1311 L604 1310 L609 1310 L622 1307 L645 1299 L661 1291 L687 1272 L717 1243 L730 1227 L743 1207 L767 1236 L771 1245 L777 1254 L785 1263 L796 1271 L809 1276 L824 1277 L833 1274 L839 1267 L842 1255 L842 1249 L843 1248 L845 1216 L846 1215 L847 1188 L848 1187 L849 1155 L850 1154 L850 1132 L851 1131 L852 1052 L853 1051 L853 820 L852 819 L852 787 L851 786 L851 764 L850 763 L850 737 L849 736 L849 717 L848 716 L851 714 L863 711 L872 706 L875 703 L875 693 L874 692 L874 682 L870 666 L862 649 L850 632 L839 622 L838 547 L837 546 L837 532 L836 531 L835 509 L834 508 L834 500 L833 499 L831 456 L830 455 L830 446 L829 445 L829 437 L828 436 L828 430 L826 423 L826 417 L825 416 L823 399 L819 384 L818 375 L808 336 L798 308 L784 279 L775 264 L751 229 L721 191 L695 162 L673 140 L648 119 L646 114 L633 99 L611 82 L582 67 L559 61 Z" fill="#eef3f4" fill-rule="evenodd"/>
</svg>
