<svg xmlns="http://www.w3.org/2000/svg" width="1086" height="1448" viewBox="0 0 1086 1448">
  <title>0022</title>
  <path d="M560 1176 L561 1175 L562 1176 L561 1177 Z M507 1160 L528 1160 L529 1161 L529 1165 L528 1166 L529 1200 L528 1201 L514 1202 L511 1200 L511 1191 L510 1190 L510 1184 L508 1176 L509 1169 L506 1162 Z M557 1159 L558 1160 L558 1195 L559 1196 L559 1200 L558 1201 L539 1201 L534 1203 L532 1201 L532 1187 L531 1186 L531 1164 L533 1160 Z M476 1159 L503 1160 L504 1161 L506 1182 L507 1183 L507 1189 L509 1197 L509 1201 L508 1202 L492 1198 L488 1196 L479 1195 L477 1193 L477 1174 L476 1173 L476 1161 L475 1160 Z M559 1160 L567 1158 L579 1158 L581 1160 L579 1171 L576 1174 L564 1174 L560 1171 L560 1161 Z M451 1156 L470 1158 L473 1160 L474 1188 L475 1189 L474 1193 L463 1190 L459 1188 L455 1184 L453 1180 L450 1167 L450 1157 Z M417 1163 L418 1183 L423 1202 L431 1217 L443 1230 L456 1239 L469 1245 L492 1251 L509 1252 L510 1253 L540 1252 L541 1251 L557 1249 L577 1242 L589 1235 L603 1222 L608 1215 L615 1200 L618 1187 L618 1181 L619 1180 L619 1167 L618 1166 L618 1158 L617 1157 L616 1158 L617 1160 L616 1186 L615 1187 L615 1192 L610 1206 L603 1218 L590 1231 L583 1236 L571 1242 L550 1248 L538 1249 L537 1250 L502 1250 L501 1249 L495 1249 L494 1248 L489 1248 L476 1245 L461 1239 L447 1230 L435 1218 L429 1209 L421 1187 L420 1171 L419 1170 L420 1155 L418 1156 L418 1162 Z M446 1152 L447 1151 L470 1150 L471 1149 L476 1149 L489 1146 L497 1146 L513 1151 L525 1150 L535 1146 L548 1146 L549 1147 L555 1147 L556 1148 L568 1149 L569 1150 L600 1151 L601 1152 L600 1153 L591 1153 L590 1154 L583 1154 L582 1155 L558 1156 L557 1157 L536 1157 L535 1158 L481 1157 L480 1156 L470 1156 L469 1155 L462 1155 L461 1154 L447 1153 Z M648 1153 L645 1150 L639 1148 L613 1149 L612 1150 L593 1150 L592 1149 L572 1148 L571 1147 L565 1147 L564 1146 L558 1146 L557 1145 L544 1144 L543 1143 L534 1144 L523 1148 L510 1148 L499 1144 L486 1144 L474 1147 L469 1147 L462 1149 L452 1149 L451 1150 L430 1149 L429 1148 L423 1148 L411 1145 L401 1145 L394 1149 L394 1150 L400 1147 L412 1147 L419 1149 L410 1154 L406 1159 L402 1169 L402 1173 L407 1161 L415 1153 L419 1151 L427 1150 L432 1152 L446 1154 L448 1156 L447 1157 L447 1165 L448 1166 L448 1171 L450 1175 L450 1180 L452 1185 L456 1189 L465 1193 L474 1194 L481 1198 L505 1204 L510 1204 L511 1203 L515 1205 L523 1205 L529 1203 L534 1205 L545 1204 L546 1203 L549 1204 L551 1203 L559 1203 L561 1201 L561 1177 L562 1176 L564 1177 L576 1177 L580 1175 L582 1171 L582 1166 L583 1165 L583 1159 L582 1158 L589 1156 L594 1156 L595 1157 L596 1164 L595 1165 L594 1176 L586 1193 L571 1207 L555 1214 L541 1216 L540 1217 L529 1217 L528 1218 L500 1217 L499 1216 L487 1215 L473 1211 L462 1206 L455 1201 L443 1188 L438 1178 L438 1176 L437 1175 L436 1176 L438 1182 L444 1192 L457 1205 L470 1212 L482 1216 L496 1218 L497 1219 L506 1219 L507 1220 L534 1220 L535 1219 L548 1218 L562 1214 L575 1207 L586 1197 L594 1183 L598 1169 L598 1159 L597 1158 L598 1155 L608 1154 L609 1153 L614 1153 L624 1157 L632 1165 L635 1172 L636 1171 L631 1160 L625 1155 L621 1154 L620 1152 L628 1150 L641 1150 L646 1153 Z M797 1023 L798 1024 L798 1041 L799 1042 L799 1053 L800 1054 L798 1061 L795 1050 L795 1034 L796 1033 L796 1024 Z M802 1016 L805 1027 L805 1037 L801 1048 L800 1047 L800 1020 L799 1018 Z M297 1000 L301 1006 L311 1016 L325 1024 L336 1027 L355 1027 L366 1024 L381 1016 L395 1002 L394 1001 L382 1013 L368 1021 L354 1025 L336 1025 L323 1021 L314 1016 L302 1005 L298 999 Z M737 998 L735 998 L733 1002 L722 1013 L708 1021 L696 1024 L682 1024 L667 1020 L656 1014 L643 1001 L642 1002 L653 1014 L667 1022 L682 1026 L696 1026 L708 1023 L721 1016 L731 1007 Z M247 992 L251 997 L252 1005 L253 1006 L253 1013 L250 1019 L247 1015 L247 999 L246 998 L246 993 Z M243 992 L246 1005 L245 1015 L249 1022 L252 1020 L252 1017 L253 1016 L254 1017 L261 1060 L263 1065 L263 1069 L271 1101 L286 1148 L293 1164 L287 1170 L286 1180 L285 1181 L284 1212 L283 1213 L283 1233 L282 1234 L282 1261 L281 1262 L281 1298 L280 1299 L280 1315 L281 1316 L281 1320 L279 1322 L266 1322 L253 1319 L249 1315 L247 1307 L245 1271 L244 1270 L244 1259 L243 1258 L243 1246 L242 1245 L242 1232 L241 1231 L241 1218 L240 1217 L240 1204 L239 1203 L239 1189 L238 1188 L237 1164 L236 1163 L236 1152 L235 1151 L235 1138 L234 1137 L232 1085 L231 1084 L231 1057 L230 1056 L230 1015 L234 1008 L235 996 L237 994 Z M245 992 L246 991 L247 992 L246 993 Z M249 984 L250 985 L250 990 L249 991 L247 989 L247 986 Z M233 984 L234 983 L235 984 L234 985 Z M213 984 L214 983 L215 984 L214 985 Z M220 981 L223 988 L222 991 L229 995 L222 1004 L224 1004 L228 1000 L229 1001 L228 1009 L225 1013 L222 1014 L222 1016 L225 1015 L229 1009 L230 1003 L228 1000 L231 995 L233 999 L233 1003 L229 1014 L223 1019 L216 1019 L212 1015 L213 1014 L213 1000 L214 999 L216 1000 L216 998 L214 996 L214 992 L217 984 Z M215 976 L218 979 L215 984 L214 983 L214 977 Z M238 970 L239 973 L237 978 L232 982 L231 981 L231 984 L233 984 L234 986 L231 991 L229 992 L223 986 L223 980 L226 975 L231 970 L235 971 Z M246 964 L247 963 L248 964 L247 965 Z M242 963 L246 967 L249 975 L248 981 L245 986 L244 984 L242 984 L243 988 L240 991 L234 992 L233 990 L238 982 L238 979 L241 973 L241 964 Z M798 959 L800 965 L810 975 L810 992 L809 993 L808 1008 L803 1014 L801 1014 L797 1017 L795 1021 L794 1031 L793 1032 L794 1057 L796 1063 L800 1068 L801 1076 L800 1077 L800 1089 L799 1090 L799 1101 L798 1102 L797 1124 L796 1125 L793 1185 L792 1186 L791 1212 L790 1213 L790 1225 L789 1226 L789 1238 L788 1239 L788 1251 L787 1252 L787 1263 L786 1264 L783 1308 L782 1309 L781 1319 L776 1325 L768 1326 L767 1327 L758 1327 L750 1325 L746 1321 L744 1313 L743 1199 L742 1198 L741 1182 L744 1177 L752 1157 L754 1149 L756 1146 L765 1118 L767 1108 L770 1101 L773 1086 L775 1082 L779 1061 L780 1060 L780 1056 L783 1047 L783 1042 L784 1041 L789 1012 L790 1011 L794 979 L795 978 L796 964 Z M234 959 L236 959 L239 963 L240 966 L240 970 L239 971 L232 967 L232 962 Z M805 954 L806 953 L807 954 L806 955 Z M215 948 L220 948 L224 952 L227 958 L226 959 L222 959 L219 961 L227 961 L230 964 L230 968 L227 971 L225 970 L226 973 L223 976 L217 975 L213 970 L211 965 L211 952 Z M209 949 L210 948 L211 949 L210 950 Z M211 945 L218 940 L224 942 L228 946 L232 954 L232 959 L231 960 L229 959 L229 957 L222 946 L215 946 L211 949 L210 948 Z M815 934 L816 933 L817 934 L816 935 Z M838 931 L843 935 L843 943 L841 946 L837 942 L839 938 L837 934 L836 935 L837 939 L835 944 L837 944 L839 946 L839 950 L835 956 L827 963 L828 964 L833 961 L834 962 L834 970 L832 974 L827 978 L823 979 L818 978 L814 976 L809 970 L810 969 L808 967 L804 966 L802 964 L801 957 L805 954 L806 955 L806 959 L807 959 L808 955 L810 953 L814 953 L823 960 L818 953 L822 949 L827 949 L827 946 L830 945 L831 943 L823 945 L821 948 L816 951 L811 951 L810 949 L813 942 L823 933 L828 931 Z M452 932 L450 933 L447 938 L440 945 L431 951 L411 959 L403 960 L402 961 L396 961 L395 962 L365 963 L364 962 L347 961 L346 960 L325 956 L306 949 L308 951 L317 955 L342 962 L354 963 L355 964 L363 964 L364 965 L396 964 L397 963 L411 961 L423 957 L433 952 L440 947 L448 939 Z M585 931 L591 941 L598 948 L605 953 L617 959 L640 965 L672 966 L673 965 L688 964 L689 963 L710 959 L732 950 L731 949 L711 957 L690 961 L689 962 L673 963 L672 964 L641 963 L640 962 L626 960 L617 957 L605 951 L598 946 L591 939 L587 932 Z M373 915 L374 914 L378 915 L377 916 Z M762 911 L763 910 L764 911 L763 912 Z M376 894 L383 895 L388 901 L387 908 L381 913 L373 912 L369 906 L369 901 L371 897 Z M665 888 L670 889 L675 895 L675 900 L673 904 L669 907 L663 907 L657 901 L657 894 L658 892 Z M408 889 L409 888 L413 889 L427 896 L437 903 L445 911 L446 914 L441 918 L433 919 L432 920 L406 920 L405 919 L406 918 L406 911 L407 910 Z M636 888 L637 896 L638 897 L638 908 L639 909 L639 917 L638 918 L629 919 L628 920 L620 920 L619 921 L606 921 L598 919 L595 916 L595 914 L601 906 L608 900 L623 891 L633 887 Z M738 887 L740 886 L748 892 L758 902 L763 910 L761 911 L750 906 L748 904 L744 894 Z M662 887 L657 890 L655 893 L654 897 L655 902 L661 908 L665 909 L671 908 L674 906 L677 901 L677 895 L675 891 L670 887 Z M737 886 L738 885 L739 886 L738 887 Z M318 882 L309 891 L303 905 L293 906 L280 911 L279 910 L284 902 L296 891 L310 883 L316 881 Z M351 877 L366 878 L367 879 L384 881 L405 886 L406 887 L405 888 L405 901 L404 902 L403 919 L402 920 L398 920 L397 919 L391 919 L378 916 L385 913 L390 906 L389 898 L384 893 L381 892 L373 893 L369 896 L367 900 L367 907 L374 914 L373 915 L340 907 L339 904 Z M348 878 L346 880 L343 890 L336 906 L328 904 L307 904 L306 903 L312 891 L322 882 L334 878 L340 878 L341 877 L347 877 Z M688 875 L690 890 L691 891 L691 900 L693 905 L691 907 L678 909 L654 915 L650 915 L645 917 L641 916 L641 899 L639 891 L639 886 L640 885 L674 876 L684 875 L685 874 Z M277 910 L278 912 L282 912 L300 907 L324 906 L325 907 L341 909 L378 919 L383 919 L396 922 L407 922 L408 923 L436 922 L443 920 L448 916 L447 909 L441 903 L430 895 L415 887 L392 880 L372 877 L371 876 L363 876 L362 875 L335 875 L334 876 L329 876 L313 880 L299 887 L291 893 L282 902 Z M690 875 L694 873 L708 874 L719 877 L727 881 L740 893 L745 903 L741 904 L734 902 L715 902 L714 903 L696 905 L694 901 L694 894 L693 893 L693 888 Z M766 911 L760 902 L750 892 L736 882 L719 874 L708 871 L689 871 L688 872 L681 872 L647 880 L624 888 L605 899 L595 909 L592 914 L592 917 L595 920 L604 923 L623 923 L624 922 L631 922 L632 921 L656 917 L661 915 L670 914 L687 909 L692 909 L693 908 L709 906 L710 905 L718 905 L719 904 L738 905 L755 910 L761 913 L766 913 Z M607 891 L608 892 L616 886 L629 879 L657 869 L671 867 L672 866 L679 866 L680 865 L702 865 L703 866 L715 867 L731 872 L748 882 L762 895 L749 881 L739 874 L723 867 L711 864 L706 864 L705 863 L678 863 L677 864 L670 864 L669 865 L656 867 L636 874 L620 882 Z M281 894 L283 894 L291 885 L299 879 L311 873 L326 868 L337 867 L338 866 L349 866 L350 865 L367 866 L368 867 L374 867 L387 870 L407 877 L425 886 L433 892 L433 890 L419 881 L405 874 L388 868 L375 865 L370 865 L369 864 L344 863 L343 864 L330 865 L313 870 L298 878 L289 885 Z M233 841 L234 842 L235 860 L236 861 L237 899 L238 900 L238 953 L237 954 L238 955 L237 956 L234 955 L230 946 L228 944 L229 914 L230 913 L230 894 L231 893 L231 875 L232 874 L232 842 Z M495 839 L493 839 L494 840 L494 845 L496 852 L496 860 L497 861 L496 941 L495 942 L494 972 L493 973 L493 985 L492 986 L491 1010 L490 1011 L490 1021 L489 1022 L489 1032 L488 1033 L488 1044 L487 1045 L487 1055 L486 1056 L486 1065 L485 1066 L485 1074 L484 1075 L483 1087 L485 1086 L487 1064 L488 1063 L488 1055 L489 1054 L489 1045 L490 1044 L490 1035 L491 1034 L494 988 L495 987 L495 975 L496 974 L496 960 L497 959 L498 925 L499 924 L500 881 L499 880 L498 855 L497 854 L497 848 L496 847 Z M540 838 L537 850 L536 869 L535 870 L535 911 L536 912 L537 955 L538 956 L538 973 L539 974 L539 987 L540 988 L541 1016 L542 1017 L542 1028 L543 1029 L543 1041 L544 1042 L546 1071 L547 1072 L548 1087 L549 1087 L549 1077 L548 1076 L548 1066 L547 1065 L546 1044 L545 1043 L545 1033 L544 1032 L544 1021 L543 1020 L542 993 L541 992 L540 960 L539 959 L539 939 L538 938 L538 913 L537 912 L537 863 L538 862 L538 852 L539 851 Z M274 880 L276 879 L278 874 L284 866 L300 850 L312 842 L324 836 L336 832 L346 831 L347 830 L354 830 L355 829 L377 830 L378 831 L391 833 L407 839 L418 845 L433 856 L443 866 L452 878 L458 889 L462 901 L462 905 L463 906 L463 926 L462 927 L462 933 L461 934 L459 951 L457 957 L457 962 L453 978 L453 983 L449 999 L449 1004 L446 1015 L446 1020 L445 1021 L442 1040 L440 1045 L440 1049 L436 1065 L436 1075 L437 1076 L409 1092 L385 1101 L372 1104 L367 1104 L366 1105 L359 1105 L358 1106 L339 1105 L324 1101 L308 1092 L295 1080 L286 1068 L281 1058 L279 1057 L285 1069 L293 1080 L303 1090 L320 1101 L339 1107 L347 1107 L348 1108 L358 1108 L359 1107 L373 1106 L386 1103 L410 1094 L438 1078 L447 1085 L461 1092 L481 1099 L494 1102 L501 1102 L503 1104 L502 1106 L501 1129 L497 1139 L501 1135 L504 1125 L504 1104 L505 1103 L526 1104 L527 1105 L526 1108 L527 1110 L527 1125 L530 1135 L534 1139 L530 1130 L529 1110 L528 1109 L528 1105 L529 1104 L549 1102 L550 1101 L563 1099 L583 1091 L590 1084 L600 1090 L624 1101 L640 1106 L656 1108 L657 1109 L686 1109 L687 1108 L698 1107 L718 1101 L732 1093 L730 1093 L717 1100 L694 1106 L687 1106 L686 1107 L659 1107 L658 1106 L646 1105 L622 1098 L599 1087 L591 1082 L591 1065 L590 1064 L589 1045 L588 1044 L588 1036 L587 1035 L587 1028 L586 1027 L586 1018 L585 1017 L585 1010 L584 1009 L584 1001 L583 1000 L583 992 L582 991 L578 948 L577 947 L577 938 L576 937 L576 924 L575 923 L576 920 L576 908 L581 891 L588 878 L594 870 L609 855 L620 847 L637 838 L655 832 L665 831 L666 830 L684 829 L685 830 L700 831 L719 837 L731 843 L747 855 L760 869 L768 881 L768 879 L760 866 L747 852 L732 841 L718 834 L702 829 L689 828 L688 827 L670 827 L669 828 L663 828 L646 832 L627 840 L613 849 L603 857 L588 874 L583 882 L576 898 L575 906 L574 907 L573 924 L574 925 L574 938 L575 939 L577 969 L578 970 L579 987 L580 988 L583 1022 L584 1023 L584 1030 L585 1031 L585 1040 L586 1041 L586 1049 L587 1050 L589 1081 L583 1088 L571 1094 L553 1099 L540 1100 L539 1101 L505 1101 L504 1100 L497 1100 L496 1099 L482 1097 L469 1093 L457 1087 L455 1087 L441 1079 L438 1075 L438 1066 L440 1061 L443 1042 L445 1037 L445 1032 L451 1006 L451 1001 L452 1000 L455 979 L457 973 L457 968 L459 962 L460 951 L462 945 L464 923 L465 922 L465 908 L464 907 L464 902 L462 894 L455 879 L446 866 L433 853 L416 841 L401 834 L389 830 L380 829 L379 828 L372 828 L371 827 L344 828 L321 835 L302 846 L284 863 Z M235 819 L239 819 L240 820 L243 832 L242 836 L242 849 L243 850 L243 886 L244 887 L245 935 L246 936 L246 950 L247 951 L247 963 L246 964 L243 960 L238 957 L239 956 L239 943 L240 942 L239 941 L240 939 L239 890 L238 889 L238 871 L237 870 L236 846 L235 845 L234 836 L232 832 L232 822 Z M812 812 L813 813 L813 939 L809 944 L808 950 L803 952 L799 956 L798 959 L797 955 L798 954 L800 923 L801 922 L802 891 L803 890 L803 865 L804 864 L804 832 L803 831 L803 827 L805 823 L806 814 L808 812 Z M771 813 L772 812 L773 814 L772 815 Z M267 812 L268 811 L269 813 L268 814 Z M549 809 L550 808 L551 809 L550 810 Z M481 809 L482 808 L483 809 L482 810 Z M268 809 L269 808 L270 810 L269 811 Z M477 771 L480 774 L490 780 L508 785 L532 784 L546 780 L553 776 L552 775 L547 778 L528 783 L507 783 L492 779 Z M550 807 L560 788 L572 771 L592 750 L610 736 L628 726 L645 720 L653 718 L658 718 L659 717 L686 717 L703 721 L720 729 L731 737 L744 750 L753 762 L763 781 L769 797 L772 811 L771 812 L763 795 L756 784 L748 774 L737 764 L725 756 L714 751 L701 747 L688 746 L687 745 L673 745 L672 746 L658 747 L646 750 L627 757 L597 773 L570 792 L551 809 Z M269 805 L276 783 L285 765 L293 753 L307 738 L321 728 L339 720 L352 717 L377 717 L378 718 L383 718 L405 725 L422 734 L437 745 L457 765 L472 786 L482 808 L481 809 L468 796 L456 786 L426 766 L396 752 L383 748 L367 746 L366 745 L350 745 L349 746 L338 747 L322 752 L311 758 L300 766 L285 782 L278 793 L270 809 Z M778 835 L775 813 L768 788 L759 768 L746 749 L733 736 L722 728 L700 718 L687 715 L678 715 L677 714 L652 716 L632 722 L619 728 L598 742 L574 765 L566 775 L553 795 L547 807 L544 816 L544 819 L545 819 L567 797 L584 784 L603 772 L626 760 L656 750 L666 749 L667 748 L683 747 L684 748 L700 749 L714 753 L723 757 L739 768 L753 783 L762 797 L772 819 L776 831 L776 834 L777 836 Z M262 833 L264 833 L270 814 L281 792 L290 779 L303 766 L311 760 L327 752 L343 748 L353 748 L354 747 L371 748 L372 749 L385 751 L400 756 L425 768 L458 790 L486 818 L487 818 L487 814 L483 802 L469 777 L453 757 L437 742 L418 729 L401 721 L384 716 L361 714 L360 715 L351 715 L350 716 L342 717 L333 720 L319 727 L303 739 L292 751 L282 766 L273 785 L266 808 Z M403 711 L404 712 L418 714 L433 719 L449 727 L469 741 L481 747 L502 752 L524 752 L547 746 L562 738 L580 724 L579 723 L571 730 L559 738 L539 747 L531 749 L526 749 L525 750 L501 750 L500 749 L490 748 L476 743 L447 724 L429 716 L415 712 Z M390 695 L419 695 L420 696 L428 696 L429 697 L434 697 L447 700 L466 708 L474 714 L485 720 L496 723 L502 723 L503 724 L520 724 L521 723 L528 723 L529 722 L534 722 L556 715 L574 705 L573 704 L571 706 L550 716 L536 720 L525 721 L524 722 L499 722 L487 719 L460 703 L439 696 L434 696 L427 694 L417 694 L416 693 L398 693 Z M687 693 L684 691 L676 690 L675 689 L669 689 L668 688 L647 688 L646 689 L639 689 L638 690 L625 692 L614 696 L606 701 L624 694 L632 692 L637 692 L638 691 L645 691 L646 690 L670 690 L671 691 L678 691 L679 692 Z M288 671 L289 672 L279 686 L270 704 L256 742 L247 781 L245 800 L244 801 L243 818 L242 819 L241 818 L241 808 L240 807 L240 769 L241 768 L241 740 L242 739 L242 722 L243 721 L243 702 L244 701 L245 676 L253 674 L263 674 L264 673 Z M757 665 L760 668 L767 680 L780 709 L789 737 L793 758 L794 759 L794 763 L795 764 L797 783 L798 784 L798 791 L799 792 L800 814 L801 815 L800 902 L799 903 L799 917 L798 918 L798 930 L797 931 L797 940 L796 941 L795 961 L793 969 L791 990 L790 991 L787 1014 L785 1020 L785 1025 L783 1030 L783 1035 L779 1050 L777 1064 L773 1077 L773 1081 L769 1093 L768 1100 L765 1107 L765 1110 L762 1117 L762 1120 L752 1150 L740 1180 L727 1206 L700 1249 L666 1292 L634 1325 L622 1334 L612 1339 L598 1343 L580 1344 L579 1345 L483 1346 L482 1345 L456 1344 L455 1343 L448 1343 L447 1342 L437 1341 L423 1337 L410 1331 L395 1320 L381 1306 L370 1293 L346 1259 L312 1201 L298 1172 L288 1147 L275 1107 L264 1063 L264 1059 L259 1038 L258 1027 L257 1026 L255 1006 L254 1005 L252 981 L251 980 L251 973 L250 972 L249 948 L248 947 L247 906 L246 905 L246 876 L245 875 L245 813 L246 812 L246 803 L247 802 L249 783 L260 737 L270 710 L281 687 L289 674 L292 671 L295 670 L308 670 L309 669 L361 668 L362 669 L389 669 L390 670 L411 670 L412 671 L475 673 L476 674 L569 675 L570 674 L614 673 L615 672 L631 672 L632 671 L682 669 L683 668 L700 668 L701 667 Z M760 664 L788 663 L789 662 L800 662 L801 661 L802 662 L804 716 L805 717 L805 737 L806 738 L806 759 L807 760 L807 799 L806 800 L806 806 L804 813 L802 809 L801 788 L800 787 L797 762 L790 732 L777 696 L766 674 L759 665 Z M232 637 L236 635 L245 621 L251 615 L255 613 L262 613 L266 615 L279 627 L291 634 L301 635 L312 631 L340 611 L357 604 L374 604 L380 606 L395 614 L408 623 L416 627 L430 631 L440 631 L441 630 L449 629 L484 609 L500 604 L506 604 L507 603 L527 603 L528 604 L534 604 L535 605 L540 605 L548 607 L568 615 L593 631 L606 634 L608 633 L615 633 L624 630 L659 610 L675 606 L683 606 L695 609 L712 619 L729 632 L738 635 L743 635 L754 631 L770 617 L783 610 L790 610 L797 613 L806 622 L813 632 L814 631 L806 619 L800 613 L790 608 L779 609 L768 616 L753 629 L747 632 L739 633 L732 631 L725 627 L704 611 L696 607 L685 604 L667 605 L650 612 L629 625 L620 629 L613 631 L600 631 L588 626 L565 611 L546 604 L531 602 L530 601 L505 601 L504 602 L499 602 L491 604 L475 611 L451 626 L438 629 L432 629 L419 626 L407 620 L391 609 L381 604 L375 602 L363 601 L362 602 L353 603 L341 608 L327 617 L313 628 L301 633 L296 633 L287 630 L280 625 L270 615 L265 612 L255 611 L252 612 L246 617 L237 631 L232 635 Z M227 605 L231 601 L244 598 L250 598 L251 597 L268 596 L269 595 L280 595 L281 594 L322 593 L323 592 L365 592 L366 591 L605 592 L606 593 L671 594 L672 595 L695 595 L696 596 L743 597 L744 598 L783 598 L784 599 L817 598 L818 599 L818 619 L817 620 L816 652 L813 657 L806 659 L764 661 L763 662 L747 662 L746 663 L709 664 L708 665 L691 665 L690 666 L673 666 L672 667 L655 667 L654 668 L638 668 L637 669 L622 669 L621 670 L604 670 L603 671 L582 671 L581 672 L493 672 L492 671 L466 671 L465 670 L444 670 L443 669 L379 667 L378 666 L316 666 L315 667 L299 667 L298 668 L287 668 L286 669 L267 670 L266 671 L258 671 L257 672 L249 672 L248 673 L238 673 L233 668 L232 657 L238 652 L249 633 L256 628 L260 627 L265 629 L279 642 L289 648 L295 650 L305 650 L317 645 L338 630 L357 622 L373 622 L387 628 L393 633 L411 644 L422 648 L432 649 L433 650 L445 650 L446 649 L452 649 L466 645 L498 628 L512 624 L533 624 L534 625 L543 626 L562 634 L572 641 L585 648 L602 652 L617 651 L627 648 L641 641 L654 632 L666 626 L673 624 L689 624 L695 626 L705 631 L725 646 L734 650 L743 651 L755 647 L778 628 L784 625 L790 625 L795 627 L802 634 L812 650 L813 649 L803 632 L797 626 L790 623 L784 623 L774 628 L759 642 L747 648 L734 648 L724 643 L712 633 L696 624 L690 622 L677 621 L676 622 L671 622 L658 627 L638 640 L623 647 L615 649 L597 649 L586 646 L561 631 L550 626 L535 622 L529 622 L528 621 L516 621 L515 622 L505 623 L502 625 L497 626 L467 642 L455 646 L451 646 L450 647 L428 647 L412 642 L380 622 L374 620 L362 619 L349 622 L337 628 L316 643 L305 648 L292 647 L284 643 L266 627 L259 625 L255 626 L246 634 L237 651 L232 655 L231 654 L230 638 L229 637 Z M513 564 L521 565 L526 570 L527 573 L525 581 L519 585 L513 585 L509 583 L505 577 L505 572 L507 568 Z M512 562 L505 567 L503 571 L503 577 L504 580 L509 585 L514 587 L518 587 L523 585 L527 581 L529 576 L529 572 L527 567 L524 564 L520 562 Z M234 570 L235 569 L235 560 L236 559 L236 554 L237 553 L237 548 L239 543 L240 535 L252 503 L263 482 L274 466 L275 463 L295 438 L311 422 L324 411 L352 392 L383 376 L385 376 L397 370 L434 357 L435 358 L433 361 L434 363 L440 368 L466 371 L467 372 L474 372 L475 373 L544 371 L545 372 L570 372 L571 373 L584 373 L585 374 L615 374 L621 371 L621 369 L623 368 L650 377 L675 387 L699 399 L714 408 L729 419 L748 437 L765 458 L781 483 L795 512 L805 540 L809 561 L810 562 L810 570 L811 571 L811 595 L810 596 L760 596 L759 595 L731 595 L730 594 L707 594 L706 593 L659 592 L658 591 L631 591 L630 590 L410 588 L409 589 L341 589 L340 590 L288 591 L287 592 L274 592 L273 593 L255 594 L254 595 L248 595 L236 598 L235 597 L235 590 L234 589 Z M458 340 L459 339 L460 340 L459 341 Z M435 360 L438 356 L452 351 L458 350 L461 352 L459 346 L459 341 L460 340 L468 348 L474 352 L489 359 L499 361 L490 358 L476 351 L466 344 L459 337 L457 333 L457 325 L458 324 L466 333 L477 341 L493 349 L513 356 L530 359 L531 360 L536 360 L537 361 L557 362 L558 363 L586 362 L587 361 L591 361 L596 358 L608 364 L618 367 L620 370 L617 372 L611 372 L610 373 L580 372 L579 371 L560 371 L559 370 L532 370 L531 369 L499 370 L498 371 L475 371 L474 370 L465 370 L457 368 L443 367 L438 365 Z M453 243 L455 241 L464 249 L478 256 L501 264 L529 271 L553 275 L554 276 L586 280 L587 281 L593 281 L598 295 L597 356 L593 359 L585 361 L554 361 L553 360 L544 360 L543 359 L531 358 L530 357 L513 354 L491 346 L469 333 L459 323 L455 312 L454 293 L453 292 L453 275 L452 274 L452 255 L453 254 L463 262 L476 268 L491 273 L523 281 L527 281 L532 283 L541 284 L546 286 L551 286 L556 288 L579 291 L590 294 L594 294 L594 293 L583 290 L578 290 L577 289 L533 281 L519 277 L515 277 L482 268 L479 266 L469 263 L458 257 L452 251 Z M450 170 L451 169 L457 175 L475 185 L499 193 L519 198 L549 203 L550 204 L569 206 L570 207 L577 207 L578 208 L585 208 L593 210 L595 212 L596 231 L597 232 L597 274 L596 278 L594 280 L591 280 L590 279 L550 273 L535 269 L526 268 L521 266 L517 266 L481 255 L461 245 L453 237 L451 231 L451 225 L450 224 Z M451 163 L454 158 L460 163 L475 172 L477 172 L487 177 L517 186 L521 186 L530 189 L535 189 L546 192 L557 193 L558 194 L579 196 L580 197 L589 197 L590 198 L590 202 L593 207 L590 208 L584 206 L578 206 L577 205 L545 201 L544 200 L524 197 L515 194 L511 194 L495 190 L470 181 L461 176 L451 167 Z M583 125 L584 124 L585 125 L584 126 Z M451 83 L452 82 L463 91 L479 99 L498 106 L501 106 L518 112 L538 117 L542 117 L551 120 L555 120 L560 122 L564 122 L569 124 L585 127 L587 129 L588 142 L589 143 L591 175 L592 176 L592 194 L590 196 L587 196 L586 195 L564 193 L563 192 L558 192 L557 191 L552 191 L551 190 L531 187 L526 185 L522 185 L506 181 L480 172 L464 164 L457 159 L452 154 L451 151 Z M452 67 L453 66 L454 69 L462 77 L471 83 L493 93 L530 104 L534 104 L543 107 L547 107 L567 112 L582 114 L583 115 L582 119 L584 124 L581 125 L569 121 L565 121 L552 117 L548 117 L539 114 L535 114 L519 110 L477 96 L463 89 L452 80 Z M580 48 L584 51 L589 68 L593 91 L605 136 L608 155 L610 160 L612 176 L613 177 L613 183 L614 184 L614 193 L615 194 L615 225 L614 226 L612 266 L611 267 L611 276 L610 277 L610 286 L609 287 L609 297 L607 305 L607 312 L606 313 L606 319 L605 320 L605 325 L604 326 L604 331 L601 344 L600 343 L601 296 L599 288 L597 285 L597 281 L599 278 L599 274 L600 273 L599 220 L598 219 L597 209 L593 202 L593 198 L595 193 L594 166 L593 165 L593 155 L592 154 L590 130 L585 119 L585 116 L587 112 L587 98 L586 97 L586 89 L585 88 L585 81 L584 80 L582 62 L577 51 Z M453 63 L465 51 L475 47 L483 46 L484 45 L501 44 L502 43 L552 43 L553 44 L559 44 L567 46 L573 50 L576 54 L579 62 L581 78 L582 79 L583 94 L584 95 L584 112 L580 113 L571 110 L553 107 L544 104 L540 104 L520 99 L497 92 L494 90 L484 87 L465 77 L455 68 Z M582 37 L588 37 L592 40 L593 42 L592 47 L594 47 L595 45 L596 46 L601 60 L601 64 L599 69 L602 64 L605 70 L605 78 L609 87 L608 95 L611 100 L611 108 L612 109 L611 112 L613 115 L613 119 L614 118 L618 127 L618 131 L619 132 L618 136 L623 147 L623 152 L624 153 L623 158 L626 163 L626 169 L624 171 L626 173 L628 179 L628 194 L627 195 L626 193 L625 194 L627 200 L627 225 L626 226 L627 228 L626 229 L624 228 L626 231 L627 241 L626 242 L626 247 L623 248 L625 253 L625 266 L623 269 L621 268 L623 274 L623 286 L622 287 L621 297 L620 298 L618 297 L619 307 L617 308 L618 312 L617 321 L616 322 L615 330 L612 333 L610 350 L607 353 L609 354 L608 355 L608 359 L606 361 L601 360 L600 358 L604 345 L604 340 L605 339 L607 323 L608 322 L608 316 L609 315 L609 309 L610 308 L611 293 L612 292 L614 260 L615 259 L615 247 L616 246 L616 229 L617 228 L617 189 L616 188 L616 180 L615 179 L615 173 L614 172 L611 152 L609 147 L609 143 L606 134 L606 130 L602 114 L599 106 L595 83 L593 78 L592 69 L588 57 L588 54 L585 48 L578 44 L576 44 L576 46 L578 47 L575 49 L569 45 L573 41 L576 41 Z M589 35 L580 35 L567 43 L559 42 L558 41 L549 41 L548 40 L507 40 L506 41 L485 42 L465 48 L459 52 L453 58 L449 67 L449 87 L448 88 L448 149 L449 150 L450 159 L448 163 L448 202 L447 203 L447 211 L448 212 L447 213 L447 218 L448 219 L448 230 L452 239 L449 249 L449 268 L450 269 L450 286 L451 287 L452 310 L454 318 L456 321 L454 327 L454 333 L455 334 L457 347 L416 360 L386 372 L377 377 L375 377 L342 395 L315 415 L287 443 L267 470 L249 503 L238 533 L235 550 L234 551 L234 556 L233 557 L233 564 L232 565 L232 594 L233 597 L231 599 L227 600 L225 603 L225 620 L226 621 L227 642 L228 643 L228 650 L229 651 L229 659 L230 660 L231 670 L235 675 L242 677 L240 727 L239 728 L239 748 L238 749 L238 779 L237 780 L237 800 L238 801 L238 814 L239 815 L238 816 L234 816 L230 820 L229 823 L229 830 L230 831 L230 864 L229 865 L229 885 L228 886 L228 907 L227 908 L226 939 L225 940 L222 938 L215 938 L213 939 L207 946 L207 954 L208 955 L209 967 L212 973 L210 981 L210 989 L211 990 L210 1018 L215 1022 L223 1022 L226 1020 L228 1021 L228 1068 L229 1069 L230 1110 L231 1111 L232 1142 L233 1143 L233 1156 L234 1157 L234 1169 L235 1170 L235 1182 L236 1183 L237 1212 L238 1213 L239 1241 L240 1242 L240 1253 L241 1254 L241 1265 L242 1266 L244 1305 L245 1306 L246 1315 L251 1321 L256 1323 L267 1324 L268 1325 L280 1325 L284 1322 L284 1316 L283 1315 L283 1285 L284 1284 L284 1256 L285 1255 L285 1231 L286 1230 L287 1192 L288 1191 L289 1174 L293 1167 L303 1187 L303 1189 L305 1191 L321 1223 L344 1261 L362 1287 L380 1309 L392 1321 L410 1334 L426 1341 L443 1345 L449 1345 L450 1346 L469 1347 L470 1348 L488 1348 L489 1349 L575 1348 L576 1347 L597 1346 L612 1342 L622 1337 L637 1326 L660 1303 L678 1282 L698 1256 L719 1225 L738 1190 L739 1191 L739 1198 L740 1199 L741 1308 L742 1309 L743 1321 L748 1327 L753 1329 L773 1329 L778 1327 L782 1323 L784 1318 L786 1296 L787 1295 L787 1285 L788 1284 L790 1249 L791 1248 L791 1236 L792 1235 L792 1223 L793 1222 L793 1210 L794 1209 L794 1195 L795 1194 L795 1181 L796 1180 L796 1166 L797 1165 L797 1151 L798 1150 L798 1136 L799 1135 L799 1123 L800 1122 L800 1111 L801 1110 L801 1099 L802 1098 L802 1087 L803 1086 L803 1075 L804 1074 L803 1068 L800 1063 L802 1060 L803 1052 L808 1036 L808 1029 L805 1016 L810 1011 L811 1008 L811 999 L813 992 L813 980 L815 979 L818 981 L823 982 L827 981 L833 977 L837 969 L837 960 L836 958 L844 948 L846 942 L846 935 L845 933 L838 928 L830 928 L823 930 L817 934 L816 933 L816 812 L813 809 L810 810 L808 809 L809 797 L810 796 L810 767 L809 766 L809 741 L808 740 L808 720 L807 719 L805 662 L806 661 L815 660 L818 657 L819 638 L820 637 L820 619 L821 618 L821 598 L818 595 L814 595 L813 594 L814 590 L814 572 L813 571 L813 564 L812 563 L810 548 L803 525 L795 505 L784 483 L775 468 L764 452 L751 436 L738 423 L727 414 L701 397 L681 387 L679 387 L657 377 L609 361 L612 354 L614 338 L616 335 L619 323 L619 315 L621 309 L621 302 L623 298 L624 289 L625 288 L625 274 L627 269 L627 250 L629 246 L629 221 L630 220 L630 202 L629 199 L631 194 L631 182 L629 175 L629 165 L626 158 L625 145 L621 137 L621 129 L618 120 L614 113 L614 104 L613 103 L613 98 L611 94 L611 85 L608 78 L607 68 L603 62 L603 56 L596 41 Z" fill="#eef3f4" fill-rule="evenodd"/>
</svg>
