<svg xmlns="http://www.w3.org/2000/svg" width="1086" height="1448" viewBox="0 0 1086 1448">
  <title>0024</title>
  <path d="M331 1074 L332 1073 L333 1075 L332 1076 Z M755 1067 L756 1066 L757 1067 L756 1068 Z M462 1034 L463 1033 L477 1043 L491 1049 L499 1051 L505 1051 L506 1052 L520 1052 L521 1053 L548 1053 L549 1052 L565 1051 L584 1044 L595 1037 L599 1033 L601 1035 L586 1050 L576 1056 L565 1060 L556 1061 L555 1062 L514 1062 L513 1061 L497 1059 L482 1053 L476 1049 Z M600 1033 L601 1032 L602 1033 L601 1034 Z M461 1033 L462 1032 L463 1033 L462 1034 Z M601 1032 L602 1031 L603 1032 L602 1033 Z M460 1032 L461 1031 L462 1032 L461 1033 Z M602 1031 L603 1030 L604 1031 L603 1032 Z M459 1031 L460 1030 L461 1031 L460 1032 Z M603 1030 L604 1029 L605 1030 L604 1031 Z M451 1021 L452 1020 L456 1020 L457 1021 L470 1022 L471 1023 L519 1026 L520 1027 L567 1026 L568 1025 L579 1025 L580 1024 L596 1023 L608 1020 L611 1021 L591 1037 L581 1043 L571 1047 L563 1049 L558 1049 L557 1050 L510 1050 L509 1049 L502 1049 L501 1048 L493 1047 L484 1044 L473 1038 Z M610 1020 L611 1019 L613 1020 L612 1021 Z M449 1020 L450 1019 L452 1020 L451 1021 Z M613 1019 L614 1018 L615 1019 L614 1020 Z M614 1015 L615 1014 L617 1015 L616 1016 Z M442 1014 L443 1013 L445 1014 L444 1015 Z M439 1013 L440 1012 L441 1013 L440 1014 Z M436 1012 L437 1011 L438 1012 L437 1013 Z M445 1015 L446 1014 L450 1014 L451 1015 L464 1014 L482 1006 L497 1006 L527 1016 L540 1015 L543 1013 L563 1007 L576 1008 L582 1011 L596 1015 L613 1015 L614 1016 L606 1019 L601 1019 L594 1021 L586 1021 L585 1022 L561 1023 L560 1024 L543 1024 L542 1025 L525 1025 L524 1024 L465 1020 L464 1019 L449 1017 Z M415 1006 L415 1008 L420 1008 L430 1011 L445 1019 L447 1021 L447 1023 L452 1026 L457 1031 L465 1042 L476 1052 L481 1055 L500 1062 L511 1063 L512 1064 L530 1064 L531 1065 L546 1065 L547 1064 L562 1063 L575 1059 L583 1055 L590 1050 L599 1041 L606 1031 L614 1023 L613 1022 L634 1010 L640 1009 L644 1007 L643 1006 L633 1007 L613 1013 L597 1013 L574 1005 L560 1005 L538 1013 L530 1014 L529 1013 L524 1013 L503 1005 L494 1004 L493 1003 L481 1004 L466 1011 L458 1013 L446 1012 L427 1006 Z M566 933 L571 930 L578 930 L579 931 L576 934 L567 934 Z M475 932 L478 930 L481 930 L488 933 L487 934 L476 934 Z M590 925 L583 920 L574 919 L562 922 L547 930 L541 932 L532 933 L531 934 L522 934 L505 930 L488 922 L473 921 L467 924 L464 927 L464 929 L468 925 L473 923 L485 923 L496 927 L498 929 L510 934 L519 935 L520 936 L533 936 L545 933 L568 922 L578 921 L579 922 L583 922 L590 927 Z M805 895 L806 896 L805 900 L804 899 Z M806 880 L807 881 L807 888 L806 889 L805 888 L805 881 Z M449 897 L449 914 L453 924 L459 931 L470 936 L493 935 L495 937 L509 944 L517 946 L523 946 L524 947 L539 946 L550 942 L561 935 L567 935 L568 936 L584 936 L593 932 L601 924 L606 911 L605 894 L600 883 L592 875 L583 872 L574 873 L568 876 L562 882 L560 886 L560 889 L562 888 L564 883 L572 876 L575 875 L586 875 L591 877 L598 884 L603 895 L603 901 L604 902 L603 914 L598 924 L592 930 L586 933 L581 934 L580 933 L582 931 L581 929 L579 928 L571 928 L558 934 L551 939 L541 943 L537 943 L536 944 L519 944 L508 941 L496 934 L482 928 L474 929 L472 931 L473 932 L472 933 L465 932 L456 924 L453 919 L451 912 L451 900 L453 892 L458 883 L462 879 L470 875 L481 875 L484 876 L493 883 L492 880 L488 876 L478 872 L473 872 L464 875 L456 882 L450 893 Z M279 841 L280 842 L279 846 L278 845 Z M599 808 L600 807 L601 808 L600 809 Z M464 808 L465 807 L466 808 L465 809 Z M736 806 L734 805 L733 806 L720 806 L719 807 L710 808 L694 813 L678 820 L661 824 L638 824 L637 823 L630 823 L625 821 L621 821 L605 817 L599 817 L598 816 L595 816 L596 818 L611 820 L630 825 L653 827 L654 826 L663 826 L676 823 L707 811 L720 808 L736 807 Z M398 803 L399 802 L400 803 L399 804 Z M603 799 L604 798 L605 799 L604 800 Z M460 799 L461 798 L462 799 L461 800 Z M604 798 L605 797 L606 798 L605 799 Z M459 798 L460 797 L461 798 L460 799 Z M605 797 L606 796 L608 797 L607 798 Z M607 796 L608 795 L609 796 L608 797 Z M608 795 L609 794 L610 795 L609 796 Z M455 795 L457 794 L460 797 L458 798 Z M454 794 L455 793 L456 794 L455 795 Z M446 794 L447 793 L452 796 L465 807 L462 808 L457 806 L444 806 L443 805 L446 800 Z M623 792 L623 800 L625 803 L624 805 L613 805 L602 808 L600 807 L616 794 L621 791 Z M368 790 L369 789 L371 790 L370 791 Z M670 803 L673 799 L673 790 L671 787 L672 786 L692 789 L693 790 L703 790 L704 791 L695 796 L680 802 L672 804 Z M399 802 L395 803 L370 791 L373 789 L380 789 L381 788 L398 786 L399 787 L397 791 L397 798 Z M399 792 L400 788 L403 785 L425 785 L442 790 L444 794 L444 800 L440 806 L434 806 L433 807 L414 807 L413 806 L408 806 L404 805 L400 801 Z M398 786 L399 785 L400 786 L399 787 Z M671 790 L671 798 L670 801 L666 805 L661 805 L660 806 L630 806 L625 800 L625 792 L626 790 L636 786 L649 785 L650 784 L660 784 L661 785 L668 785 Z M609 794 L612 791 L622 785 L643 779 L668 779 L669 780 L681 781 L702 786 L716 786 L717 787 L716 788 L698 788 L697 787 L691 787 L690 786 L679 785 L673 783 L666 783 L665 782 L643 782 L642 783 L633 784 L622 788 L611 795 Z M356 785 L357 784 L363 784 L364 785 L375 784 L376 783 L392 781 L393 780 L399 780 L400 779 L423 779 L439 783 L449 788 L455 793 L453 794 L444 788 L423 782 L404 782 L403 783 L396 783 L395 784 L377 786 L376 787 L361 787 Z M253 743 L254 742 L255 743 L254 744 Z M840 736 L842 739 L844 760 L847 767 L853 775 L853 803 L852 804 L852 816 L851 817 L850 854 L849 855 L849 881 L848 882 L847 965 L846 966 L845 1001 L844 1002 L843 1016 L840 1027 L839 1054 L838 1055 L837 1071 L834 1078 L826 1079 L825 1078 L817 1077 L811 1074 L797 1064 L786 1059 L780 1058 L779 1056 L785 1043 L788 1029 L790 1025 L790 1021 L792 1016 L792 1012 L797 991 L797 986 L799 980 L802 957 L803 956 L812 854 L813 853 L815 832 L816 831 L824 778 L826 772 L826 767 L827 766 L829 752 Z M244 735 L257 751 L262 769 L262 773 L263 774 L263 778 L269 804 L269 809 L272 820 L272 825 L276 841 L276 846 L281 866 L281 881 L282 882 L282 896 L283 897 L285 928 L286 929 L287 945 L288 946 L288 952 L289 953 L291 970 L293 976 L293 981 L294 982 L296 996 L298 1001 L298 1005 L302 1021 L311 1049 L315 1058 L308 1061 L292 1065 L273 1068 L272 1069 L267 1069 L266 1070 L261 1070 L248 1073 L242 1073 L241 1074 L227 1075 L223 1073 L223 1057 L224 1056 L226 1013 L227 1012 L229 917 L230 916 L231 880 L232 879 L232 833 L233 832 L232 781 L240 763 L240 759 L241 758 L241 740 L242 736 Z M837 723 L845 730 L845 738 L844 739 L841 733 L833 742 L832 741 L833 734 Z M248 723 L251 730 L254 742 L253 743 L250 738 L244 732 L242 732 L240 736 L240 741 L238 744 L237 743 L237 732 L238 729 Z M738 714 L730 711 L719 710 L718 709 L706 709 L705 708 L674 709 L673 710 L666 710 L665 711 L650 713 L638 717 L635 717 L624 721 L610 728 L603 733 L596 740 L592 746 L586 760 L584 768 L584 773 L583 774 L583 784 L582 785 L583 803 L586 813 L589 816 L591 816 L600 811 L611 808 L660 809 L661 808 L667 808 L668 807 L676 806 L688 802 L705 793 L717 789 L720 785 L724 785 L734 781 L744 771 L743 770 L733 779 L718 784 L706 784 L705 783 L688 781 L678 778 L662 777 L661 776 L650 776 L649 777 L641 777 L640 778 L632 779 L621 783 L608 791 L599 800 L589 814 L587 812 L586 803 L585 802 L585 777 L586 776 L587 765 L594 747 L599 740 L609 731 L629 721 L650 715 L665 713 L666 712 L688 711 L689 710 L705 710 L706 711 L721 711 L722 712 Z M345 714 L361 712 L362 711 L373 711 L374 710 L402 711 L403 712 L409 712 L410 713 L415 713 L427 716 L447 724 L460 733 L468 741 L476 755 L480 769 L481 793 L480 794 L479 805 L475 814 L472 811 L470 806 L465 799 L457 791 L447 784 L435 779 L431 779 L425 777 L409 776 L408 777 L399 777 L398 778 L392 778 L391 779 L386 779 L373 782 L357 782 L346 779 L333 770 L336 775 L347 782 L354 783 L355 787 L365 792 L367 792 L385 802 L399 807 L407 808 L408 809 L416 809 L417 810 L431 810 L432 809 L450 808 L451 809 L462 810 L472 815 L469 817 L446 824 L434 825 L433 826 L415 826 L414 825 L407 825 L395 822 L373 813 L360 809 L350 808 L349 807 L342 807 L343 809 L351 809 L352 810 L360 811 L397 825 L411 827 L412 828 L435 828 L436 827 L442 827 L460 822 L472 817 L471 816 L472 815 L474 816 L477 814 L481 806 L482 798 L483 797 L483 773 L482 772 L482 767 L478 754 L474 746 L469 739 L461 731 L451 724 L436 717 L410 710 L393 709 L392 708 L376 708 L375 709 L358 710 Z M577 685 L578 684 L579 685 L578 686 Z M500 685 L501 684 L502 685 L501 686 Z M578 684 L579 683 L580 684 L579 685 Z M499 684 L500 683 L501 684 L500 685 Z M732 664 L733 663 L734 664 L733 665 Z M731 663 L732 662 L733 663 L732 664 Z M729 662 L730 661 L732 662 L731 663 Z M355 662 L356 661 L357 662 L356 663 Z M356 661 L357 660 L358 661 L357 662 Z M357 660 L358 659 L360 660 L359 661 Z M827 657 L841 663 L852 671 L855 676 L855 681 L853 687 L839 709 L833 725 L830 737 L830 741 L828 746 L828 750 L826 755 L826 759 L822 775 L822 780 L820 786 L820 792 L819 793 L819 798 L818 799 L818 804 L817 805 L817 810 L814 823 L814 829 L813 830 L811 850 L810 851 L810 858 L809 859 L809 867 L808 868 L808 878 L807 879 L806 878 L806 865 L807 864 L809 806 L810 805 L810 784 L811 783 L811 762 L812 761 L812 740 L813 739 L815 658 L816 657 Z M268 656 L274 656 L275 657 L275 716 L276 717 L277 791 L278 792 L278 820 L279 821 L279 841 L278 842 L277 841 L273 812 L269 796 L269 791 L267 786 L265 772 L257 741 L248 715 L231 681 L231 674 L238 667 L255 659 Z M730 661 L728 662 L717 656 L695 650 L680 649 L679 650 L660 651 L643 655 L625 661 L593 676 L581 684 L579 683 L591 672 L609 660 L628 651 L656 643 L676 642 L677 641 L678 642 L695 643 L708 647 L726 657 Z M359 659 L372 650 L392 643 L406 642 L407 641 L430 643 L453 650 L469 658 L484 668 L500 683 L498 684 L490 678 L463 663 L461 663 L451 658 L427 651 L412 650 L411 649 L390 650 L371 655 L361 660 Z M746 674 L727 655 L709 645 L692 640 L669 639 L668 640 L660 640 L659 641 L650 642 L638 646 L635 646 L608 658 L595 666 L585 674 L573 687 L571 691 L575 690 L594 678 L626 663 L644 657 L657 654 L662 654 L663 653 L669 653 L670 652 L693 652 L694 653 L699 653 L721 660 L734 667 L745 675 Z M341 674 L342 675 L355 665 L378 655 L386 653 L391 653 L392 652 L419 652 L420 653 L434 655 L455 662 L472 670 L494 683 L505 691 L507 691 L501 681 L490 670 L472 657 L449 646 L432 641 L420 640 L419 639 L395 640 L383 643 L373 647 L356 658 Z M306 622 L307 621 L308 622 L307 623 Z M369 586 L419 574 L424 574 L425 573 L430 573 L431 572 L448 570 L449 569 L473 567 L474 566 L498 565 L499 564 L522 564 L523 563 L555 563 L556 564 L577 564 L578 565 L605 566 L606 567 L616 567 L617 568 L640 570 L641 571 L647 571 L648 572 L671 575 L686 579 L691 579 L711 584 L715 586 L718 586 L722 588 L725 588 L744 595 L765 606 L774 613 L783 623 L784 644 L785 645 L785 668 L786 669 L786 700 L787 701 L787 809 L786 810 L786 842 L785 843 L784 884 L783 885 L783 898 L782 899 L782 912 L781 913 L779 942 L778 943 L778 951 L777 952 L777 959 L776 960 L775 973 L773 980 L773 986 L772 987 L772 992 L771 993 L768 1012 L759 1048 L745 1091 L737 1108 L737 1110 L725 1132 L707 1156 L693 1170 L679 1181 L655 1194 L629 1202 L615 1203 L596 1214 L573 1221 L568 1221 L567 1222 L561 1222 L560 1223 L530 1223 L529 1222 L521 1222 L520 1221 L515 1221 L502 1218 L490 1214 L480 1209 L475 1205 L457 1202 L438 1196 L419 1187 L405 1178 L391 1167 L371 1146 L357 1126 L346 1105 L333 1068 L327 1044 L327 1040 L325 1035 L325 1031 L323 1026 L322 1015 L320 1010 L320 1005 L319 1004 L319 999 L316 986 L316 979 L315 978 L314 963 L313 962 L313 955 L312 954 L312 945 L311 944 L311 935 L310 934 L308 897 L307 896 L307 879 L306 878 L305 819 L304 818 L304 730 L305 729 L306 668 L307 667 L307 648 L308 647 L308 635 L309 634 L310 617 L318 609 L327 603 L341 596 Z M298 615 L300 611 L307 603 L325 591 L357 579 L360 579 L367 576 L395 569 L399 569 L420 564 L431 563 L432 562 L453 560 L454 559 L462 559 L463 558 L472 558 L473 557 L501 556 L502 555 L553 554 L554 555 L599 556 L600 557 L622 558 L623 559 L655 562 L656 563 L662 563 L663 564 L668 564 L669 565 L674 565 L675 566 L699 570 L730 578 L759 589 L774 598 L788 611 L792 618 L792 624 L789 628 L784 620 L773 609 L760 600 L738 590 L713 582 L697 578 L693 578 L688 576 L669 573 L668 572 L636 568 L635 567 L629 567 L628 566 L598 564 L597 563 L583 563 L582 562 L565 562 L564 561 L516 561 L515 562 L483 563 L482 564 L472 564 L471 565 L446 567 L445 568 L440 568 L439 569 L434 569 L433 570 L428 570 L427 571 L407 574 L367 584 L337 595 L327 600 L314 609 L309 614 L302 624 L299 622 Z M295 529 L300 520 L312 508 L324 500 L340 492 L378 480 L382 480 L391 477 L395 477 L416 472 L434 470 L435 469 L462 467 L463 466 L477 466 L478 465 L534 465 L535 464 L536 465 L584 465 L585 466 L608 466 L609 467 L636 468 L637 469 L655 470 L656 471 L662 471 L663 472 L687 475 L711 481 L715 481 L746 491 L768 502 L778 509 L788 518 L793 525 L796 533 L795 536 L795 566 L794 567 L793 613 L792 614 L790 610 L784 603 L769 592 L743 580 L721 573 L705 569 L701 569 L696 567 L682 565 L681 564 L657 561 L656 560 L650 560 L649 559 L624 557 L623 556 L614 556 L613 555 L601 555 L600 554 L558 553 L557 552 L527 552 L526 553 L502 553 L501 554 L472 555 L471 556 L462 556 L461 557 L453 557 L452 558 L431 560 L430 561 L425 561 L424 562 L408 564 L403 566 L390 568 L366 574 L333 585 L311 597 L302 605 L298 611 L297 610 L297 585 L296 584 Z M597 463 L598 462 L600 463 L599 464 Z M546 350 L547 351 L553 351 L554 350 L559 353 L571 365 L579 379 L583 392 L583 399 L584 400 L583 418 L578 434 L571 447 L557 462 L537 462 L526 451 L522 445 L517 435 L513 420 L513 402 L518 384 L523 374 L531 363 L540 354 Z M520 347 L507 355 L497 365 L488 380 L483 398 L484 417 L492 436 L497 443 L507 453 L517 460 L517 458 L512 455 L498 441 L492 432 L486 417 L485 398 L489 383 L498 367 L507 357 L513 352 L519 349 Z M710 314 L711 313 L712 314 L711 315 Z M708 313 L709 312 L710 313 L709 314 Z M398 309 L399 308 L401 309 L400 310 Z M507 305 L508 304 L509 305 L508 306 Z M607 312 L604 321 L593 332 L584 337 L558 346 L550 350 L512 334 L501 325 L497 317 L498 313 L497 311 L507 305 L508 306 L507 309 L508 317 L516 326 L529 333 L550 340 L567 335 L586 326 L593 319 L596 312 L596 308 L594 304 L595 303 L598 304 Z M344 303 L345 302 L347 303 L346 304 Z M592 300 L604 295 L617 292 L623 292 L624 291 L655 291 L656 292 L667 293 L684 298 L701 306 L709 312 L706 313 L699 310 L686 307 L679 307 L678 306 L656 306 L655 307 L647 307 L646 308 L635 309 L623 312 L607 312 L606 309 L603 306 Z M400 308 L405 304 L417 298 L433 293 L443 292 L444 291 L452 291 L453 290 L468 290 L469 291 L478 291 L479 292 L490 293 L502 296 L512 300 L499 307 L496 311 L481 311 L472 308 L468 308 L457 305 L451 305 L450 304 L423 304 L422 305 L411 306 L402 309 Z M427 281 L428 282 L432 279 L453 269 L471 264 L485 263 L486 262 L509 262 L510 263 L518 263 L519 264 L533 266 L550 273 L554 273 L562 269 L581 264 L587 264 L588 263 L618 263 L619 264 L636 266 L640 268 L646 269 L656 273 L672 282 L672 280 L666 276 L647 267 L633 263 L628 263 L621 261 L611 261 L610 260 L594 260 L593 261 L578 262 L561 267 L553 272 L551 272 L543 267 L521 261 L515 261 L514 260 L483 260 L482 261 L465 263 L452 267 L435 275 Z M782 172 L785 173 L789 177 L791 182 L791 213 L790 214 L790 230 L789 231 L789 242 L788 243 L786 274 L785 275 L784 287 L779 298 L774 302 L764 303 L759 301 L748 292 L732 282 L705 269 L719 260 L732 247 L746 226 L766 185 L775 175 Z M329 168 L336 168 L344 174 L353 188 L366 216 L377 233 L395 252 L414 265 L412 267 L403 270 L376 283 L350 300 L340 300 L336 298 L332 294 L330 290 L328 282 L328 277 L327 276 L326 258 L325 257 L325 245 L324 244 L324 232 L323 231 L322 183 L323 182 L323 176 L325 172 Z M339 103 L352 106 L371 115 L386 128 L390 135 L394 151 L405 180 L412 193 L419 203 L440 224 L460 238 L477 247 L473 249 L465 250 L449 255 L442 255 L421 245 L406 234 L395 223 L383 206 L376 192 L368 170 L357 149 L346 135 L339 128 L328 119 L325 118 L345 137 L358 155 L365 169 L374 193 L380 205 L393 224 L411 241 L420 247 L440 256 L438 258 L417 265 L399 252 L388 242 L375 226 L363 205 L363 203 L353 183 L347 174 L339 167 L336 166 L329 166 L327 167 L322 172 L320 179 L320 218 L321 219 L321 235 L322 236 L324 272 L325 273 L325 279 L326 280 L327 288 L330 295 L335 300 L345 304 L337 310 L324 323 L315 334 L314 333 L313 282 L312 281 L310 227 L309 226 L309 209 L308 208 L308 184 L307 183 L306 107 L308 105 L317 104 L318 103 Z M833 102 L835 104 L836 108 L836 138 L835 139 L834 160 L833 161 L833 169 L832 170 L832 178 L831 179 L831 187 L830 188 L830 196 L829 197 L829 206 L828 207 L828 216 L827 217 L827 225 L826 226 L825 246 L824 247 L824 255 L823 256 L820 300 L819 301 L819 312 L818 313 L818 325 L817 326 L817 338 L816 339 L816 348 L815 349 L815 358 L814 359 L814 365 L818 374 L819 382 L820 383 L820 392 L818 400 L814 409 L814 430 L813 431 L812 460 L811 461 L810 537 L811 538 L811 593 L812 594 L813 644 L812 645 L812 687 L811 688 L809 768 L808 769 L808 786 L807 787 L807 807 L806 808 L803 884 L802 885 L802 901 L801 902 L799 945 L798 946 L797 968 L796 969 L796 978 L795 979 L794 992 L793 993 L792 1003 L790 1008 L790 1012 L785 1033 L777 1056 L764 1062 L757 1067 L756 1066 L768 1022 L771 1004 L773 999 L776 976 L777 975 L777 968 L778 967 L780 945 L781 944 L781 936 L782 935 L783 915 L784 914 L785 890 L786 889 L786 873 L787 872 L787 854 L788 853 L789 781 L790 780 L789 778 L790 776 L790 736 L789 735 L789 683 L788 682 L788 657 L787 656 L786 631 L787 630 L789 631 L792 629 L794 625 L794 620 L795 619 L797 555 L798 554 L798 530 L796 526 L797 503 L798 502 L798 467 L797 466 L797 453 L796 452 L794 433 L792 428 L790 416 L782 393 L777 384 L777 382 L775 380 L775 378 L761 356 L743 337 L741 337 L757 354 L771 375 L778 389 L787 414 L791 430 L792 440 L793 441 L794 458 L795 459 L796 489 L795 490 L795 515 L793 521 L783 510 L771 501 L752 491 L727 482 L699 475 L679 472 L678 471 L673 471 L672 470 L651 468 L650 467 L642 467 L641 466 L601 464 L599 462 L605 458 L615 447 L624 430 L628 414 L628 391 L623 372 L617 360 L612 353 L598 340 L609 352 L616 362 L623 378 L625 386 L625 392 L626 393 L626 411 L625 412 L624 422 L619 436 L615 443 L600 459 L594 463 L579 463 L578 462 L582 460 L593 451 L606 434 L613 416 L614 398 L612 397 L613 404 L612 405 L611 416 L608 425 L599 441 L587 454 L577 462 L562 462 L561 461 L566 457 L574 447 L582 431 L586 415 L586 396 L585 395 L584 386 L580 375 L573 364 L564 355 L557 350 L559 348 L578 342 L597 332 L606 322 L609 313 L610 314 L625 314 L626 313 L636 312 L642 310 L648 310 L649 309 L673 308 L674 309 L684 309 L685 310 L694 311 L714 318 L716 316 L709 309 L702 304 L688 297 L674 292 L670 292 L659 289 L652 289 L651 288 L619 289 L599 294 L589 300 L593 306 L594 311 L591 318 L585 324 L571 331 L549 338 L522 327 L512 319 L509 310 L511 305 L516 300 L514 298 L501 293 L489 290 L477 289 L476 288 L462 288 L461 287 L460 288 L440 289 L421 294 L401 304 L393 311 L393 313 L400 312 L412 308 L423 307 L424 306 L447 306 L448 307 L455 307 L456 308 L466 309 L480 313 L494 313 L495 314 L496 322 L505 332 L517 339 L539 347 L543 350 L536 355 L529 362 L521 373 L515 385 L510 405 L510 416 L511 417 L511 423 L514 434 L523 451 L533 461 L532 462 L503 462 L492 455 L482 445 L476 436 L471 423 L471 419 L470 418 L470 397 L476 376 L488 356 L502 342 L506 340 L505 339 L500 342 L489 352 L478 367 L471 383 L468 395 L468 403 L467 404 L468 419 L473 435 L479 445 L492 458 L497 461 L496 462 L470 463 L469 464 L459 464 L458 465 L432 467 L431 468 L426 468 L425 469 L420 469 L414 471 L409 471 L408 472 L389 475 L369 480 L365 482 L362 482 L334 492 L321 499 L311 506 L296 522 L295 521 L296 496 L297 495 L297 485 L298 484 L300 463 L301 462 L304 443 L311 418 L313 415 L315 407 L320 397 L320 395 L329 378 L343 358 L360 339 L346 352 L336 364 L327 377 L318 394 L318 396 L313 406 L304 434 L300 455 L299 456 L297 473 L296 474 L295 491 L294 492 L294 505 L293 506 L293 525 L294 526 L293 528 L293 566 L294 567 L295 614 L296 615 L296 621 L300 626 L303 627 L306 622 L307 623 L305 663 L304 664 L304 685 L303 686 L303 713 L302 714 L302 834 L303 835 L304 882 L305 883 L305 898 L306 899 L308 936 L309 937 L309 946 L310 947 L310 956 L311 957 L314 988 L315 989 L315 994 L316 995 L317 1007 L319 1013 L321 1028 L323 1033 L323 1037 L325 1042 L325 1046 L330 1066 L332 1070 L331 1074 L322 1064 L316 1054 L306 1025 L299 997 L297 982 L295 976 L295 971 L293 965 L293 960 L292 959 L290 937 L288 929 L286 896 L285 895 L285 883 L284 882 L284 867 L283 866 L283 848 L282 847 L281 795 L280 794 L280 757 L279 756 L279 715 L278 714 L278 627 L279 626 L280 603 L281 602 L281 592 L282 591 L282 581 L283 580 L283 429 L284 428 L284 403 L287 395 L287 390 L289 383 L289 372 L290 371 L289 303 L288 302 L287 263 L286 262 L286 245 L285 244 L283 192 L282 191 L282 173 L281 172 L281 122 L284 113 L295 108 L303 107 L304 106 L305 107 L303 115 L303 120 L304 121 L304 159 L305 160 L305 185 L306 186 L308 248 L309 249 L311 306 L312 307 L312 339 L305 349 L305 351 L307 350 L321 330 L341 310 L363 294 L394 277 L396 277 L420 266 L441 259 L444 259 L448 257 L468 252 L473 252 L483 249 L515 245 L516 244 L534 243 L535 242 L547 242 L548 241 L584 243 L585 244 L592 244 L593 245 L599 245 L600 246 L606 246 L607 247 L630 250 L669 259 L708 273 L737 288 L763 307 L783 328 L799 351 L800 350 L792 337 L792 316 L793 315 L794 289 L795 288 L795 279 L796 278 L799 232 L800 231 L800 220 L801 219 L801 207 L802 206 L802 191 L803 190 L804 159 L805 158 L805 141 L806 140 L806 125 L807 124 L807 102 L808 101 L829 101 Z M805 101 L806 102 L805 103 L805 115 L804 116 L804 133 L803 134 L800 199 L799 200 L797 240 L796 241 L796 252 L795 253 L795 263 L794 264 L794 274 L793 275 L793 285 L792 286 L792 296 L791 297 L791 307 L790 308 L790 331 L789 332 L782 323 L765 306 L766 305 L775 304 L781 299 L784 294 L787 283 L789 259 L790 258 L790 248 L791 247 L792 220 L793 219 L793 200 L794 199 L793 180 L789 173 L785 171 L779 171 L774 173 L767 180 L759 193 L757 199 L739 233 L728 248 L715 260 L707 265 L703 269 L695 265 L677 259 L685 256 L703 246 L723 227 L734 210 L745 188 L745 186 L765 148 L774 136 L790 120 L795 117 L798 113 L785 122 L768 140 L757 157 L729 214 L720 227 L707 240 L696 248 L675 258 L647 251 L663 242 L678 231 L700 208 L710 192 L717 177 L723 159 L725 156 L731 136 L735 130 L742 123 L751 116 L772 105 L786 101 Z M833 99 L829 99 L828 98 L786 98 L767 104 L755 110 L741 120 L730 132 L712 181 L698 206 L672 232 L661 240 L642 250 L619 246 L618 245 L613 245 L612 244 L606 244 L605 243 L599 243 L591 241 L583 241 L582 240 L573 240 L572 239 L561 239 L560 238 L549 238 L548 239 L536 239 L535 240 L517 241 L516 242 L502 243 L501 244 L496 244 L495 245 L490 245 L482 247 L480 245 L478 245 L462 236 L442 222 L421 201 L413 189 L405 173 L395 145 L393 135 L390 129 L380 118 L373 113 L362 107 L344 101 L339 101 L338 100 L318 100 L288 107 L284 109 L279 116 L279 121 L278 122 L278 173 L279 174 L279 193 L280 194 L280 210 L281 211 L284 283 L285 284 L285 305 L286 306 L286 332 L287 333 L287 370 L286 371 L285 390 L281 404 L281 425 L280 426 L280 581 L279 582 L276 626 L275 627 L275 653 L274 654 L273 653 L269 653 L268 654 L258 655 L236 665 L230 670 L228 674 L228 680 L230 686 L245 715 L247 721 L242 724 L240 724 L235 730 L236 767 L230 778 L229 886 L228 887 L228 906 L227 907 L227 925 L226 926 L225 998 L224 999 L224 1017 L223 1018 L223 1030 L222 1031 L222 1043 L221 1044 L220 1073 L224 1077 L238 1077 L239 1076 L252 1075 L253 1074 L258 1074 L259 1073 L264 1073 L265 1072 L270 1072 L271 1071 L295 1067 L317 1061 L324 1071 L335 1083 L342 1103 L358 1133 L369 1148 L388 1168 L415 1188 L433 1197 L453 1204 L473 1207 L478 1211 L490 1217 L502 1221 L515 1223 L516 1224 L522 1224 L523 1225 L532 1225 L533 1226 L559 1226 L560 1225 L572 1224 L596 1217 L606 1212 L614 1206 L628 1205 L650 1199 L675 1187 L695 1172 L710 1157 L718 1147 L729 1131 L741 1108 L741 1106 L748 1091 L754 1071 L775 1059 L789 1063 L800 1069 L811 1077 L818 1080 L834 1081 L838 1078 L840 1066 L841 1065 L842 1034 L843 1033 L843 1025 L845 1020 L845 1015 L847 1008 L848 984 L849 983 L850 923 L851 922 L851 872 L852 871 L852 847 L853 846 L854 812 L855 811 L855 800 L856 799 L856 775 L848 763 L848 731 L847 728 L842 723 L838 721 L838 719 L843 707 L852 694 L856 686 L857 674 L849 665 L833 656 L826 654 L817 654 L816 655 L815 654 L816 619 L815 618 L815 594 L814 593 L814 531 L813 530 L813 525 L814 524 L814 460 L815 459 L815 445 L816 444 L816 430 L817 429 L817 409 L820 403 L823 392 L823 383 L822 382 L821 374 L817 365 L817 358 L818 357 L819 339 L820 338 L820 326 L821 325 L821 314 L822 313 L822 302 L823 301 L823 290 L824 289 L827 245 L828 244 L829 225 L830 224 L830 216 L831 215 L831 207 L832 206 L832 198 L833 197 L833 189 L834 188 L834 180 L835 179 L835 170 L836 169 L836 161 L837 160 L837 151 L838 150 L838 138 L839 137 L839 108 L837 102 Z" fill="#eef3f4" fill-rule="evenodd"/>
</svg>
