<svg xmlns="http://www.w3.org/2000/svg" width="1086" height="1448" viewBox="0 0 1086 1448">
  <title>0028</title>
  <path d="M678 1117 L679 1116 L680 1117 L679 1118 Z M382 1108 L383 1107 L384 1108 L383 1109 Z M722 1063 L723 1065 L707 1087 L693 1104 L680 1117 L679 1115 L681 1113 L685 1102 L695 1084 L705 1074 L719 1066 Z M346 1059 L357 1066 L370 1079 L379 1096 L383 1106 L382 1108 L376 1102 L345 1061 Z M344 1059 L345 1058 L346 1059 L345 1060 Z M343 1058 L344 1057 L345 1058 L344 1059 Z M477 1003 L478 1005 L489 1011 L503 1015 L516 1016 L517 1017 L549 1016 L564 1012 L576 1005 L575 1004 L560 1011 L546 1013 L545 1014 L513 1014 L512 1013 L505 1013 L504 1012 L496 1011 Z M432 946 L448 970 L459 981 L465 985 L477 990 L487 991 L488 992 L498 992 L499 993 L513 993 L514 992 L562 993 L563 992 L575 991 L584 988 L594 982 L603 974 L621 948 L617 951 L603 970 L596 977 L582 986 L565 990 L495 990 L494 989 L480 988 L469 984 L461 979 L448 966 L436 949 Z M613 937 L614 936 L615 937 L614 938 Z M438 935 L439 934 L440 935 L439 936 Z M440 936 L441 935 L452 935 L453 934 L461 934 L462 933 L482 932 L483 933 L496 934 L516 940 L530 941 L558 934 L576 933 L577 934 L587 934 L588 935 L612 937 L613 938 L598 943 L573 946 L572 947 L554 948 L553 949 L540 949 L539 950 L518 950 L517 949 L496 948 L495 947 L488 947 L487 946 L468 944 L467 943 L449 940 Z M419 923 L419 927 L423 927 L430 934 L436 938 L451 944 L468 948 L487 950 L488 951 L505 952 L506 953 L524 953 L525 954 L572 951 L573 950 L586 949 L587 948 L592 948 L605 945 L619 939 L635 926 L633 922 L631 922 L629 926 L622 932 L617 934 L610 934 L609 935 L608 934 L599 934 L598 933 L584 932 L583 931 L561 931 L533 938 L520 938 L487 930 L467 930 L466 931 L458 931 L457 932 L437 932 L430 929 L422 920 Z M635 904 L638 908 L641 916 L641 922 L637 934 L650 952 L653 954 L652 951 L640 934 L643 925 L643 914 L641 909 Z M420 902 L418 902 L413 907 L411 912 L411 923 L413 928 L413 932 L400 951 L403 949 L416 932 L413 920 L413 913 L416 906 Z M552 844 L553 843 L554 844 L553 845 Z M554 843 L555 842 L556 843 L555 844 Z M557 842 L558 841 L559 842 L558 843 Z M496 842 L497 841 L498 842 L497 843 Z M560 841 L561 840 L563 841 L562 842 Z M493 841 L494 840 L496 841 L495 842 Z M564 840 L565 839 L568 840 L567 841 Z M490 840 L491 839 L493 840 L492 841 Z M486 839 L487 838 L490 839 L489 840 Z M444 800 L444 808 L443 809 L444 821 L448 830 L457 839 L465 842 L467 841 L476 841 L477 842 L482 842 L495 845 L520 855 L535 855 L546 850 L566 844 L579 843 L580 842 L584 842 L585 843 L593 842 L598 839 L606 830 L610 815 L609 800 L603 783 L599 777 L593 771 L586 768 L598 780 L605 795 L606 805 L607 806 L607 817 L605 825 L602 831 L596 837 L590 840 L587 840 L580 836 L574 836 L573 835 L560 837 L549 842 L540 850 L536 852 L524 853 L514 850 L505 842 L496 837 L485 834 L475 834 L471 835 L465 839 L456 835 L450 828 L446 816 L446 806 L447 805 L448 795 L455 780 L461 773 L469 768 L469 767 L464 768 L455 776 L447 790 Z M822 742 L823 741 L824 742 L823 743 Z M828 697 L829 696 L830 697 L829 698 Z M601 700 L604 700 L609 695 L626 685 L643 679 L659 677 L660 676 L694 676 L695 677 L704 677 L705 678 L711 678 L712 679 L718 679 L719 680 L725 680 L726 681 L732 681 L740 683 L749 683 L750 684 L765 684 L766 682 L751 680 L715 670 L694 667 L693 666 L662 665 L661 666 L655 666 L654 667 L649 667 L641 669 L622 677 L616 681 L604 693 L601 698 Z M457 698 L453 690 L443 680 L434 674 L417 667 L404 665 L403 664 L379 663 L378 664 L360 665 L316 676 L295 679 L295 680 L299 681 L313 681 L314 680 L323 680 L324 679 L331 679 L332 678 L339 678 L340 677 L355 676 L356 675 L366 675 L367 674 L395 674 L396 675 L403 675 L404 676 L414 677 L418 679 L424 680 L444 690 L455 699 Z M600 688 L613 676 L627 668 L638 664 L651 661 L657 661 L658 660 L687 660 L688 661 L695 661 L728 669 L754 678 L754 676 L709 661 L694 659 L693 658 L685 658 L684 657 L662 657 L661 658 L654 658 L653 659 L643 660 L630 664 L613 673 L604 681 L600 686 Z M306 675 L316 673 L346 663 L350 663 L360 660 L373 659 L374 658 L397 658 L398 659 L411 660 L430 666 L443 673 L459 687 L456 682 L446 672 L430 663 L414 658 L410 658 L404 656 L395 656 L394 655 L368 656 L367 657 L352 659 L325 667 L322 669 L308 673 Z M761 601 L748 587 L739 580 L716 568 L703 564 L692 563 L691 562 L664 563 L663 564 L655 565 L636 572 L625 578 L606 592 L596 602 L587 614 L579 630 L578 635 L580 634 L586 620 L592 611 L611 591 L630 578 L645 571 L661 566 L675 565 L676 564 L686 564 L687 565 L701 566 L717 571 L726 575 L745 587 L760 602 Z M307 598 L307 600 L325 583 L334 577 L348 570 L371 564 L395 564 L396 565 L401 565 L418 570 L434 578 L448 588 L467 608 L473 617 L478 627 L480 634 L481 635 L482 634 L474 615 L466 603 L453 589 L432 574 L417 567 L403 563 L389 562 L388 561 L376 561 L375 562 L368 562 L352 566 L342 571 L340 571 L328 578 L320 584 Z M205 540 L216 541 L227 550 L238 568 L248 594 L250 626 L251 627 L251 637 L252 638 L252 649 L253 650 L253 662 L254 663 L254 676 L255 677 L255 687 L254 688 L241 640 L239 637 L237 629 L230 614 L230 612 L221 594 L215 585 L207 577 L204 576 L199 578 L196 587 L196 596 L197 597 L197 603 L199 611 L200 611 L200 606 L199 605 L199 586 L201 580 L204 579 L214 588 L229 616 L242 652 L257 713 L257 732 L258 733 L258 737 L257 738 L251 720 L243 704 L231 686 L230 687 L235 694 L246 715 L246 717 L253 732 L258 748 L260 815 L261 816 L261 831 L262 832 L262 844 L263 845 L266 881 L258 889 L250 892 L241 892 L233 888 L228 882 L225 874 L224 862 L223 861 L223 778 L222 777 L222 761 L221 760 L219 735 L218 734 L217 723 L216 722 L211 693 L205 669 L203 665 L202 658 L189 618 L186 605 L186 600 L185 599 L184 581 L185 580 L185 570 L188 558 L193 549 L200 542 Z M884 537 L889 539 L897 548 L901 565 L901 588 L900 589 L900 599 L899 600 L898 612 L897 613 L893 634 L872 694 L872 697 L870 701 L865 721 L863 740 L862 741 L862 751 L861 752 L860 820 L859 821 L859 833 L858 834 L858 842 L857 843 L856 855 L850 876 L845 885 L840 890 L832 894 L820 894 L808 889 L801 881 L802 880 L802 875 L803 874 L806 854 L807 853 L807 848 L808 847 L808 842 L809 841 L809 835 L811 828 L811 821 L813 814 L820 758 L828 735 L838 715 L844 705 L858 687 L848 696 L838 710 L828 729 L824 740 L823 739 L823 735 L824 734 L826 717 L848 648 L850 645 L853 634 L865 604 L876 584 L883 578 L886 582 L886 587 L887 588 L887 599 L885 607 L885 611 L886 611 L889 598 L889 582 L885 576 L881 576 L874 582 L869 590 L861 606 L853 626 L838 672 L836 675 L836 678 L830 696 L829 695 L829 690 L830 689 L833 653 L834 652 L834 644 L835 643 L839 594 L841 591 L848 570 L860 550 L872 539 L878 537 Z M331 394 L361 385 L366 385 L379 382 L386 382 L387 381 L398 381 L399 380 L448 381 L449 382 L472 384 L473 385 L478 385 L479 386 L484 386 L485 387 L490 387 L503 390 L509 390 L517 392 L529 392 L530 393 L565 392 L566 391 L575 391 L576 390 L592 389 L593 388 L616 386 L617 385 L626 385 L627 384 L638 384 L639 383 L686 383 L687 384 L705 385 L706 386 L726 389 L746 395 L768 405 L782 414 L792 422 L805 436 L816 453 L821 464 L830 493 L830 497 L833 508 L833 514 L834 515 L834 522 L835 523 L836 545 L837 546 L836 599 L835 600 L835 612 L834 613 L834 623 L833 624 L833 634 L832 635 L829 671 L828 672 L824 712 L823 713 L823 719 L821 727 L821 734 L819 742 L819 749 L817 757 L817 764 L816 765 L816 771 L815 772 L815 778 L813 786 L813 793 L812 794 L812 800 L811 801 L811 807 L810 808 L810 814 L809 815 L809 821 L808 822 L808 828 L807 829 L807 835 L806 836 L803 859 L802 860 L800 875 L799 876 L799 880 L797 885 L797 889 L791 915 L789 919 L784 940 L770 979 L749 1023 L732 1051 L722 1061 L704 1072 L692 1084 L688 1090 L680 1107 L680 1109 L673 1122 L662 1132 L643 1142 L626 1148 L600 1154 L588 1155 L587 1156 L570 1157 L569 1158 L555 1158 L554 1159 L523 1159 L522 1158 L507 1158 L506 1157 L489 1156 L488 1155 L483 1155 L482 1154 L462 1151 L450 1147 L443 1146 L422 1138 L400 1125 L391 1117 L385 1106 L381 1094 L372 1077 L360 1065 L344 1055 L332 1043 L312 1011 L293 971 L286 949 L284 946 L284 943 L281 936 L280 929 L276 917 L276 913 L271 892 L271 887 L270 886 L268 865 L267 864 L267 856 L266 855 L265 833 L264 832 L264 817 L263 816 L263 794 L262 793 L261 732 L260 731 L259 692 L258 691 L257 662 L256 661 L256 649 L255 648 L255 638 L254 637 L254 627 L253 626 L253 615 L252 614 L252 604 L251 603 L251 589 L250 588 L250 572 L249 571 L250 570 L249 569 L249 531 L250 530 L251 509 L252 508 L253 495 L256 485 L256 481 L261 464 L270 444 L284 425 L296 414 L312 403 Z M298 237 L316 213 L340 189 L357 176 L371 167 L392 156 L394 156 L416 146 L445 137 L466 133 L467 132 L471 132 L472 131 L490 129 L491 128 L498 128 L499 127 L523 126 L524 125 L574 125 L575 126 L588 126 L589 127 L606 128 L607 129 L613 129 L614 130 L620 130 L632 133 L637 133 L642 135 L646 135 L662 139 L697 151 L726 165 L752 182 L779 206 L791 220 L803 237 L818 265 L829 296 L833 313 L833 318 L836 331 L836 339 L837 340 L837 351 L838 352 L838 392 L837 393 L837 407 L836 408 L836 417 L835 418 L833 442 L838 454 L849 470 L878 499 L884 508 L888 521 L887 534 L886 535 L876 535 L866 540 L859 547 L847 568 L840 588 L839 587 L839 580 L840 579 L840 546 L839 545 L839 533 L838 532 L838 523 L837 522 L835 503 L834 502 L831 485 L825 466 L816 447 L802 428 L781 410 L760 398 L736 389 L720 385 L702 383 L701 382 L693 382 L692 381 L650 380 L649 381 L622 382 L621 383 L613 383 L612 384 L604 384 L603 385 L570 388 L569 389 L559 389 L558 390 L524 390 L523 389 L514 389 L513 388 L500 387 L499 386 L494 386 L493 385 L488 385 L475 382 L469 382 L468 381 L462 381 L461 380 L454 380 L453 379 L443 379 L442 378 L393 378 L392 379 L382 379 L381 380 L363 382 L343 387 L324 394 L312 400 L298 409 L286 419 L273 434 L265 447 L259 461 L254 477 L251 495 L250 496 L249 508 L248 509 L248 517 L247 518 L247 531 L246 532 L246 566 L247 567 L247 583 L246 584 L238 563 L231 551 L226 545 L215 538 L211 537 L205 537 L204 538 L203 537 L203 526 L207 511 L211 503 L222 488 L231 479 L243 464 L250 453 L257 436 L258 428 L259 427 L259 416 L260 415 L261 359 L262 358 L262 348 L263 347 L264 332 L265 331 L268 311 L272 295 L280 272 L292 247 Z M532 121 L531 122 L515 122 L514 123 L494 124 L493 125 L480 126 L474 128 L459 130 L439 135 L435 137 L432 137 L399 149 L366 166 L342 183 L315 209 L302 225 L292 240 L280 263 L280 265 L275 275 L265 308 L265 312 L261 328 L259 352 L258 353 L257 403 L256 404 L256 423 L255 424 L254 434 L251 443 L245 455 L235 469 L216 490 L204 509 L199 529 L200 531 L200 538 L190 547 L184 559 L182 567 L182 572 L181 573 L181 596 L182 597 L182 603 L187 624 L196 650 L202 675 L204 679 L204 683 L208 696 L208 700 L210 705 L213 725 L215 731 L217 755 L218 756 L218 768 L219 769 L219 790 L220 791 L220 801 L219 802 L219 807 L220 808 L220 812 L219 813 L219 853 L220 854 L220 866 L221 867 L222 876 L226 885 L233 892 L240 895 L251 895 L259 892 L266 886 L267 887 L271 911 L276 931 L287 965 L297 987 L297 989 L306 1007 L327 1042 L374 1105 L393 1124 L407 1134 L427 1144 L435 1146 L438 1148 L474 1157 L493 1159 L494 1160 L501 1160 L502 1161 L513 1161 L514 1162 L565 1162 L566 1161 L576 1161 L577 1160 L584 1160 L585 1159 L603 1157 L637 1148 L657 1139 L678 1124 L694 1108 L721 1074 L734 1055 L753 1023 L769 990 L777 970 L779 962 L781 959 L784 948 L786 945 L786 942 L790 932 L799 897 L800 888 L801 887 L808 893 L819 897 L833 897 L843 892 L851 882 L858 861 L860 845 L861 844 L861 837 L862 836 L863 811 L864 810 L864 762 L865 761 L866 736 L867 735 L868 724 L873 703 L881 678 L883 675 L887 661 L892 649 L892 646 L896 636 L899 620 L901 615 L903 596 L904 595 L904 561 L903 560 L903 555 L899 545 L890 536 L891 534 L891 517 L887 506 L880 496 L859 476 L847 462 L837 443 L838 424 L839 423 L839 414 L840 413 L840 402 L841 401 L842 362 L841 361 L840 335 L839 334 L839 327 L836 315 L836 310 L832 294 L830 290 L830 287 L818 256 L816 254 L805 233 L795 219 L766 189 L748 175 L724 160 L691 145 L664 136 L644 131 L624 128 L623 127 L618 127 L617 126 L612 126 L611 125 L595 124 L594 123 L583 123 L582 122 L564 122 L563 121 Z" fill="#eef3f4" fill-rule="evenodd"/>
</svg>
