<svg xmlns="http://www.w3.org/2000/svg" width="1086" height="1448" viewBox="0 0 1086 1448">
  <title>0030</title>
  <path d="M840 1113 L841 1112 L842 1113 L841 1114 Z M457 992 L460 987 L492 988 L493 989 L514 989 L515 990 L593 989 L595 992 L595 1025 L594 1026 L594 1033 L593 1034 L459 1034 L456 1031 Z M610 983 L611 982 L614 983 L613 984 Z M439 981 L440 980 L442 981 L441 982 Z M422 973 L423 972 L427 972 L428 973 L444 973 L445 974 L467 974 L468 973 L491 972 L492 971 L504 970 L511 968 L528 973 L533 973 L553 968 L554 969 L560 969 L561 970 L580 972 L581 973 L629 976 L630 978 L629 979 L611 980 L594 984 L589 984 L582 986 L573 986 L572 987 L504 987 L503 986 L485 986 L484 985 L472 985 L471 984 L458 983 Z M409 970 L409 972 L413 972 L428 977 L443 985 L453 992 L449 987 L441 982 L444 981 L457 985 L455 989 L453 1029 L455 1035 L461 1037 L466 1037 L467 1036 L593 1037 L597 1033 L597 989 L593 986 L605 983 L610 983 L611 984 L601 991 L602 992 L611 986 L622 981 L644 980 L645 978 L639 976 L635 976 L629 974 L608 973 L607 972 L591 972 L590 971 L573 970 L572 969 L567 969 L555 966 L549 966 L532 971 L524 970 L514 966 L492 969 L491 970 L469 971 L468 972 L441 972 L440 971 Z M519 940 L518 941 L518 957 L519 958 L519 954 L520 953 Z M500 920 L503 919 L510 922 L520 923 L521 924 L535 924 L555 919 L557 920 L543 928 L533 929 L532 930 L516 928 L506 923 L504 923 Z M557 919 L558 918 L559 919 L558 920 Z M498 919 L499 918 L501 919 L500 920 Z M598 917 L592 923 L585 925 L568 926 L567 925 L558 925 L556 923 L570 916 L581 915 L582 918 L580 920 L573 923 L577 923 L584 918 L584 916 L582 914 L583 913 L591 913 Z M457 916 L461 913 L473 912 L474 913 L471 916 L471 918 L476 922 L483 923 L477 921 L473 918 L473 916 L475 914 L481 914 L493 918 L501 923 L496 925 L472 925 L461 921 L457 918 Z M454 871 L452 879 L452 884 L451 885 L451 891 L450 892 L450 907 L452 914 L456 920 L467 926 L471 926 L472 927 L495 927 L496 926 L504 926 L505 925 L512 929 L525 932 L540 931 L551 926 L578 928 L579 927 L586 927 L596 923 L600 919 L603 913 L604 909 L603 880 L599 866 L596 861 L592 858 L587 858 L580 863 L576 870 L574 878 L576 877 L580 867 L585 861 L591 860 L594 862 L597 867 L600 876 L601 889 L602 890 L602 906 L599 916 L597 914 L589 911 L577 911 L542 921 L523 922 L522 921 L515 921 L514 920 L506 919 L498 915 L496 916 L480 911 L472 911 L471 910 L459 912 L456 915 L453 910 L452 897 L453 896 L454 879 L460 863 L463 860 L466 859 L470 860 L476 866 L481 878 L482 878 L482 875 L477 864 L472 859 L467 857 L462 858 L458 862 Z M597 798 L598 797 L599 798 L598 799 Z M681 795 L682 794 L683 795 L682 796 Z M460 795 L461 794 L462 795 L461 796 Z M435 795 L436 794 L437 795 L436 796 Z M386 794 L387 793 L388 794 L387 795 Z M619 769 L620 770 L619 785 L621 793 L624 798 L623 799 L599 798 L598 796 L599 795 L600 796 L599 795 L600 791 L606 781 Z M624 766 L628 767 L625 779 L626 780 L627 790 L631 797 L630 799 L626 799 L625 798 L621 786 L621 774 L622 773 L622 768 Z M441 766 L447 769 L456 779 L461 791 L460 795 L457 794 L437 795 L436 794 L439 788 L441 780 L441 771 L440 770 Z M435 763 L438 767 L438 771 L439 772 L438 784 L434 794 L432 796 L428 796 L427 795 L430 792 L434 783 L435 774 L434 773 L434 768 L432 764 Z M711 763 L712 764 L711 768 L702 784 L695 791 L689 794 L683 795 L682 792 L684 787 L684 773 L683 772 L683 768 L680 763 L681 762 L685 762 L686 763 Z M673 761 L677 761 L678 762 L682 773 L682 786 L680 793 L677 797 L673 796 L678 785 L678 774 L677 770 L672 762 Z M668 760 L672 764 L676 774 L676 785 L671 796 L669 798 L664 798 L663 799 L635 799 L631 795 L627 782 L627 777 L630 766 L635 763 L645 762 L646 761 Z M349 761 L367 761 L368 760 L379 760 L380 761 L376 773 L377 788 L379 792 L378 793 L369 792 L359 785 L354 777 L348 762 Z M388 762 L391 759 L411 759 L412 760 L420 760 L421 761 L429 762 L432 769 L432 782 L427 793 L424 796 L399 796 L398 795 L391 795 L386 788 L385 780 L384 779 L385 769 Z M383 759 L387 759 L388 760 L384 766 L383 775 L382 776 L383 777 L384 788 L387 793 L386 794 L382 794 L381 793 L378 781 L379 768 Z M719 756 L720 755 L721 756 L720 757 Z M725 754 L723 753 L715 753 L714 754 L712 753 L709 754 L652 754 L651 755 L639 755 L638 756 L631 756 L630 757 L622 758 L610 763 L601 771 L595 780 L589 795 L591 796 L593 789 L598 779 L604 771 L612 764 L622 760 L638 758 L639 757 L652 757 L653 756 L674 756 L675 755 L676 756 L710 756 L711 755 L718 755 L720 757 L714 761 L703 761 L702 760 L687 761 L686 760 L678 760 L677 759 L647 759 L646 760 L641 760 L631 763 L627 763 L614 770 L605 779 L601 785 L593 803 L602 800 L619 801 L626 803 L628 801 L663 801 L664 800 L678 799 L692 795 L696 793 L703 786 L709 777 L713 769 L714 764 L720 759 L721 760 L720 764 L712 782 L706 791 L701 796 L692 801 L684 802 L683 803 L675 803 L674 804 L637 805 L636 806 L620 806 L619 805 L599 804 L602 806 L618 807 L619 808 L663 807 L664 806 L676 806 L677 805 L689 804 L699 800 L708 792 L717 777 Z M851 750 L854 755 L855 852 L856 853 L856 871 L857 872 L857 884 L858 885 L858 895 L859 896 L861 922 L862 923 L867 958 L870 969 L870 974 L872 979 L872 983 L876 999 L876 1004 L878 1010 L878 1015 L880 1021 L884 1053 L885 1054 L886 1071 L887 1072 L887 1088 L886 1091 L873 1107 L864 1115 L860 1117 L852 1109 L845 1098 L833 1074 L824 1051 L824 1048 L818 1031 L818 1027 L815 1018 L813 1002 L812 1001 L811 983 L810 982 L810 959 L809 958 L810 921 L811 920 L812 898 L813 897 L814 881 L815 880 L816 867 L817 866 L818 855 L821 844 L821 839 L823 834 L824 825 L830 801 L840 770 L847 755 Z M337 752 L343 774 L349 787 L354 794 L363 800 L370 802 L393 803 L394 804 L448 804 L449 803 L457 803 L458 802 L462 802 L463 803 L465 802 L466 803 L460 782 L455 774 L446 766 L435 761 L427 760 L426 759 L420 759 L419 758 L410 758 L409 757 L380 757 L379 758 L367 758 L366 759 L345 759 L344 758 L348 765 L350 773 L354 781 L359 788 L366 793 L379 796 L398 797 L399 798 L438 798 L439 797 L456 796 L463 800 L462 801 L447 801 L446 802 L398 802 L397 801 L379 801 L378 800 L371 800 L360 796 L351 786 L345 773 L341 761 L340 754 L341 753 L342 754 L388 753 L389 754 L404 754 L405 755 L414 755 L415 756 L423 756 L424 757 L442 759 L452 763 L459 770 L465 781 L468 793 L469 789 L467 781 L463 772 L454 762 L446 758 L431 756 L430 755 L416 754 L415 753 L388 752 L387 751 L368 751 L367 752 L343 752 L342 751 L338 751 Z M833 748 L849 748 L850 749 L845 755 L835 778 L827 804 L818 843 L818 848 L817 849 L814 871 L813 872 L811 895 L810 896 L810 905 L809 906 L808 938 L807 939 L807 968 L808 969 L808 984 L809 985 L809 994 L810 995 L811 1008 L821 1049 L829 1070 L839 1091 L852 1111 L857 1116 L854 1119 L849 1118 L845 1114 L822 1079 L804 1056 L783 1035 L769 1025 L757 1019 L743 1016 L744 1018 L751 1019 L765 1025 L783 1038 L801 1056 L811 1068 L841 1111 L840 1113 L801 1073 L791 1065 L769 1053 L753 1048 L743 1047 L742 1046 L733 1046 L732 1045 L729 1046 L718 1046 L717 1045 L734 1007 L745 975 L745 972 L754 944 L758 928 L758 924 L760 919 L762 904 L765 893 L765 888 L767 882 L767 877 L768 876 L768 870 L769 869 L771 849 L772 848 L773 831 L774 830 L774 821 L775 820 L783 827 L791 830 L805 829 L814 822 L817 817 L822 798 L825 750 Z M580 736 L578 736 L577 756 L576 757 L576 772 L575 773 L574 830 L573 831 L573 846 L575 847 L575 833 L576 832 L576 798 L577 797 L577 776 L578 775 L578 758 L579 757 L579 741 L580 740 Z M482 735 L483 737 L483 761 L484 762 L484 847 L486 847 L486 759 L485 758 L485 741 L484 740 L484 735 Z M806 725 L807 726 L807 731 L806 732 L805 731 L805 726 Z M275 711 L276 712 L276 721 L275 722 L274 721 L274 712 Z M731 676 L729 700 L727 707 L664 707 L663 708 L643 708 L642 709 L633 709 L632 710 L622 710 L621 711 L615 711 L594 716 L583 721 L579 724 L574 721 L567 719 L570 709 L576 697 L582 690 L592 685 L604 684 L605 683 L614 683 L615 682 L624 682 L625 681 L635 681 L636 680 L660 679 L661 678 L715 676 L716 675 L730 675 Z M275 673 L276 674 L276 691 L275 692 L274 691 L274 674 Z M734 673 L715 673 L714 674 L661 676 L660 677 L635 678 L634 679 L613 680 L612 681 L603 681 L602 682 L591 683 L584 686 L576 693 L567 711 L565 721 L572 722 L580 726 L585 722 L597 717 L610 714 L615 714 L616 713 L630 712 L631 711 L659 710 L660 709 L729 709 L731 702 L731 694 L732 693 Z M341 672 L342 671 L348 671 L349 672 L364 672 L365 673 L400 675 L401 676 L419 677 L420 678 L454 681 L455 682 L462 682 L463 683 L470 683 L471 684 L480 685 L487 689 L493 696 L498 708 L498 712 L500 718 L485 724 L480 720 L465 713 L453 710 L440 709 L439 708 L407 706 L406 705 L387 705 L386 704 L384 705 L383 704 L343 704 L342 703 L342 689 L341 688 Z M258 671 L260 673 L264 689 L265 705 L266 706 L266 720 L267 721 L267 737 L266 738 L266 746 L265 747 L264 762 L263 763 L263 783 L264 784 L265 798 L271 816 L279 824 L287 826 L291 825 L298 819 L299 820 L299 832 L300 833 L300 846 L301 847 L301 859 L302 860 L304 891 L305 892 L306 906 L307 907 L308 921 L309 922 L312 945 L313 946 L314 956 L315 957 L315 961 L316 962 L316 966 L318 971 L321 988 L330 1016 L330 1019 L339 1042 L338 1043 L337 1042 L320 1043 L307 1046 L293 1051 L269 1064 L235 1089 L226 1092 L225 1091 L226 1088 L244 1062 L254 1050 L272 1032 L291 1019 L304 1014 L314 1013 L312 1011 L295 1015 L276 1026 L252 1049 L240 1064 L225 1088 L222 1091 L218 1086 L219 1070 L220 1069 L228 1027 L230 1022 L230 1018 L233 1009 L233 1005 L235 1000 L235 996 L237 991 L238 982 L243 962 L243 957 L247 941 L247 936 L248 935 L252 907 L253 906 L256 878 L257 877 L257 868 L258 867 L259 837 L260 836 L260 781 L259 780 L259 761 L258 760 L258 744 L257 743 L255 706 L254 705 L253 687 L252 686 L253 675 L256 671 Z M338 670 L339 672 L339 688 L340 689 L340 706 L387 706 L388 707 L408 707 L409 708 L421 708 L422 709 L447 711 L468 716 L480 722 L486 727 L492 723 L498 721 L502 721 L500 707 L495 695 L489 688 L483 684 L477 682 L457 680 L456 679 L448 679 L447 678 L439 678 L438 677 L430 677 L429 676 L402 674 L401 673 L381 672 L380 671 L367 671 L366 670 L353 670 L352 669 L339 669 Z M274 663 L275 664 L275 673 L274 674 L273 673 L273 664 Z M804 660 L805 661 L804 691 L805 692 L805 714 L806 715 L806 724 L805 725 L804 724 L803 704 L802 703 L802 673 L803 672 L803 661 Z M273 655 L274 656 L274 663 L273 664 L272 663 L272 656 Z M805 651 L806 652 L806 660 L805 661 L804 660 L804 652 Z M272 648 L273 649 L273 654 L272 655 L271 654 L271 649 Z M806 644 L807 645 L807 650 L806 651 L805 650 L805 645 Z M271 642 L272 643 L272 647 L271 648 L270 647 L270 643 Z M807 637 L808 638 L808 643 L807 644 L806 643 L806 638 Z M270 636 L271 637 L270 641 L269 640 Z M808 631 L809 632 L808 636 L807 635 Z M269 631 L270 632 L269 636 L268 635 Z M267 628 L268 627 L269 629 L268 630 Z M809 626 L810 627 L809 630 L808 629 Z M809 623 L810 622 L811 623 L810 624 Z M266 623 L267 622 L268 624 L267 625 Z M265 619 L266 618 L267 619 L266 620 Z M325 546 L326 545 L327 546 L326 547 Z M236 543 L259 545 L260 546 L275 547 L276 548 L302 548 L303 547 L317 546 L318 545 L324 545 L326 547 L318 559 L311 576 L311 579 L307 591 L307 595 L304 606 L303 619 L302 620 L301 640 L300 641 L300 655 L299 656 L298 730 L297 731 L297 772 L298 773 L298 810 L299 813 L297 817 L292 822 L289 823 L282 823 L276 819 L271 810 L268 800 L267 789 L266 788 L266 775 L265 774 L266 773 L266 757 L267 756 L267 749 L268 748 L268 742 L270 734 L270 722 L269 721 L269 710 L268 709 L266 686 L265 685 L264 677 L260 667 L258 648 L255 638 L248 626 L242 619 L234 599 L233 592 L228 576 L226 560 L225 559 L225 553 L226 549 L228 547 L231 550 L234 551 L244 561 L247 566 L258 596 L266 629 L269 654 L270 655 L271 674 L272 675 L272 690 L273 691 L272 744 L271 745 L268 768 L270 764 L271 756 L273 751 L273 746 L277 729 L277 720 L278 719 L278 676 L277 675 L277 666 L276 665 L276 657 L275 656 L273 637 L264 601 L255 575 L251 567 L236 551 L228 547 L230 545 Z M326 543 L330 541 L333 542 L330 544 Z M849 535 L852 537 L843 542 L831 554 L824 566 L812 602 L812 606 L810 610 L805 637 L804 638 L802 659 L801 660 L801 671 L800 672 L800 704 L801 705 L801 715 L802 716 L802 724 L803 725 L804 736 L807 748 L810 755 L813 770 L815 770 L812 759 L810 738 L809 737 L808 713 L807 712 L807 687 L806 686 L807 661 L808 660 L808 651 L809 650 L809 643 L810 642 L812 623 L821 584 L829 560 L833 554 L845 542 L855 537 L858 540 L859 545 L846 597 L842 609 L827 635 L824 645 L823 658 L816 670 L816 673 L814 676 L811 689 L816 672 L820 662 L823 658 L827 670 L828 690 L827 691 L826 717 L825 718 L825 728 L824 729 L824 739 L823 740 L822 771 L821 772 L821 783 L820 784 L819 801 L813 819 L807 825 L803 827 L793 828 L783 824 L775 815 L776 792 L777 791 L777 768 L778 767 L778 675 L777 674 L776 636 L775 635 L775 625 L774 624 L772 604 L771 603 L767 581 L762 567 L754 553 L744 543 L746 542 L747 543 L759 544 L760 545 L775 545 L776 544 L787 544 L788 543 L803 542 L804 541 L809 541 L810 540 L820 539 L832 536 Z M344 538 L356 536 L361 534 L371 533 L372 532 L384 531 L385 530 L410 528 L411 527 L421 527 L422 526 L453 525 L454 524 L541 522 L542 523 L590 523 L591 524 L629 525 L630 526 L655 527 L656 528 L681 530 L682 531 L695 532 L696 533 L713 535 L718 537 L731 539 L743 545 L754 557 L760 568 L768 594 L770 609 L771 610 L771 616 L772 617 L773 635 L774 636 L775 671 L776 672 L776 770 L775 771 L774 807 L773 808 L773 819 L772 820 L772 829 L771 830 L769 855 L768 856 L767 869 L766 870 L765 881 L761 898 L761 903 L760 904 L759 913 L757 918 L757 922 L755 927 L752 943 L750 947 L744 971 L742 974 L742 977 L728 1016 L711 1052 L697 1075 L672 1107 L649 1130 L633 1143 L608 1158 L592 1164 L576 1168 L564 1169 L563 1170 L555 1170 L554 1171 L541 1171 L540 1172 L519 1172 L518 1171 L502 1171 L501 1170 L486 1169 L465 1164 L452 1159 L432 1148 L412 1134 L395 1120 L380 1105 L369 1092 L356 1073 L340 1040 L323 987 L323 983 L315 951 L315 946 L314 945 L314 940 L313 939 L313 934 L310 921 L310 915 L309 914 L309 908 L308 907 L308 900 L307 899 L304 859 L303 858 L303 846 L302 845 L301 808 L300 807 L300 688 L301 687 L301 660 L302 659 L302 643 L303 642 L304 621 L305 620 L307 600 L311 583 L317 566 L326 551 L334 543 Z M301 494 L305 490 L327 481 L343 477 L357 475 L358 474 L370 473 L377 471 L384 471 L385 470 L412 468 L413 467 L423 467 L424 466 L453 465 L454 464 L474 464 L475 463 L568 462 L569 463 L603 463 L604 464 L643 465 L644 466 L669 467 L670 468 L680 468 L681 469 L689 469 L690 470 L712 472 L713 473 L718 473 L719 474 L724 474 L725 475 L745 478 L769 485 L778 490 L782 494 L782 496 L781 497 L780 508 L774 534 L770 543 L760 543 L759 542 L748 541 L747 540 L743 540 L742 539 L738 539 L737 538 L733 538 L732 537 L728 537 L723 535 L708 533 L702 531 L696 531 L695 530 L682 529 L674 527 L657 526 L656 525 L644 525 L643 524 L633 524 L632 523 L615 523 L614 522 L596 522 L595 521 L514 520 L513 521 L451 522 L450 523 L435 523 L434 524 L422 524 L421 525 L410 525 L409 526 L392 527 L391 528 L385 528 L384 529 L378 529 L377 530 L355 533 L312 544 L308 537 Z M629 438 L628 444 L623 453 L619 457 L612 461 L582 461 L581 460 L582 459 L605 459 L616 455 L623 448 L626 443 L627 438 L628 437 Z M629 434 L630 435 L629 438 L628 437 Z M539 434 L541 435 L545 445 L544 450 L541 453 L538 453 L534 447 L536 439 Z M521 432 L522 433 L522 437 L520 441 L516 445 L509 447 L507 444 L509 440 L512 437 Z M449 433 L450 432 L451 433 L452 439 L458 449 L466 456 L475 459 L485 459 L486 460 L485 461 L469 461 L461 457 L453 448 L450 441 Z M557 432 L559 431 L566 435 L570 440 L570 444 L569 445 L565 445 L561 443 L557 438 Z M538 432 L533 441 L532 447 L535 453 L538 455 L541 455 L546 450 L546 441 L543 435 L540 432 Z M449 428 L450 429 L449 432 L448 431 Z M555 428 L555 438 L557 442 L562 446 L569 448 L572 445 L573 442 L571 437 L560 429 Z M524 428 L517 431 L507 439 L505 445 L508 449 L514 448 L520 444 L525 435 Z M568 423 L569 422 L581 423 L585 425 L589 429 L589 431 L588 432 L578 431 L574 429 Z M512 422 L500 430 L492 432 L488 430 L492 425 L503 421 L511 421 Z M565 421 L565 423 L571 429 L576 432 L582 434 L589 434 L591 432 L590 427 L583 422 L576 420 L567 420 Z M514 421 L511 419 L503 419 L496 421 L490 424 L487 427 L486 431 L490 434 L500 432 L508 428 Z M482 411 L484 408 L488 406 L500 406 L507 409 L502 412 L494 414 L486 414 Z M480 412 L486 416 L494 416 L506 412 L509 410 L509 408 L507 406 L500 404 L488 404 L483 406 L480 409 Z M599 408 L596 405 L591 403 L584 403 L583 404 L573 405 L570 408 L574 409 L581 406 L592 405 L596 407 L597 409 L592 413 L575 413 L574 412 L570 414 L573 418 L574 418 L575 415 L593 415 L597 413 Z M537 395 L547 396 L551 400 L553 406 L553 411 L551 416 L547 420 L541 423 L532 422 L527 417 L526 414 L526 406 L528 401 L532 397 Z M536 393 L531 395 L524 402 L522 406 L522 413 L526 420 L530 423 L535 425 L541 425 L548 422 L553 417 L556 412 L557 406 L556 403 L549 395 L544 393 Z M448 393 L449 392 L450 394 L449 395 Z M629 390 L630 391 L629 394 L628 393 Z M487 389 L489 387 L495 387 L503 390 L510 396 L509 397 L499 397 L491 394 Z M628 386 L629 387 L628 390 L627 389 Z M591 388 L587 393 L579 396 L570 396 L569 395 L575 390 L584 386 L589 386 Z M450 386 L451 387 L450 390 L449 389 Z M558 386 L559 385 L560 386 L559 387 Z M485 388 L486 392 L493 397 L500 399 L513 399 L513 396 L508 391 L501 387 L495 385 L488 385 Z M593 387 L590 384 L585 384 L578 386 L571 390 L566 395 L566 397 L569 398 L583 397 L588 395 L593 390 Z M451 382 L452 383 L451 386 L450 385 Z M452 379 L453 380 L452 383 L451 382 Z M452 378 L453 377 L454 379 L453 380 Z M561 375 L562 374 L563 375 L562 376 Z M576 373 L574 378 L571 381 L561 386 L559 385 L560 381 L568 373 L572 371 L574 371 Z M503 374 L506 371 L511 373 L517 379 L520 386 L517 387 L511 384 L506 380 Z M501 374 L506 383 L514 388 L522 389 L522 384 L518 377 L514 373 L508 370 L503 370 Z M522 367 L521 371 L526 381 L528 383 L530 383 L531 381 L526 376 L524 368 Z M537 364 L539 364 L542 367 L542 374 L539 381 L535 375 L535 367 Z M578 372 L574 369 L566 372 L563 375 L562 374 L562 366 L559 364 L551 372 L550 375 L551 385 L553 385 L552 382 L553 373 L558 366 L561 368 L561 374 L560 378 L556 384 L556 389 L564 387 L574 381 L578 375 Z M618 363 L619 362 L633 362 L634 363 L656 364 L657 365 L675 366 L676 367 L691 368 L692 369 L698 369 L699 370 L731 374 L732 375 L752 378 L776 384 L792 391 L800 397 L799 405 L798 406 L795 427 L793 433 L793 438 L792 439 L789 459 L786 470 L786 475 L783 486 L783 491 L782 492 L775 486 L764 481 L731 473 L707 470 L706 469 L700 469 L699 468 L682 467 L681 466 L646 464 L645 463 L631 463 L630 462 L617 462 L616 461 L624 455 L630 445 L632 437 L632 428 L633 427 L631 387 L625 372 Z M461 363 L453 371 L449 379 L446 392 L445 415 L446 416 L446 432 L449 444 L455 454 L459 458 L464 461 L463 462 L422 464 L421 465 L401 466 L400 467 L392 467 L391 468 L383 468 L376 470 L363 471 L362 472 L352 473 L351 474 L330 478 L315 483 L309 486 L301 492 L300 491 L300 485 L298 479 L295 456 L293 450 L290 427 L289 426 L287 410 L286 409 L286 403 L284 397 L285 395 L302 386 L314 382 L330 379 L335 377 L344 376 L345 375 L350 375 L351 374 L356 374 L369 371 L375 371 L376 370 L382 370 L383 369 L417 366 L418 365 L452 363 L453 362 L460 362 Z M616 362 L617 361 L619 362 L618 363 Z M537 362 L533 367 L533 375 L535 378 L534 380 L538 384 L540 384 L544 374 L544 368 L541 363 Z M473 362 L462 368 L454 378 L453 377 L454 373 L461 365 L468 361 L472 361 Z M606 360 L615 363 L619 367 L627 380 L628 383 L627 387 L620 372 L615 367 L607 363 L605 361 Z M453 385 L458 375 L464 369 L474 363 L484 360 L500 360 L501 359 L586 359 L587 360 L597 360 L603 362 L613 368 L619 374 L624 383 L628 399 L628 406 L629 407 L629 420 L628 421 L627 434 L622 446 L614 454 L605 457 L589 457 L588 458 L483 458 L482 457 L475 457 L464 452 L458 446 L453 436 L451 428 L451 423 L450 422 L450 401 L451 400 L451 394 L452 393 Z M281 362 L285 359 L299 353 L325 345 L328 345 L332 343 L344 341 L357 337 L362 337 L367 335 L372 335 L373 334 L401 330 L402 329 L415 328 L416 327 L449 324 L450 323 L460 323 L461 322 L487 321 L488 320 L508 320 L509 319 L588 319 L589 320 L607 320 L608 321 L621 321 L622 322 L633 322 L634 323 L662 325 L663 326 L670 326 L671 327 L678 327 L679 328 L692 329 L699 331 L705 331 L706 332 L711 332 L712 333 L736 337 L756 342 L763 345 L766 345 L794 355 L805 362 L805 368 L804 369 L802 388 L800 394 L784 385 L769 380 L752 377 L747 375 L737 374 L736 373 L712 370 L705 368 L691 367 L690 366 L675 365 L674 364 L644 362 L643 361 L630 361 L629 360 L617 360 L616 359 L585 358 L584 357 L501 357 L500 358 L470 359 L469 360 L431 362 L430 363 L393 366 L392 367 L377 368 L376 369 L357 371 L351 373 L331 376 L302 384 L289 390 L285 393 L283 389 L283 384 L282 383 Z M894 228 L895 231 L891 247 L862 337 L862 340 L860 344 L860 347 L858 351 L858 354 L855 361 L850 382 L842 407 L840 418 L838 422 L834 438 L834 442 L829 459 L829 463 L826 472 L823 490 L821 495 L814 536 L812 538 L804 539 L803 540 L787 541 L786 538 L788 532 L788 527 L792 510 L792 505 L793 504 L794 493 L798 476 L798 471 L799 470 L806 431 L808 426 L809 417 L815 393 L821 375 L821 372 L830 344 L832 341 L835 330 L839 322 L844 307 L858 277 L876 247 L882 239 Z M196 222 L215 241 L229 262 L241 286 L252 316 L252 319 L255 326 L255 329 L257 333 L265 364 L265 368 L267 373 L267 377 L268 378 L268 382 L274 408 L274 413 L277 424 L278 435 L280 441 L281 452 L283 458 L287 487 L288 488 L291 510 L292 511 L294 530 L297 543 L296 546 L278 546 L277 545 L270 545 L267 543 L259 500 L254 480 L254 476 L251 467 L251 463 L249 458 L245 436 L243 432 L239 410 L210 295 L210 291 L202 262 L202 258 L195 233 L195 223 Z M891 222 L894 226 L886 232 L878 241 L859 271 L844 302 L832 332 L819 371 L819 374 L815 385 L814 392 L812 396 L806 420 L806 424 L803 434 L802 444 L796 470 L796 475 L793 486 L793 491 L791 497 L791 502 L790 503 L790 508 L789 509 L789 514 L787 520 L784 541 L778 543 L773 543 L772 542 L776 535 L780 514 L781 513 L781 509 L783 504 L784 491 L785 490 L785 486 L786 485 L786 481 L788 476 L788 471 L793 450 L793 445 L795 439 L795 434 L798 423 L798 418 L800 412 L800 407 L803 396 L806 372 L807 371 L807 356 L809 349 L809 338 L810 337 L810 298 L809 297 L809 290 L808 289 L807 279 L802 266 L838 243 L872 225 L886 221 Z M197 221 L201 218 L210 218 L222 222 L238 230 L240 230 L294 258 L302 259 L305 261 L301 265 L294 279 L286 301 L280 327 L280 332 L279 333 L278 355 L280 356 L281 334 L282 333 L282 328 L283 327 L283 322 L286 309 L294 284 L301 268 L305 263 L305 261 L316 251 L348 209 L367 187 L385 169 L398 158 L403 158 L415 155 L439 155 L440 156 L459 158 L489 189 L534 245 L543 254 L552 258 L564 259 L572 257 L582 250 L634 181 L653 159 L665 156 L671 156 L672 155 L689 155 L690 156 L704 158 L717 165 L740 185 L753 199 L779 232 L799 263 L802 265 L801 268 L805 280 L806 290 L807 291 L807 299 L808 300 L808 334 L807 335 L806 359 L805 360 L791 352 L763 342 L711 330 L693 328 L686 326 L680 326 L679 325 L656 323 L655 322 L636 321 L635 320 L610 319 L609 318 L592 318 L591 317 L557 317 L556 316 L486 318 L485 319 L460 320 L459 321 L449 321 L448 322 L440 322 L439 323 L430 323 L422 325 L408 326 L407 327 L389 329 L388 330 L383 330 L382 331 L353 336 L325 343 L314 347 L311 347 L287 356 L281 360 L279 358 L280 360 L278 363 L278 370 L279 371 L279 378 L280 379 L280 385 L282 392 L282 398 L283 399 L287 428 L290 439 L290 444 L291 445 L294 468 L296 474 L297 485 L300 495 L299 497 L300 498 L300 504 L301 505 L303 521 L305 527 L305 532 L308 543 L310 544 L309 545 L300 546 L298 544 L298 537 L297 536 L297 529 L294 516 L294 510 L293 509 L289 480 L287 474 L286 463 L284 457 L281 434 L280 433 L278 418 L273 397 L273 392 L269 377 L268 368 L266 363 L266 359 L262 343 L260 339 L259 332 L257 328 L257 325 L254 318 L254 315 L241 281 L224 250 L216 239 Z M649 149 L649 136 L652 128 L658 121 L667 117 L673 117 L674 116 L705 116 L706 117 L710 117 L722 123 L729 130 L732 137 L731 138 L720 137 L712 139 L708 143 L706 151 L703 156 L696 154 L690 154 L689 153 L672 153 L671 154 L657 156 L653 158 Z M388 136 L391 129 L397 123 L406 118 L413 116 L419 116 L420 115 L433 115 L434 116 L445 117 L456 122 L460 125 L465 131 L466 142 L464 148 L457 156 L448 155 L447 154 L440 154 L439 153 L415 153 L399 157 L391 149 L388 142 Z M197 217 L194 220 L192 225 L193 235 L234 399 L234 403 L237 412 L237 416 L239 421 L239 425 L242 434 L242 438 L250 470 L251 479 L253 484 L255 498 L257 503 L257 507 L261 523 L261 528 L263 533 L263 538 L265 543 L263 544 L262 543 L253 543 L252 542 L245 542 L244 541 L234 541 L227 544 L223 550 L223 563 L232 600 L238 617 L249 632 L253 640 L256 652 L257 664 L258 665 L258 668 L257 669 L256 668 L252 671 L250 677 L250 691 L251 692 L251 702 L252 703 L252 712 L253 713 L255 754 L256 755 L256 771 L257 772 L258 816 L257 817 L256 861 L255 862 L255 871 L254 872 L254 880 L253 881 L250 909 L249 910 L247 927 L245 933 L245 938 L243 944 L243 949 L242 950 L234 994 L232 999 L228 1021 L221 1048 L219 1062 L217 1067 L216 1082 L215 1083 L218 1091 L223 1094 L232 1093 L245 1085 L269 1067 L284 1058 L297 1052 L316 1046 L339 1045 L341 1047 L341 1049 L353 1073 L368 1095 L385 1114 L409 1135 L427 1148 L444 1158 L457 1164 L477 1170 L495 1172 L496 1173 L506 1173 L507 1174 L549 1174 L550 1173 L560 1173 L561 1172 L574 1171 L603 1163 L621 1154 L646 1136 L671 1112 L693 1085 L707 1064 L714 1050 L719 1048 L738 1048 L739 1049 L750 1050 L762 1053 L772 1057 L788 1066 L796 1072 L841 1117 L849 1121 L857 1121 L864 1118 L881 1102 L886 1096 L889 1090 L890 1086 L889 1065 L888 1064 L888 1057 L887 1056 L887 1050 L886 1049 L886 1043 L885 1042 L885 1036 L884 1035 L880 1006 L877 996 L875 981 L874 980 L874 976 L869 955 L869 950 L867 944 L864 919 L863 918 L861 894 L860 893 L859 868 L858 867 L858 845 L857 844 L856 753 L855 750 L850 746 L828 746 L827 747 L825 746 L826 745 L826 734 L827 733 L827 722 L828 721 L829 698 L830 697 L830 672 L826 659 L826 648 L831 632 L842 615 L850 592 L859 556 L859 552 L861 547 L861 541 L860 538 L857 535 L852 533 L836 533 L835 534 L830 534 L817 537 L816 535 L817 534 L817 529 L818 528 L827 479 L829 474 L829 470 L832 461 L832 457 L845 405 L847 401 L847 398 L849 394 L850 387 L852 383 L860 352 L863 345 L863 342 L868 329 L868 326 L873 313 L873 310 L879 294 L879 291 L886 272 L886 269 L897 234 L897 225 L896 223 L889 219 L883 219 L873 222 L845 236 L803 262 L798 257 L779 228 L752 194 L724 167 L706 156 L710 144 L713 141 L716 140 L729 140 L732 141 L734 139 L734 134 L730 127 L721 119 L709 114 L702 114 L701 113 L668 114 L659 117 L653 122 L649 128 L646 137 L646 147 L650 159 L642 167 L580 248 L574 253 L566 256 L551 255 L545 252 L534 241 L531 236 L496 193 L478 173 L461 157 L468 144 L468 132 L466 128 L456 119 L450 116 L439 113 L415 113 L414 114 L410 114 L398 119 L391 125 L386 134 L386 144 L389 151 L395 157 L378 172 L359 192 L336 220 L316 247 L306 257 L293 255 L277 247 L275 245 L221 219 L206 215 Z" fill="#eef3f4" fill-rule="evenodd"/>
</svg>
