<svg xmlns="http://www.w3.org/2000/svg" width="1086" height="1448" viewBox="0 0 1086 1448">
  <title>0032</title>
  <path d="M468 1249 L470 1249 L480 1243 L483 1240 L491 1227 L502 1217 L518 1210 L526 1209 L527 1208 L535 1208 L536 1207 L556 1209 L570 1214 L579 1220 L585 1226 L593 1239 L598 1244 L607 1249 L609 1249 L602 1245 L595 1238 L587 1225 L579 1217 L564 1209 L553 1206 L546 1206 L545 1205 L534 1205 L533 1206 L521 1207 L511 1210 L501 1215 L489 1226 L480 1240 L476 1244 Z M350 1186 L351 1185 L352 1186 L351 1187 Z M349 1185 L350 1184 L351 1185 L350 1186 Z M725 1184 L726 1183 L727 1184 L726 1185 Z M729 1187 L737 1178 L744 1166 L752 1165 L753 1164 L768 1164 L774 1167 L780 1173 L787 1188 L785 1189 L784 1188 L730 1188 Z M287 1188 L292 1174 L300 1166 L310 1163 L331 1166 L339 1179 L347 1187 L346 1188 L290 1188 L289 1189 Z M667 1117 L668 1116 L669 1117 L668 1118 Z M666 1116 L667 1115 L668 1116 L667 1117 Z M668 1113 L669 1112 L670 1113 L669 1114 Z M408 1113 L409 1112 L410 1113 L409 1114 Z M414 1112 L415 1111 L416 1112 L415 1113 Z M409 1112 L410 1111 L411 1112 L410 1113 Z M406 1109 L407 1108 L408 1109 L407 1110 Z M415 1111 L432 1096 L450 1084 L466 1076 L485 1070 L490 1070 L491 1069 L514 1069 L534 1074 L545 1074 L564 1069 L588 1069 L607 1074 L632 1086 L649 1098 L667 1115 L665 1116 L646 1107 L611 1097 L590 1094 L589 1093 L576 1092 L575 1091 L554 1090 L553 1089 L525 1089 L524 1090 L511 1090 L510 1091 L493 1092 L492 1093 L487 1093 L486 1094 L481 1094 L480 1095 L475 1095 L474 1096 L469 1096 L454 1100 L450 1100 L429 1106 L417 1112 Z M410 1110 L421 1096 L441 1077 L456 1067 L478 1057 L490 1054 L506 1053 L507 1054 L516 1055 L531 1061 L547 1061 L566 1054 L581 1053 L582 1054 L594 1055 L607 1059 L622 1066 L633 1073 L642 1080 L658 1096 L669 1112 L668 1113 L650 1096 L629 1082 L610 1073 L598 1069 L588 1068 L587 1067 L579 1067 L578 1066 L563 1067 L544 1072 L534 1072 L520 1068 L506 1067 L505 1066 L480 1069 L464 1075 L446 1084 L427 1097 L411 1112 Z M406 1028 L395 1038 L389 1047 L373 1087 L375 1087 L378 1081 L387 1056 L393 1044 L397 1038 L407 1029 Z M419 1026 L413 1031 L405 1044 L401 1056 L396 1085 L389 1100 L392 1098 L399 1082 L402 1069 L402 1063 L406 1047 L412 1035 Z M441 1018 L438 1019 L428 1029 L422 1039 L417 1053 L414 1072 L411 1081 L413 1081 L422 1045 L429 1031 Z M663 1014 L678 1030 L690 1050 L702 1067 L702 1065 L698 1060 L682 1032 L671 1019 L665 1014 Z M655 1014 L654 1015 L665 1026 L670 1036 L675 1054 L675 1061 L676 1062 L676 1068 L678 1073 L678 1077 L684 1093 L690 1101 L684 1089 L681 1080 L676 1048 L671 1033 L664 1022 Z M378 1136 L378 1143 L380 1147 L383 1149 L390 1150 L401 1146 L401 1144 L398 1146 L390 1147 L389 1148 L388 1147 L384 1147 L380 1143 L380 1136 L386 1125 L394 1117 L406 1109 L407 1111 L401 1120 L399 1126 L401 1126 L413 1116 L427 1109 L455 1101 L459 1101 L475 1097 L480 1097 L481 1096 L486 1096 L487 1095 L510 1093 L511 1092 L553 1091 L554 1092 L565 1092 L566 1093 L574 1093 L575 1094 L595 1096 L634 1105 L653 1112 L667 1119 L678 1127 L678 1123 L671 1111 L672 1109 L678 1113 L690 1124 L695 1131 L697 1137 L697 1144 L692 1148 L685 1148 L678 1145 L676 1145 L676 1146 L685 1150 L694 1150 L699 1144 L699 1136 L692 1123 L684 1115 L667 1104 L661 1096 L643 1078 L631 1069 L610 1058 L595 1053 L584 1052 L583 1051 L567 1052 L564 1049 L561 1040 L561 1025 L566 1013 L563 1015 L561 1019 L558 1031 L559 1042 L562 1049 L564 1051 L563 1053 L546 1059 L533 1059 L514 1053 L513 1052 L518 1042 L519 1030 L518 1029 L517 1021 L512 1013 L515 1021 L517 1033 L516 1034 L515 1045 L511 1052 L508 1051 L496 1051 L495 1052 L489 1052 L477 1055 L467 1059 L447 1070 L434 1080 L411 1104 L403 1108 L393 1115 L382 1127 Z M462 1012 L460 1012 L455 1015 L446 1024 L441 1031 L435 1044 L430 1064 L431 1064 L433 1060 L437 1045 L445 1029 Z M638 1011 L638 1013 L643 1017 L649 1025 L655 1038 L658 1050 L658 1056 L659 1057 L659 1069 L661 1069 L661 1056 L660 1055 L660 1049 L657 1037 L648 1020 Z M619 1011 L627 1019 L633 1028 L639 1044 L642 1059 L643 1059 L643 1053 L638 1034 L630 1020 L622 1012 Z M597 1011 L606 1020 L611 1027 L619 1046 L619 1042 L614 1028 L606 1017 L600 1012 Z M478 1011 L473 1013 L462 1025 L458 1032 L454 1048 L455 1048 L459 1035 L465 1024 Z M614 977 L615 976 L616 977 L615 978 Z M615 976 L616 975 L617 976 L616 977 Z M464 976 L465 975 L472 980 L480 983 L497 984 L518 994 L530 997 L550 997 L551 996 L556 996 L568 992 L584 984 L602 983 L611 979 L613 977 L615 978 L609 984 L603 987 L592 988 L591 989 L581 989 L562 999 L550 1002 L531 1002 L513 997 L500 989 L478 987 L469 982 Z M616 975 L617 974 L618 975 L617 976 Z M463 975 L464 974 L465 975 L464 976 Z M462 974 L463 973 L464 974 L463 975 Z M461 973 L462 972 L463 973 L462 974 Z M622 921 L623 920 L624 921 L623 922 Z M374 1005 L376 1007 L383 1007 L384 1008 L398 1006 L411 1000 L423 990 L430 981 L436 969 L442 944 L446 933 L450 927 L457 920 L458 922 L454 929 L453 937 L452 938 L453 958 L456 968 L460 976 L467 984 L473 988 L483 991 L496 991 L513 1000 L532 1005 L554 1004 L567 1000 L581 992 L603 990 L611 986 L619 978 L626 964 L627 956 L628 955 L628 936 L626 928 L623 923 L624 921 L631 928 L636 937 L643 966 L651 983 L654 987 L665 998 L679 1006 L690 1009 L706 1008 L706 1007 L691 1007 L680 1004 L667 997 L656 986 L647 970 L640 942 L635 930 L624 918 L611 912 L602 912 L596 915 L589 923 L586 933 L586 951 L583 961 L586 958 L588 952 L589 929 L593 921 L598 916 L602 914 L610 914 L614 916 L619 921 L623 928 L625 935 L625 955 L622 964 L617 971 L611 976 L603 980 L593 981 L592 982 L582 982 L568 989 L556 993 L551 993 L550 994 L530 994 L515 990 L498 982 L482 981 L470 976 L460 966 L457 960 L455 952 L455 937 L457 929 L462 920 L470 914 L478 914 L483 916 L488 921 L492 931 L493 952 L497 961 L499 961 L495 951 L494 929 L490 920 L485 915 L479 912 L470 912 L455 919 L447 927 L443 934 L440 943 L437 958 L433 970 L425 984 L413 996 L400 1003 L393 1005 L387 1005 L386 1006 Z M625 881 L626 880 L628 881 L627 882 Z M595 877 L596 876 L600 877 L599 878 Z M479 876 L480 875 L483 876 L482 877 Z M680 870 L681 869 L682 870 L681 871 Z M681 869 L682 868 L683 869 L682 870 Z M682 868 L683 867 L684 868 L683 869 Z M512 881 L527 872 L535 870 L550 871 L560 875 L567 881 L568 880 L560 873 L554 870 L546 868 L534 868 L524 871 L514 878 Z M683 867 L684 866 L685 867 L684 868 Z M393 866 L394 865 L395 866 L394 867 Z M392 865 L393 864 L394 865 L393 866 Z M604 832 L605 833 L605 848 L609 861 L618 874 L626 880 L625 881 L617 880 L600 874 L590 874 L589 875 L587 874 L588 865 L592 852 L599 838 Z M473 831 L478 837 L486 854 L489 865 L489 872 L490 874 L489 875 L485 873 L478 873 L461 879 L449 881 L448 880 L455 876 L463 868 L469 857 L472 846 L472 832 Z M724 808 L716 831 L714 840 L704 863 L696 875 L687 884 L680 889 L672 893 L662 896 L655 896 L654 897 L638 896 L619 890 L599 878 L603 877 L624 884 L647 886 L648 885 L656 885 L657 884 L665 883 L678 877 L686 871 L696 860 L707 840 L711 829 L713 819 L716 813 L722 807 Z M723 807 L724 806 L725 807 L724 808 Z M713 810 L714 806 L718 807 L714 811 Z M709 806 L710 807 L710 819 L706 834 L697 853 L693 859 L685 867 L684 865 L690 854 L693 843 L693 822 L690 811 L687 806 L688 805 Z M354 806 L356 805 L363 813 L373 843 L382 859 L391 869 L404 878 L422 884 L446 884 L447 883 L453 883 L475 876 L479 876 L480 877 L458 889 L448 893 L440 894 L439 895 L429 895 L428 896 L427 895 L418 895 L417 894 L409 893 L400 889 L390 882 L385 877 L374 861 L366 843 L363 831 Z M682 804 L685 807 L688 814 L690 822 L691 834 L690 835 L690 843 L687 853 L680 866 L671 875 L656 882 L650 882 L649 883 L639 882 L632 880 L625 876 L616 867 L609 852 L608 848 L608 832 L610 825 L625 814 L640 808 L653 805 Z M360 805 L364 804 L365 808 L364 809 Z M353 805 L354 804 L355 805 L354 806 Z M395 803 L416 803 L417 804 L425 804 L426 805 L435 806 L454 814 L467 824 L469 832 L468 850 L462 864 L455 872 L448 877 L437 881 L423 881 L411 877 L399 867 L391 854 L387 839 L387 823 L388 822 L388 818 L390 811 Z M369 804 L382 804 L383 803 L389 803 L390 804 L385 817 L384 840 L387 852 L391 861 L393 863 L392 865 L386 859 L380 850 L373 835 L373 832 L370 825 L370 821 L368 816 L368 805 Z M740 791 L731 799 L720 803 L707 803 L706 802 L693 802 L692 801 L659 801 L658 802 L652 802 L651 803 L646 803 L638 805 L620 813 L604 826 L594 840 L586 859 L583 879 L582 880 L580 877 L581 861 L585 847 L589 838 L599 823 L608 814 L621 805 L638 798 L651 795 L657 795 L658 794 L695 794 L696 795 L720 796 L721 795 L727 795 L738 790 Z M739 790 L740 789 L741 790 L740 791 Z M740 789 L741 788 L742 789 L741 790 Z M339 788 L340 787 L349 792 L357 793 L358 794 L375 794 L376 793 L390 793 L391 792 L421 793 L422 794 L428 794 L429 795 L437 796 L458 805 L468 812 L480 824 L485 831 L493 848 L496 859 L496 864 L497 865 L497 876 L495 879 L493 876 L493 869 L492 868 L491 859 L483 839 L477 830 L463 816 L452 809 L436 803 L428 802 L427 801 L421 801 L420 800 L359 801 L348 797 Z M338 787 L339 786 L340 787 L339 788 Z M337 786 L338 785 L339 786 L338 787 Z M570 769 L567 771 L562 781 L559 793 L559 817 L561 824 L562 824 L561 820 L561 795 L566 776 Z M511 769 L517 782 L518 790 L519 791 L519 799 L520 800 L520 810 L519 811 L519 819 L518 820 L518 824 L519 824 L521 816 L521 810 L522 809 L521 790 L518 779 L514 771 Z M764 740 L759 756 L752 771 L748 777 L739 786 L732 790 L726 792 L718 792 L717 793 L713 792 L700 792 L699 791 L676 791 L675 790 L672 791 L649 792 L626 799 L609 809 L594 824 L583 843 L577 864 L577 879 L579 885 L582 886 L586 881 L590 879 L597 880 L612 889 L623 894 L644 899 L656 899 L657 898 L667 897 L673 895 L686 888 L699 875 L710 857 L728 807 L744 792 L752 780 L760 761 L764 745 Z M316 738 L319 756 L329 780 L334 788 L350 804 L355 815 L356 821 L366 850 L378 872 L390 885 L397 890 L408 895 L416 897 L423 897 L424 898 L433 898 L434 897 L440 897 L441 896 L449 895 L452 893 L457 892 L482 879 L489 879 L493 882 L495 886 L498 885 L500 879 L500 862 L495 844 L485 825 L472 811 L461 803 L447 796 L430 791 L416 790 L415 789 L388 789 L387 790 L360 791 L348 788 L341 784 L332 775 L328 769 L321 754 L319 745 Z M802 724 L810 726 L816 732 L818 737 L818 764 L817 765 L815 801 L814 802 L814 813 L813 814 L813 826 L812 827 L812 841 L811 842 L811 926 L812 927 L813 970 L814 971 L814 986 L815 987 L815 1000 L816 1001 L818 1038 L819 1039 L821 1070 L822 1071 L822 1080 L823 1081 L824 1099 L825 1100 L825 1108 L826 1109 L826 1119 L827 1120 L827 1128 L828 1129 L829 1150 L830 1151 L830 1161 L831 1162 L831 1172 L832 1173 L832 1185 L833 1186 L833 1200 L832 1203 L828 1208 L820 1211 L808 1211 L805 1210 L796 1202 L792 1195 L788 1181 L784 1173 L774 1163 L765 1160 L756 1160 L746 1163 L745 1162 L747 1141 L748 1140 L749 1129 L751 1123 L753 1106 L755 1100 L755 1094 L756 1093 L759 1069 L760 1068 L760 1062 L761 1061 L761 1055 L762 1054 L762 1047 L763 1046 L763 1039 L764 1038 L765 1023 L766 1022 L766 1014 L767 1013 L767 1005 L768 1004 L768 996 L769 995 L769 986 L770 985 L772 953 L773 952 L773 940 L774 939 L774 927 L775 926 L775 914 L776 913 L776 899 L777 898 L777 883 L778 882 L778 863 L779 862 L780 765 L788 755 L794 745 Z M280 723 L287 746 L299 764 L299 787 L298 788 L299 790 L298 792 L298 882 L299 883 L299 900 L300 901 L302 941 L303 942 L303 952 L304 953 L304 962 L305 963 L305 972 L306 973 L306 981 L307 982 L307 990 L308 991 L311 1024 L312 1025 L317 1066 L319 1073 L319 1079 L320 1080 L320 1085 L321 1086 L321 1091 L324 1104 L324 1110 L327 1123 L331 1162 L329 1163 L317 1160 L308 1160 L307 1161 L303 1161 L297 1164 L289 1173 L285 1182 L283 1192 L276 1204 L268 1210 L256 1210 L251 1208 L246 1203 L244 1191 L245 1190 L245 1179 L246 1178 L249 1138 L250 1137 L250 1127 L251 1126 L251 1117 L252 1116 L252 1106 L253 1105 L253 1095 L254 1094 L255 1074 L256 1073 L256 1061 L257 1060 L259 1023 L260 1022 L260 1009 L261 1008 L261 994 L262 993 L262 980 L263 979 L263 962 L264 961 L264 945 L265 944 L265 922 L266 921 L267 838 L266 837 L265 798 L264 797 L264 784 L263 783 L263 769 L262 768 L261 746 L262 745 L262 737 L264 732 L270 726 L274 724 L279 724 Z M710 705 L711 704 L712 706 L711 707 Z M711 703 L712 702 L713 704 L712 705 Z M712 702 L713 701 L714 702 L713 703 Z M713 700 L714 699 L715 700 L714 701 Z M367 700 L368 699 L369 701 L368 702 Z M366 699 L367 698 L368 699 L367 700 Z M350 654 L351 653 L352 654 L351 655 Z M280 635 L292 661 L300 690 L301 726 L300 727 L300 750 L298 757 L289 742 L284 726 L283 707 L282 706 L281 651 L280 650 L280 639 L279 638 Z M803 634 L804 635 L804 646 L803 647 L803 666 L802 667 L802 690 L801 691 L801 707 L800 708 L799 721 L794 737 L789 747 L781 759 L780 758 L780 725 L779 724 L781 694 L787 670 L789 667 L794 652 Z M803 632 L804 631 L805 633 L804 634 Z M729 615 L722 612 L713 612 L706 615 L698 623 L678 658 L665 676 L649 693 L626 710 L611 715 L600 714 L596 712 L589 705 L587 701 L586 694 L585 694 L585 700 L587 706 L591 711 L597 715 L604 717 L611 717 L622 714 L630 710 L648 697 L668 676 L680 659 L694 633 L700 624 L707 617 L714 614 L721 614 L729 618 L734 624 L737 632 L737 643 L736 647 L731 655 L730 654 L731 649 L730 648 L729 649 L725 669 L721 681 L713 697 L702 712 L691 723 L674 735 L655 744 L629 751 L604 752 L592 749 L584 745 L579 741 L573 734 L569 727 L566 717 L565 703 L566 702 L567 692 L571 682 L577 673 L584 666 L582 666 L573 675 L567 685 L564 694 L563 714 L564 715 L565 723 L569 732 L579 744 L591 751 L594 751 L598 753 L602 753 L603 754 L623 754 L624 753 L635 752 L650 747 L653 747 L663 743 L683 732 L691 726 L710 706 L711 708 L703 721 L694 731 L683 740 L671 747 L650 755 L630 760 L626 760 L622 762 L606 766 L587 776 L576 788 L573 793 L570 803 L569 826 L570 827 L570 833 L572 840 L573 840 L573 836 L572 835 L572 808 L573 807 L573 802 L579 788 L585 781 L598 772 L610 767 L632 761 L648 758 L674 748 L693 735 L708 718 L720 694 L726 675 L729 661 L734 656 L739 646 L739 641 L740 640 L739 630 L736 623 Z M353 615 L347 621 L344 627 L342 634 L343 645 L345 651 L353 661 L353 665 L361 693 L374 718 L390 735 L408 747 L431 756 L467 765 L481 771 L490 777 L499 786 L505 798 L506 807 L507 808 L507 829 L506 830 L506 838 L505 839 L507 840 L508 831 L509 830 L509 823 L510 822 L509 802 L503 787 L493 776 L484 770 L471 764 L455 760 L451 758 L432 754 L418 749 L404 742 L390 732 L382 724 L373 712 L368 702 L369 701 L374 708 L391 725 L415 740 L417 740 L427 745 L447 751 L457 752 L458 753 L479 753 L491 750 L503 743 L509 737 L516 725 L519 712 L519 700 L516 687 L510 676 L499 665 L499 667 L502 669 L509 678 L513 686 L517 703 L516 716 L513 726 L509 733 L502 741 L490 748 L478 751 L461 751 L460 750 L448 749 L425 742 L408 734 L392 723 L376 707 L366 692 L357 671 L353 650 L351 648 L351 652 L350 653 L348 651 L345 643 L346 628 L350 621 L354 617 L360 614 L369 614 L375 617 L385 628 L398 652 L413 674 L434 696 L452 709 L462 714 L469 716 L483 715 L489 712 L494 707 L498 695 L496 694 L496 697 L492 706 L488 710 L479 714 L470 714 L454 708 L434 693 L416 674 L403 656 L387 627 L380 618 L370 612 L359 612 Z M325 582 L337 579 L342 579 L343 578 L351 578 L352 577 L435 576 L436 575 L438 576 L441 575 L624 575 L625 576 L668 576 L669 577 L713 578 L714 579 L738 581 L755 585 L764 589 L768 593 L770 613 L771 614 L771 624 L772 625 L774 669 L775 670 L775 690 L776 691 L776 728 L777 729 L777 832 L776 833 L776 858 L775 859 L775 878 L774 879 L774 894 L773 895 L773 910 L772 911 L770 950 L769 951 L769 961 L768 962 L768 972 L767 973 L766 992 L765 993 L765 1001 L764 1002 L764 1011 L763 1012 L763 1019 L762 1020 L762 1027 L761 1028 L761 1035 L760 1036 L760 1043 L759 1044 L756 1071 L754 1078 L754 1084 L753 1085 L750 1108 L748 1114 L748 1119 L747 1120 L747 1125 L746 1126 L746 1131 L743 1144 L742 1163 L735 1175 L727 1184 L725 1182 L710 1196 L688 1221 L665 1244 L650 1253 L638 1256 L627 1256 L624 1257 L614 1265 L599 1274 L580 1281 L567 1283 L566 1284 L550 1285 L549 1286 L530 1286 L529 1285 L518 1285 L517 1284 L512 1284 L511 1283 L498 1281 L486 1277 L472 1270 L460 1260 L453 1256 L444 1256 L443 1255 L434 1254 L419 1247 L400 1232 L352 1183 L350 1182 L349 1185 L341 1176 L335 1165 L333 1141 L332 1140 L329 1113 L327 1107 L326 1095 L323 1082 L323 1076 L322 1075 L322 1070 L321 1069 L321 1064 L318 1051 L315 1023 L314 1022 L314 1015 L313 1014 L313 1007 L312 1006 L310 981 L309 980 L306 939 L305 938 L305 927 L304 926 L303 896 L302 895 L302 870 L301 869 L301 804 L302 803 L302 765 L303 764 L302 760 L303 759 L304 707 L305 706 L306 666 L307 665 L309 626 L310 625 L310 615 L311 614 L313 591 L317 586 Z M267 566 L273 566 L274 565 L302 565 L303 566 L303 584 L304 588 L310 595 L309 596 L309 603 L308 604 L306 635 L305 636 L305 648 L304 649 L304 661 L303 662 L303 679 L301 685 L297 668 L291 654 L290 649 L273 613 L273 611 L270 606 L260 581 L260 571 L264 567 Z M818 566 L823 570 L824 573 L823 580 L813 605 L810 610 L810 612 L790 655 L781 684 L781 689 L780 690 L778 686 L777 650 L776 649 L775 625 L774 624 L774 614 L773 613 L773 603 L772 602 L772 597 L776 593 L778 588 L778 566 L780 564 L797 564 L798 565 L814 565 Z M301 561 L302 560 L303 561 L302 562 Z M302 543 L303 542 L303 536 L306 530 L314 523 L323 519 L339 515 L345 515 L346 514 L365 513 L366 512 L384 512 L385 511 L614 511 L615 512 L618 511 L619 512 L669 512 L670 513 L712 514 L713 515 L725 515 L726 516 L741 517 L742 518 L755 520 L766 524 L774 530 L777 534 L779 541 L778 556 L777 557 L776 569 L775 570 L775 588 L772 593 L765 586 L753 581 L745 579 L740 579 L739 578 L734 578 L733 577 L717 576 L716 575 L679 574 L678 573 L563 572 L562 571 L421 572 L420 573 L351 574 L350 575 L342 575 L341 576 L331 577 L319 581 L310 590 L307 587 L306 584 L306 562 L303 555 Z M314 419 L318 405 L327 386 L335 375 L346 364 L364 353 L396 344 L401 344 L402 343 L419 341 L420 340 L435 339 L436 338 L457 337 L458 336 L472 336 L473 335 L492 335 L493 334 L566 334 L567 335 L586 335 L587 336 L603 336 L604 337 L636 339 L637 340 L653 341 L654 342 L660 342 L661 343 L667 343 L668 344 L683 346 L706 352 L723 360 L729 364 L745 380 L750 387 L756 399 L763 419 L765 434 L766 435 L766 443 L767 444 L767 489 L766 490 L765 516 L763 521 L756 518 L748 516 L743 516 L742 515 L736 515 L735 514 L717 513 L716 512 L701 512 L700 511 L675 511 L674 510 L626 510 L625 509 L380 509 L379 510 L362 510 L361 511 L352 511 L351 512 L339 513 L322 517 L316 520 L314 516 L312 476 L311 475 L311 438 L312 437 L312 430 L313 429 Z M293 352 L302 335 L311 323 L323 311 L341 298 L360 289 L388 281 L394 281 L401 279 L410 279 L411 278 L442 278 L443 279 L450 279 L451 280 L464 282 L470 285 L470 291 L473 297 L477 302 L485 308 L495 313 L507 317 L515 318 L516 319 L522 319 L523 320 L534 320 L535 321 L559 320 L560 319 L571 318 L587 313 L598 307 L606 300 L610 293 L611 286 L613 284 L626 281 L631 281 L632 280 L640 280 L641 279 L680 280 L681 281 L687 281 L688 282 L705 285 L725 292 L741 300 L752 307 L767 319 L776 328 L788 345 L796 365 L796 369 L797 370 L796 407 L795 408 L794 459 L793 460 L793 482 L792 483 L792 505 L791 506 L791 530 L790 531 L789 560 L788 561 L780 561 L779 560 L780 558 L780 550 L781 549 L780 536 L777 530 L772 525 L766 522 L767 519 L767 507 L768 506 L768 492 L769 491 L769 443 L768 442 L768 434 L767 433 L767 428 L764 415 L759 400 L750 383 L743 374 L736 367 L722 357 L709 351 L688 345 L668 342 L667 341 L646 339 L645 338 L636 338 L635 337 L616 336 L615 335 L604 335 L603 334 L589 334 L588 333 L568 333 L567 332 L493 332 L492 333 L457 334 L456 335 L446 335 L445 336 L420 338 L419 339 L407 340 L406 341 L396 342 L391 344 L379 346 L364 351 L352 357 L344 363 L332 375 L325 385 L318 399 L312 418 L311 428 L310 429 L310 437 L309 438 L309 475 L310 476 L310 493 L311 494 L311 506 L312 507 L312 519 L313 521 L303 530 L300 537 L299 536 L297 488 L296 487 L296 474 L295 473 L295 460 L294 459 L294 446 L293 445 L293 430 L292 429 L292 416 L291 415 L291 400 L290 399 L290 385 L289 384 L289 365 Z M585 247 L591 242 L597 240 L604 254 L613 263 L624 269 L632 271 L646 271 L654 269 L662 265 L672 256 L680 265 L684 277 L682 278 L681 277 L673 277 L672 276 L638 276 L637 277 L620 279 L611 282 L605 271 L591 258 Z M497 246 L495 248 L492 255 L477 269 L470 281 L457 277 L446 276 L445 275 L430 275 L429 274 L428 275 L409 275 L408 276 L401 276 L400 275 L404 264 L413 254 L419 260 L430 266 L438 268 L449 268 L460 265 L469 260 L478 251 L484 239 L492 242 Z M473 283 L477 274 L494 258 L502 242 L513 230 L520 225 L534 220 L547 220 L559 224 L564 227 L574 236 L580 244 L589 261 L606 278 L608 289 L605 296 L597 304 L583 311 L569 315 L557 316 L556 317 L526 317 L525 316 L519 316 L518 315 L513 315 L505 313 L486 305 L476 296 L473 289 Z M621 196 L630 193 L644 193 L648 194 L660 200 L672 213 L675 220 L676 229 L677 230 L675 244 L672 251 L667 258 L659 264 L653 267 L645 269 L633 269 L625 267 L614 261 L605 252 L602 247 L599 238 L599 223 L601 217 L606 208 L614 200 Z M439 191 L452 191 L465 196 L476 206 L481 215 L483 222 L482 238 L476 250 L469 257 L463 261 L453 265 L448 265 L447 266 L435 265 L423 260 L416 254 L412 248 L408 237 L408 222 L410 215 L415 206 L426 196 Z M268 153 L271 149 L279 145 L289 144 L290 143 L306 143 L307 142 L378 141 L379 140 L439 140 L440 139 L597 139 L598 140 L601 139 L602 140 L654 140 L655 141 L729 142 L730 143 L758 143 L759 144 L798 145 L799 146 L809 147 L821 152 L831 162 L830 163 L822 164 L818 168 L816 174 L811 207 L810 208 L808 224 L807 225 L807 230 L805 236 L803 254 L801 260 L800 271 L798 277 L797 288 L796 289 L792 317 L791 318 L789 338 L788 339 L781 329 L765 313 L746 299 L719 286 L695 279 L690 279 L687 277 L687 274 L682 262 L674 253 L678 246 L679 238 L680 237 L680 227 L677 216 L671 206 L663 198 L652 192 L645 190 L630 190 L616 195 L609 200 L602 208 L597 218 L596 226 L595 227 L595 235 L596 236 L584 243 L582 242 L580 238 L568 226 L558 220 L548 217 L533 217 L523 220 L509 229 L504 234 L501 239 L497 242 L486 235 L486 220 L485 216 L479 205 L469 195 L460 190 L452 188 L439 188 L429 191 L422 195 L415 201 L411 206 L406 216 L405 224 L404 225 L404 234 L405 235 L406 243 L410 250 L410 252 L402 261 L399 267 L397 276 L396 277 L392 277 L391 278 L370 282 L345 292 L329 302 L318 311 L307 323 L303 329 L301 325 L301 317 L300 316 L300 310 L298 303 L298 297 L297 296 L294 275 L291 264 L291 259 L290 258 L290 254 L289 253 L289 249 L288 248 L288 244 L287 243 L287 239 L286 238 L286 234 L285 233 L285 229 L279 203 L279 198 L277 193 L273 169 L268 160 Z M282 141 L271 145 L266 150 L264 158 L269 167 L273 191 L275 196 L275 200 L276 201 L276 205 L282 231 L282 236 L284 241 L285 251 L290 272 L291 283 L292 284 L296 311 L297 312 L298 327 L299 328 L298 336 L290 351 L285 367 L287 407 L288 408 L288 422 L289 423 L289 436 L290 437 L290 451 L291 452 L291 466 L292 467 L292 480 L293 481 L293 493 L294 494 L297 558 L298 561 L297 562 L266 563 L261 565 L256 572 L256 578 L258 586 L268 608 L268 610 L272 617 L275 628 L276 644 L277 645 L277 662 L278 663 L278 694 L279 695 L279 716 L280 720 L279 721 L278 720 L271 722 L266 725 L260 732 L258 740 L258 760 L259 761 L259 776 L260 777 L261 807 L262 808 L262 826 L263 827 L263 905 L262 906 L261 951 L260 952 L259 986 L258 987 L258 1000 L257 1001 L254 1053 L253 1054 L250 1100 L249 1101 L249 1111 L248 1112 L247 1132 L246 1133 L246 1142 L245 1143 L245 1154 L244 1155 L242 1186 L241 1187 L241 1198 L244 1206 L251 1212 L258 1214 L265 1214 L269 1213 L277 1208 L283 1200 L284 1197 L291 1191 L352 1191 L357 1194 L395 1232 L418 1250 L430 1256 L433 1256 L437 1258 L452 1259 L456 1261 L471 1273 L485 1280 L501 1285 L517 1287 L518 1288 L528 1288 L529 1289 L550 1289 L551 1288 L560 1288 L561 1287 L567 1287 L568 1286 L573 1286 L595 1279 L609 1272 L625 1260 L644 1258 L651 1256 L661 1251 L670 1244 L688 1226 L704 1207 L715 1196 L724 1191 L726 1192 L736 1192 L737 1191 L775 1192 L776 1191 L783 1191 L789 1196 L794 1205 L800 1211 L806 1214 L817 1215 L829 1211 L834 1206 L836 1202 L837 1190 L836 1189 L833 1144 L832 1143 L832 1134 L831 1133 L831 1124 L830 1123 L830 1114 L829 1113 L829 1104 L828 1103 L828 1094 L827 1093 L827 1084 L826 1083 L826 1074 L825 1073 L825 1063 L824 1062 L824 1053 L823 1052 L823 1043 L822 1042 L820 1007 L819 1006 L817 959 L816 958 L816 938 L815 937 L815 911 L814 910 L814 853 L815 852 L815 835 L816 834 L817 809 L818 808 L819 784 L820 783 L820 772 L821 771 L821 758 L822 757 L822 740 L821 739 L821 735 L818 729 L812 724 L803 720 L804 701 L805 700 L806 656 L807 655 L808 631 L812 614 L826 582 L827 571 L825 567 L819 563 L815 563 L814 562 L796 562 L795 561 L794 562 L793 561 L793 539 L794 538 L795 493 L796 492 L796 470 L797 469 L797 447 L798 446 L798 421 L799 420 L799 395 L800 394 L800 368 L797 357 L792 347 L792 338 L793 337 L793 328 L794 327 L795 314 L796 313 L799 291 L803 274 L804 263 L806 257 L806 252 L807 251 L812 216 L814 210 L815 199 L817 193 L819 176 L821 170 L825 166 L833 167 L835 165 L834 160 L830 155 L822 149 L807 143 L791 142 L790 141 L743 140 L742 139 L619 137 L618 136 L417 136 L416 137 L325 138 L324 139 L300 139 L299 140 Z" fill="#eef3f4" fill-rule="evenodd"/>
</svg>
