<svg xmlns="http://www.w3.org/2000/svg" width="1086" height="1448" viewBox="0 0 1086 1448">
  <title>0034</title>
  <path d="M184 1147 L182 1149 L180 1156 L172 1172 L160 1189 L148 1200 L141 1204 L132 1206 L132 1207 L138 1207 L149 1202 L162 1190 L175 1171 L182 1155 Z M873 1144 L873 1147 L880 1166 L889 1183 L898 1195 L905 1202 L915 1209 L924 1213 L935 1214 L935 1213 L924 1211 L910 1203 L898 1191 L883 1168 L876 1149 Z M584 1134 L583 1150 L582 1151 L582 1165 L583 1166 L584 1180 L590 1198 L593 1203 L596 1205 L592 1198 L586 1177 L586 1172 L585 1171 L585 1137 L586 1134 Z M485 1133 L484 1133 L484 1163 L483 1164 L482 1176 L477 1193 L472 1203 L472 1205 L480 1191 L484 1179 L484 1174 L486 1167 L486 1136 Z M591 1104 L592 1116 L593 1117 L593 1126 L594 1127 L595 1155 L596 1156 L596 1164 L599 1177 L603 1188 L607 1195 L615 1205 L617 1206 L608 1193 L601 1175 L600 1167 L599 1166 L599 1160 L598 1159 L598 1150 L597 1149 L596 1124 L595 1123 L593 1105 Z M477 1103 L476 1103 L474 1109 L472 1150 L471 1151 L471 1158 L470 1159 L468 1173 L459 1194 L450 1206 L460 1196 L466 1185 L470 1174 L473 1161 L473 1154 L474 1153 L475 1118 L476 1117 Z M323 1080 L323 1081 L327 1081 L328 1080 L334 1080 L351 1076 L363 1075 L364 1074 L372 1074 L373 1073 L403 1073 L404 1074 L413 1074 L414 1075 L423 1076 L440 1081 L453 1087 L465 1095 L475 1099 L484 1099 L509 1089 L513 1089 L519 1087 L538 1086 L539 1087 L548 1087 L549 1088 L558 1089 L572 1094 L586 1101 L596 1101 L624 1087 L650 1080 L657 1080 L658 1079 L696 1079 L697 1080 L707 1080 L708 1081 L726 1082 L727 1083 L737 1083 L743 1081 L725 1081 L724 1080 L697 1078 L696 1077 L685 1077 L684 1076 L656 1077 L655 1078 L649 1078 L648 1079 L643 1079 L631 1082 L628 1084 L618 1087 L597 1098 L590 1099 L589 1098 L585 1098 L573 1092 L559 1087 L543 1085 L542 1084 L525 1084 L524 1085 L512 1086 L496 1091 L488 1095 L473 1096 L468 1094 L456 1086 L438 1078 L424 1074 L414 1073 L413 1072 L405 1072 L404 1071 L364 1072 L363 1073 L357 1073 L356 1074 L337 1077 L332 1079 Z M882 971 L882 1068 L883 1069 L883 1089 L884 1090 L884 1101 L885 1102 L886 1118 L894 1145 L901 1160 L906 1167 L914 1175 L917 1177 L925 1179 L934 1175 L938 1170 L944 1152 L945 1126 L944 1125 L944 1118 L943 1117 L942 1107 L937 1091 L931 1079 L921 1070 L913 1071 L909 1075 L905 1086 L905 1109 L906 1110 L907 1118 L912 1130 L917 1136 L923 1137 L926 1135 L930 1125 L929 1108 L927 1104 L922 1099 L921 1100 L926 1106 L928 1113 L928 1124 L926 1131 L923 1134 L919 1134 L915 1130 L909 1116 L909 1112 L907 1106 L907 1090 L911 1077 L917 1072 L923 1074 L930 1082 L938 1101 L941 1114 L941 1120 L942 1121 L942 1136 L943 1139 L942 1140 L942 1150 L939 1162 L935 1170 L931 1174 L923 1176 L912 1170 L904 1160 L897 1146 L889 1120 L888 1107 L887 1106 L887 1095 L886 1094 L886 1078 L885 1077 L884 973 Z M183 971 L182 971 L182 975 L181 976 L180 1000 L179 1001 L179 1012 L178 1013 L178 1026 L177 1027 L177 1041 L176 1042 L176 1053 L175 1054 L175 1065 L174 1066 L174 1077 L173 1078 L173 1090 L172 1091 L172 1100 L171 1101 L169 1122 L167 1127 L166 1135 L161 1149 L153 1163 L145 1170 L140 1170 L136 1166 L134 1162 L132 1154 L132 1147 L131 1146 L131 1124 L132 1123 L134 1105 L138 1091 L143 1080 L150 1072 L154 1072 L155 1073 L159 1086 L159 1099 L157 1105 L157 1111 L152 1125 L147 1129 L144 1125 L144 1121 L143 1120 L143 1114 L144 1113 L145 1105 L149 1099 L147 1099 L142 1108 L141 1123 L143 1129 L146 1132 L149 1132 L153 1128 L156 1122 L161 1101 L161 1083 L157 1071 L154 1069 L151 1069 L142 1077 L137 1087 L132 1103 L132 1107 L130 1113 L130 1120 L129 1121 L129 1134 L128 1135 L129 1152 L130 1153 L131 1161 L134 1168 L138 1172 L144 1173 L150 1170 L158 1160 L167 1140 L167 1137 L170 1129 L172 1114 L173 1113 L173 1107 L174 1106 L174 1096 L175 1095 L175 1086 L176 1085 L178 1045 L179 1044 L179 1032 L180 1031 L180 1016 L181 1015 L181 1003 L182 1002 Z M694 957 L695 956 L696 957 L695 958 Z M689 956 L690 955 L692 956 L691 957 Z M686 955 L687 954 L689 955 L688 956 Z M683 954 L684 953 L686 954 L685 955 Z M680 953 L681 952 L684 953 L683 954 Z M369 953 L370 952 L373 953 L372 954 Z M372 952 L373 951 L377 952 L376 953 Z M351 943 L353 947 L353 945 Z M335 963 L336 962 L337 951 L339 948 L350 956 L356 958 L369 958 L370 957 L378 956 L385 953 L388 953 L404 947 L421 944 L422 943 L427 943 L428 942 L435 942 L436 941 L464 941 L465 942 L473 942 L474 943 L487 944 L488 945 L492 945 L518 951 L523 951 L524 952 L543 952 L544 951 L556 950 L557 949 L577 946 L578 945 L583 945 L584 944 L590 944 L591 943 L617 942 L618 943 L628 943 L629 944 L635 944 L636 945 L650 947 L687 960 L691 960 L696 962 L710 962 L719 958 L729 949 L732 956 L732 977 L731 978 L731 984 L727 999 L721 1006 L718 1007 L705 1006 L697 1004 L689 1004 L688 1003 L681 1003 L680 1002 L659 1001 L658 1000 L628 999 L627 998 L607 998 L606 997 L573 997 L572 996 L439 997 L438 998 L418 998 L417 999 L388 1000 L387 1001 L378 1001 L377 1002 L347 1005 L341 1001 L337 991 L336 977 L335 976 Z M376 951 L397 942 L414 937 L429 935 L430 934 L455 933 L456 934 L467 934 L468 935 L480 936 L507 943 L511 943 L517 945 L524 945 L525 946 L543 946 L544 945 L550 945 L551 944 L555 944 L556 943 L560 943 L586 937 L601 936 L602 935 L627 935 L628 936 L634 936 L635 937 L640 937 L652 940 L669 946 L681 952 L678 953 L672 950 L669 950 L656 945 L644 942 L639 942 L632 940 L624 940 L623 939 L596 939 L595 940 L588 940 L587 941 L569 943 L568 944 L558 945 L546 948 L529 949 L528 948 L516 947 L515 946 L511 946 L485 940 L470 939 L469 938 L456 938 L455 937 L424 939 L423 940 L402 944 L379 952 Z M319 949 L320 951 L323 945 L326 942 L332 942 L335 944 L331 960 L331 980 L332 981 L332 987 L335 998 L337 1002 L343 1008 L342 1010 L358 1008 L359 1007 L365 1007 L366 1006 L373 1006 L374 1005 L394 1004 L395 1003 L408 1003 L409 1002 L455 1001 L456 1000 L527 1000 L528 999 L532 1000 L534 999 L535 1000 L588 1000 L589 1001 L615 1001 L616 1002 L650 1003 L651 1004 L663 1004 L664 1005 L674 1005 L675 1006 L700 1008 L701 1009 L714 1010 L720 1012 L727 1012 L723 1009 L729 1004 L732 998 L735 987 L735 981 L736 980 L736 957 L735 956 L735 951 L733 947 L738 943 L743 943 L746 946 L748 951 L749 951 L748 943 L742 937 L738 937 L733 939 L722 949 L714 953 L698 954 L690 952 L668 942 L650 936 L636 934 L635 933 L628 933 L627 932 L600 932 L599 933 L591 933 L590 934 L579 935 L578 936 L574 936 L548 942 L524 943 L523 942 L518 942 L508 939 L504 939 L500 937 L491 936 L486 934 L470 932 L469 931 L461 931 L460 930 L435 930 L434 931 L427 931 L426 932 L416 933 L393 940 L390 942 L364 951 L352 950 L343 945 L335 937 L331 935 L327 935 L321 941 Z M532 917 L531 918 L531 929 L533 937 L534 936 L534 923 L535 919 Z M315 915 L309 918 L304 923 L297 936 L293 952 L292 981 L293 982 L293 989 L294 990 L295 998 L298 1007 L303 1016 L313 1023 L325 1023 L330 1021 L329 1020 L321 1022 L314 1021 L310 1019 L303 1012 L298 1001 L296 987 L295 986 L295 976 L294 975 L295 955 L300 935 L307 923 L312 919 L316 917 L322 917 L326 920 L328 920 L328 919 L321 915 Z M717 912 L716 913 L717 914 L718 928 L714 942 L710 949 L710 951 L714 946 L718 938 L719 930 L720 929 L719 915 Z M350 910 L348 912 L346 920 L346 932 L349 941 L350 941 L350 938 L348 932 L348 920 L349 919 Z M543 908 L536 911 L530 911 L529 910 L525 910 L525 911 L534 914 L541 911 Z M733 878 L732 880 L733 881 L735 900 L736 901 L736 913 L733 926 L734 927 L737 923 L739 923 L745 919 L756 920 L765 929 L770 941 L771 950 L772 951 L772 961 L773 962 L772 990 L771 991 L770 1000 L764 1014 L757 1021 L752 1023 L743 1023 L736 1021 L736 1022 L744 1025 L753 1025 L761 1021 L766 1015 L773 997 L774 984 L775 983 L774 950 L769 932 L765 925 L760 920 L754 917 L746 917 L737 923 L736 922 L737 914 L738 913 L738 897 L737 896 L737 890 L735 882 Z M335 877 L333 878 L331 886 L331 891 L330 892 L330 897 L329 898 L329 912 L332 924 L333 924 L333 920 L332 919 L331 904 L332 903 L332 894 L335 882 Z M525 870 L525 875 L526 876 L526 895 L525 896 L525 901 L526 902 L528 897 L528 876 L526 870 Z M542 869 L539 878 L539 892 L541 900 L543 900 L542 898 L542 886 L541 885 Z M512 847 L514 849 L523 850 L524 851 L540 851 L543 850 L543 849 L523 849 L522 848 Z M941 835 L941 870 L942 871 L943 892 L944 893 L948 914 L951 922 L953 923 L949 910 L949 906 L946 895 L946 889 L945 888 L944 869 L943 868 L943 846 L942 845 L942 835 Z M130 828 L129 829 L128 855 L127 856 L127 866 L126 867 L124 889 L123 890 L119 912 L115 923 L118 920 L119 915 L121 912 L127 886 L128 870 L129 869 L129 853 L130 852 Z M354 898 L354 900 L361 891 L374 879 L392 869 L408 865 L428 865 L429 866 L434 866 L435 867 L440 867 L448 869 L468 876 L488 886 L508 899 L515 905 L517 905 L500 891 L472 875 L442 865 L412 861 L398 847 L394 837 L393 827 L392 826 L393 813 L398 796 L407 781 L418 770 L427 764 L438 759 L441 760 L438 763 L432 775 L426 799 L426 815 L427 816 L428 825 L432 835 L440 844 L447 848 L455 850 L474 850 L480 848 L486 848 L495 855 L512 863 L520 865 L525 865 L526 866 L543 866 L559 861 L569 856 L579 849 L584 849 L589 851 L597 851 L598 852 L600 851 L611 851 L623 846 L631 838 L635 830 L638 819 L639 805 L638 804 L638 796 L637 795 L636 785 L631 771 L625 761 L628 760 L638 765 L648 772 L661 786 L669 801 L673 817 L673 832 L672 833 L671 841 L667 850 L659 859 L651 865 L637 865 L636 866 L630 866 L629 867 L615 869 L593 877 L573 888 L550 905 L552 905 L577 888 L599 877 L617 871 L621 871 L632 868 L641 868 L642 867 L659 868 L677 873 L692 881 L700 887 L708 895 L713 903 L714 903 L714 901 L711 896 L698 883 L688 876 L676 870 L662 866 L657 866 L654 864 L660 860 L668 852 L674 840 L675 830 L676 829 L676 819 L671 799 L663 784 L650 770 L642 764 L622 755 L619 752 L613 743 L607 729 L606 729 L606 732 L629 775 L634 793 L634 799 L635 800 L634 820 L632 828 L629 834 L623 841 L617 845 L606 848 L593 848 L583 845 L593 836 L604 830 L611 830 L614 833 L613 837 L609 841 L606 842 L605 844 L611 842 L616 837 L617 833 L616 830 L612 826 L607 825 L594 830 L576 845 L567 851 L558 855 L543 859 L523 859 L508 855 L492 846 L477 833 L468 827 L462 825 L455 825 L449 830 L449 836 L454 841 L460 843 L460 842 L457 841 L452 836 L452 833 L454 830 L460 829 L473 836 L482 844 L470 847 L459 847 L458 846 L453 846 L444 842 L437 835 L432 825 L431 817 L430 816 L430 797 L431 796 L432 786 L436 774 L442 763 L455 744 L462 729 L462 727 L459 730 L457 736 L450 748 L443 755 L431 759 L415 769 L404 781 L398 790 L394 799 L390 816 L391 835 L394 844 L397 849 L411 862 L410 863 L404 863 L396 865 L382 871 L368 881 L362 887 Z M627 715 L631 714 L640 717 L662 717 L671 714 L675 715 L669 718 L659 719 L658 720 L638 719 Z M625 714 L626 713 L628 714 L627 715 Z M674 714 L677 712 L680 713 L677 715 Z M679 712 L680 711 L682 712 L681 713 Z M682 711 L683 710 L684 711 L683 712 Z M382 711 L383 710 L385 711 L384 712 Z M684 710 L685 709 L686 710 L685 711 Z M380 710 L381 709 L383 710 L382 711 Z M685 709 L686 708 L688 709 L687 710 Z M378 709 L379 708 L381 709 L380 710 Z M687 708 L688 707 L689 708 L688 709 Z M376 708 L377 707 L379 708 L378 709 Z M689 707 L690 706 L691 707 L690 708 Z M375 707 L376 706 L377 707 L376 708 Z M678 706 L679 705 L680 706 L679 707 Z M374 706 L375 705 L376 706 L375 707 Z M692 705 L693 704 L694 705 L693 706 Z M681 705 L682 704 L683 705 L682 706 Z M372 705 L373 704 L374 705 L373 706 Z M683 704 L684 703 L685 704 L684 705 Z M381 704 L382 703 L383 704 L382 705 Z M371 704 L372 703 L373 704 L372 705 Z M685 703 L686 702 L687 703 L686 704 Z M379 703 L380 702 L382 703 L381 704 Z M369 703 L370 702 L371 703 L370 704 Z M687 702 L688 701 L689 702 L688 703 Z M368 702 L369 701 L370 702 L369 703 Z M689 701 L690 700 L691 701 L690 702 Z M376 701 L378 700 L380 702 L378 703 Z M367 701 L368 700 L369 701 L368 702 Z M691 700 L692 699 L693 700 L692 701 Z M692 699 L693 698 L694 699 L693 700 Z M373 699 L375 698 L377 700 L375 701 Z M693 698 L694 697 L695 698 L694 699 Z M695 697 L696 696 L697 697 L696 698 Z M514 700 L501 707 L488 719 L481 729 L475 742 L471 756 L470 768 L469 769 L469 787 L470 788 L470 797 L473 810 L483 829 L496 841 L505 846 L510 847 L496 839 L484 827 L476 812 L473 800 L473 795 L472 794 L472 764 L473 763 L473 758 L478 741 L488 723 L496 714 L505 707 L513 703 L529 699 L538 699 L539 700 L549 701 L566 710 L580 725 L589 743 L589 746 L592 754 L593 766 L594 767 L594 794 L593 795 L593 800 L590 812 L586 821 L580 830 L573 837 L562 845 L564 845 L573 839 L586 825 L589 820 L595 803 L596 790 L597 789 L597 768 L596 767 L594 751 L590 739 L580 721 L575 715 L561 704 L553 700 L540 697 L527 697 Z M370 697 L372 696 L374 698 L372 699 Z M696 696 L697 695 L698 696 L697 697 Z M365 693 L367 692 L371 696 L369 697 Z M364 692 L365 691 L366 692 L365 693 Z M453 690 L441 699 L427 706 L430 706 L442 700 L449 695 Z M494 671 L502 679 L509 682 L504 685 L499 690 L512 683 L527 679 L540 679 L541 680 L550 681 L560 685 L568 690 L560 682 L570 675 L559 681 L555 681 L549 678 L536 677 L535 676 L523 677 L512 681 L509 681 L502 678 Z M584 649 L585 650 L586 667 L593 685 L597 691 L609 703 L616 708 L626 713 L625 714 L623 714 L611 708 L601 701 L594 694 L586 683 L581 672 L578 661 L578 656 L580 655 Z M490 657 L485 673 L477 687 L465 700 L452 709 L436 716 L429 718 L423 718 L422 719 L399 718 L395 716 L389 715 L384 712 L387 711 L402 716 L425 716 L437 713 L448 708 L456 703 L469 690 L474 682 L480 667 L481 658 L482 657 L482 648 L483 647 Z M819 642 L820 641 L821 642 L820 643 Z M621 609 L622 608 L623 609 L622 610 Z M622 608 L623 607 L624 608 L623 609 Z M441 605 L442 604 L443 605 L442 606 Z M440 604 L441 603 L442 604 L441 605 Z M721 598 L734 600 L735 601 L753 602 L754 603 L753 609 L747 622 L742 628 L732 644 L731 643 L731 623 L729 618 L729 614 L725 605 L720 599 Z M344 595 L345 596 L340 604 L336 616 L336 620 L335 621 L335 640 L334 641 L318 616 L314 601 L315 600 Z M715 597 L722 607 L726 618 L726 622 L727 623 L727 646 L726 647 L725 656 L719 672 L712 683 L699 696 L697 695 L707 684 L714 671 L711 673 L704 685 L691 697 L682 703 L678 704 L666 711 L662 711 L661 712 L646 713 L645 712 L639 712 L631 710 L615 702 L601 689 L595 680 L591 671 L588 658 L588 643 L604 623 L620 609 L622 610 L617 616 L610 632 L609 641 L608 642 L608 655 L611 668 L616 678 L622 686 L636 696 L648 700 L665 700 L666 699 L670 699 L682 694 L689 689 L700 677 L706 665 L709 654 L709 636 L706 625 L702 617 L697 610 L686 600 L683 599 L684 601 L695 610 L699 615 L704 625 L707 636 L707 653 L704 664 L697 677 L689 686 L677 694 L664 698 L651 698 L637 694 L629 689 L621 681 L616 674 L612 663 L611 651 L610 650 L612 633 L617 620 L624 610 L630 604 L640 598 L658 593 L668 593 L674 596 L680 597 L675 594 L673 594 L672 593 L673 592 L692 592 L693 593 L698 593 Z M353 592 L373 589 L374 588 L398 588 L423 594 L431 598 L444 611 L448 617 L454 631 L455 639 L456 640 L455 658 L452 668 L448 676 L442 684 L430 693 L419 697 L405 698 L392 695 L382 690 L370 679 L363 668 L359 656 L358 638 L362 623 L366 615 L372 607 L380 600 L389 595 L397 593 L397 592 L388 594 L375 602 L368 609 L360 622 L356 636 L356 654 L359 665 L364 675 L378 690 L393 698 L401 699 L402 700 L416 700 L424 698 L434 693 L441 688 L449 679 L457 660 L457 656 L458 655 L458 639 L454 624 L448 613 L442 606 L443 605 L457 615 L471 630 L478 640 L478 659 L477 660 L477 664 L474 673 L466 687 L455 698 L448 703 L437 708 L421 712 L405 712 L393 709 L390 706 L371 694 L363 686 L354 674 L355 678 L365 691 L363 692 L356 685 L347 672 L342 660 L340 652 L340 647 L339 646 L339 620 L340 619 L341 611 L345 602 Z M820 563 L821 564 L820 641 L819 642 L816 637 L809 630 L799 625 L800 627 L803 628 L812 636 L821 652 L825 668 L826 682 L827 683 L827 693 L828 694 L828 736 L827 737 L825 768 L824 769 L824 775 L823 776 L823 782 L822 783 L822 789 L821 790 L821 796 L819 804 L819 812 L817 820 L816 842 L815 843 L815 861 L814 862 L814 925 L815 926 L816 988 L817 989 L818 1066 L817 1067 L817 1076 L801 1099 L794 1114 L793 1119 L789 1127 L782 1147 L775 1160 L767 1168 L760 1172 L758 1172 L749 1180 L741 1196 L733 1204 L725 1207 L705 1207 L704 1208 L690 1209 L679 1213 L665 1220 L651 1224 L631 1224 L616 1220 L601 1213 L590 1213 L582 1215 L567 1222 L552 1227 L541 1228 L540 1229 L525 1229 L524 1228 L513 1227 L500 1223 L475 1212 L467 1212 L459 1214 L454 1217 L439 1222 L419 1223 L418 1222 L412 1222 L408 1220 L405 1220 L384 1210 L372 1206 L368 1206 L367 1205 L339 1205 L338 1204 L334 1204 L328 1201 L321 1194 L311 1176 L295 1166 L288 1158 L277 1134 L265 1098 L256 1082 L250 1074 L247 1064 L248 990 L249 989 L252 901 L253 900 L253 876 L254 875 L254 817 L253 816 L253 806 L252 805 L249 765 L248 764 L248 750 L247 749 L247 702 L248 701 L248 691 L249 690 L250 676 L256 653 L261 643 L266 636 L273 630 L281 627 L281 625 L268 631 L261 638 L257 645 L256 644 L257 571 L258 570 L264 580 L276 591 L289 597 L302 600 L311 600 L312 601 L311 604 L314 615 L336 650 L339 662 L342 670 L344 672 L344 674 L352 687 L357 692 L360 698 L368 706 L381 715 L396 721 L409 722 L410 723 L419 722 L420 723 L396 736 L388 742 L373 757 L363 771 L356 785 L354 793 L352 796 L348 813 L348 818 L347 819 L345 850 L343 857 L338 866 L335 869 L318 868 L306 874 L295 885 L289 894 L282 909 L276 928 L274 943 L273 944 L272 970 L271 971 L272 994 L273 995 L273 1001 L274 1002 L274 1007 L281 1029 L287 1039 L295 1047 L302 1051 L309 1053 L325 1053 L326 1052 L337 1051 L353 1047 L372 1045 L373 1044 L381 1044 L382 1043 L390 1043 L391 1042 L402 1042 L403 1041 L417 1041 L418 1040 L464 1039 L465 1038 L575 1038 L576 1039 L629 1040 L630 1041 L644 1041 L645 1042 L667 1043 L668 1044 L684 1045 L685 1046 L710 1049 L740 1056 L756 1056 L767 1052 L779 1041 L785 1031 L791 1013 L791 1009 L793 1003 L793 995 L794 994 L794 949 L793 948 L792 933 L787 913 L783 903 L776 891 L769 882 L762 876 L753 871 L749 870 L739 870 L734 872 L729 867 L726 862 L723 853 L722 841 L721 840 L720 820 L719 819 L719 814 L716 802 L711 788 L705 776 L695 761 L681 746 L666 735 L664 735 L645 724 L646 723 L661 723 L662 722 L670 721 L685 715 L695 708 L708 695 L720 678 L726 665 L726 662 L730 652 L748 627 L754 616 L757 608 L757 603 L758 602 L768 602 L769 601 L774 601 L782 599 L797 592 L810 580 L815 573 Z M498 576 L507 569 L510 569 L514 565 L522 561 L530 559 L539 559 L549 563 L556 569 L565 573 L569 576 L570 575 L551 562 L543 558 L529 557 L513 563 L507 567 Z M174 552 L187 575 L192 590 L193 606 L194 607 L192 650 L194 644 L195 627 L196 626 L196 597 L195 596 L195 591 L191 578 L187 570 L177 554 Z M468 484 L474 497 L477 508 L477 512 L479 518 L479 525 L480 526 L481 554 L482 554 L483 540 L482 539 L481 517 L476 498 L470 485 Z M602 483 L600 484 L596 491 L589 512 L589 516 L587 522 L587 529 L586 530 L586 544 L585 545 L585 557 L587 558 L587 540 L588 539 L588 531 L589 530 L589 523 L590 522 L591 513 L596 496 Z M117 402 L124 425 L124 429 L127 438 L127 442 L129 447 L130 456 L135 475 L138 494 L144 518 L152 541 L175 582 L179 596 L179 602 L180 603 L180 639 L179 640 L179 655 L178 656 L179 658 L180 656 L180 649 L181 648 L182 622 L183 621 L183 607 L182 606 L181 592 L178 582 L173 572 L162 556 L152 535 L143 505 L143 501 L140 492 L135 464 L133 459 L133 455 L130 446 L130 442 L123 414 L120 407 L120 404 L119 402 Z M977 395 L973 402 L966 423 L965 430 L963 434 L957 458 L950 495 L938 535 L930 553 L926 560 L911 580 L904 596 L902 604 L902 609 L901 610 L901 620 L900 621 L900 628 L901 629 L901 654 L902 655 L902 667 L903 668 L903 615 L904 614 L904 608 L907 595 L915 578 L924 567 L931 556 L942 531 L952 497 L952 493 L955 484 L958 465 L960 460 L960 456 L962 451 L962 447 L967 427 Z M290 332 L294 346 L306 370 L323 393 L341 410 L351 417 L371 428 L373 428 L383 433 L391 435 L394 437 L419 445 L434 452 L452 464 L461 473 L460 470 L450 460 L435 450 L415 441 L377 428 L357 418 L339 405 L321 387 L314 378 L305 364 L296 346 L292 333 Z M790 331 L785 346 L771 373 L762 385 L744 403 L725 416 L704 426 L652 443 L631 453 L616 464 L608 473 L621 462 L630 456 L646 448 L708 427 L721 421 L743 407 L761 390 L773 374 L784 353 L790 336 Z M793 318 L797 322 L803 336 L804 347 L805 348 L806 377 L807 378 L807 430 L806 431 L806 450 L805 451 L804 475 L803 476 L801 495 L798 505 L794 513 L788 521 L777 530 L768 534 L760 535 L759 536 L754 536 L753 537 L703 537 L702 538 L693 538 L692 539 L679 540 L653 546 L625 556 L607 565 L590 576 L582 583 L580 583 L576 575 L573 563 L573 558 L572 557 L572 549 L571 548 L571 513 L572 512 L572 503 L573 502 L574 491 L579 474 L584 463 L593 450 L603 440 L621 428 L644 418 L676 408 L696 400 L723 385 L741 371 L755 357 L783 319 L787 317 Z M288 318 L290 317 L296 318 L302 324 L323 353 L346 376 L362 388 L390 403 L415 413 L423 415 L448 426 L464 436 L480 452 L488 466 L492 477 L495 490 L495 495 L496 496 L496 504 L497 505 L497 546 L496 547 L496 555 L495 556 L495 561 L492 574 L488 582 L477 574 L457 562 L421 546 L399 539 L378 535 L377 534 L355 532 L354 531 L324 530 L323 529 L313 528 L299 522 L289 513 L281 499 L276 481 L274 459 L273 458 L273 447 L272 446 L272 429 L271 428 L271 374 L272 373 L273 356 L279 332 L283 323 Z M794 315 L792 314 L785 314 L780 317 L767 336 L750 357 L732 374 L715 386 L687 400 L630 420 L606 433 L589 449 L582 459 L577 469 L570 492 L568 516 L567 517 L567 547 L568 548 L567 551 L561 545 L554 541 L559 538 L561 535 L554 539 L538 543 L525 542 L509 536 L506 536 L508 538 L510 538 L517 542 L534 546 L535 545 L542 545 L552 542 L563 548 L568 553 L570 561 L570 566 L574 580 L580 587 L573 599 L573 602 L570 610 L570 629 L574 639 L575 638 L572 629 L572 614 L577 597 L583 587 L586 584 L589 583 L592 580 L608 570 L641 555 L644 555 L651 552 L675 546 L694 544 L695 543 L708 543 L709 542 L755 542 L756 541 L761 541 L769 539 L784 531 L793 522 L800 510 L805 493 L805 488 L807 481 L807 473 L808 472 L808 463 L809 462 L809 448 L810 447 L810 377 L809 376 L808 357 L807 356 L807 351 L806 350 L806 345 L805 344 L805 339 L803 334 L802 326 L800 321 Z M285 316 L279 325 L272 352 L270 376 L269 377 L269 390 L268 391 L268 410 L267 411 L268 442 L269 443 L269 455 L270 456 L271 473 L272 474 L272 479 L273 480 L275 493 L283 512 L295 525 L308 532 L316 534 L323 534 L324 535 L362 537 L363 538 L369 538 L381 541 L386 541 L420 551 L440 559 L458 568 L484 584 L490 592 L494 600 L497 613 L497 626 L493 638 L495 638 L499 626 L499 610 L496 598 L493 592 L488 586 L492 583 L494 579 L499 560 L500 545 L501 544 L501 508 L500 507 L500 498 L499 497 L497 481 L492 466 L485 453 L472 438 L452 424 L422 411 L394 401 L374 391 L361 383 L348 373 L326 351 L304 321 L296 314 L289 314 Z M527 293 L533 293 L534 292 L550 293 L560 296 L568 300 L584 315 L592 331 L593 339 L594 340 L594 357 L590 371 L585 380 L576 390 L566 397 L557 401 L549 402 L548 403 L528 403 L517 400 L509 396 L495 384 L488 374 L484 364 L483 353 L482 352 L482 344 L483 343 L484 333 L490 319 L494 313 L503 304 L517 296 Z M532 289 L531 290 L522 291 L511 295 L503 300 L493 309 L488 316 L481 332 L480 341 L479 342 L479 356 L480 357 L481 366 L487 379 L492 386 L504 397 L515 403 L524 406 L528 406 L529 407 L548 407 L562 403 L570 399 L584 387 L593 373 L597 360 L598 345 L597 344 L597 338 L595 330 L589 317 L585 311 L576 302 L569 297 L555 291 L546 290 L545 289 Z M466 344 L466 348 L467 349 L468 347 L468 337 L471 326 L475 317 L482 306 L494 294 L501 289 L519 281 L529 280 L530 279 L548 279 L564 283 L574 288 L589 300 L597 310 L602 319 L607 334 L608 347 L609 349 L610 348 L609 335 L605 321 L599 309 L594 302 L580 289 L565 281 L556 278 L542 277 L541 276 L526 277 L509 282 L498 288 L490 294 L480 305 L472 319 L468 331 L467 343 Z M618 207 L619 206 L621 207 L620 208 Z M170 152 L178 155 L200 178 L236 229 L260 269 L273 288 L264 300 L257 314 L251 334 L250 344 L249 345 L249 353 L248 354 L248 409 L249 410 L250 467 L251 468 L251 532 L252 533 L251 537 L252 538 L253 555 L255 561 L255 580 L254 581 L253 653 L250 660 L247 677 L246 678 L245 694 L244 695 L244 710 L243 711 L244 758 L245 759 L246 782 L247 783 L247 792 L248 793 L248 801 L249 802 L250 839 L251 840 L251 845 L250 846 L249 907 L248 908 L248 929 L247 930 L247 951 L246 952 L246 976 L245 977 L245 998 L244 999 L244 1031 L243 1032 L243 1055 L244 1056 L244 1067 L245 1068 L244 1091 L243 1092 L243 1110 L242 1111 L241 1126 L236 1136 L229 1143 L215 1152 L206 1153 L205 1154 L200 1152 L195 1147 L191 1138 L190 1125 L191 1124 L191 1114 L192 1113 L192 1104 L193 1103 L193 1092 L194 1091 L194 1080 L195 1079 L197 1044 L198 1043 L198 1032 L199 1031 L201 996 L202 995 L202 983 L203 982 L205 940 L206 939 L209 874 L210 873 L210 854 L211 853 L211 836 L212 835 L213 802 L214 801 L214 782 L215 781 L215 762 L216 761 L216 742 L217 741 L217 722 L218 721 L221 646 L222 645 L223 606 L224 605 L225 552 L226 551 L226 489 L225 488 L224 427 L223 426 L222 389 L221 388 L221 374 L220 373 L220 359 L219 358 L218 337 L217 336 L216 321 L215 320 L215 314 L214 313 L210 284 L206 269 L206 265 L204 261 L204 257 L193 222 L181 197 L174 187 L166 179 L161 176 L158 176 L164 179 L173 189 L187 214 L199 248 L204 268 L209 297 L210 298 L210 304 L211 305 L213 324 L214 325 L214 332 L215 333 L215 341 L216 342 L218 380 L219 381 L219 396 L220 397 L222 467 L223 468 L223 563 L222 564 L221 615 L220 616 L220 635 L219 636 L218 672 L217 673 L217 689 L216 690 L216 710 L215 711 L215 731 L214 732 L214 749 L213 750 L213 771 L212 772 L212 789 L211 790 L211 806 L210 807 L209 844 L208 845 L207 879 L206 880 L205 912 L204 913 L204 931 L203 932 L201 974 L200 975 L200 988 L199 989 L197 1025 L196 1026 L196 1035 L195 1036 L193 1074 L192 1075 L191 1096 L190 1097 L189 1118 L188 1119 L188 1136 L190 1143 L193 1149 L198 1154 L204 1157 L186 1186 L169 1204 L160 1210 L153 1213 L139 1215 L131 1213 L126 1210 L120 1203 L118 1197 L118 1192 L117 1191 L117 1154 L118 1153 L119 1134 L120 1133 L120 1127 L121 1126 L121 1120 L124 1108 L124 1103 L130 1078 L140 1048 L142 1045 L146 1030 L151 1018 L163 970 L164 950 L161 942 L156 937 L169 930 L178 919 L184 905 L188 888 L189 874 L190 873 L190 863 L191 862 L192 831 L193 830 L194 794 L195 793 L198 721 L199 720 L199 703 L200 702 L200 684 L201 683 L203 634 L204 633 L204 615 L205 614 L206 566 L207 565 L207 482 L206 481 L206 458 L205 457 L205 438 L204 437 L202 387 L201 386 L201 373 L200 372 L197 332 L196 331 L195 317 L194 316 L194 310 L193 309 L190 286 L188 281 L183 254 L181 250 L180 243 L173 221 L169 211 L167 209 L172 223 L173 230 L176 237 L178 248 L182 260 L182 264 L184 269 L187 289 L189 295 L191 313 L192 314 L194 337 L195 338 L195 345 L196 346 L196 355 L197 356 L197 367 L198 368 L200 411 L201 412 L201 428 L202 429 L202 446 L203 447 L204 505 L205 506 L204 578 L203 579 L201 641 L200 642 L199 676 L198 677 L197 711 L196 712 L194 770 L193 771 L193 788 L192 789 L192 804 L191 805 L191 821 L190 822 L190 840 L189 841 L188 868 L187 869 L187 877 L186 878 L185 890 L181 906 L175 919 L162 932 L154 935 L144 936 L127 940 L116 940 L112 938 L110 936 L107 929 L107 916 L108 915 L108 909 L109 908 L109 903 L110 902 L110 897 L113 884 L113 878 L114 877 L114 869 L115 868 L116 851 L117 850 L117 840 L118 839 L118 828 L119 827 L120 796 L121 795 L121 774 L122 773 L122 748 L123 747 L123 722 L124 721 L123 691 L122 690 L122 684 L121 683 L121 677 L120 676 L120 670 L119 669 L116 646 L115 645 L113 629 L112 628 L110 607 L109 606 L109 597 L108 596 L108 535 L109 534 L109 503 L110 502 L110 475 L111 474 L112 475 L113 487 L114 488 L115 509 L116 510 L118 605 L119 606 L119 614 L120 615 L120 621 L123 633 L125 650 L127 656 L129 681 L130 682 L130 689 L131 690 L131 676 L130 675 L129 654 L128 653 L128 646 L127 645 L127 639 L126 638 L126 632 L125 631 L125 625 L123 617 L122 596 L121 595 L121 546 L120 545 L120 516 L119 515 L118 492 L117 491 L115 471 L113 465 L110 441 L107 428 L107 422 L106 421 L105 396 L109 384 L112 381 L119 380 L123 381 L131 386 L154 407 L165 415 L174 416 L177 414 L178 415 L178 461 L179 461 L181 401 L180 400 L180 379 L179 378 L179 364 L178 363 L178 349 L177 348 L176 327 L175 326 L175 319 L174 318 L174 312 L173 311 L173 305 L172 304 L172 298 L171 297 L170 286 L168 280 L168 275 L167 274 L161 240 L148 190 L147 178 L146 177 L147 170 L150 163 L157 156 L163 153 Z M936 148 L946 159 L948 165 L948 184 L942 208 L942 212 L934 241 L934 245 L928 266 L928 270 L926 275 L926 279 L924 284 L924 288 L919 309 L916 331 L915 332 L915 338 L914 339 L914 345 L913 346 L913 352 L911 360 L911 367 L910 368 L909 387 L908 388 L907 422 L906 423 L906 437 L905 438 L905 451 L904 452 L902 491 L901 492 L901 507 L900 510 L901 509 L902 497 L903 496 L904 472 L905 471 L905 462 L906 461 L906 452 L907 451 L910 409 L911 408 L916 412 L923 412 L927 410 L966 380 L975 376 L981 376 L985 378 L989 385 L989 399 L988 400 L988 405 L982 430 L978 463 L977 464 L976 489 L975 490 L975 511 L974 512 L974 533 L973 534 L973 546 L972 547 L972 556 L971 557 L969 578 L968 579 L968 583 L962 609 L952 640 L947 660 L945 675 L944 676 L942 701 L943 701 L944 697 L945 682 L946 681 L946 676 L947 675 L951 654 L964 615 L972 582 L974 563 L975 562 L975 554 L976 553 L976 543 L977 542 L978 514 L979 513 L980 515 L985 515 L991 513 L994 514 L998 518 L998 524 L999 525 L998 553 L997 554 L997 564 L996 565 L994 584 L990 600 L988 604 L988 607 L979 634 L977 637 L964 676 L962 679 L962 682 L957 697 L956 707 L955 708 L955 715 L954 716 L953 751 L952 752 L952 815 L953 816 L953 835 L954 836 L955 863 L956 864 L958 890 L959 891 L959 898 L960 899 L961 913 L962 914 L962 926 L959 935 L952 941 L947 941 L946 942 L944 941 L937 941 L911 935 L900 927 L893 916 L887 893 L886 876 L885 875 L884 838 L883 837 L883 809 L882 808 L882 778 L881 777 L880 694 L879 693 L878 611 L877 610 L877 567 L876 566 L876 499 L877 498 L877 469 L878 468 L879 439 L880 438 L880 428 L881 427 L883 401 L885 393 L885 386 L886 385 L889 358 L890 357 L892 340 L893 339 L899 305 L904 288 L904 284 L908 268 L915 247 L915 244 L929 206 L928 206 L921 222 L909 256 L895 312 L895 316 L890 337 L890 342 L888 348 L886 366 L885 367 L885 374 L884 375 L883 389 L882 390 L881 404 L880 405 L880 413 L879 414 L879 421 L878 422 L877 442 L876 443 L876 457 L875 458 L875 483 L874 484 L874 589 L875 590 L875 631 L876 632 L876 664 L877 665 L877 704 L878 705 L878 755 L879 756 L880 820 L881 821 L881 846 L882 847 L882 868 L883 869 L884 891 L885 892 L887 906 L892 920 L895 925 L904 934 L912 939 L908 942 L904 951 L904 970 L905 971 L907 988 L915 1015 L922 1030 L922 1032 L938 1064 L948 1094 L950 1109 L952 1115 L953 1129 L954 1130 L955 1154 L956 1155 L955 1193 L954 1194 L953 1202 L950 1209 L941 1218 L930 1222 L912 1221 L898 1215 L887 1207 L877 1197 L870 1188 L861 1174 L850 1150 L857 1147 L862 1142 L866 1135 L868 1128 L867 1103 L866 1102 L866 1071 L865 1070 L864 829 L863 828 L863 776 L862 775 L860 644 L859 643 L859 595 L858 594 L858 474 L859 473 L859 453 L860 452 L861 421 L862 420 L863 399 L864 398 L867 366 L869 359 L869 353 L870 352 L870 346 L871 345 L874 322 L875 321 L878 302 L880 297 L880 293 L886 269 L888 265 L889 258 L900 226 L912 199 L922 183 L936 169 L930 172 L921 181 L911 196 L903 212 L888 253 L888 256 L880 282 L880 286 L878 291 L878 295 L876 300 L876 304 L870 330 L867 354 L866 355 L866 361 L865 362 L864 376 L863 377 L860 414 L859 415 L857 466 L856 467 L856 498 L855 499 L855 558 L856 559 L856 608 L857 609 L858 703 L859 704 L860 796 L861 797 L861 863 L862 864 L862 1048 L863 1049 L863 1092 L864 1093 L864 1111 L865 1112 L865 1130 L861 1139 L856 1144 L850 1147 L840 1145 L834 1142 L828 1137 L824 1131 L822 1123 L822 1087 L821 1086 L822 1049 L821 1048 L821 996 L820 995 L819 930 L818 929 L818 860 L819 859 L819 840 L820 839 L821 819 L822 818 L822 811 L823 810 L826 782 L827 781 L827 774 L829 766 L830 747 L831 746 L831 732 L832 731 L832 696 L831 695 L831 684 L830 683 L829 670 L826 657 L824 653 L824 621 L823 620 L824 619 L824 547 L826 539 L826 493 L827 492 L827 458 L828 457 L828 430 L829 429 L830 389 L829 389 L829 394 L828 395 L827 433 L826 434 L823 539 L818 559 L812 571 L798 586 L781 595 L773 597 L766 597 L765 598 L742 597 L741 596 L735 596 L734 595 L729 595 L713 591 L708 591 L702 589 L694 589 L693 588 L665 588 L664 589 L658 589 L657 590 L649 591 L627 600 L610 612 L592 631 L580 650 L576 654 L572 656 L566 656 L557 652 L549 645 L543 635 L540 623 L540 607 L544 590 L540 599 L539 609 L538 610 L538 625 L539 626 L540 634 L543 641 L547 647 L556 655 L567 659 L571 658 L575 659 L576 669 L584 687 L597 702 L608 710 L622 717 L639 723 L642 723 L654 729 L680 748 L693 762 L703 777 L714 803 L716 816 L717 817 L717 822 L718 823 L720 851 L724 863 L728 869 L734 874 L740 872 L748 872 L758 876 L771 888 L777 897 L783 910 L789 933 L789 939 L791 947 L791 958 L792 959 L792 983 L791 984 L790 1001 L789 1002 L789 1007 L786 1019 L783 1027 L776 1039 L768 1047 L760 1051 L752 1052 L751 1053 L738 1052 L737 1051 L733 1051 L732 1050 L728 1050 L702 1044 L696 1044 L695 1043 L682 1042 L681 1041 L673 1041 L672 1040 L664 1040 L663 1039 L639 1038 L638 1037 L621 1037 L620 1036 L597 1036 L596 1035 L560 1035 L559 1034 L485 1034 L484 1035 L448 1035 L447 1036 L408 1037 L407 1038 L395 1038 L394 1039 L384 1039 L383 1040 L368 1041 L367 1042 L350 1044 L349 1045 L329 1048 L328 1049 L322 1049 L321 1050 L308 1049 L302 1047 L296 1043 L289 1035 L282 1022 L277 1005 L276 992 L275 991 L275 982 L274 981 L275 951 L276 950 L276 944 L277 943 L279 928 L285 909 L292 894 L299 884 L310 874 L321 870 L328 870 L334 872 L342 864 L345 858 L348 847 L350 817 L351 816 L351 811 L355 795 L364 774 L375 758 L389 744 L405 732 L425 722 L447 715 L455 711 L469 701 L480 689 L486 680 L492 664 L492 660 L493 659 L492 658 L495 657 L503 659 L510 657 L519 651 L525 644 L530 632 L531 616 L530 615 L529 604 L526 597 L527 605 L528 606 L529 621 L528 622 L528 629 L524 640 L513 652 L504 656 L496 656 L492 654 L488 650 L484 642 L474 628 L460 613 L443 600 L420 589 L403 585 L378 584 L377 585 L369 585 L368 586 L356 587 L355 588 L351 588 L325 594 L300 595 L287 592 L277 587 L267 578 L259 564 L256 555 L255 542 L254 541 L253 471 L252 470 L252 444 L251 443 L251 423 L250 422 L249 373 L250 372 L251 347 L252 346 L252 341 L255 328 L259 316 L269 298 L293 274 L312 261 L331 250 L350 241 L370 234 L373 232 L376 232 L389 227 L420 219 L424 219 L440 215 L445 215 L446 214 L451 214 L452 213 L465 212 L466 211 L483 210 L484 209 L495 209 L496 208 L512 208 L513 207 L575 207 L576 208 L593 208 L594 209 L605 209 L606 210 L614 210 L615 211 L637 213 L638 214 L654 216 L655 217 L659 217 L664 219 L681 222 L710 231 L713 233 L728 238 L762 255 L779 266 L793 277 L813 298 L819 307 L824 318 L828 334 L828 340 L829 341 L829 357 L830 358 L830 372 L829 374 L830 375 L830 380 L831 380 L831 341 L830 340 L830 333 L829 332 L828 323 L820 303 L811 291 L818 282 L867 202 L892 167 L909 150 L918 145 L929 145 Z M491 147 L494 142 L503 133 L517 125 L539 119 L548 119 L549 118 L576 119 L589 122 L600 126 L609 131 L620 141 L625 150 L626 154 L626 166 L624 172 L619 180 L610 188 L611 196 L613 200 L619 206 L618 207 L610 207 L609 206 L599 206 L598 205 L588 205 L587 204 L565 204 L564 203 L526 203 L525 204 L494 205 L493 204 L501 197 L503 193 L503 187 L494 178 L489 167 L488 159 Z M154 154 L148 160 L145 165 L143 172 L143 180 L144 181 L144 187 L146 192 L146 196 L159 247 L159 251 L163 267 L163 272 L165 278 L165 283 L167 289 L167 294 L168 295 L170 316 L172 324 L172 332 L173 333 L173 344 L174 345 L176 391 L177 392 L177 408 L172 413 L167 412 L156 404 L130 381 L122 377 L114 377 L109 379 L106 382 L102 392 L102 418 L103 419 L103 426 L104 427 L104 433 L105 434 L105 440 L107 448 L107 459 L108 460 L108 464 L107 465 L107 486 L106 487 L106 514 L105 515 L104 592 L105 593 L105 604 L106 605 L107 620 L108 621 L109 633 L110 634 L114 661 L115 662 L115 668 L116 669 L118 687 L119 688 L119 699 L120 700 L118 780 L117 781 L115 832 L114 833 L114 843 L113 844 L111 872 L110 873 L110 879 L109 880 L107 898 L104 911 L103 928 L107 938 L114 943 L129 943 L141 940 L152 939 L159 945 L161 952 L161 962 L160 963 L159 974 L157 979 L155 991 L153 995 L152 1003 L147 1017 L147 1020 L145 1023 L139 1043 L137 1046 L127 1076 L121 1100 L118 1121 L117 1122 L115 1148 L114 1149 L114 1159 L113 1160 L113 1188 L114 1189 L115 1200 L119 1208 L124 1213 L129 1216 L135 1218 L148 1218 L158 1215 L171 1207 L190 1187 L201 1170 L204 1163 L206 1161 L206 1159 L209 1156 L214 1156 L227 1149 L241 1135 L245 1125 L245 1119 L246 1118 L247 1088 L248 1087 L248 1079 L249 1078 L263 1102 L271 1128 L284 1158 L292 1168 L309 1179 L319 1197 L325 1203 L332 1207 L336 1208 L363 1208 L364 1209 L370 1209 L380 1212 L403 1223 L416 1226 L436 1226 L456 1220 L464 1216 L476 1216 L498 1226 L514 1231 L519 1231 L520 1232 L544 1232 L561 1228 L588 1217 L598 1216 L605 1218 L614 1223 L627 1227 L633 1227 L634 1228 L653 1227 L664 1224 L689 1213 L698 1212 L699 1211 L723 1211 L733 1208 L739 1204 L744 1198 L752 1182 L760 1175 L769 1171 L779 1160 L786 1146 L801 1106 L811 1090 L817 1083 L818 1084 L818 1122 L819 1123 L820 1131 L822 1135 L832 1145 L840 1149 L846 1150 L848 1152 L851 1162 L858 1176 L874 1199 L890 1214 L896 1218 L910 1224 L926 1226 L939 1223 L946 1219 L951 1214 L955 1207 L958 1196 L958 1190 L959 1189 L959 1175 L960 1174 L959 1146 L958 1145 L958 1135 L957 1134 L955 1111 L946 1075 L938 1058 L938 1056 L923 1026 L914 1001 L909 980 L907 955 L910 945 L917 940 L929 943 L940 944 L941 945 L950 945 L956 943 L962 937 L965 930 L965 909 L964 908 L964 901 L963 900 L962 885 L961 884 L961 877 L960 876 L958 841 L957 840 L957 822 L956 821 L956 740 L957 739 L957 722 L958 721 L959 706 L964 685 L980 639 L982 636 L993 602 L999 576 L1000 561 L1001 560 L1001 548 L1002 547 L1002 520 L1001 516 L996 511 L988 510 L982 512 L978 508 L982 454 L983 453 L983 447 L984 446 L984 440 L987 428 L987 423 L993 397 L993 386 L991 380 L987 375 L983 373 L973 373 L960 380 L938 398 L923 408 L917 409 L911 402 L916 350 L917 349 L917 343 L918 342 L919 330 L920 329 L923 306 L925 300 L925 295 L927 290 L930 272 L951 188 L952 167 L947 154 L939 146 L931 142 L927 142 L926 141 L916 142 L906 148 L890 164 L879 178 L855 214 L841 238 L809 288 L796 275 L778 261 L757 248 L737 238 L735 238 L715 229 L687 220 L667 215 L653 213 L652 212 L628 209 L615 197 L614 194 L614 190 L624 179 L629 169 L630 157 L629 156 L629 151 L626 144 L621 137 L611 128 L595 120 L580 116 L574 116 L573 115 L542 115 L541 116 L531 117 L515 122 L507 126 L496 134 L488 145 L485 155 L485 166 L489 177 L500 191 L498 195 L487 205 L479 206 L478 207 L470 207 L469 208 L448 210 L447 211 L442 211 L441 212 L417 216 L397 221 L393 223 L390 223 L386 225 L383 225 L360 233 L341 242 L339 242 L313 256 L286 275 L276 285 L274 284 L251 246 L222 202 L206 180 L191 162 L181 153 L173 149 L165 149 Z" fill="#eef3f4" fill-rule="evenodd"/>
</svg>
