<svg xmlns="http://www.w3.org/2000/svg" width="1086" height="1448" viewBox="0 0 1086 1448">
  <title>0037</title>
  <path d="M575 1288 L576 1296 L579 1305 L579 1296 L577 1289 Z M707 1273 L708 1276 L706 1279 L705 1276 Z M708 1269 L709 1270 L708 1273 L707 1272 Z M540 1263 L539 1264 L540 1265 L541 1279 L544 1287 L546 1298 L549 1305 L548 1317 L549 1317 L550 1313 L556 1326 L558 1327 L557 1321 L553 1313 L550 1301 L547 1294 L547 1291 L543 1281 Z M455 1246 L456 1245 L457 1246 L456 1247 Z M453 1243 L454 1242 L455 1243 L454 1244 Z M452 1241 L453 1240 L454 1242 L453 1243 Z M451 1240 L452 1239 L453 1240 L452 1241 Z M524 1200 L522 1201 L517 1208 L507 1230 L506 1238 L505 1239 L505 1245 L504 1246 L504 1268 L505 1269 L505 1274 L508 1287 L512 1299 L520 1316 L522 1318 L523 1322 L525 1324 L524 1319 L518 1308 L512 1291 L509 1278 L508 1262 L507 1261 L507 1250 L508 1249 L508 1241 L509 1240 L510 1231 L516 1214 L519 1208 L524 1202 Z M549 1192 L539 1203 L532 1216 L527 1234 L526 1256 L524 1257 L523 1260 L523 1279 L524 1280 L526 1293 L529 1296 L529 1292 L525 1277 L525 1259 L526 1258 L527 1259 L527 1267 L528 1268 L532 1289 L536 1302 L539 1307 L540 1307 L538 1304 L534 1290 L532 1274 L530 1268 L529 1245 L530 1244 L530 1236 L531 1235 L532 1225 L536 1213 L544 1199 L549 1194 Z M390 1191 L391 1190 L392 1191 L391 1192 Z M668 1190 L667 1191 L675 1211 L677 1224 L678 1225 L679 1238 L680 1239 L680 1255 L679 1256 L679 1264 L674 1285 L665 1304 L665 1306 L667 1304 L674 1290 L681 1266 L682 1254 L683 1253 L683 1237 L682 1236 L681 1225 L676 1210 L676 1207 Z M431 1189 L432 1188 L433 1190 L432 1191 Z M389 1189 L390 1188 L391 1189 L390 1190 Z M431 1184 L432 1185 L431 1188 L430 1187 Z M699 1184 L698 1185 L703 1192 L707 1201 L712 1218 L712 1222 L714 1228 L714 1254 L713 1255 L712 1263 L709 1270 L708 1269 L709 1265 L709 1251 L710 1250 L709 1249 L707 1257 L707 1264 L704 1272 L704 1275 L698 1289 L691 1301 L687 1305 L686 1308 L691 1303 L703 1283 L704 1279 L705 1278 L707 1280 L707 1277 L714 1265 L717 1254 L717 1248 L718 1247 L718 1232 L717 1231 L717 1224 L716 1223 L715 1215 L710 1201 Z M407 1184 L407 1191 L410 1198 L421 1215 L424 1217 L411 1195 L408 1184 Z M360 1182 L361 1183 L360 1186 L359 1185 Z M618 1180 L619 1198 L620 1199 L620 1215 L621 1216 L622 1233 L624 1241 L626 1265 L627 1266 L627 1275 L628 1276 L628 1283 L629 1284 L629 1305 L632 1299 L631 1273 L630 1272 L628 1244 L627 1243 L626 1230 L625 1229 L624 1217 L623 1216 L622 1198 L621 1197 L620 1185 Z M359 1179 L360 1180 L359 1183 L358 1182 Z M357 1178 L358 1177 L359 1179 L358 1180 Z M627 1176 L627 1178 L632 1188 L636 1202 L638 1217 L639 1218 L639 1224 L640 1225 L641 1242 L642 1243 L642 1277 L641 1278 L641 1287 L640 1288 L639 1301 L636 1313 L633 1320 L633 1323 L635 1321 L636 1316 L638 1313 L642 1298 L644 1280 L645 1279 L646 1248 L645 1247 L645 1236 L644 1235 L643 1221 L642 1220 L638 1199 L634 1188 Z M608 1175 L606 1177 L601 1189 L598 1209 L597 1210 L597 1218 L596 1219 L596 1256 L597 1257 L597 1267 L598 1268 L598 1275 L599 1276 L601 1293 L607 1314 L609 1317 L614 1332 L615 1332 L614 1324 L609 1310 L604 1290 L602 1270 L601 1269 L601 1261 L600 1260 L600 1248 L599 1247 L600 1208 L601 1207 L602 1194 Z M357 1173 L358 1174 L357 1177 L356 1176 Z M670 1171 L670 1173 L675 1178 L683 1192 L691 1215 L693 1228 L694 1229 L694 1237 L695 1238 L695 1254 L694 1255 L694 1262 L693 1263 L692 1271 L686 1289 L680 1301 L673 1311 L665 1319 L665 1321 L671 1316 L685 1296 L692 1281 L698 1257 L698 1232 L692 1207 L690 1204 L687 1194 L681 1183 Z M356 1170 L357 1171 L356 1174 L355 1173 Z M444 1169 L445 1168 L446 1170 L445 1171 Z M354 1168 L355 1167 L356 1169 L355 1170 Z M443 1167 L444 1166 L445 1168 L444 1169 Z M354 1163 L355 1164 L354 1167 L353 1166 Z M353 1159 L354 1160 L353 1164 L352 1163 Z M439 1155 L444 1164 L443 1167 L438 1158 Z M437 1154 L438 1153 L439 1155 L438 1156 Z M436 1152 L437 1151 L438 1153 L437 1154 Z M435 1150 L436 1149 L437 1150 L436 1151 Z M427 1149 L428 1148 L429 1150 L428 1151 Z M428 1143 L429 1142 L430 1143 L429 1144 Z M427 1140 L428 1139 L429 1140 L428 1141 Z M428 1133 L429 1132 L430 1134 L429 1135 Z M437 1131 L438 1130 L439 1132 L438 1133 Z M440 1122 L441 1121 L442 1122 L441 1123 Z M435 1120 L436 1119 L437 1121 L436 1122 Z M439 1119 L440 1118 L441 1120 L440 1121 Z M434 1117 L435 1116 L436 1118 L435 1119 Z M439 1115 L440 1116 L439 1119 L438 1118 Z M433 1115 L434 1114 L435 1116 L434 1117 Z M840 1114 L841 1113 L842 1115 L841 1116 Z M414 1106 L422 1126 L424 1144 L425 1145 L425 1154 L426 1155 L426 1160 L431 1181 L430 1185 L417 1153 L415 1144 L413 1141 L415 1139 L415 1130 L414 1129 L414 1120 L413 1119 L413 1107 Z M360 1099 L359 1110 L360 1111 L361 1131 L364 1144 L369 1158 L374 1169 L387 1190 L396 1199 L408 1217 L412 1221 L412 1219 L405 1210 L396 1194 L388 1173 L379 1155 L376 1145 L375 1145 L379 1160 L382 1165 L384 1173 L390 1186 L389 1189 L379 1174 L374 1164 L368 1148 L364 1132 L363 1121 L362 1120 L361 1099 Z M855 1091 L856 1092 L855 1095 L854 1094 Z M368 1080 L368 1096 L369 1097 L372 1121 L377 1137 L377 1140 L388 1169 L400 1189 L406 1194 L402 1190 L391 1168 L389 1161 L382 1146 L382 1143 L377 1130 L374 1118 L374 1113 L371 1101 L371 1094 L370 1093 L370 1079 Z M790 1072 L791 1071 L792 1073 L791 1074 Z M791 1070 L792 1069 L793 1071 L792 1072 Z M792 1069 L793 1068 L794 1069 L793 1070 Z M477 1056 L478 1055 L480 1056 L479 1057 Z M364 1039 L359 1047 L352 1070 L352 1075 L351 1076 L350 1093 L349 1094 L348 1113 L349 1114 L350 1138 L351 1139 L352 1153 L353 1154 L353 1159 L352 1160 L349 1152 L347 1139 L346 1138 L346 1132 L345 1131 L345 1125 L343 1117 L343 1107 L342 1106 L341 1066 L346 1047 L344 1048 L339 1066 L340 1111 L341 1112 L341 1119 L343 1127 L344 1142 L350 1166 L352 1169 L358 1187 L360 1188 L360 1186 L361 1185 L369 1202 L376 1212 L376 1210 L374 1208 L367 1194 L359 1171 L356 1154 L355 1153 L354 1138 L353 1137 L353 1127 L352 1126 L352 1110 L353 1109 L354 1110 L354 1114 L355 1114 L355 1106 L354 1105 L354 1097 L353 1096 L354 1075 L355 1074 L355 1069 L358 1056 Z M472 1037 L473 1036 L474 1037 L473 1038 Z M456 1034 L457 1033 L458 1034 L457 1035 Z M439 1033 L440 1032 L442 1033 L441 1034 Z M343 1028 L344 1027 L345 1028 L344 1029 Z M352 1017 L353 1016 L354 1017 L353 1018 Z M402 1009 L397 1015 L390 1029 L386 1041 L383 1054 L383 1059 L382 1060 L382 1070 L381 1071 L382 1095 L383 1096 L383 1101 L384 1102 L384 1107 L386 1115 L389 1122 L389 1126 L400 1157 L431 1216 L445 1237 L461 1255 L472 1270 L475 1272 L461 1251 L448 1225 L448 1223 L440 1206 L432 1180 L432 1176 L429 1166 L430 1162 L433 1168 L435 1170 L431 1162 L431 1159 L428 1158 L428 1151 L429 1150 L443 1171 L453 1190 L457 1196 L458 1196 L447 1174 L445 1172 L446 1170 L447 1171 L446 1165 L437 1147 L438 1145 L437 1146 L434 1141 L430 1128 L430 1124 L429 1125 L429 1131 L428 1132 L427 1131 L421 1111 L421 1105 L420 1104 L420 1095 L421 1094 L426 1105 L428 1113 L435 1129 L441 1147 L443 1149 L440 1142 L440 1139 L438 1136 L439 1132 L452 1149 L462 1159 L462 1157 L456 1150 L448 1134 L441 1115 L438 1102 L439 1114 L438 1115 L436 1112 L428 1081 L428 1067 L426 1069 L426 1079 L434 1111 L433 1115 L428 1106 L423 1091 L420 1086 L418 1078 L418 1063 L417 1064 L416 1063 L416 1052 L420 1042 L417 1045 L414 1052 L413 1051 L414 1062 L415 1063 L416 1082 L418 1089 L418 1106 L417 1107 L411 1092 L411 1086 L408 1074 L409 1064 L411 1060 L409 1060 L405 1072 L405 1077 L408 1086 L409 1099 L411 1106 L411 1121 L412 1122 L412 1129 L413 1130 L413 1136 L412 1137 L406 1120 L403 1107 L403 1102 L402 1101 L402 1095 L401 1094 L401 1068 L402 1067 L402 1054 L403 1053 L404 1038 L402 1040 L401 1053 L399 1061 L399 1072 L398 1073 L398 1097 L399 1098 L399 1104 L404 1125 L408 1134 L413 1151 L417 1159 L419 1167 L421 1170 L422 1175 L428 1190 L440 1212 L443 1221 L452 1238 L451 1240 L446 1234 L436 1218 L413 1174 L411 1172 L400 1148 L390 1119 L387 1106 L387 1101 L386 1100 L386 1092 L385 1091 L385 1079 L384 1078 L385 1058 L391 1032 L397 1018 L403 1010 Z M709 1005 L683 1036 L654 1064 L641 1073 L629 1079 L613 1084 L603 1085 L602 1086 L595 1086 L594 1087 L576 1088 L575 1087 L561 1087 L560 1086 L554 1086 L553 1085 L537 1083 L510 1074 L492 1065 L479 1057 L480 1056 L485 1056 L486 1057 L518 1056 L539 1051 L548 1047 L563 1043 L574 1043 L575 1042 L590 1042 L594 1043 L595 1042 L603 1042 L610 1040 L620 1034 L633 1031 L654 1021 L674 1016 L681 1013 L684 1013 L687 1011 L701 1007 L707 1004 Z M494 1000 L493 1000 L489 1011 L489 1021 L491 1027 L492 1024 L491 1022 L491 1012 Z M480 1000 L481 999 L482 1000 L481 1001 Z M444 989 L445 988 L446 989 L445 990 Z M445 988 L446 987 L447 988 L446 989 Z M553 987 L551 989 L551 992 L548 999 L553 994 L554 991 Z M446 986 L447 985 L448 986 L447 987 Z M447 985 L448 984 L449 985 L448 986 Z M778 982 L777 983 L780 986 L783 992 L786 1003 L786 1026 L785 1027 L785 1033 L780 1048 L779 1057 L777 1061 L776 1067 L774 1070 L773 1078 L775 1071 L785 1049 L790 1029 L790 1010 L789 1009 L788 1000 L782 986 Z M733 978 L734 979 L727 986 L726 982 Z M733 978 L734 977 L735 978 L734 979 Z M742 972 L743 973 L738 978 L737 976 Z M742 972 L743 971 L744 972 L743 973 Z M743 971 L744 970 L745 971 L744 972 Z M744 970 L745 969 L747 970 L746 971 Z M746 969 L747 968 L748 969 L747 970 Z M747 968 L748 967 L749 968 L748 969 Z M770 963 L767 966 L765 971 L758 979 L746 999 L746 1001 L741 1010 L733 1036 L731 1039 L725 1057 L717 1074 L710 1085 L694 1102 L686 1108 L677 1113 L663 1118 L652 1119 L651 1120 L627 1121 L620 1123 L607 1124 L587 1129 L580 1132 L569 1133 L568 1134 L550 1133 L537 1130 L520 1123 L508 1115 L475 1083 L454 1059 L440 1045 L437 1043 L437 1045 L457 1065 L475 1087 L497 1110 L515 1124 L532 1132 L535 1132 L547 1136 L553 1136 L554 1137 L572 1137 L607 1126 L619 1125 L620 1124 L643 1124 L644 1123 L654 1123 L655 1122 L664 1121 L678 1116 L693 1107 L712 1088 L724 1068 L728 1059 L749 999 Z M631 960 L632 959 L633 961 L632 962 Z M765 957 L766 956 L767 957 L766 958 Z M758 955 L759 954 L760 955 L759 956 Z M561 955 L556 960 L553 967 L553 969 L558 976 L560 984 L560 995 L558 1002 L555 1006 L558 1005 L561 999 L562 990 L563 989 L561 976 L556 967 L556 964 Z M464 954 L457 960 L453 970 L453 973 L450 978 L450 981 L440 991 L434 1003 L433 1013 L435 1019 L439 1025 L440 1024 L437 1018 L437 1005 L441 994 L443 992 L444 993 L449 987 L455 975 L457 964 Z M537 953 L535 955 L528 971 L528 983 L531 992 L531 1006 L533 1012 L536 1015 L534 1008 L535 992 L531 981 L530 973 Z M797 947 L796 947 L800 956 L804 973 L804 988 L805 989 L806 1009 L807 1010 L807 1025 L806 1026 L806 1033 L805 1034 L805 1039 L799 1061 L794 1069 L792 1066 L797 1049 L799 1032 L800 1031 L800 1000 L799 999 L799 992 L794 974 L791 968 L788 965 L788 962 L782 956 L779 956 L773 959 L773 960 L776 960 L779 963 L782 963 L786 970 L787 970 L788 967 L793 977 L795 990 L796 991 L796 998 L797 999 L797 1032 L796 1033 L796 1041 L795 1042 L794 1053 L792 1058 L792 1063 L789 1072 L789 1076 L784 1088 L786 1088 L803 1057 L810 1029 L810 1007 L809 1006 L808 993 L806 986 L807 975 L801 952 Z M799 944 L799 946 L802 949 L807 958 L810 967 L811 977 L812 978 L812 985 L813 986 L814 1013 L813 1014 L813 1027 L812 1028 L810 1048 L803 1075 L792 1101 L796 1097 L807 1071 L813 1050 L815 1034 L816 1033 L817 1034 L816 1074 L815 1075 L814 1090 L813 1091 L810 1108 L813 1102 L816 1085 L817 1084 L817 1076 L818 1075 L818 1068 L819 1067 L819 1050 L820 1049 L821 1050 L821 1059 L825 1064 L823 1084 L818 1099 L818 1102 L813 1115 L813 1118 L806 1135 L806 1137 L807 1137 L815 1119 L818 1109 L821 1104 L829 1080 L834 1059 L835 1048 L836 1047 L837 1027 L836 1026 L836 1016 L830 990 L830 985 L826 969 L824 967 L824 971 L828 987 L830 1008 L832 1013 L833 1029 L834 1030 L833 1031 L832 1055 L827 1076 L826 1075 L826 1063 L823 1059 L823 1051 L821 1045 L819 1044 L819 1020 L818 1019 L818 1007 L817 1006 L817 988 L816 987 L814 970 L809 957 L801 945 Z M638 943 L639 947 L649 965 L650 973 L651 973 L650 960 L642 946 Z M757 940 L758 939 L759 940 L758 941 Z M647 938 L647 940 L649 942 L659 962 L660 969 L658 977 L661 974 L662 975 L662 980 L664 980 L663 978 L663 966 L661 958 L652 943 Z M523 938 L524 937 L525 938 L524 939 Z M524 937 L529 932 L540 928 L551 928 L561 931 L559 933 L541 934 L528 938 Z M628 928 L634 937 L632 945 L629 950 L629 954 L631 955 L632 958 L631 959 L627 955 L626 956 L619 952 L621 948 L625 944 L625 937 L623 935 L623 942 L619 945 L614 957 L614 966 L616 973 L618 975 L617 957 L619 955 L622 956 L625 959 L628 959 L631 962 L633 961 L638 970 L638 975 L634 983 L634 987 L638 980 L638 978 L639 977 L640 981 L642 981 L643 977 L640 968 L636 962 L636 960 L630 953 L630 949 L632 947 L637 948 L635 941 L637 937 L637 933 L635 933 L634 936 L632 931 Z M720 927 L719 928 L721 930 L721 932 L735 951 L736 955 L737 955 L737 950 L735 945 L728 935 Z M819 921 L833 938 L843 961 L845 973 L847 978 L847 983 L848 984 L848 1021 L847 1022 L846 1021 L845 1001 L840 982 L840 987 L842 994 L842 1004 L843 1005 L843 1026 L844 1027 L843 1051 L831 1098 L818 1137 L805 1165 L809 1161 L826 1124 L828 1114 L833 1101 L833 1098 L835 1095 L835 1092 L844 1064 L844 1060 L848 1044 L848 1039 L849 1038 L849 1033 L850 1032 L851 1015 L852 1014 L851 982 L845 957 L835 937 Z M739 919 L751 931 L756 942 L757 948 L758 946 L759 947 L758 953 L756 957 L744 966 L743 963 L745 957 L745 950 L739 940 L739 937 L741 935 L741 928 L738 920 Z M687 918 L687 924 L686 925 L687 939 L693 953 L702 968 L704 975 L706 976 L701 960 L695 951 L692 944 L691 935 L690 934 L691 924 L689 926 L688 925 L688 919 Z M840 911 L841 910 L843 911 L842 912 Z M648 910 L641 916 L624 916 L623 917 L619 916 L638 909 L647 909 Z M717 903 L735 909 L732 906 L722 902 Z M186 885 L194 953 L195 954 L198 977 L200 983 L200 988 L202 994 L202 999 L203 1000 L204 1009 L206 1014 L206 1018 L209 1027 L213 1048 L222 1076 L222 1079 L224 1082 L224 1085 L226 1088 L237 1121 L242 1131 L248 1148 L255 1162 L255 1164 L261 1176 L263 1177 L238 1117 L236 1109 L234 1106 L226 1083 L226 1080 L218 1056 L211 1028 L211 1024 L209 1019 L209 1015 L208 1014 L208 1010 L202 984 L202 979 L200 973 L200 968 L199 967 L199 962 L198 961 L198 956 L195 943 L188 887 Z M681 865 L682 864 L683 865 L682 866 Z M365 854 L368 849 L373 847 L382 847 L383 849 L387 850 L384 852 L375 853 L371 855 L366 855 Z M396 843 L397 842 L399 843 L398 844 Z M398 842 L399 841 L401 842 L400 843 Z M289 842 L290 841 L292 842 L291 843 Z M400 841 L401 840 L403 841 L402 842 Z M291 841 L292 840 L295 841 L294 842 Z M362 838 L363 837 L364 838 L363 839 Z M361 837 L362 836 L363 837 L362 838 Z M312 833 L310 835 L297 841 L294 840 L310 832 Z M311 832 L313 830 L315 831 L313 833 Z M314 830 L315 829 L317 830 L316 831 Z M316 829 L317 828 L318 829 L317 830 Z M317 828 L318 827 L320 828 L319 829 Z M319 827 L320 826 L321 827 L320 828 Z M320 826 L322 824 L324 825 L322 827 Z M474 824 L472 824 L475 829 L475 842 L473 848 L473 854 L477 843 L478 833 L481 828 L478 831 Z M323 824 L324 823 L325 824 L324 825 Z M324 823 L325 822 L326 823 L325 824 Z M325 822 L326 821 L328 822 L327 823 Z M327 821 L328 820 L329 821 L328 822 Z M328 820 L330 818 L332 819 L330 821 Z M331 818 L332 817 L333 818 L332 819 Z M373 845 L370 846 L365 851 L364 854 L349 857 L342 860 L326 864 L323 866 L313 869 L293 879 L291 881 L287 881 L283 879 L280 874 L281 867 L290 855 L288 853 L281 851 L277 848 L278 847 L288 847 L306 841 L322 831 L333 822 L348 813 L349 814 L348 816 L349 826 L354 835 L360 840 Z M354 810 L356 811 L355 814 L355 825 L357 830 L362 836 L361 837 L356 833 L352 826 L351 815 Z M355 810 L356 809 L357 810 L356 811 Z M390 849 L393 847 L397 847 L406 843 L417 832 L420 822 L419 810 L416 804 L417 803 L428 805 L452 813 L461 818 L464 821 L466 826 L466 835 L464 840 L459 845 L452 848 L447 848 L446 847 L422 847 L421 848 L409 848 L406 850 L401 850 L400 851 L391 850 Z M411 802 L415 807 L417 813 L417 824 L411 835 L407 839 L403 841 L402 840 L409 833 L413 824 L413 813 L410 806 L406 803 L407 802 Z M400 801 L407 807 L410 812 L410 823 L406 832 L401 837 L389 843 L377 843 L368 838 L360 830 L357 822 L357 816 L359 810 L363 806 L366 806 L378 802 L384 802 L385 801 Z M899 944 L892 928 L887 921 L880 915 L873 911 L862 908 L856 908 L855 907 L801 907 L800 906 L792 906 L791 905 L785 905 L784 904 L770 902 L738 892 L733 889 L721 885 L696 872 L686 865 L679 858 L676 851 L671 844 L672 842 L671 838 L673 833 L672 824 L668 815 L668 812 L666 810 L661 799 L660 799 L660 802 L667 816 L670 825 L670 840 L669 841 L657 828 L645 819 L623 809 L613 808 L612 807 L603 807 L606 809 L611 809 L627 814 L641 821 L657 833 L671 850 L677 862 L681 876 L681 891 L678 900 L668 911 L656 917 L647 917 L646 916 L651 910 L655 913 L656 910 L652 906 L641 905 L619 912 L600 925 L592 929 L584 930 L583 931 L571 930 L554 925 L539 925 L531 927 L524 931 L521 934 L519 939 L515 942 L508 944 L500 944 L495 942 L490 938 L484 928 L482 921 L481 900 L482 899 L483 886 L487 874 L487 871 L497 849 L507 835 L525 819 L534 814 L547 810 L547 809 L544 809 L528 814 L515 822 L502 835 L495 845 L487 861 L482 875 L480 889 L479 890 L478 914 L477 915 L471 903 L468 901 L468 886 L466 878 L460 865 L455 860 L462 873 L464 881 L464 887 L465 888 L464 910 L461 921 L455 934 L446 947 L432 961 L403 982 L366 1003 L357 1012 L344 1015 L338 1015 L337 1016 L319 1016 L318 1015 L310 1015 L309 1014 L291 1014 L283 1016 L271 1022 L259 1034 L251 1048 L245 1067 L243 1083 L244 1083 L249 1060 L256 1045 L261 1037 L272 1026 L278 1022 L290 1018 L311 1018 L312 1019 L319 1019 L320 1020 L337 1020 L338 1019 L352 1017 L353 1018 L346 1026 L340 1026 L331 1029 L327 1029 L309 1035 L297 1042 L283 1054 L274 1066 L268 1078 L263 1096 L262 1117 L263 1118 L263 1127 L265 1129 L264 1109 L265 1108 L266 1096 L271 1080 L281 1062 L294 1049 L309 1039 L328 1031 L331 1031 L339 1028 L343 1028 L344 1029 L341 1033 L334 1048 L328 1071 L327 1095 L328 1096 L329 1117 L330 1118 L330 1124 L331 1125 L335 1146 L341 1163 L353 1188 L360 1200 L363 1203 L363 1201 L356 1190 L356 1188 L347 1171 L339 1148 L334 1127 L333 1115 L332 1114 L332 1105 L331 1104 L330 1084 L331 1083 L331 1072 L332 1071 L332 1066 L335 1053 L345 1031 L358 1015 L377 1001 L387 996 L416 978 L431 967 L446 953 L458 936 L465 920 L470 917 L469 915 L467 916 L466 915 L467 903 L468 902 L470 905 L471 910 L481 928 L482 933 L489 942 L477 950 L471 958 L462 979 L462 987 L464 989 L456 1007 L457 1016 L461 1025 L473 1036 L472 1037 L460 1036 L459 1035 L460 1031 L459 1029 L457 1030 L456 1034 L451 1032 L453 1031 L451 1024 L451 1014 L450 1015 L448 1013 L448 1000 L450 996 L448 997 L445 1003 L445 1014 L449 1024 L449 1027 L452 1031 L451 1032 L431 1024 L425 1024 L419 1028 L412 1026 L409 1030 L408 1037 L410 1038 L420 1030 L427 1031 L440 1037 L449 1044 L458 1048 L478 1061 L502 1074 L528 1084 L545 1088 L557 1089 L558 1090 L569 1090 L570 1091 L586 1091 L587 1090 L597 1090 L598 1089 L610 1088 L622 1084 L625 1084 L635 1080 L652 1070 L673 1052 L689 1035 L722 996 L737 984 L762 961 L765 957 L767 960 L772 952 L778 946 L782 944 L790 943 L791 942 L790 937 L787 935 L789 939 L788 940 L782 941 L776 944 L760 955 L759 953 L762 946 L762 941 L760 937 L755 933 L754 930 L749 924 L748 918 L745 912 L739 907 L746 918 L744 920 L739 916 L735 915 L731 911 L729 911 L734 917 L739 928 L739 936 L737 939 L742 951 L742 961 L740 967 L736 972 L735 971 L736 972 L730 976 L729 975 L730 968 L726 961 L721 941 L716 929 L709 918 L708 919 L703 912 L703 905 L702 905 L701 912 L699 913 L695 907 L691 904 L696 912 L702 916 L712 927 L716 934 L719 946 L721 949 L724 960 L727 965 L727 976 L724 980 L722 976 L722 972 L718 960 L709 946 L705 936 L705 932 L703 926 L701 924 L700 925 L702 928 L702 933 L705 944 L716 963 L722 980 L710 984 L709 983 L695 983 L692 981 L691 971 L687 963 L679 952 L676 942 L672 934 L669 930 L667 930 L671 936 L674 948 L679 957 L683 961 L683 963 L688 972 L690 979 L688 982 L681 982 L680 981 L681 979 L678 974 L678 972 L671 961 L669 955 L668 946 L664 939 L658 934 L663 942 L665 949 L665 954 L669 962 L672 972 L673 972 L674 969 L675 970 L676 976 L674 978 L678 979 L677 982 L658 982 L654 983 L653 982 L656 977 L654 977 L650 984 L641 986 L629 993 L624 986 L625 985 L625 981 L624 980 L624 967 L623 967 L622 969 L622 981 L623 982 L622 988 L629 993 L610 1011 L603 1014 L593 1015 L592 1014 L584 1014 L580 1012 L572 1011 L565 1008 L554 1008 L547 1012 L547 1016 L558 1011 L566 1011 L583 1017 L601 1018 L608 1016 L616 1011 L629 998 L636 993 L650 987 L664 986 L665 985 L682 985 L683 986 L696 986 L697 987 L708 987 L710 988 L718 984 L723 983 L725 985 L725 988 L719 994 L711 999 L676 1012 L652 1018 L629 1029 L623 1030 L606 1038 L602 1038 L601 1039 L570 1039 L569 1040 L562 1040 L561 1041 L553 1042 L534 1049 L521 1052 L516 1052 L515 1053 L492 1054 L491 1053 L484 1053 L483 1052 L474 1051 L458 1045 L441 1034 L444 1033 L450 1036 L465 1040 L494 1040 L507 1037 L511 1035 L514 1036 L522 1032 L525 1032 L528 1028 L541 1019 L541 1017 L538 1017 L525 1026 L522 1024 L520 1010 L518 1004 L517 991 L516 990 L516 981 L515 980 L516 968 L514 973 L514 999 L515 1000 L515 1006 L518 1014 L518 1017 L520 1023 L523 1027 L520 1030 L516 1032 L513 1032 L507 1021 L507 1019 L505 1018 L506 1022 L511 1031 L507 1033 L504 1032 L503 1016 L510 993 L510 985 L508 979 L508 967 L510 960 L517 948 L515 948 L510 954 L507 960 L505 968 L505 976 L507 983 L507 995 L501 1013 L501 1024 L503 1032 L505 1033 L501 1035 L492 1036 L491 1037 L487 1025 L482 1015 L483 999 L481 998 L481 994 L483 987 L494 966 L489 970 L484 979 L483 978 L483 973 L486 968 L484 967 L482 970 L480 976 L481 986 L478 998 L478 1010 L481 1019 L489 1034 L489 1036 L488 1037 L480 1037 L473 1034 L476 1033 L477 1030 L477 1023 L473 1012 L473 1005 L475 999 L474 998 L471 1005 L471 1013 L475 1024 L475 1030 L473 1034 L468 1030 L464 1023 L464 1019 L461 1020 L460 1019 L459 1007 L465 991 L468 986 L468 984 L467 984 L464 989 L463 988 L463 981 L470 966 L469 964 L477 953 L486 946 L489 942 L495 946 L500 947 L501 948 L501 950 L499 952 L500 953 L503 948 L512 947 L522 942 L526 942 L537 938 L542 938 L543 939 L539 945 L539 956 L542 965 L548 976 L549 988 L551 985 L551 976 L549 969 L542 958 L541 950 L540 949 L541 942 L547 937 L559 937 L563 938 L565 940 L566 935 L568 932 L574 934 L586 934 L594 932 L600 929 L609 922 L612 923 L615 921 L625 920 L626 919 L640 919 L641 920 L642 919 L649 919 L653 920 L654 919 L662 918 L669 914 L680 923 L677 916 L673 911 L680 903 L680 901 L684 894 L685 879 L682 868 L683 865 L689 871 L701 879 L724 890 L739 896 L756 901 L757 904 L758 902 L777 907 L797 909 L798 910 L818 910 L819 911 L821 910 L831 910 L843 916 L852 924 L860 935 L865 945 L872 968 L872 973 L874 980 L874 994 L875 995 L874 1020 L873 1021 L873 1028 L872 1029 L871 1040 L869 1045 L869 1050 L864 1070 L861 1077 L861 1080 L856 1092 L855 1089 L860 1075 L863 1058 L865 1053 L865 1048 L866 1047 L866 1041 L868 1033 L869 1008 L868 1007 L868 993 L867 992 L866 979 L862 964 L862 960 L856 943 L849 930 L847 929 L856 949 L862 973 L862 979 L864 987 L864 998 L865 999 L864 1038 L863 1039 L861 1056 L853 1088 L850 1094 L847 1105 L842 1113 L841 1111 L843 1106 L844 1096 L845 1095 L845 1088 L847 1081 L847 1072 L848 1071 L847 1067 L846 1075 L843 1080 L842 1090 L837 1104 L837 1117 L830 1135 L830 1139 L847 1111 L854 1094 L855 1098 L843 1128 L826 1161 L816 1176 L816 1178 L817 1178 L833 1152 L848 1122 L848 1120 L857 1100 L868 1067 L873 1047 L876 1023 L877 1022 L877 1014 L878 1013 L878 982 L877 981 L875 964 L871 950 L864 935 L856 924 L848 916 L842 912 L843 911 L860 911 L861 912 L865 912 L877 917 L886 925 L890 931 L897 947 L899 960 L900 961 L900 966 L901 967 L901 987 L902 987 L903 972 L902 971 L902 959 L901 958 Z M429 798 L435 801 L452 803 L460 808 L462 808 L462 805 L460 802 L455 800 L451 800 L450 798 L441 797 L441 798 L445 798 L446 799 L445 800 Z M655 770 L656 769 L657 770 L656 771 Z M546 764 L533 764 L521 768 L509 776 L500 786 L492 799 L481 822 L481 826 L494 799 L501 789 L511 779 L521 772 L529 768 L540 765 L546 765 Z M215 764 L220 779 L226 791 L237 807 L242 812 L252 819 L263 823 L269 823 L270 824 L284 822 L299 816 L310 809 L338 787 L352 780 L365 776 L379 775 L380 774 L391 774 L392 775 L407 776 L437 784 L450 791 L452 791 L436 781 L416 774 L406 773 L405 772 L398 772 L397 771 L374 771 L373 772 L367 772 L350 777 L341 781 L326 791 L308 806 L288 817 L277 820 L267 820 L259 818 L249 813 L235 800 L225 785 L220 775 L217 765 Z M202 762 L206 774 L206 777 L213 796 L220 809 L230 823 L242 835 L249 840 L259 845 L265 847 L269 847 L273 851 L280 855 L270 861 L268 860 L271 855 L269 855 L262 862 L256 866 L242 869 L241 868 L233 867 L221 860 L215 854 L211 847 L209 846 L212 853 L218 861 L225 867 L231 870 L238 872 L250 872 L262 867 L266 863 L274 861 L283 856 L286 857 L283 859 L277 869 L277 876 L282 882 L286 884 L280 887 L268 896 L253 915 L243 937 L239 954 L238 975 L239 974 L240 961 L241 960 L241 955 L248 933 L255 919 L264 906 L276 894 L288 886 L311 874 L326 868 L353 860 L385 856 L386 855 L394 855 L395 854 L411 853 L412 852 L419 852 L420 851 L429 851 L430 850 L444 850 L450 852 L454 851 L462 847 L466 843 L469 837 L469 824 L468 823 L468 819 L470 816 L469 814 L468 814 L466 818 L460 813 L449 808 L438 805 L435 803 L423 800 L412 799 L411 798 L383 797 L382 798 L371 799 L359 803 L349 808 L334 818 L332 817 L349 804 L357 799 L367 795 L371 795 L377 793 L401 793 L402 794 L416 795 L417 796 L428 796 L428 795 L424 795 L420 793 L410 792 L409 791 L378 790 L377 791 L366 792 L358 795 L333 811 L323 820 L304 832 L293 836 L280 844 L272 844 L271 843 L263 842 L247 834 L228 815 L219 801 L212 787 L206 771 L204 762 L203 761 Z M836 759 L837 758 L838 759 L837 760 Z M835 758 L836 757 L837 758 L836 759 Z M603 758 L605 760 L613 761 L623 764 L635 770 L642 775 L650 783 L653 788 L655 789 L650 780 L639 769 L633 765 L620 760 Z M834 757 L835 756 L836 757 L835 758 Z M832 756 L833 755 L834 756 L833 757 Z M831 755 L832 754 L833 755 L832 756 Z M669 756 L671 754 L674 755 L671 757 Z M829 754 L830 753 L831 754 L830 755 Z M736 754 L737 753 L739 754 L738 755 Z M673 754 L674 753 L675 754 L674 755 Z M828 753 L829 752 L830 753 L829 754 Z M826 752 L827 751 L828 752 L827 753 Z M824 751 L825 750 L826 751 L825 752 Z M820 749 L821 748 L822 749 L821 750 Z M484 741 L485 740 L486 741 L485 742 Z M485 740 L486 739 L487 740 L486 741 Z M486 739 L487 738 L488 739 L487 740 Z M487 738 L488 737 L489 738 L488 739 Z M488 737 L489 736 L490 737 L489 738 Z M747 759 L736 764 L734 763 L722 767 L712 772 L686 780 L675 780 L672 779 L665 772 L666 765 L683 751 L700 745 L721 735 L724 736 L723 743 L728 752 L736 757 L746 758 Z M723 735 L724 734 L725 735 L724 736 Z M729 732 L731 733 L729 741 L732 748 L737 753 L736 754 L730 750 L726 743 L727 734 Z M781 735 L780 743 L776 749 L772 752 L769 752 L757 756 L750 756 L743 754 L734 746 L732 741 L733 735 L736 730 L755 725 L768 724 L769 723 L775 726 L778 729 Z M779 722 L784 727 L787 734 L786 744 L785 747 L782 750 L779 749 L783 743 L783 733 L781 729 L776 724 Z M850 718 L850 720 L844 730 L834 740 L827 744 L812 748 L789 748 L788 749 L786 748 L789 743 L789 733 L787 727 L784 724 L785 722 L827 722 L828 721 L839 720 L847 717 Z M849 717 L852 715 L854 716 L852 719 Z M853 715 L854 714 L855 715 L854 716 Z M503 745 L504 746 L506 744 L509 738 L521 726 L535 717 L556 710 L583 709 L600 713 L618 722 L632 735 L642 751 L644 752 L641 745 L642 743 L619 720 L604 711 L585 706 L562 706 L561 707 L547 709 L534 714 L521 722 L511 732 Z M294 700 L288 700 L270 708 L262 710 L250 710 L241 707 L236 703 L236 705 L247 711 L261 712 L277 708 L280 706 L293 702 Z M179 686 L178 700 L177 701 L176 725 L175 726 L175 776 L176 777 L176 793 L177 794 L177 808 L178 809 L180 843 L181 844 L181 852 L182 853 L184 875 L185 875 L185 863 L184 862 L184 854 L183 853 L181 813 L180 812 L180 798 L179 797 L179 777 L178 776 L178 720 L179 719 L179 702 L180 701 L180 691 L181 690 L181 685 Z M298 690 L298 691 L300 691 L304 688 L317 682 L345 674 L359 673 L360 672 L381 672 L382 673 L394 674 L411 679 L421 684 L423 684 L440 694 L449 701 L465 717 L474 729 L477 731 L465 713 L453 701 L442 692 L421 680 L394 671 L383 670 L382 669 L351 670 L350 671 L337 673 L319 679 Z M747 667 L745 666 L725 667 L710 673 L704 677 L703 679 L722 670 L736 668 L737 667 L741 667 L742 668 L747 668 Z M251 665 L252 664 L253 666 L252 667 Z M252 662 L253 661 L254 663 L253 664 Z M471 640 L472 639 L473 640 L472 641 Z M454 640 L455 639 L456 640 L455 641 Z M841 639 L842 638 L843 639 L842 640 Z M470 639 L471 638 L472 639 L471 640 Z M449 639 L450 638 L451 639 L450 640 Z M874 638 L873 638 L870 649 L865 659 L858 669 L848 679 L832 689 L819 693 L812 693 L811 694 L787 693 L786 692 L755 692 L754 693 L739 695 L718 702 L698 712 L685 721 L676 730 L674 734 L665 741 L660 741 L654 737 L650 736 L659 749 L655 759 L655 762 L650 765 L648 763 L646 763 L646 767 L647 768 L651 766 L655 767 L656 769 L653 772 L653 777 L654 777 L657 770 L667 780 L674 783 L678 783 L680 785 L673 792 L671 791 L673 796 L675 797 L679 792 L680 788 L683 784 L700 780 L725 770 L737 767 L743 764 L765 757 L782 753 L787 753 L788 752 L801 752 L802 751 L805 752 L816 752 L822 754 L836 763 L847 774 L852 781 L862 801 L874 839 L878 847 L880 847 L877 842 L873 830 L865 798 L854 774 L842 758 L834 752 L825 748 L826 747 L835 748 L856 755 L867 755 L879 750 L887 743 L892 734 L890 735 L888 739 L883 744 L872 750 L868 750 L867 751 L857 751 L831 745 L842 737 L848 730 L859 712 L871 700 L879 686 L885 669 L885 665 L883 667 L883 670 L879 681 L869 697 L858 708 L847 714 L832 718 L821 718 L820 719 L797 719 L796 718 L771 719 L770 720 L764 720 L763 721 L758 721 L757 722 L752 722 L739 725 L716 733 L690 745 L668 752 L665 756 L669 756 L670 757 L664 762 L661 770 L657 764 L659 752 L665 743 L670 740 L686 724 L701 714 L715 707 L731 701 L747 697 L763 696 L764 695 L790 696 L791 697 L817 697 L818 696 L826 695 L840 689 L850 682 L860 671 L869 656 L873 645 Z M469 638 L470 637 L471 638 L470 639 Z M451 636 L452 635 L455 638 L453 639 Z M467 635 L468 634 L470 637 L469 638 Z M450 635 L451 634 L452 635 L451 636 Z M449 633 L450 632 L451 634 L450 635 Z M448 632 L449 631 L450 632 L449 633 Z M836 630 L837 629 L838 631 L837 632 Z M601 628 L602 627 L603 628 L602 629 Z M428 628 L429 627 L430 628 L429 629 Z M840 626 L842 634 L842 638 L841 639 L837 633 L838 631 L839 632 L839 627 Z M899 625 L900 626 L899 630 L898 629 Z M839 620 L840 621 L840 625 L839 626 L838 625 L838 621 Z M838 615 L839 616 L839 620 L838 621 L837 620 L837 616 Z M471 616 L472 615 L473 616 L472 617 Z M470 615 L471 614 L472 615 L471 616 Z M837 611 L838 612 L837 616 L836 615 Z M278 610 L279 609 L280 610 L279 611 Z M836 607 L837 608 L836 611 L835 610 Z M658 606 L659 605 L660 606 L659 607 Z M396 606 L397 605 L398 606 L397 607 Z M834 605 L835 604 L836 606 L835 607 Z M599 605 L603 607 L608 607 L609 606 L608 605 L607 606 Z M395 605 L396 604 L397 605 L396 606 Z M833 602 L834 601 L835 603 L834 604 Z M833 598 L834 599 L833 602 L832 601 Z M831 597 L832 596 L833 598 L832 599 Z M480 597 L482 601 L486 604 L487 602 L485 600 L481 599 L480 598 L481 597 Z M382 596 L383 595 L384 596 L383 597 Z M830 594 L831 593 L832 595 L831 596 Z M462 594 L471 607 L469 601 Z M816 591 L825 608 L826 612 L825 614 L815 604 L815 592 Z M800 591 L801 590 L802 591 L801 592 Z M298 589 L299 588 L300 589 L299 590 Z M602 587 L603 586 L604 587 L603 588 Z M690 586 L691 585 L693 586 L692 587 Z M304 585 L305 584 L306 585 L305 586 Z M301 584 L303 586 L300 589 L299 587 Z M606 583 L607 585 L604 587 L603 586 Z M301 584 L302 583 L303 584 L302 585 Z M796 582 L801 590 L800 591 L794 588 L794 584 Z M794 582 L795 581 L796 582 L795 583 Z M358 582 L359 581 L360 582 L359 583 Z M735 569 L736 568 L737 569 L736 570 Z M716 569 L719 572 L721 572 L721 571 Z M337 567 L338 566 L339 567 L338 568 Z M771 565 L779 573 L783 581 L782 583 L779 581 L776 581 L774 579 L774 576 L770 567 Z M769 565 L770 564 L771 565 L770 566 Z M647 564 L648 563 L649 564 L648 565 Z M648 563 L649 562 L651 563 L650 564 Z M807 554 L808 553 L809 554 L808 555 Z M806 553 L807 552 L808 553 L807 554 Z M449 551 L453 550 L465 554 L483 556 L484 557 L493 557 L494 558 L517 558 L521 557 L525 562 L524 563 L500 563 L499 562 L481 561 L460 556 Z M446 550 L447 549 L450 550 L449 551 Z M444 549 L445 548 L447 549 L446 550 Z M442 548 L443 547 L444 548 L443 549 Z M440 547 L441 546 L442 547 L441 548 Z M530 542 L536 542 L543 548 L543 551 L539 553 L539 554 L543 554 L544 555 L543 558 L536 564 L529 563 L524 557 L524 553 L523 552 L524 547 Z M686 543 L701 544 L701 543 L691 543 L690 542 Z M738 531 L738 532 L747 536 L761 547 L764 548 L775 558 L774 555 L766 547 L748 535 Z M620 523 L598 539 L581 548 L555 557 L547 559 L545 558 L547 553 L557 551 L574 545 L601 532 L618 522 Z M619 522 L620 521 L621 522 L620 523 Z M621 521 L622 520 L623 521 L622 522 Z M837 629 L836 630 L834 628 L828 618 L827 607 L824 602 L824 600 L817 589 L815 583 L807 571 L792 554 L791 554 L804 570 L811 581 L814 591 L814 595 L812 601 L804 593 L804 591 L800 586 L792 570 L786 563 L785 563 L793 576 L793 585 L792 586 L790 586 L785 583 L783 575 L780 571 L763 555 L762 556 L765 559 L768 565 L767 569 L770 572 L771 576 L770 579 L763 578 L760 576 L760 574 L755 564 L746 554 L735 548 L719 543 L714 543 L732 549 L745 557 L752 565 L758 576 L756 577 L743 574 L740 571 L738 566 L726 560 L734 565 L736 568 L734 569 L724 563 L707 558 L688 558 L687 559 L711 561 L720 564 L740 575 L739 576 L728 576 L725 575 L723 578 L717 578 L704 574 L697 570 L688 568 L688 569 L695 571 L710 579 L708 581 L697 584 L689 582 L669 581 L668 580 L657 581 L655 582 L666 582 L667 583 L682 584 L683 585 L688 585 L691 587 L685 590 L668 590 L667 589 L653 588 L652 589 L647 589 L635 592 L635 594 L646 591 L663 591 L664 592 L676 593 L677 594 L665 602 L644 603 L635 600 L629 600 L616 604 L612 604 L611 606 L615 606 L630 601 L634 601 L643 605 L658 606 L659 607 L650 613 L646 613 L645 614 L634 613 L634 615 L644 616 L645 617 L638 621 L628 620 L621 617 L622 619 L626 621 L634 622 L635 623 L632 625 L615 624 L604 617 L611 624 L621 627 L623 629 L619 631 L608 631 L605 630 L602 626 L601 626 L602 627 L601 628 L598 627 L595 624 L592 619 L592 617 L590 615 L589 607 L590 606 L590 602 L593 598 L594 599 L597 592 L602 587 L603 589 L605 589 L631 581 L619 580 L617 581 L619 582 L618 583 L611 585 L608 582 L612 578 L622 573 L625 573 L635 569 L650 568 L654 567 L657 564 L668 562 L668 561 L657 561 L652 563 L650 562 L679 539 L695 529 L711 522 L723 519 L728 519 L729 518 L748 518 L749 519 L759 520 L779 528 L792 537 L807 552 L805 553 L785 539 L781 538 L803 553 L810 560 L813 561 L819 568 L831 591 L830 594 L824 582 L812 565 L810 565 L820 579 L830 600 L830 603 L835 617 Z M542 518 L543 517 L544 518 L543 519 Z M851 655 L849 653 L846 646 L841 610 L833 587 L823 568 L806 546 L793 534 L781 526 L771 521 L755 516 L730 515 L709 520 L690 529 L675 539 L665 548 L646 562 L638 566 L617 573 L609 578 L591 596 L587 605 L587 615 L591 624 L600 632 L605 634 L615 635 L616 634 L621 634 L631 630 L638 625 L640 626 L633 637 L626 645 L621 655 L618 664 L618 674 L620 673 L620 666 L623 657 L631 642 L644 623 L650 617 L659 612 L673 600 L683 594 L695 590 L701 586 L704 589 L705 587 L703 587 L702 586 L703 585 L715 582 L719 582 L720 581 L727 582 L730 579 L751 579 L752 580 L760 580 L761 581 L760 582 L732 586 L726 588 L720 588 L710 593 L698 597 L669 615 L659 623 L644 638 L634 651 L626 666 L623 676 L623 680 L621 683 L611 673 L598 666 L585 662 L565 661 L564 662 L556 662 L543 665 L527 672 L516 680 L510 686 L504 695 L503 694 L503 683 L497 669 L481 651 L479 650 L490 646 L496 640 L499 633 L499 624 L497 617 L494 611 L489 606 L489 608 L494 616 L493 617 L487 614 L482 609 L478 601 L478 596 L479 595 L478 592 L473 587 L465 582 L464 583 L468 585 L477 594 L477 604 L483 614 L486 617 L489 617 L496 623 L497 626 L496 634 L490 642 L488 640 L483 627 L477 620 L473 613 L470 611 L471 613 L470 615 L459 606 L475 624 L482 638 L487 643 L482 646 L480 646 L463 622 L450 607 L428 585 L427 586 L442 601 L468 633 L467 635 L465 634 L465 636 L467 640 L472 645 L471 646 L465 645 L454 633 L445 618 L444 619 L408 583 L407 584 L409 587 L436 614 L449 630 L447 633 L450 637 L449 639 L443 637 L413 606 L412 606 L416 612 L429 627 L427 628 L410 617 L400 606 L388 586 L388 589 L396 604 L394 605 L387 599 L377 580 L369 572 L367 572 L374 579 L383 595 L381 596 L370 588 L361 583 L368 576 L361 568 L356 565 L365 575 L361 579 L353 580 L345 578 L344 577 L348 575 L348 574 L345 574 L340 577 L332 577 L331 576 L340 569 L347 566 L350 566 L352 564 L348 564 L340 567 L338 566 L339 565 L325 578 L319 579 L318 578 L323 569 L334 557 L331 558 L322 567 L317 576 L317 579 L315 581 L306 585 L305 584 L306 578 L317 566 L308 571 L298 583 L292 596 L280 610 L279 609 L279 605 L282 596 L295 573 L310 557 L315 554 L317 554 L322 550 L309 555 L305 558 L296 568 L284 585 L277 600 L273 621 L263 641 L262 638 L263 637 L263 631 L265 625 L266 615 L271 596 L280 576 L278 577 L271 591 L264 611 L262 625 L260 631 L260 637 L259 638 L259 650 L254 662 L253 658 L255 651 L259 611 L263 595 L268 581 L277 564 L282 557 L298 541 L307 535 L316 531 L333 527 L348 527 L365 531 L388 542 L410 557 L424 564 L429 565 L433 569 L445 574 L450 578 L462 582 L461 580 L455 578 L445 572 L443 572 L429 564 L421 561 L384 537 L364 528 L352 525 L337 524 L336 525 L323 526 L305 533 L289 545 L282 552 L272 566 L265 580 L258 601 L258 605 L255 616 L255 622 L254 623 L254 630 L253 631 L252 651 L251 652 L251 657 L250 658 L248 671 L242 685 L232 696 L234 696 L241 689 L253 670 L265 645 L265 643 L278 618 L288 605 L300 593 L315 584 L328 580 L341 580 L355 584 L365 589 L382 600 L412 623 L415 624 L423 630 L450 644 L466 649 L476 650 L486 659 L492 667 L500 686 L500 704 L499 705 L498 713 L493 726 L486 736 L477 743 L469 733 L447 711 L430 699 L410 689 L384 682 L361 681 L360 682 L353 682 L352 683 L344 683 L343 684 L333 685 L302 695 L296 701 L299 699 L322 691 L339 687 L353 686 L354 685 L382 685 L383 686 L388 686 L409 692 L422 698 L442 711 L475 743 L479 754 L479 768 L475 782 L471 789 L472 790 L477 783 L481 771 L481 754 L480 752 L491 738 L489 735 L494 729 L499 719 L503 699 L510 689 L517 682 L537 671 L554 666 L559 666 L560 665 L580 665 L581 666 L590 667 L608 674 L621 685 L625 703 L633 718 L641 726 L644 727 L648 731 L655 733 L654 731 L643 726 L635 718 L627 702 L625 694 L625 680 L629 666 L634 656 L642 645 L662 625 L692 604 L715 593 L727 589 L754 585 L761 583 L763 581 L776 584 L787 588 L801 596 L818 611 L836 634 L844 646 L847 653 L850 656 Z M634 513 L620 518 L577 541 L555 549 L547 551 L545 549 L544 545 L541 542 L534 539 L528 540 L522 545 L520 550 L521 553 L520 555 L491 555 L490 554 L475 553 L442 545 L425 538 L423 538 L423 539 L434 547 L445 553 L472 562 L489 564 L490 565 L499 565 L500 566 L533 566 L536 567 L540 566 L545 561 L550 561 L562 558 L579 552 L593 545 L617 529 L627 521 Z M516 515 L518 509 L522 505 L525 504 L533 504 L537 506 L541 512 L534 519 L521 522 Z M718 464 L719 463 L720 464 L719 465 Z M716 463 L717 462 L718 463 L717 464 Z M210 462 L211 463 L208 472 L207 482 L206 483 L206 490 L205 491 L198 578 L197 579 L197 585 L196 586 L196 592 L194 598 L193 609 L191 614 L189 627 L187 631 L186 630 L186 622 L185 621 L182 594 L181 593 L179 574 L178 573 L178 564 L177 563 L177 556 L176 555 L176 548 L175 547 L175 540 L173 532 L173 525 L171 517 L168 489 L179 478 L186 473 L193 470 L195 468 Z M713 462 L714 461 L716 462 L715 463 Z M711 461 L712 460 L714 461 L713 462 Z M865 459 L894 474 L902 480 L910 488 L911 491 L910 506 L909 507 L909 518 L908 519 L905 569 L904 570 L902 598 L901 599 L901 609 L900 610 L900 623 L898 626 L896 621 L896 617 L891 599 L891 595 L885 569 L885 564 L884 563 L884 558 L883 557 L882 546 L879 533 L879 526 L877 520 L877 515 L876 514 L871 485 L867 469 L865 465 L865 461 L864 460 Z M523 456 L529 456 L535 462 L536 465 L535 469 L530 474 L524 475 L517 469 L517 463 L519 459 Z M712 460 L708 461 L698 458 L675 457 L674 458 L660 459 L638 466 L623 474 L610 483 L585 505 L567 518 L537 530 L529 531 L528 532 L522 532 L521 533 L498 532 L486 529 L470 523 L443 508 L420 489 L406 479 L389 471 L382 469 L375 469 L374 468 L375 467 L389 467 L399 470 L417 480 L430 491 L447 503 L475 517 L495 523 L518 524 L521 525 L523 523 L531 523 L539 518 L540 521 L543 521 L552 518 L568 510 L578 503 L590 492 L608 478 L620 470 L638 461 L657 455 L668 454 L669 453 L690 453 L691 454 L700 455 Z M731 472 L723 463 L717 459 L700 452 L690 451 L689 450 L669 450 L668 451 L657 452 L635 459 L616 469 L595 484 L570 505 L549 517 L546 518 L543 517 L544 513 L541 506 L539 504 L533 501 L525 501 L520 503 L514 510 L513 516 L516 521 L515 522 L505 522 L504 521 L498 521 L475 514 L458 506 L443 497 L413 474 L398 467 L385 464 L375 464 L355 469 L355 471 L357 470 L372 470 L373 471 L379 471 L390 474 L410 485 L439 509 L457 520 L486 532 L499 535 L505 535 L506 536 L521 536 L522 535 L533 534 L559 525 L578 514 L611 486 L627 475 L653 464 L661 462 L666 462 L667 461 L674 461 L675 460 L689 460 L690 461 L698 461 L699 462 L708 463 Z M395 444 L396 443 L400 444 L399 445 Z M638 428 L628 431 L616 437 L596 452 L584 463 L562 478 L546 485 L534 488 L525 488 L524 489 L499 489 L475 483 L453 472 L423 453 L412 448 L400 445 L401 444 L407 444 L422 448 L440 457 L459 469 L474 476 L486 480 L500 482 L501 483 L518 483 L521 482 L523 478 L526 476 L530 477 L531 480 L541 480 L553 476 L574 464 L593 448 L610 436 L625 429 L633 427 L637 427 Z M656 427 L643 424 L634 424 L619 428 L604 436 L564 467 L548 475 L538 478 L532 478 L531 477 L538 469 L538 463 L536 458 L529 453 L523 453 L519 455 L514 462 L514 470 L517 475 L522 478 L519 481 L501 480 L480 475 L458 465 L441 454 L427 447 L412 442 L408 442 L407 441 L386 442 L370 447 L367 450 L380 447 L397 447 L398 448 L402 448 L414 452 L424 457 L452 475 L475 486 L499 492 L526 492 L527 491 L540 490 L555 485 L577 472 L607 447 L622 437 L631 433 L645 429 L652 429 L653 428 L655 429 Z M941 500 L951 510 L955 516 L962 534 L964 550 L965 551 L965 580 L964 581 L964 593 L963 594 L961 618 L960 619 L960 624 L959 625 L959 630 L956 643 L956 649 L955 650 L955 656 L954 657 L954 664 L953 665 L950 736 L949 737 L949 747 L948 748 L946 779 L945 780 L942 833 L941 834 L938 878 L937 879 L937 890 L936 891 L935 934 L934 935 L933 967 L932 968 L933 1013 L934 1014 L935 1039 L936 1040 L936 1050 L937 1051 L937 1060 L938 1061 L938 1070 L939 1071 L941 1112 L942 1113 L942 1131 L943 1132 L943 1193 L942 1194 L942 1202 L941 1203 L940 1214 L937 1226 L931 1243 L922 1259 L912 1269 L901 1275 L893 1276 L892 1277 L881 1277 L871 1274 L866 1271 L859 1265 L854 1258 L848 1244 L845 1228 L841 1221 L835 1216 L840 1210 L850 1194 L862 1167 L862 1165 L861 1165 L851 1186 L832 1215 L812 1239 L798 1253 L779 1269 L759 1282 L736 1294 L734 1294 L719 1302 L708 1306 L707 1305 L718 1293 L727 1277 L734 1255 L734 1248 L735 1247 L735 1232 L734 1231 L734 1225 L733 1224 L732 1216 L729 1207 L723 1195 L716 1186 L716 1188 L720 1193 L727 1209 L730 1221 L730 1227 L731 1228 L731 1252 L730 1253 L729 1263 L724 1278 L715 1294 L705 1305 L707 1305 L708 1306 L667 1324 L664 1324 L661 1326 L645 1330 L644 1329 L649 1323 L656 1310 L662 1294 L668 1268 L668 1263 L669 1262 L670 1242 L669 1241 L668 1223 L660 1194 L651 1175 L642 1162 L636 1157 L645 1169 L656 1193 L663 1216 L664 1226 L665 1227 L665 1235 L666 1236 L665 1267 L659 1293 L651 1315 L647 1323 L640 1332 L625 1335 L623 1330 L623 1319 L622 1318 L622 1308 L621 1307 L620 1243 L619 1243 L619 1257 L618 1258 L618 1306 L619 1307 L620 1324 L622 1330 L622 1335 L621 1336 L606 1337 L605 1338 L598 1328 L591 1314 L586 1300 L581 1279 L580 1267 L579 1266 L578 1237 L579 1236 L580 1215 L581 1214 L583 1199 L590 1177 L593 1172 L590 1174 L586 1182 L580 1200 L578 1213 L577 1214 L576 1230 L575 1231 L575 1263 L576 1264 L578 1283 L585 1306 L594 1325 L599 1333 L603 1337 L602 1338 L582 1338 L580 1336 L580 1334 L575 1325 L575 1323 L565 1301 L558 1277 L556 1259 L555 1258 L555 1236 L556 1235 L557 1222 L563 1201 L567 1194 L567 1192 L575 1179 L572 1181 L565 1191 L555 1216 L554 1224 L553 1225 L553 1231 L552 1232 L552 1239 L551 1240 L551 1256 L552 1257 L552 1264 L553 1265 L553 1270 L557 1287 L564 1306 L577 1331 L576 1333 L570 1325 L564 1314 L564 1317 L573 1332 L575 1334 L577 1332 L580 1337 L579 1338 L575 1338 L574 1337 L533 1336 L532 1335 L513 1334 L512 1333 L506 1333 L505 1332 L490 1330 L448 1317 L445 1315 L398 1300 L395 1298 L375 1291 L343 1274 L316 1254 L289 1226 L277 1209 L274 1203 L272 1203 L280 1218 L284 1223 L284 1225 L274 1235 L257 1268 L248 1281 L237 1291 L225 1296 L211 1296 L198 1291 L193 1287 L183 1276 L175 1261 L171 1248 L170 1237 L169 1236 L168 1206 L167 1205 L168 1111 L169 1110 L169 1043 L168 1042 L167 1004 L166 1003 L165 983 L164 982 L162 955 L161 954 L161 942 L160 941 L160 931 L159 930 L159 920 L158 919 L158 909 L157 908 L157 898 L156 897 L156 888 L155 887 L153 857 L152 856 L151 842 L150 841 L150 835 L149 834 L148 821 L146 814 L146 807 L145 806 L145 800 L144 799 L144 793 L142 786 L142 780 L141 779 L141 773 L140 772 L140 766 L139 765 L139 759 L137 752 L135 731 L134 730 L134 724 L132 716 L132 709 L130 701 L127 668 L126 667 L125 645 L124 644 L123 619 L122 618 L122 602 L121 601 L121 560 L122 559 L122 551 L123 550 L125 534 L130 518 L138 504 L144 498 L152 494 L161 493 L166 495 L165 496 L166 497 L166 506 L167 507 L168 523 L169 524 L171 545 L172 546 L172 554 L173 555 L173 563 L174 564 L174 572 L175 573 L175 587 L176 588 L175 612 L174 613 L174 618 L168 644 L167 663 L168 664 L168 669 L170 677 L173 684 L174 684 L170 667 L170 647 L171 646 L172 635 L176 620 L178 599 L179 598 L180 599 L182 619 L184 626 L184 639 L185 641 L183 649 L185 649 L186 643 L190 633 L191 626 L193 622 L193 618 L198 597 L199 586 L200 585 L203 553 L204 552 L208 492 L209 491 L210 477 L214 461 L218 458 L253 446 L256 446 L263 443 L311 431 L315 431 L341 425 L352 424 L358 422 L364 422 L365 421 L370 421 L383 418 L412 415 L413 414 L449 411 L450 410 L460 410 L461 409 L472 409 L473 408 L504 407 L505 406 L583 405 L584 406 L612 406 L613 407 L632 407 L633 408 L657 409 L658 410 L667 410 L668 411 L700 414 L701 415 L707 415 L708 416 L737 420 L742 422 L760 425 L800 435 L837 447 L861 457 L863 462 L863 466 L866 475 L866 479 L868 484 L868 488 L873 509 L873 514 L874 515 L876 532 L878 539 L878 545 L879 546 L879 551 L880 552 L880 557 L881 558 L881 563 L883 569 L883 574 L884 575 L887 594 L892 611 L892 615 L897 632 L897 636 L901 652 L903 655 L903 650 L902 649 L902 628 L903 627 L903 614 L904 613 L904 604 L905 603 L906 604 L907 620 L912 638 L912 642 L914 648 L914 655 L915 656 L915 672 L914 673 L913 682 L911 684 L910 682 L909 683 L909 690 L910 691 L912 709 L913 710 L914 735 L915 736 L915 786 L914 787 L914 811 L913 812 L912 838 L911 839 L910 860 L909 861 L907 891 L906 892 L906 897 L907 898 L908 897 L908 887 L909 886 L909 878 L910 877 L910 869 L911 868 L911 860 L912 859 L912 851 L913 850 L913 842 L914 841 L914 831 L915 830 L915 820 L916 819 L916 804 L917 803 L917 787 L918 786 L918 740 L917 739 L917 726 L916 725 L915 707 L914 706 L914 701 L911 688 L911 685 L912 684 L913 685 L915 681 L916 672 L917 671 L917 650 L910 623 L909 613 L908 612 L908 603 L907 602 L907 578 L908 577 L908 566 L909 565 L910 543 L911 542 L911 529 L912 528 L912 516 L913 515 L913 498 L914 497 L913 496 L918 494 L924 494 L925 495 L933 496 Z M155 482 L162 474 L175 465 L190 457 L192 457 L199 453 L219 445 L252 434 L259 433 L274 428 L290 424 L294 424 L303 421 L307 421 L312 419 L336 415 L337 414 L342 414 L348 412 L372 409 L379 407 L392 406 L393 405 L417 403 L418 402 L427 402 L428 401 L437 401 L438 400 L462 399 L463 398 L479 398 L480 397 L496 397 L497 396 L519 396 L520 395 L609 395 L610 396 L643 397 L644 398 L656 398 L657 399 L668 399 L669 400 L679 400 L680 401 L706 403 L707 404 L719 405 L720 406 L743 409 L744 410 L773 415 L809 424 L813 426 L820 427 L853 438 L898 458 L915 469 L925 479 L926 486 L922 490 L914 492 L912 486 L902 476 L885 465 L863 454 L861 454 L854 450 L849 449 L841 445 L787 428 L763 422 L749 420 L744 418 L739 418 L734 416 L729 416 L728 415 L711 413 L710 412 L704 412 L703 411 L697 411 L696 410 L662 407 L661 406 L651 406 L650 405 L621 404 L620 403 L598 403 L597 402 L523 402 L522 403 L482 404 L481 405 L469 405 L468 406 L457 406 L456 407 L418 410 L417 411 L410 411 L409 412 L402 412 L401 413 L394 413 L393 414 L361 418 L355 420 L350 420 L344 422 L339 422 L328 425 L318 426 L313 428 L309 428 L296 432 L292 432 L268 438 L222 453 L200 463 L198 463 L185 470 L178 475 L167 486 L165 491 L159 490 L155 486 Z M140 405 L145 397 L157 387 L170 379 L188 370 L190 370 L210 361 L218 359 L221 357 L248 348 L251 348 L272 341 L283 339 L287 337 L299 335 L312 331 L321 330 L326 328 L335 327 L336 326 L347 325 L348 324 L376 320 L377 319 L397 317 L398 316 L414 315 L415 314 L422 314 L423 313 L432 313 L433 312 L443 312 L444 311 L454 311 L455 310 L498 308 L499 307 L522 307 L523 306 L594 306 L595 307 L618 307 L619 308 L658 310 L659 311 L677 312 L678 313 L685 313 L686 314 L699 315 L706 317 L712 317 L713 318 L729 320 L730 321 L754 325 L759 327 L763 327 L768 329 L772 329 L785 333 L789 333 L805 337 L827 344 L830 344 L846 350 L849 350 L852 352 L864 355 L867 357 L872 358 L892 366 L913 376 L931 387 L938 394 L940 398 L940 403 L941 404 L939 425 L938 426 L937 438 L934 449 L934 454 L930 471 L927 477 L919 468 L906 459 L874 443 L828 426 L825 426 L821 424 L818 424 L814 422 L783 414 L779 414 L765 410 L761 410 L745 406 L740 406 L739 405 L734 405 L728 403 L714 402 L713 401 L707 401 L699 399 L691 399 L690 398 L682 398 L681 397 L672 397 L671 396 L648 395 L647 394 L632 394 L631 393 L613 393 L612 392 L545 391 L544 392 L515 392 L514 393 L475 394 L474 395 L460 395 L459 396 L447 396 L446 397 L436 397 L435 398 L407 400 L406 401 L391 402 L390 403 L384 403 L383 404 L377 404 L370 406 L352 408 L351 409 L330 412 L310 417 L306 417 L301 419 L297 419 L269 426 L265 428 L258 429 L241 435 L238 435 L235 437 L205 447 L172 463 L162 470 L154 479 L150 467 L144 435 L142 430 L142 425 L140 418 Z M496 266 L497 265 L498 266 L497 267 Z M500 259 L501 258 L502 259 L501 260 Z M264 240 L265 241 L262 247 L254 257 L251 253 L253 247 L260 239 Z M499 233 L500 234 L499 237 L498 236 Z M498 229 L499 230 L498 233 L497 232 Z M496 229 L497 228 L498 229 L497 230 Z M265 220 L266 219 L267 220 L266 221 Z M765 323 L762 324 L757 322 L747 321 L727 316 L722 316 L721 315 L716 315 L703 312 L697 312 L696 311 L690 311 L689 310 L683 310 L682 309 L665 308 L664 307 L642 306 L641 305 L627 305 L626 304 L608 304 L607 303 L538 302 L537 303 L506 303 L505 304 L473 305 L472 306 L447 307 L446 308 L410 311 L409 312 L394 313 L393 314 L380 315 L379 316 L338 322 L328 325 L323 325 L318 327 L305 329 L289 333 L285 335 L282 334 L291 316 L305 295 L315 283 L332 266 L343 257 L367 241 L387 231 L414 221 L438 215 L439 217 L437 219 L433 231 L433 245 L438 258 L442 264 L456 277 L466 283 L482 289 L490 291 L495 291 L496 292 L505 292 L506 293 L522 293 L523 292 L537 291 L560 284 L576 275 L590 261 L596 249 L598 233 L597 232 L597 226 L592 215 L594 213 L595 214 L605 215 L626 220 L650 228 L668 237 L670 237 L694 251 L716 267 L740 290 L751 303 Z M498 209 L501 213 L501 218 L496 222 L494 220 L494 217 L497 214 L497 210 Z M491 209 L494 211 L494 213 L492 215 L489 213 L489 211 Z M484 209 L486 210 L485 211 L485 216 L490 219 L487 222 L483 221 L480 217 L481 213 Z M477 206 L481 208 L481 210 L477 217 L478 221 L482 225 L488 225 L489 226 L486 229 L484 236 L485 237 L485 249 L487 253 L489 251 L489 238 L488 237 L489 230 L491 228 L494 233 L493 237 L491 239 L494 250 L494 263 L491 272 L474 266 L463 259 L454 249 L451 242 L451 232 L453 226 L457 220 L466 212 Z M497 206 L498 205 L500 206 L499 207 Z M488 206 L489 205 L490 207 L489 208 Z M494 205 L495 204 L497 205 L496 206 Z M500 205 L502 203 L503 204 L502 206 Z M453 201 L441 212 L420 216 L386 228 L366 238 L347 250 L334 260 L318 275 L306 289 L288 315 L279 335 L277 337 L269 339 L266 338 L280 309 L298 283 L315 264 L344 240 L369 225 L402 211 L418 206 L439 202 L440 201 L444 201 L445 200 L452 200 Z M506 200 L507 199 L535 200 L551 204 L566 212 L575 221 L579 229 L580 239 L575 251 L566 260 L554 267 L534 273 L528 273 L527 274 L513 274 L512 273 L513 272 L511 272 L508 274 L504 274 L501 279 L499 280 L496 276 L504 271 L506 264 L506 258 L504 254 L500 250 L500 243 L503 238 L503 232 L499 225 L504 219 L504 213 L501 208 L507 205 L507 201 Z M452 200 L453 199 L454 200 L453 201 Z M577 199 L578 198 L596 199 L630 207 L667 221 L696 237 L723 256 L744 275 L764 298 L775 314 L782 327 L780 328 L769 325 L758 307 L740 285 L716 263 L689 244 L658 228 L648 224 L611 213 L596 211 L595 210 L589 210 Z M576 198 L577 197 L578 198 L577 199 Z M288 197 L291 199 L294 208 L293 218 L290 228 L280 246 L267 258 L260 259 L258 256 L265 248 L267 241 L271 235 L271 232 L269 231 L267 225 L272 217 L270 217 L267 220 L266 219 L267 214 L272 206 L277 201 L282 198 Z M490 197 L491 196 L493 197 L492 198 Z M476 198 L478 196 L481 200 L483 200 L486 196 L487 197 L486 199 L486 203 L487 204 L486 205 L484 205 L482 203 L478 204 L476 201 Z M475 193 L476 194 L474 197 L473 194 Z M475 193 L476 192 L477 193 L476 194 Z M504 191 L505 192 L504 196 L503 195 Z M497 189 L501 193 L501 201 L498 203 L494 199 L495 198 L494 192 Z M486 189 L489 193 L487 195 L484 193 L482 197 L481 196 L481 192 L484 189 Z M493 187 L494 188 L491 192 L490 188 Z M438 224 L445 212 L452 205 L459 200 L470 195 L475 203 L462 211 L453 220 L448 231 L448 243 L453 253 L464 264 L475 270 L491 275 L499 284 L503 283 L503 278 L504 277 L511 277 L512 278 L532 277 L553 271 L563 266 L570 261 L577 254 L582 245 L582 241 L583 240 L583 231 L579 221 L566 208 L552 201 L538 197 L521 196 L520 195 L511 195 L509 196 L507 190 L503 186 L504 185 L529 185 L530 186 L537 186 L553 190 L569 197 L580 205 L589 215 L593 224 L594 236 L595 237 L594 238 L593 248 L585 262 L576 271 L567 277 L551 284 L535 288 L513 289 L512 290 L496 289 L474 283 L464 278 L455 272 L444 261 L440 255 L436 242 L436 232 Z M487 186 L488 185 L489 186 L488 187 Z M494 185 L495 184 L496 186 L495 187 Z M298 183 L303 188 L307 198 L307 214 L306 215 L306 219 L303 229 L298 240 L289 254 L276 267 L270 271 L265 273 L256 273 L247 265 L236 275 L225 291 L221 299 L218 308 L217 319 L219 325 L223 329 L229 328 L232 325 L234 319 L232 316 L230 316 L228 314 L228 310 L233 304 L237 304 L240 307 L242 312 L241 324 L236 333 L232 337 L224 341 L219 341 L215 339 L211 335 L210 332 L208 332 L203 346 L203 360 L196 364 L195 363 L196 346 L200 333 L203 327 L206 324 L206 305 L209 293 L214 282 L222 270 L234 258 L242 254 L251 255 L258 262 L265 262 L271 259 L279 252 L288 239 L296 218 L296 203 L294 198 L292 196 L286 194 L281 195 L276 198 L269 205 L262 218 L262 225 L265 228 L267 233 L265 236 L260 237 L255 232 L254 225 L255 224 L256 215 L263 200 L273 188 L280 183 L286 181 L294 181 Z M756 181 L760 179 L766 178 L778 183 L790 195 L797 208 L799 216 L798 230 L794 234 L786 234 L783 231 L783 227 L781 227 L780 229 L782 234 L790 239 L794 249 L791 252 L782 249 L772 240 L765 229 L761 219 L760 211 L759 210 L759 202 L761 198 L766 194 L772 195 L777 198 L784 206 L788 215 L788 219 L787 220 L784 216 L782 215 L781 216 L787 224 L789 225 L791 223 L791 214 L787 205 L779 196 L772 192 L764 192 L758 197 L756 203 L757 215 L765 234 L772 244 L781 252 L790 255 L794 255 L798 252 L798 250 L796 245 L791 238 L793 236 L795 236 L800 242 L802 246 L803 252 L805 252 L806 250 L809 249 L818 251 L825 256 L832 263 L841 276 L845 286 L848 299 L847 314 L852 319 L856 332 L856 337 L857 338 L857 348 L856 349 L851 348 L848 346 L849 345 L849 337 L845 320 L837 328 L832 330 L825 330 L816 325 L810 317 L808 310 L808 301 L811 295 L814 293 L819 294 L823 300 L823 304 L822 305 L820 305 L818 303 L816 306 L817 313 L821 318 L825 320 L828 320 L832 318 L836 310 L836 303 L834 295 L826 280 L816 267 L807 259 L805 259 L804 262 L798 267 L788 267 L782 265 L771 258 L763 250 L756 240 L751 230 L746 213 L746 196 L750 187 Z M498 177 L499 180 L496 185 L495 181 Z M491 174 L493 176 L493 183 L492 184 L490 183 L490 175 Z M506 173 L510 177 L510 179 L507 183 L502 183 L501 182 L504 177 L504 175 Z M495 174 L496 173 L497 174 L496 175 Z M485 174 L486 173 L487 175 L486 176 Z M485 170 L486 171 L485 174 L484 173 Z M490 165 L493 165 L495 168 L495 170 L492 173 L490 173 L488 171 L488 167 Z M496 165 L497 164 L498 166 L497 167 Z M488 159 L489 160 L493 160 L493 159 Z M493 152 L495 154 L497 164 L496 165 L494 163 L488 163 L481 171 L483 177 L488 183 L488 185 L486 186 L480 181 L478 177 L478 169 L480 164 Z M547 117 L547 122 L548 123 L547 124 L547 128 L543 134 L526 133 L515 139 L506 142 L494 141 L488 134 L488 126 L490 122 L496 116 L505 111 L510 111 L511 110 L514 111 L521 106 L522 107 L527 107 L533 105 L537 106 L543 110 Z M610 112 L615 107 L623 103 L636 103 L645 107 L658 120 L662 130 L662 135 L663 136 L669 137 L673 139 L689 154 L693 156 L707 171 L716 176 L721 177 L727 174 L729 171 L730 166 L727 159 L723 156 L721 156 L719 160 L717 162 L715 162 L712 159 L712 152 L714 148 L719 145 L723 145 L728 147 L735 154 L739 164 L739 171 L735 181 L730 186 L721 189 L705 185 L696 178 L693 178 L689 181 L682 181 L670 170 L670 167 L675 164 L675 162 L670 155 L653 140 L651 127 L644 117 L635 112 L631 111 L622 113 L618 118 L619 125 L622 133 L620 135 L618 135 L612 132 L608 127 L607 119 Z M547 111 L544 107 L537 103 L531 103 L530 104 L520 103 L514 108 L503 109 L494 114 L488 120 L485 126 L486 137 L491 142 L499 145 L510 144 L530 135 L543 137 L547 134 L550 128 L550 118 Z M937 258 L938 279 L939 280 L938 323 L937 324 L937 334 L936 335 L936 343 L935 344 L933 366 L931 373 L931 379 L929 382 L920 376 L900 366 L859 350 L860 340 L859 339 L858 327 L853 315 L849 310 L850 309 L850 295 L847 283 L842 272 L835 262 L825 252 L816 247 L812 246 L805 247 L804 246 L803 242 L798 235 L801 230 L801 211 L799 205 L789 189 L780 181 L769 176 L758 177 L754 179 L746 188 L743 196 L742 204 L743 205 L743 214 L748 231 L757 247 L775 265 L788 270 L796 270 L801 268 L807 263 L814 270 L821 279 L830 294 L832 300 L832 312 L828 317 L825 317 L820 312 L819 308 L825 305 L825 298 L821 292 L814 290 L808 294 L805 300 L805 312 L807 318 L810 323 L816 329 L825 333 L835 332 L839 330 L843 326 L845 330 L845 335 L846 336 L846 345 L845 346 L825 339 L786 329 L784 327 L784 325 L776 310 L764 293 L755 282 L734 261 L705 239 L670 219 L668 219 L646 209 L624 202 L620 202 L607 198 L588 196 L587 195 L569 194 L552 187 L539 184 L534 184 L533 183 L511 183 L510 182 L512 180 L512 175 L508 171 L505 171 L501 173 L500 172 L501 170 L501 165 L499 160 L500 157 L511 155 L531 146 L539 146 L545 150 L549 150 L553 148 L558 143 L561 136 L569 129 L572 129 L574 131 L575 138 L577 142 L582 147 L587 148 L598 155 L606 157 L615 157 L626 153 L632 148 L638 138 L638 128 L637 126 L629 118 L625 116 L629 114 L632 114 L639 117 L646 124 L649 130 L649 139 L651 143 L656 149 L662 151 L667 156 L670 161 L670 163 L667 167 L667 171 L676 181 L681 184 L688 184 L694 181 L699 185 L710 190 L725 191 L730 189 L737 183 L740 178 L741 170 L742 169 L741 160 L736 150 L730 145 L723 142 L716 143 L712 146 L709 151 L709 158 L711 162 L716 165 L720 163 L722 159 L727 165 L726 170 L723 173 L716 173 L709 169 L701 161 L696 153 L693 153 L690 151 L679 140 L672 135 L666 134 L664 130 L664 126 L658 114 L653 109 L642 102 L631 99 L622 100 L614 104 L608 110 L604 120 L605 127 L612 135 L619 137 L615 140 L608 141 L600 138 L595 134 L591 128 L588 119 L583 114 L572 110 L565 110 L561 112 L555 100 L544 90 L533 86 L523 86 L516 90 L513 94 L502 95 L489 102 L475 116 L472 121 L470 128 L457 139 L450 142 L436 142 L431 138 L433 134 L432 131 L429 134 L428 137 L429 141 L433 144 L441 146 L448 146 L454 144 L463 138 L473 129 L473 126 L478 117 L489 106 L496 101 L506 97 L514 98 L516 94 L523 89 L532 89 L539 91 L544 94 L555 105 L557 109 L558 115 L563 113 L573 113 L581 116 L586 121 L588 125 L588 128 L592 135 L596 139 L607 144 L616 143 L622 139 L625 132 L622 125 L620 123 L622 119 L627 120 L634 126 L635 128 L635 138 L633 142 L622 152 L616 154 L604 154 L596 151 L587 145 L583 144 L579 140 L577 131 L574 126 L568 125 L559 134 L556 142 L549 147 L546 147 L537 143 L531 143 L524 145 L507 153 L498 153 L494 149 L492 149 L488 152 L483 149 L477 142 L476 138 L474 138 L474 140 L470 145 L461 153 L447 159 L436 159 L427 156 L421 152 L415 145 L414 141 L426 130 L431 128 L440 128 L442 126 L442 120 L440 117 L437 115 L428 114 L421 116 L416 119 L406 128 L400 139 L398 146 L388 156 L378 162 L378 165 L380 168 L372 176 L366 177 L362 173 L345 186 L336 189 L328 189 L324 187 L319 182 L317 177 L318 163 L323 154 L329 148 L339 145 L342 146 L346 150 L347 153 L346 154 L346 158 L343 161 L340 162 L334 156 L329 160 L327 164 L327 172 L329 176 L334 179 L336 179 L343 176 L355 167 L362 160 L367 152 L375 144 L382 140 L391 138 L396 127 L409 113 L420 107 L428 105 L435 105 L444 108 L450 114 L453 123 L450 132 L443 137 L438 136 L438 138 L440 140 L443 140 L449 137 L452 134 L455 128 L455 117 L449 108 L445 105 L435 102 L428 102 L417 105 L408 110 L401 116 L394 125 L390 134 L388 136 L379 138 L371 143 L367 147 L362 155 L349 168 L336 176 L334 176 L331 173 L330 165 L332 161 L335 159 L339 164 L345 163 L349 156 L349 150 L346 145 L339 142 L332 143 L328 145 L320 153 L315 163 L314 177 L317 184 L322 189 L326 191 L335 192 L347 188 L360 178 L365 180 L370 180 L376 177 L382 171 L381 164 L393 155 L401 147 L403 139 L409 129 L418 121 L427 117 L433 117 L436 118 L440 122 L440 124 L439 125 L432 125 L425 127 L415 135 L412 139 L412 145 L414 149 L420 155 L429 160 L437 161 L438 162 L447 162 L463 155 L475 144 L485 154 L485 156 L477 164 L475 169 L475 177 L478 183 L482 186 L480 188 L470 191 L461 196 L452 196 L451 197 L445 197 L444 198 L430 200 L393 211 L374 220 L372 220 L352 231 L332 245 L319 256 L294 283 L277 308 L266 330 L265 335 L262 341 L253 343 L207 359 L206 358 L206 348 L208 340 L210 337 L216 343 L225 344 L233 340 L239 334 L243 327 L245 320 L245 311 L242 305 L238 301 L231 302 L226 308 L225 314 L227 317 L231 319 L230 323 L227 326 L224 326 L221 322 L221 311 L223 303 L228 292 L237 279 L248 269 L253 274 L257 276 L266 276 L277 270 L288 260 L298 246 L304 234 L309 218 L309 213 L310 212 L310 200 L308 192 L304 185 L298 180 L292 178 L287 178 L280 180 L272 185 L266 191 L259 201 L255 209 L252 219 L252 232 L256 239 L250 247 L248 251 L239 252 L232 256 L217 272 L207 290 L203 305 L203 321 L204 322 L200 327 L196 335 L193 346 L193 352 L192 353 L192 363 L193 364 L191 366 L189 366 L165 378 L154 385 L147 391 L145 388 L145 384 L143 379 L140 358 L139 357 L139 350 L138 349 L137 326 L136 325 L137 283 L138 282 L140 263 L144 251 L144 248 L149 235 L158 218 L173 198 L187 183 L231 142 L253 125 L281 107 L300 97 L302 97 L309 93 L324 88 L327 86 L403 64 L407 64 L412 62 L416 62 L421 60 L426 60 L442 56 L454 55 L467 52 L481 51 L482 50 L488 50 L489 49 L495 49 L496 48 L523 46 L524 45 L536 45 L537 44 L564 44 L565 45 L577 45 L578 46 L590 46 L591 47 L608 48 L609 49 L616 49 L617 50 L624 50 L625 51 L642 53 L643 54 L653 55 L654 56 L673 59 L678 61 L682 61 L691 64 L695 64 L721 72 L724 72 L752 81 L755 83 L760 84 L780 92 L794 99 L796 99 L827 115 L853 132 L872 147 L890 165 L903 181 L918 204 L929 227 L933 239 L936 257 Z M528 41 L527 42 L517 42 L516 43 L500 44 L499 45 L492 45 L491 46 L485 46 L477 48 L463 49 L462 50 L450 51 L444 53 L439 53 L438 54 L433 54 L432 55 L413 58 L385 65 L374 69 L371 69 L340 79 L337 79 L302 92 L264 113 L235 134 L195 170 L178 187 L159 210 L147 231 L139 252 L136 269 L135 270 L135 276 L134 277 L133 301 L132 302 L133 335 L134 336 L135 354 L136 355 L136 361 L137 362 L140 382 L144 394 L138 401 L136 408 L136 414 L137 415 L139 432 L145 455 L146 464 L149 472 L151 483 L154 488 L154 490 L144 494 L135 502 L127 516 L122 531 L122 535 L119 546 L119 552 L118 553 L118 562 L117 563 L117 595 L118 596 L120 642 L121 643 L123 674 L124 675 L125 691 L126 692 L128 714 L130 722 L130 729 L131 730 L131 736 L133 743 L133 749 L134 750 L134 756 L135 757 L135 763 L136 764 L136 770 L137 771 L137 777 L138 778 L138 784 L139 785 L139 791 L141 798 L146 838 L148 845 L150 868 L151 869 L151 879 L152 880 L152 890 L153 891 L153 901 L154 902 L154 912 L155 913 L155 923 L156 924 L156 936 L157 937 L157 948 L158 949 L158 959 L159 960 L159 969 L160 970 L160 979 L161 980 L162 999 L163 1000 L163 1011 L164 1012 L164 1029 L165 1030 L164 1219 L165 1220 L165 1234 L166 1235 L167 1247 L171 1261 L180 1278 L192 1291 L202 1297 L213 1300 L222 1300 L223 1299 L231 1298 L243 1291 L251 1283 L265 1261 L276 1238 L280 1232 L286 1227 L295 1238 L313 1256 L328 1268 L355 1285 L371 1293 L373 1293 L393 1302 L446 1319 L463 1326 L496 1335 L515 1337 L516 1338 L524 1338 L525 1339 L557 1340 L558 1341 L581 1341 L582 1342 L612 1341 L613 1340 L623 1339 L625 1343 L626 1342 L625 1340 L626 1338 L643 1335 L680 1323 L708 1310 L710 1310 L736 1297 L738 1297 L764 1283 L775 1276 L799 1257 L816 1240 L834 1218 L839 1223 L842 1229 L844 1243 L847 1252 L853 1263 L864 1274 L875 1279 L879 1280 L894 1280 L905 1277 L911 1274 L919 1268 L925 1261 L933 1247 L940 1228 L944 1212 L945 1200 L946 1199 L946 1190 L947 1189 L946 1120 L945 1119 L944 1089 L943 1088 L942 1066 L941 1065 L941 1057 L940 1056 L938 1020 L937 1019 L937 1008 L936 1007 L936 989 L935 988 L936 957 L937 956 L938 928 L939 927 L940 883 L941 882 L942 860 L943 859 L943 850 L944 849 L944 840 L945 839 L949 775 L950 774 L952 744 L953 743 L953 732 L954 731 L956 672 L957 671 L958 653 L959 652 L959 647 L960 646 L960 641 L961 640 L961 635 L962 634 L963 623 L965 616 L965 610 L966 609 L967 591 L968 590 L968 576 L969 575 L969 555 L968 554 L968 546 L967 545 L967 540 L964 528 L961 520 L954 508 L943 497 L935 493 L926 492 L925 491 L929 486 L937 455 L941 427 L942 426 L942 420 L943 419 L943 412 L944 411 L944 401 L942 394 L932 384 L936 368 L936 363 L937 362 L939 340 L940 339 L940 329 L941 328 L941 317 L942 316 L942 273 L941 272 L941 263 L940 262 L940 255 L939 254 L938 244 L929 218 L915 192 L893 163 L868 139 L834 115 L800 97 L798 97 L789 92 L754 78 L723 68 L720 68 L716 66 L685 58 L681 58 L676 56 L672 56 L646 50 L629 48 L628 47 L606 45 L605 44 L597 44 L596 43 L587 43 L586 42 L574 42 L573 41 L553 41 L552 40 L548 40 L547 41 Z" fill="#eef3f4" fill-rule="evenodd"/>
</svg>
