<svg xmlns="http://www.w3.org/2000/svg" width="1086" height="1448" viewBox="0 0 1086 1448">
  <title>0039</title>
  <path d="M718 1290 L715 1291 L712 1294 L699 1302 L675 1313 L647 1322 L610 1331 L584 1340 L581 1342 L578 1342 L563 1348 L554 1349 L553 1350 L532 1350 L531 1349 L527 1349 L487 1336 L436 1324 L409 1314 L390 1304 L377 1294 L375 1294 L375 1295 L396 1310 L424 1323 L443 1329 L454 1331 L458 1333 L462 1333 L482 1338 L486 1340 L489 1340 L525 1352 L537 1353 L538 1354 L548 1354 L549 1353 L556 1353 L568 1350 L611 1334 L654 1323 L680 1314 L705 1301 L716 1293 Z M536 1255 L544 1254 L550 1258 L551 1266 L547 1271 L545 1272 L538 1272 L533 1268 L532 1260 Z M538 1251 L534 1253 L529 1259 L529 1267 L534 1273 L538 1275 L545 1275 L552 1270 L554 1266 L554 1261 L549 1253 L545 1251 Z M430 1248 L434 1246 L439 1246 L445 1251 L446 1257 L445 1260 L441 1264 L435 1265 L432 1264 L428 1260 L427 1253 Z M649 1245 L656 1248 L659 1253 L659 1256 L657 1260 L653 1264 L650 1265 L643 1263 L639 1257 L641 1250 L644 1247 Z M643 1244 L638 1249 L637 1252 L637 1259 L639 1263 L645 1267 L653 1267 L657 1265 L662 1257 L662 1253 L659 1247 L653 1243 Z M431 1244 L425 1250 L424 1253 L425 1261 L432 1267 L441 1267 L448 1260 L449 1257 L448 1251 L445 1246 L439 1243 Z M250 1171 L249 1174 L258 1189 L260 1196 L262 1196 L262 1189 L259 1180 L255 1173 L253 1171 Z M629 1122 L629 1149 L627 1152 L625 1153 L617 1153 L616 1154 L607 1154 L606 1155 L595 1155 L594 1156 L574 1156 L573 1157 L572 1156 L573 1152 L573 1137 L574 1136 L573 1122 L576 1120 L618 1119 L619 1120 L626 1120 Z M515 1121 L519 1119 L567 1120 L571 1123 L571 1129 L570 1130 L570 1150 L571 1151 L571 1156 L570 1157 L520 1157 L519 1156 L515 1156 L514 1155 Z M671 1119 L671 1132 L672 1133 L672 1140 L671 1141 L672 1144 L671 1145 L654 1149 L649 1149 L648 1150 L642 1150 L634 1152 L630 1151 L632 1144 L632 1122 L639 1119 L656 1118 L657 1117 L667 1117 Z M458 1120 L461 1117 L493 1118 L494 1119 L508 1119 L512 1121 L512 1129 L511 1130 L512 1155 L511 1156 L498 1156 L497 1155 L483 1155 L482 1154 L458 1152 L457 1151 L457 1127 L458 1126 Z M692 1110 L690 1111 L691 1110 L692 1111 Z M612 1061 L612 1090 L609 1093 L603 1093 L602 1094 L579 1094 L578 1095 L551 1095 L550 1094 L544 1094 L540 1091 L540 1083 L541 1082 L540 1063 L541 1062 L588 1061 L589 1060 L599 1060 L600 1059 L609 1059 L610 1058 Z M466 1055 L468 1054 L479 1057 L502 1059 L503 1060 L537 1062 L538 1063 L538 1091 L534 1094 L503 1094 L502 1093 L489 1093 L488 1092 L471 1091 L466 1087 Z M668 1043 L667 1047 L667 1087 L665 1090 L663 1091 L652 1091 L651 1092 L629 1092 L628 1093 L620 1093 L615 1090 L615 1082 L616 1080 L615 1079 L615 1064 L613 1059 L614 1058 L637 1054 L650 1050 L667 1042 Z M418 1035 L439 1046 L464 1054 L464 1060 L463 1061 L464 1064 L463 1065 L463 1088 L462 1089 L455 1090 L454 1089 L444 1089 L443 1088 L430 1088 L429 1087 L424 1087 L420 1083 L420 1047 L417 1036 Z M344 1050 L347 1037 L351 1029 L358 1022 L369 1017 L382 1017 L393 1020 L403 1025 L414 1033 L416 1041 L416 1046 L417 1047 L417 1074 L416 1075 L416 1081 L418 1086 L424 1090 L444 1091 L445 1092 L454 1092 L455 1093 L459 1093 L465 1090 L471 1094 L490 1095 L491 1096 L505 1096 L506 1097 L535 1097 L539 1094 L544 1097 L553 1097 L554 1098 L600 1097 L601 1096 L608 1096 L614 1093 L618 1095 L623 1095 L624 1096 L628 1095 L663 1094 L667 1092 L670 1087 L670 1045 L671 1044 L670 1041 L697 1025 L704 1023 L716 1023 L724 1027 L730 1033 L733 1038 L736 1048 L736 1067 L735 1068 L735 1073 L733 1081 L729 1090 L719 1098 L709 1103 L695 1108 L703 1108 L720 1101 L725 1097 L726 1099 L715 1116 L699 1132 L693 1136 L675 1144 L673 1143 L674 1139 L674 1118 L677 1115 L682 1114 L686 1111 L679 1111 L671 1116 L667 1114 L660 1114 L659 1115 L638 1116 L632 1119 L629 1119 L626 1117 L577 1117 L571 1119 L567 1117 L535 1117 L534 1116 L519 1116 L514 1119 L508 1116 L490 1116 L489 1115 L473 1115 L472 1114 L461 1114 L457 1116 L450 1113 L441 1113 L440 1112 L433 1112 L432 1111 L417 1112 L411 1108 L403 1106 L394 1102 L387 1103 L387 1104 L393 1105 L402 1109 L410 1111 L416 1115 L415 1118 L416 1142 L418 1141 L418 1117 L420 1114 L423 1113 L431 1115 L440 1115 L441 1116 L454 1117 L456 1119 L455 1120 L455 1127 L454 1128 L455 1150 L454 1151 L448 1151 L447 1150 L441 1150 L424 1146 L419 1146 L403 1141 L396 1137 L394 1137 L378 1126 L363 1109 L359 1103 L351 1086 L352 1085 L374 1098 L381 1099 L381 1097 L369 1092 L349 1080 L345 1066 Z M341 1046 L341 1064 L342 1065 L342 1069 L346 1083 L353 1099 L366 1118 L377 1129 L388 1137 L408 1146 L429 1151 L434 1151 L447 1154 L454 1154 L455 1155 L481 1157 L482 1158 L518 1159 L519 1160 L577 1160 L578 1159 L608 1158 L609 1157 L627 1156 L628 1155 L635 1155 L636 1154 L655 1152 L660 1150 L676 1147 L694 1139 L704 1132 L720 1115 L727 1104 L733 1091 L738 1075 L739 1062 L740 1061 L740 1054 L739 1053 L739 1046 L737 1041 L737 1035 L724 1023 L712 1019 L702 1020 L696 1022 L683 1029 L673 1036 L657 1044 L632 1052 L616 1054 L615 1055 L609 1055 L608 1056 L595 1056 L594 1057 L584 1057 L583 1058 L537 1059 L536 1058 L520 1058 L519 1057 L495 1056 L494 1055 L481 1054 L480 1053 L476 1053 L475 1052 L454 1048 L429 1038 L396 1018 L383 1014 L368 1014 L358 1018 L351 1024 L344 1035 Z M313 1068 L314 1067 L315 1054 L319 1041 L324 1031 L331 1021 L346 1007 L358 1001 L369 998 L384 997 L385 998 L393 998 L394 999 L403 1000 L414 1004 L417 1004 L436 1012 L457 1018 L463 1018 L464 1019 L511 1018 L529 1025 L538 1026 L539 1027 L555 1026 L580 1017 L592 1017 L593 1018 L602 1018 L603 1019 L635 1018 L636 1017 L641 1017 L649 1015 L666 1008 L683 1003 L693 1002 L694 1001 L708 1001 L709 1002 L719 1003 L735 1010 L753 1028 L760 1041 L764 1055 L765 1067 L766 1068 L766 1084 L765 1085 L765 1092 L764 1093 L763 1103 L759 1116 L746 1141 L734 1156 L723 1166 L709 1176 L696 1183 L676 1191 L663 1194 L659 1196 L651 1197 L641 1200 L631 1201 L630 1202 L624 1202 L623 1203 L598 1205 L597 1206 L586 1206 L585 1207 L565 1207 L564 1208 L514 1208 L513 1207 L494 1207 L493 1206 L482 1206 L481 1205 L464 1204 L463 1203 L439 1200 L418 1195 L389 1185 L377 1179 L363 1170 L353 1162 L342 1151 L335 1142 L324 1124 L315 1097 L314 1081 L313 1080 Z M310 1066 L310 1085 L311 1086 L312 1098 L321 1125 L323 1127 L327 1136 L337 1150 L354 1167 L362 1173 L384 1186 L386 1186 L398 1192 L417 1198 L438 1202 L439 1203 L443 1203 L444 1204 L448 1204 L449 1205 L470 1207 L471 1208 L479 1208 L480 1209 L489 1209 L490 1210 L506 1210 L507 1211 L574 1211 L575 1210 L590 1210 L591 1209 L618 1207 L619 1206 L643 1203 L648 1201 L664 1198 L680 1193 L695 1186 L697 1186 L710 1179 L727 1167 L741 1153 L750 1141 L760 1122 L767 1099 L768 1085 L769 1084 L769 1069 L768 1068 L767 1054 L763 1041 L758 1030 L751 1020 L739 1009 L724 1001 L712 998 L691 998 L690 999 L681 1000 L647 1012 L639 1014 L634 1014 L633 1015 L610 1016 L609 1015 L597 1015 L596 1014 L585 1013 L584 1014 L575 1015 L565 1020 L558 1022 L554 1022 L553 1023 L535 1023 L524 1020 L516 1016 L507 1015 L506 1014 L486 1015 L485 1016 L468 1016 L467 1015 L454 1014 L437 1009 L415 1000 L399 996 L387 995 L386 994 L368 995 L352 1000 L341 1007 L331 1016 L324 1025 L317 1038 L313 1049 L311 1065 Z M284 979 L280 982 L275 989 L265 1009 L258 1034 L257 1046 L256 1047 L256 1059 L255 1060 L256 1087 L257 1088 L257 1096 L258 1097 L259 1109 L266 1139 L275 1164 L277 1164 L270 1146 L263 1117 L261 1099 L260 1098 L260 1089 L259 1088 L258 1063 L259 1062 L260 1039 L261 1038 L261 1033 L265 1017 L271 1001 L277 990 L284 981 Z M796 978 L797 981 L805 992 L812 1006 L816 1017 L820 1033 L820 1038 L821 1039 L822 1058 L823 1059 L823 1072 L822 1073 L821 1094 L820 1095 L820 1101 L819 1102 L817 1116 L806 1150 L791 1180 L772 1206 L754 1224 L739 1235 L738 1237 L747 1232 L763 1219 L776 1205 L789 1188 L801 1168 L804 1160 L806 1158 L819 1121 L819 1117 L823 1102 L823 1096 L825 1088 L825 1074 L826 1073 L826 1060 L825 1059 L824 1040 L823 1039 L821 1024 L815 1006 L803 985 Z M681 955 L680 956 L681 957 L683 956 L692 956 L693 955 L715 957 L725 960 L740 967 L758 980 L774 996 L788 1016 L799 1042 L802 1055 L802 1060 L803 1061 L803 1068 L804 1069 L803 1106 L802 1107 L802 1112 L798 1129 L791 1148 L792 1149 L795 1144 L800 1129 L804 1113 L804 1108 L806 1101 L806 1093 L807 1092 L807 1070 L806 1069 L805 1055 L799 1033 L792 1019 L792 1017 L781 1000 L770 987 L758 976 L742 965 L725 957 L713 954 L691 953 L690 954 Z M395 951 L375 951 L358 955 L340 963 L322 975 L304 993 L289 1016 L281 1036 L277 1052 L276 1062 L275 1063 L275 1073 L274 1074 L274 1110 L275 1111 L275 1118 L276 1119 L276 1125 L279 1135 L279 1139 L286 1162 L296 1183 L313 1207 L329 1223 L349 1237 L351 1237 L351 1236 L341 1230 L331 1222 L313 1203 L304 1191 L292 1169 L283 1143 L280 1130 L280 1125 L279 1124 L279 1118 L278 1117 L278 1109 L277 1108 L277 1072 L278 1071 L278 1063 L279 1062 L279 1057 L283 1040 L290 1021 L295 1011 L307 994 L321 980 L331 972 L344 964 L361 957 L374 954 L381 954 L382 953 L406 955 L404 953 L396 952 Z M329 951 L328 954 L331 954 L331 951 Z M287 948 L290 948 L294 950 L297 955 L295 961 L291 964 L286 963 L282 959 L282 953 Z M789 947 L795 948 L799 953 L798 959 L793 963 L787 962 L783 957 L784 951 Z M286 945 L280 950 L278 956 L280 962 L283 965 L287 967 L291 967 L294 966 L299 960 L299 953 L295 947 L291 945 Z M788 944 L783 947 L781 950 L780 956 L783 963 L788 966 L794 966 L800 961 L802 953 L801 950 L796 945 Z M325 941 L319 945 L320 948 L325 943 Z M559 929 L560 966 L561 967 L562 977 L566 989 L569 993 L570 992 L566 983 L564 969 L563 968 L562 951 L561 950 L561 929 Z M517 929 L515 930 L515 966 L514 967 L513 981 L510 991 L511 993 L515 983 L516 974 L517 973 L517 966 L518 965 L518 937 L517 936 Z M701 920 L707 920 L711 924 L712 927 L710 933 L705 936 L700 935 L696 931 L696 925 Z M702 917 L696 920 L694 923 L693 931 L697 937 L705 939 L710 937 L714 932 L714 923 L709 918 Z M369 915 L373 916 L377 920 L377 925 L372 931 L367 931 L362 926 L362 920 L366 916 Z M596 912 L602 914 L605 918 L604 925 L599 929 L596 929 L592 927 L589 922 L589 919 L591 915 Z M478 911 L484 913 L487 918 L486 923 L482 927 L479 928 L475 927 L471 923 L470 920 L471 916 L475 912 Z M368 912 L361 916 L359 920 L359 927 L364 933 L372 934 L377 931 L379 928 L380 920 L377 915 L374 913 Z M597 909 L593 910 L588 914 L586 918 L586 923 L587 926 L591 930 L599 932 L606 928 L608 924 L608 918 L607 915 L604 912 Z M474 909 L470 912 L468 916 L468 924 L471 928 L475 930 L483 930 L489 924 L490 920 L489 919 L489 915 L483 909 L479 908 Z M600 786 L601 785 L602 786 L601 787 Z M661 741 L662 743 L674 748 L695 754 L705 755 L706 756 L713 756 L714 757 L736 758 L737 757 L752 756 L769 751 L797 737 L806 734 L818 734 L822 735 L831 740 L842 751 L849 763 L853 774 L855 789 L856 790 L856 800 L857 801 L857 848 L856 849 L856 865 L855 866 L854 889 L853 890 L853 896 L852 897 L850 913 L845 930 L841 938 L841 940 L842 940 L847 930 L855 902 L857 878 L858 877 L858 865 L859 864 L859 845 L860 844 L860 805 L859 804 L858 783 L852 762 L842 746 L837 741 L827 734 L818 731 L808 731 L807 732 L799 733 L769 748 L752 753 L736 754 L735 755 L714 754 L713 753 L694 751 L681 748 L674 745 L671 745 Z M416 741 L393 751 L373 757 L363 758 L362 759 L353 759 L352 760 L337 760 L336 759 L323 758 L313 755 L298 748 L289 742 L271 733 L263 732 L262 731 L256 731 L248 733 L242 736 L228 749 L221 760 L214 781 L213 792 L212 793 L212 802 L211 803 L211 816 L210 817 L210 848 L211 849 L211 867 L212 868 L213 891 L214 892 L214 898 L215 899 L215 904 L216 905 L218 918 L227 943 L229 942 L227 939 L221 920 L220 911 L218 906 L218 900 L217 899 L217 891 L216 890 L216 882 L215 881 L215 868 L214 867 L213 821 L214 820 L215 795 L216 794 L218 778 L223 763 L230 751 L244 738 L255 734 L264 734 L271 736 L285 743 L294 749 L308 756 L319 760 L328 761 L329 762 L336 762 L337 763 L352 763 L353 762 L361 762 L362 761 L367 761 L384 757 L387 755 L397 752 L406 747 L408 747 L417 742 Z M314 711 L315 710 L316 711 L315 712 Z M758 706 L759 705 L760 706 L759 707 Z M247 681 L247 683 L250 684 L258 690 L272 703 L292 718 L313 729 L330 734 L336 734 L337 735 L365 735 L366 734 L377 733 L396 727 L417 717 L433 711 L433 710 L431 710 L420 714 L417 714 L396 724 L376 730 L365 731 L364 732 L337 732 L336 731 L326 730 L303 721 L278 704 L258 687 Z M823 676 L821 676 L798 698 L782 710 L768 717 L757 721 L754 721 L746 724 L731 725 L730 726 L710 726 L709 725 L695 724 L679 720 L676 718 L673 718 L659 712 L654 711 L634 701 L630 700 L622 700 L620 701 L614 687 L621 680 L618 680 L612 687 L603 685 L603 688 L611 690 L615 694 L616 700 L618 703 L623 703 L624 702 L632 703 L654 714 L679 723 L682 723 L690 726 L694 726 L700 728 L708 728 L709 729 L734 729 L735 728 L741 728 L742 727 L747 727 L755 725 L758 723 L761 723 L764 721 L769 720 L783 713 L804 697 Z M364 665 L365 664 L369 664 L370 665 L379 666 L398 674 L407 680 L425 699 L399 711 L396 711 L393 713 L390 713 L382 716 L374 717 L373 716 L376 712 L379 703 L379 689 L374 676 L370 670 Z M315 658 L331 660 L332 661 L342 661 L343 662 L357 663 L368 673 L374 683 L376 691 L376 704 L372 713 L368 718 L363 718 L362 719 L341 719 L340 718 L332 717 L323 713 L313 703 L307 690 L306 675 L307 674 L307 670 L311 662 Z M813 658 L814 657 L815 658 L814 659 Z M811 657 L812 656 L813 657 L812 658 Z M809 656 L810 655 L811 656 L810 657 Z M709 656 L703 662 L699 670 L696 681 L697 697 L701 706 L706 711 L705 712 L695 711 L683 708 L680 706 L677 706 L634 687 L683 662 L688 661 L699 656 L703 656 L704 655 L708 655 Z M252 669 L277 658 L289 655 L310 657 L311 658 L307 663 L303 674 L303 687 L307 699 L315 710 L313 711 L296 702 L273 685 L267 679 Z M841 653 L842 652 L843 653 L842 654 Z M244 668 L245 671 L252 673 L262 679 L279 694 L300 708 L314 715 L335 721 L340 721 L341 722 L364 722 L365 721 L382 719 L397 714 L400 714 L403 712 L408 711 L425 702 L430 701 L430 698 L404 674 L389 666 L376 662 L363 661 L362 660 L353 660 L352 659 L345 659 L344 658 L335 658 L334 657 L327 657 L326 656 L318 656 L306 653 L288 652 L287 653 L281 653 L276 655 L272 655 L255 664 L247 666 Z M819 663 L809 670 L784 695 L769 703 L767 703 L765 705 L762 706 L759 705 L766 698 L772 686 L773 678 L774 677 L773 662 L769 653 L766 650 L767 649 L789 649 L799 652 L808 659 L814 662 L818 662 Z M761 649 L766 654 L770 662 L770 666 L771 667 L770 683 L766 692 L761 699 L750 709 L744 711 L730 712 L729 713 L714 713 L709 711 L701 700 L699 692 L699 682 L702 670 L710 658 L714 654 L722 652 L737 651 L738 650 L748 650 L749 649 Z M218 648 L219 652 L225 663 L230 668 L235 670 L235 668 L224 657 L220 650 L220 648 Z M848 646 L833 654 L833 655 L836 655 L841 653 L842 655 L832 668 L834 668 L843 659 Z M825 661 L822 658 L808 651 L791 646 L765 645 L764 646 L746 646 L745 647 L727 648 L726 649 L721 649 L720 650 L704 652 L692 655 L682 659 L662 669 L660 671 L642 680 L640 680 L638 682 L630 685 L626 685 L626 688 L641 693 L671 707 L689 713 L704 715 L705 716 L733 716 L734 715 L740 715 L757 711 L768 706 L773 705 L775 703 L784 699 L793 692 L812 672 L823 664 Z M248 659 L249 660 L267 648 L283 644 L306 645 L324 650 L334 651 L335 652 L342 652 L343 653 L369 653 L370 654 L377 654 L391 658 L403 664 L430 687 L427 682 L410 665 L404 661 L392 655 L372 650 L336 649 L335 648 L330 648 L329 647 L325 647 L299 641 L283 641 L270 644 L256 651 Z M823 649 L817 644 L808 639 L790 634 L764 634 L763 635 L746 636 L745 637 L719 637 L718 638 L702 640 L679 648 L646 667 L631 673 L630 676 L633 674 L638 673 L682 650 L696 645 L713 641 L720 641 L721 640 L748 640 L749 639 L764 638 L765 637 L790 637 L808 642 L822 650 Z M928 527 L929 526 L930 528 L929 529 Z M287 518 L257 518 L244 521 L227 529 L221 534 L218 539 L218 550 L224 565 L235 580 L250 593 L262 599 L270 601 L294 601 L295 600 L312 600 L313 599 L314 600 L330 600 L331 601 L346 603 L357 607 L360 607 L363 609 L378 614 L380 616 L382 616 L395 623 L416 638 L427 649 L436 661 L445 680 L445 685 L446 686 L445 697 L443 699 L435 689 L432 687 L432 689 L443 700 L443 705 L445 705 L448 696 L448 685 L442 666 L435 654 L427 644 L408 628 L392 618 L378 611 L371 609 L366 606 L342 599 L331 598 L330 597 L318 597 L317 596 L278 599 L277 598 L270 598 L260 595 L248 588 L233 573 L227 564 L221 549 L221 540 L222 538 L231 530 L245 524 L253 522 L258 522 L259 521 L269 521 L272 520 L273 521 L292 522 L293 523 L310 526 L335 535 L340 538 L363 547 L372 552 L374 552 L398 564 L422 579 L438 592 L453 608 L462 621 L476 649 L482 656 L490 660 L481 668 L474 680 L465 720 L460 735 L453 749 L444 762 L432 774 L410 792 L396 807 L383 825 L368 853 L366 855 L361 866 L346 888 L329 905 L316 914 L296 924 L286 928 L278 929 L273 932 L271 932 L254 943 L242 955 L236 963 L226 982 L221 998 L219 1013 L218 1014 L218 1024 L217 1025 L217 1061 L218 1062 L218 1070 L219 1071 L221 1088 L230 1119 L240 1141 L254 1162 L270 1177 L271 1176 L258 1163 L252 1155 L242 1139 L232 1116 L224 1087 L222 1070 L221 1069 L221 1058 L220 1057 L220 1026 L221 1025 L221 1016 L223 1009 L223 1003 L230 980 L237 967 L245 956 L260 942 L288 927 L297 924 L301 924 L318 916 L330 908 L346 893 L358 877 L378 839 L394 814 L418 789 L426 783 L434 780 L435 778 L434 779 L432 778 L447 763 L453 755 L463 736 L469 717 L469 713 L471 708 L475 686 L481 673 L489 664 L495 660 L508 655 L526 652 L526 651 L514 651 L513 652 L504 653 L495 657 L490 657 L483 654 L476 645 L465 620 L455 606 L438 588 L420 574 L395 559 L343 535 L320 527 L317 525 Z M803 516 L802 517 L789 518 L773 523 L738 538 L714 546 L692 551 L685 554 L673 557 L647 569 L629 581 L607 603 L593 624 L582 649 L578 653 L570 656 L569 659 L562 655 L553 652 L547 652 L546 651 L538 651 L537 652 L556 656 L566 660 L573 665 L580 672 L588 687 L595 719 L603 739 L610 751 L617 760 L636 777 L633 778 L627 776 L612 776 L601 781 L595 787 L591 794 L587 810 L587 823 L588 824 L588 830 L590 830 L589 818 L590 817 L590 810 L591 809 L592 800 L594 796 L598 792 L609 787 L619 787 L630 792 L640 803 L647 816 L653 833 L656 846 L656 851 L657 852 L656 869 L653 876 L647 882 L641 885 L637 885 L631 887 L617 887 L616 888 L613 887 L596 887 L595 886 L588 886 L587 885 L600 879 L614 875 L625 875 L628 876 L632 879 L631 881 L635 879 L629 873 L614 872 L602 875 L584 883 L570 887 L554 888 L553 889 L517 889 L516 888 L501 887 L489 884 L471 876 L451 871 L444 871 L436 873 L431 878 L432 880 L434 880 L439 875 L452 874 L468 878 L480 883 L481 885 L475 887 L465 887 L464 888 L446 888 L445 887 L436 887 L431 885 L427 885 L420 882 L416 878 L413 872 L413 867 L412 866 L413 846 L417 829 L423 813 L429 803 L437 794 L446 789 L453 787 L459 787 L469 791 L474 796 L477 803 L478 817 L479 818 L479 830 L481 828 L481 807 L478 795 L472 785 L468 781 L457 776 L443 776 L442 777 L451 777 L459 779 L469 786 L467 787 L464 785 L460 785 L459 784 L453 784 L445 786 L436 791 L428 799 L422 808 L422 810 L416 822 L411 840 L410 850 L409 851 L409 868 L411 876 L419 885 L431 889 L446 890 L447 891 L472 890 L473 889 L483 888 L487 886 L502 890 L517 891 L518 892 L555 892 L556 891 L571 890 L579 887 L585 887 L598 890 L621 891 L622 890 L631 890 L644 887 L653 881 L658 872 L660 865 L659 845 L651 817 L641 799 L631 789 L619 784 L608 784 L604 786 L602 785 L605 782 L614 778 L627 777 L631 779 L639 780 L650 787 L681 818 L696 840 L707 860 L720 879 L741 901 L760 914 L773 920 L790 925 L818 940 L833 954 L841 965 L847 977 L854 1000 L854 1006 L856 1014 L856 1026 L857 1027 L857 1052 L856 1053 L856 1066 L855 1067 L855 1076 L854 1077 L853 1088 L852 1089 L849 1106 L839 1132 L831 1147 L818 1165 L810 1173 L811 1174 L825 1160 L836 1144 L845 1126 L855 1094 L857 1076 L858 1075 L858 1066 L859 1065 L860 1030 L859 1029 L859 1015 L858 1014 L857 1000 L850 976 L844 964 L837 954 L819 937 L809 931 L805 930 L803 928 L785 923 L762 912 L746 901 L731 887 L718 871 L691 827 L674 805 L661 792 L632 770 L614 751 L605 736 L605 734 L600 724 L592 694 L592 690 L589 682 L580 668 L570 659 L579 656 L583 652 L592 632 L607 608 L629 585 L641 576 L668 562 L696 553 L721 547 L730 543 L733 543 L754 534 L759 533 L766 529 L786 522 L795 521 L796 520 L804 520 L805 519 L820 520 L834 524 L840 527 L849 534 L851 537 L851 544 L849 552 L839 568 L826 581 L814 588 L805 591 L800 591 L799 592 L758 591 L757 592 L738 593 L737 594 L726 595 L721 597 L708 599 L680 608 L659 618 L641 631 L628 646 L623 656 L619 668 L620 669 L621 668 L623 661 L630 648 L647 630 L658 622 L678 612 L701 604 L717 600 L731 598 L732 597 L738 597 L746 595 L757 595 L758 594 L800 595 L801 594 L809 593 L821 588 L831 581 L840 572 L849 559 L854 547 L854 537 L853 534 L847 528 L835 521 L822 517 Z M117 513 L119 512 L127 520 L126 521 L121 518 Z M954 508 L955 510 L951 516 L946 521 L943 522 L942 521 L943 518 Z M112 509 L114 508 L118 512 L116 513 Z M657 482 L658 481 L659 482 L658 483 Z M391 482 L392 481 L402 492 L415 503 L434 515 L446 521 L462 527 L465 527 L477 531 L481 531 L499 536 L511 537 L512 538 L522 538 L523 539 L535 539 L536 538 L546 538 L547 537 L560 536 L597 525 L617 515 L631 506 L647 493 L657 482 L658 485 L649 502 L642 512 L616 538 L596 550 L586 553 L570 560 L552 572 L537 587 L535 588 L528 588 L519 582 L511 574 L495 563 L493 563 L491 561 L482 557 L470 554 L467 552 L464 552 L443 543 L430 534 L419 524 L408 511 L396 493 Z M658 481 L659 480 L660 481 L659 482 Z M390 481 L391 480 L392 481 L391 482 Z M124 467 L126 469 L126 473 L122 475 L116 481 L114 486 L114 493 L119 500 L145 517 L143 524 L132 519 L120 510 L110 501 L107 495 L107 484 L110 477 L117 470 Z M945 466 L950 469 L957 476 L960 483 L959 499 L943 515 L935 521 L928 524 L927 523 L927 516 L936 511 L945 504 L951 498 L954 491 L954 486 L952 481 L948 476 L943 473 Z M383 467 L384 473 L399 503 L408 516 L422 531 L436 542 L453 551 L479 559 L494 566 L505 573 L520 587 L528 591 L534 591 L539 589 L552 576 L564 567 L579 559 L596 553 L608 547 L627 533 L637 523 L648 509 L658 491 L666 470 L666 468 L665 468 L659 477 L637 498 L623 508 L605 518 L585 526 L582 526 L564 532 L554 533 L553 534 L546 534 L545 535 L526 536 L525 535 L514 535 L513 534 L506 534 L505 533 L490 531 L466 525 L454 521 L449 518 L444 517 L426 507 L407 493 L389 475 Z M614 451 L615 450 L616 451 L615 452 Z M435 451 L436 450 L446 459 L467 471 L477 475 L480 475 L492 479 L511 481 L512 482 L537 482 L538 481 L546 481 L547 480 L552 480 L569 476 L594 465 L605 458 L613 451 L615 452 L608 462 L594 476 L580 486 L568 492 L555 497 L547 498 L546 499 L540 499 L539 500 L514 500 L513 499 L498 497 L495 495 L489 494 L468 484 L458 477 L441 460 Z M434 450 L435 449 L436 450 L435 451 Z M433 449 L434 448 L435 449 L434 450 Z M424 435 L428 445 L437 459 L460 482 L471 489 L491 498 L507 502 L513 502 L514 503 L540 503 L541 502 L547 502 L562 498 L579 490 L595 479 L609 465 L617 454 L626 437 L625 436 L614 448 L599 459 L574 471 L545 478 L513 479 L512 478 L504 478 L503 477 L493 476 L470 469 L454 461 L445 455 Z M133 423 L139 433 L144 447 L149 468 L149 478 L150 479 L151 597 L152 598 L152 622 L153 623 L153 627 L149 636 L148 644 L151 652 L162 669 L173 694 L173 697 L176 705 L177 717 L178 718 L179 747 L180 748 L185 893 L182 904 L177 913 L165 925 L159 927 L154 927 L148 924 L146 922 L144 914 L141 833 L140 832 L140 808 L139 807 L139 783 L138 782 L138 754 L137 753 L137 723 L136 722 L136 695 L135 694 L135 667 L134 666 L134 634 L133 633 L131 546 L130 545 L130 525 L129 524 L129 522 L131 521 L141 526 L144 529 L144 537 L145 536 L145 530 L147 527 L145 521 L146 518 L149 516 L131 505 L129 500 L127 499 L125 500 L122 498 L117 491 L117 487 L120 481 L129 474 L129 470 L127 464 L128 441 L129 440 L129 433 L131 425 Z M941 418 L942 419 L942 468 L940 473 L948 481 L950 485 L950 493 L944 500 L943 499 L940 500 L940 504 L938 506 L924 514 L925 527 L927 529 L927 536 L928 537 L931 528 L939 521 L940 522 L939 566 L938 567 L938 598 L937 599 L937 630 L936 631 L936 663 L935 664 L935 693 L934 694 L934 723 L933 724 L933 752 L932 753 L932 779 L931 780 L931 809 L930 810 L930 837 L929 838 L927 905 L926 908 L920 913 L912 913 L906 910 L899 903 L894 896 L889 885 L889 844 L890 843 L890 812 L891 811 L893 743 L894 742 L895 719 L896 718 L896 712 L897 711 L897 706 L899 698 L906 678 L921 648 L921 638 L917 629 L919 622 L919 605 L920 604 L920 474 L921 473 L922 462 L926 450 L927 443 L929 440 L929 437 L934 426 Z M935 411 L941 417 L938 418 L932 426 L925 442 L925 445 L923 448 L923 451 L920 459 L920 463 L918 469 L918 477 L917 478 L917 624 L916 625 L907 605 L904 593 L904 465 L905 464 L905 457 L906 456 L907 446 L915 426 L921 417 L923 417 Z M139 414 L142 414 L147 417 L152 423 L157 433 L161 445 L163 460 L164 461 L164 473 L165 474 L165 584 L166 585 L166 592 L165 593 L165 600 L159 612 L158 617 L162 613 L169 595 L169 583 L168 582 L168 469 L167 468 L166 453 L163 441 L159 430 L152 418 L163 414 L186 410 L187 409 L193 409 L194 408 L212 406 L213 405 L220 405 L221 404 L228 404 L229 403 L236 403 L237 402 L246 402 L247 401 L256 401 L257 400 L266 400 L267 399 L278 399 L279 398 L305 397 L306 396 L343 395 L344 394 L400 393 L401 392 L457 392 L458 391 L631 390 L632 391 L727 392 L728 393 L749 393 L750 394 L765 394 L766 395 L789 396 L790 397 L826 400 L827 401 L861 405 L867 407 L884 409 L885 410 L914 415 L919 417 L913 424 L908 434 L904 446 L903 455 L902 456 L902 463 L901 464 L901 488 L900 489 L901 491 L901 595 L907 613 L916 632 L918 639 L918 646 L917 650 L900 685 L893 712 L892 728 L891 729 L891 742 L890 743 L888 808 L887 809 L886 886 L896 904 L904 912 L912 916 L919 916 L925 913 L926 914 L926 922 L924 927 L919 932 L913 932 L907 930 L900 926 L891 917 L887 911 L886 907 L884 906 L885 911 L888 916 L897 927 L905 932 L911 933 L915 935 L914 936 L912 959 L911 960 L908 986 L906 992 L906 997 L905 998 L902 1017 L894 1049 L888 1066 L888 1069 L874 1108 L861 1135 L861 1137 L859 1139 L850 1158 L826 1198 L810 1221 L787 1250 L753 1288 L732 1309 L705 1329 L677 1344 L675 1344 L655 1353 L634 1360 L597 1369 L577 1371 L576 1372 L567 1372 L566 1373 L549 1373 L548 1374 L544 1374 L543 1373 L542 1374 L541 1373 L513 1373 L512 1372 L493 1371 L492 1370 L486 1370 L485 1369 L464 1366 L423 1354 L398 1344 L374 1332 L355 1320 L336 1305 L318 1286 L308 1272 L298 1255 L291 1246 L267 1220 L264 1213 L236 1172 L232 1162 L227 1155 L210 1121 L196 1086 L194 1078 L192 1075 L191 1069 L187 1060 L187 1057 L177 1026 L169 994 L163 961 L162 960 L162 954 L160 948 L164 946 L170 945 L175 942 L183 934 L187 928 L190 920 L187 922 L186 926 L180 934 L175 939 L170 942 L164 944 L155 945 L151 943 L146 937 L146 930 L145 929 L146 925 L149 928 L154 930 L163 929 L169 926 L177 918 L183 909 L188 893 L188 866 L187 865 L187 836 L186 835 L186 810 L185 809 L183 741 L182 740 L182 726 L181 725 L180 709 L178 704 L177 696 L170 678 L151 645 L151 639 L157 625 L157 623 L154 621 L154 511 L153 510 L153 482 L152 481 L152 471 L151 470 L149 456 L139 429 L135 422 L133 421 L134 418 Z M926 339 L927 338 L929 339 L928 340 Z M142 401 L143 400 L144 383 L147 372 L154 368 L166 365 L170 365 L196 359 L201 359 L206 357 L223 355 L229 353 L261 349 L262 348 L269 348 L270 347 L278 347 L279 346 L312 344 L313 343 L326 343 L327 342 L340 342 L341 341 L356 341 L357 340 L400 339 L401 338 L434 338 L435 337 L494 337 L495 336 L497 337 L498 336 L679 337 L680 338 L727 339 L728 340 L741 340 L742 341 L755 341 L756 342 L769 342 L770 343 L780 343 L781 344 L790 344 L791 345 L801 345 L802 346 L827 348 L828 349 L835 349 L836 350 L849 351 L856 353 L876 355 L877 356 L894 358 L895 359 L905 360 L906 361 L926 365 L929 368 L932 377 L932 386 L933 387 L933 409 L924 414 L918 414 L910 411 L895 409 L884 406 L879 406 L873 404 L862 403 L861 402 L855 402 L854 401 L848 401 L847 400 L841 400 L833 398 L826 398 L825 397 L818 397 L817 396 L790 394 L789 393 L748 391 L747 390 L729 390 L728 389 L637 388 L636 387 L458 388 L457 389 L407 389 L406 390 L373 390 L372 391 L346 391 L345 392 L308 393 L307 394 L292 394 L291 395 L279 395 L278 396 L246 398 L245 399 L229 400 L228 401 L214 402 L206 404 L199 404 L198 405 L193 405 L192 406 L187 406 L186 407 L167 410 L155 414 L152 414 L149 416 L142 411 Z M929 253 L930 252 L931 253 L930 254 Z M839 227 L844 229 L848 229 L853 231 L857 231 L881 237 L898 243 L901 243 L904 245 L912 247 L927 255 L927 338 L926 339 L917 336 L913 336 L889 330 L871 328 L864 326 L858 326 L857 325 L851 325 L850 324 L842 324 L839 322 L839 253 L838 252 L838 228 Z M423 303 L470 268 L540 220 L590 253 L658 301 L660 304 L660 333 L659 334 L658 333 L657 334 L643 334 L642 333 L470 333 L469 334 L429 334 L428 335 L424 335 L423 334 Z M268 191 L269 192 L269 344 L268 345 L247 347 L246 348 L241 348 L240 349 L223 351 L217 353 L189 357 L184 359 L180 359 L175 361 L154 365 L146 369 L143 361 L143 353 L142 352 L143 348 L147 348 L159 344 L163 344 L190 337 L239 328 L243 325 L243 310 L242 309 L242 226 L239 224 L238 225 L227 226 L226 227 L212 229 L207 231 L203 231 L187 235 L160 244 L152 248 L147 252 L146 251 L146 245 L147 244 L147 224 L146 223 L146 218 L148 216 L149 218 L152 218 L160 214 L178 208 L202 202 L206 202 L215 199 L220 199 L225 197 L230 197 L243 194 Z M811 190 L812 191 L828 193 L829 194 L848 197 L857 200 L873 203 L877 205 L884 206 L906 213 L909 215 L917 217 L922 220 L929 222 L928 224 L929 244 L930 245 L930 252 L929 253 L920 247 L892 237 L853 227 L849 227 L838 224 L836 225 L835 227 L835 278 L836 279 L836 324 L837 326 L893 334 L903 337 L912 338 L928 343 L932 343 L933 344 L933 362 L931 365 L923 361 L911 359 L906 357 L895 356 L883 353 L876 353 L863 350 L857 350 L850 348 L837 347 L836 346 L813 344 L812 343 L812 332 L811 331 L811 225 L810 224 L810 191 Z M368 123 L369 124 L368 128 L369 132 L368 140 L369 141 L369 336 L368 337 L339 338 L338 339 L311 340 L310 341 L299 341 L298 342 L297 341 L289 343 L273 344 L272 343 L272 189 L271 188 L259 189 L258 190 L245 191 L244 192 L211 197 L172 207 L152 215 L151 214 L151 173 L154 170 L173 161 L198 153 L238 143 L248 142 L263 138 L268 138 L274 136 L279 136 L280 135 L285 135 L286 134 L291 134 L304 131 Z M714 121 L780 128 L781 129 L798 131 L799 132 L809 133 L810 134 L834 138 L839 140 L843 140 L863 145 L867 147 L870 147 L874 149 L877 149 L898 156 L914 163 L923 170 L924 186 L925 187 L925 216 L924 217 L894 206 L891 206 L884 203 L852 195 L832 192 L826 190 L821 190 L820 189 L815 189 L814 188 L809 188 L807 190 L808 337 L809 338 L809 342 L808 343 L796 342 L795 341 L786 341 L785 340 L772 340 L771 339 L744 338 L743 337 L728 337 L727 336 L715 336 L714 335 L714 195 L713 194 L713 122 Z M422 187 L477 149 L540 110 L545 114 L555 119 L601 147 L660 187 L659 191 L659 204 L660 205 L660 270 L659 271 L580 215 L547 193 L539 189 L479 230 L423 271 L422 270 Z M419 186 L419 273 L421 276 L487 228 L497 222 L539 192 L542 193 L569 211 L659 275 L661 275 L663 273 L663 187 L662 185 L643 171 L594 139 L540 107 L523 116 L485 141 L482 142 L423 182 Z M155 112 L167 105 L177 102 L180 100 L186 99 L213 90 L228 87 L232 85 L248 81 L252 81 L270 76 L274 76 L284 73 L288 73 L314 67 L319 67 L325 65 L330 65 L331 64 L336 64 L337 63 L342 63 L343 62 L348 62 L361 59 L367 59 L374 57 L386 56 L387 57 L386 58 L386 335 L385 336 L374 336 L373 337 L372 336 L372 123 L370 120 L353 121 L352 122 L345 122 L344 123 L337 123 L336 124 L308 127 L307 128 L283 131 L277 133 L272 133 L271 134 L237 140 L201 149 L175 157 L155 166 L149 171 L148 170 L148 122 L151 116 Z M919 107 L925 113 L926 116 L926 166 L925 167 L920 163 L893 151 L864 142 L840 136 L836 136 L831 134 L827 134 L822 132 L789 127 L788 126 L783 126 L782 125 L775 125 L768 123 L744 121 L743 120 L723 119 L722 118 L712 118 L710 120 L711 335 L710 336 L709 335 L697 335 L696 334 L696 286 L695 285 L695 145 L694 144 L694 55 L693 54 L694 53 L699 53 L700 54 L707 54 L708 55 L715 55 L716 56 L729 57 L736 59 L742 59 L743 60 L772 64 L773 65 L792 68 L797 70 L801 70 L806 72 L810 72 L819 75 L823 75 L847 81 L851 83 L858 84 L869 88 L872 88 L904 99 Z M410 53 L411 54 L411 334 L410 335 L390 336 L389 335 L389 56 L390 55 Z M671 50 L672 51 L682 51 L683 52 L690 52 L691 53 L692 285 L693 286 L693 334 L692 335 L672 334 L671 333 L671 225 L670 224 L670 51 Z M415 52 L445 50 L446 49 L458 49 L459 48 L473 48 L474 47 L525 46 L526 45 L618 46 L619 47 L636 47 L637 48 L661 49 L667 51 L667 231 L668 232 L668 333 L667 334 L663 333 L663 304 L659 298 L594 252 L540 217 L473 262 L424 298 L420 303 L420 334 L419 335 L415 335 L414 334 L414 62 L413 60 Z M394 51 L393 52 L372 54 L371 55 L359 56 L358 57 L329 61 L323 63 L318 63 L312 65 L307 65 L306 66 L277 71 L272 73 L268 73 L246 79 L242 79 L226 84 L215 86 L211 88 L204 89 L173 99 L158 106 L150 112 L145 121 L145 171 L149 175 L148 177 L148 212 L143 217 L143 224 L144 225 L143 252 L147 257 L146 324 L149 321 L150 254 L153 251 L161 247 L184 239 L212 232 L232 229 L233 228 L238 228 L239 229 L239 324 L218 329 L208 330 L203 332 L193 333 L179 337 L170 338 L166 340 L146 345 L145 343 L150 338 L149 333 L148 333 L146 339 L139 346 L140 363 L144 373 L142 377 L141 386 L140 387 L139 411 L135 413 L131 417 L126 432 L125 450 L124 451 L124 463 L113 469 L107 475 L104 483 L104 497 L108 508 L127 527 L129 604 L130 605 L130 633 L131 634 L131 667 L132 668 L132 699 L133 700 L133 729 L134 730 L135 786 L136 787 L136 814 L137 815 L138 859 L139 860 L139 880 L140 881 L142 932 L143 933 L143 938 L145 942 L150 946 L154 947 L158 950 L158 956 L159 957 L160 967 L163 977 L165 991 L176 1035 L181 1049 L181 1052 L195 1093 L205 1118 L217 1143 L219 1145 L225 1158 L234 1172 L236 1177 L255 1207 L270 1227 L291 1251 L315 1287 L338 1311 L361 1328 L390 1344 L392 1344 L406 1351 L411 1352 L416 1355 L462 1369 L466 1369 L482 1373 L488 1373 L489 1374 L506 1375 L507 1376 L519 1376 L520 1377 L558 1377 L559 1376 L570 1376 L571 1375 L588 1374 L589 1373 L594 1373 L595 1372 L609 1370 L629 1365 L654 1357 L674 1349 L698 1337 L714 1327 L737 1309 L752 1294 L805 1233 L822 1210 L840 1182 L856 1154 L858 1148 L860 1146 L860 1144 L862 1142 L872 1121 L882 1096 L883 1091 L885 1088 L897 1050 L909 998 L909 993 L910 992 L910 987 L911 986 L911 981 L914 968 L915 954 L916 953 L917 936 L920 935 L927 928 L929 923 L931 863 L932 862 L932 835 L933 834 L933 808 L934 807 L935 754 L936 753 L936 727 L937 726 L938 662 L939 661 L939 630 L940 629 L940 595 L941 594 L943 526 L950 522 L956 515 L961 504 L963 496 L963 482 L960 475 L953 467 L945 462 L945 417 L944 414 L936 407 L936 383 L935 382 L934 373 L932 369 L936 364 L936 342 L930 336 L930 268 L929 267 L929 259 L933 256 L933 245 L932 244 L932 234 L931 233 L932 219 L928 215 L928 184 L926 176 L926 172 L929 170 L929 115 L926 109 L916 101 L898 93 L870 84 L867 84 L863 82 L841 77 L829 73 L825 73 L789 64 L784 64 L783 63 L763 60 L762 59 L757 59 L756 58 L751 58 L750 57 L745 57 L744 56 L711 52 L710 51 L702 51 L701 50 L675 48 L674 47 L664 47 L663 46 L653 46 L652 45 L639 45 L638 44 L625 44 L624 43 L601 43 L600 42 L512 42 L511 43 L489 43 L488 44 L456 45 L455 46 L445 46 L444 47 L434 47 L433 48 L422 48 L421 49 L413 49 L412 50 L404 50 L403 51 Z" fill="#eef3f4" fill-rule="evenodd"/>
</svg>
