<svg xmlns="http://www.w3.org/2000/svg" width="1254" height="1254" viewBox="0 0 1254 1254">
  <title>0042</title>
  <path d="M909 1140 L910 1139 L911 1141 L910 1142 Z M910 1139 L911 1138 L912 1139 L911 1140 Z M911 1137 L912 1136 L913 1137 L912 1138 Z M348 1121 L349 1120 L350 1122 L349 1123 Z M347 1119 L348 1118 L349 1120 L348 1121 Z M346 1116 L347 1115 L348 1117 L347 1118 Z M345 1114 L346 1113 L347 1115 L346 1116 Z M434 1112 L435 1111 L436 1112 L435 1113 Z M344 1111 L345 1110 L346 1112 L345 1113 Z M435 1110 L436 1109 L437 1110 L436 1111 Z M436 1108 L437 1107 L438 1109 L437 1110 Z M343 1108 L344 1107 L345 1109 L344 1110 Z M342 1105 L343 1104 L344 1106 L343 1107 Z M342 1100 L343 1101 L342 1104 L341 1103 Z M341 1097 L342 1098 L341 1101 L340 1100 Z M848 1093 L849 1092 L850 1093 L849 1094 Z M864 1091 L867 1098 L869 1108 L871 1111 L875 1129 L883 1144 L887 1148 L891 1150 L897 1150 L904 1146 L909 1141 L910 1142 L910 1144 L896 1172 L892 1175 L885 1174 L878 1167 L873 1157 L863 1124 L866 1122 L866 1114 L863 1104 L863 1092 Z M847 1090 L848 1089 L849 1091 L848 1092 Z M351 1088 L351 1094 L353 1102 L362 1122 L369 1130 L373 1132 L378 1130 L380 1128 L382 1122 L381 1111 L378 1105 L371 1099 L372 1102 L375 1105 L379 1115 L378 1125 L375 1128 L371 1128 L361 1118 L358 1112 Z M1009 1068 L1010 1067 L1011 1068 L1010 1069 Z M919 1047 L916 1048 L908 1056 L902 1065 L895 1079 L889 1096 L889 1100 L887 1106 L887 1113 L886 1114 L886 1121 L889 1132 L894 1137 L902 1136 L910 1128 L910 1127 L902 1133 L899 1134 L895 1133 L892 1129 L890 1122 L890 1110 L891 1109 L891 1103 L896 1083 L908 1061 L916 1052 L919 1054 L919 1061 L918 1062 L917 1071 L915 1073 L913 1070 L911 1070 L908 1073 L908 1074 L911 1074 L913 1077 L913 1082 L911 1090 L913 1089 L917 1081 L922 1064 L922 1052 Z M437 1107 L437 1105 L444 1092 L444 1090 L471 1037 L473 1035 L484 1014 L498 994 L515 977 L527 969 L533 966 L550 961 L567 960 L568 959 L595 959 L596 960 L606 960 L607 961 L614 961 L615 962 L635 964 L636 965 L647 965 L648 966 L668 966 L669 965 L680 965 L681 964 L707 962 L708 961 L738 961 L739 962 L752 963 L769 968 L779 973 L790 981 L803 995 L810 1005 L828 1038 L828 1040 L839 1063 L840 1068 L848 1087 L847 1090 L826 1050 L804 1016 L789 1000 L781 994 L770 988 L758 984 L748 983 L747 982 L717 981 L716 980 L598 980 L597 979 L592 979 L591 980 L561 980 L560 981 L553 981 L552 982 L542 983 L522 992 L514 998 L501 1011 L487 1031 L463 1072 L458 1078 L441 1105 L438 1108 Z M392 944 L393 943 L394 944 L393 945 Z M906 943 L909 946 L924 954 L935 955 L941 952 L947 946 L951 939 L952 940 L951 960 L950 961 L950 970 L949 971 L949 982 L948 983 L948 992 L947 993 L947 1004 L946 1005 L946 1013 L945 1014 L943 1006 L941 1004 L941 996 L936 984 L930 976 L913 958 L905 945 Z M951 938 L952 937 L953 938 L952 939 Z M349 1125 L350 1122 L361 1140 L370 1149 L376 1152 L385 1152 L393 1148 L397 1144 L405 1132 L414 1113 L426 1083 L456 1024 L471 998 L488 974 L503 958 L518 947 L528 942 L548 936 L560 935 L561 934 L571 934 L572 933 L592 933 L593 934 L609 935 L633 944 L649 946 L650 947 L676 946 L677 945 L686 944 L702 938 L713 937 L714 936 L743 937 L744 938 L751 938 L752 939 L757 939 L769 942 L789 952 L798 959 L815 977 L825 992 L839 1019 L847 1040 L850 1045 L861 1078 L861 1083 L862 1084 L862 1089 L861 1090 L862 1108 L864 1113 L864 1121 L863 1122 L861 1119 L861 1116 L854 1097 L853 1091 L851 1088 L849 1080 L839 1055 L832 1041 L832 1039 L814 1005 L801 987 L788 975 L779 969 L771 965 L755 960 L744 959 L743 958 L730 958 L729 957 L702 958 L701 959 L685 960 L684 961 L677 961 L676 962 L641 962 L640 961 L632 961 L631 960 L625 960 L624 959 L618 959 L610 957 L602 957 L601 956 L561 956 L560 957 L553 957 L540 960 L522 968 L504 982 L492 996 L477 1019 L454 1064 L452 1066 L449 1074 L437 1097 L437 1099 L433 1106 L423 1131 L412 1153 L405 1163 L396 1172 L386 1177 L378 1176 L373 1170 L361 1151 Z M327 928 L330 938 L335 948 L342 956 L347 959 L351 960 L362 959 L389 946 L391 944 L393 945 L390 952 L378 968 L353 991 L348 998 L341 1013 L337 1029 L336 1045 L335 1046 L336 1069 L337 1070 L337 1077 L341 1094 L340 1098 L334 1081 L330 1064 L329 1054 L328 1053 L327 950 L326 949 L326 929 Z M954 910 L955 911 L954 914 L953 913 Z M949 875 L950 874 L951 875 L950 876 Z M942 864 L945 874 L947 876 L949 875 L950 876 L950 880 L946 889 L944 887 L943 879 L942 878 L942 871 L941 870 L941 865 Z M348 864 L349 865 L348 869 L347 868 Z M941 859 L942 860 L941 863 L940 862 Z M349 859 L350 860 L350 864 L349 865 L348 864 L348 860 Z M942 817 L946 825 L947 836 L943 839 L942 845 L940 847 L939 846 L939 831 L940 830 L940 822 Z M347 816 L350 819 L351 829 L352 830 L351 856 L350 857 L349 856 L349 845 L345 836 L344 840 L343 841 L342 840 L342 828 L344 821 Z M941 812 L939 814 L937 820 L936 852 L937 853 L937 864 L938 865 L938 873 L939 874 L940 885 L943 893 L945 894 L948 891 L951 885 L952 877 L953 876 L953 870 L955 863 L955 842 L954 842 L953 860 L951 868 L948 873 L944 864 L944 843 L945 842 L946 845 L948 846 L949 843 L949 825 L945 815 Z M349 812 L347 812 L344 815 L340 825 L340 831 L339 832 L339 838 L340 839 L341 847 L343 849 L345 846 L347 851 L345 867 L341 874 L338 871 L336 866 L335 858 L334 857 L334 846 L333 846 L332 850 L332 862 L336 874 L339 877 L342 877 L344 875 L347 868 L348 869 L346 882 L344 885 L343 890 L341 892 L336 884 L334 876 L333 877 L336 890 L341 897 L344 895 L349 883 L351 875 L351 870 L352 869 L352 864 L353 863 L353 854 L354 853 L354 822 L353 818 Z M644 803 L645 802 L646 803 L645 804 Z M757 782 L758 781 L759 783 L758 784 Z M756 779 L757 778 L758 780 L757 781 Z M755 777 L756 776 L757 778 L756 779 Z M754 776 L755 775 L756 776 L755 777 Z M761 767 L760 768 L762 769 L769 779 L774 790 L775 799 L776 800 L775 815 L773 821 L766 833 L755 843 L750 845 L747 848 L759 843 L771 832 L776 823 L779 813 L779 806 L780 805 L779 804 L779 796 L776 786 L769 774 Z M704 767 L705 766 L706 768 L705 769 Z M556 766 L547 775 L542 784 L539 795 L539 811 L541 819 L547 830 L555 838 L567 845 L549 827 L545 819 L542 808 L543 791 L547 780 L552 772 L558 766 Z M344 751 L345 750 L346 751 L345 752 Z M941 743 L942 742 L943 743 L942 744 Z M600 746 L589 741 L576 741 L558 747 L550 751 L538 760 L520 780 L511 794 L505 806 L505 808 L500 817 L498 824 L495 829 L477 874 L470 888 L453 915 L442 930 L421 955 L393 983 L366 1006 L355 1020 L349 1036 L348 1045 L347 1046 L347 1070 L351 1086 L352 1086 L350 1077 L350 1049 L351 1048 L353 1034 L360 1018 L371 1006 L395 986 L423 958 L444 933 L457 915 L471 893 L479 878 L499 828 L502 823 L506 811 L522 782 L538 763 L548 755 L561 747 L574 743 L587 743 L600 748 L605 753 Z M942 736 L943 735 L944 736 L943 737 Z M763 736 L764 735 L767 736 L766 737 Z M348 736 L349 735 L350 736 L349 737 Z M761 735 L762 734 L764 735 L763 736 Z M759 734 L760 733 L762 734 L761 735 Z M756 733 L757 732 L759 733 L758 734 Z M609 744 L603 738 L597 735 L587 734 L586 733 L572 734 L554 740 L539 748 L523 761 L512 774 L500 792 L498 797 L474 836 L449 868 L416 902 L399 916 L377 930 L357 938 L351 937 L347 935 L341 929 L336 920 L330 900 L329 891 L328 893 L329 906 L333 920 L339 931 L344 937 L352 941 L363 940 L392 925 L419 904 L442 881 L470 847 L485 825 L507 787 L517 773 L534 756 L545 748 L560 741 L575 737 L591 737 L598 739 L605 744 L608 749 L609 757 L610 758 L609 759 L608 770 L603 781 L590 794 L585 797 L576 799 L571 797 L568 794 L567 791 L567 787 L570 779 L576 773 L580 771 L588 770 L588 765 L585 761 L577 760 L568 764 L560 772 L557 779 L557 783 L556 784 L557 793 L561 801 L569 808 L574 808 L575 809 L576 808 L581 808 L588 805 L597 797 L585 804 L577 806 L571 805 L567 803 L563 799 L560 793 L560 780 L564 772 L570 766 L575 764 L582 764 L584 766 L573 771 L566 779 L564 785 L564 793 L568 799 L574 802 L580 802 L593 795 L602 786 L608 776 L608 772 L610 769 L612 761 L612 752 Z M754 732 L755 731 L757 732 L756 733 Z M752 731 L753 730 L754 731 L753 732 Z M749 730 L750 729 L752 730 L751 731 Z M747 729 L748 728 L750 729 L749 730 Z M548 730 L551 728 L554 729 L551 731 Z M745 728 L746 727 L747 728 L746 729 Z M553 728 L554 727 L557 728 L556 729 Z M742 727 L743 726 L745 727 L744 728 Z M556 727 L557 726 L559 727 L558 728 Z M739 726 L740 725 L743 726 L742 727 Z M559 726 L560 725 L562 726 L561 727 Z M737 725 L738 724 L740 725 L739 726 Z M562 725 L563 724 L565 725 L564 726 Z M734 724 L735 723 L737 724 L736 725 Z M565 724 L566 723 L568 724 L567 725 Z M731 723 L732 722 L735 723 L734 724 Z M568 723 L569 722 L571 723 L570 724 Z M728 722 L729 721 L732 722 L731 723 Z M572 722 L573 721 L575 722 L574 723 Z M724 721 L725 720 L729 721 L728 722 Z M576 721 L577 720 L579 721 L578 722 Z M580 720 L581 719 L584 720 L583 721 Z M724 719 L725 720 L724 721 L716 720 L708 722 L703 726 L700 733 L700 746 L705 764 L704 767 L699 757 L696 746 L696 741 L695 740 L696 726 L698 722 L704 717 L716 717 Z M584 719 L591 717 L606 716 L607 717 L613 717 L620 721 L625 727 L628 735 L628 752 L627 753 L626 752 L626 749 L620 731 L614 724 L604 720 L597 720 L596 719 L594 720 L585 720 Z M1007 700 L1008 699 L1009 701 L1008 702 Z M739 686 L740 685 L741 687 L740 688 Z M564 686 L565 685 L566 686 L565 687 Z M565 684 L566 683 L567 684 L566 685 Z M249 682 L253 694 L257 715 L261 728 L261 732 L267 758 L267 763 L269 769 L269 774 L270 775 L270 781 L271 782 L272 795 L273 796 L273 804 L274 805 L275 825 L276 826 L277 864 L278 865 L278 930 L277 931 L277 953 L276 954 L276 968 L275 969 L273 996 L272 997 L270 1013 L264 1038 L257 1058 L251 1069 L249 1067 L248 1063 L248 1033 L249 1032 L249 1009 L250 1008 L250 989 L251 988 L251 969 L252 968 L252 949 L253 948 L253 927 L254 926 L256 834 L255 833 L255 800 L254 799 L253 761 L252 760 L251 728 L250 727 L250 714 L249 713 L249 692 L248 691 L248 683 Z M953 673 L954 674 L954 679 L953 680 L952 679 L952 674 Z M566 662 L567 661 L568 662 L567 663 Z M981 640 L980 654 L981 655 L981 659 L982 659 L982 640 Z M805 631 L815 631 L824 635 L831 642 L835 651 L835 661 L833 667 L824 677 L817 680 L805 680 L799 678 L790 670 L786 661 L786 651 L789 643 L796 635 Z M494 631 L504 630 L516 635 L521 640 L525 648 L526 657 L522 669 L517 675 L507 680 L495 680 L489 678 L481 671 L477 663 L476 653 L477 652 L477 648 L481 640 L489 633 Z M805 628 L797 631 L787 640 L783 650 L783 662 L787 671 L791 676 L798 681 L803 683 L817 683 L823 681 L829 677 L834 671 L838 660 L838 652 L834 641 L825 632 L815 628 Z M495 628 L487 631 L478 639 L474 647 L473 661 L477 671 L485 679 L493 683 L507 683 L513 681 L519 677 L525 670 L528 664 L528 660 L529 659 L528 647 L524 639 L515 631 L508 628 Z M833 621 L834 620 L835 621 L834 622 Z M785 619 L786 618 L787 619 L786 620 Z M802 617 L819 618 L833 625 L844 637 L847 643 L849 651 L849 664 L847 671 L842 680 L830 691 L816 696 L798 695 L784 688 L774 677 L770 669 L769 661 L768 660 L769 646 L776 632 L786 623 L794 619 Z M522 618 L523 617 L525 618 L524 619 Z M520 617 L521 616 L522 617 L521 618 Z M497 616 L511 617 L517 619 L527 625 L536 635 L539 641 L541 649 L541 662 L538 672 L533 680 L522 690 L516 693 L504 696 L491 695 L476 688 L466 677 L463 671 L460 659 L462 643 L469 630 L480 621 L487 618 L496 617 Z M478 617 L479 616 L481 617 L480 618 Z M363 614 L364 613 L365 615 L364 616 Z M735 678 L736 689 L739 694 L747 702 L766 713 L790 719 L819 719 L820 718 L827 718 L848 713 L888 698 L905 697 L912 699 L911 697 L906 695 L901 695 L900 694 L888 695 L871 700 L850 709 L832 714 L821 715 L820 716 L812 716 L811 717 L799 717 L798 716 L790 716 L773 712 L754 703 L746 697 L740 689 L741 687 L747 693 L760 699 L777 702 L778 703 L781 702 L759 696 L748 690 L743 684 L741 676 L746 660 L746 657 L754 642 L770 626 L783 619 L785 620 L775 628 L768 639 L765 649 L765 664 L768 673 L774 683 L781 690 L789 695 L799 699 L806 699 L807 700 L822 698 L833 693 L846 680 L850 672 L852 664 L852 649 L847 636 L842 629 L834 622 L835 621 L847 628 L859 640 L871 656 L879 669 L892 682 L891 683 L884 683 L885 684 L894 685 L905 690 L910 691 L910 690 L895 680 L883 668 L863 640 L847 624 L831 615 L816 611 L800 611 L787 614 L772 621 L763 628 L748 645 L742 658 Z M378 592 L382 595 L384 599 L385 609 L386 610 L385 624 L384 625 L384 631 L382 639 L376 656 L369 668 L362 674 L357 675 L349 668 L347 664 L345 656 L345 651 L344 650 L344 625 L345 624 L346 625 L346 636 L348 641 L348 648 L351 656 L357 661 L360 661 L364 659 L373 648 L377 640 L380 628 L380 617 L377 608 L372 606 L367 610 L365 614 L364 610 L370 597 L374 593 Z M993 591 L994 592 L996 590 L1000 589 L1005 592 L1002 588 L999 587 L996 588 Z M917 586 L920 587 L923 591 L927 604 L926 607 L923 604 L920 604 L918 606 L915 614 L915 630 L919 645 L923 653 L928 659 L931 659 L935 655 L937 647 L938 646 L939 647 L937 661 L934 669 L930 674 L927 674 L920 665 L916 654 L913 642 L913 637 L912 636 L910 607 L911 606 L912 594 L914 589 Z M249 578 L250 577 L251 578 L250 579 Z M993 569 L998 569 L1006 577 L1009 584 L1011 598 L1012 599 L1012 638 L1011 639 L1010 665 L1009 666 L1007 688 L1005 694 L1005 700 L1004 701 L1002 718 L1001 719 L1002 720 L1004 709 L1007 703 L1008 704 L1008 727 L1007 728 L1005 815 L1004 816 L1004 915 L1005 916 L1005 943 L1006 944 L1007 987 L1008 988 L1010 1037 L1011 1038 L1011 1066 L1009 1068 L1006 1064 L1003 1056 L996 1027 L995 1015 L994 1014 L993 1002 L992 1001 L992 994 L991 993 L990 971 L989 970 L989 953 L988 952 L988 869 L989 868 L990 829 L991 828 L991 816 L992 815 L992 802 L993 801 L994 782 L995 781 L996 765 L997 764 L997 757 L998 756 L998 750 L1000 743 L1002 723 L1000 725 L1000 729 L997 740 L994 764 L993 765 L993 771 L992 772 L991 788 L990 789 L988 823 L987 824 L987 838 L986 839 L985 893 L984 894 L985 953 L986 954 L986 970 L987 971 L988 992 L989 993 L990 1008 L991 1009 L993 1026 L1000 1055 L1005 1068 L1010 1073 L1009 1080 L1006 1087 L1002 1081 L996 1065 L996 1062 L993 1055 L988 1035 L987 1025 L985 1019 L983 1000 L982 999 L982 991 L981 990 L981 982 L980 981 L979 950 L978 949 L978 914 L977 913 L979 844 L980 843 L980 828 L981 827 L981 816 L982 815 L984 785 L985 784 L985 777 L986 776 L990 744 L991 743 L994 724 L996 719 L996 714 L998 709 L998 703 L999 702 L1003 669 L1004 668 L1004 658 L1005 657 L1005 638 L1006 637 L1005 635 L1006 631 L1005 611 L1004 610 L1003 602 L998 596 L994 597 L991 600 L988 606 L986 614 L986 619 L985 620 L986 626 L987 627 L990 626 L992 629 L992 643 L991 644 L990 660 L989 661 L990 681 L984 694 L982 696 L978 692 L975 683 L974 670 L973 669 L972 645 L973 644 L974 617 L975 616 L975 609 L976 608 L978 593 L984 577 L989 571 Z M275 562 L279 564 L285 570 L289 577 L294 595 L295 607 L296 608 L296 617 L297 618 L297 655 L296 656 L296 663 L292 677 L289 683 L285 687 L282 687 L279 685 L275 676 L275 645 L272 637 L272 625 L273 624 L274 626 L281 620 L284 612 L285 613 L285 620 L286 621 L286 649 L285 650 L285 655 L282 667 L278 672 L278 674 L281 674 L285 667 L288 654 L288 645 L289 644 L288 620 L287 619 L286 611 L284 609 L284 601 L280 588 L271 579 L264 579 L260 581 L259 583 L267 581 L272 583 L276 587 L281 600 L281 614 L280 615 L279 614 L279 609 L275 599 L269 594 L264 595 L260 599 L255 612 L254 627 L253 628 L253 639 L254 640 L255 660 L256 661 L256 666 L258 672 L260 687 L277 748 L279 763 L281 769 L281 774 L282 775 L282 781 L283 782 L285 807 L286 808 L286 817 L287 818 L287 830 L288 831 L288 849 L289 850 L290 920 L289 921 L289 942 L288 943 L288 958 L287 959 L286 981 L285 982 L285 990 L284 991 L284 998 L283 999 L283 1005 L282 1006 L280 1022 L277 1031 L276 1039 L267 1066 L260 1081 L254 1089 L250 1083 L249 1073 L254 1070 L259 1060 L266 1040 L273 1010 L274 998 L276 991 L276 984 L277 983 L279 950 L280 949 L280 929 L281 928 L281 856 L280 855 L279 825 L278 824 L278 813 L277 812 L275 788 L274 787 L273 775 L272 774 L272 769 L271 768 L271 763 L270 762 L270 757 L266 742 L266 738 L259 710 L255 699 L255 696 L253 693 L251 680 L250 679 L250 674 L248 668 L247 652 L246 651 L246 638 L245 637 L245 621 L246 620 L246 607 L247 606 L247 600 L252 583 L258 571 L265 564 L269 562 Z M982 539 L993 539 L1000 544 L1004 552 L1009 571 L1008 575 L1005 570 L1000 566 L992 566 L988 568 L981 576 L974 595 L972 611 L971 612 L971 620 L970 621 L970 632 L969 633 L969 664 L970 665 L971 681 L976 695 L980 699 L983 699 L986 697 L989 691 L992 678 L992 668 L993 667 L993 658 L994 657 L994 648 L995 647 L995 626 L992 621 L990 623 L989 622 L989 614 L991 607 L996 599 L1001 606 L1002 614 L1003 615 L1003 624 L1004 625 L1003 667 L1002 668 L1001 681 L999 687 L998 697 L992 719 L992 723 L990 728 L989 738 L987 744 L987 749 L985 755 L981 793 L980 794 L979 815 L978 816 L978 825 L977 826 L977 838 L976 839 L976 856 L975 857 L974 939 L975 940 L975 959 L976 960 L977 984 L978 985 L979 1002 L980 1003 L980 1010 L981 1011 L983 1028 L992 1064 L998 1080 L1003 1088 L1002 1089 L994 1089 L987 1087 L970 1078 L953 1062 L944 1049 L947 1025 L948 1024 L948 1018 L949 1017 L949 1010 L950 1009 L952 978 L953 977 L953 966 L954 965 L954 954 L955 953 L955 942 L956 941 L956 928 L957 927 L957 918 L958 917 L959 905 L960 904 L962 873 L963 872 L963 857 L964 856 L964 811 L963 810 L962 791 L956 765 L951 753 L947 739 L947 727 L954 706 L955 695 L956 694 L956 686 L957 685 L957 672 L958 671 L958 615 L957 614 L957 597 L958 596 L959 581 L960 580 L963 563 L971 544 Z M486 536 L487 535 L488 536 L487 537 Z M411 535 L416 542 L428 548 L425 545 L420 543 Z M349 534 L346 543 L343 548 L343 551 L341 554 L341 557 L337 568 L337 572 L335 577 L335 581 L330 601 L329 615 L328 616 L328 628 L327 629 L327 662 L328 663 L330 679 L336 694 L345 704 L350 706 L357 706 L379 697 L387 695 L392 695 L393 694 L402 694 L403 695 L416 697 L438 705 L441 705 L451 709 L463 712 L467 712 L478 715 L484 715 L485 716 L503 717 L504 716 L523 715 L543 709 L559 700 L566 693 L569 688 L571 681 L570 664 L568 657 L566 660 L565 659 L563 650 L555 635 L547 627 L539 621 L525 614 L509 610 L492 610 L475 614 L458 623 L445 635 L431 655 L419 667 L405 677 L387 687 L397 685 L407 681 L418 679 L419 678 L413 678 L412 677 L420 671 L432 659 L446 639 L462 624 L473 618 L478 617 L479 618 L474 621 L464 631 L458 645 L457 662 L462 677 L466 683 L473 690 L479 694 L489 698 L507 699 L520 695 L528 690 L536 682 L542 671 L544 664 L544 646 L542 640 L535 628 L524 619 L527 618 L541 626 L549 634 L557 645 L561 654 L563 662 L564 679 L562 683 L553 691 L544 695 L526 700 L532 700 L551 695 L560 690 L564 686 L565 687 L564 690 L555 699 L544 705 L522 712 L517 712 L516 713 L508 713 L507 714 L504 713 L487 713 L486 712 L470 710 L461 707 L453 706 L418 694 L405 691 L388 691 L387 692 L383 692 L367 699 L353 703 L345 700 L339 693 L331 673 L330 663 L329 662 L329 625 L330 624 L330 618 L331 617 L334 594 L338 580 L338 575 L340 570 L341 561 L350 535 Z M281 530 L291 533 L293 535 L295 535 L299 539 L306 549 L314 567 L318 584 L320 604 L321 605 L321 637 L320 638 L320 671 L321 672 L321 680 L328 706 L333 716 L347 730 L347 732 L342 746 L331 769 L326 784 L323 797 L323 803 L322 804 L321 803 L320 775 L319 773 L318 774 L318 805 L319 806 L319 822 L320 823 L320 830 L319 831 L319 869 L320 870 L321 898 L322 899 L322 907 L323 908 L324 1032 L325 1033 L325 1046 L326 1049 L304 1071 L292 1080 L283 1085 L272 1089 L259 1090 L258 1089 L264 1081 L272 1063 L283 1025 L283 1021 L286 1010 L286 1004 L287 1003 L288 987 L289 986 L291 953 L292 952 L292 934 L293 933 L293 868 L292 867 L292 849 L291 848 L291 830 L290 829 L289 805 L288 804 L288 796 L287 795 L287 789 L284 776 L283 764 L278 744 L278 740 L274 724 L272 720 L272 717 L270 713 L270 710 L268 706 L268 703 L263 689 L263 685 L256 657 L255 635 L256 634 L256 622 L257 621 L257 616 L259 608 L264 599 L267 597 L270 597 L274 601 L277 608 L277 619 L276 620 L272 614 L269 618 L268 622 L268 635 L270 643 L272 646 L272 674 L273 675 L273 679 L276 686 L280 690 L288 689 L293 683 L297 674 L299 666 L299 661 L300 660 L300 652 L301 651 L301 625 L300 624 L300 612 L299 611 L299 605 L298 604 L296 588 L294 584 L293 578 L287 567 L281 561 L274 558 L270 558 L260 563 L255 569 L251 577 L250 574 L251 573 L254 556 L261 539 L267 533 L271 531 Z M903 518 L904 517 L905 518 L904 519 Z M340 513 L335 516 L322 528 L310 536 L316 535 L322 531 Z M881 506 L882 505 L883 506 L882 507 Z M749 496 L750 495 L751 497 L750 498 Z M458 490 L459 489 L460 490 L459 491 Z M554 489 L555 488 L556 489 L555 490 Z M550 489 L551 488 L552 489 L551 490 Z M755 488 L752 493 L747 497 L735 514 L733 519 L733 524 L734 524 L734 521 L737 513 L742 510 L743 506 L749 497 L750 498 L749 501 L751 501 L755 491 Z M421 484 L422 487 L426 490 Z M845 483 L843 483 L836 493 L838 494 L840 493 Z M801 482 L791 487 L786 493 L795 487 L797 488 L801 484 Z M526 479 L526 481 L534 489 L551 503 L556 505 L538 488 Z M904 516 L903 518 L896 520 L892 524 L884 537 L878 544 L872 548 L866 550 L853 550 L851 548 L860 542 L863 539 L863 537 L862 538 L860 537 L858 540 L848 546 L840 548 L832 548 L817 540 L824 536 L824 534 L802 539 L791 544 L781 545 L778 544 L774 540 L782 532 L781 531 L762 542 L744 557 L725 569 L721 566 L719 562 L719 558 L718 557 L718 551 L720 547 L719 544 L719 534 L723 520 L730 507 L747 489 L756 483 L757 484 L757 492 L758 493 L758 501 L759 502 L759 512 L772 500 L778 491 L788 481 L795 478 L807 476 L808 477 L806 479 L805 483 L805 499 L804 502 L811 498 L817 497 L823 493 L825 493 L834 484 L840 480 L847 479 L848 480 L847 481 L847 495 L846 496 L846 501 L844 509 L849 506 L861 502 L873 495 L881 494 L882 495 L879 502 L877 516 L884 509 L889 507 L893 507 L899 510 Z M908 517 L906 513 L898 505 L895 504 L888 504 L884 506 L882 505 L884 497 L886 494 L883 490 L874 491 L860 499 L849 503 L848 502 L850 496 L850 485 L852 477 L850 475 L845 475 L837 478 L828 486 L825 491 L816 493 L809 496 L808 495 L808 484 L812 474 L811 473 L802 473 L801 474 L793 475 L784 480 L775 489 L771 496 L763 504 L761 499 L761 480 L757 479 L745 486 L730 501 L725 508 L718 523 L717 531 L716 532 L716 542 L718 547 L715 553 L715 561 L719 570 L724 573 L746 560 L762 546 L765 545 L771 540 L772 541 L772 544 L770 546 L771 547 L775 546 L782 549 L786 549 L807 541 L812 541 L821 547 L832 552 L838 552 L843 550 L847 550 L854 554 L865 554 L872 552 L877 549 L886 540 L893 528 L898 523 L900 522 L907 523 L908 522 Z M464 466 L465 468 L468 469 L475 475 L487 482 L504 495 L506 495 L495 484 L480 473 L469 467 Z M381 523 L383 519 L390 512 L396 509 L407 506 L417 506 L422 510 L423 509 L421 507 L416 492 L410 486 L418 482 L424 482 L425 483 L433 484 L445 489 L459 493 L467 498 L467 496 L463 491 L459 483 L455 472 L448 464 L449 463 L469 463 L479 466 L492 474 L505 485 L521 495 L517 487 L513 473 L510 468 L512 466 L533 478 L545 489 L551 493 L557 500 L561 509 L563 509 L555 491 L556 489 L572 505 L581 517 L585 525 L588 535 L589 544 L587 552 L583 556 L561 545 L544 540 L527 533 L527 535 L534 540 L532 542 L529 543 L514 543 L506 541 L484 531 L484 533 L487 535 L485 537 L479 537 L461 543 L447 542 L437 538 L437 540 L445 545 L438 549 L423 550 L408 545 L402 541 L388 526 L385 525 L382 526 Z M377 525 L377 532 L382 529 L386 529 L402 545 L410 550 L419 553 L428 553 L429 554 L430 553 L436 553 L442 551 L448 545 L455 547 L461 547 L470 543 L481 540 L496 540 L504 544 L514 547 L532 546 L539 541 L545 544 L562 549 L581 559 L585 559 L590 554 L592 547 L592 537 L588 524 L584 516 L573 501 L554 483 L552 482 L550 483 L551 487 L550 489 L533 474 L522 467 L508 461 L506 461 L504 464 L512 479 L512 482 L514 485 L513 487 L489 468 L478 462 L472 460 L465 460 L464 459 L446 460 L443 463 L452 474 L459 489 L458 490 L447 485 L426 479 L416 479 L407 483 L406 486 L412 492 L417 502 L416 503 L401 504 L388 509 L382 515 Z M831 436 L820 435 L819 434 L788 435 L763 442 L740 453 L726 462 L715 471 L701 486 L691 501 L681 523 L674 553 L673 581 L674 582 L674 592 L677 605 L687 626 L687 636 L684 644 L684 659 L686 665 L686 671 L683 682 L674 696 L670 705 L667 718 L667 724 L666 725 L666 747 L667 748 L667 759 L668 760 L669 775 L670 776 L671 787 L673 793 L675 811 L678 823 L678 829 L682 844 L685 850 L690 854 L692 854 L695 851 L707 844 L715 842 L724 842 L738 847 L741 847 L744 844 L744 838 L737 830 L722 824 L711 822 L702 814 L698 808 L690 792 L684 775 L682 760 L681 759 L681 753 L680 752 L680 744 L679 743 L679 728 L680 727 L681 716 L683 712 L684 706 L689 696 L693 691 L696 683 L695 671 L692 660 L692 651 L696 641 L697 632 L694 625 L693 614 L690 605 L689 593 L688 592 L688 570 L689 569 L689 561 L690 560 L692 544 L699 522 L712 500 L715 493 L734 475 L753 463 L764 458 L787 451 L797 450 L798 449 L807 449 L808 448 L826 448 L827 449 L835 449 L836 450 L841 450 L853 453 L867 459 L888 473 L902 487 L914 504 L922 520 L930 544 L933 561 L934 562 L935 573 L936 574 L937 588 L938 589 L938 599 L939 600 L939 632 L938 633 L938 640 L936 648 L931 656 L926 655 L922 651 L920 647 L920 643 L918 637 L917 616 L919 609 L921 607 L923 608 L926 615 L927 631 L929 630 L930 621 L931 620 L931 610 L930 609 L930 602 L928 595 L924 587 L918 582 L915 583 L912 586 L909 592 L908 602 L907 603 L907 622 L908 623 L908 631 L909 632 L909 638 L910 639 L912 653 L917 667 L920 672 L926 678 L930 678 L935 673 L937 669 L941 653 L941 648 L942 647 L942 632 L943 631 L942 593 L941 592 L941 583 L940 582 L939 569 L938 568 L935 549 L927 523 L917 502 L906 486 L890 470 L874 459 L860 452 L848 448 L832 446 L831 445 L804 445 L803 446 L796 446 L795 447 L785 448 L765 454 L740 467 L726 478 L715 490 L715 492 L709 498 L703 507 L695 524 L688 547 L686 563 L685 564 L685 597 L694 628 L693 641 L691 644 L689 652 L689 658 L693 674 L693 683 L690 690 L686 695 L679 711 L677 725 L676 726 L676 745 L677 746 L677 755 L678 756 L678 760 L679 761 L683 782 L690 800 L700 817 L708 824 L722 827 L734 832 L740 838 L741 843 L739 844 L726 839 L714 839 L700 844 L691 851 L688 848 L685 842 L681 825 L675 785 L673 779 L671 756 L670 755 L670 742 L669 741 L669 731 L670 730 L670 721 L671 720 L672 710 L679 694 L687 681 L688 677 L688 663 L686 656 L686 648 L689 640 L689 628 L681 609 L678 592 L677 591 L677 582 L676 581 L677 555 L678 554 L679 542 L684 524 L696 499 L707 484 L725 467 L743 455 L764 445 L784 439 L789 439 L796 437 L807 437 L808 436 L832 437 Z M453 438 L453 439 L455 439 L456 438 L461 438 L468 436 L478 436 L479 435 L497 435 L498 436 L506 436 L507 437 L527 440 L552 449 L572 460 L592 475 L610 495 L621 514 L626 527 L631 548 L632 580 L631 581 L631 588 L627 604 L620 618 L617 628 L617 633 L621 649 L620 657 L618 662 L618 669 L622 678 L639 694 L645 704 L650 719 L650 724 L652 731 L652 741 L653 742 L653 761 L652 762 L652 772 L651 773 L649 789 L648 790 L647 789 L645 800 L643 803 L643 806 L644 805 L645 807 L633 845 L629 848 L619 842 L610 839 L593 839 L582 844 L578 844 L577 843 L577 838 L583 832 L593 827 L606 827 L619 820 L625 814 L634 801 L642 781 L642 776 L645 767 L645 761 L646 760 L646 728 L639 706 L631 695 L615 680 L612 669 L616 655 L616 649 L612 639 L610 627 L612 619 L621 600 L623 592 L623 586 L624 585 L624 564 L623 563 L622 550 L619 538 L612 519 L599 498 L580 478 L565 467 L542 455 L525 449 L512 447 L511 446 L506 446 L505 445 L475 444 L474 445 L466 445 L465 446 L454 447 L436 452 L423 458 L404 471 L386 491 L377 505 L370 518 L358 549 L358 552 L353 566 L351 578 L348 587 L348 591 L344 607 L344 612 L343 613 L343 619 L342 620 L341 640 L342 641 L342 652 L346 668 L353 677 L355 678 L362 678 L364 677 L373 668 L380 655 L384 644 L387 632 L387 627 L388 626 L388 618 L389 617 L388 601 L385 594 L380 589 L375 589 L367 596 L363 604 L360 615 L360 627 L363 635 L364 635 L364 623 L366 617 L370 611 L373 609 L376 612 L377 615 L378 629 L377 630 L376 639 L372 649 L367 654 L360 658 L357 658 L353 654 L349 644 L349 639 L348 638 L349 606 L350 605 L351 592 L357 566 L369 529 L377 512 L386 497 L395 485 L407 473 L423 462 L438 455 L456 450 L468 449 L469 448 L477 448 L478 447 L502 448 L503 449 L509 449 L510 450 L523 452 L543 459 L562 469 L577 480 L593 496 L605 513 L611 525 L616 539 L619 552 L619 557 L620 558 L620 566 L621 567 L621 586 L617 602 L613 611 L611 613 L607 626 L608 636 L613 649 L613 656 L610 664 L610 675 L616 686 L632 701 L636 707 L640 716 L643 728 L643 733 L644 734 L644 759 L643 760 L643 766 L638 786 L631 800 L623 811 L613 820 L601 825 L588 826 L579 831 L575 835 L573 839 L573 843 L575 846 L580 848 L596 842 L607 842 L618 845 L628 851 L632 851 L636 846 L639 839 L652 794 L654 777 L655 776 L655 768 L656 767 L656 737 L655 736 L655 729 L654 728 L654 723 L652 715 L644 696 L626 678 L621 669 L621 662 L623 655 L623 644 L620 634 L620 627 L623 619 L623 616 L629 605 L632 596 L633 588 L634 587 L634 581 L635 580 L635 556 L634 555 L633 543 L629 527 L623 511 L608 487 L589 468 L575 458 L553 446 L528 437 L515 435 L514 434 L508 434 L507 433 L476 433 L475 434 L468 434 Z M403 452 L422 441 L455 428 L494 419 L506 418 L513 416 L521 416 L522 415 L547 414 L548 413 L566 413 L567 412 L588 412 L589 411 L634 410 L642 412 L653 420 L661 421 L664 420 L675 412 L682 412 L683 411 L685 412 L713 412 L714 413 L748 414 L749 415 L773 416 L774 417 L803 420 L804 421 L826 425 L853 434 L878 446 L892 455 L902 463 L915 476 L922 485 L935 509 L942 529 L948 555 L950 574 L951 575 L951 583 L952 584 L952 595 L953 596 L953 650 L952 651 L952 662 L951 663 L951 670 L949 676 L949 681 L945 694 L941 702 L938 705 L933 706 L923 701 L926 705 L933 709 L936 709 L940 707 L944 703 L947 697 L951 684 L951 680 L952 679 L953 680 L953 690 L952 691 L951 703 L950 704 L949 712 L943 727 L943 734 L942 735 L940 733 L935 724 L927 716 L915 711 L900 712 L869 724 L857 727 L852 727 L851 728 L844 728 L843 729 L815 729 L814 728 L798 727 L797 726 L776 722 L766 718 L750 710 L741 704 L733 696 L728 685 L728 669 L734 654 L736 644 L742 632 L746 626 L762 610 L777 601 L787 597 L791 597 L796 595 L814 595 L815 596 L820 596 L828 598 L843 605 L852 611 L869 628 L892 662 L901 673 L911 683 L920 689 L910 679 L896 662 L886 646 L870 624 L856 610 L841 600 L822 593 L818 593 L817 592 L796 592 L795 593 L787 594 L770 601 L757 610 L742 626 L733 642 L731 648 L730 657 L725 668 L725 686 L731 698 L737 704 L753 715 L772 724 L789 729 L794 729 L801 731 L820 732 L821 733 L837 733 L838 732 L854 731 L855 730 L863 729 L870 726 L873 726 L905 714 L913 714 L924 718 L932 725 L941 739 L942 742 L941 743 L940 742 L940 743 L946 751 L954 771 L957 784 L957 789 L958 790 L959 805 L960 806 L960 828 L959 829 L958 828 L958 820 L952 797 L949 791 L942 785 L938 785 L933 788 L927 796 L918 805 L909 810 L901 811 L900 812 L892 812 L891 811 L886 811 L878 809 L860 801 L837 784 L830 777 L805 758 L766 737 L769 736 L778 740 L810 748 L814 750 L835 754 L836 755 L848 756 L849 757 L879 757 L880 756 L890 755 L899 752 L923 739 L927 739 L936 742 L931 737 L922 736 L916 738 L906 745 L898 749 L888 752 L875 753 L874 754 L853 754 L852 753 L844 753 L843 752 L832 751 L808 745 L783 737 L780 737 L752 727 L737 720 L725 716 L711 714 L710 713 L700 715 L694 722 L692 729 L692 744 L693 745 L694 753 L698 764 L705 777 L704 796 L706 795 L706 787 L708 782 L708 775 L705 770 L706 768 L715 782 L729 799 L735 805 L744 809 L753 808 L757 805 L758 801 L751 806 L743 806 L735 802 L730 798 L720 786 L706 762 L706 759 L703 751 L702 738 L705 729 L711 724 L719 723 L740 729 L750 734 L752 734 L756 737 L758 737 L791 754 L809 765 L844 794 L857 803 L871 810 L880 813 L888 814 L889 815 L904 815 L913 812 L922 806 L932 794 L939 788 L944 790 L948 796 L952 807 L955 826 L957 831 L957 878 L956 879 L955 894 L950 915 L944 926 L939 931 L932 933 L925 931 L909 922 L895 911 L873 889 L859 871 L844 848 L821 806 L819 804 L815 795 L804 778 L786 759 L775 751 L760 743 L741 737 L735 737 L734 736 L727 736 L720 738 L715 743 L713 749 L714 758 L717 763 L724 781 L732 793 L737 798 L744 802 L751 802 L757 796 L758 797 L759 795 L758 793 L758 784 L759 783 L761 791 L762 790 L761 780 L758 773 L753 769 L755 774 L754 776 L750 772 L742 769 L746 765 L750 765 L751 766 L750 767 L751 767 L752 764 L748 762 L744 762 L740 764 L739 771 L745 776 L744 775 L745 774 L749 775 L753 780 L755 786 L755 793 L749 799 L744 799 L739 796 L732 789 L727 782 L720 767 L719 756 L721 752 L726 747 L732 745 L738 745 L751 749 L771 760 L785 773 L795 788 L803 804 L813 832 L813 835 L817 847 L819 850 L822 861 L827 871 L829 878 L852 921 L867 943 L882 962 L923 1003 L927 1009 L930 1017 L932 1037 L931 1038 L931 1051 L930 1052 L929 1064 L928 1065 L926 1079 L921 1096 L915 1110 L911 1116 L904 1122 L902 1122 L899 1119 L898 1116 L898 1096 L896 1100 L894 1111 L895 1112 L895 1117 L898 1124 L902 1126 L909 1123 L913 1119 L920 1104 L924 1092 L924 1089 L930 1073 L933 1053 L934 1052 L934 1044 L935 1043 L935 1027 L934 1026 L934 1020 L932 1012 L925 1000 L893 969 L880 954 L864 933 L851 913 L834 881 L820 846 L819 840 L808 808 L798 787 L792 778 L774 760 L768 757 L762 752 L750 746 L736 742 L728 743 L724 745 L719 750 L717 754 L716 753 L717 746 L724 740 L740 740 L759 746 L767 750 L784 762 L799 777 L809 791 L838 844 L863 882 L871 892 L893 914 L906 924 L923 934 L929 936 L934 936 L940 934 L945 930 L950 922 L952 915 L953 914 L954 915 L953 923 L949 936 L945 943 L938 950 L935 951 L924 950 L914 945 L899 935 L901 943 L907 955 L915 966 L928 979 L935 989 L939 999 L940 1008 L942 1009 L942 1038 L941 1039 L941 1046 L932 1085 L924 1108 L910 1136 L901 1145 L897 1147 L892 1147 L887 1144 L882 1137 L870 1106 L870 1101 L866 1084 L855 1049 L847 1029 L842 1020 L842 1018 L831 996 L819 977 L813 969 L801 957 L792 950 L773 940 L760 936 L749 935 L748 934 L711 933 L678 942 L654 944 L653 943 L646 943 L645 942 L635 941 L610 932 L598 931 L597 930 L565 930 L564 931 L557 931 L556 932 L551 932 L538 935 L518 943 L500 956 L490 966 L476 984 L457 1015 L430 1069 L428 1071 L428 1073 L413 1105 L409 1117 L397 1139 L389 1147 L385 1149 L373 1148 L366 1142 L367 1141 L366 1142 L363 1139 L364 1137 L371 1141 L382 1141 L387 1136 L391 1125 L391 1109 L388 1097 L382 1085 L371 1070 L364 1063 L361 1062 L358 1067 L358 1083 L361 1092 L365 1099 L367 1100 L367 1098 L368 1097 L369 1098 L366 1095 L366 1085 L368 1084 L368 1082 L367 1081 L365 1082 L363 1086 L361 1082 L361 1068 L363 1066 L376 1081 L383 1093 L387 1105 L388 1123 L385 1133 L379 1138 L372 1138 L363 1134 L357 1128 L354 1123 L346 1102 L341 1081 L341 1075 L340 1074 L340 1067 L339 1066 L339 1039 L340 1038 L341 1025 L347 1007 L354 995 L367 982 L375 976 L384 966 L393 953 L402 935 L396 937 L382 946 L365 954 L359 956 L350 956 L344 953 L340 949 L331 930 L327 914 L326 900 L325 899 L325 887 L324 886 L323 824 L324 823 L324 813 L325 812 L325 806 L326 805 L326 800 L327 799 L327 794 L333 774 L341 759 L353 747 L359 744 L370 741 L382 742 L398 749 L417 754 L425 754 L426 755 L463 755 L464 754 L470 754 L471 753 L476 753 L477 752 L496 749 L518 742 L546 730 L549 731 L543 735 L541 735 L528 742 L513 752 L495 766 L462 796 L450 804 L428 813 L415 816 L402 816 L389 812 L378 804 L362 787 L356 784 L348 786 L339 795 L331 813 L326 834 L325 856 L326 856 L327 853 L329 835 L337 806 L343 795 L351 788 L359 789 L380 810 L390 816 L401 819 L417 819 L430 816 L440 811 L443 811 L461 801 L508 760 L510 759 L511 760 L510 759 L524 748 L540 740 L542 738 L544 738 L567 727 L579 724 L603 723 L609 725 L615 730 L623 748 L623 752 L625 758 L625 771 L626 772 L626 785 L625 786 L625 792 L623 799 L625 797 L628 789 L628 784 L629 783 L629 762 L631 754 L631 736 L628 726 L624 720 L619 716 L608 713 L598 713 L597 714 L591 714 L590 715 L585 715 L572 718 L547 726 L506 743 L503 743 L491 747 L476 749 L475 750 L469 750 L468 751 L436 752 L435 751 L415 750 L402 747 L387 740 L379 738 L368 738 L361 740 L355 743 L346 751 L345 750 L352 739 L357 728 L367 719 L379 714 L390 713 L391 714 L400 715 L423 723 L435 725 L440 727 L451 728 L452 729 L470 730 L471 731 L502 730 L533 722 L556 711 L569 701 L578 687 L578 668 L575 657 L574 641 L565 624 L555 613 L540 602 L521 594 L505 592 L504 591 L494 591 L493 592 L481 593 L471 596 L460 601 L446 611 L428 630 L419 643 L398 664 L381 678 L366 686 L366 687 L372 686 L382 681 L394 672 L412 655 L434 628 L451 611 L467 601 L479 597 L488 596 L489 595 L496 595 L497 594 L506 594 L507 595 L512 595 L520 597 L537 604 L550 613 L564 628 L571 642 L572 657 L576 672 L576 684 L575 688 L570 697 L556 708 L542 715 L518 723 L498 726 L497 727 L465 727 L464 726 L456 726 L455 725 L433 722 L429 720 L422 719 L412 715 L409 715 L402 712 L394 711 L393 710 L376 711 L364 717 L356 725 L350 735 L349 734 L349 727 L338 717 L332 707 L327 692 L325 676 L324 675 L323 645 L324 644 L325 618 L326 617 L326 610 L327 609 L329 592 L337 559 L343 543 L343 540 L345 537 L353 513 L359 501 L370 484 L380 472 Z M651 396 L652 395 L653 396 L652 397 Z M672 384 L673 383 L674 385 L673 386 Z M703 307 L704 306 L705 307 L704 308 Z M704 306 L705 305 L706 306 L705 307 Z M705 305 L706 304 L707 305 L706 306 Z M594 299 L595 298 L596 299 L595 300 Z M676 375 L692 351 L712 332 L728 322 L758 310 L788 303 L815 299 L848 289 L849 290 L846 298 L850 307 L889 334 L919 363 L939 389 L951 409 L962 434 L967 454 L968 470 L969 471 L969 501 L970 502 L969 506 L969 525 L968 526 L967 525 L967 522 L963 512 L954 495 L935 468 L917 450 L908 443 L886 429 L874 423 L872 423 L857 416 L832 408 L816 405 L811 403 L779 399 L778 398 L770 398 L769 397 L761 397 L760 396 L748 396 L747 395 L733 395 L732 394 L715 394 L714 393 L675 393 L669 396 L667 395 L672 385 L673 387 L675 386 L687 370 L704 353 L726 338 L748 328 L762 324 L782 321 L783 320 L800 319 L801 318 L808 318 L809 317 L815 317 L823 315 L833 311 L842 303 L840 303 L831 309 L820 313 L770 319 L754 324 L751 324 L731 332 L715 341 L697 355 L684 369 L674 384 L673 382 Z M848 289 L849 288 L850 289 L849 290 Z M620 281 L621 280 L622 281 L621 282 Z M688 277 L689 276 L690 277 L689 278 Z M560 273 L561 272 L562 273 L561 274 Z M652 265 L648 267 L641 274 L637 281 L638 280 L639 281 L639 291 L641 294 L642 279 L650 270 L658 269 L664 275 L666 280 L667 299 L666 300 L666 308 L665 309 L663 328 L662 329 L661 344 L659 347 L658 346 L658 341 L657 340 L654 321 L652 317 L652 313 L648 297 L648 289 L647 288 L648 275 L645 282 L645 295 L646 296 L648 311 L655 336 L657 348 L660 356 L661 355 L663 338 L664 337 L668 309 L669 308 L670 288 L671 287 L672 288 L673 293 L674 289 L672 282 L666 272 L661 267 L657 265 Z M752 259 L753 258 L754 259 L753 260 Z M753 258 L754 257 L755 258 L754 259 Z M415 256 L415 257 L426 261 L441 261 L457 257 L441 258 L440 259 L428 259 Z M473 244 L474 243 L476 244 L475 245 Z M813 230 L814 229 L815 230 L814 231 Z M386 216 L389 219 L402 225 L488 252 L487 253 L473 253 L465 255 L468 256 L502 256 L515 259 L551 272 L576 285 L573 286 L566 284 L552 284 L546 286 L541 286 L542 288 L554 287 L555 286 L563 286 L584 291 L595 298 L591 299 L586 297 L579 297 L578 296 L572 296 L572 297 L579 298 L583 300 L592 301 L608 308 L628 326 L622 318 L610 306 L595 294 L573 280 L563 271 L549 254 L532 224 L518 211 L517 212 L531 227 L545 253 L552 263 L561 272 L560 273 L528 260 L522 259 L508 254 L505 254 L501 252 L494 251 L483 247 L467 234 L449 208 L442 201 L432 194 L415 188 L414 189 L423 192 L438 201 L447 210 L460 230 L474 243 L471 244 L460 240 L457 240 L441 234 L438 234 L422 228 L419 228 L397 221 Z M870 213 L858 218 L826 226 L817 230 L814 229 L823 219 L831 203 L838 193 L846 186 L845 185 L835 193 L830 200 L820 219 L810 230 L803 235 L782 245 L780 245 L755 258 L754 256 L759 248 L767 219 L773 209 L784 197 L782 198 L768 212 L762 225 L758 243 L749 260 L743 266 L726 278 L708 296 L699 308 L689 327 L691 326 L699 313 L710 305 L731 293 L733 293 L743 288 L754 285 L754 284 L750 284 L737 288 L724 294 L707 305 L706 304 L709 299 L726 282 L752 263 L775 251 L787 248 L798 248 L799 249 L805 249 L818 252 L831 252 L832 251 L840 250 L843 248 L839 248 L838 249 L816 249 L805 246 L789 246 L788 245 L814 233 L858 220 L870 214 Z M902 239 L897 252 L884 266 L874 273 L856 282 L828 292 L807 297 L802 297 L801 298 L796 298 L790 300 L775 302 L759 307 L756 307 L737 314 L716 325 L704 334 L685 354 L670 379 L663 398 L659 401 L655 397 L652 386 L646 374 L646 372 L633 351 L618 336 L601 325 L599 325 L595 322 L580 316 L577 316 L570 313 L566 313 L557 310 L538 308 L537 307 L529 307 L528 306 L511 306 L510 305 L492 305 L491 304 L471 303 L470 302 L464 302 L463 301 L443 298 L417 290 L384 275 L368 264 L358 254 L353 247 L349 238 L347 225 L348 224 L349 215 L353 207 L357 202 L371 190 L392 178 L412 171 L425 168 L430 168 L431 167 L463 166 L464 167 L478 168 L494 172 L515 180 L539 193 L560 208 L579 226 L590 239 L601 254 L625 294 L629 299 L628 295 L621 282 L622 281 L627 284 L628 283 L623 280 L615 271 L604 254 L605 253 L699 252 L700 253 L694 265 L684 279 L685 280 L688 277 L689 278 L683 300 L685 300 L686 294 L689 288 L692 277 L703 255 L707 244 L723 214 L734 200 L752 183 L764 175 L778 168 L801 162 L824 161 L825 162 L832 162 L846 166 L854 170 L865 179 L898 220 L901 227 Z M537 31 L544 36 L549 38 L568 38 L570 40 L573 53 L578 61 L581 59 L585 51 L588 48 L589 49 L595 48 L602 43 L606 46 L606 52 L605 53 L605 58 L604 59 L604 64 L601 77 L600 93 L599 94 L599 108 L598 109 L599 136 L600 137 L600 146 L601 147 L601 154 L602 155 L604 172 L606 177 L606 181 L609 190 L609 194 L616 222 L624 248 L623 249 L601 249 L588 231 L564 207 L545 193 L518 178 L520 170 L520 162 L521 161 L523 139 L524 138 L524 130 L525 129 L525 121 L526 120 L526 112 L527 111 L527 102 L528 101 L528 93 L529 92 L529 84 L530 83 L534 40 L535 39 L535 33 Z M536 27 L533 29 L531 36 L530 52 L529 53 L527 77 L526 78 L526 85 L525 86 L522 123 L521 124 L521 132 L520 133 L518 157 L517 158 L517 165 L516 166 L516 175 L514 177 L504 172 L480 165 L470 164 L469 163 L452 163 L451 162 L427 164 L403 170 L400 172 L395 173 L372 185 L365 190 L351 204 L346 213 L344 220 L345 237 L352 252 L367 268 L384 279 L408 290 L414 296 L416 296 L417 293 L440 301 L444 301 L460 305 L465 305 L466 306 L472 306 L473 307 L498 308 L499 309 L518 309 L519 310 L531 310 L532 311 L554 313 L583 321 L601 329 L616 339 L630 353 L642 372 L652 395 L650 396 L648 394 L642 392 L595 392 L594 393 L572 393 L571 394 L554 394 L553 395 L526 396 L525 397 L503 399 L502 400 L497 400 L496 401 L491 401 L490 402 L471 405 L434 416 L409 427 L395 435 L378 447 L345 479 L330 497 L311 516 L301 524 L304 524 L319 513 L334 498 L359 469 L386 445 L410 430 L432 420 L446 415 L486 405 L511 402 L512 401 L520 401 L521 400 L543 399 L544 398 L578 397 L579 396 L601 396 L602 395 L641 395 L649 398 L657 404 L661 404 L670 398 L676 396 L705 396 L706 397 L708 396 L709 397 L728 397 L729 398 L758 399 L759 400 L776 401 L777 402 L784 402 L785 403 L792 403 L793 404 L810 406 L815 408 L824 409 L828 411 L835 412 L854 418 L881 430 L913 451 L937 476 L953 500 L962 518 L967 531 L969 542 L963 553 L959 565 L957 581 L956 582 L954 578 L954 570 L953 569 L953 563 L950 551 L950 546 L946 530 L944 526 L944 523 L942 520 L940 512 L935 502 L935 500 L933 498 L929 489 L919 475 L902 458 L880 443 L862 434 L831 423 L810 419 L809 418 L791 416 L790 415 L783 415 L782 414 L749 412 L748 411 L733 411 L732 410 L714 410 L713 409 L675 409 L670 411 L661 418 L656 418 L646 411 L640 408 L635 408 L634 407 L566 409 L565 410 L548 410 L547 411 L522 412 L521 413 L505 414 L504 415 L499 415 L498 416 L493 416 L492 417 L473 420 L439 430 L411 443 L397 452 L386 461 L375 472 L367 482 L355 501 L348 516 L333 561 L328 581 L324 606 L323 607 L322 606 L322 595 L321 594 L320 580 L315 561 L306 543 L293 531 L292 509 L291 508 L291 487 L292 486 L293 467 L294 466 L295 455 L298 443 L305 423 L316 401 L331 378 L345 361 L361 345 L373 335 L396 319 L415 308 L419 303 L420 305 L431 312 L445 317 L449 317 L460 320 L483 321 L484 322 L524 322 L525 323 L535 323 L536 324 L555 326 L576 332 L594 340 L614 353 L628 366 L646 390 L647 390 L640 376 L632 366 L620 354 L611 347 L589 334 L587 334 L577 329 L556 323 L551 323 L538 320 L529 320 L528 319 L497 319 L496 318 L461 317 L437 311 L432 308 L430 308 L421 302 L417 302 L409 308 L391 318 L371 332 L359 342 L336 366 L323 383 L308 408 L308 410 L302 421 L296 437 L290 463 L289 480 L288 481 L288 516 L289 517 L289 527 L290 528 L288 529 L284 527 L272 527 L264 531 L259 536 L255 543 L251 554 L247 575 L246 576 L246 580 L245 581 L243 608 L242 609 L242 645 L243 646 L243 661 L244 662 L244 688 L245 689 L245 706 L246 707 L246 721 L247 722 L247 736 L248 737 L248 751 L249 752 L250 789 L251 790 L251 815 L252 816 L252 882 L251 883 L252 884 L251 885 L251 913 L250 914 L250 936 L249 937 L247 999 L246 1000 L246 1019 L245 1020 L245 1048 L244 1049 L245 1076 L246 1077 L247 1085 L252 1092 L259 1094 L270 1093 L280 1090 L292 1084 L302 1077 L325 1055 L326 1056 L328 1072 L332 1084 L332 1087 L336 1097 L336 1100 L338 1103 L342 1117 L348 1132 L357 1151 L364 1163 L375 1178 L379 1180 L389 1180 L398 1175 L410 1162 L429 1127 L462 1080 L499 1019 L516 1001 L527 993 L545 986 L556 985 L557 984 L568 984 L569 983 L730 984 L731 985 L750 986 L768 991 L782 999 L797 1013 L805 1023 L825 1055 L855 1113 L863 1135 L863 1138 L869 1156 L874 1167 L882 1176 L889 1179 L892 1179 L896 1177 L900 1172 L915 1142 L918 1132 L928 1109 L939 1074 L942 1057 L944 1055 L951 1065 L962 1076 L973 1084 L985 1090 L991 1092 L1003 1093 L1009 1089 L1013 1079 L1015 1053 L1014 1052 L1014 1031 L1013 1030 L1013 1013 L1012 1012 L1011 978 L1010 977 L1010 956 L1009 955 L1009 930 L1008 929 L1007 839 L1008 838 L1008 802 L1009 801 L1009 771 L1010 770 L1010 745 L1011 744 L1012 686 L1013 685 L1013 664 L1014 663 L1014 648 L1015 647 L1015 622 L1016 621 L1016 614 L1015 613 L1014 582 L1013 581 L1013 574 L1012 573 L1009 556 L1003 543 L1000 539 L995 536 L984 535 L977 537 L973 540 L972 539 L972 530 L973 529 L973 477 L972 476 L972 464 L971 463 L970 450 L967 438 L960 419 L947 395 L927 367 L897 336 L879 322 L857 308 L850 301 L850 295 L853 289 L857 285 L876 276 L886 269 L897 258 L901 252 L905 242 L905 228 L901 218 L897 212 L884 198 L873 183 L861 171 L850 164 L839 160 L829 159 L828 158 L804 158 L803 159 L797 159 L796 160 L788 161 L774 166 L759 174 L743 186 L731 198 L716 219 L701 249 L628 249 L626 246 L625 239 L623 235 L623 232 L621 228 L620 221 L618 217 L613 197 L613 193 L607 169 L607 164 L604 151 L604 144 L603 143 L603 134 L602 133 L602 99 L603 98 L603 88 L604 87 L606 66 L607 65 L608 54 L610 48 L609 45 L604 40 L601 40 L591 46 L586 45 L579 56 L576 52 L573 38 L571 36 L566 34 L565 35 L548 34 Z" fill="#eef3f4" fill-rule="evenodd"/>
</svg>
