<svg xmlns="http://www.w3.org/2000/svg" width="1086" height="1448" viewBox="0 0 1086 1448">
  <title>0094</title>
  <path d="M706 1199 L682 1216 L666 1224 L644 1232 L662 1227 L681 1218 L698 1207 Z M382 1198 L390 1206 L411 1220 L435 1231 L459 1237 L436 1230 L410 1218 L400 1212 Z M286 1096 L286 1098 L301 1121 L320 1145 L331 1156 L310 1131 L296 1112 Z M797 1093 L794 1096 L788 1108 L775 1128 L761 1146 L764 1144 L777 1127 L790 1107 Z M453 1072 L471 1078 L488 1081 L493 1083 L504 1084 L505 1085 L522 1086 L523 1087 L559 1088 L560 1087 L587 1086 L588 1085 L607 1083 L628 1078 L647 1071 L625 1078 L613 1080 L608 1082 L590 1084 L589 1085 L581 1085 L580 1086 L566 1086 L565 1087 L537 1087 L536 1086 L521 1086 L520 1085 L504 1084 L503 1083 L498 1083 L497 1082 L492 1082 L487 1080 L478 1079 L453 1071 Z M696 1022 L692 1023 L675 1032 L650 1042 L664 1038 L674 1033 L676 1033 Z M387 1013 L396 1019 L420 1031 L441 1038 L421 1029 L419 1029 L412 1025 L410 1025 L391 1014 Z M550 1006 L552 1007 L566 1007 L567 1006 Z M614 1003 L613 1002 L612 1003 L597 1004 L597 1005 L607 1005 Z M526 1004 L526 1005 L529 1005 L536 1001 L540 1005 L545 1006 L545 1005 L540 1003 L537 1000 L535 1000 L531 1003 Z M575 1005 L580 1004 L583 1001 L588 1004 L593 1004 L586 1002 L582 999 L579 1003 Z M628 994 L629 993 L630 994 L629 995 Z M536 989 L535 996 L537 998 L537 989 Z M581 986 L582 985 L584 986 L583 987 Z M583 985 L584 984 L585 985 L584 986 Z M531 983 L532 982 L533 983 L532 984 Z M503 980 L504 979 L505 980 L504 981 Z M652 976 L652 983 L653 983 L653 976 Z M446 971 L449 975 L448 972 Z M653 967 L654 966 L655 967 L654 968 Z M408 958 L409 957 L410 958 L409 959 Z M694 962 L696 968 L696 976 L692 980 L686 983 L671 988 L662 989 L661 990 L653 988 L649 983 L651 971 L653 968 L654 970 L655 969 L654 966 L659 961 L669 956 L673 956 L674 955 L676 957 L678 956 L685 956 L687 959 L690 959 Z M581 952 L582 951 L585 952 L584 953 Z M610 948 L611 947 L613 948 L612 949 Z M741 945 L742 944 L744 945 L743 946 Z M637 945 L638 944 L639 945 L638 946 Z M632 947 L635 944 L638 946 L635 948 Z M744 944 L745 943 L746 944 L745 945 Z M638 944 L639 943 L640 944 L639 945 Z M745 943 L746 942 L747 943 L746 944 Z M603 943 L604 942 L605 943 L604 944 Z M602 942 L603 941 L604 942 L603 943 Z M748 941 L749 940 L750 941 L749 942 Z M678 941 L679 940 L681 941 L680 942 Z M426 941 L427 940 L430 941 L429 942 Z M749 940 L750 939 L751 940 L750 941 Z M735 944 L739 951 L736 958 L722 967 L709 973 L702 974 L696 972 L697 971 L697 967 L695 961 L693 960 L693 958 L698 952 L699 954 L697 958 L701 952 L700 953 L698 952 L704 946 L715 940 L719 939 L723 940 L720 942 L722 942 L724 939 L731 940 Z M680 940 L681 939 L683 940 L682 941 Z M349 940 L350 939 L351 940 L350 941 Z M750 939 L751 938 L752 939 L751 940 Z M682 939 L683 938 L685 939 L684 940 Z M552 939 L553 938 L554 939 L553 940 Z M421 939 L424 938 L426 940 L424 941 Z M346 939 L347 938 L349 939 L348 940 Z M684 938 L685 937 L686 938 L685 939 Z M419 938 L420 937 L422 938 L421 939 Z M344 938 L345 937 L347 938 L346 939 Z M753 937 L754 936 L755 937 L754 938 Z M418 937 L419 936 L420 937 L419 938 Z M762 936 L748 948 L746 951 L752 947 Z M754 936 L755 935 L756 936 L755 937 Z M755 935 L756 934 L757 935 L756 936 Z M756 934 L757 933 L758 934 L757 935 Z M361 939 L365 935 L372 933 L380 935 L398 945 L408 955 L409 959 L407 961 L404 971 L403 972 L391 971 L364 956 L360 952 L358 948 Z M757 932 L758 931 L759 932 L758 933 Z M758 931 L759 930 L760 931 L759 932 Z M385 931 L386 930 L390 931 L389 932 Z M759 930 L760 929 L761 930 L760 931 Z M382 930 L383 929 L386 930 L385 931 Z M379 929 L380 928 L382 929 L381 930 Z M760 928 L761 927 L762 929 L761 930 Z M377 928 L378 927 L379 928 L378 929 Z M761 927 L762 926 L763 927 L762 928 Z M762 925 L763 924 L764 926 L763 927 Z M712 925 L713 924 L716 925 L715 926 Z M460 925 L461 924 L462 925 L461 926 Z M763 924 L764 923 L765 924 L764 925 Z M722 923 L723 922 L725 923 L724 924 Z M764 922 L765 921 L766 922 L765 923 Z M724 922 L725 921 L728 922 L727 923 Z M728 921 L729 920 L730 921 L729 922 Z M765 920 L766 919 L767 921 L766 922 Z M329 919 L335 928 L345 937 L344 938 L337 934 L333 930 L328 922 Z M731 919 L732 918 L733 919 L732 920 Z M766 918 L767 917 L768 919 L767 920 Z M327 918 L328 917 L329 919 L328 920 Z M767 916 L768 915 L769 916 L768 917 Z M326 916 L327 915 L328 917 L327 918 Z M382 934 L383 933 L387 933 L394 935 L401 935 L402 934 L413 933 L416 938 L427 944 L431 945 L450 944 L459 935 L463 926 L464 920 L467 917 L481 913 L489 913 L494 917 L496 921 L497 931 L504 947 L509 952 L520 955 L534 955 L538 954 L544 951 L552 942 L561 953 L566 955 L583 955 L591 952 L599 942 L609 950 L615 952 L632 951 L637 949 L646 942 L650 942 L653 944 L662 945 L663 946 L671 946 L679 944 L688 939 L692 935 L696 926 L700 926 L704 928 L713 928 L728 924 L731 927 L734 933 L734 939 L732 940 L729 938 L724 938 L723 939 L715 940 L704 945 L693 956 L689 956 L685 954 L671 954 L661 958 L656 961 L651 967 L649 971 L648 978 L645 983 L638 989 L630 992 L627 990 L624 980 L619 975 L611 972 L601 972 L593 974 L583 983 L579 983 L578 981 L569 976 L560 975 L559 974 L545 977 L537 983 L529 977 L520 973 L512 973 L499 980 L493 975 L482 971 L470 971 L462 973 L457 976 L452 971 L450 967 L442 960 L427 954 L410 955 L399 944 Z M325 914 L326 913 L327 915 L326 916 Z M541 910 L542 909 L560 909 L561 910 L553 916 Z M638 908 L643 906 L647 906 L648 907 L643 911 Z M410 905 L411 904 L414 905 L412 907 Z M687 899 L691 897 L694 898 L692 901 Z M693 897 L694 896 L696 897 L695 898 Z M368 895 L370 893 L372 894 L376 893 L398 901 L404 902 L410 908 L415 906 L424 906 L432 908 L455 910 L462 913 L460 911 L461 910 L484 910 L485 911 L468 915 L465 917 L463 915 L463 921 L462 922 L461 919 L459 924 L459 926 L461 927 L456 937 L449 943 L444 942 L436 944 L429 942 L430 941 L435 941 L434 940 L422 938 L415 933 L412 926 L412 910 L410 916 L410 924 L412 929 L411 931 L404 933 L391 933 L390 932 L391 931 L397 931 L396 930 L389 930 L384 928 L380 928 L376 925 L372 924 L369 919 L369 900 L368 899 Z M642 898 L633 895 L628 895 L621 893 L610 893 L609 892 L594 893 L569 899 L559 899 L558 900 L542 899 L541 898 L536 898 L519 894 L500 894 L473 902 L477 902 L487 898 L491 898 L500 895 L518 895 L524 897 L529 897 L541 900 L548 900 L549 901 L570 900 L596 894 L620 894 L621 895 Z M328 888 L334 900 L337 904 L347 913 L358 919 L367 920 L375 929 L383 933 L380 934 L376 932 L368 932 L362 935 L358 940 L354 940 L346 936 L337 928 L329 916 L326 906 L326 892 Z M360 888 L362 887 L372 892 L369 893 L366 896 Z M333 888 L334 887 L335 888 L334 889 Z M359 887 L360 886 L361 887 L360 888 Z M326 887 L327 886 L328 887 L327 888 Z M330 882 L331 883 L330 887 L329 886 Z M337 882 L340 881 L350 882 L355 885 L364 895 L367 903 L366 907 L350 900 L355 904 L367 909 L366 911 L367 918 L366 919 L359 918 L351 914 L338 903 L333 895 L335 892 L334 889 L335 888 L343 895 L334 885 Z M769 879 L770 878 L771 880 L770 881 Z M740 881 L740 886 L739 887 L738 886 L739 889 L739 903 L738 904 L737 912 L734 916 L728 920 L719 923 L711 924 L710 926 L703 926 L702 925 L703 924 L708 924 L701 922 L703 924 L702 925 L696 924 L695 923 L696 922 L695 921 L696 915 L695 914 L695 909 L694 906 L693 906 L694 909 L694 927 L692 932 L683 938 L673 941 L677 941 L678 942 L677 943 L661 944 L660 943 L661 942 L665 942 L659 940 L654 940 L658 941 L659 942 L658 943 L652 942 L649 940 L646 940 L644 942 L643 941 L643 939 L646 936 L647 933 L647 922 L646 921 L646 916 L644 914 L642 938 L636 944 L627 947 L627 948 L632 947 L633 948 L632 949 L624 950 L623 951 L613 950 L612 949 L613 948 L617 948 L618 947 L616 946 L611 946 L610 948 L607 947 L604 944 L606 942 L603 938 L602 938 L603 940 L602 942 L599 940 L599 935 L600 934 L600 921 L599 921 L598 923 L598 937 L596 942 L590 948 L591 950 L588 952 L585 952 L584 950 L583 951 L569 951 L570 952 L580 952 L581 953 L580 954 L569 954 L562 952 L558 948 L560 947 L556 941 L555 943 L553 940 L554 939 L554 926 L553 923 L552 924 L552 938 L551 939 L552 940 L542 948 L540 951 L536 953 L518 953 L517 952 L513 952 L512 951 L513 950 L517 950 L511 949 L512 950 L510 951 L505 945 L504 938 L500 935 L500 931 L498 925 L500 916 L498 917 L490 912 L495 910 L503 910 L504 911 L502 913 L509 910 L527 909 L528 910 L536 910 L544 912 L548 914 L552 918 L559 912 L568 909 L587 909 L594 912 L596 912 L593 910 L594 909 L605 909 L606 910 L602 912 L600 915 L597 914 L599 917 L605 911 L612 909 L635 908 L644 912 L652 905 L675 902 L681 900 L687 900 L692 902 L699 895 L714 888 L718 888 L724 883 L734 878 Z M735 878 L736 877 L737 878 L736 879 Z M765 875 L770 887 L770 904 L768 908 L768 911 L764 920 L755 933 L747 940 L738 945 L735 941 L736 940 L736 935 L734 929 L730 923 L736 918 L739 910 L748 904 L755 896 Z M768 874 L770 876 L769 879 L767 876 Z M742 874 L743 875 L740 881 L736 877 Z M330 878 L334 874 L344 879 L343 880 L338 880 L334 882 L333 884 Z M766 874 L767 873 L768 874 L767 875 Z M742 874 L743 873 L744 874 L743 875 Z M765 873 L766 872 L767 873 L766 874 Z M743 873 L744 872 L745 873 L744 874 Z M327 872 L329 871 L333 874 L330 877 Z M759 865 L761 867 L761 870 L758 873 L757 876 L760 872 L762 877 L758 888 L751 899 L741 907 L740 906 L741 894 L747 887 L747 886 L742 891 L741 890 L741 883 L745 874 L751 868 L756 865 Z M770 857 L771 858 L770 861 L764 869 L759 864 L762 861 Z M795 877 L792 867 L788 861 L787 857 L783 853 L784 852 L786 853 L786 851 L779 851 L764 858 L739 874 L713 888 L679 900 L655 903 L642 906 L636 906 L635 907 L625 907 L624 908 L517 908 L516 909 L491 909 L488 910 L487 909 L463 909 L462 908 L455 908 L454 907 L462 905 L449 906 L448 907 L435 907 L434 906 L427 906 L426 905 L420 905 L415 903 L406 902 L373 891 L323 867 L319 866 L313 871 L310 877 L312 876 L313 873 L316 870 L321 868 L326 871 L327 876 L329 879 L325 884 L322 892 L322 906 L323 907 L324 915 L327 920 L327 923 L335 934 L335 937 L338 936 L340 938 L349 942 L357 942 L358 943 L357 944 L357 950 L359 953 L371 962 L392 973 L397 973 L398 974 L403 973 L405 977 L409 980 L417 984 L420 984 L407 977 L404 972 L408 962 L412 957 L418 955 L429 956 L435 958 L445 964 L449 968 L453 975 L457 978 L453 986 L454 988 L453 989 L446 991 L431 988 L432 989 L441 992 L453 991 L456 995 L473 1001 L493 1002 L498 1000 L500 1002 L508 1005 L523 1006 L521 1004 L505 1003 L502 1002 L498 998 L496 998 L491 1001 L481 1001 L461 996 L454 991 L457 978 L461 975 L469 973 L476 973 L478 972 L479 973 L488 974 L492 976 L497 981 L501 982 L497 987 L497 996 L498 996 L498 990 L501 982 L503 980 L505 981 L504 979 L511 975 L521 975 L529 979 L532 982 L531 983 L532 984 L533 983 L534 984 L538 984 L539 986 L547 978 L554 976 L564 976 L575 981 L573 982 L575 984 L577 983 L581 986 L581 992 L582 996 L583 996 L583 987 L588 983 L587 981 L591 977 L598 974 L613 974 L618 976 L623 981 L627 997 L623 1001 L628 999 L630 994 L637 994 L642 992 L642 991 L640 992 L637 991 L641 989 L647 983 L652 989 L656 991 L670 990 L685 985 L693 981 L698 975 L707 975 L713 973 L737 959 L740 955 L740 949 L753 941 L760 934 L765 927 L770 917 L770 914 L772 910 L773 900 L774 899 L774 886 L772 883 L772 878 L766 872 L772 860 L772 858 L776 854 L780 853 L787 859 L792 871 L793 881 L794 882 L794 895 L793 896 L793 902 L790 913 L783 928 L775 940 L748 967 L724 983 L701 994 L679 1002 L633 1013 L614 1015 L613 1016 L606 1016 L605 1017 L580 1018 L579 1019 L532 1019 L531 1018 L516 1018 L515 1017 L505 1017 L504 1016 L482 1014 L481 1013 L462 1010 L442 1005 L398 990 L375 979 L373 979 L352 967 L340 959 L324 945 L312 928 L306 913 L306 909 L305 908 L306 886 L304 893 L304 908 L308 922 L315 935 L320 942 L333 955 L342 962 L363 975 L399 992 L440 1006 L464 1012 L484 1015 L485 1016 L507 1018 L508 1019 L542 1020 L543 1021 L590 1020 L591 1019 L601 1019 L602 1018 L610 1018 L611 1017 L618 1017 L619 1016 L637 1014 L674 1005 L684 1001 L690 1000 L705 993 L707 993 L727 983 L741 974 L754 964 L770 948 L785 927 L790 917 L794 903 L794 899 L795 898 Z M316 845 L307 850 L302 856 L306 852 L314 848 Z M574 841 L570 847 L573 845 Z M814 870 L811 857 L807 849 L799 841 L791 838 L782 838 L775 840 L755 851 L732 866 L710 877 L688 885 L671 888 L670 889 L664 889 L663 890 L636 890 L635 889 L624 888 L611 883 L604 882 L597 884 L583 891 L572 894 L566 894 L565 895 L541 894 L524 889 L510 882 L502 882 L494 886 L477 891 L462 892 L461 893 L433 893 L432 892 L425 892 L424 891 L409 889 L397 885 L394 885 L369 876 L331 859 L321 856 L307 856 L301 859 L300 858 L295 863 L291 869 L288 878 L287 892 L286 893 L287 898 L288 897 L289 880 L294 867 L301 860 L309 857 L318 857 L326 859 L378 881 L400 888 L417 891 L418 892 L423 892 L424 893 L431 893 L432 894 L463 894 L464 893 L472 893 L473 892 L487 890 L506 882 L526 891 L540 895 L545 895 L546 896 L566 896 L586 891 L604 883 L608 883 L623 889 L633 890 L634 891 L655 892 L656 891 L672 890 L689 886 L716 876 L735 866 L766 846 L780 840 L788 839 L796 841 L805 849 L808 854 L811 863 L812 879 L813 880 L811 900 L806 919 L797 939 L790 950 L778 965 L760 983 L746 995 L723 1012 L699 1027 L679 1037 L677 1037 L662 1044 L632 1053 L628 1053 L612 1057 L607 1057 L606 1058 L591 1059 L590 1060 L580 1060 L579 1061 L527 1061 L526 1060 L515 1060 L514 1059 L499 1058 L498 1057 L493 1057 L492 1056 L472 1053 L456 1049 L449 1046 L446 1046 L429 1040 L391 1022 L371 1010 L334 984 L323 975 L306 958 L298 946 L293 936 L289 921 L288 903 L287 902 L286 908 L287 909 L288 924 L292 937 L300 952 L306 960 L322 976 L345 994 L376 1015 L395 1026 L413 1035 L415 1035 L435 1044 L454 1050 L461 1051 L465 1053 L469 1053 L484 1057 L489 1057 L502 1060 L509 1060 L510 1061 L518 1061 L519 1062 L532 1062 L533 1063 L586 1062 L587 1061 L603 1060 L604 1059 L610 1059 L616 1057 L626 1056 L642 1052 L646 1050 L649 1050 L676 1040 L689 1033 L691 1033 L715 1019 L738 1003 L754 990 L778 967 L791 951 L798 940 L805 926 L812 903 L813 891 L814 890 Z M592 823 L594 843 L598 859 L603 874 L605 877 L605 874 L597 850 L597 846 L594 835 L594 828 L593 827 L593 823 Z M514 821 L513 821 L512 825 L512 837 L511 838 L510 854 L509 855 L509 860 L505 876 L507 875 L510 862 L510 857 L511 856 Z M387 799 L366 821 L352 831 L360 827 L371 818 L380 809 Z M490 796 L491 795 L493 796 L492 797 Z M714 795 L731 809 L728 805 Z M612 794 L613 793 L614 794 L613 795 Z M608 790 L588 798 L575 801 L570 801 L569 802 L536 802 L535 801 L529 801 L516 798 L501 792 L501 793 L515 799 L527 802 L542 803 L543 804 L562 804 L563 803 L571 803 L572 802 L577 802 L589 799 L604 792 L606 792 Z M679 779 L680 778 L681 779 L680 780 Z M410 772 L414 779 L405 782 L404 781 Z M680 778 L684 770 L693 779 L690 780 L689 779 L681 779 Z M369 757 L369 760 L364 776 L358 788 L348 800 L338 808 L317 819 L283 832 L277 836 L266 848 L259 865 L258 875 L257 876 L257 905 L258 906 L258 913 L259 914 L260 924 L262 929 L260 911 L259 910 L259 900 L258 899 L258 882 L259 881 L259 873 L262 860 L267 849 L278 837 L284 833 L325 817 L339 809 L348 802 L357 792 L364 780 L368 768 Z M383 708 L379 713 L373 728 L372 736 L371 737 L371 744 L370 745 L370 754 L372 738 L374 732 L374 726 Z M390 706 L385 711 L382 719 Z M711 703 L714 707 L719 723 L722 746 L727 763 L733 775 L738 782 L750 794 L760 801 L776 809 L798 816 L809 822 L819 832 L822 837 L828 854 L825 841 L820 831 L810 821 L797 814 L780 809 L761 800 L752 794 L738 780 L733 773 L727 760 L723 746 L722 733 L721 732 L721 727 L718 714 L714 707 L714 705 Z M698 685 L709 699 L710 699 L703 689 Z M416 681 L401 690 L390 702 L403 690 L416 682 Z M484 672 L484 673 L496 680 L492 676 Z M625 672 L622 671 L617 673 L611 677 L608 681 L616 675 Z M401 784 L402 785 L405 783 L414 781 L421 790 L429 795 L436 797 L440 797 L441 798 L486 797 L498 800 L514 809 L527 812 L532 812 L533 813 L545 813 L546 814 L570 813 L571 812 L585 810 L599 804 L610 797 L624 793 L649 793 L650 792 L662 791 L671 787 L679 780 L680 781 L691 781 L702 786 L693 780 L694 779 L686 771 L685 768 L685 761 L686 760 L685 736 L679 715 L674 704 L665 691 L656 682 L646 675 L635 671 L632 672 L638 673 L650 679 L664 692 L671 702 L680 722 L683 735 L683 740 L684 741 L684 763 L683 764 L683 768 L676 781 L666 788 L653 791 L627 791 L616 794 L613 793 L625 786 L634 783 L649 782 L657 784 L657 783 L652 781 L636 781 L635 782 L631 782 L616 789 L602 800 L592 806 L583 809 L579 809 L573 811 L565 811 L564 812 L540 812 L539 811 L531 811 L530 810 L520 809 L507 804 L495 795 L484 789 L470 785 L452 785 L447 787 L447 788 L459 787 L460 786 L461 787 L472 787 L485 791 L491 795 L490 796 L469 795 L468 796 L447 797 L446 796 L434 795 L425 791 L416 781 L412 769 L412 750 L413 749 L415 735 L419 723 L429 704 L435 696 L444 687 L455 679 L463 675 L473 672 L479 672 L478 671 L468 672 L454 678 L444 685 L428 703 L419 719 L413 736 L413 740 L411 745 L411 751 L410 752 L410 767 L411 770 L406 775 Z M673 668 L674 670 L693 682 L688 677 Z M416 656 L405 659 L398 659 L398 660 L400 661 L414 658 Z M290 653 L278 654 L264 658 L246 667 L233 677 L223 687 L209 705 L196 729 L190 747 L197 732 L197 730 L210 706 L223 689 L234 678 L247 668 L263 660 L280 655 L290 654 Z M395 650 L384 653 L369 654 L368 655 L343 655 L342 654 L330 654 L329 653 L319 653 L318 652 L309 652 L309 653 L324 654 L325 655 L335 655 L336 656 L361 657 L362 656 L374 656 L375 655 L394 652 Z M508 689 L508 674 L506 666 L503 660 L496 653 L487 649 L476 649 L463 653 L449 660 L426 675 L464 654 L474 651 L484 650 L494 653 L503 663 L506 671 L507 690 Z M598 693 L597 678 L598 677 L598 670 L600 664 L604 657 L609 652 L615 649 L619 649 L620 648 L630 649 L644 654 L666 665 L659 660 L643 652 L632 648 L628 648 L627 647 L614 648 L608 651 L603 656 L598 665 L596 673 L596 687 Z M406 647 L401 648 L399 650 L404 649 Z M784 642 L787 643 L797 643 L798 644 L812 646 L826 651 L844 661 L852 667 L867 682 L879 699 L887 714 L881 700 L871 685 L854 667 L845 660 L825 649 L814 645 L801 643 L800 642 L790 642 L789 641 Z M679 638 L680 640 L697 645 L702 645 L703 646 L710 646 L711 647 L739 647 L740 646 L749 646 L750 645 L763 644 L768 642 L746 644 L745 645 L719 646 L718 645 L706 645 L705 644 L694 643 Z M673 636 L673 637 L677 638 L677 637 Z M429 634 L416 642 L416 643 L427 637 Z M468 636 L469 637 L480 633 L488 633 L498 637 L495 634 L490 632 L478 632 Z M618 631 L617 630 L612 630 L603 634 L596 641 L593 646 L593 648 L600 638 L605 634 L612 631 Z M661 629 L662 631 L666 633 L664 630 Z M246 629 L232 643 L220 661 L208 685 L200 705 L200 709 L208 688 L222 660 L232 645 Z M251 625 L252 624 L253 625 L252 626 Z M252 624 L253 623 L254 624 L253 625 Z M614 623 L606 624 L600 627 L594 633 L605 626 L615 625 Z M253 623 L254 622 L256 623 L255 624 Z M479 622 L477 622 L472 626 L479 623 Z M255 622 L257 620 L259 621 L257 623 Z M482 622 L484 621 L492 622 L489 620 L483 620 Z M258 620 L261 618 L263 619 L261 621 Z M832 618 L832 620 L842 627 L857 643 L869 662 L883 692 L881 684 L877 677 L877 675 L862 648 L852 635 L844 627 Z M256 618 L257 617 L259 618 L258 619 Z M466 613 L463 619 L466 615 Z M265 613 L266 612 L267 613 L266 614 Z M262 612 L263 614 L259 618 L258 616 Z M262 612 L263 611 L264 612 L263 613 Z M452 611 L449 612 L449 614 Z M819 608 L820 607 L821 608 L820 609 Z M818 607 L819 606 L820 607 L819 608 Z M282 606 L268 613 L266 612 L272 605 L274 606 L279 602 Z M329 600 L333 602 L345 602 Z M472 598 L470 603 L473 599 Z M389 598 L390 597 L391 598 L390 599 Z M388 597 L389 596 L390 597 L389 598 Z M733 594 L735 595 L739 594 Z M275 593 L276 595 L269 607 L264 612 L263 610 Z M648 591 L649 594 L647 595 L646 593 Z M275 592 L276 591 L277 593 L276 594 Z M807 591 L808 590 L810 593 L809 594 Z M276 590 L277 589 L278 591 L277 592 Z M277 589 L278 588 L279 589 L278 590 Z M278 587 L279 586 L280 588 L279 589 Z M429 585 L430 584 L431 585 L430 586 Z M428 584 L429 583 L430 584 L429 585 Z M803 582 L808 589 L807 591 L802 584 Z M427 583 L428 582 L429 583 L428 584 Z M426 582 L427 581 L428 582 L427 583 Z M698 580 L699 581 L698 584 L697 583 Z M425 581 L426 580 L427 581 L426 582 Z M424 580 L425 579 L426 580 L425 581 Z M226 580 L226 582 L229 586 L240 592 L252 591 L258 587 L244 591 L243 590 L238 590 L232 587 Z M853 579 L847 584 L841 587 L831 587 L824 583 L823 584 L830 588 L839 589 L848 585 Z M269 578 L267 579 L266 583 L251 605 L240 616 L226 624 L217 625 L217 626 L227 625 L242 616 L258 598 Z M417 574 L419 573 L425 579 L423 580 Z M416 573 L417 572 L418 573 L417 574 Z M302 570 L303 571 L291 584 L289 588 L285 592 L281 600 L273 606 L272 604 L280 592 L281 588 L287 581 L289 581 L288 579 L298 570 L299 571 Z M482 570 L480 572 L480 576 L476 588 L477 588 L479 584 Z M412 570 L414 569 L417 572 L415 573 Z M302 570 L303 569 L304 570 L303 571 Z M298 570 L299 569 L300 570 L299 571 Z M698 568 L699 569 L699 573 L698 574 L697 573 L697 569 Z M303 569 L304 568 L305 569 L304 570 Z M299 569 L300 568 L302 569 L301 570 Z M813 568 L814 567 L815 568 L814 569 Z M389 567 L390 571 L388 576 L388 590 L389 591 L389 596 L388 597 L385 591 L385 576 Z M812 566 L813 565 L814 567 L813 568 Z M696 566 L697 565 L698 567 L697 568 Z M811 565 L812 564 L813 565 L812 566 Z M392 567 L396 564 L397 565 L401 565 L413 573 L432 591 L439 601 L439 604 L437 606 L419 606 L418 605 L411 605 L410 604 L401 603 L394 600 L390 594 L390 574 Z M320 564 L323 567 L326 575 L327 585 L328 586 L328 594 L324 599 L321 600 L311 600 L310 601 L304 601 L289 605 L283 605 L282 601 L284 597 L297 579 L307 569 L313 565 Z M695 564 L696 563 L697 564 L696 565 Z M759 563 L760 562 L761 564 L760 565 Z M314 563 L305 569 L301 568 L310 562 Z M484 605 L486 604 L495 589 L510 575 L526 567 L537 564 L543 564 L544 563 L562 564 L576 568 L593 578 L605 590 L596 579 L585 571 L575 566 L559 562 L540 562 L522 567 L508 575 L496 586 Z M314 562 L315 561 L316 562 L315 563 Z M767 559 L774 563 L781 569 L790 579 L803 597 L802 601 L783 595 L762 591 L759 588 L758 585 L759 572 L762 564 Z M693 562 L696 570 L696 581 L695 585 L692 588 L681 593 L652 594 L650 592 L652 587 L657 581 L673 566 L679 562 L687 559 L690 559 Z M770 559 L774 558 L788 569 L798 580 L809 597 L808 599 L809 598 L814 603 L809 595 L810 593 L819 606 L817 607 L810 603 L805 602 L804 601 L805 597 L792 579 L775 562 Z M764 558 L765 559 L761 563 L760 561 Z M758 559 L759 558 L760 559 L759 560 Z M386 558 L388 557 L397 562 L390 565 L389 561 Z M384 557 L385 556 L387 557 L386 558 Z M685 557 L688 555 L690 556 L688 558 Z M330 554 L322 563 L319 561 L314 561 L313 560 L327 553 Z M483 553 L482 554 L482 562 L481 564 L483 563 L484 559 L484 554 Z M329 553 L330 552 L331 553 L330 554 Z M753 549 L754 548 L758 549 L769 555 L760 559 Z M703 548 L704 547 L705 548 L704 549 Z M249 628 L261 621 L284 613 L301 611 L308 609 L316 609 L317 608 L333 607 L334 606 L346 606 L347 605 L374 606 L375 607 L381 607 L382 608 L393 609 L394 610 L409 612 L410 613 L416 613 L417 614 L438 614 L438 613 L414 612 L413 611 L401 610 L400 609 L380 606 L379 605 L371 605 L370 604 L374 603 L374 602 L372 601 L364 601 L362 602 L367 602 L368 603 L367 604 L337 604 L336 605 L304 608 L303 609 L298 609 L297 610 L278 613 L264 619 L262 618 L264 616 L284 607 L293 606 L308 602 L321 601 L322 602 L321 604 L324 602 L329 596 L330 588 L329 587 L329 581 L325 569 L325 566 L322 563 L337 550 L346 548 L346 547 L338 548 L326 552 L310 560 L294 571 L280 587 L279 585 L287 574 L297 564 L305 558 L320 550 L337 545 L344 545 L345 544 L358 544 L359 545 L365 545 L380 549 L400 559 L413 569 L411 570 L400 562 L389 556 L370 549 L363 548 L379 554 L389 562 L389 565 L385 572 L384 582 L383 583 L384 591 L388 599 L386 601 L383 601 L382 602 L383 603 L388 602 L391 600 L396 602 L398 605 L406 605 L407 606 L420 607 L421 608 L438 608 L440 607 L442 602 L447 606 L444 607 L444 608 L449 609 L450 608 L438 597 L430 587 L431 585 L451 606 L451 604 L427 578 L411 565 L397 556 L380 548 L366 544 L342 543 L341 544 L336 544 L328 546 L315 551 L295 564 L281 579 L267 603 L250 624 Z M720 542 L713 543 L710 545 L698 548 L676 561 L650 586 L645 592 L645 595 L646 596 L650 595 L652 596 L665 596 L666 595 L684 594 L692 590 L696 586 L697 583 L700 590 L704 594 L708 595 L722 595 L720 594 L705 593 L699 588 L700 586 L700 569 L698 563 L694 559 L692 559 L691 556 L689 555 L691 553 L701 548 L703 548 L704 549 L697 557 L698 558 L704 550 L710 546 Z M520 551 L530 546 L542 543 L562 544 L579 551 L573 547 L557 542 L537 543 L528 546 Z M163 538 L164 537 L165 538 L164 539 Z M636 595 L636 597 L638 599 L641 599 L643 601 L652 602 L653 603 L683 603 L684 602 L693 602 L694 601 L702 601 L703 600 L710 600 L711 599 L722 599 L723 598 L755 599 L756 600 L777 602 L778 603 L799 607 L809 611 L812 611 L825 617 L824 615 L815 611 L794 604 L781 602 L780 601 L775 601 L774 600 L753 598 L752 597 L716 597 L715 598 L707 598 L706 599 L698 599 L697 600 L689 600 L688 601 L649 601 L641 599 L637 596 L668 564 L678 556 L691 548 L707 541 L720 538 L743 538 L757 542 L777 553 L795 570 L803 581 L802 583 L791 570 L769 553 L751 544 L739 541 L734 541 L749 546 L755 553 L759 560 L756 569 L756 590 L752 593 L749 593 L749 594 L753 594 L757 591 L758 592 L760 591 L767 594 L784 597 L806 604 L808 603 L829 615 L815 598 L805 581 L796 569 L779 553 L770 547 L755 540 L744 537 L737 537 L736 536 L726 536 L725 537 L719 537 L718 538 L710 539 L699 543 L682 552 L667 563 Z M455 532 L456 550 L457 551 L456 568 L458 553 L457 552 L457 541 L456 540 Z M482 531 L482 543 L483 546 L484 545 L484 534 L483 531 Z M918 524 L919 525 L918 528 L917 527 Z M220 569 L228 578 L238 583 L250 583 L256 581 L264 576 L269 571 L282 553 L295 540 L307 532 L329 524 L341 523 L342 522 L357 522 L358 523 L365 523 L366 524 L371 524 L391 530 L409 539 L421 547 L433 557 L453 579 L452 576 L440 562 L428 551 L416 542 L389 528 L377 524 L363 522 L362 521 L338 521 L337 522 L331 522 L317 526 L303 533 L293 540 L282 551 L271 567 L264 574 L257 579 L252 581 L242 582 L234 580 L227 576 Z M633 574 L648 555 L658 545 L674 533 L691 524 L717 516 L724 516 L725 515 L744 515 L745 516 L750 516 L769 522 L777 526 L787 533 L799 545 L812 564 L810 565 L814 572 L814 574 L827 597 L839 609 L845 613 L853 616 L858 616 L850 614 L838 607 L831 600 L821 585 L821 583 L816 575 L814 569 L815 568 L825 577 L833 580 L842 580 L848 578 L854 574 L857 570 L851 575 L841 579 L835 579 L826 576 L814 565 L800 544 L788 532 L778 525 L766 519 L748 514 L730 513 L729 514 L714 515 L697 520 L680 528 L666 537 L653 548 L643 559 Z M490 554 L498 539 L513 523 L527 515 L537 512 L544 512 L545 511 L560 512 L576 518 L582 522 L592 532 L599 542 L591 529 L585 523 L575 516 L569 513 L558 510 L540 510 L526 514 L511 523 L498 537 L491 549 Z M485 505 L486 504 L487 506 L486 507 Z M603 502 L604 501 L605 503 L604 504 Z M642 498 L639 503 L633 524 L632 536 L631 537 L631 557 L632 557 L633 530 L637 513 Z M199 489 L200 490 L200 495 L199 496 L198 495 L198 490 Z M438 487 L438 489 L449 511 L446 501 Z M787 454 L787 455 L797 461 L814 475 L831 494 L842 510 L851 528 L857 546 L853 531 L847 519 L847 517 L839 503 L828 488 L807 467 L793 457 Z M311 452 L291 461 L280 468 L271 475 L254 492 L235 520 L228 535 L225 545 L231 530 L239 515 L255 493 L272 476 L281 469 L297 459 L307 455 Z M339 444 L340 445 L341 444 L351 444 L352 443 L363 443 L364 444 L379 445 L390 448 L410 458 L419 465 L433 480 L427 471 L420 464 L406 454 L394 448 L381 444 L370 443 L369 442 L348 442 L347 443 Z M740 439 L739 438 L716 438 L715 439 L710 439 L693 444 L683 449 L672 456 L660 467 L649 482 L645 490 L661 468 L668 461 L682 451 L692 446 L707 441 L718 440 L719 439 Z M170 430 L178 442 L178 444 L182 451 L185 462 L188 467 L188 469 L190 471 L183 450 L177 438 Z M907 420 L904 422 L900 428 L900 430 L896 437 L889 460 L887 471 L887 469 L890 464 L890 461 L892 457 L896 441 L904 424 Z M186 396 L187 397 L187 418 L188 419 L188 436 L189 437 L190 459 L191 460 L193 477 L197 492 L199 510 L201 516 L202 549 L201 550 L201 564 L200 565 L200 578 L199 579 L198 618 L197 619 L197 636 L196 637 L195 659 L194 660 L194 667 L193 668 L193 674 L192 675 L192 681 L190 687 L189 698 L184 718 L184 722 L178 748 L178 753 L176 759 L176 764 L175 765 L172 793 L171 794 L171 802 L170 803 L170 811 L169 812 L168 833 L167 834 L166 864 L165 865 L165 921 L166 922 L166 938 L167 939 L168 959 L169 960 L169 966 L171 974 L167 975 L166 974 L151 973 L150 972 L145 972 L144 971 L139 971 L126 968 L121 966 L115 959 L119 956 L123 948 L132 911 L132 906 L134 900 L135 888 L138 875 L143 834 L144 833 L145 818 L147 810 L148 795 L149 794 L153 760 L155 753 L155 747 L157 741 L157 736 L158 735 L158 730 L160 724 L163 704 L175 656 L175 651 L178 638 L178 631 L179 630 L179 601 L178 600 L178 593 L177 592 L177 587 L176 586 L176 581 L175 580 L172 560 L163 524 L159 513 L159 510 L152 488 L148 480 L156 504 L157 511 L164 534 L163 537 L156 529 L151 528 L147 531 L144 538 L144 543 L143 544 L143 560 L144 561 L145 575 L160 637 L159 626 L157 622 L155 610 L150 593 L147 572 L146 571 L146 565 L145 564 L145 541 L148 532 L152 529 L155 530 L161 536 L167 547 L171 563 L173 577 L174 578 L174 583 L175 584 L177 608 L178 609 L178 623 L177 624 L175 647 L170 667 L170 671 L166 684 L166 688 L163 697 L163 701 L159 717 L159 722 L157 728 L157 733 L155 739 L155 745 L154 746 L151 770 L149 777 L149 784 L148 785 L147 797 L146 798 L146 805 L145 806 L145 813 L144 814 L144 820 L143 821 L143 827 L141 835 L141 842 L140 843 L140 849 L139 850 L139 856 L138 857 L138 863 L137 864 L137 870 L136 871 L136 877 L135 878 L135 884 L134 885 L132 902 L130 908 L130 913 L121 949 L116 958 L114 957 L114 928 L115 927 L116 908 L117 907 L121 868 L122 867 L123 853 L125 845 L125 838 L126 837 L130 803 L132 796 L133 782 L134 781 L135 769 L136 768 L136 763 L137 762 L137 757 L138 756 L138 751 L140 745 L142 727 L144 720 L145 705 L146 704 L146 692 L147 691 L147 653 L146 652 L146 639 L145 638 L144 621 L143 620 L141 603 L137 588 L136 579 L134 574 L133 565 L131 560 L131 555 L130 554 L128 537 L127 536 L126 515 L125 514 L125 472 L126 471 L127 463 L131 459 L135 460 L141 466 L144 471 L140 463 L136 459 L130 457 L135 451 L139 449 L143 449 L144 448 L150 449 L160 458 L169 475 L177 498 L186 536 L188 555 L189 556 L189 564 L190 565 L190 571 L191 571 L191 561 L190 560 L190 552 L189 551 L187 532 L178 496 L171 476 L165 464 L157 453 L150 447 L152 441 L156 435 L162 429 L167 428 L166 426 L168 423 L169 411 L174 406 L180 403 Z M612 388 L610 389 L608 393 L609 393 Z M478 487 L472 463 L461 439 L448 421 L433 407 L421 399 L398 389 L385 387 L384 386 L376 386 L375 385 L355 385 L354 386 L345 386 L344 387 L335 388 L311 396 L296 404 L280 416 L269 427 L252 451 L240 476 L233 496 L233 499 L243 472 L255 449 L266 433 L281 417 L297 405 L310 398 L333 390 L349 388 L350 387 L379 387 L380 388 L386 388 L399 391 L418 399 L433 409 L446 421 L460 440 L470 461 L478 491 Z M612 485 L612 488 L618 465 L629 441 L641 423 L659 405 L675 394 L691 386 L703 382 L716 379 L723 379 L724 378 L741 378 L742 379 L750 379 L751 380 L760 381 L781 389 L797 399 L815 416 L828 434 L840 457 L840 459 L845 469 L848 480 L850 483 L853 494 L849 477 L847 474 L840 454 L829 433 L816 415 L799 399 L782 388 L765 381 L753 378 L747 378 L746 377 L720 377 L719 378 L713 378 L712 379 L704 380 L692 384 L677 391 L659 403 L640 422 L628 440 L617 465 Z M600 366 L591 370 L588 370 L586 372 L598 368 Z M458 355 L459 354 L460 355 L459 356 Z M884 353 L887 356 L899 361 L902 364 L903 367 L903 380 L907 391 L908 400 L909 401 L909 411 L913 417 L920 420 L928 428 L932 435 L932 437 L924 444 L917 454 L907 476 L907 479 L901 496 L897 517 L896 518 L896 522 L895 523 L892 548 L891 549 L891 562 L896 526 L897 525 L897 521 L903 495 L911 470 L920 451 L929 440 L936 437 L941 437 L947 439 L954 446 L953 447 L948 447 L942 453 L938 459 L934 469 L942 455 L949 448 L952 448 L956 451 L958 459 L958 496 L957 497 L956 515 L955 516 L955 522 L954 523 L951 547 L950 548 L948 563 L944 578 L944 583 L943 584 L938 617 L937 618 L935 641 L934 642 L934 655 L933 656 L934 704 L935 705 L936 722 L937 723 L940 751 L942 759 L943 775 L944 776 L947 812 L948 813 L948 822 L949 823 L949 832 L950 833 L951 853 L952 854 L952 864 L953 865 L953 873 L954 874 L954 882 L955 883 L956 900 L957 901 L957 912 L958 913 L958 950 L956 955 L953 950 L953 947 L951 943 L948 925 L947 924 L946 913 L945 912 L943 891 L942 890 L942 882 L941 881 L941 873 L940 872 L940 863 L939 862 L936 818 L935 817 L935 810 L934 809 L934 800 L933 799 L933 791 L932 790 L927 743 L925 736 L925 730 L924 729 L921 706 L920 705 L916 681 L914 676 L914 672 L912 667 L912 663 L910 658 L910 654 L906 638 L905 626 L904 625 L904 617 L903 616 L903 606 L904 605 L906 581 L907 580 L908 568 L909 567 L914 540 L920 526 L926 517 L929 515 L932 515 L935 518 L937 525 L937 550 L936 551 L936 558 L934 564 L934 569 L920 619 L921 619 L923 613 L923 610 L927 600 L927 597 L933 579 L933 575 L935 571 L937 555 L938 554 L938 547 L939 546 L939 531 L938 530 L937 520 L935 516 L930 513 L925 516 L919 525 L918 524 L922 505 L929 483 L933 474 L932 474 L922 500 L911 544 L911 548 L907 564 L907 569 L906 570 L904 589 L903 590 L902 624 L903 625 L905 642 L907 647 L912 675 L916 689 L919 709 L920 710 L920 715 L922 721 L922 726 L923 727 L923 732 L924 733 L924 739 L925 740 L927 759 L928 760 L928 767 L929 768 L929 775 L930 776 L931 793 L932 794 L932 803 L933 804 L933 813 L934 814 L935 836 L936 837 L936 847 L937 848 L937 858 L938 859 L941 895 L942 896 L942 902 L943 903 L943 909 L944 910 L944 916 L946 922 L947 932 L955 959 L949 965 L941 968 L927 970 L926 971 L911 972 L910 973 L906 973 L905 970 L907 965 L910 945 L911 944 L913 920 L914 919 L914 906 L915 905 L915 839 L914 838 L914 822 L913 821 L911 789 L910 788 L910 781 L909 780 L909 773 L908 772 L905 748 L904 747 L900 723 L898 718 L898 714 L890 683 L890 679 L884 653 L884 648 L883 647 L883 640 L882 639 L882 632 L881 631 L881 621 L880 620 L880 558 L879 557 L878 533 L876 531 L876 522 L879 516 L879 511 L882 498 L882 490 L883 489 L884 472 L885 471 L885 461 L886 460 L886 440 L887 439 L887 393 L886 392 L885 365 L884 364 L884 356 L883 355 Z M623 354 L603 365 L611 362 Z M481 396 L473 386 L481 398 L487 411 L491 423 L493 437 L495 443 L494 476 L493 477 L490 497 L487 504 L486 503 L486 477 L485 476 L485 465 L484 464 L483 451 L475 423 L466 406 L455 391 L444 380 L430 370 L413 362 L396 357 L391 357 L384 355 L362 354 L361 355 L343 356 L322 361 L311 365 L288 377 L271 390 L260 401 L249 416 L238 437 L231 456 L231 459 L227 471 L226 480 L223 489 L222 502 L221 503 L218 527 L217 528 L213 556 L212 557 L212 563 L215 552 L218 530 L219 529 L226 480 L230 467 L230 463 L238 440 L247 422 L260 403 L273 390 L292 376 L317 364 L338 358 L351 357 L352 356 L381 356 L382 357 L389 357 L390 358 L399 359 L415 364 L429 371 L442 380 L455 393 L466 408 L474 424 L481 448 L482 460 L483 461 L483 469 L484 470 L484 511 L482 516 L481 515 L481 508 L480 506 L480 516 L481 517 L481 526 L482 528 L483 527 L482 519 L489 505 L494 486 L495 474 L496 473 L496 446 L495 445 L495 435 L491 418 L487 407 Z M288 350 L289 349 L290 350 L289 351 Z M292 347 L293 346 L294 347 L293 348 Z M295 345 L296 344 L298 345 L297 346 Z M297 344 L298 343 L299 344 L298 345 Z M635 342 L636 341 L637 342 L636 343 Z M303 341 L304 340 L305 341 L304 342 Z M305 340 L306 339 L308 340 L307 341 Z M307 339 L308 338 L310 339 L309 340 Z M809 365 L794 354 L783 348 L767 342 L754 339 L747 339 L746 338 L721 339 L720 340 L707 342 L690 348 L669 359 L650 374 L637 388 L627 402 L617 421 L610 441 L609 449 L607 454 L605 476 L604 477 L604 500 L603 501 L599 491 L597 478 L596 477 L596 472 L595 471 L594 440 L595 439 L595 431 L599 414 L607 396 L604 399 L600 407 L595 423 L594 433 L593 434 L592 454 L593 455 L593 468 L594 469 L594 475 L597 485 L597 489 L602 504 L607 512 L607 521 L606 522 L606 531 L605 532 L606 535 L606 552 L607 553 L610 570 L616 585 L609 562 L609 557 L608 556 L608 550 L607 549 L607 523 L608 522 L608 515 L609 514 L610 505 L609 505 L608 508 L606 507 L606 499 L605 498 L606 470 L607 469 L609 451 L618 422 L628 403 L643 383 L655 371 L668 361 L691 349 L709 343 L725 341 L726 340 L750 340 L751 341 L757 341 L769 344 L780 348 L795 356 L806 364 L821 379 L832 394 L844 417 L848 427 L855 451 L859 473 L859 467 L857 461 L856 451 L850 432 L850 429 L848 426 L845 416 L836 398 L829 387 L822 378 Z M309 338 L310 337 L312 338 L311 339 Z M311 337 L312 336 L314 337 L313 338 Z M313 336 L314 335 L317 336 L316 337 Z M316 335 L317 334 L319 335 L318 336 Z M318 334 L319 333 L322 334 L321 335 Z M321 333 L322 332 L324 333 L323 334 Z M325 332 L326 331 L327 332 L326 333 Z M328 331 L329 330 L331 331 L330 332 Z M332 330 L333 329 L335 330 L334 331 Z M337 329 L338 328 L339 329 L338 330 Z M341 328 L342 327 L344 328 L343 329 Z M226 433 L236 408 L246 391 L259 374 L272 361 L287 350 L289 351 L303 343 L305 343 L322 335 L340 330 L344 330 L350 328 L357 328 L358 327 L367 327 L368 326 L384 326 L385 327 L391 327 L392 328 L397 328 L405 330 L425 337 L436 343 L438 343 L440 345 L442 345 L444 347 L458 354 L457 355 L459 357 L483 370 L499 376 L516 380 L522 380 L523 381 L555 380 L556 379 L571 377 L578 374 L565 377 L560 377 L559 378 L552 378 L551 379 L518 379 L517 378 L511 378 L485 370 L462 358 L460 356 L462 355 L469 359 L483 363 L489 366 L507 369 L508 370 L516 370 L517 371 L548 371 L549 370 L563 369 L588 363 L605 356 L581 364 L564 367 L563 368 L557 368 L556 369 L548 369 L547 370 L507 369 L506 368 L496 367 L467 357 L430 338 L428 338 L418 333 L400 328 L391 327 L386 325 L374 325 L373 324 L358 324 L357 325 L348 325 L347 326 L337 327 L316 333 L304 339 L302 341 L303 342 L302 343 L298 342 L286 349 L266 365 L250 383 L238 402 L229 423 Z M668 323 L669 322 L671 323 L670 324 Z M670 322 L671 321 L673 322 L672 323 Z M673 321 L674 320 L675 321 L674 322 Z M676 320 L677 319 L678 320 L677 321 Z M610 354 L612 354 L634 342 L636 343 L635 344 L667 326 L693 316 L705 313 L710 313 L711 312 L719 312 L720 311 L747 311 L748 312 L753 312 L773 318 L780 322 L782 322 L798 331 L810 340 L830 360 L844 380 L852 396 L844 378 L837 367 L830 358 L807 336 L792 326 L776 318 L763 313 L746 310 L745 309 L717 308 L716 309 L708 309 L707 310 L694 312 L679 317 L666 324 L664 324 L640 337 L635 341 Z M334 296 L335 295 L337 296 L336 297 Z M338 295 L339 294 L343 295 L342 296 Z M344 294 L345 293 L349 293 L350 294 L349 295 L345 295 Z M355 293 L356 292 L366 292 L367 293 L366 294 L356 294 Z M843 345 L831 328 L814 311 L798 299 L784 292 L782 290 L764 282 L749 278 L736 277 L735 276 L710 277 L678 285 L646 300 L632 308 L621 316 L596 328 L569 336 L559 337 L558 338 L549 338 L548 339 L524 339 L523 338 L514 338 L513 337 L502 336 L472 327 L456 319 L447 316 L437 310 L412 300 L380 292 L349 291 L348 292 L343 292 L342 293 L337 293 L329 295 L312 301 L291 312 L276 322 L262 334 L247 350 L235 367 L228 382 L236 367 L252 346 L266 332 L281 320 L292 313 L308 305 L312 305 L333 298 L343 297 L344 296 L351 296 L352 295 L378 295 L379 296 L386 296 L387 297 L394 297 L395 298 L403 299 L427 307 L474 329 L501 337 L511 338 L512 339 L519 339 L520 340 L552 340 L553 339 L560 339 L561 338 L575 336 L599 328 L617 319 L645 302 L667 291 L686 284 L698 283 L705 281 L713 281 L714 280 L738 280 L739 281 L753 282 L762 285 L767 285 L777 289 L797 300 L813 312 L830 329 L842 345 Z M236 259 L237 260 L225 273 L209 298 L206 293 L206 289 L205 288 L206 279 L209 273 L216 267 L226 262 Z M448 286 L431 276 L429 276 L413 268 L387 260 L371 258 L370 257 L343 257 L342 258 L331 259 L302 269 L285 278 L269 289 L246 311 L233 329 L230 336 L245 314 L265 294 L274 287 L288 278 L304 270 L331 262 L336 262 L348 259 L373 259 L374 260 L389 262 L419 272 L438 281 L446 286 Z M640 276 L645 274 L659 265 L676 257 L705 248 L719 247 L720 246 L736 246 L737 247 L745 247 L746 248 L755 249 L777 256 L793 264 L811 276 L839 304 L847 315 L854 328 L850 318 L840 303 L827 288 L817 279 L804 269 L791 261 L774 253 L758 248 L743 246 L742 245 L714 245 L713 246 L703 247 L685 252 L666 261 L664 261 Z M772 228 L793 235 L813 247 L828 259 L838 269 L851 286 L860 303 L867 326 L867 330 L871 346 L871 352 L872 353 L876 393 L875 364 L874 363 L873 350 L872 349 L869 329 L862 306 L856 293 L848 280 L842 272 L823 253 L811 244 L792 233 L777 228 Z M624 181 L625 180 L627 183 L626 184 Z M444 213 L452 193 L462 180 L463 182 L454 198 L450 214 L450 231 L451 232 L452 240 L457 253 L467 268 L476 277 L487 285 L504 293 L528 299 L542 299 L543 300 L546 299 L559 299 L583 293 L604 282 L616 272 L622 265 L632 249 L637 233 L637 212 L632 195 L626 185 L627 183 L631 187 L636 195 L643 213 L644 223 L645 224 L645 238 L640 258 L633 271 L620 286 L605 297 L594 303 L570 311 L558 312 L557 313 L531 313 L530 312 L524 312 L511 309 L497 304 L487 299 L472 289 L460 277 L449 260 L445 249 L444 241 L443 240 L443 230 L442 229 L443 228 Z M623 180 L624 179 L625 180 L624 181 Z M622 179 L623 178 L624 179 L623 180 Z M621 178 L622 177 L623 178 L622 179 Z M465 176 L466 178 L463 181 L462 179 Z M465 176 L466 175 L467 176 L466 177 Z M466 175 L467 174 L468 175 L467 176 Z M467 174 L468 173 L469 174 L468 175 Z M468 173 L469 172 L470 173 L469 174 Z M469 172 L470 171 L471 172 L470 173 Z M494 155 L505 150 L518 146 L522 146 L528 144 L536 144 L537 143 L552 143 L553 144 L561 144 L562 145 L571 146 L583 150 L597 157 L610 167 L617 174 L627 188 L633 202 L635 210 L635 215 L636 216 L636 229 L632 245 L626 257 L616 270 L607 278 L598 284 L584 291 L567 296 L554 297 L553 298 L535 298 L534 297 L526 297 L525 296 L520 296 L512 294 L490 285 L476 275 L464 262 L457 250 L452 234 L452 227 L451 226 L452 211 L455 199 L458 194 L458 192 L466 179 L477 167 Z M491 155 L472 168 L458 182 L451 192 L447 200 L441 221 L441 237 L445 254 L454 271 L470 289 L486 300 L510 310 L518 312 L523 312 L524 313 L529 313 L530 314 L560 314 L561 313 L566 313 L579 310 L595 304 L615 292 L625 283 L636 269 L642 257 L646 242 L646 220 L645 219 L644 211 L638 196 L630 184 L616 169 L595 154 L587 150 L573 145 L559 143 L558 142 L531 142 L530 143 L525 143 L506 148 Z M421 211 L421 213 L422 213 L430 191 L441 173 L456 158 L469 149 L491 139 L509 134 L519 133 L520 132 L528 132 L529 131 L559 131 L560 132 L567 132 L588 137 L608 146 L624 156 L635 166 L647 182 L653 195 L656 206 L663 206 L670 204 L682 204 L683 203 L696 203 L697 204 L717 205 L718 206 L728 207 L740 210 L760 217 L772 223 L769 220 L754 213 L742 209 L721 205 L720 204 L705 203 L704 202 L678 202 L677 203 L669 203 L663 205 L658 205 L656 203 L653 191 L644 175 L622 153 L609 145 L594 138 L587 137 L584 135 L574 132 L563 131 L562 130 L552 130 L551 129 L526 130 L525 131 L509 133 L505 135 L492 138 L489 140 L486 140 L462 152 L454 158 L440 172 L435 179 L428 192 Z M569 116 L570 117 L576 117 L583 120 L589 130 L614 139 L636 152 L651 167 L655 173 L662 187 L662 189 L667 192 L713 191 L714 192 L722 192 L723 193 L728 193 L741 196 L755 201 L764 206 L773 216 L773 218 L775 216 L781 217 L795 222 L811 230 L829 242 L842 254 L853 268 L866 293 L874 316 L874 319 L879 335 L881 351 L882 352 L883 369 L884 370 L884 382 L885 383 L885 449 L884 450 L884 465 L883 466 L881 495 L880 496 L880 501 L878 507 L878 515 L877 516 L876 515 L876 504 L877 503 L877 461 L878 460 L878 404 L877 403 L877 396 L876 395 L875 544 L876 545 L876 556 L878 560 L878 612 L879 613 L879 627 L880 628 L880 636 L881 637 L883 656 L884 657 L889 686 L891 691 L891 695 L893 700 L893 704 L899 726 L899 730 L903 746 L903 751 L904 752 L904 757 L905 758 L905 763 L906 764 L908 785 L909 786 L911 818 L912 819 L912 833 L913 834 L913 858 L914 859 L914 888 L913 889 L913 910 L912 911 L911 932 L910 933 L909 946 L908 947 L905 966 L903 971 L903 975 L901 980 L901 984 L886 1033 L884 1036 L881 1046 L877 1053 L877 1055 L857 1092 L825 1137 L799 1168 L760 1207 L733 1228 L719 1237 L701 1246 L685 1252 L668 1256 L663 1256 L662 1257 L654 1257 L653 1258 L624 1258 L623 1257 L613 1257 L612 1256 L605 1256 L604 1255 L597 1255 L596 1254 L589 1254 L588 1253 L576 1253 L575 1252 L538 1252 L537 1253 L526 1253 L525 1254 L511 1255 L510 1256 L501 1257 L492 1260 L477 1262 L476 1263 L468 1263 L467 1264 L437 1264 L436 1263 L429 1263 L428 1262 L415 1260 L395 1253 L379 1245 L356 1230 L329 1209 L305 1188 L272 1155 L241 1119 L221 1092 L203 1064 L193 1045 L193 1043 L186 1028 L178 1003 L174 982 L173 981 L171 962 L170 961 L170 954 L169 953 L168 928 L167 927 L167 858 L168 857 L168 842 L169 841 L170 819 L171 818 L172 800 L173 799 L174 784 L175 783 L175 777 L176 776 L179 752 L180 751 L180 747 L181 746 L181 742 L182 741 L182 737 L183 736 L183 732 L184 731 L184 727 L185 726 L185 722 L191 696 L191 691 L193 685 L193 679 L194 678 L194 672 L196 664 L196 656 L197 655 L198 631 L199 630 L200 585 L201 584 L202 560 L203 559 L203 517 L202 516 L200 459 L199 458 L199 402 L200 401 L201 379 L202 378 L202 372 L203 371 L205 355 L209 339 L211 335 L211 332 L223 305 L237 285 L252 270 L265 260 L290 246 L297 244 L307 239 L329 232 L315 235 L296 242 L277 251 L261 261 L252 268 L237 283 L221 306 L207 341 L203 362 L202 363 L200 381 L199 382 L198 409 L197 410 L197 445 L198 446 L198 466 L199 467 L199 489 L198 490 L193 469 L192 454 L191 453 L191 443 L190 442 L190 429 L189 428 L189 384 L190 383 L190 374 L191 373 L191 367 L192 366 L194 350 L199 330 L206 310 L214 294 L214 292 L219 285 L221 280 L228 271 L244 255 L256 246 L282 232 L297 226 L347 212 L352 212 L359 210 L367 210 L368 209 L384 209 L385 210 L401 211 L418 215 L416 213 L398 210 L397 209 L390 209 L389 208 L362 208 L361 209 L345 211 L322 218 L319 217 L323 212 L323 209 L325 205 L332 197 L339 193 L351 189 L371 186 L372 187 L383 188 L400 195 L408 196 L415 193 L418 190 L423 179 L429 170 L443 155 L456 146 L470 139 L475 138 L481 135 L501 130 L506 122 L511 118 L521 117 L522 116 L534 116 L535 115 Z M566 114 L526 114 L525 115 L518 115 L517 116 L509 117 L506 119 L505 122 L500 128 L471 137 L447 150 L428 169 L422 178 L417 189 L414 192 L410 194 L402 194 L401 193 L397 193 L384 187 L375 186 L374 185 L359 186 L339 192 L330 197 L326 201 L320 214 L316 219 L293 226 L274 235 L272 235 L252 247 L240 257 L236 257 L224 261 L212 268 L207 273 L204 280 L204 291 L208 300 L208 303 L202 316 L194 342 L194 346 L190 362 L189 375 L188 376 L188 386 L184 397 L181 400 L180 399 L181 400 L174 404 L168 410 L166 415 L166 424 L165 426 L161 428 L151 440 L148 447 L137 448 L130 453 L125 463 L124 475 L123 476 L123 510 L124 511 L125 533 L126 534 L129 558 L134 578 L134 582 L136 587 L136 591 L138 596 L142 624 L143 625 L143 634 L144 635 L144 644 L145 645 L146 680 L145 681 L145 699 L144 700 L143 716 L142 717 L141 729 L140 730 L140 735 L139 736 L139 741 L138 742 L138 747 L137 748 L137 753 L136 754 L134 771 L132 778 L132 784 L131 785 L131 791 L130 792 L130 798 L129 799 L129 805 L128 806 L128 812 L127 813 L127 819 L126 820 L125 833 L123 841 L123 848 L121 856 L121 863 L119 871 L115 910 L114 911 L113 931 L112 932 L112 955 L113 959 L118 966 L127 970 L140 972 L141 973 L146 973 L147 974 L168 976 L171 978 L176 1002 L185 1030 L199 1060 L211 1080 L237 1116 L268 1153 L305 1190 L339 1219 L355 1231 L380 1247 L394 1254 L411 1260 L423 1263 L428 1263 L429 1264 L436 1264 L437 1265 L467 1265 L468 1264 L476 1264 L477 1263 L482 1263 L483 1262 L487 1262 L488 1261 L492 1261 L497 1259 L517 1256 L518 1255 L542 1254 L543 1253 L585 1254 L586 1255 L595 1255 L596 1256 L603 1256 L604 1257 L611 1257 L612 1258 L622 1258 L623 1259 L654 1259 L655 1258 L663 1258 L664 1257 L674 1256 L692 1251 L695 1249 L700 1248 L725 1235 L760 1209 L790 1180 L820 1146 L846 1111 L866 1080 L881 1050 L893 1018 L893 1015 L899 998 L904 976 L909 974 L923 973 L924 972 L940 970 L950 966 L957 959 L960 947 L960 917 L959 916 L958 894 L957 893 L955 868 L954 867 L954 858 L953 857 L953 847 L952 846 L952 836 L951 835 L951 826 L950 825 L950 816 L949 815 L949 807 L948 806 L946 779 L945 778 L942 747 L941 746 L941 740 L940 739 L940 733 L938 725 L937 708 L935 700 L935 689 L934 688 L934 660 L935 659 L935 649 L936 648 L938 622 L939 621 L939 615 L940 614 L941 603 L943 597 L943 592 L944 591 L944 587 L945 586 L945 582 L946 581 L946 577 L952 551 L952 546 L953 545 L953 540 L956 527 L956 521 L957 520 L958 504 L959 503 L960 463 L959 462 L959 456 L957 449 L953 442 L948 438 L943 436 L934 436 L929 427 L921 419 L916 416 L914 416 L912 414 L910 408 L909 392 L905 382 L904 365 L900 360 L888 355 L885 352 L882 345 L882 341 L877 321 L875 317 L875 314 L866 289 L860 277 L851 263 L841 251 L830 241 L807 226 L789 218 L773 214 L764 204 L742 195 L730 192 L725 192 L724 191 L717 191 L716 190 L668 191 L663 187 L658 175 L652 166 L637 151 L625 143 L613 137 L591 129 L586 121 L581 117 L574 115 L567 115 Z" fill="#eef3f4" fill-rule="evenodd"/>
</svg>
