<svg xmlns="http://www.w3.org/2000/svg" width="1086" height="1448" viewBox="0 0 1086 1448">
  <title>0107</title>
  <path d="M525 1260 L526 1261 L525 1264 L524 1263 Z M523 1259 L524 1258 L525 1260 L524 1261 Z M512 1257 L513 1256 L514 1257 L513 1258 Z M586 1255 L587 1254 L588 1256 L587 1257 Z M512 1252 L513 1253 L512 1256 L511 1255 Z M522 1237 L523 1236 L524 1238 L523 1239 Z M522 1230 L523 1231 L522 1235 L521 1234 Z M534 1229 L535 1230 L535 1234 L534 1235 L533 1234 L533 1230 Z M529 1226 L530 1225 L531 1227 L530 1228 Z M583 1223 L584 1224 L584 1228 L583 1229 L582 1228 L582 1224 Z M498 1224 L496 1231 L496 1249 L499 1256 L502 1259 L503 1256 L505 1260 L508 1262 L503 1250 L502 1237 L501 1237 L501 1249 L503 1254 L502 1257 L498 1250 L497 1246 L497 1235 L499 1227 L499 1224 Z M556 1216 L557 1217 L557 1221 L556 1222 L555 1221 L555 1217 Z M523 1217 L522 1219 L522 1229 L521 1230 L519 1228 L521 1240 L526 1252 L529 1253 L534 1265 L538 1271 L540 1271 L537 1253 L533 1243 L533 1240 L532 1240 L532 1243 L536 1255 L536 1259 L538 1265 L537 1267 L535 1265 L534 1260 L527 1246 L524 1233 Z M589 1210 L590 1211 L589 1214 L588 1213 Z M498 1206 L491 1231 L491 1238 L498 1213 Z M581 1193 L582 1212 L583 1213 L583 1217 L582 1218 L579 1208 L578 1209 L580 1215 L581 1228 L583 1229 L582 1234 L584 1233 L586 1234 L586 1251 L582 1261 L583 1262 L586 1257 L587 1259 L591 1254 L593 1248 L593 1236 L592 1235 L591 1226 L589 1224 L590 1233 L591 1234 L591 1249 L588 1255 L587 1254 L588 1237 L585 1224 L583 1197 L582 1193 Z M556 1193 L555 1193 L555 1205 L556 1206 L556 1215 L555 1216 L552 1209 L553 1217 L554 1218 L554 1224 L555 1225 L554 1253 L549 1271 L550 1271 L555 1258 L555 1251 L556 1250 L555 1240 L558 1231 L559 1232 L559 1245 L561 1242 Z M541 1193 L542 1219 L543 1220 L544 1231 L546 1237 L548 1239 L544 1222 L544 1217 L543 1216 L542 1193 Z M514 1189 L512 1196 L512 1206 L511 1207 L512 1224 L514 1227 L514 1231 L520 1257 L523 1263 L525 1265 L526 1263 L530 1270 L531 1270 L531 1268 L526 1259 L525 1254 L524 1254 L524 1258 L523 1259 L519 1249 L518 1239 L517 1238 L517 1230 L516 1229 L518 1206 L516 1208 L515 1219 L514 1220 L513 1219 L513 1201 L515 1193 L515 1189 Z M584 1182 L586 1190 L586 1196 L587 1197 L587 1215 L589 1215 L590 1213 L591 1214 L591 1217 L595 1228 L596 1237 L598 1237 L595 1222 L591 1211 L591 1206 L590 1207 L589 1206 L588 1192 L586 1184 Z M503 1182 L500 1191 L500 1217 L502 1216 L501 1196 L502 1195 L502 1188 L504 1183 Z M564 1179 L563 1179 L563 1181 L564 1182 L565 1194 L566 1195 L567 1219 L569 1221 L569 1233 L567 1239 L566 1238 L565 1216 L562 1204 L563 1221 L564 1222 L564 1245 L561 1256 L554 1270 L555 1270 L559 1264 L564 1250 L568 1244 L570 1236 L570 1231 L571 1230 L571 1219 L572 1218 L575 1229 L572 1248 L561 1269 L563 1268 L570 1254 L571 1258 L568 1264 L571 1262 L573 1256 L573 1249 L575 1241 L577 1239 L579 1243 L578 1251 L573 1265 L570 1270 L573 1268 L577 1260 L577 1257 L578 1256 L579 1258 L581 1257 L584 1249 L584 1247 L583 1247 L579 1257 L578 1254 L580 1249 L580 1240 L577 1238 L577 1229 L576 1228 L576 1223 L574 1217 L574 1209 L573 1208 L573 1195 L572 1191 L571 1191 L572 1214 L570 1219 L569 1218 L567 1191 Z M526 1179 L523 1187 L523 1210 L526 1222 L531 1235 L533 1238 L535 1234 L536 1235 L539 1249 L540 1249 L540 1244 L535 1229 L534 1228 L533 1230 L532 1229 L531 1205 L530 1204 L531 1192 L529 1198 L529 1219 L530 1220 L530 1224 L529 1225 L527 1220 L527 1216 L525 1210 L525 1202 L524 1201 Z M512 1176 L508 1186 L502 1230 L504 1231 L504 1234 L506 1236 L506 1245 L508 1252 L511 1258 L514 1260 L516 1266 L520 1270 L517 1264 L515 1254 L513 1250 L513 1237 L511 1239 L511 1247 L512 1248 L512 1252 L511 1253 L508 1245 L508 1231 L509 1230 L509 1222 L510 1220 L508 1220 L508 1226 L506 1233 L504 1228 L507 1204 L508 1203 L509 1189 L513 1177 Z M586 1173 L589 1181 L594 1202 L599 1213 L602 1216 L602 1214 L600 1212 L600 1210 L595 1200 L589 1177 Z M547 1171 L547 1175 L548 1176 L547 1214 L548 1215 L548 1225 L549 1226 L550 1240 L549 1241 L548 1251 L546 1255 L544 1251 L543 1239 L540 1229 L540 1225 L539 1223 L538 1224 L541 1235 L543 1254 L544 1255 L544 1271 L545 1271 L546 1255 L550 1250 L551 1246 L551 1232 L550 1231 L550 1221 L549 1220 L550 1184 L549 1183 L549 1176 Z M537 1171 L534 1184 L534 1197 L535 1198 L535 1206 L537 1211 L537 1216 L540 1221 L538 1216 L537 1205 L536 1204 L536 1180 L538 1171 Z M571 1169 L575 1183 L576 1200 L578 1201 L577 1185 L573 1171 Z M505 1168 L503 1169 L499 1177 L493 1200 L488 1211 L486 1213 L486 1215 L489 1212 L493 1204 L498 1190 L499 1182 Z M554 1164 L557 1176 L558 1197 L559 1197 L559 1178 L558 1177 L557 1168 L555 1164 Z M525 1164 L522 1167 L519 1177 L519 1181 L518 1182 L518 1198 L519 1198 L520 1180 Z M450 1072 L451 1071 L456 1071 L457 1072 L495 1073 L496 1074 L523 1074 L524 1075 L568 1075 L569 1074 L595 1074 L596 1073 L617 1073 L618 1072 L636 1072 L637 1073 L626 1082 L605 1115 L596 1124 L590 1127 L582 1128 L581 1129 L509 1129 L508 1128 L499 1127 L489 1121 L482 1113 L464 1084 L456 1076 Z M647 1071 L648 1070 L649 1071 L648 1072 Z M441 1071 L442 1070 L448 1071 L460 1081 L468 1092 L481 1114 L489 1123 L500 1129 L515 1130 L516 1131 L577 1131 L578 1130 L585 1130 L592 1128 L601 1122 L607 1115 L626 1084 L634 1076 L642 1071 L647 1071 L648 1072 L635 1086 L622 1110 L613 1124 L601 1135 L595 1138 L584 1141 L559 1142 L558 1143 L539 1143 L538 1142 L507 1141 L506 1140 L498 1139 L486 1133 L474 1121 L464 1105 L457 1091 Z M725 1056 L726 1055 L728 1056 L727 1057 Z M708 1056 L709 1055 L710 1056 L709 1057 Z M687 1055 L688 1054 L689 1055 L688 1056 Z M677 1055 L678 1054 L680 1055 L679 1056 Z M380 1055 L381 1054 L382 1055 L381 1056 Z M364 1055 L365 1054 L366 1055 L365 1056 Z M685 1054 L686 1053 L687 1054 L686 1055 Z M675 1054 L676 1053 L678 1054 L677 1055 Z M409 1054 L410 1053 L411 1054 L410 1055 Z M395 1054 L396 1053 L399 1054 L398 1055 Z M341 1054 L342 1053 L347 1053 L348 1054 L347 1055 L342 1055 Z M709 1053 L710 1052 L711 1053 L710 1054 Z M683 1053 L684 1052 L685 1053 L684 1054 Z M680 1053 L681 1052 L682 1053 L681 1054 Z M418 1053 L419 1052 L420 1053 L419 1054 Z M403 1053 L404 1052 L405 1053 L404 1054 Z M398 1053 L399 1052 L401 1053 L400 1054 Z M392 1053 L393 1052 L394 1053 L393 1054 Z M377 1053 L378 1052 L380 1053 L379 1054 Z M370 1053 L371 1052 L372 1053 L371 1054 Z M682 1052 L683 1051 L684 1052 L683 1053 Z M665 1052 L666 1051 L667 1052 L666 1053 Z M611 1052 L612 1051 L614 1052 L613 1053 Z M478 1052 L479 1051 L480 1052 L479 1053 Z M400 1052 L401 1051 L402 1052 L401 1053 Z M393 1052 L394 1051 L395 1052 L394 1053 Z M379 1052 L380 1051 L381 1052 L380 1053 Z M371 1052 L372 1051 L374 1052 L373 1053 Z M763 1051 L764 1050 L766 1051 L765 1052 Z M659 1051 L660 1050 L661 1051 L660 1052 Z M589 1051 L590 1050 L592 1051 L591 1052 Z M497 1051 L498 1050 L499 1051 L498 1052 Z M489 1051 L490 1050 L492 1051 L491 1052 Z M428 1051 L429 1050 L430 1051 L429 1052 Z M401 1051 L402 1050 L404 1051 L403 1052 Z M394 1051 L395 1050 L397 1051 L396 1052 Z M374 1051 L375 1050 L377 1051 L376 1052 Z M731 1050 L734 1049 L749 1054 L748 1055 L741 1055 Z M662 1050 L663 1049 L664 1050 L663 1051 Z M632 1050 L633 1049 L635 1050 L634 1051 Z M626 1050 L627 1049 L628 1050 L627 1051 Z M614 1050 L615 1049 L616 1050 L615 1051 Z M601 1050 L602 1049 L603 1050 L602 1051 Z M582 1050 L583 1049 L584 1050 L583 1051 Z M514 1050 L515 1049 L516 1050 L515 1051 Z M505 1050 L506 1049 L507 1050 L506 1051 Z M499 1050 L500 1049 L501 1050 L500 1051 Z M483 1051 L485 1049 L487 1050 L485 1052 Z M460 1050 L461 1049 L464 1050 L463 1051 Z M430 1050 L431 1049 L432 1050 L431 1051 Z M403 1050 L404 1049 L405 1050 L404 1051 Z M396 1050 L397 1049 L399 1050 L398 1051 Z M376 1050 L377 1049 L379 1050 L378 1051 Z M359 1050 L351 1054 L347 1053 L356 1049 Z M753 1049 L754 1048 L762 1048 L763 1049 L762 1050 L754 1050 Z M729 1049 L730 1048 L732 1049 L731 1050 Z M661 1049 L662 1048 L663 1049 L662 1050 Z M649 1049 L650 1048 L651 1049 L650 1050 Z M644 1049 L645 1048 L646 1049 L645 1050 Z M636 1049 L637 1048 L638 1049 L637 1050 Z M630 1049 L631 1048 L632 1049 L631 1050 Z M600 1049 L601 1048 L602 1049 L601 1050 Z M580 1049 L581 1048 L583 1049 L582 1050 Z M443 1049 L444 1048 L445 1049 L444 1050 Z M436 1049 L437 1048 L439 1049 L438 1050 Z M431 1049 L432 1048 L433 1049 L432 1050 Z M398 1049 L399 1048 L401 1049 L400 1050 Z M379 1049 L380 1048 L382 1049 L381 1050 Z M358 1049 L359 1048 L360 1049 L359 1050 Z M750 1048 L751 1047 L754 1048 L753 1049 Z M727 1048 L728 1047 L730 1048 L729 1049 Z M648 1048 L649 1047 L650 1048 L649 1049 Z M634 1048 L635 1047 L637 1048 L636 1049 Z M575 1048 L576 1047 L577 1048 L576 1049 Z M432 1048 L433 1047 L435 1048 L434 1049 Z M381 1048 L382 1047 L383 1048 L382 1049 Z M360 1048 L361 1047 L362 1048 L361 1049 Z M725 1047 L726 1046 L727 1047 L726 1048 Z M658 1047 L659 1046 L660 1047 L659 1048 Z M646 1047 L647 1046 L648 1047 L647 1048 Z M627 1047 L629 1046 L631 1048 L629 1049 Z M574 1047 L575 1046 L576 1047 L575 1048 Z M567 1047 L568 1046 L569 1047 L568 1048 Z M514 1047 L515 1046 L516 1047 L515 1048 Z M434 1047 L435 1046 L436 1047 L435 1048 Z M383 1047 L384 1046 L385 1047 L384 1048 Z M362 1047 L363 1046 L364 1047 L363 1048 Z M724 1046 L725 1045 L726 1046 L725 1047 Z M657 1046 L658 1045 L659 1046 L658 1047 Z M645 1046 L646 1045 L647 1046 L646 1047 Z M626 1046 L627 1045 L628 1046 L627 1047 Z M570 1046 L571 1045 L572 1046 L571 1047 Z M566 1046 L567 1045 L568 1046 L567 1047 Z M515 1046 L516 1045 L517 1046 L516 1047 Z M364 1046 L365 1045 L366 1046 L365 1047 Z M722 1045 L723 1044 L724 1045 L723 1046 Z M702 1045 L703 1044 L707 1045 L714 1050 L726 1055 L725 1056 L719 1055 L712 1051 L710 1051 Z M656 1045 L657 1044 L658 1045 L657 1046 Z M625 1045 L626 1044 L627 1045 L626 1046 Z M596 1045 L597 1044 L598 1045 L597 1046 Z M569 1045 L570 1044 L571 1045 L570 1046 Z M537 1045 L538 1044 L539 1045 L538 1046 Z M516 1045 L517 1044 L518 1045 L517 1046 Z M365 1045 L366 1044 L367 1045 L366 1046 Z M721 1044 L722 1043 L723 1044 L722 1045 Z M700 1044 L701 1043 L703 1044 L702 1045 Z M655 1044 L656 1043 L657 1044 L656 1045 Z M624 1044 L625 1043 L626 1044 L625 1045 Z M607 1044 L608 1043 L609 1044 L608 1045 Z M572 1044 L573 1043 L575 1046 L574 1047 Z M536 1044 L537 1043 L538 1044 L537 1045 Z M423 1056 L429 1053 L433 1053 L439 1051 L466 1053 L474 1055 L478 1054 L485 1055 L491 1053 L492 1054 L496 1054 L503 1051 L504 1053 L506 1053 L512 1050 L516 1051 L522 1048 L524 1049 L532 1043 L535 1047 L543 1048 L544 1049 L550 1048 L556 1044 L561 1048 L564 1047 L566 1049 L570 1049 L572 1051 L576 1050 L583 1053 L590 1053 L591 1054 L595 1054 L596 1053 L597 1054 L605 1054 L606 1055 L610 1054 L613 1055 L614 1054 L625 1054 L626 1053 L633 1053 L634 1052 L642 1052 L643 1053 L644 1051 L648 1051 L653 1053 L656 1052 L665 1055 L666 1057 L658 1065 L649 1069 L643 1069 L642 1070 L607 1071 L606 1072 L579 1072 L578 1073 L516 1073 L515 1072 L512 1073 L511 1072 L486 1072 L485 1071 L468 1071 L467 1070 L441 1069 L432 1065 Z M527 1044 L528 1043 L529 1044 L528 1045 Z M476 1044 L477 1043 L478 1044 L477 1045 Z M366 1044 L367 1043 L368 1044 L367 1045 Z M654 1043 L655 1042 L656 1043 L655 1044 Z M606 1043 L607 1042 L608 1043 L607 1044 Z M558 1043 L559 1042 L560 1043 L559 1044 Z M548 1042 L549 1043 L548 1046 L547 1045 Z M517 1043 L518 1042 L519 1044 L518 1045 Z M477 1043 L478 1042 L479 1043 L478 1044 Z M367 1043 L368 1042 L370 1043 L369 1044 Z M518 1042 L519 1041 L520 1042 L519 1043 Z M493 1041 L495 1043 L490 1049 L487 1050 L486 1049 Z M478 1042 L479 1041 L480 1042 L479 1043 Z M369 1042 L370 1041 L371 1042 L370 1043 Z M349 1042 L350 1041 L351 1042 L350 1043 Z M701 1041 L702 1040 L703 1041 L702 1042 Z M565 1041 L566 1040 L567 1041 L566 1042 Z M536 1040 L537 1043 L535 1045 L534 1042 Z M416 1042 L418 1040 L420 1041 L418 1044 Z M694 1040 L695 1039 L696 1040 L695 1041 Z M556 1040 L557 1039 L558 1040 L557 1041 Z M519 1040 L520 1039 L521 1041 L520 1042 Z M493 1040 L494 1039 L495 1041 L494 1042 Z M419 1040 L420 1039 L421 1040 L420 1041 Z M370 1041 L372 1039 L374 1040 L372 1042 Z M745 1039 L748 1038 L754 1040 L755 1042 L758 1043 L770 1044 L771 1045 L770 1046 L752 1046 L745 1043 L749 1042 L749 1041 Z M692 1039 L693 1038 L695 1039 L694 1040 Z M564 1039 L565 1038 L566 1040 L565 1041 Z M534 1039 L535 1038 L536 1039 L535 1040 Z M420 1039 L421 1038 L422 1039 L421 1040 Z M373 1039 L374 1038 L376 1039 L375 1040 Z M370 1039 L361 1046 L352 1050 L345 1052 L336 1052 L335 1051 L367 1038 Z M742 1038 L743 1037 L746 1038 L745 1039 Z M691 1038 L692 1037 L693 1038 L692 1039 Z M583 1038 L584 1037 L585 1039 L584 1040 Z M555 1038 L556 1037 L557 1039 L556 1040 Z M422 1038 L423 1037 L424 1038 L423 1039 Z M376 1038 L377 1037 L378 1038 L377 1039 Z M369 1038 L370 1037 L372 1038 L371 1039 Z M739 1037 L740 1036 L742 1037 L741 1038 Z M689 1037 L690 1036 L691 1037 L690 1038 Z M572 1037 L573 1036 L574 1038 L573 1039 Z M469 1037 L470 1036 L471 1037 L470 1038 Z M378 1037 L379 1036 L380 1037 L379 1038 Z M737 1036 L738 1035 L739 1036 L738 1037 Z M666 1036 L667 1035 L668 1036 L667 1037 Z M582 1036 L583 1035 L584 1037 L583 1038 Z M554 1036 L555 1035 L556 1037 L555 1038 Z M470 1036 L471 1035 L472 1036 L471 1037 Z M375 1036 L376 1035 L377 1036 L376 1037 Z M355 1036 L345 1043 L338 1046 L327 1047 L321 1045 L322 1044 L328 1044 L336 1042 L343 1038 L346 1038 L353 1035 Z M723 1035 L724 1034 L731 1035 L746 1042 L742 1043 L728 1038 Z M664 1035 L665 1034 L666 1035 L665 1036 Z M571 1035 L572 1034 L573 1036 L572 1037 Z M354 1035 L355 1034 L357 1035 L356 1036 Z M346 1035 L347 1034 L348 1035 L347 1036 Z M721 1034 L722 1033 L723 1034 L722 1035 Z M356 1034 L357 1033 L358 1034 L357 1035 Z M729 1033 L730 1032 L732 1033 L731 1034 Z M706 1033 L707 1032 L708 1033 L707 1034 Z M554 1032 L555 1033 L554 1036 L553 1035 Z M704 1032 L705 1031 L706 1032 L705 1033 Z M660 1032 L662 1031 L665 1034 L663 1035 Z M607 1032 L608 1031 L609 1032 L608 1033 Z M648 1031 L649 1030 L650 1031 L649 1032 Z M625 1031 L626 1030 L627 1032 L626 1033 Z M591 1031 L592 1030 L593 1031 L592 1032 Z M426 1031 L427 1030 L428 1031 L427 1032 Z M407 1031 L408 1030 L409 1031 L408 1032 Z M647 1030 L648 1029 L649 1030 L648 1031 Z M606 1030 L607 1029 L608 1030 L607 1031 Z M408 1030 L409 1029 L410 1030 L409 1031 Z M363 1030 L364 1029 L365 1030 L364 1031 Z M334 1030 L335 1029 L337 1030 L336 1031 Z M603 1028 L609 1036 L610 1039 L620 1049 L624 1051 L623 1052 L620 1052 L615 1048 L613 1050 L608 1046 L609 1044 L610 1045 L603 1034 L602 1031 Z M409 1029 L410 1028 L411 1029 L410 1030 Z M365 1029 L366 1028 L367 1029 L366 1030 Z M448 1028 L449 1027 L450 1028 L449 1029 Z M410 1028 L411 1027 L412 1028 L411 1029 Z M741 1027 L742 1026 L743 1027 L742 1028 Z M459 1027 L460 1026 L461 1027 L460 1028 Z M411 1027 L412 1026 L413 1027 L412 1028 Z M399 1027 L395 1030 L394 1029 L395 1030 L385 1040 L388 1039 Z M602 1025 L603 1026 L602 1029 L601 1028 Z M449 1026 L450 1025 L451 1026 L450 1027 Z M412 1026 L413 1025 L414 1026 L413 1027 Z M460 1025 L461 1024 L462 1025 L461 1026 Z M442 1025 L435 1036 L435 1038 L439 1034 Z M349 1025 L350 1024 L351 1025 L350 1026 Z M733 1024 L734 1023 L736 1024 L735 1025 Z M622 1023 L626 1029 L625 1031 L621 1025 Z M450 1024 L451 1023 L452 1025 L451 1026 Z M351 1024 L352 1023 L353 1024 L352 1025 Z M730 1023 L731 1022 L734 1023 L733 1024 Z M670 1023 L671 1022 L672 1023 L671 1024 Z M655 1023 L656 1022 L657 1023 L656 1024 Z M634 1023 L635 1022 L636 1023 L635 1024 Z M620 1023 L621 1022 L622 1023 L621 1024 Z M451 1023 L452 1022 L453 1023 L452 1024 Z M352 1023 L353 1022 L355 1023 L354 1024 Z M669 1022 L670 1021 L671 1022 L670 1023 Z M654 1022 L655 1021 L656 1022 L655 1023 Z M619 1022 L620 1021 L621 1022 L620 1023 Z M462 1022 L463 1021 L464 1022 L463 1023 Z M398 1022 L399 1021 L400 1022 L399 1023 Z M709 1021 L710 1020 L711 1021 L710 1022 Z M653 1021 L654 1020 L655 1021 L654 1022 Z M452 1021 L453 1020 L454 1022 L453 1023 Z M399 1021 L400 1020 L401 1021 L400 1022 Z M618 1020 L619 1019 L620 1021 L619 1022 Z M463 1020 L464 1019 L465 1020 L464 1021 Z M400 1020 L401 1019 L403 1020 L402 1021 Z M746 1019 L747 1018 L748 1019 L747 1020 Z M617 1019 L618 1018 L619 1019 L618 1020 Z M453 1019 L454 1018 L455 1020 L454 1021 Z M402 1019 L403 1018 L404 1019 L403 1020 Z M339 1019 L340 1018 L341 1019 L340 1020 Z M309 1019 L310 1018 L314 1019 L313 1020 Z M781 1018 L782 1017 L784 1018 L783 1019 Z M743 1018 L744 1017 L746 1018 L745 1019 Z M684 1018 L686 1017 L692 1020 L695 1018 L722 1028 L729 1032 L728 1033 L721 1032 L712 1028 L723 1037 L734 1042 L739 1043 L753 1051 L752 1052 L746 1052 L731 1047 L721 1041 L716 1036 L711 1034 L699 1024 L697 1024 L697 1025 L702 1028 L705 1031 L704 1032 L699 1030 Z M464 1018 L465 1017 L466 1018 L465 1019 Z M403 1018 L404 1017 L405 1018 L404 1019 Z M341 1018 L342 1017 L344 1018 L343 1019 Z M682 1017 L683 1016 L685 1017 L684 1018 Z M616 1017 L617 1016 L618 1018 L617 1019 Z M465 1017 L466 1016 L467 1017 L466 1018 Z M359 1016 L350 1023 L340 1028 L332 1028 L330 1027 L332 1028 L331 1029 L315 1029 L310 1027 L311 1026 L320 1026 L328 1023 L334 1023 L346 1020 L357 1015 Z M380 1015 L364 1028 L349 1035 L348 1033 L345 1033 L343 1035 L345 1035 L346 1036 L345 1037 L334 1038 L333 1039 L321 1039 L315 1037 L316 1036 L329 1035 L334 1032 L338 1032 L350 1028 L371 1017 L373 1017 L378 1014 Z M359 1015 L360 1014 L361 1015 L360 1016 Z M741 1014 L742 1013 L747 1013 L748 1014 L759 1015 L770 1018 L780 1018 L781 1019 L780 1020 L762 1022 L752 1019 Z M728 1013 L729 1012 L733 1012 L744 1017 L740 1018 L732 1016 Z M717 1013 L718 1012 L725 1012 L728 1015 L734 1018 L737 1018 L749 1022 L763 1023 L764 1024 L763 1025 L759 1025 L759 1027 L764 1026 L763 1025 L764 1024 L775 1025 L776 1026 L783 1025 L784 1026 L780 1028 L769 1029 L768 1030 L753 1029 L737 1023 Z M346 1013 L344 1015 L330 1022 L326 1022 L325 1023 L323 1021 L317 1021 L315 1019 L316 1018 L328 1017 L341 1012 L345 1012 Z M727 1012 L728 1011 L729 1012 L728 1013 Z M713 1012 L714 1011 L716 1012 L715 1013 Z M679 1012 L680 1011 L682 1012 L681 1013 Z M376 1012 L377 1011 L379 1012 L378 1013 Z M345 1012 L346 1011 L348 1012 L347 1013 Z M678 1011 L679 1010 L680 1011 L679 1012 Z M649 1010 L650 1009 L651 1010 L650 1011 Z M393 1009 L394 1008 L395 1009 L394 1010 Z M648 1008 L649 1007 L650 1009 L649 1010 Z M412 1008 L413 1007 L414 1008 L413 1009 Z M395 1008 L396 1007 L398 1008 L397 1009 Z M647 1007 L648 1006 L649 1007 L648 1008 Z M413 1007 L414 1006 L415 1007 L414 1008 Z M397 1007 L398 1006 L399 1007 L398 1008 Z M646 1006 L647 1005 L648 1006 L647 1007 Z M689 1005 L691 1004 L700 1007 L708 1012 L727 1019 L731 1022 L728 1023 L719 1019 L719 1020 L728 1025 L734 1026 L747 1031 L751 1031 L752 1032 L754 1031 L757 1034 L766 1035 L767 1036 L774 1036 L775 1037 L770 1039 L756 1039 L735 1033 L720 1026 L713 1020 Z M373 1005 L363 1012 L358 1013 L347 1018 L343 1017 L362 1005 L365 1004 L367 1005 L368 1004 L372 1004 Z M687 1004 L688 1003 L690 1004 L689 1005 Z M532 1004 L530 1010 L528 1025 L524 1033 L527 1031 L529 1027 L530 1019 L531 1018 L531 1012 L532 1011 Z M685 1003 L686 1002 L687 1003 L686 1004 Z M558 1001 L560 1014 L564 1026 L565 1026 L560 1004 Z M526 1001 L525 1001 L523 1007 L522 1016 L520 1021 L521 1023 L524 1014 Z M668 998 L670 997 L676 1000 L681 1001 L682 1002 L681 1003 L688 1006 L709 1020 L708 1021 L703 1020 L685 1013 Z M393 998 L381 1006 L368 1017 L356 1023 L354 1022 L363 1015 L366 1011 L378 1003 L390 997 Z M392 997 L393 996 L395 997 L394 998 Z M601 995 L600 996 L606 1008 L606 1010 L610 1018 L613 1021 L608 1011 L606 1004 Z M411 994 L397 1005 L380 1012 L378 1011 L382 1007 L399 995 L405 993 L410 993 Z M410 993 L411 992 L412 993 L411 994 Z M654 991 L656 990 L661 993 L663 996 L679 1010 L677 1011 L666 1004 Z M422 991 L414 999 L407 1004 L405 1004 L400 1007 L398 1006 L414 993 L420 990 Z M653 990 L654 989 L655 990 L654 991 Z M619 990 L619 992 L633 1016 L635 1021 L634 1023 L626 1015 L617 1000 L616 1001 L626 1017 L637 1028 L638 1031 L639 1030 L640 1032 L642 1032 L633 1013 Z M421 990 L422 989 L424 990 L423 991 Z M652 989 L653 988 L654 989 L653 990 Z M651 988 L652 987 L653 988 L652 989 Z M438 982 L432 991 L415 1007 L414 1005 L412 1006 L392 1026 L389 1028 L386 1028 L382 1032 L380 1030 L381 1032 L377 1036 L375 1034 L353 1042 L351 1041 L361 1034 L386 1022 L395 1016 L395 1014 L388 1019 L368 1029 L366 1028 L379 1018 L384 1012 L392 1009 L393 1010 L389 1013 L389 1014 L391 1014 L393 1012 L395 1012 L397 1010 L408 1005 L421 995 L428 987 L437 981 Z M512 977 L515 980 L522 982 L528 982 L529 983 L561 983 L562 982 L571 981 L576 978 L575 977 L572 979 L564 980 L563 981 L526 981 Z M355 1054 L369 1046 L375 1041 L381 1038 L379 1036 L391 1028 L400 1024 L412 1015 L412 1014 L410 1014 L406 1018 L404 1017 L410 1010 L411 1011 L413 1009 L415 1009 L428 998 L438 986 L449 967 L460 977 L467 980 L475 982 L480 982 L481 983 L505 983 L526 990 L541 991 L542 992 L563 990 L577 986 L583 983 L604 983 L605 982 L611 982 L619 980 L629 975 L636 967 L642 977 L645 980 L647 986 L669 1009 L675 1011 L679 1014 L681 1014 L683 1016 L682 1017 L683 1019 L696 1030 L718 1041 L724 1048 L735 1054 L734 1055 L730 1055 L712 1047 L693 1030 L684 1025 L673 1016 L678 1022 L692 1031 L702 1040 L700 1041 L695 1037 L688 1034 L684 1030 L686 1032 L684 1033 L679 1028 L680 1027 L679 1028 L662 1011 L653 1000 L652 1001 L670 1021 L669 1022 L662 1018 L653 1010 L644 998 L645 1002 L647 1004 L646 1006 L634 990 L633 990 L634 993 L652 1016 L654 1020 L652 1021 L646 1015 L645 1016 L661 1031 L659 1033 L662 1036 L668 1039 L682 1051 L680 1053 L675 1051 L662 1038 L664 1043 L676 1053 L673 1054 L658 1044 L656 1041 L657 1040 L649 1028 L642 1014 L635 1005 L648 1029 L647 1030 L643 1025 L642 1026 L655 1040 L654 1042 L650 1039 L653 1044 L660 1050 L657 1051 L649 1046 L641 1036 L634 1030 L646 1045 L644 1046 L635 1036 L637 1041 L641 1046 L645 1048 L641 1049 L634 1044 L632 1038 L630 1036 L628 1030 L623 1022 L623 1019 L621 1020 L613 1007 L613 1009 L617 1015 L616 1018 L621 1029 L635 1047 L633 1048 L625 1041 L622 1034 L623 1039 L621 1040 L617 1035 L613 1027 L611 1026 L616 1036 L625 1043 L623 1045 L627 1049 L625 1050 L621 1048 L612 1039 L607 1023 L602 1013 L600 1011 L600 1013 L599 1014 L596 1007 L592 1001 L597 1015 L599 1016 L600 1013 L602 1015 L602 1017 L607 1027 L606 1030 L602 1025 L601 1026 L596 1018 L596 1021 L601 1030 L602 1035 L607 1042 L606 1045 L612 1051 L611 1052 L605 1050 L598 1044 L599 1039 L598 1041 L596 1038 L596 1035 L590 1018 L586 1010 L585 1010 L592 1028 L591 1030 L588 1029 L594 1036 L597 1044 L596 1045 L594 1043 L591 1037 L592 1042 L600 1051 L596 1052 L592 1050 L586 1044 L584 1040 L587 1039 L585 1036 L582 1021 L576 1006 L575 1007 L579 1017 L583 1033 L582 1036 L579 1031 L578 1026 L576 1024 L577 1029 L583 1042 L590 1050 L589 1051 L587 1051 L581 1045 L580 1045 L581 1047 L580 1049 L576 1044 L577 1043 L576 1044 L573 1040 L576 1037 L573 1032 L570 1017 L568 1013 L567 1014 L571 1029 L570 1030 L569 1029 L569 1030 L572 1033 L571 1035 L570 1034 L570 1037 L573 1042 L572 1044 L569 1042 L570 1041 L569 1042 L567 1040 L565 1034 L565 1038 L564 1039 L560 1032 L556 1013 L555 1013 L558 1031 L562 1039 L567 1045 L566 1046 L559 1040 L554 1027 L554 1032 L552 1033 L552 1042 L554 1040 L556 1042 L554 1044 L551 1045 L548 1040 L548 1038 L547 1038 L546 1046 L544 1047 L542 1043 L542 1038 L541 1037 L541 1045 L540 1046 L537 1041 L536 1029 L535 1029 L535 1035 L532 1041 L529 1044 L528 1042 L530 1040 L533 1030 L533 1025 L534 1024 L534 1022 L533 1022 L530 1035 L527 1042 L521 1047 L520 1046 L524 1037 L521 1040 L520 1039 L523 1031 L523 1028 L522 1028 L520 1036 L517 1042 L510 1049 L507 1050 L506 1049 L511 1043 L516 1032 L516 1027 L519 1017 L519 1014 L518 1014 L514 1028 L514 1032 L510 1042 L505 1048 L502 1050 L500 1049 L503 1046 L508 1037 L511 1019 L508 1026 L507 1034 L504 1042 L498 1049 L495 1051 L492 1051 L491 1050 L495 1046 L497 1040 L505 1029 L511 1009 L511 1006 L510 1006 L504 1027 L498 1037 L495 1040 L494 1039 L497 1030 L497 1026 L501 1016 L501 1012 L500 1012 L500 1015 L496 1024 L495 1031 L490 1043 L485 1048 L483 1047 L476 1052 L471 1052 L470 1051 L478 1046 L487 1037 L491 1030 L498 1009 L497 1009 L495 1013 L493 1021 L488 1031 L488 1033 L486 1035 L485 1033 L484 1034 L484 1036 L480 1042 L479 1041 L480 1037 L483 1032 L485 1024 L493 1006 L494 1001 L493 1001 L489 1012 L484 1022 L482 1030 L475 1045 L471 1049 L467 1051 L465 1051 L463 1049 L471 1041 L471 1039 L474 1035 L473 1034 L476 1030 L484 1012 L482 1013 L481 1017 L474 1027 L472 1032 L466 1038 L466 1039 L469 1037 L470 1038 L469 1042 L465 1046 L457 1050 L454 1050 L453 1049 L460 1043 L471 1026 L480 1007 L484 995 L482 996 L472 1022 L460 1041 L457 1044 L456 1042 L453 1047 L450 1049 L446 1049 L445 1048 L456 1037 L462 1028 L467 1018 L466 1015 L472 1004 L471 1003 L453 1038 L444 1047 L439 1049 L438 1048 L443 1043 L447 1036 L437 1047 L435 1046 L436 1044 L456 1022 L471 991 L470 991 L468 993 L457 1017 L455 1019 L454 1018 L455 1013 L444 1033 L430 1048 L424 1052 L421 1053 L419 1052 L428 1043 L432 1036 L432 1034 L427 1042 L423 1046 L422 1045 L423 1047 L417 1052 L411 1054 L410 1053 L424 1039 L423 1037 L436 1027 L451 1011 L457 999 L446 1015 L429 1031 L427 1030 L433 1023 L457 986 L455 987 L431 1023 L423 1033 L412 1043 L416 1042 L418 1044 L412 1050 L407 1053 L404 1052 L407 1050 L407 1048 L410 1045 L408 1045 L402 1049 L400 1048 L409 1040 L414 1033 L401 1046 L395 1048 L387 1054 L384 1055 L381 1054 L383 1052 L382 1051 L391 1043 L395 1042 L405 1036 L426 1019 L436 1009 L437 1010 L436 1008 L440 1004 L444 997 L441 999 L440 1002 L425 1018 L414 1026 L413 1025 L430 1005 L434 999 L433 999 L413 1023 L398 1037 L396 1037 L391 1041 L369 1052 L358 1055 Z M595 929 L594 929 L593 932 L592 950 L589 961 L584 970 L578 976 L580 976 L586 970 L590 963 L594 948 Z M873 906 L874 907 L874 934 L873 935 L873 960 L872 961 L872 984 L871 985 L870 1031 L869 1032 L869 1056 L868 1057 L868 1079 L867 1080 L866 1122 L865 1123 L865 1153 L864 1154 L864 1257 L865 1258 L865 1272 L866 1273 L866 1280 L867 1282 L866 1283 L859 1283 L858 1282 L853 1282 L847 1279 L842 1272 L838 1258 L838 1254 L834 1238 L834 1233 L832 1227 L832 1222 L830 1216 L830 1211 L829 1210 L829 1206 L828 1205 L828 1201 L827 1200 L827 1196 L826 1195 L826 1191 L825 1190 L821 1169 L815 1151 L812 1146 L807 1141 L815 1115 L819 1097 L821 1093 L826 1073 L826 1069 L828 1065 L828 1061 L830 1057 L830 1053 L837 1027 L839 1014 L841 1009 L841 1005 L847 979 L847 974 L849 968 L851 951 L852 950 L855 922 L857 920 L859 920 L864 917 L870 911 Z M857 901 L858 900 L859 901 L858 902 Z M218 886 L225 895 L238 902 L239 915 L240 916 L240 922 L241 923 L241 929 L242 930 L242 936 L243 937 L243 943 L245 951 L245 957 L246 958 L246 963 L247 964 L247 969 L248 970 L248 975 L249 976 L249 981 L250 982 L250 987 L253 998 L255 1013 L257 1018 L259 1032 L261 1037 L261 1041 L267 1064 L269 1077 L275 1098 L275 1102 L281 1126 L283 1130 L284 1137 L286 1141 L279 1147 L273 1160 L272 1166 L269 1173 L263 1197 L263 1201 L260 1210 L259 1219 L257 1224 L255 1239 L253 1245 L253 1250 L251 1256 L251 1261 L248 1273 L241 1280 L230 1283 L226 1283 L225 1282 L226 1280 L226 1273 L227 1272 L227 1259 L228 1258 L228 1166 L227 1165 L226 1111 L225 1110 L225 1096 L224 1095 L224 1082 L223 1081 L221 1036 L220 1035 L220 1021 L219 1020 L219 1003 L218 1002 L218 979 L217 978 L217 887 Z M626 820 L627 819 L629 820 L628 821 Z M625 819 L626 818 L627 819 L626 820 Z M462 818 L463 817 L464 818 L463 819 Z M618 813 L619 812 L620 813 L619 814 Z M468 810 L469 809 L471 810 L470 811 Z M619 814 L620 813 L631 814 L635 812 L637 809 L637 806 L639 804 L648 813 L653 816 L666 820 L658 822 L642 821 L641 820 L636 820 L632 818 L624 818 Z M478 805 L479 804 L480 806 L479 807 Z M637 804 L638 803 L639 804 L638 805 Z M469 811 L461 816 L448 820 L432 821 L431 822 L424 822 L423 821 L416 821 L415 820 L416 819 L424 818 L432 814 L444 803 L445 807 L449 813 L455 814 L466 810 Z M720 797 L721 796 L722 797 L721 798 Z M721 796 L722 795 L723 796 L722 797 Z M360 796 L361 795 L362 796 L361 797 Z M722 795 L723 794 L724 795 L723 796 Z M359 795 L360 794 L361 795 L360 796 Z M358 794 L359 793 L360 794 L359 795 Z M725 791 L726 793 L724 795 L723 793 Z M357 792 L358 791 L359 793 L358 794 Z M735 775 L736 774 L737 775 L736 776 Z M351 772 L354 783 L358 790 L357 792 L352 786 L347 776 Z M731 771 L733 775 L736 776 L731 786 L726 792 L725 790 L729 782 L730 772 Z M612 761 L613 760 L614 761 L613 762 Z M613 760 L614 759 L615 760 L614 761 Z M465 757 L469 759 L474 764 L478 774 L479 780 L484 789 L481 797 L473 806 L456 812 L449 811 L447 807 L447 798 L453 787 L458 769 Z M623 745 L624 747 L622 751 L621 760 L626 770 L629 784 L636 801 L636 807 L632 812 L619 811 L616 809 L607 799 L603 789 L608 779 L611 768 L613 764 L617 760 L615 760 L614 757 L616 753 Z M623 744 L624 743 L625 744 L624 745 Z M455 743 L456 742 L457 743 L456 744 Z M500 741 L500 762 L499 763 L498 774 L494 791 L487 812 L474 839 L467 849 L453 864 L450 872 L450 879 L452 885 L455 889 L451 893 L447 900 L444 908 L443 916 L442 917 L442 923 L441 924 L442 946 L446 960 L449 965 L444 973 L434 982 L422 988 L411 991 L400 992 L388 996 L379 1001 L371 1003 L358 1002 L359 1004 L358 1005 L356 1005 L350 1009 L335 1012 L329 1015 L321 1016 L320 1017 L309 1017 L296 1012 L296 1013 L306 1020 L314 1022 L322 1022 L323 1023 L322 1024 L304 1024 L298 1020 L298 1022 L303 1026 L313 1030 L317 1030 L318 1031 L334 1030 L335 1031 L320 1035 L308 1034 L303 1032 L306 1035 L314 1039 L327 1042 L326 1043 L312 1043 L310 1042 L310 1044 L322 1048 L335 1048 L336 1049 L329 1051 L322 1051 L324 1053 L340 1054 L343 1057 L354 1057 L355 1058 L364 1058 L376 1053 L378 1054 L374 1057 L369 1058 L370 1060 L371 1059 L381 1058 L391 1053 L396 1055 L392 1057 L389 1057 L388 1059 L391 1059 L399 1056 L400 1057 L406 1057 L407 1056 L413 1057 L420 1055 L429 1065 L437 1069 L444 1077 L440 1080 L436 1086 L429 1106 L427 1114 L427 1119 L426 1120 L426 1125 L425 1126 L425 1135 L424 1136 L424 1149 L425 1150 L427 1124 L428 1123 L428 1118 L431 1105 L436 1090 L439 1084 L444 1078 L452 1086 L472 1120 L485 1134 L500 1141 L509 1142 L510 1143 L521 1143 L522 1144 L570 1144 L571 1143 L581 1143 L582 1142 L591 1141 L602 1136 L616 1122 L637 1086 L645 1079 L650 1085 L656 1101 L659 1114 L659 1119 L660 1120 L661 1143 L662 1143 L662 1123 L661 1122 L661 1116 L660 1115 L660 1110 L658 1102 L650 1082 L645 1077 L652 1069 L654 1069 L662 1064 L669 1055 L675 1057 L680 1057 L681 1056 L689 1058 L691 1056 L698 1059 L701 1059 L701 1058 L692 1055 L691 1054 L693 1053 L690 1051 L692 1053 L690 1054 L679 1047 L675 1043 L675 1041 L655 1019 L650 1012 L651 1010 L661 1019 L674 1028 L676 1028 L689 1039 L693 1041 L696 1040 L700 1043 L700 1045 L709 1052 L708 1053 L709 1055 L706 1056 L701 1054 L674 1032 L692 1050 L704 1057 L714 1060 L719 1060 L719 1059 L712 1056 L710 1054 L711 1053 L727 1059 L736 1059 L737 1057 L748 1057 L749 1054 L759 1054 L760 1053 L768 1052 L765 1050 L770 1047 L776 1046 L782 1042 L779 1043 L766 1043 L765 1042 L766 1041 L779 1038 L789 1032 L787 1031 L782 1034 L772 1035 L771 1034 L759 1033 L756 1031 L757 1030 L760 1031 L773 1031 L784 1028 L791 1024 L794 1020 L782 1024 L771 1024 L770 1023 L771 1022 L782 1021 L790 1017 L796 1011 L783 1016 L769 1016 L752 1012 L737 1011 L736 1009 L731 1009 L730 1010 L714 1010 L713 1009 L709 1009 L694 1003 L665 994 L655 988 L644 977 L639 968 L636 966 L642 953 L643 945 L644 944 L644 936 L645 935 L645 924 L644 923 L644 916 L643 915 L642 907 L636 894 L632 889 L636 881 L636 870 L632 862 L619 848 L613 839 L602 816 L596 798 L590 773 L589 759 L588 758 L589 742 L587 744 L587 749 L586 750 L587 766 L588 767 L589 778 L594 798 L600 816 L611 839 L620 852 L630 862 L633 867 L635 874 L633 884 L630 888 L627 886 L619 886 L611 890 L606 895 L600 905 L596 917 L595 927 L597 924 L597 920 L601 907 L608 895 L618 888 L621 887 L628 888 L634 894 L637 899 L641 911 L642 923 L643 924 L643 935 L642 936 L641 949 L638 959 L634 967 L626 975 L616 979 L607 980 L606 981 L593 981 L592 982 L589 981 L609 971 L611 971 L611 969 L583 982 L563 988 L549 989 L548 990 L531 989 L530 988 L525 988 L517 986 L498 979 L476 969 L477 971 L498 981 L497 982 L491 982 L490 981 L474 980 L464 977 L459 974 L452 967 L446 955 L444 947 L444 941 L443 940 L443 923 L444 922 L446 908 L450 898 L457 889 L464 887 L465 888 L469 888 L476 892 L480 896 L486 906 L490 919 L491 937 L492 938 L492 946 L493 947 L494 955 L500 969 L508 976 L500 966 L496 956 L494 948 L494 941 L493 940 L492 921 L491 920 L490 912 L486 902 L482 896 L476 890 L468 886 L460 886 L457 888 L454 885 L452 880 L452 872 L455 864 L466 853 L476 839 L489 812 L496 791 L500 769 L501 768 L502 743 Z M458 740 L465 747 L471 757 L470 758 L468 757 L463 757 L462 759 L461 758 L460 749 L457 742 Z M454 741 L455 740 L456 742 L455 743 Z M456 740 L457 739 L458 740 L457 741 Z M632 736 L633 735 L634 736 L633 737 Z M633 735 L634 734 L635 735 L634 736 Z M452 734 L455 737 L454 740 L451 736 Z M450 734 L451 733 L452 734 L451 735 Z M449 733 L450 732 L451 733 L450 734 Z M448 732 L449 731 L450 732 L449 733 Z M670 724 L686 724 L701 730 L712 740 L716 746 L720 758 L720 775 L717 785 L714 790 L707 798 L700 803 L692 807 L682 810 L665 810 L653 804 L643 791 L637 773 L637 756 L639 749 L644 740 L654 730 Z M198 724 L201 737 L201 751 L202 752 L202 792 L203 793 L203 812 L204 813 L205 835 L206 836 L206 843 L207 844 L207 850 L208 851 L210 865 L214 878 L216 881 L215 885 L216 887 L215 888 L216 996 L217 997 L217 1015 L218 1016 L218 1032 L219 1033 L219 1047 L220 1048 L221 1079 L222 1080 L222 1093 L223 1094 L223 1109 L224 1110 L224 1122 L225 1123 L226 1174 L227 1175 L227 1247 L226 1248 L225 1278 L223 1282 L220 1282 L208 1277 L202 1271 L201 1260 L200 1259 L200 1249 L199 1248 L199 1231 L198 1230 L197 1152 L196 1151 L195 933 L194 932 L194 884 L195 883 L195 872 L194 871 L194 727 Z M393 724 L397 723 L414 723 L424 726 L431 730 L440 739 L445 748 L447 756 L447 770 L443 784 L435 798 L429 804 L417 810 L412 810 L411 811 L399 810 L382 803 L370 792 L366 786 L362 774 L362 759 L366 746 L369 741 L380 730 Z M201 724 L202 723 L203 725 L202 726 Z M757 722 L758 721 L759 723 L758 724 Z M692 724 L683 723 L682 722 L674 722 L661 725 L649 732 L641 741 L637 749 L635 756 L635 772 L638 784 L646 799 L653 806 L662 811 L666 812 L681 812 L694 808 L706 801 L716 790 L720 782 L722 775 L722 758 L720 751 L714 740 L706 732 Z M547 722 L546 723 L546 743 L547 744 L547 779 L548 780 L548 849 L549 850 L549 874 L550 875 L550 910 L549 911 L548 944 L547 945 L547 956 L546 957 L546 968 L545 969 L546 970 L547 958 L548 957 L548 947 L549 946 L549 936 L550 935 L550 919 L551 918 L551 866 L550 865 L550 838 L549 837 L549 771 L548 770 Z M395 722 L386 725 L379 729 L367 741 L363 749 L360 759 L360 774 L364 786 L371 796 L379 803 L396 811 L416 812 L429 806 L440 794 L445 784 L449 769 L448 752 L446 746 L440 736 L431 728 L423 724 L411 721 Z M325 721 L326 720 L327 722 L326 723 Z M175 720 L176 719 L180 720 L184 725 L188 725 L189 726 L187 728 L180 728 L176 725 Z M174 719 L175 718 L176 719 L175 720 Z M171 719 L172 718 L173 719 L172 720 Z M671 716 L690 717 L697 719 L707 724 L716 732 L722 740 L726 748 L729 759 L728 779 L723 791 L718 798 L711 805 L705 809 L695 814 L681 818 L664 818 L657 816 L647 810 L638 800 L632 787 L627 768 L623 762 L623 753 L625 746 L632 736 L633 738 L631 742 L634 737 L648 724 L659 719 Z M392 716 L397 716 L398 715 L419 716 L438 724 L450 736 L459 751 L459 764 L456 769 L453 782 L445 799 L435 810 L429 814 L417 818 L401 818 L390 815 L378 809 L372 805 L363 796 L358 788 L355 780 L354 769 L353 768 L354 757 L360 740 L364 734 L372 726 L379 721 Z M585 739 L580 736 L565 721 L559 717 L554 715 L545 714 L533 718 L513 735 L505 739 L505 740 L511 738 L531 721 L541 716 L552 716 L558 718 L564 722 L578 736 L584 740 Z M788 713 L781 730 L761 794 L751 813 L740 825 L728 834 L716 840 L696 846 L682 847 L681 848 L665 848 L664 847 L657 847 L656 846 L648 845 L633 839 L626 834 L615 822 L608 808 L609 805 L626 822 L637 828 L652 832 L658 832 L659 833 L686 832 L707 826 L717 821 L732 810 L741 800 L747 791 L755 775 L755 773 L768 745 L768 743 L770 741 L781 720 L787 712 Z M752 712 L755 714 L756 717 L756 722 L753 734 L749 742 L746 753 L740 768 L735 773 L731 766 L731 760 L728 748 L720 734 L713 727 L713 725 L721 717 L733 714 Z M332 711 L351 713 L363 716 L368 720 L370 725 L361 735 L356 744 L352 757 L351 769 L348 774 L344 769 L330 730 L329 722 L328 721 L328 714 Z M164 712 L165 715 L166 715 L165 712 Z M787 711 L788 710 L789 711 L788 712 Z M298 711 L299 710 L312 730 L320 747 L330 775 L341 796 L353 810 L366 820 L380 827 L397 832 L403 832 L404 833 L429 833 L449 828 L461 822 L478 806 L479 809 L473 821 L456 838 L443 844 L431 847 L425 847 L424 848 L398 848 L397 847 L386 846 L375 843 L356 834 L349 829 L337 817 L326 798 L318 773 L313 750 Z M297 710 L298 709 L299 710 L298 711 Z M296 708 L297 707 L298 708 L297 709 Z M175 708 L172 713 L169 712 L172 715 L171 719 L167 719 L159 723 L156 721 L159 713 L162 710 L168 707 L174 707 Z M183 704 L184 706 L180 711 L178 718 L174 715 L174 713 L176 709 L180 705 Z M765 703 L756 708 L743 712 L738 712 L737 711 L738 710 L742 710 L742 709 L709 710 L708 711 L697 712 L714 712 L715 711 L733 711 L734 712 L718 717 L713 722 L711 726 L708 723 L698 718 L687 715 L668 715 L655 719 L641 726 L634 731 L620 745 L611 758 L610 761 L611 764 L608 771 L607 769 L608 772 L605 782 L604 783 L603 782 L604 772 L607 762 L617 744 L633 728 L640 723 L652 717 L668 712 L672 712 L678 710 L685 710 L686 709 L693 709 L694 708 L747 706 L762 702 Z M321 703 L322 702 L326 702 L327 703 L342 704 L343 705 L363 705 L364 706 L395 707 L396 708 L402 708 L403 709 L419 711 L434 716 L444 721 L454 728 L468 742 L478 758 L482 769 L484 782 L483 783 L482 782 L477 765 L473 760 L470 752 L464 743 L450 730 L434 720 L416 714 L404 713 L403 714 L394 714 L384 717 L372 724 L369 719 L364 715 L348 711 L349 710 L366 710 L367 711 L376 711 L378 712 L377 711 L369 709 L345 708 L344 707 L342 708 L347 710 L343 711 L331 708 Z M772 701 L773 703 L759 722 L757 714 L754 711 L756 709 Z M764 702 L765 701 L767 702 L766 703 Z M319 702 L320 701 L322 702 L321 703 Z M198 703 L193 708 L187 708 L186 709 L185 708 L186 705 L189 702 L194 701 Z M772 701 L773 700 L774 701 L773 702 Z M767 701 L768 700 L769 701 L768 702 Z M316 701 L317 700 L319 701 L318 702 Z M204 700 L206 704 L206 712 L205 713 L202 711 L202 712 L206 715 L206 720 L204 722 L197 715 L199 719 L198 722 L186 715 L190 719 L196 721 L197 723 L195 725 L190 725 L185 723 L180 717 L181 712 L184 709 L185 710 L190 710 L191 709 L197 713 L196 710 L194 709 Z M773 700 L774 699 L775 700 L774 701 Z M309 699 L331 710 L327 713 L327 717 L325 721 L315 707 L308 700 Z M774 699 L775 698 L776 699 L775 700 Z M307 699 L308 698 L309 699 L308 700 Z M201 699 L202 698 L203 699 L202 700 Z M775 698 L776 697 L777 698 L776 699 Z M776 697 L777 696 L778 697 L777 698 Z M577 684 L578 683 L579 684 L578 685 Z M584 677 L585 676 L586 677 L585 678 Z M292 677 L294 679 L306 684 L314 686 L319 686 L320 687 L325 687 L326 688 L371 690 L372 691 L382 691 L383 692 L391 692 L392 693 L404 694 L405 695 L426 699 L448 708 L460 716 L468 723 L480 738 L488 756 L489 764 L490 765 L490 778 L489 780 L490 781 L491 780 L492 776 L491 761 L489 753 L483 740 L476 730 L462 716 L445 705 L431 699 L407 693 L388 691 L387 690 L378 690 L377 689 L323 686 L322 685 L317 685 L304 682 L294 677 Z M787 677 L786 676 L779 681 L761 687 L749 688 L748 689 L737 689 L736 690 L709 691 L708 692 L691 693 L690 694 L675 696 L657 701 L641 708 L627 717 L620 723 L608 737 L598 758 L597 768 L596 769 L596 778 L597 780 L598 780 L599 761 L602 752 L608 740 L622 723 L640 710 L653 704 L677 697 L695 695 L696 694 L704 694 L705 693 L716 693 L717 692 L729 692 L730 691 L743 691 L744 690 L759 689 L773 685 Z M505 674 L506 673 L507 674 L506 675 Z M576 671 L577 672 L576 685 L574 690 L571 693 L570 692 L570 688 L573 677 Z M517 671 L519 674 L522 684 L522 688 L523 689 L523 693 L522 694 L517 687 L517 683 L516 682 L516 672 Z M795 671 L796 670 L797 671 L796 672 Z M281 671 L282 670 L283 671 L282 672 Z M593 669 L594 668 L595 669 L594 670 Z M603 662 L604 661 L605 662 L604 663 Z M488 662 L489 661 L490 662 L489 663 Z M584 658 L585 659 L584 673 L583 674 L583 678 L579 683 L578 682 L578 667 L581 661 Z M279 667 L278 668 L283 677 L304 697 L322 719 L330 734 L337 756 L339 759 L341 767 L346 777 L346 779 L351 788 L364 803 L375 811 L385 816 L405 822 L411 822 L412 823 L440 823 L441 822 L452 821 L460 818 L463 819 L450 826 L441 829 L432 830 L431 831 L412 832 L411 831 L396 830 L379 825 L360 814 L346 800 L340 791 L332 775 L323 750 L312 727 L290 695 L289 695 L289 697 L296 710 L296 712 L308 739 L312 755 L314 759 L314 763 L319 783 L325 800 L332 813 L344 827 L358 837 L379 846 L392 848 L393 849 L400 849 L401 850 L420 850 L421 849 L434 848 L447 844 L461 836 L471 826 L478 815 L481 807 L482 798 L486 789 L485 773 L480 758 L475 749 L466 737 L453 725 L433 714 L407 707 L392 706 L391 705 L378 705 L377 704 L341 703 L340 702 L332 702 L331 701 L321 700 L312 697 L299 690 L286 678 L282 672 L284 671 L289 674 L296 676 L315 676 L354 665 L369 663 L370 662 L377 662 L378 661 L388 661 L389 660 L409 660 L410 661 L419 661 L420 662 L425 662 L433 664 L446 669 L453 673 L468 686 L479 701 L498 738 L500 739 L480 700 L474 691 L462 678 L451 670 L443 666 L432 662 L424 661 L423 660 L417 660 L416 659 L381 659 L380 660 L372 660 L371 661 L355 663 L339 667 L335 669 L332 669 L325 672 L317 674 L312 674 L311 675 L295 674 Z M799 668 L787 672 L771 672 L741 664 L737 664 L726 661 L720 661 L719 660 L695 659 L694 658 L691 659 L676 659 L652 665 L642 670 L630 679 L613 699 L603 715 L596 729 L589 739 L596 732 L609 708 L626 685 L636 676 L647 669 L663 663 L673 662 L674 661 L681 661 L682 660 L701 660 L702 661 L713 661 L714 662 L733 664 L773 674 L786 674 L794 671 L796 672 L792 680 L780 692 L768 699 L748 704 L720 705 L719 706 L700 706 L699 707 L681 708 L680 709 L665 711 L648 717 L630 728 L618 740 L608 755 L603 768 L602 777 L601 778 L601 789 L606 800 L605 802 L608 812 L618 828 L629 838 L640 844 L659 849 L672 849 L673 850 L675 849 L688 849 L689 848 L694 848 L710 844 L726 837 L739 828 L752 814 L761 798 L766 785 L766 782 L769 775 L769 772 L778 745 L778 742 L792 708 L793 703 L796 698 L794 698 L793 701 L790 704 L775 727 L763 750 L754 773 L745 791 L738 801 L722 816 L705 825 L681 831 L656 831 L655 830 L650 830 L636 826 L628 821 L632 820 L643 823 L669 823 L670 822 L675 822 L698 816 L710 810 L717 805 L726 796 L735 783 L745 761 L752 740 L762 720 L782 693 L794 680 L799 671 Z M612 657 L613 656 L614 657 L613 658 Z M584 657 L585 656 L586 658 L585 659 Z M479 657 L480 656 L481 657 L480 658 Z M507 654 L515 666 L515 670 L514 671 L515 683 L514 684 L509 678 L508 674 L508 666 L507 665 L507 658 L506 657 Z M626 649 L627 648 L628 649 L627 650 Z M462 649 L463 648 L464 649 L463 650 Z M627 648 L628 647 L629 648 L628 649 Z M596 646 L597 649 L594 656 L593 666 L590 673 L586 677 L585 676 L585 671 L586 670 L587 658 L590 651 Z M628 646 L629 645 L630 646 L629 647 Z M596 646 L597 645 L598 646 L597 647 Z M496 645 L502 649 L505 656 L505 662 L506 663 L506 673 L505 674 L501 671 L498 663 L498 655 L495 647 Z M629 645 L630 644 L631 645 L630 646 Z M597 645 L598 644 L599 645 L598 646 Z M494 645 L495 644 L496 645 L495 646 Z M630 644 L631 643 L632 644 L631 645 Z M461 644 L462 643 L463 644 L462 645 Z M631 642 L632 641 L633 643 L632 644 Z M605 641 L606 644 L604 648 L604 655 L602 662 L595 669 L594 665 L598 649 L600 645 Z M460 642 L461 641 L462 643 L461 644 Z M605 641 L606 640 L607 641 L606 642 Z M487 640 L491 642 L495 650 L496 661 L498 666 L497 668 L491 663 L488 652 L488 646 L486 642 Z M459 641 L460 640 L461 641 L460 642 Z M485 640 L486 639 L487 640 L486 641 Z M454 639 L455 638 L456 639 L455 640 Z M639 638 L640 637 L641 638 L640 639 Z M452 638 L453 637 L455 638 L454 639 Z M640 637 L641 636 L642 637 L641 638 Z M451 637 L452 636 L453 637 L452 638 Z M616 633 L617 637 L611 658 L608 661 L605 662 L604 659 L605 658 L607 643 L609 639 Z M616 633 L617 632 L618 633 L617 634 Z M476 632 L484 639 L487 649 L487 656 L489 660 L488 662 L484 660 L481 656 L478 647 L477 639 L475 635 Z M617 631 L618 630 L619 631 L618 632 Z M474 631 L475 630 L476 632 L475 633 Z M473 630 L474 629 L475 630 L474 631 Z M447 630 L448 629 L449 630 L448 631 Z M446 629 L447 628 L448 629 L447 630 Z M891 627 L894 635 L895 649 L896 650 L896 662 L897 663 L897 767 L896 768 L896 828 L895 829 L895 865 L894 866 L895 1110 L894 1111 L893 1231 L892 1232 L891 1262 L890 1263 L889 1271 L883 1277 L877 1280 L868 1282 L867 1281 L868 1279 L867 1278 L867 1263 L866 1262 L866 1147 L867 1146 L867 1120 L868 1119 L869 1076 L870 1075 L870 1054 L871 1053 L871 1029 L872 1028 L872 1002 L873 1001 L873 979 L874 978 L874 954 L875 953 L875 920 L876 919 L875 918 L876 917 L876 904 L875 901 L877 896 L876 895 L875 896 L875 898 L868 911 L864 915 L857 919 L856 918 L856 910 L857 909 L857 904 L866 896 L871 887 L875 874 L875 870 L878 859 L878 853 L879 852 L880 831 L881 830 L881 812 L882 811 L881 646 L882 645 L882 637 L884 631 L887 628 L890 629 Z M641 624 L642 623 L643 624 L642 625 Z M642 622 L643 621 L644 622 L643 623 Z M436 622 L437 621 L438 622 L437 623 Z M432 622 L433 621 L434 622 L433 623 Z M659 621 L660 620 L661 621 L660 622 Z M655 621 L656 620 L657 621 L656 622 Z M435 621 L436 620 L437 621 L436 622 Z M430 621 L431 620 L432 621 L431 622 Z M211 620 L217 620 L221 622 L225 628 L227 636 L228 764 L229 765 L229 794 L230 795 L231 834 L232 835 L233 860 L234 861 L235 880 L236 881 L235 883 L227 877 L223 870 L220 862 L217 849 L217 844 L216 843 L215 821 L214 820 L214 793 L213 792 L214 708 L215 707 L215 650 L214 649 L214 642 L212 635 L208 631 L205 631 L204 632 L207 632 L211 637 L212 647 L213 648 L213 715 L212 716 L212 816 L213 817 L213 831 L214 832 L215 848 L220 867 L227 879 L236 885 L236 889 L237 890 L237 898 L236 899 L234 899 L229 896 L221 888 L218 883 L211 861 L209 844 L208 843 L208 836 L207 835 L207 826 L206 825 L205 794 L204 793 L204 753 L203 752 L202 730 L206 727 L207 724 L208 705 L203 693 L202 693 L203 695 L200 697 L198 701 L195 699 L195 697 L196 696 L196 671 L197 670 L197 653 L198 652 L199 633 L202 626 L205 623 Z M661 620 L662 619 L663 620 L662 621 Z M656 620 L657 619 L658 620 L657 621 Z M643 620 L644 619 L645 621 L644 622 Z M434 620 L435 619 L436 620 L435 621 Z M662 619 L663 618 L665 619 L664 620 Z M644 618 L645 617 L646 619 L645 620 Z M421 617 L422 616 L425 617 L426 616 L431 620 L428 621 Z M645 616 L646 615 L647 617 L646 618 Z M424 616 L425 615 L426 616 L425 617 Z M420 616 L421 615 L422 616 L421 617 Z M876 614 L884 617 L891 625 L890 628 L886 627 L882 631 L880 639 L880 647 L879 648 L879 700 L880 701 L880 815 L879 816 L879 833 L878 834 L877 854 L876 855 L873 875 L865 895 L859 901 L858 900 L858 890 L859 889 L860 863 L861 862 L862 823 L863 822 L863 795 L864 794 L865 627 L867 619 L871 615 Z M423 615 L424 614 L425 615 L424 616 Z M395 614 L397 613 L403 618 L418 625 L419 628 L421 626 L446 636 L458 643 L463 648 L460 649 L452 645 L432 638 L425 634 L423 634 L406 624 Z M697 613 L688 622 L671 633 L636 647 L631 650 L629 649 L635 643 L643 638 L678 622 L680 622 L689 617 L695 612 Z M648 612 L649 614 L647 616 L646 614 Z M394 613 L395 612 L396 613 L395 614 Z M696 612 L697 611 L698 612 L697 613 Z M393 612 L394 611 L395 612 L394 613 Z M697 611 L698 610 L699 611 L698 612 Z M392 611 L393 610 L394 611 L393 612 Z M698 610 L699 609 L700 610 L699 611 Z M671 610 L672 609 L673 611 L672 612 Z M650 609 L651 611 L649 613 L648 611 Z M672 609 L673 608 L674 609 L673 610 Z M636 608 L637 610 L635 612 L629 625 L622 646 L617 655 L614 657 L613 654 L615 651 L618 636 L622 625 L626 618 Z M636 608 L637 607 L638 608 L637 609 Z M455 607 L466 617 L470 624 L475 638 L477 650 L480 656 L479 657 L474 653 L470 645 L460 618 L454 608 Z M637 607 L638 606 L639 607 L638 608 Z M453 607 L454 606 L455 607 L454 608 Z M417 607 L418 606 L419 607 L418 608 Z M685 598 L686 597 L687 598 L686 599 Z M686 597 L687 596 L688 597 L687 598 Z M655 596 L656 597 L645 613 L630 642 L624 651 L620 654 L619 653 L623 647 L631 624 L638 610 L645 601 Z M687 596 L688 595 L689 596 L688 597 Z M655 596 L656 595 L657 596 L656 597 Z M436 595 L445 599 L453 608 L462 626 L467 641 L473 652 L472 654 L468 651 L464 645 L454 625 L449 619 L442 606 L435 596 Z M403 596 L404 595 L405 596 L404 597 Z M434 595 L435 594 L436 595 L435 596 Z M381 590 L382 589 L394 601 L404 608 L414 613 L423 620 L425 620 L442 628 L452 636 L450 637 L445 634 L423 626 L404 617 L387 603 L382 594 Z M669 588 L670 590 L658 615 L653 622 L633 642 L632 640 L640 626 L644 625 L653 610 L653 608 L651 610 L650 609 L653 603 L663 591 Z M423 588 L429 591 L433 595 L448 620 L456 631 L460 639 L459 641 L450 632 L450 630 L447 625 L446 629 L434 615 L422 590 Z M669 588 L670 587 L671 588 L670 589 Z M421 588 L422 587 L423 588 L422 589 Z M684 577 L685 578 L680 586 L678 594 L670 610 L662 618 L658 620 L657 619 L660 615 L674 585 L679 580 Z M408 577 L419 587 L424 596 L426 603 L431 613 L435 618 L434 620 L427 615 L420 607 L414 595 L412 587 L407 579 Z M406 577 L407 576 L408 577 L407 578 Z M390 567 L396 569 L403 574 L411 589 L413 596 L418 606 L417 607 L413 605 L409 601 L396 576 L389 568 Z M702 566 L703 567 L695 576 L687 594 L683 600 L674 609 L673 607 L680 593 L682 585 L688 574 L693 570 Z M388 567 L389 566 L390 567 L389 568 Z M721 566 L715 577 L711 590 L706 600 L695 611 L674 623 L667 625 L643 637 L641 636 L649 629 L669 619 L672 616 L681 612 L692 605 L706 591 L709 587 L709 585 L691 604 L671 615 L666 619 L664 618 L668 614 L678 608 L694 594 L706 576 L715 567 L718 565 Z M702 566 L703 565 L704 566 L703 567 Z M370 566 L372 565 L378 569 L383 574 L398 594 L412 606 L418 610 L420 610 L424 614 L422 615 L405 607 L395 600 L384 589 L381 588 Z M720 565 L721 564 L722 565 L721 566 Z M369 565 L370 564 L371 565 L370 566 Z M717 563 L718 564 L713 567 L706 574 L697 588 L689 596 L688 594 L696 577 L701 570 L707 564 Z M374 563 L383 564 L389 569 L397 580 L404 594 L403 596 L396 590 L382 571 L373 564 Z M368 564 L369 563 L370 564 L369 565 Z M717 563 L718 562 L719 563 L718 564 Z M725 562 L723 561 L712 561 L699 565 L684 574 L668 587 L650 596 L634 607 L627 614 L613 634 L595 644 L581 658 L574 670 L570 681 L569 689 L568 690 L568 699 L571 697 L577 688 L590 675 L605 664 L626 653 L660 640 L678 631 L692 621 L706 604 L712 592 L717 577 Z M366 563 L375 579 L377 586 L386 605 L391 612 L402 623 L412 630 L430 639 L472 655 L490 665 L500 672 L515 687 L523 699 L524 699 L525 692 L524 691 L523 681 L520 672 L512 657 L500 645 L481 635 L476 630 L469 618 L461 609 L448 599 L432 591 L430 589 L424 587 L407 574 L391 565 L377 561 L369 561 Z M218 585 L237 576 L268 566 L307 557 L326 555 L327 554 L335 554 L336 553 L371 551 L372 550 L388 550 L389 549 L430 548 L431 547 L459 547 L460 546 L595 545 L596 546 L630 546 L631 547 L658 547 L659 548 L682 548 L683 549 L718 550 L719 551 L745 552 L746 553 L755 553 L756 554 L778 556 L779 557 L794 559 L818 565 L845 574 L873 587 L880 593 L880 609 L881 610 L880 611 L881 612 L880 613 L874 612 L869 614 L865 619 L864 627 L863 628 L862 793 L861 794 L861 825 L860 826 L860 849 L859 850 L857 892 L856 893 L853 930 L852 931 L852 938 L851 939 L848 963 L847 964 L845 980 L842 990 L837 1018 L828 1053 L828 1057 L821 1085 L819 1089 L816 1104 L814 1108 L813 1115 L805 1140 L805 1143 L796 1168 L788 1185 L769 1215 L752 1236 L726 1262 L717 1269 L702 1277 L691 1280 L678 1281 L677 1282 L667 1282 L666 1283 L649 1283 L648 1284 L615 1284 L614 1285 L478 1285 L477 1284 L447 1284 L446 1283 L427 1283 L426 1282 L408 1281 L407 1280 L394 1278 L386 1275 L370 1265 L340 1236 L321 1212 L307 1190 L299 1174 L288 1144 L288 1141 L284 1130 L274 1090 L272 1077 L264 1046 L263 1037 L261 1032 L261 1028 L258 1018 L256 1003 L252 987 L248 958 L247 957 L247 951 L246 950 L243 924 L242 923 L242 916 L241 915 L241 908 L240 907 L240 899 L238 891 L237 873 L236 872 L235 854 L234 853 L234 842 L233 841 L233 826 L232 825 L231 777 L230 776 L230 730 L229 729 L229 639 L228 638 L227 628 L225 624 L220 619 L217 618 L212 618 L211 619 L210 618 L210 595 L211 591 Z M882 539 L884 540 L884 569 L883 570 L884 571 L883 572 L876 567 L877 566 L877 550 L879 543 Z M219 538 L222 540 L221 541 L222 542 L223 559 L216 562 L215 561 L216 542 Z M870 537 L871 536 L872 538 L871 539 Z M207 571 L210 567 L224 560 L247 552 L282 543 L297 541 L303 539 L316 538 L317 537 L344 535 L345 534 L355 534 L356 533 L368 533 L369 532 L403 531 L404 530 L500 529 L501 528 L508 529 L509 528 L517 528 L518 529 L583 529 L584 530 L621 530 L622 531 L674 532 L675 533 L693 533 L694 534 L744 536 L745 537 L756 537 L757 538 L786 540 L787 541 L793 541 L794 542 L799 542 L809 545 L813 545 L817 547 L824 548 L831 551 L843 554 L872 567 L879 571 L883 576 L876 581 L876 585 L874 586 L857 577 L824 565 L821 565 L817 563 L797 558 L777 555 L776 554 L753 552 L752 551 L741 551 L740 550 L712 549 L711 548 L648 546 L647 545 L620 545 L619 544 L581 544 L580 543 L515 543 L514 544 L442 545 L441 546 L418 546 L417 547 L363 549 L362 550 L331 552 L330 553 L323 553 L322 554 L303 556 L298 558 L289 559 L265 565 L240 573 L219 583 L217 582 L218 583 L216 585 L214 579 L211 578 L208 575 Z M855 524 L857 524 L860 527 L863 536 L863 558 L861 560 L845 553 L846 544 L849 533 L852 527 Z M883 523 L884 524 L884 537 L877 544 L876 547 L876 561 L874 567 L868 563 L870 560 L871 542 L873 540 L878 528 Z M236 521 L240 525 L242 529 L245 540 L246 551 L231 556 L229 554 L229 538 L232 525 Z M208 516 L214 522 L220 535 L219 538 L215 540 L212 533 L209 530 L209 532 L211 534 L214 542 L214 563 L208 567 L207 566 L207 517 Z M820 513 L823 513 L826 516 L829 523 L829 527 L830 528 L830 547 L829 548 L812 544 L809 542 L810 534 L814 521 Z M271 512 L277 517 L280 523 L283 535 L283 541 L263 546 L262 545 L263 526 L267 515 Z M804 511 L806 514 L806 517 L804 520 L803 519 L803 512 Z M856 508 L859 508 L863 511 L867 520 L868 533 L869 534 L869 554 L868 555 L868 562 L867 563 L864 561 L865 537 L863 529 L858 523 L854 523 L851 526 L848 532 L845 542 L844 552 L843 553 L838 550 L839 541 L846 520 L850 513 Z M749 508 L753 509 L758 515 L758 520 L753 526 L746 526 L741 521 L741 515 L743 511 Z M746 507 L741 511 L739 515 L739 521 L743 526 L747 528 L751 528 L757 525 L759 522 L760 516 L758 511 L753 507 Z M338 505 L342 507 L345 511 L345 517 L339 523 L333 523 L328 518 L328 511 L332 506 Z M235 505 L242 511 L246 519 L251 533 L251 536 L253 537 L253 548 L251 550 L249 550 L247 548 L247 541 L243 527 L236 520 L230 526 L228 534 L228 555 L229 556 L227 558 L225 558 L224 557 L224 527 L225 526 L225 520 L229 509 L232 506 Z M633 503 L637 505 L640 509 L640 516 L634 521 L627 520 L623 516 L622 513 L623 508 L627 504 Z M333 504 L328 508 L326 512 L326 517 L330 523 L338 525 L345 521 L347 517 L347 512 L346 509 L340 504 Z M628 502 L622 507 L621 515 L624 520 L627 522 L633 523 L640 519 L642 515 L642 510 L641 507 L635 502 Z M457 502 L464 501 L469 504 L471 511 L470 514 L465 518 L458 518 L454 515 L453 507 Z M821 498 L827 498 L832 504 L835 512 L836 522 L837 523 L837 549 L836 550 L831 548 L832 546 L832 529 L829 518 L822 511 L819 512 L815 516 L812 522 L809 531 L808 542 L807 543 L802 541 L802 528 L803 525 L808 517 L811 509 L815 503 Z M707 498 L714 498 L719 503 L719 510 L714 515 L707 515 L702 510 L702 503 Z M460 499 L457 500 L452 505 L451 513 L456 519 L458 520 L465 520 L471 515 L472 507 L468 501 L464 499 Z M271 497 L274 498 L278 502 L288 522 L289 521 L287 517 L287 514 L289 511 L290 512 L291 539 L288 541 L285 540 L282 523 L279 517 L275 512 L269 511 L265 515 L262 522 L261 532 L260 533 L260 545 L261 546 L259 548 L256 548 L255 547 L255 523 L256 522 L257 512 L262 501 L267 497 Z M370 496 L377 497 L381 502 L380 510 L377 513 L374 514 L368 513 L364 509 L364 502 Z M708 496 L702 500 L700 504 L700 509 L701 512 L704 515 L708 517 L713 517 L720 512 L721 504 L717 498 L713 496 Z M372 494 L367 496 L363 500 L362 508 L365 513 L369 515 L376 515 L382 510 L383 503 L382 500 L378 496 Z M668 483 L675 484 L679 489 L678 497 L675 500 L669 501 L665 499 L662 495 L663 487 Z M670 481 L665 483 L661 487 L660 494 L661 497 L667 502 L674 502 L678 500 L680 497 L681 489 L678 484 L675 482 Z M416 479 L419 479 L423 481 L426 485 L426 491 L420 497 L415 497 L409 492 L409 485 L410 483 Z M877 477 L882 484 L885 496 L885 521 L881 524 L880 523 L881 515 L882 514 L882 504 L881 503 L880 494 L878 490 L874 486 L870 486 L869 487 L873 487 L876 490 L880 502 L879 522 L878 526 L876 528 L872 537 L870 535 L870 526 L867 515 L861 506 L862 505 L863 495 L870 480 L873 477 Z M414 478 L408 483 L407 491 L410 496 L413 498 L419 499 L426 495 L428 491 L428 486 L427 483 L421 478 Z M844 470 L849 476 L852 485 L852 489 L853 490 L853 508 L847 515 L840 533 L839 532 L838 517 L834 504 L829 498 L831 494 L831 481 L833 478 L834 472 L835 471 L837 472 L840 470 Z M257 468 L260 475 L260 478 L262 479 L261 490 L263 498 L260 501 L255 513 L254 525 L252 532 L247 517 L240 506 L240 491 L245 473 L249 469 L256 470 Z M216 467 L220 468 L226 477 L228 484 L231 489 L231 500 L232 501 L232 504 L228 508 L224 517 L222 536 L221 537 L217 524 L213 518 L213 514 L212 513 L212 492 L215 483 L220 478 L224 479 L222 477 L219 477 L216 479 L212 486 L210 494 L210 512 L211 515 L210 516 L207 514 L207 481 L211 472 Z M625 466 L628 466 L632 468 L636 474 L635 479 L629 484 L624 484 L618 479 L618 472 L619 470 Z M760 465 L766 466 L770 470 L771 473 L770 478 L766 482 L763 483 L758 482 L754 478 L753 475 L754 470 Z M457 467 L460 465 L467 465 L472 469 L473 475 L471 479 L467 482 L459 481 L455 477 L455 470 Z M623 465 L617 470 L616 478 L619 483 L622 485 L628 486 L633 484 L637 479 L637 472 L632 466 L630 465 Z M542 463 L553 463 L554 464 L553 465 L554 466 L556 510 L557 511 L557 526 L556 527 L537 527 L536 526 L537 522 L537 509 L538 508 L538 497 L539 496 L539 485 L540 484 L540 473 L541 472 L541 464 Z M758 464 L752 470 L752 478 L755 482 L759 484 L766 484 L770 481 L772 477 L772 471 L770 467 L766 464 L762 463 Z M557 462 L560 463 L560 470 L561 471 L561 481 L562 482 L562 492 L563 493 L563 503 L564 504 L564 516 L565 517 L565 526 L564 527 L560 527 L559 526 L557 482 L556 481 L556 470 L555 469 L555 464 Z M539 462 L540 463 L540 467 L539 468 L537 499 L536 500 L535 526 L534 527 L530 527 L529 526 L529 515 L530 514 L530 505 L531 504 L531 496 L532 495 L534 468 L535 467 L535 463 Z M461 463 L455 467 L453 471 L453 476 L456 481 L459 483 L466 484 L473 479 L474 477 L474 470 L469 464 Z M812 461 L817 466 L820 473 L821 482 L822 483 L822 496 L818 498 L813 503 L807 513 L803 507 L804 464 L808 461 Z M283 460 L286 461 L290 465 L290 505 L286 513 L281 504 L270 494 L271 480 L273 472 L278 463 Z M328 457 L334 457 L339 461 L340 464 L339 470 L334 474 L328 474 L323 469 L323 463 Z M846 456 L849 457 L853 461 L858 473 L859 481 L860 482 L860 490 L861 491 L861 501 L859 507 L858 506 L856 507 L854 506 L854 487 L849 473 L843 468 L839 469 L836 472 L835 471 L839 461 L843 457 Z M563 461 L572 459 L579 455 L581 456 L587 474 L589 484 L592 491 L596 509 L598 513 L599 521 L601 526 L600 528 L570 528 L569 527 L568 528 L567 527 L565 495 L564 494 L564 485 L563 484 L563 475 L562 474 L562 465 L561 464 Z M248 455 L253 459 L257 468 L256 469 L253 467 L249 467 L244 472 L239 487 L239 504 L238 505 L233 503 L233 481 L234 480 L234 475 L240 459 L243 456 Z M533 461 L534 462 L533 463 L532 479 L531 480 L530 496 L529 497 L527 526 L526 527 L494 527 L493 526 L494 519 L496 515 L502 491 L506 481 L506 478 L514 455 L515 454 L524 459 Z M329 455 L325 457 L322 461 L321 468 L326 475 L334 476 L341 470 L342 465 L340 460 L336 456 Z M587 450 L589 453 L590 459 L596 475 L596 478 L599 485 L599 488 L609 520 L610 526 L608 529 L602 527 L602 522 L598 506 L596 502 L590 478 L587 471 L587 468 L582 455 Z M508 449 L513 454 L502 485 L502 488 L497 502 L491 526 L490 527 L485 527 L483 525 L485 517 L492 498 L492 495 L498 479 L498 476 L506 452 Z M804 449 L805 448 L806 449 L805 450 Z M811 447 L814 447 L818 449 L822 454 L826 462 L829 474 L829 483 L830 484 L829 496 L828 497 L823 495 L823 490 L824 489 L823 478 L819 466 L815 461 L811 459 L809 459 L805 462 L804 461 L805 453 Z M283 447 L289 454 L290 461 L289 462 L286 459 L281 459 L276 463 L272 470 L270 477 L269 494 L265 496 L263 491 L263 478 L264 477 L264 470 L266 462 L269 455 L275 448 Z M884 432 L885 433 L885 485 L884 486 L882 481 L876 475 L877 465 L878 464 L877 447 L879 446 L881 437 Z M884 432 L885 431 L886 432 L885 433 Z M857 431 L858 433 L862 433 L866 437 L870 449 L870 469 L868 477 L870 478 L868 480 L863 492 L862 491 L861 478 L857 465 L854 460 L848 455 L849 454 L849 445 Z M233 430 L236 432 L238 431 L242 439 L244 440 L243 442 L244 454 L239 458 L236 463 L233 473 L232 485 L231 486 L228 478 L223 470 L223 448 L227 435 Z M210 430 L211 429 L212 431 L211 432 Z M207 429 L211 434 L213 442 L216 446 L215 447 L215 460 L217 465 L212 468 L207 477 L206 476 L206 430 Z M863 423 L865 423 L871 430 L874 438 L875 449 L876 450 L875 474 L870 478 L869 476 L872 467 L871 445 L867 436 L861 431 L858 432 L857 431 L858 428 Z M824 423 L825 424 L828 423 L831 424 L835 428 L840 443 L840 455 L841 457 L837 461 L831 476 L830 475 L829 466 L824 454 L815 445 L818 439 L818 433 Z M267 423 L270 424 L273 429 L275 430 L274 436 L275 437 L276 446 L267 455 L264 463 L263 473 L262 474 L260 472 L259 467 L255 459 L252 456 L252 448 L253 447 L253 441 L255 433 L258 427 L262 423 Z M824 422 L825 421 L826 422 L825 423 Z M806 420 L810 426 L810 430 L811 431 L811 445 L806 449 L805 448 L805 421 Z M288 420 L289 421 L289 448 L288 449 L282 444 L282 433 L284 426 Z M231 420 L235 424 L238 430 L237 431 L234 429 L231 429 L228 431 L224 438 L221 449 L221 465 L222 466 L220 467 L217 462 L218 438 L224 423 L228 420 Z M783 420 L782 423 L781 489 L780 490 L780 521 L779 522 L779 537 L778 538 L763 537 L762 536 L752 536 L751 535 L723 534 L722 533 L665 531 L664 530 L639 530 L638 529 L612 529 L611 528 L612 525 L608 509 L605 502 L604 495 L597 475 L594 462 L589 449 L598 439 L717 481 L725 481 L732 477 L777 424 L782 419 Z M312 419 L313 418 L359 472 L363 476 L371 479 L379 478 L385 475 L424 462 L427 462 L497 438 L506 449 L504 452 L490 495 L490 498 L483 517 L483 520 L481 524 L482 526 L481 527 L444 527 L443 528 L390 529 L389 530 L361 531 L360 532 L349 532 L348 533 L338 533 L337 534 L315 536 L314 535 L314 513 L313 512 Z M751 415 L752 414 L756 415 L755 416 Z M341 415 L342 414 L345 415 L344 416 Z M756 414 L757 413 L759 414 L758 415 Z M338 414 L339 413 L340 414 L339 415 Z M831 412 L833 412 L839 416 L845 427 L847 435 L847 440 L848 441 L848 452 L847 453 L848 454 L847 455 L843 456 L841 455 L842 454 L841 440 L836 427 L832 423 L825 421 L827 416 Z M262 411 L267 415 L270 422 L269 423 L266 421 L263 421 L255 429 L251 442 L251 454 L250 455 L245 452 L245 440 L246 439 L247 429 L252 417 L257 412 Z M609 411 L610 410 L622 410 L623 411 L635 411 L636 412 L692 415 L693 416 L719 416 L720 417 L721 416 L742 416 L743 415 L751 415 L752 416 L747 418 L742 418 L735 420 L703 421 L702 420 L687 420 L686 419 L675 419 L674 418 L653 417 L652 416 L643 416 L642 415 L610 413 Z M487 410 L486 412 L482 412 L481 413 L461 414 L460 415 L451 415 L450 416 L441 416 L440 417 L431 417 L430 418 L419 418 L418 419 L408 419 L407 420 L390 420 L389 421 L364 420 L363 419 L357 419 L345 416 L346 415 L351 415 L352 416 L361 416 L362 417 L390 417 L391 416 L408 416 L409 415 L447 413 L448 412 L459 412 L460 411 L471 411 L472 410 L485 410 L486 409 Z M779 409 L727 467 L723 469 L715 469 L692 461 L689 461 L686 459 L683 459 L674 455 L605 432 L603 430 L609 414 L624 415 L625 416 L635 416 L636 417 L646 417 L647 418 L656 418 L657 419 L667 419 L668 420 L678 420 L679 421 L691 421 L692 422 L732 422 L733 421 L739 421 L740 420 L745 420 L765 414 L777 408 Z M318 409 L319 408 L328 413 L340 417 L353 420 L366 421 L367 422 L402 422 L403 421 L415 421 L416 420 L426 420 L427 419 L436 419 L437 418 L447 418 L448 417 L487 414 L489 418 L490 424 L493 429 L491 431 L467 439 L464 439 L445 446 L442 446 L423 453 L420 453 L404 459 L401 459 L381 466 L372 467 L369 466 L363 461 L327 421 Z M807 406 L811 410 L816 423 L817 435 L814 445 L812 444 L813 441 L812 427 L810 422 L805 417 L806 407 Z M288 406 L289 407 L289 417 L284 422 L282 426 L280 434 L280 443 L281 444 L278 445 L276 438 L276 430 L277 429 L278 419 L282 410 L285 407 Z M777 402 L778 401 L779 402 L778 403 Z M871 396 L872 398 L875 398 L878 401 L881 411 L881 424 L880 425 L880 430 L878 434 L878 436 L880 437 L877 446 L873 430 L869 424 L864 420 L865 419 L865 410 L864 408 L867 405 Z M755 396 L756 395 L758 396 L757 397 Z M339 396 L340 395 L342 396 L341 397 Z M222 395 L228 408 L228 416 L229 417 L221 425 L215 442 L213 437 L214 435 L215 436 L215 434 L213 431 L213 427 L212 426 L212 408 L215 399 L217 397 L221 397 Z M751 395 L752 394 L755 395 L754 396 Z M779 405 L774 408 L764 411 L748 413 L747 414 L736 414 L735 415 L707 415 L706 414 L674 413 L673 412 L646 411 L645 410 L633 410 L632 409 L619 409 L618 408 L610 408 L609 407 L610 406 L610 401 L615 399 L630 399 L631 398 L676 396 L677 395 L696 395 L697 394 L741 395 L742 396 L748 396 L749 397 L770 401 Z M318 406 L322 403 L335 400 L339 398 L344 398 L357 395 L369 395 L370 394 L422 395 L423 396 L484 399 L487 401 L487 407 L486 408 L437 411 L436 412 L412 413 L411 414 L396 414 L395 415 L357 415 L356 414 L348 414 L347 413 L332 411 Z M343 395 L344 394 L347 395 L346 396 Z M745 394 L746 393 L750 393 L751 394 L750 395 L746 395 Z M884 392 L885 391 L886 392 L885 393 Z M871 390 L872 389 L873 390 L872 391 Z M746 393 L745 394 L738 394 L737 393 L707 392 L706 393 L681 393 L680 394 L634 396 L633 397 L620 397 L619 398 L610 398 L609 397 L610 395 L642 393 L643 392 L655 392 L656 391 L669 391 L670 390 L684 390 L685 389 L725 389 L726 390 L733 390 Z M347 394 L352 392 L362 391 L363 390 L370 390 L371 389 L413 389 L414 390 L428 390 L429 391 L442 391 L443 392 L453 392 L454 393 L479 394 L480 395 L486 395 L487 397 L486 398 L480 398 L479 397 L465 397 L464 396 L450 396 L449 395 L435 395 L434 394 L417 394 L416 393 L362 393 L361 394 L354 394 L353 395 L348 395 Z M877 388 L879 388 L882 391 L885 398 L885 429 L882 432 L881 431 L882 423 L883 422 L882 407 L880 401 L876 397 L872 397 L871 396 L872 393 Z M840 389 L841 388 L842 389 L841 390 Z M872 388 L873 387 L874 388 L873 389 Z M252 388 L253 387 L254 389 L253 390 Z M216 386 L220 390 L222 395 L221 396 L218 395 L216 396 L212 402 L210 409 L210 425 L211 426 L210 430 L206 427 L206 399 L211 389 L214 386 Z M253 383 L254 382 L255 384 L254 385 Z M847 380 L851 380 L858 388 L863 405 L863 420 L856 428 L850 441 L848 437 L846 425 L843 419 L838 413 L832 410 L833 409 L833 401 L838 393 L843 389 L847 390 L852 395 L855 406 L855 416 L851 428 L852 429 L856 419 L857 409 L856 408 L856 402 L853 394 L848 389 L846 388 L842 389 L841 388 L842 385 Z M809 380 L814 381 L818 385 L823 396 L824 412 L825 413 L824 415 L826 416 L824 418 L819 429 L817 424 L816 416 L810 406 L806 404 L806 382 Z M285 380 L288 382 L288 402 L289 403 L285 405 L280 410 L274 428 L271 419 L268 414 L269 399 L276 384 L282 380 Z M252 381 L253 380 L254 382 L253 383 Z M245 377 L250 381 L253 387 L252 388 L250 387 L244 388 L239 395 L237 401 L237 417 L240 426 L241 426 L238 414 L238 405 L241 394 L246 388 L249 388 L256 393 L258 400 L260 401 L260 409 L254 412 L250 417 L246 427 L245 435 L243 438 L238 426 L230 418 L230 408 L231 407 L231 400 L234 388 L236 384 L242 378 Z M808 370 L809 369 L810 370 L809 371 Z M810 368 L817 369 L823 375 L828 385 L831 397 L831 410 L827 414 L826 413 L825 397 L820 385 L813 379 L808 379 L807 380 L806 379 L807 371 L808 370 L810 371 L811 370 L809 369 Z M283 368 L288 374 L288 379 L287 380 L286 379 L281 379 L275 383 L268 396 L266 410 L264 411 L262 409 L262 397 L266 382 L271 373 L275 369 Z M277 363 L278 364 L277 367 L276 366 Z M230 358 L235 360 L240 369 L242 376 L237 380 L232 389 L230 397 L230 402 L228 406 L224 394 L221 389 L222 388 L221 375 L222 374 L222 369 L225 362 Z M232 358 L233 357 L234 358 L233 359 Z M866 350 L872 355 L875 362 L876 370 L877 371 L877 386 L875 388 L873 387 L873 374 L870 364 L867 360 L862 359 L862 360 L865 360 L867 362 L871 372 L871 387 L870 390 L872 391 L869 395 L865 406 L861 391 L858 385 L850 378 L850 376 L861 356 Z M545 350 L559 351 L568 354 L583 363 L588 368 L595 378 L600 391 L600 397 L601 398 L601 408 L600 409 L599 418 L593 431 L590 435 L577 447 L563 453 L553 454 L552 455 L543 455 L542 454 L533 453 L516 445 L503 431 L498 421 L495 408 L495 398 L496 397 L497 388 L501 378 L508 368 L514 362 L525 355 L533 352 L544 351 Z M265 350 L270 355 L274 365 L276 367 L267 376 L263 385 L261 393 L261 398 L260 399 L254 386 L256 384 L256 382 L254 377 L253 367 L254 366 L254 361 L257 354 L261 350 Z M536 350 L522 355 L513 361 L503 372 L497 383 L494 393 L494 413 L497 423 L501 431 L507 439 L515 446 L525 452 L538 456 L558 456 L575 450 L587 441 L593 434 L599 423 L602 413 L602 406 L603 405 L602 392 L600 385 L593 372 L585 363 L577 357 L560 350 L555 350 L554 349 Z M227 348 L231 352 L233 357 L232 358 L228 357 L223 362 L220 370 L220 385 L218 386 L215 384 L216 366 L220 354 Z M539 344 L558 344 L559 345 L563 345 L572 348 L584 355 L599 371 L604 381 L607 391 L607 396 L608 397 L607 414 L603 427 L596 439 L582 452 L570 458 L559 461 L537 461 L526 458 L510 449 L500 439 L495 431 L489 413 L489 393 L490 392 L490 388 L493 379 L500 367 L512 355 L520 350 L530 346 L538 345 Z M317 402 L355 359 L369 345 L374 343 L387 345 L399 349 L410 351 L414 353 L421 354 L455 365 L458 365 L474 371 L477 371 L493 377 L490 382 L487 393 L473 393 L472 392 L436 390 L435 389 L422 389 L421 388 L404 388 L403 387 L377 387 L376 388 L366 388 L365 389 L354 390 L330 397 L319 403 Z M778 401 L776 402 L767 397 L747 391 L731 389 L730 388 L719 388 L718 387 L676 388 L675 389 L662 389 L661 390 L649 390 L648 391 L637 391 L636 392 L625 392 L624 393 L610 394 L608 392 L608 388 L604 377 L607 375 L610 375 L647 362 L650 362 L693 348 L696 348 L715 342 L723 342 L726 343 L742 359 Z M286 341 L288 342 L288 369 L287 370 L284 367 L279 365 L280 350 L282 345 Z M835 340 L842 346 L846 354 L849 367 L849 377 L841 384 L833 399 L827 378 L815 366 L822 355 L828 349 L832 350 L836 354 L840 366 L839 377 L835 385 L836 386 L841 376 L841 362 L837 353 L834 350 L829 348 L831 344 Z M808 340 L812 344 L814 350 L814 363 L812 367 L808 368 L807 367 L807 341 Z M263 341 L265 340 L266 343 L265 344 Z M260 340 L266 348 L265 349 L260 349 L254 356 L252 362 L252 375 L253 376 L253 380 L252 381 L245 375 L246 360 L248 352 L252 344 L255 341 Z M763 337 L768 337 L772 340 L774 344 L773 351 L768 355 L761 354 L757 349 L757 343 Z M765 335 L760 337 L756 341 L755 349 L760 355 L762 356 L769 356 L775 350 L775 342 L771 337 Z M311 400 L313 396 L367 335 L369 334 L379 334 L405 342 L419 345 L449 355 L452 355 L480 365 L483 365 L486 367 L495 369 L496 371 L493 375 L491 375 L462 365 L459 365 L449 361 L446 361 L436 357 L408 350 L404 348 L380 342 L372 342 L368 344 L342 371 L321 395 L315 404 L315 407 L320 415 L346 445 L366 466 L374 469 L375 468 L380 468 L441 448 L444 448 L460 442 L463 442 L490 433 L493 431 L496 436 L494 438 L485 440 L427 460 L424 460 L379 476 L370 477 L365 475 L357 467 L322 425 L312 414 Z M332 333 L338 334 L342 339 L342 344 L337 350 L331 350 L326 345 L326 339 Z M783 397 L783 414 L737 469 L729 477 L725 479 L713 478 L701 473 L664 461 L661 459 L647 455 L644 453 L630 449 L627 447 L619 445 L599 437 L601 433 L603 432 L623 440 L637 444 L640 446 L709 469 L717 471 L722 471 L728 468 L776 415 L781 408 L781 404 L780 401 L746 361 L727 342 L721 340 L709 342 L665 356 L662 356 L652 360 L649 360 L646 362 L643 362 L612 373 L609 373 L606 375 L603 375 L600 371 L601 369 L616 364 L619 364 L622 362 L625 362 L671 346 L674 346 L684 342 L687 342 L700 337 L707 336 L718 332 L726 332 L730 334 L776 387 Z M876 331 L879 331 L881 333 L885 346 L885 365 L884 366 L885 367 L885 391 L884 392 L878 386 L879 385 L879 373 L881 372 L878 371 L878 366 L873 354 L867 349 L871 338 Z M465 330 L470 330 L476 335 L476 342 L472 347 L469 348 L463 347 L459 343 L458 340 L459 335 Z M334 331 L330 332 L325 337 L324 340 L324 344 L326 348 L332 352 L340 350 L344 344 L343 337 L338 332 Z M218 329 L223 337 L225 347 L221 350 L216 359 L214 367 L214 374 L213 375 L214 385 L210 388 L207 394 L206 393 L206 374 L208 372 L206 366 L209 365 L207 360 L208 344 L211 333 L214 329 Z M466 328 L463 329 L458 334 L457 342 L462 348 L464 349 L471 349 L477 344 L478 336 L472 329 Z M621 327 L623 326 L630 326 L634 329 L636 335 L632 342 L630 343 L623 343 L619 340 L617 334 Z M811 324 L817 326 L820 329 L825 339 L827 347 L817 360 L816 359 L815 347 L813 343 L807 337 L808 335 L808 326 Z M283 324 L287 327 L288 338 L281 344 L278 350 L277 363 L276 364 L267 347 L267 344 L272 331 L277 326 Z M624 324 L618 328 L616 332 L616 337 L617 340 L620 343 L624 345 L629 345 L636 340 L637 332 L633 326 L629 324 Z M255 321 L256 320 L257 322 L256 323 Z M218 317 L221 320 L224 326 L224 333 L223 334 L219 328 L215 327 L211 330 L208 336 L207 335 L207 328 L212 321 L216 317 Z M890 315 L891 314 L892 316 L891 317 Z M678 314 L685 315 L689 320 L688 328 L682 332 L675 330 L672 326 L672 320 Z M680 312 L675 314 L671 318 L670 326 L675 332 L677 333 L684 333 L689 329 L691 325 L691 321 L686 314 Z M421 310 L425 312 L428 317 L427 324 L422 328 L417 328 L413 326 L410 320 L412 314 L415 311 Z M863 308 L870 312 L877 318 L873 320 L870 325 L876 320 L879 320 L885 327 L885 334 L884 335 L880 330 L877 329 L872 333 L869 339 L868 338 L868 326 L865 315 L862 309 Z M416 309 L410 314 L409 316 L409 323 L413 328 L421 330 L424 329 L429 324 L430 317 L425 310 L423 309 Z M861 308 L862 307 L863 308 L862 309 Z M236 305 L237 306 L233 315 L232 324 L231 325 L231 348 L230 349 L226 346 L225 325 L222 319 L219 316 L229 308 Z M236 305 L237 304 L238 305 L237 306 Z M810 302 L815 303 L821 310 L824 320 L824 330 L823 331 L818 325 L814 323 L809 323 L808 322 L808 304 Z M286 303 L287 304 L287 323 L286 324 L285 323 L277 324 L269 333 L268 332 L269 321 L274 308 L281 302 Z M245 301 L248 302 L252 306 L255 312 L256 319 L255 320 L250 314 L247 313 L242 317 L239 323 L237 331 L237 341 L242 356 L243 356 L243 353 L239 343 L239 329 L242 320 L246 315 L249 315 L252 318 L257 331 L257 337 L258 338 L251 343 L247 350 L244 360 L244 368 L242 371 L234 356 L234 354 L232 352 L232 346 L233 345 L233 321 L235 313 L238 307 Z M374 298 L380 297 L383 298 L387 302 L388 305 L387 310 L383 314 L377 315 L374 314 L371 311 L370 303 Z M375 296 L369 301 L368 309 L370 313 L379 317 L384 315 L388 311 L389 303 L384 297 L382 296 Z M763 291 L767 293 L770 297 L770 303 L764 309 L759 309 L753 304 L753 297 L757 292 Z M719 291 L724 292 L728 296 L729 302 L727 306 L722 309 L718 309 L714 307 L711 302 L712 296 L716 292 Z M283 291 L287 294 L287 300 L286 301 L282 300 L278 302 L272 308 L267 322 L267 334 L268 336 L266 341 L259 337 L257 313 L254 306 L248 300 L252 298 L268 294 L269 295 L266 297 L265 300 L272 293 L276 291 Z M810 290 L816 291 L823 297 L828 306 L834 330 L834 337 L829 344 L827 342 L827 339 L824 334 L826 327 L826 320 L824 313 L818 303 L812 300 L810 301 L808 300 L809 299 L809 291 Z M332 292 L336 290 L340 290 L345 294 L346 296 L346 303 L342 307 L336 308 L333 307 L330 304 L329 297 Z M758 290 L752 295 L751 303 L754 308 L757 310 L763 311 L766 310 L771 305 L772 299 L770 294 L765 290 Z M716 290 L710 296 L710 304 L714 309 L721 311 L726 309 L729 306 L731 299 L727 292 L723 290 Z M342 289 L334 289 L332 290 L327 297 L328 304 L332 308 L337 310 L345 307 L348 302 L348 296 L346 292 Z M454 287 L461 286 L467 291 L468 297 L463 303 L458 304 L451 300 L450 292 Z M636 285 L643 286 L647 291 L646 299 L640 303 L634 302 L630 298 L630 290 Z M810 283 L839 289 L859 296 L880 308 L891 319 L891 323 L887 327 L880 318 L867 308 L845 297 L836 294 L832 294 L847 300 L841 305 L838 311 L839 312 L841 308 L846 303 L853 302 L860 308 L866 324 L866 333 L867 334 L866 346 L851 371 L850 370 L850 364 L847 352 L842 343 L836 339 L835 337 L836 336 L836 331 L841 318 L845 315 L848 315 L853 322 L855 330 L855 342 L850 357 L854 351 L857 340 L857 331 L855 323 L852 317 L849 314 L845 313 L839 319 L836 327 L834 324 L834 319 L830 306 L826 298 L822 294 L824 293 L822 291 L818 291 L815 289 L810 289 L809 288 L809 284 Z M458 284 L453 286 L450 289 L448 293 L448 297 L449 300 L455 305 L462 305 L466 303 L469 299 L469 292 L466 287 L463 285 Z M286 284 L286 288 L285 289 L276 289 L271 292 L256 295 L239 301 L229 306 L216 315 L208 323 L205 328 L199 322 L202 317 L211 309 L232 297 L258 288 L262 288 L281 283 L285 283 Z M634 284 L631 286 L628 291 L628 297 L631 302 L635 304 L642 304 L648 299 L649 291 L642 284 L639 283 Z M479 269 L485 287 L485 290 L490 303 L490 306 L496 322 L496 325 L507 356 L497 368 L488 366 L463 357 L460 357 L457 355 L454 355 L441 350 L438 350 L428 346 L425 346 L397 337 L390 336 L378 332 L370 332 L362 337 L319 386 L312 395 L311 394 L311 337 L310 336 L310 284 L309 283 L310 279 L329 277 L330 276 L337 276 L338 275 L346 275 L347 274 L383 272 L384 271 L421 270 L422 269 L452 269 L453 268 L478 268 Z M613 268 L614 267 L619 267 L620 268 L655 268 L656 269 L694 270 L695 271 L708 271 L709 272 L742 274 L743 275 L751 275 L752 276 L759 276 L760 277 L767 277 L768 278 L775 278 L776 279 L785 280 L786 281 L786 310 L785 311 L785 349 L784 350 L784 389 L782 393 L774 382 L740 342 L730 332 L726 330 L718 330 L714 332 L704 334 L614 364 L611 364 L602 368 L599 368 L587 355 L589 351 L589 348 L595 330 L600 309 Z M810 245 L811 244 L815 244 L853 253 L873 260 L888 268 L891 271 L892 313 L890 315 L883 308 L876 303 L854 292 L826 284 L810 282 L809 281 Z M286 244 L286 280 L285 281 L255 287 L232 295 L220 301 L208 309 L200 318 L199 317 L199 274 L205 267 L215 262 L240 253 L282 243 Z M790 240 L791 241 L804 242 L808 244 L806 334 L805 335 L805 374 L804 375 L804 413 L803 414 L802 494 L801 495 L801 526 L800 527 L800 540 L799 541 L791 539 L784 539 L781 537 L783 452 L784 451 L784 416 L785 415 L785 383 L786 382 L786 345 L787 344 L787 308 L788 307 L788 272 L789 271 L789 241 Z M306 239 L307 240 L307 265 L308 266 L312 536 L311 537 L294 539 L293 538 L293 523 L292 522 L292 463 L291 462 L291 405 L290 404 L290 337 L289 336 L288 243 L293 241 L305 240 Z M614 263 L621 241 L621 234 L620 233 L621 230 L678 230 L679 231 L715 232 L716 233 L727 233 L728 234 L738 234 L739 235 L767 237 L768 238 L783 239 L787 241 L787 272 L786 273 L787 277 L786 278 L776 277 L775 276 L768 276 L767 275 L760 275 L759 274 L742 273 L741 272 L708 270 L707 269 L694 269 L693 268 L654 267 L653 266 L615 266 Z M473 231 L471 234 L471 243 L478 265 L477 266 L384 269 L383 270 L371 270 L370 271 L359 271 L358 272 L330 274 L329 275 L323 275 L315 277 L310 277 L309 276 L309 248 L308 247 L308 240 L309 239 L319 238 L320 237 L328 237 L329 236 L348 235 L349 234 L376 233 L377 232 L395 232 L396 231 L429 231 L430 230 L472 230 Z M556 202 L558 206 L561 224 L562 225 L563 250 L564 251 L562 305 L561 306 L560 335 L558 343 L555 342 L557 290 L558 289 L558 265 L559 264 L559 234 L558 233 L557 212 L555 206 Z M555 198 L556 199 L555 202 L554 201 Z M553 197 L554 196 L555 197 L554 198 Z M539 194 L540 197 L538 203 L536 225 L535 226 L535 274 L536 275 L536 292 L537 293 L540 342 L536 343 L535 342 L535 335 L534 334 L534 323 L533 322 L531 287 L530 286 L529 239 L530 238 L530 229 L531 228 L533 212 L537 200 L537 197 Z M539 192 L540 191 L541 193 L540 194 Z M540 190 L541 189 L542 190 L541 191 Z M546 180 L550 188 L550 191 L553 199 L555 215 L556 216 L556 226 L557 227 L557 268 L556 269 L554 332 L553 333 L553 341 L552 342 L542 342 L541 341 L541 327 L540 326 L539 298 L538 297 L538 280 L537 279 L537 257 L536 256 L536 231 L537 230 L538 211 L539 210 L539 205 L540 204 L540 199 Z M544 162 L549 162 L553 165 L582 203 L606 231 L608 235 L609 241 L601 272 L598 279 L598 282 L595 289 L594 296 L588 314 L582 340 L578 350 L573 347 L561 343 L563 299 L564 298 L564 281 L565 280 L565 236 L564 235 L562 216 L555 192 L547 177 L544 179 L539 189 L533 206 L530 218 L530 223 L529 224 L528 246 L527 247 L528 282 L529 283 L529 295 L530 296 L530 306 L531 307 L534 343 L531 345 L523 347 L516 351 L514 349 L500 305 L500 302 L496 292 L496 289 L493 282 L493 279 L484 250 L483 237 L492 223 L523 184 L529 178 L538 166 Z M549 151 L552 152 L559 159 L561 163 L583 191 L617 229 L620 238 L612 263 L612 266 L608 276 L608 279 L605 286 L605 289 L601 299 L601 302 L598 309 L598 312 L594 323 L587 351 L585 354 L581 352 L580 350 L582 346 L591 310 L593 306 L593 303 L610 245 L610 236 L604 226 L580 198 L553 163 L550 161 L542 161 L537 165 L490 223 L483 233 L481 238 L481 244 L486 264 L489 271 L489 274 L503 318 L503 321 L508 334 L508 337 L514 352 L509 356 L491 303 L491 300 L477 258 L472 238 L477 227 L487 216 L531 161 L540 152 Z M209 249 L210 248 L210 232 L211 231 L212 207 L213 206 L213 198 L214 197 L214 190 L215 189 L216 180 L221 174 L226 171 L250 164 L254 164 L270 160 L275 160 L276 159 L282 159 L283 158 L303 156 L304 155 L311 155 L312 154 L319 154 L320 153 L350 151 L351 150 L362 150 L363 149 L375 149 L376 148 L389 148 L390 147 L406 147 L407 146 L445 145 L446 144 L472 144 L473 143 L507 143 L508 142 L641 142 L642 143 L668 143 L669 144 L705 145 L706 146 L718 146 L719 147 L730 147 L731 148 L769 151 L770 152 L785 153 L786 154 L792 154 L793 155 L817 158 L861 169 L869 173 L876 181 L877 193 L878 194 L878 203 L879 204 L879 216 L880 217 L882 261 L880 262 L865 255 L834 246 L830 246 L825 244 L815 243 L809 241 L798 240 L797 239 L784 238 L783 237 L749 234 L748 233 L738 233 L737 232 L727 232 L726 231 L699 230 L698 229 L618 228 L582 187 L558 155 L555 152 L549 149 L543 149 L537 152 L532 157 L474 228 L399 229 L398 230 L363 231 L362 232 L351 232 L350 233 L339 233 L338 234 L313 236 L312 237 L288 240 L277 243 L272 243 L263 246 L251 248 L228 255 L210 263 L209 262 Z M221 172 L217 175 L213 183 L211 207 L210 208 L210 218 L209 219 L209 231 L208 232 L207 264 L202 267 L198 271 L197 274 L197 322 L198 325 L205 331 L205 341 L204 342 L205 573 L213 581 L213 587 L209 591 L209 595 L208 596 L208 619 L201 624 L197 633 L196 653 L195 654 L195 670 L194 671 L194 699 L190 700 L186 703 L180 703 L176 706 L175 705 L169 705 L164 707 L158 712 L155 719 L155 723 L156 724 L160 724 L165 721 L172 721 L174 725 L181 730 L188 729 L191 726 L193 727 L193 731 L192 732 L192 930 L193 931 L193 1028 L194 1029 L194 1159 L195 1160 L195 1204 L196 1205 L197 1247 L198 1248 L199 1267 L201 1273 L210 1280 L221 1284 L234 1284 L238 1283 L244 1280 L249 1275 L252 1266 L261 1215 L263 1210 L263 1206 L265 1201 L265 1197 L270 1177 L277 1155 L282 1146 L284 1144 L286 1144 L294 1167 L305 1190 L316 1208 L327 1223 L342 1241 L359 1258 L371 1268 L389 1278 L395 1279 L399 1281 L409 1282 L410 1283 L417 1283 L418 1284 L451 1285 L452 1286 L496 1286 L497 1287 L642 1286 L643 1285 L675 1284 L676 1283 L683 1283 L684 1282 L694 1281 L704 1278 L714 1273 L724 1266 L751 1240 L762 1227 L774 1211 L789 1187 L798 1168 L805 1147 L808 1144 L815 1156 L819 1169 L820 1177 L825 1196 L825 1200 L826 1201 L826 1205 L827 1206 L827 1210 L828 1211 L828 1215 L829 1216 L829 1221 L831 1227 L831 1232 L832 1233 L832 1238 L833 1239 L836 1258 L842 1276 L847 1281 L851 1283 L860 1284 L861 1285 L874 1283 L885 1278 L890 1273 L893 1262 L894 1233 L895 1232 L895 1204 L896 1203 L896 1119 L897 1118 L897 929 L896 928 L896 871 L897 870 L898 765 L899 764 L899 663 L898 662 L898 650 L897 649 L897 642 L896 641 L895 631 L890 620 L882 614 L882 609 L883 608 L882 606 L882 592 L878 588 L878 582 L884 578 L885 576 L885 569 L886 568 L887 448 L888 447 L887 329 L892 325 L894 318 L894 285 L893 284 L893 271 L884 263 L881 204 L880 203 L878 181 L876 177 L869 171 L851 164 L831 159 L811 156 L810 155 L805 155 L804 154 L799 154 L798 153 L784 152 L783 151 L769 150 L768 149 L760 149 L759 148 L751 148 L750 147 L730 146 L729 145 L687 143 L686 142 L668 142 L667 141 L639 141 L638 140 L511 140 L510 141 L449 142 L448 143 L429 143 L428 144 L377 146 L376 147 L364 147 L363 148 L322 151 L321 152 L314 152 L313 153 L305 153 L304 154 L284 156 L283 157 L266 159 L265 160 L261 160 L260 161 L239 165 Z" fill="#eef3f4" fill-rule="evenodd"/>
</svg>
