<svg xmlns="http://www.w3.org/2000/svg" width="1086" height="1448" viewBox="0 0 1086 1448">
  <title>0109</title>
  <path d="M628 1376 L629 1375 L630 1376 L629 1377 Z M561 1360 L562 1359 L563 1360 L562 1361 Z M643 1356 L644 1357 L644 1364 L645 1365 L644 1369 L642 1368 L643 1367 L642 1366 L642 1357 Z M556 1353 L558 1358 L556 1362 L555 1361 L555 1354 Z M528 1353 L529 1354 L529 1360 L528 1361 L527 1360 L527 1354 Z M537 1352 L539 1360 L539 1376 L540 1377 L539 1378 L532 1376 L534 1362 Z M525 1352 L526 1353 L526 1363 L525 1364 L525 1371 L526 1372 L524 1374 L522 1372 L523 1371 L522 1370 L523 1366 L522 1359 Z M446 1353 L447 1352 L448 1354 L447 1355 Z M627 1338 L628 1339 L627 1370 L625 1371 L621 1366 L623 1358 L624 1344 Z M472 1339 L473 1338 L474 1339 L473 1340 Z M441 1338 L442 1339 L442 1345 L441 1346 L441 1351 L439 1352 L438 1351 Z M545 1336 L546 1337 L546 1344 L547 1345 L549 1364 L551 1370 L548 1374 L546 1368 L545 1348 L544 1347 L544 1337 Z M531 1336 L532 1337 L532 1342 L529 1353 L528 1352 L528 1344 Z M628 1334 L629 1335 L628 1339 L627 1338 Z M541 1334 L543 1336 L543 1351 L544 1352 L544 1361 L545 1362 L545 1371 L546 1372 L546 1377 L545 1378 L541 1376 L541 1371 L540 1370 L539 1340 Z M442 1334 L443 1335 L442 1338 L441 1337 Z M531 1334 L532 1333 L533 1335 L532 1336 Z M457 1331 L458 1332 L458 1339 L460 1345 L460 1351 L458 1353 L459 1354 L458 1355 L456 1354 L456 1332 Z M626 1330 L627 1333 L625 1337 L624 1336 L624 1332 Z M626 1329 L627 1328 L628 1330 L627 1331 Z M628 1323 L629 1324 L628 1328 L627 1327 Z M544 1322 L545 1323 L545 1334 L544 1335 L542 1329 Z M442 1322 L443 1323 L443 1330 L442 1331 L441 1330 L441 1323 Z M377 1320 L378 1319 L379 1320 L378 1321 Z M465 1318 L466 1319 L466 1330 L465 1331 L464 1330 L464 1319 Z M545 1317 L546 1318 L546 1322 L545 1323 L544 1322 L544 1318 Z M614 1316 L615 1317 L615 1326 L616 1327 L616 1347 L617 1348 L616 1359 L615 1360 L610 1355 L611 1354 L611 1342 L610 1341 L611 1338 L611 1327 Z M399 1315 L400 1314 L401 1315 L400 1316 Z M734 1312 L735 1311 L736 1312 L735 1313 Z M638 1304 L639 1305 L639 1331 L641 1339 L641 1356 L640 1357 L640 1370 L641 1371 L640 1372 L638 1371 L635 1372 L634 1368 L635 1367 L636 1341 L637 1340 L637 1305 Z M441 1303 L442 1304 L442 1312 L440 1313 L439 1316 L439 1340 L438 1341 L437 1351 L435 1353 L433 1345 L434 1342 L434 1329 L435 1328 L436 1316 Z M528 1301 L529 1302 L529 1308 L527 1315 L526 1329 L523 1338 L522 1337 L522 1330 L523 1329 L523 1323 L524 1322 L525 1312 Z M650 1299 L651 1300 L651 1306 L652 1307 L653 1319 L654 1320 L654 1351 L655 1352 L655 1355 L651 1358 L650 1357 L650 1347 L649 1346 L649 1300 Z M529 1297 L530 1298 L529 1301 L528 1300 Z M762 1296 L763 1295 L764 1296 L763 1297 Z M343 1296 L344 1295 L345 1296 L344 1297 Z M550 1291 L551 1292 L553 1311 L554 1312 L554 1347 L553 1348 L553 1359 L554 1360 L554 1368 L555 1369 L554 1373 L551 1367 L550 1356 L548 1351 L548 1341 L547 1340 L547 1317 L548 1316 L548 1307 L549 1306 L548 1299 Z M736 1290 L737 1291 L737 1297 L740 1310 L736 1312 L734 1310 L734 1300 L735 1299 L735 1291 Z M377 1290 L380 1303 L381 1318 L380 1319 L377 1318 L376 1320 L375 1317 L376 1316 L376 1291 Z M345 1288 L347 1294 L346 1295 L344 1294 L344 1289 Z M453 1287 L454 1288 L454 1312 L455 1313 L455 1351 L454 1352 L455 1353 L450 1356 L449 1355 L449 1330 L450 1329 L451 1313 L452 1312 L452 1288 Z M698 1285 L699 1284 L700 1285 L699 1286 Z M457 1274 L463 1300 L463 1312 L462 1313 L462 1330 L463 1331 L463 1340 L464 1341 L464 1351 L463 1352 L461 1348 L459 1330 L457 1325 L457 1315 L456 1314 L456 1275 Z M628 1271 L629 1272 L629 1314 L627 1319 L627 1327 L625 1330 L624 1329 L624 1319 L625 1318 L626 1294 L627 1293 L627 1272 Z M726 1270 L727 1271 L727 1286 L728 1287 L727 1310 L722 1312 L721 1310 L722 1309 L722 1303 L724 1296 L724 1283 L725 1282 L725 1271 Z M743 1267 L745 1271 L745 1276 L747 1281 L750 1303 L752 1306 L748 1308 L747 1310 L745 1305 L743 1286 L742 1285 L742 1278 L741 1277 L741 1273 Z M372 1267 L373 1268 L374 1283 L375 1284 L375 1291 L374 1292 L375 1305 L374 1306 L374 1317 L373 1318 L369 1315 L370 1303 L371 1302 L371 1268 Z M710 1265 L711 1266 L711 1293 L710 1294 L707 1291 L707 1282 L708 1281 L709 1266 Z M736 1262 L740 1277 L741 1290 L742 1291 L742 1297 L744 1305 L744 1314 L743 1315 L740 1306 L738 1286 L736 1279 L736 1270 L735 1269 L735 1263 Z M701 1262 L702 1263 L702 1278 L701 1279 L699 1272 L699 1268 Z M441 1262 L442 1263 L442 1293 L438 1307 L437 1306 L437 1288 L438 1287 L438 1277 L439 1276 L439 1270 Z M627 1261 L628 1262 L628 1271 L627 1272 L626 1271 L626 1262 Z M709 1256 L710 1257 L710 1261 L709 1262 L708 1261 L708 1257 Z M638 1252 L639 1253 L639 1263 L638 1264 L637 1263 L637 1253 Z M373 1251 L374 1252 L374 1257 L373 1258 L372 1257 L372 1252 Z M453 1248 L454 1249 L454 1258 L455 1259 L455 1266 L456 1267 L455 1280 L454 1281 L453 1280 L453 1264 L452 1263 L452 1249 Z M651 1245 L652 1246 L652 1253 L653 1254 L653 1261 L654 1262 L655 1292 L656 1293 L656 1299 L657 1300 L657 1306 L659 1314 L659 1323 L660 1324 L660 1328 L659 1329 L659 1350 L660 1351 L660 1355 L659 1356 L656 1353 L656 1348 L655 1347 L655 1329 L656 1328 L656 1324 L655 1323 L655 1315 L652 1302 L651 1282 L649 1274 L649 1260 L650 1259 L650 1246 Z M706 1244 L707 1245 L707 1277 L706 1278 L705 1287 L702 1292 L701 1291 L701 1287 L703 1282 L703 1271 L704 1270 L703 1269 L703 1252 Z M751 1243 L754 1254 L754 1273 L753 1274 L752 1273 L752 1266 L750 1261 L750 1253 L749 1252 L750 1244 Z M343 1243 L344 1244 L344 1280 L343 1281 L342 1297 L340 1299 L336 1294 L339 1282 L340 1256 Z M625 1242 L626 1243 L626 1257 L624 1263 L625 1267 L625 1299 L624 1300 L624 1312 L623 1313 L623 1346 L622 1347 L620 1367 L618 1369 L617 1368 L617 1364 L618 1363 L617 1361 L618 1360 L618 1352 L619 1351 L619 1341 L618 1340 L616 1314 L618 1306 L618 1290 L619 1289 L620 1269 L621 1268 L622 1254 Z M452 1238 L453 1239 L453 1247 L452 1248 L451 1247 L451 1239 Z M347 1233 L348 1234 L348 1253 L349 1254 L349 1283 L350 1284 L350 1291 L351 1292 L350 1296 L348 1294 L348 1289 L346 1283 L346 1234 Z M539 1232 L540 1233 L540 1251 L541 1252 L541 1289 L540 1290 L539 1289 L538 1261 L537 1260 L537 1248 L536 1247 L537 1238 Z M748 1231 L749 1232 L749 1244 L748 1245 L747 1244 L747 1232 Z M451 1231 L452 1232 L452 1237 L451 1238 L450 1237 L450 1232 Z M383 1230 L387 1243 L387 1284 L388 1285 L390 1299 L395 1312 L395 1315 L393 1318 L391 1317 L389 1305 L384 1291 L383 1267 L382 1266 L382 1231 Z M450 1226 L451 1227 L450 1230 L449 1229 Z M444 1226 L448 1231 L448 1235 L449 1236 L450 1262 L451 1263 L451 1299 L450 1300 L450 1314 L449 1315 L449 1324 L448 1325 L448 1332 L447 1333 L447 1343 L446 1344 L445 1353 L443 1357 L442 1356 L442 1352 L443 1351 L443 1344 L444 1343 L444 1253 L443 1252 L442 1237 L443 1236 L443 1227 Z M464 1223 L465 1224 L465 1242 L466 1243 L466 1259 L467 1260 L467 1271 L466 1272 L464 1264 L464 1251 L463 1250 L463 1224 Z M702 1219 L703 1220 L703 1225 L699 1241 L697 1239 L698 1238 L699 1227 Z M391 1219 L393 1221 L393 1225 L394 1226 L394 1232 L393 1233 L390 1221 Z M390 1215 L391 1216 L390 1219 L389 1218 Z M391 1207 L394 1210 L398 1222 L398 1241 L396 1245 L394 1239 L395 1238 L395 1224 L390 1212 L390 1208 Z M736 1201 L737 1202 L738 1239 L739 1240 L740 1254 L742 1260 L741 1268 L740 1269 L738 1264 L738 1260 L736 1255 L736 1249 L735 1248 L735 1202 Z M392 1194 L394 1200 L396 1202 L396 1209 L395 1210 L394 1207 L391 1205 L391 1195 Z M624 1193 L625 1194 L625 1228 L624 1229 L623 1246 L622 1247 L620 1263 L619 1264 L619 1275 L618 1276 L617 1292 L616 1293 L614 1309 L611 1318 L611 1323 L609 1330 L609 1355 L607 1357 L606 1356 L606 1346 L605 1345 L605 1331 L606 1330 L607 1315 L608 1314 L610 1295 L611 1294 L612 1282 L613 1281 L613 1272 L614 1271 L614 1263 L615 1262 L615 1250 L619 1238 L620 1214 L621 1213 L621 1207 L622 1206 L623 1194 Z M711 1188 L712 1189 L712 1196 L711 1197 L711 1211 L710 1212 L709 1226 L706 1235 L704 1247 L699 1261 L698 1274 L697 1275 L695 1271 L695 1266 L703 1234 L704 1222 L705 1221 L705 1208 L707 1204 Z M641 1186 L645 1199 L648 1227 L649 1228 L648 1278 L647 1279 L647 1333 L648 1334 L648 1357 L649 1358 L649 1368 L648 1369 L646 1365 L645 1353 L644 1352 L643 1342 L642 1341 L642 1334 L641 1333 L641 1323 L640 1322 L640 1301 L641 1300 L641 1295 L640 1294 L640 1288 L641 1287 L640 1187 Z M467 1181 L470 1190 L470 1196 L471 1197 L472 1210 L473 1211 L473 1219 L474 1220 L474 1251 L473 1252 L473 1266 L472 1267 L472 1300 L471 1301 L467 1284 L468 1283 L468 1252 L467 1251 L467 1234 L466 1233 L466 1219 L465 1218 L465 1187 Z M386 1177 L390 1189 L390 1202 L389 1203 L387 1202 L386 1188 L385 1187 L385 1178 Z M533 1165 L534 1166 L534 1196 L533 1197 L532 1224 L531 1225 L531 1232 L530 1233 L529 1232 L529 1225 L528 1224 L528 1204 L529 1203 L529 1193 L530 1192 L531 1175 L532 1174 L532 1166 Z M637 1164 L639 1171 L638 1251 L637 1252 L636 1251 L636 1238 L635 1237 L635 1230 L636 1229 L636 1195 L635 1194 L635 1185 L636 1184 L636 1165 Z M360 1160 L361 1161 L361 1172 L360 1173 L360 1181 L359 1182 L358 1202 L357 1203 L357 1211 L356 1212 L356 1219 L355 1220 L355 1226 L353 1233 L353 1239 L350 1251 L349 1250 L349 1238 L350 1237 L350 1231 L352 1224 L352 1217 L353 1216 L353 1210 L355 1202 L355 1193 L356 1192 L356 1183 L357 1182 L359 1161 Z M464 1158 L466 1165 L466 1171 L465 1172 L465 1180 L464 1181 L464 1223 L463 1224 L462 1223 L461 1181 L462 1180 L463 1159 Z M741 1142 L742 1143 L742 1155 L741 1156 L740 1155 L740 1143 Z M717 1133 L719 1141 L719 1155 L720 1156 L720 1169 L721 1170 L721 1200 L720 1201 L720 1209 L719 1210 L719 1217 L718 1218 L718 1225 L717 1226 L717 1240 L716 1241 L717 1289 L715 1296 L715 1304 L713 1307 L712 1306 L713 1270 L712 1269 L711 1241 L710 1238 L711 1237 L711 1218 L712 1217 L713 1192 L714 1191 L714 1185 L713 1184 L714 1158 L715 1157 L716 1134 Z M467 1115 L468 1116 L469 1128 L470 1129 L470 1138 L471 1139 L473 1181 L474 1182 L476 1198 L477 1199 L477 1211 L475 1214 L474 1213 L473 1199 L468 1179 L468 1172 L467 1171 L467 1164 L466 1163 L466 1153 L465 1152 L465 1125 L466 1124 L466 1116 Z M374 1112 L375 1113 L375 1184 L376 1185 L376 1193 L377 1194 L378 1207 L380 1214 L382 1283 L383 1284 L383 1291 L385 1296 L385 1300 L388 1309 L388 1319 L386 1321 L382 1318 L381 1300 L380 1299 L380 1295 L376 1279 L376 1273 L375 1272 L375 1250 L374 1249 L373 1223 L372 1222 L371 1161 L372 1160 L373 1113 Z M708 1099 L710 1101 L709 1149 L710 1150 L710 1157 L712 1161 L712 1175 L711 1176 L711 1182 L709 1187 L708 1195 L698 1225 L697 1236 L696 1237 L695 1236 L696 1223 L707 1179 L707 1166 L706 1165 L705 1151 L704 1150 L704 1127 L705 1126 L705 1117 L706 1116 L706 1108 L707 1107 L707 1100 Z M356 1089 L357 1090 L357 1120 L356 1121 L356 1133 L355 1134 L354 1149 L352 1155 L352 1160 L351 1161 L351 1166 L348 1179 L348 1185 L347 1186 L346 1221 L345 1222 L345 1227 L344 1228 L344 1232 L342 1237 L342 1241 L339 1251 L339 1257 L338 1258 L337 1285 L335 1290 L335 1294 L332 1297 L331 1294 L332 1293 L333 1281 L334 1280 L334 1257 L335 1256 L335 1250 L336 1249 L337 1240 L340 1230 L340 1224 L341 1223 L342 1190 L343 1189 L343 1181 L344 1180 L344 1173 L345 1172 L345 1165 L346 1164 L346 1157 L347 1156 L348 1141 L349 1140 L349 1132 L350 1131 L351 1108 L352 1107 L354 1093 Z M727 1069 L728 1070 L728 1082 L727 1083 L727 1092 L726 1093 L726 1101 L725 1102 L725 1110 L724 1111 L724 1119 L723 1120 L723 1148 L724 1149 L724 1163 L725 1164 L725 1203 L724 1204 L723 1226 L721 1230 L721 1238 L720 1239 L721 1259 L722 1259 L722 1236 L723 1235 L724 1236 L724 1252 L725 1253 L725 1257 L724 1258 L724 1270 L723 1271 L722 1297 L719 1310 L716 1307 L717 1295 L718 1294 L718 1281 L719 1280 L718 1237 L719 1236 L719 1225 L720 1224 L722 1197 L723 1196 L723 1172 L722 1171 L722 1158 L721 1157 L721 1145 L720 1144 L719 1126 L720 1125 L721 1104 L722 1103 L723 1090 L724 1089 L726 1070 Z M728 1059 L729 1060 L729 1067 L728 1068 L727 1067 L727 1060 Z M544 1059 L545 1060 L546 1082 L547 1083 L547 1124 L546 1125 L546 1129 L547 1130 L548 1171 L549 1172 L548 1234 L549 1235 L550 1256 L554 1272 L554 1277 L555 1278 L557 1295 L558 1296 L558 1302 L559 1303 L559 1312 L560 1313 L560 1349 L561 1350 L562 1358 L561 1359 L559 1358 L557 1350 L557 1345 L556 1344 L556 1318 L555 1317 L554 1300 L553 1299 L552 1288 L550 1284 L550 1278 L548 1273 L547 1263 L546 1260 L545 1260 L546 1261 L546 1270 L548 1275 L548 1292 L547 1293 L546 1307 L543 1317 L541 1331 L538 1339 L537 1348 L533 1360 L531 1376 L528 1378 L527 1377 L527 1373 L530 1362 L530 1355 L534 1340 L534 1330 L535 1329 L538 1308 L541 1299 L542 1282 L543 1281 L541 1221 L540 1220 L540 1178 L541 1177 L541 1096 L542 1095 L542 1074 L543 1073 L543 1060 Z M354 1052 L356 1059 L357 1077 L356 1078 L356 1086 L353 1092 L353 1096 L352 1097 L351 1096 L351 1067 L352 1066 L352 1058 Z M547 1047 L548 1048 L548 1059 L549 1060 L549 1069 L550 1070 L550 1085 L551 1086 L553 1234 L554 1235 L554 1245 L555 1246 L556 1264 L557 1265 L557 1274 L556 1275 L552 1259 L552 1252 L551 1251 L551 1244 L550 1243 L550 1160 L549 1159 L549 1140 L548 1139 L549 1090 L548 1089 L548 1076 L547 1075 L547 1065 L546 1064 L546 1048 Z M379 1045 L380 1046 L380 1054 L381 1055 L383 1088 L384 1089 L384 1105 L385 1106 L384 1144 L383 1145 L384 1192 L385 1193 L388 1218 L393 1238 L393 1242 L396 1251 L396 1256 L399 1269 L399 1294 L398 1295 L398 1302 L400 1310 L400 1314 L399 1315 L396 1314 L396 1310 L391 1297 L389 1289 L389 1284 L388 1283 L389 1280 L388 1279 L388 1256 L389 1255 L393 1271 L393 1296 L394 1296 L394 1286 L395 1285 L394 1269 L380 1210 L378 1189 L377 1188 L377 1176 L376 1175 L376 1105 L375 1104 L375 1082 L376 1081 L377 1055 L378 1054 L378 1046 Z M585 1042 L586 1041 L587 1042 L586 1043 Z M503 1042 L504 1041 L505 1042 L504 1043 Z M504 1040 L505 1039 L506 1041 L505 1042 Z M549 1038 L552 1043 L554 1057 L555 1058 L556 1075 L557 1076 L557 1092 L558 1093 L560 1242 L561 1243 L562 1265 L563 1266 L562 1282 L559 1293 L558 1292 L558 1257 L557 1256 L555 1231 L554 1230 L554 1217 L555 1216 L555 1196 L554 1195 L554 1124 L553 1123 L552 1076 L551 1075 L549 1047 L548 1046 L548 1039 Z M544 1038 L545 1042 L543 1048 L542 1069 L541 1070 L541 1084 L540 1085 L539 1222 L538 1223 L538 1231 L535 1242 L535 1247 L531 1262 L530 1285 L528 1290 L528 1294 L527 1295 L527 1299 L525 1304 L522 1324 L521 1325 L521 1348 L522 1348 L522 1345 L526 1335 L529 1314 L530 1313 L531 1290 L532 1289 L532 1268 L533 1267 L533 1260 L535 1253 L536 1254 L536 1265 L537 1266 L538 1297 L537 1298 L537 1307 L536 1308 L533 1326 L530 1332 L527 1344 L522 1354 L518 1371 L516 1373 L515 1369 L518 1356 L517 1354 L516 1330 L517 1329 L517 1322 L518 1321 L521 1301 L522 1300 L522 1295 L523 1294 L526 1264 L528 1258 L530 1241 L533 1229 L533 1221 L534 1220 L534 1204 L535 1203 L535 1187 L536 1186 L535 1165 L533 1164 L535 1080 L536 1079 L536 1070 L537 1069 L539 1050 L541 1043 Z M635 1036 L636 1037 L636 1052 L637 1053 L637 1099 L636 1100 L636 1139 L635 1140 L635 1169 L634 1170 L634 1248 L635 1249 L635 1258 L636 1259 L636 1267 L637 1268 L638 1290 L637 1291 L637 1301 L636 1302 L634 1361 L633 1362 L632 1373 L630 1376 L628 1372 L629 1371 L629 1346 L630 1345 L630 1332 L631 1331 L631 1312 L630 1311 L631 1274 L630 1273 L629 1258 L627 1251 L627 1236 L626 1235 L626 1157 L627 1156 L627 1131 L628 1130 L628 1111 L629 1110 L629 1095 L630 1094 L631 1061 L632 1060 L633 1041 Z M387 1037 L388 1036 L389 1038 L388 1039 Z M549 1036 L550 1035 L551 1036 L550 1037 Z M542 1036 L543 1035 L544 1036 L543 1037 Z M544 1035 L545 1034 L549 1035 L548 1036 Z M455 1033 L456 1034 L456 1041 L457 1042 L457 1139 L456 1140 L456 1150 L455 1151 L455 1157 L454 1158 L454 1164 L453 1165 L452 1178 L451 1179 L451 1186 L450 1187 L450 1218 L447 1228 L444 1222 L444 1188 L445 1187 L445 1174 L446 1173 L446 1165 L447 1164 L448 1140 L449 1139 L449 1122 L450 1121 L451 1061 L452 1060 L452 1051 L453 1050 L453 1042 L454 1041 L454 1034 Z M638 1032 L639 1033 L639 1041 L640 1042 L640 1049 L641 1050 L641 1061 L642 1062 L641 1134 L642 1135 L642 1147 L643 1148 L643 1158 L644 1159 L645 1173 L646 1174 L646 1179 L648 1184 L650 1200 L651 1201 L651 1220 L650 1221 L648 1215 L648 1209 L647 1208 L645 1192 L641 1180 L640 1167 L637 1155 L637 1119 L638 1118 L638 1087 L639 1086 L639 1058 L638 1057 L638 1043 L637 1042 L637 1033 Z M536 1034 L542 1029 L550 1029 L554 1031 L558 1037 L557 1046 L555 1048 L554 1047 L554 1038 L551 1034 L543 1033 L539 1038 L539 1043 L540 1044 L538 1048 L535 1044 L535 1036 Z M459 1029 L460 1030 L461 1047 L462 1048 L462 1055 L463 1056 L464 1086 L465 1087 L464 1137 L463 1138 L463 1152 L462 1153 L461 1175 L460 1176 L461 1241 L462 1242 L462 1259 L463 1260 L464 1275 L465 1276 L466 1287 L470 1304 L471 1330 L473 1336 L472 1339 L469 1337 L470 1339 L466 1343 L465 1342 L465 1331 L467 1329 L467 1313 L465 1307 L465 1301 L462 1293 L459 1273 L457 1268 L456 1250 L455 1249 L454 1232 L453 1231 L453 1224 L452 1223 L452 1185 L453 1184 L453 1177 L454 1176 L454 1170 L456 1163 L456 1155 L457 1154 L457 1147 L458 1146 L458 1134 L459 1133 L459 1076 L458 1075 L458 1071 L459 1070 L458 1030 Z M456 1028 L457 1029 L456 1033 L455 1032 Z M637 1027 L638 1028 L637 1031 L636 1030 Z M609 1027 L610 1026 L611 1027 L610 1028 Z M608 1026 L609 1025 L610 1026 L609 1027 Z M607 1025 L608 1024 L609 1025 L608 1026 Z M606 1024 L607 1023 L608 1024 L607 1025 Z M639 1019 L644 1031 L646 1048 L647 1049 L647 1059 L648 1060 L648 1077 L649 1078 L649 1094 L648 1095 L649 1176 L648 1177 L647 1176 L647 1169 L646 1168 L645 1154 L644 1153 L644 1141 L643 1140 L643 1054 L642 1053 L641 1036 L638 1024 L638 1020 Z M481 1020 L482 1019 L483 1020 L482 1021 Z M637 1019 L638 1018 L639 1019 L638 1020 Z M633 1018 L634 1019 L634 1025 L633 1026 L631 1053 L630 1054 L629 1081 L628 1082 L628 1103 L627 1104 L627 1119 L626 1120 L625 1177 L624 1178 L624 1186 L622 1191 L621 1204 L619 1210 L618 1235 L617 1236 L617 1241 L615 1245 L613 1239 L613 1219 L614 1218 L615 1201 L616 1200 L618 1182 L619 1181 L619 1170 L620 1169 L621 1155 L622 1154 L624 1127 L622 1133 L622 1141 L621 1142 L619 1168 L618 1169 L618 1178 L617 1179 L617 1185 L615 1193 L613 1188 L613 1178 L614 1177 L615 1158 L616 1157 L618 1135 L619 1134 L620 1120 L621 1119 L625 1056 L626 1055 L626 1048 L627 1047 L629 1030 Z M482 1019 L483 1018 L484 1019 L483 1020 Z M461 1017 L466 1033 L468 1051 L469 1052 L471 1088 L472 1089 L472 1103 L473 1104 L473 1112 L474 1113 L475 1129 L476 1130 L476 1148 L475 1149 L475 1156 L474 1157 L473 1156 L473 1143 L472 1142 L471 1125 L468 1114 L467 1098 L466 1097 L466 1080 L465 1079 L464 1053 L463 1052 L463 1044 L462 1043 L461 1028 L460 1027 L460 1018 Z M455 1017 L456 1018 L456 1023 L452 1036 L451 1052 L450 1053 L450 1066 L449 1067 L448 1129 L447 1130 L447 1143 L446 1144 L446 1158 L445 1159 L444 1177 L443 1178 L443 1194 L442 1195 L443 1199 L443 1218 L442 1219 L442 1227 L441 1228 L441 1247 L440 1248 L439 1265 L438 1266 L437 1278 L436 1279 L436 1310 L435 1311 L435 1317 L433 1324 L433 1337 L432 1338 L431 1347 L428 1350 L427 1346 L429 1340 L429 1324 L430 1323 L430 1316 L431 1315 L431 1283 L432 1282 L432 1274 L435 1261 L435 1237 L436 1236 L436 1226 L437 1225 L437 1217 L438 1216 L438 1206 L437 1205 L437 1201 L438 1200 L438 1181 L439 1180 L442 1131 L443 1130 L444 1067 L445 1066 L445 1055 L446 1054 L446 1047 L447 1046 L448 1036 L451 1024 Z M631 1016 L632 1015 L633 1016 L632 1017 Z M453 1015 L454 1014 L455 1015 L454 1016 Z M632 1015 L635 1013 L639 1015 L638 1016 L633 1016 Z M459 1014 L460 1013 L462 1014 L461 1015 Z M454 1014 L455 1013 L457 1014 L456 1015 Z M456 1013 L457 1012 L460 1013 L459 1014 Z M625 1014 L632 1008 L641 1009 L646 1014 L647 1017 L646 1025 L645 1026 L643 1024 L643 1017 L641 1014 L638 1012 L633 1012 L630 1014 L628 1018 L628 1022 L629 1023 L629 1027 L628 1028 L624 1023 L624 1016 Z M447 1013 L454 1007 L464 1008 L469 1014 L469 1022 L466 1026 L464 1022 L465 1021 L464 1014 L461 1011 L455 1011 L452 1013 L450 1017 L451 1022 L449 1025 L446 1021 Z M652 997 L653 996 L655 997 L654 998 Z M651 996 L652 995 L653 996 L652 997 Z M456 996 L457 995 L458 996 L457 997 Z M677 983 L678 982 L680 983 L679 984 Z M565 974 L566 975 L568 989 L573 1009 L579 1027 L586 1040 L585 1042 L574 1027 L567 1009 L565 995 L564 994 L564 975 Z M547 971 L549 976 L549 983 L550 984 L550 1000 L549 1001 L548 1014 L546 1019 L543 1007 L542 993 L543 992 L544 976 L545 972 Z M526 971 L527 972 L527 994 L526 995 L526 1000 L521 1017 L515 1029 L506 1040 L505 1038 L511 1027 L518 1007 L522 986 L523 985 L523 981 L524 980 L524 976 Z M583 970 L593 997 L602 1015 L607 1022 L606 1024 L598 1016 L588 998 L582 976 L582 971 Z M563 969 L562 971 L562 992 L563 993 L564 1004 L568 1017 L575 1032 L579 1038 L587 1046 L592 1049 L592 1047 L588 1042 L580 1025 L572 999 L568 977 L565 969 Z M546 969 L544 971 L542 979 L541 1001 L542 1002 L542 1010 L543 1011 L544 1019 L547 1022 L550 1013 L552 990 L551 989 L551 979 L548 970 Z M527 969 L525 969 L523 973 L520 992 L512 1020 L507 1030 L507 1032 L498 1048 L503 1046 L513 1035 L517 1029 L524 1014 L528 998 L528 992 L529 991 L529 976 Z M505 968 L506 969 L505 979 L500 995 L495 1005 L484 1019 L483 1017 L491 1003 L498 983 Z M581 967 L580 973 L581 974 L581 980 L582 981 L583 989 L586 998 L592 1010 L597 1017 L610 1030 L615 1033 L617 1033 L611 1026 L602 1012 L594 995 L584 968 Z M729 964 L731 970 L732 984 L734 992 L736 1022 L737 1023 L737 1038 L738 1039 L738 1077 L737 1078 L737 1089 L736 1090 L735 1112 L734 1113 L734 1127 L733 1128 L733 1148 L734 1149 L734 1210 L733 1211 L734 1282 L733 1283 L733 1312 L732 1313 L730 1312 L731 1310 L730 1311 L729 1310 L729 1293 L730 1292 L729 1291 L729 1273 L728 1272 L728 1264 L727 1263 L727 1255 L726 1254 L726 1242 L725 1241 L725 1215 L726 1214 L726 1200 L727 1199 L727 1167 L726 1166 L726 1153 L725 1152 L725 1116 L726 1115 L727 1099 L728 1098 L728 1091 L729 1090 L730 1061 L731 1060 L731 1042 L730 1041 L731 1039 L731 997 L730 996 L730 981 L729 980 L729 972 L728 971 L728 965 Z M507 965 L505 965 L497 981 L490 1001 L482 1017 L475 1027 L475 1029 L491 1014 L497 1005 L501 997 L507 978 Z M602 962 L604 963 L618 988 L626 999 L625 1000 L620 997 L612 989 L607 982 L602 970 L602 966 L601 965 Z M601 961 L600 962 L600 969 L607 985 L619 998 L629 1004 L629 1002 L624 996 L623 992 L616 982 L609 968 L603 961 Z M689 960 L690 959 L691 960 L690 961 Z M728 958 L729 959 L729 963 L728 964 L727 963 L727 959 Z M480 958 L475 961 L467 973 L455 995 L455 999 L459 998 L468 991 L477 980 L483 967 L483 961 L482 960 L482 965 L480 971 L475 980 L462 994 L459 996 L457 995 L465 979 L476 962 Z M623 955 L641 982 L652 995 L651 996 L644 992 L632 979 L623 963 L621 957 Z M727 954 L728 955 L727 958 L726 957 Z M621 955 L622 954 L623 955 L622 956 Z M620 952 L620 958 L622 964 L627 974 L634 984 L643 993 L650 998 L656 1001 L662 1002 L652 993 L642 981 L627 957 L622 952 Z M725 951 L726 950 L727 952 L726 953 Z M723 950 L724 951 L724 956 L727 969 L727 977 L728 978 L729 1036 L727 1042 L727 1054 L726 1055 L726 1062 L725 1063 L725 1071 L724 1072 L724 1078 L723 1079 L723 1085 L722 1086 L722 1092 L721 1093 L720 1106 L718 1114 L718 1125 L715 1135 L714 1148 L712 1155 L711 1154 L711 1119 L712 1118 L712 1107 L715 1103 L716 1083 L717 1082 L717 1069 L718 1068 L720 1020 L721 1019 L721 996 L722 995 L722 951 Z M372 948 L373 949 L374 973 L375 974 L376 1027 L376 1021 L377 1020 L378 1021 L378 1031 L379 1032 L379 1043 L377 1046 L377 1050 L376 1051 L375 1074 L374 1075 L373 1074 L373 1034 L372 1033 L370 981 L369 980 L370 956 Z M722 946 L723 947 L722 951 L721 950 Z M640 946 L641 945 L645 949 L653 960 L668 975 L678 982 L677 983 L672 982 L661 976 L649 964 L645 958 Z M459 946 L457 946 L453 949 L444 962 L431 975 L422 981 L413 985 L414 986 L424 986 L431 984 L442 978 L453 966 L457 960 L460 952 L458 953 L451 966 L442 976 L432 982 L425 984 L421 983 L436 973 L446 962 L452 953 Z M639 944 L640 943 L641 944 L640 945 Z M369 943 L370 944 L370 948 L369 949 L369 956 L368 957 L368 997 L369 998 L370 1027 L371 1028 L371 1147 L370 1148 L370 1169 L369 1170 L369 1197 L370 1198 L370 1221 L371 1222 L371 1263 L370 1264 L370 1272 L369 1273 L369 1306 L367 1313 L368 1314 L364 1316 L363 1315 L364 1314 L365 1301 L366 1300 L366 1288 L365 1287 L366 1238 L365 1237 L365 1220 L364 1219 L364 1202 L363 1201 L363 1015 L362 1014 L362 973 L363 972 L363 965 L364 964 L365 955 Z M369 942 L370 941 L371 943 L370 944 Z M638 941 L638 946 L641 954 L648 965 L656 974 L668 982 L679 986 L686 986 L685 984 L677 980 L669 974 L655 960 L642 943 Z M370 939 L371 938 L372 939 L371 940 Z M718 937 L720 943 L720 1003 L719 1004 L719 1023 L718 1024 L718 1040 L717 1041 L717 1058 L716 1059 L716 1073 L715 1074 L715 1086 L714 1087 L714 1101 L712 1106 L711 1105 L711 1081 L710 1080 L710 1076 L711 1075 L713 1077 L713 1082 L713 1075 L712 1074 L711 1066 L712 1065 L713 1024 L714 1023 L715 969 L716 968 L716 951 L717 950 L717 938 Z M725 935 L728 938 L728 940 L731 945 L735 959 L737 974 L738 975 L738 981 L739 982 L740 999 L741 1000 L741 1011 L742 1012 L742 1025 L743 1026 L743 1074 L744 1075 L744 1084 L745 1085 L746 1112 L747 1113 L747 1125 L748 1126 L748 1137 L749 1138 L749 1176 L750 1177 L751 1197 L752 1198 L752 1217 L753 1218 L755 1235 L759 1249 L759 1255 L760 1256 L760 1285 L763 1294 L757 1300 L756 1299 L755 1288 L754 1287 L754 1285 L755 1284 L756 1285 L756 1257 L747 1219 L747 1199 L746 1198 L746 1190 L745 1189 L744 1177 L743 1176 L742 1110 L741 1111 L740 1130 L739 1131 L739 1163 L740 1164 L740 1170 L741 1171 L743 1187 L744 1188 L744 1197 L745 1198 L745 1240 L746 1241 L746 1247 L748 1253 L748 1259 L749 1260 L751 1277 L752 1278 L752 1286 L753 1287 L753 1293 L755 1301 L755 1306 L754 1307 L751 1299 L749 1282 L747 1277 L746 1268 L741 1249 L740 1231 L739 1230 L739 1201 L738 1200 L738 1193 L736 1186 L735 1123 L736 1122 L736 1110 L737 1109 L737 1098 L738 1097 L738 1087 L739 1086 L739 1072 L740 1071 L740 1045 L739 1044 L739 1029 L738 1028 L738 1017 L737 1016 L735 986 L734 985 L733 972 L732 971 L732 966 L729 956 L729 952 L724 937 Z M723 934 L724 933 L725 935 L724 936 Z M376 933 L378 937 L378 948 L379 949 L380 966 L381 967 L383 1000 L384 1001 L384 1015 L385 1016 L385 1030 L386 1031 L387 1063 L388 1064 L388 1074 L389 1075 L389 1083 L390 1084 L390 1092 L391 1093 L391 1104 L392 1105 L392 1116 L393 1117 L393 1164 L391 1167 L391 1173 L396 1193 L396 1197 L395 1198 L388 1180 L387 1171 L385 1166 L385 1127 L386 1126 L387 1127 L387 1154 L390 1164 L390 1161 L388 1153 L388 1147 L389 1146 L388 1123 L387 1122 L387 1115 L386 1114 L383 1061 L382 1060 L382 1051 L381 1050 L381 1041 L380 1040 L377 979 L376 978 L376 968 L375 967 L375 934 Z M370 933 L371 935 L368 940 L363 956 L362 967 L361 968 L361 976 L360 977 L359 1048 L360 1047 L360 1034 L361 1033 L362 1034 L362 1071 L361 1072 L361 1111 L362 1112 L362 1122 L361 1123 L361 1139 L360 1140 L360 1147 L359 1148 L359 1156 L358 1157 L358 1163 L357 1164 L357 1170 L356 1171 L356 1177 L354 1185 L354 1194 L353 1195 L353 1203 L352 1204 L352 1211 L351 1212 L351 1220 L350 1221 L350 1227 L348 1234 L346 1230 L347 1229 L347 1220 L348 1219 L348 1195 L349 1194 L350 1177 L351 1176 L351 1171 L352 1170 L352 1165 L353 1164 L353 1159 L356 1146 L356 1138 L357 1137 L357 1130 L358 1129 L358 1113 L359 1112 L359 1072 L358 1071 L357 1054 L354 1048 L354 1040 L353 1039 L353 998 L354 997 L355 977 L356 976 L359 956 L363 944 L367 936 Z M370 933 L371 932 L372 933 L371 934 Z M723 931 L724 930 L725 931 L724 932 Z M716 932 L718 930 L722 931 L718 933 Z M696 931 L697 930 L698 931 L697 932 Z M443 934 L435 947 L425 956 L412 961 L405 961 L404 960 L421 951 L441 931 L439 931 L435 934 L417 952 L406 958 L397 960 L397 962 L411 963 L423 959 L429 955 L437 947 L443 937 Z M377 931 L378 930 L379 931 L378 932 Z M368 931 L369 930 L370 931 L369 932 Z M656 930 L657 929 L681 953 L689 959 L686 960 L672 952 L662 942 L658 936 Z M376 930 L377 929 L378 930 L377 931 Z M369 930 L370 929 L372 930 L371 931 Z M371 929 L372 928 L376 928 L377 929 L376 930 L372 930 Z M655 928 L655 933 L658 939 L671 953 L682 960 L691 963 L697 963 L697 962 L687 956 L674 945 L659 929 Z M712 928 L718 924 L725 924 L727 925 L732 931 L733 934 L732 940 L731 941 L728 936 L728 932 L726 929 L719 928 L714 932 L714 939 L715 940 L714 944 L710 939 L710 932 Z M368 923 L377 922 L384 928 L385 930 L385 938 L381 943 L379 940 L381 937 L381 931 L379 928 L375 926 L372 926 L368 928 L366 931 L365 937 L363 939 L362 938 L362 930 Z M428 919 L417 931 L409 935 L405 935 L404 936 L396 936 L395 935 L407 929 L426 916 L423 916 L406 928 L391 935 L391 936 L397 938 L403 938 L413 935 L425 926 L428 922 Z M669 915 L672 914 L676 916 L696 930 L693 931 L679 925 Z M668 914 L669 913 L670 914 L669 915 Z M782 912 L783 911 L784 913 L783 914 Z M666 912 L668 917 L680 927 L694 933 L702 933 L701 931 L680 917 L670 912 Z M674 901 L675 900 L682 900 L696 904 L701 907 L700 908 L690 908 L680 905 Z M422 901 L419 900 L420 902 L417 905 L409 909 L399 910 L398 911 L392 911 L391 910 L397 906 L415 900 L411 900 L402 903 L386 910 L391 912 L407 911 L415 908 Z M671 899 L675 904 L685 908 L689 908 L690 909 L705 909 L706 907 L687 900 L677 899 L676 898 Z M720 885 L721 884 L722 885 L721 886 Z M676 887 L682 884 L697 884 L704 886 L695 889 L681 889 Z M721 884 L722 883 L723 884 L722 885 Z M389 887 L401 883 L413 883 L419 886 L417 888 L409 890 L395 889 Z M370 883 L371 882 L372 883 L371 884 Z M674 887 L676 889 L689 891 L690 890 L701 889 L708 886 L705 884 L701 884 L700 883 L687 882 L686 883 L676 884 Z M386 886 L387 888 L398 891 L411 891 L420 887 L419 884 L414 882 L399 882 Z M369 881 L370 880 L371 882 L370 883 Z M444 875 L445 874 L451 874 L452 875 L486 877 L487 878 L504 878 L505 879 L541 879 L542 880 L555 880 L556 879 L558 880 L559 879 L610 878 L611 877 L625 877 L626 876 L637 876 L638 875 L649 875 L651 874 L652 875 L652 880 L646 893 L641 900 L625 915 L607 925 L592 930 L578 932 L577 933 L569 933 L568 934 L535 934 L534 933 L527 933 L526 932 L516 931 L504 927 L501 927 L479 917 L469 910 L455 896 L447 884 Z M434 875 L436 873 L442 873 L443 874 L442 877 L444 882 L452 895 L463 907 L478 918 L489 924 L499 927 L502 929 L523 934 L538 935 L539 936 L575 935 L576 934 L591 932 L611 925 L625 917 L638 906 L648 893 L653 883 L654 875 L655 874 L660 873 L662 875 L658 890 L648 908 L629 928 L622 933 L605 942 L588 948 L584 948 L573 951 L566 951 L565 952 L537 952 L536 951 L529 951 L528 950 L518 949 L499 943 L488 938 L475 930 L467 924 L448 904 L438 887 Z M676 873 L677 872 L679 873 L678 874 Z M492 872 L493 871 L494 872 L493 873 Z M433 874 L433 878 L435 884 L446 904 L457 917 L474 931 L485 938 L503 946 L520 951 L531 952 L532 953 L541 953 L542 954 L560 954 L561 953 L571 953 L572 952 L582 951 L602 945 L620 936 L637 923 L650 908 L658 894 L663 880 L663 873 L662 872 L629 874 L628 875 L614 875 L613 876 L567 877 L566 878 L502 877 L501 876 L485 876 L484 875 L460 874 L459 873 L450 873 L449 872 L441 872 L440 871 L436 871 Z M430 872 L433 869 L442 869 L443 870 L461 871 L462 872 L488 873 L489 874 L508 874 L509 875 L590 875 L591 874 L611 874 L612 873 L639 872 L640 871 L649 871 L650 870 L663 870 L666 873 L666 880 L660 897 L648 916 L633 931 L620 940 L604 948 L585 954 L568 956 L567 957 L535 957 L534 956 L522 955 L495 947 L476 937 L464 928 L449 913 L441 902 L432 884 L430 878 Z M700 865 L696 868 L685 873 L679 873 L678 872 L682 869 L697 864 Z M397 863 L398 862 L403 863 L416 869 L420 872 L419 873 L411 872 L403 868 Z M673 862 L674 861 L675 862 L674 863 Z M395 862 L396 861 L397 862 L396 863 Z M706 861 L702 861 L685 866 L674 872 L674 874 L675 875 L682 875 L689 873 L700 867 Z M674 861 L675 860 L676 861 L675 862 Z M391 859 L396 865 L409 873 L416 875 L422 874 L422 872 L419 869 L412 865 L402 861 Z M756 851 L761 851 L766 854 L774 862 L780 872 L784 885 L785 900 L788 901 L787 906 L784 912 L782 909 L780 893 L774 877 L765 863 L755 853 Z M620 851 L622 854 L624 862 L624 868 L623 869 L620 864 L620 860 L619 859 L619 852 Z M572 851 L575 858 L575 870 L574 871 L572 868 L572 864 L571 863 L571 852 Z M523 851 L524 852 L524 866 L523 869 L521 870 L520 869 L520 860 Z M596 850 L600 862 L600 869 L599 870 L597 868 L596 860 L595 859 L595 851 Z M547 850 L549 855 L549 869 L547 871 L545 867 L545 857 Z M498 850 L499 851 L499 859 L498 860 L497 868 L495 870 L494 869 L494 861 L495 860 L495 856 Z M472 850 L474 855 L473 856 L472 864 L469 868 L468 867 L468 859 Z M549 850 L550 849 L569 849 L570 850 L570 855 L569 856 L570 867 L573 873 L572 874 L550 874 L549 872 L551 867 L551 857 Z M526 849 L545 849 L546 850 L544 855 L544 868 L546 873 L545 874 L523 874 L522 873 L525 868 L525 863 L526 862 L525 850 Z M576 848 L594 848 L595 849 L593 857 L594 858 L594 863 L598 872 L597 873 L578 873 L577 874 L575 873 L577 870 L577 860 L574 850 Z M501 848 L521 848 L522 849 L519 856 L519 861 L518 862 L518 867 L520 872 L519 873 L497 873 L496 872 L500 862 L500 858 L501 857 L501 852 L500 851 L501 850 L500 849 Z M472 849 L473 848 L474 849 L473 850 Z M692 847 L679 860 L677 861 L675 860 L686 849 L690 846 Z M618 846 L619 847 L617 849 L617 858 L619 866 L622 870 L618 872 L603 872 L602 873 L601 872 L602 870 L601 857 L597 849 L602 847 Z M475 846 L496 847 L497 848 L493 858 L493 863 L492 864 L493 871 L492 872 L481 872 L480 871 L470 871 L469 870 L472 867 L475 858 L475 848 L474 847 Z M691 846 L692 845 L693 846 L692 847 Z M410 846 L412 845 L417 849 L424 857 L425 860 L424 861 L422 860 L413 851 Z M409 845 L410 844 L411 845 L410 846 Z M408 844 L409 843 L410 844 L409 845 Z M696 841 L680 852 L671 862 L671 864 L672 865 L677 863 L686 856 L695 845 Z M405 840 L405 842 L415 856 L421 861 L425 863 L428 863 L426 857 L422 852 L409 841 Z M471 842 L480 839 L485 839 L498 836 L518 835 L519 834 L554 833 L555 834 L575 834 L576 835 L595 836 L596 837 L611 839 L623 843 L615 845 L585 846 L584 847 L515 847 L514 846 L480 845 L479 844 L472 844 Z M337 829 L338 832 L329 847 L325 856 L320 871 L317 891 L316 892 L312 881 L312 877 L315 868 L315 863 L323 843 L327 837 L335 829 Z M328 782 L329 784 L318 801 L309 821 L303 845 L301 841 L299 831 L301 828 L305 811 L312 796 L316 790 L323 783 Z M317 739 L318 741 L316 745 L311 751 L301 770 L295 786 L294 792 L292 795 L289 782 L291 780 L291 777 L293 774 L293 771 L295 768 L296 763 L304 749 L313 740 Z M319 699 L320 701 L313 706 L299 721 L292 732 L285 749 L284 748 L283 736 L296 712 L309 700 L315 698 Z M312 658 L313 659 L312 662 L294 680 L285 694 L281 703 L279 697 L279 691 L289 674 L299 663 L307 658 Z M828 646 L829 645 L830 647 L829 648 Z M790 640 L796 641 L802 644 L817 659 L822 667 L825 675 L828 678 L828 690 L827 691 L820 676 L812 664 L804 655 L789 642 Z M312 611 L313 613 L302 621 L289 635 L278 655 L277 654 L277 639 L281 634 L285 626 L297 614 L306 610 Z M786 609 L791 606 L797 606 L810 612 L822 624 L830 636 L830 644 L828 646 L822 636 L809 622 L797 614 L790 612 Z M296 585 L297 584 L298 586 L297 587 Z M806 583 L807 582 L808 583 L807 584 Z M298 581 L299 582 L298 585 L297 584 Z M805 581 L806 580 L807 581 L806 582 Z M637 579 L638 578 L641 579 L640 580 Z M635 578 L636 577 L638 578 L637 579 Z M461 579 L463 577 L465 578 L463 580 Z M633 577 L634 576 L635 577 L634 578 Z M614 577 L615 576 L616 577 L615 578 Z M464 577 L465 576 L466 577 L465 578 Z M631 576 L632 575 L633 576 L632 577 Z M630 575 L631 574 L632 575 L631 576 Z M628 573 L629 572 L631 574 L629 575 Z M630 572 L631 571 L633 572 L632 573 Z M614 571 L615 572 L614 575 L613 574 Z M612 568 L613 567 L614 569 L613 570 Z M613 567 L614 566 L615 567 L614 568 Z M469 564 L470 565 L470 571 L469 574 L466 577 L463 574 L468 570 L468 565 Z M751 563 L757 571 L760 582 L759 596 L758 597 L758 613 L761 622 L761 635 L760 636 L761 658 L757 671 L757 680 L760 688 L761 696 L760 697 L760 702 L755 715 L756 724 L758 729 L758 743 L752 756 L752 768 L753 769 L754 782 L752 790 L748 799 L749 816 L745 826 L743 828 L743 832 L742 833 L742 852 L740 859 L727 880 L723 884 L722 882 L731 866 L737 849 L736 828 L741 817 L742 808 L743 807 L741 790 L745 777 L744 748 L748 740 L749 731 L750 730 L746 708 L751 692 L751 678 L750 677 L748 663 L753 643 L752 630 L749 621 L749 613 L752 602 L752 588 L749 577 L745 570 L743 569 L747 565 Z M347 562 L353 568 L349 574 L345 589 L345 598 L348 609 L348 621 L345 632 L345 643 L348 654 L348 662 L345 672 L345 689 L349 702 L349 709 L347 716 L347 733 L353 751 L352 773 L353 774 L353 779 L358 792 L357 812 L363 832 L363 855 L370 877 L369 881 L366 877 L366 875 L360 863 L359 859 L359 845 L357 837 L352 826 L352 822 L351 821 L352 801 L347 789 L346 781 L345 780 L345 776 L346 775 L346 757 L340 742 L341 707 L337 694 L337 683 L340 670 L340 661 L338 654 L338 647 L339 646 L338 622 L341 611 L341 601 L339 593 L339 580 L341 572 Z M288 561 L289 560 L290 561 L289 562 Z M289 559 L290 558 L291 559 L290 560 Z M290 557 L291 556 L292 558 L291 559 Z M811 556 L812 555 L813 556 L812 557 Z M314 549 L315 550 L314 554 L302 578 L299 582 L298 578 L301 569 L306 559 Z M787 548 L793 554 L800 565 L806 578 L805 580 L799 572 L800 570 L799 571 L791 560 L786 550 Z M785 548 L786 547 L787 548 L786 549 Z M314 548 L315 547 L316 548 L315 549 Z M784 545 L784 549 L789 559 L812 594 L811 586 L800 562 L794 553 L787 546 Z M317 545 L312 548 L302 564 L295 582 L292 599 L293 599 L315 555 L318 546 Z M790 534 L792 533 L797 536 L805 544 L812 555 L811 556 Z M310 533 L311 534 L308 539 L292 557 L291 555 L298 543 L306 535 Z M285 534 L286 533 L287 534 L286 535 Z M816 533 L817 532 L818 533 L817 534 Z M286 533 L287 532 L288 533 L287 534 Z M815 532 L816 531 L817 532 L816 533 Z M788 531 L788 533 L791 538 L816 564 L818 564 L816 558 L806 543 L798 535 L792 531 Z M312 531 L310 531 L305 534 L297 542 L290 553 L283 570 L285 570 L290 562 L309 540 L313 533 Z M308 520 L297 529 L289 533 L287 532 L296 523 L305 519 Z M793 519 L797 518 L808 523 L816 531 L814 532 L796 522 Z M309 517 L303 518 L294 523 L287 529 L281 537 L281 539 L304 526 L309 521 Z M792 517 L792 520 L795 523 L816 534 L818 536 L822 537 L820 533 L810 523 L799 517 L795 517 L794 516 Z M601 510 L603 512 L607 543 L611 555 L611 572 L614 584 L614 603 L613 604 L614 605 L614 613 L615 614 L616 626 L617 627 L617 651 L619 656 L619 684 L622 695 L621 715 L623 722 L623 749 L625 756 L625 782 L626 783 L626 840 L625 841 L621 840 L621 826 L622 825 L621 824 L621 811 L620 810 L621 794 L620 793 L620 786 L619 785 L619 761 L617 755 L617 738 L618 736 L617 735 L617 728 L615 723 L615 707 L616 704 L615 703 L615 695 L613 690 L613 662 L610 653 L611 631 L608 620 L608 592 L605 579 L606 567 L605 566 L604 552 L601 544 L601 534 L600 533 L600 511 Z M494 510 L495 511 L495 528 L494 529 L494 535 L492 543 L492 553 L488 568 L487 583 L486 584 L487 603 L486 604 L486 609 L483 621 L484 645 L480 662 L481 683 L478 693 L478 717 L475 730 L476 747 L473 759 L474 777 L471 789 L472 806 L470 814 L470 840 L467 841 L465 838 L466 783 L467 782 L467 775 L468 774 L468 749 L470 742 L470 718 L472 713 L472 688 L475 677 L474 655 L477 644 L477 635 L478 634 L477 631 L477 613 L481 597 L481 569 L482 568 L485 551 L487 547 L492 512 Z M621 507 L622 508 L621 512 L620 511 Z M475 504 L476 505 L476 510 L475 511 L474 510 L474 505 Z M282 509 L285 507 L295 504 L305 504 L308 506 L305 509 L300 511 L288 511 Z M795 506 L800 503 L807 503 L819 506 L821 508 L820 509 L801 509 Z M574 503 L577 512 L578 523 L579 524 L579 532 L580 533 L580 557 L579 558 L579 569 L577 577 L575 571 L573 553 L572 552 L572 542 L571 541 L571 517 L572 516 L572 508 Z M622 502 L623 503 L623 507 L622 508 L621 507 L621 503 Z M546 502 L549 511 L550 526 L551 527 L551 569 L550 570 L550 580 L549 581 L549 587 L547 595 L544 585 L544 578 L542 570 L542 560 L541 559 L541 525 L542 524 L542 516 L543 515 L544 505 Z M521 502 L524 515 L524 547 L523 548 L521 571 L519 578 L517 573 L517 565 L516 564 L515 534 L516 533 L517 515 Z M794 504 L795 508 L803 511 L815 511 L825 508 L823 506 L809 502 L797 502 Z M309 505 L304 502 L297 502 L286 505 L280 508 L280 510 L291 513 L299 513 L305 511 L309 507 Z M574 500 L571 504 L571 509 L570 510 L569 537 L570 538 L570 549 L571 550 L572 564 L573 565 L575 580 L577 585 L579 581 L580 569 L581 568 L582 536 L581 535 L581 525 L580 524 L579 512 L576 502 Z M545 500 L541 513 L540 542 L539 546 L540 547 L540 562 L541 563 L541 573 L542 574 L543 587 L544 588 L546 601 L547 601 L551 585 L552 565 L553 564 L553 531 L552 530 L552 520 L551 519 L551 513 L550 512 L549 504 L547 500 Z M522 500 L519 502 L517 507 L516 516 L515 517 L515 524 L514 525 L514 561 L515 562 L516 577 L519 585 L522 574 L524 555 L525 554 L525 545 L526 544 L526 519 L525 518 L524 505 Z M623 497 L624 498 L624 502 L623 503 L622 502 L622 498 Z M474 497 L475 498 L475 503 L474 504 L473 503 L473 498 Z M624 493 L625 494 L624 498 L623 497 Z M797 493 L798 492 L799 493 L798 494 Z M458 492 L459 491 L460 493 L459 494 Z M638 491 L639 490 L640 492 L639 493 Z M751 489 L750 490 L750 497 L749 498 L748 506 L745 515 L738 529 L730 540 L717 553 L709 559 L689 569 L673 573 L651 574 L650 573 L639 572 L633 570 L631 568 L631 564 L636 554 L643 544 L663 524 L678 513 L696 503 L716 495 L719 495 L734 490 L746 489 L747 488 Z M639 489 L640 488 L641 490 L640 491 Z M355 489 L356 488 L366 489 L367 490 L380 492 L395 497 L412 505 L426 514 L436 522 L453 541 L459 550 L465 562 L467 569 L463 572 L452 575 L431 575 L410 569 L393 559 L378 545 L368 531 L362 519 L358 507 Z M285 487 L286 486 L290 487 L293 489 L301 491 L305 494 L304 495 L299 495 L293 493 Z M819 486 L814 490 L807 493 L800 494 L798 492 L809 487 L812 487 L816 485 Z M283 486 L284 485 L285 486 L284 487 Z M818 485 L819 484 L821 485 L820 486 Z M470 483 L471 484 L471 497 L472 498 L473 511 L476 521 L478 522 L478 508 L477 507 L476 496 L472 483 Z M627 482 L626 482 L622 493 L619 506 L619 511 L618 512 L618 521 L617 522 L619 522 L623 512 L626 499 L626 494 L627 493 Z M279 482 L280 485 L284 489 L294 495 L302 497 L307 495 L303 490 Z M826 481 L799 489 L795 494 L797 495 L809 494 L821 487 Z M800 479 L801 478 L802 479 L801 480 Z M455 478 L459 488 L458 492 L454 482 Z M440 478 L441 477 L442 478 L441 479 Z M454 474 L455 475 L454 479 L453 478 Z M439 475 L440 474 L441 476 L440 477 Z M646 473 L647 476 L641 489 L640 486 Z M660 471 L661 470 L662 471 L661 472 Z M646 471 L647 470 L648 472 L647 473 Z M661 469 L662 468 L663 470 L662 471 Z M286 469 L287 468 L303 481 L301 482 L296 480 Z M285 468 L286 467 L287 468 L286 469 Z M284 467 L285 466 L286 467 L285 468 Z M283 466 L284 465 L285 466 L284 467 Z M820 464 L809 476 L804 479 L801 478 L802 476 L819 463 Z M436 463 L440 472 L439 475 L435 466 Z M422 464 L423 463 L424 464 L423 465 Z M311 464 L312 463 L321 468 L335 472 L353 474 L374 479 L396 487 L420 500 L432 509 L453 531 L461 543 L469 561 L469 564 L468 565 L467 564 L467 562 L461 550 L449 533 L435 519 L426 512 L410 502 L389 493 L365 487 L355 487 L354 488 L354 498 L360 519 L369 536 L375 544 L388 557 L399 565 L413 572 L427 576 L450 577 L461 574 L464 575 L459 578 L446 581 L421 580 L397 573 L376 562 L363 552 L351 540 L338 522 L326 497 L318 471 L317 472 L318 473 L318 477 L323 494 L330 509 L330 511 L336 522 L350 541 L367 557 L391 572 L418 581 L439 583 L440 582 L450 582 L459 579 L462 580 L457 583 L446 586 L430 587 L429 586 L414 585 L402 582 L389 577 L376 570 L363 561 L348 546 L334 526 L323 503 L316 481 L314 470 L311 466 Z M819 463 L820 462 L821 463 L820 464 Z M450 463 L450 470 L451 471 L453 484 L459 498 L463 503 L459 483 L452 465 Z M310 463 L311 462 L312 463 L311 464 Z M434 462 L435 461 L436 463 L435 464 Z M788 461 L782 490 L772 516 L757 539 L737 559 L725 567 L709 575 L686 582 L673 583 L672 584 L657 584 L656 583 L644 582 L640 580 L641 579 L645 579 L653 581 L670 581 L671 580 L678 580 L679 579 L684 579 L706 572 L720 565 L735 555 L752 539 L766 520 L776 499 L781 483 L783 469 L782 469 L781 478 L775 498 L763 522 L751 538 L740 549 L721 563 L699 573 L686 577 L674 578 L673 579 L650 579 L649 578 L640 577 L632 573 L635 572 L645 575 L671 575 L672 574 L677 574 L696 568 L713 558 L727 546 L736 535 L743 524 L750 506 L750 502 L752 496 L752 488 L750 486 L731 489 L711 495 L692 503 L668 518 L657 527 L640 545 L629 564 L629 568 L631 571 L628 573 L626 570 L626 563 L628 557 L640 537 L657 519 L672 507 L690 496 L716 484 L744 475 L770 469 L780 465 L787 460 Z M433 459 L434 458 L435 459 L434 460 Z M278 459 L283 469 L290 477 L301 484 L305 483 L304 480 L298 474 L289 468 L280 459 Z M653 458 L650 460 L642 476 L635 496 L634 502 L639 497 L646 484 Z M826 456 L818 463 L802 474 L797 480 L797 482 L804 481 L813 475 L822 465 L826 458 Z M669 455 L670 458 L663 469 L662 467 Z M304 455 L304 457 L312 467 L317 490 L324 510 L331 524 L346 546 L362 562 L378 573 L397 582 L423 588 L444 588 L445 587 L450 587 L463 582 L470 575 L471 572 L471 562 L469 556 L459 537 L444 518 L424 501 L400 487 L370 476 L352 473 L351 472 L334 470 L322 466 L318 466 Z M683 454 L684 453 L685 454 L684 455 Z M669 454 L670 453 L671 455 L670 456 Z M684 453 L685 452 L686 453 L685 454 Z M419 452 L423 460 L422 463 L418 455 Z M795 452 L787 458 L786 460 L779 464 L764 469 L738 475 L717 482 L696 491 L668 508 L658 516 L642 532 L635 541 L625 561 L625 565 L624 566 L626 574 L632 579 L645 584 L650 584 L651 585 L678 585 L706 578 L731 565 L745 554 L754 545 L762 535 L772 519 L783 492 L787 475 L788 464 Z M670 452 L671 451 L672 453 L671 454 Z M404 452 L405 451 L406 452 L405 453 Z M671 450 L672 449 L673 451 L672 452 Z M418 449 L419 450 L418 453 L417 452 Z M672 449 L673 448 L674 449 L673 450 Z M403 449 L404 448 L405 450 L404 451 Z M430 448 L431 458 L435 471 L440 481 L444 486 L446 486 L440 467 L432 451 L432 449 Z M417 446 L418 447 L417 450 L416 449 Z M402 447 L403 446 L404 448 L403 449 Z M415 445 L416 444 L417 445 L416 446 Z M545 440 L551 442 L553 445 L553 450 L549 454 L543 454 L539 449 L540 443 Z M290 441 L291 440 L305 450 L323 458 L368 465 L393 473 L414 483 L435 497 L455 516 L467 532 L474 545 L478 556 L479 566 L480 567 L479 575 L475 583 L467 590 L451 596 L447 596 L446 597 L418 597 L417 596 L403 594 L389 589 L371 580 L361 573 L344 557 L334 544 L326 531 L320 519 L312 497 L304 464 Z M289 440 L290 439 L291 440 L290 441 Z M543 439 L538 444 L538 450 L542 455 L548 456 L554 451 L555 446 L551 440 Z M384 439 L385 438 L386 439 L385 440 Z M383 437 L384 436 L385 438 L384 439 Z M708 436 L709 435 L710 436 L709 437 Z M696 435 L697 437 L686 453 L685 451 L688 445 Z M680 436 L677 438 L667 454 L662 465 L659 469 L655 480 L657 480 L660 477 L669 464 Z M709 435 L710 434 L711 435 L710 436 Z M696 434 L697 433 L698 435 L697 436 Z M812 433 L800 453 L795 466 L790 495 L783 515 L776 529 L769 540 L755 557 L736 573 L730 577 L709 587 L693 592 L683 593 L682 594 L675 594 L674 595 L656 595 L655 594 L639 592 L629 588 L618 578 L616 572 L616 559 L622 544 L639 521 L648 512 L664 499 L683 487 L716 472 L734 466 L769 458 L780 454 L794 446 L802 440 L810 432 Z M697 433 L698 432 L699 433 L698 434 Z M412 433 L413 443 L417 457 L422 467 L427 472 L427 468 L425 464 L424 458 L417 443 L417 441 L414 437 L413 433 Z M397 432 L403 444 L402 447 L400 445 L396 435 Z M811 431 L812 430 L813 432 L812 433 Z M698 431 L699 430 L700 432 L699 433 Z M395 431 L396 430 L397 432 L396 433 Z M699 430 L700 429 L701 430 L700 431 Z M544 429 L552 430 L556 432 L563 440 L564 444 L563 454 L561 458 L557 462 L551 465 L542 465 L535 462 L531 458 L528 451 L528 443 L530 438 L536 432 Z M394 429 L395 428 L396 429 L395 430 Z M363 429 L364 428 L365 429 L364 430 Z M538 429 L531 434 L526 444 L527 454 L530 459 L539 466 L543 467 L553 466 L558 463 L563 458 L566 451 L565 441 L561 434 L554 429 L551 428 L541 428 Z M362 428 L363 427 L364 428 L363 429 Z M361 427 L362 426 L363 427 L362 428 Z M817 425 L815 425 L793 445 L776 454 L763 458 L742 462 L714 471 L691 481 L667 495 L650 508 L631 528 L622 541 L617 551 L614 561 L613 560 L613 555 L611 547 L609 543 L608 529 L607 528 L605 512 L602 506 L600 506 L599 508 L599 512 L598 513 L598 533 L599 534 L599 543 L603 555 L603 562 L604 563 L603 577 L604 578 L605 590 L606 591 L606 619 L609 629 L609 646 L608 647 L608 651 L612 668 L611 689 L614 699 L613 721 L616 731 L615 753 L618 765 L617 782 L619 788 L619 813 L620 814 L620 839 L619 840 L600 835 L586 834 L585 833 L573 833 L572 832 L524 832 L523 833 L500 834 L499 835 L493 835 L492 836 L477 838 L472 840 L471 839 L472 836 L471 835 L471 831 L472 830 L472 812 L474 805 L473 802 L473 788 L474 787 L475 774 L476 773 L475 772 L475 757 L478 746 L477 727 L480 716 L480 692 L483 682 L482 660 L485 649 L485 619 L488 608 L488 582 L489 581 L490 567 L493 558 L494 542 L495 541 L496 526 L497 525 L497 514 L495 506 L493 506 L491 509 L488 522 L488 527 L487 528 L486 542 L481 560 L477 548 L470 534 L461 521 L448 506 L439 498 L422 486 L406 477 L381 467 L357 461 L330 458 L314 453 L297 443 L285 433 L286 438 L298 456 L304 469 L311 499 L319 521 L330 541 L345 560 L345 562 L339 572 L338 581 L337 582 L337 592 L339 599 L339 612 L336 622 L336 633 L337 634 L336 654 L338 659 L338 672 L335 684 L335 693 L340 711 L339 724 L338 725 L338 741 L344 757 L344 762 L345 763 L343 778 L344 779 L344 785 L350 800 L350 816 L349 817 L350 818 L351 829 L357 844 L357 858 L360 868 L365 878 L376 893 L377 892 L372 881 L368 864 L365 857 L365 852 L364 851 L365 833 L359 813 L360 793 L355 780 L355 775 L354 774 L355 752 L353 744 L350 738 L349 726 L348 725 L351 703 L347 690 L347 682 L346 681 L347 671 L350 661 L349 649 L347 644 L347 631 L350 621 L350 610 L347 599 L347 589 L350 576 L354 570 L357 571 L361 575 L373 583 L387 590 L401 595 L414 598 L420 598 L421 599 L444 599 L445 598 L450 598 L458 596 L467 592 L478 581 L479 582 L479 598 L478 599 L478 604 L475 616 L476 639 L473 650 L473 679 L470 689 L470 714 L468 719 L468 744 L466 750 L466 777 L465 778 L465 802 L464 803 L464 840 L467 844 L473 846 L467 857 L466 861 L466 868 L467 869 L466 870 L457 870 L456 869 L447 869 L446 868 L438 868 L436 867 L432 868 L429 871 L428 877 L433 891 L444 909 L468 933 L480 941 L499 950 L519 956 L529 957 L530 958 L538 958 L539 959 L563 959 L564 958 L572 958 L573 957 L583 956 L603 950 L623 940 L640 927 L653 912 L664 892 L668 879 L667 872 L662 868 L625 871 L624 870 L625 869 L625 858 L621 849 L619 847 L621 845 L625 844 L628 840 L628 785 L626 777 L625 724 L623 718 L623 691 L621 686 L621 659 L618 648 L618 622 L615 609 L615 601 L616 600 L615 578 L616 577 L623 586 L634 592 L650 596 L664 596 L666 597 L667 596 L687 595 L708 589 L726 581 L742 570 L745 573 L750 586 L750 604 L747 614 L747 620 L751 634 L751 645 L747 660 L747 671 L749 677 L749 693 L748 694 L748 698 L745 704 L745 715 L747 720 L748 731 L747 732 L747 737 L742 749 L742 759 L743 760 L744 771 L743 772 L743 778 L740 785 L741 808 L740 809 L739 817 L734 829 L735 850 L728 869 L713 893 L713 895 L729 880 L743 856 L743 852 L744 851 L744 832 L751 816 L750 798 L754 790 L755 782 L756 781 L753 759 L760 742 L760 731 L757 720 L757 714 L762 701 L762 690 L759 681 L759 670 L763 657 L763 647 L762 646 L763 623 L759 610 L759 603 L760 602 L760 595 L761 594 L761 578 L757 568 L752 562 L765 548 L773 537 L785 514 L792 494 L793 486 L795 481 L796 470 L799 459 L811 439 Z M734 421 L735 420 L736 421 L735 422 Z M735 420 L736 419 L737 420 L736 421 Z M707 420 L703 423 L692 437 L680 457 L679 462 L689 452 L702 431 Z M736 419 L737 418 L738 419 L737 420 Z M722 418 L723 420 L711 435 L710 433 Z M737 418 L738 417 L739 418 L738 419 Z M722 418 L723 417 L724 418 L723 419 Z M390 418 L397 442 L401 450 L409 458 L404 442 L392 419 Z M723 417 L724 416 L725 417 L724 418 Z M373 416 L383 432 L384 435 L383 437 L380 434 L372 418 Z M341 417 L342 416 L343 417 L342 418 Z M340 416 L341 415 L342 416 L341 417 Z M371 415 L372 414 L373 416 L372 417 Z M339 415 L340 414 L341 415 L340 416 Z M725 414 L726 413 L727 414 L726 415 Z M370 413 L371 412 L372 413 L371 414 Z M351 409 L360 421 L362 425 L361 427 L352 415 L350 411 Z M349 408 L350 407 L351 409 L350 410 Z M348 407 L349 406 L350 407 L349 408 Z M766 405 L767 404 L768 405 L767 406 Z M347 405 L348 404 L349 405 L348 406 Z M767 404 L768 403 L769 404 L768 405 Z M735 404 L733 404 L717 421 L704 439 L702 444 L705 443 L715 433 L725 420 Z M768 403 L769 402 L771 403 L770 404 Z M346 403 L347 402 L348 403 L347 404 Z M770 402 L771 401 L772 402 L771 403 Z M365 402 L370 418 L381 438 L389 445 L388 440 L379 422 L370 407 Z M316 402 L317 401 L318 402 L317 403 Z M771 401 L772 400 L773 401 L772 402 Z M754 400 L755 401 L752 405 L739 418 L738 416 L742 411 Z M315 401 L316 400 L317 401 L316 402 Z M754 400 L755 399 L756 400 L755 401 Z M314 400 L315 399 L316 400 L315 401 Z M755 399 L756 398 L757 399 L756 400 Z M756 398 L757 397 L758 398 L757 399 Z M757 397 L758 396 L759 397 L758 398 Z M758 396 L759 395 L760 396 L759 397 Z M325 395 L340 413 L339 415 L324 397 Z M323 395 L324 394 L325 395 L324 396 Z M341 394 L343 401 L356 424 L364 432 L368 434 L366 428 L351 405 L344 396 Z M322 394 L323 393 L324 394 L323 395 Z M321 393 L322 392 L323 393 L322 394 Z M796 392 L797 391 L798 392 L797 393 Z M797 391 L798 390 L799 391 L798 392 Z M785 391 L774 401 L772 400 L783 390 Z M798 390 L799 389 L801 390 L800 391 Z M784 390 L785 389 L786 390 L785 391 Z M800 389 L801 388 L802 389 L801 390 Z M785 389 L786 388 L787 389 L786 390 Z M786 388 L787 387 L789 388 L788 389 Z M801 388 L803 386 L805 387 L803 389 Z M788 387 L789 386 L790 387 L789 388 Z M789 386 L790 385 L791 386 L790 387 Z M769 386 L753 398 L740 411 L728 426 L728 428 L734 425 L755 404 Z M298 386 L300 385 L315 399 L313 400 Z M804 386 L806 384 L808 385 L806 387 Z M790 385 L791 384 L792 385 L791 386 Z M297 385 L298 384 L299 385 L298 386 Z M807 384 L808 383 L809 384 L808 385 Z M791 384 L792 383 L793 384 L792 385 Z M296 384 L297 383 L298 384 L297 385 Z M808 383 L809 382 L811 383 L810 384 Z M295 383 L296 382 L297 383 L296 384 Z M810 382 L811 381 L812 382 L811 383 Z M313 382 L320 394 L333 411 L343 421 L347 423 L347 420 L337 406 Z M294 382 L295 381 L296 382 L295 383 Z M811 381 L812 380 L813 381 L812 382 Z M812 380 L813 379 L814 380 L813 381 Z M814 379 L815 378 L816 379 L815 380 Z M801 377 L799 377 L777 393 L759 411 L765 409 L780 398 Z M825 372 L823 372 L798 388 L786 400 L795 396 L807 388 Z M282 372 L288 379 L312 401 L323 409 L325 409 L322 404 L306 388 L284 372 Z M802 318 L803 317 L804 318 L803 319 Z M803 317 L804 316 L805 317 L804 318 Z M803 319 L793 329 L776 341 L768 344 L746 349 L738 353 L727 362 L701 371 L683 381 L672 389 L660 400 L648 409 L634 423 L626 434 L605 469 L596 476 L591 476 L590 475 L591 472 L602 459 L621 427 L630 415 L640 405 L652 396 L673 377 L695 364 L708 359 L720 356 L729 351 L734 346 L748 340 L759 331 L777 312 L778 314 L770 325 L757 339 L778 332 L793 324 L801 318 Z M777 312 L778 311 L779 312 L778 313 Z M778 310 L779 309 L780 311 L779 312 Z M779 309 L780 308 L781 309 L780 310 Z M780 308 L781 307 L782 308 L781 309 Z M809 311 L790 324 L772 333 L765 335 L764 334 L783 309 L786 304 L787 299 L771 317 L751 336 L745 340 L735 344 L725 352 L719 355 L707 359 L704 359 L694 363 L672 376 L639 404 L628 415 L616 432 L608 447 L600 459 L588 474 L589 477 L595 478 L601 475 L608 468 L626 437 L637 422 L648 411 L658 404 L672 391 L698 374 L709 369 L721 366 L731 361 L742 352 L770 345 L777 342 L793 331 L807 317 L809 314 Z M288 299 L293 294 L299 291 L308 291 L313 293 L321 298 L330 307 L342 323 L354 335 L363 341 L407 357 L423 365 L434 372 L454 388 L474 409 L509 454 L512 459 L512 463 L508 464 L504 462 L497 455 L485 437 L471 419 L439 387 L417 372 L392 360 L364 350 L354 344 L341 331 L333 320 L319 306 L313 302 L307 300 L301 300 L296 302 L288 311 L285 317 L282 329 L281 328 L281 317 L284 306 Z M286 299 L281 310 L280 321 L279 322 L281 336 L283 338 L285 322 L291 309 L296 304 L300 302 L308 302 L315 305 L331 320 L344 337 L353 345 L363 351 L391 361 L416 373 L439 389 L469 419 L495 455 L504 464 L506 465 L512 465 L514 462 L513 457 L483 417 L470 402 L453 385 L442 376 L422 363 L408 356 L388 348 L374 344 L361 338 L354 333 L344 323 L332 307 L322 297 L310 290 L306 289 L297 290 L293 292 Z M322 235 L323 234 L324 235 L323 236 Z M455 146 L456 147 L453 150 L433 164 L416 178 L394 200 L381 216 L371 231 L362 248 L357 262 L355 264 L353 262 L353 255 L358 238 L370 216 L380 203 L403 180 L414 171 L436 156 Z M627 145 L638 152 L653 164 L672 183 L691 208 L705 234 L710 248 L710 252 L712 258 L712 270 L711 271 L708 269 L701 251 L697 244 L697 242 L681 213 L659 182 L642 162 L626 146 Z M455 146 L456 145 L458 146 L457 147 Z M664 144 L672 148 L694 164 L710 179 L723 194 L735 211 L742 225 L744 227 L752 249 L751 253 L746 246 L731 219 L715 196 L705 184 L681 160 L663 145 Z M625 145 L626 144 L627 145 L626 146 Z M490 144 L491 145 L471 170 L448 205 L425 249 L425 251 L419 262 L411 282 L406 287 L404 284 L404 276 L405 275 L405 269 L407 261 L416 237 L428 214 L439 197 L460 171 L475 156 Z M457 145 L458 144 L460 145 L459 146 Z M623 144 L624 143 L625 144 L624 145 Z M490 144 L491 143 L492 144 L491 145 Z M459 144 L460 143 L461 144 L460 145 Z M423 144 L388 167 L363 187 L343 208 L324 235 L323 234 L324 228 L329 217 L337 205 L352 188 L361 180 L388 161 L421 143 Z M660 143 L662 142 L664 144 L662 145 Z M622 143 L623 142 L624 143 L623 144 Z M491 143 L492 142 L493 143 L492 144 Z M461 143 L462 142 L463 143 L462 144 Z M422 143 L423 142 L425 143 L424 144 Z M703 141 L716 149 L729 159 L755 185 L778 217 L786 233 L788 239 L787 241 L781 235 L760 204 L741 179 L728 165 L702 142 Z M658 142 L659 141 L661 142 L660 143 Z M492 142 L493 141 L494 142 L493 143 Z M424 142 L425 141 L427 142 L426 143 Z M701 141 L702 140 L703 141 L702 142 Z M657 141 L658 140 L659 141 L658 142 Z M595 140 L611 156 L630 180 L641 198 L649 214 L660 243 L664 260 L665 280 L662 287 L660 285 L653 257 L643 226 L640 221 L635 207 L615 171 L600 149 L594 142 Z M493 141 L494 140 L495 141 L494 142 Z M426 141 L427 140 L429 141 L428 142 Z M358 141 L358 142 L371 146 L379 150 L377 147 L372 144 L368 144 L365 142 Z M699 140 L700 139 L702 140 L701 141 Z M655 140 L656 139 L657 140 L656 141 Z M593 140 L594 139 L595 140 L594 141 Z M428 140 L429 139 L431 140 L430 141 Z M698 139 L699 138 L700 139 L699 140 Z M592 139 L593 138 L594 139 L593 140 Z M430 139 L431 138 L433 139 L432 140 Z M697 138 L698 137 L699 138 L698 139 Z M433 138 L434 137 L435 138 L434 139 Z M695 137 L696 136 L697 137 L696 138 Z M567 136 L573 145 L590 180 L606 225 L606 228 L608 232 L613 252 L615 268 L616 269 L617 294 L615 300 L612 298 L609 289 L590 209 L573 155 L566 139 Z M519 136 L520 139 L513 153 L498 194 L498 197 L494 208 L486 240 L485 249 L483 254 L480 273 L473 299 L469 302 L467 300 L467 274 L468 273 L468 267 L470 260 L470 254 L479 219 L487 196 L496 177 L496 175 L507 154 Z M614 136 L648 171 L672 202 L688 228 L699 250 L707 270 L711 273 L714 269 L714 259 L713 258 L712 249 L706 232 L704 230 L704 228 L696 213 L688 201 L674 183 L654 163 L635 148 L623 140 Z M519 136 L520 135 L521 136 L520 137 Z M565 135 L566 134 L567 136 L566 137 Z M474 135 L447 148 L424 162 L403 178 L385 195 L371 212 L357 236 L353 247 L352 256 L351 257 L351 261 L354 266 L356 266 L358 264 L363 250 L376 226 L395 201 L424 173 L450 153 L474 137 Z M647 134 L647 136 L662 146 L678 159 L707 188 L731 222 L749 254 L753 255 L754 251 L753 250 L752 242 L741 218 L728 198 L713 180 L703 170 L681 152 L665 142 Z M564 134 L565 133 L566 134 L565 135 Z M520 134 L521 133 L522 135 L521 136 Z M502 134 L498 135 L484 146 L458 171 L443 189 L431 206 L415 235 L405 262 L404 270 L403 271 L403 277 L402 278 L404 288 L407 289 L411 285 L418 271 L420 264 L426 253 L426 251 L442 219 L461 187 L475 167 Z M521 133 L522 132 L523 133 L522 134 Z M585 131 L585 133 L601 153 L617 177 L635 211 L650 252 L658 284 L661 288 L663 288 L666 284 L666 278 L667 277 L666 261 L662 244 L650 212 L637 188 L618 162 L594 137 Z M683 128 L684 130 L713 153 L740 180 L754 198 L781 237 L787 243 L789 243 L790 241 L788 234 L779 216 L770 202 L751 178 L736 163 L721 151 L691 131 Z M452 128 L434 135 L402 151 L387 160 L360 179 L345 193 L335 205 L323 226 L321 232 L321 237 L323 238 L327 234 L344 209 L372 181 L386 170 L411 153 L450 131 Z M378 128 L378 129 L385 133 L392 139 L386 132 L380 128 Z M543 125 L544 126 L545 226 L546 227 L546 294 L545 295 L544 308 L543 311 L540 314 L536 307 L536 303 L534 297 L534 290 L533 289 L533 277 L532 276 L532 215 L533 214 L533 196 L534 195 L536 165 L537 164 L537 157 L538 156 L538 149 L539 148 L541 131 Z M528 124 L525 126 L516 137 L500 163 L490 184 L476 223 L476 226 L471 242 L468 262 L467 263 L467 269 L466 270 L465 294 L466 295 L466 301 L469 304 L473 302 L478 288 L482 272 L485 253 L487 248 L487 244 L489 239 L489 235 L495 211 L501 193 L501 190 L516 150 L521 141 L521 139 Z M559 123 L561 131 L570 152 L585 198 L609 295 L611 299 L615 302 L618 298 L618 273 L617 272 L617 266 L616 265 L614 249 L610 233 L608 229 L607 222 L596 190 L593 185 L587 169 L573 142 L564 128 Z M389 119 L404 133 L403 130 L398 124 L391 119 Z M544 117 L543 117 L543 121 L539 135 L535 168 L534 169 L532 201 L531 202 L531 223 L530 224 L530 270 L531 271 L531 285 L532 286 L532 294 L533 295 L534 305 L536 311 L539 315 L543 314 L546 306 L547 279 L548 278 L547 213 L546 212 L546 142 L545 141 L545 120 Z M716 116 L714 116 L708 120 L703 127 L713 118 L716 117 Z M400 110 L414 125 L412 120 L404 112 Z M704 109 L702 109 L696 114 L691 121 L691 124 L694 119 Z M417 101 L426 111 L431 119 L433 120 L426 108 Z M687 99 L680 106 L676 112 L673 120 L675 119 L681 107 L687 101 Z M666 92 L664 92 L658 100 L652 114 L656 110 L660 100 Z M440 92 L447 101 L454 114 L455 114 L455 112 L447 98 L442 92 Z M644 84 L640 87 L636 93 L630 107 L630 110 L633 106 L639 91 Z M480 84 L488 104 L490 106 L490 103 L486 93 L484 91 L482 85 Z M463 83 L465 90 L474 107 L475 107 L474 102 L464 83 Z M612 82 L610 83 L607 90 L603 107 L605 106 L607 101 L609 90 Z M583 80 L582 80 L580 86 L578 104 L580 104 Z M556 78 L555 79 L555 86 L554 87 L554 104 L556 99 L556 87 L557 86 L557 79 Z M525 78 L524 90 L525 91 L525 98 L527 103 L526 78 Z M623 77 L622 77 L619 85 L618 94 Z M496 77 L496 80 L505 104 L506 103 L505 98 L500 87 L499 82 Z M595 73 L593 76 L593 81 L592 82 L592 88 L591 89 L592 92 L595 79 Z M513 72 L516 89 L518 90 L515 77 L515 72 Z M571 70 L568 79 L567 91 L569 90 L570 77 L572 71 Z M544 69 L543 70 L543 77 L542 78 L542 87 L543 88 L541 89 L540 92 L541 104 L542 103 L542 96 L543 95 L542 92 L544 90 Z M523 65 L576 65 L577 66 L589 66 L590 67 L599 67 L600 68 L623 70 L624 71 L635 72 L655 77 L659 77 L688 86 L698 91 L700 91 L724 104 L744 119 L764 139 L784 164 L801 190 L812 211 L825 246 L830 266 L830 271 L831 272 L833 287 L834 288 L834 294 L835 295 L835 304 L836 305 L836 314 L837 315 L837 334 L838 335 L838 363 L837 364 L837 391 L836 392 L835 447 L834 448 L834 482 L833 483 L833 527 L832 528 L832 568 L831 569 L830 632 L829 633 L826 627 L821 620 L814 613 L805 607 L800 605 L789 605 L785 608 L786 612 L801 618 L809 624 L822 639 L829 651 L829 675 L828 676 L817 656 L806 645 L795 639 L789 639 L788 640 L789 645 L796 650 L812 667 L818 676 L827 694 L827 709 L826 710 L825 733 L824 734 L824 741 L823 742 L821 741 L818 731 L806 709 L798 699 L788 690 L783 687 L780 683 L783 681 L791 683 L804 693 L815 709 L823 729 L823 724 L820 716 L810 698 L800 687 L790 681 L780 680 L778 683 L779 686 L793 696 L804 709 L817 733 L818 738 L821 744 L821 747 L823 750 L822 751 L818 784 L816 789 L812 775 L802 754 L792 740 L781 729 L780 726 L782 725 L787 727 L793 731 L800 738 L807 748 L811 756 L817 775 L816 765 L810 750 L802 738 L794 730 L788 726 L783 724 L779 724 L780 730 L791 741 L803 759 L803 761 L809 772 L816 795 L815 796 L811 820 L808 829 L802 809 L796 796 L788 785 L780 777 L773 773 L769 769 L773 767 L778 768 L787 773 L794 780 L802 793 L806 803 L809 817 L809 810 L808 809 L807 801 L799 784 L784 769 L777 766 L770 766 L768 768 L768 771 L779 778 L787 786 L794 796 L799 806 L804 820 L804 823 L806 826 L807 837 L798 869 L794 853 L787 836 L778 823 L766 813 L767 812 L766 813 L765 811 L766 810 L774 811 L781 815 L786 820 L794 834 L798 848 L798 853 L799 856 L800 856 L798 841 L794 830 L790 823 L782 814 L776 810 L767 808 L763 811 L781 829 L792 852 L797 875 L792 888 L791 894 L789 897 L789 900 L788 901 L787 900 L785 882 L782 873 L777 864 L766 852 L760 849 L755 849 L753 851 L754 855 L767 868 L776 885 L780 899 L782 919 L771 943 L771 945 L756 975 L743 997 L742 996 L738 964 L734 948 L732 945 L735 937 L734 931 L731 926 L723 922 L716 923 L710 928 L708 932 L708 939 L710 943 L715 947 L714 951 L714 967 L713 968 L712 1024 L711 1025 L711 1037 L710 1039 L692 1057 L680 1067 L664 1078 L651 1085 L650 1084 L649 1051 L648 1050 L648 1043 L645 1031 L649 1021 L648 1014 L641 1007 L638 1006 L630 1007 L625 1011 L622 1018 L623 1025 L628 1031 L626 1037 L625 1049 L624 1050 L624 1058 L623 1059 L622 1081 L621 1082 L621 1096 L619 1098 L597 1104 L581 1106 L580 1107 L572 1107 L571 1108 L561 1108 L560 1107 L558 1067 L557 1066 L557 1059 L555 1052 L559 1046 L560 1038 L557 1032 L549 1027 L543 1027 L539 1029 L535 1033 L533 1037 L533 1043 L538 1052 L536 1058 L535 1072 L534 1073 L533 1107 L532 1108 L518 1107 L517 1106 L502 1104 L486 1099 L483 1099 L474 1095 L473 1092 L471 1055 L470 1054 L468 1035 L466 1030 L471 1022 L471 1015 L469 1011 L465 1007 L461 1005 L454 1005 L450 1007 L445 1013 L444 1019 L445 1023 L448 1027 L448 1031 L444 1048 L442 1078 L440 1079 L435 1076 L410 1057 L387 1033 L384 983 L383 982 L383 972 L382 971 L381 951 L380 950 L380 946 L383 944 L386 939 L387 932 L384 925 L378 921 L374 920 L369 921 L365 923 L361 928 L360 937 L362 943 L357 956 L355 971 L354 972 L354 978 L352 982 L351 981 L351 979 L348 975 L336 949 L317 897 L320 879 L325 861 L332 845 L340 832 L340 829 L338 827 L332 829 L323 840 L316 855 L311 875 L304 852 L304 845 L311 820 L322 797 L331 784 L330 781 L326 780 L322 782 L312 793 L305 807 L299 828 L293 804 L294 795 L301 774 L308 759 L319 743 L320 740 L317 737 L314 738 L304 747 L299 754 L294 764 L291 775 L289 777 L288 776 L286 757 L285 756 L285 752 L289 742 L298 725 L303 718 L314 707 L318 705 L322 701 L321 698 L313 697 L302 703 L291 717 L285 730 L283 732 L282 731 L281 710 L280 709 L289 690 L299 676 L314 662 L314 657 L309 656 L299 661 L287 674 L280 687 L278 680 L278 658 L284 646 L295 630 L303 622 L313 616 L315 613 L312 609 L309 608 L299 611 L287 621 L283 626 L278 635 L276 631 L276 599 L275 598 L275 558 L274 557 L273 468 L272 467 L271 325 L272 324 L273 299 L274 298 L274 291 L275 290 L277 272 L278 271 L282 250 L290 225 L307 189 L325 161 L349 131 L359 121 L374 109 L385 102 L407 91 L438 80 L476 71 L494 69 L495 68 L502 68 L503 67 L510 67 L511 66 L522 66 Z M513 64 L512 65 L496 66 L495 67 L489 67 L488 68 L467 71 L462 73 L449 75 L423 83 L420 85 L405 90 L385 100 L361 117 L344 134 L334 146 L315 173 L303 193 L294 211 L284 237 L284 240 L277 263 L274 284 L273 285 L272 299 L271 300 L271 310 L270 311 L270 328 L269 329 L269 406 L270 407 L270 458 L271 459 L271 507 L272 508 L272 551 L273 552 L275 657 L276 658 L277 694 L278 695 L278 708 L279 709 L281 739 L282 740 L283 755 L284 756 L284 762 L285 763 L285 769 L286 770 L289 793 L290 794 L293 813 L295 818 L296 827 L299 836 L299 840 L301 844 L302 852 L307 867 L307 870 L310 877 L314 894 L328 934 L337 954 L337 956 L342 965 L342 967 L352 986 L352 999 L351 1000 L352 1044 L351 1045 L351 1058 L350 1059 L350 1070 L349 1071 L349 1121 L348 1122 L346 1150 L345 1151 L345 1158 L344 1159 L342 1181 L341 1182 L341 1190 L340 1191 L339 1225 L333 1251 L332 1282 L329 1294 L329 1299 L331 1300 L333 1298 L336 1298 L339 1303 L348 1296 L350 1298 L352 1298 L353 1296 L352 1286 L351 1285 L351 1254 L355 1238 L355 1232 L356 1231 L358 1211 L359 1210 L359 1199 L361 1191 L362 1192 L362 1216 L363 1217 L363 1232 L364 1233 L364 1275 L363 1276 L364 1303 L361 1316 L362 1318 L368 1317 L373 1322 L375 1321 L376 1322 L380 1322 L381 1321 L382 1322 L383 1321 L388 1322 L390 1319 L393 1320 L397 1316 L400 1318 L402 1318 L403 1316 L400 1305 L401 1273 L400 1272 L400 1265 L398 1257 L398 1246 L399 1245 L399 1235 L400 1234 L400 1225 L397 1216 L398 1194 L393 1178 L394 1159 L395 1158 L395 1125 L394 1124 L394 1110 L393 1109 L393 1099 L392 1098 L392 1089 L391 1088 L391 1079 L390 1078 L389 1059 L388 1058 L388 1039 L389 1038 L417 1065 L442 1082 L442 1089 L441 1090 L441 1111 L442 1112 L441 1113 L441 1133 L440 1134 L439 1159 L438 1160 L437 1183 L436 1184 L436 1218 L435 1219 L434 1237 L433 1238 L433 1262 L431 1269 L430 1286 L429 1287 L430 1311 L429 1312 L428 1324 L427 1325 L427 1341 L425 1347 L425 1352 L426 1353 L430 1350 L433 1355 L439 1354 L441 1359 L443 1359 L445 1357 L450 1358 L455 1355 L458 1357 L461 1352 L465 1355 L466 1353 L466 1346 L469 1341 L473 1342 L475 1341 L475 1337 L473 1333 L473 1327 L472 1326 L472 1305 L473 1304 L473 1293 L474 1292 L473 1291 L474 1290 L473 1289 L473 1275 L474 1274 L474 1264 L475 1263 L476 1225 L477 1224 L478 1211 L479 1210 L478 1194 L477 1193 L476 1183 L475 1182 L475 1175 L474 1174 L475 1164 L476 1163 L476 1155 L477 1154 L477 1145 L478 1144 L478 1133 L477 1132 L477 1123 L476 1122 L475 1105 L474 1104 L474 1098 L475 1097 L491 1103 L503 1106 L520 1108 L521 1109 L529 1109 L533 1111 L531 1165 L530 1166 L530 1176 L529 1177 L527 1207 L526 1208 L527 1230 L528 1231 L528 1240 L529 1242 L528 1243 L528 1248 L527 1249 L524 1271 L523 1272 L523 1280 L522 1281 L522 1289 L521 1290 L520 1302 L519 1303 L516 1323 L515 1324 L516 1359 L513 1370 L513 1375 L517 1374 L520 1370 L521 1373 L525 1376 L526 1380 L528 1380 L530 1378 L538 1380 L541 1379 L546 1380 L547 1377 L552 1373 L554 1375 L556 1375 L557 1374 L556 1370 L557 1363 L559 1361 L564 1362 L564 1357 L562 1351 L562 1344 L561 1343 L562 1317 L561 1316 L561 1306 L560 1305 L560 1298 L561 1297 L563 1281 L564 1280 L564 1254 L563 1253 L562 1232 L561 1231 L562 1196 L561 1195 L561 1124 L560 1123 L560 1111 L561 1110 L577 1109 L578 1108 L584 1108 L585 1107 L600 1105 L619 1099 L620 1100 L619 1123 L618 1124 L615 1153 L614 1154 L614 1160 L612 1168 L612 1195 L613 1196 L614 1204 L613 1205 L612 1219 L611 1220 L611 1236 L612 1237 L612 1245 L613 1246 L613 1263 L612 1264 L612 1274 L611 1275 L610 1290 L608 1296 L608 1302 L607 1303 L605 1322 L604 1323 L604 1330 L603 1331 L603 1344 L604 1345 L604 1358 L605 1359 L607 1359 L609 1357 L611 1358 L612 1361 L616 1363 L616 1371 L622 1369 L627 1374 L627 1377 L629 1379 L634 1373 L637 1372 L638 1373 L642 1373 L645 1370 L649 1371 L651 1368 L652 1360 L656 1356 L661 1357 L661 1345 L660 1344 L661 1317 L660 1316 L660 1310 L659 1309 L659 1303 L657 1295 L657 1287 L656 1286 L655 1256 L654 1255 L654 1249 L651 1236 L651 1227 L652 1226 L652 1218 L653 1217 L653 1202 L650 1189 L650 1180 L651 1179 L651 1156 L650 1155 L650 1142 L649 1141 L650 1087 L665 1079 L684 1066 L700 1052 L710 1041 L711 1042 L710 1064 L709 1065 L706 1101 L705 1102 L705 1109 L704 1110 L704 1117 L703 1118 L703 1131 L702 1132 L702 1146 L703 1147 L703 1157 L704 1158 L704 1167 L705 1168 L705 1180 L697 1212 L695 1225 L693 1230 L693 1236 L698 1241 L698 1248 L694 1263 L694 1275 L695 1277 L698 1276 L699 1277 L699 1282 L696 1285 L696 1287 L700 1289 L699 1291 L700 1294 L702 1294 L704 1292 L706 1292 L708 1294 L708 1297 L711 1299 L710 1303 L711 1310 L715 1308 L719 1312 L720 1315 L728 1312 L729 1314 L734 1317 L737 1313 L740 1313 L742 1318 L744 1319 L746 1316 L746 1313 L750 1309 L756 1310 L757 1308 L757 1304 L756 1303 L760 1298 L765 1299 L765 1295 L762 1286 L762 1279 L761 1278 L762 1258 L761 1257 L761 1251 L760 1250 L759 1241 L755 1226 L755 1220 L754 1219 L754 1202 L753 1201 L753 1189 L752 1188 L752 1180 L751 1179 L751 1142 L750 1141 L750 1128 L749 1127 L749 1116 L748 1115 L748 1098 L747 1097 L747 1087 L746 1086 L746 1076 L745 1075 L745 1028 L744 1027 L743 1001 L757 977 L775 940 L777 933 L788 908 L798 878 L798 875 L802 864 L812 824 L812 820 L813 819 L813 815 L815 810 L817 795 L819 789 L822 765 L823 764 L823 758 L824 757 L826 732 L827 731 L827 721 L828 720 L828 709 L829 708 L830 673 L831 672 L831 644 L832 643 L834 525 L835 524 L835 478 L836 477 L836 443 L837 442 L837 414 L838 413 L839 358 L840 357 L839 317 L838 316 L838 306 L837 305 L835 283 L834 282 L831 262 L827 246 L814 211 L797 180 L777 152 L760 132 L737 111 L724 102 L702 90 L700 90 L685 83 L654 74 L650 74 L634 70 L629 70 L628 69 L623 69 L622 68 L598 66 L597 65 L587 65 L586 64 L572 64 L571 63 Z" fill="#eef3f4" fill-rule="evenodd"/>
</svg>
