<svg xmlns="http://www.w3.org/2000/svg" width="1086" height="1448" viewBox="0 0 1086 1448">
  <title>0118</title>
  <path d="M605 1301 L606 1300 L607 1301 L606 1302 Z M533 1282 L534 1283 L535 1282 L536 1283 L539 1282 L540 1283 L566 1283 L568 1286 L568 1307 L567 1308 L535 1308 L531 1306 L531 1285 Z M602 1279 L603 1281 L603 1298 L604 1299 L604 1301 L602 1303 L589 1305 L588 1306 L582 1306 L581 1307 L572 1307 L571 1308 L570 1307 L570 1290 L569 1289 L569 1283 L570 1282 L586 1281 L598 1278 Z M499 1279 L500 1278 L505 1278 L506 1279 L529 1282 L530 1283 L529 1306 L525 1307 L524 1306 L518 1306 L517 1305 L499 1302 L497 1300 Z M633 1269 L635 1271 L636 1275 L637 1290 L635 1292 L610 1301 L607 1301 L605 1298 L605 1285 L603 1278 L607 1276 L621 1273 L630 1269 Z M471 1269 L474 1269 L487 1274 L490 1274 L496 1276 L498 1278 L497 1280 L497 1287 L496 1288 L496 1300 L495 1301 L491 1299 L484 1298 L481 1296 L478 1296 L465 1290 L466 1289 L469 1271 Z M644 1261 L633 1267 L618 1272 L611 1273 L604 1276 L588 1278 L587 1279 L581 1279 L580 1280 L572 1280 L571 1281 L530 1281 L529 1280 L517 1279 L505 1276 L499 1276 L473 1267 L470 1267 L460 1262 L463 1261 L484 1269 L497 1270 L499 1272 L512 1275 L532 1276 L533 1277 L552 1277 L553 1278 L554 1277 L583 1276 L584 1275 L595 1274 L604 1270 L606 1271 L607 1270 L616 1269 L633 1263 L635 1261 L637 1262 L641 1260 Z M458 1261 L459 1260 L460 1261 L459 1262 Z M643 1260 L644 1259 L646 1260 L645 1261 Z M645 1259 L646 1258 L648 1259 L647 1260 Z M648 1258 L649 1257 L650 1258 L649 1259 Z M443 1258 L445 1257 L467 1267 L469 1269 L467 1273 L466 1281 L463 1290 L439 1279 L436 1276 L437 1270 Z M660 1256 L662 1258 L665 1265 L666 1274 L651 1284 L640 1289 L638 1284 L638 1278 L635 1268 L658 1256 Z M650 1257 L651 1256 L652 1257 L651 1258 Z M652 1256 L653 1255 L654 1256 L653 1257 Z M654 1255 L655 1254 L656 1255 L655 1256 Z M656 1254 L657 1253 L658 1254 L657 1255 Z M657 1253 L658 1252 L660 1253 L659 1254 Z M659 1252 L660 1251 L661 1252 L660 1253 Z M661 1251 L662 1250 L663 1251 L662 1252 Z M569 1251 L568 1255 L568 1272 L566 1275 L562 1275 L561 1276 L538 1276 L537 1275 L533 1275 L531 1273 L531 1252 L532 1251 L547 1251 L548 1252 L566 1251 L567 1250 Z M662 1250 L663 1249 L664 1250 L663 1251 Z M664 1249 L665 1248 L666 1249 L665 1250 Z M539 1249 L540 1248 L559 1248 L560 1249 L559 1250 L540 1250 Z M665 1248 L666 1247 L667 1248 L666 1249 Z M425 1246 L429 1247 L443 1256 L439 1261 L435 1273 L433 1275 L422 1269 L412 1261 Z M604 1245 L603 1268 L600 1271 L592 1272 L591 1273 L585 1273 L584 1274 L578 1274 L577 1275 L570 1275 L569 1274 L570 1272 L570 1254 L571 1253 L570 1251 L571 1250 L582 1249 L602 1244 Z M496 1245 L498 1244 L508 1247 L528 1250 L529 1251 L529 1272 L530 1274 L529 1275 L517 1274 L516 1273 L505 1272 L499 1270 L497 1268 Z M677 1243 L685 1251 L688 1257 L673 1270 L669 1272 L663 1257 L660 1255 Z M635 1235 L636 1236 L635 1259 L632 1262 L617 1267 L605 1269 L604 1265 L605 1264 L606 1244 Z M465 1235 L494 1244 L494 1254 L495 1255 L495 1263 L496 1264 L496 1268 L495 1269 L480 1266 L468 1262 L466 1260 L465 1249 L464 1248 L464 1236 Z M424 1221 L426 1220 L438 1226 L461 1234 L463 1241 L463 1252 L465 1259 L462 1260 L456 1258 L430 1244 L428 1242 Z M677 1219 L678 1220 L677 1221 L674 1239 L669 1244 L658 1251 L646 1257 L637 1260 L636 1257 L637 1256 L637 1247 L638 1246 L638 1235 L662 1226 Z M706 1208 L711 1212 L713 1216 L713 1221 L711 1225 L711 1228 L701 1244 L690 1255 L679 1242 L675 1241 L679 1225 L679 1220 L682 1216 L700 1208 Z M394 1208 L403 1209 L420 1217 L422 1219 L425 1239 L427 1244 L423 1245 L410 1260 L396 1246 L392 1240 L387 1228 L388 1214 Z M369 1218 L370 1215 L375 1209 L382 1206 L392 1206 L393 1207 L387 1212 L385 1217 L385 1227 L390 1240 L397 1250 L406 1259 L432 1277 L458 1290 L482 1299 L485 1299 L492 1302 L508 1306 L513 1306 L519 1308 L526 1308 L527 1309 L537 1309 L538 1310 L567 1310 L568 1309 L578 1309 L579 1308 L586 1308 L587 1307 L597 1306 L613 1301 L616 1301 L637 1293 L661 1280 L688 1260 L700 1248 L710 1234 L713 1228 L715 1217 L713 1211 L708 1207 L709 1206 L718 1206 L726 1210 L728 1212 L731 1219 L731 1228 L729 1235 L721 1249 L698 1273 L680 1287 L650 1305 L648 1305 L646 1307 L644 1307 L635 1312 L620 1318 L617 1318 L614 1320 L596 1325 L586 1326 L585 1327 L578 1327 L577 1328 L567 1328 L566 1329 L546 1329 L545 1328 L535 1328 L534 1327 L518 1325 L487 1316 L484 1314 L471 1310 L455 1302 L453 1302 L415 1281 L394 1265 L377 1247 L369 1230 Z M354 1217 L358 1205 L362 1200 L364 1201 L363 1200 L366 1197 L373 1194 L389 1194 L407 1200 L429 1212 L431 1212 L448 1220 L466 1226 L507 1235 L518 1239 L520 1241 L522 1241 L524 1243 L531 1246 L538 1247 L539 1248 L538 1249 L522 1248 L472 1236 L445 1227 L405 1208 L391 1204 L383 1204 L374 1208 L369 1214 L367 1221 L368 1232 L377 1249 L398 1270 L419 1285 L438 1296 L442 1297 L444 1299 L472 1312 L504 1323 L520 1327 L538 1329 L539 1330 L573 1330 L574 1329 L582 1329 L583 1328 L594 1327 L627 1317 L662 1300 L693 1279 L719 1254 L726 1244 L731 1234 L733 1221 L731 1214 L726 1208 L716 1204 L709 1204 L690 1210 L653 1228 L638 1233 L635 1233 L632 1235 L629 1235 L622 1238 L598 1244 L594 1244 L589 1246 L578 1247 L571 1249 L560 1249 L559 1248 L560 1247 L564 1247 L590 1236 L634 1226 L652 1220 L662 1215 L664 1215 L695 1199 L710 1194 L726 1194 L735 1198 L740 1203 L743 1208 L745 1214 L745 1227 L742 1237 L736 1249 L725 1264 L708 1281 L696 1291 L664 1312 L635 1326 L606 1336 L589 1339 L588 1340 L576 1341 L575 1342 L544 1343 L543 1342 L533 1342 L532 1341 L515 1339 L483 1330 L453 1318 L442 1312 L440 1312 L438 1310 L417 1299 L398 1286 L384 1274 L367 1255 L358 1239 L355 1230 Z M353 1213 L353 1228 L358 1243 L366 1256 L374 1266 L385 1277 L408 1295 L431 1309 L451 1319 L453 1319 L478 1330 L503 1338 L507 1338 L511 1340 L515 1340 L526 1343 L548 1344 L549 1345 L581 1343 L582 1342 L587 1342 L588 1341 L609 1337 L637 1327 L674 1308 L701 1289 L727 1264 L739 1247 L743 1239 L747 1224 L746 1211 L742 1203 L733 1195 L725 1192 L712 1192 L693 1198 L679 1206 L677 1206 L673 1209 L653 1218 L624 1227 L591 1234 L569 1244 L561 1246 L556 1246 L555 1247 L543 1247 L542 1246 L533 1245 L509 1234 L465 1224 L442 1216 L404 1197 L388 1192 L375 1192 L368 1194 L358 1202 Z M524 1177 L522 1179 L522 1188 L521 1189 L521 1231 L522 1235 L523 1235 L522 1211 L523 1210 L523 1181 Z M649 1153 L646 1151 L636 1150 L635 1149 L618 1150 L593 1157 L580 1163 L564 1168 L563 1170 L576 1166 L598 1157 L622 1151 L638 1151 L639 1152 L644 1152 L648 1154 Z M444 1152 L444 1153 L452 1152 L453 1151 L476 1152 L492 1156 L518 1166 L531 1169 L506 1159 L475 1150 L456 1149 Z M495 1016 L505 1026 L514 1039 L521 1056 L523 1064 L523 1069 L525 1074 L524 1062 L521 1054 L521 1051 L514 1036 L506 1025 L499 1018 Z M598 1015 L595 1016 L584 1027 L578 1036 L571 1052 L568 1065 L568 1074 L570 1068 L571 1058 L575 1046 L581 1034 L586 1027 Z M580 950 L571 953 L555 954 L554 955 L528 954 L527 953 L521 953 L513 951 L520 954 L532 955 L533 956 L560 956 L561 955 L572 954 L578 952 Z M786 1135 L786 1134 L775 1143 L764 1149 L750 1152 L749 1151 L738 1150 L722 1143 L713 1137 L702 1127 L696 1120 L679 1093 L669 1081 L660 1073 L644 1064 L644 1050 L639 1035 L632 1024 L623 1015 L618 1012 L611 1003 L595 965 L589 957 L586 955 L590 944 L590 936 L588 929 L584 923 L583 924 L588 934 L588 945 L585 954 L582 959 L586 956 L590 960 L597 972 L602 987 L612 1007 L634 1029 L642 1048 L643 1060 L642 1063 L639 1064 L641 1065 L641 1067 L637 1071 L633 1070 L616 1070 L601 1076 L592 1083 L585 1092 L580 1102 L577 1115 L579 1114 L580 1107 L586 1093 L592 1085 L602 1077 L608 1074 L619 1071 L631 1071 L638 1073 L643 1076 L653 1086 L660 1098 L665 1113 L666 1130 L667 1131 L666 1133 L666 1141 L664 1148 L657 1156 L647 1159 L640 1159 L639 1158 L610 1158 L594 1162 L584 1166 L574 1172 L563 1176 L546 1178 L545 1177 L532 1176 L523 1173 L508 1165 L489 1159 L484 1159 L483 1158 L455 1158 L454 1159 L441 1158 L435 1155 L429 1149 L425 1136 L425 1127 L426 1126 L427 1113 L430 1103 L439 1086 L450 1075 L458 1071 L462 1070 L479 1071 L491 1076 L498 1081 L506 1091 L511 1101 L513 1111 L515 1115 L515 1110 L511 1097 L500 1081 L492 1075 L481 1070 L477 1070 L476 1069 L460 1069 L456 1071 L453 1071 L449 1067 L446 1058 L447 1048 L452 1034 L457 1026 L477 1008 L487 989 L488 984 L495 969 L495 967 L504 954 L500 957 L495 964 L484 992 L476 1007 L469 1014 L465 1016 L457 1024 L452 1031 L448 1039 L445 1050 L445 1061 L447 1065 L445 1067 L441 1068 L431 1074 L415 1089 L405 1104 L395 1122 L382 1137 L371 1145 L363 1149 L351 1152 L342 1152 L323 1147 L311 1141 L297 1132 L298 1134 L317 1146 L333 1152 L337 1152 L338 1153 L355 1153 L367 1149 L377 1143 L390 1131 L418 1088 L433 1074 L447 1067 L453 1072 L445 1077 L440 1082 L431 1096 L425 1114 L424 1128 L421 1131 L419 1138 L411 1150 L401 1159 L387 1165 L376 1166 L375 1167 L362 1167 L361 1168 L347 1169 L348 1170 L372 1169 L373 1168 L386 1167 L395 1164 L405 1158 L413 1150 L420 1139 L420 1137 L423 1132 L424 1133 L424 1141 L429 1152 L435 1157 L442 1160 L464 1160 L465 1159 L485 1160 L498 1163 L521 1174 L538 1179 L558 1179 L571 1175 L572 1176 L571 1177 L571 1184 L572 1185 L572 1234 L573 1235 L574 1234 L574 1193 L573 1192 L573 1179 L571 1175 L596 1163 L609 1160 L617 1160 L618 1159 L639 1160 L640 1161 L652 1160 L658 1157 L664 1151 L667 1144 L668 1136 L669 1135 L676 1148 L686 1158 L697 1164 L714 1168 L751 1170 L751 1169 L747 1168 L722 1167 L721 1166 L707 1165 L699 1163 L687 1157 L676 1146 L670 1135 L670 1133 L668 1131 L668 1121 L667 1120 L666 1110 L660 1094 L652 1082 L639 1072 L643 1065 L652 1069 L666 1080 L677 1093 L695 1121 L707 1134 L719 1143 L733 1150 L744 1153 L757 1153 L761 1152 L776 1144 Z M665 922 L681 921 L687 924 L694 931 L697 937 L698 945 L697 946 L697 951 L694 957 L687 964 L681 967 L677 967 L676 968 L667 967 L661 964 L654 957 L651 950 L652 935 L655 930 L660 925 Z M405 920 L416 920 L426 925 L431 931 L434 940 L434 947 L430 957 L424 963 L414 967 L406 967 L400 965 L390 956 L387 949 L387 938 L390 931 L398 923 Z M669 919 L657 925 L652 931 L649 939 L649 949 L654 960 L661 966 L668 969 L680 969 L690 964 L696 957 L699 950 L699 938 L696 931 L688 923 L679 919 Z M407 918 L398 921 L390 928 L386 935 L385 947 L389 957 L394 963 L404 968 L413 969 L424 965 L430 960 L435 951 L436 940 L432 929 L426 923 L418 919 Z M628 915 L629 914 L630 915 L629 916 Z M629 913 L630 912 L631 913 L630 914 Z M630 912 L631 911 L632 912 L631 913 Z M578 919 L572 915 L562 912 L556 912 L555 911 L541 912 L529 915 L520 919 L507 928 L505 932 L511 926 L525 918 L543 913 L561 913 Z M808 907 L805 906 L804 907 L792 908 L783 912 L774 918 L763 929 L756 938 L735 975 L736 975 L757 939 L763 931 L775 919 L790 910 L796 908 Z M278 905 L289 906 L299 909 L310 916 L325 932 L332 943 L346 970 L349 973 L328 934 L322 926 L312 916 L305 911 L291 905 L284 905 L283 904 Z M844 886 L846 892 L845 898 L842 903 L842 905 L836 913 L835 911 L836 910 L837 902 L840 895 L841 889 Z M239 886 L243 895 L247 911 L246 915 L239 905 L237 899 L237 890 Z M741 881 L739 901 L737 906 L736 915 L727 942 L714 964 L701 977 L690 984 L679 988 L660 989 L652 987 L646 984 L636 975 L631 966 L628 955 L628 940 L631 929 L634 923 L648 908 L665 900 L707 893 L711 891 L724 888 L740 880 Z M743 878 L742 877 L732 883 L712 890 L667 898 L658 901 L644 909 L634 920 L629 930 L626 942 L627 958 L629 965 L634 975 L643 984 L650 988 L662 991 L673 991 L685 988 L697 982 L707 974 L716 964 L722 955 L731 937 L738 914 L738 910 L741 899 L741 893 L742 892 Z M344 877 L345 876 L359 884 L373 889 L421 899 L437 907 L448 918 L452 924 L457 939 L456 959 L449 974 L438 984 L428 988 L421 988 L420 989 L409 988 L399 985 L389 980 L381 974 L369 961 L362 950 L356 937 L351 922 L349 910 L347 905 Z M342 874 L344 897 L345 898 L345 903 L350 924 L356 941 L362 953 L370 965 L386 980 L399 987 L405 989 L409 989 L410 990 L426 990 L436 987 L444 982 L453 971 L459 953 L459 940 L454 924 L448 915 L438 906 L425 899 L409 894 L393 892 L369 886 L366 884 L356 881 L344 874 Z M232 873 L235 876 L239 884 L236 889 L236 901 L248 923 L246 931 L243 937 L243 951 L249 962 L249 973 L248 974 L248 982 L247 983 L245 1003 L243 1009 L241 1027 L239 1034 L239 1040 L238 1041 L236 1066 L235 1067 L234 1089 L229 1101 L225 1104 L217 1107 L214 1104 L211 1098 L211 1015 L212 1014 L212 987 L213 986 L214 943 L215 942 L215 923 L216 922 L216 905 L217 904 L217 884 L219 878 L222 878 Z M750 867 L748 867 L745 870 L730 878 L722 880 L716 883 L713 883 L705 886 L675 890 L656 895 L646 900 L638 906 L638 907 L652 898 L664 894 L678 892 L679 891 L692 890 L693 889 L703 888 L715 885 L729 880 L747 870 L748 871 L747 890 L746 891 L746 897 L745 898 L743 914 L738 932 L729 953 L720 967 L710 978 L696 988 L687 992 L670 996 L656 995 L643 990 L637 986 L630 978 L624 967 L621 956 L621 938 L622 937 L622 933 L627 921 L633 913 L631 911 L632 909 L628 913 L618 934 L615 946 L615 951 L614 952 L614 968 L616 976 L620 985 L626 994 L637 1005 L651 1013 L654 1013 L658 1015 L679 1015 L693 1011 L702 1007 L710 1002 L724 989 L732 977 L730 978 L723 988 L714 997 L699 1007 L689 1011 L676 1014 L662 1014 L661 1013 L653 1012 L638 1004 L627 993 L621 984 L616 971 L616 966 L615 965 L616 947 L619 938 L620 939 L619 949 L620 950 L621 962 L628 978 L636 987 L650 995 L658 997 L675 997 L687 994 L699 988 L710 980 L722 967 L728 958 L736 942 L742 925 L746 908 L748 888 L749 887 L749 878 L750 877 Z M338 866 L349 873 L367 881 L370 881 L385 886 L411 890 L428 895 L444 904 L452 912 L457 919 L463 933 L463 937 L464 938 L464 955 L463 956 L462 964 L458 973 L454 979 L447 986 L439 991 L425 995 L406 994 L388 987 L379 981 L367 969 L358 956 L351 942 L345 925 L341 904 L340 903 L340 898 L339 897 L338 878 L337 877 L337 867 Z M336 863 L335 866 L336 867 L336 886 L337 887 L339 907 L344 928 L346 931 L346 934 L356 956 L365 969 L378 982 L385 987 L397 993 L408 996 L413 996 L414 997 L429 996 L436 994 L447 988 L458 976 L463 965 L466 952 L465 935 L462 926 L454 912 L445 903 L432 895 L410 888 L405 888 L404 887 L394 886 L393 885 L376 882 L359 876 Z M254 858 L260 863 L259 1079 L260 1080 L260 1089 L261 1090 L261 1097 L262 1098 L263 1106 L262 1107 L259 1105 L250 1104 L230 1109 L222 1109 L220 1107 L229 1103 L234 1094 L235 1078 L237 1070 L236 1068 L237 1067 L238 1055 L239 1054 L238 1052 L239 1051 L242 1025 L243 1024 L243 1019 L244 1018 L244 1013 L245 1012 L245 1007 L248 994 L249 980 L250 979 L250 969 L251 968 L250 960 L246 954 L244 948 L245 936 L250 923 L248 917 L249 916 L248 915 L248 909 L242 887 L239 882 L239 880 L233 871 L243 859 Z M830 856 L835 857 L838 859 L843 866 L849 871 L842 882 L838 892 L838 895 L834 907 L834 913 L836 914 L833 918 L832 922 L837 936 L837 943 L836 947 L830 957 L830 967 L831 968 L833 990 L836 1002 L836 1008 L837 1009 L840 1033 L841 1034 L841 1040 L842 1041 L842 1047 L843 1048 L846 1086 L847 1087 L847 1092 L850 1099 L851 1099 L849 1095 L848 1086 L847 1085 L846 1062 L845 1061 L845 1052 L844 1051 L844 1044 L842 1036 L842 1029 L841 1028 L841 1022 L840 1021 L840 1016 L839 1015 L839 1010 L836 997 L836 991 L834 985 L832 957 L838 947 L838 943 L839 942 L838 932 L835 926 L835 919 L842 908 L847 896 L847 889 L844 884 L844 882 L847 876 L850 873 L852 873 L856 876 L862 877 L864 880 L864 898 L865 899 L866 935 L867 936 L867 960 L868 961 L869 1065 L868 1066 L868 1091 L867 1092 L867 1098 L864 1104 L857 1109 L848 1109 L830 1103 L823 1103 L819 1105 L817 1104 L818 1096 L819 1095 L819 1088 L820 1087 L821 1062 L822 1061 L821 876 L820 875 L820 864 L823 860 L824 861 L823 860 L826 857 Z M244 856 L245 855 L246 856 L245 857 Z M207 837 L208 836 L209 837 L208 838 Z M805 827 L790 844 L779 851 L762 854 L752 857 L748 857 L747 858 L743 858 L742 859 L738 859 L737 860 L733 860 L732 861 L728 861 L719 864 L715 864 L676 876 L681 876 L698 870 L714 866 L718 866 L727 863 L731 863 L746 859 L751 859 L770 854 L779 853 L790 846 L799 837 Z M273 828 L286 843 L296 850 L299 851 L312 851 L319 853 L343 856 L386 866 L418 877 L437 886 L439 886 L449 892 L456 898 L465 910 L471 924 L472 932 L473 933 L473 941 L474 942 L474 954 L473 955 L473 961 L470 969 L470 972 L465 983 L455 997 L447 1004 L439 1009 L430 1012 L414 1013 L413 1012 L402 1011 L388 1006 L376 999 L354 977 L360 986 L370 996 L378 1002 L394 1010 L409 1014 L427 1014 L438 1011 L448 1005 L458 996 L466 984 L473 967 L474 959 L475 958 L475 936 L470 917 L463 904 L456 896 L447 889 L429 880 L381 863 L361 858 L357 858 L352 856 L337 854 L336 853 L323 852 L322 851 L310 850 L309 849 L303 849 L302 850 L298 849 L286 841 L279 834 L274 827 Z M859 815 L860 814 L861 816 L860 817 Z M217 814 L218 813 L219 815 L218 816 Z M850 787 L851 788 L851 793 L855 809 L860 820 L861 825 L867 836 L873 841 L873 858 L871 860 L864 858 L857 851 L850 836 L850 829 L849 828 L849 803 L848 802 L848 789 Z M847 776 L849 778 L849 784 L848 785 L846 778 Z M233 776 L234 779 L233 780 L233 789 L232 790 L230 786 L230 778 Z M850 773 L851 774 L850 778 L849 777 Z M609 764 L605 765 L595 775 L587 792 L585 800 L585 806 L584 807 L584 817 L585 818 L585 825 L586 826 L588 845 L589 846 L589 869 L588 870 L587 879 L583 890 L576 902 L570 909 L577 903 L581 897 L586 887 L590 874 L591 848 L590 847 L590 840 L589 839 L587 820 L586 819 L586 805 L587 804 L587 799 L589 791 L597 775 L603 768 Z M497 763 L508 774 L516 789 L516 792 L518 796 L520 815 L519 816 L519 824 L518 825 L516 843 L515 844 L515 870 L518 883 L524 896 L528 902 L536 909 L525 895 L520 884 L517 872 L516 851 L517 850 L517 842 L518 841 L518 835 L519 834 L520 822 L521 821 L521 804 L520 803 L519 793 L511 776 L503 767 Z M845 760 L847 761 L847 768 L846 769 L844 761 Z M233 757 L235 759 L235 768 L233 774 L230 767 L230 762 Z M844 742 L846 743 L846 747 L847 748 L847 752 L845 757 L843 754 L843 749 L842 748 L842 745 Z M801 739 L799 741 L799 744 L796 752 L788 765 L779 774 L768 782 L754 796 L727 834 L712 848 L694 859 L666 870 L647 880 L636 887 L623 898 L610 907 L599 912 L586 914 L587 915 L596 914 L611 908 L624 899 L637 888 L648 881 L681 865 L686 864 L701 857 L717 846 L734 828 L756 796 L769 783 L779 776 L789 766 L794 759 L799 749 Z M233 738 L238 741 L237 750 L235 756 L232 754 L230 746 L231 745 L231 741 Z M282 738 L285 750 L292 762 L306 776 L326 793 L351 827 L365 841 L378 850 L392 857 L425 867 L452 879 L471 892 L485 904 L495 910 L508 914 L516 914 L504 912 L492 907 L483 901 L461 883 L437 870 L424 865 L421 865 L418 863 L408 861 L391 855 L370 843 L353 827 L328 793 L321 786 L307 775 L293 761 L286 749 L284 741 Z M872 736 L873 737 L872 738 L872 836 L871 837 L866 832 L862 820 L862 774 L863 773 L863 761 L864 760 L865 747 L867 741 Z M207 736 L212 744 L213 753 L214 754 L215 790 L216 791 L215 825 L213 831 L209 837 L207 833 L207 742 L206 741 L206 737 Z M753 725 L755 728 L755 753 L754 754 L753 764 L749 777 L742 790 L731 802 L720 810 L625 865 L608 878 L607 877 L608 876 L607 875 L608 874 L608 868 L610 862 L617 850 L624 843 L630 839 L677 799 L708 771 L741 739 Z M331 726 L332 725 L343 738 L361 755 L389 778 L481 844 L490 854 L495 864 L496 873 L497 874 L495 877 L484 868 L474 862 L371 813 L353 801 L341 787 L336 777 L332 765 L331 755 L330 754 L330 744 L329 743 L329 734 Z M844 724 L845 725 L844 727 L846 731 L846 736 L843 742 L841 739 L841 735 L839 729 Z M330 723 L328 728 L328 753 L329 754 L329 759 L332 771 L339 787 L343 793 L354 804 L371 815 L476 865 L484 870 L496 880 L498 880 L498 869 L496 862 L489 850 L479 840 L412 793 L384 772 L360 752 L332 723 Z M754 722 L713 764 L664 808 L625 840 L612 854 L607 865 L606 869 L606 880 L607 881 L625 867 L723 810 L731 804 L742 793 L750 779 L755 763 L756 751 L757 750 L757 731 Z M235 719 L238 720 L241 723 L239 738 L238 739 L232 733 L232 725 Z M841 706 L844 710 L844 721 L839 726 L835 712 Z M240 699 L246 705 L243 718 L241 721 L235 716 L235 706 L236 703 Z M838 687 L841 693 L841 700 L839 705 L835 709 L831 694 L835 688 Z M246 680 L253 687 L247 703 L240 697 L239 693 L240 687 L242 683 Z M832 669 L833 670 L832 671 L833 670 L836 675 L836 685 L830 692 L826 683 L825 677 L829 673 L830 670 Z M253 662 L255 662 L262 671 L254 685 L247 679 L246 675 L247 669 L249 665 Z M823 651 L825 651 L829 655 L831 662 L830 667 L824 676 L816 663 L818 658 Z M265 643 L273 655 L263 669 L256 661 L255 654 L257 649 L262 644 Z M813 635 L816 635 L821 640 L822 643 L822 649 L815 660 L813 659 L805 648 Z M277 627 L283 634 L286 641 L274 653 L267 643 L267 636 L272 629 Z M837 624 L841 627 L844 634 L845 634 L846 631 L849 628 L851 628 L854 632 L854 636 L855 637 L855 645 L853 651 L853 656 L850 662 L852 677 L853 678 L853 685 L852 686 L852 695 L849 702 L848 701 L847 690 L843 673 L837 655 L829 638 L831 630 Z M249 624 L254 629 L256 635 L250 644 L238 669 L233 684 L229 701 L226 692 L226 674 L229 663 L226 651 L226 636 L227 632 L232 627 L239 634 L241 628 L245 624 Z M801 620 L806 621 L811 626 L812 632 L808 640 L804 645 L792 634 Z M292 614 L300 627 L300 629 L290 638 L287 639 L280 627 L280 622 L285 615 Z M836 613 L841 614 L844 617 L845 620 L850 616 L855 617 L859 623 L860 633 L861 634 L860 650 L857 662 L858 692 L857 693 L857 700 L854 713 L851 719 L850 718 L850 710 L849 709 L851 705 L853 697 L853 691 L854 690 L854 673 L853 672 L852 661 L856 650 L855 648 L856 647 L856 633 L852 626 L850 626 L844 630 L841 624 L836 623 L830 628 L827 634 L824 628 L829 619 Z M249 612 L253 614 L257 618 L262 627 L258 632 L256 631 L251 623 L245 622 L242 624 L238 631 L234 626 L230 626 L227 629 L225 634 L224 647 L225 648 L226 657 L228 661 L225 671 L225 693 L229 707 L228 708 L228 712 L226 715 L224 711 L222 697 L221 696 L222 659 L220 654 L220 632 L223 622 L227 617 L234 616 L238 619 L244 613 Z M788 607 L792 607 L796 609 L800 616 L797 624 L791 633 L779 622 Z M305 601 L309 604 L316 618 L304 627 L302 627 L300 625 L294 614 L295 607 L300 602 Z M524 600 L584 601 L585 602 L605 603 L606 604 L613 604 L614 605 L646 609 L647 610 L674 615 L678 617 L685 618 L692 621 L704 624 L707 626 L717 629 L724 633 L726 633 L746 644 L767 660 L777 670 L788 684 L798 702 L806 723 L810 739 L813 764 L814 765 L815 791 L816 792 L816 851 L818 859 L818 935 L819 936 L819 981 L820 982 L820 1062 L819 1063 L819 1078 L818 1079 L818 1088 L817 1089 L817 1095 L816 1096 L816 1102 L812 1119 L812 1124 L810 1129 L810 1133 L807 1142 L804 1158 L802 1162 L797 1183 L782 1225 L761 1269 L749 1290 L734 1313 L705 1350 L679 1376 L651 1397 L630 1408 L620 1412 L599 1418 L594 1418 L587 1420 L579 1420 L578 1421 L562 1421 L561 1422 L532 1422 L531 1421 L505 1420 L504 1419 L499 1419 L498 1418 L485 1416 L460 1407 L439 1396 L416 1380 L405 1371 L374 1339 L354 1313 L332 1279 L318 1252 L316 1250 L298 1212 L290 1192 L289 1187 L285 1179 L275 1148 L264 1104 L262 1080 L261 1079 L261 947 L262 946 L263 778 L264 777 L264 767 L265 766 L266 753 L267 752 L270 735 L275 719 L283 701 L293 685 L301 675 L317 660 L337 646 L368 631 L397 621 L437 611 L442 611 L443 610 L465 607 L466 606 L479 605 L480 604 L496 603 L497 602 L508 602 L509 601 L523 601 Z M774 595 L779 595 L783 597 L786 601 L786 607 L780 618 L777 621 L765 612 Z M316 591 L322 591 L325 594 L331 608 L330 611 L321 615 L319 617 L316 615 L310 603 L310 597 Z M257 735 L261 719 L270 695 L276 684 L288 667 L303 652 L322 638 L345 625 L347 625 L356 620 L376 612 L401 604 L429 597 L433 597 L438 595 L466 591 L467 590 L492 588 L493 587 L504 587 L505 586 L522 586 L523 585 L588 586 L589 587 L600 587 L601 588 L628 590 L629 591 L635 591 L636 592 L664 596 L669 598 L673 598 L693 603 L700 606 L712 609 L734 619 L736 619 L747 625 L773 643 L791 661 L802 676 L810 691 L813 701 L815 704 L821 728 L823 746 L824 747 L824 754 L825 755 L826 777 L827 778 L828 832 L829 833 L830 844 L835 854 L834 855 L824 856 L821 859 L819 858 L819 852 L818 851 L818 792 L817 791 L816 764 L815 763 L813 744 L808 723 L803 709 L797 696 L787 680 L780 671 L766 657 L756 649 L739 638 L706 623 L664 611 L660 611 L644 607 L639 607 L638 606 L633 606 L632 605 L619 604 L618 603 L593 601 L592 600 L581 600 L580 599 L561 599 L560 598 L530 598 L529 599 L513 599 L512 600 L482 602 L481 603 L475 603 L474 604 L468 604 L467 605 L461 605 L460 606 L439 609 L434 611 L425 612 L405 617 L401 619 L398 619 L385 624 L382 624 L357 634 L329 649 L313 661 L297 677 L291 685 L278 707 L269 731 L267 743 L265 748 L265 753 L263 760 L263 768 L262 769 L262 778 L261 779 L261 860 L260 861 L259 859 L254 856 L246 856 L245 855 L249 845 L250 836 L251 835 L252 776 L253 775 L253 763 L254 762 L254 754 L255 753 Z M761 584 L767 585 L772 590 L771 598 L763 611 L755 607 L750 603 L757 589 L757 587 Z M336 581 L341 584 L348 601 L334 609 L332 607 L326 593 L326 588 L331 582 Z M745 575 L753 576 L757 582 L757 585 L748 602 L746 602 L735 596 L736 591 L739 586 L742 577 Z M354 573 L358 576 L358 579 L364 595 L350 601 L347 596 L342 581 L343 578 L347 574 Z M736 567 L740 571 L741 577 L735 589 L735 591 L732 595 L720 590 L719 588 L724 577 L726 569 L729 567 Z M371 566 L375 570 L377 579 L381 588 L379 590 L374 591 L366 595 L361 583 L359 572 L363 567 Z M873 862 L872 871 L868 875 L864 876 L863 875 L859 875 L851 871 L841 861 L833 847 L831 840 L831 833 L830 832 L830 799 L829 798 L829 781 L828 780 L827 756 L826 755 L823 729 L817 704 L807 681 L798 667 L789 656 L771 639 L747 623 L729 614 L699 603 L696 603 L692 601 L676 597 L672 597 L667 595 L652 593 L646 591 L641 591 L640 590 L618 588 L617 587 L608 587 L607 586 L598 586 L597 585 L562 584 L561 583 L530 583 L529 584 L509 584 L508 585 L497 585 L496 586 L486 586 L485 587 L462 589 L461 590 L450 591 L430 596 L421 597 L398 604 L395 604 L361 616 L332 630 L316 640 L297 655 L285 668 L270 691 L263 707 L257 726 L257 730 L254 741 L253 754 L252 755 L252 764 L251 765 L250 799 L249 800 L250 801 L249 803 L249 838 L244 854 L239 862 L231 871 L225 875 L218 877 L212 876 L208 872 L207 864 L206 863 L207 862 L214 862 L218 860 L224 854 L230 841 L232 833 L233 800 L234 799 L234 790 L235 789 L237 755 L238 754 L242 726 L251 696 L261 675 L268 664 L284 645 L294 636 L316 620 L344 605 L346 605 L353 601 L373 594 L376 592 L401 584 L425 578 L429 578 L434 576 L456 573 L462 571 L487 569 L488 568 L499 568 L500 567 L549 566 L550 565 L551 566 L552 565 L558 565 L559 566 L561 565 L563 566 L588 566 L589 567 L602 567 L603 568 L623 569 L624 570 L639 571 L640 572 L646 572 L652 574 L663 575 L668 577 L685 580 L722 592 L746 603 L772 619 L788 632 L797 641 L810 657 L819 671 L828 691 L832 707 L834 711 L834 715 L839 736 L842 759 L843 760 L845 785 L846 786 L846 797 L847 798 L848 831 L849 832 L850 841 L855 851 L860 857 L867 861 L872 861 Z M713 560 L721 561 L725 568 L717 589 L702 583 L706 575 L709 563 Z M380 561 L382 560 L389 560 L393 564 L394 572 L398 582 L397 584 L385 588 L383 588 L381 586 L380 580 L376 570 L376 566 Z M697 554 L703 555 L708 561 L703 579 L700 583 L688 580 L686 578 L692 557 Z M404 554 L407 555 L410 558 L415 578 L412 580 L400 583 L396 576 L394 560 L397 556 Z M780 560 L784 558 L791 558 L801 564 L803 559 L811 552 L817 553 L820 557 L821 560 L821 572 L818 581 L821 584 L824 592 L824 605 L823 606 L823 610 L818 619 L815 617 L811 611 L792 592 L771 576 L774 567 Z M315 560 L320 566 L323 576 L294 595 L283 604 L269 618 L265 609 L264 600 L265 599 L265 592 L267 586 L273 579 L271 566 L272 565 L272 560 L275 554 L279 551 L285 551 L292 557 L294 562 L296 562 L298 560 L306 557 Z M417 550 L425 550 L428 553 L433 572 L432 575 L421 578 L418 578 L416 576 L412 560 L412 556 Z M681 549 L687 551 L690 555 L689 564 L684 578 L672 576 L669 574 L674 554 L678 550 Z M660 546 L667 546 L672 551 L672 557 L667 575 L652 571 L656 550 Z M434 547 L436 546 L443 546 L447 550 L450 568 L451 569 L450 572 L441 573 L436 575 L434 573 L434 569 L430 555 L430 552 Z M642 543 L649 543 L654 548 L654 555 L650 571 L637 570 L635 568 L637 549 L638 546 Z M455 543 L462 543 L466 547 L468 561 L469 562 L469 568 L468 569 L459 570 L458 571 L453 571 L452 570 L451 560 L449 554 L449 548 Z M776 550 L782 547 L791 547 L799 550 L803 545 L807 542 L815 541 L820 543 L826 550 L829 561 L829 569 L828 570 L827 580 L831 590 L831 605 L827 619 L822 626 L818 621 L821 618 L824 611 L826 603 L826 592 L824 586 L820 580 L823 571 L823 561 L820 554 L813 550 L809 551 L803 556 L800 561 L789 556 L783 557 L779 559 L775 563 L769 575 L763 571 L763 568 L768 558 Z M625 540 L629 540 L633 542 L636 546 L635 559 L632 569 L621 568 L617 566 L618 546 L622 541 Z M471 542 L475 540 L479 540 L482 541 L486 545 L487 563 L488 564 L487 567 L473 568 L472 569 L471 568 L470 560 L469 559 L469 552 L468 551 L468 546 Z M320 550 L327 558 L332 570 L331 572 L325 575 L321 565 L313 557 L303 556 L296 560 L291 553 L284 549 L280 549 L273 554 L270 561 L270 574 L272 578 L267 583 L263 593 L263 607 L268 619 L265 624 L263 625 L257 611 L256 596 L259 584 L264 576 L263 573 L263 563 L265 555 L269 547 L274 542 L278 540 L288 540 L294 544 L298 549 L305 546 L311 546 Z M610 538 L614 540 L617 544 L616 562 L614 567 L599 566 L598 565 L600 543 L604 539 Z M492 539 L498 538 L501 539 L505 543 L505 551 L506 552 L506 565 L505 566 L504 565 L503 566 L493 566 L492 567 L489 566 L488 546 L487 545 Z M588 537 L592 537 L598 542 L597 564 L596 565 L581 565 L580 564 L581 560 L581 543 L584 539 Z M568 537 L575 537 L579 541 L579 563 L578 564 L563 564 L562 563 L563 562 L563 542 Z M531 537 L538 537 L543 543 L543 563 L542 564 L527 564 L526 563 L526 541 Z M513 537 L518 537 L524 542 L524 564 L523 565 L509 565 L508 564 L507 542 Z M549 537 L552 536 L556 537 L561 542 L561 563 L560 564 L545 564 L544 563 L544 542 Z M840 669 L846 693 L848 711 L849 712 L849 722 L850 723 L851 770 L848 776 L847 772 L849 764 L848 760 L846 758 L848 754 L848 746 L847 742 L845 741 L847 736 L847 730 L844 722 L845 721 L845 710 L844 707 L841 704 L842 701 L842 691 L837 685 L838 683 L838 676 L836 671 L832 667 L832 658 L829 652 L824 648 L823 640 L819 635 L813 633 L814 631 L812 624 L808 620 L802 618 L800 611 L796 607 L792 605 L789 605 L787 599 L783 595 L779 593 L775 593 L771 586 L767 583 L763 582 L759 583 L757 578 L753 574 L750 573 L743 574 L740 568 L735 565 L727 566 L722 560 L717 558 L710 560 L706 555 L702 553 L695 553 L692 555 L687 549 L684 548 L679 548 L674 551 L669 545 L666 544 L662 544 L656 547 L649 541 L643 541 L640 542 L637 545 L631 539 L623 539 L618 543 L612 537 L605 537 L599 541 L597 538 L593 536 L586 536 L581 540 L573 535 L566 536 L562 540 L558 536 L555 535 L550 535 L543 540 L542 538 L537 535 L532 535 L529 536 L525 541 L519 536 L512 536 L506 541 L500 537 L493 537 L488 540 L486 543 L485 541 L477 538 L471 540 L467 545 L461 541 L456 541 L453 542 L448 547 L442 544 L436 544 L431 547 L428 551 L424 548 L418 548 L414 550 L410 555 L406 553 L399 553 L392 560 L388 558 L383 558 L380 559 L374 566 L370 564 L366 564 L362 566 L358 570 L357 573 L352 571 L348 572 L342 577 L340 581 L339 580 L331 580 L326 584 L323 590 L322 589 L317 589 L313 591 L310 594 L307 600 L301 600 L297 602 L293 607 L292 610 L293 611 L292 612 L285 613 L280 618 L278 622 L278 625 L272 627 L267 632 L265 636 L265 641 L262 642 L256 647 L254 651 L254 659 L247 665 L245 670 L245 677 L246 678 L241 682 L238 689 L239 698 L234 705 L234 715 L235 718 L231 724 L231 733 L233 737 L229 744 L230 752 L232 755 L229 762 L229 766 L230 767 L230 771 L232 774 L230 776 L229 784 L230 785 L230 791 L232 795 L232 804 L231 805 L232 809 L231 810 L231 829 L230 830 L229 840 L224 851 L219 857 L211 861 L206 859 L206 844 L207 841 L213 835 L215 831 L217 822 L221 815 L221 811 L224 803 L224 798 L226 794 L226 740 L227 739 L227 725 L228 724 L228 717 L229 716 L229 709 L231 703 L231 698 L235 682 L240 668 L253 642 L267 623 L289 601 L302 591 L324 577 L343 567 L345 567 L361 559 L393 548 L400 547 L404 545 L420 541 L440 538 L446 536 L451 536 L452 535 L458 535 L466 533 L475 533 L476 532 L486 532 L487 531 L520 530 L521 529 L585 529 L586 530 L618 531 L619 532 L628 532 L629 533 L636 533 L637 534 L644 534 L645 535 L664 537 L665 538 L669 538 L695 544 L731 556 L752 566 L776 581 L792 594 L807 609 L824 632 L831 645 Z M423 531 L424 538 L421 540 L398 545 L373 553 L370 555 L362 557 L357 560 L350 562 L341 567 L339 565 L338 552 L340 545 L343 540 L348 535 L359 530 L358 527 L359 515 L363 508 L367 505 L376 504 L382 507 L386 512 L389 520 L399 517 L411 518 L421 527 Z M682 524 L687 519 L693 516 L703 516 L710 519 L714 509 L720 503 L728 502 L732 504 L736 509 L738 514 L738 526 L737 528 L747 533 L751 537 L755 544 L756 559 L754 564 L752 565 L732 555 L704 545 L697 544 L682 539 L678 539 L677 538 L678 537 L678 533 Z M507 528 L509 522 L515 516 L522 513 L527 513 L528 512 L535 513 L538 505 L544 499 L552 496 L557 497 L564 501 L566 503 L570 513 L584 513 L592 517 L597 524 L596 528 L577 528 L576 527 L525 527 L524 528 L509 528 L508 529 Z M432 524 L435 536 L427 538 L425 535 L423 527 L416 519 L407 515 L400 515 L391 518 L389 516 L388 512 L382 505 L376 502 L370 502 L365 504 L359 511 L356 521 L357 528 L355 530 L348 533 L342 539 L338 546 L337 556 L336 557 L338 565 L337 569 L335 570 L333 569 L333 566 L328 557 L329 547 L331 541 L335 534 L342 527 L348 524 L349 515 L353 505 L360 497 L369 493 L378 493 L385 496 L392 502 L395 508 L403 506 L414 507 L423 512 Z M673 518 L680 510 L687 506 L698 505 L704 507 L707 501 L714 494 L721 491 L732 492 L736 494 L744 503 L747 511 L747 522 L755 527 L761 534 L764 540 L766 548 L766 560 L760 569 L755 566 L758 555 L756 543 L753 537 L748 532 L739 527 L740 525 L740 516 L738 509 L732 502 L728 500 L723 500 L716 504 L712 509 L710 515 L708 517 L701 514 L694 514 L687 517 L679 526 L675 538 L667 536 L667 533 Z M496 528 L499 519 L507 510 L519 505 L529 505 L530 501 L537 493 L547 488 L558 488 L564 490 L573 498 L577 505 L587 505 L595 508 L603 515 L608 526 L607 529 L602 529 L601 528 L600 529 L598 522 L592 515 L584 511 L572 511 L570 509 L570 507 L567 502 L563 498 L557 495 L549 495 L544 497 L539 501 L534 511 L527 510 L519 512 L509 519 L506 524 L506 527 L504 529 L503 528 L502 529 L497 529 Z M618 469 L629 474 L638 480 L647 488 L654 497 L660 510 L662 518 L662 524 L663 525 L663 535 L662 536 L656 534 L626 531 L625 530 L624 497 L623 496 L623 491 L620 478 L617 470 Z M487 469 L488 471 L484 481 L484 485 L481 496 L480 530 L479 531 L462 532 L461 533 L455 533 L454 534 L442 535 L441 536 L440 535 L440 523 L441 522 L442 514 L444 508 L452 494 L466 480 L472 476 Z M355 461 L343 465 L328 474 L315 488 L307 503 L305 510 L297 508 L288 509 L282 511 L272 517 L260 529 L254 538 L248 550 L246 557 L245 558 L240 550 L238 537 L237 536 L240 516 L242 510 L252 492 L265 479 L272 474 L288 466 L311 459 L321 458 L322 457 L345 457 L346 458 L348 457 Z M605 456 L614 466 L621 488 L621 493 L623 500 L623 510 L624 511 L624 523 L622 530 L618 530 L617 529 L618 528 L617 498 L616 497 L616 492 L613 479 L609 467 L604 458 Z M343 455 L344 454 L345 455 L344 456 Z M516 498 L521 479 L528 466 L537 457 L545 453 L557 452 L558 453 L562 453 L568 456 L579 467 L583 474 L587 486 L588 495 L589 496 L589 503 L588 504 L587 503 L578 503 L575 498 L567 490 L558 486 L547 486 L540 489 L531 497 L527 503 L518 503 L517 504 L516 503 Z M742 459 L754 452 L759 447 L781 447 L782 448 L797 450 L811 455 L821 460 L832 468 L845 484 L853 504 L854 515 L855 516 L855 530 L854 531 L853 542 L849 551 L847 553 L845 552 L843 544 L838 533 L830 521 L824 515 L814 509 L806 507 L799 507 L793 509 L787 493 L782 485 L772 474 L762 467 L751 462 L744 461 Z M509 497 L515 475 L525 459 L531 453 L537 449 L550 445 L558 445 L568 448 L574 452 L583 461 L587 467 L593 481 L595 489 L595 494 L596 495 L597 506 L596 507 L591 504 L589 486 L586 477 L579 464 L568 454 L557 450 L545 451 L537 455 L532 459 L524 469 L519 479 L515 493 L514 504 L510 507 L509 506 Z M339 444 L341 450 L344 454 L343 455 L317 456 L291 463 L269 474 L254 487 L245 500 L245 502 L239 514 L237 522 L237 528 L236 529 L237 545 L241 555 L245 560 L243 568 L240 570 L237 570 L231 562 L228 555 L228 552 L226 548 L226 542 L225 541 L225 529 L226 528 L226 520 L232 500 L235 494 L245 480 L262 466 L286 454 L315 446 L338 445 Z M511 442 L512 441 L513 442 L512 443 Z M510 441 L512 444 L504 453 L498 463 L491 482 L491 486 L489 491 L489 497 L488 498 L488 505 L487 506 L487 527 L488 529 L487 530 L483 530 L482 529 L482 504 L483 503 L483 495 L484 494 L484 489 L487 477 L491 466 L500 456 L502 451 Z M842 440 L843 439 L844 440 L843 441 Z M764 434 L788 435 L801 438 L820 445 L831 451 L839 457 L850 468 L855 475 L861 487 L864 497 L864 501 L866 507 L866 514 L867 515 L867 528 L866 529 L865 543 L861 556 L855 566 L852 569 L850 569 L848 567 L848 562 L846 557 L852 549 L855 539 L855 534 L856 533 L856 512 L851 493 L843 478 L827 462 L808 452 L786 446 L762 445 L761 444 L763 440 L763 435 Z M286 435 L287 434 L288 435 L287 436 Z M346 434 L347 433 L348 434 L347 435 Z M479 433 L480 432 L481 433 L480 434 Z M624 432 L625 431 L626 432 L625 433 Z M480 432 L481 431 L483 432 L482 433 Z M345 429 L346 431 L340 442 L323 443 L322 444 L311 445 L289 451 L262 464 L252 471 L243 480 L237 488 L231 499 L225 517 L225 523 L224 524 L224 545 L226 553 L231 564 L236 571 L227 579 L221 588 L219 586 L215 576 L209 552 L209 523 L210 522 L210 517 L214 501 L221 486 L227 477 L236 467 L247 458 L258 451 L274 443 L290 437 L315 431 L328 430 L329 429 Z M822 429 L823 428 L824 429 L823 430 Z M509 449 L519 439 L526 434 L537 429 L545 427 L562 427 L563 428 L567 428 L583 436 L596 448 L602 457 L609 472 L614 490 L615 501 L616 502 L616 528 L611 530 L610 529 L609 523 L605 515 L598 508 L599 507 L598 506 L598 496 L597 495 L596 485 L592 473 L583 458 L573 449 L565 445 L551 443 L537 447 L531 451 L519 464 L514 473 L509 488 L509 492 L507 498 L507 508 L499 516 L495 525 L495 529 L494 530 L493 529 L490 530 L489 529 L489 504 L490 503 L490 496 L491 495 L492 486 L495 478 L495 475 L500 465 L500 463 Z M623 426 L624 425 L625 426 L624 427 Z M622 425 L623 424 L624 425 L623 426 Z M843 423 L844 424 L844 437 L842 440 L833 434 Z M594 424 L595 423 L596 424 L595 425 Z M621 423 L622 422 L623 423 L622 424 Z M593 423 L594 422 L595 423 L594 424 Z M484 423 L485 422 L486 423 L485 424 Z M620 422 L621 421 L622 422 L621 423 Z M510 440 L521 430 L534 423 L545 420 L561 420 L575 424 L588 432 L599 444 L605 456 L604 457 L602 455 L598 448 L586 436 L572 428 L561 425 L546 425 L545 426 L537 427 L526 432 L513 442 L512 441 L511 442 Z M485 421 L486 420 L487 421 L486 422 Z M619 420 L620 419 L621 420 L620 421 Z M486 420 L487 419 L488 420 L487 421 Z M285 420 L281 423 L273 434 L271 434 L264 427 L260 421 L259 421 L259 424 L271 436 L273 436 L285 422 Z M761 418 L779 418 L780 419 L789 420 L801 423 L808 426 L811 426 L821 431 L823 431 L838 439 L849 447 L861 459 L868 469 L878 492 L880 500 L880 505 L881 506 L881 511 L882 512 L882 543 L881 544 L881 552 L874 578 L868 590 L863 580 L853 570 L862 557 L867 541 L867 536 L868 535 L868 510 L867 509 L867 504 L864 491 L856 474 L852 468 L838 454 L822 444 L797 435 L787 434 L786 433 L777 433 L776 432 L764 432 L760 420 Z M618 419 L619 418 L620 419 L619 420 Z M311 418 L319 428 L318 429 L314 430 L310 429 L310 419 Z M491 418 L492 417 L493 418 L492 419 Z M487 418 L488 417 L489 419 L488 420 Z M617 417 L618 416 L619 418 L618 419 Z M613 417 L614 416 L615 417 L614 418 Z M492 417 L493 416 L494 417 L493 418 Z M612 416 L613 415 L614 416 L613 417 Z M493 416 L494 415 L495 416 L494 417 Z M494 414 L495 413 L496 415 L495 416 Z M555 412 L572 415 L580 419 L583 418 L592 424 L603 434 L613 450 L623 463 L636 469 L651 481 L662 495 L669 512 L670 521 L668 524 L665 534 L664 533 L663 514 L657 499 L650 489 L638 478 L627 471 L618 467 L612 462 L606 455 L604 449 L598 440 L587 429 L583 426 L581 426 L569 420 L561 419 L560 418 L554 418 L553 414 Z M495 413 L496 412 L497 413 L496 414 Z M359 413 L358 413 L358 415 Z M551 411 L552 412 L552 417 L551 418 L541 419 L537 421 L534 421 L527 424 L518 430 L506 442 L496 458 L486 468 L472 474 L461 482 L453 490 L446 500 L441 511 L438 524 L438 533 L437 534 L434 524 L432 521 L433 520 L433 515 L435 511 L435 508 L441 496 L451 483 L467 470 L483 462 L491 452 L498 440 L514 424 L522 419 L527 418 L529 416 L542 413 L548 413 Z M313 407 L326 423 L333 417 L340 408 L340 407 L338 407 L327 421 L320 414 L314 406 Z M818 405 L818 407 L829 422 L843 408 L843 406 L842 406 L830 420 L820 406 Z M258 405 L258 407 L271 422 L274 420 L284 407 L284 405 L283 405 L275 416 L271 419 L260 406 Z M270 404 L271 403 L272 404 L271 405 Z M748 399 L749 398 L750 400 L749 401 Z M591 411 L588 414 L580 417 L568 412 L555 410 L554 407 L555 406 L568 404 L583 398 L591 409 Z M514 411 L523 398 L540 405 L546 405 L552 407 L552 409 L549 411 L537 412 L524 417 L518 415 Z M585 397 L590 393 L593 393 L605 411 L625 431 L623 432 L606 422 L595 412 L590 406 Z M521 397 L516 406 L507 416 L493 427 L484 432 L482 431 L497 416 L513 393 Z M606 392 L608 392 L610 394 L614 408 L618 415 L617 417 L608 403 L605 394 Z M510 392 L511 394 L497 413 L496 411 L502 399 L503 393 L504 392 Z M501 392 L502 393 L499 402 L494 412 L489 418 L488 416 L493 406 L496 394 Z M596 392 L600 391 L603 392 L607 404 L613 414 L612 416 L600 402 L595 394 Z M584 394 L585 391 L589 392 L585 395 Z M516 392 L517 391 L521 391 L522 394 L521 395 Z M817 390 L830 408 L838 400 L844 392 L845 393 L845 410 L844 411 L845 412 L845 416 L844 417 L844 421 L841 422 L832 433 L830 433 L824 427 L818 417 L817 417 L817 419 L823 428 L821 429 L814 425 L815 421 L815 406 L816 405 L816 391 Z M313 391 L313 393 L326 409 L328 408 L340 392 L338 391 L328 405 L326 406 L316 393 Z M607 390 L608 389 L609 390 L608 391 Z M498 390 L499 389 L501 390 L500 391 Z M258 390 L259 394 L270 407 L272 407 L284 391 L283 390 L272 404 L271 403 L270 404 Z M606 389 L607 388 L608 389 L607 390 Z M765 388 L779 405 L793 389 L793 387 L791 388 L786 395 L779 402 L770 392 L767 387 Z M477 390 L476 391 L472 391 L466 393 L449 404 L414 439 L403 457 L402 472 L404 476 L410 481 L413 482 L422 481 L431 476 L436 471 L441 461 L441 454 L438 449 L434 447 L428 447 L423 450 L420 454 L419 457 L419 464 L420 465 L417 466 L414 462 L414 455 L416 451 L421 445 L428 441 L436 440 L442 442 L447 448 L448 460 L445 469 L440 476 L431 484 L422 488 L408 489 L400 486 L394 480 L392 476 L391 463 L394 453 L404 436 L414 424 L439 399 L450 390 L461 384 L465 384 Z M376 385 L377 384 L378 385 L377 386 Z M632 387 L642 383 L645 383 L654 388 L672 404 L673 406 L672 407 L673 406 L689 422 L697 432 L705 445 L709 457 L709 468 L707 474 L700 482 L690 486 L677 485 L668 481 L658 471 L653 460 L653 450 L655 445 L660 440 L664 438 L673 438 L679 441 L685 447 L687 452 L687 458 L682 463 L681 462 L683 456 L678 447 L672 444 L668 444 L661 449 L660 460 L662 466 L669 474 L677 478 L681 479 L689 478 L696 473 L699 467 L698 454 L695 447 L689 438 L678 425 L651 399 L639 392 L631 390 L630 389 Z M377 384 L378 383 L379 384 L378 385 Z M464 382 L468 380 L472 380 L489 385 L496 389 L494 393 L494 396 L492 397 L490 395 L481 392 L474 386 Z M642 381 L629 387 L614 396 L611 393 L610 388 L620 383 L636 379 Z M524 392 L527 390 L530 390 L540 386 L545 382 L553 379 L559 381 L564 385 L573 389 L581 390 L583 396 L565 403 L546 404 L545 403 L536 402 L526 398 L524 396 Z M313 377 L316 383 L325 394 L327 394 L339 379 L339 377 L338 377 L335 382 L326 392 L315 378 Z M258 376 L258 378 L261 383 L271 394 L283 379 L283 377 L282 377 L274 388 L270 391 Z M766 373 L770 380 L779 390 L784 386 L793 375 L792 374 L781 387 L779 388 L768 374 Z M727 372 L728 371 L729 372 L728 373 Z M381 371 L382 372 L381 378 L374 385 L373 387 L375 389 L368 398 L365 394 L365 390 L370 384 L371 385 L370 383 Z M381 371 L382 370 L383 371 L382 372 Z M259 372 L271 382 L279 374 L282 369 L271 380 L266 376 L261 369 L259 369 Z M828 368 L829 367 L830 368 L829 369 Z M826 368 L827 367 L828 369 L827 370 Z M827 367 L828 366 L829 367 L828 368 Z M390 365 L391 367 L384 376 L383 375 L384 369 L388 365 Z M824 365 L827 364 L828 366 L826 368 Z M722 365 L723 364 L724 365 L723 366 Z M825 364 L826 363 L827 364 L826 365 Z M823 364 L824 363 L825 364 L824 365 Z M824 363 L825 362 L826 363 L825 364 Z M313 363 L318 371 L326 380 L328 379 L339 364 L338 363 L326 378 L317 367 L315 363 Z M561 362 L562 361 L563 362 L562 363 Z M726 360 L729 361 L742 375 L742 377 L737 384 L734 381 L734 376 L725 364 Z M718 360 L719 359 L723 359 L724 360 L723 364 L722 365 L720 362 L721 361 L720 362 Z M522 365 L519 369 L515 371 L511 371 L510 370 L511 371 L510 372 L496 373 L480 369 L474 363 L474 359 L475 358 L479 362 L486 365 L501 365 L507 363 L514 357 L519 357 Z M258 355 L258 357 L269 370 L273 369 L282 356 L282 355 L280 355 L270 369 L261 357 Z M561 360 L562 359 L562 355 L565 352 L570 354 L571 356 L570 360 L563 362 Z M534 355 L539 352 L541 353 L545 358 L543 362 L542 361 L535 361 L534 360 Z M314 348 L314 351 L326 366 L339 350 L339 348 L338 348 L326 364 L315 348 Z M582 346 L583 345 L585 346 L584 347 Z M521 346 L522 345 L524 346 L523 347 Z M363 347 L375 364 L377 364 L390 349 L389 348 L376 362 L368 352 L365 346 Z M578 345 L579 344 L580 345 L579 346 Z M524 345 L525 344 L526 345 L525 346 Z M526 344 L527 343 L528 344 L527 345 Z M767 343 L768 347 L779 361 L781 361 L794 345 L794 344 L792 344 L780 359 Z M575 343 L576 342 L577 343 L576 344 Z M528 343 L529 342 L531 343 L530 344 Z M573 342 L574 341 L575 342 L574 343 Z M530 342 L531 341 L532 342 L531 343 Z M572 341 L573 340 L574 341 L573 342 Z M282 341 L283 340 L284 341 L283 342 Z M574 339 L575 338 L576 339 L575 340 Z M640 337 L644 338 L660 355 L696 405 L716 435 L727 456 L729 462 L748 463 L762 469 L769 474 L782 488 L787 497 L792 512 L795 510 L807 509 L814 511 L821 515 L830 524 L839 539 L845 556 L847 570 L853 572 L861 580 L865 587 L868 598 L868 637 L871 642 L872 650 L873 651 L873 733 L867 738 L863 748 L862 765 L861 766 L860 813 L859 814 L855 804 L852 792 L852 733 L851 732 L851 722 L855 714 L859 698 L859 667 L858 663 L860 659 L861 648 L862 647 L862 629 L861 628 L861 624 L858 618 L855 615 L851 614 L846 617 L839 611 L836 611 L833 613 L831 612 L833 604 L833 591 L831 583 L829 580 L831 563 L830 562 L830 556 L826 547 L821 542 L817 540 L809 540 L804 542 L798 548 L793 547 L790 545 L784 545 L774 549 L769 554 L767 549 L766 541 L763 534 L755 525 L749 521 L749 513 L744 500 L739 494 L729 489 L722 489 L714 492 L709 496 L703 505 L697 503 L692 503 L685 505 L680 508 L672 516 L667 501 L656 484 L642 471 L625 462 L619 456 L600 427 L594 422 L593 423 L586 418 L587 416 L590 415 L593 412 L606 424 L617 431 L628 436 L635 437 L620 417 L614 404 L613 399 L616 396 L627 391 L628 392 L638 393 L650 400 L677 426 L691 443 L697 455 L698 467 L693 474 L686 477 L680 477 L672 474 L663 464 L661 457 L663 449 L668 446 L673 446 L679 451 L681 456 L680 463 L678 464 L672 461 L674 464 L678 466 L681 466 L687 462 L689 457 L689 453 L686 446 L679 439 L673 436 L662 437 L655 442 L652 447 L652 451 L651 452 L652 463 L657 473 L664 480 L670 484 L682 488 L694 487 L700 484 L707 477 L711 467 L711 458 L708 448 L703 438 L692 423 L666 396 L658 389 L650 384 L651 383 L656 383 L654 368 L650 356 L644 344 L639 338 Z M573 338 L574 337 L575 338 L574 339 Z M530 338 L531 337 L532 338 L531 339 Z M464 337 L467 340 L464 343 L457 356 L450 376 L450 384 L455 384 L456 385 L450 388 L441 395 L413 423 L412 422 L413 423 L399 440 L393 451 L389 467 L390 468 L390 475 L394 483 L402 489 L409 491 L418 491 L431 486 L443 475 L449 464 L450 452 L448 446 L443 441 L439 439 L432 438 L422 442 L415 449 L412 456 L413 464 L417 468 L423 469 L427 467 L429 465 L429 463 L423 467 L421 466 L420 459 L422 454 L428 449 L435 449 L439 453 L438 465 L435 470 L427 477 L419 480 L414 480 L407 478 L403 471 L404 459 L408 450 L417 438 L448 407 L463 396 L471 393 L481 393 L493 399 L490 409 L484 421 L477 431 L472 436 L473 438 L484 434 L493 429 L504 421 L512 413 L521 418 L511 424 L499 436 L489 452 L480 462 L461 472 L445 487 L434 506 L432 515 L430 518 L423 510 L416 506 L408 504 L398 505 L397 506 L385 494 L377 491 L370 491 L360 495 L353 502 L348 512 L347 522 L342 525 L333 534 L328 544 L327 553 L326 554 L325 552 L317 546 L308 544 L299 547 L294 542 L286 538 L276 539 L269 544 L263 555 L262 564 L261 565 L262 576 L257 584 L255 591 L255 611 L256 613 L255 614 L251 611 L244 611 L238 617 L233 614 L229 614 L223 619 L219 629 L218 651 L221 662 L220 670 L219 671 L219 693 L220 694 L220 700 L221 701 L222 709 L226 718 L225 746 L224 747 L225 790 L219 813 L218 812 L218 800 L217 799 L217 772 L216 771 L215 749 L212 740 L205 732 L205 682 L206 681 L206 654 L207 653 L207 649 L211 641 L215 637 L215 615 L216 614 L216 608 L219 596 L224 586 L235 574 L245 569 L245 565 L248 555 L256 538 L264 527 L271 520 L284 512 L292 510 L299 510 L306 512 L310 500 L312 498 L315 491 L327 477 L337 470 L348 465 L356 463 L361 463 L362 462 L372 463 L375 455 L388 434 L450 351 Z M464 337 L465 336 L466 337 L465 338 Z M572 336 L573 335 L574 337 L573 338 Z M604 335 L605 334 L606 336 L605 337 Z M314 335 L315 338 L326 352 L339 336 L338 335 L326 350 L317 337 Z M452 381 L452 375 L456 362 L464 346 L474 335 L483 331 L490 331 L496 333 L500 340 L503 343 L509 346 L521 346 L522 347 L518 349 L509 349 L505 348 L496 343 L488 342 L478 346 L473 352 L480 346 L486 344 L494 344 L501 348 L511 351 L520 350 L522 348 L524 349 L519 357 L518 356 L512 357 L507 361 L499 364 L484 363 L480 361 L476 357 L476 355 L474 355 L472 362 L474 366 L478 369 L487 373 L498 374 L499 375 L509 374 L520 370 L524 366 L526 368 L532 370 L545 365 L552 369 L552 377 L551 378 L547 379 L534 387 L527 389 L521 389 L520 390 L512 390 L511 389 L499 388 L476 379 L461 379 L454 382 Z M654 380 L652 381 L643 378 L630 378 L621 381 L614 385 L604 388 L581 389 L567 385 L560 380 L553 377 L554 376 L554 369 L561 365 L563 365 L569 369 L577 369 L582 366 L591 372 L601 373 L602 374 L617 373 L627 369 L634 361 L633 355 L631 355 L628 359 L618 363 L603 363 L594 357 L587 356 L587 357 L594 358 L600 363 L606 365 L616 365 L626 362 L631 358 L632 359 L632 362 L626 368 L622 370 L613 371 L612 372 L606 372 L598 368 L597 371 L590 370 L583 364 L585 361 L585 353 L582 349 L584 348 L585 349 L594 350 L595 349 L599 349 L609 344 L620 343 L626 345 L633 351 L626 344 L617 341 L610 342 L597 348 L586 348 L585 347 L586 346 L593 346 L601 343 L612 331 L625 330 L633 334 L642 344 L650 361 Z M822 328 L832 344 L834 344 L846 329 L847 330 L846 363 L843 364 L832 377 L830 376 L827 370 L828 369 L829 370 L830 368 L833 368 L838 364 L839 365 L838 364 L843 359 L843 357 L833 366 L831 366 L826 361 L823 356 L821 356 L822 359 L821 360 L822 359 L825 362 L823 364 L822 362 L820 362 L831 379 L838 373 L845 364 L846 365 L846 385 L845 386 L845 390 L840 394 L831 405 L829 404 L824 397 L820 389 L818 390 L817 389 L817 375 L818 374 L823 383 L830 393 L832 393 L843 380 L844 376 L831 391 L821 375 L818 374 L819 345 L821 342 L830 356 L833 358 L839 352 L840 353 L839 352 L845 344 L843 344 L833 356 L830 353 L824 343 L820 341 L820 331 Z M572 326 L573 327 L573 335 L572 336 L568 331 Z M282 326 L283 327 L283 339 L280 340 L270 355 L258 340 L258 342 L270 357 L271 357 L282 341 L284 343 L284 364 L285 365 L285 385 L286 386 L286 407 L287 408 L287 428 L288 429 L288 433 L285 434 L285 436 L283 438 L269 444 L267 444 L258 434 L259 438 L266 445 L257 450 L256 449 L256 327 L257 326 L262 334 L270 342 Z M572 326 L573 325 L574 326 L573 327 Z M532 325 L537 330 L532 338 L531 337 L532 335 L531 326 Z M337 326 L326 337 L315 327 L315 329 L318 332 L317 333 L318 332 L325 339 L327 339 L335 330 Z M604 324 L609 331 L606 335 L603 326 Z M586 324 L593 325 L596 330 L595 334 L590 338 L587 338 L582 334 L582 328 Z M522 354 L524 350 L530 345 L540 344 L545 346 L541 343 L535 342 L534 340 L538 331 L541 328 L553 324 L563 327 L565 329 L564 330 L565 329 L567 331 L571 340 L570 342 L563 343 L560 347 L565 344 L576 345 L582 351 L583 361 L578 367 L571 368 L566 366 L564 363 L571 361 L573 356 L569 351 L565 351 L559 356 L559 360 L558 361 L560 363 L555 367 L551 367 L546 364 L546 356 L545 354 L541 351 L537 351 L532 355 L532 359 L534 362 L539 362 L540 363 L541 362 L542 364 L535 368 L529 368 L523 363 L522 361 Z M530 325 L531 324 L532 325 L531 326 Z M515 324 L520 325 L523 329 L523 334 L519 338 L513 338 L509 334 L509 329 Z M602 324 L603 323 L604 324 L603 325 Z M268 324 L269 323 L270 324 L269 325 Z M601 323 L602 322 L603 323 L602 324 Z M587 322 L581 326 L580 334 L585 339 L592 339 L597 334 L597 328 L593 323 Z M517 322 L511 324 L507 329 L508 336 L514 340 L518 340 L522 338 L525 333 L524 327 L520 323 Z M768 322 L781 334 L787 327 L788 328 L787 327 L792 321 L781 331 L779 331 L769 321 Z M542 325 L544 322 L551 319 L555 319 L561 321 L563 324 L562 325 L560 324 L547 324 L543 326 Z M504 322 L506 323 L512 319 L522 319 L524 320 L530 327 L530 335 L528 339 L525 342 L519 345 L512 345 L505 342 L500 337 L498 333 L501 325 Z M584 318 L595 319 L602 326 L603 329 L602 337 L595 344 L584 344 L575 335 L574 332 L575 326 L578 322 Z M277 318 L282 324 L277 329 L271 339 L269 340 L259 326 L257 325 L257 323 L260 319 L261 321 L262 319 L269 328 Z M260 319 L261 318 L262 319 L261 320 Z M366 317 L366 320 L368 324 L377 336 L384 330 L392 320 L391 319 L377 333 L374 330 Z M263 317 L265 315 L273 315 L275 318 L270 324 L269 323 L268 324 Z M846 315 L847 316 L847 328 L846 329 L844 328 L839 336 L833 342 L826 332 L824 327 L821 326 L821 317 L823 314 L832 329 L835 330 Z M314 314 L325 328 L327 328 L336 317 L338 313 L336 313 L326 326 L321 321 L318 316 L315 313 Z M768 308 L770 312 L779 323 L782 323 L793 310 L793 308 L792 308 L781 321 L779 321 L770 308 Z M843 306 L846 310 L846 313 L834 328 L823 311 L828 306 L832 313 L834 315 L836 315 Z M829 305 L832 303 L838 303 L841 305 L835 313 Z M482 329 L483 324 L491 310 L505 302 L509 302 L510 301 L522 301 L529 304 L537 312 L540 319 L540 324 L538 328 L524 317 L512 316 L505 319 L495 329 L492 330 L483 330 Z M500 302 L501 301 L502 302 L501 303 Z M563 321 L565 319 L568 311 L575 304 L586 300 L594 300 L604 303 L611 309 L612 308 L619 317 L622 323 L623 328 L622 329 L610 328 L602 320 L594 316 L584 316 L578 318 L568 328 L566 327 Z M502 301 L503 300 L504 301 L503 302 Z M601 300 L602 299 L603 300 L602 301 Z M503 300 L504 299 L506 300 L505 301 Z M598 299 L599 298 L601 299 L600 300 Z M719 298 L723 305 L732 316 L738 311 L746 301 L746 299 L744 299 L744 301 L739 307 L732 313 L723 302 L721 298 Z M314 298 L315 301 L325 315 L327 315 L338 299 L338 298 L336 298 L335 301 L326 313 L317 300 Z M368 297 L371 302 L379 310 L383 306 L387 304 L392 298 L391 297 L387 300 L386 299 L387 301 L383 304 L382 303 L383 304 L380 307 L378 307 L377 306 L380 304 L379 305 L378 304 L377 306 L374 302 L375 301 L373 302 Z M598 295 L599 294 L600 295 L599 296 Z M505 299 L521 292 L525 292 L535 289 L544 289 L545 288 L572 289 L589 293 L599 298 L598 299 L592 299 L591 298 L590 299 L583 299 L577 301 L568 308 L561 320 L558 318 L549 318 L546 320 L543 320 L541 318 L537 309 L530 303 L524 300 L520 300 L519 299 L512 299 L511 300 L506 300 Z M314 285 L326 301 L338 285 L340 288 L341 365 L342 366 L341 367 L342 369 L342 420 L343 421 L343 426 L342 427 L331 427 L330 428 L321 428 L320 429 L315 421 L310 417 L310 411 L311 410 L312 288 Z M599 284 L600 283 L601 284 L600 285 Z M369 282 L369 285 L379 299 L382 298 L393 286 L393 284 L392 284 L380 297 Z M769 280 L781 296 L794 280 L795 281 L795 293 L794 294 L792 293 L781 308 L770 293 L769 293 L769 295 L780 310 L785 306 L794 294 L795 295 L795 326 L796 329 L795 330 L793 329 L780 345 L768 329 L767 330 L780 347 L781 347 L790 335 L794 331 L795 332 L795 341 L796 342 L795 357 L796 360 L795 361 L794 359 L792 359 L786 367 L779 373 L768 359 L766 358 L767 361 L779 376 L784 372 L794 360 L795 361 L795 373 L796 374 L795 375 L796 379 L796 384 L795 385 L796 387 L795 390 L796 392 L796 404 L795 405 L796 406 L796 419 L795 420 L784 418 L782 416 L794 403 L793 402 L779 416 L771 408 L767 402 L765 402 L769 408 L776 415 L775 416 L763 416 L762 415 L763 375 L764 374 L764 347 L765 346 L765 324 L766 323 L766 296 L767 295 L767 282 Z M318 276 L325 286 L327 286 L334 276 L338 281 L334 288 L326 298 L317 286 L313 283 Z M745 274 L732 287 L722 275 L720 275 L721 277 L720 279 L721 277 L733 289 L745 276 Z M488 273 L501 288 L500 292 L501 299 L489 310 L483 320 L481 328 L468 338 L467 337 L467 328 L469 320 L471 318 L471 316 L481 298 L484 308 L484 302 L483 301 L482 293 L486 276 Z M321 274 L327 273 L331 274 L332 276 L326 284 L320 276 Z M617 271 L622 288 L620 301 L619 302 L619 308 L620 308 L621 298 L623 295 L636 319 L639 329 L639 334 L638 335 L629 330 L627 330 L624 327 L623 322 L617 311 L601 296 L602 289 L608 282 L609 283 L608 282 Z M790 270 L793 273 L795 278 L789 283 L783 292 L781 293 L770 279 L769 276 L774 271 L780 280 L782 281 Z M775 270 L778 268 L786 268 L788 271 L781 278 Z M720 261 L720 263 L731 277 L733 277 L745 263 L745 261 L744 261 L732 275 L724 264 Z M392 248 L395 252 L395 255 L393 256 L382 270 L372 254 L370 253 L375 247 L378 250 L381 256 L384 257 L389 250 Z M720 247 L728 259 L732 263 L737 259 L744 250 L746 246 L747 247 L748 283 L742 288 L733 299 L721 284 L720 284 L720 286 L733 302 L747 285 L748 286 L748 312 L743 316 L733 328 L731 327 L720 312 L719 312 L719 314 L732 330 L734 330 L745 317 L746 318 L745 316 L747 314 L748 315 L748 327 L749 329 L748 330 L746 328 L733 343 L720 328 L719 328 L720 331 L719 332 L720 331 L732 345 L734 345 L747 329 L749 331 L749 398 L748 399 L738 386 L743 377 L747 373 L747 372 L745 372 L743 374 L739 369 L744 364 L747 359 L745 359 L738 368 L732 361 L745 346 L746 342 L732 358 L721 343 L718 342 L730 358 L727 359 L716 356 L718 253 Z M502 288 L504 286 L505 281 L511 268 L516 260 L523 253 L536 247 L548 246 L549 245 L568 246 L578 249 L583 252 L591 260 L594 265 L600 283 L599 284 L595 281 L582 275 L578 275 L578 276 L592 281 L601 288 L599 294 L597 295 L588 291 L576 288 L571 288 L570 287 L559 287 L558 286 L538 287 L537 288 L531 288 L530 289 L522 290 L508 295 L503 298 L502 297 L502 292 L503 291 Z M377 246 L378 245 L387 245 L390 247 L383 255 Z M746 233 L747 234 L747 245 L744 246 L735 259 L732 261 L724 249 L719 245 L719 235 L721 234 L732 249 L733 249 Z M742 224 L745 227 L746 231 L744 232 L733 247 L724 234 L720 231 L725 224 L733 234 L740 225 Z M727 224 L730 221 L737 221 L740 223 L733 232 Z M369 257 L370 256 L372 257 L381 272 L383 272 L392 260 L396 257 L397 258 L397 268 L395 270 L394 269 L381 284 L372 270 L370 269 L370 271 L381 287 L395 270 L396 271 L395 305 L394 306 L392 305 L378 320 L368 304 L367 304 L367 307 L372 313 L377 322 L379 322 L391 308 L393 307 L394 308 L394 324 L393 325 L393 341 L392 342 L392 362 L391 363 L389 362 L374 375 L365 363 L363 359 L362 360 L373 376 L373 378 L368 383 L363 375 L361 375 L363 379 L367 383 L367 385 L363 389 L360 387 L360 389 L363 391 L363 393 L366 398 L366 402 L363 407 L368 402 L372 395 L386 377 L410 340 L453 260 L469 236 L486 199 L497 183 L507 173 L515 167 L531 159 L542 156 L546 156 L547 155 L573 155 L590 160 L606 170 L618 182 L624 190 L633 207 L645 238 L663 267 L663 269 L670 280 L676 293 L678 295 L678 297 L680 299 L695 328 L711 354 L738 388 L737 390 L738 389 L755 413 L761 427 L762 434 L761 435 L760 443 L756 448 L746 455 L735 460 L731 460 L727 451 L722 443 L722 439 L723 436 L727 432 L736 430 L740 427 L742 422 L742 418 L740 412 L735 404 L728 397 L719 391 L705 378 L696 364 L651 279 L640 261 L623 237 L612 228 L599 224 L588 223 L587 222 L579 222 L578 221 L549 220 L548 221 L528 222 L527 223 L521 223 L520 224 L505 226 L493 231 L482 241 L470 260 L454 291 L452 293 L438 320 L413 362 L411 367 L399 384 L372 410 L365 419 L364 422 L364 430 L365 432 L367 433 L365 429 L365 425 L368 418 L396 390 L413 367 L440 320 L449 302 L451 300 L470 263 L484 241 L491 234 L501 229 L518 226 L519 225 L526 225 L534 223 L544 223 L545 222 L570 222 L571 223 L580 223 L581 224 L589 224 L590 225 L601 226 L614 231 L623 239 L637 259 L653 286 L700 374 L713 388 L729 400 L736 408 L740 418 L740 423 L738 427 L735 429 L727 430 L722 434 L721 438 L720 439 L718 435 L700 408 L668 363 L653 344 L641 333 L641 329 L637 317 L624 294 L623 285 L621 281 L618 268 L616 269 L603 285 L596 265 L591 257 L586 252 L575 246 L567 244 L552 243 L551 244 L537 245 L523 251 L513 261 L506 274 L504 281 L501 285 L493 277 L488 269 L486 269 L481 293 L479 299 L477 301 L468 319 L468 322 L466 325 L465 334 L444 356 L394 423 L383 439 L381 435 L378 433 L372 433 L378 435 L381 438 L381 443 L373 455 L370 461 L366 461 L365 460 L360 461 L346 454 L343 450 L342 443 L363 420 L348 434 L347 433 L356 416 L356 404 L357 403 L357 393 L358 392 L358 380 L359 379 L359 366 L360 365 L360 356 L361 355 L362 332 L363 331 L367 338 L376 350 L391 335 L390 334 L376 348 L366 332 L363 331 L363 319 L364 318 L364 310 L365 309 L365 298 L366 297 L366 288 L367 287 Z M478 104 L489 127 L504 166 L505 173 L498 180 L496 178 L482 140 L478 123 L478 118 L477 117 L477 105 Z M476 104 L477 103 L478 104 L477 105 Z M634 95 L636 101 L635 102 L635 115 L634 116 L633 125 L625 152 L623 155 L620 165 L616 172 L616 174 L614 176 L606 168 L606 165 L608 162 L611 151 L613 148 L623 119 Z M634 90 L624 115 L621 120 L620 125 L614 138 L612 146 L604 166 L587 157 L577 154 L573 154 L572 153 L549 153 L529 158 L507 170 L490 125 L477 99 L485 91 L491 87 L522 71 L524 69 L543 60 L545 58 L554 55 L562 55 L571 58 L625 84 Z M562 53 L555 53 L548 55 L526 66 L524 68 L489 86 L476 97 L475 99 L475 115 L476 116 L478 132 L485 155 L496 182 L485 197 L467 236 L451 260 L412 333 L395 360 L394 359 L394 340 L395 339 L396 303 L397 302 L397 286 L398 285 L398 264 L399 263 L398 255 L395 249 L391 245 L387 243 L379 243 L375 245 L369 251 L367 258 L367 266 L366 267 L366 279 L365 280 L363 310 L362 311 L362 322 L361 323 L361 334 L360 335 L360 345 L359 346 L359 356 L358 357 L354 416 L348 426 L347 425 L348 426 L347 427 L344 426 L345 425 L344 424 L344 377 L343 376 L344 370 L343 369 L342 290 L341 289 L341 283 L338 277 L330 272 L322 272 L319 273 L313 279 L311 284 L309 430 L308 431 L301 432 L293 435 L290 434 L290 429 L289 428 L289 406 L288 405 L288 384 L287 383 L287 364 L286 363 L286 341 L285 340 L285 328 L284 325 L278 316 L271 313 L263 314 L257 319 L254 327 L254 442 L255 443 L255 451 L239 462 L225 477 L219 486 L212 501 L208 517 L208 522 L207 523 L207 551 L208 552 L208 557 L213 576 L220 591 L218 594 L214 608 L212 637 L209 641 L204 653 L204 681 L203 682 L204 684 L203 685 L203 732 L204 733 L204 741 L205 742 L205 832 L206 833 L205 843 L204 844 L204 864 L205 865 L206 873 L210 877 L216 879 L215 905 L214 906 L214 923 L213 924 L213 942 L212 943 L212 964 L211 965 L210 1015 L209 1016 L209 1097 L210 1101 L214 1107 L223 1111 L235 1110 L248 1106 L256 1106 L261 1108 L264 1111 L269 1134 L283 1179 L290 1195 L291 1200 L300 1219 L300 1221 L313 1248 L315 1250 L321 1263 L323 1265 L334 1286 L356 1319 L376 1344 L399 1368 L425 1389 L442 1400 L460 1409 L479 1416 L499 1421 L515 1422 L516 1423 L538 1423 L539 1424 L586 1422 L587 1421 L593 1421 L603 1418 L607 1418 L625 1412 L651 1399 L671 1385 L684 1374 L703 1355 L720 1335 L743 1303 L763 1269 L776 1243 L776 1241 L780 1234 L780 1232 L790 1210 L805 1162 L810 1142 L810 1138 L813 1129 L816 1110 L820 1106 L831 1105 L849 1111 L856 1111 L863 1108 L867 1103 L870 1091 L871 1006 L870 1005 L869 940 L868 939 L868 921 L867 920 L867 903 L866 902 L866 882 L865 878 L870 876 L873 873 L875 868 L875 842 L874 841 L875 653 L874 652 L873 642 L870 636 L870 600 L868 594 L874 583 L878 572 L883 551 L883 544 L884 543 L884 514 L883 513 L882 501 L878 486 L870 469 L864 460 L855 450 L845 442 L846 407 L847 406 L847 378 L848 377 L848 340 L849 339 L849 314 L847 308 L842 303 L837 301 L833 301 L825 305 L821 311 L819 317 L819 330 L818 331 L818 344 L817 345 L813 420 L811 425 L804 422 L798 421 L797 420 L798 419 L798 313 L797 312 L797 278 L795 273 L790 268 L786 266 L778 266 L774 268 L769 273 L765 283 L761 401 L760 402 L760 415 L759 416 L751 404 L750 267 L749 266 L749 233 L746 225 L740 220 L731 219 L723 223 L718 231 L717 235 L717 255 L716 256 L716 289 L715 290 L715 342 L714 343 L714 352 L713 353 L701 335 L661 260 L647 238 L630 197 L623 186 L616 178 L627 151 L635 124 L636 114 L637 113 L637 92 L636 90 L627 83 L584 62 L582 62 L573 57 Z" fill="#eef3f4" fill-rule="evenodd"/>
</svg>
