<svg xmlns="http://www.w3.org/2000/svg" width="1086" height="1448" viewBox="0 0 1086 1448">
  <title>0122</title>
  <path d="M738 1122 L735 1125 L731 1134 L719 1153 L704 1172 L681 1195 L671 1203 L651 1217 L638 1224 L644 1222 L664 1210 L681 1197 L699 1180 L718 1157 L728 1142 L735 1129 L736 1124 Z M337 1122 L348 1144 L361 1163 L373 1177 L386 1190 L406 1206 L418 1214 L437 1224 L434 1221 L416 1211 L399 1199 L375 1177 L357 1155 Z M435 986 L436 985 L440 988 L444 995 L452 1004 L465 1013 L479 1020 L482 1020 L485 1022 L495 1025 L499 1025 L510 1028 L516 1028 L517 1029 L525 1029 L526 1030 L547 1030 L548 1029 L565 1028 L566 1027 L583 1024 L595 1020 L611 1012 L622 1004 L628 998 L637 985 L639 985 L640 988 L635 998 L629 1006 L615 1019 L603 1026 L581 1034 L577 1034 L572 1036 L560 1037 L559 1038 L549 1038 L548 1039 L526 1039 L525 1038 L515 1038 L514 1037 L508 1037 L507 1036 L494 1034 L490 1032 L484 1031 L468 1024 L457 1017 L446 1007 L439 997 L436 991 Z M639 985 L640 984 L641 985 L640 986 Z M443 987 L447 985 L456 985 L457 984 L489 984 L490 985 L519 985 L520 986 L552 986 L553 985 L575 985 L576 984 L618 984 L619 985 L629 985 L631 988 L626 996 L614 1007 L593 1018 L561 1026 L553 1026 L552 1027 L523 1027 L522 1026 L514 1026 L513 1025 L503 1024 L477 1016 L459 1006 L446 993 Z M434 985 L435 984 L436 985 L435 986 Z M631 982 L632 981 L635 982 L634 983 Z M224 973 L225 972 L226 973 L225 974 Z M440 982 L444 981 L470 967 L487 962 L503 962 L530 970 L549 969 L561 964 L569 962 L589 962 L607 968 L632 981 L631 982 L595 981 L594 982 L564 982 L563 983 L510 983 L509 982 L447 982 L446 983 L441 983 Z M432 983 L434 991 L439 1001 L458 1020 L472 1028 L491 1035 L503 1038 L508 1038 L515 1040 L524 1040 L525 1041 L559 1040 L566 1038 L572 1038 L596 1031 L612 1023 L624 1014 L637 998 L643 985 L642 982 L631 979 L609 967 L596 962 L588 961 L587 960 L570 960 L544 968 L530 968 L507 961 L489 960 L488 961 L479 962 L468 966 L444 979 Z M620 928 L620 931 L624 941 L634 952 L648 960 L653 961 L668 968 L674 972 L684 982 L690 993 L694 1006 L694 1026 L688 1046 L678 1062 L664 1076 L657 1081 L658 1081 L670 1072 L678 1064 L686 1053 L691 1043 L696 1024 L695 1002 L693 998 L693 995 L688 985 L673 969 L660 962 L650 959 L634 950 L625 940 Z M454 924 L453 930 L447 942 L438 951 L432 955 L416 961 L398 971 L386 984 L382 991 L378 1002 L378 1006 L377 1007 L377 1026 L381 1041 L392 1060 L406 1074 L416 1080 L407 1074 L396 1063 L388 1052 L382 1040 L379 1029 L379 1022 L378 1021 L380 1001 L386 987 L395 976 L409 966 L423 961 L435 955 L448 943 L454 930 Z M591 917 L592 916 L593 917 L592 918 Z M592 916 L593 915 L594 916 L593 917 Z M480 916 L481 915 L482 916 L481 917 Z M593 915 L594 914 L595 915 L594 916 Z M479 915 L480 914 L481 915 L480 916 Z M565 912 L566 911 L567 912 L566 913 Z M479 909 L480 910 L480 914 L479 915 L478 914 L478 910 Z M595 908 L596 909 L596 914 L595 915 L594 914 L594 909 Z M479 908 L480 907 L481 908 L480 909 Z M593 907 L594 906 L595 908 L594 909 Z M480 907 L481 906 L482 907 L481 908 Z M592 906 L593 905 L594 906 L593 907 Z M566 911 L570 908 L578 905 L586 905 L592 910 L591 913 L587 916 L583 916 L580 914 L567 912 Z M483 913 L483 909 L488 905 L496 905 L507 911 L502 913 L498 913 L492 916 L487 916 Z M505 897 L506 900 L513 907 L520 911 L530 914 L543 914 L551 912 L562 906 L568 899 L567 898 L563 903 L554 909 L543 912 L529 912 L516 907 Z M450 886 L450 900 L453 908 L462 918 L474 922 L485 921 L501 915 L513 915 L523 920 L533 921 L534 922 L547 921 L558 917 L560 915 L574 915 L590 921 L599 922 L607 920 L614 916 L621 908 L624 899 L624 886 L619 872 L615 866 L608 859 L600 854 L593 852 L582 852 L578 854 L574 858 L572 862 L571 869 L573 868 L574 862 L579 857 L583 855 L590 854 L598 856 L605 860 L616 872 L619 878 L622 889 L621 901 L617 909 L610 916 L602 919 L595 919 L594 918 L597 916 L598 910 L594 904 L588 901 L578 901 L575 902 L565 908 L558 914 L544 919 L530 919 L520 916 L511 911 L501 903 L495 901 L487 901 L480 904 L478 906 L476 910 L476 914 L480 918 L479 919 L471 919 L464 916 L456 908 L453 899 L453 885 L456 876 L460 869 L469 860 L480 855 L491 855 L495 857 L500 862 L502 869 L503 869 L503 865 L500 858 L496 854 L491 852 L477 853 L466 859 L455 872 Z M408 845 L409 844 L410 845 L409 846 Z M404 844 L405 843 L408 844 L407 845 Z M669 843 L670 842 L672 843 L671 844 Z M672 842 L673 841 L675 842 L674 843 Z M675 841 L676 840 L678 841 L677 842 Z M677 840 L678 839 L680 840 L679 841 Z M679 839 L680 838 L682 839 L681 840 Z M382 826 L383 825 L385 826 L384 827 Z M381 825 L382 824 L383 825 L382 826 Z M693 824 L694 823 L695 824 L694 825 Z M695 823 L696 822 L697 823 L696 824 Z M629 802 L630 801 L631 802 L630 803 Z M619 795 L620 794 L621 795 L620 796 Z M457 793 L458 792 L459 793 L458 794 Z M388 786 L389 785 L396 785 L397 786 L396 787 L389 787 Z M677 785 L678 784 L685 784 L686 785 L685 786 L678 786 Z M399 785 L400 784 L403 785 L402 786 Z M673 784 L674 783 L677 784 L676 785 Z M402 784 L403 783 L406 784 L405 785 Z M670 783 L671 782 L674 783 L673 784 Z M405 783 L406 782 L408 783 L407 784 Z M379 783 L380 782 L381 783 L380 784 Z M696 782 L697 781 L698 782 L697 783 Z M668 782 L669 781 L671 782 L670 783 Z M377 782 L378 781 L379 782 L378 783 Z M698 781 L699 780 L700 781 L699 782 Z M667 781 L668 780 L669 781 L668 782 Z M407 782 L409 780 L411 781 L409 783 Z M375 781 L376 780 L377 781 L376 782 Z M705 780 L706 779 L707 780 L706 781 Z M665 780 L666 779 L668 780 L667 781 Z M410 780 L411 779 L412 780 L411 781 Z M374 780 L375 779 L376 780 L375 781 Z M701 779 L702 778 L703 779 L702 780 Z M664 779 L665 778 L666 779 L665 780 Z M411 779 L412 778 L413 779 L412 780 Z M702 778 L703 777 L704 778 L703 779 Z M663 778 L664 777 L665 778 L664 779 Z M703 777 L704 776 L705 777 L704 778 Z M662 777 L663 776 L664 777 L663 778 Z M412 778 L414 776 L415 777 L414 779 Z M704 776 L705 775 L706 776 L705 777 Z M661 776 L662 775 L663 776 L662 777 Z M414 776 L415 775 L416 776 L415 777 Z M370 776 L371 775 L372 776 L371 777 Z M705 775 L706 774 L707 775 L706 776 Z M660 775 L661 774 L662 775 L661 776 Z M415 775 L416 774 L417 775 L416 776 Z M369 775 L370 774 L371 775 L370 776 Z M706 774 L707 773 L708 774 L707 775 Z M659 774 L660 773 L661 774 L660 775 Z M416 774 L417 773 L418 774 L417 775 Z M368 774 L369 773 L370 774 L369 775 Z M367 773 L368 772 L369 773 L368 774 Z M707 772 L708 771 L709 772 L708 773 Z M658 772 L659 771 L660 772 L659 773 Z M417 772 L418 771 L419 772 L418 773 Z M708 771 L709 770 L710 771 L709 772 Z M366 771 L367 770 L368 771 L367 772 Z M657 770 L658 769 L659 771 L658 772 Z M418 770 L419 769 L420 771 L419 772 Z M709 769 L710 768 L711 769 L710 770 Z M365 769 L366 768 L367 769 L366 770 Z M656 768 L657 767 L658 769 L657 770 Z M420 766 L421 767 L420 770 L419 769 Z M710 766 L711 765 L712 767 L711 768 Z M364 766 L365 765 L366 767 L365 768 Z M656 763 L657 764 L656 767 L655 766 Z M421 763 L422 764 L421 767 L420 766 Z M712 761 L713 762 L712 765 L711 764 Z M364 759 L365 760 L365 764 L364 765 L363 764 L363 760 Z M655 758 L656 759 L656 763 L655 764 L654 763 L654 759 Z M503 786 L507 782 L510 775 L519 766 L531 761 L544 761 L554 765 L565 775 L571 785 L571 783 L567 775 L562 769 L554 763 L544 759 L530 759 L519 764 L515 767 L509 774 Z M740 757 L740 761 L736 771 L729 782 L714 797 L705 803 L694 808 L678 812 L654 812 L639 808 L632 805 L630 803 L634 801 L643 800 L662 793 L696 787 L709 783 L722 776 L734 764 L739 756 Z M739 756 L740 755 L741 756 L740 757 Z M334 755 L335 754 L337 756 L344 768 L351 775 L360 781 L381 788 L385 788 L401 792 L407 792 L419 795 L432 800 L448 801 L449 802 L446 805 L440 808 L421 813 L398 813 L379 808 L371 804 L361 797 L348 784 L343 777 L335 761 Z M713 752 L714 753 L714 758 L713 759 L712 758 L712 753 Z M422 751 L423 752 L423 762 L422 763 L421 762 L421 752 Z M364 750 L365 751 L364 755 L363 754 Z M655 748 L656 749 L656 753 L655 754 L654 753 L654 749 Z M712 747 L713 748 L712 751 L711 750 Z M421 747 L422 748 L421 751 L420 750 Z M365 746 L366 747 L365 750 L364 749 Z M710 746 L711 745 L712 746 L711 747 Z M656 745 L657 746 L656 749 L655 748 Z M419 746 L420 745 L421 746 L420 747 Z M365 745 L366 744 L367 746 L366 747 Z M709 744 L710 743 L711 744 L710 745 Z M656 744 L657 743 L658 745 L657 746 Z M418 744 L419 743 L420 744 L419 745 Z M366 743 L367 742 L368 744 L367 745 Z M708 742 L709 741 L710 742 L709 743 Z M657 742 L658 741 L659 743 L658 744 Z M417 742 L418 741 L419 742 L418 743 Z M367 742 L368 741 L369 742 L368 743 Z M658 741 L659 740 L660 741 L659 742 Z M416 741 L417 740 L418 741 L417 742 Z M368 741 L369 740 L370 741 L369 742 Z M707 740 L708 739 L709 741 L708 742 Z M706 739 L707 738 L708 739 L707 740 Z M415 739 L416 738 L417 739 L416 740 Z M369 739 L370 738 L371 740 L370 741 Z M705 738 L706 737 L707 738 L706 739 Z M660 738 L661 737 L662 738 L661 739 Z M414 738 L415 737 L416 738 L415 739 Z M370 738 L371 737 L372 738 L371 739 Z M661 737 L662 736 L663 737 L662 738 Z M413 737 L414 736 L415 737 L414 738 Z M371 737 L372 736 L373 737 L372 738 Z M704 736 L705 735 L706 737 L705 738 Z M662 736 L663 735 L664 736 L663 737 Z M412 736 L413 735 L414 736 L413 737 Z M372 736 L373 735 L374 736 L373 737 Z M703 735 L704 734 L705 735 L704 736 Z M663 735 L664 734 L665 735 L664 736 Z M411 735 L412 734 L413 735 L412 736 Z M373 735 L374 734 L375 735 L374 736 Z M701 734 L702 733 L703 734 L702 735 Z M664 734 L665 733 L666 734 L665 735 Z M648 734 L649 733 L650 734 L649 735 Z M415 733 L421 735 L430 741 L443 754 L451 768 L455 784 L454 794 L452 797 L447 799 L435 798 L418 792 L410 790 L405 790 L401 788 L412 783 L419 776 L424 765 L425 761 L424 749 L421 742 L414 734 Z M409 734 L410 733 L411 734 L410 735 Z M375 734 L376 733 L377 734 L376 735 Z M700 733 L701 732 L702 733 L701 734 Z M665 733 L666 732 L668 733 L667 734 Z M662 732 L663 733 L658 738 L653 747 L652 762 L654 769 L659 777 L666 783 L674 787 L671 789 L656 792 L637 799 L632 799 L625 797 L623 793 L622 783 L623 782 L624 772 L629 760 L635 751 L643 743 L656 734 Z M650 733 L651 732 L652 733 L651 734 Z M413 733 L414 732 L415 733 L414 734 Z M408 733 L409 732 L410 733 L409 734 Z M387 732 L397 732 L398 733 L402 733 L408 736 L415 743 L418 749 L419 761 L415 771 L408 778 L400 782 L391 783 L390 782 L385 782 L379 779 L373 774 L368 765 L367 754 L369 747 L377 737 Z M376 733 L377 732 L378 733 L377 734 Z M699 732 L700 731 L701 732 L700 733 Z M679 731 L689 731 L695 733 L706 743 L709 750 L709 762 L706 769 L699 777 L688 782 L679 782 L668 777 L661 769 L658 761 L658 752 L663 741 L669 735 Z M667 732 L668 731 L669 732 L668 733 Z M662 732 L663 731 L664 732 L663 733 Z M651 732 L652 731 L653 732 L652 733 Z M411 732 L412 731 L413 732 L412 733 Z M406 732 L407 731 L408 732 L407 733 Z M378 732 L379 731 L380 732 L379 733 Z M697 731 L698 730 L699 731 L698 732 Z M669 731 L670 730 L671 731 L670 732 Z M653 731 L654 730 L655 731 L654 732 Z M404 731 L405 730 L406 731 L405 732 Z M380 731 L381 730 L382 731 L381 732 Z M694 730 L695 729 L697 730 L696 731 Z M671 730 L672 729 L673 730 L672 731 Z M401 730 L402 729 L404 730 L403 731 Z M382 730 L383 729 L385 730 L384 731 Z M692 729 L693 728 L694 729 L693 730 Z M674 729 L675 728 L676 729 L675 730 Z M396 729 L397 728 L399 729 L398 730 Z M387 729 L388 728 L390 729 L389 730 Z M688 728 L689 727 L691 728 L690 729 Z M686 728 L687 727 L688 728 L687 729 Z M677 728 L678 727 L680 728 L679 729 Z M383 726 L384 727 L377 730 L368 737 L361 750 L361 754 L360 755 L361 765 L366 775 L372 781 L370 782 L362 779 L353 773 L343 762 L337 750 L330 742 L361 729 L369 727 Z M706 779 L711 773 L716 760 L715 748 L710 738 L703 731 L693 726 L694 725 L711 726 L748 740 L740 748 L732 762 L725 770 L717 776 L709 780 Z M247 722 L251 724 L251 740 L248 751 L242 758 L247 763 L251 774 L251 781 L252 782 L252 816 L251 817 L251 831 L250 832 L250 841 L249 842 L249 849 L248 850 L248 857 L247 858 L247 865 L246 866 L246 874 L245 875 L244 891 L243 892 L243 906 L242 907 L242 946 L243 947 L243 957 L241 963 L235 970 L226 971 L220 967 L218 959 L218 899 L219 898 L221 829 L222 828 L222 781 L221 780 L221 737 L220 736 L221 733 L220 732 L220 725 L227 723 Z M720 721 L720 723 L723 723 L722 721 Z M220 722 L221 718 L226 718 L227 717 L250 717 L251 718 L250 721 L242 720 L241 721 L229 721 L221 723 Z M837 716 L839 717 L841 716 L852 717 L859 719 L858 811 L859 812 L859 844 L860 845 L861 894 L862 895 L862 935 L861 936 L861 948 L860 951 L857 954 L852 956 L848 956 L842 953 L839 950 L836 942 L836 927 L837 926 L836 890 L835 889 L834 869 L833 868 L832 851 L831 850 L829 825 L828 824 L828 814 L827 813 L827 772 L829 764 L833 756 L837 753 L832 748 L828 737 L828 718 L829 717 L836 717 Z M309 738 L310 737 L318 737 L329 734 L355 720 L374 714 L394 713 L395 714 L405 715 L417 719 L432 728 L449 745 L456 757 L457 762 L459 764 L460 772 L461 773 L461 787 L459 791 L453 765 L443 749 L429 736 L412 728 L409 728 L401 725 L388 724 L387 723 L365 723 L362 724 L360 726 L351 729 L339 736 L331 739 L328 739 L326 741 L327 744 L332 748 L335 753 L332 758 L329 753 L320 744 Z M766 736 L755 743 L748 750 L743 757 L742 756 L742 751 L744 747 L751 740 L751 738 L749 737 L746 737 L743 735 L738 734 L724 727 L706 722 L690 722 L689 723 L680 723 L671 725 L670 723 L665 723 L668 726 L667 727 L663 728 L661 727 L653 730 L651 732 L649 732 L631 751 L624 762 L623 769 L621 773 L620 793 L619 794 L617 791 L615 784 L615 772 L617 764 L624 749 L638 732 L652 722 L662 717 L680 712 L702 712 L703 713 L711 714 L724 719 L735 726 L748 732 L755 734 L765 735 Z M828 712 L829 711 L850 711 L851 712 L858 712 L859 715 L858 716 L852 716 L851 715 L829 715 Z M220 716 L221 713 L225 712 L232 712 L233 711 L249 711 L250 712 L249 716 L248 715 L230 715 L223 717 Z M279 724 L284 730 L293 735 L285 737 L279 740 L279 741 L293 737 L301 737 L308 739 L320 746 L329 756 L338 774 L349 789 L361 800 L372 807 L379 810 L399 815 L421 815 L422 814 L427 814 L440 810 L450 805 L458 798 L461 793 L463 785 L463 774 L459 759 L454 749 L447 739 L437 729 L417 717 L401 712 L392 712 L391 711 L375 712 L374 713 L366 714 L348 721 L330 732 L318 735 L313 735 L312 736 L304 736 L303 735 L294 734 L286 730 Z M614 787 L621 800 L630 806 L645 812 L653 813 L654 814 L678 814 L679 813 L684 813 L688 811 L692 811 L711 802 L719 796 L727 788 L736 776 L746 756 L753 747 L762 740 L770 736 L778 734 L792 736 L801 740 L796 736 L791 734 L787 734 L784 732 L794 726 L798 721 L789 728 L776 733 L759 733 L745 729 L722 716 L706 711 L682 710 L662 715 L653 719 L642 726 L624 745 L617 758 L614 768 L614 772 L613 773 Z M828 706 L829 705 L851 705 L852 706 L858 706 L859 710 L858 711 L846 710 L845 709 L829 710 Z M499 701 L501 698 L504 701 L502 703 Z M498 699 L499 698 L500 700 L499 701 Z M574 697 L575 701 L573 703 L568 700 Z M499 698 L500 697 L501 698 L500 699 Z M228 646 L235 647 L241 653 L246 665 L247 673 L248 674 L248 681 L249 682 L249 695 L250 696 L250 709 L249 710 L248 709 L247 710 L230 710 L229 711 L221 711 L220 710 L220 700 L219 699 L219 663 L222 651 Z M224 645 L225 644 L226 645 L225 646 Z M851 640 L856 644 L858 647 L858 651 L859 652 L859 666 L860 667 L859 703 L858 704 L847 704 L846 703 L843 704 L842 703 L830 703 L829 704 L828 703 L828 686 L829 685 L830 668 L833 657 L838 647 L843 642 L847 640 Z M853 639 L854 638 L855 639 L854 640 Z M238 636 L251 637 L254 639 L255 643 L257 670 L258 671 L258 683 L259 684 L260 729 L261 730 L261 824 L260 825 L259 855 L258 856 L258 868 L257 869 L256 894 L255 895 L255 919 L254 920 L255 959 L256 960 L257 975 L254 977 L249 977 L248 978 L235 978 L225 974 L226 973 L232 973 L236 971 L241 966 L244 960 L244 903 L245 902 L245 891 L246 890 L248 863 L249 862 L251 839 L252 838 L253 810 L254 809 L253 776 L250 765 L245 758 L251 748 L252 739 L253 738 L252 702 L251 701 L251 686 L250 685 L249 670 L247 662 L239 648 L232 644 L228 644 L227 645 L225 644 L231 638 Z M565 631 L566 632 L565 636 L564 635 Z M835 630 L847 631 L854 638 L853 639 L851 638 L845 639 L836 647 L829 663 L828 673 L827 674 L827 684 L826 685 L826 737 L830 748 L834 752 L828 761 L825 773 L826 824 L827 825 L827 832 L828 833 L828 842 L829 843 L829 851 L830 852 L830 860 L831 861 L832 878 L833 879 L833 888 L834 889 L834 911 L835 912 L834 943 L837 950 L842 955 L846 957 L854 957 L855 958 L849 962 L844 962 L843 963 L822 962 L821 961 L822 933 L823 932 L823 906 L822 905 L822 884 L821 883 L821 869 L820 868 L819 840 L818 839 L818 820 L817 819 L817 777 L816 776 L817 775 L817 714 L818 713 L818 682 L819 681 L820 654 L821 653 L821 645 L822 644 L823 633 L826 631 L834 631 Z M566 627 L567 628 L566 631 L565 630 Z M505 621 L506 622 L505 625 L504 624 Z M503 618 L504 617 L505 619 L504 620 Z M502 616 L503 615 L504 616 L503 617 Z M301 610 L302 611 L301 614 L300 613 Z M773 608 L774 610 L772 612 L771 610 Z M299 608 L300 607 L301 608 L300 609 Z M775 605 L776 607 L774 609 L773 607 Z M298 606 L299 605 L300 606 L299 607 Z M490 694 L485 705 L483 707 L476 698 L465 687 L454 679 L435 670 L419 666 L397 665 L396 666 L387 666 L386 667 L379 667 L378 668 L372 668 L364 670 L352 670 L351 671 L332 669 L323 666 L311 659 L303 651 L296 639 L294 633 L294 619 L296 611 L297 610 L299 611 L298 612 L303 621 L313 630 L328 636 L344 636 L351 632 L361 632 L364 631 L377 622 L386 621 L394 615 L404 613 L411 608 L418 605 L422 605 L423 604 L440 605 L449 611 L457 614 L460 617 L470 623 L476 629 L479 637 L485 644 L491 660 L492 671 L493 672 L492 686 Z M775 604 L776 603 L777 604 L776 605 Z M584 697 L580 682 L580 666 L583 653 L586 648 L586 646 L595 630 L608 617 L615 613 L624 610 L630 605 L639 602 L655 602 L665 606 L672 611 L687 614 L692 618 L708 627 L720 628 L726 631 L731 631 L732 632 L742 632 L750 629 L753 629 L761 625 L769 619 L774 613 L777 607 L779 605 L780 606 L782 625 L778 637 L772 646 L763 655 L752 662 L740 666 L727 667 L726 668 L713 668 L712 667 L703 667 L702 666 L694 666 L693 665 L686 665 L685 664 L659 664 L658 665 L653 665 L633 671 L618 679 L611 684 L597 698 L590 708 L588 706 Z M776 602 L777 601 L778 603 L777 604 Z M777 600 L778 599 L779 601 L778 602 Z M575 684 L574 677 L575 676 L575 665 L576 664 L577 654 L579 651 L580 646 L590 628 L607 611 L620 606 L624 601 L632 597 L639 595 L654 595 L668 600 L675 605 L680 607 L688 608 L694 611 L707 621 L710 622 L717 621 L726 626 L743 627 L749 624 L757 622 L771 611 L772 612 L764 621 L755 626 L741 630 L733 630 L732 629 L726 629 L723 627 L708 625 L686 612 L675 610 L670 608 L665 604 L655 600 L639 600 L635 601 L627 605 L622 609 L617 610 L609 614 L592 631 L583 648 L579 662 L579 666 L578 667 L578 681 L580 688 L579 691 Z M791 619 L790 635 L785 651 L782 657 L774 668 L768 674 L758 681 L743 687 L734 688 L733 689 L708 689 L707 688 L700 688 L699 687 L684 686 L683 685 L660 685 L659 686 L653 686 L641 689 L633 692 L617 701 L601 716 L594 726 L588 738 L583 755 L582 776 L583 777 L583 782 L585 790 L591 804 L599 815 L605 821 L620 831 L631 835 L640 836 L641 837 L656 837 L657 836 L667 835 L679 831 L692 824 L694 825 L681 835 L671 840 L658 844 L645 845 L644 844 L635 844 L624 841 L613 836 L604 830 L591 817 L586 810 L580 798 L575 781 L574 762 L575 761 L575 752 L579 736 L587 717 L598 700 L614 684 L635 672 L647 668 L651 668 L657 666 L677 665 L678 666 L688 666 L689 667 L704 668 L705 669 L733 669 L749 665 L759 660 L767 654 L775 645 L782 632 L784 626 L785 613 L784 612 L783 604 L778 596 L777 596 L777 598 L772 607 L764 615 L757 620 L742 625 L726 624 L717 619 L708 619 L691 607 L677 604 L675 602 L671 601 L668 598 L654 593 L638 593 L625 598 L619 604 L615 605 L601 613 L592 622 L584 634 L578 646 L574 659 L574 665 L572 673 L567 653 L567 640 L566 639 L567 627 L566 624 L567 623 L568 625 L567 620 L569 617 L570 612 L575 601 L583 588 L586 585 L585 584 L577 594 L569 609 L565 620 L561 637 L560 656 L561 657 L562 670 L567 686 L572 696 L568 700 L565 699 L558 692 L549 686 L540 683 L534 683 L530 684 L519 690 L506 701 L502 697 L502 694 L506 687 L511 668 L512 645 L511 644 L510 630 L506 616 L494 594 L486 585 L496 601 L501 615 L504 628 L505 656 L504 657 L502 671 L500 675 L499 674 L499 666 L495 650 L487 633 L483 627 L474 617 L446 598 L437 595 L417 596 L408 600 L403 604 L391 607 L383 613 L374 614 L365 621 L359 624 L353 624 L347 628 L343 629 L330 629 L314 623 L306 616 L302 609 L300 601 L299 601 L294 607 L291 616 L291 629 L292 633 L300 650 L305 656 L315 664 L326 669 L339 672 L362 672 L363 671 L370 671 L371 670 L392 668 L393 667 L420 668 L433 671 L443 675 L457 683 L468 692 L484 712 L493 730 L499 752 L500 776 L499 777 L499 783 L497 791 L489 810 L479 823 L464 835 L454 840 L441 844 L437 844 L436 845 L420 845 L408 842 L392 834 L384 827 L386 826 L395 831 L411 836 L416 836 L417 837 L438 837 L446 835 L461 828 L468 823 L477 814 L483 806 L487 798 L492 778 L491 754 L487 740 L482 729 L472 715 L459 703 L447 695 L431 689 L414 687 L413 686 L396 686 L395 687 L381 688 L380 689 L375 689 L363 692 L337 692 L336 691 L328 690 L316 685 L305 677 L295 665 L288 650 L285 638 L284 628 L285 644 L287 652 L293 665 L297 671 L307 681 L316 687 L329 692 L337 693 L338 694 L360 694 L361 693 L367 693 L368 692 L373 692 L386 689 L393 689 L394 688 L415 688 L416 689 L422 689 L438 693 L455 702 L468 713 L476 723 L482 733 L489 754 L489 759 L490 760 L490 779 L486 795 L480 807 L466 822 L451 831 L437 835 L417 835 L416 834 L407 833 L396 829 L367 814 L356 810 L343 807 L328 807 L313 811 L298 820 L287 831 L281 840 L276 850 L276 852 L285 837 L298 823 L305 818 L317 812 L325 810 L330 810 L331 809 L346 810 L357 813 L372 821 L391 836 L405 843 L404 844 L399 843 L371 829 L357 824 L347 823 L346 822 L331 822 L330 823 L325 823 L317 825 L304 831 L293 839 L286 847 L305 832 L311 829 L329 824 L348 824 L349 825 L357 826 L369 830 L394 843 L409 848 L418 848 L419 849 L437 848 L454 843 L466 837 L479 827 L491 812 L497 800 L502 781 L503 763 L502 762 L502 754 L501 753 L500 744 L504 740 L510 728 L515 723 L516 724 L515 723 L517 721 L523 718 L534 715 L546 716 L559 723 L566 730 L572 741 L573 741 L573 739 L568 730 L558 720 L543 713 L532 713 L527 715 L523 715 L516 719 L509 726 L500 744 L499 743 L499 740 L494 726 L489 716 L484 709 L492 695 L493 697 L492 692 L494 687 L494 664 L491 654 L489 651 L489 648 L486 642 L480 635 L478 629 L469 620 L459 613 L453 610 L450 610 L446 606 L435 602 L417 603 L409 607 L406 610 L394 613 L385 619 L375 621 L363 629 L351 630 L343 634 L329 634 L319 631 L310 626 L304 620 L301 615 L302 613 L312 624 L317 627 L330 631 L343 631 L354 626 L359 626 L368 621 L372 617 L383 615 L392 609 L400 607 L414 599 L422 597 L436 597 L446 600 L454 607 L463 611 L477 622 L485 633 L495 656 L497 670 L498 671 L498 683 L497 686 L499 685 L501 680 L506 660 L507 638 L506 637 L505 625 L506 624 L507 625 L508 633 L509 634 L509 641 L510 642 L510 662 L509 663 L508 675 L504 687 L500 695 L496 699 L500 704 L507 703 L516 694 L529 686 L533 686 L534 685 L540 685 L547 687 L550 690 L554 691 L565 701 L569 703 L575 703 L577 699 L574 697 L570 689 L565 675 L565 671 L563 665 L562 645 L563 644 L563 636 L564 635 L565 636 L565 651 L566 652 L568 668 L573 680 L573 683 L579 695 L583 698 L585 705 L589 710 L587 712 L579 728 L574 743 L574 748 L572 754 L572 764 L571 765 L574 789 L577 798 L587 816 L600 830 L608 836 L622 843 L634 847 L638 847 L639 848 L661 848 L674 845 L684 841 L696 834 L698 834 L707 829 L718 825 L728 824 L729 823 L747 823 L760 826 L775 833 L791 846 L784 838 L769 828 L756 823 L747 822 L746 821 L729 821 L728 822 L719 823 L700 830 L683 839 L681 838 L700 823 L714 814 L729 809 L746 808 L762 812 L772 817 L779 822 L792 836 L801 852 L799 845 L789 829 L779 819 L766 811 L749 806 L732 806 L731 807 L723 808 L709 813 L678 829 L662 834 L642 835 L641 834 L636 834 L628 832 L612 824 L598 811 L591 800 L591 798 L588 793 L585 781 L585 775 L584 774 L585 756 L590 738 L600 720 L608 711 L620 701 L635 693 L659 687 L685 687 L686 688 L694 688 L695 689 L710 690 L711 691 L731 691 L732 690 L742 689 L754 685 L767 677 L777 667 L783 658 L790 641 L790 637 L791 636 Z M517 502 L565 502 L566 503 L590 504 L591 505 L598 505 L599 506 L618 508 L619 509 L623 509 L649 515 L680 525 L717 542 L737 554 L755 567 L767 577 L780 590 L794 608 L801 619 L812 643 L813 649 L815 652 L815 656 L817 660 L816 684 L815 685 L814 786 L813 789 L814 790 L815 835 L816 836 L818 879 L819 880 L820 943 L819 944 L819 956 L818 957 L818 965 L817 966 L815 983 L814 984 L812 998 L807 1018 L798 1047 L796 1050 L794 1058 L785 1078 L785 1080 L764 1120 L736 1161 L715 1186 L694 1207 L678 1221 L658 1236 L641 1247 L613 1261 L588 1270 L571 1274 L566 1274 L559 1276 L550 1276 L549 1277 L525 1277 L524 1276 L516 1276 L515 1275 L503 1274 L483 1269 L457 1259 L455 1257 L453 1257 L429 1244 L399 1223 L376 1203 L353 1179 L338 1161 L316 1130 L304 1110 L287 1075 L273 1037 L273 1034 L271 1030 L271 1027 L269 1023 L265 1007 L262 987 L261 986 L261 981 L260 980 L260 974 L259 973 L258 951 L257 950 L257 908 L258 907 L258 891 L259 890 L259 877 L260 876 L262 838 L263 837 L263 821 L264 820 L263 704 L262 703 L262 686 L261 685 L260 666 L266 644 L276 623 L292 600 L312 579 L337 559 L361 544 L400 526 L438 514 L442 514 L451 511 L471 508 L472 507 L477 507 L478 506 L501 504 L502 503 L516 503 Z M256 636 L260 625 L268 611 L285 588 L309 564 L320 555 L350 535 L384 518 L427 503 L434 502 L446 498 L466 495 L467 494 L472 494 L473 493 L494 491 L495 490 L503 490 L504 489 L517 489 L518 488 L561 488 L562 489 L577 489 L578 490 L588 490 L589 491 L597 491 L598 492 L604 492 L611 494 L617 494 L656 503 L666 507 L669 507 L672 509 L675 509 L678 511 L693 516 L700 520 L702 520 L726 532 L739 540 L763 557 L780 572 L801 596 L810 609 L820 629 L820 638 L819 639 L819 646 L817 653 L810 633 L800 614 L788 597 L766 574 L744 557 L723 544 L684 525 L648 513 L632 509 L628 509 L623 507 L607 505 L606 504 L581 502 L580 501 L567 501 L566 500 L515 500 L514 501 L493 502 L492 503 L485 503 L484 504 L466 506 L428 515 L396 526 L362 542 L345 552 L325 566 L314 575 L294 595 L283 609 L274 623 L267 637 L260 658 L258 654 L258 645 L257 644 Z M251 598 L258 584 L266 572 L277 558 L290 544 L313 524 L338 507 L352 500 L354 498 L389 482 L433 468 L445 466 L454 463 L482 459 L483 458 L500 457 L501 456 L512 456 L513 455 L529 455 L530 454 L584 456 L585 457 L602 458 L603 459 L609 459 L610 460 L631 463 L636 465 L652 468 L686 479 L701 486 L703 486 L712 491 L714 491 L743 507 L755 515 L779 534 L797 552 L807 564 L816 577 L824 593 L822 615 L820 623 L808 601 L798 588 L776 565 L763 554 L729 531 L706 519 L704 519 L680 508 L648 498 L640 497 L621 492 L610 491 L609 490 L586 488 L585 487 L576 487 L575 486 L527 485 L526 486 L509 486 L508 487 L489 488 L488 489 L482 489 L481 490 L475 490 L474 491 L452 494 L421 502 L397 510 L365 524 L334 542 L304 565 L284 585 L272 600 L256 628 L254 622 Z M201 414 L202 413 L203 415 L202 416 Z M268 374 L269 373 L270 374 L269 375 Z M806 368 L807 367 L808 368 L807 369 Z M217 316 L230 324 L247 341 L266 371 L264 385 L258 399 L256 396 L256 393 L254 389 L250 373 L243 358 L243 356 L230 334 L216 318 Z M214 316 L215 315 L217 316 L216 317 Z M213 315 L214 314 L215 315 L214 316 Z M860 305 L861 306 L854 313 L844 326 L834 343 L822 375 L819 392 L818 393 L814 384 L810 370 L810 364 L813 359 L813 357 L819 346 L831 329 L847 313 Z M860 305 L861 304 L862 305 L861 306 Z M196 317 L199 316 L208 322 L217 332 L229 350 L237 366 L240 376 L242 379 L250 408 L252 420 L254 424 L255 424 L262 413 L266 399 L274 381 L286 368 L299 362 L306 362 L307 361 L311 362 L322 362 L323 361 L339 362 L347 360 L357 354 L364 346 L370 335 L370 332 L379 312 L390 301 L398 297 L409 294 L416 294 L423 292 L440 292 L441 291 L455 289 L472 283 L490 274 L500 265 L505 254 L505 249 L502 241 L491 227 L490 221 L493 215 L503 208 L514 204 L523 203 L529 201 L547 201 L548 202 L554 202 L569 206 L577 210 L584 216 L585 225 L583 229 L577 235 L573 241 L570 249 L571 258 L579 269 L595 279 L617 287 L625 289 L630 289 L631 290 L639 290 L640 291 L658 290 L659 291 L675 292 L689 298 L699 308 L701 312 L701 315 L706 320 L706 323 L716 344 L727 354 L738 358 L752 358 L753 357 L763 358 L764 357 L775 356 L782 359 L785 359 L792 363 L802 374 L810 392 L814 405 L818 413 L821 416 L823 414 L825 408 L829 387 L837 362 L848 338 L860 320 L873 307 L877 305 L880 306 L882 312 L883 324 L884 325 L884 340 L883 341 L883 351 L882 352 L881 364 L880 365 L880 369 L879 370 L879 374 L875 388 L874 396 L866 412 L866 414 L857 433 L846 462 L870 409 L871 412 L870 413 L869 422 L856 474 L854 478 L852 489 L850 493 L841 529 L837 540 L826 586 L824 588 L818 577 L805 559 L779 532 L746 507 L714 489 L712 489 L703 484 L683 476 L678 475 L675 473 L672 473 L655 467 L648 466 L640 463 L631 462 L626 460 L608 458 L601 456 L594 456 L593 455 L584 455 L583 454 L529 452 L528 453 L513 453 L512 454 L500 454 L499 455 L484 456 L483 457 L470 458 L469 459 L450 462 L441 465 L437 465 L397 477 L356 495 L320 517 L291 541 L270 564 L258 581 L251 594 L248 589 L247 582 L243 571 L238 550 L235 543 L234 536 L231 529 L225 504 L221 494 L220 487 L210 455 L202 421 L202 416 L203 415 L206 423 L210 429 L210 432 L215 442 L215 444 L218 448 L218 450 L224 462 L226 464 L216 442 L214 435 L206 419 L197 395 L197 390 L193 373 L192 357 L191 356 L191 338 L192 337 L193 326 Z M877 302 L876 304 L869 308 L862 315 L846 338 L838 354 L835 364 L833 367 L833 370 L827 387 L824 404 L821 413 L817 407 L806 378 L802 371 L796 364 L782 356 L774 355 L773 354 L765 355 L764 356 L759 356 L758 355 L737 356 L727 352 L716 341 L713 335 L711 327 L709 325 L707 319 L703 315 L700 307 L694 300 L687 295 L672 290 L636 289 L635 288 L623 287 L599 279 L583 270 L574 260 L572 254 L572 249 L575 241 L582 233 L587 225 L587 219 L585 215 L580 210 L571 205 L547 199 L531 199 L530 200 L523 200 L511 203 L496 210 L490 216 L489 218 L489 227 L500 241 L503 248 L503 255 L497 266 L487 274 L463 285 L460 285 L449 289 L435 290 L434 291 L418 291 L417 292 L406 293 L402 295 L396 296 L387 301 L379 309 L371 325 L364 343 L351 356 L341 360 L319 360 L318 361 L316 360 L304 360 L303 361 L297 361 L285 367 L277 374 L271 383 L265 397 L261 411 L255 421 L253 417 L245 383 L238 365 L234 358 L234 356 L226 342 L216 328 L206 318 L198 314 L203 310 L212 316 L222 326 L236 346 L244 362 L251 381 L256 401 L256 411 L258 409 L262 395 L268 381 L275 371 L282 364 L293 358 L305 355 L316 355 L317 356 L341 355 L349 352 L356 346 L361 339 L362 334 L366 326 L366 323 L371 318 L371 315 L374 310 L374 308 L380 301 L390 294 L407 288 L415 288 L420 286 L443 285 L452 282 L461 281 L478 273 L480 273 L489 267 L496 259 L498 250 L496 244 L484 229 L483 226 L484 216 L493 207 L503 202 L517 198 L535 196 L536 195 L551 196 L552 197 L557 197 L565 199 L580 205 L590 213 L593 221 L592 227 L580 242 L577 251 L580 260 L588 268 L608 278 L619 281 L623 281 L628 283 L639 283 L640 284 L655 284 L656 283 L660 285 L670 285 L684 289 L690 292 L697 297 L704 304 L708 315 L714 322 L714 326 L717 330 L720 339 L731 349 L743 352 L745 351 L752 351 L753 350 L756 352 L762 350 L775 350 L786 353 L797 360 L802 365 L801 367 L802 366 L807 372 L813 386 L818 402 L820 402 L820 394 L821 393 L822 383 L829 360 L841 334 L851 319 L862 307 L871 300 L874 299 Z M269 373 L277 340 L279 337 L279 334 L285 316 L287 313 L288 308 L290 305 L291 300 L299 280 L301 278 L307 263 L325 231 L347 200 L364 181 L381 165 L395 154 L415 141 L441 128 L459 122 L462 120 L465 120 L469 118 L485 114 L501 112 L502 111 L528 110 L529 109 L554 110 L555 111 L575 113 L603 120 L630 130 L643 137 L647 138 L673 153 L694 168 L716 187 L741 215 L755 235 L767 255 L779 279 L789 304 L798 330 L798 333 L800 337 L800 340 L802 344 L807 364 L806 367 L794 355 L787 351 L777 348 L765 347 L759 349 L755 349 L754 348 L738 349 L729 345 L723 339 L719 331 L719 328 L717 326 L716 321 L709 312 L709 309 L706 303 L697 294 L685 287 L671 283 L662 283 L657 281 L653 281 L652 282 L629 281 L607 275 L594 269 L583 260 L580 253 L580 249 L583 242 L590 235 L595 226 L595 218 L592 212 L581 203 L570 198 L567 198 L559 195 L534 193 L533 194 L520 195 L505 199 L492 205 L484 212 L480 221 L480 225 L482 231 L493 244 L495 249 L495 255 L493 259 L481 270 L456 280 L452 280 L442 283 L435 283 L434 284 L420 284 L414 286 L407 286 L389 292 L379 299 L372 307 L369 313 L369 316 L364 321 L363 328 L360 332 L360 335 L357 341 L348 350 L340 353 L323 353 L322 354 L318 354 L314 352 L309 352 L308 353 L303 353 L295 355 L281 362 L277 365 L270 374 Z M517 107 L516 108 L506 108 L505 109 L492 110 L491 111 L470 115 L444 124 L417 137 L402 146 L382 161 L351 191 L335 211 L311 250 L300 272 L282 317 L271 352 L269 363 L267 367 L251 342 L233 323 L216 312 L205 308 L199 309 L192 320 L189 331 L188 352 L189 353 L190 372 L191 373 L194 394 L197 403 L201 430 L207 454 L210 461 L212 472 L215 479 L216 486 L221 500 L221 503 L223 507 L223 510 L226 517 L231 538 L237 556 L238 563 L246 588 L249 601 L250 612 L251 613 L252 626 L253 627 L253 634 L252 635 L250 634 L234 634 L229 636 L223 642 L218 653 L217 665 L216 666 L217 725 L218 726 L218 771 L219 772 L219 832 L218 833 L218 859 L217 860 L216 906 L215 907 L215 957 L216 958 L217 968 L223 976 L231 980 L251 980 L252 979 L257 979 L258 980 L263 1010 L265 1014 L265 1018 L268 1026 L269 1033 L277 1057 L287 1082 L301 1110 L316 1135 L332 1158 L350 1180 L372 1203 L396 1224 L415 1238 L436 1251 L458 1262 L485 1272 L501 1276 L506 1276 L513 1278 L522 1278 L523 1279 L552 1279 L553 1278 L568 1277 L593 1271 L617 1262 L639 1251 L654 1242 L676 1226 L696 1209 L716 1189 L747 1151 L767 1120 L784 1088 L784 1086 L789 1077 L789 1075 L796 1060 L808 1025 L815 997 L818 977 L819 976 L819 971 L820 970 L820 965 L821 964 L829 964 L830 965 L846 965 L847 964 L851 964 L855 962 L860 957 L862 953 L863 943 L864 942 L864 878 L863 877 L863 856 L862 855 L862 834 L861 833 L862 656 L861 655 L861 648 L858 639 L853 632 L846 628 L842 628 L841 627 L836 627 L829 629 L824 629 L823 628 L824 627 L826 595 L828 590 L828 586 L832 574 L847 513 L855 488 L865 446 L867 442 L867 438 L874 411 L876 395 L882 373 L882 368 L885 355 L885 347 L886 346 L886 320 L883 307 L876 297 L872 297 L866 299 L854 305 L843 313 L829 327 L817 344 L809 361 L804 341 L801 334 L801 331 L790 299 L787 294 L781 278 L768 252 L760 238 L742 212 L732 200 L710 178 L689 161 L686 160 L676 152 L663 144 L636 130 L611 120 L587 113 L567 110 L566 109 L560 109 L559 108 L550 108 L549 107 Z" fill="#eef3f4" fill-rule="evenodd"/>
</svg>
