<svg xmlns="http://www.w3.org/2000/svg" width="1086" height="1448" viewBox="0 0 1086 1448">
  <title>0123</title>
  <path d="M418 1105 L422 1115 L431 1128 L443 1140 L457 1150 L471 1157 L491 1164 L504 1166 L505 1167 L511 1167 L512 1168 L520 1168 L521 1169 L560 1169 L561 1168 L568 1168 L569 1167 L575 1167 L576 1166 L589 1164 L607 1158 L622 1150 L634 1141 L644 1130 L653 1114 L651 1115 L648 1122 L643 1129 L629 1143 L617 1151 L599 1159 L585 1163 L569 1165 L568 1166 L560 1166 L559 1167 L522 1167 L521 1166 L512 1166 L511 1165 L500 1164 L488 1161 L471 1155 L459 1149 L442 1137 L432 1127 L424 1116 L420 1107 Z M720 982 L718 984 L715 994 L704 1011 L694 1021 L674 1035 L659 1049 L641 1062 L611 1078 L593 1084 L577 1086 L576 1087 L566 1087 L565 1088 L532 1088 L531 1087 L514 1086 L498 1082 L497 1083 L514 1086 L515 1087 L529 1088 L530 1089 L570 1089 L571 1088 L579 1088 L580 1087 L598 1084 L621 1075 L654 1055 L674 1037 L695 1022 L703 1014 L712 1002 L718 990 Z M204 958 L205 957 L206 958 L205 959 Z M203 957 L204 956 L205 957 L204 958 Z M202 956 L203 955 L204 956 L203 957 Z M370 955 L370 970 L373 982 L381 998 L390 1010 L405 1024 L429 1043 L442 1051 L459 1059 L481 1067 L497 1071 L507 1072 L508 1073 L521 1074 L522 1075 L533 1075 L534 1076 L560 1076 L561 1075 L577 1074 L594 1070 L611 1064 L621 1058 L611 1063 L590 1070 L574 1072 L573 1073 L567 1073 L566 1074 L527 1074 L526 1073 L510 1072 L509 1071 L505 1071 L504 1070 L483 1066 L460 1058 L440 1048 L426 1039 L411 1025 L405 1022 L387 1004 L380 994 L375 984 L371 968 L371 954 Z M476 952 L479 951 L488 954 L504 956 L505 957 L514 957 L515 958 L524 958 L525 959 L539 959 L540 960 L570 959 L571 958 L579 958 L584 956 L590 956 L591 955 L597 955 L598 954 L606 953 L608 959 L605 963 L597 964 L592 966 L587 966 L586 967 L579 967 L578 968 L566 968 L560 965 L540 965 L539 964 L511 964 L509 967 L482 961 L477 957 Z M620 945 L621 944 L623 945 L622 946 Z M668 944 L669 943 L670 944 L669 945 Z M622 944 L623 943 L624 944 L623 945 Z M624 943 L625 942 L626 943 L625 944 Z M669 942 L670 941 L671 943 L670 944 Z M461 942 L462 941 L464 942 L463 943 Z M415 942 L416 941 L417 942 L416 943 Z M670 941 L671 940 L672 941 L671 942 Z M460 941 L461 940 L462 941 L461 942 Z M458 940 L459 939 L460 940 L459 941 Z M456 939 L457 938 L458 939 L457 940 Z M454 938 L455 937 L456 938 L455 939 Z M452 937 L453 936 L455 937 L454 938 Z M673 933 L674 932 L675 933 L674 934 Z M523 931 L524 930 L526 931 L525 932 Z M521 930 L522 929 L524 930 L523 931 Z M416 931 L419 929 L427 929 L431 931 L434 931 L472 951 L477 962 L507 970 L510 970 L514 966 L515 967 L560 968 L562 970 L566 971 L586 970 L607 965 L613 955 L638 938 L646 934 L654 932 L664 932 L669 935 L669 938 L659 954 L648 965 L626 980 L601 989 L598 989 L594 991 L578 995 L566 996 L565 997 L542 998 L541 997 L531 997 L530 996 L519 995 L499 990 L475 981 L461 974 L446 965 L428 952 L421 945 Z M520 929 L521 928 L522 929 L521 930 Z M409 929 L410 928 L411 929 L410 930 Z M519 928 L520 927 L521 928 L520 929 Z M408 928 L409 927 L410 928 L409 929 Z M517 927 L518 926 L519 927 L518 928 Z M410 927 L411 926 L413 927 L412 928 Z M516 926 L517 925 L518 926 L517 927 Z M419 925 L420 924 L430 923 L431 924 L438 924 L439 925 L452 925 L460 927 L474 927 L475 926 L482 926 L489 924 L502 923 L503 924 L511 925 L521 932 L529 936 L537 938 L549 937 L554 935 L566 927 L574 925 L592 926 L602 929 L618 928 L619 929 L648 929 L649 930 L637 935 L627 942 L623 941 L618 944 L616 944 L615 945 L616 946 L619 945 L621 946 L618 949 L609 954 L606 953 L608 952 L608 950 L599 953 L583 955 L582 956 L560 957 L559 958 L540 958 L539 957 L524 957 L523 956 L507 956 L506 955 L499 955 L486 952 L482 950 L472 948 L463 943 L465 942 L463 940 L455 936 L451 937 L436 929 Z M441 923 L442 922 L446 922 L447 923 L446 924 L442 924 Z M434 922 L435 921 L441 921 L442 922 L441 923 L435 923 Z M689 930 L689 939 L686 946 L673 958 L664 970 L646 988 L624 1003 L611 1010 L585 1019 L571 1021 L570 1022 L563 1022 L562 1023 L527 1023 L526 1022 L518 1022 L517 1021 L512 1021 L496 1017 L475 1009 L453 997 L440 987 L418 965 L412 957 L400 946 L400 936 L403 931 L408 928 L410 930 L408 932 L407 936 L408 935 L409 936 L414 935 L416 941 L415 942 L414 940 L412 940 L413 941 L412 942 L407 940 L403 940 L403 941 L410 943 L422 950 L435 961 L462 978 L464 978 L466 980 L470 981 L479 986 L502 994 L523 998 L524 999 L530 999 L531 1000 L554 1001 L555 1000 L566 1000 L567 999 L587 996 L622 985 L632 980 L644 972 L655 963 L666 951 L670 949 L676 942 L673 939 L673 936 L676 934 L676 931 L674 928 L669 925 L656 923 L671 930 L670 932 L667 930 L657 929 L656 928 L631 927 L630 926 L631 925 L636 925 L647 922 L661 921 L662 920 L678 920 L683 922 L687 926 Z M586 923 L585 924 L570 924 L563 926 L554 933 L545 936 L536 936 L528 934 L525 932 L526 931 L533 933 L546 933 L550 932 L556 929 L565 922 L570 920 L577 920 Z M515 921 L516 920 L517 921 L516 922 Z M497 921 L498 920 L509 920 L517 925 L515 926 L507 922 L498 922 Z M513 920 L514 919 L515 920 L514 921 Z M392 935 L392 925 L394 923 L401 920 L420 919 L421 920 L434 920 L435 921 L434 922 L419 922 L418 923 L409 924 L405 926 L399 933 L398 942 L397 943 Z M511 911 L514 918 L513 920 L505 917 Z M699 947 L698 944 L696 943 L696 940 L694 937 L694 931 L692 927 L687 922 L681 919 L666 918 L665 919 L656 919 L655 920 L643 921 L642 922 L620 925 L619 926 L610 926 L609 925 L596 924 L576 918 L572 914 L569 907 L564 880 L561 871 L561 877 L562 878 L563 888 L566 899 L566 912 L565 914 L566 915 L567 914 L568 910 L573 917 L570 919 L564 920 L557 926 L547 931 L532 931 L522 927 L516 922 L517 921 L514 915 L514 904 L516 898 L517 884 L520 872 L517 878 L515 892 L511 908 L503 918 L496 919 L488 922 L487 920 L479 922 L456 922 L455 921 L447 921 L446 920 L430 919 L429 918 L402 918 L391 922 L385 928 L381 938 L380 953 L384 961 L387 964 L382 954 L383 950 L382 942 L384 934 L389 927 L390 928 L390 934 L393 941 L407 954 L417 967 L439 989 L457 1002 L479 1013 L502 1021 L506 1021 L517 1024 L524 1024 L525 1025 L563 1025 L564 1024 L577 1023 L589 1020 L596 1017 L599 1017 L625 1005 L649 988 L662 975 L674 960 L686 949 L690 943 L692 936 L695 947 L693 954 L686 966 L692 960 L696 951 L697 955 L698 955 Z M565 858 L580 853 L588 853 L592 854 L596 857 L592 860 L588 860 L587 861 L570 860 Z M487 856 L492 853 L504 853 L515 857 L514 858 L505 858 L498 860 L491 860 Z M881 835 L878 840 L872 861 L872 868 L871 869 L871 898 L872 899 L873 907 L877 917 L883 924 L889 925 L896 919 L903 900 L904 890 L905 889 L905 861 L903 853 L904 885 L903 886 L902 898 L895 918 L891 923 L886 924 L880 919 L874 905 L873 892 L872 891 L874 859 L878 844 L882 837 L882 835 Z M507 802 L507 807 L509 810 L508 802 Z M598 798 L599 797 L601 798 L600 799 Z M472 805 L465 813 L459 824 L457 831 L457 835 L456 836 L457 851 L460 856 L460 858 L465 863 L474 866 L483 867 L494 862 L505 861 L506 860 L523 860 L524 859 L530 859 L531 860 L556 860 L560 859 L564 861 L568 861 L574 863 L578 862 L587 863 L590 862 L591 863 L590 864 L602 868 L609 868 L615 866 L622 862 L626 857 L627 836 L623 823 L615 810 L607 803 L600 799 L604 798 L615 802 L626 811 L635 826 L637 834 L638 849 L637 850 L636 859 L634 863 L634 873 L637 883 L642 892 L647 897 L660 904 L668 906 L689 905 L704 909 L717 918 L729 933 L735 946 L738 959 L738 965 L739 966 L738 986 L734 1001 L726 1016 L711 1032 L682 1051 L666 1066 L658 1080 L656 1086 L657 1087 L662 1075 L668 1066 L686 1050 L713 1033 L724 1022 L734 1006 L740 986 L741 967 L740 966 L740 958 L737 946 L730 931 L725 924 L717 916 L702 907 L691 904 L667 904 L653 899 L643 890 L638 881 L636 874 L636 863 L640 852 L640 842 L639 841 L639 835 L638 834 L637 826 L629 812 L622 805 L616 801 L602 796 L589 796 L588 795 L580 796 L571 800 L572 801 L575 799 L583 798 L584 797 L595 799 L607 806 L613 812 L619 821 L624 837 L624 853 L622 857 L616 863 L610 866 L601 866 L592 863 L591 862 L592 861 L594 861 L598 858 L598 855 L591 851 L579 851 L568 854 L562 857 L555 858 L550 856 L537 856 L536 855 L529 855 L528 854 L526 855 L529 855 L530 856 L529 857 L520 857 L505 851 L492 850 L487 852 L484 856 L488 861 L491 862 L490 863 L483 865 L473 864 L463 857 L459 849 L459 834 L463 822 L470 811 L479 803 L492 798 L500 798 L504 800 L504 798 L499 796 L492 796 L484 798 Z M284 795 L285 794 L286 795 L285 796 Z M285 794 L286 793 L287 794 L286 795 Z M490 793 L479 793 L475 795 L472 795 L463 800 L452 812 L448 820 L445 831 L445 849 L449 862 L449 873 L444 884 L436 892 L426 898 L413 902 L394 903 L390 905 L387 905 L374 912 L363 922 L357 930 L349 948 L348 958 L347 959 L347 973 L348 974 L349 985 L354 1001 L361 1015 L367 1024 L379 1037 L386 1042 L397 1053 L406 1066 L412 1078 L410 1071 L403 1059 L396 1050 L370 1025 L363 1015 L356 1001 L352 989 L351 981 L350 980 L350 974 L349 973 L349 958 L350 957 L351 948 L354 939 L361 927 L375 913 L381 909 L395 904 L415 903 L423 901 L438 893 L445 886 L449 879 L451 871 L451 864 L447 850 L447 831 L451 818 L456 810 L468 799 L481 794 L492 794 Z M812 792 L813 791 L814 793 L813 794 Z M192 789 L186 803 L184 811 L184 817 L183 818 L182 848 L183 849 L184 868 L185 869 L185 875 L186 876 L188 890 L194 908 L201 920 L204 922 L210 922 L215 917 L219 906 L220 896 L221 895 L221 884 L222 883 L222 865 L221 864 L221 852 L220 851 L218 822 L217 821 L216 811 L214 809 L216 823 L217 824 L218 844 L219 845 L220 888 L219 889 L218 903 L215 913 L213 917 L209 921 L205 921 L199 915 L194 904 L189 887 L187 871 L186 870 L186 863 L185 862 L184 827 L185 826 L185 817 L186 816 L186 810 L187 809 L188 801 L191 793 L194 789 Z M426 788 L417 787 L416 786 L390 787 L389 788 L384 788 L372 791 L361 795 L344 804 L333 812 L318 827 L309 840 L301 856 L294 878 L294 883 L293 884 L293 890 L292 891 L292 922 L294 930 L294 937 L295 938 L296 947 L298 951 L298 955 L302 965 L297 947 L297 942 L295 936 L295 929 L294 928 L294 918 L293 917 L294 887 L295 886 L295 881 L298 869 L303 855 L309 843 L317 831 L332 815 L341 808 L359 798 L375 792 L388 790 L389 789 L396 789 L397 788 L412 788 L413 789 L417 788 L436 793 Z M803 780 L804 779 L805 780 L804 781 Z M294 770 L295 769 L296 770 L295 771 Z M295 769 L296 768 L297 769 L296 770 Z M296 768 L298 766 L300 767 L298 769 Z M886 763 L885 782 L886 783 L886 789 L889 802 L889 819 L887 823 L887 828 L888 828 L891 818 L891 804 L890 803 L887 779 L886 778 L886 773 L887 772 L887 763 Z M779 761 L780 760 L782 761 L781 762 Z M778 760 L779 759 L780 760 L779 761 Z M297 758 L298 757 L299 759 L298 760 Z M299 754 L300 755 L299 758 L298 757 Z M791 751 L792 750 L793 751 L792 752 Z M479 745 L474 748 L440 747 L439 746 L431 746 L430 745 L395 745 L394 746 L385 746 L384 747 L378 747 L377 748 L371 748 L363 750 L351 749 L349 747 L356 745 L364 745 L375 742 L400 742 L401 741 L416 740 L417 739 L453 740 L454 741 L466 742 Z M375 740 L364 743 L356 743 L342 748 L339 748 L318 756 L301 767 L299 766 L300 765 L295 768 L294 767 L297 759 L301 763 L310 756 L321 750 L346 742 L349 740 L357 738 L362 738 L363 737 L370 737 Z M609 737 L610 736 L611 737 L610 738 Z M525 730 L521 751 L519 756 L518 765 L517 766 L515 781 L513 788 L508 796 L507 799 L508 800 L516 785 L518 767 L523 747 Z M331 696 L332 695 L333 696 L332 697 Z M332 695 L333 694 L334 695 L333 696 Z M333 694 L334 693 L335 694 L334 695 Z M334 693 L335 692 L336 693 L335 694 Z M335 692 L336 691 L337 692 L336 693 Z M745 690 L750 693 L766 709 L776 723 L786 744 L789 756 L791 759 L789 762 L787 760 L788 759 L786 760 L781 756 L765 747 L763 747 L753 742 L750 742 L747 740 L744 740 L733 736 L740 726 L744 717 L745 709 L746 708 L746 702 L744 694 Z M336 691 L337 690 L338 691 L337 692 Z M743 690 L744 689 L745 690 L744 691 Z M337 690 L338 689 L339 690 L338 691 Z M348 687 L349 689 L347 694 L347 702 L346 703 L347 704 L348 715 L353 726 L361 735 L360 736 L350 737 L340 741 L328 744 L309 753 L304 757 L303 755 L309 740 L325 710 L330 703 L342 691 Z M348 687 L349 686 L350 687 L349 688 Z M652 685 L653 688 L650 695 L650 710 L654 723 L658 728 L657 729 L633 730 L621 733 L611 737 L610 736 L611 732 L617 720 L626 707 L640 693 Z M437 682 L450 690 L467 707 L478 728 L478 734 L477 735 L460 732 L459 731 L454 731 L453 730 L433 729 L432 728 L435 725 L438 719 L441 708 L441 697 L440 696 L439 688 L436 683 Z M695 678 L702 678 L712 682 L719 689 L723 698 L723 707 L720 715 L711 724 L702 727 L695 727 L684 723 L676 714 L673 704 L674 696 L678 688 L686 681 Z M389 678 L401 679 L410 684 L414 689 L418 700 L417 710 L414 716 L407 723 L397 727 L389 727 L379 723 L372 716 L369 709 L369 696 L372 689 L380 681 Z M359 676 L352 683 L348 684 L340 690 L338 689 L350 679 L352 680 L351 679 L352 678 L354 679 L353 678 L357 675 Z M388 675 L379 678 L369 688 L366 695 L366 700 L365 701 L366 710 L369 717 L378 726 L388 730 L398 730 L408 726 L417 717 L420 710 L421 699 L420 698 L420 694 L417 688 L408 679 L398 675 Z M656 683 L672 676 L683 675 L684 674 L692 674 L693 673 L697 673 L698 674 L694 676 L690 676 L682 680 L675 687 L671 696 L670 704 L673 715 L682 725 L690 729 L702 730 L713 726 L721 719 L726 708 L726 698 L723 690 L714 680 L706 676 L701 676 L700 675 L701 674 L709 674 L731 681 L740 686 L740 690 L742 695 L742 701 L743 702 L742 712 L740 719 L737 725 L728 736 L720 734 L705 733 L704 732 L685 732 L684 731 L667 731 L663 730 L657 722 L653 710 L653 697 L656 688 Z M361 674 L362 673 L363 674 L362 675 Z M353 684 L362 677 L378 672 L409 672 L429 677 L435 686 L438 696 L438 708 L436 716 L432 724 L427 730 L404 731 L403 732 L387 732 L386 733 L377 733 L376 734 L365 735 L356 725 L353 720 L350 711 L350 696 Z M363 673 L364 672 L365 673 L364 674 Z M366 672 L367 671 L368 672 L367 673 Z M217 665 L208 675 L204 685 L203 693 L202 694 L202 701 L201 702 L201 720 L202 721 L202 727 L206 743 L220 774 L223 786 L224 801 L225 790 L224 789 L224 783 L222 775 L211 752 L206 737 L204 723 L203 722 L203 699 L204 698 L205 687 L209 676 Z M651 665 L653 664 L651 664 Z M372 659 L373 658 L375 659 L374 660 Z M660 661 L661 662 L666 660 L683 658 L684 657 L712 658 L729 662 L732 664 L735 664 L755 673 L765 680 L777 686 L787 697 L797 712 L805 728 L805 730 L807 732 L811 744 L809 735 L802 720 L802 718 L789 697 L782 689 L781 686 L773 679 L765 674 L760 672 L761 674 L773 681 L770 682 L766 680 L757 673 L742 665 L732 662 L729 660 L712 657 L711 656 L688 655 L687 656 L673 657 Z M903 613 L896 616 L893 619 L890 625 L892 624 L897 617 L901 615 L905 615 L909 618 L913 626 L916 636 L917 650 L918 651 L918 667 L917 668 L917 682 L916 683 L915 700 L914 701 L913 718 L912 719 L912 728 L911 729 L911 732 L912 732 L912 724 L913 723 L915 701 L916 700 L917 686 L918 685 L918 676 L919 675 L919 645 L918 644 L916 630 L913 622 L908 615 Z M197 606 L191 607 L185 612 L181 619 L177 634 L177 640 L176 641 L176 663 L177 664 L179 687 L181 695 L180 677 L179 676 L179 668 L178 667 L178 639 L179 638 L179 633 L182 621 L185 615 L193 608 L201 609 L211 620 L209 615 L202 608 Z M495 641 L489 628 L478 612 L466 601 L448 591 L437 587 L424 584 L418 584 L417 583 L398 583 L397 584 L385 585 L373 589 L370 589 L348 599 L328 612 L315 623 L301 637 L292 648 L285 659 L273 686 L267 710 L266 722 L267 721 L271 697 L276 682 L284 664 L297 644 L314 626 L331 612 L348 601 L365 593 L385 587 L397 586 L398 585 L424 586 L443 591 L458 598 L468 605 L478 615 L488 630 L488 632 L492 639 L496 652 L497 663 L498 664 L498 693 L497 694 L496 707 L494 711 L491 727 L497 711 L497 707 L499 701 L499 694 L500 693 L500 683 L501 682 L499 655 Z M634 602 L625 611 L617 622 L612 631 L604 654 L602 670 L601 671 L601 707 L602 708 L603 722 L604 722 L605 717 L614 701 L621 697 L637 682 L652 673 L668 667 L680 666 L681 665 L701 665 L702 666 L710 666 L711 667 L724 669 L738 674 L754 683 L767 694 L781 710 L791 726 L801 747 L805 761 L808 767 L813 787 L813 791 L812 792 L804 778 L803 780 L795 771 L797 770 L790 765 L793 762 L793 756 L792 755 L793 752 L796 757 L798 765 L804 776 L802 766 L797 753 L787 733 L775 715 L761 699 L748 688 L735 680 L717 673 L713 673 L707 671 L681 671 L680 672 L674 672 L649 683 L639 690 L623 706 L614 719 L605 741 L608 742 L618 737 L634 733 L640 733 L641 732 L667 732 L668 733 L675 733 L676 734 L696 734 L697 735 L707 735 L708 736 L717 736 L718 737 L728 737 L731 739 L734 739 L753 745 L770 753 L779 759 L776 760 L762 752 L760 752 L745 745 L728 741 L701 739 L700 738 L689 738 L688 737 L641 737 L640 738 L629 739 L615 744 L615 746 L625 751 L633 752 L643 755 L654 755 L662 753 L663 754 L664 753 L690 753 L691 754 L701 754 L702 755 L721 757 L745 763 L772 775 L793 789 L807 803 L815 814 L821 825 L823 826 L813 808 L801 794 L779 777 L753 764 L730 757 L726 757 L715 754 L703 753 L702 752 L662 751 L661 752 L653 752 L652 753 L642 753 L641 752 L636 752 L624 749 L617 745 L626 742 L638 741 L639 740 L647 740 L648 739 L650 740 L651 739 L685 739 L686 740 L697 740 L698 741 L728 743 L747 748 L782 764 L791 771 L798 778 L815 799 L821 817 L822 817 L808 760 L800 739 L792 723 L783 709 L775 699 L764 688 L749 677 L739 672 L722 666 L713 665 L712 664 L705 664 L704 663 L679 663 L678 664 L673 664 L656 669 L642 676 L632 683 L619 696 L617 695 L614 698 L605 713 L603 708 L603 696 L602 695 L603 672 L604 671 L605 659 L612 636 L618 624 L625 614 L637 602 L647 595 L657 590 L681 584 L700 584 L701 585 L714 586 L726 589 L739 594 L764 608 L777 618 L795 636 L808 654 L821 680 L827 698 L827 703 L829 708 L827 694 L817 667 L811 656 L797 636 L777 616 L756 601 L739 592 L714 584 L701 583 L700 582 L674 583 L657 588 L642 596 Z M189 578 L198 578 L202 580 L208 586 L215 598 L221 617 L222 631 L223 632 L223 643 L224 644 L224 712 L225 713 L225 727 L226 728 L228 751 L229 752 L229 757 L232 770 L236 781 L241 790 L242 816 L243 817 L243 828 L244 829 L244 845 L245 846 L247 877 L248 878 L249 895 L250 896 L251 912 L252 913 L252 934 L251 935 L250 948 L244 962 L238 962 L227 965 L220 965 L219 964 L223 961 L227 955 L232 943 L236 922 L237 921 L238 899 L239 898 L237 865 L236 864 L236 845 L235 844 L235 812 L232 800 L231 789 L229 786 L230 787 L229 789 L230 799 L233 812 L233 844 L234 845 L234 863 L235 864 L235 880 L236 881 L236 913 L235 914 L233 931 L228 948 L222 959 L216 964 L212 964 L205 959 L207 957 L203 953 L201 953 L199 951 L194 941 L186 914 L184 898 L183 897 L183 891 L182 890 L181 874 L180 873 L179 838 L178 837 L177 761 L176 760 L175 739 L174 738 L174 731 L173 730 L173 723 L172 722 L170 701 L169 700 L169 691 L168 690 L167 647 L168 646 L168 631 L169 630 L170 616 L174 599 L179 588 Z M201 574 L213 574 L225 577 L228 581 L231 594 L232 613 L233 614 L234 654 L235 655 L235 679 L236 680 L236 703 L237 704 L236 707 L237 708 L238 748 L239 749 L239 774 L240 775 L240 781 L239 782 L237 779 L233 765 L231 750 L230 749 L230 743 L229 742 L228 725 L227 724 L227 705 L226 704 L226 640 L225 639 L224 623 L223 622 L221 609 L213 590 L205 580 L197 576 Z M914 573 L924 582 L930 598 L931 614 L932 615 L932 665 L931 666 L931 683 L930 684 L930 692 L929 693 L929 701 L928 702 L928 711 L927 712 L926 729 L924 737 L923 754 L922 755 L921 771 L920 772 L920 779 L919 780 L919 790 L918 791 L916 822 L915 823 L914 851 L913 852 L913 872 L912 873 L911 924 L910 925 L910 932 L909 933 L907 947 L899 969 L896 974 L888 982 L883 983 L876 978 L868 968 L858 943 L856 928 L855 927 L855 894 L856 893 L856 883 L857 882 L859 862 L865 840 L871 828 L875 815 L875 807 L874 806 L875 786 L882 764 L887 753 L888 745 L889 744 L890 730 L894 716 L894 702 L895 701 L894 676 L892 668 L889 662 L882 656 L885 649 L883 649 L880 656 L880 660 L883 666 L884 666 L883 663 L884 660 L887 662 L886 664 L887 663 L889 665 L893 680 L893 703 L892 704 L893 709 L892 710 L892 718 L888 731 L888 738 L887 739 L887 745 L885 753 L878 770 L873 787 L873 792 L872 793 L872 797 L873 798 L873 815 L869 828 L864 837 L858 856 L858 861 L857 862 L857 867 L856 868 L856 873 L855 874 L854 891 L853 892 L853 927 L854 928 L856 943 L860 955 L866 967 L870 973 L878 981 L882 983 L881 984 L871 984 L864 981 L853 971 L849 969 L846 969 L844 966 L843 958 L842 957 L843 930 L841 927 L840 917 L841 916 L841 910 L842 909 L842 903 L843 902 L843 896 L845 888 L845 881 L846 880 L846 873 L847 872 L847 864 L848 863 L849 849 L851 841 L851 833 L852 832 L854 806 L855 805 L855 796 L856 795 L856 791 L865 772 L870 753 L872 751 L873 740 L874 739 L874 728 L875 727 L874 658 L875 657 L876 638 L877 637 L877 631 L878 630 L880 616 L886 598 L895 582 L901 576 L905 574 Z M781 572 L782 571 L783 572 L782 573 Z M907 570 L908 571 L907 572 L905 572 L897 577 L888 589 L883 599 L877 619 L877 624 L874 636 L874 644 L873 645 L873 653 L872 654 L872 666 L871 667 L872 737 L871 738 L868 755 L863 768 L862 774 L858 782 L857 778 L858 777 L859 736 L860 735 L860 719 L861 718 L864 614 L865 613 L865 603 L866 602 L867 589 L872 576 L877 572 L888 569 Z M650 574 L632 584 L618 597 L603 618 L594 641 L591 654 L590 668 L589 669 L589 701 L590 702 L590 710 L593 722 L593 727 L600 750 L606 762 L613 771 L616 777 L621 782 L629 787 L650 794 L656 794 L669 797 L683 797 L684 798 L708 800 L735 807 L746 812 L757 819 L776 837 L785 850 L791 862 L795 873 L798 885 L798 890 L799 891 L800 920 L799 921 L799 929 L797 935 L797 940 L793 956 L799 936 L800 924 L801 923 L801 894 L795 868 L789 854 L779 838 L767 825 L756 816 L746 810 L732 804 L718 800 L702 798 L701 797 L677 796 L676 795 L667 795 L666 794 L654 793 L643 790 L635 786 L634 787 L624 782 L616 774 L609 764 L603 752 L598 738 L594 721 L594 716 L592 709 L592 701 L591 700 L591 672 L592 671 L592 662 L593 661 L595 645 L600 629 L607 615 L614 605 L629 589 L637 583 L650 576 L672 570 L679 570 L680 569 L707 569 L708 570 L715 570 L720 572 L728 573 L742 578 L761 588 L778 600 L795 617 L807 634 L807 633 L794 614 L778 598 L756 583 L739 575 L719 569 L707 568 L706 567 L679 567 L678 568 L673 568 L663 571 L659 571 Z M488 603 L471 588 L463 583 L444 574 L425 569 L405 568 L404 567 L395 566 L393 568 L379 569 L360 575 L334 591 L319 604 L304 620 L322 603 L344 586 L364 575 L384 570 L407 569 L408 570 L418 570 L419 571 L430 572 L449 578 L466 587 L477 595 L493 612 L501 627 L506 642 L507 652 L508 653 L509 676 L508 677 L507 696 L506 697 L506 702 L502 719 L496 732 L486 744 L472 742 L461 739 L456 739 L455 738 L448 738 L447 737 L416 737 L415 738 L393 739 L392 740 L375 739 L374 738 L376 736 L416 734 L417 733 L430 732 L431 731 L446 732 L447 733 L464 735 L478 739 L480 738 L482 732 L480 724 L475 714 L465 700 L451 687 L439 679 L426 673 L413 669 L409 669 L405 667 L379 666 L378 667 L368 668 L345 679 L325 699 L324 702 L317 711 L306 731 L306 733 L295 756 L292 768 L289 774 L289 777 L283 784 L282 781 L285 774 L287 764 L299 731 L307 714 L319 695 L328 685 L346 670 L358 664 L365 662 L369 662 L370 661 L399 661 L400 662 L407 662 L429 668 L441 674 L458 686 L474 703 L483 720 L487 736 L489 736 L488 728 L481 710 L472 697 L460 685 L445 674 L421 663 L408 661 L407 660 L400 660 L399 659 L376 659 L375 658 L376 657 L389 656 L390 655 L417 655 L418 656 L427 657 L444 663 L456 669 L469 678 L480 690 L488 705 L489 705 L480 688 L468 675 L461 670 L436 658 L417 653 L390 653 L389 654 L381 654 L364 658 L348 665 L334 675 L317 694 L310 704 L294 736 L294 739 L290 748 L285 766 L283 769 L282 777 L276 795 L278 794 L281 788 L298 771 L315 760 L337 751 L344 751 L345 750 L354 750 L355 751 L332 759 L312 770 L300 779 L291 788 L287 790 L276 801 L275 800 L276 797 L268 808 L267 811 L284 795 L285 797 L283 800 L289 792 L298 783 L320 767 L337 759 L359 752 L375 750 L376 749 L383 749 L384 748 L392 748 L393 747 L430 747 L431 748 L469 750 L470 749 L475 749 L482 745 L488 744 L497 733 L498 735 L493 747 L485 757 L478 761 L476 761 L477 765 L475 767 L472 768 L466 767 L450 775 L452 776 L457 773 L473 770 L479 767 L480 765 L479 763 L490 755 L495 748 L500 738 L500 735 L503 728 L506 716 L506 709 L508 703 L509 690 L510 689 L510 680 L511 679 L511 662 L510 661 L510 652 L509 651 L508 642 L503 627 L496 613 Z M769 561 L770 560 L771 561 L770 562 Z M619 561 L620 560 L621 561 L620 562 Z M620 560 L621 559 L622 560 L621 561 Z M767 558 L768 557 L770 558 L769 559 Z M625 557 L626 556 L627 557 L626 558 Z M626 556 L627 555 L628 556 L627 557 Z M468 556 L469 555 L470 556 L469 557 Z M465 556 L466 555 L467 556 L466 557 Z M627 555 L628 554 L629 555 L628 556 Z M464 554 L465 553 L466 554 L465 555 Z M463 553 L464 552 L465 553 L464 554 Z M462 552 L463 551 L464 552 L463 553 Z M452 547 L453 546 L454 547 L453 548 Z M449 545 L450 544 L451 545 L450 546 Z M355 544 L356 543 L359 544 L358 545 Z M301 544 L302 543 L303 544 L302 545 Z M651 543 L652 542 L653 543 L652 544 Z M440 540 L441 539 L443 540 L442 541 Z M698 539 L699 538 L700 539 L699 540 Z M691 538 L692 537 L694 538 L693 539 Z M432 538 L433 537 L435 538 L434 539 Z M412 538 L413 537 L414 538 L413 539 Z M708 537 L709 536 L711 537 L710 538 Z M693 537 L697 535 L705 535 L706 536 L700 539 Z M594 600 L604 578 L609 571 L619 561 L620 563 L617 570 L619 569 L620 566 L634 552 L642 546 L644 547 L639 554 L639 556 L652 545 L662 540 L675 536 L683 536 L684 535 L690 535 L691 536 L686 538 L682 542 L695 539 L698 539 L699 541 L707 540 L708 539 L730 539 L731 540 L736 540 L737 541 L732 544 L732 545 L748 548 L766 555 L768 557 L767 558 L761 558 L761 559 L779 568 L778 569 L775 569 L786 578 L796 590 L801 599 L802 598 L793 584 L782 573 L784 572 L786 574 L788 574 L779 566 L771 562 L772 561 L777 562 L776 560 L767 554 L751 547 L743 545 L738 545 L737 544 L743 541 L733 538 L728 538 L727 537 L711 537 L710 536 L713 535 L711 533 L706 533 L700 535 L696 533 L690 533 L689 534 L680 534 L679 535 L670 536 L653 543 L652 542 L658 537 L657 536 L638 547 L629 555 L628 552 L627 552 L616 561 L608 570 L599 585 Z M514 602 L508 587 L501 577 L487 564 L478 558 L468 553 L463 549 L462 552 L449 541 L443 542 L442 538 L435 535 L429 534 L430 536 L433 537 L429 538 L419 534 L408 532 L407 533 L413 537 L412 538 L398 534 L388 534 L388 535 L392 537 L391 538 L388 537 L372 537 L371 538 L363 539 L348 545 L347 547 L351 546 L354 547 L339 555 L337 557 L339 559 L338 560 L334 561 L327 566 L324 570 L325 573 L320 579 L317 577 L314 584 L294 606 L291 613 L292 613 L296 606 L301 601 L302 603 L309 591 L310 594 L314 587 L321 581 L327 573 L332 570 L332 568 L335 565 L340 563 L347 558 L339 559 L338 558 L340 556 L353 549 L362 546 L367 547 L365 545 L360 545 L358 543 L359 542 L370 539 L391 539 L400 542 L401 541 L396 537 L400 536 L422 544 L428 549 L428 547 L426 545 L422 543 L414 536 L415 535 L425 537 L435 541 L439 541 L450 547 L456 553 L456 551 L453 548 L455 547 L465 557 L470 564 L471 564 L471 562 L469 557 L470 556 L474 560 L479 569 L480 574 L481 574 L479 566 L475 560 L477 559 L485 564 L504 583 L511 596 L513 603 Z M278 494 L276 497 L273 509 L273 515 L272 516 L272 540 L271 541 L270 579 L273 592 L273 598 L272 599 L271 608 L268 614 L270 613 L272 609 L274 601 L274 587 L273 586 L273 579 L272 578 L272 561 L273 560 L273 541 L274 540 L274 512 L275 511 L275 506 Z M356 491 L351 492 L335 499 L324 509 L320 516 L316 528 L316 531 L313 539 L310 558 L311 558 L313 546 L317 534 L318 527 L324 512 L336 500 L342 498 L344 496 L349 495 Z M690 486 L706 481 L729 480 L730 481 L736 481 L744 483 L753 487 L762 493 L781 513 L789 525 L801 548 L804 556 L807 574 L808 575 L809 593 L810 591 L810 580 L809 579 L807 562 L802 546 L795 532 L785 516 L776 504 L766 494 L753 485 L743 481 L735 480 L734 479 L724 479 L723 478 L720 479 L709 479 L695 483 Z M332 459 L333 461 L331 466 L331 479 L329 483 L321 489 L315 496 L312 503 L311 514 L309 518 L308 517 L308 503 L311 491 L315 484 L315 482 Z M314 450 L315 449 L316 450 L315 451 Z M315 448 L316 447 L317 449 L316 450 Z M316 447 L317 446 L318 447 L317 448 Z M338 422 L341 428 L341 435 L340 436 L338 434 L333 434 L325 442 L318 447 L317 446 L318 443 L329 426 L335 421 Z M783 379 L791 395 L796 414 L796 424 L797 425 L796 475 L797 476 L797 483 L798 484 L799 493 L808 518 L808 521 L810 523 L808 514 L802 498 L799 485 L799 478 L798 477 L799 425 L798 424 L797 410 L792 394 Z M541 362 L563 362 L564 363 L569 363 L583 368 L596 376 L609 389 L614 396 L620 408 L624 423 L624 441 L623 442 L622 451 L614 469 L609 476 L598 487 L589 493 L576 499 L564 502 L549 503 L548 502 L534 501 L522 497 L509 490 L496 478 L489 468 L485 460 L481 447 L481 441 L480 440 L481 419 L485 406 L494 390 L508 376 L517 370 L526 366 Z M541 360 L523 365 L510 372 L498 382 L487 397 L480 414 L479 425 L478 426 L478 441 L479 442 L479 447 L481 455 L486 465 L486 467 L495 480 L507 491 L524 500 L534 503 L545 504 L546 505 L564 504 L576 501 L593 493 L601 487 L613 474 L621 460 L624 451 L625 443 L626 442 L626 424 L625 423 L624 414 L618 399 L610 387 L599 376 L587 368 L572 362 L564 361 L563 360 Z M343 363 L332 374 L345 363 L361 355 L367 355 L373 353 L383 353 L388 356 L394 357 L399 362 L401 366 L403 381 L402 382 L400 399 L396 414 L395 439 L396 440 L396 447 L397 448 L398 456 L404 472 L410 481 L422 493 L431 499 L454 507 L459 512 L461 516 L475 530 L493 544 L505 556 L513 567 L521 584 L528 609 L529 617 L529 611 L528 610 L528 605 L525 592 L515 567 L509 558 L493 542 L476 529 L462 515 L457 508 L450 494 L447 484 L447 479 L446 479 L446 485 L450 498 L454 504 L453 505 L437 500 L424 493 L412 481 L406 472 L400 457 L398 443 L397 442 L397 420 L398 419 L398 413 L404 388 L404 372 L401 362 L393 355 L390 355 L384 352 L374 351 L369 353 L360 354 Z M562 348 L540 348 L539 349 L526 351 L523 353 L518 354 L500 364 L486 377 L478 388 L470 404 L466 419 L465 440 L466 441 L467 452 L473 470 L482 485 L495 499 L503 505 L522 514 L534 517 L542 517 L543 518 L560 517 L575 513 L581 509 L572 513 L559 516 L538 516 L537 515 L532 515 L516 510 L499 500 L484 485 L475 470 L469 453 L468 441 L467 440 L467 428 L468 427 L469 414 L473 402 L479 390 L487 379 L497 369 L505 363 L518 356 L533 351 L564 350 L585 356 L593 360 L605 368 L620 382 L629 394 L636 408 L640 425 L640 441 L639 442 L638 451 L632 467 L623 481 L613 492 L621 485 L631 471 L636 462 L641 446 L642 425 L641 424 L641 419 L639 411 L632 396 L626 387 L613 373 L596 360 L579 352 Z M782 339 L792 352 L800 368 L805 382 L808 399 L809 400 L809 405 L810 406 L810 441 L809 442 L810 480 L811 481 L812 490 L821 515 L822 523 L825 533 L825 540 L826 541 L826 592 L827 593 L827 603 L828 604 L828 633 L825 645 L828 639 L829 630 L830 629 L830 606 L829 605 L829 592 L828 591 L828 543 L827 542 L827 534 L826 533 L826 528 L824 523 L823 515 L815 494 L813 486 L813 481 L812 480 L812 471 L811 470 L812 409 L811 408 L811 401 L810 400 L810 395 L807 383 L800 364 L791 348 Z M404 342 L390 338 L375 337 L374 338 L365 339 L351 345 L340 352 L329 362 L321 373 L313 388 L308 405 L306 426 L304 433 L304 440 L303 441 L304 457 L308 458 L313 455 L333 436 L337 436 L340 440 L339 441 L339 445 L336 451 L314 481 L306 502 L307 527 L300 544 L291 555 L287 565 L286 575 L285 576 L286 590 L287 591 L286 605 L279 626 L273 650 L273 654 L272 655 L273 656 L277 640 L279 636 L280 629 L282 625 L282 622 L291 606 L288 609 L287 608 L288 605 L288 580 L287 579 L287 574 L290 561 L295 552 L298 549 L308 543 L306 542 L303 544 L302 542 L309 528 L309 524 L312 516 L313 505 L315 499 L319 493 L326 488 L332 481 L333 465 L342 441 L342 435 L343 434 L342 425 L339 421 L333 420 L326 428 L311 453 L308 456 L305 455 L305 438 L306 437 L306 431 L308 424 L309 409 L316 385 L323 373 L331 363 L337 357 L349 348 L364 341 L372 339 L392 340 L404 344 L409 347 L413 351 L419 363 L419 383 L417 391 L416 411 L417 403 L418 402 L418 393 L420 386 L421 365 L416 352 L409 345 Z M345 333 L361 324 L370 321 L379 321 L380 322 L389 321 L407 311 L414 311 L418 313 L421 320 L428 328 L438 332 L451 332 L470 326 L482 327 L485 328 L488 331 L489 335 L487 339 L487 342 L486 343 L485 342 L482 343 L473 352 L466 365 L464 372 L458 378 L450 398 L449 408 L448 409 L448 430 L449 431 L450 442 L453 451 L464 473 L469 480 L478 489 L468 477 L459 461 L452 443 L451 433 L450 432 L450 409 L451 408 L453 394 L460 378 L463 376 L471 360 L484 344 L488 345 L498 335 L517 326 L530 323 L548 322 L549 323 L564 324 L582 331 L576 327 L560 322 L555 322 L554 321 L534 321 L533 322 L527 322 L512 326 L498 333 L491 338 L489 330 L486 327 L478 324 L470 324 L449 331 L436 330 L427 325 L422 319 L420 313 L413 309 L405 310 L394 317 L387 320 L376 320 L375 319 L367 320 L362 323 L360 323 L358 325 L356 325 Z M680 262 L679 262 L682 269 L682 277 L684 281 L684 295 L678 309 L679 319 L685 329 L691 335 L699 339 L711 341 L716 344 L723 351 L731 365 L732 369 L732 384 L727 395 L715 408 L712 413 L710 412 L711 411 L709 412 L705 407 L703 407 L702 418 L696 442 L690 455 L682 467 L670 480 L655 492 L623 510 L614 520 L613 519 L614 517 L608 520 L601 527 L599 526 L597 538 L593 547 L577 565 L569 578 L569 580 L567 582 L567 584 L564 589 L555 619 L555 624 L553 631 L553 640 L552 641 L552 654 L551 655 L551 721 L552 722 L554 765 L555 766 L556 780 L557 781 L560 799 L560 793 L559 792 L559 786 L558 785 L556 765 L555 764 L555 753 L554 752 L553 708 L552 707 L552 677 L553 676 L553 648 L554 647 L554 637 L555 636 L556 622 L561 602 L566 588 L576 569 L594 548 L602 529 L613 519 L614 520 L609 527 L608 530 L609 531 L618 517 L622 513 L659 491 L669 483 L680 472 L692 455 L696 447 L703 423 L704 412 L705 411 L708 414 L712 415 L716 411 L718 407 L727 398 L734 384 L734 377 L735 376 L734 369 L731 360 L726 352 L714 341 L706 338 L697 337 L692 334 L685 326 L681 319 L680 307 L685 297 L686 284 L683 276 L683 268 Z M660 232 L645 233 L633 244 L627 254 L623 270 L623 279 L624 280 L625 290 L637 317 L636 325 L628 334 L625 341 L624 359 L626 367 L636 387 L643 398 L647 402 L652 405 L659 406 L663 404 L669 397 L674 401 L674 405 L670 419 L669 433 L665 450 L656 468 L641 485 L654 473 L664 457 L670 438 L672 419 L676 402 L675 399 L672 396 L667 396 L664 401 L659 404 L654 404 L647 400 L644 397 L635 382 L629 370 L626 361 L626 355 L625 354 L626 343 L628 337 L636 328 L639 320 L637 311 L629 297 L629 294 L627 291 L626 283 L625 282 L625 267 L631 249 L638 241 L648 234 L654 233 L655 234 L666 235 L685 244 L689 247 L706 253 L719 262 L739 281 L730 270 L709 253 L701 249 L695 248 L671 235 Z M411 207 L391 217 L378 227 L373 233 L366 245 L355 256 L346 262 L330 279 L313 301 L297 328 L285 354 L282 366 L287 352 L299 327 L319 295 L338 272 L348 262 L355 258 L368 245 L374 234 L385 223 L395 216 L410 209 Z M439 193 L440 192 L441 193 L440 194 Z M442 183 L441 182 L440 190 L432 199 L424 203 L418 204 L417 203 L420 199 L419 198 L414 204 L414 206 L415 207 L428 203 L441 195 L444 192 L444 190 L441 193 L440 192 L442 188 Z M670 178 L677 185 L695 193 L710 198 L728 207 L742 216 L763 236 L773 248 L786 272 L796 286 L812 305 L826 329 L834 350 L834 353 L837 360 L842 380 L843 390 L845 396 L845 403 L847 410 L847 418 L848 419 L849 431 L849 416 L848 415 L845 389 L840 369 L840 365 L832 339 L822 317 L812 302 L790 275 L777 251 L759 229 L742 214 L726 204 L714 198 L686 188 L676 183 L674 180 Z M432 175 L433 174 L434 175 L433 176 Z M554 173 L556 176 L570 184 L580 187 L585 187 L586 188 L622 188 L623 189 L633 190 L645 195 L656 198 L659 200 L667 202 L670 204 L695 212 L710 219 L732 234 L750 252 L757 261 L781 302 L801 325 L814 350 L819 366 L820 365 L814 347 L805 329 L797 317 L780 298 L766 272 L753 253 L738 237 L728 229 L711 218 L701 213 L663 200 L660 198 L649 195 L635 189 L631 189 L625 187 L616 187 L615 186 L609 186 L608 187 L586 187 L585 186 L580 186 L570 183 L562 179 Z M515 173 L510 177 L499 181 L478 181 L469 184 L464 187 L459 192 L455 200 L455 208 L456 209 L455 216 L451 221 L444 225 L437 227 L432 227 L427 229 L416 229 L413 228 L409 224 L409 219 L418 210 L412 213 L408 217 L407 225 L410 228 L419 231 L431 230 L436 228 L444 227 L451 223 L456 218 L458 211 L457 210 L457 199 L464 189 L470 185 L481 182 L500 182 L510 178 Z M453 162 L451 162 L443 166 L438 170 L427 175 L424 178 L426 178 L431 175 L433 176 L433 178 L426 186 L420 189 L405 191 L386 201 L368 214 L358 225 L355 232 L350 239 L345 244 L328 255 L318 265 L294 297 L288 307 L277 330 L266 361 L262 377 L260 392 L259 393 L259 399 L258 400 L257 423 L256 424 L256 468 L257 472 L258 416 L259 415 L260 397 L261 396 L264 376 L275 340 L281 325 L293 302 L317 269 L331 255 L350 242 L356 234 L359 227 L366 218 L383 205 L398 196 L407 192 L415 192 L426 188 L433 181 L435 176 L441 169 L449 164 L453 163 Z M619 145 L619 146 L645 154 L664 164 L690 180 L686 176 L675 169 L646 153 L632 148 Z M484 144 L468 147 L463 149 L459 149 L445 157 L390 184 L377 192 L379 192 L383 189 L435 163 L441 161 L454 153 L473 147 L480 146 Z M519 120 L567 120 L568 121 L580 121 L581 122 L589 122 L590 123 L597 123 L598 124 L616 126 L621 128 L642 132 L677 143 L688 148 L703 150 L732 159 L751 170 L766 182 L819 235 L835 257 L846 277 L846 279 L848 281 L858 306 L858 309 L862 319 L868 343 L872 371 L873 372 L873 380 L874 381 L874 389 L875 390 L875 403 L876 404 L876 420 L877 421 L877 499 L876 500 L874 571 L870 575 L867 581 L865 589 L865 594 L864 595 L864 602 L863 603 L862 634 L861 635 L861 669 L860 670 L859 713 L858 714 L858 732 L857 733 L857 751 L856 752 L856 771 L855 772 L854 796 L853 797 L853 804 L852 805 L852 813 L851 814 L849 840 L847 848 L847 856 L845 863 L843 889 L842 890 L839 916 L837 922 L837 928 L836 929 L836 933 L835 934 L835 938 L829 964 L818 999 L808 1021 L808 1023 L793 1053 L783 1070 L766 1095 L755 1109 L727 1139 L703 1160 L687 1172 L660 1189 L622 1207 L611 1210 L605 1213 L602 1213 L579 1220 L599 1216 L623 1208 L628 1205 L635 1203 L673 1183 L709 1157 L725 1143 L750 1117 L769 1093 L784 1071 L805 1033 L805 1031 L817 1006 L818 1001 L822 993 L822 990 L824 987 L824 984 L829 971 L835 947 L839 924 L840 923 L842 930 L841 942 L840 943 L840 958 L843 969 L839 974 L836 989 L829 1009 L809 1052 L797 1073 L777 1103 L756 1128 L731 1153 L717 1165 L681 1191 L666 1200 L638 1214 L618 1222 L592 1230 L579 1232 L578 1233 L554 1235 L553 1236 L516 1235 L515 1234 L508 1234 L507 1233 L492 1231 L480 1227 L477 1227 L450 1217 L424 1204 L399 1188 L362 1158 L324 1119 L300 1086 L287 1061 L285 1059 L276 1040 L264 1010 L261 999 L259 996 L251 969 L246 962 L251 952 L252 943 L253 942 L253 933 L254 932 L257 942 L259 956 L264 976 L267 983 L267 986 L276 1012 L286 1034 L286 1036 L298 1059 L309 1077 L334 1111 L349 1128 L368 1147 L385 1162 L410 1181 L427 1192 L452 1205 L472 1213 L478 1214 L481 1216 L496 1219 L465 1209 L437 1196 L414 1182 L376 1152 L344 1120 L317 1086 L297 1054 L284 1027 L276 1007 L266 976 L261 956 L261 952 L259 947 L256 926 L255 925 L255 918 L254 917 L253 902 L252 901 L251 886 L250 885 L250 877 L249 876 L248 854 L247 853 L247 843 L246 842 L246 829 L245 828 L245 815 L244 814 L243 787 L242 786 L235 616 L234 615 L233 594 L232 593 L231 584 L229 580 L230 570 L229 569 L229 548 L228 547 L227 508 L226 507 L226 479 L225 478 L225 407 L226 406 L226 389 L227 388 L227 378 L228 377 L230 356 L232 351 L232 346 L236 330 L244 306 L256 280 L267 261 L286 235 L316 204 L342 183 L373 163 L403 148 L438 135 L441 135 L448 132 L468 127 L478 126 L484 124 L490 124 L491 123 L497 123 L498 122 L518 121 Z M519 117 L518 118 L507 118 L506 119 L498 119 L497 120 L478 122 L444 130 L412 141 L407 144 L398 147 L367 163 L345 177 L319 197 L308 207 L282 235 L262 263 L248 289 L248 291 L240 308 L229 346 L227 361 L226 362 L226 368 L225 369 L225 376 L224 377 L223 402 L222 403 L222 485 L223 486 L223 511 L224 512 L224 530 L225 531 L226 569 L227 570 L227 574 L226 575 L213 571 L199 571 L195 572 L185 577 L176 587 L170 602 L167 615 L167 621 L166 622 L165 647 L164 648 L164 673 L165 674 L164 675 L164 679 L165 680 L166 700 L167 701 L170 733 L172 741 L172 750 L173 751 L174 796 L175 797 L175 845 L176 846 L176 861 L177 862 L178 885 L179 886 L180 899 L181 900 L185 923 L191 942 L198 956 L206 964 L216 968 L228 968 L244 964 L246 966 L250 975 L250 978 L258 1003 L260 1006 L270 1034 L285 1066 L299 1090 L313 1110 L336 1137 L354 1155 L383 1180 L405 1196 L423 1207 L449 1220 L464 1225 L467 1227 L496 1235 L513 1237 L514 1238 L523 1238 L524 1239 L556 1239 L557 1238 L572 1237 L573 1236 L579 1236 L589 1233 L593 1233 L632 1220 L654 1209 L656 1209 L658 1207 L674 1199 L708 1176 L722 1165 L746 1143 L767 1120 L787 1094 L806 1064 L824 1029 L824 1027 L834 1005 L839 990 L842 975 L845 972 L849 972 L863 984 L875 988 L884 987 L889 985 L899 975 L905 963 L912 939 L912 934 L913 933 L913 926 L914 925 L915 876 L916 875 L916 853 L917 852 L918 824 L919 823 L920 800 L921 799 L925 754 L926 753 L927 737 L928 736 L928 729 L929 728 L929 721 L930 720 L930 712 L931 711 L931 704 L932 703 L932 694 L933 693 L933 684 L934 683 L934 670 L935 669 L935 614 L934 613 L934 605 L933 604 L931 590 L928 583 L922 575 L918 572 L906 567 L888 566 L879 569 L877 568 L878 532 L879 531 L879 504 L880 503 L880 417 L879 416 L878 389 L877 388 L877 380 L876 379 L876 372 L875 371 L873 352 L864 315 L851 280 L837 254 L819 230 L792 202 L766 178 L749 165 L728 154 L704 147 L689 145 L675 139 L650 131 L611 122 L591 120 L590 119 L582 119 L581 118 L569 118 L568 117 Z" fill="#eef3f4" fill-rule="evenodd"/>
</svg>
