<svg xmlns="http://www.w3.org/2000/svg" width="1086" height="1448" viewBox="0 0 1086 1448">
  <title>0124</title>
  <path d="M587 1298 L588 1297 L589 1298 L588 1299 Z M454 1295 L455 1294 L456 1295 L455 1296 Z M401 1295 L402 1294 L403 1295 L402 1296 Z M696 1294 L697 1293 L698 1294 L697 1295 Z M674 1290 L675 1289 L676 1290 L675 1291 Z M366 1280 L367 1279 L368 1280 L367 1281 Z M337 1269 L338 1270 L338 1280 L337 1281 L336 1280 L336 1270 Z M325 1250 L326 1251 L326 1271 L325 1272 L324 1271 L324 1251 Z M336 1245 L337 1246 L337 1269 L336 1270 L335 1269 L335 1246 Z M350 1242 L351 1243 L351 1271 L352 1272 L352 1280 L350 1282 L349 1281 L349 1243 Z M365 1239 L366 1240 L366 1258 L367 1259 L367 1279 L366 1280 L365 1279 L365 1262 L364 1261 L364 1240 Z M335 1227 L336 1228 L336 1245 L335 1246 L334 1245 L334 1228 Z M349 1222 L350 1223 L350 1240 L349 1241 L348 1240 L348 1223 Z M364 1219 L365 1220 L365 1238 L364 1239 L363 1238 L363 1220 Z M324 1217 L325 1218 L325 1233 L324 1234 L323 1233 L323 1218 Z M334 1207 L335 1208 L335 1224 L334 1225 L333 1224 L333 1208 Z M348 1202 L349 1203 L349 1221 L348 1222 L347 1221 L347 1203 Z M363 1199 L364 1200 L364 1217 L363 1218 L362 1217 L362 1200 Z M323 1195 L324 1196 L324 1210 L323 1211 L322 1210 L322 1196 Z M333 1187 L334 1188 L334 1202 L333 1203 L332 1202 L332 1188 Z M347 1182 L348 1183 L348 1200 L347 1201 L346 1200 L346 1183 Z M362 1178 L363 1179 L363 1197 L362 1198 L361 1197 L361 1179 Z M322 1172 L323 1173 L323 1186 L322 1187 L321 1186 L321 1173 Z M332 1166 L333 1167 L333 1180 L332 1181 L331 1180 L331 1167 Z M346 1162 L347 1163 L347 1179 L346 1180 L345 1179 L345 1163 Z M361 1156 L362 1157 L362 1176 L361 1177 L360 1176 L360 1157 Z M321 1150 L322 1151 L322 1165 L321 1166 L320 1165 L320 1151 Z M331 1137 L332 1138 L332 1153 L331 1154 L330 1153 L330 1138 Z M345 1135 L346 1136 L346 1159 L345 1160 L344 1159 L344 1136 Z M360 1128 L361 1129 L361 1152 L360 1153 L359 1152 L359 1129 Z M330 1114 L331 1115 L331 1123 L330 1124 L329 1123 L329 1115 Z M320 1110 L321 1111 L321 1134 L320 1135 L319 1134 L319 1111 Z M344 1099 L345 1100 L345 1133 L344 1134 L343 1133 L343 1100 Z M329 1085 L330 1086 L330 1093 L329 1094 L328 1093 L328 1086 Z M319 1069 L320 1070 L320 1098 L319 1099 L318 1098 L318 1070 Z M318 1037 L319 1036 L320 1037 L319 1038 Z M319 1018 L320 1019 L320 1032 L319 1033 L318 1032 L318 1019 Z M319 1010 L320 1011 L320 1015 L319 1016 L318 1015 L318 1011 Z M565 902 L567 904 L567 911 L566 912 L565 933 L564 934 L564 943 L563 944 L563 953 L562 954 L562 963 L561 964 L561 973 L560 974 L560 983 L559 984 L559 994 L558 995 L556 1034 L555 1035 L555 1055 L554 1056 L555 1155 L556 1156 L556 1176 L557 1177 L557 1196 L558 1197 L559 1226 L560 1227 L562 1265 L563 1266 L563 1277 L564 1278 L564 1288 L565 1289 L565 1293 L561 1294 L555 1292 L555 1287 L554 1286 L553 1251 L552 1250 L552 1234 L551 1233 L551 1213 L550 1212 L550 1194 L549 1193 L549 1167 L548 1166 L547 1072 L548 1071 L549 1034 L550 1033 L550 1019 L551 1018 L551 1007 L552 1006 L552 997 L553 996 L554 976 L555 975 L558 941 L559 940 L559 933 L560 932 L562 904 Z M584 901 L587 904 L587 906 L586 907 L586 919 L585 920 L585 931 L584 932 L584 941 L583 942 L581 981 L580 982 L580 997 L579 998 L578 1064 L579 1065 L579 1083 L580 1084 L580 1097 L581 1098 L581 1110 L582 1111 L582 1123 L583 1124 L583 1135 L584 1136 L584 1147 L585 1148 L585 1160 L586 1161 L589 1209 L590 1210 L593 1247 L594 1248 L598 1291 L599 1292 L599 1300 L600 1301 L599 1304 L593 1302 L590 1299 L589 1277 L588 1276 L588 1266 L587 1265 L587 1255 L586 1254 L586 1244 L585 1243 L583 1211 L582 1210 L582 1199 L581 1198 L581 1186 L580 1185 L579 1159 L578 1158 L577 1134 L576 1133 L576 1122 L575 1121 L575 1109 L574 1108 L573 1076 L572 1075 L573 1005 L574 1004 L575 979 L576 978 L576 968 L577 967 L580 927 L581 926 L582 904 Z M568 901 L581 901 L582 902 L580 907 L579 930 L578 931 L575 971 L574 972 L574 983 L573 984 L573 996 L572 997 L571 1035 L570 1036 L570 1063 L571 1064 L572 1103 L573 1104 L574 1129 L575 1130 L575 1141 L576 1142 L580 1206 L581 1207 L582 1229 L583 1230 L583 1240 L584 1241 L584 1251 L585 1252 L585 1262 L586 1263 L586 1273 L587 1274 L587 1285 L588 1286 L588 1297 L587 1298 L579 1294 L567 1294 L566 1293 L564 1260 L563 1259 L563 1247 L562 1246 L562 1234 L561 1233 L561 1220 L560 1219 L560 1205 L559 1204 L558 1167 L557 1166 L556 1092 L555 1091 L556 1089 L555 1088 L555 1083 L556 1082 L556 1045 L557 1044 L557 1028 L558 1027 L560 990 L561 989 L561 980 L562 979 L562 970 L563 969 L563 960 L564 959 L564 950 L565 949 L565 940 L566 939 L566 930 L567 929 L567 919 L568 918 L568 909 L569 908 L569 904 L567 902 Z M603 900 L606 902 L606 917 L605 918 L603 970 L602 971 L602 1004 L601 1005 L602 1050 L603 1051 L604 1081 L605 1082 L605 1095 L606 1096 L606 1108 L607 1109 L607 1122 L608 1123 L608 1136 L609 1137 L609 1150 L610 1151 L613 1198 L614 1199 L615 1219 L616 1220 L616 1229 L617 1230 L617 1238 L618 1239 L621 1279 L622 1280 L623 1297 L624 1298 L624 1302 L622 1304 L619 1303 L618 1288 L617 1287 L617 1280 L616 1279 L616 1272 L615 1271 L615 1264 L614 1263 L614 1254 L613 1253 L613 1244 L612 1243 L611 1224 L610 1223 L610 1214 L609 1213 L609 1203 L608 1202 L608 1193 L607 1192 L607 1182 L606 1181 L605 1159 L604 1158 L604 1147 L603 1146 L603 1135 L602 1134 L602 1123 L601 1122 L601 1111 L600 1110 L600 1098 L599 1097 L599 1086 L598 1085 L598 1072 L597 1071 L597 1056 L596 1055 L596 986 L597 985 L598 953 L599 952 L600 926 L601 925 L601 904 Z M594 900 L600 900 L601 901 L600 902 L599 932 L598 933 L596 976 L595 977 L595 995 L594 996 L595 1065 L596 1066 L597 1093 L598 1094 L599 1118 L600 1119 L600 1129 L601 1130 L601 1142 L602 1143 L602 1153 L603 1154 L603 1164 L604 1165 L604 1176 L605 1177 L606 1198 L607 1199 L607 1208 L608 1209 L608 1219 L609 1220 L610 1239 L611 1240 L611 1247 L612 1248 L612 1258 L613 1259 L613 1266 L615 1274 L615 1282 L617 1290 L617 1300 L618 1301 L617 1305 L603 1305 L601 1303 L598 1270 L597 1269 L597 1260 L596 1259 L595 1243 L594 1242 L593 1224 L592 1223 L592 1214 L591 1213 L589 1179 L588 1178 L588 1166 L587 1165 L587 1153 L586 1152 L586 1141 L585 1140 L585 1128 L584 1127 L584 1115 L583 1114 L583 1103 L582 1102 L581 1074 L580 1073 L579 1037 L580 1036 L580 1007 L581 1006 L583 962 L584 961 L585 938 L586 937 L586 928 L587 927 L588 902 Z M554 900 L562 902 L560 906 L558 936 L557 937 L555 963 L554 964 L554 972 L553 973 L553 981 L552 982 L552 991 L551 992 L551 1002 L550 1003 L550 1013 L549 1014 L549 1028 L548 1029 L548 1044 L547 1045 L547 1066 L546 1067 L547 1175 L548 1176 L548 1200 L549 1201 L549 1221 L550 1222 L550 1241 L551 1242 L553 1293 L528 1303 L524 1306 L523 1305 L523 1289 L524 1288 L526 1207 L527 1206 L527 1181 L528 1180 L528 1155 L529 1154 L529 1130 L530 1129 L530 1105 L531 1104 L531 1083 L532 1082 L533 1049 L534 1048 L535 1022 L536 1021 L536 1009 L537 1008 L540 967 L541 966 L542 950 L543 949 L543 942 L544 941 L544 934 L545 933 L545 926 L546 925 L546 918 L547 917 L547 910 L548 909 L548 902 L547 901 L548 900 Z M545 900 L547 905 L546 906 L545 923 L543 931 L543 939 L542 940 L542 947 L541 948 L541 955 L540 956 L540 965 L539 966 L539 973 L538 974 L537 994 L536 995 L535 1015 L534 1016 L534 1027 L533 1028 L533 1041 L532 1042 L531 1073 L530 1074 L528 1141 L527 1142 L527 1165 L526 1166 L526 1192 L525 1193 L525 1218 L524 1219 L523 1274 L522 1275 L522 1301 L521 1302 L521 1307 L520 1308 L516 1308 L515 1307 L515 1302 L516 1301 L517 1239 L518 1238 L519 1187 L520 1186 L521 1137 L522 1136 L522 1115 L523 1114 L525 1058 L526 1057 L526 1044 L527 1043 L527 1030 L528 1029 L530 996 L531 995 L533 968 L534 967 L534 960 L535 959 L535 952 L536 951 L536 944 L537 943 L537 935 L538 934 L539 921 L540 920 L541 903 Z M616 897 L620 898 L619 899 L619 903 L620 904 L620 1066 L621 1067 L623 1121 L624 1122 L624 1133 L625 1134 L625 1144 L626 1145 L626 1155 L627 1156 L627 1166 L628 1167 L630 1193 L631 1194 L631 1201 L632 1202 L633 1218 L635 1226 L638 1258 L639 1259 L640 1273 L641 1274 L642 1288 L643 1289 L643 1292 L640 1295 L636 1296 L626 1302 L624 1295 L624 1286 L623 1285 L623 1278 L622 1277 L622 1268 L621 1267 L621 1258 L620 1257 L620 1248 L619 1247 L619 1238 L618 1237 L618 1228 L617 1227 L617 1217 L616 1216 L616 1206 L615 1205 L615 1196 L614 1195 L612 1157 L611 1156 L611 1144 L610 1143 L610 1129 L609 1128 L607 1089 L606 1088 L605 1059 L604 1058 L604 1038 L603 1037 L603 986 L604 985 L604 963 L605 962 L607 907 L608 906 L608 902 L606 900 L610 898 L615 898 Z M623 896 L625 898 L626 902 L626 929 L627 930 L627 1048 L628 1049 L628 1074 L629 1075 L630 1109 L631 1110 L631 1122 L632 1123 L632 1134 L633 1135 L633 1145 L634 1146 L634 1157 L635 1158 L638 1195 L639 1196 L640 1212 L641 1213 L641 1220 L642 1221 L642 1228 L644 1236 L647 1264 L648 1265 L650 1284 L652 1291 L651 1293 L648 1293 L644 1291 L643 1276 L642 1275 L642 1269 L640 1261 L640 1254 L639 1253 L639 1246 L638 1245 L638 1238 L637 1237 L637 1230 L636 1229 L636 1222 L635 1221 L635 1214 L634 1213 L634 1206 L633 1205 L633 1198 L632 1197 L632 1190 L631 1189 L627 1141 L626 1140 L626 1129 L625 1128 L625 1120 L624 1119 L623 1087 L622 1086 L622 1065 L621 1064 L621 898 Z M527 896 L542 900 L540 902 L538 925 L537 926 L534 956 L533 957 L532 971 L531 972 L531 981 L530 982 L530 991 L529 992 L528 1011 L527 1012 L527 1022 L526 1023 L525 1048 L524 1049 L522 1101 L521 1102 L521 1123 L520 1124 L520 1147 L519 1148 L517 1221 L516 1222 L516 1250 L515 1251 L515 1278 L514 1279 L514 1305 L513 1306 L514 1307 L513 1308 L497 1308 L496 1305 L497 1304 L497 1289 L498 1288 L498 1273 L499 1272 L500 1241 L501 1240 L501 1224 L502 1223 L502 1205 L503 1204 L503 1185 L504 1184 L504 1164 L505 1163 L505 1142 L506 1141 L508 1087 L509 1086 L511 1048 L512 1047 L512 1037 L513 1036 L516 996 L517 995 L517 986 L518 985 L518 975 L519 974 L519 964 L520 963 L520 953 L521 952 L524 911 L525 910 L525 897 Z M522 896 L524 898 L524 902 L523 903 L521 936 L520 937 L519 957 L518 958 L517 978 L516 979 L516 989 L515 990 L515 999 L514 1000 L514 1010 L513 1011 L513 1020 L512 1021 L512 1030 L511 1031 L511 1040 L510 1041 L509 1064 L508 1065 L506 1109 L505 1110 L505 1129 L504 1130 L503 1170 L502 1171 L501 1211 L500 1212 L500 1229 L499 1230 L499 1246 L498 1247 L498 1263 L497 1264 L495 1306 L493 1307 L490 1304 L490 1301 L491 1300 L492 1255 L493 1254 L493 1233 L494 1232 L494 1213 L495 1212 L495 1194 L496 1193 L496 1175 L497 1174 L497 1156 L498 1155 L498 1134 L499 1133 L499 1112 L500 1111 L501 1078 L502 1077 L502 1065 L503 1064 L503 1053 L504 1052 L506 1022 L507 1021 L507 1013 L508 1012 L510 986 L511 985 L511 977 L512 976 L512 967 L513 966 L513 957 L514 956 L515 935 L516 934 L516 925 L517 924 L517 912 L518 911 L518 899 L520 896 Z M334 897 L335 896 L336 898 L335 899 Z M636 892 L639 893 L640 915 L641 916 L642 968 L643 969 L643 1028 L644 1029 L644 1054 L645 1055 L647 1098 L648 1099 L648 1110 L649 1111 L649 1119 L650 1120 L652 1151 L653 1152 L653 1160 L654 1161 L654 1169 L655 1170 L655 1178 L656 1179 L660 1223 L661 1224 L663 1247 L664 1248 L665 1262 L666 1263 L666 1271 L668 1279 L668 1288 L669 1289 L657 1292 L653 1291 L651 1274 L649 1267 L649 1261 L648 1260 L648 1254 L647 1253 L647 1247 L646 1246 L646 1239 L645 1238 L645 1231 L644 1230 L641 1200 L640 1199 L640 1191 L639 1190 L639 1182 L638 1181 L638 1173 L637 1172 L637 1163 L636 1162 L636 1151 L635 1150 L633 1116 L632 1115 L632 1103 L631 1102 L631 1086 L630 1085 L628 913 L627 912 L627 898 L625 896 Z M642 891 L645 893 L646 896 L647 926 L648 927 L648 950 L649 951 L649 973 L650 974 L650 1007 L651 1008 L651 1041 L652 1042 L652 1062 L653 1063 L655 1107 L656 1108 L656 1118 L657 1119 L657 1129 L658 1130 L658 1139 L659 1140 L659 1149 L660 1150 L663 1186 L664 1187 L666 1212 L667 1213 L669 1238 L670 1239 L670 1247 L671 1248 L672 1264 L673 1265 L674 1281 L675 1282 L675 1289 L674 1290 L670 1289 L670 1282 L668 1274 L668 1266 L667 1265 L666 1250 L664 1242 L663 1226 L662 1225 L661 1209 L660 1208 L659 1192 L658 1191 L658 1183 L657 1182 L657 1174 L656 1173 L656 1165 L655 1164 L652 1124 L651 1123 L651 1114 L650 1113 L650 1103 L649 1102 L649 1091 L648 1090 L647 1062 L646 1061 L646 1043 L645 1042 L644 952 L643 951 L643 925 L642 924 L642 908 L641 907 L641 892 Z M638 892 L639 891 L640 892 L639 893 Z M505 890 L520 895 L517 898 L517 903 L516 904 L516 917 L515 918 L514 939 L513 940 L513 949 L512 950 L512 960 L511 961 L510 980 L509 981 L508 999 L507 1000 L507 1008 L506 1009 L505 1026 L504 1027 L504 1035 L503 1036 L503 1045 L502 1046 L502 1056 L501 1057 L500 1084 L499 1085 L499 1098 L498 1099 L498 1119 L497 1120 L497 1142 L496 1143 L495 1182 L494 1183 L494 1201 L493 1202 L493 1220 L492 1221 L492 1240 L491 1241 L489 1303 L487 1304 L485 1302 L477 1300 L475 1298 L475 1293 L476 1292 L476 1274 L477 1273 L478 1239 L479 1238 L479 1218 L480 1217 L480 1200 L481 1199 L481 1182 L482 1181 L483 1136 L484 1135 L484 1104 L485 1103 L486 1071 L487 1070 L489 1038 L490 1037 L490 1030 L491 1029 L491 1022 L492 1021 L492 1014 L493 1013 L495 990 L496 989 L496 981 L497 980 L497 971 L498 970 L500 936 L501 935 L501 923 L502 922 L502 910 L503 909 L503 896 L504 895 L503 891 Z M500 889 L502 892 L502 899 L501 900 L501 914 L500 915 L500 927 L499 928 L499 939 L498 940 L498 952 L497 953 L494 993 L493 994 L492 1009 L491 1010 L489 1032 L488 1033 L488 1041 L487 1042 L487 1050 L486 1051 L486 1062 L485 1063 L485 1075 L484 1076 L483 1115 L482 1116 L482 1146 L481 1147 L481 1168 L480 1169 L480 1188 L479 1189 L479 1207 L478 1208 L478 1226 L477 1227 L477 1246 L476 1247 L474 1297 L472 1298 L469 1296 L470 1295 L470 1269 L471 1268 L471 1251 L472 1250 L472 1219 L473 1218 L473 1197 L474 1196 L474 1175 L475 1174 L475 1153 L476 1152 L476 1121 L477 1120 L478 1075 L479 1074 L479 1063 L480 1062 L482 1033 L483 1032 L484 1017 L485 1016 L488 988 L489 987 L489 979 L490 978 L490 970 L491 969 L491 958 L492 957 L492 946 L493 945 L493 934 L494 933 L494 920 L495 919 L495 906 L496 905 L496 892 L498 889 Z M336 885 L337 886 L336 890 L335 889 Z M658 884 L660 885 L662 915 L663 916 L663 927 L664 928 L664 939 L665 940 L665 955 L666 956 L667 996 L668 997 L668 1029 L669 1030 L669 1060 L670 1061 L670 1084 L671 1085 L672 1115 L673 1116 L673 1128 L674 1129 L677 1174 L678 1175 L682 1223 L683 1224 L684 1242 L685 1243 L685 1253 L686 1254 L687 1272 L688 1273 L688 1281 L689 1282 L689 1290 L688 1291 L678 1291 L677 1290 L674 1260 L673 1259 L673 1251 L672 1250 L672 1242 L671 1241 L671 1233 L670 1232 L670 1225 L669 1224 L669 1216 L668 1215 L668 1208 L667 1207 L667 1199 L666 1198 L666 1190 L665 1189 L665 1182 L664 1181 L664 1174 L663 1173 L663 1164 L662 1163 L662 1154 L661 1153 L661 1144 L660 1143 L660 1134 L659 1133 L659 1124 L658 1123 L658 1113 L657 1112 L657 1100 L656 1099 L654 1052 L653 1051 L652 990 L651 989 L649 916 L648 915 L647 892 L644 890 Z M663 882 L666 884 L667 888 L669 919 L670 920 L672 963 L673 964 L673 982 L674 983 L675 1029 L676 1030 L676 1051 L677 1052 L679 1106 L680 1107 L680 1119 L681 1120 L681 1132 L682 1133 L682 1144 L683 1145 L685 1176 L686 1177 L690 1225 L691 1226 L691 1234 L692 1235 L692 1243 L693 1244 L693 1252 L694 1253 L694 1263 L695 1264 L695 1272 L696 1273 L696 1283 L697 1284 L697 1293 L696 1294 L691 1291 L691 1287 L690 1286 L690 1277 L689 1276 L689 1267 L688 1266 L688 1258 L687 1257 L684 1217 L683 1216 L682 1198 L681 1197 L680 1179 L679 1178 L676 1134 L675 1133 L673 1092 L672 1091 L672 1073 L671 1072 L668 964 L667 963 L667 947 L666 946 L666 933 L665 932 L665 922 L664 921 L663 899 L662 898 L662 890 L661 889 L661 885 Z M555 883 L556 882 L585 882 L586 883 L585 884 L556 884 Z M485 882 L498 888 L495 890 L495 896 L494 897 L494 910 L493 911 L493 925 L492 926 L489 973 L488 974 L486 998 L485 999 L485 1005 L484 1006 L484 1012 L482 1020 L480 1045 L479 1046 L479 1055 L478 1056 L478 1068 L477 1069 L476 1103 L475 1104 L474 1164 L473 1165 L471 1235 L470 1236 L470 1262 L469 1263 L469 1287 L468 1288 L468 1296 L467 1297 L461 1297 L457 1295 L457 1241 L458 1240 L458 1199 L459 1198 L459 1166 L460 1165 L461 1071 L462 1070 L462 1057 L463 1056 L463 1045 L464 1044 L466 1021 L467 1020 L467 1014 L469 1007 L471 987 L473 981 L473 975 L474 974 L475 961 L477 953 L477 946 L478 945 L480 916 L481 915 L481 902 L482 901 L482 884 Z M588 882 L589 881 L598 881 L599 882 L598 883 L589 883 Z M544 882 L545 881 L553 881 L554 882 L553 883 L545 883 Z M482 882 L483 881 L484 882 L483 883 Z M599 881 L600 880 L606 880 L607 881 L606 882 L600 882 Z M535 881 L536 880 L541 880 L542 881 L541 882 L536 882 Z M479 880 L481 882 L481 892 L480 893 L480 907 L479 908 L477 940 L476 941 L476 949 L475 950 L469 998 L467 1005 L467 1012 L465 1019 L465 1026 L464 1027 L464 1034 L463 1035 L463 1042 L462 1043 L462 1053 L461 1054 L461 1067 L460 1068 L460 1085 L459 1086 L460 1088 L459 1090 L459 1151 L458 1152 L458 1186 L457 1187 L457 1220 L456 1221 L456 1290 L455 1294 L452 1295 L451 1294 L451 1199 L452 1198 L453 1108 L454 1107 L455 1060 L456 1059 L456 1048 L457 1047 L459 1022 L460 1021 L460 1015 L461 1014 L461 1009 L464 996 L464 990 L465 989 L468 963 L469 962 L469 955 L470 954 L472 926 L473 925 L473 913 L474 912 L474 901 L475 900 L475 887 L476 886 L476 881 Z M608 880 L609 879 L613 880 L612 881 Z M529 880 L530 879 L534 880 L533 881 Z M614 879 L615 878 L619 879 L618 880 Z M524 879 L525 878 L528 879 L527 880 Z M619 878 L620 877 L624 878 L623 879 Z M519 878 L520 877 L523 878 L522 879 Z M624 877 L625 876 L628 877 L627 878 Z M515 877 L516 876 L519 877 L518 878 Z M629 876 L630 875 L632 876 L631 877 Z M511 876 L512 875 L514 876 L513 877 Z M632 875 L633 874 L636 875 L635 876 Z M507 875 L508 874 L511 875 L510 876 Z M337 874 L338 875 L338 879 L337 880 L336 879 L336 875 Z M679 873 L681 874 L680 875 L681 876 L682 892 L683 893 L685 925 L686 926 L686 939 L687 940 L687 952 L688 953 L688 967 L689 968 L689 982 L690 983 L691 1032 L692 1033 L693 1079 L694 1080 L695 1109 L696 1110 L697 1136 L698 1137 L700 1174 L701 1175 L702 1201 L703 1202 L706 1246 L707 1247 L707 1256 L708 1257 L708 1266 L709 1267 L709 1279 L710 1280 L710 1292 L711 1293 L710 1297 L700 1296 L698 1291 L698 1282 L697 1281 L697 1272 L696 1271 L696 1262 L695 1261 L695 1252 L694 1251 L694 1241 L693 1240 L690 1201 L689 1200 L687 1172 L686 1171 L683 1126 L682 1125 L680 1081 L679 1080 L679 1060 L678 1059 L678 1038 L677 1037 L677 1014 L676 1013 L676 991 L675 990 L673 938 L672 937 L672 925 L671 924 L669 891 L668 890 L668 885 L665 881 Z M636 874 L637 873 L640 874 L639 875 Z M504 874 L505 873 L507 874 L506 875 Z M640 873 L641 872 L643 873 L642 874 Z M501 873 L502 872 L504 873 L503 874 Z M683 871 L685 871 L687 873 L687 877 L688 878 L690 900 L691 901 L692 921 L693 922 L694 946 L695 947 L694 948 L695 949 L696 978 L697 979 L697 1000 L698 1001 L698 1023 L699 1024 L699 1047 L700 1048 L702 1097 L703 1098 L704 1125 L705 1126 L708 1175 L709 1176 L709 1188 L710 1189 L710 1201 L711 1202 L711 1214 L712 1215 L712 1227 L713 1228 L713 1240 L714 1241 L714 1252 L715 1253 L715 1265 L716 1266 L717 1288 L718 1289 L718 1295 L715 1297 L712 1296 L711 1272 L710 1271 L710 1262 L709 1261 L709 1252 L708 1251 L708 1242 L707 1241 L705 1209 L704 1208 L704 1200 L703 1199 L703 1183 L702 1182 L701 1159 L700 1158 L700 1147 L699 1146 L699 1135 L698 1134 L698 1120 L697 1119 L697 1107 L696 1106 L696 1094 L695 1093 L695 1076 L694 1075 L694 1057 L693 1056 L691 978 L690 977 L690 962 L689 961 L686 908 L685 907 L685 898 L684 897 L683 879 L682 878 L682 872 Z M643 872 L644 871 L646 872 L645 873 Z M497 872 L498 871 L500 872 L499 873 Z M647 871 L648 870 L649 871 L648 872 Z M495 871 L496 870 L497 871 L496 872 Z M463 870 L475 877 L476 879 L474 882 L472 922 L471 923 L471 933 L470 934 L468 960 L467 961 L465 982 L464 983 L462 1001 L461 1002 L458 1026 L457 1027 L457 1033 L456 1034 L456 1043 L455 1044 L455 1052 L454 1053 L454 1067 L453 1068 L452 1130 L451 1131 L451 1173 L450 1174 L450 1214 L449 1215 L449 1294 L446 1296 L442 1296 L438 1298 L437 1297 L437 1267 L438 1266 L439 1069 L440 1068 L440 1054 L441 1053 L443 1023 L444 1022 L445 1009 L446 1008 L449 984 L451 977 L451 970 L452 969 L454 947 L455 946 L455 938 L456 937 L456 930 L457 929 L460 885 L461 884 L461 874 L462 873 L461 871 Z M649 870 L650 869 L652 870 L651 871 Z M492 870 L493 869 L494 870 L493 871 Z M652 869 L653 868 L655 869 L654 870 Z M489 869 L490 868 L492 869 L491 870 Z M655 868 L656 867 L658 868 L657 869 Z M487 868 L488 867 L489 868 L488 869 Z M458 867 L460 869 L460 881 L459 882 L456 925 L455 926 L455 934 L453 942 L453 950 L452 951 L452 958 L451 959 L451 966 L449 973 L447 993 L445 999 L442 1025 L441 1026 L440 1045 L439 1046 L439 1059 L438 1060 L438 1077 L437 1078 L437 1171 L436 1172 L436 1298 L433 1299 L432 1298 L432 1184 L433 1183 L433 1074 L434 1073 L434 1053 L435 1052 L435 1040 L436 1039 L437 1021 L438 1020 L438 1014 L439 1013 L439 1007 L440 1006 L440 1000 L442 993 L442 987 L443 986 L446 960 L447 959 L447 952 L448 951 L448 944 L449 943 L455 869 Z M658 867 L659 866 L660 867 L659 868 Z M484 867 L485 866 L487 867 L486 868 Z M660 866 L661 865 L663 866 L662 867 Z M482 866 L483 865 L484 866 L483 867 Z M663 865 L664 864 L666 865 L665 866 Z M479 865 L480 864 L482 865 L481 866 Z M338 864 L339 865 L339 870 L338 871 L337 870 L337 865 Z M665 864 L666 863 L668 864 L667 865 Z M477 864 L478 863 L479 864 L478 865 Z M668 863 L669 862 L670 863 L669 864 Z M475 863 L476 862 L477 863 L476 864 Z M670 862 L671 861 L673 862 L672 863 Z M473 862 L474 861 L475 862 L474 863 Z M672 861 L673 860 L675 861 L674 862 Z M471 861 L472 860 L473 861 L472 862 Z M674 860 L675 859 L677 860 L676 861 Z M469 860 L470 859 L471 860 L470 861 Z M701 858 L702 859 L702 865 L704 872 L704 880 L705 881 L705 889 L706 890 L706 898 L707 899 L707 910 L708 911 L708 923 L709 924 L711 974 L712 975 L712 997 L713 998 L713 1025 L714 1026 L716 1088 L717 1089 L717 1104 L718 1105 L718 1118 L719 1119 L720 1145 L721 1146 L721 1161 L722 1162 L722 1177 L723 1178 L723 1193 L724 1194 L724 1209 L725 1210 L725 1226 L726 1227 L726 1242 L727 1243 L728 1273 L729 1274 L729 1293 L724 1296 L721 1296 L719 1292 L716 1246 L715 1245 L715 1234 L714 1233 L714 1221 L713 1220 L713 1208 L712 1207 L712 1195 L711 1194 L711 1182 L710 1181 L710 1168 L709 1167 L709 1156 L708 1155 L708 1144 L707 1143 L707 1132 L706 1131 L706 1120 L705 1119 L705 1106 L704 1105 L704 1094 L703 1093 L701 1045 L700 1044 L700 1022 L699 1021 L698 975 L697 974 L697 958 L696 957 L694 919 L693 918 L693 907 L692 906 L692 897 L691 896 L689 875 L688 872 L685 870 Z M676 859 L677 858 L679 859 L678 860 Z M467 859 L468 858 L469 859 L468 860 Z M679 858 L680 857 L681 858 L680 859 Z M465 858 L466 857 L467 858 L466 859 Z M705 856 L708 858 L709 867 L710 868 L713 900 L714 901 L714 911 L715 912 L716 940 L717 941 L717 958 L718 959 L718 976 L719 977 L719 999 L720 1000 L720 1023 L721 1024 L721 1044 L722 1045 L723 1077 L724 1078 L725 1106 L726 1107 L727 1135 L728 1136 L728 1150 L729 1151 L729 1168 L730 1169 L731 1202 L732 1203 L732 1222 L733 1223 L734 1256 L735 1257 L735 1273 L736 1274 L736 1290 L734 1292 L731 1291 L731 1282 L730 1281 L730 1264 L729 1263 L729 1249 L728 1248 L728 1233 L727 1232 L727 1216 L726 1215 L725 1185 L724 1184 L723 1152 L722 1151 L719 1095 L718 1094 L718 1078 L717 1077 L717 1060 L716 1059 L715 1010 L714 1009 L714 987 L713 986 L711 932 L710 931 L710 918 L709 917 L707 887 L706 886 L706 879 L705 878 L705 872 L703 864 L703 858 Z M681 857 L682 856 L683 857 L682 858 Z M463 857 L464 856 L465 857 L464 858 Z M443 856 L457 866 L454 868 L453 871 L453 882 L452 883 L452 893 L451 894 L448 938 L447 939 L445 962 L444 963 L442 983 L441 984 L437 1016 L436 1017 L436 1023 L435 1024 L434 1044 L433 1045 L432 1087 L431 1088 L431 1299 L430 1300 L423 1300 L421 1298 L420 1168 L419 1167 L419 1111 L418 1110 L419 1054 L420 1053 L420 1039 L421 1038 L421 1027 L422 1026 L423 1010 L424 1009 L424 1003 L425 1002 L426 990 L427 989 L427 984 L428 983 L428 978 L429 977 L429 972 L432 959 L432 953 L433 952 L433 945 L434 944 L437 908 L438 907 L439 885 L440 884 L441 862 Z M683 856 L684 855 L685 856 L684 857 Z M461 856 L462 855 L463 856 L462 857 Z M339 855 L340 856 L339 860 L338 859 Z M685 855 L686 854 L687 855 L686 856 Z M459 855 L460 854 L461 855 L460 856 Z M686 854 L687 853 L688 854 L687 855 Z M457 854 L458 853 L459 854 L458 855 Z M688 853 L689 852 L690 853 L689 854 Z M438 852 L440 854 L440 865 L439 866 L436 911 L435 912 L435 921 L434 922 L431 955 L430 956 L429 968 L427 974 L426 986 L425 987 L422 1012 L421 1013 L421 1019 L420 1020 L419 1043 L418 1044 L418 1065 L417 1066 L417 1145 L418 1146 L419 1278 L420 1279 L420 1298 L419 1299 L417 1297 L418 1296 L417 1297 L416 1296 L416 1276 L415 1275 L415 1227 L414 1226 L414 1180 L413 1179 L413 1067 L414 1066 L414 1046 L415 1045 L417 1013 L418 1012 L420 991 L421 990 L423 972 L426 959 L427 945 L428 944 L430 920 L431 919 L431 910 L432 909 L432 900 L433 899 L435 861 L436 860 L436 854 Z M690 852 L691 851 L692 852 L691 853 Z M692 851 L693 850 L694 851 L693 852 Z M452 851 L453 850 L454 851 L453 852 Z M694 850 L695 849 L696 850 L695 851 Z M695 849 L696 848 L697 849 L696 850 Z M697 848 L698 847 L699 848 L698 849 Z M447 848 L448 847 L449 848 L448 849 Z M340 847 L341 848 L340 852 L339 851 Z M700 846 L701 845 L702 846 L701 847 Z M702 845 L703 844 L704 845 L703 846 Z M721 842 L722 843 L724 860 L726 867 L728 891 L729 892 L729 902 L730 903 L730 916 L731 917 L736 1056 L737 1057 L737 1073 L738 1074 L739 1104 L740 1105 L740 1117 L741 1118 L742 1148 L743 1149 L743 1163 L744 1164 L744 1178 L745 1179 L745 1195 L746 1196 L746 1211 L747 1212 L747 1228 L748 1229 L748 1245 L749 1246 L749 1261 L750 1262 L750 1278 L751 1279 L750 1283 L739 1289 L738 1288 L738 1281 L737 1280 L737 1263 L736 1262 L736 1245 L735 1244 L735 1229 L734 1228 L732 1174 L731 1173 L730 1142 L729 1141 L729 1127 L728 1126 L728 1112 L727 1111 L725 1068 L724 1067 L724 1052 L723 1051 L721 986 L720 985 L720 965 L719 964 L717 917 L716 916 L716 905 L715 904 L715 896 L714 895 L714 887 L713 886 L713 879 L711 871 L711 864 L710 863 L710 858 L707 855 L711 850 Z M706 842 L707 841 L708 842 L707 843 Z M724 839 L726 839 L728 841 L730 859 L732 866 L732 873 L733 874 L735 902 L736 903 L736 914 L737 915 L739 968 L740 969 L740 986 L741 987 L741 1006 L742 1007 L742 1025 L743 1026 L743 1044 L744 1045 L745 1075 L746 1076 L746 1089 L747 1090 L749 1142 L750 1143 L750 1162 L751 1163 L751 1182 L752 1183 L754 1233 L755 1234 L756 1266 L757 1267 L757 1280 L756 1281 L752 1280 L752 1268 L751 1267 L748 1202 L747 1201 L747 1184 L746 1183 L743 1123 L742 1122 L740 1079 L739 1078 L739 1063 L738 1062 L738 1045 L737 1044 L736 991 L735 990 L735 966 L734 965 L732 908 L731 907 L731 896 L730 895 L727 863 L726 862 L725 851 L723 845 L723 840 Z M424 839 L437 851 L434 855 L429 923 L428 924 L425 955 L424 956 L423 968 L422 969 L419 993 L418 994 L418 1000 L417 1001 L417 1007 L416 1008 L414 1035 L413 1036 L412 1082 L411 1083 L411 1157 L412 1158 L414 1296 L413 1297 L405 1297 L404 1296 L404 1284 L403 1283 L402 1219 L401 1218 L400 1167 L399 1166 L399 1066 L400 1065 L400 1046 L401 1045 L401 1030 L402 1029 L403 1009 L404 1008 L404 1000 L405 999 L407 978 L409 971 L409 965 L410 964 L410 959 L411 958 L411 953 L412 952 L412 947 L415 934 L415 928 L416 927 L417 912 L418 911 L420 879 L421 878 L422 851 L423 850 L423 840 Z M341 839 L342 840 L341 843 L340 842 Z M420 836 L422 838 L422 843 L421 844 L421 857 L420 858 L420 869 L419 870 L419 883 L418 884 L416 915 L415 916 L412 943 L411 944 L411 949 L410 950 L410 955 L409 956 L409 961 L406 974 L406 980 L404 987 L402 1012 L401 1013 L401 1023 L400 1024 L400 1036 L399 1037 L399 1053 L398 1054 L397 1150 L398 1151 L398 1180 L399 1181 L401 1268 L402 1269 L402 1294 L401 1295 L399 1293 L398 1247 L397 1246 L396 1203 L395 1202 L395 1182 L394 1181 L394 1146 L393 1145 L394 1061 L395 1060 L395 1041 L396 1040 L396 1026 L397 1025 L399 993 L400 992 L402 971 L403 970 L404 958 L405 957 L408 933 L410 926 L410 919 L411 918 L413 890 L414 889 L414 876 L415 875 L417 838 Z M732 825 L733 827 L725 835 L723 833 Z M732 825 L733 824 L734 825 L733 826 Z M733 824 L734 823 L735 824 L734 825 Z M413 824 L414 823 L428 836 L449 851 L477 866 L507 877 L523 881 L541 883 L542 884 L550 884 L551 885 L590 885 L591 884 L600 884 L601 883 L608 883 L609 882 L624 880 L640 875 L643 875 L658 870 L677 861 L679 861 L702 848 L722 833 L725 835 L712 848 L690 865 L672 876 L646 888 L634 892 L608 898 L590 899 L589 900 L558 900 L557 899 L540 898 L539 897 L529 896 L501 888 L477 877 L456 864 L439 851 L419 832 Z M734 823 L735 822 L736 823 L735 824 Z M412 823 L413 822 L414 823 L413 824 Z M735 822 L736 821 L737 822 L736 823 Z M411 822 L412 821 L413 822 L412 823 Z M736 821 L737 820 L738 821 L737 822 Z M410 821 L411 820 L412 821 L411 822 Z M737 820 L738 819 L739 820 L738 821 Z M409 820 L410 819 L411 820 L410 821 Z M406 819 L415 829 L418 834 L416 836 L416 841 L415 842 L411 904 L410 905 L408 929 L407 930 L405 948 L402 961 L402 967 L400 974 L399 988 L398 989 L396 1019 L395 1020 L395 1032 L394 1033 L394 1049 L393 1050 L392 1160 L393 1161 L394 1215 L395 1216 L397 1280 L398 1281 L398 1292 L397 1293 L385 1284 L386 1283 L385 1282 L384 1234 L383 1233 L383 1215 L382 1214 L382 1197 L381 1196 L381 1179 L380 1178 L380 1157 L379 1156 L379 1090 L380 1089 L381 1037 L382 1036 L382 1023 L383 1022 L385 988 L386 987 L386 978 L387 977 L387 970 L388 969 L388 961 L389 960 L392 932 L394 926 L394 920 L395 919 L397 899 L398 898 L400 871 L401 870 L402 847 L403 846 L403 837 L404 836 L404 827 Z M743 818 L745 820 L746 831 L747 832 L749 862 L750 863 L750 875 L751 876 L752 918 L753 919 L753 951 L754 952 L754 969 L755 970 L757 1015 L758 1016 L758 1030 L759 1031 L759 1047 L760 1048 L762 1108 L763 1109 L765 1169 L766 1170 L766 1190 L767 1191 L767 1210 L768 1211 L768 1231 L769 1232 L770 1260 L771 1261 L770 1262 L771 1265 L771 1276 L762 1279 L759 1278 L758 1257 L757 1256 L757 1241 L756 1240 L754 1190 L753 1189 L753 1171 L752 1170 L752 1151 L751 1150 L749 1096 L748 1095 L746 1050 L745 1049 L745 1033 L744 1032 L744 1014 L743 1013 L743 995 L742 994 L742 976 L741 975 L741 957 L740 956 L738 908 L737 907 L736 886 L735 885 L735 877 L734 876 L729 840 L726 837 Z M408 819 L409 818 L410 819 L409 820 Z M743 818 L744 817 L745 818 L744 819 Z M407 818 L408 817 L409 818 L408 819 Z M402 815 L404 818 L404 822 L403 823 L402 841 L401 842 L399 876 L398 877 L396 902 L395 903 L392 930 L390 937 L387 966 L386 967 L386 975 L385 976 L385 983 L384 984 L384 995 L383 996 L381 1031 L380 1032 L380 1046 L379 1047 L379 1070 L378 1071 L378 1166 L379 1167 L379 1186 L380 1187 L380 1201 L381 1202 L382 1234 L383 1235 L383 1255 L384 1256 L384 1281 L385 1282 L382 1283 L381 1282 L381 1267 L380 1266 L380 1246 L379 1245 L378 1210 L377 1209 L376 1175 L375 1174 L375 1152 L374 1151 L375 1060 L376 1059 L376 1041 L377 1040 L377 1027 L378 1026 L378 1013 L379 1012 L379 1000 L380 999 L382 966 L383 965 L384 949 L385 948 L386 934 L387 933 L387 927 L388 926 L389 913 L391 905 L393 881 L394 880 L399 817 Z M748 812 L751 814 L752 823 L753 824 L756 856 L757 857 L758 884 L759 885 L760 958 L761 959 L762 988 L763 989 L763 998 L764 999 L764 1012 L765 1013 L765 1026 L766 1027 L766 1044 L767 1045 L767 1063 L768 1064 L768 1082 L769 1083 L771 1160 L772 1161 L772 1189 L773 1190 L774 1233 L775 1234 L775 1252 L776 1253 L776 1269 L777 1270 L777 1276 L776 1277 L772 1275 L772 1260 L771 1259 L771 1244 L770 1243 L767 1158 L766 1157 L764 1097 L763 1096 L763 1074 L762 1073 L761 1038 L760 1037 L759 1006 L758 1005 L756 960 L755 959 L753 882 L752 881 L752 868 L751 867 L749 836 L748 835 L747 822 L745 816 Z M564 812 L567 810 L572 812 L571 813 L565 813 Z M563 809 L564 808 L565 809 L564 810 Z M331 800 L332 799 L333 801 L332 802 Z M645 797 L646 796 L647 797 L646 798 Z M389 796 L401 813 L398 816 L398 821 L397 822 L392 886 L391 887 L388 918 L387 919 L385 938 L384 939 L383 954 L381 961 L378 1005 L377 1006 L377 1018 L376 1019 L376 1031 L375 1032 L374 1068 L373 1069 L372 1139 L373 1140 L373 1166 L374 1167 L374 1185 L375 1186 L375 1202 L376 1203 L376 1219 L377 1220 L377 1236 L378 1237 L378 1256 L379 1257 L380 1282 L379 1283 L370 1283 L369 1282 L369 1270 L368 1269 L368 1248 L367 1247 L367 1231 L366 1230 L364 1167 L363 1166 L363 1143 L362 1142 L362 1052 L363 1051 L363 1031 L364 1030 L364 1015 L365 1014 L365 1000 L366 999 L366 986 L367 985 L369 952 L370 951 L371 934 L372 933 L374 909 L375 908 L375 901 L376 900 L376 892 L377 891 L377 883 L378 882 L378 874 L379 873 L379 864 L380 863 L383 830 L384 829 L385 816 L386 815 L387 803 Z M347 795 L348 796 L347 799 L346 798 Z M762 792 L765 800 L767 816 L768 817 L770 842 L772 848 L773 874 L774 875 L775 915 L776 916 L776 932 L777 933 L779 988 L780 989 L780 1011 L781 1012 L781 1036 L782 1037 L782 1068 L783 1069 L783 1101 L784 1102 L786 1194 L787 1195 L788 1247 L789 1248 L789 1267 L790 1268 L790 1277 L789 1278 L779 1277 L778 1276 L778 1267 L777 1266 L775 1211 L774 1210 L774 1188 L773 1187 L773 1158 L772 1157 L772 1128 L771 1127 L769 1055 L768 1054 L767 1020 L766 1019 L766 1006 L765 1005 L765 994 L764 993 L764 982 L763 981 L763 966 L762 965 L762 949 L761 948 L760 875 L759 874 L758 851 L757 850 L757 842 L756 841 L754 821 L752 813 L749 810 Z M387 792 L388 794 L385 807 L382 835 L380 843 L378 868 L377 869 L377 878 L376 879 L375 896 L374 897 L373 911 L372 912 L372 920 L371 921 L371 928 L370 929 L370 936 L369 937 L369 946 L368 947 L368 954 L367 955 L366 977 L365 978 L363 1018 L362 1019 L362 1037 L361 1038 L360 1123 L359 1124 L358 1123 L358 1061 L359 1060 L359 1030 L360 1029 L360 1010 L361 1009 L361 993 L362 992 L363 967 L364 966 L365 945 L366 944 L366 937 L367 936 L367 929 L368 928 L368 921 L369 920 L369 913 L370 912 L370 905 L371 904 L371 896 L372 895 L372 887 L373 886 L373 878 L374 877 L374 869 L375 868 L375 860 L376 859 L376 852 L377 851 L379 826 L380 825 L380 819 L381 818 L384 794 Z M332 793 L333 792 L334 793 L333 794 Z M483 792 L484 791 L492 791 L495 797 L494 798 L489 796 Z M481 791 L482 790 L484 791 L483 792 Z M661 790 L648 797 L646 796 L650 790 L656 790 L657 789 Z M765 788 L768 790 L768 794 L772 810 L772 815 L773 816 L774 828 L775 829 L775 837 L776 838 L777 854 L778 855 L778 865 L779 866 L779 877 L780 878 L780 892 L781 893 L782 927 L783 928 L784 960 L785 961 L785 981 L786 982 L787 1031 L788 1032 L790 1145 L791 1146 L791 1190 L792 1191 L792 1219 L793 1220 L794 1266 L795 1267 L795 1278 L794 1279 L791 1277 L790 1237 L789 1236 L789 1210 L788 1209 L788 1184 L787 1183 L787 1151 L786 1150 L786 1118 L785 1117 L785 1088 L784 1087 L784 1060 L783 1059 L783 1028 L782 1027 L782 1008 L781 1007 L778 928 L777 927 L777 912 L776 911 L775 872 L774 871 L774 859 L773 858 L773 848 L772 847 L770 822 L769 821 L767 803 L764 794 L764 789 Z M660 789 L661 788 L663 789 L662 790 Z M488 788 L489 787 L490 788 L489 789 Z M570 785 L571 786 L571 797 L572 798 L572 806 L573 807 L572 810 L569 808 L569 786 Z M566 785 L567 786 L567 807 L565 809 L564 808 L564 798 L565 797 L565 786 Z M333 786 L334 785 L335 787 L334 788 Z M571 784 L572 783 L575 784 L574 785 Z M496 782 L497 783 L497 787 L495 793 L494 792 L494 786 Z M644 780 L648 789 L646 792 L644 789 L644 785 L643 784 Z M497 779 L498 780 L497 783 L496 782 Z M334 780 L335 779 L336 780 L335 781 Z M643 777 L644 778 L643 781 L642 780 Z M497 777 L498 776 L499 777 L498 778 Z M641 775 L642 774 L643 776 L642 777 Z M495 773 L496 777 L493 784 L493 787 L490 788 L489 785 Z M375 773 L386 790 L383 793 L380 817 L378 824 L378 830 L377 831 L377 837 L376 838 L376 847 L374 855 L370 899 L369 900 L369 907 L368 908 L368 915 L367 916 L367 923 L366 924 L366 931 L365 932 L365 939 L364 940 L362 970 L361 971 L361 983 L360 984 L359 1016 L358 1017 L358 1038 L357 1039 L357 1140 L358 1141 L358 1166 L359 1167 L360 1210 L361 1211 L362 1249 L363 1250 L363 1278 L364 1279 L363 1280 L354 1280 L353 1279 L353 1253 L352 1252 L352 1230 L351 1229 L349 1172 L348 1171 L348 1148 L347 1147 L347 1117 L346 1116 L346 1022 L347 1021 L348 981 L349 980 L349 965 L350 964 L352 930 L353 929 L355 905 L356 904 L356 897 L358 889 L358 882 L359 881 L359 874 L360 873 L360 866 L361 865 L361 858 L363 850 L363 843 L365 835 L368 807 L369 806 L370 795 L371 794 L372 784 Z M335 774 L336 773 L337 774 L336 775 Z M640 772 L641 771 L642 773 L641 774 Z M639 772 L643 788 L643 796 L637 802 L628 806 L620 807 L615 809 L610 809 L609 810 L603 810 L602 811 L580 812 L574 810 L573 792 L572 791 L572 787 L573 786 L589 784 L595 782 L603 782 L623 777 L637 771 Z M501 772 L502 771 L512 776 L515 776 L522 779 L539 783 L553 784 L554 785 L562 785 L564 783 L565 784 L563 791 L562 810 L561 811 L554 811 L553 812 L533 811 L532 810 L527 810 L514 807 L502 802 L497 797 L497 792 L498 791 L498 786 L499 785 L499 780 Z M496 770 L497 771 L496 774 L495 773 Z M372 770 L373 771 L373 776 L371 781 L370 791 L367 803 L366 815 L365 816 L364 830 L363 831 L362 845 L361 846 L360 860 L359 861 L359 868 L358 869 L358 876 L357 877 L357 884 L356 885 L356 891 L354 899 L352 923 L351 924 L350 943 L349 944 L348 969 L347 970 L347 986 L346 987 L346 1007 L345 1008 L344 1096 L343 1097 L342 1096 L342 1034 L343 1033 L343 1002 L344 1001 L344 984 L345 983 L345 967 L346 966 L347 941 L348 940 L350 912 L352 904 L353 887 L355 879 L357 857 L359 850 L361 828 L363 821 L363 815 L364 814 L364 808 L365 807 L368 784 L369 783 L370 774 Z M644 769 L653 787 L652 788 L648 787 L648 784 L643 772 Z M501 770 L502 769 L503 770 L502 771 Z M372 770 L373 769 L374 770 L373 771 Z M642 769 L643 768 L644 769 L643 770 Z M496 769 L497 768 L498 770 L497 771 Z M777 767 L779 768 L783 784 L784 794 L787 806 L788 819 L790 826 L791 842 L792 843 L793 859 L794 860 L794 869 L795 870 L795 879 L796 880 L797 909 L798 910 L799 970 L800 971 L800 1049 L801 1050 L801 1086 L802 1087 L802 1133 L803 1134 L803 1168 L804 1169 L805 1227 L806 1228 L806 1254 L807 1255 L807 1283 L806 1284 L797 1280 L797 1274 L796 1273 L794 1206 L793 1205 L793 1171 L792 1170 L792 1123 L791 1122 L789 1017 L788 1016 L787 971 L786 970 L786 953 L785 952 L782 887 L781 886 L781 874 L780 873 L778 843 L777 842 L777 835 L776 834 L776 827 L775 826 L773 808 L772 807 L769 790 L765 786 Z M336 768 L337 767 L338 769 L337 770 Z M495 767 L496 766 L497 767 L496 768 Z M493 766 L494 765 L495 766 L494 767 Z M492 765 L493 764 L494 765 L493 766 Z M352 764 L353 763 L354 765 L353 766 Z M780 761 L782 762 L785 771 L785 775 L786 776 L786 780 L788 785 L791 805 L793 811 L793 816 L795 822 L798 850 L799 851 L800 869 L801 870 L802 892 L803 893 L803 907 L804 908 L805 962 L806 963 L806 1051 L807 1052 L807 1098 L808 1099 L808 1145 L809 1146 L809 1203 L810 1204 L810 1229 L811 1230 L811 1254 L812 1255 L812 1284 L811 1285 L809 1284 L809 1268 L808 1267 L807 1210 L806 1209 L806 1182 L805 1181 L805 1151 L804 1150 L804 1104 L803 1103 L802 1013 L801 1012 L801 945 L800 944 L799 899 L798 898 L796 863 L795 862 L795 855 L794 854 L794 847 L793 846 L791 822 L790 821 L790 816 L789 815 L789 810 L788 809 L788 804 L787 803 L784 783 L779 766 L779 762 Z M338 761 L339 762 L338 765 L337 764 Z M353 760 L354 759 L355 761 L354 762 Z M704 759 L705 758 L706 759 L705 760 Z M439 759 L440 758 L441 759 L440 760 Z M705 758 L706 757 L707 758 L706 759 Z M339 756 L340 757 L339 760 L338 759 Z M706 756 L707 755 L708 756 L707 757 Z M707 755 L708 754 L709 755 L708 756 Z M355 754 L356 755 L355 758 L354 757 Z M339 753 L340 752 L341 754 L340 755 Z M355 752 L356 751 L357 753 L356 754 Z M340 749 L341 748 L342 750 L341 751 Z M707 748 L708 747 L709 748 L708 749 Z M357 747 L358 748 L357 751 L356 750 Z M715 746 L716 748 L709 755 L708 753 Z M439 747 L440 746 L441 748 L440 749 Z M430 746 L435 747 L437 749 L438 754 L440 757 L439 759 L429 747 Z M715 746 L716 745 L717 746 L716 747 Z M428 746 L429 745 L430 746 L429 747 Z M361 745 L369 762 L372 766 L372 768 L369 772 L367 785 L366 786 L365 798 L364 799 L363 811 L362 812 L362 819 L361 820 L360 832 L358 839 L358 846 L356 853 L356 860 L355 861 L351 899 L350 900 L350 907 L349 908 L346 943 L345 944 L344 971 L343 972 L342 1010 L341 1011 L341 1117 L342 1118 L342 1150 L343 1151 L343 1170 L344 1171 L344 1189 L345 1190 L346 1226 L347 1227 L347 1281 L348 1282 L347 1283 L341 1283 L339 1280 L339 1257 L338 1256 L338 1235 L337 1234 L337 1216 L336 1215 L336 1197 L335 1196 L335 1178 L334 1177 L333 1125 L332 1124 L332 1099 L331 1098 L331 973 L332 972 L332 952 L333 951 L333 937 L334 936 L337 894 L338 893 L338 885 L339 884 L339 875 L340 874 L343 838 L344 837 L344 830 L345 829 L345 822 L346 821 L346 814 L347 813 L347 805 L348 804 L348 797 L349 796 L349 791 L348 795 L347 794 L347 789 L348 788 L348 783 L349 782 L349 777 L351 769 L352 768 L353 771 L357 754 Z M716 745 L717 744 L718 745 L717 746 Z M712 745 L713 744 L714 745 L713 746 Z M358 744 L359 745 L358 748 L357 747 Z M440 744 L441 743 L442 745 L441 746 Z M419 744 L420 743 L421 744 L420 745 Z M341 744 L342 743 L343 745 L342 746 Z M702 742 L705 746 L704 749 L701 744 Z M418 743 L419 742 L420 743 L419 744 Z M700 742 L701 741 L702 742 L701 743 Z M441 742 L442 741 L443 742 L442 743 Z M358 742 L359 741 L360 743 L359 744 Z M720 740 L721 742 L718 745 L717 743 Z M699 741 L700 740 L701 741 L700 742 Z M720 740 L721 739 L722 740 L721 741 Z M442 740 L443 739 L444 740 L443 741 Z M698 739 L699 738 L700 739 L699 740 Z M343 737 L344 736 L345 738 L344 739 Z M696 736 L697 735 L698 736 L697 737 Z M793 733 L796 740 L800 761 L802 766 L802 770 L806 786 L806 791 L807 792 L807 797 L808 798 L808 803 L809 804 L809 809 L810 810 L813 838 L814 839 L814 847 L815 848 L816 873 L817 874 L817 893 L818 894 L818 920 L819 921 L819 1097 L820 1098 L821 1218 L822 1219 L823 1283 L821 1285 L816 1285 L815 1286 L814 1285 L812 1215 L811 1214 L810 1122 L809 1121 L809 1076 L808 1075 L808 1011 L807 1010 L807 942 L806 941 L805 899 L804 898 L804 886 L803 885 L803 874 L802 873 L800 846 L799 845 L799 838 L797 831 L796 819 L794 813 L794 808 L793 807 L785 765 L781 759 L788 744 L790 737 Z M684 731 L685 730 L686 731 L685 732 Z M689 728 L700 743 L704 751 L702 757 L695 768 L687 776 L676 782 L655 788 L645 767 L643 766 L644 765 L648 766 L662 756 L680 739 Z M685 729 L686 728 L687 730 L686 731 Z M686 728 L687 727 L688 728 L687 729 Z M452 728 L453 727 L454 728 L453 729 Z M450 727 L461 741 L471 751 L495 769 L486 789 L476 787 L462 780 L456 776 L445 764 L440 752 Z M795 725 L800 740 L800 744 L804 757 L804 761 L806 766 L806 770 L812 796 L815 820 L816 821 L816 827 L817 828 L817 834 L818 835 L820 863 L821 864 L821 875 L822 876 L822 892 L823 893 L823 919 L824 920 L825 1221 L826 1222 L826 1262 L827 1263 L827 1283 L826 1284 L825 1283 L825 1274 L824 1273 L823 1188 L822 1187 L821 937 L820 936 L819 881 L818 880 L817 852 L816 851 L816 842 L815 841 L815 834 L813 826 L813 819 L812 818 L812 813 L811 812 L811 807 L810 806 L810 801 L809 800 L809 795 L805 778 L804 768 L802 763 L802 759 L800 754 L797 738 L794 731 L794 726 Z M687 726 L688 725 L689 727 L688 728 Z M692 724 L697 728 L709 744 L708 745 L706 745 L703 742 L691 725 Z M690 724 L691 723 L692 724 L691 725 Z M448 722 L449 723 L446 727 L443 736 L437 746 L436 742 L445 724 Z M351 721 L359 740 L357 741 L354 749 L350 770 L348 775 L346 792 L344 799 L342 823 L341 824 L338 853 L337 854 L337 861 L336 862 L332 913 L331 914 L329 953 L328 954 L328 980 L327 981 L327 1098 L328 1099 L330 1191 L331 1192 L331 1214 L332 1215 L333 1258 L334 1259 L334 1278 L333 1279 L327 1273 L328 1272 L327 1271 L326 1208 L325 1207 L323 1139 L322 1138 L322 1098 L321 1097 L321 982 L322 981 L322 946 L323 945 L323 923 L324 922 L326 878 L327 877 L327 865 L328 864 L328 853 L329 852 L329 841 L330 840 L332 813 L333 812 L338 772 L343 752 L343 748 L346 739 L346 735 L345 736 L344 733 L347 725 L347 722 L348 721 L349 723 Z M691 721 L692 720 L693 721 L692 722 Z M692 719 L693 718 L694 720 L693 721 Z M736 718 L737 717 L738 718 L737 719 Z M348 718 L349 717 L350 719 L349 720 Z M740 711 L741 713 L738 717 L737 715 Z M399 711 L400 710 L401 711 L400 712 Z M401 710 L402 709 L403 710 L402 711 Z M742 708 L743 709 L741 712 L740 709 Z M398 709 L399 708 L400 709 L399 710 Z M400 708 L401 707 L402 708 L401 709 Z M397 708 L398 707 L399 708 L398 709 Z M742 707 L743 706 L744 708 L743 709 Z M743 706 L744 705 L745 706 L744 707 Z M402 706 L403 705 L404 706 L403 707 Z M396 706 L397 705 L398 706 L397 707 Z M395 705 L396 704 L397 705 L396 706 Z M744 704 L745 703 L746 704 L745 705 Z M745 703 L746 702 L747 703 L746 704 Z M394 703 L395 702 L396 703 L395 704 Z M746 701 L747 700 L748 701 L747 702 Z M398 700 L401 705 L400 708 L396 702 Z M393 701 L394 700 L395 701 L394 702 Z M395 700 L396 699 L397 700 L396 701 Z M392 700 L393 699 L394 700 L393 701 Z M747 699 L748 698 L749 700 L748 701 Z M394 698 L395 697 L396 698 L395 699 Z M391 698 L392 697 L393 698 L392 699 Z M342 697 L349 716 L346 720 L346 723 L344 727 L339 747 L339 751 L335 767 L335 772 L333 778 L333 783 L332 784 L331 797 L330 798 L327 832 L326 833 L324 868 L323 869 L321 914 L320 915 L320 932 L319 933 L319 959 L318 960 L317 1092 L318 1093 L318 1132 L319 1133 L320 1193 L321 1194 L322 1238 L323 1239 L323 1269 L322 1270 L319 1266 L318 1262 L318 1248 L317 1247 L316 1195 L315 1194 L316 1192 L315 1191 L315 1156 L314 1155 L314 1116 L313 1115 L313 1009 L314 1008 L315 930 L316 929 L317 888 L318 887 L319 857 L320 856 L320 845 L321 844 L321 829 L322 828 L324 793 L325 792 L325 786 L328 774 L332 745 L334 739 L334 734 L336 728 L336 722 L337 721 L340 702 Z M748 697 L749 696 L750 698 L749 699 Z M393 696 L394 695 L395 697 L394 698 Z M390 696 L391 695 L392 696 L391 697 Z M749 695 L750 694 L751 696 L750 697 Z M389 695 L390 694 L391 695 L390 696 Z M392 694 L393 693 L394 694 L393 695 Z M750 693 L751 692 L752 694 L751 695 Z M391 693 L392 692 L393 693 L392 694 Z M387 692 L389 691 L390 693 L389 694 Z M802 690 L814 734 L814 738 L819 759 L820 770 L822 776 L822 781 L823 782 L823 787 L826 800 L826 806 L828 813 L830 836 L831 837 L833 867 L834 868 L834 884 L835 885 L836 977 L837 978 L837 1160 L836 1161 L836 1204 L835 1205 L833 1272 L832 1273 L832 1278 L830 1281 L828 1273 L828 1239 L827 1238 L827 1161 L826 1160 L826 1083 L825 1082 L826 941 L825 940 L824 881 L823 880 L823 868 L822 867 L820 839 L819 838 L819 831 L818 830 L818 824 L817 823 L817 817 L816 816 L813 793 L812 792 L808 768 L806 763 L806 759 L803 750 L803 746 L798 727 L795 724 L800 705 L801 691 Z M438 691 L439 690 L440 692 L439 693 Z M386 691 L387 690 L388 691 L387 692 Z M749 689 L750 691 L742 706 L741 703 L744 695 Z M745 689 L746 688 L747 689 L746 690 Z M754 687 L755 689 L752 693 L751 691 Z M749 688 L750 687 L751 689 L750 690 Z M746 688 L747 687 L748 688 L747 689 Z M754 687 L755 686 L756 687 L755 688 Z M441 685 L442 686 L441 689 L440 688 Z M869 683 L870 682 L871 684 L870 685 Z M439 682 L440 681 L441 682 L440 683 Z M770 682 L767 707 L762 723 L762 726 L753 751 L737 779 L730 788 L711 807 L687 824 L658 839 L624 851 L607 855 L602 855 L595 857 L587 857 L586 858 L550 858 L549 857 L535 856 L514 851 L488 841 L462 826 L438 807 L423 792 L407 772 L397 757 L383 730 L369 692 L370 688 L378 688 L383 690 L390 698 L400 715 L415 736 L418 743 L420 745 L421 744 L439 764 L451 775 L478 794 L504 806 L521 811 L531 812 L532 813 L540 813 L541 814 L554 814 L555 815 L582 815 L583 814 L606 813 L607 812 L612 812 L633 807 L636 805 L646 802 L666 792 L690 777 L716 750 L732 730 L746 706 L750 701 L758 686 L759 687 L761 682 L765 680 L767 681 L760 691 L760 694 L753 707 L753 709 L761 696 L766 684 L769 681 Z M329 678 L334 680 L337 683 L340 691 L338 693 L335 714 L332 725 L332 730 L331 731 L330 742 L327 755 L326 754 L326 740 L327 739 L326 683 L327 679 Z M710 677 L725 684 L736 687 L741 687 L744 689 L742 691 L742 693 L738 700 L734 712 L734 715 L729 727 L719 738 L712 743 L710 743 L706 739 L694 723 L696 712 L703 698 L707 686 L708 679 Z M431 676 L433 678 L433 682 L438 702 L446 720 L435 742 L433 744 L425 741 L415 732 L409 720 L408 713 L404 702 L394 692 L413 686 Z M709 673 L711 672 L717 676 L732 681 L752 682 L753 683 L747 686 L734 685 L719 680 L711 676 Z M708 672 L706 684 L701 699 L694 714 L681 733 L667 748 L648 762 L630 771 L607 778 L597 779 L596 780 L589 780 L588 781 L566 782 L565 781 L550 781 L549 780 L542 780 L541 779 L531 778 L506 770 L489 761 L478 753 L457 731 L446 712 L441 693 L441 689 L442 688 L450 708 L464 729 L481 746 L492 754 L513 765 L528 770 L541 772 L542 773 L549 773 L550 774 L576 775 L577 774 L588 774 L589 773 L605 771 L625 765 L642 757 L658 746 L676 728 L689 709 L697 692 L702 672 L703 671 L707 671 Z M437 672 L438 671 L439 672 L438 673 Z M432 672 L431 675 L407 687 L401 689 L397 689 L393 691 L386 688 L410 682 L425 675 L430 671 Z M315 671 L323 676 L324 704 L325 705 L325 739 L309 743 L290 743 L287 742 L283 739 L291 728 L301 709 L311 682 L313 672 Z M431 671 L432 670 L433 671 L432 672 Z M436 669 L438 671 L436 672 L438 673 L437 676 L438 686 L439 687 L438 691 L434 679 L434 671 Z M315 669 L316 668 L317 669 L316 670 Z M313 668 L314 667 L315 668 L314 669 Z M309 667 L313 670 L305 696 L292 724 L282 738 L278 733 L281 731 L286 724 L296 705 L304 684 L307 670 Z M801 666 L801 685 L800 686 L800 694 L799 695 L798 706 L794 722 L785 747 L777 764 L763 787 L750 803 L733 820 L712 837 L709 838 L698 846 L667 862 L642 871 L639 871 L627 875 L606 878 L605 879 L584 880 L583 881 L546 880 L545 879 L531 878 L505 872 L478 862 L458 852 L443 843 L427 831 L396 800 L380 778 L364 748 L364 746 L350 714 L341 688 L338 683 L340 682 L349 685 L353 685 L359 687 L366 687 L367 688 L373 709 L382 729 L382 731 L395 756 L408 776 L420 791 L438 809 L461 827 L491 844 L519 854 L532 857 L537 857 L538 858 L544 858 L545 859 L580 860 L581 859 L591 859 L592 858 L599 858 L600 857 L614 855 L647 845 L662 838 L664 838 L683 828 L712 808 L732 788 L739 779 L746 768 L755 750 L763 728 L763 725 L768 709 L772 679 L787 673 L800 665 Z M520 665 L521 664 L522 665 L521 666 Z M307 663 L308 662 L309 663 L308 664 Z M306 662 L307 661 L308 662 L307 663 Z M446 660 L447 662 L439 669 L437 667 Z M283 661 L284 660 L285 661 L284 662 Z M446 660 L447 659 L448 660 L447 661 Z M811 658 L812 659 L812 667 L811 668 L811 708 L812 709 L812 715 L811 716 L802 681 L803 679 L803 664 Z M675 659 L675 669 L674 670 L673 678 L666 694 L646 714 L633 721 L616 727 L603 730 L598 730 L597 731 L575 732 L574 733 L552 732 L551 731 L538 730 L514 723 L502 717 L491 709 L479 694 L474 681 L473 671 L472 670 L472 664 L474 659 L476 661 L488 664 L502 672 L524 694 L536 702 L552 707 L558 707 L559 708 L588 708 L589 707 L595 707 L596 706 L604 705 L619 698 L652 666 L673 658 Z M447 659 L448 658 L449 659 L448 660 Z M811 658 L812 657 L813 658 L812 659 Z M690 658 L691 657 L703 669 L701 670 L697 667 Z M448 658 L449 657 L450 658 L449 659 Z M689 657 L690 656 L691 657 L690 658 Z M466 657 L468 656 L472 659 L471 662 L471 674 L472 675 L472 680 L478 695 L487 707 L495 714 L511 723 L528 729 L532 729 L543 732 L549 732 L550 733 L564 733 L565 734 L590 733 L591 732 L604 731 L620 727 L638 720 L652 711 L667 695 L672 686 L675 677 L676 667 L677 666 L677 661 L676 660 L677 657 L680 662 L680 670 L679 671 L678 683 L675 692 L670 701 L659 714 L646 724 L629 732 L598 740 L591 740 L590 741 L554 741 L553 740 L545 740 L544 739 L530 737 L514 732 L501 726 L488 717 L477 705 L469 690 L466 678 L466 659 L467 658 Z M449 657 L450 656 L451 657 L450 658 Z M284 657 L285 656 L286 658 L285 659 Z M688 656 L689 655 L690 656 L689 657 Z M450 656 L451 655 L452 656 L451 657 Z M451 655 L452 654 L453 655 L452 656 Z M817 653 L825 675 L837 700 L850 720 L863 734 L862 735 L854 736 L853 737 L837 737 L836 736 L820 735 L816 733 L815 731 L815 723 L814 722 L814 713 L813 712 L813 689 L812 688 L812 683 L813 682 L814 659 L815 655 Z M616 654 L617 653 L618 655 L617 656 Z M453 652 L454 651 L455 652 L454 653 Z M286 651 L287 652 L286 655 L285 654 Z M440 670 L450 661 L459 649 L466 655 L464 671 L465 672 L465 680 L467 688 L474 703 L485 716 L497 725 L513 733 L533 739 L549 741 L550 742 L560 742 L561 743 L583 743 L584 742 L593 742 L594 741 L605 740 L621 736 L637 730 L654 720 L669 705 L677 691 L681 677 L681 659 L679 656 L684 652 L693 665 L701 672 L695 694 L688 708 L679 722 L662 741 L649 751 L631 761 L603 770 L593 771 L592 772 L584 772 L583 773 L554 773 L553 772 L545 772 L544 771 L530 769 L512 763 L496 755 L477 741 L464 727 L455 714 L447 698 L440 675 Z M822 648 L824 650 L825 656 L827 659 L829 667 L832 672 L834 679 L845 700 L860 721 L866 727 L870 729 L865 734 L852 721 L839 701 L825 671 L819 654 L819 651 Z M287 646 L288 647 L287 651 L286 650 Z M291 644 L296 654 L307 665 L300 691 L293 706 L293 708 L285 723 L278 732 L274 721 L274 696 L275 695 L275 690 L281 677 L287 659 L289 648 Z M456 643 L457 642 L458 643 L457 644 Z M818 642 L819 641 L820 642 L819 643 Z M689 642 L685 649 L678 655 L660 660 L648 667 L618 697 L605 703 L592 706 L581 706 L580 707 L564 707 L563 706 L550 705 L540 702 L532 698 L522 690 L502 670 L467 651 L464 652 L457 645 L459 643 L462 645 L475 648 L490 654 L499 660 L521 682 L534 690 L546 694 L558 695 L559 696 L583 696 L584 695 L592 695 L593 694 L602 693 L617 687 L626 681 L651 655 L657 651 L670 645 L685 643 L688 641 Z M455 642 L456 641 L457 642 L456 643 Z M688 641 L689 640 L690 641 L689 642 Z M454 641 L455 640 L456 641 L455 642 Z M686 649 L693 639 L705 646 L731 654 L750 656 L751 657 L779 657 L780 656 L787 656 L788 655 L797 654 L811 649 L825 640 L827 641 L809 658 L797 666 L778 675 L754 681 L735 680 L721 676 L709 670 L699 663 Z M288 639 L290 641 L288 646 L287 645 L287 640 Z M610 635 L611 636 L610 639 L609 638 Z M456 645 L456 647 L445 659 L427 672 L411 680 L390 686 L375 687 L374 686 L364 686 L363 685 L351 684 L334 679 L316 670 L319 669 L330 672 L351 672 L352 671 L365 670 L386 665 L427 649 L447 638 L450 635 L453 642 Z M591 635 L592 634 L593 636 L592 637 Z M608 628 L609 627 L610 629 L609 630 Z M842 620 L853 655 L862 674 L872 690 L873 719 L872 720 L872 724 L870 727 L868 727 L859 718 L846 699 L834 675 L824 646 L833 636 Z M610 616 L611 617 L611 623 L610 624 L609 623 L609 617 Z M539 615 L540 616 L540 620 L539 621 L538 620 L538 616 Z M452 612 L453 611 L454 612 L453 613 Z M453 610 L454 609 L455 610 L454 611 Z M846 608 L847 609 L847 615 L848 616 L848 620 L849 621 L853 642 L859 659 L870 679 L869 683 L856 659 L848 637 L843 617 Z M454 608 L455 607 L456 608 L455 609 Z M455 607 L456 606 L457 607 L456 608 Z M843 605 L844 606 L844 610 L837 627 L830 635 L820 642 L819 641 L820 637 L819 631 L825 628 L835 619 L840 612 Z M844 602 L845 603 L844 606 L843 605 Z M462 600 L463 599 L464 600 L463 601 Z M844 599 L845 598 L846 600 L845 601 Z M511 589 L512 588 L513 589 L512 590 Z M510 588 L511 587 L512 588 L511 589 Z M509 587 L510 586 L511 587 L510 588 Z M508 586 L509 585 L510 586 L509 587 Z M507 585 L508 584 L509 585 L508 586 Z M506 584 L507 583 L508 584 L507 585 Z M504 583 L505 582 L506 583 L505 584 Z M635 581 L636 582 L628 587 L620 596 L614 607 L611 617 L610 616 L611 608 L617 595 L624 587 L631 582 Z M503 582 L504 581 L505 582 L504 583 Z M612 620 L615 608 L620 598 L629 588 L643 581 L647 581 L648 580 L664 580 L685 587 L696 593 L731 619 L754 632 L766 636 L776 637 L777 638 L798 638 L811 635 L817 632 L818 633 L818 640 L816 644 L812 647 L802 651 L789 654 L784 654 L783 655 L771 655 L770 656 L747 655 L746 654 L740 654 L739 653 L734 653 L721 650 L709 646 L695 639 L693 637 L694 630 L693 629 L692 621 L688 612 L679 602 L667 596 L653 595 L643 598 L633 605 L626 614 L619 630 L618 640 L617 641 L617 653 L616 654 L612 642 Z M635 581 L636 580 L639 581 L638 582 Z M501 581 L502 580 L503 581 L502 582 Z M433 581 L434 580 L437 581 L436 582 Z M638 580 L639 579 L641 580 L640 581 Z M498 580 L499 579 L501 580 L500 581 Z M524 616 L526 637 L525 638 L525 646 L523 653 L522 652 L521 631 L514 612 L503 599 L494 594 L490 593 L479 593 L472 595 L464 600 L463 598 L459 600 L453 607 L449 615 L448 620 L449 621 L449 632 L450 633 L447 636 L419 651 L387 663 L362 669 L356 669 L355 670 L345 670 L344 671 L326 670 L318 668 L312 665 L307 659 L304 650 L306 649 L313 653 L326 656 L345 656 L346 655 L353 655 L354 654 L363 653 L381 647 L393 641 L411 628 L446 593 L464 583 L474 580 L488 579 L500 582 L505 585 L514 594 L518 600 Z M436 580 L437 579 L439 580 L438 581 Z M841 579 L842 578 L843 579 L842 580 Z M641 579 L642 578 L645 579 L644 580 Z M495 579 L496 578 L499 579 L498 580 Z M439 579 L440 578 L442 579 L441 580 Z M648 578 L649 577 L650 578 L649 579 Z M492 578 L493 577 L495 578 L494 579 Z M442 578 L443 577 L444 578 L443 579 Z M444 577 L445 576 L447 577 L446 578 Z M839 576 L840 575 L841 576 L840 577 Z M447 576 L448 575 L449 576 L448 577 Z M692 573 L693 572 L697 573 L696 574 Z M309 565 L311 569 L315 573 L311 582 L302 618 L301 641 L300 642 L297 638 L295 638 L303 647 L304 655 L307 660 L305 662 L297 653 L291 641 L288 629 L288 611 L289 610 L289 605 L291 597 L295 587 Z M505 557 L515 563 L522 570 L529 580 L537 598 L538 606 L539 607 L539 612 L538 613 L533 594 L526 580 L522 574 L510 562 L504 558 Z M471 558 L472 557 L473 558 L472 559 Z M309 560 L311 557 L322 569 L339 579 L354 584 L358 584 L364 586 L370 586 L371 587 L402 587 L403 586 L410 586 L411 585 L421 584 L430 581 L434 582 L417 588 L404 591 L399 591 L398 592 L390 592 L389 593 L360 592 L341 587 L325 579 L319 575 L312 568 L309 563 Z M502 557 L503 556 L505 557 L504 558 Z M472 557 L473 556 L474 557 L473 558 Z M501 556 L502 555 L503 556 L502 557 Z M499 555 L500 554 L501 555 L500 556 Z M464 554 L465 553 L466 555 L465 556 Z M644 553 L645 552 L646 553 L645 554 Z M636 546 L637 545 L638 546 L637 547 Z M313 546 L314 545 L315 546 L314 547 Z M635 545 L636 544 L637 545 L636 546 Z M634 543 L635 542 L636 543 L635 544 Z M633 541 L634 540 L635 542 L634 543 Z M805 539 L808 545 L815 554 L839 577 L843 585 L843 589 L844 590 L843 600 L839 611 L828 624 L820 629 L819 628 L819 623 L818 622 L815 603 L813 598 L813 594 L809 581 L809 577 L804 557 L802 553 L802 550 L800 547 L800 545 Z M632 539 L633 538 L634 540 L633 541 Z M319 535 L320 534 L321 535 L320 536 Z M804 536 L802 541 L793 550 L774 562 L758 568 L741 572 L728 573 L727 574 L713 574 L712 573 L713 572 L724 572 L725 571 L741 569 L759 563 L781 551 L790 544 L801 532 Z M310 553 L320 544 L337 536 L350 533 L356 533 L357 532 L380 532 L381 533 L387 533 L388 534 L393 534 L423 543 L428 546 L433 547 L449 555 L465 561 L467 563 L453 572 L430 580 L413 583 L412 584 L405 584 L404 585 L380 586 L379 585 L368 585 L367 584 L357 583 L341 578 L329 572 L322 567 L312 557 Z M647 532 L648 531 L649 532 L648 533 Z M615 530 L621 544 L627 549 L622 552 L613 561 L607 569 L600 582 L594 599 L594 603 L592 609 L592 616 L591 617 L592 634 L591 635 L586 626 L582 610 L582 586 L583 585 L583 579 L587 565 L595 549 L609 534 Z M648 529 L649 528 L650 529 L649 530 Z M612 529 L613 528 L614 529 L613 530 Z M504 528 L505 527 L506 528 L505 529 Z M456 527 L457 526 L458 527 L457 528 Z M649 526 L650 525 L651 527 L650 528 Z M455 525 L456 524 L457 525 L456 526 Z M650 523 L651 522 L652 524 L651 525 Z M454 523 L455 522 L456 523 L455 524 Z M453 522 L454 521 L455 522 L454 523 Z M797 521 L798 520 L799 521 L798 522 Z M651 521 L652 520 L653 522 L652 523 Z M504 531 L511 527 L520 524 L537 521 L538 520 L546 520 L547 519 L578 519 L579 520 L587 520 L588 521 L601 523 L613 528 L610 529 L609 528 L589 526 L588 525 L558 524 L557 525 L544 525 L543 526 L528 527 L508 532 Z M452 520 L453 519 L454 520 L453 521 Z M310 518 L313 525 L313 534 L312 535 L309 524 L309 519 Z M652 518 L653 517 L654 519 L653 520 Z M451 518 L452 517 L453 518 L452 519 Z M450 517 L451 516 L452 517 L451 518 Z M308 517 L309 516 L310 518 L309 519 Z M653 516 L654 515 L655 517 L654 518 Z M449 515 L450 514 L451 515 L450 516 Z M795 514 L796 513 L797 514 L796 515 Z M448 514 L449 513 L450 514 L449 515 Z M801 527 L796 536 L777 552 L755 563 L733 569 L718 570 L717 571 L687 571 L686 570 L679 570 L660 565 L647 556 L674 538 L703 523 L720 517 L733 514 L748 513 L749 512 L775 514 L791 519 L796 522 Z M654 513 L655 512 L656 514 L655 515 Z M310 512 L315 516 L319 524 L319 533 L317 539 L314 542 L313 539 L314 538 L315 527 L309 514 Z M655 511 L656 510 L657 512 L656 513 Z M446 511 L447 510 L448 511 L447 512 Z M314 545 L329 530 L343 521 L354 516 L376 510 L396 510 L413 514 L435 525 L453 541 L466 559 L464 560 L431 545 L402 535 L389 533 L388 532 L382 532 L381 531 L356 531 L355 532 L344 533 L331 537 L321 542 L316 546 Z M656 509 L657 508 L658 510 L657 511 Z M508 509 L509 508 L510 510 L509 511 Z M303 507 L307 516 L308 526 L312 535 L312 542 L309 550 L308 549 L305 523 L302 511 Z M657 507 L658 506 L659 508 L658 509 Z M443 507 L444 506 L445 507 L444 508 Z M301 507 L302 506 L303 507 L302 508 Z M442 506 L443 505 L444 506 L443 507 Z M304 506 L305 505 L306 506 L305 507 Z M441 505 L442 504 L443 505 L442 506 Z M660 503 L661 505 L659 507 L658 505 Z M660 502 L661 501 L662 503 L661 504 Z M663 498 L664 500 L662 502 L661 500 Z M433 497 L434 496 L435 497 L434 498 Z M432 496 L433 495 L434 496 L433 497 Z M431 495 L432 494 L433 495 L432 496 Z M798 519 L797 521 L790 517 L781 514 L773 513 L772 512 L766 512 L765 511 L744 511 L743 512 L736 512 L735 513 L726 514 L700 523 L675 536 L649 553 L648 552 L652 542 L661 528 L674 514 L685 506 L699 499 L716 494 L721 494 L722 493 L746 493 L747 494 L752 494 L764 497 L782 505 L794 514 Z M510 494 L512 493 L513 495 L512 496 Z M430 494 L431 493 L432 494 L431 495 Z M512 493 L513 492 L515 493 L514 494 Z M514 492 L515 491 L517 492 L516 493 Z M427 492 L428 491 L429 492 L428 493 Z M426 491 L427 490 L428 491 L427 492 Z M516 491 L519 489 L522 490 L519 492 Z M424 490 L425 489 L426 490 L425 491 Z M521 489 L522 488 L525 489 L524 490 Z M423 489 L424 488 L425 489 L424 490 Z M524 488 L525 487 L528 488 L527 489 Z M421 488 L422 487 L423 488 L422 489 Z M527 487 L528 486 L531 487 L530 488 Z M419 487 L420 486 L422 487 L421 488 Z M530 486 L531 485 L534 486 L533 487 Z M417 486 L418 485 L420 486 L419 487 Z M506 527 L510 516 L511 506 L512 505 L512 496 L513 495 L535 487 L539 487 L545 485 L552 485 L553 484 L571 484 L572 485 L583 486 L599 491 L606 495 L608 497 L609 510 L614 525 L613 527 L611 525 L603 522 L590 519 L584 519 L583 518 L552 517 L551 518 L542 518 L541 519 L530 520 L512 525 L507 528 Z M534 485 L535 484 L539 485 L538 486 Z M415 485 L416 484 L418 485 L417 486 Z M539 484 L540 483 L543 484 L542 485 Z M413 484 L414 483 L416 484 L415 485 Z M297 484 L298 483 L299 484 L298 485 Z M546 483 L547 482 L550 483 L549 484 Z M410 483 L411 482 L414 483 L413 484 Z M407 482 L408 481 L411 482 L410 483 Z M298 482 L299 481 L300 482 L299 483 Z M404 481 L405 480 L408 481 L407 482 Z M310 510 L329 496 L343 489 L357 484 L370 481 L378 481 L379 480 L388 480 L389 481 L402 482 L414 486 L425 492 L440 505 L455 527 L462 542 L465 553 L464 554 L454 540 L445 531 L437 525 L417 514 L400 509 L392 509 L391 508 L381 508 L380 509 L373 509 L372 510 L364 511 L342 520 L321 535 L320 534 L320 523 L319 520 Z M400 480 L401 479 L405 480 L404 481 Z M296 479 L297 478 L298 480 L297 481 Z M795 478 L796 477 L797 478 L796 479 Z M401 479 L400 480 L396 480 L395 479 L372 479 L371 480 L366 480 L344 487 L328 495 L310 508 L307 507 L317 499 L333 489 L358 479 L366 478 L367 477 L374 477 L375 476 L389 476 Z M507 475 L508 474 L509 475 L508 476 Z M506 472 L507 471 L508 472 L507 473 Z M301 472 L302 471 L303 473 L302 474 Z M505 468 L506 467 L507 468 L506 469 Z M301 467 L302 466 L303 467 L302 468 Z M504 466 L505 465 L506 466 L505 467 Z M302 465 L303 464 L304 465 L303 466 Z M503 463 L504 462 L505 463 L504 464 Z M303 463 L304 462 L305 463 L304 464 Z M796 479 L793 489 L793 500 L796 510 L795 514 L794 512 L783 504 L771 498 L759 494 L751 493 L750 492 L744 492 L743 491 L725 491 L724 492 L713 493 L693 500 L678 509 L664 522 L653 537 L648 547 L647 546 L649 536 L654 521 L665 500 L681 482 L687 477 L702 468 L715 463 L723 461 L728 461 L729 460 L751 460 L768 464 L780 469 L793 477 L789 482 L787 487 L787 494 L792 503 L789 497 L789 486 L792 480 L794 478 Z M304 460 L305 459 L306 460 L305 461 Z M260 459 L264 463 L265 468 L278 498 L289 533 L293 554 L295 559 L297 575 L298 576 L298 579 L294 586 L292 582 L291 570 L290 569 L287 550 L281 526 L271 496 L259 469 L258 461 Z M305 458 L306 457 L307 458 L306 459 Z M306 456 L307 455 L308 457 L307 458 Z M795 473 L794 475 L792 475 L785 470 L775 465 L755 459 L748 459 L747 458 L725 459 L710 463 L695 470 L681 480 L671 490 L664 499 L663 498 L671 486 L686 472 L707 460 L724 455 L729 455 L730 454 L751 454 L752 455 L761 456 L780 463 Z M285 454 L288 455 L293 472 L296 495 L300 505 L303 525 L304 526 L305 538 L306 539 L306 545 L307 546 L308 564 L300 577 L298 572 L298 567 L297 566 L294 547 L292 542 L292 538 L290 534 L286 517 L277 491 L266 466 L266 462 L267 461 Z M500 454 L501 453 L503 454 L502 455 Z M307 454 L308 453 L309 455 L308 456 Z M308 453 L309 452 L310 453 L309 454 Z M805 452 L806 451 L807 452 L806 453 Z M804 451 L805 450 L806 451 L805 452 Z M309 451 L310 450 L311 451 L310 452 Z M803 450 L804 449 L805 450 L804 451 Z M310 449 L311 448 L312 450 L311 451 Z M311 448 L312 447 L313 448 L312 449 Z M616 447 L610 464 L609 475 L608 476 L608 491 L607 492 L599 487 L587 483 L577 482 L576 481 L568 481 L567 480 L554 480 L553 481 L545 481 L544 482 L534 483 L518 488 L513 491 L512 490 L511 479 L508 467 L502 455 L505 454 L512 457 L528 459 L529 460 L563 460 L564 459 L571 459 L572 458 L587 456 L606 450 L614 446 Z M312 447 L313 446 L314 447 L313 448 Z M286 451 L285 453 L275 456 L265 461 L260 457 L263 453 L281 446 Z M615 446 L616 445 L617 446 L616 447 Z M313 445 L314 444 L315 446 L314 447 Z M801 444 L802 443 L803 444 L802 445 Z M314 444 L315 443 L316 444 L315 445 Z M867 442 L868 443 L868 452 L861 468 L856 483 L852 504 L851 505 L851 509 L850 510 L850 514 L849 515 L849 519 L847 524 L843 548 L842 549 L839 570 L838 571 L834 567 L834 562 L835 561 L849 487 L860 453 L864 444 Z M800 442 L801 441 L802 443 L801 444 Z M616 442 L615 444 L609 447 L592 453 L575 456 L574 457 L556 458 L555 459 L526 458 L525 457 L511 455 L500 451 L501 449 L504 448 L512 450 L523 450 L524 451 L566 450 L567 449 L576 449 L577 448 L590 447 L606 443 L607 444 L606 445 L608 445 L606 443 L613 440 Z M319 438 L320 440 L316 444 L315 442 Z M298 488 L307 475 L320 462 L333 452 L352 442 L364 438 L372 437 L373 436 L379 436 L380 435 L408 435 L409 436 L419 437 L434 442 L450 451 L465 465 L470 472 L476 484 L481 503 L482 519 L481 520 L480 534 L476 547 L469 559 L467 555 L464 540 L461 532 L454 518 L445 505 L428 489 L414 481 L403 477 L399 477 L393 475 L370 475 L369 476 L364 476 L356 478 L332 488 L319 496 L308 505 L301 498 L298 491 Z M797 431 L798 430 L799 431 L798 432 Z M480 431 L481 430 L482 431 L481 432 Z M479 430 L480 429 L481 430 L480 431 Z M796 429 L797 428 L798 429 L797 430 Z M478 429 L479 428 L480 429 L479 430 Z M477 428 L478 427 L479 428 L478 429 Z M795 427 L796 426 L797 427 L796 428 Z M475 427 L476 426 L478 427 L477 428 Z M299 480 L307 469 L325 451 L344 438 L358 432 L373 428 L390 427 L391 426 L409 427 L410 428 L416 428 L429 431 L440 435 L461 447 L471 456 L481 469 L486 479 L491 498 L491 519 L490 520 L489 529 L481 548 L474 557 L473 555 L478 545 L483 525 L483 506 L482 505 L480 491 L477 483 L468 467 L456 454 L445 446 L433 440 L421 436 L412 435 L411 434 L404 434 L403 433 L383 433 L382 434 L370 435 L353 440 L329 453 L319 461 L308 472 L300 482 Z M794 426 L795 425 L796 426 L795 427 Z M474 426 L475 425 L476 426 L475 427 Z M472 425 L473 424 L475 425 L474 426 Z M822 423 L860 434 L867 440 L861 446 L859 445 L861 449 L857 457 L849 482 L847 494 L844 503 L840 527 L839 528 L839 533 L836 544 L833 564 L832 565 L814 548 L809 542 L802 529 L802 523 L798 516 L798 512 L796 506 L795 487 L798 478 L808 461 L818 433 L852 444 L856 444 L856 443 L819 432 L818 431 Z M793 424 L794 423 L795 424 L794 425 Z M471 424 L472 423 L473 424 L472 425 Z M792 423 L793 422 L794 423 L793 424 Z M469 423 L470 422 L472 423 L471 424 Z M791 421 L792 420 L793 421 L792 422 Z M790 420 L791 419 L792 420 L791 421 Z M464 420 L466 419 L470 422 L468 423 Z M789 419 L790 418 L791 419 L790 420 Z M787 416 L788 415 L790 418 L789 419 Z M808 456 L804 460 L796 472 L779 461 L763 455 L755 454 L754 453 L735 452 L734 453 L722 454 L708 458 L692 466 L685 471 L670 485 L663 494 L653 512 L649 523 L649 526 L647 530 L648 536 L646 540 L645 552 L644 553 L635 539 L629 520 L629 515 L628 514 L628 494 L629 493 L629 487 L633 472 L639 459 L650 444 L665 431 L680 423 L695 418 L712 416 L713 415 L728 415 L729 416 L736 416 L758 422 L776 431 L789 440 L802 452 Z M455 416 L458 415 L465 419 L462 420 Z M786 415 L787 414 L788 415 L787 416 Z M785 414 L786 413 L787 414 L786 415 Z M784 413 L785 412 L786 413 L785 414 Z M783 412 L784 411 L785 412 L784 413 Z M782 411 L783 410 L784 411 L783 412 Z M781 410 L782 409 L783 410 L782 411 Z M804 449 L802 450 L786 436 L768 425 L766 425 L754 419 L743 416 L733 415 L732 414 L709 414 L681 421 L669 427 L655 437 L641 453 L633 468 L628 484 L627 498 L626 499 L627 517 L630 530 L633 536 L632 539 L628 533 L624 522 L621 509 L621 485 L627 463 L634 449 L639 442 L653 428 L669 418 L685 412 L698 409 L704 409 L705 408 L731 408 L732 409 L742 410 L760 416 L775 424 L790 435 Z M334 428 L348 419 L366 412 L380 410 L381 409 L390 409 L391 408 L408 408 L409 409 L419 409 L420 410 L432 411 L458 419 L473 427 L481 433 L489 441 L495 449 L502 463 L507 479 L507 484 L508 485 L508 504 L507 505 L507 511 L504 524 L497 542 L494 547 L489 552 L497 555 L508 562 L521 575 L528 586 L528 588 L533 597 L537 614 L537 641 L531 655 L522 665 L521 663 L525 654 L526 644 L527 643 L527 624 L526 623 L526 618 L524 610 L521 604 L520 598 L513 587 L505 580 L495 576 L476 577 L454 586 L440 596 L404 632 L392 640 L377 647 L356 653 L331 655 L330 654 L318 653 L312 651 L304 646 L302 641 L303 621 L304 620 L304 615 L306 610 L306 606 L310 590 L312 586 L314 576 L316 574 L324 580 L335 586 L349 591 L362 593 L363 594 L373 594 L374 595 L395 594 L396 593 L407 592 L423 588 L453 576 L466 568 L476 559 L487 540 L491 528 L492 518 L493 517 L493 500 L492 499 L492 493 L490 485 L484 471 L478 462 L466 449 L455 441 L442 434 L424 428 L408 426 L407 425 L382 425 L381 426 L365 428 L356 431 L339 439 L326 448 L312 461 L303 472 L302 470 L313 450 L323 438 Z M456 415 L453 416 L435 410 L416 408 L415 407 L384 407 L383 408 L377 408 L358 413 L343 420 L334 426 L320 439 L319 438 L328 428 L345 416 L353 412 L374 406 L388 405 L389 404 L420 405 L421 406 L427 406 L428 407 L441 409 Z M795 429 L801 440 L800 442 L785 429 L770 419 L752 411 L736 407 L729 407 L728 406 L700 407 L674 414 L657 423 L648 430 L641 437 L631 451 L625 464 L620 482 L619 502 L620 503 L621 516 L626 532 L635 548 L641 555 L652 564 L672 572 L688 574 L689 575 L700 575 L701 576 L718 576 L719 575 L738 574 L739 573 L756 570 L770 565 L787 556 L798 547 L800 549 L800 552 L802 556 L809 584 L809 588 L812 597 L814 610 L816 615 L817 625 L818 626 L818 629 L816 631 L809 634 L801 636 L793 636 L792 637 L781 637 L780 636 L773 636 L772 635 L764 634 L753 630 L738 622 L706 598 L690 588 L668 579 L648 576 L647 577 L637 578 L627 583 L617 593 L611 604 L607 620 L607 634 L608 635 L608 641 L610 649 L617 662 L620 664 L619 662 L619 655 L618 654 L618 642 L623 622 L629 612 L639 602 L647 598 L651 597 L665 597 L674 602 L684 612 L688 619 L690 627 L689 637 L684 642 L676 642 L668 644 L659 648 L650 654 L624 681 L618 685 L604 691 L590 693 L589 694 L577 694 L576 695 L554 694 L553 693 L548 693 L540 691 L523 682 L507 665 L493 654 L483 649 L461 643 L456 639 L453 633 L453 628 L452 627 L453 621 L457 611 L464 602 L474 596 L482 594 L487 594 L495 596 L499 598 L507 605 L512 612 L517 622 L520 634 L520 642 L521 643 L521 653 L519 661 L520 662 L517 668 L518 669 L522 667 L530 659 L538 642 L540 634 L540 629 L541 628 L539 602 L534 587 L530 579 L522 568 L509 557 L493 550 L499 545 L502 538 L502 535 L504 532 L522 541 L537 557 L545 571 L551 589 L553 605 L554 606 L554 613 L555 614 L555 638 L556 637 L556 610 L555 609 L555 602 L554 601 L554 596 L551 584 L544 566 L535 552 L524 541 L509 533 L518 530 L536 528 L537 527 L545 527 L546 526 L585 526 L586 527 L595 527 L612 531 L608 533 L597 544 L592 551 L586 563 L581 582 L580 606 L581 607 L581 613 L582 614 L583 622 L588 634 L591 639 L594 641 L594 644 L598 650 L608 660 L599 649 L595 642 L594 632 L593 631 L593 612 L599 588 L608 570 L613 563 L624 552 L631 548 L627 548 L620 541 L617 530 L615 527 L610 506 L610 479 L611 478 L611 472 L616 451 L625 431 L633 420 L642 411 L652 404 L664 398 L679 393 L693 391 L694 390 L700 390 L701 389 L730 389 L754 395 L768 402 L781 412 Z M782 409 L780 410 L776 406 L764 398 L744 390 L740 390 L734 388 L726 388 L725 387 L706 387 L705 388 L690 389 L665 396 L651 403 L641 410 L632 419 L624 430 L620 440 L618 442 L614 439 L619 430 L628 418 L644 404 L663 394 L687 387 L706 385 L707 384 L729 384 L730 385 L741 386 L754 390 L768 397 L775 402 Z M603 224 L604 223 L605 224 L604 225 Z M604 223 L605 222 L607 223 L606 224 Z M606 222 L607 221 L609 222 L608 223 Z M608 221 L609 220 L610 221 L609 222 Z M609 220 L610 219 L612 220 L611 221 Z M611 219 L612 218 L613 219 L612 220 Z M612 218 L613 217 L615 218 L614 219 Z M614 217 L615 216 L616 217 L615 218 Z M619 213 L620 214 L616 217 L615 216 Z M486 206 L487 205 L497 205 L498 206 L497 207 L487 207 Z M470 204 L471 203 L477 203 L478 204 L485 204 L486 205 L485 206 L477 206 Z M464 203 L465 202 L470 202 L471 203 L470 204 L465 204 Z M459 202 L460 201 L464 201 L465 202 L464 203 L460 203 Z M454 201 L455 200 L459 200 L460 201 L459 202 L455 202 Z M450 200 L451 199 L454 200 L453 201 Z M445 199 L446 198 L450 199 L449 200 Z M442 198 L443 197 L446 198 L445 199 Z M438 197 L439 196 L442 197 L441 198 Z M632 196 L633 195 L634 196 L633 197 Z M435 196 L436 195 L438 196 L437 197 Z M633 195 L634 194 L635 195 L634 196 Z M432 195 L433 194 L435 195 L434 196 Z M634 194 L635 193 L636 194 L635 195 Z M429 194 L430 193 L431 194 L430 195 Z M420 194 L421 193 L423 194 L422 195 Z M426 193 L427 192 L428 193 L427 194 Z M419 193 L420 192 L421 193 L420 194 Z M413 193 L415 192 L430 202 L463 217 L489 225 L504 227 L505 228 L512 228 L513 229 L547 229 L548 228 L555 228 L556 227 L573 224 L598 215 L617 205 L631 196 L633 197 L619 211 L606 222 L603 223 L602 226 L591 232 L569 240 L552 243 L551 244 L516 245 L515 244 L508 244 L507 243 L493 241 L478 236 L458 227 L432 210 Z M417 192 L418 191 L419 192 L418 193 Z M412 192 L413 191 L414 192 L413 193 Z M411 191 L412 190 L413 191 L412 192 Z M410 190 L411 189 L412 190 L411 191 Z M651 177 L637 188 L630 195 L616 204 L594 215 L567 224 L551 226 L550 227 L522 228 L521 227 L510 227 L509 226 L492 224 L457 213 L431 201 L422 195 L425 194 L441 200 L457 204 L473 206 L474 207 L480 207 L481 208 L506 209 L507 210 L538 209 L539 208 L561 206 L562 205 L566 205 L592 199 L627 187 L649 176 Z M660 176 L656 182 L641 198 L621 214 L619 213 L654 179 L659 175 Z M650 176 L651 175 L653 176 L652 177 Z M659 175 L660 174 L661 175 L660 176 Z M652 175 L653 174 L654 175 L653 176 Z M648 175 L646 177 L644 177 L631 184 L598 196 L574 202 L558 204 L557 205 L551 205 L550 206 L543 206 L542 207 L531 207 L530 208 L498 208 L497 207 L498 206 L541 205 L542 204 L549 204 L550 203 L567 201 L591 195 L598 192 L607 190 L610 188 L619 186 L629 181 L636 179 L645 174 Z M660 174 L661 173 L662 174 L661 175 Z M661 173 L662 172 L663 173 L662 174 Z M662 172 L663 171 L664 172 L663 173 Z M655 171 L649 175 L647 174 L653 170 Z M654 170 L655 169 L657 170 L656 171 Z M656 169 L657 168 L658 169 L657 170 Z M657 168 L658 167 L660 168 L659 169 Z M659 167 L660 166 L662 167 L661 168 Z M661 166 L662 165 L663 166 L662 167 Z M663 165 L664 164 L665 165 L664 166 Z M664 164 L665 163 L666 164 L665 165 Z M677 155 L682 165 L689 186 L694 207 L694 212 L696 219 L696 228 L697 229 L697 257 L696 258 L694 277 L684 309 L669 337 L653 358 L637 374 L621 386 L605 394 L587 400 L575 403 L565 404 L564 405 L558 405 L557 406 L527 407 L526 406 L519 406 L518 405 L510 404 L491 396 L471 381 L454 364 L435 340 L425 324 L413 298 L405 272 L405 268 L402 257 L402 251 L401 250 L401 243 L400 242 L399 218 L400 217 L400 202 L401 201 L402 185 L403 184 L418 200 L442 219 L455 227 L476 237 L491 242 L504 245 L509 245 L510 246 L518 246 L519 247 L548 246 L549 245 L554 245 L555 244 L560 244 L583 237 L606 226 L628 211 L648 193 L662 177 Z M678 153 L672 158 L654 169 L621 184 L579 197 L575 197 L559 201 L554 201 L553 202 L546 202 L545 203 L509 205 L508 204 L491 204 L490 203 L473 202 L472 201 L451 198 L435 194 L431 192 L428 192 L414 187 L402 181 L400 189 L400 195 L399 196 L399 206 L398 207 L398 238 L399 239 L399 248 L400 249 L401 261 L406 282 L415 307 L425 327 L436 344 L447 358 L466 378 L484 393 L502 403 L521 408 L553 408 L554 407 L561 407 L562 406 L577 404 L606 395 L625 385 L639 374 L654 359 L670 338 L686 308 L693 287 L695 274 L696 273 L696 268 L697 267 L697 259 L698 258 L698 228 L697 227 L696 211 L688 178 Z M403 86 L404 87 L394 102 L385 121 L372 157 L372 160 L370 164 L366 180 L366 184 L362 200 L362 205 L361 206 L361 211 L360 212 L359 225 L358 226 L356 255 L355 256 L355 268 L354 269 L354 287 L353 288 L353 343 L354 344 L354 355 L355 356 L355 364 L356 365 L358 383 L362 400 L365 406 L342 416 L333 422 L319 435 L308 450 L301 464 L298 473 L298 477 L296 479 L289 453 L263 414 L255 396 L247 369 L245 351 L244 350 L244 339 L243 338 L243 309 L244 308 L245 289 L246 288 L247 277 L248 276 L251 259 L258 237 L266 220 L266 218 L276 199 L288 181 L329 138 L349 119 L379 102 Z M403 86 L404 85 L405 86 L404 87 Z M404 85 L405 84 L406 85 L405 86 Z M409 83 L415 79 L454 68 L458 68 L463 66 L467 66 L472 64 L482 63 L488 61 L513 58 L514 57 L541 55 L542 54 L553 54 L554 53 L588 52 L589 51 L638 51 L639 52 L650 52 L651 53 L670 55 L703 64 L728 76 L751 93 L783 125 L797 143 L811 164 L824 188 L824 190 L832 207 L838 226 L840 238 L842 243 L842 248 L843 249 L844 264 L845 265 L845 306 L844 307 L844 317 L843 318 L842 333 L841 334 L841 339 L840 340 L840 345 L839 346 L836 366 L830 390 L821 417 L821 420 L810 451 L809 452 L808 451 L808 448 L805 440 L797 424 L790 415 L776 401 L755 389 L743 385 L733 384 L732 383 L715 382 L714 383 L695 384 L694 385 L676 388 L664 392 L651 398 L634 410 L624 421 L617 431 L615 436 L612 439 L601 443 L588 445 L587 446 L572 447 L571 448 L559 448 L558 449 L517 449 L509 447 L503 447 L498 449 L492 439 L475 423 L455 412 L435 406 L431 406 L425 404 L418 404 L417 403 L404 403 L403 402 L383 403 L382 404 L376 404 L375 405 L367 406 L365 404 L360 386 L360 381 L357 368 L357 361 L356 360 L355 332 L354 331 L355 279 L356 278 L356 264 L357 263 L357 252 L358 251 L360 223 L361 222 L362 209 L363 208 L363 203 L364 202 L367 183 L369 178 L369 174 L379 140 L381 137 L388 117 L396 101 L403 90 Z M648 50 L636 50 L635 49 L595 49 L594 50 L572 50 L571 51 L557 51 L556 52 L545 52 L544 53 L516 55 L515 56 L502 57 L501 58 L484 60 L483 61 L464 64 L459 66 L455 66 L435 71 L431 73 L428 73 L407 81 L379 100 L355 114 L353 114 L345 120 L286 181 L273 201 L261 225 L253 246 L245 278 L244 290 L243 291 L243 299 L242 300 L242 313 L241 314 L241 335 L242 336 L242 348 L243 349 L245 368 L253 396 L260 410 L260 412 L268 426 L281 444 L269 448 L260 453 L257 458 L256 463 L259 474 L270 498 L280 529 L285 549 L288 568 L289 569 L291 589 L292 590 L287 606 L287 612 L286 613 L287 633 L286 634 L285 647 L280 668 L275 682 L275 686 L272 697 L272 719 L276 733 L279 738 L285 743 L292 745 L305 745 L306 744 L313 744 L324 741 L325 742 L324 779 L323 780 L323 793 L322 794 L322 804 L321 805 L321 815 L320 816 L320 831 L319 832 L316 892 L315 893 L314 939 L313 940 L313 976 L312 977 L312 1139 L313 1140 L314 1216 L315 1217 L316 1259 L317 1260 L318 1268 L330 1279 L338 1284 L346 1285 L352 1282 L365 1282 L368 1284 L382 1284 L403 1299 L416 1299 L419 1301 L423 1301 L424 1302 L433 1302 L441 1298 L445 1298 L446 1297 L454 1297 L455 1298 L463 1298 L464 1299 L465 1298 L469 1298 L474 1301 L478 1301 L483 1303 L495 1310 L520 1310 L530 1304 L553 1295 L562 1295 L563 1296 L570 1295 L571 1296 L583 1297 L588 1301 L598 1306 L615 1307 L616 1306 L623 1306 L644 1294 L652 1295 L667 1291 L671 1291 L675 1293 L690 1293 L703 1299 L715 1299 L716 1298 L727 1297 L733 1293 L738 1292 L754 1282 L758 1282 L761 1280 L769 1278 L789 1279 L810 1287 L819 1287 L824 1285 L828 1285 L834 1279 L835 1250 L836 1249 L836 1227 L837 1226 L837 1204 L838 1203 L838 1153 L839 1152 L838 1150 L839 1148 L838 913 L837 912 L836 871 L835 870 L835 859 L834 858 L832 830 L831 829 L831 822 L830 821 L830 815 L829 814 L829 808 L827 801 L827 795 L826 794 L823 771 L822 770 L816 737 L817 736 L821 736 L822 737 L829 737 L830 738 L858 738 L865 736 L872 729 L875 717 L873 683 L872 679 L860 657 L855 643 L850 623 L850 618 L847 605 L847 586 L846 582 L841 574 L842 559 L844 553 L844 548 L845 547 L855 493 L862 470 L869 455 L870 442 L868 438 L862 433 L844 427 L827 423 L822 420 L831 393 L838 365 L841 345 L842 344 L842 339 L843 338 L843 332 L844 331 L845 315 L846 314 L846 303 L847 302 L847 268 L846 267 L845 251 L844 250 L844 245 L843 244 L839 223 L833 205 L817 171 L799 143 L787 127 L777 116 L750 90 L726 73 L710 65 L697 61 L694 59 L669 53 L649 51 Z" fill="#eef3f4" fill-rule="evenodd"/>
</svg>
