<svg xmlns="http://www.w3.org/2000/svg" width="1086" height="1448" viewBox="0 0 1086 1448">
  <title>0128</title>
  <path d="M649 1284 L645 1282 L637 1281 L633 1285 L631 1289 L631 1293 L628 1297 L628 1299 L631 1297 L632 1291 L637 1283 L644 1283 L649 1287 L649 1289 L642 1298 L643 1302 L641 1306 L634 1311 L627 1310 L626 1309 L627 1301 L624 1303 L624 1308 L627 1312 L634 1313 L644 1305 L644 1298 L649 1293 L651 1288 Z M345 1281 L346 1280 L347 1281 L346 1282 Z M443 1271 L445 1273 L446 1279 L448 1283 L448 1289 L443 1300 L443 1305 L447 1308 L451 1308 L453 1310 L453 1314 L449 1320 L448 1328 L446 1333 L440 1339 L437 1336 L436 1333 L436 1323 L430 1321 L428 1319 L428 1315 L435 1304 L435 1297 L432 1292 L432 1286 L437 1279 L439 1274 Z M445 1270 L439 1271 L437 1276 L431 1284 L430 1292 L433 1297 L433 1304 L426 1315 L427 1321 L434 1324 L435 1336 L438 1340 L444 1339 L447 1335 L450 1328 L451 1320 L455 1313 L455 1309 L453 1307 L447 1306 L445 1304 L445 1300 L450 1289 L450 1283 L447 1276 L447 1273 Z M755 1262 L756 1261 L757 1263 L756 1264 Z M753 1261 L754 1260 L755 1261 L754 1262 Z M326 1260 L327 1259 L328 1260 L327 1261 Z M325 1259 L326 1258 L327 1259 L326 1260 Z M748 1256 L751 1259 L751 1261 L754 1262 L752 1266 L753 1287 L757 1293 L764 1297 L764 1299 L767 1303 L778 1302 L781 1306 L783 1306 L786 1309 L785 1318 L788 1322 L788 1324 L782 1331 L769 1342 L758 1349 L738 1358 L737 1357 L743 1350 L745 1344 L742 1340 L737 1339 L734 1334 L738 1325 L742 1321 L748 1318 L747 1309 L743 1297 L747 1283 L747 1274 L744 1266 L744 1261 L745 1258 Z M324 1257 L325 1256 L326 1257 L325 1258 Z M323 1256 L324 1255 L325 1256 L324 1257 Z M321 1253 L322 1252 L324 1255 L323 1256 Z M756 1231 L758 1231 L763 1238 L763 1246 L762 1247 L763 1251 L759 1260 L757 1262 L754 1259 L757 1253 L758 1242 L757 1239 L753 1235 L753 1233 Z M793 1212 L796 1216 L796 1221 L799 1221 L802 1224 L802 1228 L800 1236 L798 1238 L795 1234 L793 1234 L789 1238 L787 1238 L785 1234 L785 1229 L788 1222 L789 1216 Z M791 1211 L789 1213 L785 1223 L784 1237 L787 1240 L789 1240 L794 1235 L796 1239 L798 1240 L802 1236 L804 1225 L802 1221 L797 1219 L797 1214 L794 1211 Z M393 1202 L397 1205 L399 1209 L401 1209 L404 1212 L402 1223 L405 1226 L404 1237 L406 1243 L403 1249 L405 1257 L405 1265 L404 1266 L404 1271 L400 1277 L397 1277 L394 1272 L394 1265 L395 1264 L393 1259 L387 1251 L388 1238 L379 1222 L379 1214 L383 1210 L387 1209 Z M393 1200 L386 1208 L383 1208 L379 1211 L377 1215 L377 1222 L380 1228 L383 1231 L387 1240 L385 1246 L385 1250 L393 1263 L393 1273 L394 1276 L397 1279 L400 1279 L405 1273 L406 1265 L407 1264 L406 1252 L405 1251 L405 1248 L407 1245 L407 1238 L406 1237 L407 1227 L404 1223 L406 1213 L404 1209 L400 1207 L396 1201 Z M535 1162 L539 1165 L541 1169 L540 1181 L543 1185 L541 1195 L545 1200 L545 1204 L542 1208 L541 1212 L541 1218 L547 1233 L544 1246 L544 1251 L547 1259 L545 1278 L548 1282 L553 1283 L559 1286 L563 1285 L566 1281 L567 1277 L570 1274 L571 1268 L575 1264 L588 1265 L595 1260 L601 1259 L603 1256 L601 1250 L602 1247 L605 1243 L630 1234 L645 1234 L649 1237 L649 1239 L645 1243 L640 1245 L614 1249 L611 1253 L612 1266 L609 1269 L602 1271 L594 1278 L582 1278 L578 1280 L577 1282 L577 1293 L576 1296 L572 1299 L567 1299 L562 1296 L553 1297 L546 1290 L542 1290 L536 1285 L536 1260 L535 1259 L535 1245 L534 1244 L534 1229 L536 1224 L536 1218 L534 1216 L530 1215 L536 1208 L534 1202 L535 1193 L531 1189 L532 1188 L531 1185 L534 1181 L533 1165 Z M536 1160 L532 1163 L531 1166 L533 1179 L528 1187 L528 1190 L534 1193 L533 1194 L534 1209 L527 1215 L528 1218 L533 1218 L534 1219 L534 1226 L532 1232 L533 1254 L534 1255 L534 1263 L535 1264 L534 1283 L538 1290 L546 1292 L553 1299 L563 1298 L568 1301 L572 1301 L577 1297 L579 1293 L578 1283 L581 1280 L596 1279 L603 1272 L609 1271 L614 1265 L613 1253 L615 1250 L618 1249 L629 1249 L644 1245 L651 1240 L651 1237 L649 1234 L644 1232 L633 1232 L632 1233 L627 1233 L618 1237 L607 1240 L600 1247 L601 1256 L599 1258 L593 1259 L587 1264 L583 1264 L582 1263 L574 1263 L570 1266 L569 1271 L562 1284 L558 1284 L550 1281 L547 1278 L546 1275 L549 1264 L548 1257 L546 1253 L546 1244 L548 1238 L548 1230 L543 1219 L543 1209 L547 1204 L547 1200 L542 1194 L544 1190 L544 1184 L541 1180 L542 1168 L540 1164 Z M849 1147 L851 1150 L851 1158 L849 1161 L848 1171 L837 1183 L836 1192 L831 1196 L828 1201 L825 1202 L823 1200 L824 1190 L829 1185 L833 1184 L838 1178 L842 1169 L845 1151 Z M648 1148 L649 1147 L651 1148 L650 1149 Z M412 1147 L417 1146 L426 1151 L428 1153 L432 1162 L432 1170 L430 1175 L430 1178 L434 1185 L434 1194 L432 1198 L432 1205 L433 1206 L433 1213 L432 1214 L430 1213 L430 1204 L426 1200 L426 1194 L424 1191 L424 1181 L425 1179 L422 1174 L411 1164 L408 1156 L408 1152 Z M850 1146 L847 1146 L843 1152 L842 1162 L838 1175 L833 1182 L826 1185 L822 1190 L821 1200 L825 1204 L828 1203 L831 1200 L832 1197 L837 1194 L839 1183 L848 1174 L850 1170 L850 1163 L853 1156 L852 1148 Z M413 1145 L408 1148 L406 1152 L406 1155 L411 1167 L416 1170 L423 1179 L422 1190 L424 1194 L424 1199 L428 1204 L429 1215 L431 1217 L433 1217 L435 1212 L434 1198 L436 1193 L436 1185 L432 1178 L432 1174 L434 1169 L434 1163 L430 1153 L426 1149 L424 1149 L419 1145 Z M399 1153 L395 1158 L391 1160 L384 1159 L378 1165 L374 1165 L367 1162 L365 1163 L360 1162 L358 1160 L355 1153 L355 1148 L359 1145 L363 1145 L371 1151 L378 1151 L381 1149 L383 1144 L386 1141 L393 1140 L395 1142 L395 1147 Z M400 1151 L397 1147 L397 1142 L392 1138 L384 1140 L382 1142 L379 1149 L372 1150 L362 1143 L355 1145 L353 1148 L353 1153 L355 1158 L360 1164 L368 1164 L374 1167 L380 1166 L384 1161 L391 1162 L397 1159 L400 1155 Z M294 1134 L301 1141 L301 1144 L305 1152 L312 1159 L311 1167 L307 1171 L302 1167 L301 1163 L298 1160 L294 1151 L295 1145 L293 1140 L293 1135 Z M293 1132 L291 1136 L291 1139 L293 1143 L293 1149 L292 1150 L294 1156 L301 1166 L302 1170 L307 1173 L312 1168 L313 1158 L311 1154 L306 1151 L306 1149 L297 1133 Z M822 1126 L829 1133 L829 1137 L826 1140 L825 1144 L823 1146 L819 1142 L815 1145 L812 1145 L809 1142 L809 1137 L812 1131 L814 1129 L819 1130 Z M670 1124 L672 1126 L673 1131 L677 1134 L676 1138 L671 1143 L675 1148 L669 1152 L669 1154 L672 1157 L673 1161 L670 1164 L665 1164 L664 1163 L654 1164 L651 1162 L650 1156 L653 1153 L656 1152 L656 1149 L651 1146 L648 1141 L648 1137 L655 1132 L656 1128 L658 1126 L664 1126 L667 1124 Z M823 1124 L818 1128 L813 1127 L811 1129 L811 1131 L807 1138 L808 1144 L811 1147 L814 1147 L818 1144 L821 1148 L824 1148 L826 1146 L827 1141 L831 1136 L831 1133 L829 1130 L825 1128 L825 1126 Z M762 1123 L763 1124 L763 1131 L758 1138 L751 1154 L747 1159 L744 1160 L741 1157 L742 1148 L747 1138 L755 1127 L759 1123 Z M670 1122 L665 1124 L657 1125 L654 1128 L654 1130 L649 1133 L646 1137 L646 1142 L649 1145 L646 1149 L648 1151 L652 1152 L649 1155 L648 1160 L654 1166 L658 1166 L659 1165 L670 1166 L674 1163 L675 1160 L671 1153 L676 1150 L676 1146 L674 1142 L678 1138 L679 1135 L673 1128 L673 1124 Z M762 1121 L758 1122 L753 1127 L753 1129 L746 1136 L744 1142 L740 1148 L739 1156 L740 1159 L744 1162 L747 1161 L751 1157 L755 1150 L758 1141 L764 1133 L765 1124 Z M466 1119 L467 1120 L467 1125 L469 1129 L469 1135 L465 1146 L465 1154 L468 1160 L468 1171 L462 1187 L462 1190 L466 1201 L466 1206 L461 1216 L459 1223 L461 1235 L456 1242 L455 1246 L452 1249 L449 1249 L448 1248 L447 1237 L451 1229 L451 1222 L447 1216 L447 1213 L455 1199 L455 1192 L458 1189 L458 1187 L454 1183 L454 1171 L452 1167 L453 1159 L458 1150 L458 1143 L456 1137 L456 1129 L458 1123 L460 1121 L463 1121 Z M794 1114 L796 1117 L795 1126 L791 1131 L789 1131 L786 1134 L779 1151 L780 1158 L786 1164 L786 1169 L782 1174 L778 1175 L774 1172 L772 1168 L772 1152 L777 1136 L785 1119 L790 1114 Z M851 1113 L851 1116 L846 1120 L846 1122 L844 1124 L842 1122 L838 1121 L839 1120 L838 1117 L840 1115 L841 1116 L845 1116 L849 1112 Z M793 1112 L790 1112 L785 1116 L775 1137 L774 1144 L770 1154 L771 1169 L773 1173 L778 1177 L784 1175 L788 1169 L787 1163 L781 1156 L781 1150 L787 1135 L795 1129 L798 1123 L798 1117 Z M852 1111 L849 1110 L844 1115 L843 1114 L839 1114 L836 1117 L836 1122 L838 1124 L841 1124 L844 1126 L847 1123 L847 1121 L851 1118 Z M730 1087 L731 1088 L732 1098 L727 1106 L725 1107 L721 1100 L721 1097 L726 1093 L727 1090 Z M731 1086 L728 1086 L726 1088 L725 1092 L719 1097 L719 1100 L723 1104 L723 1108 L724 1109 L726 1109 L729 1106 L734 1097 L733 1095 L733 1088 Z M298 1081 L301 1094 L301 1102 L300 1103 L301 1121 L299 1124 L296 1121 L295 1117 L295 1104 L293 1100 L294 1087 Z M298 1079 L295 1081 L291 1092 L291 1098 L294 1106 L294 1111 L293 1112 L294 1120 L296 1124 L298 1126 L300 1126 L302 1122 L302 1119 L303 1118 L304 1119 L304 1123 L307 1128 L307 1134 L311 1144 L313 1146 L315 1146 L319 1151 L323 1152 L327 1147 L328 1143 L327 1136 L321 1123 L315 1116 L309 1106 L308 1106 L306 1115 L307 1115 L309 1109 L319 1123 L326 1138 L326 1144 L325 1148 L323 1150 L321 1150 L317 1145 L312 1143 L311 1138 L308 1132 L308 1127 L306 1124 L306 1119 L305 1117 L304 1119 L303 1118 L303 1112 L301 1108 L303 1097 L301 1091 L301 1084 Z M616 1055 L619 1062 L619 1066 L616 1070 L617 1076 L612 1084 L606 1090 L607 1093 L606 1099 L612 1104 L611 1109 L603 1118 L608 1123 L608 1128 L602 1133 L594 1133 L587 1137 L584 1137 L582 1135 L583 1126 L580 1124 L579 1121 L587 1112 L587 1109 L583 1102 L583 1099 L591 1090 L592 1082 L597 1077 L599 1070 L602 1067 L606 1066 L610 1059 L614 1055 Z M566 1053 L568 1055 L569 1060 L574 1061 L576 1064 L571 1071 L573 1075 L573 1078 L568 1082 L564 1081 L562 1083 L561 1087 L557 1090 L554 1087 L554 1081 L553 1080 L547 1080 L545 1078 L547 1074 L551 1070 L551 1062 L554 1059 L558 1059 L563 1053 Z M616 1053 L613 1054 L604 1065 L598 1068 L596 1072 L596 1076 L590 1082 L590 1089 L582 1096 L581 1101 L585 1109 L585 1112 L582 1116 L578 1118 L577 1122 L582 1128 L580 1132 L580 1135 L584 1139 L587 1139 L594 1135 L604 1134 L608 1131 L610 1127 L609 1121 L605 1118 L613 1109 L614 1104 L608 1098 L609 1097 L608 1090 L616 1081 L618 1077 L618 1070 L621 1066 L621 1063 L619 1060 L619 1056 Z M567 1051 L563 1051 L558 1057 L554 1057 L551 1059 L549 1063 L549 1067 L550 1068 L544 1076 L544 1080 L545 1081 L551 1081 L552 1082 L552 1087 L555 1091 L561 1090 L564 1083 L570 1083 L575 1078 L573 1071 L577 1066 L577 1062 L570 1058 L570 1055 Z M831 1043 L833 1045 L833 1047 L830 1051 L827 1048 Z M855 1042 L857 1044 L857 1048 L850 1054 L851 1063 L846 1067 L844 1065 L844 1058 L849 1052 L848 1046 L852 1042 Z M876 1037 L877 1036 L878 1037 L877 1038 Z M273 1036 L277 1036 L279 1038 L283 1038 L286 1042 L287 1048 L283 1053 L281 1054 L278 1053 L271 1044 L271 1038 Z M887 1035 L891 1036 L894 1039 L895 1050 L893 1058 L888 1064 L888 1066 L883 1076 L878 1080 L877 1079 L878 1064 L883 1057 L885 1051 L881 1044 L881 1040 L878 1038 Z M273 1034 L269 1039 L270 1046 L277 1054 L279 1055 L285 1054 L289 1048 L288 1042 L284 1037 L279 1036 L276 1034 Z M716 1027 L713 1030 L713 1034 L716 1042 L718 1043 L715 1036 L715 1029 Z M876 1023 L876 1029 L875 1030 L877 1036 L876 1037 L874 1036 L872 1037 L867 1031 L864 1030 L861 1035 L857 1038 L854 1035 L853 1031 L851 1029 L847 1029 L843 1032 L839 1041 L836 1044 L833 1042 L832 1037 L840 1026 L849 1027 L854 1020 L858 1020 L861 1025 L863 1026 L866 1024 L869 1019 L871 1019 Z M838 1025 L831 1035 L831 1041 L827 1045 L824 1053 L826 1054 L829 1051 L830 1052 L835 1046 L839 1044 L844 1035 L844 1033 L846 1031 L850 1030 L852 1032 L853 1037 L856 1039 L848 1043 L847 1045 L847 1052 L842 1059 L843 1067 L846 1069 L853 1062 L851 1055 L859 1047 L859 1044 L856 1040 L860 1039 L862 1037 L863 1033 L865 1032 L869 1035 L871 1039 L878 1039 L879 1040 L879 1044 L883 1049 L882 1055 L876 1064 L876 1073 L875 1074 L876 1081 L881 1080 L885 1076 L890 1064 L894 1060 L897 1049 L897 1043 L895 1037 L891 1034 L878 1035 L877 1034 L878 1023 L872 1017 L869 1017 L863 1024 L858 1018 L854 1018 L848 1026 L844 1024 Z M363 1015 L368 1020 L368 1027 L372 1036 L372 1042 L368 1045 L365 1044 L362 1046 L359 1052 L356 1055 L352 1056 L346 1062 L343 1062 L340 1059 L340 1053 L334 1047 L335 1043 L338 1040 L342 1039 L344 1037 L345 1031 L348 1024 Z M367 1015 L360 1014 L354 1019 L349 1021 L344 1028 L344 1032 L342 1037 L336 1039 L334 1041 L332 1047 L338 1054 L338 1059 L341 1063 L345 1064 L349 1062 L354 1057 L358 1056 L361 1050 L365 1046 L370 1046 L373 1044 L374 1036 L371 1031 L370 1020 Z M387 1019 L392 1019 L397 1014 L401 1012 L410 1013 L415 1010 L425 1011 L428 1015 L433 1016 L436 1019 L438 1024 L442 1028 L448 1030 L451 1033 L453 1039 L457 1043 L465 1045 L470 1050 L471 1052 L470 1057 L472 1060 L472 1065 L467 1072 L467 1076 L468 1077 L467 1086 L471 1094 L467 1107 L467 1113 L468 1114 L468 1119 L467 1120 L466 1117 L463 1120 L459 1119 L453 1104 L454 1096 L452 1093 L452 1089 L454 1081 L452 1076 L453 1072 L457 1067 L457 1065 L449 1058 L448 1052 L446 1050 L443 1050 L436 1047 L426 1035 L417 1036 L410 1034 L402 1041 L387 1039 L383 1035 L383 1030 L385 1028 L385 1021 Z M401 1010 L397 1012 L393 1017 L387 1017 L383 1020 L383 1025 L384 1026 L381 1030 L383 1038 L389 1042 L401 1043 L409 1036 L413 1036 L419 1038 L425 1036 L429 1040 L433 1047 L439 1050 L446 1051 L447 1052 L448 1060 L455 1065 L455 1067 L451 1072 L452 1084 L450 1088 L450 1093 L452 1096 L452 1100 L451 1101 L452 1107 L456 1114 L458 1121 L454 1129 L454 1136 L456 1142 L456 1150 L451 1159 L450 1165 L451 1166 L451 1170 L453 1173 L452 1184 L456 1187 L456 1189 L453 1192 L453 1199 L447 1208 L445 1214 L446 1218 L450 1224 L445 1238 L446 1240 L446 1247 L448 1250 L452 1251 L455 1249 L458 1242 L462 1237 L461 1220 L467 1208 L467 1199 L464 1193 L464 1185 L468 1177 L470 1169 L470 1161 L466 1149 L471 1132 L469 1124 L469 1104 L472 1099 L472 1091 L469 1086 L469 1082 L470 1081 L469 1072 L474 1063 L472 1058 L472 1050 L465 1043 L458 1042 L455 1039 L453 1033 L448 1028 L442 1026 L436 1016 L431 1014 L427 1010 L419 1008 L415 1008 L410 1011 Z M730 1007 L725 1010 L724 1013 L720 1017 L717 1025 L719 1024 L720 1020 L729 1009 L733 1012 L732 1017 L726 1023 L723 1029 L724 1031 L724 1042 L726 1044 L727 1048 L723 1052 L719 1059 L718 1058 L718 1047 L716 1048 L716 1053 L717 1054 L716 1059 L718 1061 L720 1061 L722 1059 L724 1054 L728 1051 L729 1047 L725 1040 L726 1039 L725 1028 L735 1015 L733 1009 Z M563 1007 L562 1011 L564 1012 L564 1007 Z M751 998 L745 1005 L745 1009 L747 1010 L748 1003 L753 999 L755 1001 L757 1007 L762 1013 L764 1014 L772 1013 L774 1015 L777 1023 L780 1026 L789 1029 L795 1036 L792 1052 L796 1060 L796 1068 L792 1083 L790 1085 L787 1082 L787 1076 L785 1070 L785 1062 L782 1056 L782 1046 L781 1045 L781 1037 L773 1024 L769 1020 L764 1021 L761 1019 L758 1019 L755 1021 L751 1021 L749 1018 L749 1015 L747 1014 L748 1020 L751 1023 L754 1023 L757 1021 L761 1021 L764 1023 L769 1022 L776 1031 L780 1039 L780 1046 L781 1047 L780 1054 L784 1064 L784 1074 L786 1078 L786 1085 L787 1087 L790 1087 L794 1082 L794 1079 L797 1072 L797 1058 L794 1052 L794 1047 L797 1038 L796 1034 L789 1027 L781 1025 L778 1022 L777 1017 L774 1012 L772 1011 L764 1012 L757 1004 L757 1001 L755 998 Z M609 995 L612 1000 L612 1007 L608 1015 L608 1021 L606 1022 L603 1015 L600 1014 L597 1017 L597 1022 L599 1026 L599 1033 L593 1039 L590 1039 L587 1036 L587 1029 L588 1025 L592 1020 L593 1013 L597 1008 L600 1008 L605 1005 Z M610 993 L607 994 L605 1002 L601 1007 L598 1006 L594 1008 L592 1011 L591 1019 L587 1024 L585 1031 L586 1038 L590 1041 L595 1040 L601 1033 L601 1026 L598 1019 L600 1016 L602 1017 L604 1023 L609 1024 L610 1014 L614 1007 L614 1001 L612 998 L612 995 Z M433 979 L437 982 L440 988 L442 989 L445 988 L447 990 L447 995 L443 997 L440 1002 L438 1002 L436 998 L431 999 L426 992 L431 986 L431 981 Z M433 977 L430 980 L430 985 L425 989 L425 994 L430 1001 L435 1000 L437 1004 L440 1004 L449 995 L449 990 L447 987 L442 987 L437 979 Z M564 973 L560 977 L558 977 L552 981 L551 986 L553 988 L555 988 L555 987 L552 984 L557 979 L562 978 Z M567 972 L566 972 L568 979 L560 985 L558 988 L561 987 L570 979 Z M178 969 L190 992 L190 994 L194 1001 L194 1003 L197 1008 L197 1010 L200 1015 L200 1017 L203 1022 L215 1052 L258 1144 L290 1200 L322 1251 L321 1253 L307 1235 L284 1200 L263 1164 L243 1124 L241 1122 L240 1118 L237 1114 L237 1112 L219 1075 L207 1045 L191 1013 L177 972 Z M176 968 L177 967 L178 969 L177 970 Z M175 966 L176 965 L177 966 L176 967 Z M174 964 L175 963 L176 964 L175 965 Z M309 962 L311 960 L313 961 L311 963 Z M212 951 L213 952 L213 956 L212 957 L211 956 L211 952 Z M633 949 L645 951 L648 955 L648 962 L646 968 L642 972 L636 972 L635 971 L627 972 L622 967 L622 963 L624 959 L630 954 Z M633 947 L629 951 L629 953 L622 959 L620 967 L623 972 L627 974 L631 973 L642 974 L646 971 L650 961 L650 955 L645 949 L640 949 L636 947 Z M854 945 L856 947 L857 951 L863 956 L862 960 L857 963 L854 969 L844 972 L843 980 L840 984 L833 983 L832 982 L833 978 L838 969 L841 966 L847 966 L850 964 L850 958 L854 955 L852 950 L852 947 Z M854 943 L851 945 L851 951 L853 954 L849 957 L849 962 L847 964 L840 965 L835 970 L830 982 L832 985 L836 985 L837 984 L838 985 L842 985 L844 982 L845 974 L847 972 L852 972 L857 970 L857 965 L863 962 L864 955 L858 950 L858 947 Z M479 954 L473 948 L472 943 L469 940 L464 941 L460 945 L457 945 L451 939 L446 939 L441 942 L438 942 L436 937 L432 934 L427 934 L424 936 L421 936 L419 934 L418 930 L414 927 L408 927 L402 931 L398 930 L394 933 L392 932 L382 932 L378 934 L373 939 L364 942 L357 942 L352 939 L343 939 L336 942 L326 942 L318 948 L315 949 L297 951 L288 958 L278 962 L269 962 L262 965 L254 965 L252 966 L245 973 L241 974 L237 978 L236 984 L231 987 L224 995 L221 1001 L221 1010 L222 1013 L227 1018 L230 1019 L233 1018 L238 1013 L238 1011 L241 1007 L244 1007 L241 1005 L238 1008 L238 1011 L233 1016 L229 1017 L224 1013 L222 1004 L224 998 L229 991 L237 985 L239 978 L243 975 L246 975 L252 968 L261 965 L265 966 L268 964 L277 964 L287 960 L299 952 L307 952 L312 950 L318 950 L326 944 L338 943 L341 941 L346 941 L347 940 L353 941 L358 944 L368 943 L381 934 L384 933 L395 934 L398 932 L403 932 L407 929 L414 929 L421 938 L427 936 L432 936 L435 939 L436 943 L440 944 L445 941 L451 941 L456 946 L459 947 L464 943 L469 942 L471 945 L472 950 L478 956 L476 959 L474 959 L470 955 L465 955 L461 957 L455 963 L451 963 L447 959 L444 952 L441 951 L436 954 L432 954 L429 952 L427 946 L422 942 L416 942 L412 946 L405 949 L399 949 L392 944 L389 944 L386 947 L385 950 L379 956 L376 957 L372 956 L366 949 L362 950 L357 957 L353 959 L340 958 L335 962 L330 962 L321 957 L312 958 L305 968 L296 970 L290 977 L280 977 L275 982 L272 983 L268 983 L262 981 L257 985 L253 991 L254 994 L264 994 L267 997 L271 1005 L276 1005 L279 1003 L283 1003 L290 1007 L292 1007 L297 1011 L299 1011 L303 1014 L304 1018 L307 1019 L311 1023 L312 1027 L317 1033 L319 1037 L317 1049 L322 1058 L320 1064 L320 1070 L324 1080 L322 1095 L317 1099 L313 1096 L310 1087 L307 1083 L307 1075 L304 1076 L301 1073 L299 1068 L299 1064 L295 1056 L295 1048 L299 1042 L299 1035 L297 1030 L288 1022 L283 1022 L282 1023 L274 1022 L264 1009 L262 1009 L260 1012 L260 1019 L262 1023 L262 1026 L258 1029 L247 1020 L245 1013 L244 1013 L246 1022 L248 1024 L251 1024 L256 1030 L262 1029 L264 1025 L263 1020 L261 1017 L263 1011 L274 1024 L277 1025 L288 1024 L295 1030 L297 1033 L298 1040 L294 1046 L293 1054 L298 1063 L298 1071 L306 1079 L306 1085 L313 1098 L315 1100 L319 1100 L322 1098 L325 1092 L325 1076 L321 1067 L323 1062 L323 1055 L319 1049 L319 1044 L321 1040 L320 1035 L313 1026 L311 1020 L306 1017 L302 1011 L285 1002 L272 1003 L270 1001 L270 999 L267 994 L263 992 L256 993 L255 991 L261 983 L274 984 L281 978 L282 979 L290 979 L298 971 L305 970 L308 968 L310 964 L317 958 L322 959 L331 964 L336 963 L341 958 L353 961 L357 959 L364 950 L372 958 L379 958 L383 955 L390 945 L397 950 L404 951 L412 948 L416 944 L420 943 L425 946 L428 953 L432 956 L435 956 L440 953 L442 953 L445 956 L447 962 L451 965 L455 965 L461 959 L467 956 L470 957 L476 962 L479 960 Z M143 911 L155 928 L169 952 L190 1015 L205 1045 L205 1047 L218 1075 L221 1084 L256 1155 L294 1219 L323 1259 L345 1284 L351 1289 L360 1306 L368 1318 L367 1320 L348 1304 L325 1281 L311 1264 L265 1200 L237 1154 L216 1112 L216 1110 L207 1092 L207 1090 L204 1085 L194 1060 L193 1055 L182 1028 L178 1014 L176 1011 L172 997 L170 994 L167 983 L161 969 L158 958 L156 955 L153 944 L151 941 L142 914 Z M141 911 L142 910 L143 911 L142 912 Z M609 896 L614 902 L614 905 L608 910 L607 912 L608 921 L601 928 L601 931 L603 933 L609 934 L613 937 L613 940 L609 945 L609 952 L605 956 L601 956 L597 953 L593 953 L589 956 L589 960 L593 966 L592 970 L592 976 L594 979 L593 985 L589 989 L581 991 L578 994 L578 997 L575 1000 L569 1001 L567 1003 L567 1011 L564 1017 L564 1021 L568 1026 L566 1028 L560 1029 L554 1034 L552 1034 L547 1037 L543 1037 L533 1027 L531 1023 L532 1016 L534 1012 L548 993 L548 988 L546 986 L541 988 L536 984 L535 981 L536 974 L539 969 L547 961 L555 958 L563 960 L574 960 L579 956 L577 947 L581 942 L582 937 L589 930 L589 926 L586 921 L586 915 L588 910 L592 906 L596 906 L600 904 L605 896 Z M462 900 L457 903 L451 903 L448 901 L443 901 L439 904 L433 904 L421 910 L399 909 L398 905 L396 903 L398 900 L405 902 L412 902 L424 895 L440 895 L441 894 L451 894 L459 897 Z M609 894 L604 895 L597 904 L591 905 L587 908 L586 913 L584 915 L584 921 L587 926 L587 930 L581 935 L580 941 L575 947 L578 956 L576 958 L551 957 L547 959 L538 968 L534 976 L535 986 L539 989 L544 989 L545 988 L547 990 L545 995 L531 1014 L530 1025 L544 1039 L547 1039 L554 1035 L556 1035 L562 1030 L567 1030 L570 1027 L570 1023 L568 1024 L566 1021 L566 1018 L569 1012 L569 1004 L571 1002 L577 1001 L579 999 L581 993 L592 989 L596 983 L596 979 L594 975 L595 967 L591 960 L591 957 L593 955 L597 955 L601 958 L605 958 L611 952 L611 945 L615 940 L615 938 L612 934 L605 932 L603 930 L603 928 L610 920 L609 911 L614 908 L616 905 L616 902 L612 896 Z M463 899 L458 895 L444 892 L439 894 L423 894 L411 901 L397 899 L395 900 L395 904 L397 906 L397 909 L400 911 L407 910 L408 911 L418 912 L425 910 L431 906 L439 906 L445 902 L453 905 L459 904 L463 902 Z M274 883 L275 882 L276 883 L275 884 Z M309 884 L310 888 L314 893 L315 897 L314 904 L311 908 L297 907 L292 904 L287 904 L281 910 L279 911 L277 910 L278 890 L275 885 L276 883 L288 886 L289 885 L298 885 L305 881 Z M272 880 L272 883 L276 889 L276 894 L277 895 L277 899 L275 904 L276 912 L278 913 L281 912 L288 905 L291 905 L298 909 L304 908 L308 910 L312 909 L316 904 L316 894 L310 883 L307 880 L302 880 L297 884 L290 883 L287 885 Z M702 885 L698 889 L691 889 L681 894 L677 894 L676 893 L675 878 L687 875 L693 881 L698 882 Z M209 868 L215 875 L218 875 L221 873 L224 873 L226 875 L229 874 L233 881 L233 886 L231 888 L226 885 L222 885 L216 892 L213 891 L210 894 L209 898 L211 903 L211 912 L209 916 L209 919 L212 923 L212 929 L218 938 L218 941 L213 944 L211 952 L210 951 L210 947 L206 946 L206 939 L204 937 L206 932 L206 926 L202 920 L202 917 L200 913 L200 909 L207 899 L206 887 L202 884 L201 878 L203 876 L204 877 L206 876 L206 872 Z M208 867 L199 878 L200 884 L205 888 L205 896 L206 897 L203 903 L199 907 L198 913 L201 918 L201 922 L205 928 L202 935 L204 940 L204 945 L210 951 L209 955 L211 959 L214 961 L215 960 L214 946 L219 943 L220 939 L219 936 L214 930 L214 923 L210 918 L213 912 L213 905 L212 904 L211 896 L213 893 L219 892 L220 889 L223 886 L227 887 L230 890 L232 890 L234 888 L235 881 L232 878 L231 873 L229 872 L226 873 L224 871 L221 871 L219 873 L215 873 L211 867 Z M938 864 L939 866 L935 870 L931 880 L919 894 L916 905 L914 907 L909 908 L907 916 L901 924 L900 923 L900 918 L904 911 L904 909 L911 903 L912 897 L914 893 L918 889 L920 885 L928 877 L931 871 Z M938 864 L939 863 L940 864 L939 865 Z M939 863 L940 862 L941 863 L940 864 Z M577 869 L577 872 L573 876 L568 878 L565 878 L562 876 L551 878 L544 874 L544 866 L548 862 L554 863 L562 859 L571 860 L573 862 L573 865 Z M578 868 L575 865 L575 863 L572 859 L564 857 L555 861 L548 860 L542 864 L540 863 L543 869 L542 874 L545 877 L552 880 L557 879 L560 877 L568 880 L577 875 Z M127 856 L135 876 L142 889 L172 933 L194 971 L212 1008 L220 1029 L244 1081 L246 1088 L249 1093 L261 1123 L276 1153 L290 1176 L332 1255 L346 1279 L345 1281 L337 1272 L336 1269 L306 1224 L304 1219 L296 1207 L260 1144 L228 1077 L228 1075 L216 1050 L216 1048 L207 1029 L193 994 L175 958 L158 930 L143 909 L137 898 L126 861 L126 857 Z M126 852 L127 853 L126 857 L125 856 Z M124 850 L125 849 L126 851 L125 852 Z M964 846 L962 853 L959 858 L953 858 L947 862 L943 862 L942 863 L940 862 L942 855 L944 853 L949 852 L954 848 L961 848 L963 845 Z M543 840 L544 833 L546 831 L553 828 L554 829 L562 828 L567 830 L571 834 L569 839 L564 840 L560 844 L556 846 L549 845 L545 843 Z M542 834 L542 841 L543 843 L547 846 L551 847 L558 847 L562 845 L565 841 L568 841 L572 838 L572 832 L564 827 L551 827 L546 829 Z M637 826 L643 831 L644 835 L639 841 L634 843 L632 846 L632 848 L635 848 L636 846 L638 849 L638 854 L633 861 L632 870 L627 875 L620 875 L618 876 L615 874 L614 870 L611 868 L611 861 L616 854 L619 852 L620 849 L613 846 L608 841 L608 836 L614 830 L617 831 L621 828 L629 828 L634 825 Z M637 824 L632 824 L629 826 L621 826 L617 829 L613 829 L606 836 L607 843 L618 850 L611 858 L609 862 L609 868 L613 872 L614 876 L616 877 L622 877 L623 876 L626 877 L630 875 L634 869 L635 861 L640 854 L640 849 L637 844 L645 837 L646 833 Z M216 821 L218 821 L223 826 L222 843 L220 845 L217 845 L211 838 L211 832 L214 828 Z M216 819 L214 821 L212 828 L210 830 L209 838 L214 845 L220 847 L224 843 L225 827 L218 819 Z M238 814 L240 812 L244 812 L245 813 L250 811 L254 814 L255 818 L262 825 L268 826 L271 828 L271 832 L274 838 L273 839 L269 839 L266 841 L263 841 L260 838 L258 833 L254 830 L250 832 L243 832 L240 829 L239 821 L238 820 Z M969 811 L970 810 L971 811 L970 812 Z M238 811 L236 815 L236 819 L240 832 L244 834 L250 834 L252 832 L255 832 L257 834 L259 840 L263 843 L266 843 L270 840 L272 841 L275 840 L275 835 L271 826 L268 824 L262 823 L257 818 L255 813 L252 810 L248 810 L247 811 L240 810 Z M975 805 L976 809 L973 816 L970 832 L964 846 L963 845 L964 838 L966 835 L972 811 Z M975 804 L976 803 L977 805 L976 806 Z M976 801 L977 800 L978 802 L977 803 Z M977 798 L978 797 L979 799 L978 800 Z M128 790 L129 791 L129 810 L128 811 L128 815 L129 816 L129 832 L128 833 L124 820 L124 812 L123 811 L123 804 L125 800 L126 792 Z M129 788 L127 788 L125 790 L125 795 L123 798 L122 806 L121 807 L123 822 L126 834 L128 836 L130 834 L130 822 L131 821 L130 819 L131 796 Z M651 782 L652 781 L653 782 L652 783 Z M652 781 L653 780 L654 781 L653 782 Z M161 777 L162 778 L163 796 L165 803 L165 812 L162 825 L159 828 L156 825 L155 821 L155 814 L156 813 L156 796 L155 792 L158 785 L158 781 Z M161 774 L158 777 L157 783 L154 790 L154 798 L156 804 L154 812 L154 823 L157 829 L160 829 L163 826 L166 817 L166 799 L163 786 L163 776 Z M613 772 L614 771 L615 773 L614 774 Z M613 763 L614 764 L614 769 L613 770 L612 769 L612 764 Z M185 760 L188 761 L188 768 L190 772 L190 779 L194 783 L200 782 L205 787 L207 791 L210 793 L212 798 L212 806 L210 808 L208 808 L205 805 L203 805 L198 800 L196 800 L194 802 L194 810 L192 813 L192 817 L195 824 L193 832 L197 840 L197 847 L195 855 L193 857 L191 855 L190 847 L185 842 L185 834 L183 829 L186 813 L183 806 L182 783 L186 781 L186 776 L183 771 L183 767 L182 766 Z M185 758 L181 763 L181 770 L184 776 L184 779 L180 783 L180 789 L182 793 L181 796 L181 806 L184 812 L184 818 L182 822 L181 828 L183 833 L183 843 L188 846 L190 858 L194 859 L197 854 L199 846 L199 841 L195 833 L196 821 L194 818 L194 813 L196 810 L196 803 L198 802 L204 808 L207 808 L209 810 L211 810 L214 805 L214 798 L212 793 L206 787 L203 782 L199 780 L195 781 L193 780 L192 772 L190 768 L190 762 L187 758 Z M609 755 L611 758 L611 772 L613 778 L613 782 L612 783 L614 789 L614 793 L612 796 L610 792 L610 783 L607 776 L607 760 Z M978 751 L979 752 L978 771 L977 772 L978 777 L976 780 L976 787 L975 788 L974 798 L972 804 L969 808 L968 807 L968 796 L969 795 L969 790 L974 778 L974 772 L972 764 Z M500 746 L503 757 L503 762 L504 763 L504 768 L506 774 L506 779 L507 780 L507 785 L508 786 L508 791 L509 792 L512 811 L514 816 L514 820 L519 840 L520 856 L521 857 L521 884 L520 885 L518 950 L517 951 L517 976 L516 977 L516 996 L515 997 L515 1045 L514 1046 L513 1111 L512 1112 L512 1133 L511 1134 L510 1174 L509 1175 L508 1231 L507 1232 L507 1267 L506 1268 L506 1354 L507 1355 L508 1365 L511 1370 L510 1372 L501 1372 L500 1371 L488 1370 L485 1365 L485 1358 L484 1357 L486 1282 L487 1281 L489 1227 L490 1226 L490 1210 L491 1209 L494 1144 L495 1143 L495 1126 L496 1125 L497 1084 L498 1083 L498 1064 L499 1063 L499 1047 L500 1046 L500 1030 L501 1029 L502 993 L503 992 L503 977 L504 976 L504 960 L505 959 L507 917 L508 916 L509 895 L510 894 L511 876 L512 875 L511 851 L501 814 L501 810 L499 804 L499 797 L498 796 L497 761 L498 760 L498 750 Z M613 745 L615 751 L615 763 L614 764 L611 752 L611 747 Z M185 731 L186 733 L190 733 L193 737 L192 745 L189 747 L189 750 L187 753 L185 751 L185 742 L184 741 L184 732 Z M865 730 L869 728 L873 728 L879 733 L880 738 L879 741 L875 745 L870 746 L867 745 L863 741 L862 735 Z M183 728 L182 729 L183 750 L185 755 L188 755 L193 746 L193 743 L195 739 L194 735 L190 731 L187 731 Z M868 727 L862 731 L860 737 L861 741 L864 745 L868 747 L874 747 L881 741 L882 737 L881 733 L878 729 L874 727 Z M640 726 L644 730 L644 739 L645 740 L642 749 L642 757 L645 763 L645 767 L650 775 L651 780 L648 782 L642 781 L640 783 L640 788 L642 792 L643 798 L639 809 L635 812 L631 802 L631 797 L632 796 L632 773 L635 763 L635 746 L629 740 L628 737 L633 732 L635 732 Z M321 712 L327 713 L331 717 L332 720 L331 725 L325 730 L320 730 L314 725 L314 718 L315 716 Z M320 711 L313 716 L312 724 L319 731 L327 731 L333 725 L333 718 L328 712 Z M268 708 L269 707 L270 708 L269 709 Z M130 700 L131 701 L131 709 L130 710 L131 730 L126 737 L125 741 L126 750 L124 755 L122 750 L121 739 L125 729 L124 716 L128 709 L128 705 Z M132 697 L129 698 L127 702 L127 707 L123 713 L122 717 L123 730 L120 736 L120 748 L123 757 L125 757 L127 754 L128 736 L132 733 L132 709 L133 708 L133 699 Z M901 695 L910 703 L913 709 L914 719 L915 720 L912 738 L909 745 L901 757 L894 764 L887 769 L874 774 L859 775 L852 773 L845 769 L838 760 L835 751 L835 737 L839 725 L846 714 L858 702 L870 695 L879 692 L893 692 Z M903 694 L892 690 L880 690 L870 693 L853 704 L843 715 L835 730 L833 738 L833 751 L837 762 L845 771 L852 775 L860 777 L868 777 L869 776 L878 775 L893 767 L904 756 L910 747 L915 734 L916 714 L912 703 Z M186 685 L192 691 L192 698 L190 700 L188 698 L187 699 L188 701 L184 704 L182 698 L184 693 L184 688 Z M920 698 L924 710 L924 722 L920 738 L916 746 L905 761 L898 768 L887 776 L873 783 L861 787 L852 788 L851 789 L844 789 L843 790 L824 790 L823 789 L810 788 L797 784 L791 781 L786 776 L789 771 L804 754 L821 731 L837 712 L850 700 L863 691 L874 686 L885 683 L898 683 L905 685 L912 689 Z M187 683 L183 686 L182 689 L181 704 L183 706 L185 706 L188 701 L191 702 L193 700 L194 696 L194 691 Z M920 696 L910 686 L904 683 L896 681 L889 681 L888 682 L878 683 L862 690 L853 696 L840 707 L828 720 L806 749 L785 774 L786 778 L790 782 L807 789 L817 790 L818 791 L828 791 L829 792 L849 791 L850 790 L860 789 L877 783 L887 778 L897 771 L908 760 L914 752 L921 739 L925 725 L925 709 Z M163 678 L165 680 L164 691 L168 704 L163 714 L163 718 L165 722 L166 728 L164 735 L163 750 L162 753 L159 755 L157 751 L158 749 L157 726 L160 719 L160 716 L156 708 L156 703 L158 698 L159 684 L161 679 Z M289 685 L296 680 L301 678 L316 676 L331 680 L342 687 L349 694 L353 700 L359 715 L360 726 L357 737 L348 747 L336 752 L330 752 L329 753 L312 751 L297 744 L286 732 L282 724 L279 711 L281 697 L284 691 Z M164 676 L162 676 L159 680 L158 686 L156 690 L156 701 L155 702 L155 709 L158 714 L158 720 L155 729 L156 738 L157 739 L156 753 L158 757 L162 756 L165 749 L167 723 L164 716 L164 713 L169 707 L169 699 L166 693 L166 684 L167 682 L166 678 Z M296 678 L290 682 L284 688 L278 701 L278 717 L279 721 L288 738 L302 749 L317 754 L335 754 L348 749 L355 743 L359 737 L362 725 L360 711 L357 703 L352 695 L341 684 L335 680 L325 676 L314 675 L313 674 L312 675 L305 675 Z M277 685 L288 674 L294 671 L302 669 L311 669 L312 668 L313 669 L322 669 L332 672 L343 678 L357 691 L365 701 L375 717 L395 756 L406 772 L412 778 L408 780 L374 780 L373 779 L360 778 L334 771 L324 767 L300 754 L291 747 L281 736 L275 727 L271 716 L271 702 L274 691 Z M317 667 L318 666 L320 667 L319 668 Z M954 681 L951 678 L928 670 L924 670 L913 667 L907 667 L906 666 L890 666 L889 667 L880 668 L867 673 L854 680 L838 691 L822 704 L803 723 L783 747 L773 763 L770 771 L769 780 L772 793 L777 796 L780 796 L793 801 L809 803 L810 804 L831 805 L832 804 L846 804 L847 803 L855 803 L856 802 L865 801 L879 796 L891 790 L907 779 L922 764 L933 749 L942 732 L945 722 L947 719 L949 710 L952 703 L955 684 L953 685 L952 695 L943 725 L935 743 L926 757 L906 778 L895 786 L880 794 L861 800 L850 801 L849 802 L839 802 L838 803 L818 803 L817 802 L800 801 L788 798 L787 797 L789 795 L782 796 L775 793 L773 791 L771 785 L771 774 L775 762 L781 752 L801 727 L830 699 L847 686 L860 678 L870 673 L882 669 L898 667 L899 668 L910 668 L911 669 L925 671 Z M316 666 L315 667 L298 668 L292 670 L284 675 L278 681 L272 692 L270 699 L270 705 L269 706 L267 705 L267 690 L268 686 L272 679 L280 671 L287 667 L300 664 L310 664 Z M557 663 L559 665 L564 666 L573 676 L576 686 L580 688 L585 693 L587 703 L593 713 L594 718 L599 724 L601 729 L607 736 L609 750 L605 760 L605 775 L608 782 L609 795 L611 798 L613 798 L615 795 L615 785 L614 784 L614 775 L615 774 L617 777 L617 783 L621 792 L620 801 L617 806 L615 820 L613 822 L611 822 L607 818 L604 818 L601 815 L601 812 L598 806 L599 801 L601 799 L601 794 L598 790 L593 788 L589 783 L589 777 L591 774 L591 770 L590 769 L586 769 L583 765 L583 761 L586 753 L586 749 L584 744 L581 741 L571 737 L567 732 L567 725 L569 719 L572 715 L572 712 L566 708 L563 708 L559 710 L552 710 L545 703 L543 684 L546 678 L553 679 L555 675 L557 667 L556 664 Z M966 674 L965 686 L957 712 L942 743 L933 756 L922 769 L907 783 L891 794 L866 805 L861 805 L849 808 L841 808 L840 809 L817 809 L816 808 L806 808 L805 807 L793 806 L766 799 L761 795 L760 793 L760 784 L763 775 L771 759 L784 740 L800 721 L817 704 L842 684 L855 676 L871 668 L888 663 L895 663 L896 662 L919 664 L952 672 L963 672 Z M270 679 L265 691 L265 703 L268 715 L275 730 L279 736 L291 749 L300 756 L322 768 L352 778 L367 780 L368 781 L376 781 L377 782 L404 782 L405 781 L414 780 L414 778 L407 771 L396 755 L376 716 L366 700 L357 689 L344 677 L333 670 L318 664 L314 664 L313 663 L296 663 L282 668 Z M967 673 L965 671 L956 671 L918 662 L890 661 L869 667 L855 674 L839 684 L819 700 L789 731 L771 756 L763 771 L758 784 L758 793 L763 799 L776 804 L793 807 L794 808 L799 808 L800 809 L820 810 L821 811 L847 810 L848 809 L864 807 L879 802 L891 796 L912 781 L927 766 L944 743 L954 724 L962 703 L962 700 L965 693 L968 680 Z M553 660 L554 659 L555 660 L554 661 Z M231 651 L235 648 L242 648 L243 647 L284 646 L285 647 L306 648 L307 649 L312 649 L325 652 L342 658 L357 666 L369 674 L385 687 L404 706 L420 725 L441 754 L447 766 L447 768 L441 771 L438 774 L434 783 L433 791 L426 796 L418 798 L388 798 L387 797 L369 796 L368 795 L352 793 L325 785 L313 779 L311 779 L299 772 L276 753 L262 736 L254 723 L244 703 L237 684 L233 668 Z M182 638 L185 639 L188 642 L188 647 L189 648 L189 658 L190 660 L189 661 L188 673 L186 678 L185 677 L184 654 L179 647 L179 643 Z M981 653 L974 692 L972 697 L972 701 L968 717 L960 742 L952 762 L944 777 L932 793 L913 812 L904 819 L893 826 L883 830 L855 829 L854 830 L839 830 L838 831 L823 831 L822 832 L797 832 L796 831 L778 830 L765 827 L752 820 L746 814 L739 799 L739 785 L744 770 L750 759 L769 733 L792 707 L813 687 L836 669 L854 658 L876 648 L896 642 L900 642 L911 639 L917 639 L918 638 L947 637 L949 636 L956 638 L972 646 Z M404 636 L405 635 L406 636 L405 637 Z M182 636 L179 638 L177 646 L179 651 L182 654 L183 680 L186 681 L188 679 L190 672 L191 649 L190 648 L190 643 L188 639 Z M983 652 L980 649 L967 641 L951 634 L949 635 L927 635 L926 636 L910 637 L885 643 L868 649 L840 664 L811 686 L781 716 L756 747 L745 764 L741 772 L737 785 L737 798 L741 810 L753 823 L758 826 L769 830 L777 831 L778 832 L785 832 L786 833 L820 834 L821 833 L838 833 L839 832 L853 832 L854 831 L868 831 L869 832 L876 832 L878 833 L886 831 L900 824 L918 810 L933 795 L945 779 L955 760 L970 718 L970 714 L973 706 L973 702 L975 697 L975 693 L980 672 Z M405 634 L406 633 L407 634 L406 635 Z M214 638 L217 635 L225 632 L238 632 L239 633 L248 633 L255 635 L254 636 L250 636 L250 637 L269 637 L273 636 L274 637 L296 638 L327 646 L355 659 L374 671 L388 682 L416 709 L445 745 L461 770 L453 787 L452 786 L452 779 L451 778 L450 770 L446 760 L434 741 L407 707 L386 686 L366 670 L351 661 L327 651 L310 647 L297 646 L296 645 L254 645 L253 646 L238 646 L231 648 L230 650 L230 660 L231 661 L231 666 L234 679 L241 700 L250 719 L269 747 L285 763 L298 773 L321 785 L349 794 L353 794 L364 797 L370 797 L371 798 L378 798 L379 799 L415 800 L416 799 L425 798 L431 795 L435 790 L436 783 L440 774 L445 770 L447 770 L449 772 L450 787 L451 788 L449 796 L442 801 L425 805 L418 805 L417 806 L390 806 L389 805 L382 805 L381 804 L375 804 L355 799 L351 799 L326 791 L305 781 L294 774 L279 762 L268 751 L253 732 L242 715 L232 696 L232 694 L224 677 L218 658 L214 642 Z M406 632 L407 631 L408 633 L407 634 Z M212 639 L213 646 L221 674 L231 696 L231 698 L240 715 L253 735 L264 749 L280 765 L294 776 L305 783 L329 794 L352 801 L356 801 L376 806 L392 807 L393 808 L414 808 L415 807 L424 807 L425 806 L430 806 L438 804 L449 799 L455 788 L460 774 L462 772 L462 769 L459 763 L435 729 L419 710 L394 685 L374 669 L362 661 L339 649 L317 641 L300 637 L287 636 L286 635 L256 635 L255 633 L252 632 L235 631 L234 630 L226 630 L217 633 Z M160 622 L161 623 L160 636 L164 644 L164 660 L160 670 L157 666 L157 662 L155 656 L155 646 L153 642 L154 635 L158 629 L158 626 Z M761 617 L762 620 L761 621 L760 632 L759 633 L757 649 L756 650 L756 656 L755 657 L753 676 L752 677 L752 684 L751 685 L750 703 L749 704 L746 696 L740 691 L739 686 L746 672 L745 658 L755 638 L756 630 L757 629 L757 623 Z M162 616 L160 616 L157 628 L152 637 L152 643 L154 649 L154 659 L157 667 L157 670 L159 672 L163 669 L166 656 L166 644 L162 636 Z M761 615 L762 614 L763 616 L762 617 Z M192 636 L192 638 L195 640 L198 651 L200 654 L202 662 L212 687 L227 718 L240 740 L251 756 L275 785 L277 785 L249 750 L229 718 L219 698 L219 696 L215 689 L215 687 L206 667 L199 645 L195 637 L196 634 L207 623 L217 618 L226 617 L227 616 L261 617 L262 618 L276 619 L277 620 L296 623 L329 633 L344 639 L373 655 L402 677 L422 697 L438 716 L457 743 L468 761 L477 779 L485 801 L486 809 L487 810 L487 823 L485 829 L478 836 L467 839 L425 839 L424 838 L393 837 L392 836 L384 836 L383 835 L371 834 L355 830 L348 827 L345 827 L329 821 L313 813 L301 805 L297 804 L283 792 L282 792 L282 794 L301 808 L327 822 L352 831 L355 831 L371 836 L384 837 L385 838 L394 838 L395 839 L425 840 L426 841 L463 841 L464 840 L476 839 L480 837 L486 831 L489 824 L489 809 L487 801 L480 781 L462 747 L445 722 L423 695 L399 672 L375 654 L362 646 L329 631 L296 621 L276 618 L275 617 L270 617 L269 616 L261 616 L260 615 L228 614 L227 615 L217 616 L208 620 Z M612 612 L616 612 L619 615 L622 624 L618 636 L618 642 L616 645 L612 645 L608 641 L599 642 L595 639 L595 634 L601 623 L601 621 Z M788 610 L789 609 L790 610 L789 611 Z M612 610 L600 620 L594 632 L593 639 L595 642 L599 644 L608 643 L612 647 L616 647 L619 643 L620 635 L623 628 L623 620 L620 614 L616 610 Z M763 608 L764 609 L763 612 L762 611 Z M763 607 L764 606 L765 607 L764 608 Z M511 598 L512 597 L513 599 L512 600 Z M176 583 L177 586 L175 590 L175 599 L174 600 L175 610 L174 611 L172 609 L172 604 L170 601 L170 593 L166 590 L166 586 L167 585 L171 586 Z M177 581 L175 581 L171 584 L166 583 L164 586 L164 589 L168 594 L168 600 L171 605 L170 608 L173 619 L175 617 L175 613 L176 612 L176 600 L177 599 L177 592 L176 591 L178 588 L178 582 Z M772 571 L773 570 L774 571 L773 572 Z M773 567 L774 566 L775 568 L774 569 Z M774 564 L775 563 L776 565 L775 566 Z M775 560 L776 559 L777 561 L776 562 Z M458 559 L460 565 L464 570 L465 580 L461 592 L457 596 L453 596 L449 591 L446 576 L449 569 L457 563 Z M777 555 L778 556 L777 559 L776 558 Z M778 552 L779 553 L778 556 L777 555 Z M121 554 L127 556 L132 550 L136 550 L138 552 L139 556 L141 556 L144 559 L145 563 L152 570 L151 581 L148 584 L145 581 L141 571 L139 570 L135 571 L132 566 L130 566 L128 568 L124 577 L120 581 L118 579 L118 570 L119 569 L119 561 Z M779 549 L780 550 L779 553 L778 552 Z M780 546 L781 547 L780 550 L779 549 Z M781 543 L782 544 L781 547 L780 546 Z M781 542 L782 541 L783 543 L782 544 Z M782 539 L783 538 L784 540 L783 541 Z M783 536 L784 535 L785 537 L784 538 Z M237 536 L238 535 L239 537 L238 538 Z M784 533 L785 532 L786 534 L785 535 Z M785 531 L786 530 L787 532 L786 533 Z M786 529 L787 528 L788 529 L787 530 Z M787 526 L788 525 L789 527 L788 528 Z M788 524 L789 523 L790 524 L789 525 Z M789 522 L790 521 L791 522 L790 523 Z M177 521 L178 520 L179 521 L178 522 Z M843 520 L841 520 L837 523 L835 523 L833 521 L830 521 L829 529 L827 531 L822 531 L821 532 L820 550 L826 561 L826 567 L824 569 L820 566 L814 557 L811 545 L807 536 L805 535 L802 538 L803 560 L800 566 L799 587 L798 588 L799 617 L797 620 L794 617 L791 608 L788 606 L787 608 L787 615 L789 623 L787 630 L786 629 L786 625 L784 624 L786 637 L788 637 L790 631 L789 612 L790 611 L794 620 L797 622 L799 621 L801 616 L800 587 L801 586 L801 571 L803 563 L805 560 L805 552 L803 544 L804 538 L805 537 L807 539 L811 555 L813 559 L817 563 L820 569 L825 570 L828 566 L828 561 L823 553 L821 546 L823 533 L824 532 L829 532 L831 530 L831 523 L832 522 L835 525 L837 525 L840 522 L843 522 L848 525 Z M790 520 L791 519 L792 520 L791 521 Z M792 517 L793 516 L794 517 L793 518 Z M849 528 L853 539 L858 543 L863 542 L869 536 L876 536 L878 537 L881 542 L887 546 L892 560 L893 568 L897 573 L899 572 L900 565 L897 555 L897 548 L895 544 L895 537 L898 536 L901 539 L905 549 L905 558 L906 559 L907 568 L914 584 L921 606 L924 625 L927 627 L930 620 L930 604 L929 603 L927 585 L922 568 L922 557 L931 545 L930 535 L933 532 L933 529 L939 524 L940 518 L937 516 L937 518 L939 520 L938 523 L932 528 L932 530 L929 535 L930 539 L929 546 L923 552 L920 558 L920 567 L925 583 L927 598 L928 599 L928 607 L929 608 L929 617 L928 618 L928 622 L926 625 L925 624 L924 613 L920 597 L908 565 L907 549 L901 537 L898 534 L895 534 L893 537 L893 544 L895 548 L896 557 L898 563 L898 570 L897 571 L894 565 L890 548 L887 543 L883 542 L881 538 L875 534 L870 534 L862 541 L859 542 L854 538 L851 529 Z M793 515 L794 514 L795 515 L794 516 Z M795 512 L796 511 L797 512 L796 513 Z M464 509 L468 512 L470 516 L479 519 L482 523 L483 527 L486 530 L488 530 L493 535 L495 540 L495 549 L497 557 L506 571 L509 580 L513 585 L513 596 L511 598 L507 594 L502 594 L497 589 L494 577 L490 575 L487 575 L485 573 L485 564 L484 563 L480 563 L477 560 L478 547 L472 535 L473 531 L470 527 L462 521 L460 517 L460 514 Z M797 509 L798 508 L799 509 L798 510 Z M798 508 L799 507 L800 508 L799 509 Z M943 506 L944 505 L947 506 L946 507 Z M940 505 L941 504 L944 505 L943 506 Z M800 505 L801 504 L802 505 L801 506 Z M938 504 L939 503 L941 504 L940 505 Z M801 504 L802 503 L803 504 L802 505 Z M802 503 L803 502 L804 503 L803 504 Z M803 501 L804 500 L805 501 L804 502 Z M804 500 L805 499 L806 500 L805 501 Z M809 499 L810 498 L811 499 L810 500 Z M274 498 L275 499 L275 504 L272 508 L270 504 L271 501 Z M810 498 L812 496 L814 497 L812 499 Z M807 497 L808 496 L809 497 L808 498 Z M808 496 L809 495 L810 496 L809 497 Z M875 491 L876 490 L877 491 L876 492 Z M904 489 L905 488 L906 489 L905 490 Z M901 488 L902 487 L903 488 L902 489 Z M764 488 L765 487 L766 488 L765 489 Z M898 487 L899 486 L901 487 L900 488 Z M941 486 L942 485 L943 486 L942 487 Z M765 486 L766 485 L767 486 L766 487 Z M943 485 L944 484 L948 484 L949 485 L948 486 L944 486 Z M766 484 L767 483 L768 485 L767 486 Z M189 481 L191 484 L191 491 L188 498 L187 504 L179 519 L178 518 L179 510 L182 505 L186 492 L186 487 Z M280 481 L281 480 L282 481 L281 482 Z M960 479 L961 480 L960 483 L959 482 Z M826 480 L827 479 L829 480 L828 481 Z M350 479 L348 482 L344 481 L349 478 Z M189 479 L186 482 L184 488 L184 494 L178 508 L177 515 L174 519 L173 525 L174 528 L175 528 L177 524 L180 526 L186 520 L194 519 L195 520 L187 528 L183 538 L177 546 L176 549 L172 553 L170 553 L169 552 L169 543 L170 539 L174 533 L174 530 L169 537 L167 544 L167 552 L170 555 L173 554 L178 549 L189 528 L198 519 L196 517 L193 517 L185 520 L181 524 L180 523 L183 513 L188 506 L193 490 L192 481 Z M958 478 L959 477 L960 479 L959 480 Z M871 478 L875 477 L878 479 L881 479 L898 486 L897 487 L889 486 Z M869 477 L870 476 L872 477 L871 478 Z M860 477 L861 476 L863 477 L862 478 Z M957 476 L958 475 L959 477 L958 478 Z M867 476 L868 475 L869 476 L868 477 Z M875 490 L872 491 L860 488 L842 487 L825 492 L815 497 L813 496 L828 485 L827 484 L830 481 L844 475 L855 476 Z M774 476 L775 475 L776 477 L775 478 Z M836 475 L837 474 L838 475 L837 476 Z M837 474 L838 473 L839 474 L838 475 Z M775 474 L776 473 L777 475 L776 476 Z M527 473 L531 481 L531 486 L528 496 L532 502 L533 506 L530 515 L530 523 L533 532 L534 541 L528 552 L528 563 L525 569 L521 572 L517 569 L512 561 L510 555 L510 542 L511 539 L515 535 L521 537 L524 535 L524 531 L522 526 L522 509 L519 496 L520 492 L523 488 L522 486 L523 477 Z M848 472 L849 471 L850 472 L849 473 Z M528 472 L524 473 L520 480 L521 488 L518 493 L518 503 L521 511 L520 525 L521 526 L522 534 L521 535 L519 534 L512 535 L508 542 L509 558 L513 566 L518 572 L524 572 L528 567 L530 562 L530 552 L535 542 L535 534 L532 525 L532 514 L534 509 L534 503 L530 497 L533 481 L530 474 Z M900 471 L901 470 L905 470 L906 471 L905 472 L901 472 Z M906 470 L907 469 L909 470 L908 471 Z M778 469 L780 471 L777 474 L776 472 Z M323 470 L320 471 L316 474 L315 482 L312 485 L310 485 L308 483 L307 476 L305 474 L302 474 L291 486 L292 499 L289 502 L287 502 L285 500 L285 496 L284 495 L286 489 L286 483 L283 479 L279 479 L274 487 L274 498 L273 499 L271 498 L269 500 L270 509 L272 510 L276 506 L277 503 L276 487 L277 484 L280 481 L281 482 L282 481 L284 483 L283 499 L286 503 L289 504 L294 499 L293 491 L294 490 L296 492 L298 492 L300 489 L300 486 L298 489 L294 490 L293 489 L293 485 L297 481 L300 482 L300 479 L303 476 L305 476 L307 481 L307 485 L309 487 L311 487 L317 481 L317 475 L319 473 L324 472 Z M924 468 L925 467 L928 468 L927 469 Z M950 467 L951 466 L952 467 L951 468 Z M928 467 L929 466 L932 467 L931 468 Z M779 467 L780 466 L781 467 L780 468 Z M402 467 L403 466 L404 467 L403 468 Z M339 467 L340 469 L342 468 Z M822 465 L821 466 L819 465 L820 466 L818 468 L808 474 L801 483 L799 488 L794 492 L792 496 L792 499 L788 505 L788 508 L780 519 L776 529 L772 533 L768 535 L764 542 L760 542 L758 540 L763 535 L761 535 L756 538 L756 541 L760 545 L766 547 L758 553 L759 563 L750 571 L749 573 L749 579 L751 580 L750 576 L752 571 L761 562 L760 553 L763 550 L766 549 L767 551 L762 555 L763 556 L767 554 L769 551 L769 547 L765 543 L768 540 L769 537 L777 530 L779 523 L788 511 L789 507 L793 501 L795 493 L801 488 L805 480 L811 474 L821 468 L823 466 Z M780 465 L781 464 L782 465 L781 466 Z M246 461 L247 460 L248 462 L247 463 Z M394 460 L395 459 L396 460 L395 461 Z M882 459 L878 463 L863 472 L851 472 L850 471 L873 460 L879 458 Z M844 459 L841 461 L838 461 L837 463 L844 460 Z M881 458 L882 457 L884 458 L883 459 Z M866 472 L889 456 L903 455 L904 456 L883 467 L891 465 L905 458 L907 456 L909 456 L913 458 L909 462 L914 459 L917 459 L927 464 L925 466 L913 469 L904 468 L903 469 L894 470 L893 471 L900 471 L901 472 L900 473 L893 473 L892 474 L903 474 L911 471 L916 471 L922 469 L923 470 L918 474 L921 474 L924 471 L927 470 L935 470 L947 482 L927 488 L916 488 L915 487 L904 486 L892 481 L868 474 Z M827 454 L828 453 L829 454 L828 455 Z M955 467 L949 463 L947 465 L952 473 L953 473 L951 469 L952 467 L956 471 L955 473 L956 472 L958 474 L956 476 L957 477 L957 482 L961 492 L961 496 L962 497 L961 500 L951 484 L934 466 L925 460 L923 460 L918 457 L909 454 L901 453 L900 454 L887 454 L886 455 L878 456 L869 460 L866 460 L850 468 L841 474 L839 474 L838 473 L842 470 L842 468 L831 476 L825 479 L827 481 L819 485 L812 490 L799 503 L784 529 L774 557 L772 568 L769 575 L759 581 L756 584 L752 583 L755 586 L755 588 L761 593 L761 587 L759 587 L758 585 L762 581 L767 579 L772 572 L773 573 L770 585 L769 586 L763 585 L763 587 L765 586 L767 588 L765 597 L760 609 L760 616 L755 624 L754 636 L743 659 L744 672 L737 686 L739 692 L744 696 L746 700 L749 711 L748 715 L749 719 L750 719 L750 713 L751 712 L751 704 L752 703 L752 694 L753 693 L755 670 L756 669 L759 644 L760 643 L760 638 L764 621 L764 616 L769 598 L769 594 L771 590 L772 583 L779 562 L779 559 L782 552 L782 549 L784 546 L787 535 L796 516 L809 502 L817 497 L822 496 L833 491 L837 491 L845 488 L853 490 L862 490 L877 494 L883 494 L887 496 L881 491 L867 483 L862 478 L863 477 L868 478 L890 488 L899 489 L921 497 L924 497 L938 503 L937 504 L926 503 L921 508 L923 516 L919 522 L919 528 L917 536 L918 537 L923 537 L926 536 L926 535 L920 536 L919 535 L919 530 L922 517 L924 514 L927 520 L928 520 L928 518 L923 510 L925 505 L934 505 L954 511 L957 511 L957 510 L947 508 L946 507 L947 506 L951 506 L948 504 L925 496 L913 490 L914 489 L924 490 L937 487 L940 488 L951 488 L964 508 L962 511 L966 512 L967 521 L968 522 L968 541 L967 542 L964 561 L962 564 L960 572 L960 579 L962 576 L963 566 L966 560 L969 540 L970 539 L969 517 L966 509 L966 505 L964 501 L963 494 L961 491 L961 487 L960 486 L961 482 L965 490 L969 505 L972 530 L973 531 L973 539 L974 540 L974 548 L971 561 L963 578 L962 584 L960 588 L960 612 L959 613 L956 607 L954 594 L953 593 L954 587 L959 582 L957 582 L952 588 L952 597 L954 601 L955 609 L957 614 L959 616 L961 615 L962 612 L962 597 L961 596 L962 587 L966 575 L971 566 L974 556 L974 552 L975 551 L975 533 L974 532 L973 518 L972 517 L972 512 L971 511 L968 494 L961 476 Z M920 446 L921 445 L922 446 L921 447 Z M790 441 L792 443 L792 448 L789 453 L789 456 L790 457 L797 457 L798 459 L791 463 L788 466 L787 472 L784 473 L781 471 L783 467 L783 464 L781 463 L783 458 L785 446 Z M200 439 L195 442 L193 445 L198 442 L200 445 L202 445 L207 448 L212 448 L217 452 L225 453 L227 455 L229 463 L228 494 L226 501 L223 525 L219 541 L219 547 L218 548 L218 554 L217 555 L217 561 L216 562 L214 582 L213 583 L213 591 L216 592 L220 583 L223 567 L227 554 L227 550 L229 545 L231 523 L234 513 L235 504 L230 520 L230 527 L229 528 L225 556 L216 588 L215 587 L215 582 L216 581 L217 566 L218 565 L221 540 L224 529 L227 505 L229 498 L229 492 L230 491 L231 466 L230 465 L229 456 L227 452 L219 451 L212 446 L206 446 L200 441 Z M916 438 L916 442 L918 442 L918 439 Z M344 436 L348 435 L363 441 L385 452 L395 459 L391 460 L375 456 L360 443 L356 441 L350 440 Z M163 435 L164 437 L162 440 L160 449 L156 454 L152 456 L151 459 L148 462 L147 460 L150 454 L154 450 L159 440 Z M342 435 L343 434 L345 435 L344 436 Z M163 435 L164 434 L165 435 L164 436 Z M340 434 L341 433 L343 434 L342 435 Z M337 433 L338 432 L340 433 L339 434 Z M166 430 L159 437 L155 446 L149 453 L146 459 L146 464 L150 463 L152 459 L160 452 L162 448 L162 444 L168 433 Z M364 429 L365 428 L367 429 L366 430 Z M363 428 L364 427 L365 428 L364 429 Z M322 425 L323 424 L326 425 L325 426 Z M337 432 L333 433 L326 431 L313 431 L304 434 L297 433 L281 440 L277 440 L273 437 L269 436 L263 436 L256 434 L246 434 L240 436 L235 436 L230 434 L231 433 L244 433 L245 432 L252 432 L260 430 L268 430 L285 426 L302 425 L303 424 L307 424 L308 425 L310 424 L326 428 L330 430 L333 430 Z M896 423 L897 424 L896 428 L895 427 Z M330 414 L332 417 L348 421 L355 426 L365 431 L367 431 L366 430 L368 429 L386 442 L384 439 L367 427 L362 428 L352 422 L346 416 L345 416 L347 418 L345 419 Z M214 411 L215 410 L216 411 L215 412 Z M213 410 L214 409 L215 410 L214 411 Z M300 409 L301 408 L303 409 L302 410 Z M834 405 L835 406 L834 409 L835 411 L831 415 L830 413 Z M208 406 L210 405 L214 409 L212 410 Z M241 394 L242 393 L243 394 L242 395 Z M240 393 L241 392 L242 393 L241 394 Z M211 404 L220 396 L229 391 L231 391 L242 396 L251 404 L265 414 L278 420 L290 423 L285 425 L280 425 L268 428 L250 427 L237 423 L226 418 Z M233 390 L237 387 L241 392 L239 393 Z M211 384 L212 383 L213 384 L212 385 Z M238 387 L249 381 L260 377 L267 378 L278 386 L301 408 L300 409 L296 409 L295 408 L296 410 L307 412 L314 416 L332 422 L331 423 L321 423 L320 422 L316 422 L315 423 L310 423 L309 422 L295 423 L292 421 L288 421 L277 418 L268 414 L258 407 Z M267 375 L271 375 L272 374 L281 375 L300 381 L326 394 L339 408 L334 401 L336 400 L343 404 L372 424 L402 447 L424 470 L428 478 L432 494 L433 518 L432 519 L431 550 L430 551 L430 558 L429 559 L428 570 L426 576 L426 581 L420 607 L414 623 L408 632 L407 630 L415 609 L417 596 L418 595 L420 576 L421 575 L421 568 L422 567 L422 559 L423 558 L423 549 L424 548 L424 515 L423 514 L423 506 L422 505 L422 499 L421 498 L420 490 L415 478 L412 473 L401 461 L382 448 L351 434 L330 427 L327 427 L326 426 L327 425 L337 425 L340 422 L332 424 L331 423 L333 422 L332 420 L321 417 L309 412 L308 410 L305 409 L296 402 L277 383 L266 376 Z M216 397 L206 405 L197 416 L191 432 L191 438 L190 439 L191 443 L192 439 L195 434 L194 435 L193 434 L193 431 L196 422 L201 413 L206 408 L232 423 L253 429 L245 431 L226 431 L210 421 L212 424 L222 430 L219 431 L211 429 L213 431 L216 431 L217 432 L216 433 L201 431 L208 434 L225 434 L237 438 L238 437 L243 437 L245 435 L265 437 L266 438 L255 443 L252 446 L253 452 L251 456 L250 465 L249 466 L248 465 L248 461 L249 460 L248 461 L247 460 L248 458 L247 457 L243 464 L243 471 L241 474 L240 481 L238 485 L238 495 L240 502 L239 503 L239 517 L237 522 L237 533 L236 534 L236 546 L237 547 L236 551 L237 552 L240 542 L239 530 L240 529 L241 497 L239 489 L241 484 L241 479 L243 474 L244 466 L246 462 L247 466 L248 465 L249 468 L245 476 L246 480 L244 483 L245 484 L247 482 L248 483 L248 489 L244 498 L243 512 L244 513 L244 518 L247 525 L247 535 L245 542 L245 553 L247 558 L247 572 L246 573 L245 595 L246 596 L246 600 L248 602 L250 602 L253 597 L257 568 L262 555 L262 545 L260 540 L260 533 L261 532 L262 524 L264 521 L265 511 L266 509 L264 509 L263 518 L259 528 L258 539 L261 550 L260 551 L259 559 L255 569 L251 598 L249 600 L247 597 L247 584 L248 583 L248 570 L249 569 L249 559 L247 553 L247 540 L248 539 L249 526 L246 518 L245 506 L246 505 L246 497 L250 489 L250 483 L247 478 L247 474 L252 465 L253 455 L255 452 L254 450 L254 446 L255 445 L259 444 L268 439 L272 441 L281 442 L295 435 L307 435 L316 432 L324 432 L328 434 L339 435 L350 442 L353 442 L360 445 L375 458 L381 458 L386 461 L392 461 L397 463 L399 462 L403 466 L399 470 L404 479 L405 490 L411 501 L411 523 L410 524 L410 532 L409 533 L409 560 L408 561 L407 576 L406 577 L405 589 L404 590 L402 604 L397 620 L396 619 L396 607 L395 606 L396 547 L395 546 L394 536 L390 527 L392 511 L387 498 L388 496 L387 492 L385 490 L380 490 L374 486 L370 482 L366 472 L363 473 L360 480 L357 482 L350 476 L345 479 L344 475 L341 471 L338 471 L333 475 L329 474 L324 477 L322 477 L322 479 L324 479 L328 476 L335 476 L338 475 L340 472 L342 475 L341 481 L344 484 L347 484 L352 480 L355 483 L359 483 L362 480 L365 474 L367 477 L368 482 L378 491 L386 493 L386 500 L391 511 L390 520 L389 521 L389 529 L391 532 L394 544 L395 567 L394 568 L393 592 L394 593 L394 621 L396 627 L401 615 L404 603 L406 588 L407 587 L407 582 L408 581 L408 575 L410 567 L410 558 L411 557 L411 530 L412 529 L412 522 L413 521 L413 502 L412 498 L406 487 L406 480 L403 475 L403 468 L404 467 L411 475 L412 478 L408 483 L408 485 L412 479 L416 485 L421 504 L421 512 L422 513 L422 548 L421 549 L421 559 L420 560 L416 594 L415 595 L412 612 L401 639 L394 651 L387 658 L388 659 L405 641 L412 631 L417 621 L425 596 L425 592 L429 576 L429 571 L432 558 L432 551 L433 550 L433 540 L434 539 L435 505 L434 504 L434 494 L433 493 L432 484 L425 468 L405 447 L370 420 L330 394 L300 379 L279 373 L268 373 L249 379 L229 389 L221 395 Z M870 368 L868 371 L871 377 L870 378 L870 384 L871 384 L871 380 L872 379 L872 375 L870 373 L870 371 L874 368 L878 371 L879 377 L884 382 L883 384 L882 383 L878 383 L875 387 L879 385 L885 385 L886 383 L885 380 L880 375 L880 371 L875 367 Z M444 351 L447 356 L446 360 L447 370 L444 378 L445 407 L442 418 L442 425 L443 426 L442 430 L442 447 L447 461 L450 483 L459 512 L459 518 L461 521 L461 534 L462 535 L462 545 L461 546 L458 534 L453 524 L452 518 L448 508 L445 485 L441 472 L439 455 L438 453 L433 451 L429 447 L429 442 L423 436 L421 430 L422 425 L428 417 L431 410 L431 396 L439 381 L440 374 L439 373 L438 365 L441 358 L441 355 Z M443 350 L440 353 L439 358 L437 361 L438 378 L437 382 L429 396 L429 410 L427 415 L420 425 L420 433 L422 438 L427 442 L427 445 L429 449 L433 453 L436 454 L438 457 L439 471 L444 490 L446 507 L449 514 L451 523 L457 535 L458 548 L460 545 L461 546 L460 555 L459 556 L458 552 L457 552 L456 562 L452 564 L447 569 L445 573 L445 583 L447 587 L447 591 L452 597 L456 598 L460 596 L465 587 L467 577 L466 576 L465 568 L461 563 L461 554 L464 542 L463 526 L462 525 L464 524 L471 530 L471 538 L476 547 L476 553 L475 554 L476 562 L478 564 L483 565 L484 566 L483 569 L484 574 L487 577 L491 577 L494 580 L494 587 L498 593 L503 596 L507 596 L515 608 L520 612 L521 626 L525 630 L528 630 L532 625 L535 624 L536 625 L530 637 L528 643 L528 647 L532 655 L536 658 L538 658 L532 652 L530 648 L530 642 L532 636 L538 626 L538 623 L534 622 L528 628 L525 628 L522 624 L521 615 L523 610 L526 607 L530 606 L532 604 L532 599 L528 592 L529 587 L533 583 L537 582 L542 578 L546 579 L550 583 L553 591 L554 599 L551 607 L544 616 L544 623 L547 629 L549 641 L555 652 L555 657 L550 662 L542 661 L541 660 L540 661 L542 661 L547 664 L553 662 L555 667 L554 668 L553 677 L551 678 L548 676 L545 676 L541 685 L541 689 L543 693 L543 702 L545 706 L551 711 L558 712 L562 710 L567 710 L570 712 L570 715 L567 719 L567 722 L565 726 L566 734 L571 739 L579 741 L583 745 L584 754 L582 758 L581 765 L585 770 L589 772 L587 778 L588 785 L599 794 L596 804 L597 809 L600 816 L603 819 L607 820 L611 824 L614 824 L617 819 L617 814 L619 811 L619 806 L622 801 L622 789 L620 786 L618 775 L615 768 L617 761 L615 744 L614 743 L612 743 L611 745 L610 744 L609 736 L603 729 L601 724 L596 718 L595 713 L589 703 L588 696 L585 690 L577 684 L573 673 L564 664 L559 663 L556 659 L557 658 L557 653 L550 639 L549 631 L545 620 L546 615 L552 608 L555 602 L555 592 L552 583 L545 577 L541 577 L536 581 L530 583 L527 587 L527 594 L531 601 L531 603 L526 605 L520 612 L514 604 L515 585 L511 580 L510 575 L507 569 L499 557 L497 550 L497 541 L494 533 L485 527 L482 520 L479 517 L472 515 L466 508 L462 509 L459 508 L458 502 L453 489 L449 462 L444 448 L444 441 L443 440 L444 438 L444 418 L447 405 L446 401 L446 377 L449 369 L448 367 L448 355 L447 352 L445 350 Z M496 347 L503 348 L507 352 L509 357 L509 373 L510 377 L507 384 L510 389 L509 402 L513 409 L512 413 L505 407 L501 395 L501 391 L504 383 L503 382 L497 383 L493 376 L494 365 L491 360 L491 353 L493 349 Z M329 347 L333 355 L333 359 L331 363 L327 367 L327 370 L323 374 L320 375 L317 372 L317 367 L323 358 L320 353 L323 350 Z M325 347 L326 346 L327 347 L326 348 Z M326 346 L327 345 L328 346 L327 347 Z M497 345 L493 347 L489 353 L489 359 L492 364 L491 376 L493 381 L498 385 L500 384 L501 385 L500 397 L504 408 L511 415 L513 415 L515 413 L515 410 L511 402 L512 389 L509 384 L511 381 L511 376 L512 375 L511 373 L511 357 L509 352 L504 347 Z M247 331 L248 332 L248 336 L246 340 L239 347 L237 353 L234 357 L232 365 L230 367 L227 367 L220 373 L215 383 L213 384 L212 382 L217 373 L218 369 L226 362 L227 358 L234 345 L240 337 Z M467 330 L473 331 L478 336 L481 344 L481 353 L477 369 L478 370 L479 378 L486 388 L491 401 L490 429 L494 430 L499 428 L503 430 L506 434 L507 441 L510 448 L510 455 L507 464 L507 470 L511 484 L508 496 L505 499 L501 495 L496 495 L494 497 L492 497 L488 492 L487 477 L489 472 L489 466 L485 457 L485 452 L487 445 L479 430 L470 421 L467 413 L467 403 L466 402 L466 397 L464 389 L462 386 L456 368 L456 363 L458 357 L457 343 L460 336 Z M351 330 L351 333 L346 338 L340 340 L330 348 L329 347 L329 345 L343 332 L350 329 Z M249 329 L244 331 L239 336 L226 357 L226 360 L217 368 L210 382 L210 386 L211 387 L214 386 L217 383 L222 373 L225 370 L229 369 L233 366 L235 358 L239 352 L240 347 L249 338 L250 335 Z M880 327 L888 334 L893 341 L898 352 L898 360 L897 361 L888 352 L885 346 L884 339 L879 328 Z M468 328 L463 330 L460 333 L456 341 L455 345 L455 350 L456 351 L455 371 L461 384 L462 392 L465 399 L465 413 L472 427 L479 433 L481 439 L485 444 L485 448 L483 452 L483 457 L487 465 L487 472 L485 480 L486 492 L488 496 L492 499 L499 496 L505 501 L510 497 L510 493 L512 488 L512 479 L509 471 L509 463 L512 455 L512 448 L509 441 L509 437 L507 432 L501 427 L495 427 L494 428 L492 427 L492 409 L493 408 L492 397 L488 388 L483 382 L480 376 L480 372 L479 371 L479 365 L482 356 L483 345 L481 338 L478 333 L475 330 L471 328 Z M352 328 L348 328 L338 334 L328 344 L323 346 L320 349 L321 358 L319 360 L315 370 L318 375 L322 376 L327 373 L335 359 L335 355 L332 351 L332 349 L342 340 L345 340 L352 335 L353 333 L353 329 Z M879 325 L878 326 L878 330 L881 336 L883 345 L886 352 L892 360 L895 362 L898 362 L900 360 L900 353 L895 341 L890 334 L882 326 Z M772 330 L780 322 L785 322 L788 326 L788 329 L785 334 L784 333 L782 335 L779 335 L777 333 L773 332 Z M785 320 L780 320 L771 328 L771 332 L779 337 L785 335 L790 328 L788 323 Z M220 307 L222 310 L218 317 L211 323 L207 324 L199 331 L198 328 L203 321 L216 307 L218 306 Z M224 308 L222 306 L216 305 L198 325 L196 329 L196 332 L198 333 L205 329 L209 325 L214 323 L220 317 Z M896 304 L898 303 L905 309 L907 309 L910 312 L913 320 L911 321 L908 318 L905 318 L899 311 Z M244 301 L245 303 L240 313 L237 316 L231 319 L230 316 L232 312 L240 303 Z M896 301 L895 302 L895 307 L904 320 L908 320 L911 323 L913 323 L914 322 L914 316 L910 309 L908 307 L906 308 L900 302 Z M879 299 L884 300 L891 308 L894 313 L894 318 L893 319 L890 318 L880 307 L878 303 Z M246 300 L244 299 L241 300 L231 311 L228 317 L228 319 L230 321 L235 318 L237 318 L241 314 L246 305 Z M878 298 L876 303 L878 307 L882 311 L883 314 L892 321 L896 319 L896 314 L891 305 L885 299 L881 297 Z M354 305 L365 296 L370 295 L372 297 L373 301 L376 303 L376 308 L373 312 L370 312 L366 308 L364 309 L357 309 L354 307 Z M444 294 L445 293 L446 294 L445 295 Z M352 305 L352 307 L355 310 L359 311 L366 310 L370 314 L374 314 L378 308 L377 302 L374 299 L373 296 L369 293 L363 295 L361 298 L357 300 Z M671 292 L674 295 L674 300 L675 301 L675 308 L674 310 L668 314 L659 314 L655 318 L664 328 L664 339 L661 347 L661 353 L664 361 L664 370 L659 376 L654 378 L651 381 L649 387 L650 390 L655 393 L657 396 L654 403 L654 407 L658 414 L659 420 L653 443 L654 462 L644 480 L644 487 L647 492 L647 501 L642 512 L644 523 L641 532 L633 547 L630 556 L630 565 L636 580 L636 591 L633 598 L631 600 L626 601 L621 606 L620 605 L621 592 L618 590 L609 591 L606 587 L606 581 L609 574 L617 562 L618 559 L617 542 L625 528 L624 517 L618 508 L618 502 L621 496 L626 491 L628 486 L625 479 L624 473 L626 466 L637 452 L638 436 L645 423 L645 420 L641 420 L632 426 L627 427 L624 426 L620 421 L620 413 L623 407 L643 387 L647 377 L648 370 L647 366 L644 364 L635 372 L629 374 L621 379 L617 379 L613 375 L612 359 L618 355 L623 355 L633 352 L642 345 L644 340 L644 333 L642 328 L642 321 L640 315 L640 306 L642 302 L654 290 L656 290 L662 294 Z M445 291 L446 290 L447 292 L446 293 Z M308 288 L310 290 L310 294 L308 300 L295 310 L291 310 L289 308 L289 300 L293 294 L297 291 Z M670 290 L665 292 L661 292 L655 288 L652 289 L640 302 L638 307 L638 315 L640 321 L640 327 L642 331 L642 341 L641 344 L637 348 L627 353 L620 353 L613 356 L610 360 L610 367 L611 368 L612 376 L614 379 L619 381 L625 379 L630 375 L635 374 L643 366 L646 367 L646 374 L643 385 L622 406 L618 415 L619 423 L624 428 L632 428 L640 422 L643 423 L636 436 L636 450 L635 453 L628 460 L623 470 L623 478 L626 484 L626 488 L620 495 L616 503 L617 510 L622 516 L623 519 L623 529 L618 536 L615 544 L615 548 L617 553 L616 561 L606 576 L604 582 L604 587 L608 592 L610 593 L619 592 L620 593 L620 598 L618 603 L619 609 L621 609 L627 602 L633 601 L638 590 L638 581 L632 566 L632 555 L638 540 L645 527 L644 511 L649 500 L649 493 L646 487 L646 480 L656 461 L655 441 L660 425 L660 414 L655 405 L658 399 L658 394 L657 392 L652 390 L651 386 L654 380 L658 377 L662 376 L666 370 L666 362 L663 354 L663 346 L666 338 L666 330 L664 324 L657 318 L659 316 L668 316 L673 313 L677 308 L676 295 L673 291 Z M307 286 L301 289 L297 289 L291 294 L287 301 L287 308 L289 311 L295 312 L302 306 L308 303 L311 296 L311 288 Z M283 286 L279 294 L273 300 L260 308 L258 307 L258 304 L260 300 L270 290 L279 285 Z M285 284 L280 283 L265 292 L259 299 L256 305 L256 308 L258 310 L260 310 L277 299 L284 289 Z M624 272 L627 275 L629 280 L626 298 L627 302 L632 310 L633 317 L630 322 L626 323 L619 331 L616 331 L612 326 L612 316 L614 312 L614 307 L609 302 L601 301 L598 298 L597 293 L599 288 L603 285 L606 277 L609 274 Z M624 270 L609 272 L604 277 L603 282 L597 288 L595 293 L596 298 L598 301 L602 303 L610 304 L612 306 L612 312 L610 317 L610 325 L612 330 L616 333 L621 332 L626 325 L630 324 L633 321 L635 316 L634 311 L628 300 L628 292 L631 281 L629 275 Z M661 255 L664 253 L668 255 L672 255 L676 258 L676 262 L672 265 L668 265 L665 263 L665 260 L661 257 Z M660 253 L659 257 L663 261 L664 265 L666 266 L674 266 L676 265 L678 259 L674 254 L669 254 L666 252 Z M764 249 L765 248 L766 249 L765 250 Z M773 245 L777 251 L777 255 L779 258 L788 258 L790 261 L790 263 L784 269 L785 273 L777 278 L777 281 L787 288 L788 294 L785 296 L781 295 L777 300 L762 301 L755 296 L755 291 L751 283 L754 278 L762 277 L763 273 L759 267 L759 260 L751 256 L748 253 L747 249 L750 246 L753 246 L762 253 L764 253 L767 251 L767 246 L768 245 Z M774 243 L766 243 L762 251 L757 246 L751 244 L748 245 L745 249 L746 253 L750 257 L757 261 L757 268 L761 273 L761 275 L753 277 L750 280 L750 286 L753 290 L753 295 L755 299 L763 303 L769 303 L772 301 L778 301 L782 297 L785 298 L790 294 L790 291 L788 287 L779 280 L779 278 L786 275 L787 273 L786 269 L791 265 L792 261 L787 256 L780 256 L778 254 L777 246 Z M417 241 L417 243 L410 249 L401 250 L380 259 L375 259 L373 257 L378 251 L382 249 L395 246 L413 239 L415 239 Z M419 240 L417 238 L410 238 L404 241 L380 248 L374 252 L372 255 L372 259 L375 261 L379 261 L387 258 L389 256 L398 254 L403 251 L409 251 L413 249 L419 243 Z M447 236 L449 236 L452 240 L458 243 L459 256 L465 268 L465 276 L464 277 L465 286 L459 293 L459 296 L461 299 L463 307 L460 315 L457 318 L453 314 L443 315 L440 312 L440 308 L442 302 L449 291 L440 284 L440 281 L443 278 L443 277 L440 276 L443 269 L453 257 L453 251 L446 238 Z M287 236 L285 239 L279 243 L279 245 L276 248 L268 249 L261 255 L258 256 L254 255 L255 251 L265 241 L269 239 L273 240 L282 234 Z M446 234 L445 235 L445 240 L447 242 L451 251 L451 258 L443 266 L439 274 L440 278 L438 281 L438 284 L440 287 L446 290 L442 293 L443 298 L439 305 L439 313 L441 316 L444 317 L451 315 L454 318 L458 319 L460 318 L464 310 L464 303 L461 296 L461 293 L464 291 L467 286 L466 282 L467 269 L466 265 L461 257 L459 242 L454 239 L449 234 Z M288 234 L284 232 L279 234 L274 238 L267 238 L254 249 L252 256 L254 258 L258 258 L264 255 L270 250 L277 249 L288 238 Z M837 230 L838 229 L839 230 L838 231 Z M776 228 L778 228 L782 231 L786 236 L783 240 L780 239 L774 233 L776 231 L775 229 Z M776 226 L773 231 L774 236 L778 240 L784 241 L787 238 L787 235 L782 229 L778 226 Z M329 224 L326 228 L320 231 L316 231 L305 236 L303 236 L301 234 L304 230 L311 226 L321 223 L328 223 Z M331 223 L328 221 L323 221 L312 224 L304 228 L300 232 L300 236 L305 238 L315 233 L323 231 L327 229 L331 225 Z M783 217 L784 216 L785 217 L784 218 Z M816 216 L818 215 L826 220 L835 229 L837 234 L836 235 L832 232 Z M814 213 L815 218 L836 237 L839 236 L838 233 L839 231 L843 235 L845 235 L830 219 L826 218 L817 213 Z M789 211 L793 210 L806 217 L810 222 L811 227 L809 229 L800 222 L797 221 L789 213 Z M788 209 L787 211 L788 214 L794 220 L813 234 L817 235 L811 230 L812 229 L812 223 L807 216 L792 208 Z M371 208 L369 211 L370 215 L367 219 L361 220 L349 225 L344 225 L342 223 L343 219 L350 213 L365 207 L370 207 Z M372 206 L366 205 L360 207 L350 213 L348 213 L341 219 L340 221 L341 224 L345 227 L348 227 L359 222 L367 221 L371 217 L371 211 L373 209 Z M752 202 L753 201 L758 201 L768 205 L773 208 L781 216 L780 217 L772 217 L764 215 L760 212 L759 208 L754 205 Z M751 201 L751 204 L758 209 L758 212 L762 216 L773 219 L776 218 L782 219 L785 222 L787 222 L808 236 L805 232 L785 218 L788 217 L786 215 L784 215 L779 212 L773 206 L756 199 Z M466 197 L463 200 L453 202 L447 205 L435 206 L422 211 L416 211 L415 210 L421 206 L431 203 L442 202 L454 197 L459 197 L460 196 L465 196 Z M653 201 L659 194 L671 195 L673 197 L672 206 L670 208 L665 208 L662 206 L658 207 L654 204 Z M468 196 L467 195 L458 195 L444 199 L441 201 L428 202 L417 206 L413 211 L416 213 L420 213 L433 208 L446 207 L454 203 L462 202 L466 200 L468 198 Z M652 200 L652 204 L656 208 L663 208 L666 210 L669 210 L674 206 L675 197 L672 194 L665 194 L660 192 Z M350 179 L354 183 L353 187 L344 195 L340 196 L339 193 L345 186 L345 182 L348 179 Z M356 181 L352 178 L345 179 L343 182 L343 186 L338 191 L337 195 L339 197 L343 197 L348 194 L355 187 Z M516 173 L520 179 L520 184 L516 189 L516 194 L519 199 L519 205 L515 212 L511 216 L519 224 L519 230 L517 233 L509 236 L508 238 L511 240 L523 239 L526 240 L528 244 L525 249 L521 250 L513 255 L508 263 L509 268 L512 273 L512 281 L507 292 L507 302 L510 312 L510 323 L509 326 L506 330 L498 329 L493 331 L489 326 L489 316 L492 307 L491 292 L493 289 L491 273 L496 266 L500 256 L499 247 L496 241 L496 232 L498 228 L498 222 L493 217 L493 212 L501 199 L494 196 L491 193 L491 188 L496 182 L501 180 L507 175 L511 173 Z M515 171 L509 172 L500 179 L495 181 L489 188 L490 195 L492 197 L499 200 L494 206 L491 212 L491 217 L496 222 L496 229 L494 232 L494 240 L498 251 L497 260 L489 273 L489 279 L491 282 L491 289 L489 293 L490 307 L487 318 L487 326 L491 332 L496 332 L497 331 L506 332 L511 326 L512 313 L509 302 L509 292 L514 280 L514 274 L511 268 L510 263 L512 259 L517 254 L526 250 L529 246 L529 241 L526 238 L523 237 L514 238 L513 237 L517 235 L521 230 L521 225 L519 221 L514 217 L514 215 L519 209 L521 204 L521 199 L517 192 L522 183 L522 178 Z M643 167 L637 169 L630 175 L628 179 L627 185 L619 191 L614 198 L614 206 L621 216 L623 223 L618 233 L619 238 L622 243 L622 247 L617 254 L617 260 L620 263 L623 263 L633 258 L640 247 L640 241 L637 236 L638 222 L640 216 L636 204 L636 198 L639 191 L642 188 L645 187 L651 181 L653 177 L652 172 L648 171 L651 174 L650 180 L637 191 L634 198 L634 204 L638 214 L638 218 L636 222 L636 230 L635 231 L635 236 L638 241 L638 247 L634 254 L630 258 L628 258 L623 261 L621 261 L618 258 L618 256 L624 247 L624 243 L620 236 L620 232 L624 225 L624 219 L622 214 L618 210 L616 206 L615 200 L617 195 L628 186 L632 175 L639 169 L645 170 Z M754 163 L755 162 L756 163 L755 164 Z M753 162 L754 161 L755 162 L754 163 Z M742 161 L744 160 L754 165 L761 172 L759 173 L755 171 Z M734 161 L735 160 L740 161 L755 172 L753 173 L740 168 L738 164 Z M728 162 L730 160 L731 161 L730 163 Z M752 160 L753 159 L754 160 L753 161 Z M748 160 L749 159 L750 160 L749 161 Z M740 160 L741 159 L743 160 L742 161 Z M732 160 L733 159 L734 160 L733 161 Z M724 160 L725 159 L727 160 L726 159 L727 158 L730 160 L728 162 L726 162 Z M722 159 L723 158 L725 159 L724 160 Z M722 155 L723 154 L724 155 L723 156 Z M718 154 L719 153 L722 154 L721 155 Z M729 145 L730 144 L731 145 L730 146 Z M716 144 L720 143 L726 145 L742 153 L749 159 L746 160 L733 152 Z M443 144 L444 143 L445 144 L444 145 Z M529 140 L529 142 L523 147 L527 152 L527 156 L525 158 L505 164 L501 163 L495 159 L495 156 L501 150 L509 147 L514 141 L520 138 L527 138 Z M734 138 L735 137 L741 138 L755 143 L764 148 L769 153 L774 161 L776 167 L775 177 L772 178 L764 174 L765 172 L764 163 L758 154 L748 146 Z M633 144 L635 142 L641 141 L642 140 L641 138 L644 136 L653 135 L658 139 L657 142 L661 145 L661 148 L658 150 L654 150 L653 149 L637 150 L633 147 Z M530 138 L527 136 L520 136 L516 138 L508 146 L498 150 L494 154 L493 159 L497 163 L503 165 L509 165 L515 162 L522 161 L526 159 L529 156 L529 152 L525 147 L531 142 Z M718 135 L719 134 L727 135 L754 152 L760 159 L763 166 L763 170 L762 171 L756 160 L752 156 L733 147 L732 144 Z M656 135 L657 134 L658 135 L657 136 Z M498 135 L499 134 L502 135 L501 136 Z M423 135 L424 139 L424 135 Z M649 133 L650 132 L652 133 L651 134 Z M447 133 L448 132 L449 133 L448 134 Z M692 132 L693 131 L701 131 L702 132 L713 133 L730 144 L728 145 L722 142 L719 142 L716 140 Z M762 131 L763 130 L764 131 L763 132 Z M760 130 L761 129 L763 130 L762 131 Z M519 130 L518 129 L512 130 L503 134 L502 133 L495 133 L491 135 L490 137 L494 135 L498 135 L499 136 L497 138 L485 141 L480 140 L468 145 L465 148 L474 145 L479 142 L481 143 L482 142 L496 140 L507 133 L513 132 L514 133 L512 135 L513 135 Z M456 127 L457 128 L458 136 L455 137 L457 139 L447 144 L445 144 L444 143 L446 139 Z M644 127 L645 126 L647 127 L646 128 Z M494 127 L480 130 L477 133 L492 129 Z M456 127 L457 126 L458 127 L457 128 Z M641 126 L642 125 L644 126 L643 127 Z M431 125 L432 124 L433 125 L432 126 Z M465 121 L466 120 L467 121 L466 122 Z M617 118 L618 117 L626 118 L635 121 L642 125 L639 126 L636 124 Z M612 117 L613 116 L617 116 L618 117 L617 118 L613 118 Z M466 120 L472 116 L479 116 L483 118 L471 121 L467 121 Z M606 116 L607 115 L612 115 L613 116 L612 117 L607 117 Z M484 120 L521 121 L522 120 L529 120 L530 119 L536 119 L537 118 L549 117 L550 116 L576 115 L577 116 L590 116 L591 117 L597 117 L598 118 L604 118 L605 119 L620 121 L639 127 L650 132 L648 134 L645 134 L641 136 L639 140 L636 140 L631 144 L632 148 L635 151 L640 152 L641 151 L660 151 L662 150 L663 145 L660 142 L660 140 L657 136 L658 135 L673 140 L676 140 L691 146 L686 149 L684 148 L677 149 L673 153 L672 158 L667 161 L667 166 L660 173 L660 176 L665 180 L680 180 L685 176 L684 169 L687 166 L692 164 L694 160 L693 159 L693 155 L694 154 L702 154 L699 150 L691 155 L692 161 L688 165 L686 165 L682 168 L683 176 L681 178 L678 179 L675 178 L667 179 L662 176 L662 173 L669 166 L669 162 L674 158 L674 155 L677 151 L679 150 L686 150 L691 147 L696 147 L709 151 L714 151 L720 161 L732 167 L734 167 L744 172 L752 174 L753 176 L757 175 L768 180 L773 180 L799 194 L820 208 L814 202 L783 183 L784 182 L783 179 L785 174 L792 179 L811 189 L835 205 L852 219 L874 241 L884 253 L898 273 L908 290 L915 305 L917 307 L919 313 L922 317 L922 319 L941 356 L941 358 L949 374 L954 389 L956 392 L964 417 L967 432 L969 436 L970 444 L975 462 L979 486 L980 487 L980 492 L982 498 L982 504 L983 505 L983 510 L984 511 L984 516 L987 529 L988 543 L989 544 L989 552 L990 553 L990 561 L991 562 L991 573 L992 574 L992 583 L993 584 L993 597 L994 598 L994 619 L995 620 L993 701 L992 702 L992 715 L991 716 L991 726 L990 727 L990 736 L989 737 L989 746 L988 747 L986 772 L984 776 L980 795 L977 796 L976 795 L976 790 L978 786 L978 782 L980 776 L979 766 L980 765 L980 757 L981 756 L981 748 L978 747 L976 750 L975 756 L972 759 L970 765 L972 771 L972 779 L969 785 L966 797 L966 808 L970 812 L970 815 L966 827 L967 830 L964 833 L961 845 L959 847 L958 846 L954 846 L950 850 L946 850 L941 854 L939 862 L931 869 L926 876 L926 878 L919 884 L918 887 L912 893 L909 903 L903 907 L902 912 L898 918 L899 926 L902 926 L904 922 L908 918 L910 909 L917 907 L919 902 L919 898 L922 892 L930 884 L937 870 L943 864 L947 864 L952 860 L959 860 L962 857 L964 853 L963 850 L965 849 L971 833 L971 830 L974 822 L974 818 L978 808 L978 805 L980 802 L985 782 L986 783 L986 801 L985 802 L983 826 L982 827 L980 843 L974 867 L970 878 L970 881 L947 949 L916 1026 L907 1053 L907 1056 L894 1093 L891 1105 L889 1108 L882 1131 L880 1134 L869 1166 L858 1191 L858 1193 L849 1211 L849 1213 L809 1292 L797 1313 L790 1322 L787 1320 L788 1310 L783 1304 L778 1300 L767 1301 L765 1296 L756 1289 L755 1287 L755 1274 L753 1269 L759 1263 L763 1256 L765 1239 L764 1236 L759 1230 L755 1228 L752 1229 L751 1235 L756 1241 L755 1254 L752 1258 L750 1255 L747 1254 L743 1258 L742 1262 L743 1270 L745 1273 L745 1284 L742 1291 L742 1302 L745 1308 L746 1317 L741 1320 L736 1325 L732 1334 L733 1337 L736 1340 L743 1343 L743 1346 L738 1354 L732 1360 L721 1363 L716 1363 L715 1362 L718 1355 L719 1342 L720 1341 L720 1281 L719 1280 L717 1231 L716 1230 L715 1202 L714 1201 L714 1190 L713 1189 L710 1146 L709 1145 L706 1108 L705 1107 L705 1099 L704 1098 L704 1091 L703 1090 L702 1072 L701 1071 L701 1064 L700 1063 L700 1054 L699 1053 L699 1046 L698 1045 L698 1037 L697 1036 L694 1003 L693 1002 L692 992 L690 987 L689 978 L685 963 L685 958 L684 957 L680 930 L679 929 L678 914 L677 913 L678 910 L683 911 L691 906 L695 908 L699 908 L705 905 L704 904 L700 906 L689 905 L684 909 L680 908 L678 909 L677 908 L677 898 L676 897 L677 895 L683 895 L692 890 L697 891 L701 889 L703 886 L702 883 L694 880 L688 874 L685 874 L682 870 L682 866 L685 864 L688 864 L691 859 L696 861 L703 860 L708 863 L709 862 L717 863 L721 867 L722 872 L719 878 L717 880 L713 881 L711 885 L712 886 L715 882 L718 882 L721 886 L720 887 L719 886 L715 890 L720 887 L726 890 L731 889 L733 886 L734 880 L737 878 L744 880 L750 886 L753 885 L756 882 L761 882 L769 885 L776 877 L778 877 L786 885 L792 885 L795 883 L801 883 L808 889 L813 889 L816 894 L816 896 L819 898 L822 898 L829 895 L833 898 L835 903 L838 906 L845 908 L853 906 L859 911 L864 910 L870 916 L877 918 L882 924 L885 925 L890 930 L893 937 L896 940 L899 940 L901 942 L902 947 L904 949 L910 950 L912 952 L914 957 L917 956 L922 945 L926 942 L932 924 L936 918 L940 915 L941 918 L937 926 L936 933 L932 939 L932 942 L927 952 L927 954 L918 969 L918 979 L916 982 L915 981 L915 974 L913 971 L911 972 L907 981 L904 982 L900 978 L898 980 L896 986 L892 989 L892 991 L890 993 L885 993 L881 998 L878 1007 L876 1009 L873 1009 L872 1008 L872 1003 L880 996 L882 991 L882 986 L886 982 L890 982 L894 975 L898 976 L901 973 L903 965 L899 961 L898 954 L896 951 L888 952 L886 950 L886 943 L879 938 L876 932 L871 928 L865 927 L856 918 L852 916 L846 917 L836 911 L835 912 L830 912 L823 901 L821 901 L819 903 L818 907 L816 909 L814 909 L810 905 L801 900 L795 894 L793 894 L789 897 L781 894 L778 899 L775 901 L766 900 L760 893 L758 894 L756 899 L753 901 L747 901 L740 897 L733 896 L729 898 L721 906 L718 906 L713 902 L710 902 L716 907 L722 907 L726 905 L729 900 L732 898 L738 898 L746 902 L752 903 L755 902 L760 896 L765 901 L773 903 L778 901 L781 896 L785 898 L790 898 L792 896 L795 896 L798 900 L814 910 L818 910 L821 903 L824 905 L827 912 L829 914 L837 913 L845 918 L853 918 L864 928 L870 929 L873 931 L877 938 L884 943 L884 950 L885 952 L888 954 L895 952 L897 956 L897 961 L901 965 L898 974 L895 973 L892 974 L888 981 L886 980 L881 984 L879 995 L870 1003 L870 1007 L873 1011 L877 1010 L880 1007 L881 1001 L886 995 L890 995 L896 989 L900 980 L905 984 L909 981 L912 974 L913 975 L914 984 L915 985 L918 984 L920 978 L919 970 L931 949 L933 941 L937 934 L938 927 L942 920 L942 915 L939 914 L935 917 L930 925 L926 939 L920 945 L915 955 L910 948 L905 948 L902 941 L895 937 L890 927 L885 923 L883 923 L878 917 L871 915 L865 909 L859 909 L855 905 L850 905 L849 906 L839 905 L835 898 L831 894 L826 894 L821 897 L817 894 L817 892 L814 888 L812 887 L809 888 L804 883 L800 881 L788 884 L784 882 L777 875 L773 877 L772 880 L769 883 L766 883 L761 880 L756 880 L750 884 L742 877 L735 877 L732 880 L730 887 L728 889 L726 889 L719 881 L724 873 L723 867 L717 861 L707 861 L702 858 L696 859 L694 857 L691 857 L687 862 L683 863 L680 866 L680 870 L684 874 L683 875 L677 875 L676 876 L675 875 L674 867 L673 866 L673 858 L672 857 L672 847 L671 846 L670 790 L669 789 L669 777 L668 776 L668 769 L667 768 L667 761 L666 760 L665 740 L669 736 L672 735 L676 730 L678 715 L680 713 L686 712 L690 708 L692 704 L692 690 L698 683 L702 676 L705 661 L708 658 L716 654 L719 650 L720 639 L724 633 L724 625 L725 624 L728 628 L727 630 L731 629 L739 620 L740 616 L739 614 L739 606 L743 603 L746 604 L750 603 L752 601 L754 595 L752 596 L751 599 L748 602 L741 602 L739 603 L737 607 L738 617 L736 622 L731 627 L729 627 L725 622 L723 623 L722 634 L718 640 L718 648 L713 654 L708 656 L703 662 L701 670 L701 675 L699 679 L690 690 L691 701 L689 707 L686 710 L682 711 L676 715 L675 717 L676 721 L675 728 L669 735 L666 735 L665 738 L663 732 L662 733 L663 734 L664 758 L665 759 L667 786 L668 787 L668 827 L669 828 L669 844 L670 845 L671 864 L672 865 L673 879 L674 880 L675 911 L676 912 L676 920 L677 921 L677 927 L678 928 L681 951 L682 952 L687 981 L689 986 L689 991 L690 992 L692 1008 L693 1009 L694 1024 L695 1025 L695 1033 L696 1034 L696 1042 L697 1043 L697 1051 L698 1052 L699 1069 L700 1070 L700 1078 L701 1079 L701 1087 L702 1088 L702 1097 L703 1098 L703 1106 L704 1107 L704 1116 L705 1117 L705 1126 L706 1127 L706 1136 L707 1137 L709 1168 L710 1169 L712 1203 L713 1204 L713 1217 L714 1218 L714 1232 L715 1233 L715 1247 L716 1248 L716 1264 L717 1265 L717 1282 L718 1283 L718 1340 L717 1341 L717 1350 L716 1351 L715 1359 L712 1364 L698 1363 L697 1362 L700 1356 L701 1343 L702 1342 L702 1301 L701 1300 L701 1266 L700 1265 L700 1242 L699 1241 L699 1222 L698 1221 L698 1202 L697 1201 L697 1184 L696 1183 L696 1168 L695 1167 L695 1150 L694 1149 L693 1124 L692 1123 L691 1108 L690 1107 L690 1101 L688 1093 L688 1086 L687 1085 L687 1078 L686 1077 L686 1070 L685 1069 L685 1062 L684 1061 L684 1052 L683 1051 L683 1044 L682 1043 L682 1035 L681 1034 L681 1026 L680 1025 L680 1017 L679 1016 L676 976 L675 975 L673 958 L670 946 L668 925 L667 924 L667 914 L666 913 L666 899 L665 898 L665 888 L664 887 L664 878 L663 877 L663 868 L662 867 L662 858 L661 857 L659 811 L658 810 L658 796 L657 795 L657 783 L656 782 L656 731 L657 730 L657 717 L656 714 L657 713 L660 718 L660 715 L658 711 L655 709 L655 706 L658 703 L663 701 L665 697 L669 693 L673 682 L681 674 L685 668 L688 660 L688 657 L694 649 L694 642 L700 632 L701 626 L709 611 L714 606 L718 604 L723 604 L725 602 L726 599 L725 590 L727 584 L728 574 L734 562 L744 552 L743 548 L735 546 L732 542 L745 529 L744 524 L741 518 L742 515 L746 511 L752 509 L756 505 L766 503 L770 499 L774 492 L776 486 L777 476 L781 473 L787 478 L790 466 L800 459 L799 456 L791 454 L794 444 L791 439 L788 439 L784 444 L780 463 L777 467 L771 479 L771 481 L768 484 L767 483 L773 468 L773 463 L774 462 L772 445 L775 435 L775 427 L772 421 L770 412 L772 406 L778 396 L778 388 L775 384 L769 380 L766 374 L766 370 L772 366 L775 366 L778 363 L779 359 L777 354 L777 349 L783 344 L785 344 L787 346 L791 345 L794 347 L800 347 L806 343 L809 343 L812 346 L811 352 L802 359 L802 364 L806 368 L811 370 L818 369 L821 373 L813 381 L813 386 L816 390 L816 393 L814 395 L806 397 L803 400 L803 404 L808 409 L807 417 L812 418 L817 413 L822 404 L825 404 L827 406 L828 415 L831 417 L836 410 L836 405 L837 404 L838 405 L839 418 L834 430 L836 438 L830 445 L825 455 L818 461 L818 463 L827 456 L838 455 L843 451 L845 451 L844 437 L850 427 L851 420 L857 418 L857 413 L856 412 L857 398 L860 394 L864 394 L868 389 L869 390 L870 403 L868 405 L864 414 L864 420 L865 421 L865 424 L863 428 L864 439 L862 441 L858 442 L855 445 L855 448 L853 452 L846 459 L847 461 L855 452 L857 445 L859 443 L862 443 L866 438 L865 427 L867 423 L867 420 L872 416 L875 416 L878 419 L881 419 L890 408 L893 411 L892 416 L894 421 L894 427 L893 428 L893 434 L894 435 L897 433 L899 424 L902 421 L905 421 L908 418 L911 412 L913 413 L914 415 L914 424 L913 426 L916 425 L918 431 L924 430 L926 432 L925 441 L922 446 L921 444 L919 447 L920 450 L926 443 L928 437 L928 433 L925 429 L920 429 L919 428 L918 424 L916 422 L916 417 L914 411 L912 410 L910 411 L906 418 L904 420 L903 419 L900 420 L897 424 L894 417 L894 409 L892 407 L888 407 L881 417 L879 417 L875 414 L872 414 L867 418 L866 414 L872 402 L872 399 L870 395 L872 389 L870 387 L868 387 L863 393 L859 393 L856 397 L854 405 L854 411 L856 417 L855 418 L854 417 L850 418 L848 424 L848 428 L845 431 L842 437 L843 449 L836 454 L829 454 L828 452 L838 438 L838 434 L836 430 L838 429 L837 427 L841 419 L840 400 L839 399 L838 390 L837 389 L836 390 L836 396 L830 409 L828 407 L828 404 L826 402 L823 402 L819 405 L816 412 L812 416 L810 416 L809 415 L810 409 L806 405 L805 400 L807 398 L815 396 L818 393 L818 390 L815 386 L815 381 L822 375 L822 370 L820 368 L816 367 L815 368 L809 368 L804 364 L804 359 L806 357 L808 357 L813 351 L814 348 L813 344 L807 341 L799 346 L795 346 L789 342 L784 342 L778 346 L776 350 L777 362 L771 366 L768 366 L764 371 L764 374 L768 381 L776 387 L777 394 L769 410 L769 417 L774 429 L774 433 L771 443 L771 453 L773 460 L772 467 L767 476 L766 481 L760 494 L769 486 L774 477 L775 478 L774 488 L770 497 L766 501 L762 503 L755 504 L752 507 L745 510 L740 515 L740 521 L743 526 L743 529 L739 534 L732 538 L731 544 L734 547 L740 548 L742 550 L742 553 L732 562 L727 572 L724 584 L724 590 L723 591 L724 599 L722 602 L716 603 L711 606 L707 611 L701 622 L701 625 L698 633 L693 641 L692 649 L687 656 L685 664 L682 670 L672 680 L670 684 L669 690 L664 697 L660 701 L656 702 L653 706 L653 710 L655 714 L654 777 L653 778 L647 767 L647 764 L643 755 L643 752 L646 745 L646 735 L644 727 L641 725 L638 725 L636 729 L634 731 L630 732 L627 736 L628 742 L632 744 L634 748 L633 764 L630 773 L630 782 L632 787 L630 792 L630 805 L634 814 L637 814 L639 812 L644 802 L644 793 L642 788 L642 784 L643 783 L647 784 L653 784 L654 783 L655 784 L656 809 L657 810 L657 826 L658 827 L658 842 L659 843 L660 867 L661 868 L663 895 L664 896 L665 924 L666 925 L666 932 L667 933 L667 939 L669 946 L669 952 L670 953 L671 963 L674 975 L674 981 L675 982 L676 1005 L677 1006 L677 1016 L678 1017 L681 1052 L682 1053 L683 1069 L684 1070 L685 1085 L686 1086 L689 1114 L690 1115 L690 1122 L691 1123 L691 1132 L692 1133 L695 1197 L696 1198 L696 1216 L697 1217 L697 1236 L698 1237 L700 1313 L693 1318 L676 1324 L663 1326 L662 1327 L657 1327 L656 1328 L649 1328 L648 1329 L629 1329 L627 1330 L626 1329 L612 1329 L611 1328 L595 1326 L598 1328 L606 1330 L612 1330 L613 1331 L648 1331 L649 1330 L656 1330 L657 1329 L662 1329 L679 1325 L688 1322 L699 1315 L700 1316 L700 1344 L699 1345 L699 1352 L696 1361 L692 1365 L681 1369 L677 1369 L676 1368 L678 1366 L681 1358 L681 1353 L682 1352 L682 1341 L681 1340 L680 1354 L678 1362 L676 1366 L672 1370 L668 1370 L667 1371 L646 1372 L645 1373 L600 1373 L599 1372 L600 1356 L599 1356 L597 1371 L595 1373 L587 1373 L586 1372 L588 1369 L588 1364 L589 1363 L589 1345 L587 1346 L587 1364 L584 1373 L517 1373 L512 1369 L510 1364 L509 1353 L508 1352 L509 1235 L510 1234 L510 1204 L511 1203 L512 1155 L513 1154 L514 1116 L515 1115 L516 1050 L517 1049 L517 996 L518 995 L521 902 L522 901 L522 883 L523 882 L523 858 L522 857 L521 841 L520 840 L517 821 L515 816 L515 812 L510 792 L507 769 L505 763 L505 757 L501 743 L502 739 L505 743 L507 757 L516 768 L516 784 L517 788 L528 800 L527 813 L530 819 L535 825 L531 838 L532 847 L535 855 L534 871 L535 871 L536 867 L536 858 L537 856 L535 853 L535 849 L533 844 L533 836 L536 829 L536 824 L530 816 L529 813 L530 801 L529 798 L519 788 L518 785 L518 769 L517 766 L510 759 L508 755 L508 749 L506 741 L502 737 L498 740 L497 744 L496 761 L495 762 L495 781 L496 782 L496 795 L497 796 L499 813 L509 850 L510 877 L509 878 L509 887 L508 888 L507 906 L506 907 L503 960 L502 961 L502 977 L501 978 L500 1009 L499 1010 L499 1028 L498 1029 L497 1061 L496 1062 L493 1143 L492 1144 L489 1210 L488 1211 L487 1240 L486 1241 L484 1303 L483 1304 L483 1326 L482 1327 L482 1360 L485 1369 L484 1370 L451 1370 L450 1369 L443 1369 L442 1368 L433 1367 L418 1362 L408 1357 L395 1348 L382 1335 L375 1326 L359 1300 L295 1181 L277 1151 L259 1114 L248 1086 L228 1043 L228 1041 L225 1036 L225 1034 L222 1029 L210 999 L196 971 L177 938 L142 886 L132 865 L120 828 L117 800 L116 799 L116 791 L115 790 L115 780 L114 779 L113 748 L112 747 L112 721 L111 720 L112 647 L113 646 L113 627 L114 626 L116 590 L117 589 L117 583 L118 582 L121 583 L124 580 L130 568 L135 573 L139 572 L141 574 L144 582 L147 585 L150 585 L153 579 L153 568 L151 565 L149 565 L146 562 L145 557 L143 555 L141 555 L136 548 L131 549 L127 554 L125 554 L121 551 L121 546 L122 545 L124 526 L126 520 L126 515 L129 504 L130 494 L145 434 L162 387 L188 333 L213 292 L243 253 L282 213 L320 182 L357 158 L381 146 L383 146 L398 139 L406 137 L409 135 L411 136 L411 141 L414 149 L413 150 L407 150 L407 151 L414 151 L415 152 L434 151 L446 147 L454 142 L458 142 L465 139 L466 137 L462 139 L460 138 L461 135 L459 133 L459 128 L461 126 L468 123 L483 121 Z M556 113 L557 112 L560 113 L559 114 Z M461 112 L457 115 L460 114 Z M559 112 L564 109 L588 109 L589 110 L605 110 L606 111 L613 111 L614 112 L628 114 L646 120 L656 125 L680 130 L702 138 L714 141 L717 143 L714 144 L710 142 L673 133 L662 129 L657 129 L657 130 L663 131 L670 134 L689 138 L693 140 L696 140 L700 142 L716 146 L739 157 L741 159 L739 160 L716 149 L709 149 L655 132 L652 130 L647 129 L646 128 L647 125 L629 117 L614 115 L609 113 L603 113 L602 112 L597 112 L607 115 L606 116 L601 116 L600 115 L592 115 L591 114 L560 113 Z M469 110 L470 109 L472 110 L471 111 Z M587 106 L588 105 L589 106 L588 107 Z M487 106 L488 105 L490 106 L489 107 Z M472 114 L457 123 L447 133 L448 135 L444 139 L439 147 L433 149 L431 147 L429 141 L429 137 L432 129 L436 123 L445 114 L457 105 L460 105 Z M584 105 L585 104 L587 105 L586 106 Z M571 106 L575 104 L581 106 L580 107 L572 107 Z M518 105 L519 104 L523 105 L522 106 Z M582 104 L583 103 L585 104 L584 105 Z M580 103 L581 102 L583 103 L582 104 Z M629 102 L666 114 L666 113 L660 110 L645 105 L642 105 L630 101 Z M454 102 L455 104 L441 115 L435 122 L433 120 L435 114 L444 104 L450 100 Z M582 100 L583 99 L588 99 L593 104 L591 106 L588 103 L584 102 Z M445 97 L448 99 L443 102 L437 108 L430 121 L428 128 L428 135 L427 136 L427 143 L429 148 L424 150 L420 144 L420 140 L419 139 L419 129 L423 115 L430 105 L431 107 L429 109 L424 121 L424 124 L425 124 L431 109 L440 99 Z M580 94 L578 94 L565 101 L546 109 L545 111 L556 107 L578 96 Z M585 94 L587 92 L589 93 L587 95 Z M588 97 L599 88 L607 88 L608 87 L616 87 L617 86 L660 86 L661 87 L669 87 L670 88 L676 88 L677 89 L685 90 L715 101 L748 119 L761 129 L759 130 L745 123 L714 112 L711 112 L707 110 L704 110 L700 108 L669 100 L653 98 L657 100 L662 100 L686 106 L690 108 L697 109 L701 111 L708 112 L718 116 L721 116 L724 118 L735 121 L752 129 L754 129 L767 136 L776 144 L782 154 L784 167 L781 180 L778 181 L775 179 L777 175 L777 164 L773 155 L763 145 L753 140 L748 139 L745 137 L724 133 L723 132 L717 132 L716 131 L703 130 L702 129 L684 128 L683 127 L659 124 L643 117 L623 111 L605 109 L604 108 L594 108 L593 107 L595 103 L620 101 L619 100 L593 101 L592 100 L593 99 L599 99 L598 98 L589 98 Z M460 88 L465 85 L472 85 L473 86 L469 88 L464 88 L463 89 Z M487 105 L484 106 L474 103 L457 95 L455 93 L447 90 L443 90 L432 99 L421 116 L417 131 L418 144 L421 149 L420 150 L416 149 L413 140 L413 129 L417 114 L426 99 L436 89 L442 85 L445 84 L447 86 L451 86 L456 88 Z M602 85 L607 80 L615 80 L616 79 L628 79 L635 81 L645 81 L650 83 L649 84 L629 83 L628 84 L605 85 L604 86 Z M450 84 L451 82 L464 79 L475 80 L480 82 L477 84 L461 83 L455 86 Z M608 77 L609 76 L615 76 L616 77 L615 78 L609 78 Z M467 92 L499 74 L517 69 L526 69 L527 68 L551 69 L552 70 L588 73 L591 75 L585 81 L554 83 L547 85 L574 84 L575 83 L580 83 L581 84 L576 88 L562 95 L536 102 L521 102 L513 104 L508 107 L500 107 L492 105 L481 100 L504 90 L510 89 L517 86 L528 84 L528 83 L511 86 L496 91 L479 99 Z M604 43 L609 51 L611 58 L610 70 L608 75 L602 83 L593 91 L589 93 L588 92 L598 82 L606 69 L606 64 L607 63 L606 55 L604 50 L599 44 L600 43 Z M598 43 L599 42 L600 43 L599 44 Z M605 58 L605 65 L604 66 L601 53 L599 50 L597 50 L601 59 L601 71 L597 80 L585 93 L586 95 L581 99 L565 107 L563 107 L557 111 L540 116 L535 116 L534 117 L522 118 L521 119 L515 119 L514 118 L517 116 L510 119 L495 119 L482 116 L471 111 L475 110 L483 113 L494 114 L493 112 L482 111 L472 107 L466 106 L447 96 L442 96 L431 106 L430 105 L444 91 L451 93 L467 102 L485 108 L521 108 L547 101 L551 102 L548 104 L522 112 L520 111 L508 114 L499 114 L499 115 L511 115 L512 114 L518 114 L519 113 L524 113 L536 110 L549 105 L552 103 L550 101 L551 100 L554 100 L557 98 L567 95 L580 88 L592 77 L597 66 L597 55 L594 48 L592 46 L595 40 L603 51 Z M595 38 L592 39 L592 42 L590 44 L595 57 L595 65 L592 71 L578 70 L577 69 L554 68 L553 67 L542 67 L541 66 L524 66 L523 67 L511 68 L507 70 L501 71 L486 78 L482 81 L471 78 L459 78 L451 80 L448 82 L443 82 L435 87 L423 99 L419 105 L413 119 L412 129 L410 133 L378 145 L360 154 L332 171 L311 186 L290 203 L264 227 L247 245 L221 277 L200 308 L184 336 L171 362 L171 364 L156 396 L142 437 L142 440 L140 444 L137 459 L135 463 L131 479 L130 488 L128 493 L128 497 L123 518 L122 529 L121 530 L119 551 L117 559 L117 567 L116 568 L116 576 L115 577 L113 609 L112 610 L112 623 L111 624 L111 639 L110 640 L110 664 L109 665 L109 729 L110 730 L110 753 L111 754 L112 781 L113 782 L114 801 L115 802 L115 809 L116 810 L117 823 L119 830 L119 836 L120 837 L121 847 L128 877 L132 887 L132 890 L134 893 L134 896 L137 903 L137 906 L139 909 L139 912 L144 927 L146 930 L150 944 L152 947 L161 975 L168 992 L183 1037 L185 1040 L190 1056 L201 1081 L205 1093 L233 1151 L252 1184 L300 1253 L324 1283 L346 1305 L365 1321 L370 1324 L377 1331 L380 1336 L398 1353 L409 1360 L420 1365 L432 1369 L448 1371 L449 1372 L468 1372 L469 1373 L493 1372 L501 1374 L532 1375 L533 1376 L547 1376 L548 1375 L648 1375 L649 1374 L660 1374 L661 1373 L676 1372 L689 1369 L695 1365 L716 1366 L740 1360 L759 1351 L770 1344 L789 1327 L804 1306 L823 1268 L825 1266 L825 1264 L829 1258 L857 1201 L859 1194 L871 1167 L886 1124 L888 1121 L888 1118 L891 1112 L891 1109 L894 1103 L894 1100 L897 1094 L897 1091 L924 1010 L947 955 L968 895 L968 892 L972 882 L972 879 L974 875 L982 844 L984 829 L985 828 L985 822 L986 821 L986 814 L987 813 L988 784 L989 783 L988 766 L989 765 L989 758 L990 757 L991 739 L992 738 L992 730 L993 729 L993 718 L994 717 L995 688 L996 687 L996 658 L997 657 L996 596 L995 595 L993 561 L992 560 L992 551 L990 543 L988 521 L987 520 L983 491 L982 490 L977 461 L975 456 L975 452 L966 416 L958 391 L947 366 L947 364 L943 357 L943 355 L941 353 L940 349 L911 291 L900 272 L883 248 L852 216 L833 201 L818 191 L785 172 L786 162 L783 151 L776 140 L763 127 L747 116 L726 104 L701 93 L681 87 L677 87 L671 85 L661 85 L639 78 L637 79 L623 75 L612 74 L611 73 L613 67 L612 53 L604 40 L601 42 Z" fill="#eef3f4" fill-rule="evenodd"/>
</svg>
