<svg xmlns="http://www.w3.org/2000/svg" width="1086" height="1448" viewBox="0 0 1086 1448">
  <title>0130</title>
  <path d="M416 1205 L416 1206 L421 1208 L441 1210 L442 1211 L464 1212 L465 1213 L479 1213 L480 1214 L507 1214 L508 1215 L599 1214 L600 1213 L616 1213 L617 1212 L629 1212 L630 1211 L647 1210 L662 1206 L662 1205 L649 1208 L635 1209 L634 1210 L609 1211 L608 1212 L589 1212 L588 1213 L491 1213 L490 1212 L472 1212 L471 1211 L458 1211 L457 1210 L438 1209 L437 1208 L431 1208 L430 1207 Z M640 1150 L656 1150 L661 1152 L666 1157 L671 1166 L673 1172 L673 1187 L669 1197 L664 1201 L661 1202 L660 1201 L652 1200 L637 1195 L635 1193 L639 1191 L644 1186 L647 1178 L647 1163 L644 1155 L639 1151 Z M434 1166 L436 1158 L440 1153 L447 1150 L458 1150 L459 1151 L460 1150 L461 1151 L617 1151 L618 1150 L632 1150 L638 1152 L642 1156 L645 1165 L645 1176 L642 1185 L637 1190 L628 1193 L583 1194 L582 1195 L468 1194 L467 1193 L452 1193 L442 1190 L436 1183 L434 1175 Z M439 1150 L440 1151 L435 1156 L433 1160 L432 1177 L435 1186 L440 1191 L444 1193 L441 1195 L422 1201 L414 1201 L409 1197 L405 1186 L405 1173 L410 1160 L419 1151 L422 1150 Z M403 1175 L403 1184 L405 1192 L408 1198 L415 1203 L420 1203 L428 1201 L447 1194 L463 1195 L464 1196 L488 1196 L489 1197 L586 1197 L587 1196 L617 1196 L618 1195 L633 1194 L650 1201 L653 1201 L657 1203 L663 1203 L670 1198 L672 1195 L675 1185 L675 1174 L670 1160 L662 1151 L655 1148 L615 1148 L614 1149 L467 1149 L466 1148 L423 1148 L416 1151 L411 1156 L405 1167 Z M388 1175 L392 1161 L399 1150 L409 1140 L420 1136 L448 1136 L449 1137 L625 1137 L626 1136 L657 1136 L668 1139 L681 1152 L686 1161 L689 1171 L689 1187 L688 1188 L687 1196 L683 1206 L677 1213 L666 1218 L626 1221 L625 1222 L612 1222 L611 1223 L594 1223 L593 1224 L562 1224 L561 1225 L486 1224 L485 1223 L469 1223 L468 1222 L457 1222 L456 1221 L446 1221 L445 1220 L435 1220 L434 1219 L423 1219 L422 1218 L409 1217 L400 1212 L395 1206 L389 1190 Z M387 1171 L387 1188 L389 1196 L393 1206 L401 1215 L407 1218 L415 1220 L437 1221 L438 1222 L459 1223 L460 1224 L473 1224 L474 1225 L491 1225 L492 1226 L588 1226 L589 1225 L607 1225 L608 1224 L621 1224 L622 1223 L633 1223 L634 1222 L665 1220 L674 1217 L683 1209 L688 1199 L691 1186 L691 1173 L690 1172 L689 1164 L681 1149 L671 1139 L662 1135 L656 1135 L655 1134 L645 1134 L644 1135 L437 1135 L436 1134 L423 1134 L411 1137 L400 1146 L393 1156 Z M713 1068 L740 1094 L751 1107 L774 1140 L786 1164 L795 1193 L796 1211 L797 1212 L795 1234 L790 1250 L787 1255 L788 1255 L791 1250 L796 1236 L797 1225 L798 1224 L797 1196 L793 1179 L788 1165 L770 1131 L752 1106 L742 1094 L725 1077 Z M366 1068 L364 1068 L355 1075 L327 1104 L302 1138 L287 1166 L279 1191 L278 1201 L277 1202 L277 1211 L276 1212 L276 1223 L277 1224 L278 1239 L281 1249 L285 1255 L282 1249 L279 1237 L279 1231 L278 1230 L278 1206 L279 1205 L279 1199 L283 1182 L291 1161 L305 1136 L327 1106 L347 1084 Z M888 1058 L889 1057 L890 1058 L889 1059 Z M866 1055 L866 1086 L865 1087 L865 1124 L866 1122 L866 1106 L867 1105 L867 1075 L868 1074 L868 1056 Z M209 1056 L209 1100 L210 1101 L210 1123 L211 1124 L211 1055 Z M867 1043 L868 1042 L869 1043 L868 1044 Z M177 1020 L178 1019 L179 1021 L178 1022 Z M619 1008 L611 1013 L595 1017 L586 1016 L580 1012 L593 1005 L600 1003 L613 1004 L616 1005 Z M464 1008 L467 1005 L474 1003 L486 1003 L496 1007 L501 1010 L502 1012 L494 1016 L482 1016 L470 1012 Z M667 994 L666 995 L666 1004 L667 1005 L668 1016 L671 1028 L681 1055 L691 1074 L696 1081 L683 1056 L683 1054 L678 1044 L670 1018 L668 1002 L667 1001 Z M413 994 L411 1012 L405 1034 L397 1054 L385 1077 L395 1061 L404 1041 L412 1014 L412 1009 L414 1002 L414 995 Z M447 1002 L447 1003 L452 1002 L469 992 L480 990 L481 991 L490 992 L506 1002 L519 1008 L527 1010 L533 1010 L534 1011 L553 1011 L554 1010 L564 1009 L573 1006 L594 994 L601 992 L611 992 L621 996 L628 1001 L636 1003 L635 1001 L632 1001 L613 991 L599 991 L595 992 L580 1001 L566 1007 L558 1008 L557 1009 L541 1010 L540 1009 L525 1008 L515 1005 L502 998 L497 994 L485 989 L470 990 L462 994 L454 1000 Z M469 981 L477 980 L486 983 L493 987 L497 987 L479 979 L470 979 Z M497 903 L492 911 L487 926 L486 949 L487 950 L488 959 L493 971 L498 978 L503 983 L506 984 L499 977 L493 968 L488 952 L488 930 L489 929 L490 921 Z M668 949 L664 936 L655 921 L644 910 L638 906 L631 903 L622 902 L621 903 L627 903 L639 908 L653 921 L658 928 L663 938 L667 954 L666 976 L663 986 L658 996 L645 1009 L639 1012 L631 1014 L615 1014 L614 1013 L621 1009 L622 1007 L616 1003 L609 1001 L596 1002 L588 1005 L580 1010 L567 1014 L556 1015 L555 1016 L533 1016 L532 1015 L518 1014 L505 1010 L492 1003 L486 1001 L473 1001 L463 1005 L461 1008 L466 1012 L464 1014 L451 1014 L437 1009 L427 1001 L418 986 L414 970 L414 955 L418 938 L425 924 L438 910 L444 906 L452 904 L452 903 L446 904 L437 909 L427 919 L422 926 L415 942 L413 950 L412 966 L413 967 L414 979 L420 994 L424 1000 L430 1006 L444 1014 L453 1015 L454 1016 L462 1016 L463 1015 L472 1014 L475 1016 L483 1018 L494 1018 L500 1016 L504 1012 L524 1017 L554 1018 L555 1017 L562 1017 L578 1013 L584 1017 L593 1018 L594 1019 L595 1018 L605 1017 L611 1014 L620 1015 L621 1016 L635 1015 L649 1008 L658 999 L666 983 L667 975 L668 974 L668 968 L669 967 Z M211 812 L212 813 L212 851 L211 852 L211 943 L210 944 L209 1034 L207 1036 L207 1040 L204 1048 L198 1054 L193 1056 L185 1056 L180 1050 L178 1045 L178 1029 L177 1028 L183 1015 L187 998 L187 991 L188 990 L189 945 L190 944 L190 925 L191 924 L191 905 L192 904 L192 885 L193 884 L193 866 L194 865 L194 844 L195 843 L196 813 L197 812 Z M865 811 L879 811 L880 812 L882 860 L883 861 L883 876 L884 877 L884 894 L885 895 L885 911 L886 912 L886 929 L887 930 L887 948 L888 949 L889 997 L890 998 L892 1014 L896 1025 L898 1027 L898 1045 L896 1051 L891 1056 L883 1056 L876 1053 L871 1046 L868 1035 L868 956 L867 955 L867 902 L866 901 L866 846 L865 845 L865 815 L864 814 Z M189 811 L195 813 L194 814 L194 828 L193 829 L193 849 L192 850 L191 889 L190 890 L189 928 L188 929 L186 994 L185 995 L183 1009 L179 1019 L178 1018 L178 981 L179 980 L179 951 L180 950 L180 921 L181 920 L183 847 L184 846 L185 812 Z M890 810 L891 811 L892 835 L893 836 L894 878 L895 879 L895 907 L896 908 L897 1013 L898 1014 L898 1021 L897 1022 L893 1011 L892 1001 L891 1000 L891 990 L890 989 L890 955 L889 954 L888 915 L887 914 L885 866 L884 865 L884 847 L883 846 L883 829 L882 828 L882 813 L881 812 L882 811 L889 811 Z M631 789 L632 788 L633 789 L632 790 Z M452 788 L453 787 L454 788 L453 789 Z M584 780 L583 793 L584 794 L584 803 L585 804 L587 821 L595 849 L601 864 L607 876 L608 876 L597 850 L592 834 L588 813 L587 812 L587 807 L586 806 L585 780 Z M497 780 L496 781 L495 807 L492 819 L492 824 L484 852 L474 876 L476 874 L484 856 L493 827 L495 812 L496 811 L496 805 L497 804 L497 794 L498 793 L498 783 Z M647 776 L648 775 L649 776 L648 777 Z M648 775 L649 774 L650 775 L649 776 Z M649 774 L650 773 L651 774 L650 775 Z M651 773 L652 772 L654 773 L653 774 Z M846 770 L832 790 L816 806 L808 812 L797 818 L781 823 L763 824 L762 823 L749 822 L733 818 L729 816 L726 816 L722 814 L701 810 L700 809 L694 809 L693 808 L672 808 L671 809 L666 809 L655 812 L655 813 L668 810 L675 810 L676 809 L689 809 L690 810 L698 810 L699 811 L708 812 L752 824 L758 824 L759 825 L783 824 L796 820 L816 808 L833 791 L841 780 Z M663 770 L658 773 L655 772 L660 769 Z M233 770 L237 778 L245 789 L261 805 L274 814 L286 820 L299 824 L304 824 L305 825 L331 824 L347 820 L370 812 L383 809 L388 809 L389 808 L409 808 L410 809 L420 810 L424 812 L428 812 L421 809 L413 808 L412 807 L397 806 L396 807 L386 807 L385 808 L376 809 L346 819 L334 822 L329 822 L328 823 L309 824 L308 823 L297 822 L287 819 L273 812 L262 804 L244 786 Z M662 769 L663 768 L665 769 L664 770 Z M665 768 L666 767 L668 768 L667 769 Z M668 767 L669 766 L671 767 L670 768 Z M419 767 L422 766 L428 769 L434 770 L438 772 L441 776 L439 777 L437 775 Z M671 766 L672 765 L674 766 L673 767 Z M415 766 L416 765 L420 766 L419 767 Z M674 765 L675 764 L677 765 L676 766 Z M413 765 L414 764 L416 765 L415 766 Z M678 764 L679 763 L680 764 L679 765 Z M409 764 L410 763 L413 764 L412 765 Z M681 763 L682 762 L684 763 L683 764 Z M406 763 L407 762 L409 763 L408 764 Z M685 762 L686 761 L687 762 L686 763 Z M742 753 L743 752 L749 752 L750 753 L749 754 L743 754 Z M761 746 L762 745 L764 746 L763 747 Z M311 745 L312 744 L313 745 L312 746 Z M308 744 L309 743 L311 744 L310 745 Z M307 743 L308 742 L309 743 L308 744 Z M295 736 L296 735 L297 736 L296 737 Z M294 735 L295 734 L296 735 L295 736 Z M704 694 L705 696 L702 704 L702 720 L704 727 L707 732 L707 734 L712 741 L718 747 L726 752 L725 753 L690 758 L651 770 L650 769 L652 767 L656 758 L673 731 L691 707 Z M374 694 L408 728 L436 767 L435 769 L419 763 L395 757 L376 755 L375 754 L367 754 L366 753 L354 753 L353 752 L360 748 L366 742 L371 735 L374 728 L377 715 L376 703 L373 696 Z M704 694 L705 693 L706 694 L705 695 Z M372 694 L373 693 L374 694 L373 695 Z M193 682 L213 682 L215 685 L212 809 L206 811 L187 810 L185 807 L186 769 L187 768 L187 744 L188 743 L188 718 L189 717 L189 693 L190 692 L190 685 Z M864 681 L881 681 L885 682 L887 684 L888 688 L890 734 L891 735 L891 760 L892 761 L892 807 L890 809 L886 810 L867 810 L864 808 L862 694 L861 693 L861 685 Z M323 680 L336 680 L348 685 L358 695 L361 701 L363 709 L363 719 L360 729 L357 734 L346 744 L335 748 L325 748 L315 745 L310 742 L302 734 L298 726 L296 718 L297 705 L303 693 L313 684 Z M738 680 L754 679 L766 684 L774 691 L778 697 L781 705 L782 715 L781 716 L781 721 L777 731 L769 740 L758 746 L741 747 L729 742 L719 732 L715 722 L714 709 L716 701 L720 693 L728 685 Z M625 676 L617 686 L605 709 L599 726 L596 743 L595 744 L594 760 L593 761 L593 789 L594 790 L595 806 L601 826 L602 825 L598 813 L597 803 L596 802 L596 795 L595 794 L595 758 L596 757 L596 749 L603 719 L615 692 Z M458 675 L458 677 L464 686 L475 710 L481 728 L484 741 L484 746 L485 747 L485 754 L486 755 L486 792 L485 793 L484 806 L479 827 L485 809 L485 804 L487 797 L487 789 L488 788 L488 758 L487 757 L487 749 L486 748 L485 737 L478 713 L467 689 Z M316 672 L326 669 L336 669 L352 678 L365 687 L372 697 L374 704 L374 720 L371 730 L365 740 L358 747 L349 752 L340 752 L332 750 L343 747 L355 739 L359 734 L363 726 L365 718 L365 710 L362 699 L356 690 L352 686 L342 680 L334 678 L321 679 L310 684 L301 693 L298 698 L295 707 L295 721 L300 733 L308 742 L307 743 L304 742 L295 730 L291 716 L291 707 L294 695 L300 685 L308 677 Z M757 669 L768 674 L779 684 L783 690 L788 704 L787 722 L780 736 L773 743 L764 746 L763 745 L770 741 L775 736 L782 723 L783 707 L779 696 L771 686 L764 681 L757 678 L744 677 L736 679 L730 682 L717 695 L713 704 L712 717 L716 730 L724 740 L736 747 L748 748 L749 749 L748 750 L731 752 L720 746 L710 735 L704 720 L704 704 L710 689 L728 676 L742 668 Z M259 633 L292 649 L294 649 L314 659 L316 659 L329 666 L318 669 L310 673 L296 687 L292 695 L289 706 L289 717 L292 728 L295 733 L294 735 L282 723 L278 717 L271 702 L263 672 L261 654 L260 653 L260 646 L259 645 L259 635 L258 634 Z M814 632 L815 633 L814 664 L813 665 L812 680 L811 681 L811 686 L808 699 L800 718 L793 728 L785 735 L784 733 L787 728 L790 719 L790 704 L784 688 L779 681 L767 671 L757 667 L749 666 L748 665 Z M244 623 L247 626 L256 631 L259 662 L261 668 L263 683 L270 705 L281 725 L294 738 L311 748 L332 753 L353 754 L354 755 L353 756 L322 755 L321 754 L315 754 L300 750 L284 742 L270 728 L263 717 L263 715 L259 708 L251 682 L251 678 L249 673 L247 658 L246 657 L246 651 L245 650 L244 632 L243 631 L243 624 Z M831 622 L832 623 L831 624 L832 625 L831 629 L831 652 L830 653 L830 663 L829 664 L828 679 L822 704 L815 720 L809 729 L801 737 L794 742 L775 750 L760 752 L759 753 L751 753 L750 752 L751 751 L756 751 L764 748 L767 748 L779 742 L791 733 L800 722 L808 706 L814 682 L816 655 L817 654 L817 630 Z M230 605 L231 604 L232 606 L231 607 Z M228 599 L229 601 L229 611 L230 612 L230 623 L231 624 L231 635 L232 636 L233 651 L234 652 L234 657 L235 658 L238 678 L243 694 L243 697 L247 706 L249 714 L260 734 L271 746 L282 754 L295 760 L305 763 L316 764 L317 765 L328 765 L329 766 L369 766 L370 767 L388 768 L389 769 L394 769 L411 773 L429 779 L442 785 L444 785 L442 783 L445 782 L442 773 L440 771 L437 764 L418 737 L403 719 L374 691 L359 680 L337 667 L306 652 L304 652 L295 647 L282 642 L254 628 L239 618 L241 621 L243 649 L244 650 L246 667 L253 696 L264 722 L272 733 L279 740 L286 745 L298 751 L311 755 L324 756 L325 757 L370 758 L371 759 L387 760 L388 761 L405 764 L430 773 L439 778 L443 782 L441 783 L428 777 L398 768 L393 768 L392 767 L387 767 L386 766 L365 765 L364 764 L323 764 L322 763 L308 762 L289 756 L272 745 L266 739 L258 728 L251 714 L242 688 L240 676 L238 671 L236 654 L234 648 L234 639 L233 638 L232 619 L231 618 L231 607 L232 606 L241 613 L267 627 L269 627 L278 632 L280 632 L285 635 L315 647 L346 662 L364 673 L382 687 L405 710 L431 743 L442 760 L452 781 L453 787 L451 788 L447 785 L447 787 L456 793 L455 785 L450 772 L442 757 L430 739 L406 709 L383 686 L356 666 L336 656 L334 654 L332 654 L303 640 L275 629 L247 615 L234 606 L230 600 Z M847 598 L841 605 L821 617 L760 646 L758 646 L729 661 L713 671 L697 684 L676 708 L654 740 L635 774 L635 776 L632 781 L629 793 L640 787 L639 786 L634 789 L632 788 L638 771 L646 756 L672 716 L684 700 L698 685 L717 670 L732 661 L747 654 L751 651 L753 651 L768 643 L770 643 L781 637 L794 632 L828 615 L841 607 L844 604 L845 605 L845 610 L844 611 L842 655 L841 656 L841 665 L840 666 L839 679 L838 680 L838 685 L837 686 L835 699 L826 723 L818 735 L808 745 L791 755 L778 759 L768 760 L767 761 L759 761 L758 762 L730 763 L729 764 L719 764 L718 765 L698 767 L670 774 L651 781 L646 784 L643 783 L652 775 L654 775 L656 773 L669 770 L685 764 L697 761 L714 759 L715 758 L723 758 L724 757 L732 757 L733 756 L744 756 L745 755 L756 755 L757 754 L764 754 L765 753 L774 752 L786 748 L801 739 L811 729 L815 723 L824 704 L830 678 L831 662 L832 661 L833 621 L836 617 L821 626 L741 666 L724 676 L705 690 L690 705 L671 730 L653 759 L643 780 L644 784 L642 786 L645 786 L669 776 L702 768 L708 768 L716 766 L725 766 L726 765 L764 763 L765 762 L776 761 L790 757 L802 751 L809 746 L820 735 L826 726 L831 716 L836 702 L839 685 L840 684 L840 678 L842 671 L842 663 L843 662 Z M546 592 L547 591 L548 592 L547 593 Z M547 591 L548 590 L549 591 L548 592 Z M548 590 L549 589 L550 590 L549 591 Z M549 589 L550 588 L551 589 L550 590 Z M550 588 L551 587 L552 588 L551 589 Z M530 588 L531 587 L532 588 L531 589 Z M551 587 L552 586 L553 587 L552 588 Z M529 587 L530 586 L531 587 L530 588 Z M528 586 L529 585 L530 586 L529 587 Z M552 585 L553 584 L554 585 L553 586 Z M527 585 L528 584 L529 585 L528 586 Z M553 584 L554 583 L555 584 L554 585 Z M526 584 L527 583 L528 584 L527 585 Z M554 583 L555 582 L556 583 L555 584 Z M555 582 L556 581 L557 582 L556 583 Z M525 582 L526 581 L527 582 L526 583 Z M524 581 L525 580 L526 581 L525 582 Z M556 580 L557 579 L558 580 L557 581 Z M523 580 L524 579 L525 580 L524 581 Z M557 579 L558 578 L559 579 L558 580 Z M522 579 L523 578 L524 579 L523 580 Z M558 578 L559 577 L560 578 L559 579 Z M521 577 L522 576 L523 577 L522 578 Z M559 576 L560 575 L561 576 L560 577 Z M520 576 L521 575 L522 576 L521 577 Z M560 575 L561 574 L562 575 L561 576 Z M519 575 L520 574 L521 575 L520 576 Z M561 574 L562 573 L563 574 L562 575 Z M518 573 L519 572 L520 573 L519 574 Z M562 572 L563 571 L564 572 L563 573 Z M517 572 L518 571 L519 572 L518 573 Z M563 571 L564 570 L565 571 L564 572 Z M564 569 L565 568 L566 569 L565 570 Z M515 569 L516 568 L517 569 L516 570 Z M565 568 L566 567 L567 568 L566 569 Z M514 568 L515 567 L516 568 L515 569 Z M566 566 L567 565 L568 566 L567 567 Z M513 566 L514 565 L515 566 L514 567 Z M567 564 L568 563 L569 565 L568 566 Z M568 563 L569 562 L570 563 L569 564 Z M511 563 L512 562 L513 563 L512 564 Z M569 561 L570 560 L571 562 L570 563 Z M510 561 L511 560 L512 561 L511 562 Z M570 560 L571 559 L572 560 L571 561 Z M509 560 L510 559 L511 560 L510 561 Z M571 558 L572 557 L573 558 L572 559 Z M508 558 L509 557 L510 558 L509 559 Z M572 556 L573 555 L574 556 L573 557 Z M507 556 L508 555 L509 556 L508 557 Z M506 555 L507 554 L508 555 L507 556 Z M573 554 L574 553 L575 555 L574 556 Z M505 553 L506 552 L507 553 L506 554 Z M574 552 L575 551 L576 553 L575 554 Z M504 551 L505 550 L506 551 L505 552 Z M575 550 L576 549 L577 551 L576 552 Z M477 550 L478 549 L479 550 L478 551 Z M503 549 L504 548 L505 549 L504 550 Z M576 548 L577 547 L578 549 L577 550 Z M502 547 L503 546 L504 547 L503 548 Z M577 546 L578 545 L579 547 L578 548 Z M501 546 L502 545 L503 546 L502 547 Z M578 544 L579 543 L580 545 L579 546 Z M500 544 L501 543 L502 544 L501 545 Z M499 541 L500 540 L501 541 L500 542 Z M498 539 L499 538 L500 539 L499 540 Z M497 537 L498 536 L499 537 L498 538 Z M496 535 L497 534 L498 535 L497 536 Z M495 533 L496 532 L497 533 L496 534 Z M494 530 L495 529 L496 531 L495 532 Z M493 527 L494 526 L495 528 L494 529 Z M492 525 L493 524 L494 526 L493 527 Z M491 522 L492 521 L493 523 L492 524 Z M490 519 L491 518 L492 520 L491 521 Z M490 514 L491 515 L490 518 L489 517 Z M489 511 L490 512 L489 515 L488 514 Z M213 480 L216 489 L217 515 L216 516 L214 572 L213 573 L213 590 L212 591 L212 604 L211 605 L211 620 L210 621 L210 634 L209 635 L209 647 L208 648 L208 661 L207 662 L206 679 L205 680 L196 680 L195 681 L194 680 L195 650 L196 649 L196 633 L197 632 L197 617 L198 616 L198 601 L199 600 L199 585 L200 584 L203 529 L204 528 L204 516 L205 515 L205 502 L206 501 L207 489 L210 483 Z M865 479 L871 487 L873 495 L873 501 L874 502 L874 511 L875 512 L877 552 L878 553 L878 570 L879 571 L879 588 L880 589 L880 606 L881 607 L883 676 L884 677 L883 680 L871 680 L870 679 L870 669 L869 668 L869 652 L868 651 L868 638 L867 637 L866 605 L865 604 L865 590 L864 589 L864 572 L863 571 L863 557 L862 556 L861 518 L860 517 L861 490 L862 489 L863 481 Z M227 474 L228 473 L229 475 L228 476 Z M850 470 L851 471 L851 475 L850 476 L849 475 L849 471 Z M229 468 L230 469 L229 473 L228 472 Z M238 468 L236 472 L236 476 L231 495 L231 500 L230 501 L230 506 L227 519 L225 546 L223 553 L221 593 L220 594 L220 614 L219 615 L219 669 L220 670 L221 689 L222 690 L223 701 L227 717 L236 742 L247 763 L258 778 L272 791 L284 799 L304 807 L312 808 L313 809 L319 809 L320 810 L342 810 L343 809 L357 808 L373 804 L398 802 L399 803 L408 803 L409 804 L419 805 L431 809 L454 821 L453 819 L447 815 L433 808 L421 804 L413 803 L412 802 L406 802 L405 801 L383 801 L382 802 L375 802 L374 803 L353 806 L352 807 L346 807 L345 808 L317 808 L316 807 L311 807 L294 802 L280 795 L273 790 L263 781 L250 765 L239 745 L230 722 L224 697 L223 684 L222 683 L222 674 L221 673 L220 638 L221 637 L221 607 L222 606 L222 587 L223 586 L224 558 L225 557 L225 546 L226 545 L226 537 L227 536 L227 528 L228 527 L230 507 L231 506 L232 495 L233 494 L233 490 L237 476 Z M849 466 L850 467 L849 470 L848 469 Z M839 466 L840 476 L841 477 L843 492 L845 498 L845 503 L846 504 L847 516 L848 517 L848 525 L849 526 L850 543 L851 544 L851 554 L852 555 L853 582 L854 583 L854 602 L855 603 L855 624 L856 625 L856 662 L855 663 L854 688 L853 689 L853 696 L852 697 L850 712 L842 738 L831 761 L822 774 L811 786 L799 795 L780 804 L768 807 L762 807 L761 808 L734 808 L733 807 L725 807 L724 806 L717 806 L716 805 L710 805 L702 803 L693 803 L692 802 L670 803 L648 809 L634 816 L628 820 L628 821 L647 811 L663 806 L675 805 L676 804 L696 804 L697 805 L705 805 L706 806 L712 806 L713 807 L719 807 L727 809 L736 809 L737 810 L758 810 L759 809 L766 809 L779 806 L797 798 L811 788 L821 778 L833 761 L840 747 L849 722 L853 705 L853 700 L854 699 L855 685 L856 684 L856 672 L857 671 L857 609 L856 608 L856 593 L855 592 L853 551 L852 550 L852 542 L851 541 L851 533 L850 532 L850 524 L849 523 L847 502 L846 501 L845 491 Z M847 460 L849 463 L848 467 L846 463 Z M486 459 L487 460 L487 466 L486 467 L486 494 L489 507 L489 511 L488 512 L486 507 L485 497 L484 496 L484 488 L483 487 L483 475 L484 474 L484 466 Z M846 457 L847 458 L846 461 L845 460 Z M487 455 L488 456 L487 460 L486 459 Z M844 452 L846 455 L845 458 L843 455 Z M488 451 L489 452 L488 455 L487 454 Z M489 448 L490 449 L489 452 L488 451 Z M587 446 L590 453 L593 465 L593 471 L594 472 L594 499 L593 500 L593 505 L589 522 L583 539 L580 544 L579 541 L586 524 L589 511 L590 500 L591 499 L591 471 L590 470 L589 458 L586 450 Z M490 445 L491 446 L490 449 L489 448 Z M586 443 L587 444 L586 447 L585 446 Z M491 442 L492 443 L491 446 L490 445 Z M584 442 L585 441 L586 443 L585 444 Z M491 441 L492 440 L493 442 L492 443 Z M584 438 L585 439 L584 442 L583 441 Z M493 437 L494 438 L493 441 L492 440 Z M582 437 L583 436 L584 438 L583 439 Z M493 436 L494 435 L495 437 L494 438 Z M581 435 L582 434 L583 436 L582 437 Z M494 434 L495 433 L496 435 L495 436 Z M580 433 L581 432 L582 434 L581 435 Z M495 432 L496 431 L497 432 L496 433 Z M579 431 L580 430 L581 432 L580 433 Z M529 431 L536 431 L537 430 L546 431 L558 435 L563 438 L574 449 L580 462 L581 477 L577 489 L568 500 L554 508 L546 510 L528 510 L518 507 L509 502 L501 494 L495 482 L495 477 L494 476 L495 462 L501 449 L511 439 L517 435 Z M496 430 L497 429 L498 430 L497 431 Z M578 429 L579 428 L580 430 L579 431 Z M515 434 L509 438 L501 446 L495 456 L492 466 L493 482 L500 496 L510 505 L518 509 L528 512 L546 512 L554 510 L567 503 L578 491 L581 485 L583 477 L582 461 L575 447 L566 438 L560 434 L546 429 L529 429 Z M497 428 L498 427 L499 429 L498 430 Z M577 427 L578 426 L579 428 L578 429 Z M498 426 L499 425 L500 427 L499 428 Z M576 425 L577 424 L578 426 L577 427 Z M499 424 L500 423 L501 425 L500 426 Z M575 423 L576 422 L577 424 L576 425 Z M574 422 L575 421 L576 422 L575 423 Z M500 422 L501 421 L502 423 L501 424 Z M573 420 L574 419 L575 420 L574 421 Z M572 418 L573 417 L574 419 L573 420 Z M571 417 L572 416 L573 417 L572 418 Z M504 416 L505 418 L502 422 L501 420 Z M790 426 L811 446 L820 460 L825 471 L833 500 L834 512 L833 513 L832 521 L827 525 L808 527 L807 528 L793 530 L781 533 L774 536 L771 536 L768 538 L750 544 L722 558 L693 577 L667 598 L652 613 L642 625 L632 640 L625 653 L618 674 L615 670 L613 662 L613 656 L612 655 L615 629 L622 609 L629 595 L640 578 L649 567 L665 551 L681 538 L699 526 L725 511 L766 491 L776 485 L789 473 L793 465 L793 452 L791 446 L782 431 L766 415 L769 414 Z M570 415 L571 414 L572 416 L571 417 Z M286 426 L308 414 L310 415 L293 432 L286 443 L282 455 L283 468 L287 475 L294 482 L301 487 L323 498 L325 498 L330 501 L353 510 L362 515 L364 515 L399 534 L423 552 L441 571 L448 581 L459 601 L467 624 L469 638 L470 639 L470 664 L467 673 L462 657 L456 644 L447 629 L438 617 L414 592 L391 574 L368 560 L356 554 L354 554 L344 549 L336 547 L333 545 L297 536 L277 534 L276 533 L257 532 L250 530 L245 525 L243 520 L243 504 L244 503 L244 498 L247 485 L252 470 L259 455 L266 445 L275 435 Z M765 414 L766 413 L767 414 L766 415 Z M309 414 L310 413 L311 414 L310 415 Z M764 413 L765 412 L766 413 L765 414 Z M602 411 L608 414 L614 420 L624 437 L629 455 L630 473 L631 474 L629 504 L623 527 L614 543 L607 550 L603 552 L602 549 L609 534 L616 509 L616 504 L618 497 L618 485 L619 484 L619 467 L618 466 L618 456 L614 439 L608 424 L601 413 Z M568 412 L569 411 L571 414 L570 415 Z M475 411 L478 412 L471 423 L463 445 L462 456 L461 457 L461 465 L460 466 L460 482 L461 483 L461 493 L462 494 L464 510 L470 530 L478 547 L477 550 L472 548 L467 543 L462 536 L457 526 L452 510 L450 495 L449 494 L449 484 L448 483 L449 458 L454 438 L461 424 L470 414 Z M600 409 L599 413 L606 424 L614 445 L615 453 L616 454 L616 462 L617 463 L617 489 L616 490 L615 505 L607 534 L600 549 L601 553 L605 553 L616 543 L620 537 L628 517 L630 503 L631 502 L631 496 L632 495 L632 464 L631 463 L631 456 L628 443 L620 426 L616 420 L608 412 L603 409 Z M566 409 L567 408 L569 411 L568 412 Z M475 409 L470 412 L462 420 L452 438 L447 458 L446 481 L447 482 L447 493 L448 494 L449 505 L453 517 L453 520 L457 530 L465 543 L471 549 L476 552 L480 552 L481 550 L477 542 L468 519 L464 502 L463 489 L462 488 L462 462 L463 461 L463 454 L464 453 L465 444 L470 429 L479 413 L479 410 Z M565 408 L566 407 L567 408 L566 409 Z M756 407 L755 408 L764 415 L779 430 L785 438 L789 446 L792 459 L791 460 L791 465 L788 471 L784 476 L771 486 L727 508 L691 529 L673 542 L652 561 L637 579 L628 593 L621 607 L613 630 L612 639 L611 640 L611 649 L610 650 L613 669 L616 675 L619 678 L620 671 L624 659 L634 640 L646 623 L672 596 L700 574 L727 557 L749 546 L764 540 L800 530 L818 528 L819 527 L826 527 L827 526 L830 527 L830 538 L827 550 L818 566 L803 581 L785 593 L767 602 L747 610 L742 611 L739 613 L734 614 L716 622 L695 636 L680 650 L670 662 L662 674 L642 712 L624 741 L615 761 L610 779 L610 785 L609 786 L609 810 L610 811 L612 827 L618 845 L627 863 L661 910 L670 929 L674 942 L675 954 L676 955 L676 969 L675 970 L674 978 L676 980 L678 993 L683 1007 L691 1024 L700 1038 L710 1051 L727 1068 L701 1037 L690 1019 L685 1008 L680 994 L677 977 L676 976 L677 973 L677 949 L674 936 L669 922 L664 912 L655 898 L636 874 L627 860 L620 846 L615 832 L613 819 L612 818 L612 813 L611 812 L611 784 L612 783 L614 769 L623 746 L645 710 L659 682 L676 657 L695 638 L712 626 L726 619 L773 601 L796 588 L815 572 L824 560 L828 552 L832 535 L831 526 L830 525 L835 518 L836 508 L835 507 L835 500 L834 499 L834 494 L832 486 L825 466 L814 447 L798 430 L779 417 Z M320 407 L294 419 L278 430 L262 447 L252 465 L245 485 L242 498 L242 503 L241 504 L241 520 L243 525 L247 530 L246 532 L246 540 L249 552 L253 560 L262 572 L277 585 L288 592 L306 601 L343 615 L366 626 L390 643 L404 657 L424 684 L429 694 L455 736 L464 755 L470 775 L470 783 L471 784 L470 810 L466 827 L464 830 L461 840 L446 868 L419 907 L409 928 L404 947 L404 956 L403 957 L404 977 L403 978 L401 991 L396 1006 L388 1023 L379 1037 L365 1054 L353 1066 L354 1066 L364 1057 L380 1038 L390 1022 L398 1005 L404 985 L404 980 L406 979 L406 974 L405 973 L405 953 L406 952 L406 946 L409 933 L419 910 L448 868 L464 837 L469 822 L471 808 L472 807 L472 797 L473 796 L472 777 L467 761 L467 758 L454 731 L441 711 L422 678 L406 657 L391 642 L369 626 L347 615 L303 598 L289 591 L274 581 L264 572 L255 560 L250 550 L248 542 L248 532 L250 531 L254 533 L259 533 L260 534 L271 534 L272 535 L288 536 L289 537 L300 538 L325 544 L340 549 L359 558 L361 558 L391 576 L417 597 L429 609 L442 625 L453 642 L460 656 L465 672 L465 677 L468 675 L472 663 L472 641 L471 640 L471 634 L468 621 L457 593 L443 571 L422 549 L399 532 L378 521 L376 519 L339 502 L325 497 L303 486 L297 482 L286 470 L284 464 L284 455 L286 448 L291 438 L296 431 L313 414 L320 409 Z M563 405 L564 404 L566 407 L565 408 Z M537 381 L557 400 L576 428 L585 449 L588 461 L589 476 L590 477 L589 502 L588 503 L586 518 L581 534 L569 560 L557 578 L546 590 L547 593 L542 598 L540 598 L533 592 L534 590 L536 592 L519 571 L503 544 L492 516 L489 503 L488 487 L487 486 L488 464 L489 463 L490 454 L495 439 L502 425 L511 411 L521 398 Z M537 375 L538 374 L539 375 L538 376 Z M564 403 L563 405 L541 382 L536 381 L520 397 L505 417 L504 416 L505 413 L516 397 L536 373 L538 374 L537 377 L539 375 L543 378 Z M537 371 L534 373 L507 407 L491 436 L484 457 L484 461 L482 467 L482 475 L481 476 L481 485 L482 486 L483 501 L484 502 L485 510 L488 517 L488 520 L493 533 L502 551 L513 569 L525 585 L539 599 L543 599 L554 588 L566 572 L578 553 L586 536 L593 514 L594 505 L595 504 L595 498 L596 497 L596 473 L595 472 L595 466 L592 453 L590 450 L586 437 L579 423 L560 395 L548 381 Z M535 365 L540 365 L553 374 L568 389 L584 411 L597 437 L602 455 L603 469 L604 470 L604 488 L603 489 L603 497 L602 498 L601 509 L599 513 L597 524 L591 540 L581 561 L567 584 L555 600 L546 609 L542 611 L537 610 L529 603 L518 589 L502 563 L497 552 L495 550 L495 548 L485 527 L477 501 L477 496 L476 495 L476 489 L475 488 L475 463 L476 462 L478 447 L480 444 L480 441 L485 428 L494 411 L511 387 L524 373 Z M536 363 L528 367 L510 385 L498 401 L490 414 L478 440 L474 456 L473 474 L472 476 L473 477 L473 491 L474 492 L474 497 L478 513 L486 535 L499 562 L509 579 L523 599 L535 611 L541 613 L548 610 L557 601 L566 589 L581 565 L592 543 L600 521 L604 505 L605 491 L606 490 L606 468 L605 467 L605 460 L604 459 L603 450 L598 434 L587 412 L574 393 L557 375 L544 365 Z M577 329 L578 330 L589 330 L590 331 L599 331 L600 332 L619 334 L666 345 L693 354 L696 356 L701 357 L721 365 L769 388 L797 405 L815 419 L826 430 L835 442 L842 455 L849 477 L848 479 L851 477 L860 477 L863 479 L861 482 L860 492 L859 493 L859 530 L860 531 L860 547 L861 548 L861 564 L862 565 L862 581 L863 582 L866 648 L867 649 L867 662 L868 663 L868 675 L869 676 L868 680 L863 680 L860 683 L860 726 L861 727 L861 767 L862 768 L863 837 L864 838 L864 881 L865 882 L865 942 L866 943 L866 1053 L867 1053 L868 1045 L869 1044 L872 1051 L875 1054 L881 1057 L885 1057 L889 1059 L884 1065 L878 1079 L875 1099 L873 1105 L873 1110 L870 1121 L870 1126 L861 1162 L861 1166 L845 1218 L831 1253 L816 1283 L803 1303 L783 1327 L768 1341 L745 1358 L721 1371 L693 1382 L690 1382 L669 1389 L665 1389 L651 1393 L641 1394 L629 1397 L617 1398 L616 1399 L587 1401 L586 1402 L572 1402 L571 1403 L541 1403 L540 1404 L526 1403 L523 1404 L522 1403 L496 1403 L495 1402 L469 1401 L468 1400 L452 1399 L451 1398 L439 1397 L438 1396 L418 1393 L394 1387 L370 1379 L339 1365 L308 1345 L290 1330 L279 1319 L257 1291 L245 1270 L235 1248 L220 1203 L216 1187 L212 1163 L211 1162 L200 1083 L194 1067 L187 1058 L188 1057 L195 1057 L201 1054 L206 1048 L208 1043 L209 1044 L209 1052 L210 1053 L211 1052 L212 933 L213 932 L213 846 L214 845 L214 788 L215 787 L216 698 L217 697 L216 683 L217 682 L207 679 L208 678 L208 670 L209 669 L212 619 L213 618 L216 552 L217 551 L217 533 L218 532 L218 491 L217 490 L217 484 L215 480 L217 478 L221 477 L227 477 L231 480 L230 475 L233 463 L242 444 L250 433 L265 418 L275 410 L300 394 L340 374 L370 362 L375 361 L378 359 L399 352 L402 352 L427 344 L439 342 L448 339 L462 337 L463 336 L487 333 L488 332 L495 332 L496 331 L517 330 L518 329 L545 329 L546 328 L548 329 Z M229 467 L232 455 L239 441 L250 426 L259 417 L271 407 L287 396 L330 373 L377 354 L425 339 L441 336 L450 333 L459 332 L460 331 L476 329 L477 328 L498 326 L499 325 L507 325 L508 324 L521 324 L522 323 L573 323 L574 324 L597 325 L598 326 L605 326 L606 327 L623 329 L665 339 L711 355 L767 381 L803 403 L819 416 L828 425 L839 440 L844 450 L843 453 L835 439 L829 431 L814 416 L801 406 L767 385 L732 368 L730 368 L703 356 L658 341 L638 336 L634 336 L629 334 L613 332 L612 331 L589 329 L588 328 L576 328 L575 327 L521 327 L520 328 L508 328 L507 329 L497 329 L496 330 L475 332 L474 333 L469 333 L468 334 L464 334 L463 335 L459 335 L458 336 L454 336 L428 342 L368 361 L343 371 L338 374 L336 374 L327 379 L325 379 L295 395 L266 415 L245 437 L236 452 L231 467 L230 468 Z M743 299 L744 298 L745 299 L744 300 Z M239 424 L242 422 L249 410 L257 400 L280 378 L308 359 L341 342 L343 342 L355 336 L375 328 L392 323 L395 321 L398 321 L408 317 L411 317 L415 315 L418 315 L422 313 L438 309 L442 309 L463 304 L468 304 L469 303 L490 301 L491 300 L512 299 L513 298 L535 298 L536 297 L586 299 L587 300 L596 300 L597 301 L604 301 L605 302 L629 305 L677 317 L722 333 L747 345 L749 345 L753 348 L766 354 L795 373 L806 382 L820 396 L829 407 L839 423 L839 421 L834 412 L821 395 L809 383 L789 367 L765 352 L737 338 L735 338 L716 329 L669 313 L641 306 L622 303 L621 302 L602 300 L601 299 L593 299 L592 298 L583 298 L582 297 L568 297 L567 296 L520 296 L519 297 L505 297 L504 298 L494 298 L493 299 L472 301 L471 302 L466 302 L465 303 L460 303 L459 304 L440 307 L416 313 L379 325 L349 337 L340 342 L338 342 L304 360 L277 379 L257 398 L249 408 Z M361 288 L362 287 L363 288 L362 289 Z M698 279 L699 278 L700 279 L699 280 Z M392 276 L393 275 L394 276 L393 277 Z M393 275 L394 274 L396 275 L395 276 Z M394 219 L395 218 L396 219 L395 220 Z M395 218 L396 217 L397 218 L396 219 Z M692 216 L693 215 L694 216 L693 217 Z M396 216 L397 215 L398 216 L397 217 Z M395 274 L409 261 L429 247 L457 232 L472 226 L507 217 L521 216 L522 215 L547 214 L548 215 L565 215 L566 216 L586 218 L606 223 L631 232 L651 242 L670 254 L687 267 L699 278 L696 279 L693 277 L671 270 L662 266 L630 258 L625 258 L624 257 L608 255 L607 254 L601 254 L600 253 L583 252 L582 251 L571 251 L570 250 L518 250 L517 251 L504 251 L503 252 L486 253 L485 254 L479 254 L478 255 L472 255 L466 257 L450 259 L422 266 L398 275 Z M223 224 L227 217 L231 213 L238 208 L246 205 L251 205 L258 208 L265 217 L270 233 L272 249 L273 250 L281 337 L297 321 L316 310 L318 310 L351 295 L363 291 L368 288 L380 284 L385 281 L426 267 L455 260 L460 260 L461 259 L478 257 L479 256 L485 256 L486 255 L493 255 L494 254 L517 253 L518 252 L569 252 L570 253 L582 253 L583 254 L600 255 L601 256 L607 256 L608 257 L614 257 L620 259 L630 260 L662 268 L674 273 L685 276 L710 286 L724 293 L726 293 L762 311 L791 329 L801 337 L808 345 L810 345 L812 308 L813 307 L813 294 L814 293 L814 283 L815 282 L815 270 L816 269 L818 243 L819 242 L819 237 L822 224 L826 214 L831 208 L839 205 L849 207 L855 211 L863 220 L866 226 L867 240 L868 241 L867 374 L866 375 L866 394 L865 395 L865 414 L864 415 L861 475 L860 476 L852 474 L852 469 L850 461 L848 458 L845 448 L839 437 L831 426 L817 412 L807 404 L770 381 L719 357 L691 347 L688 345 L660 336 L636 330 L616 327 L615 326 L610 326 L609 325 L584 323 L583 322 L567 322 L566 321 L512 322 L511 323 L502 323 L501 324 L479 326 L478 327 L473 327 L467 329 L452 331 L420 339 L409 343 L406 343 L360 359 L345 366 L338 368 L331 372 L329 372 L289 393 L271 405 L260 414 L248 426 L238 440 L231 454 L227 466 L226 474 L223 475 L222 474 L222 267 L221 266 L221 247 L222 246 L222 228 Z M782 196 L783 198 L776 215 L776 218 L773 226 L770 245 L769 246 L767 265 L766 266 L766 274 L765 275 L763 308 L761 309 L748 301 L734 275 L736 273 L746 252 L748 250 L753 239 L762 225 L764 220 L774 205 Z M782 196 L783 195 L784 196 L783 197 Z M308 195 L313 200 L329 223 L342 245 L356 272 L341 296 L338 299 L329 303 L327 302 L325 270 L324 269 L324 261 L323 260 L323 253 L320 241 L320 236 L313 213 L313 210 L307 197 Z M306 195 L307 194 L308 195 L307 196 Z M783 194 L784 193 L785 195 L784 196 Z M784 193 L785 192 L786 193 L785 194 Z M305 193 L306 192 L307 194 L306 195 Z M785 192 L786 191 L787 192 L786 193 Z M304 192 L305 191 L306 192 L305 193 Z M238 191 L239 190 L240 191 L239 192 Z M848 188 L849 187 L850 188 L849 189 Z M240 188 L241 187 L242 188 L241 189 Z M847 187 L848 186 L849 187 L848 188 Z M680 186 L682 187 L693 213 L692 216 L673 195 Z M411 186 L418 195 L398 216 L397 213 L399 211 L401 205 Z M241 187 L242 186 L243 187 L242 188 Z M846 186 L847 185 L848 186 L847 187 Z M242 186 L243 185 L244 186 L243 187 Z M845 185 L846 184 L847 185 L846 186 Z M243 185 L244 184 L245 185 L244 186 Z M844 184 L845 183 L846 184 L845 185 Z M244 184 L245 183 L246 184 L245 185 Z M843 183 L844 182 L845 183 L844 184 Z M245 183 L246 182 L247 183 L246 184 Z M842 182 L843 181 L844 182 L843 183 Z M829 178 L838 181 L850 192 L853 198 L856 200 L859 211 L858 212 L855 209 L846 204 L835 204 L831 206 L826 211 L822 218 L819 228 L817 243 L816 244 L816 250 L815 251 L812 295 L811 296 L811 309 L810 310 L809 336 L807 341 L799 333 L773 315 L774 314 L774 298 L775 297 L775 290 L776 289 L777 267 L778 266 L780 246 L782 241 L782 236 L784 231 L785 223 L790 208 L795 198 L800 191 L812 181 L821 178 Z M261 178 L268 178 L281 183 L294 196 L301 209 L305 221 L309 243 L310 244 L310 249 L311 250 L313 273 L314 274 L315 294 L316 295 L316 305 L317 307 L297 319 L283 332 L282 331 L282 322 L281 321 L280 298 L279 297 L279 287 L278 286 L278 276 L277 275 L275 251 L274 250 L272 234 L268 220 L264 212 L259 207 L253 204 L243 204 L238 206 L231 211 L230 210 L233 201 L235 200 L239 193 L249 183 Z M840 178 L843 181 L841 182 L830 177 L820 177 L808 182 L796 194 L788 209 L780 239 L780 244 L777 257 L777 264 L776 265 L773 306 L772 307 L772 313 L770 314 L765 311 L768 266 L769 265 L769 258 L770 257 L770 251 L771 250 L774 230 L782 204 L787 194 L792 187 L802 178 L814 173 L829 173 Z M258 174 L262 173 L276 173 L287 177 L301 190 L308 202 L316 227 L319 247 L320 248 L320 253 L321 254 L321 261 L322 262 L325 302 L326 303 L320 307 L318 306 L318 299 L316 293 L316 281 L315 280 L315 271 L313 263 L313 255 L312 254 L311 242 L307 227 L307 223 L302 208 L297 198 L292 191 L287 186 L276 179 L269 177 L260 177 L256 178 L248 183 L246 182 L249 179 Z M362 286 L385 257 L417 224 L440 205 L460 192 L480 182 L504 174 L519 172 L520 171 L528 171 L529 170 L561 170 L562 171 L570 171 L571 172 L587 174 L607 180 L631 191 L650 203 L670 219 L692 241 L717 272 L730 292 L729 293 L715 286 L706 283 L691 268 L676 256 L658 244 L631 230 L606 221 L585 216 L565 214 L564 213 L524 213 L523 214 L515 214 L514 215 L508 215 L507 216 L493 218 L467 226 L439 239 L424 248 L399 267 L387 279 L380 281 L365 288 L363 288 Z M344 294 L369 256 L396 221 L425 191 L456 167 L479 154 L500 146 L517 142 L531 141 L532 140 L561 140 L562 141 L570 141 L571 142 L587 144 L610 152 L638 168 L662 187 L684 209 L708 239 L729 271 L744 298 L742 299 L734 295 L733 292 L712 262 L691 237 L673 219 L649 200 L627 187 L609 179 L585 172 L581 172 L575 170 L568 170 L567 169 L558 169 L557 168 L534 168 L533 169 L523 169 L522 170 L506 172 L486 178 L460 190 L444 200 L413 225 L386 253 L355 292 L345 296 Z M610 113 L611 112 L612 113 L611 114 Z M657 96 L660 96 L667 104 L684 129 L692 143 L691 148 L688 151 L687 154 L664 187 L658 181 L641 168 L622 156 L608 149 L606 149 L604 147 L609 119 L612 115 L636 104 Z M435 96 L457 104 L484 116 L486 122 L486 127 L487 128 L490 147 L459 163 L427 187 L407 158 L399 144 L422 108 L432 96 Z M613 106 L647 92 L657 89 L662 89 L670 96 L684 115 L700 139 L703 146 L696 158 L672 193 L666 187 L694 145 L691 138 L674 111 L666 100 L659 94 L632 104 L614 113 L611 112 L611 108 Z M481 106 L484 109 L484 113 L483 114 L456 102 L433 94 L426 100 L420 108 L398 143 L399 148 L422 182 L423 185 L426 188 L420 194 L395 157 L389 146 L391 140 L403 123 L404 120 L423 95 L428 90 L431 89 L436 89 L449 93 L474 103 L479 106 Z M495 105 L543 62 L547 61 L569 78 L599 104 L599 109 L597 115 L593 142 L591 144 L582 141 L563 139 L562 138 L532 138 L531 139 L517 140 L502 144 L501 143 L501 138 L500 137 L497 116 L495 110 Z M485 103 L499 89 L532 60 L543 52 L548 52 L560 60 L597 90 L609 101 L610 106 L608 112 L608 117 L605 128 L602 146 L600 147 L595 145 L594 141 L596 135 L596 130 L599 119 L601 104 L575 81 L546 59 L542 61 L531 70 L494 104 L493 108 L494 109 L494 114 L495 115 L500 144 L493 147 L490 136 Z M547 49 L539 52 L517 70 L498 87 L484 101 L482 105 L455 93 L436 87 L430 87 L426 89 L421 94 L403 118 L387 144 L388 150 L410 183 L388 228 L370 251 L357 270 L337 232 L318 203 L301 185 L290 177 L282 173 L279 173 L275 171 L264 171 L256 173 L246 179 L239 186 L235 192 L228 208 L227 215 L222 221 L220 227 L220 245 L219 246 L219 256 L220 257 L220 265 L219 266 L220 270 L220 475 L214 477 L208 482 L204 492 L202 525 L201 526 L201 540 L200 541 L200 553 L199 554 L198 581 L197 582 L197 596 L196 597 L196 613 L195 614 L195 629 L194 630 L192 680 L188 684 L188 690 L187 691 L185 764 L184 765 L184 792 L183 793 L183 809 L184 810 L183 811 L182 842 L181 843 L181 864 L180 865 L178 945 L177 946 L177 974 L176 975 L177 976 L176 977 L176 1009 L175 1010 L175 1040 L176 1041 L176 1046 L180 1054 L192 1068 L197 1080 L199 1094 L200 1095 L203 1125 L204 1126 L204 1132 L205 1133 L205 1139 L206 1140 L210 1169 L221 1214 L237 1258 L252 1287 L270 1312 L287 1330 L302 1343 L317 1354 L333 1364 L357 1376 L372 1382 L397 1390 L413 1394 L417 1394 L422 1396 L431 1397 L432 1398 L443 1399 L444 1400 L451 1400 L452 1401 L467 1402 L468 1403 L478 1403 L479 1404 L517 1405 L518 1406 L575 1405 L576 1404 L599 1403 L600 1402 L608 1402 L609 1401 L616 1401 L617 1400 L642 1397 L643 1396 L652 1395 L657 1393 L661 1393 L677 1389 L710 1378 L730 1369 L755 1354 L779 1334 L798 1313 L813 1292 L820 1280 L838 1242 L848 1213 L850 1210 L850 1207 L853 1201 L854 1195 L859 1181 L859 1178 L861 1174 L868 1146 L869 1137 L871 1132 L881 1076 L886 1066 L896 1055 L900 1046 L900 1040 L901 1039 L900 1011 L899 1010 L898 900 L897 899 L895 833 L894 832 L894 818 L893 817 L893 809 L894 808 L894 756 L893 755 L891 699 L890 698 L890 687 L889 683 L886 680 L886 672 L885 671 L885 647 L884 646 L882 584 L881 583 L880 550 L879 549 L879 535 L878 534 L878 521 L877 520 L876 500 L875 499 L874 489 L871 482 L863 475 L864 452 L865 451 L865 435 L866 434 L866 419 L867 418 L867 401 L868 400 L869 347 L870 346 L870 238 L869 237 L869 230 L867 223 L862 216 L859 202 L854 191 L850 185 L840 176 L828 171 L815 171 L808 173 L802 176 L787 187 L776 199 L758 226 L733 273 L730 270 L726 262 L714 244 L698 223 L698 220 L696 217 L695 212 L682 182 L704 149 L704 142 L693 126 L692 123 L672 95 L665 88 L657 87 L641 92 L621 100 L614 104 L612 104 L611 100 L606 95 L571 66 Z" fill="#eef3f4" fill-rule="evenodd"/>
</svg>
