<svg xmlns="http://www.w3.org/2000/svg" width="1086" height="1448" viewBox="0 0 1086 1448">
  <title>0141</title>
  <path d="M434 1146 L449 1158 L458 1163 L474 1169 L491 1172 L492 1173 L498 1173 L499 1174 L525 1175 L526 1176 L561 1175 L562 1174 L570 1174 L571 1173 L587 1171 L608 1165 L628 1155 L627 1154 L612 1162 L583 1170 L571 1171 L570 1172 L561 1172 L560 1173 L528 1174 L527 1173 L498 1172 L497 1171 L491 1171 L470 1166 L450 1157 L441 1151 L436 1146 Z M456 1074 L470 1084 L486 1091 L505 1096 L523 1097 L524 1098 L560 1096 L561 1095 L582 1091 L588 1088 L593 1087 L602 1082 L604 1082 L614 1075 L595 1085 L572 1092 L568 1092 L562 1094 L555 1094 L554 1095 L544 1095 L543 1096 L516 1096 L515 1095 L502 1094 L484 1089 L465 1080 L459 1075 Z M310 1026 L311 1025 L312 1027 L311 1028 Z M340 1011 L341 1010 L342 1012 L341 1013 Z M751 995 L752 996 L751 1000 L750 999 Z M647 963 L648 962 L649 963 L648 964 Z M623 958 L624 957 L625 958 L624 959 Z M357 958 L358 957 L359 958 L358 959 Z M662 956 L663 955 L664 956 L663 957 Z M387 956 L388 955 L389 956 L388 957 Z M304 953 L305 952 L306 953 L305 954 Z M672 945 L673 944 L674 946 L673 947 Z M673 943 L674 942 L675 944 L674 945 Z M702 944 L702 955 L696 968 L688 980 L666 1008 L645 1030 L632 1040 L611 1052 L583 1063 L571 1066 L561 1067 L560 1068 L521 1069 L520 1068 L503 1067 L502 1066 L481 1062 L455 1051 L439 1041 L425 1030 L400 1005 L386 989 L375 974 L375 971 L382 963 L391 978 L419 1007 L437 1021 L453 1031 L467 1038 L485 1045 L506 1050 L513 1050 L514 1051 L547 1051 L548 1050 L555 1050 L556 1049 L571 1047 L591 1041 L615 1030 L637 1016 L649 1006 L671 983 L672 984 L671 983 L684 966 L690 954 L690 943 L688 940 L688 937 L689 936 L695 936 Z M479 937 L480 936 L481 938 L480 939 Z M373 934 L361 945 L350 953 L358 949 Z M350 933 L351 932 L352 933 L351 934 Z M415 931 L416 932 L416 942 L418 948 L417 951 L407 945 Z M460 929 L462 933 L458 949 L457 948 L457 935 Z M688 924 L693 932 L689 934 L686 933 L687 925 Z M645 925 L644 925 L644 932 L645 933 L644 947 L642 954 L637 962 L637 964 L641 959 L643 954 L646 952 L644 950 L646 945 L646 929 Z M696 918 L696 920 L714 947 L720 960 L725 980 L725 993 L726 994 L726 977 L724 972 L723 964 L721 961 L721 958 L714 944 Z M692 909 L695 916 L695 914 Z M441 907 L435 920 L432 930 L432 934 L430 940 L430 955 L429 956 L426 948 L426 935 L427 934 L428 923 L426 926 L425 937 L424 938 L425 952 L427 954 L425 955 L425 957 L431 962 L433 967 L434 967 L432 959 L432 940 L433 939 L435 925 Z M460 906 L456 914 L448 939 L448 951 L451 961 L453 964 L452 961 L453 956 L452 958 L450 953 L450 938 L454 926 L454 923 L456 920 L456 917 L460 909 Z M682 892 L683 891 L685 894 L684 895 Z M616 882 L619 886 L624 898 L626 906 L626 912 L627 913 L627 921 L626 922 L625 933 L622 942 L615 955 L623 943 L626 935 L626 931 L627 930 L628 931 L627 946 L625 952 L620 961 L617 964 L617 966 L629 956 L635 948 L640 938 L641 930 L642 929 L642 914 L638 900 L633 891 L636 897 L636 900 L638 903 L640 911 L641 926 L636 943 L631 950 L630 949 L631 951 L625 958 L624 956 L629 946 L629 934 L630 933 L630 926 L628 919 L628 909 L626 904 L626 900 L624 897 L624 894 L622 892 L619 884 Z M666 878 L665 880 L672 897 L674 912 L675 911 L675 907 L674 906 L673 896 Z M498 876 L496 877 L493 898 L491 902 L491 906 L486 921 L486 924 L481 937 L480 936 L481 919 L486 899 L488 895 L489 888 L482 908 L480 923 L479 924 L479 933 L478 934 L479 942 L478 945 L479 945 L487 927 L487 924 L494 901 L495 891 L496 890 L496 883 Z M690 873 L699 880 L701 883 L704 884 L692 873 Z M666 872 L667 876 L668 876 L667 872 Z M673 866 L674 865 L675 866 L674 867 Z M671 865 L672 864 L673 865 L672 866 Z M412 859 L413 858 L414 859 L413 860 Z M662 858 L663 857 L664 858 L663 859 Z M640 852 L633 848 L625 847 L624 846 L613 846 L601 849 L592 853 L583 859 L573 869 L569 876 L580 865 L595 856 L610 852 L628 851 L629 852 L638 852 L640 854 Z M446 852 L447 853 L449 851 L472 851 L488 855 L497 860 L506 869 L508 873 L510 874 L503 862 L496 855 L483 847 L476 845 L459 845 L452 847 Z M410 839 L397 844 L381 852 L366 861 L353 871 L333 892 L318 914 L306 939 L302 955 L302 962 L301 963 L301 973 L302 976 L300 979 L297 990 L297 1012 L300 1024 L301 1024 L301 1021 L299 1016 L298 995 L299 994 L300 985 L307 968 L314 958 L336 935 L344 925 L361 899 L374 883 L370 886 L361 897 L337 931 L311 959 L303 973 L302 972 L302 967 L304 959 L307 953 L331 921 L353 886 L349 890 L332 917 L328 921 L324 928 L317 936 L306 952 L305 949 L307 945 L307 942 L319 916 L337 890 L356 871 L369 861 L379 855 L410 840 Z M491 793 L500 811 L503 828 L504 828 L504 822 L500 807 L496 799 Z M626 763 L627 762 L628 763 L627 764 Z M462 760 L463 759 L464 760 L463 761 Z M280 658 L293 673 L312 689 L326 698 L338 704 L358 710 L366 710 L367 711 L386 710 L407 705 L428 695 L444 683 L444 682 L438 687 L420 698 L402 705 L389 707 L388 708 L380 708 L379 709 L357 708 L337 702 L335 700 L333 700 L319 692 L297 675 Z M815 655 L811 658 L806 665 L788 683 L770 697 L745 710 L728 714 L706 714 L685 709 L666 700 L649 688 L655 694 L667 702 L690 712 L698 714 L703 714 L704 715 L712 715 L713 716 L731 715 L749 710 L765 702 L777 694 L787 686 L806 667 Z M630 655 L631 654 L632 655 L631 656 Z M598 604 L596 606 L591 621 L588 634 L587 649 L586 650 L586 684 L587 685 L587 694 L588 695 L588 702 L589 703 L591 719 L594 728 L594 722 L592 716 L590 696 L589 695 L589 686 L588 685 L588 650 L589 649 L589 640 L590 639 L592 624 Z M507 599 L512 616 L513 627 L514 628 L515 658 L514 659 L514 670 L513 671 L513 678 L512 679 L510 695 L500 729 L502 727 L509 705 L513 688 L513 683 L515 676 L515 668 L516 667 L516 632 L515 631 L513 614 L509 601 Z M703 593 L697 606 L696 625 L700 639 L703 644 L709 649 L708 650 L695 650 L694 649 L674 648 L673 647 L658 647 L657 648 L652 648 L644 650 L633 655 L631 654 L635 644 L641 635 L661 614 L683 599 L685 599 L687 597 L689 597 L691 595 L699 592 Z M702 592 L703 591 L704 592 L703 593 Z M735 586 L741 589 L748 598 L751 609 L751 625 L750 629 L745 640 L737 647 L727 650 L717 650 L709 646 L702 636 L699 626 L700 606 L706 594 L713 588 L722 587 L723 586 Z M744 645 L748 641 L749 642 L748 640 L750 638 L754 626 L754 608 L752 600 L749 594 L741 586 L742 585 L744 586 L756 586 L757 587 L762 587 L774 590 L777 592 L792 597 L795 600 L796 607 L798 608 L797 610 L780 628 L774 632 L772 631 L773 632 L770 635 L757 642 L746 646 Z M408 584 L411 583 L422 587 L433 593 L447 603 L465 622 L472 633 L477 646 L476 647 L466 642 L454 641 L453 640 L404 645 L403 644 L413 634 L416 628 L418 620 L417 600 L413 590 Z M407 583 L408 582 L409 583 L408 584 Z M857 598 L844 602 L819 602 L818 601 L810 600 L801 596 L798 596 L778 588 L757 584 L756 583 L733 582 L732 583 L723 583 L722 584 L705 587 L696 590 L677 599 L654 616 L641 630 L631 645 L626 658 L626 663 L641 654 L658 650 L674 650 L675 651 L686 651 L687 652 L696 652 L697 653 L728 653 L729 652 L744 650 L766 641 L781 631 L792 621 L798 614 L805 603 L812 605 L802 620 L788 634 L772 645 L757 652 L729 659 L701 659 L700 658 L691 658 L690 657 L683 657 L675 655 L663 655 L663 656 L673 656 L674 657 L680 657 L687 659 L709 660 L710 661 L732 660 L733 659 L747 657 L770 648 L788 636 L804 620 L814 605 L821 605 L822 606 L838 605 L853 601 Z M364 642 L363 643 L355 642 L351 640 L341 638 L319 629 L298 615 L294 611 L295 606 L304 598 L324 588 L345 581 L362 579 L363 580 L356 587 L351 598 L350 602 L350 619 L352 627 L360 639 L359 640 L360 639 Z M369 579 L372 578 L388 578 L389 579 L399 580 L408 588 L413 597 L414 605 L415 606 L415 619 L413 627 L408 636 L403 641 L394 645 L377 645 L373 644 L367 641 L358 632 L355 626 L353 618 L354 599 L359 588 Z M362 579 L363 578 L364 579 L363 580 Z M244 615 L245 616 L265 616 L279 612 L292 625 L309 636 L331 646 L363 654 L369 654 L370 655 L409 655 L410 654 L418 654 L425 652 L437 651 L438 650 L446 649 L446 648 L430 650 L429 651 L423 651 L422 652 L415 652 L414 653 L403 653 L402 654 L377 654 L376 653 L367 653 L366 652 L350 650 L330 644 L312 636 L293 624 L281 612 L286 609 L288 609 L297 618 L313 629 L332 638 L360 646 L372 647 L373 648 L408 648 L409 647 L419 647 L420 646 L428 646 L436 644 L448 644 L450 643 L451 644 L462 644 L473 648 L481 653 L481 648 L479 644 L479 641 L473 629 L464 616 L447 599 L448 598 L446 599 L443 596 L444 595 L442 596 L432 589 L420 583 L409 579 L396 576 L364 575 L363 576 L350 577 L334 581 L314 589 L290 603 L288 603 L275 610 L261 614 Z M620 637 L622 635 L622 632 L625 627 L625 625 L632 612 L646 596 L655 589 L670 581 L696 573 L710 572 L711 571 L749 571 L750 572 L758 572 L759 573 L764 573 L765 574 L782 577 L805 585 L808 585 L815 588 L827 591 L833 591 L834 592 L836 592 L836 591 L820 588 L788 577 L762 571 L745 570 L744 569 L716 569 L715 570 L698 571 L693 573 L685 574 L666 581 L657 586 L645 595 L637 603 L628 616 L622 629 Z M485 624 L483 616 L475 601 L469 593 L454 580 L433 569 L419 565 L409 564 L408 563 L401 563 L400 562 L367 562 L366 563 L358 563 L352 565 L346 565 L341 567 L337 567 L315 574 L269 596 L252 602 L240 604 L240 605 L244 605 L260 601 L263 599 L273 596 L312 577 L340 568 L361 565 L362 564 L374 564 L375 563 L405 564 L434 571 L453 581 L474 602 L481 615 L483 622 Z M281 582 L283 582 L306 571 L309 571 L320 566 L352 558 L370 557 L371 556 L389 556 L390 557 L400 557 L401 558 L418 560 L438 566 L448 571 L450 571 L463 578 L479 590 L489 601 L495 611 L499 623 L500 636 L501 637 L500 659 L499 660 L499 666 L498 667 L498 672 L495 682 L495 686 L485 717 L479 732 L474 741 L474 743 L469 752 L464 757 L457 761 L437 765 L419 772 L405 780 L387 793 L367 812 L356 825 L343 844 L334 861 L326 885 L325 893 L324 894 L325 895 L332 870 L348 839 L363 819 L386 796 L408 780 L425 771 L442 765 L447 765 L455 763 L461 760 L463 761 L458 767 L447 769 L433 777 L425 785 L418 796 L414 806 L412 814 L412 820 L411 821 L411 834 L414 845 L396 855 L378 868 L363 883 L353 897 L354 898 L363 885 L377 871 L387 863 L405 851 L413 847 L415 847 L419 852 L418 854 L413 856 L405 862 L384 883 L350 931 L351 934 L334 952 L362 925 L368 917 L378 907 L380 904 L377 906 L366 919 L352 933 L351 932 L383 886 L406 863 L412 859 L413 860 L411 862 L420 854 L428 860 L425 861 L413 872 L382 913 L353 943 L326 967 L317 979 L311 991 L308 1002 L308 1008 L307 1009 L307 1017 L308 1018 L308 1025 L309 1026 L310 1035 L315 1046 L315 1042 L314 1041 L314 1018 L315 1017 L315 1013 L320 997 L327 983 L335 971 L326 982 L319 996 L313 1016 L313 1022 L311 1025 L309 1022 L309 1006 L312 993 L319 979 L324 972 L378 920 L410 878 L414 874 L415 875 L414 873 L421 866 L428 862 L429 860 L439 864 L421 882 L399 913 L381 935 L369 947 L350 961 L341 970 L335 978 L327 995 L324 1008 L324 1021 L325 1020 L326 1005 L334 983 L345 968 L357 958 L358 959 L353 965 L344 982 L340 996 L340 1000 L339 1001 L339 1018 L340 1019 L340 1024 L341 1025 L342 1024 L342 1016 L344 1008 L354 986 L368 966 L386 948 L400 932 L406 927 L419 902 L419 899 L407 922 L398 932 L396 930 L404 922 L403 921 L405 918 L404 917 L394 931 L394 932 L396 930 L398 932 L397 934 L367 965 L360 974 L351 988 L342 1010 L341 1009 L341 1001 L342 1000 L342 995 L344 987 L355 965 L362 956 L381 937 L395 921 L423 882 L440 864 L454 865 L459 867 L450 875 L441 887 L433 902 L430 912 L432 911 L434 903 L442 888 L450 877 L457 870 L463 866 L473 866 L474 865 L481 867 L474 872 L464 882 L452 899 L447 909 L442 923 L441 936 L443 931 L443 926 L445 922 L445 919 L454 899 L462 887 L481 868 L485 867 L493 871 L488 876 L482 886 L482 888 L475 903 L472 916 L472 921 L471 922 L471 928 L470 929 L469 952 L468 953 L464 943 L463 920 L464 919 L465 907 L470 894 L469 894 L465 903 L461 920 L461 925 L456 933 L456 938 L455 939 L455 943 L456 944 L456 963 L455 964 L456 966 L455 967 L445 964 L444 961 L445 938 L443 943 L443 963 L442 964 L441 963 L438 953 L438 944 L437 943 L438 938 L437 937 L436 939 L436 952 L438 959 L435 960 L445 971 L446 967 L455 971 L458 971 L475 977 L496 981 L497 982 L503 982 L504 983 L517 984 L518 985 L528 985 L529 986 L567 986 L568 985 L578 985 L579 984 L591 983 L592 982 L596 982 L597 981 L618 977 L638 970 L646 965 L648 966 L659 959 L661 961 L670 952 L672 951 L674 953 L684 940 L686 941 L688 947 L687 948 L686 956 L681 965 L674 975 L661 990 L637 1012 L609 1030 L593 1037 L575 1043 L557 1046 L556 1047 L549 1047 L548 1048 L513 1048 L506 1046 L500 1046 L488 1042 L485 1042 L482 1040 L472 1037 L450 1026 L438 1018 L418 1002 L400 984 L386 965 L387 962 L397 956 L404 948 L406 948 L408 950 L410 950 L412 952 L419 955 L423 961 L424 961 L418 944 L418 923 L424 901 L430 890 L430 888 L422 902 L417 918 L416 926 L412 934 L403 945 L400 946 L389 956 L388 954 L393 949 L403 935 L404 931 L396 943 L377 965 L365 983 L359 997 L360 997 L363 989 L373 974 L385 991 L399 1007 L423 1031 L434 1040 L451 1051 L473 1061 L489 1066 L504 1068 L505 1069 L511 1069 L512 1070 L523 1070 L524 1071 L547 1071 L548 1070 L564 1069 L565 1068 L570 1068 L582 1065 L597 1060 L623 1048 L637 1039 L646 1032 L663 1015 L677 998 L699 967 L703 958 L705 950 L713 964 L716 973 L717 981 L718 982 L718 988 L719 989 L719 997 L720 997 L719 978 L714 962 L708 950 L688 922 L688 909 L686 903 L687 899 L686 900 L684 896 L685 894 L690 898 L703 920 L718 941 L728 961 L732 977 L732 995 L731 996 L731 1002 L729 1007 L729 1011 L727 1016 L728 1017 L732 1005 L733 995 L734 994 L734 979 L728 956 L720 941 L706 922 L692 899 L677 884 L681 890 L682 895 L684 898 L687 911 L687 921 L683 936 L676 948 L675 946 L678 936 L677 932 L678 930 L678 917 L677 915 L676 930 L672 942 L668 950 L664 955 L663 953 L659 956 L658 955 L663 946 L666 934 L666 916 L663 905 L661 902 L662 908 L664 912 L664 920 L665 921 L664 936 L658 952 L655 957 L649 963 L647 962 L627 971 L602 978 L586 980 L585 981 L578 981 L577 982 L568 982 L567 983 L529 983 L528 982 L510 981 L509 980 L492 978 L468 972 L465 970 L462 970 L455 967 L457 966 L458 951 L462 941 L466 953 L470 961 L473 964 L471 957 L470 944 L471 943 L472 944 L475 953 L472 941 L472 925 L473 924 L475 909 L477 906 L478 899 L481 894 L484 885 L493 871 L516 885 L532 890 L539 890 L540 891 L553 891 L554 890 L560 890 L568 888 L579 883 L592 874 L594 880 L597 884 L604 909 L605 921 L606 922 L605 944 L607 939 L607 916 L606 915 L605 904 L600 888 L594 877 L594 875 L592 874 L598 870 L605 881 L610 892 L615 909 L616 927 L615 928 L615 935 L610 952 L614 944 L618 927 L617 912 L614 899 L609 886 L599 870 L606 867 L608 867 L610 869 L609 867 L610 866 L618 866 L631 875 L641 885 L648 895 L652 903 L655 912 L656 923 L657 924 L656 939 L653 946 L653 949 L656 943 L658 935 L658 918 L655 906 L650 895 L643 885 L633 875 L622 867 L623 866 L637 866 L638 865 L643 867 L656 880 L664 894 L665 899 L666 899 L664 891 L662 889 L659 882 L644 866 L646 864 L650 864 L661 859 L669 864 L679 873 L700 895 L716 914 L715 916 L716 915 L720 919 L725 927 L724 929 L725 928 L727 930 L726 932 L725 931 L724 932 L708 909 L710 915 L727 939 L736 959 L733 948 L728 938 L724 933 L725 931 L728 932 L735 947 L740 966 L740 989 L739 990 L740 992 L742 984 L741 962 L737 947 L728 928 L706 899 L674 867 L675 866 L674 864 L663 857 L668 851 L677 856 L688 865 L706 883 L724 907 L737 931 L737 933 L740 935 L735 926 L735 924 L725 906 L709 884 L689 864 L669 849 L672 844 L693 855 L720 874 L737 891 L752 914 L756 924 L759 937 L759 960 L758 961 L756 960 L756 955 L751 938 L743 922 L743 920 L741 918 L741 916 L732 901 L720 886 L721 889 L727 896 L736 910 L747 932 L754 954 L755 967 L756 968 L756 978 L755 979 L755 987 L752 996 L751 995 L751 986 L750 985 L749 962 L746 950 L743 944 L747 960 L747 965 L748 966 L748 980 L749 981 L749 1006 L745 1015 L746 1016 L755 994 L756 986 L757 985 L757 979 L758 978 L758 969 L757 967 L759 965 L760 957 L761 956 L761 937 L758 924 L753 914 L753 912 L740 892 L726 877 L704 860 L680 846 L674 844 L672 842 L673 828 L674 827 L673 825 L673 816 L670 805 L666 798 L666 796 L659 786 L652 779 L639 771 L631 769 L627 764 L629 763 L635 766 L650 769 L666 776 L680 786 L699 805 L716 827 L732 854 L732 856 L741 874 L743 882 L746 888 L746 891 L748 894 L745 881 L743 878 L741 870 L728 843 L720 830 L707 812 L690 793 L680 784 L662 772 L645 766 L633 764 L625 759 L621 754 L615 741 L611 729 L611 726 L609 723 L605 702 L604 701 L603 691 L602 690 L601 673 L600 672 L601 641 L602 640 L603 632 L608 619 L613 611 L627 597 L642 587 L660 578 L680 571 L701 566 L716 565 L717 564 L752 564 L753 565 L762 565 L763 566 L778 568 L794 573 L797 573 L810 578 L813 578 L812 577 L788 569 L776 566 L766 565 L765 564 L758 564 L757 563 L721 562 L720 563 L704 564 L671 572 L668 574 L658 577 L645 584 L643 583 L644 582 L643 583 L644 584 L642 586 L627 595 L612 610 L603 626 L600 636 L599 648 L598 649 L598 676 L599 677 L599 685 L600 686 L602 703 L608 729 L614 746 L626 768 L612 777 L599 791 L591 804 L587 814 L586 821 L587 821 L589 813 L596 798 L603 788 L616 776 L625 772 L633 772 L646 778 L656 787 L663 797 L666 803 L670 817 L670 837 L669 838 L669 842 L666 849 L658 857 L646 862 L639 862 L638 863 L609 863 L605 864 L592 870 L589 873 L571 884 L568 884 L560 887 L554 887 L553 888 L539 888 L538 887 L532 887 L521 884 L509 878 L493 867 L482 863 L453 863 L452 862 L444 862 L436 860 L425 854 L420 849 L415 838 L414 822 L415 821 L416 810 L422 795 L425 790 L434 780 L441 775 L454 770 L467 771 L477 778 L471 771 L466 768 L464 768 L463 766 L469 758 L477 743 L477 741 L482 732 L488 714 L490 711 L498 683 L498 679 L501 668 L501 662 L502 661 L502 651 L503 650 L503 638 L502 637 L502 628 L500 620 L494 606 L487 596 L470 581 L447 568 L424 560 L416 559 L411 557 L406 557 L405 556 L398 556 L397 555 L365 555 L364 556 L356 556 L355 557 L350 557 L335 561 L331 561 L298 573 Z M611 553 L612 552 L613 553 L612 554 Z M193 551 L194 552 L193 567 L192 568 L193 602 L194 603 L194 609 L197 619 L197 623 L204 646 L204 650 L207 660 L206 663 L198 664 L197 665 L185 664 L179 662 L168 655 L156 641 L151 631 L148 619 L148 602 L149 601 L149 597 L153 585 L162 572 L174 561 Z M188 550 L189 549 L190 550 L189 551 Z M911 547 L925 555 L937 567 L943 577 L948 597 L948 607 L947 608 L946 619 L940 635 L933 645 L919 658 L905 664 L898 664 L897 665 L882 663 L880 661 L881 660 L881 656 L887 637 L902 605 L907 590 L907 586 L910 576 L910 570 L911 569 L911 550 L910 549 Z M612 568 L613 569 L617 561 L623 553 L638 538 L659 524 L677 516 L695 511 L706 510 L707 509 L718 509 L719 508 L722 509 L723 508 L732 508 L733 509 L750 510 L763 513 L787 522 L811 534 L827 544 L841 555 L852 567 L861 581 L858 573 L850 562 L838 550 L819 536 L805 528 L777 515 L762 510 L749 508 L748 507 L743 507 L742 506 L709 506 L708 507 L696 508 L675 514 L663 520 L661 520 L643 531 L633 539 L619 555 Z M505 566 L502 559 L496 550 L483 536 L457 519 L455 519 L440 512 L421 507 L409 506 L408 505 L399 505 L398 504 L374 504 L373 505 L363 505 L362 506 L350 507 L330 512 L299 524 L275 536 L260 545 L244 557 L227 575 L222 583 L221 587 L228 576 L239 564 L255 551 L276 538 L310 522 L332 514 L353 510 L354 509 L369 508 L370 507 L400 507 L401 508 L417 509 L418 510 L431 512 L451 519 L463 525 L480 537 L498 556 L504 567 Z M955 472 L962 474 L967 477 L974 484 L980 495 L982 503 L982 510 L983 511 L982 531 L976 556 L969 577 L967 580 L962 597 L960 600 L946 646 L942 667 L940 672 L936 708 L931 729 L926 738 L921 743 L915 746 L907 746 L900 743 L893 736 L884 718 L884 715 L882 712 L882 708 L881 707 L880 695 L879 694 L879 667 L881 664 L888 667 L904 667 L918 662 L924 658 L937 645 L946 629 L951 608 L951 597 L950 596 L950 590 L947 579 L940 566 L932 557 L921 549 L911 544 L909 540 L909 536 L907 530 L907 516 L910 504 L917 492 L918 494 L917 492 L918 490 L929 479 L940 473 L941 474 L942 473 L950 475 L959 479 L966 485 L970 491 L973 498 L974 506 L975 507 L975 527 L974 528 L974 533 L966 561 L953 588 L956 585 L956 583 L962 574 L962 572 L970 555 L975 538 L975 533 L977 526 L977 508 L973 493 L969 486 L962 479 L953 474 L948 474 L947 473 L948 472 Z M249 520 L250 521 L254 518 L265 513 L283 507 L287 507 L307 502 L313 502 L314 501 L338 499 L339 498 L365 497 L366 496 L411 496 L412 497 L419 497 L420 498 L431 499 L448 504 L473 517 L481 523 L496 539 L503 550 L508 561 L507 545 L500 527 L489 511 L475 497 L463 488 L443 477 L424 470 L403 466 L402 465 L396 465 L388 463 L379 463 L378 462 L365 462 L364 461 L331 461 L330 462 L320 462 L319 463 L303 465 L289 470 L286 470 L281 473 L284 473 L298 468 L302 468 L313 465 L319 465 L320 464 L364 463 L365 464 L377 464 L378 465 L401 467 L433 475 L456 486 L472 497 L489 514 L498 527 L502 535 L506 551 L505 552 L501 544 L492 532 L482 522 L468 512 L450 503 L430 497 L425 497 L424 496 L419 496 L418 495 L410 495 L409 494 L366 494 L365 495 L353 495 L352 496 L331 497 L330 498 L309 500 L308 501 L303 501 L302 502 L281 506 L255 516 Z M848 512 L841 508 L826 503 L812 501 L811 500 L795 499 L794 498 L754 496 L753 495 L732 495 L731 494 L704 495 L703 496 L691 497 L675 501 L660 507 L642 518 L626 533 L619 542 L613 553 L612 552 L612 545 L615 533 L618 528 L618 526 L620 524 L620 522 L628 510 L644 495 L666 482 L697 470 L731 462 L749 461 L750 460 L770 460 L771 461 L781 461 L782 462 L787 462 L800 465 L799 463 L791 461 L780 460 L779 459 L769 459 L768 458 L749 458 L748 459 L738 459 L737 460 L724 461 L696 468 L693 470 L672 477 L658 484 L641 495 L629 506 L621 517 L615 529 L612 538 L610 555 L611 559 L612 559 L615 551 L626 535 L643 519 L664 507 L681 501 L694 499 L695 498 L715 497 L716 496 L736 496 L737 497 L785 499 L786 500 L805 501 L806 502 L823 504 L840 509 L847 513 Z M135 457 L144 456 L150 458 L149 459 L138 460 L127 466 L120 473 L116 479 L112 489 L111 497 L110 498 L110 515 L111 516 L112 526 L115 535 L123 550 L128 554 L122 546 L114 527 L113 519 L112 518 L112 498 L117 481 L121 475 L133 464 L144 460 L156 459 L166 465 L173 472 L180 482 L185 493 L188 505 L188 510 L189 511 L189 536 L185 552 L173 558 L159 571 L150 585 L145 603 L145 618 L149 633 L155 645 L167 658 L179 665 L186 667 L201 667 L207 664 L208 665 L209 684 L208 685 L207 705 L204 717 L194 737 L188 743 L181 746 L176 746 L171 744 L163 736 L158 726 L151 700 L150 690 L149 689 L148 679 L145 667 L145 662 L144 661 L144 656 L143 655 L143 650 L138 630 L138 626 L135 618 L135 614 L125 582 L113 552 L105 524 L104 497 L108 481 L112 473 L123 462 Z M505 455 L516 452 L531 446 L547 442 L553 442 L554 441 L577 442 L595 447 L611 454 L612 453 L594 445 L581 441 L571 440 L570 439 L555 439 L554 440 L547 440 L535 443 L520 449 L509 452 L505 454 Z M945 435 L946 436 L952 436 L960 438 L971 443 L985 455 L992 465 L999 484 L1000 496 L1001 497 L1000 525 L999 526 L998 537 L993 558 L982 591 L982 594 L980 598 L980 601 L978 605 L977 612 L972 628 L972 632 L970 637 L970 641 L966 657 L966 662 L965 663 L965 667 L964 668 L964 672 L958 698 L957 708 L955 713 L953 727 L946 754 L940 768 L933 778 L928 783 L915 790 L903 791 L902 790 L897 790 L888 786 L880 779 L879 749 L878 748 L878 726 L877 725 L877 696 L878 695 L879 696 L880 708 L887 729 L893 738 L898 743 L905 747 L916 747 L922 744 L927 739 L931 732 L935 720 L936 709 L938 703 L938 696 L940 689 L941 676 L942 675 L944 661 L949 641 L960 608 L961 602 L963 599 L965 591 L967 588 L967 585 L969 582 L973 568 L977 559 L977 556 L982 540 L982 536 L984 530 L984 523 L985 522 L984 503 L982 495 L977 485 L969 476 L965 473 L957 470 L941 470 L928 476 L919 484 L913 492 L906 507 L906 510 L905 511 L904 510 L904 481 L905 480 L905 473 L906 472 L907 462 L912 443 L920 438 L923 438 L927 436 Z M151 415 L163 415 L181 420 L190 427 L194 434 L198 445 L201 462 L202 463 L202 470 L203 471 L203 500 L202 501 L201 517 L200 518 L200 523 L199 524 L199 529 L198 530 L195 548 L192 550 L189 549 L192 538 L193 518 L192 517 L191 504 L186 488 L181 478 L176 471 L168 463 L153 455 L139 454 L128 457 L121 461 L112 470 L104 487 L103 497 L102 498 L102 512 L103 513 L103 522 L107 539 L117 567 L119 570 L121 578 L123 581 L132 609 L134 620 L136 624 L136 628 L141 648 L142 659 L144 665 L144 670 L146 676 L146 681 L147 682 L151 706 L153 710 L153 714 L161 735 L169 744 L175 747 L182 747 L190 743 L198 734 L198 732 L200 730 L204 721 L208 707 L209 693 L210 692 L211 693 L209 734 L208 735 L207 753 L205 761 L203 787 L196 794 L188 798 L179 799 L178 800 L177 799 L171 799 L160 794 L150 784 L142 766 L138 749 L135 717 L134 716 L132 697 L131 696 L129 678 L128 677 L125 658 L123 653 L119 632 L116 625 L111 605 L103 583 L103 580 L93 549 L90 531 L89 530 L89 525 L88 524 L88 516 L87 515 L88 483 L94 461 L100 449 L105 442 L122 426 L138 418 Z M754 408 L747 406 L729 406 L704 412 L698 415 L695 415 L674 422 L664 423 L663 424 L639 424 L626 421 L612 416 L607 413 L584 406 L579 406 L578 405 L554 405 L553 406 L547 406 L546 407 L538 408 L523 413 L503 422 L483 427 L459 427 L458 426 L447 425 L415 415 L412 413 L409 413 L398 409 L382 407 L381 406 L365 406 L354 409 L358 409 L359 408 L384 408 L385 409 L390 409 L406 413 L443 426 L457 428 L458 429 L473 430 L474 429 L483 429 L484 428 L489 428 L497 426 L529 413 L553 407 L577 407 L578 408 L584 408 L596 412 L599 412 L629 424 L638 425 L639 426 L663 426 L664 425 L674 424 L713 411 L726 408 L732 408 L733 407 Z M796 377 L789 373 L773 368 L768 368 L767 367 L744 367 L743 368 L738 368 L733 370 L721 372 L703 378 L687 382 L683 382 L678 384 L672 384 L671 385 L644 385 L643 384 L638 384 L630 382 L607 374 L587 369 L581 369 L580 368 L552 368 L551 369 L546 369 L529 373 L484 388 L462 390 L461 389 L452 389 L451 388 L433 385 L430 383 L427 383 L411 377 L408 377 L393 372 L383 371 L382 370 L364 369 L363 370 L355 370 L354 371 L344 372 L335 375 L325 381 L341 374 L349 373 L350 372 L355 372 L356 371 L376 371 L377 372 L384 372 L385 373 L394 374 L445 390 L450 390 L451 391 L478 391 L479 390 L484 390 L496 387 L529 375 L546 371 L552 371 L553 370 L578 370 L579 371 L592 372 L610 378 L613 378 L629 384 L637 386 L642 386 L643 387 L653 387 L654 388 L673 387 L674 386 L684 385 L692 382 L696 382 L703 379 L706 379 L713 376 L720 375 L724 373 L736 370 L741 370 L742 369 L750 369 L751 368 L772 369 Z M919 352 L920 351 L921 352 L920 353 Z M178 352 L179 351 L180 352 L179 353 Z M360 342 L372 341 L373 340 L389 340 L390 341 L398 341 L404 343 L409 343 L440 351 L455 352 L456 353 L466 353 L467 352 L476 352 L477 351 L491 349 L495 347 L505 345 L508 343 L511 343 L514 341 L523 339 L529 336 L554 330 L577 330 L578 331 L583 331 L612 340 L621 344 L637 348 L643 348 L644 349 L676 349 L677 348 L685 348 L686 347 L691 347 L692 346 L696 346 L712 342 L717 342 L718 341 L723 341 L724 340 L730 340 L731 339 L756 339 L757 340 L767 341 L756 338 L728 338 L727 339 L720 339 L709 342 L704 342 L699 344 L680 346 L679 347 L669 347 L668 348 L664 348 L663 347 L644 347 L643 346 L637 346 L620 342 L617 340 L614 340 L608 337 L585 330 L581 330 L575 328 L559 328 L558 329 L551 329 L550 330 L541 331 L499 345 L482 349 L469 350 L468 351 L467 350 L466 351 L446 350 L445 349 L440 349 L439 348 L434 348 L429 346 L420 345 L411 342 L407 342 L401 340 L393 340 L392 339 L374 339 L373 340 L366 340 Z M832 310 L869 326 L894 343 L904 353 L911 363 L915 376 L916 393 L917 394 L915 423 L905 460 L904 470 L903 471 L903 479 L902 480 L902 515 L903 516 L903 524 L907 540 L908 554 L909 555 L908 574 L902 598 L881 647 L877 663 L876 675 L875 676 L874 715 L875 716 L875 742 L876 743 L876 760 L877 761 L877 809 L876 810 L876 821 L875 822 L874 838 L873 839 L869 866 L867 871 L867 875 L861 899 L849 935 L847 937 L845 945 L834 967 L834 969 L817 1001 L798 1032 L758 1088 L735 1116 L703 1149 L682 1166 L665 1177 L640 1189 L610 1198 L605 1198 L604 1199 L587 1201 L586 1202 L578 1202 L577 1203 L546 1204 L545 1205 L544 1204 L543 1205 L539 1205 L538 1204 L503 1203 L502 1202 L495 1202 L494 1201 L487 1201 L486 1200 L469 1198 L449 1193 L445 1191 L442 1191 L421 1183 L402 1173 L376 1154 L340 1119 L315 1089 L283 1044 L260 1008 L243 976 L243 974 L236 961 L236 959 L234 957 L226 937 L225 932 L223 929 L220 917 L217 910 L207 867 L205 848 L204 847 L204 832 L203 831 L205 785 L206 784 L206 775 L207 774 L207 766 L208 765 L208 757 L209 756 L209 748 L210 747 L210 739 L211 738 L211 728 L212 727 L212 714 L213 713 L213 685 L212 684 L212 675 L211 674 L209 657 L202 634 L198 613 L197 612 L197 608 L196 607 L195 590 L194 589 L194 571 L195 570 L196 552 L197 551 L199 535 L202 524 L203 512 L204 511 L204 503 L205 502 L205 471 L204 470 L204 463 L201 452 L201 447 L198 438 L189 422 L185 405 L185 377 L189 361 L194 353 L205 342 L222 330 L244 319 L246 319 L266 310 L275 308 L278 306 L294 302 L298 300 L305 299 L309 297 L326 293 L331 293 L341 290 L365 287 L366 286 L372 286 L373 285 L379 285 L380 284 L405 282 L406 281 L416 281 L417 280 L428 280 L429 279 L461 278 L462 277 L482 277 L483 276 L531 276 L532 275 L539 275 L540 276 L600 276 L601 277 L622 277 L623 278 L653 279 L654 280 L666 280 L667 281 L677 281 L678 282 L686 282 L687 283 L694 283 L695 284 L703 284 L704 285 L718 286 L719 287 L725 287 L726 288 L732 288 L733 289 L739 289 L740 290 L763 293 L779 297 L784 297 L819 306 L829 310 Z M179 357 L186 345 L199 332 L208 325 L226 314 L266 296 L293 287 L324 279 L328 279 L344 275 L349 275 L355 273 L360 273 L361 272 L380 270 L381 269 L414 266 L415 265 L425 265 L426 264 L451 263 L452 262 L489 261 L490 260 L591 260 L592 261 L611 261 L612 262 L652 264 L653 265 L662 265 L663 266 L671 266 L672 267 L680 267 L681 268 L697 269 L704 271 L711 271 L712 272 L730 274 L737 276 L743 276 L744 277 L759 279 L764 281 L774 282 L802 289 L806 291 L813 292 L820 295 L823 295 L855 307 L879 319 L893 328 L902 335 L913 346 L920 357 L920 362 L916 369 L912 359 L907 352 L891 337 L871 324 L838 309 L809 300 L793 296 L779 294 L774 292 L759 290 L758 289 L752 289 L751 288 L719 284 L718 283 L712 283 L711 282 L678 279 L677 278 L640 276 L639 275 L624 275 L623 274 L565 273 L564 272 L483 273 L482 274 L460 274 L459 275 L429 276 L428 277 L417 277 L416 278 L407 278 L406 279 L397 279 L396 280 L389 280 L388 281 L372 282 L371 283 L365 283 L364 284 L347 286 L346 287 L317 292 L301 297 L294 298 L290 300 L287 300 L263 308 L227 324 L212 333 L196 346 L186 360 L185 365 L183 368 L180 364 Z M178 266 L179 265 L179 258 L181 252 L194 239 L212 225 L244 205 L246 205 L248 203 L271 192 L296 182 L301 181 L304 179 L307 179 L329 171 L332 171 L347 166 L351 166 L359 163 L363 163 L372 160 L376 160 L392 156 L397 156 L403 154 L421 152 L422 151 L429 151 L430 150 L445 149 L446 148 L453 148 L454 147 L462 147 L463 146 L471 146 L472 145 L511 143 L512 142 L576 141 L577 142 L605 142 L606 143 L634 144 L635 145 L664 147 L665 148 L680 149 L681 150 L687 150 L688 151 L694 151 L695 152 L701 152 L702 153 L708 153 L720 156 L725 156 L745 161 L754 162 L766 166 L777 168 L784 171 L787 171 L811 179 L848 196 L865 206 L886 221 L899 232 L919 252 L920 255 L920 259 L921 260 L921 287 L922 288 L922 300 L921 301 L922 305 L921 308 L921 348 L919 352 L916 347 L897 329 L882 319 L857 306 L819 292 L763 278 L758 278 L747 275 L723 272 L716 270 L703 269 L702 268 L670 265 L669 264 L660 264 L659 263 L638 262 L637 261 L609 260 L608 259 L587 259 L586 258 L495 258 L494 259 L472 259 L471 260 L429 262 L428 263 L419 263 L418 264 L408 264 L407 265 L382 267 L381 268 L361 270 L355 272 L350 272 L349 273 L330 276 L294 285 L254 299 L216 318 L204 326 L192 336 L184 345 L180 352 L178 348 Z M536 138 L535 139 L497 140 L496 141 L485 141 L484 142 L474 142 L473 143 L464 143 L463 144 L438 146 L437 147 L423 148 L410 151 L398 152 L382 156 L377 156 L368 159 L364 159 L351 163 L347 163 L326 170 L316 172 L304 177 L301 177 L266 191 L238 205 L223 214 L199 231 L179 249 L176 257 L176 263 L175 264 L175 350 L176 351 L176 361 L179 368 L183 372 L182 376 L182 405 L185 418 L184 419 L181 417 L182 415 L180 417 L173 414 L163 413 L162 412 L146 413 L135 416 L123 422 L111 431 L99 445 L90 463 L85 483 L84 514 L85 515 L85 523 L86 524 L87 535 L91 549 L91 553 L106 599 L106 602 L115 629 L121 653 L124 673 L125 674 L125 679 L127 685 L127 690 L128 691 L128 696 L129 697 L130 709 L131 710 L135 748 L136 749 L136 754 L140 770 L146 783 L151 790 L159 797 L170 802 L185 802 L195 798 L201 793 L202 794 L201 796 L201 810 L200 811 L201 848 L202 849 L203 862 L204 863 L207 883 L210 892 L210 896 L213 903 L213 907 L217 917 L217 920 L232 959 L252 1000 L268 1027 L287 1055 L319 1099 L346 1130 L376 1158 L395 1172 L408 1180 L420 1186 L448 1196 L452 1196 L456 1198 L474 1201 L475 1202 L494 1204 L495 1205 L502 1205 L503 1206 L513 1206 L514 1207 L565 1207 L566 1206 L578 1206 L579 1205 L605 1202 L635 1194 L666 1180 L691 1163 L703 1153 L731 1125 L754 1098 L791 1048 L792 1045 L813 1014 L815 1009 L824 995 L830 982 L832 980 L832 978 L836 972 L836 970 L846 950 L853 930 L855 927 L862 905 L862 902 L864 899 L871 871 L874 851 L875 850 L876 838 L877 837 L878 820 L879 819 L879 807 L880 806 L880 785 L881 784 L886 788 L894 792 L902 794 L911 794 L923 790 L929 786 L940 774 L949 754 L954 737 L954 733 L955 732 L960 703 L962 698 L962 693 L963 692 L963 688 L969 662 L972 642 L976 628 L976 624 L999 546 L999 542 L1002 531 L1002 524 L1003 523 L1004 501 L1003 500 L1002 484 L998 471 L989 455 L979 445 L963 436 L953 433 L934 432 L933 433 L923 434 L916 437 L915 436 L917 423 L918 422 L918 416 L919 415 L919 384 L918 383 L917 372 L922 365 L923 353 L924 352 L924 262 L923 261 L922 252 L916 244 L887 218 L872 207 L854 196 L821 180 L790 169 L787 169 L780 166 L777 166 L773 164 L753 159 L749 159 L744 157 L740 157 L735 155 L730 155 L719 152 L708 151 L707 150 L679 147 L671 145 L644 143 L643 142 L604 140 L603 139 L582 139 L581 138 Z" fill="#eef3f4" fill-rule="evenodd"/>
</svg>
