<svg xmlns="http://www.w3.org/2000/svg" width="1086" height="1448" viewBox="0 0 1086 1448">
  <title>0142</title>
  <path d="M716 961 L717 960 L718 961 L717 962 Z M717 960 L718 959 L719 960 L718 961 Z M718 959 L719 958 L720 959 L719 960 Z M719 958 L720 957 L721 958 L720 959 Z M720 957 L721 956 L722 957 L721 958 Z M721 956 L722 955 L723 956 L722 957 Z M350 955 L351 954 L367 970 L391 989 L410 1001 L430 1011 L450 1019 L475 1026 L495 1029 L496 1030 L510 1031 L511 1032 L521 1032 L522 1033 L562 1033 L563 1032 L574 1032 L575 1031 L581 1031 L582 1030 L588 1030 L589 1029 L603 1027 L627 1020 L648 1010 L650 1010 L671 998 L688 986 L716 961 L717 963 L706 976 L679 1001 L657 1016 L631 1029 L610 1036 L602 1037 L592 1040 L587 1040 L586 1041 L571 1042 L570 1043 L558 1043 L557 1044 L527 1044 L526 1043 L511 1043 L510 1042 L494 1041 L493 1040 L482 1039 L466 1035 L435 1024 L415 1014 L395 1001 L379 988 L364 973 Z M349 954 L350 953 L351 954 L350 955 Z M348 953 L349 952 L350 953 L349 954 Z M742 939 L739 951 L732 965 L732 967 L717 992 L698 1016 L675 1038 L648 1057 L621 1070 L595 1078 L574 1081 L573 1082 L564 1082 L563 1083 L521 1083 L520 1082 L510 1082 L509 1081 L503 1081 L502 1080 L496 1080 L495 1079 L481 1077 L450 1067 L418 1051 L403 1041 L387 1028 L371 1012 L355 991 L343 968 L341 966 L341 964 L336 954 L333 943 L334 940 L354 967 L376 990 L405 1012 L433 1027 L460 1037 L484 1043 L503 1045 L504 1046 L512 1046 L513 1047 L541 1047 L545 1048 L546 1047 L577 1046 L578 1045 L585 1045 L591 1043 L606 1041 L631 1033 L654 1022 L673 1010 L697 990 L716 970 L741 938 Z M741 938 L742 937 L743 938 L742 939 Z M331 938 L332 937 L333 938 L332 939 Z M307 970 L307 986 L308 986 L308 971 L311 961 L319 948 L331 938 L332 939 L332 945 L337 961 L352 989 L373 1016 L397 1038 L424 1056 L454 1070 L472 1076 L488 1079 L493 1081 L513 1083 L514 1084 L524 1084 L525 1085 L569 1084 L570 1083 L584 1082 L585 1081 L602 1078 L628 1069 L648 1059 L665 1048 L678 1038 L701 1015 L716 996 L729 976 L737 960 L741 950 L743 939 L745 936 L755 945 L764 960 L767 970 L767 986 L768 983 L767 964 L762 951 L755 941 L739 928 L729 918 L731 922 L741 933 L704 970 L678 991 L659 1003 L632 1016 L615 1022 L599 1026 L582 1028 L575 1030 L565 1030 L564 1031 L519 1031 L518 1030 L494 1028 L493 1027 L488 1027 L462 1021 L444 1015 L427 1007 L425 1007 L398 992 L384 982 L366 967 L337 938 L335 935 L344 925 L348 918 L339 928 L320 943 L314 951 L310 959 Z M432 871 L433 870 L434 871 L433 872 Z M719 850 L719 852 L724 861 L738 879 L748 889 L772 907 L791 917 L798 919 L774 907 L751 890 L733 871 L724 859 Z M370 842 L369 842 L369 844 L353 869 L331 892 L312 906 L290 918 L288 918 L288 919 L309 909 L334 891 L350 875 L357 866 L368 848 Z M847 797 L848 796 L849 797 L848 798 Z M846 795 L847 794 L848 796 L847 797 Z M845 794 L846 793 L847 794 L846 795 Z M233 784 L234 783 L235 784 L234 785 Z M234 783 L235 782 L236 783 L235 784 Z M433 778 L434 777 L435 778 L434 779 Z M903 764 L904 763 L905 764 L904 765 Z M744 848 L737 834 L723 812 L712 799 L700 789 L687 782 L672 778 L657 778 L656 779 L652 779 L653 780 L651 781 L638 775 L631 768 L626 761 L627 764 L634 773 L632 774 L634 774 L653 783 L669 794 L684 809 L689 816 L694 826 L699 843 L699 860 L697 867 L692 876 L683 883 L680 884 L670 884 L664 882 L658 878 L654 870 L647 863 L640 859 L627 856 L615 857 L608 859 L592 867 L591 869 L604 862 L614 859 L633 859 L646 864 L654 872 L656 876 L654 877 L650 875 L640 874 L639 873 L625 874 L612 877 L581 888 L564 891 L563 892 L529 893 L528 892 L522 892 L521 891 L513 890 L494 883 L479 876 L466 872 L462 872 L456 870 L440 870 L439 871 L434 871 L433 870 L441 863 L447 860 L457 857 L464 857 L465 856 L483 858 L492 861 L506 868 L504 866 L485 857 L477 855 L465 854 L464 855 L452 856 L441 861 L429 873 L418 879 L405 880 L399 878 L390 870 L386 862 L386 858 L385 857 L386 837 L388 829 L393 818 L403 804 L417 791 L438 779 L448 776 L458 771 L450 773 L447 775 L444 775 L438 778 L427 777 L426 776 L416 776 L415 777 L405 778 L394 782 L384 788 L370 801 L362 811 L352 826 L341 847 L342 848 L349 834 L359 818 L370 804 L379 795 L388 788 L399 782 L412 778 L426 777 L434 779 L425 783 L414 790 L398 805 L391 815 L383 834 L383 839 L382 840 L382 859 L384 866 L388 873 L394 879 L404 883 L415 883 L422 881 L424 879 L433 875 L451 873 L452 874 L459 874 L460 875 L468 876 L512 893 L526 895 L527 896 L537 896 L538 897 L559 896 L560 895 L570 894 L586 889 L589 889 L604 883 L607 883 L610 881 L622 878 L627 878 L628 877 L645 877 L656 880 L664 885 L673 888 L684 886 L694 879 L700 868 L703 855 L703 847 L702 846 L701 836 L693 817 L685 806 L675 796 L652 781 L658 779 L668 779 L669 780 L679 781 L691 786 L703 794 L719 810 L733 830 L742 847 Z M902 760 L903 759 L904 761 L903 762 Z M977 757 L967 789 L960 802 L949 813 L939 816 L929 813 L919 803 L913 790 L913 793 L917 802 L925 812 L931 816 L942 818 L950 815 L959 807 L963 801 L970 786 L977 761 Z M108 752 L113 777 L117 789 L125 804 L134 813 L141 816 L150 816 L156 813 L163 806 L167 800 L171 789 L171 786 L170 786 L165 801 L157 810 L149 814 L142 814 L137 812 L128 804 L120 791 L114 775 L110 755 Z M640 731 L650 709 L655 702 L667 690 L681 680 L696 673 L708 670 L724 669 L725 670 L738 671 L750 675 L766 684 L784 699 L795 711 L818 743 L841 782 L846 793 L845 794 L835 782 L818 766 L802 754 L781 741 L760 731 L736 724 L729 724 L728 723 L721 723 L720 722 L693 723 L692 724 L687 724 L674 727 L659 732 L643 740 L641 740 L639 742 L638 739 Z M446 734 L446 738 L447 739 L446 741 L440 737 L421 728 L400 722 L388 721 L387 720 L364 719 L363 720 L354 720 L353 721 L341 722 L317 729 L287 743 L263 758 L248 770 L236 783 L235 782 L241 771 L264 736 L286 709 L301 694 L316 682 L335 672 L348 668 L353 668 L354 667 L374 667 L375 668 L379 668 L394 673 L411 683 L432 704 L442 722 Z M646 713 L639 730 L636 744 L679 729 L684 729 L690 727 L697 727 L698 726 L725 726 L726 727 L742 729 L758 734 L783 746 L809 763 L820 772 L847 800 L857 814 L864 827 L862 820 L857 811 L852 798 L838 770 L810 724 L795 705 L780 690 L759 675 L742 668 L734 667 L733 666 L725 666 L724 665 L708 666 L692 670 L680 676 L669 684 L658 695 Z M443 721 L436 707 L426 692 L415 681 L396 669 L374 663 L354 663 L334 668 L318 676 L304 686 L277 713 L260 735 L242 763 L221 803 L222 803 L232 789 L244 777 L264 761 L294 743 L319 732 L331 728 L344 725 L349 725 L350 724 L357 724 L358 723 L383 723 L384 724 L398 725 L414 729 L433 736 L448 743 L448 738 Z M509 656 L510 655 L511 656 L510 657 Z M578 653 L579 652 L580 654 L579 655 Z M833 652 L834 651 L835 653 L834 654 Z M643 633 L641 633 L628 640 L612 654 L601 671 L596 689 L597 707 L602 721 L607 729 L615 738 L629 746 L631 746 L623 742 L612 732 L604 720 L599 703 L599 686 L603 672 L613 656 L625 644 L635 637 Z M446 632 L459 640 L475 656 L483 670 L487 686 L486 705 L480 721 L473 731 L465 739 L454 746 L456 746 L465 741 L479 727 L485 716 L489 701 L489 683 L485 669 L475 653 L461 640 L452 634 Z M99 625 L100 624 L101 625 L100 626 Z M916 607 L917 606 L918 607 L917 608 Z M938 599 L949 599 L957 601 L971 609 L978 616 L983 623 L988 634 L991 647 L991 664 L990 665 L987 689 L985 696 L984 713 L983 714 L983 725 L982 726 L982 760 L983 761 L983 770 L984 771 L985 782 L992 810 L992 814 L995 823 L995 828 L996 829 L998 845 L999 846 L1000 881 L999 882 L999 889 L996 899 L989 912 L978 922 L970 926 L962 927 L961 928 L946 928 L936 925 L927 920 L918 911 L919 891 L920 890 L920 866 L921 865 L926 877 L936 890 L947 897 L955 899 L955 898 L952 898 L945 895 L934 886 L928 878 L920 861 L919 843 L918 842 L916 820 L915 819 L915 814 L914 813 L914 808 L913 807 L910 788 L906 775 L906 764 L904 760 L906 730 L908 723 L908 708 L905 701 L900 698 L905 704 L907 712 L906 722 L905 723 L905 730 L904 731 L904 747 L903 748 L903 758 L902 759 L897 742 L894 720 L893 719 L893 683 L894 682 L896 645 L897 644 L897 633 L898 632 L898 621 L899 620 L900 621 L900 629 L903 639 L916 649 L926 660 L931 670 L934 681 L934 701 L933 702 L931 716 L928 723 L927 730 L916 754 L915 765 L917 771 L920 775 L925 778 L932 778 L940 774 L949 765 L958 749 L960 740 L963 733 L962 731 L963 729 L962 729 L960 739 L956 750 L949 762 L943 769 L935 774 L926 775 L919 768 L919 763 L918 762 L919 761 L920 749 L923 740 L931 725 L937 705 L938 682 L935 670 L930 660 L924 652 L916 645 L925 635 L936 629 L948 629 L955 632 L962 639 L965 646 L966 645 L962 637 L956 631 L949 627 L945 627 L944 626 L939 626 L929 629 L921 635 L913 644 L906 638 L907 627 L912 615 L923 605 Z M155 596 L169 601 L176 607 L180 618 L181 632 L176 636 L169 629 L160 624 L146 623 L134 629 L129 634 L124 643 L124 645 L129 636 L135 630 L146 625 L153 625 L160 627 L166 630 L174 637 L165 643 L158 650 L154 656 L149 668 L148 677 L147 678 L148 679 L147 680 L147 691 L148 692 L147 694 L149 700 L149 705 L151 709 L152 715 L156 723 L159 735 L161 738 L165 755 L165 764 L161 771 L159 772 L152 772 L145 768 L138 761 L130 746 L126 731 L125 731 L125 734 L130 749 L135 759 L144 770 L152 775 L159 775 L164 772 L168 764 L167 751 L160 734 L160 731 L155 718 L153 705 L152 704 L152 698 L151 697 L151 674 L153 666 L159 654 L168 645 L181 637 L184 634 L187 625 L187 620 L189 613 L190 614 L190 632 L191 633 L192 660 L193 661 L193 689 L194 690 L193 693 L193 710 L192 711 L192 718 L191 719 L191 724 L190 725 L187 744 L184 753 L182 750 L182 739 L181 738 L181 728 L180 727 L180 703 L183 691 L187 685 L186 684 L181 692 L178 704 L178 726 L179 727 L182 762 L178 774 L178 778 L171 805 L171 810 L170 811 L167 833 L166 834 L164 860 L162 866 L154 882 L143 893 L135 897 L131 897 L130 898 L122 897 L119 895 L119 896 L125 898 L135 898 L142 895 L148 891 L155 883 L163 866 L164 867 L163 870 L163 881 L164 882 L165 915 L158 921 L148 926 L140 928 L126 928 L111 923 L98 911 L91 898 L88 887 L88 881 L87 880 L87 861 L88 860 L89 845 L90 844 L93 824 L96 815 L97 806 L102 786 L102 780 L104 773 L104 764 L105 763 L104 721 L103 720 L103 710 L102 709 L102 702 L101 701 L101 695 L99 688 L99 682 L98 681 L97 670 L95 664 L95 650 L96 649 L96 644 L99 632 L104 622 L115 609 L123 603 L141 596 Z M917 605 L928 589 L938 579 L944 575 L956 571 L967 573 L978 582 L984 593 L989 612 L990 631 L989 632 L985 623 L979 614 L968 604 L958 599 L951 597 L940 597 L930 600 L918 607 Z M173 600 L172 602 L170 600 L168 600 L161 596 L153 594 L143 594 L129 598 L119 604 L110 612 L105 618 L101 625 L100 624 L100 616 L101 615 L103 600 L110 584 L120 573 L128 569 L137 568 L144 570 L151 574 L163 585 Z M834 645 L834 651 L833 652 L826 636 L815 618 L800 601 L783 588 L770 581 L749 574 L737 573 L736 572 L713 572 L712 573 L705 573 L704 574 L690 576 L676 581 L673 581 L670 583 L660 586 L653 590 L651 590 L638 597 L624 606 L610 617 L595 632 L580 653 L579 652 L581 642 L586 627 L595 608 L608 589 L621 576 L641 562 L669 549 L694 542 L705 541 L706 540 L717 540 L718 539 L737 540 L761 546 L776 553 L792 564 L806 578 L817 594 L827 616 Z M254 650 L255 649 L258 629 L265 608 L272 594 L280 582 L294 567 L312 554 L335 544 L352 541 L353 540 L360 540 L361 539 L381 539 L382 540 L391 540 L392 541 L402 542 L425 549 L449 561 L470 577 L486 595 L494 608 L504 630 L510 654 L509 655 L503 645 L492 630 L476 614 L451 596 L436 588 L434 588 L432 586 L411 578 L390 573 L369 572 L368 571 L364 572 L351 572 L350 573 L336 575 L319 581 L300 592 L288 602 L277 614 L266 630 L255 653 Z M589 614 L580 639 L576 655 L576 660 L572 669 L572 673 L578 659 L586 646 L606 623 L619 612 L635 601 L658 589 L686 579 L694 578 L699 576 L704 576 L705 575 L711 575 L712 574 L737 574 L738 575 L745 575 L766 581 L780 588 L793 597 L808 612 L815 621 L824 636 L836 666 L836 673 L837 674 L837 709 L835 714 L819 692 L805 678 L782 661 L764 652 L742 646 L717 645 L693 651 L683 656 L678 660 L689 654 L703 649 L712 648 L713 647 L722 647 L723 646 L745 648 L765 654 L786 665 L802 677 L823 699 L835 716 L841 727 L844 730 L837 718 L838 700 L839 699 L837 654 L836 653 L836 646 L835 645 L835 639 L834 638 L832 624 L824 601 L813 582 L800 567 L785 555 L766 545 L755 541 L742 538 L720 536 L719 537 L707 537 L706 538 L694 539 L664 548 L642 558 L620 573 L602 592 Z M519 681 L513 663 L513 658 L507 633 L501 616 L494 602 L486 590 L469 572 L448 557 L430 548 L413 542 L396 538 L380 537 L379 536 L354 537 L329 543 L305 555 L292 565 L283 574 L273 587 L264 604 L256 629 L254 644 L253 645 L253 651 L252 652 L252 658 L251 659 L251 667 L250 668 L248 708 L244 716 L263 692 L282 674 L303 660 L318 653 L343 646 L371 645 L372 646 L378 646 L390 649 L400 653 L412 660 L408 656 L396 650 L374 644 L355 643 L354 644 L348 644 L347 645 L342 645 L329 648 L308 656 L288 668 L273 680 L263 690 L251 705 L250 704 L250 688 L251 687 L252 665 L262 643 L262 641 L264 639 L268 630 L280 613 L294 599 L311 587 L326 580 L349 574 L375 573 L376 574 L384 574 L385 575 L396 576 L408 579 L427 586 L452 599 L471 612 L490 630 L505 651 L515 672 L518 684 Z M927 536 L938 531 L946 529 L961 529 L975 534 L982 539 L987 544 L994 554 L1000 571 L1000 577 L1001 578 L1001 603 L999 610 L999 618 L997 625 L997 631 L993 648 L992 647 L992 633 L991 632 L991 614 L985 590 L980 581 L972 573 L964 569 L957 568 L956 569 L948 570 L940 574 L930 582 L923 590 L915 602 L907 618 L906 623 L904 626 L904 629 L903 630 L902 629 L901 607 L900 606 L901 562 L909 551 L916 544 Z M168 532 L182 546 L187 553 L188 598 L187 599 L187 609 L186 610 L185 621 L184 622 L183 621 L181 610 L174 595 L168 586 L159 576 L151 570 L141 566 L128 566 L117 572 L108 582 L104 590 L100 603 L99 615 L98 616 L98 624 L97 625 L97 633 L93 647 L92 646 L92 640 L91 639 L90 627 L89 626 L86 601 L85 600 L85 571 L88 558 L94 545 L99 538 L106 531 L123 522 L127 522 L128 521 L144 521 L154 524 Z M380 479 L380 480 L384 480 L385 479 L395 479 L396 478 L424 478 L425 479 L433 479 L434 480 L450 482 L476 490 L520 510 L532 514 L545 515 L546 516 L564 514 L576 510 L618 491 L649 482 L659 481 L660 480 L668 480 L669 479 L679 479 L680 478 L691 478 L692 479 L705 479 L709 480 L708 479 L693 478 L692 477 L674 477 L673 478 L664 478 L663 479 L647 481 L614 491 L586 504 L565 512 L555 513 L554 514 L541 514 L521 509 L485 492 L452 481 L437 479 L436 478 L429 478 L428 477 L393 477 L392 478 Z M490 464 L498 462 L510 457 L523 454 L528 454 L529 453 L536 453 L537 452 L559 452 L560 453 L576 454 L593 458 L608 464 L609 463 L600 459 L583 454 L579 454 L573 452 L566 452 L565 451 L549 451 L547 450 L546 451 L532 451 L531 452 L521 453 L503 458 Z M517 434 L532 432 L533 431 L543 431 L544 430 L566 431 L567 432 L582 434 L573 431 L561 430 L560 429 L539 429 L538 430 L526 431 Z M457 366 L484 353 L511 345 L530 343 L531 342 L561 342 L562 343 L570 343 L571 344 L582 345 L594 349 L597 349 L613 355 L636 367 L627 361 L613 354 L597 348 L577 343 L565 342 L564 341 L553 341 L552 340 L529 341 L528 342 L521 342 L520 343 L515 343 L502 346 L479 354 Z M352 269 L373 262 L380 261 L387 258 L395 257 L414 252 L419 252 L420 251 L425 251 L438 248 L444 248 L445 247 L453 247 L454 246 L462 246 L463 245 L471 245 L472 244 L484 244 L485 243 L525 242 L526 241 L580 241 L581 242 L619 243 L620 244 L639 245 L640 246 L647 246 L648 247 L655 247 L662 249 L674 250 L675 251 L679 251 L680 252 L684 252 L685 253 L689 253 L690 254 L694 254 L695 255 L716 259 L745 268 L753 272 L758 273 L765 277 L767 277 L776 282 L778 282 L801 295 L825 312 L845 331 L860 351 L869 368 L878 393 L879 400 L884 416 L887 436 L889 442 L889 447 L890 448 L892 470 L893 471 L893 480 L894 481 L894 492 L895 493 L896 526 L897 527 L897 598 L896 599 L896 621 L895 622 L894 656 L893 657 L894 658 L893 659 L893 669 L892 670 L890 710 L891 711 L891 721 L892 722 L894 739 L908 795 L908 800 L910 805 L910 810 L911 811 L911 816 L914 829 L914 836 L915 837 L916 860 L917 861 L917 883 L916 884 L916 896 L915 897 L914 914 L913 915 L912 926 L910 932 L910 937 L899 975 L882 1012 L866 1037 L852 1055 L836 1072 L815 1091 L783 1114 L752 1131 L750 1131 L731 1140 L700 1150 L692 1151 L683 1154 L664 1156 L663 1157 L655 1157 L654 1158 L602 1158 L601 1157 L581 1157 L580 1156 L565 1156 L564 1155 L512 1155 L511 1156 L475 1157 L474 1158 L472 1157 L471 1158 L446 1158 L445 1157 L433 1157 L432 1156 L418 1155 L417 1154 L413 1154 L387 1148 L350 1135 L319 1120 L281 1096 L264 1083 L250 1071 L232 1053 L217 1035 L199 1008 L188 986 L178 959 L172 935 L171 924 L170 923 L170 917 L168 909 L168 898 L167 897 L167 857 L168 856 L169 838 L170 837 L172 819 L175 808 L175 803 L189 747 L189 743 L193 727 L193 722 L194 721 L194 714 L195 713 L195 701 L196 700 L196 679 L195 678 L196 677 L195 676 L195 653 L194 652 L192 588 L191 587 L191 532 L192 531 L192 510 L193 509 L195 477 L196 476 L197 462 L198 461 L198 456 L199 455 L199 450 L200 449 L203 430 L207 414 L209 410 L210 403 L220 376 L229 358 L246 335 L270 313 L295 296 L323 281 L325 281 L332 277 Z M347 267 L309 284 L290 295 L271 308 L254 322 L244 332 L235 343 L225 358 L211 389 L199 431 L196 451 L194 457 L192 481 L191 482 L191 489 L190 490 L187 545 L186 546 L173 532 L165 526 L153 520 L135 517 L134 518 L126 518 L119 520 L106 527 L96 536 L88 549 L82 569 L81 594 L82 595 L82 603 L83 604 L83 610 L85 617 L85 624 L86 625 L87 636 L89 642 L90 655 L91 656 L91 661 L92 662 L92 667 L93 668 L93 673 L96 686 L96 692 L97 693 L97 699 L99 707 L99 715 L100 716 L100 727 L101 728 L101 766 L100 767 L100 775 L99 776 L99 782 L97 788 L94 808 L92 813 L92 817 L90 822 L90 826 L86 842 L85 856 L84 857 L84 884 L88 900 L95 913 L105 923 L114 928 L124 931 L142 931 L160 924 L166 919 L167 920 L168 933 L169 934 L173 955 L180 976 L189 995 L189 997 L191 999 L199 1015 L209 1030 L232 1058 L261 1085 L294 1109 L335 1132 L337 1132 L346 1137 L366 1144 L369 1146 L400 1155 L421 1158 L422 1159 L440 1160 L441 1161 L483 1161 L484 1160 L519 1159 L520 1158 L554 1158 L555 1159 L574 1159 L575 1160 L592 1160 L593 1161 L610 1161 L611 1162 L648 1162 L649 1161 L658 1161 L659 1160 L667 1160 L668 1159 L680 1158 L706 1152 L730 1144 L745 1138 L758 1131 L760 1131 L762 1129 L783 1118 L808 1101 L823 1089 L843 1070 L869 1039 L886 1012 L902 977 L911 948 L914 931 L915 930 L916 919 L918 916 L924 922 L937 929 L944 931 L963 931 L971 929 L986 920 L993 912 L998 903 L1003 885 L1004 863 L1003 862 L1003 851 L1002 850 L1000 831 L997 821 L994 803 L991 794 L988 773 L987 772 L986 753 L985 752 L985 734 L986 733 L986 719 L987 718 L987 708 L988 707 L990 686 L991 685 L997 644 L998 643 L1002 616 L1003 615 L1004 596 L1005 595 L1004 574 L1000 559 L993 546 L985 537 L972 529 L962 526 L945 526 L934 529 L918 538 L908 547 L902 555 L901 554 L899 497 L898 496 L898 484 L897 483 L897 474 L896 473 L896 465 L895 464 L893 444 L892 443 L891 432 L890 431 L888 417 L883 397 L871 364 L856 339 L836 317 L806 294 L791 285 L767 273 L732 260 L688 249 L683 249 L682 248 L671 247 L664 245 L658 245 L657 244 L651 244 L650 243 L644 243 L643 242 L613 240 L612 239 L597 239 L596 238 L513 238 L512 239 L494 239 L493 240 L479 240 L478 241 L458 242 L457 243 L442 244 L441 245 L428 246 L427 247 L422 247 L421 248 L401 251 L385 256 L378 257 L374 259 L371 259 Z" fill="#eef3f4" fill-rule="evenodd"/>
</svg>
