<svg xmlns="http://www.w3.org/2000/svg" width="1086" height="1448" viewBox="0 0 1086 1448">
  <title>0143</title>
  <path d="M433 878 L434 880 L442 885 L458 890 L479 893 L480 894 L504 896 L505 897 L517 897 L518 898 L575 899 L576 898 L608 897 L609 896 L619 896 L620 895 L632 894 L648 889 L647 888 L644 890 L636 892 L631 892 L630 893 L614 894 L613 895 L601 895 L600 896 L598 895 L597 896 L577 896 L576 897 L529 897 L528 896 L503 895 L502 894 L470 891 L469 890 L448 886 L437 881 Z M348 878 L349 877 L350 878 L349 879 Z M759 871 L760 874 L758 877 L724 979 L724 982 L722 985 L721 991 L715 1006 L715 1009 L712 1015 L708 1027 L708 1030 L706 1033 L705 1039 L703 1042 L690 1081 L690 1084 L687 1090 L687 1093 L685 1096 L683 1105 L681 1108 L675 1126 L675 1129 L667 1151 L667 1154 L663 1163 L663 1166 L652 1198 L649 1211 L643 1227 L641 1237 L626 1282 L623 1295 L621 1298 L618 1310 L596 1376 L591 1387 L585 1393 L579 1396 L563 1398 L550 1395 L545 1392 L536 1381 L536 1379 L533 1374 L533 1372 L530 1367 L518 1337 L517 1332 L511 1319 L507 1306 L503 1298 L502 1293 L495 1277 L493 1269 L489 1261 L488 1256 L486 1253 L485 1248 L483 1245 L482 1240 L468 1205 L466 1197 L458 1178 L456 1170 L454 1167 L454 1164 L446 1145 L440 1126 L436 1118 L433 1107 L431 1104 L423 1079 L415 1060 L407 1035 L402 1024 L400 1016 L395 1005 L393 997 L379 962 L376 951 L372 943 L370 935 L368 932 L362 913 L355 897 L349 879 L350 878 L367 895 L383 906 L403 915 L427 922 L431 922 L446 926 L463 928 L464 929 L471 929 L472 930 L487 931 L488 932 L497 932 L498 933 L528 934 L529 935 L582 935 L583 934 L602 934 L603 933 L616 933 L617 932 L644 930 L645 929 L657 928 L658 927 L672 925 L691 920 L694 918 L702 916 L718 908 L731 899 Z M759 871 L760 870 L761 871 L760 872 Z M480 849 L488 851 L493 851 L494 852 L516 854 L517 855 L527 855 L528 856 L576 856 L577 855 L587 855 L588 854 L599 853 L572 854 L571 855 L534 855 L533 854 L518 854 L517 853 L501 852 L494 850 L486 850 L482 848 Z M540 804 L542 801 L548 801 L549 802 L574 802 L575 801 L581 801 L583 803 L582 822 L580 824 L568 824 L567 825 L545 825 L542 824 L540 822 Z M585 802 L590 799 L593 800 L611 799 L613 803 L612 820 L608 822 L586 824 L584 822 Z M497 800 L499 798 L508 799 L509 800 L522 800 L523 801 L536 800 L539 804 L539 821 L536 824 L523 824 L522 823 L511 823 L510 822 L499 821 L497 819 L497 813 L496 812 Z M467 795 L469 793 L472 793 L479 795 L492 796 L495 800 L495 818 L496 819 L495 820 L483 819 L469 815 L467 813 Z M637 792 L640 795 L640 810 L639 814 L636 816 L625 819 L614 820 L613 819 L614 800 L622 792 L627 792 L630 796 L635 795 Z M442 788 L445 788 L450 783 L452 783 L459 790 L463 791 L465 793 L465 809 L466 810 L465 813 L459 813 L442 806 L441 802 L441 789 Z M689 785 L682 793 L667 804 L666 801 L661 807 L643 814 L640 813 L641 812 L641 798 L642 797 L641 793 L644 790 L653 791 L664 788 L666 790 L666 797 L667 797 L668 788 L674 783 L685 782 Z M446 782 L447 781 L448 782 L447 783 Z M624 780 L625 779 L626 781 L625 782 Z M447 779 L448 778 L449 780 L448 781 Z M623 777 L624 776 L625 778 L624 779 Z M448 777 L449 776 L450 778 L449 779 Z M372 776 L371 788 L370 789 L371 801 L372 802 L373 810 L378 821 L379 821 L373 804 L373 798 L372 797 L372 779 L373 776 Z M449 775 L450 774 L451 776 L450 777 Z M398 772 L401 769 L409 770 L413 774 L417 776 L417 784 L418 784 L418 779 L420 777 L423 779 L421 780 L422 781 L423 779 L435 778 L438 781 L441 787 L439 790 L441 805 L440 806 L431 802 L422 796 L419 792 L416 792 L402 778 Z M432 769 L433 768 L434 770 L433 771 Z M455 761 L456 765 L451 775 L450 772 Z M542 761 L546 758 L550 759 L551 758 L552 759 L584 759 L588 766 L587 769 L588 771 L588 793 L587 795 L583 798 L570 799 L569 800 L557 800 L556 799 L543 798 L540 795 L540 766 Z M455 759 L456 758 L457 759 L456 760 Z M617 757 L620 764 L620 791 L619 793 L614 796 L591 797 L589 795 L589 788 L590 787 L590 768 L589 765 L590 762 L594 758 Z M492 759 L496 755 L513 756 L514 757 L528 757 L536 759 L539 764 L539 794 L534 798 L514 798 L513 797 L506 797 L505 796 L500 796 L492 794 L489 790 Z M643 753 L646 757 L643 774 L636 790 L632 794 L630 792 L630 787 L627 778 L623 771 L622 762 L625 756 L642 754 Z M463 751 L466 750 L467 751 L479 752 L480 753 L484 753 L488 756 L490 761 L489 762 L489 770 L488 771 L488 790 L486 792 L471 791 L463 789 L458 786 L457 784 L458 762 L460 755 Z M670 747 L673 752 L673 759 L674 760 L673 762 L674 763 L674 777 L673 780 L669 784 L657 788 L650 788 L648 786 L648 772 L647 771 L647 765 L648 764 L649 756 L653 751 L657 751 L667 747 Z M437 744 L441 744 L445 746 L452 747 L455 749 L454 759 L443 785 L440 780 L440 775 L435 755 L435 747 Z M685 741 L689 744 L694 754 L696 762 L696 771 L688 777 L682 779 L678 779 L676 777 L675 749 L676 746 L680 742 Z M417 736 L428 740 L431 743 L432 746 L433 756 L432 757 L430 774 L428 777 L420 775 L414 772 L410 766 L413 742 L414 739 Z M404 729 L411 734 L412 738 L410 746 L410 751 L409 752 L408 764 L406 766 L400 764 L393 759 L391 756 L392 746 L397 735 Z M387 736 L387 753 L390 763 L394 771 L402 782 L417 796 L434 806 L461 816 L477 819 L482 821 L488 821 L489 822 L507 824 L508 825 L517 825 L518 826 L532 826 L533 827 L577 827 L578 826 L591 826 L592 825 L616 823 L645 816 L668 806 L680 798 L689 790 L698 776 L702 763 L702 745 L700 740 L696 736 L693 735 L686 736 L682 739 L671 744 L654 749 L649 749 L632 753 L603 755 L602 756 L532 756 L531 755 L517 755 L516 754 L506 754 L505 753 L497 753 L496 752 L476 750 L475 749 L455 746 L428 738 L418 733 L416 733 L402 725 L396 725 L392 727 Z M371 738 L374 727 L378 721 L383 716 L393 711 L405 712 L425 721 L457 730 L462 730 L463 731 L480 733 L481 734 L487 734 L488 735 L495 735 L496 736 L527 738 L528 739 L541 739 L542 740 L543 739 L545 740 L577 740 L578 739 L579 740 L586 740 L587 739 L608 739 L609 738 L636 736 L637 735 L650 734 L670 729 L688 721 L698 721 L707 725 L714 733 L717 742 L717 759 L712 778 L706 790 L706 792 L701 800 L687 815 L667 828 L641 838 L620 842 L619 843 L607 844 L606 845 L585 846 L584 847 L563 847 L562 848 L560 847 L559 848 L524 847 L523 846 L512 846 L511 845 L489 843 L488 842 L469 839 L457 835 L454 835 L428 825 L408 813 L396 802 L388 792 L379 776 L372 756 Z M396 709 L409 701 L419 691 L426 681 L432 669 L436 657 L445 668 L460 677 L491 684 L507 690 L525 700 L536 703 L543 703 L544 704 L559 703 L560 702 L568 701 L606 685 L615 684 L616 683 L632 682 L640 680 L648 676 L654 670 L656 672 L656 676 L659 685 L669 702 L679 712 L691 719 L690 720 L686 720 L673 726 L664 728 L661 730 L646 732 L645 733 L639 733 L638 734 L632 734 L631 735 L612 736 L611 737 L610 736 L608 737 L597 737 L596 738 L534 738 L533 737 L520 737 L519 736 L499 735 L498 734 L470 731 L465 729 L459 729 L439 724 L435 722 L432 722 L406 711 L397 710 Z M455 658 L456 659 L460 657 L466 657 L467 656 L486 658 L500 663 L522 675 L537 679 L558 679 L559 678 L563 678 L574 675 L596 665 L611 661 L629 661 L638 664 L634 661 L626 659 L612 659 L594 664 L589 667 L568 675 L564 675 L558 677 L536 677 L522 673 L495 659 L485 656 L481 656 L480 655 L462 655 Z M809 601 L810 602 L810 611 L811 612 L811 618 L812 619 L812 625 L813 626 L814 634 L819 645 L824 650 L823 651 L814 648 L810 643 L809 627 L808 626 L808 602 Z M299 599 L300 600 L300 606 L299 607 L299 626 L298 627 L298 631 L294 635 L286 637 L285 636 L289 632 L294 622 L297 611 L298 600 Z M644 601 L651 599 L668 600 L676 603 L682 607 L689 614 L697 629 L698 635 L700 639 L703 657 L706 664 L707 670 L712 680 L737 706 L744 718 L743 714 L738 705 L714 680 L707 665 L699 629 L695 620 L689 611 L681 604 L670 599 L666 598 L650 598 Z M402 607 L398 613 L390 630 L388 639 L385 646 L384 653 L382 657 L382 660 L378 669 L374 675 L366 683 L360 687 L368 683 L376 675 L380 669 L385 656 L391 632 L396 622 L396 620 L403 609 L415 597 L428 590 L440 587 L451 587 L457 589 L448 593 L440 601 L436 609 L432 624 L432 643 L435 655 L431 667 L424 681 L415 693 L408 700 L398 707 L388 712 L386 712 L380 716 L374 723 L370 733 L369 750 L375 772 L383 788 L389 797 L402 811 L416 821 L427 827 L454 837 L457 837 L473 842 L478 842 L483 844 L489 844 L496 846 L511 847 L512 848 L560 850 L561 849 L585 849 L586 848 L596 848 L597 847 L606 847 L613 845 L619 845 L620 844 L634 842 L656 835 L675 826 L683 821 L702 802 L703 803 L703 811 L702 812 L701 826 L696 841 L691 850 L692 851 L700 835 L703 823 L704 803 L702 802 L712 784 L718 765 L719 750 L720 749 L719 748 L719 741 L715 731 L707 723 L700 720 L694 719 L684 714 L672 703 L666 695 L660 683 L656 667 L661 659 L662 651 L663 650 L663 632 L660 620 L656 612 L650 606 L642 602 L629 602 L622 604 L613 609 L604 618 L601 624 L603 623 L605 619 L613 611 L623 606 L639 604 L650 609 L657 620 L660 631 L660 639 L661 640 L659 656 L656 661 L656 663 L651 670 L646 674 L634 679 L608 682 L595 686 L575 696 L556 701 L538 701 L527 698 L502 685 L486 680 L482 680 L462 675 L449 668 L443 662 L438 654 L435 644 L435 623 L438 611 L442 603 L450 595 L456 592 L466 592 L478 598 L485 605 L489 613 L491 613 L486 604 L474 593 L453 586 L437 586 L436 587 L428 588 L421 591 L412 597 Z M783 577 L784 576 L785 577 L784 578 Z M782 574 L783 573 L784 575 L783 576 Z M781 573 L782 572 L783 573 L782 574 Z M324 566 L325 565 L326 566 L325 567 Z M317 566 L318 565 L319 566 L318 567 Z M325 564 L326 563 L327 564 L326 565 Z M326 563 L327 562 L328 563 L327 564 Z M321 563 L322 562 L323 564 L322 565 Z M327 562 L328 561 L329 562 L328 563 Z M318 561 L319 560 L320 562 L319 563 Z M328 560 L329 559 L330 561 L329 562 Z M329 559 L330 558 L331 559 L330 560 Z M330 558 L331 557 L332 558 L331 559 Z M331 557 L332 556 L333 557 L332 558 Z M649 553 L653 554 L654 553 L666 553 L667 552 L681 552 L682 553 L692 553 L693 554 L705 555 L729 562 L749 572 L751 572 L737 564 L707 554 L702 554 L695 552 L686 552 L685 551 L663 551 L662 552 Z M360 559 L376 554 L391 552 L392 551 L398 551 L399 550 L428 549 L429 550 L451 551 L459 553 L460 552 L446 550 L445 549 L437 549 L436 548 L405 548 L404 549 L395 549 L389 551 L384 551 L372 554 Z M313 509 L314 508 L315 510 L314 511 Z M745 498 L759 507 L768 516 L776 527 L782 539 L786 552 L786 556 L788 561 L788 567 L789 568 L789 575 L790 576 L789 580 L781 564 L769 551 L754 541 L737 533 L742 527 L745 519 L745 515 L746 514 L746 508 L744 501 Z M641 496 L642 495 L643 496 L642 497 Z M468 496 L469 495 L470 496 L469 497 Z M643 495 L644 494 L645 495 L644 496 Z M467 495 L468 494 L469 495 L468 496 Z M644 494 L645 493 L647 494 L646 495 Z M465 494 L466 493 L467 494 L466 495 Z M646 493 L647 492 L649 493 L648 494 Z M648 492 L649 491 L651 492 L650 493 Z M374 490 L375 491 L372 498 L372 512 L373 516 L378 525 L360 531 L343 541 L330 553 L323 563 L322 562 L322 558 L326 548 L326 545 L328 542 L329 537 L331 535 L331 533 L340 517 L356 500 L366 493 Z M703 487 L714 488 L717 490 L716 493 L716 513 L717 514 L718 522 L721 528 L720 529 L699 526 L697 524 L694 515 L694 505 L696 497 L699 491 Z M698 488 L694 495 L691 508 L692 518 L694 523 L693 525 L654 526 L628 532 L622 535 L619 538 L617 538 L615 536 L613 531 L613 525 L617 519 L627 509 L642 499 L651 495 L671 489 L685 488 L686 487 L697 487 Z M395 484 L396 485 L396 504 L399 515 L402 520 L398 522 L381 524 L377 519 L375 514 L374 503 L375 502 L376 494 L381 487 L391 484 Z M421 484 L422 483 L423 484 L429 484 L451 490 L476 504 L489 517 L493 523 L494 531 L492 535 L490 537 L488 537 L484 533 L474 528 L458 523 L448 522 L447 521 L438 521 L437 520 L422 520 L421 519 L425 509 L425 494 Z M611 468 L612 467 L613 468 L612 469 Z M612 467 L613 466 L614 467 L613 468 Z M611 508 L609 519 L615 504 L620 497 L629 488 L644 478 L661 471 L674 468 L679 468 L680 467 L702 466 L703 467 L719 468 L738 474 L759 487 L769 497 L780 513 L785 524 L790 543 L791 559 L792 560 L792 571 L791 572 L790 571 L790 563 L789 562 L789 557 L786 544 L778 525 L770 514 L761 505 L751 498 L732 489 L720 486 L705 485 L704 484 L703 485 L702 484 L679 485 L678 486 L664 488 L653 492 L650 491 L655 488 L672 482 L688 480 L689 479 L713 479 L714 480 L719 480 L732 483 L738 486 L741 486 L751 491 L749 489 L736 483 L717 478 L711 478 L710 477 L686 477 L680 479 L675 479 L656 485 L640 493 L628 502 L616 515 L612 522 L612 524 L610 526 L613 538 L618 546 L624 552 L628 553 L619 545 L618 543 L619 541 L628 535 L641 531 L652 530 L653 529 L661 529 L662 528 L699 528 L700 529 L713 530 L714 531 L727 533 L742 538 L762 549 L777 563 L782 572 L781 573 L768 560 L755 551 L738 543 L726 539 L709 536 L708 535 L689 534 L688 533 L657 534 L656 535 L641 537 L628 542 L629 543 L638 539 L642 539 L653 536 L659 536 L660 535 L696 535 L697 536 L705 536 L706 537 L712 537 L721 540 L725 540 L742 546 L765 559 L780 573 L786 582 L788 583 L791 591 L792 590 L791 578 L793 576 L793 554 L792 553 L792 544 L791 543 L790 532 L787 526 L785 518 L773 498 L759 484 L739 472 L728 468 L715 465 L708 465 L707 464 L686 464 L685 465 L672 466 L660 469 L643 476 L629 485 L619 495 Z M498 462 L499 461 L500 462 L499 463 Z M499 511 L492 498 L481 486 L472 479 L455 470 L439 465 L429 464 L428 463 L419 463 L418 462 L397 463 L374 469 L361 476 L353 482 L342 493 L333 506 L326 521 L320 542 L319 553 L317 560 L318 571 L316 576 L316 583 L324 567 L325 568 L338 554 L355 543 L377 535 L385 533 L391 533 L392 532 L409 531 L410 530 L434 530 L435 531 L452 532 L474 538 L480 542 L478 539 L474 537 L454 531 L448 531 L441 529 L403 529 L402 530 L387 531 L363 538 L347 546 L333 557 L332 556 L342 545 L349 540 L364 532 L380 527 L384 527 L393 524 L422 523 L423 522 L443 523 L444 524 L460 526 L482 535 L489 541 L488 544 L480 552 L486 548 L493 540 L497 528 L496 523 L493 517 L484 505 L472 494 L458 485 L441 478 L425 474 L419 474 L418 473 L400 473 L399 474 L392 474 L391 475 L383 476 L377 478 L375 480 L396 475 L420 475 L444 481 L459 488 L466 493 L464 494 L455 489 L437 483 L421 481 L420 480 L397 480 L374 486 L364 491 L354 498 L339 514 L328 534 L320 560 L319 559 L319 555 L321 551 L324 533 L329 519 L335 507 L341 498 L353 485 L367 475 L378 470 L392 466 L409 465 L410 464 L429 465 L450 470 L464 476 L480 487 L493 502 L497 510 L498 515 L501 518 Z M585 458 L581 461 L573 473 L566 489 L563 500 L562 513 L561 514 L561 556 L562 557 L562 520 L563 519 L564 504 L567 492 L573 476 Z M597 424 L595 423 L584 427 L569 429 L568 430 L557 430 L556 431 L531 430 L517 426 L514 426 L514 428 L520 430 L524 430 L530 432 L538 432 L539 433 L561 433 L562 432 L581 430 L594 426 Z M613 465 L620 455 L632 443 L647 433 L658 428 L667 426 L670 424 L674 424 L678 422 L688 421 L689 420 L696 420 L697 419 L713 419 L714 420 L727 421 L730 423 L738 425 L749 431 L759 439 L771 452 L779 464 L787 479 L796 503 L798 514 L797 515 L796 514 L794 506 L781 479 L775 469 L764 455 L746 440 L736 435 L730 434 L726 432 L714 431 L713 430 L699 430 L698 431 L683 432 L666 436 L650 442 L638 448 L623 458 L614 467 Z M499 460 L498 462 L486 451 L468 441 L458 437 L455 437 L452 435 L440 432 L426 431 L425 430 L404 430 L403 431 L396 431 L378 436 L360 446 L340 465 L326 486 L315 509 L314 508 L315 501 L323 484 L323 482 L330 469 L339 456 L361 435 L369 430 L385 423 L398 420 L425 419 L426 420 L433 420 L434 421 L439 421 L451 424 L464 429 L478 437 L492 450 Z M758 435 L745 426 L731 420 L727 420 L722 418 L716 418 L715 417 L697 417 L696 418 L688 418 L687 419 L677 420 L657 426 L646 431 L631 441 L619 453 L609 468 L603 484 L600 489 L596 504 L596 527 L597 528 L597 532 L602 546 L611 561 L617 568 L630 578 L631 577 L624 572 L612 559 L602 541 L599 532 L597 511 L598 510 L599 498 L604 484 L612 471 L628 457 L647 446 L675 436 L692 434 L693 433 L717 433 L734 437 L749 445 L767 462 L779 479 L790 500 L796 517 L798 519 L799 518 L798 505 L789 479 L773 451 Z M352 439 L337 455 L326 472 L320 484 L314 502 L312 505 L312 511 L311 512 L312 515 L316 511 L316 509 L318 507 L319 503 L326 490 L339 470 L355 453 L369 443 L385 436 L399 434 L400 433 L421 432 L422 433 L429 433 L430 434 L446 436 L467 443 L488 455 L502 469 L509 483 L512 494 L513 511 L512 512 L511 523 L504 541 L495 554 L485 564 L477 570 L474 571 L474 572 L485 566 L494 558 L503 546 L510 532 L514 517 L515 505 L514 504 L514 496 L511 484 L505 472 L503 464 L496 452 L483 438 L473 431 L456 423 L453 423 L449 421 L435 419 L434 418 L427 418 L426 417 L404 417 L378 423 L366 429 Z M285 403 L286 404 L291 404 L294 406 L294 428 L293 429 L292 461 L291 462 L290 461 L290 456 L287 446 L287 442 L282 428 L277 420 L273 418 L277 422 L281 429 L286 444 L289 462 L290 463 L290 468 L291 469 L292 511 L293 512 L294 532 L296 535 L296 539 L297 540 L298 566 L299 567 L298 575 L299 576 L298 577 L297 600 L296 601 L294 617 L287 632 L284 635 L279 636 L272 630 L269 622 L268 419 L272 409 L275 406 L282 403 Z M300 381 L301 384 L298 393 L298 400 L297 401 L296 400 L296 386 L297 383 Z M708 380 L703 378 L689 377 L688 376 L667 377 L666 378 L657 379 L639 385 L621 394 L614 396 L612 398 L607 399 L599 403 L596 403 L584 407 L572 408 L571 409 L560 409 L559 410 L523 409 L522 408 L505 406 L484 400 L481 398 L452 388 L439 385 L432 385 L431 384 L416 384 L415 385 L402 386 L387 391 L379 396 L381 397 L390 392 L408 387 L430 386 L431 387 L438 387 L439 388 L448 389 L493 405 L514 410 L532 411 L533 412 L563 412 L564 411 L573 411 L574 410 L580 410 L593 407 L608 402 L645 385 L661 380 L676 379 L677 378 L697 379 L708 382 Z M732 363 L723 355 L708 348 L700 347 L699 346 L676 346 L675 347 L665 348 L657 351 L654 351 L629 361 L618 364 L615 366 L612 366 L595 372 L590 372 L589 373 L572 375 L571 376 L561 376 L560 377 L532 377 L531 376 L521 376 L520 375 L509 374 L497 371 L461 358 L445 354 L409 353 L387 359 L377 364 L365 373 L367 374 L371 370 L388 361 L401 357 L414 356 L415 355 L435 355 L436 356 L453 358 L503 375 L520 377 L521 378 L533 378 L534 379 L558 379 L559 378 L572 378 L573 377 L590 375 L619 367 L651 354 L677 348 L697 348 L698 349 L707 350 L719 355 L727 360 L731 364 Z M668 330 L647 331 L634 335 L630 335 L627 337 L617 339 L606 343 L602 343 L591 346 L578 347 L577 348 L563 348 L562 349 L549 349 L548 348 L537 348 L536 347 L523 346 L508 342 L504 342 L501 340 L469 332 L441 331 L437 333 L438 334 L441 333 L467 334 L522 348 L534 349 L535 350 L563 351 L564 350 L577 350 L578 349 L597 347 L621 341 L631 337 L643 334 L653 333 L654 332 L668 332 Z M489 314 L489 315 L504 318 L515 322 L535 325 L536 326 L565 326 L566 325 L574 325 L575 324 L579 324 L605 318 L612 315 L612 314 L609 314 L588 320 L584 320 L579 322 L573 322 L572 323 L539 324 L538 323 L531 323 L530 322 L516 320 L501 315 L497 315 L491 313 Z M346 327 L362 319 L372 316 L375 314 L378 314 L381 312 L407 306 L419 305 L420 304 L427 304 L428 303 L435 303 L436 302 L443 302 L444 301 L453 301 L454 300 L465 300 L466 299 L474 299 L475 298 L502 297 L503 296 L574 296 L575 297 L587 297 L588 298 L618 300 L625 302 L633 302 L640 304 L648 304 L649 305 L673 308 L674 309 L693 312 L698 314 L702 314 L707 316 L711 316 L715 318 L732 322 L735 324 L738 324 L754 330 L770 338 L781 345 L800 362 L808 373 L816 393 L816 397 L819 408 L819 417 L820 418 L820 511 L819 512 L819 526 L818 527 L817 535 L819 534 L820 523 L821 522 L822 497 L823 496 L823 468 L824 467 L826 448 L832 429 L837 421 L841 417 L844 416 L842 415 L839 417 L833 424 L826 441 L825 451 L824 452 L823 451 L823 419 L822 418 L823 404 L825 401 L835 400 L842 403 L846 408 L849 417 L849 425 L850 426 L850 447 L849 448 L849 464 L848 465 L848 475 L847 476 L847 484 L846 485 L845 514 L844 515 L843 564 L842 565 L842 600 L841 601 L841 633 L840 634 L840 639 L836 647 L834 649 L828 651 L820 644 L815 631 L815 627 L813 621 L813 614 L812 613 L812 603 L811 602 L811 575 L812 574 L812 566 L813 565 L815 546 L817 540 L816 539 L814 543 L814 547 L810 563 L808 582 L807 583 L807 591 L806 592 L805 621 L806 622 L806 634 L807 635 L807 676 L806 677 L805 699 L804 700 L804 708 L803 709 L803 716 L801 723 L801 730 L800 731 L800 737 L798 744 L798 750 L797 751 L794 774 L793 775 L789 799 L787 804 L787 808 L778 835 L764 860 L755 872 L744 884 L733 894 L718 905 L705 912 L686 919 L670 922 L665 924 L633 928 L632 929 L621 929 L620 930 L610 930 L609 931 L594 931 L593 932 L556 932 L555 933 L552 932 L521 932 L520 931 L505 931 L504 930 L484 929 L483 928 L476 928 L475 927 L468 927 L467 926 L443 923 L438 921 L417 917 L397 910 L383 903 L364 889 L352 877 L338 858 L328 841 L328 839 L323 830 L315 809 L306 772 L305 760 L303 753 L303 746 L302 745 L302 737 L301 736 L300 711 L299 710 L299 643 L300 642 L300 633 L301 632 L301 623 L302 622 L302 581 L301 580 L301 564 L300 563 L300 552 L299 551 L298 536 L295 528 L295 513 L294 512 L294 459 L295 458 L296 426 L297 425 L299 403 L300 402 L303 383 L306 376 L308 367 L314 356 L323 345 L333 336 Z M779 238 L778 238 L776 246 L775 264 L774 265 L772 328 L775 265 L776 264 L776 255 L777 254 L777 247 L778 246 Z M347 236 L348 248 L349 249 L349 257 L350 258 L351 279 L352 280 L353 305 L354 306 L354 312 L355 312 L355 297 L354 296 L352 259 L351 258 L349 238 Z M648 215 L645 214 L640 223 L627 223 L622 219 L622 205 L623 204 L622 203 L623 202 L643 202 L640 198 L638 198 L636 200 L602 200 L601 199 L591 199 L590 200 L591 202 L607 202 L608 203 L605 211 L598 218 L586 223 L586 225 L590 226 L604 217 L608 212 L612 202 L618 202 L619 203 L619 219 L620 222 L623 225 L626 226 L641 226 L644 224 Z M574 190 L575 189 L576 190 L575 191 Z M572 189 L572 192 L577 192 L578 191 L577 188 Z M637 190 L637 188 L635 186 L633 186 L631 188 L624 188 L623 187 L598 187 L599 190 L609 190 L610 189 Z M565 188 L567 186 L571 185 L580 185 L583 186 L586 189 L586 191 L581 195 L572 196 L568 195 L565 192 Z M562 189 L565 195 L572 198 L581 197 L588 191 L588 188 L585 185 L577 183 L568 184 L564 186 Z M554 185 L549 183 L540 184 L533 187 L530 190 L529 196 L534 202 L535 208 L532 214 L527 219 L521 222 L521 224 L523 224 L531 218 L537 208 L536 201 L532 197 L531 192 L535 188 L543 185 L552 186 L554 188 L554 190 L549 193 L541 194 L539 192 L542 190 L545 191 L545 188 L542 188 L538 191 L539 195 L546 196 L553 193 L556 190 L556 187 Z M518 184 L522 180 L608 180 L609 181 L649 181 L652 182 L654 184 L654 193 L655 194 L655 231 L652 234 L651 233 L610 232 L609 231 L518 231 L516 229 L517 226 L517 191 L518 190 Z M516 181 L515 184 L515 195 L514 196 L514 231 L516 234 L585 233 L586 234 L620 234 L621 235 L641 235 L642 236 L655 236 L657 234 L657 228 L658 227 L657 184 L653 179 L642 179 L641 178 L640 179 L639 178 L536 177 L535 178 L520 178 Z M850 117 L849 117 L845 127 L843 129 L816 182 L804 202 L789 222 L779 230 L766 235 L755 236 L754 237 L744 237 L743 238 L694 238 L693 237 L675 237 L674 236 L673 237 L672 236 L669 237 L672 238 L687 238 L688 239 L707 239 L708 240 L709 239 L711 240 L742 240 L743 239 L761 238 L775 234 L781 231 L793 220 L811 194 L823 173 L829 160 L831 158 L847 126 Z M278 117 L278 119 L298 157 L321 195 L339 221 L352 233 L364 237 L372 237 L373 238 L379 238 L380 237 L408 237 L409 236 L502 234 L500 233 L458 233 L457 234 L410 234 L409 235 L371 236 L370 235 L363 235 L354 232 L343 223 L323 195 L322 192 L306 168 Z M279 108 L283 103 L289 99 L302 96 L384 93 L385 92 L413 92 L414 91 L482 90 L483 89 L484 90 L486 89 L543 89 L544 88 L547 89 L558 89 L559 88 L662 89 L663 90 L765 92 L766 93 L790 93 L791 94 L820 95 L821 96 L829 96 L830 97 L839 98 L844 100 L850 106 L852 110 L853 119 L854 120 L854 142 L853 143 L852 169 L851 170 L849 200 L848 201 L848 209 L847 210 L847 218 L846 219 L846 227 L845 228 L845 236 L843 244 L841 267 L840 268 L840 274 L839 275 L839 281 L838 282 L838 288 L836 296 L833 324 L830 337 L829 351 L828 352 L825 377 L824 378 L824 383 L823 384 L823 389 L821 397 L820 398 L819 397 L819 393 L815 381 L810 371 L801 359 L781 342 L756 328 L717 315 L705 313 L692 309 L683 308 L682 307 L677 307 L676 306 L671 306 L670 305 L665 305 L652 302 L646 302 L645 301 L631 300 L630 299 L622 299 L621 298 L605 297 L604 296 L594 296 L593 295 L583 295 L582 294 L563 294 L562 293 L493 294 L492 295 L480 295 L479 296 L469 296 L468 297 L458 297 L457 298 L432 300 L431 301 L425 301 L424 302 L400 305 L383 309 L358 318 L343 326 L330 335 L313 353 L304 371 L302 366 L302 360 L301 359 L295 311 L293 304 L293 297 L292 296 L292 290 L291 289 L291 283 L290 282 L290 276 L288 268 L288 261 L287 260 L287 254 L285 246 L285 239 L283 231 L280 199 L279 198 L278 183 L277 182 L277 175 L276 174 L275 156 L274 155 L274 122 L276 114 Z M293 95 L284 99 L277 106 L273 114 L272 123 L271 124 L271 152 L272 153 L273 172 L274 173 L274 181 L275 182 L275 189 L277 197 L277 205 L278 206 L278 213 L280 221 L282 244 L283 245 L285 266 L287 274 L287 281 L289 288 L289 294 L290 295 L293 322 L295 329 L296 342 L298 349 L298 357 L300 364 L301 378 L298 379 L294 383 L293 398 L290 401 L281 401 L273 404 L270 407 L267 413 L266 421 L265 422 L266 619 L267 620 L267 624 L270 632 L275 637 L279 639 L292 639 L295 637 L297 638 L297 647 L296 648 L296 703 L297 704 L298 733 L299 734 L299 742 L300 743 L300 750 L301 751 L303 770 L304 771 L305 781 L311 805 L321 832 L334 857 L343 870 L352 897 L356 905 L368 940 L374 953 L386 988 L390 996 L390 999 L398 1018 L403 1035 L405 1038 L422 1087 L424 1090 L426 1098 L428 1101 L430 1109 L432 1112 L432 1115 L436 1123 L438 1131 L446 1150 L453 1172 L456 1177 L456 1180 L465 1202 L467 1210 L481 1245 L481 1248 L487 1261 L497 1290 L501 1298 L502 1303 L506 1311 L515 1337 L518 1342 L519 1347 L522 1352 L525 1362 L536 1386 L542 1393 L550 1398 L558 1400 L578 1399 L585 1396 L593 1389 L600 1373 L600 1370 L602 1367 L609 1346 L609 1343 L614 1331 L614 1328 L621 1309 L621 1306 L623 1303 L623 1300 L629 1284 L629 1281 L631 1278 L633 1268 L639 1252 L639 1249 L644 1236 L644 1233 L646 1230 L648 1220 L654 1204 L654 1201 L672 1147 L672 1144 L766 864 L766 861 L779 839 L788 814 L792 798 L795 779 L796 778 L796 773 L797 772 L801 744 L802 743 L803 730 L804 729 L807 697 L808 696 L808 687 L809 686 L809 674 L810 673 L810 650 L811 649 L816 652 L824 654 L832 653 L840 646 L843 637 L847 505 L848 504 L848 492 L849 491 L851 460 L852 459 L852 419 L851 418 L850 410 L846 403 L838 398 L827 398 L825 396 L825 388 L828 375 L828 369 L830 362 L834 329 L836 322 L836 315 L838 308 L838 301 L840 294 L840 287 L841 286 L844 257 L846 249 L846 241 L848 233 L851 198 L852 197 L852 187 L853 186 L854 166 L855 165 L855 152 L856 151 L856 135 L857 134 L857 124 L856 123 L855 111 L851 103 L847 99 L841 96 L833 94 L816 93 L815 92 L802 92 L801 91 L754 90 L753 89 L722 89 L721 88 L632 87 L631 86 L515 86 L514 87 L466 87 L465 88 L426 88 L425 89 L373 90 L372 91 L329 92 L328 93 L312 93 L311 94 Z" fill="#eef3f4" fill-rule="evenodd"/>
</svg>
