<svg xmlns="http://www.w3.org/2000/svg" width="1086" height="1448" viewBox="0 0 1086 1448">
  <title>0149</title>
  <path d="M831 1120 L829 1121 L816 1136 L800 1149 L785 1158 L770 1165 L745 1173 L732 1175 L731 1176 L712 1178 L711 1179 L702 1179 L701 1180 L686 1180 L685 1181 L637 1181 L636 1180 L597 1180 L596 1179 L457 1181 L456 1180 L441 1180 L440 1179 L416 1177 L415 1176 L410 1176 L385 1170 L363 1162 L349 1155 L326 1139 L308 1121 L315 1130 L330 1144 L355 1160 L368 1166 L389 1173 L410 1177 L411 1178 L432 1180 L433 1181 L463 1182 L464 1183 L502 1183 L503 1182 L540 1182 L541 1181 L605 1181 L606 1182 L676 1183 L677 1182 L708 1181 L709 1180 L717 1180 L724 1178 L730 1178 L731 1177 L740 1176 L744 1174 L748 1174 L767 1168 L790 1157 L804 1148 L822 1132 Z M742 1012 L743 1011 L744 1013 L743 1014 Z M377 1010 L379 1020 L383 1028 L391 1039 L398 1046 L411 1055 L428 1063 L449 1069 L469 1072 L470 1073 L484 1074 L485 1075 L511 1076 L512 1077 L550 1077 L551 1078 L641 1076 L642 1075 L652 1075 L653 1074 L672 1072 L673 1071 L677 1071 L678 1070 L699 1066 L725 1055 L736 1047 L743 1040 L750 1030 L757 1012 L757 1010 L756 1010 L754 1018 L747 1032 L736 1045 L724 1054 L712 1060 L697 1065 L680 1069 L663 1071 L662 1072 L654 1072 L653 1073 L646 1073 L645 1074 L634 1074 L633 1075 L613 1075 L612 1076 L529 1076 L528 1075 L503 1075 L502 1074 L491 1074 L490 1073 L474 1072 L473 1071 L468 1071 L467 1070 L462 1070 L447 1066 L443 1066 L422 1059 L403 1048 L391 1037 L384 1027 L379 1017 Z M736 996 L737 995 L738 996 L737 997 Z M397 1003 L401 995 L402 996 L401 999 L401 1009 L407 1020 L416 1028 L434 1037 L458 1045 L474 1049 L478 1049 L483 1051 L488 1051 L501 1054 L508 1054 L509 1055 L517 1055 L518 1056 L546 1057 L547 1058 L591 1058 L592 1057 L621 1056 L622 1055 L654 1051 L687 1043 L709 1035 L726 1025 L731 1020 L736 1012 L737 1004 L738 1003 L737 998 L738 997 L740 1000 L740 1014 L737 1022 L733 1028 L726 1035 L716 1042 L706 1047 L689 1053 L667 1057 L666 1058 L644 1060 L643 1061 L615 1062 L614 1063 L579 1063 L578 1064 L560 1063 L559 1064 L554 1064 L553 1063 L523 1063 L522 1062 L507 1062 L506 1061 L485 1060 L484 1059 L470 1058 L455 1054 L450 1054 L436 1050 L417 1041 L415 1039 L416 1038 L404 1027 L398 1015 Z M401 995 L402 994 L403 995 L402 996 Z M455 999 L455 994 L456 993 L463 998 L476 1003 L480 1003 L481 1004 L499 1004 L500 1003 L511 1002 L517 1000 L529 999 L530 998 L538 998 L539 997 L580 996 L581 997 L596 997 L597 998 L613 999 L614 1000 L619 1000 L620 1001 L625 1001 L638 1004 L656 1004 L672 999 L682 993 L684 994 L683 995 L682 1007 L681 1008 L681 1013 L680 1014 L677 1031 L674 1040 L670 1045 L644 1051 L639 1051 L638 1052 L614 1054 L613 1055 L599 1055 L598 1056 L541 1056 L540 1055 L527 1055 L526 1054 L515 1054 L514 1053 L499 1052 L498 1051 L493 1051 L492 1050 L470 1046 L465 1042 L463 1038 L463 1035 L459 1023 L457 1008 L456 1007 L456 1000 Z M402 994 L403 993 L404 994 L403 995 Z M734 996 L735 998 L734 1010 L731 1016 L722 1025 L712 1031 L698 1037 L675 1044 L674 1043 L678 1036 L696 1031 L703 1027 L709 1021 L712 1015 L712 1012 L715 1004 L715 1000 L717 996 L721 992 L728 991 Z M716 992 L717 991 L718 992 L717 993 Z M405 995 L411 991 L418 992 L422 996 L425 1010 L431 1023 L440 1030 L460 1036 L464 1043 L462 1044 L445 1038 L442 1038 L432 1034 L416 1025 L407 1016 L404 1010 L403 1001 Z M708 971 L709 972 L710 981 L714 987 L714 996 L709 1017 L707 1021 L699 1028 L689 1032 L680 1034 L679 1033 L680 1032 L680 1026 L683 1014 L684 996 L685 995 L684 992 L698 981 Z M431 971 L446 986 L454 992 L454 1005 L455 1006 L455 1013 L456 1014 L458 1029 L460 1033 L459 1034 L449 1032 L438 1027 L430 1019 L427 1003 L424 994 L424 988 L427 985 Z M727 956 L739 957 L744 961 L749 970 L750 979 L751 980 L751 989 L750 990 L750 996 L748 1004 L744 1012 L743 1011 L743 1001 L740 994 L735 989 L732 988 L723 988 L720 990 L713 980 L712 977 L713 966 L719 960 Z M413 956 L420 960 L427 967 L426 968 L427 969 L426 979 L420 989 L407 988 L404 989 L398 994 L395 1001 L395 1012 L394 1013 L391 1008 L387 993 L387 978 L391 966 L397 959 L400 957 L408 955 L409 956 Z M384 980 L385 998 L393 1018 L400 1028 L418 1043 L434 1051 L449 1056 L470 1060 L471 1061 L492 1063 L493 1064 L503 1064 L504 1065 L547 1066 L548 1067 L588 1067 L589 1066 L615 1066 L616 1065 L643 1064 L644 1063 L660 1062 L661 1061 L667 1061 L668 1060 L682 1058 L702 1052 L719 1044 L725 1040 L739 1027 L748 1013 L752 1002 L753 993 L754 992 L754 977 L751 966 L748 961 L743 956 L734 952 L725 953 L716 958 L694 980 L678 992 L666 998 L658 1000 L651 1000 L650 1001 L634 1000 L633 999 L628 999 L615 996 L600 995 L599 994 L588 994 L587 993 L548 993 L547 994 L527 995 L526 996 L509 998 L503 1000 L495 1000 L494 1001 L479 1000 L469 997 L455 989 L439 975 L425 960 L418 955 L410 952 L401 953 L397 955 L391 961 L387 968 Z M369 991 L370 990 L370 983 L371 982 L372 974 L378 959 L389 946 L400 941 L407 941 L417 945 L425 951 L444 970 L459 982 L470 988 L484 992 L507 992 L508 991 L521 990 L534 987 L552 986 L553 985 L583 985 L584 986 L594 986 L595 987 L601 987 L602 988 L608 988 L609 989 L629 991 L630 992 L653 992 L654 991 L658 991 L667 988 L683 979 L692 972 L717 948 L723 944 L731 941 L742 942 L750 948 L759 962 L764 981 L764 989 L765 983 L764 982 L763 969 L760 960 L754 950 L747 943 L741 940 L733 939 L732 940 L728 940 L717 946 L693 969 L682 978 L670 985 L659 989 L655 989 L654 990 L628 990 L627 989 L614 988 L613 987 L594 985 L593 984 L553 983 L552 984 L535 985 L534 986 L529 986 L516 989 L509 989 L508 990 L483 990 L470 986 L459 980 L443 967 L420 945 L410 940 L400 939 L389 944 L378 956 L371 972 L370 981 L369 982 Z M478 889 L491 879 L501 875 L516 875 L541 885 L554 888 L565 888 L566 889 L581 888 L582 887 L590 886 L619 875 L633 875 L645 880 L656 889 L646 879 L639 875 L632 873 L616 874 L595 883 L584 886 L578 886 L577 887 L552 886 L537 882 L522 875 L514 873 L502 873 L488 879 Z M720 856 L713 877 L713 894 L716 904 L722 915 L732 925 L722 912 L716 897 L715 879 L716 878 L717 868 L721 858 L721 856 Z M413 856 L418 876 L418 892 L417 893 L416 901 L411 912 L400 926 L407 920 L414 910 L420 894 L420 875 L416 861 Z M734 854 L734 859 L737 872 L743 887 L754 903 L761 910 L772 918 L789 925 L802 926 L803 925 L814 924 L825 919 L828 916 L821 920 L808 924 L792 924 L781 921 L773 917 L762 909 L749 894 L740 876 L736 863 L735 854 Z M398 854 L394 873 L387 889 L379 901 L365 914 L355 920 L342 924 L326 924 L313 920 L307 916 L307 917 L313 921 L321 924 L338 926 L354 922 L365 916 L380 902 L388 890 L395 874 L398 862 Z M493 810 L494 809 L495 810 L494 811 Z M642 809 L643 808 L644 809 L643 810 Z M492 809 L493 808 L494 809 L493 810 Z M643 808 L644 807 L645 808 L644 809 Z M491 808 L492 807 L493 808 L492 809 Z M644 807 L645 806 L646 807 L645 808 Z M678 801 L679 800 L681 801 L680 802 Z M455 801 L456 800 L458 801 L457 802 Z M846 793 L848 792 L850 794 L848 795 Z M845 792 L846 791 L847 792 L846 793 Z M292 792 L293 791 L294 792 L293 793 Z M844 791 L845 790 L846 791 L845 792 Z M293 791 L294 790 L295 791 L294 792 Z M294 790 L295 789 L296 790 L295 791 Z M390 834 L393 831 L401 819 L413 807 L423 800 L433 795 L453 790 L463 790 L464 791 L473 792 L484 798 L492 807 L491 808 L483 802 L472 798 L455 798 L437 805 L430 810 L419 823 L414 833 L412 840 L412 846 L411 847 L412 854 L413 853 L414 838 L422 821 L429 813 L437 807 L451 801 L455 801 L456 802 L455 803 L453 803 L448 806 L437 817 L431 828 L428 841 L428 857 L432 873 L437 882 L446 891 L459 897 L471 898 L472 897 L480 896 L493 887 L499 885 L513 885 L523 888 L540 897 L556 901 L580 901 L581 900 L590 899 L598 896 L612 888 L622 885 L635 885 L639 886 L654 896 L662 898 L671 898 L685 893 L695 884 L699 878 L704 866 L705 857 L706 856 L706 840 L702 825 L696 815 L687 806 L688 805 L686 806 L680 802 L684 801 L694 805 L700 809 L710 819 L714 825 L719 837 L720 853 L721 854 L722 844 L719 832 L716 825 L708 814 L700 807 L687 800 L679 798 L664 798 L655 801 L647 807 L645 806 L652 798 L661 793 L667 791 L682 790 L701 795 L709 799 L719 806 L732 819 L743 834 L733 818 L720 805 L712 799 L698 792 L687 789 L669 789 L661 791 L652 796 L640 809 L635 818 L627 838 L629 837 L633 827 L640 816 L651 805 L662 801 L670 801 L680 804 L685 807 L696 820 L699 826 L703 841 L702 860 L700 868 L693 881 L685 889 L680 892 L668 895 L655 893 L642 884 L637 882 L627 881 L614 884 L588 896 L578 897 L577 898 L559 898 L558 897 L551 897 L547 895 L544 895 L521 884 L514 882 L508 882 L507 881 L495 883 L481 892 L475 894 L460 894 L452 891 L442 883 L439 879 L433 865 L432 854 L431 853 L431 844 L435 827 L442 815 L449 808 L458 803 L467 802 L468 801 L478 802 L485 805 L494 813 L500 822 L508 839 L508 836 L505 830 L503 822 L494 806 L484 796 L475 791 L467 789 L448 789 L429 795 L412 806 L400 818 Z M827 772 L828 771 L829 772 L828 773 Z M826 770 L827 769 L828 770 L827 771 Z M313 770 L314 769 L315 770 L314 771 Z M825 769 L826 768 L827 769 L826 770 Z M314 768 L315 767 L316 768 L315 769 Z M824 767 L825 766 L826 767 L825 768 Z M823 766 L824 765 L825 766 L824 767 Z M822 764 L823 763 L824 764 L823 765 Z M821 763 L822 762 L823 763 L822 764 Z M828 762 L829 761 L830 763 L829 764 Z M820 762 L821 761 L822 762 L821 763 Z M819 760 L820 759 L821 761 L820 762 Z M827 759 L828 758 L829 760 L828 761 Z M818 759 L819 758 L820 759 L819 760 Z M821 758 L822 757 L823 758 L822 759 Z M827 755 L828 756 L827 759 L826 758 Z M820 756 L821 755 L822 757 L821 758 Z M318 755 L319 754 L320 756 L319 757 Z M819 754 L820 753 L821 755 L820 756 Z M488 747 L489 746 L490 748 L489 749 Z M869 745 L878 767 L882 782 L883 782 L882 775 L874 753 L870 745 Z M275 741 L272 744 L270 751 L263 766 L259 780 L260 782 L264 768 Z M795 730 L819 757 L817 760 L812 752 L793 732 Z M315 767 L324 752 L336 738 L349 726 L362 717 L370 713 L384 708 L394 707 L395 706 L420 706 L421 707 L434 709 L442 712 L461 722 L474 732 L481 739 L485 740 L487 743 L487 752 L486 753 L467 734 L457 726 L441 717 L430 713 L417 710 L394 710 L375 715 L354 726 L344 734 L333 745 L316 768 Z M795 730 L792 732 L779 722 L759 713 L746 711 L745 710 L721 710 L702 715 L688 722 L672 733 L652 753 L651 752 L651 742 L658 738 L670 727 L692 714 L702 710 L714 707 L719 707 L720 706 L735 705 L736 706 L746 706 L747 707 L756 708 L778 717 Z M654 723 L659 707 L666 694 L675 684 L686 676 L694 672 L710 667 L716 667 L717 666 L740 666 L741 667 L746 667 L767 674 L769 676 L776 679 L790 691 L798 701 L808 718 L816 738 L816 741 L820 753 L819 754 L817 752 L816 749 L807 737 L787 719 L773 711 L752 704 L730 702 L729 703 L719 703 L702 707 L680 717 L654 737 L653 736 Z M483 717 L484 727 L485 728 L485 736 L484 737 L482 735 L483 734 L481 735 L475 729 L460 718 L443 709 L421 703 L409 703 L408 702 L407 703 L406 702 L405 703 L394 703 L393 704 L384 705 L369 710 L350 721 L336 733 L324 748 L320 755 L319 754 L321 746 L323 743 L323 740 L325 737 L328 727 L332 720 L332 718 L334 716 L338 707 L346 696 L357 685 L370 676 L390 668 L400 667 L401 666 L425 666 L426 667 L436 668 L453 675 L463 682 L472 692 L480 707 Z M304 664 L305 663 L306 664 L305 665 Z M527 662 L527 666 L530 673 L531 686 L532 687 L531 702 L528 715 L532 703 L533 683 L532 682 L532 677 L530 669 Z M836 661 L837 660 L838 662 L837 663 Z M306 659 L307 660 L306 663 L305 662 Z M836 657 L837 658 L836 661 L835 660 Z M644 677 L639 691 L639 695 L637 701 L637 722 L638 723 L638 728 L640 736 L642 739 L643 744 L650 756 L658 764 L663 766 L688 751 L708 743 L716 741 L721 741 L722 740 L748 740 L770 746 L785 753 L802 764 L816 776 L819 777 L800 761 L784 751 L763 742 L755 740 L750 740 L749 739 L743 739 L742 738 L720 739 L698 745 L683 752 L665 764 L659 763 L653 756 L653 754 L673 734 L687 724 L701 717 L713 713 L724 712 L725 711 L749 712 L766 717 L773 721 L775 721 L792 733 L805 746 L813 756 L817 763 L822 766 L831 780 L846 795 L857 803 L857 801 L849 795 L850 794 L854 796 L854 795 L848 791 L837 780 L829 765 L830 759 L825 743 L822 728 L814 706 L805 691 L798 682 L786 671 L777 665 L756 656 L748 654 L743 654 L742 653 L716 653 L692 659 L676 667 L662 679 L654 690 L647 705 L644 717 L644 727 L647 710 L655 691 L665 678 L673 671 L689 662 L704 657 L708 657 L714 655 L723 655 L724 654 L726 655 L727 654 L743 655 L744 656 L749 656 L757 658 L772 664 L786 673 L801 688 L810 702 L816 715 L821 730 L825 749 L827 753 L826 756 L824 753 L817 730 L812 720 L812 718 L797 694 L784 681 L774 674 L764 669 L752 665 L744 664 L743 663 L735 663 L734 662 L714 663 L701 666 L693 669 L677 678 L666 689 L658 701 L652 717 L651 727 L650 728 L649 748 L648 749 L647 748 L640 729 L639 717 L638 716 L638 708 L639 707 L639 698 L644 681 L655 662 L671 647 L677 643 L695 635 L712 631 L723 631 L724 630 L749 632 L765 637 L780 645 L788 651 L804 668 L815 688 L821 705 L825 726 L826 727 L826 731 L827 732 L827 736 L828 737 L828 741 L835 764 L843 778 L852 787 L854 787 L844 777 L834 758 L834 755 L830 743 L823 706 L818 691 L812 678 L802 663 L788 649 L778 642 L764 635 L747 630 L741 630 L740 629 L715 629 L714 630 L708 630 L690 635 L674 643 L667 648 L654 661 Z M490 666 L484 658 L473 647 L466 642 L452 635 L435 630 L430 630 L429 629 L402 629 L401 630 L396 630 L381 634 L364 642 L351 651 L340 662 L330 676 L322 692 L318 704 L306 757 L299 772 L286 788 L295 780 L300 773 L305 763 L311 743 L311 739 L313 734 L313 730 L319 706 L327 685 L335 671 L342 662 L359 647 L373 639 L390 633 L394 633 L400 631 L421 630 L422 631 L431 631 L444 634 L463 642 L474 650 L483 659 L488 666 L495 680 L498 690 L499 703 L500 704 L500 715 L499 716 L498 727 L491 746 L490 747 L489 746 L488 725 L487 724 L485 711 L479 697 L473 688 L462 677 L448 669 L433 664 L409 662 L408 663 L399 663 L398 664 L389 665 L377 669 L358 680 L345 692 L334 707 L326 723 L321 738 L319 741 L316 753 L312 761 L311 758 L313 754 L321 723 L332 699 L339 689 L349 678 L364 667 L379 660 L393 656 L409 655 L410 654 L428 655 L450 661 L465 669 L476 679 L482 687 L488 699 L491 708 L493 726 L494 727 L494 717 L493 716 L492 706 L485 689 L478 679 L470 671 L460 664 L444 657 L432 654 L427 654 L426 653 L400 653 L399 654 L386 656 L377 659 L361 667 L349 676 L334 693 L324 711 L318 728 L313 750 L309 761 L309 763 L311 761 L312 763 L307 773 L298 785 L285 795 L286 796 L291 792 L293 793 L283 801 L282 803 L291 797 L305 784 L330 751 L345 735 L365 721 L374 717 L391 712 L414 711 L415 712 L429 714 L440 718 L460 730 L485 755 L478 763 L472 764 L456 753 L440 745 L419 739 L395 738 L394 739 L388 739 L366 745 L350 753 L335 763 L319 777 L322 776 L339 762 L353 753 L368 746 L390 740 L416 740 L417 741 L426 742 L441 747 L455 754 L474 766 L479 764 L484 760 L491 750 L498 735 L501 722 L502 707 L501 706 L500 691 L497 681 Z M306 659 L308 646 L316 625 L325 609 L337 594 L351 581 L363 573 L385 563 L400 559 L406 559 L407 558 L438 558 L439 559 L446 559 L470 566 L489 576 L503 587 L521 608 L533 630 L538 646 L536 655 L533 658 L530 658 L526 654 L522 645 L506 622 L493 609 L480 599 L461 589 L450 585 L437 582 L431 582 L430 581 L406 581 L405 582 L394 583 L377 588 L360 596 L348 604 L329 622 L315 642 L310 652 L308 659 L307 660 Z M836 652 L836 657 L835 658 L826 639 L818 627 L798 606 L790 600 L765 587 L756 584 L741 582 L740 581 L716 581 L715 582 L703 583 L683 589 L665 598 L646 612 L636 622 L627 633 L615 654 L611 658 L608 658 L604 653 L604 643 L609 629 L620 610 L627 601 L644 584 L652 578 L670 568 L680 565 L683 563 L700 559 L706 559 L707 558 L727 557 L728 558 L745 559 L763 564 L780 572 L794 582 L805 592 L820 612 L828 628 Z M832 629 L825 614 L811 594 L793 577 L771 564 L754 558 L746 557 L745 556 L739 556 L738 555 L706 555 L705 556 L694 557 L674 563 L654 573 L638 585 L626 597 L611 618 L605 630 L600 647 L601 654 L604 659 L607 661 L612 661 L613 662 L609 670 L606 682 L606 700 L610 715 L611 716 L608 704 L607 687 L608 686 L609 675 L614 664 L614 662 L612 661 L616 658 L621 648 L631 633 L651 612 L668 600 L689 590 L692 590 L699 587 L703 587 L709 585 L716 585 L717 584 L738 584 L739 585 L745 585 L762 589 L786 601 L799 611 L810 622 L817 631 L830 653 L841 683 L841 669 L840 668 L839 654 Z M541 646 L537 631 L528 613 L522 604 L510 590 L511 589 L510 590 L501 581 L487 571 L471 563 L447 556 L441 556 L440 555 L408 555 L407 556 L400 556 L379 562 L362 570 L345 582 L330 597 L319 613 L309 634 L306 647 L304 651 L304 656 L302 663 L301 682 L302 683 L307 666 L318 643 L329 627 L341 614 L358 601 L375 592 L390 587 L399 586 L400 585 L428 584 L429 585 L441 586 L458 591 L472 598 L488 609 L506 627 L516 641 L524 657 L529 661 L533 661 L539 656 Z M662 535 L658 535 L649 538 L620 551 L600 556 L606 556 L621 552 L647 540 Z M483 535 L496 539 L514 548 L528 553 L540 556 L548 556 L523 550 L499 539 L494 538 L491 536 Z M521 527 L529 531 L547 536 L565 537 L566 538 L580 538 L581 537 L597 536 L598 535 L607 534 L616 531 L621 528 L606 533 L590 535 L589 536 L557 536 L556 535 L544 534 Z M866 493 L867 492 L868 493 L867 494 Z M867 491 L868 490 L869 491 L868 492 Z M868 488 L869 487 L870 489 L869 490 Z M434 493 L441 491 L447 491 L448 490 L478 490 L479 491 L486 491 L487 492 L508 496 L546 508 L556 509 L557 510 L567 510 L568 511 L580 511 L581 510 L590 510 L591 509 L601 508 L636 497 L657 492 L662 492 L663 491 L670 491 L671 490 L696 490 L697 491 L707 492 L697 489 L666 489 L665 490 L659 490 L658 491 L640 494 L602 506 L598 506 L592 508 L585 508 L584 509 L564 509 L563 508 L550 507 L534 502 L531 502 L511 495 L490 490 L476 489 L475 488 L452 488 L451 489 L435 491 Z M275 487 L276 486 L277 487 L276 488 Z M869 486 L870 485 L871 486 L870 487 Z M274 485 L275 484 L276 485 L275 486 Z M870 483 L871 482 L872 484 L871 485 Z M273 482 L274 481 L275 482 L274 483 Z M871 480 L872 479 L873 481 L872 482 Z M272 479 L273 478 L274 480 L273 481 Z M873 476 L874 477 L873 480 L872 479 Z M272 474 L273 475 L272 478 L271 477 Z M874 472 L875 473 L874 477 L873 476 Z M271 470 L272 471 L271 475 L270 474 Z M875 468 L876 469 L875 473 L874 472 Z M270 466 L271 467 L270 471 L269 470 Z M480 467 L482 466 L503 466 L504 467 L517 468 L537 473 L541 475 L549 476 L554 478 L559 478 L560 479 L587 479 L588 478 L593 478 L610 474 L614 472 L630 468 L642 467 L643 466 L663 466 L664 467 L665 466 L663 465 L639 465 L638 466 L622 468 L599 475 L589 476 L588 477 L580 477 L579 478 L569 478 L568 477 L553 476 L524 468 L520 468 L514 466 L507 466 L506 465 L482 465 Z M412 447 L431 441 L451 436 L466 434 L467 433 L488 431 L489 430 L498 430 L499 429 L508 429 L509 428 L544 427 L545 426 L625 427 L626 428 L658 430 L659 431 L666 431 L667 432 L673 432 L685 435 L690 435 L716 441 L734 447 L737 450 L738 453 L747 462 L757 469 L775 478 L808 491 L830 502 L845 512 L858 525 L866 537 L874 559 L874 563 L876 569 L876 576 L877 577 L877 590 L878 591 L878 643 L877 644 L877 666 L876 667 L876 686 L875 687 L875 711 L876 712 L876 718 L880 733 L884 742 L886 744 L886 746 L890 751 L895 761 L896 784 L897 785 L897 792 L898 793 L900 811 L902 817 L904 840 L903 841 L903 848 L901 855 L898 861 L894 865 L892 859 L891 843 L890 842 L890 837 L887 825 L878 799 L866 777 L866 779 L878 803 L882 815 L886 836 L887 837 L887 843 L889 851 L889 864 L890 865 L890 918 L889 919 L888 948 L887 949 L885 983 L884 984 L884 991 L883 992 L883 999 L882 1000 L882 1007 L881 1008 L881 1015 L880 1016 L878 1034 L877 1035 L874 1055 L868 1079 L858 1107 L849 1125 L835 1145 L818 1162 L796 1177 L773 1188 L752 1195 L731 1199 L730 1200 L726 1200 L725 1201 L721 1201 L720 1202 L710 1203 L709 1204 L685 1206 L684 1207 L656 1208 L655 1209 L627 1209 L626 1210 L518 1210 L517 1209 L485 1209 L484 1208 L469 1208 L468 1207 L447 1206 L446 1205 L439 1205 L438 1204 L420 1202 L419 1201 L397 1197 L368 1188 L346 1178 L327 1166 L303 1143 L286 1117 L275 1091 L275 1088 L272 1081 L272 1078 L267 1062 L267 1058 L263 1042 L260 1016 L259 1015 L259 1007 L258 1006 L257 987 L256 986 L254 946 L253 945 L253 928 L252 927 L252 867 L253 866 L254 839 L255 838 L256 827 L263 803 L275 777 L271 781 L271 783 L265 794 L257 815 L251 840 L250 856 L249 857 L249 864 L248 865 L242 858 L239 848 L239 826 L240 825 L240 820 L241 819 L241 814 L242 813 L242 808 L243 807 L244 796 L246 789 L248 759 L261 738 L265 728 L267 720 L267 715 L268 714 L268 674 L267 673 L267 653 L266 652 L266 595 L267 594 L267 582 L268 581 L269 568 L275 546 L281 534 L296 516 L309 506 L323 498 L327 497 L340 490 L373 477 L387 470 L399 462 L408 453 L409 450 Z M832 409 L833 408 L834 409 L833 410 Z M412 442 L413 441 L414 425 L422 421 L437 416 L458 411 L463 411 L475 408 L489 407 L490 406 L510 405 L511 404 L524 404 L525 403 L546 403 L547 402 L620 403 L621 404 L636 404 L637 405 L656 406 L657 407 L683 410 L713 417 L731 424 L732 425 L732 437 L733 438 L733 442 L732 443 L717 438 L701 434 L692 433 L687 431 L675 430 L668 428 L661 428 L660 427 L642 426 L641 425 L608 424 L607 423 L542 423 L541 424 L507 425 L506 426 L496 426 L495 427 L487 427 L486 428 L465 430 L464 431 L454 432 L449 434 L433 437 L415 443 Z M414 414 L417 412 L432 407 L452 402 L456 402 L467 399 L480 398 L481 397 L509 395 L510 394 L521 394 L522 393 L541 393 L542 392 L606 392 L607 393 L622 393 L623 394 L636 394 L637 395 L656 396 L657 397 L672 398 L673 399 L678 399 L679 400 L699 403 L715 407 L731 413 L732 414 L732 421 L731 422 L728 420 L713 415 L687 409 L677 408 L676 407 L655 405 L654 404 L645 404 L644 403 L615 402 L614 401 L593 401 L592 400 L530 401 L529 402 L514 402 L513 403 L493 404 L492 405 L477 406 L476 407 L471 407 L470 408 L465 408 L464 409 L445 412 L419 420 L416 422 L414 421 Z M413 358 L414 357 L415 358 L414 359 Z M830 315 L831 314 L832 315 L831 316 Z M808 303 L826 315 L833 321 L855 356 L858 359 L860 364 L869 378 L878 397 L885 418 L887 431 L889 436 L892 460 L893 461 L893 468 L894 469 L895 489 L896 490 L897 517 L898 518 L898 548 L899 549 L898 553 L899 554 L898 631 L897 632 L896 675 L895 676 L895 704 L894 705 L894 732 L893 733 L888 722 L886 714 L886 707 L885 706 L885 674 L886 673 L886 653 L887 652 L887 632 L888 631 L888 575 L887 574 L887 566 L886 565 L884 552 L877 534 L868 521 L859 512 L863 507 L870 494 L880 464 L881 451 L882 450 L882 422 L881 421 L881 416 L878 408 L878 405 L871 391 L860 379 L854 375 L846 372 L832 372 L829 374 L828 373 L830 369 L830 364 L831 363 L831 352 L830 351 L830 345 L828 337 L819 320 L806 306 L807 304 L808 305 L807 304 Z M414 378 L433 355 L445 333 L450 319 L452 317 L460 314 L481 310 L482 309 L501 307 L502 306 L523 305 L524 304 L542 304 L543 303 L608 303 L609 304 L626 304 L627 305 L648 306 L649 307 L662 308 L663 309 L667 309 L668 310 L689 314 L695 316 L699 319 L702 330 L712 351 L719 362 L732 378 L732 410 L730 411 L714 405 L698 401 L678 398 L677 397 L656 395 L655 394 L646 394 L645 393 L636 393 L635 392 L620 392 L619 391 L598 391 L597 390 L550 390 L549 391 L513 392 L512 393 L501 393 L500 394 L476 396 L475 397 L464 398 L458 400 L453 400 L433 405 L414 412 L413 411 Z M346 297 L347 299 L329 318 L319 336 L317 344 L317 349 L316 350 L316 367 L317 368 L317 372 L316 373 L315 372 L301 372 L287 379 L277 389 L269 403 L264 421 L263 445 L264 446 L264 454 L265 455 L267 470 L274 490 L286 512 L278 520 L270 531 L263 545 L258 563 L257 578 L256 579 L256 641 L257 642 L257 663 L258 664 L258 707 L257 708 L255 722 L249 734 L248 733 L248 675 L247 674 L246 615 L245 614 L245 549 L246 548 L246 522 L247 521 L247 506 L248 505 L249 486 L250 485 L252 463 L253 462 L253 457 L254 456 L254 451 L256 445 L258 430 L264 408 L277 378 L292 353 L311 326 L313 321 Z M346 297 L347 296 L348 297 L347 298 Z M798 296 L799 295 L808 303 L806 305 Z M347 296 L348 295 L349 296 L348 297 Z M348 295 L349 294 L350 295 L349 296 Z M414 363 L420 357 L431 340 L432 335 L436 330 L443 312 L449 308 L485 299 L506 297 L507 296 L515 296 L516 295 L544 294 L545 293 L607 293 L608 294 L635 295 L636 296 L644 296 L645 297 L664 299 L665 300 L687 304 L704 310 L706 312 L709 323 L719 345 L726 356 L732 363 L732 373 L731 374 L727 370 L715 353 L704 331 L699 316 L681 310 L661 307 L660 306 L654 306 L646 304 L637 304 L636 303 L625 303 L624 302 L598 302 L597 301 L550 301 L549 302 L514 303 L513 304 L504 304 L503 305 L496 305 L495 306 L478 308 L452 315 L449 317 L444 331 L431 355 L422 367 L415 374 L414 373 Z M795 293 L796 292 L797 293 L796 294 Z M794 292 L795 291 L796 292 L795 293 Z M838 258 L845 260 L862 269 L872 276 L886 289 L894 299 L904 317 L909 337 L910 376 L909 377 L909 445 L908 446 L908 484 L907 485 L906 484 L905 457 L904 456 L902 438 L901 437 L901 433 L900 432 L896 411 L887 386 L875 363 L844 316 L844 272 L845 271 L854 275 L863 281 L884 302 L890 311 L895 322 L901 346 L901 339 L898 326 L891 310 L882 297 L868 283 L860 277 L846 269 L843 269 L842 273 L842 316 L872 361 L886 388 L894 410 L898 431 L899 432 L899 436 L900 437 L902 455 L903 456 L905 485 L906 489 L908 491 L907 494 L907 531 L906 532 L906 563 L905 564 L905 592 L904 593 L904 620 L903 621 L900 731 L899 732 L898 731 L899 733 L899 738 L898 739 L896 735 L896 690 L897 689 L898 645 L899 644 L899 615 L900 614 L901 518 L900 517 L900 500 L899 499 L897 468 L896 467 L895 454 L894 453 L890 426 L879 391 L862 360 L835 319 L835 262 Z M308 258 L311 260 L311 298 L312 299 L311 300 L312 304 L311 319 L278 370 L265 396 L255 429 L253 444 L251 450 L251 455 L250 456 L249 468 L248 469 L246 496 L245 497 L245 507 L244 508 L244 522 L243 523 L244 635 L245 636 L246 692 L247 693 L247 729 L244 734 L243 733 L243 714 L242 713 L242 675 L241 674 L240 609 L239 608 L237 493 L239 491 L239 486 L240 485 L240 476 L241 475 L241 467 L242 466 L242 459 L243 458 L245 439 L251 413 L260 388 L272 365 L304 315 L304 276 L303 275 L303 269 L301 269 L291 274 L282 280 L263 298 L256 308 L247 328 L245 336 L245 341 L244 342 L244 347 L250 324 L261 303 L279 284 L294 274 L301 271 L302 272 L302 292 L303 293 L302 316 L270 365 L255 396 L249 414 L245 435 L244 436 L244 440 L243 441 L241 460 L240 461 L240 469 L239 470 L239 483 L238 484 L237 483 L237 460 L236 459 L236 379 L235 378 L235 374 L236 373 L235 371 L235 364 L236 363 L237 333 L240 322 L248 305 L261 288 L273 277 L289 266 Z M416 301 L422 281 L431 266 L445 253 L468 242 L489 238 L490 237 L504 236 L505 235 L530 234 L531 233 L559 233 L560 232 L623 233 L624 234 L636 234 L637 235 L659 237 L660 238 L681 242 L695 248 L708 257 L720 271 L727 286 L731 302 L732 325 L733 326 L733 358 L732 359 L724 348 L716 332 L709 311 L705 307 L684 300 L680 300 L665 296 L646 294 L645 293 L638 293 L637 292 L611 291 L610 290 L541 290 L540 291 L514 292 L513 293 L505 293 L504 294 L485 296 L449 305 L441 310 L433 330 L426 344 L415 358 L414 357 L414 316 L415 315 Z M429 251 L441 242 L453 236 L464 232 L481 228 L486 228 L487 227 L501 226 L502 225 L512 225 L513 224 L526 224 L527 223 L544 223 L545 222 L606 222 L607 223 L624 223 L625 224 L638 224 L639 225 L655 226 L656 227 L668 228 L673 230 L685 232 L698 237 L714 247 L726 259 L737 277 L745 304 L746 320 L747 321 L747 340 L748 341 L748 418 L749 419 L749 434 L751 442 L754 448 L763 459 L776 468 L806 482 L808 482 L821 489 L823 489 L845 502 L859 514 L868 524 L875 534 L880 545 L884 559 L885 571 L886 572 L886 634 L885 635 L885 656 L884 657 L884 677 L883 678 L883 704 L884 705 L885 717 L892 735 L900 747 L900 754 L898 756 L894 753 L884 735 L879 716 L878 699 L879 698 L879 674 L880 673 L881 616 L882 615 L882 610 L881 609 L880 575 L879 574 L879 568 L874 548 L866 531 L862 525 L852 514 L843 507 L829 498 L811 489 L776 475 L758 466 L750 461 L740 450 L736 439 L736 316 L735 315 L735 304 L734 303 L733 294 L726 275 L718 263 L708 253 L696 245 L684 240 L666 235 L661 235 L654 233 L637 232 L636 231 L625 231 L624 230 L600 230 L599 229 L527 230 L526 231 L513 231 L512 232 L496 233 L495 234 L489 234 L488 235 L474 237 L459 242 L447 248 L435 257 L427 266 L417 284 L412 304 L411 328 L410 329 L410 437 L409 438 L409 443 L406 450 L397 460 L388 466 L372 474 L337 488 L305 505 L297 511 L284 524 L276 536 L271 547 L267 561 L265 577 L264 578 L263 604 L262 605 L263 661 L264 662 L264 683 L265 684 L265 710 L264 711 L264 718 L260 732 L255 743 L248 754 L245 757 L243 754 L243 747 L250 737 L256 724 L259 712 L259 705 L260 704 L260 670 L259 669 L259 651 L258 650 L257 590 L258 589 L259 566 L264 547 L269 536 L277 524 L298 504 L317 492 L340 481 L349 478 L358 473 L360 473 L379 462 L391 449 L396 437 L396 429 L397 428 L397 380 L398 379 L398 346 L399 345 L398 344 L399 343 L399 326 L400 325 L400 316 L401 315 L402 303 L407 285 L414 270 L420 261 Z M406 203 L407 202 L408 203 L407 204 Z M739 202 L740 201 L741 203 L740 204 Z M738 200 L739 199 L740 201 L739 202 Z M407 200 L408 199 L409 201 L408 202 Z M737 198 L738 197 L739 199 L738 200 Z M408 198 L409 197 L410 199 L409 200 Z M266 420 L269 409 L278 391 L288 381 L295 377 L302 375 L314 375 L325 380 L331 386 L336 394 L339 404 L339 422 L334 434 L328 440 L322 443 L318 443 L317 444 L311 443 L307 441 L301 435 L298 426 L298 421 L300 415 L304 411 L311 410 L315 414 L315 419 L311 423 L312 424 L317 418 L317 411 L310 404 L302 405 L296 411 L293 418 L293 432 L295 438 L298 443 L303 448 L314 453 L322 453 L332 449 L341 440 L345 432 L348 421 L348 404 L345 393 L340 383 L329 371 L328 354 L329 353 L329 347 L331 343 L331 340 L339 325 L363 298 L383 270 L398 244 L408 223 L410 221 L421 200 L432 184 L439 177 L441 181 L446 186 L457 190 L692 190 L702 186 L709 177 L720 190 L732 209 L751 247 L763 268 L784 298 L809 327 L815 338 L818 350 L818 369 L817 372 L808 381 L804 387 L800 397 L799 406 L798 407 L799 425 L805 440 L814 449 L825 453 L831 453 L838 451 L844 447 L851 437 L853 430 L853 418 L849 409 L842 404 L834 405 L829 411 L829 418 L834 424 L831 419 L831 415 L835 410 L840 410 L846 415 L847 423 L848 424 L847 425 L847 429 L845 434 L840 440 L834 443 L822 442 L818 440 L813 435 L808 425 L807 421 L807 405 L810 395 L816 385 L820 381 L832 375 L845 375 L852 377 L859 381 L866 388 L872 397 L878 412 L878 416 L880 422 L880 430 L881 431 L881 440 L880 441 L879 459 L876 469 L875 468 L875 464 L877 457 L877 425 L876 424 L875 414 L871 403 L866 395 L858 387 L848 382 L838 381 L826 385 L818 392 L812 404 L811 419 L813 427 L816 431 L813 422 L813 407 L817 396 L821 391 L829 385 L835 383 L845 383 L852 385 L857 388 L868 400 L874 415 L876 430 L877 431 L876 432 L876 455 L875 456 L874 467 L871 475 L871 478 L866 492 L861 501 L859 509 L857 510 L846 501 L832 492 L812 482 L792 474 L768 461 L759 453 L755 447 L751 434 L750 336 L749 335 L748 312 L747 311 L745 295 L741 282 L736 271 L729 260 L714 245 L705 239 L684 230 L661 226 L660 225 L654 225 L653 224 L635 223 L634 222 L622 222 L621 221 L602 221 L601 220 L532 221 L531 222 L516 222 L515 223 L505 223 L504 224 L496 224 L489 226 L483 226 L456 233 L445 238 L430 248 L421 257 L413 268 L405 285 L401 299 L399 317 L398 318 L397 344 L396 345 L395 433 L394 434 L393 442 L390 448 L379 460 L370 466 L312 493 L298 502 L289 510 L286 507 L286 505 L276 483 L275 477 L273 473 L273 469 L270 458 L270 452 L269 451 L269 432 L270 431 L271 420 L275 407 L282 395 L293 386 L302 383 L315 384 L322 388 L326 392 L331 400 L333 407 L333 423 L330 430 L331 430 L335 420 L334 404 L328 392 L323 387 L313 382 L299 382 L286 389 L277 400 L270 418 L269 432 L268 433 L268 451 L269 452 L269 459 L270 460 L270 466 L269 467 L267 462 L266 450 L265 449 L265 427 L266 426 Z M433 167 L434 166 L435 167 L434 168 Z M765 129 L767 130 L767 136 L772 155 L783 178 L801 203 L823 227 L823 233 L824 234 L824 272 L823 273 L823 298 L822 299 L804 285 L784 263 L769 241 L753 207 L747 188 L745 175 L744 174 L743 156 L745 149 L751 140 Z M381 129 L388 133 L396 140 L400 145 L403 152 L404 167 L403 168 L403 174 L398 195 L388 222 L371 252 L352 276 L335 292 L325 299 L324 298 L324 285 L323 284 L323 253 L322 252 L323 230 L324 227 L347 202 L362 181 L375 154 L379 138 L379 132 Z M764 120 L771 120 L772 121 L766 124 L760 131 L755 134 L749 140 L743 150 L741 157 L741 166 L742 167 L744 183 L751 206 L764 235 L783 264 L804 287 L824 302 L825 300 L825 266 L826 265 L826 236 L825 235 L825 228 L794 192 L783 175 L775 159 L771 148 L769 135 L768 134 L768 126 L775 122 L784 156 L793 175 L807 195 L830 222 L831 233 L832 234 L832 301 L831 302 L831 314 L830 315 L806 299 L782 275 L763 246 L750 221 L750 219 L743 204 L735 177 L735 172 L734 171 L734 165 L733 164 L734 149 L739 139 L749 129 Z M382 120 L399 130 L408 139 L413 150 L413 154 L414 155 L413 171 L404 205 L388 239 L382 248 L379 255 L367 272 L354 287 L342 298 L326 310 L316 316 L315 315 L315 288 L314 287 L314 236 L315 235 L316 223 L339 196 L358 167 L358 165 L365 150 L372 122 L379 127 L378 128 L377 142 L368 167 L357 186 L349 197 L322 228 L322 232 L321 233 L321 273 L322 274 L322 301 L323 302 L331 297 L343 287 L355 275 L370 256 L384 233 L397 203 L405 171 L405 154 L402 146 L396 138 L388 131 L382 128 L380 126 L381 125 L378 122 L375 121 L376 120 Z M762 119 L763 120 L754 124 L743 132 L737 139 L732 148 L730 164 L731 165 L731 172 L734 185 L738 195 L737 198 L725 177 L713 161 L709 153 L707 146 L708 136 L709 133 L715 125 L726 117 Z M385 119 L418 118 L421 117 L428 121 L435 128 L439 135 L440 144 L439 145 L438 153 L434 161 L425 173 L410 198 L409 196 L413 186 L415 173 L416 172 L416 161 L417 159 L416 158 L415 149 L410 139 L400 129 L384 120 Z M437 113 L441 110 L516 109 L520 116 L525 120 L622 120 L625 119 L631 109 L706 110 L710 112 L709 114 L707 113 L708 114 L699 123 L693 135 L693 147 L695 153 L701 163 L698 165 L693 175 L691 177 L685 179 L462 179 L458 178 L454 175 L452 169 L446 163 L448 161 L453 150 L453 146 L454 145 L453 132 L448 123 Z M436 111 L436 114 L445 122 L452 135 L451 150 L444 164 L450 169 L452 175 L455 178 L460 180 L476 180 L477 181 L674 181 L675 180 L688 180 L695 175 L698 168 L703 163 L699 158 L696 151 L695 136 L699 126 L711 114 L711 111 L709 109 L657 108 L656 107 L632 107 L629 109 L628 112 L623 118 L524 118 L518 109 L515 107 L454 108 L453 109 L438 109 Z M294 420 L297 412 L302 407 L304 406 L311 406 L313 408 L312 409 L310 408 L304 409 L298 415 L296 422 L297 432 L299 436 L306 443 L311 445 L322 445 L327 443 L335 436 L340 427 L341 418 L342 417 L342 408 L339 395 L333 385 L325 377 L320 374 L319 355 L320 354 L320 347 L321 346 L322 338 L330 322 L356 293 L377 264 L399 226 L416 193 L429 173 L433 169 L437 167 L434 166 L441 153 L442 140 L436 127 L424 116 L425 110 L429 104 L465 103 L466 102 L523 102 L530 113 L617 113 L624 102 L680 102 L681 103 L708 103 L709 104 L719 104 L724 115 L709 130 L705 139 L705 150 L706 154 L712 164 L711 167 L719 174 L732 194 L757 242 L769 262 L788 289 L808 311 L818 324 L825 339 L826 349 L827 350 L826 374 L818 380 L812 387 L808 394 L805 403 L804 416 L805 417 L806 426 L809 433 L815 440 L825 445 L834 445 L841 442 L846 437 L848 433 L850 423 L847 414 L842 409 L840 408 L834 409 L833 408 L835 406 L839 405 L846 408 L849 412 L852 420 L852 426 L851 427 L851 432 L846 442 L838 449 L832 451 L823 451 L814 447 L805 437 L801 427 L801 422 L800 421 L800 404 L803 393 L810 381 L819 372 L820 352 L817 339 L810 326 L784 296 L767 272 L751 244 L751 242 L749 240 L735 211 L728 199 L717 183 L708 174 L706 176 L705 180 L700 185 L693 188 L688 188 L687 189 L686 188 L685 189 L461 189 L460 188 L455 188 L448 185 L442 179 L440 174 L438 175 L432 181 L419 200 L396 245 L379 274 L361 298 L338 324 L329 341 L327 349 L327 356 L326 357 L327 371 L336 380 L343 392 L346 403 L346 422 L343 433 L340 439 L332 447 L323 451 L313 451 L307 449 L300 443 L296 436 L294 428 Z M371 118 L367 125 L367 130 L365 135 L363 149 L354 169 L344 185 L329 204 L316 218 L313 223 L312 232 L311 233 L311 254 L301 257 L282 267 L267 278 L256 289 L246 303 L238 319 L234 335 L234 342 L233 343 L233 480 L234 481 L234 535 L235 536 L236 618 L237 619 L237 650 L238 651 L238 682 L239 683 L240 755 L244 760 L244 775 L243 776 L242 795 L241 796 L241 801 L240 802 L237 823 L236 824 L235 839 L236 840 L236 849 L239 859 L243 865 L249 870 L249 880 L248 881 L249 932 L250 933 L250 952 L251 953 L251 966 L252 967 L252 978 L253 979 L253 989 L254 990 L254 1002 L255 1003 L257 1025 L258 1026 L258 1032 L259 1033 L259 1038 L260 1039 L263 1059 L268 1079 L270 1083 L270 1086 L274 1095 L276 1103 L288 1127 L299 1143 L316 1161 L330 1172 L343 1180 L367 1191 L392 1199 L413 1203 L414 1204 L418 1204 L419 1205 L444 1208 L445 1209 L466 1210 L467 1211 L482 1211 L483 1212 L509 1212 L510 1213 L634 1213 L635 1212 L660 1212 L661 1211 L673 1211 L674 1210 L685 1210 L686 1209 L703 1208 L704 1207 L716 1206 L717 1205 L737 1202 L771 1192 L799 1179 L810 1172 L825 1160 L833 1152 L844 1138 L859 1112 L859 1110 L864 1100 L868 1086 L870 1083 L878 1051 L881 1031 L882 1030 L885 1002 L886 1001 L886 994 L887 993 L887 986 L888 985 L890 954 L891 953 L891 940 L892 939 L893 870 L901 862 L905 853 L906 843 L907 842 L906 822 L905 821 L904 810 L901 798 L898 761 L902 757 L903 754 L903 706 L904 705 L904 675 L905 674 L905 654 L906 653 L908 569 L909 568 L909 534 L910 533 L913 358 L912 357 L912 339 L911 338 L911 332 L910 331 L909 323 L900 303 L890 289 L879 278 L854 261 L840 255 L836 256 L835 255 L836 251 L835 248 L835 230 L834 229 L833 221 L804 187 L793 170 L785 153 L784 146 L781 138 L778 120 L774 117 L728 114 L721 102 L719 101 L711 101 L710 100 L624 99 L620 102 L616 110 L532 110 L526 100 L524 99 L466 99 L465 100 L436 100 L435 101 L428 101 L425 103 L420 114 L384 116 L383 117 Z" fill="#eef3f4" fill-rule="evenodd"/>
</svg>
