<svg xmlns="http://www.w3.org/2000/svg" width="1086" height="1448" viewBox="0 0 1086 1448">
  <title>0150</title>
  <path d="M525 1281 L525 1294 L523 1301 L524 1313 L530 1323 L535 1326 L538 1325 L546 1317 L547 1313 L546 1316 L537 1324 L533 1324 L527 1317 L525 1312 L525 1297 L527 1291 L526 1281 Z M448 1277 L456 1287 L483 1314 L493 1322 L513 1334 L526 1339 L535 1340 L536 1341 L560 1342 L561 1341 L573 1340 L583 1337 L594 1332 L603 1326 L609 1320 L614 1319 L620 1316 L632 1306 L629 1307 L621 1314 L611 1318 L598 1328 L582 1336 L570 1339 L565 1339 L564 1340 L539 1340 L538 1339 L532 1339 L514 1333 L498 1324 L478 1308 Z M675 1262 L638 1299 L637 1302 L658 1282 Z M524 1257 L520 1264 L520 1275 L524 1279 L521 1274 L521 1264 Z M598 1190 L596 1193 L596 1197 L594 1201 L593 1208 L577 1257 L565 1287 L559 1295 L554 1297 L550 1301 L548 1308 L549 1308 L550 1302 L554 1298 L558 1297 L566 1288 L575 1264 L578 1259 L585 1238 L585 1235 L587 1232 L587 1229 L595 1206 Z M461 1169 L466 1180 L472 1189 L491 1210 L494 1216 L509 1233 L518 1236 L526 1241 L529 1246 L527 1254 L529 1252 L529 1245 L527 1241 L524 1238 L518 1235 L512 1234 L503 1225 L494 1214 L491 1208 L474 1190 Z M646 1168 L645 1168 L641 1185 L639 1204 L638 1205 L638 1212 L637 1213 L637 1219 L636 1220 L634 1234 L632 1238 L626 1263 L624 1266 L620 1280 L618 1283 L618 1286 L616 1289 L616 1292 L610 1311 L610 1315 L617 1294 L617 1291 L629 1258 L629 1255 L631 1251 L635 1235 L635 1231 L638 1221 L639 1209 L640 1208 L642 1186 L643 1185 Z M603 1125 L602 1125 L601 1134 L598 1138 L594 1151 L589 1161 L587 1169 L587 1174 L592 1183 L597 1187 L592 1181 L592 1179 L589 1175 L589 1166 L597 1147 L597 1142 L602 1135 Z M673 1097 L667 1116 L664 1131 L662 1135 L657 1158 L646 1192 L644 1203 L657 1163 Z M442 1078 L443 1077 L445 1078 L444 1079 Z M678 1011 L679 1010 L680 1011 L679 1012 Z M679 1010 L680 1009 L681 1010 L680 1011 Z M680 1008 L681 1007 L682 1009 L681 1010 Z M681 1007 L682 1006 L683 1007 L682 1008 Z M365 996 L366 995 L367 996 L366 997 Z M364 994 L365 993 L366 994 L365 995 Z M363 992 L364 991 L365 993 L364 994 Z M362 990 L363 989 L364 991 L363 992 Z M455 987 L468 1015 L473 1035 L473 1060 L470 1070 L467 1076 L463 1080 L456 1081 L452 1079 L456 1082 L461 1082 L466 1079 L472 1069 L474 1061 L474 1056 L475 1055 L475 1040 L468 1012 L461 997 L459 995 L457 989 Z M592 986 L573 1010 L563 1028 L557 1047 L557 1052 L556 1053 L556 1075 L559 1085 L564 1089 L565 1089 L561 1086 L559 1082 L558 1074 L557 1073 L557 1057 L558 1056 L558 1050 L559 1049 L560 1041 L568 1021 L580 1002 Z M304 984 L304 987 L314 1011 L328 1033 L331 1035 L337 1045 L344 1073 L352 1093 L356 1099 L356 1101 L367 1117 L389 1137 L399 1159 L405 1168 L408 1186 L410 1192 L412 1193 L411 1189 L412 1188 L412 1176 L414 1170 L414 1165 L409 1154 L407 1146 L393 1132 L401 1140 L406 1147 L413 1166 L413 1170 L411 1176 L411 1184 L410 1185 L408 1182 L405 1165 L399 1157 L397 1151 L391 1141 L392 1138 L367 1115 L360 1105 L351 1087 L347 1074 L345 1071 L338 1043 L325 1027 L321 1019 L317 1014 L306 991 Z M807 946 L805 948 L796 975 L788 991 L779 1003 L776 1011 L776 1014 L772 1021 L762 1031 L751 1033 L741 1044 L733 1055 L732 1058 L733 1064 L730 1071 L731 1072 L731 1078 L729 1084 L724 1092 L720 1096 L718 1101 L718 1114 L715 1120 L715 1129 L711 1143 L703 1157 L699 1174 L690 1194 L683 1215 L677 1227 L679 1226 L679 1224 L681 1222 L686 1211 L690 1198 L699 1178 L705 1156 L713 1142 L714 1136 L716 1132 L716 1121 L720 1112 L719 1101 L724 1093 L728 1089 L732 1080 L732 1069 L735 1064 L734 1057 L738 1050 L752 1034 L762 1032 L766 1030 L775 1019 L780 1004 L789 992 L796 978 Z M678 923 L679 922 L680 924 L679 925 Z M680 917 L681 918 L680 921 L679 920 Z M638 911 L639 910 L640 911 L639 912 Z M447 908 L448 907 L456 907 L457 908 L470 909 L476 911 L486 912 L512 921 L520 922 L521 923 L537 923 L538 922 L543 922 L550 920 L558 920 L559 919 L601 919 L602 920 L578 926 L560 928 L559 929 L554 929 L542 932 L526 933 L525 932 L516 932 L504 929 L495 925 L457 913 Z M638 907 L639 906 L640 907 L639 908 Z M409 901 L416 913 L429 930 L441 943 L454 954 L468 963 L470 963 L481 969 L497 974 L514 976 L515 977 L542 977 L543 976 L560 974 L574 969 L590 961 L606 950 L620 938 L638 918 L638 917 L623 933 L604 950 L580 965 L564 971 L561 971 L557 973 L546 974 L545 975 L513 975 L512 974 L500 973 L483 968 L459 956 L444 944 L435 935 L421 918 L417 911 Z M409 894 L411 893 L436 905 L442 909 L444 909 L454 914 L463 916 L509 932 L520 933 L521 934 L538 934 L539 933 L545 933 L557 930 L563 930 L564 929 L593 925 L612 919 L615 917 L619 917 L630 913 L633 913 L636 911 L639 912 L621 928 L603 942 L579 956 L565 961 L552 964 L546 964 L545 965 L517 965 L516 964 L508 964 L507 963 L498 962 L484 958 L467 950 L459 944 L456 943 L446 935 L416 904 Z M408 893 L409 892 L410 893 L409 894 Z M408 889 L409 888 L411 889 L410 890 Z M407 888 L408 887 L409 888 L408 889 Z M410 890 L413 889 L423 892 L434 892 L435 891 L441 891 L442 890 L446 890 L462 886 L467 886 L468 885 L490 885 L491 886 L499 887 L513 894 L515 896 L524 899 L536 899 L549 894 L564 892 L565 893 L572 893 L580 895 L601 904 L604 904 L615 908 L634 908 L635 907 L638 908 L627 913 L610 917 L556 917 L555 918 L549 918 L542 920 L523 921 L506 917 L494 912 L478 908 L466 907 L465 906 L457 906 L456 905 L447 905 L443 907 L441 904 L419 896 Z M545 825 L543 826 L543 835 L542 836 L544 873 L541 882 L535 887 L542 883 L545 876 L545 860 L544 859 L544 826 Z M372 821 L373 822 L373 826 L372 827 L371 826 L371 822 Z M553 821 L549 830 L550 875 L545 886 L550 881 L551 871 L552 870 L551 867 L550 832 L551 831 L551 827 L553 824 Z M607 819 L608 818 L609 819 L608 820 Z M514 818 L514 835 L513 836 L513 841 L507 867 L507 877 L509 882 L510 882 L509 878 L509 865 L510 864 L511 855 L514 845 L515 834 L516 833 L516 824 Z M586 815 L587 814 L590 815 L589 816 Z M589 814 L590 813 L592 814 L591 815 Z M623 809 L615 817 L611 819 L608 818 L612 814 L619 811 L622 808 Z M560 813 L564 810 L571 808 L582 808 L589 811 L585 814 L574 814 L573 815 L564 814 L563 813 L561 814 Z M506 809 L507 808 L509 809 L508 810 Z M459 809 L460 808 L462 809 L461 810 Z M623 807 L624 806 L625 807 L624 808 Z M474 804 L476 803 L479 806 L477 807 Z M478 803 L480 801 L484 800 L491 800 L501 803 L507 808 L506 809 L503 808 L492 808 L490 809 L484 807 Z M471 803 L474 808 L484 811 L489 811 L490 810 L504 810 L513 814 L523 822 L521 823 L520 839 L518 844 L518 849 L516 854 L514 869 L513 870 L514 879 L516 883 L521 886 L517 882 L515 877 L515 868 L521 842 L522 828 L523 827 L522 823 L523 822 L529 824 L542 824 L549 821 L554 817 L562 816 L563 815 L576 818 L589 818 L594 815 L594 812 L587 807 L583 806 L569 806 L561 809 L550 818 L544 821 L531 822 L522 819 L507 804 L496 799 L481 798 L477 799 Z M830 796 L831 795 L832 796 L831 797 Z M843 783 L847 787 L851 799 L851 817 L850 818 L850 824 L845 841 L837 855 L829 863 L820 866 L817 865 L813 860 L813 850 L814 849 L815 841 L818 834 L818 831 L820 828 L827 805 L832 798 L831 793 L833 790 L835 790 L839 794 L842 803 L842 821 L836 841 L833 846 L824 855 L829 853 L833 849 L838 841 L842 830 L843 822 L844 821 L844 804 L840 792 L835 789 L834 787 L835 786 L836 787 L835 786 L838 783 Z M838 780 L839 779 L840 780 L839 781 Z M760 777 L758 816 L757 817 L756 829 L753 839 L753 843 L748 863 L742 879 L742 882 L738 890 L737 895 L729 915 L707 961 L688 994 L661 1033 L641 1055 L636 1062 L653 1045 L696 993 L723 951 L737 923 L737 921 L739 919 L747 899 L749 891 L751 888 L758 865 L758 861 L763 842 L765 823 L766 822 L767 799 L765 821 L764 822 L764 827 L763 828 L763 833 L762 834 L759 854 L754 874 L742 908 L735 922 L735 924 L715 962 L696 991 L683 1007 L682 1005 L691 992 L706 966 L725 928 L725 926 L729 919 L741 889 L751 857 L755 836 L756 835 L756 831 L757 830 L758 817 L759 816 L759 806 L760 805 Z M335 774 L333 791 L332 792 L331 810 L330 811 L330 825 L329 826 L330 872 L331 873 L333 893 L334 894 L337 913 L339 917 L341 928 L352 963 L363 988 L362 990 L352 974 L337 940 L331 923 L323 891 L321 872 L320 871 L320 861 L319 860 L319 835 L320 834 L320 822 L321 821 L321 813 L322 812 L322 805 L323 804 L325 786 L322 797 L322 805 L320 812 L319 831 L318 832 L318 863 L319 864 L319 874 L320 875 L321 887 L322 888 L326 910 L328 914 L328 918 L336 942 L344 959 L344 961 L359 989 L383 1025 L363 986 L353 961 L344 933 L342 922 L338 910 L337 900 L335 895 L333 876 L332 875 L332 865 L331 864 L331 818 L332 817 L332 803 L333 802 L333 793 L334 792 L334 784 L335 783 Z M398 880 L404 854 L413 827 L415 824 L423 799 L435 770 L436 771 L435 785 L437 793 L441 800 L448 807 L455 811 L472 815 L488 815 L492 813 L470 813 L462 811 L461 810 L463 808 L455 803 L455 797 L460 791 L466 788 L474 786 L481 786 L482 785 L483 786 L497 787 L509 792 L530 798 L550 798 L551 797 L562 796 L574 793 L594 794 L603 798 L610 805 L611 811 L613 812 L610 813 L607 817 L596 822 L584 822 L576 820 L579 822 L587 823 L588 824 L607 823 L621 816 L627 809 L631 799 L632 787 L633 786 L634 787 L637 812 L638 813 L638 818 L639 819 L639 824 L642 837 L642 843 L643 844 L643 850 L644 851 L647 881 L648 882 L649 902 L644 905 L640 904 L635 906 L625 906 L624 907 L614 906 L600 902 L584 895 L569 891 L556 891 L536 897 L523 897 L519 896 L500 886 L492 884 L487 884 L486 883 L471 883 L470 884 L463 884 L462 885 L453 886 L443 889 L422 890 L421 889 L413 888 L407 885 L403 885 Z M698 765 L694 774 L691 794 L690 795 L690 805 L689 806 L690 870 L689 871 L689 882 L688 883 L687 895 L686 896 L682 917 L681 918 L680 917 L680 913 L681 912 L681 906 L683 898 L684 868 L685 867 L684 865 L684 843 L683 842 L683 799 L684 798 L684 788 L685 787 L687 765 L685 772 L685 778 L684 779 L683 796 L682 797 L682 809 L681 810 L681 830 L682 831 L682 851 L683 852 L683 883 L682 884 L682 894 L681 895 L680 909 L675 929 L675 933 L665 962 L645 1001 L625 1034 L610 1056 L597 1072 L596 1075 L606 1064 L616 1050 L643 1008 L666 964 L680 928 L680 925 L683 918 L687 902 L689 885 L690 884 L690 876 L691 875 L691 836 L690 835 L691 799 L692 798 L692 790 L693 789 L695 774 Z M854 756 L855 755 L856 756 L855 757 Z M855 754 L856 753 L857 754 L856 755 Z M851 754 L852 753 L853 755 L852 756 Z M856 753 L857 752 L858 753 L857 754 Z M852 752 L853 751 L854 753 L853 754 Z M853 750 L854 749 L855 751 L854 752 Z M244 745 L249 750 L252 771 L253 772 L253 779 L254 780 L254 802 L253 803 L252 813 L250 816 L248 816 L245 813 L242 807 L239 797 L239 793 L237 787 L237 779 L236 778 L236 767 L237 766 L238 754 L241 748 Z M784 744 L763 752 L751 754 L746 756 L741 756 L737 757 L737 758 L743 758 L748 756 L753 756 L765 752 L768 752 L778 748 Z M653 741 L654 740 L655 741 L654 742 Z M237 739 L242 739 L246 743 L242 744 L239 747 L235 760 L235 768 L234 769 L235 787 L236 788 L236 793 L239 805 L245 816 L248 818 L250 818 L253 815 L255 808 L255 799 L256 798 L258 805 L258 825 L257 828 L252 832 L249 831 L243 825 L237 813 L231 788 L231 782 L230 781 L230 753 L232 746 Z M335 738 L336 737 L337 738 L336 739 Z M882 736 L876 768 L875 769 L873 784 L872 785 L872 790 L871 791 L869 808 L865 824 L865 829 L864 830 L861 849 L859 854 L859 858 L857 863 L857 867 L853 880 L853 884 L851 888 L848 903 L846 907 L845 914 L838 935 L838 938 L821 986 L807 1018 L807 1020 L804 1025 L802 1032 L799 1037 L797 1044 L794 1049 L778 1091 L757 1136 L755 1138 L728 1190 L711 1218 L680 1258 L693 1244 L716 1213 L732 1186 L750 1151 L752 1149 L775 1102 L788 1068 L791 1063 L792 1058 L800 1041 L801 1036 L811 1015 L813 1008 L824 983 L844 924 L846 913 L848 909 L859 865 L859 861 L862 851 L862 847 L866 831 L866 826 L870 810 L870 805 L871 804 L874 781 L876 776 Z M389 729 L390 730 L389 750 L387 756 L387 761 L386 762 L386 767 L382 782 L382 786 L373 821 L372 820 L372 815 L373 814 L373 807 L374 806 L378 774 L379 773 L380 752 L381 751 L381 741 L380 740 L379 730 L380 729 Z M717 725 L724 734 L732 752 L733 769 L731 772 L730 771 L730 764 L729 763 L728 755 L722 738 L716 727 Z M818 725 L797 738 L796 740 L814 729 Z M715 725 L716 724 L717 725 L716 726 Z M731 788 L734 778 L734 770 L735 769 L734 753 L732 746 L726 734 L715 721 L713 722 L713 724 L721 740 L726 756 L725 759 L702 760 L701 759 L687 758 L674 754 L664 749 L650 735 L643 730 L645 733 L654 740 L652 741 L656 745 L663 750 L675 756 L690 760 L696 760 L697 761 L718 761 L726 759 L729 771 L729 784 L730 785 L729 788 L730 789 Z M421 717 L422 716 L423 717 L422 718 Z M771 715 L776 718 L783 725 L792 740 L793 749 L794 750 L794 760 L792 768 L791 767 L791 754 L790 753 L789 745 L783 732 L777 723 L770 716 Z M287 709 L288 710 L288 714 L287 715 L286 714 L286 710 Z M762 708 L762 710 L777 726 L786 742 L789 753 L789 762 L790 763 L790 776 L789 777 L789 787 L788 788 L790 790 L790 787 L794 775 L795 761 L796 760 L796 751 L795 750 L794 740 L786 726 L772 713 L766 709 Z M355 698 L356 699 L354 703 L344 717 L337 736 L336 735 L336 729 L340 715 L349 703 Z M355 698 L356 697 L357 698 L356 699 Z M244 698 L245 697 L246 698 L245 699 Z M356 697 L357 696 L358 697 L357 698 Z M243 695 L244 694 L245 696 L244 697 Z M301 688 L302 691 L314 702 L337 717 L334 729 L334 744 L333 745 L334 747 L334 754 L336 754 L340 732 L346 719 L347 721 L351 723 L364 727 L374 728 L378 730 L379 733 L379 743 L380 744 L379 745 L379 762 L378 763 L378 771 L377 772 L375 792 L372 805 L371 820 L369 828 L369 838 L368 839 L368 851 L367 852 L367 888 L368 889 L369 904 L374 924 L374 928 L376 932 L382 956 L400 1009 L418 1047 L431 1065 L431 1063 L428 1060 L417 1042 L397 997 L378 937 L374 921 L372 907 L371 906 L370 892 L369 891 L369 854 L370 853 L370 846 L371 845 L375 818 L377 813 L377 809 L379 804 L379 800 L384 783 L384 779 L388 763 L389 751 L390 750 L390 741 L391 740 L391 731 L390 730 L411 725 L423 718 L422 716 L431 710 L420 716 L412 723 L404 726 L393 727 L392 728 L370 727 L357 724 L346 719 L348 714 L360 697 L361 693 L359 693 L353 697 L344 706 L337 717 L335 714 L324 708 L312 699 Z M808 686 L817 692 L825 700 L829 706 L834 718 L834 733 L833 734 L832 733 L831 720 L826 708 L819 698 L807 687 Z M806 686 L807 685 L808 686 L807 687 Z M804 685 L805 684 L806 685 L805 686 Z M791 677 L791 679 L807 689 L818 700 L826 712 L830 724 L830 733 L831 734 L830 752 L828 758 L828 762 L829 762 L836 737 L836 719 L834 712 L828 701 L816 689 L805 682 Z M737 676 L734 677 L719 688 L709 693 L694 697 L675 697 L674 696 L669 696 L656 693 L640 688 L630 688 L629 689 L644 690 L658 695 L671 697 L672 698 L689 699 L690 698 L702 697 L713 693 L726 685 Z M261 672 L262 671 L263 672 L262 673 Z M215 671 L219 735 L220 736 L220 743 L221 744 L221 751 L222 752 L222 759 L223 760 L223 767 L225 775 L227 796 L230 807 L232 822 L238 846 L242 856 L242 859 L248 877 L259 903 L259 906 L261 909 L275 952 L275 955 L278 962 L278 965 L286 989 L286 992 L290 1001 L290 1004 L293 1010 L297 1024 L311 1059 L318 1072 L318 1074 L320 1076 L331 1099 L356 1142 L366 1162 L384 1192 L413 1234 L419 1240 L386 1193 L363 1154 L347 1123 L332 1098 L312 1058 L300 1028 L288 993 L288 990 L285 983 L285 980 L282 973 L282 970 L273 943 L273 940 L258 896 L250 878 L234 826 L233 817 L231 812 L231 806 L228 795 L228 790 L227 789 L226 774 L225 773 L224 759 L223 758 L220 717 L219 716 L219 705 L218 704 L218 696 L217 695 L216 672 Z M262 669 L263 668 L264 670 L263 671 Z M612 674 L615 675 L623 670 L630 668 L640 668 L641 669 L653 670 L658 672 L663 672 L667 674 L673 674 L668 672 L663 672 L654 669 L639 667 L638 666 L627 667 L614 674 Z M315 665 L316 666 L302 678 L295 688 L292 694 L288 708 L287 707 L288 697 L294 682 L303 672 L310 667 Z M264 665 L265 666 L264 669 L263 668 Z M315 665 L316 664 L318 665 L317 666 Z M317 664 L318 663 L320 664 L319 665 Z M763 662 L764 661 L765 662 L764 663 Z M766 661 L767 660 L768 661 L767 662 Z M761 661 L762 660 L764 661 L763 662 Z M764 668 L755 662 L744 661 L729 668 L713 673 L708 673 L707 674 L677 674 L677 675 L684 675 L685 676 L704 676 L705 675 L710 675 L728 670 L744 662 L753 663 L761 668 Z M765 660 L766 659 L767 660 L766 661 Z M760 660 L761 659 L762 660 L761 661 Z M764 659 L765 658 L766 659 L765 660 Z M759 659 L760 658 L761 659 L760 660 Z M332 659 L322 660 L310 665 L304 669 L293 681 L292 678 L281 664 L284 670 L293 681 L288 690 L285 703 L285 710 L284 711 L284 746 L285 747 L285 757 L287 761 L287 728 L288 727 L288 718 L294 694 L301 682 L312 671 L319 666 L329 661 L331 661 Z M763 658 L764 657 L765 658 L764 659 Z M762 657 L763 656 L764 657 L763 658 Z M662 657 L664 656 L666 658 L664 659 Z M761 656 L762 655 L763 656 L762 657 Z M760 655 L761 654 L762 655 L761 656 Z M759 654 L760 653 L761 654 L760 655 Z M758 653 L759 652 L760 653 L759 654 Z M505 653 L503 664 L498 675 L489 688 L473 707 L463 723 L463 726 L465 728 L469 729 L468 730 L462 730 L456 733 L445 744 L438 759 L436 767 L430 777 L427 787 L424 792 L406 844 L404 855 L400 865 L397 878 L396 898 L397 899 L397 909 L398 910 L400 926 L401 927 L399 907 L398 906 L398 885 L399 884 L429 921 L450 941 L468 953 L483 960 L506 966 L525 967 L526 968 L548 967 L549 966 L563 964 L575 960 L593 951 L614 936 L648 905 L649 906 L648 921 L640 955 L644 946 L649 925 L649 919 L650 918 L650 889 L648 881 L648 874 L647 873 L648 872 L646 864 L645 848 L644 847 L643 834 L642 833 L642 828 L641 827 L641 822 L638 809 L638 803 L632 779 L631 765 L626 752 L619 745 L615 743 L607 743 L606 742 L610 740 L613 740 L615 738 L615 732 L608 717 L608 715 L603 707 L593 686 L591 680 L590 667 L589 666 L589 677 L592 688 L609 721 L614 734 L614 737 L612 739 L608 739 L602 742 L589 755 L584 765 L583 772 L584 772 L586 764 L589 758 L597 749 L602 746 L609 744 L613 744 L618 746 L624 752 L627 758 L630 770 L630 796 L625 807 L623 806 L613 812 L612 811 L613 810 L610 802 L599 794 L587 791 L577 791 L576 792 L565 793 L564 792 L566 789 L566 784 L567 783 L567 764 L566 761 L565 762 L566 778 L565 779 L565 784 L563 790 L564 793 L563 794 L553 795 L552 796 L543 796 L542 797 L528 796 L495 785 L476 784 L464 787 L459 790 L455 794 L453 802 L446 796 L442 788 L442 778 L441 777 L443 762 L447 750 L452 743 L448 747 L441 764 L440 785 L442 792 L445 797 L450 802 L460 808 L457 809 L448 804 L444 800 L439 792 L437 784 L437 774 L442 754 L448 743 L460 732 L469 731 L476 734 L487 746 L491 755 L492 764 L494 765 L493 756 L486 741 L479 733 L472 728 L465 726 L464 724 L470 714 L488 692 L501 673 L505 663 L505 659 L506 658 L506 653 Z M757 652 L758 651 L759 652 L758 653 Z M756 651 L757 650 L758 651 L757 652 Z M756 655 L754 656 L746 654 L721 664 L708 667 L696 667 L695 668 L677 667 L676 666 L653 663 L643 660 L628 660 L619 664 L617 666 L616 665 L621 659 L630 656 L642 656 L665 662 L677 663 L678 664 L700 664 L701 663 L708 663 L722 659 L741 650 L748 650 Z M621 649 L623 654 L625 655 L619 658 L616 661 L615 659 Z M887 648 L886 648 L886 653 L887 654 L886 655 L886 670 L887 669 L887 659 L888 658 Z M283 642 L284 643 L273 654 L265 666 L264 665 L265 661 L270 653 L279 644 Z M742 642 L743 641 L745 643 L744 644 L745 643 L750 648 L749 649 L742 648 L741 647 Z M361 642 L362 644 L386 666 L399 673 L408 676 L412 676 L413 677 L437 677 L438 676 L443 676 L456 673 L462 673 L455 672 L454 673 L448 673 L441 675 L433 675 L432 676 L416 676 L415 675 L407 674 L394 669 L383 662 L368 647 Z M283 642 L284 641 L285 642 L284 643 Z M284 641 L285 640 L287 641 L286 642 Z M286 640 L287 639 L288 640 L287 641 Z M479 638 L481 640 L484 648 L483 651 L475 642 Z M397 636 L398 635 L399 636 L398 637 Z M891 634 L893 636 L897 636 L899 634 L900 635 L896 652 L894 651 L890 638 Z M439 633 L440 632 L441 633 L440 634 Z M440 631 L441 630 L442 631 L441 632 Z M898 630 L899 629 L900 630 L899 631 Z M358 630 L363 635 L372 641 L393 650 L401 652 L407 652 L408 653 L460 652 L468 654 L475 658 L480 663 L482 663 L472 654 L458 650 L448 650 L447 651 L437 651 L436 652 L422 652 L420 653 L419 652 L410 652 L409 651 L403 651 L383 645 L365 635 L361 631 Z M308 630 L298 632 L286 637 L275 645 L270 650 L264 659 L259 672 L258 681 L257 682 L258 717 L259 717 L259 708 L258 707 L259 706 L260 687 L261 686 L262 678 L267 668 L267 666 L272 658 L285 644 L295 637 L305 632 L307 632 Z M735 629 L736 628 L737 629 L736 630 Z M441 629 L442 628 L443 630 L442 631 Z M339 628 L340 629 L349 629 L350 630 L355 630 L356 629 L346 628 L345 627 L340 627 Z M660 623 L661 622 L662 623 L661 624 Z M659 622 L661 624 L659 626 L656 634 L656 642 L657 646 L663 656 L662 657 L656 651 L653 642 L654 630 Z M884 622 L882 625 L882 629 L881 630 L880 657 L881 657 L881 649 L883 642 L882 630 Z M659 622 L660 621 L661 622 L660 623 Z M655 621 L656 623 L652 630 L651 639 L652 640 L653 649 L659 657 L656 658 L641 654 L629 654 L628 655 L624 652 L624 647 L626 643 L643 627 L653 621 Z M677 620 L685 621 L690 624 L693 627 L696 633 L696 641 L693 648 L688 652 L683 654 L676 654 L669 651 L665 647 L662 639 L662 635 L664 629 L671 622 Z M655 621 L656 620 L657 621 L656 622 Z M347 620 L350 618 L362 619 L378 631 L391 637 L404 641 L417 642 L418 643 L419 642 L423 643 L437 642 L438 641 L446 641 L447 640 L463 640 L464 641 L468 641 L477 646 L482 653 L481 654 L476 649 L471 646 L463 644 L442 644 L441 645 L408 645 L407 644 L403 644 L383 638 L371 632 L359 623 Z M698 616 L700 615 L707 617 L725 626 L738 638 L740 641 L740 645 L731 653 L725 656 L713 660 L698 662 L697 661 L705 652 L708 644 L707 628 L703 621 Z M664 617 L673 614 L685 613 L694 616 L701 623 L705 631 L705 644 L702 651 L696 658 L688 662 L671 661 L665 659 L667 657 L661 651 L657 639 L660 627 L665 622 L667 623 L664 626 L661 632 L661 643 L663 646 L662 648 L663 647 L669 653 L673 655 L683 656 L690 653 L696 647 L698 641 L698 634 L693 624 L685 619 L674 619 L667 623 L666 621 L662 623 L660 621 Z M354 615 L356 613 L358 614 L357 613 L359 611 L361 612 L360 613 L361 615 L360 617 Z M689 611 L690 610 L697 610 L698 611 L707 612 L726 620 L732 624 L736 628 L735 629 L736 630 L737 629 L757 650 L755 651 L736 632 L719 620 L704 614 L696 612 L690 612 Z M610 667 L614 668 L616 665 L618 666 L626 662 L638 661 L639 662 L646 662 L660 666 L664 666 L670 668 L677 668 L678 669 L705 669 L706 668 L717 667 L729 663 L740 657 L744 656 L754 657 L756 659 L759 659 L763 663 L769 666 L771 666 L772 664 L754 640 L743 629 L734 622 L720 615 L706 610 L696 609 L695 608 L679 608 L678 609 L669 610 L658 614 L650 618 L636 628 L626 638 L619 647 L611 662 Z M444 606 L446 609 L447 616 L446 617 L446 623 L443 629 L442 626 L444 620 L444 610 L443 609 Z M442 605 L443 604 L444 606 L443 607 Z M578 603 L579 602 L580 604 L579 605 Z M441 603 L442 602 L443 603 L442 604 Z M793 600 L794 603 L793 627 L794 631 L798 637 L802 639 L812 639 L821 635 L831 627 L813 637 L805 638 L799 636 L795 630 L795 626 L794 625 L795 604 L794 600 Z M411 600 L414 599 L424 599 L429 601 L434 606 L437 614 L436 621 L434 625 L429 630 L424 632 L415 632 L409 629 L405 625 L403 620 L403 610 L405 606 Z M443 598 L448 600 L458 607 L469 619 L475 628 L477 636 L473 641 L464 638 L447 638 L446 639 L438 639 L437 638 L443 633 L448 622 L448 610 L444 601 L442 599 Z M524 598 L525 597 L526 599 L525 600 Z M415 597 L407 601 L403 606 L401 610 L401 620 L405 628 L410 632 L415 634 L424 634 L432 630 L437 624 L438 616 L439 615 L438 614 L438 610 L435 604 L429 599 L424 597 Z M399 593 L400 594 L395 599 L392 605 L390 613 L390 619 L392 626 L395 632 L398 635 L394 636 L388 634 L373 626 L363 617 L362 612 L366 607 L375 601 L383 597 Z M407 593 L413 591 L422 591 L434 594 L438 598 L442 608 L443 617 L439 631 L433 638 L429 640 L408 639 L403 636 L396 628 L393 618 L394 608 L399 599 Z M907 589 L908 590 L908 597 L907 598 L906 608 L905 609 L904 608 L904 602 L906 594 L904 593 L902 609 L900 615 L897 619 L895 619 L892 613 L892 600 L891 599 L890 600 L890 612 L893 620 L896 621 L899 619 L903 612 L903 609 L904 608 L905 609 L902 625 L898 629 L899 631 L896 634 L893 634 L890 631 L888 625 L888 592 L887 590 L889 589 L895 591 L903 591 Z M227 589 L225 596 L220 606 L221 607 L226 596 Z M790 588 L791 587 L792 589 L791 590 Z M417 588 L416 589 L409 589 L408 590 L400 590 L385 594 L369 602 L339 622 L335 621 L340 616 L354 606 L377 594 L397 588 L404 588 L405 587 L416 587 Z M591 587 L592 586 L593 587 L592 588 Z M331 622 L332 625 L340 623 L354 623 L358 624 L373 635 L385 641 L391 643 L395 643 L399 645 L410 646 L411 647 L436 647 L437 646 L447 646 L448 645 L460 645 L461 646 L466 646 L475 650 L483 658 L487 657 L487 651 L484 638 L478 626 L470 614 L456 600 L449 595 L439 590 L425 586 L415 586 L414 585 L399 586 L378 591 L358 600 L344 610 Z M887 579 L888 578 L889 579 L888 580 Z M227 578 L228 577 L229 578 L228 579 Z M754 606 L741 594 L732 588 L720 582 L708 578 L696 577 L695 576 L679 576 L678 577 L672 577 L671 578 L663 579 L641 588 L625 599 L612 612 L604 623 L597 636 L593 650 L593 663 L595 668 L597 682 L601 693 L609 707 L620 729 L620 731 L621 731 L620 726 L602 691 L601 686 L599 683 L597 675 L597 660 L599 652 L608 634 L623 615 L634 605 L646 597 L656 592 L680 586 L696 586 L697 587 L702 587 L710 589 L725 595 L737 603 L753 618 L773 646 L778 656 L780 657 L773 643 L761 625 L749 611 L736 600 L723 592 L710 587 L702 585 L696 585 L695 584 L681 584 L680 585 L674 585 L673 586 L665 587 L652 592 L641 598 L629 607 L616 620 L608 631 L601 644 L597 655 L597 658 L595 660 L594 659 L594 653 L599 635 L606 622 L621 604 L642 589 L664 580 L668 580 L674 578 L683 578 L684 577 L706 579 L728 587 L745 599 L761 616 L772 633 L774 638 L777 641 L769 626 Z M223 575 L228 580 L222 589 L221 588 L221 583 Z M605 573 L606 572 L607 573 L606 574 Z M237 573 L234 578 L233 586 L229 596 L233 592 L232 590 L234 587 Z M507 570 L508 569 L509 570 L508 571 Z M779 569 L780 568 L781 569 L780 570 Z M778 568 L779 567 L780 568 L779 569 Z M777 567 L778 566 L779 567 L778 568 Z M525 567 L526 566 L527 568 L526 569 Z M586 566 L587 565 L588 566 L587 567 Z M778 565 L779 564 L780 565 L779 566 Z M776 564 L777 563 L779 564 L778 565 Z M621 561 L622 560 L623 561 L622 562 Z M623 560 L624 559 L625 560 L624 561 Z M624 559 L625 558 L626 559 L625 560 Z M497 558 L498 557 L499 559 L498 560 Z M767 554 L768 553 L769 554 L768 555 Z M742 554 L743 553 L751 554 L773 564 L788 579 L791 584 L791 587 L790 588 L772 570 L763 564 Z M765 553 L766 552 L767 553 L766 554 Z M739 553 L740 552 L743 553 L742 554 Z M381 559 L362 569 L348 580 L343 586 L366 568 L387 558 L399 555 L405 555 L406 554 L429 555 L446 560 L456 565 L471 576 L485 591 L497 612 L501 627 L501 639 L500 640 L494 619 L488 607 L479 594 L464 579 L454 572 L442 566 L424 561 L404 561 L403 562 L398 562 L375 570 L346 589 L327 608 L329 608 L351 587 L366 577 L387 567 L403 563 L425 563 L426 564 L434 565 L449 571 L465 582 L480 598 L486 607 L493 621 L498 637 L499 654 L496 665 L489 678 L463 710 L455 722 L454 726 L465 710 L479 694 L493 675 L497 667 L500 656 L503 651 L503 645 L504 644 L503 629 L497 609 L491 598 L483 587 L468 572 L447 559 L423 553 L404 553 L403 554 L393 555 Z M763 552 L764 551 L766 552 L765 553 Z M516 551 L522 559 L521 560 L526 576 L526 594 L524 598 L520 590 L521 588 L521 573 L520 572 L519 562 L515 553 Z M850 550 L862 571 L861 573 L862 576 L861 583 L862 584 L863 611 L864 612 L864 624 L865 625 L866 637 L870 650 L878 667 L881 678 L881 699 L880 700 L880 705 L877 717 L873 728 L866 742 L858 753 L857 751 L866 733 L873 710 L873 705 L874 704 L875 691 L874 690 L873 677 L865 659 L859 637 L858 623 L857 622 L856 592 L855 591 L853 569 L849 553 Z M602 551 L603 550 L604 551 L603 552 Z M222 550 L223 551 L223 555 L222 556 L221 555 L221 551 Z M603 550 L604 549 L605 550 L604 551 Z M514 550 L515 549 L516 551 L515 552 Z M719 547 L721 545 L733 545 L734 546 L742 546 L750 548 L770 557 L777 563 L775 564 L758 555 L744 551 L731 551 Z M505 545 L511 560 L511 567 L512 568 L512 574 L511 575 L510 574 L509 564 L506 552 L504 548 Z M508 544 L511 547 L514 553 L518 565 L518 569 L519 570 L519 586 L518 587 L513 578 L514 577 L513 564 L512 563 L511 554 L507 546 Z M335 545 L333 546 L330 552 L324 576 L320 583 L314 587 L304 586 L294 580 L285 570 L285 572 L293 581 L302 587 L308 589 L312 589 L317 587 L323 581 L325 577 L331 553 Z M503 544 L504 543 L505 545 L504 546 Z M858 546 L862 548 L868 548 L872 547 L877 542 L878 543 L878 556 L879 557 L879 568 L880 569 L880 575 L879 576 L874 573 L866 565 L863 557 L857 547 Z M825 542 L823 548 L819 552 L819 562 L823 570 L827 573 L822 566 L820 561 L820 554 L823 549 L828 560 L830 558 L830 556 L828 556 L825 551 Z M750 542 L751 541 L752 542 L751 543 Z M747 541 L748 540 L750 541 L749 542 Z M699 543 L715 539 L731 539 L752 544 L764 551 L762 552 L751 547 L743 545 L738 545 L737 544 L719 544 L718 545 L710 546 L709 545 L703 545 Z M476 540 L477 539 L478 540 L477 541 Z M624 538 L625 539 L615 545 L604 557 L594 575 L587 594 L580 603 L579 600 L589 574 L597 561 L605 552 L604 549 L618 540 Z M503 539 L504 538 L509 543 L507 545 Z M851 538 L852 537 L853 538 L852 539 Z M624 538 L625 537 L627 538 L626 539 Z M502 538 L503 537 L504 538 L503 539 Z M501 537 L504 541 L503 544 L500 539 Z M850 537 L851 536 L852 537 L851 538 Z M626 537 L627 536 L628 537 L627 538 Z M501 537 L502 536 L503 537 L502 538 Z M499 537 L500 536 L501 537 L500 538 Z M338 537 L339 536 L340 537 L339 538 Z M500 536 L501 535 L502 536 L501 537 Z M849 535 L850 534 L851 535 L850 536 Z M637 534 L638 535 L624 545 L613 556 L603 575 L593 587 L592 584 L597 574 L597 572 L603 561 L609 553 L616 547 L617 548 L624 541 Z M679 543 L695 536 L703 534 L711 534 L712 533 L725 533 L726 534 L732 533 L748 540 L744 541 L733 538 L711 538 L710 539 L702 540 L695 543 L687 543 L686 544 L680 544 Z M637 534 L638 533 L640 534 L639 535 Z M639 533 L640 532 L642 533 L641 534 Z M237 532 L238 533 L237 550 L236 551 L235 550 L235 543 L234 543 L233 553 L229 561 L231 561 L235 550 L236 551 L235 555 L236 557 L233 568 L230 574 L226 576 L223 572 L224 570 L225 571 L225 568 L223 569 L222 568 L222 556 L223 555 L225 561 L227 564 L228 563 L225 558 L225 550 L224 549 L225 542 L224 542 L224 546 L223 547 L222 546 L222 537 Z M642 532 L643 531 L644 532 L643 533 Z M496 532 L497 531 L501 535 L499 536 Z M462 532 L463 531 L464 532 L463 533 Z M657 530 L646 536 L626 553 L624 557 L614 568 L607 573 L606 572 L613 559 L626 545 L640 535 L654 529 Z M723 531 L722 532 L702 533 L685 538 L671 545 L665 545 L664 546 L661 545 L680 534 L693 530 L714 528 Z M656 529 L657 528 L659 529 L658 530 Z M659 528 L660 527 L661 528 L660 529 Z M702 527 L679 533 L664 541 L655 548 L652 548 L645 551 L643 550 L658 538 L676 529 L688 526 L701 526 Z M681 526 L672 529 L668 532 L660 535 L651 541 L635 555 L627 559 L625 558 L638 544 L650 535 L657 532 L666 526 L674 526 L675 525 L680 525 Z M487 525 L494 532 L502 545 L508 568 L507 570 L504 566 L505 565 L504 566 L501 563 L501 560 L496 544 L490 533 L485 527 Z M849 525 L850 524 L851 526 L850 527 Z M347 525 L348 524 L349 525 L348 526 Z M875 523 L877 526 L877 538 L876 541 L871 546 L859 545 L854 540 L850 530 L850 527 L851 526 L857 530 L864 531 L870 529 Z M348 524 L349 523 L350 524 L349 525 Z M231 524 L232 523 L233 524 L232 525 Z M781 562 L766 548 L741 534 L716 526 L705 525 L704 524 L696 524 L695 523 L664 524 L663 525 L658 525 L641 529 L618 538 L597 552 L581 568 L571 583 L563 600 L563 603 L559 614 L559 619 L564 602 L573 583 L581 571 L586 566 L587 568 L578 581 L571 598 L568 614 L569 613 L572 600 L574 597 L577 587 L582 577 L589 567 L587 565 L588 563 L596 555 L602 551 L603 552 L598 557 L588 572 L578 598 L578 603 L577 604 L579 605 L571 618 L565 637 L565 642 L564 643 L565 682 L563 689 L563 704 L564 705 L564 747 L563 749 L565 757 L566 756 L564 750 L566 743 L566 711 L565 710 L564 691 L567 679 L566 676 L566 662 L565 661 L567 636 L573 618 L584 600 L592 590 L610 572 L627 560 L639 554 L661 547 L666 547 L667 546 L674 546 L675 545 L706 546 L707 547 L718 548 L722 550 L726 550 L733 553 L736 553 L759 563 L779 577 L787 586 L793 595 L794 594 L794 590 L791 579 L786 569 Z M349 523 L350 522 L352 523 L351 524 Z M480 522 L482 521 L487 525 L485 527 Z M479 521 L480 520 L481 521 L480 522 Z M351 522 L353 520 L356 521 L353 523 Z M355 520 L356 519 L358 520 L357 521 Z M241 530 L259 525 L269 519 L270 520 L262 555 L255 572 L253 571 L249 573 L248 570 L254 556 L255 548 L256 547 L256 539 L259 533 L259 529 L256 536 L254 544 L254 550 L251 558 L248 545 L245 543 L248 550 L250 562 L247 568 L244 579 L248 574 L250 574 L254 571 L255 573 L250 583 L236 601 L228 614 L223 634 L224 651 L225 652 L225 657 L227 665 L229 668 L229 671 L233 681 L242 698 L250 709 L257 727 L259 735 L259 740 L260 741 L260 747 L261 748 L263 776 L264 777 L264 785 L265 786 L265 793 L267 800 L269 821 L270 822 L275 851 L283 877 L283 880 L294 911 L303 930 L303 932 L316 957 L335 987 L361 1020 L382 1041 L402 1057 L420 1069 L446 1082 L466 1089 L486 1094 L499 1095 L500 1096 L509 1096 L510 1097 L536 1097 L537 1096 L554 1095 L555 1094 L575 1091 L601 1083 L631 1069 L659 1052 L685 1032 L702 1017 L733 985 L757 955 L775 928 L794 893 L794 891 L799 882 L799 880 L808 860 L809 855 L810 854 L811 855 L811 861 L813 865 L810 870 L803 889 L789 917 L767 952 L737 990 L703 1024 L669 1052 L650 1065 L619 1082 L594 1092 L591 1092 L584 1095 L572 1098 L556 1100 L555 1101 L548 1101 L547 1102 L535 1102 L534 1103 L498 1102 L497 1101 L485 1100 L480 1098 L475 1098 L450 1090 L430 1080 L428 1080 L419 1075 L396 1059 L385 1050 L358 1023 L328 984 L307 949 L307 947 L304 943 L304 941 L301 937 L284 896 L271 855 L263 823 L261 820 L260 802 L259 801 L258 787 L257 786 L256 774 L255 773 L252 752 L250 746 L245 738 L240 736 L236 737 L232 741 L228 754 L228 780 L229 781 L229 788 L230 789 L231 799 L235 813 L244 830 L250 834 L256 833 L259 830 L260 825 L261 824 L262 825 L273 869 L282 897 L284 900 L291 920 L310 959 L335 998 L353 1021 L378 1047 L392 1059 L416 1076 L448 1092 L469 1099 L473 1099 L478 1101 L493 1103 L494 1104 L501 1104 L502 1105 L544 1105 L545 1104 L553 1104 L554 1103 L570 1101 L607 1090 L638 1075 L669 1055 L689 1039 L690 1040 L699 1030 L711 1020 L726 1005 L760 965 L789 921 L803 893 L813 867 L815 866 L818 868 L824 868 L833 863 L840 855 L847 842 L853 820 L853 808 L854 807 L853 797 L849 786 L845 782 L839 779 L846 769 L859 755 L872 735 L879 717 L882 705 L882 700 L883 699 L883 678 L882 677 L882 673 L870 644 L873 641 L873 637 L874 636 L874 630 L873 629 L874 618 L873 618 L871 626 L872 637 L870 641 L867 633 L867 626 L866 625 L866 618 L865 617 L864 586 L863 585 L863 576 L862 574 L863 573 L868 579 L875 584 L886 589 L886 625 L887 626 L887 633 L890 645 L893 652 L895 660 L895 666 L896 667 L894 696 L893 697 L892 710 L891 711 L888 734 L886 740 L886 746 L884 752 L884 757 L883 758 L883 763 L882 764 L882 769 L881 770 L881 775 L880 776 L880 781 L877 794 L877 800 L875 806 L875 811 L874 812 L874 817 L873 818 L873 823 L871 829 L871 834 L870 835 L870 840 L867 851 L865 866 L863 871 L861 885 L858 894 L858 898 L854 911 L852 923 L834 981 L830 989 L825 1004 L822 1009 L821 1014 L798 1065 L797 1070 L786 1097 L783 1108 L771 1135 L771 1137 L769 1139 L769 1141 L755 1167 L734 1201 L700 1248 L666 1287 L644 1309 L616 1332 L599 1342 L582 1348 L574 1349 L573 1350 L567 1350 L566 1351 L555 1351 L554 1352 L534 1351 L533 1350 L520 1348 L501 1340 L487 1331 L471 1318 L450 1297 L435 1280 L392 1223 L366 1184 L359 1171 L339 1140 L318 1100 L316 1098 L301 1066 L291 1041 L283 1017 L281 1007 L275 990 L273 978 L270 970 L261 934 L234 860 L224 817 L221 793 L220 792 L219 777 L218 776 L218 767 L217 766 L217 759 L216 758 L214 730 L213 729 L213 719 L212 718 L211 693 L210 692 L210 669 L209 668 L210 628 L211 627 L212 616 L216 604 L228 584 L236 564 L238 548 L239 547 L239 532 Z M820 519 L821 518 L822 519 L821 520 Z M432 519 L435 518 L442 523 L441 524 L436 523 Z M269 519 L270 518 L271 519 L270 520 Z M431 518 L432 517 L433 518 L432 519 Z M470 516 L475 519 L486 530 L490 536 L497 551 L498 555 L497 558 L490 551 L488 542 L480 528 L469 517 Z M429 517 L430 516 L431 517 L430 518 Z M528 517 L540 530 L552 535 L568 534 L576 531 L587 524 L586 523 L581 527 L570 532 L566 533 L551 533 L540 528 L529 516 Z M468 516 L469 515 L470 516 L469 517 Z M428 516 L429 515 L430 516 L429 517 Z M407 518 L406 519 L388 519 L387 520 L382 520 L381 521 L368 523 L359 526 L347 532 L340 537 L339 536 L341 532 L345 528 L346 529 L351 525 L367 518 L375 516 L384 516 L385 515 L401 516 Z M466 515 L467 514 L469 515 L468 516 Z M465 514 L466 513 L467 514 L466 515 Z M463 513 L464 512 L465 513 L464 514 Z M458 512 L466 516 L478 528 L486 541 L488 546 L487 549 L480 543 L472 528 L457 513 Z M332 513 L324 520 L321 520 L318 518 L321 517 L327 511 Z M453 511 L456 510 L458 512 L456 513 Z M808 509 L812 511 L819 519 L822 528 L822 540 L824 538 L824 530 L821 520 L822 519 L824 520 L830 526 L830 542 L827 548 L828 549 L831 543 L831 528 L832 527 L841 536 L835 542 L832 552 L832 568 L830 573 L827 576 L823 576 L818 570 L819 567 L816 566 L813 561 L813 552 L815 546 L815 530 L812 519 L806 511 Z M451 510 L452 509 L454 510 L453 511 Z M357 519 L359 517 L358 516 L359 515 L361 516 L360 515 L361 514 L370 511 L379 510 L380 509 L397 509 L398 510 L405 510 L406 511 L415 512 L421 514 L433 521 L431 522 L424 520 L417 520 L407 516 L399 515 L398 514 L379 514 L378 515 L369 516 L359 520 Z M449 509 L450 508 L452 509 L451 510 Z M804 508 L806 507 L808 509 L806 511 Z M802 507 L803 506 L805 507 L804 508 Z M798 506 L799 505 L800 506 L799 507 Z M266 506 L267 505 L268 506 L267 507 Z M797 505 L798 504 L799 505 L798 506 Z M270 504 L271 503 L272 504 L271 505 Z M378 506 L391 502 L397 502 L398 503 L396 504 L406 504 L407 505 L422 507 L437 512 L445 516 L458 525 L463 531 L462 532 L458 531 L456 529 L448 526 L445 523 L433 516 L429 515 L427 516 L422 513 L408 509 L395 508 L394 507 L385 507 L384 506 L383 507 L379 507 Z M794 502 L795 501 L796 502 L795 503 Z M402 502 L403 501 L416 501 L417 502 L429 503 L442 507 L459 516 L469 526 L477 539 L475 540 L470 537 L461 526 L454 520 L438 511 L427 507 L410 503 L403 503 Z M271 502 L272 501 L273 503 L272 504 Z M792 501 L793 500 L795 501 L794 502 Z M284 500 L285 503 L280 515 L280 518 L278 522 L276 533 L271 549 L271 553 L265 572 L256 590 L240 612 L234 628 L234 633 L233 634 L233 655 L234 656 L234 661 L237 674 L244 693 L243 695 L237 686 L237 684 L234 679 L226 653 L226 647 L225 646 L226 626 L234 607 L249 588 L258 572 L265 551 L273 515 L277 508 Z M791 500 L792 499 L793 500 L792 501 Z M358 512 L349 519 L340 530 L336 538 L335 543 L348 533 L360 527 L377 522 L390 521 L391 520 L413 520 L414 521 L428 522 L441 525 L455 530 L475 541 L497 560 L511 578 L515 586 L519 591 L525 604 L530 625 L529 654 L528 655 L527 666 L524 674 L524 680 L523 681 L524 682 L524 692 L521 702 L518 723 L517 724 L517 730 L516 731 L515 758 L516 757 L517 736 L518 735 L520 715 L521 714 L523 700 L525 695 L525 689 L526 688 L525 686 L525 677 L528 668 L528 664 L530 658 L530 649 L531 648 L531 621 L528 608 L525 601 L527 597 L527 589 L528 588 L528 576 L526 571 L527 568 L532 577 L531 580 L530 578 L530 582 L531 583 L533 609 L534 610 L533 588 L532 587 L532 583 L530 582 L532 579 L537 590 L539 603 L540 604 L541 617 L542 617 L541 602 L538 589 L533 575 L524 558 L517 548 L500 531 L491 524 L472 513 L451 505 L434 502 L433 501 L426 501 L425 500 L394 500 L393 501 L388 501 L376 504 Z M284 499 L285 498 L286 500 L285 501 Z M787 498 L789 497 L792 499 L789 500 Z M243 498 L244 497 L245 498 L246 502 L250 506 L266 506 L267 508 L265 512 L261 516 L242 521 L241 520 L241 515 L243 509 Z M849 492 L850 493 L849 497 L848 496 Z M292 491 L293 493 L291 496 L290 493 Z M850 489 L851 490 L850 493 L849 492 Z M850 488 L851 487 L852 489 L851 490 Z M851 486 L852 485 L853 487 L852 488 Z M245 494 L245 489 L247 485 L250 489 L255 491 L265 491 L270 489 L273 486 L274 487 L274 490 L270 500 L264 505 L263 504 L258 504 L257 505 L250 504 L247 501 Z M717 484 L718 483 L719 484 L718 485 Z M712 483 L713 482 L716 483 L715 484 Z M324 479 L325 478 L326 479 L325 480 Z M324 473 L325 474 L323 482 L325 490 L321 500 L322 499 L323 500 L322 506 L323 507 L324 506 L324 500 L329 494 L331 498 L329 502 L328 508 L318 517 L316 512 L316 508 L319 498 L319 487 L318 483 L314 477 Z M330 470 L331 471 L328 474 L326 479 L325 478 L326 474 L324 473 Z M337 468 L338 469 L334 474 L330 485 L331 494 L330 495 L328 494 L325 497 L324 495 L327 488 L327 480 L332 472 L332 470 Z M337 468 L338 467 L340 468 L339 469 Z M555 467 L560 471 L570 475 L582 474 L590 469 L576 474 L575 473 L569 473 L565 470 L564 472 Z M467 463 L471 462 L483 466 L486 466 L503 474 L518 484 L542 504 L555 509 L572 509 L573 508 L577 508 L591 503 L616 491 L648 481 L660 480 L661 479 L670 479 L671 478 L694 478 L695 479 L701 479 L713 482 L712 483 L707 483 L706 482 L697 482 L696 481 L679 481 L678 482 L661 483 L648 486 L625 494 L606 504 L585 517 L568 523 L555 523 L548 521 L537 514 L525 500 L514 489 L495 475 L479 467 Z M463 462 L464 461 L466 462 L465 463 Z M358 461 L359 462 L353 466 L343 476 L339 485 L338 501 L336 509 L334 511 L330 510 L329 507 L332 497 L332 483 L337 472 L343 465 Z M362 461 L363 460 L365 461 L364 462 Z M358 461 L359 460 L360 461 L359 462 Z M421 461 L422 462 L426 461 L450 461 L451 462 L465 464 L482 470 L498 479 L509 487 L542 520 L556 525 L566 525 L580 521 L625 496 L647 488 L660 485 L665 485 L666 484 L699 483 L700 484 L715 485 L731 489 L735 491 L738 491 L760 501 L755 497 L737 488 L715 480 L707 479 L702 477 L696 477 L695 476 L670 476 L669 477 L654 478 L630 484 L609 492 L600 497 L580 505 L572 507 L556 507 L541 501 L513 478 L491 466 L475 461 L463 460 L462 459 L433 459 L432 460 Z M364 460 L367 458 L371 459 L367 461 Z M370 458 L371 457 L374 458 L373 459 Z M404 457 L405 456 L408 457 L407 458 Z M374 457 L375 456 L377 457 L376 458 Z M218 448 L219 449 L219 455 L218 456 L217 455 L217 449 Z M788 444 L798 447 L817 457 L825 465 L829 477 L829 498 L828 499 L815 485 L791 468 L790 463 L788 461 L789 455 L791 453 L791 451 L787 445 Z M786 444 L787 443 L788 444 L787 445 Z M606 443 L607 442 L608 443 L607 444 Z M609 443 L610 441 L613 442 L611 444 Z M544 440 L546 439 L560 446 L564 446 L569 448 L576 448 L577 449 L594 447 L605 443 L607 444 L603 450 L591 461 L583 465 L572 466 L571 465 L567 465 L560 461 L550 450 Z M387 453 L391 453 L407 449 L412 449 L413 448 L419 448 L420 447 L446 444 L447 443 L463 442 L464 441 L485 440 L486 439 L500 439 L501 438 L541 437 L542 438 L539 439 L545 444 L551 454 L560 463 L568 467 L578 468 L585 466 L594 461 L607 447 L613 444 L614 442 L624 443 L625 444 L649 448 L654 450 L658 450 L686 457 L690 459 L697 460 L701 462 L704 462 L717 467 L720 467 L723 469 L726 469 L729 471 L737 473 L757 481 L788 497 L785 498 L775 493 L772 493 L770 491 L760 487 L759 488 L755 485 L753 486 L756 487 L776 503 L789 516 L802 535 L803 535 L802 532 L791 516 L775 500 L765 492 L766 491 L770 492 L788 501 L790 501 L796 504 L805 512 L810 519 L813 529 L813 538 L814 539 L811 552 L812 564 L817 573 L823 578 L829 577 L833 571 L834 567 L834 552 L838 540 L842 538 L846 543 L846 550 L849 558 L851 573 L852 574 L853 589 L854 590 L855 619 L856 620 L857 637 L864 662 L868 669 L871 678 L872 690 L873 691 L872 704 L871 705 L869 718 L864 733 L857 748 L855 750 L854 747 L858 739 L865 715 L865 710 L866 709 L866 688 L862 673 L856 661 L852 648 L851 636 L850 635 L847 569 L845 562 L844 565 L845 566 L845 577 L846 578 L849 639 L850 640 L853 658 L861 675 L861 678 L864 686 L864 693 L865 694 L864 709 L863 710 L863 715 L859 731 L852 751 L850 754 L850 756 L851 755 L852 757 L833 784 L829 792 L815 832 L815 835 L813 838 L811 847 L809 850 L807 858 L802 868 L798 880 L794 887 L794 889 L779 918 L757 952 L736 979 L704 1013 L674 1039 L647 1058 L618 1074 L616 1074 L602 1081 L579 1088 L578 1086 L576 1088 L569 1091 L551 1093 L550 1094 L542 1094 L541 1095 L504 1095 L503 1094 L483 1092 L479 1090 L475 1090 L461 1085 L458 1085 L445 1079 L446 1078 L436 1068 L435 1069 L443 1077 L441 1078 L436 1075 L434 1075 L403 1056 L381 1038 L366 1023 L349 1003 L325 969 L316 954 L302 926 L292 901 L282 871 L281 864 L276 848 L276 844 L272 828 L272 823 L271 822 L271 817 L270 816 L268 795 L266 787 L266 780 L265 779 L263 750 L262 749 L262 743 L261 742 L259 727 L252 707 L244 690 L236 661 L235 647 L234 646 L235 633 L236 632 L237 633 L237 654 L241 671 L242 669 L241 668 L240 655 L239 654 L237 624 L243 611 L257 592 L266 575 L272 557 L278 529 L286 503 L290 495 L291 498 L301 484 L312 478 L317 486 L317 499 L315 504 L315 515 L319 521 L324 522 L328 520 L337 511 L339 506 L340 489 L343 480 L346 475 L355 467 L376 459 L389 458 L390 457 L404 457 L405 458 L390 464 L371 474 L360 482 L354 489 L368 478 L390 466 L414 457 L417 457 L425 454 L429 454 L433 452 L432 451 L422 454 L412 454 L411 455 L396 455 L395 456 L384 456 L383 457 L379 456 Z M868 433 L870 468 L871 469 L871 501 L869 507 L864 511 L857 511 L851 506 L849 501 L849 497 L852 494 L855 484 L855 468 L846 440 L846 444 L848 447 L848 451 L853 464 L853 469 L854 470 L854 480 L847 492 L848 504 L850 508 L854 511 L860 513 L865 512 L870 508 L873 499 L873 472 L872 471 L870 440 Z M416 424 L417 423 L419 424 L418 425 Z M845 417 L844 418 L845 422 L844 423 L844 432 L845 432 L845 424 L844 423 L845 422 Z M607 415 L608 414 L609 415 L608 416 Z M547 412 L548 411 L558 421 L567 425 L576 426 L577 427 L591 425 L600 421 L607 415 L608 417 L604 424 L597 431 L589 435 L572 436 L559 431 L552 424 Z M416 405 L417 404 L418 405 L417 406 Z M417 406 L420 404 L426 404 L427 403 L428 404 L440 404 L441 405 L439 408 L440 412 L439 415 L440 416 L438 419 L440 419 L441 421 L440 422 L432 422 L431 423 L419 424 L418 423 L423 418 L423 411 L421 408 Z M530 396 L531 395 L532 396 L531 397 Z M679 391 L680 390 L682 391 L681 392 Z M711 382 L712 381 L713 382 L712 383 Z M628 378 L629 379 L629 388 L628 389 L627 388 L627 379 Z M666 400 L665 402 L666 410 L671 415 L679 419 L702 425 L716 426 L724 428 L734 428 L739 430 L743 435 L743 440 L740 444 L742 444 L745 440 L745 435 L742 432 L743 431 L754 434 L758 434 L780 441 L789 449 L789 453 L787 457 L787 461 L789 467 L788 468 L780 463 L772 460 L781 466 L795 473 L810 483 L829 501 L830 501 L830 497 L831 496 L830 473 L826 464 L819 457 L813 453 L787 441 L764 434 L736 427 L721 426 L720 425 L695 422 L678 417 L668 410 L667 402 L671 396 L679 391 L680 393 L677 396 L675 401 L676 408 L680 412 L684 414 L688 414 L688 413 L685 413 L681 411 L676 405 L678 397 L684 390 L692 385 L705 382 L711 382 L712 383 L703 391 L700 397 L700 405 L702 409 L705 411 L704 412 L697 412 L697 413 L709 413 L710 414 L721 414 L722 415 L739 416 L740 417 L773 422 L801 430 L811 434 L829 444 L837 451 L845 463 L842 455 L834 446 L826 440 L808 431 L791 425 L767 419 L762 419 L761 418 L756 418 L743 415 L737 415 L736 414 L710 412 L707 411 L702 406 L701 404 L702 396 L704 392 L711 385 L717 382 L726 381 L727 380 L754 380 L755 381 L768 381 L769 382 L797 385 L823 391 L845 400 L851 404 L861 414 L866 425 L866 422 L862 413 L857 407 L846 399 L821 389 L800 385 L799 384 L795 384 L794 383 L781 382 L780 381 L763 380 L762 379 L746 379 L745 378 L728 378 L727 379 L708 380 L685 386 L675 391 Z M305 378 L303 381 L302 391 L300 397 L300 412 L301 413 L300 427 L301 430 L301 426 L302 425 L302 406 L301 402 L302 401 L302 393 L303 392 Z M575 364 L568 367 L568 368 L576 365 L584 365 L591 368 L599 376 L601 380 L601 385 L602 386 L600 397 L594 405 L587 409 L575 410 L567 407 L559 398 L557 392 L557 385 L558 384 L558 380 L563 371 L559 375 L556 383 L556 395 L559 401 L567 409 L572 411 L581 412 L591 409 L599 402 L603 394 L604 386 L601 376 L594 368 L585 364 Z M537 364 L538 363 L539 364 L538 365 Z M538 362 L539 361 L540 363 L539 364 Z M861 360 L869 362 L888 373 L898 383 L906 398 L910 413 L911 427 L912 428 L912 439 L913 440 L913 493 L911 495 L910 494 L909 435 L908 434 L907 413 L904 401 L896 386 L889 378 L877 369 L860 361 Z M854 359 L857 358 L861 360 L857 361 Z M541 358 L542 360 L540 362 L539 360 Z M851 358 L852 357 L855 358 L854 359 Z M541 358 L542 357 L543 358 L542 359 Z M645 393 L641 401 L640 413 L642 417 L648 423 L656 427 L671 432 L726 444 L753 453 L735 445 L738 444 L733 445 L718 440 L697 436 L696 435 L692 435 L691 434 L687 434 L682 432 L678 432 L658 426 L648 421 L643 416 L642 413 L643 401 L649 391 L658 382 L670 374 L689 366 L706 362 L720 361 L721 360 L734 360 L735 359 L780 359 L781 360 L793 360 L794 361 L808 362 L809 363 L830 366 L849 372 L864 379 L870 383 L882 394 L890 406 L896 422 L896 426 L899 437 L900 453 L901 454 L901 467 L902 468 L902 482 L903 483 L904 527 L905 528 L905 547 L906 548 L906 576 L903 581 L894 581 L890 578 L888 574 L883 493 L882 492 L880 461 L879 460 L878 445 L877 444 L875 429 L870 415 L867 410 L860 402 L850 395 L842 391 L818 383 L797 379 L796 378 L792 378 L791 377 L781 376 L780 375 L773 375 L772 374 L761 374 L760 373 L719 373 L718 374 L711 374 L710 375 L700 376 L692 378 L689 380 L705 376 L721 375 L722 374 L758 374 L759 375 L770 375 L771 376 L785 377 L786 378 L790 378 L791 379 L795 379 L796 380 L817 384 L838 391 L855 400 L865 410 L870 419 L873 428 L876 449 L877 450 L877 459 L878 460 L878 469 L879 470 L879 479 L880 480 L880 491 L881 492 L881 503 L882 504 L882 518 L883 519 L884 547 L885 548 L885 565 L886 566 L886 573 L888 577 L887 579 L885 579 L883 577 L881 571 L881 559 L880 558 L880 547 L879 546 L876 503 L875 503 L875 519 L874 522 L870 527 L865 529 L856 528 L849 522 L847 517 L847 510 L846 509 L846 520 L850 533 L849 535 L833 517 L815 502 L792 487 L761 471 L759 471 L737 461 L734 461 L731 459 L701 449 L694 448 L683 444 L679 444 L658 438 L654 438 L638 434 L631 434 L630 433 L629 434 L637 436 L642 436 L651 439 L655 439 L691 448 L702 452 L705 452 L708 454 L711 454 L714 456 L744 466 L777 481 L808 499 L829 515 L851 539 L857 548 L864 564 L874 575 L884 580 L896 583 L902 583 L906 580 L908 575 L908 551 L907 550 L907 528 L906 527 L906 503 L905 502 L904 470 L903 469 L903 456 L902 455 L900 432 L898 427 L897 419 L890 402 L885 395 L870 381 L848 370 L832 365 L828 365 L817 362 L797 360 L796 359 L787 359 L786 358 L775 358 L774 357 L740 357 L739 358 L724 358 L723 359 L708 360 L707 361 L693 363 L681 367 L663 376 L655 382 Z M369 357 L368 357 L368 363 L367 364 L368 395 L369 393 L369 386 L370 385 L369 381 Z M225 356 L226 357 L225 361 L224 360 Z M572 353 L577 353 L578 352 L588 353 L601 359 L610 369 L615 382 L615 395 L610 408 L598 420 L587 424 L571 424 L562 421 L551 412 L546 403 L544 396 L544 383 L548 371 L555 362 L562 357 Z M428 353 L433 358 L436 369 L436 383 L435 386 L430 391 L427 392 L430 392 L437 385 L438 382 L438 371 L437 370 L436 361 L434 357 L430 353 Z M668 351 L669 350 L670 351 L669 352 Z M574 350 L559 356 L549 365 L544 374 L542 381 L542 385 L541 386 L542 388 L542 397 L544 402 L544 407 L547 418 L551 426 L558 433 L571 438 L585 438 L592 436 L599 432 L608 422 L617 397 L618 385 L617 384 L616 376 L612 367 L604 358 L598 354 L590 351 Z M550 349 L551 350 L543 358 L542 356 Z M550 349 L551 348 L552 349 L551 350 Z M551 348 L552 347 L554 348 L553 349 Z M349 348 L346 355 L346 360 L345 361 L345 371 L347 378 L347 389 L348 390 L347 391 L347 395 L348 397 L349 396 L349 379 L347 372 L347 358 L350 349 Z M228 347 L229 350 L226 357 L225 353 Z M553 347 L554 346 L555 347 L554 348 Z M607 345 L614 349 L622 358 L628 372 L628 378 L627 379 L626 378 L625 370 L619 358 L606 346 Z M554 346 L555 345 L557 346 L556 347 Z M228 346 L229 345 L230 347 L229 348 Z M604 345 L605 344 L607 345 L606 346 Z M556 345 L557 344 L559 345 L558 346 Z M602 344 L603 343 L605 344 L604 345 Z M558 344 L559 343 L562 344 L561 345 Z M229 344 L230 343 L231 345 L230 346 Z M599 343 L600 342 L603 343 L602 344 Z M561 343 L562 342 L564 343 L563 344 Z M596 342 L597 341 L600 342 L599 343 Z M563 342 L564 341 L567 342 L566 343 Z M230 342 L231 341 L232 343 L231 344 Z M592 341 L593 340 L597 341 L596 342 Z M567 341 L568 340 L572 341 L571 342 Z M233 338 L234 340 L232 342 L231 340 Z M515 400 L514 399 L512 406 L506 412 L499 415 L444 421 L443 420 L444 419 L441 418 L442 417 L440 411 L441 408 L446 404 L477 404 L490 401 L497 397 L500 392 L500 385 L494 376 L483 366 L469 357 L453 349 L436 343 L416 338 L400 336 L399 335 L393 335 L392 334 L358 333 L357 334 L388 335 L389 336 L396 336 L397 337 L403 337 L404 338 L418 340 L451 350 L464 356 L471 361 L469 362 L453 354 L428 346 L424 346 L409 342 L395 341 L394 340 L383 340 L382 339 L361 339 L360 340 L335 341 L334 342 L313 345 L291 352 L280 358 L270 367 L260 385 L256 398 L253 422 L252 423 L250 451 L249 452 L250 464 L255 472 L259 474 L267 474 L272 470 L275 464 L275 456 L276 455 L277 456 L271 447 L270 439 L271 438 L271 434 L279 420 L279 415 L280 414 L279 402 L278 403 L279 405 L278 406 L277 421 L269 434 L269 446 L274 457 L273 465 L269 471 L263 474 L256 471 L254 469 L251 462 L251 450 L252 449 L252 439 L253 438 L256 406 L258 400 L258 395 L265 377 L269 371 L280 360 L295 352 L311 347 L331 344 L332 343 L338 343 L339 342 L366 341 L367 340 L393 341 L400 343 L407 343 L413 345 L418 345 L424 348 L427 347 L428 348 L426 349 L431 348 L435 350 L438 350 L452 356 L462 364 L465 368 L469 378 L469 382 L467 388 L464 391 L461 392 L420 394 L419 395 L410 395 L409 396 L388 398 L346 408 L330 414 L323 418 L354 407 L358 407 L362 405 L366 405 L386 400 L407 398 L408 397 L416 397 L417 396 L446 395 L447 394 L463 393 L469 388 L470 385 L470 375 L467 368 L460 360 L461 359 L469 363 L471 363 L470 362 L472 361 L486 371 L485 372 L490 381 L490 388 L487 392 L485 393 L472 393 L486 394 L490 391 L491 389 L491 380 L488 375 L489 374 L492 376 L497 383 L498 392 L493 398 L485 401 L479 401 L478 402 L432 402 L431 403 L413 403 L412 404 L387 406 L386 407 L381 407 L380 408 L370 409 L353 413 L329 421 L314 428 L304 435 L296 444 L295 449 L296 449 L298 443 L305 436 L312 431 L328 423 L334 422 L336 420 L348 416 L368 411 L378 410 L379 409 L391 408 L392 407 L400 407 L401 406 L410 406 L411 405 L414 405 L415 407 L418 408 L421 411 L422 414 L420 420 L412 425 L392 428 L387 430 L382 430 L366 434 L362 436 L352 438 L349 440 L346 440 L331 446 L306 460 L298 466 L287 477 L289 477 L298 468 L312 458 L343 443 L355 440 L362 437 L382 432 L402 429 L403 428 L429 425 L430 424 L437 424 L438 423 L447 423 L448 422 L456 422 L457 421 L465 421 L466 420 L475 420 L476 419 L485 419 L486 418 L498 417 L508 413 L513 408 Z M242 329 L243 330 L234 339 L233 337 Z M806 316 L807 315 L808 317 L807 318 Z M732 309 L733 311 L732 312 L732 318 L734 311 Z M662 304 L660 306 L659 316 L657 319 L657 322 L654 330 L651 335 L648 334 L645 336 L643 340 L643 345 L641 349 L640 355 L635 362 L639 359 L642 353 L643 345 L644 344 L643 343 L645 341 L646 337 L647 336 L651 336 L654 333 L659 320 L659 315 L660 314 L661 315 L661 322 L660 323 L658 342 L651 355 L654 353 L658 344 L660 342 L660 332 L662 327 L661 326 L662 322 Z M223 361 L224 360 L225 361 L225 367 L224 368 L224 374 L222 381 L222 390 L221 391 L219 416 L218 417 L218 430 L217 431 L217 441 L216 442 L216 461 L215 462 L215 479 L213 482 L214 494 L213 495 L212 523 L213 527 L217 530 L222 530 L231 526 L234 526 L250 520 L254 520 L260 518 L269 509 L270 510 L269 512 L271 510 L271 508 L279 496 L290 485 L299 478 L321 466 L355 453 L398 442 L409 441 L410 440 L420 439 L432 436 L439 436 L440 435 L463 433 L464 432 L482 431 L483 430 L527 428 L527 427 L502 427 L501 428 L487 428 L486 429 L474 429 L473 430 L447 432 L446 433 L439 433 L438 434 L432 434 L431 435 L402 439 L397 441 L388 442 L364 448 L332 459 L302 474 L290 483 L279 494 L273 502 L272 499 L276 490 L277 481 L280 471 L280 465 L278 466 L278 471 L274 482 L270 487 L266 489 L254 489 L248 484 L247 474 L246 473 L247 472 L247 466 L246 465 L245 466 L244 489 L243 490 L244 494 L242 495 L242 505 L240 512 L241 519 L238 523 L233 524 L232 523 L235 516 L235 510 L236 509 L237 488 L238 487 L238 480 L239 479 L239 470 L240 469 L240 462 L242 454 L243 439 L244 438 L245 426 L249 410 L249 405 L255 385 L263 369 L275 356 L284 350 L291 347 L314 340 L352 335 L329 336 L328 337 L318 338 L298 343 L275 354 L263 366 L256 378 L249 398 L244 426 L243 427 L233 517 L231 522 L227 526 L222 528 L216 528 L214 525 L214 510 L215 509 L215 501 L216 500 L216 491 L217 490 L217 482 L218 481 L218 472 L219 471 L219 462 L220 461 L220 453 L221 452 L221 444 L222 443 L222 434 L223 433 L223 426 L224 425 L224 418 L225 417 L228 389 L230 383 L230 377 L234 361 L236 357 L235 356 L232 363 L228 384 L227 385 L227 391 L226 392 L225 405 L223 413 L223 421 L221 429 L220 446 L219 447 L218 446 L218 435 L219 434 L219 423 L220 422 L220 412 L221 411 L221 400 L222 399 L223 385 L224 384 L224 378 L225 377 L225 371 L226 370 L226 364 L227 363 L228 355 L234 341 L241 333 L253 325 L267 320 L267 318 L265 320 L259 321 L243 330 L242 329 L245 326 L259 318 L276 312 L302 306 L315 305 L323 303 L332 303 L333 302 L345 302 L346 301 L389 301 L390 302 L410 303 L411 304 L423 305 L428 307 L437 308 L449 312 L452 312 L474 320 L492 329 L503 336 L512 343 L527 358 L535 371 L532 380 L532 390 L530 395 L523 381 L515 370 L499 354 L484 343 L474 337 L448 325 L427 318 L410 314 L399 313 L398 312 L379 311 L378 310 L340 310 L339 311 L319 312 L318 313 L312 313 L311 314 L305 314 L304 315 L289 317 L270 323 L258 329 L252 333 L239 347 L238 351 L242 345 L253 334 L259 330 L281 321 L303 317 L304 316 L310 316 L311 315 L324 314 L325 313 L334 313 L335 312 L365 311 L366 312 L383 312 L384 313 L400 314 L401 315 L406 315 L427 320 L456 330 L474 339 L491 350 L504 361 L518 377 L525 388 L531 403 L536 423 L539 428 L534 410 L534 399 L533 398 L533 385 L537 370 L543 359 L552 350 L560 345 L576 341 L572 341 L571 340 L572 339 L590 339 L591 340 L588 341 L589 342 L593 342 L604 346 L610 350 L617 357 L622 365 L625 374 L625 381 L626 382 L626 403 L621 418 L618 423 L618 425 L616 427 L615 431 L617 430 L622 420 L627 406 L629 391 L630 390 L630 384 L629 383 L630 380 L637 373 L648 365 L675 352 L695 347 L706 346 L707 345 L742 344 L743 343 L744 344 L747 343 L756 343 L757 344 L758 343 L759 344 L779 344 L780 345 L798 346 L799 347 L819 349 L820 350 L847 355 L851 357 L848 358 L863 363 L884 375 L894 385 L903 402 L905 416 L906 417 L908 461 L909 462 L910 536 L911 537 L911 541 L910 542 L911 543 L911 576 L910 578 L912 576 L912 535 L911 534 L911 507 L912 506 L913 507 L913 522 L914 523 L914 557 L915 558 L915 573 L914 574 L915 575 L914 576 L914 580 L909 586 L904 588 L894 588 L884 585 L876 581 L864 570 L853 548 L847 539 L833 524 L821 514 L800 500 L764 481 L762 481 L755 477 L740 472 L737 470 L704 459 L649 445 L613 439 L612 438 L613 436 L611 436 L608 439 L600 443 L587 445 L586 446 L573 446 L572 445 L562 444 L546 437 L542 433 L540 433 L539 435 L538 434 L530 434 L529 435 L488 436 L487 437 L476 437 L475 438 L465 438 L464 439 L457 439 L456 440 L432 442 L431 443 L408 446 L407 447 L378 452 L374 454 L359 457 L349 461 L346 461 L334 465 L311 475 L290 489 L275 506 L273 511 L269 515 L268 514 L269 515 L264 520 L257 523 L244 526 L241 528 L220 535 L214 536 L209 531 L211 467 L212 466 L212 453 L213 452 L213 441 L214 440 L214 430 L215 429 L217 401 L218 400 L219 385 L220 384 L220 378 L221 377 Z M631 296 L632 295 L633 297 L632 298 Z M741 291 L740 291 L738 295 L738 300 L735 309 L739 301 L739 296 Z M699 288 L694 306 L694 312 L691 317 L692 324 L689 327 L689 330 L687 332 L684 340 L680 345 L684 342 L688 334 L688 331 L693 324 L692 318 L695 312 L695 307 L697 303 L699 290 L700 289 Z M835 286 L834 286 L831 304 L831 301 L834 295 Z M336 278 L336 286 L339 293 L336 281 L337 279 Z M422 276 L422 278 L424 280 L424 277 Z M846 274 L847 275 L847 286 L848 287 L848 297 L849 298 L847 350 L848 337 L849 336 L849 321 L850 320 L850 296 L849 295 L849 287 L847 280 L847 274 Z M739 273 L738 273 L734 280 L734 285 L733 286 L733 291 L734 292 L733 294 L735 293 L734 285 Z M291 273 L292 272 L293 274 L292 275 Z M700 271 L701 270 L702 272 L701 273 Z M292 271 L293 270 L294 272 L293 273 Z M828 266 L825 270 L825 281 L826 282 L826 292 L827 293 L827 303 L828 305 L827 269 L828 268 L830 269 Z M419 260 L418 260 L418 264 L416 270 L418 270 Z M442 259 L443 258 L444 259 L443 260 Z M704 257 L702 259 L698 275 L689 298 L687 312 L682 318 L680 318 L678 320 L675 339 L677 336 L677 332 L679 328 L679 321 L684 318 L688 312 L690 299 L700 273 L701 277 L699 283 L700 284 L701 282 Z M441 257 L442 256 L443 258 L442 259 Z M331 254 L330 257 L330 268 L337 276 L337 274 L332 269 L332 264 L331 263 L332 254 Z M422 232 L421 233 L421 238 L422 239 L425 258 L427 263 L428 279 L434 290 L434 292 L442 304 L442 302 L439 298 L429 277 L429 267 L428 266 L428 261 L426 257 Z M346 207 L339 214 L334 224 L333 235 L336 242 L334 248 L338 244 L334 233 L335 226 L338 218 L345 210 Z M796 200 L796 205 L797 206 L797 231 L795 238 L795 254 L796 255 L796 259 L795 260 L795 268 L794 269 L793 277 L796 285 L803 290 L806 294 L806 305 L804 313 L806 319 L806 324 L805 325 L804 340 L805 341 L806 338 L806 328 L808 323 L807 320 L808 317 L810 320 L812 328 L812 336 L811 337 L811 341 L812 341 L813 338 L813 326 L807 311 L808 295 L806 291 L801 288 L797 284 L795 280 L795 270 L797 263 L796 239 L798 233 L798 211 L797 210 L797 202 Z M812 192 L816 199 L816 201 L818 203 L819 207 L821 209 L823 215 L823 219 L831 239 L831 247 L832 248 L834 265 L836 271 L834 276 L834 281 L835 281 L837 271 L834 258 L834 251 L833 250 L831 234 L824 219 L821 207 L819 205 L816 197 Z M351 191 L350 191 L348 195 L347 204 Z M746 177 L745 203 L747 207 L747 222 L744 233 L744 241 L745 242 L746 250 L745 251 L745 257 L742 269 L743 268 L744 269 L744 277 L742 281 L743 281 L745 276 L745 267 L744 266 L747 255 L747 244 L745 236 L749 219 L749 210 L746 202 L746 195 L747 194 L747 187 L748 186 L747 178 Z M358 177 L354 181 L353 185 Z M747 169 L747 174 L748 175 L749 172 Z M372 157 L369 159 L368 162 Z M761 146 L766 156 L766 159 L771 172 L775 193 L776 194 L776 201 L777 202 L777 230 L776 231 L776 237 L772 253 L760 283 L766 271 L774 250 L777 238 L778 222 L779 221 L779 209 L778 208 L778 199 L777 198 L776 187 L769 162 L765 152 Z M384 146 L374 159 L366 174 L357 203 L350 215 L350 219 L345 235 L344 247 L343 248 L344 261 L346 264 L345 274 L346 275 L346 286 L347 287 L347 277 L348 276 L346 272 L348 265 L345 257 L345 247 L346 246 L346 238 L349 225 L351 221 L353 211 L356 208 L359 202 L359 199 L363 190 L363 185 L370 170 L370 168 L372 166 L376 157 Z M721 134 L725 145 L727 160 L728 161 L729 194 L728 195 L727 207 L721 223 L719 262 L718 263 L718 268 L716 273 L715 281 L708 300 L708 306 L707 307 L707 330 L703 340 L705 339 L708 329 L709 302 L711 298 L711 293 L717 279 L718 269 L720 265 L721 248 L722 247 L722 226 L726 212 L728 209 L729 200 L730 199 L730 166 L729 165 L727 148 L724 139 Z M414 131 L403 139 L396 148 L392 156 L392 163 L390 165 L391 171 L392 170 L393 157 L398 147 Z M731 126 L739 138 L740 145 L737 150 L737 156 L739 160 L739 163 L743 170 L744 170 L741 165 L738 153 L740 146 L744 156 L741 140 L736 131 Z M652 126 L650 127 L648 134 L648 140 L651 148 L651 161 L653 164 L653 177 L650 188 L650 195 L652 201 L652 206 L648 222 L647 232 L643 244 L643 252 L644 253 L643 262 L639 278 L637 282 L637 285 L635 289 L635 292 L633 296 L632 295 L632 247 L631 244 L632 243 L632 234 L633 233 L633 226 L634 225 L634 218 L635 217 L636 196 L635 195 L635 184 L634 183 L634 175 L633 174 L632 163 L625 137 L625 141 L631 164 L631 169 L633 176 L633 184 L634 185 L634 215 L633 216 L632 232 L630 239 L630 249 L631 250 L631 260 L630 261 L630 304 L632 303 L634 299 L644 265 L644 261 L645 260 L645 243 L649 230 L650 220 L653 209 L653 198 L651 191 L654 180 L655 168 L652 159 L653 150 L650 143 L650 130 Z M423 124 L418 128 L422 126 Z M481 123 L480 123 L480 125 L476 130 L473 139 L468 148 L464 160 L464 163 L462 166 L462 169 L455 185 L455 188 L463 169 L469 149 L478 130 L479 133 L473 154 L473 170 L474 173 L472 181 L469 187 L468 195 L466 201 L461 209 L450 215 L447 219 L447 227 L442 236 L441 240 L441 252 L442 253 L441 257 L436 249 L434 241 L434 229 L433 228 L432 218 L435 209 L440 204 L449 200 L452 195 L445 201 L438 204 L434 208 L431 216 L431 223 L433 228 L432 237 L435 250 L442 262 L448 267 L443 254 L443 246 L442 245 L443 238 L448 229 L448 220 L449 218 L454 214 L456 214 L461 211 L466 204 L470 194 L471 185 L475 176 L474 157 L480 132 L480 128 L479 130 L478 127 L481 125 Z M656 116 L654 117 L653 122 L655 121 L656 117 L660 125 L660 139 L661 141 L662 138 L661 123 Z M441 116 L424 129 L414 140 L406 151 L399 165 L397 172 L398 172 L401 163 L403 161 L408 150 L414 142 L427 128 L439 119 Z M452 109 L450 109 L447 113 Z M530 108 L528 126 L532 142 L529 151 L529 158 L534 170 L536 171 L531 162 L530 158 L530 151 L533 142 L533 138 L531 134 L530 125 L529 124 L530 122 L530 112 L531 111 L531 108 Z M628 99 L627 99 L627 101 Z M622 98 L622 102 L627 116 L623 102 L623 98 Z M618 89 L618 90 L622 91 L627 97 L628 96 L625 92 L620 89 Z M275 307 L281 283 L291 254 L303 229 L312 214 L334 185 L359 160 L382 142 L404 128 L427 116 L441 111 L446 108 L457 105 L460 103 L463 103 L484 96 L517 90 L518 89 L530 88 L531 87 L539 87 L540 86 L549 86 L550 85 L606 85 L607 86 L618 86 L626 88 L635 88 L636 89 L641 89 L642 90 L647 90 L657 93 L661 93 L677 98 L680 98 L698 104 L701 106 L704 106 L716 112 L718 112 L743 125 L763 138 L783 154 L807 178 L817 191 L828 209 L838 230 L846 253 L847 261 L850 271 L851 283 L852 284 L852 292 L853 293 L853 305 L854 306 L854 351 L851 354 L834 349 L834 344 L836 341 L835 336 L837 334 L838 330 L840 331 L840 338 L841 339 L840 324 L838 317 L837 317 L837 329 L834 336 L834 344 L831 349 L824 347 L813 346 L812 345 L798 344 L790 342 L779 342 L778 341 L722 341 L721 342 L710 342 L709 343 L696 344 L695 345 L678 348 L675 350 L670 351 L669 349 L673 342 L667 350 L668 352 L649 361 L632 374 L630 373 L628 364 L623 355 L618 349 L608 342 L590 336 L574 336 L562 339 L559 334 L558 320 L555 317 L550 315 L548 309 L548 303 L542 277 L542 258 L544 254 L544 249 L542 243 L542 232 L545 226 L545 218 L539 204 L534 198 L532 185 L528 177 L532 189 L533 199 L540 207 L544 218 L544 226 L541 232 L541 244 L543 250 L540 263 L541 279 L547 305 L547 310 L550 317 L554 318 L557 321 L558 335 L560 338 L559 341 L547 347 L541 353 L534 364 L528 355 L514 341 L505 334 L487 323 L472 316 L449 308 L415 301 L414 300 L416 297 L416 294 L412 286 L412 278 L415 273 L411 276 L411 281 L410 282 L412 289 L415 294 L415 297 L412 301 L410 300 L403 300 L402 299 L395 299 L394 298 L380 298 L379 297 L379 291 L377 287 L377 283 L379 279 L378 269 L379 268 L380 256 L381 255 L383 260 L384 273 L386 277 L390 281 L390 291 L392 295 L394 296 L391 290 L391 280 L386 275 L384 269 L382 245 L383 244 L383 238 L390 225 L390 221 L391 220 L390 202 L391 201 L391 195 L396 175 L392 185 L391 194 L389 199 L388 198 L388 186 L391 175 L390 175 L388 180 L388 185 L387 186 L387 200 L389 206 L390 218 L389 219 L389 225 L381 243 L381 252 L379 256 L379 262 L377 266 L378 278 L376 282 L376 288 L379 297 L378 298 L348 298 L347 299 L335 299 L334 300 L313 302 L312 301 L313 299 L312 284 L314 277 L314 272 L313 271 L315 266 L307 290 L308 291 L310 286 L312 294 L311 298 L312 301 L310 303 L306 302 L307 293 L305 295 L304 299 L305 303 L304 304 L294 305 L285 308 L282 307 L286 295 L290 289 L291 290 L291 296 L289 300 L289 303 L292 297 L292 290 L290 286 L290 280 L293 276 L299 263 L302 246 L310 229 L310 226 L302 243 L299 254 L299 259 L296 268 L294 271 L293 270 L294 264 L293 268 L290 272 L290 276 L288 282 L290 288 L286 292 L284 296 L284 299 L281 304 L282 308 L276 310 Z M598 82 L557 82 L556 83 L534 84 L533 85 L515 87 L514 88 L495 91 L486 94 L482 94 L453 103 L450 105 L430 112 L423 116 L421 116 L419 118 L415 119 L413 121 L392 132 L362 154 L334 181 L320 198 L307 217 L291 247 L281 274 L272 310 L270 312 L255 317 L238 328 L232 334 L224 348 L219 368 L219 374 L217 381 L217 389 L215 397 L215 405 L214 406 L213 423 L212 424 L212 434 L211 435 L211 446 L210 447 L209 480 L208 481 L207 534 L211 538 L219 538 L220 539 L219 543 L219 571 L220 572 L219 588 L218 589 L217 598 L213 605 L210 614 L209 622 L208 623 L208 631 L207 632 L207 685 L208 686 L208 701 L209 702 L209 713 L210 714 L210 725 L211 726 L213 756 L214 757 L214 765 L215 766 L215 773 L217 781 L217 789 L219 796 L219 803 L220 804 L221 815 L222 816 L222 820 L223 821 L223 825 L224 826 L224 830 L228 844 L229 852 L238 880 L249 907 L259 937 L273 993 L276 1000 L279 1013 L281 1016 L284 1029 L291 1046 L292 1051 L295 1056 L301 1073 L303 1075 L303 1077 L314 1098 L314 1100 L316 1102 L324 1119 L343 1152 L382 1213 L397 1233 L403 1243 L429 1277 L449 1300 L467 1318 L484 1332 L496 1340 L512 1348 L525 1352 L537 1353 L538 1354 L564 1354 L565 1353 L571 1353 L591 1348 L605 1341 L607 1341 L622 1331 L637 1319 L676 1280 L715 1233 L743 1192 L769 1147 L769 1145 L777 1130 L785 1110 L797 1075 L800 1070 L804 1058 L818 1028 L818 1026 L832 994 L834 986 L841 969 L841 966 L848 947 L848 944 L854 926 L857 910 L860 901 L860 897 L862 892 L862 888 L864 883 L864 879 L866 874 L871 845 L872 844 L872 839 L874 833 L879 798 L881 792 L881 786 L883 779 L885 761 L886 760 L889 738 L893 721 L893 715 L894 714 L894 708 L895 707 L896 694 L897 693 L897 686 L898 685 L898 654 L899 653 L900 643 L902 638 L903 630 L905 626 L905 622 L909 606 L910 591 L911 587 L915 584 L917 578 L917 537 L916 536 L916 515 L915 514 L916 455 L915 454 L914 425 L913 424 L913 417 L912 416 L911 406 L903 386 L893 374 L880 365 L870 360 L856 355 L856 339 L857 338 L856 301 L855 300 L855 289 L854 288 L852 269 L846 245 L843 239 L841 231 L826 200 L807 174 L787 154 L763 135 L730 115 L728 115 L708 105 L671 93 L655 89 L633 86 L632 85 L615 84 L614 83 L599 83 Z" fill="#eef3f4" fill-rule="evenodd"/>
</svg>
