<svg xmlns="http://www.w3.org/2000/svg" width="1086" height="1448" viewBox="0 0 1086 1448">
  <title>0156</title>
  <path d="M468 1249 L469 1248 L476 1253 L498 1263 L501 1263 L512 1267 L522 1268 L523 1269 L531 1269 L532 1270 L556 1270 L557 1269 L571 1268 L583 1265 L595 1260 L598 1260 L600 1258 L616 1250 L617 1251 L617 1261 L597 1272 L577 1278 L565 1279 L564 1280 L553 1280 L552 1281 L533 1281 L532 1280 L523 1280 L522 1279 L510 1278 L498 1274 L495 1274 L475 1265 L468 1260 L469 1259 Z M465 1246 L466 1247 L466 1257 L465 1258 L464 1257 L464 1247 Z M471 1095 L474 1107 L476 1124 L477 1125 L480 1153 L482 1160 L482 1167 L484 1174 L484 1180 L485 1181 L485 1187 L486 1188 L486 1194 L487 1195 L488 1207 L490 1214 L490 1220 L491 1221 L491 1226 L494 1239 L494 1245 L495 1246 L495 1250 L497 1252 L496 1250 L496 1241 L495 1240 L495 1235 L492 1222 L492 1216 L491 1215 L491 1209 L489 1202 L488 1189 L486 1182 L480 1134 L478 1127 L478 1121 L477 1120 L476 1109 L473 1097 Z M425 1075 L449 1086 L474 1094 L478 1094 L489 1097 L502 1098 L503 1099 L523 1100 L524 1101 L562 1101 L563 1100 L574 1100 L575 1099 L584 1099 L585 1098 L603 1096 L604 1095 L621 1092 L633 1088 L659 1076 L661 1076 L660 1075 L637 1085 L606 1094 L588 1096 L587 1097 L580 1097 L579 1098 L570 1098 L569 1099 L537 1100 L536 1099 L507 1098 L506 1097 L499 1097 L498 1096 L492 1096 L491 1095 L476 1093 L461 1088 L458 1088 L445 1082 L440 1081 L433 1077 Z M436 1062 L436 1064 L440 1067 L450 1070 L454 1070 L470 1074 L475 1074 L481 1076 L486 1076 L487 1077 L493 1077 L494 1078 L512 1079 L513 1080 L527 1080 L528 1081 L554 1081 L555 1080 L568 1080 L569 1079 L595 1077 L596 1076 L615 1074 L621 1072 L637 1070 L645 1068 L650 1064 L650 1062 L597 1063 L596 1064 L478 1064 L477 1063 Z M654 1058 L654 1059 L657 1060 L667 1060 L668 1061 L713 1062 L723 1065 L728 1068 L737 1077 L742 1088 L742 1085 L738 1076 L733 1070 L722 1063 L709 1060 Z M334 1088 L335 1089 L338 1079 L341 1074 L348 1067 L359 1062 L368 1061 L369 1060 L424 1060 L425 1059 L432 1059 L432 1058 L376 1058 L375 1059 L360 1060 L352 1063 L346 1067 L340 1073 L336 1080 Z M653 1053 L643 1049 L630 1046 L619 1045 L618 1044 L598 1043 L597 1042 L574 1042 L572 1040 L572 1027 L571 1026 L569 994 L568 993 L567 981 L566 981 L568 1011 L569 1012 L569 1024 L570 1025 L570 1036 L571 1037 L571 1041 L570 1042 L558 1045 L552 1045 L551 1046 L533 1046 L532 1045 L513 1043 L512 1042 L482 1043 L481 1044 L471 1044 L470 1045 L452 1047 L434 1052 L432 1054 L461 1047 L478 1046 L479 1045 L495 1045 L496 1044 L513 1044 L514 1045 L520 1045 L521 1046 L533 1047 L534 1048 L551 1048 L552 1047 L558 1047 L569 1044 L599 1044 L600 1045 L620 1046 L621 1047 L641 1050 L652 1054 Z M517 981 L516 981 L515 990 L514 991 L511 1040 L512 1040 L513 1036 L513 1023 L514 1022 L515 996 L516 995 L516 984 Z M587 960 L588 959 L591 960 L595 965 L592 966 Z M496 959 L497 960 L493 965 L490 966 L489 965 L491 962 Z M585 959 L586 958 L588 959 L587 960 Z M496 959 L497 958 L499 959 L498 960 Z M566 958 L549 964 L534 964 L524 961 L521 959 L519 959 L519 960 L531 965 L548 966 L556 964 L566 959 Z M509 957 L510 956 L512 957 L511 958 Z M573 956 L574 955 L576 956 L575 957 Z M507 956 L508 955 L510 956 L509 957 Z M284 900 L285 901 L286 961 L287 962 L287 975 L288 976 L289 989 L288 990 L256 994 L255 995 L248 995 L247 996 L241 996 L233 998 L211 999 L211 1000 L240 999 L241 998 L248 998 L249 997 L268 995 L275 993 L281 993 L287 991 L290 994 L290 999 L289 1000 L260 1001 L259 1002 L248 1002 L247 1003 L225 1004 L224 1005 L216 1005 L205 1001 L201 997 L203 995 L209 995 L216 993 L232 985 L243 977 L259 961 L267 950 L274 937 L280 920 L282 907 L283 906 L283 901 Z M796 899 L804 925 L811 939 L820 953 L839 973 L852 983 L867 991 L880 995 L884 995 L885 996 L880 1001 L872 1004 L857 1004 L856 1003 L836 1002 L835 1001 L804 1000 L803 999 L791 999 L790 998 L791 997 L791 991 L793 990 L794 991 L801 991 L802 992 L831 995 L832 996 L839 996 L840 997 L847 997 L848 998 L855 998 L856 999 L865 999 L866 1000 L873 1000 L874 999 L872 998 L861 998 L853 996 L838 995 L831 993 L823 993 L815 991 L808 991 L807 990 L799 990 L798 989 L793 989 L792 990 L791 989 L792 987 L792 977 L793 976 L793 960 L794 959 L794 927 L795 926 L795 900 Z M589 900 L584 904 L592 900 L598 900 L602 902 L607 907 L611 914 L614 924 L615 937 L616 938 L615 961 L617 956 L617 933 L616 932 L616 927 L613 915 L610 909 L603 901 L599 899 Z M493 899 L488 899 L481 902 L476 907 L472 915 L467 936 L467 952 L469 959 L468 943 L469 942 L470 927 L473 916 L477 908 L485 901 L492 900 L502 905 L499 902 Z M466 909 L463 919 L461 935 L460 936 L460 955 L461 956 L461 961 L465 970 L469 974 L473 976 L481 976 L486 972 L489 967 L493 969 L501 969 L515 965 L524 975 L537 980 L548 980 L557 977 L569 965 L573 967 L582 968 L583 969 L596 968 L600 974 L604 976 L612 976 L617 973 L622 966 L622 963 L624 959 L624 953 L625 952 L625 941 L624 940 L624 932 L623 931 L621 916 L618 910 L617 905 L612 897 L608 893 L601 889 L590 889 L586 891 L580 896 L574 907 L575 908 L580 899 L585 894 L592 891 L601 892 L605 894 L612 901 L617 912 L621 928 L622 956 L618 968 L614 972 L609 974 L602 973 L600 971 L595 960 L591 957 L585 955 L580 955 L579 956 L575 955 L579 953 L588 953 L594 956 L606 967 L612 967 L615 965 L615 963 L612 965 L606 965 L594 954 L587 951 L580 951 L574 953 L571 955 L571 957 L572 956 L574 957 L567 963 L564 968 L559 973 L546 978 L534 977 L527 974 L511 958 L513 956 L503 951 L497 951 L490 954 L479 965 L474 966 L470 964 L472 967 L478 967 L482 965 L489 957 L494 954 L504 953 L508 955 L507 956 L501 955 L492 958 L488 962 L485 970 L482 973 L479 974 L473 973 L466 967 L462 954 L463 931 L464 930 L466 917 L471 904 L480 894 L488 891 L493 891 L498 893 L505 900 L508 905 L508 907 L509 908 L510 907 L506 898 L500 892 L494 889 L486 889 L477 893 L473 897 Z M404 838 L405 837 L406 838 L405 839 Z M619 838 L620 837 L634 836 L635 835 L645 835 L646 834 L665 834 L666 835 L676 835 L677 836 L676 837 L653 838 L652 839 L620 839 Z M410 837 L411 836 L429 835 L430 834 L450 834 L451 835 L462 835 L463 836 L471 836 L472 837 L471 838 L456 838 L455 839 L428 839 L427 838 L411 838 Z M342 830 L343 843 L345 851 L346 874 L347 875 L348 915 L349 916 L349 934 L350 935 L350 948 L351 949 L351 965 L352 966 L353 991 L354 992 L354 1002 L355 1003 L355 1012 L356 1013 L356 1023 L357 1024 L359 1049 L360 1052 L361 1052 L361 1043 L360 1042 L360 1033 L359 1032 L357 1005 L356 1004 L356 994 L355 993 L355 983 L354 982 L354 969 L353 968 L348 866 L347 865 L346 847 L345 846 L344 835 Z M737 827 L738 826 L739 828 L738 829 Z M604 836 L620 829 L633 826 L641 826 L642 825 L665 825 L666 826 L677 827 L693 832 L692 834 L689 835 L662 833 L661 832 L647 832 L646 833 L637 833 L636 834 L615 836 L611 838 Z M394 834 L406 829 L414 827 L419 827 L420 826 L426 826 L427 825 L452 825 L453 826 L460 826 L473 829 L484 833 L485 835 L478 837 L476 835 L469 835 L468 834 L450 833 L449 832 L433 832 L432 833 L422 833 L421 834 L414 834 L413 835 L407 835 L399 837 L395 836 Z M738 825 L739 824 L740 826 L739 827 Z M739 824 L740 823 L741 824 L740 825 Z M373 824 L374 823 L393 823 L394 824 L386 831 L375 826 Z M393 823 L394 822 L396 823 L395 824 Z M371 823 L372 822 L374 823 L373 824 Z M691 822 L692 821 L694 822 L710 821 L711 822 L701 829 L699 829 Z M710 821 L711 820 L713 821 L712 822 Z M335 811 L363 848 L376 860 L388 867 L405 873 L415 874 L416 875 L425 875 L426 876 L438 876 L439 875 L455 874 L462 872 L462 871 L461 872 L444 873 L443 874 L421 874 L420 873 L413 873 L400 870 L387 865 L376 858 L366 849 L345 821 Z M750 807 L747 809 L722 847 L712 857 L703 863 L690 869 L669 874 L647 875 L646 876 L629 875 L637 876 L638 877 L657 877 L658 876 L677 874 L694 869 L699 866 L701 866 L712 859 L724 847 L737 828 L738 829 L731 852 L730 862 L729 863 L729 870 L728 871 L728 878 L727 879 L725 925 L724 926 L724 942 L723 943 L723 957 L722 958 L720 995 L719 996 L719 1006 L718 1007 L716 1052 L717 1052 L717 1045 L718 1044 L722 980 L723 979 L724 955 L725 954 L727 904 L728 903 L728 888 L729 887 L730 869 L731 868 L731 862 L732 861 L734 846 L739 830 L741 827 L740 822 Z M341 805 L342 807 L362 820 L374 826 L381 831 L385 832 L388 835 L396 838 L415 839 L416 840 L435 840 L436 841 L466 840 L467 839 L477 839 L478 838 L486 837 L491 832 L485 827 L473 821 L458 816 L444 815 L443 814 L419 814 L418 815 L402 816 L390 819 L374 819 L362 815 Z M744 800 L719 814 L704 818 L697 818 L696 817 L681 816 L680 815 L669 815 L668 814 L652 814 L651 815 L641 815 L640 816 L630 817 L618 821 L606 827 L598 833 L598 834 L601 837 L607 839 L632 840 L633 841 L661 840 L662 839 L673 839 L674 838 L687 837 L698 833 L707 826 L718 820 L744 802 Z M332 794 L335 798 L346 804 L361 808 L374 807 L394 801 L398 801 L404 799 L411 799 L412 798 L443 798 L444 799 L451 799 L452 800 L460 801 L475 807 L482 812 L487 817 L491 824 L492 824 L492 822 L488 816 L476 806 L468 802 L449 797 L442 797 L441 796 L413 796 L412 797 L405 797 L404 798 L394 799 L374 805 L359 806 L345 802 Z M752 789 L742 796 L734 800 L724 803 L706 803 L700 801 L682 799 L681 798 L671 798 L670 797 L652 797 L651 798 L641 798 L640 799 L630 800 L618 804 L608 810 L599 819 L596 825 L598 824 L600 820 L609 811 L622 804 L625 804 L629 802 L639 801 L640 800 L649 800 L650 799 L669 799 L670 800 L688 801 L689 802 L700 803 L706 805 L722 805 L723 804 L731 803 L738 800 L749 793 Z M854 705 L877 712 L890 713 L891 714 L891 911 L890 912 L886 911 L878 906 L866 894 L858 880 L853 862 L853 855 L852 854 L851 714 L852 713 L852 708 Z M231 705 L232 706 L232 744 L231 745 L231 802 L230 803 L230 861 L229 862 L229 869 L225 883 L220 893 L206 908 L196 913 L194 909 L194 715 L196 713 L206 713 Z M220 706 L221 705 L222 706 L221 707 Z M222 705 L223 704 L225 705 L224 706 Z M857 704 L858 703 L859 704 L858 705 Z M854 703 L855 702 L857 703 L856 704 Z M849 701 L852 700 L855 702 L852 703 Z M236 701 L227 705 L224 704 L232 700 Z M351 660 L352 688 L353 689 L353 709 L354 710 L354 731 L355 732 L355 785 L354 786 L354 799 L355 800 L356 799 L356 784 L357 783 L357 739 L356 738 L354 679 L353 678 L353 667 Z M733 654 L731 661 L731 672 L730 673 L729 715 L728 716 L728 733 L727 734 L727 747 L726 748 L726 768 L725 769 L725 791 L726 792 L726 798 L727 798 L727 774 L728 773 L728 751 L729 750 L729 732 L730 731 L731 686 L732 685 Z M816 644 L817 645 L817 652 L818 653 L818 709 L819 710 L818 772 L817 773 L817 793 L816 794 L816 812 L815 813 L815 862 L816 863 L816 871 L819 884 L824 897 L831 909 L840 920 L849 928 L861 936 L874 942 L891 946 L889 983 L888 984 L887 992 L885 994 L870 990 L853 981 L841 972 L826 957 L817 945 L807 927 L801 912 L797 896 L796 882 L795 881 L795 740 L796 739 L796 715 L795 714 L794 684 L793 683 L793 675 L792 674 L793 673 L797 673 L806 667 L812 658 Z M275 639 L275 652 L278 659 L284 664 L278 656 L276 649 L276 639 Z M266 638 L267 639 L267 651 L271 663 L280 673 L286 675 L285 684 L284 685 L284 692 L283 693 L283 704 L282 705 L282 777 L283 778 L284 873 L283 874 L283 890 L281 898 L281 906 L277 923 L273 934 L265 949 L255 962 L242 975 L226 986 L209 993 L200 994 L198 992 L197 982 L196 981 L194 946 L195 945 L196 946 L203 946 L218 941 L225 937 L237 927 L245 917 L252 905 L256 895 L260 879 L261 867 L262 866 L262 855 L263 854 L263 839 L264 838 L263 680 L264 679 L264 649 L265 648 L265 639 Z M342 631 L342 633 L348 643 L361 654 L380 663 L383 663 L399 668 L403 668 L425 676 L437 682 L465 701 L482 719 L492 738 L497 754 L498 764 L499 765 L499 772 L500 773 L500 801 L499 802 L499 810 L498 811 L496 825 L493 831 L494 832 L498 822 L499 814 L500 813 L501 796 L502 795 L502 776 L501 775 L501 767 L500 766 L500 761 L497 748 L493 736 L483 718 L468 702 L445 685 L417 671 L405 667 L394 665 L390 663 L383 662 L364 654 L351 644 L345 636 L344 632 Z M265 630 L266 629 L267 631 L266 632 Z M275 637 L282 631 L287 629 L293 631 L296 634 L294 630 L290 628 L284 628 Z M791 627 L787 629 L785 632 L790 629 L796 628 L799 629 L806 636 L806 643 L805 644 L804 652 L802 656 L795 663 L802 658 L806 651 L807 636 L802 629 L798 627 Z M739 624 L731 638 L718 650 L700 659 L660 670 L641 679 L620 694 L601 714 L593 726 L584 745 L579 763 L578 777 L577 778 L578 808 L583 827 L589 838 L590 838 L585 828 L580 810 L580 803 L579 802 L579 775 L580 774 L580 767 L581 766 L582 757 L585 747 L592 731 L600 718 L607 709 L621 695 L634 685 L646 678 L668 669 L690 664 L702 660 L718 652 L733 638 L738 629 Z M350 621 L349 624 L353 631 L361 639 L367 643 L383 650 L409 656 L431 664 L454 676 L471 689 L482 700 L495 719 L502 734 L508 753 L509 763 L510 764 L510 771 L511 772 L511 785 L512 786 L511 787 L512 789 L511 790 L511 802 L510 803 L509 816 L502 838 L494 851 L485 860 L466 873 L457 882 L449 896 L445 910 L444 923 L443 924 L443 936 L442 937 L440 996 L439 997 L439 1019 L438 1020 L438 1040 L437 1041 L437 1047 L439 1048 L440 1016 L441 1015 L441 992 L442 991 L442 970 L443 969 L443 950 L444 949 L444 935 L445 934 L445 922 L446 921 L447 909 L450 898 L459 882 L468 873 L486 861 L497 850 L506 834 L511 818 L512 808 L513 807 L513 798 L514 797 L514 778 L513 777 L513 767 L512 766 L511 755 L504 732 L498 719 L485 700 L469 684 L452 672 L435 663 L411 654 L379 646 L364 638 L353 626 L355 625 L365 629 L383 632 L384 633 L408 635 L409 636 L414 636 L415 637 L435 640 L456 647 L470 654 L486 665 L504 683 L521 709 L529 730 L531 747 L532 748 L532 767 L533 768 L531 836 L530 837 L530 850 L529 851 L529 865 L528 866 L528 876 L527 877 L527 886 L526 887 L526 897 L525 898 L524 916 L523 917 L523 925 L522 926 L522 939 L523 938 L523 931 L524 930 L524 923 L525 922 L528 882 L529 881 L529 871 L530 870 L530 856 L531 855 L532 827 L533 826 L533 806 L534 805 L534 755 L533 754 L533 744 L532 743 L531 732 L527 718 L519 702 L510 688 L492 668 L475 655 L458 646 L438 639 L430 637 L425 637 L424 636 L419 636 L418 635 L413 635 L412 634 L407 634 L406 633 L399 633 L398 632 L391 632 L390 631 L383 631 L382 630 L366 628 Z M724 620 L725 619 L726 620 L725 621 Z M290 617 L293 621 L299 625 L301 625 L302 627 L294 644 L290 656 L287 672 L285 673 L281 671 L274 664 L271 658 L270 650 L269 649 L268 632 L280 619 L285 617 Z M798 616 L803 618 L809 624 L815 632 L815 635 L814 636 L813 648 L809 659 L800 669 L793 672 L791 667 L791 662 L787 645 L779 624 L787 621 L792 616 Z M729 615 L714 622 L664 631 L638 639 L617 649 L601 659 L588 669 L574 683 L565 695 L553 718 L553 721 L550 728 L549 736 L548 737 L547 753 L546 754 L546 812 L547 813 L547 830 L548 831 L548 844 L549 845 L551 881 L552 882 L553 902 L554 903 L555 920 L556 921 L556 928 L557 929 L557 936 L558 938 L558 934 L557 933 L558 927 L557 926 L557 917 L556 916 L556 908 L555 907 L554 887 L553 886 L553 879 L552 878 L551 856 L550 855 L550 841 L549 840 L549 826 L548 825 L547 762 L548 761 L549 740 L552 727 L556 715 L563 701 L576 683 L587 672 L610 655 L631 644 L649 637 L652 637 L656 635 L672 631 L704 626 L716 623 L722 620 L725 621 L725 623 L719 631 L707 640 L699 644 L676 651 L673 651 L666 654 L663 654 L648 660 L629 670 L614 681 L595 700 L585 714 L575 733 L567 758 L566 770 L565 771 L564 793 L565 794 L566 811 L572 831 L579 844 L593 859 L615 873 L626 883 L629 887 L634 898 L636 906 L636 911 L637 912 L637 918 L638 919 L640 961 L641 962 L641 980 L642 981 L642 999 L643 1000 L643 1018 L644 1019 L644 1034 L645 1035 L645 1045 L646 1048 L647 1048 L647 1039 L646 1038 L646 1020 L645 1019 L645 1001 L644 1000 L641 936 L640 935 L639 913 L638 912 L638 907 L636 899 L628 883 L620 875 L612 869 L604 865 L594 858 L582 845 L574 830 L569 813 L568 801 L567 800 L567 777 L568 776 L569 762 L576 737 L583 722 L599 699 L613 685 L629 673 L654 660 L678 652 L692 649 L703 645 L707 642 L709 642 L715 638 L726 627 L730 620 L730 616 Z M331 581 L332 580 L333 582 L332 583 Z M333 579 L334 578 L335 579 L334 580 Z M312 579 L302 579 L299 580 L293 584 L292 588 L292 600 L295 607 L301 613 L305 615 L306 614 L303 613 L295 604 L293 596 L294 585 L304 580 L310 580 L318 584 L323 589 L322 586 L319 583 Z M774 577 L766 580 L760 587 L767 581 L772 579 L781 579 L788 582 L790 584 L789 585 L788 601 L786 605 L777 613 L779 613 L786 607 L790 600 L791 587 L789 583 L790 582 L781 577 Z M311 567 L320 575 L326 578 L332 583 L326 589 L314 605 L305 621 L303 623 L301 623 L295 620 L289 614 L285 607 L283 601 L284 577 L298 568 L301 567 Z M781 565 L790 569 L799 576 L799 599 L797 606 L791 615 L786 619 L779 622 L777 620 L777 618 L769 603 L761 591 L752 581 L757 576 L764 573 L770 567 Z M367 550 L368 548 L370 549 L368 551 Z M366 548 L367 547 L368 548 L367 549 Z M713 546 L714 545 L715 546 L714 547 Z M320 538 L320 550 L323 559 L334 570 L339 571 L332 567 L325 559 L322 551 L322 541 L321 540 L322 539 L329 537 L340 537 L343 538 L351 543 L358 552 L358 550 L351 541 L342 536 L331 535 L323 538 Z M763 536 L757 535 L753 533 L743 533 L730 540 L724 549 L735 538 L742 535 L750 534 L763 537 L764 538 L763 539 L763 545 L760 555 L751 565 L746 568 L744 568 L744 569 L746 569 L752 566 L760 558 L764 548 L764 540 L765 538 Z M410 526 L411 525 L412 526 L411 527 Z M308 527 L315 527 L325 524 L338 524 L345 527 L352 536 L363 545 L366 550 L366 552 L345 569 L335 579 L334 578 L332 579 L321 573 L313 565 L310 560 L307 551 L307 528 Z M410 524 L412 523 L414 525 L412 526 Z M778 526 L779 527 L779 544 L774 559 L763 571 L750 578 L737 565 L715 548 L737 525 L744 522 L752 521 L773 526 Z M669 523 L671 521 L672 522 L671 524 Z M622 507 L623 506 L625 507 L624 508 Z M459 506 L460 505 L463 508 L460 509 Z M526 501 L578 502 L579 503 L587 503 L588 504 L600 505 L634 513 L663 523 L689 535 L708 546 L731 563 L752 584 L760 594 L769 608 L778 626 L784 643 L788 659 L789 670 L790 671 L790 678 L791 679 L791 686 L792 687 L792 700 L793 701 L793 723 L794 724 L793 814 L792 815 L792 872 L793 873 L793 877 L792 878 L791 968 L790 969 L789 992 L788 993 L788 1000 L787 1001 L785 1019 L775 1060 L762 1096 L748 1125 L738 1142 L712 1179 L695 1199 L672 1222 L653 1238 L624 1258 L623 1257 L623 1245 L641 1233 L673 1205 L708 1166 L726 1140 L738 1117 L740 1115 L750 1092 L755 1078 L763 1047 L766 1026 L767 1025 L770 998 L771 997 L771 990 L772 989 L774 961 L775 960 L775 949 L776 948 L776 936 L777 935 L777 920 L778 919 L779 871 L780 870 L780 817 L781 816 L781 740 L780 739 L779 704 L778 703 L778 695 L777 694 L775 676 L773 672 L772 663 L767 646 L757 623 L742 600 L720 578 L693 559 L668 546 L630 532 L597 524 L585 523 L584 522 L576 522 L575 521 L566 521 L565 520 L526 520 L525 521 L514 521 L513 522 L492 524 L453 533 L412 548 L391 559 L365 577 L341 600 L328 617 L314 643 L305 669 L305 673 L301 688 L300 702 L299 703 L299 714 L298 715 L298 820 L299 821 L300 894 L301 895 L301 918 L302 919 L303 951 L304 952 L304 962 L305 963 L305 972 L306 973 L306 980 L308 988 L309 1003 L310 1004 L310 1009 L311 1010 L311 1015 L312 1016 L312 1021 L313 1022 L317 1046 L324 1069 L324 1072 L326 1078 L328 1079 L325 1071 L322 1056 L320 1052 L320 1048 L313 1020 L313 1014 L312 1013 L312 1007 L311 1006 L311 1000 L309 992 L309 985 L308 984 L308 977 L307 976 L306 957 L305 956 L304 925 L303 924 L303 896 L302 895 L301 816 L300 815 L300 719 L301 718 L301 706 L302 705 L302 696 L303 695 L304 684 L305 683 L308 666 L313 651 L326 624 L345 599 L365 580 L392 561 L420 547 L451 536 L483 528 L488 528 L501 525 L517 524 L518 523 L559 522 L560 523 L581 524 L582 525 L595 526 L610 530 L614 530 L618 532 L625 533 L647 540 L667 548 L697 564 L710 573 L727 587 L740 601 L752 618 L763 641 L773 676 L775 695 L776 696 L776 704 L777 705 L778 730 L779 731 L778 877 L777 878 L777 906 L776 907 L775 940 L774 941 L774 953 L773 954 L771 984 L770 985 L769 1000 L768 1001 L767 1015 L766 1016 L763 1039 L761 1044 L761 1048 L755 1072 L745 1100 L730 1130 L714 1155 L702 1171 L689 1186 L653 1221 L624 1243 L602 1255 L601 1254 L601 1248 L603 1241 L603 1234 L604 1233 L604 1226 L605 1225 L605 1218 L606 1217 L610 1169 L611 1168 L611 1158 L612 1157 L612 1148 L613 1147 L614 1129 L615 1128 L618 1098 L616 1104 L614 1126 L613 1127 L612 1141 L611 1142 L611 1151 L610 1152 L610 1162 L609 1163 L609 1171 L608 1172 L605 1212 L604 1213 L602 1237 L601 1238 L600 1250 L599 1251 L599 1253 L602 1255 L595 1259 L584 1263 L572 1266 L567 1266 L566 1267 L558 1267 L557 1268 L530 1268 L529 1267 L522 1267 L501 1262 L499 1260 L493 1259 L475 1250 L459 1240 L437 1224 L389 1184 L374 1169 L363 1156 L351 1138 L343 1122 L343 1120 L336 1105 L332 1091 L330 1088 L332 1098 L342 1124 L348 1136 L361 1156 L372 1169 L400 1196 L441 1229 L462 1244 L462 1256 L461 1257 L455 1254 L408 1217 L378 1190 L360 1170 L349 1156 L337 1137 L323 1108 L310 1073 L310 1070 L300 1039 L298 1026 L296 1021 L295 1011 L294 1010 L292 990 L291 989 L291 980 L290 979 L289 945 L288 944 L287 870 L286 869 L286 817 L285 816 L286 814 L285 813 L285 773 L284 772 L284 711 L285 710 L286 688 L287 687 L290 666 L297 643 L306 623 L319 602 L331 587 L357 562 L370 552 L389 540 L423 524 L455 513 L475 508 L479 508 L484 506 L502 504 L503 503 L511 503 L512 502 L525 502 Z M361 500 L359 506 L359 520 L363 529 L371 538 L377 541 L376 539 L372 537 L367 532 L362 523 L361 515 L360 514 L361 512 L361 502 L362 501 L374 502 L385 506 L394 515 L399 524 L399 527 L400 527 L400 524 L396 515 L389 507 L383 503 L377 501 Z M720 497 L706 498 L695 503 L685 514 L682 520 L682 524 L688 512 L695 505 L702 501 L720 498 L721 499 L721 506 L722 507 L720 520 L715 529 L705 539 L710 536 L717 529 L722 520 L723 516 L723 502 Z M577 495 L579 499 L575 500 L574 499 L576 498 Z M391 491 L392 490 L393 491 L392 492 Z M689 489 L690 488 L691 489 L690 490 Z M347 483 L350 482 L360 485 L371 485 L379 487 L389 492 L394 497 L399 509 L406 518 L410 527 L388 538 L373 548 L371 548 L365 543 L362 542 L351 531 L344 517 L343 513 L343 500 Z M735 478 L740 499 L739 513 L737 519 L731 529 L718 541 L711 546 L694 535 L678 527 L676 527 L672 524 L675 519 L675 517 L684 504 L687 496 L694 489 L709 482 L726 480 L733 477 Z M416 472 L411 481 L409 489 L410 502 L415 512 L420 517 L423 518 L415 509 L411 498 L412 483 L417 473 L432 479 L440 486 L445 495 L447 501 L447 505 L448 508 L449 508 L449 503 L447 495 L443 487 L432 477 Z M667 471 L653 476 L643 484 L636 496 L635 507 L636 507 L637 498 L642 488 L653 478 L662 475 L667 472 L671 483 L671 497 L667 508 L661 516 L666 512 L670 506 L673 497 L673 484 L670 475 Z M449 470 L450 469 L451 470 L450 471 Z M613 460 L597 470 L591 478 L587 489 L587 497 L589 498 L590 485 L595 475 L603 467 L608 465 L613 461 L620 476 L620 488 L618 495 L614 502 L618 498 L621 490 L622 479 L620 471 L616 463 Z M473 460 L467 469 L464 477 L464 490 L467 498 L471 503 L471 501 L469 499 L466 491 L465 482 L466 481 L467 473 L474 461 L484 467 L492 476 L496 485 L496 489 L497 490 L496 497 L497 498 L498 496 L498 486 L493 474 L485 466 Z M316 450 L317 449 L318 450 L317 451 Z M676 448 L679 451 L687 470 L688 487 L686 495 L682 503 L672 518 L667 523 L648 515 L645 515 L642 513 L639 513 L636 511 L627 509 L626 505 L630 489 L638 471 L650 460 L658 456 L663 455 Z M407 448 L415 453 L423 455 L435 460 L447 471 L451 478 L456 493 L457 503 L458 504 L458 509 L456 511 L438 516 L416 525 L405 514 L401 508 L395 494 L394 480 L398 465 Z M619 438 L628 451 L633 465 L633 477 L628 488 L626 499 L622 506 L618 507 L603 503 L581 500 L580 499 L580 486 L583 474 L588 463 L599 451 L612 444 Z M468 438 L475 444 L487 450 L496 459 L505 483 L506 493 L504 501 L487 503 L468 508 L464 508 L462 506 L459 500 L457 489 L453 479 L453 465 L457 455 Z M544 431 L541 432 L532 439 L525 446 L519 456 L517 462 L516 473 L517 474 L518 484 L523 494 L524 493 L521 488 L521 485 L519 481 L519 475 L518 474 L519 462 L525 449 L543 431 L556 444 L564 456 L567 472 L566 473 L565 485 L562 494 L565 490 L569 473 L568 462 L566 456 L560 446 Z M543 395 L571 423 L579 433 L584 443 L586 451 L586 463 L579 479 L577 493 L574 499 L519 499 L518 500 L508 500 L507 501 L506 499 L508 496 L509 498 L511 498 L507 489 L507 483 L505 475 L500 464 L500 447 L502 441 L509 429 Z M817 624 L817 629 L816 630 L805 617 L795 613 L800 604 L801 595 L802 594 L801 575 L787 565 L780 563 L778 564 L774 564 L773 563 L776 560 L780 550 L780 546 L781 545 L781 526 L779 524 L770 523 L760 520 L754 520 L753 519 L744 520 L740 522 L738 521 L742 511 L742 495 L736 475 L732 475 L724 478 L707 480 L696 485 L691 489 L690 488 L690 474 L689 473 L688 465 L681 450 L679 448 L679 446 L677 444 L670 449 L654 455 L647 459 L636 470 L632 454 L620 435 L611 442 L604 445 L595 451 L589 458 L588 457 L587 445 L580 430 L550 400 L543 391 L506 429 L499 442 L497 449 L497 455 L496 456 L494 453 L495 452 L494 453 L485 446 L475 441 L469 436 L467 436 L455 454 L451 465 L451 468 L449 470 L442 462 L436 458 L425 453 L412 449 L406 445 L394 469 L393 477 L392 478 L392 490 L391 491 L385 487 L377 484 L357 482 L356 481 L352 481 L349 479 L346 479 L340 501 L341 514 L344 523 L343 524 L338 522 L324 522 L314 525 L307 525 L305 526 L304 545 L307 558 L311 564 L310 565 L300 565 L297 566 L283 575 L280 595 L283 608 L287 614 L278 618 L267 630 L266 629 L266 618 L267 617 L267 608 L268 607 L269 595 L270 594 L270 589 L274 574 L274 570 L284 539 L291 524 L302 506 L309 497 L330 476 L350 461 L369 450 L404 433 L424 425 L460 407 L482 394 L514 372 L543 347 L559 362 L574 374 L597 390 L630 409 L661 424 L674 429 L687 436 L689 436 L728 456 L754 474 L772 492 L786 512 L794 527 L800 542 L810 575 L812 590 L814 596 L816 623 Z M782 480 L792 495 L800 511 L807 532 L809 535 L815 560 L819 595 L820 596 L822 615 L824 622 L825 649 L826 650 L826 687 L827 688 L827 789 L826 790 L826 815 L825 816 L825 839 L824 840 L824 856 L825 857 L826 873 L832 892 L842 908 L856 922 L866 929 L881 936 L890 938 L891 939 L891 943 L890 944 L879 942 L871 939 L857 932 L850 927 L836 913 L831 906 L825 895 L820 881 L820 877 L818 871 L818 864 L817 863 L817 811 L818 810 L819 766 L820 765 L819 627 L818 626 L818 615 L817 614 L815 592 L814 591 L814 587 L808 561 L799 535 L790 516 L780 500 L766 483 L754 472 L742 463 L719 449 L669 425 L656 420 L610 396 L594 386 L569 368 L552 354 L543 345 L519 366 L496 383 L471 399 L455 407 L453 409 L439 415 L435 418 L433 418 L420 425 L409 429 L373 446 L343 464 L331 473 L311 492 L295 514 L284 535 L276 556 L276 559 L274 563 L270 579 L270 584 L269 585 L267 602 L266 603 L266 609 L265 610 L265 618 L264 619 L263 653 L262 654 L262 693 L261 694 L261 717 L262 718 L262 846 L261 847 L261 859 L260 860 L260 868 L259 869 L257 885 L253 898 L248 909 L240 921 L229 932 L214 941 L198 945 L194 944 L194 940 L195 939 L203 938 L219 931 L232 920 L242 906 L250 886 L252 873 L253 872 L253 866 L254 865 L255 841 L256 840 L256 666 L257 665 L259 616 L260 615 L260 606 L261 605 L261 598 L262 597 L262 590 L263 589 L265 572 L266 571 L270 550 L277 528 L291 498 L299 486 L309 474 L331 454 L348 442 L374 427 L442 393 L444 391 L465 380 L500 357 L543 323 L575 349 L608 372 L639 390 L654 397 L656 399 L715 428 L740 443 L764 461 Z M876 310 L877 311 L876 312 L871 313 L863 317 L853 324 L832 342 L814 361 L793 387 L785 399 L776 418 L772 431 L769 449 L768 450 L763 445 L753 438 L752 436 L754 433 L760 414 L770 393 L779 380 L801 355 L824 334 L841 322 L858 313 L867 310 Z M210 310 L222 311 L236 317 L260 333 L282 353 L305 382 L323 412 L323 414 L328 423 L330 431 L333 436 L332 438 L331 437 L332 438 L327 443 L318 450 L317 449 L312 424 L302 401 L288 381 L270 359 L239 329 L219 315 L210 312 L209 311 Z M668 308 L669 307 L670 308 L669 309 Z M472 335 L485 328 L487 328 L509 318 L533 311 L538 311 L539 310 L552 311 L573 316 L596 324 L615 333 L613 331 L587 319 L556 310 L541 308 L540 309 L534 309 L510 316 L495 323 L493 323 L479 330 Z M416 307 L417 306 L418 308 L417 309 Z M651 291 L652 290 L653 291 L652 292 Z M433 291 L434 290 L435 291 L434 292 Z M650 290 L651 289 L652 290 L651 291 Z M505 248 L506 247 L507 248 L506 249 Z M506 247 L507 246 L508 247 L507 248 Z M507 246 L508 245 L509 246 L508 247 Z M508 245 L509 244 L510 245 L509 246 Z M575 244 L576 243 L577 244 L576 245 Z M509 244 L510 243 L511 244 L510 245 Z M574 243 L575 242 L576 243 L575 244 Z M573 242 L574 241 L575 242 L574 243 Z M511 241 L512 240 L513 241 L512 242 Z M512 240 L513 239 L514 240 L513 241 Z M513 239 L514 238 L515 239 L514 240 Z M570 238 L571 237 L572 238 L571 239 Z M569 237 L570 236 L571 237 L570 238 Z M568 236 L569 235 L570 236 L569 237 Z M516 235 L517 237 L515 239 L514 237 Z M516 235 L517 234 L518 235 L517 236 Z M567 234 L568 233 L569 234 L568 235 Z M517 234 L518 233 L519 234 L518 235 Z M566 233 L567 232 L568 233 L567 234 Z M565 232 L566 231 L567 232 L566 233 Z M518 232 L519 231 L520 233 L519 234 Z M519 231 L520 230 L521 231 L520 232 Z M564 230 L565 229 L566 231 L565 232 Z M520 230 L521 229 L522 230 L521 231 Z M563 229 L564 228 L565 229 L564 230 Z M562 228 L563 227 L564 228 L563 229 Z M521 228 L522 227 L523 229 L522 230 Z M522 227 L523 226 L524 227 L523 228 Z M561 226 L562 225 L563 227 L562 228 Z M560 225 L561 224 L562 225 L561 226 Z M525 223 L526 225 L524 227 L523 225 Z M559 223 L560 222 L561 224 L560 225 Z M525 223 L526 222 L527 223 L526 224 Z M558 222 L559 221 L560 222 L559 223 Z M528 219 L529 221 L527 223 L526 221 Z M556 219 L557 218 L559 221 L558 222 Z M528 218 L529 217 L530 219 L529 220 Z M529 217 L530 216 L531 217 L530 218 Z M554 216 L555 215 L557 218 L556 219 Z M552 213 L553 212 L555 215 L554 216 Z M516 248 L516 249 L523 242 L543 215 L559 237 L572 251 L543 213 L542 213 L529 232 Z M550 210 L551 209 L553 212 L552 213 Z M535 208 L536 210 L531 217 L530 215 Z M537 205 L538 207 L536 209 L535 207 Z M883 314 L886 323 L886 415 L887 416 L887 447 L888 448 L888 529 L889 530 L889 673 L890 674 L891 710 L890 711 L885 711 L881 709 L874 708 L860 703 L853 699 L852 622 L851 621 L851 604 L850 603 L849 541 L848 540 L848 499 L847 498 L847 402 L848 401 L850 385 L847 394 L846 409 L845 410 L845 499 L846 500 L846 545 L847 546 L847 578 L848 579 L848 606 L849 607 L849 642 L850 643 L850 685 L851 686 L851 697 L849 699 L846 699 L846 701 L854 705 L850 709 L850 719 L849 720 L849 817 L850 818 L850 851 L851 852 L852 867 L855 877 L864 894 L878 908 L890 914 L890 928 L891 929 L891 935 L890 936 L877 932 L864 925 L856 919 L841 903 L833 888 L829 875 L828 864 L827 863 L827 826 L828 825 L828 805 L829 804 L830 718 L829 717 L829 661 L828 660 L827 628 L826 627 L825 610 L822 597 L821 582 L820 581 L819 567 L818 566 L816 551 L805 516 L794 493 L776 469 L762 456 L746 444 L720 428 L638 387 L609 370 L580 350 L544 321 L541 321 L508 348 L472 373 L441 391 L367 428 L339 445 L322 458 L302 478 L288 498 L279 516 L273 534 L271 537 L271 540 L264 563 L261 584 L260 585 L260 591 L259 592 L259 599 L258 600 L256 632 L255 633 L254 681 L253 682 L253 847 L252 848 L252 860 L251 861 L251 867 L250 868 L248 884 L246 888 L245 894 L240 905 L238 907 L238 909 L225 924 L218 929 L206 935 L198 936 L197 937 L194 936 L195 915 L204 911 L211 906 L220 896 L228 880 L231 868 L231 861 L232 860 L232 829 L233 828 L233 757 L234 756 L234 712 L233 711 L233 706 L231 705 L240 700 L240 699 L237 699 L233 697 L234 695 L234 679 L235 678 L235 641 L236 640 L238 551 L239 550 L239 514 L240 513 L240 404 L239 403 L239 397 L237 389 L235 385 L237 392 L238 408 L239 409 L239 460 L238 461 L238 512 L237 513 L236 585 L235 586 L235 605 L234 606 L234 625 L233 626 L232 698 L230 700 L228 700 L211 708 L199 711 L195 711 L194 710 L195 708 L195 684 L196 683 L196 645 L197 644 L196 541 L197 540 L197 457 L198 456 L198 425 L199 424 L199 326 L200 325 L201 316 L205 312 L216 315 L229 323 L245 336 L268 359 L284 378 L297 396 L307 415 L314 439 L315 451 L316 452 L294 473 L287 483 L277 503 L273 516 L273 521 L272 522 L273 523 L274 517 L283 493 L296 473 L314 455 L338 437 L358 418 L376 395 L396 361 L412 339 L443 308 L483 275 L503 256 L522 234 L538 211 L540 206 L543 203 L557 225 L579 252 L597 270 L636 302 L667 331 L684 352 L713 400 L731 422 L749 438 L775 457 L789 472 L799 487 L806 503 L811 521 L813 533 L814 529 L813 528 L813 523 L806 498 L798 482 L785 465 L770 451 L771 450 L772 439 L777 423 L777 420 L785 402 L792 391 L805 374 L827 349 L849 329 L864 318 L878 312 L881 312 Z M539 202 L540 204 L538 206 L537 204 Z M546 201 L551 208 L550 210 L545 203 Z M544 201 L545 200 L546 201 L545 202 Z M539 201 L540 200 L541 202 L540 203 Z M543 199 L544 198 L545 200 L544 201 Z M410 324 L412 319 L420 308 L440 289 L455 277 L486 246 L506 221 L529 188 L543 175 L559 191 L589 233 L605 252 L624 271 L661 303 L669 312 L676 325 L676 334 L674 336 L644 306 L607 276 L580 250 L582 249 L571 236 L550 204 L543 196 L542 200 L541 201 L540 199 L523 224 L505 248 L506 249 L495 261 L474 280 L443 305 L411 337 L410 336 Z M651 288 L649 290 L625 269 L609 253 L589 229 L573 206 L569 202 L568 199 L556 184 L549 177 L542 173 L534 179 L526 188 L497 229 L481 248 L453 276 L435 291 L434 290 L441 279 L465 254 L485 230 L514 188 L526 173 L537 163 L543 160 L550 164 L564 178 L603 233 L619 252 L643 277 Z M488 153 L491 151 L506 146 L510 146 L515 144 L522 144 L523 143 L532 143 L533 142 L565 143 L566 144 L571 144 L588 148 L594 151 L599 152 L594 149 L569 142 L551 141 L550 140 L537 140 L536 141 L518 142 L505 145 L491 150 Z M443 181 L448 174 L462 160 L472 153 L492 143 L507 138 L511 138 L517 136 L532 135 L533 134 L553 134 L554 135 L563 135 L564 136 L575 137 L594 143 L614 153 L625 161 L637 173 L648 191 L657 226 L660 247 L662 253 L662 258 L664 264 L669 307 L668 308 L657 296 L649 281 L614 243 L599 224 L570 182 L556 166 L556 164 L562 158 L569 155 L581 154 L598 158 L614 166 L628 177 L638 188 L644 197 L641 190 L631 178 L615 165 L602 158 L585 153 L571 153 L565 155 L560 158 L554 165 L550 161 L543 158 L539 159 L531 164 L524 157 L513 153 L497 154 L487 157 L473 164 L458 175 L447 187 L442 196 L452 183 L460 175 L474 165 L486 159 L500 155 L515 155 L523 158 L530 164 L530 166 L515 183 L491 218 L472 243 L440 277 L433 286 L428 297 L418 307 L417 306 L417 298 L418 297 L420 276 L421 275 L426 240 L428 234 L428 229 L435 199 Z M492 106 L501 98 L511 92 L519 89 L533 87 L534 86 L551 86 L552 87 L558 87 L559 88 L567 89 L582 96 L591 105 L593 105 L583 95 L569 88 L557 85 L538 84 L537 85 L524 86 L512 90 L500 97 Z M489 104 L492 98 L498 91 L507 84 L518 78 L537 73 L549 73 L565 77 L570 80 L572 80 L583 87 L595 100 L598 109 L597 110 L597 122 L596 123 L596 137 L597 141 L596 142 L583 137 L570 135 L569 134 L563 134 L562 133 L533 132 L532 133 L524 133 L523 134 L512 135 L500 138 L490 142 L489 141 L489 114 L488 113 Z M535 71 L520 75 L508 81 L494 92 L489 99 L486 107 L486 116 L487 117 L487 137 L486 138 L486 143 L484 145 L473 150 L460 159 L446 173 L440 182 L435 192 L431 204 L428 221 L426 226 L424 241 L422 247 L422 252 L421 253 L421 258 L420 259 L420 264 L419 265 L417 283 L416 284 L416 292 L414 300 L413 314 L411 316 L407 326 L408 341 L397 355 L376 391 L365 406 L350 423 L338 433 L337 435 L335 433 L331 421 L325 410 L302 374 L286 354 L271 339 L244 319 L225 309 L217 308 L216 307 L209 307 L204 309 L200 313 L198 317 L197 333 L196 334 L197 402 L196 403 L195 470 L194 471 L194 660 L193 661 L192 726 L191 727 L191 901 L192 902 L191 952 L192 953 L192 967 L193 968 L193 978 L194 979 L195 991 L198 998 L206 1005 L213 1007 L234 1007 L235 1006 L246 1006 L247 1005 L257 1005 L258 1004 L273 1004 L274 1003 L287 1003 L288 1002 L291 1003 L296 1033 L303 1056 L303 1059 L314 1092 L324 1117 L334 1137 L348 1159 L367 1182 L383 1198 L408 1220 L444 1249 L462 1261 L465 1258 L467 1263 L486 1273 L504 1279 L512 1280 L513 1281 L519 1281 L520 1282 L528 1282 L529 1283 L558 1283 L559 1282 L567 1282 L568 1281 L573 1281 L586 1278 L607 1270 L619 1262 L619 1249 L620 1248 L621 1249 L621 1259 L624 1261 L645 1247 L663 1233 L679 1219 L703 1194 L727 1163 L741 1142 L759 1109 L759 1107 L769 1085 L778 1058 L778 1055 L780 1051 L785 1031 L788 1011 L789 1010 L789 1005 L791 1001 L794 1002 L824 1003 L825 1004 L870 1007 L882 1003 L889 994 L891 987 L891 980 L892 979 L893 953 L894 952 L894 934 L893 933 L893 902 L894 901 L894 726 L893 725 L893 683 L892 682 L892 655 L891 654 L891 464 L890 463 L890 423 L889 422 L889 394 L888 393 L889 326 L888 325 L888 319 L885 312 L880 308 L870 307 L869 308 L861 309 L850 314 L824 331 L812 341 L795 358 L772 386 L763 401 L757 413 L750 433 L748 434 L727 414 L707 387 L690 357 L677 340 L679 332 L679 327 L677 320 L673 314 L672 310 L670 288 L669 287 L669 281 L668 280 L668 274 L667 273 L662 238 L661 237 L661 233 L660 232 L660 228 L658 223 L654 202 L646 182 L639 172 L627 160 L616 152 L602 145 L599 142 L599 111 L600 108 L597 99 L591 91 L581 83 L566 75 L551 71 Z" fill="#eef3f4" fill-rule="evenodd"/>
</svg>
