<svg xmlns="http://www.w3.org/2000/svg" width="1086" height="1448" viewBox="0 0 1086 1448">
  <title>0160</title>
  <path d="M473 989 L473 990 L481 993 L490 994 L491 995 L498 995 L499 996 L562 996 L563 995 L577 994 L590 990 L590 989 L579 992 L567 993 L566 994 L497 994 L496 993 L483 992 L476 989 Z M443 954 L443 956 L449 966 L455 972 L461 976 L484 982 L493 982 L494 983 L503 983 L504 984 L520 984 L521 985 L568 984 L569 983 L584 982 L600 977 L606 973 L623 955 L622 954 L603 972 L589 978 L577 979 L576 980 L567 980 L566 981 L531 982 L530 981 L493 980 L492 979 L479 978 L466 975 L455 969 L450 964 Z M632 920 L633 919 L635 920 L634 921 Z M634 919 L635 918 L636 919 L635 920 Z M635 918 L636 917 L637 918 L636 919 Z M427 918 L429 917 L432 919 L442 922 L453 922 L459 920 L462 921 L463 920 L470 920 L471 919 L487 919 L495 921 L511 928 L523 929 L524 930 L536 929 L548 925 L553 922 L564 921 L565 920 L580 921 L581 922 L594 923 L595 924 L596 923 L603 925 L615 925 L616 924 L624 923 L630 920 L633 921 L630 924 L618 930 L602 934 L563 937 L562 938 L555 938 L554 939 L540 940 L539 941 L517 941 L516 940 L503 939 L497 937 L454 932 L438 926 Z M426 917 L427 916 L428 917 L427 918 Z M638 916 L639 915 L640 916 L639 917 Z M425 916 L426 915 L427 916 L426 917 Z M644 912 L645 911 L646 912 L645 913 Z M646 911 L647 910 L651 910 L653 912 L653 914 L651 915 L650 912 Z M409 907 L411 908 L410 912 L408 911 Z M406 907 L406 911 L408 913 L412 914 L410 912 L414 911 L433 929 L452 940 L472 945 L488 946 L489 947 L501 947 L502 948 L516 948 L517 949 L571 948 L572 947 L590 946 L591 945 L596 945 L604 943 L610 940 L615 939 L631 929 L646 915 L650 914 L651 915 L648 917 L649 918 L655 914 L654 910 L646 909 L633 918 L618 923 L595 923 L594 922 L589 922 L577 919 L558 919 L539 926 L517 927 L504 924 L494 919 L485 918 L484 917 L475 917 L474 918 L467 918 L460 920 L440 920 L426 914 L418 907 L414 905 L409 905 Z M270 893 L271 892 L272 893 L271 894 Z M271 892 L272 891 L273 892 L272 893 Z M272 890 L273 889 L274 891 L273 892 Z M273 888 L274 887 L275 889 L274 890 Z M278 864 L276 867 L276 874 L274 879 L275 881 L277 878 L277 874 L278 873 Z M802 862 L801 877 L802 878 L803 887 L805 888 L804 880 L803 879 L803 862 Z M604 839 L597 835 L586 836 L577 839 L557 850 L544 853 L519 853 L518 852 L513 852 L500 848 L486 840 L477 837 L465 837 L462 839 L462 841 L467 843 L480 843 L495 848 L499 851 L512 855 L517 855 L518 856 L545 856 L561 852 L569 847 L579 843 L587 841 L604 840 Z M579 824 L571 831 L561 836 L553 838 L547 838 L546 839 L517 839 L516 838 L506 837 L497 833 L495 833 L495 834 L507 839 L520 840 L521 841 L552 840 L563 837 L569 834 L579 826 Z M853 787 L852 788 L852 796 L851 797 L850 817 L849 818 L848 831 L847 832 L844 850 L838 865 L831 874 L834 873 L837 870 L845 853 L847 841 L849 836 L850 823 L851 822 Z M460 778 L453 781 L446 788 L442 795 L440 802 L440 820 L444 832 L447 837 L454 844 L461 847 L473 847 L474 845 L461 844 L453 839 L447 831 L443 819 L443 801 L447 791 L457 781 L462 780 L467 782 L466 780 Z M605 774 L598 774 L593 777 L593 779 L598 776 L606 776 L611 778 L616 782 L622 792 L624 800 L624 816 L621 827 L617 834 L611 840 L606 843 L598 845 L591 845 L593 847 L602 847 L609 845 L614 842 L618 838 L623 830 L627 815 L627 803 L623 789 L614 778 Z M229 754 L228 757 L228 781 L227 782 L227 813 L228 814 L228 821 L233 841 L239 852 L246 858 L239 849 L235 841 L230 823 L230 816 L229 815 L230 754 Z M816 740 L817 739 L818 740 L817 741 Z M817 737 L818 736 L819 737 L818 738 Z M818 735 L819 734 L820 735 L819 736 Z M267 725 L268 724 L269 726 L268 727 Z M266 724 L267 723 L268 724 L267 725 Z M265 722 L266 721 L267 722 L266 723 Z M261 716 L262 715 L263 716 L262 717 Z M448 685 L449 684 L451 685 L450 686 Z M309 681 L315 680 L324 683 L333 683 L334 682 L351 680 L356 678 L348 678 L347 679 L341 679 L334 681 L322 681 L321 680 L316 680 L314 678 L309 679 Z M604 676 L605 675 L606 676 L605 677 Z M605 675 L606 674 L607 675 L606 676 Z M450 675 L451 674 L452 675 L451 676 Z M606 674 L607 673 L608 674 L607 675 Z M449 674 L450 673 L451 674 L450 675 Z M607 673 L608 672 L609 673 L608 674 Z M332 667 L333 666 L334 667 L333 668 Z M333 666 L334 665 L336 666 L335 667 Z M335 665 L342 660 L365 650 L381 648 L382 647 L400 647 L401 648 L408 648 L409 649 L417 650 L427 654 L442 664 L450 673 L449 674 L440 667 L426 660 L413 656 L403 655 L402 654 L394 654 L393 653 L381 653 L380 654 L372 654 L371 655 L362 656 L337 666 Z M307 672 L307 674 L314 676 L328 676 L356 667 L360 667 L370 664 L394 663 L395 664 L402 664 L419 668 L439 677 L449 684 L448 685 L444 685 L425 679 L410 677 L409 676 L401 676 L400 675 L372 675 L371 676 L359 677 L358 679 L371 678 L372 677 L401 677 L402 678 L410 678 L411 679 L416 679 L426 682 L430 682 L449 688 L454 688 L458 685 L458 682 L456 680 L456 678 L453 673 L441 660 L424 650 L405 645 L380 645 L379 646 L373 646 L365 648 L344 657 L333 664 L324 672 L321 673 L309 673 Z M598 684 L600 686 L602 686 L603 688 L608 688 L617 685 L621 685 L636 681 L642 681 L643 680 L651 680 L652 679 L685 679 L686 680 L701 681 L731 688 L746 688 L750 687 L750 686 L730 686 L724 684 L718 684 L710 681 L706 681 L695 678 L688 678 L687 677 L654 677 L653 678 L638 679 L623 683 L614 684 L609 686 L606 685 L629 672 L643 667 L657 665 L658 664 L683 664 L684 665 L690 665 L744 682 L756 681 L761 679 L761 677 L755 679 L748 679 L735 674 L729 670 L707 660 L683 654 L659 654 L658 655 L647 656 L625 663 L616 668 L610 673 L608 672 L617 663 L624 658 L638 651 L644 650 L648 648 L655 648 L656 647 L678 647 L679 648 L693 650 L709 656 L730 668 L728 665 L717 658 L694 648 L686 646 L681 646 L680 645 L673 645 L672 644 L661 644 L660 645 L653 645 L652 646 L643 647 L632 651 L621 657 L606 671 L601 678 L602 679 Z M834 640 L835 639 L836 641 L835 642 Z M835 639 L836 638 L837 639 L836 640 Z M491 639 L490 639 L490 643 L489 644 L489 649 L486 662 L485 680 L484 681 L484 703 L485 704 L484 731 L474 771 L473 785 L472 786 L472 799 L473 800 L474 809 L479 821 L483 825 L483 823 L478 816 L475 806 L475 802 L474 801 L474 783 L475 782 L475 775 L479 761 L479 757 L482 749 L483 739 L486 727 L486 721 L487 720 L486 680 L487 679 L487 669 L488 668 L489 654 L491 647 Z M836 637 L837 636 L838 637 L837 638 Z M251 637 L252 636 L253 637 L252 638 Z M250 636 L251 635 L252 636 L251 637 Z M837 635 L838 634 L839 636 L838 637 Z M249 634 L250 633 L251 634 L250 635 Z M880 617 L879 617 L878 620 L878 625 L877 626 L877 631 L876 632 L873 651 L865 683 L866 686 L869 678 L872 660 L874 656 L875 646 L879 630 Z M229 602 L241 617 L250 632 L249 634 L238 620 L234 612 L228 604 Z M227 602 L228 601 L229 602 L228 603 Z M226 601 L227 600 L228 601 L227 602 Z M225 600 L226 599 L227 600 L226 601 Z M224 599 L225 598 L226 599 L225 600 Z M862 597 L863 599 L845 626 L844 629 L839 635 L838 633 L848 615 L857 602 Z M223 598 L224 597 L225 598 L224 599 Z M862 597 L863 596 L864 597 L863 598 Z M863 596 L864 595 L865 596 L864 597 Z M220 596 L221 595 L222 596 L221 597 Z M864 595 L865 594 L866 595 L865 596 Z M865 594 L866 593 L867 594 L866 595 Z M867 593 L868 592 L869 593 L868 594 Z M473 592 L486 613 L492 628 L493 626 L488 613 L480 600 Z M876 587 L870 587 L866 589 L854 601 L837 628 L824 658 L823 662 L823 675 L826 681 L829 692 L829 708 L825 721 L815 735 L816 737 L813 743 L813 758 L815 764 L815 769 L813 776 L815 776 L817 769 L817 748 L818 747 L818 743 L824 730 L823 728 L825 726 L830 715 L831 706 L832 705 L832 696 L829 684 L825 676 L825 668 L827 666 L829 656 L834 646 L852 620 L864 600 L871 593 L876 592 L880 597 L880 607 L882 606 L881 593 L879 589 Z M330 572 L331 573 L344 563 L367 553 L375 551 L380 551 L381 550 L401 549 L402 550 L410 550 L430 556 L449 567 L466 582 L468 582 L455 569 L439 558 L423 551 L411 548 L403 548 L402 547 L381 548 L359 554 L343 562 Z M884 550 L888 554 L893 563 L894 572 L895 573 L895 585 L894 586 L894 595 L893 596 L889 623 L884 643 L881 650 L880 657 L878 661 L878 664 L876 668 L876 671 L874 675 L874 679 L869 695 L869 699 L864 720 L864 725 L863 726 L862 745 L861 746 L861 781 L860 782 L860 803 L859 804 L859 821 L858 822 L858 850 L856 857 L855 878 L854 879 L853 887 L847 899 L836 908 L830 910 L823 910 L815 907 L809 901 L805 894 L803 893 L804 898 L808 905 L807 906 L802 935 L800 940 L800 944 L796 960 L780 1011 L769 1035 L769 1037 L752 1070 L733 1100 L716 1122 L687 1151 L671 1163 L655 1173 L633 1184 L615 1190 L612 1192 L583 1199 L571 1200 L570 1201 L558 1201 L557 1202 L526 1201 L525 1200 L517 1200 L516 1199 L504 1198 L483 1193 L459 1185 L454 1182 L440 1177 L415 1164 L390 1148 L368 1131 L352 1115 L337 1096 L321 1070 L321 1068 L319 1066 L319 1064 L317 1062 L317 1060 L310 1046 L301 1019 L294 990 L292 986 L290 974 L284 952 L282 938 L280 933 L279 924 L277 919 L277 915 L275 910 L273 897 L276 893 L277 888 L275 888 L274 885 L273 885 L269 892 L264 897 L257 900 L254 900 L244 897 L239 894 L231 885 L228 877 L228 873 L227 872 L227 854 L226 853 L226 848 L223 835 L223 786 L224 785 L224 729 L223 728 L223 720 L222 719 L222 713 L221 712 L219 698 L217 693 L217 689 L213 673 L195 624 L193 609 L192 608 L192 585 L193 584 L193 580 L197 568 L202 560 L210 552 L221 546 L233 545 L241 548 L249 556 L255 569 L258 588 L263 608 L266 659 L265 660 L264 659 L264 656 L260 645 L244 616 L233 601 L225 593 L219 590 L213 590 L208 594 L205 601 L205 619 L208 628 L209 637 L212 644 L220 675 L221 675 L221 670 L207 619 L207 604 L211 598 L217 596 L225 602 L239 624 L247 635 L253 641 L261 654 L263 661 L263 666 L261 674 L259 676 L255 685 L254 701 L257 713 L264 724 L263 726 L265 730 L266 737 L269 740 L268 751 L266 757 L266 767 L268 772 L270 772 L268 766 L268 756 L271 745 L271 736 L268 728 L270 726 L270 724 L262 711 L259 700 L259 689 L261 683 L259 680 L261 677 L261 673 L264 670 L264 663 L265 662 L266 663 L266 666 L268 670 L270 691 L271 692 L271 703 L273 709 L275 761 L276 762 L276 780 L277 781 L277 800 L278 801 L278 820 L279 821 L280 860 L281 861 L282 888 L283 889 L283 899 L284 900 L286 923 L287 924 L287 929 L288 930 L288 935 L289 936 L292 956 L303 995 L305 998 L309 1011 L314 1020 L314 1022 L330 1052 L343 1071 L361 1093 L385 1117 L402 1131 L427 1147 L439 1153 L456 1159 L472 1162 L496 1169 L506 1170 L507 1171 L516 1171 L517 1172 L552 1172 L553 1171 L560 1171 L561 1170 L566 1170 L579 1167 L606 1158 L642 1141 L661 1129 L663 1129 L682 1119 L691 1112 L704 1099 L721 1079 L736 1057 L748 1036 L760 1010 L763 1000 L769 987 L771 979 L773 976 L781 950 L785 934 L788 915 L789 914 L791 895 L793 888 L793 881 L794 880 L795 862 L796 861 L796 850 L797 849 L797 840 L798 839 L798 830 L799 829 L799 818 L800 817 L800 808 L801 807 L801 797 L802 796 L802 786 L803 785 L803 775 L804 774 L807 732 L809 725 L809 719 L811 714 L811 705 L812 704 L812 698 L813 697 L813 691 L814 690 L814 684 L816 676 L816 669 L817 668 L817 661 L818 660 L818 651 L819 650 L820 631 L821 630 L821 619 L822 618 L822 608 L826 591 L835 568 L841 559 L850 550 L862 544 L873 544 Z M738 566 L721 556 L694 546 L684 545 L683 544 L667 543 L666 544 L657 544 L644 547 L623 556 L611 564 L596 578 L582 597 L574 614 L573 621 L574 621 L578 609 L583 599 L599 578 L615 564 L626 557 L639 551 L659 546 L684 546 L705 551 L722 559 L724 559 L737 567 Z M272 457 L273 461 L272 462 L269 483 L268 484 L268 491 L267 492 L266 506 L265 507 L265 516 L264 517 L263 551 L262 552 L262 579 L263 580 L263 592 L262 593 L261 592 L259 577 L256 565 L251 556 L252 552 L246 542 L242 538 L235 535 L231 535 L225 538 L235 537 L246 546 L245 548 L240 544 L232 542 L221 543 L215 546 L213 545 L222 525 L229 514 L252 489 L269 464 Z M528 109 L576 110 L577 111 L588 111 L589 112 L613 114 L614 115 L619 115 L645 121 L667 128 L682 135 L684 135 L717 153 L739 169 L761 190 L778 211 L797 244 L797 246 L807 268 L813 286 L816 302 L818 307 L821 331 L822 332 L822 342 L823 343 L824 380 L823 381 L823 390 L816 407 L815 417 L814 418 L814 433 L815 434 L815 440 L817 447 L825 461 L833 472 L846 485 L871 501 L882 512 L886 520 L888 528 L888 538 L887 539 L887 544 L885 547 L883 545 L873 541 L862 541 L853 545 L851 547 L850 545 L852 542 L861 533 L865 531 L871 531 L876 535 L878 535 L874 531 L869 529 L861 531 L852 539 L849 543 L846 551 L838 559 L831 571 L830 570 L830 546 L829 545 L829 533 L828 532 L825 504 L815 462 L812 455 L810 446 L808 445 L820 488 L820 492 L824 508 L824 513 L825 514 L825 520 L826 521 L827 547 L828 548 L828 570 L827 571 L828 581 L825 587 L825 591 L824 592 L823 591 L823 548 L822 547 L821 524 L820 523 L820 515 L819 514 L817 496 L808 463 L797 440 L787 426 L776 415 L765 407 L752 400 L742 397 L739 395 L723 391 L718 391 L717 390 L701 389 L700 388 L649 388 L648 389 L624 389 L623 390 L605 390 L604 391 L537 392 L536 391 L509 391 L508 390 L472 391 L471 390 L420 389 L419 388 L381 388 L380 389 L370 389 L369 390 L362 390 L361 391 L343 394 L320 403 L310 410 L298 422 L289 435 L278 461 L278 465 L279 465 L283 452 L292 434 L300 423 L310 413 L318 407 L332 400 L348 395 L363 393 L364 392 L372 392 L373 391 L409 390 L410 391 L441 391 L442 392 L468 392 L469 393 L575 394 L576 393 L608 393 L609 392 L631 392 L632 391 L653 391 L654 390 L695 390 L696 391 L707 391 L708 392 L715 392 L716 393 L731 395 L751 402 L767 411 L776 418 L789 432 L796 443 L806 465 L813 489 L813 493 L816 504 L817 518 L818 519 L818 528 L819 529 L820 557 L821 558 L821 593 L820 594 L820 609 L819 610 L820 611 L819 612 L818 637 L817 638 L817 647 L816 648 L816 655 L815 656 L815 663 L814 664 L814 672 L813 673 L810 700 L807 713 L805 737 L804 738 L801 779 L800 780 L800 792 L799 793 L797 824 L796 825 L796 835 L795 836 L795 844 L794 845 L793 866 L792 867 L791 884 L789 891 L789 899 L788 900 L786 917 L781 937 L781 941 L768 983 L758 1008 L755 1013 L755 1015 L752 1020 L752 1022 L735 1054 L714 1084 L698 1102 L686 1113 L673 1122 L663 1127 L658 1128 L633 1143 L631 1143 L607 1155 L597 1159 L591 1160 L588 1162 L585 1162 L569 1167 L557 1168 L556 1169 L546 1169 L545 1170 L522 1170 L521 1169 L504 1168 L503 1167 L489 1165 L479 1161 L475 1161 L454 1156 L438 1150 L434 1147 L432 1147 L409 1133 L383 1112 L356 1084 L342 1066 L331 1049 L312 1012 L301 981 L301 978 L299 974 L295 958 L295 954 L291 938 L291 933 L290 932 L290 927 L289 926 L288 911 L287 910 L287 903 L286 902 L284 868 L283 867 L283 851 L282 850 L281 810 L280 809 L280 792 L279 791 L279 770 L278 769 L278 753 L277 752 L277 736 L276 735 L276 713 L275 712 L275 703 L274 702 L274 695 L273 694 L272 679 L271 678 L271 671 L270 670 L270 663 L269 662 L269 653 L268 652 L268 643 L267 642 L267 629 L266 628 L265 595 L264 594 L264 566 L265 565 L265 541 L266 540 L267 512 L268 511 L269 495 L270 494 L270 488 L271 487 L275 455 L276 454 L276 449 L275 448 L275 443 L276 442 L276 405 L275 404 L275 379 L274 378 L276 323 L277 322 L279 297 L280 296 L281 285 L283 280 L285 267 L287 263 L291 247 L304 219 L312 206 L324 190 L344 170 L365 154 L398 136 L400 136 L415 129 L426 126 L429 124 L432 124 L442 120 L458 116 L480 113 L481 112 L489 112 L490 111 L527 110 Z M497 107 L496 108 L485 108 L484 109 L466 111 L441 117 L416 125 L401 131 L390 137 L388 137 L358 155 L339 170 L319 191 L305 211 L289 243 L279 278 L276 300 L275 301 L273 331 L272 332 L272 349 L271 350 L271 391 L272 392 L272 411 L273 412 L273 439 L272 440 L271 451 L267 461 L251 485 L225 514 L217 527 L217 529 L211 541 L209 549 L202 555 L196 563 L192 571 L189 583 L188 604 L189 605 L190 618 L194 629 L194 632 L204 656 L211 678 L215 699 L216 700 L216 704 L217 705 L217 709 L218 710 L219 721 L220 722 L220 731 L221 732 L221 782 L220 783 L219 821 L220 822 L220 837 L223 849 L224 873 L225 874 L226 882 L232 892 L243 900 L254 903 L260 903 L269 900 L271 903 L271 907 L274 917 L280 949 L282 954 L282 958 L298 1020 L313 1061 L327 1087 L345 1112 L362 1130 L387 1150 L417 1169 L441 1181 L443 1181 L458 1188 L497 1200 L513 1202 L514 1203 L521 1203 L522 1204 L533 1204 L534 1205 L563 1205 L564 1204 L580 1203 L606 1197 L632 1188 L653 1178 L668 1169 L686 1156 L717 1126 L730 1110 L744 1090 L758 1066 L776 1029 L784 1009 L785 1004 L787 1001 L798 965 L803 945 L803 941 L806 932 L806 928 L808 923 L810 909 L812 908 L814 910 L822 913 L831 913 L837 911 L842 908 L851 899 L854 894 L858 879 L859 858 L860 857 L860 850 L861 849 L861 827 L862 826 L863 786 L864 785 L864 750 L865 749 L866 729 L867 728 L867 722 L868 721 L868 716 L872 701 L872 697 L893 620 L896 599 L897 598 L897 591 L898 590 L898 570 L895 559 L888 549 L891 541 L891 525 L889 518 L884 509 L876 501 L853 486 L840 475 L829 461 L819 443 L819 439 L818 438 L818 414 L821 402 L826 391 L826 383 L827 382 L826 338 L825 337 L825 328 L824 327 L824 321 L823 320 L820 300 L815 284 L815 281 L811 272 L808 261 L795 233 L782 211 L761 185 L737 163 L705 142 L676 128 L650 119 L621 112 L592 109 L591 108 L582 108 L581 107 L567 107 L566 106 Z" fill="#eef3f4" fill-rule="evenodd"/>
</svg>
