<svg xmlns="http://www.w3.org/2000/svg" width="1086" height="1448" viewBox="0 0 1086 1448">
  <title>0161</title>
  <path d="M342 1061 L343 1060 L345 1061 L344 1062 Z M706 1060 L707 1059 L708 1060 L707 1061 Z M341 1060 L342 1059 L343 1060 L342 1061 Z M339 1059 L340 1058 L341 1059 L340 1060 Z M684 1030 L682 1031 L677 1039 L676 1046 L678 1052 L679 1052 L678 1049 L679 1039 Z M378 1030 L384 1040 L385 1044 L384 1053 L386 1050 L386 1041 L383 1035 Z M747 1029 L748 1028 L749 1029 L748 1030 Z M729 968 L727 970 L725 981 L718 995 L710 1006 L696 1020 L706 1013 L720 996 L728 977 Z M329 968 L329 973 L338 995 L345 1005 L352 1012 L364 1021 L364 1019 L359 1016 L347 1004 L341 996 L334 983 Z M351 958 L354 957 L361 960 L369 961 L372 963 L356 973 L354 970 Z M350 957 L351 956 L352 957 L351 958 Z M704 950 L705 951 L704 963 L703 964 L703 968 L701 970 L687 957 L689 955 L692 955 Z M251 946 L254 943 L260 940 L273 937 L302 937 L303 938 L312 938 L313 939 L322 939 L323 940 L335 939 L341 937 L343 941 L344 950 L349 966 L349 969 L354 982 L358 989 L358 991 L367 1005 L389 1032 L396 1043 L397 1052 L394 1061 L387 1068 L381 1070 L368 1070 L345 1063 L344 1062 L347 1061 L353 1063 L366 1063 L370 1064 L370 1063 L364 1061 L355 1061 L354 1060 L346 1059 L338 1055 L333 1051 L325 1042 L312 1023 L306 1010 L302 995 L302 982 L301 983 L302 1003 L307 1018 L313 1028 L312 1029 L304 1025 L290 1008 L283 1006 L276 1002 L270 996 L263 984 L260 974 L258 971 L258 968 L256 965 L256 962 Z M802 952 L794 972 L781 998 L769 1018 L762 1025 L752 1029 L748 1028 L752 1018 L754 1010 L754 1005 L755 1004 L755 992 L754 991 L753 992 L753 1006 L748 1021 L740 1035 L730 1046 L720 1053 L693 1062 L694 1063 L703 1060 L706 1061 L689 1070 L681 1071 L680 1072 L674 1072 L671 1069 L668 1056 L669 1043 L673 1033 L680 1024 L695 1000 L704 980 L708 964 L708 958 L710 950 L710 937 L711 936 L718 938 L760 938 L761 939 L775 940 L792 945 Z M707 934 L706 935 L706 945 L704 947 L690 952 L686 952 L677 955 L665 956 L664 957 L656 957 L655 958 L645 958 L644 959 L627 959 L626 960 L547 961 L546 962 L407 962 L406 961 L381 960 L380 959 L374 959 L373 958 L360 956 L350 952 L348 949 L347 940 L346 939 L346 935 L347 934 L367 939 L385 941 L386 942 L393 942 L394 943 L405 943 L406 944 L433 944 L434 943 L448 942 L449 941 L467 939 L468 938 L486 938 L512 944 L524 944 L525 943 L531 943 L541 940 L545 940 L551 938 L558 938 L559 937 L577 938 L578 939 L602 941 L603 942 L624 942 L625 941 L644 940 L645 939 L662 937 L668 935 L674 935 L686 932 L700 931 L701 930 L704 931 Z M564 882 L566 886 L568 894 L568 899 L569 900 L569 921 L567 928 L568 928 L571 919 L571 901 L566 882 Z M477 882 L476 882 L471 895 L470 903 L469 904 L469 910 L468 911 L469 923 L471 929 L472 929 L471 926 L471 903 Z M664 879 L676 893 L682 902 L689 916 L689 918 L691 919 L687 908 L680 896 L672 886 Z M384 879 L374 888 L366 898 L357 914 L355 920 L356 921 L363 906 L372 893 Z M230 879 L231 878 L232 879 L231 880 Z M607 866 L608 865 L609 866 L608 867 Z M470 862 L471 861 L474 862 L473 863 Z M570 862 L578 859 L596 859 L600 860 L608 865 L607 866 L602 866 L591 863 L582 863 L581 862 L571 863 Z M471 861 L470 862 L463 862 L462 863 L453 863 L441 866 L438 865 L445 860 L455 859 L456 858 L458 859 L466 859 Z M639 858 L629 865 L622 867 L614 867 L611 863 L601 857 L592 856 L591 855 L583 855 L567 859 L553 867 L539 873 L529 874 L528 875 L514 875 L499 871 L477 859 L468 856 L462 856 L461 855 L448 856 L440 859 L431 867 L417 864 L412 861 L408 856 L419 848 L437 843 L462 843 L463 844 L468 844 L506 857 L526 858 L527 857 L533 857 L541 855 L571 844 L583 843 L584 842 L596 842 L597 843 L604 843 L621 847 L636 854 L638 856 L637 857 L638 856 Z M670 831 L672 840 L679 854 L688 866 L713 890 L727 900 L741 907 L756 911 L778 911 L793 907 L797 904 L779 909 L761 909 L745 905 L732 899 L714 886 L687 860 L676 844 L673 838 L672 833 Z M382 828 L381 827 L380 828 L378 836 L372 848 L365 858 L349 874 L336 883 L324 889 L305 894 L285 894 L284 893 L276 892 L269 889 L269 890 L281 895 L301 897 L302 896 L311 896 L319 894 L338 886 L355 874 L368 860 L377 844 Z M393 793 L392 805 L391 806 L391 819 L392 820 L392 828 L396 844 L403 857 L411 865 L423 870 L439 870 L455 866 L475 866 L481 868 L486 868 L494 873 L505 877 L517 878 L518 879 L534 878 L545 875 L556 869 L564 867 L569 867 L570 866 L589 866 L609 871 L622 871 L634 867 L641 862 L646 856 L652 844 L656 827 L656 815 L657 814 L656 813 L657 812 L656 799 L651 779 L644 766 L636 758 L624 752 L609 753 L595 762 L588 771 L582 783 L581 790 L583 787 L583 784 L591 770 L599 762 L610 756 L614 755 L625 756 L634 761 L640 767 L645 775 L649 785 L651 793 L651 798 L652 799 L652 807 L653 808 L651 833 L647 846 L641 856 L636 851 L625 845 L603 839 L577 839 L576 840 L571 840 L552 846 L541 851 L528 854 L511 854 L510 853 L506 853 L467 840 L462 840 L461 839 L439 839 L420 844 L413 848 L406 854 L399 841 L399 838 L396 830 L395 804 L396 803 L396 796 L399 785 L404 774 L409 767 L418 759 L427 755 L439 756 L443 758 L452 767 L457 777 L460 789 L461 786 L457 773 L452 763 L448 758 L440 753 L431 751 L430 752 L425 752 L415 757 L407 764 L398 778 Z M623 741 L623 742 L636 744 L645 748 L658 759 L663 765 L672 780 L676 791 L677 799 L678 800 L678 806 L679 807 L679 797 L678 796 L677 788 L673 777 L664 762 L652 750 L644 745 L636 742 Z M434 741 L424 740 L411 743 L399 750 L389 760 L383 769 L378 780 L375 793 L375 802 L376 802 L377 790 L379 783 L384 772 L390 763 L405 749 L418 743 L434 742 Z M566 675 L568 688 L569 689 L569 694 L570 695 L571 709 L572 710 L573 731 L574 732 L574 754 L576 754 L576 726 L575 725 L574 708 L573 707 L572 696 L570 690 L570 685 L568 677 Z M491 675 L489 677 L486 693 L483 702 L479 726 L478 727 L478 733 L476 740 L476 751 L475 752 L476 754 L477 753 L477 747 L478 746 L479 735 L481 729 L482 718 L485 707 L485 702 L487 697 Z M600 657 L601 656 L602 657 L601 658 Z M453 648 L454 647 L455 648 L454 649 Z M716 647 L717 649 L724 654 L720 649 Z M452 647 L453 646 L454 647 L453 648 Z M172 646 L177 653 L182 665 L184 673 L184 679 L185 680 L185 689 L186 690 L186 722 L185 723 L184 745 L183 746 L182 755 L178 763 L176 761 L172 752 L172 669 L171 668 L171 647 Z M486 657 L486 658 L495 653 L504 650 L513 649 L514 648 L541 648 L542 649 L547 649 L566 655 L570 658 L572 658 L571 656 L560 651 L545 647 L539 647 L538 646 L517 646 L516 647 L506 648 L496 651 Z M451 646 L452 645 L453 646 L452 647 Z M449 644 L451 643 L452 645 L451 646 Z M448 643 L449 642 L450 643 L449 644 Z M449 642 L450 641 L451 642 L450 643 Z M592 641 L590 642 L585 652 L585 654 L586 654 Z M468 641 L473 652 L475 654 L475 652 L470 642 Z M448 641 L449 640 L450 641 L449 642 Z M868 633 L866 635 L865 640 L859 652 L851 663 L844 670 L835 677 L825 682 L811 686 L802 686 L801 687 L800 686 L786 686 L768 681 L755 675 L745 669 L729 657 L729 658 L733 662 L753 676 L767 683 L789 689 L810 689 L811 688 L816 688 L834 681 L844 674 L851 667 L859 656 L867 639 Z M222 627 L226 640 L234 654 L242 662 L254 669 L257 669 L260 671 L264 671 L265 672 L271 672 L272 673 L289 672 L311 666 L337 653 L361 637 L357 638 L349 644 L328 656 L310 664 L292 669 L271 670 L270 669 L264 669 L257 667 L243 659 L235 651 L231 645 L225 633 L224 627 Z M601 655 L609 642 L624 627 L633 621 L645 615 L657 611 L672 609 L673 608 L693 607 L694 608 L703 608 L704 609 L710 609 L715 611 L719 611 L736 617 L759 630 L797 660 L805 664 L813 666 L803 669 L786 669 L775 666 L762 660 L727 635 L711 627 L708 627 L701 624 L688 623 L687 622 L669 623 L648 629 L619 644 L602 657 Z M449 639 L448 641 L449 642 L447 643 L441 637 L431 630 L414 622 L403 619 L389 618 L388 619 L374 620 L357 625 L342 631 L333 636 L331 636 L322 641 L306 647 L294 650 L285 650 L284 651 L276 650 L275 649 L286 644 L311 627 L332 616 L345 611 L362 607 L367 607 L368 606 L393 606 L394 607 L403 608 L417 613 L433 623 Z M870 612 L869 612 L868 616 L861 629 L853 640 L840 653 L830 659 L823 661 L812 661 L798 655 L757 623 L736 612 L718 606 L702 604 L701 603 L676 603 L675 604 L668 604 L651 608 L629 618 L618 626 L606 638 L596 653 L592 662 L592 667 L595 670 L595 680 L596 681 L596 686 L597 687 L600 705 L602 709 L605 722 L613 741 L603 744 L594 749 L587 756 L583 762 L578 773 L575 784 L574 800 L575 800 L576 789 L581 773 L590 757 L601 747 L614 742 L615 743 L608 722 L602 698 L598 669 L608 658 L621 648 L645 635 L662 629 L672 628 L673 627 L693 627 L709 631 L722 637 L744 652 L751 658 L768 668 L784 673 L802 674 L821 669 L826 666 L828 666 L842 657 L855 644 L860 637 L866 626 L870 615 Z M225 613 L228 624 L233 634 L242 644 L255 651 L272 655 L291 655 L308 651 L356 630 L368 626 L382 624 L383 623 L399 623 L400 624 L408 625 L417 628 L429 634 L436 639 L451 653 L461 668 L460 669 L458 687 L454 700 L454 704 L441 743 L450 749 L456 757 L460 765 L465 786 L465 799 L467 799 L467 784 L462 763 L457 754 L449 746 L442 743 L451 724 L457 706 L461 685 L462 684 L462 680 L463 679 L464 668 L467 664 L467 660 L454 638 L438 621 L423 611 L409 605 L396 602 L388 602 L387 601 L364 602 L363 603 L358 603 L346 606 L330 612 L312 621 L285 639 L275 644 L269 646 L256 646 L246 642 L238 635 L231 625 L228 619 L227 614 Z M921 590 L923 594 L923 603 L924 604 L924 633 L923 634 L923 641 L922 645 L912 655 L911 654 L911 650 L912 649 L912 642 L914 634 L916 610 L917 609 L918 597 Z M916 587 L920 589 L917 595 L916 603 L914 608 L914 614 L912 622 L912 632 L911 633 L911 644 L910 645 L910 653 L909 654 L910 658 L906 665 L903 675 L901 703 L902 704 L902 717 L903 718 L904 726 L907 733 L911 736 L907 730 L904 718 L903 690 L904 689 L905 676 L908 667 L912 659 L917 653 L918 657 L917 658 L916 676 L915 677 L912 730 L915 732 L916 731 L922 731 L923 732 L921 763 L920 766 L914 773 L910 783 L908 817 L907 818 L906 831 L902 846 L900 850 L892 858 L887 861 L877 864 L876 863 L878 860 L882 844 L884 840 L886 825 L887 824 L887 818 L888 817 L889 799 L890 798 L890 783 L891 782 L891 753 L892 752 L892 728 L891 727 L890 693 L889 692 L889 685 L888 684 L888 677 L887 676 L885 659 L884 658 L882 643 L880 637 L880 631 L879 630 L878 593 L880 587 Z M596 633 L597 634 L602 626 L616 611 L631 600 L644 593 L661 587 L665 587 L671 585 L700 584 L701 585 L709 585 L710 586 L727 589 L753 600 L777 617 L807 646 L816 651 L825 652 L825 651 L816 649 L807 643 L780 616 L755 598 L741 591 L733 589 L730 587 L713 583 L697 582 L696 581 L685 581 L684 582 L667 583 L655 587 L652 587 L638 593 L625 601 L615 609 L603 622 Z M463 631 L450 613 L440 603 L428 594 L419 589 L402 583 L383 581 L382 582 L370 582 L369 583 L359 584 L338 591 L311 605 L275 630 L265 635 L253 636 L256 638 L260 638 L273 634 L288 625 L307 611 L338 594 L355 588 L368 585 L374 585 L375 584 L391 584 L392 585 L403 586 L415 590 L427 596 L444 609 L454 620 L463 633 Z M206 565 L209 573 L210 586 L211 587 L212 619 L211 620 L210 636 L204 661 L204 666 L203 667 L200 688 L199 689 L198 703 L197 704 L196 727 L195 728 L195 791 L196 792 L196 801 L197 802 L198 813 L204 833 L209 843 L208 844 L196 839 L179 826 L177 767 L182 760 L186 744 L188 699 L187 698 L187 681 L186 680 L185 667 L182 657 L177 648 L178 647 L178 637 L177 636 L176 610 L175 609 L174 589 L171 577 L170 578 L172 585 L173 614 L174 615 L174 625 L175 626 L175 634 L176 635 L176 642 L177 643 L176 647 L167 638 L166 630 L165 629 L165 590 L166 589 L166 582 L169 574 L174 571 L191 569 Z M332 282 L352 270 L385 254 L425 240 L432 239 L436 237 L452 233 L457 233 L473 229 L479 229 L480 228 L492 227 L493 226 L516 225 L517 224 L579 224 L580 225 L607 227 L608 228 L614 228 L615 229 L621 229 L622 230 L636 232 L656 237 L660 239 L663 239 L670 242 L673 242 L676 244 L682 245 L685 247 L693 249 L708 256 L710 256 L742 272 L767 288 L790 306 L818 334 L833 353 L844 370 L858 399 L869 436 L871 452 L872 453 L872 460 L873 461 L873 471 L874 472 L874 514 L873 515 L873 532 L872 533 L864 531 L854 526 L841 516 L825 499 L801 469 L782 450 L764 437 L747 428 L719 419 L702 417 L701 416 L668 416 L667 417 L651 419 L625 428 L612 435 L589 451 L565 465 L543 473 L528 475 L527 476 L499 475 L481 470 L467 464 L435 444 L418 435 L393 427 L380 426 L379 425 L360 425 L359 426 L352 426 L351 427 L346 427 L338 429 L319 436 L303 445 L288 456 L270 474 L252 499 L225 549 L226 550 L233 540 L257 497 L278 470 L292 457 L309 445 L322 438 L342 431 L346 431 L352 429 L360 429 L361 428 L377 428 L378 429 L387 429 L388 430 L397 431 L415 437 L429 444 L457 462 L480 473 L483 473 L494 477 L506 478 L507 479 L527 479 L528 478 L534 478 L535 477 L543 476 L561 470 L590 454 L613 438 L638 426 L656 421 L667 420 L668 419 L701 419 L702 420 L709 420 L710 421 L727 424 L744 430 L758 437 L777 450 L794 466 L825 504 L843 522 L859 532 L866 534 L872 534 L881 550 L881 558 L877 561 L874 562 L864 561 L853 556 L846 551 L831 536 L804 501 L791 486 L774 470 L755 457 L732 446 L714 441 L703 440 L702 439 L673 439 L672 440 L660 441 L637 448 L616 459 L570 491 L551 500 L532 505 L505 505 L484 499 L464 489 L427 464 L402 453 L394 452 L389 450 L383 450 L382 449 L357 449 L356 450 L350 450 L337 453 L321 459 L303 469 L289 480 L275 494 L259 516 L234 562 L231 565 L230 568 L222 575 L222 576 L226 575 L233 568 L242 554 L255 529 L269 507 L276 498 L290 484 L291 485 L290 484 L296 478 L312 467 L322 462 L346 454 L351 454 L358 452 L380 452 L381 453 L393 454 L401 457 L404 457 L426 467 L449 483 L476 499 L492 505 L506 507 L507 508 L530 508 L554 502 L576 491 L620 460 L643 449 L666 443 L672 443 L673 442 L701 442 L702 443 L709 443 L736 451 L756 461 L770 471 L774 475 L773 476 L774 475 L776 476 L793 493 L826 535 L846 555 L860 563 L868 565 L877 563 L879 561 L880 562 L880 567 L878 574 L873 581 L866 583 L857 582 L847 578 L838 572 L824 558 L788 510 L771 493 L750 478 L731 469 L714 464 L710 464 L704 462 L696 462 L695 461 L676 461 L675 462 L667 462 L666 463 L657 464 L638 470 L613 484 L589 503 L571 515 L552 524 L531 529 L507 529 L506 528 L496 527 L481 522 L460 511 L426 487 L402 476 L389 474 L388 473 L381 473 L380 472 L357 472 L356 473 L350 473 L349 474 L336 476 L320 482 L304 491 L284 508 L264 535 L246 569 L239 580 L226 593 L232 591 L242 581 L271 530 L282 515 L295 502 L315 488 L319 487 L328 482 L345 477 L358 476 L359 475 L381 475 L407 481 L430 493 L449 507 L448 508 L450 507 L468 519 L493 529 L501 530 L502 531 L508 531 L509 532 L536 531 L559 524 L573 517 L587 508 L623 481 L641 472 L661 466 L676 465 L677 464 L695 464 L696 465 L709 466 L733 473 L751 482 L765 492 L782 508 L797 526 L819 557 L833 572 L844 580 L852 584 L864 586 L865 585 L869 585 L874 582 L875 583 L875 591 L874 592 L874 621 L875 622 L875 631 L876 632 L878 649 L881 660 L881 665 L884 678 L884 685 L885 686 L885 693 L886 694 L887 735 L888 736 L887 740 L887 777 L886 778 L886 794 L885 795 L885 807 L884 808 L883 823 L874 859 L865 879 L859 888 L841 907 L826 917 L812 924 L820 923 L830 918 L832 919 L827 965 L818 972 L791 989 L790 988 L798 973 L803 959 L808 953 L801 946 L792 941 L774 936 L757 935 L756 934 L722 935 L721 934 L716 934 L709 930 L715 928 L722 928 L723 927 L738 925 L742 923 L748 922 L749 920 L743 922 L731 923 L730 924 L694 927 L693 928 L658 933 L652 935 L630 937 L629 938 L598 938 L597 937 L590 937 L589 936 L583 936 L575 934 L552 934 L533 939 L510 940 L485 934 L471 934 L470 935 L463 935 L462 936 L450 937 L449 938 L437 939 L436 940 L402 940 L401 939 L391 939 L390 938 L377 937 L371 935 L355 933 L350 931 L341 930 L321 925 L317 923 L314 923 L288 913 L276 907 L264 899 L267 903 L279 911 L297 920 L323 929 L340 933 L337 935 L333 935 L332 936 L318 936 L317 935 L308 935 L307 934 L298 934 L297 933 L279 933 L278 934 L265 935 L252 940 L247 945 L247 948 L249 950 L249 955 L252 963 L252 965 L250 966 L252 965 L253 966 L252 969 L230 959 L231 955 L231 925 L230 924 L231 880 L232 879 L248 891 L250 890 L240 882 L230 871 L219 855 L210 837 L203 816 L203 812 L201 806 L201 799 L200 798 L200 788 L199 787 L199 730 L200 729 L201 707 L202 706 L203 691 L204 690 L204 684 L207 672 L207 667 L209 662 L211 647 L213 642 L214 629 L215 628 L215 619 L216 618 L215 586 L214 585 L213 573 L210 564 L210 557 L211 556 L210 552 L211 551 L211 539 L210 538 L211 537 L210 536 L211 532 L211 499 L212 498 L212 485 L213 484 L215 460 L217 454 L219 439 L228 408 L234 393 L247 368 L257 353 L274 332 L304 303 Z M709 251 L664 235 L657 234 L641 229 L636 229 L631 227 L615 225 L614 224 L608 224 L607 223 L600 223 L599 222 L592 222 L591 221 L578 221 L577 220 L550 220 L549 219 L544 219 L543 220 L503 221 L502 222 L494 222 L493 223 L486 223 L485 224 L462 227 L428 235 L400 244 L397 246 L382 251 L375 255 L373 255 L342 271 L314 290 L291 309 L266 335 L246 362 L232 388 L221 416 L220 423 L216 434 L216 438 L214 443 L213 453 L211 459 L209 483 L208 484 L208 496 L207 497 L206 561 L197 564 L182 566 L181 567 L175 567 L169 569 L164 574 L162 581 L162 587 L161 588 L161 627 L162 628 L163 639 L167 644 L167 670 L168 671 L168 753 L173 763 L175 824 L176 825 L176 829 L186 837 L201 846 L211 849 L216 856 L218 861 L227 873 L227 928 L226 929 L226 958 L227 962 L232 965 L255 974 L260 987 L268 1000 L276 1007 L283 1010 L286 1010 L289 1012 L296 1022 L303 1029 L314 1034 L328 1053 L340 1065 L344 1067 L360 1071 L364 1073 L381 1074 L391 1070 L396 1065 L400 1057 L400 1043 L398 1038 L367 998 L357 979 L360 975 L380 963 L382 964 L391 964 L392 965 L408 965 L409 966 L538 966 L539 965 L623 964 L624 963 L653 962 L654 961 L662 961 L663 960 L669 960 L676 958 L682 958 L698 972 L701 976 L697 987 L687 1006 L672 1027 L667 1036 L664 1048 L664 1058 L667 1071 L673 1076 L680 1076 L681 1075 L689 1074 L708 1064 L728 1056 L738 1046 L746 1035 L766 1027 L771 1022 L781 1006 L784 999 L787 996 L795 992 L830 968 L831 960 L832 959 L832 951 L833 950 L833 942 L834 941 L834 933 L835 932 L835 925 L836 924 L837 914 L847 907 L859 895 L875 869 L885 866 L896 860 L902 854 L906 847 L909 836 L910 825 L911 824 L911 817 L912 816 L912 809 L913 808 L914 783 L918 774 L924 767 L925 752 L926 751 L926 740 L927 739 L926 728 L925 727 L921 727 L920 728 L916 727 L920 666 L921 665 L922 652 L925 648 L927 641 L927 631 L928 630 L928 603 L927 602 L926 590 L920 584 L911 584 L910 583 L907 584 L905 583 L890 584 L889 583 L880 583 L879 582 L879 579 L881 577 L884 568 L885 550 L883 544 L877 535 L878 471 L877 470 L876 452 L875 451 L874 440 L869 419 L863 401 L858 391 L858 389 L844 362 L819 329 L788 299 L755 275 L736 264 Z" fill="#eef3f4" fill-rule="evenodd"/>
</svg>
