<svg xmlns="http://www.w3.org/2000/svg" width="1122" height="1402" viewBox="0 0 1122 1402">
  <title>0164</title>
  <path d="M403 1248 L404 1247 L405 1248 L404 1249 Z M617 1217 L617 1226 L614 1235 L609 1246 L599 1262 L577 1285 L560 1297 L538 1307 L522 1311 L491 1312 L490 1311 L485 1311 L468 1307 L457 1302 L453 1298 L454 1293 L457 1290 L463 1287 L497 1279 L512 1274 L536 1263 L538 1263 L570 1245 L591 1229 L602 1219 L611 1215 L614 1215 Z M361 1214 L362 1213 L363 1214 L362 1215 Z M292 1180 L298 1176 L300 1177 L304 1189 L306 1191 L310 1201 L323 1221 L336 1237 L360 1259 L377 1270 L403 1282 L432 1289 L453 1290 L454 1291 L451 1296 L453 1301 L448 1303 L437 1303 L436 1302 L416 1301 L403 1298 L386 1292 L372 1285 L353 1272 L332 1252 L317 1232 L303 1207 L303 1205 L299 1198 Z M502 1165 L511 1184 L513 1186 L489 1198 L487 1198 L485 1200 L483 1200 L479 1188 L475 1181 L475 1179 L473 1177 L488 1172 Z M503 1161 L484 1171 L479 1172 L476 1174 L471 1174 L471 1176 L473 1178 L474 1184 L477 1189 L481 1203 L486 1200 L490 1200 L495 1197 L497 1197 L508 1191 L510 1191 L512 1189 L516 1189 L516 1187 L514 1185 L507 1171 L507 1169 L504 1165 Z M261 1146 L262 1145 L263 1146 L262 1147 Z M260 1144 L261 1143 L262 1145 L261 1146 Z M259 1143 L260 1142 L261 1143 L260 1144 Z M513 1134 L525 1164 L534 1181 L544 1196 L542 1198 L530 1202 L500 1216 L498 1216 L469 1231 L464 1215 L464 1212 L460 1203 L458 1195 L452 1180 L444 1165 L446 1163 L457 1162 L481 1154 L497 1146 L509 1138 Z M388 1132 L412 1151 L406 1158 L401 1168 L397 1179 L396 1187 L395 1188 L395 1195 L394 1196 L395 1220 L399 1236 L404 1246 L403 1248 L396 1245 L383 1236 L367 1221 L364 1212 L363 1200 L362 1199 L362 1186 L363 1185 L363 1179 L367 1164 L376 1146 Z M240 1112 L241 1111 L242 1112 L241 1113 Z M367 1108 L387 1130 L379 1138 L374 1145 L367 1158 L361 1177 L361 1183 L360 1184 L360 1204 L362 1211 L361 1214 L350 1201 L339 1184 L336 1178 L336 1171 L337 1170 L338 1157 L344 1139 L354 1122 L361 1113 Z M214 1104 L217 1104 L222 1107 L224 1107 L230 1111 L245 1118 L245 1120 L258 1145 L257 1146 L250 1144 L229 1132 L233 1136 L245 1144 L259 1149 L269 1165 L276 1172 L275 1173 L267 1172 L264 1170 L261 1170 L245 1161 L245 1162 L251 1167 L266 1174 L274 1176 L282 1176 L285 1178 L289 1178 L291 1182 L292 1188 L294 1191 L293 1193 L280 1192 L269 1188 L268 1189 L281 1194 L295 1195 L299 1205 L304 1213 L303 1214 L298 1214 L290 1212 L271 1204 L258 1195 L244 1181 L229 1159 L218 1135 L214 1123 L213 1113 L212 1112 L212 1106 Z M594 1148 L599 1160 L594 1176 L585 1193 L575 1207 L559 1223 L550 1230 L532 1241 L514 1249 L496 1255 L479 1258 L478 1259 L471 1259 L470 1260 L439 1260 L438 1259 L428 1258 L412 1253 L406 1246 L401 1235 L398 1224 L397 1210 L396 1209 L396 1198 L397 1197 L398 1184 L402 1171 L408 1159 L414 1152 L428 1160 L441 1164 L455 1194 L464 1221 L467 1234 L469 1234 L500 1218 L502 1218 L511 1213 L513 1213 L518 1210 L548 1198 L534 1176 L525 1158 L516 1133 L516 1131 L524 1120 L527 1112 L528 1105 L530 1103 L545 1106 L562 1114 L574 1123 L583 1132 Z M215 1101 L216 1100 L217 1101 L216 1102 Z M354 1089 L365 1104 L365 1106 L357 1114 L344 1134 L344 1136 L337 1151 L335 1159 L335 1166 L333 1171 L326 1157 L320 1138 L329 1122 L350 1092 Z M406 1086 L407 1085 L408 1086 L407 1087 Z M225 1078 L226 1077 L227 1078 L226 1079 Z M533 1072 L549 1073 L566 1078 L577 1084 L594 1099 L603 1112 L602 1144 L601 1145 L601 1151 L599 1154 L593 1142 L588 1135 L570 1117 L551 1106 L530 1100 L531 1086 L532 1085 L532 1073 Z M365 1072 L353 1084 L329 1117 L312 1146 L302 1169 L297 1174 L293 1176 L288 1176 L280 1172 L269 1160 L262 1149 L262 1147 L263 1146 L272 1153 L280 1154 L281 1155 L289 1154 L299 1149 L311 1137 L320 1125 L333 1105 L349 1077 L357 1067 Z M477 1061 L473 1068 L466 1076 L451 1087 L441 1090 L423 1090 L422 1089 L416 1089 L409 1087 L410 1086 L421 1086 L422 1087 L423 1086 L435 1086 L447 1083 L458 1077 L476 1060 Z M592 1060 L593 1059 L594 1060 L593 1061 Z M478 1057 L479 1059 L477 1061 L476 1059 Z M478 1057 L479 1056 L480 1057 L479 1058 Z M480 1054 L481 1053 L482 1054 L481 1055 Z M360 1045 L363 1042 L374 1044 L388 1052 L398 1062 L395 1064 L389 1064 L374 1060 L367 1056 L361 1050 Z M531 1043 L539 1041 L540 1042 L550 1042 L551 1043 L559 1044 L576 1051 L589 1060 L595 1066 L596 1069 L596 1073 L599 1082 L602 1104 L601 1105 L596 1098 L588 1090 L576 1081 L564 1075 L555 1072 L545 1071 L544 1070 L534 1070 L533 1069 L532 1044 Z M355 1044 L355 1049 L358 1054 L362 1058 L371 1063 L381 1066 L396 1066 L400 1063 L398 1058 L394 1054 L383 1046 L369 1040 L360 1040 Z M621 1033 L625 1038 L635 1058 L645 1089 L647 1104 L648 1105 L648 1113 L649 1114 L649 1150 L648 1151 L648 1158 L647 1159 L645 1173 L640 1188 L631 1206 L620 1221 L617 1217 L617 1215 L609 1213 L619 1198 L629 1175 L633 1159 L635 1140 L636 1139 L636 1106 L635 1105 L635 1098 L632 1086 L632 1081 L626 1060 L622 1050 L614 1036 Z M614 1040 L626 1068 L632 1094 L632 1100 L633 1101 L634 1130 L633 1131 L632 1150 L631 1151 L631 1156 L628 1169 L622 1186 L615 1200 L607 1212 L601 1218 L597 1220 L591 1226 L573 1240 L550 1254 L528 1265 L518 1268 L505 1274 L502 1274 L485 1280 L468 1283 L460 1287 L454 1287 L453 1288 L450 1287 L437 1287 L436 1286 L429 1286 L428 1285 L419 1284 L402 1279 L382 1270 L354 1251 L336 1233 L327 1222 L311 1197 L301 1173 L304 1170 L313 1152 L316 1161 L330 1189 L351 1219 L362 1231 L377 1244 L392 1254 L408 1262 L419 1266 L432 1269 L438 1269 L439 1270 L449 1270 L450 1271 L473 1270 L474 1269 L486 1268 L502 1264 L524 1256 L539 1249 L562 1234 L581 1216 L593 1200 L604 1178 L609 1162 L611 1146 L612 1145 L613 1109 L612 1108 L611 1090 L610 1089 L610 1084 L607 1074 L607 1070 L600 1046 L594 1033 L597 1032 L603 1034 L608 1034 Z M592 1032 L603 1063 L607 1084 L608 1085 L609 1097 L610 1098 L611 1136 L610 1137 L610 1146 L609 1147 L608 1157 L601 1180 L587 1205 L579 1215 L567 1227 L547 1242 L519 1256 L490 1265 L486 1265 L480 1267 L473 1267 L472 1268 L461 1268 L460 1269 L449 1269 L448 1268 L439 1268 L438 1267 L427 1266 L406 1259 L389 1250 L379 1243 L353 1218 L338 1198 L329 1183 L314 1150 L314 1148 L318 1142 L332 1176 L340 1190 L358 1215 L382 1238 L397 1248 L411 1255 L426 1260 L430 1260 L436 1262 L445 1262 L446 1263 L473 1262 L474 1261 L479 1261 L480 1260 L493 1258 L522 1248 L548 1234 L560 1225 L581 1203 L594 1181 L602 1157 L603 1145 L604 1144 L604 1135 L605 1134 L604 1102 L603 1101 L601 1083 L595 1057 L587 1034 L585 1031 L587 1030 Z M177 1022 L191 1028 L201 1035 L211 1040 L211 1042 L214 1047 L226 1077 L225 1078 L221 1077 L213 1073 L200 1064 L200 1065 L213 1075 L220 1079 L227 1081 L229 1083 L233 1094 L241 1110 L240 1112 L234 1110 L221 1101 L208 1089 L198 1077 L187 1060 L179 1043 L175 1029 L175 1026 Z M529 1022 L530 1021 L531 1022 L539 1022 L540 1023 L546 1023 L547 1024 L553 1024 L554 1025 L565 1026 L571 1028 L582 1029 L589 1045 L593 1059 L592 1060 L580 1051 L563 1043 L551 1040 L545 1040 L544 1039 L532 1039 L530 1033 Z M527 1022 L528 1032 L529 1033 L530 1051 L531 1052 L531 1077 L530 1078 L528 1099 L523 1117 L518 1126 L510 1134 L495 1144 L474 1154 L449 1161 L438 1161 L422 1155 L404 1143 L383 1124 L370 1109 L355 1087 L357 1084 L361 1091 L376 1110 L398 1132 L423 1150 L434 1155 L439 1156 L440 1155 L453 1154 L473 1148 L490 1140 L503 1132 L514 1122 L520 1111 L524 1094 L525 1079 L526 1078 L526 1036 L525 1035 L525 1024 L524 1022 L525 1021 Z M523 1022 L522 1023 L523 1024 L523 1034 L524 1035 L524 1078 L523 1079 L522 1094 L518 1111 L513 1120 L506 1127 L493 1136 L475 1145 L453 1152 L448 1152 L447 1153 L441 1153 L440 1154 L432 1152 L424 1148 L399 1130 L378 1109 L359 1084 L359 1082 L368 1073 L389 1083 L415 1091 L433 1093 L434 1092 L442 1092 L452 1089 L464 1081 L475 1069 L483 1056 L500 1020 L521 1020 Z M321 1021 L322 1020 L323 1021 L322 1022 Z M322 1020 L323 1019 L324 1020 L323 1021 Z M487 999 L489 1001 L490 1005 L487 1017 L478 1031 L472 1037 L468 1039 L466 1037 L470 1020 L478 1006 L484 1000 Z M490 996 L484 997 L480 1000 L471 1012 L467 1021 L465 1029 L465 1039 L469 1041 L475 1038 L488 1024 L494 1011 L494 1001 Z M626 1012 L624 1026 L618 1032 L602 1031 L596 1029 L591 1029 L580 1026 L575 1026 L574 1025 L569 1025 L563 1023 L539 1020 L538 1019 L516 1018 L515 1017 L502 1018 L501 1017 L503 1010 L507 1007 L515 1007 L516 1008 L521 1008 L527 1010 L532 1010 L538 1012 L543 1012 L549 1014 L560 1015 L566 1017 L573 1017 L574 1018 L589 1019 L590 1018 L601 1017 L610 1012 L616 1005 L620 990 L623 997 L625 1011 Z M191 991 L192 990 L193 991 L192 992 Z M356 984 L357 983 L358 984 L357 985 Z M353 981 L354 980 L355 981 L354 982 Z M351 978 L352 977 L353 978 L352 979 Z M350 977 L351 976 L352 977 L351 978 Z M349 976 L350 975 L351 976 L350 977 Z M348 975 L349 974 L350 975 L349 976 Z M206 971 L213 984 L223 998 L241 1014 L259 1024 L274 1028 L291 1029 L292 1028 L305 1027 L320 1021 L322 1022 L316 1028 L306 1035 L286 1043 L267 1044 L256 1041 L246 1035 L249 1039 L254 1042 L266 1046 L284 1046 L285 1045 L289 1045 L308 1037 L318 1030 L324 1024 L325 1025 L327 1035 L332 1045 L338 1052 L336 1061 L327 1075 L303 1099 L291 1108 L283 1111 L271 1110 L261 1104 L251 1092 L235 1062 L217 1017 L209 993 L205 977 L205 972 Z M204 971 L205 970 L206 971 L205 972 Z M274 966 L268 971 L267 979 L271 985 L279 987 L282 986 L287 981 L288 974 L287 971 L281 966 Z M196 962 L202 964 L202 974 L207 994 L210 1001 L210 1004 L233 1064 L235 1066 L235 1068 L241 1080 L250 1095 L265 1110 L273 1113 L285 1113 L297 1107 L308 1098 L327 1079 L336 1067 L341 1055 L354 1066 L345 1078 L328 1108 L314 1129 L304 1141 L296 1148 L288 1152 L276 1152 L270 1149 L264 1144 L252 1127 L226 1072 L225 1067 L217 1051 L215 1043 L201 1010 L193 982 L193 969 Z M276 956 L283 957 L289 960 L293 964 L297 972 L297 980 L295 986 L290 992 L281 996 L274 996 L266 993 L262 989 L258 982 L258 971 L260 966 L267 959 Z M272 954 L266 956 L258 964 L255 971 L255 981 L257 987 L263 994 L274 999 L281 999 L289 996 L295 991 L299 984 L300 973 L297 965 L291 958 L282 954 Z M622 949 L623 948 L624 950 L623 951 Z M500 947 L501 946 L502 947 L501 948 Z M631 940 L635 943 L644 961 L651 984 L651 989 L653 995 L653 1003 L654 1004 L654 1021 L653 1022 L652 1034 L649 1045 L642 1060 L640 1062 L638 1060 L633 1048 L643 1035 L645 1027 L639 1038 L632 1046 L627 1036 L623 1031 L626 1028 L627 1031 L633 1024 L640 1011 L642 1005 L643 996 L642 996 L641 1003 L635 1017 L628 1026 L627 1025 L628 1023 L628 1007 L627 1006 L626 998 L632 987 L635 977 L636 968 L635 968 L631 984 L627 991 L627 993 L625 995 L617 975 L617 970 L619 964 L621 962 L625 951 Z M348 933 L349 932 L350 933 L349 934 Z M188 928 L189 927 L190 928 L189 929 Z M137 913 L145 914 L161 922 L169 938 L175 947 L185 957 L193 962 L191 965 L191 969 L190 970 L190 981 L192 987 L191 991 L177 983 L166 973 L165 974 L182 989 L194 995 L197 1007 L208 1033 L207 1035 L189 1022 L174 1007 L166 997 L154 978 L144 957 L136 934 L136 930 L134 925 L134 916 Z M178 910 L179 909 L189 919 L206 927 L219 930 L227 930 L228 931 L274 934 L275 935 L280 935 L293 938 L307 943 L326 953 L334 959 L349 974 L347 975 L338 967 L320 956 L302 949 L289 946 L284 946 L283 945 L277 945 L276 944 L246 943 L245 942 L226 941 L225 940 L216 939 L203 934 L203 935 L212 940 L223 943 L237 944 L238 945 L256 945 L257 946 L280 947 L281 948 L286 948 L303 952 L318 958 L320 960 L327 963 L336 969 L350 981 L333 995 L310 1007 L293 1011 L279 1011 L278 1010 L272 1010 L261 1007 L243 997 L225 979 L219 971 L199 936 L201 934 L200 932 L193 928 L182 917 Z M177 908 L178 907 L179 909 L178 910 Z M421 906 L424 919 L432 935 L443 950 L449 956 L445 961 L443 957 L434 948 L431 946 L428 946 L432 948 L439 955 L445 965 L450 981 L451 991 L452 992 L452 999 L453 1000 L453 1017 L452 1018 L451 1028 L449 1034 L444 1044 L440 1048 L440 1050 L448 1041 L451 1035 L455 1020 L455 996 L454 995 L454 990 L451 978 L446 964 L454 956 L459 953 L469 950 L483 951 L490 954 L496 959 L503 971 L504 979 L505 980 L504 998 L498 1018 L487 1040 L481 1049 L468 1065 L459 1073 L447 1080 L430 1084 L414 1084 L413 1083 L401 1082 L389 1078 L386 1078 L365 1069 L348 1058 L337 1047 L330 1035 L328 1027 L328 1021 L331 1012 L342 1000 L353 994 L357 993 L362 993 L363 992 L364 993 L371 993 L377 1011 L383 1023 L392 1036 L406 1049 L417 1054 L426 1055 L425 1053 L420 1053 L409 1048 L393 1033 L386 1023 L376 1003 L371 988 L371 972 L374 965 L378 961 L386 960 L402 955 L427 941 L425 939 L426 938 L420 943 L400 953 L380 959 L370 958 L371 960 L375 960 L376 961 L372 966 L370 971 L369 982 L368 983 L369 989 L365 990 L364 989 L365 988 L365 973 L364 972 L364 967 L362 959 L355 942 L349 934 L350 933 L355 933 L357 935 L361 935 L362 936 L374 936 L390 932 L408 922 L416 914 Z M176 907 L177 906 L178 907 L177 908 Z M179 906 L181 905 L183 907 L192 911 L200 912 L201 913 L208 913 L209 914 L266 914 L267 915 L270 914 L271 915 L291 916 L292 917 L303 918 L320 922 L340 929 L348 936 L357 953 L362 972 L362 989 L351 992 L343 996 L334 1003 L330 1008 L328 1013 L325 1016 L306 1024 L297 1025 L296 1026 L277 1026 L264 1023 L254 1019 L238 1009 L221 991 L206 966 L192 938 L189 930 L190 928 L199 934 L197 935 L205 953 L224 982 L243 1000 L259 1009 L268 1012 L280 1013 L281 1014 L292 1014 L293 1013 L303 1012 L317 1007 L327 1002 L345 989 L351 982 L356 986 L358 984 L359 985 L360 984 L352 973 L337 958 L326 950 L309 941 L296 936 L279 933 L278 932 L264 931 L263 930 L226 928 L225 927 L218 927 L217 926 L209 925 L192 918 Z M175 905 L176 904 L177 905 L176 906 Z M175 903 L176 902 L177 903 L176 904 Z M176 899 L177 898 L178 899 L177 900 Z M500 874 L493 879 L492 888 L497 894 L505 895 L508 894 L511 891 L513 884 L512 880 L508 876 L504 874 Z M499 865 L505 865 L513 868 L518 873 L521 880 L521 889 L517 897 L512 902 L503 905 L496 904 L490 901 L486 897 L483 890 L483 880 L486 873 L493 867 Z M506 862 L498 862 L489 866 L483 873 L480 881 L480 890 L485 900 L489 904 L501 908 L508 907 L514 904 L520 898 L524 889 L524 882 L521 873 L515 866 Z M586 860 L587 859 L588 860 L587 861 Z M142 855 L162 888 L176 902 L174 903 L174 909 L177 915 L186 925 L189 937 L195 949 L195 951 L200 959 L199 960 L194 959 L186 954 L177 945 L167 929 L151 891 L141 859 Z M140 855 L141 854 L142 855 L141 856 Z M596 852 L598 852 L601 855 L608 867 L615 886 L619 902 L619 907 L620 908 L620 914 L621 915 L621 943 L620 944 L619 956 L615 968 L604 941 L604 937 L610 925 L613 912 L613 907 L612 907 L609 922 L603 935 L600 930 L599 925 L593 912 L597 905 L600 896 L601 887 L602 886 L602 877 L601 878 L601 884 L600 885 L599 893 L593 909 L590 904 L581 880 L584 872 Z M552 845 L569 880 L574 894 L577 899 L584 920 L586 923 L586 926 L590 935 L593 948 L593 956 L594 957 L593 968 L589 977 L583 983 L574 987 L552 988 L551 987 L525 986 L524 985 L517 985 L512 983 L508 983 L507 982 L506 972 L501 961 L492 952 L493 951 L499 951 L512 948 L528 941 L534 937 L546 924 L548 919 L547 919 L544 925 L537 932 L525 940 L523 940 L513 945 L505 947 L502 946 L508 943 L523 932 L535 918 L544 902 L548 891 L551 878 L551 871 L552 870 L551 846 Z M549 826 L551 826 L558 835 L570 859 L588 904 L589 909 L595 922 L596 927 L600 935 L601 940 L604 945 L608 959 L614 973 L615 981 L616 982 L616 998 L613 1005 L607 1011 L599 1015 L595 1015 L594 1016 L593 1015 L591 1016 L571 1015 L570 1014 L547 1011 L541 1009 L536 1009 L530 1007 L506 1004 L505 1003 L507 997 L507 987 L508 986 L509 987 L516 987 L517 988 L530 988 L531 989 L541 989 L542 990 L571 990 L572 989 L576 989 L583 986 L591 979 L596 966 L596 952 L589 925 L566 868 L554 844 L550 839 L548 832 L548 827 Z M531 802 L533 806 L535 822 L538 834 L538 864 L537 865 L537 871 L534 884 L528 899 L521 910 L510 921 L501 928 L489 934 L476 938 L455 939 L454 938 L455 917 L456 916 L458 902 L464 885 L472 872 L480 862 L510 835 L522 822 L526 816 Z M341 803 L342 802 L343 803 L342 804 Z M323 800 L324 799 L326 800 L325 801 Z M322 799 L323 798 L324 799 L323 800 Z M321 798 L322 797 L323 798 L322 799 Z M344 796 L345 795 L346 796 L345 797 Z M533 794 L541 812 L545 829 L547 832 L548 844 L549 845 L549 874 L548 875 L548 881 L544 895 L536 911 L536 913 L529 922 L519 932 L511 938 L500 944 L486 949 L479 947 L468 947 L463 949 L455 949 L454 948 L454 942 L455 941 L479 940 L489 937 L501 931 L510 925 L522 913 L530 901 L537 883 L539 875 L539 870 L540 869 L540 862 L541 861 L540 829 L539 828 L539 823 L536 811 L531 799 Z M531 793 L532 792 L533 793 L532 794 Z M343 792 L345 791 L346 793 L345 794 Z M330 779 L332 776 L335 778 L332 780 Z M523 776 L524 775 L525 777 L524 778 Z M369 776 L370 775 L371 776 L370 777 Z M368 775 L369 774 L370 775 L369 776 Z M367 774 L368 773 L369 774 L368 775 Z M329 768 L328 769 L329 778 L319 789 L318 797 L322 802 L327 803 L341 793 L342 797 L338 803 L336 809 L337 812 L340 815 L347 816 L353 811 L358 798 L363 794 L370 792 L372 790 L366 788 L358 792 L351 803 L350 806 L351 810 L346 814 L342 814 L339 810 L339 806 L341 803 L342 805 L347 798 L348 791 L346 789 L340 789 L327 798 L325 798 L323 796 L323 792 L325 788 L333 781 L339 779 L348 779 L348 778 L343 775 L334 775 L332 773 L331 769 Z M515 764 L518 769 L522 781 L522 790 L517 803 L510 812 L484 835 L467 853 L458 866 L450 884 L447 895 L446 909 L445 910 L446 936 L447 937 L447 941 L449 944 L449 937 L448 936 L448 905 L449 904 L449 898 L452 886 L456 876 L463 863 L471 852 L489 834 L499 826 L518 806 L524 793 L524 778 L525 777 L530 787 L530 800 L527 809 L519 822 L475 864 L465 878 L458 893 L453 912 L453 919 L452 920 L452 948 L453 949 L452 950 L455 952 L451 955 L448 952 L450 950 L447 949 L441 943 L428 922 L424 909 L424 900 L440 867 L455 845 L476 821 L506 791 L509 783 L511 781 Z M511 765 L511 772 L507 785 L499 795 L468 826 L452 845 L435 871 L425 891 L423 899 L417 910 L404 922 L393 928 L377 933 L360 934 L359 933 L354 933 L349 930 L328 922 L300 915 L286 914 L285 913 L274 913 L273 912 L251 912 L250 911 L205 911 L204 910 L197 910 L189 908 L177 900 L178 899 L181 900 L270 899 L271 900 L283 900 L284 901 L292 901 L293 902 L311 904 L357 915 L375 915 L385 912 L396 906 L407 895 L414 885 L433 852 L445 835 L472 804 L503 774 L510 764 Z M314 766 L317 763 L318 765 L321 766 L318 768 L316 768 Z M320 763 L321 762 L322 763 L321 764 Z M341 762 L342 761 L352 761 L359 764 L368 773 L366 774 L358 766 L354 764 L342 763 Z M295 756 L297 757 L296 761 L297 765 L301 773 L305 788 L305 793 L307 800 L307 810 L306 811 L304 806 L304 800 L303 799 L303 795 L302 794 L298 773 L295 764 L292 759 Z M296 756 L297 755 L298 756 L297 757 Z M550 746 L554 747 L558 751 L567 766 L575 785 L582 808 L584 825 L585 826 L585 855 L580 876 L565 843 L570 828 L572 808 L571 807 L569 824 L564 839 L556 827 L551 823 L552 819 L551 805 L546 787 L539 770 L544 755 L547 749 Z M342 746 L343 745 L344 746 L343 747 Z M331 745 L317 751 L308 758 L308 760 L327 750 L331 747 Z M340 738 L342 738 L346 741 L344 746 L343 742 L339 739 Z M343 736 L333 737 L321 741 L294 754 L290 757 L290 760 L293 765 L296 774 L301 801 L302 802 L302 807 L303 808 L303 821 L302 822 L305 821 L308 814 L309 799 L308 798 L308 792 L305 783 L305 779 L302 770 L299 765 L298 760 L302 755 L310 750 L332 741 L339 741 L341 743 L341 745 L334 751 L317 760 L313 764 L312 768 L315 770 L319 770 L322 768 L339 763 L350 764 L358 768 L368 778 L378 783 L380 782 L361 763 L353 759 L338 759 L326 763 L322 763 L321 762 L337 754 L346 747 L348 741 Z M382 747 L385 752 L388 763 L387 783 L381 797 L376 804 L359 818 L349 823 L336 827 L331 827 L330 828 L310 828 L298 825 L286 819 L272 805 L268 795 L268 781 L271 772 L276 764 L289 751 L301 743 L316 736 L328 732 L340 731 L341 730 L349 730 L350 731 L360 732 L370 736 Z M376 737 L359 729 L338 728 L337 729 L327 730 L312 735 L290 747 L276 760 L271 767 L266 778 L265 794 L268 804 L272 811 L278 818 L289 826 L295 829 L309 833 L333 833 L334 832 L338 832 L351 828 L366 820 L381 806 L389 792 L393 776 L392 763 L389 753 L385 746 Z M454 731 L449 751 L442 766 L424 790 L406 807 L382 824 L357 837 L347 841 L322 848 L307 850 L306 851 L292 852 L291 853 L266 853 L265 852 L257 852 L256 851 L247 850 L232 845 L214 835 L203 825 L211 808 L225 787 L249 762 L263 751 L280 740 L312 725 L345 716 L361 715 L362 714 L385 714 L386 715 L397 715 L398 716 L415 718 L431 722 L446 727 Z M918 658 L919 657 L920 658 L919 659 Z M339 641 L342 648 L344 662 L346 667 L346 671 L347 672 L347 676 L348 677 L348 681 L349 682 L349 686 L351 691 L353 706 L355 712 L354 713 L347 713 L346 714 L337 715 L310 723 L278 738 L268 745 L262 737 L233 686 L239 680 L283 660 L293 657 L314 648 L322 646 L325 644 L331 642 L338 642 Z M339 638 L338 640 L331 640 L325 642 L322 644 L306 649 L271 663 L266 666 L264 666 L241 677 L234 683 L233 686 L232 685 L231 678 L234 673 L263 659 L327 634 L334 633 Z M481 615 L485 619 L487 624 L488 634 L493 654 L493 658 L495 662 L497 674 L506 702 L521 736 L521 738 L536 769 L547 799 L548 807 L549 808 L549 822 L547 824 L540 802 L535 792 L532 789 L531 784 L526 775 L526 773 L514 759 L514 751 L512 743 L503 722 L495 699 L495 696 L487 670 L487 666 L483 650 L483 645 L481 638 L481 629 L480 628 L480 616 Z M510 746 L510 757 L506 766 L459 814 L443 833 L426 858 L408 890 L397 902 L391 906 L380 911 L370 912 L369 913 L355 912 L324 904 L320 904 L305 900 L293 899 L292 898 L268 897 L267 896 L183 897 L172 893 L162 883 L126 822 L105 790 L90 770 L77 755 L77 750 L79 749 L86 754 L102 770 L135 814 L157 837 L170 847 L192 858 L213 864 L238 867 L239 868 L285 869 L286 868 L295 868 L296 867 L315 865 L346 857 L349 855 L364 850 L382 841 L401 829 L428 807 L449 784 L467 757 L477 734 L482 713 L482 707 L483 706 L483 685 L482 682 L481 682 L482 685 L481 709 L474 737 L470 747 L459 767 L438 794 L423 809 L409 821 L384 838 L364 848 L337 858 L311 864 L297 865 L296 866 L285 866 L284 867 L249 867 L248 866 L238 866 L237 865 L223 864 L222 863 L204 860 L189 855 L175 848 L161 838 L148 826 L131 806 L106 772 L91 756 L78 747 L82 744 L97 745 L113 750 L132 760 L155 777 L175 797 L191 817 L208 834 L220 842 L235 849 L260 855 L282 856 L283 855 L296 855 L297 854 L311 853 L340 846 L343 844 L346 844 L361 838 L377 830 L399 816 L416 802 L426 792 L444 768 L453 748 L457 731 L457 725 L458 724 L458 714 L459 713 L459 668 L460 667 L461 648 L464 636 L469 624 L478 615 L479 616 L479 636 L480 637 L482 655 L484 660 L484 665 L489 685 L491 689 L491 692 L495 702 L495 705 L497 708 Z M76 744 L74 748 L75 757 L88 772 L110 802 L135 843 L136 851 L139 863 L144 876 L144 879 L158 916 L157 917 L141 910 L134 911 L131 917 L131 923 L132 924 L132 929 L134 937 L141 957 L153 982 L167 1003 L183 1020 L182 1021 L175 1020 L172 1025 L173 1034 L176 1043 L186 1064 L191 1072 L204 1089 L216 1100 L211 1102 L209 1107 L209 1113 L212 1126 L222 1152 L224 1154 L229 1165 L241 1182 L256 1197 L269 1206 L281 1212 L290 1215 L305 1217 L313 1231 L325 1248 L344 1268 L359 1280 L370 1287 L386 1295 L400 1300 L417 1304 L422 1304 L423 1305 L436 1305 L437 1306 L458 1305 L463 1308 L480 1313 L493 1314 L494 1315 L512 1315 L513 1314 L521 1314 L522 1313 L531 1312 L546 1307 L562 1299 L580 1286 L596 1270 L607 1255 L614 1242 L619 1229 L619 1226 L627 1217 L636 1203 L641 1193 L647 1176 L650 1163 L650 1158 L651 1157 L651 1149 L652 1148 L652 1115 L651 1114 L651 1107 L650 1106 L648 1090 L641 1066 L650 1050 L654 1038 L654 1034 L656 1028 L656 1021 L657 1020 L656 997 L655 996 L654 985 L650 973 L650 970 L648 967 L644 954 L634 937 L630 937 L628 939 L624 948 L623 947 L623 942 L624 941 L623 909 L617 883 L612 869 L603 853 L598 849 L595 849 L588 859 L587 858 L588 855 L588 829 L587 828 L587 821 L586 820 L586 815 L581 794 L573 772 L566 758 L560 749 L556 745 L552 743 L548 744 L545 747 L539 761 L539 766 L538 767 L532 753 L517 722 L509 702 L506 691 L504 688 L496 659 L496 655 L494 650 L494 646 L490 630 L490 625 L487 617 L483 613 L480 612 L474 614 L467 622 L460 639 L458 656 L457 657 L456 717 L455 718 L455 727 L454 728 L440 722 L437 722 L427 718 L419 717 L414 715 L395 713 L394 712 L382 712 L381 711 L358 712 L356 707 L355 697 L354 696 L354 692 L353 691 L353 687 L352 686 L352 682 L351 681 L351 677 L348 667 L343 640 L340 634 L334 630 L321 633 L318 635 L313 636 L310 638 L305 639 L297 643 L277 650 L270 654 L252 661 L231 672 L228 679 L229 685 L245 714 L265 746 L246 761 L228 779 L212 801 L201 823 L193 815 L177 795 L157 775 L134 758 L113 747 L97 742 L82 741 Z M831 595 L832 594 L833 595 L832 596 Z M830 594 L831 593 L832 594 L831 595 Z M828 593 L829 592 L830 593 L829 594 Z M827 592 L828 591 L829 592 L828 593 Z M695 591 L696 590 L697 591 L696 592 Z M817 590 L818 589 L819 590 L818 591 Z M816 589 L817 588 L818 589 L817 590 Z M545 588 L553 597 L564 603 L566 603 L565 601 L555 596 Z M705 580 L706 579 L708 580 L707 581 Z M707 579 L708 578 L710 579 L709 580 Z M696 596 L707 584 L713 580 L725 575 L741 571 L749 571 L750 570 L766 570 L767 571 L780 572 L796 577 L802 580 L813 589 L819 599 L821 607 L820 625 L817 633 L810 645 L798 656 L788 661 L772 665 L760 665 L759 666 L739 665 L727 662 L713 655 L703 645 L696 633 L692 618 L692 609 Z M816 568 L817 567 L818 569 L817 570 Z M535 560 L540 567 L546 572 L559 579 L562 579 L562 578 L545 569 Z M828 553 L829 552 L830 553 L829 554 Z M829 552 L830 551 L831 552 L830 553 Z M830 551 L831 550 L832 551 L831 552 Z M831 550 L832 549 L833 550 L832 551 Z M832 549 L833 548 L834 549 L833 550 Z M833 548 L834 547 L835 548 L834 549 Z M834 547 L835 546 L836 547 L835 548 Z M796 545 L800 544 L806 545 L813 549 L817 554 L815 565 L811 577 L809 579 L797 573 L786 570 L790 551 Z M719 542 L726 546 L731 569 L727 571 L723 571 L710 575 L704 564 L701 554 L701 550 L704 546 L710 543 Z M763 542 L772 539 L773 540 L781 541 L785 544 L786 546 L786 556 L785 557 L785 563 L783 570 L779 568 L761 567 L760 566 L761 547 Z M735 541 L740 539 L748 539 L752 540 L756 544 L756 548 L757 549 L757 565 L758 566 L757 567 L743 567 L735 569 L733 568 L731 547 L732 544 Z M530 534 L533 539 L541 546 L547 550 L561 556 L560 554 L549 549 L540 543 Z M863 521 L864 522 L864 530 L865 531 L864 570 L863 571 L863 577 L862 578 L859 595 L855 607 L853 609 L844 600 L836 594 L812 580 L833 553 Z M866 518 L868 518 L879 530 L885 544 L885 551 L886 552 L885 560 L881 568 L875 573 L867 576 L866 575 L866 570 L867 569 L867 560 L868 559 L868 534 L867 533 L867 527 L865 519 Z M655 514 L686 547 L707 576 L684 587 L667 599 L662 604 L660 603 L657 595 L654 578 L653 577 L652 562 L651 561 L651 534 L652 533 L652 526 Z M651 514 L652 517 L650 523 L649 537 L648 538 L648 558 L649 559 L649 568 L650 569 L649 572 L638 567 L633 561 L631 555 L631 543 L634 534 L639 525 Z M979 507 L977 507 L970 515 L962 521 L947 529 L946 531 L948 531 L966 521 Z M528 507 L530 512 L541 523 L553 531 L562 534 L543 522 Z M883 490 L887 491 L896 496 L901 501 L905 508 L910 524 L910 529 L911 530 L911 558 L910 559 L910 565 L906 582 L902 593 L894 609 L885 622 L870 637 L863 642 L861 637 L871 628 L881 616 L887 607 L895 591 L900 576 L902 560 L903 559 L903 542 L902 541 L902 534 L900 526 L893 509 L885 498 L877 491 L878 490 Z M876 490 L877 489 L878 490 L877 491 Z M634 485 L638 486 L627 498 L617 517 L613 531 L612 549 L613 550 L613 556 L616 569 L622 586 L630 601 L638 613 L652 629 L650 633 L646 631 L632 616 L620 597 L611 575 L611 572 L608 564 L608 557 L606 549 L607 523 L612 504 L616 497 L623 490 Z M616 529 L620 516 L628 501 L643 485 L646 484 L659 491 L678 510 L702 539 L704 539 L712 526 L730 506 L741 517 L757 536 L759 536 L765 529 L765 527 L785 507 L802 525 L813 541 L816 542 L833 522 L853 501 L863 493 L871 490 L876 493 L885 502 L895 519 L900 539 L900 562 L899 563 L899 569 L896 581 L889 598 L872 623 L860 634 L850 615 L832 596 L834 595 L839 598 L851 608 L855 613 L857 610 L862 595 L865 579 L878 574 L886 565 L888 558 L888 545 L886 538 L877 523 L869 516 L865 515 L864 517 L861 518 L827 550 L826 553 L828 553 L829 555 L818 568 L817 564 L820 554 L813 546 L805 542 L796 542 L792 544 L789 548 L787 543 L783 539 L777 537 L768 537 L763 539 L760 542 L760 546 L759 547 L756 540 L753 538 L745 536 L738 537 L732 540 L730 543 L730 547 L729 548 L727 543 L722 540 L711 540 L704 543 L699 549 L699 555 L701 560 L700 562 L688 546 L689 545 L692 546 L692 545 L661 513 L652 511 L645 515 L638 522 L634 528 L629 540 L628 553 L630 560 L635 568 L641 572 L650 575 L653 590 L659 607 L661 608 L667 602 L689 587 L704 580 L706 581 L692 589 L675 601 L658 618 L653 626 L646 619 L636 606 L622 580 L618 568 L616 554 L615 553 Z M637 485 L638 484 L640 485 L639 486 Z M979 484 L966 497 L953 507 L947 510 L945 513 L961 504 L974 492 Z M579 485 L582 482 L587 485 L600 488 L590 509 L586 525 L585 536 L584 537 L583 560 L584 561 L585 578 L588 591 L594 607 L602 622 L614 638 L624 648 L638 658 L646 661 L647 660 L649 644 L654 630 L659 621 L671 608 L689 594 L695 591 L696 592 L691 601 L689 616 L690 617 L691 626 L695 637 L703 649 L717 660 L729 665 L743 667 L744 668 L767 668 L768 667 L780 666 L794 661 L806 653 L814 644 L821 630 L823 622 L823 615 L824 614 L822 599 L818 592 L819 590 L823 592 L836 603 L845 613 L852 623 L860 642 L861 651 L863 656 L863 665 L864 667 L873 664 L884 658 L892 652 L903 641 L911 630 L920 612 L926 593 L928 577 L929 576 L929 570 L930 569 L930 537 L929 536 L929 528 L928 527 L927 517 L923 505 L914 491 L916 489 L920 489 L925 487 L932 482 L935 487 L936 495 L938 500 L939 511 L940 512 L941 535 L942 536 L942 555 L941 556 L941 568 L940 569 L939 584 L938 585 L936 599 L934 604 L931 620 L923 643 L915 659 L909 668 L896 681 L882 689 L862 694 L810 695 L809 694 L736 694 L735 693 L688 693 L687 694 L686 693 L661 693 L660 692 L653 692 L652 691 L642 690 L621 683 L608 675 L601 669 L587 651 L579 633 L572 609 L569 585 L568 584 L568 571 L567 570 L567 537 L568 536 L568 528 L569 527 L570 515 Z M527 481 L531 488 L543 500 L556 509 L564 512 L563 510 L558 508 L541 496 Z M756 480 L756 507 L757 508 L757 521 L758 521 L758 516 L759 515 L759 491 L758 490 L758 480 Z M770 479 L769 482 L770 483 L770 507 L771 508 L772 507 L772 483 L771 479 Z M743 479 L743 507 L745 508 L745 480 Z M733 478 L731 479 L731 488 L730 489 L731 498 L732 498 L732 490 L733 489 Z M782 477 L783 494 L784 498 L785 498 L785 482 L784 481 L784 477 Z M721 474 L719 474 L718 487 L717 488 L717 506 L719 507 L719 490 L720 489 L720 477 Z M843 473 L845 480 L845 486 L846 487 L846 495 L848 494 L847 478 L845 473 Z M794 473 L797 508 L798 508 L798 487 L797 486 L796 475 Z M805 469 L806 477 L807 478 L807 488 L808 489 L808 518 L809 518 L810 514 L810 488 L809 487 L808 473 L807 470 Z M709 469 L707 470 L706 480 L705 481 L705 516 L706 518 L707 517 L707 483 L708 482 Z M967 467 L968 466 L969 467 L968 468 Z M829 467 L832 477 L833 493 L834 494 L834 508 L835 508 L836 504 L835 481 L832 470 Z M957 465 L955 465 L948 470 L945 470 L944 472 L947 473 L952 470 Z M816 465 L819 477 L819 482 L820 483 L821 521 L822 520 L822 513 L823 512 L823 490 L822 489 L822 481 L819 468 Z M671 465 L670 465 L668 472 L668 487 L669 487 L669 482 L670 481 Z M696 464 L694 466 L693 474 L692 475 L692 483 L691 484 L691 504 L692 505 L693 513 L694 513 L693 510 L693 487 L694 486 L695 470 L697 465 Z M683 463 L681 464 L680 472 L679 473 L679 481 L678 482 L678 494 L679 496 L680 495 L680 483 L681 482 L681 474 L682 473 Z M983 458 L985 460 L985 464 L986 465 L985 503 L984 504 L983 522 L982 523 L979 547 L971 580 L964 600 L951 625 L939 641 L928 652 L920 658 L919 656 L925 645 L933 621 L947 615 L953 610 L951 610 L949 612 L935 618 L934 616 L938 600 L957 592 L964 586 L963 585 L960 588 L940 597 L939 594 L940 593 L942 578 L960 570 L971 560 L970 559 L959 568 L944 575 L943 574 L944 555 L953 552 L966 544 L978 532 L977 531 L969 539 L961 545 L947 552 L945 554 L944 553 L944 524 L943 523 L943 514 L942 513 L942 507 L941 506 L940 498 Z M601 489 L603 487 L608 487 L627 481 L649 470 L662 462 L664 462 L671 458 L682 455 L696 457 L713 466 L726 471 L734 473 L739 473 L740 474 L752 474 L753 475 L771 474 L784 471 L800 465 L809 460 L816 458 L826 458 L836 461 L860 474 L862 474 L883 484 L900 489 L908 489 L912 492 L917 499 L921 507 L925 521 L927 545 L928 546 L928 560 L927 561 L926 578 L925 579 L923 594 L918 610 L911 625 L902 638 L885 654 L879 658 L869 663 L867 663 L865 659 L865 652 L863 644 L882 628 L896 609 L905 590 L912 562 L913 534 L912 533 L912 526 L911 525 L910 517 L902 500 L896 494 L889 490 L883 488 L874 487 L861 491 L848 502 L815 539 L803 522 L786 504 L781 506 L775 512 L758 533 L731 503 L729 503 L718 515 L703 535 L677 505 L658 487 L647 482 L638 482 L623 488 L613 499 L610 505 L606 519 L604 541 L605 542 L606 561 L614 588 L622 604 L634 621 L649 635 L645 651 L645 657 L644 658 L628 648 L612 632 L602 617 L595 603 L590 589 L588 576 L587 575 L587 568 L586 567 L587 534 L588 533 L589 522 L592 514 L592 511 L595 505 L596 500 L601 491 Z M525 454 L548 474 L572 498 L568 514 L566 534 L565 535 L565 572 L566 573 L568 600 L569 601 L571 615 L575 629 L577 632 L578 638 L584 651 L586 653 L585 655 L571 642 L554 620 L544 601 L533 572 L533 569 L531 565 L526 545 L524 527 L523 526 L523 519 L522 518 L522 507 L521 506 L521 471 L522 470 L523 456 Z M819 423 L819 428 L817 432 L807 443 L792 451 L786 451 L784 449 L789 439 L796 431 L805 424 L812 421 L817 421 Z M697 423 L700 421 L710 424 L718 430 L726 439 L730 447 L727 451 L718 450 L705 442 L697 432 L696 429 Z M693 422 L692 424 L692 433 L695 438 L705 447 L719 453 L727 453 L731 450 L731 443 L725 434 L716 425 L704 419 L698 419 Z M823 422 L819 419 L813 418 L802 423 L785 440 L782 446 L782 450 L785 453 L789 454 L790 453 L798 452 L810 446 L821 435 L824 428 Z M833 372 L834 371 L835 372 L834 373 Z M834 371 L835 370 L837 371 L836 372 Z M831 370 L832 369 L835 370 L833 372 Z M830 369 L831 368 L832 369 L831 370 Z M829 368 L830 367 L831 368 L830 369 Z M680 367 L681 366 L682 367 L681 368 Z M963 337 L964 336 L965 337 L964 338 Z M927 333 L933 351 L934 363 L935 364 L935 375 L936 376 L936 389 L935 390 L934 404 L932 412 L927 423 L923 429 L914 438 L901 444 L895 444 L894 445 L882 444 L867 438 L860 433 L846 418 L845 416 L846 414 L846 398 L840 382 L834 373 L835 372 L837 374 L849 378 L863 380 L864 381 L883 381 L898 377 L912 368 L919 359 L923 351 L926 339 L926 334 Z M976 332 L978 336 L979 356 L980 357 L980 407 L979 408 L979 417 L978 418 L976 437 L972 451 L963 469 L956 479 L940 495 L938 493 L934 479 L940 471 L943 465 L944 460 L956 453 L967 442 L970 437 L956 450 L947 456 L946 453 L947 452 L949 435 L963 425 L974 410 L973 409 L970 414 L956 428 L951 432 L950 431 L952 409 L965 399 L975 384 L974 383 L968 392 L953 406 L952 405 L952 386 L965 374 L974 358 L973 358 L962 374 L953 383 L951 375 L951 363 L950 360 L963 343 L972 334 Z M586 324 L588 325 L590 335 L597 349 L609 363 L621 371 L634 375 L651 375 L652 374 L662 373 L669 370 L675 369 L678 367 L681 368 L678 371 L677 370 L678 372 L673 379 L668 394 L668 406 L667 408 L654 422 L643 430 L637 433 L626 436 L612 435 L606 433 L596 427 L585 414 L581 406 L578 396 L577 384 L576 383 L576 362 L577 361 L577 354 L578 353 L580 340 Z M537 323 L538 322 L539 323 L538 324 Z M526 319 L529 319 L544 334 L548 340 L559 352 L558 360 L557 361 L557 371 L556 372 L546 364 L529 346 L536 357 L545 366 L557 375 L556 376 L556 394 L555 395 L544 387 L529 373 L542 388 L556 398 L557 417 L556 418 L542 408 L531 396 L530 397 L544 412 L557 421 L560 442 L561 443 L560 445 L546 436 L534 426 L548 440 L562 448 L564 457 L567 462 L566 465 L567 464 L569 467 L568 468 L557 463 L549 457 L551 460 L564 469 L571 471 L579 480 L573 495 L544 466 L535 450 L529 433 L525 416 L523 397 L522 396 L522 387 L521 386 L521 341 L522 340 L523 325 Z M568 315 L569 314 L570 315 L569 316 Z M755 313 L769 314 L777 317 L784 322 L794 336 L800 355 L799 356 L799 364 L800 365 L799 366 L799 380 L798 381 L798 387 L795 400 L790 414 L785 424 L776 437 L781 433 L790 420 L798 399 L799 391 L800 390 L800 384 L801 383 L801 358 L800 357 L801 356 L808 357 L818 362 L832 375 L841 390 L843 397 L843 404 L844 405 L841 423 L837 432 L830 442 L818 454 L816 454 L814 456 L794 465 L782 469 L778 469 L772 471 L765 471 L764 472 L747 472 L746 471 L733 470 L719 466 L696 455 L694 455 L691 450 L687 447 L680 438 L673 423 L671 415 L671 410 L670 409 L670 399 L671 398 L672 389 L674 383 L680 373 L693 361 L707 354 L715 353 L717 355 L716 356 L717 383 L718 384 L718 389 L722 405 L730 424 L738 435 L741 436 L734 427 L729 417 L723 400 L720 387 L720 382 L719 381 L719 374 L718 373 L718 356 L717 355 L717 351 L720 342 L727 330 L740 318 Z M567 308 L568 309 L567 312 L565 310 Z M925 305 L934 317 L942 334 L947 352 L948 366 L949 367 L949 420 L948 421 L947 437 L941 462 L934 475 L926 483 L915 487 L903 487 L877 479 L839 460 L827 456 L819 456 L818 455 L825 451 L838 436 L845 420 L850 427 L861 437 L873 444 L884 447 L899 447 L906 445 L918 438 L927 428 L934 414 L937 402 L937 397 L938 396 L938 368 L937 367 L937 359 L936 358 L934 345 L927 328 L926 314 L924 308 Z M875 298 L870 303 L870 309 L874 313 L880 313 L884 308 L884 302 L879 298 Z M967 296 L959 309 L944 324 L944 326 L954 318 L960 311 L966 301 Z M587 294 L588 295 L588 299 L586 307 L586 320 L582 327 L576 347 L576 352 L575 353 L575 359 L574 360 L574 387 L575 388 L575 393 L579 407 L584 417 L596 430 L607 436 L614 438 L628 438 L636 436 L652 427 L664 416 L667 411 L669 415 L672 428 L676 436 L684 447 L688 449 L692 453 L691 454 L689 453 L682 453 L667 457 L630 477 L614 483 L604 484 L603 485 L592 484 L585 481 L576 473 L572 467 L565 451 L562 434 L561 433 L560 417 L559 416 L558 382 L559 381 L559 366 L560 365 L560 356 L561 355 L562 344 L568 324 L578 305 Z M639 294 L635 297 L634 304 L637 308 L644 309 L648 306 L649 299 L646 295 Z M587 294 L588 293 L589 294 L588 295 Z M870 287 L881 287 L884 288 L891 294 L894 301 L893 312 L890 317 L882 323 L878 324 L870 323 L866 321 L861 316 L859 312 L859 301 L861 295 Z M873 284 L866 287 L859 295 L856 302 L856 310 L858 316 L864 323 L870 326 L881 326 L890 321 L894 316 L897 307 L896 297 L894 293 L886 286 L881 284 Z M638 282 L645 282 L651 284 L656 288 L660 296 L660 306 L658 311 L652 317 L645 320 L638 320 L632 317 L627 312 L624 306 L625 293 L633 284 Z M636 280 L630 283 L625 288 L621 298 L621 304 L624 312 L629 318 L637 322 L648 322 L654 319 L659 314 L663 305 L662 294 L659 288 L654 283 L648 280 Z M932 277 L933 278 L932 281 L931 280 Z M730 275 L734 279 L738 281 L754 285 L777 284 L783 282 L793 276 L793 275 L786 279 L775 282 L749 282 L738 279 Z M647 267 L648 266 L649 267 L648 268 Z M645 266 L646 265 L647 266 L646 267 Z M643 265 L644 264 L646 265 L645 266 Z M642 264 L643 263 L644 264 L643 265 Z M925 259 L921 283 L913 306 L903 323 L890 336 L875 344 L869 346 L862 346 L861 347 L842 346 L828 342 L824 339 L833 321 L843 305 L856 289 L870 276 L885 270 L911 264 L924 258 Z M931 255 L932 254 L933 255 L932 256 Z M593 251 L595 250 L620 260 L640 265 L652 272 L663 283 L672 296 L680 311 L690 338 L680 342 L660 344 L659 343 L648 342 L639 339 L626 331 L613 317 L606 304 L598 280 L598 276 L595 265 L594 252 Z M943 245 L946 248 L952 262 L952 266 L953 267 L953 283 L949 300 L940 317 L940 319 L938 320 L935 314 L925 300 L928 291 L932 285 L940 268 L939 267 L933 278 L932 277 L932 273 L934 265 L934 253 Z M944 242 L945 241 L946 243 L945 244 Z M574 239 L584 246 L585 258 L588 270 L587 274 L580 260 L578 259 L578 260 L580 262 L586 276 L589 277 L591 286 L582 295 L572 310 L569 306 L563 287 L563 282 L561 275 L561 265 L565 248 L568 243 L572 239 Z M564 227 L571 236 L567 241 L563 231 Z M562 226 L563 225 L564 227 L563 228 Z M553 205 L554 204 L555 205 L554 206 Z M963 198 L965 201 L965 205 L968 214 L968 219 L971 231 L972 247 L973 248 L974 277 L973 278 L973 288 L972 289 L971 303 L967 320 L959 341 L953 352 L950 354 L949 353 L947 340 L951 338 L956 332 L949 337 L947 340 L940 324 L950 305 L953 293 L962 282 L966 274 L969 262 L968 262 L965 272 L956 287 L955 286 L956 282 L956 269 L955 268 L954 258 L963 243 L966 231 L965 231 L963 238 L953 256 L948 247 L948 243 L950 238 L950 233 L955 221 L956 214 L958 210 L958 206 L960 201 Z M960 196 L961 195 L962 196 L961 197 Z M533 193 L546 202 L557 212 L561 234 L564 241 L564 246 L561 251 L561 255 L559 256 L545 240 L535 224 L538 232 L545 243 L556 256 L560 259 L559 261 L559 277 L560 281 L559 282 L553 278 L541 266 L534 257 L535 260 L544 272 L553 281 L561 286 L563 297 L567 306 L567 308 L566 309 L565 308 L566 309 L565 310 L562 309 L549 299 L538 288 L541 293 L552 304 L569 316 L563 330 L555 325 L547 318 L556 328 L563 333 L561 337 L560 346 L558 348 L547 333 L540 320 L532 298 L529 285 L529 280 L528 279 L527 264 L526 263 L526 227 L527 226 L527 216 L528 215 L529 203 L531 195 Z M935 192 L936 191 L937 192 L936 193 Z M581 181 L582 180 L583 181 L582 182 Z M804 174 L803 175 L804 178 L804 215 L803 216 L803 227 L802 228 L802 232 L803 233 L804 224 L805 223 L805 214 L806 213 L806 179 Z M723 174 L723 179 L722 180 L722 204 L723 205 L723 221 L724 222 L724 233 L725 234 L725 196 L724 195 L724 179 L725 178 L725 174 Z M817 173 L818 195 L817 196 L816 223 L818 221 L819 201 L820 200 L820 184 L819 183 L819 174 Z M737 172 L736 175 L736 198 L737 199 L737 223 L738 224 L738 242 L739 245 L740 244 L740 226 L739 225 L738 172 Z M712 172 L710 172 L710 176 L709 177 L709 213 L710 214 L710 223 L711 223 L711 176 Z M790 171 L789 171 L789 178 L790 179 L790 216 L789 217 L789 229 L788 230 L786 249 L787 249 L789 241 L789 236 L791 229 L791 219 L792 218 L792 179 Z M830 169 L828 169 L829 173 L828 216 L829 216 L830 204 L831 203 L831 173 Z M699 168 L697 169 L697 174 L696 175 L696 194 L697 195 L697 212 L698 213 L698 217 L699 216 L699 197 L698 196 Z M839 165 L838 166 L839 168 L839 200 L838 201 L838 209 L839 209 L840 197 L841 196 L841 168 Z M686 164 L684 170 L684 191 L685 192 L685 205 L686 206 L686 211 L687 211 L687 190 L686 189 L687 164 Z M850 160 L850 165 L851 166 L850 205 L851 205 L852 194 L853 193 L853 165 L852 161 Z M673 159 L672 167 L671 168 L671 182 L672 183 L672 196 L673 197 L673 201 L674 201 L674 182 L673 181 L674 159 Z M862 153 L861 154 L862 155 L863 167 L864 168 L864 183 L863 184 L863 197 L862 198 L862 200 L864 199 L865 187 L866 186 L866 168 L865 167 L864 155 Z M661 152 L659 153 L658 163 L657 164 L657 180 L658 181 L658 191 L660 197 L659 165 L660 164 Z M873 147 L875 153 L875 160 L876 161 L876 179 L875 180 L875 191 L874 192 L875 196 L877 190 L877 181 L878 180 L878 159 L877 158 L876 149 L875 147 Z M647 145 L645 148 L645 152 L644 153 L644 181 L645 182 L645 190 L646 192 L647 192 L647 188 L646 187 L646 154 L647 153 Z M886 139 L885 142 L887 148 L887 157 L888 158 L888 173 L887 174 L887 184 L886 185 L886 194 L887 194 L888 185 L889 184 L889 175 L890 174 L890 157 L889 156 L888 143 Z M634 137 L631 144 L630 162 L629 163 L630 166 L630 181 L632 189 L633 188 L632 186 L632 151 L635 139 Z M896 132 L899 144 L899 154 L900 155 L899 180 L898 181 L898 188 L899 188 L900 179 L901 178 L901 168 L902 167 L902 154 L901 153 L900 138 L898 132 Z M623 130 L621 130 L619 135 L618 145 L617 146 L617 153 L616 154 L616 176 L617 177 L617 181 L618 181 L619 146 Z M907 123 L910 136 L910 142 L911 143 L911 170 L910 171 L910 180 L908 187 L909 188 L911 185 L912 172 L913 171 L913 146 L912 145 L911 130 L909 124 Z M710 121 L711 120 L713 121 L712 122 Z M813 120 L802 127 L790 131 L780 132 L779 133 L772 133 L771 134 L756 134 L755 133 L752 134 L751 133 L738 132 L723 128 L712 122 L715 121 L724 125 L741 128 L742 129 L774 130 L775 129 L782 129 L783 128 L788 128 L796 126 L811 119 Z M708 120 L709 119 L711 120 L710 121 Z M614 120 L613 120 L611 124 L609 138 L608 139 L608 147 L607 148 L607 158 L608 159 L609 144 L610 143 L611 132 Z M812 119 L813 118 L814 119 L813 120 Z M707 119 L708 118 L709 119 L708 120 Z M813 118 L814 117 L816 118 L815 119 Z M705 118 L706 117 L708 118 L707 119 Z M815 117 L816 116 L817 117 L816 118 Z M704 117 L705 116 L706 117 L705 118 Z M816 116 L817 115 L818 116 L817 117 Z M703 116 L704 115 L705 116 L704 117 Z M918 112 L921 124 L922 140 L923 141 L923 182 L924 182 L925 178 L925 164 L926 163 L925 142 L924 141 L921 116 L919 112 Z M604 109 L602 110 L600 117 L599 133 L598 134 L598 147 L597 148 L597 171 L598 172 L598 176 L599 176 L600 129 L601 128 L601 122 Z M734 106 L735 105 L736 106 L735 107 Z M735 105 L736 104 L737 105 L736 106 Z M740 101 L741 102 L737 105 L736 104 Z M931 101 L932 100 L933 101 L932 102 Z M780 101 L782 100 L786 102 L788 106 L787 107 L785 106 Z M779 100 L780 99 L781 100 L780 101 Z M593 97 L592 97 L589 103 L587 119 L586 120 L586 159 L587 160 L588 121 L589 120 L589 113 Z M930 97 L932 99 L929 101 L932 110 L933 127 L934 128 L934 162 L935 163 L936 161 L936 124 L935 123 L934 109 L932 104 L933 101 L938 110 L942 122 L944 136 L945 137 L945 162 L941 177 L935 188 L930 193 L921 198 L879 208 L859 215 L843 223 L822 237 L794 264 L789 267 L783 268 L779 264 L776 254 L775 241 L774 240 L774 230 L773 229 L773 218 L772 217 L773 182 L777 168 L782 166 L796 170 L809 170 L822 167 L833 163 L849 155 L869 141 L897 114 L916 98 L922 95 L926 95 Z M773 94 L773 96 L776 101 L781 106 L790 111 L791 110 L791 106 L787 100 Z M593 93 L599 93 L606 97 L627 117 L651 137 L672 151 L690 160 L709 167 L717 169 L722 169 L723 170 L732 170 L744 166 L749 169 L751 175 L752 189 L753 190 L753 223 L752 224 L752 235 L751 236 L750 250 L747 261 L745 264 L740 266 L733 263 L726 258 L698 233 L678 220 L655 209 L603 193 L592 187 L584 179 L580 172 L576 157 L576 134 L577 133 L578 123 L584 105 L588 98 Z M750 93 L742 96 L736 101 L731 107 L730 111 L732 111 L739 107 L750 95 Z M783 91 L784 90 L786 91 L785 92 Z M780 89 L782 88 L784 90 L782 91 Z M778 88 L779 87 L781 88 L780 89 Z M777 87 L778 86 L779 87 L778 88 Z M795 84 L800 86 L803 90 L803 103 L804 104 L804 109 L803 110 L799 104 L799 93 L797 88 L794 85 Z M724 84 L725 85 L724 86 L725 103 L720 108 L719 107 L720 104 L719 87 Z M793 84 L794 83 L795 84 L794 85 Z M773 84 L773 86 L783 94 L782 95 L783 94 L786 95 L790 94 L781 85 Z M749 83 L745 83 L739 86 L731 94 L734 95 L739 93 Z M788 63 L789 62 L793 63 L792 64 Z M695 93 L699 85 L708 76 L718 70 L735 64 L740 64 L741 63 L747 63 L748 62 L772 62 L773 63 L784 64 L793 67 L809 75 L821 86 L824 91 L825 100 L821 109 L813 116 L806 120 L805 119 L806 117 L806 100 L805 99 L805 92 L806 91 L805 88 L801 84 L793 80 L777 76 L771 76 L766 74 L767 72 L780 72 L781 73 L794 74 L793 72 L784 69 L768 67 L764 69 L765 71 L764 75 L767 77 L765 79 L765 83 L764 84 L765 86 L765 107 L762 111 L759 108 L759 104 L758 103 L757 82 L755 78 L753 77 L756 75 L756 71 L755 70 L756 68 L743 68 L727 72 L724 75 L733 75 L745 72 L754 72 L755 74 L752 76 L745 76 L733 79 L729 81 L723 82 L717 87 L716 91 L717 95 L716 111 L719 111 L727 104 L728 96 L726 91 L726 87 L733 83 L748 81 L749 80 L754 80 L755 81 L755 101 L756 102 L756 107 L758 111 L762 114 L766 111 L768 105 L768 94 L767 93 L767 81 L768 80 L773 80 L786 83 L792 86 L796 91 L796 102 L797 106 L802 112 L801 114 L804 120 L803 121 L782 127 L752 128 L751 127 L743 127 L742 126 L725 123 L706 115 L697 106 L695 101 Z M618 106 L620 105 L632 113 L654 93 L669 83 L680 78 L682 76 L702 68 L727 62 L731 63 L715 69 L706 75 L697 84 L692 95 L692 105 L696 113 L703 120 L719 129 L735 134 L740 134 L747 136 L776 136 L777 135 L788 134 L796 132 L811 125 L822 116 L826 110 L828 104 L828 96 L824 86 L812 74 L802 68 L793 65 L792 64 L793 63 L813 68 L823 72 L843 83 L865 100 L883 119 L884 118 L880 113 L882 111 L888 109 L895 104 L904 101 L907 98 L912 97 L913 98 L896 112 L883 126 L879 128 L867 139 L849 152 L826 163 L810 167 L794 167 L786 164 L778 164 L774 168 L771 177 L770 193 L769 194 L769 211 L770 212 L770 228 L771 229 L772 246 L773 247 L773 253 L776 265 L781 270 L789 270 L796 266 L823 240 L845 225 L875 212 L921 201 L929 197 L935 192 L936 193 L931 203 L923 211 L914 215 L885 221 L867 227 L849 236 L836 245 L827 253 L814 270 L805 290 L804 298 L802 303 L801 325 L802 326 L803 338 L808 349 L811 352 L813 352 L817 356 L824 360 L843 366 L851 366 L852 367 L861 367 L862 366 L872 365 L880 362 L892 355 L906 341 L915 327 L922 311 L924 315 L923 342 L921 349 L913 363 L904 371 L887 378 L870 379 L869 378 L855 377 L846 374 L833 367 L828 366 L819 359 L811 355 L804 353 L803 354 L800 343 L794 331 L789 324 L776 314 L766 311 L754 311 L741 315 L735 319 L725 329 L719 338 L714 351 L712 350 L702 353 L694 357 L688 362 L684 362 L681 364 L655 372 L648 372 L647 373 L631 372 L625 370 L613 363 L600 349 L591 330 L589 316 L588 315 L588 302 L590 294 L592 291 L597 307 L603 318 L604 323 L618 343 L630 353 L639 358 L647 361 L660 362 L661 363 L672 362 L687 358 L705 348 L710 343 L714 335 L717 323 L717 298 L713 281 L705 264 L689 245 L674 234 L659 226 L644 220 L608 209 L593 201 L587 194 L582 184 L583 182 L590 189 L601 195 L647 209 L676 222 L697 236 L724 260 L737 268 L744 268 L749 264 L753 251 L754 237 L755 236 L755 226 L756 225 L756 191 L755 190 L755 181 L752 169 L749 165 L741 164 L734 167 L721 167 L708 164 L692 158 L672 148 L649 133 L634 120 L630 118 Z M785 62 L786 61 L788 62 L787 63 Z M731 62 L732 61 L735 62 L734 63 Z M961 57 L965 64 L966 76 L967 77 L966 136 L965 137 L963 165 L962 166 L962 172 L961 173 L961 179 L957 196 L957 201 L952 222 L948 232 L941 243 L928 254 L908 262 L887 267 L878 271 L876 270 L884 264 L896 258 L911 253 L927 246 L937 238 L944 228 L951 210 L954 197 L954 186 L955 185 L954 177 L953 188 L952 189 L952 194 L951 195 L951 200 L944 222 L937 234 L927 243 L917 248 L904 252 L899 255 L890 258 L881 263 L869 272 L848 294 L839 306 L830 321 L822 337 L819 346 L821 346 L824 342 L827 344 L844 349 L858 350 L859 349 L867 349 L878 346 L892 338 L905 325 L916 306 L926 274 L927 258 L931 255 L932 256 L932 262 L931 263 L928 283 L923 297 L923 300 L919 308 L915 321 L908 334 L902 342 L893 351 L878 360 L864 364 L849 364 L828 359 L814 352 L809 347 L805 334 L805 329 L804 328 L804 308 L805 307 L805 301 L808 289 L811 281 L817 270 L825 259 L835 249 L849 239 L862 232 L877 226 L916 217 L921 215 L928 210 L937 199 L942 187 L944 177 L945 176 L946 177 L946 188 L945 189 L945 195 L942 207 L934 223 L922 234 L911 239 L884 247 L870 254 L853 267 L841 280 L827 301 L819 319 L819 322 L817 325 L816 333 L815 334 L815 337 L816 337 L821 320 L830 301 L842 283 L858 266 L867 259 L879 252 L918 239 L924 236 L937 223 L942 214 L948 190 L948 165 L947 164 L948 139 L947 138 L946 126 L943 118 L943 115 L935 98 L929 93 L925 93 L924 92 L955 58 Z M550 50 L553 50 L560 53 L568 61 L590 88 L593 90 L584 99 L575 124 L573 143 L571 146 L568 158 L568 163 L567 164 L568 183 L571 194 L579 208 L594 222 L612 232 L623 236 L645 247 L657 255 L668 265 L676 275 L686 293 L693 312 L698 337 L698 325 L692 301 L685 285 L672 266 L662 256 L648 246 L629 236 L618 232 L594 219 L578 203 L574 195 L570 180 L569 169 L570 168 L571 153 L572 152 L573 153 L573 163 L579 184 L585 195 L589 199 L592 200 L593 203 L600 208 L609 212 L646 223 L666 232 L684 244 L697 257 L705 269 L710 280 L713 290 L714 302 L715 303 L715 317 L714 318 L714 325 L712 333 L706 345 L698 351 L683 357 L675 359 L669 359 L668 360 L656 360 L655 359 L645 358 L628 349 L615 336 L602 314 L592 281 L590 267 L588 262 L587 250 L586 249 L587 247 L592 250 L592 264 L593 265 L594 274 L598 290 L604 306 L612 320 L623 332 L639 342 L654 346 L673 346 L686 343 L690 341 L694 344 L694 341 L687 321 L675 296 L659 275 L648 264 L638 256 L627 249 L617 245 L592 232 L585 227 L575 217 L570 210 L563 195 L553 161 L554 169 L563 201 L569 213 L574 220 L589 233 L599 239 L627 252 L643 263 L641 264 L635 261 L605 252 L583 242 L570 231 L565 224 L560 214 L555 197 L552 177 L551 176 L551 171 L550 170 L547 137 L546 136 L546 127 L545 126 L545 114 L544 113 L543 60 L545 54 Z M546 49 L542 54 L541 62 L540 63 L541 110 L542 111 L542 123 L543 124 L543 134 L544 135 L547 167 L548 168 L548 174 L549 175 L550 186 L551 187 L554 204 L553 205 L544 197 L533 190 L528 195 L526 209 L525 210 L524 229 L523 230 L523 259 L524 260 L524 271 L525 272 L528 293 L533 307 L534 313 L538 322 L537 323 L529 316 L526 316 L523 318 L520 327 L519 346 L518 347 L518 380 L519 381 L519 393 L520 394 L521 408 L522 409 L522 414 L527 435 L533 452 L536 457 L535 459 L530 454 L525 451 L520 456 L519 478 L518 479 L519 514 L520 515 L522 538 L527 557 L527 561 L538 594 L546 611 L557 629 L569 643 L578 652 L591 661 L596 668 L606 677 L621 686 L643 693 L654 694 L655 695 L664 695 L665 696 L859 697 L860 696 L867 696 L879 693 L892 687 L898 683 L911 670 L916 663 L919 662 L930 654 L942 642 L958 619 L967 600 L974 580 L980 556 L983 535 L984 534 L985 521 L986 520 L987 502 L988 501 L988 480 L989 479 L989 469 L988 468 L987 458 L985 456 L981 456 L969 467 L968 466 L973 456 L977 444 L980 431 L980 426 L981 425 L982 405 L983 404 L983 359 L982 358 L981 338 L979 330 L975 329 L970 332 L965 337 L964 336 L971 316 L974 298 L975 297 L975 290 L976 289 L976 249 L975 248 L974 232 L973 231 L972 220 L967 199 L965 196 L961 195 L961 189 L963 183 L965 165 L966 164 L967 148 L968 147 L969 119 L970 118 L970 76 L969 75 L968 63 L965 57 L961 54 L954 55 L948 60 L930 82 L919 93 L914 93 L907 95 L905 97 L893 102 L879 111 L860 92 L837 76 L819 67 L804 62 L787 58 L781 58 L780 57 L740 57 L739 58 L732 58 L731 59 L716 61 L696 67 L665 82 L648 94 L631 109 L622 103 L614 100 L605 92 L600 90 L596 90 L580 72 L571 60 L562 51 L557 48 L548 48 Z" fill="#eef3f4" fill-rule="evenodd"/>
</svg>
