<svg xmlns="http://www.w3.org/2000/svg" width="1086" height="1448" viewBox="0 0 1086 1448">
  <title>0180</title>
  <path d="M645 1219 L646 1218 L647 1219 L646 1220 Z M448 1215 L449 1214 L450 1215 L449 1216 Z M449 1214 L450 1213 L451 1214 L450 1215 Z M456 1210 L457 1209 L458 1210 L457 1211 Z M409 1205 L410 1204 L412 1205 L411 1206 Z M413 1204 L414 1203 L416 1204 L415 1205 Z M416 1203 L417 1202 L419 1203 L418 1204 Z M418 1202 L419 1201 L421 1202 L420 1203 Z M387 1199 L392 1202 L399 1202 L388 1198 Z M712 1196 L713 1195 L714 1196 L713 1197 Z M365 1195 L366 1194 L367 1195 L366 1196 Z M364 1194 L365 1193 L366 1194 L365 1195 Z M598 1193 L598 1194 L600 1194 L600 1193 Z M483 1193 L484 1192 L488 1192 L493 1194 L487 1196 Z M662 1190 L663 1189 L664 1190 L663 1191 Z M661 1189 L662 1188 L663 1189 L662 1190 Z M660 1188 L661 1187 L662 1188 L661 1189 Z M710 1180 L708 1184 L710 1182 Z M650 1180 L651 1179 L652 1180 L651 1181 Z M577 1194 L574 1195 L564 1194 L555 1186 L556 1185 L563 1185 L566 1184 L566 1183 L558 1183 L556 1184 L552 1182 L556 1181 L554 1180 L546 1184 L540 1184 L538 1182 L532 1185 L527 1191 L520 1195 L514 1195 L508 1193 L508 1194 L512 1196 L521 1196 L524 1195 L525 1193 L527 1193 L532 1188 L535 1187 L552 1187 L558 1190 L565 1196 L576 1196 Z M375 1178 L375 1181 L378 1187 L385 1193 L394 1197 L393 1195 L384 1190 L380 1186 L376 1180 L376 1178 Z M649 1177 L650 1176 L651 1178 L650 1179 Z M397 1177 L400 1180 L404 1181 Z M492 1176 L488 1179 L492 1181 L492 1184 L493 1181 L493 1177 Z M638 1170 L639 1169 L640 1171 L639 1172 Z M497 1193 L505 1181 L512 1174 L519 1169 L532 1164 L554 1163 L568 1167 L579 1174 L586 1181 L594 1196 L591 1197 L588 1194 L585 1187 L584 1187 L584 1189 L586 1194 L580 1199 L577 1200 L564 1200 L554 1193 L548 1191 L537 1192 L533 1194 L529 1198 L524 1200 L513 1200 L508 1198 L504 1194 L505 1188 L503 1188 L501 1194 Z M450 1163 L453 1168 L453 1177 L451 1182 L447 1178 L449 1174 L449 1164 Z M756 1161 L757 1162 L756 1167 L753 1170 L750 1171 L749 1169 L751 1165 Z M754 1159 L755 1158 L756 1159 L755 1160 Z M579 1159 L583 1163 L583 1165 L588 1168 L591 1166 L594 1168 L598 1168 L599 1169 L607 1169 L613 1167 L613 1166 L598 1167 L595 1166 L594 1163 L587 1163 L586 1164 L584 1162 L586 1161 L583 1161 L580 1158 Z M315 1157 L318 1156 L325 1159 L338 1159 L339 1158 L343 1159 L339 1161 L336 1167 L320 1162 Z M734 1156 L737 1161 L740 1173 L741 1172 L741 1168 L738 1159 Z M700 1154 L701 1155 L700 1159 L699 1158 Z M390 1154 L391 1155 L390 1158 L389 1157 Z M772 1153 L769 1157 L760 1159 L756 1156 L757 1155 L763 1155 L771 1152 Z M698 1153 L699 1152 L700 1154 L699 1155 Z M668 1153 L664 1159 L663 1168 L665 1174 L670 1180 L670 1182 L677 1186 L686 1186 L692 1183 L696 1178 L691 1182 L686 1184 L676 1184 L675 1181 L668 1176 L665 1170 L665 1161 L669 1154 Z M390 1153 L391 1152 L392 1153 L391 1154 Z M391 1151 L392 1150 L393 1151 L392 1152 Z M335 1150 L332 1150 L326 1152 L326 1153 L333 1152 Z M692 1147 L693 1146 L694 1147 L693 1148 Z M395 1147 L396 1146 L397 1148 L396 1149 Z M772 1146 L773 1145 L774 1146 L773 1147 Z M691 1146 L692 1145 L693 1146 L692 1147 Z M773 1145 L774 1144 L775 1145 L774 1146 Z M689 1143 L690 1142 L691 1143 L690 1144 Z M773 1141 L774 1140 L776 1141 L775 1142 Z M579 1141 L573 1138 L565 1137 L564 1136 L558 1136 L557 1135 L527 1136 L513 1140 L501 1146 L498 1149 L495 1150 L492 1154 L511 1143 L532 1137 L560 1137 L575 1141 Z M350 1137 L348 1135 L346 1135 L335 1141 L333 1141 L331 1143 L332 1144 L339 1141 L343 1141 L346 1139 L349 1139 Z M754 1134 L760 1142 L762 1142 L762 1140 Z M588 1132 L588 1134 L596 1133 L596 1132 Z M512 1131 L503 1134 L502 1133 L483 1133 L491 1134 L492 1135 L498 1135 L499 1136 L492 1141 L480 1153 L478 1153 L476 1155 L473 1163 L496 1140 L512 1132 Z M477 1131 L477 1132 L479 1132 L479 1131 Z M401 1132 L405 1130 L407 1132 L410 1132 L420 1129 L427 1129 L435 1131 L447 1138 L460 1153 L464 1170 L466 1172 L465 1188 L459 1203 L455 1210 L451 1214 L450 1212 L454 1199 L454 1187 L453 1186 L454 1168 L451 1162 L448 1160 L448 1158 L445 1153 L440 1148 L440 1150 L445 1156 L447 1161 L447 1174 L446 1177 L442 1180 L441 1179 L441 1175 L440 1176 L439 1182 L436 1189 L424 1201 L422 1202 L420 1201 L426 1196 L434 1180 L436 1174 L436 1160 L434 1154 L430 1148 L422 1142 L417 1141 L414 1139 L409 1139 L401 1142 L397 1147 L393 1146 L388 1153 L387 1164 L388 1166 L388 1162 L389 1161 L390 1162 L391 1170 L395 1174 L395 1172 L392 1167 L392 1156 L394 1149 L395 1148 L396 1149 L396 1152 L404 1143 L410 1141 L420 1143 L425 1146 L431 1152 L434 1159 L435 1171 L434 1172 L433 1169 L429 1166 L428 1159 L424 1155 L427 1162 L427 1168 L426 1169 L426 1173 L419 1180 L412 1184 L401 1184 L394 1179 L393 1180 L397 1184 L403 1186 L414 1185 L419 1182 L425 1176 L428 1171 L428 1168 L430 1167 L431 1171 L427 1180 L421 1186 L412 1190 L400 1189 L394 1186 L388 1180 L384 1171 L384 1157 L385 1153 L392 1140 Z M406 1130 L407 1129 L409 1130 L408 1131 Z M510 1135 L510 1136 L514 1136 L517 1134 L529 1131 L534 1131 L535 1130 L555 1130 L556 1131 L567 1132 L578 1136 L581 1136 L591 1141 L603 1150 L607 1156 L609 1157 L608 1154 L603 1148 L593 1140 L588 1137 L567 1130 L561 1130 L554 1128 L537 1128 L536 1129 L524 1130 Z M408 1129 L411 1127 L415 1128 L411 1130 Z M414 1127 L415 1126 L432 1126 L443 1130 L449 1134 L457 1142 L464 1154 L464 1157 L463 1158 L460 1151 L455 1146 L453 1142 L447 1136 L441 1132 L430 1128 L415 1128 Z M683 1128 L691 1133 L700 1142 L703 1147 L706 1156 L706 1169 L704 1175 L701 1180 L696 1185 L691 1188 L683 1190 L675 1189 L666 1184 L662 1179 L659 1169 L659 1161 L656 1172 L659 1184 L661 1186 L659 1188 L659 1190 L668 1197 L670 1197 L675 1200 L679 1200 L684 1202 L700 1201 L711 1196 L713 1197 L709 1201 L696 1206 L683 1206 L682 1205 L677 1205 L667 1201 L662 1198 L656 1192 L651 1183 L652 1181 L655 1184 L651 1174 L650 1165 L651 1164 L652 1156 L656 1149 L660 1145 L667 1141 L680 1140 L689 1145 L693 1149 L694 1148 L698 1157 L698 1165 L695 1173 L698 1170 L700 1164 L700 1159 L701 1158 L702 1159 L702 1155 L700 1151 L691 1142 L689 1143 L680 1138 L670 1138 L661 1142 L653 1150 L649 1160 L649 1173 L650 1176 L649 1177 L648 1176 L647 1180 L643 1176 L642 1166 L644 1158 L648 1151 L646 1152 L642 1162 L637 1169 L636 1174 L637 1175 L637 1173 L638 1172 L639 1173 L640 1183 L638 1185 L636 1192 L636 1203 L639 1211 L645 1217 L643 1218 L639 1216 L634 1210 L626 1193 L626 1167 L628 1162 L628 1160 L626 1159 L627 1153 L635 1140 L640 1135 L648 1130 L650 1131 L639 1140 L636 1144 L636 1146 L647 1135 L658 1130 L672 1129 L673 1130 L682 1131 L679 1129 L671 1128 L670 1127 L659 1128 L652 1131 L649 1130 L654 1127 L662 1126 L663 1125 L671 1125 Z M383 1120 L384 1119 L385 1120 L384 1121 Z M311 1116 L312 1117 L311 1120 L307 1123 L305 1119 L307 1117 Z M389 1113 L390 1115 L385 1120 L384 1118 Z M389 1113 L390 1112 L391 1113 L390 1114 Z M390 1112 L391 1111 L392 1112 L391 1113 Z M777 1111 L778 1110 L779 1111 L778 1112 Z M708 1111 L715 1121 L732 1137 L746 1144 L758 1147 L757 1145 L754 1145 L748 1142 L743 1141 L729 1133 L720 1124 L714 1116 Z M391 1111 L392 1110 L393 1111 L392 1112 Z M778 1110 L779 1109 L780 1110 L779 1111 Z M777 1109 L778 1113 L777 1116 L775 1117 L774 1114 L775 1110 Z M392 1110 L393 1109 L394 1110 L393 1111 Z M335 1109 L327 1124 L325 1123 L321 1125 L317 1129 L320 1129 L330 1123 L335 1113 Z M814 1107 L815 1106 L816 1107 L815 1108 Z M771 1107 L772 1106 L773 1108 L772 1109 Z M758 1107 L759 1114 L763 1122 L769 1128 L772 1129 L763 1119 L759 1107 Z M815 1106 L816 1105 L817 1106 L816 1107 Z M322 1104 L323 1105 L322 1108 L320 1110 L319 1109 L320 1111 L315 1117 L312 1113 Z M398 1103 L399 1105 L394 1110 L393 1108 Z M326 1104 L327 1103 L328 1104 L327 1105 Z M322 1104 L323 1103 L324 1104 L323 1105 Z M269 1104 L270 1103 L271 1105 L270 1106 Z M398 1103 L399 1102 L400 1103 L399 1104 Z M399 1102 L400 1101 L401 1102 L400 1103 Z M268 1102 L269 1101 L270 1103 L269 1104 Z M284 1101 L285 1100 L286 1101 L285 1102 Z M285 1100 L286 1099 L287 1100 L286 1101 Z M286 1099 L287 1098 L288 1099 L287 1100 Z M267 1099 L268 1098 L269 1100 L268 1101 Z M287 1097 L288 1096 L289 1098 L288 1099 Z M269 1097 L270 1096 L271 1097 L270 1098 Z M370 1096 L370 1099 L371 1099 Z M749 1095 L750 1097 L757 1101 L755 1098 Z M288 1095 L289 1094 L290 1096 L289 1097 Z M344 1087 L345 1089 L341 1093 L337 1095 L328 1104 L327 1101 L329 1097 L333 1093 Z M745 1086 L746 1085 L751 1085 L759 1089 L774 1104 L774 1106 L771 1107 L762 1097 Z M585 1085 L611 1088 L609 1086 L603 1086 L602 1085 Z M267 1082 L270 1087 L268 1089 L270 1088 L278 1096 L284 1098 L280 1102 L275 1101 L268 1091 L270 1096 L268 1098 L266 1096 L266 1083 Z M682 1082 L683 1081 L684 1082 L683 1083 Z M360 1084 L359 1085 L357 1084 L345 1084 L335 1088 L322 1099 L307 1114 L295 1120 L284 1120 L278 1117 L272 1111 L270 1107 L271 1105 L281 1116 L284 1117 L292 1116 L303 1109 L325 1085 L336 1079 L348 1078 L352 1079 Z M402 1081 L403 1082 L410 1078 L413 1078 L415 1076 L406 1076 L406 1078 Z M337 1175 L339 1167 L342 1165 L347 1156 L353 1153 L368 1142 L380 1130 L402 1104 L418 1091 L428 1087 L452 1087 L467 1083 L472 1083 L476 1081 L497 1077 L498 1076 L510 1075 L511 1074 L525 1074 L526 1073 L552 1073 L553 1074 L573 1075 L574 1076 L579 1076 L580 1077 L585 1077 L600 1081 L604 1081 L620 1086 L642 1090 L643 1091 L661 1091 L662 1090 L666 1090 L677 1095 L687 1102 L698 1113 L705 1122 L730 1147 L731 1146 L741 1152 L753 1155 L755 1158 L747 1167 L744 1162 L740 1159 L745 1167 L745 1180 L743 1185 L738 1190 L736 1191 L730 1191 L729 1190 L732 1189 L737 1184 L736 1183 L730 1188 L723 1187 L722 1190 L725 1190 L727 1192 L727 1194 L724 1197 L717 1199 L715 1198 L719 1193 L719 1192 L716 1191 L707 1197 L697 1200 L692 1200 L691 1201 L690 1200 L681 1200 L680 1199 L679 1200 L666 1194 L663 1191 L665 1190 L663 1186 L664 1185 L668 1189 L678 1193 L687 1192 L698 1187 L703 1182 L708 1172 L709 1158 L707 1151 L702 1141 L697 1135 L690 1129 L682 1125 L675 1123 L665 1122 L664 1123 L658 1123 L645 1128 L636 1135 L629 1144 L625 1152 L621 1167 L621 1182 L625 1197 L632 1210 L636 1215 L641 1219 L645 1219 L646 1220 L644 1222 L639 1222 L633 1219 L624 1210 L614 1194 L610 1190 L607 1194 L610 1193 L612 1194 L613 1197 L611 1199 L603 1196 L602 1197 L598 1197 L594 1193 L594 1191 L589 1182 L580 1172 L565 1163 L552 1160 L533 1161 L526 1163 L516 1168 L502 1181 L496 1191 L493 1194 L489 1190 L480 1190 L478 1191 L477 1190 L480 1188 L479 1187 L474 1191 L475 1193 L464 1212 L454 1221 L446 1222 L444 1219 L447 1216 L448 1219 L450 1219 L459 1211 L457 1209 L461 1204 L461 1202 L465 1196 L468 1185 L469 1166 L468 1165 L467 1156 L461 1143 L452 1133 L439 1125 L440 1124 L448 1124 L457 1128 L462 1132 L463 1131 L460 1129 L461 1128 L465 1130 L474 1131 L461 1126 L456 1126 L447 1123 L438 1123 L439 1124 L438 1125 L431 1123 L417 1123 L409 1125 L398 1131 L388 1141 L384 1148 L381 1159 L381 1168 L384 1179 L392 1188 L397 1191 L404 1193 L411 1193 L418 1190 L423 1191 L427 1187 L428 1188 L424 1193 L425 1195 L423 1197 L416 1201 L408 1203 L407 1206 L397 1207 L396 1206 L388 1205 L380 1198 L377 1192 L377 1194 L375 1196 L375 1197 L378 1198 L377 1200 L371 1200 L370 1201 L369 1200 L363 1200 L356 1194 L361 1190 L365 1193 L364 1194 L362 1193 L363 1196 L365 1197 L369 1196 L362 1187 L360 1189 L355 1189 L351 1187 L346 1182 L345 1174 L344 1173 L343 1174 L344 1182 L347 1186 L355 1190 L354 1191 L345 1190 L341 1186 Z M435 1072 L436 1071 L440 1071 L441 1072 L440 1073 L436 1073 Z M417 1070 L418 1069 L420 1070 L419 1071 Z M328 1070 L321 1074 L318 1080 Z M736 1070 L745 1068 L746 1066 L749 1065 L752 1066 L756 1066 L756 1065 L745 1064 L739 1067 Z M330 1069 L341 1065 L360 1066 L368 1068 L372 1067 L368 1067 L357 1064 L341 1064 L340 1065 L336 1065 Z M793 1063 L793 1074 L794 1076 L796 1076 L794 1073 L794 1065 Z M299 1060 L298 1060 L295 1071 L295 1076 L294 1077 L294 1082 L295 1083 Z M338 1058 L339 1060 L348 1060 L351 1062 L350 1060 L345 1058 Z M759 1056 L759 1057 L763 1058 L774 1064 L784 1075 L781 1069 L775 1063 L769 1059 Z M731 1054 L729 1054 L708 1071 L717 1066 L730 1056 Z M308 1049 L309 1048 L310 1049 L309 1050 Z M793 1048 L791 1048 L791 1051 L793 1050 Z M306 1048 L307 1047 L308 1048 L307 1049 Z M304 1047 L305 1046 L306 1047 L305 1048 Z M303 1046 L304 1045 L305 1046 L304 1047 Z M294 1043 L295 1042 L296 1043 L295 1044 Z M780 1042 L776 1051 L779 1047 Z M289 1038 L290 1037 L295 1042 L293 1043 Z M288 1037 L289 1036 L290 1037 L289 1038 Z M287 1036 L288 1035 L289 1036 L288 1037 Z M328 1025 L329 1024 L330 1026 L329 1027 Z M669 1011 L668 1011 L668 1040 L667 1041 L665 1061 L668 1052 L669 1036 L670 1035 L670 1015 Z M278 1000 L279 1017 L282 1026 L285 1031 L284 1033 L287 1039 L292 1044 L300 1046 L304 1050 L312 1053 L319 1061 L317 1055 L311 1047 L305 1043 L296 1040 L287 1031 L281 1018 L280 1005 L279 1004 L279 1000 Z M806 996 L805 1012 L801 1026 L792 1042 L792 1045 L798 1036 L805 1019 L806 1010 L807 1009 L807 997 Z M649 971 L648 972 L648 977 Z M422 970 L420 974 L417 987 L417 992 L415 998 L415 1011 L414 1012 L414 1036 L416 1038 L417 1054 L418 1055 L419 1063 L420 1061 L419 1060 L419 1051 L418 1050 L417 1032 L416 1031 L416 1003 L417 1002 L417 995 L418 994 L420 980 L422 975 Z M660 968 L662 974 L662 979 L665 990 L667 1005 L669 1005 L664 977 L662 970 Z M722 962 L723 961 L726 962 L725 963 Z M386 962 L382 964 L368 964 L367 963 L368 962 L381 962 L382 961 Z M363 962 L364 961 L366 962 L365 963 Z M725 961 L726 960 L729 961 L728 962 Z M701 962 L705 960 L708 962 L722 962 L723 963 L722 964 L714 964 L712 965 L711 964 L705 964 Z M650 960 L651 961 L651 977 L650 978 L649 1003 L648 1004 L648 1009 L647 1010 L645 1024 L639 1046 L638 1054 L635 1061 L635 1064 L633 1066 L623 1056 L621 1050 L621 1044 L627 1028 L627 1025 L634 1004 L636 1001 Z M385 961 L386 960 L389 961 L388 962 Z M360 961 L361 960 L362 961 L361 962 Z M728 960 L729 959 L731 960 L730 961 Z M357 960 L358 959 L359 960 L358 961 Z M731 959 L732 958 L733 959 L732 960 Z M355 959 L356 958 L357 959 L356 960 Z M732 958 L733 957 L735 958 L734 959 Z M353 958 L354 957 L355 958 L354 959 Z M735 957 L736 956 L737 957 L736 958 Z M351 957 L352 956 L353 957 L352 958 Z M349 956 L350 955 L352 956 L351 957 Z M738 955 L739 954 L740 955 L739 956 Z M710 955 L711 954 L713 955 L712 956 Z M374 955 L375 954 L376 955 L375 956 Z M348 955 L349 954 L350 955 L349 956 Z M739 954 L740 953 L741 954 L740 955 Z M713 954 L714 953 L715 954 L714 955 Z M653 953 L655 953 L659 957 L667 976 L673 997 L674 1007 L675 1008 L675 1017 L676 1018 L676 1056 L674 1062 L666 1069 L656 1072 L648 1072 L636 1068 L635 1066 L639 1056 L649 1015 L649 1009 L651 1001 L651 990 L652 989 L652 971 L653 970 L651 956 Z M427 953 L430 954 L431 970 L432 971 L432 978 L433 979 L433 988 L434 989 L440 1023 L442 1028 L442 1032 L447 1052 L451 1062 L452 1061 L445 1038 L445 1034 L443 1029 L443 1025 L441 1020 L440 1010 L438 1004 L438 999 L435 991 L433 964 L432 963 L433 960 L443 985 L463 1045 L460 1055 L452 1064 L444 1068 L436 1069 L435 1070 L427 1070 L416 1066 L408 1057 L407 1045 L406 1044 L407 1016 L408 1015 L408 1008 L409 1007 L411 992 L422 959 Z M371 954 L372 953 L373 954 L372 955 Z M346 954 L347 953 L348 954 L347 955 Z M741 953 L742 952 L743 953 L742 954 Z M345 953 L346 952 L347 953 L346 954 Z M742 952 L743 951 L744 952 L743 953 Z M344 952 L345 951 L346 952 L345 953 Z M743 951 L744 950 L745 951 L744 952 Z M343 951 L344 950 L345 951 L344 952 Z M744 950 L745 949 L746 950 L745 951 Z M745 949 L746 948 L747 949 L746 950 Z M341 949 L342 948 L343 949 L342 950 Z M746 948 L747 947 L748 948 L747 949 Z M282 948 L281 949 L281 960 L280 961 L279 993 L280 993 L280 989 L281 988 Z M747 947 L748 946 L749 947 L748 948 Z M748 946 L749 945 L750 946 L749 947 Z M306 937 L306 942 L309 949 L312 962 L312 971 L310 976 L310 981 L311 977 L313 975 L322 1006 L329 1022 L329 1024 L327 1026 L331 1033 L339 1043 L354 1054 L374 1064 L381 1069 L386 1069 L385 1067 L378 1065 L374 1062 L368 1060 L355 1053 L342 1044 L334 1035 L331 1030 L330 1021 L325 1011 L324 1005 L322 1002 L322 999 L319 992 L314 972 L313 959 L309 947 L307 937 Z M353 963 L355 962 L358 964 L368 967 L381 967 L385 966 L396 961 L398 959 L411 954 L435 936 L447 931 L462 933 L471 937 L500 946 L509 947 L514 949 L537 950 L538 951 L573 948 L594 943 L604 939 L608 939 L613 936 L630 931 L638 931 L646 934 L666 950 L683 959 L693 961 L697 964 L706 967 L721 967 L732 963 L733 964 L733 969 L729 985 L726 991 L726 994 L716 1014 L701 1030 L692 1035 L681 1039 L679 1038 L679 1015 L678 1014 L678 1006 L677 1005 L674 988 L666 965 L660 953 L656 950 L652 950 L649 953 L621 1034 L614 1032 L608 1032 L607 1031 L587 1029 L579 1027 L549 1026 L548 1025 L501 1026 L500 1027 L482 1028 L481 1029 L476 1029 L475 1030 L470 1030 L462 1032 L436 957 L431 950 L426 950 L422 953 L418 961 L410 984 L408 996 L406 1001 L406 1007 L405 1008 L403 1037 L401 1038 L384 1029 L371 1015 L360 993 L355 976 Z M733 928 L734 927 L735 928 L734 929 Z M375 925 L376 926 L378 925 Z M376 956 L377 955 L388 955 L400 951 L414 942 L426 931 L438 924 L443 924 L444 923 L458 925 L474 932 L505 941 L517 942 L518 943 L529 943 L530 944 L550 944 L551 943 L561 943 L562 942 L575 941 L576 940 L585 939 L589 937 L593 937 L628 924 L640 923 L650 926 L657 931 L672 945 L687 953 L694 955 L709 955 L710 956 L705 958 L695 958 L694 957 L683 956 L670 949 L650 933 L638 928 L625 929 L583 943 L578 943 L566 946 L558 946 L557 947 L524 947 L523 946 L509 945 L504 943 L492 941 L462 930 L448 928 L440 930 L434 933 L416 947 L400 956 L396 956 L390 958 L381 958 Z M360 924 L366 925 L365 924 Z M424 919 L421 920 L418 926 Z M355 918 L356 917 L358 918 L357 919 Z M694 917 L697 920 L707 924 L711 924 L712 925 L722 925 L725 924 L712 924 L702 921 L698 918 Z M744 909 L727 917 L712 917 L711 916 L707 916 L707 917 L713 919 L730 918 L739 914 Z M802 889 L801 890 L801 906 L800 907 L800 936 L801 937 L803 985 L805 990 L805 973 L804 972 L804 957 L803 956 L803 943 L802 942 Z M497 888 L511 895 L524 898 L530 898 L531 899 L550 899 L551 898 L561 897 L578 889 L577 888 L565 894 L554 897 L528 897 L527 896 L517 895 L505 890 Z M704 879 L708 883 L720 887 L730 887 L735 885 L719 885 Z M638 876 L639 877 L638 880 L637 879 Z M734 929 L730 939 L724 946 L713 952 L709 953 L695 953 L685 950 L673 943 L659 930 L650 924 L644 922 L637 922 L636 921 L628 922 L616 927 L608 929 L605 931 L581 938 L562 940 L561 941 L550 941 L549 942 L526 942 L525 941 L510 940 L486 934 L458 923 L443 921 L433 924 L403 947 L395 951 L387 953 L377 953 L365 948 L358 941 L353 931 L354 928 L360 932 L359 934 L366 939 L368 939 L368 938 L364 937 L361 934 L362 933 L371 936 L380 936 L389 932 L392 932 L411 913 L415 907 L427 881 L431 876 L444 884 L457 879 L470 880 L475 882 L478 886 L481 886 L493 894 L512 903 L525 906 L546 907 L547 906 L560 905 L573 901 L583 896 L602 883 L613 879 L625 879 L635 884 L638 884 L652 875 L661 888 L672 909 L678 917 L689 928 L703 935 L707 935 L708 936 L716 936 L720 934 L722 935 L718 938 L711 939 L714 940 L722 938 L724 933 L733 928 Z M614 876 L615 875 L617 876 L616 877 Z M505 876 L507 879 L518 885 L534 889 L544 889 L545 888 L554 887 L562 884 L572 877 L571 876 L566 880 L555 885 L545 886 L544 887 L532 887 L519 884 Z M286 876 L285 878 L287 884 L287 890 L291 905 L291 911 L294 919 L293 907 L292 906 L292 902 L290 897 L290 892 Z M296 875 L296 888 L297 889 L297 902 L298 903 L298 927 L299 928 L299 941 L300 941 L300 914 L299 913 L300 912 L299 909 L299 905 L300 904 L299 903 L297 875 Z M616 875 L622 873 L628 873 L633 875 L635 877 L635 879 L633 880 L627 877 L622 877 Z M443 879 L443 876 L448 873 L457 873 L458 874 L462 874 L465 876 L464 877 L454 877 L446 881 Z M798 871 L797 871 L795 877 L793 889 L791 893 L790 901 L782 930 L782 934 L778 948 L778 953 L776 956 L774 966 L772 970 L771 979 L772 979 L773 973 L775 969 L776 957 L779 952 L781 941 L783 937 L784 929 L790 909 L790 905 L792 900 L792 896 L794 891 L794 887 Z M399 865 L395 868 L388 877 L391 876 L395 872 Z M439 866 L439 867 L444 865 L459 866 L485 879 L487 881 L489 881 L483 876 L479 875 L473 871 L458 864 L447 863 Z M642 864 L637 862 L629 862 L628 863 L624 862 L620 863 L602 871 L589 879 L589 880 L591 880 L598 875 L619 865 L627 863 L639 864 L640 865 L642 865 Z M663 852 L667 868 L679 895 L690 908 L695 912 L702 915 L701 913 L695 910 L684 899 L680 893 L671 873 L665 854 Z M424 841 L425 842 L425 847 L424 848 L425 862 L430 873 L424 881 L412 906 L405 916 L392 928 L381 933 L369 933 L363 931 L350 922 L344 915 L341 910 L342 909 L350 915 L353 916 L355 919 L359 921 L363 921 L360 921 L357 919 L358 918 L362 919 L377 918 L386 915 L394 910 L399 905 L405 897 L410 886 L415 870 L417 859 L422 844 Z M773 841 L770 852 L762 866 L750 878 L739 884 L742 884 L754 877 L762 869 L770 856 L773 847 Z M314 842 L317 853 L321 861 L326 868 L339 880 L349 885 L357 887 L372 886 L381 882 L383 880 L383 879 L370 885 L355 885 L344 881 L334 874 L325 864 L319 854 L315 841 Z M424 840 L425 839 L426 841 L425 842 Z M653 830 L654 829 L655 830 L654 831 Z M652 829 L653 828 L654 829 L653 830 Z M291 820 L292 821 L291 824 L290 823 Z M291 818 L292 817 L293 818 L292 819 Z M647 816 L659 825 L669 835 L677 846 L685 862 L688 864 L689 867 L698 876 L702 878 L687 863 L680 848 L672 836 L661 825 L652 818 Z M637 814 L638 813 L640 814 L639 815 Z M636 813 L637 812 L638 813 L637 814 Z M449 811 L450 810 L452 811 L451 812 Z M597 810 L598 809 L599 810 L598 811 Z M451 810 L452 809 L455 810 L454 811 Z M454 809 L455 808 L457 809 L456 810 Z M456 808 L457 807 L460 808 L459 809 Z M621 807 L622 806 L625 807 L624 808 Z M480 807 L481 806 L482 807 L481 808 Z M616 806 L617 805 L621 805 L622 806 L621 807 L617 807 Z M474 806 L475 805 L479 805 L480 806 L479 807 L475 807 Z M612 805 L613 804 L617 805 L616 806 Z M610 805 L609 807 L600 810 L598 809 L603 805 L607 804 Z M475 805 L463 808 L459 807 L463 805 L468 805 L469 804 L474 804 Z M755 795 L758 794 L762 797 L760 798 Z M753 794 L754 793 L756 794 L755 795 Z M750 793 L751 792 L754 793 L753 794 Z M746 792 L747 791 L750 792 L749 793 Z M352 792 L346 792 L330 797 L321 803 L316 810 L326 802 L341 795 L351 794 Z M372 785 L372 786 L376 788 L379 788 L379 787 Z M428 783 L421 786 L406 789 L406 790 L423 787 L427 785 Z M350 780 L351 779 L352 780 L351 781 Z M718 777 L719 776 L721 777 L720 778 Z M720 776 L721 775 L722 776 L721 777 Z M640 776 L642 779 L654 787 L661 790 L667 791 L665 789 L647 782 Z M722 775 L723 774 L724 775 L723 776 Z M426 775 L427 774 L428 775 L427 776 Z M723 774 L724 773 L726 774 L725 775 Z M428 774 L429 773 L430 774 L429 775 Z M299 774 L298 787 L294 804 L293 815 L289 819 L288 817 L289 819 L288 820 L289 821 L290 844 L291 847 L291 836 L292 835 L293 823 L294 822 L295 807 L296 806 L298 791 L299 790 L299 784 L300 783 L300 775 Z M725 773 L726 772 L727 773 L726 774 Z M650 772 L651 771 L652 772 L651 773 Z M567 772 L563 784 L563 804 L564 805 L564 811 L569 828 L570 828 L570 825 L567 818 L566 808 L565 807 L565 800 L564 799 L565 782 L569 772 Z M306 772 L305 773 L305 777 Z M649 771 L650 770 L651 771 L650 772 Z M648 770 L649 769 L650 770 L649 771 Z M647 769 L648 768 L649 769 L648 770 Z M694 768 L695 767 L699 767 L700 768 L699 769 L695 769 Z M688 768 L689 767 L691 768 L690 769 Z M646 768 L647 767 L648 768 L647 769 Z M446 768 L442 773 L444 772 Z M385 768 L386 767 L393 767 L394 768 L393 769 L386 769 Z M682 767 L683 766 L685 767 L684 768 Z M396 767 L397 766 L399 767 L398 768 Z M379 767 L380 766 L384 766 L385 767 L384 768 L380 768 Z M705 766 L706 765 L707 766 L706 767 Z M577 766 L575 766 L572 769 L571 775 L569 779 L568 794 L567 795 L568 800 L569 799 L569 788 L570 787 L571 777 L574 769 Z M504 766 L509 772 L513 784 L513 807 L512 808 L511 819 L508 828 L509 828 L513 817 L514 806 L515 805 L515 784 L510 770 L507 767 Z M377 766 L378 765 L380 766 L379 767 Z M707 765 L708 764 L709 765 L708 766 Z M374 765 L375 764 L378 765 L377 766 Z M372 764 L373 763 L375 764 L374 765 Z M711 763 L712 762 L713 763 L712 764 Z M704 763 L705 762 L706 763 L705 764 Z M712 762 L713 761 L715 762 L714 763 Z M706 762 L707 761 L708 762 L707 763 Z M708 761 L709 760 L710 761 L709 762 Z M374 761 L375 760 L376 761 L375 762 Z M709 760 L711 758 L713 759 L711 761 Z M640 759 L641 758 L642 759 L641 760 Z M337 758 L347 773 L346 775 L347 774 L351 779 L350 780 L347 779 L339 769 L336 762 Z M719 757 L720 758 L715 762 L714 761 Z M712 758 L713 757 L714 758 L713 759 Z M713 757 L714 756 L716 757 L715 758 Z M454 757 L452 759 L452 761 Z M335 757 L336 756 L337 758 L336 759 Z M715 756 L716 755 L717 756 L716 757 Z M716 755 L717 754 L718 755 L717 756 Z M717 754 L718 753 L719 754 L718 755 Z M252 753 L255 758 L256 770 L257 771 L258 793 L259 794 L259 809 L260 810 L260 831 L261 832 L262 899 L261 900 L261 916 L260 917 L260 925 L259 926 L258 925 L258 882 L257 881 L256 816 L255 815 L255 798 L254 797 L253 771 L252 770 L252 765 L250 762 L251 754 Z M363 751 L364 750 L365 751 L364 752 Z M721 749 L722 751 L719 754 L718 752 Z M362 750 L363 749 L364 750 L363 751 Z M721 749 L722 748 L723 749 L722 750 Z M361 749 L362 748 L363 749 L362 750 Z M722 747 L723 746 L724 748 L723 749 Z M360 747 L361 746 L362 748 L361 749 Z M728 745 L729 746 L728 749 L724 755 L720 758 L719 757 Z M723 745 L724 744 L725 746 L724 747 Z M359 745 L360 744 L361 746 L360 747 Z M496 759 L496 761 L517 750 L528 747 L536 747 L537 746 L554 747 L564 750 L574 755 L606 780 L622 788 L635 792 L641 792 L642 791 L627 788 L610 780 L597 771 L577 754 L565 748 L555 745 L549 745 L548 744 L526 745 L511 750 Z M358 744 L359 743 L360 744 L359 745 Z M831 743 L832 742 L833 744 L832 745 Z M724 743 L725 742 L726 744 L725 745 Z M626 743 L628 754 L635 768 L628 750 L627 743 Z M837 741 L839 747 L840 764 L838 771 L836 800 L835 801 L835 809 L834 810 L832 851 L831 852 L831 870 L830 871 L829 912 L828 913 L828 922 L827 923 L826 922 L826 913 L825 912 L826 855 L827 854 L827 843 L828 842 L828 829 L829 828 L829 816 L830 815 L830 806 L831 805 L831 794 L832 793 L834 769 L835 768 L837 754 L834 760 L832 779 L831 780 L831 787 L830 788 L830 796 L829 797 L829 809 L828 810 L828 817 L827 818 L827 830 L826 831 L826 843 L825 844 L824 881 L823 882 L824 916 L825 917 L825 924 L828 931 L827 932 L813 933 L812 932 L812 864 L813 863 L814 831 L815 830 L815 822 L816 821 L818 794 L819 793 L819 787 L820 786 L824 754 L832 750 Z M730 740 L731 743 L729 746 L728 743 Z M725 741 L726 740 L727 742 L726 743 Z M358 740 L359 741 L358 744 L357 743 Z M459 740 L458 740 L458 749 Z M277 740 L279 748 L279 755 L280 756 L281 773 L282 774 L283 800 L284 801 L284 807 L285 807 L283 767 L282 766 L279 741 Z M254 739 L257 747 L261 751 L265 753 L268 786 L269 787 L269 795 L270 796 L272 835 L273 836 L273 852 L274 853 L274 932 L273 933 L266 933 L265 932 L261 932 L260 933 L259 932 L262 920 L262 910 L263 909 L263 839 L262 838 L262 819 L261 818 L261 798 L260 797 L259 774 L258 773 L258 766 L257 765 L256 756 L252 749 L254 745 L253 744 L253 740 Z M726 739 L727 738 L728 740 L727 741 Z M356 739 L357 738 L358 740 L357 741 Z M353 738 L359 749 L373 763 L372 764 L363 759 L358 754 L352 743 L352 739 Z M258 738 L259 739 L258 743 L257 742 Z M731 737 L732 738 L731 741 L730 740 Z M727 736 L728 735 L729 737 L728 738 Z M356 734 L357 735 L356 738 L355 737 Z M732 733 L733 734 L732 738 L731 737 Z M729 731 L730 732 L729 735 L728 734 Z M355 730 L356 731 L355 735 L354 734 Z M841 727 L843 732 L844 744 L845 745 L845 748 L842 751 L840 748 L840 743 L839 742 L839 730 Z M351 727 L353 734 L353 738 L352 739 L350 736 L350 728 Z M250 725 L252 731 L251 750 L250 751 L247 749 L247 733 L248 732 L248 728 Z M496 725 L493 725 L488 730 L486 735 L489 733 L490 730 L493 727 L495 728 L494 729 L495 728 L494 727 Z M594 724 L599 728 L603 734 L603 729 L599 725 Z M501 728 L504 729 L521 725 L546 724 L548 726 L559 725 L560 726 L566 726 L579 729 L573 726 L570 726 L566 724 L559 724 L558 723 L531 723 L530 724 L526 723 L525 724 L519 724 L518 725 L502 727 Z M730 718 L731 719 L731 730 L730 731 L729 730 L729 719 Z M354 716 L355 717 L355 730 L354 731 L353 730 L353 717 Z M351 715 L352 716 L351 719 L350 718 Z M247 713 L249 718 L249 724 L247 727 L247 731 L246 732 L243 725 L243 718 L244 715 Z M355 711 L356 712 L355 716 L354 715 Z M351 712 L352 711 L353 713 L352 714 Z M732 708 L734 712 L734 718 L735 719 L735 727 L733 734 L732 733 L733 720 L731 712 Z M485 709 L487 711 L494 713 L503 713 L505 711 L507 711 L507 710 L492 711 L488 709 Z M356 708 L357 709 L356 712 L355 711 Z M246 708 L247 709 L246 712 L245 711 Z M601 708 L598 708 L593 711 L581 713 L581 714 L594 712 L600 710 Z M558 708 L559 710 L564 711 L564 710 Z M731 705 L732 706 L731 709 L730 708 Z M580 707 L591 707 L593 706 L580 706 Z M357 705 L358 706 L357 709 L356 708 Z M847 703 L848 704 L847 707 L848 723 L846 730 L844 731 L841 726 L841 722 L844 714 L845 706 Z M357 704 L358 703 L359 705 L358 706 Z M532 704 L532 705 L549 705 L548 703 Z M729 701 L731 703 L730 706 L728 703 Z M358 702 L359 701 L360 703 L359 704 Z M522 701 L524 709 L526 707 L530 706 L530 705 L526 704 Z M355 701 L356 700 L357 701 L356 702 Z M244 700 L246 704 L246 708 L245 709 L243 704 Z M815 700 L813 701 L811 705 L810 703 L808 703 L797 724 L790 742 L788 755 L787 756 L787 762 L786 763 L786 785 L787 786 L789 799 L791 803 L794 821 L796 824 L797 839 L798 837 L799 807 L801 805 L801 790 L802 789 L804 759 L805 758 L806 747 L809 735 L812 728 L812 724 L808 733 L804 750 L803 761 L802 762 L802 772 L801 773 L800 788 L798 796 L798 810 L797 811 L797 820 L796 821 L787 783 L788 760 L789 759 L791 745 L796 730 L810 704 L811 707 L808 713 L810 712 Z M727 700 L728 699 L729 701 L728 702 Z M359 700 L360 699 L361 701 L360 702 Z M360 699 L361 698 L362 699 L361 700 Z M356 699 L357 698 L358 699 L357 700 Z M726 698 L727 697 L728 699 L727 700 Z M625 698 L626 697 L627 698 L626 699 Z M301 829 L303 823 L311 809 L321 799 L335 792 L344 791 L345 790 L363 790 L364 791 L375 792 L388 796 L418 797 L419 796 L431 795 L437 793 L443 793 L466 785 L485 771 L492 763 L483 769 L472 779 L460 786 L457 786 L442 791 L437 791 L436 792 L432 791 L442 785 L454 773 L457 769 L465 751 L466 743 L467 742 L467 727 L466 726 L466 721 L463 709 L458 699 L459 697 L478 712 L488 717 L501 720 L510 720 L518 718 L527 714 L538 713 L539 712 L552 713 L574 720 L587 720 L588 719 L592 719 L605 713 L625 698 L626 700 L621 711 L619 719 L619 724 L618 725 L619 748 L621 756 L626 767 L631 775 L639 784 L647 789 L648 791 L653 793 L655 796 L659 796 L660 797 L669 797 L670 798 L691 797 L692 796 L702 795 L705 793 L717 790 L730 790 L731 791 L730 792 L737 791 L751 795 L763 801 L761 798 L763 797 L773 805 L778 811 L783 820 L787 834 L787 854 L781 880 L773 904 L766 919 L766 921 L756 938 L733 956 L722 960 L714 960 L712 961 L711 960 L713 958 L721 954 L731 943 L736 933 L738 924 L742 921 L751 910 L762 893 L764 888 L762 888 L757 898 L746 913 L737 922 L729 928 L717 933 L707 933 L695 928 L688 923 L681 916 L669 898 L662 884 L653 873 L653 871 L658 862 L658 858 L659 857 L659 846 L656 835 L654 832 L655 830 L659 835 L665 847 L666 852 L668 852 L666 845 L657 829 L652 824 L650 823 L649 824 L639 815 L640 814 L645 815 L641 812 L631 808 L627 809 L626 806 L619 803 L613 804 L611 802 L604 802 L598 805 L594 810 L591 818 L591 822 L592 822 L593 817 L597 813 L605 810 L617 809 L625 811 L634 815 L641 820 L650 830 L655 841 L656 858 L654 864 L648 874 L641 879 L638 874 L636 874 L631 871 L618 871 L607 875 L582 893 L564 901 L556 902 L555 903 L547 903 L546 904 L535 904 L534 903 L520 902 L499 894 L472 875 L460 871 L448 871 L442 873 L439 878 L432 871 L427 859 L427 846 L432 832 L441 821 L456 812 L465 811 L467 809 L479 809 L485 812 L487 815 L488 820 L489 819 L488 812 L483 805 L476 802 L464 803 L455 806 L447 811 L444 811 L435 816 L433 819 L428 821 L413 837 L405 852 L402 861 L404 859 L405 855 L407 853 L412 842 L420 831 L434 818 L436 818 L447 811 L450 812 L443 816 L436 822 L431 828 L427 836 L423 839 L415 859 L414 866 L407 888 L402 898 L391 910 L386 913 L374 917 L361 917 L354 915 L344 909 L336 902 L328 887 L327 887 L327 889 L338 909 L349 924 L351 933 L357 945 L365 954 L371 958 L378 960 L377 961 L373 961 L372 960 L361 959 L351 954 L344 948 L341 949 L335 943 L327 931 L318 912 L319 906 L315 905 L314 893 L311 892 L303 867 L300 855 L300 849 L299 848 L299 840 L300 839 Z M361 698 L362 697 L363 698 L362 699 Z M725 697 L726 696 L727 697 L726 698 Z M457 697 L458 696 L459 697 L458 698 Z M357 697 L358 696 L359 698 L358 699 Z M277 697 L277 700 L285 714 L288 728 L295 746 L296 754 L297 755 L298 770 L299 771 L299 758 L298 757 L298 752 L296 744 L291 733 L286 712 Z M724 696 L725 695 L726 696 L725 697 Z M362 696 L363 695 L364 696 L363 697 Z M358 696 L359 695 L360 696 L359 697 Z M359 695 L360 694 L361 695 L360 696 Z M360 694 L361 693 L362 694 L361 695 Z M341 694 L342 693 L343 694 L342 695 Z M722 693 L723 692 L725 695 L724 696 Z M343 690 L344 689 L345 690 L344 691 Z M570 690 L570 688 L572 687 L573 689 L571 691 Z M366 688 L367 687 L368 688 L367 689 Z M344 688 L345 687 L346 688 L345 689 Z M463 687 L464 686 L465 687 L464 688 Z M558 686 L559 685 L560 686 L559 687 Z M462 686 L463 685 L464 686 L463 687 Z M369 686 L370 685 L371 686 L370 687 Z M345 686 L346 685 L347 686 L346 687 Z M687 684 L700 685 L711 690 L720 699 L724 707 L727 720 L726 731 L722 742 L718 748 L707 758 L695 763 L681 763 L677 762 L666 756 L658 747 L653 734 L653 718 L656 708 L660 701 L671 690 L679 686 Z M557 685 L558 684 L559 685 L558 686 Z M391 684 L397 684 L398 685 L406 686 L415 691 L426 703 L431 715 L431 721 L432 722 L432 728 L431 729 L430 737 L425 748 L414 758 L401 763 L389 763 L375 757 L363 744 L358 729 L359 712 L366 698 L376 689 L382 686 L390 685 Z M371 685 L372 684 L373 685 L372 686 Z M346 685 L347 684 L348 685 L347 686 Z M461 684 L462 683 L463 684 L462 685 Z M570 683 L571 682 L572 684 L571 685 Z M347 683 L348 682 L349 683 L348 684 Z M460 682 L461 681 L462 682 L461 683 Z M348 682 L349 681 L350 682 L349 683 Z M459 681 L460 680 L461 681 L460 682 Z M349 681 L350 680 L351 681 L350 682 Z M506 680 L507 679 L508 680 L507 681 Z M505 679 L506 678 L507 679 L506 680 Z M688 678 L680 680 L670 685 L657 697 L651 708 L648 717 L647 730 L651 746 L662 762 L669 767 L682 772 L697 772 L698 771 L706 770 L716 765 L729 752 L733 744 L736 734 L736 728 L737 727 L736 710 L737 708 L736 704 L731 695 L719 684 L707 679 Z M378 679 L362 687 L354 696 L350 704 L348 712 L347 731 L351 747 L361 761 L375 769 L378 769 L382 771 L396 771 L404 769 L415 764 L421 760 L428 753 L436 738 L437 727 L438 726 L437 717 L434 708 L429 699 L421 690 L413 684 L395 678 Z M350 680 L352 677 L354 678 L351 681 Z M549 677 L551 679 L553 679 L551 677 Z M353 677 L354 676 L355 677 L354 678 Z M503 676 L504 675 L506 678 L505 679 Z M458 676 L457 679 L462 689 L475 702 L481 705 L473 697 L466 685 Z M354 676 L355 675 L356 676 L355 677 Z M502 675 L503 674 L504 675 L503 676 Z M355 675 L356 674 L357 675 L356 676 Z M356 674 L357 673 L358 674 L357 675 Z M637 678 L618 694 L617 692 L620 689 L620 687 L623 682 L629 675 L629 673 L620 683 L612 696 L602 706 L604 706 L617 697 Z M357 673 L358 672 L359 673 L358 674 Z M807 672 L808 671 L809 672 L808 673 Z M606 672 L607 671 L608 672 L607 673 Z M358 672 L359 671 L361 672 L360 673 Z M281 672 L282 671 L283 672 L282 673 Z M360 671 L361 670 L362 671 L361 672 Z M362 670 L363 669 L364 670 L363 671 Z M602 666 L603 667 L602 670 L601 669 Z M584 667 L585 666 L586 667 L585 668 Z M702 665 L713 668 L725 675 L738 689 L743 699 L746 709 L746 715 L747 716 L746 735 L744 739 L743 745 L738 755 L732 763 L722 772 L708 779 L700 780 L699 781 L686 782 L685 781 L673 780 L656 772 L646 762 L642 755 L640 747 L640 742 L639 741 L639 736 L638 735 L638 716 L640 708 L646 695 L651 688 L665 675 L681 667 L690 666 L691 665 Z M386 665 L394 665 L395 666 L403 667 L422 677 L435 690 L439 696 L444 706 L447 718 L447 734 L445 742 L436 759 L426 769 L412 777 L400 780 L382 780 L374 777 L371 777 L358 770 L348 760 L343 752 L338 734 L339 712 L344 696 L348 689 L364 673 L376 667 L385 666 Z M353 663 L349 665 L345 669 L336 685 L336 688 L337 688 L345 672 Z M713 663 L709 662 L686 663 L666 671 L660 675 L649 686 L644 693 L639 703 L635 717 L635 724 L634 725 L634 739 L639 754 L638 759 L645 770 L658 779 L661 780 L663 779 L673 783 L678 783 L679 784 L698 784 L712 780 L717 777 L719 778 L717 780 L723 778 L728 774 L729 772 L728 773 L726 772 L736 762 L742 753 L747 739 L748 730 L749 729 L749 713 L745 696 L740 685 L734 676 L724 668 Z M459 662 L459 664 L462 669 L466 673 L474 678 L474 676 L466 671 L462 667 L460 662 Z M484 659 L485 660 L484 664 L483 663 Z M631 654 L622 666 L613 674 L617 673 L627 663 L631 657 Z M451 652 L452 651 L453 652 L452 653 Z M859 650 L860 652 L845 696 L836 735 L833 743 L832 742 L832 738 L844 686 L852 661 L856 653 Z M755 651 L754 655 L757 663 L757 666 L759 670 L761 671 L758 660 L755 654 Z M859 649 L860 648 L861 649 L860 650 Z M230 645 L235 649 L246 681 L251 701 L251 705 L254 714 L256 728 L258 733 L258 738 L257 739 L254 731 L243 684 L232 652 L229 647 Z M479 645 L480 644 L481 646 L480 647 Z M305 641 L305 646 L303 650 L301 661 L304 654 Z M639 639 L640 638 L641 639 L640 640 Z M604 628 L607 635 L604 649 L587 667 L585 666 L598 652 L598 650 L603 644 L604 641 L603 638 L601 644 L598 648 L598 650 L577 672 L572 683 L571 682 L572 673 L577 659 L597 638 Z M480 628 L484 636 L505 658 L514 683 L513 686 L507 675 L488 655 L483 651 L482 652 L481 651 L480 647 L481 646 L483 649 L484 649 L484 647 L482 645 L482 637 L480 640 L480 644 L479 645 L478 644 L478 632 Z M358 627 L364 634 L372 637 Z M796 625 L795 637 L797 641 L797 632 L796 631 L797 626 Z M260 624 L261 625 L261 630 L260 631 L259 630 L259 625 Z M868 604 L869 605 L869 617 L868 618 L867 636 L863 643 L857 649 L856 647 L858 643 L860 632 L862 628 Z M664 602 L664 604 L668 608 L675 612 L681 612 L686 610 L686 609 L675 610 Z M223 601 L250 601 L252 604 L255 629 L257 636 L258 687 L259 688 L259 700 L260 701 L260 712 L261 713 L263 741 L265 748 L264 749 L262 748 L261 738 L258 728 L258 723 L255 714 L255 710 L252 701 L252 697 L241 659 L233 640 L232 640 L233 643 L232 645 L228 642 L222 630 L221 615 L220 614 L220 604 L221 603 L225 619 L227 623 L227 626 L229 630 L230 636 L232 637 L227 616 L222 602 Z M867 601 L868 602 L863 614 L853 655 L850 661 L847 673 L845 676 L844 683 L841 690 L835 714 L834 723 L832 728 L831 737 L829 741 L828 747 L826 750 L825 749 L825 743 L826 742 L828 720 L829 719 L830 701 L831 700 L831 686 L832 685 L832 654 L834 646 L834 625 L836 623 L840 603 L842 600 L843 601 Z M831 600 L832 601 L831 604 L830 603 Z M364 601 L363 602 L366 605 L366 603 Z M716 600 L711 604 L714 603 Z M591 600 L584 607 L575 613 L565 617 L555 618 L554 619 L529 619 L528 618 L519 617 L506 611 L494 601 L506 613 L514 617 L530 621 L553 621 L554 620 L559 620 L567 618 L577 614 L583 610 L590 603 Z M639 598 L638 598 L638 613 L639 614 L640 627 L639 628 L638 637 L634 647 L643 639 L647 630 L646 628 L641 639 L640 638 L641 635 L641 615 L640 614 L640 607 L639 606 Z M255 596 L258 599 L258 614 L256 618 L254 611 L254 605 L252 600 Z M253 596 L254 595 L255 596 L254 597 Z M426 594 L425 594 L421 602 L415 608 L411 610 L400 611 L394 609 L387 604 L386 605 L392 610 L400 613 L413 611 L422 604 L426 597 Z M265 593 L266 594 L266 599 L264 605 L264 611 L263 612 L262 624 L261 625 L260 624 L260 616 L261 615 L262 603 Z M583 593 L581 593 L579 595 L569 599 L554 601 L553 602 L527 602 L507 597 L518 602 L528 603 L529 604 L553 604 L574 599 L580 596 Z M803 590 L802 590 L802 597 L801 598 L801 635 L802 636 L802 642 L804 649 L808 657 L812 662 L812 665 L809 669 L802 674 L802 675 L804 675 L807 672 L808 673 L801 684 L793 691 L783 694 L776 693 L768 689 L760 680 L756 671 L752 656 L752 633 L758 612 L756 613 L752 626 L751 637 L750 638 L750 656 L754 672 L761 685 L767 691 L778 696 L789 695 L797 691 L809 677 L814 665 L814 661 L810 657 L806 649 L803 636 Z M492 590 L494 593 L499 595 L498 593 Z M640 589 L639 591 L640 593 L641 590 Z M444 585 L446 603 L445 604 L444 616 L443 617 L443 630 L445 638 L452 650 L451 652 L441 640 L438 634 L437 629 L435 628 L435 622 L436 621 L435 619 L433 625 L434 633 L436 637 L450 653 L454 654 L459 659 L452 648 L445 632 L445 615 L446 614 L448 598 L447 597 L447 591 L445 585 Z M703 583 L702 583 L701 589 L697 598 L688 608 L690 608 L699 598 L702 591 Z M740 582 L736 585 L731 593 L731 595 L739 585 Z M334 580 L338 590 L338 596 L340 602 L349 617 L353 621 L343 604 L342 599 L340 596 L339 587 L337 585 L336 581 Z M299 576 L298 582 L299 583 L299 596 L300 599 L301 595 L300 594 L300 578 Z M797 565 L796 565 L796 571 L790 589 L790 599 L791 600 L790 608 L789 609 L789 619 L790 620 L794 586 L797 580 Z M764 565 L761 566 L759 572 L756 576 L756 578 L753 581 L752 585 L755 582 L756 585 L754 587 L747 601 L737 615 L723 629 L714 635 L704 639 L703 641 L719 634 L727 628 L736 619 L750 600 L758 584 L756 582 L764 567 Z M723 565 L724 564 L725 565 L724 566 Z M429 560 L430 559 L431 561 L430 562 Z M379 557 L376 569 L376 575 L377 576 L374 580 L374 584 L378 596 L384 602 L378 591 L376 584 L378 568 L380 563 L380 557 Z M296 556 L294 561 L295 571 L292 583 L292 594 L293 595 L294 612 L295 613 L295 624 L294 625 L294 631 L292 638 L293 639 L295 633 L296 619 L297 618 L296 604 L294 597 L294 580 L299 560 L297 561 L296 564 L295 563 Z M700 554 L699 555 L699 564 L702 575 L702 581 L703 581 Z M430 553 L429 553 L428 556 L427 555 L427 561 L429 566 L429 571 L428 572 L429 580 L428 581 L427 589 L429 588 L430 584 L430 577 L431 576 L430 562 L431 561 L435 568 L436 568 L431 558 Z M657 551 L655 552 L654 556 L648 564 L644 572 L641 581 L641 585 L640 586 L641 587 L645 572 L651 564 L657 553 Z M313 549 L324 572 L328 583 L329 581 L326 572 L315 550 Z M781 545 L780 545 L772 562 L774 561 L777 554 L779 552 Z M376 534 L379 545 L379 554 L380 553 L380 542 L378 536 Z M779 531 L777 531 L773 535 L772 534 L770 535 L766 534 L761 539 L757 548 L757 552 L755 556 L755 561 L756 561 L760 545 L763 540 L766 537 L776 535 Z M787 528 L788 527 L789 528 L788 529 Z M309 528 L311 526 L320 526 L330 531 L336 538 L345 556 L351 561 L355 562 L356 563 L355 565 L347 572 L343 570 L337 563 L334 557 L332 548 L326 537 L321 533 L314 533 Z M786 526 L787 525 L788 526 L787 527 Z M785 525 L786 524 L787 525 L786 526 Z M367 519 L368 520 L367 524 L366 523 Z M307 532 L309 530 L314 535 L319 537 L318 536 L319 535 L322 536 L326 540 L330 548 L330 551 L336 565 L343 572 L350 573 L357 569 L362 562 L360 560 L365 553 L367 547 L367 524 L368 523 L370 529 L370 539 L371 537 L371 524 L368 517 L367 518 L365 517 L365 515 L367 513 L377 525 L382 535 L385 546 L384 582 L389 591 L395 597 L404 601 L414 599 L422 590 L425 580 L425 571 L426 570 L424 548 L426 543 L429 540 L431 542 L432 550 L444 571 L449 585 L449 590 L450 591 L450 626 L452 630 L452 633 L458 643 L466 651 L475 656 L481 661 L480 669 L479 670 L477 666 L471 660 L466 658 L460 653 L458 653 L463 658 L465 658 L472 663 L476 668 L478 673 L481 672 L484 666 L486 667 L485 673 L481 679 L485 677 L488 670 L487 660 L482 655 L483 652 L497 668 L503 673 L502 675 L499 673 L504 680 L514 689 L514 691 L516 690 L519 693 L520 690 L530 685 L538 683 L546 683 L547 684 L551 684 L556 687 L560 693 L559 687 L560 686 L562 687 L562 686 L557 681 L554 681 L558 684 L557 685 L550 682 L540 681 L539 682 L530 683 L524 686 L521 689 L520 688 L525 682 L529 681 L535 677 L542 677 L544 676 L542 675 L534 676 L524 681 L518 687 L514 679 L514 677 L515 676 L516 677 L517 675 L517 672 L520 666 L527 660 L537 657 L545 657 L554 660 L551 657 L545 655 L537 655 L530 658 L527 658 L518 665 L515 674 L514 675 L513 674 L514 660 L517 655 L524 649 L535 644 L546 644 L552 646 L558 650 L565 657 L569 666 L569 671 L570 672 L570 677 L569 678 L565 668 L561 663 L559 663 L563 668 L567 678 L569 679 L569 685 L566 696 L570 690 L572 692 L578 684 L578 682 L574 686 L573 685 L577 675 L584 667 L585 669 L589 667 L601 655 L602 659 L599 667 L600 672 L602 673 L603 669 L605 674 L608 676 L609 675 L608 671 L610 666 L620 655 L623 649 L621 649 L617 655 L610 662 L606 669 L604 666 L604 658 L608 654 L611 653 L622 645 L624 646 L623 644 L628 638 L632 630 L634 622 L634 617 L633 616 L633 594 L634 593 L635 583 L641 568 L652 551 L653 543 L655 539 L659 544 L660 548 L660 559 L658 565 L658 577 L656 582 L657 594 L659 596 L659 591 L658 590 L658 584 L659 583 L664 594 L669 599 L675 600 L682 597 L689 590 L694 575 L693 560 L692 559 L694 542 L697 533 L702 524 L713 514 L715 516 L715 520 L714 521 L713 518 L705 528 L701 539 L700 551 L701 551 L702 542 L705 533 L709 525 L713 520 L714 521 L714 525 L713 526 L713 542 L716 555 L724 570 L734 576 L740 577 L747 574 L752 569 L754 563 L742 575 L733 574 L728 571 L724 566 L726 565 L733 568 L738 566 L746 557 L753 540 L757 534 L762 530 L768 528 L775 528 L779 526 L783 526 L785 529 L783 533 L783 538 L783 535 L785 532 L786 533 L786 539 L780 560 L754 603 L742 619 L722 638 L720 638 L715 641 L712 641 L704 645 L689 649 L662 662 L645 675 L619 701 L595 716 L589 718 L573 718 L554 711 L534 710 L510 718 L499 718 L488 715 L471 705 L460 696 L439 675 L420 661 L404 653 L402 653 L400 651 L394 650 L391 648 L383 646 L363 638 L347 622 L334 601 L330 590 L319 572 L310 552 L307 539 Z M314 504 L315 505 L300 520 L284 544 L275 564 L266 594 L265 593 L265 589 L269 573 L276 553 L284 537 L296 520 L308 508 Z M314 504 L315 503 L316 504 L315 505 Z M315 503 L316 502 L317 503 L316 504 Z M856 501 L857 502 L857 507 L855 515 L854 533 L853 534 L853 542 L852 543 L852 550 L851 551 L851 559 L850 560 L848 580 L847 581 L844 598 L843 599 L839 598 L840 600 L838 604 L835 617 L834 616 L834 600 L840 593 L841 594 L844 586 L844 580 L846 572 L846 563 L847 562 L847 552 L848 551 L849 528 L850 527 L851 515 L853 512 Z M316 502 L317 501 L318 502 L317 503 Z M318 501 L319 500 L320 501 L319 502 Z M319 500 L320 499 L321 500 L320 501 Z M588 499 L591 497 L593 498 L591 500 Z M592 497 L593 496 L595 497 L594 498 Z M594 496 L596 494 L598 495 L596 497 Z M597 494 L598 493 L600 494 L599 495 Z M599 493 L600 492 L601 493 L600 494 Z M600 492 L601 491 L602 492 L601 493 Z M602 491 L603 490 L604 491 L603 492 Z M603 490 L604 489 L605 490 L604 491 Z M604 489 L605 488 L606 489 L605 490 Z M605 488 L606 487 L607 488 L606 489 Z M476 483 L477 482 L483 488 L493 495 L503 500 L519 505 L533 506 L534 507 L551 507 L552 506 L561 506 L562 505 L572 504 L580 501 L583 501 L586 499 L589 500 L580 505 L561 510 L533 511 L505 504 L487 494 Z M475 482 L476 481 L477 482 L476 483 Z M612 481 L613 480 L614 481 L613 482 Z M474 481 L475 480 L476 481 L475 482 Z M613 480 L614 479 L615 480 L614 481 Z M614 479 L615 478 L616 479 L615 480 Z M472 478 L473 477 L475 480 L474 481 Z M615 477 L616 476 L617 477 L616 478 Z M471 477 L472 476 L473 477 L472 478 Z M616 476 L617 475 L618 476 L617 477 Z M617 475 L618 474 L619 475 L618 476 Z M470 475 L471 474 L472 476 L471 477 Z M469 474 L470 473 L471 474 L470 475 Z M618 473 L619 472 L620 473 L619 474 Z M254 465 L263 474 L267 480 L270 491 L272 494 L271 487 L267 477 L261 469 L256 465 Z M339 490 L365 477 L401 465 L405 465 L426 460 L437 459 L438 458 L459 457 L464 472 L471 483 L483 495 L493 502 L513 510 L527 512 L528 513 L535 513 L536 514 L560 513 L561 512 L572 511 L578 508 L583 507 L603 496 L620 479 L625 471 L629 461 L629 458 L631 457 L632 458 L642 458 L643 459 L665 461 L675 464 L679 464 L705 472 L735 485 L755 497 L771 509 L786 524 L785 525 L778 524 L775 526 L766 526 L757 531 L753 536 L743 558 L737 564 L731 566 L726 563 L718 554 L716 547 L716 539 L715 538 L716 523 L718 516 L715 512 L712 512 L701 522 L697 528 L693 538 L691 546 L691 552 L690 553 L691 579 L687 589 L681 595 L674 598 L669 596 L663 588 L660 576 L660 569 L662 561 L662 546 L659 540 L656 537 L653 537 L651 539 L650 550 L639 567 L634 578 L632 586 L632 591 L631 592 L631 599 L630 600 L631 624 L627 635 L617 646 L612 650 L607 652 L606 650 L609 642 L609 633 L607 627 L603 625 L598 633 L576 656 L572 666 L570 664 L569 659 L562 650 L555 645 L545 641 L533 642 L522 647 L514 655 L512 659 L512 663 L510 664 L504 653 L484 632 L483 627 L481 625 L477 628 L475 634 L476 645 L480 655 L479 656 L471 652 L459 641 L454 632 L453 623 L452 622 L453 596 L452 595 L451 584 L446 570 L435 552 L433 546 L433 539 L431 537 L429 537 L425 540 L422 547 L423 578 L421 586 L418 592 L413 597 L402 598 L397 596 L390 589 L387 584 L385 578 L386 576 L387 561 L388 560 L387 544 L384 534 L380 526 L371 513 L366 510 L364 511 L363 514 L363 520 L365 527 L365 535 L364 536 L365 537 L365 544 L360 556 L356 560 L354 560 L348 556 L341 545 L339 539 L331 529 L320 524 L311 524 L307 527 L305 531 L305 542 L306 543 L307 551 L311 561 L311 567 L310 568 L311 578 L312 579 L312 584 L313 585 L313 589 L317 605 L317 610 L318 611 L318 630 L317 631 L314 651 L309 663 L301 672 L296 674 L292 674 L282 669 L280 670 L276 663 L276 660 L277 659 L279 661 L284 656 L283 655 L280 659 L278 660 L277 659 L283 647 L287 632 L287 604 L286 603 L286 596 L285 597 L286 627 L281 647 L274 660 L275 666 L283 678 L289 683 L303 689 L311 689 L321 685 L326 680 L332 669 L335 658 L336 643 L335 642 L335 633 L334 632 L333 621 L331 613 L329 611 L331 624 L333 629 L334 644 L330 645 L329 652 L332 649 L333 650 L333 656 L330 668 L324 679 L320 683 L310 687 L305 687 L304 686 L300 686 L290 681 L282 673 L284 672 L293 676 L301 674 L310 666 L316 654 L318 634 L320 629 L320 612 L319 611 L319 604 L317 599 L317 591 L315 589 L314 579 L313 578 L313 568 L314 567 L321 581 L329 593 L330 598 L339 615 L348 627 L357 636 L363 640 L352 645 L347 649 L336 664 L341 660 L343 656 L351 648 L361 643 L369 643 L379 648 L383 648 L396 654 L406 657 L425 668 L448 688 L454 696 L460 708 L461 714 L463 718 L463 722 L464 723 L464 744 L459 760 L453 770 L441 782 L426 791 L415 794 L399 794 L398 793 L390 793 L389 792 L384 792 L372 789 L359 783 L352 777 L351 774 L341 761 L340 755 L333 736 L333 730 L332 729 L333 706 L334 705 L335 706 L334 716 L336 718 L337 741 L339 745 L339 748 L344 758 L349 765 L354 770 L360 774 L359 775 L362 778 L366 780 L370 779 L375 782 L384 783 L385 784 L400 784 L412 780 L422 780 L431 776 L433 773 L431 774 L429 773 L442 761 L448 750 L451 740 L452 725 L450 724 L449 714 L445 702 L437 688 L424 675 L408 666 L394 662 L397 661 L391 660 L393 661 L392 662 L375 662 L368 664 L356 671 L345 682 L338 695 L336 696 L332 705 L330 712 L330 733 L331 734 L332 745 L334 750 L333 758 L335 765 L344 779 L350 783 L353 784 L355 783 L362 787 L361 788 L342 788 L328 792 L317 799 L309 807 L300 823 L297 835 L298 859 L302 871 L303 878 L305 881 L305 884 L311 899 L311 902 L314 907 L315 912 L324 932 L336 949 L346 958 L350 960 L350 966 L351 967 L353 981 L359 999 L365 1011 L371 1020 L383 1032 L395 1039 L404 1042 L404 1049 L407 1059 L413 1066 L418 1069 L415 1070 L405 1067 L387 1058 L371 1044 L369 1044 L368 1046 L358 1037 L360 1036 L362 1038 L364 1038 L357 1032 L355 1034 L352 1030 L353 1029 L352 1030 L348 1026 L337 1006 L330 984 L330 980 L328 978 L328 972 L323 957 L322 950 L320 947 L319 934 L318 934 L318 939 L317 940 L314 933 L310 915 L307 906 L306 906 L307 913 L310 921 L310 927 L323 961 L326 975 L328 979 L329 988 L334 1004 L341 1019 L348 1029 L364 1045 L369 1048 L381 1059 L384 1058 L403 1068 L420 1073 L425 1073 L426 1074 L451 1073 L473 1066 L480 1065 L484 1063 L488 1063 L499 1060 L511 1059 L512 1058 L518 1058 L519 1057 L561 1057 L562 1058 L569 1058 L570 1059 L582 1060 L583 1061 L597 1063 L642 1077 L652 1078 L653 1079 L661 1079 L662 1080 L672 1080 L679 1082 L688 1088 L702 1105 L704 1105 L696 1094 L684 1083 L685 1082 L706 1081 L707 1080 L700 1080 L699 1079 L705 1074 L703 1074 L697 1079 L692 1081 L689 1081 L687 1079 L680 1079 L679 1080 L665 1079 L664 1078 L645 1076 L633 1073 L623 1069 L620 1069 L617 1067 L614 1067 L607 1064 L581 1058 L570 1057 L569 1056 L560 1056 L559 1055 L522 1055 L521 1056 L512 1056 L511 1057 L499 1058 L481 1063 L477 1063 L453 1071 L448 1071 L447 1072 L441 1072 L440 1071 L447 1069 L452 1066 L462 1055 L464 1050 L464 1041 L462 1036 L465 1034 L474 1033 L480 1031 L493 1031 L494 1030 L501 1030 L502 1029 L523 1029 L524 1028 L526 1029 L544 1029 L547 1028 L548 1029 L577 1030 L578 1031 L602 1033 L609 1035 L617 1035 L621 1037 L619 1042 L619 1050 L621 1056 L625 1062 L636 1070 L653 1074 L662 1073 L663 1072 L665 1073 L674 1073 L696 1066 L709 1057 L712 1058 L719 1054 L727 1047 L740 1032 L745 1024 L745 1022 L752 1008 L755 996 L758 989 L761 975 L763 971 L764 964 L769 950 L769 947 L776 928 L776 924 L775 924 L768 944 L768 947 L764 957 L758 982 L750 1007 L738 1031 L721 1048 L710 1054 L696 1064 L687 1068 L681 1069 L678 1071 L674 1071 L673 1072 L668 1072 L667 1071 L675 1064 L677 1060 L678 1051 L679 1050 L679 1043 L681 1041 L691 1039 L702 1033 L714 1022 L720 1014 L728 998 L731 989 L736 968 L736 962 L740 958 L744 956 L757 942 L763 933 L774 909 L776 915 L777 912 L776 909 L777 908 L775 905 L782 886 L783 879 L785 876 L788 864 L789 854 L790 853 L790 835 L786 821 L778 807 L768 797 L755 790 L748 788 L742 788 L741 787 L727 787 L726 788 L722 787 L726 785 L738 775 L749 756 L750 760 L747 770 L743 778 L739 782 L741 782 L746 777 L750 768 L751 755 L750 756 L749 754 L752 746 L753 734 L754 733 L754 710 L753 709 L753 704 L750 692 L740 672 L734 664 L732 663 L742 679 L742 681 L748 692 L749 698 L751 702 L752 725 L751 726 L750 738 L743 758 L739 765 L740 764 L741 766 L738 771 L730 779 L721 785 L701 792 L691 793 L690 794 L666 794 L656 791 L640 781 L629 767 L623 753 L622 744 L621 743 L621 722 L624 710 L633 692 L654 671 L666 663 L678 657 L716 643 L724 643 L733 647 L739 652 L743 659 L745 660 L744 656 L737 648 L733 645 L722 640 L731 634 L744 621 L768 586 L779 566 L780 570 L778 574 L778 578 L773 596 L771 615 L770 616 L770 625 L769 626 L771 653 L775 666 L783 676 L789 679 L796 678 L800 676 L790 677 L785 675 L779 669 L775 661 L772 649 L772 613 L773 612 L775 595 L778 587 L781 570 L783 565 L783 561 L788 540 L788 529 L789 528 L798 539 L813 568 L820 590 L821 598 L824 608 L824 614 L826 620 L827 638 L828 639 L828 652 L829 653 L828 700 L827 701 L827 710 L826 711 L826 719 L824 727 L824 735 L822 743 L821 758 L819 765 L818 779 L817 780 L815 801 L814 802 L812 834 L811 835 L811 848 L810 849 L810 863 L809 864 L809 906 L808 907 L809 967 L810 968 L810 985 L811 986 L811 993 L812 994 L813 1011 L812 1012 L812 1019 L808 1032 L803 1041 L795 1048 L796 1056 L797 1057 L798 1078 L799 1079 L800 1088 L802 1092 L802 1094 L800 1096 L804 1100 L809 1101 L810 1100 L805 1096 L812 1093 L820 1084 L822 1085 L822 1089 L818 1093 L818 1098 L815 1104 L809 1109 L803 1109 L803 1111 L805 1112 L810 1111 L814 1107 L815 1109 L811 1113 L807 1115 L798 1116 L785 1110 L762 1088 L756 1084 L750 1082 L744 1082 L737 1084 L735 1086 L734 1085 L740 1078 L744 1076 L752 1075 L753 1076 L761 1077 L767 1081 L774 1088 L784 1102 L792 1110 L798 1112 L791 1107 L782 1097 L777 1089 L766 1078 L761 1075 L758 1075 L754 1073 L744 1074 L738 1077 L732 1083 L731 1082 L729 1084 L727 1095 L729 1097 L731 1105 L736 1112 L737 1111 L732 1102 L731 1095 L736 1088 L743 1088 L757 1096 L768 1107 L772 1113 L771 1116 L764 1109 L762 1109 L765 1114 L777 1121 L783 1127 L784 1129 L784 1136 L782 1139 L779 1141 L776 1140 L780 1136 L780 1133 L776 1138 L768 1139 L768 1141 L772 1141 L773 1142 L770 1144 L770 1148 L771 1149 L764 1152 L756 1152 L754 1153 L753 1152 L748 1152 L735 1146 L724 1138 L710 1124 L693 1104 L678 1092 L677 1093 L670 1089 L671 1087 L669 1086 L655 1087 L651 1089 L640 1088 L599 1077 L579 1074 L578 1073 L573 1073 L572 1072 L564 1072 L563 1071 L548 1071 L547 1070 L515 1071 L514 1072 L506 1072 L505 1073 L489 1075 L449 1085 L436 1085 L433 1084 L422 1087 L416 1090 L401 1102 L400 1101 L414 1088 L424 1082 L428 1083 L425 1081 L420 1082 L407 1091 L389 1109 L387 1107 L385 1110 L388 1108 L389 1110 L378 1123 L375 1124 L366 1134 L351 1146 L355 1145 L368 1135 L383 1120 L384 1122 L369 1138 L357 1148 L350 1152 L345 1153 L339 1156 L324 1156 L317 1153 L315 1151 L318 1148 L319 1142 L315 1142 L306 1136 L310 1141 L309 1143 L313 1144 L316 1147 L313 1149 L309 1147 L304 1142 L303 1138 L304 1131 L321 1114 L325 1108 L327 1109 L327 1107 L333 1101 L341 1095 L349 1091 L347 1089 L350 1086 L360 1088 L366 1095 L366 1105 L361 1116 L363 1116 L368 1105 L368 1094 L366 1088 L360 1081 L355 1078 L352 1078 L348 1076 L335 1077 L322 1085 L302 1107 L296 1112 L290 1115 L283 1115 L282 1112 L279 1111 L270 1100 L271 1097 L277 1104 L281 1104 L282 1103 L285 1104 L290 1099 L292 1094 L290 1095 L289 1094 L290 1086 L291 1085 L291 1070 L298 1049 L296 1049 L295 1052 L293 1053 L284 1044 L278 1033 L274 1018 L274 983 L275 982 L275 968 L276 967 L276 954 L277 953 L277 922 L278 921 L278 891 L277 890 L278 877 L277 876 L277 851 L276 850 L276 832 L275 831 L273 794 L272 793 L272 786 L271 785 L271 776 L270 775 L269 759 L268 758 L268 751 L267 750 L266 735 L265 734 L264 716 L263 715 L263 706 L262 705 L262 686 L261 685 L261 648 L262 647 L262 636 L263 635 L263 627 L264 626 L265 614 L274 575 L279 564 L280 559 L288 543 L294 533 L304 520 L320 504 Z M243 453 L251 455 L256 458 L279 481 L272 502 L272 507 L264 539 L262 558 L261 559 L261 567 L260 568 L259 591 L257 596 L250 583 L249 568 L248 567 L247 534 L245 526 L245 519 L239 497 L239 503 L240 504 L241 514 L245 530 L245 542 L246 543 L245 550 L246 551 L246 559 L247 560 L248 579 L249 580 L249 585 L252 597 L251 599 L246 599 L245 598 L246 597 L246 589 L243 579 L243 566 L242 565 L242 554 L241 553 L241 544 L240 543 L239 526 L238 525 L236 493 L235 492 L233 470 L232 469 L232 464 L234 458 L237 455 Z M856 447 L861 449 L864 452 L866 459 L862 471 L861 480 L858 488 L857 495 L854 501 L854 504 L849 518 L843 582 L838 593 L835 597 L834 596 L833 569 L832 568 L832 558 L831 557 L831 548 L830 547 L829 534 L828 533 L826 516 L820 493 L822 491 L825 481 L829 475 L841 463 L847 459 L841 461 L830 471 L822 483 L821 491 L820 492 L813 476 L840 453 L848 448 Z M650 441 L651 442 L675 446 L683 449 L694 451 L697 453 L721 461 L755 478 L766 485 L784 499 L774 489 L755 476 L723 460 L708 455 L705 453 L699 452 L696 450 L689 449 L685 447 L673 444 L658 442 L657 441 Z M453 439 L439 440 L433 442 L421 443 L401 448 L392 449 L356 461 L338 470 L321 481 L312 488 L298 503 L312 490 L325 480 L336 473 L361 461 L387 452 L403 448 L407 448 L423 444 L428 444 L429 443 L434 443 L435 442 L440 442 L441 441 L448 441 L449 440 L453 440 Z M318 416 L319 415 L320 416 L319 417 Z M773 412 L774 411 L775 412 L774 413 Z M591 390 L605 403 L594 391 Z M498 390 L486 401 L480 409 L474 423 L473 433 L472 434 L474 449 L479 461 L483 467 L495 479 L511 488 L527 493 L532 493 L533 494 L556 494 L573 490 L588 483 L600 474 L607 466 L613 455 L617 442 L616 422 L610 409 L608 407 L608 409 L613 418 L616 431 L614 448 L608 461 L603 468 L595 476 L581 485 L563 491 L558 491 L557 492 L533 492 L513 487 L499 480 L486 468 L481 461 L477 453 L474 442 L474 429 L477 421 L477 418 L479 416 L479 414 L489 400 L498 392 L512 384 L520 382 L523 380 L536 377 L562 378 L577 383 L588 389 L589 388 L581 383 L564 377 L560 377 L559 376 L534 376 L515 381 Z M348 371 L345 373 L343 377 L338 393 L339 393 L342 387 L343 382 Z M490 385 L504 377 L517 372 L530 369 L536 369 L537 368 L553 368 L554 369 L563 369 L581 374 L586 377 L588 377 L602 386 L616 400 L620 406 L626 419 L628 427 L628 448 L626 452 L626 455 L622 465 L613 477 L612 480 L599 491 L585 498 L569 503 L556 504 L555 505 L533 505 L532 504 L525 504 L520 502 L516 502 L503 498 L486 488 L474 476 L466 463 L461 447 L461 430 L465 416 L469 408 L477 397 Z M368 368 L348 386 L335 401 L348 388 L356 382 L367 371 Z M733 360 L735 366 L743 377 L754 390 L758 393 L741 372 Z M372 338 L369 340 L356 359 L353 365 L353 368 L371 341 Z M383 334 L380 343 L382 341 Z M732 333 L731 345 L733 353 L733 334 Z M387 291 L385 297 L385 323 L384 326 L386 325 L387 322 L387 316 L386 315 L386 310 L387 309 L386 308 L386 303 L387 302 L387 293 L388 292 Z M722 290 L722 295 L724 302 L732 318 L732 322 L734 327 L738 333 L745 348 L745 351 L750 365 L752 375 L755 381 L752 365 L745 343 L734 322 L733 317 L725 300 L725 297 Z M399 286 L400 285 L401 287 L400 288 Z M729 283 L730 282 L731 284 L730 285 Z M711 239 L704 261 L700 270 L699 277 L697 280 L689 303 L685 311 L679 319 L679 321 L677 322 L673 328 L678 324 L679 321 L686 312 L693 298 L703 269 L704 263 L706 260 L706 257 L708 254 L708 251 L710 248 L710 245 L712 242 Z M747 222 L743 226 L738 235 L738 237 L741 235 L747 224 Z M819 210 L820 209 L821 210 L820 211 Z M817 209 L818 208 L820 209 L819 210 Z M816 208 L817 207 L818 208 L817 209 Z M814 207 L815 206 L816 207 L815 208 Z M774 200 L769 199 L755 205 L744 216 L746 216 L751 211 L752 213 L758 206 L766 202 L774 201 Z M727 196 L720 210 L720 213 L715 225 L715 231 L723 207 L728 197 Z M778 195 L779 196 L793 196 L809 200 L807 198 L793 194 L779 194 Z M820 174 L827 189 L828 198 L830 204 L830 212 L828 214 L823 214 L820 211 L822 210 L825 212 L824 209 L817 205 L815 205 L813 207 L809 204 L800 201 L784 199 L783 200 L798 202 L801 204 L804 204 L814 209 L817 212 L816 213 L810 213 L809 212 L788 211 L783 214 L780 214 L777 212 L771 212 L762 216 L756 221 L753 222 L747 228 L748 229 L752 225 L759 222 L765 217 L766 218 L764 227 L760 230 L750 231 L745 234 L740 239 L734 250 L732 258 L734 263 L742 269 L742 272 L740 274 L739 270 L736 270 L732 266 L730 261 L730 254 L728 251 L730 242 L734 235 L734 232 L727 245 L722 261 L721 268 L718 275 L717 288 L716 289 L716 307 L718 312 L719 324 L721 329 L719 308 L718 307 L718 287 L719 286 L719 279 L721 271 L723 267 L724 260 L727 254 L728 255 L728 261 L731 269 L734 271 L737 271 L739 273 L738 274 L739 273 L740 274 L731 283 L728 276 L728 273 L727 274 L727 284 L730 285 L731 296 L734 295 L738 299 L737 313 L747 334 L748 339 L756 358 L756 361 L758 364 L767 393 L774 410 L773 411 L769 406 L768 407 L772 413 L780 421 L787 435 L793 443 L810 475 L819 500 L825 526 L827 543 L828 544 L828 553 L829 554 L830 571 L831 572 L831 597 L830 598 L821 565 L813 547 L804 532 L793 518 L775 501 L757 489 L751 486 L748 486 L767 497 L777 505 L796 525 L811 548 L819 566 L825 586 L825 590 L829 606 L829 611 L830 612 L830 619 L831 620 L831 630 L830 631 L829 630 L829 622 L828 621 L827 609 L826 608 L824 594 L820 582 L820 579 L818 576 L818 573 L812 558 L804 543 L792 526 L772 506 L762 498 L745 487 L711 471 L683 462 L679 462 L665 458 L646 456 L645 455 L631 455 L630 451 L631 450 L631 441 L632 440 L640 440 L641 441 L648 441 L648 440 L637 440 L631 438 L631 430 L626 413 L620 402 L612 392 L603 384 L584 373 L572 369 L556 367 L555 366 L538 366 L537 367 L530 367 L508 373 L494 380 L484 387 L474 397 L467 407 L463 415 L458 434 L458 450 L459 451 L458 455 L456 454 L443 454 L437 456 L430 456 L429 457 L413 459 L405 462 L401 462 L383 468 L380 468 L350 480 L322 495 L313 501 L293 520 L281 538 L271 560 L264 584 L263 593 L262 594 L261 593 L262 569 L263 568 L265 545 L266 544 L268 529 L275 501 L281 486 L281 483 L291 463 L291 461 L310 432 L318 417 L319 419 L327 410 L327 408 L320 416 L319 415 L324 402 L340 371 L352 354 L360 345 L366 335 L374 326 L379 308 L380 293 L383 287 L389 282 L396 282 L400 285 L398 286 L398 289 L402 297 L408 315 L418 333 L425 339 L414 325 L400 290 L401 287 L416 309 L434 327 L443 333 L457 340 L472 345 L489 348 L490 349 L508 350 L509 351 L596 351 L597 350 L606 350 L607 349 L615 348 L627 344 L637 339 L650 330 L665 316 L680 296 L695 268 L722 194 L732 177 L744 164 L751 159 L764 154 L784 154 L799 158 L807 162 Z M797 154 L785 151 L764 151 L750 156 L736 167 L724 183 L718 195 L716 202 L713 207 L713 210 L711 213 L700 247 L696 255 L694 263 L677 295 L664 312 L652 324 L632 338 L615 345 L605 346 L604 347 L585 347 L584 348 L511 348 L510 347 L498 347 L497 346 L480 344 L458 337 L444 330 L437 325 L421 310 L410 296 L404 285 L399 280 L390 279 L385 281 L380 286 L376 296 L375 312 L370 326 L358 340 L357 344 L347 355 L334 375 L311 424 L292 453 L285 466 L281 477 L280 478 L261 458 L252 452 L249 451 L239 451 L235 453 L231 457 L229 470 L231 477 L233 502 L234 503 L235 524 L236 525 L238 555 L239 556 L239 570 L240 571 L240 577 L243 589 L243 597 L242 598 L221 598 L218 600 L218 626 L220 633 L224 640 L229 655 L233 663 L234 670 L242 691 L240 695 L240 705 L242 710 L242 713 L240 717 L240 727 L245 736 L244 737 L244 749 L248 753 L247 764 L250 770 L250 784 L251 785 L251 794 L252 795 L253 849 L254 850 L254 890 L255 891 L255 926 L256 927 L256 934 L257 935 L264 935 L265 936 L268 935 L273 935 L274 936 L273 966 L272 967 L271 995 L270 996 L271 1019 L275 1034 L280 1044 L292 1056 L288 1069 L288 1083 L287 1084 L286 1093 L285 1094 L279 1093 L272 1086 L270 1080 L267 1078 L265 1079 L263 1083 L263 1096 L269 1112 L274 1118 L280 1122 L288 1123 L289 1124 L296 1123 L302 1120 L305 1124 L301 1131 L300 1139 L303 1146 L312 1152 L313 1160 L319 1165 L325 1166 L331 1169 L334 1169 L335 1170 L334 1171 L335 1181 L340 1190 L344 1193 L352 1194 L358 1201 L362 1203 L376 1203 L378 1202 L386 1208 L391 1208 L396 1210 L406 1210 L407 1209 L416 1208 L428 1202 L437 1193 L441 1184 L443 1182 L444 1183 L448 1183 L451 1188 L450 1204 L448 1210 L441 1218 L441 1222 L443 1224 L450 1225 L454 1223 L457 1223 L470 1209 L478 1194 L480 1194 L484 1199 L503 1197 L507 1201 L511 1203 L524 1203 L528 1201 L531 1201 L537 1195 L548 1194 L553 1196 L560 1202 L566 1204 L577 1203 L584 1200 L586 1198 L595 1201 L597 1200 L605 1200 L609 1202 L615 1202 L623 1214 L627 1218 L634 1223 L639 1225 L643 1225 L648 1223 L650 1220 L650 1217 L642 1210 L639 1203 L640 1188 L643 1184 L648 1183 L651 1188 L651 1190 L658 1199 L670 1206 L677 1208 L697 1209 L704 1207 L713 1202 L715 1203 L720 1202 L726 1199 L731 1194 L738 1194 L740 1193 L745 1188 L747 1184 L748 1175 L757 1171 L760 1162 L761 1161 L769 1161 L775 1156 L776 1154 L776 1150 L775 1149 L786 1139 L787 1136 L786 1126 L780 1119 L780 1115 L782 1112 L791 1116 L793 1118 L805 1119 L812 1116 L820 1107 L825 1091 L824 1081 L821 1078 L818 1077 L816 1079 L815 1084 L812 1089 L808 1092 L804 1091 L802 1083 L802 1078 L801 1077 L801 1071 L800 1070 L799 1050 L808 1039 L813 1028 L813 1024 L815 1020 L816 1003 L815 1002 L815 993 L813 987 L813 960 L812 959 L813 948 L812 947 L812 936 L813 935 L817 935 L818 936 L828 935 L830 933 L830 927 L831 926 L832 889 L833 888 L833 871 L834 870 L834 851 L835 850 L835 836 L836 835 L839 789 L840 788 L840 780 L841 779 L841 770 L843 764 L843 754 L847 750 L847 736 L846 735 L850 728 L850 724 L851 723 L850 695 L849 693 L852 687 L854 677 L856 674 L864 647 L869 638 L870 630 L871 629 L872 601 L868 598 L848 598 L847 597 L848 588 L851 580 L852 567 L853 566 L853 558 L854 557 L854 551 L856 543 L856 534 L857 533 L857 524 L858 523 L860 498 L861 497 L864 476 L868 464 L869 457 L867 451 L863 447 L857 444 L851 444 L840 449 L832 455 L813 472 L811 471 L811 469 L809 467 L804 456 L778 412 L776 405 L769 390 L769 387 L767 384 L758 354 L756 351 L751 336 L748 331 L746 322 L740 312 L740 308 L741 307 L740 296 L733 291 L734 283 L744 275 L745 271 L744 266 L738 263 L735 258 L738 248 L742 242 L749 235 L751 234 L755 234 L756 235 L766 230 L767 222 L771 217 L778 216 L783 218 L789 214 L793 215 L811 215 L816 217 L821 217 L822 216 L829 217 L833 212 L833 203 L832 202 L830 188 L824 174 L812 162 Z" fill="#eef3f4" fill-rule="evenodd"/>
</svg>
