<svg xmlns="http://www.w3.org/2000/svg" width="1086" height="1448" viewBox="0 0 1086 1448">
  <title>0184</title>
  <path d="M742 1031 L743 1030 L744 1031 L743 1032 Z M743 1030 L744 1029 L745 1030 L744 1031 Z M744 1029 L745 1028 L746 1029 L745 1030 Z M745 1028 L746 1027 L747 1028 L746 1029 Z M746 1027 L747 1026 L748 1027 L747 1028 Z M747 1026 L748 1025 L749 1026 L748 1027 Z M729 1026 L730 1025 L731 1026 L730 1027 Z M352 1026 L353 1025 L354 1026 L353 1027 Z M750 1023 L751 1022 L752 1023 L751 1024 Z M314 1013 L315 1012 L316 1013 L315 1014 Z M312 1012 L313 1011 L314 1012 L313 1013 Z M286 988 L287 987 L303 1003 L313 1011 L311 1012 L298 1004 L292 998 Z M285 987 L286 986 L287 987 L286 988 Z M284 985 L285 984 L286 985 L285 986 Z M801 973 L802 977 L798 992 L789 1007 L785 1011 L777 1016 L753 1023 L752 1022 L758 1016 L774 1003 L791 986 Z M661 906 L638 922 L628 927 L609 934 L596 937 L591 937 L590 938 L571 939 L570 940 L549 940 L547 938 L549 936 L554 936 L573 930 L599 915 L610 911 L621 910 L622 909 L643 909 L658 905 Z M660 905 L661 904 L662 905 L661 906 Z M424 905 L426 904 L430 906 L438 908 L444 908 L445 909 L467 909 L468 910 L477 911 L492 917 L516 931 L528 935 L537 936 L540 938 L536 940 L507 939 L506 938 L500 938 L499 937 L494 937 L493 936 L476 933 L464 929 L447 921 L434 913 Z M423 904 L424 903 L425 904 L424 905 Z M242 901 L243 900 L244 901 L243 902 Z M699 880 L700 879 L701 880 L700 881 Z M384 879 L386 878 L393 884 L415 899 L426 909 L439 918 L460 929 L485 937 L501 939 L502 940 L524 941 L525 942 L566 942 L567 941 L579 941 L580 940 L588 940 L589 939 L604 937 L617 933 L620 931 L625 930 L646 919 L699 880 L700 883 L691 901 L673 926 L658 941 L637 956 L621 964 L597 972 L582 974 L581 975 L575 975 L574 976 L567 976 L566 977 L529 978 L528 977 L507 976 L506 975 L501 975 L500 974 L495 974 L482 971 L462 964 L450 958 L436 949 L419 934 L406 918 L389 891 L384 881 Z M383 878 L384 877 L385 878 L384 879 Z M703 875 L704 874 L705 875 L704 876 Z M353 882 L356 876 L363 872 L372 872 L381 875 L388 892 L398 909 L410 926 L425 942 L447 958 L463 966 L487 974 L491 974 L502 977 L509 977 L510 978 L536 979 L537 980 L564 979 L565 978 L572 978 L573 977 L591 975 L615 968 L640 956 L657 944 L675 926 L689 907 L700 887 L702 879 L706 876 L713 874 L722 874 L729 877 L732 880 L735 886 L736 901 L731 919 L722 938 L690 985 L678 1008 L673 1027 L673 1045 L676 1056 L680 1063 L678 1065 L662 1075 L644 1084 L625 1091 L622 1091 L610 1095 L590 1098 L589 1099 L571 1100 L570 1101 L517 1101 L516 1100 L507 1100 L506 1099 L487 1097 L450 1087 L447 1085 L437 1082 L419 1073 L403 1063 L399 1059 L404 1048 L405 1038 L406 1037 L405 1022 L404 1021 L403 1012 L396 993 L382 966 L375 955 L361 925 L353 897 Z M737 861 L748 866 L755 876 L758 886 L758 905 L757 906 L757 910 L751 928 L744 942 L730 963 L716 981 L706 996 L700 1008 L695 1025 L695 1035 L698 1044 L703 1050 L710 1054 L719 1054 L724 1052 L731 1045 L733 1041 L733 1033 L730 1027 L734 1026 L740 1030 L743 1034 L746 1041 L746 1050 L743 1059 L735 1069 L724 1075 L716 1077 L707 1077 L695 1074 L687 1069 L683 1065 L679 1059 L676 1051 L675 1042 L674 1041 L674 1032 L675 1031 L676 1020 L680 1007 L691 986 L717 949 L726 934 L734 916 L737 905 L737 900 L738 899 L737 886 L734 880 L727 874 L719 872 L711 873 L707 875 L704 874 L712 867 L722 862 Z M343 856 L355 856 L361 858 L370 863 L380 872 L378 873 L374 871 L366 870 L357 873 L353 878 L351 883 L351 896 L356 916 L358 919 L363 934 L395 994 L401 1011 L403 1025 L404 1026 L404 1041 L403 1042 L402 1050 L399 1057 L394 1064 L388 1069 L378 1073 L373 1073 L372 1074 L359 1073 L348 1068 L341 1060 L338 1051 L338 1042 L340 1036 L350 1026 L353 1027 L350 1035 L350 1039 L353 1046 L357 1050 L364 1053 L368 1053 L376 1049 L381 1043 L384 1035 L384 1022 L377 1001 L369 986 L344 951 L334 935 L327 920 L323 907 L321 889 L322 888 L322 881 L325 871 L328 866 L334 860 Z M650 835 L651 834 L652 835 L651 836 Z M609 835 L612 833 L626 833 L629 836 L629 838 L626 842 L623 844 L620 844 L613 840 Z M651 833 L652 832 L653 833 L652 834 Z M430 834 L431 833 L440 840 L450 844 L458 844 L457 837 L465 832 L477 833 L505 840 L521 842 L522 843 L530 843 L531 844 L563 843 L564 842 L575 841 L576 840 L580 840 L581 839 L585 839 L590 837 L607 834 L615 843 L622 846 L626 846 L639 843 L650 835 L651 837 L642 847 L633 851 L608 851 L607 852 L602 852 L588 858 L573 870 L561 877 L550 880 L534 880 L533 879 L525 878 L514 873 L499 860 L485 852 L477 850 L451 850 L445 848 L438 844 L433 839 Z M429 833 L430 832 L431 833 L430 834 Z M459 832 L460 831 L461 832 L460 833 Z M652 831 L653 830 L654 831 L653 832 Z M428 831 L429 830 L430 831 L429 832 Z M682 830 L683 829 L685 831 L683 832 Z M735 832 L755 826 L766 826 L775 829 L784 837 L788 846 L789 855 L788 856 L787 869 L782 885 L781 884 L780 873 L777 863 L769 849 L759 840 L747 835 L735 834 L734 833 Z M344 826 L345 827 L344 828 L332 830 L322 835 L312 844 L304 858 L301 868 L300 882 L299 883 L296 874 L295 863 L294 862 L294 847 L296 840 L300 833 L306 828 L316 824 L331 824 L332 825 Z M856 823 L857 824 L856 827 L855 826 Z M392 823 L393 822 L394 823 L393 824 Z M389 822 L390 821 L391 822 L390 823 Z M390 821 L391 820 L392 821 L391 822 Z M392 820 L393 819 L394 820 L393 821 Z M393 819 L394 818 L395 819 L394 820 Z M394 818 L395 817 L396 818 L395 819 Z M395 817 L396 816 L397 817 L396 818 Z M396 816 L397 815 L398 816 L397 817 Z M397 815 L398 814 L399 815 L398 816 Z M230 811 L231 812 L230 815 L229 814 Z M773 794 L772 795 L761 796 L780 796 L794 800 L802 805 L811 814 L817 824 L820 833 L821 848 L822 849 L820 870 L812 897 L798 925 L781 948 L789 940 L799 926 L807 912 L814 896 L819 881 L822 868 L822 863 L823 862 L823 841 L822 840 L821 831 L815 817 L803 804 L793 798 L783 795 L774 795 Z M316 792 L304 792 L303 793 L295 794 L282 800 L271 810 L266 817 L260 832 L259 842 L258 843 L259 869 L267 898 L273 910 L273 912 L282 928 L289 938 L299 948 L283 927 L269 899 L261 871 L261 865 L260 864 L260 841 L264 825 L270 814 L278 805 L285 800 L297 795 L307 794 L308 793 L316 793 L317 794 L321 793 L317 793 Z M666 788 L666 796 L667 797 L668 805 L671 814 L677 824 L675 825 L672 821 L671 822 L679 831 L684 834 L684 832 L686 831 L689 833 L704 837 L716 837 L717 836 L726 836 L727 835 L738 835 L739 836 L748 837 L754 839 L762 844 L769 851 L775 861 L778 870 L779 881 L780 882 L780 893 L779 894 L777 910 L769 935 L762 949 L751 967 L761 954 L770 936 L777 916 L779 903 L781 898 L781 893 L789 867 L789 862 L790 861 L790 848 L789 844 L785 836 L779 830 L774 827 L765 826 L764 825 L754 825 L741 829 L736 829 L715 834 L706 834 L693 831 L681 824 L674 816 L669 804 Z M493 779 L494 778 L495 779 L494 780 Z M494 778 L495 777 L496 778 L495 779 Z M584 777 L585 776 L586 777 L585 778 Z M434 744 L424 753 L419 760 L411 778 L406 799 L399 811 L391 819 L385 823 L372 827 L348 826 L347 825 L329 823 L328 822 L314 823 L305 827 L298 834 L295 839 L292 850 L293 866 L294 867 L295 877 L300 893 L300 899 L304 916 L312 939 L319 953 L327 965 L328 965 L321 954 L313 938 L304 911 L302 896 L301 895 L301 876 L305 859 L313 845 L323 836 L331 832 L338 830 L344 830 L345 829 L370 830 L371 829 L381 828 L389 825 L391 823 L393 824 L391 826 L397 821 L396 820 L400 816 L405 807 L409 795 L412 779 L421 759 L426 752 Z M652 724 L653 723 L655 724 L654 725 Z M650 723 L651 722 L653 723 L652 724 Z M429 718 L430 717 L431 718 L430 719 Z M633 698 L634 697 L638 697 L639 698 L638 699 L634 699 Z M622 696 L623 695 L624 696 L623 697 Z M621 695 L622 694 L623 695 L622 696 Z M620 694 L621 693 L622 694 L621 695 Z M889 689 L893 690 L896 693 L896 695 L892 702 L891 710 L890 711 L890 718 L889 719 L889 737 L888 738 L888 837 L889 838 L889 847 L891 852 L890 838 L889 837 L889 740 L890 739 L891 712 L892 711 L893 702 L896 696 L897 697 L897 716 L898 717 L898 735 L899 736 L899 827 L898 828 L897 862 L896 865 L892 868 L872 870 L871 871 L862 871 L861 872 L858 871 L856 872 L855 883 L851 895 L844 902 L838 905 L837 903 L844 884 L844 881 L850 864 L855 844 L855 840 L859 824 L859 819 L860 818 L863 791 L864 790 L864 780 L865 779 L865 741 L864 740 L864 734 L862 727 L862 718 L864 710 L865 692 L875 688 Z M195 690 L210 688 L221 691 L222 708 L223 709 L224 720 L222 725 L221 737 L220 738 L220 767 L221 768 L221 777 L222 778 L223 789 L226 799 L226 805 L227 806 L227 812 L229 819 L229 825 L230 826 L230 832 L233 845 L235 863 L236 864 L238 879 L243 898 L242 901 L234 894 L232 890 L231 874 L229 871 L227 870 L190 867 L188 864 L193 856 L194 848 L193 848 L193 853 L189 862 L187 861 L186 806 L185 805 L186 740 L187 739 L188 705 L190 697 L193 704 L193 709 L194 710 L195 733 L196 734 L195 780 L194 781 L194 799 L193 800 L193 814 L192 815 L192 825 L191 826 L191 837 L192 826 L193 825 L193 817 L194 816 L195 791 L196 790 L197 724 L196 723 L195 707 L190 693 Z M630 687 L631 686 L632 687 L631 688 Z M425 687 L426 686 L428 687 L427 688 Z M631 686 L632 685 L633 686 L632 687 Z M422 686 L423 685 L425 686 L424 687 Z M781 686 L774 690 L744 702 L721 709 L707 710 L706 711 L686 711 L685 710 L669 709 L668 708 L663 708 L662 707 L649 705 L638 701 L642 699 L649 698 L656 695 L659 695 L675 690 L692 688 L693 687 L700 687 L701 686 L729 685 L730 684 L767 684 L768 685 L780 685 Z M454 685 L455 684 L456 685 L455 686 Z M418 685 L419 684 L421 685 L420 686 Z M632 684 L633 683 L634 684 L633 685 Z M783 683 L784 682 L785 683 L784 684 Z M777 683 L778 682 L782 682 L783 683 L782 684 L778 684 Z M453 683 L454 682 L455 683 L454 684 Z M785 682 L786 681 L789 682 L788 683 Z M633 682 L634 681 L635 683 L634 684 Z M452 682 L453 681 L454 682 L453 683 Z M789 681 L790 680 L792 681 L791 682 Z M747 682 L746 683 L722 683 L721 684 L707 684 L706 685 L688 686 L687 687 L683 687 L682 688 L661 692 L643 698 L639 698 L638 697 L669 686 L682 683 L687 683 L688 682 L709 681 L710 680 L733 680 L734 681 L746 681 Z M634 681 L635 680 L636 681 L635 682 Z M451 680 L452 679 L453 680 L452 681 Z M307 680 L308 679 L314 679 L318 681 L353 680 L354 681 L368 681 L369 682 L391 683 L392 684 L401 684 L402 685 L408 685 L419 688 L424 688 L449 694 L430 701 L427 700 L426 701 L422 701 L411 704 L405 704 L404 705 L381 705 L380 704 L373 704 L372 703 L363 702 L359 700 L349 698 L346 696 L336 693 L312 681 L308 681 Z M635 679 L636 678 L637 680 L636 681 Z M450 679 L451 678 L452 679 L451 680 Z M305 679 L306 678 L308 679 L307 680 Z M636 678 L637 677 L638 678 L637 679 Z M302 678 L303 677 L305 678 L304 679 Z M449 677 L450 676 L451 677 L450 678 Z M340 678 L341 677 L352 677 L353 676 L384 677 L385 678 L392 678 L393 679 L409 681 L417 684 L413 685 L412 684 L387 682 L386 681 L375 681 L374 680 L365 680 L364 679 L341 679 Z M300 677 L301 676 L303 677 L302 678 Z M637 676 L638 675 L639 676 L638 677 Z M448 676 L449 675 L450 676 L449 677 Z M297 676 L298 675 L300 676 L299 677 Z M638 675 L639 674 L640 675 L639 676 Z M296 675 L297 674 L298 675 L297 676 Z M447 674 L448 673 L449 674 L448 675 Z M294 674 L295 673 L296 674 L295 675 Z M639 673 L640 672 L641 674 L640 675 Z M292 673 L293 672 L294 673 L293 674 Z M640 672 L641 671 L642 672 L641 673 Z M446 672 L447 671 L448 672 L447 673 Z M641 671 L642 670 L643 671 L642 672 Z M445 671 L446 670 L447 671 L446 672 Z M642 669 L643 668 L644 669 L643 670 Z M643 668 L644 667 L645 668 L644 669 Z M443 668 L444 667 L445 668 L444 669 Z M644 667 L645 666 L646 667 L645 668 Z M645 665 L646 664 L647 665 L646 666 Z M441 665 L442 664 L443 665 L442 666 Z M795 664 L796 663 L798 664 L797 665 Z M772 664 L775 663 L781 665 L789 665 L790 664 L794 664 L795 665 L785 668 L778 668 L774 667 Z M646 664 L647 663 L648 664 L647 665 Z M440 664 L441 663 L442 664 L441 665 Z M814 663 L815 662 L816 663 L815 664 Z M647 663 L648 662 L649 663 L648 664 Z M815 662 L816 661 L817 662 L816 663 Z M767 662 L768 661 L770 662 L769 663 Z M648 662 L649 661 L650 662 L649 663 Z M279 662 L280 661 L281 662 L280 663 Z M816 661 L817 660 L818 661 L817 662 Z M278 661 L279 660 L280 661 L279 662 Z M297 660 L298 659 L301 660 L300 661 Z M294 659 L295 658 L296 659 L295 660 Z M755 654 L757 653 L768 661 L767 662 L762 661 Z M754 653 L755 652 L756 653 L755 654 Z M753 652 L754 651 L755 652 L754 653 Z M328 652 L322 658 L311 662 L302 662 L301 661 L307 659 L312 659 L321 655 L326 651 Z M752 651 L753 650 L754 651 L753 652 Z M327 651 L328 650 L329 651 L328 652 Z M328 650 L329 649 L330 650 L329 651 Z M813 649 L814 648 L815 649 L814 650 Z M749 649 L751 648 L753 650 L751 651 Z M329 649 L330 648 L331 649 L330 650 Z M814 648 L815 647 L816 648 L815 649 Z M748 648 L749 647 L750 648 L749 649 Z M330 648 L331 647 L332 648 L331 649 Z M747 647 L748 646 L749 647 L748 648 Z M331 647 L332 646 L333 647 L332 648 Z M279 647 L280 646 L281 647 L280 648 Z M746 646 L747 645 L748 646 L747 647 Z M278 646 L279 645 L280 646 L279 647 Z M745 645 L746 644 L747 645 L746 646 Z M334 645 L335 644 L336 645 L335 646 Z M277 645 L278 644 L279 645 L278 646 Z M743 644 L744 643 L745 644 L744 645 Z M335 644 L336 643 L337 644 L336 645 Z M742 643 L743 642 L744 643 L743 644 Z M336 643 L337 642 L338 643 L337 644 Z M272 643 L273 642 L274 644 L273 645 Z M741 642 L742 641 L743 642 L742 643 Z M337 642 L338 641 L339 642 L338 643 Z M739 641 L740 640 L741 641 L740 642 Z M677 641 L678 640 L679 641 L678 642 Z M338 641 L339 640 L340 641 L339 642 Z M271 641 L272 640 L273 642 L272 643 Z M737 640 L738 639 L739 640 L738 641 Z M270 640 L271 639 L272 640 L271 641 Z M823 639 L824 638 L825 639 L824 640 Z M341 639 L342 638 L343 639 L342 640 Z M734 638 L735 637 L736 638 L735 639 Z M342 638 L343 637 L344 638 L343 639 Z M824 637 L825 636 L826 637 L825 638 Z M345 636 L346 635 L347 636 L346 637 Z M628 696 L651 662 L664 649 L676 641 L678 643 L676 646 L675 655 L679 665 L683 669 L693 674 L704 674 L712 670 L718 664 L721 658 L721 653 L722 652 L721 646 L718 639 L714 635 L715 634 L723 635 L735 640 L744 646 L761 662 L772 668 L776 669 L789 669 L798 666 L803 663 L815 652 L820 645 L823 639 L824 640 L820 652 L814 662 L805 672 L798 677 L782 681 L753 681 L752 680 L741 680 L740 679 L702 679 L701 680 L692 680 L691 681 L685 681 L684 682 L667 685 L640 695 L632 696 L631 697 Z M707 632 L711 634 L718 642 L720 649 L720 654 L718 661 L711 669 L705 672 L696 673 L689 671 L684 668 L678 660 L677 657 L678 645 L689 634 L698 633 L699 632 Z M273 645 L274 644 L282 653 L296 662 L305 663 L306 664 L307 663 L314 663 L323 659 L342 641 L354 633 L367 629 L371 629 L372 630 L368 634 L365 640 L365 645 L364 646 L367 658 L371 663 L381 669 L393 670 L404 665 L410 658 L412 650 L411 643 L409 639 L410 637 L418 642 L436 660 L452 685 L457 691 L456 692 L447 691 L411 680 L396 678 L395 677 L389 677 L388 676 L380 676 L379 675 L348 675 L347 676 L337 676 L336 677 L327 677 L326 678 L310 678 L303 676 L290 669 L281 660 Z M369 635 L375 629 L379 627 L390 628 L402 632 L407 638 L410 645 L410 653 L408 658 L404 663 L395 668 L383 668 L376 665 L369 658 L366 650 L366 643 Z M280 648 L282 647 L287 650 L296 651 L300 653 L310 653 L323 646 L340 630 L347 625 L357 620 L367 617 L374 617 L375 616 L396 618 L405 621 L417 627 L431 638 L438 645 L452 663 L463 681 L464 685 L460 689 L458 688 L454 679 L443 663 L431 649 L423 642 L414 636 L402 630 L393 627 L383 626 L382 625 L370 625 L354 629 L339 638 L323 652 L309 658 L294 657 L286 653 Z M889 551 L893 552 L899 556 L900 558 L900 570 L893 590 L892 604 L889 615 L881 630 L881 634 L878 643 L869 660 L872 663 L876 672 L876 684 L873 688 L866 690 L864 686 L864 677 L863 676 L862 668 L859 660 L857 658 L861 613 L862 612 L866 585 L874 556 L879 550 L880 551 Z M193 541 L205 541 L210 543 L216 559 L220 581 L221 582 L224 608 L225 609 L225 617 L226 618 L228 650 L229 651 L229 655 L227 657 L223 668 L222 688 L221 689 L213 688 L209 685 L208 682 L208 669 L211 661 L213 659 L215 661 L215 659 L198 630 L195 616 L191 605 L190 580 L185 565 L183 553 L185 546 L188 543 Z M633 541 L622 551 L619 556 Z M705 514 L687 514 L671 518 L652 527 L644 532 L636 539 L654 527 L669 520 L687 515 Z M309 477 L326 467 L346 460 L356 459 L357 458 L385 458 L386 459 L392 459 L420 467 L438 476 L482 507 L504 518 L528 525 L556 526 L557 525 L569 524 L592 517 L612 507 L654 480 L679 469 L682 469 L689 466 L693 466 L698 464 L711 463 L712 462 L738 462 L739 463 L745 463 L746 464 L751 464 L759 466 L783 476 L799 487 L812 500 L818 508 L826 522 L832 539 L834 552 L835 553 L835 560 L836 561 L837 580 L836 581 L836 594 L835 595 L834 607 L829 625 L820 641 L812 648 L800 654 L789 653 L783 650 L774 641 L759 613 L755 607 L744 595 L731 586 L722 582 L714 580 L709 580 L708 579 L695 579 L675 584 L665 589 L655 596 L641 610 L634 620 L628 631 L621 649 L622 649 L625 640 L636 619 L642 611 L660 594 L679 584 L691 581 L712 581 L726 585 L743 596 L751 604 L757 612 L775 644 L781 650 L791 655 L790 656 L781 656 L773 654 L773 655 L778 657 L786 657 L787 658 L788 657 L797 657 L813 649 L814 650 L807 657 L792 663 L779 663 L764 657 L747 643 L736 636 L729 633 L717 630 L695 631 L679 636 L671 640 L661 647 L643 665 L637 673 L625 695 L620 690 L632 668 L642 655 L657 640 L671 630 L681 625 L695 621 L717 621 L733 626 L746 634 L759 646 L769 653 L747 633 L732 624 L714 619 L698 619 L682 623 L670 629 L657 638 L640 655 L625 677 L619 689 L615 685 L608 672 L606 666 L605 658 L604 657 L604 649 L603 648 L604 626 L609 605 L617 584 L631 561 L648 543 L660 534 L678 525 L696 520 L715 519 L716 520 L728 521 L746 528 L757 535 L775 552 L785 566 L791 577 L792 581 L793 581 L786 566 L777 553 L767 542 L756 533 L738 523 L729 520 L721 519 L720 518 L700 518 L699 519 L689 520 L677 524 L661 532 L645 544 L635 554 L625 567 L613 590 L609 600 L609 603 L607 606 L604 618 L603 628 L602 629 L602 654 L603 655 L603 660 L606 671 L613 686 L626 703 L639 714 L629 705 L623 697 L624 696 L636 702 L666 710 L679 711 L680 712 L711 712 L712 711 L719 711 L720 710 L738 707 L752 702 L770 693 L772 693 L798 679 L813 668 L827 655 L834 650 L840 647 L847 647 L855 655 L858 661 L862 675 L862 681 L863 682 L863 704 L862 705 L862 713 L860 718 L853 702 L841 689 L831 684 L817 682 L816 683 L806 684 L789 692 L747 723 L732 731 L723 734 L714 735 L713 736 L694 736 L670 730 L650 721 L651 722 L648 723 L638 719 L630 718 L629 717 L609 717 L598 720 L589 725 L581 733 L575 746 L573 742 L573 736 L572 735 L571 717 L570 716 L570 704 L569 703 L569 671 L570 670 L570 662 L571 661 L573 645 L577 633 L577 630 L579 627 L583 614 L589 603 L589 601 L591 599 L599 583 L615 561 L610 565 L604 573 L592 592 L578 622 L572 642 L572 646 L569 657 L569 663 L568 664 L567 698 L568 699 L570 732 L571 733 L571 739 L574 751 L574 759 L577 769 L581 776 L589 784 L594 787 L596 787 L589 781 L586 775 L585 767 L589 755 L592 752 L601 747 L605 746 L618 746 L625 748 L636 754 L643 761 L648 768 L652 776 L656 789 L656 794 L657 795 L657 816 L655 823 L648 835 L643 839 L630 844 L626 843 L630 838 L629 835 L631 834 L634 837 L634 840 L636 838 L632 833 L626 831 L616 831 L615 832 L602 833 L587 837 L572 839 L566 841 L559 841 L558 842 L528 842 L527 841 L520 841 L519 840 L503 838 L475 831 L457 830 L452 832 L449 835 L449 838 L451 840 L450 836 L455 832 L459 832 L460 833 L457 835 L456 837 L456 841 L457 842 L455 843 L443 840 L438 837 L430 829 L425 820 L423 813 L423 808 L422 807 L423 789 L426 778 L431 767 L436 760 L444 752 L454 746 L467 743 L477 744 L485 747 L492 754 L495 763 L494 775 L491 781 L485 787 L494 782 L503 772 L508 760 L509 750 L512 741 L515 721 L516 720 L516 715 L517 714 L518 697 L519 696 L519 662 L518 661 L518 654 L517 653 L516 642 L512 626 L502 599 L489 574 L479 559 L469 547 L449 528 L440 522 L426 515 L409 510 L390 510 L408 511 L409 512 L417 513 L430 518 L446 527 L465 544 L475 556 L486 572 L498 594 L510 625 L516 651 L517 670 L518 671 L517 700 L516 701 L516 709 L515 710 L513 728 L509 744 L508 745 L507 744 L506 739 L501 730 L493 722 L488 719 L479 716 L462 716 L456 718 L466 717 L467 716 L483 718 L491 722 L500 731 L505 740 L507 747 L506 762 L500 774 L496 778 L495 777 L496 774 L496 760 L493 753 L486 746 L475 742 L463 742 L455 744 L444 750 L433 761 L425 776 L421 791 L421 814 L422 815 L423 823 L425 829 L431 839 L437 845 L446 850 L453 852 L479 852 L492 857 L498 861 L510 872 L521 878 L538 882 L547 882 L548 881 L557 880 L570 874 L585 862 L595 856 L606 853 L631 853 L638 851 L646 846 L652 839 L655 833 L658 823 L658 816 L659 815 L659 797 L658 796 L657 786 L653 774 L646 762 L637 753 L627 747 L615 744 L608 744 L597 747 L588 754 L584 763 L584 773 L585 774 L584 777 L579 770 L577 765 L576 756 L575 755 L577 744 L582 734 L591 725 L598 721 L608 718 L630 718 L642 721 L657 727 L660 726 L673 732 L676 732 L688 736 L693 736 L694 737 L714 737 L727 734 L739 729 L749 723 L775 703 L790 693 L802 687 L813 684 L825 684 L835 687 L845 694 L854 706 L860 722 L862 737 L863 738 L863 753 L864 754 L863 782 L862 783 L861 798 L860 799 L860 805 L857 818 L837 861 L855 826 L856 830 L854 835 L850 857 L834 908 L817 946 L802 970 L790 985 L774 1001 L751 1020 L743 1028 L741 1029 L733 1024 L726 1024 L731 1032 L731 1042 L723 1051 L718 1053 L711 1053 L705 1050 L700 1045 L697 1039 L697 1035 L696 1034 L696 1027 L697 1026 L698 1017 L700 1011 L712 989 L739 953 L749 936 L758 913 L759 903 L760 902 L760 888 L759 887 L758 879 L754 871 L746 863 L734 859 L724 860 L713 865 L681 892 L671 899 L660 904 L648 907 L643 907 L642 908 L623 908 L622 909 L610 910 L601 913 L584 923 L567 931 L551 935 L536 935 L517 930 L503 923 L498 919 L481 911 L473 909 L468 909 L467 908 L445 908 L425 903 L410 895 L390 879 L386 877 L374 865 L366 859 L360 856 L352 854 L346 854 L336 857 L327 865 L323 872 L320 882 L320 900 L325 919 L334 938 L366 984 L374 998 L380 1012 L383 1024 L382 1038 L379 1044 L371 1051 L361 1051 L354 1045 L352 1040 L352 1033 L356 1024 L351 1024 L341 1030 L334 1023 L323 1017 L304 1002 L286 984 L276 971 L265 953 L258 939 L246 906 L243 890 L241 885 L240 876 L238 871 L238 866 L237 865 L234 843 L233 842 L233 836 L232 835 L232 829 L230 821 L230 815 L231 814 L249 860 L249 857 L239 832 L238 827 L232 814 L228 802 L225 785 L224 784 L223 770 L222 769 L222 737 L223 736 L223 730 L224 729 L226 716 L236 695 L244 686 L254 680 L261 678 L275 678 L290 683 L297 687 L331 713 L346 723 L356 728 L370 732 L392 732 L393 731 L401 730 L420 723 L426 719 L429 720 L452 711 L446 712 L432 718 L431 717 L436 714 L413 725 L397 730 L392 730 L391 731 L371 731 L370 730 L365 730 L356 727 L345 721 L325 707 L304 690 L293 683 L277 677 L264 676 L263 677 L255 678 L243 685 L232 699 L226 712 L224 710 L224 701 L223 700 L223 679 L224 678 L224 671 L226 663 L229 658 L229 656 L237 646 L244 642 L250 642 L255 644 L265 651 L294 676 L320 688 L322 688 L335 695 L351 701 L367 705 L385 706 L386 707 L401 707 L402 706 L417 705 L426 702 L434 701 L452 695 L455 693 L457 694 L455 698 L456 699 L458 693 L471 678 L478 666 L482 655 L483 639 L484 638 L483 616 L482 615 L482 610 L479 597 L467 568 L455 550 L439 534 L429 527 L415 520 L397 515 L379 514 L378 515 L365 516 L353 520 L341 526 L326 537 L317 546 L304 564 L296 580 L293 592 L297 580 L304 566 L316 549 L334 532 L349 523 L363 518 L373 517 L374 516 L393 516 L394 517 L400 517 L408 520 L411 520 L425 526 L443 539 L460 559 L471 579 L478 599 L481 612 L481 618 L482 619 L482 647 L477 665 L468 680 L465 683 L459 672 L448 655 L430 635 L418 626 L404 619 L394 616 L370 615 L369 616 L361 617 L343 626 L334 633 L322 645 L316 649 L308 652 L304 652 L301 650 L306 647 L315 637 L329 612 L337 601 L352 587 L361 582 L373 578 L377 578 L378 577 L398 577 L412 581 L430 591 L445 605 L452 614 L448 607 L441 599 L428 588 L418 582 L400 576 L395 576 L394 575 L375 576 L362 580 L350 587 L336 600 L327 613 L314 637 L305 646 L296 650 L292 650 L280 645 L275 641 L269 634 L265 627 L260 607 L260 600 L259 599 L259 569 L260 568 L260 561 L261 560 L262 550 L268 531 L278 511 L287 498 Z M623 422 L624 421 L625 422 L624 423 Z M625 421 L626 420 L627 421 L626 422 Z M468 420 L469 419 L470 420 L469 421 Z M626 420 L628 418 L630 419 L628 421 Z M467 419 L468 418 L469 419 L468 420 Z M284 476 L286 475 L297 460 L311 446 L326 435 L344 426 L357 422 L369 421 L370 420 L394 421 L419 428 L441 439 L479 466 L499 477 L518 484 L526 486 L531 486 L532 487 L539 487 L540 488 L563 487 L587 481 L612 469 L650 443 L671 432 L697 424 L712 423 L713 422 L723 422 L724 423 L733 423 L734 424 L743 425 L757 430 L770 437 L787 450 L797 460 L811 478 L831 510 L838 524 L831 509 L823 497 L817 485 L803 465 L790 451 L777 440 L756 428 L741 423 L730 422 L729 421 L706 421 L705 422 L699 422 L686 425 L672 430 L649 442 L611 468 L588 479 L571 484 L559 485 L558 486 L535 486 L534 485 L529 485 L513 481 L490 471 L474 461 L445 440 L418 426 L390 419 L365 419 L364 420 L351 422 L345 425 L340 426 L319 438 L299 456 L289 468 Z M465 418 L466 417 L467 418 L466 419 Z M625 296 L626 295 L627 296 L626 297 Z M436 337 L440 326 L447 314 L459 301 L468 295 L469 297 L464 302 L457 313 L453 324 L452 344 L455 356 L459 364 L466 375 L472 382 L482 391 L491 397 L514 407 L527 410 L534 410 L535 411 L562 411 L563 410 L574 409 L593 403 L612 392 L630 374 L638 360 L642 346 L642 328 L636 310 L626 297 L628 296 L642 309 L653 326 L659 346 L659 364 L655 380 L646 397 L640 405 L629 416 L614 427 L599 435 L577 442 L567 443 L566 444 L556 444 L555 445 L531 444 L530 443 L525 443 L512 440 L495 434 L485 429 L468 417 L453 402 L444 389 L437 373 L435 365 L435 359 L434 358 L434 349 L435 348 Z M624 295 L625 294 L626 295 L625 296 Z M468 295 L469 294 L470 295 L469 296 Z M623 294 L624 293 L625 294 L624 295 Z M469 294 L470 293 L471 294 L470 295 Z M471 293 L472 292 L473 293 L472 294 Z M250 503 L252 501 L259 480 L268 462 L276 449 L287 435 L301 421 L320 407 L335 399 L353 393 L363 392 L364 391 L392 391 L393 392 L398 392 L399 393 L412 395 L432 402 L491 434 L506 440 L526 445 L532 445 L533 446 L564 446 L565 445 L570 445 L571 444 L576 444 L584 442 L610 432 L631 421 L640 415 L667 402 L690 395 L695 395 L696 394 L702 394 L703 393 L728 393 L729 394 L735 394 L748 397 L767 405 L785 417 L807 439 L822 460 L837 491 L843 511 L845 536 L845 516 L841 499 L836 485 L826 464 L815 447 L803 432 L787 417 L766 403 L746 395 L738 393 L733 393 L732 392 L723 392 L722 391 L699 392 L671 399 L652 408 L650 408 L631 419 L629 418 L645 401 L655 384 L660 368 L661 350 L660 349 L660 343 L657 332 L647 313 L633 298 L622 290 L610 284 L609 285 L615 288 L622 294 L632 306 L638 318 L640 326 L640 332 L641 333 L641 341 L640 342 L639 352 L633 367 L625 378 L615 388 L605 395 L589 403 L572 408 L557 409 L556 410 L540 410 L539 409 L524 408 L507 403 L492 396 L478 386 L466 373 L457 357 L454 346 L454 327 L458 314 L465 303 L474 293 L483 286 L490 283 L489 282 L472 290 L458 300 L451 307 L441 321 L436 332 L433 343 L433 363 L437 378 L446 395 L452 403 L466 417 L465 418 L433 401 L414 394 L401 391 L396 391 L395 390 L369 389 L368 390 L361 390 L360 391 L351 392 L336 397 L313 410 L298 422 L285 435 L268 459 L259 477 Z M215 423 L229 392 L242 372 L254 357 L278 333 L297 318 L329 298 L365 281 L393 271 L396 271 L400 269 L431 261 L451 258 L457 256 L462 256 L463 255 L476 254 L477 253 L507 251 L508 250 L526 250 L527 249 L559 249 L560 250 L590 251 L591 252 L608 253 L609 254 L616 254 L617 255 L641 258 L642 259 L651 260 L656 262 L665 263 L685 268 L692 271 L695 271 L717 278 L720 280 L728 282 L748 291 L750 291 L772 302 L796 317 L814 331 L834 351 L847 368 L859 388 L869 411 L876 434 L879 454 L880 455 L880 461 L881 462 L881 472 L882 473 L882 508 L881 509 L881 520 L880 521 L880 529 L879 530 L877 549 L874 552 L871 558 L863 590 L860 614 L859 615 L856 652 L855 653 L850 647 L846 645 L842 645 L833 649 L818 661 L817 660 L822 651 L827 638 L828 631 L833 618 L836 605 L836 600 L837 599 L837 592 L838 591 L838 564 L837 563 L837 555 L836 554 L835 545 L828 523 L823 513 L814 500 L795 482 L786 476 L772 469 L749 462 L734 461 L733 460 L716 460 L715 461 L707 461 L706 462 L695 463 L672 470 L651 480 L609 507 L588 517 L576 521 L562 523 L561 524 L538 525 L537 524 L531 524 L530 523 L525 523 L517 521 L492 511 L474 500 L444 478 L419 465 L400 459 L383 457 L382 456 L360 456 L359 457 L353 457 L340 460 L329 464 L317 470 L304 479 L286 497 L274 515 L266 532 L260 552 L259 562 L258 563 L258 570 L257 571 L257 596 L258 597 L258 604 L259 605 L260 615 L263 625 L266 630 L268 639 L279 660 L278 661 L266 650 L256 643 L247 640 L242 641 L237 644 L231 651 L229 648 L228 622 L227 621 L227 612 L226 611 L226 604 L225 603 L225 596 L224 595 L222 577 L215 550 L213 545 L209 541 L208 538 L207 523 L206 522 L206 512 L205 511 L205 472 L206 471 L206 462 L207 461 L207 455 L208 454 L210 440 L213 432 L213 429 L215 426 Z M541 247 L540 248 L499 249 L498 250 L489 250 L488 251 L480 251 L479 252 L472 252 L465 254 L453 255 L401 267 L394 270 L382 273 L379 275 L371 277 L356 284 L354 284 L314 305 L283 327 L252 357 L233 383 L227 393 L214 421 L210 433 L207 450 L206 451 L205 463 L204 464 L204 473 L203 474 L203 509 L204 510 L204 521 L205 522 L205 529 L206 530 L206 537 L207 539 L206 540 L192 540 L189 541 L184 545 L182 549 L182 560 L187 575 L188 584 L189 585 L189 603 L190 604 L190 608 L192 612 L197 632 L211 656 L211 659 L206 670 L206 681 L208 686 L207 687 L193 689 L189 692 L187 696 L186 725 L185 726 L185 747 L184 748 L183 798 L184 799 L185 856 L186 857 L186 865 L187 867 L192 869 L220 871 L221 872 L228 872 L229 873 L229 881 L230 882 L231 891 L233 895 L239 901 L245 905 L247 915 L249 918 L254 934 L267 960 L274 971 L280 978 L283 987 L287 994 L298 1006 L304 1010 L331 1023 L341 1032 L337 1039 L336 1050 L340 1061 L346 1068 L358 1074 L374 1075 L382 1073 L390 1069 L399 1061 L411 1070 L434 1082 L465 1093 L485 1098 L503 1100 L504 1101 L511 1101 L512 1102 L558 1103 L559 1102 L575 1102 L576 1101 L597 1099 L629 1091 L661 1077 L681 1064 L689 1072 L697 1076 L705 1078 L722 1077 L733 1072 L740 1066 L746 1056 L748 1048 L748 1042 L745 1033 L750 1027 L754 1024 L774 1019 L782 1015 L791 1007 L796 1000 L801 988 L805 968 L815 953 L828 927 L835 908 L837 906 L839 906 L846 902 L852 896 L856 886 L857 874 L858 873 L869 873 L870 872 L890 870 L897 867 L898 859 L899 858 L900 821 L901 820 L901 743 L900 742 L900 721 L899 720 L898 693 L896 690 L892 688 L882 687 L877 685 L878 683 L878 673 L873 662 L873 655 L879 645 L884 627 L889 619 L893 608 L895 589 L902 568 L902 559 L900 555 L894 551 L885 550 L879 548 L881 529 L882 528 L882 519 L883 518 L883 505 L884 504 L884 476 L883 475 L883 464 L882 463 L882 457 L881 456 L879 440 L870 409 L861 389 L848 367 L835 350 L814 329 L790 311 L764 296 L762 296 L735 283 L691 268 L659 260 L655 260 L639 256 L634 256 L633 255 L628 255 L627 254 L614 253 L613 252 L606 252 L605 251 L598 251 L597 250 L587 250 L586 249 L573 249 L572 248 Z" fill="#eef3f4" fill-rule="evenodd"/>
</svg>
