<svg xmlns="http://www.w3.org/2000/svg" width="1086" height="1448" viewBox="0 0 1086 1448">
  <title>0185</title>
  <path d="M523 1220 L524 1219 L525 1220 L524 1221 Z M542 1214 L544 1212 L545 1213 L544 1215 Z M541 1208 L542 1207 L543 1208 L542 1209 Z M587 1198 L588 1201 L585 1203 L583 1201 Z M588 1197 L589 1196 L590 1197 L589 1198 Z M576 1184 L577 1187 L575 1189 L574 1187 Z M574 1184 L575 1183 L576 1184 L575 1185 Z M567 1172 L568 1173 L567 1176 L566 1175 Z M565 1172 L566 1171 L567 1172 L566 1173 Z M622 1156 L623 1155 L624 1156 L623 1157 Z M623 1155 L624 1154 L625 1155 L624 1156 Z M468 1149 L474 1163 L472 1169 L470 1168 L470 1165 L468 1165 L465 1168 L464 1167 L465 1158 Z M363 1139 L365 1143 L363 1147 L364 1148 L363 1149 L358 1148 L357 1147 Z M619 1138 L621 1137 L625 1140 L621 1141 Z M567 1136 L568 1135 L569 1136 L568 1137 Z M605 1132 L606 1131 L607 1132 L606 1133 Z M479 1130 L480 1129 L481 1130 L480 1131 Z M596 1128 L597 1127 L601 1127 L605 1131 L601 1132 Z M585 1125 L592 1126 L594 1129 L600 1133 L603 1133 L606 1135 L616 1136 L618 1138 L617 1143 L619 1141 L621 1142 L618 1146 L615 1145 L613 1147 L613 1152 L608 1160 L606 1169 L608 1168 L608 1164 L610 1158 L614 1152 L614 1148 L616 1146 L619 1147 L622 1142 L624 1143 L626 1142 L627 1143 L625 1152 L622 1154 L617 1154 L617 1156 L620 1155 L621 1156 L621 1161 L623 1165 L619 1173 L620 1177 L613 1188 L614 1195 L611 1198 L610 1203 L608 1205 L599 1205 L597 1202 L598 1200 L601 1199 L604 1196 L608 1189 L608 1172 L607 1171 L606 1172 L607 1187 L604 1194 L600 1198 L596 1200 L592 1200 L590 1194 L588 1193 L583 1200 L579 1198 L576 1193 L576 1190 L578 1188 L578 1184 L576 1182 L571 1182 L570 1184 L569 1183 L569 1172 L561 1163 L561 1159 L563 1155 L562 1145 L570 1137 L570 1135 L573 1132 L578 1131 Z M578 1126 L579 1125 L580 1126 L579 1127 Z M580 1125 L581 1124 L582 1125 L581 1126 Z M480 1129 L482 1124 L489 1126 L482 1130 Z M581 1124 L582 1123 L584 1124 L583 1125 Z M577 1123 L578 1124 L575 1129 L566 1134 L565 1137 L566 1139 L561 1144 L562 1154 L559 1160 L559 1163 L566 1174 L567 1183 L570 1186 L572 1184 L573 1185 L571 1193 L570 1194 L566 1194 L563 1196 L555 1197 L554 1198 L555 1206 L548 1214 L545 1213 L542 1205 L540 1207 L540 1209 L543 1211 L540 1215 L538 1215 L531 1222 L528 1222 L525 1219 L528 1216 L527 1215 L523 1217 L521 1222 L517 1222 L516 1223 L512 1223 L508 1219 L506 1220 L500 1219 L499 1218 L499 1211 L500 1210 L499 1191 L501 1187 L501 1180 L500 1178 L497 1176 L493 1179 L490 1179 L486 1176 L478 1176 L473 1172 L475 1165 L475 1160 L470 1152 L470 1147 L467 1146 L470 1145 L474 1141 L475 1134 L479 1131 L481 1132 L486 1130 L491 1126 L502 1127 L503 1128 L511 1128 L512 1129 L543 1129 L544 1128 L552 1128 L553 1127 L558 1127 L559 1126 L564 1126 Z M577 1123 L578 1122 L580 1123 L579 1124 Z M307 1110 L308 1109 L309 1110 L308 1111 Z M306 1109 L307 1108 L308 1109 L307 1110 Z M296 1104 L300 1102 L302 1099 L307 1108 L305 1109 L301 1107 L298 1107 Z M318 1092 L319 1091 L320 1092 L319 1093 Z M323 1079 L321 1079 L322 1088 L320 1091 L319 1090 L317 1091 L318 1096 L319 1096 L324 1087 Z M702 1068 L701 1068 L697 1076 L689 1086 L688 1089 L697 1078 Z M707 1061 L708 1060 L709 1061 L708 1062 Z M311 1061 L307 1064 L307 1068 L310 1076 L310 1072 L308 1068 L309 1063 L310 1062 L313 1067 L314 1067 L313 1063 Z M708 1059 L709 1058 L710 1059 L709 1060 Z M718 1041 L716 1044 L715 1049 L706 1060 L706 1062 L707 1061 L708 1064 L709 1064 L711 1060 L712 1054 L717 1048 Z M716 1038 L713 1040 L711 1044 Z M725 1029 L719 1035 L718 1039 L720 1037 L722 1037 Z M733 1027 L732 1027 L733 1037 L730 1042 L727 1040 L728 1043 L732 1042 L734 1039 Z M730 1014 L729 1014 L728 1018 L729 1020 L725 1026 L730 1021 Z M740 1003 L738 1004 L736 1008 L736 1011 L737 1011 L738 1008 L739 1009 L739 1015 L733 1025 L735 1024 L740 1017 L741 1013 L739 1006 Z M343 999 L347 1005 L346 1009 L341 1002 Z M341 999 L342 998 L343 999 L342 1000 Z M340 996 L342 998 L341 1002 L339 1000 Z M339 995 L337 997 L337 1000 L342 1005 L343 1008 L346 1011 L348 1011 L349 1006 L346 1001 L346 999 L343 996 Z M747 992 L745 993 L744 998 L742 1001 L745 999 Z M841 990 L842 989 L844 992 L843 993 Z M256 988 L254 991 L253 996 L256 1007 L259 1012 L261 1013 L261 1018 L263 1021 L262 1018 L263 1010 L262 1009 L260 1011 L259 1010 L255 998 L255 992 L258 989 L258 988 Z M744 986 L745 985 L746 986 L745 987 Z M655 981 L656 980 L660 981 L659 982 Z M743 980 L745 984 L743 987 L747 989 L746 982 Z M335 976 L336 975 L337 976 L336 977 Z M261 974 L259 980 L261 980 L262 978 L263 979 L263 983 L261 985 L260 989 L262 989 L262 987 L265 982 L265 980 Z M331 971 L332 970 L333 971 L332 972 Z M737 967 L738 966 L739 967 L738 968 Z M360 967 L361 966 L362 967 L361 968 Z M742 966 L743 965 L744 966 L743 967 Z M346 966 L347 965 L350 966 L349 967 Z M344 965 L345 964 L347 965 L346 966 Z M342 964 L343 963 L345 964 L344 965 Z M340 963 L341 962 L342 963 L341 964 Z M661 962 L661 963 L666 964 L669 966 L670 969 L669 973 L671 973 L670 964 L669 963 Z M443 962 L429 967 L420 972 L411 973 L410 975 L419 974 L435 966 L437 966 L443 963 Z M357 961 L359 965 L361 966 L357 967 L355 965 Z M531 984 L538 983 L548 978 L559 970 L570 964 L580 961 L587 961 L588 960 L589 961 L597 961 L604 963 L633 979 L641 981 L644 981 L644 980 L639 980 L634 978 L605 962 L595 959 L582 959 L571 962 L561 967 L547 977 L539 981 L531 983 Z M355 959 L356 958 L357 959 L356 960 Z M325 959 L327 958 L333 964 L336 963 L345 968 L360 973 L363 975 L404 986 L437 991 L438 992 L452 993 L453 994 L461 994 L462 995 L470 995 L471 996 L482 996 L483 997 L496 997 L497 998 L512 998 L513 999 L572 999 L573 998 L589 998 L590 997 L602 997 L603 996 L613 996 L614 995 L638 993 L639 992 L658 990 L659 989 L678 986 L683 984 L687 984 L718 975 L736 967 L738 968 L718 987 L695 1005 L666 1023 L638 1036 L608 1046 L581 1051 L580 1052 L565 1053 L564 1054 L554 1054 L553 1055 L514 1055 L513 1054 L503 1054 L502 1053 L495 1053 L494 1052 L476 1050 L471 1048 L455 1045 L430 1037 L415 1031 L395 1021 L370 1005 L353 991 L341 979 Z M324 958 L325 957 L326 958 L325 959 Z M354 957 L355 956 L356 957 L355 958 Z M322 957 L323 956 L324 957 L323 958 Z M420 956 L416 958 L417 961 L419 960 L418 959 Z M353 956 L354 955 L355 956 L354 957 Z M321 956 L322 955 L323 956 L322 957 Z M321 953 L322 952 L324 953 L323 954 Z M422 955 L422 956 L427 955 L428 956 L436 957 L441 953 L444 953 L451 958 L447 962 L454 960 L465 960 L466 961 L475 962 L488 968 L502 978 L508 981 L519 984 L525 984 L525 983 L520 983 L507 979 L489 967 L477 961 L469 959 L452 959 L451 956 L447 954 L446 952 L440 952 L437 955 L434 955 L429 952 L427 954 Z M377 952 L372 955 L368 961 L366 962 L366 964 L369 962 L375 954 L377 955 Z M328 952 L329 951 L330 952 L329 953 Z M329 951 L330 950 L331 951 L330 952 Z M695 944 L697 947 L699 947 L708 952 L710 956 L712 956 L709 951 Z M667 943 L668 955 L669 956 L668 961 L669 961 L670 954 L669 953 L669 946 L668 943 Z M300 939 L301 938 L303 939 L302 940 Z M517 928 L518 927 L519 928 L518 929 Z M384 925 L384 927 L388 931 L388 933 L386 935 L381 934 L381 936 L386 938 L390 932 L386 928 L385 925 Z M369 924 L371 922 L372 923 L371 925 Z M372 922 L374 920 L377 921 L374 925 Z M666 920 L669 929 L678 939 L681 946 L684 949 L685 952 L686 952 L686 950 L682 945 L681 941 L672 931 L669 926 L668 921 Z M376 920 L377 919 L378 920 L377 921 Z M505 919 L507 918 L514 921 L522 922 L523 923 L536 922 L546 918 L549 919 L544 923 L534 927 L516 926 Z M345 919 L340 923 L336 922 L332 923 L330 925 L330 928 L323 933 L323 935 L327 931 L331 929 L331 926 L335 923 L340 924 Z M548 918 L549 917 L550 918 L549 919 Z M504 918 L505 917 L506 918 L505 919 Z M549 917 L550 916 L551 917 L550 918 Z M380 917 L374 918 L363 929 L358 936 L361 933 L367 930 L370 926 L372 927 L375 926 L379 922 Z M656 910 L655 911 L655 915 L661 930 L665 935 L665 933 L662 929 L657 917 L658 913 Z M243 910 L242 911 L245 914 L246 913 Z M561 909 L562 908 L563 909 L562 910 Z M665 908 L667 913 L668 913 L667 909 Z M483 899 L484 898 L485 899 L484 900 Z M482 898 L483 897 L484 898 L483 899 Z M631 896 L632 895 L633 896 L632 897 Z M397 895 L396 895 L396 899 L394 903 L389 908 L387 907 L385 902 L383 902 L386 908 L384 912 L387 909 L390 909 L395 904 L397 900 Z M611 892 L612 893 L611 895 L608 896 L607 895 Z M443 892 L444 891 L445 892 L444 893 Z M645 891 L642 896 L634 903 L624 908 L617 910 L602 910 L587 906 L573 906 L572 907 L568 907 L565 909 L562 908 L570 901 L583 895 L595 894 L596 895 L605 896 L615 900 L623 901 L631 899 L639 895 L644 890 Z M420 891 L421 890 L425 894 L435 900 L443 902 L452 900 L458 896 L470 895 L483 900 L493 909 L491 910 L483 907 L470 907 L459 910 L445 909 L441 908 L430 902 Z M644 890 L645 889 L646 890 L645 891 Z M419 890 L420 889 L421 890 L420 891 Z M645 889 L646 888 L647 889 L646 890 Z M418 889 L419 888 L420 889 L419 890 Z M329 888 L328 891 L329 893 L331 893 L332 890 L331 888 Z M417 887 L418 886 L419 887 L418 888 Z M416 886 L417 885 L418 886 L417 887 Z M231 881 L232 890 L237 905 L237 908 L240 914 L248 922 L247 919 L242 915 L238 908 L234 894 L232 881 Z M636 880 L637 879 L638 880 L637 881 Z M337 883 L341 884 L345 880 L344 879 L340 883 L338 881 L339 880 L338 879 Z M171 879 L172 878 L173 879 L172 880 Z M621 877 L622 876 L623 877 L622 878 Z M421 875 L422 874 L423 875 L422 876 Z M402 875 L397 882 L396 887 L391 895 L393 894 L397 888 L398 883 L402 878 L404 882 L404 888 L406 891 L404 897 L406 897 L407 895 L407 885 L405 882 L405 879 Z M420 873 L421 872 L422 873 L421 874 Z M508 872 L509 877 L511 877 L510 873 Z M348 867 L346 868 L345 871 L347 871 Z M173 865 L177 872 L173 879 L172 878 L172 874 L173 873 L172 866 Z M499 860 L501 867 L504 870 L501 860 Z M348 855 L344 855 L337 865 L337 870 L340 874 L341 873 L339 871 L339 864 L345 856 L348 857 L349 859 L348 862 L350 862 L350 857 Z M624 854 L625 853 L626 854 L625 855 Z M617 845 L618 844 L619 845 L618 846 Z M616 843 L615 845 L617 847 L620 848 L622 847 L623 848 L622 850 L623 855 L626 858 L627 852 L624 850 L624 847 L621 844 Z M470 841 L469 845 L470 849 L471 849 L471 841 Z M440 839 L438 839 L437 841 L439 842 L435 846 L433 846 L431 849 L430 848 L431 843 L429 844 L429 849 L431 852 L433 851 L433 849 L435 847 L437 847 L440 844 Z M228 837 L228 841 L227 842 L228 844 L228 860 L229 861 L229 868 L230 869 L229 837 Z M706 835 L703 839 L705 844 L707 845 L707 843 L705 842 L705 838 L706 837 L708 839 L712 841 L715 841 L717 843 L713 848 L710 846 L710 848 L712 850 L718 845 L718 842 L716 840 L713 840 L709 838 Z M618 835 L619 838 L621 837 L625 842 L626 841 L626 839 L621 835 Z M505 830 L506 832 L511 835 L511 837 L509 839 L508 836 L506 837 L506 839 L500 849 L499 854 L493 858 L492 862 L494 862 L494 860 L497 857 L500 856 L502 848 L508 838 L513 850 L513 857 L515 861 L515 865 L513 868 L513 872 L515 878 L512 881 L512 883 L507 887 L502 880 L501 876 L500 876 L500 879 L504 884 L505 888 L509 888 L516 879 L515 867 L517 862 L514 856 L515 850 L510 841 L512 838 L512 834 Z M426 825 L422 829 L417 839 L416 847 L415 848 L416 859 L418 863 L417 871 L423 881 L425 881 L424 879 L425 876 L423 872 L418 869 L419 862 L417 857 L417 844 L420 835 L426 827 Z M383 821 L384 820 L385 821 L384 822 Z M229 821 L230 820 L231 821 L230 822 Z M402 819 L397 823 L396 827 L393 830 L387 841 L376 875 L376 879 L369 886 L370 890 L365 901 L360 906 L350 910 L345 917 L347 917 L352 910 L358 907 L363 906 L367 901 L371 891 L371 885 L375 883 L377 880 L377 876 L381 866 L381 863 L384 856 L387 844 L392 837 L392 835 L397 827 L396 826 L399 824 Z M566 817 L564 818 L561 817 L556 820 L553 826 L554 832 L558 838 L559 838 L560 832 L559 831 L558 832 L559 833 L558 835 L555 831 L555 823 L560 819 L563 819 L566 821 L567 819 Z M461 817 L462 816 L463 817 L462 818 Z M408 809 L409 808 L410 809 L409 810 Z M451 808 L451 809 L458 812 L461 818 L460 828 L461 832 L464 836 L464 833 L461 827 L462 818 L463 817 L466 822 L466 820 L464 816 L458 810 Z M408 851 L408 865 L411 878 L419 893 L429 903 L438 908 L454 912 L462 911 L472 908 L482 908 L495 912 L505 921 L512 925 L519 932 L523 943 L524 942 L522 935 L518 929 L519 928 L529 929 L530 928 L538 927 L539 928 L534 939 L534 951 L536 936 L540 928 L557 913 L559 913 L561 911 L574 907 L585 907 L601 911 L614 912 L630 907 L636 903 L644 896 L649 889 L654 878 L656 870 L656 865 L657 864 L657 851 L656 850 L655 842 L651 832 L647 826 L638 817 L633 814 L631 814 L636 817 L648 830 L652 838 L655 849 L655 866 L652 876 L646 886 L638 894 L634 896 L632 895 L631 886 L630 885 L631 880 L630 880 L629 883 L630 887 L629 889 L630 891 L629 896 L630 897 L629 898 L617 899 L612 897 L613 894 L612 889 L618 884 L617 881 L619 879 L623 879 L630 871 L630 869 L636 863 L638 865 L638 869 L637 870 L638 871 L636 874 L637 879 L635 881 L636 883 L639 882 L639 878 L637 875 L639 873 L640 866 L638 861 L636 861 L633 863 L630 869 L625 873 L623 873 L616 879 L614 885 L611 884 L611 886 L613 887 L611 889 L611 891 L605 895 L598 893 L586 893 L579 895 L569 901 L568 900 L570 895 L569 894 L563 905 L552 914 L539 920 L519 921 L509 918 L498 912 L488 902 L484 896 L479 886 L477 879 L476 880 L478 887 L483 896 L482 898 L467 893 L466 894 L456 895 L452 898 L445 890 L441 889 L440 890 L447 895 L448 899 L447 900 L440 900 L432 897 L426 893 L420 887 L416 881 L411 869 L411 865 L410 864 L410 848 L415 833 L419 826 L430 815 L437 811 L442 810 L443 808 L436 810 L429 814 L418 825 L412 836 Z M641 806 L642 805 L644 806 L643 807 Z M638 805 L639 804 L640 805 L639 806 Z M640 803 L641 802 L642 803 L641 804 Z M634 803 L635 802 L637 803 L636 804 Z M631 802 L632 801 L634 802 L633 803 Z M463 802 L464 801 L465 802 L464 803 Z M349 802 L350 801 L351 802 L350 803 Z M348 800 L347 803 L349 805 L351 804 L354 807 L353 808 L354 809 L352 811 L355 814 L356 810 L354 804 L352 801 Z M593 799 L594 798 L595 799 L594 800 Z M559 799 L559 802 L563 809 L563 815 L564 815 L565 810 Z M619 798 L620 797 L627 797 L630 800 L629 801 L628 800 L623 801 Z M490 797 L495 802 L495 805 L491 808 L490 811 L489 810 L490 806 L489 798 Z M598 797 L599 796 L600 797 L599 798 Z M594 797 L595 796 L596 797 L595 798 Z M599 796 L600 795 L601 796 L600 797 Z M595 796 L596 795 L597 796 L596 797 Z M596 795 L597 794 L598 795 L597 796 Z M599 794 L602 793 L603 795 L601 796 Z M436 793 L437 792 L440 793 L439 794 Z M798 951 L798 950 L796 950 L781 955 L767 956 L766 957 L744 956 L727 952 L717 948 L702 939 L686 922 L679 910 L675 899 L675 895 L674 894 L674 874 L677 861 L677 850 L673 837 L673 833 L667 822 L653 807 L638 799 L631 800 L630 799 L631 798 L626 795 L607 794 L602 791 L597 792 L594 794 L594 796 L591 799 L592 803 L589 806 L586 812 L584 821 L585 822 L586 820 L587 813 L590 807 L596 801 L606 796 L616 797 L621 802 L628 802 L630 804 L635 805 L640 808 L646 808 L648 806 L652 808 L665 822 L672 838 L673 842 L672 891 L673 892 L674 901 L680 915 L691 930 L698 937 L712 947 L732 955 L746 957 L749 959 L731 968 L726 967 L716 962 L713 966 L718 964 L720 966 L728 969 L706 977 L699 978 L688 982 L686 981 L693 973 L709 972 L713 969 L708 971 L697 971 L696 972 L694 971 L686 979 L677 979 L674 981 L670 980 L664 981 L657 978 L653 982 L647 982 L650 983 L666 983 L667 982 L675 982 L678 980 L685 982 L684 983 L680 983 L664 987 L659 987 L658 988 L653 988 L652 989 L647 989 L646 990 L632 991 L624 993 L615 993 L614 994 L605 994 L604 995 L580 996 L579 997 L511 997 L510 996 L492 996 L491 995 L480 995 L479 994 L469 994 L468 993 L444 991 L443 990 L437 990 L436 989 L430 989 L429 988 L408 985 L403 983 L399 983 L396 981 L402 976 L404 977 L408 975 L399 976 L394 981 L390 981 L386 979 L379 978 L357 971 L349 967 L352 966 L364 970 L373 970 L374 969 L378 972 L381 971 L388 965 L393 967 L400 964 L405 966 L404 964 L399 962 L393 966 L387 964 L380 970 L377 970 L375 968 L368 969 L365 968 L359 962 L358 957 L354 953 L347 954 L347 956 L350 955 L355 962 L354 965 L342 961 L336 961 L323 954 L325 952 L331 953 L333 950 L336 950 L342 946 L344 946 L348 943 L347 940 L344 941 L343 945 L335 949 L331 948 L327 951 L323 951 L321 953 L306 944 L302 940 L303 939 L323 939 L324 938 L333 937 L347 932 L358 926 L373 912 L381 901 L388 885 L389 876 L390 875 L390 849 L389 849 L389 857 L388 858 L388 880 L384 893 L375 908 L361 922 L354 927 L335 935 L327 936 L326 937 L318 937 L317 938 L308 938 L307 937 L294 936 L271 928 L273 930 L285 935 L296 937 L307 946 L306 947 L297 947 L293 949 L291 952 L297 949 L304 948 L315 952 L323 959 L322 960 L314 961 L306 972 L306 975 L309 969 L313 965 L320 961 L324 961 L330 968 L327 975 L328 981 L326 986 L327 991 L329 994 L330 993 L328 989 L328 985 L329 984 L331 990 L333 991 L329 979 L329 974 L332 972 L336 978 L337 976 L354 994 L373 1009 L399 1025 L418 1034 L449 1045 L452 1045 L468 1050 L488 1053 L489 1054 L505 1055 L506 1056 L519 1056 L520 1057 L548 1057 L549 1056 L562 1056 L563 1055 L578 1054 L579 1053 L594 1051 L603 1048 L607 1048 L647 1034 L681 1016 L707 998 L724 983 L725 986 L726 986 L725 983 L726 981 L734 974 L738 980 L737 982 L739 984 L740 988 L739 990 L740 991 L740 996 L742 996 L739 978 L736 975 L737 973 L748 974 L758 978 L761 981 L759 977 L753 974 L742 972 L738 970 L741 968 L752 968 L759 972 L756 968 L751 966 L744 966 L743 965 L752 958 L772 958 Z M560 790 L561 789 L562 791 L561 792 Z M561 789 L562 788 L563 789 L562 790 Z M254 786 L253 789 L255 791 L256 787 Z M564 784 L559 789 L558 796 L563 792 Z M496 783 L494 788 L494 797 L493 798 L488 792 L487 800 L489 804 L488 805 L488 812 L491 824 L494 827 L497 827 L499 829 L501 829 L504 827 L504 822 L505 821 L504 812 L503 811 L502 812 L503 814 L503 823 L501 827 L495 826 L491 819 L492 810 L496 806 L496 802 L498 800 L498 797 L495 794 L497 786 Z M360 781 L359 782 L346 782 L343 784 L339 784 L338 785 L334 784 L331 786 L334 787 L335 786 L341 786 L345 784 L349 784 L354 786 L358 784 Z M368 778 L364 780 L364 781 L368 780 Z M488 775 L486 777 L486 783 L484 787 L484 791 L485 792 L487 785 Z M252 767 L246 772 L246 775 L244 779 L239 783 L236 790 L232 795 L231 802 L229 806 L229 816 L230 817 L230 819 L228 821 L228 828 L229 830 L230 825 L232 823 L232 819 L230 815 L230 807 L232 802 L232 798 L233 797 L235 799 L236 805 L239 810 L240 810 L242 804 L244 802 L244 798 L245 797 L245 795 L244 795 L243 801 L239 807 L237 804 L237 801 L233 795 L238 789 L239 785 L246 778 L247 774 L251 771 Z M519 766 L517 766 L518 768 L515 772 L515 776 L516 777 L515 784 L508 791 L507 797 L503 802 L503 807 L504 807 L505 801 L509 796 L509 792 L517 783 L517 771 L520 769 Z M497 765 L496 770 L497 773 L499 773 L498 770 L498 766 L499 765 Z M567 760 L565 761 L564 764 L563 781 L564 781 L564 775 L565 774 Z M511 759 L509 759 L511 763 L509 770 L512 767 Z M554 749 L556 748 L559 751 L557 752 Z M281 746 L283 746 L285 748 L281 757 L281 763 L284 765 L284 768 L287 772 L285 775 L282 775 L278 770 L280 765 L275 755 Z M281 744 L274 753 L274 756 L278 764 L277 771 L281 776 L285 777 L289 773 L286 769 L285 764 L282 762 L282 758 L285 753 L286 747 Z M499 743 L496 746 L495 756 L487 767 L487 773 L488 773 L488 770 L491 768 L491 764 L497 755 L498 744 Z M922 731 L924 734 L927 734 L929 736 L928 746 L929 747 L933 747 L935 749 L936 752 L936 769 L939 778 L938 781 L938 792 L937 793 L937 806 L938 807 L938 829 L939 830 L939 856 L941 862 L941 875 L940 878 L941 879 L941 886 L942 887 L943 921 L942 922 L942 930 L940 936 L935 941 L931 940 L926 942 L921 949 L921 953 L918 959 L910 959 L907 962 L903 972 L901 969 L900 960 L899 959 L898 935 L897 934 L897 876 L898 875 L899 838 L900 837 L900 827 L901 826 L902 811 L903 810 L903 804 L904 803 L907 782 L915 751 Z M926 725 L927 726 L927 731 L925 733 L923 727 Z M289 724 L290 723 L291 724 L290 725 Z M288 723 L289 722 L290 723 L289 724 Z M780 718 L781 717 L782 718 L781 719 Z M441 710 L442 709 L443 710 L442 711 Z M252 708 L253 707 L254 708 L253 709 Z M461 707 L460 707 L459 710 Z M555 704 L554 705 L557 712 L557 715 L559 718 L559 721 L569 752 L565 753 L554 745 L552 746 L552 748 L558 756 L559 756 L558 752 L559 751 L564 753 L567 756 L567 758 L568 758 L569 755 L570 756 L574 773 L574 779 L575 780 L576 813 L577 812 L577 783 L576 782 L575 769 L570 749 L568 745 L568 742 Z M292 704 L293 703 L294 704 L293 705 Z M293 703 L294 702 L295 703 L294 704 Z M294 702 L295 701 L296 702 L295 703 Z M295 701 L296 700 L298 701 L297 702 Z M297 700 L298 699 L299 700 L298 701 Z M500 699 L498 702 L498 705 L490 728 L488 738 L484 748 L483 756 L481 760 L478 776 L476 781 L475 793 L468 799 L461 800 L453 794 L450 795 L449 794 L445 794 L441 791 L436 791 L430 796 L421 801 L419 801 L411 807 L406 807 L404 805 L401 805 L396 808 L387 818 L383 819 L382 824 L384 824 L393 813 L401 807 L405 806 L407 810 L403 817 L413 807 L430 797 L434 797 L438 795 L444 795 L452 797 L460 801 L467 809 L469 814 L469 822 L468 823 L469 825 L468 837 L469 838 L470 836 L471 816 L468 808 L464 803 L473 796 L474 797 L473 810 L474 809 L473 808 L475 801 L475 793 L483 761 L483 756 L485 753 L485 750 L489 740 L493 723 L499 706 Z M433 699 L434 698 L435 699 L434 700 Z M298 699 L299 698 L300 699 L299 700 Z M271 699 L272 698 L273 699 L272 700 Z M432 698 L433 697 L434 698 L433 699 Z M770 697 L771 696 L772 697 L771 698 Z M431 697 L432 696 L433 697 L432 698 Z M769 696 L770 695 L771 696 L770 697 Z M430 696 L431 695 L432 696 L431 697 Z M767 695 L768 694 L769 695 L768 696 Z M429 695 L430 694 L431 695 L430 696 Z M627 694 L628 693 L629 694 L628 695 Z M628 693 L629 692 L630 693 L629 694 Z M551 693 L547 696 L545 696 L542 699 L542 704 L530 714 L529 719 L531 724 L527 728 L526 734 L531 740 L528 744 L524 743 L520 747 L526 744 L530 748 L530 743 L532 738 L527 732 L528 729 L533 724 L531 720 L531 714 L541 707 L543 704 L543 699 L544 698 L548 697 L550 695 L553 699 Z M629 692 L630 691 L631 692 L630 693 Z M630 691 L631 690 L632 691 L631 692 Z M195 690 L196 691 L195 694 L194 693 Z M631 690 L632 689 L633 690 L632 691 Z M632 689 L633 688 L634 689 L633 690 Z M509 683 L508 686 L505 688 L506 689 L508 687 L513 694 L512 699 L508 705 L509 714 L510 715 L514 711 L518 711 L522 708 L524 708 L526 711 L528 711 L522 706 L527 704 L529 702 L528 701 L525 704 L518 704 L516 701 L521 690 L519 691 L515 699 L516 704 L521 707 L517 710 L513 710 L512 711 L509 707 L513 700 L514 693 L509 686 L510 685 L510 683 Z M588 679 L589 680 L588 684 L587 683 Z M501 679 L500 683 L502 687 L503 687 Z M266 679 L263 682 L264 685 L265 685 Z M204 679 L206 678 L208 680 L206 681 Z M248 677 L247 678 L248 681 Z M387 674 L390 673 L407 681 L422 691 L442 709 L430 712 L415 720 L399 726 L381 729 L380 728 L387 724 L394 716 L397 710 L398 702 L399 701 L398 691 L392 679 Z M385 673 L386 672 L388 673 L387 674 Z M350 673 L343 679 L339 686 L337 693 L337 703 L342 716 L347 722 L355 727 L354 728 L337 725 L326 721 L304 710 L291 707 L298 703 L312 691 L328 680 L346 672 Z M820 672 L818 678 L819 678 Z M673 671 L667 678 L664 684 L662 691 L662 702 L665 711 L670 718 L676 723 L682 726 L681 727 L675 727 L674 726 L669 726 L647 719 L637 714 L624 710 L617 710 L616 709 L630 694 L644 683 L664 672 L669 670 Z M190 671 L191 670 L192 671 L191 672 Z M672 670 L673 669 L675 670 L674 671 Z M705 726 L714 721 L721 713 L725 703 L725 688 L723 682 L716 672 L712 669 L713 668 L723 671 L734 676 L748 684 L765 696 L777 702 L761 706 L745 714 L743 716 L741 716 L726 723 L709 726 L708 727 Z M366 668 L375 669 L385 674 L393 683 L397 693 L397 705 L393 715 L385 724 L373 729 L362 729 L353 725 L343 715 L339 704 L339 691 L343 682 L353 672 L360 669 L365 669 Z M685 666 L697 665 L698 666 L706 667 L711 670 L719 678 L723 687 L724 699 L723 700 L723 705 L719 713 L709 723 L700 727 L688 727 L678 723 L668 713 L664 703 L664 689 L669 678 L677 670 Z M299 698 L317 680 L331 670 L344 664 L358 662 L359 661 L371 661 L391 666 L412 678 L430 694 L428 695 L411 682 L389 671 L373 667 L361 667 L356 669 L348 670 L337 674 L318 685 L301 699 Z M247 687 L247 695 L252 711 L252 714 L255 719 L263 725 L269 725 L273 723 L285 724 L291 727 L312 749 L326 759 L340 766 L364 772 L382 772 L383 771 L393 770 L403 767 L416 761 L430 751 L442 739 L454 722 L458 713 L456 715 L451 725 L442 737 L429 750 L416 759 L406 764 L389 769 L384 769 L383 770 L363 770 L342 765 L324 756 L312 747 L300 735 L287 717 L286 718 L289 722 L288 723 L277 721 L265 724 L262 723 L256 718 L255 714 L253 712 L253 709 L254 708 L257 711 L264 714 L274 714 L290 708 L291 709 L297 709 L304 711 L323 721 L340 727 L354 729 L355 730 L365 730 L366 731 L392 729 L409 724 L428 714 L438 711 L446 712 L445 709 L435 697 L413 677 L392 665 L374 660 L356 660 L343 663 L330 669 L320 676 L286 707 L279 711 L272 713 L261 712 L252 705 L249 698 L248 687 Z M633 688 L644 677 L652 671 L663 665 L677 660 L681 660 L687 658 L701 658 L720 663 L735 670 L768 694 L767 695 L764 694 L744 680 L722 669 L709 665 L695 664 L694 663 L693 664 L686 664 L674 667 L663 671 L648 679 L635 689 Z M471 659 L471 661 L476 666 L481 669 L487 670 L489 672 L498 675 L493 669 L489 669 L487 667 L486 663 L485 663 L486 667 L483 668 L477 665 Z M803 654 L804 660 L805 660 L805 655 Z M192 651 L195 656 L197 670 L201 671 L201 674 L203 677 L203 679 L199 681 L194 691 L193 690 L191 674 L194 672 L195 669 L193 667 L191 669 L190 668 L189 658 L188 657 L188 655 Z M573 649 L574 648 L576 649 L575 650 Z M556 649 L557 648 L563 649 L565 651 L560 653 Z M469 649 L470 648 L473 651 L471 652 Z M575 648 L579 646 L580 647 L582 646 L586 649 L582 650 Z M539 647 L540 646 L541 647 L540 648 Z M547 647 L550 645 L555 648 L554 649 L549 649 Z M259 702 L260 703 L269 703 L277 700 L286 693 L313 666 L331 654 L344 649 L352 647 L359 647 L360 646 L378 647 L395 652 L405 657 L425 671 L442 688 L452 701 L453 700 L442 686 L427 671 L406 656 L396 651 L381 646 L376 646 L375 645 L355 645 L339 649 L320 659 L302 674 L283 694 L276 699 L274 698 L274 696 L269 698 L267 695 L268 692 L266 689 L264 689 L262 691 L262 693 L263 694 L265 692 L266 693 L266 696 L264 697 L265 700 L268 699 L270 700 L268 702 Z M577 644 L578 643 L581 644 L580 645 Z M593 707 L595 709 L595 712 L597 715 L600 717 L603 716 L605 717 L609 727 L622 743 L633 753 L642 759 L655 766 L670 771 L683 772 L684 773 L700 773 L701 772 L707 772 L722 768 L744 757 L762 742 L773 729 L779 720 L786 718 L786 717 L784 718 L781 717 L785 710 L784 710 L769 732 L747 753 L722 766 L701 771 L675 770 L655 764 L643 758 L633 751 L621 740 L612 729 L606 716 L615 710 L616 711 L628 712 L654 723 L673 728 L682 728 L683 729 L710 728 L732 722 L764 706 L771 704 L787 704 L788 705 L796 705 L797 706 L807 704 L814 699 L817 694 L818 688 L817 688 L814 697 L810 701 L803 704 L786 703 L771 695 L736 669 L716 660 L713 660 L705 657 L692 656 L691 657 L684 657 L672 660 L656 667 L635 683 L624 695 L616 707 L611 712 L606 715 L605 713 L603 715 L600 715 L597 712 L596 708 L597 706 L601 705 L606 701 L622 679 L640 662 L650 655 L662 649 L684 643 L705 643 L726 649 L746 660 L779 687 L792 694 L805 695 L811 691 L804 694 L797 694 L793 692 L801 673 L800 673 L797 679 L793 691 L790 692 L777 684 L748 660 L739 654 L725 647 L701 641 L687 641 L663 647 L646 656 L624 675 L602 703 L597 706 L595 701 L593 702 Z M567 631 L570 631 L572 633 L574 639 L577 641 L576 645 L572 648 L565 648 L564 647 L565 646 L563 643 L562 635 Z M568 628 L569 627 L571 629 L569 630 Z M564 611 L566 619 L569 621 L569 623 L568 624 L568 628 L563 632 L557 624 L558 618 L562 615 Z M285 601 L286 600 L287 601 L286 602 Z M286 599 L287 598 L288 600 L287 601 Z M484 595 L485 598 L482 602 L481 601 L481 597 Z M491 592 L493 598 L497 601 L498 598 Z M565 591 L564 591 L563 595 L565 594 Z M289 588 L290 591 L293 593 L293 595 L288 599 L286 592 Z M947 578 L949 584 L949 596 L948 597 L947 621 L946 622 L946 634 L947 635 L947 645 L948 646 L948 676 L947 677 L947 683 L946 684 L945 692 L938 712 L935 713 L931 720 L926 724 L925 723 L926 719 L939 689 L939 686 L941 683 L944 673 L941 678 L936 694 L931 704 L926 719 L923 723 L920 722 L922 725 L922 729 L920 732 L913 753 L913 756 L907 775 L907 779 L903 795 L903 800 L902 801 L902 806 L901 807 L900 821 L899 822 L898 842 L897 843 L897 858 L896 859 L895 925 L896 926 L897 957 L898 958 L900 972 L897 974 L890 973 L886 977 L883 978 L882 984 L879 990 L876 993 L871 994 L864 989 L866 984 L866 977 L868 969 L869 951 L870 950 L870 934 L871 933 L875 750 L886 747 L893 741 L895 737 L905 699 L905 695 L909 679 L911 675 L917 650 L922 637 L922 634 L938 594 Z M481 577 L479 579 L477 579 L475 582 L476 590 L481 598 L479 602 L480 603 L480 608 L482 607 L484 601 L489 597 L489 595 L486 596 L485 593 L483 593 L481 595 L478 591 L476 584 L478 580 L482 578 Z M568 576 L565 579 L565 585 L567 584 Z M481 573 L482 572 L483 573 L482 574 Z M482 572 L483 571 L484 572 L483 573 Z M473 572 L474 571 L475 572 L474 573 Z M802 645 L801 638 L799 635 L798 630 L790 614 L783 604 L770 590 L758 581 L743 573 L735 570 L723 567 L718 567 L717 566 L690 566 L689 567 L679 568 L658 575 L643 583 L624 598 L609 616 L600 632 L595 647 L593 650 L590 650 L574 636 L572 628 L570 626 L570 620 L567 617 L564 603 L563 603 L563 609 L560 615 L558 614 L556 615 L552 607 L553 606 L553 600 L556 596 L560 597 L561 596 L559 594 L555 595 L553 597 L551 609 L557 619 L556 620 L556 625 L561 632 L561 639 L564 647 L563 648 L558 647 L552 644 L549 644 L545 647 L543 647 L533 637 L532 639 L534 639 L539 645 L534 647 L529 645 L524 649 L513 645 L507 645 L501 639 L496 641 L496 643 L500 640 L507 647 L512 649 L521 649 L522 650 L526 649 L554 650 L561 655 L564 653 L570 653 L573 651 L590 651 L591 652 L585 655 L579 662 L574 664 L572 664 L571 662 L566 662 L565 663 L571 663 L572 664 L566 667 L562 671 L558 670 L555 672 L552 677 L552 681 L550 686 L551 687 L553 683 L553 678 L558 672 L564 672 L570 666 L579 665 L582 662 L582 660 L592 652 L593 655 L591 661 L591 677 L589 679 L588 677 L586 677 L585 682 L588 687 L587 690 L588 696 L590 697 L590 693 L592 691 L590 687 L591 672 L592 671 L592 665 L593 664 L596 647 L606 624 L616 609 L637 589 L646 583 L662 575 L673 571 L686 568 L714 567 L715 568 L726 569 L742 574 L754 580 L767 589 L780 602 L790 616 L796 628 L801 642 L801 645 Z M258 565 L259 564 L260 565 L259 566 Z M919 552 L937 564 L947 574 L947 576 L938 591 L938 593 L933 602 L923 627 L908 676 L894 735 L891 741 L887 745 L883 747 L876 748 L875 747 L875 733 L874 732 L873 672 L874 671 L875 643 L876 642 L877 629 L879 624 L880 615 L887 592 L899 567 L909 555 L915 552 Z M194 552 L199 557 L203 567 L210 593 L213 613 L214 614 L214 619 L215 620 L215 626 L216 627 L217 644 L218 645 L218 657 L219 658 L218 710 L217 711 L216 732 L215 733 L213 763 L212 764 L211 789 L210 790 L210 816 L209 817 L210 876 L211 877 L211 889 L212 890 L212 900 L213 901 L213 910 L214 911 L216 936 L217 937 L218 948 L220 954 L219 957 L208 950 L204 949 L201 946 L199 940 L197 940 L187 935 L187 923 L188 922 L188 787 L187 786 L187 772 L186 771 L185 752 L184 751 L184 745 L183 744 L181 728 L176 708 L174 704 L174 701 L172 697 L172 694 L170 690 L170 687 L168 683 L165 669 L164 669 L169 691 L171 695 L176 717 L178 721 L178 725 L181 736 L183 757 L184 758 L184 767 L185 768 L185 780 L186 781 L186 805 L187 806 L186 855 L187 857 L186 858 L186 927 L184 934 L178 928 L178 924 L174 918 L170 904 L170 885 L176 878 L178 874 L178 871 L174 863 L171 860 L170 817 L171 816 L172 749 L171 748 L170 722 L169 721 L168 711 L167 710 L167 706 L164 696 L164 690 L162 684 L162 666 L163 665 L164 650 L166 644 L165 582 L167 579 L170 585 L178 612 L178 616 L181 625 L184 645 L186 651 L189 674 L190 675 L190 682 L193 695 L194 709 L198 725 L200 726 L198 721 L196 706 L195 705 L195 694 L199 684 L202 681 L207 683 L209 681 L209 679 L203 674 L202 670 L198 667 L197 657 L194 651 L191 650 L188 653 L187 652 L185 636 L177 602 L174 595 L173 589 L169 579 L167 577 L168 572 L175 565 Z M582 541 L583 540 L584 541 L583 542 Z M246 531 L248 532 L251 537 L253 536 L255 537 L254 540 L261 534 L263 539 L263 541 L258 547 L248 568 L242 558 L242 554 L245 548 L243 534 Z M872 529 L873 528 L874 529 L873 530 Z M873 528 L874 527 L875 528 L874 529 Z M579 523 L575 527 L577 530 L578 530 L579 527 Z M489 505 L492 508 L504 512 L517 514 L518 515 L525 515 L526 516 L548 515 L564 510 L567 510 L573 507 L572 506 L569 508 L553 513 L548 513 L541 515 L540 514 L538 515 L529 515 L527 514 L526 515 L525 514 L519 514 L518 513 L501 510 Z M604 501 L602 501 L599 506 L595 505 L593 503 L589 503 L582 512 L581 519 L582 519 L584 511 L590 504 L593 505 L590 508 L597 506 L600 508 L598 513 L605 515 L605 513 L600 513 L599 512 L601 509 L600 508 L601 504 Z M891 499 L890 499 L887 507 L885 509 L879 511 L874 517 L874 524 L870 530 L871 532 L873 532 L881 525 L882 521 L884 519 L884 514 L882 513 L883 517 L881 522 L875 528 L874 526 L876 523 L876 516 L881 511 L887 509 L890 504 Z M578 533 L581 537 L581 540 L583 543 L573 559 L569 569 L569 572 L582 546 L587 539 L600 525 L621 509 L646 497 L652 496 L659 493 L663 493 L668 491 L674 491 L675 490 L706 489 L707 490 L715 490 L716 491 L733 494 L736 496 L744 498 L758 505 L778 519 L790 531 L804 551 L813 570 L819 590 L821 606 L822 607 L822 615 L823 616 L823 646 L822 647 L822 656 L821 657 L821 664 L820 665 L820 667 L821 667 L822 658 L823 657 L823 650 L824 649 L824 612 L823 611 L823 604 L822 603 L820 589 L814 569 L806 552 L793 533 L777 517 L755 502 L734 493 L731 493 L723 490 L712 489 L711 488 L690 487 L689 488 L671 489 L670 490 L657 492 L629 503 L603 520 L598 526 L597 525 L598 519 L597 519 L596 527 L594 529 L589 528 L585 530 L584 532 L586 532 L589 529 L593 530 L584 541 L582 536 L580 535 L580 532 Z M313 499 L321 489 L328 486 L334 490 L339 487 L343 487 L345 490 L344 493 L334 494 L316 500 Z M920 488 L921 485 L923 487 L921 489 Z M896 482 L895 482 L891 494 L893 494 Z M895 468 L896 476 L897 476 L897 469 Z M250 467 L246 471 L243 479 L245 483 L244 484 L245 488 L246 488 L246 481 L244 479 L250 469 Z M255 455 L252 458 L252 460 L253 459 L254 460 L254 470 L253 473 L255 471 Z M432 453 L459 470 L477 479 L497 486 L510 488 L511 489 L516 489 L517 490 L523 490 L524 491 L556 491 L557 490 L564 490 L565 489 L571 489 L581 486 L585 486 L612 476 L638 462 L637 461 L609 476 L594 481 L591 483 L574 487 L563 488 L562 489 L531 490 L530 489 L520 489 L519 488 L507 487 L480 479 L456 467 L436 454 Z M296 453 L297 452 L298 453 L297 454 Z M376 442 L377 441 L378 442 L377 443 Z M380 447 L381 449 L372 457 L368 458 L365 463 L365 470 L368 477 L367 483 L369 488 L372 491 L371 492 L369 491 L354 491 L350 492 L346 490 L352 485 L358 484 L358 483 L351 484 L347 488 L341 485 L335 488 L333 488 L329 485 L326 485 L320 488 L310 500 L306 497 L309 492 L309 486 L313 481 L311 477 L311 474 L313 470 L317 466 L321 469 L327 466 L331 462 L331 459 L337 454 L342 452 L345 449 L345 446 L349 442 L353 440 L363 440 L368 442 L373 442 Z M650 455 L652 455 L670 446 L694 440 L718 441 L730 444 L743 450 L745 452 L747 452 L736 445 L724 441 L720 441 L714 439 L692 439 L669 445 L652 453 Z M394 438 L395 440 L402 441 L414 445 L427 451 L424 448 L410 442 Z M354 438 L355 437 L357 438 L356 439 Z M304 438 L305 437 L306 438 L305 439 Z M380 436 L381 435 L382 436 L381 437 Z M342 436 L343 435 L345 437 L343 438 Z M302 426 L303 425 L304 426 L303 427 Z M303 425 L304 424 L305 425 L304 426 Z M272 419 L273 418 L274 419 L273 420 Z M326 418 L329 416 L330 417 L329 419 Z M334 415 L335 414 L336 415 L335 416 Z M796 414 L793 418 L792 425 L795 428 L802 429 L805 426 L806 422 L800 428 L793 424 L795 421 L795 417 L797 415 L799 416 L800 415 Z M722 410 L712 407 L696 407 L695 408 L691 408 L672 414 L656 422 L651 426 L673 415 L687 410 L697 409 L698 408 L710 408 L711 409 Z M808 406 L803 411 L803 413 L808 408 L812 412 L809 416 L809 418 L810 418 L813 413 L813 411 Z M390 404 L408 410 L426 419 L409 409 L398 405 Z M301 396 L297 397 L294 401 L293 408 L295 413 L292 416 L292 418 L296 415 L295 403 L296 400 L300 397 L304 400 L308 409 L306 415 L307 415 L309 411 L309 407 L307 405 L304 398 Z M266 388 L267 387 L268 388 L267 389 Z M772 363 L776 367 L778 367 L780 369 L780 372 L771 377 L766 372 Z M771 362 L769 367 L766 370 L766 373 L771 378 L773 378 L780 374 L781 369 L780 367 L776 366 L773 362 Z M249 358 L247 366 L245 369 L249 372 L249 378 L253 384 L255 385 L257 382 L256 379 L259 375 L256 377 L254 383 L250 377 L251 376 L250 371 L247 369 L250 358 Z M364 341 L366 349 L365 350 L366 354 L365 360 L366 360 L368 358 L368 356 L367 355 L365 341 Z M384 333 L385 332 L386 333 L385 334 Z M385 331 L386 330 L387 332 L386 333 Z M362 330 L363 329 L364 330 L363 331 Z M251 312 L252 314 L247 322 L245 320 L245 318 L247 316 L247 314 Z M368 312 L369 311 L370 312 L369 313 Z M251 311 L252 310 L253 312 L252 313 Z M255 307 L249 311 L245 316 L244 321 L246 323 L248 323 L249 320 L253 316 L256 308 Z M389 305 L390 304 L391 305 L390 306 Z M390 304 L391 303 L392 304 L391 305 Z M690 295 L688 311 L680 337 L666 362 L646 383 L631 394 L612 404 L592 411 L580 414 L569 415 L568 416 L529 417 L528 416 L518 416 L517 415 L505 414 L474 405 L456 397 L432 381 L417 367 L406 353 L393 327 L400 345 L412 363 L429 380 L450 395 L475 407 L498 414 L513 416 L514 417 L536 418 L537 419 L564 418 L565 417 L572 417 L573 416 L582 415 L606 408 L625 399 L648 383 L662 369 L669 360 L680 340 L688 316 L689 306 L690 305 Z M339 267 L340 266 L341 267 L340 268 Z M340 266 L341 265 L342 266 L341 267 Z M401 258 L402 265 L409 269 L415 269 L423 262 L421 260 L414 260 L414 261 L420 261 L421 262 L416 267 L411 268 L407 267 L403 264 L403 256 L404 255 L408 255 L405 253 Z M742 250 L743 249 L744 250 L743 251 Z M352 248 L349 247 L343 248 L333 258 L337 264 L337 267 L340 268 L338 271 L337 276 L329 282 L324 284 L322 289 L324 292 L324 299 L320 304 L313 305 L304 302 L301 299 L300 294 L297 291 L292 290 L285 294 L280 295 L278 299 L275 301 L274 305 L270 306 L268 309 L268 318 L265 323 L265 325 L267 327 L271 338 L266 347 L263 346 L261 348 L260 353 L257 359 L260 357 L262 349 L267 347 L270 353 L270 361 L265 369 L262 371 L261 374 L262 376 L264 375 L267 380 L267 386 L264 387 L264 388 L268 391 L268 397 L271 404 L271 408 L268 414 L268 418 L272 421 L270 427 L272 431 L273 431 L274 427 L274 418 L287 409 L288 406 L282 411 L277 412 L272 419 L269 416 L272 410 L272 401 L269 396 L270 393 L268 385 L269 381 L266 375 L263 373 L268 367 L272 359 L272 355 L269 348 L269 345 L272 340 L272 334 L267 325 L270 317 L269 310 L271 307 L272 309 L275 306 L277 301 L279 303 L286 306 L285 304 L279 301 L279 298 L282 295 L284 296 L293 291 L296 292 L299 295 L301 301 L303 303 L311 305 L314 307 L321 305 L326 298 L326 293 L324 290 L325 285 L338 278 L339 272 L343 267 L342 264 L339 265 L335 258 L344 249 L347 248 L351 250 L349 255 L353 251 Z M732 237 L742 242 L744 248 L741 250 L739 248 L732 245 L730 241 Z M732 236 L729 239 L729 242 L731 246 L742 252 L744 252 L746 247 L744 242 Z M765 225 L768 229 L767 232 L763 229 Z M755 210 L769 218 L778 221 L774 227 L774 229 L778 234 L777 237 L772 240 L771 239 L770 235 L767 232 L769 231 L767 225 L755 215 L754 212 Z M658 196 L659 195 L663 195 L664 197 L661 200 Z M663 195 L664 194 L665 195 L664 196 Z M657 195 L658 194 L659 195 L658 196 Z M738 203 L752 209 L752 211 L754 213 L754 216 L765 225 L763 226 L762 230 L770 237 L770 240 L772 242 L779 237 L779 234 L775 228 L777 223 L780 220 L782 220 L806 233 L821 243 L837 256 L855 274 L874 298 L884 313 L895 333 L895 335 L902 348 L902 350 L912 371 L920 396 L923 416 L924 417 L924 425 L925 426 L925 442 L924 443 L924 457 L922 463 L920 479 L918 481 L919 483 L918 494 L924 488 L926 487 L930 488 L932 486 L937 493 L937 496 L934 504 L934 514 L930 520 L929 530 L926 534 L922 549 L920 552 L919 551 L915 551 L909 554 L901 562 L896 569 L888 585 L881 605 L876 626 L875 637 L874 638 L873 657 L872 658 L873 792 L872 793 L872 842 L871 843 L870 917 L869 918 L868 954 L867 955 L867 963 L866 964 L866 971 L865 972 L865 979 L864 980 L863 989 L858 991 L855 989 L847 994 L845 993 L845 990 L843 988 L841 988 L837 991 L834 991 L832 994 L832 997 L827 1009 L814 1028 L813 1033 L809 1039 L807 1047 L802 1051 L803 1054 L799 1056 L799 1063 L797 1067 L788 1079 L777 1086 L776 1084 L773 1084 L769 1079 L764 1089 L763 1094 L759 1097 L750 1096 L748 1093 L746 1093 L743 1097 L743 1100 L740 1108 L737 1110 L728 1111 L726 1113 L724 1120 L714 1128 L712 1135 L706 1144 L702 1144 L698 1137 L696 1136 L692 1139 L687 1140 L679 1130 L677 1132 L677 1139 L673 1143 L669 1143 L668 1144 L669 1153 L665 1157 L662 1163 L659 1166 L652 1166 L650 1168 L648 1174 L641 1174 L636 1181 L630 1184 L623 1183 L620 1174 L625 1164 L625 1157 L626 1156 L626 1151 L628 1147 L628 1141 L619 1134 L609 1133 L600 1125 L594 1126 L583 1121 L595 1117 L610 1110 L628 1099 L641 1089 L682 1049 L696 1033 L701 1025 L671 1059 L645 1084 L630 1096 L609 1109 L585 1119 L561 1125 L547 1126 L546 1127 L510 1127 L509 1126 L500 1126 L499 1125 L488 1124 L483 1122 L490 1118 L493 1119 L496 1116 L490 1118 L488 1117 L482 1122 L479 1122 L457 1115 L430 1101 L413 1088 L401 1077 L382 1056 L358 1024 L363 1033 L389 1066 L417 1093 L434 1105 L451 1114 L453 1114 L463 1119 L480 1124 L479 1129 L475 1132 L473 1136 L473 1141 L467 1144 L466 1146 L466 1153 L463 1161 L464 1162 L463 1169 L464 1168 L465 1170 L463 1172 L460 1173 L457 1171 L453 1171 L448 1169 L443 1169 L440 1171 L434 1170 L434 1174 L432 1176 L425 1176 L424 1178 L425 1183 L423 1186 L420 1186 L417 1183 L415 1184 L412 1181 L409 1180 L408 1178 L406 1180 L405 1179 L404 1180 L396 1180 L392 1174 L389 1174 L385 1170 L384 1167 L382 1171 L374 1169 L375 1162 L371 1158 L367 1156 L365 1150 L366 1141 L364 1137 L357 1144 L357 1147 L350 1153 L345 1150 L343 1145 L341 1147 L338 1147 L334 1142 L326 1141 L322 1135 L321 1126 L319 1124 L315 1123 L311 1119 L310 1110 L305 1103 L304 1099 L302 1098 L296 1103 L292 1099 L289 1098 L286 1091 L284 1089 L281 1089 L274 1081 L271 1080 L266 1075 L262 1065 L261 1057 L258 1053 L251 1049 L249 1043 L245 1040 L248 1034 L248 1027 L247 1027 L247 1031 L245 1037 L244 1035 L242 1035 L240 1033 L236 1025 L235 1020 L233 1017 L233 1011 L229 999 L222 991 L220 987 L219 980 L216 974 L219 963 L221 962 L223 964 L220 947 L221 946 L225 950 L219 942 L218 932 L217 931 L214 894 L213 893 L212 863 L211 862 L212 788 L213 787 L213 772 L214 771 L215 750 L216 749 L216 740 L217 739 L217 730 L218 729 L218 720 L219 719 L220 690 L221 689 L221 664 L220 663 L220 649 L219 648 L218 629 L217 628 L217 622 L216 621 L213 599 L203 563 L199 555 L194 550 L194 546 L193 545 L192 531 L191 530 L191 524 L189 516 L189 508 L188 507 L187 484 L186 483 L186 463 L185 462 L185 434 L186 433 L186 416 L187 415 L188 395 L189 394 L189 388 L190 387 L192 371 L199 348 L208 330 L216 322 L224 317 L223 314 L226 308 L226 300 L236 281 L252 264 L257 262 L260 259 L261 255 L266 248 L279 236 L301 221 L325 210 L371 197 L375 197 L376 196 L380 196 L381 197 L377 203 L376 211 L372 219 L372 223 L375 228 L374 236 L373 237 L371 236 L365 239 L360 246 L361 247 L363 245 L363 243 L369 238 L372 238 L374 241 L374 247 L373 248 L374 258 L370 268 L368 278 L365 280 L362 277 L360 277 L351 286 L347 287 L339 282 L345 288 L350 287 L353 289 L354 291 L353 300 L356 302 L354 314 L363 326 L355 339 L355 347 L356 349 L355 350 L355 354 L352 360 L352 364 L355 367 L357 375 L362 380 L362 384 L359 393 L361 393 L363 387 L363 383 L364 382 L365 383 L364 393 L366 397 L366 401 L362 406 L362 409 L364 412 L363 423 L362 424 L361 423 L362 424 L360 425 L358 421 L356 421 L360 428 L358 434 L352 437 L347 437 L344 434 L341 433 L340 428 L335 424 L335 419 L337 416 L337 413 L330 414 L323 418 L317 419 L310 425 L305 425 L304 424 L305 419 L301 426 L301 432 L304 436 L302 442 L307 439 L310 439 L319 434 L321 434 L323 432 L322 431 L320 433 L317 433 L311 437 L306 438 L302 431 L303 428 L306 426 L312 425 L316 421 L319 421 L326 418 L327 419 L326 429 L327 429 L328 422 L333 415 L335 416 L333 420 L333 423 L339 429 L341 438 L343 440 L346 438 L350 440 L344 445 L343 449 L341 451 L336 453 L330 458 L329 462 L326 465 L322 467 L319 465 L316 465 L313 468 L310 474 L311 482 L308 486 L308 491 L305 496 L305 498 L309 502 L297 508 L284 517 L274 526 L265 537 L264 536 L264 531 L270 517 L268 513 L268 507 L273 490 L276 485 L275 483 L277 481 L280 474 L281 467 L284 459 L287 456 L290 459 L294 455 L297 456 L299 454 L299 449 L303 448 L305 450 L304 453 L309 452 L312 457 L311 459 L314 458 L316 462 L318 463 L315 458 L315 456 L313 456 L311 454 L311 452 L309 450 L307 450 L303 446 L299 447 L295 453 L290 457 L287 454 L287 450 L292 445 L291 444 L288 447 L283 442 L281 437 L278 438 L275 446 L266 452 L266 464 L267 467 L265 472 L268 469 L267 454 L276 447 L277 443 L280 439 L282 443 L286 447 L285 450 L286 454 L280 465 L278 475 L276 479 L272 483 L274 485 L271 491 L266 509 L268 515 L268 520 L264 527 L263 526 L263 521 L265 516 L263 513 L262 508 L257 504 L257 502 L255 500 L256 497 L254 494 L259 482 L264 479 L265 475 L264 474 L257 481 L257 485 L253 491 L254 501 L256 506 L261 509 L261 513 L263 515 L261 523 L262 533 L256 536 L252 535 L248 530 L245 530 L242 533 L242 540 L244 544 L244 547 L241 554 L241 559 L247 571 L242 589 L241 603 L240 604 L240 632 L241 633 L242 649 L245 660 L245 665 L247 666 L244 655 L243 643 L242 642 L242 634 L241 633 L241 607 L247 601 L243 604 L242 603 L243 591 L245 587 L249 595 L252 595 L254 597 L255 601 L260 605 L260 608 L264 613 L269 608 L270 609 L273 608 L278 612 L270 626 L267 636 L265 639 L264 646 L270 629 L279 612 L287 602 L289 604 L289 600 L293 596 L295 596 L295 594 L298 591 L312 581 L327 574 L343 570 L367 569 L368 570 L381 571 L397 576 L413 584 L428 595 L444 612 L452 624 L458 636 L463 652 L464 662 L465 663 L465 688 L464 689 L464 693 L465 685 L466 684 L466 663 L465 662 L464 653 L467 651 L472 654 L475 653 L478 659 L479 658 L477 654 L482 650 L485 651 L489 649 L489 647 L486 649 L482 649 L478 647 L480 650 L475 652 L471 647 L475 642 L477 635 L480 630 L481 617 L480 617 L479 620 L479 627 L475 639 L472 644 L464 651 L459 635 L453 623 L441 606 L424 590 L414 583 L401 576 L387 571 L379 570 L378 569 L372 569 L371 568 L347 568 L346 569 L332 571 L319 576 L310 581 L300 588 L295 593 L288 586 L285 591 L286 597 L284 600 L284 604 L280 609 L277 610 L273 606 L269 607 L265 610 L264 609 L264 599 L263 596 L261 594 L260 590 L256 587 L258 590 L257 593 L261 596 L263 600 L263 607 L262 608 L261 604 L256 600 L255 595 L251 594 L248 591 L245 584 L251 564 L258 550 L260 548 L262 552 L262 558 L259 563 L256 561 L258 565 L257 572 L253 577 L253 579 L250 584 L252 584 L254 581 L254 579 L258 573 L258 570 L261 566 L261 563 L264 557 L261 545 L272 530 L282 520 L290 514 L310 503 L324 498 L341 495 L342 494 L348 494 L349 493 L374 493 L375 494 L382 494 L402 499 L422 508 L436 517 L456 536 L464 547 L474 567 L474 569 L472 571 L473 575 L477 572 L479 572 L483 575 L486 572 L489 577 L489 581 L491 583 L491 587 L492 588 L493 587 L493 584 L488 572 L484 569 L481 571 L478 571 L475 569 L475 566 L467 550 L461 541 L452 530 L439 518 L415 503 L397 496 L385 493 L374 492 L370 487 L369 484 L370 478 L367 471 L366 465 L368 460 L375 456 L376 460 L374 463 L376 463 L377 461 L377 456 L376 455 L382 450 L382 447 L380 445 L377 438 L378 437 L381 439 L391 438 L384 436 L381 433 L382 431 L384 432 L387 431 L387 430 L380 425 L380 422 L376 418 L376 420 L378 421 L379 426 L381 429 L380 430 L380 434 L381 435 L380 436 L376 435 L369 429 L369 431 L375 435 L377 441 L376 442 L369 441 L365 439 L358 439 L356 437 L360 433 L361 427 L365 423 L365 415 L366 413 L363 408 L366 405 L371 403 L379 403 L379 402 L369 402 L368 401 L368 397 L366 394 L366 389 L367 388 L366 382 L363 378 L361 378 L359 376 L357 368 L354 364 L354 358 L357 352 L356 342 L359 334 L362 331 L364 339 L365 339 L365 326 L363 324 L364 320 L363 319 L368 312 L371 319 L371 328 L373 329 L374 326 L378 330 L380 330 L382 332 L382 334 L384 333 L385 334 L385 338 L382 344 L379 347 L378 345 L376 349 L379 350 L383 361 L398 384 L417 404 L439 420 L466 434 L485 441 L488 441 L500 445 L516 447 L517 448 L524 448 L525 449 L563 449 L564 448 L571 448 L572 447 L577 447 L578 446 L595 443 L625 432 L643 422 L653 415 L674 395 L691 371 L696 361 L703 342 L707 325 L706 324 L707 323 L707 318 L708 317 L708 297 L707 296 L706 283 L699 262 L693 252 L690 251 L687 256 L688 266 L689 267 L690 286 L691 285 L691 278 L690 277 L690 268 L689 267 L688 255 L691 252 L694 255 L699 264 L706 288 L707 314 L706 315 L706 323 L705 324 L704 334 L700 348 L688 374 L674 393 L652 414 L637 424 L617 434 L593 442 L575 445 L574 446 L558 447 L557 448 L533 448 L532 447 L514 446 L513 445 L508 445 L507 444 L494 442 L465 432 L440 419 L418 403 L401 386 L394 377 L386 364 L379 349 L384 343 L388 330 L391 326 L382 332 L381 329 L377 328 L373 324 L373 321 L371 317 L371 314 L377 311 L380 313 L384 313 L393 305 L393 299 L383 312 L381 312 L378 309 L373 312 L368 310 L362 318 L361 321 L356 315 L356 309 L358 305 L358 302 L355 299 L356 293 L353 286 L360 279 L367 282 L366 298 L367 299 L368 298 L369 279 L375 259 L376 260 L376 265 L378 267 L377 268 L378 272 L381 277 L380 281 L381 291 L383 293 L390 294 L392 296 L393 295 L391 293 L391 290 L393 288 L392 285 L389 288 L390 291 L389 293 L382 290 L381 287 L382 276 L379 271 L379 266 L377 262 L377 258 L374 253 L374 250 L376 246 L374 238 L376 235 L377 230 L373 222 L373 219 L377 212 L377 208 L380 200 L383 196 L385 196 L388 198 L400 201 L402 203 L405 203 L414 195 L425 191 L431 191 L432 190 L438 191 L445 189 L449 190 L467 190 L468 189 L490 188 L491 187 L497 189 L498 192 L503 196 L509 195 L517 188 L520 187 L539 187 L540 186 L546 186 L551 184 L562 183 L563 182 L603 181 L604 182 L628 183 L629 184 L645 186 L661 202 L666 197 L666 194 L670 190 L673 190 L674 191 L681 191 L682 192 L707 195 Z M622 181 L574 180 L573 181 L554 182 L543 185 L518 186 L514 188 L511 192 L505 195 L501 193 L498 188 L493 186 L475 187 L474 188 L466 188 L465 189 L451 189 L450 188 L429 189 L428 190 L423 190 L413 194 L404 202 L394 197 L390 197 L384 194 L374 195 L335 205 L316 212 L298 221 L290 227 L287 228 L272 240 L261 252 L258 259 L251 263 L235 280 L225 298 L225 306 L222 312 L222 316 L210 325 L206 330 L201 339 L194 357 L189 377 L188 390 L186 397 L185 421 L184 422 L184 439 L183 440 L185 493 L186 494 L188 521 L190 529 L190 537 L191 538 L191 543 L193 551 L174 564 L166 572 L163 585 L165 640 L164 641 L162 660 L161 661 L161 687 L162 688 L163 699 L165 704 L165 709 L168 720 L169 745 L170 746 L169 829 L168 830 L168 837 L169 838 L169 861 L171 867 L171 874 L170 875 L169 887 L168 888 L168 901 L169 902 L170 911 L173 920 L176 924 L177 930 L185 937 L197 941 L199 943 L199 946 L202 950 L208 952 L219 959 L214 974 L218 982 L218 985 L221 992 L228 1000 L229 1006 L231 1010 L232 1018 L239 1034 L244 1039 L244 1042 L248 1044 L249 1049 L259 1057 L261 1067 L265 1076 L270 1081 L273 1082 L280 1090 L284 1091 L287 1098 L294 1103 L296 1108 L303 1109 L310 1114 L311 1122 L319 1126 L321 1136 L325 1142 L329 1144 L333 1143 L338 1149 L342 1148 L349 1155 L355 1150 L360 1149 L365 1153 L365 1156 L373 1162 L373 1168 L372 1169 L374 1172 L381 1172 L384 1174 L387 1174 L389 1176 L391 1176 L393 1178 L393 1180 L396 1182 L402 1182 L403 1181 L411 1182 L415 1186 L418 1186 L421 1188 L423 1188 L427 1183 L426 1179 L427 1178 L432 1178 L435 1176 L436 1172 L438 1173 L443 1171 L449 1171 L450 1172 L455 1172 L461 1175 L465 1173 L466 1169 L468 1167 L473 1175 L476 1177 L484 1177 L490 1181 L493 1181 L498 1178 L499 1179 L499 1188 L497 1193 L497 1201 L498 1202 L497 1217 L500 1221 L508 1221 L513 1225 L514 1224 L520 1224 L523 1222 L526 1222 L528 1224 L530 1224 L536 1220 L538 1217 L545 1217 L549 1215 L556 1207 L556 1201 L555 1200 L556 1198 L563 1198 L566 1196 L569 1196 L573 1192 L575 1194 L576 1198 L580 1200 L583 1204 L587 1204 L590 1202 L595 1202 L600 1207 L601 1206 L604 1207 L609 1206 L612 1202 L612 1199 L616 1195 L614 1189 L617 1183 L619 1181 L625 1186 L632 1185 L634 1183 L636 1183 L640 1179 L641 1176 L649 1176 L652 1168 L661 1167 L667 1157 L671 1153 L670 1145 L671 1144 L672 1145 L677 1142 L680 1133 L686 1142 L691 1141 L696 1138 L701 1145 L703 1146 L707 1145 L711 1140 L716 1128 L726 1120 L727 1115 L731 1112 L736 1112 L742 1108 L745 1097 L747 1095 L749 1097 L753 1097 L758 1099 L764 1095 L769 1082 L772 1085 L778 1087 L791 1078 L800 1065 L801 1062 L800 1058 L802 1056 L804 1056 L804 1052 L809 1046 L810 1041 L815 1032 L816 1027 L821 1022 L822 1018 L828 1010 L833 999 L833 996 L836 992 L840 992 L846 997 L853 992 L858 993 L863 991 L870 995 L876 995 L881 990 L883 986 L883 982 L886 978 L891 974 L899 975 L900 976 L903 975 L905 973 L908 963 L910 961 L914 960 L917 961 L919 960 L922 955 L922 951 L924 946 L930 942 L934 943 L939 940 L942 935 L944 927 L944 898 L943 897 L943 883 L942 882 L943 864 L941 859 L941 851 L940 850 L940 812 L939 811 L940 775 L937 767 L937 763 L938 762 L937 750 L934 746 L929 744 L930 735 L928 733 L929 729 L928 724 L931 722 L935 715 L940 712 L940 709 L947 691 L948 682 L949 681 L950 651 L949 650 L949 637 L948 636 L948 620 L949 619 L949 606 L950 605 L950 579 L948 573 L944 568 L922 552 L927 538 L927 535 L931 528 L931 521 L936 513 L935 505 L938 498 L938 491 L933 485 L924 486 L922 482 L920 481 L922 477 L922 472 L925 459 L925 451 L926 450 L926 424 L925 423 L925 415 L924 414 L924 409 L923 408 L923 403 L920 390 L910 362 L892 324 L882 307 L870 290 L856 273 L835 252 L807 232 L781 218 L775 219 L770 216 L768 216 L766 214 L762 213 L754 207 L726 198 L718 197 L709 194 L704 194 L691 191 L684 191 L683 190 L676 190 L675 189 L669 189 L665 193 L659 194 L655 193 L646 185 L632 183 L631 182 L623 182 Z" fill="#eef3f4" fill-rule="evenodd"/>
</svg>
