<svg xmlns="http://www.w3.org/2000/svg" width="1448" height="1086" viewBox="0 0 1448 1086">
  <title>0187</title>
  <path d="M636 907 L637 906 L638 907 L637 908 Z M704 899 L705 898 L706 899 L705 900 Z M750 904 L750 911 L746 918 L746 927 L742 932 L742 944 L739 949 L732 949 L731 950 L720 949 L712 952 L703 953 L696 950 L693 950 L690 948 L691 947 L690 939 L693 927 L693 919 L694 918 L695 910 L698 903 L701 902 L704 904 L708 904 L714 898 L716 898 L721 895 L726 900 L737 899 L742 902 L746 902 Z M659 896 L660 895 L661 896 L660 897 Z M688 896 L694 900 L695 906 L691 920 L691 929 L689 935 L689 947 L687 953 L682 957 L670 962 L660 962 L650 959 L647 956 L647 952 L645 947 L645 940 L644 939 L644 932 L646 927 L645 915 L648 909 L648 904 L650 902 L655 902 L662 898 L665 894 L668 894 L672 892 L676 894 L679 894 L681 896 Z M685 893 L686 892 L694 892 L695 891 L700 895 L703 900 L702 901 L697 901 L693 896 Z M683 892 L684 891 L685 892 L684 893 Z M720 893 L716 896 L713 896 L710 900 L707 899 L700 893 L706 891 L711 891 L712 892 L716 890 Z M812 884 L813 883 L814 884 L813 885 Z M618 900 L620 898 L620 893 L619 892 L620 891 L621 882 L624 880 L626 885 L628 885 L629 880 L635 877 L641 877 L644 881 L650 884 L653 884 L658 887 L663 887 L664 886 L673 887 L678 885 L682 888 L683 891 L682 892 L669 891 L664 893 L660 892 L655 899 L649 900 L643 908 L637 906 L642 898 L638 901 L635 907 L632 904 L628 905 L622 903 Z M867 877 L868 876 L869 877 L868 878 Z M556 812 L557 811 L559 812 L558 813 Z M579 805 L580 804 L581 805 L580 806 Z M580 804 L581 803 L583 804 L582 805 Z M854 803 L855 802 L856 803 L855 804 Z M854 795 L855 796 L854 799 L853 798 Z M849 794 L850 793 L851 794 L850 795 Z M848 793 L849 792 L850 793 L849 794 Z M860 786 L861 787 L857 792 L856 790 Z M522 786 L523 785 L529 785 L532 787 L537 787 L538 788 L543 787 L545 789 L543 791 L542 790 L534 791 L531 789 L527 790 Z M555 778 L556 777 L557 778 L556 779 Z M588 776 L591 775 L598 777 L596 779 L594 779 Z M585 775 L586 774 L589 775 L588 776 Z M592 779 L593 781 L591 784 L590 794 L585 797 L581 802 L571 803 L571 805 L573 804 L578 806 L579 805 L580 806 L579 809 L574 813 L566 815 L565 818 L561 822 L555 822 L554 821 L555 820 L555 815 L559 814 L562 811 L562 806 L568 803 L568 801 L573 793 L572 792 L574 790 L574 788 L571 786 L575 780 L582 774 L583 776 Z M582 774 L583 773 L586 774 L585 775 Z M987 767 L988 766 L989 767 L988 768 Z M580 774 L567 787 L562 785 L555 787 L547 785 L550 780 L554 780 L555 781 L560 777 L562 771 L567 766 L571 764 L572 766 L576 767 L575 771 Z M969 762 L970 761 L971 762 L970 763 Z M571 764 L575 761 L577 762 L576 765 L572 765 Z M970 761 L971 760 L972 761 L971 762 Z M988 760 L989 759 L990 760 L989 761 Z M989 761 L988 765 L986 765 L979 770 L975 771 L974 773 L970 773 L967 776 L963 776 L962 775 L958 775 L957 776 L955 775 L953 777 L952 776 L954 770 L957 767 L959 767 L963 764 L968 766 L973 762 L978 763 L984 761 L985 759 Z M703 754 L705 752 L707 753 L705 755 Z M487 752 L486 753 L486 759 L490 763 L490 759 L487 757 Z M1002 749 L1004 751 L1005 759 L1008 766 L1000 769 L991 768 L989 766 L992 761 L992 758 L997 755 Z M612 749 L613 748 L614 749 L613 750 Z M704 742 L704 743 L708 743 L708 742 Z M740 739 L741 738 L742 739 L741 740 Z M613 739 L614 738 L620 738 L622 742 L616 747 L614 744 Z M612 738 L613 737 L614 738 L613 739 Z M476 738 L477 740 L476 748 L477 749 L477 738 Z M690 737 L696 744 L699 744 L696 740 L695 741 Z M571 736 L572 737 L572 747 L574 753 L574 758 L567 765 L565 762 L566 760 L564 758 L562 752 L559 749 L566 743 Z M620 736 L621 735 L622 736 L621 737 Z M608 734 L609 733 L610 735 L609 736 Z M661 733 L664 732 L666 735 L664 736 Z M958 732 L957 732 L957 737 L958 738 L956 739 L955 743 L956 743 L958 738 Z M949 731 L948 732 L948 736 L950 733 Z M612 731 L614 730 L616 733 L620 735 L618 737 L616 737 L612 734 Z M756 727 L758 729 L757 733 L748 742 L747 741 L748 737 L752 733 L753 729 Z M612 727 L613 726 L614 727 L613 728 Z M472 727 L471 730 L473 735 L473 728 Z M796 725 L797 724 L798 725 L797 726 Z M737 724 L739 728 L743 732 L743 735 L734 738 L731 736 L733 733 L733 730 L736 727 Z M1065 720 L1065 725 L1062 729 L1062 731 L1059 734 L1059 737 L1066 725 L1066 721 Z M785 718 L786 719 L785 722 L784 721 Z M471 719 L469 724 L471 725 Z M777 718 L778 717 L780 718 L779 719 Z M625 719 L629 717 L634 719 L638 726 L637 727 L631 727 L626 722 Z M613 720 L614 716 L620 716 L621 717 L614 721 Z M633 713 L634 714 L633 717 L630 715 Z M913 847 L910 854 L906 854 L903 852 L900 852 L897 854 L898 857 L896 859 L896 862 L892 866 L891 870 L889 869 L885 870 L879 864 L875 864 L872 867 L872 870 L870 873 L866 876 L865 880 L857 883 L851 882 L848 885 L841 885 L837 883 L832 886 L819 886 L817 884 L818 881 L817 879 L813 882 L806 878 L797 879 L794 874 L794 872 L790 869 L784 871 L773 866 L768 866 L764 863 L762 863 L759 866 L751 868 L748 872 L744 874 L739 873 L736 876 L737 878 L734 881 L734 883 L729 886 L727 886 L723 890 L707 889 L704 891 L702 890 L699 892 L695 889 L694 890 L686 890 L684 888 L684 886 L678 882 L672 885 L668 885 L667 884 L658 885 L651 881 L649 881 L645 876 L642 875 L636 875 L629 878 L625 877 L619 881 L618 880 L615 881 L610 875 L600 876 L597 872 L593 870 L587 869 L584 865 L580 866 L577 863 L573 862 L570 858 L568 857 L561 858 L557 853 L554 853 L552 851 L550 851 L548 849 L549 846 L547 844 L542 843 L540 839 L536 835 L535 829 L536 828 L538 829 L542 827 L543 829 L547 830 L554 824 L557 823 L560 824 L566 820 L566 818 L569 815 L577 813 L584 806 L584 802 L583 801 L586 798 L590 797 L592 795 L591 790 L594 781 L598 780 L606 774 L607 761 L609 758 L608 754 L611 751 L613 753 L612 754 L614 755 L614 752 L616 749 L619 752 L621 750 L621 746 L624 743 L623 741 L623 737 L624 736 L623 734 L619 733 L616 730 L616 727 L614 725 L620 719 L631 729 L638 728 L640 730 L640 732 L642 733 L644 732 L648 726 L653 726 L659 734 L668 740 L671 740 L674 738 L680 739 L683 742 L684 746 L683 750 L685 753 L689 754 L696 751 L702 756 L705 757 L708 753 L714 753 L718 755 L722 755 L726 750 L727 743 L731 740 L740 739 L742 743 L746 745 L751 743 L755 737 L759 734 L761 728 L765 726 L772 727 L773 725 L770 724 L774 722 L777 718 L781 722 L780 727 L776 729 L777 731 L779 731 L783 725 L793 719 L794 720 L794 726 L796 728 L800 728 L801 729 L800 737 L802 739 L802 727 L805 724 L805 721 L811 712 L812 713 L812 727 L808 739 L804 745 L802 743 L802 741 L801 741 L801 747 L800 748 L801 751 L805 749 L808 752 L808 756 L805 759 L803 764 L803 773 L807 773 L814 777 L814 782 L813 783 L814 786 L818 787 L821 784 L822 785 L827 799 L829 801 L833 801 L837 799 L841 802 L845 802 L846 804 L853 804 L856 807 L859 808 L857 811 L858 812 L857 817 L859 822 L859 830 L860 832 L872 838 L876 836 L881 836 L883 839 L888 841 L893 838 L900 836 L903 839 L907 838 L909 843 Z M1063 709 L1061 710 L1061 714 L1063 712 Z M812 708 L813 707 L814 709 L813 710 Z M469 708 L470 710 L470 708 Z M1068 698 L1069 700 L1068 707 L1069 707 L1070 700 Z M406 687 L406 694 L408 695 L409 703 L411 703 L414 706 L409 699 L409 695 L407 694 L407 687 Z M863 686 L862 695 L866 702 L866 698 L863 695 L863 690 L864 689 L864 686 Z M1067 683 L1067 690 L1068 691 L1066 694 L1067 696 L1068 693 Z M797 677 L802 681 L809 692 L813 703 L812 707 L809 704 L809 698 L807 696 L807 694 L798 686 L799 683 L796 679 Z M795 677 L796 676 L797 677 L796 678 Z M618 676 L619 677 L618 680 L619 682 L615 687 L615 693 L613 696 L613 700 L612 701 L615 705 L615 712 L616 713 L611 717 L612 724 L609 728 L606 719 L607 699 L611 686 Z M793 676 L794 675 L796 676 L795 677 Z M618 676 L619 675 L620 676 L619 677 Z M791 675 L792 674 L794 675 L793 676 Z M789 674 L790 673 L792 674 L791 675 Z M765 675 L771 676 L777 673 L782 673 L791 676 L795 679 L795 681 L797 683 L796 687 L803 691 L808 699 L807 703 L811 709 L807 716 L805 711 L801 710 L792 700 L788 703 L787 707 L789 708 L790 703 L792 702 L801 712 L803 712 L806 718 L802 722 L798 723 L795 718 L793 717 L789 720 L786 716 L782 717 L780 715 L778 715 L769 724 L767 725 L763 724 L766 716 L766 709 L762 698 L761 689 L762 688 L763 678 L764 677 L766 679 L764 677 Z M763 674 L764 673 L765 674 L764 675 Z M619 674 L620 673 L621 675 L620 676 Z M786 673 L787 672 L788 673 L787 674 Z M620 673 L621 672 L622 673 L621 674 Z M621 672 L622 671 L623 672 L622 673 Z M575 672 L573 673 L570 679 L572 678 Z M593 669 L594 671 L584 685 L576 706 L574 719 L573 720 L572 734 L569 736 L566 741 L561 746 L560 744 L562 738 L561 737 L561 730 L560 728 L565 719 L565 710 L569 703 L570 697 L574 689 L583 677 L590 670 Z M593 669 L594 668 L595 669 L594 670 Z M492 667 L494 670 L492 676 L491 675 L491 668 Z M629 666 L630 665 L631 666 L630 667 Z M809 665 L810 664 L811 665 L810 666 Z M808 664 L809 663 L810 664 L809 665 Z M951 663 L951 675 L951 669 L952 668 Z M806 663 L807 662 L808 663 L807 664 Z M679 663 L676 668 L678 667 Z M582 663 L579 665 L579 667 L582 665 Z M685 659 L682 662 L684 662 Z M589 659 L587 659 L584 663 L586 663 Z M488 659 L486 664 L488 665 Z M773 660 L781 657 L794 658 L807 665 L815 673 L820 680 L827 696 L829 718 L830 719 L830 731 L827 741 L828 748 L831 753 L829 762 L833 767 L836 774 L837 780 L844 791 L845 790 L838 779 L837 772 L834 766 L831 763 L832 752 L829 747 L829 739 L831 733 L831 714 L830 713 L829 701 L830 700 L832 703 L832 700 L830 694 L827 692 L826 688 L824 686 L821 679 L810 666 L811 665 L814 666 L827 678 L831 679 L837 688 L837 690 L840 695 L847 701 L847 709 L846 710 L847 714 L842 725 L842 728 L844 731 L844 735 L847 741 L847 744 L845 748 L851 755 L851 763 L855 768 L859 769 L861 771 L860 774 L861 778 L858 782 L859 785 L856 788 L853 795 L849 790 L847 790 L849 792 L846 793 L854 800 L852 803 L848 803 L847 801 L842 801 L839 798 L835 798 L830 800 L827 795 L825 788 L823 786 L823 783 L821 782 L817 786 L815 784 L816 782 L815 776 L808 771 L804 770 L806 769 L805 764 L810 759 L810 753 L806 747 L812 738 L816 724 L816 708 L815 707 L814 697 L810 687 L805 680 L799 675 L790 671 L780 671 L779 672 L775 672 L772 674 L767 674 L766 673 L766 669 L768 665 Z M749 658 L751 664 L750 666 L751 667 L752 666 L756 669 L756 667 L752 664 L750 660 L751 659 Z M603 659 L605 657 L607 658 L605 660 Z M607 657 L608 656 L609 657 L608 658 Z M681 656 L679 657 L678 660 L680 659 Z M694 654 L694 658 L693 659 L695 658 L696 655 Z M597 654 L593 656 L593 657 L597 655 Z M779 653 L781 652 L779 652 Z M777 652 L775 652 L773 654 L775 654 Z M687 652 L685 652 L684 656 L686 655 Z M495 651 L495 655 L493 657 L492 661 L492 666 L490 667 L490 676 L492 678 L490 682 L489 690 L495 672 L495 669 L493 666 Z M736 650 L737 653 L738 653 L737 650 Z M644 652 L649 656 L652 664 L649 665 L647 663 L639 662 L638 663 L633 662 L622 667 L612 678 L606 691 L604 699 L604 706 L603 707 L604 726 L607 737 L611 745 L613 746 L606 753 L607 759 L605 762 L605 767 L604 768 L605 772 L599 777 L598 775 L592 775 L586 772 L578 771 L577 768 L579 763 L579 758 L575 755 L574 741 L573 740 L574 739 L574 724 L575 723 L577 708 L584 688 L595 671 L605 661 L611 657 L621 652 L634 649 L640 650 Z M496 646 L494 647 L494 649 L495 649 Z M487 641 L486 641 L484 649 L485 653 L487 646 Z M703 637 L698 642 L697 648 L700 645 L699 642 L700 641 L701 642 Z M731 636 L732 640 L734 641 Z M483 633 L481 634 L482 635 L481 642 L482 642 Z M940 625 L937 637 L939 634 Z M727 621 L728 625 L730 627 L731 626 Z M941 619 L940 620 L941 623 Z M703 614 L703 616 L701 618 L702 619 L701 634 L703 630 L701 627 L703 622 L702 618 Z M481 611 L479 627 L482 629 L480 627 Z M727 606 L726 608 L728 611 Z M703 604 L702 604 L702 609 L701 610 L702 612 Z M482 600 L481 609 L482 609 Z M855 596 L856 595 L859 596 L858 597 Z M843 596 L844 595 L848 595 L849 596 L848 597 L844 597 Z M1070 594 L1071 595 L1071 605 L1072 608 L1079 615 L1079 634 L1080 635 L1080 653 L1079 654 L1079 658 L1081 665 L1080 669 L1081 673 L1081 687 L1078 700 L1081 708 L1080 712 L1081 713 L1081 717 L1076 732 L1071 737 L1066 738 L1064 740 L1063 747 L1059 750 L1058 749 L1055 752 L1055 754 L1051 756 L1045 762 L1041 764 L1037 764 L1034 762 L1036 759 L1038 751 L1038 733 L1037 732 L1037 725 L1036 724 L1036 701 L1037 700 L1037 695 L1042 683 L1046 658 L1050 646 L1051 639 L1063 607 L1068 596 Z M730 594 L729 600 L730 601 L730 611 L731 612 L732 624 L737 641 L740 647 L743 650 L740 645 L736 631 L734 628 L734 623 L731 610 Z M1070 593 L1071 592 L1072 593 L1071 594 Z M647 589 L645 590 L643 594 L644 594 Z M558 588 L559 587 L560 588 L559 589 Z M767 587 L767 589 L770 594 L769 589 Z M553 587 L554 586 L557 587 L556 588 Z M1049 585 L1050 584 L1051 585 L1050 586 Z M1023 585 L1024 584 L1025 585 L1024 586 Z M1024 583 L1025 582 L1026 583 L1025 584 Z M1075 581 L1076 580 L1077 581 L1076 582 Z M651 581 L650 581 L648 585 L649 586 Z M689 577 L690 576 L691 577 L690 578 Z M449 576 L452 585 L456 591 L455 592 L455 605 L454 606 L453 652 L452 653 L450 646 L451 618 L450 617 L449 597 L448 596 L448 577 Z M932 575 L926 586 L916 600 L902 614 L892 621 L882 626 L863 631 L841 631 L840 630 L835 630 L821 626 L808 620 L795 611 L781 597 L773 585 L770 578 L771 575 L783 586 L794 594 L817 606 L838 611 L864 611 L865 610 L876 609 L889 605 L905 597 L922 584 L931 574 Z M690 575 L689 576 L690 578 L689 582 L690 583 L690 587 L691 587 L692 579 Z M931 574 L932 573 L933 574 L932 575 Z M951 572 L949 586 L946 596 L947 608 L949 613 L949 625 L950 626 L950 637 L951 638 L951 642 L947 656 L949 659 L949 651 L952 643 L950 613 L948 608 L949 607 L948 606 L948 590 L952 575 Z M932 572 L933 571 L934 573 L933 574 Z M762 572 L760 572 L761 574 Z M933 571 L934 570 L935 571 L934 572 Z M655 571 L653 573 L652 578 L653 578 L655 574 Z M934 570 L935 569 L936 570 L935 571 Z M773 570 L774 569 L776 570 L775 571 Z M934 566 L935 565 L936 566 L935 567 Z M935 567 L916 585 L899 598 L874 607 L863 608 L862 609 L835 608 L812 601 L804 597 L788 586 L779 578 L770 573 L783 570 L799 583 L819 593 L837 598 L856 599 L857 598 L866 598 L879 595 L897 587 L906 581 L923 565 L934 566 Z M656 566 L656 568 L657 568 L657 566 Z M759 560 L758 563 L759 566 L760 566 Z M489 558 L490 557 L494 561 L502 574 L511 583 L524 592 L544 600 L558 602 L559 603 L567 603 L568 604 L587 602 L605 597 L624 588 L637 580 L644 574 L646 575 L636 592 L622 606 L610 614 L602 618 L599 618 L584 624 L579 624 L578 625 L558 625 L546 622 L541 619 L539 619 L522 608 L512 598 L500 581 Z M488 556 L489 555 L490 557 L489 558 Z M1049 554 L1050 555 L1049 581 L1040 620 L1040 625 L1039 626 L1039 631 L1036 644 L1036 653 L1035 654 L1034 722 L1035 723 L1035 730 L1036 731 L1037 747 L1034 759 L1030 764 L1023 767 L1011 768 L1007 760 L1007 756 L1005 750 L1005 740 L1007 736 L1008 725 L1009 724 L1011 649 L1012 648 L1013 631 L1015 623 L1017 598 L1019 593 L1027 585 Z M487 555 L488 554 L489 555 L488 556 Z M1049 553 L1050 552 L1051 554 L1050 555 Z M658 553 L657 554 L657 561 L656 563 L658 562 Z M490 554 L491 553 L502 552 L509 562 L522 575 L529 580 L543 587 L554 590 L561 590 L562 591 L583 591 L584 590 L593 589 L605 585 L619 578 L625 573 L634 568 L644 572 L634 577 L631 580 L621 586 L594 598 L587 600 L580 600 L579 601 L562 601 L561 600 L554 600 L543 597 L540 595 L530 592 L520 586 L506 574 Z M489 553 L490 552 L491 553 L490 554 Z M757 552 L757 554 L755 556 L755 559 L758 557 L758 553 Z M738 549 L736 549 L732 555 L731 558 L732 562 L733 561 L732 559 L733 554 Z M618 549 L620 548 L631 559 L644 569 L642 570 L636 567 Z M657 544 L657 550 L658 550 L658 545 Z M848 542 L858 542 L864 545 L869 550 L873 561 L872 569 L869 575 L861 582 L854 584 L846 583 L841 581 L835 575 L832 568 L832 559 L835 551 L842 544 Z M694 541 L694 542 L699 542 L703 545 L706 544 L709 545 L710 544 L703 544 L699 541 L696 542 Z M849 540 L841 543 L834 550 L831 556 L830 566 L832 573 L837 580 L843 584 L854 586 L864 582 L871 575 L874 568 L874 557 L872 552 L866 545 L856 540 Z M734 540 L729 545 L729 548 L727 551 L726 555 L728 559 L729 547 Z M737 538 L738 541 L736 544 L737 543 L741 543 L738 538 Z M687 537 L688 540 L689 540 L688 537 Z M785 568 L801 552 L812 544 L824 538 L836 535 L837 536 L833 538 L825 546 L821 553 L820 557 L820 572 L824 581 L829 587 L836 592 L844 595 L843 596 L831 595 L809 587 L793 577 Z M759 536 L755 544 L755 550 L756 550 L757 546 L756 542 L758 540 Z M676 536 L675 537 L675 541 L676 541 Z M836 535 L837 534 L839 535 L838 536 Z M752 535 L750 536 L750 538 L752 537 Z M723 535 L718 540 L716 540 L715 543 Z M561 534 L571 535 L578 539 L582 544 L585 551 L585 561 L582 568 L576 574 L568 577 L559 576 L555 574 L548 567 L545 559 L545 551 L547 545 L554 537 Z M859 595 L867 592 L876 585 L879 581 L884 569 L884 556 L882 550 L879 545 L872 538 L865 534 L866 533 L871 533 L879 535 L897 543 L921 564 L906 579 L899 584 L876 594 L872 594 L867 596 L860 596 Z M849 533 L861 534 L871 539 L878 546 L881 552 L883 560 L882 570 L877 581 L867 590 L855 594 L843 593 L834 589 L826 581 L821 568 L822 556 L827 546 L836 538 Z M574 588 L585 583 L592 576 L597 566 L597 561 L598 560 L597 550 L593 541 L585 532 L586 531 L596 535 L607 542 L616 549 L632 566 L630 569 L627 570 L618 577 L606 583 L584 589 L575 589 Z M564 532 L563 533 L559 533 L553 536 L547 542 L544 549 L544 561 L547 568 L551 573 L557 577 L563 579 L568 579 L576 576 L584 568 L586 564 L587 553 L585 546 L580 539 L570 533 Z M583 531 L584 530 L586 531 L585 532 Z M589 530 L592 529 L598 532 L613 542 L619 548 L617 549 L605 539 Z M582 530 L583 529 L584 530 L583 531 Z M775 569 L804 544 L817 536 L840 528 L849 528 L850 527 L867 527 L868 528 L873 528 L892 534 L900 538 L911 546 L925 559 L933 563 L932 564 L925 564 L920 562 L903 546 L896 541 L886 536 L866 531 L849 531 L848 532 L840 532 L835 534 L831 534 L813 542 L800 551 L783 568 L779 570 Z M584 528 L587 527 L590 529 L587 530 Z M582 527 L583 526 L585 527 L584 528 Z M554 527 L569 526 L576 528 L584 533 L589 538 L594 546 L596 553 L596 562 L594 569 L590 576 L585 581 L580 584 L570 587 L564 587 L556 585 L549 581 L541 573 L537 565 L536 561 L536 548 L538 542 L541 537 L548 530 Z M579 526 L580 525 L583 526 L582 527 Z M547 524 L554 524 L555 525 L547 529 L538 539 L534 550 L534 559 L537 569 L540 574 L549 583 L552 584 L554 586 L553 587 L545 586 L527 577 L510 561 L504 552 L524 532 L532 528 Z M727 524 L726 524 L726 528 L724 532 L726 530 Z M442 521 L443 523 L442 524 L443 524 Z M580 525 L579 526 L575 526 L571 524 L566 524 L565 523 L544 523 L543 524 L539 524 L523 531 L502 551 L495 551 L494 550 L518 529 L525 525 L536 521 L547 520 L548 519 L556 519 L557 520 L568 521 Z M1079 518 L1082 523 L1081 524 L1081 533 L1076 549 L1072 555 L1072 560 L1067 568 L1051 584 L1050 580 L1051 579 L1053 547 L1056 544 L1067 526 L1074 519 Z M769 514 L766 516 L765 520 L760 526 L761 525 L763 526 L761 528 L762 529 Z M437 502 L436 504 L438 506 L439 513 L441 514 Z M433 490 L435 494 L435 498 L436 498 L436 493 Z M430 481 L432 484 L432 482 Z M844 478 L843 479 L827 481 L813 486 L802 492 L790 501 L780 512 L770 529 L765 547 L764 557 L765 558 L767 574 L773 588 L784 603 L795 613 L805 620 L828 630 L842 632 L843 633 L861 633 L881 628 L893 622 L903 615 L921 596 L940 565 L948 560 L953 555 L954 556 L955 555 L954 553 L956 548 L954 548 L952 554 L947 559 L940 562 L937 562 L932 560 L925 555 L908 540 L890 530 L874 525 L848 524 L847 525 L841 525 L840 526 L832 527 L809 537 L796 546 L769 571 L767 566 L767 547 L772 529 L779 516 L795 499 L802 494 L820 485 L835 481 L854 480 L855 479 L873 480 L896 486 L909 493 L923 506 L929 515 L936 531 L939 547 L940 546 L939 536 L935 524 L929 512 L924 505 L909 491 L898 485 L882 480 L872 479 L871 478 Z M1012 474 L1011 474 L1009 479 L1010 485 L1008 489 L1008 494 L1006 499 L1006 508 L1005 509 L1006 512 L1008 497 L1011 487 L1011 477 Z M1087 472 L1093 478 L1094 490 L1095 491 L1095 502 L1093 509 L1094 510 L1094 523 L1093 524 L1093 533 L1092 534 L1090 549 L1088 556 L1083 563 L1084 565 L1081 570 L1081 572 L1076 577 L1074 581 L1074 585 L1065 599 L1065 601 L1053 628 L1045 655 L1045 659 L1041 675 L1041 681 L1038 689 L1037 688 L1037 679 L1036 678 L1037 651 L1038 650 L1038 642 L1041 630 L1042 619 L1045 609 L1045 604 L1048 595 L1048 591 L1061 575 L1067 570 L1069 573 L1070 567 L1074 559 L1083 529 L1083 521 L1079 516 L1076 516 L1067 524 L1034 573 L1026 583 L1025 581 L1036 556 L1036 553 L1040 545 L1052 511 L1059 497 L1066 486 L1075 476 L1082 472 Z M425 469 L427 475 L429 477 L429 475 Z M547 469 L532 473 L520 479 L513 484 L502 495 L497 502 L491 514 L487 527 L488 531 L492 516 L497 505 L503 496 L514 485 L523 479 L537 473 L545 471 L550 471 L551 470 L572 470 L573 471 L583 472 L595 476 L609 483 L619 490 L632 503 L639 513 L644 523 L648 535 L648 539 L649 540 L649 563 L647 569 L645 567 L646 566 L644 567 L620 544 L604 532 L589 524 L584 523 L578 520 L565 517 L540 517 L526 521 L514 528 L496 545 L490 548 L484 548 L486 552 L485 555 L488 559 L493 569 L493 571 L495 573 L495 575 L504 590 L511 599 L526 613 L542 622 L559 627 L582 626 L592 623 L600 619 L603 619 L613 614 L630 601 L638 592 L645 581 L649 572 L650 562 L651 561 L651 554 L652 553 L650 536 L645 521 L635 504 L619 488 L599 476 L581 470 L577 470 L571 468 Z M405 461 L411 466 L425 494 L436 523 L436 526 L440 536 L446 560 L446 565 L447 566 L446 570 L446 596 L447 597 L447 607 L448 608 L448 615 L449 616 L448 644 L449 645 L449 652 L452 660 L452 686 L453 687 L454 711 L455 712 L455 719 L457 727 L457 733 L456 734 L453 732 L449 732 L445 730 L438 730 L437 731 L431 730 L427 727 L429 725 L428 724 L427 726 L423 719 L423 713 L427 701 L428 689 L429 688 L430 663 L429 662 L426 616 L425 615 L425 603 L424 602 L424 552 L423 551 L423 543 L422 542 L421 531 L418 521 L414 515 L414 511 L413 511 L411 516 L412 532 L416 542 L416 538 L413 528 L413 518 L414 517 L416 520 L420 535 L421 543 L420 544 L418 543 L422 550 L422 596 L423 597 L425 638 L426 639 L427 659 L428 660 L428 682 L427 683 L426 697 L422 712 L418 714 L412 713 L408 708 L403 696 L402 676 L403 675 L403 664 L404 663 L404 655 L405 654 L405 647 L406 646 L406 639 L407 638 L407 628 L408 627 L409 608 L410 607 L410 594 L411 593 L410 563 L409 562 L408 546 L407 545 L407 539 L404 526 L404 519 L403 518 L403 511 L402 510 L402 500 L401 499 L401 473 Z M419 458 L420 463 L424 467 L420 460 L420 458 Z M411 446 L411 449 L413 450 L412 446 Z M459 436 L458 448 L460 450 Z M415 434 L412 437 L410 443 L411 444 Z M1060 426 L1072 432 L1083 443 L1087 449 L1094 465 L1096 473 L1097 486 L1096 487 L1095 486 L1095 481 L1092 474 L1087 470 L1080 471 L1074 475 L1065 485 L1058 496 L1049 514 L1039 543 L1032 559 L1031 564 L1020 587 L1020 589 L1017 593 L1014 585 L1013 569 L1012 568 L1012 533 L1013 532 L1013 520 L1014 519 L1015 504 L1020 484 L1020 480 L1029 454 L1038 438 L1048 428 L1052 426 Z M993 419 L993 421 L997 425 L996 432 L998 423 Z M947 480 L939 462 L929 448 L916 436 L903 428 L887 422 L871 420 L870 419 L852 419 L851 420 L844 420 L834 423 L830 423 L810 430 L792 439 L770 455 L754 471 L742 488 L732 508 L731 507 L728 512 L731 509 L732 510 L731 515 L728 516 L727 520 L728 519 L729 520 L729 529 L727 535 L727 541 L728 541 L728 537 L729 536 L729 527 L733 524 L734 521 L733 520 L731 525 L730 524 L732 514 L733 513 L734 514 L733 510 L743 489 L755 472 L771 456 L787 444 L805 434 L829 425 L842 423 L843 422 L850 422 L851 421 L872 421 L873 422 L879 422 L880 423 L888 424 L899 428 L916 438 L933 455 L943 473 L947 484 L948 492 L949 492 Z M508 430 L492 445 L480 466 L474 487 L474 496 L473 497 L474 504 L475 504 L475 491 L476 490 L478 476 L481 467 L488 453 L493 446 L504 435 L511 430 L527 423 L535 421 L541 421 L542 420 L557 420 L558 421 L564 421 L565 422 L573 423 L591 430 L602 436 L625 453 L644 472 L658 490 L666 503 L676 526 L679 544 L680 545 L679 548 L680 549 L680 561 L681 564 L680 565 L679 592 L678 593 L676 611 L667 643 L662 653 L659 656 L659 658 L656 661 L657 662 L659 660 L659 658 L664 653 L667 644 L671 637 L677 614 L679 598 L680 597 L680 591 L681 590 L682 549 L681 548 L680 534 L681 533 L685 536 L681 531 L681 533 L680 534 L679 533 L679 529 L678 528 L679 527 L679 523 L674 517 L675 515 L676 516 L676 512 L675 511 L676 510 L674 506 L671 504 L675 510 L675 515 L674 516 L663 495 L646 472 L619 446 L605 436 L586 426 L567 420 L547 418 L546 419 L537 419 L525 422 Z M439 414 L443 414 L445 416 L447 422 L447 426 L452 445 L454 465 L455 466 L455 477 L456 478 L456 489 L457 490 L457 509 L458 510 L458 555 L457 556 L457 573 L456 574 L456 586 L455 587 L450 574 L448 560 L444 544 L442 540 L441 533 L428 497 L412 465 L407 460 L404 460 L403 462 L402 461 L406 440 L413 426 L422 419 Z M465 414 L466 431 L467 431 L467 420 L466 419 L466 414 Z M1057 413 L1054 416 L1053 420 L1054 420 L1056 416 L1057 418 Z M1070 410 L1071 409 L1072 410 L1071 411 Z M455 409 L454 412 L455 419 L454 420 L452 418 L451 421 L453 420 L454 421 L454 431 L456 433 L455 430 L455 423 L456 422 L456 414 L455 413 L456 409 Z M1057 405 L1057 411 L1058 407 Z M1066 404 L1064 411 L1066 410 Z M1021 402 L1017 405 L1016 408 L1021 404 Z M998 401 L996 403 L996 407 L995 408 L996 410 L998 406 Z M448 398 L448 402 L449 403 L448 405 L450 408 L450 414 L451 414 L452 412 L452 403 L450 402 L450 399 Z M490 396 L486 401 L488 400 Z M1035 392 L1033 393 L1033 397 L1034 397 Z M449 384 L448 384 L447 388 L447 394 L448 394 L449 391 Z M1000 381 L999 381 L996 387 L998 392 L998 398 L999 398 L1000 395 L998 390 L998 386 Z M1037 378 L1038 379 L1037 382 L1036 381 Z M1005 375 L1005 380 L1006 380 L1006 375 Z M1003 369 L1003 371 L1005 372 L1005 369 Z M1038 368 L1037 369 L1037 374 L1035 376 L1035 384 L1033 387 L1033 390 L1034 390 L1034 387 L1037 383 L1038 385 L1040 384 L1040 382 L1037 378 Z M449 362 L447 365 L448 367 L447 373 L448 377 L450 378 L450 374 L449 373 L449 369 L450 368 L449 364 L450 363 Z M454 351 L453 351 L452 357 L454 354 Z M449 346 L448 347 L449 350 L450 348 Z M450 337 L448 338 L447 341 L448 342 Z M1059 336 L1060 335 L1061 336 L1060 337 Z M459 336 L458 336 L457 344 L455 348 L458 345 Z M1036 335 L1038 340 L1039 348 L1040 344 L1038 337 Z M1006 328 L1008 336 L1009 334 L1007 328 Z M461 325 L460 325 L458 334 L460 332 Z M997 313 L996 314 L999 314 L1003 318 L1004 323 L1005 323 L1004 317 L1001 314 Z M454 310 L451 317 L450 327 L452 328 L450 331 L450 335 L451 335 L451 332 L453 330 L453 328 L451 326 L453 321 L452 318 L454 314 Z M941 272 L941 274 L944 277 L946 285 L945 277 Z M461 268 L462 269 L462 275 L458 281 L456 295 L453 300 L451 296 L451 292 L456 281 L456 274 Z M461 267 L462 266 L463 268 L462 269 Z M462 265 L463 264 L464 265 L463 266 Z M940 260 L943 263 L942 264 L942 268 L943 267 L943 263 Z M929 250 L932 252 L931 250 Z M489 236 L486 238 L486 240 L484 242 L484 245 L479 251 L484 247 Z M975 216 L976 218 L978 218 L979 216 L983 219 L986 219 L992 228 L995 230 L987 218 L984 218 L980 215 L978 217 Z M516 213 L511 215 L510 217 L514 214 L516 214 Z M521 200 L518 202 L518 204 Z M982 197 L983 196 L984 197 L983 198 Z M527 196 L525 196 L523 199 L527 197 Z M676 191 L674 191 L673 193 L676 192 Z M669 187 L669 188 L673 188 L673 187 Z M657 187 L650 188 L652 189 L653 188 L657 188 Z M704 190 L712 189 L714 187 L717 187 L722 190 L725 188 L714 186 L713 187 L706 187 L704 188 Z M824 186 L824 187 L831 187 L830 185 Z M766 185 L770 184 L766 184 Z M763 184 L761 185 L763 185 Z M758 185 L753 185 L752 184 L743 185 L742 186 L738 185 L737 186 L732 186 L731 188 L733 187 L736 188 L739 186 L741 187 L745 186 L749 187 L751 185 L753 186 L757 186 Z M544 184 L540 185 L540 186 L542 186 Z M903 183 L906 183 L912 187 L913 186 L907 182 L904 181 Z M883 185 L885 185 L889 182 L892 182 L895 184 L899 184 L900 182 L896 183 L893 181 L888 181 L886 183 L883 183 Z M799 179 L799 180 L802 181 L802 183 L805 184 L803 179 L807 178 L809 180 L811 180 L813 182 L813 185 L814 185 L813 180 L809 179 L806 176 L803 176 Z M989 202 L1003 216 L1022 238 L1029 248 L1042 276 L1042 278 L1045 281 L1045 284 L1051 289 L1054 298 L1053 302 L1056 309 L1054 311 L1054 315 L1057 319 L1057 330 L1060 334 L1059 339 L1061 340 L1062 338 L1064 341 L1064 348 L1062 354 L1062 362 L1065 369 L1064 372 L1068 375 L1070 380 L1070 397 L1072 400 L1070 404 L1069 410 L1073 415 L1073 418 L1071 422 L1072 424 L1070 429 L1063 425 L1053 424 L1047 427 L1040 433 L1030 448 L1030 450 L1026 457 L1016 489 L1014 504 L1013 505 L1013 511 L1012 512 L1011 535 L1010 536 L1010 568 L1011 569 L1012 584 L1016 594 L1016 599 L1015 600 L1014 616 L1013 617 L1010 649 L1009 650 L1007 725 L1006 726 L1005 737 L1001 748 L994 755 L989 758 L985 758 L979 761 L970 759 L966 764 L963 762 L958 766 L956 766 L953 769 L953 771 L950 776 L947 779 L944 779 L938 785 L934 792 L928 796 L927 795 L923 796 L918 793 L917 794 L911 794 L905 790 L899 792 L896 795 L893 795 L891 793 L887 793 L882 797 L875 795 L870 798 L868 798 L866 801 L858 806 L855 802 L858 793 L862 789 L862 787 L864 785 L864 779 L862 777 L862 770 L860 768 L856 767 L853 764 L853 755 L849 751 L848 748 L849 744 L848 735 L844 729 L846 727 L846 723 L849 719 L848 715 L850 712 L849 701 L843 696 L839 690 L838 686 L835 683 L834 679 L832 677 L827 676 L818 667 L804 659 L795 656 L784 655 L772 659 L766 665 L764 673 L762 674 L761 677 L762 679 L760 686 L760 696 L762 700 L762 704 L764 707 L764 716 L761 725 L760 726 L757 725 L756 720 L754 718 L755 717 L754 713 L751 710 L748 709 L742 718 L742 721 L743 721 L749 711 L751 712 L753 715 L751 719 L753 727 L752 730 L748 732 L747 739 L745 741 L744 740 L744 731 L740 727 L738 721 L736 722 L735 725 L732 728 L731 735 L726 741 L724 747 L714 746 L710 748 L710 749 L712 749 L716 747 L720 749 L723 749 L724 750 L722 752 L721 751 L718 753 L714 751 L708 751 L707 750 L702 751 L697 748 L689 752 L685 746 L687 744 L687 741 L684 738 L681 738 L680 735 L675 733 L673 730 L672 731 L675 733 L675 735 L670 737 L667 734 L666 731 L662 729 L659 731 L653 723 L651 723 L647 725 L642 731 L640 725 L637 722 L637 719 L635 716 L636 714 L634 711 L631 712 L629 715 L625 717 L622 716 L616 711 L617 706 L614 702 L614 698 L616 695 L617 686 L620 683 L620 679 L623 674 L629 668 L635 666 L640 666 L641 664 L645 664 L653 668 L652 671 L654 670 L652 659 L645 651 L637 648 L629 648 L604 656 L603 657 L604 660 L600 664 L590 668 L583 674 L582 677 L571 691 L568 699 L568 702 L564 708 L564 718 L559 727 L560 740 L559 741 L558 750 L564 760 L564 765 L565 766 L562 768 L558 775 L549 779 L545 786 L538 787 L527 783 L526 784 L522 784 L519 781 L512 780 L505 773 L500 773 L496 775 L491 769 L491 767 L488 765 L478 765 L477 761 L474 759 L473 751 L466 751 L463 749 L461 745 L460 735 L458 729 L458 723 L457 722 L456 704 L455 703 L454 649 L455 648 L456 605 L457 604 L457 587 L458 586 L459 555 L460 554 L460 514 L459 513 L458 480 L457 479 L457 468 L456 467 L455 452 L454 451 L454 446 L453 445 L453 441 L452 440 L448 419 L444 412 L444 401 L442 398 L443 388 L441 380 L442 379 L443 370 L441 364 L441 357 L442 356 L442 343 L443 342 L444 323 L447 318 L448 313 L452 307 L453 301 L454 300 L455 301 L457 296 L457 292 L459 289 L458 286 L463 275 L464 268 L468 264 L470 260 L469 259 L466 264 L464 265 L463 264 L465 257 L465 249 L463 247 L463 245 L468 236 L477 228 L477 226 L485 218 L487 213 L496 204 L502 202 L507 195 L517 190 L520 191 L526 187 L538 184 L541 182 L553 181 L559 177 L578 175 L583 180 L583 186 L581 188 L580 196 L572 207 L572 210 L575 213 L574 223 L579 225 L581 227 L581 229 L585 231 L585 234 L589 238 L589 240 L582 245 L578 252 L578 261 L580 265 L584 268 L585 274 L583 279 L580 280 L576 286 L577 291 L574 297 L575 298 L575 305 L577 310 L580 313 L580 317 L585 323 L578 328 L577 335 L569 339 L567 343 L568 345 L564 349 L564 354 L567 357 L568 361 L567 367 L573 373 L573 379 L570 382 L570 384 L568 385 L563 383 L542 381 L541 382 L525 384 L508 391 L499 397 L488 407 L476 424 L476 426 L474 428 L470 437 L464 463 L463 489 L464 490 L465 507 L469 522 L469 526 L473 538 L478 546 L481 547 L476 541 L473 534 L473 531 L470 524 L467 504 L466 503 L466 495 L465 494 L465 469 L466 468 L467 455 L471 439 L481 419 L486 412 L500 398 L509 392 L520 387 L526 386 L530 384 L538 384 L539 383 L553 383 L554 384 L561 384 L566 386 L570 386 L591 394 L613 407 L628 419 L639 430 L655 449 L671 473 L679 482 L695 488 L699 488 L704 485 L711 486 L721 482 L741 450 L761 429 L789 409 L804 401 L826 393 L834 391 L839 391 L840 390 L850 390 L851 389 L873 391 L890 396 L906 404 L917 412 L933 429 L939 437 L947 452 L955 476 L955 481 L957 488 L957 496 L958 497 L958 510 L959 514 L958 515 L957 540 L955 545 L956 546 L959 538 L960 504 L959 503 L959 492 L958 491 L958 484 L957 483 L956 474 L949 453 L940 436 L927 420 L913 407 L902 400 L891 395 L874 390 L860 389 L859 388 L849 388 L848 389 L839 389 L838 390 L829 391 L805 399 L783 411 L760 428 L740 449 L731 462 L725 474 L719 481 L711 484 L703 484 L700 486 L694 486 L682 482 L675 476 L662 456 L649 439 L621 411 L598 396 L585 390 L572 386 L571 383 L574 380 L574 372 L569 367 L569 363 L570 362 L568 356 L565 353 L565 351 L569 348 L569 342 L579 335 L579 330 L586 324 L586 322 L581 315 L581 310 L577 306 L576 302 L578 299 L577 293 L578 292 L579 283 L583 281 L586 277 L586 269 L585 266 L579 260 L579 254 L583 246 L590 241 L590 237 L587 235 L587 231 L580 224 L575 221 L577 213 L574 210 L574 207 L581 199 L581 197 L583 195 L583 188 L586 184 L590 183 L601 184 L607 181 L612 181 L613 183 L617 183 L621 181 L632 180 L633 179 L636 180 L682 180 L683 181 L718 182 L728 178 L732 178 L738 176 L746 176 L747 175 L763 176 L766 174 L780 174 L781 173 L806 173 L809 174 L813 178 L817 178 L822 180 L831 177 L832 173 L841 173 L842 172 L845 173 L876 174 L877 175 L881 174 L885 175 L900 175 L905 177 L907 176 L918 177 L921 178 L924 182 L926 182 L929 187 L932 186 L938 187 L939 188 L937 189 L938 190 L941 190 L944 188 L951 192 L953 192 L955 194 L955 196 L957 197 L957 200 L961 204 L966 205 L969 204 L972 201 L974 202 L979 198 L982 199 L983 198 Z M983 194 L980 194 L967 203 L961 202 L959 200 L957 194 L953 190 L951 190 L944 186 L940 187 L934 184 L930 185 L928 183 L928 181 L921 176 L917 176 L913 174 L911 175 L910 174 L900 174 L899 173 L865 172 L864 171 L851 171 L850 170 L832 171 L829 173 L828 176 L823 178 L820 178 L817 176 L813 176 L811 173 L804 171 L779 171 L778 172 L768 172 L763 174 L748 173 L747 174 L741 174 L733 176 L730 175 L728 177 L715 180 L682 179 L681 178 L636 178 L633 177 L632 178 L621 179 L617 181 L613 179 L607 179 L602 182 L594 182 L593 181 L585 182 L584 179 L579 174 L573 173 L572 174 L559 175 L553 179 L542 180 L526 185 L520 189 L514 189 L510 191 L500 201 L495 203 L485 213 L484 216 L477 223 L475 228 L466 236 L462 243 L463 259 L459 268 L454 274 L454 281 L449 293 L451 300 L451 305 L446 313 L446 316 L443 320 L442 328 L441 329 L441 343 L440 344 L440 357 L439 358 L441 375 L439 382 L442 391 L440 395 L440 398 L442 401 L442 411 L438 413 L434 413 L425 416 L416 421 L410 427 L406 435 L401 454 L398 485 L399 486 L400 509 L401 510 L402 524 L403 525 L403 531 L404 532 L406 552 L407 553 L407 560 L408 561 L408 576 L409 577 L409 595 L408 596 L407 620 L406 621 L406 630 L405 631 L404 647 L403 648 L402 664 L401 665 L401 675 L400 676 L402 699 L406 708 L411 714 L415 716 L419 715 L421 716 L421 719 L425 727 L429 731 L435 733 L438 732 L452 733 L457 736 L461 749 L466 753 L471 753 L472 754 L472 760 L473 763 L476 766 L488 767 L493 775 L498 776 L501 774 L509 781 L517 783 L520 786 L520 788 L525 792 L532 791 L534 793 L542 794 L547 790 L552 790 L556 788 L559 789 L562 787 L564 789 L570 789 L571 790 L569 793 L569 797 L561 805 L561 808 L556 810 L553 814 L553 821 L550 824 L549 827 L547 828 L545 825 L542 825 L538 827 L536 826 L534 828 L532 834 L542 845 L546 846 L546 849 L552 854 L555 854 L559 859 L566 859 L571 864 L573 864 L580 868 L583 868 L588 872 L593 872 L599 878 L608 878 L616 883 L618 889 L616 899 L618 903 L628 907 L631 907 L634 909 L644 910 L645 911 L643 915 L643 922 L644 923 L644 927 L642 933 L643 945 L644 946 L645 955 L651 961 L661 964 L672 963 L681 960 L690 951 L697 952 L701 954 L710 954 L719 951 L739 951 L744 944 L743 937 L747 931 L748 921 L750 919 L750 917 L753 912 L751 908 L752 904 L750 901 L746 901 L737 897 L729 897 L727 895 L725 895 L724 893 L735 885 L735 882 L740 875 L744 876 L748 874 L753 869 L760 867 L761 868 L767 867 L768 868 L773 868 L776 872 L780 873 L785 873 L791 871 L795 881 L799 882 L803 880 L806 880 L808 882 L810 882 L811 883 L810 884 L816 888 L832 888 L835 886 L840 886 L844 888 L851 885 L857 885 L868 880 L870 878 L871 873 L873 872 L875 867 L876 868 L879 867 L884 871 L889 871 L890 872 L893 871 L898 865 L899 855 L900 854 L904 854 L907 856 L912 855 L914 853 L916 847 L910 841 L910 839 L907 836 L902 834 L893 836 L889 839 L886 839 L881 834 L877 834 L873 836 L869 835 L861 828 L861 824 L862 823 L859 817 L860 815 L859 811 L871 799 L875 797 L883 798 L887 795 L895 797 L905 792 L912 796 L916 795 L925 798 L934 795 L937 790 L942 788 L943 783 L945 781 L952 780 L959 776 L966 779 L969 779 L973 775 L977 774 L983 769 L991 769 L999 771 L1006 768 L1009 770 L1016 770 L1017 769 L1026 768 L1032 764 L1038 766 L1044 765 L1054 757 L1058 751 L1059 752 L1064 749 L1066 741 L1073 738 L1079 729 L1082 718 L1082 707 L1080 701 L1080 695 L1082 690 L1081 632 L1080 631 L1080 614 L1073 606 L1072 595 L1077 586 L1079 577 L1082 574 L1083 569 L1089 558 L1089 555 L1091 552 L1093 544 L1094 530 L1095 529 L1095 516 L1097 509 L1096 499 L1098 491 L1098 476 L1094 461 L1088 448 L1084 442 L1072 430 L1073 422 L1074 421 L1074 411 L1071 406 L1073 402 L1073 399 L1071 396 L1072 385 L1071 384 L1070 376 L1064 363 L1064 353 L1065 352 L1064 350 L1066 346 L1066 342 L1059 329 L1059 319 L1057 314 L1058 309 L1056 307 L1055 296 L1053 290 L1046 283 L1046 280 L1036 261 L1035 256 L1027 242 L1012 223 L993 204 L992 200 Z" fill="#eef3f4" fill-rule="evenodd"/>
</svg>
