<svg xmlns="http://www.w3.org/2000/svg" width="1122" height="1402" viewBox="0 0 1122 1402">
  <title>0188</title>
  <path d="M578 1244 L579 1245 L578 1248 L577 1247 Z M726 1267 L727 1276 L723 1284 L717 1290 L703 1300 L677 1312 L661 1317 L644 1320 L643 1321 L638 1321 L637 1322 L609 1323 L593 1319 L587 1315 L579 1306 L576 1299 L575 1291 L574 1290 L575 1264 L580 1247 L586 1236 L599 1222 L613 1215 L626 1213 L627 1212 L639 1212 L640 1211 L647 1211 L649 1210 L657 1212 L674 1220 L688 1228 L703 1239 L720 1256 Z M388 1267 L394 1256 L403 1246 L420 1232 L434 1223 L445 1218 L447 1216 L467 1209 L470 1211 L487 1211 L488 1212 L494 1212 L502 1214 L513 1219 L520 1224 L528 1233 L534 1243 L540 1260 L541 1271 L542 1272 L542 1285 L541 1286 L541 1292 L539 1296 L539 1299 L536 1305 L524 1317 L514 1321 L509 1321 L508 1322 L481 1322 L480 1321 L468 1320 L452 1316 L432 1309 L415 1301 L400 1291 L389 1280 L387 1274 Z M645 1209 L644 1210 L628 1210 L627 1211 L623 1211 L618 1213 L614 1213 L601 1218 L588 1230 L583 1237 L579 1245 L578 1244 L579 1236 L584 1224 L597 1211 L603 1208 L614 1205 L632 1205 L633 1206 L642 1207 Z M471 1208 L485 1204 L502 1204 L510 1206 L519 1210 L532 1223 L538 1237 L540 1250 L539 1251 L538 1250 L537 1245 L528 1229 L516 1218 L508 1214 L502 1213 L498 1211 L494 1211 L488 1209 L472 1209 Z M579 1226 L573 1249 L573 1257 L572 1258 L572 1266 L571 1267 L571 1291 L574 1303 L579 1312 L584 1317 L592 1322 L608 1326 L630 1326 L631 1325 L638 1325 L639 1324 L644 1324 L645 1323 L662 1320 L680 1314 L702 1304 L720 1292 L724 1288 L729 1280 L730 1277 L729 1265 L721 1252 L704 1235 L692 1226 L679 1218 L657 1208 L640 1203 L629 1202 L628 1201 L611 1202 L601 1205 L590 1211 L584 1217 Z M539 1229 L532 1216 L523 1208 L513 1203 L505 1201 L499 1201 L498 1200 L482 1201 L481 1202 L472 1203 L451 1210 L433 1219 L410 1235 L401 1243 L388 1259 L384 1269 L385 1279 L387 1283 L400 1295 L409 1301 L439 1315 L459 1321 L479 1324 L480 1325 L503 1326 L504 1325 L515 1324 L521 1322 L531 1316 L540 1305 L543 1297 L544 1287 L545 1286 L545 1266 L544 1265 L543 1246 Z M581 1215 L594 1201 L604 1195 L618 1191 L636 1191 L648 1194 L651 1196 L661 1199 L687 1212 L689 1214 L705 1221 L713 1223 L720 1223 L721 1224 L723 1223 L723 1222 L714 1221 L697 1215 L656 1194 L632 1188 L615 1189 L605 1192 L597 1196 L585 1207 Z M531 1204 L522 1196 L507 1189 L488 1187 L487 1188 L474 1189 L459 1194 L415 1215 L407 1216 L390 1222 L399 1222 L400 1221 L408 1220 L411 1218 L419 1216 L451 1200 L473 1192 L482 1191 L483 1190 L499 1190 L514 1194 L527 1203 L541 1220 Z M578 1167 L579 1168 L572 1176 L565 1193 L562 1211 L561 1212 L560 1225 L559 1226 L560 1297 L561 1298 L561 1304 L564 1315 L567 1321 L575 1330 L574 1331 L570 1330 L539 1331 L538 1330 L548 1321 L552 1313 L556 1297 L557 1226 L556 1225 L556 1217 L555 1216 L554 1204 L551 1192 L545 1178 L538 1169 L539 1168 L543 1168 L550 1171 L555 1177 L558 1187 L559 1187 L560 1179 L562 1175 L567 1170 L571 1168 Z M536 1168 L537 1167 L539 1168 L538 1169 Z M641 1152 L642 1151 L646 1152 L645 1153 Z M472 1152 L473 1151 L476 1152 L475 1153 Z M717 1123 L718 1122 L719 1123 L718 1124 Z M397 1119 L405 1128 L401 1132 L396 1121 Z M290 1156 L293 1162 L303 1172 L310 1177 L326 1184 L345 1185 L346 1184 L356 1183 L373 1177 L423 1152 L425 1152 L447 1142 L471 1134 L491 1129 L513 1126 L514 1125 L520 1125 L521 1124 L547 1123 L548 1122 L574 1122 L575 1123 L591 1123 L592 1124 L610 1125 L611 1126 L631 1129 L643 1132 L650 1135 L653 1135 L656 1137 L664 1139 L667 1141 L677 1144 L684 1148 L686 1148 L742 1177 L764 1185 L782 1186 L798 1182 L811 1175 L822 1166 L826 1161 L813 1172 L798 1180 L786 1183 L766 1182 L748 1176 L688 1145 L686 1145 L669 1137 L658 1134 L655 1132 L618 1123 L613 1123 L606 1121 L597 1121 L596 1120 L584 1120 L583 1119 L541 1119 L540 1120 L528 1120 L527 1121 L519 1121 L518 1122 L499 1124 L473 1130 L448 1138 L428 1146 L371 1174 L357 1179 L344 1182 L329 1182 L328 1181 L320 1180 L315 1177 L313 1177 L305 1172 Z M832 1118 L828 1124 L809 1144 L797 1152 L786 1156 L784 1155 L788 1128 L791 1121 L802 1122 L803 1123 L804 1122 L817 1122 L829 1117 Z M395 1118 L396 1117 L397 1119 L396 1120 Z M284 1118 L287 1117 L290 1119 L302 1122 L320 1122 L321 1121 L325 1121 L326 1122 L326 1127 L330 1143 L331 1154 L330 1155 L323 1153 L309 1145 L296 1133 Z M831 1117 L832 1116 L833 1117 L832 1118 Z M283 1117 L284 1116 L285 1117 L284 1118 Z M844 1103 L842 1107 L837 1111 L821 1118 L805 1120 L804 1119 L798 1119 L791 1117 L793 1109 L800 1111 L813 1112 L814 1111 L825 1110 L834 1107 L843 1102 Z M726 1103 L727 1102 L728 1104 L727 1105 Z M271 1103 L273 1102 L287 1108 L291 1108 L297 1110 L304 1110 L305 1111 L316 1110 L322 1108 L324 1111 L324 1115 L325 1116 L321 1118 L315 1118 L314 1119 L297 1118 L278 1110 Z M725 1102 L726 1101 L727 1102 L726 1103 Z M270 1102 L271 1101 L272 1102 L271 1103 Z M724 1101 L725 1100 L726 1101 L725 1102 Z M338 1093 L339 1094 L339 1099 L341 1101 L343 1101 L345 1098 L349 1097 L355 1102 L358 1109 L357 1117 L350 1124 L344 1119 L347 1116 L344 1115 L344 1113 L347 1110 L347 1107 L346 1106 L338 1106 L335 1102 L335 1098 Z M338 1092 L339 1091 L340 1093 L339 1094 Z M629 1093 L632 1091 L636 1091 L637 1090 L652 1089 L653 1090 L663 1090 L664 1091 L675 1092 L691 1097 L707 1105 L711 1109 L711 1112 L705 1121 L712 1115 L714 1119 L714 1122 L717 1126 L715 1130 L713 1131 L702 1124 L674 1111 L652 1103 L636 1099 L632 1097 Z M485 1093 L479 1099 L464 1104 L461 1104 L440 1112 L424 1120 L422 1120 L410 1127 L402 1121 L399 1117 L401 1110 L404 1107 L420 1099 L437 1093 L445 1091 L450 1091 L451 1090 L460 1090 L461 1089 L479 1090 Z M782 1082 L783 1081 L784 1083 L783 1084 Z M341 1080 L343 1082 L343 1088 L340 1092 L339 1090 L341 1087 L341 1084 L339 1081 Z M780 1077 L781 1078 L780 1084 L782 1083 L783 1084 L777 1091 L777 1093 L780 1097 L780 1103 L777 1106 L773 1107 L773 1112 L770 1118 L767 1121 L762 1122 L757 1116 L758 1108 L761 1107 L766 1110 L770 1107 L770 1102 L763 1095 L763 1093 L768 1091 L775 1100 L777 1100 L777 1098 L771 1093 L771 1091 L778 1085 L778 1079 Z M334 1077 L339 1084 L338 1087 L336 1087 L333 1084 L333 1078 Z M387 1077 L388 1076 L389 1077 L388 1078 Z M389 1104 L399 1094 L419 1083 L440 1076 L450 1075 L451 1074 L458 1074 L459 1073 L487 1074 L488 1075 L494 1075 L495 1076 L500 1076 L501 1077 L523 1080 L524 1081 L541 1082 L542 1083 L582 1083 L583 1082 L598 1081 L599 1080 L614 1078 L619 1076 L624 1076 L631 1074 L657 1073 L658 1074 L677 1076 L684 1079 L687 1079 L709 1089 L722 1100 L725 1106 L725 1109 L720 1118 L717 1119 L715 1116 L715 1113 L712 1106 L708 1102 L700 1097 L678 1089 L670 1088 L669 1087 L661 1087 L660 1086 L638 1086 L637 1087 L629 1088 L625 1092 L626 1095 L629 1097 L628 1098 L618 1097 L617 1096 L608 1096 L607 1095 L591 1095 L590 1094 L589 1095 L505 1095 L504 1096 L487 1098 L486 1096 L488 1093 L484 1088 L476 1086 L453 1086 L452 1087 L446 1087 L431 1091 L406 1102 L399 1108 L399 1115 L398 1116 L392 1111 Z M784 1069 L776 1077 L773 1078 L772 1080 L775 1082 L775 1084 L769 1089 L762 1089 L759 1091 L760 1095 L767 1102 L767 1106 L764 1107 L762 1105 L758 1104 L754 1109 L754 1116 L756 1120 L763 1126 L767 1125 L773 1119 L776 1113 L775 1110 L777 1108 L779 1108 L783 1104 L783 1097 L780 1093 L780 1091 L785 1087 L786 1084 L786 1078 L785 1077 Z M334 1068 L332 1069 L330 1077 L330 1084 L336 1091 L332 1098 L332 1102 L337 1108 L340 1109 L343 1108 L344 1109 L340 1115 L340 1119 L342 1122 L345 1123 L351 1128 L358 1122 L361 1115 L360 1106 L357 1100 L351 1095 L347 1095 L343 1097 L341 1096 L346 1087 L346 1081 L343 1078 L340 1077 L338 1078 L336 1076 Z M338 1048 L339 1047 L340 1048 L339 1049 Z M776 1047 L777 1046 L778 1047 L777 1048 Z M337 1047 L338 1046 L339 1047 L338 1048 Z M336 1046 L337 1045 L338 1046 L337 1047 Z M779 1045 L780 1044 L781 1045 L780 1046 Z M334 1045 L335 1044 L336 1045 L335 1046 Z M796 1043 L800 1049 L798 1057 L797 1068 L794 1079 L794 1084 L793 1085 L786 1124 L783 1134 L780 1158 L779 1159 L769 1159 L756 1155 L720 1135 L718 1133 L729 1108 L740 1091 L762 1063 L770 1055 L777 1050 L779 1050 L791 1043 Z M780 1044 L781 1043 L783 1044 L782 1045 Z M333 1044 L334 1043 L335 1044 L334 1045 Z M798 1043 L799 1042 L800 1043 L799 1044 Z M782 1043 L783 1042 L785 1043 L784 1044 Z M331 1043 L332 1042 L334 1043 L333 1044 Z M784 1042 L785 1041 L787 1042 L786 1043 Z M774 1042 L775 1041 L776 1042 L775 1043 Z M329 1042 L330 1041 L332 1042 L331 1043 Z M318 1041 L321 1041 L329 1045 L344 1055 L366 1079 L379 1096 L389 1112 L393 1123 L398 1132 L396 1135 L391 1137 L377 1146 L358 1155 L348 1158 L336 1158 L335 1157 L333 1138 L329 1122 L329 1117 L324 1096 L324 1091 L322 1085 L322 1080 L321 1079 L317 1051 L316 1050 L316 1043 Z M797 1041 L798 1040 L799 1041 L798 1042 Z M786 1041 L787 1040 L789 1041 L788 1042 Z M328 1041 L329 1040 L330 1041 L329 1042 Z M788 1040 L789 1039 L792 1040 L791 1041 Z M326 1040 L327 1039 L329 1040 L328 1041 Z M792 1039 L793 1038 L794 1039 L793 1040 Z M810 1037 L811 1036 L813 1037 L812 1038 Z M313 1037 L314 1036 L315 1037 L314 1038 Z M882 1036 L855 1117 L852 1122 L849 1131 L835 1157 L822 1175 L808 1188 L796 1195 L779 1199 L763 1198 L746 1193 L681 1161 L646 1148 L618 1141 L600 1139 L599 1138 L592 1138 L591 1137 L577 1137 L576 1136 L538 1136 L537 1137 L528 1137 L527 1138 L507 1140 L488 1145 L484 1145 L449 1156 L444 1159 L432 1163 L390 1184 L388 1184 L379 1189 L363 1195 L355 1197 L348 1197 L347 1198 L336 1198 L335 1197 L326 1196 L312 1190 L297 1178 L288 1168 L277 1152 L258 1113 L234 1039 L235 1036 L242 1043 L249 1048 L259 1053 L272 1056 L291 1056 L292 1055 L301 1054 L311 1050 L313 1051 L316 1073 L317 1074 L319 1090 L322 1102 L321 1106 L313 1107 L312 1108 L301 1108 L300 1107 L289 1106 L269 1098 L263 1092 L257 1083 L257 1085 L272 1110 L291 1132 L304 1145 L314 1152 L325 1157 L331 1158 L335 1161 L349 1161 L364 1156 L383 1146 L395 1138 L430 1120 L432 1120 L452 1111 L478 1103 L493 1101 L494 1100 L501 1100 L502 1099 L513 1099 L514 1098 L601 1098 L602 1099 L612 1099 L613 1100 L633 1102 L667 1112 L682 1119 L684 1119 L706 1130 L715 1136 L717 1136 L719 1138 L726 1141 L741 1151 L753 1157 L769 1162 L780 1162 L788 1158 L793 1157 L810 1147 L825 1132 L840 1114 L858 1085 L854 1088 L848 1097 L836 1104 L816 1109 L804 1109 L803 1108 L794 1107 L793 1104 L797 1089 L797 1084 L799 1078 L799 1073 L800 1072 L800 1067 L801 1066 L803 1053 L805 1052 L812 1055 L821 1056 L822 1057 L845 1057 L846 1056 L850 1056 L865 1050 L873 1044 L881 1035 Z M233 1035 L234 1034 L235 1036 L234 1037 Z M304 1034 L305 1033 L308 1034 L307 1035 Z M230 1032 L231 1031 L232 1032 L231 1033 Z M760 1031 L761 1030 L762 1031 L761 1032 Z M595 1029 L596 1028 L597 1029 L596 1030 Z M357 1028 L355 1031 L359 1039 L362 1042 L365 1048 L371 1054 L376 1065 L381 1069 L384 1075 L387 1078 L388 1081 L389 1081 L388 1080 L389 1077 L382 1063 L382 1061 L368 1040 L366 1039 Z M615 1015 L616 1014 L617 1015 L616 1016 Z M503 1014 L504 1013 L505 1014 L504 1015 Z M219 1013 L220 1012 L221 1013 L229 1036 L231 1039 L233 1048 L237 1058 L237 1061 L241 1071 L241 1074 L253 1110 L260 1125 L260 1127 L265 1136 L265 1138 L275 1156 L287 1173 L301 1187 L308 1192 L320 1198 L332 1201 L351 1201 L352 1200 L361 1199 L376 1194 L437 1165 L458 1158 L475 1155 L484 1152 L484 1151 L477 1152 L476 1151 L477 1150 L510 1142 L529 1140 L530 1139 L540 1139 L541 1138 L585 1139 L586 1140 L595 1140 L596 1141 L608 1142 L609 1143 L623 1145 L642 1151 L641 1152 L633 1152 L632 1151 L627 1151 L626 1152 L645 1155 L653 1158 L679 1164 L749 1198 L765 1202 L785 1202 L793 1200 L806 1194 L813 1189 L828 1174 L843 1151 L852 1133 L852 1131 L863 1106 L875 1069 L880 1048 L885 1033 L889 1025 L891 1017 L893 1014 L894 1015 L894 1019 L893 1020 L893 1026 L892 1027 L891 1037 L886 1057 L886 1061 L881 1077 L881 1080 L878 1087 L878 1090 L863 1132 L847 1167 L825 1205 L800 1239 L772 1268 L753 1284 L722 1305 L691 1320 L667 1328 L650 1331 L649 1332 L644 1332 L643 1333 L625 1334 L624 1335 L602 1335 L601 1334 L586 1333 L580 1331 L569 1320 L564 1305 L564 1299 L563 1298 L563 1262 L564 1261 L564 1254 L565 1253 L567 1240 L573 1225 L567 1238 L563 1252 L562 1251 L562 1223 L563 1222 L563 1215 L564 1214 L566 1199 L572 1181 L577 1173 L581 1169 L585 1167 L584 1165 L570 1166 L563 1170 L558 1177 L555 1172 L548 1167 L540 1165 L532 1165 L531 1167 L540 1175 L547 1188 L552 1206 L553 1220 L554 1221 L554 1287 L553 1288 L552 1304 L548 1316 L545 1321 L534 1331 L523 1334 L494 1335 L493 1334 L473 1333 L472 1332 L461 1331 L445 1327 L427 1321 L397 1307 L380 1297 L355 1279 L339 1265 L311 1235 L293 1211 L276 1184 L259 1151 L259 1149 L248 1126 L242 1108 L240 1105 L239 1099 L232 1079 L228 1063 L228 1059 L226 1054 L222 1030 L221 1029 Z M894 1011 L895 1012 L894 1015 L893 1014 Z M218 1010 L219 1009 L220 1011 L219 1012 Z M561 996 L559 997 L556 1003 L557 1006 L560 1006 L562 1003 Z M337 1041 L346 1034 L348 1034 L357 1025 L358 1026 L357 1025 L368 1011 L391 969 L398 981 L404 988 L413 995 L426 1001 L454 1005 L469 1010 L486 1019 L502 1030 L534 1058 L545 1063 L553 1065 L567 1065 L571 1063 L577 1062 L585 1058 L592 1053 L606 1039 L631 1021 L646 1013 L667 1006 L687 1004 L700 1000 L708 995 L718 985 L726 972 L735 987 L746 1010 L761 1030 L753 1036 L748 1048 L745 1051 L742 1059 L737 1064 L735 1064 L732 1067 L730 1072 L723 1081 L724 1091 L727 1089 L738 1069 L747 1057 L752 1046 L756 1042 L762 1031 L772 1038 L775 1041 L774 1042 L775 1043 L765 1053 L749 1072 L730 1100 L724 1098 L710 1087 L696 1080 L682 1075 L669 1072 L662 1072 L661 1071 L636 1071 L635 1072 L627 1072 L626 1073 L615 1074 L614 1075 L598 1077 L597 1078 L577 1079 L576 1080 L534 1079 L533 1078 L526 1078 L525 1077 L513 1076 L512 1075 L507 1075 L494 1072 L486 1072 L485 1071 L455 1071 L454 1072 L448 1072 L435 1075 L410 1084 L402 1075 L396 1066 L386 1046 L385 1046 L390 1058 L409 1085 L394 1096 L391 1097 L387 1101 L371 1078 L373 1074 L371 1078 L354 1058 Z M560 956 L562 963 L562 969 L569 994 L568 1006 L560 1025 L553 1011 L551 1004 L551 993 L557 973 L559 957 Z M560 948 L559 948 L558 952 L558 958 L557 959 L557 965 L556 966 L555 974 L549 990 L549 1004 L559 1029 L559 1034 L554 1042 L560 1036 L560 1030 L567 1015 L571 1000 L571 992 L564 971 Z M780 934 L789 930 L798 929 L799 928 L808 928 L809 929 L818 930 L824 932 L837 939 L850 952 L855 959 L862 975 L863 985 L864 986 L864 995 L863 996 L862 1005 L856 1019 L843 1032 L837 1035 L827 1036 L826 1037 L818 1036 L806 1032 L790 1022 L780 1012 L769 995 L764 980 L763 961 L765 953 L769 945 Z M331 930 L338 934 L347 943 L353 958 L352 978 L344 998 L338 1007 L330 1016 L317 1026 L307 1031 L297 1034 L287 1035 L286 1034 L278 1033 L272 1030 L262 1021 L258 1015 L252 997 L253 976 L257 964 L262 955 L278 938 L291 931 L305 927 L320 927 Z M814 927 L815 926 L817 927 L816 928 Z M809 926 L810 925 L814 926 L813 927 Z M298 926 L299 925 L300 926 L299 927 Z M301 925 L302 924 L305 925 L304 926 Z M783 923 L799 922 L810 925 L809 926 L798 926 L785 929 L775 935 L769 941 L762 954 L762 958 L761 959 L761 978 L765 991 L772 1005 L778 1013 L789 1024 L801 1032 L810 1036 L809 1037 L798 1034 L783 1025 L769 1011 L758 993 L752 976 L751 957 L753 949 L758 939 L770 928 Z M332 921 L344 925 L350 929 L358 937 L362 944 L365 954 L365 970 L359 989 L353 1000 L344 1012 L334 1022 L327 1027 L317 1032 L308 1034 L307 1033 L314 1030 L325 1023 L339 1009 L349 993 L355 975 L355 967 L356 966 L355 964 L355 956 L354 952 L347 939 L336 930 L327 926 L323 926 L322 925 L305 925 L304 924 L312 921 L321 921 L322 920 Z M702 918 L709 926 L712 932 L715 944 L713 961 L711 967 L704 979 L698 985 L690 990 L683 992 L668 993 L650 998 L628 1008 L617 1015 L616 1013 L631 990 L642 960 L654 941 L670 925 L681 918 L687 916 L698 916 Z M417 917 L425 914 L435 915 L449 923 L465 939 L478 960 L484 975 L484 978 L492 996 L504 1013 L503 1014 L488 1005 L470 997 L457 993 L432 989 L421 983 L412 974 L405 960 L404 951 L403 950 L403 943 L404 942 L404 937 L408 927 Z M417 912 L418 911 L419 912 L418 913 Z M645 905 L646 904 L647 905 L646 906 Z M473 903 L474 902 L475 903 L474 904 Z M737 890 L738 889 L741 890 L766 909 L783 919 L768 926 L766 926 L751 903 Z M734 888 L736 887 L738 889 L736 890 Z M732 887 L733 886 L735 887 L734 888 Z M731 886 L732 885 L733 886 L732 887 Z M729 885 L730 884 L732 885 L731 886 Z M728 884 L729 883 L730 884 L729 885 Z M726 883 L727 882 L729 883 L728 884 Z M724 882 L725 881 L727 882 L726 883 Z M722 881 L723 880 L725 881 L724 882 Z M720 880 L721 879 L723 880 L722 881 Z M322 1034 L337 1024 L348 1013 L356 1002 L364 986 L367 977 L369 965 L379 936 L386 922 L397 906 L413 891 L428 883 L442 879 L458 879 L459 880 L467 881 L475 885 L481 890 L485 898 L486 910 L485 911 L482 908 L478 901 L472 895 L459 890 L454 890 L453 889 L441 890 L433 893 L424 899 L407 921 L400 939 L400 954 L402 962 L406 971 L410 977 L418 985 L428 991 L440 994 L456 996 L463 999 L466 999 L493 1012 L520 1030 L536 1046 L548 1054 L555 1056 L564 1056 L571 1054 L583 1046 L603 1028 L630 1011 L654 1000 L670 996 L683 995 L693 992 L702 986 L709 978 L713 971 L717 960 L718 940 L712 924 L703 912 L695 904 L683 897 L674 894 L659 893 L649 897 L641 905 L635 913 L634 912 L634 905 L636 897 L645 887 L655 883 L668 882 L669 881 L681 882 L694 886 L710 896 L721 907 L728 917 L735 930 L745 958 L753 990 L761 1006 L775 1023 L792 1035 L782 1040 L778 1040 L771 1035 L758 1022 L745 1003 L728 970 L727 966 L726 966 L717 982 L702 996 L694 1000 L686 1001 L685 1002 L665 1004 L644 1011 L620 1025 L601 1040 L588 1053 L582 1057 L567 1063 L552 1063 L543 1060 L533 1054 L504 1028 L477 1011 L456 1003 L431 1000 L416 994 L400 979 L392 965 L390 966 L377 991 L364 1012 L357 1021 L347 1031 L335 1039 Z M718 879 L719 878 L721 879 L720 880 Z M716 878 L717 877 L719 878 L718 879 Z M400 878 L387 886 L374 897 L361 911 L351 925 L335 918 L356 905 L383 885 L398 877 Z M714 877 L715 876 L717 877 L716 878 Z M399 877 L400 876 L402 877 L401 878 Z M712 876 L713 875 L714 876 L713 877 Z M401 876 L402 875 L404 876 L403 877 Z M710 875 L711 874 L712 875 L711 876 Z M404 875 L405 874 L406 875 L405 876 Z M406 874 L407 873 L409 874 L408 875 Z M929 853 L930 854 L929 857 L928 856 Z M185 848 L186 849 L185 852 L184 851 Z M183 846 L184 845 L185 846 L184 847 Z M559 841 L563 842 L570 850 L585 881 L597 919 L597 923 L601 939 L601 944 L602 945 L603 961 L604 962 L603 992 L597 1018 L590 1032 L584 1040 L575 1048 L567 1052 L563 1052 L562 1053 L553 1052 L543 1047 L532 1036 L528 1030 L522 1017 L518 1003 L517 992 L516 991 L516 978 L515 977 L516 955 L517 954 L518 941 L528 901 L546 858 L555 844 Z M661 795 L662 794 L663 795 L662 796 Z M660 794 L661 793 L662 794 L661 795 Z M454 793 L455 792 L456 793 L455 794 Z M447 793 L448 792 L449 793 L448 794 Z M927 792 L928 791 L929 792 L928 793 Z M658 792 L660 791 L661 793 L660 794 Z M455 792 L456 791 L457 792 L456 793 Z M448 792 L449 791 L450 792 L449 793 Z M651 791 L652 790 L653 791 L652 792 Z M460 791 L461 790 L462 791 L461 792 Z M456 791 L457 790 L458 791 L457 792 Z M449 791 L450 790 L451 791 L450 792 Z M658 790 L659 789 L660 790 L659 791 Z M926 789 L927 788 L928 790 L927 791 Z M665 789 L666 788 L667 789 L666 790 Z M657 789 L658 788 L659 789 L658 790 Z M925 787 L926 786 L927 788 L926 789 Z M188 786 L189 785 L190 786 L189 787 Z M795 777 L796 776 L797 777 L796 778 Z M322 776 L323 775 L324 776 L323 777 Z M899 770 L910 775 L919 784 L923 790 L927 799 L930 810 L931 832 L925 856 L922 861 L922 863 L912 878 L906 884 L896 890 L893 891 L881 891 L875 889 L866 883 L856 871 L851 861 L848 851 L848 847 L847 846 L847 828 L848 827 L849 817 L853 806 L858 796 L863 789 L877 776 L888 771 Z M881 770 L882 771 L881 772 L877 773 L869 779 L856 795 L849 810 L845 826 L845 847 L849 862 L853 870 L860 880 L869 888 L878 892 L877 893 L873 893 L866 891 L855 885 L848 878 L843 871 L836 854 L834 834 L835 833 L836 821 L840 808 L849 792 L864 777 L873 772 Z M881 770 L882 769 L884 770 L883 771 Z M236 767 L241 768 L251 773 L267 789 L275 803 L281 824 L281 847 L277 861 L273 869 L268 876 L258 885 L243 891 L239 891 L238 890 L245 887 L253 881 L264 866 L270 848 L271 826 L270 825 L270 819 L268 811 L260 792 L251 780 L242 772 L235 768 Z M216 767 L225 767 L232 769 L242 775 L252 785 L262 801 L268 820 L269 842 L265 859 L257 873 L247 883 L235 889 L223 889 L211 883 L202 874 L195 864 L191 856 L185 835 L185 829 L184 828 L185 808 L186 807 L187 799 L191 789 L196 781 L205 772 Z M601 766 L613 771 L617 775 L618 784 L619 785 L619 792 L620 793 L620 798 L621 799 L621 804 L622 805 L626 829 L630 845 L632 849 L632 852 L634 856 L634 859 L639 870 L644 875 L647 875 L657 871 L666 870 L667 869 L680 869 L681 870 L692 871 L712 878 L736 892 L751 907 L755 913 L753 914 L764 928 L757 935 L753 941 L749 951 L749 956 L748 957 L738 929 L726 908 L712 893 L705 888 L693 882 L678 878 L668 878 L667 879 L658 880 L649 883 L640 888 L636 892 L634 898 L632 900 L631 899 L629 888 L623 870 L622 863 L620 859 L614 835 L612 821 L609 811 L608 800 L606 794 L605 782 L602 771 L600 768 Z M519 766 L520 768 L517 774 L515 782 L514 792 L513 793 L512 802 L510 807 L510 811 L506 827 L506 832 L503 841 L503 845 L499 861 L491 887 L489 898 L488 899 L484 890 L478 884 L465 878 L457 877 L456 876 L441 876 L424 881 L413 887 L404 894 L395 903 L389 911 L377 933 L369 956 L367 952 L366 945 L362 937 L353 926 L355 922 L364 911 L385 891 L405 878 L425 870 L435 869 L436 868 L444 868 L445 867 L461 868 L474 873 L477 873 L480 870 L486 857 L487 850 L489 846 L493 830 L493 826 L498 807 L498 802 L501 792 L503 776 L509 770 Z M896 766 L897 765 L898 766 L897 767 Z M289 766 L291 765 L296 768 L330 802 L344 813 L362 822 L382 827 L400 827 L423 821 L442 811 L469 788 L470 791 L465 800 L458 809 L447 820 L433 829 L421 835 L401 841 L396 841 L395 842 L369 842 L352 837 L341 831 L332 824 L318 808 L301 780 Z M832 765 L817 782 L798 811 L784 826 L773 834 L763 839 L747 843 L725 843 L724 842 L719 842 L701 837 L686 830 L674 822 L664 813 L658 805 L652 794 L653 791 L676 811 L687 818 L698 823 L719 828 L744 827 L760 822 L776 813 L785 806 L804 786 L822 770 L826 768 L830 764 Z M288 765 L289 764 L290 765 L289 766 Z M831 764 L832 763 L833 764 L832 765 Z M287 764 L288 763 L289 764 L288 765 Z M621 776 L625 775 L629 776 L631 789 L635 801 L642 815 L649 825 L669 844 L694 858 L712 864 L716 864 L722 866 L729 866 L730 867 L746 867 L747 866 L754 866 L773 860 L791 848 L807 831 L834 790 L852 773 L864 766 L878 762 L887 762 L896 765 L895 766 L880 766 L873 768 L859 776 L849 786 L844 793 L837 807 L833 820 L832 833 L831 834 L833 855 L841 874 L847 882 L855 889 L864 894 L871 896 L878 896 L879 897 L889 896 L906 888 L917 877 L921 871 L927 859 L927 857 L928 856 L929 857 L926 875 L908 945 L907 954 L905 959 L901 981 L896 996 L896 999 L885 1028 L869 1044 L857 1051 L842 1055 L821 1055 L809 1052 L804 1049 L804 1043 L802 1040 L803 1039 L810 1041 L828 1041 L839 1038 L845 1035 L856 1025 L863 1013 L867 997 L866 978 L864 970 L859 959 L846 942 L829 929 L814 922 L806 920 L801 920 L800 919 L786 919 L739 886 L718 875 L709 872 L705 872 L704 871 L702 872 L693 869 L682 868 L681 867 L666 867 L665 868 L653 869 L645 872 L640 867 L634 851 L628 827 L628 823 L626 818 L624 802 L622 796 L621 784 L620 783 L620 777 Z M286 763 L287 762 L288 763 L287 764 Z M656 761 L658 763 L658 768 L660 775 L666 787 L665 789 L647 768 Z M836 760 L837 761 L833 764 L832 763 Z M526 764 L542 762 L543 761 L569 760 L570 761 L579 761 L580 762 L591 763 L598 766 L602 778 L604 797 L605 798 L608 817 L610 822 L612 836 L614 841 L614 845 L618 861 L620 865 L620 868 L626 885 L626 889 L631 906 L633 919 L635 919 L643 910 L653 904 L660 902 L661 900 L647 905 L646 904 L649 901 L654 898 L662 897 L663 896 L669 896 L683 900 L691 904 L699 912 L698 913 L690 912 L678 916 L666 924 L654 936 L643 952 L636 966 L629 987 L623 998 L610 1017 L597 1029 L596 1027 L599 1021 L604 1005 L605 995 L606 994 L606 985 L607 984 L607 959 L606 958 L606 950 L605 949 L604 937 L597 907 L585 873 L574 851 L570 845 L564 839 L559 838 L554 841 L546 852 L534 877 L529 892 L527 895 L517 930 L515 946 L514 947 L514 953 L513 954 L512 979 L513 980 L513 992 L514 993 L516 1008 L521 1023 L523 1026 L522 1028 L513 1020 L500 1003 L491 987 L479 955 L465 934 L452 921 L439 913 L432 911 L423 911 L422 912 L418 911 L424 903 L433 896 L445 893 L456 893 L464 895 L470 898 L474 902 L473 903 L461 898 L453 897 L474 906 L487 919 L489 906 L493 892 L493 888 L501 862 L506 842 L506 838 L508 833 L509 824 L511 819 L511 815 L515 799 L515 794 L517 788 L519 773 L521 768 Z M442 761 L431 782 L422 791 L413 796 L423 793 L432 785 L438 775 L439 770 L442 764 Z M283 761 L284 760 L285 761 L284 762 Z M463 759 L473 768 L468 773 L465 778 L451 791 L450 789 L457 778 L461 768 L462 760 Z M500 775 L501 779 L497 796 L497 801 L487 841 L486 849 L481 864 L476 870 L456 865 L445 865 L444 866 L428 867 L415 871 L407 871 L401 873 L382 883 L363 896 L352 905 L332 918 L328 918 L327 917 L311 918 L300 921 L287 927 L277 934 L260 952 L253 965 L250 974 L249 986 L248 987 L249 1000 L254 1015 L259 1023 L266 1030 L277 1036 L289 1039 L304 1039 L305 1038 L313 1037 L314 1038 L312 1042 L312 1047 L310 1049 L304 1051 L300 1051 L289 1054 L276 1054 L259 1050 L249 1045 L241 1039 L227 1023 L218 999 L218 996 L213 981 L212 972 L210 967 L210 963 L205 943 L205 939 L203 934 L203 930 L200 921 L200 917 L188 871 L187 862 L185 857 L185 852 L186 851 L193 867 L200 877 L207 884 L221 892 L229 894 L244 894 L248 893 L261 887 L268 881 L275 872 L282 857 L284 849 L284 823 L280 807 L272 790 L267 783 L258 774 L251 769 L240 764 L229 763 L228 762 L220 763 L219 762 L227 759 L239 759 L252 763 L263 769 L281 786 L294 804 L307 826 L313 834 L328 849 L347 860 L355 863 L369 865 L370 866 L391 866 L392 865 L398 865 L414 861 L430 855 L452 842 L470 825 L480 811 L488 794 L491 785 L492 776 L493 775 Z M785 767 L785 759 L784 759 L779 775 L774 783 L757 797 L740 804 L723 806 L707 802 L696 795 L684 780 L678 766 L673 760 L674 765 L682 781 L686 787 L697 798 L707 804 L722 808 L738 807 L752 802 L762 797 L774 787 Z M618 757 L619 756 L627 762 L624 765 L621 766 L618 760 Z M510 757 L508 757 L502 760 L502 761 L507 760 Z M465 757 L466 756 L467 757 L466 758 Z M464 756 L465 755 L466 756 L465 757 Z M332 755 L333 764 L338 775 L346 786 L354 794 L363 799 L376 804 L379 804 L382 806 L395 807 L393 805 L383 804 L363 797 L353 790 L343 780 L336 767 Z M848 754 L838 761 L836 760 L843 753 L847 753 Z M463 754 L464 753 L465 754 L464 755 Z M847 753 L848 752 L850 753 L849 754 Z M461 751 L462 750 L463 751 L462 752 Z M900 750 L901 749 L902 750 L901 751 Z M660 749 L661 748 L662 749 L661 750 Z M566 750 L567 752 L568 751 L586 752 L587 753 L596 754 L600 756 L605 756 L605 755 L599 752 L586 749 Z M527 753 L529 754 L530 753 L538 753 L539 752 L550 752 L551 751 L555 751 L555 750 L552 749 L538 749 L537 750 L529 751 Z M459 748 L460 747 L461 748 L460 749 Z M263 748 L264 747 L266 748 L265 749 Z M862 747 L863 746 L865 747 L864 748 Z M261 747 L262 746 L263 747 L262 748 Z M493 762 L498 758 L506 754 L522 749 L537 747 L538 746 L544 746 L545 745 L578 745 L579 746 L585 746 L586 747 L600 749 L612 753 L618 757 L616 759 L614 759 L614 761 L619 763 L621 766 L617 769 L615 769 L606 764 L583 758 L576 758 L575 757 L548 757 L547 758 L533 759 L517 763 L508 767 L503 771 Z M458 746 L459 745 L460 746 L459 747 Z M258 746 L259 745 L261 746 L260 747 Z M219 745 L220 744 L221 745 L220 746 Z M663 744 L664 743 L665 744 L664 745 Z M457 744 L458 743 L459 744 L458 745 Z M664 742 L665 741 L666 742 L665 743 Z M456 742 L457 741 L458 742 L457 743 Z M665 740 L666 739 L667 740 L666 741 Z M455 740 L456 739 L457 741 L456 742 Z M869 739 L870 738 L872 739 L871 740 Z M666 738 L667 737 L668 738 L667 739 Z M454 738 L455 737 L456 739 L455 740 Z M838 754 L829 760 L827 764 L823 768 L810 777 L776 810 L763 818 L753 822 L741 825 L717 825 L701 821 L681 811 L672 804 L666 796 L667 794 L684 808 L703 817 L711 818 L712 819 L719 819 L720 820 L744 819 L757 815 L767 810 L781 799 L800 775 L797 777 L796 776 L801 759 L801 753 L802 752 L802 739 L801 737 L802 736 L811 743 L815 748 L827 753 L818 757 L810 764 L825 756 L834 753 Z M453 737 L454 736 L455 737 L454 738 Z M265 749 L268 748 L275 750 L281 750 L284 752 L289 753 L308 763 L303 758 L292 752 L304 748 L308 743 L317 736 L318 737 L317 752 L318 753 L319 763 L323 775 L321 776 L319 774 L317 774 L344 803 L359 812 L375 817 L379 817 L380 818 L406 818 L407 817 L412 817 L423 813 L425 811 L434 807 L453 793 L455 794 L448 802 L429 815 L420 819 L410 822 L398 823 L397 824 L381 824 L380 823 L376 823 L362 819 L346 811 L329 797 L303 772 L294 766 L290 761 L284 758 L280 758 Z M667 736 L668 735 L669 736 L668 737 Z M452 735 L453 734 L454 736 L453 737 Z M668 734 L669 733 L670 735 L669 736 Z M901 749 L899 750 L888 746 L870 746 L869 747 L865 747 L864 746 L868 743 L880 738 L888 732 L893 740 Z M798 728 L799 727 L800 728 L799 729 Z M797 727 L798 726 L799 727 L798 728 Z M321 727 L322 726 L323 727 L322 728 Z M796 726 L797 725 L798 726 L797 727 Z M322 726 L323 725 L324 726 L323 727 Z M795 725 L796 724 L797 725 L796 726 Z M323 725 L324 724 L325 725 L324 726 Z M794 724 L795 723 L796 724 L795 725 Z M324 724 L325 723 L326 724 L325 725 Z M793 723 L794 722 L795 723 L794 724 Z M792 722 L793 721 L794 722 L793 723 Z M326 722 L327 721 L328 722 L327 723 Z M686 718 L687 717 L688 718 L687 719 Z M687 716 L688 715 L689 717 L688 718 Z M688 715 L689 714 L690 715 L689 716 Z M689 714 L690 713 L691 714 L690 715 Z M430 714 L431 713 L432 714 L431 715 Z M884 712 L885 713 L888 732 L884 735 L881 735 L872 739 L871 737 L878 728 Z M788 713 L789 712 L790 713 L789 714 Z M429 713 L430 712 L431 713 L430 714 Z M787 712 L788 711 L789 712 L788 713 Z M330 712 L331 711 L332 712 L331 713 Z M331 711 L332 710 L333 711 L332 712 Z M332 710 L333 709 L334 710 L333 711 Z M339 709 L340 708 L341 709 L340 710 Z M340 708 L341 707 L342 708 L341 709 Z M341 707 L342 706 L343 707 L342 708 Z M784 705 L788 710 L787 712 L782 707 Z M343 706 L344 705 L345 706 L344 707 Z M344 705 L345 704 L346 705 L345 706 Z M347 703 L348 702 L349 703 L348 704 Z M768 702 L769 701 L770 702 L769 703 Z M349 702 L350 701 L351 702 L350 703 Z M766 701 L767 700 L768 701 L767 702 Z M631 700 L632 703 L631 704 L631 720 L630 721 L626 716 L625 712 Z M350 701 L351 700 L352 701 L351 702 Z M764 700 L765 699 L766 700 L765 701 Z M797 732 L799 735 L799 754 L795 770 L789 783 L782 793 L772 803 L763 809 L747 816 L737 817 L736 818 L722 818 L721 817 L710 816 L692 809 L683 803 L674 795 L666 783 L661 771 L659 759 L672 736 L681 723 L686 718 L687 720 L683 727 L683 730 L681 734 L680 750 L683 763 L688 773 L702 787 L714 793 L722 795 L736 795 L737 794 L745 793 L758 786 L768 777 L776 763 L779 751 L779 736 L776 725 L770 714 L760 704 L754 700 L756 699 L771 707 L779 713 Z M321 734 L343 711 L353 704 L364 699 L365 700 L353 710 L347 718 L343 726 L340 739 L341 754 L347 769 L351 775 L360 784 L372 791 L382 794 L399 794 L411 790 L423 782 L433 770 L438 758 L440 743 L439 742 L438 730 L436 724 L431 716 L432 714 L444 728 L459 752 L459 765 L457 772 L451 784 L444 793 L431 805 L418 812 L409 815 L404 815 L403 816 L381 816 L380 815 L376 815 L363 811 L352 805 L344 799 L334 788 L326 775 L321 759 L321 754 L320 753 L320 738 Z M352 700 L353 699 L354 700 L353 701 Z M762 699 L763 698 L764 699 L763 700 Z M752 699 L753 698 L754 699 L753 700 Z M365 699 L366 698 L367 699 L366 700 Z M354 699 L355 698 L356 699 L355 700 Z M722 697 L737 697 L745 699 L757 706 L766 715 L770 721 L775 733 L776 748 L773 761 L769 769 L755 784 L748 788 L739 791 L733 791 L732 792 L720 791 L711 788 L704 784 L691 771 L686 761 L684 753 L684 737 L687 727 L691 719 L704 705 L715 699 Z M493 729 L496 721 L504 713 L514 707 L530 701 L543 699 L544 698 L556 698 L557 697 L569 697 L570 698 L586 699 L603 704 L610 708 L612 708 L618 712 L626 720 L630 730 L629 732 L629 758 L628 759 L616 752 L605 748 L602 748 L594 745 L576 743 L575 742 L549 742 L548 743 L528 745 L504 752 L493 758 L492 757 Z M356 698 L357 697 L358 698 L357 699 Z M384 696 L397 696 L405 698 L413 702 L426 714 L433 726 L436 737 L435 756 L430 768 L425 775 L413 785 L407 788 L395 791 L380 790 L374 788 L362 781 L354 773 L347 761 L344 750 L344 736 L347 726 L352 717 L361 707 L368 702 Z M358 697 L359 696 L361 697 L360 698 Z M361 696 L362 695 L363 696 L362 697 Z M784 705 L782 707 L769 698 L753 691 L743 690 L742 689 L727 690 L711 695 L697 703 L684 715 L673 729 L672 732 L670 734 L669 733 L669 731 L677 716 L690 701 L705 690 L724 683 L728 683 L729 682 L747 682 L758 685 L774 694 Z M333 708 L338 701 L348 691 L356 686 L372 681 L393 681 L394 682 L398 682 L410 686 L424 694 L443 714 L449 724 L453 734 L452 735 L441 719 L423 701 L408 693 L399 690 L395 690 L394 689 L374 689 L373 690 L369 690 L365 692 L359 693 L351 697 L334 710 Z M518 680 L528 680 L523 680 L522 679 Z M672 664 L666 671 L657 678 L652 676 L653 673 L661 666 L666 663 L671 663 Z M671 663 L672 662 L673 663 L672 664 Z M450 663 L451 662 L457 662 L474 671 L476 671 L474 670 L475 669 L480 669 L481 670 L504 670 L505 669 L516 668 L532 663 L550 663 L557 666 L559 668 L560 667 L555 664 L556 663 L566 663 L567 664 L564 665 L565 666 L563 667 L572 663 L589 663 L605 668 L615 669 L616 670 L626 670 L627 671 L640 671 L652 668 L655 669 L649 678 L641 682 L636 687 L634 694 L631 687 L623 681 L608 676 L604 676 L593 673 L587 673 L586 672 L579 672 L579 673 L591 675 L596 677 L601 677 L602 678 L596 680 L573 680 L572 679 L536 679 L535 680 L531 680 L534 681 L545 681 L546 682 L583 682 L584 681 L613 680 L626 685 L631 692 L631 698 L628 702 L624 712 L622 712 L616 707 L604 701 L591 697 L581 696 L580 695 L571 695 L570 694 L552 694 L551 695 L544 695 L543 696 L534 697 L518 702 L503 710 L493 721 L492 720 L492 709 L493 707 L492 706 L492 699 L491 697 L492 696 L492 691 L494 687 L505 681 L516 679 L528 675 L542 673 L542 672 L540 671 L530 672 L503 679 L493 685 L489 694 L487 692 L488 690 L484 684 L470 676 L463 675 Z M578 660 L579 659 L580 660 L579 661 Z M541 660 L542 659 L544 660 L543 661 Z M543 659 L558 652 L564 652 L578 659 L577 660 L569 660 L562 662 L553 661 L548 659 L544 660 Z M925 619 L927 623 L927 629 L929 637 L929 645 L930 646 L930 653 L931 654 L933 679 L934 680 L934 687 L935 688 L938 716 L940 724 L940 731 L942 738 L942 745 L943 746 L944 760 L946 768 L949 804 L950 805 L950 812 L951 813 L951 820 L952 821 L953 831 L956 842 L959 848 L964 854 L973 859 L980 859 L981 858 L983 859 L981 863 L976 866 L966 866 L965 865 L957 864 L944 860 L934 855 L936 837 L937 836 L937 828 L938 827 L938 816 L939 815 L940 781 L939 780 L936 753 L926 715 L924 700 L922 694 L921 680 L920 679 L920 649 L921 648 L922 631 Z M189 617 L192 626 L194 643 L195 644 L196 678 L195 679 L195 686 L194 687 L191 708 L189 713 L189 717 L184 737 L178 756 L176 774 L175 775 L176 816 L177 817 L177 828 L178 829 L178 836 L179 837 L181 855 L155 864 L140 866 L134 864 L131 861 L130 858 L131 857 L135 859 L142 858 L147 855 L153 849 L156 844 L161 825 L163 806 L164 805 L165 789 L166 788 L168 763 L169 762 L169 755 L170 754 L170 746 L172 738 L176 700 L177 699 L180 670 L181 669 L181 663 L183 655 L183 647 L184 646 L185 632 L186 631 L186 624 L187 623 L187 619 Z M879 589 L880 590 L880 595 L879 596 L879 635 L880 636 L880 652 L881 653 L881 663 L882 664 L882 674 L883 675 L883 697 L882 698 L881 711 L878 720 L872 731 L865 739 L857 745 L847 749 L838 750 L837 749 L829 748 L819 743 L805 730 L786 702 L772 689 L763 684 L751 680 L747 680 L746 679 L729 679 L716 682 L701 689 L691 696 L677 710 L670 721 L670 723 L667 727 L663 738 L655 753 L642 766 L643 770 L658 787 L657 789 L656 788 L659 791 L657 792 L645 780 L645 782 L649 794 L654 804 L665 818 L680 830 L701 840 L727 846 L747 846 L748 845 L757 844 L763 842 L781 832 L795 819 L814 793 L817 787 L826 776 L841 762 L847 758 L862 751 L870 749 L887 749 L900 753 L909 759 L914 764 L921 774 L926 786 L925 787 L921 781 L909 769 L893 760 L877 759 L866 762 L848 772 L835 784 L803 831 L787 847 L772 857 L753 863 L731 864 L730 863 L723 863 L710 860 L693 854 L683 849 L664 836 L650 821 L642 809 L634 788 L631 774 L629 772 L621 774 L619 773 L619 771 L628 765 L633 758 L634 698 L639 688 L647 682 L653 679 L655 680 L649 690 L646 700 L646 707 L645 708 L645 738 L644 739 L642 755 L648 748 L663 717 L677 696 L688 685 L702 675 L715 669 L732 665 L750 665 L763 668 L774 673 L783 679 L795 691 L810 713 L820 723 L829 728 L837 730 L849 728 L856 724 L864 716 L867 711 L871 698 L871 691 L872 690 L871 635 L872 634 L872 624 L873 623 L874 610 Z M494 584 L495 583 L496 584 L495 585 Z M238 583 L239 584 L239 589 L242 600 L245 624 L246 625 L246 636 L247 637 L246 687 L247 688 L248 697 L251 706 L257 716 L268 725 L277 728 L286 728 L295 725 L300 722 L311 711 L327 688 L340 676 L348 671 L361 666 L369 665 L370 664 L389 664 L410 670 L420 675 L434 685 L443 694 L455 710 L464 727 L464 729 L472 746 L476 752 L480 755 L479 745 L478 744 L478 704 L477 703 L476 692 L471 681 L472 680 L478 683 L484 688 L486 693 L489 694 L489 761 L500 773 L498 774 L493 771 L490 773 L488 784 L484 796 L478 808 L470 820 L459 832 L448 841 L437 848 L413 858 L410 858 L402 861 L390 862 L389 863 L364 862 L350 858 L338 852 L331 847 L315 831 L283 783 L271 771 L263 765 L253 760 L240 756 L227 756 L220 758 L205 767 L196 776 L192 783 L190 785 L189 784 L190 780 L197 767 L211 753 L219 749 L229 746 L247 746 L251 748 L254 748 L271 756 L277 760 L292 774 L299 783 L318 813 L336 831 L352 840 L364 844 L369 844 L370 845 L394 845 L395 844 L409 842 L421 838 L437 830 L446 824 L463 807 L471 794 L476 780 L476 778 L475 778 L474 781 L463 791 L461 790 L472 774 L477 769 L478 765 L471 759 L466 752 L455 731 L454 727 L444 710 L431 696 L422 689 L408 682 L393 678 L373 678 L372 679 L368 679 L356 683 L347 688 L333 702 L317 727 L305 739 L294 745 L286 747 L277 747 L269 745 L259 740 L249 731 L243 722 L238 710 L236 702 L236 696 L235 695 L235 683 L234 681 L235 680 L235 666 L236 665 L236 653 L237 652 L237 635 L238 634 L238 591 L237 590 L237 584 Z M662 661 L656 664 L648 666 L643 666 L642 667 L620 667 L619 666 L607 665 L595 661 L592 661 L577 655 L566 649 L557 649 L533 660 L530 660 L514 665 L501 666 L500 667 L478 666 L477 665 L469 664 L462 661 L470 656 L479 647 L488 632 L495 610 L495 604 L496 603 L495 585 L496 584 L514 590 L526 593 L537 594 L538 595 L571 596 L572 595 L581 595 L582 594 L594 593 L610 588 L613 588 L628 582 L630 583 L628 589 L628 608 L631 621 L635 632 L645 648 L653 656 Z M881 569 L880 578 L878 582 L874 603 L873 604 L873 608 L872 609 L872 614 L870 621 L870 630 L869 631 L869 675 L870 676 L869 694 L866 706 L862 714 L853 723 L843 727 L835 727 L826 724 L815 715 L796 688 L779 673 L762 665 L754 663 L748 663 L747 662 L735 662 L734 663 L728 663 L727 664 L719 665 L702 672 L684 685 L669 702 L661 715 L649 739 L648 738 L648 708 L649 707 L649 700 L650 699 L651 690 L654 684 L679 660 L721 641 L749 633 L780 632 L781 633 L790 633 L798 635 L817 635 L831 631 L843 624 L856 612 L865 600 L875 581 L879 569 L880 568 Z M881 565 L882 566 L881 569 L880 568 Z M431 565 L433 565 L436 568 L436 574 L434 576 L430 576 L426 572 L427 568 Z M881 563 L882 562 L883 564 L882 565 Z M436 563 L437 562 L439 563 L438 564 Z M236 563 L237 562 L238 563 L243 578 L251 594 L260 607 L274 621 L290 630 L304 634 L325 634 L326 633 L343 632 L344 631 L373 632 L399 639 L447 661 L449 665 L460 676 L464 679 L468 680 L472 687 L472 691 L474 697 L474 704 L475 705 L475 717 L474 718 L475 742 L474 743 L467 727 L458 710 L449 697 L439 686 L425 675 L410 667 L398 663 L385 662 L384 661 L367 662 L366 663 L358 664 L340 673 L330 681 L322 690 L306 713 L297 721 L288 725 L276 725 L265 720 L256 710 L250 695 L249 680 L248 679 L249 633 L248 632 L248 624 L247 623 L244 599 L238 576 Z M236 559 L237 560 L236 563 L235 562 Z M746 557 L747 556 L748 558 L747 559 Z M750 556 L751 555 L752 556 L751 557 Z M365 552 L366 551 L367 552 L366 553 Z M726 550 L727 549 L728 550 L727 551 Z M346 531 L347 530 L348 532 L347 533 Z M743 509 L744 508 L746 509 L745 510 Z M302 509 L303 508 L304 509 L303 510 Z M301 508 L302 507 L303 508 L302 509 Z M300 507 L301 506 L302 507 L301 508 Z M299 506 L300 505 L301 506 L300 507 Z M744 504 L745 503 L746 505 L745 506 Z M366 497 L367 496 L375 501 L379 509 L376 510 L371 507 L368 503 Z M756 495 L757 496 L754 504 L750 508 L747 509 L746 508 L750 500 L753 497 L754 498 L753 497 Z M373 496 L374 495 L375 496 L374 497 Z M365 496 L366 495 L367 496 L366 497 Z M843 492 L844 491 L845 493 L844 494 Z M844 489 L845 488 L846 489 L845 490 Z M283 487 L284 486 L285 488 L284 489 Z M282 486 L283 485 L284 486 L283 487 Z M847 471 L848 475 L846 483 L845 482 L845 475 Z M775 467 L776 468 L776 479 L777 481 L776 482 L776 489 L770 508 L761 523 L752 532 L748 534 L744 529 L742 522 L742 516 L752 510 L755 507 L758 497 L762 489 L765 486 L765 484 L771 476 Z M776 464 L777 463 L778 464 L777 465 Z M851 455 L852 454 L853 455 L852 456 Z M852 452 L853 451 L854 453 L853 454 Z M853 449 L854 448 L855 450 L854 451 Z M370 448 L371 449 L372 459 L375 470 L393 505 L400 531 L400 538 L396 547 L388 555 L383 558 L380 558 L378 555 L374 539 L377 535 L382 523 L383 508 L381 501 L370 480 L368 473 L367 457 Z M743 448 L744 447 L745 449 L744 450 Z M854 446 L855 445 L856 447 L855 448 Z M266 444 L267 445 L266 448 L265 447 Z M855 444 L856 443 L857 445 L856 446 Z M750 443 L752 445 L755 453 L756 467 L753 479 L741 500 L739 506 L739 515 L738 516 L739 517 L740 528 L747 538 L747 546 L746 547 L745 556 L743 559 L734 553 L725 544 L722 539 L722 529 L728 508 L740 485 L742 483 L747 471 L750 458 L750 446 L749 445 Z M745 442 L746 443 L746 447 L745 448 L744 447 L744 443 Z M808 440 L809 439 L810 441 L809 442 Z M312 439 L313 438 L314 439 L313 440 Z M861 433 L862 435 L857 444 L856 441 Z M863 430 L864 432 L862 434 L861 432 Z M794 429 L795 431 L786 442 L778 462 L777 461 L777 456 L781 445 L789 433 Z M794 429 L795 428 L796 429 L795 430 Z M795 428 L796 427 L797 428 L796 429 Z M866 426 L867 428 L864 431 L863 429 Z M820 427 L821 426 L822 428 L821 429 Z M796 427 L797 426 L798 427 L797 428 Z M866 426 L867 425 L868 426 L867 427 Z M821 426 L822 425 L823 426 L822 427 Z M797 426 L798 425 L799 426 L798 427 Z M325 426 L326 425 L327 426 L326 427 Z M867 425 L868 424 L869 425 L868 426 Z M799 425 L800 424 L801 425 L800 426 Z M324 425 L325 424 L326 425 L325 426 Z M868 424 L869 423 L870 424 L869 425 Z M822 424 L823 423 L824 424 L823 425 Z M800 424 L801 423 L802 424 L801 425 Z M323 424 L324 423 L325 424 L324 425 Z M869 423 L870 422 L871 423 L870 424 Z M321 423 L322 422 L324 423 L323 424 Z M870 422 L871 421 L872 422 L871 423 Z M320 422 L321 421 L322 422 L321 423 Z M871 421 L872 420 L873 421 L872 422 Z M296 419 L297 418 L298 419 L297 420 Z M250 418 L260 428 L266 441 L265 445 L261 435 L255 425 L249 419 Z M248 418 L249 417 L250 418 L249 419 Z M247 417 L248 416 L249 417 L248 418 Z M825 415 L826 416 L812 430 L803 444 L797 457 L793 470 L792 486 L791 487 L791 494 L790 495 L789 504 L786 515 L779 530 L771 541 L762 550 L753 556 L751 555 L754 550 L769 533 L769 531 L774 523 L774 521 L773 521 L771 526 L766 533 L761 537 L753 547 L748 557 L747 556 L747 551 L749 544 L749 538 L755 534 L764 525 L770 516 L770 514 L774 507 L779 489 L779 476 L780 475 L781 464 L786 449 L795 435 L807 423 L819 416 Z M246 416 L247 415 L248 416 L247 417 Z M901 415 L899 416 L893 427 L888 440 L888 443 L884 455 L884 459 L878 485 L876 510 L875 511 L873 535 L872 536 L872 545 L874 532 L875 531 L876 519 L877 518 L878 505 L879 504 L881 481 L882 480 L885 461 L893 433 L895 430 L896 425 L901 417 Z M299 414 L304 415 L317 423 L328 434 L332 440 L338 452 L342 465 L344 491 L348 506 L355 520 L362 529 L372 538 L377 556 L376 558 L371 554 L371 552 L365 544 L363 538 L358 533 L356 533 L366 551 L365 552 L363 551 L353 541 L351 537 L350 530 L345 519 L345 524 L347 530 L346 531 L342 526 L337 516 L333 503 L332 493 L331 492 L330 474 L326 457 L317 438 L311 429 L298 415 Z M895 410 L896 411 L879 431 L872 446 L866 469 L865 481 L864 482 L864 490 L863 491 L863 500 L862 501 L860 518 L856 531 L848 545 L835 557 L826 561 L816 561 L813 560 L808 555 L805 548 L805 534 L807 530 L812 535 L816 535 L828 528 L837 518 L846 501 L849 492 L849 487 L850 486 L850 481 L851 480 L851 475 L852 474 L852 469 L858 449 L864 437 L875 423 L890 412 Z M888 408 L889 407 L890 408 L889 409 Z M233 406 L234 405 L235 406 L234 407 Z M232 405 L233 404 L234 405 L233 406 Z M231 404 L232 403 L233 404 L232 405 Z M935 405 L936 402 L940 404 L936 406 Z M221 402 L227 407 L226 408 L228 407 L246 420 L256 433 L261 444 L265 457 L266 468 L267 469 L267 477 L268 478 L269 486 L273 498 L284 518 L294 528 L301 532 L305 533 L308 532 L313 527 L315 528 L317 545 L314 553 L309 558 L305 560 L294 560 L286 557 L280 553 L272 545 L266 536 L262 527 L258 513 L257 501 L256 500 L254 470 L247 442 L240 427 L236 421 L223 408 L220 404 Z M181 402 L180 405 L175 403 L180 401 Z M914 400 L920 402 L918 403 L913 414 L914 414 L921 401 L929 402 L933 404 L932 405 L932 413 L931 414 L929 434 L928 435 L925 472 L924 473 L924 484 L923 485 L923 500 L922 501 L922 517 L921 518 L921 575 L922 576 L923 600 L924 601 L924 610 L925 611 L923 615 L921 623 L921 628 L920 629 L920 634 L919 635 L917 670 L918 671 L918 682 L919 683 L921 702 L922 703 L924 717 L929 737 L929 742 L932 754 L933 769 L934 770 L934 779 L935 780 L935 817 L934 818 L933 817 L933 809 L930 800 L931 791 L927 779 L922 769 L917 762 L897 743 L893 737 L889 727 L888 715 L887 714 L887 706 L886 705 L885 678 L884 677 L882 642 L881 641 L881 595 L882 594 L883 571 L884 570 L884 564 L886 556 L886 547 L888 542 L888 538 L894 512 L901 465 L902 464 L904 449 L909 428 L909 423 L911 418 L912 405 Z M198 400 L205 415 L205 417 L211 425 L214 436 L214 441 L215 442 L215 447 L216 448 L216 453 L219 466 L219 472 L221 479 L222 492 L224 499 L224 505 L225 506 L227 523 L228 524 L231 545 L232 546 L232 555 L233 556 L234 572 L235 573 L236 639 L235 640 L235 654 L234 655 L233 679 L232 680 L232 717 L229 728 L224 737 L228 734 L231 729 L234 719 L234 712 L235 711 L239 722 L244 730 L259 745 L257 746 L248 743 L228 743 L221 745 L220 744 L222 741 L214 748 L207 752 L196 763 L189 776 L186 786 L186 792 L183 802 L182 816 L181 817 L180 816 L181 768 L182 767 L182 760 L183 759 L183 754 L184 753 L188 729 L195 701 L197 683 L198 682 L198 671 L199 670 L197 640 L196 639 L196 634 L195 633 L192 616 L189 610 L190 597 L191 596 L191 585 L192 584 L192 565 L193 564 L193 515 L192 514 L192 493 L191 492 L189 448 L188 447 L188 436 L187 435 L187 425 L186 424 L186 416 L185 415 L184 403 L186 401 Z M910 400 L908 414 L907 415 L906 427 L905 428 L903 443 L901 449 L898 472 L896 478 L896 483 L895 484 L895 489 L892 502 L892 508 L891 509 L888 529 L884 545 L882 549 L882 552 L873 577 L865 593 L857 605 L846 617 L835 625 L819 631 L796 631 L795 630 L780 629 L779 628 L760 628 L759 629 L752 629 L751 630 L741 631 L714 640 L670 660 L659 656 L646 644 L637 628 L632 611 L631 593 L634 581 L637 578 L655 569 L677 553 L681 552 L689 552 L691 553 L688 551 L682 551 L681 550 L701 530 L720 504 L727 490 L729 488 L729 486 L736 472 L740 459 L746 450 L747 451 L747 458 L745 463 L746 467 L742 479 L737 485 L730 499 L728 501 L720 524 L720 532 L719 533 L720 534 L720 540 L723 545 L726 554 L725 569 L720 578 L713 585 L707 589 L700 592 L689 592 L682 587 L681 585 L681 576 L688 567 L692 565 L696 565 L700 569 L701 572 L700 575 L694 579 L694 580 L699 579 L704 574 L704 567 L702 563 L699 560 L698 560 L699 561 L698 562 L692 560 L684 560 L675 563 L667 568 L660 576 L655 585 L651 602 L652 616 L658 632 L668 643 L671 644 L674 647 L696 640 L733 622 L756 615 L775 613 L776 614 L786 614 L787 615 L792 615 L805 618 L818 618 L826 616 L842 607 L853 596 L858 589 L872 560 L875 548 L876 547 L877 549 L878 547 L879 535 L880 534 L879 517 L878 540 L875 541 L875 544 L870 560 L860 581 L850 596 L839 606 L829 612 L819 615 L802 615 L801 614 L797 614 L791 612 L784 612 L783 611 L764 611 L763 612 L752 613 L731 620 L686 641 L674 644 L662 633 L657 624 L654 612 L654 599 L657 587 L662 578 L668 571 L679 564 L682 563 L688 563 L689 564 L685 566 L679 573 L677 580 L679 588 L686 594 L689 595 L699 595 L712 589 L720 582 L725 575 L728 567 L728 554 L727 553 L728 550 L732 554 L746 562 L757 557 L768 548 L779 534 L788 515 L793 495 L794 481 L795 480 L795 475 L798 462 L808 441 L809 445 L807 449 L806 457 L805 458 L805 464 L804 465 L804 494 L803 495 L803 505 L802 506 L802 514 L803 514 L806 503 L807 467 L808 466 L809 453 L814 437 L820 428 L821 430 L816 442 L814 455 L813 456 L813 461 L812 462 L812 498 L809 511 L804 524 L803 547 L806 556 L813 562 L817 563 L828 562 L834 560 L842 555 L852 544 L861 525 L864 513 L864 508 L865 507 L866 489 L867 488 L869 469 L870 468 L871 459 L876 444 L886 426 L901 410 L903 406 L901 405 L896 411 L895 409 L897 407 L898 401 L896 401 L892 407 L890 408 L889 406 L894 398 L902 398 Z M206 398 L208 399 L209 403 L209 410 L211 418 L210 420 L208 418 L202 403 L202 400 Z M212 397 L224 397 L225 396 L227 397 L228 401 L227 403 L223 401 L220 403 L218 401 L218 404 L222 411 L231 420 L239 431 L247 451 L250 463 L251 478 L252 479 L252 527 L253 530 L254 530 L254 513 L255 512 L258 524 L263 536 L271 548 L277 554 L290 561 L304 562 L310 560 L315 555 L318 549 L318 545 L317 544 L317 525 L309 498 L309 458 L308 457 L308 451 L303 432 L299 425 L299 423 L297 421 L298 419 L303 425 L308 435 L312 449 L312 454 L313 455 L313 474 L314 475 L314 491 L313 492 L313 498 L314 499 L313 500 L313 504 L315 511 L316 510 L315 506 L316 454 L313 442 L314 439 L321 452 L325 464 L327 478 L328 479 L329 496 L333 512 L340 527 L351 543 L360 552 L377 561 L381 561 L382 559 L390 556 L398 548 L403 537 L401 521 L396 505 L390 493 L381 479 L376 467 L376 459 L375 458 L375 450 L374 449 L374 444 L376 443 L387 478 L402 507 L421 532 L441 551 L432 555 L428 559 L424 568 L422 565 L421 566 L421 570 L429 579 L434 579 L437 577 L440 569 L444 574 L445 583 L440 590 L436 592 L428 592 L418 587 L412 582 L404 572 L401 565 L400 556 L401 555 L402 546 L399 551 L399 566 L403 575 L418 590 L429 595 L436 595 L444 591 L448 583 L448 577 L446 572 L438 564 L439 563 L444 563 L450 566 L460 576 L466 587 L469 599 L468 615 L464 627 L457 637 L451 642 L446 642 L436 639 L396 620 L379 614 L366 611 L342 610 L341 611 L333 611 L320 614 L304 614 L303 613 L299 613 L291 610 L281 604 L266 589 L253 568 L253 566 L249 559 L248 554 L244 546 L243 540 L241 537 L244 550 L257 580 L265 592 L279 606 L289 612 L299 616 L304 616 L305 617 L318 617 L319 616 L325 616 L338 613 L362 613 L363 614 L372 615 L396 623 L431 640 L443 644 L451 645 L461 636 L468 624 L471 613 L471 595 L468 585 L464 577 L453 565 L442 560 L435 560 L434 561 L432 560 L436 556 L440 554 L445 554 L462 567 L486 580 L488 580 L491 583 L491 587 L492 588 L492 607 L491 608 L491 613 L485 631 L477 644 L466 655 L458 659 L452 659 L439 654 L406 638 L377 629 L371 629 L370 628 L337 628 L336 629 L327 629 L326 630 L302 630 L291 627 L276 618 L263 605 L253 590 L244 571 L236 548 L235 541 L232 533 L229 513 L227 507 L227 501 L225 495 L222 467 L221 466 L219 448 L218 447 L218 442 L216 436 L213 412 L212 411 L212 399 L211 398 Z M750 390 L771 390 L772 391 L795 391 L796 392 L831 393 L832 394 L846 394 L847 395 L884 397 L889 399 L885 409 L882 412 L869 419 L858 431 L852 443 L845 470 L839 483 L834 489 L834 491 L842 480 L843 481 L842 489 L836 499 L836 502 L832 511 L835 509 L838 500 L843 494 L844 496 L838 510 L830 521 L825 526 L817 531 L812 531 L810 529 L810 524 L813 519 L814 523 L815 522 L816 517 L821 510 L829 502 L830 498 L829 496 L828 498 L813 511 L812 510 L815 497 L815 462 L816 461 L816 455 L822 434 L828 423 L835 414 L835 412 L833 411 L825 411 L810 415 L808 417 L806 417 L797 422 L789 429 L780 441 L776 449 L773 459 L772 469 L768 478 L764 484 L755 493 L750 496 L746 504 L745 501 L755 483 L759 471 L759 454 L756 445 L752 439 L746 434 L747 426 L748 425 L748 417 L749 416 L749 391 Z M372 389 L373 390 L372 391 L372 415 L373 416 L373 425 L374 426 L375 435 L371 439 L367 446 L364 455 L363 465 L364 466 L364 472 L366 479 L374 495 L372 496 L369 494 L361 484 L360 485 L364 495 L367 507 L372 512 L373 511 L379 515 L379 521 L375 532 L373 534 L360 521 L351 505 L346 488 L347 470 L349 469 L351 471 L348 451 L346 452 L346 463 L345 464 L342 453 L336 440 L326 427 L328 426 L348 449 L347 444 L345 441 L336 432 L333 427 L323 419 L304 411 L289 410 L288 412 L299 431 L305 452 L305 457 L306 458 L306 496 L308 504 L307 507 L291 493 L285 484 L281 481 L281 479 L279 478 L276 472 L276 474 L280 481 L283 490 L285 488 L293 501 L293 504 L300 510 L310 522 L310 525 L307 529 L303 529 L297 526 L285 513 L276 495 L268 467 L270 459 L271 463 L273 465 L270 455 L270 447 L267 436 L263 428 L251 415 L239 409 L232 397 L233 396 L241 396 L242 395 L288 393 L289 392 Z M922 369 L927 370 L930 373 L932 378 L930 386 L926 389 L921 389 L918 387 L915 380 L917 373 Z M191 368 L197 368 L201 372 L203 377 L201 385 L197 388 L191 388 L186 382 L186 374 Z M921 367 L915 372 L913 377 L913 381 L915 387 L920 391 L927 391 L932 387 L934 382 L934 377 L932 372 L928 368 Z M191 366 L185 371 L183 380 L185 385 L191 390 L198 390 L203 386 L205 381 L205 376 L203 371 L199 367 Z M984 357 L988 364 L987 383 L982 403 L982 407 L980 412 L979 421 L977 426 L977 430 L975 435 L975 439 L973 444 L973 448 L971 453 L971 457 L969 462 L969 466 L967 471 L967 475 L965 480 L965 484 L963 489 L963 493 L961 498 L961 502 L959 507 L959 511 L957 516 L957 520 L955 525 L955 530 L954 531 L951 552 L950 553 L948 575 L947 576 L947 587 L946 588 L947 652 L948 653 L949 675 L950 676 L950 684 L951 685 L951 693 L952 694 L952 701 L953 702 L956 730 L958 736 L958 741 L960 747 L960 752 L961 753 L966 782 L971 800 L971 804 L983 843 L983 855 L981 857 L973 857 L969 855 L962 848 L958 840 L954 824 L952 802 L951 801 L951 792 L950 791 L950 783 L949 782 L949 773 L948 772 L948 765 L947 764 L947 756 L946 755 L946 748 L945 747 L945 740 L943 732 L941 709 L940 708 L938 687 L936 679 L933 646 L931 638 L930 621 L929 620 L929 614 L927 606 L927 597 L926 595 L930 591 L933 582 L936 562 L938 556 L938 551 L939 550 L939 545 L941 539 L941 534 L943 528 L943 523 L946 512 L946 507 L947 506 L951 482 L953 477 L953 473 L954 472 L954 468 L957 458 L957 453 L958 452 L958 448 L959 447 L959 443 L961 438 L961 433 L965 417 L965 411 L966 410 L969 387 L974 372 L979 362 Z M131 356 L135 360 L138 366 L138 371 L144 381 L146 402 L150 417 L150 422 L153 433 L156 454 L157 455 L157 459 L163 485 L163 490 L166 501 L166 506 L170 522 L170 527 L171 528 L172 539 L175 550 L178 573 L182 588 L185 593 L187 594 L187 601 L186 602 L186 608 L185 609 L184 621 L183 622 L179 661 L178 662 L177 676 L175 683 L175 691 L174 692 L170 730 L169 731 L169 738 L168 739 L167 757 L166 758 L166 766 L165 767 L165 775 L164 776 L162 803 L161 804 L159 823 L158 824 L157 833 L152 846 L145 854 L138 857 L134 857 L129 854 L129 847 L147 781 L147 777 L151 761 L151 756 L153 750 L153 745 L155 739 L155 733 L156 732 L158 713 L159 712 L159 705 L160 704 L160 697 L161 696 L161 689 L162 688 L162 681 L163 680 L164 660 L165 659 L166 630 L167 629 L167 602 L166 601 L165 570 L164 569 L164 561 L163 560 L161 541 L160 540 L159 530 L157 525 L147 472 L144 463 L141 444 L139 439 L138 430 L136 425 L136 421 L134 416 L134 412 L132 407 L132 403 L130 398 L130 393 L127 382 L126 366 L128 359 Z M980 354 L982 356 L979 359 L969 380 L968 376 L969 375 L969 369 L970 368 L970 363 L972 355 L973 354 Z M135 354 L141 353 L143 355 L144 364 L146 370 L146 376 L145 377 L142 375 L138 366 L138 363 L133 356 Z M743 350 L744 349 L779 350 L780 351 L797 351 L798 352 L813 352 L814 353 L855 355 L856 356 L866 356 L867 357 L877 357 L878 358 L905 360 L906 361 L912 361 L913 362 L919 362 L920 363 L945 367 L949 372 L949 393 L948 394 L948 398 L944 403 L931 399 L909 397 L908 396 L898 396 L897 395 L886 395 L885 394 L873 394 L872 393 L860 393 L859 392 L834 391 L833 390 L817 390 L816 389 L750 387 L748 382 L748 374 L747 373 L746 362 Z M379 349 L375 366 L373 385 L372 386 L327 387 L326 388 L305 388 L304 389 L286 389 L285 390 L271 390 L270 391 L240 392 L239 393 L228 393 L227 394 L197 396 L196 397 L179 399 L172 402 L167 396 L167 370 L173 365 L178 365 L179 364 L196 362 L203 360 L239 357 L240 356 L250 356 L251 355 L278 354 L279 353 L306 352 L307 351 L323 351 L324 350 L368 349 L369 348 L378 348 Z M140 349 L141 348 L142 349 L141 350 Z M922 322 L923 321 L925 322 L924 323 Z M916 321 L917 320 L920 321 L919 322 Z M191 321 L192 320 L195 321 L194 322 Z M909 320 L910 319 L915 319 L916 320 L915 321 L910 321 Z M196 320 L197 319 L201 320 L200 321 Z M903 319 L904 318 L909 318 L910 319 L909 320 L904 320 Z M201 319 L202 318 L207 318 L208 319 L207 320 L202 320 Z M207 318 L208 317 L213 317 L214 318 L213 319 L208 319 Z M728 309 L729 308 L740 308 L741 309 L762 309 L763 310 L786 310 L787 311 L801 311 L802 312 L841 314 L842 315 L851 315 L852 316 L861 316 L862 317 L870 317 L871 318 L878 318 L886 320 L893 320 L894 321 L914 323 L915 324 L920 324 L937 328 L947 329 L950 330 L952 333 L950 361 L945 365 L929 361 L923 361 L922 360 L902 358 L901 357 L894 357 L893 356 L875 355 L874 354 L863 354 L862 353 L828 351 L827 350 L813 350 L812 349 L742 346 L736 327 Z M393 308 L394 307 L395 308 L394 309 Z M394 309 L386 327 L381 344 L379 346 L308 348 L307 349 L292 349 L291 350 L242 353 L241 354 L231 354 L230 355 L222 355 L221 356 L192 359 L171 364 L166 361 L165 345 L164 344 L164 332 L167 329 L170 328 L175 328 L176 327 L191 325 L197 323 L202 323 L203 322 L208 322 L209 321 L224 320 L225 319 L247 317 L248 316 L256 316 L257 315 L266 315 L267 314 L304 312 L305 311 L319 311 L320 310 L362 309 L363 308 L390 308 L391 307 Z M725 304 L726 303 L750 303 L751 304 L771 304 L772 305 L788 305 L789 306 L829 308 L830 309 L850 310 L851 311 L858 311 L859 312 L883 314 L884 315 L897 316 L904 318 L903 319 L897 319 L896 318 L881 317 L880 316 L873 316 L872 315 L865 315 L864 314 L835 312 L834 311 L822 311 L821 310 L809 310 L808 309 L727 306 Z M398 303 L396 305 L314 308 L313 309 L299 309 L298 310 L254 313 L253 314 L245 314 L244 315 L237 315 L236 316 L222 317 L221 318 L214 318 L213 317 L220 315 L249 312 L250 311 L290 308 L291 307 L303 307 L304 306 L351 304 L352 303 L380 303 L381 302 L397 302 Z M260 221 L264 227 L264 238 L260 248 L254 257 L225 287 L202 315 L173 322 L172 321 L176 307 L176 303 L184 277 L192 259 L200 247 L209 238 L229 230 L248 220 L257 219 Z M860 218 L874 221 L887 229 L889 229 L906 237 L917 248 L928 267 L932 280 L934 283 L943 321 L942 324 L932 320 L919 317 L895 287 L864 254 L857 243 L854 233 L855 225 Z M547 208 L577 208 L578 209 L592 210 L613 215 L632 222 L650 231 L664 240 L678 251 L703 277 L722 306 L736 339 L736 342 L738 346 L742 362 L742 367 L744 374 L744 383 L745 384 L745 415 L744 416 L743 432 L742 433 L738 454 L730 476 L719 498 L700 525 L674 551 L654 565 L640 573 L624 580 L606 586 L589 589 L588 590 L571 591 L570 592 L538 591 L537 590 L526 589 L514 586 L496 580 L484 574 L482 574 L466 565 L437 543 L421 526 L411 513 L396 488 L396 486 L389 472 L383 454 L379 433 L378 432 L377 416 L376 415 L377 379 L378 378 L379 366 L384 345 L392 323 L400 308 L400 306 L409 291 L420 276 L448 248 L466 235 L480 228 L482 226 L510 215 L526 211 L531 211 L538 209 L546 209 Z M273 206 L274 205 L275 207 L274 208 Z M785 205 L786 204 L787 205 L786 206 Z M274 205 L275 204 L276 205 L275 206 Z M854 203 L855 202 L860 202 L864 210 L868 215 L867 216 L863 214 L864 213 L862 211 L864 213 L862 214 Z M841 202 L842 201 L843 203 L842 204 Z M767 201 L768 200 L769 201 L768 202 Z M754 200 L755 199 L756 200 L755 201 Z M361 200 L362 199 L363 200 L362 201 Z M333 200 L334 199 L335 200 L334 201 Z M284 199 L285 200 L286 210 L282 214 L278 214 L276 212 L277 211 L277 207 Z M275 200 L262 214 L259 216 L254 216 L253 215 L264 202 L271 199 Z M768 200 L769 198 L771 199 L769 201 Z M753 199 L754 198 L755 199 L754 200 Z M371 199 L372 198 L373 199 L372 200 Z M274 199 L275 198 L277 199 L276 200 Z M284 198 L285 197 L286 199 L285 200 Z M276 198 L277 197 L278 198 L277 199 Z M752 197 L753 196 L754 197 L753 198 Z M360 195 L362 197 L361 200 L357 198 Z M290 303 L305 282 L316 269 L333 252 L346 241 L377 221 L401 210 L422 203 L448 197 L459 196 L460 195 L478 194 L479 193 L495 193 L496 192 L627 192 L628 193 L660 194 L661 195 L668 195 L669 196 L676 196 L677 197 L687 198 L722 208 L751 221 L770 233 L789 248 L811 270 L822 283 L838 305 L837 306 L833 306 L832 305 L820 305 L819 304 L808 304 L807 303 L723 299 L711 281 L698 265 L683 250 L656 230 L633 218 L617 212 L614 212 L598 207 L593 207 L586 205 L578 205 L577 204 L546 204 L545 205 L537 205 L536 206 L521 208 L490 218 L472 227 L444 246 L431 258 L415 276 L399 299 L350 300 L349 301 L331 301 L330 302 L316 302 L315 303 L301 303 L300 304 L291 304 Z M778 186 L779 189 L777 193 L774 196 L771 196 L770 195 L770 189 L775 185 Z M326 189 L338 184 L343 184 L347 194 L354 200 L362 203 L358 205 L345 205 L337 200 L338 202 L336 203 L334 201 L335 200 L332 199 L330 192 Z M347 186 L352 183 L354 184 L358 189 L358 193 L357 194 L352 194 L349 191 Z M755 175 L756 178 L752 187 L752 192 L753 193 L752 196 L750 193 L750 182 L753 176 Z M374 173 L376 175 L379 182 L379 190 L376 196 L373 199 L372 197 L375 191 L375 184 L372 177 L372 174 Z M207 313 L224 292 L257 258 L261 252 L267 238 L267 227 L265 222 L261 218 L273 207 L274 208 L274 215 L276 217 L281 217 L286 214 L295 205 L298 204 L301 201 L319 192 L325 192 L327 194 L329 201 L333 205 L340 208 L355 209 L369 205 L378 198 L382 190 L382 182 L376 170 L378 168 L385 165 L405 160 L435 159 L436 158 L462 158 L463 157 L504 157 L505 156 L613 156 L614 157 L654 157 L655 158 L704 159 L705 160 L725 161 L741 165 L752 171 L752 173 L747 183 L747 192 L751 201 L758 207 L768 211 L782 211 L791 208 L797 203 L799 196 L802 193 L806 194 L824 204 L839 219 L844 220 L847 217 L847 212 L844 206 L848 202 L853 207 L858 215 L854 221 L851 229 L852 238 L856 248 L865 260 L897 294 L913 315 L911 316 L899 313 L871 310 L870 309 L863 309 L862 308 L842 307 L817 273 L795 250 L781 238 L764 226 L734 210 L712 202 L709 202 L705 200 L689 196 L673 194 L672 193 L665 193 L664 192 L635 191 L634 190 L493 190 L492 191 L475 191 L474 192 L465 192 L464 193 L451 194 L417 202 L397 209 L372 221 L346 238 L334 248 L312 270 L286 305 L247 308 L246 309 L231 310 L230 311 L224 311 L211 314 Z M725 153 L730 149 L739 149 L742 151 L747 151 L753 147 L758 147 L765 155 L769 155 L786 164 L798 168 L816 172 L821 176 L826 176 L831 182 L838 182 L848 189 L855 190 L859 192 L862 197 L859 200 L852 201 L850 199 L843 196 L839 196 L838 197 L837 196 L833 196 L844 212 L844 214 L842 216 L840 216 L828 203 L825 202 L817 196 L791 185 L785 184 L800 191 L797 193 L795 200 L789 205 L786 204 L788 203 L787 202 L780 207 L768 207 L767 206 L778 197 L780 192 L783 189 L782 183 L776 181 L772 183 L767 189 L768 197 L763 204 L758 199 L755 192 L755 186 L759 177 L758 175 L759 174 L762 175 L762 174 L755 169 L735 160 L732 160 L731 159 L733 158 Z M404 153 L399 155 L396 159 L380 164 L365 172 L365 173 L369 174 L369 177 L372 183 L372 191 L370 197 L367 201 L360 194 L361 192 L360 186 L353 180 L350 180 L345 183 L342 182 L341 183 L335 183 L332 185 L327 186 L323 189 L318 189 L313 191 L311 193 L305 195 L289 206 L287 204 L287 201 L292 193 L273 195 L266 198 L264 200 L263 199 L264 192 L269 188 L274 186 L276 183 L285 181 L291 176 L298 177 L308 171 L323 168 L335 164 L348 155 L362 152 L368 146 L374 146 L381 150 L398 149 L401 150 Z M554 150 L559 145 L566 144 L570 146 L574 152 L573 153 L555 153 Z M574 147 L579 142 L584 141 L589 145 L592 152 L591 153 L577 153 L576 149 Z M539 145 L544 141 L547 141 L554 147 L550 153 L538 153 L537 150 Z M565 130 L566 129 L567 130 L571 130 L577 133 L581 138 L573 145 L568 142 L565 142 L564 141 L565 140 Z M564 130 L563 141 L562 142 L560 142 L555 145 L547 138 L553 132 L559 131 L563 129 Z M130 108 L131 109 L131 113 L130 114 L129 129 L128 130 L128 161 L129 162 L129 177 L130 178 L132 208 L133 209 L133 216 L135 223 L135 230 L136 231 L138 248 L139 249 L141 263 L146 283 L156 312 L160 318 L167 325 L165 326 L162 331 L163 359 L164 362 L168 366 L164 372 L164 393 L165 397 L169 403 L169 408 L170 405 L178 406 L181 408 L181 412 L182 413 L184 445 L185 446 L185 458 L186 459 L186 472 L187 473 L187 487 L188 488 L188 507 L189 508 L189 568 L188 569 L188 587 L186 589 L183 582 L183 578 L180 567 L180 562 L179 561 L178 550 L174 533 L174 528 L173 527 L170 508 L168 503 L168 498 L164 482 L164 477 L163 476 L160 456 L159 455 L159 450 L158 449 L158 444 L156 438 L156 433 L154 427 L154 422 L153 421 L153 394 L152 393 L152 386 L150 378 L150 371 L149 370 L148 359 L147 358 L145 343 L142 332 L141 321 L135 295 L135 290 L133 284 L133 279 L132 278 L132 273 L130 267 L127 243 L125 236 L123 214 L122 213 L121 192 L120 191 L120 152 L121 151 L121 141 L122 140 L124 123 L126 115 Z M985 107 L988 112 L991 121 L992 131 L993 132 L993 139 L994 140 L994 149 L995 150 L995 187 L994 188 L994 202 L993 203 L992 222 L991 223 L989 243 L988 244 L983 279 L981 285 L981 290 L978 301 L978 306 L977 307 L977 311 L971 337 L971 342 L969 348 L969 353 L965 369 L964 380 L963 381 L963 388 L962 389 L962 415 L961 416 L959 433 L958 434 L956 449 L955 450 L952 469 L950 474 L944 508 L942 513 L942 518 L941 519 L938 539 L936 545 L936 550 L934 556 L931 579 L927 590 L926 589 L926 577 L925 576 L925 515 L926 514 L927 485 L928 484 L929 461 L930 460 L930 450 L931 449 L931 441 L932 440 L932 433 L933 432 L934 415 L935 414 L935 409 L945 405 L949 401 L951 396 L952 373 L948 366 L951 364 L953 357 L954 331 L949 326 L956 319 L961 309 L966 295 L967 288 L972 272 L972 268 L978 242 L979 231 L980 230 L983 202 L984 201 L984 193 L985 192 L986 170 L987 169 L987 125 L986 124 L986 117 L984 110 Z M130 107 L131 106 L132 108 L131 109 Z M983 106 L984 105 L985 106 L984 107 Z M980 103 L982 106 L983 116 L984 117 L984 127 L985 128 L985 164 L984 165 L983 189 L982 190 L982 198 L981 199 L981 207 L980 208 L978 228 L977 229 L977 234 L976 235 L976 240 L975 241 L975 246 L974 247 L971 266 L965 290 L960 305 L954 317 L947 324 L946 323 L942 299 L940 295 L937 281 L931 265 L920 246 L910 236 L910 234 L925 192 L929 184 L930 179 L948 141 L962 119 L973 107 Z M136 103 L140 105 L152 117 L170 145 L183 172 L207 234 L194 249 L186 263 L176 290 L176 293 L172 305 L170 320 L168 322 L161 315 L155 303 L150 289 L150 286 L148 282 L144 266 L141 246 L140 245 L140 240 L139 239 L139 234 L138 233 L137 221 L136 220 L134 197 L133 196 L133 187 L132 186 L132 175 L131 174 L131 148 L130 147 L132 114 L134 106 Z M132 100 L125 108 L121 119 L121 123 L119 129 L118 141 L117 142 L117 153 L116 154 L116 187 L117 188 L118 211 L119 212 L119 220 L120 221 L123 248 L124 249 L125 260 L127 266 L129 283 L132 294 L132 299 L135 310 L135 315 L137 321 L137 326 L139 332 L139 337 L141 343 L141 348 L138 350 L134 350 L130 352 L125 357 L122 366 L122 374 L123 375 L123 382 L124 383 L126 397 L128 402 L129 411 L131 416 L131 420 L133 425 L134 434 L136 439 L137 448 L142 467 L144 481 L146 486 L146 490 L147 491 L147 495 L148 496 L148 500 L149 501 L149 505 L150 506 L150 510 L151 511 L151 515 L153 520 L154 530 L157 541 L158 552 L159 553 L161 577 L162 578 L162 596 L163 597 L163 631 L162 632 L162 649 L161 650 L159 681 L158 682 L156 705 L155 706 L155 712 L154 713 L150 745 L148 751 L148 756 L147 757 L142 786 L126 842 L125 855 L127 862 L132 867 L136 869 L149 869 L165 865 L181 859 L182 860 L186 876 L186 880 L197 921 L201 943 L203 948 L203 952 L207 968 L207 973 L208 974 L208 979 L209 980 L209 985 L211 991 L211 996 L213 1002 L215 1019 L216 1020 L217 1030 L222 1050 L223 1059 L228 1079 L230 1083 L231 1090 L238 1111 L250 1141 L255 1150 L255 1152 L267 1176 L281 1200 L299 1226 L318 1249 L348 1278 L373 1297 L400 1313 L427 1325 L461 1335 L466 1335 L473 1337 L481 1337 L482 1338 L495 1338 L496 1339 L522 1338 L523 1337 L547 1335 L548 1334 L569 1334 L570 1335 L578 1335 L585 1337 L593 1337 L594 1338 L602 1338 L603 1339 L624 1339 L625 1338 L643 1337 L644 1336 L649 1336 L650 1335 L667 1332 L686 1326 L701 1319 L703 1319 L731 1304 L746 1294 L771 1274 L800 1245 L816 1225 L831 1203 L844 1181 L860 1149 L860 1147 L863 1142 L873 1117 L885 1080 L892 1052 L895 1033 L896 1032 L899 1010 L901 1004 L901 999 L902 998 L910 954 L929 879 L932 862 L934 859 L942 863 L957 868 L967 869 L968 870 L975 870 L982 867 L987 859 L987 846 L986 845 L985 836 L976 808 L974 796 L970 783 L970 779 L965 758 L965 753 L963 747 L963 742 L961 736 L958 711 L957 710 L954 677 L953 676 L953 667 L952 666 L951 639 L950 638 L950 586 L951 585 L952 566 L953 565 L953 559 L954 558 L956 541 L958 535 L958 530 L962 515 L963 506 L965 501 L965 497 L967 492 L967 488 L969 483 L969 479 L972 470 L972 466 L974 461 L974 457 L981 429 L981 425 L983 420 L983 416 L985 411 L987 397 L990 387 L991 376 L992 375 L992 365 L988 355 L982 351 L978 351 L973 349 L979 316 L980 315 L980 310 L985 289 L987 273 L989 267 L992 243 L993 242 L993 236 L994 235 L995 221 L996 220 L997 200 L998 199 L998 184 L999 183 L998 141 L997 140 L997 133 L996 132 L995 122 L991 109 L985 101 L977 100 L971 104 L963 112 L954 124 L940 148 L939 152 L931 167 L921 192 L920 197 L918 200 L916 208 L914 211 L908 231 L906 233 L896 229 L875 218 L866 207 L864 202 L865 200 L864 192 L858 187 L851 186 L840 179 L832 178 L830 174 L827 172 L823 173 L815 168 L794 163 L781 158 L767 151 L759 144 L751 144 L746 147 L742 147 L736 145 L728 146 L723 149 L716 157 L688 156 L687 155 L660 155 L659 154 L596 153 L592 143 L588 139 L585 138 L583 134 L579 130 L570 126 L559 126 L549 130 L545 134 L544 137 L537 142 L532 153 L458 154 L457 155 L434 155 L433 156 L416 156 L415 157 L411 157 L409 153 L404 148 L400 146 L389 146 L386 147 L385 146 L381 146 L376 143 L367 143 L364 144 L358 150 L346 152 L339 158 L333 161 L309 167 L296 174 L295 173 L289 173 L285 177 L275 180 L270 184 L265 186 L260 192 L260 201 L255 208 L246 217 L229 226 L214 231 L211 233 L209 231 L207 223 L203 215 L202 210 L200 207 L190 179 L171 139 L161 123 L150 109 L141 101 L136 99 Z" fill="#eef3f4" fill-rule="evenodd"/>
</svg>
