<svg xmlns="http://www.w3.org/2000/svg" width="1086" height="1448" viewBox="0 0 1086 1448">
  <title>0199</title>
  <path d="M451 1231 L468 1244 L486 1253 L509 1260 L519 1261 L520 1262 L528 1262 L529 1263 L559 1263 L560 1262 L567 1262 L568 1261 L573 1261 L583 1258 L587 1258 L608 1250 L629 1236 L629 1235 L619 1242 L601 1251 L575 1259 L562 1260 L561 1261 L527 1261 L526 1260 L519 1260 L518 1259 L508 1258 L488 1252 L471 1244 Z M458 1226 L459 1228 L473 1237 L489 1244 L509 1250 L527 1252 L528 1253 L560 1253 L561 1252 L568 1252 L569 1251 L578 1250 L601 1243 L610 1239 L620 1232 L598 1243 L582 1248 L578 1248 L567 1251 L559 1251 L558 1252 L529 1252 L528 1251 L515 1250 L495 1245 L468 1233 Z M597 1211 L592 1215 L591 1222 L593 1226 L595 1226 L592 1222 L592 1219 L597 1214 L602 1214 L606 1219 L605 1225 L600 1228 L603 1228 L608 1222 L608 1216 L602 1211 Z M355 1200 L361 1210 L369 1220 L389 1240 L407 1254 L425 1265 L445 1275 L473 1285 L480 1286 L492 1290 L516 1293 L517 1294 L528 1294 L529 1295 L566 1295 L567 1294 L577 1294 L578 1293 L592 1292 L625 1284 L651 1274 L682 1257 L703 1241 L720 1224 L735 1203 L735 1202 L718 1224 L696 1245 L678 1258 L648 1274 L624 1283 L596 1290 L590 1290 L583 1292 L575 1292 L574 1293 L564 1293 L563 1294 L531 1294 L530 1293 L519 1293 L518 1292 L499 1290 L474 1284 L448 1275 L424 1263 L405 1251 L382 1232 L368 1217 Z M250 1056 L251 1055 L252 1056 L251 1057 Z M636 1039 L637 1038 L640 1039 L639 1040 Z M444 1039 L448 1038 L456 1040 L474 1040 L475 1039 L496 1040 L497 1041 L503 1041 L511 1043 L523 1048 L531 1050 L552 1050 L572 1043 L580 1041 L585 1041 L586 1040 L598 1040 L599 1039 L604 1039 L605 1040 L629 1040 L630 1039 L636 1039 L637 1040 L633 1042 L623 1043 L622 1044 L591 1044 L590 1045 L584 1045 L571 1048 L555 1054 L551 1054 L550 1055 L534 1055 L533 1054 L524 1053 L508 1047 L500 1046 L499 1045 L493 1045 L492 1044 L462 1044 L461 1043 L456 1043 L448 1041 Z M641 1038 L642 1037 L643 1038 L642 1039 Z M441 1038 L442 1037 L444 1038 L443 1039 Z M393 1034 L394 1033 L401 1044 L413 1060 L439 1088 L460 1105 L470 1110 L481 1113 L499 1113 L500 1112 L508 1112 L509 1111 L533 1109 L534 1108 L557 1108 L558 1109 L577 1110 L578 1111 L591 1112 L592 1113 L609 1113 L620 1110 L631 1104 L639 1098 L668 1068 L684 1047 L692 1034 L693 1037 L677 1065 L656 1092 L634 1115 L626 1121 L616 1126 L609 1128 L600 1128 L598 1129 L597 1128 L584 1128 L583 1127 L577 1127 L569 1125 L560 1125 L559 1124 L532 1124 L531 1125 L523 1125 L522 1126 L515 1126 L514 1127 L507 1127 L506 1128 L490 1129 L489 1128 L481 1128 L466 1123 L449 1110 L430 1090 L410 1065 L400 1050 L393 1036 Z M692 1033 L693 1032 L694 1034 L693 1035 Z M392 1032 L393 1031 L394 1033 L393 1034 Z M693 1031 L694 1030 L695 1032 L694 1033 Z M395 1021 L397 1018 L401 1018 L424 1033 L438 1040 L449 1044 L457 1045 L458 1046 L464 1046 L465 1047 L494 1047 L495 1048 L509 1050 L521 1055 L529 1057 L536 1057 L537 1058 L554 1057 L582 1048 L588 1048 L589 1047 L616 1047 L617 1046 L626 1046 L639 1043 L665 1031 L685 1018 L689 1018 L691 1020 L691 1029 L689 1034 L676 1053 L657 1076 L634 1098 L618 1108 L611 1110 L590 1110 L589 1109 L565 1107 L564 1106 L540 1105 L539 1106 L528 1106 L527 1107 L519 1107 L518 1108 L504 1109 L503 1110 L491 1110 L490 1111 L489 1110 L479 1110 L467 1106 L442 1087 L422 1066 L406 1046 L396 1031 Z M692 1014 L694 1016 L693 1019 L690 1016 Z M394 1014 L395 1016 L393 1019 L392 1016 Z M389 1014 L390 1013 L391 1014 L390 1015 Z M379 1024 L379 1040 L380 1040 L379 1035 L380 1034 L381 1023 L386 1015 L388 1014 L390 1015 L389 1016 L389 1027 L394 1041 L399 1051 L422 1083 L439 1102 L456 1118 L469 1126 L484 1130 L501 1130 L502 1129 L511 1129 L512 1128 L527 1127 L528 1126 L564 1126 L565 1127 L589 1129 L590 1130 L606 1130 L618 1127 L634 1117 L652 1099 L674 1072 L687 1052 L694 1038 L698 1025 L698 1019 L696 1015 L697 1014 L700 1015 L704 1020 L706 1025 L707 1041 L708 1039 L708 1028 L706 1020 L700 1013 L695 1011 L690 1012 L684 1015 L659 1031 L644 1036 L634 1037 L633 1038 L591 1038 L590 1039 L583 1039 L582 1040 L573 1041 L561 1046 L549 1049 L529 1048 L513 1042 L500 1039 L446 1037 L427 1031 L410 1021 L401 1014 L394 1011 L390 1011 L384 1014 L381 1018 Z M688 1009 L688 1010 L698 1009 L702 1012 L699 1008 L696 1007 L692 1007 Z M396 1008 L389 1007 L383 1010 L383 1012 L389 1009 L396 1009 Z M676 1008 L689 1000 L699 1000 L705 1003 L709 1007 L713 1014 L715 1022 L715 1016 L712 1009 L706 1002 L700 999 L696 998 L688 999 L681 1003 Z M410 1008 L404 1002 L398 999 L394 998 L386 999 L380 1002 L375 1008 L372 1015 L371 1022 L375 1010 L380 1004 L385 1001 L397 1000 L402 1002 Z M457 959 L463 959 L468 961 L468 959 L470 958 L482 963 L491 964 L493 966 L493 968 L496 967 L518 979 L534 983 L555 982 L561 980 L589 965 L599 964 L611 960 L616 960 L617 961 L616 963 L624 961 L621 959 L613 958 L612 957 L602 958 L593 961 L558 979 L550 980 L549 981 L532 981 L516 976 L497 965 L480 957 L476 956 L463 956 Z M446 954 L448 955 L455 952 L466 951 L467 950 L481 952 L496 958 L521 973 L533 976 L549 976 L560 973 L572 967 L584 959 L600 953 L617 952 L630 956 L635 956 L619 951 L603 951 L587 956 L559 972 L547 975 L535 975 L520 971 L512 967 L502 960 L488 953 L478 950 L464 949 Z M628 878 L639 886 L645 893 L652 906 L654 914 L655 930 L654 931 L653 940 L649 948 L640 955 L642 955 L648 951 L655 938 L656 934 L655 912 L653 905 L645 891 L636 882 Z M454 877 L446 881 L435 892 L430 901 L426 915 L426 931 L428 939 L434 949 L442 954 L432 944 L430 940 L427 927 L428 913 L432 900 L437 892 L445 883 Z M608 868 L598 872 L592 879 L599 873 L607 870 L619 870 L629 873 L642 881 L651 890 L660 906 L660 909 L662 913 L662 919 L663 920 L663 930 L660 943 L656 950 L649 957 L640 962 L630 965 L610 967 L611 968 L623 968 L624 967 L629 967 L645 962 L651 958 L658 951 L662 944 L665 932 L665 919 L664 918 L663 909 L655 892 L647 883 L638 876 L622 869 Z M469 867 L461 868 L451 871 L438 879 L426 892 L421 902 L417 917 L417 928 L418 929 L419 938 L422 945 L428 953 L438 960 L454 965 L459 965 L460 966 L469 966 L469 965 L463 965 L443 960 L432 954 L427 949 L420 934 L419 922 L420 921 L420 913 L422 905 L427 894 L434 885 L442 878 L451 873 L464 869 L477 870 L484 874 L488 878 L487 875 L482 871 L475 868 L470 868 Z M587 874 L583 882 L583 887 L582 888 L583 896 L584 884 L588 875 L596 867 L602 864 L610 862 L621 862 L636 866 L648 872 L663 886 L672 901 L677 917 L680 938 L680 927 L679 926 L678 915 L671 896 L663 884 L650 872 L637 865 L628 862 L608 861 L595 866 Z M492 872 L483 864 L471 860 L460 860 L459 861 L450 862 L440 866 L430 872 L416 886 L407 903 L402 924 L402 939 L402 932 L403 931 L405 914 L409 902 L418 886 L431 873 L443 866 L455 862 L468 861 L480 864 L485 867 L491 873 L496 884 L497 897 L497 884 Z M607 790 L609 787 L612 789 L609 791 Z M613 787 L614 786 L615 787 L614 788 Z M610 784 L611 785 L610 788 L609 787 Z M472 783 L474 787 L473 790 L468 786 Z M610 783 L611 782 L612 783 L611 784 Z M725 763 L727 761 L734 760 L740 763 L739 764 L735 764 L734 763 L726 764 Z M801 757 L802 756 L803 757 L802 758 Z M802 756 L803 755 L804 756 L803 757 Z M630 754 L631 755 L632 763 L636 773 L634 775 L615 784 L614 781 L618 771 L626 758 Z M280 753 L281 752 L282 753 L281 754 Z M453 751 L459 759 L465 770 L469 781 L468 783 L444 770 Z M751 747 L752 746 L753 747 L752 748 Z M747 744 L748 743 L749 744 L748 745 Z M729 758 L731 754 L732 744 L733 743 L745 754 L739 757 L731 759 Z M746 743 L747 742 L748 743 L747 744 Z M328 743 L329 742 L330 743 L329 744 Z M745 742 L746 741 L747 742 L746 743 Z M329 742 L330 741 L331 742 L330 743 Z M330 741 L331 740 L332 741 L331 742 Z M742 740 L743 739 L744 740 L743 741 Z M332 740 L333 739 L334 740 L333 741 Z M333 739 L334 738 L335 739 L334 740 Z M338 748 L350 737 L352 741 L352 745 L354 751 L356 753 L355 754 L349 753 Z M334 738 L335 737 L336 738 L335 739 Z M335 737 L336 736 L337 737 L336 738 Z M336 736 L337 735 L338 736 L337 737 Z M338 735 L339 734 L340 735 L339 736 Z M339 734 L340 733 L341 734 L340 735 Z M340 733 L341 732 L342 733 L341 734 Z M688 729 L692 732 L692 734 L696 740 L695 752 L693 756 L686 762 L674 763 L670 761 L665 756 L662 747 L663 746 L663 741 L665 737 L672 729 L680 727 Z M685 723 L686 724 L684 726 L677 726 L669 729 L663 734 L659 742 L659 752 L660 755 L667 763 L674 766 L673 767 L668 767 L667 768 L662 768 L649 771 L640 775 L635 765 L632 750 L644 738 L654 731 L660 730 L673 724 Z M397 723 L407 723 L412 725 L415 728 L415 730 L419 736 L420 739 L419 749 L413 756 L409 758 L400 758 L396 756 L390 750 L387 743 L388 733 L390 731 L390 728 Z M686 723 L687 722 L694 722 L695 723 L694 724 L687 724 Z M407 720 L419 723 L429 728 L435 732 L450 747 L450 751 L441 771 L422 765 L408 763 L407 762 L408 760 L416 758 L421 753 L424 744 L423 737 L420 730 L415 725 L406 721 Z M822 716 L819 725 L813 737 L800 750 L793 754 L782 757 L774 756 L763 751 L733 729 L721 723 L712 720 L701 719 L700 718 L682 718 L681 719 L670 720 L661 723 L644 732 L626 749 L616 763 L615 767 L612 771 L605 790 L604 797 L610 792 L635 778 L659 770 L671 769 L672 768 L680 768 L681 767 L699 767 L700 766 L716 766 L717 765 L744 765 L745 766 L754 766 L755 767 L763 767 L764 768 L746 773 L740 773 L732 775 L710 776 L709 777 L693 777 L692 778 L677 778 L676 779 L666 779 L665 780 L652 781 L631 787 L613 796 L612 798 L632 788 L649 783 L667 781 L668 780 L679 780 L680 779 L697 779 L698 778 L714 778 L715 777 L735 776 L736 775 L741 775 L771 768 L778 765 L781 765 L784 763 L787 763 L799 757 L802 758 L791 767 L769 781 L746 792 L732 797 L716 801 L701 803 L700 804 L694 804 L693 805 L672 806 L671 807 L646 807 L645 806 L632 806 L624 804 L609 803 L615 805 L638 807 L639 808 L678 808 L679 807 L689 807 L690 806 L696 806 L697 805 L703 805 L704 804 L718 802 L748 793 L772 781 L792 768 L802 760 L815 747 L823 735 L823 733 L810 750 L796 758 L776 765 L750 765 L749 764 L743 764 L742 763 L743 762 L751 762 L754 761 L754 760 L750 760 L749 761 L748 760 L740 760 L739 759 L740 758 L742 758 L747 755 L752 756 L729 737 L724 735 L730 740 L730 748 L727 757 L722 764 L689 765 L688 764 L692 762 L696 758 L700 747 L700 741 L697 734 L693 730 L686 726 L687 725 L698 725 L706 727 L698 724 L699 723 L703 723 L718 727 L733 735 L748 748 L761 756 L771 759 L783 759 L795 755 L800 752 L812 741 L820 727 L822 721 Z M261 712 L265 726 L273 739 L285 749 L299 755 L315 754 L330 746 L353 727 L371 719 L379 718 L380 719 L370 722 L367 724 L393 718 L399 718 L407 720 L406 721 L398 721 L390 724 L386 728 L384 732 L384 745 L387 752 L393 758 L397 760 L396 761 L383 760 L382 759 L356 759 L355 758 L349 758 L342 755 L345 753 L348 755 L361 757 L358 754 L355 746 L354 733 L363 725 L347 736 L332 750 L338 750 L343 753 L342 754 L340 754 L339 756 L329 758 L344 757 L345 758 L344 759 L340 760 L321 760 L320 761 L307 761 L289 755 L279 749 L276 749 L270 743 L259 727 L259 729 L270 745 L284 759 L311 778 L336 790 L366 799 L386 802 L387 803 L401 804 L402 805 L447 806 L448 805 L458 805 L459 804 L473 802 L455 803 L454 804 L422 805 L421 804 L405 804 L404 803 L389 802 L388 801 L383 801 L382 800 L363 797 L337 789 L319 781 L302 771 L281 754 L283 753 L301 761 L340 771 L358 773 L359 774 L414 777 L415 778 L435 781 L452 787 L469 796 L466 793 L453 786 L443 782 L427 778 L408 776 L407 775 L396 775 L395 774 L378 774 L377 773 L354 772 L353 771 L347 771 L346 770 L327 767 L314 763 L315 762 L328 762 L329 761 L346 761 L347 760 L360 760 L361 761 L364 760 L365 761 L385 761 L386 762 L405 763 L421 767 L426 767 L429 769 L437 771 L457 781 L465 786 L468 790 L477 795 L477 790 L471 771 L466 761 L458 749 L442 732 L432 725 L420 719 L401 714 L377 714 L376 715 L368 716 L357 720 L355 722 L353 722 L344 727 L318 747 L307 752 L297 752 L293 751 L292 750 L293 749 L291 750 L283 746 L273 736 L265 722 L263 713 Z M630 737 L630 738 L644 725 L660 716 L677 711 L697 710 L704 712 L710 712 L722 716 L732 721 L746 731 L754 739 L767 749 L754 736 L736 722 L721 714 L701 709 L682 709 L681 710 L675 710 L667 713 L664 713 L646 722 L636 730 Z M314 745 L317 744 L333 729 L348 718 L360 712 L379 707 L401 707 L422 713 L432 718 L443 726 L455 738 L441 723 L431 716 L423 712 L402 706 L378 706 L361 710 L345 718 L333 727 Z M855 703 L861 708 L865 720 L865 728 L866 729 L866 768 L865 769 L865 784 L864 785 L864 825 L865 826 L865 837 L866 838 L866 847 L867 848 L871 882 L873 889 L873 895 L875 902 L875 908 L876 909 L876 914 L879 927 L879 933 L880 934 L880 940 L881 941 L881 947 L882 948 L882 954 L884 962 L884 969 L886 977 L886 984 L887 985 L887 993 L888 994 L888 1000 L889 1001 L890 1009 L890 997 L888 989 L886 965 L884 958 L881 930 L880 929 L879 917 L878 916 L876 898 L874 891 L874 885 L872 878 L872 872 L870 865 L870 858 L869 857 L868 842 L867 841 L867 832 L866 831 L866 782 L867 781 L867 771 L868 770 L868 759 L870 754 L873 759 L876 770 L877 791 L878 792 L879 832 L880 833 L880 843 L881 844 L881 854 L882 855 L882 865 L883 866 L886 902 L887 903 L887 910 L888 911 L889 925 L890 926 L891 940 L892 941 L892 948 L893 949 L893 959 L894 960 L894 970 L895 971 L896 1006 L895 1007 L895 1013 L891 1017 L871 1012 L862 1013 L855 1016 L851 1020 L848 1026 L843 1050 L841 1054 L837 1058 L836 1055 L837 1054 L839 1036 L840 1035 L840 1026 L841 1025 L843 996 L844 995 L844 984 L845 983 L845 971 L846 970 L846 954 L847 953 L849 806 L850 805 L850 777 L851 776 L851 750 L852 749 L852 721 L853 720 L853 704 Z M231 702 L233 703 L233 722 L234 723 L234 765 L235 766 L236 826 L237 827 L237 887 L238 888 L239 944 L240 945 L240 957 L241 958 L242 979 L243 980 L243 988 L244 989 L245 1010 L246 1011 L246 1019 L247 1020 L247 1030 L248 1031 L248 1038 L251 1051 L251 1055 L250 1056 L244 1050 L240 1028 L237 1022 L230 1015 L225 1013 L215 1012 L194 1017 L190 1013 L190 1006 L189 1005 L191 962 L192 961 L193 944 L194 943 L194 936 L195 935 L195 928 L196 927 L197 912 L198 911 L198 904 L199 903 L199 896 L200 895 L200 887 L201 886 L201 878 L202 877 L202 868 L203 867 L203 858 L204 857 L204 848 L205 847 L205 838 L206 837 L206 826 L207 825 L210 774 L211 773 L211 768 L216 755 L218 758 L219 783 L220 784 L219 831 L218 832 L216 855 L214 862 L214 869 L213 870 L213 875 L212 876 L212 881 L211 882 L211 887 L210 888 L210 893 L209 894 L209 899 L206 912 L205 925 L204 926 L202 945 L201 946 L199 965 L198 966 L198 973 L197 974 L197 981 L196 982 L196 989 L195 990 L195 997 L194 998 L194 1009 L196 1001 L198 978 L199 977 L202 950 L204 943 L206 923 L207 922 L207 917 L208 916 L208 911 L211 898 L211 892 L212 891 L212 886 L215 873 L215 867 L216 866 L218 847 L219 846 L219 839 L220 838 L220 830 L221 829 L222 785 L221 784 L221 768 L220 767 L220 733 L221 732 L222 719 L225 709 L227 705 Z M810 660 L811 659 L812 660 L811 661 Z M794 668 L786 662 L772 655 L746 647 L736 646 L735 645 L727 645 L726 644 L695 644 L694 645 L686 645 L685 646 L671 648 L654 653 L633 663 L624 669 L611 681 L603 692 L596 706 L591 723 L591 728 L589 735 L589 775 L590 776 L590 783 L591 784 L591 789 L593 797 L600 812 L602 814 L594 795 L594 791 L591 780 L590 742 L591 741 L592 726 L596 710 L604 693 L612 682 L626 669 L634 664 L658 653 L661 653 L677 648 L689 647 L690 646 L699 646 L700 645 L721 645 L722 646 L732 646 L733 647 L749 649 L771 656 Z M287 665 L301 656 L318 648 L338 642 L343 642 L350 640 L359 640 L360 639 L380 639 L381 640 L389 640 L390 641 L406 643 L430 651 L452 663 L460 669 L474 683 L484 700 L490 718 L490 723 L492 730 L492 741 L493 742 L492 772 L491 773 L491 780 L490 781 L490 786 L484 805 L479 814 L482 811 L486 804 L491 789 L492 777 L493 776 L493 768 L494 767 L494 736 L493 735 L493 726 L488 706 L481 691 L474 681 L461 668 L453 662 L431 650 L403 641 L393 640 L392 639 L385 639 L384 638 L354 638 L353 639 L341 640 L314 648 L297 657 Z M607 626 L608 625 L609 626 L608 627 Z M307 644 L325 634 L348 627 L365 626 L366 625 L380 625 L381 626 L401 627 L402 628 L407 628 L432 634 L451 641 L463 647 L478 657 L495 675 L501 684 L510 704 L515 724 L517 746 L518 747 L518 758 L519 759 L520 820 L519 821 L518 865 L517 866 L517 879 L516 880 L515 906 L514 907 L514 927 L513 928 L514 952 L517 960 L523 967 L529 970 L537 971 L538 972 L551 971 L558 968 L565 961 L569 950 L569 916 L568 915 L568 899 L567 898 L566 866 L565 865 L565 844 L564 843 L565 765 L566 764 L566 751 L567 750 L568 733 L569 732 L569 726 L572 716 L572 712 L577 697 L588 677 L599 664 L616 651 L630 644 L644 639 L665 634 L670 634 L671 633 L690 632 L691 631 L728 632 L756 639 L775 648 L762 640 L749 635 L736 632 L723 631 L722 630 L687 630 L686 631 L676 631 L675 632 L669 632 L668 633 L663 633 L653 636 L649 636 L629 643 L609 654 L599 662 L589 673 L581 685 L575 698 L568 723 L566 743 L565 744 L564 775 L563 776 L563 854 L564 855 L564 873 L565 874 L566 905 L567 906 L567 928 L568 929 L567 953 L562 963 L557 967 L549 970 L533 970 L524 966 L519 961 L515 949 L515 915 L516 914 L517 886 L518 885 L518 874 L519 873 L520 830 L521 829 L521 771 L520 770 L520 755 L519 754 L519 744 L518 743 L517 728 L516 727 L516 722 L509 697 L497 675 L480 657 L464 646 L445 637 L430 632 L404 626 L399 626 L398 625 L358 624 L357 625 L345 626 L324 633 L310 641 Z M608 625 L649 599 L665 591 L670 590 L676 587 L697 582 L704 582 L705 581 L731 581 L732 582 L739 582 L747 585 L750 585 L765 592 L776 600 L785 609 L797 626 L807 647 L811 659 L810 660 L794 640 L783 629 L773 621 L757 612 L735 605 L721 604 L720 603 L698 603 L697 604 L682 605 L642 615 L639 617 L633 618 L630 620 L621 622 L612 626 Z M603 627 L604 629 L607 630 L655 614 L675 609 L686 608 L687 607 L693 607 L694 606 L724 606 L725 607 L736 608 L755 614 L768 621 L779 629 L793 643 L816 671 L818 671 L808 642 L799 624 L788 608 L777 597 L767 590 L755 584 L737 579 L707 578 L706 579 L699 579 L698 580 L688 581 L668 587 L658 591 L656 593 L635 604 L607 622 Z M271 659 L278 644 L278 642 L283 633 L283 631 L285 629 L285 627 L299 606 L309 596 L320 588 L333 582 L348 578 L354 578 L355 577 L378 577 L379 578 L392 579 L412 585 L432 595 L476 623 L475 624 L469 623 L415 604 L399 600 L388 599 L387 598 L360 598 L334 605 L315 615 L297 630 L272 660 Z M481 624 L479 621 L473 617 L463 612 L434 593 L412 582 L396 577 L386 576 L385 575 L377 575 L376 574 L349 575 L323 583 L309 592 L295 606 L285 621 L279 633 L279 635 L277 637 L277 639 L267 661 L264 671 L266 671 L282 653 L291 641 L309 623 L322 614 L336 607 L353 602 L367 601 L368 600 L379 600 L380 601 L389 601 L390 602 L401 603 L405 605 L419 608 L473 627 L479 628 L481 627 Z M883 510 L883 522 L882 523 L882 527 L879 530 L866 530 L861 528 L862 525 L867 525 L875 521 L879 516 L882 509 Z M205 508 L206 507 L207 508 L208 513 L214 521 L219 524 L226 525 L227 529 L226 530 L210 530 L206 527 L205 523 Z M206 487 L208 488 L209 495 L216 507 L221 511 L229 515 L227 523 L221 523 L217 521 L210 513 L206 498 L206 490 L205 489 Z M881 486 L882 487 L882 502 L880 510 L877 516 L871 522 L863 524 L860 522 L860 516 L867 512 L875 504 L879 496 L880 487 Z M880 470 L881 471 L881 480 L880 481 L878 495 L874 503 L865 512 L860 514 L859 513 L858 504 L866 499 L873 491 L876 485 Z M208 466 L210 469 L210 473 L213 481 L213 486 L215 490 L220 496 L222 497 L224 496 L230 502 L230 507 L228 514 L227 512 L223 511 L216 505 L211 496 L208 483 L208 473 L207 472 L207 467 Z M864 452 L865 454 L861 462 L852 471 L850 468 L858 461 Z M864 451 L865 450 L866 452 L865 453 Z M865 448 L866 447 L867 449 L866 450 Z M225 447 L232 459 L239 465 L237 469 L229 460 L224 450 Z M223 447 L224 446 L225 447 L224 448 Z M877 445 L879 452 L879 463 L878 464 L878 470 L876 478 L873 481 L872 485 L867 493 L860 499 L858 499 L855 488 L864 480 L870 471 L874 461 L875 453 L876 452 L876 446 Z M866 445 L867 444 L868 446 L867 447 Z M212 441 L214 447 L215 458 L218 467 L223 476 L234 486 L230 499 L220 490 L216 484 L213 476 L212 468 L211 467 L211 453 L210 452 L211 442 Z M868 440 L869 441 L868 444 L867 443 Z M868 437 L869 436 L870 437 L869 438 Z M874 428 L875 429 L875 448 L874 449 L873 459 L868 472 L864 478 L855 486 L852 477 L863 464 L868 454 L872 438 L872 432 Z M217 421 L218 422 L219 439 L222 447 L222 450 L229 463 L237 472 L235 481 L233 484 L223 474 L217 460 L216 451 L215 450 L215 429 Z M287 427 L303 423 L309 423 L310 422 L345 421 L346 420 L422 420 L423 421 L445 421 L446 422 L463 422 L464 423 L480 423 L481 424 L538 425 L539 426 L541 425 L542 426 L609 425 L610 424 L632 424 L633 423 L675 422 L676 421 L737 421 L738 422 L749 422 L750 423 L772 423 L773 424 L781 424 L782 425 L788 425 L796 427 L813 435 L826 447 L835 462 L838 472 L840 475 L846 500 L848 519 L849 520 L850 543 L851 544 L851 567 L852 568 L852 684 L851 687 L852 690 L851 691 L851 725 L850 726 L848 809 L847 810 L845 952 L844 953 L843 983 L842 984 L842 994 L841 995 L838 1032 L837 1033 L837 1040 L836 1041 L836 1046 L835 1047 L835 1052 L833 1057 L832 1066 L822 1100 L815 1115 L813 1122 L795 1156 L785 1172 L782 1175 L781 1178 L769 1194 L741 1226 L711 1253 L690 1268 L669 1280 L667 1280 L656 1286 L628 1296 L612 1299 L607 1301 L602 1301 L601 1302 L595 1302 L587 1304 L576 1304 L575 1305 L523 1305 L522 1304 L503 1303 L502 1302 L497 1302 L496 1301 L476 1298 L472 1296 L458 1293 L455 1291 L452 1291 L427 1281 L406 1270 L382 1254 L366 1241 L338 1213 L320 1191 L303 1167 L282 1131 L271 1108 L258 1073 L254 1057 L254 1053 L252 1048 L252 1043 L250 1036 L247 998 L246 997 L245 978 L244 977 L243 954 L242 953 L241 920 L240 919 L239 828 L238 827 L238 795 L237 794 L237 762 L236 761 L236 726 L235 725 L235 572 L236 571 L237 538 L238 537 L238 529 L239 528 L239 521 L241 513 L241 506 L242 505 L244 490 L251 466 L256 455 L264 443 L271 436 Z M869 420 L870 419 L871 420 L870 421 Z M762 416 L766 415 L789 416 L807 421 L817 426 L827 434 L835 443 L846 464 L851 480 L855 503 L856 504 L856 511 L857 512 L857 519 L858 520 L858 530 L859 531 L859 547 L860 548 L861 668 L860 669 L860 683 L855 687 L853 684 L854 682 L854 569 L853 568 L852 533 L851 532 L851 522 L850 521 L848 499 L847 498 L844 481 L839 466 L827 445 L818 436 L812 432 L793 424 L783 423 L782 422 L775 422 L774 421 L758 421 L757 420 Z M227 682 L227 559 L228 558 L228 542 L229 541 L230 520 L231 519 L231 512 L232 511 L233 500 L235 494 L235 489 L243 461 L250 446 L263 430 L271 424 L279 420 L302 414 L323 413 L324 414 L332 414 L335 417 L335 414 L339 412 L362 412 L363 411 L364 412 L365 411 L385 411 L386 412 L437 413 L438 414 L472 416 L475 419 L476 416 L479 416 L480 417 L497 417 L498 418 L505 418 L506 419 L528 419 L529 420 L603 419 L610 417 L613 418 L614 417 L631 417 L632 416 L645 416 L646 415 L659 415 L660 414 L681 414 L682 413 L755 414 L758 417 L756 421 L738 420 L737 419 L675 419 L674 420 L652 420 L651 421 L611 422 L610 423 L573 423 L572 424 L501 423 L500 422 L479 422 L478 421 L447 420 L446 419 L424 419 L423 418 L347 418 L346 419 L309 420 L308 421 L297 422 L284 426 L269 435 L259 446 L250 463 L243 485 L240 505 L239 506 L239 511 L238 512 L236 539 L235 540 L235 552 L234 553 L234 574 L233 575 L233 684 L231 685 Z M749 410 L750 409 L752 410 L751 411 Z M751 409 L752 408 L753 409 L752 410 Z M340 408 L341 407 L343 408 L342 409 Z M339 407 L340 406 L341 407 L340 408 Z M338 406 L339 405 L340 406 L339 407 Z M337 405 L338 404 L339 405 L338 406 Z M336 404 L337 403 L338 404 L337 405 Z M463 396 L464 395 L465 396 L464 397 Z M226 393 L227 394 L226 397 L226 417 L229 430 L235 443 L244 454 L241 459 L241 461 L239 463 L230 454 L225 444 L222 433 L222 425 L220 421 L220 412 L224 396 Z M864 390 L867 397 L871 416 L869 419 L867 437 L862 452 L859 457 L850 466 L848 464 L848 462 L845 457 L850 452 L856 443 L862 428 L863 418 L864 417 L864 395 L863 394 Z M841 386 L842 387 L842 396 L838 412 L832 424 L826 430 L819 425 L832 412 L838 399 Z M444 387 L445 386 L446 387 L445 388 Z M650 385 L651 384 L652 385 L651 386 Z M236 370 L237 373 L235 379 L235 402 L236 403 L237 414 L245 433 L251 440 L244 452 L234 439 L231 432 L228 420 L228 409 L227 408 L228 396 L229 395 L231 381 Z M441 372 L449 371 L454 369 L457 370 L457 381 L464 395 L463 396 L459 394 L448 383 L440 373 Z M441 370 L442 369 L444 370 L443 371 Z M445 369 L446 368 L447 369 L446 370 Z M854 367 L858 374 L861 386 L861 392 L862 393 L862 420 L856 440 L852 447 L845 455 L838 444 L843 439 L849 429 L854 414 L855 402 L856 401 L855 379 L853 372 L853 368 Z M449 368 L450 367 L452 368 L451 369 Z M461 367 L462 366 L463 367 L462 368 Z M852 366 L853 365 L854 367 L853 368 Z M644 366 L646 364 L648 366 L646 368 Z M462 365 L463 364 L464 365 L463 366 Z M851 364 L852 363 L853 364 L852 365 Z M554 364 L555 363 L557 364 L556 365 Z M551 364 L552 363 L553 364 L552 365 Z M461 378 L463 369 L470 363 L478 368 L488 371 L498 372 L499 373 L506 373 L507 374 L530 375 L531 376 L577 376 L578 375 L604 374 L605 373 L611 373 L612 372 L627 370 L635 367 L638 364 L642 366 L645 373 L644 381 L640 390 L636 396 L624 408 L610 416 L606 416 L605 417 L589 417 L588 418 L517 418 L516 417 L497 416 L487 412 L477 405 L472 400 L464 388 Z M582 363 L583 362 L585 363 L584 364 Z M525 363 L526 362 L527 363 L526 364 Z M473 362 L474 361 L475 362 L474 363 Z M638 361 L634 365 L622 369 L603 371 L602 372 L592 372 L591 373 L577 373 L576 374 L534 374 L533 373 L510 372 L509 371 L494 370 L479 366 L474 363 L475 362 L489 362 L493 361 L500 364 L511 365 L512 366 L518 366 L523 364 L530 367 L552 367 L553 366 L555 367 L580 367 L584 365 L588 365 L589 366 L607 365 L616 361 L617 362 L631 362 L636 360 Z M584 362 L586 360 L587 361 L586 363 Z M619 360 L620 359 L621 360 L620 361 Z M613 360 L614 359 L615 360 L614 361 Z M522 360 L523 359 L524 360 L523 361 Z M490 360 L491 359 L492 360 L491 361 Z M615 359 L616 358 L617 359 L616 360 Z M586 359 L587 358 L588 360 L587 361 Z M494 359 L495 358 L496 359 L495 360 Z M616 358 L617 357 L618 358 L617 359 Z M521 358 L522 357 L523 359 L522 360 Z M517 358 L518 357 L519 358 L518 359 Z M492 358 L493 357 L495 358 L494 359 Z M645 356 L646 357 L644 362 L646 364 L644 366 L640 362 L643 357 Z M617 357 L618 356 L619 357 L618 358 Z M491 357 L492 356 L493 357 L492 358 Z M638 356 L639 355 L640 356 L639 357 Z M618 356 L619 355 L620 356 L619 357 Z M591 356 L592 355 L593 357 L592 358 Z M490 356 L491 355 L492 356 L491 357 Z M461 356 L463 355 L470 361 L464 365 L461 360 Z M640 355 L641 354 L642 355 L641 356 Z M516 355 L517 354 L518 356 L517 357 Z M641 354 L642 353 L643 354 L642 355 Z M619 354 L620 353 L621 355 L620 356 Z M489 354 L490 353 L491 355 L490 356 Z M485 354 L486 353 L487 355 L486 356 Z M642 353 L643 352 L644 353 L643 354 Z M484 353 L485 352 L486 353 L485 354 Z M620 352 L621 351 L622 353 L621 354 Z M488 352 L489 351 L490 353 L489 354 Z M643 351 L644 350 L645 351 L644 352 Z M644 350 L645 349 L646 350 L645 351 Z M483 350 L484 349 L485 351 L484 352 Z M458 350 L459 349 L460 350 L459 351 Z M622 348 L623 349 L622 352 L621 351 Z M488 348 L489 349 L488 352 L487 351 Z M645 348 L646 347 L647 349 L646 350 Z M625 348 L626 347 L627 349 L626 350 Z M646 347 L647 346 L648 347 L647 348 Z M441 347 L442 346 L447 346 L448 347 L447 348 L442 348 Z M674 344 L676 346 L673 354 L669 359 L660 358 L659 357 L650 357 L656 358 L657 361 L665 362 L668 364 L662 372 L659 372 L657 375 L654 375 L653 374 L653 369 L651 365 L647 361 L649 353 L655 346 L672 345 Z M647 345 L648 344 L649 346 L648 347 Z M426 345 L427 344 L432 344 L433 345 L440 345 L441 346 L440 347 L427 347 Z M655 345 L656 343 L661 343 L662 344 L656 346 Z M455 344 L456 343 L457 344 L456 345 Z M422 344 L423 343 L424 344 L423 345 Z M250 343 L251 346 L249 351 L248 362 L247 363 L247 390 L248 391 L248 397 L251 409 L257 422 L262 428 L252 439 L245 430 L238 412 L237 395 L236 394 L237 391 L237 378 L238 377 L240 364 L243 355 Z M662 343 L663 342 L668 342 L669 343 L668 344 L663 344 Z M648 343 L649 342 L650 344 L649 345 Z M670 342 L671 341 L675 342 L674 343 Z M656 342 L657 341 L658 342 L657 343 Z M623 341 L624 342 L624 348 L623 349 L622 348 L622 342 Z M562 342 L563 341 L564 342 L563 343 Z M250 342 L251 341 L252 342 L251 343 Z M457 341 L458 340 L459 341 L458 342 Z M839 339 L847 354 L847 357 L850 364 L853 376 L854 403 L849 424 L844 434 L840 440 L837 442 L828 432 L835 423 L839 415 L844 396 L845 372 L844 371 L844 364 L843 363 L841 349 L838 342 Z M649 340 L650 339 L651 341 L650 342 Z M567 338 L568 339 L564 342 L563 341 Z M653 338 L654 337 L655 338 L654 339 Z M622 337 L623 338 L622 341 L621 340 Z M538 336 L544 339 L549 344 L553 353 L553 361 L552 362 L551 361 L551 354 L549 349 L544 342 L537 337 Z M620 336 L621 335 L622 336 L621 337 Z M586 336 L587 335 L588 336 L587 337 Z M581 335 L587 340 L590 347 L590 355 L588 359 L587 358 L588 348 L585 341 L580 336 Z M535 336 L536 335 L538 336 L537 337 Z M521 341 L523 339 L525 341 L531 335 L533 335 L534 337 L538 339 L546 346 L550 355 L550 363 L551 364 L550 365 L545 365 L544 364 L536 364 L534 365 L527 362 L523 357 L523 346 L521 349 L521 353 L522 354 L521 358 L519 354 L519 347 Z M527 335 L528 336 L524 340 L523 338 Z M606 334 L607 335 L597 344 L593 353 L592 349 L594 344 L600 337 Z M577 334 L579 337 L582 338 L586 347 L586 356 L581 363 L582 364 L580 365 L578 363 L567 366 L561 366 L560 365 L559 366 L557 364 L558 362 L556 363 L555 362 L555 353 L558 346 L562 342 L563 343 L558 351 L558 355 L561 348 L569 340 L567 338 L568 337 L570 338 L569 337 L571 335 L574 336 L572 337 L575 337 Z M573 335 L574 334 L575 335 L574 336 Z M545 336 L547 337 L555 334 L562 339 L557 344 L554 350 L551 344 L544 337 Z M533 335 L534 334 L536 335 L535 336 Z M527 335 L528 334 L529 335 L528 336 Z M619 334 L620 333 L621 334 L620 335 Z M606 334 L607 333 L609 334 L608 335 Z M532 334 L533 333 L534 334 L533 335 Z M528 334 L529 333 L530 334 L529 335 Z M514 333 L518 333 L523 336 L520 339 L518 344 L516 340 L512 336 Z M510 334 L511 333 L512 334 L511 335 Z M617 332 L620 338 L620 342 L621 343 L621 347 L618 355 L609 361 L603 363 L589 364 L588 363 L594 357 L594 354 L598 345 L605 338 L610 336 L613 333 Z M594 332 L599 336 L591 344 L587 337 Z M500 332 L505 333 L515 342 L517 346 L517 351 L516 352 L512 343 L505 336 L499 333 Z M491 333 L495 332 L497 334 L504 337 L512 346 L516 359 L519 360 L522 363 L521 364 L517 364 L513 362 L503 361 L496 358 L490 351 L489 341 L488 341 L488 348 L487 349 L486 348 L486 340 Z M535 332 L538 331 L545 334 L542 336 Z M655 330 L656 331 L656 336 L655 337 L654 336 L654 331 Z M616 331 L611 334 L608 333 L614 330 Z M533 331 L534 330 L536 331 L535 332 Z M494 331 L496 330 L500 332 L496 333 Z M457 331 L458 330 L464 330 L472 334 L477 339 L483 354 L486 357 L487 355 L491 359 L486 361 L485 360 L480 360 L471 356 L463 348 L458 337 Z M621 331 L623 329 L631 329 L632 330 L626 337 L624 336 Z M577 330 L565 337 L561 334 L564 332 L567 332 L574 329 Z M641 328 L642 329 L631 337 L627 347 L626 346 L626 341 L629 336 L635 330 Z M478 328 L479 329 L482 328 L486 329 L488 331 L484 339 L482 335 L477 330 Z M466 328 L473 330 L481 337 L484 342 L484 348 L483 349 L478 338 L473 333 L465 329 Z M650 327 L653 331 L653 335 L651 339 L650 336 L649 337 L648 341 L642 351 L637 356 L631 359 L622 361 L620 359 L622 357 L624 357 L627 353 L629 345 L631 342 L631 339 L639 332 L646 329 L649 329 Z M642 328 L643 327 L645 328 L644 329 Z M619 328 L620 327 L622 328 L621 329 Z M478 328 L479 327 L480 328 L479 329 Z M634 327 L635 326 L636 327 L635 328 Z M621 327 L622 326 L623 327 L622 328 Z M615 327 L616 326 L617 327 L616 328 Z M622 326 L623 325 L624 326 L623 327 Z M618 326 L619 325 L620 327 L619 328 Z M648 325 L649 324 L650 325 L649 326 Z M640 325 L641 324 L645 325 L644 326 Z M633 325 L634 324 L635 325 L634 326 Z M631 325 L632 324 L634 327 L633 328 Z M637 323 L638 326 L636 327 L635 326 Z M637 323 L638 322 L639 323 L638 324 Z M587 323 L581 332 L576 329 L586 322 Z M632 324 L634 321 L636 323 L633 325 Z M668 319 L669 318 L673 319 L672 320 Z M681 316 L680 318 L677 319 L673 319 L672 318 L679 315 Z M511 316 L512 315 L513 316 L512 317 Z M796 314 L797 315 L797 336 L796 337 L795 351 L790 367 L790 370 L782 387 L775 398 L759 414 L755 411 L764 402 L776 386 L786 367 L787 362 L789 359 L794 339 L795 315 Z M510 314 L511 313 L512 315 L511 316 Z M478 313 L481 320 L486 325 L485 326 L481 325 L477 319 L477 314 Z M636 311 L639 318 L638 321 L634 319 Z M634 311 L635 310 L636 311 L635 312 Z M564 311 L565 310 L567 311 L566 312 Z M414 312 L416 310 L419 310 L431 314 L442 316 L446 318 L442 319 L432 316 L417 314 Z M819 308 L829 324 L838 347 L838 351 L840 355 L841 364 L842 365 L843 385 L842 386 L841 385 L841 381 L840 381 L837 397 L833 407 L829 414 L822 421 L817 424 L808 419 L822 405 L830 391 L835 371 L835 353 L834 352 L835 351 L835 347 L834 347 L834 364 L833 365 L832 378 L828 391 L824 399 L816 410 L808 417 L803 418 L794 414 L812 396 L820 381 L824 369 L825 358 L826 357 L826 337 L825 336 L825 331 L822 319 L818 311 Z M795 308 L796 309 L796 313 L795 314 L794 313 L794 309 Z M521 309 L522 308 L523 309 L522 310 Z M269 308 L270 310 L264 325 L263 337 L262 338 L262 364 L263 365 L263 371 L268 388 L275 401 L283 410 L289 414 L275 420 L265 411 L256 393 L252 370 L252 382 L255 395 L264 412 L272 420 L271 422 L268 423 L264 427 L257 418 L251 402 L250 391 L249 390 L249 365 L250 364 L250 357 L252 352 L252 348 L254 345 L254 341 L259 325 L264 315 Z M817 308 L818 307 L819 308 L818 309 Z M561 308 L562 307 L563 308 L562 309 Z M269 307 L270 306 L271 307 L270 308 Z M816 306 L817 305 L818 306 L817 307 Z M537 307 L541 305 L546 305 L547 306 L541 308 Z M531 306 L532 305 L537 305 L538 306 L537 307 L532 307 Z M524 306 L525 305 L526 306 L525 307 Z M628 305 L629 304 L630 305 L629 306 Z M585 305 L586 304 L588 305 L587 306 Z M557 305 L558 304 L559 305 L558 306 Z M546 305 L547 304 L549 305 L548 306 Z M529 305 L530 304 L532 305 L531 306 Z M510 305 L511 304 L516 306 L517 309 L527 314 L529 314 L529 313 L525 311 L531 309 L535 309 L536 310 L533 311 L535 313 L538 313 L542 315 L545 315 L536 311 L537 310 L543 310 L544 311 L563 311 L564 312 L563 313 L558 313 L554 315 L554 316 L571 312 L573 309 L589 308 L590 309 L590 313 L591 311 L590 308 L592 306 L594 307 L594 309 L590 319 L587 323 L586 321 L584 321 L579 326 L566 331 L557 332 L553 329 L549 332 L546 332 L538 330 L534 330 L533 331 L522 325 L513 314 Z M474 304 L475 305 L474 321 L476 321 L479 325 L475 329 L467 325 L469 312 Z M561 304 L562 303 L563 304 L562 305 Z M794 302 L795 303 L794 307 L793 306 Z M559 303 L560 302 L561 303 L560 304 Z M547 303 L548 302 L549 303 L548 304 Z M504 302 L508 301 L509 302 L507 309 L510 317 L524 328 L530 330 L524 335 L522 334 L516 328 L513 329 L507 322 L504 321 L501 315 L501 306 Z M792 300 L793 299 L794 301 L793 302 Z M629 304 L628 307 L630 309 L630 319 L631 320 L629 324 L625 326 L623 325 L627 319 L626 318 L624 322 L620 326 L619 325 L615 326 L614 329 L611 329 L606 332 L604 332 L602 334 L594 328 L590 331 L588 330 L593 324 L587 329 L589 331 L584 335 L581 332 L590 323 L593 316 L597 311 L598 307 L597 305 L603 302 L605 304 L606 309 L602 320 L596 327 L597 328 L599 325 L602 327 L608 321 L608 320 L606 321 L602 326 L600 325 L607 312 L607 305 L605 302 L612 299 L619 301 L621 299 L623 299 Z M565 300 L566 299 L568 300 L567 301 Z M511 301 L513 299 L515 299 L525 305 L524 306 L520 306 L512 303 Z M507 300 L508 299 L509 300 L508 301 Z M508 299 L509 298 L510 299 L509 300 Z M684 297 L685 298 L683 311 L680 314 L677 314 L673 316 L663 318 L660 320 L657 320 L657 321 L665 319 L669 320 L660 323 L681 320 L682 321 L682 329 L679 337 L677 339 L658 342 L657 341 L659 335 L658 327 L651 322 L643 321 L638 310 Z M506 298 L507 297 L508 298 L507 299 Z M791 297 L792 296 L793 297 L792 298 Z M609 297 L610 296 L611 297 L610 298 Z M450 297 L453 296 L456 298 L453 299 Z M788 295 L792 307 L792 315 L793 316 L793 328 L792 329 L792 336 L791 337 L791 343 L784 366 L772 388 L759 404 L753 409 L752 407 L758 401 L772 381 L783 357 L788 337 L788 331 L789 330 L789 305 L787 299 Z M608 297 L606 299 L592 305 L588 305 L587 304 L592 300 L599 298 L604 295 L606 295 Z M536 296 L538 295 L540 297 L538 298 Z M790 294 L791 293 L792 294 L791 295 Z M556 294 L557 293 L558 294 L557 295 Z M507 294 L508 293 L509 294 L508 295 Z M493 294 L499 293 L507 297 L505 298 L507 299 L504 300 L495 296 L496 298 L503 301 L501 303 L495 301 L488 301 L488 302 L493 302 L500 305 L499 307 L500 316 L502 320 L512 330 L508 333 L504 331 L501 327 L491 321 L492 323 L500 328 L499 329 L495 328 L490 328 L489 329 L485 326 L487 325 L480 316 L479 312 L480 305 L486 299 L492 297 Z M787 292 L788 293 L787 296 L786 295 Z M684 295 L661 302 L657 301 L682 292 Z M608 294 L613 292 L616 295 L614 297 L611 297 Z M589 295 L589 299 L580 306 L573 307 L572 305 L566 305 L565 304 L569 302 L572 302 L577 298 L577 296 L571 298 L570 296 L573 294 L586 292 Z M505 293 L506 292 L508 293 L507 294 Z M304 291 L305 295 L304 296 L303 308 L302 309 L302 329 L303 330 L303 338 L304 339 L305 347 L311 365 L316 375 L324 388 L337 403 L336 404 L326 395 L315 380 L311 373 L311 371 L309 369 L301 347 L301 343 L299 337 L299 309 L300 308 L300 303 L302 295 Z M789 291 L790 290 L791 292 L790 293 Z M785 291 L786 290 L787 291 L786 292 Z M608 291 L609 289 L611 290 L609 292 Z M582 290 L583 289 L584 290 L583 291 Z M546 295 L547 296 L549 295 L550 296 L560 295 L561 294 L558 293 L563 290 L557 291 L553 293 L548 290 L548 291 L552 293 Z M788 289 L789 288 L790 289 L789 290 Z M610 289 L611 288 L612 289 L611 290 Z M305 288 L306 289 L305 292 L304 291 Z M800 287 L808 296 L813 304 L822 325 L823 333 L824 334 L824 344 L825 345 L824 360 L819 379 L812 393 L806 401 L792 414 L778 413 L777 412 L783 408 L789 402 L801 385 L808 370 L813 349 L813 323 L806 300 L799 289 Z M580 287 L581 289 L579 291 L578 289 Z M798 287 L799 286 L800 287 L799 288 Z M500 287 L501 286 L506 292 L504 293 L500 289 Z M305 287 L306 286 L307 288 L306 289 Z M797 286 L798 285 L799 286 L798 287 Z M783 286 L784 285 L785 287 L784 288 Z M490 285 L492 289 L491 291 L489 289 Z M796 285 L797 284 L798 285 L797 286 Z M786 285 L787 284 L788 285 L787 286 Z M782 284 L783 283 L784 285 L783 286 Z M498 283 L499 286 L497 291 L495 288 Z M306 284 L307 283 L308 285 L307 286 Z M785 283 L786 282 L787 283 L786 284 Z M781 283 L782 282 L783 283 L782 284 Z M614 283 L615 282 L616 284 L615 285 Z M307 282 L308 281 L309 282 L308 283 Z M410 283 L413 280 L451 296 L448 297 L439 293 L425 289 L422 287 L413 285 Z M291 280 L292 282 L283 297 L276 319 L276 325 L275 326 L275 353 L276 354 L276 359 L279 371 L287 389 L294 399 L303 408 L308 411 L307 412 L300 412 L294 414 L291 414 L284 409 L279 404 L273 395 L266 378 L266 374 L264 368 L264 360 L263 359 L264 334 L269 315 L277 299 Z M308 280 L309 279 L310 280 L309 281 Z M291 280 L292 279 L293 280 L292 281 Z M292 279 L293 278 L294 279 L293 280 Z M786 277 L793 283 L799 291 L807 307 L810 317 L811 330 L812 331 L811 351 L805 373 L795 392 L787 402 L778 410 L773 413 L766 413 L765 412 L779 395 L790 374 L797 349 L797 343 L798 342 L798 312 L793 292 L789 284 L785 279 Z M309 278 L310 277 L311 278 L310 279 Z M293 278 L294 277 L295 278 L294 279 Z M784 277 L785 276 L786 277 L785 278 Z M532 277 L533 281 L537 285 L540 286 L536 283 Z M306 276 L307 278 L302 288 L297 308 L297 337 L298 338 L298 343 L302 358 L313 381 L323 395 L336 408 L335 409 L336 408 L338 410 L333 412 L330 411 L322 405 L312 395 L307 388 L300 375 L293 350 L293 317 L294 316 L294 309 L299 289 L304 278 Z M783 276 L784 275 L785 276 L784 277 Z M589 274 L590 276 L589 280 L587 282 L586 280 L587 276 Z M306 275 L307 274 L308 276 L307 277 Z M779 274 L780 273 L781 274 L780 275 Z M685 275 L685 285 L684 289 L682 291 L679 291 L676 293 L673 293 L670 295 L642 304 L641 305 L644 305 L654 301 L658 302 L639 309 L637 308 L634 302 L625 294 L628 292 L649 286 L652 284 L660 282 L663 280 L683 273 Z M598 274 L599 273 L601 274 L600 275 Z M593 274 L594 273 L595 275 L594 276 Z M307 273 L308 272 L309 274 L308 275 Z M778 272 L779 271 L780 272 L779 273 Z M308 272 L309 271 L310 272 L309 273 Z M777 271 L778 270 L779 271 L778 272 Z M309 270 L310 269 L311 271 L310 272 Z M310 269 L311 268 L312 269 L311 270 Z M311 268 L312 267 L313 268 L312 269 Z M312 266 L313 265 L314 266 L313 267 Z M495 265 L496 264 L497 266 L496 267 Z M313 265 L314 264 L315 265 L314 266 Z M310 264 L311 266 L304 275 L299 285 L294 300 L294 304 L292 310 L292 321 L291 322 L291 345 L292 346 L292 352 L295 365 L301 380 L312 397 L322 407 L327 410 L326 411 L310 411 L304 407 L295 398 L288 388 L283 378 L278 361 L277 349 L276 348 L277 322 L283 301 L294 281 Z M314 264 L315 263 L316 264 L315 265 Z M310 264 L311 263 L312 264 L311 265 Z M484 263 L485 262 L486 263 L485 264 Z M311 263 L312 262 L313 263 L312 264 Z M315 262 L316 261 L317 262 L316 263 Z M312 262 L313 261 L314 262 L313 263 Z M760 260 L772 269 L777 278 L782 284 L783 290 L785 293 L785 297 L787 302 L787 310 L788 311 L787 335 L783 352 L778 366 L771 380 L763 392 L746 411 L744 412 L743 411 L731 411 L730 410 L738 403 L746 393 L758 374 L766 357 L771 342 L771 338 L774 327 L775 303 L774 302 L773 289 L766 271 L758 261 Z M497 260 L498 261 L497 264 L496 263 Z M390 261 L388 265 L387 280 L388 280 Z M316 261 L317 260 L318 261 L317 262 Z M757 260 L758 259 L759 260 L758 261 Z M756 259 L757 258 L758 259 L757 260 Z M498 257 L499 258 L498 261 L497 260 Z M319 257 L320 258 L318 261 L316 259 Z M319 257 L320 256 L321 257 L320 258 Z M412 255 L449 273 L451 273 L462 279 L464 279 L479 286 L479 290 L475 294 L472 299 L472 302 L467 309 L465 320 L464 321 L460 320 L462 322 L464 321 L465 323 L455 327 L452 330 L451 333 L451 340 L454 348 L458 353 L458 359 L460 362 L460 364 L457 369 L454 368 L453 366 L438 367 L433 362 L425 349 L426 348 L449 349 L448 348 L449 347 L452 347 L442 344 L424 342 L422 340 L417 329 L414 320 L414 316 L415 315 L419 315 L443 321 L447 321 L452 323 L456 323 L445 319 L446 318 L454 319 L455 320 L455 319 L437 313 L415 308 L412 305 L411 301 L410 286 L411 285 L423 289 L426 291 L463 304 L465 304 L455 299 L458 298 L462 300 L465 300 L433 286 L413 279 L410 275 L410 261 Z M320 256 L321 255 L322 256 L321 257 Z M498 255 L499 254 L500 256 L499 257 Z M321 255 L322 254 L323 255 L322 256 Z M574 253 L574 258 L575 257 Z M740 248 L751 256 L759 264 L764 271 L769 281 L773 298 L772 330 L771 331 L770 340 L764 358 L754 378 L744 393 L727 411 L713 411 L712 410 L722 401 L731 390 L744 369 L752 351 L752 348 L755 342 L758 329 L759 311 L760 310 L760 297 L759 296 L758 283 L755 273 L750 263 L746 257 L738 249 Z M737 248 L738 247 L739 248 L738 249 Z M341 245 L343 246 L335 254 L327 266 L321 282 L319 295 L318 296 L317 318 L318 319 L318 329 L319 330 L319 335 L322 348 L326 359 L333 373 L344 389 L363 408 L362 409 L355 409 L354 410 L348 410 L341 405 L334 398 L321 381 L312 364 L305 342 L305 337 L304 336 L304 327 L303 326 L304 303 L309 283 L311 281 L315 271 L324 260 L325 257 L331 251 Z M342 245 L343 244 L344 245 L343 246 Z M343 244 L344 243 L345 244 L344 245 Z M680 243 L666 251 L664 251 L655 256 L627 268 L627 269 L650 260 L679 246 L682 247 L682 256 L683 257 L683 261 L680 266 L655 276 L650 279 L635 284 L629 288 L657 278 L679 268 L682 268 L684 271 L683 272 L636 288 L625 294 L624 293 L626 287 L626 273 L625 269 L623 267 L644 257 L646 255 L667 245 L675 240 Z M723 238 L744 257 L750 266 L755 277 L757 291 L758 292 L757 325 L756 326 L753 343 L747 359 L740 373 L725 395 L710 410 L708 411 L699 411 L698 410 L713 395 L727 374 L737 353 L739 344 L742 337 L744 322 L745 321 L746 290 L745 289 L743 273 L735 255 L730 248 L721 239 Z M719 238 L720 237 L722 238 L721 239 Z M718 237 L719 236 L720 237 L719 238 Z M578 236 L576 237 L576 240 L577 241 L577 248 L578 249 L579 273 L578 277 L577 278 L576 275 L575 275 L575 277 L572 282 L565 289 L572 284 L576 277 L578 279 L581 272 L581 256 L580 255 L580 247 L579 246 Z M361 235 L363 236 L353 245 L344 258 L337 276 L335 284 L335 290 L334 291 L334 301 L333 302 L334 324 L335 325 L335 331 L339 343 L339 346 L348 367 L363 389 L383 408 L382 409 L367 409 L359 403 L345 388 L329 362 L323 346 L320 333 L320 327 L319 326 L319 300 L320 299 L321 288 L325 275 L331 263 L338 253 L349 243 Z M684 234 L687 239 L688 255 L691 265 L691 280 L690 281 L691 285 L691 300 L690 301 L690 308 L688 313 L689 320 L687 324 L686 323 L687 324 L687 330 L683 346 L671 370 L657 389 L643 403 L635 409 L625 415 L618 415 L617 414 L629 406 L641 392 L646 380 L646 376 L647 375 L646 370 L648 366 L650 370 L650 378 L645 390 L640 397 L640 399 L642 399 L648 391 L654 386 L655 384 L654 383 L652 385 L651 384 L652 378 L654 376 L658 376 L659 377 L658 380 L660 379 L669 366 L672 358 L677 350 L679 344 L677 341 L680 339 L684 328 L684 319 L682 316 L685 314 L684 311 L686 307 L686 297 L687 296 L684 292 L686 290 L687 275 L686 271 L683 267 L687 265 L688 263 L686 264 L684 263 L685 260 L683 245 L678 239 Z M362 235 L363 234 L364 235 L363 236 Z M708 232 L721 241 L729 249 L736 259 L736 261 L740 268 L743 280 L743 285 L744 286 L744 315 L743 316 L743 323 L742 324 L740 338 L733 358 L729 367 L717 387 L710 396 L695 411 L682 411 L681 410 L696 396 L713 370 L713 368 L716 364 L722 349 L728 326 L729 307 L730 306 L730 293 L729 292 L729 280 L728 279 L727 268 L724 258 L719 248 L715 242 L706 233 Z M705 232 L706 231 L707 232 L706 233 Z M688 231 L693 238 L693 240 L696 245 L700 261 L700 268 L701 269 L701 308 L700 309 L700 318 L699 319 L699 324 L698 325 L695 342 L691 354 L682 373 L668 393 L653 408 L646 413 L635 414 L634 413 L647 403 L659 391 L670 377 L675 369 L687 343 L687 338 L689 335 L689 329 L691 323 L691 312 L694 299 L694 290 L693 289 L694 264 L691 257 L690 240 L687 233 Z M704 231 L705 230 L706 231 L705 232 Z M686 231 L687 230 L688 231 L687 232 Z M538 230 L543 234 L550 236 L553 233 L555 233 L556 235 L561 235 L567 232 L569 235 L569 240 L570 241 L570 267 L568 270 L567 269 L566 270 L569 272 L567 277 L561 283 L558 284 L546 283 L540 278 L538 274 L543 269 L541 269 L538 272 L536 266 L536 251 L534 250 L534 241 L535 240 L536 232 Z M405 230 L406 233 L402 247 L399 282 L400 283 L400 291 L401 292 L401 298 L403 305 L403 316 L406 324 L406 327 L412 340 L413 346 L429 373 L449 397 L466 412 L465 413 L458 413 L453 410 L443 402 L430 388 L412 362 L399 332 L395 315 L394 304 L393 303 L392 275 L393 274 L393 266 L394 265 L396 250 L401 236 Z M698 229 L705 234 L714 244 L718 250 L724 264 L725 273 L726 274 L726 281 L727 282 L727 296 L728 297 L727 317 L726 318 L725 331 L722 343 L714 364 L706 379 L698 391 L678 411 L661 412 L660 411 L666 407 L679 394 L691 377 L701 358 L708 335 L708 331 L711 320 L711 314 L712 313 L712 306 L713 305 L713 275 L712 274 L710 255 L703 238 L696 230 Z M566 230 L567 229 L568 230 L567 231 Z M405 229 L406 228 L407 229 L406 230 Z M417 227 L418 226 L421 227 L462 251 L482 261 L485 264 L485 266 L481 276 L481 284 L479 286 L478 284 L475 284 L473 282 L459 275 L457 275 L440 266 L438 266 L412 253 L416 250 L418 252 L465 276 L479 281 L416 249 L414 247 L414 240 Z M379 226 L381 227 L369 238 L362 247 L356 258 L352 269 L350 284 L349 285 L349 293 L348 294 L349 321 L350 322 L350 328 L353 340 L362 363 L377 386 L391 401 L400 408 L399 409 L387 409 L384 407 L365 389 L358 380 L357 377 L351 369 L343 352 L337 332 L336 318 L335 317 L335 301 L336 300 L337 284 L340 272 L345 262 L345 260 L352 249 L366 235 Z M558 226 L559 225 L560 226 L559 227 Z M547 226 L548 225 L549 226 L548 227 Z M539 226 L540 225 L549 229 L558 229 L565 226 L566 228 L565 231 L562 233 L557 234 L556 232 L551 232 L549 234 L540 230 L542 229 Z M388 225 L390 226 L378 241 L372 253 L368 266 L367 277 L366 278 L366 288 L365 289 L365 308 L366 309 L367 324 L374 349 L384 369 L397 387 L413 403 L421 409 L420 410 L405 410 L391 399 L378 385 L366 367 L359 353 L354 338 L354 334 L351 324 L350 290 L351 289 L352 276 L356 262 L366 244 L380 230 Z M380 226 L381 225 L383 226 L382 227 Z M688 224 L699 235 L703 241 L709 257 L710 269 L711 270 L711 281 L712 282 L712 297 L711 298 L711 309 L710 310 L709 321 L707 327 L707 332 L705 337 L704 345 L700 356 L691 374 L684 385 L677 394 L666 405 L656 412 L651 413 L650 412 L655 409 L667 397 L683 375 L693 354 L700 329 L702 307 L703 306 L703 270 L702 269 L701 256 L698 245 L694 236 L687 226 L685 225 Z M561 225 L562 224 L563 225 L562 226 Z M544 225 L545 224 L546 225 L545 226 Z M491 276 L492 273 L495 270 L497 271 L502 251 L508 240 L521 227 L531 224 L532 226 L530 228 L527 235 L526 247 L525 248 L524 259 L522 265 L522 273 L523 274 L523 272 L525 270 L528 276 L528 272 L527 271 L528 239 L530 231 L536 225 L537 227 L534 232 L532 251 L533 252 L533 259 L537 276 L543 283 L550 286 L557 286 L564 283 L570 275 L571 266 L572 265 L572 245 L571 244 L570 232 L568 229 L568 226 L570 225 L576 233 L577 233 L577 228 L576 227 L578 226 L594 235 L604 246 L610 260 L612 261 L611 263 L614 265 L617 275 L617 282 L616 283 L615 282 L615 279 L614 283 L611 280 L609 281 L610 286 L597 296 L592 298 L590 297 L589 293 L583 289 L587 285 L589 285 L594 282 L598 278 L603 279 L601 277 L602 276 L606 276 L607 277 L606 275 L601 274 L600 273 L601 272 L598 272 L595 274 L594 273 L596 267 L596 261 L593 263 L594 270 L593 271 L593 277 L592 278 L591 277 L591 271 L589 264 L590 255 L588 256 L587 255 L586 244 L584 247 L584 252 L588 264 L588 271 L585 277 L583 278 L574 292 L570 293 L566 298 L559 300 L555 303 L555 306 L559 305 L562 307 L559 309 L549 309 L548 308 L551 305 L551 302 L542 298 L538 293 L531 290 L526 283 L524 277 L521 279 L517 276 L516 270 L517 269 L518 258 L523 249 L522 244 L521 245 L521 250 L517 256 L516 262 L515 263 L514 261 L513 262 L513 267 L515 273 L513 274 L511 272 L507 271 L509 273 L508 274 L495 275 L495 277 L499 275 L507 275 L508 276 L505 279 L512 278 L515 282 L518 283 L522 287 L524 287 L526 289 L523 291 L523 293 L524 292 L535 293 L537 295 L536 296 L528 295 L528 296 L538 302 L542 302 L543 303 L542 304 L537 304 L536 303 L535 305 L530 303 L528 305 L522 301 L519 297 L517 298 L514 295 L505 290 L501 286 L501 284 L499 284 L498 282 L495 286 L494 285 L495 280 L492 282 L491 281 Z M389 225 L390 224 L391 225 L390 226 Z M383 225 L384 224 L385 225 L384 226 Z M563 224 L564 223 L565 224 L564 225 Z M398 223 L399 225 L392 234 L387 244 L382 264 L381 278 L380 279 L380 309 L381 310 L380 312 L381 313 L381 317 L388 341 L397 359 L419 389 L433 403 L441 409 L445 411 L444 412 L425 410 L413 401 L400 388 L392 378 L382 362 L376 349 L371 334 L369 319 L368 318 L368 309 L367 308 L367 288 L368 287 L369 271 L373 259 L373 256 L380 241 L387 232 L393 226 Z M398 223 L399 222 L401 223 L400 224 Z M422 221 L476 254 L486 258 L487 261 L484 262 L474 255 L442 238 L433 232 L424 228 L420 225 Z M413 217 L418 218 L420 221 L416 224 L412 240 L412 245 L411 246 L408 245 L408 246 L413 249 L410 253 L409 262 L408 263 L408 273 L410 280 L409 281 L405 279 L404 280 L408 280 L409 281 L408 283 L408 293 L409 294 L409 299 L411 307 L414 310 L412 312 L412 319 L417 334 L420 340 L423 343 L422 345 L424 346 L424 350 L434 366 L440 370 L438 371 L438 373 L448 386 L459 396 L466 400 L467 402 L469 402 L470 400 L479 409 L488 414 L487 415 L473 414 L457 401 L445 388 L446 387 L445 386 L444 387 L440 383 L431 371 L416 346 L415 340 L409 327 L406 317 L406 307 L404 300 L403 283 L402 282 L405 246 L409 234 L411 220 Z M408 217 L409 220 L402 230 L397 241 L393 254 L392 265 L391 266 L390 291 L391 292 L391 300 L392 301 L392 309 L393 310 L394 319 L402 345 L413 367 L431 392 L451 411 L450 412 L448 412 L438 405 L416 383 L393 349 L388 338 L384 325 L384 320 L382 314 L382 306 L381 305 L381 282 L382 281 L382 273 L383 272 L385 255 L387 251 L388 245 L394 233 L402 223 L400 222 Z M573 216 L575 217 L574 221 L572 220 Z M533 216 L535 219 L533 222 L531 220 Z M547 215 L547 217 L550 217 L551 219 L555 219 L557 217 L559 217 L558 215 L555 216 Z M573 213 L574 212 L575 213 L574 214 Z M672 208 L674 211 L676 219 L677 236 L671 241 L629 262 L627 264 L623 265 L618 250 L614 243 Z M549 211 L551 213 L556 213 L557 211 L552 212 L551 211 L552 208 L551 208 L552 210 Z M672 206 L624 235 L614 243 L611 240 L612 238 L613 239 L640 220 L664 205 L667 202 Z M557 204 L558 205 L563 205 L566 203 L558 203 Z M540 203 L543 205 L550 204 L551 206 L551 204 L549 203 Z M673 198 L675 198 L677 201 L680 212 L681 222 L685 233 L680 236 L679 235 L679 226 L678 225 L676 212 L674 206 L669 202 Z M557 198 L557 199 L562 199 L563 198 L567 199 L566 197 L559 197 Z M539 198 L539 199 L547 198 L550 200 L548 197 L541 197 Z M433 193 L438 192 L481 223 L494 231 L498 235 L490 250 L487 259 L477 252 L424 221 L421 218 L421 215 L424 210 L426 202 L431 195 L462 216 L495 236 L494 234 L476 222 L465 216 L432 194 Z M579 191 L581 194 L582 202 L583 203 L583 212 L581 220 L584 220 L591 226 L599 230 L609 240 L616 252 L619 264 L622 269 L624 276 L624 283 L621 294 L623 296 L622 297 L619 296 L615 290 L619 283 L619 274 L612 252 L607 243 L594 230 L586 226 L575 223 L577 221 L576 214 L579 206 L579 200 L578 199 L578 192 Z M529 191 L530 192 L529 195 L530 199 L528 201 L528 206 L530 212 L530 218 L529 219 L530 222 L514 228 L503 239 L497 250 L494 259 L493 267 L489 274 L488 283 L487 284 L487 289 L489 293 L483 296 L475 303 L474 301 L481 292 L483 292 L483 290 L481 289 L483 286 L484 276 L497 242 L504 232 L512 225 L518 222 L521 219 L527 221 L524 217 L524 214 L525 213 L525 201 Z M577 190 L578 189 L579 191 L578 192 Z M540 190 L542 189 L548 189 L549 190 L564 189 L567 190 L570 193 L572 200 L572 211 L571 212 L571 217 L566 224 L562 223 L558 225 L547 225 L539 220 L536 213 L535 203 L536 202 L536 195 Z M529 190 L530 189 L531 190 L530 191 Z M576 188 L577 187 L578 189 L577 190 Z M429 187 L433 189 L434 191 L427 196 L419 216 L417 217 L414 214 L417 208 L419 197 L421 193 Z M575 186 L576 185 L577 186 L576 187 Z M574 185 L575 184 L576 185 L575 186 Z M542 179 L543 178 L544 179 L543 180 Z M654 174 L655 176 L652 179 L612 209 L598 221 L608 215 L657 177 L659 179 L667 196 L667 200 L664 203 L643 216 L611 239 L602 229 L591 222 L608 209 L648 174 L650 173 Z M532 191 L536 184 L541 181 L546 180 L546 179 L543 178 L546 175 L554 173 L563 176 L565 179 L562 180 L563 181 L567 181 L573 186 L575 190 L576 198 L574 201 L572 193 L566 188 L556 188 L555 189 L552 188 L541 188 L535 193 L535 196 L533 200 L532 199 Z M444 170 L447 167 L450 168 L503 213 L512 219 L497 205 L450 166 L451 164 L454 163 L456 164 L492 198 L508 212 L512 214 L516 219 L504 228 L500 233 L495 231 L436 189 L436 185 L438 183 L438 181 L440 179 Z M555 148 L556 147 L557 149 L556 150 Z M634 149 L649 166 L650 171 L610 204 L590 222 L585 217 L586 205 L584 197 L613 164 L627 146 L632 149 L594 189 L587 199 Z M475 146 L476 145 L477 146 L476 147 Z M454 159 L461 154 L471 144 L473 145 L502 178 L523 199 L522 203 L522 216 L519 218 L515 217 L500 202 L454 161 Z M479 143 L506 176 L524 195 L523 198 L476 147 L478 146 Z M481 141 L492 141 L493 140 L507 140 L510 141 L530 178 L529 173 L516 148 L514 146 L513 142 L514 141 L520 147 L520 149 L535 178 L529 184 L524 194 L480 142 Z M635 138 L637 140 L641 151 L657 165 L654 169 L657 167 L660 168 L663 174 L664 180 L668 187 L667 188 L668 187 L674 195 L670 199 L659 176 L652 171 L651 165 L643 157 L637 149 L633 148 L630 144 Z M594 138 L595 135 L620 135 L621 136 L632 136 L633 137 L630 142 L630 144 L628 146 L627 143 L623 140 L595 139 Z M624 142 L626 144 L623 149 L584 195 L577 182 L570 177 L568 177 L557 171 L558 169 L558 145 L556 144 L556 140 L555 139 L556 138 L574 138 L575 137 L587 136 L588 135 L590 136 L584 146 L581 156 L574 172 L574 175 L576 173 L576 171 L579 166 L586 146 L588 144 L590 138 L592 136 L593 137 L591 146 L579 170 L578 176 L580 175 L580 173 L592 148 L593 143 L595 141 L604 140 L605 141 Z M514 136 L515 135 L519 135 L520 136 L534 137 L535 138 L551 138 L552 141 L553 140 L554 141 L554 170 L553 171 L550 170 L551 169 L551 162 L550 161 L550 144 L549 142 L548 143 L549 171 L535 178 L534 177 L535 176 L529 164 L528 160 L526 158 L521 145 L519 142 L518 143 L516 141 Z M514 138 L513 141 L506 138 L481 139 L478 144 L476 143 L468 144 L462 151 L454 156 L452 159 L453 161 L452 162 L448 163 L444 167 L437 179 L433 188 L429 185 L434 172 L441 160 L445 157 L449 158 L448 154 L453 150 L459 148 L462 145 L464 137 L471 139 L468 136 L472 135 L475 139 L476 135 L480 135 L481 134 L505 134 L506 135 L511 135 Z M467 132 L461 136 L460 142 L457 145 L447 150 L438 159 L427 180 L426 185 L418 192 L413 210 L410 214 L383 221 L369 228 L367 230 L365 230 L340 242 L338 244 L324 249 L296 270 L288 278 L280 291 L272 298 L260 316 L254 331 L250 336 L239 357 L237 359 L237 361 L227 381 L216 411 L208 442 L208 447 L207 448 L205 465 L204 466 L203 488 L202 489 L202 522 L204 529 L207 532 L210 533 L222 533 L225 532 L226 533 L225 562 L224 563 L224 682 L227 686 L232 688 L232 699 L225 703 L220 715 L219 724 L218 725 L218 732 L217 733 L217 748 L211 759 L207 775 L206 795 L205 796 L205 813 L204 814 L204 826 L203 827 L200 867 L199 868 L197 895 L196 896 L192 935 L190 943 L190 953 L189 954 L189 961 L188 962 L186 1006 L187 1007 L188 1016 L191 1019 L197 1020 L207 1016 L222 1015 L228 1017 L235 1024 L238 1031 L238 1036 L239 1037 L239 1042 L241 1050 L243 1054 L247 1058 L252 1060 L255 1073 L269 1111 L285 1143 L297 1163 L316 1191 L332 1211 L354 1234 L377 1254 L409 1275 L431 1286 L461 1297 L477 1301 L491 1303 L492 1304 L497 1304 L504 1306 L513 1306 L514 1307 L526 1307 L527 1308 L572 1308 L573 1307 L585 1307 L586 1306 L600 1305 L601 1304 L620 1301 L649 1292 L654 1289 L663 1286 L677 1279 L700 1265 L731 1240 L752 1219 L773 1194 L788 1173 L801 1152 L813 1129 L813 1127 L824 1103 L833 1074 L835 1062 L842 1058 L845 1053 L847 1046 L849 1030 L853 1022 L857 1018 L865 1015 L873 1015 L891 1020 L894 1019 L898 1013 L898 1006 L899 1005 L898 972 L897 971 L895 942 L894 941 L894 934 L892 926 L892 918 L890 910 L890 902 L888 895 L888 886 L887 885 L886 867 L885 866 L883 833 L882 832 L882 819 L881 818 L880 780 L879 779 L879 773 L878 772 L878 767 L876 759 L869 748 L869 731 L868 730 L868 722 L867 721 L866 712 L864 707 L858 701 L856 701 L854 699 L854 690 L859 688 L863 683 L864 600 L863 599 L862 533 L863 532 L878 533 L881 532 L885 527 L886 496 L885 495 L885 480 L884 479 L883 460 L881 453 L880 439 L879 438 L879 434 L878 433 L878 429 L877 428 L876 419 L874 415 L873 407 L860 371 L857 367 L844 341 L832 324 L826 312 L820 304 L807 291 L804 286 L799 281 L783 269 L770 262 L764 260 L761 257 L751 251 L733 242 L723 235 L711 229 L686 221 L684 219 L684 215 L681 207 L680 199 L670 185 L663 167 L644 150 L639 137 L637 135 L633 133 L618 133 L617 132 L589 132 L588 133 L581 133 L574 135 L539 135 L538 134 L527 134 L526 133 L506 132 L505 131 Z" fill="#eef3f4" fill-rule="evenodd"/>
</svg>
