<svg xmlns="http://www.w3.org/2000/svg" width="1448" height="1086" viewBox="0 0 1448 1086">
  <title>0207</title>
  <path d="M1081 956 L1082 955 L1083 956 L1082 957 Z M1082 955 L1083 954 L1084 955 L1083 956 Z M1150 953 L1151 952 L1152 953 L1151 954 Z M1036 953 L1037 952 L1039 953 L1038 954 Z M1129 952 L1130 951 L1131 952 L1130 953 Z M1084 942 L1085 941 L1086 942 L1085 943 Z M1069 939 L1070 938 L1071 939 L1070 940 Z M1038 952 L1049 945 L1066 928 L1074 916 L1077 917 L1081 916 L1087 920 L1093 918 L1096 921 L1100 921 L1103 919 L1107 921 L1110 921 L1111 920 L1116 920 L1118 918 L1122 918 L1124 916 L1126 916 L1141 942 L1151 952 L1147 953 L1143 951 L1131 938 L1127 936 L1126 937 L1126 942 L1128 948 L1130 950 L1129 952 L1114 937 L1112 937 L1110 943 L1110 949 L1113 959 L1116 963 L1115 965 L1108 958 L1106 954 L1101 935 L1099 935 L1093 946 L1084 955 L1083 953 L1086 949 L1089 940 L1088 936 L1076 946 L1068 950 L1067 949 L1072 942 L1074 937 L1072 933 L1052 949 L1042 953 Z M1158 953 L1153 951 L1144 942 L1133 924 L1129 915 L1125 912 L1122 915 L1116 915 L1115 917 L1110 917 L1109 918 L1107 918 L1105 916 L1097 918 L1093 915 L1087 917 L1082 913 L1079 914 L1073 913 L1066 924 L1052 939 L1040 948 L1027 953 L1026 955 L1027 956 L1041 956 L1047 954 L1058 948 L1069 939 L1070 941 L1068 945 L1061 952 L1057 954 L1058 955 L1063 955 L1073 951 L1084 942 L1085 945 L1081 953 L1071 963 L1075 964 L1084 959 L1093 950 L1097 943 L1100 941 L1104 953 L1104 956 L1109 964 L1115 968 L1122 969 L1122 967 L1118 963 L1113 950 L1113 941 L1114 940 L1123 951 L1132 957 L1136 957 L1137 958 L1138 956 L1132 950 L1129 944 L1130 940 L1136 948 L1141 953 L1145 955 L1156 956 L1158 955 Z M994 852 L995 851 L996 853 L995 854 Z M993 850 L994 849 L995 850 L994 851 Z M1257 849 L1258 848 L1259 849 L1258 850 Z M1264 842 L1265 843 L1264 846 L1263 845 Z M1264 841 L1265 840 L1266 842 L1265 843 Z M903 841 L904 840 L905 841 L904 842 Z M1260 840 L1261 839 L1262 840 L1261 841 Z M1265 839 L1266 838 L1267 840 L1266 841 Z M1176 839 L1177 838 L1178 839 L1177 840 Z M1266 837 L1267 836 L1268 837 L1267 838 Z M1267 834 L1268 833 L1269 835 L1268 836 Z M991 838 L995 833 L1007 842 L1013 844 L1041 859 L1043 859 L1058 866 L1062 866 L1063 867 L1064 866 L1047 858 L1045 858 L1020 845 L1018 845 L1016 843 L1007 839 L998 832 L1000 831 L1025 844 L1043 850 L1062 854 L1081 860 L1093 861 L1094 862 L1110 862 L1111 861 L1120 861 L1121 860 L1132 859 L1154 852 L1173 841 L1175 842 L1157 857 L1134 868 L1136 867 L1137 868 L1152 863 L1173 848 L1187 832 L1189 834 L1180 857 L1169 869 L1156 876 L1134 882 L1121 883 L1120 884 L1081 884 L1080 883 L1071 883 L1070 882 L1053 880 L1037 875 L1034 875 L1031 873 L1013 867 L1001 861 L995 855 L997 853 L997 850 Z M894 832 L895 831 L904 840 L903 841 L899 839 L898 840 L896 838 Z M913 831 L914 830 L915 831 L914 832 Z M893 831 L894 830 L895 831 L894 832 Z M287 831 L295 838 L311 846 L323 849 L338 850 L339 851 L350 851 L351 850 L365 849 L376 846 L391 839 L374 845 L366 847 L361 847 L360 848 L330 848 L329 847 L318 846 L305 842 Z M1005 830 L1006 829 L1015 829 L1016 830 L1062 830 L1063 831 L1070 831 L1071 832 L1083 833 L1096 836 L1104 836 L1105 837 L1122 836 L1134 833 L1139 833 L1144 831 L1158 830 L1159 829 L1172 829 L1173 830 L1183 830 L1184 831 L1175 837 L1151 836 L1149 838 L1165 839 L1169 841 L1165 844 L1148 852 L1145 852 L1133 856 L1118 858 L1117 859 L1092 859 L1045 848 L1028 842 Z M1002 829 L1003 828 L1006 829 L1005 830 Z M1110 822 L1111 821 L1112 822 L1111 823 Z M1260 821 L1261 820 L1262 821 L1261 822 Z M1251 821 L1252 820 L1253 821 L1252 822 Z M1124 820 L1125 819 L1126 820 L1125 821 Z M1142 816 L1143 815 L1144 816 L1143 817 Z M1091 815 L1092 814 L1093 815 L1092 816 Z M290 813 L291 812 L293 813 L292 814 Z M288 812 L289 811 L290 812 L289 813 Z M403 810 L389 816 L385 815 L400 809 Z M284 810 L285 809 L286 810 L285 811 Z M403 809 L404 808 L405 809 L404 810 Z M281 809 L282 808 L284 809 L283 810 Z M1259 805 L1260 804 L1261 805 L1260 806 Z M279 804 L280 803 L283 804 L282 805 Z M277 803 L278 802 L279 803 L278 804 Z M425 802 L409 816 L393 827 L371 836 L357 838 L356 839 L344 839 L335 835 L332 832 L322 827 L313 824 L312 822 L307 821 L292 814 L295 813 L298 815 L314 819 L318 819 L323 821 L329 821 L330 822 L359 822 L360 821 L367 821 L384 817 L390 818 L410 809 L423 801 Z M424 801 L425 800 L426 801 L425 802 Z M909 800 L910 799 L911 800 L910 801 Z M418 800 L376 817 L366 818 L365 819 L357 819 L356 820 L334 820 L333 819 L325 819 L324 818 L310 816 L289 809 L282 805 L283 804 L290 804 L291 805 L298 805 L305 807 L316 807 L317 808 L326 808 L333 810 L339 810 L350 807 L375 806 L382 804 L407 801 L413 799 L417 799 Z M417 799 L418 798 L420 799 L419 800 Z M263 799 L264 798 L265 799 L264 800 Z M420 798 L421 797 L422 798 L421 799 Z M262 798 L263 797 L264 798 L263 799 Z M434 796 L435 795 L436 797 L435 798 Z M1072 816 L1079 806 L1083 793 L1088 798 L1098 799 L1101 801 L1120 800 L1128 793 L1133 797 L1139 810 L1143 815 L1142 816 L1139 815 L1130 804 L1126 804 L1124 807 L1124 815 L1125 816 L1124 820 L1122 818 L1120 810 L1118 808 L1114 807 L1110 813 L1110 819 L1111 820 L1110 822 L1106 817 L1104 817 L1101 821 L1099 821 L1098 820 L1099 810 L1102 809 L1104 815 L1108 815 L1108 812 L1106 812 L1105 809 L1101 806 L1097 809 L1096 813 L1093 815 L1092 814 L1092 805 L1090 803 L1087 803 L1085 808 L1080 814 L1074 817 Z M1065 819 L1066 821 L1068 821 L1069 820 L1074 820 L1080 817 L1085 812 L1087 807 L1089 806 L1090 807 L1090 812 L1086 821 L1091 820 L1095 816 L1096 817 L1096 822 L1098 824 L1101 824 L1105 820 L1110 825 L1113 826 L1115 824 L1115 822 L1113 820 L1112 815 L1113 812 L1116 810 L1119 813 L1121 821 L1124 824 L1129 824 L1130 821 L1128 819 L1126 811 L1126 807 L1129 806 L1139 818 L1144 820 L1149 820 L1149 818 L1142 810 L1135 795 L1130 791 L1125 791 L1122 796 L1114 797 L1113 798 L1108 796 L1103 799 L1100 796 L1096 796 L1095 797 L1091 795 L1088 795 L1085 790 L1080 793 L1077 804 L1074 810 Z M1166 779 L1167 778 L1176 789 L1186 796 L1208 807 L1222 812 L1237 814 L1238 813 L1246 812 L1257 807 L1259 805 L1260 807 L1251 818 L1245 823 L1245 826 L1248 826 L1251 824 L1255 824 L1260 821 L1261 822 L1258 828 L1248 838 L1248 840 L1255 840 L1256 841 L1260 840 L1261 841 L1258 845 L1249 851 L1245 852 L1245 854 L1247 855 L1254 852 L1257 849 L1258 850 L1252 861 L1249 864 L1243 867 L1232 867 L1226 865 L1212 857 L1198 843 L1192 835 L1179 810 L1179 808 L1173 797 Z M1165 778 L1166 777 L1167 778 L1166 779 Z M1164 777 L1165 776 L1166 777 L1165 778 Z M1078 774 L1079 773 L1081 774 L1080 775 Z M1073 773 L1074 772 L1078 773 L1077 774 Z M1032 773 L1017 798 L1014 805 L1002 822 L967 858 L960 863 L945 870 L940 870 L939 871 L927 870 L916 864 L904 852 L898 842 L900 841 L909 850 L918 855 L924 855 L924 854 L914 850 L904 842 L906 841 L913 845 L920 847 L926 847 L930 845 L927 841 L914 832 L916 831 L920 833 L928 833 L932 830 L932 828 L910 801 L911 800 L925 808 L935 811 L959 811 L960 810 L971 809 L983 806 L999 800 L1011 792 L1031 772 Z M1031 772 L1032 771 L1033 772 L1032 773 Z M1002 825 L1008 819 L1014 810 L1027 786 L1043 760 L1047 765 L1056 772 L1073 775 L1074 776 L1079 776 L1084 778 L1089 778 L1101 783 L1114 783 L1118 782 L1130 776 L1139 775 L1145 771 L1153 768 L1156 765 L1164 781 L1170 797 L1185 827 L1184 828 L1180 827 L1155 827 L1154 828 L1141 829 L1140 830 L1120 833 L1119 834 L1101 834 L1100 833 L1094 833 L1093 832 L1069 829 L1068 828 L1061 828 L1060 827 L1028 827 L1024 828 L1023 827 L1011 827 L1010 826 L1003 826 Z M860 749 L861 750 L861 755 L860 756 L859 755 L859 750 Z M437 787 L436 791 L424 795 L404 798 L403 799 L375 802 L374 803 L350 804 L339 807 L319 805 L318 804 L307 804 L306 803 L281 801 L268 797 L261 793 L265 776 L279 739 L283 745 L289 750 L295 753 L313 758 L318 761 L324 763 L341 763 L342 762 L346 762 L349 766 L349 770 L350 773 L351 773 L351 764 L354 759 L361 757 L376 756 L387 750 L396 740 L399 730 L399 724 L398 723 L398 719 L399 718 L416 741 L427 759 L433 772 Z M397 718 L398 717 L399 718 L398 719 Z M294 679 L285 697 L278 719 L278 736 L270 754 L264 772 L259 792 L259 796 L263 803 L268 818 L268 831 L264 844 L267 840 L270 830 L270 817 L267 807 L264 802 L265 799 L272 807 L274 811 L291 828 L304 836 L313 839 L320 839 L327 841 L331 841 L332 840 L311 836 L300 831 L294 827 L276 809 L278 808 L299 820 L312 824 L315 827 L317 827 L334 836 L337 841 L352 842 L353 841 L360 841 L377 837 L395 829 L411 818 L434 797 L435 800 L433 804 L433 813 L432 814 L433 815 L433 822 L436 832 L439 838 L440 838 L435 821 L435 805 L438 795 L438 783 L434 769 L428 756 L419 741 L404 720 L393 707 L379 680 L378 680 L379 684 L391 705 L391 709 L394 713 L396 719 L397 731 L396 732 L396 736 L393 742 L386 749 L379 752 L366 752 L343 760 L327 761 L317 758 L311 754 L298 750 L293 750 L289 748 L284 743 L281 737 L280 733 L281 718 L287 699 L295 681 L295 679 Z M149 664 L150 665 L150 674 L151 675 L153 695 L155 702 L155 708 L159 724 L159 729 L161 734 L161 739 L163 743 L159 745 L153 743 L150 740 L148 735 L148 665 Z M632 661 L595 702 L589 710 L588 709 L588 697 L591 693 L606 678 L625 656 Z M622 655 L620 656 L590 691 L589 690 L590 677 L607 660 L614 651 Z M612 649 L611 651 L591 672 L590 671 L590 667 L591 666 L592 646 L593 645 L597 647 L601 644 L604 644 Z M592 638 L593 637 L599 642 L596 644 L593 644 L592 643 Z M1221 628 L1222 627 L1223 628 L1222 629 Z M574 621 L582 629 L590 635 L590 639 L589 640 L589 656 L588 657 L588 673 L587 674 L587 688 L586 689 L584 729 L581 737 L577 741 L570 742 L565 738 L563 733 L563 717 L564 716 L567 683 L568 682 L568 673 L569 672 L569 665 L570 664 L571 644 L572 643 L572 627 Z M827 616 L828 617 L823 623 L822 622 L822 618 Z M1287 615 L1291 616 L1291 621 L1290 622 L1290 644 L1291 645 L1291 667 L1292 668 L1293 701 L1294 702 L1294 714 L1295 715 L1295 733 L1293 738 L1290 741 L1286 741 L1285 740 L1285 734 L1286 733 L1286 711 L1287 710 L1287 617 L1286 616 Z M827 616 L828 615 L830 616 L829 617 Z M839 614 L847 614 L848 615 L849 679 L853 688 L861 693 L862 737 L858 749 L851 755 L841 755 L837 753 L832 747 L829 737 L826 652 L825 651 L825 625 L828 619 L829 623 L831 625 L832 618 L835 615 Z M1292 614 L1294 613 L1299 615 L1302 620 L1294 625 L1293 624 L1293 615 Z M999 613 L1000 612 L1001 614 L1000 615 Z M1184 611 L1185 612 L1184 615 L1184 627 L1186 633 L1189 637 L1185 639 L1173 640 L1161 644 L1160 643 L1171 625 Z M1107 611 L1115 618 L1139 647 L1108 684 L1069 647 L1073 642 Z M1184 611 L1185 610 L1186 611 L1185 612 Z M997 610 L998 609 L1000 612 L999 613 Z M988 609 L994 611 L998 618 L997 623 L993 628 L986 628 L981 622 L982 614 Z M573 610 L574 609 L592 623 L620 641 L640 651 L642 654 L642 659 L640 661 L620 651 L599 638 L583 625 L573 615 Z M1210 607 L1214 608 L1217 613 L1217 619 L1214 623 L1214 626 L1211 628 L1208 627 L1204 622 L1204 613 Z M1108 608 L1086 627 L1066 647 L1107 686 L1119 675 L1142 647 Z M1017 607 L1023 610 L1034 621 L1049 641 L1048 642 L1036 639 L1028 639 L1027 638 L1018 637 L1014 635 L1018 625 L1018 613 L1016 609 Z M1015 607 L1016 606 L1017 607 L1016 608 Z M812 606 L813 605 L814 606 L813 607 Z M1213 605 L1207 606 L1203 610 L1201 614 L1202 624 L1205 628 L1209 630 L1214 628 L1218 623 L1220 617 L1218 609 Z M1286 604 L1287 603 L1295 603 L1301 605 L1305 610 L1304 617 L1303 618 L1302 615 L1297 611 L1287 611 L1286 610 Z M982 604 L986 603 L992 604 L998 608 L997 610 L993 607 L985 607 L980 612 L978 616 L978 622 L981 628 L986 631 L993 631 L995 630 L1000 623 L1000 616 L1001 615 L1002 616 L1001 627 L997 632 L993 634 L987 634 L981 632 L974 624 L973 620 L974 613 L976 609 Z M847 604 L847 610 L846 611 L835 611 L834 612 L829 612 L822 615 L819 618 L819 623 L822 627 L821 629 L817 628 L813 625 L811 621 L811 614 L816 608 L822 605 L831 604 L832 603 L846 603 Z M1201 600 L1202 601 L1196 612 L1196 626 L1199 633 L1203 636 L1202 637 L1192 638 L1188 633 L1186 626 L1187 613 L1189 608 L1193 604 Z M104 601 L108 600 L118 603 L130 603 L131 604 L142 603 L143 604 L144 612 L143 613 L115 612 L107 609 L104 606 Z M1216 599 L1222 605 L1223 608 L1223 619 L1219 628 L1214 633 L1209 635 L1205 635 L1201 631 L1199 627 L1199 623 L1198 622 L1199 611 L1202 605 L1206 601 L1210 599 Z M1201 600 L1202 599 L1204 600 L1203 601 Z M993 599 L999 599 L1008 602 L1014 606 L1014 609 L1016 612 L1016 625 L1014 632 L1010 637 L998 637 L997 636 L1004 627 L1005 617 L1003 610 L996 602 L992 600 Z M1208 596 L1209 595 L1211 596 L1210 597 Z M989 596 L991 598 L990 599 L987 599 L980 602 L973 609 L971 613 L971 622 L972 624 L971 625 L966 621 L963 614 L963 606 L964 604 L970 598 L978 595 Z M572 596 L573 595 L594 612 L597 613 L614 625 L641 639 L643 641 L641 645 L639 647 L634 645 L632 643 L618 636 L589 617 L572 603 Z M1285 593 L1286 592 L1295 592 L1300 594 L1302 597 L1302 602 L1301 603 L1295 600 L1286 600 L1285 599 Z M847 593 L847 599 L846 600 L832 600 L831 601 L822 602 L815 606 L813 605 L814 600 L818 596 L822 594 L831 593 L832 592 L846 592 Z M1223 590 L1225 590 L1230 594 L1233 601 L1233 617 L1230 623 L1224 628 L1222 627 L1226 618 L1225 605 L1220 598 L1211 595 L1216 592 L1219 592 Z M129 588 L132 585 L134 586 L133 589 Z M98 586 L100 582 L106 587 L118 591 L141 592 L143 599 L142 600 L120 600 L119 599 L113 599 L101 594 L99 592 Z M1261 577 L1262 578 L1261 582 L1253 598 L1246 608 L1235 619 L1234 618 L1235 604 L1232 594 L1228 590 L1230 588 L1248 584 Z M1277 576 L1278 575 L1279 577 L1278 578 Z M1261 576 L1262 575 L1263 577 L1262 578 Z M931 575 L939 581 L952 588 L968 593 L974 593 L975 594 L966 599 L961 607 L961 614 L962 615 L961 617 L950 606 L932 581 L930 577 Z M929 575 L930 574 L931 575 L930 576 Z M1136 574 L1137 573 L1138 574 L1137 575 Z M1076 574 L1077 573 L1078 574 L1077 575 Z M184 603 L188 598 L190 590 L194 581 L201 575 L209 573 L227 574 L247 579 L258 584 L265 589 L270 594 L277 604 L283 618 L282 619 L267 612 L264 612 L261 610 L249 607 L235 607 L234 606 L233 607 L232 606 L227 606 L222 604 L217 604 L206 601 L196 602 L189 605 L185 605 Z M132 574 L133 580 L125 588 L123 589 L114 586 L124 579 L130 573 Z M1277 570 L1278 571 L1277 575 L1276 574 Z M178 605 L179 607 L183 608 L189 608 L197 605 L210 605 L227 609 L246 610 L272 617 L286 625 L289 625 L287 614 L284 606 L279 597 L271 589 L251 577 L227 571 L211 570 L210 571 L204 571 L196 575 L189 584 L185 598 Z M1276 566 L1277 567 L1276 570 L1275 569 Z M1268 567 L1269 566 L1270 568 L1269 569 Z M500 596 L499 597 L492 597 L483 594 L473 593 L472 594 L460 595 L446 599 L435 599 L428 602 L419 603 L410 606 L388 618 L386 617 L394 597 L398 591 L408 581 L426 571 L446 565 L461 565 L472 568 L480 573 L484 577 L490 588 L495 593 Z M505 596 L499 592 L492 585 L486 575 L478 568 L469 564 L461 563 L460 562 L441 563 L428 567 L419 572 L412 573 L400 582 L392 591 L385 604 L383 611 L382 622 L391 620 L413 608 L429 604 L442 603 L464 597 L482 597 L491 600 L499 600 L505 598 Z M131 560 L131 568 L122 577 L110 585 L108 585 L103 581 L106 578 L117 572 L130 559 Z M178 597 L180 597 L182 595 L190 574 L198 566 L207 562 L223 561 L246 567 L257 572 L268 579 L283 594 L288 603 L291 611 L291 614 L293 614 L291 603 L287 595 L282 588 L275 581 L264 573 L253 567 L237 561 L229 560 L228 559 L212 558 L201 561 L196 564 L188 573 L184 581 L182 590 Z M506 585 L502 584 L495 577 L494 574 L487 565 L474 556 L460 552 L440 552 L439 553 L430 554 L416 559 L400 569 L389 580 L385 586 L380 596 L377 608 L379 609 L382 598 L388 586 L404 569 L420 560 L438 555 L454 554 L474 559 L486 568 L494 580 L499 585 L503 587 L505 587 Z M138 539 L139 540 L138 543 L137 542 Z M1278 532 L1280 534 L1280 558 L1281 559 L1280 561 L1281 563 L1281 572 L1280 573 L1275 554 L1277 533 Z M370 529 L371 528 L372 529 L371 530 Z M371 528 L372 527 L373 528 L372 529 Z M178 527 L179 526 L180 527 L179 528 Z M901 524 L903 526 L914 554 L898 574 L886 544 Z M401 525 L394 527 L381 536 L372 546 L365 558 L362 569 L362 592 L366 607 L366 603 L363 592 L363 572 L366 560 L371 550 L377 542 L390 531 Z M280 525 L281 524 L282 525 L281 526 Z M279 524 L280 523 L281 524 L280 525 Z M249 524 L249 525 L264 530 L279 540 L292 554 L296 560 L303 576 L304 584 L305 585 L305 591 L306 592 L306 644 L305 645 L305 666 L304 667 L304 698 L305 698 L306 660 L307 659 L307 643 L308 642 L308 618 L309 617 L308 589 L307 588 L307 583 L305 575 L298 559 L285 543 L275 535 L265 529 L263 529 L258 526 Z M180 524 L181 523 L182 524 L181 525 Z M181 523 L182 522 L183 523 L182 524 Z M276 522 L278 521 L280 523 L278 524 Z M902 521 L899 523 L884 542 L884 546 L897 577 L900 576 L915 556 L915 553 L913 550 L912 545 L910 543 L910 540 Z M504 517 L505 516 L506 517 L505 518 Z M503 516 L504 515 L505 516 L504 517 Z M500 514 L502 513 L504 515 L502 516 Z M1278 508 L1278 521 L1275 534 L1275 541 L1274 542 L1273 552 L1271 554 L1268 563 L1263 572 L1259 576 L1250 581 L1232 586 L1223 587 L1212 591 L1186 606 L1172 620 L1156 645 L1153 648 L1153 649 L1157 648 L1175 648 L1176 649 L1157 662 L1154 659 L1154 662 L1147 669 L1135 691 L1130 698 L1123 705 L1109 714 L1103 712 L1087 702 L1051 665 L1031 650 L1035 648 L1057 648 L1057 647 L1028 611 L1016 603 L997 596 L974 592 L973 591 L968 591 L954 587 L936 577 L927 568 L932 564 L939 571 L946 575 L966 581 L988 584 L1000 587 L1020 595 L1035 605 L1042 612 L1056 634 L1057 634 L1050 622 L1049 618 L1068 602 L1070 603 L1069 602 L1077 594 L1108 568 L1132 595 L1157 629 L1155 632 L1154 639 L1164 618 L1171 609 L1185 596 L1210 582 L1223 578 L1234 577 L1250 573 L1261 564 L1269 547 L1273 526 L1274 525 L1275 509 L1277 507 Z M182 522 L185 517 L197 507 L205 503 L218 500 L235 500 L247 503 L261 509 L269 514 L277 521 L275 522 L273 520 L259 513 L242 508 L237 508 L236 507 L214 507 L202 510 L189 517 L183 523 Z M903 497 L905 499 L905 501 L908 506 L911 516 L926 549 L931 563 L928 566 L926 566 L922 561 L920 562 L923 567 L922 570 L916 576 L900 597 L896 600 L880 554 L880 551 L876 539 Z M166 553 L168 554 L169 549 L179 531 L191 519 L202 513 L212 510 L228 509 L229 510 L239 510 L252 513 L273 523 L281 529 L284 530 L290 536 L292 536 L292 534 L288 528 L276 516 L266 509 L252 502 L233 497 L213 498 L203 501 L195 505 L181 518 L174 529 Z M942 495 L943 494 L944 495 L943 496 Z M501 513 L499 514 L490 509 L470 503 L464 503 L457 501 L440 501 L439 502 L432 502 L431 503 L422 504 L407 509 L390 517 L374 528 L372 527 L386 515 L407 503 L425 497 L433 496 L434 495 L441 495 L442 494 L457 494 L458 495 L464 495 L472 497 L491 505 Z M519 532 L515 524 L508 515 L491 502 L478 496 L475 496 L467 493 L446 491 L445 492 L431 493 L419 497 L416 497 L394 507 L375 521 L364 533 L362 538 L389 520 L401 514 L418 508 L430 505 L435 505 L436 504 L459 504 L460 505 L471 506 L488 511 L505 520 L518 533 Z M834 488 L839 490 L842 493 L845 506 L845 515 L846 516 L846 579 L847 580 L847 588 L846 589 L834 589 L833 590 L823 591 L821 583 L820 551 L819 550 L819 523 L818 522 L819 520 L819 507 L823 495 L828 490 Z M1257 487 L1258 486 L1259 487 L1258 488 Z M1283 484 L1290 485 L1293 488 L1296 497 L1295 520 L1294 521 L1294 537 L1293 538 L1293 556 L1292 557 L1292 585 L1291 586 L1292 588 L1286 590 L1284 588 L1285 587 L1284 586 L1283 546 L1282 545 L1283 544 L1282 543 L1282 485 Z M950 485 L951 484 L952 485 L951 486 Z M949 484 L950 483 L951 484 L950 485 Z M1255 482 L1256 481 L1257 483 L1256 484 Z M1265 479 L1266 480 L1265 483 L1264 482 Z M943 480 L944 479 L945 480 L944 481 Z M942 479 L943 478 L944 479 L943 480 Z M918 478 L919 477 L936 495 L950 504 L952 504 L952 503 L940 486 L937 480 L938 478 L955 496 L955 493 L951 487 L952 485 L962 495 L974 504 L989 511 L1012 519 L1030 528 L1043 536 L1056 546 L1067 557 L1077 573 L1076 574 L1054 556 L1029 543 L1006 536 L994 535 L993 534 L985 534 L984 533 L979 533 L971 531 L953 523 L943 515 L932 503 L923 489 Z M1265 483 L1265 486 L1260 499 L1256 505 L1245 516 L1232 523 L1197 532 L1176 542 L1159 554 L1138 574 L1137 573 L1143 561 L1153 547 L1176 524 L1187 517 L1198 512 L1217 506 L1220 506 L1225 503 L1227 503 L1233 499 L1242 490 L1251 476 L1252 480 L1247 491 L1247 494 L1249 493 L1254 483 L1256 486 L1253 495 L1255 496 L1261 488 L1264 482 Z M941 477 L942 476 L943 478 L942 479 Z M936 477 L937 476 L938 478 L937 479 Z M917 477 L918 476 L919 477 L918 478 Z M940 476 L941 475 L942 476 L941 477 Z M935 476 L936 475 L937 476 L936 477 Z M1251 475 L1252 474 L1253 476 L1252 477 Z M866 464 L870 465 L869 494 L868 495 L868 548 L869 549 L870 582 L871 583 L872 612 L873 613 L874 627 L873 628 L872 627 L863 627 L858 629 L855 632 L857 633 L862 630 L870 629 L874 632 L875 635 L875 645 L876 646 L879 679 L877 685 L871 690 L861 690 L857 688 L854 685 L852 680 L852 652 L851 651 L850 598 L849 597 L849 523 L848 522 L848 511 L847 510 L845 486 L844 485 L844 475 L843 474 L845 469 L852 469 L854 474 L854 483 L855 484 L856 469 Z M849 466 L853 464 L857 464 L858 465 L855 467 L850 467 Z M827 465 L828 464 L829 465 L828 466 Z M828 469 L835 461 L837 465 L841 469 L839 471 L830 471 Z M136 461 L139 462 L138 536 L137 537 L136 536 L136 528 L135 527 L135 516 L134 515 L133 497 L132 496 L132 483 L131 482 L131 470 L133 464 Z M583 460 L587 460 L588 461 L588 464 L585 470 L585 474 L589 464 L592 461 L596 461 L601 466 L605 478 L604 526 L603 527 L603 535 L602 536 L602 543 L600 551 L600 558 L598 565 L598 571 L597 572 L597 578 L596 579 L594 599 L592 607 L573 591 L573 586 L574 585 L574 487 L575 486 L576 473 L580 463 Z M834 457 L835 458 L834 461 L833 460 Z M864 461 L866 454 L872 457 L872 459 L868 462 Z M862 457 L862 460 L860 462 L851 462 L844 467 L842 467 L839 463 L839 460 L842 457 L850 453 L858 454 Z M860 453 L861 452 L862 453 L861 454 Z M1270 447 L1268 453 L1265 473 L1259 486 L1258 483 L1261 472 L1262 457 L1260 458 L1258 468 L1257 469 L1256 468 L1256 463 L1255 462 L1253 468 L1244 483 L1231 497 L1222 502 L1210 506 L1207 506 L1191 512 L1180 518 L1167 528 L1158 537 L1143 556 L1134 572 L1130 582 L1130 585 L1133 585 L1153 564 L1167 552 L1179 544 L1195 536 L1233 526 L1247 518 L1259 505 L1263 498 L1267 487 L1268 479 L1269 478 L1269 470 L1270 469 L1270 458 L1271 457 L1271 449 Z M830 435 L831 436 L832 450 L833 451 L832 452 L832 460 L829 464 L828 463 L828 459 L829 458 L829 436 Z M864 421 L872 426 L873 438 L874 439 L874 454 L873 455 L867 451 L867 439 L863 425 Z M854 417 L860 421 L862 427 L863 435 L864 436 L864 442 L865 443 L865 450 L864 451 L858 448 L857 433 L856 432 L855 423 L853 419 Z M131 417 L132 416 L133 418 L132 419 Z M845 409 L849 413 L853 425 L856 448 L841 455 L838 458 L836 456 L834 441 L830 424 L830 419 L835 413 L837 416 L839 424 L841 446 L843 448 L842 426 L838 411 L841 409 Z M855 406 L857 406 L863 410 L863 417 L862 418 L856 415 L853 415 L851 413 L851 411 Z M152 399 L154 402 L154 406 L155 407 L155 425 L154 426 L153 437 L146 464 L146 468 L143 479 L143 485 L142 486 L141 485 L142 418 L146 407 Z M529 388 L539 392 L561 406 L575 417 L585 427 L585 453 L586 456 L584 458 L582 458 L577 463 L575 467 L573 475 L573 480 L572 481 L572 488 L571 489 L571 517 L572 518 L571 519 L572 523 L572 565 L571 566 L569 565 L567 545 L560 515 L547 478 L540 463 L540 461 L534 450 L527 430 L527 426 L525 420 L525 413 L524 412 L524 403 L525 402 L526 393 Z M851 386 L853 388 L852 390 L853 404 L851 406 L847 400 L846 393 L849 388 L848 388 L845 392 L845 400 L849 406 L848 407 L840 407 L834 410 L830 414 L827 421 L824 414 L824 411 L825 410 L826 402 L830 395 L834 391 L842 386 Z M1171 375 L1172 376 L1186 377 L1187 378 L1199 379 L1200 380 L1219 383 L1242 390 L1259 398 L1265 402 L1273 410 L1277 419 L1278 433 L1279 434 L1280 506 L1279 507 L1278 506 L1278 502 L1273 489 L1273 493 L1274 494 L1274 512 L1273 513 L1273 520 L1272 521 L1272 527 L1269 537 L1269 541 L1262 559 L1255 567 L1244 573 L1226 575 L1209 580 L1193 588 L1180 597 L1167 610 L1157 626 L1137 598 L1132 593 L1125 583 L1111 568 L1107 566 L1085 584 L1077 567 L1071 558 L1055 542 L1043 533 L1028 524 L1012 516 L986 507 L976 502 L963 492 L941 471 L940 471 L941 474 L940 476 L934 470 L930 464 L928 464 L929 470 L936 484 L943 494 L942 495 L939 494 L922 477 L910 459 L908 459 L910 467 L920 489 L932 508 L943 520 L951 526 L969 534 L982 536 L983 537 L991 537 L992 538 L1003 539 L1029 547 L1045 555 L1060 565 L1082 587 L1048 617 L1045 612 L1036 603 L1023 594 L1005 586 L1002 586 L990 582 L979 581 L978 580 L968 579 L956 576 L943 571 L933 563 L930 553 L926 546 L926 544 L923 539 L923 537 L920 532 L920 530 L917 525 L915 518 L904 493 L903 493 L874 538 L878 555 L895 605 L906 593 L916 579 L924 570 L939 594 L949 607 L962 620 L979 634 L987 637 L1001 638 L1002 639 L1010 639 L1014 635 L1015 638 L1019 638 L1027 641 L1040 642 L1050 645 L1049 646 L1042 646 L1041 647 L1030 647 L1025 645 L1021 649 L1018 649 L1017 648 L997 647 L975 640 L960 630 L941 611 L931 597 L934 604 L944 617 L961 633 L973 641 L988 647 L1001 649 L1002 650 L1028 651 L1032 653 L1048 665 L1084 702 L1092 708 L1108 717 L1124 707 L1132 699 L1142 683 L1145 676 L1153 666 L1155 666 L1175 652 L1180 650 L1199 648 L1214 644 L1229 636 L1237 630 L1253 613 L1261 601 L1265 591 L1260 602 L1246 620 L1236 629 L1224 637 L1208 644 L1200 646 L1194 646 L1193 647 L1182 648 L1181 647 L1166 646 L1165 645 L1180 641 L1209 638 L1219 634 L1228 628 L1244 613 L1253 601 L1260 588 L1267 570 L1268 569 L1269 571 L1272 566 L1272 564 L1270 563 L1271 556 L1273 554 L1274 555 L1274 559 L1276 564 L1275 566 L1274 565 L1275 567 L1275 575 L1282 591 L1283 604 L1284 605 L1284 634 L1285 635 L1284 723 L1283 724 L1283 737 L1282 738 L1280 768 L1279 769 L1278 784 L1277 785 L1273 817 L1271 822 L1270 830 L1269 831 L1267 830 L1261 837 L1258 838 L1253 838 L1252 837 L1262 826 L1269 811 L1268 810 L1259 819 L1255 821 L1252 820 L1261 809 L1269 795 L1267 795 L1257 804 L1244 810 L1231 811 L1230 810 L1221 809 L1210 805 L1180 789 L1172 781 L1159 764 L1159 762 L1164 752 L1165 738 L1160 718 L1156 711 L1151 698 L1149 685 L1148 685 L1148 693 L1149 694 L1150 702 L1156 715 L1161 731 L1162 750 L1158 760 L1152 766 L1146 769 L1137 770 L1117 780 L1105 781 L1104 780 L1095 779 L1087 774 L1077 770 L1068 769 L1060 771 L1050 766 L1046 762 L1041 754 L1039 749 L1038 740 L1039 739 L1039 731 L1042 720 L1052 700 L1053 691 L1054 690 L1053 684 L1052 685 L1052 692 L1050 700 L1040 718 L1036 732 L1036 745 L1039 754 L1043 760 L1036 764 L1014 786 L1004 794 L993 800 L976 805 L972 805 L962 808 L955 808 L954 809 L940 809 L939 808 L933 808 L919 802 L909 795 L903 789 L901 789 L902 793 L911 807 L930 829 L925 831 L919 830 L910 825 L902 818 L902 820 L906 827 L916 837 L923 841 L925 843 L924 844 L918 844 L912 842 L903 836 L897 830 L890 820 L885 809 L883 810 L893 838 L901 852 L917 868 L927 873 L932 873 L933 874 L944 873 L960 866 L971 858 L989 840 L991 841 L991 851 L993 855 L1000 862 L1010 868 L1030 876 L1051 882 L1067 884 L1068 885 L1075 885 L1076 886 L1086 886 L1087 887 L1122 886 L1123 885 L1135 884 L1158 877 L1171 869 L1179 861 L1185 851 L1190 837 L1197 846 L1209 858 L1216 863 L1233 870 L1243 870 L1249 867 L1257 858 L1263 845 L1264 846 L1263 851 L1253 871 L1238 896 L1221 920 L1205 939 L1189 954 L1168 969 L1156 975 L1139 981 L1122 985 L1106 986 L1105 987 L1076 987 L1075 986 L1056 985 L1055 984 L1049 984 L1048 983 L1033 981 L1002 972 L976 960 L953 945 L933 927 L918 909 L900 881 L883 845 L872 814 L865 786 L861 762 L863 759 L863 752 L865 746 L864 742 L865 715 L864 714 L864 696 L863 693 L864 692 L865 693 L869 693 L876 690 L878 688 L881 681 L881 669 L880 668 L878 641 L877 640 L877 629 L876 628 L876 620 L875 619 L873 577 L872 576 L872 558 L871 557 L871 487 L872 486 L873 462 L876 455 L876 436 L875 435 L874 426 L882 420 L919 403 L961 390 L982 386 L983 385 L987 385 L988 384 L992 384 L993 383 L997 383 L998 382 L1002 382 L1003 381 L1035 377 L1036 376 L1044 376 L1045 375 L1067 374 L1068 373 L1084 373 L1085 372 L1130 372 L1131 373 L1147 373 L1148 374 Z M1286 393 L1286 402 L1285 403 L1284 413 L1280 420 L1278 417 L1277 412 L1273 406 L1264 398 L1248 390 L1216 380 L1212 380 L1196 376 L1191 376 L1190 375 L1184 375 L1183 374 L1167 373 L1166 372 L1155 372 L1154 371 L1141 371 L1140 370 L1115 370 L1114 369 L1075 370 L1074 371 L1061 371 L1060 372 L1050 372 L1049 373 L1024 375 L1023 376 L1006 378 L995 381 L990 381 L985 383 L981 383 L976 385 L972 385 L948 391 L931 397 L928 397 L925 399 L917 401 L912 404 L905 406 L878 419 L872 423 L866 418 L866 413 L865 412 L865 409 L867 407 L894 393 L896 393 L905 388 L907 388 L922 381 L950 372 L962 370 L966 368 L979 366 L984 364 L1005 361 L1006 360 L1012 360 L1013 359 L1019 359 L1027 357 L1035 357 L1036 356 L1043 356 L1044 355 L1069 354 L1070 353 L1088 353 L1089 352 L1116 352 L1117 353 L1139 353 L1140 354 L1163 355 L1164 356 L1180 357 L1181 358 L1193 359 L1199 361 L1219 364 L1243 370 L1269 379 L1281 385 Z M227 356 L249 352 L250 351 L262 350 L263 349 L279 348 L280 347 L291 347 L292 346 L307 346 L308 345 L366 345 L367 346 L395 347 L396 348 L404 348 L405 349 L429 352 L461 360 L493 371 L498 374 L517 381 L527 387 L524 392 L522 399 L523 423 L529 444 L540 467 L548 487 L551 498 L553 501 L553 504 L555 507 L564 543 L566 563 L567 564 L567 572 L568 573 L568 583 L569 584 L569 594 L570 595 L570 637 L569 638 L566 678 L565 679 L564 695 L563 696 L562 712 L561 713 L561 722 L560 723 L560 730 L562 736 L562 744 L553 781 L540 820 L529 843 L518 861 L496 889 L471 912 L448 928 L423 940 L420 940 L406 945 L390 947 L389 948 L379 948 L378 949 L337 948 L336 947 L319 945 L298 939 L288 935 L270 925 L253 909 L248 902 L237 881 L215 858 L202 841 L192 822 L186 804 L174 776 L164 740 L164 736 L158 710 L156 692 L155 691 L152 663 L151 662 L150 646 L149 645 L149 637 L148 636 L148 625 L147 624 L144 578 L143 577 L143 565 L142 564 L142 554 L141 553 L141 518 L142 517 L142 505 L143 504 L144 489 L145 488 L145 482 L150 462 L150 458 L155 441 L156 431 L157 430 L157 423 L158 422 L158 410 L157 409 L156 400 L154 396 L169 384 L194 369 L214 360 L217 360 Z M1290 375 L1290 384 L1289 388 L1287 389 L1281 382 L1285 376 L1286 373 L1285 372 L1282 378 L1278 381 L1263 374 L1245 368 L1242 368 L1226 363 L1222 363 L1217 361 L1213 361 L1197 357 L1192 357 L1191 356 L1170 354 L1169 353 L1161 353 L1160 352 L1132 351 L1131 350 L1075 350 L1074 351 L1048 352 L1047 353 L1039 353 L1038 354 L1031 354 L1030 355 L1002 358 L1001 359 L991 360 L990 361 L986 361 L985 362 L981 362 L967 366 L959 367 L918 380 L897 390 L895 390 L882 397 L880 397 L865 406 L861 406 L857 404 L854 399 L854 391 L856 387 L863 380 L877 371 L891 364 L914 356 L917 354 L939 347 L946 346 L950 344 L961 342 L965 340 L979 338 L984 336 L989 336 L1006 332 L1033 329 L1034 328 L1066 326 L1067 325 L1086 325 L1087 324 L1143 325 L1144 326 L1155 326 L1156 327 L1184 329 L1185 330 L1191 330 L1192 331 L1197 331 L1198 332 L1203 332 L1213 335 L1222 336 L1253 345 L1273 354 L1279 358 L1286 365 Z M834 324 L840 332 L842 337 L842 334 L839 328 Z M844 319 L850 324 L852 332 L854 333 L854 329 L856 327 L861 328 L864 332 L866 340 L865 366 L864 367 L863 377 L854 385 L850 383 L847 383 L846 384 L841 384 L835 388 L833 386 L830 362 L829 361 L828 330 L833 321 L837 319 Z M128 406 L129 405 L129 398 L134 386 L156 363 L175 349 L198 337 L228 327 L232 327 L256 321 L277 319 L278 318 L286 318 L287 317 L299 317 L300 316 L352 315 L353 316 L390 317 L391 318 L408 319 L409 320 L438 324 L454 328 L458 330 L461 330 L468 333 L471 333 L477 336 L483 337 L486 339 L499 343 L537 361 L572 384 L591 403 L595 411 L595 417 L593 421 L589 425 L586 425 L573 412 L544 392 L492 368 L476 363 L473 361 L470 361 L449 354 L428 350 L427 349 L423 349 L422 348 L402 346 L401 345 L393 345 L392 344 L363 343 L362 342 L314 342 L313 343 L284 344 L283 345 L273 345 L272 346 L251 348 L221 355 L200 363 L181 374 L152 395 L145 404 L141 412 L139 426 L138 427 L134 422 L135 421 L134 411 L135 410 L136 402 L139 396 L146 387 L161 372 L181 358 L207 346 L236 338 L256 335 L257 334 L264 334 L265 333 L280 332 L281 331 L305 330 L306 329 L325 329 L326 328 L375 328 L376 329 L391 329 L392 330 L409 331 L410 332 L416 332 L422 334 L437 336 L457 341 L464 344 L467 344 L493 353 L522 366 L520 364 L495 352 L471 344 L468 342 L465 342 L451 337 L435 333 L414 330 L413 329 L407 329 L406 328 L386 327 L385 326 L366 326 L365 325 L311 326 L310 327 L297 327 L296 328 L268 330 L267 331 L254 332 L253 333 L233 336 L208 343 L185 353 L173 360 L161 369 L137 394 L133 402 L132 416 L131 417 L129 414 Z M142 334 L143 333 L143 327 L144 326 L146 312 L151 296 L161 274 L172 257 L193 234 L209 221 L225 211 L245 201 L270 192 L300 185 L311 184 L312 183 L329 182 L330 181 L343 181 L344 180 L373 180 L374 181 L389 181 L390 182 L407 183 L408 184 L437 189 L441 191 L451 193 L478 203 L498 213 L524 231 L549 256 L564 278 L570 290 L578 312 L582 329 L584 351 L585 352 L586 392 L585 393 L571 380 L544 362 L508 344 L488 337 L485 335 L473 331 L470 331 L460 327 L430 320 L405 317 L404 316 L384 315 L383 314 L368 314 L367 313 L350 313 L349 312 L347 313 L344 312 L328 312 L327 313 L308 313 L307 314 L283 315 L282 316 L266 317 L265 318 L259 318 L258 319 L238 322 L209 330 L206 332 L196 335 L180 343 L159 357 L143 371 L142 373 L140 367 Z M395 178 L397 176 L404 173 L412 173 L420 177 L425 183 L423 184 L411 181 L398 180 Z M412 170 L400 171 L395 174 L391 179 L387 178 L373 178 L372 177 L348 177 L347 178 L320 179 L319 180 L306 181 L305 182 L300 182 L285 186 L281 186 L255 194 L228 206 L210 217 L186 237 L172 253 L157 276 L149 294 L144 309 L141 326 L140 327 L139 343 L138 344 L138 377 L132 384 L126 398 L126 413 L132 425 L139 432 L139 458 L135 459 L130 464 L128 472 L128 478 L129 479 L129 492 L130 493 L130 502 L131 503 L131 513 L132 514 L134 540 L135 541 L135 547 L136 548 L138 567 L140 573 L141 587 L142 588 L141 589 L137 589 L135 587 L132 551 L130 552 L130 556 L114 571 L99 579 L96 582 L96 586 L95 587 L96 592 L102 598 L101 606 L108 613 L115 615 L122 615 L123 616 L143 616 L144 617 L144 622 L145 623 L145 645 L146 646 L146 717 L145 718 L146 737 L149 743 L155 747 L163 746 L164 747 L168 765 L173 780 L186 811 L187 816 L191 826 L195 832 L195 834 L203 847 L216 863 L235 883 L248 907 L262 922 L277 932 L294 940 L316 947 L332 949 L333 950 L340 950 L341 951 L356 951 L357 952 L385 951 L386 950 L393 950 L394 949 L408 947 L424 942 L436 936 L438 936 L456 926 L469 917 L491 898 L508 879 L519 864 L529 848 L540 826 L554 786 L554 783 L560 764 L564 743 L565 742 L568 744 L574 745 L579 743 L583 739 L587 728 L587 716 L635 662 L642 663 L645 658 L645 654 L642 649 L645 643 L645 638 L616 623 L599 612 L595 608 L597 589 L598 588 L602 556 L603 555 L603 549 L604 548 L604 542 L605 541 L605 534 L606 533 L607 511 L608 510 L608 481 L605 468 L601 462 L595 458 L592 458 L588 456 L588 430 L587 429 L591 427 L595 423 L597 419 L598 412 L595 404 L589 397 L589 370 L588 369 L588 354 L587 353 L586 336 L585 335 L585 330 L584 329 L581 312 L572 288 L567 278 L554 258 L541 243 L518 223 L500 211 L478 200 L444 188 L429 185 L422 175 Z M1281 354 L1280 356 L1265 347 L1243 339 L1240 339 L1233 336 L1221 333 L1217 333 L1201 329 L1196 329 L1195 328 L1174 326 L1173 325 L1164 325 L1163 324 L1137 323 L1136 322 L1072 322 L1071 323 L1046 324 L1045 325 L1037 325 L1036 326 L1008 329 L1007 330 L1002 330 L1001 331 L996 331 L995 332 L971 336 L943 343 L899 358 L879 367 L867 375 L866 372 L867 371 L867 362 L868 361 L868 337 L865 329 L861 325 L858 324 L856 325 L855 322 L861 298 L864 291 L864 288 L873 261 L883 239 L883 237 L894 215 L906 196 L914 186 L928 172 L952 154 L980 136 L985 134 L1032 106 L1045 100 L1047 98 L1067 88 L1082 83 L1096 83 L1110 89 L1180 143 L1206 166 L1221 181 L1237 200 L1244 211 L1253 229 L1266 265 L1271 285 L1275 310 L1276 311 L1278 332 L1279 333 L1279 342 L1280 343 L1280 353 Z M1084 80 L1083 81 L1075 82 L1065 86 L1007 117 L961 145 L925 171 L913 183 L905 193 L895 208 L881 235 L862 285 L853 321 L852 322 L846 317 L838 316 L833 318 L828 323 L825 333 L825 351 L826 352 L826 358 L827 359 L830 383 L832 389 L826 397 L822 406 L822 416 L825 423 L829 428 L826 437 L826 462 L825 463 L825 470 L828 473 L832 474 L840 473 L841 474 L842 488 L841 489 L837 486 L830 486 L826 488 L821 493 L818 500 L817 508 L816 509 L816 543 L817 544 L819 592 L812 598 L810 602 L810 611 L808 615 L808 621 L810 625 L815 630 L822 632 L822 638 L823 639 L823 664 L824 665 L824 689 L825 690 L825 715 L826 716 L826 733 L827 734 L828 745 L832 752 L839 757 L850 758 L855 755 L858 757 L858 764 L859 765 L862 785 L867 805 L869 809 L869 812 L871 816 L871 819 L874 825 L879 842 L896 879 L906 896 L921 917 L944 941 L954 949 L976 963 L995 972 L1018 980 L1039 984 L1040 985 L1058 987 L1059 988 L1068 988 L1069 989 L1095 990 L1096 989 L1112 989 L1113 988 L1119 988 L1120 987 L1125 987 L1138 984 L1158 977 L1179 965 L1193 954 L1213 934 L1231 911 L1251 879 L1264 854 L1271 835 L1274 823 L1277 801 L1278 800 L1278 794 L1280 787 L1283 754 L1284 753 L1284 745 L1285 744 L1289 744 L1294 741 L1298 732 L1296 694 L1295 693 L1295 679 L1294 678 L1294 660 L1293 659 L1293 629 L1295 627 L1299 626 L1306 619 L1308 612 L1304 604 L1305 602 L1303 594 L1299 590 L1296 590 L1294 588 L1296 530 L1297 529 L1297 515 L1298 514 L1298 493 L1295 487 L1291 483 L1282 480 L1282 444 L1281 443 L1281 427 L1280 424 L1285 417 L1287 411 L1288 396 L1292 386 L1292 379 L1293 378 L1292 377 L1291 369 L1283 358 L1282 337 L1281 336 L1281 329 L1280 328 L1280 322 L1279 321 L1276 297 L1274 292 L1274 288 L1268 264 L1257 232 L1244 206 L1232 189 L1198 155 L1167 129 L1110 86 L1105 83 L1095 80 Z" fill="#eef3f4" fill-rule="evenodd"/>
</svg>
