<svg xmlns="http://www.w3.org/2000/svg" width="1254" height="1254" viewBox="0 0 1254 1254">
  <title>0215</title>
  <path d="M723 1106 L722 1108 L722 1115 L718 1126 L714 1132 L704 1142 L693 1150 L674 1160 L667 1165 L664 1166 L644 1166 L643 1167 L588 1167 L587 1166 L581 1166 L570 1163 L550 1152 L532 1135 L526 1126 L520 1111 L520 1108 L524 1107 L528 1109 L544 1113 L562 1115 L563 1116 L587 1118 L607 1126 L616 1127 L617 1128 L624 1128 L625 1127 L633 1126 L645 1118 L654 1115 L689 1112 L690 1111 L695 1111 L700 1109 L714 1107 L719 1105 Z M738 1107 L731 1127 L723 1141 L709 1157 L693 1169 L686 1173 L684 1173 L682 1175 L662 1182 L658 1182 L647 1185 L641 1185 L640 1186 L612 1187 L611 1186 L592 1185 L591 1184 L574 1181 L552 1172 L539 1163 L523 1147 L515 1136 L505 1115 L502 1103 L503 1102 L515 1105 L517 1107 L517 1112 L525 1131 L530 1138 L546 1153 L555 1159 L571 1167 L579 1169 L584 1169 L585 1170 L596 1170 L597 1171 L607 1171 L608 1170 L625 1170 L626 1171 L628 1170 L654 1170 L655 1169 L665 1169 L668 1168 L703 1147 L715 1136 L722 1126 L725 1117 L725 1104 L726 1103 L737 1101 L738 1102 Z M737 1101 L738 1100 L739 1101 L738 1102 Z M759 1102 L753 1096 L744 1095 L725 1101 L704 1105 L703 1106 L699 1106 L698 1107 L694 1107 L693 1108 L652 1112 L642 1116 L632 1123 L628 1124 L613 1124 L588 1115 L551 1111 L497 1097 L489 1096 L488 1097 L482 1097 L478 1099 L479 1102 L483 1100 L496 1100 L499 1102 L500 1109 L506 1126 L513 1139 L521 1150 L540 1168 L559 1179 L573 1184 L590 1188 L607 1189 L608 1190 L632 1190 L633 1189 L642 1189 L643 1188 L659 1186 L683 1178 L696 1171 L707 1163 L722 1148 L729 1138 L737 1121 L741 1108 L742 1100 L743 1099 L752 1099 L757 1103 Z M710 979 L709 978 L708 969 L704 959 L695 950 L684 947 L683 948 L677 948 L666 953 L664 955 L664 957 L679 951 L689 951 L695 954 L700 959 L705 970 L706 980 L707 981 L707 994 L706 995 L705 1005 L702 1011 L697 1015 L683 1016 L672 1020 L648 1032 L631 1036 L613 1036 L612 1035 L607 1035 L599 1033 L584 1026 L582 1026 L567 1018 L547 1013 L540 1009 L536 1005 L532 998 L530 992 L530 985 L529 984 L530 971 L533 964 L539 957 L549 953 L556 953 L562 955 L572 962 L573 959 L564 952 L558 950 L547 950 L541 952 L535 956 L530 962 L526 973 L526 989 L529 999 L533 1006 L540 1013 L544 1015 L566 1021 L584 1030 L602 1037 L613 1038 L614 1039 L630 1039 L651 1034 L673 1023 L684 1019 L696 1018 L703 1015 L707 1009 L709 1002 Z M693 941 L692 944 L697 944 L704 946 L711 950 L718 957 L726 972 L730 987 L732 987 L732 982 L730 974 L722 957 L709 945 L702 942 Z M545 942 L533 941 L526 943 L517 948 L508 957 L503 966 L499 981 L499 987 L500 988 L502 985 L503 976 L509 961 L518 951 L527 946 L534 944 L542 944 L544 945 Z M547 837 L548 836 L549 837 L548 838 Z M380 825 L381 824 L382 825 L381 826 Z M417 816 L418 815 L419 816 L418 817 Z M419 815 L420 814 L421 815 L420 816 Z M421 814 L422 813 L424 814 L423 815 Z M423 813 L424 812 L426 813 L425 814 Z M642 812 L640 819 L640 825 L638 833 L638 846 L637 847 L637 917 L638 918 L638 935 L639 936 L639 946 L640 947 L642 974 L643 976 L645 976 L645 968 L644 967 L644 959 L643 958 L643 947 L642 946 L642 933 L641 932 L641 913 L640 912 L640 848 L641 847 L642 826 L644 818 L644 812 Z M425 812 L426 811 L428 812 L427 813 Z M515 811 L518 810 L528 815 L535 820 L542 827 L548 836 L547 837 L533 823 Z M427 811 L428 810 L430 811 L429 812 Z M512 810 L513 809 L516 810 L515 811 Z M452 817 L456 812 L463 810 L480 809 L481 810 L494 811 L506 816 L509 819 L511 823 L511 830 L508 837 L499 845 L490 846 L489 845 L472 844 L464 841 L457 834 L452 823 Z M429 810 L430 809 L432 810 L431 811 Z M432 809 L433 808 L434 809 L433 810 Z M434 808 L435 807 L436 808 L435 809 Z M722 806 L723 805 L724 806 L723 807 Z M451 813 L449 817 L449 825 L453 834 L460 842 L469 846 L480 847 L481 848 L499 848 L509 841 L514 832 L514 821 L512 818 L505 812 L494 808 L481 807 L480 806 L471 806 L470 807 L463 807 L456 809 Z M723 805 L724 804 L726 805 L725 806 Z M725 804 L726 803 L727 804 L726 805 Z M839 803 L840 802 L843 803 L842 804 Z M726 803 L727 802 L729 803 L728 804 Z M835 802 L836 801 L839 802 L838 803 Z M728 802 L729 801 L731 802 L730 803 Z M382 826 L383 825 L393 825 L394 824 L406 823 L414 820 L417 820 L427 816 L443 807 L458 802 L462 802 L463 801 L490 802 L512 808 L513 809 L512 810 L513 813 L531 825 L548 842 L555 854 L555 858 L554 859 L543 859 L542 858 L527 858 L526 857 L513 857 L512 856 L501 856 L500 855 L467 854 L466 853 L457 853 L456 852 L448 852 L447 851 L436 850 L411 843 L393 834 Z M832 801 L833 800 L835 801 L834 802 Z M730 801 L731 800 L734 801 L733 802 Z M829 800 L830 799 L832 800 L831 801 Z M733 800 L734 799 L736 800 L735 801 Z M826 799 L827 798 L829 799 L828 800 Z M735 799 L736 798 L738 799 L737 800 Z M823 798 L824 797 L826 798 L825 799 Z M738 798 L739 797 L741 798 L740 799 Z M373 821 L373 823 L376 826 L391 836 L411 846 L436 853 L456 855 L457 856 L467 856 L468 857 L498 858 L499 859 L512 859 L513 860 L539 861 L540 862 L555 862 L557 861 L559 857 L555 847 L554 841 L550 833 L545 826 L536 817 L530 813 L513 805 L496 800 L482 799 L481 798 L459 798 L458 799 L453 799 L435 804 L408 817 L396 821 L391 821 L390 822 Z M820 797 L821 796 L823 797 L822 798 Z M818 796 L819 795 L821 796 L820 797 Z M790 801 L791 811 L787 821 L780 828 L766 832 L754 833 L753 834 L741 833 L737 830 L726 814 L726 809 L728 807 L744 800 L759 796 L781 795 L785 796 Z M750 795 L743 798 L740 797 L746 794 Z M862 809 L856 815 L847 821 L833 828 L820 832 L816 832 L811 834 L791 837 L785 839 L767 841 L766 842 L709 848 L708 849 L697 850 L688 853 L685 853 L682 850 L684 844 L692 832 L709 816 L722 808 L723 809 L723 814 L726 820 L733 830 L737 834 L741 836 L751 837 L752 836 L765 835 L781 831 L785 828 L790 822 L794 812 L794 804 L790 796 L782 792 L765 792 L753 795 L749 794 L757 791 L767 790 L768 789 L789 789 L806 794 L832 805 L845 808 L861 808 Z M591 789 L590 793 L595 806 L597 814 L597 819 L598 820 L598 825 L599 826 L599 834 L600 835 L600 843 L601 844 L601 860 L602 861 L602 928 L601 929 L601 947 L600 948 L601 949 L600 950 L600 960 L599 961 L599 973 L598 974 L597 989 L595 996 L595 1003 L597 1003 L599 989 L600 988 L600 982 L601 981 L601 973 L602 972 L602 964 L603 963 L603 952 L604 951 L604 935 L605 934 L605 860 L604 859 L604 844 L603 843 L603 834 L602 833 L601 820 L594 793 Z M867 805 L865 804 L864 805 L847 805 L843 803 L844 802 L843 800 L814 790 L810 790 L794 786 L768 786 L767 787 L757 788 L737 794 L724 800 L715 806 L690 829 L683 839 L679 848 L679 851 L683 856 L687 856 L688 855 L698 854 L704 852 L710 852 L711 851 L728 850 L729 849 L745 848 L746 847 L753 847 L760 845 L773 844 L774 843 L791 841 L792 840 L811 837 L816 835 L820 835 L838 829 L851 822 L865 811 L867 808 Z M555 737 L556 736 L557 737 L556 738 Z M695 725 L696 724 L697 725 L696 726 Z M696 724 L697 723 L698 724 L697 725 Z M348 723 L349 722 L350 723 L349 724 Z M355 776 L355 778 L358 777 L369 760 L381 748 L395 738 L409 731 L433 724 L446 723 L447 722 L467 722 L468 723 L482 724 L500 730 L517 739 L530 749 L540 759 L553 777 L557 785 L563 803 L564 814 L565 817 L567 817 L567 807 L561 786 L555 774 L546 761 L529 744 L518 736 L499 726 L478 720 L472 720 L471 719 L444 719 L443 720 L427 722 L406 729 L394 735 L375 749 L363 763 Z M886 709 L887 708 L888 709 L887 710 Z M880 755 L873 746 L859 732 L843 721 L824 713 L816 711 L811 711 L810 710 L789 709 L788 710 L779 710 L754 716 L744 721 L742 721 L722 732 L707 744 L694 758 L684 773 L678 786 L672 808 L671 825 L673 825 L674 822 L675 808 L681 787 L692 766 L700 756 L718 739 L728 732 L750 721 L774 714 L780 714 L781 713 L808 713 L809 714 L823 716 L829 718 L851 730 L860 737 L870 747 L877 757 L880 756 Z M275 699 L281 706 L288 724 L291 737 L292 748 L293 749 L295 774 L296 775 L296 782 L297 783 L298 792 L302 806 L307 817 L307 827 L310 837 L311 855 L312 856 L315 888 L316 889 L316 896 L318 903 L318 910 L319 911 L319 918 L320 919 L324 953 L325 954 L325 959 L327 965 L327 970 L328 971 L328 976 L330 981 L332 995 L338 1017 L338 1020 L329 1029 L314 1034 L303 1033 L294 1030 L288 1026 L280 1017 L275 1007 L272 996 L272 988 L271 987 L272 954 L273 953 L274 939 L275 938 L276 927 L277 926 L280 904 L281 903 L281 895 L282 894 L282 886 L283 885 L283 872 L284 871 L284 823 L283 822 L282 787 L281 786 L281 778 L280 777 L280 772 L279 771 L279 767 L273 741 L272 727 L271 726 L271 713 L272 712 L273 703 Z M958 680 L959 683 L969 694 L969 716 L968 717 L966 739 L965 740 L963 754 L959 767 L957 782 L956 783 L956 791 L955 792 L955 830 L956 831 L957 847 L958 848 L958 853 L961 863 L961 867 L980 938 L982 953 L983 954 L984 970 L983 971 L983 979 L980 992 L970 1010 L963 1017 L953 1023 L945 1025 L936 1025 L935 1024 L925 1023 L918 1020 L910 1013 L909 1008 L913 995 L913 991 L915 986 L915 982 L919 966 L919 961 L921 955 L921 950 L922 949 L922 944 L925 931 L925 925 L927 918 L930 890 L931 889 L933 861 L934 860 L934 850 L935 849 L935 838 L936 837 L936 822 L937 821 L939 785 L942 783 L947 764 L948 752 L949 751 L949 743 L950 742 L951 720 L952 719 L953 711 L958 700 L964 695 L964 693 L961 693 L958 695 L951 707 L948 720 L945 758 L940 778 L939 777 L939 772 L940 771 L940 750 L941 749 L941 730 L942 729 L942 684 Z M292 680 L293 681 L298 681 L302 683 L302 690 L301 691 L301 735 L302 736 L303 772 L304 773 L304 783 L305 784 L305 794 L306 795 L306 803 L305 804 L300 787 L297 754 L296 753 L296 747 L295 746 L295 741 L294 740 L291 723 L284 705 L276 695 L283 687 Z M349 721 L354 714 L369 698 L385 686 L396 681 L415 676 L441 675 L442 676 L450 676 L467 680 L484 686 L503 695 L530 712 L548 727 L556 736 L554 737 L540 727 L531 723 L529 721 L527 721 L516 715 L496 707 L469 699 L464 699 L457 697 L449 697 L448 696 L420 696 L419 697 L412 697 L411 698 L406 698 L405 699 L400 699 L377 706 L365 712 L350 723 Z M339 731 L342 734 L352 725 L368 714 L378 709 L401 702 L406 702 L407 701 L412 701 L413 700 L421 700 L422 699 L446 699 L447 700 L456 700 L457 701 L468 702 L498 711 L532 726 L563 746 L565 744 L565 742 L559 734 L543 718 L526 705 L508 694 L504 693 L500 690 L480 681 L461 675 L457 675 L451 673 L444 673 L443 672 L414 673 L395 678 L382 684 L370 693 L355 708 L347 718 Z M887 708 L885 709 L871 699 L859 693 L842 687 L829 684 L821 684 L820 683 L798 683 L797 684 L789 684 L788 685 L778 686 L759 692 L718 711 L699 724 L697 723 L704 713 L716 701 L739 683 L762 671 L772 667 L800 660 L824 660 L838 664 L848 669 L862 679 L878 695 Z M897 720 L895 718 L895 716 L890 706 L882 695 L862 675 L849 666 L839 661 L824 657 L799 657 L798 658 L793 658 L777 662 L761 668 L741 678 L729 686 L719 694 L698 715 L686 732 L685 736 L687 736 L693 731 L718 715 L750 699 L775 690 L790 688 L791 687 L798 687 L799 686 L826 687 L850 693 L875 706 L888 715 L895 722 L897 722 Z M759 619 L750 624 L753 624 Z M774 613 L770 614 L768 616 Z M780 610 L777 611 L776 613 L780 611 Z M799 600 L798 599 L796 601 Z M809 598 L806 600 L809 599 Z M967 594 L968 593 L969 594 L968 595 Z M953 559 L954 560 L954 574 L953 575 L952 574 L952 560 Z M970 535 L974 542 L975 553 L976 554 L975 574 L974 575 L974 579 L970 587 L964 593 L959 594 L954 587 L953 578 L954 577 L955 580 L957 581 L957 563 L958 562 L958 556 L960 548 L965 538 L968 535 Z M268 531 L272 535 L274 535 L275 533 L276 534 L281 552 L282 576 L281 577 L281 588 L279 590 L276 587 L267 571 L262 554 L263 539 Z M271 530 L273 529 L275 533 L274 534 Z M317 597 L325 572 L338 544 L344 534 L360 513 L377 496 L391 485 L403 477 L417 470 L426 467 L430 467 L431 466 L460 467 L461 468 L466 468 L467 469 L488 473 L512 481 L527 487 L536 492 L538 492 L578 512 L604 527 L631 546 L633 546 L661 527 L691 509 L710 499 L712 499 L738 487 L761 479 L764 479 L776 475 L785 474 L790 472 L802 471 L803 470 L812 470 L813 469 L826 470 L835 473 L859 486 L884 505 L892 513 L903 527 L915 550 L924 580 L927 600 L929 606 L929 611 L931 617 L931 622 L932 623 L932 629 L934 635 L935 649 L936 650 L937 671 L938 672 L938 706 L939 707 L937 765 L936 766 L935 765 L934 745 L933 744 L933 737 L932 736 L932 729 L931 728 L931 721 L930 720 L930 713 L929 712 L928 697 L927 696 L927 689 L926 688 L925 668 L924 667 L923 636 L922 635 L922 628 L921 627 L920 618 L912 603 L900 592 L887 585 L863 579 L854 579 L853 578 L829 579 L828 580 L823 580 L822 581 L817 581 L787 590 L784 592 L774 595 L756 604 L715 630 L684 654 L646 692 L627 716 L621 722 L617 722 L582 686 L558 664 L526 638 L496 617 L476 605 L458 596 L456 596 L449 592 L434 587 L431 585 L428 585 L414 580 L410 580 L389 575 L369 573 L368 574 L363 574 L356 577 L342 587 L332 598 L325 617 L324 627 L323 628 L323 640 L322 641 L322 648 L321 649 L319 675 L318 676 L316 700 L315 701 L315 711 L314 712 L313 733 L312 734 L312 747 L311 748 L311 761 L310 762 L310 772 L309 773 L309 782 L308 783 L307 782 L307 767 L306 766 L306 751 L305 750 L305 675 L306 674 L306 662 L307 661 L307 653 L309 645 L310 631 L311 630 L313 614 L317 601 Z M329 449 L333 451 L337 455 L339 460 L330 468 L327 473 L326 478 L328 478 L330 473 L339 462 L342 466 L326 484 L310 510 L309 509 L309 472 L310 471 L310 467 L313 459 L319 452 L325 449 Z M338 423 L340 422 L341 424 L340 425 Z M910 421 L911 422 L906 432 L898 444 L896 440 L901 428 L907 422 Z M337 422 L338 421 L339 422 L338 423 Z M311 419 L312 418 L313 419 L312 420 Z M917 415 L906 419 L897 429 L894 436 L894 446 L897 450 L900 448 L901 444 L910 430 L917 417 Z M312 418 L318 414 L326 414 L335 418 L338 421 L336 422 L328 418 L316 418 L315 419 Z M926 409 L929 417 L929 424 L928 425 L925 444 L927 444 L928 442 L929 434 L932 425 L934 429 L937 452 L940 463 L940 470 L941 471 L941 478 L942 479 L942 491 L945 491 L944 472 L943 471 L943 464 L942 463 L942 457 L939 445 L938 434 L932 415 L929 412 L928 409 Z M287 617 L288 616 L288 607 L289 606 L292 583 L294 578 L298 557 L306 531 L316 507 L318 505 L322 496 L339 474 L358 457 L376 445 L400 432 L402 432 L413 426 L415 426 L435 417 L458 409 L494 400 L498 400 L514 396 L519 396 L520 395 L541 393 L542 392 L551 392 L552 391 L578 390 L579 389 L603 389 L604 388 L639 388 L640 389 L664 389 L665 390 L677 390 L678 391 L708 393 L709 394 L715 394 L716 395 L722 395 L723 396 L734 397 L740 399 L745 399 L750 401 L754 401 L778 407 L806 416 L809 418 L829 425 L836 429 L838 429 L870 446 L894 463 L910 479 L917 488 L924 499 L934 521 L942 546 L943 554 L948 573 L950 588 L951 589 L952 606 L953 607 L953 635 L952 636 L951 635 L951 631 L945 605 L944 594 L942 588 L942 583 L940 578 L938 566 L927 534 L919 519 L911 508 L899 496 L879 480 L861 468 L832 453 L812 445 L807 444 L804 442 L782 435 L775 434 L752 427 L748 427 L727 422 L722 422 L716 420 L695 418 L694 417 L686 417 L685 416 L663 415 L662 414 L643 414 L642 413 L581 414 L580 415 L557 416 L556 417 L548 417 L547 418 L540 418 L539 419 L520 421 L519 422 L495 426 L490 428 L486 428 L463 435 L460 435 L426 447 L395 462 L378 473 L368 481 L348 501 L331 525 L319 549 L308 579 L293 640 L289 652 L287 647 Z M268 373 L271 367 L275 364 L276 365 L278 378 L281 385 L279 399 L278 400 L277 416 L276 417 L275 449 L276 450 L276 456 L284 482 L287 506 L289 513 L289 521 L290 522 L290 556 L289 557 L289 571 L288 572 L288 582 L287 583 L286 605 L284 613 L284 650 L286 658 L288 661 L290 661 L307 594 L317 563 L319 560 L322 550 L332 530 L340 517 L357 496 L372 482 L385 472 L398 464 L422 452 L442 444 L445 444 L448 442 L460 439 L467 436 L499 428 L519 425 L520 424 L525 424 L526 423 L531 423 L532 422 L538 422 L539 421 L546 421 L547 420 L554 420 L555 419 L565 419 L566 418 L577 418 L578 417 L647 416 L648 417 L664 417 L665 418 L686 419 L687 420 L695 420 L696 421 L716 423 L717 424 L722 424 L723 425 L743 428 L782 438 L809 447 L829 455 L836 459 L838 459 L858 470 L883 487 L893 495 L910 512 L919 525 L927 542 L936 571 L936 575 L941 595 L943 612 L945 617 L945 621 L947 626 L947 630 L948 631 L952 652 L954 652 L955 649 L956 633 L957 632 L957 617 L956 616 L955 596 L956 595 L958 597 L964 597 L967 594 L968 595 L967 613 L968 614 L968 620 L970 625 L970 629 L974 640 L974 659 L972 667 L968 672 L961 676 L946 680 L942 680 L941 679 L941 667 L940 666 L938 639 L937 638 L937 632 L936 631 L934 615 L932 609 L930 592 L922 560 L911 534 L897 514 L881 498 L862 484 L836 470 L826 467 L809 466 L808 467 L801 467 L789 470 L784 470 L771 474 L767 474 L745 481 L720 491 L715 494 L713 494 L695 503 L671 517 L631 543 L623 536 L592 516 L539 489 L537 489 L521 481 L499 473 L496 473 L489 470 L473 466 L468 466 L455 463 L436 462 L435 463 L425 464 L411 469 L397 477 L383 487 L368 500 L356 513 L339 536 L327 559 L315 592 L310 612 L308 627 L307 628 L305 649 L304 650 L302 678 L301 679 L293 678 L290 675 L280 669 L276 664 L275 660 L274 591 L275 590 L279 595 L281 595 L285 584 L285 558 L284 557 L284 549 L281 541 L281 538 L278 531 L276 529 L277 526 L277 513 L269 492 L268 485 L261 462 L262 442 L264 436 L263 396 L264 395 L265 383 Z M963 347 L966 349 L969 355 L976 381 L977 406 L978 407 L978 430 L977 431 L977 452 L976 453 L976 462 L975 463 L974 476 L971 487 L963 501 L961 509 L961 520 L963 525 L963 530 L966 533 L959 542 L954 560 L953 559 L953 525 L954 524 L954 506 L955 505 L955 493 L956 492 L957 472 L958 471 L958 457 L959 456 L959 423 L958 422 L956 403 L952 389 L945 375 L939 368 L958 349 Z M285 347 L288 353 L288 356 L291 364 L291 368 L283 380 L281 376 L279 368 L279 363 L278 362 L280 355 Z M288 346 L289 345 L299 346 L307 353 L294 363 Z M382 344 L391 341 L404 342 L415 348 L424 357 L430 370 L431 379 L432 380 L432 388 L429 401 L426 406 L420 412 L414 415 L413 414 L419 403 L420 394 L421 393 L421 386 L418 374 L415 369 L409 363 L400 358 L390 357 L385 359 L378 365 L375 371 L374 383 L376 390 L379 395 L386 402 L385 403 L380 403 L376 401 L370 395 L365 383 L365 368 L370 355 Z M869 337 L876 339 L881 342 L889 351 L892 357 L894 365 L894 381 L893 382 L893 388 L890 394 L885 398 L879 398 L878 397 L883 392 L886 385 L886 372 L883 365 L878 359 L873 356 L865 356 L861 358 L855 364 L848 378 L847 394 L852 411 L863 425 L862 427 L853 423 L844 414 L840 406 L837 396 L836 376 L837 375 L837 370 L839 362 L845 350 L853 342 L862 338 Z M378 343 L371 349 L366 356 L363 363 L361 376 L362 377 L362 384 L365 393 L370 400 L377 405 L385 406 L392 403 L393 400 L386 398 L381 393 L377 383 L377 376 L379 369 L384 363 L392 360 L402 362 L407 365 L412 370 L415 375 L418 385 L417 399 L415 405 L408 415 L408 417 L409 418 L413 418 L422 415 L429 408 L434 395 L434 375 L431 364 L428 358 L415 344 L404 339 L392 338 L384 340 Z M522 390 L529 375 L536 365 L552 349 L570 337 L587 329 L590 329 L593 327 L596 327 L604 324 L608 324 L614 322 L622 322 L623 321 L642 321 L643 322 L657 323 L681 330 L703 342 L711 348 L729 367 L736 378 L741 388 L743 395 L742 396 L729 393 L723 393 L722 392 L702 390 L701 389 L693 389 L692 388 L668 387 L667 386 L641 386 L640 385 L576 386 L575 387 L561 387 L560 388 L541 389 L540 390 L524 391 L523 392 Z M491 395 L498 374 L505 362 L516 349 L530 337 L539 331 L560 320 L580 313 L597 309 L602 309 L603 308 L635 306 L636 307 L646 307 L647 308 L660 309 L676 313 L697 321 L719 334 L730 343 L742 355 L754 371 L762 387 L766 400 L764 401 L755 398 L747 397 L743 385 L732 366 L717 349 L703 338 L682 327 L677 326 L674 324 L658 320 L646 319 L645 318 L613 319 L612 320 L595 323 L579 329 L556 342 L547 349 L536 360 L525 376 L518 393 L513 393 L492 398 Z M468 255 L469 254 L470 255 L469 256 Z M467 254 L468 253 L469 254 L468 255 Z M762 241 L758 246 L748 251 L745 249 L747 247 L756 244 L761 240 Z M763 237 L764 239 L762 241 L761 239 Z M763 237 L764 236 L765 237 L764 238 Z M848 193 L846 194 L842 203 L841 214 L840 215 L840 225 L841 227 L843 227 L843 212 L844 211 L845 203 L848 197 Z M470 189 L471 188 L472 189 L471 190 Z M472 188 L473 187 L474 188 L473 189 Z M377 161 L380 174 L393 199 L396 212 L395 220 L392 229 L385 240 L386 242 L388 241 L392 235 L392 233 L397 223 L398 205 L397 201 L385 179 L379 161 Z M856 160 L855 159 L854 160 L851 174 L841 191 L833 199 L821 206 L800 206 L773 199 L761 193 L744 179 L742 179 L742 181 L755 191 L754 192 L742 189 L727 189 L712 194 L700 200 L700 201 L703 202 L715 196 L728 192 L743 192 L758 197 L761 197 L778 204 L790 207 L801 208 L802 209 L821 209 L834 202 L844 192 L855 172 Z M556 125 L557 127 L555 130 L554 127 Z M688 122 L689 121 L690 123 L689 124 Z M574 122 L573 122 L570 131 L561 149 L541 181 L538 187 L539 188 L542 187 L544 181 L555 166 L566 145 L568 143 L568 141 L574 130 L574 125 L575 124 Z M687 120 L688 119 L689 121 L688 122 Z M687 116 L688 117 L687 120 L686 119 Z M704 229 L702 230 L683 223 L657 217 L652 217 L651 216 L633 215 L632 214 L612 214 L611 215 L601 215 L600 216 L576 219 L560 223 L553 226 L550 226 L531 234 L530 233 L550 202 L560 182 L571 165 L588 147 L616 121 L620 115 L622 116 L636 135 L672 179 Z M685 115 L686 114 L687 116 L686 117 Z M657 114 L656 117 L661 126 L659 130 L659 133 L672 155 L690 177 L696 186 L699 187 L690 172 L676 155 L665 138 L662 132 L663 124 Z M565 114 L563 114 L557 126 L555 124 L551 129 L548 139 L540 156 L532 169 L523 180 L526 183 L530 180 L555 137 L564 120 Z M552 102 L550 102 L544 116 L542 114 L534 130 L534 132 L527 144 L517 158 L507 168 L507 170 L509 170 L514 166 L525 153 L537 136 L550 111 Z M661 99 L661 104 L663 108 L664 114 L684 152 L692 163 L712 182 L714 182 L715 180 L698 165 L687 151 L668 115 L664 104 L664 101 L663 99 Z M823 92 L814 105 L808 120 L807 128 L806 129 L806 149 L809 148 L808 146 L808 136 L809 135 L810 124 L814 112 L819 102 L825 94 Z M782 91 L779 92 L776 97 L776 100 L780 97 L783 92 Z M845 88 L835 105 L832 116 L830 119 L823 148 L823 158 L825 158 L827 141 L836 110 L843 95 L847 90 Z M676 83 L675 87 L686 111 L685 115 L674 95 L672 95 L680 110 L686 118 L688 124 L691 125 L696 137 L714 160 L728 173 L733 175 L733 173 L712 153 L703 141 L694 124 L689 110 Z M598 83 L599 82 L600 83 L599 84 Z M749 82 L750 81 L759 81 L760 82 L757 85 L753 85 Z M724 82 L734 93 L735 96 L742 100 L742 98 L735 90 L726 82 Z M718 82 L718 84 L723 92 L726 93 L725 89 Z M597 82 L598 81 L599 82 L598 83 Z M760 81 L761 80 L762 81 L761 82 Z M596 80 L597 79 L598 80 L597 81 Z M815 79 L813 79 L801 93 L790 113 L786 127 L786 143 L787 144 L789 143 L789 128 L793 114 L801 98 L806 91 L813 84 Z M595 79 L596 78 L597 79 L596 80 Z M594 78 L595 77 L596 78 L595 79 Z M593 76 L594 75 L595 76 L594 77 Z M592 75 L593 74 L594 75 L593 76 Z M591 74 L592 73 L593 74 L592 75 Z M590 73 L591 72 L592 73 L591 74 Z M453 73 L452 76 L461 93 L466 108 L466 112 L468 118 L468 133 L469 134 L471 131 L471 118 L470 117 L469 108 L463 91 L455 76 L455 74 Z M525 67 L526 69 L507 105 L501 113 L495 112 L488 105 L481 91 L482 78 L486 75 L492 74 L508 79 L509 80 L503 86 L495 91 L495 93 L498 93 L503 90 L512 81 L512 79 Z M525 67 L526 66 L527 67 L526 68 Z M406 65 L405 68 L411 79 L421 105 L421 108 L425 118 L428 130 L432 151 L434 150 L434 145 L424 105 L413 77 L407 65 Z M429 57 L428 60 L435 74 L443 97 L443 101 L449 125 L450 139 L451 141 L453 141 L453 131 L451 125 L451 119 L445 94 L437 72 L430 57 Z M637 50 L635 51 L635 58 L638 57 Z M687 43 L688 42 L689 43 L688 44 Z M686 42 L687 41 L688 42 L687 43 Z M685 41 L686 40 L687 41 L686 42 Z M684 40 L685 39 L686 40 L685 41 Z M778 42 L780 50 L779 53 L780 60 L787 69 L786 70 L774 70 L762 77 L752 78 L747 80 L741 80 L733 75 L754 59 L775 38 Z M683 39 L684 38 L685 39 L684 40 Z M682 38 L683 37 L684 38 L683 39 Z M676 44 L674 43 L668 44 L667 43 L668 42 L668 38 L667 38 L667 42 L661 48 L661 50 L663 50 L670 46 L675 46 Z M674 30 L676 29 L683 37 L681 39 Z M673 29 L674 28 L675 29 L674 30 Z M672 28 L673 27 L674 28 L673 29 Z M671 27 L672 26 L673 27 L672 28 Z M459 25 L461 24 L470 36 L493 59 L509 70 L512 74 L509 76 L493 71 L488 71 L481 74 L475 65 L469 59 L456 50 L457 49 L457 31 Z M766 24 L769 27 L773 36 L747 61 L730 74 L709 59 L718 55 L726 48 L753 19 Z M665 20 L666 19 L667 20 L666 21 Z M622 19 L636 24 L646 32 L649 36 L652 44 L653 59 L647 70 L631 83 L622 102 L620 104 L618 104 L612 98 L598 75 L581 58 L579 54 L579 44 L583 35 L591 27 L601 22 L604 23 L595 32 L595 35 L597 35 L602 28 L608 23 L613 22 L618 24 L625 30 L627 34 L627 41 L629 42 L630 34 L627 28 L618 21 L620 19 Z M617 20 L618 19 L619 20 L618 21 Z M664 19 L665 18 L666 19 L665 20 Z M663 18 L664 17 L665 18 L664 19 Z M578 22 L579 24 L579 35 L577 39 L576 50 L575 51 L566 44 L559 44 L549 48 L546 52 L560 47 L566 48 L571 51 L578 58 L582 66 L596 85 L606 94 L614 105 L620 107 L625 103 L630 91 L653 67 L656 61 L656 45 L659 41 L660 34 L658 35 L658 38 L655 42 L650 31 L644 24 L634 18 L627 16 L616 16 L615 17 L605 18 L598 20 L589 25 L583 31 L582 30 L582 25 L580 21 Z M474 2 L480 14 L486 22 L515 51 L525 59 L525 61 L516 71 L509 67 L489 51 L476 38 L462 20 L463 16 Z M472 0 L461 13 L455 26 L454 30 L454 47 L453 48 L441 44 L436 44 L423 41 L416 41 L415 40 L406 40 L405 39 L385 39 L382 41 L380 45 L380 51 L391 81 L392 89 L393 90 L393 96 L394 97 L393 116 L389 128 L386 143 L373 154 L361 155 L350 162 L342 171 L337 180 L333 191 L333 198 L331 205 L331 219 L332 220 L331 223 L331 237 L336 249 L341 255 L341 264 L344 270 L347 273 L341 280 L339 285 L339 291 L342 296 L340 301 L340 308 L342 312 L342 315 L337 323 L336 332 L330 341 L330 343 L327 348 L318 348 L309 351 L303 345 L297 342 L286 342 L284 343 L277 354 L276 360 L273 361 L268 366 L262 382 L261 392 L260 393 L261 433 L259 439 L258 464 L264 482 L267 496 L274 513 L274 525 L268 527 L263 532 L260 538 L259 542 L259 556 L264 572 L268 580 L272 585 L270 593 L270 606 L272 614 L272 662 L274 667 L280 673 L289 678 L272 695 L268 711 L268 730 L269 731 L271 748 L272 749 L273 758 L276 768 L277 779 L278 780 L279 804 L280 805 L280 831 L281 832 L281 863 L280 864 L279 892 L278 893 L277 908 L276 909 L275 920 L272 931 L270 949 L269 950 L269 959 L268 960 L268 991 L269 992 L269 998 L272 1008 L278 1020 L287 1029 L296 1034 L302 1036 L313 1037 L326 1034 L339 1026 L341 1028 L345 1044 L353 1068 L363 1090 L363 1092 L376 1118 L386 1135 L414 1174 L443 1205 L463 1222 L490 1241 L510 1253 L517 1253 L488 1236 L457 1213 L427 1184 L407 1160 L382 1122 L366 1091 L354 1061 L345 1033 L344 1026 L342 1022 L336 998 L335 989 L330 969 L328 952 L327 951 L327 945 L326 944 L326 938 L325 937 L325 931 L323 923 L323 916 L321 908 L321 901 L320 900 L320 893 L319 892 L316 858 L315 857 L313 835 L312 834 L311 813 L310 812 L311 789 L312 788 L313 766 L314 765 L314 752 L315 751 L315 742 L316 741 L316 725 L317 724 L317 715 L318 714 L318 706 L319 705 L321 677 L322 676 L322 668 L323 667 L323 659 L324 658 L324 650 L325 649 L326 630 L327 629 L327 623 L334 601 L352 583 L362 578 L370 576 L388 578 L389 579 L399 580 L420 585 L455 598 L487 615 L530 645 L551 662 L572 681 L616 725 L621 725 L626 722 L633 712 L655 687 L689 654 L722 629 L764 603 L803 588 L819 584 L831 583 L832 582 L861 582 L862 583 L868 583 L886 588 L894 592 L904 599 L911 607 L916 616 L918 623 L919 637 L920 638 L922 681 L923 682 L923 690 L924 691 L924 698 L925 699 L925 706 L926 707 L929 739 L931 747 L932 767 L933 768 L933 781 L934 782 L934 805 L933 806 L933 827 L932 828 L931 858 L930 859 L930 868 L929 869 L926 901 L925 902 L925 908 L923 916 L923 923 L922 924 L916 965 L910 989 L910 993 L908 998 L908 1002 L902 1026 L900 1030 L899 1037 L897 1041 L897 1044 L893 1054 L893 1057 L877 1099 L865 1124 L863 1126 L852 1147 L828 1182 L811 1203 L790 1226 L770 1245 L759 1253 L765 1253 L777 1243 L802 1218 L816 1202 L831 1183 L856 1146 L875 1111 L875 1109 L880 1100 L882 1093 L889 1078 L899 1049 L907 1017 L908 1016 L914 1021 L922 1025 L935 1028 L945 1028 L956 1025 L964 1020 L976 1007 L982 995 L985 986 L986 975 L987 974 L986 952 L985 951 L983 937 L980 928 L980 924 L976 908 L974 904 L973 897 L971 893 L970 886 L968 882 L964 866 L964 862 L961 851 L960 837 L959 836 L959 825 L958 824 L959 787 L960 786 L960 780 L961 779 L963 764 L968 746 L971 721 L972 720 L972 694 L971 691 L962 681 L971 674 L974 670 L977 661 L977 652 L978 651 L977 638 L973 627 L973 623 L971 617 L970 600 L978 577 L978 572 L979 571 L979 549 L976 537 L973 533 L966 529 L966 524 L964 517 L965 506 L967 500 L972 493 L976 482 L978 466 L979 465 L979 458 L980 457 L981 397 L980 396 L980 386 L979 385 L978 373 L972 354 L969 348 L964 344 L958 345 L954 348 L937 365 L932 361 L922 357 L913 334 L898 306 L892 288 L890 285 L889 275 L882 266 L876 263 L877 255 L878 254 L878 246 L879 245 L877 230 L883 224 L889 213 L893 198 L893 185 L891 178 L885 168 L877 161 L859 150 L851 142 L848 135 L848 123 L851 113 L858 101 L870 85 L874 76 L873 71 L868 68 L836 70 L824 67 L811 67 L810 68 L803 68 L802 69 L791 69 L783 60 L783 49 L781 41 L776 35 L770 23 L761 18 L754 17 L747 8 L744 0 L740 0 L744 10 L749 16 L750 19 L717 52 L713 54 L709 54 L706 56 L691 40 L704 27 L718 7 L719 3 L716 4 L707 18 L690 39 L670 18 L672 13 L681 0 L678 0 L676 2 L668 16 L653 5 L643 0 L631 0 L637 1 L649 6 L679 39 L680 41 L679 42 L681 42 L683 40 L694 55 L694 52 L688 45 L689 43 L709 64 L720 73 L740 85 L746 87 L751 87 L754 89 L752 105 L746 117 L739 122 L730 121 L717 104 L711 94 L694 59 L692 59 L700 79 L718 113 L717 114 L715 113 L705 101 L703 101 L703 102 L715 114 L718 113 L726 124 L739 133 L753 139 L766 143 L787 154 L801 159 L806 162 L818 164 L819 163 L833 163 L837 162 L837 160 L820 160 L819 159 L810 158 L789 151 L770 141 L763 139 L762 138 L766 136 L766 122 L771 102 L774 98 L773 96 L770 97 L764 116 L764 121 L763 122 L763 137 L762 138 L747 133 L734 126 L735 125 L740 125 L744 123 L750 117 L756 102 L757 88 L775 78 L792 74 L798 74 L799 73 L848 73 L849 72 L866 71 L871 74 L871 76 L866 86 L851 106 L841 130 L841 133 L837 143 L835 152 L837 153 L844 132 L846 136 L846 154 L841 166 L833 174 L822 179 L817 179 L816 180 L797 179 L780 174 L761 165 L744 153 L730 141 L700 111 L700 113 L710 127 L729 146 L760 168 L774 175 L796 182 L801 182 L802 183 L817 183 L831 179 L837 175 L845 165 L848 158 L849 146 L850 145 L858 154 L875 164 L885 173 L888 179 L889 187 L890 188 L890 195 L886 212 L882 220 L874 228 L867 240 L857 250 L853 252 L853 254 L855 255 L862 250 L869 242 L874 234 L875 235 L875 253 L873 261 L870 263 L863 264 L859 267 L875 266 L879 268 L885 274 L884 276 L883 275 L871 275 L870 277 L871 278 L885 278 L886 279 L887 286 L891 294 L894 305 L908 331 L908 333 L913 342 L919 357 L912 360 L910 359 L908 344 L904 331 L897 319 L886 307 L876 300 L868 296 L844 290 L846 288 L848 281 L848 268 L846 260 L837 240 L823 217 L822 217 L821 220 L830 233 L843 259 L844 267 L845 268 L845 281 L843 287 L840 291 L821 293 L817 295 L811 296 L798 302 L790 289 L781 278 L765 263 L752 253 L760 248 L765 243 L768 236 L768 224 L764 215 L757 208 L748 203 L741 201 L732 201 L717 208 L711 214 L708 219 L709 222 L711 222 L713 217 L721 209 L730 205 L740 204 L751 208 L761 218 L763 222 L764 229 L759 238 L754 242 L749 244 L737 245 L724 238 L709 232 L687 195 L684 192 L678 182 L625 115 L620 111 L618 112 L613 120 L605 128 L597 134 L569 162 L563 170 L545 204 L526 232 L525 235 L520 240 L500 251 L493 257 L482 257 L474 254 L465 246 L462 239 L462 234 L461 233 L462 232 L462 227 L466 218 L475 210 L480 208 L491 208 L502 213 L509 219 L514 226 L516 233 L518 233 L518 229 L514 220 L503 210 L492 205 L479 205 L469 210 L464 215 L460 222 L458 230 L458 236 L459 237 L460 245 L466 255 L466 259 L463 265 L459 269 L454 277 L456 277 L467 262 L470 255 L478 259 L486 260 L487 261 L470 276 L438 312 L436 312 L427 306 L425 306 L420 303 L411 300 L403 299 L398 290 L397 286 L397 273 L398 272 L398 266 L402 251 L412 230 L419 220 L429 210 L424 212 L415 221 L403 241 L398 254 L395 266 L394 285 L397 296 L400 299 L399 300 L387 301 L378 304 L369 309 L358 320 L353 327 L346 344 L345 353 L344 354 L344 365 L343 366 L344 381 L345 382 L345 387 L347 395 L354 411 L362 421 L374 429 L381 432 L381 428 L372 424 L358 410 L352 399 L347 379 L347 357 L352 336 L361 321 L373 310 L388 304 L408 303 L419 306 L424 309 L426 309 L435 315 L439 316 L464 287 L489 263 L500 255 L527 239 L551 229 L554 229 L561 226 L581 221 L600 219 L601 218 L610 218 L611 217 L635 217 L636 218 L645 218 L646 219 L663 221 L679 225 L686 228 L689 228 L698 232 L706 234 L721 241 L723 241 L746 253 L767 269 L787 290 L796 305 L798 306 L802 303 L815 298 L828 295 L844 294 L845 295 L858 296 L867 299 L881 307 L889 314 L898 326 L905 345 L906 357 L907 358 L907 382 L906 383 L905 392 L898 408 L893 415 L882 425 L874 428 L870 428 L867 426 L857 414 L851 400 L850 384 L851 383 L851 378 L855 369 L860 363 L866 359 L872 359 L880 366 L883 373 L883 384 L880 391 L876 395 L873 396 L871 394 L869 394 L868 396 L876 401 L883 402 L891 398 L896 390 L898 384 L898 366 L896 358 L892 350 L879 337 L874 335 L865 334 L852 339 L846 344 L841 351 L836 362 L834 370 L834 375 L833 376 L833 390 L837 407 L844 419 L852 426 L861 430 L865 430 L866 431 L874 431 L876 430 L877 431 L886 426 L895 418 L903 406 L907 397 L910 384 L910 364 L917 361 L927 362 L931 364 L942 376 L951 396 L954 409 L955 424 L956 425 L955 468 L954 469 L954 480 L953 481 L953 490 L952 491 L952 498 L951 499 L951 520 L950 521 L950 544 L949 545 L950 560 L949 561 L948 560 L947 552 L945 548 L941 531 L929 501 L911 475 L889 455 L864 439 L832 423 L812 416 L809 414 L801 412 L798 410 L795 410 L782 405 L771 403 L769 400 L765 386 L761 379 L761 377 L748 357 L734 342 L720 331 L706 322 L686 313 L666 307 L649 305 L648 304 L635 304 L634 303 L623 303 L622 304 L620 303 L619 304 L609 304 L608 305 L596 306 L579 310 L561 316 L539 327 L522 339 L504 358 L496 371 L492 380 L487 399 L461 405 L437 413 L412 423 L375 442 L357 454 L344 465 L342 461 L342 458 L338 451 L329 446 L325 446 L318 449 L312 455 L308 463 L307 462 L308 451 L311 441 L313 437 L320 430 L323 429 L329 431 L341 439 L352 453 L355 450 L354 441 L351 432 L346 424 L339 417 L332 413 L324 411 L319 411 L311 414 L301 425 L295 438 L293 446 L293 451 L292 452 L292 471 L293 472 L294 485 L297 495 L299 495 L299 492 L296 480 L295 453 L300 434 L304 427 L309 422 L314 420 L322 419 L330 421 L338 425 L346 432 L350 439 L351 444 L350 445 L345 439 L333 430 L325 427 L321 427 L315 430 L309 438 L305 451 L305 464 L307 466 L306 469 L306 503 L307 504 L307 510 L310 513 L305 524 L299 542 L299 545 L297 549 L293 565 L292 564 L292 555 L293 554 L293 521 L292 520 L291 504 L290 503 L287 480 L281 463 L279 455 L279 447 L278 446 L280 410 L281 409 L281 403 L282 402 L284 386 L287 379 L294 368 L306 357 L313 353 L320 351 L326 351 L333 354 L333 351 L331 349 L331 347 L340 332 L340 324 L346 314 L343 306 L344 298 L362 293 L369 289 L369 287 L366 287 L359 291 L356 291 L348 294 L345 294 L342 290 L343 283 L350 275 L350 273 L344 263 L344 259 L345 258 L354 265 L362 268 L366 268 L367 269 L376 269 L378 268 L378 266 L366 266 L357 263 L348 257 L338 246 L334 235 L334 225 L335 224 L334 206 L336 204 L349 224 L358 235 L375 252 L382 257 L383 256 L383 254 L377 250 L355 227 L343 210 L336 197 L337 190 L343 175 L354 163 L360 159 L365 157 L374 157 L387 146 L388 147 L388 156 L389 157 L390 166 L397 183 L408 196 L418 202 L425 204 L439 204 L451 201 L479 189 L492 188 L493 189 L503 190 L518 197 L527 204 L530 203 L521 195 L503 187 L495 185 L487 185 L474 188 L473 187 L477 183 L476 182 L459 194 L450 198 L442 200 L437 200 L436 201 L421 200 L413 196 L404 188 L396 174 L391 155 L391 134 L392 133 L393 134 L395 150 L399 162 L404 171 L412 178 L421 181 L436 181 L455 176 L469 169 L471 169 L473 167 L475 167 L489 159 L499 152 L510 141 L519 128 L526 114 L533 93 L535 90 L536 82 L534 84 L524 110 L517 124 L508 138 L501 146 L483 159 L457 172 L441 177 L422 178 L411 174 L406 169 L400 156 L397 144 L396 128 L395 127 L395 120 L397 113 L397 99 L398 98 L408 126 L413 157 L416 163 L421 167 L421 165 L416 156 L414 140 L413 139 L410 122 L405 107 L394 82 L390 68 L387 63 L383 50 L383 45 L386 42 L413 43 L414 44 L421 44 L422 45 L439 47 L452 51 L464 59 L474 69 L479 78 L478 92 L484 105 L491 113 L499 117 L488 129 L475 139 L455 150 L450 151 L439 156 L430 162 L432 164 L442 158 L456 153 L470 146 L493 129 L500 121 L511 105 L522 84 L524 77 L532 61 L537 56 L539 52 L558 28 L580 7 L590 3 L607 0 L590 0 L583 2 L577 6 L575 4 L574 0 L571 0 L573 8 L565 16 L554 0 L551 0 L559 13 L562 16 L562 19 L543 40 L540 37 L538 32 L517 5 L516 2 L514 2 L515 7 L521 14 L525 21 L529 25 L534 33 L542 41 L526 58 L490 22 L481 10 L478 4 L479 0 Z" fill="#eef3f4" fill-rule="evenodd"/>
</svg>
