<svg xmlns="http://www.w3.org/2000/svg" width="1086" height="1448" viewBox="0 0 1086 1448">
  <title>0221</title>
  <path d="M633 1143 L632 1152 L627 1164 L619 1176 L607 1188 L598 1194 L585 1200 L579 1201 L575 1203 L559 1205 L558 1206 L529 1206 L528 1205 L522 1205 L521 1204 L508 1202 L496 1198 L486 1193 L474 1184 L465 1174 L459 1165 L451 1147 L454 1144 L460 1155 L466 1163 L475 1172 L486 1180 L498 1186 L515 1191 L526 1192 L527 1193 L559 1193 L585 1187 L604 1177 L617 1165 L626 1153 L632 1142 Z M453 1137 L455 1136 L465 1141 L496 1150 L501 1150 L502 1151 L519 1153 L520 1154 L527 1154 L528 1155 L537 1155 L538 1156 L558 1155 L559 1154 L565 1154 L566 1153 L572 1153 L573 1152 L588 1150 L604 1146 L608 1144 L611 1144 L630 1136 L632 1137 L625 1150 L618 1160 L604 1174 L586 1184 L569 1189 L555 1190 L554 1191 L533 1191 L532 1190 L517 1189 L500 1184 L491 1180 L479 1172 L466 1159 Z M631 1136 L632 1135 L633 1136 L632 1137 Z M452 1136 L453 1135 L454 1136 L453 1137 Z M641 1132 L642 1133 L641 1135 L633 1143 L632 1141 L635 1137 L635 1135 L637 1133 Z M453 1133 L457 1132 L458 1133 L471 1134 L472 1135 L516 1133 L527 1136 L534 1140 L541 1142 L552 1140 L562 1134 L566 1134 L567 1133 L591 1134 L592 1135 L612 1135 L613 1134 L621 1134 L628 1132 L632 1133 L624 1137 L599 1145 L577 1149 L576 1150 L555 1152 L554 1153 L531 1153 L530 1152 L523 1152 L522 1151 L503 1149 L478 1143 Z M641 1132 L642 1131 L643 1132 L642 1133 Z M631 1132 L632 1131 L634 1132 L633 1133 Z M451 1132 L452 1131 L454 1132 L453 1133 Z M442 1132 L444 1131 L451 1137 L454 1143 L452 1144 Z M642 1131 L643 1130 L644 1131 L643 1132 Z M449 1131 L450 1130 L451 1131 L450 1132 Z M441 1131 L442 1130 L443 1131 L442 1132 Z M440 1130 L441 1129 L442 1130 L441 1131 Z M399 907 L400 906 L402 907 L401 908 Z M342 889 L344 892 L361 907 L374 917 L384 923 L400 929 L404 929 L410 931 L433 931 L434 930 L448 929 L449 928 L460 928 L468 930 L468 929 L463 927 L443 927 L442 928 L435 928 L434 929 L411 929 L410 928 L400 927 L386 922 L377 917 L360 904 L346 891 Z M745 888 L736 894 L712 915 L696 924 L687 927 L679 928 L678 929 L652 929 L651 928 L643 928 L642 927 L625 927 L617 930 L634 928 L635 929 L644 929 L645 930 L652 930 L653 931 L678 931 L679 930 L687 929 L696 926 L715 915 L736 896 L743 891 Z M649 872 L650 874 L648 876 L647 875 L648 878 L645 884 L645 895 L650 905 L660 912 L659 913 L651 913 L650 912 L627 911 L611 917 L610 916 L613 909 L624 892 L638 878 Z M649 872 L650 871 L651 872 L650 873 Z M434 870 L448 878 L461 891 L470 904 L476 916 L475 918 L468 914 L458 911 L446 911 L445 912 L428 912 L427 911 L433 907 L437 902 L441 890 L439 880 L436 874 L433 871 Z M667 866 L668 867 L673 867 L679 870 L686 877 L689 883 L689 888 L690 889 L689 890 L688 898 L684 904 L680 908 L673 911 L664 911 L657 908 L651 902 L647 893 L648 882 L651 876 L658 869 Z M415 866 L420 866 L430 871 L435 877 L438 885 L438 894 L434 902 L426 909 L420 911 L413 911 L406 908 L400 902 L396 894 L396 884 L399 877 L407 869 Z M675 865 L676 864 L701 864 L702 865 L709 865 L710 866 L715 866 L727 869 L745 871 L749 873 L726 884 L703 900 L696 903 L694 905 L685 908 L684 907 L689 901 L691 896 L692 886 L690 879 L686 873 Z M337 873 L340 871 L346 871 L347 870 L363 868 L364 867 L380 865 L381 864 L409 864 L410 865 L403 869 L399 873 L394 883 L394 887 L393 888 L394 895 L397 902 L400 905 L399 907 L390 904 L358 883 Z M759 870 L744 869 L728 865 L710 863 L709 862 L699 862 L698 861 L679 861 L678 862 L671 862 L655 866 L638 875 L623 889 L613 904 L605 921 L605 923 L623 916 L629 916 L630 915 L664 915 L665 914 L672 914 L688 910 L703 903 L731 884 L747 876 L758 872 Z M327 870 L327 872 L351 882 L381 902 L393 908 L415 914 L424 914 L425 915 L458 915 L470 918 L479 923 L481 923 L471 901 L460 886 L448 875 L431 866 L421 863 L408 862 L407 861 L383 861 L382 862 L374 862 L373 863 L361 864 L341 869 Z M605 905 L607 904 L615 886 L621 877 L633 865 L646 857 L660 852 L672 851 L673 850 L690 850 L691 851 L699 851 L700 852 L715 854 L743 861 L756 861 L763 858 L765 855 L755 859 L743 859 L716 852 L707 851 L702 849 L694 849 L693 848 L669 848 L668 849 L663 849 L655 851 L652 853 L647 854 L635 861 L621 874 L614 884 L608 896 Z M321 855 L323 858 L330 861 L343 861 L373 853 L383 852 L384 851 L391 851 L392 850 L414 850 L415 851 L421 851 L429 853 L447 861 L454 866 L463 875 L473 890 L478 901 L479 906 L481 908 L477 894 L465 874 L456 865 L448 859 L436 853 L427 850 L423 850 L417 848 L388 848 L341 859 L331 859 Z M756 831 L734 819 L713 812 L697 810 L696 809 L669 809 L668 810 L662 810 L643 815 L622 826 L603 844 L595 856 L589 869 L585 882 L585 886 L583 892 L583 899 L582 900 L582 908 L581 909 L581 946 L582 947 L582 960 L583 961 L583 969 L584 970 L584 977 L585 978 L587 996 L591 1010 L593 1012 L601 1009 L610 1009 L619 1013 L626 1020 L629 1025 L633 1041 L632 1052 L627 1064 L621 1071 L611 1077 L605 1078 L604 1075 L601 1072 L596 1070 L590 1070 L579 1074 L569 1083 L560 1088 L548 1091 L538 1091 L526 1088 L518 1084 L509 1076 L497 1070 L486 1071 L482 1074 L480 1078 L478 1078 L469 1074 L460 1066 L456 1059 L453 1046 L454 1034 L458 1023 L467 1013 L476 1009 L485 1009 L493 1012 L497 1003 L499 988 L500 987 L500 981 L501 980 L501 974 L502 973 L503 951 L504 950 L504 918 L502 919 L501 961 L500 962 L500 970 L499 971 L499 978 L498 979 L496 998 L493 1008 L490 1009 L486 1007 L474 1007 L464 1012 L459 1017 L453 1028 L451 1036 L451 1050 L453 1058 L457 1066 L466 1075 L477 1080 L490 1080 L493 1079 L492 1078 L484 1078 L483 1077 L484 1075 L491 1072 L499 1073 L505 1076 L510 1081 L520 1088 L524 1089 L528 1092 L526 1098 L526 1107 L525 1108 L524 1123 L522 1131 L521 1132 L519 1131 L466 1132 L465 1131 L451 1129 L442 1126 L429 1119 L427 1119 L444 1137 L458 1167 L465 1177 L476 1188 L486 1195 L501 1202 L515 1206 L527 1207 L528 1208 L541 1208 L542 1209 L545 1208 L559 1208 L560 1207 L566 1207 L583 1203 L600 1195 L610 1188 L619 1179 L628 1166 L638 1141 L658 1120 L658 1119 L656 1119 L643 1126 L619 1132 L607 1132 L606 1133 L583 1132 L582 1131 L565 1131 L563 1132 L562 1131 L562 1123 L561 1122 L561 1115 L560 1114 L559 1094 L557 1093 L558 1116 L559 1117 L559 1123 L560 1124 L561 1132 L548 1139 L538 1139 L523 1132 L527 1116 L528 1092 L529 1091 L536 1093 L550 1093 L551 1092 L559 1091 L569 1086 L581 1076 L587 1073 L599 1073 L603 1077 L598 1079 L593 1078 L593 1080 L609 1080 L621 1074 L630 1064 L634 1054 L635 1036 L629 1020 L623 1013 L612 1007 L600 1007 L594 1010 L591 1004 L591 1000 L588 989 L587 976 L586 975 L585 959 L584 958 L584 944 L583 943 L583 912 L584 911 L585 894 L591 870 L596 859 L606 844 L618 832 L633 822 L651 815 L664 812 L671 812 L672 811 L693 811 L694 812 L707 813 L731 820 L748 828 L759 835 Z M327 833 L328 834 L332 831 L357 819 L378 813 L391 812 L392 811 L416 811 L417 812 L433 814 L455 823 L469 833 L479 843 L487 854 L495 870 L500 887 L500 891 L502 891 L501 883 L496 867 L492 858 L482 843 L464 826 L441 814 L425 810 L409 809 L408 808 L382 810 L377 812 L365 814 L359 817 L354 818 L339 825 Z M243 795 L243 797 L253 810 L260 826 L261 825 L260 820 L255 809 L250 802 Z M846 792 L836 801 L831 808 L826 822 L825 835 L832 812 L837 803 Z M492 784 L493 783 L494 784 L493 785 Z M592 783 L593 782 L594 783 L593 784 Z M593 782 L594 781 L595 782 L594 783 Z M491 782 L492 781 L493 783 L492 784 Z M490 781 L491 780 L492 781 L491 782 Z M820 777 L823 781 L827 783 L838 784 L849 788 L854 793 L854 799 L850 800 L843 808 L838 820 L833 837 L833 842 L829 858 L830 885 L829 886 L829 894 L828 895 L828 910 L827 911 L827 923 L826 924 L826 935 L825 936 L825 946 L824 947 L823 962 L822 963 L822 969 L819 982 L816 988 L813 990 L813 994 L814 995 L815 992 L819 988 L821 984 L824 973 L826 951 L827 950 L827 941 L828 940 L828 930 L829 929 L831 889 L832 888 L832 875 L831 874 L832 870 L832 856 L834 850 L835 839 L839 826 L840 827 L839 851 L842 855 L848 858 L850 868 L849 869 L847 894 L846 895 L845 906 L843 912 L843 918 L841 924 L841 929 L840 930 L836 958 L835 959 L834 975 L833 976 L833 987 L832 988 L831 1040 L832 1041 L833 1089 L834 1090 L833 1105 L828 1116 L823 1121 L817 1122 L811 1117 L808 1112 L804 1099 L804 1092 L803 1091 L804 1055 L805 1054 L805 1044 L806 1043 L808 1021 L809 1020 L810 1009 L812 1004 L812 1001 L811 1001 L806 1022 L804 1043 L803 1044 L803 1052 L802 1053 L802 1064 L801 1065 L801 1095 L802 1096 L802 1101 L807 1115 L814 1122 L813 1123 L807 1123 L793 1119 L783 1114 L781 1114 L774 1110 L773 1106 L777 1095 L778 1087 L780 1083 L781 1075 L789 1044 L793 1017 L794 1016 L795 1004 L796 1003 L796 998 L797 997 L799 976 L801 968 L802 952 L803 951 L807 903 L808 902 L810 869 L811 868 L811 858 L812 857 L812 847 L813 846 L813 835 L814 834 L814 824 L815 823 L817 792 L818 791 L818 780 Z M265 777 L267 780 L267 790 L268 791 L268 800 L269 801 L269 811 L270 812 L270 822 L271 823 L271 832 L272 833 L273 854 L274 855 L274 863 L275 864 L275 876 L276 877 L276 887 L277 888 L277 897 L278 898 L280 930 L281 931 L281 939 L282 940 L282 948 L283 949 L283 957 L284 958 L287 988 L288 989 L292 1020 L293 1021 L294 1031 L299 1051 L300 1060 L310 1100 L313 1107 L310 1111 L304 1114 L302 1114 L293 1119 L279 1123 L273 1123 L272 1122 L278 1116 L282 1106 L283 1098 L284 1097 L285 1080 L284 1079 L284 1061 L283 1060 L282 1042 L281 1041 L281 1035 L280 1034 L280 1029 L279 1028 L274 999 L272 999 L273 1001 L277 1028 L278 1029 L280 1052 L281 1053 L281 1064 L282 1065 L282 1092 L281 1093 L281 1100 L279 1108 L275 1116 L269 1122 L266 1123 L262 1121 L258 1117 L253 1108 L252 1104 L252 1071 L253 1070 L253 1050 L254 1049 L253 989 L252 988 L251 967 L250 966 L247 938 L246 937 L244 922 L241 911 L241 906 L240 905 L240 900 L237 887 L236 871 L235 870 L236 859 L239 856 L243 855 L246 851 L246 841 L245 840 L245 825 L246 824 L249 832 L251 848 L252 849 L252 855 L253 856 L253 891 L254 892 L254 903 L255 904 L255 916 L256 917 L258 947 L259 948 L262 976 L267 990 L271 994 L272 994 L271 993 L272 991 L268 986 L265 978 L263 960 L262 959 L262 951 L261 950 L260 933 L259 932 L259 922 L258 921 L258 910 L257 909 L256 884 L255 883 L256 858 L253 845 L253 839 L248 821 L242 808 L236 801 L230 799 L230 794 L235 788 L247 784 L258 783 L262 781 Z M488 775 L491 779 L490 781 L486 777 Z M485 776 L486 775 L487 776 L486 777 Z M759 759 L760 758 L761 759 L760 760 Z M758 758 L759 757 L760 758 L759 759 Z M326 758 L327 757 L328 758 L327 759 Z M327 757 L328 756 L329 757 L328 758 Z M755 756 L757 755 L759 757 L757 758 Z M756 755 L754 756 L740 748 L716 740 L712 740 L706 738 L696 738 L695 737 L672 738 L671 739 L658 741 L635 750 L615 763 L601 775 L595 782 L594 781 L602 768 L622 748 L634 740 L648 733 L671 727 L689 726 L690 727 L699 727 L700 728 L705 728 L713 730 L735 739 L750 749 Z M328 756 L334 750 L345 742 L363 733 L386 727 L406 726 L407 727 L414 727 L415 728 L429 730 L452 740 L466 750 L481 765 L488 775 L485 776 L468 761 L454 752 L437 744 L414 738 L388 737 L387 738 L380 738 L379 739 L369 740 L345 748 L330 757 Z M771 768 L765 760 L751 747 L739 739 L727 733 L710 727 L700 726 L699 725 L689 725 L688 724 L671 725 L670 726 L665 726 L643 733 L630 740 L620 747 L609 757 L597 771 L591 780 L584 794 L584 796 L586 796 L592 788 L611 769 L629 756 L652 745 L673 740 L694 739 L695 740 L705 740 L706 741 L720 743 L742 751 L762 763 L770 770 L771 770 Z M314 770 L317 769 L325 762 L336 755 L348 749 L365 743 L378 741 L379 740 L388 740 L389 739 L414 740 L434 745 L446 751 L448 751 L460 758 L479 773 L500 796 L502 795 L492 776 L483 764 L468 749 L445 734 L429 728 L421 726 L416 726 L415 725 L405 725 L404 724 L386 725 L385 726 L380 726 L358 733 L348 738 L333 748 L319 762 Z M298 681 L316 675 L332 671 L341 670 L346 668 L371 665 L372 664 L379 664 L380 663 L388 663 L389 662 L410 661 L411 660 L463 658 L464 657 L494 657 L495 656 L595 656 L596 657 L625 657 L626 658 L646 658 L647 659 L675 660 L676 661 L705 663 L706 664 L721 665 L722 666 L727 666 L728 667 L733 667 L734 668 L739 668 L754 672 L758 672 L770 676 L773 676 L795 684 L813 694 L821 703 L819 751 L818 752 L818 762 L817 763 L817 772 L816 773 L816 781 L815 782 L815 793 L814 794 L813 814 L812 815 L810 849 L809 850 L806 892 L805 893 L805 903 L804 904 L803 924 L802 925 L802 934 L801 935 L801 944 L800 945 L800 952 L799 953 L799 960 L798 961 L797 977 L796 978 L796 984 L795 985 L795 991 L794 992 L794 998 L793 999 L793 1005 L792 1006 L788 1035 L783 1055 L783 1059 L781 1064 L781 1068 L775 1092 L773 1096 L772 1103 L759 1142 L748 1166 L748 1168 L730 1202 L713 1228 L694 1252 L663 1284 L647 1298 L618 1319 L597 1330 L578 1337 L565 1340 L549 1341 L548 1342 L528 1341 L527 1340 L521 1340 L501 1335 L491 1331 L465 1317 L444 1302 L423 1284 L402 1263 L387 1246 L373 1228 L359 1207 L354 1197 L349 1190 L336 1164 L336 1162 L325 1138 L312 1098 L304 1066 L304 1062 L302 1057 L302 1053 L300 1048 L298 1033 L296 1027 L296 1022 L295 1021 L295 1016 L292 1003 L292 997 L290 990 L290 983 L289 982 L289 975 L288 974 L288 967 L287 966 L287 959 L286 958 L286 951 L285 950 L285 942 L284 941 L284 933 L283 932 L281 900 L280 899 L277 857 L276 856 L275 836 L274 835 L274 824 L273 823 L273 813 L272 812 L272 802 L271 801 L270 781 L269 780 L267 750 L266 749 L264 704 L266 700 L275 692 Z M794 637 L796 636 L798 638 L796 639 Z M311 630 L312 629 L313 630 L312 631 Z M313 629 L314 628 L316 629 L315 630 Z M305 629 L306 628 L307 629 L306 630 Z M257 663 L259 659 L270 650 L286 642 L296 639 L299 637 L335 627 L339 627 L360 622 L386 619 L387 618 L413 616 L414 615 L425 615 L426 614 L438 614 L439 613 L474 612 L475 611 L509 611 L510 610 L576 610 L577 611 L632 612 L633 613 L648 613 L649 614 L683 616 L684 617 L700 618 L701 619 L726 622 L727 623 L737 624 L742 626 L751 627 L763 631 L770 632 L799 642 L819 653 L827 661 L828 663 L828 671 L826 679 L827 698 L823 702 L820 697 L813 691 L805 686 L787 678 L753 668 L738 666 L732 664 L720 663 L719 662 L693 660 L692 659 L682 659 L681 658 L671 658 L670 657 L659 657 L658 656 L621 655 L620 654 L505 653 L504 654 L473 654 L472 655 L448 655 L447 656 L403 658 L402 659 L374 661 L373 662 L360 663 L359 664 L354 664 L353 665 L333 668 L317 672 L310 675 L307 675 L289 682 L277 688 L267 695 L262 703 L258 697 L259 678 L257 670 Z M603 608 L604 607 L605 608 L604 609 Z M481 608 L482 602 L488 589 L493 582 L505 570 L521 561 L537 557 L547 557 L548 558 L559 559 L565 561 L581 570 L595 585 L602 598 L604 604 L603 608 L561 608 L560 607 L485 608 L484 609 Z M231 558 L232 557 L233 558 L232 559 Z M232 557 L233 556 L234 557 L233 558 Z M850 555 L851 554 L852 555 L851 556 Z M374 554 L375 553 L376 554 L375 555 Z M461 604 L467 587 L475 574 L494 555 L512 545 L521 542 L530 541 L531 540 L554 540 L573 545 L594 557 L609 572 L614 579 L622 595 L625 608 L624 609 L608 609 L606 606 L605 599 L598 585 L586 571 L578 565 L566 559 L550 555 L529 556 L515 561 L505 567 L492 579 L487 586 L481 598 L481 601 L478 609 L462 609 L461 608 Z M413 513 L414 514 L414 523 L415 524 L414 525 L412 524 L412 514 Z M886 435 L887 434 L888 435 L887 436 Z M834 429 L835 428 L836 430 L835 431 Z M859 410 L865 412 L877 419 L888 431 L883 434 L874 443 L866 455 L857 478 L855 489 L857 486 L861 471 L869 454 L876 444 L886 435 L887 438 L885 442 L884 453 L883 454 L883 476 L888 483 L887 484 L879 485 L869 490 L860 498 L853 508 L847 526 L847 540 L851 552 L850 555 L840 539 L833 520 L833 516 L830 505 L830 498 L829 497 L829 461 L830 460 L830 453 L831 452 L832 443 L840 424 L844 418 L851 411 Z M226 410 L232 410 L235 412 L246 426 L252 438 L254 445 L255 457 L256 458 L256 470 L257 471 L256 499 L255 500 L255 507 L254 508 L254 513 L251 525 L242 546 L234 557 L233 555 L236 549 L237 540 L238 539 L238 526 L233 510 L228 502 L221 494 L208 486 L197 483 L200 480 L202 475 L201 449 L198 438 L196 435 L198 434 L209 445 L220 463 L220 465 L225 475 L228 486 L230 489 L227 476 L218 455 L210 443 L201 434 L196 431 L205 421 L211 417 Z M244 400 L245 401 L245 407 L247 412 L247 416 L250 425 L249 428 L241 416 L235 410 Z M842 399 L850 409 L841 419 L836 429 L835 425 L838 415 L840 401 Z M672 389 L673 390 L672 393 L671 392 Z M306 627 L308 625 L316 608 L324 582 L327 568 L329 564 L329 561 L337 538 L337 535 L357 483 L395 407 L402 397 L413 387 L414 388 L414 398 L410 404 L400 426 L388 465 L388 469 L385 478 L384 488 L380 503 L376 531 L375 532 L375 538 L374 539 L373 552 L372 553 L372 564 L377 555 L393 540 L393 539 L389 541 L376 554 L375 553 L375 546 L376 545 L379 520 L380 519 L381 509 L382 508 L385 488 L386 487 L386 483 L388 478 L391 461 L402 427 L413 404 L414 405 L414 500 L412 503 L412 507 L410 513 L410 525 L411 527 L402 533 L399 537 L414 528 L421 533 L425 534 L434 534 L435 533 L470 533 L471 532 L528 532 L529 531 L533 531 L534 532 L544 532 L545 531 L551 531 L552 532 L619 532 L620 533 L652 533 L653 534 L661 534 L666 532 L670 528 L671 525 L671 423 L672 422 L672 393 L673 392 L681 418 L681 421 L693 457 L695 460 L706 491 L717 514 L717 516 L734 550 L755 585 L774 612 L786 627 L795 636 L792 637 L773 630 L770 630 L766 628 L750 624 L746 624 L730 620 L725 620 L724 619 L719 619 L718 618 L713 618 L712 617 L691 615 L690 614 L681 614 L680 613 L671 613 L670 612 L628 610 L624 594 L618 581 L607 566 L601 560 L591 552 L574 543 L561 539 L547 538 L546 537 L530 538 L514 542 L499 549 L488 557 L477 568 L469 579 L463 591 L458 610 L417 612 L416 613 L407 613 L406 614 L381 616 L380 617 L368 618 L367 619 L362 619 L361 620 L341 623 L319 629 L315 628 L337 612 L356 593 L361 586 L360 585 L354 593 L330 615 L314 626 L308 629 Z M413 377 L414 378 L414 384 L406 390 L394 406 L360 472 L354 488 L350 495 L342 515 L340 523 L338 526 L328 557 L328 560 L326 564 L326 567 L324 571 L323 578 L316 599 L316 602 L308 621 L303 629 L297 635 L286 639 L270 647 L261 654 L259 648 L259 642 L256 635 L258 626 L263 614 L266 603 L268 600 L270 592 L272 589 L274 581 L281 566 L285 554 L295 533 L295 531 L313 495 L330 466 L344 445 L360 424 L388 395 L399 386 Z M413 377 L414 376 L415 377 L414 378 Z M788 376 L789 375 L790 376 L789 377 Z M296 376 L297 375 L298 376 L297 377 Z M422 371 L428 371 L429 370 L443 370 L444 369 L456 369 L457 368 L474 368 L475 367 L496 367 L497 366 L590 366 L591 367 L612 367 L613 368 L628 368 L629 369 L661 370 L664 371 L667 374 L669 379 L669 521 L667 528 L663 531 L587 530 L586 529 L504 529 L503 530 L422 531 L417 525 L417 377 Z M703 347 L704 346 L705 348 L704 349 Z M493 362 L498 342 L507 328 L520 317 L526 314 L537 311 L554 312 L569 319 L581 331 L585 337 L589 346 L591 354 L591 360 L592 361 L591 364 L567 364 L566 363 L494 364 Z M475 360 L476 359 L476 353 L478 345 L485 328 L492 318 L501 309 L509 303 L521 297 L531 294 L548 293 L549 294 L559 295 L570 299 L581 306 L595 320 L601 329 L606 340 L609 350 L610 364 L609 365 L595 364 L594 363 L594 357 L591 344 L588 337 L582 328 L573 319 L559 311 L546 308 L540 308 L527 311 L513 319 L503 329 L495 343 L492 353 L492 358 L491 359 L492 363 L491 364 L476 365 L475 364 Z M759 242 L760 243 L760 266 L761 267 L762 275 L767 282 L751 289 L741 298 L732 313 L729 324 L729 332 L728 333 L727 332 L727 325 L726 324 L726 309 L727 308 L728 296 L733 279 L741 263 L747 254 Z M688 226 L689 225 L690 227 L689 228 Z M395 224 L396 223 L397 225 L396 226 Z M697 204 L711 217 L708 220 L701 233 L696 249 L696 253 L693 264 L693 271 L692 272 L693 301 L699 325 L701 328 L700 322 L698 318 L696 302 L695 301 L695 268 L696 267 L696 261 L697 260 L697 255 L700 243 L707 226 L714 217 L720 215 L733 215 L740 218 L747 223 L760 239 L752 245 L745 253 L739 262 L732 276 L727 292 L726 302 L725 303 L725 311 L724 312 L724 321 L725 322 L726 335 L733 354 L742 367 L748 372 L757 377 L769 380 L781 379 L787 376 L789 377 L786 380 L776 386 L768 388 L752 387 L743 384 L728 375 L710 357 L706 348 L701 345 L694 331 L688 314 L685 301 L684 285 L683 284 L683 268 L684 267 L684 259 L685 258 L686 248 L690 236 L694 220 L694 216 L696 211 L696 205 Z M388 203 L390 206 L393 226 L399 247 L400 258 L401 259 L401 268 L402 269 L402 284 L401 285 L400 303 L396 320 L393 326 L392 331 L385 345 L376 358 L363 371 L350 381 L342 385 L330 388 L320 388 L306 384 L297 377 L299 376 L306 379 L318 380 L329 377 L340 370 L347 363 L351 357 L359 337 L360 328 L361 327 L361 308 L360 307 L360 318 L359 319 L359 330 L358 331 L357 330 L357 324 L354 312 L347 300 L334 288 L318 281 L321 278 L324 270 L324 266 L325 265 L325 243 L324 242 L326 241 L337 252 L346 265 L353 279 L358 294 L358 297 L360 300 L358 288 L353 274 L348 264 L339 251 L325 238 L331 228 L340 219 L350 214 L361 213 L362 214 L370 215 L377 223 L384 238 L389 259 L390 279 L391 280 L389 307 L388 308 L387 317 L382 332 L383 332 L385 328 L392 301 L393 271 L392 270 L392 262 L391 261 L391 256 L388 243 L383 229 L375 215 L382 208 L387 205 Z M154 533 L155 532 L155 527 L157 519 L161 509 L167 500 L177 491 L189 486 L203 487 L209 489 L217 494 L226 503 L233 516 L235 524 L235 530 L236 531 L235 532 L236 536 L235 537 L235 543 L233 551 L226 563 L220 568 L214 571 L201 572 L191 568 L186 563 L183 557 L182 545 L185 537 L191 531 L198 529 L196 528 L188 531 L183 536 L180 543 L180 555 L184 564 L190 570 L200 574 L211 574 L222 570 L229 565 L237 557 L244 547 L253 527 L257 511 L258 495 L259 494 L259 460 L258 459 L258 451 L257 450 L255 434 L246 398 L246 391 L245 390 L245 362 L246 361 L249 341 L255 325 L261 314 L266 307 L279 294 L289 288 L298 285 L316 284 L324 286 L334 291 L343 299 L348 306 L354 322 L354 329 L355 330 L354 342 L351 351 L346 360 L335 371 L321 377 L307 377 L303 376 L295 372 L287 364 L282 353 L282 339 L283 335 L287 328 L294 321 L303 317 L313 318 L321 324 L318 319 L310 315 L302 315 L296 317 L286 325 L281 334 L279 342 L279 350 L281 358 L288 370 L297 380 L303 384 L315 389 L330 390 L331 389 L339 388 L352 382 L362 375 L379 357 L385 349 L394 332 L401 310 L402 300 L403 299 L403 292 L404 291 L404 262 L403 261 L403 255 L402 254 L400 240 L397 233 L396 226 L397 225 L403 234 L414 245 L420 249 L435 255 L452 256 L465 253 L479 245 L487 237 L492 230 L496 222 L499 211 L499 194 L498 190 L492 177 L485 169 L478 164 L467 160 L454 160 L446 162 L437 167 L430 174 L424 186 L423 202 L425 209 L429 216 L439 225 L451 229 L463 227 L469 224 L477 216 L482 205 L482 193 L478 184 L471 177 L463 173 L461 173 L461 174 L470 178 L474 182 L478 188 L480 195 L480 203 L478 210 L475 215 L469 221 L459 226 L444 225 L437 221 L431 215 L428 210 L425 200 L425 193 L428 182 L433 174 L438 169 L450 163 L465 162 L466 163 L470 163 L480 168 L491 180 L495 189 L496 198 L497 199 L495 217 L492 225 L487 233 L476 244 L468 249 L454 253 L439 253 L438 252 L430 251 L425 248 L423 248 L414 242 L407 235 L398 222 L394 213 L394 210 L391 202 L391 187 L394 175 L399 164 L404 157 L416 145 L430 137 L445 133 L464 133 L468 131 L477 122 L480 114 L486 104 L494 94 L504 85 L515 78 L533 72 L554 72 L568 76 L576 80 L588 89 L597 98 L603 106 L609 117 L609 119 L612 123 L621 131 L627 134 L637 134 L638 135 L650 136 L662 141 L671 147 L682 158 L688 167 L693 180 L694 189 L695 190 L694 207 L690 219 L685 228 L678 237 L666 247 L660 250 L650 253 L637 254 L636 253 L626 252 L616 248 L610 244 L599 233 L594 224 L591 215 L590 198 L591 197 L592 189 L597 179 L605 170 L611 166 L619 163 L630 162 L645 167 L657 179 L661 190 L661 203 L659 209 L651 220 L640 226 L627 226 L617 221 L612 216 L608 209 L607 196 L611 185 L618 178 L625 175 L625 174 L622 174 L615 178 L611 182 L605 194 L606 210 L610 217 L616 223 L626 228 L630 228 L631 229 L641 228 L652 222 L657 217 L662 208 L664 194 L663 193 L663 188 L659 178 L650 168 L644 164 L631 160 L623 160 L612 163 L605 167 L596 176 L591 185 L587 201 L588 214 L593 228 L600 238 L606 244 L621 253 L633 256 L648 256 L659 253 L673 245 L683 235 L688 227 L689 228 L689 231 L685 242 L685 246 L682 256 L682 262 L681 263 L681 291 L682 292 L683 304 L687 316 L687 319 L689 322 L689 325 L698 344 L709 360 L723 374 L733 381 L743 386 L757 390 L767 390 L780 386 L789 380 L797 371 L804 359 L806 351 L806 340 L802 329 L791 318 L783 315 L776 315 L769 318 L765 322 L764 325 L773 318 L782 317 L793 322 L797 326 L802 334 L804 348 L803 349 L802 357 L797 366 L792 371 L783 376 L779 377 L764 377 L752 372 L741 362 L735 352 L732 343 L732 339 L731 338 L732 322 L734 315 L739 305 L750 293 L756 289 L772 284 L781 284 L782 285 L790 286 L798 289 L806 294 L821 309 L825 315 L834 334 L838 349 L839 361 L840 362 L840 388 L839 389 L839 396 L838 397 L838 402 L834 417 L833 426 L830 435 L830 440 L827 453 L827 464 L826 465 L826 493 L827 494 L827 502 L828 503 L830 519 L836 536 L846 554 L854 563 L862 569 L874 574 L885 574 L895 570 L903 561 L906 551 L905 542 L902 536 L897 531 L889 528 L887 529 L888 530 L892 530 L897 533 L902 540 L903 554 L899 563 L895 567 L888 571 L876 572 L865 568 L855 557 L850 543 L849 530 L850 529 L851 520 L857 506 L868 494 L881 487 L896 486 L908 491 L913 495 L920 503 L926 514 L931 534 L931 559 L930 560 L928 574 L924 586 L918 598 L909 610 L898 620 L882 629 L869 633 L855 634 L854 633 L846 633 L840 631 L833 631 L827 638 L826 648 L824 654 L815 647 L806 643 L791 629 L777 612 L758 585 L737 550 L719 514 L719 512 L710 494 L700 469 L693 447 L689 438 L689 435 L684 422 L684 419 L682 416 L677 394 L670 374 L665 369 L662 368 L613 365 L612 364 L611 349 L607 336 L602 326 L595 316 L585 306 L575 299 L564 294 L552 291 L534 291 L522 294 L506 302 L495 311 L486 322 L479 335 L474 351 L474 364 L473 365 L437 367 L436 368 L423 368 L393 388 L363 417 L337 451 L309 498 L292 532 L281 560 L278 565 L270 585 L268 593 L266 596 L254 632 L245 631 L244 632 L232 633 L231 634 L211 632 L195 626 L181 616 L172 606 L166 597 L161 587 L157 575 L155 561 L154 560 Z M534 69 L522 72 L511 77 L494 90 L482 105 L475 120 L466 129 L463 130 L446 130 L445 131 L436 132 L422 138 L412 145 L402 155 L392 173 L388 190 L388 199 L383 205 L372 214 L365 211 L351 211 L347 212 L337 218 L327 229 L322 238 L323 262 L319 276 L314 281 L298 282 L285 287 L277 292 L264 305 L252 325 L245 346 L244 357 L243 358 L243 366 L242 367 L243 397 L233 408 L227 407 L220 409 L202 420 L195 427 L193 433 L198 448 L199 471 L200 472 L199 476 L194 483 L183 485 L174 490 L167 496 L161 504 L156 514 L152 529 L151 557 L152 558 L152 564 L157 584 L163 597 L171 609 L184 622 L202 632 L217 636 L237 636 L249 633 L255 638 L256 646 L257 647 L258 657 L254 663 L254 670 L255 671 L255 678 L256 679 L255 696 L256 700 L262 707 L262 732 L263 733 L263 745 L264 746 L265 773 L259 780 L248 781 L235 785 L229 790 L227 795 L229 802 L233 802 L238 807 L242 816 L242 822 L243 823 L242 837 L243 838 L244 850 L241 853 L236 855 L233 860 L233 874 L234 875 L234 883 L235 884 L238 909 L239 910 L240 920 L241 921 L242 931 L245 943 L247 964 L248 965 L248 973 L249 974 L249 984 L250 985 L250 1001 L251 1002 L251 1054 L250 1055 L250 1074 L249 1075 L249 1103 L254 1116 L259 1122 L267 1126 L277 1126 L295 1121 L313 1111 L315 1114 L323 1140 L333 1162 L333 1164 L347 1192 L357 1209 L382 1244 L392 1256 L416 1281 L450 1310 L473 1325 L491 1334 L505 1339 L522 1343 L529 1343 L530 1344 L557 1344 L558 1343 L569 1342 L587 1337 L615 1324 L645 1303 L669 1282 L685 1266 L712 1234 L735 1199 L752 1166 L752 1164 L758 1152 L772 1111 L776 1114 L791 1121 L809 1126 L818 1126 L825 1123 L830 1118 L834 1111 L836 1104 L836 1071 L835 1070 L835 1047 L834 1046 L835 984 L836 983 L836 974 L837 973 L839 950 L840 949 L841 938 L842 937 L845 916 L847 910 L849 892 L850 891 L850 884 L851 883 L851 875 L852 874 L852 861 L847 854 L842 852 L842 840 L843 839 L842 821 L844 813 L847 807 L851 803 L856 801 L857 794 L856 791 L851 786 L837 781 L832 781 L831 780 L829 781 L825 779 L820 773 L824 706 L828 702 L830 698 L829 679 L830 678 L831 663 L827 657 L829 642 L831 637 L835 633 L847 636 L868 636 L869 635 L873 635 L882 632 L894 626 L906 617 L915 607 L921 598 L927 585 L933 563 L934 539 L933 538 L933 530 L932 529 L931 521 L928 512 L921 500 L908 488 L899 484 L891 483 L886 476 L885 473 L886 470 L886 453 L887 452 L887 446 L889 438 L891 434 L890 428 L880 418 L871 412 L862 408 L853 407 L842 395 L843 367 L842 366 L842 357 L841 356 L840 345 L831 320 L825 310 L817 300 L808 292 L796 285 L786 282 L779 282 L778 281 L772 282 L766 277 L762 261 L763 259 L763 239 L758 231 L745 218 L738 214 L731 212 L723 212 L722 213 L712 214 L701 204 L697 199 L697 186 L693 172 L686 159 L674 146 L667 141 L655 135 L644 132 L629 132 L620 127 L613 120 L608 109 L598 95 L589 86 L578 78 L568 73 L558 70 L554 70 L553 69 Z" fill="#eef3f4" fill-rule="evenodd"/>
</svg>
