<svg xmlns="http://www.w3.org/2000/svg" width="1086" height="1448" viewBox="0 0 1086 1448">
  <title>0222</title>
  <path d="M369 1220 L384 1241 L400 1258 L427 1278 L438 1283 L418 1270 L401 1256 L390 1245 L378 1231 L372 1222 Z M314 1215 L315 1217 L312 1224 L311 1233 L307 1235 L299 1234 L298 1233 Z M314 1214 L315 1213 L316 1214 L315 1215 Z M359 1138 L360 1137 L361 1139 L360 1140 Z M618 1128 L619 1127 L620 1128 L619 1129 Z M617 1127 L618 1126 L619 1127 L618 1128 Z M615 1126 L616 1125 L617 1126 L616 1127 Z M614 1125 L615 1124 L616 1125 L615 1126 Z M611 1123 L612 1122 L613 1123 L612 1124 Z M396 1093 L400 1093 L425 1125 L451 1152 L475 1171 L490 1181 L511 1192 L513 1194 L559 1217 L561 1217 L574 1224 L576 1224 L578 1226 L580 1226 L591 1232 L602 1236 L605 1240 L605 1245 L603 1250 L595 1258 L528 1306 L510 1324 L505 1332 L494 1342 L484 1349 L468 1356 L460 1357 L459 1358 L439 1358 L438 1357 L427 1356 L415 1353 L399 1347 L376 1335 L354 1318 L342 1305 L328 1284 L322 1272 L316 1256 L314 1248 L314 1230 L319 1213 L325 1201 L335 1186 L342 1173 L386 1105 L387 1106 L387 1117 L388 1118 L389 1127 L398 1142 L417 1165 L445 1192 L473 1214 L515 1240 L545 1254 L558 1258 L565 1258 L555 1256 L539 1250 L513 1237 L496 1227 L467 1207 L434 1179 L407 1150 L395 1134 L392 1128 L389 1117 L389 1101 Z M531 1080 L522 1089 L514 1100 L493 1122 L480 1125 L476 1124 L476 1125 L482 1128 L490 1125 L492 1126 L492 1132 L499 1148 L503 1154 L514 1164 L535 1177 L544 1181 L554 1188 L565 1194 L567 1194 L575 1200 L586 1205 L603 1215 L616 1225 L621 1231 L624 1241 L621 1253 L617 1259 L608 1268 L601 1273 L595 1275 L592 1278 L603 1273 L617 1262 L624 1251 L626 1244 L626 1238 L622 1228 L613 1219 L600 1210 L580 1200 L570 1193 L569 1181 L568 1180 L568 1148 L569 1147 L570 1128 L576 1103 L575 1103 L572 1110 L570 1122 L568 1127 L567 1141 L566 1142 L565 1170 L566 1171 L566 1182 L568 1190 L567 1193 L534 1174 L513 1160 L505 1152 L495 1133 L495 1122 L516 1101 L526 1087 L531 1082 L532 1080 Z M546 1069 L547 1068 L548 1069 L547 1070 Z M662 1063 L663 1076 L664 1077 L663 1106 L660 1119 L651 1137 L648 1137 L645 1135 L642 1135 L630 1131 L614 1122 L603 1114 L598 1112 L589 1104 L586 1098 L586 1095 L585 1094 L584 1095 L585 1100 L590 1108 L626 1138 L639 1152 L649 1175 L657 1206 L658 1224 L659 1225 L659 1242 L658 1243 L658 1253 L657 1254 L657 1260 L656 1261 L654 1275 L650 1288 L643 1304 L626 1329 L629 1327 L640 1312 L652 1288 L659 1264 L659 1259 L661 1252 L662 1228 L661 1227 L660 1208 L656 1193 L656 1189 L644 1156 L633 1142 L619 1129 L621 1128 L633 1135 L646 1138 L650 1140 L652 1140 L654 1138 L662 1122 L665 1109 L665 1104 L666 1103 L666 1077 L665 1076 L664 1066 Z M621 1038 L622 1037 L623 1038 L622 1039 Z M359 1019 L361 1021 L364 1033 L370 1043 L376 1057 L388 1076 L398 1089 L396 1091 L394 1091 L387 1098 L361 1138 L360 1135 L362 1128 L362 1118 L359 1105 L354 1092 L351 1079 L351 1073 L349 1067 L349 1060 L352 1051 L361 1033 L356 1039 L348 1054 L347 1053 L348 1044 L351 1034 L356 1022 Z M453 1011 L454 1010 L456 1011 L455 1012 Z M573 1009 L574 1008 L575 1009 L574 1010 Z M436 1009 L438 1007 L447 1007 L454 1010 L453 1011 L444 1011 Z M725 995 L728 999 L738 1006 L756 1025 L766 1042 L770 1056 L770 1065 L771 1066 L770 1084 L769 1085 L767 1099 L757 1130 L761 1123 L767 1105 L769 1093 L771 1088 L772 1076 L773 1075 L773 1063 L772 1062 L771 1050 L765 1034 L752 1016 L740 1005 Z M720 985 L721 984 L722 985 L721 986 Z M578 949 L579 948 L580 949 L579 950 Z M586 946 L595 938 L605 933 L619 929 L625 929 L626 928 L643 929 L662 935 L670 939 L685 950 L697 965 L701 976 L701 987 L699 995 L693 1006 L682 1017 L667 1025 L655 1028 L636 1028 L618 1023 L598 1011 L587 1000 L579 986 L577 978 L577 966 L579 958 Z M297 931 L292 944 L291 953 L290 954 L290 962 L289 963 L289 979 L290 980 L291 992 L292 991 L292 987 L291 986 L291 962 L292 961 L292 954 L293 953 L294 945 L300 931 L304 927 L310 926 L323 934 L333 944 L343 956 L366 988 L388 1008 L369 988 L341 950 L319 928 L311 924 L306 924 L303 925 Z M640 902 L642 902 L646 905 L650 913 L652 921 L656 926 L662 928 L679 937 L699 955 L711 970 L717 984 L717 993 L715 999 L704 1016 L691 1029 L680 1036 L662 1044 L657 1051 L652 1046 L642 1041 L625 1036 L622 1034 L613 1033 L604 1028 L589 1015 L571 1003 L564 996 L561 988 L561 975 L565 964 L570 957 L578 949 L579 951 L575 959 L574 967 L573 968 L573 977 L577 990 L584 1002 L596 1014 L610 1023 L624 1029 L632 1030 L633 1031 L638 1031 L639 1032 L658 1031 L669 1028 L677 1024 L693 1011 L699 1003 L704 990 L704 975 L703 971 L698 960 L690 950 L681 942 L673 937 L656 929 L653 929 L645 926 L631 924 L630 925 L615 926 L606 929 L583 940 L575 947 L574 946 L584 931 L601 914 L620 906 L633 903 L639 903 Z M498 868 L500 871 L499 874 L497 871 Z M496 867 L497 866 L498 868 L497 869 Z M495 865 L496 864 L497 866 L496 867 Z M494 863 L495 862 L496 863 L495 864 Z M476 840 L477 839 L478 840 L477 841 Z M475 839 L476 838 L477 839 L476 840 Z M474 838 L475 837 L476 838 L475 839 Z M473 837 L474 836 L475 837 L474 838 Z M472 836 L473 835 L474 836 L473 837 Z M471 835 L472 834 L473 835 L472 836 Z M469 834 L470 833 L472 834 L471 835 Z M468 833 L469 832 L470 833 L469 834 Z M467 832 L468 831 L469 832 L468 833 Z M465 831 L466 830 L468 831 L467 832 Z M644 830 L649 844 L649 852 L647 857 L635 858 L619 862 L616 864 L606 867 L599 871 L597 871 L577 883 L574 884 L573 883 L573 879 L577 872 L589 860 L606 847 L631 833 L641 829 Z M464 830 L465 829 L466 830 L465 831 Z M461 828 L463 827 L465 829 L463 830 Z M646 828 L666 823 L692 823 L693 824 L699 824 L714 828 L735 839 L749 851 L757 860 L767 875 L772 885 L778 903 L779 913 L780 914 L780 924 L778 927 L755 904 L741 892 L718 876 L702 868 L682 861 L662 858 L661 857 L651 857 L650 856 L651 855 L651 841 Z M398 829 L411 822 L427 820 L428 821 L442 823 L452 827 L469 838 L486 856 L492 866 L496 877 L497 895 L495 903 L490 913 L483 920 L471 927 L463 929 L455 929 L454 930 L443 929 L428 925 L411 915 L401 905 L393 894 L387 881 L385 873 L385 868 L384 867 L384 856 L387 844 L392 835 Z M402 821 L403 820 L404 821 L403 822 Z M431 817 L432 816 L445 815 L462 827 L460 828 L449 822 Z M371 822 L365 827 L362 837 L362 845 L365 858 L366 858 L366 854 L365 853 L366 840 L369 831 L372 828 L376 827 L377 825 L384 825 L399 821 L403 822 L392 830 L388 835 L384 843 L381 854 L381 872 L385 886 L394 902 L407 916 L420 925 L422 925 L429 929 L446 933 L461 933 L472 930 L486 922 L494 913 L498 905 L501 892 L500 878 L499 877 L500 873 L504 883 L504 898 L502 906 L497 916 L485 928 L474 934 L460 938 L443 940 L442 941 L430 941 L416 937 L407 933 L393 923 L386 915 L377 899 L371 877 L369 862 L368 862 L367 866 L368 877 L376 903 L387 920 L396 929 L404 934 L420 941 L430 942 L431 943 L445 943 L446 942 L460 941 L476 936 L486 931 L489 928 L491 928 L499 919 L504 910 L507 901 L506 897 L508 892 L507 880 L504 871 L497 858 L488 845 L475 832 L445 811 L437 813 L432 813 L431 814 L420 814 L419 815 L405 816 L390 820 Z M449 809 L440 804 L431 801 L420 800 L419 799 L408 799 L407 800 L395 801 L386 805 L378 807 L368 813 L368 815 L370 813 L384 807 L401 802 L409 802 L410 801 L431 803 L441 806 L449 810 Z M858 791 L859 792 L859 808 L858 809 L858 822 L857 823 L854 864 L853 865 L853 873 L852 874 L852 881 L851 882 L848 909 L847 910 L844 935 L842 942 L842 950 L841 951 L841 958 L840 959 L840 966 L839 967 L839 977 L838 978 L838 986 L837 987 L837 997 L836 998 L833 1070 L829 1073 L823 1064 L819 1048 L819 1042 L818 1041 L817 1016 L818 1015 L819 991 L820 990 L824 956 L829 938 L829 934 L832 923 L832 917 L833 916 L833 909 L834 908 L834 897 L835 896 L835 841 L836 840 L836 835 L837 834 L839 821 L843 810 L850 797 L854 793 Z M829 768 L838 777 L853 787 L855 790 L848 796 L841 809 L836 824 L836 828 L834 834 L832 908 L831 909 L831 916 L830 917 L828 934 L826 938 L826 942 L823 951 L820 977 L819 978 L819 985 L818 986 L818 993 L817 994 L817 1002 L816 1003 L816 1017 L815 1018 L816 1043 L822 1067 L827 1073 L826 1074 L806 1076 L803 1078 L802 1077 L802 1070 L803 1069 L804 1043 L805 1042 L805 1032 L806 1031 L806 1021 L807 1020 L807 1011 L808 1010 L808 1001 L809 1000 L810 980 L812 972 L814 943 L815 942 L817 915 L818 914 L819 868 L820 867 L820 855 L821 854 L823 822 L824 821 L824 812 L825 811 L825 797 L826 796 L826 788 L827 787 L827 772 Z M276 748 L282 769 L282 773 L286 789 L286 794 L287 795 L287 800 L288 801 L289 820 L290 821 L290 849 L289 850 L289 863 L287 868 L285 882 L279 898 L279 901 L275 913 L275 919 L274 920 L269 916 L264 916 L263 917 L260 916 L251 907 L256 902 L262 892 L269 873 L273 856 L275 832 L276 831 L276 822 L277 821 L277 803 L278 802 L277 766 L276 765 L276 756 L275 755 L275 749 Z M640 715 L639 716 L638 734 L637 735 L638 790 L637 791 L637 800 L635 808 L642 826 L631 830 L612 840 L590 856 L574 871 L570 880 L571 885 L565 889 L558 896 L540 927 L539 931 L520 968 L518 975 L513 984 L505 1004 L505 1006 L508 1002 L508 1000 L518 979 L522 976 L521 971 L553 907 L560 897 L570 887 L579 885 L605 870 L634 861 L647 860 L648 861 L647 862 L647 866 L645 869 L641 884 L641 898 L642 900 L641 901 L639 900 L638 901 L617 904 L600 912 L586 925 L577 936 L570 947 L559 971 L558 975 L558 988 L559 992 L569 1009 L583 1027 L589 1042 L589 1059 L587 1066 L583 1073 L577 1079 L573 1081 L564 1082 L554 1078 L547 1071 L548 1069 L551 1072 L553 1072 L550 1066 L543 1060 L537 1057 L498 1056 L494 1055 L488 1052 L478 1042 L468 1019 L459 1009 L446 1004 L440 1004 L431 1007 L429 1005 L427 997 L428 987 L431 979 L437 970 L446 962 L452 959 L465 955 L470 955 L470 954 L455 955 L441 962 L431 973 L425 987 L424 1000 L428 1009 L437 1013 L455 1014 L463 1018 L469 1028 L474 1041 L478 1047 L487 1055 L498 1059 L518 1059 L520 1058 L521 1059 L533 1060 L541 1067 L544 1072 L552 1080 L560 1084 L570 1085 L579 1081 L588 1071 L592 1061 L593 1049 L592 1048 L591 1037 L587 1028 L574 1011 L575 1009 L589 1019 L596 1026 L607 1033 L615 1036 L623 1041 L622 1039 L625 1038 L646 1045 L653 1049 L658 1054 L659 1051 L664 1045 L675 1041 L690 1033 L707 1016 L715 1004 L718 996 L720 994 L722 994 L725 990 L725 984 L721 976 L711 963 L688 940 L674 930 L662 924 L659 924 L656 921 L650 906 L652 905 L665 910 L678 917 L689 925 L703 939 L717 962 L712 949 L703 936 L690 923 L682 917 L663 907 L647 903 L643 898 L643 887 L644 886 L645 877 L651 859 L652 860 L663 860 L664 861 L679 863 L698 869 L718 879 L738 893 L751 904 L775 928 L779 929 L782 924 L781 904 L776 888 L770 875 L758 857 L738 838 L721 828 L707 823 L698 822 L697 821 L671 820 L670 821 L662 821 L661 822 L652 823 L645 826 L643 825 L638 812 L638 805 L640 798 L640 774 L641 773 L640 770 L640 746 L639 745 Z M324 695 L325 696 L325 703 L326 704 L326 710 L327 711 L330 731 L335 751 L337 755 L337 758 L339 762 L339 765 L349 793 L351 796 L352 801 L354 804 L357 817 L361 820 L358 816 L358 809 L351 793 L341 764 L341 761 L339 757 L339 754 L332 731 L332 727 L330 722 L330 718 L326 702 L326 697 Z M847 650 L848 651 L847 662 L840 678 L835 695 L833 713 L832 714 L831 731 L829 733 L816 733 L780 724 L777 719 L778 718 L780 698 L782 691 L782 683 L783 682 L783 675 L784 674 L786 655 L788 653 L799 656 L814 657 L815 656 L832 655 Z M371 638 L374 639 L378 645 L395 662 L404 669 L468 709 L478 717 L492 731 L501 742 L510 755 L521 775 L533 807 L536 824 L537 825 L537 832 L538 833 L538 853 L536 857 L525 832 L525 830 L515 810 L503 791 L493 778 L466 752 L412 713 L389 690 L381 679 L372 662 L369 651 L369 641 Z M368 638 L366 644 L367 655 L371 666 L382 685 L389 694 L409 714 L464 754 L490 779 L501 793 L513 812 L524 834 L534 860 L537 863 L540 854 L540 829 L539 828 L539 821 L536 808 L530 789 L527 784 L524 775 L514 756 L506 744 L495 730 L481 716 L471 708 L455 697 L425 680 L407 668 L392 656 L374 636 L372 635 Z M659 603 L662 603 L692 618 L694 618 L728 633 L750 640 L753 642 L762 644 L765 647 L765 654 L763 661 L763 667 L762 668 L762 674 L761 675 L761 681 L760 682 L760 688 L759 689 L759 695 L757 703 L757 710 L756 714 L754 716 L751 716 L739 711 L731 709 L701 697 L696 694 L691 693 L684 689 L679 688 L672 684 L655 678 L652 675 L651 670 L653 663 L653 652 L654 651 L656 620 L657 619 L657 606 Z M659 601 L655 606 L652 646 L651 647 L651 656 L650 657 L650 667 L649 668 L650 676 L653 679 L659 682 L666 684 L685 693 L725 709 L730 710 L733 712 L751 718 L757 716 L760 705 L763 676 L764 675 L766 656 L767 655 L767 648 L766 646 L759 641 L737 634 L712 624 L707 621 L700 619 L665 602 Z M238 560 L244 563 L249 568 L254 576 L259 589 L262 602 L263 615 L264 616 L264 626 L265 627 L265 641 L266 642 L265 689 L266 690 L266 700 L267 701 L268 715 L271 727 L273 751 L274 752 L274 762 L275 763 L275 776 L276 777 L275 824 L274 825 L274 833 L273 834 L272 849 L270 855 L269 865 L259 893 L249 906 L245 900 L243 894 L243 877 L244 876 L245 856 L246 855 L246 848 L247 847 L249 814 L250 813 L250 794 L251 793 L251 724 L250 723 L250 699 L249 698 L249 683 L248 682 L246 646 L245 645 L245 636 L244 635 L240 591 L239 590 L238 576 L237 575 L237 561 Z M278 543 L279 544 L279 556 L278 557 L277 584 L276 585 L276 592 L274 600 L274 608 L273 609 L273 614 L272 615 L270 632 L268 639 L266 631 L265 608 L259 582 L251 567 L246 562 L241 559 L266 549 L271 546 L273 546 Z M282 531 L301 532 L302 533 L307 533 L324 537 L352 547 L374 557 L376 557 L385 562 L387 562 L461 600 L463 602 L507 625 L536 642 L545 646 L563 657 L621 687 L623 689 L668 711 L670 711 L700 725 L720 733 L728 735 L731 737 L771 749 L775 749 L780 751 L795 753 L796 754 L803 754 L804 755 L820 755 L824 754 L826 756 L826 763 L824 771 L825 772 L824 773 L823 795 L822 796 L822 807 L821 808 L821 819 L820 820 L820 830 L819 831 L818 851 L817 852 L817 863 L816 864 L815 915 L814 916 L813 933 L812 934 L811 950 L810 951 L810 961 L809 962 L809 971 L808 972 L808 980 L807 981 L806 997 L805 998 L804 1019 L803 1020 L802 1041 L801 1042 L801 1052 L800 1053 L800 1067 L799 1068 L799 1081 L798 1082 L797 1128 L796 1129 L794 1147 L786 1173 L770 1207 L752 1235 L726 1267 L708 1286 L679 1312 L645 1337 L630 1346 L608 1357 L588 1365 L559 1373 L538 1376 L537 1377 L521 1378 L520 1379 L496 1379 L495 1378 L495 1368 L496 1367 L496 1362 L501 1345 L510 1329 L527 1311 L537 1303 L596 1261 L605 1252 L608 1244 L607 1236 L605 1234 L596 1231 L562 1214 L560 1214 L503 1185 L479 1170 L458 1154 L430 1126 L395 1081 L381 1060 L375 1048 L374 1041 L372 1039 L370 1040 L367 1035 L367 1028 L369 1027 L370 1028 L369 1029 L370 1028 L377 1035 L413 1079 L435 1099 L445 1117 L452 1126 L461 1130 L472 1130 L473 1129 L465 1128 L462 1126 L455 1125 L447 1115 L437 1097 L411 1073 L377 1031 L366 1020 L360 1017 L355 1019 L353 1022 L346 1044 L346 1050 L345 1051 L347 1058 L347 1070 L349 1075 L351 1089 L358 1110 L359 1120 L360 1121 L360 1127 L358 1131 L356 1143 L349 1157 L337 1175 L330 1188 L311 1216 L296 1232 L294 1231 L293 1228 L293 1212 L294 1211 L296 1171 L297 1170 L298 1120 L299 1119 L298 1076 L297 1075 L297 1067 L296 1066 L296 1059 L295 1058 L293 1042 L278 989 L278 985 L276 979 L276 972 L275 971 L275 959 L274 958 L274 945 L275 944 L277 915 L282 895 L285 888 L285 884 L287 881 L290 860 L291 859 L291 850 L292 849 L292 817 L291 816 L291 809 L290 808 L289 791 L288 790 L285 770 L282 761 L282 757 L278 741 L275 733 L275 729 L271 713 L270 700 L269 699 L269 684 L268 683 L270 647 L271 646 L272 633 L274 626 L274 620 L275 619 L275 613 L276 612 L276 607 L278 600 L278 592 L280 584 L280 574 L281 573 L281 532 Z M399 474 L401 472 L412 475 L415 477 L420 478 L440 486 L469 500 L471 500 L481 506 L483 506 L508 519 L592 568 L608 576 L611 580 L611 590 L610 591 L609 608 L608 609 L606 634 L605 635 L605 649 L602 652 L599 651 L597 649 L483 592 L481 590 L439 568 L409 550 L406 546 L406 541 L405 540 L405 531 L404 530 L404 520 L403 519 L403 511 L402 510 Z M398 472 L397 475 L397 485 L398 486 L399 507 L400 508 L400 517 L401 518 L401 526 L402 527 L402 538 L403 539 L404 547 L409 553 L457 581 L510 608 L512 610 L580 644 L582 644 L596 652 L601 654 L606 652 L607 640 L608 639 L608 631 L609 630 L609 622 L610 621 L610 613 L611 612 L611 604 L612 603 L612 592 L613 591 L613 580 L608 574 L579 558 L529 528 L468 496 L466 496 L446 486 L416 474 L404 470 L400 470 Z M316 443 L328 446 L369 460 L376 465 L377 474 L378 475 L378 482 L379 483 L379 490 L380 491 L382 522 L383 523 L383 532 L384 533 L384 535 L382 537 L378 537 L354 527 L331 520 L326 516 L321 480 L320 479 L317 460 L314 451 L314 445 Z M313 443 L312 444 L312 451 L313 452 L316 472 L319 483 L324 517 L328 521 L356 530 L378 539 L384 538 L386 534 L385 531 L385 520 L384 519 L384 509 L383 508 L383 500 L382 499 L382 490 L381 489 L379 468 L377 463 L372 459 L342 448 L339 448 L321 442 Z M263 436 L271 437 L285 441 L291 441 L294 444 L299 463 L302 483 L303 484 L304 497 L307 509 L307 513 L304 515 L303 514 L296 514 L295 513 L280 513 L275 511 L274 508 L274 489 L273 488 L272 470 L271 469 L269 455 L265 443 L262 438 Z M259 418 L261 416 L262 418 L286 417 L287 418 L295 418 L296 419 L304 419 L305 420 L316 421 L359 431 L363 433 L377 436 L384 439 L387 439 L394 442 L397 442 L400 444 L403 444 L415 448 L418 450 L423 451 L443 459 L484 479 L486 481 L508 492 L528 504 L561 521 L563 523 L565 523 L567 525 L602 543 L604 545 L619 552 L621 554 L708 598 L710 598 L726 606 L728 606 L753 617 L761 619 L764 621 L805 633 L815 634 L816 635 L824 635 L825 636 L839 636 L845 633 L847 635 L848 648 L841 651 L837 651 L831 653 L824 653 L823 654 L800 654 L789 651 L786 652 L783 659 L783 665 L781 673 L781 680 L780 681 L778 703 L776 711 L776 719 L775 720 L776 723 L779 726 L805 733 L810 733 L817 735 L828 735 L829 734 L830 735 L829 747 L826 751 L822 751 L821 752 L796 751 L795 750 L780 748 L756 742 L715 728 L710 725 L698 721 L668 707 L666 707 L618 683 L616 681 L599 673 L597 671 L544 643 L497 616 L484 610 L473 603 L398 564 L396 564 L385 558 L383 558 L357 546 L352 545 L327 535 L301 529 L289 529 L288 528 L286 529 L282 528 L279 525 L276 515 L277 513 L282 515 L306 516 L309 512 L308 501 L307 500 L307 495 L306 494 L306 489 L305 488 L301 464 L299 459 L298 450 L294 441 L291 439 L280 438 L271 435 L262 435 L259 430 Z M261 416 L267 411 L274 409 L291 407 L311 402 L322 398 L338 390 L355 377 L365 364 L374 355 L382 351 L397 350 L403 352 L408 352 L441 362 L464 373 L483 384 L521 411 L553 437 L625 500 L672 536 L719 565 L744 578 L746 578 L757 584 L762 585 L712 559 L686 543 L660 525 L621 494 L538 422 L507 398 L488 385 L470 374 L447 362 L425 354 L422 354 L410 350 L399 349 L398 348 L414 339 L425 328 L429 321 L435 314 L439 311 L447 308 L456 308 L488 316 L501 321 L510 323 L530 331 L558 346 L570 354 L590 370 L611 391 L632 418 L643 436 L655 461 L653 453 L646 438 L629 410 L620 398 L604 380 L578 357 L549 338 L520 324 L494 315 L487 314 L472 309 L458 307 L455 305 L465 299 L475 290 L482 282 L495 261 L508 249 L517 246 L518 247 L531 248 L548 253 L563 260 L585 274 L599 285 L620 305 L644 335 L660 359 L661 362 L682 392 L707 419 L726 434 L731 447 L735 453 L748 467 L749 470 L749 482 L754 497 L755 504 L761 521 L770 539 L786 563 L804 585 L812 603 L822 618 L830 625 L843 632 L842 633 L825 633 L824 632 L811 631 L810 630 L789 626 L751 613 L724 601 L722 601 L684 582 L682 582 L680 580 L676 579 L674 577 L614 547 L612 545 L571 524 L569 522 L536 505 L534 503 L525 499 L492 480 L479 474 L477 472 L448 458 L446 458 L439 454 L424 449 L421 447 L363 429 L312 417 L306 417 L298 415 L285 415 L284 414 L270 415 L264 417 Z M553 210 L557 208 L563 208 L571 211 L578 212 L597 219 L616 230 L634 244 L660 270 L679 292 L712 324 L719 339 L721 347 L723 416 L724 417 L724 426 L725 427 L724 431 L711 420 L685 392 L638 323 L623 305 L608 290 L590 275 L569 261 L549 251 L533 246 L521 245 L520 244 L526 240 L538 228 L544 219 Z M562 206 L582 197 L600 184 L612 172 L618 164 L618 162 L621 159 L628 157 L644 158 L657 162 L674 170 L691 181 L698 188 L696 196 L696 201 L695 202 L695 218 L696 219 L696 224 L700 241 L708 261 L712 275 L712 307 L711 308 L712 321 L711 322 L660 266 L638 244 L626 234 L608 222 L594 215 L580 210 L563 207 Z M676 52 L690 52 L697 54 L706 59 L718 72 L722 80 L727 99 L727 125 L726 126 L724 140 L720 152 L713 167 L709 172 L707 177 L699 187 L688 175 L683 174 L675 168 L661 161 L641 155 L631 155 L630 156 L625 156 L621 158 L619 152 L619 135 L620 134 L622 118 L627 101 L635 84 L642 74 L654 62 L666 55 Z M691 49 L675 49 L665 52 L653 59 L643 68 L630 87 L622 106 L622 109 L618 121 L617 133 L616 134 L616 154 L617 155 L617 160 L612 167 L601 179 L590 188 L574 198 L552 207 L543 215 L535 227 L526 236 L516 243 L509 245 L500 251 L489 264 L487 269 L478 282 L465 295 L455 302 L449 305 L440 307 L435 310 L428 317 L421 328 L409 339 L392 347 L381 348 L370 354 L365 359 L359 368 L347 380 L332 390 L319 396 L300 402 L270 407 L259 413 L256 418 L255 427 L266 456 L266 460 L269 471 L269 479 L270 480 L271 509 L276 526 L279 530 L278 537 L276 541 L261 548 L238 556 L234 559 L234 573 L235 574 L235 582 L236 583 L237 600 L238 601 L239 618 L240 619 L241 636 L242 637 L242 645 L243 646 L245 684 L246 685 L246 700 L247 701 L247 726 L248 727 L248 794 L247 795 L247 811 L246 812 L245 837 L244 838 L241 874 L240 875 L240 896 L245 906 L258 919 L270 920 L273 923 L272 941 L271 942 L272 974 L273 975 L274 986 L278 1002 L280 1006 L280 1009 L283 1016 L283 1019 L290 1042 L292 1059 L293 1060 L293 1068 L294 1069 L294 1079 L295 1080 L295 1144 L294 1145 L293 1180 L292 1181 L292 1196 L291 1197 L291 1211 L290 1212 L290 1229 L292 1233 L297 1237 L300 1238 L310 1237 L311 1238 L311 1248 L312 1249 L313 1257 L316 1266 L325 1285 L335 1301 L343 1311 L361 1328 L382 1342 L398 1350 L418 1357 L431 1360 L438 1360 L439 1361 L460 1361 L461 1360 L465 1360 L483 1353 L498 1342 L499 1344 L495 1353 L493 1361 L493 1366 L492 1367 L492 1380 L493 1382 L519 1382 L520 1381 L531 1381 L532 1380 L545 1379 L546 1378 L550 1378 L576 1372 L597 1365 L631 1349 L646 1340 L665 1327 L690 1307 L724 1274 L743 1252 L767 1218 L785 1184 L790 1169 L792 1166 L792 1163 L794 1159 L798 1143 L799 1129 L800 1128 L800 1115 L801 1114 L801 1089 L802 1088 L802 1082 L804 1080 L810 1078 L826 1077 L834 1074 L836 1071 L837 1031 L838 1030 L838 1013 L839 1012 L841 977 L842 976 L842 967 L843 966 L846 934 L847 933 L849 915 L851 909 L851 903 L852 902 L854 882 L855 881 L855 874 L856 873 L856 866 L857 865 L859 833 L860 832 L860 822 L861 821 L861 811 L862 810 L862 791 L857 786 L838 773 L829 764 L829 755 L828 753 L833 745 L834 725 L835 724 L835 716 L836 715 L836 708 L837 707 L839 691 L851 658 L851 641 L850 640 L850 635 L848 631 L831 622 L823 614 L816 604 L816 602 L814 600 L814 598 L811 594 L807 584 L789 562 L770 533 L761 513 L757 496 L753 486 L753 475 L752 474 L751 466 L736 449 L729 435 L728 425 L727 424 L727 413 L726 412 L726 385 L725 384 L724 346 L721 336 L716 327 L715 317 L714 316 L714 308 L715 307 L715 275 L712 262 L705 247 L700 229 L699 219 L698 218 L698 203 L699 202 L700 192 L713 173 L723 153 L729 133 L731 107 L730 106 L730 97 L729 96 L728 87 L720 69 L706 55 Z" fill="#eef3f4" fill-rule="evenodd"/>
</svg>
