<svg xmlns="http://www.w3.org/2000/svg" width="1086" height="1448" viewBox="0 0 1086 1448">
  <title>0223</title>
  <path d="M433 1318 L434 1317 L435 1318 L434 1319 Z M430 1316 L432 1315 L434 1317 L432 1318 Z M429 1315 L430 1314 L431 1315 L430 1316 Z M699 1302 L700 1301 L701 1302 L700 1303 Z M700 1301 L701 1300 L702 1301 L701 1302 Z M701 1300 L702 1299 L703 1300 L702 1301 Z M702 1299 L703 1298 L704 1299 L703 1300 Z M703 1298 L704 1297 L705 1298 L704 1299 Z M704 1297 L705 1296 L706 1297 L705 1298 Z M705 1296 L706 1295 L707 1296 L706 1297 Z M404 1253 L405 1256 L415 1270 L428 1284 L446 1298 L464 1307 L464 1306 L455 1302 L434 1287 L419 1272 L409 1258 Z M663 1238 L664 1237 L665 1238 L664 1239 Z M668 1234 L669 1235 L665 1238 L664 1237 Z M668 1234 L669 1233 L670 1234 L669 1235 Z M669 1233 L670 1232 L671 1233 L670 1234 Z M670 1232 L671 1231 L672 1232 L671 1233 Z M671 1231 L672 1230 L673 1231 L672 1232 Z M592 1231 L593 1230 L594 1232 L593 1233 Z M672 1230 L673 1229 L674 1230 L673 1231 Z M556 1228 L558 1231 L558 1235 L561 1245 L560 1249 L552 1249 L551 1248 L553 1247 L554 1233 Z M584 1225 L585 1224 L586 1225 L585 1226 Z M583 1224 L584 1223 L585 1224 L584 1225 Z M581 1223 L582 1222 L583 1223 L582 1224 Z M625 1220 L627 1223 L627 1229 L626 1230 L624 1223 Z M623 1220 L624 1219 L625 1220 L624 1221 Z M503 1216 L514 1222 L516 1227 L516 1233 L519 1246 L519 1233 L518 1232 L517 1223 L514 1219 L508 1216 Z M606 1213 L607 1212 L610 1213 L609 1214 Z M523 1226 L523 1242 L524 1243 L524 1247 L526 1250 L526 1246 L525 1245 L525 1227 L528 1220 L536 1213 L549 1214 L552 1216 L555 1221 L555 1226 L552 1234 L552 1245 L549 1249 L537 1249 L541 1250 L591 1250 L592 1249 L600 1249 L601 1248 L612 1247 L617 1245 L621 1245 L631 1242 L636 1242 L646 1239 L646 1238 L644 1238 L643 1239 L628 1241 L627 1240 L629 1236 L629 1223 L625 1216 L613 1210 L606 1210 L600 1212 L595 1217 L594 1226 L592 1231 L588 1223 L582 1220 L577 1220 L568 1224 L564 1231 L564 1234 L565 1234 L567 1229 L573 1224 L578 1224 L585 1228 L586 1225 L590 1231 L594 1246 L595 1224 L597 1218 L603 1213 L607 1214 L601 1219 L600 1222 L600 1229 L601 1230 L602 1221 L606 1217 L611 1215 L618 1216 L620 1218 L623 1225 L624 1235 L626 1237 L625 1241 L618 1244 L605 1246 L604 1247 L589 1248 L588 1249 L563 1249 L562 1248 L562 1239 L559 1230 L559 1225 L564 1217 L563 1216 L558 1223 L552 1214 L547 1211 L540 1210 L530 1214 L525 1220 Z M459 1208 L459 1219 L460 1222 L462 1221 L461 1219 L461 1209 L463 1205 L469 1201 L472 1200 L485 1201 L494 1205 L497 1209 L490 1219 L490 1237 L491 1241 L493 1241 L492 1240 L492 1221 L494 1216 L499 1211 L503 1209 L509 1209 L517 1211 L524 1218 L524 1216 L521 1213 L520 1210 L512 1207 L501 1207 L499 1208 L495 1203 L483 1198 L471 1198 L464 1201 Z M569 1191 L570 1192 L569 1196 L568 1195 Z M568 1187 L569 1188 L568 1192 L567 1191 Z M678 1175 L679 1174 L680 1175 L679 1176 Z M616 1185 L610 1186 L604 1184 L599 1163 L598 1167 L601 1180 L601 1187 L597 1191 L585 1196 L576 1196 L572 1193 L567 1176 L566 1176 L565 1178 L566 1198 L564 1200 L555 1203 L546 1203 L540 1201 L537 1196 L537 1181 L535 1182 L535 1197 L537 1201 L541 1204 L544 1205 L557 1205 L565 1202 L570 1195 L574 1198 L578 1199 L586 1198 L598 1193 L604 1186 L606 1187 L616 1187 Z M464 1163 L466 1162 L475 1167 L496 1173 L497 1175 L495 1180 L494 1188 L486 1192 L482 1192 L474 1188 L468 1180 L465 1171 L465 1164 Z M600 1151 L601 1150 L602 1151 L601 1152 Z M429 1146 L433 1145 L464 1161 L465 1162 L463 1165 L464 1172 L458 1176 L453 1176 L445 1172 L439 1166 L437 1162 L436 1155 Z M428 1145 L429 1144 L430 1145 L429 1146 Z M392 1142 L396 1141 L398 1143 L398 1145 L397 1146 Z M355 1142 L363 1140 L374 1140 L375 1141 L367 1148 L363 1160 L364 1182 L365 1183 L366 1194 L371 1214 L385 1250 L400 1278 L416 1300 L430 1314 L429 1315 L409 1299 L388 1277 L373 1256 L358 1228 L349 1203 L344 1182 L344 1177 L343 1176 L343 1156 L344 1152 L349 1145 Z M685 1130 L686 1132 L684 1134 L683 1132 Z M685 1130 L686 1129 L687 1130 L686 1131 Z M686 1128 L687 1127 L688 1128 L687 1129 Z M687 1127 L688 1126 L689 1127 L688 1128 Z M652 1125 L655 1132 L657 1134 L655 1128 Z M526 1104 L527 1103 L528 1104 L527 1105 Z M671 1096 L678 1112 L678 1120 L674 1128 L669 1133 L665 1134 L662 1128 L661 1118 L659 1112 Z M523 1095 L527 1102 L526 1104 L521 1098 Z M521 1095 L522 1094 L523 1095 L522 1096 Z M557 1094 L554 1103 L549 1108 L541 1111 L535 1110 L530 1106 L531 1104 L533 1105 L541 1105 L546 1103 L556 1093 Z M513 1075 L516 1072 L522 1072 L534 1081 L549 1088 L551 1088 L555 1091 L546 1100 L540 1103 L533 1103 L527 1098 L526 1095 L516 1081 L515 1081 L515 1083 L517 1087 L521 1091 L522 1094 L520 1095 L514 1091 L512 1084 Z M694 1061 L698 1056 L708 1065 L708 1067 L703 1069 L699 1069 L694 1066 Z M723 1031 L724 1030 L725 1031 L724 1032 Z M623 1028 L624 1027 L625 1029 L624 1030 Z M643 1018 L644 1019 L643 1024 L641 1028 L638 1030 L637 1029 L637 1024 Z M643 1017 L644 1016 L645 1018 L644 1019 Z M639 1014 L641 1017 L637 1020 L635 1024 L635 1049 L633 1053 L629 1057 L624 1057 L621 1052 L621 1047 L625 1039 L628 1020 L634 1014 Z M732 1007 L733 1008 L732 1023 L728 1033 L725 1026 L729 1019 L730 1011 Z M453 1007 L454 1006 L455 1007 L454 1008 Z M501 1006 L496 1009 L488 1017 L481 1031 L477 1044 L477 1057 L479 1061 L479 1074 L478 1078 L480 1076 L482 1081 L484 1081 L483 1074 L481 1072 L481 1060 L479 1054 L480 1041 L483 1032 L489 1020 L496 1012 L497 1014 L490 1030 L489 1038 L488 1039 L488 1045 L487 1046 L487 1056 L490 1069 L496 1080 L504 1088 L517 1095 L519 1099 L529 1109 L538 1113 L546 1112 L551 1109 L556 1104 L560 1092 L569 1092 L570 1091 L565 1091 L557 1089 L533 1078 L529 1074 L522 1070 L516 1070 L512 1073 L510 1077 L510 1085 L512 1088 L511 1090 L506 1087 L498 1079 L492 1068 L490 1061 L489 1051 L490 1050 L490 1040 L492 1032 L496 1022 L496 1019 L498 1016 L498 1013 L496 1012 L499 1009 L507 1006 L509 1004 Z M731 999 L732 1000 L731 1004 L730 1003 Z M376 994 L377 993 L385 1001 L397 1008 L415 1013 L433 1013 L434 1012 L442 1011 L451 1007 L454 1008 L446 1014 L434 1019 L426 1020 L425 1021 L413 1021 L399 1017 L389 1011 L380 1002 Z M375 993 L376 992 L377 993 L376 994 Z M506 981 L498 983 L490 988 L481 998 L474 1012 L469 1032 L469 1053 L473 1062 L470 1050 L471 1049 L471 1042 L472 1041 L474 1024 L480 1005 L483 999 L490 990 L497 985 L506 982 Z M336 1046 L342 1054 L354 1061 L362 1062 L363 1063 L369 1063 L380 1060 L380 1059 L375 1061 L359 1061 L351 1058 L344 1053 L340 1048 L335 1035 L335 1027 L336 1026 L337 1017 L344 1002 L356 989 L367 982 L370 984 L376 999 L386 1011 L391 1015 L401 1020 L408 1022 L415 1022 L416 1023 L433 1021 L447 1015 L461 1004 L471 993 L460 1002 L440 1010 L435 1010 L434 1011 L414 1011 L397 1006 L383 997 L373 986 L370 981 L371 980 L368 979 L366 974 L366 977 L368 980 L353 989 L343 1000 L337 1011 L333 1026 L333 1036 Z M352 973 L345 977 L338 983 L328 995 L319 1012 L314 1029 L314 1047 L319 1059 L328 1068 L334 1071 L342 1073 L346 1073 L347 1072 L341 1072 L331 1068 L321 1058 L316 1045 L316 1029 L321 1012 L329 997 L334 990 L346 978 L351 975 Z M345 962 L335 968 L327 977 L322 985 L314 1004 L314 1007 L310 1017 L307 1029 L306 1041 L305 1042 L305 1059 L306 1060 L306 1064 L309 1071 L314 1076 L321 1079 L326 1078 L321 1078 L315 1075 L311 1071 L307 1059 L307 1041 L308 1040 L308 1033 L309 1032 L310 1023 L316 1003 L325 983 L335 970 L345 963 Z M389 959 L390 958 L391 959 L390 960 Z M361 957 L362 958 L359 963 L354 960 L359 957 Z M731 953 L732 952 L733 953 L732 954 Z M636 949 L643 956 L652 968 L658 980 L658 982 L661 986 L660 987 L655 987 L650 990 L649 989 L646 976 L643 971 L639 958 L635 951 Z M634 949 L635 948 L636 949 L635 950 Z M387 947 L387 952 L390 958 L389 959 L377 959 L364 962 L363 958 L361 957 L384 946 Z M755 949 L758 959 L759 971 L760 972 L760 1000 L759 1001 L758 1015 L757 1016 L757 1021 L756 1022 L751 1051 L743 1082 L736 1102 L736 1105 L734 1108 L729 1125 L727 1128 L717 1156 L703 1186 L684 1214 L671 1228 L657 1240 L645 1247 L630 1252 L626 1252 L612 1256 L583 1260 L582 1261 L563 1262 L562 1263 L536 1263 L535 1262 L522 1261 L499 1254 L472 1239 L447 1218 L434 1205 L425 1194 L414 1177 L409 1167 L403 1149 L398 1142 L400 1140 L412 1140 L424 1144 L433 1154 L437 1167 L444 1174 L454 1179 L464 1176 L470 1187 L478 1193 L487 1194 L492 1191 L494 1192 L493 1191 L494 1189 L497 1194 L502 1199 L508 1202 L518 1203 L524 1201 L528 1196 L528 1180 L527 1180 L526 1196 L521 1200 L510 1200 L503 1197 L497 1189 L497 1180 L499 1176 L546 1174 L574 1167 L593 1158 L595 1156 L606 1152 L621 1143 L637 1131 L648 1120 L651 1121 L657 1114 L659 1118 L660 1128 L663 1135 L669 1136 L674 1133 L678 1127 L681 1116 L679 1108 L673 1098 L672 1094 L686 1073 L688 1068 L691 1064 L695 1069 L699 1071 L709 1070 L715 1067 L721 1059 L722 1056 L722 1046 L721 1043 L716 1036 L714 1038 L712 1035 L711 1035 L711 1037 L713 1042 L715 1040 L719 1046 L719 1056 L716 1062 L711 1066 L701 1056 L698 1054 L697 1055 L696 1053 L710 1023 L723 988 L726 985 L729 990 L731 999 L730 1000 L728 999 L729 1001 L729 1011 L726 1021 L723 1025 L724 1030 L723 1031 L718 1026 L713 1023 L713 1024 L726 1036 L723 1040 L726 1038 L727 1039 L727 1046 L718 1082 L708 1101 L686 1124 L677 1137 L669 1152 L661 1160 L644 1173 L629 1180 L626 1179 L633 1172 L635 1168 L635 1161 L636 1160 L637 1161 L644 1161 L653 1157 L659 1152 L662 1146 L663 1139 L661 1140 L658 1149 L653 1154 L646 1157 L642 1145 L636 1136 L636 1139 L639 1143 L644 1157 L642 1159 L638 1159 L636 1157 L633 1147 L634 1139 L633 1139 L631 1143 L631 1148 L635 1159 L633 1160 L633 1167 L632 1170 L625 1177 L620 1179 L615 1177 L612 1174 L607 1160 L603 1156 L610 1175 L614 1179 L618 1181 L629 1182 L645 1175 L659 1165 L671 1152 L680 1136 L683 1133 L684 1136 L680 1148 L680 1156 L681 1157 L683 1171 L682 1172 L679 1166 L675 1164 L672 1164 L668 1166 L663 1171 L656 1187 L656 1190 L659 1192 L658 1191 L658 1187 L665 1172 L669 1168 L673 1167 L675 1169 L676 1173 L676 1187 L672 1193 L672 1196 L678 1188 L679 1183 L682 1177 L682 1172 L684 1171 L684 1162 L682 1156 L682 1150 L685 1138 L691 1127 L691 1125 L689 1127 L688 1125 L710 1102 L718 1088 L724 1071 L727 1059 L727 1054 L729 1049 L729 1036 L733 1029 L734 1021 L735 1020 L734 998 L727 980 L736 952 L739 947 L741 947 L746 944 L752 946 Z M402 943 L408 946 L413 953 L413 958 L410 961 L403 960 L399 955 L398 948 Z M387 946 L390 943 L398 940 L416 939 L423 945 L427 953 L426 963 L424 965 L412 964 L411 963 L415 959 L415 952 L412 947 L405 942 L400 942 L396 947 L396 953 L401 961 L400 962 L396 961 L391 956 L389 952 L389 948 Z M767 939 L764 938 L771 944 L778 956 L781 966 L782 981 L783 982 L782 985 L783 987 L782 1022 L781 1023 L780 1022 L780 1015 L771 1067 L753 1128 L752 1129 L750 1128 L748 1130 L738 1156 L729 1174 L724 1181 L720 1190 L706 1212 L704 1217 L695 1230 L654 1271 L639 1280 L615 1288 L605 1289 L604 1290 L594 1290 L593 1291 L567 1290 L537 1283 L511 1273 L515 1276 L540 1285 L564 1291 L582 1292 L583 1293 L603 1292 L604 1291 L609 1291 L622 1288 L636 1283 L649 1276 L659 1269 L681 1248 L699 1228 L700 1225 L703 1222 L713 1206 L725 1183 L727 1181 L741 1153 L751 1128 L752 1132 L748 1143 L745 1159 L743 1163 L739 1180 L737 1183 L731 1202 L716 1235 L698 1265 L685 1281 L668 1296 L656 1304 L638 1313 L621 1319 L609 1322 L604 1322 L603 1323 L595 1323 L594 1324 L571 1323 L570 1322 L553 1319 L530 1310 L529 1311 L555 1321 L568 1324 L574 1324 L575 1325 L602 1325 L603 1324 L617 1322 L640 1314 L654 1307 L668 1298 L677 1291 L691 1277 L706 1256 L716 1239 L721 1228 L723 1226 L723 1224 L732 1205 L734 1197 L742 1177 L752 1136 L761 1110 L761 1107 L764 1100 L764 1097 L767 1090 L769 1079 L773 1067 L775 1052 L777 1046 L778 1033 L779 1032 L779 1023 L780 1022 L781 1023 L781 1033 L780 1034 L780 1042 L779 1043 L779 1048 L778 1049 L778 1054 L776 1062 L780 1049 L780 1044 L783 1031 L784 1005 L785 1004 L784 974 L779 954 L775 947 Z M419 939 L422 937 L431 937 L432 938 L440 939 L457 946 L468 953 L469 955 L462 961 L454 964 L452 963 L451 964 L428 965 L427 964 L429 961 L428 949 L425 944 Z M418 938 L419 937 L420 938 L419 939 Z M798 918 L804 920 L810 926 L812 930 L816 946 L817 960 L818 961 L818 971 L819 972 L818 1020 L817 1021 L816 1035 L815 1036 L814 1048 L813 1049 L813 1054 L812 1055 L809 1074 L805 1090 L792 1127 L792 1130 L787 1143 L787 1146 L785 1149 L785 1152 L761 1212 L736 1260 L719 1284 L707 1296 L706 1294 L714 1285 L727 1264 L741 1234 L761 1179 L761 1176 L765 1166 L766 1159 L771 1146 L772 1140 L774 1137 L778 1123 L787 1103 L794 1081 L794 1077 L798 1063 L800 1046 L801 1045 L802 1027 L803 1026 L803 1012 L804 1011 L804 977 L803 976 L803 967 L802 966 L802 960 L801 959 L800 951 L794 937 L786 928 L778 925 L785 921 L794 918 Z M811 924 L806 919 L801 917 L791 917 L785 919 L721 956 L686 973 L694 971 L730 953 L732 954 L697 979 L689 983 L672 988 L666 988 L663 986 L658 976 L658 974 L646 956 L635 945 L629 941 L618 937 L611 937 L604 940 L596 948 L592 955 L589 964 L588 979 L589 979 L590 967 L593 957 L598 948 L604 942 L611 939 L616 939 L627 943 L631 947 L639 964 L638 966 L632 960 L620 954 L610 954 L605 956 L601 960 L608 956 L613 956 L614 955 L620 956 L629 960 L639 970 L643 977 L646 986 L647 1007 L646 1008 L646 1014 L644 1016 L640 1012 L634 1012 L630 1014 L627 1018 L624 1017 L621 1026 L621 1043 L613 1065 L609 1072 L596 1085 L590 1088 L581 1089 L581 1090 L589 1090 L602 1083 L612 1071 L619 1054 L622 1058 L626 1060 L622 1062 L619 1062 L621 1063 L626 1062 L633 1057 L637 1050 L637 1035 L644 1026 L647 1018 L648 1009 L649 1008 L649 993 L653 990 L661 990 L662 989 L672 990 L692 984 L707 975 L731 956 L732 958 L724 976 L713 1009 L699 1041 L699 1043 L689 1063 L672 1090 L656 1109 L636 1129 L617 1143 L602 1151 L601 1150 L615 1136 L618 1128 L617 1118 L611 1099 L611 1093 L610 1092 L610 1088 L612 1082 L609 1087 L609 1098 L616 1123 L615 1131 L609 1141 L599 1150 L588 1158 L576 1164 L568 1167 L551 1171 L545 1171 L544 1172 L536 1172 L535 1173 L520 1173 L519 1172 L534 1163 L541 1155 L544 1148 L546 1134 L547 1133 L547 1125 L546 1124 L546 1132 L545 1133 L544 1143 L542 1149 L537 1157 L524 1167 L511 1173 L505 1173 L479 1166 L438 1145 L413 1138 L428 1134 L442 1127 L454 1118 L469 1101 L473 1094 L475 1086 L470 1097 L459 1111 L446 1122 L435 1129 L426 1133 L416 1136 L404 1137 L403 1138 L365 1138 L364 1137 L342 1135 L359 1139 L352 1141 L346 1145 L342 1152 L341 1156 L341 1176 L343 1182 L343 1187 L347 1203 L356 1228 L366 1248 L384 1275 L408 1300 L430 1318 L440 1325 L444 1326 L456 1335 L471 1342 L480 1344 L457 1334 L439 1320 L411 1291 L393 1262 L380 1234 L373 1214 L368 1194 L368 1189 L365 1176 L365 1159 L366 1158 L366 1154 L370 1146 L375 1141 L387 1141 L388 1142 L390 1141 L391 1142 L389 1144 L388 1148 L388 1161 L387 1162 L387 1173 L386 1174 L387 1190 L391 1206 L392 1206 L392 1204 L391 1203 L389 1187 L388 1186 L388 1167 L390 1159 L392 1167 L393 1182 L399 1207 L403 1218 L412 1236 L433 1265 L449 1281 L462 1290 L475 1296 L483 1298 L491 1298 L491 1297 L484 1297 L474 1294 L464 1289 L450 1279 L434 1263 L414 1235 L404 1215 L399 1200 L395 1183 L393 1165 L390 1158 L390 1144 L391 1143 L395 1145 L396 1147 L398 1146 L403 1155 L408 1170 L423 1195 L432 1206 L450 1224 L462 1234 L482 1248 L496 1255 L513 1261 L521 1263 L526 1263 L527 1264 L534 1264 L535 1265 L563 1265 L564 1264 L574 1264 L575 1263 L582 1263 L583 1262 L607 1259 L608 1258 L612 1258 L613 1257 L622 1256 L626 1254 L634 1253 L646 1249 L657 1242 L659 1243 L658 1242 L662 1238 L664 1239 L673 1233 L676 1230 L675 1227 L693 1206 L694 1203 L702 1192 L713 1171 L721 1150 L724 1145 L732 1121 L734 1118 L748 1073 L751 1057 L753 1052 L753 1048 L755 1043 L758 1024 L759 1023 L761 1003 L762 1002 L762 969 L761 968 L760 957 L757 949 L753 945 L748 943 L766 932 L776 927 L780 927 L784 929 L793 939 L797 948 L800 961 L800 966 L801 967 L801 975 L802 976 L802 1011 L801 1012 L801 1026 L800 1027 L800 1036 L799 1037 L797 1057 L796 1058 L796 1062 L790 1088 L785 1103 L775 1126 L772 1137 L770 1140 L769 1146 L766 1153 L766 1156 L764 1159 L762 1169 L752 1200 L748 1208 L746 1216 L735 1241 L735 1243 L723 1267 L712 1284 L703 1295 L678 1319 L650 1338 L632 1346 L609 1352 L578 1353 L577 1352 L571 1352 L570 1351 L565 1351 L553 1348 L533 1341 L548 1348 L572 1354 L601 1355 L602 1354 L614 1353 L635 1347 L652 1339 L668 1329 L688 1313 L690 1313 L700 1305 L721 1284 L743 1252 L750 1237 L753 1233 L754 1234 L755 1228 L769 1199 L779 1174 L780 1169 L782 1166 L787 1149 L793 1134 L793 1131 L797 1121 L798 1115 L806 1095 L806 1092 L810 1080 L811 1071 L813 1066 L814 1056 L815 1055 L818 1029 L819 1028 L819 1020 L820 1019 L820 1007 L821 1006 L820 962 L819 961 L819 954 L818 953 L816 937 Z M591 925 L593 925 L597 921 L604 918 L617 918 L634 925 L640 929 L656 946 L663 959 L667 974 L666 963 L658 946 L652 938 L643 929 L630 921 L615 916 L603 917 L597 920 Z M508 904 L504 913 L504 917 L500 933 L497 940 L497 943 L491 957 L462 933 L453 927 L433 919 L421 918 L420 917 L403 918 L393 921 L379 928 L368 936 L357 941 L348 941 L338 936 L341 940 L344 941 L343 942 L334 943 L336 950 L339 953 L354 963 L366 969 L368 969 L368 968 L362 965 L363 964 L387 961 L388 962 L395 962 L401 965 L411 966 L412 967 L456 966 L463 970 L459 965 L463 963 L471 956 L477 961 L480 968 L482 969 L478 960 L469 951 L454 942 L452 942 L442 937 L431 934 L414 933 L413 934 L404 935 L393 939 L380 946 L378 946 L372 950 L351 958 L339 951 L336 948 L335 945 L336 944 L351 944 L352 943 L360 942 L367 939 L387 926 L399 921 L408 920 L409 919 L427 920 L440 924 L455 932 L470 943 L481 953 L489 962 L482 973 L483 974 L489 966 L491 962 L490 961 L492 960 L500 942 L500 939 L505 923 Z M805 877 L806 876 L807 878 L806 879 Z M806 874 L807 873 L808 875 L807 876 Z M561 876 L563 873 L571 873 L572 874 L563 878 Z M808 869 L809 870 L808 874 L807 873 Z M332 857 L333 856 L334 857 L333 858 Z M333 855 L334 854 L335 856 L334 857 Z M658 843 L663 851 L668 855 L660 861 L644 869 L629 879 L627 879 L626 876 L631 867 L643 860 L653 850 Z M692 840 L693 839 L694 840 L693 841 Z M693 839 L694 838 L695 839 L694 840 Z M660 839 L661 838 L662 839 L661 840 Z M694 838 L695 837 L696 838 L695 839 Z M668 836 L672 843 L679 847 L678 849 L672 853 L669 853 L666 851 L661 844 L661 842 Z M661 837 L676 825 L677 826 L676 828 L676 836 L678 839 L685 843 L683 845 L677 845 L673 842 L671 836 L667 835 L662 839 Z M676 825 L677 824 L678 825 L677 826 Z M686 822 L689 822 L694 826 L695 833 L690 839 L683 840 L678 835 L678 829 L682 824 Z M699 813 L703 818 L707 830 L703 834 L696 838 L695 837 L697 833 L696 825 L692 821 L686 819 Z M812 855 L811 855 L811 863 L809 870 L808 869 L808 858 L805 848 L797 835 L790 828 L781 822 L767 817 L760 817 L759 816 L756 817 L754 813 L753 832 L749 847 L742 861 L730 877 L715 891 L702 900 L681 909 L673 910 L672 911 L666 911 L665 912 L664 911 L663 912 L672 912 L673 911 L681 910 L701 902 L720 889 L736 873 L743 863 L750 849 L754 836 L755 818 L756 817 L757 818 L764 818 L772 820 L788 829 L799 841 L805 855 L805 862 L806 863 L805 873 L800 884 L792 891 L788 892 L778 891 L779 892 L783 893 L794 892 L801 888 L806 883 L809 878 L812 868 Z M767 806 L780 811 L787 816 L794 823 L793 820 L787 814 L781 810 L771 806 Z M781 798 L781 799 L785 800 L795 806 L808 819 L815 829 L823 846 L824 846 L818 831 L810 819 L796 805 L783 798 Z M729 797 L730 796 L731 797 L730 798 Z M327 869 L329 868 L331 863 L344 847 L356 836 L366 829 L379 822 L390 818 L401 817 L402 816 L414 816 L415 817 L421 817 L437 822 L445 826 L458 835 L486 862 L497 877 L499 882 L500 882 L498 876 L491 865 L464 837 L449 826 L435 819 L421 815 L401 814 L400 815 L394 815 L386 817 L383 819 L378 820 L359 831 L335 855 L334 854 L334 852 L339 842 L345 833 L358 820 L371 811 L383 805 L402 800 L427 800 L445 805 L455 810 L468 819 L479 830 L485 838 L495 847 L506 853 L508 853 L523 860 L530 860 L533 859 L533 858 L531 859 L524 859 L499 848 L493 844 L485 836 L471 819 L456 808 L446 803 L434 799 L412 797 L411 798 L400 798 L385 802 L372 808 L357 818 L349 825 L337 841 L331 854 L330 861 Z M795 788 L796 790 L801 792 L809 799 L817 811 L825 832 L826 840 L829 850 L829 855 L830 856 L830 871 L827 882 L821 892 L812 900 L817 897 L826 888 L829 882 L832 870 L831 850 L827 833 L822 818 L816 806 L806 794 Z M765 788 L766 787 L767 788 L766 789 Z M713 786 L714 785 L716 786 L715 787 Z M717 785 L718 784 L719 785 L718 786 Z M788 770 L776 782 L741 792 L718 796 L709 799 L697 806 L697 808 L699 808 L706 803 L714 800 L718 801 L721 800 L724 797 L728 798 L723 800 L727 801 L737 795 L751 792 L762 788 L766 789 L717 823 L710 829 L707 826 L706 820 L702 814 L702 812 L712 806 L712 804 L681 819 L669 827 L658 837 L652 848 L642 858 L634 862 L628 867 L624 875 L624 880 L625 881 L620 887 L619 893 L625 899 L635 904 L642 906 L629 900 L621 893 L621 890 L623 886 L627 882 L652 867 L654 869 L659 864 L687 845 L691 844 L703 837 L735 813 L775 786 L782 780 L787 778 L789 775 L787 777 L785 776 Z M782 757 L773 765 L759 773 L739 779 L728 780 L727 781 L710 784 L694 790 L676 800 L658 814 L637 836 L620 861 L611 883 L606 879 L598 875 L588 872 L583 872 L582 871 L554 872 L548 866 L548 860 L550 857 L549 856 L547 859 L546 865 L548 870 L551 873 L548 876 L548 878 L552 874 L557 874 L558 875 L557 876 L558 875 L560 877 L560 879 L555 885 L546 880 L542 880 L541 879 L529 881 L514 890 L498 905 L494 907 L495 908 L500 905 L522 887 L533 882 L537 881 L546 882 L555 888 L555 911 L556 912 L559 962 L560 963 L560 974 L561 975 L562 1001 L563 1002 L564 1019 L565 1020 L565 1027 L566 1028 L567 1041 L568 1042 L569 1054 L570 1055 L573 1084 L574 1084 L574 1076 L573 1075 L573 1065 L572 1064 L572 1055 L571 1054 L568 1007 L567 1006 L566 987 L565 986 L565 978 L564 977 L561 944 L560 943 L559 922 L558 921 L557 883 L561 879 L564 879 L570 876 L586 875 L587 876 L592 876 L600 878 L612 884 L626 856 L639 837 L660 815 L674 804 L685 797 L704 788 L710 786 L714 787 L712 788 L716 788 L759 775 L773 767 Z M267 745 L266 748 L267 749 L267 759 L268 760 L269 778 L270 779 L270 786 L271 787 L273 822 L274 823 L274 833 L275 834 L275 848 L276 849 L275 880 L274 881 L274 888 L273 889 L271 911 L270 912 L270 938 L271 939 L271 944 L274 956 L286 992 L286 996 L288 1002 L288 1026 L287 1027 L286 1039 L285 1040 L281 1062 L279 1066 L277 1076 L275 1079 L270 1094 L267 1108 L265 1112 L265 1117 L266 1117 L266 1113 L269 1106 L269 1103 L283 1063 L287 1046 L289 1028 L290 1027 L290 1018 L291 1017 L289 995 L277 959 L273 943 L273 938 L272 937 L272 916 L273 915 L273 907 L274 906 L274 898 L275 897 L275 890 L276 889 L276 882 L277 881 L277 871 L278 870 L278 846 L277 845 L277 832 L276 831 L273 785 L272 784 L272 777 L271 776 L269 754 L268 753 Z M753 727 L746 720 L728 710 L721 708 L715 708 L714 707 L700 707 L699 708 L689 709 L674 714 L657 723 L645 732 L630 747 L621 759 L612 773 L601 796 L595 817 L593 832 L592 833 L592 842 L591 843 L592 855 L596 865 L600 869 L594 857 L594 852 L593 851 L594 834 L595 833 L595 828 L596 827 L600 806 L605 792 L614 774 L625 757 L633 747 L647 733 L662 722 L676 715 L699 709 L715 709 L716 710 L725 711 L735 715 L747 723 L752 728 L759 739 L760 739 Z M757 718 L749 709 L741 703 L726 696 L718 694 L713 694 L712 693 L685 693 L684 694 L679 694 L659 700 L636 713 L612 737 L603 751 L594 769 L584 796 L578 820 L574 846 L575 847 L576 844 L577 833 L579 828 L579 824 L581 819 L584 803 L595 772 L607 748 L613 739 L624 726 L638 714 L657 703 L679 696 L684 696 L685 695 L702 694 L703 695 L719 696 L731 700 L741 705 L756 719 L762 729 L764 730 Z M560 688 L561 687 L562 688 L561 689 Z M561 686 L562 685 L563 687 L562 688 Z M869 685 L869 686 L883 692 L883 691 Z M856 675 L861 679 L860 677 Z M587 644 L588 643 L589 644 L588 645 Z M588 642 L589 641 L590 642 L589 643 Z M589 641 L590 640 L591 641 L590 642 Z M590 640 L591 639 L592 640 L591 641 Z M591 639 L592 638 L593 639 L592 640 Z M750 680 L742 666 L728 652 L722 648 L706 641 L698 640 L697 639 L691 639 L690 638 L671 638 L670 639 L657 640 L640 645 L622 653 L603 666 L590 679 L583 688 L567 716 L558 728 L544 741 L531 750 L513 759 L492 764 L475 764 L474 763 L469 763 L456 760 L448 757 L444 757 L433 754 L426 754 L425 753 L415 753 L414 754 L408 754 L397 757 L388 761 L376 769 L357 788 L347 807 L344 823 L345 823 L346 820 L346 816 L350 804 L356 793 L362 785 L382 767 L397 759 L408 756 L425 755 L426 756 L434 756 L435 757 L444 758 L468 765 L491 766 L492 765 L498 765 L499 764 L507 763 L528 754 L547 741 L563 725 L587 686 L606 666 L624 654 L640 647 L657 642 L669 641 L670 640 L692 640 L712 645 L722 650 L729 655 L742 669 L750 684 L754 703 L755 703 L753 689 Z M592 638 L593 637 L594 638 L593 639 Z M768 656 L758 639 L747 627 L727 613 L709 605 L696 602 L690 602 L689 601 L667 601 L666 602 L650 604 L638 608 L611 622 L593 634 L582 647 L577 660 L562 681 L556 694 L551 700 L533 716 L513 727 L499 732 L495 732 L489 734 L481 734 L480 735 L454 733 L453 732 L448 732 L447 731 L443 731 L432 728 L426 728 L425 727 L404 727 L382 733 L365 743 L350 757 L339 773 L333 785 L328 800 L326 813 L325 814 L324 837 L325 838 L326 818 L327 817 L328 808 L330 804 L332 794 L341 774 L352 758 L363 747 L373 740 L387 733 L402 729 L426 729 L427 730 L438 731 L439 732 L460 735 L461 736 L487 736 L488 735 L493 735 L501 733 L517 727 L540 713 L559 694 L574 674 L601 650 L618 638 L637 629 L654 624 L665 623 L666 622 L695 622 L696 623 L709 625 L721 629 L741 640 L754 653 L761 663 L764 670 L762 663 L751 647 L740 637 L732 632 L721 627 L700 621 L695 621 L694 620 L666 620 L665 621 L659 621 L643 625 L640 627 L627 631 L625 633 L616 637 L603 646 L586 660 L572 674 L563 686 L562 684 L578 661 L587 644 L588 645 L601 631 L620 619 L638 610 L654 605 L666 604 L667 603 L695 604 L711 608 L721 612 L739 623 L756 639 L761 646 L768 660 L774 681 L774 687 L775 688 L774 707 L775 707 L775 701 L776 700 L775 680 L774 679 L773 670 Z M778 638 L768 622 L756 609 L740 597 L723 588 L709 583 L695 581 L694 580 L671 579 L670 580 L649 581 L621 589 L609 595 L596 604 L581 620 L570 637 L560 656 L548 672 L535 684 L515 696 L496 703 L483 706 L478 706 L477 707 L450 707 L449 706 L443 706 L442 705 L437 705 L436 704 L431 704 L418 701 L391 701 L374 706 L357 716 L345 727 L335 740 L326 757 L317 788 L316 811 L314 818 L314 829 L313 830 L314 848 L318 865 L319 866 L316 854 L316 848 L315 847 L315 827 L316 826 L316 818 L319 806 L319 803 L318 804 L317 803 L318 791 L323 771 L325 768 L330 753 L341 735 L355 720 L363 714 L374 708 L390 703 L406 702 L407 703 L419 703 L420 704 L431 705 L443 708 L451 708 L452 709 L475 709 L476 708 L492 706 L515 698 L534 687 L553 669 L561 658 L570 641 L583 621 L598 605 L611 596 L621 591 L648 583 L667 582 L668 581 L681 581 L682 582 L694 582 L695 583 L705 584 L723 590 L735 596 L747 604 L766 622 L776 637 L782 652 L785 665 L786 676 L785 659 Z M816 677 L815 676 L815 667 L814 666 L813 655 L809 641 L804 631 L804 629 L793 611 L773 590 L755 578 L741 571 L722 564 L705 561 L704 560 L689 559 L688 558 L662 558 L661 559 L652 559 L651 560 L638 561 L618 566 L607 570 L587 581 L569 598 L554 622 L547 637 L538 650 L523 664 L508 673 L492 679 L479 682 L473 682 L472 683 L448 682 L447 681 L442 681 L441 680 L436 680 L423 677 L405 676 L404 675 L382 677 L363 685 L355 691 L347 700 L341 711 L343 710 L348 701 L359 690 L373 682 L382 679 L405 677 L406 678 L423 679 L424 680 L448 683 L449 684 L469 685 L470 684 L484 683 L506 676 L525 665 L537 654 L545 644 L567 604 L585 585 L595 578 L609 571 L632 564 L649 562 L650 561 L658 561 L659 560 L690 560 L691 561 L700 561 L701 562 L716 564 L737 571 L755 580 L770 590 L786 605 L793 614 L805 636 L809 647 L812 660 L813 680 L814 681 L814 697 L813 698 L812 722 L811 723 L811 729 L810 730 L810 735 L809 736 L809 741 L808 742 L808 747 L807 748 L807 753 L806 754 L803 774 L808 758 L812 731 L813 730 L813 724 L814 723 L815 704 L816 703 Z M772 338 L777 340 L781 340 L790 343 L806 346 L820 351 L828 356 L834 362 L837 367 L836 459 L835 460 L835 484 L834 485 L834 505 L833 506 L832 535 L836 538 L846 540 L866 547 L860 554 L856 562 L853 575 L853 584 L852 585 L851 729 L852 728 L852 687 L853 686 L854 582 L855 581 L855 573 L858 562 L863 552 L868 547 L871 550 L873 557 L873 569 L872 570 L873 574 L872 575 L872 588 L873 591 L872 593 L873 594 L873 623 L874 624 L874 641 L875 642 L875 663 L879 668 L887 673 L894 680 L897 686 L897 692 L893 697 L879 697 L877 696 L876 697 L876 704 L877 705 L877 719 L878 720 L878 733 L879 734 L881 767 L882 768 L882 776 L883 777 L883 786 L884 787 L884 796 L885 797 L887 821 L888 822 L890 840 L891 841 L894 864 L895 865 L898 887 L899 888 L902 916 L903 917 L903 924 L904 925 L904 952 L903 953 L903 957 L898 967 L889 975 L883 978 L872 981 L849 981 L848 980 L847 884 L848 883 L848 862 L849 861 L850 824 L851 823 L851 769 L850 768 L849 751 L846 738 L840 721 L837 716 L827 691 L822 670 L821 652 L820 651 L820 637 L819 636 L819 621 L818 620 L817 574 L816 573 L816 550 L815 546 L814 547 L815 596 L816 597 L817 639 L818 640 L820 671 L826 694 L844 737 L847 750 L847 755 L848 756 L848 765 L849 766 L849 820 L848 821 L848 840 L847 841 L847 860 L846 861 L845 921 L844 922 L844 928 L845 929 L846 981 L847 983 L841 994 L832 1020 L831 1027 L827 1038 L826 1045 L824 1049 L822 1060 L820 1064 L818 1075 L816 1079 L812 1097 L808 1108 L807 1115 L793 1157 L793 1160 L783 1190 L773 1215 L740 1282 L715 1322 L696 1346 L683 1359 L669 1370 L649 1382 L631 1390 L618 1394 L604 1396 L603 1397 L597 1397 L596 1398 L588 1398 L587 1399 L557 1399 L556 1398 L548 1398 L547 1397 L537 1396 L517 1390 L503 1383 L501 1383 L474 1367 L458 1355 L411 1314 L374 1277 L357 1256 L339 1228 L325 1197 L320 1182 L314 1158 L310 1152 L309 1145 L307 1141 L301 1117 L299 1102 L298 1101 L297 1087 L296 1086 L296 1075 L295 1074 L296 1033 L297 1032 L298 1015 L299 1014 L300 1002 L301 1001 L304 981 L314 951 L316 940 L318 937 L327 945 L329 945 L315 931 L307 920 L300 907 L292 883 L291 869 L290 868 L290 849 L291 848 L291 837 L292 836 L292 827 L293 826 L294 813 L295 812 L295 807 L296 806 L296 801 L297 800 L297 795 L298 794 L298 789 L299 788 L302 769 L304 764 L304 760 L308 744 L312 733 L313 726 L324 692 L327 680 L327 675 L328 674 L328 665 L327 665 L327 672 L326 673 L325 682 L313 719 L313 722 L309 733 L300 769 L300 773 L295 794 L294 805 L293 806 L293 812 L292 813 L291 826 L290 827 L290 835 L289 836 L289 846 L288 847 L288 869 L289 870 L289 877 L290 878 L292 891 L303 917 L317 936 L315 939 L313 949 L303 976 L303 980 L299 996 L299 1001 L297 1007 L295 1031 L294 1032 L294 1042 L293 1043 L293 1078 L294 1079 L295 1095 L296 1096 L296 1102 L297 1103 L300 1122 L308 1149 L307 1150 L290 1151 L289 1150 L283 1150 L271 1145 L262 1135 L258 1124 L256 1099 L255 1098 L255 1089 L254 1088 L254 1079 L253 1078 L253 1067 L252 1066 L252 1055 L251 1054 L251 1043 L250 1042 L249 1016 L248 1015 L248 1004 L247 1003 L247 992 L246 991 L246 979 L245 978 L244 955 L243 954 L243 944 L242 943 L240 908 L239 905 L236 902 L228 900 L223 896 L221 892 L222 884 L229 877 L234 874 L235 872 L235 864 L234 863 L234 855 L233 854 L230 823 L229 822 L228 808 L226 801 L225 787 L222 774 L220 755 L222 753 L223 754 L223 756 L228 763 L234 778 L242 810 L246 838 L249 848 L250 857 L255 877 L260 891 L254 867 L254 863 L252 858 L252 854 L248 838 L247 826 L244 815 L244 810 L242 805 L242 801 L238 785 L233 770 L228 760 L222 753 L225 751 L253 746 L258 744 L260 741 L262 730 L268 717 L285 693 L311 668 L347 642 L391 616 L423 600 L425 600 L448 589 L458 586 L471 580 L479 578 L482 576 L515 565 L518 565 L525 562 L536 560 L540 558 L572 550 L576 550 L577 549 L581 549 L586 547 L606 544 L612 542 L618 542 L619 541 L643 538 L644 537 L650 537 L651 536 L657 536 L658 535 L683 533 L684 532 L693 532 L694 531 L705 531 L706 530 L719 530 L720 529 L796 528 L797 529 L809 530 L820 534 L825 534 L826 535 L830 535 L830 534 L818 530 L814 530 L804 527 L798 527 L797 526 L739 526 L738 527 L720 527 L719 528 L705 528 L704 529 L674 531 L673 532 L666 532 L665 533 L658 533 L657 534 L643 535 L630 538 L624 538 L623 539 L612 540 L611 541 L601 542 L581 547 L572 548 L532 558 L481 574 L424 597 L388 615 L357 633 L328 652 L305 670 L283 692 L267 714 L259 733 L258 732 L245 663 L243 658 L241 643 L240 642 L240 638 L235 617 L235 612 L233 606 L233 600 L231 594 L231 588 L230 587 L229 574 L228 573 L228 564 L227 563 L228 540 L230 534 L238 520 L246 510 L261 495 L316 454 L346 435 L395 410 L397 410 L418 400 L443 390 L448 389 L456 385 L491 373 L494 373 L501 370 L529 363 L533 361 L545 359 L549 357 L553 357 L566 353 L575 352 L580 350 L600 347 L606 345 L611 345 L612 344 L617 344 L618 343 L623 343 L624 342 L629 342 L630 341 L637 341 L638 340 L660 338 L661 337 L670 337 L671 336 L698 335 L699 334 L743 334 L744 335 L753 335 L754 336 Z M788 338 L787 340 L767 335 L745 333 L744 332 L698 332 L697 333 L696 332 L695 333 L684 333 L683 334 L671 334 L670 335 L661 335 L660 336 L629 339 L628 340 L611 342 L605 344 L600 344 L599 345 L575 349 L570 351 L566 351 L557 354 L553 354 L529 360 L525 362 L518 363 L514 365 L507 366 L484 374 L481 374 L478 376 L475 376 L472 378 L442 388 L410 402 L408 402 L403 405 L401 405 L392 410 L390 410 L352 429 L345 434 L335 439 L302 461 L268 487 L267 486 L273 461 L282 436 L300 398 L310 383 L340 347 L369 316 L384 308 L397 304 L400 302 L421 299 L422 298 L442 295 L447 293 L452 293 L463 290 L468 290 L469 289 L474 289 L475 288 L480 288 L486 286 L504 284 L517 281 L530 280 L537 278 L543 278 L544 277 L550 277 L551 276 L557 276 L565 274 L572 274 L573 273 L580 273 L588 271 L595 271 L596 270 L603 270 L604 269 L611 269 L612 268 L619 268 L620 267 L629 267 L630 266 L638 266 L639 265 L647 265 L648 264 L667 262 L688 256 L692 256 L701 253 L707 250 L710 247 L712 247 L727 254 L740 262 L761 282 L770 295 L778 310 Z M463 168 L464 169 L460 176 L460 186 L476 206 L493 223 L492 224 L474 225 L473 226 L466 226 L465 227 L449 229 L433 234 L430 234 L409 242 L401 246 L386 257 L380 263 L370 277 L369 276 L369 266 L370 265 L371 256 L373 253 L375 245 L384 225 L396 207 L409 193 L421 184 L443 173 L459 168 Z M702 210 L703 219 L704 220 L704 240 L709 246 L707 248 L698 252 L655 262 L618 265 L617 266 L594 268 L593 269 L564 272 L556 274 L549 274 L548 275 L542 275 L535 277 L509 280 L508 281 L491 283 L485 285 L468 287 L462 289 L451 290 L450 291 L431 294 L426 296 L402 299 L383 306 L375 311 L373 310 L376 307 L376 301 L373 294 L369 289 L369 285 L377 270 L385 261 L399 250 L410 244 L431 236 L434 236 L450 231 L474 228 L475 227 L510 226 L511 227 L518 227 L531 230 L538 230 L549 237 L559 240 L575 240 L576 239 L580 239 L589 236 L603 229 L606 226 L607 221 L610 216 L618 209 L626 204 L636 193 L639 183 L650 171 L659 167 L669 168 L682 177 L695 193 Z M435 137 L439 139 L445 146 L465 164 L463 166 L443 171 L424 180 L408 191 L395 205 L380 228 L374 243 L371 254 L369 257 L368 265 L367 266 L367 275 L368 276 L368 285 L367 286 L356 274 L354 269 L354 251 L355 250 L357 236 L360 228 L360 222 L359 219 L356 216 L350 213 L346 209 L348 201 L360 181 L369 171 L398 156 L409 149 L413 145 L418 149 L416 145 L417 141 L429 137 Z M318 96 L332 96 L343 101 L352 108 L371 107 L381 110 L394 118 L405 129 L412 141 L412 143 L404 150 L367 170 L356 183 L352 191 L348 196 L343 207 L326 193 L304 171 L293 155 L287 139 L287 128 L286 127 L287 126 L287 121 L291 114 L301 105 Z M317 94 L303 101 L294 108 L287 116 L284 124 L284 132 L285 133 L286 144 L289 152 L296 164 L307 178 L334 203 L346 213 L354 217 L357 220 L358 225 L352 248 L351 267 L354 275 L371 295 L374 301 L374 305 L364 318 L323 363 L303 389 L287 419 L287 421 L278 440 L270 463 L264 490 L243 510 L236 519 L228 533 L225 544 L225 565 L226 566 L226 574 L227 575 L227 581 L228 582 L228 588 L229 589 L232 612 L233 613 L235 628 L239 644 L239 649 L241 654 L241 658 L242 659 L242 663 L243 664 L243 668 L244 669 L244 673 L245 674 L245 678 L251 704 L251 709 L252 710 L252 714 L258 740 L255 743 L221 750 L218 754 L218 761 L219 762 L221 782 L223 789 L223 796 L225 803 L225 809 L226 810 L226 816 L227 817 L227 823 L229 831 L229 839 L231 847 L231 854 L232 855 L232 863 L233 864 L233 871 L231 874 L228 875 L222 880 L219 886 L219 893 L223 899 L228 902 L235 904 L237 906 L238 910 L238 923 L239 924 L239 935 L240 936 L243 980 L244 981 L244 993 L245 994 L245 1006 L246 1007 L246 1018 L247 1019 L250 1069 L251 1070 L251 1080 L252 1081 L252 1091 L253 1092 L253 1102 L254 1103 L256 1125 L260 1136 L270 1147 L278 1151 L286 1153 L307 1152 L310 1155 L314 1165 L319 1186 L326 1206 L337 1229 L352 1253 L371 1277 L393 1300 L413 1319 L458 1358 L489 1379 L511 1390 L528 1396 L545 1399 L546 1400 L554 1400 L555 1401 L589 1401 L590 1400 L611 1398 L623 1395 L642 1388 L659 1379 L677 1367 L699 1346 L724 1313 L749 1270 L775 1216 L793 1168 L796 1155 L810 1113 L811 1106 L815 1095 L816 1088 L821 1073 L823 1062 L825 1058 L835 1018 L842 997 L848 985 L850 983 L874 983 L890 977 L901 967 L906 954 L906 946 L907 945 L906 922 L905 921 L905 913 L904 912 L902 892 L901 891 L900 880 L898 874 L898 869 L897 868 L897 863 L896 862 L896 857 L895 856 L895 851 L894 850 L894 845 L891 832 L889 811 L888 810 L888 802 L887 801 L885 775 L884 774 L884 765 L883 764 L883 755 L882 754 L880 717 L879 716 L879 701 L878 700 L879 699 L890 700 L897 697 L899 693 L899 685 L894 676 L878 664 L877 640 L876 639 L876 620 L875 619 L875 554 L874 550 L869 545 L863 544 L853 540 L850 540 L834 534 L835 530 L835 512 L836 511 L836 492 L837 491 L837 469 L838 468 L839 367 L836 361 L826 352 L807 344 L792 341 L790 339 L784 319 L773 296 L759 276 L744 262 L730 253 L712 245 L707 241 L706 239 L706 219 L705 218 L704 209 L700 198 L689 181 L682 174 L675 169 L666 165 L658 165 L648 170 L637 182 L635 190 L629 198 L608 215 L605 220 L605 223 L600 228 L594 230 L588 234 L578 237 L573 237 L572 238 L556 237 L550 235 L538 228 L520 226 L519 225 L512 225 L511 224 L501 224 L495 222 L479 206 L465 190 L462 185 L462 177 L465 170 L467 168 L467 163 L452 148 L446 144 L440 137 L436 135 L428 135 L418 138 L415 140 L412 137 L408 129 L400 120 L388 111 L380 107 L373 105 L351 105 L344 99 L333 94 L329 93 Z" fill="#eef3f4" fill-rule="evenodd"/>
</svg>
