<svg xmlns="http://www.w3.org/2000/svg" width="1086" height="1448" viewBox="0 0 1086 1448">
  <title>0224</title>
  <path d="M615 1201 L599 1206 L589 1207 L588 1208 L578 1208 L577 1209 L553 1208 L552 1207 L539 1206 L538 1205 L526 1204 L525 1203 L517 1203 L516 1202 L492 1202 L475 1206 L462 1212 L452 1219 L438 1233 L417 1262 L417 1264 L434 1241 L448 1225 L464 1213 L478 1207 L486 1205 L491 1205 L492 1204 L517 1204 L518 1205 L533 1206 L534 1207 L553 1209 L554 1210 L586 1210 L587 1209 L592 1209 L605 1206 L608 1204 L613 1203 Z M639 1074 L640 1075 L639 1079 L638 1078 Z M447 1075 L448 1074 L451 1080 L457 1084 L489 1085 L490 1086 L523 1086 L524 1087 L578 1087 L579 1086 L627 1085 L634 1083 L638 1078 L639 1079 L639 1090 L635 1092 L628 1092 L627 1093 L596 1094 L595 1095 L507 1095 L506 1094 L469 1093 L468 1092 L458 1092 L451 1090 L449 1091 L448 1090 Z M348 1074 L349 1071 L353 1075 L361 1080 L375 1084 L386 1083 L391 1081 L392 1082 L392 1100 L393 1102 L403 1110 L418 1114 L432 1114 L433 1113 L437 1113 L445 1109 L449 1102 L449 1096 L448 1095 L449 1091 L450 1092 L456 1092 L464 1094 L474 1094 L475 1095 L517 1096 L518 1097 L587 1097 L588 1096 L621 1095 L622 1094 L629 1094 L630 1093 L638 1092 L639 1093 L638 1094 L638 1103 L640 1105 L640 1107 L644 1111 L654 1114 L670 1114 L678 1112 L686 1108 L693 1102 L694 1100 L693 1083 L694 1082 L700 1084 L715 1084 L722 1082 L733 1076 L738 1071 L739 1072 L735 1084 L729 1096 L722 1106 L711 1117 L703 1123 L688 1131 L677 1135 L660 1139 L653 1139 L652 1140 L645 1140 L644 1141 L609 1141 L608 1140 L594 1140 L593 1139 L566 1138 L565 1137 L521 1137 L520 1138 L507 1138 L506 1139 L495 1139 L494 1140 L483 1140 L482 1141 L466 1141 L465 1142 L439 1141 L438 1140 L431 1140 L430 1139 L420 1138 L404 1133 L391 1127 L379 1119 L364 1104 L356 1092 Z M347 1071 L348 1070 L349 1071 L348 1072 Z M447 1067 L448 1068 L448 1072 L447 1073 L446 1072 L446 1068 Z M640 1063 L641 1064 L641 1071 L640 1072 L639 1071 L639 1064 Z M449 1026 L454 1022 L475 1022 L476 1023 L598 1023 L599 1024 L635 1024 L639 1029 L636 1077 L632 1082 L628 1082 L627 1083 L582 1084 L581 1085 L579 1084 L577 1085 L525 1085 L524 1084 L489 1084 L488 1083 L457 1082 L452 1078 L450 1074 L450 1068 L449 1067 Z M332 1040 L333 1039 L334 1029 L339 1016 L345 1007 L354 999 L355 1000 L351 1005 L347 1013 L342 1029 L341 1053 L347 1077 L358 1099 L365 1108 L375 1118 L386 1126 L399 1133 L425 1141 L438 1142 L439 1143 L457 1143 L458 1144 L462 1143 L482 1143 L483 1142 L507 1141 L508 1140 L520 1140 L521 1139 L566 1139 L567 1140 L580 1140 L581 1141 L608 1142 L609 1143 L644 1143 L645 1142 L653 1142 L654 1141 L665 1140 L677 1136 L680 1136 L700 1127 L715 1116 L723 1108 L730 1098 L740 1077 L745 1057 L746 1042 L745 1041 L744 1027 L740 1016 L735 1006 L731 1001 L732 999 L740 1006 L745 1013 L750 1023 L753 1033 L754 1049 L753 1050 L753 1057 L752 1058 L751 1067 L743 1092 L729 1120 L719 1133 L704 1147 L689 1157 L670 1166 L643 1174 L637 1174 L636 1175 L612 1175 L611 1174 L605 1174 L604 1173 L585 1170 L570 1166 L559 1165 L558 1164 L531 1163 L530 1164 L519 1164 L518 1165 L505 1166 L504 1167 L495 1168 L490 1170 L485 1170 L470 1174 L441 1175 L440 1174 L434 1174 L422 1171 L399 1161 L382 1149 L368 1135 L354 1115 L342 1089 L333 1058 Z M730 999 L731 998 L732 999 L731 1000 Z M354 999 L355 998 L356 999 L355 1000 Z M729 998 L730 997 L731 998 L730 999 Z M722 993 L732 1005 L741 1025 L742 1034 L743 1035 L743 1054 L742 1055 L741 1064 L730 1076 L724 1079 L713 1082 L698 1082 L693 1079 L694 1059 L695 1058 L695 1052 L696 1051 L698 1037 L708 1011 L712 1004 L719 995 Z M364 992 L375 1006 L385 1028 L390 1049 L391 1063 L392 1064 L392 1078 L390 1080 L379 1081 L378 1082 L366 1080 L355 1074 L349 1068 L345 1061 L344 1050 L343 1049 L343 1039 L344 1038 L345 1026 L353 1006 L359 997 Z M722 965 L725 970 L725 980 L721 990 L709 1005 L702 1019 L694 1045 L694 1050 L692 1057 L692 1066 L691 1067 L691 1089 L692 1090 L692 1100 L691 1102 L681 1109 L670 1112 L653 1112 L644 1109 L641 1106 L640 1103 L640 1092 L641 1091 L641 1080 L642 1079 L643 1065 L644 1064 L645 1054 L648 1042 L654 1024 L662 1007 L670 995 L689 977 L707 967 L714 965 Z M363 964 L364 965 L368 964 L379 967 L394 975 L402 981 L419 999 L428 1014 L437 1036 L443 1060 L445 1080 L446 1081 L446 1092 L447 1093 L447 1103 L444 1108 L433 1112 L417 1112 L405 1109 L395 1102 L393 1098 L393 1092 L394 1091 L394 1062 L393 1061 L391 1043 L383 1017 L375 1002 L364 988 L361 981 L360 970 Z M363 962 L367 958 L373 955 L377 955 L378 954 L387 955 L393 957 L409 967 L428 985 L434 988 L438 988 L439 989 L477 988 L478 987 L493 986 L507 982 L516 981 L523 983 L531 989 L539 992 L550 991 L559 985 L566 982 L572 982 L584 986 L601 988 L602 989 L621 990 L622 991 L645 991 L646 990 L651 990 L657 987 L677 967 L694 957 L701 955 L708 955 L716 958 L721 963 L720 964 L717 963 L716 964 L708 965 L695 971 L681 981 L670 992 L658 1010 L653 1021 L646 1042 L642 1063 L641 1064 L640 1063 L641 1028 L639 1024 L633 1021 L453 1020 L447 1025 L446 1028 L447 1030 L446 1032 L447 1066 L446 1067 L445 1066 L445 1060 L442 1050 L442 1046 L433 1020 L424 1003 L415 991 L407 983 L391 971 L374 964 L364 963 Z M331 1034 L330 1047 L331 1048 L331 1056 L332 1057 L332 1062 L335 1074 L346 1104 L354 1119 L363 1132 L381 1151 L400 1164 L421 1173 L434 1176 L439 1176 L440 1177 L464 1177 L465 1176 L476 1175 L486 1172 L506 1169 L507 1168 L512 1168 L513 1167 L519 1167 L520 1166 L555 1166 L556 1167 L569 1168 L570 1169 L589 1172 L599 1175 L610 1176 L611 1177 L637 1177 L638 1176 L643 1176 L656 1173 L668 1169 L690 1159 L701 1152 L710 1145 L726 1128 L735 1114 L742 1100 L749 1081 L755 1056 L755 1035 L751 1021 L742 1006 L735 999 L723 991 L728 976 L726 966 L720 958 L709 953 L701 953 L685 959 L675 966 L655 986 L650 988 L646 988 L645 989 L612 988 L611 987 L590 985 L572 980 L566 980 L558 983 L549 989 L540 990 L536 989 L530 986 L527 983 L518 979 L511 979 L498 983 L486 984 L485 985 L463 986 L462 987 L439 987 L430 984 L411 966 L401 959 L388 953 L376 952 L368 955 L362 960 L358 969 L358 977 L363 990 L352 998 L341 1010 L334 1023 Z M675 873 L676 878 L684 892 L694 902 L701 907 L722 917 L756 928 L776 939 L786 948 L793 957 L801 976 L802 987 L803 988 L803 1014 L802 1015 L802 1023 L800 1030 L800 1036 L799 1037 L796 1056 L790 1080 L779 1115 L773 1130 L763 1150 L755 1162 L744 1173 L745 1174 L756 1163 L766 1148 L780 1117 L790 1087 L800 1047 L802 1031 L803 1030 L803 1024 L804 1023 L805 989 L804 988 L803 977 L796 959 L789 949 L780 940 L760 928 L721 915 L702 906 L695 901 L685 891 L681 885 L676 873 Z M405 873 L404 873 L402 880 L395 892 L380 907 L374 911 L357 919 L327 929 L313 936 L306 941 L294 953 L290 959 L285 969 L280 986 L279 1007 L278 1008 L279 1010 L279 1027 L280 1028 L280 1036 L281 1037 L283 1055 L284 1056 L286 1070 L291 1090 L300 1117 L311 1142 L323 1161 L336 1174 L337 1173 L324 1160 L311 1139 L311 1137 L306 1128 L300 1113 L297 1101 L294 1094 L286 1061 L283 1037 L282 1036 L282 1028 L281 1027 L280 1003 L281 1002 L281 992 L282 991 L283 981 L286 971 L292 959 L297 952 L306 943 L313 938 L329 930 L363 918 L381 908 L396 893 L403 881 Z M657 810 L649 797 L641 791 L634 788 L634 790 L636 790 L643 794 L651 803 L658 820 L659 831 L660 832 L660 851 L656 868 L648 881 L635 891 L632 883 L628 879 L624 877 L613 877 L601 882 L580 897 L572 901 L558 905 L545 906 L544 905 L529 905 L512 900 L501 894 L481 880 L473 877 L461 877 L457 879 L454 882 L452 886 L452 889 L453 889 L455 883 L461 879 L465 879 L466 878 L473 879 L484 884 L502 897 L514 903 L524 906 L537 907 L538 908 L557 907 L572 903 L584 897 L603 883 L613 879 L624 879 L631 884 L633 889 L633 891 L631 893 L613 898 L619 898 L631 895 L641 890 L651 881 L655 875 L660 863 L661 855 L662 854 L662 829 Z M447 788 L434 795 L425 808 L420 826 L420 838 L419 840 L420 841 L421 856 L424 866 L428 874 L436 884 L444 890 L452 894 L462 897 L471 898 L471 897 L467 897 L454 893 L439 884 L430 873 L426 865 L423 855 L423 851 L422 850 L422 829 L427 809 L433 799 L441 792 L447 790 Z M636 780 L635 781 L637 782 L644 782 L652 785 L658 789 L665 796 L672 806 L680 822 L687 840 L696 857 L704 868 L715 879 L729 888 L740 893 L788 908 L799 913 L810 920 L823 933 L827 939 L833 954 L835 962 L835 968 L836 969 L836 1006 L835 1007 L834 1024 L833 1025 L833 1031 L832 1032 L832 1037 L831 1038 L828 1058 L824 1074 L822 1078 L822 1081 L816 1096 L817 1097 L822 1086 L822 1083 L826 1073 L830 1057 L833 1037 L834 1036 L834 1031 L835 1030 L836 1015 L837 1014 L837 1003 L838 1002 L838 970 L837 969 L837 962 L834 950 L830 940 L825 932 L812 919 L803 913 L788 906 L751 894 L748 894 L738 890 L717 878 L704 865 L697 855 L694 848 L692 846 L692 844 L690 842 L690 840 L686 833 L678 813 L669 798 L664 792 L655 785 L646 781 Z M444 780 L434 781 L427 784 L421 788 L413 796 L401 816 L390 845 L382 861 L373 874 L362 885 L348 894 L339 898 L317 905 L314 905 L307 908 L304 908 L289 913 L276 919 L265 927 L254 941 L248 956 L246 970 L245 971 L245 1004 L246 1005 L246 1016 L247 1017 L249 1039 L250 1040 L250 1045 L253 1055 L253 1059 L263 1092 L266 1097 L266 1094 L262 1085 L262 1082 L259 1075 L259 1072 L254 1056 L254 1052 L251 1041 L250 1028 L249 1027 L248 1009 L247 1008 L247 972 L248 971 L250 957 L257 940 L263 932 L275 922 L289 915 L314 907 L317 907 L324 904 L327 904 L346 897 L357 891 L365 885 L375 875 L385 860 L397 833 L401 821 L405 814 L405 812 L416 795 L425 787 L436 782 L443 782 Z M225 703 L220 705 L217 708 L213 715 L210 724 L210 728 L208 734 L208 741 L207 742 L207 758 L208 758 L208 752 L209 751 L210 732 L215 715 L222 706 L229 705 L237 712 L244 725 L253 754 L257 775 L258 776 L258 780 L259 781 L261 811 L260 812 L260 820 L259 821 L259 826 L257 834 L250 854 L249 874 L252 885 L255 891 L261 897 L253 883 L251 876 L251 868 L250 867 L252 854 L260 831 L260 827 L262 821 L262 813 L263 812 L263 797 L262 796 L262 788 L261 787 L260 775 L259 774 L255 753 L244 720 L239 711 L233 705 L229 703 Z M852 702 L845 703 L840 706 L834 712 L831 717 L823 739 L820 752 L819 763 L818 764 L818 771 L817 772 L817 806 L818 807 L818 813 L823 830 L833 850 L836 860 L836 876 L834 883 L828 895 L831 892 L837 879 L838 861 L833 845 L824 827 L820 812 L820 805 L819 804 L819 775 L820 774 L820 766 L821 765 L821 759 L822 758 L824 744 L830 724 L836 713 L843 706 L849 704 L855 705 L860 708 L866 716 L869 722 L873 736 L875 758 L876 758 L876 744 L870 720 L866 712 L859 705 Z M540 667 L532 670 L524 678 L518 692 L516 705 L515 706 L513 728 L512 729 L509 752 L502 773 L502 776 L499 782 L493 806 L492 834 L493 835 L494 847 L498 860 L501 866 L503 867 L496 848 L495 835 L494 834 L494 817 L495 816 L495 808 L496 807 L496 802 L499 790 L508 764 L512 748 L519 697 L522 686 L526 678 L532 672 L538 669 L548 669 L552 671 L559 678 L564 689 L566 702 L567 703 L568 718 L569 719 L570 733 L571 734 L573 749 L576 761 L587 791 L591 808 L593 832 L592 833 L591 849 L587 863 L585 866 L586 867 L591 856 L593 848 L593 843 L594 842 L594 833 L595 832 L594 813 L588 787 L586 784 L575 749 L567 693 L561 678 L553 670 L546 667 Z M858 661 L848 656 L840 656 L832 659 L822 668 L815 679 L809 693 L802 721 L800 725 L798 736 L794 747 L794 750 L785 772 L779 781 L768 792 L758 798 L747 801 L747 802 L751 802 L757 800 L768 794 L777 786 L785 775 L791 763 L797 746 L805 713 L814 686 L823 670 L831 662 L840 658 L847 658 L855 661 L864 670 L871 683 L877 705 L878 718 L879 718 L879 708 L878 707 L878 702 L874 686 L868 673 L864 667 Z M224 660 L218 666 L211 679 L206 696 L204 718 L205 718 L206 715 L206 706 L207 705 L209 691 L213 679 L218 669 L226 661 L233 658 L238 658 L246 661 L254 669 L264 688 L269 704 L280 752 L285 767 L292 781 L297 788 L304 795 L311 800 L325 806 L324 804 L312 799 L304 793 L299 788 L291 776 L285 762 L281 749 L269 697 L262 678 L256 668 L248 660 L240 656 L232 656 Z M213 640 L214 639 L215 640 L214 641 Z M864 638 L865 637 L866 638 L865 639 Z M482 634 L488 640 L501 645 L509 645 L535 639 L551 639 L576 645 L583 645 L592 642 L600 635 L599 634 L594 639 L583 643 L572 642 L554 637 L534 637 L509 643 L501 643 L493 641 Z M812 627 L813 626 L814 627 L813 628 Z M813 626 L814 625 L815 626 L814 627 Z M268 626 L269 625 L270 626 L269 627 Z M814 625 L815 624 L816 625 L815 626 Z M267 625 L268 624 L269 625 L268 626 Z M815 624 L816 623 L817 624 L816 625 Z M859 623 L860 622 L861 623 L860 624 Z M858 622 L859 621 L860 622 L859 623 Z M820 620 L821 619 L822 620 L821 621 Z M821 619 L822 618 L824 619 L823 620 Z M260 619 L261 618 L262 619 L261 620 Z M258 618 L259 617 L261 618 L260 619 Z M723 615 L734 618 L743 623 L750 630 L754 637 L756 644 L756 657 L750 672 L737 686 L725 693 L716 696 L697 697 L696 696 L687 695 L676 690 L666 680 L660 667 L660 653 L665 640 L678 626 L690 619 L704 615 Z M327 630 L333 624 L339 620 L353 615 L373 615 L391 621 L400 627 L409 636 L416 649 L417 653 L417 666 L413 677 L403 688 L397 692 L381 697 L361 696 L346 690 L340 686 L329 675 L322 662 L321 658 L321 643 Z M734 616 L723 613 L704 613 L696 615 L682 621 L676 625 L666 635 L659 648 L658 652 L658 667 L664 681 L673 690 L684 696 L691 698 L697 698 L698 699 L715 698 L734 690 L741 685 L751 674 L758 658 L758 643 L756 637 L750 627 L742 620 Z M331 623 L326 628 L320 639 L319 649 L318 650 L319 658 L321 665 L326 674 L341 689 L355 696 L363 698 L368 698 L369 699 L379 699 L397 694 L406 688 L414 679 L419 667 L419 653 L414 640 L409 633 L398 623 L387 617 L372 613 L354 613 L343 616 Z M500 618 L501 619 L513 612 L526 608 L530 608 L531 607 L551 607 L571 613 L582 620 L580 617 L568 610 L550 605 L532 605 L531 606 L522 607 L514 610 Z M237 577 L238 576 L239 577 L238 578 Z M631 679 L627 664 L627 645 L632 624 L638 611 L648 597 L659 587 L669 581 L683 576 L693 575 L694 574 L716 574 L717 575 L729 576 L754 584 L794 604 L802 606 L812 606 L819 604 L827 599 L838 587 L843 577 L845 575 L846 576 L847 583 L838 600 L823 616 L813 623 L803 633 L791 653 L777 673 L756 695 L744 704 L731 711 L715 716 L701 717 L700 718 L685 717 L684 716 L679 716 L671 714 L657 708 L647 701 L638 691 Z M237 579 L239 578 L241 580 L245 588 L253 597 L260 602 L271 606 L279 606 L287 604 L323 586 L345 578 L358 575 L363 575 L364 574 L387 574 L407 579 L422 587 L434 598 L442 609 L449 623 L455 645 L455 665 L454 666 L453 674 L449 684 L443 693 L434 702 L427 707 L408 715 L399 716 L398 717 L383 718 L382 717 L366 716 L350 711 L335 703 L327 697 L310 680 L300 667 L278 632 L248 604 L237 585 L236 582 Z M478 593 L478 594 L480 593 L484 586 L494 576 L506 568 L524 561 L544 559 L545 560 L557 561 L575 568 L587 576 L598 587 L602 594 L603 594 L599 586 L591 577 L582 570 L571 564 L552 558 L543 558 L542 557 L539 558 L529 558 L528 559 L520 560 L502 568 L487 580 Z M852 547 L851 547 L848 561 L844 573 L834 590 L826 598 L817 603 L813 604 L798 603 L785 598 L775 592 L752 581 L737 576 L724 573 L718 573 L717 572 L694 572 L693 573 L683 574 L671 578 L658 585 L646 596 L638 607 L632 619 L627 633 L626 643 L625 644 L625 666 L626 667 L626 671 L631 684 L636 692 L643 700 L655 709 L668 715 L679 718 L684 718 L685 719 L710 719 L711 718 L716 718 L729 714 L749 703 L757 697 L773 681 L786 664 L806 633 L812 627 L813 628 L816 627 L825 620 L835 617 L846 617 L849 618 L859 625 L862 629 L865 637 L864 638 L855 632 L843 629 L832 631 L820 637 L813 643 L805 654 L792 681 L792 683 L778 709 L766 726 L751 741 L738 750 L724 756 L716 758 L710 758 L709 759 L691 759 L690 758 L684 758 L673 755 L657 747 L649 741 L639 731 L630 719 L620 700 L615 687 L611 664 L610 663 L609 632 L608 632 L607 650 L608 651 L609 669 L610 670 L613 687 L624 713 L636 731 L647 742 L658 750 L670 756 L679 759 L683 759 L689 761 L710 761 L711 760 L716 760 L730 756 L748 746 L768 727 L776 716 L789 694 L799 673 L801 666 L809 651 L823 637 L831 633 L839 631 L846 631 L853 633 L867 642 L873 650 L878 661 L877 655 L873 647 L868 641 L866 634 L860 624 L861 623 L866 624 L866 623 L862 621 L857 621 L851 617 L844 615 L832 616 L825 619 L823 618 L838 603 L848 584 L849 580 L845 573 L850 559 Z M230 547 L230 553 L236 571 L236 578 L234 581 L244 601 L251 610 L259 617 L256 618 L248 615 L235 615 L224 620 L219 625 L214 633 L211 644 L207 651 L206 657 L203 663 L204 666 L210 648 L223 635 L233 631 L245 631 L256 635 L262 639 L272 649 L276 655 L280 666 L286 677 L286 679 L295 698 L297 700 L304 714 L314 728 L332 745 L350 755 L367 760 L372 760 L373 761 L393 761 L394 760 L408 758 L426 750 L436 743 L446 733 L459 714 L469 689 L472 671 L473 670 L473 662 L474 661 L474 632 L473 632 L472 663 L471 664 L469 680 L463 700 L455 717 L444 732 L435 741 L427 747 L413 754 L392 759 L374 759 L373 758 L367 758 L359 756 L340 748 L330 741 L316 727 L307 715 L293 689 L293 687 L278 655 L274 649 L263 638 L257 634 L247 630 L235 629 L222 634 L215 640 L214 639 L215 635 L221 625 L231 618 L239 616 L244 616 L258 620 L270 629 L271 628 L276 633 L279 638 L277 642 L278 643 L280 640 L283 643 L289 654 L308 681 L318 692 L330 702 L352 714 L366 718 L381 719 L382 720 L404 718 L422 712 L435 704 L445 694 L453 680 L457 665 L457 645 L451 622 L440 602 L428 589 L416 581 L398 574 L389 573 L388 572 L363 572 L362 573 L352 574 L330 581 L287 602 L280 604 L270 604 L263 602 L258 599 L246 587 L236 569 Z M487 561 L487 563 L500 550 L512 543 L529 538 L545 537 L546 538 L559 539 L574 545 L583 551 L595 563 L590 556 L580 547 L564 539 L551 536 L532 536 L513 541 L499 549 Z M481 547 L487 539 L497 529 L506 523 L524 516 L534 515 L535 514 L551 514 L570 519 L584 527 L595 538 L601 547 L596 537 L585 526 L579 522 L564 515 L556 513 L549 513 L548 512 L539 512 L538 513 L530 513 L518 516 L503 523 L496 528 L486 538 Z M847 498 L846 498 L845 502 L845 507 L844 508 L844 513 L842 521 L836 538 L826 556 L813 568 L806 571 L790 571 L776 566 L770 562 L745 550 L721 544 L698 544 L697 545 L691 545 L690 546 L682 547 L657 557 L645 565 L632 577 L619 595 L612 610 L609 623 L611 621 L611 618 L616 605 L622 594 L629 584 L641 571 L656 560 L670 553 L685 548 L695 547 L696 546 L721 546 L722 547 L727 547 L747 553 L780 570 L786 572 L799 574 L812 571 L822 564 L827 558 L838 538 L844 519 Z M233 497 L234 507 L235 508 L238 525 L246 546 L253 557 L266 569 L277 573 L293 572 L308 566 L310 564 L336 552 L360 546 L380 545 L381 546 L389 546 L390 547 L399 548 L413 553 L425 559 L435 566 L451 582 L460 595 L468 611 L472 623 L472 618 L467 604 L463 596 L452 580 L437 565 L427 558 L416 552 L395 545 L371 543 L370 544 L361 544 L360 545 L350 546 L333 551 L301 567 L289 571 L278 571 L265 566 L254 555 L244 537 L239 523 L235 506 L235 501 L234 497 Z M475 534 L475 536 L476 536 L482 522 L487 515 L493 509 L503 502 L511 498 L524 494 L537 493 L538 492 L549 492 L550 493 L558 493 L559 494 L567 495 L584 503 L598 517 L604 530 L604 533 L606 536 L607 535 L599 515 L586 502 L567 493 L559 492 L558 491 L549 491 L548 490 L538 490 L537 491 L529 491 L528 492 L520 493 L509 497 L498 503 L484 516 L480 522 Z M770 372 L781 382 L792 397 L798 410 L802 424 L803 436 L804 437 L804 461 L803 462 L802 474 L796 497 L796 501 L794 506 L794 513 L793 514 L793 522 L794 523 L795 531 L801 542 L792 545 L791 544 L785 544 L772 538 L755 528 L734 521 L722 520 L721 519 L694 520 L668 527 L647 537 L628 551 L611 569 L609 565 L609 562 L610 561 L610 550 L611 549 L613 535 L622 513 L631 500 L643 488 L664 474 L674 465 L682 452 L686 435 L689 435 L697 446 L705 451 L714 452 L723 449 L729 443 L732 437 L732 432 L733 431 L732 429 L745 423 L749 420 L754 414 L759 403 L760 399 L759 380 L757 374 L751 364 L752 363 L756 364 Z M304 375 L314 368 L326 363 L327 364 L324 368 L319 380 L319 385 L318 386 L319 400 L325 413 L334 422 L347 428 L347 433 L352 444 L358 449 L363 451 L374 451 L382 447 L389 437 L392 434 L395 434 L396 435 L396 442 L398 449 L404 460 L415 471 L437 485 L451 499 L456 506 L463 520 L464 525 L467 531 L469 545 L470 546 L470 555 L471 556 L471 569 L470 570 L464 562 L449 547 L434 536 L416 527 L391 520 L385 520 L384 519 L357 519 L356 520 L351 520 L326 527 L292 544 L281 544 L276 542 L279 539 L283 529 L284 512 L276 480 L274 461 L273 460 L274 429 L277 416 L283 401 L293 386 Z M776 375 L765 367 L757 363 L747 360 L752 367 L757 379 L757 383 L758 384 L758 399 L753 412 L745 421 L738 425 L731 427 L730 437 L728 441 L722 447 L715 450 L705 449 L696 442 L691 434 L689 433 L684 433 L683 434 L682 447 L674 462 L665 471 L638 490 L628 501 L620 513 L613 529 L609 545 L609 553 L608 554 L608 569 L609 573 L612 571 L617 564 L629 552 L645 540 L667 529 L693 522 L699 522 L700 521 L723 521 L724 522 L730 522 L742 525 L753 529 L765 535 L772 540 L786 546 L796 546 L802 544 L804 542 L800 538 L798 534 L795 521 L795 515 L796 514 L796 507 L803 480 L805 463 L806 462 L806 436 L805 435 L805 429 L800 410 L793 395 L786 385 Z M303 374 L290 387 L282 399 L277 410 L272 428 L272 434 L271 435 L271 462 L272 463 L274 480 L282 512 L281 529 L277 539 L274 542 L276 544 L282 546 L290 546 L294 544 L297 544 L323 530 L337 525 L350 522 L370 521 L371 520 L373 521 L392 522 L414 528 L436 539 L448 548 L464 564 L470 573 L471 573 L472 570 L472 549 L471 548 L470 537 L466 523 L458 506 L451 496 L440 485 L417 470 L407 461 L400 449 L398 443 L397 433 L396 432 L390 433 L385 441 L380 446 L374 449 L363 449 L357 446 L351 439 L349 434 L349 426 L339 423 L333 419 L325 410 L320 395 L320 386 L321 385 L322 376 L330 362 L342 354 L345 350 L330 361 L327 361 L324 363 L319 364 Z M677 331 L676 331 L674 339 L670 347 L660 358 L634 373 L620 387 L614 398 L610 410 L608 427 L607 428 L606 444 L602 459 L599 464 L590 472 L583 474 L578 474 L578 475 L589 474 L597 469 L601 464 L607 449 L610 421 L611 420 L611 415 L617 396 L623 386 L634 375 L660 360 L669 351 L675 341 L677 335 Z M417 331 L417 335 L421 348 L430 361 L437 365 L441 365 L442 366 L458 365 L468 371 L473 377 L479 387 L486 406 L493 434 L496 452 L501 464 L508 471 L514 474 L523 475 L523 474 L516 473 L508 469 L501 460 L497 447 L497 443 L495 438 L495 434 L493 429 L493 425 L489 409 L484 394 L476 378 L467 368 L459 364 L438 364 L434 362 L425 352 L421 344 L418 331 Z M468 264 L470 264 L473 267 L474 270 L482 276 L490 278 L508 278 L509 279 L614 279 L624 275 L632 266 L635 266 L648 281 L656 287 L662 289 L691 292 L692 293 L696 293 L697 294 L718 298 L748 309 L769 320 L784 330 L801 344 L820 365 L832 383 L843 406 L852 432 L854 443 L856 447 L862 471 L866 493 L868 498 L870 514 L871 515 L873 531 L874 532 L875 544 L876 545 L877 558 L878 559 L879 575 L880 576 L880 583 L881 584 L881 593 L882 594 L883 615 L884 616 L884 629 L885 630 L886 670 L887 671 L887 795 L886 796 L887 798 L886 799 L886 831 L885 832 L884 869 L883 870 L883 883 L882 884 L882 896 L881 897 L881 908 L880 909 L878 938 L877 939 L877 947 L876 948 L876 955 L874 963 L874 970 L873 971 L870 998 L869 999 L868 1010 L867 1011 L866 1021 L865 1022 L861 1046 L859 1051 L859 1055 L856 1064 L856 1068 L851 1088 L846 1102 L846 1105 L833 1142 L821 1167 L821 1169 L818 1173 L813 1184 L796 1210 L781 1228 L768 1241 L752 1254 L723 1271 L721 1271 L711 1276 L687 1283 L666 1286 L665 1287 L645 1288 L644 1289 L482 1289 L481 1290 L477 1290 L476 1289 L443 1289 L442 1288 L422 1287 L421 1286 L401 1283 L389 1280 L367 1272 L349 1263 L336 1255 L318 1241 L297 1220 L279 1196 L270 1181 L257 1155 L249 1135 L238 1101 L227 1058 L226 1049 L224 1044 L224 1040 L220 1024 L220 1019 L219 1018 L219 1013 L216 1000 L216 994 L215 993 L215 987 L213 980 L210 950 L209 949 L209 941 L208 940 L208 932 L207 931 L205 902 L204 901 L202 865 L201 864 L201 850 L200 849 L200 833 L199 832 L198 780 L197 779 L197 735 L196 734 L197 633 L198 632 L198 610 L199 609 L201 570 L202 569 L204 537 L205 536 L205 528 L206 527 L206 520 L208 512 L209 497 L210 496 L210 491 L212 485 L214 470 L216 465 L216 461 L222 437 L233 406 L249 377 L260 363 L278 345 L298 330 L325 315 L356 303 L391 294 L416 291 L417 290 L425 290 L436 287 L446 281 L461 268 Z M434 214 L411 237 L394 249 L373 261 L341 276 L312 287 L300 290 L292 290 L287 287 L286 288 L288 290 L294 292 L308 290 L338 279 L363 267 L365 267 L369 264 L371 264 L384 257 L410 240 L429 222 Z M668 213 L674 223 L689 238 L713 256 L746 276 L764 285 L785 292 L794 292 L800 290 L803 287 L795 290 L785 290 L764 283 L746 274 L722 260 L698 243 L687 234 L675 222 L670 214 Z M194 260 L202 252 L207 249 L215 248 L218 249 L222 253 L232 271 L232 273 L230 275 L230 278 L231 279 L231 285 L232 286 L232 292 L234 300 L235 321 L236 322 L235 342 L230 360 L221 371 L210 378 L202 381 L198 385 L201 398 L201 407 L200 408 L198 475 L197 476 L197 504 L196 505 L196 530 L195 531 L195 545 L196 545 L197 541 L197 524 L198 523 L198 501 L199 500 L201 429 L202 428 L202 393 L200 385 L222 372 L230 363 L235 351 L236 339 L237 338 L237 313 L236 312 L236 303 L234 297 L234 291 L233 290 L231 274 L232 273 L242 293 L249 304 L259 315 L263 317 L270 317 L273 316 L279 310 L282 300 L282 288 L280 282 L280 272 L279 271 L279 233 L280 232 L280 224 L281 223 L282 213 L286 200 L292 188 L298 180 L310 170 L327 162 L335 160 L340 160 L341 159 L350 159 L351 158 L369 159 L387 164 L402 172 L410 178 L424 192 L440 214 L448 222 L455 227 L465 232 L476 235 L481 235 L482 236 L584 236 L585 237 L586 236 L587 237 L615 237 L616 236 L622 236 L623 235 L631 234 L650 226 L661 216 L671 201 L685 185 L697 175 L711 167 L730 161 L737 161 L738 160 L761 161 L776 165 L790 172 L805 186 L813 200 L816 210 L817 222 L818 223 L817 248 L816 249 L816 254 L815 255 L813 268 L807 286 L807 298 L811 308 L815 313 L821 317 L832 318 L839 314 L845 308 L852 295 L853 296 L853 312 L852 313 L852 325 L851 326 L852 349 L855 356 L859 360 L876 371 L883 377 L881 381 L881 390 L880 391 L880 414 L881 415 L881 440 L882 441 L882 468 L883 469 L883 489 L884 490 L884 510 L885 511 L885 533 L886 534 L886 545 L888 545 L887 541 L887 518 L886 517 L885 470 L884 469 L883 414 L882 413 L882 388 L883 387 L884 375 L871 367 L858 357 L855 353 L853 347 L854 289 L862 269 L869 244 L873 236 L875 234 L879 233 L887 236 L893 243 L895 249 L895 260 L896 261 L898 353 L899 354 L899 390 L900 391 L900 425 L901 426 L901 443 L900 444 L900 538 L901 539 L900 541 L901 542 L901 594 L902 595 L902 605 L903 605 L903 554 L902 553 L902 438 L903 437 L906 437 L912 440 L916 444 L919 451 L919 456 L920 457 L919 527 L918 528 L918 571 L917 572 L917 579 L916 580 L916 585 L914 593 L908 608 L907 806 L906 807 L906 836 L902 845 L894 851 L891 852 L887 851 L888 808 L889 807 L889 763 L890 762 L889 665 L888 664 L888 643 L887 642 L885 604 L884 603 L883 584 L882 583 L882 575 L881 574 L881 566 L880 565 L877 538 L876 537 L873 514 L872 513 L868 489 L866 484 L866 480 L856 440 L850 423 L850 420 L842 399 L833 381 L824 367 L817 358 L796 337 L783 327 L762 314 L733 301 L714 295 L697 292 L696 291 L685 290 L684 289 L658 286 L654 284 L634 264 L631 264 L624 273 L615 277 L499 277 L498 276 L489 276 L482 274 L474 267 L473 264 L469 262 L462 265 L446 279 L434 286 L426 288 L418 288 L417 289 L397 291 L363 299 L328 312 L303 325 L280 341 L260 360 L243 383 L232 404 L221 434 L212 470 L207 503 L206 504 L206 510 L205 511 L205 519 L204 520 L202 546 L201 547 L201 556 L200 557 L198 591 L197 592 L197 608 L196 609 L195 660 L194 661 L194 749 L195 750 L195 788 L196 789 L196 813 L197 814 L198 845 L197 846 L192 844 L185 836 L183 828 L183 643 L182 642 L182 594 L174 574 L171 561 L171 554 L170 553 L167 456 L168 455 L168 450 L171 443 L177 437 L185 433 L186 434 L186 590 L187 591 L187 595 L188 595 L188 441 L187 440 L187 430 L188 429 L188 406 L187 405 L188 351 L187 350 L187 282 L188 281 L189 271 Z M327 160 L311 167 L301 174 L292 184 L284 199 L280 212 L280 216 L278 222 L278 229 L277 230 L277 275 L278 276 L278 283 L280 288 L280 298 L279 299 L278 307 L272 314 L264 315 L260 313 L254 307 L245 294 L226 255 L220 248 L216 246 L210 246 L201 250 L192 259 L189 264 L185 279 L185 431 L173 437 L167 446 L166 454 L165 455 L165 484 L166 485 L166 514 L167 515 L168 555 L169 556 L169 562 L172 575 L177 589 L180 594 L181 830 L185 840 L191 846 L198 849 L199 868 L200 869 L200 882 L201 883 L201 893 L202 894 L202 904 L203 905 L206 943 L207 944 L210 975 L212 982 L212 988 L214 995 L217 1019 L218 1020 L222 1045 L224 1050 L224 1054 L227 1063 L227 1067 L232 1087 L246 1133 L248 1136 L255 1156 L269 1184 L283 1206 L295 1221 L318 1244 L331 1254 L352 1267 L382 1280 L385 1280 L396 1284 L400 1284 L416 1288 L421 1288 L422 1289 L442 1290 L443 1291 L466 1291 L467 1292 L487 1292 L488 1291 L598 1291 L599 1292 L643 1291 L644 1290 L656 1290 L657 1289 L672 1288 L706 1280 L709 1278 L719 1275 L739 1265 L753 1256 L769 1243 L784 1228 L798 1211 L814 1187 L825 1166 L825 1164 L829 1157 L829 1155 L838 1135 L850 1099 L851 1092 L858 1069 L858 1065 L860 1060 L860 1056 L862 1051 L862 1047 L864 1042 L864 1038 L869 1017 L869 1012 L870 1011 L871 1000 L873 993 L873 987 L874 986 L874 980 L875 979 L875 973 L876 972 L878 950 L879 949 L882 912 L883 911 L883 900 L884 899 L887 855 L900 850 L904 846 L908 837 L908 827 L909 826 L911 607 L917 590 L918 581 L919 580 L919 573 L920 572 L922 454 L921 453 L921 449 L918 443 L913 438 L903 434 L899 282 L898 281 L898 258 L897 257 L897 248 L895 242 L888 234 L881 231 L874 232 L871 235 L867 243 L857 277 L846 303 L834 315 L825 316 L820 314 L813 307 L809 297 L809 287 L817 261 L818 251 L819 250 L819 242 L820 241 L820 220 L819 219 L818 208 L815 199 L807 185 L795 173 L779 164 L770 161 L756 159 L755 158 L738 158 L737 159 L730 159 L713 164 L701 170 L683 184 L669 200 L659 215 L652 222 L644 227 L630 232 L611 235 L610 234 L484 234 L483 233 L477 233 L469 231 L450 221 L442 213 L427 192 L412 177 L396 166 L379 159 L370 158 L369 157 L362 157 L361 156 L340 157 Z" fill="#eef3f4" fill-rule="evenodd"/>
</svg>
