<svg xmlns="http://www.w3.org/2000/svg" width="1086" height="1448" viewBox="0 0 1086 1448">
  <title>0226</title>
  <path d="M378 1201 L395 1181 L399 1184 L416 1192 L443 1200 L463 1203 L464 1204 L477 1205 L478 1206 L496 1207 L497 1208 L510 1208 L511 1209 L560 1210 L561 1209 L582 1209 L583 1208 L594 1208 L595 1207 L605 1207 L613 1205 L620 1205 L621 1204 L642 1201 L658 1196 L661 1196 L678 1190 L693 1182 L695 1183 L701 1192 L710 1201 L684 1211 L654 1218 L630 1221 L629 1222 L622 1222 L621 1223 L600 1224 L599 1225 L584 1225 L583 1226 L506 1226 L505 1225 L487 1225 L486 1224 L466 1223 L465 1222 L450 1221 L449 1220 L444 1220 L438 1218 L423 1216 L407 1212 L403 1210 L400 1210 L391 1206 L383 1204 Z M697 1174 L698 1173 L723 1173 L726 1180 L727 1188 L728 1189 L727 1194 L725 1197 L718 1201 L712 1200 L696 1182 L695 1180 L697 1177 Z M360 1193 L360 1186 L363 1174 L365 1172 L366 1173 L387 1173 L388 1172 L392 1173 L394 1179 L383 1193 L376 1200 L373 1201 L366 1200 L362 1197 Z M695 1174 L694 1178 L691 1181 L685 1184 L682 1183 L684 1184 L675 1189 L657 1195 L641 1198 L636 1200 L619 1202 L618 1203 L593 1205 L592 1206 L580 1206 L579 1207 L513 1207 L512 1206 L498 1206 L497 1205 L480 1204 L479 1203 L454 1200 L453 1199 L432 1195 L414 1189 L405 1184 L406 1183 L424 1184 L427 1182 L430 1184 L434 1184 L435 1185 L464 1185 L467 1183 L471 1186 L506 1187 L508 1185 L513 1188 L544 1188 L546 1186 L550 1188 L579 1188 L580 1187 L586 1187 L588 1185 L591 1187 L612 1187 L613 1186 L627 1186 L630 1184 L635 1186 L641 1186 L642 1185 L661 1185 L665 1182 L668 1184 L678 1183 L678 1182 L668 1182 L666 1180 L667 1172 L668 1171 L670 1172 L680 1172 L681 1173 L694 1173 Z M426 1169 L425 1170 L425 1178 L426 1179 L423 1182 L400 1181 L397 1180 L394 1176 L394 1173 L398 1171 L407 1171 L408 1170 L415 1170 L416 1169 L423 1169 L424 1168 Z M632 1168 L633 1167 L639 1167 L640 1168 L664 1171 L665 1172 L664 1180 L659 1183 L633 1183 L632 1182 Z M509 1167 L510 1166 L517 1166 L518 1167 L525 1167 L526 1168 L541 1168 L542 1169 L544 1168 L546 1171 L546 1184 L544 1186 L515 1186 L511 1185 L509 1182 L510 1179 Z M587 1166 L587 1183 L585 1185 L550 1186 L548 1184 L548 1169 L549 1168 L561 1168 L562 1167 L578 1166 L579 1165 L586 1165 Z M465 1166 L465 1181 L463 1183 L439 1183 L438 1182 L430 1182 L428 1180 L428 1169 L429 1168 L440 1167 L441 1166 L450 1166 L451 1165 L464 1165 Z M590 1165 L591 1164 L615 1164 L616 1165 L629 1166 L630 1167 L630 1181 L627 1184 L592 1185 L590 1183 Z M468 1166 L470 1164 L498 1164 L499 1165 L506 1165 L507 1166 L507 1183 L505 1185 L471 1184 L468 1182 Z M355 1161 L360 1158 L407 1154 L408 1153 L414 1153 L415 1152 L421 1152 L422 1151 L428 1151 L436 1149 L443 1149 L444 1148 L452 1148 L453 1147 L485 1147 L486 1148 L498 1149 L513 1153 L528 1155 L529 1156 L535 1156 L536 1157 L560 1156 L580 1151 L584 1151 L595 1148 L602 1148 L603 1147 L622 1147 L623 1148 L630 1148 L631 1149 L643 1150 L644 1151 L668 1154 L669 1155 L675 1155 L676 1156 L701 1157 L702 1158 L728 1158 L733 1162 L733 1164 L730 1168 L726 1170 L719 1170 L718 1171 L687 1171 L686 1170 L665 1169 L664 1168 L657 1168 L656 1167 L650 1167 L649 1166 L637 1165 L636 1164 L629 1164 L621 1162 L609 1162 L608 1161 L584 1162 L583 1163 L575 1163 L574 1164 L567 1164 L566 1165 L559 1165 L558 1166 L530 1166 L529 1165 L512 1164 L511 1163 L504 1163 L503 1162 L473 1161 L472 1162 L457 1162 L456 1163 L428 1165 L427 1166 L404 1168 L403 1169 L396 1169 L395 1170 L368 1171 L367 1170 L361 1170 L357 1168 L355 1166 Z M352 1162 L353 1167 L356 1170 L362 1173 L359 1180 L357 1190 L360 1198 L367 1203 L375 1202 L380 1205 L399 1212 L432 1220 L456 1223 L457 1224 L464 1224 L465 1225 L485 1226 L486 1227 L503 1227 L504 1228 L585 1228 L586 1227 L600 1227 L601 1226 L612 1226 L613 1225 L637 1223 L638 1222 L655 1220 L681 1214 L700 1208 L713 1202 L714 1203 L719 1203 L724 1201 L728 1197 L730 1192 L730 1187 L726 1173 L731 1170 L735 1165 L734 1159 L729 1156 L707 1156 L706 1155 L678 1154 L677 1153 L663 1152 L662 1151 L657 1151 L656 1150 L651 1150 L650 1149 L645 1149 L632 1146 L626 1146 L625 1145 L600 1145 L599 1146 L593 1146 L559 1154 L539 1155 L538 1154 L530 1154 L524 1152 L519 1152 L518 1151 L514 1151 L488 1145 L463 1144 L462 1145 L450 1145 L449 1146 L434 1147 L433 1148 L412 1150 L404 1152 L376 1154 L375 1155 L364 1155 L356 1157 Z M544 1115 L544 1147 L545 1148 L545 1115 Z M780 1115 L780 1128 L779 1129 L779 1135 L776 1148 L772 1159 L765 1173 L754 1188 L740 1202 L721 1216 L696 1229 L686 1233 L653 1243 L649 1243 L633 1247 L611 1249 L610 1250 L586 1251 L585 1252 L564 1252 L563 1253 L502 1252 L501 1251 L490 1251 L489 1250 L461 1248 L460 1247 L442 1245 L433 1242 L421 1240 L414 1237 L405 1235 L390 1228 L388 1228 L374 1221 L357 1210 L348 1203 L332 1187 L317 1164 L311 1148 L308 1136 L308 1129 L307 1128 L308 1112 L313 1107 L322 1107 L341 1112 L345 1112 L351 1114 L358 1114 L359 1115 L381 1115 L382 1114 L388 1114 L405 1109 L420 1101 L434 1090 L441 1082 L445 1085 L455 1088 L463 1088 L470 1086 L475 1083 L484 1083 L496 1088 L526 1106 L537 1110 L545 1111 L560 1107 L578 1097 L591 1088 L604 1082 L609 1082 L610 1081 L621 1086 L634 1087 L641 1085 L647 1081 L658 1093 L666 1099 L683 1108 L695 1112 L703 1113 L704 1114 L710 1114 L711 1115 L726 1115 L727 1114 L741 1113 L754 1109 L772 1106 L775 1107 L778 1110 Z M628 1074 L627 1080 L622 1084 L616 1080 L604 1080 L592 1085 L569 1100 L551 1108 L538 1108 L529 1105 L519 1100 L495 1085 L493 1085 L488 1082 L476 1080 L467 1084 L464 1084 L460 1079 L460 1074 L465 1069 L470 1067 L481 1067 L491 1070 L499 1074 L521 1090 L538 1099 L550 1099 L561 1094 L588 1074 L603 1067 L618 1066 L623 1068 Z M221 1039 L222 1038 L223 1039 L222 1040 Z M400 996 L401 995 L402 996 L401 997 Z M430 1040 L432 1032 L438 1020 L446 1011 L458 1003 L467 1000 L484 1000 L492 1003 L496 1008 L498 1008 L498 998 L499 997 L501 980 L505 973 L514 965 L522 961 L534 958 L557 958 L572 962 L581 967 L586 972 L590 981 L588 994 L591 1000 L592 1007 L596 1003 L602 1000 L606 999 L620 999 L627 1001 L640 1009 L646 1015 L653 1026 L657 1040 L657 1055 L654 1066 L650 1074 L646 1079 L638 1084 L626 1085 L625 1084 L630 1078 L629 1071 L625 1067 L618 1064 L608 1064 L600 1066 L589 1071 L566 1088 L553 1096 L539 1097 L526 1091 L512 1080 L498 1071 L481 1065 L470 1065 L463 1068 L459 1072 L458 1079 L463 1085 L462 1086 L455 1086 L444 1082 L438 1076 L432 1065 L430 1057 Z M732 931 L733 930 L734 931 L733 932 Z M733 930 L734 929 L735 930 L734 931 Z M354 929 L355 928 L356 929 L355 930 Z M353 927 L354 926 L355 928 L354 929 Z M352 926 L353 925 L354 926 L353 927 Z M476 974 L481 968 L485 959 L486 951 L487 950 L488 933 L490 929 L495 924 L499 922 L509 919 L513 919 L519 917 L527 917 L528 916 L563 916 L564 917 L571 917 L572 918 L586 920 L597 925 L602 931 L604 939 L604 948 L605 949 L605 956 L607 964 L610 970 L613 973 L612 975 L605 976 L601 978 L593 984 L591 976 L588 971 L583 966 L573 960 L558 956 L534 956 L522 959 L509 966 L502 973 L497 985 L490 979 Z M685 871 L695 871 L702 874 L710 882 L713 889 L713 902 L710 910 L703 918 L693 923 L682 923 L675 920 L668 913 L664 903 L664 893 L667 885 L676 875 Z M395 871 L403 871 L415 877 L422 885 L425 893 L425 904 L421 913 L414 920 L407 923 L396 923 L386 918 L380 911 L376 901 L376 890 L378 884 L386 875 Z M697 869 L684 869 L678 871 L668 879 L663 888 L662 892 L662 897 L661 898 L662 905 L667 916 L674 922 L685 926 L695 925 L705 920 L713 911 L716 903 L716 897 L717 896 L716 895 L716 889 L712 880 L704 872 Z M393 869 L384 873 L376 882 L373 891 L373 902 L377 912 L384 920 L394 925 L404 926 L415 922 L421 917 L425 911 L427 906 L427 899 L428 898 L427 897 L427 891 L422 881 L415 874 L404 869 Z M387 859 L402 859 L409 861 L422 869 L429 877 L433 884 L436 895 L436 903 L433 914 L429 921 L422 928 L416 932 L406 935 L396 935 L386 932 L381 929 L371 919 L367 912 L363 897 L364 884 L369 872 L377 864 Z M698 858 L711 863 L721 874 L724 881 L725 890 L726 891 L725 903 L719 918 L711 927 L701 933 L693 935 L679 934 L666 927 L658 917 L654 907 L654 902 L653 901 L654 890 L661 875 L673 864 L681 860 L689 858 Z M699 856 L684 857 L676 860 L668 865 L660 873 L655 881 L652 889 L651 902 L652 903 L652 908 L656 918 L668 931 L679 936 L693 937 L701 935 L709 931 L721 919 L727 905 L728 888 L723 873 L713 862 L706 858 Z M387 857 L376 862 L368 870 L365 875 L361 889 L362 904 L370 921 L382 932 L396 937 L411 936 L424 929 L430 923 L434 917 L438 903 L437 889 L431 876 L425 869 L414 861 L403 857 L397 857 L396 856 Z M460 854 L461 853 L462 854 L461 855 Z M642 840 L643 839 L644 840 L643 841 Z M735 835 L743 843 L747 850 L750 860 L751 878 L750 879 L750 886 L745 906 L740 917 L733 927 L725 935 L718 940 L708 945 L694 949 L674 949 L663 946 L649 938 L637 925 L630 911 L626 894 L626 888 L630 883 L659 855 L676 843 L689 836 L699 832 L707 831 L708 830 L723 830 Z M352 835 L362 831 L373 830 L374 831 L380 831 L396 836 L415 846 L432 858 L449 873 L463 888 L462 902 L457 917 L450 928 L439 939 L431 944 L420 948 L416 948 L415 949 L398 949 L397 948 L389 947 L376 942 L368 937 L356 926 L349 916 L342 901 L338 887 L337 871 L336 870 L337 859 L341 847 Z M255 819 L256 820 L256 824 L255 825 L254 824 L254 820 Z M582 819 L583 818 L591 826 L599 832 L609 837 L624 841 L637 841 L638 840 L642 840 L643 841 L631 851 L627 852 L612 851 L603 847 L591 837 L585 828 Z M581 817 L582 816 L583 818 L582 819 Z M503 817 L502 823 L495 836 L487 844 L476 850 L468 852 L456 851 L444 841 L445 840 L461 841 L462 840 L470 839 L480 835 L493 826 L502 816 Z M502 815 L503 814 L504 816 L503 817 Z M685 811 L686 810 L687 811 L686 812 Z M398 811 L399 810 L400 811 L399 812 Z M686 810 L687 809 L689 810 L688 811 Z M396 810 L397 809 L398 810 L397 811 Z M351 810 L364 806 L375 806 L390 810 L403 816 L445 844 L456 853 L484 882 L482 902 L477 919 L469 934 L454 950 L443 957 L432 961 L424 962 L423 963 L403 963 L388 959 L378 954 L372 950 L359 937 L355 931 L356 929 L363 936 L377 945 L388 949 L397 950 L398 951 L415 951 L427 948 L437 943 L445 937 L455 925 L463 906 L464 897 L465 896 L465 888 L447 868 L429 853 L409 840 L386 830 L377 829 L376 828 L365 828 L357 830 L346 837 L338 848 L337 846 L338 850 L336 854 L335 853 L335 836 L338 825 L341 819 Z M734 809 L745 819 L748 825 L751 836 L751 851 L750 852 L745 842 L736 833 L731 830 L725 828 L718 828 L717 827 L702 829 L688 834 L666 847 L652 858 L638 871 L624 887 L624 896 L625 897 L626 906 L634 924 L639 931 L648 940 L660 947 L673 951 L694 951 L709 947 L719 942 L732 931 L733 932 L732 935 L725 944 L713 954 L694 962 L690 962 L689 963 L667 963 L655 960 L644 955 L635 949 L625 939 L618 929 L612 917 L608 905 L604 882 L642 844 L664 827 L685 814 L699 808 L707 806 L712 806 L713 805 L722 805 Z M222 724 L223 723 L224 725 L223 726 Z M914 707 L917 711 L915 736 L914 737 L914 743 L913 744 L913 750 L912 751 L911 763 L909 770 L909 776 L908 777 L908 782 L907 783 L907 788 L906 789 L906 794 L905 795 L905 800 L904 801 L904 806 L901 819 L901 825 L898 838 L898 844 L896 850 L896 856 L895 857 L894 869 L891 882 L891 888 L890 891 L887 894 L877 894 L876 893 L876 881 L877 880 L879 857 L880 856 L881 843 L882 842 L883 831 L885 825 L888 802 L893 782 L893 778 L895 773 L895 769 L897 764 L897 760 L903 739 L903 735 L905 730 L909 708 L910 707 Z M906 707 L907 708 L907 712 L904 721 L904 725 L894 764 L894 768 L892 773 L892 777 L890 782 L890 786 L886 802 L886 807 L884 813 L883 824 L882 825 L880 841 L879 842 L878 855 L877 856 L877 863 L876 864 L876 871 L875 872 L875 879 L874 880 L874 892 L872 893 L844 868 L847 836 L848 835 L848 828 L849 827 L849 819 L850 818 L850 811 L851 810 L851 802 L852 801 L855 769 L856 768 L856 761 L857 760 L857 752 L858 751 L858 744 L859 743 L859 736 L860 735 L860 727 L861 726 L861 719 L862 718 L862 711 L864 707 Z M317 630 L327 623 L329 624 L327 630 L328 638 L331 644 L336 649 L344 653 L343 654 L343 658 L344 659 L345 667 L349 675 L358 685 L366 690 L378 694 L381 694 L386 702 L395 710 L411 717 L421 718 L423 720 L423 723 L426 729 L433 737 L445 746 L463 755 L465 765 L472 777 L483 788 L492 794 L500 797 L504 802 L504 808 L501 814 L493 823 L479 833 L465 838 L452 839 L451 838 L445 838 L438 836 L420 825 L380 792 L343 767 L331 758 L319 747 L309 734 L303 722 L299 708 L298 696 L297 695 L297 675 L298 674 L298 668 L299 667 L300 659 L305 646 L310 638 Z M764 627 L773 637 L779 648 L783 660 L784 673 L785 674 L785 691 L784 692 L784 699 L783 700 L783 705 L781 713 L774 730 L765 743 L743 764 L701 795 L671 820 L656 831 L647 836 L636 839 L619 838 L612 836 L600 830 L592 824 L582 813 L580 809 L580 804 L585 798 L597 792 L611 779 L619 765 L621 756 L625 754 L631 753 L641 748 L649 742 L657 732 L662 720 L671 719 L683 714 L689 710 L699 700 L703 694 L707 694 L713 692 L724 686 L732 678 L738 667 L740 659 L740 652 L748 648 L754 641 L757 632 L756 623 L757 622 Z M541 598 L546 598 L551 602 L557 612 L559 619 L559 633 L558 637 L547 659 L547 664 L546 665 L547 669 L546 670 L546 674 L544 677 L541 674 L540 659 L531 642 L528 633 L528 619 L533 606 Z M541 596 L537 598 L530 607 L526 618 L526 633 L528 640 L536 654 L539 662 L539 674 L541 678 L544 679 L548 675 L548 665 L549 664 L550 656 L553 652 L560 637 L561 633 L561 618 L555 604 L551 599 L546 596 Z M141 592 L151 614 L151 616 L155 623 L155 625 L195 711 L206 739 L210 746 L211 751 L214 756 L223 781 L227 798 L228 810 L229 811 L229 820 L230 821 L230 830 L227 835 L226 841 L224 845 L223 864 L227 880 L234 891 L234 931 L233 932 L233 943 L232 944 L232 952 L231 953 L229 974 L228 975 L226 992 L223 1004 L223 1011 L222 1012 L222 1026 L221 1027 L222 1038 L221 1039 L218 1036 L210 1017 L207 1004 L205 986 L204 985 L204 978 L203 977 L203 970 L202 969 L202 962 L201 961 L201 954 L200 953 L200 946 L199 945 L199 938 L198 937 L198 930 L197 929 L197 922 L196 921 L195 907 L194 906 L194 899 L193 898 L193 891 L192 890 L192 883 L191 882 L191 876 L189 868 L189 861 L188 860 L183 819 L181 812 L181 806 L179 800 L178 787 L176 780 L176 774 L175 773 L175 768 L172 755 L172 749 L171 748 L167 719 L161 693 L159 678 L157 673 L155 659 L153 654 L153 650 L146 623 L145 614 L140 596 Z M139 590 L140 589 L141 591 L140 592 Z M141 571 L147 570 L150 573 L164 602 L164 604 L170 615 L170 617 L177 630 L177 632 L183 643 L188 656 L195 669 L195 671 L220 724 L224 735 L230 746 L238 766 L239 771 L241 774 L241 777 L244 784 L244 787 L249 803 L249 807 L253 823 L253 828 L254 829 L254 834 L256 840 L256 845 L257 846 L257 857 L258 858 L258 950 L257 951 L257 974 L256 975 L256 1021 L257 1022 L258 1038 L256 1040 L240 1041 L239 1042 L226 1042 L224 1040 L223 1036 L224 1012 L225 1011 L225 1004 L226 1003 L226 998 L227 997 L227 992 L228 991 L228 986 L231 973 L233 952 L234 951 L234 943 L235 942 L235 931 L236 930 L236 890 L233 887 L228 877 L225 864 L226 845 L230 833 L232 831 L231 812 L230 811 L228 793 L220 766 L208 736 L202 724 L200 717 L138 583 L138 578 L137 577 L138 574 Z M151 570 L202 568 L203 567 L204 568 L207 596 L208 597 L208 604 L209 605 L210 621 L211 622 L211 629 L212 630 L215 660 L216 661 L216 668 L218 676 L221 708 L223 716 L223 723 L222 724 L200 677 L200 675 L187 649 L187 647 L181 636 L181 634 L166 604 L166 602 L153 576 L151 574 L150 571 Z M290 606 L298 598 L304 594 L321 586 L343 579 L359 575 L378 572 L379 571 L411 567 L412 566 L420 566 L421 565 L429 565 L430 564 L441 564 L442 563 L453 563 L454 562 L455 563 L456 562 L471 562 L472 561 L582 560 L583 561 L609 561 L610 562 L628 562 L629 563 L654 564 L655 565 L662 565 L663 566 L687 568 L688 569 L693 569 L694 570 L699 570 L700 571 L720 574 L740 579 L744 581 L747 581 L753 584 L761 586 L782 597 L795 610 L804 631 L808 647 L809 658 L810 659 L811 678 L812 679 L812 693 L811 694 L811 709 L810 710 L809 731 L808 732 L808 740 L807 741 L807 748 L806 749 L802 781 L794 813 L779 828 L773 836 L761 855 L754 871 L753 870 L753 863 L752 862 L753 859 L753 837 L752 836 L752 830 L748 820 L738 809 L730 805 L722 803 L706 804 L698 806 L690 810 L688 809 L715 787 L750 761 L767 744 L774 734 L781 720 L785 707 L786 695 L787 694 L787 671 L786 670 L785 659 L781 647 L772 632 L763 623 L756 619 L753 619 L754 628 L755 629 L753 638 L747 646 L738 650 L737 662 L730 677 L723 684 L717 688 L710 691 L702 692 L697 699 L688 708 L682 712 L670 717 L660 718 L658 725 L653 734 L643 744 L635 749 L624 753 L621 753 L619 755 L619 759 L616 767 L609 778 L599 788 L582 797 L579 800 L577 806 L579 818 L585 832 L590 839 L595 844 L604 850 L612 853 L626 854 L627 855 L603 880 L586 877 L585 876 L564 874 L563 873 L527 873 L526 874 L510 875 L509 876 L504 876 L489 880 L485 880 L461 855 L462 854 L473 853 L479 851 L488 846 L497 837 L503 826 L506 816 L507 804 L505 799 L502 796 L485 787 L474 776 L466 762 L465 754 L463 752 L461 752 L449 746 L435 736 L428 728 L425 722 L424 717 L411 715 L399 710 L393 706 L387 700 L382 692 L369 689 L359 683 L354 678 L347 666 L346 651 L337 647 L331 640 L329 631 L332 620 L330 619 L322 623 L312 632 L302 647 L296 666 L296 671 L295 672 L295 697 L296 698 L296 704 L300 720 L306 733 L312 742 L322 753 L345 771 L367 785 L397 809 L394 810 L391 808 L377 804 L362 804 L352 807 L347 810 L338 820 L334 831 L334 835 L333 836 L334 869 L333 870 L327 858 L317 843 L307 831 L291 816 L286 801 L282 780 L281 779 L281 775 L280 774 L278 756 L276 750 L275 735 L274 734 L273 715 L272 714 L271 673 L272 672 L272 663 L273 662 L273 656 L274 655 L276 640 L282 620 Z M287 606 L279 622 L273 643 L272 653 L270 659 L270 667 L269 668 L268 693 L269 694 L270 718 L271 719 L271 727 L272 728 L275 757 L276 758 L276 763 L277 764 L277 769 L278 770 L278 775 L282 790 L282 794 L285 806 L288 813 L287 815 L286 814 L280 815 L277 818 L276 826 L277 829 L284 836 L290 845 L296 860 L299 873 L299 879 L300 880 L301 904 L302 905 L302 923 L303 924 L303 931 L304 932 L305 940 L308 949 L314 961 L321 971 L335 984 L345 990 L361 996 L372 997 L373 998 L387 998 L388 997 L395 997 L396 996 L400 996 L401 997 L401 999 L396 1009 L386 1023 L373 1036 L363 1043 L355 1047 L345 1050 L327 1051 L326 1050 L320 1050 L309 1047 L295 1040 L298 1043 L309 1049 L325 1053 L340 1053 L358 1048 L373 1039 L388 1024 L399 1008 L404 997 L404 992 L399 994 L387 995 L386 996 L373 996 L372 995 L362 994 L348 989 L336 982 L319 965 L311 951 L307 940 L307 936 L305 930 L304 906 L303 905 L303 889 L302 888 L302 879 L301 878 L301 873 L300 872 L300 867 L298 859 L293 846 L289 839 L278 826 L278 821 L281 817 L288 817 L293 820 L306 833 L324 857 L335 881 L338 896 L347 921 L357 938 L371 952 L390 962 L402 965 L424 965 L439 961 L449 956 L456 951 L468 939 L479 920 L483 908 L483 904 L485 898 L485 891 L486 890 L486 883 L487 882 L499 879 L517 877 L518 876 L527 876 L528 875 L561 875 L562 876 L571 876 L572 877 L590 879 L602 882 L603 883 L603 892 L608 912 L614 926 L624 941 L632 949 L645 958 L661 964 L680 966 L681 965 L695 964 L712 957 L722 950 L732 939 L742 921 L745 910 L749 901 L752 888 L752 883 L764 854 L781 829 L792 818 L795 816 L800 815 L804 818 L805 825 L803 829 L796 836 L790 848 L790 851 L788 855 L787 863 L786 864 L786 870 L785 871 L785 879 L784 880 L782 931 L776 953 L766 970 L752 984 L743 990 L725 997 L712 998 L711 999 L694 998 L682 995 L682 998 L685 1005 L698 1023 L713 1037 L732 1048 L752 1053 L764 1053 L780 1049 L791 1042 L790 1041 L786 1044 L774 1049 L764 1050 L763 1051 L754 1051 L753 1050 L746 1050 L738 1048 L723 1041 L709 1031 L695 1016 L685 1000 L686 998 L694 1000 L699 1000 L700 1001 L721 1000 L735 996 L744 992 L758 982 L767 972 L775 960 L781 945 L784 932 L784 924 L785 923 L785 896 L786 895 L786 881 L787 880 L787 872 L788 871 L789 860 L795 842 L798 837 L806 829 L808 824 L807 818 L803 814 L796 812 L798 808 L802 792 L805 772 L806 771 L806 766 L807 765 L809 744 L810 743 L810 735 L811 734 L812 715 L813 714 L813 703 L814 702 L814 672 L813 671 L812 656 L811 655 L808 637 L804 624 L797 609 L787 598 L778 592 L764 585 L747 579 L744 579 L737 576 L721 572 L701 569 L700 568 L695 568 L694 567 L689 567 L688 566 L681 566 L680 565 L673 565 L672 564 L665 564 L664 563 L654 563 L653 562 L628 561 L627 560 L609 560 L608 559 L505 558 L504 559 L473 559 L472 560 L441 561 L440 562 L397 566 L396 567 L384 568 L373 571 L368 571 L363 573 L359 573 L339 578 L315 586 L297 596 Z M296 586 L313 578 L335 571 L351 567 L355 567 L360 565 L374 563 L375 562 L399 559 L400 558 L406 558 L407 557 L432 555 L433 554 L444 554 L445 553 L457 553 L458 552 L476 552 L477 551 L580 550 L581 551 L625 552 L626 553 L640 553 L641 554 L661 555 L662 556 L670 556 L671 557 L678 557 L679 558 L685 558 L692 560 L698 560 L699 561 L704 561 L705 562 L724 565 L744 570 L748 572 L751 572 L773 580 L794 592 L802 600 L808 617 L810 629 L812 634 L814 654 L815 655 L816 688 L817 689 L818 824 L817 825 L817 872 L816 873 L815 893 L814 894 L814 934 L815 935 L815 945 L816 946 L816 953 L817 954 L818 969 L819 970 L819 977 L820 978 L820 989 L821 990 L821 1029 L820 1030 L820 1040 L819 1041 L818 1055 L817 1056 L817 1061 L816 1062 L812 1086 L807 1102 L806 1109 L804 1113 L804 1116 L793 1148 L783 1170 L783 1172 L779 1179 L779 1181 L756 1226 L754 1228 L744 1248 L721 1288 L715 1296 L704 1307 L692 1315 L683 1319 L673 1320 L654 1301 L655 1300 L654 1262 L646 1253 L638 1248 L672 1240 L699 1230 L717 1221 L740 1205 L757 1188 L765 1177 L774 1160 L781 1136 L782 1114 L780 1109 L777 1106 L772 1104 L762 1105 L735 1112 L712 1113 L711 1112 L704 1112 L703 1111 L695 1110 L673 1101 L660 1092 L648 1080 L652 1075 L656 1067 L659 1056 L659 1039 L658 1038 L658 1034 L651 1018 L640 1006 L625 998 L612 996 L611 997 L605 997 L594 1002 L591 995 L591 989 L600 981 L606 978 L614 977 L615 976 L624 976 L625 977 L634 978 L646 983 L655 989 L666 1000 L672 1009 L677 1022 L678 1032 L679 1033 L679 1049 L678 1052 L679 1053 L679 1062 L682 1072 L685 1077 L697 1088 L713 1095 L722 1096 L723 1097 L742 1097 L743 1096 L753 1095 L765 1091 L786 1078 L796 1068 L804 1057 L781 1079 L772 1085 L753 1093 L744 1094 L743 1095 L722 1095 L721 1094 L713 1093 L701 1088 L695 1084 L687 1076 L684 1071 L681 1061 L681 1031 L680 1030 L680 1025 L675 1010 L669 1000 L661 991 L645 980 L627 974 L618 974 L612 969 L608 960 L607 948 L606 947 L606 937 L603 928 L598 923 L582 917 L572 916 L571 915 L563 915 L562 914 L529 914 L528 915 L509 917 L494 922 L488 928 L486 932 L484 954 L478 969 L471 974 L463 974 L462 975 L454 976 L437 983 L428 989 L415 1002 L407 1016 L403 1030 L404 1068 L399 1078 L391 1086 L381 1092 L363 1097 L344 1097 L328 1093 L315 1087 L301 1077 L281 1056 L282 1059 L289 1068 L299 1078 L310 1086 L323 1093 L339 1098 L344 1098 L345 1099 L363 1099 L364 1098 L373 1097 L386 1092 L398 1083 L402 1078 L407 1065 L407 1053 L406 1052 L406 1045 L405 1044 L405 1035 L406 1034 L407 1024 L411 1013 L415 1006 L429 991 L444 982 L455 978 L465 977 L466 976 L479 977 L491 982 L497 988 L495 996 L495 1001 L494 1002 L491 1000 L479 997 L472 997 L471 998 L463 999 L457 1001 L449 1006 L437 1018 L432 1026 L428 1039 L428 1058 L431 1068 L439 1081 L426 1094 L416 1101 L402 1108 L381 1113 L359 1113 L358 1112 L345 1111 L323 1105 L313 1105 L310 1106 L307 1109 L305 1115 L306 1137 L313 1160 L320 1174 L326 1183 L346 1204 L365 1218 L392 1232 L421 1242 L442 1246 L443 1247 L460 1249 L463 1251 L456 1255 L449 1264 L449 1303 L429 1323 L419 1323 L418 1322 L413 1322 L405 1320 L387 1311 L374 1299 L367 1289 L341 1241 L339 1239 L335 1230 L333 1228 L303 1169 L298 1155 L295 1150 L294 1145 L291 1140 L288 1129 L286 1126 L279 1104 L278 1097 L275 1090 L275 1086 L269 1065 L266 1045 L265 1044 L265 1038 L264 1037 L264 1022 L263 1021 L263 985 L264 984 L264 967 L265 966 L265 949 L266 948 L266 868 L265 867 L265 826 L264 825 L265 824 L264 823 L265 822 L264 820 L264 739 L265 738 L266 672 L267 671 L268 650 L269 649 L271 632 L281 598 L286 593 Z M272 519 L275 514 L283 507 L304 497 L332 489 L336 489 L341 487 L345 487 L361 483 L366 483 L372 481 L378 481 L379 480 L398 478 L399 477 L406 477 L407 476 L414 476 L415 475 L422 475 L423 474 L467 471 L468 470 L503 469 L504 468 L580 468 L581 469 L600 469 L601 470 L630 471 L631 472 L641 472 L642 473 L652 473 L653 474 L681 476 L682 477 L689 477 L690 478 L704 479 L717 482 L723 482 L724 483 L729 483 L739 486 L748 487 L776 495 L795 504 L801 508 L811 518 L812 525 L811 526 L809 549 L808 550 L807 563 L806 564 L805 576 L804 577 L803 593 L801 596 L792 588 L776 579 L748 569 L724 563 L720 563 L704 559 L699 559 L698 558 L693 558 L692 557 L662 554 L661 553 L639 552 L638 551 L624 551 L623 550 L604 550 L603 549 L570 549 L569 548 L512 548 L511 549 L461 550 L460 551 L435 552 L434 553 L425 553 L424 554 L416 554 L415 555 L387 558 L386 559 L381 559 L380 560 L351 565 L315 575 L295 584 L282 594 L281 593 L280 574 L279 573 L278 559 L277 558 L277 553 L274 540 Z M248 387 L252 375 L257 366 L263 358 L276 345 L285 338 L303 327 L305 327 L316 321 L331 315 L372 303 L376 303 L381 301 L401 298 L407 296 L426 294 L427 293 L459 290 L460 289 L470 289 L471 288 L484 288 L485 287 L547 285 L548 286 L602 287 L603 288 L626 289 L627 290 L635 290 L636 291 L651 292 L659 294 L666 294 L667 295 L690 298 L710 303 L714 303 L730 307 L734 309 L737 309 L758 316 L786 329 L808 344 L822 358 L831 371 L835 380 L837 388 L837 395 L836 396 L836 400 L832 416 L832 421 L829 431 L829 436 L826 446 L826 450 L825 451 L825 455 L824 456 L824 460 L823 461 L823 465 L822 466 L822 470 L821 471 L821 475 L818 485 L818 489 L813 510 L813 515 L812 516 L808 511 L799 504 L782 495 L765 489 L749 485 L745 485 L724 480 L692 476 L691 475 L684 475 L683 474 L656 472 L655 471 L645 471 L644 470 L633 470 L632 469 L603 468 L602 467 L580 467 L579 466 L505 466 L504 467 L482 467 L481 468 L465 468 L464 469 L441 470 L440 471 L432 471 L431 472 L422 472 L421 473 L413 473 L412 474 L405 474 L397 476 L390 476 L389 477 L384 477 L383 478 L378 478 L377 479 L372 479 L371 480 L366 480 L360 482 L345 484 L309 493 L287 502 L272 513 L269 503 L269 499 L268 498 L268 494 L267 493 L267 489 L266 488 L266 484 L265 483 L265 479 L264 478 L264 474 L263 473 L263 469 L261 464 L259 449 L256 438 L256 433 L250 407 L250 402 L248 396 Z M898 252 L901 256 L901 264 L900 265 L900 288 L899 289 L898 326 L897 327 L897 342 L896 343 L896 359 L895 360 L893 402 L892 403 L892 414 L891 415 L891 427 L890 428 L890 439 L889 440 L889 451 L888 452 L888 462 L887 463 L885 497 L884 498 L882 527 L881 528 L881 536 L880 537 L880 546 L879 547 L879 555 L878 556 L874 600 L873 601 L873 608 L872 609 L872 616 L871 617 L869 643 L868 644 L866 668 L865 669 L865 676 L864 677 L864 684 L863 685 L863 692 L862 693 L862 700 L861 701 L861 708 L860 709 L860 717 L859 718 L859 726 L858 727 L858 734 L857 735 L857 742 L856 743 L856 750 L855 751 L855 759 L854 760 L854 767 L853 768 L853 776 L852 777 L852 784 L851 785 L851 792 L850 793 L849 809 L847 817 L847 825 L846 826 L846 834 L845 835 L842 868 L836 871 L825 871 L824 870 L824 858 L825 857 L825 843 L826 842 L826 829 L827 828 L827 810 L828 809 L828 791 L829 790 L829 767 L830 766 L830 742 L831 741 L832 599 L833 598 L833 578 L834 577 L835 556 L836 555 L836 548 L837 547 L839 528 L840 527 L843 508 L845 503 L845 499 L877 373 L877 369 L878 368 L878 364 L884 338 L884 333 L886 327 L887 316 L888 315 L888 309 L890 302 L890 296 L891 295 L891 289 L892 288 L892 282 L893 281 L894 268 L896 260 L896 253 Z M894 251 L895 254 L893 261 L892 275 L891 276 L887 308 L886 309 L886 314 L885 315 L885 320 L884 321 L884 326 L883 327 L883 332 L880 343 L878 358 L876 363 L876 367 L872 381 L870 394 L842 503 L842 507 L837 527 L836 538 L835 539 L834 553 L833 554 L832 573 L831 574 L831 590 L830 591 L830 674 L829 675 L829 733 L828 734 L827 790 L826 791 L826 810 L825 811 L825 824 L824 825 L822 869 L820 870 L819 869 L819 850 L820 849 L820 716 L819 715 L819 678 L818 677 L818 662 L817 661 L817 652 L816 651 L815 638 L809 613 L804 600 L805 589 L806 588 L806 580 L807 579 L807 572 L808 571 L811 551 L813 546 L814 537 L823 501 L824 492 L826 487 L829 468 L831 463 L831 459 L832 458 L832 454 L833 453 L833 449 L839 423 L839 418 L840 417 L843 397 L846 386 L846 381 L848 375 L848 370 L850 364 L850 359 L852 353 L854 336 L856 330 L857 319 L859 313 L861 296 L862 295 L867 266 L870 260 L875 255 L885 251 Z M189 248 L191 251 L193 276 L194 277 L194 283 L195 284 L195 290 L196 291 L196 297 L197 298 L197 304 L198 305 L198 311 L200 318 L200 324 L201 325 L201 331 L203 337 L204 348 L205 349 L209 373 L212 382 L213 391 L218 408 L218 412 L228 452 L230 456 L230 460 L242 507 L246 534 L247 535 L247 542 L248 543 L249 563 L250 564 L250 582 L251 583 L251 682 L250 683 L250 695 L251 696 L252 771 L253 772 L253 791 L254 792 L254 806 L255 807 L255 818 L254 819 L245 780 L235 753 L227 736 L224 707 L223 706 L222 692 L221 691 L221 684 L220 683 L220 676 L219 675 L218 661 L217 660 L215 636 L214 635 L212 613 L211 612 L209 588 L208 587 L205 551 L204 550 L204 542 L203 541 L203 532 L202 531 L202 522 L201 521 L199 488 L198 487 L198 476 L197 475 L197 464 L196 463 L196 452 L195 451 L195 438 L194 437 L194 424 L193 423 L192 390 L191 389 L189 327 L188 326 L188 300 L187 299 L187 256 L186 255 L186 252 Z M193 246 L200 246 L211 250 L217 256 L220 263 L220 269 L222 275 L226 304 L228 310 L228 315 L229 316 L229 321 L230 322 L230 327 L231 328 L233 346 L234 347 L238 376 L240 382 L242 399 L245 410 L245 415 L246 416 L249 436 L250 437 L255 466 L257 471 L257 476 L259 481 L261 495 L263 500 L263 504 L266 513 L267 522 L275 554 L277 575 L278 576 L278 585 L279 586 L279 599 L272 618 L269 635 L268 636 L267 647 L266 648 L265 666 L264 667 L264 682 L263 683 L263 712 L262 713 L262 841 L263 842 L263 880 L264 881 L264 941 L263 942 L263 960 L262 961 L262 977 L261 978 L261 1027 L262 1028 L262 1038 L261 1039 L259 1033 L259 1021 L258 1020 L258 978 L259 977 L259 951 L260 950 L260 858 L259 857 L259 835 L258 834 L258 820 L257 819 L257 806 L256 805 L256 787 L255 786 L255 768 L254 767 L254 741 L253 740 L253 575 L252 574 L252 560 L251 559 L251 550 L250 549 L248 528 L247 527 L246 517 L242 502 L241 493 L228 444 L228 440 L226 436 L224 424 L220 412 L220 408 L217 399 L217 395 L215 390 L215 386 L213 381 L212 372 L210 367 L210 363 L206 347 L206 342 L204 336 L202 318 L200 311 L200 304 L199 303 L199 297 L198 296 L198 290 L196 282 L195 268 L194 267 L194 260 L193 259 L193 252 L192 251 L192 247 Z M220 163 L222 159 L231 150 L240 145 L256 140 L277 136 L282 134 L292 133 L307 129 L318 128 L335 124 L353 122 L360 120 L366 120 L367 119 L381 118 L382 117 L388 117 L389 116 L397 116 L398 115 L423 113 L424 112 L460 110 L461 109 L475 109 L476 108 L493 108 L494 107 L594 107 L595 108 L612 108 L613 109 L628 109 L629 110 L675 113 L676 114 L700 116 L701 117 L707 117 L715 119 L722 119 L723 120 L735 121 L736 122 L771 127 L777 129 L782 129 L783 130 L812 135 L817 137 L821 137 L845 144 L856 150 L864 158 L868 168 L868 179 L867 180 L867 187 L866 188 L866 195 L865 196 L865 203 L864 204 L864 211 L863 212 L863 220 L862 221 L862 228 L860 236 L860 244 L859 245 L859 251 L857 259 L857 266 L856 267 L856 274 L855 275 L855 281 L853 289 L852 303 L851 304 L847 336 L846 337 L843 361 L842 362 L842 367 L841 368 L839 381 L838 382 L837 381 L836 376 L826 359 L815 347 L804 338 L787 327 L769 318 L738 307 L691 296 L686 296 L685 295 L668 293 L667 292 L661 292 L660 291 L654 291 L653 290 L637 289 L636 288 L627 288 L626 287 L618 287 L617 286 L605 286 L604 285 L589 285 L588 284 L521 283 L520 284 L500 284 L499 285 L469 286 L468 287 L459 287 L458 288 L450 288 L449 289 L441 289 L440 290 L412 293 L411 294 L400 295 L399 296 L380 299 L375 301 L371 301 L330 313 L327 315 L317 318 L295 329 L277 341 L269 348 L254 366 L247 382 L245 377 L245 372 L242 359 L240 339 L239 338 L237 319 L236 318 L235 306 L233 299 L233 292 L231 285 L231 278 L230 277 L230 270 L229 269 L229 263 L227 255 L226 240 L225 239 L225 231 L224 230 L224 222 L222 214 L220 188 L219 187 L219 177 L218 176 L218 171 Z M241 142 L228 149 L219 159 L216 167 L216 181 L217 182 L217 192 L218 193 L218 201 L219 202 L219 210 L220 211 L220 218 L221 219 L221 226 L222 227 L223 243 L224 244 L226 265 L228 273 L229 289 L231 296 L231 302 L232 303 L233 316 L234 317 L235 329 L237 336 L238 349 L239 350 L244 385 L246 391 L247 402 L249 408 L249 413 L252 424 L252 429 L253 430 L263 484 L265 489 L267 503 L270 513 L270 519 L269 520 L268 519 L268 514 L266 509 L263 490 L257 466 L257 462 L251 436 L251 431 L249 425 L249 420 L245 404 L245 399 L243 393 L243 388 L242 387 L242 382 L241 381 L241 376 L240 375 L240 370 L239 369 L239 364 L238 363 L238 358 L237 357 L237 352 L236 351 L236 346 L233 333 L233 327 L230 316 L229 304 L228 303 L222 262 L219 255 L212 248 L201 244 L191 244 L188 245 L185 248 L184 251 L186 332 L187 333 L188 378 L189 379 L189 395 L190 396 L190 411 L191 412 L191 426 L192 427 L192 439 L193 440 L194 466 L195 467 L195 478 L196 479 L196 489 L197 490 L197 500 L198 501 L199 523 L200 524 L200 533 L201 534 L201 543 L202 544 L202 552 L203 553 L204 565 L203 566 L144 568 L139 570 L135 575 L136 587 L137 588 L139 602 L150 646 L150 650 L156 674 L158 689 L160 694 L160 699 L161 700 L163 715 L166 726 L166 732 L169 744 L169 750 L172 763 L172 769 L174 776 L174 782 L175 783 L177 801 L178 802 L180 820 L181 821 L181 827 L182 828 L182 834 L183 835 L184 847 L185 848 L185 855 L186 856 L187 870 L189 878 L189 885 L190 886 L192 909 L193 910 L195 932 L197 940 L198 956 L199 957 L199 964 L201 972 L204 1001 L210 1024 L216 1037 L223 1044 L227 1045 L228 1044 L240 1044 L241 1043 L259 1042 L262 1040 L263 1041 L268 1071 L274 1095 L278 1106 L278 1109 L280 1112 L280 1115 L286 1133 L290 1141 L295 1156 L299 1163 L301 1170 L325 1218 L327 1220 L331 1229 L333 1231 L337 1240 L339 1242 L343 1251 L345 1253 L366 1292 L372 1300 L381 1309 L391 1316 L402 1321 L417 1325 L430 1325 L432 1324 L452 1304 L451 1302 L451 1265 L460 1255 L467 1252 L476 1251 L477 1252 L502 1253 L503 1254 L560 1255 L561 1254 L598 1253 L599 1252 L609 1252 L610 1251 L618 1251 L619 1250 L635 1250 L644 1254 L652 1263 L652 1302 L673 1322 L680 1322 L689 1319 L705 1309 L718 1296 L727 1283 L776 1192 L776 1190 L791 1159 L806 1117 L816 1078 L820 1051 L821 1050 L822 1033 L823 1032 L823 1013 L824 1012 L824 1007 L823 1006 L823 987 L822 986 L822 976 L821 975 L821 967 L819 959 L817 932 L816 931 L816 899 L817 898 L817 885 L818 884 L819 873 L820 872 L821 873 L837 873 L841 872 L843 870 L866 891 L873 896 L888 896 L892 893 L897 859 L898 858 L898 852 L899 851 L899 846 L902 833 L902 827 L903 826 L903 821 L904 820 L904 815 L907 802 L907 796 L908 795 L908 790 L909 789 L909 784 L912 771 L912 765 L913 764 L913 758 L914 757 L916 738 L917 737 L917 730 L918 729 L918 722 L919 721 L919 709 L914 705 L864 705 L863 704 L864 694 L865 693 L865 686 L866 685 L866 678 L867 677 L867 669 L869 661 L869 654 L870 653 L873 620 L874 619 L877 584 L878 583 L878 576 L879 575 L879 568 L880 567 L880 558 L881 557 L882 539 L883 538 L884 520 L885 519 L885 510 L886 509 L886 499 L887 498 L887 489 L888 488 L890 455 L891 454 L893 419 L894 418 L894 405 L895 404 L897 363 L898 362 L898 347 L899 346 L900 313 L901 312 L902 273 L903 272 L903 254 L900 250 L897 249 L884 249 L877 251 L868 259 L865 265 L862 285 L860 290 L859 300 L857 306 L856 317 L854 323 L849 357 L847 363 L847 368 L845 374 L845 379 L844 380 L842 395 L840 401 L840 406 L838 411 L837 421 L836 422 L829 461 L827 466 L825 480 L823 485 L818 513 L816 518 L816 523 L815 524 L814 523 L815 511 L817 506 L822 477 L826 462 L826 457 L828 452 L828 448 L829 447 L829 443 L830 442 L830 438 L831 437 L831 433 L837 407 L838 397 L841 387 L841 382 L842 381 L842 376 L843 375 L843 370 L844 369 L844 364 L845 363 L845 358 L846 357 L846 352 L847 351 L847 346 L850 333 L850 327 L853 314 L853 307 L854 306 L855 293 L857 286 L857 279 L859 271 L859 264 L860 263 L860 256 L861 255 L861 248 L862 247 L862 240 L863 239 L863 232 L864 231 L865 216 L866 215 L866 208 L867 207 L867 200 L868 199 L868 192 L869 191 L869 184 L870 183 L870 173 L871 172 L870 171 L869 162 L864 154 L851 144 L835 138 L819 134 L815 134 L810 132 L806 132 L785 127 L780 127 L769 124 L740 120 L739 119 L733 119 L732 118 L706 115 L705 114 L698 114 L697 113 L690 113 L689 112 L680 112 L679 111 L661 110 L660 109 L649 109 L648 108 L637 108 L636 107 L624 107 L623 106 L580 105 L579 104 L480 105 L479 106 L466 106 L465 107 L453 107 L452 108 L441 108 L440 109 L401 112 L400 113 L377 115 L376 116 L363 117 L362 118 L350 119 L349 120 L332 122 L326 124 L315 125 L314 126 L270 134 Z" fill="#eef3f4" fill-rule="evenodd"/>
</svg>
