<svg xmlns="http://www.w3.org/2000/svg" width="1122" height="1402" viewBox="0 0 1122 1402">
  <title>0238</title>
  <path d="M438 1305 L443 1295 L460 1305 L481 1313 L502 1317 L503 1318 L507 1318 L508 1319 L514 1319 L522 1321 L531 1321 L532 1322 L545 1322 L546 1323 L580 1323 L581 1322 L601 1321 L602 1320 L608 1320 L609 1319 L624 1317 L636 1314 L658 1306 L675 1296 L677 1297 L681 1308 L674 1313 L657 1321 L626 1330 L621 1330 L608 1333 L601 1333 L600 1334 L591 1334 L590 1335 L535 1335 L534 1334 L523 1334 L522 1333 L515 1333 L514 1332 L495 1330 L471 1324 L445 1313 L438 1308 Z M707 1265 L710 1268 L718 1281 L726 1297 L731 1313 L731 1317 L730 1318 L728 1318 L721 1310 L711 1278 L706 1267 Z M705 1264 L706 1263 L707 1265 L706 1266 Z M413 1263 L414 1265 L408 1278 L400 1305 L395 1314 L392 1317 L389 1318 L388 1317 L388 1311 L394 1294 L406 1272 Z M704 1263 L705 1262 L706 1263 L705 1264 Z M413 1263 L414 1262 L415 1263 L414 1264 Z M703 1262 L704 1261 L705 1262 L704 1263 Z M646 1245 L656 1257 L663 1268 L675 1293 L674 1295 L673 1294 L674 1295 L672 1297 L658 1266 L648 1250 L645 1247 Z M644 1245 L645 1244 L646 1245 L645 1246 Z M642 1242 L643 1241 L645 1244 L644 1245 Z M641 1241 L642 1240 L643 1241 L642 1242 Z M477 1240 L478 1242 L470 1252 L460 1268 L450 1289 L449 1294 L447 1296 L444 1295 L443 1293 L445 1291 L445 1289 L455 1269 L468 1250 Z M640 1240 L641 1239 L642 1240 L641 1241 Z M477 1240 L478 1239 L479 1240 L478 1241 Z M639 1239 L640 1238 L641 1239 L640 1240 Z M638 1238 L639 1237 L640 1238 L639 1239 Z M448 1296 L464 1263 L473 1249 L479 1242 L478 1239 L492 1227 L505 1219 L510 1224 L520 1230 L527 1232 L534 1232 L535 1233 L548 1231 L557 1227 L559 1225 L568 1230 L575 1232 L581 1232 L582 1233 L593 1232 L602 1229 L608 1225 L614 1219 L618 1222 L608 1231 L597 1236 L587 1237 L586 1238 L570 1236 L563 1233 L561 1231 L546 1237 L540 1237 L539 1238 L526 1237 L515 1233 L509 1229 L503 1223 L503 1224 L509 1230 L515 1234 L526 1238 L531 1238 L532 1239 L546 1238 L561 1232 L563 1234 L570 1237 L587 1239 L588 1238 L594 1238 L605 1234 L611 1230 L619 1222 L627 1227 L639 1237 L638 1239 L649 1253 L658 1268 L671 1297 L669 1299 L650 1308 L623 1316 L607 1318 L606 1319 L600 1319 L599 1320 L590 1320 L589 1321 L550 1322 L549 1321 L534 1321 L533 1320 L509 1318 L508 1317 L504 1317 L503 1316 L482 1312 L465 1306 L449 1298 Z M551 1212 L552 1211 L567 1211 L568 1213 L563 1220 L558 1221 L554 1218 Z M610 1207 L603 1217 L594 1222 L590 1223 L577 1223 L566 1218 L570 1211 L586 1210 L587 1209 L593 1209 L605 1206 L609 1206 Z M510 1207 L513 1206 L514 1207 L532 1209 L533 1210 L549 1211 L552 1218 L549 1221 L543 1223 L529 1223 L518 1218 L512 1212 Z M618 1205 L616 1211 L612 1217 L605 1224 L594 1229 L579 1230 L568 1227 L561 1223 L566 1219 L575 1224 L580 1224 L581 1225 L592 1224 L601 1220 L608 1213 L611 1205 L614 1204 Z M502 1205 L503 1204 L508 1205 L511 1212 L516 1218 L522 1222 L528 1224 L533 1224 L534 1225 L544 1224 L553 1219 L558 1223 L549 1228 L541 1230 L526 1229 L518 1226 L512 1222 L505 1214 L502 1208 Z M628 1201 L629 1200 L633 1201 L632 1202 Z M632 1200 L633 1199 L635 1200 L634 1201 Z M484 1200 L485 1199 L488 1200 L487 1201 Z M635 1198 L641 1197 L656 1202 L674 1211 L695 1226 L717 1248 L733 1270 L745 1294 L748 1305 L748 1318 L745 1323 L740 1324 L734 1321 L732 1318 L731 1306 L722 1285 L709 1264 L696 1249 L689 1239 L677 1227 L664 1217 L646 1207 L633 1203 L632 1202 L633 1201 L637 1201 L638 1200 L635 1200 L634 1199 Z M484 1198 L485 1199 L482 1200 L486 1202 L485 1204 L482 1204 L479 1206 L474 1207 L460 1214 L442 1227 L430 1239 L412 1261 L399 1281 L388 1305 L387 1313 L386 1314 L386 1320 L380 1324 L375 1324 L371 1320 L370 1316 L370 1309 L375 1291 L384 1273 L401 1249 L424 1226 L442 1213 L468 1200 L479 1197 Z M621 1203 L627 1203 L647 1210 L667 1222 L679 1232 L690 1244 L701 1261 L708 1276 L717 1305 L722 1315 L728 1320 L732 1320 L739 1325 L743 1325 L749 1319 L750 1315 L749 1303 L739 1278 L723 1254 L702 1231 L685 1217 L661 1203 L642 1196 L649 1193 L655 1193 L656 1192 L664 1191 L678 1199 L701 1217 L715 1231 L727 1245 L737 1259 L746 1274 L755 1295 L757 1303 L757 1308 L758 1309 L758 1321 L754 1333 L748 1340 L737 1346 L721 1347 L708 1342 L696 1331 L685 1311 L677 1290 L660 1258 L652 1247 L641 1235 L629 1225 L615 1217 L617 1213 L620 1213 L637 1222 L647 1230 L662 1246 L679 1273 L690 1298 L692 1305 L695 1310 L695 1312 L703 1326 L712 1335 L719 1339 L726 1341 L732 1341 L736 1339 L726 1340 L719 1338 L711 1333 L705 1327 L694 1307 L687 1288 L677 1267 L665 1248 L655 1236 L644 1226 L631 1217 L618 1211 L619 1206 Z M499 1203 L501 1211 L499 1213 L496 1213 L490 1216 L475 1226 L457 1244 L444 1263 L434 1283 L426 1304 L414 1326 L405 1335 L397 1339 L393 1340 L383 1339 L386 1341 L393 1341 L400 1339 L408 1334 L414 1328 L426 1307 L433 1288 L442 1269 L457 1246 L472 1230 L481 1223 L497 1214 L502 1213 L505 1217 L495 1222 L480 1233 L466 1248 L458 1259 L443 1287 L434 1310 L423 1330 L413 1340 L405 1345 L398 1347 L393 1347 L392 1348 L383 1347 L377 1345 L369 1340 L362 1329 L361 1319 L360 1318 L361 1306 L364 1294 L376 1268 L385 1254 L401 1234 L427 1209 L449 1194 L457 1190 L461 1192 L473 1194 L477 1196 L452 1206 L430 1220 L418 1230 L405 1243 L396 1254 L381 1276 L375 1288 L370 1302 L369 1318 L374 1325 L380 1325 L386 1320 L391 1320 L397 1314 L401 1307 L409 1281 L419 1259 L429 1244 L440 1232 L452 1222 L472 1210 L489 1204 Z M658 1189 L659 1188 L660 1189 L659 1190 Z M458 1188 L459 1187 L460 1188 L459 1189 Z M448 1183 L450 1182 L458 1187 L455 1188 L449 1186 Z M414 1153 L415 1152 L416 1153 L415 1154 Z M712 1146 L713 1145 L714 1146 L713 1147 Z M713 1145 L714 1144 L715 1145 L714 1146 Z M399 1138 L400 1137 L401 1138 L400 1139 Z M398 1137 L399 1136 L400 1137 L399 1138 Z M392 1130 L393 1129 L394 1130 L393 1131 Z M391 1129 L392 1128 L393 1129 L392 1130 Z M375 1105 L387 1120 L395 1128 L394 1130 L392 1128 L391 1129 L384 1121 L374 1107 Z M371 1099 L375 1104 L374 1106 L370 1101 Z M752 1097 L743 1112 L724 1136 L715 1145 L714 1144 L712 1146 L713 1147 L705 1155 L683 1172 L668 1181 L640 1194 L605 1204 L587 1206 L586 1207 L577 1207 L576 1208 L541 1208 L540 1207 L531 1207 L530 1206 L519 1205 L494 1199 L470 1190 L447 1178 L425 1163 L421 1159 L422 1158 L420 1159 L415 1154 L416 1153 L415 1152 L414 1153 L411 1151 L400 1140 L401 1138 L402 1139 L399 1136 L398 1137 L393 1132 L395 1129 L422 1154 L445 1170 L474 1185 L479 1186 L490 1191 L516 1198 L535 1200 L536 1201 L548 1201 L549 1202 L583 1201 L584 1200 L590 1200 L591 1199 L607 1197 L638 1188 L648 1184 L677 1169 L689 1161 L709 1145 L729 1125 L745 1105 L749 1098 L751 1096 Z M368 1097 L369 1096 L371 1099 L370 1100 Z M753 1093 L754 1095 L752 1097 L751 1095 Z M366 1094 L367 1093 L369 1096 L368 1097 Z M753 1092 L754 1091 L755 1093 L754 1094 Z M365 1092 L366 1091 L367 1093 L366 1094 Z M754 1091 L755 1090 L756 1091 L755 1092 Z M364 1090 L365 1089 L366 1091 L365 1092 Z M755 1089 L756 1088 L757 1090 L756 1091 Z M363 1089 L364 1088 L365 1089 L364 1090 Z M756 1087 L757 1086 L758 1088 L757 1089 Z M362 1087 L363 1086 L364 1088 L363 1089 Z M757 1085 L758 1084 L759 1086 L758 1087 Z M361 1085 L362 1084 L363 1086 L362 1087 Z M360 1083 L361 1082 L362 1084 L361 1085 Z M551 1055 L552 1054 L560 1054 L561 1055 L560 1056 L552 1056 Z M560 1054 L561 1053 L564 1054 L563 1055 Z M548 1054 L549 1053 L552 1054 L551 1055 Z M563 1053 L564 1052 L566 1053 L565 1054 Z M546 1053 L547 1052 L549 1053 L548 1054 Z M565 1052 L566 1051 L568 1052 L567 1053 Z M544 1052 L545 1051 L547 1052 L546 1053 Z M567 1051 L568 1050 L570 1051 L569 1052 Z M542 1051 L543 1050 L545 1051 L544 1052 Z M569 1050 L570 1049 L572 1050 L571 1051 Z M634 1048 L635 1047 L636 1048 L635 1049 Z M537 1048 L539 1047 L543 1050 L541 1051 Z M478 1048 L479 1047 L487 1052 L496 1055 L522 1058 L549 1067 L554 1067 L555 1068 L563 1067 L586 1059 L613 1056 L624 1053 L633 1048 L635 1049 L630 1056 L616 1070 L610 1074 L598 1079 L590 1080 L589 1081 L583 1081 L582 1082 L531 1082 L530 1081 L524 1081 L523 1080 L515 1079 L501 1073 L490 1064 L481 1053 L482 1051 L483 1052 L482 1051 L481 1052 Z M635 1047 L636 1046 L637 1047 L636 1048 Z M477 1047 L478 1046 L479 1047 L478 1048 Z M630 1045 L631 1044 L632 1045 L631 1046 Z M482 1045 L483 1044 L486 1045 L519 1044 L531 1047 L546 1055 L552 1057 L560 1057 L566 1055 L579 1048 L593 1044 L629 1045 L630 1046 L625 1049 L615 1052 L586 1055 L570 1060 L564 1063 L552 1064 L526 1055 L504 1053 L503 1052 L495 1051 Z M571 1049 L579 1044 L592 1040 L610 1040 L611 1041 L627 1042 L628 1043 L627 1044 L617 1044 L616 1043 L607 1043 L606 1042 L596 1042 L580 1046 L573 1050 Z M489 1043 L494 1041 L501 1041 L502 1040 L521 1040 L529 1042 L538 1047 L535 1048 L530 1045 L527 1045 L523 1043 L517 1043 L516 1042 L506 1042 L505 1043 L495 1043 L494 1044 L490 1044 Z M462 1040 L465 1038 L469 1040 L479 1051 L488 1064 L494 1070 L503 1076 L516 1081 L520 1081 L526 1083 L535 1083 L536 1084 L555 1084 L556 1083 L558 1084 L575 1084 L576 1083 L592 1082 L603 1079 L613 1074 L623 1066 L632 1054 L645 1040 L648 1038 L651 1040 L643 1046 L631 1064 L618 1077 L606 1084 L586 1089 L527 1089 L507 1084 L499 1080 L491 1074 L482 1064 L471 1046 L466 1041 Z M653 1033 L654 1032 L658 1033 L657 1034 Z M457 1032 L458 1031 L459 1032 L458 1033 Z M659 1027 L660 1026 L661 1027 L660 1028 Z M567 1012 L567 1043 L568 1044 L569 1043 L569 1025 L568 1024 L568 1013 Z M858 1009 L859 1008 L862 1009 L861 1010 Z M857 1008 L858 1007 L859 1008 L858 1009 Z M258 1009 L261 1007 L263 1008 L261 1010 Z M855 1007 L856 1006 L857 1007 L856 1008 Z M262 1007 L263 1006 L265 1007 L264 1008 Z M264 1006 L265 1005 L266 1006 L265 1007 Z M862 1003 L863 1002 L864 1004 L863 1005 Z M836 996 L838 995 L841 998 L839 999 Z M832 993 L834 992 L837 995 L835 996 Z M831 992 L832 991 L833 992 L832 993 Z M830 991 L831 990 L832 991 L831 992 Z M593 993 L601 990 L608 990 L609 991 L600 994 L594 994 Z M589 991 L590 990 L591 991 L590 992 Z M505 991 L506 990 L512 990 L516 992 L515 993 L509 993 Z M829 990 L830 989 L831 990 L830 991 Z M519 990 L520 989 L521 990 L520 991 Z M826 988 L827 987 L828 988 L827 989 Z M825 987 L826 986 L827 987 L826 988 Z M440 1057 L440 1058 L443 1058 L451 1054 L457 1049 L462 1042 L465 1042 L472 1049 L473 1052 L484 1068 L495 1079 L504 1085 L515 1089 L524 1090 L525 1091 L536 1091 L537 1092 L541 1091 L543 1092 L547 1091 L578 1092 L579 1091 L594 1090 L604 1087 L617 1080 L629 1068 L642 1049 L647 1044 L652 1042 L655 1047 L662 1054 L674 1059 L673 1057 L665 1054 L656 1045 L650 1037 L653 1035 L658 1036 L661 1034 L662 1027 L658 1023 L660 1022 L664 1025 L664 1023 L661 1021 L656 1021 L653 1024 L653 1025 L656 1023 L660 1025 L659 1027 L656 1026 L646 1035 L635 1040 L622 1041 L621 1040 L615 1040 L608 1038 L593 1038 L582 1041 L568 1049 L558 1053 L550 1052 L542 1047 L543 1046 L543 1039 L544 1038 L544 1020 L545 1019 L545 1013 L544 1012 L545 1011 L561 1012 L569 1010 L578 1005 L588 996 L601 995 L602 994 L606 994 L611 991 L614 992 L614 991 L610 988 L599 988 L591 991 L590 990 L591 988 L590 988 L575 1004 L567 1008 L557 1009 L556 1010 L555 1009 L544 1008 L534 1002 L521 989 L518 990 L510 987 L502 988 L500 991 L501 992 L503 991 L509 994 L515 994 L523 996 L536 1007 L544 1011 L543 1029 L542 1030 L542 1045 L543 1046 L541 1047 L533 1042 L519 1038 L504 1038 L496 1040 L480 1040 L476 1039 L468 1035 L462 1030 L458 1025 L459 1023 L461 1025 L462 1024 L460 1022 L455 1021 L449 1025 L450 1026 L456 1022 L458 1025 L452 1030 L452 1032 L456 1036 L458 1034 L462 1035 L464 1037 L450 1053 Z M824 986 L825 985 L826 986 L825 987 Z M309 970 L310 993 L311 994 L311 1003 L312 1004 L311 1005 L279 1008 L278 1009 L271 1009 L270 1010 L264 1010 L263 1009 L267 1007 L274 1000 L292 987 L304 975 L308 969 Z M809 969 L810 968 L813 973 L820 980 L822 984 L829 992 L842 1002 L845 1003 L840 999 L841 998 L852 1004 L853 1007 L857 1009 L856 1010 L851 1010 L850 1009 L842 1009 L841 1008 L832 1008 L831 1007 L822 1007 L821 1006 L808 1005 L807 1004 L807 997 L808 996 L808 984 L809 983 Z M512 931 L513 930 L514 931 L513 932 Z M812 929 L816 929 L819 933 L818 937 L818 955 L820 963 L822 966 L820 968 L822 967 L838 983 L855 995 L862 1006 L861 1007 L849 1002 L837 994 L826 985 L811 968 L813 967 L813 966 L811 967 L810 966 L810 944 L811 943 L811 930 Z M511 930 L512 929 L513 930 L512 931 Z M601 929 L602 928 L603 929 L602 930 Z M510 929 L511 928 L512 929 L511 930 Z M819 926 L820 927 L819 931 L817 929 Z M819 925 L820 924 L821 925 L820 926 Z M299 923 L306 930 L306 935 L307 936 L307 956 L308 957 L308 965 L307 966 L306 965 L307 968 L303 974 L287 990 L267 1004 L259 1007 L258 1006 L263 998 L270 991 L281 983 L295 969 L298 964 L301 952 L300 930 L298 925 Z M603 925 L597 932 L596 937 L603 930 L606 929 L611 929 L621 934 L627 941 L632 953 L633 971 L631 979 L627 987 L618 996 L607 1001 L592 1002 L594 1003 L603 1003 L611 1001 L620 997 L627 991 L633 980 L635 983 L635 987 L637 993 L646 1006 L667 1017 L674 1025 L678 1035 L679 1045 L678 1033 L673 1022 L667 1016 L657 1011 L647 1004 L642 998 L637 989 L635 982 L635 967 L636 966 L635 955 L631 943 L627 937 L619 930 L613 928 L605 928 L604 929 L602 928 L608 924 L617 923 L631 927 L640 933 L650 944 L658 958 L665 977 L669 993 L663 968 L652 945 L643 934 L630 925 L621 922 L610 922 Z M508 924 L503 922 L493 922 L482 926 L476 930 L465 941 L459 950 L454 960 L447 980 L444 996 L448 979 L455 960 L461 949 L469 938 L478 930 L491 924 L501 923 L505 924 L511 928 L510 929 L508 928 L498 929 L492 932 L485 940 L481 948 L479 956 L480 978 L477 989 L474 995 L463 1007 L451 1013 L443 1019 L436 1030 L434 1039 L435 1039 L437 1030 L441 1023 L448 1016 L468 1005 L474 998 L478 991 L481 980 L485 988 L493 996 L507 1002 L520 1002 L520 1001 L508 1001 L501 999 L496 996 L486 985 L483 978 L482 970 L481 969 L481 960 L485 945 L490 937 L494 933 L502 929 L507 929 L513 933 L515 937 L516 937 L514 930 Z M818 916 L819 915 L820 917 L819 918 Z M606 887 L605 888 L605 894 L608 898 L606 893 L606 889 L608 887 Z M287 884 L289 889 L292 907 L296 917 L298 932 L299 933 L299 958 L295 967 L291 972 L268 992 L267 991 L267 986 L268 985 L271 952 L272 951 L272 944 L273 943 L273 935 L274 934 L274 927 L275 926 L275 919 L276 918 L278 886 L279 885 L286 885 Z M849 883 L850 884 L854 927 L855 928 L856 944 L857 945 L859 969 L860 970 L860 978 L861 979 L861 986 L862 987 L862 994 L863 995 L863 1002 L862 1003 L855 994 L855 989 L854 988 L851 944 L850 943 L850 931 L849 930 L849 918 L848 917 L848 901 L847 900 L847 890 Z M832 883 L833 884 L841 884 L846 886 L846 911 L847 912 L847 923 L848 924 L848 936 L849 937 L852 981 L853 982 L853 990 L854 991 L853 993 L842 985 L826 970 L823 966 L820 958 L820 951 L819 950 L820 932 L827 909 L827 906 L831 896 L830 885 Z M274 883 L276 885 L276 902 L275 903 L275 912 L274 913 L272 939 L271 940 L271 947 L270 948 L266 991 L265 994 L258 1003 L257 1002 L258 992 L259 991 L260 977 L261 976 L261 970 L262 969 L262 963 L263 962 L263 956 L265 948 L265 941 L267 934 L267 928 L268 927 L268 921 L269 920 L269 914 L270 913 L270 907 L272 899 L272 892 L273 891 L273 884 Z M274 881 L281 877 L286 877 L287 878 L287 882 L286 883 L277 884 Z M831 877 L832 876 L844 877 L849 881 L846 884 L832 882 L831 881 Z M678 865 L679 864 L680 865 L679 866 Z M435 864 L436 863 L437 864 L436 865 Z M745 852 L735 867 L724 878 L716 883 L716 884 L724 879 L733 871 L742 859 Z M476 850 L477 849 L478 850 L477 851 Z M619 868 L624 859 L634 848 L635 849 L635 855 L639 864 L646 870 L650 871 L649 872 L639 872 L638 873 L620 872 Z M465 870 L469 868 L476 861 L479 854 L479 849 L480 848 L486 855 L494 869 L493 871 L484 871 L483 872 L469 872 Z M476 846 L477 845 L478 846 L477 847 Z M445 842 L446 841 L447 842 L446 843 Z M658 839 L653 843 L651 847 L651 852 L656 858 L663 859 L669 856 L671 853 L672 847 L668 843 L667 840 L665 839 Z M636 838 L637 837 L639 838 L638 839 Z M638 837 L639 836 L640 837 L639 838 Z M451 837 L446 840 L443 844 L442 848 L444 853 L448 857 L454 858 L459 856 L462 853 L463 845 L462 842 L459 839 L455 837 Z M639 836 L640 835 L641 836 L640 837 Z M641 835 L642 834 L643 835 L642 836 Z M470 834 L471 833 L472 834 L471 835 Z M642 834 L644 832 L646 833 L644 835 Z M469 833 L470 832 L471 833 L470 834 Z M645 832 L646 831 L648 832 L647 833 Z M467 832 L468 831 L469 832 L468 833 Z M465 831 L466 830 L468 831 L467 832 Z M464 830 L465 829 L466 830 L465 831 Z M686 829 L687 839 L686 840 L685 839 L685 835 L684 834 L684 847 L680 856 L672 864 L662 868 L654 868 L647 865 L638 853 L636 848 L637 845 L650 836 L652 836 L659 832 L673 828 L684 827 Z M717 827 L718 828 L717 833 L709 844 L697 856 L680 865 L679 864 L686 855 L689 847 L690 836 L687 827 L688 826 L689 827 L709 827 L710 828 L716 828 Z M392 827 L393 826 L395 827 L394 828 Z M428 826 L429 825 L434 825 L435 826 L443 827 L455 831 L471 840 L477 845 L475 853 L471 860 L465 865 L459 867 L450 866 L440 861 L432 851 L429 840 L429 833 L429 836 L428 837 L427 836 L427 829 L428 828 L429 831 L430 827 L429 829 Z M396 827 L397 826 L404 826 L405 825 L425 825 L426 826 L425 834 L424 835 L425 846 L429 855 L436 863 L433 864 L422 858 L414 852 L397 833 Z M391 826 L392 825 L393 826 L392 827 Z M736 824 L727 832 L714 850 L702 862 L695 867 L683 873 L670 877 L659 878 L658 879 L634 879 L626 877 L627 876 L639 876 L640 875 L661 873 L679 868 L691 862 L699 856 L710 845 L716 836 L725 827 L733 823 Z M356 817 L357 824 L363 841 L374 861 L390 877 L396 881 L400 882 L388 874 L374 858 L365 843 Z M755 812 L754 812 L752 817 L723 858 L711 870 L699 878 L685 884 L672 887 L667 887 L666 888 L636 888 L623 885 L618 882 L619 881 L615 886 L617 884 L619 884 L622 886 L628 887 L630 889 L629 890 L615 890 L614 889 L609 894 L613 890 L624 892 L632 890 L660 890 L661 889 L669 889 L670 888 L675 888 L683 886 L700 879 L717 866 L726 856 L750 822 Z M359 809 L360 808 L361 809 L360 810 Z M763 794 L762 794 L758 802 L749 812 L742 817 L735 820 L722 823 L682 822 L681 823 L675 823 L674 824 L666 825 L649 832 L647 831 L649 829 L663 823 L671 822 L672 821 L678 821 L679 820 L686 820 L686 819 L672 820 L657 824 L644 831 L633 840 L632 839 L628 840 L632 841 L635 838 L637 839 L628 847 L621 856 L613 872 L611 882 L617 876 L620 876 L621 877 L620 879 L621 878 L625 878 L632 880 L658 880 L659 879 L665 879 L678 876 L692 870 L700 865 L712 854 L726 835 L737 825 L735 823 L747 815 L756 806 L761 799 Z M609 792 L610 793 L605 797 L604 796 Z M609 792 L610 791 L611 792 L610 793 Z M610 791 L612 789 L614 790 L612 792 Z M613 789 L614 788 L615 789 L614 790 Z M614 788 L615 787 L617 788 L616 789 Z M495 788 L497 787 L500 790 L498 791 Z M350 788 L351 787 L352 788 L351 789 Z M616 787 L618 785 L620 786 L618 788 Z M492 786 L494 785 L496 787 L494 788 Z M619 785 L620 784 L622 785 L621 786 Z M490 785 L491 784 L493 785 L492 786 Z M621 784 L622 783 L623 784 L622 785 Z M489 784 L490 783 L491 784 L490 785 Z M623 783 L624 782 L625 783 L624 784 Z M487 783 L488 782 L490 783 L489 784 Z M625 782 L626 781 L627 782 L626 783 Z M485 782 L486 781 L488 782 L487 783 Z M627 781 L628 780 L629 781 L628 782 Z M483 781 L484 780 L486 781 L485 782 Z M628 780 L629 779 L631 780 L630 781 Z M482 780 L483 779 L484 780 L483 781 Z M631 779 L632 778 L633 779 L632 780 Z M480 779 L481 778 L482 779 L481 780 Z M633 778 L634 777 L635 778 L634 779 Z M478 778 L479 777 L480 778 L479 779 Z M642 777 L643 776 L645 777 L644 778 Z M476 777 L477 776 L478 777 L477 778 Z M644 776 L645 775 L648 776 L647 777 Z M638 776 L639 775 L640 776 L639 777 Z M474 776 L475 775 L476 776 L475 777 Z M643 774 L644 773 L645 774 L644 775 Z M614 774 L615 773 L616 774 L615 775 Z M615 773 L616 772 L617 773 L616 774 Z M622 757 L623 756 L624 757 L623 758 Z M623 756 L624 755 L625 756 L624 757 Z M624 755 L625 754 L626 755 L625 756 Z M485 755 L486 754 L487 755 L486 756 Z M625 754 L626 753 L627 754 L626 755 Z M484 754 L485 753 L486 754 L485 755 Z M483 753 L484 752 L485 753 L484 754 Z M630 752 L631 751 L632 752 L631 753 Z M626 752 L627 751 L628 753 L627 754 Z M482 752 L483 751 L484 752 L483 753 Z M631 751 L632 750 L633 751 L632 752 Z M627 751 L628 750 L629 751 L628 752 Z M632 750 L633 749 L634 750 L633 751 Z M628 750 L629 749 L630 750 L629 751 Z M484 750 L485 749 L486 750 L485 751 Z M633 749 L634 748 L635 749 L634 750 Z M629 749 L630 748 L631 749 L630 750 Z M483 749 L484 748 L485 749 L484 750 Z M634 748 L635 747 L636 748 L635 749 Z M630 748 L631 747 L632 748 L631 749 Z M482 748 L483 747 L484 748 L483 749 Z M631 747 L632 746 L633 747 L632 748 Z M481 747 L482 746 L483 747 L482 748 Z M632 746 L633 745 L634 746 L633 747 Z M605 746 L606 745 L607 746 L606 747 Z M480 746 L481 745 L482 746 L481 747 Z M633 745 L634 744 L635 745 L634 746 Z M506 745 L507 744 L508 745 L507 746 Z M479 745 L480 744 L481 745 L480 746 Z M634 744 L635 743 L636 744 L635 745 Z M606 744 L607 743 L608 744 L607 745 Z M478 744 L479 743 L480 744 L479 745 Z M635 743 L636 742 L637 743 L636 744 Z M607 743 L608 742 L609 743 L608 744 Z M505 743 L506 742 L507 743 L506 744 Z M477 743 L478 742 L479 743 L478 744 Z M504 742 L505 741 L506 742 L505 743 Z M476 742 L477 741 L478 742 L477 743 Z M608 741 L609 740 L610 742 L609 743 Z M475 741 L476 740 L477 741 L476 742 Z M609 740 L610 739 L611 740 L610 741 Z M503 740 L504 739 L505 741 L504 742 Z M474 740 L475 739 L476 740 L475 741 Z M610 739 L611 738 L612 739 L611 740 Z M502 739 L503 738 L504 739 L503 740 Z M473 739 L474 738 L475 739 L474 740 Z M468 739 L470 738 L483 751 L481 752 L476 747 L471 744 L468 741 L469 740 Z M501 738 L502 737 L503 738 L502 739 Z M472 738 L473 737 L474 738 L473 739 Z M467 738 L468 737 L469 738 L468 739 Z M500 737 L501 736 L502 737 L501 738 Z M613 735 L614 737 L612 739 L611 737 Z M613 735 L614 734 L615 735 L614 736 Z M499 735 L500 734 L501 736 L500 737 Z M614 734 L615 733 L616 734 L615 735 Z M498 734 L499 733 L500 734 L499 735 Z M824 733 L825 732 L826 733 L825 734 Z M615 733 L616 732 L617 733 L616 734 Z M497 733 L498 732 L499 733 L498 734 Z M616 732 L617 731 L618 732 L617 733 Z M496 732 L497 731 L498 732 L497 733 Z M495 731 L496 730 L497 731 L496 732 Z M494 730 L495 729 L496 730 L495 731 Z M745 729 L733 740 L718 749 L696 757 L674 762 L648 770 L619 783 L606 792 L591 807 L585 816 L578 830 L574 843 L572 859 L571 860 L571 875 L570 876 L571 980 L568 988 L563 993 L559 995 L549 994 L542 989 L544 992 L552 996 L558 996 L565 993 L568 990 L571 984 L571 980 L572 979 L572 946 L571 945 L571 870 L572 869 L572 858 L573 857 L573 850 L574 849 L575 841 L580 827 L587 814 L593 806 L603 796 L605 797 L594 809 L584 828 L589 818 L596 808 L609 795 L629 782 L640 777 L643 778 L628 788 L618 798 L605 819 L599 845 L599 862 L600 863 L601 874 L603 880 L606 884 L601 869 L601 861 L600 860 L601 840 L602 839 L602 834 L605 822 L611 810 L619 798 L626 791 L640 781 L667 769 L659 771 L651 775 L647 774 L646 773 L647 772 L675 763 L700 757 L716 751 L732 742 Z M493 729 L494 728 L495 729 L494 730 Z M621 727 L622 728 L618 732 L617 730 Z M492 728 L493 727 L494 728 L493 729 Z M778 727 L777 741 L773 756 L773 760 L769 772 L762 787 L752 800 L746 805 L736 810 L729 812 L724 812 L723 813 L683 812 L682 813 L675 813 L674 814 L665 815 L653 819 L635 829 L620 843 L612 856 L607 872 L608 872 L608 869 L612 858 L620 845 L634 831 L651 821 L662 817 L676 815 L677 814 L687 814 L688 813 L695 813 L696 814 L725 814 L739 810 L749 804 L761 791 L770 773 L777 747 Z M621 727 L622 726 L623 727 L622 728 Z M491 727 L492 726 L493 727 L492 728 Z M335 727 L335 737 L336 738 L336 744 L337 745 L340 762 L344 774 L347 779 L348 786 L350 789 L351 794 L354 800 L359 806 L358 808 L362 817 L385 850 L403 869 L413 876 L427 883 L446 888 L452 888 L453 889 L479 889 L491 892 L496 892 L499 891 L500 889 L502 889 L504 886 L506 888 L506 893 L504 897 L506 896 L507 888 L505 885 L510 874 L511 862 L512 861 L511 836 L506 819 L500 807 L494 798 L483 787 L471 779 L461 774 L444 768 L459 775 L461 775 L480 786 L492 797 L501 810 L507 826 L509 834 L509 839 L510 840 L510 867 L505 885 L499 890 L494 890 L493 891 L482 888 L490 886 L493 884 L497 885 L494 882 L491 884 L480 887 L460 888 L459 887 L443 886 L421 879 L406 870 L393 858 L381 843 L363 817 L360 811 L361 809 L377 821 L388 825 L412 852 L426 862 L442 869 L445 869 L453 872 L475 874 L476 875 L489 875 L490 876 L489 877 L481 877 L480 878 L456 878 L455 877 L442 875 L428 870 L413 861 L398 846 L386 830 L377 823 L387 833 L399 849 L409 859 L420 867 L435 874 L450 878 L471 880 L472 879 L490 878 L493 875 L496 876 L499 881 L500 881 L500 877 L497 867 L491 855 L486 848 L472 835 L473 834 L464 827 L447 820 L436 819 L435 818 L434 819 L443 820 L453 823 L465 829 L462 830 L446 823 L438 822 L437 821 L431 821 L430 820 L389 821 L377 818 L366 812 L358 804 L351 791 L352 789 L365 803 L371 807 L381 811 L393 812 L394 813 L417 812 L418 811 L435 812 L436 813 L441 813 L453 816 L472 825 L479 830 L492 844 L498 854 L504 871 L504 868 L497 850 L488 837 L474 825 L459 817 L443 812 L430 811 L429 810 L388 811 L376 808 L365 802 L354 790 L345 773 L338 749 Z M622 726 L623 725 L624 726 L623 727 Z M490 726 L491 725 L492 726 L491 727 Z M623 725 L624 724 L625 725 L624 726 Z M489 725 L490 724 L491 725 L490 726 Z M624 724 L625 723 L626 724 L625 725 Z M488 724 L489 723 L490 724 L489 725 Z M399 724 L400 723 L402 724 L401 725 Z M361 724 L364 729 L370 735 L384 745 L410 756 L439 763 L461 770 L464 772 L463 773 L480 780 L501 794 L514 807 L524 822 L531 841 L531 845 L533 851 L534 867 L535 867 L533 847 L528 829 L516 808 L499 791 L501 790 L505 793 L520 809 L526 818 L532 831 L536 844 L537 856 L538 857 L538 868 L539 869 L538 978 L539 923 L540 922 L540 874 L539 873 L539 860 L538 859 L537 846 L533 832 L521 809 L503 790 L484 778 L454 766 L421 758 L394 749 L374 737 Z M625 723 L626 722 L627 723 L626 724 Z M487 723 L488 722 L489 723 L488 724 Z M397 723 L398 722 L400 723 L399 724 Z M626 722 L627 721 L628 722 L627 723 Z M486 722 L487 721 L488 722 L487 723 Z M396 722 L397 721 L398 722 L397 723 Z M825 720 L826 721 L825 725 L824 724 Z M714 721 L715 720 L717 721 L716 722 Z M627 721 L628 720 L629 721 L628 722 Z M394 721 L395 720 L397 721 L396 722 Z M716 720 L717 719 L718 720 L717 721 Z M543 720 L544 719 L545 720 L544 721 Z M392 720 L393 719 L395 720 L394 721 Z M717 719 L718 718 L720 719 L719 720 Z M391 719 L392 718 L393 719 L392 720 Z M719 718 L720 717 L721 718 L720 719 Z M542 718 L543 717 L544 718 L543 719 Z M390 718 L391 717 L392 718 L391 719 Z M720 717 L721 716 L722 717 L721 718 Z M388 717 L389 716 L390 717 L389 718 Z M722 716 L723 715 L724 716 L723 717 Z M387 716 L388 715 L389 716 L388 717 Z M723 715 L724 714 L725 715 L724 716 Z M385 715 L386 714 L387 715 L386 716 Z M724 714 L726 712 L728 713 L726 715 Z M731 711 L732 713 L727 717 L726 716 Z M727 712 L728 711 L729 712 L728 713 Z M385 712 L387 711 L389 713 L387 714 Z M731 711 L732 710 L733 711 L732 712 Z M728 711 L729 710 L730 711 L729 712 Z M732 710 L733 709 L734 710 L733 711 Z M729 710 L730 709 L731 710 L730 711 Z M382 710 L384 709 L386 711 L384 712 Z M733 709 L734 708 L735 709 L734 710 Z M730 709 L731 708 L732 709 L731 710 Z M380 709 L381 708 L383 709 L382 710 Z M729 707 L730 708 L726 711 L725 710 Z M649 708 L631 717 L614 732 L605 744 L597 762 L598 762 L606 748 L617 734 L636 716 Z M466 708 L481 718 L497 734 L505 744 L516 762 L515 757 L508 743 L497 729 L486 719 L475 712 Z M384 708 L385 707 L387 708 L386 709 Z M379 708 L380 707 L381 708 L380 709 Z M729 707 L730 706 L731 707 L730 708 Z M378 707 L379 706 L380 707 L379 708 Z M381 706 L383 705 L385 707 L383 708 Z M377 706 L378 705 L379 706 L378 707 Z M737 704 L738 706 L735 709 L734 707 Z M728 705 L729 704 L730 705 L729 706 Z M380 705 L381 704 L382 705 L381 706 Z M737 704 L738 703 L739 704 L738 705 Z M730 704 L731 703 L732 704 L731 705 Z M378 704 L379 703 L381 704 L380 705 Z M374 704 L375 703 L376 704 L375 705 Z M371 704 L372 703 L382 714 L380 715 Z M738 703 L739 702 L740 703 L739 704 Z M731 703 L732 702 L733 703 L732 704 Z M565 703 L558 713 L556 713 L551 706 L549 705 L553 711 L551 712 L553 711 L554 714 L560 714 L560 712 Z M377 703 L378 702 L379 703 L378 704 Z M373 703 L374 702 L375 703 L374 704 Z M370 703 L371 702 L372 703 L371 704 Z M376 702 L377 701 L378 702 L377 703 Z M369 702 L370 701 L371 702 L370 703 Z M739 701 L740 700 L741 702 L740 703 Z M740 700 L741 699 L742 700 L741 701 Z M368 700 L369 699 L370 701 L369 702 Z M741 699 L742 698 L743 699 L742 700 Z M376 699 L378 698 L385 703 L397 709 L425 719 L449 731 L476 751 L499 773 L497 774 L483 765 L455 751 L453 751 L448 748 L418 736 L408 733 L396 727 L387 721 L381 715 L383 714 L393 722 L409 730 L423 735 L401 725 L403 724 L397 721 L388 714 L391 713 L396 715 L386 709 L388 708 L405 716 L416 719 L399 713 L383 705 Z M367 699 L368 698 L369 699 L368 700 Z M742 697 L743 696 L744 697 L743 698 Z M373 697 L375 696 L377 698 L375 699 Z M366 697 L367 696 L368 697 L367 698 Z M743 696 L744 695 L745 696 L744 697 Z M738 696 L730 703 L720 709 L689 722 L709 715 L727 705 L729 706 L721 712 L724 710 L726 711 L722 715 L710 723 L714 721 L715 722 L713 724 L688 736 L692 735 L716 723 L725 716 L727 717 L715 727 L702 734 L687 739 L665 749 L663 749 L656 753 L654 753 L636 762 L618 773 L616 772 L637 751 L664 731 L683 721 L716 708 L727 702 L736 695 Z M372 696 L373 695 L374 696 L373 697 Z M365 696 L366 695 L367 696 L366 697 Z M737 695 L738 694 L739 695 L738 696 Z M371 695 L372 694 L373 695 L372 696 Z M834 693 L836 696 L835 697 L835 721 L834 722 L834 745 L833 746 L833 791 L834 792 L834 837 L833 838 L831 832 L831 805 L830 804 L830 789 L829 788 L829 776 L828 775 L828 763 L827 762 L827 725 L831 712 L831 707 L833 701 L833 694 Z M744 694 L745 693 L746 694 L745 695 Z M738 694 L739 693 L740 694 L739 695 Z M370 694 L371 693 L372 694 L371 695 Z M284 693 L285 694 L285 701 L286 702 L286 707 L289 720 L288 756 L286 764 L285 763 L285 734 L284 733 L284 716 L283 715 L283 694 Z M739 693 L740 692 L741 693 L740 694 Z M369 693 L370 692 L371 693 L370 694 Z M740 692 L741 691 L742 692 L741 693 Z M368 692 L369 691 L370 692 L369 693 Z M741 691 L742 690 L743 691 L742 692 Z M367 691 L368 690 L369 691 L368 692 Z M735 683 L724 691 L674 714 L652 729 L637 743 L636 742 L655 723 L677 708 L701 697 L715 692 L733 682 Z M738 679 L739 680 L735 683 L734 682 Z M545 680 L546 679 L547 680 L546 681 Z M573 678 L574 679 L574 683 L573 684 L573 689 L570 702 L561 725 L557 732 L545 702 L541 679 L542 678 L545 682 L552 685 L554 685 L554 684 L549 683 L546 681 L549 680 L553 682 L563 682 L569 678 L571 679 L568 682 L561 685 L563 685 L571 681 Z M570 678 L571 677 L572 678 L571 679 Z M565 678 L566 677 L567 678 L566 679 Z M548 678 L549 677 L550 678 L549 679 Z M543 678 L544 677 L546 679 L544 680 Z M571 677 L572 676 L573 677 L572 678 Z M546 677 L547 676 L549 677 L548 678 Z M541 676 L542 675 L544 677 L542 678 Z M572 675 L573 674 L574 676 L573 677 Z M544 675 L546 674 L547 676 L546 677 Z M570 673 L571 675 L567 678 L566 677 Z M573 673 L574 672 L575 674 L574 675 Z M543 670 L545 673 L544 675 L542 673 Z M754 666 L753 672 L748 681 L734 695 L725 701 L709 709 L696 713 L671 724 L650 737 L637 748 L635 747 L653 730 L670 718 L693 706 L709 700 L730 689 L737 684 L749 672 L753 665 Z M355 666 L356 665 L362 674 L368 680 L382 690 L405 701 L424 708 L443 718 L463 732 L468 737 L467 738 L469 740 L467 741 L454 731 L431 719 L411 712 L408 710 L402 709 L380 698 L372 692 L363 683 L355 670 Z M571 660 L573 663 L573 672 L571 674 L570 673 L571 670 L570 661 Z M571 660 L572 659 L573 660 L572 661 Z M563 660 L564 659 L565 660 L564 661 Z M557 656 L562 657 L564 659 L563 660 L564 661 L565 660 L568 664 L567 671 L561 676 L554 676 L548 670 L548 662 L550 660 L556 663 L555 665 L551 664 L551 669 L555 673 L560 673 L563 671 L564 664 L561 661 L556 660 L553 662 L550 660 Z M756 655 L755 655 L752 665 L748 671 L739 680 L738 678 L729 684 L715 691 L701 696 L677 707 L660 718 L650 726 L627 750 L602 783 L602 785 L654 756 L656 756 L667 750 L688 742 L693 739 L700 737 L716 729 L729 719 L742 704 L749 692 L755 673 Z M566 655 L568 654 L572 659 L570 661 Z M353 655 L354 673 L360 691 L366 702 L381 719 L395 729 L412 737 L453 753 L479 766 L511 785 L511 783 L507 777 L485 751 L486 750 L483 746 L459 722 L441 710 L425 702 L391 689 L377 681 L380 684 L396 692 L423 702 L443 712 L464 727 L473 737 L472 738 L456 725 L437 713 L418 704 L399 697 L375 684 L363 673 L358 666 L355 657 Z M564 654 L565 653 L567 654 L566 655 Z M550 653 L551 654 L546 659 L545 664 L544 665 L543 664 L544 667 L542 671 L541 670 L541 663 L543 661 L544 657 L547 654 Z M561 653 L562 652 L565 653 L564 654 Z M550 653 L551 652 L554 653 L553 654 Z M553 652 L554 651 L561 651 L562 652 L561 653 L554 653 Z M542 653 L549 645 L556 642 L560 642 L572 648 L574 656 L573 657 L569 653 L563 650 L553 650 L550 651 L543 657 Z M570 639 L572 644 L571 647 L568 644 Z M532 640 L529 648 L528 659 L527 660 L527 678 L528 679 L527 680 L528 681 L528 687 L531 696 L531 700 L532 700 L532 698 L530 694 L529 681 L528 680 L528 659 L529 658 L529 653 Z M581 636 L586 650 L587 665 L588 666 L587 683 L586 684 L584 698 L582 702 L585 696 L588 683 L588 657 L587 656 L586 647 L583 638 Z M559 625 L563 629 L569 641 L569 643 L567 644 L560 641 L555 641 L550 643 L544 648 L543 645 L549 628 L550 627 L551 629 L556 625 Z M804 617 L805 616 L806 618 L805 619 Z M558 612 L561 616 L570 637 L569 640 L563 628 L558 622 L551 628 L550 627 L555 615 Z M563 608 L572 621 L579 638 L582 651 L582 657 L583 658 L583 682 L582 683 L581 694 L576 711 L566 732 L566 734 L559 747 L558 746 L558 735 L571 705 L575 691 L576 679 L577 678 L577 660 L576 659 L576 652 L575 651 L574 642 L569 628 L563 616 L559 611 L560 608 Z M553 608 L557 609 L546 628 L540 647 L539 663 L538 664 L538 676 L539 677 L539 686 L542 699 L550 722 L557 736 L557 747 L556 748 L544 723 L545 720 L547 722 L544 717 L538 701 L535 688 L535 681 L534 680 L534 658 L535 657 L535 651 L538 638 L542 626 L547 616 Z M362 616 L373 612 L382 611 L383 610 L401 609 L402 608 L423 608 L424 607 L550 608 L551 609 L542 621 L539 627 L532 649 L532 654 L531 655 L530 672 L531 673 L531 684 L532 685 L532 690 L541 719 L557 754 L558 754 L563 744 L563 742 L576 714 L583 690 L584 675 L585 674 L584 655 L583 654 L583 649 L576 627 L565 609 L566 608 L635 608 L636 607 L651 608 L653 607 L654 608 L707 608 L708 609 L725 610 L741 614 L753 620 L760 626 L769 638 L779 663 L783 684 L785 689 L786 699 L787 700 L791 732 L792 733 L793 748 L794 749 L796 778 L797 779 L797 791 L798 792 L798 804 L799 805 L800 855 L801 856 L800 908 L799 909 L799 925 L798 926 L796 958 L795 959 L795 967 L794 968 L792 986 L791 987 L788 1006 L783 1026 L781 1030 L781 1033 L779 1037 L779 1040 L770 1064 L762 1078 L760 1084 L757 1085 L749 1098 L733 1119 L712 1141 L690 1159 L666 1174 L645 1184 L625 1191 L601 1197 L596 1197 L589 1199 L581 1199 L580 1200 L564 1200 L563 1201 L538 1200 L537 1199 L529 1199 L528 1198 L517 1197 L501 1193 L497 1191 L494 1191 L477 1185 L452 1173 L433 1161 L415 1147 L383 1114 L371 1098 L362 1083 L359 1082 L356 1075 L354 1073 L344 1050 L336 1026 L329 998 L329 994 L327 989 L327 984 L323 967 L323 961 L322 960 L320 940 L319 939 L318 922 L317 921 L315 885 L314 884 L313 811 L314 810 L314 788 L315 787 L315 772 L316 771 L316 760 L317 759 L319 729 L320 728 L320 721 L321 720 L323 700 L325 693 L325 687 L326 686 L326 682 L327 681 L331 660 L336 645 L344 631 L354 621 Z M310 607 L311 606 L312 607 L311 608 Z M351 611 L364 605 L372 603 L384 602 L385 601 L396 601 L397 600 L530 600 L531 601 L705 600 L706 601 L730 602 L751 608 L761 614 L775 629 L784 648 L793 684 L793 689 L794 690 L794 695 L797 708 L797 714 L798 715 L798 721 L799 722 L799 729 L800 730 L803 766 L804 767 L805 791 L806 792 L807 825 L808 826 L808 853 L809 854 L809 927 L808 928 L806 985 L805 986 L803 1015 L802 1016 L802 1022 L801 1023 L798 1043 L790 1069 L786 1079 L773 1104 L763 1119 L751 1134 L735 1150 L724 1159 L709 1169 L688 1180 L663 1189 L660 1188 L686 1173 L715 1149 L737 1124 L754 1100 L770 1070 L782 1038 L792 998 L795 977 L796 976 L797 963 L798 962 L798 953 L799 952 L799 944 L800 943 L800 931 L801 930 L801 914 L802 913 L802 889 L803 888 L803 842 L802 841 L802 814 L801 813 L800 783 L799 782 L799 772 L798 771 L794 728 L792 721 L789 697 L786 686 L786 681 L777 649 L770 635 L765 628 L758 621 L745 613 L728 608 L722 608 L714 606 L697 606 L696 605 L409 605 L408 606 L394 606 L393 607 L386 607 L385 608 L375 609 L357 616 L350 621 L339 634 L333 646 L329 658 L323 684 L320 708 L319 709 L318 723 L317 724 L316 741 L315 742 L313 776 L312 777 L312 796 L311 797 L311 833 L310 837 L311 838 L312 892 L313 893 L313 905 L314 906 L316 935 L317 936 L317 942 L318 943 L318 949 L319 950 L319 956 L320 957 L323 980 L324 981 L326 995 L328 1000 L328 1004 L332 1020 L338 1037 L339 1043 L349 1068 L362 1093 L380 1120 L396 1139 L420 1162 L433 1172 L447 1180 L449 1182 L447 1183 L449 1184 L446 1185 L431 1178 L429 1178 L404 1164 L381 1146 L360 1124 L345 1103 L332 1078 L323 1053 L317 1027 L315 1005 L314 1004 L314 996 L313 995 L311 960 L310 959 L309 929 L308 928 L308 914 L307 913 L307 896 L306 895 L306 871 L305 870 L305 806 L306 805 L307 765 L308 764 L308 753 L309 752 L309 741 L310 740 L312 714 L313 713 L313 707 L314 706 L314 700 L315 699 L318 675 L319 674 L323 653 L332 631 L341 619 Z M798 597 L799 596 L800 597 L799 598 Z M799 596 L801 594 L802 595 L801 597 Z M318 595 L319 594 L320 596 L319 597 Z M801 594 L802 593 L803 594 L802 595 Z M315 594 L316 593 L317 594 L316 595 Z M314 593 L315 592 L316 593 L315 594 Z M789 592 L790 591 L792 592 L791 593 Z M317 592 L318 591 L319 593 L318 594 Z M316 590 L317 589 L318 590 L317 591 Z M315 588 L316 587 L317 588 L316 589 Z M325 587 L326 586 L327 587 L326 588 Z M324 586 L325 585 L326 586 L325 587 Z M323 614 L330 604 L338 596 L345 591 L361 584 L375 582 L376 581 L386 581 L387 580 L520 580 L521 581 L723 580 L724 581 L735 581 L736 582 L741 582 L749 584 L765 591 L771 595 L782 606 L792 623 L798 640 L802 656 L806 683 L807 684 L809 705 L811 713 L811 720 L812 721 L812 728 L813 729 L813 737 L814 738 L816 768 L817 769 L817 780 L818 781 L819 811 L820 812 L820 888 L819 889 L819 900 L818 901 L818 911 L817 912 L817 924 L815 928 L811 927 L811 897 L812 896 L811 883 L812 880 L811 879 L810 816 L809 815 L809 800 L808 799 L806 764 L805 763 L805 755 L804 754 L804 746 L803 745 L802 729 L801 728 L801 722 L799 714 L799 707 L798 706 L797 695 L796 694 L792 670 L790 665 L790 661 L783 639 L773 622 L765 614 L758 609 L748 604 L738 601 L728 600 L727 599 L719 599 L718 598 L691 598 L690 597 L689 598 L685 597 L682 598 L679 597 L668 597 L667 598 L412 597 L411 598 L410 597 L409 598 L390 598 L389 599 L374 600 L360 604 L348 610 L333 625 L328 634 L321 653 L317 674 L316 675 L312 707 L311 708 L309 732 L308 733 L308 743 L307 744 L307 754 L306 755 L305 783 L304 784 L304 802 L303 803 L303 875 L304 876 L304 899 L305 900 L305 916 L306 917 L306 927 L305 928 L302 925 L300 920 L300 911 L299 910 L298 895 L297 894 L297 884 L296 883 L296 870 L295 869 L295 844 L294 843 L295 775 L296 774 L296 758 L297 757 L299 722 L300 721 L301 702 L302 701 L305 673 L306 672 L307 662 L313 637 Z M317 603 L321 597 L328 590 L330 591 L330 588 L334 584 L347 577 L358 573 L362 573 L368 571 L390 570 L391 569 L474 569 L475 570 L477 569 L478 570 L661 570 L662 569 L714 569 L715 570 L733 570 L734 571 L742 571 L743 572 L752 573 L766 578 L779 586 L789 596 L796 606 L800 614 L808 638 L808 642 L810 647 L811 657 L813 663 L814 675 L815 676 L819 714 L820 715 L820 722 L821 723 L822 741 L823 742 L824 762 L825 763 L826 788 L827 789 L827 806 L828 807 L828 835 L829 836 L828 884 L827 885 L825 902 L821 915 L820 916 L819 915 L819 907 L820 906 L821 881 L822 880 L822 824 L821 823 L821 804 L820 803 L819 775 L818 774 L818 764 L817 763 L817 754 L816 753 L816 744 L815 743 L815 734 L814 733 L812 710 L811 709 L811 703 L810 702 L806 670 L805 669 L800 642 L790 616 L781 603 L775 597 L762 588 L753 584 L741 581 L726 580 L725 579 L569 579 L568 580 L557 580 L556 579 L555 580 L551 579 L386 579 L385 580 L375 580 L374 581 L364 582 L350 587 L340 593 L326 607 L316 625 L308 651 L308 655 L304 671 L304 676 L303 677 L303 683 L302 684 L299 718 L298 719 L298 729 L297 730 L297 740 L296 741 L295 770 L294 771 L294 790 L293 791 L293 858 L294 859 L295 889 L296 890 L296 898 L297 899 L297 906 L298 907 L298 911 L297 912 L291 891 L291 884 L289 876 L289 866 L288 865 L287 812 L288 811 L289 764 L290 763 L291 736 L292 735 L292 727 L293 726 L293 714 L294 713 L298 665 L300 660 L301 649 L303 644 L305 632 L307 628 L307 624 Z M835 556 L836 557 L836 563 L834 571 L832 598 L831 599 L828 643 L827 644 L827 654 L826 655 L824 686 L823 687 L823 707 L822 708 L821 707 L821 701 L820 700 L820 694 L818 686 L816 664 L815 663 L814 652 L811 641 L809 624 L805 611 L805 605 L812 598 L821 586 L829 571 Z M284 556 L294 579 L304 594 L311 601 L308 612 L305 616 L303 623 L303 631 L298 651 L296 673 L295 674 L295 682 L294 683 L293 682 L293 657 L292 656 L292 643 L291 642 L291 628 L290 627 L290 617 L289 616 L289 605 L288 604 L286 574 L285 573 L285 567 L283 560 Z M836 553 L837 554 L836 557 L835 556 Z M284 547 L287 552 L289 559 L299 577 L305 586 L317 598 L312 607 L311 606 L312 601 L303 591 L290 568 L283 550 Z M836 542 L837 545 L833 558 L823 580 L816 591 L803 607 L805 613 L804 616 L797 602 L810 590 L820 576 L830 557 Z M281 538 L284 545 L283 548 L281 546 L280 542 Z M839 533 L840 537 L837 543 L836 540 Z M840 530 L841 531 L840 534 L839 533 Z M841 527 L842 528 L841 531 L840 530 Z M841 525 L842 524 L843 525 L842 526 Z M524 484 L525 483 L526 485 L525 486 Z M525 482 L526 481 L527 483 L526 484 Z M264 481 L271 509 L276 524 L277 534 L281 551 L282 563 L283 564 L283 570 L284 571 L286 598 L287 599 L287 610 L288 611 L288 621 L289 622 L289 634 L290 635 L291 666 L292 667 L292 685 L291 686 L292 707 L290 714 L289 713 L289 705 L288 704 L288 696 L287 695 L287 684 L286 683 L286 673 L285 672 L285 662 L284 661 L281 611 L280 610 L280 600 L279 599 L277 571 L276 570 L276 565 L275 564 L275 559 L274 558 L274 553 L273 552 L273 547 L272 546 L272 541 L271 540 L271 535 L270 534 L270 529 L269 528 L269 523 L266 510 L266 504 L264 497 L264 489 L263 488 L263 482 Z M526 480 L527 479 L528 481 L527 482 Z M527 478 L528 477 L529 479 L528 480 Z M263 477 L264 478 L263 482 L262 481 Z M528 476 L529 475 L530 477 L529 478 Z M529 475 L530 474 L531 475 L530 476 Z M530 474 L531 473 L532 474 L531 475 Z M856 472 L857 473 L857 482 L856 483 L854 505 L853 506 L852 518 L851 519 L848 542 L845 554 L843 574 L842 575 L840 602 L839 603 L839 613 L838 614 L838 624 L837 625 L836 649 L835 650 L835 659 L834 660 L834 669 L833 670 L833 678 L832 679 L829 708 L826 721 L825 720 L825 712 L824 711 L824 692 L825 691 L825 680 L826 679 L826 670 L827 669 L827 660 L828 659 L828 650 L829 649 L829 639 L830 638 L830 627 L831 626 L831 616 L832 615 L832 604 L833 603 L835 575 L836 574 L836 567 L837 566 L840 541 L844 526 L845 513 L852 489 L854 475 Z M558 472 L566 482 L571 495 L572 504 L573 505 L573 527 L569 544 L563 555 L557 561 L550 554 L545 544 L542 533 L541 515 L542 514 L542 505 L546 490 L551 480 Z M531 472 L532 471 L533 473 L532 474 Z M583 471 L584 470 L585 471 L584 472 Z M558 471 L552 477 L546 487 L542 500 L541 514 L540 515 L541 532 L544 544 L549 554 L556 561 L560 560 L566 552 L572 537 L573 528 L574 527 L574 506 L573 505 L572 495 L567 482 L564 477 Z M532 471 L533 470 L534 471 L533 472 Z M582 470 L583 469 L584 470 L583 471 Z M533 470 L534 469 L535 470 L534 471 Z M581 469 L582 468 L583 469 L582 470 Z M534 469 L535 468 L536 469 L535 470 Z M580 468 L581 467 L582 468 L581 469 Z M535 468 L536 467 L537 468 L536 469 Z M579 467 L580 466 L581 467 L580 468 Z M577 466 L578 465 L580 466 L579 467 Z M559 463 L568 471 L577 487 L580 497 L582 518 L581 519 L581 529 L578 542 L571 557 L562 567 L560 568 L553 568 L544 559 L538 548 L535 539 L534 528 L533 527 L533 511 L534 510 L534 504 L537 491 L541 482 L550 469 L553 466 Z M543 464 L538 468 L536 467 L541 463 Z M567 462 L568 463 L569 462 L575 462 L578 465 L576 466 L588 478 L594 489 L598 505 L599 524 L598 525 L597 540 L593 552 L589 560 L583 568 L565 568 L564 567 L571 560 L575 554 L580 541 L582 533 L582 528 L583 527 L583 504 L582 503 L582 498 L576 480 L571 472 L563 464 Z M562 463 L563 462 L564 463 L563 464 Z M549 462 L553 464 L545 472 L538 484 L533 499 L532 513 L531 514 L532 533 L536 548 L543 561 L549 567 L548 568 L531 568 L526 563 L518 544 L517 534 L516 533 L517 506 L523 486 L524 485 L525 488 L522 495 L521 504 L524 491 L529 479 L543 465 L544 462 Z M821 455 L822 457 L820 464 L817 494 L816 495 L813 518 L807 542 L807 546 L797 579 L794 585 L789 591 L788 589 L796 564 L808 513 L808 508 L810 502 L813 478 L814 477 L815 458 Z M298 455 L304 458 L304 470 L305 471 L306 488 L308 495 L310 513 L311 514 L316 543 L319 552 L319 556 L325 576 L325 580 L326 581 L325 583 L321 578 L317 569 L310 545 L307 525 L306 524 L306 519 L305 518 L305 513 L304 512 L302 493 L301 492 L299 468 L298 467 L298 460 L297 459 Z M805 464 L801 493 L800 494 L795 523 L792 532 L792 536 L787 556 L778 583 L762 574 L748 570 L735 569 L734 568 L719 568 L718 567 L595 568 L594 567 L597 564 L603 552 L608 531 L608 507 L607 506 L606 496 L600 479 L594 470 L595 469 L612 468 L613 467 L620 467 L621 466 L628 466 L629 465 L646 463 L685 453 L719 440 L739 430 L754 420 L769 439 L781 451 L789 457 Z M397 415 L399 417 L419 426 L457 439 L473 443 L477 443 L482 445 L491 446 L492 447 L520 450 L521 451 L532 451 L533 452 L587 452 L588 451 L600 451 L601 450 L610 450 L611 449 L632 447 L633 446 L652 443 L672 438 L690 432 L712 422 L714 422 L727 415 L695 429 L671 437 L651 442 L631 445 L630 446 L608 448 L607 449 L598 449 L597 450 L585 450 L584 451 L537 451 L536 450 L524 450 L523 449 L515 449 L514 448 L507 448 L506 447 L488 445 L444 434 L409 421 Z M814 458 L811 484 L810 485 L810 490 L809 491 L802 530 L794 562 L790 573 L790 576 L787 583 L787 586 L785 589 L779 583 L783 575 L783 572 L786 565 L795 530 L795 526 L797 521 L797 517 L802 496 L802 491 L804 485 L804 479 L805 478 L805 472 L806 471 L807 463 L792 457 L782 450 L769 437 L755 419 L739 429 L719 439 L685 452 L645 462 L621 465 L620 466 L592 468 L601 484 L605 496 L606 506 L607 507 L607 531 L606 532 L606 537 L603 549 L598 560 L592 568 L586 568 L585 567 L588 564 L594 554 L599 538 L599 533 L600 532 L600 506 L595 486 L589 474 L579 463 L580 462 L625 458 L626 457 L637 456 L643 454 L648 454 L676 447 L715 433 L741 420 L757 410 L773 430 L790 447 L801 454 Z M305 458 L310 456 L314 456 L330 447 L350 428 L365 410 L376 417 L396 427 L398 427 L422 438 L446 446 L487 456 L512 459 L513 460 L521 460 L529 462 L531 461 L537 462 L538 463 L526 475 L520 487 L516 500 L515 511 L514 512 L514 533 L515 534 L515 539 L517 547 L522 559 L528 567 L527 568 L522 568 L517 562 L513 554 L508 535 L508 509 L509 508 L510 498 L514 486 L520 474 L525 468 L485 463 L484 462 L470 460 L450 455 L405 439 L379 426 L379 427 L403 439 L450 456 L484 464 L502 466 L503 467 L511 467 L512 468 L522 468 L523 469 L518 475 L510 494 L508 502 L508 507 L507 508 L507 516 L506 517 L507 536 L510 549 L517 564 L520 567 L519 568 L468 568 L467 567 L391 567 L390 568 L375 568 L374 569 L368 569 L346 575 L338 580 L336 578 L326 538 L326 534 L322 518 L322 513 L320 507 L318 490 L317 489 L315 465 L314 464 L329 458 L339 451 L352 439 L368 420 L367 419 L350 439 L337 451 L328 457 L313 463 L314 479 L315 480 L315 486 L316 487 L319 510 L321 516 L321 521 L322 522 L323 531 L325 536 L325 540 L328 549 L331 565 L336 580 L335 582 L330 585 L328 581 L325 566 L321 554 L321 550 L319 545 L317 531 L312 511 L309 487 L307 480 Z M740 397 L741 396 L743 397 L742 398 Z M380 397 L381 396 L382 397 L381 398 Z M382 398 L383 397 L400 397 L401 396 L422 396 L423 395 L443 395 L444 394 L470 394 L471 393 L502 393 L503 392 L615 392 L616 393 L677 394 L678 395 L698 395 L699 396 L740 397 L741 398 L711 413 L688 421 L685 423 L682 423 L668 428 L652 432 L638 434 L637 435 L626 436 L625 437 L602 439 L601 440 L591 440 L590 441 L575 441 L574 442 L547 442 L546 441 L521 440 L520 439 L513 439 L512 438 L493 436 L473 431 L469 431 L423 417 L401 407 L399 407 Z M855 391 L856 390 L857 391 L856 392 Z M304 443 L305 442 L305 438 L318 428 L353 394 L361 390 L407 412 L452 428 L491 437 L509 439 L510 440 L517 440 L518 441 L541 442 L542 443 L594 442 L595 441 L604 441 L605 440 L628 438 L629 437 L649 434 L673 428 L702 418 L719 410 L721 410 L758 391 L763 391 L766 392 L774 399 L798 424 L814 438 L814 449 L813 450 L813 454 L811 455 L805 453 L793 446 L773 426 L765 415 L759 409 L758 406 L752 411 L720 428 L718 428 L698 437 L677 444 L649 451 L634 453 L633 454 L620 455 L613 457 L604 457 L603 458 L592 458 L591 459 L570 459 L569 460 L531 459 L530 458 L519 458 L518 457 L503 456 L502 455 L497 455 L496 454 L491 454 L490 453 L471 450 L455 446 L451 444 L448 444 L416 433 L385 419 L383 417 L366 409 L365 407 L363 408 L350 424 L331 443 L321 450 L312 454 L306 455 L305 454 Z M263 390 L273 398 L288 407 L294 459 L295 460 L296 472 L299 483 L303 516 L304 517 L304 522 L305 523 L308 543 L316 571 L319 576 L321 583 L325 589 L321 593 L308 574 L299 556 L285 518 L285 515 L277 489 L277 485 L270 457 L267 433 L266 432 L266 426 L265 425 L264 410 L263 409 L263 397 L262 396 L262 391 Z M367 390 L368 389 L404 387 L405 386 L416 386 L417 385 L468 383 L469 382 L527 381 L528 380 L591 380 L592 381 L626 381 L627 382 L650 382 L651 383 L702 385 L703 386 L751 389 L754 391 L739 396 L684 394 L683 393 L661 393 L660 392 L580 391 L579 390 L490 391 L489 392 L460 392 L459 393 L438 393 L437 394 L416 394 L415 395 L385 396 L373 393 Z M861 380 L858 385 L858 387 L855 390 L833 405 L831 404 L832 403 L832 396 L843 390 L859 379 Z M258 380 L259 379 L273 388 L287 396 L288 404 L287 405 L265 391 L261 387 Z M864 378 L865 379 L864 401 L863 402 L863 410 L862 411 L862 418 L861 419 L857 451 L856 452 L852 476 L850 481 L850 485 L842 516 L839 523 L839 526 L834 541 L822 569 L811 586 L803 594 L802 593 L798 596 L799 598 L797 600 L795 600 L791 595 L792 593 L791 591 L795 586 L799 578 L806 556 L810 540 L810 536 L812 531 L814 516 L818 499 L818 494 L819 493 L819 488 L820 487 L820 481 L821 480 L821 475 L824 462 L825 450 L826 449 L831 407 L840 402 L855 391 L856 392 L854 418 L853 419 L850 445 L848 451 L848 456 L847 457 L844 476 L834 515 L820 555 L813 569 L802 587 L795 594 L797 594 L801 591 L802 588 L813 572 L822 554 L828 536 L830 533 L830 530 L839 503 L843 487 L843 483 L846 474 L848 460 L849 459 L850 448 L851 447 L853 431 L854 430 L858 388 Z M860 379 L861 378 L862 379 L861 380 Z M257 379 L258 378 L259 379 L258 380 Z M255 378 L259 385 L259 387 L261 389 L261 404 L262 405 L262 414 L263 415 L266 443 L267 444 L267 449 L268 450 L268 455 L269 456 L272 475 L278 499 L280 503 L281 510 L293 546 L300 560 L300 562 L308 576 L308 578 L312 583 L312 585 L315 590 L314 593 L304 582 L290 556 L275 513 L265 473 L262 453 L261 452 L261 447 L260 446 L260 441 L259 440 L258 428 L257 427 L256 411 L255 410 L255 399 L254 398 L254 379 Z M448 361 L449 360 L450 361 L449 362 Z M568 348 L573 345 L586 344 L587 343 L602 345 L604 348 L605 377 L604 378 L574 378 L573 377 L569 378 L568 377 Z M516 346 L520 344 L525 344 L526 343 L535 343 L536 344 L545 345 L549 347 L550 346 L551 347 L551 352 L550 353 L550 377 L549 378 L515 378 L514 377 L514 362 L515 361 L515 348 Z M608 341 L611 344 L613 352 L613 364 L614 365 L614 377 L613 378 L607 378 L606 377 L606 359 L605 358 L605 347 L604 345 Z M511 341 L515 345 L514 356 L513 357 L513 377 L512 378 L505 378 L504 377 L505 376 L506 350 L509 342 Z M835 338 L836 339 L836 344 L835 345 L832 378 L830 386 L830 394 L829 395 L828 406 L826 409 L826 414 L823 427 L823 430 L824 428 L825 431 L824 432 L824 440 L823 441 L822 453 L820 455 L815 456 L814 452 L816 448 L817 439 L818 438 L818 432 L819 431 L819 425 L821 417 L821 410 L822 409 L822 402 L823 401 L823 395 L825 387 L825 380 L827 372 L831 340 L833 338 Z M286 338 L290 339 L290 343 L291 344 L293 369 L294 370 L294 379 L295 380 L295 388 L296 389 L296 398 L297 399 L297 407 L298 408 L299 423 L301 431 L301 438 L305 455 L304 456 L299 455 L296 450 L294 426 L293 425 L293 418 L292 417 L292 409 L291 408 L291 400 L290 399 L290 391 L289 390 L288 369 L287 368 L287 357 L286 356 L286 345 L285 344 L285 339 Z M608 341 L604 344 L596 342 L583 342 L582 343 L577 343 L573 345 L569 345 L567 347 L567 377 L566 378 L561 378 L560 377 L560 372 L561 371 L561 344 L564 341 L571 338 L582 337 L583 336 L601 337 Z M511 341 L515 338 L523 337 L524 336 L543 337 L555 341 L558 344 L558 377 L557 378 L556 377 L555 378 L551 377 L552 348 L549 345 L537 342 L523 342 L516 344 Z M685 332 L682 338 L685 335 Z M434 332 L434 334 L437 339 L437 337 Z M463 379 L462 380 L455 380 L454 381 L413 383 L412 384 L377 386 L376 387 L367 387 L366 388 L356 389 L313 431 L304 438 L302 434 L302 428 L301 427 L298 394 L297 393 L297 385 L296 384 L296 375 L295 374 L295 365 L294 364 L294 355 L293 354 L293 347 L291 339 L303 336 L326 335 L327 334 L372 332 L373 331 L390 331 L391 330 L409 330 L410 329 L425 329 L434 347 L443 360 L459 377 L458 378 L460 377 Z M656 379 L660 377 L673 364 L683 350 L693 330 L695 328 L696 329 L711 329 L712 330 L730 330 L731 331 L748 331 L749 332 L764 332 L765 333 L808 335 L809 336 L824 337 L830 339 L828 346 L826 368 L825 369 L824 383 L823 384 L822 398 L821 399 L821 406 L820 407 L820 414 L819 415 L817 436 L816 437 L806 430 L771 393 L763 388 L733 386 L732 385 L721 385 L720 384 L695 383 L694 382 L667 381 L666 380 L657 380 Z M695 325 L697 319 L699 317 L785 322 L786 323 L795 323 L796 324 L805 324 L811 326 L816 326 L827 330 L835 336 L831 338 L827 336 L813 335 L812 334 L802 334 L801 333 L758 331 L757 330 L740 330 L739 329 L722 329 L721 328 L702 328 L701 327 L696 327 Z M424 325 L423 327 L419 327 L418 328 L400 328 L399 329 L382 329 L381 330 L333 332 L332 333 L299 335 L293 337 L287 337 L286 336 L289 333 L306 326 L316 325 L317 324 L325 324 L326 323 L348 322 L349 321 L363 321 L364 320 L379 320 L380 319 L420 317 L422 319 Z M680 271 L680 274 L679 275 L679 287 L678 288 L677 298 L671 318 L663 334 L657 343 L643 357 L631 365 L617 370 L616 369 L616 356 L631 343 L642 327 L650 310 L659 282 L664 273 L669 268 L676 268 Z M443 268 L450 268 L452 269 L458 276 L462 284 L471 313 L480 331 L487 341 L503 356 L502 369 L501 370 L485 363 L475 356 L461 341 L452 326 L446 311 L442 295 L442 290 L441 289 L440 271 Z M670 267 L671 266 L672 267 L671 268 Z M689 254 L698 264 L701 273 L702 285 L701 286 L700 301 L697 313 L694 319 L692 327 L684 343 L671 362 L652 380 L629 379 L628 378 L645 369 L664 351 L671 341 L679 326 L682 316 L684 313 L688 296 L688 290 L689 289 L689 272 L688 271 L688 267 L684 263 L680 262 L687 269 L688 285 L687 286 L686 300 L682 312 L682 315 L672 337 L659 355 L647 366 L632 375 L624 378 L617 378 L616 377 L616 373 L617 372 L621 371 L624 372 L634 367 L642 361 L656 347 L666 333 L674 316 L680 294 L680 288 L682 280 L682 271 L676 267 L672 267 L671 266 L678 262 L675 262 L670 265 L664 271 L660 277 L656 286 L647 314 L635 336 L623 349 L616 354 L615 353 L615 349 L614 348 L623 340 L629 332 L639 314 L646 295 L646 292 L651 277 L655 269 L667 256 L673 253 L683 252 Z M430 254 L435 252 L447 253 L458 260 L467 272 L481 315 L492 334 L504 348 L503 352 L502 353 L500 352 L487 339 L482 332 L472 312 L463 283 L459 275 L447 263 L444 263 L450 266 L449 267 L441 268 L437 273 L437 277 L439 283 L439 291 L440 292 L440 297 L443 309 L454 334 L462 346 L472 357 L481 364 L491 370 L496 372 L499 371 L502 373 L502 377 L501 378 L497 378 L486 374 L471 365 L456 350 L445 333 L435 307 L435 303 L433 298 L433 292 L432 291 L432 272 L434 266 L437 263 L436 263 L432 267 L431 270 L430 285 L431 286 L431 293 L432 294 L433 304 L439 323 L447 339 L457 353 L473 368 L492 378 L491 379 L472 379 L471 380 L466 379 L462 376 L463 375 L466 376 L466 375 L461 375 L451 365 L453 364 L451 365 L449 363 L451 361 L450 360 L448 361 L437 347 L424 319 L425 316 L422 313 L418 296 L418 289 L417 288 L417 280 L418 279 L419 269 L423 261 Z M843 173 L845 175 L845 192 L844 193 L840 227 L837 240 L835 260 L832 273 L832 279 L831 280 L830 293 L828 300 L826 320 L825 321 L825 325 L822 326 L820 324 L820 322 L821 321 L825 288 L827 281 L827 275 L829 268 L829 262 L831 255 L833 235 L835 228 L837 208 L838 207 L842 174 Z M279 173 L282 184 L282 190 L284 197 L288 230 L289 231 L293 263 L295 270 L301 318 L303 324 L299 326 L297 322 L295 302 L293 295 L292 282 L291 281 L290 269 L289 268 L288 256 L287 255 L287 248 L285 241 L284 228 L283 227 L279 195 L278 194 L278 188 L277 187 L277 177 Z M297 162 L303 156 L326 124 L343 107 L357 99 L374 95 L387 95 L388 94 L739 94 L740 95 L751 95 L752 96 L757 96 L765 98 L778 105 L789 115 L800 128 L819 155 L826 163 L804 322 L803 323 L802 322 L784 321 L783 320 L700 316 L699 313 L701 309 L703 295 L704 294 L704 273 L703 269 L698 259 L691 252 L687 250 L679 249 L667 253 L655 264 L649 275 L639 307 L631 324 L625 333 L614 345 L608 337 L601 334 L595 334 L594 333 L576 334 L568 336 L560 341 L547 335 L536 334 L535 333 L524 333 L512 336 L504 344 L493 331 L484 315 L477 296 L477 293 L472 277 L465 264 L453 253 L447 250 L436 249 L428 252 L420 260 L415 273 L415 294 L420 313 L419 316 L370 318 L369 319 L352 319 L351 320 L328 321 L320 323 L318 317 L317 303 L316 302 L316 296 L315 295 L315 289 L314 288 L314 282 L313 281 L313 275 L312 274 L312 268 L310 260 L309 246 L307 239 L307 232 L306 231 L306 225 L305 224 L305 218 L304 217 L304 211 L303 210 Z M282 156 L285 150 L293 141 L311 116 L332 94 L339 89 L351 83 L367 79 L375 79 L376 78 L748 78 L749 79 L757 79 L758 80 L767 81 L778 85 L789 92 L806 109 L838 151 L841 158 L840 173 L839 174 L838 187 L836 194 L836 201 L835 202 L835 208 L833 215 L833 221 L832 222 L831 235 L830 236 L828 255 L826 262 L825 275 L823 282 L823 288 L821 295 L818 323 L817 324 L812 324 L805 322 L806 321 L808 301 L810 294 L810 288 L811 287 L811 281 L812 280 L812 274 L813 273 L813 267 L814 266 L814 260 L816 252 L816 245 L817 244 L819 222 L820 221 L822 200 L823 199 L823 192 L824 191 L824 185 L826 177 L827 162 L820 154 L797 122 L776 102 L760 95 L748 94 L747 93 L716 93 L715 92 L410 92 L409 93 L377 93 L376 94 L369 94 L351 100 L342 106 L325 123 L301 156 L295 162 L298 186 L299 187 L300 201 L301 202 L301 208 L302 209 L303 221 L304 222 L307 250 L308 251 L308 257 L309 258 L309 264 L310 265 L310 271 L311 272 L311 278 L312 279 L312 285 L313 286 L313 292 L314 293 L317 321 L318 322 L310 324 L306 324 L304 319 L301 291 L299 284 L297 264 L295 257 L293 237 L291 230 L290 217 L288 210 L286 190 L285 189 L282 163 L281 162 Z M471 54 L474 56 L478 64 L479 69 L482 74 L481 75 L476 75 L474 72 L474 69 L471 61 L471 56 L470 55 Z M650 53 L651 54 L651 58 L649 62 L647 72 L645 75 L640 75 L639 74 L643 67 L644 62 L647 56 Z M590 74 L597 52 L602 48 L606 49 L646 50 L649 52 L645 57 L639 73 L637 75 L591 75 Z M531 74 L530 75 L484 75 L482 73 L481 68 L476 57 L472 52 L475 50 L516 49 L518 48 L523 52 L524 57 Z M646 47 L604 46 L602 45 L595 50 L586 75 L534 75 L526 52 L522 47 L520 46 L493 46 L492 47 L475 47 L469 51 L468 53 L468 60 L472 73 L471 75 L376 75 L375 76 L367 76 L366 77 L357 78 L340 85 L331 91 L320 101 L308 115 L283 148 L278 159 L279 167 L275 175 L274 187 L275 188 L277 208 L279 215 L279 221 L280 222 L280 228 L281 229 L281 235 L283 242 L283 248 L284 249 L285 262 L288 275 L288 281 L289 282 L289 288 L290 289 L290 295 L291 296 L291 302 L293 309 L295 327 L287 331 L282 336 L286 391 L285 392 L259 375 L253 375 L251 377 L250 386 L251 387 L251 400 L252 401 L253 419 L254 420 L254 426 L255 427 L259 459 L261 465 L259 483 L260 484 L264 517 L266 523 L267 535 L269 541 L272 565 L273 566 L273 572 L274 573 L274 580 L275 581 L277 611 L278 612 L278 624 L279 625 L279 637 L280 638 L280 651 L281 652 L282 674 L283 675 L283 685 L284 686 L280 694 L280 714 L281 715 L282 753 L283 754 L283 817 L284 818 L284 851 L285 852 L286 873 L275 876 L270 883 L268 904 L266 912 L266 919 L265 920 L263 940 L261 947 L259 969 L258 970 L258 976 L257 977 L257 983 L256 984 L253 1008 L256 1012 L259 1013 L269 1013 L270 1012 L278 1012 L279 1011 L286 1011 L287 1010 L311 1008 L313 1013 L313 1020 L314 1021 L316 1038 L326 1071 L336 1093 L355 1122 L365 1134 L378 1147 L402 1166 L431 1182 L451 1190 L442 1195 L424 1208 L400 1231 L390 1243 L376 1263 L364 1286 L358 1307 L358 1325 L362 1336 L367 1342 L374 1347 L383 1350 L389 1350 L390 1351 L398 1350 L407 1347 L415 1342 L427 1329 L437 1310 L443 1315 L451 1319 L472 1327 L492 1332 L497 1332 L510 1335 L527 1336 L528 1337 L539 1337 L540 1338 L585 1338 L586 1337 L598 1337 L599 1336 L619 1334 L620 1333 L641 1329 L659 1323 L674 1316 L680 1312 L681 1310 L683 1312 L690 1327 L695 1334 L703 1342 L714 1348 L722 1350 L733 1350 L740 1348 L749 1343 L754 1338 L759 1329 L760 1320 L761 1319 L761 1311 L760 1310 L759 1299 L755 1287 L748 1272 L734 1250 L716 1228 L696 1209 L669 1190 L695 1180 L723 1163 L738 1151 L753 1136 L762 1125 L777 1103 L790 1077 L798 1054 L802 1038 L804 1023 L805 1022 L805 1016 L806 1015 L806 1008 L807 1007 L815 1009 L823 1009 L824 1010 L841 1011 L842 1012 L850 1012 L851 1013 L862 1013 L867 1008 L866 993 L865 992 L865 985 L864 984 L864 977 L863 976 L863 969 L862 968 L862 961 L861 960 L861 952 L860 951 L860 944 L859 943 L859 935 L858 934 L858 927 L857 926 L856 909 L855 908 L855 901 L854 900 L853 882 L846 875 L837 874 L831 872 L832 871 L832 859 L835 849 L836 834 L837 833 L836 742 L837 741 L837 718 L838 717 L838 693 L835 688 L835 680 L836 679 L837 661 L838 660 L838 650 L839 649 L839 639 L840 638 L840 627 L841 626 L841 616 L842 615 L842 604 L843 603 L845 576 L846 575 L847 562 L848 561 L849 549 L850 548 L850 543 L851 542 L851 537 L852 536 L852 531 L853 530 L853 525 L856 512 L857 499 L858 498 L858 491 L859 490 L859 473 L857 468 L858 467 L859 452 L861 446 L861 440 L862 439 L863 427 L864 426 L866 402 L867 401 L867 391 L868 390 L868 379 L865 375 L860 375 L841 388 L838 389 L834 393 L833 392 L836 363 L837 362 L837 354 L838 353 L838 346 L839 345 L839 337 L834 331 L827 327 L829 320 L830 307 L832 300 L833 287 L835 280 L837 260 L839 253 L839 247 L841 240 L842 227 L843 226 L847 193 L848 192 L848 175 L843 167 L844 166 L844 157 L841 150 L809 108 L798 96 L784 85 L771 79 L763 77 L758 77 L757 76 L748 76 L747 75 L650 75 L649 73 L654 55 L653 52 L649 48 Z" fill="#eef3f4" fill-rule="evenodd"/>
</svg>
