<svg xmlns="http://www.w3.org/2000/svg" width="1122" height="1402" viewBox="0 0 1122 1402">
  <title>0245</title>
  <path d="M640 1191 L641 1190 L642 1191 L641 1192 Z M639 1189 L640 1188 L641 1189 L640 1190 Z M638 1187 L639 1186 L640 1188 L639 1189 Z M611 1155 L612 1154 L613 1155 L612 1156 Z M452 1105 L456 1112 L464 1121 L463 1122 L459 1121 L458 1119 L454 1120 L450 1119 L448 1117 L451 1114 L451 1106 Z M450 1105 L451 1104 L452 1105 L451 1106 Z M437 1099 L449 1104 L450 1114 L448 1116 L445 1117 L444 1116 L440 1116 L434 1113 L438 1109 L438 1103 L436 1101 Z M395 1100 L396 1099 L397 1100 L396 1101 Z M412 1091 L413 1090 L414 1091 L413 1092 Z M344 1077 L345 1076 L347 1077 L346 1078 Z M374 1073 L375 1074 L375 1086 L371 1093 L369 1090 L369 1081 Z M377 1073 L378 1072 L390 1078 L393 1081 L393 1086 L394 1086 L395 1083 L394 1082 L396 1081 L401 1084 L404 1088 L405 1086 L409 1088 L411 1090 L413 1096 L414 1096 L414 1092 L415 1091 L424 1094 L426 1097 L425 1103 L427 1101 L427 1097 L428 1096 L432 1097 L437 1104 L436 1110 L431 1113 L422 1110 L421 1108 L423 1106 L419 1108 L410 1106 L409 1105 L412 1101 L408 1104 L404 1104 L397 1101 L403 1094 L403 1092 L398 1098 L395 1098 L393 1100 L381 1097 L380 1095 L383 1092 L383 1090 L382 1090 L378 1096 L373 1095 L372 1094 L375 1090 L377 1083 Z M374 1072 L371 1074 L367 1082 L367 1089 L370 1094 L369 1095 L355 1094 L353 1092 L354 1086 L352 1088 L352 1092 L351 1093 L340 1092 L339 1091 L340 1085 L337 1088 L338 1091 L337 1092 L330 1091 L328 1088 L328 1080 L330 1078 L342 1076 L343 1077 L339 1082 L340 1083 L350 1075 L363 1072 L370 1072 L371 1071 Z M449 1016 L455 1011 L465 1007 L479 1007 L493 1011 L511 1020 L531 1033 L547 1045 L563 1059 L584 1082 L605 1114 L624 1152 L624 1154 L639 1186 L638 1187 L636 1185 L622 1163 L607 1144 L572 1110 L544 1089 L524 1077 L510 1070 L492 1063 L480 1060 L474 1060 L473 1059 L462 1060 L457 1063 L455 1062 L448 1053 L444 1042 L444 1035 L443 1034 L444 1033 L444 1026 Z M700 956 L700 962 L701 963 L701 969 L702 970 L704 989 L705 990 L705 997 L707 1005 L707 1012 L708 1013 L709 1030 L710 1031 L710 1040 L711 1041 L711 1050 L712 1051 L712 1060 L713 1061 L713 1072 L714 1073 L714 1083 L715 1084 L715 1097 L716 1098 L717 1130 L718 1131 L719 1232 L718 1233 L717 1276 L718 1266 L719 1265 L720 1222 L721 1221 L721 1171 L720 1170 L719 1119 L718 1118 L717 1089 L716 1088 L716 1077 L715 1076 L715 1065 L714 1064 L714 1054 L713 1053 L710 1016 L709 1015 L709 1008 L708 1007 L708 1001 L706 993 L706 986 L705 985 L703 968 Z M429 890 L430 888 L438 888 L439 889 L436 892 L431 892 Z M291 884 L293 880 L297 877 L311 878 L312 879 L310 882 L310 885 L313 889 L317 890 L311 884 L312 881 L316 878 L345 877 L346 878 L337 884 L335 889 L343 881 L344 882 L343 886 L347 890 L346 891 L326 891 L325 892 L321 892 L320 891 L318 892 L295 892 L291 887 Z M293 877 L294 878 L291 881 L290 884 L291 890 L293 891 L292 892 L281 892 L279 893 L278 892 L278 888 L281 885 L282 881 L286 877 Z M265 876 L268 878 L268 883 L269 884 L267 892 L264 890 L263 887 L263 880 Z M373 876 L371 879 L371 882 L367 887 L368 888 L367 889 L350 890 L345 887 L345 882 L351 877 L354 876 L364 876 L365 875 L372 875 Z M269 875 L284 876 L285 877 L282 879 L276 893 L270 893 L269 892 L270 889 L270 880 L268 876 Z M394 878 L395 883 L391 888 L382 888 L381 889 L369 889 L368 888 L375 875 L391 874 Z M413 877 L412 881 L405 887 L401 887 L400 888 L394 888 L393 887 L395 885 L396 881 L395 877 L393 875 L394 874 L409 873 Z M446 873 L444 882 L441 886 L437 885 L439 883 L439 881 L435 886 L420 886 L419 887 L408 887 L407 886 L410 885 L414 880 L414 877 L412 874 L413 873 L425 872 L427 874 L427 879 L428 880 L429 879 L429 876 L427 872 L428 871 L437 871 L439 876 L440 875 L439 872 L440 871 L444 870 Z M436 868 L440 866 L444 868 L443 869 L437 869 Z M824 862 L823 865 L816 872 L813 873 L803 873 L802 872 L787 871 L786 870 L789 865 L789 858 L787 856 L788 855 L803 855 L806 859 L806 863 L807 864 L806 867 L808 865 L808 861 L805 856 L806 854 L817 854 L823 859 Z M780 854 L784 854 L788 859 L788 864 L786 868 L784 867 L782 860 L779 855 Z M820 853 L830 852 L837 858 L838 864 L832 871 L822 871 L821 872 L818 871 L824 865 L824 859 L819 854 Z M832 851 L833 850 L839 850 L845 856 L845 854 L842 851 L843 850 L848 850 L853 854 L856 861 L855 868 L851 872 L836 871 L835 870 L839 865 L839 859 Z M862 849 L864 852 L864 858 L863 859 L862 867 L858 873 L854 873 L853 872 L857 866 L857 859 L855 857 L855 855 L851 851 L855 849 Z M576 730 L589 728 L590 727 L597 727 L598 726 L621 726 L622 727 L634 728 L654 734 L679 746 L699 759 L719 775 L739 795 L753 812 L763 827 L779 858 L787 878 L796 906 L797 913 L799 917 L804 937 L804 941 L807 950 L807 954 L809 959 L812 975 L815 984 L820 991 L821 995 L820 998 L820 1009 L819 1010 L816 1027 L800 1077 L798 1080 L786 1116 L786 1119 L773 1157 L773 1160 L763 1189 L763 1192 L757 1210 L755 1213 L755 1216 L753 1219 L751 1227 L743 1247 L735 1264 L727 1277 L719 1284 L712 1284 L708 1282 L697 1271 L661 1221 L643 1191 L642 1187 L632 1167 L632 1165 L627 1156 L627 1154 L621 1143 L621 1141 L602 1105 L580 1074 L556 1050 L523 1025 L496 1010 L484 1006 L465 1005 L454 1009 L446 1017 L442 1026 L441 1035 L442 1036 L442 1043 L444 1049 L449 1058 L456 1065 L462 1062 L466 1062 L467 1061 L480 1062 L507 1071 L527 1081 L556 1100 L577 1117 L606 1146 L612 1154 L611 1155 L605 1155 L604 1154 L556 1148 L555 1147 L550 1147 L549 1146 L544 1146 L543 1145 L538 1145 L537 1144 L532 1144 L531 1143 L512 1140 L507 1138 L491 1135 L480 1131 L473 1127 L465 1120 L455 1107 L444 1088 L431 1060 L420 1026 L418 1013 L417 1012 L417 1007 L416 1006 L416 1001 L415 1000 L415 995 L414 994 L413 978 L412 977 L412 964 L411 963 L411 915 L412 914 L413 895 L414 894 L414 890 L419 888 L426 888 L431 894 L436 894 L442 889 L447 879 L447 870 L443 865 L438 865 L430 870 L420 870 L419 869 L419 866 L424 851 L432 833 L444 814 L456 800 L484 776 L519 754 L548 740 Z M660 735 L661 734 L670 733 L679 729 L686 723 L692 714 L706 741 L720 762 L733 777 L744 786 L754 792 L753 793 L740 794 L723 776 L705 761 L679 744 Z M260 709 L261 710 L260 713 L259 712 Z M511 713 L520 696 L528 688 L532 686 L545 683 L550 683 L551 682 L557 682 L558 681 L575 680 L576 679 L591 679 L592 678 L633 679 L634 680 L650 681 L651 682 L664 684 L675 688 L683 696 L691 711 L687 719 L679 727 L674 730 L663 733 L654 733 L641 728 L633 726 L628 726 L627 725 L620 725 L619 724 L591 725 L590 726 L573 729 L563 733 L544 733 L532 730 L522 725 L515 719 Z M162 574 L163 573 L164 574 L163 575 Z M159 574 L160 573 L162 574 L161 575 Z M157 573 L158 572 L159 573 L158 574 Z M154 558 L155 559 L155 564 L158 571 L157 573 L153 567 L153 559 Z M160 556 L162 556 L165 560 L166 563 L166 570 L165 571 L162 571 L158 567 L157 558 Z M205 553 L206 552 L207 553 L206 554 Z M249 548 L250 574 L251 575 L251 584 L252 585 L252 593 L253 594 L253 602 L254 603 L254 610 L255 611 L255 619 L256 620 L256 628 L257 629 L258 643 L260 651 L260 658 L261 659 L262 671 L263 672 L266 692 L272 712 L283 734 L297 755 L313 772 L322 779 L331 784 L330 782 L324 779 L314 771 L299 755 L283 731 L273 710 L269 698 L269 694 L265 679 L264 668 L263 667 L260 639 L259 638 L259 631 L257 623 L257 615 L256 614 L256 607 L255 606 L255 598 L254 597 L254 590 L253 589 L253 581 L252 580 L252 571 L251 570 L251 561 L250 560 Z M971 545 L972 544 L973 545 L972 546 Z M969 545 L970 544 L971 545 L970 546 Z M912 545 L910 641 L909 642 L908 670 L907 671 L907 680 L906 681 L904 701 L897 725 L887 747 L874 767 L859 782 L862 781 L871 773 L885 754 L896 732 L904 707 L904 702 L906 697 L907 685 L908 684 L908 676 L909 675 L910 652 L911 651 L911 635 L912 634 L912 609 L913 608 L913 549 Z M973 544 L974 543 L975 544 L974 545 Z M965 544 L966 543 L967 544 L966 545 Z M959 538 L963 536 L964 537 L963 540 L961 540 Z M424 533 L425 532 L443 532 L444 533 L443 534 L425 534 Z M447 532 L448 531 L453 531 L454 532 L453 533 L448 533 Z M231 536 L232 540 L229 545 L224 546 L221 548 L220 546 L222 544 L220 542 L220 545 L217 549 L208 553 L206 552 L208 547 L208 545 L207 545 L205 551 L201 556 L200 555 L200 551 L198 550 L199 554 L196 558 L187 562 L185 557 L185 561 L182 565 L169 571 L168 570 L169 561 L163 555 L164 553 L166 553 L167 554 L166 555 L167 555 L170 551 L176 548 L181 552 L179 547 L188 543 L192 544 L196 547 L192 543 L193 541 L203 538 L206 536 L211 536 L216 539 L214 536 L211 535 L220 531 L224 531 Z M456 531 L457 530 L460 531 L459 532 Z M462 530 L463 529 L465 530 L464 531 Z M979 528 L981 532 L981 536 L979 541 L975 544 L974 543 L977 539 L978 529 Z M466 529 L467 528 L469 529 L468 530 Z M470 528 L471 527 L472 528 L471 529 Z M977 527 L978 526 L979 527 L978 528 Z M974 526 L976 530 L976 534 L974 540 L972 542 L965 541 L964 540 L966 537 L968 529 L971 526 Z M741 527 L742 526 L746 527 L745 528 Z M473 527 L474 526 L475 527 L474 528 Z M237 526 L238 527 L238 541 L234 543 L232 536 L225 530 Z M737 526 L738 525 L741 526 L740 527 Z M476 526 L477 525 L478 526 L477 527 Z M733 525 L734 524 L737 525 L736 526 Z M479 525 L480 524 L481 525 L480 526 Z M730 524 L731 523 L733 524 L732 525 Z M727 523 L728 522 L730 523 L729 524 Z M484 523 L485 522 L486 523 L485 524 Z M236 523 L237 522 L238 523 L237 524 Z M724 522 L725 521 L727 522 L726 523 Z M486 522 L487 521 L488 522 L487 523 Z M722 521 L723 520 L725 521 L724 522 Z M488 521 L489 520 L490 521 L489 522 Z M719 520 L720 519 L722 520 L721 521 Z M490 520 L491 519 L492 520 L491 521 Z M929 530 L935 527 L937 524 L937 520 L936 519 L937 518 L946 520 L950 525 L951 529 L952 529 L952 526 L949 522 L950 521 L969 526 L965 531 L965 534 L957 538 L950 536 L949 535 L951 534 L951 532 L948 535 L945 535 Z M717 519 L718 518 L719 519 L718 520 Z M492 519 L493 518 L494 519 L493 520 Z M715 518 L716 517 L717 518 L716 519 Z M494 518 L495 517 L496 518 L495 519 Z M713 517 L714 516 L715 517 L714 518 Z M495 517 L496 516 L498 517 L497 518 Z M250 517 L251 516 L253 517 L252 518 Z M921 516 L922 515 L928 515 L933 517 L936 521 L936 524 L932 528 L925 530 L921 528 L923 527 L925 523 L925 517 L924 517 L924 521 L922 526 L921 525 Z M711 516 L712 515 L713 516 L712 517 Z M497 516 L498 515 L500 516 L499 517 Z M328 515 L328 516 L343 521 L359 529 L381 537 L402 542 L418 543 L419 544 L441 544 L442 543 L451 543 L452 542 L457 542 L458 541 L463 541 L471 539 L488 533 L504 525 L514 518 L513 517 L506 522 L489 531 L469 538 L454 540 L453 541 L446 541 L445 542 L415 542 L414 541 L400 540 L380 535 L361 528 L340 518 Z M910 509 L911 508 L912 509 L911 510 Z M512 507 L513 506 L514 507 L513 508 Z M511 506 L512 505 L513 506 L512 507 Z M913 506 L915 504 L916 505 L915 507 Z M695 504 L696 503 L698 506 L696 507 Z M511 502 L512 503 L511 506 L510 505 Z M315 499 L316 498 L331 498 L336 500 L343 505 L376 521 L399 528 L415 530 L416 531 L423 531 L424 532 L423 533 L414 533 L413 532 L407 532 L406 531 L401 531 L389 528 L367 520 L332 503 Z M307 498 L308 497 L312 498 L311 499 Z M255 496 L256 497 L253 501 L254 506 L255 506 L255 498 L256 497 L259 503 L259 508 L256 514 L251 514 L249 512 L248 515 L243 515 L238 517 L234 524 L231 523 L229 521 L227 515 L227 510 L230 505 L230 503 L232 501 L233 502 L232 504 L233 508 L239 514 L234 507 L234 502 L238 499 L244 498 L245 499 L244 503 L245 503 L245 500 L247 497 Z M511 495 L513 499 L512 500 L510 499 Z M319 496 L320 495 L322 496 L321 497 Z M308 495 L309 494 L311 495 L310 496 Z M620 494 L621 526 L622 527 L622 547 L623 548 L623 571 L624 572 L625 635 L626 635 L626 586 L625 585 L624 535 L623 534 L623 521 L622 520 L622 505 L621 504 L621 495 Z M509 493 L510 492 L511 494 L510 495 Z M868 492 L854 498 L829 515 L803 526 L790 529 L774 530 L773 531 L754 530 L746 528 L747 527 L754 527 L755 528 L781 528 L782 527 L788 527 L805 523 L822 515 L836 505 L849 492 L852 491 L867 491 Z M917 489 L922 493 L926 503 L926 507 L922 513 L921 510 L917 507 L918 506 L915 504 L918 497 L916 491 Z M911 488 L916 492 L916 501 L912 506 L909 507 L907 501 L907 495 L908 494 L908 490 Z M860 488 L861 487 L864 488 L863 489 Z M337 487 L336 496 L335 497 L323 496 L322 495 L330 491 L336 486 Z M911 486 L912 485 L913 486 L912 487 Z M336 486 L337 485 L338 486 L337 487 Z M844 479 L846 478 L852 483 L860 487 L857 489 L853 489 L848 491 Z M845 488 L845 492 L843 495 L835 503 L824 511 L811 518 L796 523 L787 524 L786 525 L758 526 L757 525 L743 524 L731 521 L715 515 L702 508 L699 505 L700 497 L708 478 L717 465 L731 451 L750 440 L765 436 L771 436 L772 435 L780 435 L781 436 L788 436 L796 438 L811 445 L817 449 L837 469 Z M788 434 L789 433 L794 433 L807 436 L825 445 L838 455 L864 482 L871 486 L868 487 L860 485 L852 481 L818 447 L802 438 Z M338 491 L341 483 L348 474 L357 465 L377 449 L391 441 L405 436 L414 435 L415 434 L430 433 L431 434 L444 435 L456 439 L468 445 L484 457 L492 465 L502 479 L508 494 L508 505 L496 514 L482 521 L468 526 L453 528 L452 529 L440 529 L439 530 L419 529 L418 528 L412 528 L411 527 L390 523 L368 515 L344 502 L338 496 Z M779 433 L780 432 L787 432 L788 433 L787 434 L780 434 Z M690 515 L715 529 L738 537 L754 539 L755 540 L766 540 L767 541 L787 540 L788 539 L794 539 L807 536 L821 531 L838 522 L859 507 L854 509 L835 522 L817 531 L801 536 L791 537 L790 538 L780 538 L779 539 L762 539 L761 538 L753 538 L752 537 L746 537 L733 534 L719 529 L695 517 L692 513 L696 509 L721 523 L744 530 L757 531 L758 532 L780 532 L781 531 L794 530 L816 523 L834 514 L862 496 L875 492 L886 491 L886 489 L877 487 L866 481 L835 450 L827 444 L812 436 L793 431 L783 431 L782 430 L769 431 L753 435 L738 442 L728 449 L714 463 L709 470 L700 487 Z M426 430 L425 431 L420 431 L419 432 L414 432 L401 435 L381 444 L360 459 L331 488 L319 494 L311 495 L310 494 L327 483 L350 460 L365 448 L376 441 L389 435 L403 431 L418 430 L419 429 L425 429 Z M516 512 L516 504 L506 479 L499 468 L486 454 L476 446 L459 436 L437 429 L431 429 L430 428 L410 428 L409 429 L399 430 L374 440 L354 454 L320 486 L303 495 L295 498 L292 498 L292 500 L297 500 L298 501 L312 501 L313 502 L320 502 L321 503 L329 504 L375 525 L394 531 L398 531 L409 534 L418 534 L419 535 L448 535 L449 534 L456 534 L457 533 L466 532 L491 523 L505 516 L505 515 L501 516 L499 515 L503 512 L504 513 L509 508 L511 508 Z M593 411 L594 410 L600 410 L602 412 L601 413 L597 413 Z M692 401 L693 400 L694 401 L693 402 Z M520 401 L521 400 L522 401 L521 402 Z M693 400 L694 399 L695 400 L694 401 Z M564 400 L566 399 L574 403 L587 405 L595 408 L592 410 L584 410 L578 408 Z M562 399 L563 398 L564 399 L563 400 Z M560 398 L561 397 L563 398 L562 399 Z M559 397 L560 396 L561 397 L560 398 Z M880 435 L875 430 L852 414 L830 403 L815 398 L801 396 L800 395 L779 394 L778 395 L763 396 L748 400 L729 409 L715 419 L697 438 L687 454 L679 472 L674 489 L672 506 L673 506 L675 492 L680 474 L691 450 L699 438 L721 416 L730 410 L747 402 L761 398 L774 397 L775 396 L794 396 L795 397 L802 397 L803 398 L813 399 L820 402 L826 403 L846 412 L861 421 L880 436 Z M290 445 L307 429 L327 415 L349 404 L367 398 L375 397 L380 395 L395 394 L396 393 L417 393 L418 394 L427 394 L428 395 L438 396 L460 403 L477 412 L490 421 L509 440 L521 457 L532 481 L536 498 L536 506 L537 506 L536 491 L530 472 L522 456 L505 433 L491 420 L473 408 L459 401 L441 395 L425 393 L424 392 L402 391 L401 392 L383 393 L382 394 L377 394 L365 397 L348 403 L326 414 L305 429 Z M673 388 L673 390 L670 395 L658 404 L640 411 L636 411 L635 412 L632 411 L638 405 L662 394 L672 387 Z M626 386 L627 385 L628 386 L627 387 Z M674 385 L675 384 L676 385 L675 386 Z M547 385 L548 384 L549 385 L548 386 Z M675 384 L676 383 L677 384 L676 385 Z M546 384 L547 383 L548 384 L547 385 Z M676 382 L677 381 L678 382 L677 383 Z M545 382 L546 381 L547 382 L546 383 Z M544 380 L545 379 L546 381 L545 382 Z M542 377 L543 376 L545 379 L544 380 Z M541 376 L542 375 L543 376 L542 377 Z M540 374 L541 373 L542 375 L541 376 Z M627 371 L628 372 L628 380 L624 386 L621 386 L617 383 L618 382 L622 382 L625 379 Z M592 360 L593 359 L599 359 L600 360 L599 361 L593 361 Z M626 358 L627 357 L628 358 L627 359 Z M570 359 L573 356 L580 360 L588 360 L589 361 L588 362 L576 362 L575 361 L571 361 Z M627 351 L628 352 L627 355 L626 354 Z M85 345 L86 344 L87 345 L86 346 Z M84 344 L85 343 L86 344 L85 345 Z M83 343 L84 342 L85 343 L84 344 Z M82 342 L83 341 L84 342 L83 343 Z M81 341 L82 340 L83 341 L82 342 Z M80 340 L81 339 L82 340 L81 341 Z M325 339 L327 338 L333 343 L345 349 L353 351 L358 351 L359 352 L385 352 L386 351 L403 351 L404 350 L425 350 L426 351 L439 351 L440 352 L445 352 L446 353 L459 355 L473 360 L494 372 L513 389 L521 400 L520 401 L518 400 L509 391 L486 376 L473 370 L458 365 L444 363 L443 362 L436 362 L435 361 L425 361 L424 360 L384 360 L383 361 L378 361 L377 360 L357 359 L342 353 L331 345 Z M324 338 L325 337 L326 338 L325 339 Z M79 338 L80 337 L81 339 L80 340 Z M323 337 L324 336 L325 337 L324 338 Z M78 337 L79 336 L80 337 L79 338 Z M322 336 L323 335 L324 336 L323 337 Z M77 336 L78 335 L79 336 L78 337 Z M76 335 L77 334 L78 335 L77 336 Z M852 334 L848 340 L838 350 L821 358 L817 358 L816 359 L773 360 L772 361 L766 361 L765 362 L760 362 L738 369 L724 376 L706 389 L695 400 L694 399 L699 390 L715 373 L729 363 L741 357 L757 352 L770 351 L771 350 L808 350 L809 351 L811 350 L821 350 L831 347 L841 342 L851 333 Z M75 334 L76 333 L77 334 L76 335 Z M851 333 L852 332 L853 333 L852 334 Z M74 333 L75 332 L76 333 L75 334 Z M852 332 L853 331 L854 332 L853 333 Z M73 332 L74 331 L75 332 L74 333 Z M627 330 L628 331 L628 335 L627 336 L626 335 L626 331 Z M599 329 L602 332 L602 344 L601 345 L602 348 L601 349 L599 347 L599 333 L598 332 Z M582 328 L583 327 L589 327 L590 328 L589 329 L583 329 Z M70 328 L71 327 L74 331 L73 332 Z M623 326 L625 332 L625 354 L622 356 L603 357 L602 353 L604 349 L618 347 L622 345 L620 343 L617 343 L604 346 L603 345 L603 341 L606 339 L622 336 L622 334 L621 333 L615 333 L614 334 L604 335 L602 329 L609 327 Z M592 327 L593 326 L597 326 L598 327 L597 328 L593 328 Z M63 317 L71 326 L70 328 L63 321 L62 319 Z M61 317 L62 316 L63 317 L62 318 Z M60 316 L61 315 L62 316 L61 317 Z M612 314 L613 315 L613 319 L612 320 L610 318 Z M650 314 L651 313 L652 315 L651 316 Z M50 306 L54 307 L57 310 L56 311 L56 318 L57 319 L59 397 L60 398 L60 425 L61 426 L64 548 L65 549 L67 640 L68 641 L68 673 L69 674 L69 704 L70 705 L72 786 L73 787 L73 807 L74 808 L73 809 L66 808 L64 806 L63 753 L62 752 L60 672 L59 671 L59 644 L58 643 L56 565 L55 564 L55 537 L54 536 L53 485 L52 484 L52 456 L51 455 L51 431 L50 430 L50 402 L49 401 L49 374 L48 373 L47 313 L46 312 L46 308 Z M563 304 L564 303 L567 304 L566 305 Z M298 301 L308 320 L318 334 L334 350 L347 358 L356 361 L370 362 L371 363 L420 362 L421 363 L441 364 L442 365 L447 365 L448 366 L453 366 L461 368 L479 375 L503 389 L515 399 L531 416 L524 401 L513 386 L495 370 L474 358 L452 351 L447 351 L440 349 L430 349 L429 348 L401 348 L400 349 L385 349 L384 350 L361 350 L360 349 L349 348 L337 343 L328 337 L313 322 L304 310 L300 302 Z M874 294 L872 295 L866 310 L857 324 L844 337 L830 345 L819 348 L768 348 L767 349 L761 349 L740 355 L730 360 L713 372 L704 381 L694 394 L683 416 L685 415 L690 407 L702 395 L713 386 L725 378 L741 370 L753 366 L757 366 L767 363 L773 363 L774 362 L818 361 L834 355 L840 351 L849 342 L859 328 L870 305 Z M1063 292 L1064 291 L1065 292 L1064 293 Z M598 292 L601 289 L604 289 L605 292 L607 292 L608 289 L609 290 L609 294 L605 296 L600 296 L598 294 Z M586 290 L584 290 L575 298 L566 302 L562 302 L561 305 L564 307 L569 305 Z M639 288 L640 287 L641 288 L640 289 Z M596 288 L597 287 L598 288 L597 289 Z M610 286 L611 285 L612 287 L611 288 Z M572 285 L573 284 L577 285 L576 286 Z M1070 283 L1071 284 L1071 400 L1072 401 L1071 402 L1072 403 L1073 753 L1074 754 L1072 756 L1068 756 L1067 755 L1066 430 L1065 429 L1065 299 L1066 298 L1066 287 Z M576 284 L577 283 L579 284 L578 285 Z M635 282 L636 286 L630 288 L629 284 Z M122 283 L134 309 L135 320 L137 317 L137 309 L135 308 L124 284 Z M627 281 L628 282 L628 289 L630 291 L628 294 L626 290 L626 282 Z M1069 279 L1070 280 L1063 289 L1046 314 L1041 319 L1039 317 L1037 310 L1042 302 L1060 278 Z M640 278 L641 279 L639 280 L639 284 L638 285 L637 284 L637 279 Z M594 279 L595 278 L596 279 L595 280 Z M640 278 L641 277 L642 278 L641 279 Z M524 276 L525 277 L524 281 L523 280 Z M748 275 L749 274 L750 275 L749 276 Z M609 275 L610 274 L612 275 L611 276 Z M611 274 L612 273 L615 274 L614 275 Z M573 275 L574 273 L575 274 L577 273 L580 274 L577 276 Z M648 271 L649 272 L648 277 L645 279 L641 277 Z M651 269 L652 270 L651 274 L650 273 Z M608 270 L610 269 L612 272 L610 273 Z M648 269 L649 268 L651 269 L650 270 Z M593 269 L587 269 L579 272 L572 272 L571 275 L574 277 L578 277 L584 273 L593 270 Z M326 269 L327 268 L328 269 L327 270 Z M1019 267 L1024 285 L1028 293 L1024 278 Z M323 267 L324 266 L325 267 L324 268 Z M650 266 L648 266 L635 279 L626 280 L624 282 L626 296 L629 296 L632 293 L633 289 L636 289 L638 291 L637 303 L634 309 L630 313 L627 314 L627 315 L630 315 L639 307 L642 297 L642 290 L643 289 L647 289 L649 293 L649 310 L648 314 L652 319 L653 318 L651 293 L653 289 L658 289 L660 287 L658 285 L643 285 L642 286 L640 284 L641 281 L647 280 L653 275 L654 272 L653 269 Z M321 266 L322 265 L323 266 L322 267 Z M320 265 L321 264 L322 265 L321 266 Z M318 264 L319 263 L321 264 L320 265 Z M317 263 L318 262 L319 263 L318 264 Z M635 262 L636 261 L638 262 L637 263 Z M314 261 L316 260 L318 262 L316 263 Z M970 255 L971 262 L984 299 L985 299 L985 296 L983 293 L978 276 L976 273 Z M173 255 L178 270 L186 288 L188 296 L190 298 L187 286 L174 255 Z M639 253 L640 252 L641 253 L640 254 Z M1020 253 L1016 259 L1016 261 L1014 263 L1012 269 L1009 273 L1004 284 L997 296 L994 298 L990 292 L990 289 L999 274 L1010 252 L1013 250 Z M576 260 L579 264 L583 265 L597 263 L595 261 L589 262 L586 260 L585 258 L586 257 L592 256 L595 254 L594 253 L589 253 L586 251 L582 254 L582 256 L584 258 L583 261 L580 259 Z M643 253 L641 250 L628 251 L627 252 L622 251 L621 252 L622 254 L638 254 L639 255 L637 260 L632 260 L631 261 L623 261 L622 260 L622 262 L625 264 L638 264 L641 262 L641 260 L638 259 L640 258 Z M300 250 L302 249 L315 260 L314 261 L311 260 Z M563 247 L564 248 L562 251 L562 255 L560 259 L558 257 L558 253 L560 248 Z M657 245 L660 244 L662 246 L662 248 L659 250 Z M275 241 L276 240 L277 241 L276 242 Z M277 240 L278 239 L279 240 L278 241 Z M167 238 L172 241 L169 247 L164 267 L158 283 L158 286 L156 289 L156 292 L152 304 L145 314 L142 311 L140 306 L157 257 L161 241 L163 239 Z M879 233 L880 232 L881 233 L880 234 Z M394 231 L342 274 L341 271 L340 271 L338 275 L331 269 L320 262 L292 239 L293 238 L309 238 L310 237 L322 237 L323 236 L357 234 L358 233 L367 233 L368 232 L377 232 L378 231 L387 231 L388 230 L393 230 Z M234 230 L235 231 L235 244 L236 245 L236 273 L237 274 L237 297 L238 298 L238 307 L236 311 L235 310 L235 300 L234 299 L233 245 L232 241 L230 240 Z M608 228 L612 232 L612 242 L611 243 L612 245 L610 253 L608 245 L609 244 L609 234 L607 229 Z M905 227 L905 230 L920 261 L929 282 L932 284 Z M228 226 L231 227 L233 230 L229 237 L229 239 L226 244 L226 246 L223 251 L223 253 L220 258 L218 265 L215 270 L205 295 L206 295 L212 283 L212 281 L230 240 L231 241 L232 290 L233 291 L233 308 L234 309 L234 331 L233 332 L233 348 L232 349 L232 445 L233 446 L233 471 L234 472 L235 497 L233 499 L231 499 L227 503 L225 507 L225 516 L227 521 L231 525 L228 527 L187 541 L167 551 L156 553 L152 557 L151 567 L156 575 L164 577 L169 575 L172 571 L193 561 L195 561 L208 554 L236 544 L239 545 L241 582 L242 583 L242 592 L243 593 L247 637 L248 638 L249 652 L250 653 L254 685 L257 696 L258 737 L259 738 L259 764 L260 765 L260 786 L261 787 L260 788 L253 788 L252 789 L245 789 L244 790 L209 793 L208 794 L201 794 L200 795 L165 798 L164 799 L157 799 L156 800 L148 800 L147 801 L139 801 L138 802 L130 802 L129 803 L121 803 L120 804 L112 804 L111 805 L94 806 L93 807 L85 807 L84 808 L77 808 L75 809 L74 808 L75 806 L75 802 L74 801 L74 769 L73 768 L73 742 L72 741 L72 717 L71 716 L71 685 L70 684 L70 654 L69 653 L68 588 L67 587 L67 559 L66 558 L66 533 L65 532 L65 500 L64 499 L63 441 L62 440 L62 414 L61 413 L60 354 L59 353 L59 329 L58 328 L57 312 L58 311 L60 313 L61 320 L73 335 L85 347 L93 349 L97 343 L98 338 L95 344 L92 347 L88 344 L86 339 L94 317 L94 314 L99 301 L99 298 L104 285 L104 282 L108 270 L110 268 L114 267 L117 268 L119 270 L119 272 L114 285 L114 288 L110 298 L110 301 L106 311 L106 314 L102 324 L100 333 L101 333 L103 325 L105 322 L105 319 L107 316 L109 306 L111 303 L111 300 L116 287 L116 284 L120 272 L122 274 L125 282 L127 284 L140 311 L144 315 L146 315 L148 313 L154 302 L170 253 L170 250 L173 244 L195 297 L197 299 L201 298 L201 297 L198 297 L195 292 L204 272 L210 255 L213 250 L215 243 L218 238 L221 228 L223 226 Z M964 225 L966 227 L963 232 L955 255 L945 277 L940 282 L936 277 L936 273 L947 250 L956 227 L958 225 Z M641 225 L642 224 L645 225 L644 226 Z M699 219 L700 220 L699 223 L698 222 Z M267 249 L276 243 L282 241 L283 242 L277 256 L273 261 L263 279 L263 281 L258 291 L255 302 L253 305 L252 311 L256 303 L262 285 L270 269 L280 254 L285 242 L288 239 L291 240 L297 249 L307 259 L326 271 L336 276 L341 277 L387 238 L398 230 L402 229 L417 239 L461 273 L470 279 L474 280 L489 259 L513 219 L515 223 L515 234 L514 235 L513 234 L512 226 L511 226 L511 230 L512 231 L513 239 L516 243 L519 267 L520 268 L523 287 L525 292 L525 298 L526 299 L526 325 L524 329 L518 305 L512 259 L512 272 L513 273 L513 281 L514 282 L516 302 L517 303 L520 322 L526 346 L528 349 L532 362 L539 376 L549 390 L556 397 L566 404 L574 408 L579 409 L582 411 L599 414 L600 415 L620 416 L621 415 L635 414 L643 411 L646 411 L661 404 L667 400 L674 392 L675 388 L679 384 L689 367 L698 343 L702 322 L704 317 L708 285 L709 284 L709 277 L710 276 L711 259 L712 258 L713 226 L714 225 L719 233 L720 237 L723 240 L729 251 L747 278 L749 278 L757 270 L791 226 L792 227 L819 229 L820 230 L847 232 L848 233 L857 233 L858 234 L874 234 L875 235 L882 235 L883 234 L887 238 L903 273 L912 303 L914 322 L915 323 L916 371 L917 372 L918 486 L916 487 L915 485 L910 484 L907 488 L905 498 L906 499 L906 505 L909 511 L913 512 L915 509 L919 511 L919 617 L918 618 L918 640 L917 641 L917 656 L916 657 L915 678 L914 679 L912 699 L908 716 L896 746 L888 760 L878 774 L862 789 L852 793 L846 793 L845 794 L833 794 L832 795 L787 795 L786 794 L776 794 L775 793 L768 793 L767 792 L757 791 L742 782 L721 760 L707 739 L689 702 L684 694 L678 688 L668 683 L655 680 L650 680 L649 679 L643 679 L642 678 L620 677 L619 676 L590 676 L589 677 L575 677 L574 678 L566 678 L565 679 L557 679 L556 680 L545 681 L532 684 L526 687 L519 694 L515 700 L497 738 L479 767 L466 781 L459 786 L449 791 L438 794 L418 796 L417 797 L409 797 L408 798 L365 799 L364 798 L352 798 L351 797 L346 797 L334 794 L321 788 L311 781 L298 769 L285 753 L273 734 L267 722 L261 706 L257 690 L254 666 L253 665 L253 659 L252 658 L252 652 L251 651 L248 619 L247 618 L247 610 L246 609 L246 601 L245 600 L245 592 L244 591 L242 558 L241 557 L239 520 L243 517 L248 517 L250 519 L256 518 L259 514 L261 504 L258 496 L253 492 L250 492 L245 496 L241 496 L240 497 L237 496 L236 468 L235 467 L235 439 L234 438 L234 354 L235 353 L236 322 L241 301 L247 287 L248 282 L256 265 Z M511 220 L505 228 L489 256 L473 279 L471 276 L472 270 L467 274 L458 267 L449 262 L407 230 L410 228 L420 228 L421 227 L430 227 L431 226 L462 224 L463 223 L472 223 L473 222 L482 222 L483 221 L494 221 L495 220 L503 220 L504 219 L510 219 Z M712 219 L714 218 L715 219 L752 222 L753 223 L761 223 L762 224 L770 224 L771 225 L780 225 L788 227 L750 275 L749 273 L753 265 L766 248 L762 251 L751 265 L747 274 L735 258 Z M904 217 L930 270 L932 272 L935 279 L939 283 L943 282 L946 278 L956 257 L961 242 L963 239 L964 240 L963 237 L966 229 L985 284 L990 296 L994 300 L1001 293 L1020 255 L1025 270 L1036 314 L1040 321 L1049 312 L1063 292 L1064 293 L1065 675 L1066 676 L1066 754 L1067 755 L1066 756 L895 755 L894 754 L903 736 L910 717 L914 700 L916 681 L917 680 L919 645 L920 644 L920 624 L921 623 L921 577 L922 576 L921 532 L924 531 L928 533 L951 538 L960 541 L965 546 L968 547 L975 547 L980 543 L983 536 L982 529 L980 525 L976 522 L967 522 L966 523 L933 515 L925 512 L928 507 L928 497 L925 490 L920 487 L920 419 L919 418 L919 366 L918 365 L917 322 L916 321 L916 314 L915 313 L915 308 L914 307 L912 294 L906 275 L900 262 L901 253 L902 252 L903 218 Z M517 214 L518 216 L515 218 L514 217 Z M894 213 L901 213 L902 214 L900 254 L898 256 L892 244 L893 214 Z M517 214 L518 213 L519 214 L518 215 Z M699 207 L700 206 L710 206 L711 207 L731 208 L732 209 L741 209 L742 210 L750 210 L751 211 L758 211 L766 213 L781 214 L782 215 L809 218 L822 221 L828 221 L829 222 L858 226 L859 227 L876 230 L880 232 L879 233 L854 232 L853 231 L844 231 L843 230 L808 227 L807 226 L800 226 L799 225 L788 225 L787 224 L752 221 L751 220 L744 220 L743 219 L715 217 L714 216 L710 216 L707 212 Z M526 207 L518 211 L512 217 L464 221 L463 222 L454 222 L453 223 L444 223 L443 224 L434 224 L433 225 L423 225 L422 226 L411 226 L410 227 L399 227 L398 228 L397 227 L396 228 L389 228 L388 229 L350 232 L349 233 L339 233 L338 234 L311 235 L310 236 L293 236 L281 240 L278 239 L288 232 L303 228 L311 228 L319 226 L345 224 L346 223 L362 222 L363 221 L373 221 L374 220 L382 220 L383 219 L391 219 L392 218 L400 218 L401 217 L450 213 L451 212 L472 211 L473 210 L493 209 L494 208 L506 208 L507 207 L518 207 L519 206 L525 206 Z M536 205 L540 206 L534 211 L531 221 L531 228 L530 229 L531 253 L532 254 L532 265 L533 266 L534 283 L535 284 L537 304 L538 305 L541 323 L549 346 L560 364 L574 377 L587 384 L599 388 L610 389 L611 390 L632 387 L642 383 L653 376 L661 368 L666 361 L677 338 L681 325 L685 298 L686 297 L688 271 L689 270 L689 259 L690 258 L690 244 L691 243 L690 217 L687 210 L682 206 L683 205 L690 205 L698 208 L704 212 L701 214 L701 218 L699 219 L696 213 L693 211 L697 218 L698 256 L697 257 L697 271 L696 272 L695 294 L694 295 L691 320 L689 327 L689 334 L688 335 L688 343 L689 342 L690 334 L691 333 L692 320 L693 319 L693 313 L694 312 L694 306 L697 293 L697 286 L698 285 L700 235 L701 234 L701 222 L703 217 L703 213 L704 212 L710 218 L711 220 L711 249 L710 250 L710 261 L709 262 L708 279 L707 280 L707 287 L706 288 L706 295 L705 296 L703 313 L702 314 L699 333 L692 356 L682 377 L678 382 L677 380 L679 376 L675 380 L674 383 L666 390 L637 404 L628 413 L624 413 L623 414 L609 414 L604 412 L599 408 L596 408 L584 403 L568 399 L559 394 L549 384 L545 376 L539 369 L537 362 L536 361 L536 363 L535 364 L534 363 L525 336 L526 328 L527 327 L527 308 L528 307 L527 293 L526 292 L526 270 L525 269 L525 260 L524 259 L524 249 L523 247 L523 260 L524 261 L524 276 L523 277 L522 276 L522 270 L520 264 L519 252 L518 251 L518 243 L517 242 L517 221 L520 214 L524 210 Z M681 205 L682 204 L683 205 L682 206 Z M547 204 L559 204 L560 203 L578 203 L579 202 L641 202 L642 203 L676 204 L682 207 L686 211 L689 222 L689 249 L688 250 L688 263 L687 264 L686 284 L685 285 L685 292 L684 293 L684 300 L683 301 L681 318 L677 334 L667 357 L661 366 L647 379 L631 386 L627 385 L630 378 L630 365 L629 364 L630 361 L629 360 L630 359 L647 357 L648 354 L646 352 L634 355 L630 355 L629 354 L630 353 L629 352 L630 332 L625 326 L626 325 L634 324 L635 323 L634 320 L618 322 L617 323 L613 323 L612 322 L615 318 L612 308 L614 306 L619 306 L624 304 L621 302 L614 304 L613 303 L614 297 L617 295 L621 295 L623 293 L623 292 L617 292 L616 293 L614 292 L614 289 L616 287 L621 286 L622 284 L615 284 L613 277 L626 273 L624 271 L616 271 L615 272 L610 266 L612 259 L612 252 L613 248 L615 246 L634 246 L635 245 L651 245 L652 246 L656 246 L657 249 L653 254 L662 251 L664 249 L664 246 L660 242 L619 242 L618 243 L614 243 L613 242 L613 230 L612 229 L613 228 L617 228 L618 227 L637 227 L638 228 L643 228 L647 226 L647 224 L644 222 L637 224 L612 224 L611 225 L589 226 L588 227 L578 227 L575 226 L574 229 L578 232 L604 228 L607 231 L607 240 L608 242 L607 243 L587 244 L586 245 L577 245 L576 246 L563 246 L560 245 L556 255 L559 261 L562 261 L563 253 L565 250 L574 250 L575 249 L594 248 L595 247 L607 247 L608 248 L609 267 L606 269 L608 273 L601 276 L592 277 L579 282 L572 283 L570 285 L572 287 L577 287 L591 280 L595 283 L597 283 L599 280 L608 277 L609 278 L609 284 L607 286 L600 287 L597 285 L595 286 L594 289 L597 292 L596 298 L598 299 L609 298 L610 299 L610 304 L609 305 L594 306 L590 307 L590 309 L598 310 L609 307 L610 308 L609 319 L611 322 L605 324 L578 326 L576 328 L579 331 L587 331 L588 330 L595 330 L596 329 L597 330 L598 356 L594 358 L579 358 L572 353 L568 361 L571 363 L576 363 L577 364 L587 364 L588 363 L596 363 L597 362 L605 362 L606 361 L624 360 L625 361 L625 375 L624 378 L619 381 L610 379 L611 381 L620 387 L619 388 L607 388 L587 383 L573 375 L559 361 L548 341 L541 318 L538 298 L537 297 L537 291 L536 290 L535 273 L534 272 L533 248 L532 247 L532 223 L535 212 L540 207 Z M47 305 L45 307 L44 311 L45 312 L46 367 L47 368 L47 395 L48 396 L48 425 L49 426 L49 455 L50 456 L52 537 L53 538 L56 644 L57 645 L59 730 L60 731 L61 782 L62 783 L62 807 L63 809 L77 811 L78 810 L85 810 L86 809 L95 809 L96 808 L121 806 L122 805 L129 805 L130 804 L139 804 L140 803 L148 803 L149 802 L156 802 L157 801 L166 801 L167 800 L174 800 L175 799 L183 799 L184 798 L192 798 L193 797 L200 797 L201 796 L209 796 L210 795 L218 795 L219 794 L227 794 L228 793 L235 793 L236 792 L261 790 L262 789 L261 737 L260 736 L260 713 L261 712 L266 725 L279 748 L290 763 L303 777 L310 783 L326 793 L340 798 L350 799 L351 800 L360 800 L361 801 L396 801 L397 800 L410 800 L411 799 L427 798 L428 797 L434 797 L447 794 L460 788 L466 784 L477 773 L483 765 L497 742 L510 716 L517 723 L528 730 L540 734 L552 735 L553 736 L552 737 L541 741 L517 753 L492 768 L473 782 L458 795 L443 812 L432 829 L425 843 L418 862 L417 869 L415 871 L365 873 L364 874 L340 875 L339 876 L303 876 L302 875 L266 873 L262 876 L261 879 L261 889 L263 894 L266 896 L268 895 L278 895 L279 894 L326 894 L327 893 L346 893 L347 892 L398 890 L399 889 L411 889 L412 890 L411 901 L410 902 L410 912 L409 913 L409 966 L410 967 L410 978 L411 979 L411 987 L412 988 L414 1007 L415 1008 L415 1012 L416 1013 L420 1034 L428 1058 L434 1070 L434 1072 L446 1096 L449 1100 L446 1101 L420 1090 L415 1089 L376 1069 L363 1070 L362 1071 L342 1074 L341 1075 L332 1075 L331 1074 L327 1075 L324 1080 L324 1088 L328 1095 L346 1094 L347 1095 L355 1095 L356 1096 L364 1096 L365 1097 L375 1097 L387 1101 L390 1101 L400 1105 L403 1105 L413 1109 L416 1109 L428 1114 L440 1117 L443 1119 L450 1120 L462 1124 L466 1124 L474 1130 L491 1137 L507 1141 L536 1146 L537 1147 L615 1158 L625 1171 L652 1212 L658 1219 L683 1256 L696 1273 L706 1283 L712 1286 L719 1286 L723 1284 L728 1279 L734 1270 L751 1233 L768 1183 L768 1180 L780 1145 L784 1129 L809 1054 L811 1051 L811 1048 L818 1027 L821 1015 L821 1010 L822 1009 L822 1003 L823 1002 L822 990 L818 985 L814 975 L803 924 L801 920 L794 892 L787 874 L788 873 L795 873 L803 875 L813 875 L814 874 L821 874 L822 873 L842 873 L843 874 L858 875 L863 870 L866 857 L866 852 L864 847 L858 847 L857 848 L834 848 L819 852 L808 852 L807 853 L784 853 L783 852 L779 852 L777 850 L764 825 L743 796 L744 795 L750 795 L757 793 L765 795 L773 795 L774 796 L806 797 L807 798 L811 797 L834 797 L835 796 L853 795 L863 791 L872 784 L884 770 L892 757 L988 757 L989 758 L1066 758 L1069 759 L1073 758 L1075 756 L1074 420 L1073 419 L1073 282 L1072 279 L1063 276 L1057 278 L1037 307 L1034 300 L1034 296 L1032 292 L1022 252 L1017 249 L1011 249 L1005 257 L999 270 L989 287 L983 273 L980 262 L978 259 L967 225 L960 222 L955 225 L944 250 L944 252 L937 266 L937 268 L934 272 L928 262 L927 258 L925 256 L904 212 L900 210 L895 210 L891 213 L891 231 L889 238 L882 230 L869 226 L836 221 L835 220 L830 220 L829 219 L824 219 L823 218 L818 218 L817 217 L811 217 L810 216 L804 216 L803 215 L797 215 L796 214 L783 213 L775 211 L768 211 L767 210 L760 210 L759 209 L752 209 L751 208 L713 205 L712 204 L686 203 L685 202 L668 202 L667 201 L648 201 L647 200 L576 200 L575 201 L557 201 L556 202 L528 203 L527 204 L517 204 L516 205 L505 205 L504 206 L460 209 L459 210 L450 210 L449 211 L440 211 L439 212 L429 212 L428 213 L419 213 L418 214 L410 214 L409 215 L400 215 L399 216 L390 216 L389 217 L381 217 L380 218 L371 218 L370 219 L362 219 L361 220 L354 220 L353 221 L318 224 L317 225 L301 226 L300 227 L292 228 L282 233 L273 240 L265 248 L259 256 L248 277 L240 298 L239 297 L237 229 L234 226 L228 224 L223 224 L219 228 L213 245 L210 250 L208 257 L194 289 L182 262 L174 240 L172 238 L166 236 L161 238 L159 241 L158 247 L152 263 L152 266 L139 303 L137 301 L121 268 L116 266 L110 266 L106 269 L104 278 L96 301 L96 304 L84 339 L56 306 L52 304 Z" fill="#eef3f4" fill-rule="evenodd"/>
</svg>
