<svg xmlns="http://www.w3.org/2000/svg" width="1122" height="1402" viewBox="0 0 1122 1402">
  <title>0246</title>
  <path d="M369 1362 L370 1363 L369 1366 L368 1365 Z M389 1352 L390 1353 L390 1365 L388 1369 L387 1368 L387 1363 L388 1362 L388 1353 Z M400 1344 L401 1343 L402 1344 L401 1345 Z M384 1327 L386 1332 L387 1345 L388 1346 L387 1347 L386 1368 L385 1369 L385 1383 L384 1387 L382 1388 L381 1387 L380 1375 L379 1374 L379 1361 L380 1360 L380 1346 L381 1345 L381 1340 Z M399 1315 L408 1331 L409 1335 L409 1348 L408 1349 L406 1348 L405 1345 L399 1337 L398 1333 L398 1316 Z M417 1247 L418 1248 L418 1271 L417 1272 L417 1281 L415 1284 L414 1283 L414 1276 L413 1275 L413 1259 L415 1256 L415 1252 Z M409 1243 L411 1247 L411 1252 L412 1253 L412 1262 L411 1263 L411 1273 L408 1282 L404 1274 L405 1272 L404 1271 L405 1270 L405 1261 L406 1260 L408 1244 Z M396 1212 L398 1215 L398 1220 L399 1221 L399 1231 L398 1232 L398 1237 L395 1247 L392 1269 L391 1270 L390 1293 L396 1315 L396 1331 L399 1341 L399 1357 L396 1369 L393 1374 L392 1373 L392 1351 L389 1348 L388 1334 L384 1320 L386 1307 L387 1306 L387 1299 L388 1298 L384 1306 L384 1310 L383 1311 L382 1310 L382 1285 L383 1284 L383 1274 L384 1273 L385 1258 L390 1237 L391 1223 L393 1222 Z M386 1200 L387 1201 L388 1215 L389 1216 L389 1232 L384 1253 L382 1277 L381 1278 L380 1307 L381 1308 L381 1314 L383 1318 L383 1324 L382 1325 L382 1332 L381 1333 L381 1338 L378 1351 L378 1365 L377 1366 L376 1382 L375 1383 L375 1387 L373 1390 L371 1386 L371 1358 L372 1357 L373 1301 L374 1300 L374 1285 L375 1284 L374 1281 L374 1265 L375 1264 L376 1252 L380 1238 L380 1222 Z M400 1200 L399 1202 L400 1203 Z M442 1129 L443 1130 L444 1141 L441 1149 L441 1160 L439 1166 L437 1183 L435 1188 L434 1187 L434 1178 L433 1177 L434 1155 L435 1154 L435 1149 L437 1141 Z M462 1122 L463 1121 L464 1122 L463 1123 Z M456 1120 L457 1119 L458 1120 L457 1121 Z M469 1119 L470 1118 L471 1120 L470 1121 Z M457 1119 L458 1118 L459 1119 L458 1120 Z M454 1118 L455 1117 L456 1118 L455 1119 Z M717 1116 L718 1115 L719 1116 L718 1117 Z M453 1115 L454 1114 L455 1115 L454 1116 Z M455 1113 L456 1112 L457 1113 L456 1114 Z M456 1111 L457 1110 L458 1112 L457 1113 Z M457 1110 L458 1109 L459 1110 L458 1111 Z M455 1106 L456 1105 L457 1107 L456 1108 Z M552 1101 L556 1101 L558 1103 L559 1107 L560 1128 L559 1129 L559 1138 L558 1139 L555 1136 L554 1133 L553 1114 L552 1113 L552 1105 L551 1104 Z M549 1101 L551 1108 L551 1122 L550 1123 L548 1139 L545 1143 L540 1144 L539 1143 L541 1139 L543 1131 L543 1126 L544 1125 L544 1105 L543 1102 L544 1101 Z M456 1102 L457 1101 L458 1103 L457 1104 Z M611 1099 L617 1099 L618 1100 L619 1116 L626 1127 L628 1133 L627 1137 L623 1136 L618 1131 L616 1127 L610 1104 L610 1100 Z M522 1097 L523 1096 L524 1097 L523 1098 Z M458 1096 L459 1097 L458 1100 L457 1099 Z M459 1092 L460 1093 L459 1096 L458 1095 Z M480 1091 L483 1093 L482 1094 L481 1103 L478 1114 L473 1122 L472 1119 L477 1102 L477 1096 L478 1092 Z M473 1089 L476 1091 L475 1103 L472 1112 L466 1121 L465 1118 L470 1105 L471 1095 Z M462 1088 L463 1089 L463 1103 L459 1110 L458 1106 L461 1097 L461 1089 Z M467 1087 L470 1089 L469 1102 L465 1113 L459 1119 L458 1118 L465 1102 L464 1088 Z M460 1087 L461 1086 L462 1087 L461 1088 Z M630 1086 L631 1085 L632 1086 L631 1087 Z M631 1085 L632 1084 L633 1085 L632 1086 Z M413 1082 L414 1083 L415 1101 L414 1102 L414 1109 L413 1110 L412 1122 L411 1123 L409 1141 L408 1142 L408 1149 L407 1150 L407 1180 L406 1181 L405 1189 L402 1196 L402 1198 L407 1186 L410 1193 L411 1205 L410 1206 L410 1214 L409 1215 L409 1222 L408 1223 L407 1245 L403 1262 L402 1289 L401 1290 L401 1298 L400 1299 L399 1315 L398 1316 L392 1294 L392 1275 L393 1274 L393 1268 L394 1267 L394 1262 L395 1261 L398 1241 L400 1236 L400 1216 L397 1203 L397 1177 L398 1176 L397 1138 L403 1121 L407 1097 Z M591 1077 L592 1078 L592 1085 L588 1098 L586 1100 L570 1100 L569 1099 L578 1094 L587 1085 Z M535 1060 L543 1055 L552 1055 L559 1059 L561 1062 L562 1068 L560 1072 L554 1077 L550 1078 L542 1077 L538 1075 L533 1068 L533 1064 Z M539 1055 L535 1058 L532 1064 L532 1069 L534 1073 L542 1079 L553 1079 L557 1077 L561 1073 L563 1068 L561 1060 L556 1055 L552 1053 L544 1053 Z M734 1047 L735 1046 L736 1047 L735 1048 Z M366 1042 L367 1041 L368 1042 L367 1043 Z M527 1044 L535 1040 L551 1038 L563 1041 L571 1046 L578 1054 L581 1063 L580 1074 L576 1081 L568 1088 L562 1091 L554 1092 L553 1093 L539 1092 L528 1087 L519 1078 L515 1068 L516 1058 L519 1052 Z M533 1039 L526 1043 L518 1051 L515 1057 L514 1069 L515 1073 L521 1083 L527 1088 L541 1094 L556 1094 L563 1092 L572 1087 L577 1082 L582 1072 L582 1061 L580 1055 L576 1049 L568 1042 L557 1037 L545 1036 Z M755 1028 L756 1027 L757 1028 L756 1029 Z M519 1036 L532 1029 L540 1027 L555 1027 L566 1030 L578 1037 L584 1043 L588 1049 L591 1057 L592 1067 L587 1082 L578 1092 L572 1096 L562 1100 L530 1098 L518 1091 L511 1084 L507 1078 L504 1068 L504 1060 L509 1047 Z M756 1026 L757 1025 L758 1027 L757 1028 Z M418 1007 L419 1008 L419 1026 L415 1041 L415 1045 L413 1049 L412 1057 L407 1072 L399 1089 L398 1088 L398 1081 L399 1080 L400 1064 L407 1041 L407 1038 L411 1029 Z M657 1004 L661 1015 L669 1029 L672 1038 L672 1052 L671 1053 L664 1028 L664 1032 L670 1058 L670 1065 L665 1079 L667 1077 L671 1068 L671 1063 L674 1050 L674 1040 L671 1030 Z M434 990 L430 1006 L429 1019 L428 1020 L428 1044 L429 1044 L430 1015 L431 1014 L431 1008 L434 997 Z M749 989 L748 994 L749 995 L750 1007 L750 993 Z M556 987 L553 993 L553 999 L559 1020 L559 1016 L554 998 Z M491 983 L485 992 L477 1008 L470 1030 L464 1042 L460 1030 L460 1017 L459 1018 L459 1031 L463 1043 L463 1050 L464 1050 L465 1043 L473 1026 L477 1012 Z M275 975 L276 974 L277 976 L276 977 Z M333 960 L331 964 L331 975 L335 990 L343 1004 L354 1015 L340 997 L335 986 L333 978 Z M767 943 L766 944 L771 964 L771 983 L766 998 L770 992 L773 982 L772 959 Z M463 937 L465 936 L484 946 L507 954 L527 957 L528 958 L533 958 L534 959 L545 959 L546 960 L579 959 L580 958 L587 958 L588 957 L603 955 L627 947 L642 938 L644 940 L646 946 L626 961 L617 966 L602 972 L594 973 L589 975 L574 976 L573 977 L538 977 L537 976 L531 976 L530 975 L525 975 L513 972 L499 966 L481 954 Z M367 937 L368 936 L369 938 L368 939 Z M462 936 L463 935 L464 936 L463 937 Z M461 935 L462 934 L463 935 L462 936 Z M815 933 L822 939 L827 949 L828 960 L827 961 L827 972 L826 973 L826 981 L825 982 L820 979 L822 956 L821 955 L821 951 L818 945 L813 939 Z M369 932 L370 933 L369 936 L368 935 Z M431 912 L432 911 L433 912 L432 913 Z M415 912 L412 915 L409 926 L409 932 L408 933 L408 965 L409 966 L409 974 L410 973 L410 930 L411 929 L411 924 L413 916 Z M453 925 L462 907 L466 902 L509 913 L514 913 L527 916 L552 917 L553 918 L592 915 L593 914 L604 913 L609 911 L613 911 L629 907 L636 920 L641 934 L638 937 L623 945 L610 950 L598 953 L581 955 L580 956 L570 956 L569 957 L546 957 L545 956 L535 956 L534 955 L522 954 L496 947 L493 945 L483 942 L467 934 Z M698 901 L699 900 L700 901 L699 902 Z M697 900 L698 899 L699 900 L698 901 Z M676 896 L677 895 L678 897 L677 898 Z M669 895 L674 901 L673 907 L660 921 L654 926 L652 926 L646 920 L638 905 L641 903 L650 901 L665 895 Z M678 899 L679 900 L684 928 L693 951 L701 983 L701 988 L702 989 L701 1022 L702 1023 L704 1039 L713 1066 L714 1080 L715 1081 L715 1091 L718 1104 L718 1114 L717 1115 L715 1111 L714 1098 L709 1087 L705 1066 L703 1062 L703 1059 L695 1033 L691 1001 L690 1000 L690 988 L689 987 L690 965 L689 964 L689 959 L687 951 L684 945 L688 961 L688 997 L689 998 L689 1005 L691 1012 L692 1025 L693 1026 L695 1040 L704 1069 L682 1081 L680 1080 L683 1073 L685 1058 L687 1052 L687 1047 L688 1046 L688 1028 L683 1007 L679 997 L679 994 L670 967 L669 967 L670 973 L675 986 L675 989 L678 996 L678 999 L683 1012 L686 1024 L687 1042 L686 1043 L686 1049 L682 1065 L682 1071 L678 1081 L674 1084 L659 1089 L647 1092 L644 1091 L651 1079 L657 1063 L659 1055 L659 1034 L653 1014 L646 1000 L639 991 L638 991 L645 1001 L653 1018 L657 1033 L657 1039 L658 1040 L658 1050 L657 1051 L657 1057 L655 1065 L653 1068 L652 1073 L643 1091 L641 1093 L633 1095 L628 1095 L627 1096 L623 1096 L622 1095 L627 1090 L635 1086 L642 1079 L645 1072 L645 1060 L644 1059 L643 1074 L641 1078 L633 1085 L632 1083 L637 1075 L643 1056 L642 1037 L640 1029 L637 1024 L641 1040 L641 1057 L640 1058 L640 1062 L633 1080 L628 1087 L618 1097 L612 1097 L611 1098 L609 1097 L614 1087 L611 1090 L607 1098 L602 1098 L601 1099 L590 1099 L589 1098 L592 1092 L593 1078 L594 1077 L593 1059 L591 1052 L586 1043 L577 1034 L566 1028 L554 1025 L541 1025 L540 1026 L532 1027 L523 1031 L511 1041 L505 1051 L502 1063 L505 1077 L508 1083 L518 1093 L523 1096 L522 1097 L515 1097 L514 1096 L498 1094 L493 1092 L477 1089 L462 1084 L461 1081 L469 1056 L473 1048 L485 1031 L485 1029 L490 1019 L495 1002 L490 1013 L487 1023 L481 1035 L470 1050 L460 1078 L454 1107 L445 1134 L444 1133 L444 1119 L445 1118 L445 1113 L446 1112 L448 1096 L449 1095 L451 1076 L454 1065 L455 1034 L454 1036 L453 1044 L452 1045 L453 1061 L449 1078 L445 1109 L444 1110 L442 1124 L436 1139 L433 1152 L433 1160 L432 1161 L433 1202 L430 1215 L429 1214 L429 1206 L428 1207 L427 1206 L427 1196 L426 1195 L427 1179 L428 1178 L429 1147 L430 1146 L430 1142 L434 1128 L434 1123 L437 1111 L444 1055 L451 1033 L451 1018 L452 1017 L455 991 L470 955 L469 951 L463 945 L457 941 L467 951 L468 956 L465 961 L464 966 L453 992 L452 1005 L450 1013 L449 1034 L446 1041 L442 1057 L435 1113 L434 1114 L434 1119 L427 1149 L427 1172 L426 1173 L426 1181 L425 1182 L425 1231 L424 1232 L424 1239 L423 1240 L421 1256 L420 1257 L419 1256 L419 1245 L418 1244 L418 1197 L419 1196 L418 1175 L419 1174 L422 1148 L426 1131 L426 1107 L427 1106 L427 1100 L428 1099 L428 1095 L429 1094 L429 1090 L435 1064 L438 1039 L439 1038 L439 1029 L437 1036 L436 1047 L435 1048 L434 1060 L431 1071 L431 1076 L425 1102 L424 1133 L420 1150 L418 1169 L417 1170 L417 1177 L416 1178 L416 1182 L417 1183 L417 1200 L416 1201 L417 1245 L414 1252 L412 1249 L411 1240 L410 1242 L409 1241 L409 1237 L410 1236 L411 1212 L415 1196 L415 1191 L413 1191 L412 1195 L408 1180 L408 1161 L409 1160 L410 1139 L411 1138 L414 1114 L416 1107 L415 1077 L418 1069 L422 1047 L423 1046 L424 1029 L422 1033 L421 1046 L420 1047 L420 1052 L417 1062 L417 1066 L413 1079 L409 1086 L405 1098 L402 1117 L397 1132 L396 1131 L396 1103 L397 1102 L397 1097 L408 1074 L413 1059 L420 1030 L420 1025 L421 1024 L421 998 L422 997 L426 969 L425 969 L423 976 L422 988 L420 995 L419 994 L419 987 L418 986 L418 958 L419 957 L421 940 L423 936 L428 912 L429 911 L436 927 L437 927 L437 925 L432 914 L433 912 L443 922 L446 921 L432 907 L431 905 L432 900 L436 896 L442 895 L462 901 L463 902 L460 905 L455 915 L454 920 L451 926 L451 930 L453 929 L484 958 L500 968 L524 976 L535 977 L536 978 L547 978 L548 979 L578 978 L579 977 L595 975 L600 973 L605 973 L612 975 L621 981 L615 975 L606 972 L630 960 L641 952 L646 946 L657 972 L651 953 L644 938 L639 923 L631 907 L635 905 L645 921 L655 931 L671 915 L672 916 L671 922 L669 927 L664 934 L671 926 Z M398 887 L399 886 L400 887 L399 888 Z M399 885 L400 884 L401 885 L400 886 Z M385 885 L386 884 L387 886 L386 887 Z M386 884 L387 883 L388 884 L387 885 Z M400 882 L401 881 L402 883 L401 884 Z M678 880 L679 879 L680 880 L679 881 Z M677 879 L678 878 L679 879 L678 880 Z M249 878 L253 878 L254 879 L253 888 L254 889 L255 899 L262 914 L269 935 L273 943 L280 966 L290 989 L291 993 L291 1013 L289 1016 L285 1015 L286 1012 L286 1000 L282 984 L276 970 L276 967 L273 961 L268 944 L253 911 L247 893 L247 880 Z M241 878 L245 878 L246 879 L245 881 L246 897 L251 911 L264 939 L270 956 L273 974 L274 975 L274 980 L275 981 L275 987 L276 988 L276 996 L277 997 L275 999 L273 998 L267 967 L261 947 L250 925 L250 923 L245 914 L240 901 L238 885 L239 884 L239 880 Z M612 878 L613 877 L614 878 L613 879 Z M253 878 L254 877 L255 878 L254 879 Z M877 877 L878 876 L879 877 L878 878 Z M610 877 L611 876 L613 877 L612 878 Z M602 877 L603 876 L604 877 L603 878 Z M501 877 L492 885 L490 890 L491 890 L493 886 Z M707 874 L708 873 L709 874 L708 875 Z M706 873 L707 872 L708 873 L707 874 Z M470 870 L471 869 L473 870 L472 871 Z M658 869 L659 868 L660 869 L659 870 Z M449 864 L450 863 L454 864 L453 865 Z M475 863 L476 862 L477 863 L476 864 Z M453 863 L454 862 L458 862 L459 863 L458 864 L454 864 Z M671 861 L672 860 L674 861 L673 862 Z M404 861 L405 860 L407 861 L406 862 Z M406 860 L407 859 L408 860 L407 861 Z M524 859 L517 866 L510 869 L507 872 L509 872 L518 867 L524 861 Z M595 858 L596 860 L601 861 L614 867 L625 868 L626 869 L635 869 L643 871 L650 874 L657 879 L656 876 L645 870 L634 867 L618 866 Z M581 866 L586 871 L594 874 L602 879 L609 887 L610 890 L611 889 L603 878 L604 877 L611 879 L620 884 L628 892 L627 889 L612 874 L605 869 L606 868 L637 880 L636 878 L626 873 L615 870 L612 868 L604 866 L606 868 L604 869 L591 858 L590 859 L602 870 L605 871 L611 876 L609 877 L605 875 L597 874 Z M521 856 L511 862 L505 863 L501 865 L488 876 L482 879 L468 880 L467 881 L463 881 L462 883 L465 882 L477 882 L484 880 L492 875 L501 867 L515 862 Z M800 854 L804 859 L803 871 L801 875 L795 881 L790 882 L786 879 L784 873 L786 864 L793 855 Z M677 855 L678 854 L687 855 L699 860 L705 866 L707 872 L705 873 Z M512 855 L508 856 L499 862 L488 865 L477 870 L473 870 L472 869 L479 864 L491 860 L492 858 L478 863 L475 860 L483 856 L482 855 L467 861 L464 861 L461 858 L453 860 L443 864 L441 866 L437 867 L421 876 L414 884 L407 897 L402 915 L401 944 L400 945 L399 959 L397 965 L397 988 L398 989 L398 997 L400 1005 L400 1027 L394 1052 L386 1073 L381 1113 L380 1114 L380 1120 L379 1121 L379 1141 L378 1142 L378 1148 L376 1156 L377 1192 L378 1193 L378 1200 L377 1201 L377 1208 L376 1209 L376 1216 L377 1217 L376 1218 L377 1219 L377 1212 L379 1205 L378 1154 L379 1153 L380 1139 L381 1138 L381 1120 L382 1119 L382 1113 L384 1105 L387 1077 L391 1063 L396 1051 L402 1026 L402 1007 L401 1006 L400 993 L399 992 L398 971 L399 970 L399 964 L402 951 L403 921 L404 920 L404 914 L408 899 L416 884 L425 875 L439 868 L453 867 L465 863 L475 863 L476 864 L464 872 L458 873 L446 878 L442 881 L442 883 L447 879 L454 876 L457 876 L465 873 L477 872 L488 867 L496 865 L504 861 Z M799 852 L796 852 L792 854 L785 862 L783 868 L783 876 L785 880 L789 883 L796 882 L802 876 L805 870 L806 860 L805 857 Z M453 852 L434 859 L428 863 L421 870 L419 874 L428 865 L434 861 L444 856 L451 854 Z M300 851 L303 852 L309 857 L314 868 L313 878 L308 882 L305 882 L301 880 L294 870 L293 859 L295 854 Z M298 850 L294 853 L292 857 L292 868 L297 878 L303 883 L308 884 L313 881 L316 874 L314 863 L307 853 L304 851 Z M427 846 L428 845 L429 846 L428 847 Z M509 845 L510 844 L512 845 L511 846 Z M473 837 L474 836 L476 837 L475 838 Z M805 835 L796 835 L788 839 L778 849 L771 862 L768 875 L769 887 L773 896 L779 901 L782 902 L794 901 L799 898 L808 888 L808 886 L796 898 L792 900 L784 901 L777 898 L772 891 L770 884 L770 873 L771 872 L772 864 L780 849 L789 840 L794 837 L804 836 L811 839 Z M628 835 L626 837 L617 841 L608 842 L593 847 L591 846 L599 840 L609 835 L617 834 L618 833 L627 834 Z M473 834 L475 832 L488 832 L492 833 L504 839 L510 844 L507 845 L495 841 L482 839 Z M455 833 L438 843 L433 844 L430 846 L428 845 L435 838 L443 834 L453 831 Z M289 833 L285 836 L283 840 L290 834 L299 834 L303 836 L316 848 L323 861 L326 872 L326 884 L324 890 L320 896 L313 899 L309 898 L310 900 L318 899 L323 895 L326 889 L327 881 L328 880 L327 869 L323 857 L317 847 L308 838 L302 834 L296 832 Z M809 826 L817 834 L821 850 L820 865 L816 879 L807 896 L796 907 L787 911 L777 911 L770 908 L764 902 L760 895 L758 888 L758 869 L762 856 L770 842 L784 829 L797 824 L802 824 Z M289 825 L301 824 L312 829 L325 842 L334 858 L338 873 L337 893 L333 902 L327 908 L323 910 L313 911 L304 907 L295 899 L288 889 L284 881 L278 860 L278 843 L282 831 Z M805 823 L794 823 L781 829 L767 843 L759 858 L755 875 L755 883 L756 884 L757 893 L762 903 L768 909 L776 913 L787 913 L793 911 L799 907 L807 899 L814 888 L814 886 L818 879 L822 864 L822 858 L823 857 L822 843 L817 831 L812 826 Z M290 823 L286 825 L279 833 L276 843 L276 858 L281 878 L285 887 L292 898 L302 908 L313 913 L323 912 L329 909 L334 904 L339 893 L340 889 L340 872 L337 860 L328 843 L315 829 L306 824 L299 822 Z M639 762 L640 761 L641 762 L640 763 Z M464 762 L465 761 L466 762 L465 763 Z M638 761 L639 760 L640 761 L639 762 Z M607 761 L608 760 L609 761 L608 762 Z M496 761 L497 760 L498 761 L497 762 Z M466 761 L467 760 L468 761 L467 762 Z M636 760 L637 759 L638 760 L637 761 Z M494 760 L495 759 L496 760 L495 761 Z M467 760 L468 759 L470 760 L469 761 Z M634 759 L635 758 L637 759 L636 760 Z M639 758 L640 757 L641 758 L640 759 Z M464 758 L465 757 L467 758 L466 759 Z M466 757 L467 756 L468 757 L467 758 Z M469 759 L477 754 L486 754 L493 757 L495 759 L494 760 L488 758 L475 758 L471 760 Z M355 943 L366 919 L375 904 L379 894 L385 886 L386 887 L385 891 L381 898 L376 914 L368 928 L365 938 L365 944 L363 952 L363 964 L362 965 L363 975 L364 974 L364 959 L365 958 L366 945 L369 941 L373 929 L372 929 L370 933 L369 930 L379 911 L382 900 L390 884 L392 876 L401 867 L413 858 L430 847 L442 843 L455 833 L463 837 L497 843 L516 849 L528 858 L536 862 L544 864 L561 864 L575 859 L585 851 L611 843 L637 839 L645 836 L650 832 L653 832 L656 836 L658 835 L681 852 L680 853 L675 852 L657 840 L661 845 L668 850 L677 854 L675 856 L695 868 L698 871 L713 879 L728 895 L740 916 L739 911 L730 895 L722 885 L710 874 L703 861 L695 856 L682 851 L653 830 L658 822 L660 815 L660 796 L659 795 L658 787 L652 772 L640 759 L642 758 L650 762 L678 781 L694 789 L712 793 L712 792 L693 787 L681 781 L658 765 L642 756 L628 752 L615 753 L606 759 L602 764 L595 777 L595 780 L600 770 L608 763 L614 760 L613 759 L609 761 L608 760 L611 757 L619 754 L627 754 L635 758 L634 759 L630 758 L630 760 L635 761 L640 764 L649 773 L656 787 L658 795 L658 801 L659 802 L659 810 L655 824 L647 833 L641 836 L627 839 L626 838 L630 835 L632 836 L633 835 L625 832 L610 833 L596 840 L578 855 L571 859 L561 862 L544 862 L536 860 L528 856 L508 840 L496 833 L486 830 L477 830 L470 832 L469 833 L474 836 L473 837 L469 837 L456 832 L449 825 L445 815 L445 799 L448 788 L454 776 L464 765 L471 761 L478 759 L489 760 L498 764 L504 770 L509 779 L506 770 L499 760 L489 753 L486 752 L475 752 L462 756 L449 763 L429 777 L412 786 L399 790 L392 790 L391 791 L400 791 L416 786 L427 780 L452 763 L462 758 L465 759 L457 767 L452 774 L445 789 L443 797 L443 815 L447 825 L451 830 L439 834 L434 837 L417 854 L412 855 L396 863 L375 884 L370 891 L365 901 L366 902 L373 889 L386 874 L399 863 L403 861 L405 862 L388 878 L377 894 L375 900 L363 923 L362 922 L363 915 L368 904 L366 905 L362 913 L360 927 Z M447 740 L448 739 L449 740 L448 741 Z M390 734 L391 733 L392 734 L391 735 Z M393 733 L395 732 L402 735 L410 736 L411 737 L431 737 L434 739 L446 740 L447 741 L438 744 L419 744 L403 740 Z M714 730 L715 729 L717 730 L716 731 Z M716 729 L717 728 L719 729 L718 730 Z M718 728 L719 727 L720 728 L719 729 Z M719 727 L720 726 L721 727 L720 728 Z M720 726 L721 725 L722 726 L721 727 Z M643 725 L644 724 L645 725 L644 726 Z M581 714 L579 728 L578 729 L578 740 L577 741 L577 766 L578 767 L579 787 L584 806 L582 793 L581 792 L581 786 L580 785 L579 757 L578 756 L578 751 L579 750 L579 731 L580 730 L580 722 L582 715 Z M518 704 L522 719 L522 725 L524 732 L523 734 L524 735 L524 743 L525 744 L524 779 L523 780 L523 786 L521 791 L521 795 L518 804 L519 804 L525 780 L525 772 L526 771 L526 742 L525 741 L525 732 L524 731 L522 714 L520 706 Z M358 694 L368 712 L380 724 L389 729 L391 731 L390 734 L381 729 L369 717 L362 707 L357 697 Z M692 694 L693 693 L696 694 L695 695 Z M357 691 L358 692 L357 695 L356 694 Z M871 690 L872 689 L873 690 L872 691 Z M355 685 L357 689 L356 692 L354 689 Z M628 684 L629 685 L629 696 L632 706 L636 714 L644 724 L643 725 L635 721 L627 712 L626 708 L626 691 Z M744 684 L745 683 L746 685 L745 686 Z M826 695 L818 687 L810 683 L802 682 L795 684 L790 687 L784 693 L780 699 L773 714 L769 727 L761 743 L755 752 L743 764 L734 770 L725 774 L717 776 L712 776 L711 777 L706 777 L707 778 L713 778 L729 774 L743 766 L752 758 L763 743 L770 729 L777 709 L783 697 L790 689 L800 684 L811 685 L817 688 L825 696 L829 704 Z M750 682 L751 681 L752 682 L751 683 Z M277 693 L272 702 L270 710 L271 710 L272 705 L276 697 L285 687 L296 683 L304 684 L310 687 L319 697 L323 705 L331 729 L338 743 L344 752 L356 764 L363 769 L376 775 L384 777 L390 777 L389 776 L381 775 L366 769 L357 763 L347 753 L341 745 L335 734 L335 732 L330 722 L327 711 L320 696 L310 685 L303 682 L293 682 L284 686 Z M237 678 L239 681 L240 697 L241 698 L241 705 L242 706 L243 741 L244 742 L240 801 L239 802 L239 810 L238 811 L236 831 L231 852 L224 868 L219 874 L218 873 L218 869 L219 868 L220 858 L221 857 L223 842 L225 836 L227 818 L228 817 L228 810 L229 809 L229 802 L230 801 L230 792 L231 791 L232 764 L233 763 L233 690 L232 688 Z M473 677 L476 682 L480 695 L480 699 L481 700 L481 716 L477 722 L469 730 L461 735 L451 738 L438 738 L434 736 L435 735 L441 734 L451 729 L465 715 L472 700 L472 695 L473 694 L472 678 Z M697 676 L704 677 L708 683 L707 689 L703 693 L699 695 L697 695 L690 688 L691 680 Z M422 675 L425 675 L428 680 L429 687 L426 691 L423 690 L419 685 L419 678 Z M702 675 L695 676 L690 680 L688 685 L690 690 L693 693 L692 694 L686 688 L682 691 L682 696 L687 702 L694 705 L699 705 L706 702 L711 696 L711 691 L709 688 L709 682 Z M472 674 L473 675 L472 678 L471 677 Z M470 673 L471 672 L472 674 L471 675 Z M391 671 L399 670 L404 675 L404 681 L400 686 L392 686 L389 683 L388 676 Z M862 669 L870 687 L868 689 L868 695 L867 696 L866 795 L867 796 L867 808 L868 809 L868 819 L869 820 L871 840 L872 841 L872 846 L878 872 L878 876 L877 877 L872 872 L865 856 L862 843 L862 838 L861 837 L859 815 L858 814 L858 803 L857 802 L855 742 L856 741 L856 726 L857 725 L858 701 L859 700 L860 673 Z M469 670 L470 669 L471 671 L470 672 Z M388 670 L389 669 L390 670 L389 671 Z M389 669 L390 668 L392 669 L391 670 Z M874 668 L875 667 L876 668 L875 669 Z M864 667 L872 668 L873 669 L873 687 L872 688 L863 669 Z M690 667 L700 667 L706 669 L714 676 L718 685 L718 694 L714 703 L706 710 L696 713 L689 712 L681 707 L675 700 L673 695 L673 685 L676 677 L685 669 Z M391 668 L392 667 L394 668 L393 669 Z M862 667 L863 666 L864 667 L863 668 Z M509 677 L509 678 L519 672 L530 669 L537 669 L538 668 L543 668 L544 669 L572 669 L583 672 L589 675 L595 680 L588 673 L582 670 L569 667 L531 667 L518 671 Z M296 670 L297 671 L301 669 L314 669 L325 675 L334 686 L349 719 L358 732 L368 742 L380 750 L393 755 L397 755 L398 756 L399 755 L388 752 L376 746 L369 741 L360 732 L352 721 L338 690 L331 679 L325 673 L316 668 L312 667 L305 667 Z M810 674 L804 669 L796 666 L788 666 L778 671 L769 682 L751 717 L739 734 L725 746 L713 752 L702 755 L696 755 L695 756 L704 756 L712 754 L723 749 L734 741 L742 733 L748 725 L769 685 L776 675 L782 670 L793 667 L803 670 L809 675 Z M690 665 L681 669 L674 677 L671 685 L671 695 L675 705 L681 711 L688 714 L700 714 L709 710 L716 703 L720 693 L720 685 L716 676 L709 669 L700 665 Z M235 664 L236 665 L237 674 L229 691 L228 690 L228 682 L229 681 L230 665 L231 664 Z M401 663 L408 663 L415 665 L423 672 L417 679 L417 683 L419 688 L418 689 L415 686 L413 686 L407 693 L401 695 L395 695 L389 692 L388 693 L389 696 L396 702 L402 704 L408 704 L415 701 L420 696 L421 693 L418 690 L419 688 L421 690 L427 692 L427 695 L425 699 L419 706 L414 709 L407 711 L401 711 L400 709 L392 706 L383 699 L380 691 L381 678 L388 670 L389 672 L386 678 L388 684 L394 688 L397 688 L403 685 L405 682 L405 675 L400 669 L393 667 Z M398 661 L389 665 L382 672 L378 682 L379 695 L382 701 L392 710 L402 713 L411 712 L419 708 L427 699 L430 690 L430 681 L425 671 L417 664 L409 661 Z M291 660 L292 659 L293 660 L292 661 Z M745 648 L746 647 L748 648 L747 649 Z M866 647 L867 646 L868 647 L867 648 Z M744 647 L745 646 L746 647 L745 648 Z M875 634 L876 635 L875 638 L868 647 L867 645 Z M875 634 L876 633 L877 634 L876 635 Z M876 633 L877 632 L878 633 L877 634 Z M877 632 L878 631 L879 632 L878 633 Z M749 651 L750 652 L750 670 L747 682 L746 683 L745 682 L745 678 L740 696 L733 709 L721 722 L713 728 L703 733 L691 736 L673 736 L672 735 L668 735 L661 733 L650 727 L640 717 L636 711 L631 697 L631 679 L634 669 L640 658 L653 645 L662 639 L682 631 L703 630 L723 635 L741 645 L743 647 L744 651 Z M348 651 L349 650 L359 654 L359 653 L352 650 L373 634 L390 628 L408 627 L409 628 L423 630 L431 633 L442 639 L450 645 L464 662 L468 671 L471 682 L471 696 L468 706 L463 715 L455 724 L441 732 L430 735 L411 735 L396 731 L386 726 L379 721 L368 709 L361 697 L355 678 L354 678 L355 685 L354 686 L353 685 L352 677 L350 672 L350 667 L349 666 Z M227 627 L228 626 L229 627 L228 628 Z M226 626 L227 625 L228 626 L227 627 Z M548 574 L553 576 L559 582 L561 587 L561 593 L558 599 L553 603 L548 605 L544 605 L538 603 L532 597 L531 594 L531 585 L533 581 L540 575 Z M542 573 L539 574 L533 579 L531 582 L529 591 L532 599 L537 604 L542 606 L550 606 L556 603 L559 600 L562 593 L562 587 L560 581 L554 575 L550 573 Z M883 557 L884 556 L885 557 L884 558 Z M539 555 L553 555 L559 557 L567 562 L576 573 L580 585 L579 600 L574 610 L567 617 L561 621 L552 624 L540 624 L527 619 L516 608 L511 595 L512 580 L517 570 L527 560 Z M224 556 L225 555 L226 556 L225 557 Z M817 553 L817 565 L816 566 L816 574 L815 575 L815 582 L813 588 L813 593 L802 640 L797 655 L796 656 L787 656 L780 658 L772 663 L771 665 L777 661 L785 658 L793 657 L801 659 L808 663 L817 672 L821 678 L826 690 L827 690 L825 683 L818 671 L808 661 L798 656 L804 639 L811 611 L814 592 L815 591 L817 571 L818 570 L818 553 Z M542 553 L531 556 L526 559 L516 569 L510 583 L510 596 L514 607 L522 617 L534 624 L547 626 L548 625 L554 625 L564 621 L574 612 L579 603 L581 596 L581 582 L577 572 L568 561 L562 557 L554 554 Z M533 546 L537 546 L538 545 L554 545 L567 550 L575 556 L582 564 L588 577 L589 581 L589 599 L583 614 L569 628 L557 633 L539 634 L531 632 L521 627 L511 618 L503 604 L501 596 L501 584 L504 573 L507 567 L517 555 L524 550 Z M538 543 L531 545 L521 550 L507 564 L500 580 L500 585 L499 586 L500 600 L508 617 L521 629 L529 633 L540 636 L557 635 L572 628 L579 622 L585 614 L588 608 L591 597 L590 578 L583 563 L570 550 L563 546 L554 543 Z M236 541 L238 546 L238 555 L239 556 L240 595 L241 596 L241 645 L240 646 L235 639 L230 628 L229 598 L228 597 L228 557 L225 555 Z M868 540 L883 556 L882 557 L879 556 L879 562 L878 563 L878 580 L877 581 L877 595 L876 596 L876 610 L875 611 L874 633 L867 642 L862 651 L861 650 L861 631 L862 630 L864 564 L865 563 L866 545 Z M796 541 L787 561 L778 574 L766 587 L753 597 L741 603 L734 605 L722 606 L721 607 L691 608 L668 614 L656 620 L646 627 L631 642 L621 657 L616 670 L614 678 L614 694 L619 711 L622 717 L629 727 L636 734 L652 744 L663 748 L677 750 L678 751 L695 750 L696 749 L704 748 L713 744 L721 738 L701 747 L690 748 L689 749 L685 749 L684 748 L701 742 L719 731 L734 716 L743 702 L749 689 L758 676 L768 665 L768 664 L762 669 L752 682 L751 678 L752 677 L754 662 L753 661 L752 649 L738 639 L718 630 L704 628 L703 627 L688 627 L669 632 L659 637 L647 646 L640 654 L631 669 L625 688 L624 707 L629 718 L635 723 L647 729 L650 729 L664 736 L672 737 L673 738 L691 738 L703 735 L713 730 L715 731 L707 737 L689 745 L680 746 L679 747 L667 747 L654 743 L641 736 L630 726 L628 720 L621 711 L616 697 L615 683 L620 663 L625 653 L633 642 L646 629 L663 618 L676 613 L689 610 L716 609 L717 608 L732 607 L745 603 L756 597 L766 589 L780 574 L792 555 L796 544 Z M310 527 L310 530 L314 541 L323 557 L339 574 L351 582 L373 590 L384 591 L385 592 L393 592 L394 593 L405 593 L406 594 L412 594 L413 595 L418 595 L431 598 L437 601 L442 602 L456 609 L473 621 L489 637 L495 645 L502 658 L506 675 L506 686 L505 687 L504 696 L506 690 L516 682 L525 678 L537 675 L560 675 L573 678 L588 685 L596 692 L590 685 L577 678 L557 673 L540 673 L539 674 L530 675 L517 680 L508 687 L507 686 L506 667 L503 657 L498 647 L490 636 L473 619 L452 605 L430 596 L417 593 L412 593 L411 592 L392 591 L391 590 L383 590 L382 589 L372 588 L359 584 L347 578 L340 573 L324 556 L314 538 L311 527 Z M887 518 L888 519 L887 538 L886 539 L886 549 L884 556 L882 552 L883 532 L884 531 L885 522 Z M794 519 L789 535 L778 555 L764 570 L750 580 L739 585 L723 589 L687 592 L686 593 L681 593 L668 596 L654 601 L642 607 L626 619 L613 634 L606 645 L602 654 L598 668 L598 675 L597 676 L597 685 L598 686 L599 696 L600 696 L599 693 L599 671 L603 655 L614 635 L632 616 L647 606 L667 598 L679 595 L684 595 L685 594 L702 593 L703 592 L714 592 L715 591 L727 590 L741 586 L751 581 L764 572 L777 559 L789 539 L793 528 Z M221 517 L223 519 L224 530 L225 531 L225 553 L223 556 L222 555 L221 526 L220 525 L220 518 Z M848 514 L868 515 L869 516 L885 516 L886 517 L884 520 L882 528 L881 549 L880 550 L868 539 L867 539 L865 543 L865 547 L864 548 L863 569 L862 570 L862 587 L861 588 L859 654 L861 654 L867 650 L873 644 L878 635 L879 636 L879 643 L878 644 L878 652 L877 653 L876 665 L873 667 L860 665 L859 667 L856 715 L855 716 L855 727 L854 728 L854 739 L853 740 L853 750 L852 751 L852 762 L851 763 L851 773 L850 774 L850 784 L849 785 L849 794 L848 795 L846 825 L845 826 L845 834 L844 835 L844 842 L843 843 L842 853 L838 864 L838 866 L841 862 L845 847 L847 824 L848 823 L848 814 L849 813 L850 793 L851 792 L852 770 L853 769 L854 770 L854 783 L855 784 L856 812 L857 813 L857 821 L858 822 L860 842 L866 864 L871 873 L877 879 L874 881 L854 881 L848 876 L842 873 L829 870 L830 858 L831 857 L831 848 L832 847 L833 827 L834 826 L836 785 L837 784 L837 768 L838 767 L838 752 L839 751 L841 691 L842 690 L842 669 L843 668 L843 645 L844 644 L844 620 L845 619 L847 515 Z M257 511 L258 512 L257 523 L258 524 L258 614 L259 615 L260 726 L261 727 L261 753 L262 754 L262 774 L263 775 L264 807 L265 808 L266 833 L267 834 L267 844 L268 845 L268 853 L269 854 L270 864 L260 868 L253 876 L232 877 L231 876 L221 876 L220 875 L228 864 L235 844 L235 840 L238 829 L239 817 L240 816 L242 789 L243 788 L244 764 L245 763 L246 764 L246 778 L247 779 L247 791 L248 792 L248 804 L249 805 L250 823 L251 824 L253 841 L257 851 L257 848 L254 839 L253 827 L252 826 L252 818 L251 817 L251 807 L250 806 L250 796 L249 795 L249 781 L248 780 L248 769 L247 768 L247 756 L246 755 L243 699 L242 698 L240 676 L237 667 L237 663 L241 662 L242 660 L241 661 L237 661 L234 663 L229 663 L227 659 L227 652 L226 651 L226 630 L227 629 L240 649 L242 658 L243 656 L243 605 L242 604 L242 575 L241 574 L240 549 L237 538 L228 549 L227 548 L226 524 L225 523 L225 519 L223 517 L226 515 L252 513 Z M802 495 L801 496 L805 503 L808 512 L809 521 L810 522 L810 529 L811 530 L811 543 L810 544 L810 552 L809 553 L808 564 L803 580 L803 583 L792 612 L780 635 L770 649 L775 645 L781 636 L795 609 L806 579 L810 563 L811 551 L812 550 L812 525 L811 524 L811 518 L809 510 Z M300 484 L296 491 L293 502 L293 521 L296 534 L302 550 L309 563 L318 576 L335 592 L353 602 L370 606 L398 607 L399 608 L418 610 L431 614 L450 624 L458 630 L473 645 L480 655 L485 666 L488 677 L488 697 L484 709 L483 708 L483 702 L480 689 L473 671 L464 656 L450 641 L440 634 L432 630 L411 624 L393 624 L392 625 L384 626 L368 633 L349 647 L344 647 L340 645 L340 646 L345 649 L345 664 L348 677 L347 679 L320 644 L307 618 L293 582 L293 579 L288 564 L286 547 L285 546 L285 519 L286 518 L286 513 L289 501 L288 501 L286 506 L285 514 L284 515 L284 522 L283 523 L283 539 L281 543 L281 548 L280 549 L280 574 L281 575 L281 585 L282 586 L282 593 L283 594 L286 618 L287 619 L290 636 L296 654 L286 663 L278 674 L272 687 L271 692 L272 692 L276 681 L281 672 L289 664 L298 659 L314 658 L323 662 L331 669 L325 662 L316 657 L303 656 L294 660 L292 659 L298 655 L298 653 L296 650 L290 629 L287 609 L285 603 L285 597 L284 596 L284 589 L283 588 L283 581 L282 580 L282 564 L281 563 L282 545 L283 544 L284 545 L285 557 L289 574 L296 595 L301 605 L305 617 L318 643 L351 687 L360 707 L373 724 L381 731 L395 739 L414 745 L428 746 L429 747 L416 750 L406 750 L406 751 L421 751 L422 750 L430 749 L453 741 L469 732 L479 722 L486 710 L490 695 L490 680 L489 679 L488 670 L486 664 L477 648 L467 636 L458 628 L448 621 L435 614 L424 610 L411 607 L391 606 L390 605 L376 605 L375 604 L368 604 L355 601 L342 595 L331 587 L320 576 L310 562 L301 544 L298 535 L298 532 L295 524 L294 505 L295 504 L296 495 L301 484 Z M750 420 L751 421 L768 423 L791 429 L808 438 L820 451 L826 466 L827 476 L828 477 L828 469 L825 458 L819 447 L809 437 L797 430 L783 425 L775 424 L770 422 L765 422 L764 421 Z M362 418 L360 419 L345 420 L330 424 L326 424 L315 428 L302 435 L293 443 L287 452 L282 465 L280 476 L282 474 L282 470 L288 453 L295 443 L303 436 L324 426 L336 423 L346 422 L347 421 L360 420 Z M823 424 L832 432 L840 446 L844 461 L845 480 L846 481 L846 518 L845 519 L845 556 L844 557 L844 593 L843 594 L841 673 L840 674 L840 694 L839 695 L839 715 L838 716 L838 733 L837 734 L837 752 L836 753 L834 802 L833 803 L833 816 L832 817 L832 828 L831 829 L828 866 L827 867 L827 873 L826 874 L823 896 L814 931 L805 956 L792 982 L776 1006 L758 1026 L757 1023 L761 1014 L761 993 L760 992 L757 973 L756 973 L757 985 L759 992 L759 999 L760 1000 L759 1015 L752 1033 L736 1047 L735 1044 L739 1031 L739 1013 L738 1012 L739 950 L738 949 L737 939 L733 927 L730 922 L730 920 L717 898 L710 889 L697 876 L679 865 L670 856 L652 848 L655 851 L657 851 L669 857 L672 860 L670 861 L658 858 L651 858 L651 859 L666 861 L682 868 L697 878 L708 889 L725 914 L733 931 L737 948 L737 956 L738 957 L737 983 L736 984 L737 1032 L732 1050 L729 1053 L726 1043 L726 1026 L728 1025 L729 1022 L731 1004 L732 1003 L731 989 L728 979 L717 954 L714 933 L705 914 L700 906 L699 902 L700 901 L707 909 L719 931 L725 946 L726 952 L731 966 L731 969 L733 973 L734 972 L726 944 L712 914 L700 898 L679 877 L665 871 L659 866 L647 859 L639 856 L637 854 L636 855 L640 858 L659 868 L656 869 L638 863 L622 860 L624 862 L630 864 L645 867 L657 871 L662 871 L670 875 L679 883 L686 887 L693 894 L696 899 L697 903 L711 929 L714 941 L715 953 L727 981 L730 993 L730 1007 L729 1008 L729 1015 L726 1026 L725 1025 L724 1014 L720 1002 L713 970 L708 959 L703 942 L696 926 L690 907 L685 897 L681 893 L688 906 L694 925 L701 941 L707 961 L712 972 L716 988 L716 992 L723 1017 L725 1040 L724 1041 L724 1048 L721 1056 L716 1039 L714 1013 L711 1000 L709 979 L705 965 L705 961 L702 955 L706 976 L707 977 L707 982 L708 983 L709 998 L710 999 L710 1004 L713 1017 L713 1027 L714 1028 L715 1042 L721 1061 L723 1093 L727 1105 L730 1126 L728 1128 L727 1124 L725 1123 L725 1130 L723 1135 L721 1129 L720 1108 L718 1101 L715 1069 L712 1056 L710 1053 L708 1044 L705 1037 L704 1027 L703 1026 L704 992 L703 991 L702 980 L694 949 L685 926 L682 906 L679 895 L675 888 L665 878 L658 874 L660 877 L665 880 L673 888 L677 894 L676 896 L672 893 L666 892 L654 896 L651 896 L648 898 L645 898 L638 901 L635 901 L631 903 L611 908 L596 910 L595 911 L589 911 L588 912 L571 913 L570 914 L541 914 L540 913 L524 912 L523 911 L512 910 L493 905 L489 905 L448 893 L444 893 L443 892 L436 892 L430 896 L428 900 L428 908 L417 952 L417 994 L418 995 L418 1002 L405 1039 L405 1042 L402 1049 L398 1066 L397 1083 L396 1084 L396 1092 L395 1093 L395 1105 L394 1106 L395 1150 L394 1151 L394 1160 L393 1161 L394 1162 L395 1158 L397 1163 L396 1179 L395 1180 L396 1208 L391 1223 L390 1222 L390 1209 L387 1196 L387 1185 L388 1182 L387 1181 L387 1172 L386 1171 L386 1162 L385 1161 L385 1152 L386 1151 L386 1143 L387 1142 L387 1135 L388 1134 L388 1126 L386 1124 L386 1122 L387 1121 L387 1116 L391 1100 L389 1102 L385 1118 L386 1135 L385 1136 L385 1143 L384 1144 L384 1169 L386 1177 L386 1189 L385 1190 L385 1197 L384 1198 L383 1208 L379 1218 L378 1239 L374 1253 L373 1265 L372 1266 L373 1289 L372 1290 L372 1301 L371 1302 L370 1360 L368 1363 L367 1362 L366 1342 L365 1343 L364 1342 L364 1337 L367 1325 L367 1313 L366 1312 L366 1307 L364 1305 L364 1277 L365 1276 L365 1266 L366 1265 L366 1250 L372 1230 L372 1209 L369 1198 L370 1194 L371 1163 L370 1171 L369 1172 L369 1180 L368 1181 L368 1198 L365 1205 L364 1204 L363 1176 L370 1155 L373 1129 L374 1128 L375 1100 L381 1083 L382 1072 L383 1071 L383 1063 L384 1062 L384 1053 L392 1021 L395 988 L393 990 L389 1029 L384 1046 L382 1041 L382 1017 L389 991 L389 969 L394 952 L394 946 L395 945 L394 944 L392 948 L392 952 L387 970 L387 992 L380 1019 L380 1039 L383 1050 L382 1065 L381 1066 L380 1080 L377 1089 L376 1088 L376 1066 L374 1072 L374 1094 L373 1095 L373 1103 L372 1104 L372 1129 L370 1137 L369 1151 L366 1161 L364 1158 L364 1141 L365 1140 L365 1126 L368 1115 L368 1085 L367 1084 L367 1076 L371 1062 L372 1034 L373 1033 L373 1027 L374 1026 L377 1003 L382 988 L382 973 L383 972 L384 962 L387 953 L387 949 L392 929 L401 911 L396 917 L389 933 L386 950 L384 954 L384 958 L381 968 L380 989 L374 1008 L371 1034 L369 1039 L366 1026 L366 994 L367 993 L368 981 L369 980 L372 960 L385 930 L393 903 L397 894 L405 881 L404 880 L402 882 L401 881 L402 878 L418 862 L443 849 L446 846 L426 855 L414 863 L405 871 L397 885 L394 898 L392 901 L384 928 L373 952 L368 970 L365 995 L364 996 L364 1003 L361 1011 L361 1013 L363 1012 L364 1013 L364 1023 L365 1024 L365 1031 L367 1038 L366 1042 L353 1032 L332 1011 L317 992 L302 968 L290 942 L283 921 L277 897 L274 877 L273 876 L271 855 L270 854 L270 846 L269 845 L269 836 L268 835 L266 796 L265 795 L265 778 L264 777 L263 732 L262 731 L262 686 L261 685 L261 626 L260 625 L259 508 L260 507 L261 477 L267 451 L275 436 L286 425 L293 421 L305 417 L313 416 L318 414 L335 412 L336 411 L350 410 L351 409 L380 407 L381 406 L393 406 L394 405 L428 404 L429 403 L498 402 L499 401 L589 401 L590 402 L636 402 L637 403 L685 404 L686 405 L703 405 L704 406 L730 407 L731 408 L741 408 L742 409 L750 409 L751 410 L758 410 L766 412 L773 412 L774 413 L803 418 L807 420 Z M253 283 L254 296 L256 301 L257 300 L255 293 L255 281 L257 275 L262 269 L269 265 L283 261 L302 259 L303 258 L311 258 L312 257 L320 257 L321 256 L355 254 L356 253 L370 253 L371 252 L430 250 L431 249 L460 249 L461 248 L601 248 L602 249 L661 250 L662 251 L684 251 L685 252 L700 252 L701 253 L753 255 L754 256 L790 258 L791 259 L809 260 L810 261 L818 261 L819 262 L839 264 L855 268 L864 275 L867 283 L867 294 L865 301 L866 301 L868 295 L868 280 L865 274 L856 267 L836 262 L815 260 L814 259 L806 259 L805 258 L797 258 L796 257 L786 257 L785 256 L776 256 L775 255 L762 255 L761 254 L747 254 L746 253 L733 253 L732 252 L679 250 L678 249 L656 249 L655 248 L630 248 L629 247 L594 247 L593 246 L466 246 L465 247 L435 247 L434 248 L410 248 L409 249 L374 250 L373 251 L359 251 L358 252 L347 252 L346 253 L315 255 L314 256 L306 256 L305 257 L286 259 L270 263 L264 266 L258 271 L254 278 L254 282 Z M848 101 L849 100 L850 101 L849 102 Z M257 96 L258 99 L255 104 L255 106 L247 118 L246 117 L246 105 L253 98 Z M257 96 L258 95 L259 96 L258 97 Z M869 87 L876 93 L875 123 L874 124 L867 114 L864 103 L865 93 Z M855 82 L860 84 L865 89 L863 94 L863 107 L867 117 L875 125 L874 128 L869 125 L858 114 L851 104 L851 90 L853 84 Z M228 88 L237 73 L243 67 L248 64 L249 66 L247 71 L247 76 L245 83 L245 100 L244 101 L245 103 L244 105 L244 119 L245 120 L244 122 L244 129 L245 131 L244 133 L245 134 L246 201 L247 202 L247 220 L248 221 L248 237 L249 238 L249 252 L250 254 L262 249 L275 247 L276 246 L281 246 L282 245 L320 241 L321 240 L341 239 L342 238 L351 238 L352 237 L365 237 L366 236 L380 236 L381 235 L415 234 L416 233 L439 233 L440 232 L470 232 L471 231 L601 231 L602 232 L634 232 L635 233 L660 233 L661 234 L701 235 L702 236 L715 236 L716 237 L729 237 L730 238 L744 238 L745 239 L781 241 L782 242 L818 245 L819 246 L826 246 L827 247 L852 250 L870 256 L871 255 L872 229 L873 228 L873 210 L874 209 L874 191 L875 190 L875 167 L876 166 L876 140 L877 139 L877 79 L874 69 L875 67 L888 78 L893 85 L897 94 L899 102 L899 110 L900 111 L900 149 L899 150 L899 166 L898 167 L895 211 L894 212 L891 243 L890 244 L890 250 L889 251 L885 280 L884 281 L880 305 L878 310 L878 314 L874 330 L872 334 L871 341 L857 380 L850 394 L839 411 L826 424 L816 420 L792 414 L788 414 L777 411 L757 409 L756 408 L741 407 L740 406 L700 404 L699 403 L683 403 L682 402 L661 402 L660 401 L579 400 L578 399 L506 399 L505 400 L462 400 L461 401 L434 401 L433 402 L398 403 L397 404 L373 405 L372 406 L362 406 L361 407 L338 409 L337 410 L315 413 L292 420 L282 408 L272 392 L258 360 L248 328 L242 304 L242 300 L240 295 L237 276 L236 275 L236 270 L235 269 L233 252 L231 245 L229 222 L228 221 L226 192 L225 191 L225 179 L224 178 L224 162 L223 161 L223 114 L224 113 L225 98 Z M248 64 L249 63 L250 64 L249 65 Z M866 62 L869 63 L872 66 L874 72 L875 84 L876 85 L876 90 L875 91 L869 85 L870 81 L869 80 L869 75 L865 65 Z M864 62 L865 61 L866 62 L865 63 Z M840 51 L852 55 L862 60 L868 78 L868 84 L866 87 L854 79 L839 53 Z M300 51 L301 50 L302 51 L301 52 Z M301 50 L302 49 L303 50 L302 51 Z M284 47 L285 48 L280 55 L268 80 L263 88 L247 102 L246 101 L247 81 L248 80 L248 74 L251 62 L256 58 L264 54 Z M819 46 L823 46 L834 49 L839 55 L845 68 L852 78 L853 82 L850 87 L849 100 L848 101 L834 80 L818 48 Z M809 44 L813 44 L816 46 L819 54 L838 90 L856 114 L866 124 L873 129 L871 131 L864 131 L849 124 L841 118 L828 105 L822 97 L812 79 L807 65 L806 51 Z M311 43 L313 46 L313 61 L312 62 L311 70 L306 84 L294 105 L280 120 L272 126 L262 131 L258 131 L257 132 L249 131 L248 130 L254 127 L270 110 L281 93 L296 61 Z M302 43 L303 45 L300 48 L292 65 L292 67 L286 78 L286 80 L276 98 L264 115 L253 126 L247 130 L246 129 L246 122 L256 108 L259 99 L265 87 L270 80 L283 53 L286 49 L286 47 L290 45 Z M302 43 L303 42 L304 43 L303 44 Z M310 41 L311 42 L303 50 L302 48 L308 41 Z M246 132 L247 131 L251 133 L259 133 L265 131 L281 121 L293 109 L303 94 L313 69 L314 60 L315 59 L315 47 L312 41 L319 39 L326 39 L327 38 L350 36 L351 35 L360 35 L361 34 L371 34 L372 33 L402 32 L403 31 L425 31 L426 30 L461 30 L462 29 L580 29 L581 30 L633 30 L634 31 L669 31 L670 32 L714 33 L715 34 L729 34 L730 35 L764 37 L765 38 L773 38 L774 39 L802 42 L807 44 L805 47 L804 58 L809 76 L814 87 L826 105 L840 119 L850 126 L864 132 L872 132 L874 130 L875 131 L874 177 L873 178 L872 217 L871 218 L871 232 L870 233 L869 253 L868 254 L860 250 L852 248 L847 248 L846 247 L841 247 L840 246 L819 244 L818 243 L810 243 L809 242 L801 242 L800 241 L770 239 L769 238 L717 235 L716 234 L701 234 L700 233 L635 231 L634 230 L602 230 L601 229 L471 229 L470 230 L439 230 L438 231 L416 231 L415 232 L380 233 L379 234 L353 235 L352 236 L331 237 L330 238 L322 238 L321 239 L289 242 L288 243 L282 243 L281 244 L266 246 L252 251 L250 243 L249 210 L248 209 Z M841 49 L813 42 L781 38 L780 37 L763 36 L762 35 L754 35 L753 34 L742 34 L741 33 L712 32 L711 31 L691 31 L690 30 L625 29 L624 28 L560 28 L559 27 L478 27 L477 28 L476 27 L475 28 L431 28 L430 29 L389 30 L388 31 L362 32 L361 33 L352 33 L351 34 L342 34 L341 35 L320 37 L319 38 L298 41 L271 49 L256 56 L244 64 L234 74 L225 91 L223 99 L223 104 L222 105 L222 115 L221 116 L221 156 L222 157 L222 175 L223 176 L225 210 L226 211 L228 236 L229 237 L229 243 L230 244 L230 250 L231 251 L234 274 L235 275 L238 294 L240 299 L240 303 L247 331 L257 362 L263 377 L273 397 L290 421 L280 428 L273 436 L264 454 L260 471 L260 477 L259 478 L258 508 L257 509 L249 509 L248 510 L221 512 L218 514 L219 538 L220 539 L220 558 L221 560 L223 560 L225 558 L226 559 L226 593 L227 594 L227 616 L228 617 L228 622 L227 623 L224 622 L224 648 L225 649 L225 659 L228 666 L227 667 L226 697 L228 697 L230 695 L232 700 L232 742 L231 743 L230 780 L229 781 L229 792 L228 793 L226 818 L225 819 L222 843 L221 844 L215 877 L216 878 L230 878 L237 880 L237 897 L243 914 L249 925 L249 927 L258 944 L260 952 L262 955 L268 981 L268 986 L271 995 L271 999 L272 1001 L278 999 L278 989 L276 982 L276 978 L277 977 L283 993 L283 998 L284 999 L284 1013 L283 1017 L284 1018 L291 1018 L293 1012 L293 1005 L296 1003 L294 993 L292 991 L291 986 L283 969 L273 938 L271 935 L264 914 L259 905 L255 891 L255 883 L258 873 L263 868 L269 867 L271 869 L272 881 L273 882 L276 901 L280 917 L283 924 L283 927 L292 951 L303 973 L318 996 L337 1019 L355 1036 L370 1047 L369 1062 L365 1077 L365 1084 L366 1085 L366 1116 L363 1127 L363 1141 L362 1142 L363 1169 L362 1170 L361 1184 L362 1185 L363 1211 L364 1212 L368 1203 L370 1208 L370 1231 L366 1242 L365 1251 L364 1252 L364 1266 L363 1267 L363 1279 L362 1280 L362 1310 L363 1313 L365 1314 L365 1326 L362 1339 L362 1347 L365 1351 L365 1362 L369 1369 L369 1385 L372 1391 L374 1391 L376 1389 L377 1381 L378 1380 L379 1381 L380 1389 L383 1391 L386 1387 L388 1371 L389 1370 L392 1376 L396 1373 L401 1356 L401 1345 L402 1344 L407 1351 L409 1351 L411 1348 L410 1332 L401 1315 L401 1303 L403 1296 L403 1284 L405 1280 L407 1284 L410 1286 L412 1280 L413 1281 L413 1285 L415 1287 L418 1284 L418 1280 L422 1268 L422 1256 L423 1255 L423 1249 L426 1237 L427 1218 L428 1217 L429 1220 L430 1220 L433 1213 L433 1208 L435 1202 L435 1193 L438 1186 L440 1170 L443 1158 L443 1149 L447 1138 L447 1134 L451 1120 L454 1118 L455 1119 L454 1121 L456 1123 L460 1120 L462 1124 L466 1123 L469 1120 L471 1124 L473 1124 L479 1116 L485 1092 L494 1095 L510 1097 L511 1098 L541 1101 L543 1108 L543 1123 L538 1142 L538 1146 L540 1146 L548 1143 L552 1127 L553 1128 L553 1135 L555 1139 L557 1141 L559 1141 L560 1139 L560 1133 L561 1132 L561 1112 L559 1104 L560 1101 L561 1102 L563 1101 L564 1102 L579 1102 L580 1101 L607 1100 L609 1104 L612 1120 L617 1132 L622 1137 L626 1139 L629 1139 L630 1138 L629 1130 L626 1124 L623 1121 L620 1113 L620 1107 L619 1106 L619 1101 L620 1100 L619 1099 L620 1098 L631 1097 L632 1096 L636 1096 L662 1090 L684 1082 L704 1071 L705 1072 L708 1090 L712 1097 L713 1110 L719 1121 L720 1137 L724 1136 L727 1130 L728 1132 L731 1130 L731 1119 L729 1113 L729 1106 L725 1095 L725 1076 L724 1075 L724 1068 L723 1067 L723 1053 L724 1049 L725 1048 L727 1051 L727 1054 L730 1062 L729 1064 L730 1066 L731 1065 L731 1054 L744 1043 L764 1023 L775 1010 L791 987 L806 958 L812 942 L818 948 L820 956 L820 966 L819 967 L818 981 L827 984 L828 971 L829 970 L829 950 L824 939 L816 931 L816 928 L824 900 L826 885 L828 879 L828 874 L829 873 L836 873 L842 875 L854 883 L881 882 L881 878 L880 877 L880 873 L874 847 L872 829 L871 828 L871 821 L870 820 L870 811 L869 810 L868 771 L867 770 L867 760 L868 759 L868 719 L869 718 L869 692 L870 691 L873 694 L875 693 L874 671 L875 670 L877 671 L878 669 L879 655 L880 654 L880 644 L881 643 L881 629 L877 630 L876 629 L877 609 L878 608 L878 594 L879 593 L879 579 L880 578 L880 559 L881 558 L886 560 L887 558 L890 514 L883 512 L866 512 L865 511 L848 511 L847 510 L848 509 L848 484 L847 483 L847 469 L846 468 L845 457 L843 449 L837 436 L828 425 L844 407 L858 382 L871 347 L871 344 L873 340 L873 337 L875 333 L880 313 L880 309 L882 304 L882 300 L887 279 L887 274 L889 268 L889 263 L890 262 L890 256 L891 255 L892 242 L894 234 L894 227 L895 226 L896 210 L897 209 L897 199 L898 198 L899 177 L900 176 L900 163 L901 162 L901 145 L902 144 L902 115 L901 114 L901 104 L900 103 L899 95 L896 87 L891 79 L881 69 L874 64 L859 56 L844 51 Z" fill="#eef3f4" fill-rule="evenodd"/>
</svg>
