<svg xmlns="http://www.w3.org/2000/svg" width="1122" height="1402" viewBox="0 0 1122 1402">
  <title>0249</title>
  <path d="M649 1290 L650 1289 L651 1290 L650 1291 Z M651 1265 L652 1264 L653 1265 L652 1266 Z M683 1241 L684 1243 L667 1271 L651 1290 L650 1287 L654 1276 L655 1263 L670 1253 Z M683 1241 L684 1240 L685 1241 L684 1242 Z M721 1228 L722 1227 L723 1228 L722 1229 Z M722 1227 L723 1226 L724 1227 L723 1228 Z M392 1160 L393 1159 L394 1160 L393 1161 Z M744 1152 L745 1153 L745 1164 L743 1168 L743 1178 L740 1185 L736 1189 L733 1190 L734 1200 L730 1212 L725 1218 L723 1217 L723 1223 L715 1238 L704 1253 L689 1269 L659 1292 L650 1296 L649 1295 L651 1292 L661 1282 L674 1264 L684 1247 L684 1245 L689 1235 L699 1222 L700 1223 L706 1223 L707 1225 L703 1231 L704 1231 L717 1218 L716 1217 L707 1221 L701 1221 L700 1220 L716 1192 L719 1180 L723 1172 L729 1154 L730 1153 L731 1154 L738 1154 Z M732 1135 L733 1134 L734 1135 L733 1136 Z M390 1128 L391 1129 L390 1132 L389 1131 Z M388 1127 L389 1126 L390 1128 L389 1129 Z M382 1114 L383 1113 L384 1115 L383 1116 Z M367 1082 L375 1104 L386 1126 L387 1133 L390 1141 L391 1153 L393 1158 L392 1160 L385 1156 L374 1145 L371 1141 L363 1124 L362 1112 L361 1111 L362 1093 Z M761 1081 L762 1080 L763 1081 L762 1082 Z M758 1079 L761 1085 L761 1090 L762 1091 L762 1108 L761 1109 L761 1115 L760 1116 L757 1133 L755 1137 L754 1145 L748 1152 L745 1149 L738 1152 L731 1153 L730 1151 L732 1147 L732 1139 L739 1131 L747 1115 L753 1099 Z M759 1074 L762 1077 L761 1081 L758 1076 Z M751 1066 L759 1074 L758 1075 L756 1074 L754 1088 L749 1105 L745 1115 L734 1135 L732 1133 L732 1126 L735 1123 L738 1113 L737 1094 L741 1084 L748 1072 L749 1068 Z M454 1067 L455 1066 L478 1072 L491 1072 L496 1068 L498 1068 L504 1075 L514 1076 L515 1077 L522 1077 L523 1078 L532 1078 L533 1079 L551 1079 L559 1074 L563 1078 L568 1080 L601 1080 L602 1079 L610 1079 L615 1077 L621 1071 L628 1076 L636 1077 L637 1076 L650 1075 L666 1070 L667 1071 L669 1090 L670 1091 L670 1122 L669 1123 L668 1136 L661 1158 L649 1179 L633 1196 L616 1208 L601 1215 L578 1221 L549 1222 L548 1221 L532 1219 L516 1214 L500 1206 L489 1198 L470 1178 L458 1156 L452 1137 L451 1126 L450 1125 L450 1117 L449 1116 L450 1086 L451 1085 L451 1079 Z M406 1053 L409 1048 L418 1054 L428 1057 L439 1055 L444 1062 L451 1066 L449 1074 L449 1079 L448 1080 L448 1085 L447 1086 L447 1098 L446 1099 L446 1113 L447 1114 L447 1124 L448 1125 L449 1136 L453 1148 L453 1151 L457 1161 L464 1174 L476 1190 L489 1202 L501 1210 L518 1218 L541 1224 L570 1225 L571 1224 L584 1223 L604 1217 L626 1205 L635 1198 L646 1187 L657 1172 L664 1158 L669 1144 L671 1131 L672 1130 L672 1122 L673 1121 L673 1091 L672 1090 L671 1076 L669 1070 L674 1067 L678 1062 L683 1064 L689 1064 L704 1058 L713 1051 L716 1050 L718 1052 L723 1066 L725 1083 L722 1095 L722 1100 L723 1101 L722 1110 L718 1119 L714 1123 L715 1126 L715 1142 L714 1143 L712 1159 L704 1182 L692 1205 L683 1217 L671 1230 L655 1243 L644 1250 L628 1258 L620 1260 L617 1262 L599 1267 L580 1269 L579 1270 L543 1270 L542 1269 L529 1268 L524 1266 L512 1264 L492 1257 L471 1246 L456 1235 L434 1212 L426 1200 L418 1184 L412 1167 L409 1150 L408 1149 L408 1139 L407 1138 L408 1122 L404 1118 L400 1106 L399 1071 L404 1062 Z M382 1068 L389 1065 L391 1063 L393 1051 L396 1045 L402 1046 L406 1048 L403 1055 L402 1062 L396 1072 L397 1073 L397 1099 L398 1100 L398 1107 L400 1114 L403 1120 L406 1123 L406 1127 L405 1128 L405 1144 L406 1145 L407 1157 L411 1169 L411 1172 L413 1175 L416 1185 L424 1201 L432 1213 L441 1224 L455 1237 L479 1253 L497 1261 L512 1266 L524 1269 L529 1269 L530 1270 L543 1271 L544 1272 L579 1272 L580 1271 L586 1271 L587 1270 L603 1268 L623 1262 L639 1255 L656 1245 L674 1230 L684 1219 L698 1199 L705 1185 L713 1163 L716 1150 L716 1145 L717 1144 L717 1125 L716 1124 L721 1118 L724 1111 L724 1107 L725 1106 L724 1096 L727 1084 L727 1076 L726 1075 L725 1065 L722 1059 L721 1054 L718 1050 L727 1047 L729 1048 L730 1053 L734 1060 L734 1068 L738 1079 L738 1083 L735 1091 L736 1111 L732 1123 L727 1127 L729 1149 L723 1164 L720 1175 L717 1180 L715 1186 L715 1190 L708 1201 L698 1221 L673 1247 L649 1263 L632 1271 L615 1277 L594 1281 L593 1282 L580 1283 L579 1284 L567 1284 L566 1285 L541 1284 L540 1283 L522 1281 L506 1276 L503 1276 L487 1270 L469 1261 L456 1253 L443 1243 L425 1225 L418 1216 L407 1198 L407 1190 L402 1186 L398 1178 L399 1167 L395 1157 L394 1148 L393 1147 L394 1130 L389 1123 L386 1116 L387 1080 Z M678 1059 L681 1052 L683 1038 L684 1037 L711 1050 L706 1054 L690 1061 L681 1061 Z M440 1052 L436 1054 L426 1054 L418 1051 L412 1047 L434 1036 L436 1036 L438 1042 L438 1048 Z M745 1035 L750 1040 L756 1051 L759 1063 L759 1069 L758 1070 L753 1065 L750 1064 L741 1080 L737 1072 L736 1059 L732 1052 L731 1047 L739 1042 Z M739 1036 L740 1035 L741 1036 L740 1037 Z M377 1035 L393 1045 L391 1049 L389 1061 L386 1064 L379 1064 L378 1065 L383 1075 L385 1082 L384 1108 L382 1114 L372 1092 L369 1082 L369 1078 L365 1081 L362 1086 L360 1083 L361 1069 L366 1051 L370 1043 Z M627 1022 L630 1019 L635 1019 L660 1027 L679 1035 L681 1037 L681 1044 L680 1045 L679 1053 L675 1062 L669 1067 L647 1073 L629 1074 L622 1069 L622 1064 L624 1059 L626 1040 L627 1039 Z M490 1022 L491 1024 L492 1043 L493 1044 L493 1053 L497 1065 L488 1070 L475 1069 L451 1063 L447 1061 L443 1057 L439 1045 L439 1035 L457 1027 L460 1027 L463 1025 L466 1025 L469 1023 L476 1022 L484 1019 L486 1019 Z M493 1017 L494 1018 L492 1021 L489 1019 Z M624 1017 L625 1016 L629 1018 L626 1021 Z M566 1008 L590 1010 L591 1011 L619 1015 L624 1020 L625 1024 L625 1043 L624 1044 L624 1051 L623 1052 L622 1061 L619 1069 L612 1076 L592 1077 L591 1078 L572 1078 L571 1077 L566 1077 L560 1072 L559 1069 L560 1068 L561 1016 L563 1011 Z M556 1009 L557 1008 L562 1008 L563 1009 L560 1013 Z M554 1009 L557 1013 L558 1025 L559 1026 L559 1067 L558 1071 L550 1077 L529 1076 L528 1075 L511 1074 L504 1072 L499 1067 L495 1055 L494 1039 L493 1038 L493 1026 L495 1019 L498 1016 L511 1013 L539 1010 L540 1009 L550 1009 L551 1008 Z M376 1009 L377 1008 L378 1010 L377 1011 Z M742 1008 L743 1007 L744 1009 L743 1010 Z M301 1000 L302 999 L303 1000 L302 1001 Z M743 990 L763 1003 L775 1009 L784 1012 L796 1012 L797 1013 L793 1024 L793 1048 L792 1049 L792 1057 L790 1063 L786 1069 L766 1087 L765 1086 L764 1076 L762 1074 L762 1068 L761 1067 L761 1061 L759 1053 L755 1044 L746 1033 L748 1028 L748 1014 L742 993 Z M741 990 L742 989 L743 990 L742 991 Z M376 989 L377 990 L377 995 L376 996 L376 1001 L372 1018 L373 1027 L376 1033 L369 1041 L362 1056 L359 1068 L359 1073 L358 1074 L358 1084 L359 1085 L358 1088 L340 1074 L334 1068 L330 1062 L328 1055 L328 1046 L329 1045 L328 1028 L325 1019 L321 1013 L322 1012 L334 1012 L343 1009 L353 1004 L369 992 Z M376 989 L377 988 L378 989 L377 990 Z M379 1032 L380 1031 L388 1032 L395 1030 L407 1023 L438 1008 L473 996 L497 990 L507 989 L519 986 L534 985 L535 984 L545 984 L546 983 L577 983 L578 984 L590 984 L591 985 L598 985 L599 986 L617 988 L622 990 L626 990 L642 994 L666 1002 L686 1011 L688 1011 L707 1021 L730 1036 L739 1036 L740 1037 L735 1041 L727 1045 L719 1046 L718 1047 L712 1047 L697 1041 L675 1030 L635 1016 L623 1014 L614 1011 L605 1010 L604 1009 L599 1009 L598 1008 L581 1007 L580 1006 L567 1006 L566 1005 L542 1006 L541 1007 L525 1008 L524 1009 L507 1011 L477 1018 L446 1028 L412 1044 L401 1044 L388 1039 Z M745 1027 L744 1030 L741 1033 L731 1034 L703 1016 L675 1003 L659 998 L656 996 L618 986 L613 986 L607 984 L600 984 L599 983 L591 983 L590 982 L581 982 L580 981 L545 981 L544 982 L535 982 L534 983 L524 983 L523 984 L506 986 L505 987 L483 991 L462 998 L459 998 L432 1008 L415 1017 L413 1017 L394 1028 L386 1030 L378 1028 L375 1024 L375 1021 L382 1005 L401 976 L412 965 L418 961 L428 956 L440 952 L453 950 L454 949 L461 949 L462 948 L494 948 L495 949 L508 950 L509 951 L514 951 L515 952 L531 954 L532 955 L538 955 L539 956 L565 957 L566 956 L574 956 L575 955 L593 953 L609 949 L640 947 L641 948 L659 949 L660 950 L665 950 L687 957 L710 970 L722 981 L734 998 L743 1015 L745 1022 Z M789 947 L790 946 L791 947 L790 948 Z M725 943 L726 944 L726 955 L728 963 L741 997 L741 1000 L743 1004 L742 1008 L735 995 L723 979 L724 978 L724 944 Z M341 937 L342 936 L343 937 L342 938 Z M722 934 L723 935 L723 942 L722 943 L722 976 L721 977 L715 971 L701 962 L701 956 L700 955 L701 954 L700 953 L710 949 L715 945 Z M722 933 L723 932 L724 934 L723 935 Z M343 932 L345 934 L343 937 L342 936 Z M382 928 L389 940 L398 949 L411 954 L411 963 L403 970 L396 979 L378 1008 L377 1005 L378 1004 L378 999 L381 987 L381 981 L382 980 L383 967 L384 966 L384 957 L385 956 L384 941 L381 931 Z M785 920 L787 923 L790 933 L790 938 L788 944 L787 943 L787 938 L784 926 L784 921 Z M731 921 L732 920 L733 921 L733 924 L739 940 L747 955 L754 965 L769 980 L782 989 L792 994 L804 998 L816 999 L817 1000 L803 1008 L793 1009 L792 1010 L782 1009 L767 1003 L742 987 L738 982 L729 955 L728 936 L729 935 L729 928 Z M375 920 L377 923 L380 940 L381 941 L381 946 L382 947 L382 960 L381 961 L381 968 L380 969 L380 975 L379 976 L378 984 L362 994 L352 1002 L336 1009 L331 1009 L330 1010 L318 1009 L302 1001 L304 999 L313 998 L329 991 L340 983 L352 971 L362 957 L368 945 L374 926 L374 921 Z M780 911 L781 912 L782 930 L785 940 L785 947 L784 948 L777 944 L771 938 L773 936 L774 930 L776 926 L776 922 Z M339 905 L343 917 L343 928 L338 943 L335 946 L332 947 L330 942 L330 937 L333 926 L337 919 L338 906 Z M337 903 L338 902 L339 904 L338 905 Z M413 952 L422 938 L422 936 L430 920 L433 922 L441 924 L459 924 L460 923 L474 922 L491 918 L503 913 L510 908 L515 902 L519 892 L521 895 L524 910 L526 914 L531 919 L544 924 L566 925 L581 921 L588 914 L594 896 L596 897 L599 904 L603 909 L607 912 L620 918 L633 920 L634 921 L639 921 L640 922 L658 923 L659 924 L673 923 L678 920 L682 925 L689 938 L699 952 L699 959 L697 960 L683 953 L665 948 L654 947 L653 946 L643 946 L642 945 L618 946 L617 947 L611 947 L594 951 L589 951 L576 954 L568 954 L567 955 L537 954 L536 953 L530 953 L529 952 L502 948 L501 947 L473 945 L472 946 L460 946 L459 947 L443 949 L427 954 L415 961 L413 960 Z M597 888 L603 878 L615 866 L628 859 L645 855 L663 856 L676 861 L687 871 L691 883 L691 889 L688 901 L680 916 L673 921 L647 920 L646 919 L628 917 L624 915 L618 914 L607 908 L601 902 L597 894 Z M421 881 L426 870 L436 861 L450 856 L471 855 L487 859 L502 868 L512 879 L516 886 L517 891 L513 900 L504 909 L496 913 L474 919 L439 922 L432 919 L430 917 L423 903 L420 890 Z M396 882 L401 869 L411 857 L428 846 L448 840 L454 840 L455 839 L482 840 L498 844 L523 855 L540 860 L545 860 L546 861 L572 861 L573 860 L578 860 L590 857 L610 848 L630 841 L641 840 L642 839 L656 839 L657 840 L669 841 L687 848 L696 854 L705 863 L711 873 L714 885 L714 894 L708 916 L700 935 L699 946 L698 947 L693 941 L688 931 L680 919 L689 907 L694 892 L693 876 L689 868 L682 861 L673 856 L663 853 L645 852 L644 853 L634 854 L617 861 L610 866 L602 874 L598 880 L592 893 L588 910 L582 918 L576 921 L567 922 L566 923 L551 923 L535 919 L527 912 L520 887 L512 874 L502 864 L488 856 L485 856 L477 853 L473 853 L472 852 L450 853 L439 856 L429 862 L424 867 L420 874 L417 885 L417 892 L422 909 L429 919 L426 923 L417 943 L413 948 L410 937 L401 918 L397 906 L396 895 L395 894 Z M823 834 L824 835 L825 846 L818 864 L808 883 L802 910 L803 910 L805 905 L810 883 L814 875 L818 871 L823 877 L825 883 L825 891 L823 899 L818 909 L818 911 L807 931 L801 939 L796 944 L791 947 L790 945 L792 941 L792 932 L790 925 L787 919 L784 916 L784 908 L786 900 L792 886 L812 855 Z M297 834 L313 863 L328 885 L334 898 L336 915 L332 922 L328 933 L328 944 L329 945 L328 946 L324 944 L314 932 L304 914 L296 891 L297 881 L300 875 L304 871 L308 877 L312 888 L313 897 L314 898 L314 910 L315 910 L316 903 L315 902 L314 888 L311 879 L304 866 L303 861 L300 855 L300 852 L296 841 L296 835 Z M292 823 L295 828 L295 832 L294 833 L291 826 Z M290 821 L291 820 L292 822 L291 823 Z M833 810 L834 811 L834 816 L827 839 L825 834 L825 828 Z M834 807 L835 808 L834 811 L833 810 Z M280 790 L282 793 L283 799 L285 803 L286 813 L290 829 L292 833 L292 836 L295 843 L295 846 L298 853 L300 862 L303 868 L296 878 L294 885 L294 892 L297 903 L308 927 L315 938 L326 948 L324 950 L318 952 L318 953 L326 951 L327 952 L325 953 L326 954 L331 952 L346 938 L353 925 L358 911 L362 890 L363 889 L363 884 L364 883 L366 884 L368 898 L374 913 L371 930 L367 942 L359 958 L351 969 L338 982 L323 992 L309 997 L303 997 L302 998 L294 997 L289 995 L280 986 L277 981 L272 962 L272 958 L271 957 L266 928 L264 923 L260 899 L258 894 L257 885 L255 880 L255 875 L252 865 L248 838 L247 837 L247 831 L246 830 L246 821 L245 820 L246 809 L251 804 Z M675 790 L676 789 L677 790 L676 791 Z M480 807 L488 805 L500 800 L503 800 L519 795 L524 795 L530 793 L537 793 L538 792 L548 792 L549 791 L581 792 L582 793 L600 795 L640 807 L635 804 L611 796 L594 793 L593 792 L581 791 L580 790 L570 790 L569 789 L550 789 L549 790 L538 790 L537 791 L521 793 L490 802 Z M676 787 L677 786 L679 787 L678 788 Z M675 786 L676 785 L677 786 L676 787 Z M674 785 L675 784 L676 785 L675 786 Z M451 783 L452 782 L454 783 L453 784 Z M842 780 L853 791 L869 802 L875 808 L876 816 L875 817 L875 827 L874 828 L873 841 L872 842 L865 881 L863 886 L861 900 L859 905 L852 944 L843 980 L838 988 L831 994 L823 997 L810 997 L792 992 L784 988 L771 979 L755 963 L747 951 L739 935 L734 921 L732 911 L737 895 L738 885 L740 883 L747 907 L758 928 L771 943 L778 948 L792 954 L789 951 L796 947 L807 935 L813 926 L825 900 L825 897 L827 893 L827 882 L824 875 L818 868 L827 847 L834 825 L836 812 L837 811 L837 805 L838 804 L838 792 Z M447 780 L448 779 L449 780 L448 781 Z M448 779 L449 778 L450 779 L449 780 Z M670 778 L671 777 L672 778 L671 779 Z M669 777 L670 776 L671 777 L670 778 Z M668 776 L669 775 L670 776 L669 777 Z M667 775 L668 774 L669 775 L668 776 Z M769 770 L770 769 L771 770 L770 771 Z M770 769 L771 768 L772 769 L771 770 Z M771 767 L772 766 L773 767 L772 768 Z M770 742 L771 741 L772 743 L771 744 Z M369 846 L377 828 L382 821 L391 811 L402 803 L414 797 L426 793 L452 787 L468 781 L490 770 L514 755 L533 745 L538 744 L544 741 L554 740 L555 739 L563 739 L578 743 L598 753 L621 768 L648 783 L650 783 L670 792 L676 793 L696 800 L710 808 L722 820 L726 826 L733 841 L737 857 L737 880 L736 881 L735 892 L731 908 L724 927 L714 943 L708 948 L702 950 L701 949 L702 935 L714 905 L715 897 L716 896 L716 884 L712 870 L707 862 L694 850 L681 843 L664 838 L643 837 L642 838 L635 838 L623 842 L620 842 L595 853 L578 858 L572 858 L571 859 L548 859 L547 858 L542 858 L529 855 L503 844 L487 839 L475 838 L474 837 L448 838 L430 843 L418 849 L404 861 L396 874 L393 886 L393 897 L398 916 L405 930 L410 944 L411 950 L410 951 L406 951 L400 948 L390 938 L375 911 L371 899 L368 886 L368 881 L367 880 L367 856 L368 855 Z M352 722 L353 721 L354 722 L353 723 Z M353 718 L354 717 L355 719 L354 720 Z M801 716 L795 734 L787 749 L778 762 L773 767 L772 766 L776 756 L775 755 L772 758 L771 763 L763 776 L754 786 L743 794 L730 799 L726 799 L720 801 L702 801 L696 797 L686 794 L678 788 L680 787 L685 790 L700 794 L721 794 L722 793 L730 792 L742 787 L751 781 L761 771 L768 761 L774 744 L778 742 L791 729 L800 715 Z M800 715 L801 714 L802 715 L801 716 Z M765 715 L766 714 L767 715 L766 716 Z M354 715 L355 714 L356 716 L355 717 Z M320 715 L321 714 L322 716 L321 717 Z M355 713 L356 712 L357 714 L356 715 Z M764 712 L765 711 L766 713 L765 714 Z M763 710 L764 709 L765 711 L764 712 Z M711 688 L728 688 L735 690 L748 697 L761 711 L765 719 L768 731 L767 749 L764 758 L758 768 L748 778 L742 782 L727 788 L719 788 L718 789 L707 788 L706 787 L702 787 L689 781 L675 767 L671 759 L668 747 L668 733 L669 732 L670 724 L678 709 L693 695 L703 690 Z M395 688 L412 688 L419 690 L429 695 L446 712 L453 728 L454 746 L451 758 L447 766 L435 779 L424 785 L414 788 L405 788 L404 789 L394 788 L384 785 L375 780 L361 766 L354 750 L353 733 L354 732 L355 723 L360 712 L367 703 L374 697 L387 690 Z M709 678 L724 678 L738 682 L744 685 L759 699 L764 708 L763 710 L750 696 L735 688 L727 686 L711 686 L701 689 L691 694 L677 707 L673 713 L668 724 L667 732 L666 733 L667 752 L673 767 L689 783 L703 789 L721 790 L722 791 L721 792 L697 791 L686 787 L678 782 L668 772 L665 767 L660 754 L659 746 L658 745 L658 732 L659 731 L660 721 L666 707 L671 700 L682 689 L690 684 L700 680 L708 679 Z M389 680 L397 679 L398 678 L414 678 L425 681 L435 686 L448 697 L456 708 L460 716 L463 727 L463 734 L464 735 L463 749 L460 759 L451 774 L440 785 L430 790 L422 791 L421 792 L398 792 L397 791 L398 790 L413 790 L424 787 L435 781 L444 773 L449 766 L455 751 L456 735 L453 722 L446 709 L436 698 L424 690 L412 686 L395 686 L380 691 L368 699 L357 713 L356 712 L357 708 L367 694 L375 687 Z M680 667 L681 666 L682 667 L681 668 Z M681 666 L682 665 L683 666 L682 667 Z M752 677 L762 688 L770 702 L774 717 L774 735 L772 739 L771 738 L771 723 L768 712 L759 696 L747 685 L738 680 L724 676 L710 676 L694 680 L679 689 L670 698 L664 707 L658 721 L657 730 L656 731 L657 750 L660 760 L668 774 L666 775 L660 769 L652 757 L648 747 L648 743 L646 737 L646 721 L647 720 L648 711 L650 705 L659 689 L673 675 L690 666 L701 663 L707 663 L708 662 L724 663 L734 666 L744 671 Z M373 674 L379 670 L393 664 L405 663 L406 662 L420 663 L431 666 L445 673 L453 679 L462 689 L466 695 L473 711 L474 719 L475 720 L475 738 L471 753 L466 763 L461 770 L451 779 L449 778 L459 765 L464 752 L464 748 L465 747 L465 727 L462 716 L457 706 L452 699 L441 688 L430 681 L418 677 L400 676 L399 677 L390 678 L378 683 L372 687 L362 697 L352 715 L350 723 L350 728 L348 730 L346 729 L347 715 L351 702 L359 688 Z M681 662 L682 661 L683 662 L682 663 Z M683 661 L684 660 L685 661 L684 662 Z M438 662 L440 661 L446 664 L462 668 L466 670 L484 673 L485 674 L491 674 L492 675 L522 675 L523 674 L532 673 L549 667 L559 660 L561 660 L566 664 L576 669 L599 675 L629 675 L630 674 L636 674 L637 673 L642 673 L652 670 L656 670 L681 662 L682 663 L660 683 L653 693 L646 708 L644 716 L644 723 L643 724 L644 742 L646 750 L653 765 L658 772 L676 789 L673 790 L650 781 L629 770 L596 749 L575 739 L562 736 L549 737 L531 743 L514 752 L509 756 L504 758 L483 771 L464 780 L454 783 L453 782 L465 770 L474 754 L478 737 L478 721 L477 720 L476 711 L472 700 L464 687 L455 677 L448 672 Z M436 661 L437 660 L438 661 L437 662 Z M706 650 L707 649 L708 650 L707 651 Z M707 649 L708 648 L710 649 L709 650 Z M583 649 L584 648 L585 649 L584 650 Z M535 649 L536 648 L537 649 L536 650 Z M536 648 L537 647 L538 648 L537 649 Z M410 648 L411 647 L412 648 L411 649 Z M407 647 L408 646 L410 647 L409 648 Z M682 665 L687 661 L697 656 L726 647 L742 644 L747 642 L752 642 L753 641 L782 640 L783 641 L791 642 L797 645 L805 652 L809 659 L811 666 L811 680 L806 698 L799 713 L789 728 L778 739 L777 738 L777 732 L778 731 L777 716 L771 697 L762 683 L748 670 L734 663 L722 660 L703 660 L702 661 L694 662 L685 666 Z M310 680 L310 666 L312 659 L315 654 L323 646 L329 643 L340 640 L365 640 L366 641 L373 641 L378 643 L382 643 L398 647 L423 655 L433 660 L440 666 L438 667 L431 663 L419 660 L400 660 L385 664 L371 672 L360 682 L353 692 L347 704 L343 721 L343 736 L342 737 L333 728 L323 714 L314 695 Z M826 588 L828 586 L830 587 L828 589 Z M836 584 L838 586 L841 596 L841 600 L845 615 L847 632 L848 633 L849 646 L851 651 L849 654 L844 656 L842 655 L839 638 L827 592 Z M286 584 L294 590 L292 595 L289 611 L286 619 L286 623 L282 636 L279 653 L277 656 L272 654 L270 652 L270 649 L271 648 L274 624 L280 600 L280 596 L283 587 Z M345 578 L346 577 L376 607 L389 617 L413 632 L431 641 L451 649 L454 649 L461 652 L473 655 L478 655 L484 657 L491 657 L492 658 L514 658 L515 657 L520 657 L536 652 L543 648 L552 640 L560 625 L566 638 L575 647 L592 655 L606 657 L607 658 L630 658 L631 657 L643 656 L660 652 L688 642 L718 626 L749 603 L774 577 L775 579 L756 605 L733 628 L720 638 L704 648 L688 656 L673 661 L670 663 L639 671 L622 672 L621 673 L605 673 L604 672 L592 671 L578 667 L566 661 L561 657 L559 657 L551 663 L533 670 L525 671 L524 672 L515 672 L514 673 L501 673 L500 672 L483 671 L454 664 L424 652 L406 642 L386 627 L365 606 L353 591 Z M774 577 L775 576 L776 577 L775 578 Z M344 576 L345 575 L346 577 L345 578 Z M775 575 L776 574 L777 575 L776 576 Z M343 575 L344 574 L345 575 L344 576 Z M776 574 L777 573 L778 574 L777 575 Z M342 574 L343 573 L344 574 L343 575 Z M819 565 L820 566 L820 572 L824 587 L824 592 L827 601 L827 605 L840 655 L841 665 L843 671 L843 677 L844 678 L845 698 L846 699 L846 733 L845 734 L844 753 L843 754 L842 766 L836 792 L827 818 L813 847 L800 869 L789 885 L782 898 L776 914 L772 935 L770 937 L763 930 L757 921 L749 904 L743 885 L743 881 L740 870 L740 858 L735 839 L756 833 L768 827 L781 817 L790 807 L800 792 L811 769 L818 748 L823 727 L824 716 L825 715 L825 706 L826 705 L826 672 L825 671 L825 664 L824 663 L824 658 L821 645 L813 625 L810 614 L815 595 L817 570 Z M302 564 L303 565 L303 572 L304 573 L304 583 L305 584 L306 598 L310 613 L310 617 L299 650 L299 654 L296 665 L295 684 L294 685 L295 714 L296 715 L296 723 L297 724 L297 729 L298 730 L298 735 L301 745 L301 749 L303 753 L306 766 L308 769 L311 779 L315 786 L315 788 L328 809 L345 826 L361 835 L370 838 L368 841 L365 851 L364 863 L363 864 L363 872 L362 873 L362 879 L361 880 L358 901 L354 916 L347 931 L346 930 L346 922 L345 921 L344 911 L341 902 L336 892 L324 875 L305 844 L290 811 L281 781 L281 777 L277 761 L276 746 L275 745 L274 705 L275 704 L275 691 L276 690 L277 676 L279 670 L282 650 L285 641 L285 637 L296 595 L297 586 L301 571 L301 565 Z M309 503 L312 515 L319 534 L337 571 L347 587 L363 608 L383 628 L408 646 L404 647 L393 643 L389 643 L385 641 L370 639 L369 638 L361 638 L360 637 L337 638 L329 640 L320 645 L313 652 L308 663 L307 678 L310 691 L316 705 L319 719 L330 744 L338 756 L340 757 L329 739 L329 737 L324 728 L321 719 L322 716 L330 728 L345 744 L346 744 L345 732 L346 731 L349 737 L349 745 L353 759 L359 770 L367 779 L375 785 L387 791 L398 794 L412 794 L413 795 L402 801 L399 801 L398 800 L393 800 L385 798 L373 792 L354 772 L349 762 L348 757 L345 752 L344 752 L344 755 L348 764 L347 765 L344 763 L368 791 L379 798 L397 803 L380 819 L370 836 L363 834 L347 825 L335 814 L327 804 L318 789 L318 787 L313 778 L307 762 L307 759 L304 752 L301 739 L301 734 L298 721 L298 713 L297 712 L297 675 L298 674 L298 667 L299 666 L299 661 L300 660 L302 647 L312 618 L312 613 L311 612 L309 597 L308 596 L308 590 L307 589 L306 568 L305 567 L305 531 L306 530 L306 519 L307 518 L307 511 Z M811 502 L814 512 L815 530 L816 531 L816 564 L815 565 L815 576 L814 577 L813 593 L812 594 L812 599 L808 615 L812 629 L819 646 L822 659 L823 674 L824 675 L824 702 L823 703 L823 713 L822 714 L820 731 L816 747 L807 773 L798 791 L787 807 L773 821 L764 827 L749 834 L735 837 L723 817 L713 807 L708 804 L709 803 L722 803 L723 802 L731 801 L750 793 L758 787 L758 785 L779 763 L793 742 L802 721 L802 718 L805 710 L805 706 L808 700 L813 684 L814 669 L813 668 L812 659 L806 649 L797 642 L789 639 L777 638 L776 637 L756 638 L755 639 L744 640 L712 649 L709 648 L719 642 L736 629 L756 609 L773 587 L784 569 L800 536 L808 514 Z M805 321 L815 328 L819 336 L821 353 L831 380 L833 388 L833 393 L834 394 L836 421 L837 422 L837 432 L838 433 L838 443 L839 444 L839 454 L840 455 L840 464 L841 465 L841 476 L842 477 L842 485 L843 486 L843 496 L844 497 L844 505 L845 506 L845 514 L846 515 L846 523 L847 524 L847 531 L848 532 L848 539 L849 540 L849 550 L850 551 L850 559 L851 560 L851 571 L852 572 L852 585 L853 586 L853 643 L852 644 L850 639 L847 615 L841 589 L837 582 L834 584 L828 584 L827 585 L825 584 L824 575 L821 564 L821 559 L820 558 L817 518 L816 517 L814 501 L812 496 L813 487 L814 486 L814 477 L815 476 L815 455 L814 454 L814 446 L813 445 L811 429 L806 413 L806 348 L805 347 L805 329 L804 328 L804 322 Z M316 321 L317 322 L317 330 L316 331 L316 345 L315 346 L314 415 L310 426 L310 430 L307 441 L307 448 L306 449 L305 475 L306 476 L306 486 L307 487 L308 497 L307 498 L305 516 L304 517 L304 524 L303 525 L303 537 L302 538 L301 556 L300 557 L300 562 L299 563 L295 586 L294 587 L293 585 L285 582 L280 589 L276 604 L276 608 L272 624 L272 629 L271 630 L271 635 L270 636 L270 643 L269 644 L268 643 L268 624 L267 623 L269 567 L270 566 L270 558 L271 557 L271 547 L272 546 L275 512 L277 504 L278 487 L279 486 L280 471 L281 470 L281 460 L282 459 L285 417 L286 416 L288 394 L289 393 L289 388 L293 371 L300 351 L303 334 L307 327 Z M460 300 L461 299 L462 300 L461 301 Z M703 301 L726 312 L750 330 L768 348 L779 362 L790 379 L797 393 L805 415 L809 436 L810 437 L811 450 L812 451 L812 480 L811 481 L811 489 L810 490 L810 495 L806 512 L795 541 L779 567 L765 584 L749 600 L729 616 L709 629 L685 641 L660 650 L638 654 L637 655 L629 655 L628 656 L609 656 L608 655 L596 654 L590 651 L584 645 L580 635 L580 613 L581 612 L581 604 L582 603 L585 573 L586 572 L587 552 L588 551 L588 538 L589 537 L590 486 L589 485 L589 466 L588 465 L587 442 L586 441 L585 422 L584 421 L579 374 L577 367 L577 361 L576 360 L571 325 L566 304 L567 303 L581 316 L591 321 L599 323 L610 323 L634 317 L643 313 L661 302 L673 298 L691 298 Z M662 299 L663 298 L664 299 L663 300 Z M559 298 L562 298 L564 300 L565 308 L568 317 L570 333 L571 334 L572 347 L575 360 L575 367 L576 368 L577 381 L578 382 L578 388 L580 396 L581 411 L582 412 L583 430 L584 431 L584 439 L585 440 L585 451 L586 452 L586 464 L587 465 L587 485 L588 486 L587 539 L586 540 L586 553 L585 554 L585 563 L584 564 L584 574 L583 575 L582 590 L581 591 L579 613 L578 614 L578 635 L580 642 L584 648 L583 649 L576 645 L567 636 L564 631 L561 619 L561 304 L560 305 L560 351 L559 352 L559 620 L557 628 L550 639 L539 648 L537 647 L541 639 L543 624 L542 623 L542 611 L541 610 L541 602 L540 601 L540 594 L539 593 L539 586 L538 585 L536 556 L535 555 L535 542 L534 541 L534 523 L533 522 L534 465 L535 464 L535 452 L536 451 L536 440 L537 439 L539 410 L540 409 L541 393 L542 392 L542 385 L544 377 L547 349 L548 348 L552 321 L554 316 L554 311 L556 307 L557 300 Z M458 299 L459 298 L461 299 L460 300 Z M424 300 L432 298 L449 298 L453 299 L466 305 L476 312 L484 316 L495 320 L503 321 L504 322 L510 322 L511 323 L523 323 L531 321 L542 315 L554 303 L555 304 L549 328 L546 352 L545 353 L545 359 L543 366 L540 395 L539 396 L539 404 L538 405 L538 413 L537 414 L537 422 L536 423 L536 431 L535 432 L535 442 L534 443 L533 468 L532 469 L532 488 L531 489 L532 536 L533 537 L535 572 L536 573 L536 581 L537 582 L539 607 L540 608 L540 617 L541 618 L541 629 L540 630 L540 636 L536 645 L530 651 L523 654 L514 655 L513 656 L494 656 L493 655 L484 655 L483 654 L465 651 L446 645 L431 638 L429 638 L400 622 L369 598 L354 583 L344 571 L328 547 L319 528 L314 513 L310 496 L309 482 L308 481 L309 444 L316 414 L321 400 L329 383 L348 355 L370 332 L397 312 L408 306 Z M841 98 L842 99 L842 108 L840 112 L834 118 L827 121 L828 123 L828 131 L824 136 L818 139 L820 147 L818 152 L812 157 L813 170 L809 179 L809 186 L803 196 L802 195 L803 169 L810 141 L815 130 L823 117 Z M841 98 L842 97 L843 98 L842 99 Z M846 93 L847 94 L846 97 L843 98 L842 97 Z M835 62 L847 65 L853 72 L853 80 L850 87 L823 114 L810 137 L805 151 L805 155 L803 160 L803 166 L802 167 L802 173 L801 174 L801 191 L800 192 L801 205 L802 206 L802 216 L801 217 L800 228 L797 240 L796 254 L795 255 L786 230 L777 216 L769 207 L757 198 L747 193 L737 190 L732 190 L739 193 L745 194 L757 200 L766 207 L780 224 L790 245 L797 275 L799 297 L800 298 L800 307 L801 308 L802 336 L803 337 L803 364 L804 365 L804 402 L803 403 L794 382 L778 357 L768 345 L745 323 L723 308 L700 298 L692 297 L691 296 L674 296 L665 299 L663 298 L672 284 L676 270 L681 224 L688 197 L705 162 L728 125 L740 110 L758 92 L781 75 L795 68 L808 64 L818 63 L819 62 Z M288 62 L305 62 L306 63 L316 64 L328 68 L340 74 L362 90 L379 107 L391 122 L407 147 L423 180 L430 190 L437 204 L441 219 L442 230 L443 231 L444 251 L445 252 L445 261 L446 262 L447 273 L451 285 L459 297 L458 299 L448 296 L433 296 L432 297 L424 298 L402 307 L379 322 L368 331 L352 347 L342 359 L330 377 L318 402 L317 401 L317 359 L318 358 L320 312 L321 311 L321 302 L322 301 L322 292 L323 291 L325 271 L331 247 L336 237 L336 235 L344 221 L360 204 L376 195 L388 192 L391 190 L386 190 L382 192 L379 192 L369 196 L358 203 L346 215 L339 225 L331 241 L328 253 L327 254 L326 253 L325 239 L324 238 L324 232 L323 231 L323 225 L321 217 L321 207 L323 201 L323 186 L322 186 L322 191 L320 196 L315 188 L315 170 L312 170 L308 165 L309 158 L304 153 L305 137 L301 138 L296 133 L295 129 L296 115 L293 116 L284 109 L283 107 L283 96 L284 95 L297 108 L302 115 L311 132 L318 155 L322 184 L322 170 L321 169 L321 162 L320 161 L317 144 L311 128 L300 109 L287 95 L283 92 L275 89 L271 84 L269 78 L270 72 L275 66 Z M279 61 L273 64 L268 69 L266 75 L267 82 L269 86 L280 96 L281 99 L281 109 L293 119 L294 122 L293 123 L293 132 L295 136 L302 141 L301 153 L306 159 L306 166 L307 168 L312 173 L312 186 L315 194 L318 197 L317 208 L318 209 L319 222 L320 223 L322 242 L323 243 L324 267 L323 268 L321 287 L320 288 L318 317 L310 321 L303 328 L300 334 L298 347 L294 359 L294 362 L290 372 L286 393 L285 394 L285 398 L284 399 L282 426 L281 427 L281 438 L280 439 L280 449 L279 450 L279 459 L278 460 L278 471 L277 472 L276 488 L275 489 L272 521 L271 522 L271 530 L270 531 L270 538 L269 539 L269 546 L268 547 L268 556 L267 557 L266 581 L265 582 L265 604 L264 605 L265 647 L266 648 L266 653 L268 655 L278 659 L275 669 L273 692 L272 693 L271 733 L272 734 L272 746 L273 747 L275 767 L280 787 L249 802 L243 809 L243 830 L244 831 L246 849 L247 850 L249 865 L253 880 L253 884 L254 885 L254 889 L259 909 L259 913 L260 914 L260 918 L261 919 L261 923 L267 949 L267 954 L270 963 L272 975 L276 985 L285 995 L288 997 L293 998 L299 1003 L313 1010 L315 1010 L319 1014 L325 1027 L325 1032 L326 1033 L326 1059 L329 1066 L337 1075 L360 1093 L359 1094 L359 1102 L358 1103 L359 1120 L362 1130 L367 1140 L378 1154 L386 1160 L394 1164 L396 1169 L395 1180 L398 1186 L404 1192 L404 1198 L406 1203 L422 1226 L442 1246 L465 1262 L490 1274 L519 1283 L535 1285 L536 1286 L544 1286 L545 1287 L575 1287 L576 1286 L585 1286 L586 1285 L597 1284 L623 1277 L651 1265 L652 1266 L651 1277 L648 1285 L648 1288 L644 1295 L644 1297 L646 1299 L651 1299 L665 1292 L676 1284 L679 1280 L684 1278 L704 1258 L726 1229 L727 1226 L726 1225 L727 1224 L726 1221 L732 1215 L738 1201 L738 1192 L742 1188 L746 1181 L746 1175 L749 1167 L749 1155 L756 1148 L758 1140 L762 1131 L764 1118 L765 1117 L765 1111 L766 1110 L766 1093 L765 1091 L787 1072 L793 1062 L795 1054 L795 1046 L796 1045 L795 1027 L797 1019 L800 1013 L803 1010 L807 1009 L815 1005 L823 999 L830 997 L835 994 L842 987 L847 977 L851 961 L851 957 L854 948 L856 934 L858 929 L862 905 L865 895 L866 885 L868 880 L868 876 L869 875 L869 871 L870 870 L870 866 L872 861 L875 841 L877 835 L878 818 L879 817 L879 811 L877 806 L873 802 L856 790 L843 777 L843 772 L844 771 L844 766 L847 753 L848 734 L849 733 L848 687 L847 686 L847 679 L846 678 L846 673 L845 672 L845 667 L843 659 L852 655 L855 651 L856 591 L855 590 L854 563 L853 562 L853 552 L852 551 L851 534 L850 533 L850 526 L849 525 L847 497 L846 496 L846 489 L845 488 L845 477 L844 476 L844 467 L843 466 L843 457 L842 456 L842 447 L841 446 L841 436 L840 435 L839 414 L838 413 L838 403 L837 402 L836 389 L831 371 L824 354 L821 334 L818 328 L812 322 L804 318 L801 284 L800 283 L799 268 L798 267 L799 244 L800 243 L800 237 L801 236 L801 231 L802 230 L804 214 L805 213 L805 202 L804 199 L809 192 L811 187 L812 177 L815 172 L815 158 L821 152 L822 149 L821 141 L830 133 L831 130 L830 122 L838 118 L844 110 L844 104 L849 99 L849 93 L854 85 L856 78 L856 73 L854 68 L849 63 L841 60 L823 59 L822 60 L814 60 L813 61 L805 62 L793 66 L772 78 L759 88 L739 108 L726 124 L714 142 L702 163 L699 171 L686 196 L679 222 L677 243 L676 244 L676 254 L675 255 L675 261 L674 262 L674 267 L671 280 L664 293 L653 304 L635 314 L623 318 L615 319 L614 320 L596 320 L581 313 L564 296 L558 296 L542 312 L536 316 L526 320 L515 321 L514 320 L506 320 L505 319 L497 318 L479 311 L471 306 L457 291 L454 286 L449 271 L445 228 L444 227 L444 222 L441 209 L437 198 L425 179 L409 146 L404 139 L402 134 L382 107 L362 87 L349 77 L332 67 L318 62 L310 61 L309 60 L302 60 L301 59 L291 59 L290 60 Z" fill="#eef3f4" fill-rule="evenodd"/>
</svg>
