<svg xmlns="http://www.w3.org/2000/svg" width="1254" height="1254" viewBox="0 0 1254 1254">
  <title>0254</title>
  <path d="M575 1227 L576 1226 L577 1227 L576 1228 Z M490 1201 L491 1200 L492 1201 L491 1202 Z M489 1200 L490 1199 L491 1200 L490 1201 Z M487 1199 L488 1198 L490 1199 L489 1200 Z M486 1198 L487 1197 L488 1198 L487 1199 Z M488 1195 L489 1194 L490 1195 L489 1196 Z M487 1194 L488 1193 L489 1194 L488 1195 Z M822 1158 L823 1157 L824 1158 L823 1159 Z M823 1157 L824 1156 L825 1157 L824 1158 Z M656 1099 L659 1104 L661 1120 L662 1121 L662 1127 L663 1128 L663 1133 L666 1146 L666 1152 L668 1159 L668 1179 L669 1180 L669 1187 L670 1188 L671 1202 L672 1203 L670 1219 L668 1224 L664 1229 L658 1229 L655 1224 L654 1215 L653 1214 L653 1187 L654 1186 L653 1116 L654 1115 L654 1103 Z M568 1096 L572 1100 L583 1122 L588 1137 L588 1141 L590 1147 L590 1153 L591 1154 L590 1171 L586 1187 L583 1194 L582 1205 L581 1206 L582 1215 L584 1221 L589 1227 L588 1228 L581 1228 L579 1227 L571 1219 L566 1206 L567 1187 L576 1158 L576 1140 L571 1120 L571 1116 L567 1103 L567 1097 Z M718 1087 L720 1087 L722 1089 L728 1100 L731 1109 L733 1122 L738 1133 L746 1144 L760 1157 L766 1169 L767 1173 L767 1191 L766 1192 L766 1196 L761 1206 L759 1208 L752 1211 L750 1210 L751 1199 L752 1198 L752 1182 L749 1172 L742 1164 L738 1162 L730 1154 L726 1147 L721 1132 L716 1111 L716 1105 L715 1104 L715 1091 Z M490 1053 L492 1057 L492 1067 L493 1068 L495 1098 L496 1099 L496 1136 L495 1137 L494 1145 L487 1161 L485 1169 L485 1183 L488 1191 L487 1194 L483 1189 L478 1178 L477 1170 L476 1169 L476 1154 L483 1125 L483 1095 L484 1094 L485 1062 L487 1055 Z M779 1052 L781 1052 L788 1060 L798 1083 L810 1097 L820 1118 L824 1134 L825 1146 L823 1154 L817 1162 L813 1146 L807 1132 L806 1127 L794 1102 L784 1087 L777 1058 L777 1055 Z M749 1051 L750 1050 L751 1051 L750 1052 Z M751 1050 L752 1049 L754 1050 L753 1051 Z M753 1049 L754 1048 L756 1049 L755 1050 Z M768 1033 L769 1035 L766 1040 L756 1049 L755 1048 L760 1043 L763 1037 Z M768 1033 L769 1032 L770 1033 L769 1034 Z M781 1025 L782 1024 L783 1025 L782 1026 Z M782 1024 L783 1023 L784 1024 L783 1025 Z M758 976 L758 979 L749 994 L733 1009 L709 1025 L697 1031 L675 1039 L653 1043 L652 1044 L633 1045 L632 1046 L618 1046 L617 1045 L606 1045 L605 1044 L593 1043 L577 1039 L559 1032 L544 1024 L530 1014 L513 997 L509 988 L514 983 L615 985 L616 984 L648 984 L649 983 L681 982 L682 981 L692 981 L693 980 L702 980 L703 979 L735 976 L748 973 L755 973 Z M761 976 L758 972 L754 970 L750 970 L749 971 L743 971 L742 972 L736 972 L735 973 L729 973 L721 975 L694 977 L693 978 L683 978 L682 979 L671 979 L670 980 L654 980 L653 981 L587 982 L586 981 L515 980 L508 984 L507 991 L512 1000 L527 1015 L544 1027 L562 1036 L582 1043 L595 1045 L596 1046 L612 1047 L613 1048 L637 1048 L638 1047 L648 1047 L649 1046 L660 1045 L680 1040 L701 1032 L716 1024 L735 1011 L750 997 L758 986 Z M592 969 L593 968 L594 969 L593 970 Z M568 969 L569 968 L573 969 L572 970 Z M600 967 L601 968 L597 971 L596 969 Z M572 968 L573 967 L575 968 L574 969 Z M600 967 L601 966 L603 967 L602 968 Z M585 967 L586 966 L588 967 L587 968 Z M575 967 L576 966 L578 967 L577 968 Z M790 965 L794 969 L797 977 L795 987 L790 994 L794 1003 L794 1011 L790 1019 L784 1024 L783 1023 L787 1017 L788 1009 L789 1008 L788 1007 L788 1001 L785 994 L790 989 L793 982 L792 972 L787 966 Z M602 966 L603 965 L605 966 L604 967 Z M579 966 L580 965 L584 966 L583 967 Z M604 965 L605 964 L608 965 L607 966 Z M674 964 L667 969 L663 969 L659 967 L650 967 L649 968 L647 967 L652 964 L659 964 L660 965 L668 965 L672 963 Z M692 962 L693 961 L695 962 L694 963 Z M680 962 L681 961 L685 961 L691 963 L690 964 L685 964 Z M694 961 L695 960 L696 961 L695 962 Z M458 986 L461 979 L469 971 L479 967 L492 969 L496 965 L503 962 L519 965 L531 960 L545 967 L549 967 L553 965 L558 965 L562 967 L561 968 L554 968 L548 971 L543 971 L535 966 L531 965 L517 972 L516 971 L507 971 L506 970 L498 971 L488 978 L479 978 L475 980 L471 984 L469 989 L469 999 L471 1006 L477 1018 L485 1029 L493 1036 L499 1039 L511 1041 L517 1047 L523 1057 L530 1064 L539 1069 L546 1069 L556 1063 L559 1063 L568 1069 L585 1076 L593 1076 L600 1070 L603 1070 L609 1075 L621 1081 L638 1085 L643 1083 L646 1080 L646 1078 L649 1074 L653 1074 L662 1078 L668 1078 L675 1072 L675 1070 L678 1067 L681 1067 L691 1072 L703 1071 L707 1069 L713 1063 L715 1059 L715 1054 L717 1052 L723 1053 L731 1057 L735 1057 L740 1050 L743 1051 L744 1053 L741 1059 L736 1063 L732 1063 L721 1059 L720 1064 L718 1067 L710 1073 L700 1076 L690 1076 L682 1072 L679 1077 L673 1082 L662 1083 L653 1080 L647 1087 L640 1090 L630 1090 L623 1088 L612 1083 L605 1078 L595 1082 L586 1083 L569 1077 L559 1070 L543 1074 L542 1073 L536 1073 L529 1070 L522 1064 L515 1055 L511 1047 L499 1046 L489 1041 L474 1027 L466 1015 L461 1005 L458 995 Z M699 957 L700 958 L696 961 L695 960 Z M699 957 L700 956 L702 957 L701 958 Z M701 956 L702 955 L704 956 L703 957 Z M704 955 L705 954 L708 955 L707 956 Z M717 954 L718 953 L719 954 L718 955 Z M718 953 L719 952 L720 953 L719 954 Z M720 952 L721 951 L722 952 L721 953 Z M787 948 L790 953 L790 960 L788 965 L786 966 L785 965 L787 961 L787 952 L786 951 Z M785 948 L786 947 L787 948 L786 949 Z M749 948 L750 947 L751 948 L750 949 Z M735 948 L739 947 L744 950 L741 951 Z M784 947 L785 946 L786 947 L785 948 Z M750 947 L753 945 L756 946 L753 948 Z M791 979 L788 988 L781 994 L783 996 L786 1003 L786 1013 L783 1019 L777 1026 L768 1031 L765 1031 L758 1042 L754 1046 L748 1049 L742 1049 L738 1047 L736 1052 L733 1055 L721 1050 L716 1050 L713 1053 L713 1057 L711 1062 L706 1067 L699 1070 L691 1070 L683 1066 L676 1065 L672 1072 L667 1076 L661 1076 L651 1071 L648 1071 L644 1078 L639 1082 L633 1082 L622 1079 L610 1073 L604 1068 L600 1068 L592 1074 L583 1073 L567 1066 L559 1060 L557 1060 L552 1064 L545 1067 L540 1067 L534 1064 L523 1053 L517 1043 L511 1038 L503 1038 L494 1034 L484 1024 L474 1007 L471 997 L471 991 L473 986 L480 980 L489 980 L500 973 L519 974 L532 967 L539 972 L544 974 L548 974 L556 970 L562 970 L569 973 L573 973 L579 969 L584 969 L595 973 L599 973 L604 969 L609 967 L623 968 L628 965 L633 964 L646 970 L656 969 L664 972 L667 972 L677 965 L694 966 L706 957 L711 957 L717 959 L722 954 L730 950 L735 950 L738 951 L741 954 L744 954 L758 947 L769 944 L778 945 L783 949 L785 954 L785 958 L782 967 L788 970 L790 973 L790 978 Z M755 945 L758 943 L762 944 L758 946 Z M762 943 L763 942 L765 943 L764 944 Z M798 973 L794 966 L791 964 L792 952 L790 948 L785 943 L776 940 L763 940 L753 943 L746 948 L743 948 L736 945 L728 945 L721 948 L714 954 L709 952 L702 953 L696 956 L691 961 L681 960 L680 961 L672 961 L667 963 L653 962 L646 966 L635 962 L629 962 L623 965 L619 965 L610 961 L605 961 L599 964 L596 967 L593 967 L586 964 L576 964 L567 967 L558 963 L550 965 L544 965 L533 958 L528 958 L518 963 L508 960 L501 960 L496 962 L490 967 L484 965 L478 965 L469 968 L460 976 L456 984 L455 991 L459 1006 L465 1018 L475 1032 L481 1038 L491 1045 L496 1047 L509 1049 L516 1060 L529 1071 L540 1075 L550 1075 L558 1072 L566 1078 L580 1084 L592 1085 L605 1081 L611 1085 L625 1091 L641 1092 L648 1089 L654 1083 L660 1085 L671 1085 L674 1084 L683 1075 L690 1078 L702 1078 L708 1076 L717 1071 L720 1068 L723 1062 L731 1065 L737 1065 L743 1060 L746 1054 L750 1054 L761 1049 L768 1041 L771 1035 L786 1026 L792 1020 L796 1012 L796 1002 L792 994 L795 991 L798 984 Z M414 885 L415 884 L416 885 L415 886 Z M415 884 L416 883 L417 884 L416 885 Z M347 881 L348 880 L349 881 L348 882 Z M919 876 L920 875 L921 877 L920 878 Z M729 865 L738 864 L739 865 L747 865 L748 866 L757 867 L781 876 L795 885 L809 899 L818 911 L827 926 L835 944 L839 957 L840 968 L841 969 L841 982 L840 983 L839 994 L836 1002 L830 1012 L829 1010 L832 1001 L832 977 L831 976 L829 962 L822 942 L815 928 L804 911 L790 896 L784 892 L757 880 L730 872 L727 868 Z M727 864 L725 869 L728 873 L734 876 L741 877 L757 882 L774 890 L776 890 L787 896 L800 909 L812 927 L822 947 L827 962 L829 976 L830 977 L830 986 L831 987 L830 1002 L826 1015 L821 1024 L822 1025 L833 1012 L839 1000 L842 988 L842 963 L841 962 L840 953 L836 941 L827 922 L811 898 L796 883 L789 878 L775 871 L757 865 L741 863 L740 862 L732 862 Z M744 779 L748 778 L749 779 L762 781 L777 786 L794 794 L808 802 L825 814 L846 834 L866 861 L879 887 L883 899 L885 913 L886 914 L886 938 L885 939 L879 919 L868 895 L856 875 L844 859 L829 843 L811 828 L789 814 L764 801 L752 793 L743 784 L742 781 Z M743 777 L740 782 L741 785 L746 791 L760 801 L789 816 L809 829 L825 842 L843 861 L857 880 L874 912 L883 937 L886 953 L888 945 L888 915 L887 914 L887 908 L884 895 L877 877 L870 864 L852 838 L827 813 L802 796 L782 786 L766 780 L749 776 Z M479 718 L482 722 L480 745 L479 746 L475 770 L470 790 L461 818 L453 838 L444 855 L437 865 L417 884 L416 882 L432 856 L445 827 L456 791 L457 784 L459 780 L471 731 L475 721 Z M435 717 L437 719 L436 732 L435 733 L435 738 L434 739 L434 744 L433 745 L433 750 L429 765 L429 769 L420 800 L411 819 L411 821 L397 843 L378 863 L365 873 L355 879 L349 881 L348 880 L349 877 L365 853 L387 815 L414 757 L420 741 L430 721 Z M521 715 L524 719 L524 733 L523 734 L523 743 L522 744 L522 751 L520 758 L519 774 L518 775 L518 786 L517 787 L518 809 L519 810 L519 833 L518 834 L518 855 L517 856 L517 871 L516 872 L514 869 L513 843 L512 842 L512 831 L511 830 L511 819 L510 818 L509 750 L510 749 L512 730 L515 720 L519 715 Z M479 716 L476 717 L473 720 L469 730 L454 790 L440 834 L429 857 L402 901 L409 896 L440 865 L448 853 L459 830 L471 795 L481 752 L483 733 L484 732 L484 722 L482 718 Z M387 715 L388 716 L388 722 L384 739 L381 746 L381 749 L373 771 L361 797 L353 810 L339 828 L326 840 L317 845 L313 846 L312 844 L333 816 L349 791 L371 748 L376 735 L385 717 Z M436 715 L433 715 L427 722 L397 788 L397 790 L384 816 L366 847 L343 883 L343 885 L348 884 L361 878 L379 865 L398 845 L410 827 L421 803 L432 765 L435 745 L437 739 L437 734 L438 733 L438 726 L439 725 L439 720 Z M387 714 L388 713 L389 714 L388 715 Z M807 712 L811 713 L823 725 L860 767 L887 801 L898 818 L910 842 L920 872 L919 876 L906 852 L887 822 L862 791 L839 766 L816 737 L807 722 L806 719 L806 713 Z M522 713 L516 714 L513 719 L509 733 L508 746 L507 747 L507 758 L506 759 L506 784 L507 785 L508 824 L509 825 L509 837 L510 838 L510 849 L511 850 L511 861 L512 862 L512 874 L513 875 L513 886 L514 887 L515 904 L516 904 L516 898 L517 897 L519 861 L520 860 L520 845 L521 844 L520 779 L521 778 L521 769 L522 768 L522 761 L523 760 L525 739 L526 738 L526 726 L527 725 L526 717 Z M805 711 L804 713 L804 720 L809 730 L831 760 L854 785 L885 823 L910 863 L925 892 L925 894 L927 894 L920 864 L915 849 L906 830 L906 828 L898 814 L872 778 L823 722 L813 712 L809 710 Z M720 700 L723 705 L723 710 L724 711 L724 725 L723 726 L722 735 L719 741 L715 731 L715 721 L714 718 L715 717 L716 705 L717 702 Z M759 698 L763 704 L766 716 L774 731 L782 740 L788 744 L792 745 L793 746 L792 747 L779 749 L773 747 L765 739 L759 727 L758 718 L757 717 L757 701 Z M368 698 L369 699 L367 706 L356 728 L343 749 L322 779 L312 789 L307 790 L306 789 L307 785 L348 729 L359 712 L362 705 L366 699 Z M721 698 L718 698 L716 700 L713 708 L713 715 L712 716 L712 724 L713 725 L714 736 L718 745 L721 743 L723 739 L725 731 L725 725 L726 724 L726 711 L724 703 Z M369 696 L364 698 L348 725 L340 735 L325 758 L307 781 L304 787 L304 793 L308 793 L314 790 L324 780 L339 759 L358 729 L369 707 L371 698 Z M507 666 L508 665 L512 665 L513 666 L512 667 L508 667 Z M527 662 L528 661 L529 662 L528 663 Z M529 661 L530 660 L531 661 L530 662 Z M931 660 L932 659 L933 660 L932 661 Z M966 657 L964 659 L961 670 L963 669 Z M333 654 L328 657 L321 670 L307 705 L295 731 L295 733 L298 730 L309 706 L321 675 L328 661 L332 657 L333 658 L332 666 L319 705 L317 708 L315 716 L308 731 L308 733 L298 751 L300 751 L305 744 L317 717 L320 706 L322 703 L327 686 L333 671 L335 663 L335 657 Z M710 652 L711 651 L712 652 L711 653 Z M874 651 L875 650 L876 651 L875 652 Z M875 649 L876 648 L877 650 L876 651 Z M876 648 L877 647 L878 648 L877 649 Z M884 632 L877 644 L869 654 L858 665 L845 675 L824 686 L818 688 L808 689 L801 686 L817 680 L836 670 L855 657 L866 648 L883 631 Z M537 632 L538 631 L539 633 L538 634 Z M883 631 L884 630 L885 631 L884 632 Z M884 629 L885 628 L886 630 L885 631 Z M885 628 L886 627 L887 628 L886 629 Z M899 623 L901 623 L905 628 L911 646 L915 653 L922 659 L931 660 L932 661 L930 663 L926 665 L919 666 L914 664 L908 658 L900 638 L899 630 L898 629 L898 624 Z M966 623 L965 623 L965 629 L962 642 L953 665 L942 681 L929 694 L922 699 L911 704 L903 706 L887 707 L886 706 L880 706 L867 703 L843 694 L839 694 L835 698 L836 702 L844 709 L854 715 L874 724 L888 728 L906 729 L907 728 L916 727 L927 722 L935 716 L949 700 L958 683 L961 675 L960 674 L952 691 L941 707 L932 716 L926 720 L911 726 L896 727 L875 722 L865 718 L863 716 L861 716 L845 707 L837 700 L837 698 L839 696 L843 696 L866 705 L879 708 L886 708 L887 709 L896 709 L897 708 L908 707 L923 701 L929 697 L945 681 L955 666 L962 650 L963 643 L964 642 L965 644 L967 643 L967 626 Z M930 597 L931 596 L933 597 L932 598 Z M963 592 L964 591 L965 593 L964 594 Z M569 604 L569 602 L572 599 L579 596 L587 594 L592 594 L593 593 L600 593 L601 592 L619 592 L620 591 L654 593 L655 594 L668 596 L675 600 L675 603 L672 605 L654 603 L653 602 L641 602 L640 601 L605 601 L604 602 L589 603 L578 606 L571 606 Z M964 591 L965 590 L966 591 L965 592 Z M965 589 L966 588 L967 589 L966 590 Z M567 602 L568 606 L574 609 L584 606 L589 606 L596 604 L606 604 L607 603 L638 603 L639 604 L652 604 L653 605 L673 607 L677 604 L677 599 L674 596 L655 591 L637 590 L636 589 L610 589 L609 590 L600 590 L599 591 L586 592 L578 595 L575 595 L571 597 Z M964 588 L961 593 L955 599 L950 602 L946 603 L938 602 L932 598 L933 597 L946 598 L956 594 L963 587 Z M963 587 L964 586 L965 587 L964 588 Z M964 586 L965 585 L966 586 L965 587 Z M973 571 L974 570 L975 571 L974 572 Z M368 563 L375 561 L400 561 L401 562 L424 563 L425 564 L436 565 L452 569 L466 574 L480 581 L502 596 L519 612 L535 634 L539 644 L539 651 L532 657 L522 661 L510 662 L509 663 L488 663 L487 662 L474 661 L458 657 L434 647 L418 637 L407 628 L390 609 L376 585 Z M551 557 L552 556 L553 557 L552 558 Z M550 556 L551 555 L552 556 L551 557 Z M549 555 L550 554 L551 555 L550 556 Z M547 554 L548 553 L549 554 L548 555 Z M681 553 L682 552 L683 553 L682 554 Z M546 553 L547 552 L548 553 L547 554 Z M545 552 L546 551 L547 552 L546 553 Z M544 551 L545 550 L546 551 L545 552 Z M543 550 L544 549 L545 550 L544 551 Z M542 549 L543 548 L544 549 L543 550 Z M539 545 L540 544 L541 545 L540 546 Z M885 544 L883 554 L877 571 L869 587 L859 602 L843 620 L824 635 L814 641 L794 650 L776 655 L764 656 L763 657 L736 657 L735 656 L725 655 L712 649 L711 643 L714 634 L722 619 L730 608 L748 589 L759 580 L774 570 L798 558 L824 550 L834 549 L840 547 L846 547 L847 546 L864 545 L865 544 L876 544 L877 543 L884 543 Z M558 543 L559 542 L560 543 L559 544 Z M967 542 L968 541 L969 542 L968 543 Z M557 542 L558 541 L559 542 L558 543 Z M556 541 L557 540 L558 541 L557 542 Z M332 537 L334 536 L339 539 L352 542 L364 542 L365 541 L373 541 L374 540 L387 539 L388 538 L416 538 L417 539 L424 539 L425 540 L430 540 L442 543 L455 548 L466 555 L477 565 L492 571 L506 579 L520 593 L529 606 L535 618 L538 631 L537 632 L527 617 L510 599 L492 585 L466 571 L445 564 L430 562 L429 561 L422 561 L421 560 L413 560 L412 559 L365 559 L365 563 L369 575 L382 602 L400 625 L411 635 L422 643 L436 651 L453 658 L474 664 L491 665 L492 666 L506 666 L507 667 L506 668 L488 669 L487 670 L465 670 L464 669 L455 669 L454 668 L444 667 L425 661 L405 651 L391 642 L381 634 L366 618 L356 603 L349 589 L340 563 L337 549 Z M676 535 L677 534 L678 535 L677 536 Z M550 534 L551 533 L557 540 L556 541 Z M975 532 L974 566 L972 568 L972 570 L966 581 L959 589 L949 595 L937 596 L929 593 L921 586 L913 582 L916 576 L920 562 L922 560 L928 566 L939 571 L948 571 L955 568 L962 561 L966 555 L970 546 L970 543 L973 536 L973 532 L974 531 Z M328 530 L335 550 L335 553 L345 585 L355 606 L367 623 L382 638 L399 650 L429 665 L442 669 L458 671 L459 672 L494 672 L495 671 L509 670 L529 665 L539 658 L542 650 L542 634 L536 614 L529 601 L519 588 L509 578 L503 574 L479 563 L460 548 L449 543 L436 539 L426 538 L420 536 L412 536 L411 535 L394 535 L393 536 L385 536 L384 537 L378 537 L370 539 L359 539 L358 540 L357 539 L343 538 L332 533 Z M546 529 L547 528 L551 533 L550 534 Z M545 528 L546 527 L547 528 L546 529 Z M544 527 L545 526 L546 527 L545 528 Z M543 526 L544 525 L545 526 L544 527 Z M542 525 L543 524 L544 525 L543 526 Z M541 524 L542 523 L543 524 L542 525 Z M540 523 L541 522 L542 523 L541 524 Z M708 521 L709 523 L695 542 L683 553 L682 551 L688 542 Z M685 519 L686 518 L687 519 L686 520 Z M711 517 L712 519 L709 522 L708 520 Z M686 518 L687 517 L688 518 L687 519 Z M512 518 L513 517 L514 518 L513 519 Z M711 517 L712 516 L713 517 L712 518 Z M687 517 L688 516 L689 517 L688 518 Z M510 517 L511 516 L512 517 L511 518 Z M712 516 L713 515 L714 516 L713 517 Z M688 516 L689 515 L690 516 L689 517 Z M508 516 L509 515 L510 516 L509 517 Z M713 515 L714 514 L715 515 L714 516 Z M689 515 L690 514 L691 515 L690 516 Z M507 515 L508 514 L509 515 L508 516 Z M505 514 L506 513 L507 514 L506 515 Z M739 513 L740 512 L741 513 L740 514 Z M714 513 L715 512 L716 513 L715 514 Z M503 513 L504 512 L506 513 L505 514 Z M740 512 L741 511 L742 512 L741 513 Z M715 512 L716 511 L717 512 L716 513 Z M692 511 L693 513 L691 515 L690 513 Z M741 511 L742 510 L743 511 L742 512 Z M716 511 L717 510 L718 511 L717 512 Z M692 511 L693 510 L694 511 L693 512 Z M742 510 L743 509 L744 510 L743 511 Z M693 510 L694 509 L695 510 L694 511 Z M743 509 L744 508 L745 509 L744 510 Z M694 509 L695 508 L696 509 L695 510 Z M526 509 L527 508 L528 509 L527 510 Z M744 508 L745 507 L746 508 L745 509 Z M718 508 L719 507 L720 508 L719 509 Z M695 508 L696 507 L697 508 L696 509 Z M745 507 L746 506 L748 507 L747 508 Z M719 507 L720 506 L721 507 L720 508 Z M747 506 L748 505 L749 506 L748 507 Z M720 506 L721 505 L722 506 L721 507 Z M748 505 L749 504 L750 505 L749 506 Z M721 505 L722 504 L723 505 L722 506 Z M521 505 L522 504 L523 505 L522 506 Z M749 504 L750 503 L751 504 L750 505 Z M699 503 L700 505 L697 508 L696 506 Z M520 504 L521 503 L522 504 L521 505 Z M750 503 L751 502 L752 503 L751 504 Z M699 503 L700 502 L701 503 L700 504 Z M583 502 L586 506 L591 518 L592 527 L589 532 L584 528 L581 518 L581 505 Z M309 503 L310 502 L322 514 L331 520 L347 525 L366 525 L372 523 L386 522 L387 521 L404 521 L405 522 L418 523 L427 526 L441 526 L442 527 L450 528 L466 535 L479 544 L489 549 L491 549 L508 559 L519 568 L531 581 L540 593 L548 608 L553 626 L553 648 L552 649 L551 659 L548 666 L539 673 L531 677 L510 683 L498 684 L497 685 L489 685 L488 686 L462 686 L461 685 L447 684 L423 677 L397 665 L375 650 L358 633 L348 619 L339 602 L330 576 L319 528 Z M751 502 L752 501 L753 502 L752 503 Z M723 502 L724 501 L725 502 L724 503 Z M700 502 L701 501 L702 502 L701 503 Z M517 502 L518 501 L519 502 L518 503 Z M308 502 L309 501 L310 502 L309 503 Z M724 501 L725 500 L726 501 L725 502 Z M701 501 L702 500 L703 501 L702 502 Z M516 501 L517 500 L518 501 L517 502 Z M752 501 L754 499 L756 500 L754 502 Z M725 500 L726 499 L727 500 L726 501 Z M702 500 L703 499 L704 500 L703 501 Z M581 500 L579 503 L579 507 L578 508 L580 524 L585 533 L591 534 L593 532 L594 528 L593 517 L587 503 L584 500 Z M515 500 L516 499 L517 500 L516 501 Z M755 499 L756 498 L757 499 L756 500 Z M726 499 L727 498 L728 499 L727 500 Z M638 498 L640 502 L641 517 L640 518 L639 528 L635 532 L632 527 L632 514 L633 513 L634 505 Z M513 499 L514 498 L515 499 L514 500 Z M756 498 L757 497 L758 498 L757 499 Z M727 498 L728 497 L729 498 L728 499 Z M512 498 L513 497 L514 498 L513 499 Z M757 497 L758 496 L759 497 L758 498 Z M511 497 L512 496 L513 497 L512 498 Z M758 496 L759 495 L760 496 L759 497 Z M728 496 L729 495 L730 496 L729 497 Z M706 495 L707 497 L704 500 L703 498 Z M659 495 L660 496 L661 512 L660 513 L658 527 L654 531 L652 528 L652 512 L656 498 Z M615 495 L617 502 L617 522 L615 528 L611 531 L608 528 L607 516 L608 515 L608 510 L610 502 L613 496 Z M539 496 L540 495 L541 496 L540 497 Z M729 495 L730 494 L731 495 L730 496 Z M638 495 L636 496 L633 501 L630 513 L630 528 L631 531 L634 534 L639 532 L642 525 L642 503 L641 499 Z M538 495 L539 494 L540 495 L539 496 Z M508 495 L509 494 L510 495 L509 496 Z M759 495 L761 493 L763 494 L761 496 Z M730 494 L731 493 L732 494 L731 495 Z M537 494 L538 493 L539 494 L538 495 Z M507 494 L508 493 L509 494 L508 495 Z M762 493 L763 492 L764 493 L763 494 Z M731 493 L732 492 L733 493 L732 494 Z M536 493 L537 492 L538 493 L537 494 Z M505 493 L506 492 L507 493 L506 494 Z M763 492 L764 491 L765 492 L764 493 Z M732 492 L733 491 L734 492 L733 493 Z M615 492 L611 495 L608 501 L605 513 L605 526 L607 531 L612 534 L616 531 L619 521 L619 502 L617 494 Z M535 492 L536 491 L537 492 L536 493 Z M504 492 L505 491 L506 492 L505 493 Z M764 491 L765 490 L766 491 L765 492 Z M733 491 L734 490 L735 491 L734 492 Z M659 491 L656 493 L653 499 L650 511 L650 516 L649 517 L650 531 L652 534 L656 534 L658 532 L662 520 L663 503 L662 502 L662 496 Z M534 491 L535 490 L536 491 L535 492 Z M503 491 L504 490 L505 491 L504 492 Z M765 490 L766 489 L767 490 L766 491 Z M711 489 L712 491 L707 496 L706 494 Z M533 490 L534 489 L535 490 L534 491 Z M501 490 L502 489 L503 490 L502 491 Z M711 489 L712 488 L713 489 L712 490 Z M532 489 L533 488 L534 489 L533 490 Z M500 489 L501 488 L502 489 L501 490 Z M766 489 L768 487 L770 488 L768 490 Z M712 488 L713 487 L714 488 L713 489 Z M531 488 L532 487 L533 488 L532 489 Z M498 488 L499 487 L500 488 L499 489 Z M916 487 L914 514 L913 515 L913 522 L912 523 L910 540 L900 572 L890 592 L880 607 L872 617 L853 636 L834 650 L805 665 L782 673 L769 676 L754 677 L753 678 L739 676 L725 670 L716 662 L711 655 L712 652 L717 655 L726 658 L737 659 L738 660 L759 660 L760 659 L768 659 L769 658 L774 658 L787 655 L816 643 L839 627 L856 610 L872 587 L882 566 L889 542 L888 540 L856 542 L855 543 L848 543 L847 544 L841 544 L840 545 L825 547 L798 555 L777 565 L757 578 L733 600 L722 614 L714 627 L708 644 L706 643 L705 639 L705 624 L706 620 L714 604 L723 591 L741 573 L754 563 L784 544 L798 537 L818 531 L849 517 L869 514 L882 510 L900 500 L915 486 Z M769 487 L770 486 L771 487 L770 488 Z M530 487 L531 486 L532 487 L531 488 Z M497 487 L498 486 L499 487 L498 488 Z M770 486 L771 485 L772 486 L771 487 Z M529 486 L530 485 L531 486 L530 487 Z M496 486 L497 485 L498 486 L497 487 Z M771 485 L772 484 L773 485 L772 486 Z M528 485 L529 484 L530 485 L529 486 Z M494 485 L495 484 L496 485 L495 486 Z M772 484 L773 483 L774 484 L773 485 Z M739 484 L740 483 L741 484 L740 485 Z M716 483 L717 485 L714 488 L713 486 Z M527 484 L528 483 L529 484 L528 485 Z M493 484 L494 483 L495 484 L494 485 Z M740 483 L741 482 L742 483 L741 484 Z M716 483 L717 482 L718 483 L717 484 Z M526 483 L527 482 L528 483 L527 484 Z M492 483 L493 482 L494 483 L493 484 Z M741 482 L742 481 L743 482 L742 483 Z M717 482 L718 481 L719 482 L718 483 Z M525 482 L526 481 L527 482 L526 483 Z M490 482 L491 481 L492 482 L491 483 Z M742 481 L743 480 L744 481 L743 482 Z M718 481 L719 480 L720 481 L719 482 Z M489 481 L490 480 L491 481 L490 482 Z M778 479 L779 480 L774 484 L773 483 Z M743 480 L744 479 L745 480 L744 481 Z M487 480 L488 479 L490 480 L489 481 Z M778 479 L779 478 L780 479 L779 480 Z M744 479 L745 478 L746 479 L745 480 Z M522 479 L524 478 L526 481 L525 482 Z M486 479 L487 478 L488 479 L487 480 Z M919 478 L907 491 L889 504 L875 510 L867 512 L862 512 L861 513 L856 513 L855 514 L850 514 L844 516 L824 526 L792 537 L769 550 L742 569 L720 591 L710 606 L703 621 L703 625 L702 626 L703 641 L706 650 L712 661 L722 671 L731 676 L744 680 L766 679 L767 678 L784 675 L811 665 L835 652 L853 639 L867 626 L883 607 L894 590 L902 573 L908 557 L913 537 L915 519 L916 518 L916 510 L917 509 Z M779 478 L780 477 L781 478 L780 479 Z M745 478 L746 477 L747 478 L746 479 Z M521 478 L522 477 L523 478 L522 479 Z M485 478 L486 477 L487 478 L486 479 Z M780 477 L781 476 L782 477 L781 478 Z M746 477 L747 476 L748 477 L747 478 Z M483 477 L484 476 L486 477 L485 478 Z M747 476 L748 475 L749 476 L748 477 Z M723 475 L724 477 L720 481 L719 479 Z M482 476 L483 475 L484 476 L483 477 Z M748 475 L749 474 L750 475 L749 476 Z M723 475 L724 474 L725 475 L724 476 Z M481 475 L482 474 L483 475 L482 476 Z M749 474 L750 473 L751 474 L750 475 Z M479 474 L480 473 L482 474 L481 475 Z M750 473 L751 472 L752 473 L751 474 Z M478 473 L479 472 L480 473 L479 474 Z M787 471 L788 472 L782 477 L781 476 Z M751 472 L752 471 L753 472 L752 473 Z M477 472 L478 471 L479 472 L478 473 Z M752 471 L753 470 L754 471 L753 472 Z M475 471 L476 470 L478 471 L477 472 Z M474 470 L475 469 L476 470 L475 471 Z M471 468 L473 467 L475 469 L473 470 Z M470 467 L471 466 L472 467 L471 468 Z M759 465 L760 464 L761 465 L760 466 Z M760 464 L761 463 L762 464 L761 465 Z M466 464 L468 463 L471 466 L469 467 Z M761 463 L762 462 L763 463 L762 464 Z M762 462 L763 461 L764 462 L763 463 Z M463 462 L465 461 L467 463 L465 464 Z M763 461 L764 460 L765 461 L764 462 Z M462 461 L463 460 L464 461 L463 462 Z M764 460 L765 459 L766 460 L765 461 Z M765 459 L766 458 L767 459 L766 460 Z M459 459 L461 458 L463 460 L461 461 Z M766 458 L767 457 L768 458 L767 459 Z M767 457 L768 456 L770 457 L769 458 Z M769 456 L770 455 L771 456 L770 457 Z M770 455 L771 454 L772 455 L771 456 Z M771 454 L772 453 L773 454 L772 455 Z M772 453 L773 452 L774 453 L773 454 Z M773 452 L775 450 L777 451 L775 453 Z M776 450 L777 449 L778 450 L777 451 Z M777 449 L778 448 L779 449 L778 450 Z M931 444 L932 445 L932 467 L931 468 L930 495 L929 496 L929 504 L928 505 L928 517 L940 525 L949 527 L959 523 L962 520 L970 503 L971 507 L967 524 L963 532 L958 538 L954 540 L947 541 L936 538 L925 532 L924 541 L921 552 L925 552 L926 551 L940 555 L949 555 L955 553 L961 549 L967 542 L968 546 L962 558 L954 566 L948 569 L937 568 L927 562 L920 556 L915 573 L910 583 L910 585 L918 586 L933 602 L941 605 L947 605 L954 602 L963 593 L964 595 L959 604 L955 608 L946 611 L932 609 L918 601 L914 597 L909 589 L908 589 L900 605 L888 622 L859 651 L850 658 L826 673 L799 685 L797 685 L797 687 L806 691 L821 690 L844 678 L853 672 L874 651 L875 652 L874 655 L868 663 L851 679 L836 689 L817 698 L807 698 L799 695 L791 687 L775 692 L763 693 L762 694 L739 693 L726 689 L712 680 L703 670 L696 658 L692 645 L691 632 L690 631 L691 630 L691 621 L694 609 L697 604 L697 602 L706 587 L714 577 L736 557 L761 540 L782 528 L822 512 L834 506 L852 501 L864 499 L878 494 L888 489 L898 482 L912 469 Z M783 444 L784 445 L779 449 L778 448 Z M823 444 L789 472 L787 471 L806 454 L821 443 Z M783 444 L784 443 L785 444 L784 445 Z M822 443 L823 442 L824 443 L823 444 Z M823 442 L825 440 L827 441 L825 443 Z M826 440 L827 439 L828 440 L827 441 Z M789 439 L790 440 L785 444 L784 443 Z M827 439 L828 438 L829 439 L828 440 Z M830 437 L831 436 L832 437 L831 438 Z M831 436 L832 435 L833 436 L832 437 Z M835 433 L836 432 L837 433 L836 434 Z M837 432 L838 431 L839 432 L838 433 Z M838 431 L839 430 L840 431 L839 432 Z M840 430 L841 429 L842 430 L841 431 Z M841 429 L842 428 L844 429 L843 430 Z M843 428 L844 427 L845 428 L844 429 Z M844 427 L845 426 L847 427 L846 428 Z M846 426 L848 424 L850 425 L848 427 Z M397 420 L398 419 L401 420 L414 429 L442 445 L460 458 L458 459 L442 448 L411 430 Z M394 418 L396 417 L398 419 L396 420 Z M350 417 L352 416 L367 430 L388 445 L442 474 L454 482 L488 501 L504 512 L502 513 L492 507 L490 507 L453 489 L451 489 L403 462 L372 440 Z M391 416 L393 415 L395 417 L393 418 Z M349 416 L350 415 L351 416 L350 417 Z M348 415 L349 414 L350 415 L349 416 Z M388 414 L390 413 L392 415 L390 416 Z M825 413 L791 440 L789 439 L813 419 L823 412 Z M386 413 L387 412 L389 413 L388 414 Z M385 412 L386 411 L387 412 L386 413 Z M824 412 L826 410 L828 411 L826 413 Z M384 411 L385 410 L386 411 L385 412 Z M345 411 L346 410 L349 414 L348 415 Z M382 410 L383 409 L384 410 L383 411 Z M344 410 L345 409 L346 410 L345 411 Z M827 410 L829 408 L831 409 L829 411 Z M381 409 L382 408 L383 409 L382 410 Z M343 409 L344 408 L345 409 L344 410 Z M830 408 L831 407 L832 408 L831 409 Z M379 408 L380 407 L381 408 L380 409 Z M342 408 L343 407 L344 408 L343 409 Z M378 407 L379 406 L380 407 L379 408 Z M341 407 L342 406 L343 407 L342 408 Z M831 407 L833 405 L835 406 L833 408 Z M340 406 L341 405 L342 406 L341 407 Z M375 405 L376 404 L377 405 L376 406 Z M339 405 L340 404 L341 405 L340 406 Z M834 405 L836 403 L838 404 L836 406 Z M374 404 L375 403 L376 404 L375 405 Z M837 403 L838 402 L839 403 L838 404 Z M372 403 L373 402 L374 403 L373 404 Z M371 402 L372 401 L373 402 L372 403 Z M838 402 L840 400 L842 401 L840 403 Z M369 401 L370 400 L371 401 L370 402 Z M368 400 L369 399 L370 400 L369 401 Z M841 400 L843 398 L845 399 L843 401 Z M367 399 L368 398 L369 399 L368 400 Z M844 398 L845 397 L846 398 L845 399 Z M845 397 L846 396 L848 397 L847 398 Z M364 397 L366 396 L368 398 L366 399 Z M901 396 L884 408 L857 421 L851 425 L849 424 L857 418 L871 411 L873 409 L885 404 L899 395 Z M847 396 L848 395 L849 396 L848 397 Z M900 395 L901 394 L902 395 L901 396 Z M848 395 L849 394 L850 395 L849 396 Z M901 394 L902 393 L904 394 L903 395 Z M849 394 L850 393 L852 394 L851 395 Z M903 393 L904 392 L905 393 L904 394 Z M851 393 L852 392 L853 393 L852 394 Z M904 392 L905 391 L906 392 L905 393 Z M852 392 L853 391 L854 392 L853 393 Z M906 391 L907 390 L908 391 L907 392 Z M854 391 L855 390 L856 391 L855 392 Z M907 390 L908 389 L909 390 L908 391 Z M855 390 L856 389 L857 390 L856 391 Z M857 389 L858 388 L859 389 L858 390 Z M858 388 L859 387 L860 388 L859 389 Z M861 386 L862 385 L863 386 L862 387 Z M862 385 L863 384 L864 385 L863 386 Z M865 383 L866 382 L867 383 L866 384 Z M403 382 L405 381 L441 407 L498 454 L519 473 L522 477 L521 478 L519 477 L494 455 L459 428 L439 410 Z M400 380 L402 379 L404 381 L402 382 Z M399 379 L400 378 L401 379 L400 380 Z M396 377 L398 376 L400 378 L398 379 Z M758 375 L759 377 L732 428 L715 452 L700 467 L699 463 L706 450 L725 421 Z M758 374 L759 373 L760 375 L759 376 Z M392 374 L394 373 L397 376 L395 377 Z M759 373 L760 372 L761 373 L760 374 Z M389 372 L391 371 L393 373 L391 374 Z M760 371 L761 370 L762 371 L761 372 Z M931 370 L896 395 L877 406 L862 413 L843 425 L795 461 L768 486 L737 512 L710 538 L693 558 L689 565 L688 570 L694 565 L708 547 L733 522 L808 458 L817 452 L839 434 L867 418 L886 409 L900 400 L911 391 Z M313 367 L319 379 L334 402 L348 419 L376 446 L402 464 L433 482 L456 494 L458 494 L467 499 L487 507 L520 525 L531 535 L541 551 L547 557 L554 562 L557 561 L556 557 L540 541 L535 534 L524 523 L473 490 L466 487 L428 464 L395 447 L368 428 L338 399 L321 378 L315 368 Z M447 362 L449 361 L470 375 L496 395 L513 410 L549 450 L552 458 L550 459 L545 456 L521 432 L476 391 Z M446 361 L447 360 L448 361 L447 362 Z M445 360 L446 359 L447 360 L446 361 Z M436 352 L440 358 L481 399 L508 423 L544 458 L549 461 L552 461 L554 459 L554 456 L551 449 L528 422 L512 406 L496 392 L467 370 L447 357 Z M773 351 L748 384 L710 439 L697 462 L696 465 L696 470 L697 471 L702 469 L713 458 L734 429 L748 402 L750 400 L770 360 Z M867 344 L846 361 L810 396 L780 420 L725 475 L724 474 L735 460 L750 444 L790 406 L813 386 L835 364 L855 349 L865 343 Z M866 343 L868 341 L870 342 L868 344 Z M869 341 L870 340 L871 341 L870 342 Z M871 340 L872 339 L873 340 L872 341 Z M343 340 L345 339 L370 355 L390 371 L388 372 L358 352 Z M872 339 L873 338 L874 339 L873 340 Z M341 339 L342 338 L344 339 L343 340 Z M340 338 L341 337 L342 338 L341 339 Z M313 338 L314 337 L315 338 L314 339 Z M338 337 L339 336 L340 337 L339 338 Z M312 337 L313 336 L314 337 L313 338 Z M337 336 L338 335 L339 336 L338 337 Z M311 336 L312 335 L313 336 L312 337 Z M728 333 L729 336 L713 380 L680 445 L672 454 L670 452 L671 444 L685 408 L705 370 Z M928 333 L926 333 L922 337 L918 339 L866 380 L832 403 L798 428 L766 455 L732 488 L715 509 L689 537 L682 546 L678 556 L682 557 L691 550 L698 542 L715 518 L735 494 L767 462 L814 424 L869 384 L909 351 Z M728 332 L729 331 L730 333 L729 334 Z M729 330 L730 329 L731 330 L730 331 Z M735 320 L733 320 L732 323 L721 339 L705 367 L701 372 L687 398 L687 400 L677 421 L676 426 L668 446 L668 454 L670 457 L673 456 L681 447 L696 416 L706 399 L706 397 L714 382 L714 380 L721 365 L731 336 Z M314 320 L315 322 L350 349 L374 366 L398 381 L436 410 L449 422 L501 463 L526 486 L547 508 L564 522 L560 515 L550 503 L520 471 L492 446 L465 425 L442 405 L398 374 L358 344 Z M298 320 L328 364 L353 392 L395 422 L401 425 L418 437 L449 455 L494 487 L524 510 L559 547 L563 549 L565 548 L562 541 L546 523 L527 505 L505 488 L501 486 L458 453 L394 414 L373 400 L357 387 L365 396 L363 397 L359 394 L340 375 L328 361 L314 339 L315 338 L322 344 L320 341 L300 320 Z M903 319 L865 340 L841 356 L829 366 L806 389 L763 428 L731 461 L686 514 L675 529 L672 535 L670 543 L682 535 L693 525 L695 521 L678 535 L677 534 L681 528 L702 506 L729 474 L764 438 L788 416 L821 389 L853 358 L902 321 Z M687 287 L688 288 L687 299 L675 347 L667 367 L664 378 L662 381 L644 436 L638 449 L636 451 L635 450 L636 436 L640 420 L642 416 L642 413 L644 409 L644 406 L646 402 L646 399 L648 395 L648 392 L652 382 L652 379 L671 324 Z M523 286 L536 312 L541 327 L547 340 L549 348 L551 351 L562 384 L562 387 L565 394 L565 397 L568 404 L571 417 L578 437 L578 442 L577 443 L572 438 L566 428 L547 385 L530 329 L530 325 L527 316 L527 312 L523 296 L523 291 L522 290 Z M688 284 L689 285 L688 288 L687 287 Z M519 277 L521 296 L522 297 L525 317 L541 375 L543 378 L551 401 L563 427 L573 443 L575 445 L579 446 L581 442 L580 435 L572 413 L572 410 L558 364 L556 361 L549 339 L537 309 L521 277 Z M611 269 L612 270 L613 283 L614 284 L616 317 L617 318 L617 369 L616 370 L616 380 L615 381 L615 390 L614 391 L614 401 L613 402 L610 436 L607 443 L604 438 L603 422 L602 421 L601 385 L600 384 L600 361 L601 360 L601 341 L602 340 L604 305 L605 304 L608 276 L609 275 L609 271 Z M302 266 L305 265 L316 270 L337 287 L339 287 L363 298 L375 305 L399 322 L410 327 L412 329 L407 332 L388 331 L370 326 L353 318 L333 304 L315 287 L305 274 Z M301 265 L302 264 L303 265 L302 266 Z M694 264 L668 325 L652 371 L652 374 L646 391 L646 394 L644 398 L644 401 L642 405 L642 408 L640 412 L640 415 L638 419 L634 435 L633 450 L635 454 L640 450 L646 436 L667 374 L669 371 L675 351 L677 348 L677 345 L681 335 L687 311 L690 291 L691 290 L691 285 L692 284 L693 271 L695 265 Z M299 262 L300 268 L304 276 L313 288 L327 302 L344 315 L366 327 L382 332 L393 333 L394 334 L408 334 L413 331 L413 328 L410 325 L401 321 L371 300 L349 289 L340 286 L315 267 L302 262 Z M611 257 L608 266 L608 271 L607 272 L605 288 L604 289 L604 295 L603 296 L601 321 L600 322 L599 356 L598 357 L598 393 L599 394 L600 424 L601 425 L601 433 L602 434 L603 442 L607 446 L611 440 L611 436 L612 435 L614 410 L615 409 L615 402 L616 401 L616 392 L617 391 L617 383 L618 382 L618 368 L619 367 L619 323 L618 322 L618 309 L617 308 L616 289 L615 288 L615 282 L614 281 Z M907 186 L908 190 L900 215 L891 233 L880 249 L856 273 L834 289 L830 291 L827 291 L825 288 L829 280 L836 270 L869 236 Z M911 179 L908 181 L903 189 L895 198 L893 202 L867 235 L840 262 L831 273 L824 285 L823 289 L825 293 L828 294 L835 291 L863 270 L877 256 L885 246 L894 232 L905 208 L910 188 Z M352 177 L353 176 L371 189 L381 199 L393 208 L413 218 L415 218 L439 234 L455 251 L460 259 L461 262 L459 265 L451 265 L438 259 L419 245 L392 231 L381 223 L368 210 L362 202 L355 189 Z M350 174 L350 180 L358 199 L367 212 L379 224 L395 235 L415 245 L439 262 L451 267 L459 267 L461 266 L462 259 L460 255 L451 243 L441 233 L419 218 L395 207 L385 200 L361 179 L353 174 Z M852 125 L853 126 L852 127 L852 132 L847 146 L838 163 L823 185 L805 206 L786 224 L774 233 L770 235 L767 235 L766 234 L766 230 L771 219 L794 184 L830 142 L843 130 Z M854 122 L850 123 L838 132 L816 154 L795 179 L786 191 L769 218 L763 233 L765 237 L770 237 L776 234 L789 224 L805 209 L824 187 L841 162 L850 144 L854 131 L854 124 L855 123 Z M460 82 L469 101 L469 103 L480 122 L486 130 L507 151 L517 166 L526 184 L532 202 L533 211 L534 212 L534 218 L532 221 L529 220 L518 209 L503 190 L489 169 L481 152 L480 141 L469 128 L462 115 L458 99 L458 84 Z M458 74 L458 78 L456 83 L457 107 L465 126 L478 142 L477 143 L478 150 L487 170 L496 184 L517 211 L527 221 L531 223 L534 222 L536 219 L535 205 L529 185 L522 170 L506 146 L482 121 L467 94 L460 75 Z M748 57 L750 59 L751 63 L752 84 L751 85 L751 95 L750 96 L749 109 L744 129 L742 133 L742 136 L732 162 L723 179 L713 194 L705 202 L703 202 L702 201 L703 183 L713 142 L736 80 L743 67 L745 61 Z M750 51 L744 59 L735 77 L711 141 L701 181 L699 199 L702 204 L707 203 L715 195 L720 188 L735 161 L744 137 L744 134 L746 130 L751 110 L752 98 L753 97 L753 87 L754 86 L754 70 L753 69 L753 62 Z M623 48 L626 52 L630 69 L632 87 L633 88 L633 96 L634 97 L634 110 L635 111 L635 150 L634 151 L634 161 L633 162 L632 176 L631 177 L628 194 L624 200 L620 197 L617 186 L615 169 L614 168 L614 161 L613 160 L613 151 L612 150 L612 103 L613 102 L613 92 L614 91 L614 84 L615 83 L617 67 Z M623 42 L618 56 L614 73 L613 84 L612 85 L611 106 L610 107 L610 149 L611 150 L612 168 L613 169 L613 174 L614 175 L614 180 L615 181 L615 186 L619 199 L624 202 L627 200 L629 196 L634 175 L635 160 L636 159 L636 143 L637 142 L637 122 L636 121 L635 93 L634 92 L632 73 L624 42 Z M622 24 L669 26 L670 27 L700 29 L701 30 L707 30 L708 31 L714 31 L715 32 L736 35 L760 41 L767 44 L770 44 L787 50 L812 62 L835 77 L865 101 L892 128 L907 146 L943 197 L954 217 L964 244 L964 247 L966 251 L970 267 L972 286 L973 287 L973 294 L974 295 L975 317 L976 318 L976 334 L977 335 L975 528 L972 530 L965 542 L956 550 L948 553 L941 553 L929 549 L925 550 L924 549 L926 536 L927 535 L929 537 L938 541 L946 543 L950 543 L958 540 L964 534 L967 529 L971 517 L972 505 L973 504 L973 489 L963 514 L955 523 L949 525 L944 524 L930 516 L932 483 L933 482 L933 468 L934 467 L934 438 L935 437 L933 437 L915 462 L898 479 L885 488 L866 496 L850 500 L846 500 L833 504 L828 507 L789 522 L768 533 L743 549 L726 562 L710 578 L701 590 L694 603 L689 619 L688 641 L689 642 L691 668 L692 669 L695 703 L696 704 L696 711 L697 712 L697 721 L698 722 L701 760 L702 761 L702 771 L703 772 L703 781 L704 782 L704 792 L705 793 L705 803 L706 804 L706 814 L707 815 L709 856 L710 857 L710 874 L711 875 L711 892 L712 893 L712 932 L708 937 L689 944 L668 947 L667 948 L648 949 L647 950 L593 951 L592 950 L576 950 L575 949 L564 949 L563 948 L552 947 L541 943 L537 938 L537 914 L536 910 L537 909 L537 873 L538 872 L538 851 L539 850 L540 817 L541 816 L541 802 L542 801 L543 775 L544 774 L544 763 L545 762 L545 751 L546 750 L549 706 L550 705 L553 668 L554 667 L554 660 L555 659 L557 632 L555 631 L554 620 L549 604 L541 590 L531 577 L517 563 L508 556 L486 544 L483 544 L474 537 L457 528 L443 524 L432 524 L431 523 L425 523 L408 519 L383 519 L382 520 L376 520 L363 523 L344 522 L337 520 L327 515 L309 498 L304 495 L305 500 L308 505 L317 530 L329 581 L337 603 L346 620 L356 634 L365 644 L382 658 L396 667 L422 679 L441 685 L458 687 L459 688 L493 688 L494 687 L501 687 L502 686 L512 685 L533 679 L544 673 L550 667 L551 668 L550 680 L549 681 L549 690 L548 691 L548 699 L547 700 L547 709 L546 710 L546 721 L545 722 L543 754 L542 755 L542 764 L541 765 L538 820 L537 821 L536 858 L535 859 L535 883 L534 884 L534 938 L536 942 L543 947 L554 950 L568 951 L569 952 L580 952 L581 953 L640 953 L641 952 L662 951 L663 950 L670 950 L671 949 L676 949 L677 948 L682 948 L695 945 L712 938 L715 930 L715 905 L714 904 L714 881 L713 880 L711 834 L710 833 L710 821 L709 820 L709 809 L708 808 L708 797 L707 796 L707 785 L706 784 L706 774 L705 773 L705 765 L704 764 L703 745 L702 744 L701 726 L700 725 L700 717 L699 716 L699 708 L698 707 L698 699 L697 698 L697 689 L696 688 L696 681 L695 680 L695 671 L694 670 L694 663 L693 662 L694 659 L702 673 L713 684 L727 692 L737 695 L756 696 L757 697 L755 700 L755 705 L754 706 L755 720 L757 728 L761 737 L768 746 L775 750 L779 751 L788 750 L798 746 L798 745 L793 744 L787 741 L776 730 L768 715 L764 701 L762 698 L763 696 L777 694 L788 690 L791 690 L794 694 L806 700 L816 700 L833 693 L853 680 L871 662 L879 650 L889 628 L886 627 L893 618 L896 624 L896 629 L900 646 L906 659 L915 667 L922 668 L930 665 L943 653 L941 653 L939 655 L931 658 L926 658 L920 655 L915 649 L911 640 L909 632 L904 623 L901 621 L897 622 L893 618 L898 612 L909 593 L917 603 L929 610 L940 613 L945 613 L956 609 L963 601 L969 589 L970 583 L972 579 L972 575 L973 574 L974 575 L973 644 L972 645 L972 667 L971 668 L969 715 L968 716 L968 728 L967 729 L967 739 L966 740 L966 749 L965 750 L963 774 L962 775 L962 781 L961 782 L961 788 L960 789 L960 795 L958 802 L955 826 L954 827 L951 847 L950 848 L946 872 L944 877 L941 896 L938 905 L938 909 L926 957 L910 1008 L891 1055 L877 1083 L863 1107 L838 1142 L825 1157 L824 1154 L826 1148 L826 1136 L825 1135 L825 1130 L818 1108 L810 1094 L800 1082 L794 1067 L787 1055 L782 1050 L778 1050 L776 1052 L775 1060 L776 1061 L780 1082 L785 1093 L793 1104 L803 1125 L811 1146 L816 1166 L803 1179 L793 1187 L765 1205 L763 1204 L768 1196 L768 1192 L769 1191 L769 1173 L767 1166 L761 1155 L741 1134 L734 1118 L733 1110 L730 1100 L725 1090 L720 1085 L717 1085 L714 1088 L713 1091 L713 1106 L714 1107 L714 1111 L715 1112 L719 1133 L724 1148 L729 1156 L737 1164 L741 1166 L746 1171 L750 1182 L750 1200 L747 1213 L731 1219 L706 1225 L694 1226 L693 1227 L685 1227 L684 1228 L674 1228 L673 1229 L668 1229 L667 1228 L669 1226 L672 1219 L674 1201 L673 1200 L673 1193 L671 1186 L669 1155 L668 1154 L668 1147 L666 1140 L666 1134 L664 1127 L662 1109 L659 1099 L657 1097 L655 1097 L652 1103 L652 1114 L651 1115 L651 1160 L652 1161 L651 1213 L652 1214 L653 1224 L655 1228 L651 1230 L592 1229 L587 1223 L584 1215 L584 1200 L592 1173 L593 1151 L592 1150 L592 1144 L590 1136 L584 1119 L575 1101 L570 1094 L566 1095 L565 1103 L573 1134 L574 1157 L565 1186 L564 1206 L566 1214 L570 1221 L575 1226 L574 1227 L566 1227 L565 1226 L559 1226 L558 1225 L543 1223 L513 1213 L503 1208 L494 1199 L489 1190 L487 1183 L487 1171 L490 1160 L497 1143 L498 1129 L499 1128 L497 1082 L496 1081 L496 1074 L495 1073 L494 1056 L491 1051 L488 1051 L485 1054 L483 1061 L482 1089 L481 1090 L481 1125 L474 1152 L474 1171 L475 1172 L475 1176 L481 1190 L487 1197 L486 1198 L483 1197 L462 1181 L432 1151 L406 1117 L393 1097 L382 1076 L380 1074 L365 1044 L365 1042 L352 1014 L351 1009 L342 988 L329 949 L319 909 L317 905 L317 901 L312 883 L306 851 L309 849 L322 845 L332 838 L347 822 L360 803 L372 779 L383 750 L390 722 L390 712 L388 711 L383 716 L361 762 L361 764 L359 766 L352 781 L339 803 L306 849 L305 848 L303 830 L301 823 L301 817 L299 810 L297 788 L296 787 L296 779 L295 778 L295 771 L294 770 L293 751 L292 750 L291 731 L290 730 L290 719 L289 718 L289 705 L288 704 L287 684 L291 678 L297 662 L297 659 L301 649 L301 646 L305 635 L313 603 L313 599 L316 589 L316 583 L317 582 L317 561 L315 562 L313 566 L298 612 L295 625 L288 642 L289 643 L292 638 L314 570 L315 571 L315 581 L314 582 L314 588 L311 598 L311 602 L303 634 L296 656 L296 659 L288 678 L286 672 L286 655 L285 654 L283 581 L282 580 L282 548 L281 547 L281 509 L280 508 L278 337 L279 336 L279 322 L280 321 L280 313 L281 312 L282 300 L291 263 L305 225 L323 190 L343 159 L365 132 L401 97 L434 71 L456 56 L469 49 L497 40 L517 35 L544 31 L545 30 L568 28 L569 27 L580 27 L581 26 L621 25 Z M585 23 L584 24 L573 24 L572 25 L563 25 L562 26 L554 26 L553 27 L534 29 L533 30 L509 34 L490 40 L487 40 L472 45 L459 51 L432 69 L391 102 L362 131 L351 144 L325 181 L313 202 L301 227 L296 242 L294 245 L284 277 L284 281 L280 295 L278 313 L277 314 L276 340 L275 341 L278 545 L279 546 L279 576 L280 577 L280 605 L281 606 L281 632 L282 633 L284 691 L285 692 L285 704 L286 705 L286 717 L287 718 L289 751 L290 752 L293 787 L294 788 L300 836 L301 837 L301 842 L302 843 L303 853 L304 854 L309 883 L311 888 L311 892 L320 928 L324 939 L324 942 L340 991 L344 999 L345 1004 L353 1024 L361 1040 L361 1042 L379 1078 L393 1102 L409 1126 L437 1161 L461 1184 L487 1203 L513 1216 L536 1224 L553 1227 L554 1228 L567 1229 L568 1230 L591 1231 L592 1232 L670 1232 L671 1231 L691 1230 L692 1229 L699 1229 L700 1228 L715 1226 L748 1216 L771 1205 L781 1199 L805 1181 L834 1151 L847 1135 L865 1109 L878 1087 L896 1051 L912 1011 L929 957 L941 909 L943 896 L945 891 L945 887 L946 886 L946 882 L947 881 L947 877 L948 876 L948 872 L949 871 L949 867 L950 866 L950 862 L951 861 L951 857 L957 831 L961 803 L962 802 L965 773 L967 765 L968 748 L969 747 L969 738 L970 737 L972 702 L973 701 L973 686 L974 685 L975 645 L976 644 L976 613 L977 612 L978 454 L979 453 L979 398 L980 397 L980 335 L979 334 L979 318 L978 317 L978 306 L977 305 L977 296 L976 295 L974 273 L973 272 L969 251 L958 219 L950 203 L916 153 L895 127 L868 100 L833 72 L814 60 L794 50 L763 39 L735 32 L730 32 L729 31 L713 29 L712 28 L705 28 L704 27 L697 27 L696 26 L689 26 L688 25 L679 25 L678 24 L667 24 L666 23 L649 23 L648 22 Z" fill="#eef3f4" fill-rule="evenodd"/>
</svg>
