<svg xmlns="http://www.w3.org/2000/svg" width="1254" height="1254" viewBox="0 0 1254 1254">
  <title>0259</title>
  <path d="M663 1065 L664 1064 L666 1065 L665 1066 Z M665 1064 L666 1063 L668 1064 L667 1065 Z M561 1062 L563 1064 L581 1071 L583 1070 L590 1073 L594 1073 L583 1069 L580 1070 Z M552 1051 L565 1060 L569 1061 Z M675 1048 L654 1059 L661 1057 Z M686 1031 L663 1043 L681 1035 Z M732 1030 L734 1028 L736 1029 L734 1031 Z M699 1023 L688 1029 L692 1028 L699 1024 Z M746 1021 L737 1029 L735 1028 L744 1020 Z M745 1020 L746 1019 L747 1020 L746 1021 Z M746 1019 L747 1018 L748 1019 L747 1020 Z M747 1018 L748 1017 L749 1018 L748 1019 Z M748 1017 L749 1016 L750 1017 L749 1018 Z M749 1016 L750 1015 L751 1016 L750 1017 Z M755 1011 L756 1012 L751 1016 L750 1015 Z M755 1011 L756 1010 L757 1011 L756 1012 Z M756 1010 L757 1009 L758 1010 L757 1011 Z M494 1000 L510 1017 L522 1025 L512 1018 Z M771 995 L762 1004 L760 1005 L759 1004 L760 1005 L756 1009 L752 1011 L732 1029 L705 1046 L732 1030 L733 1031 L729 1035 L701 1053 L687 1058 L673 1065 L671 1064 L674 1061 L670 1064 L668 1062 L656 1068 L648 1070 L639 1075 L631 1077 L612 1078 L611 1079 L598 1079 L594 1077 L590 1077 L589 1076 L588 1077 L596 1080 L606 1080 L607 1081 L629 1079 L630 1078 L634 1078 L640 1075 L644 1075 L653 1072 L670 1064 L672 1066 L689 1058 L696 1056 L710 1049 L737 1031 L759 1010 Z M774 987 L775 986 L776 987 L775 988 Z M775 986 L776 985 L777 986 L776 987 Z M781 978 L766 994 L762 1001 L774 987 L775 988 L774 990 L776 989 L782 980 L781 981 L780 980 Z M713 969 L709 974 L708 972 L705 974 L700 980 L701 983 L686 997 L690 995 L704 983 L704 981 L702 983 L700 982 L708 973 L709 975 L708 976 L712 972 Z M519 963 L518 966 L520 967 L520 963 Z M516 963 L515 966 L516 966 Z M714 962 L715 961 L716 962 L715 963 Z M715 960 L716 959 L717 961 L716 962 Z M719 955 L720 957 L717 960 L716 958 Z M780 955 L779 955 L774 963 L764 975 L768 972 L779 958 Z M722 950 L723 952 L720 956 L719 954 Z M725 949 L723 951 L722 949 L720 950 L718 954 L713 959 L713 962 L711 966 L714 962 L715 964 L718 962 Z M461 944 L464 949 L478 965 L468 951 Z M519 943 L517 945 L517 949 L518 949 Z M452 937 L458 945 L461 952 L468 959 L460 949 L459 945 L455 939 Z M629 934 L628 933 L625 934 Z M474 932 L476 938 L484 950 L502 968 L486 951 L479 940 L477 934 Z M600 931 L603 932 L605 935 L612 935 L612 934 L607 934 L604 933 L603 931 Z M500 927 L506 931 L506 930 Z M441 926 L446 934 L445 936 L440 928 Z M600 926 L600 927 L604 928 L619 928 L618 927 Z M806 925 L805 925 L798 936 L798 939 Z M665 925 L657 930 L657 932 L661 930 Z M439 925 L440 924 L441 926 L440 927 Z M657 923 L645 924 L640 926 L621 927 L621 928 L636 928 L640 926 L642 927 L643 926 L651 926 L652 925 L656 925 Z M438 923 L439 922 L440 924 L439 925 Z M437 922 L438 921 L439 922 L438 923 Z M569 928 L571 929 L573 928 L574 929 L578 928 L580 929 L581 927 L595 928 L597 926 L587 926 L586 923 L579 923 L578 922 L570 921 L572 923 L577 923 L578 925 L575 927 L570 927 Z M672 919 L673 918 L675 919 L674 920 Z M555 918 L559 923 L565 925 L559 919 Z M740 916 L741 915 L742 917 L741 918 Z M741 915 L742 914 L743 915 L742 916 Z M742 914 L743 913 L744 914 L743 915 Z M483 914 L495 925 L487 916 Z M743 912 L744 911 L745 912 L744 913 Z M811 910 L810 910 L809 914 L807 916 L805 921 L806 922 Z M432 909 L433 908 L434 910 L433 911 Z M745 908 L746 907 L747 908 L746 909 Z M533 908 L537 911 L536 909 Z M746 906 L747 905 L748 906 L747 907 Z M701 898 L699 898 L696 901 L690 904 L687 907 L687 910 L684 913 L682 912 L680 913 L679 912 L671 918 L668 919 L667 921 L672 919 L673 920 L672 922 L673 922 L676 918 L684 914 L685 912 L687 912 L688 908 L691 905 L700 900 Z M514 893 L519 897 L517 894 Z M465 892 L471 903 L471 900 L468 894 Z M799 889 L798 889 L795 900 L793 903 L792 908 L790 910 L790 912 L796 899 Z M752 889 L745 904 L745 907 L739 916 L738 920 L740 917 L741 918 L740 924 L734 934 L732 940 L737 933 L740 927 L742 919 L747 910 L748 906 L747 904 L748 903 L749 904 L748 901 L751 896 L753 890 Z M485 889 L486 888 L487 889 L486 890 Z M484 887 L485 886 L486 888 L485 889 Z M483 886 L484 885 L485 886 L484 887 Z M469 886 L477 899 L473 891 Z M482 885 L483 884 L484 885 L483 886 Z M483 883 L482 885 L489 895 L490 894 L492 896 L491 898 L493 898 L496 901 L489 892 L487 887 Z M760 881 L758 886 L758 890 L760 885 Z M463 881 L466 889 L467 888 L465 882 Z M420 880 L428 900 L433 907 L432 909 L431 908 L433 913 L438 920 L437 922 L436 921 L442 934 L446 939 L445 937 L446 935 L449 940 L452 942 L448 937 L440 921 L433 912 L434 910 L437 914 L431 904 Z M800 878 L801 877 L802 879 L801 880 Z M711 874 L712 873 L713 874 L712 875 Z M712 873 L713 872 L714 873 L713 874 Z M728 872 L706 894 L706 896 L720 883 Z M713 872 L714 871 L715 872 L714 873 Z M505 870 L506 869 L507 870 L506 871 Z M536 865 L537 864 L539 865 L538 866 Z M454 864 L455 863 L456 865 L455 866 Z M599 863 L600 865 L603 866 L604 865 Z M528 863 L529 862 L533 862 L537 864 L536 865 L532 865 Z M488 863 L489 862 L490 863 L489 864 Z M492 862 L493 861 L494 862 L493 863 Z M487 862 L488 861 L489 862 L488 863 Z M456 862 L457 861 L458 862 L457 863 Z M486 861 L487 860 L488 861 L487 862 Z M768 860 L766 862 L762 874 L761 873 L762 868 L761 868 L759 877 L761 873 L762 874 L761 879 L765 871 Z M493 863 L498 859 L500 862 L497 864 L500 862 L506 869 L504 870 L496 866 Z M492 860 L493 859 L494 860 L493 861 Z M621 860 L620 861 L619 859 L615 862 L608 864 L606 866 L608 871 L611 872 L608 870 L607 868 L608 866 L616 863 L619 860 L621 862 Z M591 859 L592 861 L595 862 L594 860 Z M493 859 L494 858 L495 859 L494 860 Z M489 859 L490 858 L491 860 L490 861 Z M494 858 L495 857 L497 858 L496 859 Z M488 858 L489 857 L490 858 L489 859 Z M484 858 L485 857 L487 860 L486 861 Z M730 856 L731 855 L732 856 L731 857 Z M499 856 L500 855 L501 856 L500 857 Z M487 856 L488 855 L489 857 L488 858 Z M731 855 L732 854 L733 855 L732 856 Z M489 855 L490 854 L491 855 L490 856 Z M733 854 L734 853 L735 854 L734 855 Z M486 855 L487 853 L489 854 L487 856 Z M698 851 L698 853 L699 852 Z M485 851 L486 850 L488 851 L487 852 Z M713 850 L714 849 L715 850 L714 851 Z M637 850 L633 851 L623 857 L624 858 L628 857 L631 854 L637 851 Z M572 850 L573 852 L587 857 L576 851 Z M481 849 L482 850 L483 849 L485 852 L484 853 L485 856 L484 858 L481 855 L482 853 L481 854 L479 851 Z M734 848 L735 851 L732 854 L730 854 L729 853 Z M728 850 L726 854 L716 866 L701 881 L697 883 L694 883 L691 885 L687 884 L677 887 L672 890 L653 893 L648 895 L617 897 L616 898 L577 896 L576 895 L565 894 L541 886 L528 883 L512 872 L500 858 L502 856 L529 866 L539 868 L556 874 L561 874 L567 876 L576 876 L577 877 L585 877 L586 878 L618 879 L619 878 L640 877 L641 876 L659 873 L666 870 L675 868 L686 863 L701 859 L716 851 L719 851 L725 848 Z M715 849 L716 848 L717 849 L716 850 Z M483 849 L484 848 L485 849 L484 850 Z M832 848 L831 851 L832 851 Z M717 848 L718 847 L719 848 L718 849 Z M639 847 L641 850 L647 852 L658 852 L659 851 L649 851 L647 848 L648 849 L645 850 L641 849 Z M548 847 L549 848 L550 847 L564 847 L569 849 L569 848 L565 846 L549 846 Z M546 847 L545 846 L544 847 L531 848 L531 849 L539 849 L543 847 Z M740 845 L741 844 L742 845 L741 846 Z M740 843 L741 844 L739 846 L741 847 L742 846 L744 851 L727 865 L726 862 L725 862 L726 865 L722 869 L720 869 L717 872 L715 872 L714 871 L715 869 L728 855 L729 856 L728 859 L729 859 L732 856 L733 857 L737 854 L737 850 L734 847 L737 846 L736 844 L737 843 Z M517 845 L528 848 L528 847 L518 844 Z M748 840 L749 841 L749 845 L746 848 L742 842 Z M811 840 L812 839 L813 841 L812 842 Z M578 840 L577 842 L582 849 L584 849 L579 844 Z M750 839 L751 838 L752 839 L751 840 Z M636 839 L637 842 L638 842 L637 839 Z M455 839 L456 838 L457 839 L456 840 Z M766 837 L765 837 L765 852 L764 853 L765 855 L766 853 Z M406 837 L408 849 L414 865 Z M835 836 L836 835 L837 836 L836 837 Z M813 835 L814 836 L813 839 L812 838 Z M776 836 L774 837 L775 838 L774 846 L772 853 L772 859 L770 863 L773 857 Z M473 838 L470 841 L469 844 L470 851 L480 865 L512 899 L524 908 L530 914 L534 916 L529 910 L520 904 L493 878 L490 873 L475 856 L471 848 L471 843 L474 839 L483 839 L488 837 L493 837 L506 843 L509 842 L512 844 L515 844 L509 841 L506 842 L500 840 L498 838 L492 836 L487 836 L483 838 L477 838 L476 837 Z M639 835 L639 837 L640 836 Z M577 835 L578 834 L579 835 L578 836 Z M836 834 L837 833 L838 835 L837 836 Z M717 834 L714 834 L712 836 L709 836 L701 841 L689 845 L685 845 L679 847 L678 846 L675 848 L666 850 L674 850 L688 845 L692 845 L708 839 Z M443 834 L441 842 L441 850 L442 849 L441 844 L443 840 Z M814 831 L815 832 L814 835 L813 834 Z M636 832 L636 835 L637 835 L637 832 Z M457 832 L458 831 L459 832 L458 833 Z M720 831 L722 833 L725 833 L723 831 Z M345 831 L340 834 L340 835 L346 833 Z M754 840 L752 835 L746 830 L741 830 L747 832 L751 836 L751 838 L750 839 L747 838 L742 841 L737 841 L724 847 L719 848 L718 847 L720 845 L727 841 L725 841 L708 853 L705 852 L707 852 L708 853 L707 854 L705 854 L696 859 L690 860 L681 864 L678 863 L675 864 L673 867 L655 871 L652 873 L644 874 L643 875 L626 876 L625 877 L620 877 L619 876 L620 875 L612 875 L608 873 L602 874 L598 876 L584 876 L583 875 L574 875 L573 874 L562 873 L542 868 L536 862 L529 861 L528 863 L526 863 L525 862 L527 861 L521 859 L517 860 L513 859 L510 857 L495 852 L484 845 L481 848 L479 846 L476 847 L476 849 L478 850 L480 856 L494 872 L495 875 L509 889 L511 889 L493 871 L493 869 L489 865 L490 863 L505 872 L508 871 L515 878 L519 879 L526 884 L541 889 L544 889 L557 894 L565 896 L585 898 L586 899 L627 899 L628 898 L655 896 L663 893 L672 892 L684 887 L688 887 L689 886 L691 887 L700 884 L733 863 L745 852 L751 844 L752 845 L752 848 L749 855 L743 861 L733 875 L730 878 L728 877 L729 878 L721 887 L686 920 L675 928 L667 932 L647 937 L638 937 L637 936 L638 935 L631 935 L632 936 L636 936 L637 937 L636 938 L597 937 L596 936 L577 934 L574 933 L573 931 L565 930 L564 929 L559 930 L537 917 L542 922 L557 931 L559 931 L566 935 L577 935 L578 936 L599 938 L600 939 L632 940 L633 939 L651 938 L669 933 L675 930 L687 921 L717 893 L729 879 L738 871 L744 862 L749 858 L753 851 Z M736 830 L732 830 L727 832 L735 831 Z M576 830 L575 835 L577 838 L579 838 L578 836 L580 835 L578 831 Z M350 830 L352 831 L352 830 Z M838 828 L839 829 L838 833 L837 832 Z M464 828 L462 828 L459 832 L458 830 L457 831 L458 834 L451 842 L451 849 L455 861 L454 864 L450 855 L450 858 L460 879 L460 875 L461 874 L457 865 L459 863 L458 854 L457 853 L456 854 L457 857 L456 861 L452 848 L452 842 L455 839 L456 840 L456 851 L458 850 L458 838 L457 837 Z M448 826 L445 829 L444 832 L445 832 Z M337 826 L338 828 L338 826 Z M574 825 L575 828 L577 826 L578 827 L578 826 Z M771 824 L771 827 L772 827 L772 824 Z M461 824 L459 825 L459 828 Z M452 823 L453 822 L454 823 L453 824 Z M398 823 L404 855 L414 880 L403 849 L402 838 L400 835 L400 827 Z M815 821 L814 822 L814 828 L812 836 L802 860 L802 863 L811 842 L812 845 L805 866 L797 883 L794 894 L799 880 L800 879 L801 882 L802 880 L801 876 L804 871 L804 868 L806 865 L810 853 L810 850 L812 847 L812 844 L816 833 L816 830 L815 832 L814 831 Z M451 820 L452 819 L453 820 L452 821 Z M839 819 L835 834 L836 839 L837 839 L840 828 L839 829 L838 828 Z M776 819 L779 829 L780 828 L777 819 Z M345 818 L346 817 L347 819 L346 820 Z M899 815 L896 817 L898 817 Z M752 815 L753 814 L754 815 L753 816 Z M774 814 L776 817 L775 814 Z M751 814 L752 813 L753 814 L752 815 Z M458 814 L459 813 L460 814 L459 815 Z M889 813 L890 812 L891 813 L890 814 Z M459 813 L460 812 L461 813 L460 814 Z M752 812 L751 815 L753 818 L756 819 L759 827 L759 831 L761 832 L761 828 L758 819 L754 812 Z M452 811 L448 816 L450 815 Z M764 810 L771 822 L769 815 Z M893 808 L894 810 L892 812 L891 810 Z M467 809 L468 808 L469 809 L468 810 Z M905 808 L906 807 L907 808 L906 809 Z M571 808 L576 814 L573 809 Z M468 808 L469 807 L470 808 L469 809 Z M469 807 L470 806 L471 807 L470 808 Z M461 807 L459 807 L455 812 Z M744 806 L745 805 L746 806 L745 807 Z M470 806 L471 805 L472 806 L471 807 Z M905 805 L904 810 L906 811 L908 808 Z M471 805 L472 804 L473 805 L472 806 Z M472 804 L473 803 L474 804 L473 805 Z M341 804 L342 814 L344 820 L347 824 L346 821 L347 820 L349 821 L348 820 L349 819 L348 816 L349 815 L350 817 L351 816 L349 815 L345 818 L344 817 L342 809 L342 804 Z M903 803 L901 805 L899 812 L903 806 Z M900 803 L894 809 L893 808 L895 803 L894 802 L891 809 L886 814 L892 813 Z M743 802 L743 804 L745 805 L743 806 L744 807 L746 806 L751 809 L749 806 Z M473 803 L475 801 L477 802 L475 804 Z M335 802 L334 803 L333 818 L330 826 L330 831 L332 829 L332 824 L335 816 L337 823 L338 824 L341 823 L344 825 L343 822 L339 823 L338 822 L337 815 L335 814 Z M395 800 L395 809 L398 821 Z M634 799 L635 798 L636 799 L635 800 Z M477 799 L478 798 L479 799 L478 800 Z M632 798 L633 797 L634 798 L633 799 Z M629 798 L630 797 L631 798 L630 799 Z M773 797 L773 799 L776 802 L778 802 L775 797 Z M635 797 L636 796 L637 798 L636 799 Z M905 796 L903 797 L903 799 L905 798 Z M757 796 L757 797 L761 799 Z M572 798 L575 795 L578 796 L581 795 L584 797 L583 799 L573 799 Z M825 795 L822 800 L822 802 L825 797 Z M751 795 L752 794 L753 795 L752 796 Z M721 795 L722 794 L723 795 L722 796 Z M719 794 L720 793 L722 794 L721 795 Z M688 796 L688 798 L693 798 L690 794 Z M679 797 L673 799 L672 798 L676 795 L675 794 L671 798 L673 799 L672 800 L665 801 L665 802 L674 801 L676 799 L678 799 Z M651 795 L655 793 L658 794 L655 797 L653 797 Z M642 794 L643 793 L644 794 L643 795 Z M570 794 L571 793 L574 794 L572 796 Z M908 793 L908 798 L910 805 L911 803 L910 802 L909 793 Z M732 799 L731 797 L723 794 L721 792 L719 794 L707 794 L700 796 L700 797 L711 797 L708 796 L709 795 L716 795 L722 797 L724 795 Z M342 792 L342 799 L343 799 L343 793 Z M557 791 L558 790 L559 791 L563 790 L570 797 L566 798 L563 796 L564 794 L562 796 L560 794 L561 793 L559 794 Z M500 790 L501 789 L503 790 L502 791 Z M495 790 L491 792 L491 793 L493 793 Z M892 788 L891 788 L888 801 L890 799 L891 802 L892 798 L891 800 L890 797 L891 796 Z M820 787 L819 802 L821 798 L821 788 Z M746 787 L749 792 L752 794 L749 795 L749 796 L756 800 L764 808 L752 796 L754 794 Z M703 789 L705 789 L706 787 L708 790 L716 792 L715 790 L709 788 L708 786 Z M665 786 L666 787 L667 786 Z M554 790 L559 797 L561 797 L566 800 L570 800 L571 801 L585 800 L586 801 L601 803 L602 804 L601 805 L609 807 L611 806 L627 806 L635 804 L638 805 L642 804 L635 802 L639 798 L643 797 L646 792 L650 797 L653 798 L650 799 L649 801 L645 801 L644 803 L648 803 L650 801 L659 797 L660 795 L661 796 L661 794 L657 791 L651 789 L640 789 L630 794 L627 799 L629 798 L633 800 L635 802 L634 803 L613 804 L612 803 L607 803 L606 802 L601 802 L600 801 L587 799 L586 795 L583 791 L575 786 L560 786 L557 787 Z M691 785 L692 784 L693 786 L692 787 Z M512 787 L516 786 L513 785 Z M339 785 L340 788 L340 785 Z M692 783 L693 782 L694 783 L693 784 Z M541 783 L541 785 L545 789 L542 786 L542 783 Z M530 783 L531 782 L532 783 L531 784 Z M326 783 L325 806 L326 807 L326 813 L328 816 L328 811 L327 810 L327 791 L326 790 L327 789 L327 783 Z M511 782 L504 787 L500 788 L499 791 L495 794 L497 794 L499 792 L501 793 L505 791 L505 790 L502 789 Z M549 781 L546 783 L549 782 Z M529 781 L530 780 L531 782 L530 783 Z M485 781 L479 790 L477 789 L479 787 L478 787 L470 793 L469 796 L466 799 L476 789 L478 790 L475 794 L483 787 Z M674 779 L675 778 L676 779 L675 780 Z M663 779 L663 781 L670 783 L674 787 L676 791 L677 790 L672 783 Z M562 780 L561 779 L556 780 L552 782 L548 786 L552 783 Z M704 778 L701 782 L699 781 L699 783 L701 785 L702 785 L701 782 L704 780 Z M675 778 L676 777 L677 778 L676 779 Z M640 778 L641 777 L643 778 L642 779 Z M679 777 L680 776 L681 778 L680 779 Z M518 777 L519 780 L518 781 L520 782 L519 783 L520 784 L522 780 Z M516 777 L513 778 L515 781 Z M335 777 L334 779 L335 780 L335 799 L336 799 L337 782 L336 781 L336 777 Z M827 775 L826 776 L826 783 Z M724 775 L725 774 L726 775 L725 776 Z M461 775 L457 785 L461 780 L460 778 Z M907 774 L907 788 L908 790 L909 786 L908 785 L908 777 L907 776 L908 774 Z M681 773 L682 774 L681 777 L680 776 Z M505 774 L502 777 L503 779 L499 784 L503 781 L504 779 L503 777 Z M342 773 L341 773 L341 780 L342 779 Z M722 771 L723 772 L723 776 L726 775 L738 787 L747 792 L737 785 L730 777 Z M699 771 L697 773 L697 777 L700 779 L701 776 L699 778 L698 777 Z M559 770 L561 772 L565 772 L570 774 L570 772 Z M485 770 L481 774 L478 775 L472 782 L481 775 Z M554 769 L552 769 L540 776 L541 780 L543 779 L543 777 L547 773 L553 771 Z M597 768 L598 770 L601 771 L600 769 Z M576 772 L578 774 L586 773 L593 776 L596 776 L597 773 L601 775 L613 776 L614 777 L619 777 L626 774 L632 779 L640 780 L643 778 L648 781 L653 780 L657 782 L661 782 L660 778 L655 778 L651 780 L645 778 L642 775 L636 775 L636 776 L640 776 L641 777 L640 778 L632 777 L626 773 L627 768 L624 773 L614 776 L597 772 L596 774 L588 772 L586 773 L584 770 L587 766 L584 768 L583 771 Z M589 765 L589 766 L593 766 Z M506 765 L507 764 L508 765 L507 766 Z M400 765 L400 770 L399 771 L399 790 L400 791 L401 801 L399 804 L400 805 L401 813 L402 813 L401 807 L402 806 L403 808 L403 805 L401 800 L401 791 L400 790 Z M500 764 L498 765 L494 771 Z M706 761 L707 760 L708 761 L707 762 Z M824 760 L823 761 L823 767 L824 767 Z M680 759 L681 761 L680 762 L680 771 L677 778 L676 777 L674 780 L676 781 L679 778 L680 780 L682 778 L684 780 L683 785 L685 777 L684 776 L684 772 L681 770 L682 769 L682 765 L680 762 L682 760 Z M513 760 L515 761 L515 759 Z M396 759 L395 771 L396 772 L397 785 Z M696 758 L696 768 L697 768 L697 763 L696 762 L697 759 Z M509 754 L510 753 L511 754 L510 755 Z M510 752 L511 751 L512 752 L511 753 Z M469 752 L467 757 L465 758 L464 767 L463 768 L464 769 L467 762 Z M328 751 L328 758 L330 760 L330 765 L331 769 L332 769 L331 768 L331 763 Z M828 750 L829 753 L828 768 L829 768 L830 755 L829 754 L829 750 Z M511 750 L512 749 L513 751 L512 752 Z M680 749 L682 756 L683 756 L682 751 Z M512 749 L513 748 L514 749 L513 750 Z M900 747 L899 757 L898 758 L897 783 L899 764 L900 763 L900 754 L901 753 Z M513 747 L514 746 L515 747 L514 748 Z M690 746 L691 745 L692 746 L691 747 Z M514 745 L515 744 L516 746 L515 747 Z M515 744 L516 743 L517 744 L516 745 Z M584 740 L584 745 L586 746 L585 740 Z M441 739 L439 745 L439 759 L438 760 L438 766 L436 774 L437 774 L437 769 L439 765 L438 763 L440 757 Z M912 737 L912 744 L913 744 L913 738 Z M819 733 L820 745 L820 733 Z M651 728 L648 730 L649 731 L647 736 L652 729 Z M584 727 L583 729 L584 731 Z M443 727 L442 732 L443 731 Z M333 727 L333 729 L331 730 L331 756 L333 759 L334 773 L336 775 L335 753 L332 752 L332 741 L333 740 L332 733 L334 730 L334 727 Z M908 725 L909 726 L909 732 L908 733 L907 732 L907 726 Z M676 725 L677 724 L678 725 L677 726 Z M674 724 L675 723 L676 724 L675 725 Z M894 723 L893 725 L893 732 L894 733 L893 734 L893 755 L893 750 L894 749 Z M539 722 L531 725 L527 729 L521 742 L519 741 L517 744 L516 743 L514 744 L508 754 L510 756 L507 760 L507 762 L502 767 L499 773 L496 776 L493 773 L487 778 L488 780 L494 773 L496 777 L493 780 L492 779 L493 780 L491 782 L490 781 L491 783 L477 797 L475 797 L474 800 L461 813 L460 811 L454 818 L448 820 L445 823 L450 820 L452 821 L451 823 L453 824 L452 825 L453 829 L451 835 L455 827 L454 825 L456 823 L456 821 L454 820 L458 815 L461 816 L467 809 L469 810 L478 801 L486 798 L489 798 L493 795 L480 799 L478 798 L495 781 L506 765 L510 771 L511 775 L512 775 L511 771 L508 768 L509 766 L507 764 L507 762 L511 758 L514 751 L520 743 L521 744 L520 761 L523 772 L521 773 L522 777 L526 779 L529 785 L535 790 L534 791 L537 794 L543 797 L555 798 L555 797 L552 797 L545 793 L543 795 L540 794 L534 789 L531 785 L533 783 L530 780 L529 781 L528 780 L522 764 L522 746 L524 738 L531 727 L536 724 L541 724 Z M669 722 L669 724 L675 726 L682 733 L687 741 L691 753 L691 758 L693 765 L692 778 L689 786 L683 793 L683 795 L687 792 L691 786 L693 788 L695 784 L693 781 L694 778 L694 760 L693 759 L693 754 L691 750 L692 746 L708 765 L713 773 L731 790 L730 791 L731 790 L743 799 L738 793 L730 787 L713 770 L709 761 L705 760 L696 748 L688 740 L684 733 L677 726 L678 725 L680 726 L680 724 L674 721 L675 723 L674 724 Z M663 720 L662 719 L656 720 L654 723 L660 722 Z M845 718 L846 769 L845 770 L844 801 L845 793 L846 792 L846 782 L847 781 Z M672 718 L666 720 L669 720 Z M819 713 L826 731 L824 723 L820 713 Z M395 711 L394 712 L394 731 L395 731 L395 725 L396 724 L395 721 Z M392 702 L391 717 L393 709 Z M664 699 L666 707 L667 704 L666 700 Z M587 695 L585 700 L585 707 L584 708 L584 714 L586 717 L586 735 L587 736 L587 727 L588 726 L587 712 L586 711 Z M385 690 L384 697 L382 699 L382 703 L383 704 L383 728 L384 729 L384 741 L385 744 L386 742 L387 743 L387 738 L385 732 L385 722 L384 721 Z M807 688 L811 699 L811 703 L814 712 L815 711 L816 712 L817 724 L818 725 L818 729 L819 729 L816 707 L815 706 L815 708 L814 709 L813 708 L811 696 Z M665 688 L664 689 L665 690 Z M340 688 L339 691 L339 731 L339 726 L340 725 Z M589 683 L587 687 L587 693 L589 687 Z M664 680 L663 681 L665 686 Z M806 674 L812 684 L818 704 L820 707 L819 702 L814 691 L812 682 L809 676 Z M329 671 L330 670 L331 672 L330 673 Z M807 668 L810 672 L808 668 Z M806 663 L814 667 L818 671 L816 673 L819 678 L819 673 L816 666 L815 667 L808 663 Z M800 663 L800 664 L805 667 L803 664 Z M334 660 L335 661 L334 664 L333 663 Z M668 660 L669 672 L670 671 L670 667 Z M331 660 L332 659 L333 660 L332 661 Z M383 659 L382 660 L381 673 L379 678 L380 681 L380 706 L380 680 L381 679 L381 668 L382 667 Z M797 658 L804 660 L810 660 Z M559 657 L558 659 L558 667 L559 667 Z M784 656 L789 656 L790 655 Z M793 654 L793 655 L809 655 L823 659 L807 654 Z M674 652 L672 652 L673 661 Z M680 647 L679 648 L679 652 L680 651 Z M587 646 L586 646 L586 663 L585 664 L585 672 L586 673 L586 669 L587 668 Z M754 645 L750 646 L754 646 Z M685 646 L687 645 L685 645 Z M675 643 L676 642 L677 643 L676 644 Z M506 643 L507 642 L509 643 L508 644 Z M785 642 L760 645 L755 648 L762 646 L767 646 L772 644 L781 644 L785 643 Z M556 641 L555 641 L554 649 L555 650 Z M501 643 L507 645 L510 642 L505 641 L507 642 L506 643 L501 642 Z M787 641 L787 642 L801 642 L802 643 L807 642 L812 644 L821 645 L816 643 L802 642 L801 641 L805 640 L805 639 L797 639 L795 641 Z M694 639 L695 638 L696 639 L695 640 Z M673 639 L674 638 L675 640 L674 641 Z M679 640 L682 637 L684 640 L683 641 Z M738 637 L731 640 L735 640 Z M682 637 L683 636 L684 637 L683 638 Z M485 637 L492 640 L496 640 L488 637 Z M450 637 L461 639 L466 644 L469 644 L466 641 L464 641 L459 638 Z M905 636 L902 640 L901 639 L900 640 L902 644 L902 657 L903 658 L904 707 L907 708 L907 711 L904 712 L904 719 L905 719 L906 715 L907 714 L908 715 L908 722 L905 723 L906 736 L907 737 L907 749 L908 750 L908 759 L907 760 L907 771 L908 772 L909 770 L909 762 L910 761 L911 762 L911 760 L908 753 L909 750 L908 733 L909 732 L910 735 L910 720 L909 719 L908 702 L906 701 L906 687 L905 686 L904 648 L903 647 L903 640 L905 638 L907 640 L909 651 L911 652 L912 656 L913 671 L915 677 L914 694 L915 693 L916 683 L915 682 L915 667 L914 666 L913 655 L910 649 L908 639 L906 639 L905 638 L906 636 Z M683 636 L684 635 L685 636 L684 637 Z M752 636 L751 635 L750 636 L747 635 L748 636 L746 638 L741 640 L747 639 Z M684 635 L685 634 L686 635 L685 636 Z M503 635 L504 634 L507 635 L506 636 Z M421 636 L423 637 L426 635 L427 636 L431 635 L423 635 Z M685 634 L686 633 L687 634 L686 635 Z M489 632 L490 631 L491 632 L490 633 Z M427 632 L427 633 L431 633 L431 632 Z M800 631 L801 630 L803 631 L802 632 Z M700 629 L696 637 L690 639 L689 641 L688 640 L686 641 L684 639 L689 634 L690 631 L693 632 L692 633 L692 635 L693 635 L694 633 L696 633 L699 628 Z M682 629 L683 628 L685 629 L684 630 Z M590 629 L589 630 L590 641 L590 636 L591 635 Z M535 629 L536 628 L537 629 L536 630 Z M699 628 L700 627 L701 628 L700 629 Z M675 628 L673 629 L672 632 L674 631 Z M521 628 L522 627 L523 628 L522 629 Z M434 628 L436 629 L436 628 Z M765 627 L753 627 L737 633 L727 633 L725 632 L722 635 L725 634 L735 634 L747 631 L749 629 L758 629 L759 628 L765 628 Z M534 627 L535 626 L536 627 L535 628 Z M700 626 L701 625 L702 627 L701 628 Z M821 626 L816 629 L811 629 L806 626 L807 625 L815 626 L819 624 Z M701 625 L702 624 L703 625 L702 626 Z M556 623 L553 633 L555 633 L556 631 Z M520 623 L522 627 L521 628 L519 626 L517 626 L524 634 L526 634 L523 630 L524 629 L523 625 Z M432 624 L432 625 L444 628 L445 627 L452 627 L453 628 L451 629 L466 629 L472 631 L471 632 L466 632 L468 633 L473 633 L471 632 L472 631 L480 631 L489 634 L493 634 L494 633 L507 639 L522 640 L523 641 L520 642 L520 643 L523 643 L528 639 L525 637 L510 638 L506 636 L509 635 L507 633 L504 633 L502 635 L496 633 L487 628 L487 630 L489 631 L488 632 L483 630 L472 630 L468 628 L464 628 L463 626 L469 622 L467 622 L458 628 L455 627 L459 624 L455 626 L450 624 L448 624 L446 626 Z M805 621 L806 620 L807 621 L806 622 Z M909 620 L910 625 L910 620 Z M423 619 L424 618 L428 618 L429 619 L428 620 L424 620 Z M800 618 L801 617 L802 618 L801 619 Z M798 617 L799 616 L801 617 L800 618 Z M724 617 L725 616 L726 617 L725 618 Z M540 617 L541 616 L542 617 L541 618 Z M803 616 L804 615 L805 616 L804 617 Z M785 616 L784 617 L788 621 L788 619 Z M504 616 L505 615 L506 616 L505 617 Z M691 614 L692 613 L693 614 L692 615 Z M622 614 L623 623 L629 641 L628 634 L626 631 Z M431 614 L432 613 L433 614 L432 615 Z M423 614 L424 613 L425 615 L424 616 Z M424 613 L425 612 L427 613 L426 614 Z M696 613 L693 614 L691 612 L686 619 L691 614 L692 616 L688 620 L689 620 Z M628 612 L631 630 L631 622 Z M426 612 L427 611 L428 612 L427 613 Z M821 611 L822 610 L823 611 L822 612 Z M774 611 L774 612 L781 615 Z M730 611 L727 614 L725 614 L724 618 L714 631 L717 631 L718 627 L724 620 L726 621 Z M403 611 L403 613 L410 617 L412 617 L412 616 Z M570 610 L570 618 L571 618 Z M334 610 L334 626 L335 627 L335 641 L336 641 L336 621 L335 620 L335 611 Z M795 607 L796 606 L797 607 L796 608 Z M430 607 L431 606 L432 607 L431 608 Z M431 606 L432 605 L433 606 L432 607 Z M494 604 L494 605 L502 607 L497 604 Z M538 601 L539 600 L540 601 L539 602 Z M491 601 L492 600 L493 601 L492 602 Z M396 601 L399 605 L398 602 Z M741 600 L740 601 L735 601 L725 605 L704 619 L693 630 L690 628 L703 614 L707 612 L711 608 L717 605 L725 603 L730 600 L734 599 L740 599 Z M741 599 L742 598 L747 598 L748 599 L747 600 L742 600 Z M795 598 L799 600 L797 598 Z M754 599 L758 597 L761 597 L776 601 L778 600 L782 603 L791 605 L799 616 L797 617 L791 611 L785 609 L778 604 L763 600 L755 600 Z M717 596 L712 598 L706 603 L717 597 Z M623 595 L624 607 L624 595 Z M337 595 L335 597 L335 601 L337 599 Z M784 594 L789 595 L788 594 Z M697 594 L693 597 L691 597 L681 607 L673 618 L669 626 L671 625 L678 614 L678 612 L682 609 L684 605 L693 597 L697 595 Z M380 594 L378 598 L378 601 L379 601 L380 598 Z M830 616 L822 608 L817 605 L816 606 L821 612 L823 611 L826 613 L824 615 L823 619 L819 622 L808 616 L806 616 L804 614 L803 616 L797 610 L798 609 L797 610 L796 609 L797 607 L800 607 L809 614 L812 615 L806 609 L808 608 L812 611 L814 611 L805 606 L807 608 L805 609 L801 606 L802 605 L800 606 L795 603 L770 595 L768 596 L766 595 L750 595 L746 593 L740 596 L731 597 L721 601 L718 601 L704 610 L702 610 L699 613 L698 612 L699 613 L688 625 L685 625 L682 628 L679 629 L679 630 L682 629 L683 631 L675 639 L674 637 L677 632 L672 637 L671 634 L670 634 L669 639 L670 639 L671 636 L672 637 L672 642 L674 644 L673 646 L671 644 L672 648 L675 647 L681 642 L682 643 L686 642 L690 643 L695 641 L696 644 L698 644 L697 640 L705 624 L710 619 L730 607 L735 605 L748 604 L749 603 L757 603 L758 604 L770 605 L776 607 L788 613 L801 625 L810 630 L806 631 L797 627 L796 628 L801 630 L800 631 L786 632 L785 628 L787 626 L793 626 L792 625 L769 626 L768 627 L769 628 L771 627 L782 627 L783 626 L785 629 L782 633 L776 634 L772 636 L769 635 L764 637 L760 637 L737 644 L720 646 L721 647 L720 648 L714 648 L707 645 L702 645 L701 644 L702 641 L707 640 L715 636 L718 636 L720 635 L719 634 L707 639 L703 639 L700 643 L701 646 L704 647 L708 646 L710 649 L719 650 L751 642 L755 640 L759 640 L767 637 L775 637 L786 633 L805 633 L806 632 L812 632 L813 630 L816 630 L817 632 L820 632 L821 631 L817 630 L822 626 L824 626 L823 619 L826 614 L830 618 L830 621 L831 621 Z M525 593 L524 593 L524 595 L526 596 L523 597 L524 599 L527 597 Z M433 609 L435 607 L435 605 L439 602 L444 601 L456 595 L459 595 L463 593 L489 593 L491 592 L509 598 L516 602 L525 605 L537 617 L542 626 L540 627 L526 615 L512 605 L497 598 L486 597 L484 595 L471 596 L464 599 L461 599 L446 606 L436 614 L433 611 Z M439 592 L440 591 L441 592 L440 593 Z M907 591 L907 600 L909 606 L909 599 Z M441 591 L442 590 L443 591 L442 592 Z M849 590 L849 593 L851 596 L850 590 Z M741 590 L734 592 L737 592 Z M384 590 L383 590 L382 593 L383 593 Z M393 589 L393 592 L394 592 Z M755 588 L755 589 L758 589 L758 588 Z M712 588 L713 587 L714 588 L713 589 Z M412 609 L416 617 L414 619 L414 622 L416 623 L423 623 L415 620 L418 617 L425 622 L430 620 L432 621 L431 620 L435 617 L437 618 L435 620 L437 620 L438 621 L437 622 L439 622 L444 619 L448 620 L459 617 L478 622 L485 626 L501 627 L499 625 L495 625 L494 624 L492 626 L489 626 L484 623 L466 617 L453 617 L449 619 L448 618 L442 619 L439 621 L437 620 L447 609 L455 604 L458 604 L465 601 L468 602 L478 598 L479 599 L482 598 L483 599 L489 599 L491 601 L490 602 L488 601 L486 602 L485 601 L478 601 L471 604 L471 605 L476 603 L487 602 L488 601 L489 602 L493 601 L499 602 L510 608 L506 610 L504 609 L505 612 L504 616 L503 613 L501 613 L503 617 L507 618 L508 621 L515 630 L515 628 L507 618 L507 615 L509 614 L515 619 L506 612 L507 609 L511 613 L512 612 L509 609 L510 608 L519 613 L529 622 L532 626 L532 628 L536 632 L536 639 L535 640 L534 638 L532 638 L530 640 L534 639 L537 640 L538 638 L538 629 L539 628 L543 633 L540 636 L541 637 L544 637 L545 639 L547 639 L547 638 L544 637 L544 635 L547 634 L548 632 L551 637 L552 637 L551 633 L548 630 L541 618 L543 616 L537 611 L538 609 L534 609 L530 606 L531 604 L528 605 L525 602 L512 596 L507 595 L498 590 L489 590 L488 589 L486 590 L478 590 L477 589 L465 588 L453 592 L447 596 L444 596 L419 611 L416 614 L413 609 Z M764 587 L764 588 L768 588 L769 589 L780 590 L777 588 Z M516 587 L520 590 L519 588 Z M435 587 L433 588 L431 587 L426 590 L417 599 L411 601 L410 604 L414 601 L416 601 L426 592 Z M736 586 L731 586 L726 589 L732 587 L736 587 Z M496 584 L486 585 L482 587 L479 587 L479 588 L491 585 L496 585 Z M456 585 L454 584 L441 589 L436 594 L441 593 L450 586 Z M899 583 L897 585 L897 591 Z M779 583 L779 584 L788 589 L793 590 L791 588 L793 587 L799 590 L813 601 L806 593 L792 585 L791 586 L792 587 L790 588 L781 583 Z M699 591 L701 591 L709 585 L711 586 L712 590 L724 585 L724 584 L714 588 L713 586 L710 585 L712 583 L710 583 L700 589 Z M737 580 L729 582 L727 584 L733 583 L737 581 Z M584 580 L585 592 L585 582 Z M496 580 L496 581 L499 581 Z M761 579 L762 581 L772 582 L773 583 L775 582 L770 580 Z M385 579 L382 583 L380 591 L381 591 L383 584 L385 583 L384 582 Z M741 579 L742 580 L745 579 L757 580 L758 581 L754 583 L760 584 L757 582 L758 580 L755 578 L742 578 Z M723 577 L719 578 L718 580 L722 579 Z M572 577 L572 581 L570 583 L572 585 L572 603 L573 604 L575 627 L575 611 L574 610 L574 602 L573 601 L574 585 Z M464 577 L454 578 L448 580 L444 583 L456 579 L464 578 Z M545 576 L546 584 L548 587 L547 580 Z M497 575 L497 576 L500 576 L504 578 L506 577 L510 578 L519 583 L517 580 L504 574 L503 575 Z M471 574 L471 575 L474 575 L474 574 Z M593 573 L591 576 L591 588 L590 589 L590 611 L589 612 L590 622 Z M492 573 L492 574 L495 574 L495 573 Z M476 575 L489 575 L490 573 L481 573 L480 574 L476 574 Z M674 572 L675 571 L676 573 L675 574 Z M675 570 L676 569 L677 571 L676 572 Z M673 569 L674 568 L675 570 L674 571 Z M577 569 L578 577 L579 578 L579 608 L580 612 L581 612 L580 582 Z M536 569 L537 568 L538 569 L537 570 Z M845 567 L846 572 L849 578 L849 575 Z M535 567 L536 566 L537 568 L536 569 Z M676 565 L677 567 L675 569 L674 567 Z M384 566 L382 569 L381 575 L383 573 Z M336 566 L335 566 L334 588 L336 582 Z M534 565 L535 564 L536 566 L535 567 Z M667 564 L668 566 L667 564 L665 565 L663 569 L663 572 Z M678 562 L679 564 L677 566 L676 564 Z M678 561 L679 560 L680 562 L679 563 Z M658 561 L655 568 L654 576 L653 577 L652 610 L653 611 L653 616 L655 624 L660 635 L662 636 L656 622 L655 614 L654 613 L654 604 L653 603 L654 581 L655 580 L656 570 L659 563 Z M679 560 L680 559 L681 560 L680 561 Z M545 559 L544 561 L548 570 L551 582 L551 587 L552 588 L552 595 L550 596 L553 599 L553 618 L552 619 L547 608 L542 601 L528 587 L522 583 L522 584 L539 600 L538 601 L539 603 L540 601 L547 613 L550 616 L550 619 L548 622 L549 623 L550 619 L552 621 L552 625 L553 625 L554 622 L554 591 L553 590 L551 575 Z M390 558 L387 561 L387 565 L386 566 L388 564 Z M839 557 L842 562 L841 558 Z M682 556 L683 558 L681 560 L680 558 Z M662 555 L660 556 L659 559 L661 558 Z M592 555 L590 558 L590 562 L589 563 L589 570 L588 571 L589 574 L590 573 L590 566 L591 565 Z M524 552 L537 573 L538 579 L543 591 L539 580 L541 578 L539 577 L540 576 L540 572 L538 566 L535 562 L534 562 L535 563 L534 565 L526 553 Z M689 547 L678 558 L668 578 L669 578 L673 570 L674 571 L673 574 L674 573 L675 575 L672 579 L666 600 L666 607 L665 608 L666 616 L666 607 L667 606 L667 600 L669 595 L669 591 L672 582 L673 581 L675 582 L675 579 L678 572 L677 569 L685 555 L683 557 L682 555 Z M832 546 L834 550 L835 550 L834 547 Z M400 545 L394 553 L393 551 L390 554 L390 556 L393 552 L394 553 L399 548 Z M743 544 L736 545 L732 547 Z M683 543 L684 542 L685 543 L684 544 Z M665 543 L662 547 L664 546 Z M826 542 L827 541 L828 542 L827 543 Z M684 542 L685 541 L686 542 L685 543 Z M776 541 L785 545 L779 541 Z M825 540 L826 539 L827 541 L826 542 Z M504 540 L514 551 L516 551 Z M824 539 L825 538 L826 539 L825 540 Z M861 538 L865 553 L864 546 Z M823 538 L824 537 L825 538 L824 539 Z M895 537 L896 543 L898 547 L896 548 L897 559 L898 560 L897 562 L897 571 L898 571 L898 554 L899 553 L901 557 L901 569 L902 569 L902 561 L901 560 L900 550 L898 548 L898 541 L897 538 Z M822 537 L823 536 L824 537 L823 538 Z M531 537 L531 539 L541 553 L538 546 L533 538 Z M701 535 L694 540 L693 542 Z M558 534 L559 533 L560 534 L559 535 Z M402 534 L398 536 L399 539 L402 536 Z M735 536 L735 537 L745 537 L746 536 L747 537 L756 537 L757 538 L766 539 L763 537 L758 537 L757 536 L758 535 L766 535 L767 536 L778 537 L791 541 L791 540 L784 537 L776 535 L771 535 L770 534 L763 534 L762 533 L754 533 L753 534 L757 534 L758 535 L757 536 L744 536 L743 535 Z M557 532 L558 531 L559 533 L558 534 Z M501 532 L501 533 L512 540 L507 535 Z M556 531 L557 530 L558 531 L557 532 Z M813 530 L821 537 L829 547 L827 543 L828 542 L830 544 L827 539 L824 536 L822 537 L816 531 Z M555 530 L556 529 L557 530 L556 531 Z M554 529 L555 528 L556 529 L555 530 Z M446 529 L437 530 L421 537 L438 531 L442 532 L443 530 Z M676 528 L675 527 L671 529 L672 528 L673 530 L669 534 Z M553 527 L554 526 L555 527 L554 528 Z M449 528 L449 529 L471 528 L472 529 L468 530 L468 531 L472 531 L482 535 L486 535 L483 533 L474 531 L473 530 L474 529 L478 529 L474 527 L453 527 Z M552 526 L553 525 L554 526 L553 527 Z M551 525 L552 524 L553 525 L552 526 Z M822 524 L823 523 L824 524 L823 525 Z M708 524 L702 526 L687 537 L674 552 L669 561 L669 563 L673 555 L683 543 L684 544 L683 546 L684 546 L686 543 L685 541 L691 535 L705 527 Z M550 524 L551 523 L552 524 L551 525 Z M423 524 L415 529 L414 527 L403 538 L421 527 Z M549 523 L550 522 L551 523 L550 524 Z M409 522 L407 522 L402 525 L403 529 L409 524 Z M821 521 L819 525 L821 527 L825 526 L828 528 L828 526 Z M898 515 L900 519 L900 523 L902 529 L902 534 L903 535 L903 540 L904 541 L904 546 L905 547 L905 552 L906 553 L906 558 L909 571 L910 585 L911 586 L912 600 L913 601 L914 622 L915 623 L916 656 L917 657 L917 680 L918 681 L919 769 L918 770 L916 794 L910 811 L902 820 L898 822 L888 823 L880 819 L879 817 L881 811 L884 783 L885 782 L887 753 L888 752 L888 740 L889 739 L889 720 L890 719 L890 691 L891 690 L891 598 L890 597 L890 559 L889 558 L889 548 L891 547 L893 535 L895 530 L894 529 L896 525 L896 520 Z M571 516 L572 515 L574 518 L573 519 Z M796 515 L805 519 L812 524 L809 520 L803 516 Z M435 515 L430 518 L428 522 L432 521 L433 520 L432 519 L435 517 Z M403 519 L405 519 L407 517 L417 516 L417 515 L409 515 L404 517 Z M809 514 L811 516 L818 517 L825 521 L822 516 Z M691 514 L689 514 L680 519 L676 519 L668 523 L667 525 L677 520 L679 521 Z M895 513 L896 512 L897 513 L896 514 Z M571 513 L572 512 L573 514 L572 515 Z M538 513 L540 512 L543 515 L541 516 Z M859 511 L858 518 L866 536 L860 520 Z M854 511 L854 513 L856 515 Z M717 511 L709 513 L701 517 L701 518 L715 513 Z M570 511 L571 510 L572 511 L571 512 Z M535 511 L537 510 L539 512 L537 513 Z M679 509 L680 508 L682 509 L681 510 Z M569 509 L570 508 L571 509 L570 510 Z M532 509 L534 508 L536 510 L534 511 Z M513 509 L514 508 L515 509 L514 510 Z M803 508 L803 509 L813 510 L819 513 L819 511 L815 508 Z M530 508 L531 507 L533 508 L532 509 Z M518 508 L519 507 L520 508 L519 509 Z M511 508 L512 507 L513 508 L512 509 Z M765 507 L765 508 L775 509 L775 508 L772 507 Z M760 507 L761 508 L762 507 Z M681 508 L684 506 L687 507 L684 509 Z M529 507 L530 506 L531 507 L530 508 Z M508 507 L509 506 L510 507 L509 508 Z M445 508 L444 507 L442 508 L439 507 L426 515 L421 520 L424 519 L430 514 L436 513 L438 511 Z M686 506 L687 505 L689 506 L688 507 Z M568 506 L569 505 L570 507 L569 508 Z M520 506 L521 505 L523 506 L522 507 Z M471 507 L467 506 L460 508 L454 508 L448 510 L446 512 L440 514 L440 515 L444 515 L450 512 L458 511 L465 508 L471 508 Z M408 510 L409 511 L411 509 L412 510 L424 511 L424 509 L417 509 L415 506 L413 506 L412 508 L410 507 Z M688 505 L689 504 L691 505 L690 506 Z M659 505 L660 504 L661 505 L660 506 Z M654 505 L655 504 L656 506 L655 507 Z M562 505 L563 504 L564 505 L563 506 Z M518 505 L519 504 L521 505 L520 506 Z M708 504 L709 503 L711 504 L710 505 Z M690 504 L691 503 L693 504 L692 505 Z M567 504 L568 503 L569 505 L568 506 Z M789 503 L793 502 L795 505 L793 506 Z M710 503 L711 502 L713 503 L712 504 Z M566 502 L567 501 L568 503 L567 504 Z M721 505 L732 504 L733 503 L762 503 L761 502 L741 501 L740 502 L730 502 L729 503 L721 504 Z M716 502 L713 503 L712 501 L690 510 L689 512 L697 508 L698 509 L700 507 L703 508 L712 505 L716 506 L715 504 Z M665 501 L666 500 L667 501 L666 502 Z M643 501 L644 500 L645 502 L644 503 Z M457 501 L458 500 L459 501 L458 502 Z M813 506 L812 504 L809 503 L806 500 L804 501 L802 500 L782 501 L781 504 L774 501 L768 501 L770 502 L767 503 L767 504 L770 505 L779 504 L783 506 L784 505 L782 504 L785 503 L793 508 L801 505 L796 505 L795 504 L797 502 L802 502 Z M644 499 L645 498 L646 499 L645 500 Z M466 502 L466 504 L472 503 L474 501 L476 501 L477 503 L481 503 L482 504 L484 502 L488 502 L500 505 L513 511 L515 509 L514 507 L504 503 L498 504 L484 500 L473 499 L472 500 L468 500 L469 501 Z M856 498 L858 508 L858 503 Z M417 501 L417 503 L423 503 L428 505 L432 505 L429 503 L421 502 L420 501 L424 499 L425 500 L434 501 L437 503 L441 503 L440 501 L429 498 L420 498 Z M675 497 L676 496 L677 497 L676 498 Z M664 495 L665 496 L664 501 L666 502 L661 505 L660 501 Z M564 495 L567 499 L566 502 L563 499 Z M754 495 L737 496 L735 499 L729 499 L728 500 L737 500 L741 497 L755 497 Z M496 495 L497 497 L507 501 L509 499 L513 503 L516 504 L519 507 L517 508 L519 510 L523 511 L525 513 L524 514 L525 513 L528 515 L527 516 L540 525 L553 538 L530 514 L523 510 L522 507 L524 506 L530 509 L540 516 L555 531 L560 538 L562 539 L559 535 L560 534 L562 535 L551 522 L549 523 L542 516 L543 515 L545 516 L540 511 L531 505 L529 507 L527 507 L513 499 L509 498 L506 499 Z M471 496 L470 495 L461 496 L460 498 L452 500 L453 502 L457 501 L458 504 L464 497 Z M776 494 L777 493 L779 494 L778 495 Z M664 494 L665 493 L666 495 L665 496 Z M529 494 L530 493 L531 494 L530 495 Z M665 493 L666 492 L667 493 L666 494 Z M731 492 L730 493 L722 494 L716 497 L706 498 L698 502 L697 501 L690 502 L683 506 L678 507 L676 509 L670 511 L665 515 L667 515 L677 509 L680 510 L676 512 L680 512 L689 508 L696 502 L699 501 L701 503 L703 501 L716 498 Z M687 492 L688 491 L689 492 L688 493 Z M427 492 L427 494 L432 493 L448 498 L447 496 L442 495 L439 493 Z M666 491 L667 490 L668 491 L667 492 Z M518 490 L519 489 L520 490 L519 491 Z M667 489 L668 488 L669 490 L668 491 Z M653 489 L645 496 L642 502 L639 503 L639 506 L635 517 L635 520 L637 523 L632 529 L635 526 L638 525 L639 520 L637 522 L636 518 L640 506 L643 502 L644 505 L642 511 L646 501 Z M529 489 L530 488 L531 489 L530 490 Z M668 488 L669 487 L670 488 L669 489 Z M528 488 L529 487 L530 488 L529 489 Z M336 488 L337 487 L338 488 L337 489 Z M762 487 L763 486 L767 488 L763 489 Z M760 487 L761 486 L762 487 L761 488 Z M529 487 L530 486 L531 487 L530 488 Z M507 487 L508 486 L509 487 L508 488 Z M493 487 L494 486 L495 487 L494 488 Z M432 488 L432 490 L434 489 L441 489 L445 490 L456 496 L458 496 L456 494 L440 487 Z M763 486 L764 485 L765 486 L764 487 Z M704 486 L705 485 L706 486 L705 487 Z M669 486 L670 485 L671 487 L670 488 Z M506 486 L507 485 L508 486 L507 487 Z M492 486 L493 485 L494 486 L493 487 Z M705 485 L706 484 L707 485 L706 486 Z M670 485 L671 484 L672 485 L671 486 Z M662 484 L663 486 L657 494 L652 508 L649 511 L648 509 L651 501 L653 499 L656 491 Z M505 485 L506 484 L507 485 L506 486 Z M491 485 L492 484 L493 485 L492 486 Z M711 484 L712 483 L713 484 L712 485 Z M706 484 L707 483 L708 484 L707 485 Z M671 484 L672 483 L673 484 L672 485 Z M504 484 L505 483 L506 484 L505 485 Z M856 483 L856 487 L857 488 Z M778 483 L777 485 L768 488 L765 485 L768 483 L773 483 L774 482 Z M707 483 L708 482 L710 483 L709 484 Z M672 483 L673 482 L674 483 L673 484 Z M548 483 L549 482 L550 483 L549 484 Z M464 483 L465 482 L466 483 L465 484 Z M709 482 L710 481 L711 482 L710 483 Z M537 482 L538 481 L540 484 L539 485 Z M438 483 L438 485 L444 484 L450 486 L454 489 L456 489 L463 494 L464 493 L461 490 L449 484 L443 482 Z M752 488 L754 489 L760 487 L761 491 L765 491 L776 486 L784 486 L790 489 L789 490 L783 490 L779 492 L775 492 L774 493 L776 495 L775 496 L776 497 L784 495 L797 495 L805 497 L800 494 L796 494 L795 493 L781 494 L780 493 L781 492 L794 491 L793 489 L791 490 L789 486 L780 484 L779 481 L770 481 Z M331 481 L332 480 L333 481 L332 482 Z M711 480 L712 479 L713 480 L712 481 Z M675 479 L676 481 L674 483 L673 481 Z M671 479 L672 481 L669 484 L656 505 L655 502 L659 493 L663 487 Z M712 479 L713 478 L714 479 L713 480 Z M675 479 L676 478 L677 479 L676 480 Z M369 479 L364 497 L365 499 L364 501 L364 534 L365 536 L365 502 L366 501 L366 491 L368 487 Z M676 478 L677 477 L678 478 L677 479 Z M342 477 L344 482 L344 524 L342 525 L342 532 L344 533 L344 576 L343 577 L342 576 L342 571 L339 558 L339 549 L338 548 L339 529 L337 523 L338 521 L338 508 L340 505 L340 503 L339 504 L338 501 L341 492 L339 493 L338 498 L337 499 L336 498 L336 494 L338 490 L342 486 L341 485 L338 488 L337 487 L338 484 L341 483 L340 480 Z M702 476 L703 477 L701 481 L698 483 L694 490 L689 492 L688 490 L691 486 Z M677 477 L678 476 L679 477 L678 478 Z M712 476 L713 475 L714 476 L713 477 Z M702 476 L703 475 L704 476 L703 477 Z M678 476 L679 475 L680 476 L679 477 Z M476 476 L477 475 L478 476 L477 477 Z M698 475 L699 474 L700 475 L699 476 Z M535 475 L536 474 L537 475 L536 476 Z M474 475 L475 474 L476 475 L475 476 Z M694 474 L695 473 L696 474 L695 475 Z M680 474 L681 473 L682 474 L681 475 Z M530 474 L531 473 L532 474 L531 475 Z M529 473 L530 472 L531 473 L530 474 Z M476 473 L477 472 L478 473 L477 474 Z M458 473 L458 474 L461 474 L466 477 L470 477 L462 473 Z M855 472 L857 479 L857 475 Z M772 477 L758 475 L756 472 L753 472 L740 478 L733 486 L736 484 L738 486 L739 484 L737 483 L740 480 L751 474 L757 474 L758 475 L754 479 L747 482 L745 484 L743 484 L742 486 L745 486 L753 481 L762 478 L772 479 Z M474 472 L475 471 L476 472 L475 473 Z M472 471 L473 470 L474 471 L473 472 Z M746 470 L743 470 L738 473 L731 475 L724 479 L720 483 L717 484 L718 486 L725 483 L728 480 Z M449 476 L449 478 L457 479 L470 490 L472 490 L472 489 L465 484 L468 482 L469 483 L470 482 L475 485 L479 489 L481 487 L485 489 L487 488 L487 485 L477 477 L478 476 L480 477 L482 476 L484 478 L483 479 L485 478 L492 484 L491 486 L493 489 L495 490 L496 488 L498 488 L490 480 L475 469 L473 469 L472 471 L468 470 L468 472 L471 473 L478 480 L477 481 L479 480 L486 486 L485 487 L482 486 L480 488 L474 481 L470 479 L468 481 L464 481 L457 477 Z M738 468 L735 467 L731 469 L728 469 L726 471 L719 474 L715 478 L713 475 L719 470 L726 467 L724 466 L716 470 L710 475 L709 478 L710 477 L711 479 L708 481 L706 480 L707 481 L705 483 L704 482 L705 483 L700 488 L700 490 L705 489 L707 486 L710 487 L714 486 L715 484 L712 483 L718 477 L728 471 L734 469 L738 469 Z M716 466 L711 467 L700 475 L699 474 L698 475 L699 476 L686 490 L685 494 L682 496 L677 497 L676 496 L678 495 L686 482 L692 476 L694 477 L696 475 L695 473 L701 467 L698 468 L679 487 L673 496 L673 498 L668 501 L666 500 L666 498 L669 491 L676 482 L685 473 L690 471 L691 469 L687 470 L682 474 L681 473 L678 474 L672 480 L671 478 L669 478 L664 484 L660 483 L655 490 L650 500 L646 513 L648 514 L656 506 L659 505 L662 506 L671 500 L683 497 L690 493 L693 493 L697 491 L695 489 L701 483 L705 477 L703 475 Z M482 467 L482 469 L486 470 L493 475 L507 489 L509 487 L513 491 L512 492 L517 491 L522 494 L523 492 L526 495 L531 496 L532 493 L530 488 L532 487 L541 497 L540 499 L547 504 L548 503 L542 499 L543 497 L536 489 L539 487 L540 484 L550 500 L558 508 L558 506 L552 500 L543 485 L536 476 L538 475 L548 485 L558 500 L560 505 L564 509 L564 512 L566 512 L565 509 L566 506 L571 515 L569 517 L572 520 L574 518 L576 520 L574 512 L566 494 L563 495 L559 488 L557 486 L555 487 L561 496 L563 502 L562 505 L556 494 L549 485 L550 483 L552 485 L553 484 L550 481 L548 483 L539 474 L534 473 L535 477 L538 480 L537 482 L532 477 L531 475 L532 474 L527 469 L523 468 L537 485 L536 489 L534 487 L535 486 L534 487 L532 486 L514 468 L514 470 L529 484 L530 486 L528 488 L516 474 L512 472 L507 467 L504 466 L505 468 L520 480 L530 493 L528 494 L524 492 L507 474 L496 466 L494 466 L494 467 L507 476 L519 488 L518 490 L516 489 L513 490 L507 483 L497 477 L484 467 Z M342 465 L343 466 L343 476 L339 479 L338 475 L337 475 L337 478 L339 479 L334 490 L332 485 L332 482 L335 481 L334 478 L332 479 L330 483 L335 494 L336 510 L334 511 L334 515 L337 527 L337 554 L338 555 L338 562 L339 563 L342 580 L343 579 L344 580 L345 645 L346 646 L345 647 L345 668 L346 669 L347 721 L348 722 L348 736 L349 737 L349 749 L350 750 L350 762 L351 763 L351 770 L352 771 L352 779 L353 780 L353 786 L354 787 L354 793 L355 794 L357 808 L361 821 L360 824 L354 809 L350 786 L349 787 L350 795 L351 796 L350 799 L353 808 L353 815 L354 817 L355 816 L356 817 L357 822 L359 824 L359 826 L355 828 L354 830 L358 829 L361 826 L363 828 L363 830 L359 833 L349 837 L336 838 L330 835 L325 827 L324 815 L323 814 L323 694 L324 693 L325 694 L325 699 L326 699 L327 682 L328 681 L328 674 L329 673 L331 676 L332 705 L333 704 L333 681 L332 680 L332 669 L330 664 L331 663 L332 665 L333 663 L334 664 L334 670 L336 662 L334 660 L334 657 L340 642 L338 644 L334 653 L331 656 L329 661 L329 665 L328 666 L329 668 L326 676 L326 687 L325 688 L324 687 L325 649 L326 648 L327 649 L327 654 L328 654 L328 646 L327 647 L326 646 L326 633 L327 632 L328 608 L329 607 L331 574 L332 573 L331 503 L330 502 L330 493 L329 492 L327 478 L328 475 L331 472 L334 475 L337 472 L338 473 L338 472 L333 470 Z M847 463 L848 462 L849 463 L848 464 Z M898 461 L899 460 L900 462 L899 463 Z M369 458 L366 464 L366 468 L365 469 L365 471 L367 472 L366 481 Z M801 456 L805 462 L816 473 L823 483 L828 488 L818 474 L805 459 Z M843 455 L849 466 L848 465 L849 463 L851 465 L852 469 L854 470 L852 465 Z M413 454 L414 453 L415 454 L414 455 Z M415 452 L412 453 L414 455 L413 457 L417 454 L415 454 L414 453 Z M874 449 L874 457 L875 456 L874 455 Z M893 446 L894 445 L895 446 L894 447 Z M892 445 L893 444 L894 445 L893 446 Z M826 445 L840 460 L832 450 Z M904 443 L903 443 L901 448 L899 446 L900 449 L900 456 L899 457 L898 453 L895 451 L897 454 L897 459 L899 460 L898 461 L897 475 L896 476 L896 488 L898 483 L898 474 L897 473 L898 472 L898 465 L899 464 L901 465 L902 462 L902 456 L900 454 L901 448 L904 445 Z M791 437 L804 451 L818 470 L824 476 L807 453 Z M891 436 L892 435 L893 436 L892 437 Z M376 436 L373 439 L372 442 L368 445 L365 452 L365 455 L367 449 L373 442 Z M894 435 L895 434 L896 435 L895 436 Z M890 435 L891 434 L892 435 L891 436 Z M888 434 L889 433 L890 434 L889 435 Z M886 433 L887 432 L888 433 L887 434 Z M473 434 L472 435 L471 433 L463 440 L465 440 Z M342 433 L341 436 L343 437 Z M412 428 L409 429 L406 432 Z M352 429 L354 427 L355 428 L354 430 Z M804 427 L820 442 L824 444 L815 435 Z M463 427 L459 428 L451 434 L434 442 L420 452 L426 449 L432 444 L457 432 L463 428 Z M884 424 L886 424 L904 436 L908 441 L908 453 L907 454 L907 459 L903 476 L903 482 L901 488 L900 503 L897 512 L895 507 L895 501 L897 500 L895 497 L895 493 L894 493 L893 497 L894 518 L892 523 L893 532 L890 543 L889 542 L889 535 L888 534 L887 498 L886 497 L886 486 L885 485 L885 475 L884 474 L884 463 L883 462 L883 451 L882 450 L882 439 L881 436 L883 433 L888 435 L890 437 L889 438 L886 437 L893 444 L892 445 L889 444 L889 445 L894 449 L895 449 L894 448 L895 446 L897 449 L897 447 L893 443 L894 441 L893 442 L889 438 L891 437 L894 439 L892 437 L896 435 L898 437 L902 438 L887 431 L882 433 L881 432 L881 427 Z M443 424 L444 423 L446 424 L445 425 Z M782 423 L812 444 L805 438 L785 424 Z M445 423 L446 422 L447 423 L446 424 Z M488 422 L480 426 L474 431 L477 430 Z M379 422 L380 421 L381 422 L380 423 Z M889 421 L888 424 L887 423 L884 423 L881 425 L880 424 L882 421 L886 421 L887 420 Z M360 421 L361 420 L362 421 L361 422 Z M361 420 L362 419 L363 420 L362 421 Z M363 419 L364 418 L365 419 L364 420 Z M364 418 L365 417 L366 418 L365 419 Z M382 417 L373 431 L371 436 L372 436 L374 431 L380 424 Z M365 417 L366 416 L367 417 L366 418 Z M878 416 L881 416 L880 415 Z M890 412 L892 411 L890 411 Z M430 405 L420 409 L415 414 L425 407 Z M441 401 L435 404 L435 405 Z M784 400 L799 410 L796 407 Z M506 400 L501 401 L493 405 Z M739 399 L747 402 L755 407 L758 406 L761 407 L763 409 L765 409 L767 411 L783 418 L776 413 L775 414 L753 403 L750 403 L748 401 Z M390 398 L391 397 L393 398 L392 399 Z M392 397 L393 396 L394 397 L393 398 Z M349 397 L346 399 L345 402 L346 402 L346 400 Z M899 394 L896 400 L898 402 L897 403 L898 403 L897 400 Z M468 394 L469 393 L471 394 L470 395 Z M726 393 L728 395 L735 397 Z M747 389 L751 392 L782 407 L819 432 L830 444 L819 431 L798 416 L772 401 Z M502 388 L466 406 L427 435 L429 435 L435 430 L462 417 L490 409 L475 412 L469 415 L466 415 L463 417 L458 418 L448 423 L446 422 L466 407 Z M485 388 L475 393 L477 393 Z M376 388 L377 387 L378 388 L377 389 Z M835 387 L837 387 L849 394 L847 392 L837 387 Z M378 387 L379 386 L380 387 L379 388 Z M357 387 L354 388 L355 391 Z M447 386 L436 392 L426 399 L426 400 L434 394 L438 393 Z M379 386 L380 385 L381 386 L380 387 Z M469 385 L457 391 L459 391 Z M412 385 L413 384 L414 385 L413 386 Z M414 384 L415 383 L416 384 L415 385 Z M337 384 L335 385 L333 402 L335 400 L335 392 Z M891 381 L890 382 L890 391 L887 401 L889 400 L891 393 Z M704 381 L704 382 L708 382 L713 384 Z M698 381 L698 382 L703 385 L703 384 Z M337 378 L338 377 L339 379 L338 380 Z M828 374 L828 375 L843 385 L847 386 L859 393 L866 400 L867 403 L865 404 L870 407 L867 399 L862 394 L852 387 L841 382 L830 374 Z M738 373 L739 372 L740 373 L739 374 Z M735 372 L736 371 L738 372 L737 373 Z M339 371 L340 372 L339 375 L338 374 Z M733 371 L734 370 L736 371 L735 372 Z M345 371 L343 372 L343 379 Z M514 369 L505 372 L490 380 L488 380 L473 390 L450 403 L442 409 L467 394 L470 395 L471 394 L470 393 L483 384 Z M339 369 L340 368 L341 369 L340 370 Z M731 368 L734 370 L730 371 L733 373 L737 373 L738 374 L741 373 L762 383 L770 388 L774 389 L795 401 L774 388 L740 371 Z M425 368 L426 367 L428 368 L427 369 Z M409 367 L407 367 L398 373 L397 376 L404 372 Z M869 366 L870 371 L875 381 L875 378 Z M811 364 L812 363 L813 364 L812 365 Z M902 363 L901 378 L902 377 Z M713 363 L714 362 L717 363 L716 364 Z M443 362 L440 362 L429 368 L427 366 L424 368 L426 369 L422 372 L416 374 L399 384 L407 381 L412 377 L414 377 L422 372 L424 372 L426 374 L424 372 Z M366 362 L359 371 L359 373 L356 378 L356 381 L363 368 L363 366 Z M537 360 L533 361 L523 366 L523 367 Z M340 360 L341 359 L342 360 L341 361 Z M803 359 L803 360 L813 366 L817 367 L819 370 L821 369 L819 366 L811 361 L809 362 L805 359 Z M707 359 L714 362 L713 363 L716 365 L718 365 L716 364 L719 363 L710 359 Z M455 358 L445 364 L449 363 L454 360 Z M884 357 L886 363 L886 367 L887 363 L886 359 Z M435 357 L426 361 L425 358 L415 362 L414 364 L425 360 L426 361 L423 364 L434 359 Z M898 356 L899 357 L899 364 L899 357 Z M855 356 L863 367 L863 365 Z M554 355 L544 357 L543 359 L548 358 Z M472 353 L473 352 L475 353 L474 354 Z M343 351 L339 361 L340 363 L336 373 L336 380 L337 382 L339 381 L341 364 L345 358 L344 357 L342 360 L341 359 Z M761 347 L762 346 L764 347 L763 348 Z M759 346 L760 345 L762 346 L761 347 Z M660 345 L662 347 L669 348 L676 351 L692 355 L677 349 Z M892 342 L893 350 L892 351 L890 347 L890 349 L894 358 L895 357 L894 356 L894 352 L893 354 L892 353 L892 351 L894 350 Z M752 342 L755 341 L760 345 L758 346 Z M493 342 L494 341 L496 342 L495 343 Z M495 341 L496 340 L498 341 L497 342 Z M344 341 L343 341 L342 345 Z M493 340 L492 341 L494 343 L476 353 L474 352 L487 341 L491 339 Z M492 339 L493 338 L495 339 L494 340 Z M358 339 L356 340 L355 344 Z M476 338 L473 340 L476 339 Z M883 333 L884 332 L885 334 L884 335 Z M882 331 L883 330 L884 332 L883 333 Z M381 331 L379 332 L379 334 L376 337 L373 343 L372 348 L378 337 L378 335 Z M510 329 L511 328 L513 329 L512 330 Z M512 328 L513 327 L514 328 L513 329 Z M368 328 L366 329 L360 338 L360 343 L362 344 L361 348 L363 347 L367 340 L373 334 L372 333 L362 344 L361 343 L363 335 Z M746 327 L758 334 L766 336 L767 337 L766 338 L772 341 L773 344 L775 344 L781 348 L783 347 L793 352 L800 357 L795 352 L778 343 L776 343 L770 336 L762 332 L755 331 L748 327 Z M514 327 L515 326 L516 327 L515 328 Z M393 327 L390 332 L390 336 L389 337 L390 339 L388 342 L387 347 L388 347 L390 341 L392 339 L392 338 L391 339 L389 338 Z M882 326 L883 325 L885 328 L884 329 Z M515 326 L516 325 L518 326 L517 327 Z M517 325 L518 324 L519 325 L518 326 Z M881 324 L882 323 L883 325 L882 326 Z M830 324 L844 341 L852 359 L853 359 L843 338 Z M518 324 L519 323 L521 324 L520 325 Z M880 323 L881 322 L882 323 L881 324 Z M520 323 L522 321 L524 322 L522 324 Z M882 321 L883 320 L884 321 L883 322 Z M523 321 L524 320 L526 321 L525 322 Z M881 319 L882 318 L883 320 L882 321 Z M457 319 L445 325 L440 331 L449 324 L457 320 Z M880 318 L881 317 L882 318 L881 319 Z M742 317 L743 319 L757 327 L756 325 Z M504 317 L444 349 L442 352 L461 342 L468 337 L477 333 L479 331 L485 329 L502 320 Z M454 316 L450 318 L449 317 L447 319 L450 319 L454 317 Z M360 315 L355 325 L353 333 L354 333 L359 321 Z M365 313 L366 312 L367 314 L366 315 Z M528 312 L526 312 L522 315 Z M815 311 L827 320 L819 312 Z M366 311 L367 310 L368 312 L367 313 Z M545 310 L546 309 L548 310 L547 311 Z M367 310 L368 309 L369 310 L368 311 Z M708 309 L709 311 L728 319 L727 317 Z M547 309 L548 308 L549 309 L548 310 Z M356 309 L357 308 L358 310 L357 311 Z M548 308 L549 307 L551 308 L550 309 Z M357 307 L358 306 L359 308 L358 309 Z M479 306 L474 308 L468 313 L459 316 L466 315 Z M567 305 L568 304 L569 305 L568 306 Z M358 305 L359 304 L360 306 L359 307 Z M372 304 L365 311 L363 318 L368 313 Z M718 303 L719 302 L721 303 L720 304 Z M569 304 L571 302 L573 303 L571 305 Z M561 303 L551 308 L550 307 L545 307 L536 312 L543 309 L546 311 L541 314 L545 313 L557 307 Z M405 303 L392 311 L388 316 L404 305 Z M359 303 L360 302 L361 303 L360 304 Z M868 302 L881 317 L880 318 L880 324 L883 329 L882 331 L871 315 L884 336 L885 334 L886 335 L886 338 L888 342 L888 339 L884 330 L886 327 L883 322 L884 320 L880 314 L879 310 L875 306 L871 305 Z M801 301 L802 300 L803 301 L802 302 Z M800 300 L801 299 L802 300 L801 301 Z M487 300 L488 299 L489 300 L488 301 Z M799 298 L800 297 L801 299 L800 300 Z M663 297 L664 296 L665 297 L664 298 Z M473 296 L470 298 L473 297 Z M571 295 L567 298 L563 297 L557 299 L557 300 L563 298 L567 299 Z M384 292 L377 301 L377 303 L375 305 L371 314 L372 314 L373 310 L376 307 L377 303 L384 294 Z M718 291 L729 302 L729 305 L726 307 L720 304 L723 303 L720 302 L717 303 L714 301 L713 302 L715 304 L723 307 L738 317 L740 317 L739 315 L734 313 L727 308 L730 307 L730 301 Z M579 290 L576 291 L575 293 L578 292 Z M385 288 L383 288 L376 296 Z M651 287 L651 289 L655 291 L659 295 L661 295 L668 302 L684 309 L697 313 L720 325 L729 327 L740 333 L742 333 L734 328 L732 328 L725 324 L717 322 L702 314 L670 302 L665 298 L667 297 L679 301 L680 300 L669 297 L667 294 L662 291 L656 290 Z M511 287 L505 290 L507 291 L489 300 L488 298 L481 302 L485 300 L488 301 L491 299 L496 298 L506 293 L508 291 L506 290 Z M578 286 L555 294 L529 306 L526 309 L554 296 L567 292 L572 289 L578 288 Z M626 284 L627 283 L629 284 L628 285 Z M569 284 L567 285 L567 287 L569 286 Z M624 283 L625 282 L627 283 L626 284 Z M616 282 L634 289 L652 302 L671 312 L713 326 L737 337 L739 337 L743 340 L745 340 L747 342 L758 347 L786 364 L791 366 L806 376 L811 378 L879 421 L879 434 L880 435 L882 469 L883 470 L883 479 L884 480 L885 506 L886 507 L886 527 L887 528 L888 586 L889 587 L889 700 L888 701 L887 743 L886 744 L886 755 L885 756 L883 785 L882 786 L878 818 L876 823 L876 827 L871 848 L862 875 L862 878 L860 881 L854 899 L845 917 L845 919 L837 934 L818 964 L794 994 L769 1019 L749 1035 L726 1050 L721 1049 L719 1050 L721 1050 L722 1052 L712 1058 L695 1066 L689 1067 L684 1070 L669 1075 L631 1084 L626 1084 L613 1087 L606 1087 L588 1081 L585 1081 L569 1075 L548 1065 L546 1065 L539 1060 L539 1057 L537 1055 L534 1048 L534 1045 L532 1041 L532 1035 L530 1030 L531 1029 L527 1016 L525 1013 L524 997 L523 996 L524 994 L521 982 L520 969 L519 969 L519 975 L521 982 L520 983 L516 977 L516 979 L518 982 L518 986 L519 987 L520 986 L522 990 L522 995 L523 996 L522 1003 L523 1004 L524 1015 L528 1024 L528 1031 L530 1034 L530 1039 L534 1052 L538 1059 L537 1060 L512 1045 L494 1031 L473 1012 L446 983 L423 953 L401 918 L381 877 L373 857 L363 825 L357 800 L355 782 L354 781 L354 774 L353 773 L353 765 L352 764 L352 752 L351 751 L350 727 L349 726 L349 707 L348 706 L349 705 L348 702 L348 679 L347 678 L346 483 L345 482 L344 447 L348 438 L354 431 L371 416 L379 411 L393 399 L399 397 L407 391 L414 388 L423 382 L492 347 L494 345 L573 306 L585 299 L589 298 L606 287 Z M782 282 L803 303 L802 302 L804 300 L801 297 L798 298 L794 290 L785 281 L784 281 L795 292 L794 294 Z M594 281 L585 283 L583 285 L592 283 Z M609 279 L605 282 L608 282 Z M647 277 L648 276 L649 277 L648 278 Z M607 277 L600 280 L603 281 Z M562 277 L560 278 L562 278 Z M548 277 L547 276 L540 279 L540 280 Z M619 273 L625 280 L624 283 L622 283 L617 280 Z M383 273 L384 272 L385 273 L384 274 Z M389 268 L385 273 L384 271 L376 281 L375 280 L376 278 L375 278 L368 286 L365 294 L362 295 L355 308 L354 315 L351 320 L349 331 L350 325 L355 311 L356 310 L357 313 L370 285 L373 282 L374 283 L373 286 L374 286 L383 273 L384 275 L381 281 Z M635 267 L649 280 L657 284 L657 282 L653 280 L650 276 L648 275 L647 277 L637 267 Z M385 263 L377 272 L375 276 L377 275 Z M761 262 L781 279 L779 276 Z M461 259 L456 261 L456 262 L461 260 Z M448 257 L441 261 L440 263 L442 264 L439 267 L436 268 L424 281 L444 263 L443 264 L441 263 L446 260 Z M395 255 L396 254 L397 255 L396 256 Z M396 254 L397 253 L398 254 L397 255 Z M614 253 L618 256 L617 254 Z M625 251 L634 259 L643 264 L642 262 L636 259 L627 251 Z M737 247 L749 255 L748 253 Z M717 244 L734 253 L733 251 L727 247 L720 244 Z M610 244 L616 249 L622 251 L620 248 L617 248 L612 244 Z M799 242 L805 245 L811 251 L808 247 Z M488 242 L485 242 L475 246 L478 246 Z M462 242 L455 245 L448 251 Z M595 239 L596 238 L597 239 L596 240 Z M885 238 L885 246 L886 246 L887 241 Z M698 237 L705 241 L702 238 Z M893 234 L894 233 L895 235 L894 236 Z M586 233 L587 232 L589 233 L588 234 Z M585 232 L586 231 L587 232 L586 233 Z M892 231 L893 230 L894 232 L893 233 Z M488 231 L476 235 L474 237 L467 240 L469 240 Z M418 231 L405 241 L395 254 L395 256 L388 264 L387 267 L398 254 L397 252 L406 241 Z M891 229 L892 228 L893 230 L892 231 Z M451 227 L448 228 L448 229 Z M586 224 L604 236 L599 231 Z M716 223 L734 234 L723 226 Z M725 221 L740 233 L744 235 L738 229 L735 228 L733 225 Z M471 219 L455 226 L456 228 Z M553 217 L554 216 L556 217 L555 218 Z M558 216 L574 228 L583 232 L592 238 L611 254 L632 275 L644 283 L631 273 L623 265 L624 264 L623 265 L618 259 L596 240 L599 239 L603 242 L601 239 L590 236 L588 234 L589 232 L581 225 L579 225 L586 231 L585 232 L573 226 L560 216 Z M551 216 L552 215 L554 216 L553 217 Z M836 211 L850 224 L861 232 L860 230 L839 212 Z M562 211 L565 214 L571 217 L573 220 L575 221 L572 218 L573 216 L578 221 L581 222 L576 217 L571 216 Z M803 206 L804 209 L810 214 Z M893 204 L894 203 L895 204 L894 205 Z M447 201 L448 200 L449 201 L448 202 Z M656 199 L656 200 L662 201 L684 213 L683 211 L676 208 L674 206 L672 206 L664 201 Z M616 269 L617 271 L617 278 L616 280 L604 287 L598 288 L597 289 L598 290 L596 292 L573 303 L572 302 L578 297 L576 297 L566 305 L567 306 L563 309 L555 313 L553 312 L549 313 L548 314 L549 313 L550 314 L549 316 L499 341 L494 338 L498 336 L498 335 L490 339 L487 338 L514 322 L517 323 L509 329 L507 332 L508 333 L523 325 L529 320 L526 321 L525 320 L526 319 L524 319 L518 323 L515 321 L495 332 L492 332 L493 333 L491 335 L485 337 L481 340 L487 338 L488 339 L486 341 L469 350 L465 354 L457 359 L459 359 L464 356 L467 352 L471 350 L473 354 L438 372 L421 382 L413 383 L411 385 L413 386 L400 394 L396 396 L389 397 L388 396 L395 390 L394 390 L383 399 L380 400 L381 401 L388 396 L391 399 L378 408 L368 417 L366 416 L359 420 L361 422 L353 428 L351 428 L346 432 L347 433 L351 429 L353 430 L346 438 L342 445 L341 444 L339 445 L332 439 L331 434 L333 429 L337 424 L338 425 L340 424 L339 423 L338 424 L337 422 L345 411 L350 415 L347 410 L356 402 L358 402 L363 396 L365 395 L368 396 L371 394 L371 392 L375 388 L377 389 L376 391 L383 386 L381 385 L389 381 L393 377 L395 378 L395 377 L392 377 L382 384 L379 384 L355 401 L339 416 L336 423 L332 428 L331 432 L330 433 L329 432 L329 395 L330 394 L330 384 L331 383 L332 368 L333 367 L336 348 L340 338 L340 335 L342 332 L344 324 L352 304 L364 281 L393 244 L414 223 L438 207 L457 200 L468 199 L469 198 L500 199 L526 206 L550 217 L567 228 L602 255 Z M458 197 L459 196 L463 196 L464 197 L463 198 L459 198 Z M843 193 L851 200 L849 197 Z M628 190 L670 211 L672 211 L674 213 L676 213 L690 221 L692 221 L652 200 L650 200 L630 190 Z M497 189 L498 188 L501 189 L500 190 Z M495 188 L496 187 L497 188 L496 189 Z M491 187 L492 186 L495 187 L494 188 Z M850 185 L851 184 L852 185 L851 186 Z M631 185 L632 184 L634 185 L633 186 Z M473 183 L461 184 L459 186 Z M619 179 L622 182 L630 186 L634 187 L633 186 L636 185 L644 188 L656 195 L660 196 L658 194 L636 184 L627 183 Z M511 191 L510 189 L497 187 L492 184 L494 182 L501 181 L502 180 L501 179 L500 180 L496 180 L489 186 L482 183 L476 183 L480 184 L481 186 L483 186 L485 188 L486 188 L485 187 L486 186 L488 186 L492 189 L495 189 L497 191 L500 191 L501 189 Z M887 174 L891 180 L891 182 L895 187 L895 190 L899 193 L896 182 L895 186 L890 177 Z M875 172 L876 171 L877 172 L876 173 Z M578 173 L585 175 L595 175 L596 174 L588 174 L582 172 Z M874 171 L875 170 L876 171 L875 172 Z M873 170 L874 169 L875 170 L874 171 Z M872 167 L871 168 L872 170 L880 177 L878 174 L877 175 L876 174 L877 172 L876 170 L873 169 Z M537 167 L558 169 L571 172 L568 170 L554 169 L552 167 Z M521 167 L513 168 L509 170 L513 170 L521 168 Z M902 165 L902 169 L903 169 L903 165 Z M600 163 L587 165 L583 168 L579 167 L573 167 L573 168 L584 170 L586 167 L593 166 Z M638 159 L649 164 L654 165 L653 164 L655 163 L675 170 L656 162 Z M578 159 L585 161 L586 160 L591 160 L590 158 L586 159 L581 159 L580 158 Z M581 156 L595 155 L601 157 L594 154 Z M541 155 L540 154 L534 154 L526 157 L533 155 Z M791 151 L789 154 L791 155 L788 156 L788 158 L794 165 L803 173 L806 174 L809 178 L812 176 L818 181 L812 175 L809 176 L802 169 L800 165 L798 168 L790 157 L791 155 L814 172 L810 167 L806 164 L802 163 L797 158 L797 156 L795 156 L792 151 Z M603 149 L605 150 L619 150 L618 149 Z M587 150 L586 149 L577 149 L576 150 L568 150 L562 152 L556 152 L551 154 L561 153 L562 152 L567 152 L568 153 L560 155 L576 153 L579 151 L586 151 Z M446 196 L451 189 L452 191 L455 192 L454 190 L455 184 L459 180 L478 168 L499 159 L517 153 L530 150 L537 150 L538 149 L557 148 L558 147 L571 147 L572 146 L624 147 L632 149 L660 151 L661 152 L671 153 L691 159 L701 164 L703 164 L719 172 L743 188 L778 216 L855 270 L866 279 L881 294 L891 308 L899 323 L904 337 L907 350 L909 372 L908 373 L908 379 L905 391 L900 404 L896 411 L889 418 L884 420 L880 420 L866 412 L814 378 L767 351 L763 348 L764 347 L761 344 L756 342 L752 338 L746 336 L753 341 L751 342 L727 330 L707 322 L681 314 L666 308 L664 306 L662 306 L640 292 L635 287 L636 284 L634 281 L635 284 L634 286 L623 276 L616 267 L603 254 L571 229 L557 220 L554 215 L550 212 L523 199 L521 199 L550 213 L552 215 L550 216 L530 206 L502 198 L487 197 L486 196 L473 196 L472 197 L464 197 L463 196 L466 194 L470 194 L471 193 L469 192 L458 196 L459 198 L458 199 L455 199 L451 201 L449 201 L448 199 L454 194 L448 198 Z M816 146 L829 158 L840 172 L841 175 L847 181 L849 185 L852 186 L860 195 L859 196 L861 197 L876 216 L863 197 L844 175 L841 170 L822 150 Z M771 143 L774 146 L774 148 L779 151 L777 147 L774 144 Z M894 138 L894 140 L899 150 L900 158 L904 162 L904 159 L901 156 L900 149 L897 141 Z M770 137 L771 136 L772 137 L771 138 Z M702 137 L704 139 L707 139 L706 137 Z M769 136 L770 135 L771 136 L770 137 Z M716 136 L712 139 L715 140 Z M893 131 L894 135 L899 140 L904 152 L905 150 L898 137 L895 135 L896 132 L898 135 L898 132 L896 131 L895 133 Z M889 128 L890 127 L891 128 L890 129 Z M722 128 L720 128 L718 130 L722 129 Z M853 126 L852 124 L848 125 L849 126 Z M745 122 L746 124 L753 128 L755 128 L752 125 Z M753 121 L759 129 L767 134 L767 136 L770 138 L772 137 L789 149 L789 147 L780 140 L777 139 L771 134 L768 135 L762 128 Z M835 118 L829 119 L831 120 Z M784 116 L792 124 L792 126 L795 130 L801 135 L797 128 Z M874 115 L891 131 L890 129 L891 126 L889 125 L890 126 L889 128 L882 120 Z M843 115 L851 118 L851 117 L847 115 Z M854 114 L857 116 L865 117 L876 124 L873 120 L867 117 Z M831 116 L841 115 L840 114 L833 114 Z M806 121 L816 114 L825 111 L849 109 L850 110 L867 111 L882 115 L890 119 L900 128 L908 145 L909 164 L910 165 L909 166 L909 172 L904 189 L897 201 L892 204 L893 208 L887 217 L863 187 L833 153 L803 124 Z M752 109 L752 110 L754 110 L754 109 Z M725 98 L726 97 L730 98 L729 99 Z M686 121 L699 109 L717 100 L719 100 L720 102 L721 101 L719 100 L723 98 L725 98 L726 100 L741 99 L742 98 L730 98 L729 97 L733 95 L743 94 L744 93 L754 93 L762 95 L776 103 L795 118 L842 165 L876 205 L892 227 L890 230 L894 238 L895 236 L896 237 L896 247 L895 250 L888 261 L874 276 L873 282 L872 283 L856 269 L829 249 L787 221 L729 176 L700 161 L685 156 L682 154 L667 151 L666 149 Z M879 112 L861 109 L860 108 L833 108 L816 112 L808 117 L803 122 L801 122 L781 104 L762 93 L753 92 L752 91 L737 92 L717 98 L700 106 L696 109 L682 123 L681 126 L677 130 L663 150 L660 149 L645 149 L639 147 L622 146 L621 145 L604 145 L603 144 L574 144 L572 145 L571 144 L570 145 L559 145 L558 146 L548 146 L547 147 L524 149 L489 161 L471 170 L459 178 L447 190 L441 204 L433 208 L415 220 L389 246 L365 276 L358 287 L347 311 L335 345 L332 362 L331 363 L331 370 L329 375 L328 397 L327 398 L327 433 L329 438 L336 445 L343 450 L343 462 L341 464 L332 468 L327 473 L325 480 L328 491 L328 500 L329 501 L329 508 L330 509 L331 556 L330 557 L330 576 L329 577 L327 611 L326 612 L326 621 L325 622 L325 635 L324 636 L323 670 L322 671 L322 705 L321 706 L321 813 L322 814 L322 822 L326 833 L333 839 L349 839 L363 832 L364 833 L365 839 L367 842 L373 862 L376 867 L383 886 L397 914 L409 933 L410 937 L414 941 L424 958 L443 982 L458 999 L478 1019 L508 1044 L533 1060 L574 1079 L601 1088 L613 1089 L614 1088 L619 1088 L636 1084 L641 1084 L665 1078 L672 1075 L675 1075 L678 1073 L681 1073 L686 1070 L692 1069 L721 1055 L749 1037 L767 1023 L789 1002 L804 985 L818 967 L840 932 L850 912 L850 910 L853 905 L863 880 L874 844 L878 823 L879 822 L882 824 L891 825 L904 821 L911 813 L916 801 L918 787 L919 786 L919 779 L920 778 L920 690 L919 689 L918 644 L917 643 L917 627 L916 626 L916 615 L915 614 L913 586 L912 585 L910 566 L909 565 L907 548 L906 547 L904 531 L903 530 L903 524 L900 513 L900 508 L902 501 L902 493 L905 480 L905 474 L906 473 L907 463 L910 451 L910 442 L909 439 L904 434 L891 425 L891 420 L897 413 L905 397 L908 383 L910 379 L911 367 L910 366 L910 357 L909 356 L907 342 L901 323 L894 309 L884 295 L879 290 L875 283 L876 276 L888 264 L894 256 L898 247 L897 234 L889 218 L895 209 L895 207 L897 205 L908 184 L911 172 L911 152 L910 151 L909 142 L902 128 L894 119 Z" fill="#eef3f4" fill-rule="evenodd"/>
</svg>
