<svg xmlns="http://www.w3.org/2000/svg" width="1254" height="1254" viewBox="0 0 1254 1254">
  <title>0260</title>
  <path d="M716 1015 L692 1022 L682 1023 L681 1024 L674 1024 L673 1025 L651 1025 L650 1024 L614 1023 L613 1022 L603 1022 L602 1023 L564 1023 L563 1022 L546 1021 L539 1019 L554 1023 L564 1023 L565 1024 L632 1024 L633 1025 L647 1025 L648 1026 L674 1026 L675 1025 L682 1025 L683 1024 L700 1021 Z M629 955 L627 957 L626 963 L627 962 L627 958 Z M613 954 L618 964 L619 964 L616 957 Z M772 934 L773 933 L774 934 L773 935 Z M773 933 L774 932 L775 933 L774 934 Z M774 932 L775 931 L776 932 L775 933 Z M775 931 L776 930 L777 931 L776 932 Z M776 930 L777 929 L778 930 L777 931 Z M777 929 L778 928 L779 929 L778 930 Z M575 927 L576 926 L577 927 L576 928 Z M453 923 L454 922 L455 923 L454 924 Z M361 918 L361 920 L367 932 L364 923 Z M784 914 L785 913 L786 914 L785 915 Z M450 912 L452 911 L474 928 L491 938 L517 948 L536 957 L561 963 L572 964 L573 965 L604 967 L605 968 L619 968 L620 969 L640 968 L641 967 L649 967 L657 965 L671 964 L672 963 L694 960 L710 956 L735 947 L747 941 L766 929 L784 914 L785 916 L777 926 L764 939 L741 958 L728 965 L726 965 L709 974 L703 976 L676 981 L675 982 L662 983 L661 984 L650 984 L649 985 L572 985 L571 984 L554 983 L531 977 L520 970 L507 964 L468 934 L454 919 Z M788 911 L789 910 L790 912 L789 913 Z M449 911 L450 910 L451 911 L450 912 Z M789 910 L790 909 L791 910 L790 911 Z M448 910 L449 909 L450 910 L449 911 Z M790 909 L791 908 L792 909 L791 910 Z M293 906 L294 905 L295 906 L294 907 Z M427 905 L427 908 L432 917 L432 919 L449 945 L467 966 L493 988 L509 998 L524 1005 L524 1009 L528 1018 L528 1022 L530 1027 L530 1045 L529 1046 L528 1061 L527 1062 L527 1079 L531 1089 L534 1092 L537 1098 L539 1106 L540 1120 L543 1127 L545 1129 L541 1119 L540 1102 L535 1091 L530 1084 L530 1081 L528 1077 L529 1056 L531 1048 L532 1031 L531 1030 L531 1025 L529 1017 L524 1006 L525 1005 L532 1008 L549 1012 L555 1012 L556 1013 L588 1013 L589 1012 L600 1012 L601 1011 L626 1011 L627 1012 L654 1014 L655 1015 L671 1015 L672 1014 L681 1014 L682 1013 L688 1013 L689 1012 L702 1010 L716 1005 L732 997 L749 986 L761 976 L784 952 L798 933 L805 920 L805 918 L797 931 L797 934 L791 940 L778 957 L759 976 L736 993 L715 1004 L692 1011 L679 1012 L678 1013 L646 1013 L645 1012 L638 1012 L637 1011 L630 1011 L629 1010 L617 1010 L616 1009 L613 1010 L584 1011 L583 1012 L560 1012 L559 1011 L551 1011 L550 1010 L541 1009 L522 1003 L503 993 L486 981 L473 970 L452 947 L434 920 L427 907 Z M292 904 L293 903 L294 904 L293 905 Z M432 900 L433 899 L434 900 L433 901 Z M813 898 L811 900 L811 903 L806 916 L812 903 Z M806 897 L807 900 L803 906 L779 929 L778 927 L791 913 L798 902 Z M434 894 L444 906 L443 908 L445 911 L449 914 L454 921 L453 923 L434 904 L433 902 L434 900 L435 901 L433 898 Z M431 894 L433 898 L432 900 L429 897 Z M428 895 L429 894 L430 895 L429 896 Z M834 893 L833 907 L828 924 L822 936 L822 938 L810 960 L819 946 L829 924 L835 900 Z M430 893 L431 892 L432 893 L431 894 Z M428 890 L429 891 L428 894 L427 893 Z M648 890 L644 899 L644 901 L646 902 L644 909 L631 940 L632 940 L644 912 L647 903 L645 901 L645 899 L648 893 Z M426 890 L427 889 L428 890 L427 891 Z M809 887 L812 890 L813 895 L814 894 L813 889 L811 887 Z M424 884 L425 892 L437 910 L462 933 L476 944 L483 948 L496 959 L531 979 L549 984 L559 985 L560 986 L570 986 L571 987 L648 987 L649 986 L661 986 L662 985 L670 985 L671 984 L676 984 L691 980 L695 980 L723 971 L728 967 L749 956 L765 944 L780 931 L805 906 L810 897 L810 894 L808 893 L798 898 L787 909 L764 928 L745 940 L728 948 L710 954 L689 958 L688 959 L684 959 L683 960 L651 964 L650 965 L618 967 L617 966 L581 964 L580 963 L573 963 L572 962 L566 962 L565 961 L550 959 L536 955 L512 944 L500 940 L479 929 L459 915 L448 906 L433 891 L428 884 Z M671 881 L672 914 L673 913 L673 892 L672 891 L672 882 Z M422 877 L421 877 L421 879 Z M844 875 L849 886 L849 894 L847 900 L846 899 L845 882 L843 878 Z M842 874 L843 873 L844 875 L843 876 Z M427 877 L432 884 L443 895 L452 902 L466 911 L485 919 L506 925 L525 927 L526 928 L560 928 L561 927 L572 928 L579 930 L620 952 L624 952 L629 949 L634 948 L661 930 L670 927 L686 927 L694 929 L714 930 L715 929 L724 929 L725 928 L738 927 L750 923 L753 923 L763 919 L779 910 L806 888 L806 887 L801 890 L789 901 L778 909 L762 918 L748 923 L735 926 L729 926 L728 927 L699 928 L698 927 L691 927 L683 925 L671 925 L670 924 L672 923 L672 921 L663 928 L655 932 L643 941 L629 948 L617 948 L611 946 L598 938 L583 931 L575 923 L573 917 L573 913 L574 912 L575 892 L576 891 L576 884 L575 883 L576 872 L574 878 L574 901 L573 902 L573 909 L572 910 L572 920 L576 926 L575 927 L571 927 L570 926 L549 926 L548 927 L521 926 L520 925 L504 923 L481 916 L462 907 L450 899 Z M816 868 L823 875 L826 882 L826 885 L827 885 L825 876 L821 871 Z M325 867 L322 866 L318 868 L318 869 L321 869 L323 867 Z M826 863 L835 868 L840 873 L843 879 L845 887 L845 897 L847 901 L847 906 L845 913 L848 906 L848 901 L850 894 L850 886 L845 875 L843 873 L842 874 L834 866 Z M573 858 L593 859 L613 864 L637 864 L638 863 L655 861 L656 860 L666 860 L666 859 L656 859 L655 860 L648 860 L647 861 L641 861 L633 863 L617 863 L616 862 L609 862 L592 858 Z M428 853 L430 854 L438 854 L439 855 L443 855 L444 856 L448 856 L474 862 L480 862 L481 863 L493 863 L494 862 L505 861 L519 856 L523 853 L511 858 L503 860 L498 860 L497 861 L490 861 L489 862 L470 860 L469 859 L465 859 L449 855 L444 855 L438 853 Z M415 853 L405 860 L400 869 L399 878 L398 879 L398 888 L399 889 L399 894 L401 902 L409 923 L422 948 L440 973 L454 987 L438 969 L419 941 L410 923 L401 898 L400 887 L399 886 L401 870 L404 863 L411 856 L417 853 Z M805 852 L806 851 L807 852 L806 853 Z M727 852 L730 855 L739 860 L759 866 L778 867 L779 866 L789 866 L790 865 L797 865 L798 864 L803 864 L804 865 L808 865 L809 864 L796 863 L795 864 L775 865 L774 866 L762 865 L740 859 Z M661 850 L662 849 L663 850 L662 851 Z M662 849 L663 848 L664 849 L663 850 Z M694 847 L688 852 L682 854 L678 854 L678 855 L686 854 L690 852 Z M694 845 L691 842 L688 841 L676 841 L666 844 L661 847 L658 852 L661 850 L664 851 L669 846 L677 845 L678 844 L690 843 L692 845 Z M558 844 L559 849 L564 852 L566 852 L562 850 L559 846 L562 842 L579 844 L590 848 L596 853 L594 849 L590 845 L577 840 L564 840 L561 841 Z M587 821 L588 820 L589 821 L588 822 Z M593 810 L596 815 L599 817 L589 821 L588 820 L591 815 L591 812 Z M340 810 L339 811 L340 812 L339 821 L340 822 L340 835 L341 836 L341 845 L342 846 L343 858 L350 888 L354 898 L356 907 L359 912 L349 880 L349 876 L345 862 L345 857 L343 850 L343 842 L342 841 L342 833 L341 832 Z M661 808 L661 816 L662 817 L661 820 L665 823 L677 827 L697 828 L701 829 L709 834 L704 829 L701 829 L698 827 L694 827 L693 826 L677 826 L676 825 L672 825 L666 822 L663 818 L662 808 Z M592 807 L593 808 L592 811 L591 810 Z M641 821 L623 821 L622 820 L611 820 L606 818 L602 818 L596 813 L593 805 L593 799 L592 799 L591 812 L589 817 L583 824 L575 827 L569 827 L568 826 L557 827 L546 831 L545 833 L550 830 L557 828 L575 828 L576 827 L580 827 L586 823 L596 819 L606 819 L607 820 L620 821 L621 822 Z M658 798 L658 808 L655 814 L658 811 L659 808 L659 799 Z M525 789 L519 794 L517 798 L512 803 L500 823 L492 831 L482 837 L471 840 L464 840 L463 841 L448 841 L447 840 L439 840 L438 839 L425 838 L424 837 L403 837 L399 838 L388 844 L380 854 L375 873 L375 890 L376 891 L376 896 L377 897 L379 910 L384 925 L395 949 L395 951 L409 977 L416 987 L396 951 L394 944 L386 927 L379 905 L377 886 L376 885 L376 878 L377 877 L377 870 L378 869 L379 861 L383 852 L390 844 L397 840 L404 838 L423 838 L424 839 L431 839 L432 840 L439 840 L440 841 L458 841 L459 842 L460 841 L471 841 L482 838 L491 833 L501 824 L515 801 Z M683 783 L679 785 L678 788 Z M569 781 L580 791 L578 787 L573 782 Z M550 777 L542 779 L530 786 L532 787 L526 794 L522 804 L521 824 L524 835 L531 846 L539 853 L547 857 L554 858 L541 853 L533 846 L529 841 L523 826 L523 808 L528 794 L541 781 L547 779 L557 778 Z M819 745 L818 745 L819 761 L820 762 L820 802 L819 803 L819 812 L818 813 L818 821 L817 822 L816 834 L812 844 L808 849 L786 848 L771 843 L764 839 L751 827 L735 803 L715 784 L704 779 L692 780 L702 780 L712 784 L723 796 L728 810 L728 829 L726 837 L723 843 L718 850 L711 856 L705 859 L700 860 L700 861 L708 859 L716 854 L721 849 L727 839 L730 828 L730 812 L727 801 L724 796 L726 795 L738 809 L750 828 L757 835 L767 842 L786 849 L802 850 L804 852 L801 857 L805 852 L806 855 L809 850 L815 850 L816 849 L832 848 L833 849 L838 849 L846 851 L855 856 L860 861 L865 870 L867 878 L867 896 L866 897 L864 911 L856 934 L844 958 L827 987 L806 1017 L811 1012 L827 989 L855 939 L865 912 L867 904 L867 898 L868 897 L868 890 L869 889 L868 876 L866 869 L861 860 L854 854 L849 851 L838 848 L814 848 L813 849 L810 848 L813 844 L817 834 L819 814 L820 813 L820 802 L821 801 L821 764 L820 763 Z M724 744 L723 744 L724 746 L724 755 L720 766 L723 761 L726 752 L726 748 Z M648 743 L651 765 L653 770 L657 791 L658 791 Z M606 738 L605 739 L602 759 L599 768 L598 777 L593 794 L595 792 L600 774 L600 770 L605 749 Z M444 726 L442 729 L437 750 L435 782 L434 783 L434 806 L435 807 L436 819 L440 831 L436 814 L435 789 L436 788 L436 771 L437 770 L438 751 L439 750 L439 745 L442 735 L442 731 Z M606 714 L606 731 L607 729 L607 715 Z M717 711 L718 710 L719 711 L718 712 Z M716 710 L717 709 L718 710 L717 711 Z M715 709 L716 708 L717 709 L716 710 Z M711 704 L715 711 L717 713 L719 712 L723 717 L728 728 L729 738 L730 739 L731 735 L730 734 L729 726 L724 716 L715 706 Z M859 699 L821 709 L804 711 L803 712 L791 712 L790 713 L767 713 L766 712 L760 712 L742 707 L734 703 L733 704 L741 708 L763 714 L797 714 L798 713 L806 713 L807 712 L813 712 L814 711 L828 709 L836 706 L854 702 L859 700 Z M396 695 L397 697 L419 705 L427 707 L432 707 L433 708 L438 708 L439 709 L458 710 L459 711 L491 710 L492 709 L506 708 L526 703 L529 700 L518 704 L503 706 L502 707 L496 707 L495 708 L451 709 L450 708 L436 707 L435 706 L430 706 L417 703 Z M753 692 L754 691 L762 691 L763 692 L771 692 L772 693 L771 694 L762 694 L761 693 L754 693 Z M748 691 L749 690 L752 691 L751 692 Z M823 689 L824 688 L828 689 L827 690 Z M820 690 L816 692 L803 693 L802 694 L792 694 L791 693 L792 692 L808 691 L816 688 L818 688 Z M735 689 L736 688 L739 689 L738 690 Z M714 689 L715 688 L716 689 L715 690 Z M493 689 L494 688 L498 689 L497 690 Z M818 688 L819 687 L821 688 L820 689 Z M760 689 L762 687 L765 689 L764 690 Z M502 688 L503 687 L508 687 L509 688 L508 689 L503 689 Z M821 687 L822 686 L823 687 L822 688 Z M509 687 L510 686 L513 687 L512 688 Z M553 685 L554 684 L555 686 L554 687 Z M433 686 L434 685 L441 686 L442 684 L445 684 L451 687 L461 688 L462 689 L466 688 L467 689 L489 689 L490 690 L489 691 L468 692 L467 691 L451 690 L447 689 L446 687 L445 687 L446 688 L445 689 L442 689 Z M431 685 L432 684 L434 685 L433 686 Z M848 684 L835 687 L831 689 L827 688 L836 684 L841 684 L842 683 L847 683 Z M429 684 L430 683 L431 684 L430 685 Z M879 683 L876 686 L868 684 L869 683 L876 683 L877 682 Z M847 683 L848 682 L856 682 L857 683 L856 684 L848 684 Z M568 683 L566 684 L565 694 L567 690 Z M427 683 L428 682 L429 683 L428 684 Z M499 684 L503 680 L509 683 L505 685 L500 685 Z M407 681 L408 680 L411 681 L410 682 Z M388 681 L389 680 L397 680 L398 681 L397 682 L389 682 Z M417 680 L418 679 L421 680 L420 681 Z M713 679 L714 678 L715 679 L714 680 Z M804 678 L801 682 L796 684 L783 683 L781 681 L783 679 L795 681 L798 678 L802 677 Z M787 678 L788 677 L796 677 L797 679 L796 680 L791 680 Z M714 678 L715 677 L716 678 L715 679 Z M715 677 L716 676 L717 677 L716 678 Z M374 677 L375 676 L376 677 L375 678 Z M716 676 L717 675 L718 676 L717 677 Z M806 674 L807 673 L808 675 L807 676 Z M719 674 L720 673 L721 674 L720 675 Z M546 674 L547 673 L548 674 L547 675 Z M399 677 L398 678 L387 678 L386 677 L394 673 L396 673 L398 675 L396 676 Z M384 674 L385 673 L386 674 L385 675 Z M386 673 L387 672 L388 673 L387 674 Z M845 678 L849 671 L853 671 L866 679 L865 680 L854 680 L853 679 L846 679 Z M722 672 L723 671 L724 672 L723 673 Z M387 672 L388 671 L389 672 L388 673 Z M860 671 L861 670 L862 671 L861 672 Z M808 670 L809 671 L808 674 L807 673 Z M487 671 L488 670 L489 671 L488 672 Z M458 671 L459 670 L460 671 L459 672 Z M858 670 L859 669 L861 670 L860 671 Z M857 669 L858 668 L859 669 L858 670 Z M726 669 L727 668 L728 669 L727 670 Z M488 669 L489 668 L490 669 L489 670 Z M855 668 L856 667 L858 668 L857 669 Z M761 668 L762 667 L763 668 L762 669 Z M711 668 L712 667 L713 668 L712 669 Z M854 667 L855 666 L856 667 L855 668 Z M484 667 L485 666 L487 669 L486 670 Z M873 666 L874 665 L875 666 L874 667 Z M853 666 L854 665 L855 666 L854 667 Z M731 666 L732 665 L733 666 L732 667 Z M547 666 L548 665 L549 667 L548 668 Z M480 666 L481 665 L484 666 L483 667 Z M733 665 L734 664 L735 665 L734 666 Z M532 665 L533 664 L534 665 L533 666 Z M399 665 L400 664 L401 665 L400 666 Z M734 664 L735 663 L737 664 L736 665 Z M715 663 L716 665 L713 668 L712 666 Z M546 664 L547 663 L548 665 L547 666 Z M400 664 L401 663 L403 664 L402 665 Z M944 663 L943 664 L943 668 L944 667 Z M736 663 L737 662 L738 663 L737 664 Z M402 663 L403 662 L405 663 L404 664 Z M846 662 L848 661 L854 665 L851 666 Z M767 661 L768 663 L763 668 L762 667 L763 664 Z M738 662 L739 661 L740 662 L739 663 Z M844 661 L845 660 L847 661 L846 662 Z M759 661 L759 676 L760 677 L759 678 L760 686 L758 688 L749 688 L738 685 L732 685 L727 687 L717 687 L715 685 L730 672 L755 660 Z M740 661 L741 660 L742 661 L741 662 Z M378 661 L376 661 L373 665 Z M842 660 L843 659 L845 660 L844 661 Z M822 661 L825 659 L828 659 L843 664 L847 668 L847 671 L844 675 L844 677 L836 679 L822 685 L819 685 L818 684 L820 681 L822 673 Z M742 660 L743 659 L744 660 L743 661 Z M410 660 L406 663 L404 662 L408 659 Z M840 659 L841 658 L843 659 L842 660 Z M765 659 L766 658 L767 659 L766 660 Z M744 659 L745 658 L747 659 L746 660 Z M525 659 L526 658 L527 659 L526 660 Z M499 659 L500 658 L501 659 L500 660 Z M452 659 L453 658 L454 659 L453 660 Z M409 659 L410 658 L412 659 L411 660 Z M837 658 L838 657 L841 658 L840 659 Z M813 657 L815 657 L817 659 L820 665 L819 668 L812 659 Z M809 658 L810 657 L811 658 L810 659 Z M746 658 L747 657 L749 658 L748 659 Z M523 658 L524 657 L525 658 L524 659 Z M502 658 L503 657 L504 658 L503 659 Z M498 658 L499 657 L500 658 L499 659 Z M835 657 L836 656 L838 657 L837 658 Z M811 657 L812 656 L813 657 L812 658 Z M808 657 L809 656 L810 657 L809 658 Z M748 657 L749 656 L752 657 L751 658 Z M522 657 L523 656 L524 657 L523 658 Z M501 657 L502 656 L503 657 L502 658 Z M832 656 L833 655 L835 656 L834 657 Z M807 656 L808 655 L809 656 L808 657 Z M761 681 L764 670 L766 667 L775 659 L784 655 L803 655 L806 656 L810 662 L810 669 L809 670 L806 664 L806 671 L803 674 L801 673 L795 676 L786 676 L785 677 L779 674 L778 668 L780 663 L778 664 L776 669 L776 672 L778 675 L776 679 L772 675 L770 675 L772 678 L783 685 L795 686 L802 683 L809 676 L811 669 L811 663 L812 662 L819 671 L819 679 L816 685 L813 688 L809 688 L803 690 L770 691 L767 690 L762 685 Z M776 656 L772 660 L768 662 L767 661 L772 655 Z M520 656 L521 655 L523 656 L522 657 Z M506 657 L510 655 L513 655 L520 658 L523 662 L532 667 L543 679 L547 680 L549 682 L549 685 L545 687 L541 687 L536 685 L525 685 L524 684 L520 684 L515 679 L509 680 L504 677 L505 676 L505 667 L504 666 L507 662 Z M503 668 L502 678 L494 687 L460 687 L457 686 L451 680 L446 671 L446 669 L452 659 L453 660 L453 665 L456 671 L462 678 L471 682 L481 681 L490 673 L493 664 L493 658 L492 657 L493 655 L498 660 Z M455 655 L456 657 L454 659 L453 657 Z M828 655 L829 654 L832 655 L831 656 Z M517 655 L518 654 L520 655 L519 656 Z M495 655 L497 654 L499 657 L498 658 Z M296 655 L294 662 L293 674 L294 675 L294 683 L295 684 L295 689 L297 694 L298 702 L298 692 L296 687 L296 680 L295 679 Z M515 654 L516 653 L518 654 L517 655 Z M499 654 L500 653 L501 654 L500 655 Z M494 654 L495 653 L496 654 L495 655 Z M450 682 L447 683 L431 679 L427 677 L416 677 L415 678 L403 679 L400 676 L397 670 L401 668 L409 667 L419 662 L424 657 L429 654 L438 653 L442 657 L444 672 Z M513 653 L514 652 L516 653 L515 654 Z M510 652 L511 651 L513 652 L512 653 Z M424 652 L425 651 L426 652 L425 653 Z M939 651 L939 661 L940 664 L940 651 Z M506 651 L507 650 L510 651 L509 652 Z M426 651 L427 650 L429 651 L428 652 Z M428 650 L429 649 L431 650 L430 651 Z M430 649 L431 648 L434 649 L433 650 Z M445 655 L452 649 L455 648 L466 648 L467 647 L488 649 L495 653 L494 654 L492 653 L490 654 L491 657 L489 665 L487 667 L484 664 L481 663 L479 667 L474 670 L470 670 L469 671 L466 670 L469 673 L470 672 L474 673 L479 670 L482 672 L484 671 L485 673 L483 677 L478 680 L470 680 L464 677 L465 676 L463 676 L461 674 L462 673 L460 669 L461 666 L458 668 L455 666 L455 660 L456 659 L467 664 L469 663 L461 660 L454 654 L446 665 L444 663 Z M706 689 L708 691 L712 689 L714 692 L718 692 L719 693 L718 694 L721 694 L724 691 L726 692 L738 691 L739 692 L744 692 L757 695 L771 695 L772 693 L790 693 L791 694 L790 695 L774 695 L774 696 L796 696 L797 695 L805 695 L806 694 L825 692 L847 686 L860 686 L859 684 L860 683 L871 687 L877 687 L881 683 L881 680 L879 679 L875 680 L869 676 L871 675 L866 673 L851 661 L830 652 L818 649 L813 649 L812 648 L805 648 L804 647 L788 647 L787 648 L776 648 L774 649 L810 649 L811 650 L822 651 L829 654 L825 655 L824 654 L807 652 L806 651 L782 651 L781 652 L766 653 L754 657 L751 656 L759 652 L771 649 L761 650 L741 658 L715 675 L711 679 L709 683 L707 685 L706 684 L707 685 Z M331 647 L330 648 L331 667 L332 668 L332 676 L333 677 L333 685 L334 686 L335 695 L335 684 L334 683 L334 673 L333 672 Z M433 648 L439 645 L451 642 L468 641 L475 643 L484 643 L485 644 L499 646 L507 650 L503 651 L497 649 L486 648 L479 645 L468 645 L467 644 L455 645 L448 647 L441 647 L437 649 Z M812 636 L833 642 L853 652 L863 659 L875 670 L877 670 L882 675 L882 673 L878 669 L876 669 L874 667 L877 666 L870 659 L869 660 L874 665 L873 666 L855 652 L836 642 L821 637 Z M671 630 L668 643 L668 651 L667 652 L667 680 L668 681 L669 694 L672 706 L670 687 L669 686 L669 676 L668 675 L668 654 L669 653 L669 643 L671 636 Z M811 629 L834 636 L853 646 L867 657 L861 650 L852 644 L826 632 L816 629 Z M452 629 L443 631 L448 631 Z M807 628 L796 627 L795 626 L775 628 L759 632 L745 637 L733 643 L716 658 L706 673 L711 668 L712 670 L732 652 L744 645 L766 637 L771 637 L778 635 L792 635 L795 634 L778 634 L777 635 L770 635 L758 638 L736 648 L727 654 L716 664 L715 663 L728 649 L734 644 L745 638 L748 638 L760 633 L776 629 L782 629 L783 628 L805 628 L806 629 Z M380 660 L386 657 L396 648 L428 630 L434 629 L438 627 L452 627 L460 625 L479 625 L480 626 L486 626 L498 629 L518 637 L538 651 L542 655 L547 663 L546 664 L537 654 L525 645 L504 635 L476 628 L459 628 L459 629 L474 629 L475 630 L487 631 L509 638 L521 644 L536 655 L543 662 L547 670 L549 670 L548 668 L551 667 L548 661 L541 652 L524 639 L507 631 L492 626 L484 625 L483 624 L472 624 L471 623 L464 623 L463 624 L457 624 L450 626 L436 626 L427 629 L395 647 L388 654 L381 658 Z M593 611 L594 616 L600 630 L606 656 L607 673 L608 674 L608 701 L607 702 L607 706 L608 707 L608 702 L609 701 L609 674 L608 673 L607 655 L606 654 L602 633 L596 616 Z M656 609 L655 609 L651 618 L647 634 L646 646 L645 647 L645 659 L644 660 L644 704 L645 705 L646 731 L648 739 L647 722 L646 721 L646 706 L645 705 L645 661 L646 660 L646 649 L648 642 L648 635 L652 619 Z M574 608 L580 626 L580 630 L582 635 L582 641 L584 647 L584 654 L585 655 L584 684 L583 685 L583 690 L581 695 L581 699 L576 720 L580 709 L583 692 L585 687 L585 681 L586 680 L586 652 L585 651 L585 644 L584 643 L584 638 L580 621 Z M963 601 L964 600 L965 601 L964 602 Z M447 590 L445 594 L445 599 L442 607 L441 615 L439 619 L439 624 L447 598 Z M457 582 L454 588 L453 594 Z M762 574 L757 574 L742 579 L734 583 L724 590 L712 602 L701 620 L696 636 L695 651 L694 652 L695 665 L693 670 L693 688 L695 694 L695 705 L694 706 L694 723 L695 724 L696 698 L698 697 L696 695 L696 690 L694 684 L694 670 L695 669 L700 688 L704 696 L707 699 L701 687 L697 671 L697 666 L696 665 L697 640 L700 627 L704 617 L712 604 L730 587 L745 579 Z M558 631 L550 611 L535 593 L519 581 L504 574 L493 572 L511 578 L526 587 L539 599 L548 610 L556 629 L557 637 L558 638 L558 645 L559 646 L559 665 L558 666 L558 673 L555 685 L547 675 L548 674 L547 673 L546 674 L528 658 L523 656 L518 652 L514 652 L510 649 L496 644 L492 644 L486 642 L478 642 L477 641 L463 641 L462 640 L461 641 L445 642 L432 646 L421 652 L423 652 L424 653 L412 659 L411 658 L417 654 L416 653 L380 675 L376 674 L376 671 L379 668 L392 660 L410 645 L412 645 L426 636 L408 645 L390 660 L375 669 L372 673 L372 678 L374 680 L375 684 L380 684 L381 682 L377 681 L375 678 L376 677 L382 677 L384 679 L388 680 L387 681 L383 681 L383 683 L386 682 L391 684 L396 684 L397 683 L410 684 L414 682 L422 682 L425 685 L436 689 L444 690 L445 691 L462 692 L463 693 L485 693 L486 692 L493 692 L498 690 L505 691 L511 689 L516 689 L517 690 L532 689 L533 690 L538 690 L547 694 L549 692 L546 692 L545 689 L553 686 L554 689 L551 693 L554 691 L557 685 L559 677 L559 672 L560 671 L561 649 L560 648 L560 641 L559 640 Z M551 567 L566 578 L579 591 L588 602 L579 589 L568 578 L553 567 Z M679 597 L679 598 L693 585 L705 576 L719 568 L721 568 L738 560 L741 560 L752 556 L768 554 L769 553 L797 552 L798 553 L807 553 L808 554 L814 554 L815 555 L828 557 L842 562 L858 570 L873 581 L882 590 L888 599 L891 601 L885 592 L869 576 L857 568 L833 557 L817 553 L805 552 L804 551 L773 551 L772 552 L765 552 L764 553 L759 553 L746 556 L734 560 L718 567 L700 578 L691 585 Z M952 550 L950 552 L951 554 Z M959 549 L960 548 L961 550 L960 551 Z M975 547 L973 548 L972 553 Z M548 565 L537 558 L532 557 L518 551 L506 548 L490 546 L489 545 L479 545 L478 544 L453 545 L452 546 L446 546 L429 550 L407 559 L393 568 L378 583 L398 566 L419 555 L439 549 L449 548 L450 547 L457 547 L458 546 L483 546 L484 547 L492 547 L493 548 L504 549 L525 555 L528 557 L533 558 L547 566 Z M961 542 L962 543 L961 547 L960 546 Z M962 538 L963 539 L962 543 L961 542 Z M537 538 L537 539 L552 549 L579 577 L572 567 L556 551 L546 543 Z M736 533 L729 534 L707 544 L705 547 L702 548 L688 559 L672 576 L663 590 L659 599 L660 599 L666 587 L673 577 L689 560 L705 548 L706 549 L706 565 L707 564 L707 547 L712 543 L720 539 Z M288 532 L289 533 L288 541 L290 544 L292 555 L294 558 L291 563 L286 548 L286 535 Z M288 531 L289 530 L290 532 L289 533 Z M339 530 L337 532 L337 537 L334 549 L334 586 L335 587 L336 598 L336 589 L335 588 L335 551 L336 550 Z M741 530 L741 531 L745 531 L746 530 L766 527 L767 526 L796 525 L797 526 L812 527 L827 531 L846 540 L859 550 L859 556 L856 565 L859 561 L859 555 L861 551 L872 562 L884 581 L882 575 L875 564 L862 550 L840 535 L826 529 L810 525 L804 525 L803 524 L772 524 L771 525 L763 525 L762 526 Z M297 523 L301 530 L301 532 L297 534 L295 538 L295 547 L298 555 L298 557 L296 558 L293 554 L293 550 L289 540 L289 537 L291 531 L290 530 Z M350 522 L349 523 L349 530 L350 531 Z M533 536 L531 534 L518 528 L493 522 L467 521 L466 522 L457 522 L456 523 L451 523 L438 526 L421 533 L405 544 L395 554 L384 569 L382 575 L390 562 L406 545 L417 537 L436 528 L453 525 L454 524 L461 524 L462 523 L488 523 L489 524 L497 524 L510 527 Z M300 514 L300 516 L305 524 L305 521 L302 515 Z M291 513 L296 515 L293 512 Z M330 501 L330 515 L331 516 L331 535 L330 536 L330 544 L329 545 L329 549 L330 550 L331 539 L332 538 L332 509 Z M977 499 L978 500 L978 511 L977 512 L977 517 L973 533 L972 534 L968 531 L967 532 L968 533 L963 539 L962 535 L969 517 L974 513 L974 512 L972 512 L970 514 L969 513 L971 506 L974 500 Z M910 490 L922 511 L928 530 L928 565 L927 566 L926 596 L925 597 L924 677 L923 678 L923 701 L922 702 L920 755 L919 756 L919 767 L918 768 L918 777 L917 778 L915 803 L914 804 L913 817 L912 818 L911 829 L908 840 L908 845 L893 903 L899 886 L899 883 L906 860 L906 856 L912 832 L914 815 L915 814 L917 792 L918 791 L918 783 L919 782 L919 774 L920 773 L920 763 L921 762 L922 734 L923 733 L923 714 L924 713 L924 693 L925 692 L927 589 L928 588 L928 573 L929 572 L929 560 L930 559 L930 535 L924 512 L918 501 Z M362 490 L357 494 L350 508 L351 511 L351 509 L358 495 Z M313 485 L316 489 L315 492 L316 493 L316 512 L317 513 L318 552 L319 553 L319 578 L320 579 L321 619 L322 620 L322 638 L323 639 L324 741 L325 742 L325 777 L326 778 L326 800 L327 801 L328 836 L329 837 L329 849 L330 850 L330 859 L331 860 L332 873 L335 885 L340 897 L340 900 L316 910 L301 911 L295 905 L295 897 L299 884 L300 876 L303 871 L309 871 L312 869 L304 870 L301 867 L300 863 L301 859 L301 833 L302 832 L301 742 L302 741 L302 731 L303 730 L303 723 L304 722 L306 706 L314 686 L312 687 L305 704 L303 712 L302 725 L301 726 L300 750 L299 751 L300 849 L299 850 L299 868 L298 869 L298 876 L297 877 L298 881 L294 894 L294 898 L292 902 L290 896 L290 795 L289 794 L289 771 L288 770 L288 696 L289 695 L290 650 L291 649 L291 634 L292 633 L293 602 L294 601 L294 580 L295 579 L299 589 L301 598 L303 601 L303 604 L305 607 L315 635 L316 646 L317 646 L317 637 L315 632 L316 628 L313 626 L310 619 L293 568 L294 561 L297 560 L298 557 L301 561 L305 557 L305 554 L304 554 L304 556 L302 558 L300 557 L296 545 L297 537 L301 532 L304 539 L304 544 L305 545 L305 549 L304 550 L306 549 L306 541 L301 526 L296 519 L295 519 L295 521 L297 522 L289 529 L288 528 L288 523 L285 510 L285 502 L286 499 L289 497 L294 501 L296 507 L299 511 L298 506 L295 500 L290 495 L299 490 L310 487 Z M855 479 L855 483 L858 494 L858 508 L861 519 L860 508 L859 507 L859 494 Z M441 465 L437 484 L430 507 L429 525 L430 523 L431 508 L435 492 L438 485 L438 481 L441 471 Z M444 455 L442 459 L442 463 Z M945 446 L957 452 L964 457 L959 452 L947 446 Z M698 444 L697 445 L697 473 L698 474 L699 487 L700 488 L701 501 L703 509 L704 528 L705 516 L704 515 L704 506 L703 505 L702 491 L701 490 L701 484 L699 476 Z M435 421 L435 428 L438 430 L440 435 L443 438 L438 429 L438 427 L436 426 Z M442 410 L439 411 L437 415 Z M304 403 L303 402 L301 403 L301 405 Z M319 430 L338 422 L341 422 L348 419 L372 413 L387 411 L393 409 L398 409 L399 408 L411 407 L412 406 L442 403 L443 402 L451 402 L452 401 L461 401 L462 400 L487 399 L488 398 L504 398 L505 397 L524 397 L525 396 L556 396 L557 395 L678 396 L679 397 L721 398 L722 399 L738 399 L739 400 L753 400 L754 401 L789 403 L790 404 L826 407 L827 408 L833 408 L834 409 L840 409 L841 410 L847 410 L848 411 L854 411 L866 414 L871 414 L872 415 L899 420 L934 431 L956 442 L966 451 L970 458 L970 470 L966 477 L956 487 L955 486 L953 488 L949 488 L947 492 L946 501 L945 502 L944 520 L943 521 L943 539 L942 540 L941 621 L940 622 L940 640 L941 640 L942 607 L943 606 L943 551 L944 550 L945 515 L946 514 L946 506 L947 505 L948 494 L951 490 L952 491 L955 488 L957 488 L969 492 L976 497 L971 502 L967 513 L967 518 L966 519 L965 517 L960 518 L950 528 L951 529 L959 520 L963 518 L966 519 L959 541 L959 546 L958 547 L958 553 L959 552 L960 553 L959 560 L956 567 L954 566 L956 573 L953 582 L953 593 L952 594 L952 599 L948 615 L950 613 L952 605 L953 595 L954 594 L953 587 L957 575 L957 569 L961 558 L963 544 L968 533 L974 538 L978 546 L978 551 L968 576 L968 579 L966 583 L958 614 L955 621 L955 624 L952 631 L952 634 L944 654 L944 658 L945 658 L963 602 L964 603 L964 684 L965 685 L965 728 L966 729 L964 820 L963 821 L963 907 L962 908 L960 906 L960 901 L959 900 L957 885 L956 884 L956 878 L955 877 L955 828 L956 827 L956 797 L957 796 L956 737 L955 736 L955 728 L954 727 L954 719 L953 718 L952 708 L946 692 L945 693 L947 696 L947 699 L951 710 L953 732 L954 733 L954 744 L955 745 L956 784 L955 785 L954 849 L953 850 L954 852 L954 873 L951 876 L940 878 L941 879 L949 878 L952 876 L954 878 L956 893 L958 898 L958 903 L960 910 L960 916 L954 921 L947 921 L932 916 L909 905 L909 902 L913 892 L913 889 L920 867 L920 863 L924 847 L925 835 L926 834 L927 820 L928 819 L930 795 L931 794 L931 784 L932 783 L932 774 L933 773 L933 764 L934 763 L934 754 L935 753 L935 740 L936 739 L937 704 L938 703 L938 692 L937 692 L934 749 L933 750 L929 799 L928 800 L928 808 L927 809 L924 837 L923 838 L922 849 L921 850 L921 854 L920 855 L916 876 L898 929 L894 937 L893 942 L883 967 L874 985 L874 987 L860 1014 L845 1038 L821 1069 L799 1091 L779 1107 L755 1122 L736 1131 L711 1140 L685 1146 L666 1148 L665 1149 L655 1149 L654 1150 L611 1150 L610 1149 L601 1149 L600 1148 L594 1148 L593 1147 L577 1145 L557 1140 L553 1138 L550 1138 L527 1130 L496 1115 L478 1104 L456 1088 L442 1076 L425 1059 L402 1031 L386 1005 L363 955 L356 935 L350 922 L349 917 L347 914 L345 906 L343 903 L339 891 L339 888 L335 878 L333 863 L332 862 L331 842 L330 841 L330 828 L329 827 L328 786 L327 785 L326 707 L325 706 L325 653 L324 652 L324 628 L323 627 L323 607 L322 606 L322 588 L321 587 L320 542 L319 541 L319 522 L318 521 L318 506 L317 505 L316 484 L314 482 L314 479 L318 475 L329 471 L339 466 L364 458 L376 456 L381 454 L391 453 L392 452 L420 449 L421 448 L429 448 L430 447 L455 446 L456 445 L472 445 L473 444 L513 443 L514 442 L590 440 L591 439 L622 439 L623 438 L724 438 L725 439 L752 439 L753 440 L771 440 L772 441 L797 442 L798 443 L816 444 L817 445 L824 445 L825 446 L831 446 L832 447 L856 450 L894 459 L918 467 L943 479 L951 486 L950 483 L937 474 L922 467 L896 458 L893 458 L889 456 L873 452 L869 452 L853 448 L848 448 L842 446 L813 443 L812 442 L778 440 L777 439 L762 439 L761 438 L741 438 L740 437 L693 437 L692 436 L606 437 L605 438 L550 439 L549 440 L504 441 L503 442 L483 442 L482 443 L463 443 L462 444 L435 445 L434 446 L416 447 L415 448 L383 452 L378 454 L374 454 L358 458 L325 470 L317 474 L312 478 L305 474 L298 467 L295 461 L295 457 L300 451 L304 449 L308 445 L311 445 L320 440 L322 440 L324 438 L330 438 L340 434 L364 428 L369 428 L370 427 L375 427 L388 424 L409 422 L417 420 L424 420 L425 419 L445 418 L446 417 L455 417 L456 416 L468 416 L469 415 L498 414 L499 413 L518 413 L519 412 L544 412 L545 411 L577 411 L578 413 L579 412 L583 412 L584 410 L702 411 L703 412 L704 420 L699 432 L701 431 L705 422 L705 415 L704 414 L705 411 L739 412 L740 413 L758 413 L759 414 L775 414 L776 415 L800 416 L801 417 L828 419 L829 420 L835 420 L836 421 L842 421 L843 422 L849 422 L850 423 L874 426 L920 437 L940 445 L942 445 L942 444 L924 437 L889 428 L874 426 L868 424 L863 424 L862 423 L844 421 L843 420 L819 418 L818 417 L811 417 L810 416 L774 414 L773 413 L758 413 L757 412 L718 411 L717 410 L582 409 L581 410 L519 411 L518 412 L499 412 L498 413 L455 415 L454 416 L425 418 L424 419 L417 419 L416 420 L409 420 L408 421 L381 424 L365 428 L355 429 L319 439 L307 445 L297 453 L296 451 L298 447 L308 437 Z M316 387 L312 394 L312 400 L315 408 L318 410 L314 404 L314 400 L313 399 L313 395 L317 387 Z M311 387 L301 397 L300 400 L312 388 Z M449 380 L449 383 L451 387 Z M290 408 L292 400 L296 392 L310 378 L326 370 L343 364 L386 353 L419 348 L420 347 L425 347 L426 346 L440 345 L441 344 L466 342 L467 341 L477 341 L478 340 L488 340 L489 339 L500 339 L501 338 L531 337 L532 336 L553 336 L554 335 L585 335 L586 334 L650 334 L651 335 L681 335 L682 336 L718 337 L719 338 L743 339 L744 340 L754 340 L755 341 L764 341 L765 342 L790 344 L791 345 L812 347 L813 348 L842 352 L853 355 L858 355 L863 357 L876 359 L896 364 L900 366 L903 366 L910 369 L922 372 L937 379 L939 379 L956 389 L964 397 L968 403 L971 412 L971 426 L966 439 L961 444 L946 435 L944 435 L937 431 L900 419 L873 414 L872 413 L862 412 L861 411 L842 409 L835 407 L828 407 L827 406 L820 406 L819 405 L812 405 L811 404 L802 404 L801 403 L782 402 L781 401 L772 401 L771 400 L729 398 L728 397 L713 397 L712 396 L691 396 L690 395 L660 395 L659 394 L541 394 L540 395 L515 395 L514 396 L497 396 L496 397 L482 397 L481 398 L459 399 L458 400 L449 400 L441 402 L425 403 L424 404 L418 404 L417 405 L411 405 L410 406 L381 410 L358 416 L354 416 L332 423 L318 429 L303 439 L298 434 L292 423 L290 415 Z M710 314 L779 319 L780 320 L787 320 L788 321 L795 321 L796 322 L824 325 L825 326 L837 327 L838 328 L843 328 L849 330 L864 332 L873 335 L877 335 L897 340 L926 349 L929 351 L939 354 L946 358 L948 358 L960 365 L956 361 L949 357 L930 349 L895 338 L875 333 L871 333 L866 331 L846 328 L845 327 L840 327 L839 326 L834 326 L833 325 L828 325 L827 324 L815 323 L814 322 L807 322 L806 321 L799 321 L798 320 L775 318 L774 317 L751 316 L750 315 L735 315 L734 314 Z M294 368 L304 358 L325 348 L328 348 L349 341 L361 339 L365 337 L369 337 L378 334 L393 332 L399 330 L404 330 L410 328 L415 328 L416 327 L435 325 L436 324 L443 324 L444 323 L459 322 L460 321 L467 321 L468 320 L477 320 L478 319 L487 319 L488 318 L498 318 L499 317 L509 317 L510 316 L524 316 L525 315 L538 315 L539 314 L612 313 L613 312 L656 312 L657 313 L692 313 L693 314 L704 314 L705 313 L673 312 L672 311 L593 311 L592 312 L561 312 L560 313 L521 314 L520 315 L495 316 L494 317 L484 317 L483 318 L473 318 L472 319 L464 319 L463 320 L456 320 L455 321 L447 321 L446 322 L440 322 L439 323 L433 323 L432 324 L426 324 L425 325 L396 329 L395 330 L376 333 L371 335 L367 335 L351 339 L347 341 L330 345 L327 347 L317 350 L315 352 L313 352 L303 357 L296 363 L295 362 L298 355 L307 347 L324 339 L362 327 L378 324 L383 322 L402 319 L403 318 L427 315 L428 314 L434 314 L435 313 L450 312 L451 311 L482 309 L483 308 L494 308 L495 307 L507 307 L508 306 L541 305 L542 304 L567 304 L568 303 L614 303 L615 302 L629 302 L630 303 L702 304 L703 305 L722 305 L723 306 L752 307 L753 308 L763 308 L764 309 L774 309 L775 310 L784 310 L785 311 L808 313 L809 314 L829 316 L830 317 L835 317 L836 318 L841 318 L842 319 L847 319 L848 320 L872 324 L896 330 L907 334 L910 334 L933 342 L955 353 L965 364 L967 368 L966 372 L968 374 L968 380 L966 385 L960 391 L953 385 L936 376 L905 365 L865 355 L861 355 L845 351 L840 351 L834 349 L817 347 L816 346 L803 345 L802 344 L795 344 L794 343 L787 343 L786 342 L779 342 L778 341 L771 341 L770 340 L761 340 L760 339 L751 339 L750 338 L728 337 L727 336 L696 335 L695 334 L671 334 L670 333 L630 333 L629 332 L563 333 L562 334 L521 335 L520 336 L506 336 L505 337 L493 337 L492 338 L461 340 L460 341 L452 341 L451 342 L422 345 L421 346 L388 351 L341 363 L318 372 L309 377 L303 382 L297 377 Z M359 299 L357 301 L354 317 L357 310 Z M709 284 L710 285 L709 288 L708 287 Z M342 283 L340 285 L337 296 L337 300 L333 316 L333 321 L332 322 L333 326 L338 298 Z M469 273 L470 272 L471 273 L470 274 Z M470 270 L471 269 L472 271 L471 272 Z M471 268 L472 267 L473 268 L472 269 Z M361 239 L354 249 L348 261 L342 278 L342 281 L344 278 L345 273 L353 253 Z M487 219 L480 236 L480 239 L475 253 L474 261 L472 263 L468 272 L468 278 L466 281 L466 289 L463 302 L464 302 L467 292 L468 281 L475 266 L479 244 L485 225 L487 222 Z M413 196 L395 213 L379 237 L373 249 L369 263 L365 271 L359 289 L359 293 L363 284 L365 275 L370 264 L375 248 L384 231 L399 210 Z M864 192 L884 214 L899 235 L909 252 L917 268 L922 283 L924 286 L924 289 L927 296 L930 308 L932 325 L935 334 L935 329 L934 328 L934 323 L933 322 L933 317 L932 316 L932 311 L930 306 L929 298 L922 277 L915 263 L915 261 L898 231 L881 209 Z M490 192 L492 195 L491 197 L494 194 Z M513 176 L508 178 L498 179 L491 185 L489 184 L485 191 L480 196 L487 190 L489 186 L496 183 L498 181 L504 179 L510 179 Z M528 163 L522 165 L518 169 L512 171 L510 173 L518 170 Z M766 162 L771 171 L773 181 L777 192 L780 212 L781 213 L781 219 L785 234 L785 240 L788 248 L792 251 L797 261 L796 262 L792 259 L792 260 L801 271 L803 279 L806 283 L803 275 L801 273 L800 268 L796 262 L798 260 L792 248 L789 247 L785 236 L785 233 L786 232 L788 233 L788 232 L785 229 L781 204 L776 183 L773 176 L772 170 Z M800 158 L814 165 L833 179 L856 202 L870 220 L886 246 L897 268 L897 270 L906 288 L915 312 L915 309 L910 297 L908 289 L893 258 L893 256 L891 254 L880 233 L870 218 L854 198 L837 181 L815 164 L805 159 Z M582 158 L580 160 L578 182 L577 183 L576 250 L575 251 L574 281 L573 282 L574 295 L578 286 L578 278 L579 277 L578 276 L577 286 L575 290 L574 289 L574 285 L575 284 L575 273 L576 272 L578 189 L579 188 L579 176 L580 175 L580 167 L581 166 Z M474 157 L464 160 L447 168 L434 176 L422 186 L425 185 L429 181 L448 169 Z M586 156 L585 156 L585 165 L584 166 L584 175 L583 176 L583 195 L584 196 L582 203 L582 217 L581 218 L581 246 L580 247 L580 263 L579 264 L580 266 L581 249 L582 248 L583 206 L584 205 L584 195 L585 194 Z M585 146 L586 145 L587 146 L586 147 Z M586 144 L587 143 L588 144 L587 145 Z M697 142 L699 141 L703 145 L701 147 Z M696 141 L697 140 L698 141 L697 142 Z M591 139 L589 139 L585 143 L582 151 L583 154 L584 149 L585 148 L586 150 Z M688 137 L693 140 L699 146 L704 161 L705 177 L706 178 L706 250 L705 251 L705 256 L706 257 L707 253 L707 232 L708 231 L708 192 L707 191 L706 164 L705 163 L704 155 L701 148 L703 145 L706 148 L707 156 L710 166 L710 184 L711 185 L711 257 L708 269 L707 266 L705 265 L705 259 L705 266 L706 267 L705 270 L707 273 L707 278 L706 279 L707 289 L709 297 L711 298 L712 297 L712 288 L709 278 L709 271 L712 262 L712 250 L713 249 L712 169 L709 158 L709 152 L707 147 L700 140 L698 139 L696 141 L691 137 Z M476 132 L477 131 L478 132 L477 133 Z M477 131 L478 130 L479 131 L478 132 Z M485 124 L486 125 L479 131 L478 130 Z M485 124 L487 122 L489 123 L487 125 Z M739 110 L738 110 L740 114 L740 117 L735 122 L734 131 L736 129 L737 122 L741 118 L741 113 Z M319 333 L320 332 L321 320 L322 319 L322 314 L323 313 L326 294 L329 282 L332 275 L332 272 L339 253 L344 243 L352 231 L380 202 L404 183 L415 176 L446 161 L477 151 L490 149 L514 143 L539 140 L540 139 L547 139 L548 138 L555 138 L556 137 L587 135 L588 134 L610 134 L611 133 L656 133 L657 134 L695 135 L696 136 L706 136 L707 137 L716 137 L717 138 L726 138 L727 139 L752 141 L753 142 L759 142 L760 143 L765 143 L766 144 L771 144 L786 148 L790 148 L778 144 L757 141 L756 140 L750 140 L749 139 L742 139 L741 138 L713 136 L712 135 L700 135 L699 134 L687 134 L686 133 L644 132 L643 131 L600 132 L599 133 L586 133 L585 134 L571 134 L570 135 L551 136 L550 137 L535 138 L534 139 L517 141 L506 144 L501 144 L475 151 L473 147 L473 140 L486 127 L495 122 L509 117 L527 114 L528 113 L541 112 L542 111 L569 109 L574 111 L578 116 L578 121 L575 125 L575 127 L576 127 L581 119 L582 116 L581 112 L583 109 L590 107 L601 106 L589 106 L587 108 L583 108 L580 111 L579 114 L572 108 L556 108 L555 109 L538 110 L537 111 L531 111 L530 112 L510 115 L490 123 L488 122 L496 117 L510 112 L523 110 L524 109 L529 109 L530 108 L553 106 L554 105 L564 105 L565 104 L595 103 L596 102 L617 102 L618 101 L656 101 L657 102 L695 103 L696 104 L707 104 L708 105 L719 105 L720 106 L744 108 L745 109 L756 110 L773 114 L787 121 L794 128 L797 136 L796 147 L793 149 L794 150 L804 152 L820 158 L835 166 L853 178 L868 190 L893 215 L907 233 L922 258 L934 285 L941 310 L946 345 L945 346 L927 338 L891 327 L875 324 L870 322 L851 319 L850 318 L834 316 L833 315 L805 312 L804 311 L797 311 L796 310 L789 310 L788 309 L781 309 L780 308 L748 306 L747 305 L715 304 L714 303 L692 303 L691 302 L664 302 L663 301 L580 301 L579 302 L530 303 L529 304 L514 304 L513 305 L475 307 L474 308 L455 309 L454 310 L446 310 L445 311 L417 314 L416 315 L411 315 L410 316 L405 316 L404 317 L380 321 L356 327 L345 331 L342 331 L322 339 L319 338 Z M565 102 L564 103 L554 103 L553 104 L545 104 L544 105 L537 105 L536 106 L519 108 L498 114 L486 120 L475 130 L471 138 L472 150 L471 151 L446 159 L422 170 L398 185 L375 204 L352 228 L343 241 L336 255 L325 289 L325 293 L321 308 L319 325 L318 326 L317 340 L302 348 L297 353 L293 360 L292 370 L294 376 L300 384 L295 390 L290 400 L288 408 L288 415 L292 428 L301 440 L293 453 L293 461 L297 469 L302 474 L312 481 L312 483 L310 485 L299 488 L290 492 L285 496 L283 501 L283 510 L284 511 L284 517 L287 529 L284 535 L284 548 L288 562 L292 570 L292 601 L291 602 L291 619 L290 620 L288 669 L287 670 L287 695 L286 696 L286 771 L287 772 L287 793 L288 794 L287 795 L288 796 L288 896 L289 897 L289 902 L292 908 L300 913 L316 912 L339 902 L342 904 L349 925 L363 960 L369 972 L369 974 L385 1007 L394 1022 L413 1048 L431 1068 L446 1082 L469 1100 L492 1115 L511 1125 L513 1125 L522 1130 L532 1133 L535 1135 L564 1144 L568 1144 L582 1148 L601 1150 L602 1151 L610 1151 L611 1152 L654 1152 L655 1151 L664 1151 L665 1150 L672 1150 L673 1149 L679 1149 L685 1147 L695 1146 L726 1137 L759 1122 L785 1105 L801 1092 L826 1066 L847 1038 L865 1009 L883 972 L885 965 L894 945 L907 908 L908 907 L937 920 L947 923 L954 923 L958 921 L963 915 L965 907 L965 889 L966 888 L965 885 L965 815 L966 814 L967 753 L968 752 L967 686 L966 685 L966 590 L969 583 L973 567 L980 551 L979 542 L975 537 L975 532 L980 511 L980 500 L979 497 L975 493 L960 487 L967 479 L972 470 L972 458 L969 452 L963 446 L967 441 L973 426 L973 412 L969 401 L963 393 L963 391 L967 387 L969 383 L970 373 L965 360 L958 353 L948 347 L944 315 L943 314 L940 297 L935 282 L922 254 L906 228 L893 212 L871 190 L855 177 L832 162 L813 153 L799 149 L798 148 L799 136 L797 129 L786 118 L778 114 L761 109 L737 106 L736 105 L729 105 L728 104 L708 103 L707 102 L694 102 L693 101 L680 101 L679 100 L657 100 L656 99 L619 99 L618 100 L595 100 L594 101 Z" fill="#eef3f4" fill-rule="evenodd"/>
</svg>
