<svg xmlns="http://www.w3.org/2000/svg" width="1254" height="1254" viewBox="0 0 1254 1254">
  <title>0266</title>
  <path d="M625 1121 L626 1120 L627 1121 L626 1122 Z M626 1119 L627 1118 L628 1119 L627 1120 Z M437 1044 L438 1043 L439 1045 L438 1046 Z M408 1038 L410 1037 L425 1042 L467 1059 L472 1060 L619 1122 L624 1122 L625 1121 L627 1125 L659 1138 L692 1149 L721 1156 L720 1157 L713 1157 L712 1156 L706 1156 L691 1152 L687 1152 L665 1145 L662 1145 L656 1142 L629 1133 L624 1130 L619 1129 L599 1120 L587 1116 L582 1113 L580 1113 L575 1110 L573 1110 L568 1107 L566 1107 L561 1104 L554 1102 L468 1064 L433 1050 L419 1046 L413 1043 Z M406 1037 L407 1036 L408 1037 L407 1038 Z M678 1026 L674 1036 L674 1042 L670 1052 L671 1058 L666 1068 L660 1085 L665 1076 L667 1069 L672 1059 L672 1050 L674 1046 L675 1036 Z M782 997 L780 999 L777 1008 L768 1024 L766 1032 L751 1063 L751 1065 L742 1082 L736 1090 L736 1092 L738 1091 L754 1062 L754 1060 L767 1033 L769 1025 L781 1002 Z M707 996 L708 995 L709 996 L708 997 Z M708 994 L709 993 L710 994 L709 995 Z M408 990 L409 1001 L411 1009 L412 1009 L412 1005 L410 1001 Z M827 964 L825 967 L822 977 L810 1001 L809 1006 L816 992 L817 987 L823 977 Z M627 954 L628 953 L629 954 L628 955 Z M734 939 L735 942 L734 943 L733 952 L726 975 L726 978 L715 1010 L713 1012 L708 1003 L710 1001 L713 993 L714 983 L719 969 L724 944 L726 940 L733 940 Z M725 937 L726 936 L728 937 L727 938 Z M704 931 L705 930 L708 931 L707 932 Z M702 930 L703 929 L705 930 L704 931 Z M805 924 L799 944 L798 953 L792 977 L790 981 L790 985 L787 994 L784 999 L786 998 L791 986 L799 954 L799 949 Z M518 896 L519 895 L520 896 L519 897 Z M517 895 L518 894 L519 895 L518 896 Z M516 894 L517 893 L518 894 L517 895 Z M515 893 L516 892 L517 893 L516 894 Z M732 867 L733 866 L734 867 L733 868 Z M731 866 L732 865 L733 866 L732 867 Z M730 865 L731 864 L732 865 L731 866 Z M621 830 L622 829 L633 829 L639 831 L653 840 L661 849 L660 850 L657 849 L655 847 L633 836 L631 836 Z M788 836 L790 844 L793 847 L811 853 L829 854 L835 856 L839 856 L840 855 L848 856 L849 855 L854 855 L855 851 L853 855 L843 855 L842 854 L838 855 L825 852 L818 853 L795 847 L790 843 L790 839 L789 838 L791 832 L797 829 L801 831 L811 833 L814 835 L817 835 L820 837 L854 844 L845 841 L841 841 L832 838 L820 836 L808 831 L800 829 L794 829 L791 831 Z M611 826 L612 825 L622 825 L623 826 L622 827 L612 827 Z M467 814 L469 812 L471 812 L499 832 L522 845 L530 854 L557 870 L577 878 L587 880 L594 884 L596 884 L616 894 L618 896 L620 896 L638 905 L650 913 L664 915 L672 918 L679 923 L689 924 L694 926 L704 934 L714 934 L722 936 L723 937 L723 942 L717 968 L712 983 L704 998 L678 972 L665 963 L649 955 L631 954 L630 952 L613 945 L607 938 L590 927 L559 913 L549 906 L541 902 L523 898 L517 890 L501 882 L491 875 L480 871 L470 870 L458 867 L457 866 L457 858 L458 857 L459 844 L460 843 L463 826 Z M589 809 L590 808 L591 810 L590 811 Z M590 806 L591 805 L592 807 L591 808 Z M591 804 L592 803 L593 805 L592 806 Z M451 804 L449 806 L445 818 Z M593 800 L594 801 L593 804 L592 803 Z M593 798 L594 797 L595 799 L594 800 Z M447 796 L464 807 L467 811 L464 816 L458 838 L456 857 L455 858 L455 866 L454 867 L440 867 L433 873 L432 872 L432 868 L433 867 L433 860 L434 859 L436 842 L437 841 L445 799 Z M594 796 L595 795 L596 797 L595 798 Z M595 794 L596 793 L597 795 L596 796 Z M596 792 L597 791 L598 793 L597 794 Z M597 791 L598 790 L599 791 L598 792 Z M712 788 L713 787 L714 788 L713 789 Z M711 786 L712 785 L713 786 L712 787 Z M601 785 L602 786 L599 791 L598 788 Z M597 785 L598 784 L599 786 L598 787 Z M603 782 L604 784 L602 786 L601 784 Z M603 782 L604 781 L605 782 L604 783 Z M604 781 L605 780 L606 781 L605 782 Z M605 780 L606 779 L607 780 L606 781 Z M606 779 L607 778 L608 779 L607 780 Z M607 778 L608 777 L609 778 L608 779 Z M608 777 L609 776 L611 777 L610 778 Z M610 773 L611 772 L612 773 L611 774 Z M611 772 L612 771 L613 772 L612 773 Z M612 771 L613 770 L614 771 L613 772 Z M806 771 L810 769 L817 773 L824 775 L834 781 L844 784 L866 795 L869 798 L869 804 L865 807 L849 798 L842 797 L813 787 L807 782 L805 778 Z M804 773 L804 778 L806 782 L814 789 L819 791 L823 791 L828 794 L840 798 L848 799 L865 807 L867 807 L870 803 L870 799 L867 795 L843 782 L835 780 L811 768 L808 768 Z M504 765 L505 764 L516 764 L523 766 L530 770 L535 775 L540 783 L537 784 Z M626 764 L615 771 L613 770 L623 763 Z M625 763 L626 762 L628 763 L627 764 Z M590 815 L593 818 L607 826 L597 836 L607 828 L606 827 L608 826 L610 828 L619 830 L641 842 L643 842 L652 847 L656 848 L660 851 L662 851 L666 857 L671 860 L678 861 L686 865 L700 869 L705 864 L710 852 L716 828 L717 807 L713 791 L714 788 L719 797 L725 821 L724 845 L722 852 L719 858 L716 861 L718 861 L722 856 L725 848 L725 845 L727 844 L728 845 L728 858 L731 863 L730 865 L727 863 L727 865 L748 885 L776 903 L795 909 L806 909 L789 906 L773 900 L749 884 L737 872 L730 860 L730 848 L729 847 L729 839 L728 838 L728 831 L727 830 L727 820 L724 807 L719 793 L713 783 L707 776 L690 760 L689 760 L695 765 L707 781 L713 796 L714 807 L715 808 L713 833 L706 857 L702 866 L700 868 L668 857 L666 855 L666 853 L663 848 L656 840 L639 829 L622 824 L619 821 L618 821 L619 822 L618 823 L608 825 Z M493 762 L496 759 L502 757 L511 757 L517 761 L516 762 L504 762 L503 763 L494 763 Z M393 756 L391 770 L390 771 L390 779 L389 780 L389 786 L387 793 L387 806 L386 807 L387 842 L388 843 L387 811 L388 810 L388 796 L389 795 L389 787 L390 786 L390 778 L392 770 Z M720 750 L718 755 L718 761 L720 755 Z M897 737 L896 737 L895 742 L897 741 Z M745 734 L746 733 L747 734 L746 735 Z M744 733 L745 732 L746 733 L745 734 Z M743 732 L744 731 L745 732 L744 733 Z M742 731 L743 730 L744 731 L743 732 Z M891 730 L892 729 L893 730 L892 731 Z M741 730 L742 729 L743 730 L742 731 Z M740 729 L741 728 L742 729 L741 730 Z M592 729 L594 738 L597 744 Z M739 728 L740 727 L741 728 L740 729 Z M738 726 L739 725 L740 727 L739 728 Z M737 725 L738 724 L739 725 L738 726 Z M736 724 L737 723 L738 724 L737 725 Z M833 723 L834 722 L835 723 L834 724 Z M732 722 L730 723 L729 729 L727 733 L727 750 L724 758 L724 773 L726 778 L727 778 L727 776 L726 775 L726 767 L725 766 L726 765 L726 756 L729 748 L728 735 Z M753 721 L756 725 L762 729 L767 731 L771 731 L760 726 Z M724 713 L725 712 L726 714 L725 715 Z M725 711 L726 710 L727 712 L726 713 Z M726 709 L727 708 L728 709 L727 710 Z M836 707 L839 712 L839 716 L835 723 L834 719 L835 718 L835 708 Z M414 705 L419 710 L422 711 Z M493 702 L494 701 L495 702 L494 703 Z M829 694 L834 705 L834 716 L829 732 L818 742 L808 747 L799 749 L798 751 L809 748 L819 743 L829 734 L832 728 L837 722 L840 715 L840 712 L836 707 L831 696 Z M506 701 L515 696 L529 692 L551 693 L566 697 L570 700 L570 702 L581 722 L582 727 L586 735 L587 741 L594 760 L596 768 L596 773 L597 774 L597 782 L595 790 L591 799 L588 810 L586 813 L571 804 L561 802 L549 796 L547 794 L547 792 L537 774 L530 767 L525 764 L519 763 L513 757 L509 755 L503 755 L487 760 L477 753 L475 749 L483 728 L493 713 Z M829 690 L829 691 L834 693 L841 698 L843 698 L853 703 L877 727 L884 731 L854 702 Z M497 696 L481 711 L484 710 L491 703 L493 702 L494 703 L492 709 L487 716 L487 718 L476 734 L478 736 L476 739 L473 750 L475 754 L484 761 L493 765 L503 766 L516 773 L524 779 L539 786 L541 785 L542 786 L543 791 L539 805 L537 808 L535 819 L526 835 L524 842 L522 843 L501 831 L462 804 L459 800 L457 800 L447 793 L447 786 L444 795 L439 822 L437 827 L429 880 L432 878 L437 871 L441 869 L447 869 L448 868 L459 869 L469 872 L474 872 L482 874 L501 884 L512 892 L517 898 L523 901 L532 902 L547 910 L549 910 L571 921 L573 921 L596 933 L607 941 L613 947 L612 949 L614 949 L626 956 L626 959 L622 965 L629 956 L634 956 L635 957 L648 957 L669 968 L676 973 L699 996 L711 1012 L712 1016 L714 1017 L727 981 L727 978 L729 974 L729 971 L731 967 L736 947 L737 938 L704 927 L701 927 L698 925 L684 921 L668 914 L665 914 L646 907 L584 876 L565 871 L548 863 L532 853 L525 845 L526 839 L529 834 L529 832 L536 821 L538 815 L538 811 L542 802 L543 796 L545 793 L550 798 L561 803 L569 805 L583 813 L587 814 L589 810 L590 813 L591 813 L593 809 L594 803 L596 801 L601 790 L611 778 L611 776 L614 773 L624 767 L641 759 L654 755 L670 754 L686 758 L684 756 L673 753 L656 753 L644 757 L641 757 L629 763 L627 761 L624 761 L614 767 L603 781 L599 784 L598 783 L599 775 L598 774 L598 769 L595 757 L589 742 L584 725 L576 709 L578 705 L575 707 L570 697 L570 691 L568 697 L555 692 L546 691 L545 690 L528 690 L520 693 L518 691 L509 696 L496 707 L495 705 L496 704 L496 699 L498 697 Z M574 681 L570 685 L569 688 L570 688 Z M384 676 L385 675 L386 676 L385 677 Z M385 674 L386 673 L387 675 L386 676 Z M386 673 L387 672 L388 673 L387 674 Z M731 676 L737 671 L743 669 L747 669 L765 675 L789 680 L801 685 L803 684 L819 685 L820 688 L813 701 L802 711 L787 718 L779 719 L778 720 L770 720 L758 717 L750 713 L739 703 L732 690 Z M726 664 L729 663 L732 665 L737 666 L739 668 L731 673 Z M724 663 L725 662 L727 663 L726 664 Z M885 658 L886 657 L887 658 L886 659 Z M734 655 L735 654 L739 654 L740 655 L739 656 L735 656 Z M609 655 L608 655 L603 663 L602 668 L609 657 Z M885 657 L884 658 L885 661 L881 665 L865 675 L851 681 L842 682 L841 683 L832 683 L831 684 L799 682 L790 678 L769 674 L738 664 L735 664 L723 659 L727 656 L734 655 L736 657 L742 657 L745 659 L746 658 L750 661 L762 666 L781 671 L791 672 L792 673 L799 673 L800 674 L811 674 L812 675 L831 675 L832 674 L837 674 L853 669 L861 665 L870 658 L878 656 L875 652 L876 651 Z M874 651 L875 650 L876 651 L875 652 Z M873 650 L874 649 L875 650 L874 651 Z M621 650 L622 649 L623 650 L622 651 Z M926 649 L927 648 L930 649 L929 650 Z M944 642 L945 641 L946 643 L945 644 Z M931 642 L932 641 L933 642 L932 643 Z M684 641 L679 653 L680 653 L680 651 L683 646 Z M944 640 L937 647 L933 649 L929 648 L939 639 L943 639 Z M917 634 L918 633 L919 635 L918 636 Z M919 630 L920 631 L919 634 L918 633 Z M597 628 L598 627 L599 628 L598 629 Z M875 655 L869 657 L860 664 L843 671 L839 671 L834 673 L827 673 L826 674 L817 674 L816 673 L795 672 L794 671 L788 671 L787 670 L773 668 L753 661 L742 654 L749 650 L758 642 L774 635 L779 634 L799 626 L810 625 L811 624 L819 624 L820 625 L834 626 L851 632 L863 642 Z M640 623 L641 624 L641 633 L636 645 L635 644 L635 635 L637 628 Z M604 638 L617 637 L634 645 L637 645 L641 648 L658 652 L668 657 L659 651 L646 647 L641 647 L637 645 L642 634 L642 627 L643 626 L642 625 L642 621 L640 621 L637 625 L634 634 L634 642 L633 643 L618 636 L612 636 Z M666 621 L668 619 L672 621 L671 622 L667 622 Z M746 619 L743 620 L746 620 Z M688 619 L684 626 L679 622 L687 618 Z M687 618 L688 617 L689 618 L688 619 Z M927 614 L928 616 L920 630 L919 627 L922 615 L923 614 Z M513 615 L514 614 L516 615 L515 616 Z M510 614 L511 613 L513 614 L512 615 Z M507 613 L508 612 L510 613 L509 614 Z M924 612 L928 611 L931 613 L927 614 Z M504 612 L505 611 L507 612 L506 613 Z M396 610 L397 611 L396 614 L395 613 Z M608 608 L607 608 L606 611 L608 610 Z M397 607 L398 608 L397 611 L396 610 Z M704 650 L715 642 L750 624 L758 618 L761 618 L786 607 L792 606 L796 604 L800 604 L801 603 L821 603 L837 607 L849 613 L870 628 L894 652 L901 656 L904 656 L905 658 L903 661 L903 665 L894 673 L892 670 L893 669 L891 668 L887 668 L886 667 L880 668 L879 667 L882 666 L885 663 L887 658 L892 661 L893 660 L877 650 L868 642 L854 632 L840 626 L832 624 L825 624 L824 623 L806 623 L790 627 L780 632 L760 639 L742 650 L728 655 L723 659 L721 659 L708 652 L706 652 Z M664 602 L665 601 L666 602 L665 603 Z M402 598 L403 600 L398 608 L397 605 Z M402 597 L403 596 L404 598 L403 599 Z M403 596 L404 595 L405 596 L404 597 Z M400 595 L401 594 L402 595 L401 596 Z M401 594 L402 593 L403 594 L402 595 Z M666 589 L670 591 L667 598 L664 601 L665 605 L662 613 L659 615 L651 611 L651 606 L657 590 L658 589 Z M639 586 L646 587 L650 589 L642 609 L635 605 L637 598 L638 587 Z M545 585 L546 586 L545 590 L544 589 Z M545 584 L546 583 L547 585 L546 586 Z M546 583 L547 582 L548 583 L547 584 Z M660 581 L662 579 L672 581 L673 583 L671 588 L667 589 L666 588 L662 588 L659 586 Z M869 579 L870 578 L871 580 L870 581 Z M640 579 L641 578 L651 579 L652 580 L651 585 L650 586 L645 586 L639 583 Z M868 578 L869 577 L870 578 L869 579 Z M680 577 L681 580 L677 592 L671 604 L666 618 L664 621 L661 621 L660 620 L664 613 L674 583 L676 581 L675 580 Z M457 578 L458 577 L459 578 L458 579 Z M867 577 L868 576 L869 577 L868 578 Z M866 576 L867 575 L868 576 L867 577 Z M641 576 L642 575 L643 576 L642 577 Z M456 576 L457 575 L458 576 L457 577 Z M455 574 L456 573 L457 574 L456 575 Z M638 570 L640 572 L640 576 L638 580 L633 607 L631 609 L629 609 L627 607 L631 599 L634 578 Z M454 571 L455 570 L456 572 L455 573 Z M660 569 L661 571 L660 572 L659 581 L649 607 L649 614 L645 615 L643 613 L650 594 L655 576 Z M551 569 L581 606 L594 627 L598 630 L599 628 L600 629 L600 634 L595 641 L586 634 L561 609 L547 593 L547 589 L550 580 L550 570 Z M453 569 L454 568 L455 570 L454 571 Z M548 558 L549 559 L549 563 L547 565 L545 562 Z M518 559 L519 558 L520 559 L519 560 Z M519 556 L520 555 L521 557 L520 558 Z M854 549 L859 561 L860 568 L866 576 L871 587 L872 587 L870 582 L871 580 L890 602 L909 630 L906 622 L895 608 L891 601 L874 582 L872 578 L861 567 L859 558 L855 549 Z M503 545 L504 544 L505 545 L504 546 Z M502 544 L503 543 L504 544 L503 545 Z M440 544 L437 548 L436 555 L437 555 L437 552 Z M501 543 L502 542 L503 543 L502 544 Z M406 543 L407 542 L408 543 L407 544 Z M691 542 L692 541 L694 542 L693 543 Z M526 541 L541 556 L544 561 L543 562 L548 569 L548 579 L542 586 L521 562 Z M499 540 L500 539 L501 541 L500 542 Z M408 540 L409 539 L410 540 L409 541 Z M409 538 L410 537 L411 538 L410 539 Z M410 536 L411 535 L412 537 L411 538 Z M527 534 L528 538 L526 540 L525 537 Z M411 535 L412 534 L413 535 L412 536 Z M412 534 L413 533 L414 534 L413 535 Z M413 533 L414 532 L415 533 L414 534 Z M414 532 L415 531 L416 532 L415 533 Z M415 531 L417 528 L419 529 L416 532 Z M479 527 L489 534 L514 557 L556 606 L554 608 L544 613 L536 614 L535 615 L520 614 L510 611 L498 605 L483 591 L477 580 L474 571 L473 558 L472 557 L473 542 L476 532 Z M421 527 L422 526 L423 527 L422 528 Z M419 525 L420 524 L421 525 L420 526 Z M920 523 L930 534 L936 547 L936 555 L931 560 L930 559 L930 549 L918 525 Z M918 523 L919 522 L920 523 L919 524 Z M817 521 L818 520 L819 521 L818 522 Z M426 527 L436 526 L443 521 L453 520 L454 518 L457 521 L462 523 L457 527 L463 524 L462 523 L463 522 L466 522 L470 525 L476 526 L477 527 L473 534 L473 537 L471 541 L471 549 L470 550 L471 567 L475 581 L482 593 L492 603 L505 611 L501 612 L482 602 L474 596 L462 583 L455 565 L454 555 L455 554 L456 546 L464 532 L460 535 L455 544 L453 550 L453 564 L454 567 L453 568 L451 567 L454 575 L459 583 L473 598 L480 603 L482 603 L484 605 L500 613 L503 613 L510 616 L520 617 L521 618 L522 617 L540 616 L549 613 L558 608 L582 633 L592 639 L595 642 L590 650 L580 661 L575 670 L575 672 L576 672 L581 662 L582 663 L584 661 L587 655 L590 653 L594 647 L599 636 L603 644 L607 648 L607 651 L603 658 L595 667 L589 681 L587 689 L587 704 L589 710 L587 712 L588 713 L589 710 L594 719 L604 729 L614 732 L620 732 L627 729 L637 722 L645 710 L650 700 L650 698 L656 688 L664 668 L664 666 L663 666 L651 694 L651 697 L639 716 L639 718 L631 725 L619 731 L605 728 L595 718 L590 709 L588 701 L588 693 L593 674 L596 668 L602 661 L605 656 L605 654 L607 653 L610 646 L614 646 L619 651 L622 652 L629 652 L660 661 L672 662 L674 664 L673 668 L664 683 L655 707 L655 720 L659 729 L667 737 L654 743 L642 752 L640 755 L655 744 L657 744 L669 737 L674 738 L676 740 L675 741 L671 741 L671 742 L675 742 L679 739 L687 739 L699 736 L707 732 L712 728 L714 729 L713 730 L717 726 L722 718 L725 717 L730 710 L737 722 L735 725 L747 738 L757 744 L769 749 L777 751 L782 751 L783 752 L796 751 L796 750 L785 751 L784 750 L774 749 L770 747 L766 747 L751 739 L748 736 L749 735 L736 719 L731 708 L729 706 L729 708 L728 709 L727 708 L729 700 L729 691 L730 690 L731 691 L732 696 L737 704 L749 715 L763 721 L779 722 L793 718 L807 710 L814 703 L818 697 L823 685 L827 686 L841 685 L842 684 L851 683 L862 679 L863 681 L873 687 L883 696 L875 687 L864 680 L865 679 L871 679 L882 682 L887 682 L866 676 L870 673 L878 670 L887 669 L894 674 L895 681 L887 696 L891 692 L895 684 L896 678 L894 673 L898 672 L904 666 L905 656 L906 655 L907 656 L909 663 L909 669 L904 689 L903 690 L902 689 L904 694 L900 703 L897 705 L899 707 L899 709 L895 721 L894 720 L894 714 L892 707 L887 699 L885 699 L890 707 L892 713 L892 721 L893 723 L892 727 L887 731 L891 730 L892 732 L890 735 L890 744 L889 745 L889 754 L888 755 L886 777 L885 778 L881 802 L879 807 L879 811 L874 832 L870 845 L868 848 L865 858 L861 865 L861 867 L854 880 L843 895 L825 911 L812 918 L802 921 L785 921 L767 916 L753 908 L736 894 L713 871 L719 879 L738 898 L751 909 L767 918 L784 923 L802 923 L810 921 L819 917 L827 912 L839 902 L850 889 L852 889 L851 887 L854 883 L864 884 L870 893 L874 902 L872 894 L866 884 L869 879 L870 871 L873 862 L874 847 L872 861 L867 881 L865 883 L864 882 L856 882 L855 881 L859 875 L869 853 L881 812 L881 808 L887 782 L888 771 L889 770 L891 746 L892 745 L892 736 L895 730 L895 727 L898 720 L902 703 L904 701 L904 697 L905 696 L906 698 L905 691 L907 686 L909 673 L912 668 L914 653 L915 652 L915 644 L914 643 L916 639 L921 634 L921 632 L928 618 L930 616 L931 617 L930 616 L932 614 L933 615 L933 622 L932 623 L932 629 L931 630 L929 645 L922 649 L921 661 L923 660 L923 655 L925 651 L926 652 L927 651 L935 650 L944 643 L945 645 L943 649 L935 658 L928 678 L927 679 L922 679 L919 677 L918 674 L917 677 L919 680 L922 681 L920 700 L917 712 L917 717 L916 718 L912 747 L910 753 L909 764 L908 765 L899 814 L893 837 L892 846 L889 855 L889 859 L881 891 L879 905 L878 906 L876 905 L877 907 L876 908 L863 906 L861 904 L858 897 L854 891 L853 891 L853 894 L857 899 L860 907 L855 927 L853 931 L852 938 L850 942 L850 945 L841 973 L839 976 L838 981 L828 1006 L823 1015 L823 1017 L804 1055 L776 1101 L749 1137 L730 1156 L713 1153 L697 1149 L693 1147 L690 1147 L645 1131 L640 1128 L633 1126 L627 1122 L633 1107 L640 1094 L649 1066 L648 1066 L637 1099 L634 1103 L629 1114 L623 1121 L603 1114 L598 1111 L567 1099 L531 1083 L532 1075 L535 1068 L535 1065 L543 1040 L543 1035 L541 1039 L540 1038 L541 1025 L546 1009 L549 1007 L551 1009 L552 1007 L554 995 L560 973 L560 969 L558 972 L551 1003 L543 1011 L541 1022 L539 1026 L539 1033 L538 1034 L538 1038 L540 1044 L534 1062 L534 1066 L528 1081 L525 1081 L470 1058 L447 1050 L440 1045 L438 1038 L438 1030 L437 1029 L438 1015 L437 1014 L437 1009 L435 1006 L435 999 L436 998 L436 992 L437 991 L437 985 L438 984 L438 978 L439 977 L441 961 L438 972 L437 984 L435 991 L435 998 L434 999 L434 1006 L436 1010 L437 1044 L435 1045 L429 1043 L425 1040 L421 1040 L406 1035 L401 1028 L394 1002 L394 998 L389 977 L389 972 L387 966 L384 940 L383 939 L383 932 L382 931 L381 916 L380 915 L380 908 L379 907 L379 899 L378 898 L377 877 L376 876 L375 848 L374 847 L374 826 L373 825 L373 781 L374 780 L374 760 L375 759 L375 746 L376 745 L378 716 L379 715 L379 708 L380 707 L380 700 L381 699 L383 682 L389 676 L392 671 L394 674 L397 686 L404 702 L411 713 L421 724 L429 730 L445 737 L461 740 L460 738 L449 736 L433 730 L424 724 L414 714 L405 700 L399 686 L393 665 L391 651 L392 667 L384 673 L381 679 L371 679 L365 677 L363 675 L369 669 L379 654 L385 648 L389 648 L386 645 L386 642 L388 637 L389 641 L391 640 L391 627 L395 613 L396 614 L396 628 L399 638 L403 644 L409 648 L416 648 L423 645 L428 641 L433 632 L434 628 L434 615 L431 605 L431 598 L430 597 L429 587 L425 574 L422 568 L418 564 L416 565 L419 566 L422 570 L429 591 L429 600 L430 601 L430 607 L431 608 L432 620 L433 621 L432 630 L427 640 L422 644 L415 647 L411 647 L405 644 L403 642 L398 630 L398 624 L397 623 L398 613 L407 596 L407 581 L412 574 L411 573 L407 578 L406 577 L408 563 L413 551 L423 542 L426 542 L429 544 L429 549 L433 560 L435 578 L438 587 L447 602 L460 615 L466 619 L483 627 L500 633 L504 633 L507 635 L510 635 L529 641 L546 650 L564 656 L568 659 L564 661 L560 661 L554 663 L551 665 L538 666 L533 669 L529 669 L519 673 L491 687 L485 692 L470 701 L466 705 L451 714 L444 716 L436 716 L431 714 L430 715 L436 717 L446 717 L452 715 L464 708 L468 704 L483 695 L489 690 L514 677 L516 677 L526 672 L537 669 L540 667 L552 666 L559 663 L568 661 L570 659 L567 656 L542 647 L532 641 L508 633 L497 631 L494 629 L476 623 L462 615 L453 607 L443 594 L437 581 L435 562 L430 547 L432 541 L443 535 L445 536 L451 530 L432 539 L430 541 L426 540 L422 541 L416 545 L410 554 L405 569 L404 568 L404 559 L408 545 L412 539 L421 530 Z M441 521 L436 524 L430 524 L429 525 L421 525 L420 524 L435 518 L437 518 L438 520 Z M878 515 L872 533 L872 543 L871 544 L872 567 L875 575 L881 581 L889 582 L893 580 L899 574 L905 562 L910 547 L911 532 L910 532 L909 535 L909 543 L908 544 L907 552 L900 569 L897 573 L896 571 L895 572 L897 574 L892 579 L887 581 L884 581 L880 579 L876 574 L873 565 L873 537 L874 536 L874 529 Z M479 512 L480 513 L480 517 L478 525 L476 523 Z M480 507 L481 508 L480 511 L479 510 Z M461 506 L462 507 L461 510 L460 509 Z M407 506 L408 505 L409 506 L408 507 Z M480 503 L481 502 L482 504 L481 505 Z M882 502 L881 507 L883 505 L886 512 L891 518 L898 523 L908 526 L908 524 L902 523 L895 519 L888 512 L883 501 Z M462 500 L463 501 L462 505 L461 504 Z M482 496 L483 497 L482 500 L481 499 Z M453 508 L453 516 L454 517 L453 519 L452 518 L448 518 L447 519 L438 519 L437 518 L445 514 L445 513 L435 517 L429 518 L419 523 L409 537 L408 540 L406 542 L404 541 L403 538 L403 524 L405 519 L411 513 L413 514 L416 512 L428 492 L436 500 L441 502 L449 509 L452 507 Z M885 492 L886 491 L887 492 L886 493 Z M457 492 L458 491 L459 492 L458 493 Z M412 489 L413 488 L414 489 L413 490 Z M426 487 L428 491 L424 496 L420 504 L413 512 L411 510 L409 503 L407 502 L407 498 L410 492 L412 490 L413 491 L414 489 L422 489 Z M413 487 L414 486 L415 488 L414 489 Z M427 487 L431 485 L436 488 L441 496 L451 506 L449 507 L442 501 L436 498 L427 489 Z M426 486 L427 485 L428 486 L427 487 Z M480 483 L478 484 L476 492 Z M467 482 L468 484 L463 500 L462 498 L459 511 L460 510 L461 511 L460 517 L462 519 L459 520 L454 516 L454 508 L456 505 L459 495 Z M428 483 L429 482 L430 483 L429 484 Z M484 477 L485 480 L486 479 L487 481 L484 493 L481 495 L478 511 L474 524 L468 521 L471 516 L474 501 L468 520 L467 521 L461 516 L463 512 L470 480 L473 477 L479 477 L480 478 Z M484 477 L485 476 L486 477 L485 478 Z M663 472 L664 471 L666 472 L665 473 Z M668 470 L686 470 L699 475 L712 487 L717 497 L718 501 L718 516 L716 522 L710 532 L705 537 L696 542 L693 541 L697 539 L701 534 L690 541 L682 542 L681 543 L672 543 L664 540 L661 540 L649 533 L645 529 L640 520 L638 514 L638 501 L644 486 L650 480 L655 477 L664 474 L675 473 L676 474 L686 475 L695 479 L708 492 L712 503 L712 512 L710 520 L704 530 L708 527 L712 519 L714 506 L713 505 L712 497 L707 488 L699 480 L688 474 L681 472 L668 472 L667 471 Z M834 469 L833 481 L835 482 L834 483 L834 490 L833 491 L833 498 L832 499 L832 505 L830 512 L830 518 L833 505 L833 500 L834 499 L835 484 L836 483 L837 484 L834 481 Z M652 475 L644 483 L638 494 L637 502 L636 503 L636 512 L639 523 L642 528 L654 539 L669 545 L676 545 L677 546 L692 545 L696 544 L707 538 L715 529 L720 516 L720 500 L713 485 L701 474 L686 468 L673 467 L672 468 L664 469 Z M495 465 L496 470 L499 476 L500 476 Z M398 460 L399 459 L401 460 L400 461 Z M395 459 L396 458 L397 459 L396 460 Z M384 453 L385 452 L386 453 L385 454 Z M487 452 L488 451 L489 452 L488 453 Z M427 443 L428 444 L429 457 L435 470 L439 474 L441 478 L458 495 L454 504 L451 503 L445 498 L440 490 L435 485 L430 483 L426 479 L421 469 L419 461 L417 459 L417 452 L421 447 L424 446 Z M383 438 L384 437 L385 438 L384 439 Z M849 430 L853 441 L854 448 L859 461 L871 482 L879 491 L893 498 L903 509 L911 514 L919 522 L918 523 L918 527 L922 533 L928 547 L927 574 L926 575 L926 583 L925 584 L923 604 L916 634 L913 642 L909 647 L909 648 L911 647 L912 645 L913 646 L913 653 L911 660 L910 661 L909 660 L909 657 L906 649 L904 648 L904 646 L900 639 L893 630 L882 619 L869 609 L853 594 L844 584 L838 580 L858 602 L880 620 L893 633 L902 646 L903 651 L906 653 L905 655 L901 655 L897 653 L880 635 L867 624 L850 612 L839 606 L819 601 L805 601 L784 606 L759 618 L754 619 L747 624 L719 638 L706 646 L703 649 L687 634 L692 641 L706 653 L725 662 L723 663 L726 667 L725 669 L715 668 L714 667 L705 667 L705 668 L707 669 L719 669 L720 670 L725 670 L726 668 L729 673 L729 679 L727 683 L727 701 L724 711 L719 720 L706 731 L695 736 L690 736 L689 737 L673 737 L668 735 L658 725 L658 722 L656 719 L656 710 L666 681 L675 667 L674 664 L675 663 L672 660 L664 660 L663 659 L654 658 L650 656 L632 652 L615 645 L609 645 L608 648 L603 643 L601 639 L602 611 L605 601 L606 600 L612 600 L613 601 L608 603 L608 604 L611 604 L615 601 L621 601 L627 604 L625 607 L621 606 L629 611 L640 613 L634 612 L632 610 L635 607 L638 609 L641 609 L642 610 L642 614 L646 617 L657 619 L650 616 L651 613 L660 617 L658 621 L664 624 L665 623 L680 624 L682 626 L682 632 L683 632 L684 627 L694 615 L697 613 L698 614 L701 613 L708 607 L727 596 L779 574 L806 566 L816 561 L827 550 L834 536 L837 535 L836 533 L838 531 L840 525 L842 511 L843 510 L843 504 L844 503 L844 496 L845 495 L847 431 Z M370 430 L374 431 L381 436 L385 449 L384 453 L377 447 L374 439 L369 431 Z M852 429 L854 431 L854 433 L857 438 L867 463 L878 479 L880 484 L886 491 L885 492 L882 491 L874 483 L867 472 L857 452 L854 438 L851 431 Z M647 430 L645 444 L644 445 L643 466 L644 457 L645 456 L645 445 L648 434 Z M577 420 L577 432 L575 438 L575 448 L573 455 L573 461 L577 444 L577 434 L578 433 L578 421 Z M421 420 L419 421 L418 425 Z M487 408 L502 437 L527 472 L542 490 L558 505 L568 519 L597 553 L564 511 L537 482 L519 459 L503 436 L496 422 L492 417 L490 411 Z M479 400 L480 399 L481 401 L480 402 Z M480 398 L481 397 L482 398 L481 399 Z M422 398 L423 397 L424 398 L423 399 Z M462 370 L458 380 L450 390 L445 390 L441 388 L445 391 L451 390 L457 384 L462 374 Z M410 360 L418 366 L427 369 L426 373 L427 378 L423 388 L416 422 L412 427 L410 433 L410 441 L411 440 L412 429 L416 424 L422 400 L423 401 L423 407 L422 408 L423 419 L431 435 L427 441 L417 449 L416 448 L417 435 L416 435 L415 437 L414 458 L413 459 L418 464 L414 479 L415 480 L415 478 L418 476 L418 468 L419 467 L426 482 L424 483 L422 481 L424 486 L421 488 L415 487 L414 485 L408 493 L406 498 L406 507 L410 512 L406 515 L402 523 L402 528 L401 529 L402 539 L407 544 L405 550 L402 554 L403 558 L403 574 L405 582 L404 583 L401 581 L401 582 L405 585 L405 587 L400 593 L394 607 L390 623 L389 632 L385 639 L385 644 L363 675 L362 674 L362 651 L363 650 L363 636 L364 635 L366 600 L367 599 L367 591 L368 590 L368 582 L369 581 L372 549 L373 548 L374 535 L375 534 L381 493 L382 492 L392 492 L393 493 L393 497 L392 498 L392 535 L393 536 L393 565 L394 566 L394 582 L395 585 L396 573 L395 572 L395 552 L394 551 L394 496 L396 493 L399 494 L398 503 L396 507 L396 512 L396 509 L401 496 L402 488 L403 487 L403 485 L402 485 L399 489 L396 490 L386 490 L385 489 L378 490 L377 489 L378 463 L376 457 L370 448 L367 433 L368 432 L375 447 L383 455 L391 460 L397 462 L401 462 L402 461 L406 466 L405 477 L406 477 L408 472 L408 466 L406 463 L406 460 L410 448 L410 443 L409 443 L407 454 L404 460 L401 458 L392 456 L389 453 L390 452 L391 444 L397 431 L401 414 L404 407 L402 401 L402 387 L403 386 L403 381 L404 380 L407 363 Z M412 360 L413 359 L417 359 L425 363 L426 365 L425 366 L420 365 Z M560 353 L561 354 L561 360 L560 361 L558 359 Z M560 352 L561 351 L562 353 L561 354 Z M566 329 L564 332 L564 335 L565 335 Z M444 320 L440 333 L440 342 L439 343 L438 356 L436 363 L436 376 L437 377 L437 381 L440 386 L437 375 L437 367 L438 366 L438 360 L441 347 L441 339 L442 338 L442 331 L444 325 Z M475 310 L470 315 L465 325 L462 328 L454 331 L457 331 L464 328 L470 317 L474 312 L475 313 L476 321 L473 333 L469 343 L464 364 L477 323 L477 317 L476 316 L477 313 Z M442 310 L443 309 L445 310 L444 311 Z M428 307 L429 306 L430 307 L429 308 Z M427 306 L428 305 L429 306 L428 307 Z M429 311 L433 308 L442 313 L454 314 L459 312 L454 312 L453 313 L452 312 L445 312 L444 311 L445 310 L463 308 L464 306 L470 305 L481 299 L484 300 L472 307 L472 308 L474 308 L491 299 L493 300 L485 322 L482 337 L476 355 L470 381 L462 400 L462 405 L461 406 L463 406 L473 416 L475 415 L477 409 L484 399 L484 391 L489 376 L491 373 L498 351 L512 316 L522 329 L549 355 L558 362 L560 362 L562 365 L573 373 L589 382 L592 385 L585 394 L577 411 L577 415 L585 396 L590 388 L594 385 L613 395 L634 403 L635 406 L638 404 L647 408 L647 414 L645 419 L644 427 L645 427 L648 412 L650 408 L654 410 L654 415 L655 415 L655 411 L657 410 L682 417 L686 417 L707 422 L718 423 L719 424 L739 426 L740 427 L757 428 L758 429 L766 429 L767 430 L779 430 L780 431 L793 431 L794 432 L823 432 L824 431 L828 431 L829 432 L828 458 L827 459 L824 494 L823 495 L823 501 L822 502 L820 516 L816 519 L815 522 L811 526 L804 530 L775 540 L752 551 L731 565 L704 586 L710 583 L736 563 L755 551 L774 542 L801 533 L814 526 L817 522 L818 526 L820 528 L829 532 L829 531 L822 528 L819 525 L819 522 L822 514 L824 498 L825 497 L825 491 L826 490 L826 484 L827 483 L827 473 L828 472 L828 464 L829 463 L829 455 L830 454 L830 435 L832 431 L839 431 L840 432 L839 433 L839 453 L840 453 L841 431 L844 430 L845 431 L845 461 L844 462 L843 498 L842 499 L842 505 L841 506 L841 512 L840 513 L838 527 L835 531 L830 542 L823 552 L813 561 L797 567 L794 567 L779 572 L752 584 L733 591 L731 593 L716 600 L706 607 L698 610 L693 614 L677 621 L670 619 L668 617 L677 594 L680 593 L685 595 L691 595 L679 591 L681 584 L682 583 L691 586 L698 586 L683 583 L682 582 L683 575 L680 575 L673 580 L667 578 L663 578 L662 579 L661 578 L662 576 L662 569 L660 567 L650 577 L643 576 L639 567 L636 570 L633 578 L631 579 L626 576 L620 574 L616 574 L598 556 L615 574 L627 578 L631 581 L630 582 L621 582 L619 584 L626 583 L632 585 L630 590 L630 598 L628 602 L619 599 L610 599 L608 598 L597 585 L595 581 L589 575 L582 564 L518 501 L511 491 L505 486 L517 502 L580 564 L590 579 L605 597 L605 599 L600 604 L599 609 L597 612 L597 615 L600 609 L601 610 L599 624 L597 628 L583 606 L550 565 L550 561 L551 560 L550 545 L549 545 L548 548 L548 555 L545 559 L532 543 L529 541 L530 536 L528 532 L523 535 L517 529 L505 521 L505 517 L506 516 L506 495 L505 491 L498 480 L495 473 L494 474 L496 479 L503 490 L505 497 L505 509 L504 510 L504 519 L503 520 L506 524 L512 527 L523 537 L524 545 L520 550 L517 558 L501 537 L502 530 L499 535 L499 537 L497 539 L491 533 L480 525 L483 505 L484 504 L484 499 L491 470 L490 470 L489 473 L486 476 L470 476 L459 490 L457 491 L438 473 L435 468 L429 453 L429 447 L428 446 L428 442 L431 435 L438 442 L444 445 L448 445 L449 446 L463 446 L464 445 L480 444 L487 449 L486 452 L488 454 L489 453 L494 462 L494 459 L490 451 L480 442 L465 443 L464 444 L448 444 L447 443 L443 443 L437 440 L433 436 L426 423 L424 416 L424 404 L425 403 L425 396 L426 395 L425 391 L428 380 L428 370 L429 367 L426 361 L424 361 L417 357 Z M498 298 L500 301 L499 302 L498 310 L492 326 L491 333 L488 340 L485 353 L478 369 L478 372 L475 379 L472 392 L476 383 L483 360 L485 357 L494 329 L494 326 L500 311 L501 304 L503 300 L506 307 L511 314 L499 343 L491 367 L482 387 L474 411 L472 412 L468 409 L468 407 L471 402 L471 398 L468 403 L468 405 L466 407 L463 405 L463 402 L465 399 L472 379 L472 376 L474 373 L476 362 L482 344 L486 325 L493 306 L494 299 Z M483 299 L484 298 L486 299 L485 300 Z M818 298 L823 303 L826 310 L829 311 L835 316 L830 311 L828 307 Z M485 298 L486 297 L488 298 L487 299 Z M494 295 L495 294 L498 295 L497 296 Z M497 294 L499 292 L501 293 L500 295 Z M472 286 L473 289 L471 292 L470 289 Z M472 285 L473 284 L474 286 L473 287 Z M473 283 L474 282 L475 283 L474 284 Z M780 271 L781 270 L782 271 L781 272 Z M773 271 L774 270 L775 271 L774 272 Z M705 210 L708 213 L726 219 L730 219 L730 217 L734 212 L735 213 L734 221 L737 223 L746 226 L748 225 L750 227 L783 238 L826 257 L828 259 L839 264 L858 275 L887 294 L922 320 L930 329 L930 327 L927 323 L909 308 L887 292 L853 270 L804 245 L779 235 L751 226 L750 225 L751 224 L752 216 L756 207 L754 208 L754 210 L746 224 L737 221 L736 220 L737 216 L736 206 L738 202 L739 195 L737 197 L734 211 L728 218 Z M735 186 L734 188 L736 190 L738 190 L738 188 Z M764 175 L768 177 L767 175 Z M830 168 L832 170 L841 172 L844 174 L902 193 L918 201 L936 215 L926 205 L910 195 L908 195 L893 188 L833 168 Z M574 158 L575 157 L576 158 L575 159 Z M830 104 L831 103 L832 104 L831 105 Z M831 103 L832 102 L833 103 L832 104 Z M433 275 L444 259 L462 240 L480 226 L501 213 L535 196 L562 186 L575 183 L586 188 L581 184 L575 182 L570 175 L569 164 L571 161 L574 160 L580 160 L596 167 L598 169 L598 176 L601 182 L601 178 L600 177 L600 171 L601 170 L605 174 L611 174 L615 178 L617 178 L624 182 L626 182 L631 185 L638 187 L663 198 L695 209 L703 210 L702 209 L703 207 L702 208 L697 208 L693 206 L690 206 L649 191 L644 188 L614 176 L609 172 L605 172 L602 169 L603 166 L598 167 L585 160 L577 159 L575 157 L586 151 L596 148 L599 146 L621 140 L638 138 L639 137 L663 136 L685 142 L717 155 L739 162 L705 148 L700 147 L696 145 L695 142 L693 144 L672 136 L664 134 L657 134 L654 130 L653 122 L654 119 L658 116 L669 116 L670 117 L679 118 L734 140 L743 142 L778 154 L810 162 L797 157 L780 153 L725 135 L680 117 L667 114 L662 114 L661 113 L668 109 L677 106 L694 103 L695 102 L700 102 L701 101 L709 101 L710 100 L747 100 L748 101 L772 103 L773 104 L784 105 L803 110 L807 110 L830 117 L833 117 L837 119 L840 119 L874 131 L891 139 L904 147 L919 163 L931 185 L938 205 L939 215 L940 216 L940 218 L939 219 L938 218 L938 220 L940 221 L940 224 L937 231 L929 240 L916 248 L910 238 L898 226 L890 220 L871 209 L847 198 L824 190 L821 188 L779 175 L826 191 L851 201 L858 205 L860 205 L879 215 L893 224 L908 238 L916 252 L921 266 L927 292 L930 313 L931 314 L932 334 L930 338 L921 346 L904 351 L894 351 L885 339 L864 318 L844 303 L820 289 L785 273 L783 271 L786 265 L783 266 L779 270 L768 267 L766 265 L767 260 L765 261 L763 265 L758 264 L753 261 L700 241 L695 238 L678 232 L659 223 L657 223 L639 214 L637 214 L594 192 L592 192 L641 217 L643 217 L677 233 L732 255 L737 256 L745 260 L750 261 L760 266 L765 267 L784 280 L785 280 L784 278 L774 272 L775 271 L778 272 L780 271 L786 275 L801 281 L826 294 L852 311 L878 334 L892 351 L903 368 L919 402 L927 426 L932 446 L934 460 L935 461 L937 480 L938 481 L938 489 L939 490 L939 502 L940 503 L939 543 L937 545 L936 544 L936 541 L928 528 L909 510 L910 509 L908 510 L904 507 L886 489 L878 479 L874 470 L865 455 L863 450 L864 426 L865 425 L865 421 L864 420 L865 407 L864 406 L863 391 L861 385 L862 398 L863 399 L863 436 L861 444 L857 435 L855 427 L851 426 L851 417 L849 411 L849 419 L850 420 L850 427 L849 428 L845 427 L848 421 L840 429 L828 429 L827 430 L791 430 L790 429 L776 429 L775 428 L747 426 L746 425 L739 425 L738 424 L731 424 L724 422 L706 420 L705 419 L701 419 L700 418 L696 418 L695 417 L691 417 L665 411 L633 401 L613 392 L611 392 L590 381 L563 363 L563 350 L565 345 L565 338 L564 338 L564 343 L562 349 L559 351 L558 356 L557 357 L554 356 L547 350 L549 348 L550 341 L546 349 L527 331 L515 317 L505 300 L502 288 L499 290 L498 289 L499 290 L497 292 L492 293 L481 298 L477 298 L476 300 L466 304 L465 300 L469 294 L472 293 L474 290 L476 284 L475 278 L482 272 L485 266 L493 257 L485 264 L481 271 L474 277 L469 288 L468 294 L464 299 L462 304 L457 307 L453 307 L452 308 L436 307 L429 303 L427 303 L425 301 L426 292 Z M831 91 L833 94 L833 99 L829 105 L828 111 L826 113 L824 113 L823 112 L823 108 Z M731 91 L733 86 L741 79 L751 76 L770 75 L771 74 L796 75 L797 76 L812 77 L813 78 L830 81 L837 84 L852 83 L853 84 L871 84 L872 85 L886 86 L908 92 L917 96 L926 102 L932 108 L938 118 L939 130 L935 139 L921 153 L916 156 L909 151 L905 146 L887 135 L885 135 L876 130 L866 127 L863 125 L839 117 L829 115 L828 113 L838 97 L838 93 L837 93 L837 95 L835 97 L834 94 L831 91 L828 94 L826 100 L822 106 L822 111 L819 112 L802 107 L798 107 L793 105 L788 105 L777 102 L772 102 L771 101 L765 101 L757 99 L748 99 L747 98 L733 98 L731 94 Z M787 72 L767 72 L766 73 L756 73 L755 74 L746 75 L735 80 L732 83 L729 90 L729 94 L730 95 L729 98 L728 97 L726 98 L708 98 L707 99 L693 100 L673 105 L659 111 L652 118 L651 126 L654 133 L653 134 L631 136 L630 137 L625 137 L608 141 L590 147 L575 154 L569 159 L566 167 L567 168 L567 173 L571 181 L570 182 L542 191 L506 208 L487 219 L461 238 L443 257 L433 271 L427 283 L423 297 L423 302 L427 309 L427 313 L422 328 L416 356 L415 357 L408 357 L405 363 L402 381 L401 382 L401 387 L400 388 L400 401 L402 407 L399 414 L399 417 L394 433 L387 449 L384 442 L384 439 L386 438 L385 435 L371 428 L366 428 L364 430 L368 448 L374 458 L376 464 L376 469 L375 470 L375 491 L380 493 L378 498 L378 503 L377 504 L377 509 L376 510 L376 515 L373 528 L373 534 L372 535 L370 555 L369 556 L369 563 L368 564 L368 571 L367 572 L367 579 L366 580 L366 587 L365 588 L363 619 L362 620 L362 631 L361 632 L361 646 L360 647 L360 676 L367 680 L380 681 L381 682 L379 698 L378 699 L376 722 L375 723 L373 757 L372 758 L372 778 L371 779 L372 850 L373 851 L373 866 L374 867 L376 899 L377 900 L378 917 L379 918 L379 925 L380 926 L380 933 L381 934 L382 947 L384 954 L384 960 L385 961 L386 972 L387 973 L388 983 L393 1003 L393 1007 L401 1033 L414 1046 L425 1049 L428 1051 L433 1052 L436 1054 L441 1055 L461 1063 L468 1067 L489 1075 L514 1087 L516 1087 L584 1117 L591 1119 L596 1122 L636 1138 L641 1139 L644 1141 L671 1150 L678 1151 L690 1155 L694 1155 L705 1158 L711 1158 L712 1159 L729 1159 L737 1154 L753 1136 L774 1108 L802 1063 L830 1006 L842 976 L849 955 L849 952 L852 945 L857 924 L859 920 L861 908 L862 907 L871 910 L879 910 L880 909 L885 882 L891 860 L891 856 L897 833 L898 824 L900 819 L900 815 L902 810 L902 806 L903 805 L903 801 L904 800 L904 796 L910 770 L910 765 L914 748 L919 713 L922 701 L924 682 L928 681 L930 679 L936 661 L939 656 L945 650 L949 641 L949 639 L947 637 L940 637 L933 642 L932 641 L934 624 L935 623 L935 612 L931 610 L927 610 L924 608 L925 600 L926 599 L926 593 L927 592 L927 586 L928 585 L929 566 L930 563 L935 560 L938 556 L940 550 L941 536 L942 535 L942 500 L941 499 L941 488 L940 487 L940 479 L939 478 L937 460 L936 459 L934 445 L929 425 L922 404 L907 371 L896 354 L897 353 L904 353 L905 352 L914 351 L925 346 L931 341 L934 334 L934 321 L933 320 L933 313 L932 312 L932 307 L931 306 L928 286 L922 262 L917 250 L932 240 L939 232 L942 225 L942 214 L941 213 L940 204 L933 184 L926 170 L918 158 L926 152 L934 144 L938 138 L941 131 L941 121 L935 108 L926 99 L909 90 L887 84 L882 84 L881 83 L874 83 L873 82 L858 82 L857 81 L838 82 L830 79 L813 76 L812 75 L800 74 L799 73 L788 73 Z" fill="#eef3f4" fill-rule="evenodd"/>
</svg>
