<svg xmlns="http://www.w3.org/2000/svg" width="1254" height="1254" viewBox="0 0 1254 1254">
  <title>0269</title>
  <path d="M563 981 L564 980 L565 982 L564 983 Z M671 977 L672 978 L671 982 L670 981 Z M617 977 L618 978 L618 985 L617 986 L616 985 L616 978 Z M564 977 L565 976 L566 978 L565 979 Z M566 970 L567 971 L566 974 L565 973 Z M618 965 L619 966 L619 975 L618 976 L617 975 L617 966 Z M518 964 L519 963 L520 964 L519 965 Z M620 963 L621 962 L667 962 L668 963 L667 965 L668 966 L669 989 L664 991 L620 991 L619 990 Z M519 960 L520 959 L521 961 L520 962 Z M570 957 L571 956 L577 956 L578 957 L590 958 L591 959 L616 961 L617 962 L615 968 L614 989 L613 990 L602 990 L601 989 L583 988 L582 987 L567 985 L566 983 L567 982 L569 966 L570 965 Z M520 957 L521 956 L522 958 L521 959 Z M717 956 L718 966 L722 980 L720 982 L694 988 L678 989 L677 990 L674 989 L673 970 L670 963 L672 961 L683 961 L684 960 L698 959 L713 955 Z M521 954 L522 953 L523 955 L522 956 Z M522 951 L523 950 L524 951 L523 952 Z M528 943 L547 950 L566 954 L568 956 L565 962 L562 981 L560 984 L539 978 L520 969 L523 962 L523 959 L526 951 L526 947 Z M750 942 L757 963 L746 971 L727 980 L720 954 Z M759 936 L763 936 L770 950 L770 952 L762 960 L760 957 L760 954 L757 948 L756 943 L753 940 Z M784 931 L785 930 L786 931 L785 932 Z M506 929 L507 928 L512 928 L513 929 L540 931 L541 932 L573 933 L574 934 L596 934 L597 935 L620 935 L621 936 L645 936 L646 937 L707 937 L708 936 L720 936 L721 935 L741 933 L742 932 L746 932 L749 930 L755 930 L759 928 L762 928 L763 930 L753 936 L750 939 L748 939 L739 944 L717 952 L713 952 L704 955 L685 957 L684 958 L674 958 L673 959 L619 959 L618 958 L608 958 L607 957 L583 955 L582 954 L577 954 L576 953 L572 953 L571 952 L550 948 L517 936 Z M498 928 L509 935 L519 940 L521 940 L525 943 L521 948 L518 960 L515 967 L502 958 L491 948 L496 931 Z M504 928 L505 927 L507 928 L506 929 Z M495 927 L496 928 L494 930 L492 939 L490 944 L488 945 L485 942 L488 938 L491 929 Z M814 924 L815 923 L816 924 L815 925 Z M786 923 L787 924 L787 928 L786 929 L785 928 L785 924 Z M785 919 L786 920 L785 923 L784 922 Z M797 913 L798 912 L802 913 L801 914 Z M751 926 L752 925 L753 912 L754 911 L756 912 L772 913 L776 915 L770 920 L756 927 L752 927 Z M570 909 L571 910 L571 916 L570 917 L569 916 L569 910 Z M472 909 L473 911 L471 917 L470 916 L470 911 Z M716 909 L717 908 L727 908 L728 909 L737 909 L738 910 L746 910 L748 911 L749 913 L748 914 L748 925 L745 929 L716 933 L715 932 L717 927 L717 911 Z M671 906 L672 905 L685 905 L686 906 L712 907 L713 908 L712 910 L712 932 L704 934 L670 934 L669 933 L671 929 L671 912 L672 911 L671 910 Z M620 905 L621 906 L621 920 L620 921 L619 920 L619 906 Z M527 905 L528 906 L528 911 L527 912 L526 911 L526 906 Z M484 904 L494 904 L495 905 L495 917 L494 918 L491 913 L483 905 Z M443 906 L444 905 L473 904 L474 905 L468 911 L468 917 L473 929 L481 941 L499 959 L510 967 L527 976 L546 983 L566 988 L584 990 L585 991 L593 991 L594 992 L620 993 L621 994 L658 994 L659 993 L684 992 L685 991 L704 989 L729 982 L748 973 L764 962 L780 946 L785 939 L790 928 L789 921 L785 916 L786 915 L812 917 L815 919 L804 933 L803 936 L786 961 L774 976 L754 995 L733 1009 L709 1020 L679 1028 L673 1028 L665 1030 L656 1030 L655 1031 L615 1031 L614 1030 L604 1030 L603 1029 L584 1027 L563 1022 L541 1014 L527 1007 L513 998 L503 990 L489 976 L480 965 L467 946 L446 909 Z M622 904 L623 903 L666 904 L667 905 L666 933 L665 934 L622 933 L621 932 L622 928 L622 909 L623 908 Z M498 904 L499 903 L525 903 L526 904 L524 908 L524 926 L520 927 L519 926 L513 926 L512 925 L507 925 L499 923 L498 922 Z M572 903 L573 902 L616 902 L618 904 L617 931 L616 932 L595 932 L594 931 L575 931 L571 929 L572 926 L572 913 L573 912 L573 904 Z M530 904 L531 903 L547 903 L548 902 L568 902 L569 903 L568 904 L568 911 L567 912 L567 928 L568 929 L567 930 L555 930 L554 929 L530 928 L528 926 Z M453 902 L454 901 L458 901 L459 902 L458 903 L454 903 Z M458 901 L467 898 L492 895 L493 894 L510 893 L511 892 L519 892 L520 891 L528 891 L529 890 L539 890 L540 889 L550 889 L551 888 L574 887 L575 886 L603 885 L619 891 L627 890 L630 888 L638 886 L648 886 L649 887 L658 887 L659 888 L690 891 L697 893 L703 893 L704 894 L710 894 L711 895 L717 895 L724 897 L748 900 L749 901 L773 905 L782 908 L786 908 L798 912 L797 913 L789 913 L781 911 L772 911 L771 910 L734 907 L733 906 L696 904 L695 903 L680 903 L679 902 L662 902 L661 901 L641 901 L640 900 L558 899 L557 900 L512 900 L511 901 L507 900 L506 901 L480 901 L479 902 L459 902 Z M362 852 L363 851 L364 853 L363 854 Z M361 850 L362 849 L363 851 L362 852 Z M902 847 L903 846 L904 848 L903 849 Z M496 847 L472 866 L458 873 L437 878 L419 878 L399 873 L384 865 L365 848 L380 864 L387 869 L399 875 L419 880 L436 880 L437 879 L443 879 L451 877 L470 869 L483 860 Z M903 844 L904 843 L905 845 L904 846 Z M352 836 L351 837 L329 836 L328 835 L312 834 L308 832 L314 830 L340 828 L341 829 L349 829 Z M910 831 L910 826 L911 825 L930 825 L931 826 L940 826 L941 827 L940 829 L935 829 L934 830 L913 831 L912 832 Z M587 825 L588 826 L587 830 L585 827 Z M907 822 L908 821 L909 823 L908 824 Z M680 812 L681 811 L682 812 L681 813 Z M567 810 L568 809 L569 810 L568 811 Z M539 796 L541 794 L548 794 L557 799 L568 809 L565 810 L562 808 L547 805 L540 799 Z M753 776 L751 776 L750 785 L746 797 L746 804 L747 804 L748 795 L751 787 Z M741 716 L742 715 L743 716 L742 717 Z M521 716 L522 715 L524 716 L523 717 Z M816 672 L810 677 L800 682 L786 686 L764 686 L744 681 L749 684 L760 687 L765 687 L766 688 L786 688 L798 685 L808 680 Z M779 664 L780 663 L781 664 L780 665 Z M777 663 L778 662 L779 663 L778 664 Z M775 662 L776 661 L777 662 L776 663 Z M773 661 L774 660 L776 661 L775 662 Z M472 650 L473 649 L474 650 L473 651 Z M841 642 L842 641 L843 642 L842 643 Z M842 641 L843 640 L844 641 L843 642 Z M507 638 L508 637 L509 638 L508 639 Z M508 637 L509 636 L510 637 L509 638 Z M509 636 L510 635 L511 636 L510 637 Z M520 614 L521 613 L522 615 L521 616 Z M521 613 L522 612 L523 613 L522 614 Z M671 593 L672 594 L669 600 L666 611 L665 623 L664 624 L664 634 L663 635 L660 762 L659 763 L658 791 L657 792 L657 799 L656 800 L656 807 L655 808 L653 824 L648 836 L642 842 L630 847 L624 847 L623 848 L612 847 L600 842 L592 832 L589 822 L588 805 L587 804 L587 753 L588 752 L589 721 L590 720 L592 691 L593 690 L594 676 L595 675 L595 669 L597 661 L597 654 L598 653 L599 641 L600 640 L601 618 L602 617 L601 602 L598 593 L599 592 L608 596 L616 598 L623 598 L624 599 L654 598 Z M902 582 L906 596 L908 613 L909 614 L912 662 L913 663 L913 676 L914 677 L914 690 L915 691 L915 703 L916 704 L916 713 L918 715 L917 711 L917 698 L916 697 L916 682 L915 681 L914 646 L913 645 L912 622 L911 621 L911 614 L910 613 L910 608 L906 593 L906 589 L904 583 Z M940 571 L941 570 L942 572 L941 573 Z M942 566 L943 567 L942 570 L941 569 Z M853 564 L854 563 L855 564 L854 565 Z M943 560 L944 561 L944 565 L943 566 L942 565 L942 561 Z M804 555 L816 556 L822 558 L834 565 L840 571 L844 577 L849 591 L849 607 L845 620 L840 628 L828 639 L812 645 L798 645 L784 640 L777 635 L768 624 L765 618 L762 607 L763 589 L770 574 L777 566 L784 561 L793 557 L803 556 Z M798 553 L786 557 L777 563 L768 573 L762 584 L762 587 L760 591 L760 610 L765 624 L770 631 L777 638 L783 642 L797 647 L813 647 L827 642 L833 638 L844 626 L850 612 L851 603 L852 602 L852 595 L851 594 L850 585 L845 574 L839 566 L833 561 L824 556 L814 553 Z M799 543 L816 543 L829 547 L839 553 L850 565 L854 573 L857 585 L856 607 L853 618 L849 627 L845 633 L835 643 L823 650 L812 653 L793 652 L776 644 L763 630 L758 620 L755 608 L755 590 L756 589 L756 585 L760 573 L766 563 L780 550 L788 546 Z M437 537 L438 539 L436 541 L435 545 L430 554 L430 557 L426 568 L426 577 L425 578 L426 596 L432 611 L436 617 L445 626 L455 632 L469 636 L486 636 L497 633 L505 629 L515 621 L516 622 L515 621 L520 615 L521 617 L516 626 L501 642 L495 645 L487 647 L471 647 L463 645 L446 637 L433 625 L424 611 L419 596 L418 572 L421 559 L425 550 Z M474 536 L488 537 L494 539 L506 546 L514 555 L519 565 L521 573 L521 585 L520 586 L519 594 L512 608 L499 620 L485 625 L470 625 L458 621 L452 617 L441 605 L437 597 L435 589 L435 573 L437 565 L445 551 L454 543 L464 538 L473 537 Z M437 537 L438 536 L439 537 L438 538 Z M477 533 L476 534 L470 534 L462 536 L454 540 L443 550 L440 554 L434 568 L434 572 L433 573 L433 590 L439 606 L445 614 L452 620 L462 625 L469 627 L486 627 L496 624 L503 620 L512 612 L517 605 L520 599 L523 588 L523 570 L519 558 L509 545 L504 541 L494 536 L487 534 Z M743 531 L745 532 L740 540 L735 554 L733 567 L732 568 L732 575 L731 576 L731 597 L732 598 L732 604 L735 617 L744 637 L752 648 L760 656 L777 667 L790 671 L795 671 L796 672 L789 675 L777 676 L776 677 L766 677 L765 676 L753 675 L738 670 L725 662 L712 649 L706 640 L701 629 L696 609 L696 588 L697 587 L697 582 L699 574 L709 557 L724 542 Z M554 530 L556 530 L560 533 L565 540 L570 551 L570 556 L571 557 L570 560 L562 543 L553 531 Z M552 530 L553 529 L554 530 L553 531 Z M551 529 L552 528 L553 529 L552 530 Z M700 527 L694 532 L685 545 L675 567 L672 578 L660 582 L645 583 L644 584 L617 583 L601 579 L599 576 L598 567 L594 553 L588 538 L584 531 L583 531 L589 544 L594 559 L597 576 L599 580 L617 585 L645 586 L646 585 L660 584 L671 581 L674 579 L682 555 L689 542 Z M764 524 L771 524 L772 525 L759 541 L752 554 L746 572 L743 596 L744 597 L744 606 L745 607 L746 616 L750 628 L761 647 L774 660 L773 661 L766 657 L752 643 L747 636 L739 619 L735 603 L735 594 L734 593 L734 579 L735 578 L736 563 L739 551 L745 536 L750 528 Z M771 524 L772 523 L773 524 L772 525 Z M476 523 L492 525 L498 527 L510 534 L518 542 L522 548 L525 555 L528 567 L527 589 L523 603 L520 609 L514 617 L504 626 L491 632 L480 633 L479 634 L464 632 L449 625 L438 614 L433 606 L428 589 L430 565 L437 545 L440 540 L449 531 L459 526 L467 524 L475 524 Z M537 521 L557 541 L561 547 L568 563 L570 571 L570 576 L571 577 L571 604 L570 605 L568 619 L563 633 L558 642 L552 650 L540 660 L534 663 L519 667 L508 667 L507 666 L497 665 L483 659 L473 651 L474 650 L487 650 L488 649 L496 648 L512 640 L523 630 L530 620 L536 608 L542 589 L543 576 L544 575 L543 548 L539 531 L535 523 Z M534 521 L535 520 L536 521 L535 522 Z M890 484 L892 486 L893 494 L889 506 L881 519 L862 543 L853 564 L844 553 L836 547 L828 543 L818 540 L796 540 L786 543 L776 548 L763 560 L755 574 L752 584 L751 604 L752 605 L753 616 L757 627 L767 641 L783 652 L797 656 L818 655 L832 649 L841 642 L842 643 L837 651 L828 660 L814 667 L810 668 L794 668 L780 662 L773 657 L765 649 L757 637 L751 624 L746 604 L746 585 L747 584 L748 573 L754 555 L761 542 L777 523 L791 523 L792 524 L800 524 L801 525 L815 526 L816 527 L832 527 L833 526 L845 525 L857 521 L869 514 L877 507 L884 498 Z M371 465 L372 466 L372 470 L377 480 L390 494 L399 500 L418 508 L442 511 L443 510 L457 510 L458 509 L480 507 L481 506 L498 506 L499 507 L505 507 L517 510 L528 515 L530 517 L537 535 L540 548 L540 558 L541 559 L540 581 L533 607 L527 619 L522 626 L512 636 L510 635 L518 626 L525 613 L528 604 L530 587 L531 586 L530 560 L528 553 L520 539 L507 528 L493 522 L481 521 L480 520 L465 521 L452 525 L435 535 L427 543 L421 553 L419 551 L416 539 L411 529 L403 519 L377 495 L373 489 L372 485 L369 481 L370 466 Z M935 435 L936 434 L937 435 L936 436 Z M880 464 L880 468 L873 474 L865 478 L855 481 L839 481 L828 478 L823 478 L816 476 L808 476 L807 475 L776 475 L775 476 L766 476 L765 477 L750 479 L727 486 L720 490 L718 490 L702 499 L685 511 L681 512 L677 509 L677 505 L680 495 L686 483 L698 467 L710 456 L720 449 L732 443 L745 439 L750 439 L757 434 L773 427 L783 426 L784 427 L790 427 L794 429 L822 428 L832 431 L839 435 L843 439 L847 447 L857 447 L866 451 L877 460 Z M883 463 L871 451 L863 446 L857 444 L850 444 L841 433 L832 428 L820 425 L794 426 L788 424 L773 424 L764 427 L749 436 L745 436 L729 441 L719 446 L705 456 L693 468 L683 482 L677 495 L674 505 L674 509 L678 514 L685 514 L706 500 L723 491 L742 484 L755 481 L766 480 L767 479 L806 478 L807 479 L814 479 L815 480 L833 482 L839 484 L855 484 L856 483 L860 483 L877 475 L883 469 Z M391 445 L393 440 L399 434 L403 432 L418 431 L425 433 L429 423 L438 415 L449 413 L461 417 L465 414 L473 411 L487 411 L504 419 L517 433 L523 433 L524 434 L542 437 L548 440 L553 441 L569 450 L584 464 L594 479 L597 487 L593 491 L590 492 L581 492 L565 486 L556 481 L539 475 L518 470 L504 469 L503 468 L476 467 L475 468 L457 468 L456 469 L440 469 L439 470 L420 470 L419 469 L414 469 L401 464 L395 459 L391 452 Z M388 444 L388 453 L391 459 L400 467 L413 472 L439 473 L440 472 L475 471 L476 470 L503 471 L504 472 L517 473 L538 478 L555 484 L571 492 L580 495 L590 495 L597 492 L599 489 L599 483 L590 467 L570 447 L562 442 L548 436 L533 432 L519 430 L506 417 L496 411 L486 408 L474 408 L467 410 L462 413 L454 412 L453 411 L441 411 L433 415 L427 421 L423 429 L418 429 L417 428 L403 429 L397 432 L391 438 Z M350 373 L361 404 L367 415 L373 430 L369 462 L368 463 L368 469 L367 470 L367 492 L366 493 L367 494 L366 495 L366 499 L367 500 L366 503 L367 504 L367 524 L368 525 L368 553 L367 554 L366 570 L365 571 L362 588 L360 593 L357 596 L355 596 L353 594 L352 584 L353 583 L354 572 L357 563 L357 558 L360 545 L360 536 L361 535 L361 482 L360 481 L360 462 L359 461 L358 438 L357 437 L357 430 L356 429 L356 421 L355 420 L355 414 L353 406 L352 392 L349 379 L349 374 Z M349 368 L350 369 L349 373 L348 372 Z M348 362 L349 363 L348 367 L347 366 Z M433 393 L453 385 L481 376 L509 369 L513 369 L529 365 L534 365 L535 364 L540 364 L541 363 L546 363 L547 362 L568 360 L569 359 L577 359 L578 358 L604 357 L605 356 L660 356 L661 357 L674 357 L675 358 L693 359 L694 360 L700 360 L701 361 L728 365 L763 374 L790 383 L793 385 L808 390 L832 402 L836 403 L853 413 L875 429 L881 435 L889 467 L889 481 L883 496 L876 505 L867 513 L854 520 L845 523 L832 524 L831 525 L830 524 L829 525 L810 524 L809 523 L793 522 L792 521 L770 521 L769 522 L763 522 L762 523 L754 524 L740 529 L724 538 L707 554 L706 553 L703 556 L696 572 L696 576 L693 587 L693 610 L694 611 L694 616 L696 624 L703 641 L714 656 L730 669 L749 677 L757 678 L758 679 L764 679 L765 680 L776 680 L777 679 L788 678 L800 674 L802 672 L817 669 L830 662 L837 655 L842 648 L846 638 L855 622 L859 608 L860 584 L854 565 L861 548 L870 535 L884 518 L892 503 L893 504 L893 524 L892 525 L892 537 L891 538 L891 553 L895 565 L898 568 L902 568 L903 567 L906 556 L907 539 L910 531 L913 516 L918 504 L927 475 L932 455 L933 444 L947 429 L954 427 L960 428 L962 431 L958 438 L958 440 L927 500 L915 533 L913 546 L912 547 L912 553 L911 554 L911 568 L912 568 L913 552 L914 551 L916 537 L924 513 L937 486 L937 484 L942 476 L961 438 L962 434 L963 433 L964 434 L964 440 L965 441 L964 475 L951 514 L942 550 L939 570 L938 571 L938 576 L937 577 L937 583 L936 584 L935 602 L934 603 L934 617 L933 618 L933 652 L934 653 L935 681 L936 682 L936 691 L937 692 L939 725 L940 726 L940 739 L941 740 L941 753 L942 754 L942 767 L943 768 L945 825 L944 826 L943 825 L930 824 L929 823 L912 823 L911 822 L912 808 L913 807 L913 796 L914 795 L914 780 L915 779 L914 752 L913 751 L912 733 L911 732 L910 716 L909 715 L907 691 L906 690 L906 681 L905 680 L904 662 L903 661 L900 620 L899 619 L897 601 L894 589 L890 580 L889 580 L894 596 L897 621 L898 622 L903 684 L904 685 L905 702 L906 703 L909 735 L910 736 L911 757 L912 758 L912 791 L911 792 L910 807 L907 819 L903 829 L893 846 L879 861 L868 869 L847 878 L839 880 L833 880 L832 881 L812 881 L811 880 L805 880 L797 878 L779 870 L773 866 L761 854 L756 847 L748 830 L744 814 L744 809 L743 808 L743 791 L746 786 L751 769 L751 764 L752 763 L752 740 L749 728 L743 717 L747 716 L753 718 L767 727 L775 736 L783 755 L783 752 L780 742 L771 728 L764 722 L753 716 L743 713 L726 712 L725 713 L715 714 L702 719 L693 725 L684 734 L679 741 L671 759 L668 776 L669 776 L671 765 L675 753 L679 745 L685 736 L693 728 L703 721 L712 717 L720 715 L726 715 L727 714 L738 715 L744 723 L748 734 L748 738 L749 739 L749 762 L744 783 L737 796 L730 803 L720 808 L709 808 L708 807 L714 802 L713 800 L706 807 L682 812 L681 811 L684 808 L698 799 L704 797 L713 798 L709 795 L703 795 L695 798 L678 810 L668 820 L661 829 L672 818 L675 819 L684 815 L699 812 L705 809 L712 811 L722 810 L732 805 L740 797 L741 798 L741 809 L742 810 L744 824 L748 836 L759 855 L775 870 L796 880 L804 882 L809 882 L810 883 L834 883 L835 882 L840 882 L848 880 L861 875 L880 863 L891 852 L903 834 L906 825 L907 824 L908 825 L908 830 L905 842 L904 843 L903 842 L894 861 L890 867 L877 881 L860 892 L849 896 L840 897 L839 898 L820 898 L819 897 L814 897 L806 895 L784 886 L796 893 L816 899 L838 900 L839 899 L849 898 L868 890 L879 882 L890 870 L896 861 L901 851 L901 849 L902 848 L903 849 L902 856 L895 877 L881 912 L876 921 L876 923 L849 978 L847 980 L841 993 L839 995 L834 1006 L828 1015 L817 1036 L801 1060 L786 1076 L771 1087 L757 1094 L742 1099 L727 1101 L726 1102 L709 1103 L708 1104 L685 1105 L684 1106 L669 1106 L668 1107 L615 1108 L614 1107 L574 1106 L573 1105 L565 1105 L564 1104 L547 1102 L518 1093 L503 1085 L492 1077 L473 1058 L457 1037 L438 1008 L421 979 L403 945 L403 943 L392 922 L392 920 L382 900 L382 898 L378 891 L378 889 L363 856 L364 853 L373 868 L381 878 L391 887 L401 894 L418 902 L426 904 L431 904 L432 905 L440 905 L444 910 L458 936 L474 961 L492 983 L505 995 L522 1007 L542 1017 L569 1026 L587 1029 L588 1030 L593 1030 L594 1031 L611 1032 L612 1033 L657 1033 L658 1032 L667 1032 L668 1031 L674 1031 L675 1030 L680 1030 L690 1027 L694 1027 L718 1019 L746 1004 L767 987 L779 974 L789 961 L812 926 L814 924 L815 925 L814 930 L808 942 L785 978 L769 996 L755 1008 L742 1017 L713 1031 L689 1038 L674 1040 L673 1041 L666 1041 L665 1042 L656 1042 L655 1043 L615 1043 L614 1042 L590 1040 L589 1039 L585 1039 L584 1038 L563 1034 L540 1026 L522 1017 L511 1010 L488 990 L472 970 L457 946 L442 914 L443 920 L446 925 L449 934 L460 955 L473 975 L487 992 L501 1005 L518 1017 L545 1030 L575 1039 L590 1041 L591 1042 L597 1042 L598 1043 L605 1043 L606 1044 L616 1044 L617 1045 L654 1045 L655 1044 L665 1044 L666 1043 L673 1043 L674 1042 L689 1040 L716 1032 L741 1020 L761 1006 L782 985 L799 961 L815 931 L819 918 L839 918 L856 913 L864 909 L875 901 L884 892 L886 888 L873 901 L856 911 L839 916 L818 916 L792 907 L776 904 L771 902 L757 900 L756 899 L751 899 L750 898 L745 898 L744 897 L739 897 L738 896 L733 896 L720 893 L693 890 L686 888 L679 888 L678 887 L671 887 L670 886 L663 886 L662 885 L653 885 L652 884 L641 884 L640 883 L641 879 L641 865 L640 864 L640 849 L639 848 L647 842 L652 835 L659 830 L656 831 L653 834 L652 833 L656 821 L658 802 L659 801 L659 793 L660 792 L660 782 L661 781 L662 746 L663 745 L664 665 L665 664 L664 661 L665 660 L666 625 L667 624 L667 617 L668 616 L669 606 L673 595 L671 593 L676 590 L660 595 L648 596 L647 597 L616 596 L595 590 L597 592 L599 600 L600 615 L599 616 L598 639 L597 640 L595 660 L594 661 L591 687 L590 688 L588 716 L587 717 L587 729 L586 730 L586 746 L585 747 L585 808 L586 809 L586 818 L587 819 L587 825 L584 827 L573 811 L562 800 L553 794 L548 792 L541 792 L538 795 L538 798 L543 804 L542 805 L531 804 L522 799 L516 793 L511 783 L509 776 L509 770 L508 769 L508 758 L509 757 L509 751 L510 750 L511 742 L517 728 L521 722 L530 713 L543 713 L549 715 L556 719 L564 727 L571 740 L575 754 L575 759 L576 760 L577 774 L578 774 L578 763 L577 762 L576 750 L569 731 L565 725 L557 717 L550 713 L538 710 L528 711 L514 716 L505 722 L494 735 L488 751 L488 758 L487 759 L488 762 L489 761 L489 754 L491 746 L496 736 L501 729 L513 719 L519 716 L522 717 L515 726 L511 734 L506 752 L505 767 L506 768 L506 775 L508 783 L512 790 L511 803 L509 809 L501 824 L490 837 L472 851 L458 858 L438 863 L416 863 L415 862 L407 861 L394 856 L380 847 L370 837 L361 824 L354 810 L352 803 L350 801 L353 812 L361 828 L369 839 L382 851 L398 860 L410 864 L414 864 L415 865 L439 865 L440 864 L449 863 L463 858 L476 851 L490 840 L499 830 L507 818 L512 806 L513 795 L514 794 L522 802 L533 807 L546 807 L553 810 L560 811 L576 818 L588 836 L594 842 L603 848 L602 859 L601 860 L601 881 L602 881 L603 849 L604 848 L614 851 L629 851 L638 848 L639 849 L639 883 L638 884 L632 885 L622 889 L604 883 L584 883 L583 884 L535 887 L534 888 L525 888 L524 889 L515 889 L514 890 L482 893 L481 894 L465 896 L442 903 L432 903 L415 899 L401 892 L390 884 L377 871 L355 836 L348 816 L345 803 L345 798 L344 797 L344 790 L343 789 L343 758 L344 757 L346 736 L347 735 L347 730 L348 729 L348 724 L349 723 L350 712 L352 705 L355 679 L358 666 L358 660 L359 659 L359 654 L360 653 L361 643 L366 623 L366 619 L371 603 L371 600 L377 584 L375 585 L371 594 L362 626 L360 641 L358 647 L358 652 L357 653 L357 658 L356 659 L356 664 L355 665 L355 670 L354 671 L354 676 L353 677 L353 683 L352 684 L351 696 L348 709 L348 715 L345 728 L345 734 L344 735 L343 747 L342 748 L342 755 L341 756 L341 767 L340 768 L341 793 L342 794 L344 810 L349 827 L348 828 L347 827 L324 827 L323 828 L317 828 L306 831 L305 830 L305 791 L309 780 L314 759 L314 754 L315 753 L316 732 L317 731 L317 716 L318 715 L318 701 L319 700 L319 686 L320 685 L320 670 L321 669 L321 657 L322 656 L323 631 L324 630 L325 567 L327 559 L329 557 L331 560 L331 564 L337 585 L337 590 L338 591 L340 607 L341 608 L342 624 L343 625 L343 639 L344 640 L344 672 L345 672 L345 658 L346 657 L345 655 L345 626 L344 625 L344 615 L343 614 L342 600 L341 599 L337 575 L331 551 L329 547 L328 540 L326 536 L324 525 L322 521 L316 497 L316 488 L317 485 L322 481 L332 481 L338 483 L340 485 L340 492 L341 493 L341 499 L342 500 L343 513 L345 521 L345 528 L346 529 L346 536 L347 537 L348 560 L349 561 L349 577 L350 578 L350 592 L351 595 L356 599 L360 597 L365 586 L367 573 L368 572 L369 559 L370 558 L370 516 L369 515 L369 487 L370 486 L378 499 L395 514 L409 529 L417 544 L419 552 L421 553 L416 568 L415 590 L416 591 L417 600 L424 617 L430 626 L440 636 L455 644 L457 646 L457 649 L462 657 L473 668 L481 673 L499 679 L518 679 L534 674 L539 670 L528 675 L520 676 L519 677 L499 677 L491 675 L478 669 L471 664 L460 652 L457 647 L458 646 L463 647 L466 649 L467 648 L474 656 L481 661 L491 666 L502 669 L509 669 L510 670 L525 669 L541 663 L548 658 L556 650 L561 643 L570 623 L573 611 L574 593 L575 592 L574 577 L571 565 L573 559 L570 546 L566 538 L561 532 L554 528 L551 529 L542 521 L523 510 L506 505 L501 505 L500 504 L480 504 L479 505 L471 505 L470 506 L456 507 L455 508 L429 508 L428 507 L419 506 L405 501 L395 495 L378 478 L372 463 L372 450 L375 437 L375 431 L381 424 L400 410 Z M373 422 L384 411 L411 393 L446 377 L479 366 L503 360 L527 356 L528 355 L553 352 L554 351 L561 351 L562 350 L591 348 L592 347 L607 347 L608 346 L658 346 L659 347 L683 348 L684 349 L699 350 L700 351 L723 354 L728 356 L732 356 L756 362 L790 373 L810 382 L812 382 L842 397 L864 411 L883 426 L884 428 L881 432 L873 424 L865 418 L844 405 L818 392 L816 392 L791 381 L764 372 L729 363 L702 359 L701 358 L695 358 L694 357 L678 356 L677 355 L666 355 L665 354 L601 354 L600 355 L587 355 L586 356 L577 356 L576 357 L568 357 L567 358 L559 358 L558 359 L552 359 L545 361 L539 361 L538 362 L533 362 L532 363 L508 367 L499 370 L495 370 L491 372 L470 377 L439 388 L434 391 L425 394 L397 409 L382 420 L375 427 Z M939 330 L940 331 L940 336 L935 353 L935 357 L928 380 L927 387 L925 391 L924 398 L922 402 L922 405 L919 412 L918 419 L916 423 L907 461 L904 485 L903 486 L902 504 L901 505 L901 518 L900 519 L900 536 L901 537 L901 542 L904 548 L904 552 L903 553 L902 563 L899 566 L895 560 L894 550 L893 549 L895 518 L896 517 L895 488 L894 487 L894 481 L893 480 L893 475 L889 460 L889 456 L883 435 L895 413 L901 397 L904 385 L904 380 L905 379 L905 371 L906 370 L905 356 L911 350 Z M947 329 L950 331 L949 350 L948 351 L947 364 L946 365 L943 385 L941 390 L941 394 L936 414 L934 431 L932 436 L932 440 L931 441 L931 445 L930 446 L930 450 L929 451 L929 455 L925 469 L924 477 L911 514 L904 542 L903 541 L903 509 L904 508 L904 497 L905 496 L906 481 L907 480 L907 474 L909 468 L910 458 L912 453 L916 432 L918 428 L919 421 L921 417 L924 403 L930 385 L934 366 L936 362 L941 342 L942 332 L944 329 Z M939 330 L940 329 L941 330 L940 331 Z M351 355 L353 351 L371 333 L404 309 L421 299 L459 280 L461 280 L470 275 L489 268 L494 265 L536 251 L552 248 L557 246 L571 244 L572 243 L592 241 L593 240 L602 240 L603 239 L616 239 L617 238 L648 238 L649 239 L661 239 L662 240 L686 242 L732 253 L775 269 L813 288 L847 309 L864 321 L894 346 L902 355 L902 377 L896 402 L885 425 L865 409 L834 390 L794 372 L754 359 L734 354 L715 351 L714 350 L696 348 L695 347 L688 347 L687 346 L678 346 L677 345 L665 345 L664 344 L604 344 L603 345 L588 345 L587 346 L577 346 L576 347 L567 347 L566 348 L544 350 L543 351 L538 351 L537 352 L532 352 L531 353 L526 353 L525 354 L506 357 L497 360 L485 362 L450 373 L430 382 L428 382 L397 399 L381 411 L372 420 L361 396 L354 376 L352 363 L351 362 Z M393 234 L394 235 L393 237 L387 243 L376 258 L364 237 L371 235 Z M343 216 L351 224 L361 237 L374 260 L366 272 L358 288 L353 302 L350 314 L349 326 L348 327 L348 352 L349 354 L347 360 L346 359 L346 351 L345 350 L343 327 L342 326 L340 294 L339 293 L339 276 L338 275 L339 234 L340 233 L341 220 Z M328 216 L339 216 L340 217 L338 223 L337 241 L336 242 L337 299 L338 300 L338 310 L339 311 L339 320 L340 321 L343 353 L344 354 L347 381 L348 382 L352 415 L353 416 L355 441 L356 442 L356 452 L357 453 L358 492 L359 493 L359 533 L358 534 L356 557 L353 568 L352 567 L351 544 L350 543 L349 526 L348 525 L348 519 L347 518 L347 512 L345 504 L345 497 L344 496 L343 484 L341 478 L341 473 L340 472 L340 467 L337 454 L337 448 L334 435 L333 422 L331 415 L331 409 L330 408 L327 375 L326 374 L326 366 L325 365 L325 356 L324 355 L324 346 L323 345 L323 335 L322 334 L321 308 L320 307 L320 282 L319 281 L320 237 L321 236 L322 219 L324 217 Z M914 324 L914 344 L904 353 L897 345 L876 327 L838 300 L800 278 L752 257 L720 247 L694 241 L683 240 L682 239 L668 238 L667 237 L656 237 L655 236 L609 236 L608 237 L598 237 L597 238 L575 240 L574 241 L569 241 L568 242 L541 247 L537 249 L520 253 L511 257 L508 257 L505 259 L500 260 L480 268 L468 274 L466 274 L423 295 L396 311 L373 328 L352 349 L351 348 L351 329 L352 328 L352 321 L353 320 L354 310 L361 289 L369 273 L377 261 L396 237 L422 210 L442 195 L459 186 L476 180 L494 176 L512 170 L522 165 L529 160 L540 155 L542 153 L544 153 L556 147 L565 141 L578 129 L628 70 L643 55 L651 52 L659 54 L670 64 L692 94 L712 124 L723 138 L731 146 L743 155 L756 162 L766 166 L769 166 L773 168 L789 172 L814 185 L847 209 L880 241 L891 254 L903 275 L910 298 L912 314 L913 315 L913 323 Z M652 49 L644 51 L638 55 L598 100 L581 121 L565 137 L555 144 L528 157 L521 162 L511 167 L482 176 L475 177 L448 188 L438 194 L421 207 L397 231 L362 233 L354 223 L347 216 L342 213 L323 214 L319 217 L318 230 L317 231 L317 243 L316 244 L316 297 L317 298 L317 315 L318 316 L320 354 L321 355 L321 364 L322 365 L322 373 L323 374 L323 382 L324 383 L324 391 L325 392 L325 399 L327 407 L329 428 L330 429 L330 434 L331 435 L331 440 L332 441 L332 446 L333 447 L333 452 L334 453 L334 458 L335 459 L338 479 L337 480 L328 477 L321 478 L316 481 L313 487 L314 504 L328 553 L326 555 L322 565 L321 627 L320 628 L320 640 L319 641 L318 665 L317 666 L317 679 L316 680 L316 694 L315 695 L315 709 L314 710 L312 748 L311 749 L311 757 L310 758 L309 767 L301 793 L302 833 L304 835 L309 835 L316 837 L348 839 L354 841 L361 860 L368 874 L370 881 L374 888 L382 908 L413 971 L435 1009 L453 1037 L466 1055 L484 1075 L495 1084 L506 1091 L526 1100 L554 1107 L569 1108 L570 1109 L582 1109 L583 1110 L645 1111 L646 1110 L688 1109 L689 1108 L700 1108 L701 1107 L727 1105 L753 1099 L771 1091 L783 1083 L803 1063 L814 1047 L834 1012 L845 990 L847 988 L854 973 L856 971 L880 922 L880 920 L892 894 L905 857 L910 835 L911 834 L912 835 L913 834 L924 834 L925 833 L940 832 L946 830 L949 826 L948 787 L947 786 L947 769 L946 768 L946 755 L945 754 L945 742 L944 741 L944 728 L943 727 L942 708 L941 707 L939 679 L938 678 L938 666 L937 665 L937 643 L936 642 L937 609 L938 608 L938 599 L939 598 L940 586 L947 566 L947 556 L948 555 L948 545 L949 544 L950 532 L952 528 L958 504 L967 479 L968 461 L969 460 L968 436 L964 427 L960 425 L950 425 L945 427 L937 435 L936 434 L939 422 L939 414 L947 382 L950 360 L951 359 L952 344 L953 343 L953 332 L954 331 L953 328 L941 325 L918 342 L917 341 L916 312 L909 282 L907 279 L906 274 L897 257 L884 241 L849 207 L818 184 L792 170 L757 159 L736 146 L719 128 L673 63 L663 53 L657 50 L653 50 Z" fill="#eef3f4" fill-rule="evenodd"/>
</svg>
