<svg xmlns="http://www.w3.org/2000/svg" width="1254" height="1254" viewBox="0 0 1254 1254">
  <title>0274</title>
  <path d="M404 1160 L405 1159 L406 1160 L405 1161 Z M676 1159 L677 1158 L686 1158 L687 1159 L686 1160 L677 1160 Z M405 1159 L406 1158 L407 1159 L406 1160 Z M654 1147 L655 1148 L655 1158 L656 1159 L655 1160 L653 1159 L653 1148 Z M576 1147 L577 1146 L578 1148 L577 1149 Z M458 1147 L459 1146 L463 1154 L471 1162 L482 1168 L491 1171 L517 1177 L528 1178 L529 1179 L554 1181 L555 1182 L568 1182 L569 1183 L650 1184 L651 1183 L669 1183 L670 1182 L683 1182 L684 1181 L702 1180 L703 1179 L709 1179 L710 1178 L731 1175 L748 1170 L757 1166 L768 1157 L770 1159 L770 1166 L763 1173 L748 1181 L736 1185 L719 1188 L718 1189 L713 1189 L712 1190 L705 1190 L704 1191 L690 1192 L689 1193 L679 1193 L678 1194 L639 1195 L638 1196 L568 1195 L567 1194 L555 1194 L554 1193 L536 1192 L535 1191 L512 1188 L492 1183 L481 1179 L471 1174 L462 1166 L460 1163 L458 1155 Z M540 1143 L541 1142 L542 1143 L541 1144 Z M804 1158 L800 1168 L797 1183 L790 1194 L779 1205 L767 1213 L755 1219 L728 1229 L700 1236 L680 1238 L679 1239 L670 1239 L669 1240 L632 1241 L631 1242 L577 1241 L576 1240 L563 1240 L562 1239 L555 1239 L554 1238 L546 1238 L545 1237 L534 1236 L533 1235 L512 1231 L484 1222 L456 1209 L441 1198 L431 1186 L427 1178 L424 1168 L424 1165 L431 1151 L433 1143 L435 1142 L437 1145 L448 1153 L451 1154 L461 1168 L468 1174 L481 1181 L496 1186 L517 1190 L518 1191 L537 1193 L538 1194 L545 1194 L546 1195 L555 1195 L556 1196 L597 1197 L598 1198 L636 1198 L637 1197 L678 1196 L679 1195 L705 1193 L706 1192 L712 1192 L713 1191 L728 1189 L748 1183 L765 1174 L774 1165 L778 1159 L778 1157 L781 1154 L783 1154 L790 1150 L798 1141 L800 1143 L802 1155 Z M693 1140 L696 1144 L696 1147 L699 1151 L699 1154 L696 1157 L691 1158 L690 1157 L692 1156 L692 1141 Z M541 1141 L542 1140 L543 1142 L542 1143 Z M447 1141 L448 1140 L449 1141 L448 1142 Z M582 1147 L582 1156 L584 1157 L584 1148 L585 1147 L592 1147 L593 1148 L605 1148 L608 1147 L609 1148 L608 1149 L608 1155 L610 1157 L610 1147 L612 1144 L609 1147 L608 1146 L599 1146 L598 1147 L597 1146 L590 1146 L585 1144 L590 1142 L600 1142 L608 1144 L608 1143 L603 1141 L592 1140 L585 1143 L586 1145 L584 1147 Z M546 1141 L550 1139 L553 1139 L567 1143 L562 1145 L555 1145 L548 1143 Z M542 1140 L543 1139 L544 1140 L543 1141 Z M792 1138 L795 1141 L783 1152 L782 1151 L782 1146 Z M659 1139 L659 1141 L660 1141 L660 1139 Z M628 1144 L632 1141 L640 1141 L641 1143 L643 1142 L649 1145 L649 1143 L642 1139 L633 1139 Z M578 1138 L579 1139 L579 1143 L578 1144 L577 1143 L577 1139 Z M792 1138 L793 1137 L794 1138 L793 1139 Z M670 1142 L676 1140 L684 1140 L685 1141 L688 1141 L688 1140 L683 1138 L677 1138 L673 1139 Z M694 1136 L695 1135 L696 1136 L695 1137 Z M653 1134 L654 1145 L651 1147 L628 1147 L627 1149 L624 1144 L626 1148 L625 1149 L625 1158 L626 1159 L627 1157 L627 1149 L628 1148 L629 1149 L649 1149 L651 1148 L652 1149 L652 1159 L654 1160 L653 1161 L649 1161 L645 1158 L636 1158 L630 1160 L646 1160 L647 1161 L646 1162 L625 1162 L622 1160 L621 1154 L622 1153 L622 1135 L623 1134 L641 1134 L642 1133 L652 1133 Z M579 1132 L580 1133 L580 1138 L579 1139 L578 1138 L578 1133 Z M797 1130 L798 1131 L798 1137 L795 1141 L794 1137 Z M687 1128 L693 1139 L692 1141 L691 1140 L690 1141 L691 1142 L690 1143 L680 1146 L666 1146 L664 1144 L665 1140 L663 1135 L662 1135 L663 1144 L661 1150 L662 1151 L663 1150 L664 1146 L665 1147 L665 1159 L667 1156 L667 1148 L668 1147 L670 1148 L679 1148 L687 1146 L690 1144 L691 1145 L690 1148 L690 1157 L691 1158 L688 1159 L687 1158 L688 1156 L678 1156 L677 1157 L673 1157 L670 1159 L676 1159 L677 1160 L676 1161 L664 1161 L659 1158 L657 1159 L656 1158 L657 1157 L657 1143 L655 1135 L657 1133 L666 1133 Z M549 1127 L564 1132 L575 1132 L576 1133 L568 1141 L575 1134 L576 1135 L575 1139 L575 1153 L576 1152 L577 1153 L578 1157 L577 1159 L574 1158 L568 1160 L560 1160 L559 1159 L546 1158 L540 1156 L536 1152 L537 1148 L540 1144 L541 1145 L541 1152 L542 1154 L564 1158 L564 1157 L556 1154 L544 1153 L543 1152 L542 1144 L544 1141 L546 1141 L547 1144 L557 1147 L567 1145 L568 1146 L567 1147 L567 1157 L569 1157 L569 1146 L570 1144 L568 1144 L566 1141 L557 1138 L548 1138 L545 1140 L543 1139 L546 1135 Z M439 1122 L443 1137 L448 1140 L445 1141 L456 1142 L457 1143 L456 1144 L456 1156 L455 1157 L451 1152 L443 1147 L435 1140 L436 1136 L440 1141 L443 1141 L437 1135 L438 1123 Z M708 1121 L709 1120 L710 1121 L709 1122 Z M528 1119 L530 1119 L540 1124 L540 1127 L534 1140 L527 1121 Z M408 1111 L409 1110 L411 1111 L410 1112 Z M407 1110 L408 1109 L409 1110 L408 1111 Z M404 1108 L405 1107 L406 1108 L405 1109 Z M402 1107 L403 1106 L404 1107 L403 1108 Z M401 1106 L402 1105 L403 1106 L402 1107 Z M400 1105 L401 1104 L402 1105 L401 1106 Z M398 1104 L399 1103 L400 1104 L399 1105 Z M397 1103 L398 1102 L399 1103 L398 1104 Z M837 1094 L838 1093 L839 1094 L838 1095 Z M850 1090 L840 1103 L824 1114 L823 1113 L827 1107 L849 1089 Z M849 1089 L850 1088 L851 1089 L850 1090 Z M870 1083 L872 1085 L865 1094 L851 1116 L848 1119 L823 1158 L822 1157 L823 1118 L832 1112 L846 1098 L853 1088 L853 1086 L859 1080 L863 1084 Z M396 1081 L397 1080 L398 1081 L397 1082 Z M889 1079 L890 1078 L891 1079 L890 1080 Z M518 1079 L517 1081 L517 1093 L516 1094 L516 1117 L517 1118 L517 1124 L522 1143 L526 1147 L522 1138 L520 1125 L519 1124 L519 1119 L518 1118 L518 1104 L517 1103 L518 1100 Z M725 1073 L730 1075 L740 1092 L753 1121 L757 1134 L756 1141 L751 1148 L741 1154 L729 1157 L716 1156 L712 1154 L707 1154 L702 1152 L698 1143 L698 1137 L695 1128 L698 1124 L705 1121 L709 1122 L703 1137 L703 1141 L702 1142 L702 1148 L704 1147 L704 1141 L711 1126 L717 1108 L721 1091 L721 1084 L722 1083 L723 1084 L722 1104 L721 1105 L720 1115 L717 1127 L711 1144 L714 1141 L719 1127 L722 1115 L722 1110 L723 1109 L724 1082 L723 1083 L722 1082 L722 1077 Z M891 1072 L892 1073 L892 1078 L891 1079 L889 1076 Z M381 1070 L387 1077 L400 1086 L402 1091 L406 1096 L406 1098 L411 1107 L410 1108 L404 1105 L400 1101 L395 1093 L393 1084 L391 1084 L391 1088 L395 1097 L394 1098 L392 1096 L387 1086 L387 1084 L380 1072 Z M379 1070 L380 1069 L381 1070 L380 1071 Z M862 1071 L866 1068 L886 1069 L890 1071 L888 1073 L888 1078 L890 1080 L888 1082 L885 1081 L864 1081 L862 1079 Z M517 1068 L520 1073 L520 1095 L521 1096 L521 1104 L522 1105 L523 1116 L527 1130 L532 1140 L532 1144 L529 1149 L531 1149 L536 1141 L542 1127 L545 1126 L547 1129 L535 1147 L536 1151 L535 1152 L531 1151 L520 1154 L507 1155 L492 1151 L485 1147 L481 1143 L478 1137 L478 1128 L484 1113 L495 1097 L496 1094 L508 1076 L514 1069 Z M403 1069 L402 1069 L401 1073 Z M378 1068 L379 1067 L380 1069 L379 1070 Z M377 1067 L378 1066 L379 1067 L378 1068 Z M375 1061 L376 1060 L377 1061 L376 1062 Z M374 1060 L375 1059 L376 1060 L375 1061 Z M388 1045 L388 1047 L393 1054 Z M871 1027 L860 1040 L860 1042 L855 1048 L858 1046 L859 1043 L871 1029 Z M488 1034 L489 1033 L490 1034 L518 1033 L519 1032 L536 1031 L537 1030 L544 1030 L545 1029 L567 1028 L568 1027 L582 1027 L583 1026 L639 1026 L640 1027 L641 1026 L642 1027 L657 1027 L658 1028 L689 1030 L690 1031 L717 1033 L718 1034 L728 1034 L729 1035 L743 1035 L744 1036 L744 1040 L742 1047 L738 1053 L724 1052 L723 1051 L711 1051 L710 1050 L693 1050 L692 1049 L627 1049 L626 1048 L561 1048 L560 1049 L520 1049 L519 1050 L494 1051 L490 1044 Z M451 1025 L454 1024 L471 1031 L475 1031 L486 1034 L486 1040 L488 1046 L487 1047 L486 1046 L483 1050 L481 1058 L481 1064 L480 1065 L480 1090 L481 1091 L482 1099 L486 1106 L477 1122 L475 1130 L475 1135 L476 1139 L481 1147 L486 1151 L495 1155 L503 1157 L516 1157 L524 1155 L527 1153 L533 1153 L542 1159 L550 1160 L551 1161 L558 1161 L559 1162 L567 1162 L568 1161 L572 1161 L575 1159 L583 1163 L612 1163 L616 1161 L616 1160 L607 1161 L606 1160 L607 1159 L602 1157 L587 1157 L586 1158 L587 1159 L604 1159 L605 1160 L604 1161 L582 1161 L579 1157 L579 1149 L581 1144 L582 1133 L585 1132 L590 1134 L613 1134 L614 1136 L611 1139 L611 1142 L613 1139 L615 1147 L615 1158 L616 1156 L616 1136 L619 1135 L620 1136 L620 1157 L621 1159 L618 1160 L618 1161 L624 1164 L649 1164 L650 1163 L654 1163 L658 1160 L660 1160 L664 1163 L687 1162 L696 1159 L700 1155 L701 1151 L705 1155 L719 1159 L731 1159 L742 1156 L750 1152 L756 1146 L759 1138 L759 1130 L752 1113 L758 1098 L758 1065 L757 1064 L757 1059 L755 1051 L752 1046 L750 1049 L747 1048 L746 1049 L749 1050 L751 1049 L753 1051 L755 1058 L755 1064 L756 1065 L757 1092 L753 1108 L751 1110 L750 1109 L746 1098 L733 1075 L728 1071 L724 1071 L720 1077 L717 1097 L712 1113 L712 1116 L710 1118 L706 1118 L698 1121 L694 1124 L693 1126 L695 1131 L695 1135 L694 1136 L690 1130 L691 1126 L679 1126 L663 1131 L625 1131 L620 1133 L616 1133 L611 1131 L588 1131 L583 1129 L568 1130 L552 1125 L543 1124 L540 1121 L526 1115 L525 1107 L524 1106 L524 1098 L523 1097 L522 1071 L517 1066 L515 1066 L509 1071 L492 1095 L487 1104 L485 1103 L482 1094 L482 1064 L483 1063 L484 1052 L487 1047 L490 1049 L492 1053 L530 1052 L531 1051 L599 1050 L600 1051 L677 1051 L678 1052 L701 1052 L702 1053 L721 1053 L722 1054 L729 1054 L730 1055 L737 1055 L738 1056 L742 1053 L745 1047 L746 1039 L748 1035 L765 1033 L789 1025 L791 1026 L795 1038 L795 1069 L794 1070 L794 1079 L795 1080 L795 1100 L796 1101 L796 1126 L794 1134 L780 1145 L780 1151 L773 1162 L771 1156 L776 1148 L777 1144 L773 1150 L764 1159 L750 1167 L730 1173 L709 1176 L708 1177 L702 1177 L701 1178 L683 1179 L682 1180 L670 1180 L669 1181 L647 1181 L646 1182 L571 1181 L570 1180 L557 1180 L556 1179 L524 1176 L523 1175 L507 1173 L491 1168 L488 1168 L471 1160 L463 1151 L460 1143 L457 1140 L452 1140 L446 1137 L442 1128 L442 1106 L444 1098 L444 1089 L445 1088 L445 1080 L446 1079 L446 1066 L447 1065 L447 1039 L451 1028 Z M797 1022 L798 1026 L796 1033 L793 1028 L793 1024 Z M447 1021 L452 1024 L450 1025 L447 1031 L446 1030 L446 1022 Z M372 1020 L372 1022 L375 1026 L380 1037 L384 1042 L386 1042 L380 1035 L375 1026 L375 1024 Z M879 1016 L878 1016 L873 1024 L876 1022 Z M429 1011 L443 1020 L443 1025 L444 1026 L443 1080 L442 1081 L442 1089 L441 1090 L441 1096 L440 1097 L437 1121 L433 1137 L425 1159 L422 1164 L418 1168 L415 1169 L411 1166 L409 1160 L409 1144 L410 1143 L410 1135 L411 1134 L412 1120 L414 1112 L414 1103 L415 1102 L415 1094 L416 1093 L416 1080 L417 1079 L417 1041 L416 1040 L415 1017 L418 1013 L422 1011 Z M821 1010 L828 1015 L829 1022 L828 1023 L828 1029 L826 1036 L824 1061 L823 1062 L823 1073 L822 1074 L821 1109 L820 1110 L820 1155 L819 1156 L818 1165 L815 1168 L813 1168 L808 1163 L805 1156 L802 1143 L802 1138 L801 1137 L801 1130 L800 1129 L799 1103 L798 1102 L798 1043 L799 1042 L799 1030 L800 1029 L801 1021 L806 1017 Z M416 1005 L419 1004 L424 1008 L417 1011 L416 1010 Z M741 997 L742 996 L743 997 L742 998 Z M524 997 L525 996 L530 996 L531 997 L530 998 L525 998 Z M478 996 L479 995 L482 996 L481 997 Z M765 995 L766 994 L767 995 L766 996 Z M768 994 L769 993 L771 994 L770 995 Z M672 994 L673 993 L677 994 L676 995 Z M772 993 L773 992 L774 993 L773 994 Z M664 993 L665 992 L671 992 L672 993 L671 994 L665 994 Z M466 993 L470 992 L478 995 L477 996 L473 996 Z M656 992 L657 991 L664 991 L665 992 L664 993 L657 993 Z M595 992 L596 991 L600 992 L599 993 Z M565 992 L566 991 L571 991 L572 992 L571 993 L566 993 Z M463 992 L464 991 L467 992 L466 993 Z M513 991 L514 990 L515 991 L514 992 Z M461 991 L462 990 L463 991 L462 992 Z M728 990 L729 989 L730 990 L729 991 Z M572 991 L580 989 L590 989 L596 991 L595 992 L573 992 Z M362 989 L361 992 L362 993 L362 999 L364 1005 L370 1015 L369 1011 L364 1002 Z M461 988 L462 987 L466 988 L465 989 Z M769 981 L770 980 L772 981 L771 982 Z M873 979 L878 984 L879 983 L881 987 L881 997 L878 1007 L873 1017 L865 1028 L837 1059 L826 1075 L825 1074 L825 1067 L826 1066 L827 1048 L828 1047 L828 1040 L829 1039 L829 1033 L831 1025 L831 1016 L829 1012 L823 1008 L860 982 L867 979 Z M369 978 L371 979 L370 983 L371 983 L371 980 L374 977 L381 977 L393 984 L416 1002 L414 1005 L414 1014 L412 1018 L412 1026 L413 1027 L413 1035 L414 1036 L414 1052 L415 1053 L415 1066 L413 1074 L403 1054 L394 1039 L380 1020 L372 1006 L365 987 L366 982 Z M370 978 L371 977 L372 978 L371 979 Z M638 971 L639 970 L640 972 L639 973 Z M886 963 L885 966 L889 971 L891 977 L891 982 L892 983 L891 994 L892 994 L893 992 L893 978 L890 970 L886 965 L887 963 Z M366 963 L360 966 L356 973 L355 987 L358 993 L357 991 L357 977 L361 968 Z M355 960 L356 959 L357 961 L356 962 Z M892 959 L893 958 L894 959 L893 960 Z M354 953 L355 954 L354 957 L353 956 Z M451 946 L452 945 L455 946 L454 947 Z M454 945 L455 944 L458 945 L457 946 Z M457 944 L458 943 L460 944 L459 945 Z M381 944 L381 945 L387 948 L386 946 Z M459 943 L460 942 L462 943 L461 944 Z M781 942 L782 941 L783 942 L782 943 Z M462 942 L463 941 L464 942 L463 943 Z M464 941 L465 940 L466 941 L465 942 Z M416 941 L417 940 L418 941 L417 942 Z M926 936 L930 938 L927 943 L925 937 Z M323 936 L327 937 L327 942 L326 943 L322 937 Z M536 932 L535 933 L537 936 L540 946 L540 958 L537 969 L532 978 L522 988 L516 991 L514 990 L521 980 L530 958 L531 950 L532 949 L532 941 L533 940 L533 935 L531 936 L530 949 L525 966 L520 977 L511 992 L512 994 L525 988 L534 979 L539 970 L542 960 L542 947 L540 939 Z M763 931 L764 930 L765 931 L764 932 Z M889 929 L891 930 L894 939 L894 943 L897 954 L897 958 L896 959 L889 948 L885 944 L878 940 Z M762 930 L763 929 L764 930 L763 931 Z M761 929 L762 928 L763 929 L762 930 Z M733 928 L738 944 L748 961 L760 973 L770 980 L769 981 L760 979 L752 975 L739 963 L733 952 L731 944 L731 931 Z M359 927 L370 939 L364 943 L355 954 L354 953 L355 939 L356 938 L357 930 Z M592 926 L593 925 L594 926 L593 927 Z M565 926 L564 927 L568 934 L571 944 L571 949 L572 950 L571 960 L565 976 L550 990 L552 990 L557 987 L565 979 L571 969 L573 962 L573 958 L574 957 L573 943 L571 936 Z M732 925 L729 932 L729 945 L731 953 L737 964 L747 974 L757 980 L766 983 L779 984 L779 983 L771 979 L761 971 L748 957 L739 941 L735 930 L735 927 L734 925 Z M672 925 L667 937 L666 948 L665 949 L666 962 L668 969 L673 978 L681 986 L687 990 L695 993 L685 973 L681 960 L680 943 L679 942 L680 931 L681 930 L680 928 L677 940 L678 944 L678 957 L683 974 L691 988 L689 989 L683 985 L675 977 L670 968 L668 961 L667 949 L668 948 L669 937 L673 927 Z M444 983 L457 992 L470 997 L481 997 L482 998 L483 997 L489 997 L497 999 L511 999 L512 1000 L526 1000 L537 997 L555 996 L556 995 L574 995 L575 994 L594 994 L595 995 L606 995 L607 996 L629 996 L630 995 L640 994 L641 995 L639 996 L641 995 L660 995 L661 996 L679 997 L680 998 L694 999 L695 1000 L731 1001 L732 1000 L741 1000 L748 998 L760 998 L761 997 L764 998 L787 991 L792 992 L808 984 L811 981 L801 985 L788 986 L784 988 L776 990 L771 990 L754 995 L749 993 L744 993 L736 995 L719 972 L713 960 L709 947 L708 931 L707 930 L706 931 L706 942 L710 958 L717 973 L729 989 L727 990 L714 982 L709 977 L703 967 L700 957 L700 939 L702 931 L701 931 L698 941 L698 959 L701 968 L705 975 L712 983 L727 992 L735 994 L736 995 L735 996 L706 996 L705 997 L701 997 L700 996 L685 995 L680 992 L676 992 L670 990 L663 990 L662 989 L656 989 L657 991 L656 992 L637 991 L624 994 L620 996 L588 986 L559 990 L552 994 L544 994 L543 993 L546 991 L555 978 L560 965 L562 957 L562 951 L563 950 L563 937 L561 931 L561 949 L560 950 L560 956 L558 964 L551 981 L543 992 L539 991 L538 992 L531 992 L514 996 L496 996 L492 994 L468 990 L467 989 L471 986 L467 985 L479 977 L490 966 L496 958 L503 945 L509 927 L511 932 L511 945 L505 961 L501 967 L491 977 L478 984 L474 985 L474 986 L481 985 L492 979 L500 972 L506 964 L510 956 L513 945 L512 929 L510 925 L508 925 L509 927 L506 929 L504 937 L496 954 L492 960 L480 973 L473 979 L460 987 L453 986 L444 982 Z M486 924 L487 923 L488 924 L487 925 Z M712 920 L713 919 L715 920 L714 921 Z M715 919 L716 918 L718 919 L717 920 Z M717 918 L718 917 L720 918 L719 919 Z M678 918 L679 917 L680 918 L679 919 Z M521 918 L522 917 L524 918 L523 919 Z M719 917 L720 916 L721 917 L720 918 Z M519 917 L520 916 L522 917 L521 918 Z M721 916 L722 915 L723 916 L722 917 Z M722 915 L724 913 L726 914 L724 916 Z M725 913 L726 912 L727 913 L726 914 Z M556 910 L556 912 L558 913 Z M660 906 L661 905 L662 906 L661 907 Z M579 904 L580 903 L581 904 L580 905 Z M702 885 L704 887 L704 895 L699 906 L693 912 L687 916 L680 918 L679 917 L691 904 L695 898 L697 893 L697 888 L696 887 L699 885 Z M672 859 L673 858 L674 859 L673 860 Z M673 858 L674 857 L675 858 L674 859 Z M674 857 L675 856 L676 857 L675 858 Z M572 857 L573 856 L574 857 L573 858 Z M675 856 L676 855 L677 856 L676 857 Z M670 856 L671 855 L672 856 L671 857 Z M677 855 L678 854 L679 855 L678 856 Z M678 854 L679 853 L680 854 L679 855 Z M679 853 L680 852 L682 853 L681 854 Z M690 851 L705 851 L717 856 L727 865 L733 877 L734 881 L734 894 L730 904 L721 914 L711 918 L710 920 L712 921 L708 923 L693 924 L681 921 L682 919 L690 916 L697 911 L702 905 L706 895 L706 887 L702 883 L693 883 L681 888 L675 892 L662 906 L661 905 L663 879 L667 866 L672 859 L674 860 L680 855 Z M681 852 L682 851 L684 852 L683 853 Z M683 851 L684 850 L686 851 L685 852 Z M692 847 L707 847 L714 849 L725 855 L735 866 L738 872 L741 883 L740 893 L735 905 L728 913 L726 912 L733 903 L736 894 L736 880 L732 869 L723 858 L713 852 L702 849 L694 849 L686 851 L685 850 Z M549 846 L561 850 L573 862 L577 870 L579 878 L580 902 L579 903 L571 893 L561 886 L553 883 L546 883 L544 884 L543 886 L545 887 L549 886 L550 887 L548 891 L552 901 L566 918 L560 920 L559 918 L551 914 L546 909 L540 899 L540 892 L541 891 L541 888 L540 888 L538 896 L542 907 L547 913 L559 920 L550 923 L537 924 L524 920 L523 919 L524 917 L517 911 L512 902 L511 898 L511 884 L514 873 L520 863 L528 856 L534 853 L541 851 L552 851 L560 854 L561 853 L551 849 L543 849 L535 851 L525 856 L516 865 L511 875 L509 882 L509 899 L512 907 L520 916 L519 917 L508 906 L505 897 L505 883 L511 868 L522 855 L535 848 Z M672 852 L679 844 L694 836 L700 836 L701 835 L711 836 L727 843 L734 848 L743 857 L748 864 L754 876 L761 898 L771 915 L784 928 L793 934 L810 940 L825 941 L826 942 L821 944 L811 944 L810 945 L798 944 L786 941 L773 935 L763 925 L753 910 L746 893 L741 872 L737 864 L728 854 L722 850 L709 845 L696 844 L695 845 L687 846 L679 850 L672 856 L671 855 Z M572 852 L573 854 L572 857 L564 849 L551 844 L541 844 L526 849 L520 853 L510 864 L504 875 L500 888 L499 897 L494 908 L485 921 L473 933 L459 941 L450 944 L430 945 L418 942 L419 941 L434 940 L445 937 L455 932 L465 925 L479 908 L488 888 L492 875 L498 863 L502 857 L513 846 L519 842 L533 836 L547 835 L555 837 L561 840 Z M397 933 L398 935 L406 940 L419 945 L428 946 L429 947 L443 947 L444 946 L451 946 L452 947 L446 950 L438 952 L433 952 L432 953 L410 953 L409 952 L404 952 L407 954 L411 954 L412 955 L435 955 L451 951 L466 944 L475 938 L496 918 L500 911 L498 912 L494 918 L488 924 L487 923 L496 909 L502 895 L508 911 L516 919 L523 923 L534 926 L548 926 L560 923 L566 920 L567 915 L555 901 L552 895 L551 889 L553 886 L555 886 L564 891 L571 897 L583 913 L585 918 L591 924 L591 954 L592 955 L593 964 L597 974 L602 981 L609 988 L614 990 L603 981 L597 969 L594 956 L594 948 L593 947 L593 927 L595 926 L600 929 L612 932 L628 932 L642 928 L645 926 L647 927 L645 935 L644 956 L641 969 L638 970 L639 974 L637 978 L624 991 L630 988 L639 979 L642 973 L646 957 L648 925 L654 920 L664 907 L677 894 L689 887 L693 887 L694 888 L694 895 L686 906 L679 913 L675 920 L676 922 L680 924 L689 925 L690 926 L706 926 L717 923 L723 920 L731 914 L737 907 L743 892 L747 901 L747 904 L752 914 L762 928 L761 929 L757 928 L754 925 L754 923 L751 918 L749 917 L749 915 L748 916 L749 919 L754 927 L761 931 L769 938 L787 949 L802 954 L818 955 L819 956 L832 956 L834 955 L801 952 L793 949 L783 943 L785 942 L798 946 L814 947 L815 946 L826 945 L844 939 L844 938 L836 940 L813 939 L800 935 L787 928 L776 918 L768 907 L762 895 L755 873 L745 856 L736 847 L729 842 L717 836 L709 834 L696 834 L686 837 L678 842 L672 848 L664 866 L661 876 L660 890 L659 891 L659 902 L657 910 L653 917 L648 922 L637 927 L628 928 L627 929 L613 929 L600 926 L593 922 L587 916 L583 908 L583 903 L582 902 L582 881 L581 880 L581 875 L578 865 L578 861 L575 853 L569 844 L560 837 L552 834 L541 833 L540 834 L530 835 L517 841 L510 846 L501 855 L491 872 L484 893 L476 909 L471 916 L458 928 L445 935 L430 939 L413 939 L405 937 Z M346 819 L347 820 L346 823 L345 822 Z M904 815 L905 816 L904 819 L903 818 Z M714 794 L715 793 L716 794 L715 795 Z M682 783 L683 782 L685 785 L684 786 Z M681 782 L682 781 L683 782 L682 783 Z M562 782 L563 781 L564 782 L563 783 Z M680 780 L681 779 L682 780 L681 781 Z M679 779 L680 778 L681 779 L680 780 Z M678 777 L679 776 L680 778 L679 779 Z M570 773 L571 775 L565 783 L563 781 Z M676 767 L677 766 L678 767 L677 768 Z M667 763 L668 762 L669 763 L668 764 Z M757 762 L758 761 L777 761 L778 762 L777 763 L769 763 L768 764 L766 763 L758 763 Z M473 762 L474 761 L496 761 L497 762 L496 763 L489 763 L488 764 L474 763 Z M779 761 L780 760 L783 761 L782 762 Z M752 761 L753 760 L757 761 L756 762 Z M666 761 L667 760 L668 762 L667 763 Z M497 761 L498 760 L501 761 L500 762 Z M469 761 L470 760 L473 761 L472 762 Z M748 760 L749 759 L751 760 L750 761 Z M579 757 L577 759 L572 773 L571 774 L570 772 L567 773 L559 783 L547 792 L522 804 L502 809 L477 809 L452 803 L436 794 L428 788 L416 775 L414 775 L427 789 L444 801 L459 807 L464 807 L475 810 L483 810 L484 811 L503 810 L523 805 L542 797 L550 792 L562 782 L565 783 L551 798 L538 806 L535 809 L531 809 L511 817 L503 819 L498 819 L497 820 L475 820 L458 816 L440 807 L430 798 L425 795 L438 807 L452 815 L472 821 L492 822 L493 821 L505 820 L524 814 L533 809 L535 810 L547 803 L557 795 L567 784 L577 768 L579 762 Z M843 759 L856 752 L864 751 L875 758 L881 764 L890 776 L899 795 L904 815 L903 816 L902 815 L900 808 L888 787 L873 771 L860 763 Z M653 750 L664 761 L668 768 L673 786 L674 811 L673 812 L673 819 L671 825 L670 836 L655 866 L652 879 L651 895 L649 903 L643 913 L644 914 L638 919 L634 920 L633 922 L642 918 L645 915 L650 905 L652 899 L653 885 L654 884 L656 869 L660 858 L664 852 L664 850 L666 848 L669 840 L671 838 L673 832 L673 825 L675 818 L675 806 L676 805 L675 802 L675 788 L674 787 L674 781 L671 770 L672 769 L672 765 L670 761 L669 754 L668 753 L667 754 L667 760 L666 761 L658 753 Z M596 750 L586 757 L581 764 L577 773 L574 786 L574 792 L573 793 L573 817 L574 818 L574 825 L577 838 L588 871 L590 899 L593 909 L596 914 L601 919 L609 922 L608 920 L604 919 L598 914 L597 912 L598 911 L597 912 L594 906 L592 898 L592 891 L591 890 L590 871 L579 839 L576 827 L575 812 L574 811 L575 791 L576 790 L579 773 L585 761 L592 754 L597 751 Z M579 746 L580 745 L581 746 L580 747 Z M651 745 L652 744 L653 745 L652 746 Z M580 744 L581 743 L582 745 L581 746 Z M401 736 L402 743 L406 751 L408 752 Z M665 727 L662 741 L664 740 L665 737 Z M914 726 L915 725 L916 726 L915 727 Z M395 726 L393 734 L394 735 L394 741 L398 748 L395 736 L396 734 L396 726 Z M377 716 L384 724 L391 727 L393 726 L393 725 L390 725 L386 723 Z M953 701 L954 702 L954 803 L953 804 L953 862 L952 863 L953 866 L953 927 L952 928 L946 912 L943 892 L942 891 L942 885 L941 884 L940 864 L939 863 L939 845 L938 844 L938 810 L939 809 L940 772 L941 771 L941 761 L942 760 L944 735 L945 734 L948 714 Z M301 700 L306 711 L309 724 L310 735 L311 736 L313 761 L314 762 L314 772 L315 773 L315 790 L316 791 L316 857 L315 858 L314 880 L313 881 L313 887 L312 888 L309 908 L302 927 L301 926 L301 804 L300 803 L300 701 Z M947 697 L953 699 L950 702 L946 713 L943 733 L942 734 L941 751 L940 752 L939 776 L938 777 L938 795 L937 796 L937 863 L938 864 L938 877 L939 878 L940 894 L942 900 L943 910 L948 926 L952 931 L949 933 L936 934 L928 936 L925 933 L924 921 L923 920 L923 912 L922 911 L921 893 L920 892 L918 835 L917 834 L917 814 L916 813 L916 791 L915 790 L914 734 L915 733 L915 728 L919 724 L920 720 L926 710 L934 703 L944 697 Z M315 695 L316 699 L320 704 L327 709 L332 711 L332 713 L334 715 L340 729 L340 754 L339 755 L337 798 L336 799 L336 812 L335 813 L334 860 L333 861 L333 876 L332 877 L331 911 L330 912 L329 930 L327 937 L326 935 L310 933 L309 932 L303 932 L302 931 L307 923 L313 901 L315 883 L316 882 L317 856 L318 855 L318 801 L317 800 L317 780 L316 779 L316 765 L315 764 L314 743 L313 742 L313 735 L312 734 L309 714 L305 702 L302 699 L303 698 L308 698 L309 700 L312 700 Z M678 694 L679 693 L680 694 L679 695 Z M574 694 L575 693 L576 694 L575 695 Z M339 693 L340 694 L340 721 L339 722 L333 711 L336 705 Z M339 691 L340 690 L341 691 L340 692 Z M915 687 L919 698 L919 701 L924 711 L920 716 L916 726 L914 719 L914 688 Z M861 687 L862 686 L863 687 L862 688 Z M595 689 L599 692 L611 696 L615 696 L616 697 L632 697 L644 694 L650 691 L653 687 L643 692 L635 694 L628 694 L627 695 L610 693 L601 690 L598 687 Z M403 679 L404 678 L408 679 L407 680 L407 687 L408 688 L408 696 L409 697 L410 705 L413 714 L422 730 L435 744 L445 752 L460 761 L478 766 L493 766 L512 760 L528 751 L541 742 L552 730 L562 712 L564 705 L565 695 L566 694 L576 698 L578 703 L579 718 L580 719 L580 733 L575 751 L567 764 L555 776 L546 782 L534 788 L525 791 L508 794 L507 795 L484 795 L483 794 L478 794 L465 791 L457 788 L439 778 L428 767 L422 759 L413 742 L407 724 L404 711 L404 706 L403 705 L403 694 L402 693 Z M854 674 L855 673 L856 674 L855 675 Z M372 674 L369 677 L369 680 L370 681 L370 686 L375 699 L382 711 L389 718 L393 720 L384 711 L377 699 L373 688 L373 682 L372 681 L373 674 Z M400 673 L402 671 L404 671 L408 675 L404 676 L401 675 Z M376 669 L377 668 L379 669 L378 670 Z M610 666 L605 666 L597 670 L591 680 L590 679 L590 675 L588 675 L588 682 L590 685 L581 694 L591 685 L591 681 L593 680 L595 676 L600 671 Z M895 663 L897 666 L897 673 L895 675 L892 670 Z M868 664 L869 663 L870 664 L869 665 Z M813 665 L815 663 L843 663 L846 669 L845 671 L848 675 L847 676 L815 676 L813 673 Z M869 668 L874 662 L892 662 L893 663 L892 666 L892 674 L893 676 L892 677 L874 677 L869 671 Z M854 663 L855 662 L856 663 L855 664 Z M441 666 L441 672 L439 675 L438 674 L439 675 L438 676 L417 676 L416 675 L412 675 L406 669 L412 663 L434 663 L438 662 Z M869 662 L870 661 L871 663 L870 664 Z M862 661 L864 661 L866 663 L866 674 L868 678 L863 686 L861 685 L861 682 L857 675 L857 673 L855 671 L854 672 L855 673 L852 674 L848 671 L849 668 L852 666 L857 665 Z M855 662 L856 661 L857 662 L856 663 Z M392 661 L400 668 L403 669 L394 678 L391 686 L389 683 L389 677 L392 670 L392 664 L391 663 Z M864 661 L866 660 L867 662 L866 663 Z M778 667 L777 673 L774 677 L766 677 L765 676 L764 677 L686 677 L685 676 L694 661 L757 661 L760 663 L766 663 L764 661 L765 660 L772 660 L776 663 Z M474 667 L475 666 L475 662 L477 660 L494 660 L495 661 L494 662 L486 662 L486 663 L496 663 L498 661 L562 661 L565 664 L570 676 L569 677 L489 677 L485 675 L486 676 L485 677 L476 678 L474 672 Z M388 660 L390 662 L390 671 L388 676 L386 677 L382 671 L382 665 L384 662 Z M870 661 L871 659 L873 660 L871 662 Z M866 660 L867 659 L868 660 L867 661 Z M777 659 L782 659 L783 660 L783 675 L782 676 L783 677 L782 678 L778 678 L777 677 L780 671 L780 666 L779 663 L776 660 Z M872 659 L873 658 L875 659 L874 660 Z M471 658 L475 660 L472 665 L472 673 L475 677 L474 678 L471 678 L467 671 L469 660 Z M845 656 L849 659 L850 665 L848 668 L846 665 L846 662 L844 660 Z M408 655 L410 657 L410 661 L405 667 L404 666 L405 658 Z M408 652 L409 651 L410 652 L409 653 Z M700 647 L701 646 L702 647 L701 648 Z M701 646 L702 645 L703 646 L702 647 Z M371 643 L386 658 L380 665 L377 660 L376 655 L372 654 L372 650 L370 647 Z M889 640 L890 641 L890 645 L887 657 L885 659 L879 659 L875 654 Z M704 632 L705 631 L706 633 L705 634 Z M705 630 L706 629 L707 631 L706 632 Z M899 627 L901 633 L901 639 L900 640 L898 656 L896 661 L888 658 L892 644 L892 637 Z M827 628 L829 627 L831 629 L829 630 Z M826 627 L827 626 L828 627 L827 628 Z M824 626 L825 625 L826 626 L825 627 Z M544 626 L545 625 L546 626 L545 627 Z M707 624 L708 625 L707 629 L706 628 Z M428 625 L429 624 L431 625 L430 626 Z M543 624 L544 623 L545 625 L544 626 Z M430 624 L432 622 L434 623 L432 625 Z M902 621 L903 624 L901 632 L899 627 Z M433 622 L434 621 L436 622 L435 623 Z M435 621 L436 620 L438 621 L437 622 Z M437 620 L438 619 L440 620 L439 621 Z M440 619 L441 618 L442 619 L441 620 Z M520 618 L521 617 L522 618 L521 619 Z M820 626 L831 634 L838 642 L841 651 L842 659 L841 660 L814 660 L813 661 L811 656 L811 651 L807 638 L805 637 L808 645 L809 658 L810 659 L810 692 L809 693 L808 706 L811 697 L812 678 L813 677 L815 679 L819 679 L820 678 L828 678 L829 679 L842 678 L844 683 L844 689 L843 690 L843 697 L841 701 L841 704 L833 723 L828 731 L817 742 L810 747 L794 755 L783 758 L776 758 L775 759 L760 759 L736 753 L729 750 L722 745 L720 745 L706 732 L695 715 L692 706 L692 702 L689 696 L689 705 L692 714 L698 726 L703 733 L714 744 L717 745 L725 752 L733 757 L747 763 L755 765 L760 765 L761 766 L775 766 L792 761 L798 758 L818 745 L828 735 L835 725 L841 712 L846 693 L846 679 L850 678 L851 679 L851 693 L850 694 L850 702 L849 703 L849 708 L846 721 L841 735 L835 747 L822 765 L810 776 L791 787 L780 791 L768 794 L762 794 L761 795 L736 795 L735 794 L725 793 L706 787 L692 779 L683 770 L679 764 L674 751 L673 743 L672 742 L672 724 L673 723 L673 715 L674 714 L675 703 L678 698 L682 697 L688 693 L688 692 L685 692 L681 694 L679 693 L679 690 L682 682 L684 680 L687 683 L693 680 L728 680 L729 679 L778 679 L782 680 L784 679 L785 676 L785 658 L784 657 L697 659 L696 658 L713 640 L727 630 L734 627 L736 625 L756 618 L766 617 L767 616 L790 616 L791 617 L801 618 Z M354 615 L358 623 L357 642 L356 643 L355 642 L354 620 L353 619 Z M458 615 L482 612 L483 613 L493 613 L494 614 L503 615 L515 619 L531 627 L544 637 L552 645 L561 658 L560 659 L558 658 L557 659 L546 659 L545 658 L470 657 L466 664 L466 673 L469 679 L471 680 L479 680 L480 679 L564 680 L569 683 L572 683 L574 686 L575 690 L574 694 L572 694 L567 691 L565 692 L566 694 L563 696 L559 712 L550 728 L535 743 L519 752 L500 758 L493 758 L492 759 L478 759 L477 758 L470 758 L462 756 L447 749 L437 742 L423 727 L415 712 L410 693 L410 680 L412 678 L413 679 L417 678 L435 678 L439 679 L441 677 L442 678 L441 682 L442 683 L443 698 L444 699 L444 703 L446 706 L445 696 L444 695 L444 656 L445 655 L446 643 L449 634 L448 634 L446 638 L446 641 L443 649 L442 660 L441 661 L439 659 L436 660 L414 660 L412 654 L416 641 L420 636 L432 627 L449 618 Z M674 610 L675 611 L674 614 L673 613 Z M866 610 L867 609 L868 610 L867 611 Z M743 610 L744 609 L745 610 L744 611 Z M867 609 L868 608 L869 609 L868 610 Z M801 604 L802 603 L803 604 L802 605 Z M771 604 L772 603 L773 604 L772 605 Z M798 603 L799 602 L800 603 L799 604 Z M772 603 L773 602 L774 603 L773 604 Z M801 599 L802 601 L800 603 L799 601 Z M580 599 L581 600 L580 603 L579 602 Z M674 599 L675 598 L676 599 L675 600 Z M675 597 L676 596 L677 597 L676 598 Z M676 595 L677 594 L678 595 L677 596 Z M840 593 L841 592 L842 594 L841 595 Z M677 593 L678 592 L679 594 L678 595 Z M678 592 L679 591 L680 592 L679 593 Z M841 591 L842 590 L843 591 L842 592 Z M679 591 L680 590 L681 591 L680 592 Z M680 589 L681 588 L682 590 L681 591 Z M842 588 L843 587 L844 588 L843 589 Z M843 585 L844 584 L845 585 L844 586 Z M948 580 L947 580 L946 583 L946 593 L944 596 L944 601 L943 602 L943 614 L942 615 L942 661 L941 662 L941 673 L940 674 L940 680 L943 667 L943 624 L944 623 L944 603 L945 602 L946 603 L946 649 L945 650 L945 687 L944 688 L945 689 L946 687 L946 678 L947 677 L947 633 L948 632 L948 594 L947 593 L948 592 Z M552 579 L560 587 L566 600 L571 627 L572 628 L572 637 L573 638 L574 648 L574 632 L573 631 L573 625 L572 624 L568 601 L561 586 L557 581 Z M722 564 L721 565 L724 568 L729 577 L731 583 L732 594 L731 595 L731 601 L729 609 L719 627 L721 626 L727 617 L731 609 L734 599 L734 586 L732 579 L728 571 Z M845 563 L844 578 L838 594 L834 600 L823 611 L821 611 L819 614 L825 611 L831 606 L839 595 L842 594 L846 583 L846 565 Z M892 562 L893 574 L894 575 L894 590 L893 591 L893 596 L891 604 L884 620 L880 626 L872 634 L878 631 L885 622 L891 610 L892 604 L894 600 L895 591 L896 590 L896 578 L895 577 L894 565 Z M749 560 L752 565 L755 574 L756 586 L752 599 L745 610 L744 607 L747 600 L749 592 L749 587 L750 586 L750 571 L748 563 Z M494 560 L493 562 L493 569 L494 570 L494 576 L497 588 L503 601 L509 607 L501 593 L498 584 L496 570 L495 569 L495 560 Z M747 559 L748 558 L749 560 L748 561 Z M746 557 L747 556 L748 557 L747 558 Z M813 555 L814 556 L813 578 L810 587 L802 600 L801 598 L805 592 L811 575 L812 556 Z M952 552 L954 556 L954 564 L955 565 L955 634 L954 635 L953 695 L952 696 L951 695 L943 695 L942 694 L943 693 L942 694 L940 692 L938 686 L939 682 L938 684 L936 680 L935 674 L934 674 L936 688 L941 697 L939 699 L937 698 L938 699 L936 700 L933 695 L931 687 L931 676 L930 675 L931 674 L930 673 L930 649 L931 648 L932 619 L933 618 L933 611 L934 610 L936 592 L941 572 L946 559 L949 554 Z M372 552 L373 551 L374 552 L373 553 Z M303 551 L305 551 L309 555 L315 568 L319 583 L321 599 L322 600 L322 606 L323 607 L323 618 L324 619 L324 629 L325 630 L326 675 L325 676 L324 693 L321 702 L317 698 L316 695 L317 692 L317 679 L316 678 L316 671 L314 665 L314 651 L313 650 L312 598 L311 597 L310 581 L308 576 L308 566 L307 566 L306 594 L305 595 L307 688 L308 689 L308 631 L307 630 L307 584 L308 583 L309 584 L309 594 L310 595 L310 604 L311 605 L311 649 L312 650 L312 665 L313 666 L313 677 L315 683 L315 689 L313 693 L309 697 L307 695 L302 695 L301 696 L300 695 L300 655 L299 654 L299 624 L298 623 L298 566 L299 565 L299 558 Z M916 550 L922 568 L924 571 L923 579 L921 583 L921 587 L918 598 L918 605 L917 606 L916 605 L916 576 L915 575 L915 551 Z M812 550 L813 551 L812 554 L811 553 Z M339 550 L340 551 L339 554 L338 553 Z M782 550 L783 549 L784 550 L783 551 Z M343 549 L344 550 L344 554 L343 555 L343 578 L342 579 L342 588 L341 589 L341 615 L340 616 L338 608 L337 594 L335 588 L335 582 L333 578 L334 574 L333 572 L339 563 Z M944 548 L949 551 L946 554 L941 564 L936 580 L935 589 L933 594 L932 606 L931 607 L930 623 L929 624 L929 636 L928 637 L928 684 L929 685 L929 690 L931 696 L934 700 L934 702 L925 709 L919 693 L917 677 L916 676 L916 666 L915 665 L915 647 L916 646 L916 631 L917 630 L917 623 L918 622 L918 614 L919 613 L919 606 L920 605 L923 583 L927 574 L927 568 L933 554 L938 549 Z M886 549 L887 548 L888 550 L887 551 Z M314 548 L319 549 L325 555 L328 562 L333 590 L334 591 L334 596 L337 609 L337 616 L338 617 L338 625 L339 626 L339 636 L340 637 L340 671 L339 672 L339 680 L338 681 L337 692 L331 710 L322 703 L326 694 L327 684 L328 683 L328 645 L327 644 L327 626 L326 625 L325 604 L324 603 L324 597 L323 596 L320 575 L312 555 L307 550 Z M874 547 L873 547 L873 549 L874 550 L874 557 L875 558 L875 567 L874 568 L874 575 L873 576 L872 585 L869 594 L861 609 L851 619 L847 621 L853 619 L860 613 L861 614 L860 612 L867 603 L872 592 L876 575 L876 554 Z M340 545 L341 546 L340 550 L339 549 Z M915 543 L916 542 L917 543 L916 544 Z M371 543 L372 542 L373 543 L372 544 Z M341 541 L342 542 L341 546 L340 545 Z M474 540 L472 548 L472 561 L471 562 L472 563 L473 576 L476 585 L484 599 L484 601 L489 605 L485 600 L480 590 L474 571 L474 564 L473 563 Z M914 539 L915 538 L916 540 L915 541 Z M807 534 L806 534 L811 545 L810 548 L811 551 L810 572 L804 591 L798 601 L799 604 L793 610 L796 609 L801 604 L802 605 L804 604 L802 603 L811 590 L816 573 L815 553 L811 541 Z M391 534 L387 542 L387 550 L386 551 L387 565 L390 576 L395 586 L401 594 L415 605 L420 606 L410 600 L400 590 L392 576 L388 559 L388 545 Z M584 532 L582 533 L581 537 Z M391 524 L392 523 L393 525 L392 526 Z M804 523 L796 538 L801 532 L804 526 Z M390 522 L391 521 L392 523 L391 524 Z M868 520 L869 521 L869 525 L868 526 L867 525 L867 521 Z M444 521 L442 524 L441 532 L440 533 L440 540 L439 541 L441 563 L445 575 L451 586 L457 594 L463 599 L450 581 L443 563 L442 552 L441 551 L441 537 L442 536 L442 529 Z M612 519 L601 523 L592 531 L587 540 L585 548 L585 566 L586 567 L586 576 L587 577 L588 591 L589 592 L590 606 L591 607 L592 628 L593 629 L593 638 L594 639 L596 662 L597 663 L595 627 L594 626 L593 607 L592 606 L592 599 L591 598 L591 591 L590 590 L590 583 L589 582 L589 575 L588 574 L588 565 L587 564 L588 544 L593 533 L602 525 L617 520 L629 520 L630 521 L635 521 L645 526 L653 534 L658 547 L659 567 L658 568 L657 597 L656 598 L655 622 L654 623 L654 634 L653 635 L653 646 L652 647 L652 662 L651 663 L652 664 L653 654 L654 653 L654 643 L655 642 L657 611 L658 610 L658 599 L659 598 L659 586 L660 585 L660 571 L661 570 L661 552 L660 551 L659 542 L654 532 L647 525 L638 520 L630 519 L629 518 Z M869 513 L870 514 L870 519 L869 520 L868 519 L868 514 Z M641 514 L641 515 L645 516 L653 521 L662 531 L666 540 L667 550 L668 551 L668 582 L667 583 L667 595 L666 596 L666 606 L665 607 L664 636 L663 637 L661 669 L658 678 L656 673 L651 668 L643 664 L636 662 L621 662 L616 664 L629 663 L630 664 L640 665 L647 668 L655 675 L657 680 L656 684 L660 680 L671 692 L671 690 L660 680 L663 671 L664 655 L666 648 L667 649 L667 656 L672 673 L677 678 L674 675 L671 667 L670 658 L668 652 L668 646 L667 645 L668 626 L666 625 L666 619 L667 618 L668 591 L669 590 L669 581 L670 580 L670 553 L669 552 L669 546 L666 535 L660 525 L650 517 Z M607 514 L601 515 L596 518 L604 516 Z M389 513 L391 518 L390 521 L388 518 L388 514 Z M352 510 L353 509 L354 511 L353 512 Z M388 508 L389 509 L389 513 L388 514 L387 513 L387 509 Z M904 506 L905 505 L906 507 L905 508 Z M359 505 L360 506 L360 516 L361 517 L363 531 L367 541 L373 549 L372 552 L364 542 L359 531 L358 527 L358 511 L357 513 L356 512 L356 510 Z M672 532 L663 519 L655 513 L641 507 L629 506 L628 505 L620 505 L619 506 L610 506 L599 509 L587 516 L579 525 L576 531 L574 539 L574 557 L575 558 L576 572 L577 573 L576 540 L579 530 L582 525 L590 517 L601 511 L614 508 L633 508 L634 509 L643 510 L657 517 L667 527 L670 533 L672 540 L672 548 L673 549 L672 561 L674 555 L674 539 Z M721 502 L722 501 L724 502 L723 503 Z M869 500 L870 499 L871 501 L870 502 Z M868 499 L869 498 L870 499 L869 500 Z M718 498 L722 501 L721 504 L723 509 L724 521 L725 522 L725 535 L721 550 L717 558 L711 566 L692 580 L682 589 L681 587 L685 582 L708 561 L715 549 L719 534 L719 509 L717 501 Z M894 496 L895 495 L896 497 L895 498 Z M534 495 L535 496 L534 499 L533 498 Z M386 496 L387 495 L388 496 L387 497 Z M906 493 L907 494 L906 497 L905 496 Z M807 493 L808 494 L808 502 L807 503 L806 502 L806 494 Z M319 488 L320 489 L320 493 L319 494 L318 493 L318 489 Z M902 474 L905 475 L905 483 L906 484 L906 491 L905 492 L902 480 L899 477 Z M616 473 L633 474 L634 473 L643 472 L625 472 L624 473 L616 472 Z M417 445 L418 444 L419 446 L418 447 Z M431 460 L432 461 L440 455 L452 449 L461 446 L479 444 L480 445 L487 445 L488 446 L496 447 L514 455 L528 465 L547 481 L565 493 L575 498 L589 503 L597 504 L598 505 L608 505 L608 504 L602 504 L589 501 L575 496 L565 491 L554 484 L527 462 L514 453 L495 445 L487 444 L486 443 L462 444 L444 451 Z M418 443 L419 442 L420 444 L419 445 Z M385 443 L380 449 L375 458 L362 470 L366 469 L376 461 L380 456 Z M419 441 L420 440 L421 442 L420 443 Z M940 437 L941 438 L941 465 L940 466 L940 475 L939 476 L938 475 L938 462 L939 461 L939 438 Z M412 480 L413 480 L417 473 L430 457 L440 448 L450 442 L467 437 L488 437 L504 442 L517 449 L553 477 L564 484 L576 490 L593 496 L596 496 L600 498 L610 499 L611 500 L617 500 L618 501 L639 501 L640 500 L654 499 L667 496 L683 490 L695 484 L709 475 L743 448 L752 443 L764 439 L785 438 L786 439 L795 440 L805 444 L815 450 L825 459 L824 461 L810 451 L791 444 L774 443 L773 444 L763 445 L750 450 L740 456 L714 478 L693 492 L671 501 L658 504 L653 504 L652 505 L644 505 L643 506 L663 505 L685 498 L709 484 L730 466 L745 455 L757 449 L773 445 L786 445 L804 450 L814 455 L824 462 L825 460 L835 470 L839 476 L841 477 L831 463 L819 451 L811 445 L792 437 L780 436 L779 435 L778 436 L768 436 L756 439 L743 445 L734 451 L709 472 L695 481 L679 489 L665 494 L652 496 L651 497 L636 498 L635 499 L621 499 L620 498 L607 497 L591 493 L576 487 L564 481 L552 473 L530 455 L513 444 L494 436 L474 434 L473 435 L465 435 L455 438 L446 442 L437 448 L424 461 Z M337 432 L338 431 L339 432 L338 433 Z M917 419 L918 418 L919 420 L918 421 Z M435 413 L436 412 L437 413 L436 414 Z M436 412 L437 411 L438 412 L437 413 Z M815 411 L816 410 L817 411 L816 412 Z M437 411 L438 410 L439 411 L438 412 Z M836 440 L824 428 L815 421 L803 414 L793 410 L785 408 L767 408 L753 412 L741 418 L730 425 L721 433 L694 453 L665 467 L678 463 L695 454 L718 437 L727 429 L742 419 L757 412 L770 409 L780 409 L781 410 L791 411 L802 415 L811 420 L821 427 L835 441 L847 458 Z M905 407 L906 406 L907 407 L906 408 Z M511 405 L531 420 L552 438 L569 449 L585 457 L601 462 L606 462 L613 464 L640 464 L641 463 L648 463 L671 456 L684 450 L700 440 L733 414 L731 414 L721 420 L694 441 L674 452 L664 456 L661 456 L649 460 L635 461 L634 462 L619 462 L618 461 L611 461 L610 460 L605 460 L593 457 L580 452 L558 439 L523 411 Z M729 410 L749 400 L760 396 L764 396 L768 394 L774 394 L775 393 L786 394 L799 398 L812 406 L816 410 L815 412 L826 422 L830 428 L828 423 L823 416 L811 403 L800 396 L787 392 L777 391 L776 392 L762 393 L742 401 Z M414 451 L417 446 L418 447 L428 433 L443 418 L450 413 L456 410 L471 406 L486 406 L497 409 L513 417 L529 429 L550 447 L566 458 L580 465 L602 472 L609 472 L610 473 L613 472 L596 469 L573 460 L558 451 L530 429 L524 423 L511 414 L499 408 L489 405 L474 404 L473 405 L468 405 L460 407 L451 411 L441 418 L429 430 L421 441 L420 440 L428 424 L440 411 L438 409 L449 399 L463 392 L472 391 L473 390 L483 390 L484 391 L492 392 L510 400 L522 408 L510 398 L498 392 L483 388 L470 388 L460 391 L450 396 L441 403 L429 419 Z M807 368 L808 367 L818 367 L819 368 L818 369 L808 369 Z M801 367 L802 366 L806 366 L807 367 L806 368 L802 368 Z M797 366 L798 365 L801 366 L800 367 Z M793 365 L794 364 L797 365 L796 366 Z M791 364 L792 363 L794 364 L793 365 Z M788 363 L789 362 L791 363 L790 364 Z M421 364 L422 362 L426 362 L427 363 L422 365 Z M405 362 L406 363 L405 366 L404 365 Z M521 358 L535 368 L557 391 L566 398 L583 407 L591 409 L594 411 L598 411 L583 406 L569 398 L557 389 L535 366 L528 361 Z M942 356 L943 357 L943 395 L942 396 L942 434 L941 435 L940 434 L940 377 L941 376 L941 357 Z M748 358 L747 357 L730 358 L712 366 L681 396 L666 405 L652 410 L645 411 L658 409 L676 401 L695 386 L710 369 L716 365 L733 359 Z M773 355 L774 354 L775 355 L774 356 Z M486 356 L501 357 L516 363 L529 373 L539 385 L555 401 L571 411 L593 420 L606 423 L617 423 L618 424 L643 423 L666 417 L677 412 L691 403 L716 377 L724 371 L734 366 L746 363 L761 363 L764 364 L764 363 L761 362 L750 361 L749 362 L740 363 L723 370 L716 375 L692 400 L680 408 L662 416 L656 417 L652 419 L640 420 L639 421 L609 421 L608 420 L603 420 L587 416 L568 407 L566 407 L551 396 L526 368 L516 361 L500 355 L489 355 Z M771 354 L772 353 L774 354 L773 355 Z M770 353 L771 352 L772 353 L771 354 Z M769 352 L770 351 L771 352 L770 353 Z M767 351 L768 350 L769 351 L768 352 Z M766 350 L767 349 L768 350 L767 351 Z M747 337 L748 336 L749 337 L748 338 Z M714 337 L713 338 L709 338 L698 345 L691 353 L685 363 L702 344 Z M520 331 L533 333 L544 339 L554 350 L569 374 L584 387 L596 393 L607 396 L613 396 L614 397 L633 397 L656 391 L667 385 L666 384 L661 388 L651 392 L638 395 L633 395 L632 396 L615 396 L614 395 L609 395 L597 392 L584 386 L571 374 L562 361 L557 351 L547 339 L532 331 L528 331 L527 330 L521 330 Z M741 329 L742 328 L743 329 L742 330 Z M737 329 L738 328 L740 329 L739 330 Z M545 328 L546 327 L548 328 L547 329 Z M500 328 L501 327 L502 328 L501 329 Z M739 327 L740 326 L742 328 L740 329 Z M544 327 L545 326 L546 327 L545 328 Z M501 327 L502 326 L504 327 L503 328 Z M541 326 L542 325 L544 326 L543 327 Z M312 325 L313 326 L313 346 L314 347 L315 377 L316 378 L316 392 L317 393 L317 457 L316 458 L316 465 L315 466 L314 465 L314 448 L313 447 L312 363 L311 362 L311 326 Z M539 325 L540 324 L542 325 L541 326 Z M512 326 L517 326 L518 325 L513 325 Z M529 324 L529 325 L531 325 L531 324 Z M775 322 L776 321 L777 323 L776 324 Z M507 321 L508 323 L516 322 L517 321 L532 321 L539 323 L540 324 L539 325 L533 325 L550 332 L560 342 L574 366 L583 376 L595 383 L607 387 L617 388 L618 389 L639 388 L647 386 L658 381 L672 370 L689 345 L696 338 L703 333 L718 327 L730 327 L731 328 L727 330 L726 329 L718 330 L714 332 L714 333 L720 331 L736 329 L739 332 L740 331 L743 332 L748 336 L744 337 L744 338 L753 342 L766 353 L786 365 L797 369 L811 371 L812 372 L826 371 L827 372 L826 373 L826 380 L827 381 L828 391 L832 407 L834 410 L839 426 L847 442 L853 451 L869 467 L875 471 L889 477 L899 477 L900 478 L900 483 L902 487 L905 504 L904 505 L901 500 L895 494 L893 494 L893 502 L894 503 L894 534 L891 544 L888 549 L886 547 L886 536 L881 515 L875 503 L868 495 L868 511 L867 512 L865 526 L859 539 L848 552 L861 539 L867 525 L868 526 L868 530 L864 540 L861 545 L848 556 L838 560 L831 561 L830 560 L830 555 L831 554 L831 543 L832 541 L831 540 L831 528 L830 527 L829 518 L825 506 L819 494 L814 487 L805 479 L806 482 L805 483 L806 492 L804 499 L804 505 L800 519 L793 531 L783 541 L779 543 L779 544 L781 544 L786 541 L795 532 L802 520 L806 503 L807 504 L806 516 L807 515 L809 507 L809 491 L807 486 L808 484 L813 490 L822 505 L826 516 L827 524 L828 525 L828 531 L829 532 L829 556 L828 557 L826 571 L819 588 L813 597 L808 602 L814 598 L821 588 L826 578 L830 563 L842 561 L850 557 L853 554 L855 559 L856 571 L855 572 L854 582 L851 590 L846 598 L837 607 L832 610 L834 610 L839 607 L848 598 L855 585 L857 578 L858 566 L857 565 L857 559 L854 554 L863 545 L868 535 L871 523 L871 507 L870 506 L870 502 L871 501 L879 517 L883 534 L883 541 L884 542 L883 571 L882 572 L882 577 L880 585 L874 600 L871 605 L866 609 L867 611 L865 614 L858 620 L850 623 L850 624 L852 624 L863 618 L871 610 L880 593 L884 579 L886 562 L892 556 L896 548 L899 538 L899 533 L900 532 L900 510 L899 509 L899 505 L898 505 L899 525 L898 526 L897 539 L894 548 L887 559 L886 557 L893 544 L896 533 L895 529 L895 523 L896 522 L895 498 L896 497 L899 500 L908 521 L910 529 L911 542 L912 543 L912 577 L911 578 L911 585 L906 605 L897 625 L888 638 L874 652 L857 662 L856 661 L856 654 L853 651 L855 660 L854 663 L852 664 L851 663 L851 659 L839 639 L830 630 L832 629 L838 633 L853 649 L851 643 L840 632 L833 627 L819 620 L807 616 L803 616 L797 614 L790 614 L789 613 L769 613 L768 614 L762 614 L749 617 L746 619 L736 622 L735 621 L740 616 L743 611 L744 612 L749 607 L756 594 L760 577 L760 559 L759 555 L761 553 L772 552 L780 548 L782 554 L782 573 L781 574 L781 579 L779 583 L778 589 L768 607 L764 611 L766 611 L775 603 L773 602 L781 586 L784 573 L784 556 L783 555 L783 551 L784 550 L788 561 L788 579 L786 587 L778 601 L782 598 L788 587 L790 579 L790 574 L791 573 L789 556 L786 550 L783 547 L793 540 L784 545 L783 547 L780 546 L773 549 L764 550 L759 552 L753 533 L743 517 L728 502 L718 496 L716 496 L717 521 L718 524 L717 525 L717 534 L714 546 L707 559 L699 568 L685 580 L674 597 L674 604 L670 614 L669 623 L668 624 L670 622 L672 614 L673 613 L675 614 L677 612 L678 609 L688 595 L703 581 L698 583 L682 599 L675 611 L674 607 L676 601 L681 593 L695 580 L709 571 L716 564 L722 554 L727 536 L727 520 L723 505 L724 502 L737 514 L746 526 L754 543 L758 559 L758 575 L757 576 L753 563 L749 555 L738 543 L744 554 L747 564 L747 568 L748 569 L748 585 L742 609 L739 615 L734 620 L736 622 L719 632 L711 638 L703 646 L702 645 L710 628 L712 620 L712 613 L713 612 L712 599 L708 588 L704 584 L708 592 L710 600 L710 620 L708 625 L707 624 L707 605 L706 604 L706 599 L703 592 L701 591 L705 603 L705 629 L704 630 L705 635 L696 654 L690 661 L682 675 L677 667 L674 654 L674 633 L675 632 L677 617 L673 628 L673 633 L672 634 L673 660 L678 673 L680 676 L681 674 L682 677 L679 682 L673 700 L671 715 L670 716 L669 741 L666 744 L660 746 L650 742 L651 744 L649 745 L645 742 L640 742 L633 740 L616 740 L599 744 L590 749 L591 750 L596 747 L605 744 L617 743 L618 742 L637 743 L650 747 L653 747 L652 746 L654 745 L660 748 L663 748 L667 746 L669 743 L671 747 L673 757 L677 765 L675 768 L679 776 L678 777 L676 774 L676 777 L686 792 L695 801 L703 807 L719 815 L731 819 L746 821 L747 822 L767 822 L791 816 L803 810 L813 803 L814 801 L806 807 L784 817 L771 820 L762 820 L761 821 L743 820 L726 816 L709 809 L697 801 L686 790 L684 786 L686 785 L694 793 L703 799 L720 806 L737 810 L744 810 L745 811 L767 811 L768 810 L783 808 L804 800 L820 789 L829 779 L831 775 L814 792 L796 802 L781 807 L777 807 L771 809 L749 810 L748 809 L739 809 L738 808 L729 807 L722 804 L713 802 L703 797 L694 791 L683 780 L677 768 L678 767 L681 772 L690 781 L709 791 L710 794 L713 795 L720 794 L736 798 L761 798 L762 797 L767 797 L780 794 L796 788 L812 778 L829 761 L842 739 L849 720 L852 707 L852 701 L853 700 L853 677 L855 676 L858 679 L860 685 L860 702 L857 714 L857 719 L862 702 L862 690 L865 687 L868 681 L870 679 L874 680 L871 686 L872 687 L876 679 L883 683 L886 683 L889 679 L891 680 L890 685 L874 711 L862 723 L863 723 L876 711 L890 689 L893 680 L898 676 L900 670 L898 660 L900 655 L900 651 L903 640 L903 634 L904 633 L904 616 L909 604 L913 588 L914 589 L914 609 L913 610 L914 611 L914 617 L913 618 L914 622 L913 623 L913 655 L912 656 L912 731 L911 732 L911 749 L912 750 L912 783 L913 784 L913 806 L914 807 L914 830 L915 831 L917 886 L918 887 L919 911 L920 912 L920 919 L921 920 L923 940 L924 941 L924 952 L925 953 L923 980 L922 981 L922 986 L920 991 L919 999 L909 1027 L902 1040 L886 1064 L883 1067 L878 1067 L877 1066 L871 1066 L870 1067 L869 1066 L868 1062 L875 1052 L862 1066 L859 1074 L859 1080 L854 1082 L839 1094 L838 1093 L848 1076 L866 1053 L879 1039 L889 1025 L898 1007 L902 991 L902 978 L900 972 L900 962 L898 956 L896 941 L893 931 L891 928 L891 925 L896 919 L903 905 L909 885 L910 870 L911 869 L911 847 L910 846 L910 835 L909 834 L908 821 L901 794 L892 775 L888 769 L873 753 L865 748 L869 744 L867 744 L861 750 L856 750 L855 749 L857 748 L860 742 L860 732 L859 729 L871 723 L878 716 L889 699 L890 693 L885 704 L878 714 L868 723 L860 726 L859 729 L856 726 L856 724 L854 726 L854 729 L851 735 L849 743 L843 755 L850 744 L856 726 L858 731 L858 742 L855 748 L856 750 L843 757 L839 761 L854 763 L871 772 L884 785 L894 800 L900 813 L905 828 L905 832 L907 838 L907 844 L908 845 L907 880 L904 893 L899 907 L887 927 L875 939 L868 944 L856 950 L853 950 L843 954 L859 950 L876 941 L880 943 L891 954 L893 958 L892 959 L889 958 L889 959 L894 964 L898 971 L899 975 L899 994 L895 1008 L887 1024 L878 1037 L849 1071 L836 1092 L833 1099 L827 1107 L824 1109 L823 1108 L823 1096 L825 1090 L829 1083 L829 1081 L844 1061 L831 1076 L825 1086 L824 1082 L826 1078 L841 1057 L851 1047 L872 1022 L881 1005 L883 999 L883 986 L881 982 L875 977 L871 976 L865 977 L856 981 L825 1004 L806 1015 L798 1018 L796 1020 L771 1029 L757 1031 L756 1032 L726 1032 L725 1031 L694 1029 L693 1028 L666 1026 L665 1025 L624 1024 L623 1023 L596 1023 L595 1024 L574 1024 L573 1025 L572 1024 L571 1025 L549 1026 L548 1027 L521 1029 L520 1030 L509 1030 L508 1031 L486 1031 L485 1030 L480 1030 L467 1027 L452 1021 L440 1015 L421 1003 L403 988 L390 979 L380 974 L371 974 L366 978 L364 982 L365 993 L373 1012 L393 1041 L410 1072 L412 1078 L410 1080 L408 1093 L409 1093 L411 1082 L413 1079 L414 1080 L413 1097 L411 1104 L390 1061 L381 1047 L366 1028 L360 1018 L351 995 L350 975 L352 967 L355 962 L356 963 L362 957 L367 955 L376 956 L385 960 L422 987 L440 998 L453 1004 L456 1004 L458 1006 L465 1009 L472 1010 L476 1012 L489 1013 L490 1014 L516 1014 L517 1013 L525 1013 L526 1012 L549 1010 L550 1009 L559 1009 L560 1008 L602 1007 L603 1008 L617 1008 L618 1009 L620 1008 L656 1008 L657 1009 L667 1009 L668 1010 L676 1010 L677 1011 L693 1012 L694 1013 L710 1014 L711 1015 L732 1015 L733 1016 L734 1015 L735 1016 L746 1016 L747 1015 L760 1014 L790 1005 L822 989 L850 969 L865 960 L876 957 L885 958 L878 955 L866 957 L856 962 L824 985 L796 1000 L778 1007 L753 1013 L730 1014 L729 1013 L702 1012 L695 1010 L659 1007 L658 1006 L607 1006 L606 1005 L574 1005 L573 1006 L560 1006 L559 1007 L532 1009 L531 1010 L516 1011 L515 1012 L492 1012 L491 1011 L484 1011 L483 1010 L474 1009 L455 1003 L432 991 L410 976 L391 961 L380 955 L373 953 L367 953 L362 955 L357 960 L356 959 L361 950 L367 944 L371 942 L375 942 L378 944 L379 943 L361 926 L352 911 L347 897 L347 893 L344 882 L344 875 L343 874 L343 848 L344 847 L344 840 L345 839 L345 834 L347 826 L353 809 L360 795 L370 781 L379 772 L386 767 L401 761 L409 760 L409 759 L397 760 L391 762 L379 769 L370 778 L357 797 L347 819 L346 815 L352 794 L359 779 L366 768 L378 755 L389 749 L392 749 L393 750 L397 750 L399 753 L407 757 L406 755 L400 751 L391 747 L388 743 L384 742 L388 746 L379 751 L368 762 L358 776 L350 793 L345 810 L343 826 L342 827 L342 838 L341 839 L341 850 L340 851 L340 869 L341 870 L341 881 L342 882 L344 897 L348 909 L354 921 L358 926 L354 933 L353 949 L351 955 L351 963 L349 967 L349 971 L347 977 L347 988 L350 1001 L361 1024 L384 1055 L397 1079 L395 1081 L383 1070 L376 1062 L377 1059 L372 1050 L369 1048 L375 1057 L373 1062 L390 1096 L394 1100 L395 1097 L398 1101 L396 1103 L397 1105 L411 1116 L410 1117 L409 1128 L406 1137 L405 1151 L401 1164 L375 1095 L372 1090 L363 1067 L358 1058 L358 1056 L340 1019 L333 995 L331 980 L330 979 L330 973 L329 972 L328 952 L329 951 L329 942 L331 935 L333 911 L334 910 L335 874 L336 873 L336 850 L337 849 L337 826 L338 825 L338 809 L339 808 L339 795 L340 794 L341 763 L342 762 L342 752 L343 751 L343 732 L342 731 L343 727 L343 593 L345 591 L346 592 L349 605 L351 609 L351 621 L352 622 L354 643 L357 646 L357 653 L358 654 L358 661 L359 662 L360 671 L369 698 L374 704 L369 695 L361 667 L360 654 L359 653 L359 630 L360 629 L361 633 L363 632 L367 638 L367 644 L371 657 L370 660 L372 659 L376 663 L375 667 L369 666 L368 670 L369 671 L375 670 L376 673 L379 671 L387 681 L392 690 L391 691 L391 703 L395 718 L394 708 L393 707 L393 691 L392 688 L396 679 L399 676 L400 677 L401 709 L404 719 L404 723 L411 744 L416 754 L426 769 L437 780 L444 785 L456 791 L468 795 L476 796 L477 797 L483 797 L484 798 L506 798 L507 797 L522 795 L539 789 L550 783 L554 779 L558 777 L569 766 L576 755 L579 748 L581 752 L581 756 L582 756 L582 749 L585 747 L589 747 L591 745 L587 742 L586 723 L584 731 L584 736 L585 737 L585 742 L588 745 L583 747 L581 746 L582 745 L581 743 L582 741 L582 712 L581 711 L581 704 L580 703 L579 694 L576 685 L578 684 L581 678 L582 672 L581 676 L576 684 L571 672 L571 669 L575 665 L577 660 L578 652 L579 651 L579 622 L578 621 L576 607 L572 596 L571 596 L571 599 L574 607 L576 620 L577 621 L578 640 L577 641 L577 649 L576 650 L575 660 L573 665 L570 667 L556 645 L541 630 L528 621 L520 613 L514 603 L509 589 L508 578 L507 577 L508 556 L513 539 L520 525 L516 529 L508 548 L506 561 L505 562 L505 580 L506 581 L507 590 L511 601 L521 617 L518 618 L503 612 L487 610 L486 609 L462 610 L442 615 L418 628 L406 638 L399 648 L412 635 L420 629 L427 625 L429 626 L422 631 L411 643 L403 657 L403 661 L401 666 L397 661 L385 654 L371 640 L361 625 L352 605 L347 585 L347 579 L346 578 L346 551 L347 550 L347 541 L348 540 L349 530 L352 522 L352 519 L356 512 L357 513 L356 522 L357 523 L357 529 L359 533 L359 536 L363 544 L367 549 L365 552 L366 556 L364 561 L364 574 L365 575 L366 586 L369 595 L376 607 L387 617 L402 623 L402 622 L396 620 L388 615 L377 604 L370 591 L367 580 L367 574 L366 573 L366 559 L367 558 L366 553 L368 550 L374 557 L380 576 L388 589 L398 599 L403 601 L391 590 L385 581 L378 563 L375 550 L374 532 L375 531 L376 517 L381 503 L386 496 L388 498 L388 508 L387 509 L386 508 L386 504 L386 516 L389 525 L391 528 L393 526 L399 538 L410 546 L405 557 L405 569 L409 581 L412 586 L408 577 L407 568 L406 567 L406 558 L408 552 L409 553 L410 568 L416 584 L420 590 L430 600 L435 603 L437 603 L431 599 L424 592 L419 585 L412 569 L411 560 L410 559 L410 551 L412 547 L418 550 L424 549 L428 551 L429 559 L437 579 L442 586 L451 595 L455 597 L444 586 L435 570 L431 558 L431 554 L429 549 L429 543 L428 542 L428 519 L429 518 L430 508 L434 496 L440 485 L442 483 L443 484 L444 501 L446 507 L453 520 L462 530 L472 537 L468 543 L465 553 L465 573 L470 588 L474 594 L478 598 L482 600 L475 593 L468 576 L468 572 L467 571 L467 553 L470 542 L472 538 L474 537 L479 541 L488 543 L495 548 L494 549 L494 553 L495 553 L501 533 L511 515 L526 498 L532 494 L533 495 L531 497 L528 504 L525 517 L525 530 L528 542 L532 550 L540 560 L537 563 L536 561 L534 561 L528 572 L526 579 L526 585 L525 586 L526 600 L529 609 L531 610 L527 597 L527 583 L531 569 L533 567 L534 569 L531 580 L531 598 L532 599 L533 608 L539 622 L549 632 L545 627 L546 623 L540 602 L540 594 L539 593 L540 577 L541 576 L540 571 L539 572 L539 579 L538 580 L538 598 L539 599 L539 605 L544 620 L543 624 L537 614 L534 603 L534 598 L533 597 L533 578 L535 572 L534 568 L535 567 L534 568 L533 566 L536 562 L537 566 L538 566 L540 560 L549 568 L560 575 L569 584 L574 592 L577 600 L581 605 L582 620 L584 628 L584 637 L585 638 L585 648 L586 649 L586 662 L589 673 L590 673 L590 669 L589 668 L588 646 L587 645 L587 638 L586 637 L586 630 L585 629 L585 622 L584 621 L583 602 L582 601 L582 592 L581 591 L580 580 L579 581 L579 587 L580 588 L580 599 L579 600 L577 594 L570 582 L562 574 L543 560 L533 547 L528 533 L528 513 L530 508 L530 504 L533 498 L534 499 L533 522 L534 523 L534 530 L536 538 L543 553 L553 563 L542 548 L537 535 L536 525 L535 524 L535 506 L536 505 L536 495 L535 494 L536 491 L533 491 L526 495 L519 501 L509 513 L498 533 L496 542 L494 545 L489 541 L481 539 L467 531 L456 520 L451 513 L446 501 L444 479 L439 483 L430 500 L427 510 L426 523 L425 524 L425 535 L426 536 L426 546 L427 547 L426 548 L420 548 L412 545 L411 546 L397 532 L390 512 L389 492 L385 494 L380 500 L375 511 L373 519 L373 524 L372 525 L372 542 L371 543 L366 534 L363 524 L361 500 L359 500 L360 502 L354 510 L353 509 L358 484 L360 481 L369 481 L383 474 L389 467 L396 462 L409 443 L416 427 L416 424 L419 417 L421 405 L423 400 L424 385 L425 384 L424 368 L423 367 L424 366 L431 368 L443 368 L444 367 L450 367 L451 366 L467 364 L468 363 L474 363 L475 362 L490 362 L491 363 L497 363 L504 365 L514 370 L521 375 L553 408 L571 420 L590 428 L602 431 L618 432 L619 433 L633 433 L634 432 L648 431 L666 426 L685 417 L697 408 L722 382 L730 376 L738 372 L748 369 L755 369 L756 368 L759 369 L769 369 L781 372 L775 369 L767 368 L766 367 L751 367 L736 371 L724 378 L693 409 L672 422 L658 427 L645 430 L613 431 L612 430 L605 430 L583 424 L567 416 L552 405 L520 372 L506 364 L495 361 L486 361 L485 360 L483 361 L470 361 L469 362 L464 362 L463 363 L458 363 L445 366 L430 366 L428 364 L429 363 L437 363 L438 362 L444 362 L463 356 L471 351 L473 351 L478 347 L481 347 L501 331 L509 328 L510 326 L506 326 L505 327 L503 326 Z M507 321 L508 320 L509 321 L508 322 Z M652 293 L653 292 L654 293 L653 294 Z M362 284 L360 301 L361 301 L363 294 L363 285 Z M894 282 L896 282 L905 292 L910 302 L916 325 L917 341 L918 342 L918 377 L916 384 L916 400 L917 401 L917 409 L918 410 L918 418 L917 419 L908 409 L908 383 L909 382 L909 375 L910 374 L911 360 L912 359 L912 344 L911 343 L910 329 L904 305 L893 283 Z M892 282 L893 281 L894 282 L893 283 Z M339 273 L340 272 L341 273 L340 274 Z M625 264 L634 267 L639 272 L641 277 L641 284 L639 289 L634 294 L630 296 L622 296 L616 293 L612 288 L610 282 L611 275 L613 271 L617 267 Z M622 262 L617 264 L609 273 L608 281 L607 282 L608 283 L608 287 L613 295 L618 298 L629 299 L635 297 L641 291 L643 286 L643 276 L641 271 L637 266 L629 262 Z M596 259 L593 265 L593 270 L597 276 L599 277 L593 280 L589 285 L589 293 L594 299 L601 301 L600 303 L600 310 L603 314 L608 316 L612 315 L618 309 L621 317 L625 320 L630 321 L633 320 L637 316 L639 308 L645 311 L649 311 L654 307 L656 303 L656 300 L654 296 L657 295 L657 294 L654 293 L657 292 L661 288 L663 283 L661 277 L658 274 L648 273 L648 274 L653 274 L657 276 L660 279 L661 282 L660 286 L656 290 L649 291 L652 294 L654 299 L654 303 L649 309 L644 309 L637 304 L636 314 L632 318 L624 317 L621 314 L620 306 L611 313 L608 314 L605 313 L601 308 L602 302 L605 298 L603 299 L602 298 L594 297 L591 293 L591 285 L594 281 L601 279 L595 271 L596 262 L601 258 L607 258 L611 261 L612 260 L609 257 L606 256 L601 256 Z M640 253 L634 260 L638 256 L642 254 L649 255 L654 261 L654 264 L651 269 L651 271 L655 267 L656 263 L655 259 L652 255 L647 252 Z M521 250 L522 249 L523 251 L522 252 Z M722 246 L723 247 L725 266 L734 294 L743 312 L752 325 L768 341 L785 352 L806 359 L817 360 L818 361 L833 361 L834 362 L833 363 L826 365 L811 365 L810 364 L805 364 L792 361 L775 353 L759 341 L758 342 L750 334 L740 321 L734 311 L723 285 L720 268 L719 267 L719 262 L718 261 L718 253 L717 252 Z M614 251 L614 257 L616 251 L621 247 L629 248 L632 252 L633 257 L636 254 L636 253 L633 252 L633 250 L628 245 L624 244 L617 247 Z M523 241 L524 240 L525 242 L524 243 Z M621 231 L627 231 L632 233 L638 239 L639 244 L644 241 L654 241 L658 243 L664 249 L667 256 L667 262 L664 268 L668 269 L674 275 L676 280 L676 287 L674 292 L671 296 L664 299 L666 304 L666 314 L663 319 L656 324 L647 324 L643 322 L643 325 L637 331 L632 333 L620 332 L615 328 L614 323 L608 326 L604 326 L603 327 L595 325 L589 319 L587 315 L587 306 L588 304 L582 302 L578 298 L575 290 L575 286 L578 278 L584 273 L580 264 L581 258 L584 252 L589 247 L596 244 L602 244 L607 246 L609 239 L615 233 Z M623 228 L622 229 L618 229 L612 232 L607 237 L605 242 L602 241 L593 242 L587 245 L581 251 L578 258 L578 268 L580 272 L576 276 L573 282 L572 290 L575 299 L580 304 L585 307 L584 308 L584 315 L586 320 L591 326 L601 330 L608 329 L612 327 L614 331 L619 335 L622 336 L633 336 L638 334 L645 326 L646 327 L656 327 L662 324 L666 320 L669 313 L669 305 L667 302 L673 298 L676 294 L679 286 L679 280 L675 271 L668 265 L669 264 L669 253 L666 247 L661 242 L653 238 L645 238 L641 240 L639 236 L634 231 L630 229 Z M659 210 L660 209 L672 221 L692 235 L705 241 L713 243 L721 243 L722 244 L716 249 L708 249 L698 246 L688 241 L679 235 L668 225 L660 214 Z M658 209 L659 208 L660 209 L659 210 Z M657 208 L658 207 L659 208 L658 209 Z M588 208 L582 219 L567 234 L548 244 L533 248 L531 246 L532 248 L530 251 L528 269 L524 281 L524 284 L518 299 L506 318 L486 338 L466 351 L444 359 L440 359 L439 360 L423 360 L412 355 L413 354 L431 355 L432 354 L445 352 L454 349 L466 343 L479 334 L500 313 L513 292 L522 268 L524 252 L525 251 L524 248 L525 244 L524 243 L526 242 L528 244 L530 244 L528 242 L529 241 L540 241 L559 233 L571 224 L587 207 Z M660 198 L677 215 L680 216 L664 199 Z M651 197 L643 204 L634 210 L628 212 L627 214 L640 208 L651 199 Z M597 195 L599 198 L610 207 L618 212 L622 213 Z M587 193 L588 192 L589 193 L588 194 Z M656 192 L657 191 L659 192 L658 193 Z M586 192 L587 191 L588 192 L587 193 Z M658 191 L659 190 L660 191 L659 192 Z M593 196 L589 205 L567 225 L557 232 L549 236 L539 239 L526 239 L521 237 L520 255 L521 251 L522 252 L522 258 L513 287 L507 299 L497 313 L475 334 L461 343 L444 350 L431 352 L430 353 L410 352 L409 351 L411 347 L417 339 L427 330 L437 325 L436 324 L425 330 L413 341 L406 353 L401 367 L396 388 L394 403 L389 422 L382 438 L378 443 L376 441 L376 436 L373 424 L373 391 L374 390 L375 377 L379 361 L385 345 L398 325 L409 314 L419 307 L438 299 L451 296 L456 296 L457 295 L466 295 L473 299 L474 298 L479 306 L480 315 L481 315 L487 305 L487 303 L493 291 L501 266 L501 263 L509 241 L517 226 L524 217 L543 199 L552 194 L561 191 L568 191 L570 190 L571 191 L583 192 L588 194 L585 195 L582 198 L578 206 L568 216 L581 204 L585 197 L589 193 Z M659 190 L660 189 L661 190 L660 191 Z M660 189 L661 188 L662 189 L661 190 Z M661 188 L662 187 L663 188 L662 189 Z M662 187 L663 186 L664 187 L663 188 Z M663 186 L664 185 L665 186 L664 187 Z M664 185 L665 184 L667 185 L666 186 Z M666 184 L667 183 L668 184 L667 185 Z M667 183 L668 182 L669 183 L668 184 Z M668 182 L669 181 L670 182 L669 183 Z M669 181 L670 180 L671 181 L670 182 Z M670 180 L671 179 L673 180 L672 181 Z M672 179 L673 178 L674 179 L673 180 Z M673 178 L674 177 L675 178 L674 179 Z M674 177 L675 176 L677 177 L676 178 Z M676 176 L677 175 L678 176 L677 177 Z M678 175 L679 174 L680 175 L679 176 Z M565 170 L566 169 L568 170 L567 171 Z M564 169 L565 168 L566 169 L565 170 Z M355 169 L353 169 L348 184 L344 206 L343 207 L343 212 L342 213 L340 235 L339 236 L339 244 L338 245 L338 265 L337 266 L338 277 L335 280 L331 288 L330 287 L331 263 L332 262 L333 241 L334 240 L334 233 L335 232 L337 213 L338 212 L343 183 L347 173 L351 169 L349 169 L345 173 L343 177 L339 198 L338 199 L338 203 L337 204 L337 208 L336 209 L333 233 L332 234 L332 240 L331 241 L329 276 L328 277 L328 297 L326 302 L325 313 L324 314 L323 340 L324 341 L324 349 L325 350 L328 373 L330 379 L330 384 L332 389 L332 383 L331 382 L331 376 L328 364 L328 358 L326 350 L326 341 L325 340 L326 316 L327 315 L327 310 L330 298 L337 282 L342 275 L347 271 L352 269 L357 269 L359 272 L361 281 L362 282 L363 281 L361 273 L359 269 L356 267 L350 267 L344 270 L341 273 L339 271 L340 270 L340 250 L341 249 L341 240 L342 239 L344 216 L345 215 L345 210 L346 209 L346 204 L350 189 L350 185 Z M563 167 L564 168 L562 169 L587 191 L584 192 L581 190 L568 188 L553 192 L545 196 L535 203 L524 214 L513 229 L506 243 L498 266 L498 269 L493 285 L491 288 L489 296 L482 310 L478 300 L475 297 L473 297 L468 293 L464 293 L463 292 L464 291 L465 277 L466 276 L468 262 L474 243 L480 230 L493 210 L515 188 L525 181 L538 174 L556 168 L558 166 Z M604 163 L605 162 L606 163 L605 164 Z M622 157 L623 156 L624 157 L623 158 Z M585 137 L585 141 L587 147 L589 145 L594 153 L609 172 L622 184 L605 165 L608 161 L606 161 L604 163 L601 160 L592 146 L586 139 L586 137 Z M312 130 L313 131 L313 189 L312 190 L311 189 L311 131 Z M613 130 L614 129 L615 130 L614 131 Z M614 129 L615 128 L617 129 L616 130 Z M311 129 L312 128 L313 129 L312 130 Z M622 119 L623 122 L617 129 L616 127 L620 123 Z M622 118 L623 117 L624 119 L623 120 Z M627 115 L628 114 L629 115 L628 116 Z M623 115 L624 114 L625 116 L624 117 Z M619 110 L619 112 L621 114 L620 119 L616 125 L606 133 L598 134 L590 132 L586 129 L587 128 L594 128 L606 123 L614 116 L617 112 L617 110 L618 109 Z M314 107 L315 106 L316 107 L315 108 Z M315 106 L316 105 L317 106 L316 107 Z M316 105 L317 104 L318 105 L317 106 Z M317 104 L318 103 L319 104 L318 105 Z M318 103 L319 102 L320 103 L319 104 Z M319 102 L320 101 L321 102 L320 103 Z M866 100 L866 103 L867 103 L867 100 Z M661 100 L662 99 L664 100 L663 101 Z M939 96 L940 95 L941 96 L940 97 Z M937 95 L938 94 L940 95 L939 96 Z M936 94 L937 93 L938 94 L937 95 Z M628 93 L635 99 L636 103 L635 110 L631 115 L633 116 L637 124 L638 139 L633 150 L628 155 L624 157 L623 156 L628 149 L631 141 L632 127 L629 120 L629 114 L623 113 L618 107 L618 102 L620 99 L618 97 L623 93 Z M935 93 L936 92 L937 93 L936 94 Z M330 93 L331 92 L332 93 L331 94 Z M933 92 L934 91 L935 92 L934 93 Z M932 91 L933 90 L934 91 L933 92 Z M930 90 L931 89 L932 90 L931 91 Z M929 89 L930 88 L931 89 L930 90 Z M867 81 L866 82 L867 85 Z M353 78 L354 77 L355 78 L354 79 Z M364 75 L366 83 L366 145 L367 146 L369 267 L370 268 L370 295 L371 296 L371 327 L372 328 L373 366 L374 367 L374 373 L373 374 L372 386 L371 387 L371 403 L366 408 L364 408 L354 414 L348 420 L347 419 L347 405 L346 405 L346 419 L345 420 L347 421 L339 432 L338 431 L338 422 L339 421 L339 391 L338 390 L338 377 L337 376 L338 343 L344 318 L348 310 L354 304 L357 303 L358 304 L354 309 L348 324 L346 337 L345 338 L345 345 L344 346 L343 372 L344 373 L345 398 L346 401 L347 401 L346 378 L345 377 L345 353 L346 352 L346 345 L347 344 L351 323 L355 312 L360 303 L358 304 L357 302 L355 302 L351 304 L345 311 L340 324 L339 332 L337 337 L336 353 L335 354 L335 372 L336 373 L336 387 L337 388 L337 420 L336 421 L336 430 L335 431 L335 438 L330 448 L326 460 L324 472 L322 477 L321 488 L320 489 L319 488 L320 398 L319 397 L317 351 L316 350 L316 336 L315 335 L315 314 L314 313 L314 280 L315 279 L315 260 L316 259 L317 237 L318 236 L318 229 L319 228 L319 221 L320 220 L323 194 L324 193 L324 189 L330 163 L338 140 L342 133 L347 128 L349 128 L351 130 L354 140 L354 149 L355 150 L354 167 L356 165 L356 144 L355 143 L354 133 L350 126 L346 126 L339 133 L332 148 L321 190 L318 214 L317 215 L317 221 L316 222 L316 229 L315 230 L314 249 L313 250 L313 264 L312 265 L311 264 L311 223 L312 222 L313 223 L313 226 L314 224 L313 220 L313 205 L314 204 L314 127 L315 126 L315 112 L314 112 L313 115 L310 110 L314 107 L315 109 L333 94 Z M363 73 L364 72 L365 73 L364 74 Z M650 68 L651 69 L646 72 L639 80 L635 89 L635 93 L634 94 L630 91 L631 84 L633 78 L636 74 L645 68 Z M651 68 L652 67 L653 68 L652 69 Z M880 63 L882 66 L888 68 L917 83 L937 97 L940 98 L942 96 L944 98 L944 222 L943 223 L942 222 L941 201 L940 200 L941 196 L942 199 L942 104 L940 102 L940 128 L941 129 L941 195 L940 196 L939 195 L939 190 L932 160 L923 134 L912 114 L907 110 L900 110 L896 114 L893 122 L893 141 L895 148 L902 163 L909 187 L910 197 L912 203 L912 209 L913 210 L913 217 L914 218 L916 255 L915 256 L909 250 L902 246 L895 246 L896 248 L891 250 L887 257 L887 264 L886 265 L887 266 L887 274 L888 277 L890 278 L887 267 L888 260 L890 254 L897 248 L899 248 L906 251 L914 259 L923 275 L928 290 L929 298 L930 299 L930 305 L931 306 L931 332 L930 333 L930 340 L929 341 L929 347 L927 354 L926 369 L928 365 L928 359 L930 353 L932 332 L933 331 L933 303 L932 302 L931 291 L929 286 L928 256 L927 255 L927 244 L926 243 L924 219 L923 218 L922 206 L921 205 L921 201 L915 175 L907 153 L904 148 L899 144 L904 151 L909 162 L918 195 L920 210 L921 211 L921 217 L922 218 L924 243 L925 244 L926 270 L927 271 L927 276 L926 277 L918 260 L917 224 L916 223 L916 215 L915 214 L915 207 L914 206 L914 199 L913 198 L912 189 L907 173 L907 170 L899 150 L895 143 L894 131 L893 130 L893 127 L897 116 L900 112 L905 112 L906 113 L904 114 L903 118 L904 119 L905 118 L905 114 L907 113 L913 120 L921 136 L928 156 L936 189 L936 194 L938 200 L938 207 L939 208 L939 216 L940 217 L940 226 L941 227 L941 245 L942 246 L942 304 L941 305 L941 334 L940 335 L940 353 L939 354 L939 372 L938 373 L938 400 L937 401 L937 423 L938 424 L938 430 L937 431 L937 460 L936 461 L930 441 L921 425 L921 420 L920 419 L919 401 L918 400 L918 384 L919 383 L919 375 L920 374 L920 343 L919 342 L919 332 L918 331 L916 315 L908 293 L903 286 L895 280 L890 280 L899 299 L905 316 L907 330 L908 331 L908 337 L909 338 L909 348 L910 349 L909 367 L908 368 L908 375 L907 376 L907 383 L906 384 L906 406 L905 407 L898 402 L889 399 L887 397 L884 376 L882 371 L882 367 L879 360 L879 333 L880 332 L880 100 L879 99 L880 96 L880 68 L879 64 Z M867 63 L866 65 L867 75 Z M612 53 L613 52 L614 53 L613 54 Z M618 46 L609 54 L606 59 L604 67 L605 78 L608 87 L611 90 L607 81 L606 65 L608 59 L612 53 L613 54 L611 62 L612 75 L614 81 L622 91 L618 93 L616 100 L608 103 L603 103 L596 100 L590 94 L587 86 L588 82 L589 85 L597 93 L606 97 L615 97 L613 95 L604 94 L598 91 L592 86 L588 76 L589 68 L588 68 L585 76 L585 87 L589 96 L594 101 L600 104 L604 104 L605 105 L612 104 L616 101 L617 102 L617 106 L615 111 L605 121 L593 126 L583 126 L582 125 L580 126 L588 133 L596 136 L608 135 L619 130 L623 126 L625 118 L627 117 L630 126 L630 137 L624 152 L615 161 L619 161 L630 156 L636 149 L640 140 L640 127 L636 118 L633 115 L637 111 L642 112 L649 116 L654 122 L657 130 L657 134 L656 135 L649 122 L640 115 L649 125 L652 130 L655 139 L655 149 L652 156 L648 161 L647 160 L648 158 L648 147 L647 147 L646 158 L643 166 L625 185 L624 187 L625 207 L626 206 L626 185 L642 170 L645 166 L646 162 L647 161 L648 162 L652 158 L659 143 L659 129 L656 121 L650 114 L643 110 L638 109 L637 108 L638 105 L642 101 L648 98 L656 97 L661 99 L660 100 L651 101 L645 104 L642 108 L650 103 L663 102 L668 104 L675 112 L675 110 L672 105 L665 98 L661 96 L650 95 L640 100 L635 94 L641 80 L648 73 L656 69 L661 69 L661 68 L657 66 L652 66 L651 65 L644 66 L637 70 L631 78 L628 90 L626 89 L624 90 L620 86 L615 77 L613 70 L613 60 L615 53 L620 46 Z M376 45 L377 48 L377 68 L378 69 L378 136 L379 137 L379 194 L380 195 L380 231 L381 232 L381 271 L382 272 L383 327 L384 328 L384 335 L385 336 L385 306 L384 305 L383 247 L382 246 L382 209 L381 208 L381 170 L380 169 L379 50 L377 45 Z M873 42 L870 43 L867 47 L867 53 L866 54 L867 58 L868 57 L868 48 Z M386 41 L402 45 L406 47 L411 53 L412 65 L413 66 L414 86 L415 87 L415 97 L416 98 L416 109 L417 110 L417 122 L418 123 L418 136 L419 137 L419 150 L420 151 L420 163 L421 164 L421 177 L422 178 L422 190 L423 191 L423 204 L424 205 L426 239 L427 240 L427 248 L428 249 L430 270 L437 296 L417 305 L406 313 L398 321 L386 338 L381 348 L376 363 L375 362 L375 337 L374 336 L373 286 L372 285 L368 72 L367 69 L365 69 L361 72 L350 77 L333 88 L319 99 L310 108 L310 128 L309 129 L309 344 L310 345 L311 439 L312 440 L312 459 L313 460 L314 478 L314 468 L315 467 L316 468 L315 494 L314 495 L315 497 L315 504 L317 511 L317 505 L316 504 L316 497 L317 496 L320 509 L321 524 L323 529 L325 541 L327 544 L327 540 L323 524 L322 496 L323 495 L324 480 L328 463 L337 439 L345 427 L359 413 L365 410 L370 405 L371 406 L371 421 L372 422 L372 428 L375 441 L377 445 L382 441 L387 432 L393 415 L397 393 L398 392 L399 382 L402 373 L402 369 L404 365 L405 366 L404 373 L407 365 L407 360 L410 355 L414 359 L412 365 L411 384 L410 385 L409 396 L405 413 L400 427 L391 445 L386 453 L381 458 L381 460 L392 447 L403 425 L411 396 L413 372 L414 371 L414 361 L415 360 L422 366 L422 382 L421 383 L421 396 L420 397 L420 402 L416 419 L410 435 L400 452 L388 464 L378 472 L365 478 L360 478 L356 476 L352 472 L358 468 L370 455 L371 451 L364 460 L356 467 L351 469 L350 468 L350 464 L348 467 L348 488 L349 489 L348 490 L345 512 L342 523 L344 522 L347 505 L348 504 L348 498 L350 492 L349 488 L350 487 L350 477 L349 474 L350 473 L356 479 L359 480 L356 482 L356 485 L354 489 L349 517 L342 542 L341 541 L342 532 L340 534 L337 552 L332 569 L329 559 L325 551 L320 547 L317 546 L313 546 L312 547 L311 546 L311 540 L310 539 L310 533 L309 532 L309 526 L308 525 L308 519 L306 511 L306 504 L305 503 L304 480 L303 479 L302 411 L301 410 L301 363 L300 362 L299 230 L298 229 L299 225 L299 165 L300 164 L301 92 L306 86 L326 70 L355 51 L374 42 L379 42 L382 45 L383 48 L383 98 L384 99 L384 150 L385 151 L387 276 L388 277 L389 321 L390 325 L391 325 L391 317 L390 316 L390 277 L389 276 L389 241 L388 240 L387 157 L386 156 L385 50 L384 49 L384 45 L382 43 L383 41 Z M862 38 L863 39 L860 43 L860 57 L859 58 L859 287 L858 288 L858 321 L857 322 L848 314 L832 305 L820 301 L805 299 L804 298 L811 283 L818 253 L820 215 L821 214 L821 197 L822 196 L822 176 L823 175 L825 121 L826 120 L827 93 L828 92 L828 81 L829 80 L829 69 L830 68 L831 52 L836 45 L842 42 Z M606 26 L619 20 L625 19 L639 25 L649 32 L668 50 L677 61 L683 70 L691 86 L695 98 L698 111 L698 118 L699 119 L699 140 L698 141 L697 153 L692 168 L692 171 L691 172 L690 171 L687 172 L684 171 L672 176 L656 191 L657 193 L653 198 L660 194 L677 179 L688 173 L713 182 L734 193 L746 202 L758 214 L766 224 L778 244 L786 266 L789 283 L790 284 L790 292 L792 298 L789 299 L786 302 L785 301 L783 302 L784 303 L778 312 L777 318 L775 322 L770 315 L763 301 L757 283 L756 276 L753 269 L752 262 L745 243 L738 229 L731 219 L716 204 L710 200 L695 193 L686 192 L685 191 L676 191 L664 194 L662 196 L672 193 L688 193 L689 194 L697 195 L712 203 L728 218 L739 235 L746 251 L762 304 L773 323 L781 332 L776 324 L778 322 L779 314 L782 309 L791 300 L796 300 L797 301 L811 302 L812 303 L820 304 L838 311 L851 320 L860 329 L868 340 L875 354 L879 366 L882 383 L883 384 L884 408 L882 416 L884 415 L886 400 L887 399 L904 409 L914 419 L919 426 L927 441 L932 455 L935 472 L936 473 L936 478 L937 479 L938 513 L937 514 L936 528 L931 543 L933 542 L936 534 L936 530 L938 526 L939 516 L940 515 L940 505 L941 504 L940 501 L940 482 L941 481 L941 474 L942 473 L942 455 L943 454 L943 424 L944 423 L944 394 L945 393 L945 337 L946 336 L946 98 L943 94 L912 75 L880 59 L878 59 L877 61 L877 269 L878 270 L878 281 L877 282 L877 350 L876 351 L871 340 L865 332 L867 330 L867 187 L868 186 L868 181 L867 180 L867 167 L868 166 L867 106 L866 106 L866 281 L865 282 L866 283 L865 284 L865 325 L866 326 L866 330 L865 331 L857 322 L860 318 L860 273 L861 272 L861 55 L862 54 L862 43 L866 38 L869 38 L899 49 L932 67 L944 75 L952 82 L953 84 L953 114 L954 115 L955 281 L954 282 L953 410 L952 411 L952 448 L951 449 L950 493 L949 494 L949 508 L948 509 L947 531 L946 532 L946 537 L944 545 L937 547 L930 554 L925 568 L918 538 L913 522 L911 506 L910 505 L910 499 L909 498 L909 491 L908 490 L908 481 L906 473 L911 469 L912 470 L912 478 L914 477 L913 467 L901 464 L893 460 L877 449 L863 436 L858 429 L852 417 L842 389 L842 394 L847 411 L855 428 L863 440 L868 445 L870 445 L890 461 L898 465 L910 468 L901 472 L890 470 L880 464 L870 453 L868 453 L871 458 L880 467 L888 472 L895 474 L894 475 L889 475 L872 466 L856 450 L845 433 L837 414 L831 392 L828 369 L820 369 L819 368 L820 367 L830 367 L837 363 L838 366 L836 367 L835 372 L836 373 L837 386 L839 388 L837 368 L838 367 L839 368 L839 371 L841 373 L840 372 L840 361 L844 356 L845 357 L851 376 L851 380 L854 388 L855 395 L861 412 L872 434 L883 448 L883 446 L877 439 L870 428 L870 426 L864 415 L856 392 L851 369 L843 349 L839 343 L830 334 L821 328 L819 328 L829 335 L840 347 L843 353 L842 357 L840 359 L824 359 L823 358 L815 358 L814 357 L808 357 L791 352 L779 346 L767 337 L751 320 L745 311 L735 290 L732 278 L728 271 L728 267 L726 261 L726 254 L725 253 L725 243 L726 242 L727 243 L727 251 L728 253 L729 252 L729 247 L728 246 L729 238 L727 238 L722 241 L714 241 L703 238 L691 232 L673 219 L653 200 L658 215 L665 225 L675 235 L686 243 L698 249 L715 253 L718 276 L725 299 L731 312 L740 326 L739 327 L731 324 L720 324 L719 325 L711 326 L699 332 L687 343 L671 367 L666 372 L651 381 L639 385 L619 386 L618 385 L607 384 L596 380 L583 372 L579 368 L560 337 L548 325 L541 321 L530 318 L521 318 L512 321 L508 320 L516 309 L524 292 L531 267 L532 250 L533 249 L536 250 L537 249 L542 249 L559 242 L568 236 L581 224 L587 216 L592 206 L594 198 L592 194 L579 181 L567 171 L569 170 L575 174 L594 191 L592 188 L577 173 L563 165 L557 165 L556 166 L553 165 L547 142 L546 115 L547 114 L548 101 L553 84 L563 66 L571 56 L586 41 Z M868 35 L854 36 L837 41 L831 46 L829 50 L828 61 L827 62 L826 83 L825 84 L824 112 L823 113 L823 128 L822 129 L822 143 L821 144 L821 164 L820 165 L820 186 L819 187 L819 205 L818 206 L818 222 L817 223 L816 245 L815 246 L815 253 L814 254 L812 270 L807 286 L801 298 L796 298 L793 296 L793 285 L791 279 L791 274 L784 251 L774 231 L761 213 L748 200 L733 189 L726 186 L724 184 L722 184 L720 182 L718 182 L708 177 L697 174 L694 172 L697 165 L701 148 L702 119 L701 118 L700 106 L693 83 L684 66 L672 50 L651 30 L641 23 L631 18 L620 17 L614 19 L598 28 L584 39 L567 56 L557 70 L551 81 L545 101 L545 107 L544 108 L544 116 L543 117 L544 141 L550 166 L528 176 L517 183 L508 190 L495 203 L488 212 L479 226 L470 246 L464 267 L462 283 L461 284 L461 291 L459 293 L451 293 L440 296 L437 289 L434 272 L433 271 L431 252 L430 251 L430 244 L429 243 L429 234 L428 233 L428 222 L427 221 L427 210 L426 209 L426 198 L425 197 L425 186 L424 185 L424 172 L423 171 L423 158 L422 157 L421 129 L420 128 L420 115 L419 114 L419 104 L418 103 L416 69 L415 68 L414 54 L412 49 L407 44 L386 38 L378 38 L369 41 L346 53 L328 65 L305 83 L299 89 L298 92 L297 167 L296 168 L296 292 L297 293 L297 363 L298 364 L298 408 L299 409 L299 456 L300 457 L300 479 L301 480 L302 502 L303 503 L305 525 L306 526 L306 531 L309 544 L308 547 L305 547 L298 552 L296 559 L296 584 L295 585 L297 681 L298 682 L298 694 L297 695 L298 930 L301 934 L319 937 L323 943 L324 951 L325 952 L326 970 L327 971 L329 990 L333 1007 L338 1022 L353 1052 L353 1054 L359 1065 L359 1067 L372 1095 L384 1125 L385 1130 L389 1138 L398 1165 L400 1167 L402 1167 L407 1163 L409 1168 L414 1172 L419 1171 L422 1169 L426 1183 L435 1196 L445 1205 L463 1216 L465 1216 L479 1223 L502 1231 L536 1239 L542 1239 L549 1241 L557 1241 L558 1242 L568 1242 L569 1243 L586 1243 L587 1244 L646 1244 L647 1243 L665 1243 L666 1242 L676 1242 L677 1241 L692 1240 L693 1239 L698 1239 L699 1238 L720 1234 L753 1223 L774 1212 L781 1207 L792 1196 L797 1189 L801 1179 L803 1167 L805 1164 L813 1171 L815 1171 L820 1168 L832 1148 L876 1084 L890 1084 L894 1080 L894 1071 L887 1066 L904 1042 L915 1020 L921 1002 L925 985 L929 944 L934 938 L952 935 L955 932 L956 929 L955 862 L956 861 L956 792 L957 791 L957 700 L956 699 L955 690 L956 689 L957 630 L958 629 L957 627 L958 626 L958 571 L957 570 L957 557 L956 553 L952 548 L948 547 L946 545 L949 536 L950 521 L951 520 L951 508 L952 507 L953 471 L954 470 L954 441 L955 440 L955 403 L956 402 L957 273 L958 272 L957 271 L958 224 L957 223 L956 85 L955 81 L950 76 L926 60 L892 43 Z" fill="#eef3f4" fill-rule="evenodd"/>
</svg>
