<svg xmlns="http://www.w3.org/2000/svg" width="1254" height="1254" viewBox="0 0 1254 1254">
  <title>0279</title>
  <path d="M566 1073 L571 1071 L577 1071 L582 1069 L586 1069 L606 1064 L628 1063 L629 1064 L637 1065 L645 1069 L652 1075 L661 1079 L665 1079 L668 1081 L670 1079 L673 1079 L682 1075 L693 1067 L707 1063 L733 1064 L744 1067 L749 1067 L753 1069 L751 1072 L751 1075 L748 1083 L748 1090 L741 1092 L717 1092 L711 1090 L709 1088 L710 1087 L710 1078 L707 1072 L708 1076 L707 1088 L700 1092 L644 1093 L643 1092 L626 1092 L619 1089 L620 1088 L621 1080 L624 1075 L630 1071 L630 1070 L625 1072 L621 1076 L618 1082 L618 1086 L617 1087 L618 1088 L612 1092 L574 1092 L571 1093 L570 1092 L569 1080 Z M844 1036 L845 1038 L837 1052 L833 1065 L831 1068 L823 1100 L823 1105 L822 1106 L818 1133 L817 1134 L815 1155 L814 1156 L811 1201 L807 1205 L802 1205 L792 1198 L782 1187 L772 1173 L761 1152 L758 1142 L756 1139 L751 1118 L751 1112 L750 1111 L750 1094 L749 1091 L751 1085 L751 1080 L753 1072 L755 1069 L763 1071 L769 1071 L770 1072 L782 1072 L802 1067 L817 1059 Z M844 1036 L845 1035 L846 1036 L845 1037 Z M845 1035 L846 1034 L847 1035 L846 1036 Z M476 1025 L496 1040 L508 1051 L522 1061 L541 1070 L549 1071 L550 1072 L563 1072 L565 1074 L567 1088 L569 1094 L568 1096 L568 1111 L567 1112 L565 1131 L560 1149 L553 1164 L553 1166 L542 1185 L530 1199 L525 1203 L518 1206 L513 1205 L511 1203 L509 1197 L509 1180 L508 1179 L507 1153 L506 1152 L506 1144 L505 1143 L505 1135 L504 1134 L504 1126 L503 1125 L501 1104 L500 1103 L500 1098 L499 1097 L499 1092 L498 1091 L495 1071 L486 1044 L480 1033 L475 1027 Z M474 1025 L475 1024 L476 1025 L475 1026 Z M863 1006 L864 1005 L866 1006 L865 1007 Z M746 996 L743 999 L734 999 L733 998 L743 992 Z M780 978 L781 977 L782 978 L781 979 Z M547 976 L548 975 L549 976 L548 977 Z M535 976 L536 975 L537 976 L536 977 Z M726 974 L733 974 L735 975 L739 981 L739 987 L738 988 L741 989 L730 998 L721 995 L713 988 L717 981 L722 976 Z M599 974 L608 977 L617 987 L614 992 L609 996 L604 998 L601 998 L594 992 L591 986 L592 978 Z M789 958 L792 970 L796 977 L795 978 L791 977 L782 978 L781 976 L786 968 Z M542 958 L544 966 L548 974 L547 976 L537 976 L536 975 L539 969 Z M628 927 L629 926 L630 927 L629 928 Z M707 926 L708 925 L709 926 L708 927 Z M764 935 L765 944 L766 945 L765 963 L761 977 L756 987 L750 994 L744 989 L740 988 L741 979 L738 974 L732 971 L726 971 L720 974 L714 980 L706 994 L697 1003 L684 1010 L671 1013 L655 1012 L645 1009 L637 1005 L626 996 L616 981 L611 976 L603 972 L596 972 L592 974 L589 979 L589 987 L591 991 L600 998 L599 999 L592 999 L583 995 L574 986 L570 980 L566 970 L565 960 L564 959 L564 947 L569 932 L577 923 L585 919 L593 917 L606 918 L620 923 L633 934 L638 908 L640 904 L643 890 L648 877 L659 860 L669 853 L674 855 L681 862 L690 880 L698 908 L698 912 L702 927 L702 933 L703 934 L712 925 L719 921 L725 920 L729 918 L741 917 L751 920 L761 929 Z M979 767 L980 768 L979 771 L978 770 Z M870 730 L871 729 L873 730 L872 731 Z M1006 721 L1002 724 L997 734 L997 737 L995 741 L993 753 L990 762 L990 766 L987 775 L987 779 L984 788 L984 792 L982 797 L982 801 L977 818 L977 822 L975 827 L971 849 L968 858 L967 867 L964 876 L963 886 L961 892 L961 898 L960 899 L960 908 L959 909 L959 928 L960 929 L960 935 L962 943 L968 953 L978 959 L983 959 L984 960 L993 959 L998 957 L998 956 L990 957 L989 958 L980 957 L974 954 L968 948 L964 940 L963 931 L962 930 L962 908 L963 907 L964 891 L965 890 L968 870 L970 865 L970 861 L972 856 L973 847 L976 838 L976 834 L978 829 L982 807 L991 773 L996 746 L1001 729 Z M280 689 L278 692 L276 702 L272 709 L272 718 L275 726 L279 730 L283 732 L285 738 L289 767 L290 768 L295 797 L297 802 L301 826 L303 831 L305 845 L310 863 L312 879 L313 880 L313 886 L314 887 L314 915 L310 931 L301 946 L294 952 L286 956 L276 956 L276 957 L279 958 L286 958 L287 957 L291 957 L299 952 L303 948 L311 936 L317 915 L317 887 L316 886 L316 880 L315 879 L312 860 L308 847 L307 838 L305 833 L305 829 L304 828 L304 824 L303 823 L303 819 L302 818 L302 814 L301 813 L301 809 L300 808 L300 804 L299 803 L299 799 L298 798 L298 794 L297 793 L297 789 L296 788 L296 784 L290 758 L290 753 L287 742 L287 736 L285 730 L282 727 L283 726 L280 727 L277 724 L275 718 L275 710 L279 701 L281 703 L282 709 L284 712 L286 724 L291 738 L292 745 L296 756 L303 784 L306 804 L307 805 L307 810 L308 811 L309 823 L310 824 L312 851 L314 856 L312 821 L311 820 L311 813 L310 812 L310 806 L309 805 L306 784 L298 752 L296 748 L295 741 L286 715 L286 711 L281 694 L281 689 Z M747 686 L748 685 L749 686 L748 687 Z M917 680 L916 682 L927 682 L936 686 L943 692 L947 697 L953 709 L958 726 L959 738 L960 739 L960 747 L961 748 L961 762 L962 763 L962 788 L961 789 L960 814 L959 815 L959 821 L958 822 L955 843 L950 862 L950 866 L951 866 L955 851 L958 832 L959 831 L961 813 L962 812 L963 794 L964 793 L964 752 L963 751 L963 742 L962 741 L961 729 L958 716 L954 705 L946 692 L938 685 L932 682 L925 680 Z M991 678 L992 681 L990 687 L981 702 L980 701 L981 688 L984 683 L988 679 Z M295 678 L305 684 L309 689 L310 692 L310 702 L307 707 L305 705 L304 698 L295 683 L294 680 Z M991 678 L992 677 L993 678 L992 679 Z M293 678 L294 677 L295 678 L294 679 Z M477 671 L478 673 L473 679 L470 686 L469 685 L469 677 L473 673 Z M529 671 L530 670 L531 671 L530 672 Z M755 670 L756 669 L757 670 L756 671 Z M756 669 L757 668 L758 669 L757 670 Z M301 668 L302 667 L303 668 L302 669 Z M799 667 L800 666 L801 667 L800 668 Z M757 667 L758 666 L759 668 L758 669 Z M570 667 L571 666 L572 667 L571 668 Z M479 673 L483 669 L490 666 L494 666 L495 667 L488 673 L483 683 L483 696 L488 706 L495 712 L502 715 L512 716 L524 712 L529 708 L535 698 L536 695 L536 683 L532 674 L530 672 L532 671 L540 678 L545 687 L546 698 L542 710 L535 719 L528 724 L518 728 L512 728 L511 729 L501 728 L489 723 L480 715 L473 702 L472 687 Z M800 666 L801 665 L802 666 L801 667 Z M758 666 L759 665 L760 666 L759 667 Z M569 666 L570 665 L571 666 L570 667 Z M509 665 L517 666 L523 669 L530 676 L533 683 L533 688 L534 689 L533 690 L533 696 L530 702 L523 709 L513 713 L502 712 L494 708 L489 702 L486 696 L486 691 L485 690 L486 683 L490 675 L498 668 Z M494 666 L495 665 L497 666 L496 667 Z M855 675 L857 679 L858 687 L857 688 L857 695 L854 705 L850 712 L842 720 L833 725 L823 728 L814 728 L806 726 L798 722 L788 712 L785 707 L782 697 L783 684 L786 678 L798 667 L800 668 L795 674 L792 682 L793 698 L801 709 L810 714 L814 715 L823 715 L833 711 L840 705 L844 698 L846 690 L845 679 L841 671 L835 665 L836 664 L840 665 L851 671 Z M834 664 L835 663 L836 664 L835 665 Z M817 661 L822 661 L828 663 L835 668 L840 674 L843 682 L843 693 L840 700 L834 707 L823 712 L814 712 L806 709 L799 702 L795 694 L795 681 L797 676 L804 667 L813 662 Z M468 673 L466 677 L466 689 L470 699 L471 705 L477 716 L485 724 L494 729 L501 731 L518 731 L522 730 L536 722 L545 711 L549 698 L549 692 L546 681 L538 672 L528 666 L512 662 L496 662 L495 663 L487 664 L481 667 L478 667 Z M982 660 L983 661 L982 664 L981 663 Z M796 661 L790 663 L786 668 L795 663 Z M813 658 L796 665 L783 677 L780 685 L779 694 L781 698 L781 705 L784 711 L796 724 L809 730 L821 731 L822 730 L831 729 L840 725 L852 714 L860 697 L861 681 L858 674 L854 670 L842 663 L830 659 Z M555 658 L556 657 L557 658 L556 659 Z M552 656 L553 655 L554 656 L553 657 Z M551 655 L552 654 L553 655 L552 656 Z M928 654 L929 653 L930 654 L929 655 Z M890 654 L891 653 L893 654 L892 655 Z M549 654 L550 653 L551 654 L550 655 Z M384 654 L387 653 L392 655 L396 655 L399 661 L430 696 L452 716 L471 729 L483 735 L496 739 L500 739 L501 740 L517 740 L540 734 L557 724 L570 712 L586 694 L588 695 L588 697 L576 720 L564 732 L554 739 L534 747 L529 747 L522 749 L503 749 L502 748 L492 747 L479 743 L464 736 L440 719 L413 692 Z M288 654 L293 660 L294 659 Z M886 653 L887 652 L890 653 L889 654 Z M548 653 L549 652 L550 653 L549 654 Z M546 652 L547 651 L548 652 L547 653 Z M545 651 L546 650 L547 651 L546 652 Z M543 650 L544 649 L545 650 L544 651 Z M785 649 L786 648 L787 649 L786 650 Z M542 649 L543 648 L544 649 L543 650 Z M787 648 L788 647 L789 648 L788 649 Z M727 648 L724 661 L720 664 L717 670 L708 680 L700 686 L690 691 L679 694 L663 694 L650 690 L640 685 L630 678 L619 666 L620 663 L624 663 L635 669 L651 675 L659 676 L660 677 L678 677 L690 674 L699 670 L710 663 L713 663 L714 662 L711 661 L726 647 Z M539 648 L540 647 L542 648 L541 649 Z M789 647 L790 646 L791 647 L790 648 Z M726 647 L727 646 L728 647 L727 648 Z M605 647 L606 646 L607 647 L606 648 Z M537 647 L538 646 L540 647 L539 648 Z M790 646 L791 645 L793 646 L792 647 Z M535 646 L536 645 L538 646 L537 647 Z M793 645 L794 644 L795 645 L794 646 Z M533 645 L534 644 L536 645 L535 646 Z M795 644 L796 643 L798 644 L797 645 Z M531 644 L532 643 L534 644 L533 645 Z M797 643 L798 642 L801 643 L800 644 Z M528 643 L529 642 L532 643 L531 644 Z M742 698 L743 695 L776 729 L783 734 L795 740 L806 743 L827 743 L828 742 L832 742 L842 739 L853 734 L866 725 L876 716 L889 702 L899 689 L916 661 L911 666 L886 701 L869 719 L849 733 L836 738 L828 739 L827 740 L807 740 L795 737 L787 733 L778 727 L763 712 L758 704 L754 700 L751 700 L743 693 L743 691 L747 686 L749 687 L764 670 L777 658 L796 647 L818 641 L843 642 L855 645 L876 653 L879 653 L886 656 L899 659 L915 658 L927 654 L929 655 L912 676 L892 704 L869 728 L854 739 L842 745 L825 750 L804 751 L803 750 L798 750 L790 748 L778 743 L769 737 L755 723 L750 716 Z M800 642 L801 641 L803 642 L802 643 Z M803 641 L804 640 L807 641 L806 642 Z M522 641 L526 640 L529 642 L526 643 Z M400 660 L402 659 L409 661 L418 661 L419 660 L430 659 L450 652 L457 648 L487 641 L502 640 L503 641 L516 642 L534 648 L554 660 L575 679 L577 684 L578 682 L581 684 L588 692 L580 697 L557 720 L541 731 L532 735 L523 736 L522 737 L502 737 L501 736 L493 735 L475 728 L454 714 L442 704 Z M806 640 L807 639 L811 640 L810 641 Z M519 640 L520 639 L523 640 L522 641 Z M810 639 L811 638 L815 638 L816 639 L815 640 L811 640 Z M815 638 L816 637 L823 637 L824 636 L844 637 L864 642 L887 652 L884 653 L854 642 L841 640 L840 639 L832 639 L831 638 L816 639 Z M520 639 L519 640 L508 639 L507 638 L483 639 L473 642 L469 642 L427 657 L421 657 L420 658 L405 658 L404 657 L405 656 L412 656 L413 655 L418 655 L430 652 L465 639 L473 637 L478 637 L479 636 L502 635 L503 636 L515 637 Z M617 624 L618 623 L619 624 L618 625 Z M723 620 L724 619 L725 620 L724 621 Z M232 619 L235 613 L239 609 L242 608 L243 609 L243 615 L248 619 L265 619 L266 618 L282 619 L282 618 L274 618 L272 616 L276 613 L284 610 L288 614 L289 621 L287 628 L276 628 L253 634 L243 634 L236 631 L234 629 L232 625 Z M274 604 L274 607 L276 608 L276 606 Z M975 561 L976 560 L977 561 L976 562 Z M382 492 L383 491 L385 494 L387 505 L392 520 L402 542 L418 566 L433 581 L445 590 L460 598 L476 604 L486 606 L507 613 L525 622 L547 638 L565 657 L570 665 L569 666 L560 657 L543 645 L528 638 L507 633 L475 634 L463 637 L424 651 L416 652 L415 653 L409 653 L408 654 L397 654 L390 642 L386 629 L383 609 L382 608 L382 602 L381 601 L380 584 L379 583 L378 529 L379 528 L379 516 L380 515 L380 506 L381 505 Z M925 489 L927 493 L927 498 L928 499 L929 514 L930 515 L930 527 L931 528 L931 583 L930 584 L930 595 L929 596 L929 604 L928 605 L928 612 L927 613 L925 629 L921 643 L916 653 L914 655 L898 653 L866 640 L847 635 L842 635 L841 634 L819 634 L818 635 L813 635 L805 637 L788 644 L774 653 L760 666 L759 664 L770 649 L792 628 L816 614 L843 605 L862 596 L876 586 L888 574 L899 559 L911 536 L921 508 L924 495 L924 490 Z M1023 441 L1024 442 L1037 443 L1048 447 L1056 454 L1059 459 L1061 466 L1062 481 L1061 482 L1061 493 L1060 494 L1059 510 L1058 511 L1057 523 L1056 524 L1053 547 L1051 553 L1051 558 L1049 564 L1049 569 L1048 570 L1048 575 L1047 576 L1047 581 L1044 594 L1043 608 L1041 613 L1041 622 L1040 623 L1043 620 L1045 606 L1047 605 L1050 608 L1054 617 L1055 631 L1051 641 L1047 645 L1041 648 L1027 648 L1014 644 L1002 637 L1001 638 L998 633 L998 625 L999 622 L1002 619 L1020 629 L1030 632 L1036 631 L1042 627 L1042 625 L1040 625 L1034 629 L1025 628 L1002 616 L1002 611 L1003 610 L1004 596 L1005 595 L1008 576 L1012 560 L1014 556 L1014 553 L1022 529 L1029 512 L1038 497 L1045 490 L1044 488 L1037 494 L1031 503 L1024 517 L1019 532 L1017 535 L1004 581 L1002 597 L1001 598 L1001 604 L1000 605 L1000 614 L995 626 L995 632 L998 639 L996 653 L998 651 L999 644 L1001 640 L1017 648 L1029 651 L1035 651 L1036 652 L1034 665 L1033 666 L1033 672 L1031 678 L1031 683 L1029 688 L1029 693 L1028 694 L1028 698 L1027 699 L1027 703 L1026 704 L1026 708 L1020 734 L1020 739 L1017 750 L1017 755 L1016 756 L1016 761 L1013 774 L1013 780 L1012 781 L1010 805 L1009 806 L1008 830 L1007 831 L1007 891 L1008 892 L1008 917 L1009 918 L1009 946 L1006 956 L998 964 L987 968 L967 968 L956 963 L950 957 L947 951 L945 944 L946 921 L954 887 L956 883 L957 876 L959 872 L964 852 L964 848 L969 829 L976 791 L981 771 L983 767 L985 755 L990 741 L990 736 L995 722 L994 719 L997 715 L1002 700 L1004 706 L1005 718 L1006 718 L1007 710 L1008 709 L1007 704 L1005 701 L1003 686 L1000 678 L998 677 L1001 687 L1001 695 L998 707 L993 717 L994 719 L992 721 L980 767 L979 766 L979 758 L980 757 L980 718 L978 715 L978 712 L979 711 L981 716 L983 718 L985 718 L982 713 L982 704 L990 692 L996 678 L996 674 L989 672 L985 668 L984 658 L983 657 L985 612 L986 611 L987 590 L988 589 L988 581 L989 580 L991 559 L992 558 L992 553 L993 552 L993 547 L997 532 L997 528 L1009 492 L1017 476 L1025 464 L1032 457 L1041 452 L1044 452 L1045 450 L1038 451 L1029 456 L1018 469 L1007 490 L998 515 L998 518 L996 522 L991 542 L991 547 L990 548 L988 565 L987 566 L987 573 L986 574 L984 604 L983 605 L983 616 L982 617 L982 639 L981 640 L982 660 L981 661 L977 648 L976 627 L975 626 L976 591 L978 584 L978 574 L980 566 L980 558 L981 557 L981 550 L982 549 L985 516 L986 515 L987 504 L992 483 L997 468 L1006 452 L1015 443 L1019 441 Z M567 468 L568 470 L568 478 L572 489 L570 481 L570 476 L569 475 L570 461 L575 450 L584 442 L592 438 L607 433 L628 430 L629 429 L650 428 L651 427 L691 427 L692 428 L705 428 L706 429 L715 429 L716 430 L736 432 L737 433 L750 435 L765 440 L771 444 L778 451 L782 458 L783 462 L782 484 L785 473 L785 463 L783 456 L780 450 L770 441 L753 434 L745 433 L735 430 L715 428 L714 427 L705 427 L704 426 L690 426 L689 425 L638 426 L637 427 L629 427 L628 428 L612 430 L595 435 L590 438 L588 438 L575 447 L570 455 Z M433 408 L436 398 L440 390 L453 376 L464 370 L472 368 L480 368 L483 369 L485 372 L474 381 L471 387 L471 398 L477 410 L483 416 L490 421 L510 430 L512 429 L516 423 L522 417 L538 405 L555 396 L572 390 L594 386 L595 385 L608 384 L609 383 L618 383 L619 382 L632 382 L633 381 L698 381 L699 382 L712 382 L713 383 L722 383 L723 384 L731 384 L732 385 L749 387 L778 395 L797 404 L806 410 L819 422 L825 431 L827 431 L837 421 L841 413 L843 405 L842 395 L838 386 L826 374 L826 371 L828 369 L835 368 L846 371 L858 378 L869 389 L874 397 L878 408 L879 428 L878 429 L877 439 L871 455 L861 473 L850 488 L824 514 L776 551 L757 570 L742 590 L729 614 L725 619 L724 617 L727 610 L729 597 L732 588 L738 577 L737 576 L723 575 L712 570 L706 565 L697 552 L693 540 L692 527 L691 526 L692 501 L697 480 L707 461 L714 454 L726 447 L734 445 L747 445 L758 449 L765 455 L767 459 L768 471 L761 486 L741 504 L739 509 L739 513 L743 520 L750 523 L756 523 L766 519 L778 508 L786 497 L793 482 L795 474 L795 469 L796 468 L795 454 L793 447 L785 434 L771 423 L748 414 L730 411 L729 410 L723 410 L722 409 L704 408 L703 407 L691 407 L690 406 L647 406 L646 407 L633 407 L632 408 L616 409 L591 415 L575 423 L562 435 L557 443 L553 456 L553 474 L557 488 L562 498 L569 508 L581 519 L591 525 L600 525 L607 519 L609 515 L609 504 L605 495 L587 474 L583 466 L583 459 L588 453 L597 448 L604 446 L622 446 L635 451 L641 455 L652 466 L659 479 L661 486 L661 490 L662 491 L662 519 L659 532 L653 547 L645 559 L633 570 L618 578 L609 579 L613 591 L613 605 L614 606 L615 614 L618 621 L617 624 L609 614 L601 600 L588 582 L570 563 L547 546 L515 529 L497 518 L476 502 L461 487 L449 471 L438 449 L433 431 Z M430 414 L431 432 L435 447 L446 470 L459 488 L477 506 L490 516 L512 530 L544 547 L566 563 L583 580 L593 593 L609 618 L622 631 L623 630 L621 627 L616 611 L616 596 L615 595 L614 586 L612 582 L620 580 L636 571 L643 565 L653 552 L661 534 L664 521 L664 514 L665 513 L664 491 L661 480 L655 469 L649 461 L640 453 L633 449 L621 445 L616 445 L615 444 L598 445 L589 449 L582 455 L580 461 L580 465 L582 471 L586 477 L602 495 L606 503 L607 512 L605 517 L598 523 L591 522 L580 515 L570 505 L562 493 L557 480 L556 470 L555 469 L555 460 L559 445 L565 435 L572 428 L579 423 L591 417 L614 411 L628 410 L629 409 L641 409 L642 408 L692 408 L693 409 L704 409 L705 410 L722 411 L723 412 L734 413 L751 417 L760 420 L772 426 L780 432 L786 439 L790 446 L793 456 L793 473 L787 490 L777 505 L768 514 L760 519 L757 520 L749 520 L747 519 L742 514 L742 509 L744 505 L762 489 L765 485 L770 474 L771 461 L767 453 L761 448 L753 444 L743 443 L742 442 L732 443 L725 445 L714 451 L704 461 L695 478 L690 497 L689 514 L688 515 L689 533 L693 549 L700 562 L709 571 L718 576 L724 578 L729 578 L733 580 L728 592 L723 616 L717 631 L721 628 L730 617 L739 600 L748 586 L765 565 L787 545 L824 517 L851 490 L867 467 L877 446 L881 431 L881 413 L880 412 L880 408 L878 401 L870 387 L860 377 L853 372 L844 368 L835 367 L834 366 L827 367 L824 370 L824 374 L836 386 L839 392 L841 405 L839 413 L836 419 L826 429 L818 418 L808 409 L796 401 L779 393 L767 389 L746 385 L745 384 L740 384 L739 383 L733 383 L725 381 L715 381 L714 380 L703 380 L702 379 L681 379 L680 378 L651 378 L650 379 L616 380 L615 381 L607 381 L606 382 L594 383 L593 384 L571 388 L554 394 L535 404 L523 413 L510 427 L508 427 L498 423 L488 417 L478 407 L474 400 L473 396 L474 386 L476 382 L480 378 L483 377 L487 372 L486 369 L481 366 L467 367 L461 369 L451 375 L442 384 L434 398 Z M915 361 L932 377 L940 388 L948 404 L954 424 L955 437 L956 438 L956 447 L957 448 L957 466 L958 467 L958 558 L959 559 L959 582 L960 583 L961 614 L962 615 L962 624 L963 625 L963 634 L964 635 L964 644 L965 645 L965 653 L966 654 L966 662 L967 663 L969 685 L970 686 L972 701 L974 705 L974 709 L978 720 L977 763 L976 764 L976 774 L975 775 L975 783 L973 790 L972 802 L971 803 L964 842 L955 878 L951 889 L951 893 L949 897 L944 918 L944 923 L943 924 L942 937 L943 938 L943 945 L945 952 L948 958 L955 965 L960 968 L958 973 L957 985 L956 986 L953 1021 L952 1022 L952 1029 L951 1030 L951 1037 L950 1038 L948 1055 L942 1077 L936 1088 L927 1097 L920 1101 L908 1104 L898 1104 L897 1103 L888 1102 L879 1098 L867 1087 L861 1076 L857 1063 L855 1049 L851 1040 L849 1038 L849 1036 L856 1028 L863 1023 L871 1020 L878 1020 L889 1025 L895 1034 L897 1042 L897 1055 L896 1056 L896 1063 L894 1071 L894 1084 L898 1092 L904 1096 L907 1097 L914 1097 L915 1095 L907 1095 L903 1093 L900 1090 L897 1084 L896 1073 L897 1072 L897 1065 L898 1064 L899 1050 L900 1049 L899 1038 L895 1028 L888 1021 L881 1018 L869 1018 L861 1021 L849 1029 L822 1053 L810 1061 L796 1067 L788 1069 L773 1070 L772 1069 L765 1069 L764 1068 L750 1066 L740 1063 L729 1062 L728 1061 L705 1061 L694 1064 L674 1076 L663 1077 L657 1075 L643 1065 L630 1061 L605 1062 L604 1063 L599 1063 L586 1067 L582 1067 L577 1069 L571 1069 L570 1070 L552 1070 L551 1069 L542 1068 L531 1064 L518 1057 L502 1045 L482 1027 L466 1016 L456 1011 L444 1007 L428 1006 L427 1007 L419 1008 L411 1012 L403 1020 L397 1034 L397 1063 L394 1074 L390 1081 L381 1090 L372 1094 L365 1095 L365 1096 L371 1096 L382 1092 L393 1081 L399 1066 L399 1060 L400 1059 L399 1039 L400 1038 L400 1033 L404 1023 L409 1017 L419 1011 L426 1009 L440 1009 L453 1013 L455 1015 L449 1018 L445 1022 L441 1029 L432 1064 L428 1073 L421 1083 L408 1094 L400 1098 L390 1101 L383 1101 L382 1102 L360 1101 L353 1099 L342 1093 L334 1085 L328 1076 L320 1056 L311 1018 L311 1013 L310 1012 L310 1007 L307 994 L307 988 L306 987 L306 981 L305 980 L305 974 L303 967 L314 963 L325 953 L331 943 L336 927 L337 902 L336 901 L336 892 L335 891 L334 878 L333 877 L330 853 L329 852 L329 842 L328 841 L330 803 L331 802 L331 793 L332 792 L335 766 L341 740 L346 725 L354 708 L361 698 L369 690 L375 686 L384 682 L398 682 L400 683 L401 681 L422 706 L439 722 L447 728 L445 729 L433 726 L413 727 L395 733 L381 742 L369 754 L360 767 L350 789 L345 808 L344 820 L343 821 L343 845 L344 846 L345 858 L351 879 L363 908 L370 929 L374 950 L375 951 L376 965 L377 966 L377 979 L378 980 L377 1037 L376 1038 L376 1050 L375 1051 L374 1067 L373 1068 L372 1079 L369 1088 L370 1090 L374 1077 L376 1058 L377 1057 L377 1049 L378 1048 L378 1037 L379 1036 L379 1021 L380 1020 L380 980 L379 979 L379 968 L378 967 L378 959 L377 958 L376 947 L371 926 L351 873 L346 852 L346 845 L345 844 L345 823 L346 822 L347 809 L354 784 L361 769 L369 757 L383 743 L398 734 L414 729 L419 729 L420 728 L435 728 L447 731 L449 729 L455 734 L474 744 L485 748 L498 751 L520 752 L521 751 L533 750 L546 746 L558 740 L573 728 L582 716 L587 706 L591 692 L588 689 L581 676 L565 653 L541 630 L526 620 L508 611 L477 601 L474 601 L450 590 L437 581 L418 562 L407 546 L396 524 L386 492 L386 487 L384 480 L384 452 L389 432 L390 433 L390 441 L391 442 L391 448 L394 461 L399 474 L407 487 L418 498 L432 506 L454 512 L472 521 L487 535 L496 549 L516 551 L529 555 L541 561 L554 570 L571 587 L586 608 L597 629 L606 657 L608 673 L609 674 L609 697 L608 698 L608 704 L607 705 L606 713 L598 733 L589 746 L575 760 L555 773 L529 786 L513 799 L506 808 L499 822 L495 837 L494 855 L493 857 L495 857 L496 840 L501 822 L505 813 L512 803 L521 794 L534 785 L559 773 L577 761 L590 748 L599 735 L604 725 L608 713 L609 705 L610 704 L610 698 L611 697 L611 673 L610 672 L609 660 L606 651 L607 647 L622 661 L618 662 L616 664 L619 670 L624 676 L638 687 L653 694 L664 697 L678 697 L679 696 L687 695 L697 691 L708 684 L718 673 L721 668 L721 666 L722 665 L723 666 L720 688 L708 698 L700 703 L687 709 L679 711 L661 711 L643 706 L623 694 L614 686 L613 683 L614 688 L625 697 L618 702 L617 705 L617 715 L622 727 L627 734 L637 754 L644 774 L644 778 L647 788 L647 794 L648 795 L648 821 L647 822 L647 827 L642 842 L636 854 L631 873 L631 887 L632 888 L633 897 L635 901 L634 893 L633 892 L633 872 L636 860 L644 844 L650 825 L651 797 L650 796 L649 783 L642 759 L630 734 L621 719 L619 712 L620 704 L624 700 L628 700 L644 709 L653 712 L662 713 L663 714 L676 714 L677 713 L682 713 L698 707 L710 699 L714 703 L715 708 L714 709 L713 717 L698 743 L691 763 L690 771 L688 776 L688 781 L687 782 L687 790 L686 791 L686 823 L687 824 L687 830 L688 831 L689 839 L700 868 L700 874 L701 875 L701 897 L699 900 L698 899 L698 896 L693 880 L685 863 L674 852 L665 852 L660 855 L649 869 L639 893 L633 919 L633 925 L632 926 L623 909 L613 899 L606 894 L594 889 L584 888 L583 887 L572 888 L563 891 L549 900 L539 911 L532 922 L515 956 L502 974 L490 985 L481 991 L467 998 L461 999 L461 1000 L473 1002 L474 1003 L484 1003 L485 1002 L492 1002 L493 1001 L501 1000 L517 993 L535 979 L541 977 L547 978 L557 984 L548 969 L544 956 L543 940 L544 939 L545 930 L547 926 L547 924 L546 924 L542 936 L538 964 L532 977 L527 982 L515 991 L498 998 L487 999 L486 1000 L470 1000 L469 999 L475 997 L488 990 L506 974 L520 953 L536 921 L543 911 L555 899 L568 892 L577 891 L578 890 L585 890 L597 893 L611 901 L623 914 L629 926 L628 927 L615 918 L600 914 L588 915 L575 921 L568 928 L564 936 L561 949 L562 965 L569 984 L581 997 L586 1000 L592 1002 L601 1002 L610 998 L619 991 L623 997 L636 1008 L651 1014 L664 1015 L665 1016 L681 1014 L695 1008 L709 995 L712 990 L725 1000 L731 1002 L743 1002 L749 999 L758 989 L765 974 L768 962 L768 955 L769 954 L768 939 L763 927 L755 919 L745 915 L732 915 L714 922 L709 926 L708 925 L716 910 L728 898 L739 892 L747 890 L760 891 L766 893 L774 898 L791 916 L815 958 L828 976 L845 993 L853 999 L864 1005 L863 1006 L857 1006 L836 999 L814 988 L805 982 L798 975 L794 968 L794 965 L792 961 L791 947 L790 946 L789 935 L786 923 L785 923 L785 925 L786 926 L787 940 L788 941 L787 955 L783 968 L774 983 L786 979 L796 980 L819 994 L841 1004 L859 1009 L880 1010 L879 1008 L872 1006 L851 994 L830 974 L817 956 L803 930 L787 906 L775 895 L766 890 L760 888 L749 887 L748 888 L742 888 L732 892 L716 905 L711 912 L706 922 L706 924 L705 925 L703 923 L702 913 L699 903 L700 901 L701 902 L701 898 L703 893 L703 876 L702 875 L702 870 L699 858 L693 843 L690 830 L690 822 L689 821 L689 791 L690 790 L691 776 L696 756 L698 753 L699 748 L717 714 L717 710 L718 709 L717 702 L711 697 L719 690 L721 693 L721 707 L722 708 L723 717 L727 730 L734 744 L741 754 L756 768 L764 773 L796 788 L811 800 L819 811 L825 826 L827 834 L827 841 L828 842 L828 857 L829 857 L829 840 L828 839 L828 833 L827 832 L826 824 L824 818 L815 802 L805 792 L798 787 L766 772 L753 763 L743 753 L733 738 L726 720 L724 706 L723 705 L723 681 L724 680 L724 673 L725 672 L726 662 L729 650 L737 628 L751 602 L766 582 L778 570 L793 559 L805 553 L814 550 L828 548 L829 544 L836 532 L850 518 L866 509 L873 507 L883 502 L890 497 L899 488 L908 475 L916 455 L918 442 L919 441 L919 434 L920 433 L922 434 L923 442 L924 443 L924 450 L925 451 L925 472 L924 473 L924 482 L923 483 L922 493 L917 509 L917 512 L909 534 L901 550 L892 564 L885 573 L874 584 L862 593 L841 603 L817 611 L798 621 L782 633 L761 656 L752 670 L745 685 L740 692 L740 699 L742 703 L742 706 L749 720 L755 728 L767 739 L776 745 L787 750 L799 753 L805 753 L806 754 L825 753 L842 748 L856 741 L869 731 L870 732 L874 732 L875 731 L888 730 L905 734 L920 743 L932 756 L940 770 L944 781 L947 793 L947 799 L948 800 L948 810 L949 811 L948 840 L947 841 L944 861 L942 865 L940 875 L934 889 L933 894 L926 909 L916 939 L916 943 L912 958 L911 975 L910 976 L909 1040 L910 1041 L910 1061 L911 1062 L912 1083 L913 1084 L913 1090 L914 1093 L915 1093 L914 1080 L913 1079 L912 1040 L911 1039 L911 999 L912 998 L912 978 L913 977 L914 958 L915 957 L915 952 L919 935 L926 914 L941 878 L947 857 L949 842 L950 841 L950 834 L951 833 L951 808 L950 807 L948 788 L944 774 L939 763 L932 752 L917 738 L903 731 L895 729 L878 729 L877 730 L873 730 L872 729 L893 707 L916 675 L936 650 L936 648 L929 652 L920 655 L917 654 L923 643 L927 631 L929 616 L930 615 L930 609 L931 608 L931 601 L932 600 L933 575 L934 574 L933 527 L932 526 L932 516 L931 515 L930 500 L926 485 L927 453 L926 452 L925 440 L920 424 L919 424 L919 429 L918 430 L917 443 L912 461 L906 474 L896 488 L890 494 L880 501 L862 508 L847 517 L834 531 L826 546 L816 547 L803 551 L793 556 L780 565 L760 585 L746 605 L735 626 L729 643 L710 660 L701 666 L688 672 L680 674 L673 674 L672 675 L657 674 L643 670 L630 664 L611 650 L604 643 L602 635 L594 619 L594 617 L579 593 L572 584 L558 570 L546 561 L533 554 L522 550 L514 549 L513 548 L498 547 L487 531 L472 518 L458 511 L433 504 L419 496 L406 482 L398 467 L393 450 L392 437 L391 436 L391 425 L390 425 L385 438 L383 454 L382 455 L382 480 L383 484 L381 489 L379 508 L378 509 L378 517 L377 518 L377 530 L376 531 L376 573 L377 574 L377 588 L378 589 L378 596 L379 597 L379 604 L380 605 L382 621 L386 633 L386 636 L394 652 L391 653 L379 648 L379 650 L390 667 L401 681 L400 682 L394 680 L386 680 L371 686 L359 697 L352 707 L342 729 L334 759 L332 775 L331 776 L331 782 L330 783 L330 792 L329 793 L328 820 L326 826 L325 825 L324 810 L323 809 L323 803 L322 802 L322 796 L321 795 L321 789 L319 782 L319 776 L317 770 L315 749 L314 748 L314 740 L313 739 L313 720 L318 705 L321 688 L323 683 L325 668 L329 652 L330 641 L332 635 L336 602 L337 601 L337 593 L338 592 L339 576 L340 575 L340 565 L341 564 L341 553 L342 552 L342 540 L343 539 L346 461 L347 460 L347 452 L348 451 L348 444 L349 443 L350 433 L356 413 L367 393 L374 384 L384 374 L401 361 L420 351 L437 345 L451 343 L452 342 L459 342 L460 341 L475 341 L476 342 L485 342 L486 343 L501 345 L505 347 L512 348 L516 350 L519 350 L523 352 L530 353 L534 355 L550 359 L574 362 L575 363 L595 364 L596 365 L613 365 L614 366 L681 366 L682 365 L701 365 L702 364 L714 364 L715 363 L724 363 L725 362 L733 362 L734 361 L753 359 L783 352 L787 350 L790 350 L813 343 L829 341 L830 340 L839 340 L840 339 L865 340 L866 341 L871 341 L893 348 Z M336 293 L337 292 L338 293 L337 294 Z M337 292 L338 291 L339 292 L338 293 Z M546 290 L547 289 L548 290 L547 291 Z M961 288 L962 287 L963 288 L962 289 Z M742 283 L743 282 L747 283 L746 284 Z M456 279 L453 279 L452 282 Z M858 277 L858 279 L860 279 Z M548 289 L563 282 L565 282 L580 273 L599 264 L616 259 L626 258 L627 257 L638 257 L639 256 L667 257 L668 258 L684 260 L709 268 L726 276 L743 282 L742 283 L724 283 L723 282 L652 282 L651 283 L629 283 L628 284 L597 285 L596 286 L585 286 L584 287 L556 289 L555 290 L549 290 Z M965 293 L966 296 L975 308 L989 324 L998 338 L1006 354 L1011 368 L1015 384 L1016 396 L1017 397 L1017 405 L1018 406 L1018 438 L1005 449 L999 458 L993 471 L989 483 L985 504 L984 505 L981 530 L980 531 L978 557 L976 560 L975 559 L975 551 L976 550 L975 534 L976 533 L977 435 L976 434 L975 416 L970 395 L961 374 L950 358 L935 343 L927 337 L917 331 L899 323 L893 322 L889 320 L885 320 L879 318 L872 318 L871 317 L841 317 L840 318 L822 319 L821 320 L814 320 L813 321 L806 321 L805 322 L798 322 L797 323 L790 323 L789 324 L771 325 L770 326 L762 326 L761 327 L751 327 L750 328 L739 328 L738 329 L725 329 L724 330 L682 331 L681 332 L612 332 L611 331 L588 331 L587 330 L571 330 L570 329 L547 328 L546 327 L519 325 L518 324 L511 324 L510 323 L503 323 L502 322 L495 322 L494 321 L487 321 L486 320 L478 320 L477 319 L447 319 L446 320 L440 320 L439 321 L434 321 L421 324 L400 332 L384 341 L368 353 L355 366 L343 383 L334 402 L329 420 L327 439 L326 440 L326 452 L325 453 L324 538 L323 539 L323 557 L322 558 L321 580 L320 581 L319 599 L318 600 L317 616 L316 617 L316 624 L315 625 L313 644 L309 659 L306 665 L303 668 L302 666 L304 661 L305 560 L304 559 L303 533 L302 532 L300 515 L293 491 L287 479 L282 472 L275 465 L268 461 L257 460 L257 461 L268 464 L274 468 L282 477 L292 496 L298 519 L300 543 L301 544 L301 559 L302 560 L301 663 L299 670 L296 674 L294 675 L289 669 L288 669 L288 673 L295 689 L301 698 L304 709 L303 715 L307 713 L311 706 L313 699 L313 693 L309 684 L306 681 L297 676 L302 673 L310 664 L314 652 L316 638 L317 637 L318 623 L320 615 L320 607 L321 606 L323 569 L324 568 L324 553 L325 552 L328 440 L329 439 L329 432 L330 431 L331 421 L337 400 L346 382 L356 368 L370 354 L379 347 L393 338 L410 330 L430 324 L434 324 L440 322 L447 322 L448 321 L476 321 L477 322 L503 324 L504 325 L526 327 L527 328 L535 328 L536 329 L569 331 L570 332 L585 332 L586 333 L605 333 L606 334 L688 334 L689 333 L708 333 L709 332 L726 332 L727 331 L751 330 L752 329 L771 328 L772 327 L798 325 L806 323 L831 321 L832 320 L842 320 L843 319 L870 319 L871 320 L884 321 L901 326 L923 337 L934 345 L948 359 L956 370 L966 390 L973 417 L974 437 L975 438 L975 491 L974 492 L974 566 L975 567 L975 580 L974 581 L973 609 L972 610 L973 641 L974 642 L974 648 L978 663 L980 667 L989 675 L983 680 L978 690 L978 696 L977 697 L978 699 L978 707 L979 708 L978 712 L976 708 L976 704 L973 695 L970 666 L969 665 L969 657 L968 656 L968 647 L967 646 L967 639 L966 638 L965 619 L964 618 L963 588 L962 587 L962 566 L961 565 L960 457 L959 456 L959 443 L958 442 L957 428 L951 405 L942 387 L934 376 L921 363 L909 354 L886 343 L872 339 L860 338 L859 337 L836 337 L835 338 L816 340 L800 344 L796 346 L789 347 L785 349 L778 350 L774 352 L757 356 L747 357 L746 358 L724 360 L723 361 L713 361 L712 362 L675 363 L674 364 L618 364 L617 363 L599 363 L598 362 L586 362 L585 361 L568 360 L567 359 L551 357 L531 352 L524 349 L521 349 L498 342 L480 340 L479 339 L450 340 L424 347 L405 356 L394 363 L384 371 L372 383 L363 395 L354 412 L353 417 L350 423 L347 440 L346 441 L345 456 L344 457 L344 469 L343 470 L340 547 L339 548 L339 560 L338 561 L336 589 L335 590 L330 631 L329 632 L329 637 L325 654 L325 659 L321 676 L320 686 L313 714 L310 718 L311 720 L311 747 L312 748 L312 755 L313 756 L313 762 L314 763 L316 780 L317 781 L319 797 L320 798 L320 805 L321 806 L324 833 L325 834 L327 853 L328 854 L328 859 L329 860 L329 865 L332 878 L332 884 L333 885 L333 891 L334 892 L335 916 L334 917 L333 930 L330 939 L321 954 L314 960 L302 965 L287 966 L275 963 L268 957 L266 952 L266 935 L267 934 L267 926 L268 925 L269 911 L270 910 L272 880 L273 879 L273 863 L274 862 L273 809 L272 808 L272 798 L271 797 L271 789 L270 788 L267 760 L266 759 L260 718 L259 717 L255 690 L254 689 L248 637 L249 636 L262 635 L276 631 L283 631 L284 632 L284 638 L283 639 L283 647 L281 655 L282 655 L284 651 L287 632 L290 629 L291 626 L291 614 L286 608 L287 606 L287 573 L286 572 L285 554 L284 553 L284 548 L283 547 L283 542 L281 537 L280 529 L277 520 L267 502 L258 493 L253 490 L250 490 L267 507 L276 526 L276 529 L279 537 L281 552 L282 553 L282 560 L283 561 L284 607 L265 615 L259 615 L258 616 L247 616 L246 615 L244 596 L243 595 L239 563 L238 562 L238 556 L237 555 L237 549 L236 548 L236 540 L235 539 L235 526 L234 525 L235 494 L236 493 L238 474 L240 468 L246 461 L250 459 L266 457 L277 452 L288 457 L299 469 L305 481 L310 498 L312 513 L313 514 L314 536 L315 537 L315 582 L314 583 L314 591 L312 596 L312 602 L311 603 L311 608 L309 616 L312 611 L317 590 L317 585 L318 584 L318 535 L317 534 L317 523 L316 522 L314 503 L307 478 L299 464 L289 454 L283 451 L275 449 L275 414 L276 413 L276 406 L277 405 L278 394 L281 382 L286 367 L295 348 L305 333 L323 313 L334 297 L365 279 L415 253 L430 243 L432 243 L441 234 L458 263 L472 278 L480 284 L490 289 L509 294 L518 294 L519 295 L539 294 L540 293 L558 292 L559 291 L567 291 L568 290 L576 290 L577 289 L587 289 L588 288 L598 288 L599 287 L629 286 L630 285 L653 285 L654 284 L715 284 L716 285 L736 285 L737 286 L764 287 L765 288 L774 288 L775 289 L791 290 L792 291 L815 291 L829 287 L836 283 L851 269 L859 257 L870 234 L879 242 L909 258 L936 275 L951 283 Z M709 157 L710 156 L711 157 L710 158 Z M646 73 L647 72 L648 73 L647 74 Z M962 286 L960 288 L957 285 L954 284 L948 279 L926 265 L880 239 L877 236 L875 237 L870 233 L884 203 L884 201 L889 192 L889 190 L921 125 L924 116 L921 116 L921 118 L914 131 L914 133 L878 208 L869 231 L867 232 L859 226 L847 222 L827 222 L826 223 L842 223 L850 225 L859 229 L862 232 L865 232 L868 234 L861 247 L859 253 L849 268 L839 278 L827 285 L813 289 L795 289 L794 288 L788 288 L780 286 L764 285 L741 279 L721 271 L714 267 L687 258 L683 258 L672 255 L665 255 L664 254 L630 254 L629 255 L617 256 L597 262 L578 271 L576 273 L553 285 L530 292 L512 292 L491 287 L473 277 L465 269 L452 250 L444 234 L446 232 L449 232 L453 229 L464 224 L468 223 L485 223 L486 224 L487 223 L486 222 L479 222 L478 221 L464 222 L451 227 L447 231 L443 233 L417 184 L406 167 L380 121 L378 120 L377 123 L417 189 L441 233 L439 235 L433 237 L428 242 L406 255 L369 274 L340 292 L338 291 L345 276 L350 261 L355 240 L359 208 L360 207 L361 192 L362 191 L367 127 L369 119 L373 113 L378 111 L384 112 L397 119 L412 130 L445 163 L501 233 L521 251 L530 256 L539 258 L553 240 L570 208 L570 206 L574 199 L574 197 L585 172 L599 131 L611 104 L619 92 L628 83 L638 76 L644 73 L647 74 L638 85 L633 95 L629 109 L629 131 L634 146 L638 152 L647 161 L662 169 L670 170 L671 171 L686 171 L692 169 L674 169 L662 166 L652 161 L640 150 L634 139 L631 127 L631 113 L632 112 L633 103 L641 85 L655 71 L658 73 L660 79 L664 83 L657 91 L652 101 L651 109 L650 110 L650 121 L655 136 L665 147 L676 153 L689 156 L699 156 L707 154 L708 155 L706 159 L709 160 L709 164 L712 169 L712 175 L715 187 L720 199 L730 215 L754 242 L767 253 L779 260 L789 255 L799 248 L818 229 L836 205 L873 151 L895 124 L912 108 L921 104 L924 104 L928 106 L934 115 L938 130 L949 234 L950 235 L950 240 L951 241 L951 246 L952 247 L955 267 L960 283 Z M647 72 L648 71 L649 72 L648 73 Z M660 68 L662 67 L676 67 L688 70 L702 78 L713 90 L719 105 L719 124 L718 125 L718 130 L715 143 L713 147 L709 151 L704 151 L699 153 L687 153 L679 151 L667 145 L657 134 L653 122 L654 104 L659 92 L665 86 L670 84 L682 84 L694 89 L699 93 L708 104 L713 116 L713 120 L715 122 L714 112 L712 106 L706 96 L699 89 L691 84 L683 81 L669 81 L668 82 L662 76 L659 70 Z M927 102 L920 101 L911 105 L890 125 L870 150 L834 203 L815 228 L799 244 L785 254 L780 256 L774 254 L762 245 L742 225 L731 211 L722 196 L717 183 L715 175 L715 170 L714 169 L714 148 L717 145 L719 140 L720 131 L721 130 L721 123 L722 122 L722 105 L721 104 L721 100 L719 94 L713 84 L702 74 L689 67 L677 64 L661 64 L660 65 L652 66 L637 73 L631 77 L617 90 L610 100 L602 116 L592 144 L590 147 L584 166 L582 169 L581 174 L569 201 L569 203 L562 216 L562 218 L548 242 L537 255 L525 250 L518 245 L499 226 L448 162 L412 126 L395 114 L381 108 L376 108 L372 110 L367 116 L364 127 L364 133 L363 134 L361 168 L360 169 L360 178 L359 179 L359 188 L358 189 L355 221 L354 222 L351 244 L344 270 L332 295 L323 308 L301 333 L292 347 L283 366 L276 389 L274 404 L273 405 L273 411 L272 412 L272 423 L271 424 L272 450 L263 456 L259 456 L258 457 L257 456 L249 456 L245 458 L239 464 L236 470 L235 478 L234 479 L234 485 L233 486 L232 508 L231 509 L232 510 L231 511 L231 525 L232 526 L232 539 L233 540 L234 556 L235 557 L236 570 L237 571 L238 583 L239 584 L240 596 L241 597 L241 605 L237 607 L231 614 L229 619 L229 625 L231 630 L235 634 L246 637 L245 639 L246 640 L246 654 L247 655 L248 670 L249 671 L249 677 L251 684 L253 702 L256 713 L256 718 L258 724 L258 729 L259 730 L259 735 L260 736 L260 741 L263 754 L263 760 L264 761 L264 767 L265 768 L265 774 L267 782 L267 789 L268 790 L269 810 L270 811 L270 827 L271 828 L270 876 L269 877 L269 888 L268 889 L267 908 L266 909 L262 947 L265 958 L272 965 L287 969 L296 969 L297 968 L301 969 L308 1019 L318 1060 L320 1063 L323 1073 L330 1085 L341 1096 L350 1101 L366 1105 L384 1105 L385 1104 L390 1104 L398 1102 L409 1097 L415 1093 L425 1083 L429 1077 L436 1061 L439 1049 L439 1044 L441 1039 L441 1035 L444 1027 L452 1019 L456 1017 L459 1018 L460 1017 L475 1031 L484 1047 L492 1072 L492 1076 L496 1092 L496 1097 L497 1098 L500 1125 L501 1126 L503 1153 L504 1154 L504 1166 L505 1167 L506 1198 L508 1204 L513 1208 L517 1209 L518 1208 L522 1208 L530 1203 L540 1193 L550 1178 L559 1160 L566 1139 L569 1126 L569 1121 L570 1120 L571 1096 L572 1095 L576 1096 L578 1095 L612 1095 L617 1092 L620 1092 L626 1095 L638 1095 L639 1096 L687 1096 L688 1095 L699 1095 L708 1091 L717 1095 L741 1095 L742 1094 L746 1094 L747 1095 L747 1112 L748 1113 L748 1119 L749 1120 L751 1133 L758 1153 L766 1169 L778 1187 L792 1202 L801 1208 L808 1208 L810 1207 L814 1200 L818 1147 L819 1146 L819 1140 L820 1139 L820 1133 L821 1132 L821 1126 L822 1125 L825 1104 L827 1099 L828 1090 L833 1074 L833 1071 L839 1054 L845 1042 L848 1039 L852 1047 L854 1060 L855 1061 L855 1066 L861 1083 L868 1093 L875 1099 L885 1104 L897 1107 L914 1106 L925 1102 L931 1098 L939 1089 L945 1078 L948 1069 L949 1061 L951 1056 L951 1051 L952 1050 L953 1038 L954 1037 L957 1005 L958 1004 L958 996 L959 995 L959 987 L960 986 L960 979 L961 978 L962 970 L965 969 L970 971 L988 971 L995 969 L1002 965 L1007 960 L1011 952 L1011 947 L1012 946 L1012 918 L1011 917 L1011 890 L1010 889 L1010 833 L1011 832 L1011 818 L1012 817 L1013 796 L1014 795 L1014 788 L1015 787 L1015 781 L1016 780 L1016 774 L1017 773 L1020 750 L1021 749 L1023 734 L1024 733 L1027 713 L1031 697 L1031 692 L1035 676 L1035 671 L1037 665 L1038 652 L1041 650 L1046 649 L1053 643 L1056 638 L1058 631 L1058 623 L1057 622 L1056 614 L1051 605 L1047 601 L1047 592 L1049 586 L1049 581 L1050 580 L1050 575 L1053 563 L1054 552 L1055 551 L1059 523 L1060 522 L1061 509 L1062 508 L1063 492 L1064 491 L1064 467 L1061 457 L1052 446 L1041 441 L1026 439 L1020 437 L1021 436 L1020 397 L1019 396 L1019 390 L1018 389 L1016 375 L1010 356 L995 327 L968 293 L960 273 L956 257 L953 233 L952 232 L952 226 L951 225 L948 189 L947 188 L947 179 L946 178 L946 169 L945 168 L944 151 L943 150 L943 143 L942 142 L940 124 L934 108 Z" fill="#eef3f4" fill-rule="evenodd"/>
</svg>
