<svg xmlns="http://www.w3.org/2000/svg" width="1254" height="1254" viewBox="0 0 1254 1254">
  <title>0280</title>
  <path d="M476 1102 L477 1101 L478 1102 L477 1103 Z M782 1094 L783 1093 L784 1094 L783 1095 Z M784 1088 L785 1087 L786 1088 L785 1089 Z M461 1082 L462 1081 L463 1082 L462 1083 Z M797 1079 L798 1078 L799 1079 L798 1080 Z M477 1087 L502 1070 L513 1065 L515 1063 L544 1052 L560 1049 L565 1047 L577 1046 L578 1045 L597 1044 L598 1043 L629 1042 L630 1043 L656 1044 L657 1045 L675 1047 L680 1049 L692 1051 L707 1056 L721 1063 L723 1063 L747 1077 L762 1084 L776 1088 L784 1088 L785 1089 L779 1094 L768 1093 L745 1086 L711 1071 L683 1061 L662 1056 L657 1056 L650 1054 L641 1054 L640 1053 L602 1053 L601 1054 L592 1054 L591 1055 L570 1058 L554 1063 L551 1063 L525 1073 L500 1086 L491 1092 L483 1091 Z M461 1070 L462 1066 L466 1060 L475 1052 L488 1043 L509 1032 L511 1032 L521 1027 L529 1025 L532 1023 L558 1016 L574 1014 L575 1013 L581 1013 L582 1012 L604 1011 L605 1010 L641 1010 L642 1011 L664 1012 L665 1013 L671 1013 L672 1014 L678 1014 L679 1015 L694 1017 L710 1021 L714 1023 L717 1023 L739 1031 L760 1041 L788 1059 L794 1066 L796 1070 L796 1075 L795 1078 L789 1084 L786 1085 L770 1084 L761 1081 L715 1057 L696 1050 L675 1045 L665 1044 L664 1043 L647 1042 L646 1041 L629 1041 L628 1040 L625 1041 L614 1040 L613 1041 L597 1041 L596 1042 L577 1043 L576 1044 L565 1045 L564 1046 L543 1050 L528 1055 L512 1063 L510 1063 L496 1071 L484 1080 L475 1084 L471 1084 L467 1082 L463 1078 Z M433 998 L441 998 L444 1000 L443 1001 L444 1000 L446 1002 L472 1049 L472 1051 L465 1057 L460 1064 L459 1076 L462 1081 L461 1082 L452 1079 L440 1069 L435 1062 L428 1047 L424 1031 L424 1015 L427 1004 Z M816 995 L823 998 L828 1003 L831 1009 L833 1017 L833 1034 L832 1035 L832 1039 L829 1050 L824 1060 L819 1067 L807 1077 L799 1079 L798 1078 L799 1071 L795 1062 L786 1054 L774 1047 L773 1045 L796 1002 L806 996 Z M801 995 L802 994 L803 995 L802 996 Z M439 994 L440 993 L441 994 L440 995 Z M807 984 L808 983 L809 984 L808 985 Z M808 983 L809 982 L810 983 L809 984 Z M839 979 L848 987 L852 996 L853 1007 L854 1008 L852 1025 L845 1047 L839 1059 L832 1069 L817 1084 L805 1091 L796 1094 L784 1094 L783 1093 L789 1089 L795 1082 L800 1082 L811 1077 L821 1068 L830 1053 L835 1036 L835 1016 L833 1008 L829 1001 L824 996 L818 993 L807 993 L804 995 L802 994 L810 986 L825 978 L836 978 Z M412 978 L417 976 L422 976 L428 978 L434 983 L440 993 L437 995 L434 995 L428 999 L424 1006 L422 1013 L423 1037 L426 1048 L433 1063 L437 1069 L449 1080 L461 1085 L470 1086 L483 1093 L485 1095 L476 1099 L465 1099 L455 1095 L448 1090 L434 1076 L424 1062 L410 1034 L405 1019 L405 1015 L403 1009 L403 994 L407 983 Z M426 974 L427 973 L428 974 L427 975 Z M525 931 L526 930 L529 931 L528 932 Z M416 927 L417 926 L418 927 L417 928 Z M401 924 L402 923 L406 924 L423 934 L438 945 L453 958 L471 976 L484 991 L497 1008 L511 1029 L494 1037 L475 1049 L473 1047 L450 1004 L415 950 Z M400 923 L401 922 L402 923 L401 924 Z M831 922 L832 921 L833 922 L832 923 Z M852 918 L828 949 L802 987 L784 1018 L772 1041 L772 1043 L770 1045 L749 1033 L731 1026 L736 1017 L754 993 L773 972 L789 957 L810 940 L832 925 L849 917 Z M515 916 L520 911 L528 911 L537 914 L554 923 L543 928 L531 929 L523 926 L517 920 Z M717 914 L717 918 L712 925 L707 928 L699 930 L687 929 L666 922 L681 914 L698 908 L710 908 L714 910 Z M959 900 L960 899 L961 900 L960 901 Z M484 874 L485 873 L486 874 L485 875 Z M831 923 L817 932 L783 959 L755 988 L733 1017 L731 1022 L728 1025 L700 1016 L696 1016 L680 1012 L675 1012 L674 1011 L668 1011 L667 1010 L648 1009 L647 1008 L598 1008 L597 1009 L588 1009 L587 1010 L580 1010 L579 1011 L573 1011 L572 1012 L556 1014 L525 1023 L515 1027 L513 1029 L498 1005 L476 978 L443 946 L425 934 L418 928 L422 926 L429 926 L443 922 L455 915 L471 898 L484 875 L485 876 L486 896 L489 907 L494 917 L504 928 L517 934 L535 933 L559 925 L574 932 L586 935 L599 936 L600 937 L616 937 L617 936 L624 936 L625 935 L630 935 L642 932 L659 925 L666 925 L700 935 L708 935 L709 936 L717 935 L729 930 L734 926 L743 913 L747 901 L748 889 L749 888 L749 878 L747 870 L748 867 L762 897 L770 908 L778 915 L789 921 L800 924 L819 924 L820 923 L827 923 L828 922 Z M746 866 L747 865 L748 866 L747 867 Z M662 838 L663 837 L664 838 L663 839 Z M663 837 L664 836 L665 837 L664 838 Z M664 836 L665 835 L666 836 L665 837 Z M665 835 L666 834 L667 835 L666 836 Z M556 835 L557 834 L558 836 L557 837 Z M666 834 L667 833 L668 834 L667 835 Z M667 833 L668 832 L669 833 L668 834 Z M550 833 L551 832 L552 833 L551 834 Z M549 832 L550 831 L551 832 L550 833 Z M548 831 L549 830 L550 831 L549 832 Z M524 821 L520 821 L506 827 L494 836 L481 850 L461 877 L442 895 L432 901 L416 907 L390 911 L379 915 L373 919 L364 928 L358 939 L358 942 L356 946 L355 961 L356 962 L357 974 L362 989 L375 1013 L395 1040 L419 1064 L420 1063 L412 1056 L387 1027 L373 1006 L366 992 L360 976 L359 967 L358 966 L358 950 L359 949 L360 941 L365 931 L369 926 L379 918 L393 913 L399 913 L400 912 L415 910 L427 906 L445 896 L461 881 L485 849 L501 833 L514 824 Z M725 806 L726 805 L730 806 L729 807 Z M520 806 L521 805 L523 806 L522 807 Z M523 805 L524 804 L525 805 L524 806 Z M339 781 L340 780 L341 782 L340 783 Z M553 779 L554 778 L555 779 L554 780 Z M343 757 L344 756 L345 758 L344 759 Z M433 751 L434 750 L443 759 L461 785 L471 795 L480 801 L498 807 L515 807 L516 806 L520 807 L516 809 L507 810 L506 811 L493 811 L481 808 L473 804 L466 799 L456 788 L443 765 Z M432 750 L433 749 L434 750 L433 751 Z M431 749 L432 748 L433 749 L432 750 Z M430 748 L431 747 L432 748 L431 749 Z M429 747 L430 746 L431 747 L430 748 Z M428 746 L429 745 L430 746 L429 747 Z M434 742 L435 741 L436 742 L435 743 Z M958 712 L959 711 L960 712 L959 713 Z M539 711 L540 710 L541 712 L540 713 Z M695 706 L696 705 L697 707 L696 708 Z M367 736 L381 730 L388 730 L389 729 L399 730 L412 735 L423 743 L433 754 L443 769 L453 787 L467 802 L477 808 L490 812 L498 812 L499 813 L511 812 L526 807 L541 796 L550 785 L551 782 L553 780 L554 781 L553 811 L554 812 L554 819 L557 831 L556 835 L549 826 L540 821 L535 821 L534 820 L533 821 L537 821 L542 823 L549 830 L548 831 L539 826 L535 825 L525 825 L512 830 L503 837 L495 847 L491 854 L488 863 L486 865 L472 892 L463 904 L452 914 L441 920 L425 924 L411 924 L400 919 L396 920 L395 922 L397 929 L406 939 L427 972 L426 974 L419 973 L412 975 L405 982 L401 993 L401 1010 L402 1011 L403 1020 L408 1035 L423 1065 L435 1081 L445 1091 L457 1099 L462 1101 L476 1102 L477 1103 L473 1116 L473 1134 L479 1156 L486 1167 L486 1165 L484 1163 L484 1161 L480 1154 L475 1134 L475 1117 L478 1105 L481 1100 L490 1096 L509 1084 L541 1069 L567 1061 L571 1061 L582 1058 L595 1057 L596 1056 L605 1056 L606 1055 L635 1055 L636 1056 L637 1055 L638 1056 L647 1056 L648 1057 L654 1057 L655 1058 L670 1060 L702 1070 L724 1080 L726 1080 L733 1084 L754 1092 L771 1096 L776 1096 L777 1097 L792 1097 L797 1106 L800 1118 L800 1134 L799 1135 L799 1141 L797 1149 L795 1153 L795 1155 L796 1155 L801 1139 L802 1119 L801 1118 L801 1112 L799 1105 L794 1097 L802 1095 L813 1090 L820 1085 L832 1073 L841 1060 L848 1046 L853 1031 L853 1027 L856 1016 L855 998 L850 986 L845 980 L838 976 L827 975 L826 976 L822 976 L810 983 L809 981 L843 933 L849 927 L851 927 L855 924 L855 921 L858 916 L857 914 L853 913 L843 917 L839 917 L823 921 L814 921 L813 922 L798 921 L784 916 L778 912 L767 900 L747 859 L736 844 L731 839 L717 830 L709 827 L699 826 L698 825 L685 826 L678 828 L670 833 L668 832 L674 827 L682 823 L693 820 L712 820 L724 823 L736 829 L745 836 L754 846 L764 863 L776 880 L786 890 L802 900 L819 905 L826 905 L827 906 L866 906 L874 909 L880 913 L887 920 L892 927 L899 942 L902 954 L902 961 L903 962 L903 976 L902 977 L902 985 L901 986 L900 996 L895 1013 L891 1023 L882 1041 L875 1051 L875 1053 L881 1045 L892 1025 L892 1023 L896 1016 L902 996 L902 992 L904 986 L904 979 L905 978 L905 959 L904 958 L903 947 L899 935 L894 925 L884 913 L876 907 L864 903 L843 903 L842 904 L838 903 L824 903 L823 902 L813 901 L798 895 L789 889 L777 877 L755 843 L743 831 L728 822 L714 818 L707 818 L706 817 L691 818 L678 822 L667 829 L659 838 L654 847 L650 863 L650 878 L651 879 L652 887 L654 886 L652 879 L652 867 L655 855 L662 843 L672 834 L687 828 L703 828 L713 831 L724 837 L733 845 L739 853 L744 866 L745 878 L746 879 L745 896 L741 910 L735 920 L725 929 L713 933 L703 933 L702 932 L713 927 L718 922 L720 917 L719 911 L715 907 L709 905 L694 906 L683 910 L660 922 L645 928 L631 932 L618 933 L617 934 L598 934 L597 933 L590 933 L589 932 L581 931 L564 925 L537 911 L527 908 L518 909 L513 913 L513 917 L515 922 L520 927 L526 930 L525 931 L513 930 L506 926 L499 919 L491 904 L488 891 L488 874 L492 859 L497 849 L503 841 L512 833 L523 828 L533 827 L544 831 L552 839 L557 848 L560 859 L561 873 L560 874 L559 887 L561 886 L562 875 L563 874 L563 861 L562 860 L561 847 L557 838 L558 836 L560 838 L557 827 L556 812 L555 811 L556 782 L557 781 L558 770 L560 765 L560 761 L564 746 L564 740 L565 739 L566 707 L572 702 L580 698 L591 694 L605 692 L606 691 L630 691 L631 692 L636 692 L649 695 L659 699 L670 707 L669 731 L665 748 L659 764 L655 781 L655 787 L654 788 L654 810 L655 813 L656 813 L655 800 L656 799 L657 781 L660 768 L670 737 L672 740 L673 751 L679 770 L686 783 L697 795 L711 804 L725 809 L735 810 L736 811 L760 811 L761 810 L770 809 L790 801 L808 787 L806 787 L792 798 L780 804 L771 807 L762 808 L761 809 L754 809 L753 810 L737 809 L730 807 L731 806 L746 806 L747 805 L759 804 L770 801 L787 793 L801 783 L836 749 L849 740 L862 734 L865 734 L873 731 L882 731 L883 730 L895 731 L909 735 L925 744 L938 756 L949 773 L955 793 L955 799 L956 800 L956 809 L955 810 L949 789 L945 781 L936 768 L922 755 L904 746 L891 743 L872 743 L864 745 L864 746 L876 745 L877 744 L892 745 L904 748 L917 754 L924 759 L936 771 L948 792 L953 809 L955 828 L956 829 L957 854 L958 855 L957 856 L958 857 L958 886 L957 887 L957 899 L956 900 L956 908 L955 909 L954 918 L945 948 L937 965 L937 967 L917 1006 L876 1076 L850 1115 L838 1130 L815 1154 L792 1174 L764 1194 L747 1204 L721 1216 L697 1223 L682 1225 L681 1226 L665 1227 L664 1228 L653 1228 L652 1229 L602 1229 L601 1228 L591 1228 L590 1227 L584 1227 L583 1226 L567 1224 L536 1215 L514 1205 L493 1190 L471 1168 L449 1141 L420 1101 L393 1058 L376 1027 L376 1025 L368 1010 L368 1008 L364 1001 L354 976 L344 944 L341 927 L339 922 L339 917 L336 905 L335 890 L334 889 L334 880 L333 879 L332 840 L333 839 L334 815 L335 814 L337 797 L339 793 L340 787 L346 774 L352 765 L362 755 L369 750 L380 745 L388 744 L389 743 L402 743 L405 744 L404 742 L392 741 L391 742 L381 743 L367 749 L360 754 L352 762 L346 770 L341 780 L340 777 L342 773 L342 770 L348 757 L354 748 Z M322 680 L328 704 L329 728 L330 729 L330 750 L329 751 L329 776 L330 780 L329 781 L330 782 L330 796 L331 797 L332 812 L331 813 L331 823 L330 824 L330 834 L329 835 L326 832 L323 815 L322 814 L320 790 L319 789 L319 776 L318 775 L318 722 L319 721 L320 684 Z M564 696 L570 690 L576 686 L592 679 L600 677 L605 677 L606 676 L629 676 L648 681 L662 688 L668 694 L669 702 L668 703 L661 698 L652 694 L632 689 L605 689 L604 690 L594 691 L584 694 L572 700 L566 705 L565 704 L565 697 Z M556 675 L559 681 L562 692 L562 698 L564 706 L563 709 L564 711 L564 722 L563 723 L563 734 L562 735 L562 743 L561 744 L560 753 L555 770 L549 782 L537 795 L525 802 L522 802 L518 804 L499 805 L488 802 L478 797 L470 791 L460 780 L443 754 L437 748 L435 743 L437 742 L439 744 L453 751 L471 756 L495 756 L503 754 L512 750 L521 744 L529 736 L540 719 L549 700 Z M678 653 L679 652 L680 654 L679 655 Z M558 660 L568 650 L587 639 L599 635 L610 634 L611 633 L631 633 L651 638 L668 647 L680 658 L684 672 L678 680 L672 697 L670 694 L672 692 L676 677 L674 677 L669 690 L659 683 L648 678 L633 674 L627 674 L626 673 L609 673 L608 674 L602 674 L589 677 L572 685 L564 692 L561 680 L556 671 Z M880 629 L881 628 L882 629 L881 630 Z M881 628 L882 627 L883 628 L882 629 Z M425 630 L442 622 L449 622 L450 621 L464 622 L479 627 L495 637 L508 650 L516 662 L523 680 L524 693 L525 694 L524 709 L521 718 L512 731 L502 738 L493 741 L488 741 L487 742 L468 741 L458 738 L447 733 L438 727 L425 714 L418 704 L413 693 L409 679 L409 672 L408 671 L409 659 L412 648 L416 640 Z M806 621 L814 625 L827 635 L833 643 L839 657 L840 668 L841 669 L840 683 L835 699 L833 701 L833 703 L829 710 L820 721 L808 731 L791 740 L785 742 L777 743 L776 744 L770 744 L769 745 L758 745 L757 744 L747 743 L731 736 L719 724 L714 714 L711 703 L711 684 L712 683 L712 679 L716 666 L722 654 L727 647 L740 634 L747 629 L761 622 L776 618 L795 618 Z M379 619 L380 618 L381 619 L380 620 Z M898 594 L898 598 L894 610 L890 617 L881 626 L875 629 L867 631 L855 630 L826 619 L814 616 L809 616 L808 615 L800 615 L799 614 L779 615 L759 620 L747 626 L737 633 L723 648 L713 666 L708 686 L708 701 L712 716 L719 728 L727 736 L733 740 L745 745 L754 746 L755 747 L778 746 L797 740 L817 727 L824 720 L832 709 L839 694 L842 682 L842 662 L839 651 L835 643 L830 636 L820 627 L812 622 L801 618 L805 617 L806 618 L812 618 L824 621 L839 626 L847 630 L858 633 L869 633 L880 629 L881 630 L872 637 L870 640 L870 655 L869 656 L868 673 L867 674 L866 683 L861 698 L854 711 L846 722 L829 737 L809 748 L794 753 L780 755 L779 756 L755 756 L754 755 L749 755 L741 753 L727 747 L721 743 L709 731 L704 723 L699 709 L698 695 L697 694 L699 671 L705 652 L710 642 L717 632 L731 618 L742 611 L751 607 L765 603 L779 602 L780 601 L806 602 L807 603 L812 603 L813 604 L823 605 L839 609 L846 609 L847 610 L865 609 L878 605 L888 600 L897 593 Z M370 590 L371 589 L377 595 L388 603 L405 609 L425 610 L426 609 L433 609 L434 608 L447 607 L448 606 L466 606 L467 607 L477 608 L486 611 L498 617 L511 627 L523 641 L533 659 L537 672 L538 683 L539 684 L539 697 L538 698 L538 706 L537 707 L536 715 L530 729 L525 736 L515 745 L503 751 L491 754 L476 754 L475 753 L464 752 L448 746 L425 731 L407 712 L403 706 L395 689 L391 675 L390 663 L389 662 L389 641 L390 640 L391 631 L384 626 L380 620 L381 619 L390 624 L398 626 L407 626 L408 625 L413 625 L418 623 L428 622 L429 621 L436 621 L437 620 L441 621 L424 629 L414 640 L410 648 L407 658 L407 668 L406 669 L407 679 L413 699 L426 719 L438 730 L444 734 L459 741 L471 744 L490 744 L505 739 L510 736 L518 728 L524 717 L527 706 L527 687 L523 671 L518 660 L510 648 L497 635 L490 630 L476 623 L456 618 L435 618 L434 619 L427 619 L426 620 L422 620 L411 623 L405 623 L404 624 L393 623 L384 619 L378 613 L373 604 L370 594 Z M358 570 L368 585 L369 598 L374 613 L380 624 L389 632 L388 641 L387 642 L387 663 L388 664 L389 676 L395 695 L400 705 L410 720 L422 732 L433 740 L433 742 L436 745 L435 747 L428 741 L411 731 L397 727 L384 727 L373 730 L361 737 L350 749 L345 757 L344 756 L344 744 L345 743 L346 726 L347 725 L349 708 L350 707 L355 678 L360 658 L361 646 L362 645 L362 635 L363 634 L362 603 L361 602 L359 580 L357 575 L357 571 Z M356 568 L357 567 L358 569 L357 570 Z M352 541 L353 540 L361 551 L371 560 L377 564 L391 570 L399 572 L404 572 L405 573 L413 573 L414 574 L464 574 L465 575 L472 575 L473 576 L483 577 L497 581 L509 587 L511 587 L529 599 L541 612 L548 624 L553 637 L554 645 L555 646 L555 653 L556 654 L556 662 L555 663 L555 669 L554 670 L552 684 L548 697 L541 711 L540 710 L541 694 L542 693 L541 680 L535 658 L523 637 L512 625 L495 613 L489 610 L472 605 L449 604 L448 605 L441 605 L440 606 L427 607 L426 608 L410 608 L409 607 L401 606 L389 601 L378 593 L372 587 L364 576 L357 562 L353 550 Z M311 525 L313 531 L313 536 L315 542 L316 554 L319 567 L320 583 L321 584 L321 595 L322 596 L323 630 L324 631 L324 649 L323 650 L323 666 L322 667 L310 621 L310 616 L308 611 L307 599 L306 598 L305 579 L304 578 L305 548 L306 547 L306 541 L309 528 Z M347 520 L348 521 L347 525 L346 524 Z M923 516 L924 517 L923 538 L922 539 L922 545 L918 560 L909 577 L894 593 L880 602 L869 606 L859 607 L858 608 L839 607 L818 602 L799 600 L798 599 L778 599 L777 600 L760 602 L748 606 L736 612 L724 621 L718 627 L711 636 L702 653 L699 661 L696 673 L696 679 L695 680 L695 700 L696 701 L696 705 L695 706 L689 692 L689 696 L696 715 L703 728 L709 736 L715 742 L725 749 L742 756 L746 756 L752 758 L763 758 L764 759 L782 758 L805 752 L829 740 L838 733 L848 723 L861 703 L861 701 L866 691 L870 674 L871 657 L872 656 L872 642 L871 641 L887 626 L894 615 L899 601 L900 590 L909 581 L915 572 L920 561 L924 547 L925 548 L925 557 L924 558 L923 574 L922 575 L922 581 L921 582 L921 588 L920 589 L920 595 L918 603 L918 611 L917 612 L918 643 L924 664 L929 674 L935 683 L951 702 L958 718 L960 737 L959 738 L959 754 L958 755 L956 781 L955 782 L954 781 L953 776 L943 758 L928 743 L917 736 L905 731 L897 729 L892 729 L891 728 L877 728 L876 729 L871 729 L863 731 L844 740 L833 748 L797 783 L789 789 L771 798 L752 803 L734 804 L733 803 L719 802 L710 799 L699 793 L687 780 L680 766 L674 742 L674 736 L673 735 L673 713 L672 712 L672 706 L679 683 L684 675 L685 679 L687 680 L682 659 L683 638 L689 620 L699 603 L713 588 L727 578 L742 571 L760 566 L774 565 L775 564 L795 564 L796 565 L814 566 L815 567 L839 570 L840 571 L847 571 L848 572 L871 572 L886 568 L901 559 L911 548 L917 537 Z M1008 490 L1009 491 L1009 540 L1008 541 L1007 576 L1006 577 L1006 593 L1005 594 L1005 613 L1004 614 L1004 633 L1003 634 L1004 635 L1003 636 L1003 655 L1002 656 L1003 657 L1002 660 L1003 663 L1002 664 L1002 699 L1001 700 L1001 765 L1000 766 L999 844 L998 845 L997 873 L996 874 L995 888 L994 891 L991 894 L988 894 L981 892 L979 890 L980 889 L980 874 L981 873 L982 810 L983 809 L983 783 L984 782 L984 760 L985 759 L986 725 L987 724 L987 712 L988 711 L989 694 L995 668 L993 670 L990 681 L987 685 L985 685 L981 680 L980 672 L979 671 L978 627 L979 626 L980 598 L981 597 L982 582 L983 581 L983 576 L985 570 L987 555 L992 535 L994 531 L994 528 L996 524 L996 521 L1004 498 Z M482 417 L483 416 L484 418 L483 419 Z M481 415 L482 414 L483 415 L482 416 Z M751 404 L746 417 L737 430 L718 449 L697 464 L674 476 L658 482 L637 487 L621 488 L620 489 L590 489 L589 488 L574 487 L573 486 L556 483 L539 477 L525 470 L512 461 L496 445 L487 431 L483 421 L484 418 L491 431 L498 440 L513 455 L527 465 L548 475 L565 480 L581 482 L582 483 L608 484 L609 483 L628 482 L629 481 L634 481 L651 477 L666 472 L686 463 L708 449 L726 434 L738 421 L750 403 Z M750 402 L751 401 L752 403 L751 404 Z M751 400 L752 399 L753 400 L752 401 Z M922 502 L922 510 L921 511 L920 522 L912 542 L908 548 L897 559 L887 565 L874 569 L855 570 L854 569 L844 569 L843 568 L831 567 L830 566 L812 564 L811 563 L803 563 L802 562 L769 562 L768 563 L756 564 L740 569 L722 578 L710 587 L703 594 L690 612 L682 631 L680 639 L680 651 L678 653 L666 643 L646 634 L638 632 L632 632 L631 631 L610 631 L609 632 L599 633 L584 638 L570 646 L559 656 L558 655 L558 647 L557 646 L556 638 L551 624 L546 615 L535 601 L518 588 L499 579 L486 575 L471 573 L470 572 L461 572 L460 571 L409 571 L408 570 L402 570 L390 567 L372 558 L359 546 L351 533 L351 526 L350 525 L350 493 L351 492 L351 482 L352 481 L353 469 L359 447 L368 429 L373 422 L385 410 L394 404 L406 398 L418 394 L422 394 L428 392 L437 392 L438 391 L460 392 L476 396 L477 397 L477 406 L480 419 L489 438 L497 449 L509 461 L523 471 L541 480 L553 484 L574 489 L590 490 L591 491 L620 491 L621 490 L630 490 L631 489 L647 487 L670 480 L698 466 L720 450 L738 432 L746 421 L752 409 L756 394 L758 392 L770 391 L771 390 L782 390 L783 389 L803 389 L804 390 L812 390 L813 391 L823 392 L835 396 L838 396 L863 408 L877 418 L894 435 L905 451 L913 468 L918 483 L921 496 L921 501 Z M755 390 L756 389 L757 390 L756 391 Z M984 386 L985 387 L984 472 L987 478 L991 481 L994 482 L1007 482 L1008 483 L1001 499 L1001 502 L999 505 L990 534 L985 554 L982 573 L981 574 L978 602 L977 603 L976 636 L975 637 L975 643 L976 644 L976 666 L977 667 L978 678 L980 683 L984 687 L988 686 L989 689 L986 701 L985 719 L984 720 L984 734 L983 735 L983 753 L982 754 L982 772 L981 773 L981 802 L980 803 L980 831 L979 832 L980 834 L979 835 L979 860 L978 861 L978 890 L969 893 L963 898 L962 897 L963 898 L961 900 L960 899 L961 854 L960 853 L960 839 L959 838 L959 801 L958 800 L957 786 L958 785 L960 763 L961 762 L961 753 L962 752 L963 721 L962 720 L962 700 L961 699 L959 656 L958 655 L958 631 L957 630 L958 566 L959 565 L960 541 L961 540 L961 531 L962 530 L962 522 L963 521 L963 513 L964 512 L964 504 L965 503 L967 483 L968 482 L970 464 L973 452 L973 447 L976 435 L976 430 L977 429 L977 424 L980 411 L980 405 L981 404 L981 399 Z M985 381 L986 382 L985 386 L984 385 Z M476 384 L478 386 L476 394 L463 390 L456 390 L455 389 L433 389 L432 390 L426 390 L413 393 L391 403 L380 411 L373 418 L363 432 L354 453 L350 470 L349 482 L348 483 L347 518 L346 519 L345 518 L344 504 L343 503 L343 480 L344 479 L344 470 L345 469 L346 459 L353 436 L362 419 L370 409 L377 402 L388 394 L402 387 L418 382 L431 381 L432 380 L455 380 L456 381 L463 381 Z M903 322 L908 324 L916 332 L922 341 L930 360 L935 381 L935 387 L937 395 L937 407 L938 408 L937 410 L938 411 L938 427 L937 428 L937 444 L936 445 L935 464 L934 465 L934 471 L933 472 L931 490 L930 491 L928 486 L928 477 L930 469 L931 452 L932 451 L932 439 L933 438 L933 409 L932 408 L931 390 L930 389 L930 384 L926 367 L921 352 L914 338 L908 329 L902 323 Z M901 322 L902 321 L903 322 L902 323 Z M318 308 L325 308 L331 311 L348 326 L361 333 L368 335 L379 335 L380 336 L365 348 L351 367 L342 388 L338 409 L337 410 L337 417 L336 418 L336 458 L337 459 L337 469 L338 470 L339 482 L341 488 L341 504 L342 505 L345 529 L347 534 L347 538 L348 539 L348 543 L349 544 L349 548 L355 574 L357 592 L358 593 L359 615 L360 616 L360 635 L359 636 L359 647 L358 648 L357 660 L356 661 L354 675 L352 680 L352 684 L348 698 L348 703 L344 720 L342 745 L341 746 L341 766 L337 778 L336 790 L334 797 L333 796 L333 780 L332 779 L332 756 L333 755 L332 714 L331 713 L331 705 L330 704 L328 689 L323 674 L325 667 L325 659 L326 658 L325 602 L324 601 L324 591 L323 590 L323 581 L322 580 L320 557 L319 556 L318 545 L317 544 L315 530 L312 520 L311 508 L310 507 L308 482 L307 481 L307 471 L306 470 L306 459 L305 458 L305 444 L304 443 L304 392 L305 391 L305 377 L306 376 L306 364 L307 363 L307 352 L308 351 L309 326 L310 325 L311 317 L313 313 Z M973 289 L978 291 L987 301 L990 314 L990 324 L989 325 L989 336 L988 337 L986 358 L985 359 L983 377 L981 384 L981 390 L979 396 L979 401 L978 402 L978 407 L975 419 L975 425 L974 426 L974 431 L973 432 L973 437 L972 438 L972 443 L971 444 L971 449 L970 450 L970 455 L968 461 L967 473 L964 486 L964 492 L962 499 L961 514 L960 515 L960 522 L959 523 L959 532 L958 533 L957 554 L956 555 L955 590 L954 591 L955 593 L954 625 L955 626 L956 670 L957 671 L957 684 L958 685 L958 698 L959 699 L959 710 L958 711 L955 704 L949 695 L939 684 L932 674 L924 657 L921 645 L921 640 L920 639 L919 617 L920 616 L921 599 L922 598 L922 592 L923 591 L923 585 L924 584 L926 564 L927 563 L927 555 L928 554 L929 511 L930 510 L930 504 L932 499 L933 489 L935 483 L937 464 L938 463 L938 456 L939 455 L940 432 L941 431 L940 430 L941 429 L941 410 L940 409 L940 397 L939 396 L938 381 L931 354 L920 332 L913 324 L906 320 L924 311 L948 295 L961 289 Z M742 324 L751 339 L755 350 L756 359 L757 360 L756 380 L753 390 L747 403 L739 415 L726 430 L706 447 L691 457 L671 467 L648 475 L644 475 L629 479 L623 479 L622 480 L592 481 L591 480 L581 480 L580 479 L569 478 L548 472 L531 464 L515 453 L496 433 L490 424 L482 406 L480 398 L480 393 L479 392 L479 385 L478 384 L480 381 L482 369 L489 354 L501 337 L520 318 L538 304 L551 296 L569 287 L591 279 L608 275 L623 274 L624 273 L652 274 L653 275 L658 275 L671 278 L688 284 L711 296 L726 307 Z M579 229 L580 228 L581 229 L580 230 Z M339 410 L346 383 L354 366 L361 356 L378 339 L387 334 L391 330 L414 314 L438 302 L464 293 L477 291 L478 290 L483 290 L484 289 L491 289 L492 288 L522 287 L537 280 L546 274 L561 260 L570 248 L579 230 L580 234 L579 235 L578 245 L573 262 L569 270 L570 271 L578 253 L581 236 L582 235 L583 219 L584 218 L584 170 L583 169 L582 113 L581 112 L581 89 L580 88 L580 61 L581 60 L581 55 L585 44 L597 31 L610 25 L625 24 L638 29 L648 38 L654 49 L662 78 L663 87 L665 92 L673 136 L674 137 L674 142 L678 158 L678 163 L680 169 L682 186 L685 197 L685 202 L687 208 L690 228 L695 244 L695 247 L702 262 L702 264 L704 266 L694 236 L694 232 L690 216 L691 213 L700 230 L708 241 L719 253 L732 263 L750 272 L764 277 L836 294 L875 307 L885 312 L897 320 L905 328 L912 338 L917 347 L925 370 L927 383 L928 384 L928 389 L929 390 L930 405 L931 406 L931 442 L930 443 L930 454 L929 455 L929 464 L928 465 L928 473 L927 474 L925 470 L922 457 L915 443 L915 441 L902 422 L887 407 L865 392 L850 385 L827 378 L822 378 L821 377 L816 377 L815 376 L789 375 L788 376 L770 377 L762 379 L762 380 L768 380 L776 378 L789 378 L790 377 L802 377 L803 378 L813 378 L814 379 L825 380 L841 385 L844 385 L854 389 L871 398 L882 406 L899 422 L908 434 L916 448 L924 470 L926 485 L927 486 L927 492 L928 493 L928 508 L926 514 L925 513 L925 504 L924 503 L924 497 L923 496 L921 483 L913 461 L908 451 L894 431 L882 419 L863 405 L847 397 L821 389 L809 388 L808 387 L777 387 L776 388 L757 390 L756 389 L757 381 L758 380 L759 381 L758 380 L759 376 L759 357 L758 356 L758 352 L754 340 L749 330 L741 319 L728 306 L705 290 L681 279 L653 272 L624 271 L623 272 L614 272 L613 273 L602 274 L590 277 L568 285 L540 300 L526 310 L512 322 L494 342 L482 363 L478 376 L478 383 L477 384 L472 381 L464 380 L463 379 L457 379 L456 378 L429 378 L428 379 L417 380 L409 383 L406 383 L387 392 L377 399 L366 410 L357 423 L348 443 L343 463 L342 478 L341 479 L340 478 L339 462 L338 461 L338 442 L337 441 Z M617 21 L604 24 L591 32 L583 42 L579 52 L578 61 L577 62 L577 84 L578 85 L577 87 L578 88 L578 115 L579 116 L580 171 L581 172 L581 215 L578 226 L572 239 L562 254 L551 266 L535 278 L521 284 L492 285 L491 286 L478 287 L454 293 L440 298 L409 314 L385 332 L368 332 L361 330 L349 323 L336 311 L326 305 L318 305 L313 308 L310 312 L306 327 L304 365 L303 366 L302 390 L301 391 L301 445 L302 446 L302 460 L303 461 L303 470 L304 471 L305 491 L306 492 L307 507 L309 515 L306 531 L304 536 L303 547 L302 548 L301 580 L302 581 L302 590 L303 591 L303 598 L304 599 L306 616 L308 621 L308 625 L310 630 L310 634 L316 658 L319 666 L318 682 L317 683 L317 695 L316 696 L316 715 L315 716 L316 717 L315 719 L315 777 L316 778 L317 800 L318 801 L318 807 L319 808 L322 829 L324 834 L329 840 L329 866 L330 867 L330 879 L331 880 L331 890 L332 891 L333 906 L334 907 L339 936 L350 974 L352 977 L356 990 L365 1009 L365 1011 L380 1041 L405 1083 L447 1143 L478 1180 L498 1198 L510 1206 L528 1215 L548 1222 L551 1222 L567 1227 L584 1229 L585 1230 L592 1230 L593 1231 L602 1231 L603 1232 L649 1232 L650 1231 L663 1231 L664 1230 L680 1229 L681 1228 L702 1225 L706 1223 L719 1220 L729 1215 L731 1215 L755 1203 L777 1189 L798 1173 L814 1159 L833 1140 L855 1113 L882 1072 L884 1067 L916 1014 L944 959 L954 930 L958 909 L960 905 L967 898 L974 894 L979 894 L988 897 L992 897 L995 895 L997 891 L998 882 L999 881 L999 873 L1000 872 L1001 843 L1002 842 L1002 821 L1003 820 L1005 664 L1006 663 L1007 615 L1008 614 L1008 595 L1009 594 L1011 540 L1012 539 L1012 481 L1010 479 L994 479 L990 477 L987 472 L988 393 L989 392 L988 372 L989 371 L989 354 L990 353 L992 328 L993 327 L993 314 L992 313 L991 303 L984 292 L978 288 L972 286 L958 287 L938 298 L915 313 L906 317 L899 318 L889 311 L865 300 L840 292 L812 285 L808 285 L799 282 L795 282 L775 277 L771 275 L768 275 L764 273 L761 273 L748 268 L727 256 L707 235 L698 221 L690 204 L685 185 L685 180 L682 169 L680 153 L679 152 L676 132 L674 126 L674 121 L670 106 L669 97 L667 92 L666 83 L663 74 L661 62 L655 44 L649 35 L640 27 L628 22 Z" fill="#eef3f4" fill-rule="evenodd"/>
</svg>
