<svg xmlns="http://www.w3.org/2000/svg" width="1086" height="1448" viewBox="0 0 1086 1448">
  <title>0283</title>
  <path d="M560 1324 L561 1339 L562 1340 L563 1348 L568 1358 L576 1365 L568 1350 L562 1329 L562 1325 Z M531 1319 L525 1337 L525 1341 L522 1351 L518 1358 L512 1365 L515 1364 L523 1356 L526 1350 L530 1334 L530 1329 L531 1328 L531 1321 L532 1320 Z M571 1318 L572 1327 L575 1336 L578 1341 L585 1348 L595 1353 L582 1340 L574 1326 L573 1320 Z M524 1317 L522 1318 L520 1324 L511 1337 L500 1348 L494 1352 L493 1354 L495 1354 L506 1347 L515 1338 L522 1325 Z M579 1313 L582 1321 L586 1327 L592 1333 L610 1343 L608 1340 L591 1328 L584 1320 L580 1313 Z M516 1313 L514 1313 L512 1318 L503 1327 L494 1333 L476 1342 L476 1343 L488 1340 L502 1332 L511 1324 Z M584 1309 L584 1311 L588 1316 L599 1325 L612 1330 L620 1330 L618 1328 L609 1327 L599 1322 Z M509 1309 L499 1318 L491 1322 L482 1325 L468 1326 L468 1327 L470 1328 L482 1328 L493 1325 L500 1321 L506 1315 Z M592 1306 L596 1312 L606 1319 L615 1322 L627 1322 L630 1320 L629 1319 L628 1320 L617 1320 L611 1318 L600 1312 Z M502 1304 L500 1304 L495 1309 L482 1316 L471 1319 L464 1319 L464 1320 L476 1321 L486 1318 L497 1311 Z M598 1300 L603 1305 L611 1308 L625 1307 L636 1301 L635 1300 L624 1305 L610 1305 L604 1303 L600 1300 Z M494 1299 L492 1299 L485 1304 L477 1306 L471 1306 L457 1301 L466 1307 L472 1309 L480 1309 L488 1306 Z M443 1216 L446 1215 L450 1217 L464 1219 L479 1223 L497 1225 L498 1226 L516 1227 L517 1228 L540 1228 L541 1229 L584 1227 L585 1226 L603 1225 L604 1224 L618 1223 L619 1222 L641 1219 L647 1238 L645 1240 L633 1245 L624 1247 L619 1243 L619 1245 L622 1247 L621 1248 L600 1253 L588 1254 L587 1255 L564 1256 L563 1257 L518 1256 L517 1255 L509 1255 L508 1254 L502 1254 L501 1253 L486 1251 L466 1246 L452 1240 L454 1233 L453 1224 L448 1218 Z M442 1215 L443 1214 L444 1215 L443 1216 Z M664 1211 L665 1215 L661 1222 L653 1231 L648 1234 L644 1224 L644 1219 Z M429 1209 L439 1213 L441 1216 L445 1217 L449 1221 L452 1226 L452 1234 L449 1239 L441 1234 L434 1227 L429 1217 L428 1213 Z M707 1193 L705 1206 L701 1215 L697 1221 L685 1232 L679 1236 L663 1243 L657 1243 L651 1239 L650 1236 L662 1224 L667 1215 L667 1210 L669 1208 L705 1192 Z M385 1191 L387 1190 L402 1198 L425 1207 L428 1220 L433 1229 L431 1231 L418 1229 L412 1227 L399 1220 L392 1213 L388 1206 L385 1198 Z M371 1204 L372 1203 L372 1198 L375 1192 L378 1189 L382 1188 L383 1189 L382 1190 L382 1195 L384 1203 L389 1213 L396 1221 L402 1225 L418 1232 L437 1233 L448 1242 L466 1249 L486 1254 L502 1256 L503 1257 L519 1258 L520 1259 L537 1259 L538 1260 L577 1259 L578 1258 L587 1258 L588 1257 L599 1256 L625 1250 L640 1245 L649 1240 L654 1244 L662 1246 L658 1249 L630 1262 L596 1273 L588 1274 L578 1277 L564 1278 L563 1279 L534 1279 L533 1278 L525 1278 L524 1277 L508 1275 L473 1264 L452 1254 L450 1254 L423 1240 L408 1230 L407 1231 L410 1235 L416 1239 L463 1263 L499 1276 L517 1279 L518 1280 L533 1281 L534 1282 L561 1282 L562 1281 L570 1281 L571 1280 L582 1279 L599 1275 L627 1266 L661 1250 L689 1232 L699 1222 L706 1210 L709 1200 L709 1192 L711 1190 L713 1190 L717 1194 L720 1201 L720 1215 L716 1227 L708 1239 L700 1247 L686 1257 L675 1263 L673 1263 L656 1271 L644 1274 L634 1278 L631 1278 L621 1282 L618 1282 L611 1285 L608 1285 L590 1291 L578 1297 L566 1305 L551 1320 L546 1329 L544 1330 L538 1320 L522 1304 L512 1297 L491 1287 L474 1282 L471 1280 L460 1277 L457 1275 L434 1267 L417 1259 L399 1248 L390 1241 L382 1233 L377 1226 L372 1214 Z M600 1176 L601 1175 L602 1176 L601 1177 Z M426 1175 L427 1174 L428 1175 L427 1176 Z M427 1174 L428 1173 L429 1174 L428 1175 Z M428 1173 L429 1172 L430 1173 L429 1174 Z M315 1159 L316 1158 L317 1159 L316 1160 Z M771 1158 L772 1157 L773 1158 L772 1159 Z M313 1158 L314 1157 L315 1158 L314 1159 Z M772 1157 L773 1156 L774 1157 L773 1158 Z M312 1157 L313 1156 L314 1157 L313 1158 Z M496 1156 L494 1156 L494 1159 L490 1169 L487 1181 L486 1202 L482 1217 L486 1213 L488 1208 L489 1198 L490 1197 L490 1185 L491 1184 L491 1179 L492 1178 Z M311 1156 L312 1155 L313 1156 L312 1157 Z M486 1152 L483 1155 L477 1176 L471 1189 L456 1207 L455 1210 L469 1193 L470 1196 L465 1212 L468 1209 L482 1172 L484 1158 Z M587 1140 L588 1139 L590 1140 L589 1141 Z M589 1139 L590 1138 L600 1138 L601 1139 L600 1140 L590 1140 Z M601 1138 L602 1137 L608 1137 L609 1138 L608 1139 L602 1139 Z M501 1139 L505 1137 L508 1139 L507 1140 L502 1140 Z M481 1138 L482 1137 L501 1137 L502 1138 L501 1139 L482 1139 Z M610 1137 L611 1136 L615 1136 L616 1137 L615 1138 L611 1138 Z M591 1137 L592 1136 L593 1137 L592 1138 Z M502 1136 L503 1135 L504 1136 L503 1137 Z M316 1160 L318 1159 L323 1162 L335 1166 L351 1168 L352 1169 L369 1169 L370 1168 L377 1168 L378 1167 L388 1166 L405 1160 L418 1153 L432 1142 L445 1129 L453 1125 L463 1135 L472 1140 L480 1141 L481 1142 L502 1142 L516 1146 L523 1150 L520 1153 L520 1154 L524 1155 L523 1158 L517 1167 L511 1184 L511 1190 L509 1197 L509 1206 L508 1207 L508 1216 L507 1217 L507 1221 L508 1221 L511 1216 L512 1201 L513 1200 L513 1195 L515 1189 L515 1183 L516 1182 L517 1174 L525 1158 L525 1156 L528 1153 L532 1153 L538 1155 L546 1155 L547 1156 L564 1154 L571 1151 L580 1153 L580 1152 L575 1150 L583 1144 L592 1144 L600 1142 L621 1140 L631 1135 L641 1125 L650 1133 L656 1141 L671 1152 L688 1160 L701 1164 L705 1164 L710 1166 L717 1166 L718 1167 L742 1167 L743 1166 L749 1166 L757 1164 L770 1158 L772 1159 L756 1171 L740 1178 L716 1177 L688 1170 L690 1172 L701 1177 L714 1180 L730 1181 L731 1182 L714 1188 L712 1187 L708 1188 L689 1179 L687 1179 L672 1170 L657 1158 L649 1150 L637 1142 L653 1159 L669 1172 L694 1185 L704 1188 L705 1190 L692 1196 L684 1191 L670 1176 L670 1179 L673 1184 L680 1191 L686 1194 L689 1197 L678 1202 L675 1201 L662 1190 L653 1180 L638 1160 L629 1151 L624 1148 L653 1185 L667 1199 L674 1203 L666 1207 L654 1210 L648 1201 L635 1186 L613 1154 L612 1154 L611 1157 L617 1164 L629 1184 L637 1194 L654 1210 L641 1215 L637 1215 L631 1208 L625 1198 L623 1192 L621 1191 L620 1193 L623 1198 L623 1200 L630 1210 L635 1215 L630 1217 L620 1218 L618 1211 L613 1202 L605 1182 L602 1164 L599 1159 L595 1156 L598 1161 L601 1170 L601 1175 L600 1176 L593 1164 L589 1160 L589 1161 L595 1169 L601 1180 L610 1204 L619 1217 L614 1219 L610 1219 L604 1221 L597 1221 L596 1222 L594 1220 L590 1193 L586 1177 L580 1163 L578 1160 L576 1160 L581 1170 L583 1178 L583 1183 L584 1184 L585 1198 L590 1215 L593 1220 L592 1222 L589 1223 L581 1223 L580 1224 L571 1224 L570 1223 L570 1217 L567 1207 L565 1192 L561 1179 L559 1167 L557 1164 L557 1169 L559 1176 L559 1185 L561 1191 L562 1203 L568 1223 L567 1225 L537 1225 L536 1224 L538 1217 L538 1190 L539 1189 L540 1163 L538 1168 L537 1177 L535 1180 L535 1190 L534 1191 L534 1198 L533 1199 L533 1209 L534 1210 L535 1223 L536 1224 L535 1225 L523 1225 L522 1224 L502 1223 L500 1221 L505 1211 L504 1191 L505 1190 L506 1182 L507 1181 L508 1182 L508 1161 L509 1160 L508 1157 L506 1159 L506 1165 L505 1166 L505 1179 L501 1190 L502 1212 L498 1222 L487 1221 L481 1219 L461 1216 L441 1210 L440 1209 L447 1205 L455 1195 L464 1173 L467 1159 L470 1152 L475 1145 L469 1150 L465 1157 L463 1166 L459 1174 L453 1192 L445 1203 L438 1209 L425 1205 L420 1202 L429 1197 L438 1189 L443 1182 L452 1161 L461 1150 L450 1160 L442 1176 L435 1187 L422 1199 L416 1201 L411 1198 L412 1196 L410 1196 L408 1198 L403 1195 L401 1195 L399 1193 L411 1187 L413 1187 L426 1179 L432 1172 L431 1173 L429 1172 L440 1163 L447 1155 L455 1142 L451 1145 L447 1151 L432 1166 L425 1171 L415 1181 L395 1192 L383 1185 L379 1185 L377 1187 L375 1187 L374 1186 L365 1185 L355 1181 L356 1180 L382 1179 L404 1173 L420 1165 L442 1150 L445 1146 L436 1152 L432 1153 L417 1163 L405 1169 L397 1171 L394 1173 L390 1173 L380 1176 L373 1176 L372 1177 L361 1177 L360 1178 L347 1178 L343 1177 L329 1170 Z M620 1127 L620 1130 L614 1135 L602 1136 L601 1137 L593 1137 L592 1136 L602 1127 L611 1123 L615 1123 Z M475 1126 L479 1123 L485 1123 L492 1126 L503 1135 L502 1136 L484 1136 L480 1135 L475 1131 Z M507 1059 L508 1058 L509 1059 L508 1060 Z M590 1058 L591 1057 L592 1058 L591 1059 Z M633 1044 L633 1045 L637 1047 L645 1054 L655 1069 L660 1086 L661 1115 L664 1125 L668 1133 L672 1138 L682 1145 L670 1133 L665 1123 L664 1112 L663 1111 L663 1100 L664 1099 L663 1097 L663 1087 L659 1072 L650 1057 L641 1048 Z M621 1037 L609 1038 L600 1043 L592 1051 L583 1070 L582 1080 L585 1070 L590 1062 L598 1055 L607 1051 L619 1051 L625 1053 L630 1056 L638 1064 L645 1080 L645 1084 L646 1085 L646 1103 L642 1117 L639 1123 L626 1135 L620 1137 L616 1137 L615 1136 L620 1133 L622 1127 L619 1123 L615 1121 L609 1121 L597 1127 L581 1142 L569 1149 L558 1152 L538 1152 L530 1150 L520 1145 L509 1137 L497 1126 L488 1121 L479 1121 L473 1127 L474 1132 L478 1136 L481 1136 L482 1137 L481 1138 L472 1137 L464 1133 L455 1124 L451 1116 L449 1109 L449 1098 L450 1096 L448 1098 L447 1097 L447 1084 L450 1074 L456 1064 L465 1056 L473 1052 L477 1051 L491 1051 L503 1057 L511 1065 L517 1079 L516 1071 L512 1061 L505 1049 L493 1039 L482 1036 L481 1037 L470 1038 L460 1042 L449 1050 L441 1059 L433 1073 L430 1082 L430 1086 L428 1092 L428 1112 L427 1113 L426 1123 L423 1130 L418 1137 L410 1144 L407 1145 L406 1147 L414 1143 L421 1136 L426 1128 L430 1115 L431 1091 L435 1075 L443 1060 L454 1048 L462 1043 L472 1039 L486 1038 L495 1042 L505 1052 L508 1057 L506 1058 L502 1054 L494 1050 L487 1048 L481 1048 L480 1049 L475 1049 L466 1053 L455 1062 L446 1077 L444 1083 L444 1090 L443 1091 L444 1104 L450 1122 L441 1128 L427 1143 L418 1150 L401 1159 L390 1163 L376 1165 L375 1166 L356 1167 L355 1166 L346 1166 L326 1161 L312 1154 L303 1147 L304 1150 L311 1159 L328 1173 L347 1182 L371 1188 L374 1190 L371 1193 L368 1201 L368 1209 L371 1221 L380 1235 L397 1250 L413 1260 L432 1269 L452 1276 L455 1278 L466 1281 L469 1283 L486 1288 L503 1296 L505 1296 L527 1311 L538 1323 L540 1327 L538 1330 L538 1335 L537 1336 L537 1356 L540 1366 L544 1374 L541 1362 L541 1356 L540 1355 L540 1331 L541 1330 L543 1334 L543 1337 L545 1339 L548 1330 L550 1328 L551 1329 L550 1333 L550 1354 L552 1361 L556 1368 L555 1360 L554 1359 L554 1352 L553 1351 L553 1336 L552 1335 L551 1324 L566 1308 L580 1299 L593 1293 L624 1283 L627 1283 L637 1279 L640 1279 L666 1270 L683 1262 L697 1253 L712 1239 L722 1220 L723 1216 L723 1201 L720 1193 L717 1190 L719 1188 L722 1188 L743 1181 L759 1173 L766 1168 L776 1158 L783 1148 L782 1147 L771 1156 L755 1162 L747 1163 L746 1164 L739 1164 L738 1165 L721 1165 L720 1164 L703 1162 L693 1158 L690 1158 L673 1150 L664 1144 L653 1134 L649 1127 L643 1122 L649 1104 L649 1085 L646 1074 L639 1062 L633 1056 L627 1052 L619 1049 L607 1049 L600 1052 L592 1058 L591 1057 L593 1053 L602 1044 L613 1039 L623 1039 L624 1040 Z M593 998 L594 997 L595 998 L594 999 Z M497 996 L498 995 L499 996 L498 997 Z M815 994 L822 1005 L830 1012 L840 1018 L846 1020 L851 1020 L854 1022 L862 1044 L865 1057 L866 1071 L867 1072 L867 1095 L866 1096 L865 1108 L861 1121 L856 1131 L851 1138 L843 1145 L832 1151 L817 1154 L816 1153 L823 1142 L830 1121 L830 1117 L833 1106 L833 1100 L834 1099 L834 1089 L835 1088 L835 1071 L834 1070 L833 1050 L832 1049 L831 1037 L828 1026 L828 1021 L827 1017 L825 1015 L828 1035 L829 1036 L829 1042 L831 1050 L831 1061 L832 1062 L831 1105 L830 1106 L830 1112 L826 1129 L821 1143 L814 1154 L806 1154 L805 1153 L800 1153 L796 1151 L798 1148 L808 1119 L812 1097 L813 1096 L814 1084 L815 1083 L816 1061 L817 1060 L817 1026 L816 1025 L816 1011 L815 1010 L815 1000 L814 999 L814 995 Z M498 995 L499 994 L500 995 L499 996 Z M270 994 L271 995 L271 999 L270 1000 L270 1016 L269 1017 L269 1064 L270 1065 L270 1077 L271 1078 L272 1092 L273 1093 L274 1104 L275 1105 L278 1122 L286 1147 L289 1152 L285 1154 L271 1154 L270 1153 L271 1151 L262 1133 L257 1113 L256 1099 L255 1098 L254 1073 L255 1072 L255 1055 L256 1054 L257 1036 L258 1035 L258 1030 L261 1017 L260 1014 L256 1036 L255 1037 L253 1060 L252 1061 L252 1092 L253 1093 L254 1108 L259 1129 L267 1147 L271 1152 L270 1153 L262 1152 L250 1145 L242 1137 L238 1131 L231 1115 L228 1102 L227 1086 L226 1085 L226 1069 L227 1068 L228 1049 L234 1024 L243 1021 L252 1016 L261 1008 Z M607 993 L608 992 L609 993 L608 994 Z M590 991 L591 990 L592 991 L591 992 Z M485 990 L486 989 L487 990 L486 991 Z M499 989 L500 988 L502 989 L501 990 Z M602 979 L603 983 L608 992 L607 993 L597 989 L597 987 Z M876 979 L877 978 L879 979 L878 980 Z M493 977 L499 985 L492 989 L487 990 L486 989 L489 986 Z M535 974 L525 979 L518 986 L510 1001 L512 1001 L517 990 L521 985 L528 979 L533 977 Z M553 973 L555 975 L564 979 L574 989 L582 1002 L585 1004 L575 987 L567 979 L558 974 Z M640 961 L644 961 L647 964 L646 965 L647 964 L649 967 L642 974 L640 974 L636 971 L636 965 Z M455 961 L458 962 L461 965 L462 968 L460 973 L457 975 L451 974 L447 969 L448 965 Z M620 959 L621 958 L622 959 L621 960 Z M640 958 L637 959 L632 964 L631 966 L631 973 L637 980 L643 981 L650 976 L652 972 L652 966 L649 961 L644 958 Z M451 958 L447 960 L442 966 L442 973 L447 979 L451 981 L456 981 L460 979 L464 974 L464 965 L460 960 L456 958 Z M638 949 L645 949 L653 952 L660 960 L662 966 L662 973 L659 981 L652 988 L644 991 L638 991 L630 988 L624 982 L621 975 L621 966 L624 959 L630 953 Z M528 950 L527 954 L528 957 L531 959 Z M450 949 L456 949 L466 953 L471 958 L475 967 L475 973 L471 982 L464 988 L456 991 L450 991 L442 988 L435 981 L432 974 L433 963 L437 956 L442 952 Z M383 944 L384 943 L385 944 L384 945 Z M399 941 L400 940 L404 940 L405 941 L435 942 L450 946 L442 949 L433 957 L430 964 L430 969 L429 970 L430 971 L430 976 L433 983 L440 990 L444 992 L458 993 L467 989 L474 982 L477 975 L477 965 L473 958 L474 957 L478 959 L488 969 L490 973 L489 980 L486 986 L479 993 L472 996 L464 998 L455 998 L454 999 L446 999 L433 996 L422 990 L410 978 L406 972 L400 957 Z M702 938 L701 951 L690 977 L679 990 L670 997 L660 1002 L645 1006 L628 1006 L611 1002 L594 994 L592 992 L594 991 L603 995 L621 1000 L646 1000 L657 997 L672 989 L684 977 L691 966 L693 956 L700 938 L701 937 Z M689 938 L691 946 L691 953 L688 964 L681 977 L669 988 L657 994 L642 998 L625 998 L624 997 L620 997 L613 994 L609 990 L605 982 L604 978 L605 974 L610 967 L620 959 L621 962 L619 966 L619 976 L622 983 L626 988 L636 993 L646 993 L655 989 L660 984 L664 975 L664 964 L660 955 L656 951 L651 948 L644 946 L654 942 L662 941 L663 940 L679 939 L686 937 Z M387 937 L390 936 L397 939 L396 943 L394 945 L394 951 L397 960 L408 980 L419 991 L431 998 L442 1001 L463 1001 L481 996 L497 989 L500 990 L495 994 L482 1001 L467 1006 L445 1007 L430 1003 L413 992 L405 983 L399 974 L387 948 Z M698 934 L699 936 L694 946 L692 943 L691 937 Z M872 931 L879 931 L880 932 L875 937 L870 951 L871 965 L873 971 L877 977 L876 979 L869 977 L862 971 L859 965 L858 957 L857 956 L858 947 L861 940 L867 933 Z M531 937 L528 942 L528 947 L530 942 L535 937 L542 934 L553 935 L558 939 L561 945 L561 954 L558 960 L561 957 L563 953 L563 945 L559 938 L561 937 L559 934 L554 932 L544 931 L537 933 Z M207 930 L211 930 L218 933 L225 941 L228 949 L228 962 L225 970 L219 976 L209 980 L207 979 L212 973 L215 964 L215 951 L211 939 L204 932 Z M202 931 L203 930 L205 931 L204 932 Z M415 930 L416 929 L417 930 L416 931 Z M402 930 L403 929 L405 930 L404 931 Z M722 922 L723 923 L705 945 L702 933 Z M722 922 L723 921 L724 922 L723 923 Z M842 914 L846 915 L849 919 L848 924 L844 927 L841 926 L838 923 L838 918 Z M242 914 L246 917 L246 923 L244 926 L241 927 L236 923 L236 918 L239 915 Z M238 913 L234 918 L234 923 L237 927 L244 928 L248 924 L249 921 L248 917 L244 913 Z M843 912 L840 913 L836 917 L836 923 L839 927 L844 929 L848 927 L850 924 L850 917 L848 914 Z M583 911 L570 919 L556 923 L529 923 L528 922 L523 922 L513 918 L507 913 L514 920 L532 926 L528 928 L520 936 L518 941 L518 945 L519 945 L522 936 L527 931 L538 926 L553 926 L559 929 L563 933 L567 940 L568 944 L567 955 L565 959 L558 966 L548 969 L541 969 L540 968 L536 968 L530 965 L523 955 L523 945 L524 943 L522 943 L520 951 L521 952 L521 956 L524 962 L530 968 L538 971 L553 971 L562 966 L569 956 L570 953 L570 943 L566 934 L559 927 L555 925 L569 921 L576 917 Z M520 898 L521 897 L522 899 L521 900 Z M345 898 L346 897 L358 908 L374 919 L392 929 L403 933 L411 933 L412 934 L417 933 L420 934 L422 932 L447 931 L448 932 L458 933 L477 941 L491 954 L495 960 L505 982 L505 985 L503 987 L490 967 L481 958 L472 952 L460 946 L444 941 L434 940 L433 939 L403 938 L390 934 L378 928 L365 919 L351 906 Z M739 897 L736 903 L724 917 L716 923 L705 929 L703 929 L698 932 L686 935 L666 937 L665 938 L660 938 L638 945 L627 951 L615 959 L604 970 L594 989 L591 988 L589 989 L588 988 L596 972 L604 960 L617 946 L625 940 L638 933 L648 930 L660 929 L661 928 L687 927 L691 925 L694 925 L698 922 L707 921 L715 917 L731 904 L738 896 Z M343 895 L344 894 L346 897 L345 898 Z M740 893 L741 895 L739 897 L738 895 Z M342 894 L343 893 L344 894 L343 895 Z M740 893 L741 892 L742 893 L741 894 Z M341 893 L342 892 L343 893 L342 894 Z M741 891 L742 890 L743 891 L742 892 Z M533 889 L534 888 L535 889 L534 890 Z M237 876 L241 876 L245 880 L245 884 L241 888 L237 888 L233 883 L234 879 Z M843 874 L846 874 L850 879 L850 883 L845 887 L843 887 L838 881 L840 876 Z M237 874 L232 879 L232 886 L237 890 L241 890 L246 886 L247 880 L243 875 Z M843 872 L837 877 L836 881 L837 884 L840 887 L847 888 L851 885 L852 879 L851 876 L848 873 Z M498 872 L499 871 L500 873 L499 874 Z M605 863 L606 862 L607 864 L606 865 Z M609 858 L610 857 L611 858 L610 859 Z M618 851 L619 850 L620 851 L619 852 Z M621 850 L622 849 L623 850 L622 851 Z M470 849 L471 848 L472 849 L471 850 Z M465 845 L466 844 L467 845 L466 846 Z M455 841 L456 840 L457 841 L456 842 Z M454 840 L455 839 L456 840 L455 841 Z M453 839 L454 838 L455 839 L454 840 Z M649 836 L650 835 L651 836 L650 837 Z M650 835 L651 834 L652 835 L651 836 Z M446 834 L447 833 L448 834 L447 835 Z M235 831 L239 831 L243 835 L243 840 L240 843 L235 843 L231 838 L232 834 Z M435 829 L436 828 L437 829 L436 830 Z M235 829 L230 833 L229 839 L234 845 L240 845 L244 842 L245 835 L241 830 Z M658 828 L659 827 L660 828 L659 829 Z M429 825 L430 824 L431 825 L430 826 Z M667 824 L668 823 L669 824 L668 825 Z M421 822 L422 821 L423 822 L422 823 Z M420 821 L421 820 L422 821 L421 822 Z M841 819 L845 819 L849 823 L849 827 L845 831 L841 831 L837 826 L838 822 Z M673 818 L674 817 L675 819 L674 820 Z M841 817 L837 820 L835 824 L835 827 L837 831 L840 833 L845 833 L850 829 L851 823 L848 818 Z M679 814 L680 813 L681 814 L680 815 Z M414 814 L415 813 L416 814 L415 815 Z M680 812 L681 811 L682 813 L681 814 Z M190 812 L191 811 L192 812 L191 813 Z M686 808 L687 807 L688 808 L687 809 Z M687 806 L688 805 L689 807 L688 808 Z M688 804 L689 803 L690 805 L689 806 Z M689 802 L690 801 L691 803 L690 804 Z M401 800 L402 799 L403 801 L402 802 Z M915 798 L916 797 L917 798 L916 799 Z M914 797 L895 813 L894 812 L895 806 L897 802 L912 796 Z M173 797 L177 796 L190 802 L191 811 L190 812 L188 810 L189 809 L188 810 L186 809 Z M692 795 L693 796 L692 800 L691 799 Z M172 796 L173 795 L174 796 L173 797 Z M692 794 L693 793 L694 794 L693 795 Z M397 793 L398 794 L397 797 L396 796 Z M315 787 L315 805 L316 806 L317 814 L321 824 L331 838 L350 853 L363 859 L377 863 L415 865 L416 866 L423 866 L424 867 L430 867 L431 868 L439 869 L459 877 L475 887 L482 893 L497 910 L507 929 L511 945 L511 964 L510 965 L509 974 L506 979 L501 966 L493 952 L483 942 L467 933 L451 929 L420 929 L419 928 L415 928 L414 930 L408 930 L399 924 L403 929 L401 930 L397 929 L380 920 L360 906 L346 893 L330 871 L324 853 L322 851 L324 861 L329 875 L337 891 L345 903 L362 920 L377 930 L387 935 L385 937 L385 942 L383 944 L376 936 L357 920 L360 925 L368 933 L376 938 L383 946 L392 965 L392 967 L400 982 L415 998 L427 1005 L445 1010 L461 1010 L462 1009 L471 1008 L480 1005 L496 996 L498 998 L493 1005 L478 1020 L466 1028 L455 1032 L445 1033 L444 1034 L436 1034 L435 1033 L426 1032 L417 1028 L411 1024 L400 1013 L394 1004 L383 980 L383 978 L377 967 L366 955 L357 950 L351 948 L335 948 L328 950 L319 955 L309 965 L305 972 L316 960 L325 954 L339 950 L352 951 L362 956 L372 965 L382 982 L386 994 L393 1008 L401 1019 L413 1029 L426 1035 L443 1037 L444 1036 L455 1035 L472 1028 L484 1019 L491 1012 L499 1002 L505 991 L521 972 L521 971 L518 973 L510 982 L509 981 L512 973 L513 963 L514 962 L514 944 L510 928 L505 918 L500 912 L495 903 L481 888 L469 879 L454 871 L428 863 L407 862 L406 861 L387 861 L386 860 L373 859 L361 855 L345 846 L330 832 L324 823 L318 808 L317 796 L316 795 L316 787 Z M240 786 L244 786 L248 790 L248 794 L245 797 L241 797 L237 793 L237 790 Z M763 786 L762 786 L762 800 L758 815 L750 829 L736 842 L718 852 L709 855 L669 861 L657 864 L636 872 L621 880 L606 891 L592 905 L585 915 L580 924 L575 944 L575 960 L576 961 L577 973 L580 979 L581 984 L592 1001 L605 1014 L615 1021 L632 1028 L644 1029 L645 1030 L663 1028 L674 1024 L687 1015 L694 1007 L703 992 L712 971 L719 961 L727 954 L739 949 L753 949 L762 952 L773 959 L782 969 L782 967 L772 956 L761 949 L751 946 L740 946 L730 949 L722 954 L713 964 L704 981 L699 994 L692 1005 L681 1016 L675 1020 L666 1024 L653 1027 L642 1027 L623 1022 L608 1013 L594 999 L596 998 L608 1004 L617 1007 L627 1008 L628 1009 L644 1009 L645 1008 L654 1007 L665 1003 L680 993 L689 983 L694 975 L703 953 L704 948 L708 944 L710 940 L729 919 L730 914 L738 905 L744 895 L755 869 L758 852 L759 851 L758 849 L754 864 L745 882 L736 895 L722 909 L718 911 L717 914 L707 919 L706 916 L700 919 L697 919 L693 923 L689 923 L683 925 L680 924 L682 923 L678 923 L677 924 L665 925 L664 926 L655 926 L654 927 L645 928 L628 935 L618 942 L604 956 L594 970 L586 986 L580 974 L579 965 L578 964 L579 935 L580 934 L581 925 L594 908 L610 892 L624 882 L644 872 L671 864 L710 858 L719 855 L739 844 L754 829 L761 816 L764 804 Z M239 784 L235 788 L235 794 L237 797 L241 799 L245 799 L249 796 L250 789 L245 784 Z M831 767 L836 766 L840 769 L841 774 L839 778 L832 779 L829 776 L828 772 Z M834 764 L828 767 L826 771 L826 775 L830 780 L837 781 L842 777 L843 770 L839 765 Z M867 763 L868 762 L869 763 L868 764 Z M217 748 L224 753 L224 756 L221 763 L218 758 L216 750 Z M253 747 L258 748 L261 751 L261 756 L257 759 L253 759 L249 755 L249 751 Z M251 746 L247 750 L247 756 L252 761 L260 760 L263 757 L263 752 L261 748 L258 746 Z M899 738 L900 739 L899 762 L898 763 L897 779 L896 780 L896 786 L895 787 L895 793 L894 794 L891 818 L899 813 L915 798 L916 799 L915 816 L914 817 L912 834 L906 860 L906 865 L903 874 L903 878 L899 894 L895 905 L894 912 L890 922 L890 925 L888 928 L873 928 L870 929 L866 924 L865 915 L864 914 L865 911 L866 889 L867 888 L867 879 L868 878 L868 868 L869 867 L869 856 L870 855 L870 808 L869 807 L867 784 L864 771 Z M897 738 L870 763 L868 762 L872 754 L872 751 L875 747 L890 738 L893 737 Z M187 736 L217 763 L221 768 L219 773 L219 778 L216 791 L215 810 L214 811 L214 851 L215 852 L216 875 L217 876 L217 883 L218 884 L218 891 L219 892 L219 899 L220 900 L220 907 L221 908 L221 919 L217 929 L213 928 L200 928 L199 929 L197 926 L186 891 L184 880 L182 876 L182 872 L178 859 L175 839 L174 838 L171 818 L170 817 L169 802 L168 801 L168 796 L169 795 L176 803 L195 818 L191 791 L190 790 L189 777 L188 776 L187 759 L186 758 L186 737 Z M189 736 L192 735 L198 737 L209 743 L214 749 L214 753 L216 758 L215 759 Z M384 724 L390 732 L402 743 L451 774 L469 788 L488 808 L497 820 L508 838 L517 857 L526 881 L529 883 L531 890 L533 889 L534 890 L532 896 L527 901 L524 901 L522 897 L520 898 L515 889 L499 866 L494 860 L492 862 L487 854 L482 849 L481 849 L482 851 L481 853 L467 840 L466 840 L466 844 L465 845 L453 835 L448 829 L446 829 L447 831 L446 834 L436 826 L430 819 L429 819 L430 822 L429 825 L416 811 L415 811 L414 814 L400 793 L397 785 L397 793 L396 794 L394 792 L394 790 L388 778 L382 756 L381 733 L382 732 L382 726 Z M703 723 L705 725 L706 733 L707 734 L707 758 L706 759 L706 764 L698 790 L697 791 L696 790 L695 783 L694 791 L690 795 L690 798 L682 812 L681 811 L681 807 L682 806 L682 804 L681 804 L675 817 L673 815 L662 827 L660 828 L659 827 L660 824 L658 824 L641 841 L640 840 L641 832 L640 832 L639 835 L626 849 L624 848 L624 843 L622 843 L611 858 L610 857 L610 853 L608 853 L599 870 L598 869 L598 864 L597 864 L595 875 L594 876 L593 872 L591 872 L582 890 L580 888 L573 900 L571 902 L569 902 L565 898 L563 893 L564 892 L563 891 L568 877 L568 874 L575 856 L582 842 L596 820 L607 806 L628 786 L646 773 L677 754 L686 747 L696 736 Z M704 717 L703 717 L701 724 L695 734 L685 745 L667 758 L651 767 L633 779 L624 786 L612 797 L594 819 L576 849 L565 878 L563 875 L564 870 L562 870 L560 889 L562 897 L566 902 L571 904 L583 894 L590 880 L591 883 L592 883 L595 880 L605 864 L607 866 L618 852 L619 853 L618 858 L637 840 L638 842 L634 849 L637 848 L648 839 L656 835 L667 824 L668 825 L667 829 L675 822 L679 816 L680 817 L691 806 L701 788 L709 761 L710 740 L709 739 L708 728 Z M812 715 L815 715 L819 720 L819 724 L815 728 L811 728 L807 724 L808 718 Z M383 716 L379 732 L379 751 L380 752 L381 763 L384 774 L397 801 L404 809 L402 805 L403 801 L413 816 L421 824 L423 822 L436 834 L439 835 L436 831 L437 829 L455 843 L457 843 L456 842 L458 841 L473 854 L473 852 L471 850 L474 849 L493 866 L497 874 L499 875 L500 873 L505 882 L507 884 L508 883 L511 887 L515 896 L523 904 L529 902 L534 897 L538 887 L539 875 L540 874 L539 871 L538 872 L538 877 L536 885 L535 886 L531 884 L529 870 L528 870 L528 876 L527 877 L526 876 L525 864 L524 864 L523 867 L521 864 L516 849 L508 833 L490 806 L474 789 L462 779 L437 762 L421 753 L396 735 L390 729 L385 721 L384 716 Z M817 714 L811 714 L806 718 L805 725 L807 728 L813 730 L819 727 L821 723 L821 719 Z M275 704 L279 704 L283 708 L283 714 L279 718 L275 717 L271 713 L271 708 Z M275 702 L270 705 L269 713 L273 718 L280 719 L285 715 L285 708 L282 704 L278 702 Z M790 677 L793 680 L793 684 L791 686 L787 686 L787 688 L794 688 L797 685 L796 680 L793 677 Z M765 657 L769 658 L772 661 L772 666 L767 670 L764 670 L760 666 L760 661 Z M321 657 L326 656 L331 661 L331 665 L329 668 L323 669 L319 665 L319 659 Z M766 655 L763 656 L758 661 L759 669 L764 672 L767 672 L771 670 L774 665 L773 659 L770 656 Z M322 654 L317 658 L316 662 L319 668 L324 671 L327 671 L332 668 L333 661 L328 655 Z M733 634 L738 634 L741 637 L741 643 L739 646 L734 647 L730 644 L729 640 L730 637 Z M733 632 L728 637 L728 644 L730 647 L734 649 L737 649 L743 644 L744 640 L740 633 Z M543 631 L563 631 L564 632 L582 632 L583 633 L601 634 L602 635 L608 635 L609 636 L630 639 L650 644 L678 654 L697 663 L711 671 L733 686 L751 701 L767 717 L781 734 L793 753 L800 769 L805 785 L805 789 L808 798 L808 803 L810 810 L811 824 L812 825 L812 837 L813 838 L813 887 L812 888 L812 903 L811 904 L811 918 L810 919 L810 929 L809 930 L809 941 L808 942 L808 949 L807 950 L807 965 L810 976 L811 1001 L812 1002 L812 1013 L813 1014 L813 1029 L814 1030 L814 1057 L813 1058 L812 1082 L811 1083 L809 1101 L804 1122 L781 1183 L771 1245 L766 1265 L756 1292 L745 1313 L725 1340 L704 1361 L675 1382 L645 1397 L621 1405 L600 1409 L599 1410 L595 1410 L594 1411 L572 1413 L571 1414 L558 1414 L557 1415 L529 1415 L528 1414 L515 1414 L514 1413 L499 1412 L498 1411 L493 1411 L492 1410 L470 1406 L441 1396 L413 1382 L391 1367 L379 1357 L354 1330 L342 1313 L334 1299 L321 1266 L314 1237 L310 1208 L309 1207 L305 1184 L298 1165 L289 1146 L279 1113 L276 1093 L275 1092 L274 1075 L273 1074 L273 1059 L272 1058 L272 1020 L273 1019 L273 1002 L274 1001 L274 983 L275 982 L276 969 L278 962 L277 945 L276 944 L276 936 L275 935 L275 925 L274 924 L274 914 L273 913 L273 899 L272 898 L272 872 L271 871 L272 834 L273 833 L273 823 L274 822 L275 808 L277 803 L279 791 L285 774 L297 751 L319 722 L345 697 L370 679 L404 661 L406 661 L426 652 L467 640 L487 637 L488 636 L493 636 L494 635 L500 635 L501 634 L520 633 L521 632 L542 632 Z M360 630 L365 631 L368 635 L368 639 L364 643 L358 642 L355 636 L356 633 Z M357 629 L353 634 L354 640 L360 645 L367 644 L370 639 L369 633 L363 628 Z M695 613 L700 613 L703 616 L703 621 L699 625 L695 625 L690 619 L691 616 Z M398 612 L401 611 L404 612 L408 616 L408 620 L405 624 L399 624 L396 622 L395 615 Z M695 611 L690 615 L689 621 L694 627 L700 627 L705 621 L705 616 L702 612 Z M180 956 L181 955 L181 950 L186 938 L193 932 L200 932 L208 939 L211 945 L213 953 L213 963 L209 974 L204 979 L201 980 L197 979 L192 974 L190 969 L190 962 L192 957 L194 955 L196 955 L200 960 L200 957 L197 952 L193 952 L189 956 L188 959 L188 969 L192 981 L196 988 L204 996 L209 999 L215 1001 L222 1001 L231 997 L240 989 L247 979 L254 963 L255 955 L256 954 L256 944 L257 943 L257 894 L256 893 L256 852 L255 851 L256 850 L257 816 L258 815 L258 808 L259 807 L259 802 L263 785 L272 761 L279 747 L289 731 L307 708 L333 682 L352 667 L379 650 L404 638 L437 626 L440 626 L463 619 L467 619 L483 615 L504 613 L505 612 L527 611 L528 610 L576 610 L577 611 L599 612 L600 613 L606 613 L607 614 L613 614 L619 616 L629 617 L649 622 L653 624 L656 624 L685 635 L705 645 L729 660 L749 676 L773 700 L783 712 L799 736 L809 756 L819 785 L819 789 L821 794 L823 809 L824 810 L825 825 L826 826 L826 837 L827 838 L828 940 L829 941 L829 951 L830 952 L831 961 L836 975 L845 989 L853 996 L859 999 L870 1001 L883 995 L891 987 L894 982 L898 969 L897 956 L895 953 L891 951 L888 952 L885 955 L884 959 L886 959 L886 957 L889 954 L891 954 L895 960 L895 971 L894 974 L890 978 L882 979 L876 973 L873 965 L873 948 L877 938 L883 932 L886 931 L893 932 L901 940 L905 952 L906 967 L905 968 L905 975 L902 987 L897 997 L892 1004 L881 1013 L870 1017 L851 1018 L841 1015 L832 1010 L822 1000 L816 990 L813 981 L813 976 L810 965 L810 952 L811 951 L813 918 L814 917 L814 904 L815 903 L815 888 L816 887 L816 836 L815 835 L815 825 L814 824 L814 817 L813 816 L811 798 L806 777 L801 763 L788 739 L771 717 L751 697 L726 677 L698 660 L666 646 L631 636 L616 634 L610 632 L596 631 L595 630 L567 629 L566 628 L535 628 L534 629 L520 629 L519 630 L509 630 L508 631 L493 632 L492 633 L487 633 L486 634 L466 637 L443 644 L440 644 L410 655 L379 670 L357 684 L338 699 L316 721 L296 747 L282 773 L274 799 L274 803 L271 814 L271 821 L270 822 L270 832 L269 833 L268 878 L269 879 L270 917 L271 918 L272 936 L273 937 L273 945 L274 946 L274 958 L275 960 L274 961 L274 969 L273 970 L272 980 L266 996 L262 1002 L251 1013 L242 1018 L231 1021 L221 1021 L210 1018 L202 1014 L192 1004 L185 992 L180 973 Z M400 609 L394 613 L393 620 L398 626 L402 627 L409 623 L410 616 L406 611 Z M653 597 L657 598 L660 601 L660 607 L657 610 L654 611 L650 610 L647 605 L648 600 Z M445 597 L451 598 L454 602 L453 607 L448 611 L444 610 L440 605 L441 600 Z M653 595 L647 598 L645 602 L645 606 L648 611 L652 613 L655 613 L661 609 L662 607 L662 600 L659 597 Z M445 595 L440 598 L438 604 L440 609 L443 612 L449 613 L453 611 L455 608 L456 603 L453 597 L449 595 Z M602 587 L609 588 L612 593 L611 597 L606 601 L601 600 L598 596 L598 591 Z M496 587 L500 587 L505 591 L505 596 L500 601 L495 600 L491 595 L492 590 Z M602 585 L596 590 L595 594 L599 601 L603 603 L607 603 L613 598 L614 594 L613 590 L611 587 L607 585 Z M551 584 L555 585 L559 590 L558 594 L555 597 L552 598 L549 597 L545 593 L545 589 Z M496 585 L491 588 L489 595 L490 598 L494 602 L500 603 L503 602 L506 599 L507 591 L503 586 Z M551 582 L544 587 L543 593 L546 598 L550 600 L554 600 L560 595 L561 590 L560 587 L557 584 Z M892 980 L888 988 L880 995 L873 998 L864 998 L853 993 L842 981 L837 971 L834 962 L834 958 L832 952 L832 944 L831 943 L830 838 L829 837 L829 825 L828 824 L828 817 L827 816 L827 810 L826 809 L824 793 L817 768 L802 735 L789 715 L767 689 L742 666 L718 649 L688 633 L686 633 L671 626 L650 619 L634 615 L630 615 L625 613 L608 611 L607 610 L600 610 L599 609 L592 609 L591 608 L579 608 L578 607 L527 607 L526 608 L514 608 L513 609 L496 610 L495 611 L489 611 L488 612 L472 614 L440 622 L408 633 L380 646 L348 666 L326 684 L311 699 L294 719 L279 741 L270 758 L270 760 L263 775 L257 797 L255 815 L254 816 L254 826 L253 827 L254 949 L253 950 L253 957 L249 970 L240 985 L231 994 L220 999 L212 998 L206 995 L201 991 L194 981 L196 980 L199 982 L203 982 L204 983 L215 981 L224 975 L230 964 L231 950 L229 946 L229 943 L224 936 L224 934 L226 932 L231 920 L231 900 L230 899 L228 862 L227 861 L227 818 L228 817 L228 807 L229 806 L229 799 L230 798 L232 782 L241 752 L252 728 L268 702 L290 675 L308 657 L336 635 L364 618 L401 601 L440 588 L478 579 L504 576 L505 575 L515 575 L516 574 L528 574 L536 578 L547 579 L548 578 L560 577 L567 573 L605 576 L606 577 L611 577 L612 578 L617 578 L618 579 L623 579 L633 582 L637 582 L671 592 L674 594 L689 599 L696 603 L698 603 L730 620 L756 638 L772 651 L794 673 L805 686 L824 713 L835 733 L835 735 L844 755 L852 784 L854 803 L855 804 L856 824 L857 825 L857 858 L856 859 L856 873 L855 874 L855 883 L854 884 L854 893 L853 894 L853 916 L855 924 L862 934 L855 949 L856 965 L859 971 L867 979 L874 982 L885 982 L891 979 Z M570 567 L571 566 L572 567 L571 568 Z M519 567 L520 566 L521 567 L520 568 Z M558 562 L559 561 L560 562 L559 563 Z M536 561 L537 560 L541 561 L540 562 Z M555 560 L556 559 L557 561 L556 562 Z M540 560 L541 559 L554 559 L555 560 L554 561 L541 561 Z M564 559 L565 558 L566 559 L565 560 Z M530 559 L531 558 L534 561 L531 563 Z M529 558 L530 557 L531 558 L530 559 Z M526 558 L527 557 L528 558 L527 559 Z M520 570 L516 572 L491 574 L490 575 L479 576 L459 581 L455 581 L406 596 L386 605 L384 605 L351 622 L327 638 L302 659 L277 686 L264 703 L252 722 L240 747 L230 780 L230 785 L229 786 L227 803 L226 804 L226 813 L225 814 L225 865 L226 866 L227 890 L228 891 L228 898 L229 899 L229 920 L226 929 L222 933 L220 932 L218 929 L222 921 L223 913 L222 912 L222 902 L221 901 L220 885 L219 884 L218 863 L217 862 L217 845 L216 844 L216 816 L217 815 L217 803 L218 802 L218 794 L219 793 L220 781 L226 755 L237 725 L253 696 L270 672 L280 660 L301 639 L327 618 L357 599 L392 582 L438 566 L474 557 L477 557 L486 564 L491 566 L504 566 L509 564 Z M559 557 L560 556 L561 558 L560 559 Z M525 556 L526 555 L527 556 L526 557 Z M581 565 L591 565 L592 566 L599 565 L606 561 L613 554 L617 556 L634 559 L657 566 L660 566 L663 568 L666 568 L669 570 L685 575 L721 592 L754 613 L778 632 L810 665 L829 691 L849 728 L857 751 L863 775 L864 785 L865 786 L865 793 L866 794 L866 801 L867 802 L867 811 L868 812 L868 850 L867 851 L867 866 L866 867 L866 878 L865 879 L865 889 L864 890 L864 900 L863 901 L863 919 L865 925 L868 929 L867 931 L863 933 L860 930 L856 921 L856 916 L855 915 L856 890 L857 889 L858 869 L859 868 L859 816 L858 815 L858 805 L857 804 L857 797 L856 796 L854 781 L850 765 L838 733 L824 708 L806 683 L779 654 L758 636 L727 615 L694 598 L674 591 L671 589 L637 579 L633 579 L618 575 L599 573 L598 572 L573 571 L572 570 Z M532 555 L533 554 L535 557 L534 558 Z M524 554 L525 553 L526 554 L525 555 Z M567 553 L568 552 L569 553 L568 554 Z M559 553 L560 552 L561 553 L560 554 Z M545 552 L546 551 L548 552 L547 553 Z M533 552 L536 550 L538 551 L543 550 L545 552 L544 553 L539 553 L539 555 L541 554 L554 555 L556 553 L560 554 L556 558 L544 557 L543 558 L535 559 L534 558 L536 556 Z M523 551 L524 550 L525 552 L524 553 Z M568 550 L569 549 L570 551 L569 552 Z M557 550 L558 549 L560 550 L559 551 Z M545 550 L546 549 L548 550 L547 551 Z M531 550 L532 549 L534 550 L533 551 Z M543 549 L544 548 L546 549 L545 550 Z M548 552 L552 547 L556 551 L555 553 L549 553 Z M536 548 L537 547 L542 547 L543 548 L542 549 L537 549 Z M526 548 L527 547 L529 548 L533 554 L532 555 L530 554 L528 556 Z M523 546 L524 545 L525 546 L524 547 Z M522 544 L524 548 L523 551 L521 548 Z M520 544 L521 543 L522 544 L521 545 Z M571 540 L572 541 L571 549 L570 550 L569 548 L567 548 L566 554 L564 557 L562 554 L562 550 L559 549 L568 541 Z M571 540 L572 539 L573 540 L572 541 Z M512 540 L515 539 L519 541 L519 546 L521 552 L528 565 L533 569 L537 570 L543 568 L557 569 L559 567 L554 568 L553 567 L544 566 L539 568 L535 568 L531 565 L533 563 L538 564 L544 562 L556 563 L558 565 L563 565 L568 559 L572 550 L574 556 L569 567 L563 573 L555 576 L537 576 L533 575 L522 567 Z M509 539 L510 538 L511 539 L510 540 Z M508 538 L509 537 L510 538 L509 539 Z M528 536 L531 533 L533 534 L531 537 Z M558 532 L559 531 L560 532 L559 533 Z M532 531 L533 530 L535 531 L534 532 Z M557 530 L558 529 L559 530 L558 531 Z M587 526 L588 527 L587 531 L586 530 Z M557 526 L558 527 L557 530 L555 528 Z M559 535 L555 540 L552 541 L548 548 L546 548 L537 539 L536 540 L541 545 L532 548 L526 545 L522 541 L528 538 L531 539 L541 530 L540 529 L537 531 L535 529 L542 526 L551 526 L553 528 L554 533 L556 534 L557 533 Z M527 527 L528 526 L529 527 L528 528 Z M568 525 L569 524 L573 525 L572 526 Z M521 525 L522 524 L525 525 L524 526 Z M573 524 L574 523 L575 524 L574 525 Z M560 524 L561 523 L562 524 L561 525 Z M574 523 L575 522 L576 523 L575 524 Z M575 522 L576 521 L578 522 L577 523 Z M569 522 L570 521 L571 522 L570 523 Z M508 522 L509 521 L513 525 L520 529 L525 530 L531 528 L532 530 L528 533 L524 539 L513 538 L509 535 L507 531 L508 529 Z M577 521 L578 520 L579 521 L578 522 Z M570 521 L571 520 L573 521 L572 522 Z M624 519 L626 524 L625 534 L621 541 L605 559 L595 564 L584 564 L583 563 L589 560 L596 554 L608 547 L613 542 L621 529 Z M578 520 L579 519 L580 520 L579 521 Z M507 520 L508 519 L509 520 L508 521 Z M516 519 L517 518 L521 521 L518 524 L516 522 Z M506 518 L507 517 L508 518 L507 519 Z M461 518 L462 517 L464 519 L467 530 L470 535 L475 538 L476 541 L481 547 L490 553 L492 553 L501 558 L507 563 L506 564 L491 564 L485 561 L475 551 L466 539 L460 526 Z M580 516 L581 517 L580 520 L579 519 Z M577 516 L578 518 L576 520 L575 518 Z M512 517 L513 516 L514 517 L513 518 Z M505 517 L506 516 L507 517 L506 518 Z M512 515 L513 518 L511 521 L509 517 Z M583 514 L584 513 L585 515 L584 516 Z M507 513 L509 512 L510 514 L508 515 Z M506 512 L507 511 L508 512 L507 513 Z M505 511 L506 510 L507 511 L506 512 Z M585 509 L586 510 L585 513 L584 512 Z M557 508 L555 510 L555 516 L556 517 L556 510 Z M585 505 L586 504 L587 506 L586 507 Z M584 504 L584 507 L582 511 L571 518 L566 523 L564 524 L561 523 L578 504 L580 503 Z M632 501 L633 502 L629 507 L627 504 Z M453 496 L454 497 L453 500 L461 513 L458 521 L459 530 L467 544 L476 555 L474 557 L470 558 L464 558 L463 559 L458 559 L457 560 L452 560 L439 563 L407 573 L387 581 L380 585 L378 585 L360 594 L358 596 L344 603 L326 615 L302 634 L277 659 L263 676 L243 707 L233 727 L225 750 L224 751 L216 745 L214 740 L216 712 L217 711 L220 693 L229 666 L242 640 L255 620 L280 590 L300 571 L320 555 L342 540 L361 529 L384 518 L409 508 L412 508 L428 502 Z M639 494 L661 499 L688 508 L703 514 L714 520 L716 520 L739 532 L767 550 L784 563 L816 594 L828 609 L847 640 L857 662 L865 687 L865 691 L869 707 L870 721 L871 722 L871 747 L869 754 L864 764 L862 762 L859 748 L852 728 L842 707 L830 687 L818 670 L801 650 L772 623 L752 608 L732 595 L690 574 L652 561 L635 558 L634 557 L614 555 L613 554 L622 543 L627 534 L628 523 L625 516 L637 499 Z M636 493 L637 492 L638 493 L637 494 Z M409 492 L411 495 L413 503 L411 505 L405 507 L404 506 L405 501 L407 497 L407 494 Z M411 488 L412 487 L422 492 L428 497 L428 499 L417 503 L415 501 Z M673 485 L677 494 L677 498 L678 499 L677 501 L668 498 L668 495 Z M320 485 L321 488 L319 492 L316 505 L316 510 L315 511 L315 537 L316 538 L316 544 L317 545 L318 553 L309 560 L308 559 L308 552 L307 551 L308 519 L314 496 Z M624 483 L626 485 L625 486 L627 485 L634 492 L634 496 L627 502 L625 498 L625 493 L623 487 Z M591 484 L587 489 L586 493 L587 493 L590 488 Z M320 484 L321 483 L322 485 L321 486 Z M753 482 L756 487 L760 499 L762 513 L763 514 L763 525 L764 528 L763 529 L763 542 L762 543 L759 542 L756 539 L757 538 L757 530 L758 529 L758 511 L757 510 L755 493 L752 485 Z M622 483 L623 482 L624 483 L623 484 Z M598 482 L599 481 L600 482 L599 483 Z M321 482 L322 481 L323 482 L322 483 Z M751 481 L752 480 L753 482 L752 483 Z M322 480 L323 479 L324 480 L323 481 Z M750 479 L751 478 L752 480 L751 481 Z M407 480 L408 479 L415 479 L416 478 L417 479 L418 487 L417 488 L412 485 Z M674 478 L670 484 L665 497 L662 497 L654 494 L660 488 L666 484 L664 481 L665 482 L664 483 L662 482 L663 479 L671 477 Z M323 478 L324 477 L325 478 L324 479 Z M749 477 L750 476 L751 477 L750 478 Z M474 473 L488 481 L495 488 L501 501 L500 502 L493 501 L487 498 L479 488 L479 486 L476 481 L477 487 L481 494 L490 502 L499 505 L503 504 L504 505 L504 514 L503 515 L498 511 L494 510 L500 514 L506 521 L506 533 L509 537 L507 538 L504 533 L502 533 L503 536 L511 543 L516 557 L520 564 L519 567 L509 562 L496 553 L487 549 L477 538 L473 528 L473 523 L472 523 L472 531 L473 533 L472 534 L469 530 L467 521 L462 512 L464 503 L466 501 L466 498 L465 497 L465 500 L461 507 L457 504 L455 499 L458 491 L469 479 L471 484 L471 488 L475 494 L472 486 L472 475 Z M614 471 L615 472 L615 479 L612 489 L605 496 L595 500 L594 499 L597 494 L599 486 Z M617 470 L620 477 L620 488 L618 492 L622 489 L624 497 L624 501 L620 506 L624 503 L626 505 L627 509 L622 517 L620 526 L617 532 L615 533 L613 538 L606 546 L594 553 L590 557 L579 564 L572 567 L571 565 L573 563 L579 549 L579 545 L578 545 L577 551 L576 552 L575 551 L574 541 L576 539 L582 537 L585 534 L586 535 L585 537 L587 537 L590 528 L589 525 L584 526 L584 533 L579 537 L575 537 L574 536 L572 538 L568 539 L561 546 L556 548 L553 544 L553 542 L557 540 L560 537 L561 534 L566 538 L565 535 L562 533 L559 527 L560 526 L573 527 L577 525 L592 511 L590 511 L588 513 L587 512 L589 504 L597 502 L609 495 L613 490 L616 482 L616 471 Z M614 469 L600 482 L599 480 L597 482 L598 485 L596 488 L594 497 L588 502 L587 501 L586 496 L582 490 L579 488 L585 498 L584 501 L578 502 L557 525 L542 524 L538 526 L536 524 L534 526 L527 524 L523 520 L514 515 L506 508 L506 504 L509 503 L512 504 L522 514 L530 520 L533 520 L536 518 L535 517 L531 519 L520 510 L516 505 L511 502 L509 502 L507 500 L512 493 L508 496 L504 502 L501 497 L501 494 L498 492 L495 485 L491 481 L476 472 L477 471 L487 471 L496 475 L499 475 L497 474 L502 472 L513 472 L525 477 L533 483 L524 486 L523 488 L529 487 L538 483 L553 483 L559 486 L558 488 L563 483 L580 473 L588 472 L594 474 L599 474 L609 468 L613 468 Z M429 452 L449 466 L466 480 L458 488 L455 493 L451 493 L431 498 L419 487 L418 480 L426 460 L427 455 Z M653 450 L658 469 L659 478 L662 484 L651 494 L643 491 L634 490 L622 479 L621 475 L636 462 Z M666 441 L667 442 L668 455 L674 468 L676 470 L676 473 L669 476 L662 477 L660 475 L659 466 L656 458 L656 450 L655 449 Z M416 441 L427 451 L418 475 L416 477 L406 477 L403 473 L405 468 L410 461 L413 453 L414 445 Z M688 435 L692 435 L705 439 L719 446 L728 452 L738 462 L743 469 L749 482 L754 502 L755 529 L754 530 L754 537 L753 538 L732 525 L710 514 L708 514 L701 510 L681 502 L679 492 L676 485 L676 480 L679 474 L679 467 L684 457 L686 449 L686 444 L687 443 L687 436 Z M389 434 L390 435 L390 442 L391 443 L392 453 L395 462 L402 477 L406 482 L406 489 L401 507 L395 511 L381 516 L357 528 L335 541 L321 551 L319 547 L319 540 L318 539 L318 510 L319 509 L319 503 L322 491 L328 475 L330 473 L331 468 L340 458 L359 444 L375 437 Z M683 417 L684 418 L684 446 L680 461 L677 466 L673 460 L673 457 L680 444 L681 431 L682 430 L682 418 Z M681 414 L682 413 L683 414 L682 415 Z M397 396 L398 400 L397 401 L397 410 L396 411 L396 430 L397 431 L397 437 L399 445 L406 462 L402 469 L399 466 L395 455 L394 446 L393 445 L393 438 L392 437 L392 413 L395 400 Z M675 378 L689 379 L690 380 L704 382 L719 387 L735 395 L751 406 L767 422 L778 437 L791 464 L795 478 L797 494 L798 495 L798 530 L797 531 L797 538 L796 539 L794 553 L792 561 L790 564 L765 545 L766 542 L766 514 L765 513 L764 502 L759 486 L753 474 L746 464 L735 453 L720 442 L705 435 L687 430 L687 421 L686 420 L684 405 L678 387 L674 379 Z M399 378 L400 379 L398 382 L393 397 L390 410 L389 430 L366 437 L346 448 L329 464 L320 477 L310 499 L306 515 L306 520 L305 521 L304 553 L305 554 L306 562 L283 583 L275 556 L273 537 L272 536 L271 515 L272 514 L273 491 L274 490 L276 476 L282 458 L291 440 L302 424 L320 406 L334 396 L352 387 L375 380 L380 380 L381 379 Z M670 376 L676 390 L680 403 L679 439 L676 449 L672 456 L670 453 L670 436 L673 425 L673 398 L672 397 L670 381 L669 380 Z M668 375 L669 374 L670 375 L669 376 Z M407 368 L408 369 L408 373 L407 374 L406 390 L405 391 L405 407 L406 408 L406 420 L407 421 L408 436 L411 446 L411 453 L407 460 L402 449 L400 441 L400 436 L399 435 L399 430 L398 429 L398 414 L399 413 L399 402 L400 401 L400 391 L401 390 L400 385 Z M652 368 L653 367 L654 368 L653 369 Z M408 365 L409 366 L408 369 L407 368 Z M408 364 L409 363 L410 365 L409 366 Z M409 362 L410 361 L411 362 L410 363 Z M410 360 L411 359 L412 360 L411 361 Z M652 357 L653 358 L652 361 L651 360 Z M412 356 L413 357 L412 360 L411 359 Z M434 354 L436 361 L436 397 L437 401 L429 414 L427 407 L427 383 L428 382 L429 369 Z M660 353 L668 369 L667 377 L668 378 L668 386 L669 387 L670 400 L671 401 L671 421 L670 422 L670 429 L668 435 L666 433 L667 432 L666 433 L662 428 L663 420 L664 419 L664 413 L665 412 L665 403 L666 402 L666 385 L664 378 L663 364 L659 357 Z M664 350 L687 350 L688 351 L698 351 L699 352 L712 353 L725 356 L749 365 L766 375 L781 387 L794 401 L805 417 L814 435 L819 450 L822 463 L822 468 L823 469 L824 486 L825 487 L824 515 L823 516 L823 524 L822 525 L821 536 L813 565 L809 575 L806 579 L793 567 L793 564 L798 549 L798 545 L800 539 L800 532 L801 531 L801 517 L802 516 L801 495 L800 494 L800 488 L799 487 L799 482 L792 458 L782 438 L770 421 L753 404 L734 391 L724 386 L704 379 L674 375 L672 373 L663 352 Z M659 350 L660 351 L659 354 L658 353 Z M414 350 L415 354 L413 357 L412 354 Z M409 350 L410 352 L402 373 L400 375 L390 375 L389 376 L382 376 L381 377 L367 379 L347 386 L335 392 L314 407 L300 422 L288 439 L280 455 L274 472 L271 484 L270 496 L269 497 L268 526 L269 527 L270 546 L271 547 L275 569 L281 585 L270 597 L268 595 L260 578 L252 554 L248 537 L247 526 L246 525 L245 504 L244 503 L245 481 L246 480 L246 473 L247 472 L247 467 L250 454 L256 436 L266 416 L276 402 L291 386 L305 375 L324 364 L351 354 L364 352 L365 351 L370 351 L371 350 L380 350 L381 349 L405 349 Z M657 349 L658 348 L659 350 L658 351 Z M415 347 L416 348 L415 351 L414 350 Z M656 347 L657 346 L658 347 L657 348 Z M415 346 L416 345 L417 346 L416 347 Z M549 340 L554 340 L555 341 L555 353 L556 354 L556 362 L557 363 L559 379 L565 401 L567 404 L569 412 L574 422 L576 429 L588 450 L596 461 L603 468 L599 472 L594 472 L592 470 L594 467 L590 470 L579 471 L566 478 L560 483 L557 483 L546 479 L544 342 Z M531 340 L537 340 L543 342 L543 471 L544 472 L544 480 L543 481 L536 481 L535 482 L524 474 L514 470 L507 469 L506 470 L501 470 L497 472 L493 472 L490 470 L497 462 L505 449 L518 418 L518 415 L521 408 L528 380 L529 368 L530 367 L530 356 L531 355 L531 346 L530 345 L530 341 Z M618 335 L620 339 L622 347 L622 352 L623 353 L623 361 L622 362 L614 344 Z M559 342 L574 341 L593 335 L594 336 L606 368 L616 389 L636 424 L652 448 L633 461 L621 472 L614 465 L609 465 L605 468 L587 443 L576 422 L566 395 L561 375 L559 359 L558 358 L558 343 Z M525 341 L528 343 L528 361 L527 362 L526 376 L518 409 L509 434 L499 454 L488 470 L486 469 L474 470 L468 477 L466 477 L455 467 L431 451 L430 449 L447 421 L468 380 L486 335 L488 334 L492 336 L509 339 L510 340 L515 340 L516 341 Z M531 337 L538 331 L547 331 L552 334 L555 338 L554 339 L532 339 Z M649 326 L657 344 L657 346 L656 347 L655 345 L658 358 L660 361 L663 385 L664 386 L663 410 L662 411 L662 417 L659 424 L653 416 L656 406 L657 377 L656 376 L653 347 L648 330 Z M647 325 L648 324 L649 326 L648 327 Z M425 322 L426 323 L425 326 L424 325 Z M646 322 L647 321 L648 323 L647 324 Z M604 321 L607 327 L608 334 L612 346 L625 376 L627 378 L636 396 L657 427 L666 437 L655 446 L653 445 L652 442 L632 412 L629 405 L625 400 L619 387 L617 385 L616 381 L609 368 L601 348 L600 343 L596 335 L596 333 Z M475 321 L484 332 L484 334 L472 364 L469 369 L469 371 L453 404 L429 446 L427 447 L417 437 L428 421 L430 416 L434 411 L448 387 L459 364 L466 344 L468 341 L473 323 Z M601 321 L593 333 L590 333 L574 338 L558 339 L550 331 L555 329 L564 329 L565 328 L576 327 L588 324 L598 320 Z M645 320 L646 319 L647 320 L646 321 Z M478 320 L480 319 L493 324 L510 327 L511 328 L528 329 L535 331 L528 339 L521 339 L520 338 L503 336 L487 332 Z M426 319 L427 320 L426 323 L425 322 Z M477 319 L478 318 L479 319 L478 320 Z M426 318 L427 317 L428 319 L427 320 Z M644 317 L645 316 L646 318 L645 319 Z M427 315 L428 314 L429 315 L428 316 Z M641 310 L642 309 L643 310 L642 311 Z M695 288 L701 289 L705 291 L709 297 L708 340 L707 341 L707 349 L706 350 L698 348 L685 348 L684 347 L683 348 L682 347 L683 298 L685 294 L689 290 Z M468 241 L469 242 L469 254 L468 255 L467 269 L448 342 L448 348 L446 356 L446 368 L445 369 L446 385 L439 397 L437 390 L437 385 L438 384 L438 363 L436 359 L437 347 L439 343 L446 315 L453 297 L457 280 L463 267 L463 263 L465 259 L465 254 L466 253 L466 247 Z M599 159 L605 167 L612 185 L615 201 L618 210 L623 239 L627 253 L627 257 L629 261 L635 287 L642 307 L641 312 L651 345 L651 350 L652 351 L652 356 L651 357 L622 271 L616 247 L612 223 L611 222 L611 217 L608 205 L604 177 L598 161 Z M597 159 L598 158 L599 159 L598 160 Z M596 157 L597 156 L598 158 L597 159 Z M595 156 L596 155 L597 156 L596 157 Z M474 155 L475 157 L471 164 L466 183 L458 236 L457 237 L457 241 L456 242 L456 246 L455 247 L451 268 L423 349 L423 352 L421 356 L417 372 L415 399 L416 400 L416 422 L417 423 L418 431 L414 436 L412 443 L410 438 L410 429 L409 428 L409 421 L408 420 L408 382 L409 381 L410 372 L417 353 L421 337 L420 334 L422 328 L424 325 L425 326 L423 332 L424 333 L426 330 L430 317 L431 304 L437 287 L438 280 L440 276 L445 256 L445 252 L446 251 L446 247 L447 246 L447 242 L453 216 L454 205 L460 179 L465 166 Z M474 155 L475 154 L476 155 L475 156 Z M486 148 L487 149 L484 152 L480 160 L477 171 L476 184 L474 192 L474 200 L473 201 L473 209 L472 210 L472 218 L471 219 L470 238 L468 239 L465 246 L461 267 L456 278 L455 284 L453 287 L453 290 L449 299 L449 302 L447 305 L447 308 L441 324 L437 342 L432 352 L427 369 L426 380 L425 381 L425 402 L426 403 L427 417 L420 428 L418 424 L418 384 L419 383 L419 374 L422 364 L422 360 L454 264 L471 170 L478 154 L483 149 Z M486 148 L487 147 L488 148 L487 149 Z M582 146 L585 147 L592 154 L598 165 L601 174 L603 187 L604 188 L604 193 L606 199 L609 222 L621 274 L640 333 L642 336 L649 357 L650 365 L651 366 L652 380 L653 381 L653 390 L654 391 L653 413 L652 414 L644 403 L644 383 L643 382 L642 373 L640 369 L637 352 L632 338 L628 321 L624 311 L624 308 L618 292 L612 267 L609 262 L609 259 L607 256 L605 248 L594 169 L589 156 L581 147 Z M494 145 L495 146 L490 154 L486 170 L484 207 L483 208 L484 209 L483 210 L483 222 L482 223 L482 235 L481 236 L480 254 L474 280 L470 290 L465 311 L462 335 L461 336 L461 348 L462 350 L456 365 L448 380 L447 379 L447 366 L448 365 L448 356 L449 355 L450 342 L453 333 L454 324 L458 312 L458 308 L461 300 L463 289 L465 286 L466 277 L468 273 L468 268 L469 267 L471 243 L472 242 L472 232 L473 231 L473 222 L474 221 L474 212 L475 211 L475 203 L476 202 L479 172 L482 160 L486 152 L491 146 Z M574 144 L576 144 L584 152 L590 163 L590 166 L592 170 L595 194 L596 195 L596 202 L597 203 L600 232 L601 233 L604 253 L606 261 L610 268 L610 271 L613 278 L617 295 L619 298 L619 301 L622 308 L622 311 L625 318 L625 321 L633 346 L637 367 L638 368 L638 389 L640 382 L641 381 L642 382 L642 387 L643 388 L643 399 L642 400 L634 387 L625 369 L626 367 L625 366 L624 350 L623 349 L623 344 L620 335 L616 313 L614 309 L613 302 L610 295 L607 281 L602 266 L597 262 L597 265 L598 264 L600 265 L603 274 L607 291 L610 298 L612 309 L616 320 L618 334 L614 341 L611 335 L608 318 L606 315 L605 309 L602 302 L601 294 L599 290 L596 277 L596 272 L595 271 L595 257 L594 256 L592 233 L591 232 L591 221 L590 220 L590 211 L589 210 L589 200 L588 199 L586 174 L583 161 L580 154 L573 145 Z M571 144 L572 143 L574 144 L573 145 Z M503 143 L504 144 L501 147 L498 153 L496 161 L495 181 L494 182 L494 196 L493 197 L493 212 L492 213 L492 228 L491 229 L491 238 L489 246 L489 254 L488 255 L487 267 L485 275 L482 281 L481 277 L481 283 L479 289 L475 314 L472 317 L469 330 L464 343 L463 342 L463 333 L466 321 L467 309 L471 293 L481 261 L481 256 L482 255 L482 249 L483 248 L489 164 L491 156 L494 150 L500 144 Z M566 142 L570 144 L576 151 L583 169 L585 193 L586 194 L586 203 L587 204 L587 213 L588 214 L588 221 L589 222 L591 252 L593 260 L593 270 L594 271 L595 282 L599 295 L599 299 L603 314 L600 317 L593 320 L591 319 L592 318 L591 305 L587 290 L585 275 L584 274 L584 268 L583 267 L583 259 L582 258 L581 241 L580 240 L580 232 L579 231 L579 222 L578 221 L576 185 L575 184 L575 173 L574 172 L573 157 L568 146 L565 143 Z M579 142 L580 141 L581 142 L580 143 Z M559 141 L562 142 L566 146 L569 152 L572 164 L574 197 L575 198 L575 210 L576 211 L576 220 L577 221 L577 230 L578 231 L578 241 L580 249 L581 267 L582 268 L582 275 L583 276 L583 280 L584 281 L584 285 L590 311 L590 320 L582 323 L580 321 L578 304 L575 292 L573 269 L572 268 L570 234 L569 233 L569 218 L568 217 L569 216 L568 215 L568 200 L567 199 L567 188 L566 187 L566 176 L565 175 L565 163 L564 162 L563 152 L558 142 Z M517 141 L518 142 L514 147 L511 157 L510 171 L507 183 L505 176 L506 157 L510 147 L515 141 Z M511 141 L512 142 L507 149 L503 165 L503 174 L505 179 L505 188 L506 189 L506 204 L505 205 L505 213 L504 214 L504 225 L503 226 L501 251 L500 252 L499 265 L498 266 L497 278 L496 279 L493 298 L489 311 L489 316 L486 319 L477 315 L477 311 L479 305 L482 284 L485 279 L488 270 L490 252 L491 251 L491 243 L492 242 L493 226 L494 225 L494 209 L495 208 L497 166 L501 150 L508 142 Z M577 141 L578 140 L580 141 L579 142 Z M557 141 L558 140 L559 141 L558 142 Z M550 140 L554 140 L557 143 L561 151 L561 155 L562 156 L563 176 L564 177 L564 186 L565 187 L566 220 L567 221 L567 236 L568 237 L570 269 L571 270 L571 277 L572 278 L575 303 L579 320 L578 324 L574 324 L568 326 L567 325 L567 319 L568 318 L567 316 L567 307 L563 290 L560 265 L559 264 L559 254 L558 253 L557 192 L556 191 L555 160 L554 159 L553 149 L549 141 Z M524 140 L525 141 L522 146 L520 153 L519 171 L518 172 L517 216 L516 217 L516 247 L515 248 L515 262 L514 263 L514 276 L513 277 L513 288 L512 289 L511 313 L510 314 L510 323 L506 324 L504 317 L505 284 L504 283 L504 274 L503 273 L502 315 L504 322 L501 323 L500 322 L492 321 L490 319 L490 316 L496 294 L500 267 L502 261 L504 238 L505 237 L505 228 L506 227 L506 218 L507 217 L507 209 L508 208 L509 187 L510 186 L511 172 L512 171 L512 163 L517 145 L521 140 Z M493 141 L494 140 L496 141 L495 142 Z M543 139 L548 142 L552 153 L553 177 L554 178 L554 195 L555 196 L556 252 L557 253 L557 263 L558 264 L559 277 L560 278 L562 295 L565 307 L565 325 L558 327 L556 326 L555 323 L555 313 L554 312 L551 291 L549 286 L548 273 L546 265 L546 254 L545 253 L545 163 L544 162 L544 150 L542 143 Z M536 139 L540 139 L541 140 L541 145 L542 146 L542 159 L543 160 L543 251 L544 252 L544 264 L545 265 L546 280 L551 300 L553 321 L554 322 L554 326 L548 328 L543 328 L542 327 L541 292 L540 292 L540 310 L539 311 L540 313 L539 326 L540 327 L538 328 L537 327 L530 327 L529 326 L530 281 L531 280 L530 278 L531 276 L531 153 L534 141 Z M532 139 L533 140 L529 152 L529 268 L528 269 L529 273 L528 274 L528 309 L527 310 L528 326 L524 327 L523 326 L516 326 L512 324 L512 313 L513 312 L513 301 L514 300 L515 278 L516 277 L516 264 L517 263 L521 159 L522 158 L523 148 L526 141 Z M495 140 L506 135 L514 133 L519 133 L520 132 L528 132 L529 131 L555 132 L571 136 L578 140 L577 141 L573 141 L562 138 L540 137 L539 136 L537 137 L511 138 L500 141 L496 141 Z M504 48 L512 43 L521 42 L522 41 L549 42 L555 44 L574 62 L585 76 L589 84 L589 100 L588 101 L587 110 L578 137 L568 132 L554 130 L553 129 L544 129 L543 128 L522 129 L521 130 L507 132 L495 137 L492 136 L483 108 L478 87 L478 80 L486 68 Z M522 38 L521 39 L511 40 L503 45 L482 68 L475 79 L475 87 L476 88 L479 105 L489 136 L491 139 L487 144 L474 151 L468 157 L463 164 L459 173 L452 200 L452 205 L448 221 L445 241 L443 246 L442 255 L435 283 L424 316 L412 346 L411 347 L406 347 L405 346 L382 346 L381 347 L372 347 L371 348 L360 349 L336 356 L314 366 L296 378 L277 396 L265 412 L254 433 L247 453 L246 461 L244 466 L244 471 L243 472 L243 479 L242 480 L242 517 L243 518 L243 526 L244 527 L247 547 L249 551 L253 568 L267 600 L254 616 L238 641 L225 668 L218 689 L214 710 L213 711 L211 740 L210 741 L198 734 L191 732 L186 732 L183 735 L183 758 L184 759 L184 768 L185 769 L185 776 L186 777 L188 796 L187 797 L175 792 L167 791 L165 794 L165 802 L166 803 L167 817 L168 818 L169 829 L170 830 L171 840 L175 855 L176 864 L182 888 L188 906 L188 909 L195 928 L188 932 L184 936 L180 943 L178 950 L178 954 L177 955 L177 974 L181 990 L190 1007 L198 1015 L211 1022 L219 1023 L220 1024 L230 1024 L231 1025 L226 1044 L225 1058 L224 1059 L224 1074 L223 1075 L225 1102 L230 1121 L239 1138 L253 1151 L269 1157 L286 1157 L287 1156 L291 1157 L291 1159 L300 1178 L305 1197 L310 1231 L312 1237 L312 1242 L319 1270 L326 1289 L337 1311 L358 1340 L380 1362 L407 1382 L429 1394 L431 1394 L448 1402 L466 1408 L487 1413 L505 1415 L506 1416 L514 1416 L515 1417 L557 1418 L558 1417 L571 1417 L572 1416 L581 1416 L582 1415 L595 1414 L596 1413 L618 1409 L643 1401 L653 1397 L681 1382 L698 1370 L711 1359 L725 1345 L741 1325 L751 1309 L759 1293 L765 1278 L766 1272 L771 1258 L772 1250 L775 1240 L776 1230 L777 1229 L779 1209 L780 1208 L783 1188 L789 1168 L795 1155 L799 1155 L805 1157 L820 1157 L835 1153 L847 1146 L854 1139 L860 1130 L865 1119 L869 1103 L869 1097 L870 1096 L870 1071 L869 1070 L869 1063 L868 1062 L868 1057 L865 1044 L859 1027 L856 1022 L857 1021 L866 1021 L867 1020 L875 1019 L888 1012 L899 1000 L907 981 L908 967 L909 966 L907 947 L902 936 L898 932 L891 928 L893 925 L894 919 L898 909 L898 906 L900 902 L901 895 L906 879 L906 875 L907 874 L907 870 L908 869 L908 865 L909 864 L909 860 L910 859 L910 855 L912 850 L914 835 L916 829 L920 796 L919 793 L916 792 L908 794 L898 799 L897 798 L899 781 L900 780 L900 773 L901 772 L901 764 L902 763 L902 752 L903 751 L903 738 L901 734 L893 734 L883 738 L875 744 L874 743 L874 721 L873 720 L872 705 L871 704 L867 683 L858 657 L841 623 L825 600 L809 582 L809 580 L817 563 L823 542 L825 526 L826 525 L827 503 L828 502 L827 475 L826 474 L825 461 L818 437 L811 421 L801 405 L793 395 L771 375 L755 365 L740 358 L716 351 L711 351 L710 350 L712 296 L710 292 L706 288 L702 286 L698 286 L697 285 L691 286 L687 288 L681 295 L680 299 L679 346 L678 347 L664 347 L663 348 L661 347 L645 308 L644 302 L633 269 L613 178 L608 166 L602 157 L593 148 L587 145 L581 139 L591 106 L591 100 L592 99 L591 80 L579 63 L556 41 L549 39 Z" fill="#eef3f4" fill-rule="evenodd"/>
</svg>
