<svg xmlns="http://www.w3.org/2000/svg" width="1448" height="1086" viewBox="0 0 1448 1086">
  <title>0285</title>
  <path d="M996 950 L998 950 L1006 945 L1018 933 L1027 921 L1038 911 L1048 906 L1058 905 L1059 904 L1069 905 L1081 910 L1091 918 L1104 933 L1113 941 L1126 949 L1128 949 L1128 948 L1123 946 L1112 938 L1100 924 L1084 909 L1071 903 L1054 902 L1044 905 L1035 910 L1023 922 L1010 939 Z M1167 827 L1168 826 L1169 827 L1168 828 Z M1019 809 L1019 826 L1018 827 L994 827 L991 825 L991 816 L993 810 L1003 810 L1004 809 L1014 809 L1015 808 Z M1099 809 L1101 807 L1102 808 L1124 809 L1126 811 L1126 823 L1127 825 L1126 826 L1100 827 L1098 825 L1099 824 Z M1060 808 L1062 806 L1096 807 L1097 808 L1097 825 L1095 827 L1061 827 L1060 826 Z M1058 808 L1058 826 L1057 827 L1023 827 L1022 826 L1021 810 L1023 808 L1028 808 L1029 807 L1050 807 L1051 806 L1056 806 Z M245 801 L246 800 L247 801 L246 802 Z M561 799 L562 798 L563 799 L562 800 Z M231 787 L232 786 L233 787 L232 788 Z M575 785 L576 784 L577 786 L576 787 Z M952 776 L953 777 L952 806 L951 807 L950 815 L945 828 L943 830 L931 834 L924 834 L919 832 L914 827 L912 822 L912 810 L915 802 L925 791 L936 784 L942 782 Z M1167 773 L1191 783 L1203 791 L1209 797 L1214 808 L1214 820 L1212 825 L1208 830 L1198 835 L1192 835 L1173 829 L1171 827 L1166 813 L1166 808 L1165 807 L1165 778 Z M989 781 L996 778 L1008 776 L1013 774 L1033 772 L1034 771 L1046 771 L1047 770 L1091 771 L1092 772 L1106 773 L1121 777 L1125 777 L1130 780 L1128 786 L1127 800 L1125 807 L1124 806 L1115 806 L1114 805 L1096 805 L1095 804 L1079 804 L1078 803 L1062 803 L1061 804 L1053 803 L1052 804 L1015 805 L1014 806 L1004 806 L1003 807 L995 807 L994 808 L991 807 L992 803 L991 802 L991 793 L990 792 Z M1229 812 L1228 824 L1225 832 L1219 839 L1209 844 L1192 845 L1191 844 L1180 843 L1168 840 L1148 839 L1127 844 L1110 852 L1090 859 L1082 860 L1081 861 L1075 861 L1074 862 L1043 862 L1042 861 L1031 860 L1020 856 L1017 856 L992 845 L973 840 L954 840 L953 841 L935 843 L934 844 L918 844 L911 842 L902 834 L899 828 L897 820 L898 808 L900 802 L909 789 L922 779 L951 765 L953 768 L953 773 L951 775 L938 780 L923 789 L915 797 L911 804 L909 812 L910 825 L913 830 L917 834 L921 836 L931 837 L947 831 L958 830 L959 829 L1089 830 L1090 829 L1127 829 L1128 828 L1164 829 L1181 834 L1184 836 L1192 837 L1193 838 L1204 836 L1212 830 L1216 823 L1217 808 L1215 802 L1211 795 L1198 784 L1180 775 L1167 771 L1166 770 L1167 769 L1167 765 L1169 762 L1190 770 L1212 783 L1224 796 L1228 806 L1228 811 Z M1017 748 L1019 750 L1018 753 L1019 756 L1019 770 L1014 772 L1001 774 L989 778 L987 774 L986 766 L983 758 L988 754 Z M1100 750 L1103 747 L1104 748 L1109 748 L1134 754 L1136 756 L1136 759 L1133 766 L1131 775 L1128 776 L1115 772 L1101 770 L1099 768 Z M1061 746 L1063 744 L1096 746 L1098 748 L1097 768 L1096 769 L1088 769 L1087 768 L1061 767 L1060 766 L1060 750 Z M1058 746 L1058 766 L1057 767 L1037 768 L1036 769 L1029 769 L1028 770 L1023 770 L1021 766 L1021 749 L1022 748 L1023 749 L1022 748 L1023 747 L1034 746 L1035 745 L1045 745 L1046 744 L1056 744 Z M551 735 L552 734 L553 735 L552 736 Z M550 734 L551 733 L552 734 L551 735 Z M255 733 L256 732 L257 733 L256 734 Z M524 731 L525 730 L526 731 L536 731 L548 736 L555 744 L555 754 L551 759 L548 759 L528 752 L526 750 Z M283 731 L282 745 L281 749 L279 751 L276 751 L273 753 L258 758 L253 756 L251 748 L252 747 L252 743 L256 737 L268 731 L274 731 L275 730 L282 730 Z M957 727 L961 727 L969 735 L978 751 L982 762 L986 779 L987 792 L988 793 L989 819 L987 826 L964 826 L963 827 L955 827 L954 828 L949 828 L948 827 L953 815 L953 811 L955 805 L955 797 L956 796 L956 770 L955 769 L954 737 L955 736 L955 731 Z M1166 726 L1168 729 L1168 743 L1167 744 L1167 751 L1166 752 L1163 777 L1162 778 L1162 792 L1161 795 L1162 796 L1163 813 L1168 826 L1167 827 L1162 827 L1161 826 L1130 826 L1129 825 L1130 792 L1131 791 L1133 776 L1138 760 L1144 747 L1150 738 L1161 727 Z M895 812 L895 822 L900 835 L908 843 L916 846 L936 846 L937 845 L957 843 L958 842 L976 843 L993 848 L1003 853 L1022 860 L1039 864 L1045 864 L1046 865 L1070 865 L1071 864 L1083 863 L1101 858 L1126 847 L1145 842 L1164 842 L1165 843 L1172 843 L1173 844 L1189 846 L1190 847 L1207 847 L1216 844 L1225 836 L1229 829 L1231 822 L1230 804 L1222 789 L1212 780 L1199 772 L1168 759 L1169 751 L1170 750 L1170 744 L1171 743 L1171 730 L1170 726 L1166 723 L1163 723 L1159 725 L1148 736 L1138 752 L1113 746 L1100 745 L1099 744 L1087 743 L1086 742 L1071 742 L1070 741 L1056 742 L1053 741 L1052 742 L1037 742 L1036 743 L1029 743 L1016 746 L1010 746 L986 752 L983 754 L981 753 L978 744 L968 729 L962 724 L958 723 L954 726 L952 731 L952 741 L951 742 L952 762 L923 776 L912 783 L905 790 L899 799 Z M1138 721 L1139 720 L1140 721 L1139 722 Z M983 721 L984 720 L986 721 L985 722 Z M336 731 L339 729 L357 724 L373 722 L374 721 L384 721 L385 720 L429 720 L430 721 L438 721 L439 722 L445 722 L446 723 L463 726 L473 730 L467 741 L460 741 L459 740 L419 740 L418 739 L378 739 L377 740 L349 740 L348 741 L342 741 Z M523 716 L527 715 L539 720 L549 729 L551 733 L549 734 L545 731 L535 728 L524 728 L523 727 Z M284 715 L284 721 L282 727 L274 727 L263 730 L258 733 L256 732 L264 723 L270 719 L283 714 Z M1087 706 L1088 705 L1089 706 L1088 707 Z M521 705 L522 706 L521 736 L524 749 L523 750 L500 744 L512 719 Z M330 721 L332 718 L348 712 L369 708 L370 707 L385 706 L386 705 L428 705 L429 706 L438 706 L439 707 L444 707 L445 708 L462 711 L465 713 L473 715 L480 719 L475 727 L459 722 L439 719 L438 718 L431 718 L430 717 L385 717 L384 718 L375 718 L374 719 L368 719 L367 720 L362 720 L352 723 L348 723 L336 728 L333 726 Z M286 704 L296 719 L301 730 L303 732 L303 734 L308 744 L307 745 L301 745 L287 749 L284 748 L285 739 L286 738 L286 727 L287 726 L286 712 L285 711 L285 705 Z M1094 706 L1096 704 L1107 699 L1121 698 L1122 699 L1126 699 L1134 703 L1139 708 L1141 714 L1134 721 L1123 721 L1116 719 L1104 713 L1102 711 L1095 708 Z M984 716 L985 708 L993 701 L1001 698 L1015 698 L1019 699 L1031 706 L1020 713 L1002 721 L990 721 L987 720 Z M584 722 L581 712 L573 698 L566 692 L572 700 L578 712 L581 722 L582 739 L583 740 L582 757 L578 774 L571 787 L562 795 L551 799 L536 798 L504 787 L479 781 L461 779 L460 778 L443 777 L442 776 L429 776 L428 775 L368 775 L367 776 L347 777 L346 778 L329 780 L317 784 L314 784 L311 786 L293 792 L288 795 L272 800 L258 801 L250 799 L242 794 L235 786 L229 773 L227 765 L227 759 L226 758 L226 736 L227 735 L227 729 L229 721 L236 705 L243 696 L244 693 L236 701 L232 707 L226 721 L225 729 L224 730 L224 736 L223 737 L223 758 L224 759 L224 765 L228 778 L231 794 L237 811 L244 825 L252 837 L270 855 L255 838 L243 819 L232 790 L233 788 L242 798 L243 802 L251 816 L262 826 L276 832 L284 832 L286 833 L287 832 L297 832 L298 831 L318 829 L319 828 L333 828 L334 829 L339 829 L351 834 L362 844 L367 852 L370 861 L371 880 L367 894 L363 901 L358 906 L358 908 L366 900 L372 887 L373 883 L373 862 L371 858 L371 855 L366 845 L356 834 L345 828 L338 826 L331 826 L330 825 L313 826 L312 827 L291 829 L290 830 L282 830 L281 829 L272 828 L261 822 L254 815 L246 802 L249 801 L258 804 L272 803 L288 798 L293 795 L298 794 L314 787 L329 783 L345 781 L346 780 L353 780 L354 779 L384 778 L385 777 L412 777 L413 778 L433 778 L434 779 L455 780 L456 781 L469 782 L470 783 L497 788 L532 800 L540 801 L541 802 L550 802 L559 799 L562 800 L558 807 L548 817 L541 821 L531 824 L515 824 L514 823 L503 822 L491 819 L484 819 L483 818 L466 818 L454 821 L444 827 L439 832 L432 845 L429 858 L429 870 L430 871 L431 881 L433 884 L434 889 L440 900 L447 906 L438 893 L434 882 L433 872 L432 871 L433 851 L436 842 L441 834 L452 825 L466 821 L484 821 L485 822 L491 822 L492 823 L516 826 L517 827 L529 827 L541 824 L551 818 L559 810 L563 804 L566 796 L575 786 L576 787 L575 794 L566 818 L554 838 L541 854 L552 843 L561 831 L570 814 L576 798 L580 777 L581 776 L581 772 L584 763 L584 757 L585 756 L586 739 L585 738 Z M823 688 L827 701 L830 721 L834 735 L833 738 L827 736 L823 732 L822 729 L822 723 L821 722 L821 694 Z M821 685 L822 684 L823 685 L822 686 Z M573 731 L573 750 L569 767 L566 773 L559 780 L552 783 L535 782 L502 772 L498 772 L483 768 L472 767 L471 766 L465 766 L464 765 L445 764 L444 763 L430 763 L429 762 L374 762 L373 763 L349 764 L348 765 L341 765 L340 766 L324 768 L308 772 L275 784 L260 786 L252 784 L244 778 L237 765 L236 756 L235 755 L235 737 L236 736 L237 725 L240 716 L245 706 L250 699 L263 686 L269 683 L272 685 L284 702 L283 703 L283 711 L267 718 L259 724 L254 730 L249 741 L248 749 L250 756 L252 759 L256 761 L259 761 L268 757 L292 750 L307 748 L308 747 L323 746 L324 745 L353 744 L354 743 L451 743 L452 744 L471 744 L472 745 L483 745 L484 746 L498 747 L523 753 L547 762 L551 762 L557 757 L558 754 L558 742 L554 732 L543 720 L524 711 L524 701 L538 681 L548 686 L560 698 L569 714 Z M276 674 L279 674 L289 680 L308 697 L320 711 L337 737 L338 740 L337 741 L315 743 L314 744 L310 743 L304 728 L299 719 L273 681 L273 677 Z M533 673 L536 676 L536 679 L509 719 L501 735 L499 742 L497 744 L494 744 L493 743 L472 741 L471 740 L478 727 L498 700 L517 681 L524 676 L530 673 Z M576 734 L575 733 L575 725 L572 714 L564 699 L552 686 L548 683 L540 680 L538 678 L538 674 L533 670 L527 671 L515 679 L494 700 L482 716 L457 707 L442 705 L441 704 L420 703 L419 702 L394 702 L393 703 L381 703 L380 704 L373 704 L372 705 L357 707 L337 713 L328 717 L313 698 L301 686 L284 673 L279 671 L275 671 L271 674 L270 680 L254 691 L242 706 L234 726 L233 738 L232 739 L232 753 L233 754 L234 764 L240 777 L249 785 L257 788 L268 788 L276 786 L306 775 L309 775 L325 770 L330 770 L343 767 L351 767 L352 766 L380 765 L381 764 L422 764 L423 765 L440 765 L441 766 L452 766 L453 767 L469 768 L470 769 L482 770 L497 774 L501 774 L542 786 L550 786 L557 784 L562 781 L570 771 L575 756 Z M450 668 L459 661 L471 656 L483 656 L491 661 L491 667 L488 670 L479 673 L469 673 Z M321 662 L325 658 L329 656 L342 656 L355 661 L363 667 L360 669 L353 670 L349 672 L333 673 L323 669 L321 666 Z M1098 649 L1099 648 L1100 649 L1099 650 Z M1025 648 L1026 647 L1027 648 L1026 649 Z M1113 642 L1121 640 L1126 640 L1127 641 L1135 642 L1143 646 L1153 655 L1161 669 L1164 681 L1163 699 L1161 705 L1156 713 L1146 720 L1143 721 L1139 720 L1143 716 L1143 709 L1142 707 L1137 702 L1127 697 L1123 696 L1109 696 L1100 699 L1089 706 L1088 705 L1093 687 L1094 667 L1095 666 L1096 658 L1098 654 L1106 646 Z M1012 641 L1020 646 L1026 652 L1029 657 L1031 685 L1032 686 L1033 695 L1037 706 L1036 707 L1029 701 L1017 696 L1013 696 L1012 695 L999 696 L990 700 L983 706 L981 710 L981 716 L984 720 L980 721 L974 718 L966 710 L963 704 L961 697 L961 679 L963 671 L971 656 L983 645 L994 640 L1008 640 Z M958 639 L946 648 L937 658 L930 669 L917 695 L908 707 L902 713 L892 720 L876 726 L859 726 L858 725 L868 722 L878 717 L893 704 L904 689 L920 662 L933 649 L946 641 L954 638 Z M1167 638 L1170 637 L1180 640 L1194 648 L1207 661 L1229 698 L1240 710 L1246 715 L1259 722 L1272 725 L1268 727 L1250 726 L1239 722 L1227 714 L1221 708 L1212 696 L1198 668 L1190 656 L1181 647 Z M957 638 L958 637 L960 638 L959 639 Z M960 637 L961 636 L962 637 L961 638 Z M658 601 L659 602 L659 607 L658 608 L657 607 L657 602 Z M1147 600 L1148 599 L1149 600 L1148 601 Z M977 600 L978 599 L980 600 L979 601 Z M1145 599 L1146 598 L1147 599 L1146 600 Z M1129 597 L1130 596 L1132 597 L1131 598 Z M840 597 L841 596 L842 597 L841 598 Z M1277 595 L1288 596 L1297 602 L1304 614 L1309 632 L1310 671 L1309 672 L1309 681 L1308 682 L1307 692 L1304 699 L1298 705 L1291 707 L1279 705 L1269 700 L1255 688 L1247 677 L1241 665 L1237 650 L1238 634 L1240 627 L1245 618 L1259 603 L1269 597 Z M857 595 L864 597 L873 602 L880 608 L887 617 L891 625 L894 636 L893 652 L888 666 L883 675 L868 693 L852 704 L846 706 L836 706 L829 699 L825 683 L825 677 L824 676 L824 642 L825 641 L825 634 L828 622 L837 604 L842 599 L848 596 Z M848 583 L857 578 L864 578 L872 581 L882 588 L902 607 L922 623 L940 633 L948 635 L951 637 L939 642 L929 649 L924 654 L914 667 L899 693 L886 708 L877 715 L865 721 L857 723 L848 723 L849 725 L852 725 L860 728 L877 728 L887 725 L898 719 L911 707 L917 699 L933 668 L939 659 L951 647 L961 640 L971 635 L989 629 L1006 628 L1017 633 L1021 637 L1026 646 L1025 648 L1020 643 L1010 638 L997 637 L989 639 L981 643 L970 653 L966 659 L959 675 L957 687 L944 708 L932 721 L921 730 L884 752 L876 760 L872 766 L868 776 L867 789 L868 789 L870 775 L878 761 L888 752 L910 740 L930 726 L943 713 L953 699 L957 691 L958 692 L958 697 L960 703 L949 720 L933 736 L917 747 L912 749 L898 758 L887 769 L879 785 L877 793 L877 803 L876 804 L877 807 L877 820 L883 843 L891 861 L904 880 L910 892 L917 916 L923 929 L928 936 L938 945 L946 949 L958 952 L971 951 L984 946 L996 936 L1004 925 L1008 916 L1010 908 L1010 901 L1011 900 L1010 888 L1007 878 L1002 869 L996 862 L988 856 L981 853 L973 851 L958 852 L952 854 L942 860 L936 866 L930 875 L926 889 L926 900 L927 901 L928 909 L933 919 L943 929 L949 932 L957 934 L965 934 L973 932 L981 928 L990 919 L995 910 L997 902 L997 891 L992 878 L984 870 L975 866 L963 866 L954 870 L949 875 L946 880 L944 887 L944 895 L947 903 L953 909 L960 912 L968 911 L972 909 L976 905 L979 897 L978 896 L978 892 L975 887 L969 884 L963 885 L961 887 L962 888 L965 886 L971 887 L975 891 L976 894 L975 902 L969 908 L959 909 L951 904 L947 896 L947 885 L950 878 L957 871 L966 868 L976 869 L981 871 L988 877 L994 889 L994 904 L989 916 L978 927 L972 930 L964 932 L950 930 L943 926 L936 919 L932 913 L929 903 L929 895 L928 893 L929 892 L930 882 L933 874 L938 867 L946 860 L953 856 L959 854 L970 853 L971 854 L980 855 L991 861 L999 869 L1006 882 L1007 891 L1008 892 L1008 904 L1005 917 L998 930 L987 941 L979 946 L969 949 L955 949 L945 946 L935 940 L930 935 L923 925 L917 910 L911 889 L905 877 L893 860 L884 839 L880 822 L880 816 L879 815 L879 798 L883 781 L890 769 L901 759 L917 750 L939 734 L952 720 L961 706 L964 712 L972 720 L980 724 L985 724 L986 725 L996 725 L1010 721 L1031 709 L1035 709 L1045 718 L1056 723 L1072 722 L1078 719 L1088 710 L1093 709 L1104 716 L1119 723 L1128 724 L1129 725 L1139 725 L1146 723 L1156 717 L1164 705 L1175 720 L1188 732 L1199 740 L1225 755 L1239 768 L1246 781 L1248 789 L1248 796 L1249 797 L1248 821 L1247 822 L1245 835 L1240 849 L1231 865 L1218 881 L1212 893 L1206 914 L1200 926 L1184 942 L1172 947 L1157 948 L1145 945 L1135 940 L1122 927 L1116 916 L1113 905 L1113 889 L1116 878 L1119 872 L1134 857 L1146 852 L1163 852 L1176 857 L1188 868 L1193 877 L1195 885 L1195 899 L1193 907 L1188 916 L1179 925 L1167 930 L1154 930 L1142 925 L1133 916 L1128 906 L1127 891 L1132 878 L1142 869 L1147 867 L1155 866 L1167 870 L1174 877 L1177 886 L1176 895 L1174 899 L1167 906 L1164 907 L1155 907 L1153 906 L1147 899 L1147 892 L1153 885 L1161 886 L1159 883 L1153 883 L1150 884 L1145 890 L1145 894 L1144 895 L1145 901 L1150 907 L1157 910 L1163 910 L1170 907 L1176 901 L1178 897 L1179 883 L1175 874 L1167 867 L1158 864 L1149 864 L1139 868 L1132 874 L1128 880 L1125 888 L1125 894 L1124 895 L1125 904 L1127 910 L1132 919 L1141 927 L1153 932 L1168 932 L1172 931 L1180 927 L1188 920 L1195 908 L1197 901 L1198 888 L1197 887 L1196 878 L1191 868 L1185 861 L1177 855 L1168 851 L1160 850 L1159 849 L1145 850 L1139 852 L1127 859 L1121 865 L1113 879 L1111 887 L1111 892 L1110 893 L1110 901 L1111 902 L1112 911 L1119 927 L1131 940 L1143 947 L1154 950 L1169 950 L1182 946 L1192 939 L1197 934 L1204 924 L1218 886 L1237 860 L1244 846 L1249 829 L1250 818 L1251 817 L1251 793 L1246 775 L1237 762 L1225 752 L1202 739 L1187 728 L1174 715 L1168 707 L1165 701 L1166 697 L1170 693 L1178 705 L1196 723 L1212 734 L1238 748 L1246 754 L1252 760 L1258 770 L1262 787 L1262 780 L1261 779 L1260 771 L1254 759 L1245 750 L1207 728 L1193 717 L1184 708 L1168 686 L1166 682 L1166 677 L1163 667 L1158 657 L1150 648 L1143 643 L1131 638 L1118 638 L1114 639 L1106 643 L1100 649 L1099 647 L1104 639 L1109 634 L1120 629 L1135 629 L1160 637 L1177 647 L1189 659 L1199 675 L1199 677 L1201 679 L1201 681 L1208 694 L1217 707 L1227 717 L1234 722 L1248 728 L1267 729 L1268 728 L1276 727 L1282 725 L1283 723 L1279 724 L1278 723 L1271 723 L1258 719 L1252 716 L1240 707 L1227 691 L1208 658 L1193 644 L1181 638 L1186 635 L1189 635 L1202 629 L1214 621 L1250 590 L1260 583 L1268 579 L1279 578 L1285 580 L1290 584 L1295 592 L1296 595 L1295 597 L1287 593 L1273 593 L1260 599 L1248 610 L1241 620 L1236 632 L1236 636 L1235 637 L1235 653 L1239 666 L1246 680 L1251 687 L1266 701 L1273 705 L1285 709 L1294 709 L1302 705 L1306 700 L1307 701 L1303 728 L1297 754 L1285 792 L1283 795 L1274 822 L1262 849 L1262 851 L1252 870 L1252 872 L1250 874 L1241 893 L1211 945 L1205 954 L1193 966 L1184 971 L1174 974 L1165 974 L1164 975 L1150 974 L1149 973 L1140 972 L1119 965 L1108 960 L1084 953 L1071 952 L1070 951 L1057 951 L1056 952 L1044 953 L1032 957 L1015 966 L997 973 L989 974 L988 975 L981 975 L980 976 L968 976 L967 975 L957 974 L943 968 L936 963 L927 954 L917 940 L909 926 L887 882 L887 880 L873 850 L851 789 L851 786 L842 758 L838 742 L838 738 L835 729 L835 725 L833 720 L833 716 L831 710 L832 706 L838 709 L844 709 L848 707 L851 707 L867 697 L878 686 L887 673 L891 665 L896 648 L895 630 L887 613 L876 601 L866 595 L860 593 L850 593 L842 596 L841 595 L842 592 Z M1022 575 L1020 576 L1020 584 L1017 595 L1010 608 L1014 605 L1018 598 L1021 588 Z M1109 573 L1108 580 L1109 581 L1110 593 L1113 600 L1117 606 L1120 608 L1112 593 L1111 585 L1110 584 L1110 574 Z M1063 567 L1067 570 L1072 580 L1072 582 L1079 597 L1081 605 L1083 608 L1091 639 L1092 658 L1093 659 L1092 660 L1091 685 L1090 686 L1088 700 L1085 707 L1074 718 L1069 720 L1056 720 L1046 715 L1042 711 L1037 702 L1034 689 L1034 683 L1033 682 L1032 659 L1033 658 L1033 647 L1034 646 L1035 636 L1044 606 L1053 586 L1053 584 L1059 572 Z M1008 565 L1009 566 L1009 577 L1005 591 L989 598 L980 600 L979 599 L987 595 L999 584 L1005 574 Z M1123 563 L1126 575 L1130 583 L1140 594 L1146 598 L1145 599 L1142 599 L1126 592 L1122 578 L1122 564 Z M455 561 L456 562 L455 565 L454 564 Z M146 546 L151 546 L153 549 L155 580 L156 581 L156 588 L157 589 L158 603 L159 604 L160 618 L161 619 L162 650 L163 651 L164 666 L166 672 L166 676 L165 677 L152 676 L148 673 L145 667 L144 630 L145 629 L145 596 L146 595 L146 558 L145 557 L145 547 Z M669 545 L677 547 L677 555 L676 556 L676 607 L677 608 L677 653 L676 654 L676 666 L674 672 L671 675 L666 677 L654 677 L652 675 L655 664 L656 636 L657 635 L657 629 L658 628 L659 616 L661 609 L661 603 L662 602 L662 596 L664 588 L665 571 L666 570 L667 551 Z M1034 534 L1038 529 L1043 529 L1048 531 L1057 531 L1058 532 L1062 531 L1063 532 L1065 531 L1081 531 L1087 529 L1093 529 L1096 532 L1095 538 L1092 541 L1086 543 L1080 541 L1049 541 L1042 543 L1035 538 Z M1275 530 L1271 529 L1267 531 L1261 537 L1253 550 L1235 586 L1240 580 L1259 544 L1264 537 L1270 532 L1274 532 L1278 538 L1280 546 L1281 563 L1282 563 L1281 540 L1278 533 Z M863 528 L859 533 L857 540 L857 544 L856 545 L856 562 L857 563 L858 547 L859 546 L860 537 L862 533 L867 529 L871 531 L877 538 L892 566 L885 547 L877 534 L869 527 Z M1032 533 L1033 539 L1039 544 L1039 546 L1047 545 L1048 544 L1057 544 L1058 543 L1072 543 L1073 544 L1082 544 L1083 545 L1091 546 L1090 544 L1094 542 L1098 537 L1098 531 L1093 526 L1083 526 L1079 529 L1074 529 L1073 530 L1072 529 L1055 530 L1054 529 L1050 529 L1046 526 L1040 526 L1037 527 Z M1165 522 L1178 522 L1189 527 L1198 537 L1202 547 L1202 560 L1199 569 L1191 579 L1187 582 L1177 586 L1165 586 L1154 581 L1146 573 L1141 561 L1141 547 L1145 537 L1154 527 Z M956 519 L965 519 L972 521 L977 524 L987 535 L991 547 L990 560 L988 566 L984 572 L975 580 L963 584 L953 583 L947 581 L941 577 L934 569 L931 563 L930 555 L929 554 L930 543 L935 532 L943 524 L951 520 L955 520 Z M1168 519 L1160 521 L1154 524 L1144 534 L1139 545 L1138 559 L1143 573 L1151 582 L1163 588 L1174 589 L1185 586 L1196 578 L1199 574 L1204 563 L1205 550 L1203 542 L1194 528 L1183 521 L1175 519 Z M954 517 L947 519 L937 526 L931 534 L927 545 L927 558 L930 567 L938 578 L951 585 L965 586 L978 581 L988 571 L993 559 L993 544 L988 532 L980 523 L971 518 L967 517 Z M1048 518 L1050 516 L1057 516 L1058 515 L1074 515 L1075 516 L1083 516 L1084 517 L1073 520 L1054 520 Z M412 510 L423 520 L428 533 L427 540 L424 545 L416 550 L409 550 L404 548 L399 543 L397 538 L397 532 L400 523 L405 516 Z M1164 506 L1179 506 L1191 510 L1199 515 L1207 523 L1213 532 L1218 549 L1218 557 L1217 558 L1216 568 L1208 584 L1196 595 L1188 599 L1177 602 L1164 602 L1156 600 L1142 592 L1132 581 L1128 573 L1125 562 L1125 549 L1126 545 L1133 530 L1137 524 L1149 512 Z M412 507 L403 515 L398 522 L395 530 L395 540 L398 546 L403 550 L408 552 L417 552 L423 549 L427 545 L430 538 L430 530 L427 522 L422 515 L414 507 Z M954 503 L966 503 L976 506 L981 509 L996 525 L1004 540 L1006 546 L1006 561 L1003 571 L996 583 L983 594 L974 598 L966 599 L965 600 L950 599 L944 597 L932 590 L921 578 L917 570 L914 558 L915 539 L921 525 L933 512 L946 505 Z M1161 503 L1162 502 L1163 503 L1162 504 Z M1163 502 L1164 501 L1165 502 L1164 503 Z M1110 502 L1111 501 L1112 502 L1111 503 Z M1018 501 L1019 500 L1021 501 L1020 502 Z M890 500 L897 504 L906 513 L916 529 L912 540 L911 553 L910 554 L906 545 L898 520 L889 502 Z M1017 500 L1018 499 L1019 500 L1018 501 Z M967 500 L968 499 L969 500 L968 501 Z M542 497 L553 497 L562 501 L569 508 L573 518 L573 527 L568 538 L561 545 L550 549 L539 548 L533 545 L525 537 L521 527 L521 518 L526 507 L534 500 Z M337 498 L338 497 L339 499 L338 500 Z M1255 495 L1251 502 L1247 501 L1240 504 L1230 514 L1225 521 L1218 536 L1212 525 L1201 513 L1189 506 L1174 502 L1188 498 L1204 497 L1205 496 L1219 496 L1220 497 L1235 497 L1239 498 L1240 497 L1246 497 L1253 494 Z M886 495 L888 494 L894 496 L905 496 L906 495 L915 495 L916 494 L930 494 L931 495 L939 495 L940 496 L950 497 L958 500 L957 501 L946 502 L937 506 L931 510 L922 519 L919 525 L917 526 L906 509 L900 503 L893 499 L891 499 L889 497 L887 497 Z M276 494 L287 495 L296 500 L303 509 L305 515 L305 526 L301 535 L293 543 L282 547 L272 546 L264 542 L256 533 L253 524 L254 513 L258 505 L265 498 Z M885 494 L886 493 L887 494 L886 495 Z M544 494 L534 497 L524 506 L519 517 L519 528 L524 540 L529 545 L538 550 L551 551 L552 550 L556 550 L562 547 L571 538 L575 529 L575 515 L573 510 L568 503 L562 498 L555 495 Z M377 497 L386 494 L398 493 L399 492 L425 492 L426 493 L438 494 L444 496 L448 499 L447 502 L447 520 L448 521 L448 531 L449 532 L450 551 L451 552 L451 565 L452 566 L452 611 L451 612 L451 620 L450 621 L449 632 L441 658 L442 658 L447 648 L452 631 L454 617 L459 607 L469 598 L476 596 L483 596 L492 599 L501 607 L508 619 L511 629 L511 634 L512 635 L512 651 L511 652 L511 656 L507 666 L501 672 L496 675 L488 677 L481 677 L480 676 L490 672 L495 665 L494 660 L489 655 L484 653 L470 653 L464 655 L452 662 L430 681 L422 685 L414 687 L403 687 L392 684 L380 677 L365 664 L356 658 L343 653 L338 653 L337 652 L328 653 L323 655 L318 660 L317 663 L318 668 L322 672 L326 674 L329 674 L330 675 L329 676 L319 676 L312 673 L305 666 L302 660 L300 652 L301 637 L305 624 L311 613 L322 601 L331 596 L339 595 L340 594 L347 595 L354 598 L362 606 L367 619 L367 625 L368 626 L368 632 L369 633 L370 641 L374 653 L377 658 L377 655 L375 652 L375 649 L372 641 L372 636 L370 630 L370 623 L369 622 L369 574 L370 573 L370 559 L371 558 L371 549 L372 548 L372 539 L373 538 L373 529 L374 528 L375 499 Z M274 492 L267 494 L261 498 L254 506 L251 514 L251 527 L255 536 L261 543 L271 548 L283 549 L294 545 L301 539 L307 528 L308 517 L305 507 L296 497 L285 492 Z M541 485 L554 485 L561 487 L570 492 L580 503 L583 509 L585 517 L584 532 L579 543 L571 552 L565 556 L555 560 L539 560 L527 555 L516 545 L510 532 L509 520 L510 519 L510 514 L514 504 L525 492 L534 487 Z M844 484 L845 485 L845 521 L844 522 L844 538 L843 539 L843 553 L842 554 L842 565 L841 566 L840 591 L837 600 L831 608 L829 613 L828 612 L828 596 L829 595 L829 570 L830 569 L830 546 L831 545 L832 497 L833 496 L833 489 L834 487 L838 484 Z M1296 483 L1303 483 L1307 487 L1307 500 L1308 501 L1308 547 L1309 548 L1309 597 L1310 598 L1310 619 L1309 620 L1306 611 L1300 601 L1298 594 L1298 588 L1297 587 L1297 572 L1296 571 L1296 556 L1295 555 L1295 532 L1294 531 L1294 492 L1295 491 L1295 484 Z M271 483 L287 483 L298 487 L311 499 L316 510 L317 525 L314 536 L310 543 L299 553 L286 558 L272 558 L259 553 L250 545 L246 539 L242 529 L241 516 L246 501 L256 490 Z M544 482 L543 483 L535 484 L528 487 L522 491 L513 501 L508 512 L507 516 L507 530 L510 540 L517 550 L525 557 L537 562 L551 563 L565 559 L571 555 L579 547 L585 537 L587 530 L587 513 L583 503 L579 497 L573 491 L567 487 L557 483 Z M372 491 L375 488 L385 484 L395 483 L396 482 L408 482 L409 481 L428 482 L429 483 L439 484 L447 487 L451 490 L449 494 L447 495 L444 493 L432 490 L400 489 L399 490 L392 490 L391 491 L383 492 L377 494 L375 496 Z M488 481 L488 485 L490 488 L491 485 Z M674 479 L686 479 L690 482 L691 485 L690 507 L689 508 L689 516 L688 517 L687 528 L686 529 L685 537 L683 541 L680 543 L669 543 L668 542 L669 538 L669 525 L670 524 L670 513 L671 512 L672 486 Z M273 480 L265 482 L257 486 L245 498 L239 513 L239 527 L241 535 L244 541 L252 551 L266 559 L275 560 L276 561 L283 561 L295 558 L302 554 L309 548 L317 535 L320 523 L320 516 L319 515 L318 507 L314 499 L304 488 L296 483 L286 480 Z M136 479 L143 479 L145 478 L147 480 L150 522 L151 523 L151 536 L152 537 L152 542 L151 543 L142 543 L138 539 L137 536 L137 532 L133 516 L133 511 L132 510 L131 495 L130 494 L131 483 Z M1119 468 L1120 467 L1121 468 L1120 469 Z M1013 468 L1014 467 L1015 468 L1014 469 Z M1012 467 L1013 466 L1014 467 L1013 468 Z M634 466 L632 466 L629 471 L629 473 L622 487 L621 493 L623 491 L624 486 L631 472 L631 470 Z M608 477 L610 485 L610 495 L609 496 L608 509 L603 526 L593 545 L580 559 L573 564 L557 571 L547 572 L546 573 L533 573 L532 572 L527 572 L512 566 L502 557 L493 540 L492 532 L491 531 L491 513 L498 499 L514 482 L521 477 L535 470 L559 464 L574 464 L575 465 L581 465 L589 467 Z M212 478 L215 475 L228 468 L237 465 L248 464 L249 463 L273 464 L288 468 L299 473 L307 478 L321 491 L331 507 L332 510 L332 520 L331 521 L330 531 L326 542 L321 550 L313 558 L303 564 L293 567 L273 567 L262 564 L251 559 L240 551 L233 544 L224 532 L219 522 L213 502 Z M180 461 L181 464 L189 474 L199 496 L198 490 L190 474 Z M859 454 L860 453 L861 455 L860 456 Z M858 452 L859 451 L860 452 L859 453 Z M1010 450 L1011 449 L1012 450 L1011 451 Z M360 455 L364 452 L373 449 L385 448 L386 447 L400 447 L401 446 L420 446 L421 447 L443 448 L458 452 L462 455 L454 472 L454 478 L453 479 L454 486 L452 488 L450 486 L440 482 L432 481 L431 480 L425 480 L424 479 L393 480 L380 483 L372 488 L370 488 L368 486 L367 471 L360 457 Z M1103 445 L1114 446 L1120 453 L1119 465 L1113 471 L1108 473 L1100 472 L1096 469 L1093 463 L1094 453 L1098 448 Z M1020 445 L1030 444 L1033 445 L1039 451 L1041 456 L1041 461 L1040 465 L1036 470 L1032 472 L1023 472 L1019 470 L1015 466 L1012 459 L1012 456 L1014 451 Z M1283 443 L1282 442 L1276 452 L1264 464 L1252 471 L1245 473 L1239 473 L1238 474 L1208 473 L1207 474 L1198 474 L1197 475 L1187 476 L1170 482 L1151 493 L1132 511 L1123 524 L1117 536 L1114 545 L1111 562 L1112 562 L1117 542 L1127 522 L1140 506 L1154 494 L1174 483 L1189 478 L1200 477 L1201 476 L1242 476 L1250 474 L1257 471 L1266 465 L1276 455 L1281 448 Z M854 441 L856 452 L864 474 L886 520 L906 574 L916 590 L927 601 L933 605 L944 610 L956 613 L973 613 L985 610 L995 605 L1003 599 L1010 587 L1011 579 L1012 578 L1011 554 L1006 538 L998 523 L980 504 L968 496 L956 490 L939 485 L934 485 L933 484 L898 484 L897 483 L893 483 L884 479 L877 474 L871 467 L869 467 L883 481 L895 486 L929 486 L930 487 L937 487 L949 490 L959 494 L967 499 L965 500 L951 495 L936 493 L935 492 L911 492 L910 493 L898 493 L897 494 L896 493 L890 493 L883 489 L881 489 L881 491 L896 521 L904 545 L914 570 L922 584 L930 592 L941 599 L954 603 L962 603 L963 604 L979 603 L997 597 L1000 595 L1002 596 L992 604 L983 608 L975 610 L961 611 L960 610 L954 610 L943 607 L935 603 L923 594 L912 580 L906 568 L891 526 L867 476 L865 469 L862 464 L860 456 L861 455 L874 467 L881 471 L890 474 L895 474 L896 475 L905 475 L906 474 L931 474 L932 475 L937 475 L957 481 L975 491 L982 496 L998 512 L1005 522 L1014 540 L1018 553 L1019 564 L1021 564 L1020 554 L1016 538 L1007 520 L998 508 L981 492 L956 478 L944 474 L934 473 L933 472 L924 472 L923 471 L891 472 L880 468 L872 463 L862 453 Z M826 425 L827 426 L829 444 L831 451 L834 483 L831 486 L830 495 L829 496 L827 568 L826 569 L826 595 L825 596 L825 624 L823 631 L822 630 L822 568 L823 567 L824 463 L825 462 L825 426 Z M825 417 L826 418 L825 422 L824 421 Z M135 404 L138 407 L140 431 L141 432 L144 461 L146 469 L146 475 L145 476 L138 476 L137 475 L135 467 L135 462 L134 461 L134 455 L133 454 L131 429 L130 428 L130 410 Z M683 403 L686 404 L690 409 L690 429 L689 430 L688 447 L687 448 L687 455 L686 456 L686 462 L684 469 L684 475 L683 476 L674 476 L673 474 L674 473 L675 452 L676 451 L676 443 L677 442 L679 411 L680 410 L680 404 Z M319 395 L320 394 L321 395 L320 396 Z M643 385 L642 385 L642 389 L641 390 L637 411 L633 422 L626 436 L610 455 L601 450 L584 446 L568 446 L567 447 L554 448 L536 454 L522 461 L508 471 L496 483 L490 491 L484 503 L483 511 L482 512 L483 514 L487 514 L488 513 L489 514 L488 518 L488 531 L491 543 L497 555 L507 566 L520 573 L526 575 L532 575 L533 576 L554 575 L574 567 L581 562 L592 551 L599 541 L607 524 L607 521 L611 509 L612 494 L613 493 L612 477 L604 471 L594 466 L580 462 L573 462 L572 461 L553 462 L537 466 L522 473 L512 480 L498 494 L492 503 L491 507 L487 508 L486 506 L491 495 L498 485 L512 471 L525 462 L535 457 L540 456 L546 453 L558 450 L563 450 L564 449 L587 449 L602 453 L610 457 L610 455 L615 452 L624 443 L633 428 L641 404 L642 394 L643 393 Z M956 381 L957 380 L958 382 L957 383 Z M165 378 L164 379 L165 381 L165 388 L168 401 L177 422 L183 432 L192 443 L203 452 L205 452 L193 441 L179 421 L172 406 L168 394 Z M1326 370 L1327 371 L1327 381 L1326 382 L1326 395 L1325 396 L1323 426 L1322 427 L1322 442 L1321 443 L1321 478 L1322 479 L1322 504 L1323 505 L1324 553 L1325 554 L1325 587 L1326 588 L1326 651 L1327 652 L1326 713 L1325 714 L1325 726 L1323 732 L1317 737 L1307 738 L1304 736 L1304 734 L1306 729 L1306 723 L1309 710 L1309 701 L1310 700 L1312 673 L1313 672 L1313 599 L1312 598 L1311 507 L1310 506 L1310 488 L1307 482 L1307 477 L1308 476 L1308 469 L1309 468 L1309 461 L1310 460 L1310 452 L1311 451 L1312 433 L1313 432 L1316 403 L1321 382 Z M920 370 L921 369 L922 371 L921 372 Z M884 367 L885 366 L886 368 L885 369 Z M416 379 L410 370 L409 366 L411 365 L417 367 L423 365 L424 366 L419 376 Z M408 365 L409 364 L410 365 L409 366 Z M1214 364 L1215 363 L1216 364 L1215 365 Z M1215 361 L1216 360 L1217 362 L1216 363 Z M1216 358 L1217 357 L1218 359 L1217 360 Z M414 345 L421 346 L426 352 L426 358 L420 364 L413 364 L407 358 L407 351 Z M1315 344 L1320 346 L1324 350 L1326 354 L1327 364 L1321 377 L1315 398 L1313 417 L1312 418 L1312 425 L1311 426 L1311 433 L1310 434 L1310 443 L1309 444 L1309 451 L1308 452 L1306 478 L1304 481 L1302 480 L1298 480 L1297 481 L1296 477 L1297 476 L1297 471 L1299 465 L1302 441 L1303 440 L1305 414 L1306 413 L1306 399 L1307 398 L1307 354 L1306 353 L1306 345 L1307 344 Z M828 340 L833 340 L834 341 L833 345 L833 358 L832 359 L832 382 L833 383 L833 394 L834 395 L835 410 L836 411 L836 417 L837 418 L837 424 L838 425 L838 431 L839 432 L839 438 L841 446 L841 453 L842 454 L842 461 L843 462 L843 469 L844 470 L844 479 L845 480 L844 482 L842 481 L837 482 L836 481 L836 470 L835 469 L835 461 L834 460 L831 432 L830 431 L830 426 L829 425 L824 396 L819 376 L819 368 L818 367 L819 351 L823 343 Z M1129 312 L1135 324 L1139 340 L1139 355 L1138 356 L1138 361 L1136 369 L1126 388 L1117 398 L1103 408 L1097 411 L1079 416 L1062 417 L1061 416 L1047 415 L1034 411 L1017 401 L1008 392 L1002 384 L995 369 L993 361 L992 345 L993 344 L994 333 L997 324 L1007 308 L1008 311 L1005 320 L1005 337 L1009 350 L1016 361 L1022 367 L1034 375 L1048 380 L1064 381 L1065 382 L1066 381 L1082 380 L1094 376 L1107 368 L1117 358 L1125 344 L1127 336 L1127 330 L1128 329 L1127 317 L1124 308 L1125 307 Z M1007 308 L1008 307 L1009 308 L1008 309 Z M1123 307 L1124 306 L1125 307 L1124 308 Z M1122 305 L1123 304 L1124 305 L1123 306 Z M418 294 L427 311 L430 322 L430 347 L428 351 L426 347 L420 343 L413 343 L409 345 L405 350 L403 348 L403 328 L406 315 L412 302 Z M557 290 L558 293 L557 294 L555 314 L554 315 L551 355 L550 356 L549 367 L545 379 L538 391 L530 399 L519 404 L509 403 L504 399 L515 396 L520 393 L528 385 L535 373 L540 359 L541 351 L543 346 L543 341 L545 335 L545 329 L547 323 L549 308 L552 299 Z M419 291 L417 291 L405 312 L402 321 L401 333 L400 334 L400 342 L401 343 L402 355 L408 371 L416 382 L418 381 L422 375 L429 361 L432 349 L432 344 L433 343 L433 326 L432 325 L431 316 L428 308 Z M662 289 L663 288 L664 289 L663 290 Z M557 289 L558 288 L559 289 L558 290 Z M1267 284 L1268 283 L1269 284 L1268 285 Z M266 283 L272 290 L280 309 L281 321 L282 322 L283 347 L284 348 L286 362 L290 373 L296 383 L302 389 L313 395 L319 395 L320 396 L314 400 L304 401 L293 396 L283 386 L275 372 L271 359 L270 349 L269 348 L269 340 L268 339 L267 297 L266 296 L266 288 L265 287 Z M1046 280 L1054 278 L1061 278 L1062 277 L1072 277 L1073 278 L1085 279 L1094 282 L1105 288 L1116 298 L1120 304 L1124 313 L1125 322 L1126 323 L1124 339 L1117 354 L1108 364 L1100 370 L1090 375 L1075 379 L1056 379 L1055 378 L1050 378 L1032 371 L1026 367 L1014 354 L1009 343 L1008 335 L1007 334 L1007 322 L1011 308 L1015 301 L1023 292 L1030 287 Z M150 277 L151 276 L152 278 L151 279 Z M869 276 L870 275 L871 276 L870 277 Z M1160 274 L1165 277 L1177 289 L1183 301 L1184 310 L1185 311 L1185 327 L1184 328 L1182 346 L1172 386 L1161 419 L1153 435 L1144 448 L1129 463 L1121 468 L1120 467 L1124 460 L1125 452 L1126 451 L1126 444 L1123 435 L1136 422 L1146 407 L1157 383 L1166 350 L1168 331 L1169 330 L1169 308 L1168 307 L1168 301 L1167 300 L1166 292 L1158 275 Z M1057 275 L1041 279 L1027 286 L1019 292 L1003 309 L995 323 L991 335 L991 340 L990 341 L991 364 L995 376 L1004 391 L1017 404 L1026 410 L1041 416 L1049 418 L1054 418 L1055 419 L1083 418 L1096 414 L1106 409 L1116 402 L1129 388 L1136 376 L1140 364 L1141 351 L1142 350 L1141 336 L1136 320 L1130 309 L1112 290 L1103 284 L1087 277 L1078 276 L1077 275 Z M870 275 L871 274 L872 275 L871 276 Z M1234 274 L1235 273 L1236 274 L1235 275 Z M1157 274 L1158 273 L1159 274 L1158 275 Z M1233 273 L1234 272 L1235 273 L1234 274 Z M1199 272 L1200 271 L1201 272 L1200 273 Z M848 272 L849 271 L850 272 L849 273 Z M979 268 L981 269 L977 274 L972 284 L967 305 L966 327 L967 328 L968 348 L975 378 L988 407 L1000 424 L1012 435 L1008 444 L1008 454 L1010 458 L1010 461 L1013 466 L1012 467 L1003 461 L989 446 L982 436 L974 421 L974 419 L967 404 L964 392 L961 385 L956 365 L954 351 L953 350 L952 339 L951 338 L950 305 L953 294 L959 283 L969 273 Z M356 272 L360 267 L366 267 L369 270 L369 275 L366 278 L361 279 L357 276 Z M471 265 L475 265 L479 269 L479 274 L474 278 L468 276 L466 273 L467 268 Z M362 264 L356 267 L354 275 L358 280 L365 281 L370 277 L371 270 L368 266 Z M471 263 L468 264 L465 267 L464 273 L467 278 L471 280 L475 280 L479 278 L481 275 L481 268 L479 265 L475 263 Z M940 261 L941 260 L942 261 L941 262 Z M1289 260 L1290 259 L1291 260 L1290 261 Z M1288 257 L1289 256 L1290 258 L1289 259 Z M330 256 L334 257 L337 261 L336 266 L333 268 L327 268 L324 264 L325 259 Z M1287 255 L1288 254 L1289 256 L1288 257 Z M866 275 L856 290 L851 304 L850 314 L849 315 L850 351 L856 377 L858 377 L857 375 L854 354 L853 353 L852 334 L851 333 L852 312 L856 296 L861 286 L869 276 L870 278 L867 285 L865 293 L865 299 L864 300 L865 323 L868 333 L868 337 L875 356 L885 374 L889 378 L888 376 L887 355 L886 354 L885 341 L884 340 L883 328 L881 321 L881 298 L884 287 L888 279 L903 264 L904 266 L898 276 L895 287 L896 310 L901 322 L901 325 L903 329 L903 332 L910 355 L924 383 L925 383 L924 366 L923 365 L921 346 L913 316 L913 297 L914 296 L915 288 L921 276 L932 265 L940 261 L941 262 L937 267 L932 276 L928 290 L928 311 L929 312 L930 323 L934 339 L936 343 L936 346 L938 349 L941 359 L949 375 L962 395 L969 416 L978 434 L990 451 L1004 465 L1017 473 L1024 475 L1030 475 L1037 472 L1041 468 L1043 464 L1043 454 L1042 451 L1036 444 L1028 441 L1021 442 L1017 444 L1012 450 L1011 449 L1011 442 L1014 435 L1020 429 L1024 427 L1034 426 L1041 428 L1047 432 L1056 443 L1060 456 L1060 470 L1058 478 L1055 484 L1044 495 L1033 499 L1025 499 L1014 495 L1013 494 L1014 493 L1012 494 L1005 489 L981 468 L963 454 L942 441 L923 434 L910 431 L877 427 L869 425 L858 420 L846 408 L842 397 L842 390 L843 389 L854 400 L868 408 L888 414 L910 417 L923 420 L937 425 L948 431 L967 446 L1001 482 L1016 492 L1030 495 L1042 492 L1045 489 L1037 492 L1024 492 L1012 487 L1004 481 L962 438 L946 427 L925 418 L908 414 L891 412 L872 407 L856 399 L841 385 L840 387 L840 397 L841 398 L842 414 L845 426 L848 433 L849 433 L849 431 L844 415 L844 411 L845 410 L851 418 L864 426 L878 430 L899 432 L900 433 L916 435 L936 441 L946 446 L963 457 L1025 510 L1041 519 L1049 521 L1054 521 L1055 522 L1072 522 L1073 521 L1090 519 L1092 517 L1100 514 L1118 501 L1138 485 L1166 460 L1186 447 L1195 443 L1213 438 L1230 436 L1237 434 L1243 434 L1244 433 L1257 431 L1269 427 L1283 418 L1290 409 L1293 403 L1294 395 L1295 394 L1296 395 L1296 401 L1295 402 L1295 409 L1292 420 L1291 430 L1286 446 L1286 449 L1278 469 L1267 488 L1264 496 L1252 518 L1252 520 L1247 529 L1247 531 L1227 574 L1219 586 L1207 598 L1194 606 L1178 611 L1158 611 L1157 610 L1149 609 L1141 606 L1131 598 L1133 597 L1141 601 L1154 604 L1176 605 L1188 602 L1201 595 L1210 586 L1218 571 L1220 564 L1220 558 L1221 557 L1219 540 L1226 524 L1234 513 L1240 507 L1246 504 L1249 505 L1240 524 L1231 550 L1227 558 L1225 566 L1232 552 L1244 520 L1260 488 L1245 495 L1199 494 L1198 495 L1185 496 L1167 502 L1164 501 L1178 494 L1195 489 L1201 489 L1202 488 L1241 488 L1247 486 L1260 478 L1270 467 L1272 462 L1258 477 L1252 481 L1238 486 L1224 486 L1223 485 L1199 486 L1198 487 L1193 487 L1185 489 L1165 497 L1150 507 L1135 522 L1124 542 L1120 557 L1120 563 L1119 564 L1119 578 L1120 579 L1121 588 L1125 596 L1133 604 L1144 610 L1155 613 L1161 613 L1162 614 L1175 614 L1176 613 L1185 612 L1196 608 L1210 599 L1220 589 L1229 576 L1234 566 L1234 564 L1239 555 L1239 553 L1256 517 L1256 515 L1258 513 L1258 511 L1260 509 L1260 507 L1270 487 L1272 485 L1285 457 L1290 442 L1294 426 L1294 422 L1296 417 L1296 412 L1297 411 L1297 405 L1298 404 L1298 384 L1297 383 L1297 391 L1296 392 L1295 391 L1295 382 L1294 381 L1291 386 L1280 397 L1272 403 L1256 411 L1235 417 L1211 421 L1207 423 L1197 425 L1182 432 L1167 443 L1131 480 L1123 486 L1109 492 L1097 492 L1089 489 L1090 491 L1097 494 L1112 494 L1129 485 L1171 443 L1187 432 L1202 426 L1223 422 L1224 421 L1229 421 L1234 419 L1238 419 L1260 412 L1270 407 L1281 399 L1288 392 L1292 386 L1293 387 L1292 399 L1288 408 L1275 421 L1255 429 L1245 430 L1233 433 L1220 434 L1193 441 L1179 448 L1170 454 L1125 492 L1111 499 L1101 499 L1091 495 L1082 486 L1079 481 L1076 472 L1076 467 L1075 466 L1076 453 L1081 440 L1090 431 L1095 428 L1102 426 L1107 426 L1113 428 L1121 436 L1123 441 L1123 451 L1122 452 L1117 445 L1110 442 L1105 442 L1098 445 L1094 449 L1091 455 L1091 464 L1094 470 L1102 475 L1111 475 L1117 473 L1129 466 L1143 453 L1151 443 L1162 423 L1170 399 L1188 374 L1203 341 L1203 338 L1205 334 L1209 318 L1210 299 L1207 286 L1205 281 L1200 274 L1201 272 L1206 275 L1216 285 L1221 294 L1224 304 L1224 322 L1223 323 L1223 327 L1220 339 L1216 349 L1215 356 L1212 363 L1206 388 L1208 387 L1213 374 L1236 328 L1240 317 L1240 313 L1242 307 L1242 294 L1238 280 L1235 276 L1236 274 L1249 287 L1254 297 L1256 305 L1256 320 L1247 354 L1244 374 L1243 375 L1243 380 L1242 381 L1243 384 L1257 362 L1269 333 L1271 319 L1272 318 L1272 299 L1268 286 L1269 284 L1275 291 L1280 301 L1283 312 L1283 335 L1282 336 L1280 352 L1276 365 L1276 369 L1273 377 L1274 378 L1280 362 L1284 345 L1285 333 L1286 332 L1286 317 L1285 316 L1284 306 L1277 290 L1272 283 L1265 276 L1258 272 L1266 286 L1269 295 L1269 300 L1270 301 L1269 323 L1266 335 L1260 351 L1254 363 L1247 373 L1246 371 L1248 365 L1248 360 L1250 356 L1250 352 L1254 336 L1256 332 L1257 322 L1258 321 L1258 304 L1253 289 L1242 275 L1234 269 L1224 265 L1231 273 L1237 284 L1239 290 L1240 304 L1239 305 L1239 311 L1237 319 L1233 329 L1218 358 L1217 355 L1224 334 L1224 330 L1226 326 L1226 319 L1227 318 L1227 307 L1226 306 L1225 298 L1221 288 L1216 281 L1209 274 L1202 269 L1187 263 L1199 276 L1205 288 L1207 296 L1207 314 L1201 339 L1194 357 L1185 374 L1175 388 L1174 386 L1180 366 L1180 362 L1183 353 L1186 333 L1187 332 L1187 324 L1188 323 L1187 307 L1184 297 L1178 286 L1165 274 L1158 270 L1150 268 L1160 283 L1164 294 L1165 303 L1166 304 L1166 333 L1165 334 L1165 341 L1164 342 L1164 347 L1163 348 L1159 369 L1152 389 L1148 396 L1148 398 L1146 400 L1146 402 L1136 418 L1122 433 L1115 426 L1109 424 L1099 424 L1093 426 L1088 429 L1081 436 L1075 447 L1073 455 L1073 470 L1075 478 L1081 489 L1088 496 L1095 500 L1103 502 L1110 502 L1111 503 L1100 511 L1092 515 L1085 515 L1077 513 L1056 513 L1055 514 L1049 514 L1045 516 L1042 516 L1031 511 L1020 502 L1021 501 L1032 502 L1040 500 L1049 495 L1055 489 L1060 480 L1062 473 L1062 467 L1063 466 L1063 458 L1060 446 L1053 434 L1046 428 L1037 424 L1025 424 L1020 426 L1013 432 L1000 420 L991 407 L984 394 L975 369 L972 357 L971 345 L970 344 L970 336 L969 335 L970 301 L976 281 L981 272 L988 264 L977 266 L965 273 L958 280 L950 295 L948 303 L948 308 L947 309 L947 324 L948 325 L948 334 L949 335 L949 341 L952 353 L952 358 L957 377 L956 381 L949 370 L940 350 L932 321 L931 305 L930 304 L931 288 L934 277 L939 268 L953 254 L939 258 L928 265 L919 275 L912 290 L911 301 L910 302 L910 310 L911 311 L911 319 L919 347 L919 352 L921 359 L921 369 L920 370 L911 351 L907 335 L903 325 L903 322 L900 316 L897 303 L897 289 L900 277 L906 266 L914 257 L909 258 L896 266 L888 275 L880 291 L880 295 L878 301 L878 317 L879 318 L879 324 L880 325 L882 343 L884 350 L884 356 L885 357 L885 366 L884 367 L875 350 L873 342 L871 339 L868 326 L868 320 L867 319 L867 296 L868 295 L868 290 L873 276 L880 266 L880 264 Z M329 254 L323 258 L322 265 L326 270 L332 271 L337 268 L339 264 L338 258 L335 255 Z M1286 253 L1287 252 L1288 254 L1287 255 Z M856 246 L857 245 L858 246 L857 247 Z M857 244 L858 243 L859 244 L858 245 Z M420 243 L422 245 L422 251 L426 265 L436 285 L441 299 L442 307 L443 308 L443 315 L444 316 L444 331 L443 332 L443 341 L442 342 L441 351 L434 373 L423 392 L416 399 L405 385 L396 366 L390 341 L389 321 L390 320 L390 312 L393 299 L403 277 L408 270 L416 254 L417 249 Z M1287 241 L1288 242 L1287 245 L1286 244 Z M520 244 L523 241 L529 241 L533 246 L532 250 L528 253 L524 253 L520 249 Z M523 239 L518 244 L518 250 L523 255 L529 255 L534 251 L535 248 L534 243 L529 239 Z M165 325 L166 324 L166 315 L167 314 L168 305 L172 293 L181 276 L187 268 L197 258 L199 261 L198 262 L198 271 L197 272 L197 281 L196 282 L196 291 L195 292 L195 315 L198 328 L205 339 L215 344 L220 344 L227 341 L234 334 L240 322 L244 305 L244 300 L245 299 L246 274 L247 273 L247 243 L248 239 L250 237 L257 249 L268 261 L296 280 L312 288 L314 290 L348 306 L376 316 L386 318 L387 319 L386 327 L387 328 L388 347 L393 366 L403 387 L410 397 L417 403 L425 394 L431 385 L438 371 L445 347 L446 333 L447 332 L447 317 L454 314 L468 311 L471 309 L474 309 L477 307 L480 307 L483 305 L496 301 L525 286 L537 278 L549 268 L563 254 L576 237 L578 239 L580 247 L579 322 L580 323 L581 331 L585 340 L591 344 L599 343 L604 339 L609 330 L612 318 L612 309 L613 308 L613 283 L612 282 L612 264 L613 263 L627 278 L635 292 L641 313 L642 330 L641 331 L641 341 L640 342 L639 351 L635 364 L625 382 L612 396 L592 409 L545 426 L526 436 L514 444 L502 454 L489 468 L476 485 L470 489 L461 489 L457 485 L456 482 L457 472 L459 466 L469 449 L475 435 L478 397 L483 378 L490 364 L491 365 L492 383 L496 394 L504 403 L510 406 L521 406 L530 402 L541 391 L547 380 L548 375 L550 372 L552 364 L552 359 L553 358 L557 311 L558 310 L558 304 L559 303 L559 298 L563 283 L563 279 L556 286 L549 300 L545 314 L541 343 L537 360 L529 379 L523 387 L517 392 L510 395 L506 395 L505 396 L500 394 L496 387 L494 379 L494 356 L495 353 L493 353 L483 371 L477 388 L475 404 L474 405 L474 422 L473 423 L472 435 L470 441 L463 453 L461 451 L452 447 L444 446 L443 445 L436 445 L435 444 L388 444 L387 445 L379 445 L367 448 L358 453 L355 449 L349 435 L349 430 L348 429 L348 419 L349 418 L348 399 L342 375 L333 355 L332 355 L331 371 L330 372 L329 380 L327 386 L323 392 L320 393 L312 392 L305 388 L298 381 L292 371 L287 354 L286 337 L285 336 L285 322 L284 321 L284 315 L280 300 L272 285 L265 277 L261 275 L262 285 L263 286 L263 293 L264 294 L265 337 L266 338 L266 347 L267 348 L268 359 L273 374 L282 389 L289 396 L299 402 L302 403 L313 403 L321 399 L327 392 L331 383 L333 375 L333 369 L335 366 L337 369 L343 387 L344 396 L345 397 L345 403 L346 404 L346 433 L351 447 L355 452 L363 468 L366 478 L365 486 L360 490 L354 490 L350 488 L344 482 L337 469 L329 458 L314 443 L301 434 L281 424 L259 417 L243 414 L224 408 L211 402 L194 390 L179 373 L171 358 L166 341 Z M580 235 L588 237 L606 245 L626 259 L632 265 L642 279 L647 289 L652 304 L653 313 L655 319 L655 327 L656 328 L656 361 L655 362 L655 375 L654 376 L654 386 L653 387 L653 396 L652 397 L652 404 L651 405 L650 422 L649 423 L649 430 L648 431 L646 453 L645 454 L645 464 L644 465 L643 464 L643 456 L641 459 L638 472 L630 495 L628 498 L626 506 L624 509 L621 520 L608 547 L602 556 L591 568 L580 576 L568 582 L550 587 L529 588 L528 587 L519 587 L518 586 L509 585 L497 581 L481 572 L472 563 L466 553 L462 542 L461 530 L460 529 L461 508 L460 508 L458 513 L457 530 L458 531 L458 537 L459 538 L460 546 L467 561 L480 575 L492 582 L505 587 L519 589 L520 590 L540 591 L541 590 L555 589 L571 584 L584 577 L592 571 L599 564 L610 549 L620 530 L623 520 L624 519 L625 520 L626 538 L627 539 L627 545 L628 546 L629 557 L631 563 L634 587 L635 588 L635 594 L636 595 L636 603 L637 604 L638 630 L637 631 L636 648 L634 656 L629 667 L625 673 L618 680 L608 686 L592 690 L584 690 L583 689 L575 688 L568 685 L559 679 L550 670 L542 659 L532 639 L524 618 L516 606 L506 596 L500 592 L473 581 L464 573 L459 566 L454 554 L451 522 L450 521 L450 498 L456 488 L461 492 L469 492 L474 490 L481 484 L491 470 L504 456 L528 438 L545 429 L592 412 L609 402 L627 384 L638 364 L642 351 L643 340 L644 339 L644 315 L643 314 L643 308 L641 300 L633 282 L627 273 L615 261 L611 259 L609 266 L610 310 L609 311 L609 319 L607 327 L602 337 L597 341 L591 341 L586 337 L582 323 L583 255 L582 254 L582 245 L579 237 Z M361 235 L365 236 L369 240 L369 245 L363 250 L357 249 L354 245 L354 240 L358 236 Z M857 235 L858 234 L859 236 L858 237 Z M578 235 L579 234 L580 235 L579 236 Z M300 234 L305 234 L308 236 L309 242 L306 246 L302 247 L297 244 L296 239 Z M464 237 L468 233 L474 233 L478 238 L478 242 L476 245 L470 247 L464 242 Z M357 234 L352 240 L353 248 L358 252 L365 252 L367 251 L371 245 L370 238 L366 234 L363 233 Z M300 232 L295 236 L294 242 L297 247 L301 249 L304 249 L310 245 L311 237 L306 232 Z M467 231 L462 236 L462 243 L465 247 L469 249 L473 249 L479 245 L480 237 L475 231 Z M849 275 L858 265 L867 259 L881 253 L893 250 L900 247 L911 245 L927 240 L931 240 L936 238 L940 238 L945 236 L954 235 L974 230 L979 230 L980 229 L985 229 L986 228 L1003 226 L1004 225 L1010 225 L1011 224 L1029 223 L1030 222 L1045 222 L1046 221 L1094 222 L1095 223 L1111 224 L1112 225 L1118 225 L1119 226 L1124 226 L1130 228 L1145 230 L1193 242 L1197 242 L1213 246 L1217 248 L1228 250 L1232 252 L1239 253 L1243 255 L1246 255 L1266 262 L1281 270 L1290 278 L1297 291 L1300 315 L1301 316 L1302 335 L1303 336 L1303 352 L1304 353 L1304 396 L1303 397 L1302 423 L1301 424 L1299 446 L1298 447 L1298 452 L1297 453 L1297 458 L1294 471 L1294 477 L1292 484 L1292 492 L1291 493 L1291 530 L1292 531 L1292 551 L1293 552 L1294 583 L1293 584 L1287 578 L1283 576 L1274 575 L1266 577 L1258 581 L1247 589 L1225 609 L1211 620 L1190 632 L1184 633 L1180 635 L1167 635 L1131 626 L1117 627 L1112 629 L1105 634 L1101 639 L1095 653 L1094 652 L1094 643 L1093 642 L1092 632 L1087 616 L1087 613 L1083 604 L1083 601 L1075 581 L1069 569 L1065 564 L1063 564 L1057 571 L1047 592 L1035 625 L1032 637 L1032 642 L1031 643 L1031 650 L1030 651 L1027 642 L1024 637 L1017 630 L1008 626 L992 626 L960 634 L953 634 L952 633 L944 632 L933 627 L918 617 L886 588 L870 577 L863 575 L855 576 L849 579 L844 584 L843 583 L843 579 L844 578 L845 552 L846 551 L846 539 L847 538 L848 499 L849 496 L848 495 L847 469 L846 468 L843 439 L842 438 L841 425 L840 424 L838 405 L837 404 L837 396 L836 395 L835 361 L836 360 L837 336 L838 335 L838 328 L839 327 L839 320 L840 319 L840 313 L842 306 L842 300 L846 285 L846 281 Z M232 218 L235 218 L239 216 L255 212 L259 212 L274 208 L285 207 L286 206 L314 203 L315 202 L322 202 L323 201 L361 199 L362 198 L387 198 L388 197 L448 198 L449 199 L464 199 L465 200 L486 201 L487 202 L494 202 L495 203 L502 203 L503 204 L521 206 L522 207 L546 211 L569 218 L572 218 L597 227 L620 239 L633 249 L644 261 L654 276 L660 290 L666 314 L668 349 L667 350 L666 391 L665 392 L663 431 L662 432 L662 444 L661 445 L661 457 L660 458 L659 483 L658 484 L658 497 L657 498 L656 540 L655 541 L654 629 L653 630 L652 658 L651 659 L651 666 L650 667 L649 676 L644 690 L624 733 L621 743 L609 773 L603 785 L603 787 L599 794 L599 796 L587 819 L575 837 L563 852 L539 875 L517 890 L493 901 L469 908 L450 910 L449 911 L439 911 L438 912 L379 912 L378 911 L356 910 L355 909 L350 909 L349 908 L344 908 L331 905 L311 898 L295 890 L275 876 L254 855 L246 845 L231 822 L209 776 L201 756 L198 745 L194 737 L191 726 L171 681 L168 670 L167 659 L166 658 L165 636 L164 635 L164 621 L163 620 L164 566 L165 565 L165 546 L166 545 L166 495 L165 494 L165 480 L164 479 L162 451 L161 450 L158 423 L156 416 L156 410 L155 409 L155 403 L153 395 L153 387 L152 386 L152 376 L151 375 L151 338 L152 337 L152 328 L153 327 L153 322 L154 321 L154 316 L161 292 L171 272 L180 260 L191 250 L200 244 L219 235 L238 229 L254 226 L259 224 L268 223 L269 222 L274 222 L275 221 L291 219 L292 218 L306 217 L307 216 L335 214 L336 213 L347 213 L348 212 L364 212 L365 211 L443 211 L444 212 L459 212 L460 213 L470 213 L471 214 L481 214 L482 215 L506 217 L507 218 L512 218 L513 219 L518 219 L519 220 L524 220 L525 221 L530 221 L540 224 L544 224 L573 232 L575 234 L563 250 L546 267 L523 284 L498 297 L496 297 L486 302 L447 314 L446 313 L444 299 L440 287 L431 269 L426 255 L425 246 L424 245 L424 228 L422 228 L412 256 L393 291 L389 303 L388 313 L386 316 L382 314 L366 310 L363 308 L360 308 L345 301 L343 301 L330 294 L326 293 L324 291 L322 291 L320 289 L307 283 L290 273 L269 258 L258 246 L254 238 L250 233 L247 236 L244 246 L243 292 L242 293 L242 300 L241 301 L239 315 L232 332 L225 339 L220 341 L212 340 L205 335 L200 326 L198 318 L197 301 L198 300 L198 288 L199 287 L199 278 L200 277 L200 268 L201 267 L201 257 L199 254 L187 264 L172 287 L166 303 L164 317 L163 318 L163 337 L164 338 L165 348 L170 362 L178 376 L190 390 L209 404 L219 409 L236 415 L276 425 L290 431 L305 440 L313 446 L327 460 L336 473 L336 479 L338 486 L338 496 L337 497 L333 489 L326 479 L315 468 L302 459 L292 454 L275 448 L261 446 L260 445 L236 445 L235 446 L226 447 L212 453 L209 456 L220 451 L228 449 L251 447 L252 448 L261 448 L262 449 L272 450 L288 455 L308 466 L325 482 L334 496 L338 507 L335 508 L333 506 L327 494 L313 479 L303 472 L293 467 L277 462 L264 461 L263 460 L251 460 L250 461 L238 462 L218 470 L210 475 L209 477 L209 496 L210 497 L213 514 L219 529 L228 543 L244 558 L259 566 L273 570 L293 570 L306 566 L314 561 L323 552 L327 546 L333 532 L334 514 L335 513 L339 513 L341 510 L341 493 L340 492 L340 485 L339 484 L340 480 L348 490 L354 493 L363 492 L367 488 L372 497 L373 508 L372 509 L372 522 L371 523 L369 549 L362 565 L358 570 L351 576 L341 581 L325 585 L311 591 L305 595 L294 606 L285 623 L280 646 L274 659 L270 665 L256 679 L244 686 L235 689 L225 690 L224 689 L213 688 L198 681 L187 670 L180 657 L175 638 L174 620 L175 619 L176 595 L177 594 L177 589 L178 588 L182 567 L187 553 L192 533 L193 517 L194 516 L195 517 L195 519 L205 539 L215 553 L227 565 L237 572 L246 577 L263 583 L273 584 L274 585 L298 585 L299 584 L313 582 L331 574 L345 563 L352 554 L359 540 L363 524 L363 510 L362 508 L361 522 L356 541 L352 549 L345 559 L335 568 L321 576 L305 581 L300 581 L299 582 L272 582 L267 580 L263 580 L251 576 L233 566 L213 546 L201 526 L192 503 L179 476 L175 464 L172 459 L171 454 L170 454 L170 458 L174 471 L191 508 L190 531 L176 582 L173 604 L172 605 L172 635 L178 659 L186 673 L195 682 L205 688 L219 692 L233 692 L244 689 L252 685 L264 676 L275 663 L281 651 L284 642 L285 634 L290 617 L296 607 L305 598 L314 592 L333 585 L342 583 L352 578 L359 572 L364 565 L367 558 L368 559 L368 563 L367 564 L367 577 L366 578 L366 605 L365 606 L361 600 L355 595 L349 592 L338 591 L327 594 L317 601 L310 609 L305 617 L298 636 L297 653 L301 666 L308 674 L318 679 L329 680 L330 679 L340 678 L362 670 L367 670 L383 683 L393 688 L401 690 L415 690 L423 688 L433 683 L447 671 L454 671 L457 673 L472 678 L482 679 L483 680 L490 680 L497 678 L507 671 L510 667 L514 657 L514 653 L515 652 L515 633 L511 618 L507 610 L500 601 L491 595 L484 593 L475 593 L468 595 L462 599 L456 607 L455 606 L455 565 L456 564 L460 572 L470 582 L477 586 L498 594 L507 600 L514 607 L524 624 L531 643 L539 659 L548 672 L558 682 L572 690 L580 692 L597 692 L605 690 L614 686 L620 682 L627 675 L636 659 L639 648 L640 631 L641 630 L640 604 L639 603 L639 595 L638 594 L638 588 L637 587 L633 558 L630 547 L630 540 L629 539 L628 524 L627 523 L627 510 L643 466 L644 467 L644 472 L643 473 L643 484 L642 485 L642 535 L643 536 L643 550 L644 551 L644 560 L645 561 L646 577 L647 578 L647 587 L648 588 L648 592 L649 592 L647 559 L646 558 L646 546 L645 545 L645 530 L644 529 L644 497 L645 496 L646 467 L647 466 L648 449 L649 448 L651 426 L652 425 L653 411 L654 410 L655 394 L656 393 L657 373 L658 372 L658 357 L659 356 L658 321 L657 320 L656 309 L653 301 L653 298 L651 295 L651 292 L643 275 L635 264 L627 256 L613 246 L595 237 L570 228 L563 227 L559 225 L543 221 L523 218 L517 216 L512 216 L511 215 L506 215 L505 214 L498 214 L497 213 L482 212 L481 211 L459 210 L458 209 L444 209 L443 208 L365 208 L364 209 L350 209 L349 210 L336 210 L335 211 L316 212 L315 213 L301 214 L300 215 L294 215 L293 216 L287 216 L275 219 L270 219 L232 228 L210 236 L189 248 L175 262 L167 274 L160 288 L155 302 L151 323 L150 324 L150 330 L149 331 L149 341 L148 342 L149 382 L150 383 L150 390 L151 391 L151 398 L152 399 L157 440 L158 441 L159 453 L160 454 L162 482 L163 483 L163 498 L164 499 L163 500 L164 502 L164 539 L163 540 L163 560 L162 561 L162 583 L160 589 L159 588 L159 579 L158 578 L157 559 L156 558 L156 549 L155 548 L155 536 L154 535 L154 524 L153 523 L153 512 L152 511 L152 500 L151 499 L151 487 L150 486 L148 460 L147 459 L147 452 L146 451 L146 444 L145 443 L145 436 L144 435 L144 428 L143 427 L143 420 L142 419 L142 412 L141 411 L141 404 L140 403 L139 388 L138 387 L138 377 L137 376 L136 347 L137 346 L137 336 L138 335 L139 323 L140 322 L142 309 L149 288 L159 269 L169 255 L181 243 L192 235 L212 225 Z M157 198 L158 197 L159 198 L158 199 Z M849 268 L852 259 L859 247 L873 234 L893 224 L952 209 L956 209 L965 206 L969 206 L970 205 L974 205 L979 203 L994 201 L1000 199 L1006 199 L1007 198 L1027 196 L1028 195 L1040 195 L1041 194 L1086 194 L1087 195 L1097 195 L1098 196 L1113 197 L1114 198 L1119 198 L1120 199 L1125 199 L1126 200 L1131 200 L1132 201 L1156 205 L1169 209 L1173 209 L1229 223 L1248 229 L1266 238 L1274 244 L1283 253 L1290 264 L1295 281 L1294 282 L1291 277 L1283 269 L1277 265 L1259 257 L1244 252 L1151 229 L1147 229 L1131 225 L1126 225 L1120 223 L1115 223 L1114 222 L1108 222 L1100 220 L1090 220 L1089 219 L1038 219 L1037 220 L1025 220 L1024 221 L1001 223 L995 225 L990 225 L989 226 L984 226 L983 227 L978 227 L977 228 L958 231 L953 233 L944 234 L939 236 L935 236 L930 238 L914 241 L910 243 L903 244 L880 251 L865 258 L859 262 L850 271 Z M126 188 L134 189 L159 204 L158 221 L157 222 L157 228 L156 229 L153 253 L151 258 L145 290 L139 309 L139 313 L135 329 L133 326 L133 314 L132 313 L132 302 L131 301 L128 259 L127 258 L125 234 L124 233 L121 204 L120 203 L120 196 L121 192 L123 190 L128 194 L136 206 L145 225 L150 242 L151 242 L151 239 L144 218 L137 204 L131 195 L125 189 Z M693 187 L697 189 L692 193 L684 205 L676 222 L669 245 L670 246 L671 245 L676 227 L685 207 L692 196 L698 190 L700 192 L701 196 L701 203 L700 204 L698 225 L697 226 L696 238 L695 239 L694 251 L693 252 L693 259 L691 267 L691 274 L690 275 L689 289 L688 290 L687 304 L686 305 L686 313 L685 314 L685 322 L684 323 L681 363 L680 364 L680 374 L679 375 L679 386 L678 387 L678 398 L677 399 L677 409 L676 410 L676 420 L675 421 L675 430 L674 431 L674 440 L673 441 L673 450 L672 451 L672 460 L671 461 L671 472 L670 473 L670 483 L669 484 L669 497 L668 498 L668 510 L667 511 L665 551 L664 552 L662 581 L661 582 L660 598 L659 599 L658 598 L659 510 L660 509 L662 465 L663 464 L665 427 L666 426 L666 415 L667 414 L667 403 L668 402 L668 391 L669 390 L670 353 L671 352 L670 322 L669 321 L666 285 L665 284 L665 275 L664 274 L664 265 L663 264 L663 255 L662 254 L662 244 L661 243 L660 210 L661 209 L661 203 L663 201 L672 197 L677 193 L685 189 Z M858 242 L869 224 L888 204 L911 189 L936 178 L974 167 L978 167 L983 165 L993 164 L999 162 L1004 162 L1005 161 L1019 160 L1020 159 L1030 159 L1031 158 L1047 158 L1048 157 L1082 157 L1083 158 L1097 158 L1098 159 L1124 161 L1125 162 L1152 166 L1187 175 L1219 187 L1237 196 L1255 208 L1274 228 L1285 246 L1287 252 L1286 253 L1274 241 L1264 234 L1254 229 L1234 222 L1227 221 L1223 219 L1163 204 L1145 201 L1140 199 L1118 196 L1117 195 L1111 195 L1110 194 L1094 193 L1093 192 L1082 192 L1081 191 L1034 192 L1033 193 L1009 195 L1008 196 L991 198 L986 200 L967 203 L958 206 L954 206 L933 212 L929 212 L901 219 L889 223 L872 232 L859 244 Z M873 153 L875 155 L877 167 L882 181 L892 198 L884 204 L872 216 L859 235 L858 231 L863 210 L863 205 L867 189 L867 184 L868 183 L868 178 L869 177 L870 166 Z M1272 149 L1273 150 L1275 173 L1276 174 L1278 193 L1280 199 L1280 205 L1281 206 L1282 216 L1287 237 L1287 241 L1286 242 L1271 220 L1258 207 L1250 201 L1258 191 L1264 178 Z M875 144 L876 143 L877 145 L876 146 Z M1268 143 L1269 142 L1270 143 L1269 144 Z M1273 138 L1278 138 L1289 142 L1302 154 L1307 164 L1311 179 L1311 186 L1312 187 L1312 221 L1311 222 L1311 250 L1310 251 L1310 340 L1309 341 L1306 340 L1306 336 L1305 335 L1305 325 L1304 324 L1302 301 L1301 300 L1300 289 L1299 288 L1296 269 L1294 264 L1290 240 L1288 235 L1288 230 L1287 229 L1285 214 L1284 213 L1281 193 L1279 187 L1277 169 L1276 168 L1274 151 L1272 145 L1272 141 L1273 140 L1272 139 Z M872 137 L873 138 L872 139 L873 140 L873 148 L871 152 L869 168 L864 188 L855 236 L841 290 L838 312 L837 313 L837 319 L836 320 L836 326 L835 327 L835 336 L834 337 L833 336 L833 324 L834 323 L834 217 L833 216 L833 194 L834 193 L835 178 L838 167 L844 155 L849 149 L859 141 L869 137 Z M1275 117 L1276 116 L1277 118 L1276 119 Z M1177 100 L1178 99 L1179 100 L1178 101 Z M876 146 L877 145 L884 152 L891 157 L906 162 L924 162 L934 159 L948 151 L956 143 L964 130 L968 116 L968 97 L969 96 L978 106 L986 121 L983 141 L981 144 L978 154 L974 160 L974 162 L980 154 L984 145 L985 139 L987 135 L988 121 L1007 111 L1026 104 L1043 100 L1059 99 L1060 98 L1087 98 L1088 99 L1096 99 L1097 100 L1107 101 L1127 107 L1149 118 L1159 125 L1158 128 L1159 129 L1160 141 L1164 153 L1171 165 L1172 164 L1166 152 L1162 138 L1161 124 L1167 112 L1177 100 L1178 101 L1178 117 L1181 129 L1189 143 L1202 154 L1217 160 L1236 161 L1248 158 L1256 154 L1268 144 L1269 145 L1269 149 L1268 150 L1266 164 L1260 181 L1254 193 L1248 200 L1237 193 L1216 183 L1182 171 L1154 164 L1133 161 L1132 160 L1111 158 L1110 157 L1101 157 L1100 156 L1086 156 L1085 155 L1028 156 L1027 157 L1011 158 L1010 159 L992 161 L981 164 L976 164 L956 169 L952 171 L949 171 L932 178 L927 179 L904 190 L894 196 L890 191 L882 174 L877 156 Z M1183 93 L1184 94 L1184 98 L1186 103 L1193 115 L1206 127 L1218 133 L1226 135 L1245 135 L1246 134 L1250 134 L1262 129 L1268 125 L1275 118 L1276 121 L1273 130 L1266 142 L1255 152 L1247 156 L1234 159 L1224 159 L1211 156 L1199 149 L1190 140 L1183 127 L1181 120 L1181 97 Z M965 94 L966 111 L962 128 L958 136 L952 144 L944 151 L933 157 L922 160 L907 160 L899 158 L889 153 L878 142 L873 133 L869 121 L870 118 L874 123 L881 128 L896 134 L915 135 L930 131 L942 124 L953 113 L960 101 L962 92 L963 91 Z M670 85 L669 86 L669 100 L668 101 L668 106 L664 123 L648 163 L643 181 L642 192 L641 193 L641 210 L642 210 L644 187 L648 171 L662 136 L669 113 L670 102 L671 101 L671 86 Z M155 74 L154 75 L154 86 L155 87 L156 100 L167 136 L169 139 L173 153 L176 159 L183 189 L183 183 L182 182 L182 177 L179 164 L160 107 L159 98 L157 93 Z M654 71 L652 73 L651 81 L648 88 L645 100 L637 120 L633 127 L633 129 L631 131 L631 133 L618 158 L607 176 L609 176 L623 153 L640 119 L649 95 L649 92 L653 80 Z M643 70 L641 70 L635 79 L605 140 L591 160 L579 174 L596 157 L606 143 L620 117 L620 115 L632 91 L632 89 L635 85 L635 83 Z M173 66 L179 75 L188 93 L205 141 L219 170 L221 172 L221 170 L212 152 L212 150 L203 130 L194 102 L191 97 L188 88 L180 74 L174 66 Z M187 65 L193 73 L202 89 L202 91 L207 100 L217 126 L225 142 L237 161 L244 169 L244 167 L241 164 L226 140 L213 111 L209 99 L201 83 L191 68 Z M147 76 L151 70 L157 64 L163 60 L173 57 L180 57 L189 60 L202 72 L206 78 L229 126 L238 141 L252 158 L262 166 L274 172 L273 174 L270 174 L248 182 L249 183 L292 172 L296 172 L310 168 L330 165 L336 163 L341 163 L342 162 L349 162 L350 161 L357 161 L358 160 L368 160 L369 159 L385 159 L386 158 L427 158 L428 159 L444 159 L445 160 L464 161 L465 162 L472 162 L473 163 L485 164 L496 167 L501 167 L506 169 L515 170 L547 178 L578 188 L575 185 L548 175 L567 165 L588 144 L594 136 L605 117 L607 111 L616 94 L616 92 L626 74 L635 65 L643 61 L656 61 L666 66 L672 72 L676 78 L680 87 L681 97 L682 98 L681 115 L680 116 L679 126 L672 150 L670 153 L667 164 L663 173 L659 189 L659 194 L658 195 L657 228 L658 229 L658 243 L659 244 L659 254 L660 255 L660 262 L661 263 L663 287 L662 288 L661 287 L659 280 L650 264 L637 249 L620 236 L596 224 L564 213 L548 209 L544 209 L539 207 L520 204 L519 203 L500 201 L499 200 L492 200 L491 199 L484 199 L483 198 L459 197 L458 196 L441 196 L440 195 L369 195 L368 196 L338 197 L337 198 L328 198 L327 199 L319 199 L318 200 L310 200 L309 201 L302 201 L301 202 L295 202 L288 204 L282 204 L276 206 L261 208 L252 211 L248 211 L240 214 L236 214 L208 224 L185 237 L170 250 L162 260 L152 276 L151 272 L154 262 L156 247 L158 242 L158 237 L160 230 L160 223 L161 222 L162 183 L161 182 L160 170 L156 154 L151 140 L151 137 L149 133 L149 130 L147 126 L144 113 L144 107 L143 106 L143 89 Z M165 55 L156 60 L147 69 L142 78 L139 89 L139 106 L140 107 L141 117 L148 140 L148 143 L153 157 L157 178 L158 179 L158 189 L159 190 L158 197 L156 198 L139 187 L131 184 L126 184 L123 185 L118 190 L117 198 L116 199 L119 225 L120 226 L120 233 L122 241 L125 277 L126 278 L126 287 L127 288 L130 336 L131 337 L131 350 L132 351 L132 363 L133 364 L133 378 L134 379 L134 390 L135 391 L135 400 L129 404 L126 413 L126 423 L127 424 L129 451 L130 452 L132 470 L134 475 L128 481 L127 484 L127 501 L128 502 L129 515 L130 516 L135 541 L142 547 L142 604 L141 605 L141 665 L142 666 L142 670 L144 674 L150 679 L158 681 L162 680 L167 680 L168 681 L172 693 L183 715 L184 720 L186 723 L205 776 L225 819 L238 840 L256 863 L268 875 L286 889 L306 900 L328 908 L345 912 L367 914 L368 915 L386 915 L387 916 L433 916 L434 915 L447 915 L448 914 L455 914 L456 913 L472 911 L498 903 L521 892 L540 879 L572 847 L590 821 L603 796 L633 721 L647 692 L651 680 L652 679 L657 681 L669 680 L676 675 L679 669 L680 646 L681 645 L680 582 L679 581 L679 574 L680 573 L680 547 L686 543 L689 536 L691 520 L692 519 L692 513 L693 512 L693 503 L694 502 L694 483 L692 479 L687 476 L689 460 L690 459 L690 453 L691 452 L692 435 L693 434 L694 411 L692 405 L688 401 L682 400 L681 396 L682 395 L683 373 L684 372 L684 362 L685 361 L685 351 L686 350 L686 341 L687 340 L687 331 L688 330 L691 295 L692 294 L693 279 L694 278 L694 272 L695 271 L695 265 L696 264 L696 258 L697 257 L697 251 L698 250 L698 244 L699 243 L699 237 L700 236 L702 217 L703 216 L703 209 L704 208 L704 193 L702 188 L697 184 L685 185 L663 198 L662 197 L664 183 L680 137 L684 116 L685 115 L686 97 L685 96 L685 90 L683 83 L674 68 L664 60 L657 57 L643 57 L637 59 L630 64 L622 73 L598 122 L582 146 L569 159 L559 166 L549 171 L541 173 L494 162 L489 162 L476 159 L469 159 L468 158 L461 158 L460 157 L436 156 L435 155 L377 155 L376 156 L364 156 L363 157 L354 157 L353 158 L345 158 L338 160 L332 160 L331 161 L302 166 L297 168 L293 168 L288 170 L280 170 L271 167 L261 161 L247 147 L235 129 L212 81 L202 66 L196 60 L187 55 L179 53 L173 53 Z M1212 41 L1225 37 L1241 37 L1242 38 L1246 38 L1261 45 L1270 53 L1276 61 L1282 77 L1282 97 L1280 105 L1276 113 L1269 121 L1262 126 L1251 131 L1241 132 L1240 133 L1225 132 L1215 129 L1206 124 L1192 109 L1188 101 L1185 90 L1186 72 L1193 57 L1205 45 Z M906 36 L921 36 L929 38 L941 44 L954 57 L959 67 L960 75 L961 76 L961 88 L959 96 L952 110 L945 118 L936 125 L928 129 L918 132 L900 132 L889 129 L881 125 L869 113 L865 105 L862 93 L862 80 L863 79 L864 71 L869 60 L882 46 L890 41 Z M896 35 L887 39 L877 46 L868 56 L862 67 L859 78 L859 95 L870 133 L856 139 L844 150 L835 166 L832 176 L831 188 L830 189 L830 227 L831 228 L831 312 L830 313 L830 336 L823 339 L819 343 L816 349 L816 353 L815 354 L815 370 L816 371 L816 377 L817 378 L819 394 L820 395 L821 421 L822 422 L821 508 L820 509 L820 550 L819 551 L819 652 L820 653 L819 684 L818 685 L818 726 L821 735 L824 738 L830 741 L834 741 L836 744 L846 784 L857 817 L859 820 L863 834 L866 839 L879 872 L885 883 L885 885 L913 939 L923 954 L936 967 L942 971 L956 977 L964 978 L965 979 L983 979 L1007 973 L1033 960 L1045 956 L1067 954 L1068 955 L1077 955 L1078 956 L1091 958 L1129 972 L1149 977 L1167 978 L1168 977 L1179 976 L1185 974 L1197 967 L1206 958 L1215 945 L1233 914 L1243 894 L1245 892 L1268 845 L1280 815 L1287 793 L1289 790 L1299 759 L1303 741 L1304 740 L1305 741 L1314 741 L1322 738 L1327 732 L1328 728 L1329 698 L1330 697 L1330 616 L1329 615 L1328 543 L1327 542 L1327 519 L1326 518 L1326 497 L1325 496 L1325 433 L1326 432 L1326 421 L1327 420 L1327 410 L1328 409 L1329 389 L1330 388 L1330 357 L1326 347 L1323 344 L1313 340 L1313 270 L1314 269 L1314 233 L1315 232 L1316 194 L1315 193 L1315 183 L1314 182 L1312 168 L1307 156 L1296 143 L1286 137 L1274 134 L1278 124 L1278 121 L1280 117 L1285 97 L1286 84 L1285 83 L1284 72 L1280 62 L1274 53 L1265 44 L1259 40 L1243 34 L1237 34 L1236 33 L1223 34 L1207 40 L1201 44 L1192 53 L1185 65 L1182 74 L1179 93 L1166 108 L1159 121 L1147 113 L1131 105 L1117 100 L1100 97 L1099 96 L1092 96 L1091 95 L1057 95 L1056 96 L1048 96 L1047 97 L1032 99 L1010 106 L988 117 L984 109 L977 99 L966 88 L966 83 L962 66 L957 56 L951 48 L941 40 L931 35 L923 33 L915 33 L913 32 L912 33 L904 33 Z" fill="#eef3f4" fill-rule="evenodd"/>
</svg>
