<svg xmlns="http://www.w3.org/2000/svg" width="1086" height="1448" viewBox="0 0 1086 1448">
  <title>0286</title>
  <path d="M626 1369 L627 1368 L631 1368 L632 1369 L631 1370 L627 1370 Z M621 1368 L622 1367 L624 1368 L623 1369 Z M394 1362 L395 1361 L397 1362 L396 1363 Z M712 1346 L713 1345 L714 1346 L713 1347 Z M296 1311 L297 1310 L298 1311 L297 1312 Z M295 1310 L296 1309 L297 1310 L296 1311 Z M294 1309 L295 1308 L296 1309 L295 1310 Z M293 1307 L294 1306 L295 1307 L294 1308 Z M292 1306 L293 1305 L294 1306 L293 1307 Z M291 1305 L292 1304 L293 1305 L292 1306 Z M289 1302 L290 1301 L292 1304 L291 1305 Z M267 1248 L271 1240 L277 1233 L288 1228 L298 1229 L305 1232 L312 1237 L323 1250 L331 1266 L335 1283 L335 1302 L341 1318 L345 1324 L355 1334 L364 1339 L376 1342 L395 1341 L396 1340 L411 1338 L453 1327 L470 1325 L471 1324 L476 1345 L472 1347 L461 1348 L456 1350 L452 1350 L443 1353 L439 1353 L434 1355 L430 1355 L421 1358 L417 1358 L401 1362 L399 1360 L387 1360 L386 1359 L380 1359 L372 1357 L363 1352 L349 1338 L345 1336 L334 1334 L328 1331 L317 1321 L311 1313 L304 1298 L301 1289 L301 1283 L300 1284 L300 1295 L303 1305 L311 1319 L323 1332 L332 1337 L341 1338 L346 1340 L360 1354 L369 1359 L377 1360 L378 1361 L386 1361 L392 1363 L391 1364 L372 1365 L371 1364 L364 1364 L354 1361 L346 1357 L336 1350 L314 1329 L300 1311 L292 1299 L287 1289 L282 1272 L282 1263 L285 1255 L289 1251 L296 1250 L303 1253 L312 1262 L318 1272 L323 1288 L323 1305 L320 1309 L318 1309 L314 1307 L310 1303 L309 1304 L317 1312 L319 1313 L323 1312 L326 1305 L326 1298 L327 1297 L326 1287 L322 1273 L317 1263 L312 1256 L304 1249 L295 1246 L289 1247 L285 1249 L280 1255 L278 1262 L278 1272 L283 1288 L290 1300 L289 1302 L280 1292 L267 1274 L266 1262 L265 1261 L266 1260 Z M756 1242 L759 1251 L759 1273 L754 1291 L743 1314 L738 1322 L726 1338 L717 1346 L714 1346 L713 1344 L729 1325 L743 1298 L749 1273 L748 1261 L744 1251 L737 1244 L729 1241 L725 1241 L714 1246 L705 1255 L701 1261 L693 1282 L693 1286 L691 1292 L691 1301 L690 1302 L691 1313 L693 1317 L698 1322 L704 1322 L709 1319 L718 1308 L718 1306 L717 1306 L715 1310 L710 1315 L703 1319 L700 1319 L696 1315 L694 1310 L695 1290 L700 1272 L708 1258 L718 1248 L722 1246 L729 1245 L734 1247 L740 1253 L744 1263 L744 1281 L743 1282 L743 1286 L737 1304 L730 1318 L715 1339 L700 1356 L689 1364 L679 1369 L664 1373 L646 1373 L645 1372 L639 1372 L632 1370 L633 1369 L650 1368 L657 1366 L681 1343 L684 1342 L692 1342 L694 1343 L701 1341 L709 1336 L721 1323 L727 1310 L727 1306 L728 1305 L727 1294 L723 1285 L720 1283 L723 1293 L724 1305 L720 1318 L715 1326 L708 1333 L700 1338 L697 1339 L689 1339 L687 1338 L677 1342 L657 1362 L649 1365 L639 1366 L638 1367 L620 1366 L618 1368 L580 1358 L576 1358 L571 1356 L556 1354 L550 1352 L539 1351 L538 1350 L523 1349 L522 1348 L512 1348 L511 1347 L498 1347 L497 1346 L479 1346 L478 1345 L477 1334 L476 1333 L476 1325 L483 1323 L522 1323 L523 1324 L537 1324 L538 1325 L553 1326 L554 1327 L575 1330 L633 1346 L646 1347 L654 1345 L661 1341 L665 1337 L671 1327 L676 1311 L678 1290 L679 1289 L681 1273 L685 1261 L696 1242 L706 1232 L712 1228 L722 1224 L735 1224 L741 1226 L750 1233 Z M475 1317 L476 1277 L477 1276 L478 1240 L479 1239 L479 1206 L480 1205 L480 1198 L479 1197 L481 1195 L496 1194 L497 1193 L507 1193 L508 1192 L555 1192 L556 1193 L565 1193 L566 1194 L573 1194 L574 1195 L589 1197 L605 1202 L612 1203 L619 1206 L622 1206 L625 1208 L628 1208 L642 1213 L653 1214 L654 1215 L663 1215 L664 1214 L674 1213 L683 1210 L693 1205 L700 1200 L702 1200 L710 1210 L721 1220 L709 1225 L702 1230 L694 1238 L687 1248 L680 1262 L679 1268 L677 1272 L675 1286 L674 1287 L672 1309 L668 1323 L663 1332 L656 1339 L652 1341 L634 1342 L633 1341 L611 1337 L594 1331 L578 1327 L574 1327 L569 1325 L554 1323 L553 1322 L547 1322 L546 1321 L524 1320 L523 1319 L477 1320 Z M169 1177 L170 1176 L171 1177 L170 1178 Z M385 1176 L386 1175 L387 1176 L386 1177 Z M932 1169 L933 1168 L935 1169 L934 1170 Z M438 1169 L439 1168 L440 1169 L439 1170 Z M916 1168 L917 1167 L918 1168 L917 1169 Z M601 1168 L602 1167 L603 1168 L602 1169 Z M936 1165 L937 1168 L935 1169 L934 1168 Z M346 1196 L363 1172 L375 1179 L382 1181 L386 1181 L387 1182 L404 1182 L405 1181 L421 1179 L456 1170 L475 1168 L476 1167 L485 1167 L486 1166 L501 1166 L502 1165 L541 1165 L542 1166 L566 1167 L567 1168 L574 1168 L575 1169 L593 1171 L620 1178 L635 1180 L636 1181 L642 1181 L643 1182 L667 1181 L673 1179 L681 1174 L683 1174 L687 1181 L698 1195 L696 1198 L684 1205 L668 1210 L661 1210 L660 1211 L648 1210 L635 1207 L622 1202 L619 1202 L609 1198 L602 1197 L594 1194 L574 1191 L573 1190 L567 1190 L566 1189 L543 1188 L542 1187 L505 1188 L504 1189 L481 1191 L480 1192 L475 1192 L474 1193 L455 1196 L408 1208 L396 1209 L395 1210 L376 1210 L375 1209 L367 1208 L355 1203 Z M936 1165 L937 1164 L938 1165 L937 1166 Z M665 1144 L671 1156 L680 1169 L675 1173 L670 1175 L657 1177 L656 1176 L659 1173 L662 1165 L663 1151 Z M663 1144 L664 1143 L665 1144 L664 1145 Z M380 1142 L382 1147 L381 1148 L382 1149 L381 1151 L382 1152 L381 1153 L382 1165 L386 1174 L385 1176 L373 1173 L366 1168 Z M380 1141 L381 1140 L382 1142 L381 1143 Z M480 1132 L479 1134 L479 1154 L481 1162 L480 1163 L464 1164 L463 1165 L448 1167 L443 1169 L439 1168 L441 1166 L444 1158 L443 1140 L445 1138 L468 1131 L478 1130 Z M567 1128 L577 1129 L585 1132 L588 1132 L600 1138 L598 1146 L598 1159 L602 1167 L601 1168 L596 1168 L595 1167 L579 1165 L578 1164 L572 1164 L571 1163 L565 1163 L564 1162 L565 1154 L566 1153 L566 1134 L565 1130 Z M524 1129 L526 1127 L552 1127 L553 1128 L560 1128 L561 1129 L561 1139 L560 1140 L561 1161 L560 1162 L554 1162 L553 1161 L525 1160 L524 1159 L524 1154 L525 1153 L525 1130 Z M521 1129 L520 1132 L520 1143 L519 1144 L520 1158 L521 1159 L520 1160 L493 1161 L492 1162 L484 1162 L483 1161 L484 1160 L484 1131 L487 1129 L494 1129 L495 1128 L511 1128 L512 1127 L516 1127 Z M162 1118 L160 1120 L163 1123 L163 1136 L162 1140 L160 1141 L158 1139 L158 1137 L158 1142 L160 1144 L162 1144 L166 1134 L166 1124 L165 1121 Z M925 1113 L922 1116 L920 1123 L920 1128 L923 1136 L926 1139 L929 1139 L931 1137 L932 1130 L931 1134 L928 1137 L924 1132 L924 1119 L927 1115 L929 1115 L929 1114 Z M175 1102 L177 1102 L179 1104 L181 1108 L181 1113 L182 1114 L181 1122 L178 1125 L175 1125 L173 1123 L170 1115 L171 1107 Z M435 1104 L435 1100 L436 1099 L440 1099 L450 1102 L465 1103 L466 1104 L469 1104 L475 1101 L482 1105 L494 1106 L495 1107 L505 1107 L506 1108 L517 1108 L523 1105 L529 1108 L544 1108 L545 1107 L562 1106 L566 1105 L570 1102 L575 1104 L583 1104 L584 1103 L601 1101 L606 1099 L609 1100 L604 1119 L603 1129 L601 1132 L583 1125 L573 1124 L572 1123 L567 1124 L564 1126 L559 1123 L555 1123 L554 1122 L530 1122 L524 1125 L516 1122 L506 1122 L505 1123 L491 1124 L483 1128 L478 1125 L462 1127 L449 1131 L442 1135 L441 1134 L441 1130 Z M434 1099 L435 1098 L436 1099 L435 1100 Z M174 1099 L170 1102 L168 1107 L168 1118 L171 1125 L175 1128 L178 1128 L183 1122 L184 1109 L182 1103 L178 1099 Z M937 1098 L935 1098 L932 1102 L933 1105 Z M906 1097 L911 1098 L914 1102 L915 1106 L914 1116 L908 1122 L903 1121 L900 1114 L901 1104 Z M905 1094 L899 1100 L898 1103 L898 1114 L901 1121 L903 1123 L909 1124 L915 1119 L917 1115 L918 1103 L913 1095 Z M168 1074 L167 1074 L166 1088 L164 1091 L160 1090 L162 1093 L165 1093 L168 1089 L169 1085 L169 1076 Z M922 1067 L925 1067 L928 1070 L930 1075 L929 1083 L924 1087 L919 1085 L917 1078 L918 1071 Z M616 1061 L617 1062 L616 1065 L615 1064 Z M573 1062 L574 1061 L611 1061 L612 1062 L611 1063 L610 1091 L609 1093 L595 1097 L590 1097 L583 1099 L574 1099 L573 1098 L573 1093 L574 1092 L575 1076 L574 1075 L574 1064 Z M525 1064 L526 1063 L527 1064 L535 1063 L541 1061 L570 1061 L571 1062 L570 1064 L570 1095 L569 1096 L570 1097 L567 1100 L555 1101 L554 1102 L542 1102 L541 1103 L525 1102 L524 1101 L524 1096 L525 1095 Z M475 1062 L476 1061 L506 1061 L513 1063 L521 1063 L522 1064 L521 1066 L521 1095 L522 1096 L522 1101 L518 1103 L515 1103 L514 1102 L486 1101 L478 1099 L476 1097 L476 1063 Z M433 1062 L434 1061 L471 1061 L472 1062 L471 1083 L472 1084 L472 1092 L474 1097 L471 1099 L467 1099 L466 1098 L458 1098 L457 1097 L434 1094 L433 1093 Z M427 1060 L430 1062 L428 1068 L426 1063 Z M894 1059 L899 1062 L901 1067 L901 1075 L900 1078 L896 1082 L893 1082 L888 1075 L888 1067 L890 1063 Z M667 1060 L675 1059 L676 1058 L688 1058 L689 1059 L690 1065 L697 1084 L699 1094 L706 1114 L706 1117 L710 1127 L716 1151 L719 1158 L721 1169 L723 1170 L724 1181 L727 1189 L729 1201 L731 1205 L731 1210 L732 1211 L732 1218 L730 1221 L724 1218 L718 1212 L692 1180 L676 1157 L663 1130 L663 1107 L662 1106 L662 1094 L661 1093 L661 1082 L660 1081 L659 1067 L663 1062 Z M183 1059 L178 1067 L178 1078 L181 1084 L187 1085 L189 1082 L184 1083 L182 1081 L181 1068 L182 1065 L185 1062 L189 1067 L191 1075 L192 1074 L192 1067 L188 1060 Z M386 1059 L388 1061 L388 1067 L387 1068 L387 1076 L386 1077 L385 1094 L384 1095 L382 1128 L369 1154 L352 1180 L330 1208 L321 1217 L317 1217 L315 1213 L320 1193 L322 1189 L323 1182 L325 1178 L326 1170 L332 1156 L332 1153 L352 1093 L352 1090 L355 1083 L355 1080 L360 1067 L362 1058 L366 1057 L367 1058 Z M738 1056 L741 1062 L741 1083 L740 1084 L739 1093 L732 1114 L726 1126 L718 1137 L694 1059 L697 1057 Z M494 1057 L495 1056 L496 1057 L495 1058 Z M311 1056 L315 1056 L316 1057 L324 1057 L325 1056 L329 1057 L356 1057 L357 1058 L332 1136 L320 1119 L312 1100 L310 1087 L309 1086 L309 1078 L308 1077 L308 1064 Z M892 1056 L888 1059 L886 1063 L885 1072 L888 1079 L893 1084 L898 1084 L902 1081 L904 1077 L905 1068 L903 1062 L900 1058 L897 1056 Z M657 1053 L660 1051 L672 1048 L691 1046 L692 1045 L712 1045 L713 1046 L718 1046 L726 1048 L730 1050 L723 1052 L681 1053 L680 1054 L674 1054 L659 1058 Z M320 1050 L328 1047 L338 1046 L339 1045 L359 1045 L360 1046 L367 1046 L380 1050 L384 1050 L387 1051 L389 1053 L389 1055 L388 1056 L383 1054 L376 1054 L375 1053 L331 1052 L330 1051 L321 1051 Z M865 1041 L866 1042 L867 1084 L868 1085 L870 1102 L875 1119 L885 1141 L892 1151 L903 1162 L912 1167 L914 1169 L913 1170 L882 1170 L874 1167 L866 1158 L861 1139 L860 1123 L859 1122 L860 1072 L861 1071 L861 1063 L862 1062 L862 1056 L863 1055 L863 1049 Z M490 1041 L491 1040 L497 1046 L507 1051 L518 1054 L536 1053 L547 1048 L555 1041 L556 1045 L554 1050 L544 1058 L535 1061 L521 1062 L520 1061 L514 1061 L510 1059 L507 1059 L497 1054 L492 1048 Z M550 1057 L554 1054 L557 1049 L559 1043 L559 1036 L560 1035 L584 1042 L604 1051 L619 1056 L617 1058 L586 1058 L585 1057 L556 1057 L555 1058 L551 1058 Z M495 1056 L492 1058 L489 1057 L463 1057 L462 1058 L451 1058 L450 1059 L437 1059 L436 1058 L426 1058 L425 1057 L426 1055 L431 1055 L448 1050 L468 1041 L485 1035 L488 1047 L490 1051 Z M205 1035 L209 1050 L210 1068 L211 1069 L211 1082 L212 1083 L212 1150 L211 1151 L210 1167 L207 1171 L201 1174 L179 1175 L172 1177 L171 1176 L178 1170 L187 1157 L193 1144 L198 1127 L200 1112 L201 1111 L201 1105 L202 1104 L202 1092 L203 1091 L203 1063 L204 1062 L204 1036 Z M165 1028 L166 1031 L166 1052 L168 1049 L169 1036 L168 1032 Z M184 1026 L186 1026 L189 1030 L189 1040 L186 1044 L183 1042 L181 1037 L182 1029 Z M892 1024 L894 1024 L899 1031 L899 1035 L896 1040 L890 1039 L887 1033 L889 1026 Z M184 1022 L179 1029 L178 1037 L181 1044 L186 1047 L191 1043 L192 1031 L189 1024 Z M890 1021 L887 1023 L885 1027 L884 1034 L886 1039 L890 1043 L895 1044 L901 1039 L902 1037 L902 1030 L898 1023 L894 1021 Z M791 1020 L792 1019 L793 1020 L792 1021 Z M408 1002 L412 1016 L416 1041 L418 1046 L418 1050 L425 1078 L431 1111 L436 1130 L436 1135 L440 1152 L440 1160 L439 1161 L439 1165 L432 1171 L406 1177 L390 1177 L388 1175 L386 1169 L387 1120 L388 1119 L388 1103 L389 1102 L390 1080 L391 1079 L392 1064 L394 1058 L394 1052 L395 1051 L395 1045 L396 1044 L398 1029 L403 1013 L403 1010 L405 1005 Z M638 994 L641 996 L648 1023 L652 1056 L653 1057 L653 1064 L654 1065 L656 1096 L657 1097 L658 1165 L657 1166 L656 1174 L652 1177 L635 1176 L634 1175 L629 1175 L628 1174 L611 1171 L604 1166 L602 1160 L603 1147 L605 1142 L605 1138 L614 1102 L619 1074 L629 1035 L635 1003 Z M901 993 L904 993 L907 996 L908 999 L908 1004 L904 1008 L900 1007 L897 1002 L897 998 Z M179 993 L183 998 L183 1004 L181 1008 L178 1010 L175 1006 L175 998 L176 995 Z M177 992 L173 996 L172 1007 L177 1013 L179 1013 L184 1008 L185 1000 L183 995 L180 992 Z M900 990 L894 996 L894 1004 L898 1009 L906 1010 L911 1006 L911 998 L910 995 L904 990 Z M157 980 L160 982 L162 987 L161 996 L158 1000 L155 998 L155 994 L154 993 L154 986 L155 982 Z M874 980 L875 979 L876 980 L875 981 Z M928 974 L930 974 L933 977 L935 983 L934 992 L931 996 L928 996 L925 993 L924 990 L924 981 Z M735 967 L740 967 L743 970 L743 975 L739 979 L735 979 L731 975 L731 972 Z M307 967 L312 968 L315 972 L315 975 L312 979 L307 979 L303 976 L303 971 Z M305 965 L300 970 L300 977 L305 982 L312 982 L317 977 L317 971 L312 965 Z M736 964 L733 965 L729 969 L728 974 L731 980 L735 982 L739 982 L745 978 L747 972 L746 969 L742 965 Z M556 963 L557 964 L557 1019 L556 1020 L556 1033 L544 1045 L529 1050 L521 1050 L520 1049 L511 1048 L499 1042 L490 1033 L492 967 L494 966 L506 969 L535 969 L536 968 L546 967 Z M875 961 L876 960 L877 962 L876 963 Z M271 958 L271 960 L273 961 L273 958 Z M488 964 L488 985 L487 986 L486 1030 L483 1032 L477 1033 L438 1049 L429 1050 L428 1051 L424 1050 L422 1044 L416 1011 L413 1002 L410 998 L406 998 L401 1003 L399 1007 L394 1025 L391 1045 L389 1048 L376 1044 L365 1043 L364 1042 L343 1042 L342 1043 L334 1043 L333 1044 L324 1045 L308 1051 L289 1044 L274 1032 L276 1037 L287 1046 L296 1051 L303 1053 L305 1055 L303 1061 L303 1080 L304 1081 L304 1087 L305 1088 L307 1101 L315 1121 L324 1135 L330 1142 L326 1159 L321 1173 L313 1165 L303 1152 L293 1136 L283 1116 L270 1077 L267 1061 L265 1056 L263 1042 L262 1041 L259 1021 L260 1020 L274 1026 L282 1027 L283 1028 L289 1028 L290 1029 L305 1029 L306 1028 L313 1028 L314 1027 L319 1027 L327 1025 L343 1019 L357 1012 L372 1002 L390 987 L407 969 L413 961 L419 967 L423 969 L433 968 L452 960 L469 956 L477 957 Z M567 955 L572 955 L587 959 L607 967 L614 967 L615 968 L622 966 L626 962 L628 958 L649 981 L669 998 L689 1011 L708 1020 L732 1027 L737 1027 L738 1028 L757 1029 L758 1028 L765 1028 L766 1027 L774 1026 L778 1024 L784 1023 L789 1020 L792 1021 L785 1058 L771 1103 L754 1138 L748 1148 L735 1166 L728 1173 L726 1171 L726 1167 L723 1159 L721 1147 L719 1143 L731 1127 L739 1111 L744 1096 L745 1088 L746 1087 L746 1080 L747 1079 L747 1066 L744 1055 L746 1053 L750 1052 L759 1047 L768 1040 L773 1034 L759 1044 L740 1051 L733 1051 L729 1048 L717 1044 L700 1043 L699 1042 L678 1043 L677 1044 L662 1046 L658 1048 L656 1045 L654 1027 L653 1026 L652 1016 L649 1004 L645 993 L641 989 L637 989 L633 993 L626 1020 L622 1042 L619 1051 L605 1047 L595 1042 L570 1033 L561 1032 L560 1031 L560 1008 L561 1007 L560 960 Z M156 953 L159 953 L163 957 L167 965 L170 977 L175 972 L182 968 L187 970 L192 976 L197 989 L198 1007 L199 1008 L199 1037 L200 1038 L200 1084 L199 1085 L198 1104 L197 1105 L197 1110 L196 1111 L192 1132 L186 1148 L179 1161 L167 1174 L160 1177 L155 1177 L153 1175 L153 1170 L152 1169 L152 1130 L151 1129 L151 1021 L152 1020 L154 1021 L159 1028 L159 1024 L151 1012 L151 995 L152 994 L153 997 L157 1001 L161 1001 L164 996 L164 985 L162 980 L159 977 L156 977 L153 980 L153 982 L152 983 L151 982 L151 963 L153 957 Z M173 952 L174 951 L175 952 L174 953 Z M578 951 L579 950 L593 951 L605 956 L611 961 L610 962 L604 961 Z M931 947 L935 950 L938 960 L938 977 L937 978 L936 975 L930 970 L924 974 L920 986 L923 995 L927 999 L931 999 L935 995 L937 991 L938 992 L938 1014 L933 1016 L926 1023 L925 1027 L918 1040 L915 1036 L915 1024 L916 1021 L919 1018 L919 1016 L914 1020 L911 1028 L912 1037 L918 1044 L916 1051 L917 1055 L922 1064 L916 1070 L916 1075 L917 1076 L916 1077 L916 1081 L920 1087 L927 1088 L931 1084 L933 1079 L936 1083 L933 1077 L933 1074 L930 1068 L923 1062 L921 1058 L919 1050 L920 1038 L922 1032 L930 1021 L935 1017 L938 1018 L938 1039 L939 1040 L939 1085 L938 1086 L939 1087 L939 1100 L938 1101 L939 1103 L939 1153 L934 1164 L931 1167 L927 1169 L924 1169 L923 1168 L919 1168 L909 1161 L896 1148 L889 1138 L883 1126 L876 1107 L874 1093 L873 1092 L873 1086 L872 1085 L871 1063 L870 1062 L871 1008 L872 1007 L873 994 L876 985 L881 976 L886 971 L894 967 L900 968 L910 975 L922 952 L927 947 Z M213 945 L214 946 L214 952 L221 975 L228 989 L237 1002 L246 1011 L256 1018 L257 1035 L258 1036 L261 1056 L264 1065 L264 1069 L269 1085 L269 1088 L273 1098 L273 1101 L281 1121 L289 1137 L301 1156 L320 1178 L317 1186 L315 1199 L314 1200 L314 1205 L313 1206 L313 1217 L315 1221 L320 1222 L327 1218 L343 1200 L350 1205 L365 1212 L385 1215 L386 1214 L404 1213 L460 1199 L464 1199 L475 1196 L478 1197 L476 1229 L475 1230 L475 1243 L474 1244 L474 1257 L473 1258 L473 1270 L472 1271 L472 1286 L471 1287 L471 1319 L472 1320 L471 1321 L445 1325 L411 1334 L395 1336 L394 1337 L373 1337 L360 1332 L349 1322 L342 1310 L339 1298 L339 1279 L338 1278 L338 1274 L334 1262 L328 1250 L323 1243 L312 1232 L302 1226 L294 1225 L293 1224 L284 1225 L277 1228 L269 1236 L264 1247 L264 1251 L263 1252 L264 1267 L263 1268 L243 1235 L243 1230 L245 1225 L247 1208 L248 1207 L248 1170 L247 1169 L247 1159 L246 1158 L245 1142 L244 1141 L240 1112 L238 1106 L238 1101 L234 1086 L234 1081 L233 1080 L233 1076 L227 1050 L225 1034 L222 1024 L217 991 L216 990 L214 968 L213 967 L213 956 L212 955 L212 946 Z M343 942 L347 943 L350 947 L349 952 L345 955 L341 954 L339 952 L338 945 Z M341 940 L338 942 L338 944 L335 948 L335 952 L339 957 L345 958 L348 957 L352 953 L353 945 L348 940 Z M695 941 L692 946 L693 951 L695 954 L699 957 L706 957 L711 952 L711 947 L709 946 L706 953 L700 954 L696 950 L696 945 L701 941 L706 942 L709 944 L708 942 L704 939 L699 939 Z M212 938 L213 939 L213 943 L212 944 L211 943 L211 939 Z M154 939 L157 936 L161 936 L164 939 L172 959 L174 959 L175 956 L181 950 L185 951 L190 957 L194 965 L195 972 L194 973 L189 967 L185 965 L177 966 L172 970 L166 956 L162 951 L155 950 L152 953 L151 952 L151 947 Z M151 937 L152 936 L153 938 L152 939 Z M935 931 L936 930 L937 932 L936 933 Z M933 932 L937 942 L937 947 L936 948 L932 944 L925 945 L916 955 L909 970 L906 967 L900 964 L893 964 L887 966 L883 969 L876 979 L875 978 L879 964 L882 958 L887 952 L891 950 L897 949 L907 955 L909 955 L915 940 L925 929 L928 928 Z M352 907 L357 907 L362 913 L362 918 L360 922 L356 925 L349 925 L346 922 L344 917 L345 912 L349 908 Z M689 906 L697 907 L702 914 L701 920 L695 925 L691 925 L687 923 L683 917 L683 911 Z M267 913 L275 907 L286 906 L290 907 L302 914 L310 922 L318 935 L321 946 L319 953 L315 956 L312 956 L298 946 L292 944 L286 944 L281 946 L274 946 L268 943 L265 940 L262 934 L262 925 L264 918 Z M784 915 L788 927 L787 928 L787 932 L784 938 L779 943 L775 945 L765 945 L759 943 L753 944 L735 955 L730 955 L726 950 L726 942 L731 929 L735 923 L749 910 L762 905 L770 905 L777 908 Z M688 903 L684 905 L679 912 L680 920 L685 926 L689 928 L697 928 L704 922 L705 918 L704 911 L699 905 L695 903 Z M359 904 L354 903 L348 905 L342 911 L341 921 L347 928 L350 929 L358 928 L365 921 L366 912 L363 907 Z M262 914 L259 922 L259 929 L263 939 L268 945 L274 948 L291 947 L299 951 L306 957 L314 960 L318 959 L323 954 L324 952 L324 940 L314 921 L300 908 L288 903 L279 903 L270 906 Z M784 910 L779 906 L773 903 L769 903 L768 902 L756 903 L744 909 L733 919 L725 932 L722 941 L722 951 L724 955 L730 959 L736 959 L746 953 L749 950 L756 947 L771 948 L779 945 L786 937 L787 932 L789 929 L789 919 Z M850 899 L851 900 L851 934 L850 935 L850 946 L849 947 L849 957 L848 958 L848 967 L846 975 L846 983 L845 984 L845 990 L844 991 L844 996 L843 997 L840 1017 L838 1022 L838 1027 L836 1032 L836 1037 L834 1042 L834 1046 L832 1051 L832 1055 L830 1060 L828 1074 L825 1083 L825 1087 L820 1108 L820 1114 L819 1115 L817 1134 L816 1135 L816 1144 L815 1145 L815 1185 L816 1186 L817 1198 L821 1215 L826 1227 L828 1236 L808 1267 L806 1269 L805 1268 L806 1270 L799 1280 L770 1315 L741 1343 L727 1352 L722 1352 L719 1348 L738 1326 L750 1307 L757 1293 L762 1277 L763 1265 L764 1264 L762 1247 L756 1234 L744 1223 L733 1219 L735 1216 L735 1204 L729 1178 L742 1164 L753 1148 L771 1113 L786 1069 L790 1048 L791 1047 L791 1043 L794 1033 L796 1017 L806 1009 L810 1003 L812 1002 L812 1000 L818 995 L824 986 L827 991 L828 1003 L829 1004 L829 1015 L828 1016 L827 1033 L826 1034 L823 1052 L821 1056 L819 1069 L817 1073 L810 1104 L808 1108 L802 1132 L802 1136 L798 1150 L798 1155 L797 1156 L797 1161 L794 1174 L794 1180 L793 1181 L793 1189 L792 1190 L792 1221 L793 1222 L793 1228 L794 1229 L794 1234 L797 1247 L804 1266 L804 1262 L799 1245 L797 1226 L796 1225 L796 1189 L797 1188 L797 1180 L798 1179 L798 1173 L799 1172 L799 1167 L800 1166 L800 1161 L801 1160 L805 1136 L816 1092 L818 1088 L820 1077 L822 1073 L823 1065 L825 1061 L825 1057 L827 1052 L830 1032 L831 1031 L831 1025 L832 1024 L832 996 L833 995 L832 996 L831 995 L831 991 L829 985 L829 977 L835 965 L844 935 L844 930 L846 925 L848 908 L849 907 L849 900 Z M250 886 L253 886 L257 890 L258 893 L256 899 L252 902 L249 902 L246 899 L245 896 L246 891 Z M796 885 L799 885 L804 891 L804 896 L800 901 L796 901 L791 895 L791 890 Z M252 883 L248 884 L244 888 L242 894 L243 900 L248 905 L254 905 L257 903 L260 896 L258 887 L255 884 Z M795 882 L790 886 L788 892 L788 896 L792 903 L796 905 L802 904 L805 901 L807 897 L807 891 L803 884 L800 882 Z M323 881 L327 881 L331 886 L331 891 L326 896 L323 896 L318 892 L318 887 Z M720 880 L724 880 L729 886 L728 892 L724 895 L718 894 L715 890 L715 886 Z M280 881 L276 886 L276 892 L280 896 L285 896 L288 892 L287 890 L285 890 L284 892 L281 892 L279 890 L279 886 L284 884 L282 881 Z M769 881 L766 880 L763 882 L763 883 L765 883 L769 886 L769 889 L767 891 L763 891 L761 889 L758 893 L759 894 L767 895 L771 891 L772 887 Z M360 880 L367 879 L370 881 L371 886 L368 891 L361 892 L357 888 L357 884 Z M679 878 L684 878 L688 882 L688 887 L682 892 L678 891 L674 886 L675 881 Z M322 878 L315 885 L315 893 L321 899 L328 899 L333 895 L335 887 L331 880 L327 878 Z M719 877 L713 882 L712 884 L712 891 L713 894 L716 897 L723 899 L728 897 L731 894 L733 886 L731 882 L727 878 Z M454 877 L442 878 L431 888 L427 896 L422 917 L422 939 L425 952 L426 952 L425 941 L424 940 L425 915 L430 898 L435 889 L441 883 L445 881 L455 881 L463 886 L474 900 L478 911 L479 918 L480 919 L481 918 L480 910 L473 892 L463 881 Z M675 876 L671 881 L672 889 L676 893 L679 894 L686 894 L688 893 L692 886 L690 879 L685 875 L677 875 Z M369 876 L364 875 L360 876 L356 879 L353 887 L357 894 L359 895 L367 895 L374 889 L375 885 L374 881 Z M572 880 L565 887 L561 893 L555 908 L555 912 L553 918 L554 919 L555 918 L558 906 L562 898 L568 889 L573 884 L584 878 L595 879 L599 881 L607 889 L610 894 L610 896 L612 898 L617 918 L617 938 L616 939 L616 942 L617 942 L619 935 L619 913 L618 912 L618 907 L616 899 L611 888 L600 877 L591 874 L581 875 Z M213 869 L214 873 L213 874 L213 879 L211 886 L211 895 L210 896 L209 895 L209 871 Z M213 869 L214 868 L215 869 L214 870 Z M846 864 L852 870 L851 885 L848 895 L847 894 L846 871 L845 870 L845 865 Z M274 853 L279 856 L281 861 L279 867 L276 870 L271 871 L268 869 L266 865 L266 860 L271 854 Z M776 852 L781 856 L782 863 L777 869 L774 870 L771 869 L767 865 L766 859 L771 853 Z M596 853 L597 852 L598 853 L597 854 Z M199 852 L200 853 L201 864 L206 871 L206 875 L205 876 L206 924 L207 925 L208 946 L209 947 L209 955 L210 956 L211 971 L213 979 L213 987 L214 988 L214 994 L216 1002 L216 1009 L217 1010 L221 1039 L224 1050 L224 1055 L226 1060 L226 1064 L227 1065 L227 1069 L228 1070 L228 1074 L234 1100 L234 1105 L235 1106 L236 1116 L239 1128 L242 1156 L243 1157 L245 1192 L244 1193 L243 1221 L242 1222 L242 1226 L240 1228 L228 1204 L216 1170 L216 1158 L217 1157 L217 1145 L218 1144 L218 1120 L217 1119 L216 1090 L215 1089 L214 1072 L213 1071 L213 1065 L211 1057 L210 1037 L209 1036 L209 1030 L208 1029 L205 1004 L203 997 L203 990 L202 989 L200 959 L199 958 L198 925 L197 924 L196 877 L197 876 L197 862 L198 861 L198 853 Z M276 850 L272 850 L268 852 L263 859 L263 868 L269 874 L275 874 L279 872 L284 864 L284 860 L282 855 Z M771 849 L765 854 L763 859 L763 863 L765 868 L769 872 L777 873 L782 870 L785 865 L785 858 L783 854 L779 850 Z M869 840 L870 841 L871 863 L872 864 L871 949 L870 950 L870 960 L869 961 L869 971 L868 972 L868 981 L867 982 L865 1006 L864 1007 L864 1013 L863 1014 L861 1034 L859 1042 L857 1070 L856 1071 L856 1078 L855 1079 L855 1092 L854 1093 L854 1126 L855 1127 L855 1136 L862 1164 L851 1193 L830 1232 L825 1220 L821 1197 L820 1196 L820 1189 L819 1188 L819 1147 L820 1146 L820 1137 L821 1136 L822 1121 L823 1120 L824 1109 L826 1103 L826 1098 L832 1074 L832 1070 L835 1061 L839 1038 L841 1033 L841 1028 L843 1022 L843 1017 L846 1006 L846 1001 L847 1000 L848 989 L851 976 L851 968 L852 967 L852 959 L853 958 L853 947 L854 946 L854 931 L855 930 L855 909 L854 908 L854 882 L855 881 L854 873 L855 872 L854 871 L859 869 L863 865 L866 859 L867 850 L868 849 L868 841 Z M225 841 L226 840 L227 841 L226 842 Z M833 835 L834 834 L835 836 L834 837 Z M233 990 L225 974 L220 959 L218 947 L216 942 L215 931 L214 930 L213 899 L214 898 L214 888 L215 887 L215 880 L216 879 L219 857 L218 857 L215 863 L211 867 L208 867 L205 864 L202 852 L202 834 L203 833 L204 834 L206 847 L208 851 L212 854 L217 852 L221 848 L223 844 L225 842 L226 843 L225 858 L224 859 L224 866 L223 867 L222 900 L223 901 L223 911 L224 912 L224 920 L225 921 L226 932 L229 944 L234 957 L242 971 L255 985 L270 994 L285 998 L305 998 L306 997 L315 996 L333 989 L350 977 L357 970 L370 953 L383 929 L388 915 L398 895 L413 872 L423 862 L429 858 L438 855 L443 855 L444 856 L436 860 L425 871 L420 880 L415 893 L412 905 L412 910 L410 917 L410 926 L409 927 L410 948 L412 955 L401 969 L382 988 L358 1006 L341 1015 L320 1022 L310 1023 L309 1024 L285 1024 L269 1020 L254 1012 L238 997 Z M252 832 L256 836 L256 841 L251 847 L246 847 L244 843 L245 837 L250 832 Z M795 833 L801 831 L806 835 L808 840 L804 846 L800 846 L795 842 L793 837 Z M253 829 L247 830 L242 837 L242 846 L248 851 L253 849 L257 845 L259 840 L258 833 Z M797 828 L791 834 L791 842 L795 847 L799 849 L804 849 L810 844 L811 838 L809 833 L805 829 Z M204 823 L205 824 L205 833 L204 834 L203 833 L203 824 Z M216 821 L217 822 L217 830 L214 835 L213 834 L213 825 Z M849 820 L851 821 L853 826 L851 832 L848 829 L848 821 Z M205 818 L206 819 L206 823 L205 824 L204 823 L204 819 Z M849 817 L845 823 L845 830 L851 836 L855 832 L855 825 L852 819 Z M498 829 L498 831 L502 830 L519 816 L535 831 L537 831 L535 826 L520 811 L517 811 L513 814 Z M810 809 L809 812 L813 811 L816 814 L817 821 L814 824 L808 821 L808 824 L812 827 L815 827 L819 822 L819 816 L815 810 Z M225 799 L224 800 L224 806 L227 806 L227 803 Z M832 790 L834 790 L838 794 L837 802 L836 803 L831 799 L830 796 L830 792 Z M228 791 L225 796 L228 793 L231 796 L231 799 L229 803 L229 808 L230 809 L231 808 L232 800 L235 797 L240 799 L239 807 L235 811 L232 811 L234 814 L237 814 L239 813 L242 808 L242 799 L238 795 L233 796 L231 794 L231 792 Z M838 790 L833 788 L830 790 L830 794 L829 795 L824 793 L819 795 L817 801 L819 807 L822 810 L826 811 L829 808 L829 806 L826 808 L823 806 L820 801 L820 799 L823 795 L827 795 L830 798 L831 802 L835 806 L837 806 L839 804 L840 795 Z M645 784 L646 783 L647 784 L646 785 Z M643 783 L644 782 L645 783 L644 784 Z M641 782 L642 781 L643 782 L642 783 Z M640 781 L641 780 L642 781 L641 782 Z M412 780 L413 779 L414 780 L413 781 Z M540 774 L539 773 L520 790 L518 790 L502 774 L500 774 L499 776 L512 791 L517 795 L521 795 L534 783 Z M291 768 L292 767 L293 768 L292 769 Z M218 766 L219 765 L220 766 L219 767 Z M849 764 L850 763 L851 764 L850 765 Z M591 746 L592 745 L593 746 L592 747 Z M617 744 L620 754 L624 761 L636 774 L654 784 L665 787 L671 787 L670 785 L665 785 L659 783 L647 777 L640 772 L630 763 L619 747 L618 744 Z M433 744 L431 745 L430 749 L422 762 L413 772 L401 781 L391 786 L386 787 L385 789 L397 786 L411 778 L423 766 L431 752 Z M856 735 L857 736 L857 758 L856 759 L855 758 L855 736 Z M542 737 L539 736 L519 754 L502 737 L500 737 L499 739 L515 757 L520 759 Z M589 734 L590 733 L591 734 L590 735 Z M855 724 L856 725 L855 729 L854 728 Z M572 722 L573 721 L574 722 L573 723 Z M477 719 L478 721 L471 730 L467 740 L466 768 L467 769 L467 782 L469 752 L471 750 L471 746 L475 734 L479 727 L480 728 L481 744 L482 745 L483 784 L484 785 L484 849 L483 850 L482 879 L481 880 L476 871 L466 861 L459 858 L452 852 L446 850 L438 850 L431 852 L421 858 L408 872 L397 889 L380 924 L380 926 L370 945 L359 961 L338 981 L317 991 L313 991 L308 993 L301 993 L300 994 L290 994 L289 993 L278 992 L267 988 L254 979 L249 974 L239 959 L232 939 L230 926 L229 925 L229 920 L228 919 L228 911 L227 910 L227 870 L228 869 L228 858 L229 857 L230 843 L232 836 L232 826 L229 828 L219 844 L214 849 L212 849 L209 844 L208 829 L209 828 L210 829 L210 834 L214 838 L218 835 L220 831 L220 826 L217 818 L212 822 L210 828 L209 827 L209 822 L214 801 L221 788 L225 784 L230 782 L239 786 L250 798 L263 816 L281 835 L299 848 L313 855 L325 859 L336 860 L337 861 L359 861 L360 860 L367 860 L380 857 L386 854 L391 853 L410 843 L425 833 L436 829 L441 829 L449 832 L456 838 L462 848 L465 850 L465 818 L464 817 L462 780 L461 779 L458 746 L462 741 L469 728 Z M568 716 L571 719 L569 722 L569 728 L577 742 L579 751 L581 751 L582 739 L580 738 L573 724 L574 722 L581 730 L589 743 L586 749 L586 752 L581 766 L581 770 L577 783 L577 787 L573 803 L571 825 L570 826 L570 849 L572 848 L574 844 L583 835 L589 831 L596 828 L610 828 L624 834 L649 849 L667 856 L680 859 L685 859 L686 860 L713 860 L714 859 L724 858 L745 851 L767 838 L777 830 L824 783 L831 780 L838 781 L846 788 L852 798 L858 818 L858 826 L859 827 L858 840 L857 843 L853 847 L849 847 L843 841 L830 822 L827 823 L828 833 L829 834 L829 845 L830 846 L830 889 L829 890 L829 899 L828 900 L826 916 L816 947 L804 966 L791 979 L776 988 L756 993 L734 992 L721 988 L708 981 L699 974 L689 964 L678 949 L668 929 L666 927 L660 911 L650 890 L640 874 L625 858 L612 850 L605 848 L592 848 L589 849 L580 855 L572 858 L565 863 L557 873 L554 880 L552 876 L552 866 L551 865 L551 823 L552 822 L553 795 L554 794 L554 785 L555 784 L555 777 L556 776 L556 769 L557 768 L559 751 L560 750 L566 718 Z M566 716 L567 715 L568 716 L567 717 Z M292 711 L293 710 L294 712 L293 713 Z M856 709 L857 710 L857 721 L856 722 L855 721 L855 710 Z M495 707 L514 702 L536 702 L549 705 L562 711 L564 713 L557 739 L557 744 L556 745 L556 750 L553 763 L553 769 L552 770 L552 776 L551 777 L550 797 L549 798 L547 848 L548 849 L548 866 L549 867 L549 877 L551 885 L551 892 L552 893 L553 892 L554 887 L563 871 L569 865 L581 859 L591 858 L598 860 L603 863 L612 872 L620 887 L626 912 L626 942 L622 958 L618 962 L613 962 L605 953 L599 949 L586 945 L578 945 L568 948 L561 952 L551 960 L539 963 L532 963 L531 964 L510 964 L509 963 L496 962 L475 950 L462 946 L452 946 L440 950 L431 958 L431 960 L446 952 L450 951 L461 951 L462 952 L435 962 L431 962 L425 964 L418 957 L416 949 L416 944 L415 943 L415 916 L416 915 L416 909 L422 887 L431 871 L437 865 L442 862 L449 860 L457 861 L463 864 L471 871 L475 877 L482 893 L483 893 L484 890 L485 869 L486 868 L486 853 L487 852 L487 778 L486 777 L485 740 L484 739 L484 730 L483 729 L483 723 L481 716 L486 712 L487 713 L488 723 L491 735 L492 759 L493 760 L493 794 L494 795 L494 806 L495 806 L496 802 L496 744 L495 743 L494 725 L490 710 Z M857 701 L858 702 L857 706 L856 705 Z M857 696 L858 695 L859 696 L858 697 Z M355 692 L367 692 L377 696 L387 706 L391 716 L391 728 L387 738 L378 747 L373 750 L366 752 L356 752 L343 746 L334 735 L332 729 L331 720 L333 712 L337 704 L344 697 Z M679 689 L692 689 L704 695 L711 703 L715 714 L714 726 L709 736 L702 743 L691 748 L679 748 L669 744 L660 735 L656 726 L655 717 L656 716 L656 711 L659 704 L668 694 Z M859 686 L860 687 L859 691 L858 690 Z M361 687 L360 688 L354 688 L344 692 L334 701 L328 713 L327 726 L329 734 L332 740 L339 748 L351 755 L367 756 L378 752 L389 742 L393 735 L395 728 L395 716 L390 703 L384 696 L372 689 Z M677 685 L665 691 L656 701 L653 707 L651 715 L652 727 L657 738 L668 748 L678 752 L692 752 L702 748 L713 738 L719 725 L719 711 L718 707 L712 697 L701 688 L687 684 Z M860 677 L861 678 L860 681 L859 680 Z M556 673 L557 672 L558 673 L557 674 Z M493 673 L494 672 L495 673 L494 674 Z M155 672 L158 672 L164 675 L172 685 L180 705 L184 722 L184 727 L185 728 L186 744 L187 745 L187 759 L188 760 L188 830 L189 831 L189 867 L190 868 L191 910 L192 911 L193 945 L194 946 L194 955 L193 956 L190 951 L183 947 L179 948 L175 951 L174 950 L175 940 L176 939 L176 931 L177 930 L177 915 L178 914 L178 869 L177 868 L177 856 L176 855 L176 846 L175 845 L174 830 L173 829 L170 806 L152 730 L151 700 L153 697 L156 699 L161 709 L167 728 L167 732 L172 753 L172 759 L173 760 L173 766 L174 767 L175 780 L177 788 L177 795 L178 796 L178 805 L179 806 L180 848 L181 849 L182 848 L182 810 L181 809 L181 798 L180 797 L178 771 L177 770 L177 764 L176 763 L173 741 L164 709 L160 700 L155 694 L152 694 L149 699 L148 716 L149 717 L149 725 L150 726 L153 750 L165 797 L169 824 L170 825 L171 838 L172 839 L173 861 L174 862 L174 879 L175 880 L175 907 L174 908 L174 927 L173 928 L173 942 L172 946 L171 947 L167 939 L160 933 L156 934 L153 937 L152 936 L152 869 L153 868 L152 787 L151 786 L151 771 L150 770 L149 751 L148 750 L145 725 L144 724 L142 706 L140 699 L140 684 L141 681 L146 676 Z M861 669 L862 670 L861 673 L860 672 Z M460 669 L461 668 L462 669 L461 670 Z M862 661 L863 662 L862 666 L861 665 Z M316 665 L325 661 L337 658 L342 658 L343 657 L364 657 L365 658 L370 658 L385 662 L396 667 L406 674 L414 682 L420 691 L425 704 L426 714 L427 715 L427 725 L426 726 L425 737 L418 754 L414 760 L404 770 L391 777 L382 780 L369 781 L368 782 L354 781 L340 777 L326 769 L314 757 L309 750 L302 736 L297 715 L297 700 L298 699 L299 689 L304 677 Z M727 660 L734 664 L745 676 L750 688 L751 698 L752 699 L752 715 L747 734 L737 752 L727 763 L716 771 L697 778 L676 779 L675 778 L665 777 L654 773 L643 766 L631 752 L625 739 L622 727 L622 710 L623 709 L623 705 L625 701 L625 698 L633 683 L642 673 L653 665 L664 660 L675 657 L686 656 L687 655 L706 655 Z M862 655 L863 654 L864 656 L863 657 Z M764 655 L765 654 L766 655 L765 656 Z M928 650 L932 651 L941 660 L944 667 L944 683 L943 684 L943 697 L942 698 L942 708 L941 709 L941 718 L940 719 L940 728 L939 729 L939 741 L938 742 L938 754 L937 755 L937 771 L936 772 L936 784 L935 785 L935 807 L934 808 L934 862 L935 863 L936 930 L935 931 L932 927 L926 926 L919 930 L913 937 L909 945 L908 944 L907 932 L906 931 L906 919 L905 918 L905 882 L906 881 L906 868 L907 867 L907 856 L908 855 L909 838 L910 837 L910 831 L911 830 L911 825 L912 824 L912 819 L913 818 L913 813 L915 808 L916 799 L920 787 L922 775 L930 745 L932 728 L933 727 L933 719 L934 718 L934 696 L933 695 L933 690 L930 682 L927 679 L924 678 L918 681 L912 689 L904 709 L900 725 L898 739 L897 740 L895 759 L894 760 L894 768 L893 769 L893 780 L892 781 L891 828 L892 829 L893 860 L894 861 L894 868 L895 868 L896 866 L895 865 L895 843 L894 842 L894 813 L895 812 L895 787 L896 786 L896 775 L897 774 L897 764 L898 763 L899 750 L900 749 L901 738 L903 732 L903 727 L910 702 L918 686 L922 682 L925 681 L928 683 L931 689 L931 694 L932 695 L932 716 L931 717 L930 730 L929 731 L926 751 L919 774 L908 821 L906 840 L905 841 L905 849 L904 850 L904 858 L903 859 L903 869 L902 870 L901 908 L902 909 L902 927 L903 928 L903 935 L904 936 L904 941 L906 949 L905 950 L900 947 L894 947 L884 951 L880 955 L877 961 L876 960 L876 943 L877 942 L878 914 L879 913 L880 878 L881 877 L881 847 L882 846 L881 763 L882 762 L882 744 L883 743 L883 733 L884 732 L885 718 L891 692 L895 681 L902 667 L917 652 L923 650 Z M283 647 L284 648 L283 651 L282 650 Z M864 645 L865 646 L865 650 L864 651 L863 650 L863 646 Z M865 636 L866 637 L866 642 L865 643 L864 642 L864 637 Z M866 628 L867 629 L867 635 L866 636 L865 635 L865 629 Z M213 623 L214 622 L215 624 L214 625 Z M765 617 L766 616 L767 617 L766 618 Z M260 610 L261 609 L262 610 L261 611 Z M251 609 L256 611 L266 620 L277 626 L310 624 L321 627 L326 627 L331 629 L336 629 L371 638 L398 651 L409 658 L421 668 L430 678 L436 687 L442 706 L443 723 L442 724 L442 731 L439 743 L433 756 L427 766 L418 776 L415 777 L412 780 L413 781 L411 783 L399 790 L396 789 L397 790 L396 791 L393 790 L382 794 L377 794 L376 795 L351 795 L328 789 L311 779 L296 764 L285 746 L285 744 L280 734 L274 710 L273 683 L274 682 L274 675 L275 674 L276 665 L282 650 L284 653 L283 656 L284 657 L284 687 L285 688 L285 695 L286 696 L286 701 L289 713 L297 731 L300 741 L309 757 L321 770 L329 776 L337 780 L353 785 L377 785 L394 780 L407 772 L419 759 L426 746 L430 731 L430 710 L427 698 L421 686 L413 676 L401 666 L394 663 L392 661 L378 656 L362 654 L361 653 L342 653 L341 654 L337 654 L333 650 L330 649 L301 648 L300 649 L304 649 L305 650 L318 650 L325 652 L332 652 L335 654 L322 658 L314 662 L304 671 L301 675 L296 686 L295 694 L294 695 L294 701 L293 702 L293 708 L292 709 L289 698 L288 681 L287 680 L287 660 L289 654 L287 653 L287 646 L285 642 L286 641 L297 641 L298 640 L317 640 L318 641 L337 642 L338 643 L344 643 L345 644 L360 646 L390 655 L408 665 L418 674 L427 686 L434 700 L434 702 L436 704 L434 695 L424 676 L411 663 L402 657 L390 651 L373 645 L352 641 L351 640 L347 640 L346 639 L332 638 L331 637 L321 637 L320 636 L297 636 L296 637 L289 637 L284 639 L276 639 L259 635 L257 633 L258 632 L256 631 L253 634 L251 639 L250 658 L252 653 L253 643 L257 636 L264 640 L279 644 L272 660 L270 668 L270 673 L269 674 L269 681 L268 682 L268 705 L269 706 L269 713 L273 730 L277 739 L275 740 L266 731 L256 717 L248 699 L242 676 L241 661 L240 660 L240 635 L241 634 L241 628 L243 620 L246 614 Z M213 607 L214 608 L214 614 L213 615 L212 614 L212 608 Z M824 608 L828 621 L829 648 L828 649 L828 657 L827 658 L826 669 L819 693 L809 713 L802 723 L791 734 L784 739 L774 744 L771 743 L775 736 L779 724 L782 707 L783 706 L783 700 L784 699 L784 675 L783 674 L783 668 L779 652 L776 647 L776 645 L774 643 L776 641 L785 640 L796 636 L805 631 L807 631 L811 638 L812 649 L813 649 L814 639 L811 631 L808 628 L800 630 L791 634 L774 637 L773 638 L770 638 L762 635 L756 635 L755 634 L734 634 L733 635 L721 635 L720 636 L706 637 L705 638 L700 638 L695 640 L678 643 L660 649 L646 656 L636 663 L628 671 L621 681 L614 699 L616 698 L621 686 L627 677 L643 662 L660 653 L688 645 L708 642 L709 641 L724 640 L725 639 L762 638 L769 641 L767 643 L766 652 L764 654 L761 649 L761 646 L760 645 L756 646 L756 647 L759 647 L761 649 L764 659 L763 685 L762 686 L761 697 L757 712 L756 711 L755 691 L751 678 L747 671 L735 660 L725 655 L722 655 L715 652 L723 650 L745 648 L745 647 L725 647 L724 648 L714 649 L711 651 L689 651 L688 652 L682 652 L669 655 L658 659 L643 668 L636 674 L625 689 L619 705 L618 725 L619 726 L619 731 L621 739 L631 758 L643 770 L652 776 L659 779 L676 783 L692 783 L711 778 L725 770 L741 754 L745 748 L757 723 L765 696 L765 691 L767 684 L767 674 L768 673 L769 647 L770 646 L776 663 L777 672 L778 673 L778 681 L779 682 L779 693 L778 694 L778 703 L777 704 L776 715 L771 732 L760 753 L755 760 L739 776 L730 782 L711 790 L703 791 L702 792 L695 792 L694 793 L675 793 L662 790 L663 789 L667 789 L658 790 L654 788 L657 787 L652 788 L649 786 L650 785 L648 786 L647 785 L648 784 L644 781 L641 780 L639 781 L638 780 L639 779 L632 774 L624 766 L616 754 L608 735 L607 726 L606 725 L606 707 L607 706 L608 697 L614 683 L618 677 L637 659 L647 652 L656 647 L658 647 L660 645 L689 634 L709 629 L713 629 L718 627 L734 625 L745 622 L770 622 L774 623 L775 622 L782 622 L783 621 L791 620 L803 614 L815 602 L819 603 Z M814 600 L815 599 L816 600 L815 601 Z M579 595 L580 594 L581 595 L580 596 Z M247 594 L251 595 L256 600 L261 609 L260 610 L253 606 L248 607 L244 611 L241 617 L238 628 L238 633 L237 634 L237 668 L238 669 L238 675 L239 676 L242 693 L250 714 L260 730 L272 742 L281 748 L281 750 L285 757 L292 766 L291 768 L282 764 L273 758 L255 740 L244 722 L236 701 L234 688 L233 687 L233 682 L232 681 L232 675 L231 674 L231 665 L230 664 L230 637 L231 636 L232 622 L235 610 L240 600 Z M825 589 L831 595 L837 609 L837 613 L839 619 L839 627 L840 628 L839 667 L836 679 L836 684 L833 691 L830 703 L822 720 L815 731 L797 750 L783 760 L771 766 L754 771 L753 770 L761 761 L769 748 L780 745 L788 741 L796 735 L804 727 L813 714 L823 694 L830 670 L830 665 L831 664 L832 648 L833 647 L833 631 L832 630 L832 622 L827 606 L824 602 L815 599 L818 594 L823 589 Z M460 590 L461 589 L465 594 L462 595 L460 593 Z M459 589 L460 588 L461 589 L460 590 Z M583 578 L584 577 L585 578 L584 579 Z M277 569 L278 568 L279 569 L278 570 Z M276 568 L277 567 L278 568 L277 569 Z M789 563 L790 562 L791 563 L790 564 Z M791 562 L792 561 L793 562 L792 563 Z M220 558 L224 555 L233 553 L243 557 L248 561 L257 573 L267 594 L271 600 L286 615 L293 619 L289 621 L283 621 L272 618 L265 612 L255 593 L251 590 L246 590 L239 595 L235 601 L231 612 L229 627 L228 628 L228 643 L227 644 L230 685 L238 717 L244 730 L253 744 L273 763 L289 772 L298 774 L309 784 L327 794 L339 798 L350 799 L351 800 L375 799 L394 794 L407 788 L423 776 L429 770 L437 759 L443 747 L447 734 L448 716 L449 715 L453 729 L454 744 L456 746 L456 751 L454 759 L456 755 L458 762 L458 785 L459 786 L460 814 L461 815 L461 828 L462 829 L462 839 L461 840 L458 835 L452 829 L443 825 L435 825 L420 831 L405 841 L387 850 L375 854 L371 854 L366 856 L360 856 L359 857 L341 857 L340 856 L333 856 L320 853 L304 846 L288 835 L267 814 L250 791 L241 782 L233 778 L230 778 L223 781 L218 786 L213 795 L209 807 L207 818 L206 819 L205 818 L205 813 L206 812 L205 810 L205 802 L213 779 L218 770 L224 764 L232 762 L238 764 L246 769 L254 777 L277 807 L293 823 L303 831 L316 838 L331 843 L346 844 L347 845 L364 844 L388 837 L403 829 L416 820 L429 808 L437 798 L445 785 L451 770 L451 768 L450 768 L442 784 L432 798 L419 812 L405 823 L391 831 L372 838 L363 839 L362 840 L338 840 L337 839 L328 838 L315 833 L297 821 L279 803 L261 779 L244 763 L238 760 L231 759 L220 765 L219 762 L222 750 L222 712 L221 711 L221 701 L220 700 L220 690 L219 689 L217 657 L216 656 L216 646 L215 645 L215 643 L217 642 L217 573 L218 572 L218 563 Z M849 550 L850 549 L851 550 L850 551 Z M225 550 L226 549 L227 550 L226 551 Z M226 549 L233 543 L245 539 L255 540 L265 544 L275 550 L293 565 L297 567 L296 568 L284 567 L271 563 L271 565 L287 582 L295 588 L315 598 L331 603 L365 611 L390 620 L406 628 L419 636 L439 652 L458 672 L462 679 L461 682 L473 671 L480 662 L486 647 L487 630 L484 617 L479 607 L469 594 L462 582 L460 576 L459 562 L457 561 L457 574 L456 575 L454 572 L454 567 L452 563 L452 554 L451 553 L451 531 L452 530 L452 523 L453 522 L457 529 L459 536 L460 547 L461 548 L461 558 L465 574 L467 578 L475 586 L482 590 L493 601 L501 615 L504 627 L504 643 L500 657 L490 672 L482 679 L479 680 L478 682 L492 677 L496 677 L505 674 L512 674 L513 673 L539 673 L540 674 L551 675 L569 680 L558 669 L549 654 L545 639 L545 625 L549 609 L557 595 L569 584 L579 579 L583 578 L584 581 L582 586 L575 593 L571 599 L566 609 L562 622 L561 639 L562 640 L562 646 L564 650 L564 653 L568 663 L571 668 L581 678 L583 672 L593 660 L594 661 L614 643 L634 630 L668 615 L680 612 L687 609 L737 597 L751 592 L769 583 L783 573 L801 555 L775 564 L767 564 L766 565 L758 565 L757 564 L774 552 L797 540 L817 535 L830 536 L842 541 L850 549 L849 550 L841 548 L840 549 L836 549 L826 554 L814 566 L800 587 L789 598 L778 606 L768 611 L752 616 L708 624 L692 628 L682 632 L679 632 L661 639 L636 653 L628 659 L616 671 L605 686 L595 707 L591 722 L591 730 L589 733 L580 720 L569 710 L552 701 L536 697 L514 697 L495 702 L483 708 L476 713 L464 726 L460 733 L458 730 L457 720 L453 707 L443 687 L432 672 L414 655 L405 649 L385 639 L370 634 L367 632 L336 624 L309 620 L298 617 L291 613 L289 613 L283 609 L272 598 L261 575 L261 573 L254 562 L248 556 L240 551 L237 550 L227 550 Z M342 523 L343 522 L344 523 L343 524 Z M732 510 L733 509 L734 510 L733 511 Z M728 506 L729 505 L730 506 L729 507 Z M208 544 L213 537 L231 520 L251 507 L274 496 L275 497 L273 499 L274 507 L280 525 L290 540 L304 554 L317 563 L331 570 L386 589 L412 603 L425 613 L442 631 L452 646 L459 661 L461 661 L463 656 L464 641 L465 640 L465 623 L464 622 L464 613 L463 612 L463 606 L461 598 L464 597 L467 599 L477 611 L481 621 L482 629 L483 630 L482 647 L478 659 L471 670 L465 676 L461 670 L462 667 L461 666 L460 669 L454 661 L440 647 L422 633 L402 621 L384 613 L366 607 L319 596 L296 586 L287 580 L278 570 L282 569 L293 572 L306 572 L308 570 L295 562 L274 545 L265 540 L252 536 L242 536 L235 538 L228 542 L221 549 L215 564 L214 580 L213 581 L213 605 L212 606 L211 605 L211 593 L210 592 Z M278 504 L279 503 L282 506 L294 512 L296 512 L308 519 L318 528 L322 535 L323 535 L322 531 L313 513 L314 511 L334 521 L345 531 L348 531 L349 529 L347 525 L347 520 L346 519 L346 499 L349 490 L352 498 L359 509 L380 529 L380 532 L382 534 L386 543 L392 564 L394 566 L392 548 L390 541 L390 534 L388 528 L388 508 L392 496 L394 499 L398 512 L406 528 L410 533 L417 548 L425 575 L425 580 L427 580 L427 567 L426 566 L425 549 L424 548 L424 521 L425 520 L440 546 L443 557 L446 562 L454 586 L457 604 L458 605 L458 610 L459 611 L459 619 L460 620 L460 643 L459 647 L458 648 L451 636 L439 621 L429 611 L412 598 L383 583 L332 566 L320 560 L308 552 L292 537 L285 527 L279 513 Z M771 487 L771 497 L767 509 L767 514 L762 522 L763 524 L742 547 L725 559 L707 568 L653 587 L628 600 L613 611 L598 626 L586 644 L585 648 L584 649 L583 648 L582 626 L583 625 L583 609 L584 608 L586 589 L591 571 L591 566 L593 565 L593 562 L596 557 L596 555 L606 539 L608 547 L609 563 L612 566 L614 565 L622 546 L631 536 L642 519 L648 507 L651 520 L651 538 L650 540 L654 541 L664 526 L677 511 L687 490 L690 497 L691 506 L692 507 L692 529 L695 530 L711 516 L723 508 L728 506 L729 509 L723 522 L723 524 L725 524 L732 516 L755 501 L770 486 Z M770 486 L771 485 L772 486 L771 487 Z M777 481 L802 491 L831 507 L851 522 L865 536 L868 541 L866 576 L865 577 L865 585 L864 586 L864 594 L863 595 L863 603 L862 604 L861 624 L860 625 L858 651 L857 652 L857 659 L856 660 L856 667 L855 668 L855 675 L854 676 L854 683 L853 684 L853 691 L852 692 L852 701 L850 709 L850 718 L849 719 L849 740 L848 741 L848 745 L849 746 L850 763 L849 764 L845 760 L835 756 L826 757 L815 762 L793 783 L777 802 L762 816 L748 826 L737 832 L723 837 L714 838 L713 839 L686 839 L685 838 L672 836 L651 827 L637 818 L624 806 L608 785 L600 770 L595 750 L593 746 L596 743 L595 738 L596 737 L596 727 L597 726 L598 717 L599 716 L600 717 L602 733 L606 745 L611 755 L618 765 L631 778 L638 783 L651 790 L662 794 L666 794 L677 797 L701 797 L702 796 L712 795 L721 792 L735 785 L747 776 L753 776 L761 774 L764 772 L772 770 L787 762 L805 748 L815 737 L824 724 L831 709 L838 685 L841 659 L842 658 L842 620 L841 619 L840 608 L834 593 L830 588 L824 585 L821 585 L817 588 L808 602 L800 610 L792 614 L781 617 L768 617 L767 616 L784 607 L793 600 L806 586 L814 573 L827 558 L836 553 L840 552 L846 553 L850 555 L854 559 L856 565 L856 572 L857 573 L857 610 L856 611 L856 622 L855 623 L855 635 L854 636 L854 643 L853 644 L854 648 L856 642 L859 605 L860 604 L860 591 L861 590 L861 573 L860 572 L860 566 L857 554 L854 548 L848 541 L843 537 L834 533 L821 532 L820 531 L819 532 L806 533 L796 536 L789 540 L787 540 L785 542 L783 542 L768 551 L746 567 L747 569 L771 569 L787 563 L790 564 L775 576 L754 587 L741 591 L738 593 L683 606 L662 613 L637 624 L625 631 L607 644 L589 662 L580 675 L576 670 L569 657 L569 654 L566 646 L565 633 L566 632 L566 623 L568 615 L572 605 L579 595 L580 596 L580 602 L579 603 L579 612 L578 613 L577 638 L578 639 L578 647 L579 648 L580 659 L583 661 L589 650 L590 646 L602 628 L617 613 L625 607 L644 596 L655 591 L711 571 L723 565 L741 553 L754 540 L761 530 L764 524 L764 521 L770 511 L771 506 L774 500 L775 482 Z M770 480 L756 495 L734 510 L733 509 L736 502 L736 497 L733 497 L715 508 L697 524 L696 523 L697 516 L696 515 L695 499 L692 489 L688 481 L686 480 L683 483 L680 497 L674 509 L664 524 L656 532 L655 531 L655 516 L654 515 L653 505 L651 499 L648 497 L646 499 L643 508 L635 523 L614 556 L612 553 L612 530 L609 529 L604 534 L598 543 L591 558 L587 571 L585 573 L580 574 L562 584 L552 595 L544 611 L542 619 L542 625 L541 626 L541 638 L545 654 L550 664 L555 671 L557 672 L556 673 L543 670 L537 670 L536 669 L514 669 L513 670 L502 671 L498 673 L494 672 L500 665 L507 649 L507 645 L508 644 L508 626 L507 625 L506 617 L497 599 L485 587 L474 580 L468 571 L465 559 L465 551 L464 550 L464 544 L463 543 L461 529 L458 520 L451 506 L449 504 L449 500 L450 499 L460 510 L470 524 L487 553 L498 565 L505 570 L517 575 L531 575 L538 573 L548 568 L556 562 L570 547 L582 529 L598 509 L617 492 L643 476 L668 466 L664 466 L643 473 L631 479 L614 490 L602 500 L591 512 L569 542 L552 560 L537 569 L529 570 L528 571 L515 570 L508 567 L501 562 L488 547 L475 525 L459 503 L447 491 L436 483 L423 476 L412 472 L398 469 L398 470 L421 478 L430 483 L441 491 L449 499 L448 500 L448 507 L449 508 L448 510 L449 512 L448 513 L448 550 L449 551 L449 555 L448 556 L445 548 L443 547 L443 545 L433 527 L432 523 L426 513 L422 509 L419 511 L420 542 L419 543 L413 531 L408 524 L402 512 L400 504 L398 501 L396 489 L394 486 L391 488 L388 494 L385 506 L385 520 L387 525 L387 530 L386 531 L361 505 L355 494 L353 488 L353 484 L351 481 L347 482 L342 495 L342 502 L341 503 L342 518 L343 519 L342 523 L336 518 L310 504 L308 505 L308 509 L311 515 L309 516 L307 514 L287 505 L279 498 L275 496 L280 493 L295 488 L298 486 L343 473 L347 473 L348 472 L352 472 L357 470 L362 470 L378 466 L384 466 L385 465 L405 463 L406 462 L412 462 L420 460 L427 460 L428 459 L440 458 L441 457 L443 458 L447 467 L453 476 L471 493 L489 503 L501 507 L505 507 L511 509 L518 509 L519 510 L543 510 L544 509 L550 509 L551 508 L556 508 L568 505 L581 500 L601 487 L613 475 L626 455 L673 458 L674 459 L681 459 L682 460 L689 460 L690 461 L714 464 L715 465 L724 466 L729 468 L733 468 L749 472 L756 475 L768 478 Z M626 452 L627 451 L628 452 L627 453 Z M438 402 L437 411 L436 412 L436 435 L437 436 L437 441 L439 449 L442 454 L441 455 L414 456 L413 457 L398 458 L397 459 L373 462 L372 463 L348 467 L339 470 L335 470 L331 472 L310 477 L304 480 L301 480 L298 482 L290 484 L275 491 L273 491 L244 506 L224 521 L216 529 L208 540 L207 539 L207 524 L206 523 L207 507 L211 500 L234 476 L264 455 L294 439 L296 439 L308 433 L313 432 L318 429 L344 420 L394 408 L399 408 L400 407 L411 406 L424 403 L430 403 L437 401 Z M631 400 L632 399 L633 400 L640 400 L641 401 L651 401 L652 402 L660 402 L661 403 L682 405 L683 406 L688 406 L694 408 L709 410 L733 416 L776 431 L804 445 L829 461 L839 469 L865 496 L870 504 L869 537 L868 538 L863 530 L854 520 L837 506 L814 492 L780 477 L752 468 L737 465 L733 463 L724 462 L714 459 L703 458 L702 457 L681 455 L680 454 L672 454 L671 453 L662 453 L661 452 L646 452 L645 451 L628 452 L627 450 L631 440 L632 429 L633 428 L633 411 L632 410 Z M137 360 L162 431 L162 434 L168 452 L170 463 L172 467 L177 487 L177 491 L183 514 L183 518 L189 544 L189 549 L191 555 L191 560 L193 566 L196 595 L197 596 L197 604 L199 612 L202 652 L203 653 L203 663 L204 664 L204 682 L205 683 L205 701 L206 702 L206 751 L207 755 L206 756 L206 787 L205 788 L204 802 L202 808 L203 814 L202 815 L202 820 L199 827 L199 835 L198 836 L198 842 L197 843 L196 856 L195 857 L194 856 L193 759 L192 758 L191 735 L190 734 L190 728 L189 727 L187 712 L182 695 L174 679 L166 671 L157 668 L155 629 L154 628 L154 616 L153 615 L153 601 L152 600 L152 587 L151 586 L151 572 L150 571 L150 558 L149 557 L149 544 L148 543 L148 531 L147 530 L147 516 L146 515 L144 477 L143 476 L143 465 L142 464 L142 450 L141 449 L141 436 L140 435 L138 391 L137 390 L137 379 L136 378 L136 361 Z M136 357 L137 358 L136 361 L135 360 Z M949 350 L950 351 L950 367 L949 368 L949 384 L948 385 L946 437 L945 438 L945 453 L944 454 L944 466 L943 467 L942 497 L941 498 L940 525 L939 526 L939 538 L938 539 L938 552 L937 553 L937 565 L936 566 L936 578 L935 579 L935 590 L934 591 L931 639 L929 646 L919 646 L911 650 L901 660 L894 671 L894 673 L890 680 L883 703 L883 707 L880 718 L880 724 L879 725 L879 732 L878 733 L877 760 L876 761 L876 801 L877 802 L876 868 L875 869 L874 868 L874 859 L873 858 L871 840 L870 837 L868 836 L867 819 L864 810 L864 816 L865 817 L865 851 L861 862 L857 866 L853 866 L844 858 L843 855 L841 855 L842 867 L843 868 L843 882 L844 883 L844 900 L843 901 L842 921 L834 955 L832 958 L826 976 L815 997 L794 1014 L784 1019 L770 1023 L743 1024 L742 1023 L726 1021 L713 1017 L693 1008 L670 993 L658 983 L629 953 L630 945 L631 944 L632 923 L631 922 L631 910 L630 909 L628 894 L624 883 L616 869 L605 858 L597 854 L598 853 L606 853 L612 855 L622 861 L633 872 L646 891 L666 933 L666 935 L673 948 L684 964 L701 981 L714 989 L739 997 L760 997 L761 996 L765 996 L769 994 L775 993 L787 987 L794 982 L808 968 L816 956 L821 946 L829 922 L832 902 L833 901 L833 894 L834 893 L834 881 L835 880 L835 846 L834 845 L834 837 L835 836 L840 844 L846 850 L850 852 L853 852 L858 849 L860 846 L863 836 L862 818 L856 797 L852 789 L843 779 L836 776 L826 777 L815 784 L797 804 L775 826 L761 837 L741 848 L730 852 L717 855 L690 856 L689 855 L682 855 L669 852 L655 847 L636 837 L624 829 L611 824 L595 824 L585 829 L574 841 L573 840 L573 834 L574 833 L574 825 L575 824 L575 817 L576 816 L579 792 L590 747 L591 746 L593 748 L596 764 L601 778 L606 788 L618 805 L632 819 L643 827 L658 835 L671 840 L679 842 L684 842 L685 843 L704 844 L705 843 L713 843 L714 842 L719 842 L727 840 L746 832 L767 817 L785 799 L799 782 L811 770 L819 764 L830 760 L836 760 L844 763 L854 774 L863 794 L867 811 L869 814 L869 818 L870 819 L869 821 L870 821 L869 808 L866 798 L866 793 L865 792 L863 776 L862 775 L860 726 L861 725 L861 710 L862 709 L865 673 L867 665 L867 657 L868 656 L869 642 L871 635 L871 628 L873 621 L873 615 L874 614 L874 608 L875 607 L875 601 L876 600 L879 576 L880 575 L883 556 L885 551 L885 546 L889 531 L893 508 L898 488 L900 484 L902 473 L910 448 L910 445 L923 406 L931 386 Z M138 343 L147 344 L181 355 L213 370 L221 376 L212 395 L206 416 L204 433 L203 434 L202 459 L201 460 L201 496 L202 497 L202 514 L203 515 L203 522 L204 523 L204 547 L203 548 L204 550 L204 568 L205 569 L205 581 L206 582 L207 607 L208 608 L208 622 L209 623 L209 634 L210 635 L210 645 L211 646 L211 656 L212 657 L212 667 L213 668 L213 678 L214 679 L214 691 L215 692 L215 703 L216 704 L216 719 L217 720 L216 752 L212 769 L211 768 L211 719 L210 718 L209 675 L208 674 L208 663 L207 662 L207 651 L206 650 L202 602 L201 601 L201 594 L200 593 L200 586 L198 579 L197 566 L195 560 L195 554 L193 548 L193 543 L192 542 L192 537 L191 536 L191 531 L189 525 L187 510 L185 505 L184 496 L182 491 L182 487 L177 467 L169 442 L168 435 L164 425 L164 422 L159 410 L159 407 L153 394 L152 389 L150 386 L144 368 L141 363 L136 348 Z M947 339 L948 343 L928 382 L928 384 L918 406 L908 435 L908 438 L905 445 L905 448 L897 473 L882 537 L882 542 L881 543 L879 558 L877 564 L875 583 L874 584 L872 602 L871 603 L871 608 L868 621 L868 627 L867 628 L866 627 L866 619 L867 618 L869 586 L870 585 L870 576 L871 575 L871 567 L872 566 L872 558 L873 557 L876 500 L877 499 L877 489 L878 488 L879 453 L880 452 L880 423 L879 422 L878 405 L874 388 L869 373 L877 365 L879 365 L900 354 L933 342 Z M519 333 L525 333 L526 332 L549 332 L550 333 L555 333 L570 337 L586 345 L598 354 L613 371 L622 388 L626 402 L627 415 L628 416 L626 437 L622 450 L613 466 L603 478 L586 491 L572 498 L555 503 L541 504 L540 505 L513 504 L512 503 L503 502 L484 495 L474 489 L459 475 L452 465 L447 455 L443 443 L442 432 L441 431 L441 416 L442 415 L443 404 L448 389 L458 371 L474 354 L485 346 L504 337 Z M420 296 L418 302 L408 312 L394 321 L327 355 L325 355 L292 371 L271 379 L268 379 L257 383 L245 384 L244 385 L236 384 L232 382 L228 376 L229 368 L230 367 L236 369 L244 369 L245 368 L252 368 L281 359 L286 356 L300 351 L311 345 L313 345 L388 307 L401 299 L413 289 Z M661 293 L665 290 L666 287 L679 300 L705 316 L754 340 L756 340 L772 348 L800 358 L803 360 L822 366 L826 366 L836 369 L852 369 L860 366 L861 367 L862 376 L855 383 L847 385 L837 385 L836 384 L831 384 L810 379 L774 366 L769 363 L746 354 L735 348 L733 348 L714 338 L712 338 L678 319 L670 313 L662 304 L660 298 Z M332 279 L333 280 L332 283 L332 300 L333 304 L340 319 L344 325 L342 327 L326 335 L324 335 L323 334 L322 313 L316 289 L324 285 Z M738 278 L753 287 L752 298 L751 299 L751 311 L750 312 L750 327 L751 328 L751 333 L750 334 L733 326 L731 324 L739 304 L740 291 L739 290 L739 285 L737 281 Z M208 439 L209 438 L209 431 L210 430 L210 424 L211 423 L213 410 L219 392 L226 379 L230 384 L237 387 L243 387 L244 388 L245 387 L252 387 L265 384 L290 375 L336 353 L338 353 L397 323 L411 314 L418 308 L422 302 L423 295 L425 293 L428 293 L438 289 L442 289 L458 285 L465 285 L466 284 L472 284 L473 283 L479 283 L487 281 L495 281 L496 280 L505 280 L506 279 L535 278 L536 277 L567 277 L568 278 L586 278 L587 279 L614 281 L615 282 L632 284 L656 290 L658 292 L657 293 L657 302 L659 306 L668 316 L678 323 L697 334 L736 353 L738 353 L756 362 L763 364 L770 368 L785 374 L796 377 L799 379 L815 384 L828 387 L833 387 L834 388 L851 388 L861 383 L864 379 L869 391 L870 399 L872 404 L872 409 L873 410 L873 418 L874 419 L874 462 L873 463 L873 479 L872 480 L872 490 L871 491 L871 500 L870 501 L857 482 L838 463 L816 447 L797 436 L761 420 L740 413 L709 405 L688 402 L687 401 L674 400 L673 399 L666 399 L665 398 L630 396 L627 386 L620 372 L607 355 L598 347 L588 340 L574 333 L562 329 L552 328 L551 327 L543 327 L542 326 L523 327 L522 328 L512 329 L497 334 L480 343 L466 354 L453 369 L442 389 L439 398 L429 398 L428 399 L400 402 L399 403 L379 406 L351 413 L318 424 L282 440 L280 442 L264 450 L236 470 L216 490 L208 502 L207 501 L207 453 L208 452 Z M787 241 L788 240 L790 241 L789 242 Z M305 254 L304 255 L294 254 L288 251 L279 249 L276 247 L293 242 L298 239 L301 239 L303 243 Z M762 250 L763 238 L765 234 L768 236 L771 236 L778 239 L786 240 L788 242 L765 251 Z M321 228 L322 229 L320 234 L308 254 L306 252 L306 248 L304 243 L304 237 Z M746 226 L760 233 L759 245 L757 248 L748 234 L745 227 Z M769 201 L770 200 L771 201 L770 202 Z M765 197 L766 196 L767 197 L766 198 Z M292 204 L291 205 L284 202 L278 201 L268 197 L267 195 L268 194 L276 193 L288 188 Z M770 200 L770 195 L772 187 L774 184 L777 186 L789 189 L794 189 L795 190 L784 196 L777 198 L775 200 L771 201 Z M305 180 L306 181 L303 190 L296 203 L292 187 Z M757 177 L769 183 L767 195 L765 197 L756 180 Z M755 177 L756 176 L757 177 L756 178 Z M270 65 L276 67 L287 75 L295 84 L307 101 L346 167 L354 183 L374 217 L378 226 L397 258 L408 280 L413 287 L409 291 L396 299 L347 324 L345 322 L345 320 L338 305 L337 297 L336 296 L336 280 L338 275 L338 271 L336 271 L316 284 L314 283 L315 282 L309 259 L319 246 L327 229 L329 219 L326 219 L316 226 L304 232 L302 231 L302 227 L297 208 L303 200 L307 191 L311 178 L311 172 L292 182 L290 180 L278 132 L274 121 L263 77 L262 77 L262 82 L267 100 L268 109 L287 183 L283 186 L268 191 L256 193 L256 195 L267 200 L286 206 L289 208 L292 208 L294 212 L299 233 L297 235 L288 239 L276 243 L264 245 L264 247 L267 249 L273 250 L280 253 L289 254 L303 258 L306 262 L307 270 L311 284 L310 287 L300 292 L298 292 L288 297 L270 303 L267 303 L266 305 L268 306 L269 305 L275 305 L287 302 L312 291 L316 306 L317 315 L322 332 L322 336 L320 338 L299 348 L264 362 L249 366 L234 367 L229 365 L229 361 L230 360 L230 344 L231 343 L231 329 L232 328 L232 301 L233 300 L233 246 L234 245 L236 162 L237 161 L237 146 L238 145 L238 132 L239 131 L240 113 L241 112 L243 93 L250 73 L257 66 Z M788 59 L799 59 L807 63 L814 72 L820 89 L830 129 L830 133 L836 159 L836 164 L838 170 L838 175 L840 181 L842 198 L843 199 L843 205 L844 206 L844 212 L845 213 L846 225 L848 232 L848 239 L849 240 L849 247 L850 248 L850 256 L852 263 L852 271 L853 272 L856 306 L857 307 L857 316 L858 317 L860 353 L861 354 L861 364 L858 366 L838 366 L837 365 L816 361 L783 349 L753 335 L754 315 L755 314 L756 297 L758 289 L786 299 L800 300 L801 301 L803 300 L802 298 L799 298 L770 289 L767 287 L762 286 L758 283 L760 263 L762 255 L775 250 L788 247 L803 240 L802 238 L785 236 L765 229 L768 209 L770 205 L779 200 L792 196 L806 189 L806 187 L789 185 L776 181 L774 179 L779 152 L781 147 L785 125 L790 107 L791 97 L797 71 L796 69 L781 127 L781 131 L778 140 L778 144 L774 158 L771 175 L768 178 L754 171 L752 169 L750 169 L750 176 L753 185 L765 206 L764 207 L762 224 L760 228 L739 217 L738 218 L740 227 L748 243 L757 254 L757 258 L756 259 L755 273 L753 281 L740 275 L733 270 L731 271 L735 285 L735 300 L729 323 L728 324 L687 302 L674 293 L667 285 L680 257 L680 255 L697 220 L697 218 L764 83 L772 70 L778 64 Z M802 54 L789 53 L777 58 L770 64 L761 77 L704 191 L704 193 L686 229 L686 231 L678 246 L670 266 L660 286 L656 284 L640 280 L620 277 L619 276 L613 276 L612 275 L595 274 L594 273 L583 273 L582 272 L542 271 L541 272 L521 272 L520 273 L510 273 L509 274 L499 274 L498 275 L476 277 L475 278 L470 278 L469 279 L449 282 L431 288 L420 289 L392 240 L377 211 L372 204 L368 195 L357 177 L353 168 L344 154 L341 147 L304 87 L297 78 L285 66 L280 63 L266 59 L255 61 L246 69 L241 80 L237 96 L235 116 L234 117 L233 138 L232 139 L232 153 L231 154 L230 199 L229 200 L228 270 L227 271 L227 320 L226 321 L224 369 L223 370 L200 358 L156 341 L144 338 L137 338 L133 340 L131 343 L130 348 L131 349 L131 371 L132 372 L132 394 L133 395 L135 444 L136 445 L137 472 L138 473 L140 510 L141 511 L141 522 L142 523 L142 534 L143 535 L147 605 L148 606 L151 659 L152 660 L151 668 L142 672 L137 677 L134 685 L134 695 L135 696 L137 716 L138 717 L140 735 L143 748 L144 766 L145 767 L145 781 L146 782 L146 800 L147 801 L147 918 L146 919 L146 969 L145 970 L145 987 L146 988 L145 990 L145 1008 L146 1009 L146 1136 L147 1137 L147 1175 L152 1182 L159 1183 L168 1179 L169 1180 L197 1180 L205 1178 L211 1174 L213 1176 L213 1179 L222 1204 L238 1238 L251 1260 L270 1288 L291 1314 L312 1336 L332 1354 L351 1366 L365 1370 L388 1370 L389 1369 L395 1369 L396 1368 L401 1368 L406 1366 L420 1364 L460 1354 L480 1351 L481 1352 L515 1353 L516 1354 L525 1354 L526 1355 L533 1355 L540 1357 L552 1358 L553 1359 L572 1362 L577 1364 L581 1364 L586 1366 L590 1366 L615 1373 L619 1373 L635 1377 L640 1377 L641 1378 L662 1379 L663 1378 L668 1378 L676 1376 L693 1368 L714 1352 L721 1358 L727 1358 L732 1356 L741 1350 L756 1337 L779 1313 L805 1281 L834 1237 L857 1193 L867 1168 L873 1173 L883 1176 L899 1176 L900 1175 L906 1175 L913 1173 L922 1173 L927 1175 L936 1175 L942 1170 L943 1160 L944 1159 L944 997 L943 996 L943 948 L942 947 L942 921 L941 920 L939 825 L940 824 L940 794 L941 793 L942 761 L943 760 L944 734 L945 733 L946 714 L947 713 L947 704 L948 703 L948 694 L949 693 L950 668 L947 659 L937 648 L935 643 L936 642 L936 631 L937 630 L938 608 L939 607 L939 595 L940 594 L941 570 L942 569 L943 545 L944 544 L944 532 L945 531 L945 518 L946 517 L946 505 L947 504 L948 475 L949 474 L951 425 L952 424 L952 405 L953 404 L954 344 L955 342 L953 337 L949 334 L943 334 L935 336 L906 347 L884 358 L868 368 L867 367 L864 321 L863 320 L863 312 L862 311 L859 275 L857 267 L857 259 L855 251 L855 244 L854 243 L854 236 L853 235 L850 208 L848 201 L848 195 L847 194 L847 189 L846 188 L846 183 L845 182 L845 177 L843 171 L843 166 L841 160 L838 140 L836 135 L835 126 L830 109 L828 97 L819 69 L812 60 Z" fill="#eef3f4" fill-rule="evenodd"/>
</svg>
