<svg xmlns="http://www.w3.org/2000/svg" width="1086" height="1448" viewBox="0 0 1086 1448">
  <title>0287</title>
  <path d="M716 1309 L715 1325 L708 1338 L693 1354 L675 1367 L657 1376 L628 1386 L607 1390 L606 1391 L594 1392 L593 1393 L576 1394 L575 1395 L561 1395 L560 1396 L523 1396 L522 1395 L508 1395 L507 1394 L489 1393 L488 1392 L482 1392 L481 1391 L475 1391 L474 1390 L460 1388 L425 1378 L404 1369 L381 1354 L367 1340 L363 1334 L358 1322 L358 1310 L359 1309 L369 1320 L387 1330 L404 1336 L424 1341 L444 1344 L445 1345 L450 1345 L451 1346 L464 1347 L465 1348 L495 1350 L496 1351 L513 1351 L514 1352 L569 1352 L570 1351 L586 1351 L587 1350 L597 1350 L598 1349 L623 1347 L624 1346 L641 1344 L667 1338 L682 1333 L695 1327 L704 1321 L711 1314 L715 1308 Z M716 1301 L716 1305 L714 1308 L703 1319 L697 1323 L677 1332 L652 1339 L632 1342 L631 1343 L618 1344 L617 1345 L601 1346 L600 1347 L589 1347 L588 1348 L574 1348 L573 1349 L510 1349 L509 1348 L494 1348 L493 1347 L472 1346 L471 1345 L464 1345 L463 1344 L438 1341 L437 1340 L433 1340 L407 1334 L392 1329 L375 1321 L361 1310 L358 1306 L358 1290 L360 1289 L368 1292 L383 1292 L388 1290 L401 1295 L417 1299 L421 1299 L426 1301 L440 1303 L441 1304 L466 1307 L467 1308 L483 1309 L484 1310 L512 1311 L513 1312 L574 1312 L575 1311 L590 1311 L591 1310 L610 1309 L611 1308 L631 1306 L651 1301 L655 1301 L663 1298 L670 1297 L683 1292 L696 1293 L697 1292 L706 1291 L713 1288 L715 1290 L715 1300 Z M705 1287 L706 1286 L707 1287 L706 1288 Z M359 1285 L360 1284 L361 1285 L360 1286 Z M391 1289 L400 1285 L409 1279 L412 1281 L425 1284 L429 1286 L456 1291 L457 1292 L475 1294 L476 1295 L492 1296 L493 1297 L519 1298 L520 1299 L566 1299 L567 1298 L580 1298 L581 1297 L607 1295 L608 1294 L614 1294 L615 1293 L620 1293 L621 1292 L639 1289 L655 1284 L660 1281 L679 1291 L675 1293 L664 1295 L656 1298 L647 1299 L642 1301 L627 1303 L626 1304 L620 1304 L619 1305 L604 1306 L603 1307 L578 1308 L577 1309 L509 1309 L508 1308 L494 1308 L493 1307 L484 1307 L483 1306 L473 1306 L472 1305 L465 1305 L464 1304 L440 1301 L420 1296 L416 1296 L399 1291 L395 1291 Z M767 1229 L768 1228 L769 1229 L768 1230 Z M293 1210 L294 1209 L295 1210 L294 1211 Z M665 1162 L666 1161 L667 1162 L666 1163 Z M397 1162 L398 1161 L399 1162 L398 1163 Z M363 1238 L368 1223 L378 1180 L382 1170 L385 1167 L397 1162 L398 1164 L395 1172 L395 1177 L398 1184 L407 1189 L420 1188 L429 1185 L441 1179 L448 1174 L460 1161 L467 1148 L468 1142 L471 1139 L478 1142 L482 1142 L488 1144 L503 1145 L504 1146 L514 1146 L515 1147 L556 1147 L557 1146 L575 1145 L576 1144 L581 1144 L582 1143 L595 1141 L597 1144 L599 1152 L603 1159 L615 1173 L625 1180 L637 1186 L649 1189 L661 1188 L667 1183 L669 1180 L670 1175 L666 1163 L668 1162 L679 1167 L682 1170 L689 1198 L693 1209 L693 1212 L702 1239 L701 1240 L695 1236 L686 1233 L678 1232 L677 1231 L668 1231 L667 1230 L658 1230 L657 1231 L644 1232 L633 1237 L628 1244 L629 1251 L637 1262 L645 1270 L659 1280 L657 1282 L639 1287 L629 1288 L628 1289 L617 1290 L616 1291 L594 1293 L593 1294 L584 1294 L583 1295 L571 1295 L570 1296 L516 1296 L515 1295 L501 1295 L500 1294 L489 1294 L488 1293 L467 1291 L466 1290 L449 1288 L448 1287 L433 1285 L412 1280 L410 1278 L427 1263 L434 1254 L437 1247 L437 1244 L435 1240 L431 1236 L425 1233 L417 1231 L409 1231 L408 1230 L397 1230 L396 1231 L388 1231 L387 1232 L379 1233 L365 1239 Z M346 1130 L353 1139 L380 1166 L375 1177 L362 1230 L356 1248 L353 1243 L349 1231 L345 1214 L344 1201 L343 1200 L342 1159 L343 1158 L344 1137 Z M718 1129 L719 1130 L721 1157 L722 1158 L722 1197 L721 1198 L721 1207 L720 1208 L718 1225 L714 1241 L710 1250 L700 1223 L692 1191 L690 1187 L688 1176 L684 1166 Z M350 1102 L351 1101 L352 1102 L351 1103 Z M586 1096 L587 1095 L588 1096 L587 1097 Z M473 1111 L477 1101 L485 1095 L577 1095 L582 1097 L588 1103 L590 1107 L591 1118 L592 1119 L592 1128 L594 1136 L591 1138 L587 1138 L581 1140 L568 1141 L567 1142 L558 1142 L557 1143 L515 1143 L514 1142 L503 1142 L502 1141 L495 1141 L494 1140 L478 1138 L471 1135 Z M397 1095 L406 1099 L410 1105 L412 1112 L411 1134 L403 1154 L395 1159 L383 1163 L349 1128 L347 1125 L348 1115 L351 1108 L356 1103 L363 1099 L378 1095 Z M668 1094 L687 1094 L699 1097 L707 1101 L714 1108 L716 1121 L717 1122 L717 1124 L707 1136 L681 1163 L667 1158 L661 1154 L654 1138 L653 1130 L652 1129 L651 1118 L652 1117 L653 1106 L658 1098 Z M236 1067 L251 1075 L264 1078 L289 1078 L290 1077 L295 1077 L311 1072 L313 1073 L306 1087 L295 1120 L295 1124 L291 1140 L290 1157 L288 1165 L286 1162 L284 1154 L277 1139 L277 1137 L262 1106 L250 1087 L235 1069 Z M842 1066 L843 1068 L827 1087 L815 1106 L777 1182 L776 1181 L775 1157 L774 1156 L774 1150 L773 1149 L773 1144 L772 1143 L772 1138 L769 1128 L769 1124 L760 1095 L749 1071 L752 1070 L756 1072 L773 1076 L778 1076 L779 1077 L804 1078 L805 1077 L812 1077 L813 1076 L822 1075 L831 1072 Z M234 1067 L235 1066 L236 1067 L235 1068 Z M842 1066 L843 1065 L844 1066 L843 1067 Z M364 1065 L365 1064 L366 1065 L365 1066 Z M698 1064 L699 1063 L700 1064 L699 1065 Z M351 1101 L353 1091 L360 1073 L364 1069 L377 1063 L385 1062 L386 1061 L394 1061 L395 1060 L448 1060 L449 1061 L482 1061 L483 1062 L601 1062 L602 1061 L628 1061 L629 1060 L674 1060 L675 1061 L681 1061 L689 1063 L699 1068 L704 1073 L712 1097 L711 1100 L707 1097 L695 1092 L685 1091 L684 1090 L671 1090 L659 1094 L651 1102 L648 1111 L648 1128 L649 1129 L649 1133 L653 1146 L666 1170 L666 1178 L664 1182 L660 1185 L656 1186 L649 1186 L641 1184 L626 1177 L620 1173 L606 1158 L601 1149 L598 1140 L598 1135 L596 1129 L595 1113 L592 1103 L587 1097 L588 1096 L591 1096 L597 1099 L600 1102 L603 1108 L604 1117 L605 1118 L605 1131 L606 1132 L606 1138 L608 1146 L618 1165 L625 1172 L639 1180 L655 1182 L653 1180 L645 1180 L633 1175 L619 1162 L612 1149 L609 1138 L606 1108 L600 1098 L590 1093 L586 1093 L585 1092 L481 1092 L480 1093 L474 1093 L467 1096 L461 1102 L458 1109 L456 1134 L452 1150 L444 1164 L433 1175 L436 1174 L442 1169 L451 1158 L457 1143 L461 1108 L463 1104 L469 1098 L473 1096 L476 1096 L477 1097 L473 1101 L470 1108 L467 1137 L464 1147 L459 1157 L444 1173 L438 1177 L428 1182 L413 1186 L408 1186 L403 1184 L399 1180 L398 1177 L398 1171 L410 1148 L416 1128 L416 1112 L414 1105 L410 1098 L399 1092 L382 1091 L381 1092 L370 1093 L359 1097 L352 1102 Z M220 1051 L226 1059 L231 1063 L236 1072 L245 1083 L261 1110 L273 1135 L273 1137 L277 1144 L285 1164 L289 1170 L290 1191 L294 1207 L293 1210 L280 1192 L271 1175 L247 1111 L243 1104 L240 1095 L238 1093 L237 1089 L219 1054 Z M859 1050 L860 1052 L838 1100 L814 1165 L802 1190 L792 1205 L778 1221 L769 1229 L768 1227 L770 1223 L774 1206 L775 1188 L779 1180 L788 1166 L812 1117 L826 1093 L836 1078 L846 1065 L845 1064 Z M218 1051 L219 1050 L220 1051 L219 1052 Z M859 1049 L860 1048 L861 1049 L860 1050 Z M217 1049 L218 1048 L219 1049 L218 1050 Z M365 1064 L378 1045 L392 1030 L395 1029 L451 1029 L452 1030 L489 1030 L490 1031 L589 1031 L590 1030 L623 1030 L624 1029 L670 1029 L671 1030 L676 1030 L686 1041 L699 1062 L697 1064 L685 1059 L673 1058 L672 1057 L635 1057 L634 1058 L608 1058 L607 1059 L557 1059 L556 1060 L474 1059 L473 1058 L443 1058 L442 1057 L395 1057 L394 1058 L381 1059 L377 1061 L371 1062 L366 1065 Z M399 1009 L400 1012 L396 1020 L374 1045 L363 1060 L355 1076 L349 1093 L345 1114 L344 1115 L344 1119 L343 1120 L343 1127 L342 1128 L341 1142 L340 1143 L340 1154 L339 1155 L339 1191 L340 1192 L341 1208 L342 1209 L342 1214 L343 1215 L346 1232 L352 1249 L358 1261 L363 1268 L369 1274 L374 1277 L382 1278 L396 1274 L413 1264 L426 1252 L408 1265 L395 1272 L384 1275 L377 1275 L372 1273 L366 1267 L358 1255 L361 1245 L364 1241 L387 1234 L411 1233 L412 1234 L422 1235 L429 1238 L433 1242 L434 1248 L429 1256 L413 1272 L399 1282 L383 1289 L370 1289 L360 1283 L353 1273 L346 1258 L338 1231 L336 1216 L335 1215 L334 1199 L333 1198 L333 1153 L334 1152 L334 1141 L335 1140 L336 1125 L337 1124 L341 1097 L349 1071 L353 1064 L353 1062 L360 1049 L372 1033 L383 1022 Z M673 1003 L684 1004 L693 1008 L703 1015 L719 1030 L736 1053 L751 1081 L762 1110 L762 1113 L768 1132 L770 1147 L771 1148 L771 1154 L772 1155 L772 1164 L773 1165 L773 1192 L772 1193 L772 1201 L771 1202 L770 1212 L764 1231 L756 1247 L745 1262 L730 1276 L712 1286 L708 1287 L707 1286 L708 1284 L703 1287 L695 1290 L681 1288 L664 1280 L651 1271 L636 1256 L631 1248 L631 1244 L635 1239 L648 1234 L669 1233 L670 1234 L682 1235 L696 1239 L704 1244 L708 1256 L702 1267 L696 1273 L692 1275 L681 1275 L669 1271 L652 1262 L638 1252 L655 1266 L670 1274 L684 1278 L694 1277 L699 1274 L704 1269 L712 1255 L718 1238 L722 1216 L723 1215 L724 1200 L725 1199 L725 1154 L724 1153 L723 1135 L722 1134 L722 1129 L721 1128 L721 1123 L720 1122 L720 1117 L717 1107 L717 1103 L709 1077 L697 1052 L686 1036 L676 1025 L668 1014 L667 1011 L668 1008 L688 1027 L704 1050 L710 1062 L720 1090 L724 1111 L725 1112 L725 1116 L726 1117 L726 1121 L727 1122 L727 1127 L728 1128 L730 1153 L731 1154 L731 1174 L732 1175 L730 1215 L729 1216 L727 1235 L722 1255 L718 1266 L709 1282 L717 1272 L723 1260 L730 1234 L732 1215 L733 1214 L733 1205 L734 1204 L735 1174 L734 1173 L734 1155 L733 1154 L732 1136 L731 1135 L731 1129 L730 1128 L730 1123 L729 1122 L729 1117 L725 1102 L725 1098 L717 1072 L707 1050 L692 1028 L678 1014 L668 1007 L669 1005 Z M394 1003 L397 1004 L400 1007 L380 1021 L369 1032 L355 1052 L348 1066 L342 1082 L337 1102 L334 1124 L333 1125 L333 1132 L332 1133 L332 1140 L331 1141 L331 1151 L330 1152 L330 1170 L329 1171 L330 1197 L331 1198 L332 1214 L333 1215 L335 1231 L343 1258 L348 1269 L359 1283 L358 1285 L341 1275 L323 1258 L314 1246 L305 1230 L296 1206 L294 1191 L293 1190 L293 1182 L292 1181 L293 1147 L294 1146 L294 1140 L295 1139 L297 1124 L306 1094 L320 1064 L332 1045 L346 1028 L361 1015 L379 1005 L385 1003 Z M213 926 L214 925 L215 926 L214 927 Z M867 919 L868 918 L869 919 L868 920 Z M868 918 L869 917 L870 918 L869 919 Z M574 913 L575 912 L576 913 L575 914 Z M478 943 L492 934 L501 924 L505 917 L521 912 L533 911 L534 910 L557 911 L573 915 L580 920 L585 928 L592 935 L605 943 L604 944 L577 944 L576 943 L482 943 L479 944 Z M881 904 L881 933 L880 934 L880 940 L876 954 L870 965 L869 975 L868 976 L868 1018 L867 1019 L867 1029 L865 1037 L859 1047 L842 1063 L826 1071 L814 1074 L787 1075 L786 1074 L772 1073 L747 1067 L739 1052 L728 1036 L732 1035 L733 1036 L738 1036 L744 1038 L762 1040 L769 1042 L794 1043 L795 1044 L796 1043 L810 1043 L826 1039 L834 1035 L842 1029 L852 1017 L858 1005 L862 989 L861 989 L858 1000 L852 1012 L839 1028 L826 1036 L816 1039 L803 1040 L802 1041 L777 1040 L776 1039 L769 1039 L768 1038 L755 1037 L754 1036 L738 1034 L737 1033 L725 1032 L708 1015 L700 1009 L690 1003 L681 1000 L670 1001 L666 1004 L664 1008 L665 1015 L673 1026 L672 1027 L666 1027 L665 1026 L630 1026 L629 1027 L596 1027 L595 1028 L484 1028 L483 1027 L449 1027 L448 1026 L402 1026 L401 1027 L396 1027 L395 1026 L403 1014 L403 1007 L399 1002 L395 1000 L385 1000 L378 1002 L360 1012 L350 1020 L338 1033 L325 1035 L324 1036 L319 1036 L309 1039 L297 1040 L296 1041 L272 1042 L271 1041 L257 1039 L250 1036 L244 1032 L233 1021 L223 1003 L219 988 L218 992 L223 1009 L229 1020 L242 1034 L252 1040 L266 1044 L286 1045 L287 1044 L303 1043 L304 1042 L323 1039 L328 1037 L333 1037 L334 1038 L323 1053 L316 1067 L314 1069 L300 1073 L290 1074 L289 1075 L281 1075 L280 1076 L258 1074 L246 1070 L233 1062 L220 1049 L214 1039 L212 1031 L211 1010 L212 1009 L213 967 L205 944 L205 938 L204 937 L204 917 L205 916 L218 936 L236 953 L245 959 L258 965 L261 965 L273 969 L279 969 L280 970 L312 969 L332 964 L338 961 L343 960 L371 946 L386 935 L396 925 L398 927 L401 934 L408 942 L418 948 L428 951 L435 951 L436 952 L456 951 L472 947 L492 947 L493 946 L609 947 L626 951 L649 952 L650 951 L659 950 L668 946 L678 937 L685 926 L702 943 L717 953 L731 960 L751 967 L766 969 L767 970 L786 971 L787 970 L799 970 L800 969 L805 969 L813 967 L831 960 L842 953 L861 935 L872 919 L879 903 Z M507 913 L515 897 L522 894 L532 893 L533 892 L551 892 L564 895 L570 899 L571 904 L575 911 L574 913 L572 913 L568 911 L560 909 L554 909 L553 908 L530 908 L529 909 L523 909 L515 911 L509 914 Z M685 925 L690 909 L691 896 L693 895 L730 930 L747 942 L760 949 L774 954 L782 955 L783 956 L789 956 L790 957 L815 956 L816 955 L824 954 L831 951 L818 954 L813 954 L812 955 L792 955 L791 954 L786 954 L770 950 L756 944 L733 929 L702 900 L691 893 L691 878 L692 877 L704 884 L731 909 L755 927 L768 934 L789 941 L794 941 L795 942 L820 942 L821 941 L830 940 L839 937 L853 930 L867 919 L868 920 L867 923 L861 931 L844 948 L834 955 L822 961 L810 965 L800 966 L799 967 L791 967 L790 968 L776 968 L775 967 L760 966 L733 958 L719 951 L702 940 Z M390 878 L390 884 L389 885 L390 892 L378 900 L362 916 L348 928 L327 942 L306 951 L293 954 L288 954 L287 955 L265 955 L264 954 L251 952 L263 956 L288 957 L289 956 L296 956 L308 953 L321 948 L334 941 L351 929 L385 896 L389 894 L391 900 L392 911 L396 924 L386 933 L364 947 L348 955 L326 963 L313 966 L307 966 L306 967 L279 967 L278 966 L264 964 L251 959 L238 951 L228 943 L214 927 L216 926 L224 932 L237 938 L253 942 L269 943 L270 942 L282 942 L283 941 L297 939 L311 934 L325 927 L346 912 L377 883 L388 877 Z M682 855 L683 854 L684 855 L683 856 Z M654 854 L646 855 L642 857 L636 863 L633 868 L630 879 L630 893 L632 901 L635 907 L639 911 L643 913 L647 913 L648 912 L646 912 L641 909 L635 900 L633 892 L633 878 L638 865 L644 859 L650 857 L655 857 L662 860 L671 869 L678 884 L675 872 L671 865 L664 858 Z M517 849 L518 848 L522 850 L531 851 L532 852 L552 852 L564 849 L565 851 L564 852 L564 859 L563 860 L563 872 L564 873 L564 880 L568 893 L566 894 L555 890 L538 889 L537 890 L529 890 L516 894 L515 893 L517 888 L518 876 L519 875 L519 859 L518 858 Z M849 842 L850 841 L851 842 L850 843 Z M804 842 L805 841 L812 847 L825 852 L832 852 L839 850 L849 843 L850 846 L846 854 L840 860 L831 864 L824 864 L814 860 L807 854 L804 846 Z M226 839 L227 838 L228 839 L227 840 Z M276 841 L274 845 L267 852 L258 857 L250 859 L243 858 L235 854 L227 843 L228 839 L233 843 L239 845 L251 845 L261 841 L272 832 L274 834 L274 837 Z M569 832 L570 831 L571 832 L570 833 Z M510 832 L512 831 L523 834 L533 834 L534 835 L558 834 L565 832 L569 832 L570 834 L567 840 L566 845 L563 847 L559 847 L553 849 L529 849 L528 848 L517 847 L514 838 Z M708 819 L709 818 L711 819 L710 820 Z M408 814 L409 813 L410 814 L409 815 Z M667 812 L668 811 L669 812 L668 813 Z M488 794 L489 793 L498 798 L510 802 L526 804 L527 805 L553 805 L554 804 L560 804 L582 798 L590 793 L592 794 L592 797 L586 810 L573 828 L559 830 L558 831 L551 831 L550 832 L531 832 L530 831 L522 831 L509 828 L495 810 L491 803 Z M591 793 L592 792 L593 793 L592 794 Z M262 785 L263 784 L264 785 L263 786 Z M193 838 L194 837 L195 829 L202 811 L209 800 L222 784 L223 787 L218 805 L219 824 L224 834 L225 842 L228 849 L236 858 L244 861 L258 860 L267 855 L272 850 L275 845 L277 847 L278 852 L285 864 L295 874 L305 880 L318 884 L326 884 L327 885 L341 884 L359 879 L373 872 L393 859 L394 860 L394 865 L390 875 L387 875 L378 879 L370 885 L343 911 L323 925 L309 932 L294 937 L290 937 L284 939 L277 939 L276 940 L259 940 L258 939 L252 939 L251 938 L243 937 L226 930 L213 921 L200 907 L195 891 L193 875 L192 874 L192 845 L193 844 Z M261 784 L262 783 L263 784 L262 785 Z M822 779 L823 778 L824 779 L823 780 Z M823 777 L824 776 L825 778 L824 779 Z M485 775 L486 774 L498 781 L507 784 L511 784 L516 786 L522 786 L523 787 L556 787 L557 786 L563 786 L584 780 L593 775 L594 776 L594 789 L592 791 L583 795 L561 801 L556 801 L555 802 L525 802 L524 801 L518 801 L505 798 L489 792 L486 789 Z M479 731 L486 738 L502 747 L518 752 L532 753 L533 754 L558 753 L571 750 L587 743 L602 732 L593 738 L573 747 L560 750 L554 750 L553 751 L528 751 L527 750 L516 749 L500 744 L488 738 Z M604 716 L605 717 L604 723 L605 724 L606 740 L609 751 L617 768 L628 784 L642 798 L660 810 L671 821 L679 836 L683 849 L683 853 L682 854 L678 848 L669 839 L654 831 L639 830 L632 832 L625 836 L614 848 L610 856 L610 859 L607 866 L606 891 L607 892 L607 898 L609 906 L614 918 L620 927 L628 934 L637 938 L647 938 L656 934 L663 928 L670 916 L672 908 L672 895 L668 884 L661 877 L655 875 L647 877 L643 881 L640 889 L649 879 L656 878 L659 879 L666 886 L669 895 L668 911 L664 921 L654 932 L647 935 L637 935 L627 930 L621 924 L613 909 L609 892 L609 872 L610 871 L610 866 L613 856 L618 847 L627 838 L635 834 L649 833 L656 835 L665 840 L676 851 L682 861 L687 875 L688 895 L687 896 L686 910 L680 927 L674 936 L666 943 L660 946 L652 948 L630 948 L617 945 L611 945 L602 940 L586 925 L574 904 L568 885 L568 880 L567 879 L567 873 L566 872 L567 851 L570 840 L576 828 L587 814 L594 800 L597 788 L597 770 L595 770 L586 776 L576 780 L563 783 L558 783 L557 784 L548 784 L547 785 L532 785 L531 784 L522 784 L521 783 L511 782 L496 777 L483 770 L483 787 L486 798 L493 812 L508 832 L515 851 L515 856 L516 857 L516 877 L515 878 L515 883 L512 896 L510 899 L509 904 L503 916 L496 926 L484 938 L475 944 L470 944 L469 945 L452 947 L451 948 L433 948 L432 947 L423 946 L413 941 L403 930 L397 916 L395 908 L395 903 L394 902 L394 895 L393 894 L393 879 L395 871 L402 856 L408 848 L420 838 L432 833 L444 833 L456 839 L462 845 L468 855 L471 864 L472 876 L473 877 L473 889 L472 890 L472 896 L471 897 L470 905 L467 914 L461 924 L454 931 L445 935 L432 934 L422 927 L415 915 L413 908 L413 902 L412 901 L414 890 L418 883 L425 878 L430 878 L435 880 L445 893 L445 898 L446 899 L446 903 L444 907 L437 913 L440 913 L447 908 L450 902 L452 894 L452 879 L450 871 L447 865 L439 857 L435 855 L425 855 L417 859 L410 867 L407 873 L404 885 L406 883 L408 876 L413 867 L420 860 L428 857 L435 858 L442 863 L446 869 L449 879 L449 895 L448 896 L446 895 L441 883 L433 876 L430 875 L423 876 L419 878 L414 883 L410 893 L409 904 L413 919 L420 929 L426 934 L436 938 L448 937 L457 932 L463 926 L469 916 L473 904 L474 896 L475 895 L475 887 L476 886 L474 865 L468 849 L457 836 L450 832 L443 830 L428 831 L421 834 L412 840 L405 847 L397 859 L396 858 L396 854 L397 853 L398 843 L402 831 L407 822 L417 812 L430 804 L440 796 L453 782 L462 769 L469 755 L473 743 L474 733 L475 732 L475 718 L476 717 L483 724 L490 729 L505 736 L508 736 L516 739 L529 740 L530 741 L551 741 L552 740 L564 739 L581 734 L595 726 Z M493 687 L494 686 L495 687 L494 688 Z M492 686 L493 685 L494 686 L493 687 Z M198 676 L199 677 L200 691 L201 692 L201 701 L200 702 L200 708 L196 724 L195 723 L195 700 L196 699 L196 687 L197 686 L197 677 Z M882 673 L884 677 L885 697 L886 698 L886 707 L887 708 L887 721 L888 722 L888 745 L887 746 L886 745 L886 740 L885 739 L885 735 L880 714 L880 708 L879 707 L880 684 L881 683 L881 674 Z M736 663 L758 663 L759 664 L763 664 L772 667 L785 674 L800 688 L804 694 L812 710 L815 722 L816 738 L815 739 L814 751 L811 760 L803 775 L791 788 L781 795 L773 799 L760 803 L744 804 L743 803 L732 802 L723 799 L710 792 L691 773 L686 765 L680 748 L680 743 L679 742 L679 723 L680 722 L681 713 L687 698 L693 689 L706 676 L722 667 Z M326 663 L346 663 L347 664 L351 664 L360 667 L370 672 L377 677 L387 687 L395 699 L400 711 L402 719 L402 724 L403 725 L403 740 L402 741 L401 751 L398 760 L393 770 L388 777 L376 789 L369 794 L350 802 L337 803 L336 804 L322 803 L314 801 L299 794 L292 789 L282 779 L274 767 L268 751 L267 738 L266 737 L267 723 L271 708 L276 697 L284 686 L301 672 L311 667 Z M737 660 L724 663 L711 669 L699 678 L685 696 L679 710 L676 723 L676 742 L679 755 L684 767 L692 779 L704 791 L711 796 L729 804 L737 806 L758 806 L773 802 L785 796 L792 791 L805 777 L812 765 L817 750 L818 738 L819 737 L818 722 L814 707 L807 693 L801 685 L792 676 L779 667 L766 662 L758 661 L757 660 Z M327 660 L308 665 L297 671 L288 678 L276 692 L269 705 L265 718 L264 732 L263 733 L264 746 L269 763 L273 771 L279 780 L290 791 L300 798 L315 804 L323 805 L324 806 L344 806 L345 805 L353 804 L366 799 L378 791 L389 780 L396 770 L404 751 L405 738 L406 737 L406 728 L405 727 L405 720 L404 719 L403 711 L397 697 L388 684 L379 675 L369 668 L358 663 L345 660 Z M497 651 L498 650 L507 658 L517 663 L529 666 L551 666 L552 665 L556 665 L567 661 L582 650 L583 651 L583 657 L581 665 L578 671 L569 680 L561 684 L550 687 L530 687 L514 682 L503 673 L498 662 Z M326 650 L350 650 L351 651 L356 651 L372 656 L388 665 L405 681 L411 690 L417 702 L422 721 L423 740 L422 741 L421 755 L416 771 L408 786 L396 800 L382 810 L367 817 L355 820 L350 820 L349 821 L329 821 L328 820 L317 819 L298 812 L287 805 L273 792 L267 784 L260 770 L255 752 L254 731 L255 730 L256 716 L261 700 L269 685 L282 670 L296 660 L307 655 Z M732 650 L748 649 L749 650 L763 651 L779 656 L792 663 L813 684 L823 704 L827 720 L828 744 L827 745 L826 757 L820 775 L813 787 L799 802 L789 809 L772 817 L760 820 L754 820 L753 821 L728 820 L711 815 L693 805 L679 792 L671 781 L665 769 L660 751 L659 728 L660 727 L661 715 L665 701 L675 683 L688 669 L698 662 L715 654 Z M403 631 L419 642 L433 654 L443 664 L460 686 L469 703 L471 711 L471 719 L472 720 L471 723 L471 734 L467 750 L459 767 L449 781 L435 795 L418 807 L408 812 L385 819 L371 821 L370 820 L371 819 L375 818 L388 811 L396 805 L406 795 L414 784 L420 772 L425 755 L427 731 L426 730 L426 720 L422 704 L415 689 L409 680 L399 669 L390 662 L399 654 L402 648 L403 641 L402 640 L401 632 Z M400 631 L401 630 L402 631 L401 632 Z M676 629 L678 630 L678 637 L682 651 L688 658 L693 661 L687 665 L674 678 L667 688 L662 698 L657 714 L656 726 L655 727 L656 751 L662 772 L667 782 L674 792 L688 806 L700 814 L709 818 L708 819 L697 818 L685 814 L678 813 L655 802 L645 795 L629 779 L622 769 L614 753 L609 735 L609 727 L608 726 L609 712 L613 699 L620 686 L629 673 L640 660 L654 646 Z M396 627 L399 630 L400 647 L397 654 L389 661 L375 653 L356 647 L352 647 L351 646 L327 646 L326 647 L316 648 L304 652 L292 658 L283 664 L269 678 L262 689 L256 702 L252 716 L251 729 L250 730 L250 743 L251 744 L252 757 L256 771 L260 778 L260 780 L262 782 L261 784 L252 774 L244 762 L237 746 L234 734 L234 729 L233 728 L233 706 L234 705 L234 699 L237 686 L239 683 L239 680 L241 677 L242 672 L249 658 L260 642 L269 633 L280 625 L294 618 L306 614 L314 613 L315 612 L321 612 L322 611 L348 611 L349 612 L360 613 L377 618 Z M682 625 L693 619 L719 610 L729 609 L730 608 L737 608 L738 607 L756 607 L757 608 L764 608 L765 609 L774 610 L791 616 L809 627 L822 640 L829 650 L837 665 L843 681 L846 694 L846 701 L847 702 L847 721 L846 722 L846 730 L845 731 L844 740 L840 752 L832 768 L825 777 L824 774 L829 762 L830 753 L831 752 L831 745 L832 744 L831 719 L825 698 L817 683 L811 675 L801 665 L786 655 L771 649 L758 646 L733 646 L732 647 L726 647 L709 652 L694 660 L689 657 L684 651 L681 641 L680 629 L679 628 Z M506 600 L507 599 L521 608 L532 611 L550 611 L558 609 L565 606 L573 600 L575 602 L577 618 L579 623 L579 627 L582 638 L582 644 L583 645 L570 656 L562 660 L551 663 L529 663 L517 660 L509 656 L497 646 L499 633 L506 605 Z M870 594 L871 595 L871 623 L867 626 L866 625 L866 621 L867 620 L868 603 L869 602 L869 595 Z M887 868 L886 869 L885 882 L881 897 L870 912 L857 924 L851 928 L837 935 L822 939 L816 939 L815 940 L801 940 L800 939 L784 937 L762 928 L740 913 L701 878 L700 879 L690 874 L686 862 L687 860 L710 874 L723 880 L726 880 L734 883 L747 884 L748 885 L763 884 L776 880 L786 874 L798 861 L803 848 L807 856 L811 861 L818 865 L829 867 L830 866 L834 866 L843 861 L850 852 L852 847 L853 836 L855 833 L858 823 L858 805 L852 787 L852 791 L855 800 L856 819 L852 834 L847 841 L836 848 L824 849 L811 843 L806 838 L804 834 L802 834 L801 846 L793 863 L784 872 L778 876 L768 880 L759 881 L758 882 L743 882 L742 881 L737 881 L721 876 L699 864 L685 858 L686 856 L685 843 L681 831 L674 819 L668 813 L670 812 L686 818 L703 822 L726 823 L727 824 L734 824 L735 825 L752 825 L753 824 L759 824 L772 821 L790 813 L808 800 L825 783 L837 765 L846 743 L849 730 L849 723 L850 722 L849 694 L842 669 L831 647 L823 636 L815 628 L796 615 L775 607 L767 606 L766 605 L760 605 L759 604 L733 604 L732 605 L726 605 L725 606 L716 607 L701 612 L682 621 L669 629 L656 639 L633 662 L616 685 L608 701 L605 714 L600 719 L589 727 L579 732 L562 737 L542 738 L541 739 L539 738 L525 738 L524 737 L519 737 L507 734 L493 728 L482 721 L475 714 L474 706 L468 692 L462 682 L450 666 L429 645 L409 630 L389 619 L371 612 L354 609 L353 608 L328 607 L327 608 L319 608 L318 609 L304 611 L288 617 L270 628 L257 641 L251 649 L239 672 L231 699 L230 726 L231 727 L232 738 L237 754 L249 775 L263 791 L283 807 L302 818 L322 824 L328 824 L329 825 L348 825 L349 824 L357 824 L358 823 L382 822 L394 818 L397 818 L407 814 L409 815 L403 822 L399 829 L394 846 L394 852 L393 853 L394 858 L393 859 L388 860 L359 876 L347 880 L337 881 L336 882 L323 882 L322 881 L313 880 L297 872 L285 859 L279 847 L276 838 L275 827 L274 826 L264 836 L251 842 L239 842 L231 838 L225 831 L221 820 L221 804 L222 803 L222 797 L223 796 L224 784 L225 783 L225 778 L224 777 L225 774 L217 757 L212 737 L213 719 L218 704 L221 701 L218 691 L218 683 L219 682 L219 675 L221 667 L229 648 L241 630 L265 605 L273 599 L291 589 L310 583 L315 583 L316 582 L337 582 L338 583 L345 583 L346 584 L354 585 L375 592 L397 603 L413 613 L436 631 L461 657 L480 682 L492 690 L519 699 L537 700 L538 701 L556 700 L577 695 L594 686 L601 680 L619 656 L644 629 L670 608 L683 600 L711 587 L734 581 L740 581 L741 580 L766 580 L767 581 L772 581 L794 588 L804 593 L821 605 L835 619 L842 628 L849 639 L858 659 L862 676 L862 690 L859 702 L862 707 L865 719 L865 736 L860 755 L853 769 L853 779 L861 793 L872 806 L880 821 L886 843 Z M506 541 L507 540 L512 544 L522 549 L530 551 L543 552 L544 551 L552 551 L559 549 L568 545 L575 540 L576 541 L576 545 L574 550 L573 569 L572 570 L572 583 L573 584 L573 594 L574 596 L570 600 L563 604 L551 608 L543 608 L542 609 L527 607 L510 599 L507 596 L508 586 L509 585 L509 558 L508 557 L508 550 L507 549 Z M478 485 L480 483 L492 492 L514 502 L527 505 L547 506 L548 505 L560 504 L573 500 L594 490 L604 483 L606 484 L590 505 L583 519 L578 535 L572 540 L560 546 L549 549 L533 549 L532 548 L528 548 L521 546 L508 539 L504 534 L500 520 L492 504 Z M605 483 L606 482 L607 483 L606 484 Z M477 483 L478 482 L479 483 L478 484 Z M476 482 L477 481 L478 482 L477 483 Z M620 481 L621 480 L622 481 L621 482 Z M461 481 L462 480 L463 482 L462 483 Z M470 475 L478 489 L487 501 L496 518 L502 535 L504 543 L504 548 L505 549 L505 557 L506 558 L506 588 L505 589 L504 601 L503 602 L501 616 L498 625 L498 629 L495 639 L495 645 L494 646 L494 658 L496 666 L501 675 L506 680 L518 687 L531 690 L549 690 L561 687 L571 682 L580 673 L583 668 L586 656 L585 638 L579 613 L579 608 L576 595 L576 587 L575 586 L575 565 L576 564 L576 556 L577 555 L579 540 L584 524 L592 507 L614 476 L573 497 L556 502 L533 503 L532 502 L521 501 L506 496 L492 489 Z M806 471 L807 470 L808 471 L807 472 Z M272 467 L273 466 L274 468 L273 469 Z M826 464 L827 463 L828 464 L827 465 Z M248 464 L249 463 L250 464 L249 465 Z M825 463 L826 462 L827 463 L826 464 Z M249 463 L250 462 L251 463 L250 464 Z M824 462 L825 461 L826 462 L825 463 Z M250 462 L251 461 L252 462 L251 463 Z M823 461 L824 460 L825 461 L824 462 Z M323 461 L324 460 L325 461 L324 462 Z M251 461 L252 460 L253 461 L252 462 Z M822 460 L823 459 L824 460 L823 461 Z M252 460 L253 459 L254 460 L253 461 Z M253 459 L254 458 L255 459 L254 460 Z M275 449 L276 450 L276 458 L277 460 L269 466 L265 471 L261 480 L260 491 L263 504 L281 534 L282 544 L280 546 L268 539 L251 535 L243 531 L235 522 L233 517 L233 509 L231 508 L225 519 L224 528 L223 529 L223 536 L227 550 L237 566 L241 575 L243 583 L243 590 L240 601 L236 609 L227 621 L217 630 L215 628 L215 623 L213 618 L213 614 L210 603 L210 597 L209 596 L210 556 L211 555 L212 540 L217 519 L227 496 L239 479 L257 461 Z M689 448 L690 447 L691 449 L690 450 Z M532 441 L558 441 L559 442 L560 452 L561 453 L560 462 L558 466 L552 472 L548 474 L541 474 L536 471 L531 465 L529 459 L529 448 L530 447 L530 443 Z M290 440 L293 445 L292 457 L290 461 L286 465 L282 465 L280 462 L281 460 L278 458 L278 448 L281 445 Z M613 435 L615 437 L619 447 L619 458 L614 465 L605 467 L600 465 L593 457 L590 446 L590 440 L592 438 L599 438 L600 437 L606 437 Z M476 435 L484 436 L485 437 L491 437 L492 438 L499 438 L500 439 L499 441 L499 448 L495 459 L489 465 L484 467 L477 466 L471 460 L469 453 L470 446 L474 437 Z M760 430 L776 440 L777 442 L777 450 L774 454 L769 453 L762 446 L759 437 L759 431 Z M645 427 L648 427 L664 421 L670 427 L674 433 L676 439 L676 447 L674 451 L670 455 L667 456 L661 456 L657 454 L651 448 L647 440 L646 433 L644 429 Z M425 419 L432 421 L437 424 L445 426 L446 428 L444 431 L442 440 L437 449 L427 456 L421 456 L414 451 L412 445 L412 440 L415 431 L419 425 Z M329 419 L330 420 L330 424 L326 436 L320 442 L315 442 L312 438 L313 428 Z M329 419 L330 418 L331 419 L330 420 Z M359 408 L363 411 L363 416 L352 425 L350 423 L351 413 L356 408 Z M398 400 L408 409 L395 422 L389 426 L384 427 L381 422 L382 415 L392 404 Z M371 394 L372 393 L373 394 L372 395 Z M719 388 L720 387 L734 400 L754 414 L772 423 L774 425 L782 428 L804 441 L823 459 L821 460 L809 451 L786 440 L784 440 L754 424 L740 413 L729 402 L720 391 Z M718 387 L719 386 L720 387 L719 388 Z M717 385 L718 384 L719 386 L718 387 Z M534 384 L557 384 L558 385 L561 396 L561 407 L557 416 L550 421 L546 422 L540 421 L531 413 L529 408 L529 396 L532 386 Z M716 384 L717 383 L718 384 L717 385 Z M589 380 L593 380 L606 376 L609 376 L613 380 L619 391 L619 395 L620 396 L619 403 L614 410 L610 412 L604 412 L600 410 L594 404 L590 395 L589 383 L588 382 Z M711 376 L720 395 L725 402 L740 417 L756 429 L756 436 L758 442 L763 450 L768 455 L772 457 L777 454 L779 450 L779 442 L781 441 L807 453 L820 462 L831 472 L843 488 L853 507 L862 534 L865 556 L867 562 L864 537 L855 507 L842 480 L827 459 L806 439 L788 428 L765 417 L750 408 L730 393 Z M483 375 L495 379 L499 379 L503 381 L502 390 L499 400 L488 411 L480 411 L476 409 L473 406 L471 400 L472 391 L477 382 Z M371 375 L366 384 L353 397 L337 410 L322 420 L291 436 L267 450 L256 459 L254 458 L271 441 L288 430 L324 410 L350 392 L367 378 L370 374 Z M191 375 L192 374 L193 375 L192 376 Z M261 359 L262 358 L263 359 L262 360 Z M828 358 L832 358 L833 357 L854 357 L866 360 L879 367 L888 376 L890 380 L883 494 L882 495 L882 505 L881 506 L878 538 L877 539 L877 543 L875 546 L873 543 L873 536 L866 506 L859 486 L851 468 L849 466 L838 445 L820 420 L793 392 L803 386 L811 378 L816 369 L817 364 L820 361 Z M257 359 L264 364 L266 371 L271 379 L279 387 L284 390 L252 422 L230 453 L223 467 L221 469 L213 487 L207 505 L204 518 L204 524 L203 525 L201 521 L199 491 L198 490 L198 479 L197 478 L197 467 L196 466 L194 420 L193 419 L193 399 L192 398 L192 379 L195 374 L201 368 L207 364 L219 359 L227 358 L228 357 L248 357 L249 358 Z M410 351 L411 350 L412 351 L411 352 Z M840 456 L851 477 L859 497 L859 500 L861 503 L861 506 L866 522 L868 537 L869 538 L870 558 L871 559 L871 582 L867 597 L865 623 L864 624 L847 601 L844 595 L841 583 L842 564 L848 546 L849 537 L850 536 L850 524 L847 513 L846 513 L845 518 L842 524 L832 534 L808 546 L805 544 L808 531 L817 514 L819 508 L821 493 L820 492 L820 486 L816 476 L802 462 L801 462 L801 465 L803 468 L805 476 L805 483 L803 490 L799 496 L788 506 L772 515 L753 529 L751 526 L751 515 L755 502 L759 494 L763 479 L762 466 L760 460 L757 456 L756 456 L754 466 L750 474 L746 479 L711 506 L699 519 L690 532 L689 531 L690 513 L700 476 L700 464 L698 456 L695 450 L687 441 L686 441 L687 444 L687 459 L681 474 L671 487 L641 517 L633 529 L624 551 L621 546 L617 530 L617 508 L618 507 L619 496 L625 475 L615 484 L608 495 L603 505 L603 508 L614 488 L620 481 L621 483 L619 487 L615 504 L614 529 L615 530 L616 540 L622 555 L624 557 L626 557 L630 542 L641 522 L649 512 L674 488 L684 474 L688 465 L689 457 L690 456 L690 450 L691 449 L693 451 L697 461 L697 479 L696 480 L695 488 L691 498 L687 514 L687 519 L686 520 L686 530 L687 531 L687 536 L689 538 L697 526 L710 511 L748 481 L755 471 L755 469 L758 464 L760 469 L760 480 L756 494 L750 507 L749 515 L748 516 L748 526 L751 531 L757 530 L768 521 L794 505 L802 497 L807 487 L807 472 L808 471 L812 475 L816 482 L818 498 L815 511 L804 533 L803 548 L806 550 L831 538 L839 532 L846 522 L847 523 L847 538 L838 570 L838 584 L840 592 L846 605 L861 624 L866 632 L868 631 L869 629 L867 628 L871 626 L875 630 L880 641 L881 660 L880 661 L880 671 L879 672 L879 680 L878 681 L877 704 L878 705 L878 715 L885 745 L886 760 L888 768 L888 778 L889 779 L889 792 L890 793 L890 839 L888 841 L887 840 L886 830 L879 812 L874 804 L861 788 L855 776 L855 771 L863 755 L868 735 L867 715 L865 709 L860 701 L863 695 L864 684 L865 683 L864 671 L858 651 L848 632 L838 618 L822 602 L811 594 L792 584 L771 578 L743 577 L742 578 L735 578 L734 579 L725 580 L706 586 L679 599 L652 618 L623 647 L610 663 L605 671 L592 684 L588 686 L587 685 L591 681 L595 674 L599 658 L598 640 L597 639 L597 634 L596 633 L595 624 L590 604 L590 598 L589 597 L588 569 L589 568 L589 557 L590 556 L591 544 L595 528 L600 514 L597 518 L591 535 L588 552 L587 553 L586 572 L585 573 L587 603 L590 614 L590 619 L593 628 L593 633 L595 639 L595 646 L596 647 L596 658 L593 671 L588 680 L579 689 L563 696 L552 697 L551 698 L531 698 L530 697 L523 697 L515 695 L502 689 L493 681 L487 671 L485 664 L485 657 L484 656 L485 640 L491 616 L491 612 L493 607 L495 590 L496 589 L496 559 L495 558 L495 551 L494 550 L494 545 L491 532 L487 521 L483 513 L481 512 L486 523 L490 537 L492 553 L493 554 L493 570 L494 571 L492 597 L482 640 L481 657 L482 658 L482 664 L484 671 L488 679 L493 685 L491 686 L484 681 L457 648 L430 622 L409 607 L382 592 L357 583 L349 581 L344 581 L343 580 L337 580 L336 579 L311 580 L310 581 L302 582 L284 589 L268 599 L249 616 L232 638 L224 652 L224 654 L219 664 L216 677 L216 690 L219 701 L214 708 L211 716 L210 726 L209 727 L209 735 L210 736 L211 748 L217 764 L221 770 L222 776 L218 785 L202 805 L196 817 L193 826 L192 834 L191 835 L191 842 L190 843 L189 842 L189 835 L188 834 L189 785 L190 784 L191 765 L192 764 L192 757 L193 756 L195 737 L196 736 L196 732 L198 727 L198 723 L200 718 L202 703 L203 702 L203 687 L202 686 L201 674 L199 667 L199 640 L201 633 L205 627 L208 628 L213 633 L217 633 L223 629 L229 623 L240 608 L245 595 L245 579 L243 572 L239 564 L232 554 L227 542 L226 527 L229 516 L230 515 L231 516 L233 524 L242 534 L248 537 L265 541 L282 550 L285 544 L284 535 L279 524 L267 506 L263 492 L263 485 L265 477 L267 473 L272 468 L273 469 L273 480 L277 489 L283 495 L295 502 L297 502 L312 509 L323 516 L335 526 L340 525 L342 522 L342 511 L339 501 L325 473 L324 469 L324 462 L325 461 L338 476 L359 491 L371 502 L385 519 L394 534 L396 533 L397 530 L397 514 L396 513 L396 508 L393 495 L387 477 L387 470 L386 469 L387 457 L393 446 L394 447 L394 457 L400 475 L412 492 L434 514 L442 524 L453 544 L457 557 L460 555 L464 547 L468 531 L468 508 L462 484 L463 482 L469 489 L480 508 L479 503 L465 481 L457 474 L464 499 L465 514 L466 515 L466 524 L465 525 L464 538 L460 549 L458 550 L453 537 L445 523 L438 514 L410 485 L404 476 L397 458 L397 453 L396 452 L397 439 L388 449 L384 459 L384 475 L387 487 L390 494 L393 511 L394 512 L394 526 L393 527 L387 517 L376 503 L360 488 L338 472 L328 461 L322 452 L321 453 L322 472 L325 481 L333 495 L333 497 L338 507 L339 522 L335 523 L325 514 L316 508 L302 501 L300 501 L284 492 L277 483 L276 480 L276 470 L279 464 L284 468 L290 465 L295 455 L294 439 L303 433 L310 430 L311 431 L311 437 L316 444 L323 443 L328 438 L330 434 L333 423 L333 416 L348 405 L349 406 L348 425 L352 428 L359 424 L362 421 L365 415 L363 409 L358 407 L359 404 L371 394 L372 395 L371 399 L372 400 L374 399 L375 396 L381 389 L387 387 L390 392 L396 398 L393 401 L390 402 L383 409 L381 413 L380 424 L383 429 L389 429 L397 424 L409 410 L424 418 L417 424 L413 430 L410 438 L410 448 L411 451 L415 456 L422 459 L429 458 L438 452 L444 442 L446 435 L446 430 L448 427 L451 429 L469 433 L473 435 L468 445 L467 454 L471 464 L478 469 L489 468 L497 461 L501 452 L502 440 L503 439 L528 441 L529 442 L527 445 L527 450 L526 451 L527 462 L531 470 L539 476 L543 476 L544 477 L550 476 L554 474 L560 468 L563 461 L563 449 L560 442 L561 441 L570 441 L571 440 L587 439 L588 440 L589 453 L593 462 L600 468 L611 469 L618 463 L621 456 L621 446 L616 436 L617 434 L626 433 L638 429 L641 429 L644 435 L645 442 L649 450 L655 456 L662 459 L667 459 L672 457 L677 452 L679 446 L678 436 L674 428 L666 420 L676 415 L685 409 L696 424 L701 428 L705 430 L711 430 L714 428 L715 426 L712 428 L709 428 L701 425 L695 419 L687 408 L700 397 L713 409 L716 415 L716 421 L718 419 L718 415 L715 407 L712 403 L700 394 L702 392 L706 382 L706 368 L703 362 L706 361 L710 363 L720 363 L724 359 L722 353 L715 346 L717 345 L752 365 L785 390 L812 417 L827 436 Z M714 345 L715 344 L716 345 L715 346 Z M712 344 L713 343 L714 344 L713 345 Z M690 346 L691 345 L701 344 L704 342 L715 349 L720 355 L721 359 L718 361 L713 361 L702 358 Z M706 341 L707 340 L708 341 L707 342 Z M397 344 L388 354 L383 356 L375 357 L371 354 L371 351 L373 348 L384 341 L391 340 Z M385 333 L388 337 L374 344 L368 350 L367 353 L368 357 L373 359 L380 359 L384 357 L386 358 L382 370 L382 376 L385 384 L384 385 L379 386 L372 390 L364 396 L352 408 L351 407 L350 403 L369 384 L374 373 L374 368 L357 383 L337 398 L307 417 L284 429 L263 444 L246 462 L231 484 L221 503 L218 513 L216 516 L216 519 L212 531 L211 541 L210 542 L210 549 L209 550 L208 572 L207 573 L207 590 L208 591 L208 600 L209 601 L210 612 L214 627 L213 631 L206 624 L207 617 L206 616 L205 570 L204 569 L205 540 L206 539 L206 531 L207 530 L208 519 L212 502 L218 485 L232 457 L244 439 L259 420 L293 387 L316 370 L338 356 L375 337 Z M611 322 L612 321 L615 322 L614 323 Z M443 338 L445 333 L453 326 L461 322 L473 319 L474 320 L462 327 L458 333 L458 340 L459 342 L467 350 L481 358 L496 363 L509 366 L514 366 L515 367 L537 368 L538 369 L568 368 L569 367 L582 366 L603 361 L614 357 L621 353 L629 346 L631 342 L631 338 L630 335 L623 328 L614 323 L615 322 L628 326 L637 331 L645 339 L646 348 L645 349 L645 353 L638 360 L619 370 L607 374 L595 376 L590 378 L578 379 L577 380 L568 380 L567 381 L525 381 L524 380 L515 380 L514 379 L509 379 L508 378 L503 378 L498 376 L490 375 L475 370 L461 363 L448 353 L444 346 Z M473 319 L474 318 L476 319 L475 320 Z M476 318 L477 317 L479 318 L478 319 Z M480 317 L481 316 L482 317 L481 318 Z M592 314 L593 313 L594 314 L593 315 Z M460 334 L466 327 L475 322 L501 314 L512 313 L513 312 L521 312 L522 311 L559 311 L560 312 L579 314 L606 322 L623 331 L627 335 L629 339 L627 344 L618 352 L607 357 L594 361 L579 363 L578 364 L572 364 L571 365 L561 365 L560 366 L529 366 L528 365 L519 365 L518 364 L502 362 L483 356 L473 351 L466 346 L461 340 Z M592 309 L593 308 L595 309 L594 310 Z M388 333 L390 331 L401 326 L429 317 L445 313 L460 311 L461 310 L484 307 L485 308 L479 312 L456 321 L449 325 L443 331 L440 338 L440 342 L442 348 L446 353 L437 357 L430 363 L426 370 L426 378 L428 381 L427 374 L431 366 L437 360 L446 355 L448 355 L454 361 L458 363 L460 366 L445 381 L441 383 L431 383 L431 384 L435 386 L439 386 L447 383 L462 367 L478 373 L480 375 L476 379 L471 387 L469 393 L469 401 L470 405 L476 412 L483 414 L489 413 L493 411 L499 405 L504 394 L505 382 L506 381 L518 382 L519 383 L529 383 L530 386 L527 393 L526 405 L527 406 L527 410 L530 416 L536 421 L535 422 L506 420 L505 419 L498 419 L497 418 L476 415 L446 406 L423 394 L408 380 L404 371 L404 363 L406 357 L410 351 L414 356 L417 354 L417 350 L414 347 L420 342 L419 341 L414 344 L405 354 L401 363 L401 372 L406 382 L417 393 L431 402 L461 414 L487 420 L498 421 L499 422 L516 423 L517 424 L532 424 L533 425 L560 425 L561 424 L574 424 L575 423 L585 423 L586 422 L606 420 L607 419 L629 415 L656 406 L672 397 L684 386 L689 377 L690 373 L689 362 L686 356 L676 344 L669 342 L674 347 L675 354 L678 355 L680 351 L687 364 L687 374 L683 383 L670 395 L651 405 L646 406 L643 408 L640 408 L637 410 L617 415 L602 417 L601 418 L587 419 L586 420 L556 422 L555 421 L562 413 L564 405 L563 393 L560 386 L563 383 L573 383 L574 382 L585 381 L586 382 L587 394 L592 406 L600 413 L611 414 L615 412 L619 408 L622 401 L622 393 L620 387 L616 380 L611 375 L612 374 L618 373 L631 367 L637 376 L644 383 L651 386 L658 385 L659 384 L652 384 L647 382 L638 373 L633 366 L646 355 L657 362 L661 367 L664 374 L662 382 L664 381 L666 377 L666 371 L661 362 L656 358 L646 353 L649 347 L649 341 L646 335 L642 331 L626 322 L599 313 L594 310 L595 309 L620 312 L621 313 L625 313 L651 319 L674 326 L677 328 L697 335 L700 338 L702 338 L704 340 L703 341 L695 343 L688 342 L685 343 L685 344 L699 359 L702 365 L704 373 L704 378 L702 386 L696 396 L685 406 L664 418 L638 427 L622 430 L617 432 L608 433 L607 434 L585 436 L584 437 L574 437 L573 438 L518 438 L517 437 L497 436 L496 435 L490 435 L489 434 L469 431 L447 424 L444 424 L419 413 L403 403 L390 390 L387 385 L384 376 L385 366 L389 357 L403 343 L403 342 L398 341 L392 338 Z M251 300 L252 299 L253 300 L252 301 Z M830 303 L841 297 L849 295 L868 294 L881 297 L887 300 L892 305 L891 361 L890 362 L890 374 L889 375 L886 370 L876 362 L868 358 L857 355 L836 354 L835 355 L827 356 L821 359 L819 358 L823 342 L824 331 L825 330 L827 307 Z M250 302 L253 305 L256 330 L257 331 L258 341 L262 358 L261 359 L255 356 L246 355 L245 354 L225 355 L214 358 L204 363 L193 374 L191 372 L190 305 L195 300 L201 297 L204 297 L208 295 L214 295 L215 294 L233 295 L243 298 Z M891 228 L891 253 L892 254 L892 301 L891 302 L886 297 L877 293 L867 292 L866 291 L856 291 L839 295 L829 302 L828 299 L829 298 L829 289 L830 288 L830 279 L831 278 L833 244 L836 240 L844 233 L854 228 L862 226 L866 226 L867 225 L884 225 Z M192 227 L199 225 L217 225 L218 226 L222 226 L233 230 L244 238 L248 244 L251 288 L252 289 L252 299 L251 300 L247 297 L237 293 L218 291 L217 292 L210 292 L202 294 L193 299 L191 302 L190 301 L190 250 L191 249 L191 228 Z M243 175 L244 176 L243 179 L242 178 Z M478 161 L481 166 L492 177 L499 182 L516 189 L524 191 L530 191 L531 192 L551 191 L565 187 L577 181 L584 176 L593 167 L597 161 L598 162 L598 164 L591 176 L578 189 L567 197 L559 208 L557 216 L557 236 L558 237 L559 250 L560 251 L563 268 L568 283 L578 301 L586 309 L590 311 L592 313 L591 314 L573 311 L572 310 L567 310 L566 309 L558 309 L557 308 L525 308 L524 309 L515 309 L514 310 L508 310 L507 311 L487 313 L486 314 L483 313 L490 308 L498 299 L507 282 L508 277 L510 274 L518 240 L519 212 L515 203 L507 195 L494 186 L485 177 L477 164 Z M889 161 L889 179 L890 180 L891 224 L890 225 L881 222 L863 223 L847 228 L841 232 L835 238 L834 237 L834 227 L835 226 L837 186 L843 175 L853 166 L864 161 L872 159 L885 159 Z M597 160 L598 159 L599 161 L598 162 Z M476 160 L477 159 L478 161 L477 162 Z M197 159 L210 159 L221 162 L229 166 L234 170 L242 180 L245 188 L245 204 L246 205 L247 235 L248 236 L247 239 L241 232 L228 225 L220 223 L215 223 L214 222 L202 222 L193 225 L191 224 L193 169 L194 168 L194 161 Z M598 158 L599 157 L600 158 L599 159 Z M475 158 L476 157 L477 159 L476 160 Z M871 76 L878 82 L882 94 L884 111 L885 112 L885 119 L886 120 L886 129 L887 130 L888 156 L887 157 L882 157 L881 156 L870 157 L855 162 L849 166 L842 173 L839 178 L838 177 L838 172 L839 171 L839 160 L840 159 L842 134 L843 133 L844 121 L850 95 L854 84 L860 77 Z M213 76 L220 77 L226 83 L232 97 L237 118 L240 143 L241 144 L242 164 L243 165 L243 175 L242 176 L232 165 L223 160 L214 157 L207 157 L206 156 L196 157 L195 158 L194 157 L196 124 L197 123 L197 115 L198 114 L198 107 L199 106 L200 96 L205 82 L210 77 Z M525 71 L544 70 L545 71 L554 72 L565 76 L577 84 L586 93 L591 100 L598 114 L601 126 L601 144 L599 151 L594 161 L581 175 L572 181 L561 186 L548 189 L527 189 L509 184 L495 176 L482 163 L478 157 L473 143 L474 124 L477 113 L487 95 L498 84 L505 79 L515 74 Z M210 73 L207 74 L202 79 L199 85 L195 101 L195 106 L194 107 L192 134 L191 135 L191 148 L190 149 L189 188 L188 189 L188 214 L187 215 L187 243 L186 244 L186 341 L187 342 L187 373 L188 374 L188 399 L189 400 L189 420 L190 421 L190 437 L191 438 L193 479 L194 480 L194 491 L195 492 L195 501 L196 502 L197 523 L198 524 L199 538 L201 544 L201 550 L200 551 L200 574 L201 575 L201 596 L202 597 L202 624 L197 632 L195 639 L195 662 L194 663 L194 675 L193 676 L192 698 L191 699 L191 730 L192 734 L191 735 L191 741 L190 742 L190 748 L188 756 L186 784 L185 785 L185 801 L184 802 L184 837 L185 838 L185 851 L186 852 L188 875 L189 876 L189 881 L190 882 L193 899 L201 918 L200 922 L201 945 L209 967 L209 989 L208 990 L208 1013 L207 1017 L208 1018 L208 1031 L209 1032 L210 1041 L215 1055 L224 1073 L226 1075 L240 1105 L240 1107 L250 1129 L262 1164 L274 1190 L283 1204 L298 1222 L305 1238 L319 1259 L335 1275 L343 1281 L351 1285 L354 1288 L353 1316 L354 1317 L355 1327 L362 1340 L376 1355 L394 1368 L419 1380 L447 1389 L474 1394 L475 1395 L480 1395 L481 1396 L506 1398 L507 1399 L523 1399 L524 1400 L560 1400 L561 1399 L575 1399 L576 1398 L600 1396 L601 1395 L606 1395 L611 1393 L620 1392 L632 1388 L635 1388 L660 1379 L684 1366 L697 1356 L713 1338 L717 1331 L720 1321 L720 1301 L719 1300 L719 1290 L718 1287 L728 1282 L736 1276 L751 1261 L760 1248 L764 1239 L786 1218 L805 1193 L822 1156 L828 1137 L832 1129 L833 1124 L835 1121 L836 1116 L846 1091 L863 1055 L871 1029 L871 1019 L872 1018 L872 977 L873 976 L874 966 L880 954 L884 940 L884 934 L885 933 L885 906 L884 905 L884 898 L887 891 L889 878 L890 877 L892 853 L893 852 L893 840 L894 839 L894 792 L893 791 L893 777 L892 776 L892 768 L891 767 L892 720 L891 719 L890 693 L889 692 L888 674 L887 673 L887 666 L886 665 L886 658 L885 657 L884 640 L879 629 L875 624 L875 554 L881 543 L883 524 L884 523 L884 515 L885 514 L885 506 L886 505 L886 496 L887 495 L889 457 L890 456 L890 442 L891 441 L891 425 L892 424 L892 409 L893 408 L894 362 L895 361 L895 324 L896 323 L896 250 L895 249 L894 180 L893 179 L893 159 L892 158 L891 128 L890 127 L890 118 L889 117 L888 104 L887 103 L885 90 L882 81 L877 75 L871 72 L863 72 L854 77 L849 86 L842 111 L842 116 L841 117 L839 133 L838 134 L838 140 L837 141 L837 149 L836 150 L834 181 L833 182 L833 195 L832 196 L831 224 L830 225 L830 238 L829 239 L829 252 L828 253 L828 265 L827 266 L827 277 L826 278 L826 288 L825 289 L825 297 L824 298 L824 306 L823 307 L823 315 L822 316 L820 336 L819 337 L819 341 L818 342 L814 363 L809 374 L801 383 L794 387 L788 388 L774 376 L748 358 L733 349 L718 342 L716 340 L695 330 L655 316 L635 311 L621 309 L620 308 L602 306 L601 305 L586 304 L578 294 L568 271 L563 250 L563 244 L562 243 L561 215 L565 205 L593 180 L601 167 L606 147 L605 126 L604 125 L603 117 L597 102 L591 93 L582 83 L571 75 L561 70 L544 66 L533 66 L532 67 L521 68 L504 75 L494 82 L486 90 L479 100 L473 113 L470 124 L470 129 L469 130 L469 150 L470 151 L470 156 L476 171 L487 185 L511 204 L515 213 L515 231 L514 232 L514 240 L513 241 L513 246 L510 256 L510 260 L503 281 L493 299 L489 303 L483 303 L482 304 L450 308 L445 310 L441 310 L421 315 L398 323 L374 334 L372 334 L343 349 L323 361 L301 376 L288 387 L279 382 L270 370 L267 362 L263 341 L262 340 L262 336 L261 335 L259 316 L258 315 L258 308 L257 307 L255 275 L254 274 L254 264 L253 263 L253 250 L252 249 L252 235 L251 234 L251 219 L250 218 L250 204 L249 203 L247 163 L246 162 L245 145 L244 144 L244 138 L243 137 L243 131 L242 130 L242 124 L241 123 L239 109 L232 86 L228 79 L224 75 L220 73 Z" fill="#eef3f4" fill-rule="evenodd"/>
</svg>
