<svg xmlns="http://www.w3.org/2000/svg" width="1448" height="1086" viewBox="0 0 1448 1086">
  <title>0288</title>
  <path d="M497 981 L498 980 L500 981 L499 982 Z M494 979 L496 978 L498 980 L496 981 Z M492 978 L493 977 L495 978 L494 979 Z M491 977 L492 976 L493 977 L492 978 Z M956 976 L957 975 L958 976 L957 977 Z M489 976 L490 975 L491 976 L490 977 Z M957 975 L958 974 L960 975 L959 976 Z M488 975 L489 974 L490 975 L489 976 Z M959 974 L960 973 L961 974 L960 975 Z M960 973 L961 972 L962 973 L961 974 Z M963 971 L964 970 L965 971 L964 972 Z M587 992 L587 993 L590 993 L604 987 L609 986 L661 962 L688 952 L705 948 L712 948 L713 947 L732 947 L733 948 L740 948 L741 949 L756 951 L774 957 L828 982 L848 990 L860 993 L805 967 L803 967 L794 962 L792 962 L770 952 L749 946 L739 945 L738 944 L730 944 L729 943 L717 943 L716 944 L702 945 L677 952 L650 964 L648 964 L603 986 Z M499 982 L501 981 L516 987 L529 990 L534 990 L535 991 L560 991 L561 990 L566 990 L574 988 L598 979 L674 939 L703 928 L707 928 L722 935 L731 933 L741 928 L750 930 L770 939 L772 939 L846 978 L848 978 L860 984 L882 990 L887 990 L888 991 L913 991 L914 990 L919 990 L937 985 L955 976 L957 977 L948 984 L933 991 L920 995 L916 995 L896 1000 L868 1003 L867 1004 L854 1004 L853 1005 L840 1005 L839 1006 L798 1007 L797 1008 L762 1008 L761 1009 L681 1009 L680 1008 L651 1008 L650 1007 L628 1007 L627 1006 L610 1006 L609 1005 L585 1004 L584 1003 L576 1003 L575 1002 L568 1002 L567 1001 L548 999 L547 998 L526 994 L511 989 Z M1000 926 L1001 925 L1002 926 L1001 927 Z M444 925 L445 924 L446 925 L445 926 Z M745 855 L744 855 L744 903 L743 904 L743 912 L741 920 L744 915 L745 907 L746 906 L746 899 L747 898 Z M701 855 L701 861 L700 862 L700 904 L701 905 L702 914 L704 919 L705 919 L703 911 L703 877 L702 876 L702 855 Z M665 826 L666 825 L669 826 L668 827 Z M753 825 L754 824 L776 824 L777 825 L776 826 L754 826 Z M694 825 L693 826 L671 826 L670 825 L671 824 L691 824 L692 823 Z M795 816 L793 819 L784 822 L783 821 L763 820 L762 819 L768 815 L781 811 L790 812 Z M651 816 L656 812 L665 811 L666 812 L674 813 L685 819 L684 820 L672 820 L666 822 L660 822 L655 820 Z M761 724 L760 724 L761 725 L761 749 L760 750 L760 759 L759 760 L758 772 L750 803 L746 813 L743 817 L743 819 L746 816 L755 796 L761 773 L762 759 L763 758 L763 732 Z M685 723 L684 726 L684 743 L683 744 L685 772 L689 789 L694 802 L701 816 L704 819 L704 817 L699 809 L694 795 L688 769 L687 756 L686 755 L686 723 Z M622 759 L621 767 L620 768 L620 774 L619 775 L619 788 L618 789 L619 804 L621 812 L625 820 L630 825 L635 828 L645 831 L701 830 L706 834 L716 838 L730 838 L739 835 L745 830 L764 830 L767 829 L768 830 L779 830 L780 831 L803 831 L815 826 L823 817 L826 809 L827 796 L828 795 L828 782 L827 781 L826 765 L822 751 L817 740 L812 733 L805 726 L793 719 L792 720 L798 724 L806 732 L813 742 L821 762 L822 772 L823 773 L823 803 L821 811 L818 817 L812 823 L802 827 L781 827 L780 826 L781 825 L789 825 L795 822 L799 815 L795 810 L791 808 L786 808 L785 807 L776 808 L767 811 L755 818 L738 831 L729 834 L717 834 L711 832 L701 826 L687 815 L677 810 L664 807 L656 808 L649 813 L650 820 L655 824 L662 825 L663 826 L662 827 L646 827 L639 825 L633 822 L629 818 L624 807 L624 803 L623 802 L623 777 L624 776 L624 769 L629 751 L633 743 L640 733 L649 724 L653 722 L655 719 L643 725 L634 734 L625 750 Z M799 700 L815 704 L823 708 L831 714 L839 722 L849 736 L865 767 L880 789 L897 805 L911 814 L927 822 L949 830 L961 833 L967 833 L968 834 L990 834 L1005 830 L1015 824 L1026 813 L1032 804 L1032 802 L1030 803 L1027 809 L1013 822 L1001 828 L988 831 L970 831 L969 830 L958 829 L941 824 L924 816 L922 816 L900 803 L881 785 L871 771 L851 733 L843 722 L833 712 L824 706 L815 702 L802 699 Z M648 700 L646 699 L638 700 L629 703 L615 711 L600 727 L591 741 L584 756 L573 775 L563 788 L546 803 L535 810 L515 820 L499 826 L483 830 L477 830 L476 831 L453 830 L443 827 L432 821 L422 812 L415 802 L414 803 L422 815 L430 823 L442 830 L451 833 L456 833 L457 834 L478 834 L479 833 L485 833 L497 830 L514 824 L531 816 L546 807 L554 801 L568 787 L581 768 L599 734 L607 723 L618 712 L629 705 L640 701 L647 701 Z M1021 698 L1020 698 L1020 700 L1023 706 L1028 724 L1030 749 L1029 750 L1028 764 L1024 777 L1019 787 L1013 795 L999 807 L991 811 L978 815 L966 816 L965 817 L955 817 L954 816 L942 815 L931 811 L929 811 L929 812 L944 817 L957 818 L958 819 L970 819 L971 818 L983 817 L1000 810 L1011 802 L1018 794 L1022 788 L1029 773 L1032 761 L1032 755 L1033 754 L1033 739 L1032 738 L1031 726 L1026 709 Z M426 698 L421 708 L416 724 L415 735 L414 736 L414 757 L419 777 L427 792 L439 805 L448 811 L463 817 L473 818 L474 819 L488 819 L489 818 L497 818 L513 814 L514 812 L499 816 L487 816 L486 817 L485 816 L472 816 L471 815 L463 814 L460 812 L455 811 L443 804 L432 793 L423 778 L417 754 L418 728 L422 711 L427 700 L427 698 Z M1019 693 L1016 688 L1011 683 L1005 680 L995 680 L989 682 L964 695 L947 700 L931 701 L930 702 L944 702 L945 701 L951 701 L963 698 L996 683 L1008 684 Z M428 692 L430 692 L437 685 L441 683 L452 683 L461 687 L463 689 L465 689 L478 696 L497 701 L503 701 L504 702 L517 702 L516 701 L501 700 L493 697 L486 696 L452 680 L442 680 L439 681 Z M807 655 L808 654 L809 655 L808 656 Z M637 655 L638 654 L639 655 L638 656 Z M745 636 L745 655 L746 656 L747 670 L751 686 L758 705 L759 711 L760 711 L760 707 L749 666 L749 661 L747 654 L747 638 Z M700 635 L699 636 L699 654 L698 655 L697 667 L686 708 L687 711 L691 699 L691 696 L697 680 L697 676 L700 666 L700 658 L701 657 L701 637 Z M1011 585 L1011 603 L1010 604 L1009 613 L1005 623 L1000 631 L983 648 L962 659 L970 657 L984 650 L991 645 L1002 634 L1009 622 L1012 613 L1012 609 L1013 608 L1013 586 Z M797 555 L798 558 L795 566 L792 579 L792 584 L791 585 L791 609 L792 610 L792 615 L795 627 L799 637 L808 653 L807 655 L797 648 L789 639 L781 625 L777 610 L777 592 L780 579 L787 565 Z M650 555 L658 562 L662 567 L666 575 L669 587 L669 593 L670 594 L670 607 L669 608 L668 617 L661 634 L656 641 L647 650 L639 655 L638 654 L642 648 L651 629 L655 615 L655 608 L656 607 L656 587 L655 586 L654 574 L649 558 Z M648 555 L649 554 L650 555 L649 556 Z M677 570 L680 564 L689 558 L698 555 L712 554 L713 553 L733 553 L734 554 L742 554 L755 557 L763 561 L769 568 L769 572 L767 575 L760 579 L753 581 L744 581 L743 580 L731 579 L730 578 L718 578 L717 579 L710 579 L703 581 L693 581 L682 577 L678 573 Z M675 566 L675 573 L680 579 L685 582 L693 583 L694 584 L684 589 L680 594 L693 587 L705 584 L712 584 L713 583 L742 584 L758 589 L766 594 L766 592 L764 590 L753 584 L763 581 L772 572 L772 567 L770 563 L763 557 L753 553 L745 552 L744 551 L737 551 L736 550 L709 550 L708 551 L697 552 L682 558 Z M947 533 L959 539 L978 555 L986 566 L991 576 L995 592 L995 604 L994 605 L993 613 L986 627 L972 640 L951 651 L949 649 L957 635 L964 613 L964 607 L965 606 L965 584 L959 558 L952 543 L946 535 Z M500 533 L501 534 L495 542 L488 556 L483 573 L482 587 L481 588 L481 601 L482 602 L483 615 L489 634 L498 649 L496 651 L473 639 L460 626 L456 619 L452 606 L452 591 L457 574 L466 559 L481 544 L493 536 Z M945 533 L946 532 L947 533 L946 534 Z M500 533 L501 532 L502 533 L501 534 Z M868 531 L884 531 L885 532 L893 533 L903 537 L912 543 L928 560 L933 570 L937 584 L937 604 L936 605 L936 609 L933 618 L925 632 L909 647 L897 653 L885 656 L867 656 L866 655 L858 654 L848 650 L836 642 L830 636 L822 625 L817 614 L815 606 L815 600 L814 599 L814 590 L815 589 L816 578 L820 567 L827 556 L840 543 L854 535 Z M563 531 L579 531 L580 532 L584 532 L593 535 L608 544 L619 555 L625 564 L629 573 L632 584 L632 604 L631 605 L631 609 L628 618 L620 632 L604 647 L592 653 L580 656 L556 655 L547 652 L536 646 L524 635 L517 625 L511 611 L510 601 L509 600 L509 588 L510 587 L510 582 L512 574 L521 557 L532 545 L539 540 L551 534 Z M867 527 L851 532 L840 538 L823 554 L815 568 L812 577 L811 586 L810 587 L810 602 L814 618 L820 630 L826 638 L837 648 L849 655 L861 659 L866 659 L867 660 L886 660 L907 653 L916 647 L928 635 L937 619 L940 610 L941 596 L942 595 L941 593 L941 583 L937 569 L932 559 L928 553 L916 541 L909 536 L890 528 L886 528 L885 527 Z M562 527 L550 530 L538 536 L532 540 L518 554 L510 568 L506 580 L505 602 L509 618 L514 628 L522 639 L532 648 L538 652 L552 658 L560 659 L561 660 L580 660 L595 656 L605 651 L611 647 L623 635 L627 629 L634 614 L636 606 L636 596 L637 595 L636 583 L633 572 L627 559 L622 552 L612 542 L600 534 L585 528 L581 528 L580 527 Z M686 530 L687 531 L696 524 L713 518 L734 518 L747 522 L757 527 L763 532 L763 530 L749 520 L736 515 L730 515 L729 514 L712 515 L703 518 L694 523 Z M776 583 L775 595 L774 596 L774 609 L775 610 L776 620 L782 635 L788 644 L801 656 L816 664 L821 665 L827 668 L830 668 L830 667 L821 664 L817 660 L809 648 L802 634 L796 614 L796 608 L795 607 L796 580 L803 555 L804 546 L822 530 L828 526 L846 518 L867 513 L893 513 L894 514 L909 516 L936 526 L949 546 L955 559 L959 573 L960 586 L961 587 L961 604 L960 605 L960 611 L959 612 L958 620 L952 636 L942 653 L937 657 L922 662 L905 666 L895 667 L895 668 L909 667 L942 659 L957 653 L972 645 L979 640 L989 630 L996 617 L999 605 L999 590 L994 572 L984 556 L971 543 L951 530 L927 519 L910 513 L895 511 L894 510 L869 510 L868 511 L858 512 L843 517 L825 526 L814 534 L787 560 L780 572 Z M453 572 L448 588 L448 595 L447 596 L448 608 L451 618 L455 626 L465 638 L476 646 L497 656 L533 666 L538 666 L545 668 L553 668 L552 667 L542 666 L525 662 L508 656 L500 646 L492 630 L488 618 L487 608 L486 607 L486 580 L487 579 L488 570 L490 566 L491 560 L497 547 L507 531 L512 525 L535 517 L548 514 L554 514 L555 513 L580 513 L581 514 L586 514 L609 521 L622 528 L632 535 L643 546 L645 559 L650 575 L651 589 L652 590 L652 605 L651 606 L650 618 L647 628 L638 647 L629 660 L625 664 L618 666 L615 669 L630 664 L648 654 L662 639 L668 627 L672 613 L672 600 L673 598 L672 597 L672 588 L670 580 L664 566 L656 555 L625 528 L609 519 L585 511 L580 511 L579 510 L554 510 L553 511 L547 511 L530 515 L510 523 L484 537 L470 548 L460 560 Z M934 507 L937 509 L940 509 L955 514 L973 523 L983 530 L995 542 L1004 555 L1010 571 L1011 580 L1013 582 L1012 568 L1009 559 L998 540 L988 530 L972 519 L970 519 L961 514 L946 509 Z M511 507 L497 510 L479 517 L470 522 L458 531 L450 539 L444 547 L438 559 L434 573 L434 598 L433 599 L434 610 L437 620 L442 630 L447 637 L457 646 L482 659 L484 659 L484 658 L472 653 L460 645 L450 635 L444 627 L440 619 L436 604 L436 585 L435 584 L436 576 L440 562 L446 550 L451 543 L463 531 L478 521 L497 512 L509 509 Z M578 458 L579 457 L580 458 L579 459 Z M904 429 L906 433 L905 434 L905 439 L903 443 L900 438 Z M543 429 L547 438 L545 440 L543 439 L543 435 L542 434 L542 430 Z M1050 413 L1049 413 L1050 446 L1049 447 L1049 459 L1048 460 L1047 476 L1046 477 L1044 491 L1035 522 L1027 539 L1027 541 L1019 555 L1020 556 L1024 551 L1029 540 L1031 538 L1031 536 L1038 522 L1045 500 L1047 488 L1049 483 L1050 472 L1051 471 L1051 462 L1052 461 L1052 430 L1051 429 Z M714 413 L706 417 L697 427 L693 440 L694 449 L699 458 L707 465 L716 469 L721 469 L722 470 L730 469 L742 463 L749 454 L752 444 L751 433 L748 426 L743 422 L749 432 L749 447 L744 456 L739 461 L729 466 L717 466 L711 464 L700 454 L697 447 L697 434 L701 425 L708 418 L718 413 Z M397 413 L396 416 L396 426 L395 427 L395 465 L396 466 L396 473 L397 474 L398 484 L404 508 L406 511 L412 529 L426 555 L428 556 L414 526 L406 503 L402 487 L400 471 L399 470 L399 464 L398 463 L398 452 L397 451 L397 423 L398 422 L398 414 Z M712 405 L729 404 L743 409 L753 418 L760 431 L761 447 L757 459 L753 465 L747 471 L734 478 L717 479 L716 478 L712 478 L702 473 L692 464 L685 449 L685 435 L690 422 L700 411 Z M717 400 L706 403 L700 406 L689 416 L683 427 L681 434 L681 449 L687 464 L699 476 L711 482 L730 483 L744 478 L751 473 L758 465 L764 452 L765 436 L760 421 L753 412 L747 407 L733 401 Z M406 364 L406 367 L409 376 L412 381 L413 386 L425 408 L433 419 L451 437 L467 448 L476 453 L478 453 L478 452 L470 448 L454 436 L439 421 L420 394 L410 374 L407 364 Z M1041 363 L1039 365 L1037 373 L1031 386 L1023 400 L1011 417 L989 439 L968 453 L978 449 L993 439 L1017 415 L1026 401 L1034 385 L1041 366 Z M912 362 L913 363 L912 367 L909 370 L908 369 L908 363 Z M538 362 L539 363 L539 367 L537 370 L534 364 Z M948 342 L945 342 L936 347 L929 355 L925 367 L925 378 L926 378 L927 368 L931 357 L941 346 L946 343 L948 343 Z M499 342 L499 343 L504 345 L512 352 L517 360 L520 369 L520 373 L521 376 L522 376 L521 365 L516 352 L508 345 L502 342 Z M1016 328 L1020 338 L1020 351 L1014 370 L1004 389 L995 401 L983 413 L970 423 L956 431 L943 436 L937 437 L936 436 L937 432 L926 444 L919 449 L905 453 L903 450 L903 445 L906 442 L908 437 L908 422 L906 415 L905 421 L898 436 L890 449 L884 455 L879 458 L867 459 L866 460 L864 459 L876 448 L883 439 L883 437 L871 450 L850 465 L833 472 L820 474 L821 475 L828 475 L840 472 L856 465 L861 461 L863 462 L854 471 L849 474 L847 474 L840 478 L829 481 L811 481 L800 477 L790 468 L786 459 L786 453 L785 452 L786 444 L790 435 L798 427 L808 423 L817 423 L823 425 L825 427 L829 427 L834 435 L834 442 L828 451 L822 454 L813 454 L811 453 L807 448 L807 443 L811 437 L806 440 L804 445 L806 452 L812 457 L820 458 L828 455 L834 449 L836 444 L835 433 L833 429 L829 425 L832 423 L834 408 L839 397 L851 385 L859 381 L871 378 L872 379 L870 383 L869 391 L870 392 L871 400 L873 401 L872 397 L872 383 L874 375 L881 364 L890 357 L899 354 L904 354 L905 355 L905 367 L906 368 L906 375 L907 376 L907 383 L908 384 L911 371 L917 359 L921 353 L934 341 L942 337 L951 336 L952 335 L966 336 L975 339 L985 340 L986 339 L991 339 L1001 335 L1009 327 L1011 323 Z M429 331 L433 325 L436 323 L439 329 L443 333 L455 339 L465 340 L466 339 L472 339 L488 335 L495 335 L496 336 L504 337 L514 342 L527 355 L536 371 L538 377 L538 384 L540 383 L540 374 L541 373 L541 364 L542 363 L541 360 L542 356 L541 355 L542 354 L549 354 L557 357 L568 367 L572 374 L575 385 L574 401 L575 401 L577 395 L577 386 L576 385 L576 381 L574 378 L575 377 L592 383 L597 386 L609 399 L613 409 L615 417 L615 423 L617 425 L614 428 L611 434 L610 443 L612 449 L618 455 L626 458 L633 457 L637 455 L641 449 L640 441 L637 438 L636 439 L639 444 L638 450 L633 454 L624 454 L616 449 L613 444 L612 437 L615 430 L618 427 L623 426 L629 423 L642 424 L649 428 L654 433 L658 440 L660 448 L660 457 L657 466 L649 475 L639 480 L635 481 L618 481 L617 480 L613 480 L603 477 L593 472 L586 466 L585 463 L586 462 L596 468 L613 474 L626 475 L627 473 L613 472 L594 464 L580 454 L563 437 L567 444 L579 456 L578 458 L567 458 L565 457 L556 448 L551 440 L543 423 L541 416 L539 424 L539 435 L542 442 L544 444 L544 452 L543 453 L537 452 L527 448 L512 433 L511 433 L512 436 L511 437 L504 436 L491 431 L480 425 L466 415 L450 399 L440 385 L431 367 L427 354 L426 341 Z M1020 327 L1012 319 L1008 318 L1006 325 L1001 330 L991 335 L981 336 L961 331 L950 331 L949 332 L941 333 L927 341 L920 348 L912 361 L909 359 L908 353 L906 350 L898 350 L886 355 L876 364 L869 375 L852 380 L846 384 L837 393 L831 406 L831 410 L830 411 L831 422 L829 425 L820 420 L808 419 L799 422 L788 431 L784 438 L782 444 L782 451 L781 452 L783 463 L785 467 L796 479 L804 483 L811 485 L828 485 L829 484 L833 484 L843 481 L851 477 L867 462 L876 462 L884 460 L892 452 L896 444 L899 441 L902 454 L905 456 L910 456 L923 451 L934 441 L943 440 L952 437 L966 430 L989 413 L1000 401 L1011 385 L1019 368 L1024 350 L1024 339 Z M427 327 L423 337 L422 348 L426 365 L435 384 L450 405 L466 420 L479 429 L495 437 L508 441 L513 441 L526 452 L537 456 L544 456 L547 451 L547 445 L546 444 L548 440 L554 451 L562 460 L568 462 L572 462 L573 461 L581 462 L584 467 L593 476 L602 481 L605 481 L613 484 L617 484 L618 485 L634 485 L635 484 L639 484 L650 479 L659 470 L664 457 L664 447 L662 439 L656 429 L647 422 L638 419 L631 419 L630 420 L626 420 L621 423 L618 423 L616 421 L616 407 L613 399 L608 391 L596 381 L590 378 L576 374 L570 363 L561 355 L549 350 L541 350 L538 353 L538 358 L536 360 L534 360 L528 350 L518 340 L510 335 L497 331 L486 331 L466 336 L456 335 L447 331 L441 325 L438 318 L431 322 Z M469 282 L469 283 L473 283 L474 282 L487 281 L488 280 L511 280 L512 281 L520 281 L521 282 L530 283 L547 289 L559 295 L575 306 L581 312 L583 312 L573 302 L561 293 L538 282 L526 279 L521 279 L520 278 L489 278 L488 279 L482 279 Z M978 282 L965 279 L946 278 L945 277 L927 278 L926 279 L916 280 L903 284 L887 292 L876 300 L864 312 L866 312 L873 305 L886 296 L902 288 L917 283 L921 283 L927 281 L934 281 L935 280 L960 280 L961 281 L968 281 L975 283 L978 283 Z M438 91 L438 93 L442 98 L451 118 L451 121 L455 131 L461 155 L463 167 L466 174 L469 186 L477 203 L477 205 L492 227 L503 239 L509 243 L502 236 L489 219 L477 197 L469 176 L460 138 L453 116 L447 103 L440 92 Z M1037 88 L1036 88 L1036 91 L1038 97 L1039 113 L1040 114 L1040 158 L1039 159 L1039 172 L1038 173 L1038 182 L1037 183 L1036 196 L1035 197 L1033 212 L1026 240 L1017 265 L1009 281 L1012 279 L1026 249 L1033 226 L1037 209 L1038 199 L1039 198 L1039 192 L1041 184 L1041 175 L1042 174 L1042 159 L1043 158 L1043 126 L1042 125 L1041 104 Z M410 88 L406 103 L405 121 L404 122 L404 163 L405 164 L405 177 L406 178 L408 200 L413 220 L413 224 L420 247 L436 281 L438 281 L430 265 L419 234 L412 204 L411 193 L410 192 L410 185 L409 184 L409 177 L408 176 L408 165 L407 164 L407 140 L406 139 L407 111 L408 110 L408 102 L411 91 L411 88 Z M1033 82 L1029 80 L1024 80 L1015 84 L1008 91 L1001 101 L993 118 L989 130 L979 171 L971 194 L962 212 L955 223 L938 243 L958 223 L965 213 L972 200 L980 179 L993 127 L998 112 L1005 98 L1011 89 L1017 85 L1025 82 L1029 82 L1034 84 Z M412 84 L415 84 L418 82 L422 82 L428 84 L433 88 L436 88 L430 83 L422 80 L415 81 Z M405 72 L411 70 L426 70 L434 72 L447 79 L459 92 L467 109 L469 118 L472 125 L475 140 L477 144 L478 151 L482 162 L482 165 L492 191 L505 212 L522 230 L540 243 L570 259 L591 267 L603 270 L608 270 L609 271 L616 271 L617 272 L631 272 L632 271 L641 271 L642 270 L674 267 L675 266 L683 266 L684 265 L715 264 L716 263 L751 264 L752 265 L771 266 L772 267 L779 267 L780 268 L787 268 L788 269 L795 269 L796 270 L803 270 L804 271 L830 272 L831 271 L838 271 L839 270 L852 268 L879 258 L897 249 L916 237 L936 219 L948 203 L955 190 L963 170 L972 134 L980 108 L990 89 L1004 76 L1010 73 L1021 70 L1036 70 L1043 73 L1048 79 L1051 90 L1051 96 L1052 97 L1053 133 L1054 134 L1053 136 L1052 191 L1051 192 L1051 223 L1050 224 L1051 272 L1052 273 L1052 283 L1053 284 L1053 292 L1055 299 L1055 305 L1056 306 L1057 317 L1060 328 L1060 334 L1062 340 L1062 346 L1063 347 L1064 359 L1066 366 L1066 373 L1067 374 L1068 395 L1069 396 L1070 429 L1069 430 L1069 451 L1068 452 L1068 461 L1067 462 L1066 475 L1065 476 L1062 495 L1057 515 L1055 519 L1055 522 L1053 526 L1052 533 L1050 537 L1050 540 L1048 544 L1044 560 L1041 580 L1040 581 L1040 587 L1039 588 L1039 602 L1038 603 L1039 640 L1040 641 L1040 652 L1041 653 L1041 661 L1042 662 L1042 670 L1043 671 L1043 679 L1044 680 L1044 689 L1045 690 L1045 699 L1046 700 L1046 709 L1047 710 L1047 726 L1048 727 L1048 777 L1047 778 L1047 795 L1046 796 L1044 827 L1043 828 L1043 835 L1040 847 L1040 852 L1035 872 L1030 886 L1020 905 L1002 926 L1001 924 L1006 910 L1007 899 L1008 898 L1008 876 L1007 875 L1006 876 L1007 878 L1007 887 L1006 888 L1005 901 L1002 913 L992 936 L985 946 L967 964 L956 972 L938 981 L922 986 L911 987 L910 988 L882 987 L859 980 L852 976 L841 972 L809 955 L807 953 L779 939 L777 939 L768 934 L753 929 L750 927 L741 925 L725 934 L722 934 L707 925 L703 925 L669 938 L641 952 L639 954 L611 968 L609 970 L587 980 L569 986 L559 987 L558 988 L536 988 L535 987 L530 987 L514 983 L496 975 L481 965 L465 950 L454 935 L447 920 L441 897 L441 886 L440 885 L441 876 L440 875 L439 876 L439 900 L440 901 L442 915 L445 923 L444 925 L432 912 L422 899 L414 883 L409 868 L406 851 L405 850 L403 831 L402 830 L402 823 L401 822 L401 813 L400 812 L399 779 L398 778 L399 710 L400 709 L400 696 L401 695 L402 676 L403 675 L406 639 L407 638 L408 590 L407 589 L407 581 L406 580 L406 574 L405 573 L405 568 L402 558 L402 554 L394 528 L394 525 L391 518 L391 515 L389 511 L388 504 L386 500 L385 491 L383 486 L381 471 L380 470 L380 464 L379 463 L378 442 L377 441 L377 401 L378 400 L379 378 L380 377 L380 369 L381 368 L382 355 L384 348 L384 342 L385 341 L385 336 L386 335 L386 330 L387 329 L387 324 L388 323 L388 318 L389 317 L389 312 L392 299 L393 284 L394 283 L394 273 L395 272 L396 220 L395 219 L395 191 L394 190 L393 138 L392 137 L392 131 L393 130 L393 107 L394 106 L395 90 L398 80 Z M404 68 L396 75 L393 81 L391 89 L391 94 L390 95 L390 104 L389 105 L388 139 L389 140 L389 174 L390 175 L391 229 L392 230 L392 234 L391 235 L391 268 L390 269 L390 280 L389 281 L389 289 L388 290 L386 311 L385 312 L384 323 L383 324 L381 340 L380 341 L380 347 L379 348 L377 368 L376 369 L376 377 L375 378 L374 400 L373 401 L373 442 L374 443 L375 464 L376 465 L376 471 L379 483 L379 488 L382 497 L383 505 L385 509 L385 512 L387 516 L387 519 L389 523 L389 526 L397 552 L397 556 L400 565 L402 582 L403 583 L403 591 L404 592 L403 633 L402 634 L402 645 L401 646 L401 655 L400 656 L400 664 L399 665 L397 691 L396 692 L396 703 L395 704 L394 785 L395 786 L395 802 L396 803 L397 825 L398 826 L398 833 L399 834 L399 840 L400 841 L403 862 L410 885 L417 899 L434 921 L450 937 L457 949 L467 962 L479 974 L491 983 L512 994 L546 1003 L565 1005 L566 1006 L574 1006 L575 1007 L583 1007 L584 1008 L594 1008 L595 1009 L626 1010 L627 1011 L648 1011 L649 1012 L675 1012 L676 1013 L726 1014 L727 1013 L802 1012 L803 1011 L826 1011 L827 1010 L856 1009 L857 1008 L867 1008 L868 1007 L891 1005 L892 1004 L897 1004 L898 1003 L903 1003 L918 999 L922 999 L935 995 L946 990 L961 980 L980 962 L993 944 L995 939 L1011 923 L1025 905 L1033 890 L1040 870 L1044 849 L1045 848 L1047 830 L1048 829 L1048 822 L1049 821 L1049 811 L1050 810 L1050 801 L1051 800 L1051 785 L1052 784 L1052 721 L1051 720 L1050 696 L1049 695 L1046 659 L1045 658 L1045 648 L1044 647 L1044 635 L1043 634 L1043 590 L1044 589 L1044 583 L1045 582 L1045 576 L1046 575 L1048 561 L1055 538 L1056 531 L1058 527 L1059 520 L1061 516 L1069 482 L1071 462 L1072 461 L1073 428 L1074 427 L1073 425 L1073 397 L1072 396 L1071 374 L1070 373 L1070 366 L1069 365 L1069 358 L1067 351 L1066 339 L1064 333 L1064 328 L1062 322 L1060 304 L1058 297 L1057 281 L1056 280 L1056 267 L1055 266 L1055 200 L1056 199 L1056 176 L1057 175 L1058 126 L1057 125 L1056 96 L1055 95 L1054 84 L1051 76 L1045 69 L1037 66 L1019 66 L1011 68 L1001 73 L986 87 L977 104 L976 109 L974 112 L967 140 L965 144 L963 155 L956 177 L947 196 L940 207 L933 216 L922 227 L901 242 L871 257 L843 266 L827 267 L826 268 L807 267 L806 266 L797 266 L796 265 L774 263 L773 262 L754 261 L753 260 L737 260 L736 259 L694 260 L693 261 L673 262 L672 263 L640 266 L639 267 L620 268 L619 267 L610 267 L609 266 L604 266 L596 264 L573 256 L551 245 L526 228 L512 214 L505 205 L494 185 L484 157 L478 131 L469 102 L460 86 L450 76 L444 72 L428 66 L410 66 Z" fill="#eef3f4" fill-rule="evenodd"/>
</svg>
