<svg xmlns="http://www.w3.org/2000/svg" width="1086" height="1448" viewBox="0 0 1086 1448">
  <title>0289</title>
  <path d="M535 1389 L536 1388 L537 1389 L536 1390 Z M502 1383 L503 1382 L504 1383 L503 1384 Z M515 1382 L516 1381 L517 1382 L516 1383 Z M514 1380 L515 1379 L516 1381 L515 1382 Z M580 1378 L581 1377 L582 1378 L581 1379 Z M562 1376 L563 1377 L562 1380 L561 1379 Z M586 1374 L587 1373 L588 1375 L587 1376 Z M587 1372 L588 1371 L589 1373 L588 1374 Z M591 1370 L592 1369 L593 1370 L592 1371 Z M588 1370 L589 1369 L590 1370 L589 1371 Z M492 1370 L493 1369 L494 1371 L493 1372 Z M572 1367 L573 1366 L574 1367 L573 1368 Z M568 1367 L569 1366 L570 1367 L569 1368 Z M528 1367 L526 1369 L528 1383 L531 1390 L537 1399 L539 1400 L539 1398 L536 1394 L536 1391 L537 1390 L539 1393 L538 1387 L534 1387 L530 1381 Z M574 1362 L575 1361 L576 1362 L575 1363 Z M501 1362 L502 1361 L504 1364 L503 1365 Z M491 1361 L493 1367 L492 1370 L490 1367 L490 1362 Z M486 1362 L487 1361 L488 1363 L487 1364 Z M552 1359 L553 1360 L552 1363 L551 1362 Z M575 1359 L576 1358 L577 1359 L576 1360 Z M529 1358 L530 1357 L531 1359 L530 1360 Z M490 1357 L491 1358 L490 1361 L489 1360 Z M589 1356 L590 1357 L589 1360 L588 1359 Z M528 1357 L529 1356 L530 1357 L529 1358 Z M598 1355 L599 1356 L598 1361 L593 1369 L592 1365 Z M553 1354 L554 1355 L553 1359 L552 1358 Z M508 1354 L511 1362 L510 1366 L512 1370 L512 1373 L515 1378 L514 1380 L511 1377 L508 1369 L508 1365 L507 1364 L507 1355 Z M598 1354 L599 1353 L600 1355 L599 1356 Z M484 1353 L487 1359 L486 1362 L483 1356 Z M482 1353 L483 1352 L484 1353 L483 1354 Z M599 1352 L600 1351 L601 1353 L600 1354 Z M496 1352 L497 1351 L498 1353 L497 1354 Z M600 1349 L601 1348 L602 1350 L601 1351 Z M554 1348 L555 1349 L555 1353 L554 1354 L553 1353 L553 1349 Z M581 1348 L582 1347 L583 1348 L582 1349 Z M524 1347 L525 1348 L525 1354 L524 1355 L523 1354 L523 1348 Z M601 1346 L602 1345 L603 1347 L602 1348 Z M557 1342 L558 1341 L559 1343 L558 1344 Z M550 1342 L551 1341 L552 1343 L551 1344 Z M597 1340 L598 1341 L597 1344 L598 1350 L593 1360 L592 1359 L592 1355 L589 1354 L591 1353 L590 1352 L591 1349 Z M499 1341 L500 1340 L501 1341 L500 1342 Z M583 1339 L584 1340 L584 1344 L583 1345 L582 1344 L582 1340 Z M573 1340 L574 1339 L575 1341 L574 1342 Z M511 1335 L512 1339 L511 1340 L511 1347 L510 1348 L509 1347 L509 1340 L508 1339 L510 1338 Z M561 1327 L562 1326 L563 1328 L562 1329 Z M577 1324 L578 1323 L579 1324 L578 1325 Z M563 1323 L564 1324 L563 1327 L562 1326 Z M591 1323 L592 1322 L593 1323 L592 1324 Z M567 1322 L571 1337 L570 1346 L572 1347 L570 1351 L572 1351 L575 1347 L579 1337 L580 1338 L580 1346 L579 1347 L578 1355 L577 1356 L576 1353 L575 1353 L573 1361 L570 1366 L569 1365 L569 1361 L567 1362 L567 1366 L563 1376 L562 1375 L562 1371 L563 1370 L563 1364 L566 1352 L564 1351 L564 1354 L563 1355 L562 1354 L562 1348 L563 1347 L562 1346 L561 1337 L564 1332 Z M494 1321 L500 1337 L497 1342 L497 1350 L496 1351 L493 1344 L493 1337 L492 1336 L492 1329 Z M596 1320 L597 1321 L597 1327 L594 1340 L593 1339 L593 1327 L592 1324 L593 1323 L594 1324 Z M592 1320 L593 1319 L594 1321 L593 1322 Z M493 1318 L494 1321 L492 1322 L491 1320 Z M564 1316 L565 1317 L565 1322 L564 1323 L563 1322 L563 1317 Z M491 1317 L492 1316 L493 1317 L492 1318 Z M531 1313 L532 1312 L533 1314 L532 1315 Z M597 1302 L598 1303 L598 1318 L597 1319 L594 1305 Z M590 1302 L591 1303 L591 1313 L590 1314 L589 1313 L589 1303 Z M494 1303 L495 1302 L496 1303 L495 1304 Z M597 1301 L598 1300 L599 1301 L598 1302 Z M489 1288 L490 1290 L488 1294 L488 1302 L489 1304 L491 1303 L492 1304 L492 1316 L490 1317 L489 1325 L487 1330 L487 1343 L490 1346 L490 1357 L489 1358 L487 1355 L488 1353 L487 1354 L480 1342 L480 1339 L482 1338 L480 1330 L479 1312 L477 1314 L476 1313 L476 1309 L478 1308 L476 1307 L476 1303 L477 1302 L478 1304 L477 1300 L480 1290 L482 1293 L481 1301 L480 1302 L480 1308 L482 1316 L485 1322 L485 1327 L486 1327 L486 1312 L483 1311 L483 1301 L484 1300 L485 1291 Z M574 1281 L576 1282 L576 1292 L575 1294 L576 1295 L577 1307 L578 1308 L578 1314 L575 1324 L575 1327 L577 1325 L578 1326 L578 1332 L575 1339 L573 1337 L572 1333 L573 1308 L571 1308 L571 1313 L568 1322 L567 1321 L567 1311 L565 1305 L566 1299 L570 1289 L570 1283 Z M570 1281 L571 1280 L572 1281 L571 1282 Z M508 1275 L505 1283 L505 1290 L510 1294 L508 1306 L510 1313 L512 1313 L511 1311 L511 1300 L513 1295 L516 1299 L514 1305 L514 1314 L515 1315 L516 1323 L518 1326 L518 1335 L520 1336 L519 1333 L520 1332 L520 1327 L522 1324 L521 1325 L519 1323 L519 1320 L516 1312 L517 1302 L518 1301 L516 1275 L514 1275 L515 1290 L514 1291 L511 1290 L510 1292 L507 1291 L507 1284 L510 1275 Z M601 1274 L601 1279 L603 1281 L602 1274 Z M543 1272 L542 1273 L546 1286 L548 1307 L550 1307 L549 1293 L548 1292 L547 1283 Z M480 1266 L481 1265 L482 1267 L481 1268 Z M377 1264 L378 1263 L379 1264 L378 1265 Z M702 1261 L703 1260 L704 1262 L703 1263 Z M590 1261 L591 1260 L592 1261 L591 1262 Z M376 1261 L377 1260 L378 1262 L377 1263 Z M594 1256 L595 1257 L595 1261 L594 1262 L593 1261 L593 1257 Z M558 1257 L557 1258 L561 1271 L561 1276 L564 1277 L564 1285 L566 1285 L566 1277 Z M702 1251 L703 1250 L704 1252 L703 1253 Z M718 1250 L719 1249 L720 1250 L719 1251 Z M719 1247 L720 1246 L721 1248 L720 1249 Z M359 1244 L360 1245 L359 1248 L358 1247 Z M489 1243 L487 1246 L487 1250 L486 1251 L486 1265 L488 1265 L487 1261 L488 1260 L488 1252 L490 1245 Z M357 1243 L358 1242 L359 1243 L358 1244 Z M526 1242 L527 1263 L528 1266 L531 1269 L529 1270 L526 1278 L524 1270 L525 1259 L524 1258 L523 1250 L521 1250 L521 1254 L522 1255 L521 1257 L521 1265 L522 1266 L523 1276 L527 1281 L527 1286 L528 1287 L528 1294 L527 1295 L525 1292 L525 1286 L523 1287 L523 1295 L525 1301 L525 1313 L523 1318 L524 1320 L526 1319 L527 1311 L528 1310 L529 1311 L528 1342 L526 1345 L525 1344 L525 1334 L523 1334 L521 1341 L521 1353 L522 1354 L520 1356 L520 1359 L521 1360 L521 1367 L523 1375 L525 1377 L524 1373 L524 1359 L526 1358 L528 1363 L530 1365 L531 1364 L532 1365 L531 1367 L531 1375 L532 1377 L534 1377 L533 1370 L534 1369 L535 1372 L537 1372 L534 1361 L535 1359 L537 1361 L537 1356 L535 1352 L537 1333 L536 1332 L534 1340 L534 1345 L533 1346 L533 1351 L532 1352 L530 1347 L530 1323 L532 1317 L533 1318 L533 1329 L534 1330 L535 1317 L536 1316 L535 1312 L535 1288 L533 1285 L533 1301 L532 1302 L532 1310 L531 1311 L529 1307 L529 1297 L530 1296 L529 1274 L531 1271 L531 1268 L529 1264 L529 1249 L528 1248 L528 1244 Z M513 1241 L511 1243 L508 1251 L507 1247 L506 1247 L506 1253 L508 1257 L509 1263 L512 1268 L513 1267 L511 1263 L510 1254 L513 1245 Z M497 1239 L492 1259 L493 1269 L495 1272 L492 1280 L492 1287 L490 1289 L489 1288 L489 1280 L488 1279 L488 1274 L489 1273 L488 1270 L486 1275 L486 1280 L488 1287 L486 1290 L483 1289 L483 1268 L484 1265 L481 1264 L482 1256 L478 1266 L478 1281 L480 1287 L478 1289 L478 1292 L474 1299 L473 1316 L478 1332 L480 1335 L478 1337 L478 1343 L480 1348 L479 1351 L481 1358 L485 1365 L486 1370 L492 1377 L497 1378 L502 1386 L504 1386 L509 1391 L514 1393 L507 1386 L504 1378 L502 1379 L503 1380 L502 1382 L500 1380 L493 1362 L493 1355 L494 1354 L501 1366 L503 1366 L504 1364 L505 1365 L506 1371 L512 1382 L518 1388 L528 1394 L523 1388 L518 1377 L518 1373 L517 1372 L516 1373 L514 1369 L512 1353 L513 1352 L515 1353 L515 1349 L513 1344 L514 1335 L511 1334 L512 1322 L511 1320 L509 1321 L510 1324 L507 1329 L504 1316 L504 1305 L502 1305 L502 1320 L504 1328 L507 1329 L506 1332 L506 1346 L508 1352 L507 1354 L505 1354 L505 1361 L504 1362 L501 1356 L499 1348 L499 1344 L501 1342 L502 1343 L504 1343 L502 1339 L502 1336 L500 1333 L500 1330 L496 1318 L497 1302 L494 1301 L492 1304 L491 1303 L491 1290 L492 1289 L496 1299 L498 1300 L497 1294 L495 1290 L495 1276 L496 1275 L499 1283 L500 1295 L501 1298 L503 1299 L502 1285 L501 1284 L501 1279 L502 1278 L502 1267 L501 1264 L502 1261 L500 1261 L498 1268 L497 1269 L495 1268 L495 1255 L496 1251 L498 1250 L497 1249 L497 1244 L498 1243 Z M544 1236 L542 1237 L543 1245 L541 1252 L541 1263 L543 1259 L543 1255 L545 1254 L546 1251 L546 1243 Z M372 1236 L373 1235 L374 1237 L373 1238 Z M358 1234 L359 1233 L360 1234 L359 1235 Z M594 1236 L592 1236 L594 1255 L593 1256 L591 1255 L590 1258 L589 1257 L586 1245 L585 1245 L585 1248 L581 1254 L581 1269 L584 1274 L583 1270 L583 1253 L585 1251 L587 1255 L588 1266 L586 1273 L587 1275 L586 1276 L586 1283 L582 1285 L582 1295 L580 1302 L578 1297 L578 1282 L576 1276 L577 1255 L576 1255 L574 1262 L574 1273 L572 1280 L571 1279 L571 1272 L570 1271 L570 1258 L573 1249 L574 1236 L573 1235 L571 1239 L571 1246 L568 1256 L567 1255 L565 1242 L564 1242 L564 1249 L567 1259 L567 1272 L569 1274 L569 1281 L566 1291 L565 1288 L564 1288 L564 1295 L563 1296 L562 1295 L562 1291 L560 1292 L561 1293 L561 1303 L562 1304 L562 1320 L561 1321 L561 1328 L562 1330 L560 1334 L559 1333 L558 1324 L556 1323 L556 1330 L557 1331 L558 1339 L556 1340 L556 1345 L555 1346 L553 1342 L553 1339 L549 1334 L549 1327 L552 1322 L554 1315 L555 1302 L559 1290 L559 1282 L558 1281 L558 1276 L552 1266 L551 1247 L550 1246 L550 1235 L551 1234 L549 1233 L548 1235 L548 1248 L549 1249 L550 1266 L551 1270 L555 1275 L557 1285 L556 1286 L555 1283 L554 1283 L554 1293 L552 1298 L551 1318 L547 1327 L545 1322 L545 1305 L543 1303 L544 1328 L548 1338 L549 1347 L551 1350 L548 1368 L550 1368 L553 1371 L553 1384 L545 1400 L548 1398 L553 1390 L555 1384 L554 1363 L557 1356 L558 1344 L559 1343 L560 1344 L560 1377 L559 1380 L561 1379 L562 1383 L556 1395 L558 1395 L565 1387 L567 1382 L568 1370 L569 1369 L570 1370 L572 1368 L573 1369 L573 1375 L570 1380 L570 1382 L572 1381 L575 1374 L575 1370 L577 1364 L579 1361 L579 1358 L584 1350 L586 1344 L587 1334 L585 1334 L585 1338 L584 1339 L582 1335 L582 1329 L584 1325 L585 1319 L582 1320 L582 1324 L581 1325 L578 1323 L578 1320 L580 1315 L581 1305 L586 1293 L588 1279 L590 1277 L591 1278 L591 1285 L587 1300 L587 1312 L590 1324 L589 1325 L589 1335 L591 1336 L590 1337 L590 1344 L586 1360 L588 1359 L589 1362 L585 1371 L584 1369 L582 1369 L581 1374 L578 1379 L581 1380 L577 1386 L571 1392 L575 1391 L583 1383 L582 1381 L586 1375 L587 1378 L589 1378 L595 1372 L603 1355 L605 1346 L604 1345 L603 1346 L602 1344 L604 1340 L605 1334 L603 1334 L602 1338 L598 1341 L597 1338 L601 1329 L601 1325 L603 1320 L603 1314 L604 1313 L603 1305 L601 1304 L601 1295 L603 1290 L604 1291 L604 1296 L603 1297 L604 1300 L606 1298 L606 1294 L607 1293 L604 1284 L603 1283 L601 1284 L600 1282 L598 1282 L599 1298 L598 1299 L595 1298 L595 1304 L594 1305 L593 1304 L593 1300 L591 1297 L591 1292 L594 1289 L594 1274 L592 1272 L594 1264 L595 1265 L595 1272 L597 1273 L597 1257 L594 1252 L595 1251 Z M355 1233 L356 1232 L357 1234 L356 1235 Z M716 1229 L717 1230 L717 1234 L716 1235 L715 1234 L715 1230 Z M359 1230 L360 1229 L361 1230 L360 1231 Z M355 1228 L356 1229 L355 1232 L354 1231 Z M363 1227 L364 1226 L365 1228 L364 1229 Z M368 1225 L372 1233 L371 1235 L371 1242 L374 1246 L375 1252 L377 1256 L377 1260 L376 1261 L373 1256 L370 1245 L364 1232 L365 1229 L367 1230 L367 1226 Z M367 1222 L368 1223 L367 1226 L366 1225 Z M366 1218 L367 1219 L366 1223 L365 1222 Z M364 1216 L365 1215 L366 1216 L365 1217 Z M716 1213 L717 1212 L718 1213 L717 1214 Z M367 1213 L368 1212 L369 1213 L368 1214 Z M350 1211 L351 1213 L353 1212 L354 1213 L356 1221 L360 1223 L359 1224 L360 1226 L359 1230 L356 1225 L355 1225 L355 1228 L354 1229 L353 1228 L349 1214 Z M349 1208 L350 1209 L349 1212 L348 1211 Z M351 1207 L352 1206 L353 1208 L352 1209 Z M347 1206 L348 1205 L349 1206 L348 1207 Z M726 1203 L727 1207 L723 1220 L720 1223 L717 1229 L716 1226 L718 1218 L723 1209 L723 1207 Z M713 1203 L714 1202 L715 1204 L714 1205 Z M714 1201 L715 1200 L716 1201 L715 1202 Z M793 1198 L797 1199 L802 1204 L807 1219 L808 1231 L809 1232 L811 1263 L812 1264 L813 1278 L814 1279 L817 1296 L822 1307 L830 1314 L831 1317 L834 1320 L833 1321 L823 1321 L821 1320 L814 1312 L809 1299 L806 1287 L805 1277 L804 1276 L804 1269 L803 1268 L800 1220 L799 1219 L798 1211 L794 1203 L791 1200 Z M724 1197 L725 1196 L726 1197 L725 1198 Z M353 1186 L357 1196 L358 1202 L361 1206 L361 1211 L364 1222 L363 1226 L362 1223 L359 1222 L357 1217 L356 1208 L353 1197 L353 1192 L352 1191 L352 1187 Z M337 1185 L338 1184 L339 1185 L338 1186 Z M744 1183 L745 1184 L745 1192 L744 1193 L743 1192 L743 1184 Z M739 1184 L740 1183 L741 1184 L740 1185 Z M720 1184 L721 1183 L722 1184 L721 1185 Z M352 1182 L353 1183 L352 1186 L351 1185 Z M741 1178 L742 1179 L741 1183 L740 1182 Z M369 1178 L370 1179 L369 1182 L368 1181 Z M738 1177 L739 1178 L738 1181 L737 1180 Z M718 1176 L719 1177 L719 1184 L718 1185 L717 1194 L715 1197 L714 1196 L714 1189 Z M722 1175 L723 1176 L722 1179 L721 1178 Z M337 1175 L338 1176 L338 1184 L336 1187 L335 1186 L335 1176 Z M721 1174 L722 1173 L723 1174 L722 1175 Z M742 1171 L743 1172 L742 1175 L741 1174 Z M734 1170 L735 1171 L735 1179 L733 1180 L734 1183 L732 1189 L732 1194 L728 1203 L727 1202 L727 1193 L731 1183 L731 1179 L733 1178 L732 1174 Z M738 1169 L739 1168 L740 1169 L739 1170 Z M345 1168 L349 1180 L349 1184 L351 1187 L351 1200 L352 1201 L352 1205 L351 1206 L346 1194 L346 1189 L344 1182 L344 1169 Z M710 1168 L711 1167 L712 1169 L711 1170 Z M741 1165 L742 1166 L741 1169 L740 1168 Z M720 1165 L721 1166 L721 1172 L719 1177 L718 1176 L718 1172 Z M333 1165 L334 1166 L334 1176 L333 1177 L332 1176 L332 1166 Z M356 1164 L357 1165 L358 1183 L359 1184 L359 1192 L358 1193 L354 1178 L354 1168 Z M342 1161 L343 1162 L343 1166 L342 1167 L342 1182 L341 1183 L337 1168 L339 1167 Z M747 1160 L748 1161 L748 1168 L749 1170 L745 1171 L746 1175 L746 1183 L745 1184 L744 1183 L743 1170 L745 1165 L745 1161 Z M721 1155 L722 1156 L722 1162 L721 1163 L720 1162 L720 1156 Z M360 1155 L361 1154 L362 1155 L361 1156 Z M738 1152 L741 1165 L738 1168 L737 1167 L737 1153 Z M719 1151 L720 1150 L721 1152 L720 1153 Z M361 1151 L362 1150 L363 1152 L362 1153 Z M718 1150 L719 1149 L720 1150 L719 1151 Z M346 1149 L347 1148 L348 1149 L347 1150 Z M749 1146 L750 1147 L749 1151 L748 1150 Z M348 1144 L349 1145 L348 1148 L347 1147 Z M341 1144 L342 1143 L343 1144 L342 1145 Z M748 1142 L749 1143 L748 1147 L747 1146 Z M646 1143 L641 1147 L636 1154 L634 1154 L633 1158 L629 1164 L618 1175 L612 1179 L602 1184 L587 1189 L570 1192 L569 1193 L549 1194 L548 1195 L523 1194 L522 1193 L508 1192 L492 1187 L489 1187 L479 1183 L467 1176 L453 1162 L449 1156 L448 1152 L447 1153 L441 1145 L442 1143 L450 1143 L457 1145 L477 1146 L478 1147 L487 1147 L488 1148 L517 1149 L518 1150 L534 1151 L535 1152 L551 1152 L552 1151 L562 1151 L563 1150 L573 1150 L574 1149 L584 1149 L585 1148 L597 1148 L598 1147 L630 1145 L643 1142 Z M405 1144 L420 1148 L428 1153 L435 1161 L439 1169 L446 1179 L457 1190 L467 1197 L475 1201 L499 1208 L510 1209 L511 1210 L560 1211 L561 1210 L571 1210 L572 1209 L589 1207 L600 1203 L603 1203 L616 1197 L625 1191 L636 1180 L646 1166 L648 1161 L656 1153 L663 1149 L677 1145 L680 1143 L670 1145 L656 1151 L649 1158 L649 1160 L645 1163 L636 1177 L625 1188 L613 1196 L588 1205 L572 1207 L571 1208 L559 1208 L558 1209 L528 1209 L527 1208 L505 1207 L488 1203 L474 1198 L459 1189 L446 1176 L438 1163 L428 1151 L413 1144 L409 1144 L408 1143 L405 1143 Z M367 1140 L368 1141 L368 1145 L370 1148 L370 1150 L367 1155 L367 1167 L368 1168 L365 1175 L364 1171 L362 1171 L364 1185 L367 1193 L365 1195 L365 1200 L368 1207 L371 1209 L367 1211 L363 1208 L362 1187 L360 1181 L360 1168 L362 1160 L364 1158 L365 1146 Z M354 1140 L355 1141 L353 1146 L354 1155 L351 1159 L353 1161 L352 1180 L351 1181 L350 1180 L350 1173 L348 1166 L348 1152 L352 1142 Z M340 1139 L341 1140 L341 1144 L340 1145 L341 1144 L342 1145 L342 1150 L339 1159 L339 1163 L337 1166 L335 1162 L335 1155 Z M714 1138 L716 1144 L716 1153 L719 1156 L718 1157 L718 1166 L716 1170 L716 1175 L715 1176 L714 1175 L714 1165 L711 1163 L713 1159 L712 1152 L710 1150 L713 1144 L712 1140 Z M354 1139 L355 1138 L356 1140 L355 1141 Z M341 1136 L342 1137 L341 1140 L340 1139 Z M724 1137 L727 1145 L728 1154 L730 1154 L731 1151 L730 1150 L730 1145 L726 1138 L726 1136 Z M713 1132 L714 1131 L715 1132 L714 1133 Z M712 1131 L713 1130 L714 1131 L713 1132 Z M368 1131 L369 1130 L370 1131 L369 1132 Z M711 1130 L712 1129 L713 1130 L712 1131 Z M707 1130 L708 1129 L709 1131 L708 1132 Z M420 1136 L427 1134 L459 1131 L460 1130 L467 1130 L468 1129 L498 1129 L499 1130 L506 1130 L514 1132 L539 1144 L543 1144 L558 1137 L560 1135 L571 1131 L584 1130 L585 1129 L603 1129 L604 1130 L619 1131 L620 1132 L645 1135 L646 1136 L659 1136 L660 1137 L659 1138 L642 1139 L641 1140 L627 1141 L626 1142 L540 1149 L539 1148 L529 1148 L528 1147 L518 1147 L517 1146 L491 1145 L490 1144 L451 1141 L450 1140 L442 1140 L436 1138 L421 1137 Z M353 1129 L354 1130 L354 1134 L356 1134 L357 1136 L351 1141 L349 1145 L348 1142 Z M353 1129 L354 1128 L355 1129 L354 1130 Z M709 1128 L710 1127 L712 1128 L711 1129 Z M376 1135 L376 1137 L382 1142 L383 1142 L382 1139 L383 1138 L392 1138 L393 1137 L411 1137 L412 1138 L418 1138 L424 1140 L441 1142 L442 1143 L440 1146 L448 1159 L454 1165 L457 1170 L468 1180 L475 1184 L496 1192 L509 1195 L514 1195 L515 1196 L521 1196 L522 1197 L562 1197 L563 1196 L569 1196 L570 1195 L575 1195 L587 1192 L606 1185 L621 1176 L628 1169 L647 1142 L659 1141 L660 1140 L681 1139 L682 1140 L692 1140 L696 1143 L698 1140 L700 1140 L704 1137 L704 1136 L702 1136 L697 1138 L696 1137 L687 1137 L680 1135 L663 1135 L662 1134 L632 1132 L615 1128 L596 1127 L595 1126 L577 1127 L561 1132 L542 1142 L537 1141 L533 1138 L516 1130 L504 1127 L497 1127 L496 1126 L469 1126 L468 1127 L440 1130 L439 1131 L431 1131 L430 1132 L429 1131 L428 1132 L402 1132 L401 1133 L385 1134 L380 1136 Z M712 1125 L713 1124 L714 1125 L713 1126 Z M710 1124 L711 1123 L713 1124 L712 1125 Z M392 1124 L393 1123 L394 1124 L393 1125 Z M709 1123 L710 1122 L711 1123 L710 1124 Z M394 1123 L395 1122 L396 1123 L395 1124 Z M720 1122 L721 1121 L722 1122 L721 1123 Z M707 1122 L708 1121 L709 1122 L708 1123 Z M705 1121 L706 1120 L708 1121 L707 1122 Z M609 1121 L610 1120 L611 1121 L610 1122 Z M398 1121 L399 1120 L400 1121 L399 1122 Z M331 1121 L332 1120 L333 1121 L332 1122 Z M668 1120 L669 1119 L673 1120 L672 1121 Z M608 1120 L609 1119 L610 1120 L609 1121 Z M717 1119 L718 1118 L719 1119 L718 1120 Z M634 1119 L635 1118 L636 1119 L635 1120 Z M417 1119 L418 1118 L419 1119 L418 1120 Z M394 1119 L395 1118 L397 1119 L396 1120 Z M716 1118 L717 1117 L718 1118 L717 1119 Z M418 1118 L419 1117 L420 1118 L419 1119 Z M411 1118 L412 1117 L414 1118 L413 1119 Z M400 1120 L405 1117 L407 1118 L408 1117 L412 1119 L411 1120 L403 1120 L402 1121 Z M397 1118 L398 1117 L399 1118 L398 1119 Z M357 1118 L358 1117 L359 1118 L358 1119 Z M723 1117 L724 1116 L725 1117 L724 1118 Z M715 1117 L716 1116 L717 1117 L716 1118 Z M671 1117 L672 1116 L674 1117 L673 1118 Z M465 1117 L466 1116 L468 1117 L467 1118 Z M419 1117 L420 1116 L421 1117 L420 1118 Z M414 1117 L415 1116 L416 1117 L415 1118 Z M406 1117 L407 1116 L408 1117 L407 1118 Z M391 1117 L392 1116 L393 1117 L392 1118 Z M369 1116 L370 1117 L357 1130 L354 1128 L364 1117 Z M746 1116 L747 1115 L748 1116 L747 1117 Z M727 1116 L728 1115 L729 1116 L728 1117 Z M714 1116 L715 1115 L716 1116 L715 1117 Z M640 1116 L641 1115 L642 1116 L641 1117 Z M615 1116 L616 1115 L617 1116 L616 1117 Z M467 1116 L468 1115 L471 1116 L470 1117 Z M420 1116 L421 1115 L423 1116 L422 1117 Z M393 1116 L394 1115 L396 1116 L395 1117 Z M369 1116 L370 1115 L372 1116 L371 1117 Z M358 1116 L359 1115 L360 1117 L359 1118 Z M343 1115 L344 1116 L339 1125 L338 1129 L338 1135 L339 1136 L334 1149 L333 1157 L332 1158 L331 1157 L331 1150 L335 1141 L333 1142 L332 1140 L337 1126 L335 1126 L330 1138 L329 1137 L330 1130 L334 1122 L341 1115 Z M713 1115 L714 1114 L715 1115 L714 1116 Z M470 1115 L471 1114 L473 1115 L472 1116 Z M454 1115 L441 1120 L441 1121 L444 1122 L452 1118 Z M422 1115 L423 1114 L425 1115 L424 1116 Z M396 1115 L397 1114 L399 1115 L398 1116 Z M371 1115 L372 1114 L374 1115 L373 1116 Z M745 1114 L746 1113 L747 1115 L746 1116 Z M560 1114 L561 1113 L562 1114 L561 1115 Z M504 1114 L505 1113 L506 1114 L505 1115 Z M424 1114 L425 1113 L426 1114 L425 1115 Z M401 1114 L402 1113 L404 1114 L403 1115 Z M343 1114 L344 1113 L345 1115 L344 1116 Z M726 1113 L727 1112 L728 1113 L727 1114 Z M711 1113 L712 1112 L713 1113 L712 1114 Z M519 1113 L520 1112 L521 1113 L520 1114 Z M505 1113 L506 1112 L507 1113 L506 1114 Z M366 1113 L367 1112 L368 1113 L367 1114 Z M344 1113 L345 1112 L346 1113 L345 1114 Z M725 1112 L726 1111 L727 1112 L726 1113 Z M710 1112 L711 1111 L712 1112 L711 1113 Z M626 1112 L627 1111 L628 1112 L627 1113 Z M506 1112 L507 1111 L508 1112 L507 1113 Z M362 1112 L363 1111 L364 1112 L363 1113 Z M361 1111 L363 1113 L360 1116 L359 1115 L357 1117 L356 1115 Z M730 1110 L736 1119 L735 1120 L737 1126 L737 1134 L736 1135 L731 1124 L732 1120 L729 1114 Z M628 1111 L629 1110 L636 1115 L636 1117 L635 1118 L628 1113 Z M624 1111 L625 1110 L626 1111 L625 1112 Z M507 1111 L508 1110 L509 1111 L508 1112 Z M354 1110 L355 1112 L349 1120 L349 1123 L351 1124 L347 1129 L344 1136 L343 1135 L343 1130 L346 1119 Z M345 1111 L346 1110 L347 1111 L346 1112 Z M714 1110 L715 1109 L719 1110 L724 1115 L720 1116 Z M627 1110 L628 1109 L629 1110 L628 1111 Z M608 1110 L609 1109 L610 1110 L609 1111 Z M589 1110 L590 1109 L591 1110 L590 1111 Z M576 1110 L577 1109 L578 1110 L577 1111 Z M512 1110 L513 1109 L514 1110 L513 1111 Z M354 1110 L355 1109 L356 1110 L355 1111 Z M346 1110 L347 1109 L348 1110 L347 1111 Z M728 1109 L729 1108 L730 1109 L729 1110 Z M626 1109 L627 1108 L628 1109 L627 1110 Z M618 1109 L619 1108 L620 1109 L619 1110 Z M598 1109 L600 1112 L603 1112 L601 1109 Z M588 1109 L589 1108 L590 1109 L589 1110 Z M580 1109 L581 1108 L582 1109 L581 1110 Z M575 1109 L576 1108 L577 1109 L576 1110 Z M513 1109 L514 1108 L515 1109 L514 1110 Z M360 1109 L361 1108 L362 1109 L361 1110 Z M355 1109 L356 1108 L357 1109 L356 1110 Z M719 1108 L720 1107 L721 1108 L720 1109 Z M587 1108 L588 1107 L589 1108 L588 1109 Z M581 1108 L582 1107 L583 1108 L582 1109 Z M579 1108 L580 1107 L581 1108 L580 1109 Z M557 1108 L558 1107 L559 1108 L558 1109 Z M386 1109 L375 1115 L373 1114 L383 1107 Z M630 1107 L631 1106 L632 1107 L631 1108 Z M614 1107 L616 1106 L619 1108 L616 1109 Z M586 1107 L587 1106 L588 1107 L587 1108 Z M580 1107 L581 1106 L582 1107 L581 1108 Z M570 1107 L571 1106 L572 1108 L571 1109 Z M514 1107 L515 1106 L516 1108 L515 1109 Z M511 1106 L512 1108 L509 1111 L508 1109 Z M451 1107 L452 1106 L453 1107 L452 1108 Z M431 1107 L432 1106 L434 1107 L433 1108 Z M383 1107 L384 1106 L385 1107 L384 1108 Z M651 1106 L652 1105 L653 1106 L652 1107 Z M631 1108 L632 1107 L636 1107 L638 1105 L645 1109 L647 1109 L669 1119 L668 1120 L664 1120 L655 1116 L648 1116 L644 1114 L641 1114 L636 1110 Z M628 1106 L629 1105 L631 1106 L630 1107 Z M609 1106 L610 1105 L612 1106 L611 1107 Z M585 1106 L586 1105 L587 1106 L586 1107 Z M433 1106 L434 1105 L435 1106 L434 1107 Z M432 1108 L408 1116 L406 1113 L416 1110 L420 1107 L424 1107 L428 1105 Z M415 1106 L416 1105 L417 1106 L416 1107 Z M415 1106 L416 1107 L415 1108 L408 1109 L399 1113 L397 1112 L397 1110 L395 1110 L387 1116 L374 1122 L366 1130 L360 1144 L359 1154 L361 1156 L359 1157 L357 1165 L356 1164 L355 1156 L356 1155 L356 1148 L359 1136 L356 1134 L369 1121 L381 1114 L388 1112 L387 1110 L391 1107 L394 1106 L398 1107 L402 1105 L405 1107 L407 1106 Z M379 1106 L370 1113 L367 1112 L376 1105 Z M626 1105 L627 1104 L629 1105 L628 1106 Z M608 1105 L609 1104 L610 1105 L609 1106 Z M584 1105 L585 1104 L586 1105 L585 1106 Z M577 1106 L579 1104 L581 1106 L579 1108 Z M569 1105 L570 1104 L571 1106 L570 1107 Z M560 1105 L561 1104 L562 1106 L561 1107 Z M511 1105 L512 1104 L513 1106 L512 1107 Z M416 1105 L417 1104 L418 1105 L417 1106 Z M378 1105 L379 1104 L380 1105 L379 1106 Z M356 1105 L357 1104 L358 1105 L357 1106 Z M344 1105 L345 1104 L346 1106 L345 1107 Z M725 1104 L726 1103 L727 1104 L726 1105 Z M624 1104 L625 1103 L627 1104 L626 1105 Z M589 1104 L590 1103 L591 1104 L590 1105 Z M583 1104 L584 1103 L585 1104 L584 1105 Z M568 1104 L569 1103 L570 1104 L569 1105 Z M512 1104 L513 1103 L514 1104 L513 1105 Z M481 1104 L482 1103 L483 1104 L482 1105 Z M448 1104 L449 1103 L451 1104 L450 1105 Z M357 1104 L358 1103 L359 1104 L358 1105 Z M341 1103 L342 1107 L344 1106 L345 1108 L343 1110 L342 1114 L333 1121 L332 1120 L333 1116 Z M724 1103 L725 1102 L726 1103 L725 1104 Z M623 1103 L624 1102 L625 1103 L624 1104 Z M613 1103 L614 1102 L615 1103 L614 1104 Z M582 1103 L583 1102 L584 1103 L583 1104 Z M571 1103 L572 1102 L573 1103 L572 1104 Z M492 1103 L493 1102 L494 1103 L493 1104 Z M471 1103 L472 1102 L473 1103 L472 1104 Z M341 1103 L342 1102 L343 1103 L342 1104 Z M738 1102 L739 1101 L740 1103 L739 1104 Z M723 1102 L724 1101 L725 1102 L724 1103 Z M651 1102 L652 1101 L653 1102 L652 1103 Z M628 1102 L631 1101 L636 1104 L633 1105 Z M621 1102 L622 1101 L624 1102 L623 1103 Z M581 1102 L582 1101 L583 1102 L582 1103 Z M560 1101 L561 1102 L560 1105 L559 1104 Z M737 1101 L738 1100 L739 1101 L738 1102 Z M733 1101 L734 1100 L735 1101 L734 1102 Z M648 1101 L649 1100 L651 1101 L650 1102 Z M620 1101 L621 1100 L622 1101 L621 1102 Z M580 1101 L581 1100 L582 1101 L581 1102 Z M570 1101 L571 1100 L572 1101 L571 1102 Z M493 1101 L494 1100 L495 1101 L494 1102 Z M447 1101 L448 1100 L450 1101 L449 1102 Z M436 1101 L437 1100 L438 1101 L437 1102 Z M732 1100 L733 1099 L734 1100 L733 1101 Z M716 1100 L717 1099 L718 1100 L717 1101 Z M600 1100 L601 1099 L602 1100 L601 1101 Z M579 1100 L580 1099 L581 1100 L580 1101 Z M501 1100 L502 1099 L503 1100 L502 1101 Z M449 1100 L450 1099 L451 1100 L450 1101 Z M438 1100 L439 1099 L440 1100 L439 1101 Z M430 1100 L431 1099 L432 1100 L431 1101 Z M720 1099 L721 1098 L724 1101 L722 1102 Z M686 1099 L687 1098 L689 1099 L688 1100 Z M638 1099 L639 1098 L640 1099 L639 1100 Z M631 1099 L632 1098 L633 1099 L632 1100 Z M617 1099 L618 1098 L620 1100 L618 1101 Z M599 1099 L600 1098 L601 1099 L600 1100 Z M578 1099 L579 1098 L580 1099 L579 1100 Z M569 1099 L570 1098 L571 1100 L570 1101 Z M558 1099 L559 1098 L560 1100 L559 1101 Z M510 1099 L511 1098 L512 1100 L511 1101 Z M450 1099 L451 1098 L452 1099 L451 1100 Z M439 1099 L440 1098 L441 1099 L440 1100 Z M432 1099 L433 1098 L435 1099 L434 1100 Z M725 1097 L731 1102 L730 1103 L732 1102 L737 1108 L736 1109 L737 1108 L740 1110 L739 1106 L740 1103 L743 1106 L746 1112 L743 1115 L748 1122 L752 1132 L751 1136 L749 1130 L747 1129 L747 1133 L749 1137 L747 1143 L745 1138 L743 1139 L747 1155 L747 1158 L744 1161 L742 1158 L742 1153 L739 1144 L739 1133 L740 1132 L744 1136 L745 1135 L745 1130 L742 1121 L738 1114 L728 1104 L724 1098 Z M598 1098 L599 1097 L600 1098 L599 1099 Z M595 1098 L596 1097 L597 1098 L596 1099 Z M577 1098 L578 1097 L579 1098 L578 1099 Z M519 1097 L520 1101 L519 1104 L516 1107 L515 1105 Z M502 1098 L503 1097 L504 1098 L503 1099 Z M493 1097 L494 1098 L485 1107 L488 1107 L492 1103 L493 1105 L486 1112 L476 1116 L475 1115 L481 1110 L482 1107 Z M482 1098 L483 1097 L484 1098 L483 1099 Z M469 1098 L470 1097 L471 1098 L470 1099 Z M451 1098 L452 1097 L454 1098 L453 1099 Z M441 1098 L442 1097 L443 1098 L442 1099 Z M434 1098 L435 1097 L436 1098 L435 1099 Z M704 1097 L706 1096 L711 1099 L720 1107 L717 1108 L713 1106 Z M677 1100 L680 1099 L679 1098 L680 1096 L685 1097 L686 1098 L683 1099 L684 1100 L699 1103 L707 1107 L711 1111 L709 1112 L701 1108 Z M635 1097 L636 1096 L637 1097 L636 1098 Z M611 1097 L612 1096 L613 1097 L612 1098 Z M568 1097 L569 1096 L570 1097 L569 1098 Z M498 1097 L499 1096 L500 1097 L499 1098 Z M493 1097 L494 1096 L495 1097 L494 1098 Z M483 1097 L484 1096 L485 1097 L484 1098 Z M470 1097 L471 1096 L472 1097 L471 1098 Z M453 1097 L454 1096 L455 1097 L454 1098 Z M447 1097 L448 1096 L449 1097 L448 1098 Z M442 1097 L443 1096 L444 1097 L443 1098 Z M617 1096 L618 1095 L622 1096 L629 1101 L627 1102 Z M610 1096 L611 1095 L612 1096 L611 1097 Z M581 1096 L582 1095 L583 1097 L582 1098 Z M511 1096 L512 1095 L513 1096 L512 1097 Z M499 1096 L500 1095 L501 1096 L500 1097 Z M494 1096 L495 1095 L496 1096 L495 1097 Z M484 1096 L485 1095 L486 1096 L485 1097 Z M471 1096 L472 1095 L473 1096 L472 1097 Z M467 1096 L462 1101 L459 1100 L452 1104 L450 1103 L460 1096 L464 1096 L465 1095 Z M454 1096 L455 1095 L456 1096 L455 1097 Z M449 1096 L450 1095 L451 1096 L450 1097 Z M378 1096 L379 1095 L380 1096 L379 1097 Z M638 1095 L640 1094 L649 1100 L646 1101 Z M616 1095 L617 1094 L618 1095 L617 1096 Z M608 1095 L609 1094 L611 1095 L610 1096 Z M600 1095 L603 1094 L605 1096 L609 1097 L614 1102 L613 1103 L609 1102 Z M580 1095 L581 1094 L582 1095 L581 1096 Z M500 1095 L501 1094 L502 1095 L501 1096 Z M495 1095 L496 1094 L497 1095 L496 1096 Z M455 1095 L456 1094 L457 1095 L456 1096 Z M445 1095 L446 1094 L447 1095 L446 1096 Z M380 1095 L381 1094 L382 1095 L381 1096 Z M615 1094 L616 1093 L617 1094 L616 1095 Z M607 1094 L608 1093 L609 1094 L608 1095 Z M598 1094 L599 1093 L601 1094 L600 1095 Z M592 1094 L593 1093 L596 1097 L595 1098 Z M512 1094 L513 1093 L514 1094 L513 1095 Z M456 1094 L457 1093 L459 1094 L458 1095 Z M597 1093 L598 1092 L599 1093 L598 1094 Z M508 1093 L509 1092 L510 1093 L509 1094 Z M496 1093 L497 1092 L498 1093 L497 1094 Z M491 1093 L492 1092 L493 1093 L492 1094 Z M463 1093 L464 1092 L465 1093 L464 1094 Z M458 1093 L459 1092 L460 1093 L459 1094 Z M661 1092 L662 1091 L666 1091 L667 1092 L672 1091 L679 1096 L678 1099 L675 1100 L668 1097 Z M634 1092 L637 1091 L639 1094 L637 1095 Z M620 1092 L621 1091 L622 1092 L621 1093 Z M595 1092 L596 1091 L598 1092 L597 1093 Z M571 1091 L573 1093 L574 1097 L579 1103 L577 1106 L571 1096 L570 1093 Z M492 1092 L493 1091 L494 1092 L493 1093 Z M459 1092 L460 1091 L461 1092 L460 1093 Z M681 1091 L682 1090 L683 1091 L682 1092 Z M659 1091 L660 1090 L661 1091 L660 1092 Z M632 1091 L633 1090 L635 1091 L634 1092 Z M619 1091 L620 1090 L621 1091 L620 1092 Z M609 1091 L611 1090 L615 1093 L612 1094 Z M594 1091 L595 1090 L596 1091 L595 1092 Z M497 1091 L498 1090 L499 1092 L498 1093 Z M471 1091 L472 1090 L473 1091 L472 1092 Z M460 1091 L461 1090 L462 1091 L461 1092 Z M422 1091 L423 1090 L425 1091 L424 1092 Z M423 1092 L410 1099 L408 1099 L404 1102 L401 1102 L398 1104 L396 1103 L394 1105 L390 1105 L387 1107 L384 1106 L392 1101 L403 1097 L406 1095 L404 1094 L405 1093 L408 1093 L413 1090 L415 1093 L419 1091 Z M656 1090 L657 1089 L658 1090 L657 1091 Z M623 1090 L624 1089 L630 1094 L629 1095 L630 1094 L632 1096 L632 1098 L630 1099 L625 1094 Z M608 1090 L609 1089 L610 1090 L609 1091 Z M593 1090 L594 1089 L595 1090 L594 1091 Z M581 1090 L582 1089 L585 1091 L595 1102 L594 1103 L590 1102 L589 1104 L586 1099 L586 1097 L582 1093 Z M493 1090 L494 1089 L495 1090 L494 1091 Z M472 1090 L473 1089 L474 1090 L473 1091 Z M461 1090 L462 1089 L463 1090 L462 1091 Z M457 1089 L458 1090 L451 1096 L450 1095 Z M425 1090 L426 1089 L428 1090 L427 1091 Z M368 1090 L369 1089 L370 1090 L369 1091 Z M355 1090 L356 1089 L357 1090 L356 1091 Z M722 1089 L723 1088 L731 1095 L733 1099 L731 1100 L729 1098 L724 1097 L722 1095 L724 1094 Z M654 1089 L655 1088 L656 1089 L655 1090 Z M622 1089 L623 1088 L624 1089 L623 1090 Z M607 1089 L608 1088 L609 1089 L608 1090 Z M592 1089 L593 1088 L594 1089 L593 1090 Z M569 1089 L570 1088 L571 1090 L570 1091 Z M498 1089 L499 1088 L500 1090 L499 1091 Z M490 1088 L491 1089 L490 1093 L488 1095 L487 1093 L484 1093 L481 1095 L480 1097 L483 1099 L476 1105 L474 1104 L475 1103 L472 1102 L479 1092 L482 1090 L483 1091 L485 1091 L487 1089 L489 1090 L488 1089 Z M473 1089 L474 1088 L475 1089 L474 1090 Z M462 1089 L463 1088 L464 1089 L463 1090 Z M457 1089 L458 1088 L459 1089 L458 1090 Z M427 1089 L428 1088 L430 1089 L429 1090 Z M369 1089 L370 1088 L371 1089 L370 1090 Z M356 1089 L357 1088 L358 1089 L357 1090 Z M721 1088 L722 1087 L723 1088 L722 1089 Z M665 1088 L666 1087 L667 1088 L666 1089 Z M591 1088 L592 1087 L593 1088 L592 1089 Z M580 1088 L581 1087 L582 1089 L581 1090 Z M575 1088 L576 1087 L577 1088 L576 1089 Z M494 1088 L495 1087 L496 1089 L495 1090 Z M490 1088 L491 1087 L492 1088 L491 1089 Z M483 1088 L484 1087 L485 1088 L484 1089 Z M458 1088 L459 1087 L460 1088 L459 1089 Z M429 1088 L430 1087 L432 1088 L431 1089 Z M370 1088 L371 1087 L373 1088 L372 1089 Z M663 1087 L664 1086 L665 1087 L664 1088 Z M650 1087 L651 1086 L652 1087 L651 1088 Z M579 1087 L580 1086 L581 1087 L580 1088 Z M568 1087 L569 1086 L570 1088 L569 1089 Z M507 1087 L508 1086 L509 1088 L508 1089 Z M504 1086 L505 1090 L507 1088 L508 1090 L505 1093 L502 1094 L501 1092 Z M484 1087 L485 1086 L486 1087 L485 1088 Z M459 1087 L460 1086 L461 1087 L460 1088 Z M431 1087 L432 1086 L433 1087 L432 1088 Z M372 1087 L373 1086 L375 1087 L374 1088 Z M705 1086 L706 1085 L707 1086 L706 1087 Z M661 1086 L662 1085 L664 1086 L663 1087 Z M603 1086 L604 1085 L605 1086 L604 1087 Z M501 1085 L502 1087 L500 1089 L499 1087 Z M495 1086 L496 1085 L497 1087 L496 1088 Z M480 1086 L481 1085 L482 1086 L481 1087 Z M460 1086 L461 1085 L462 1086 L461 1087 Z M455 1086 L456 1085 L457 1086 L456 1087 Z M703 1085 L704 1084 L705 1085 L704 1086 Z M667 1085 L670 1084 L681 1090 L680 1091 L673 1090 Z M578 1085 L579 1084 L580 1085 L579 1086 Z M535 1085 L533 1086 L533 1091 L532 1092 L532 1094 L534 1095 L533 1106 L529 1114 L521 1124 L523 1124 L528 1119 L533 1111 L537 1096 L537 1090 L535 1089 Z M508 1085 L509 1084 L510 1085 L509 1086 Z M481 1085 L482 1084 L483 1085 L482 1086 Z M461 1085 L462 1084 L463 1085 L462 1086 Z M451 1085 L452 1084 L453 1085 L452 1086 Z M432 1086 L434 1084 L436 1085 L434 1087 Z M426 1085 L427 1084 L428 1085 L427 1086 Z M407 1085 L398 1093 L392 1094 L384 1098 L382 1097 L383 1096 L382 1094 L384 1092 L387 1092 L405 1084 Z M374 1086 L377 1084 L379 1085 L377 1087 Z M665 1084 L666 1083 L668 1084 L667 1085 Z M658 1084 L660 1083 L662 1085 L660 1086 Z M652 1084 L653 1083 L654 1084 L653 1085 Z M645 1084 L646 1083 L647 1084 L646 1085 Z M606 1084 L608 1083 L613 1086 L617 1086 L620 1090 L616 1091 Z M567 1084 L568 1083 L569 1084 L568 1085 Z M512 1084 L513 1083 L514 1084 L513 1085 Z M504 1084 L505 1083 L506 1085 L505 1086 Z M462 1084 L463 1083 L464 1084 L463 1085 Z M452 1084 L453 1083 L454 1084 L453 1085 Z M448 1084 L449 1083 L450 1084 L449 1085 Z M435 1084 L436 1083 L437 1084 L436 1085 Z M427 1084 L428 1083 L429 1084 L428 1085 Z M421 1084 L422 1083 L423 1084 L422 1085 Z M416 1084 L411 1089 L407 1091 L404 1090 L405 1088 L414 1083 Z M406 1084 L407 1083 L408 1084 L407 1085 Z M651 1083 L652 1082 L653 1083 L652 1084 Z M644 1083 L645 1082 L646 1083 L645 1084 Z M605 1083 L606 1082 L607 1083 L606 1084 Z M584 1082 L593 1093 L592 1094 L584 1088 L583 1086 L584 1085 L583 1086 L582 1085 Z M577 1083 L578 1082 L579 1083 L578 1084 Z M552 1082 L553 1083 L553 1087 L552 1088 L551 1087 L551 1083 Z M480 1083 L475 1089 L473 1086 L466 1093 L464 1092 L466 1089 L464 1089 L463 1088 L464 1087 L478 1082 Z M401 1083 L402 1082 L403 1083 L402 1084 Z M703 1082 L704 1081 L705 1082 L704 1083 Z M604 1082 L605 1081 L606 1082 L605 1083 Z M566 1082 L567 1081 L568 1082 L567 1083 Z M403 1082 L404 1081 L407 1082 L406 1083 Z M706 1081 L708 1080 L715 1085 L723 1094 L721 1095 L717 1092 Z M626 1081 L627 1080 L628 1081 L627 1082 Z M583 1080 L584 1082 L582 1084 L581 1082 Z M449 1081 L450 1080 L451 1082 L450 1083 Z M452 1086 L445 1093 L437 1098 L435 1096 L433 1096 L420 1104 L418 1102 L410 1104 L407 1103 L421 1095 L435 1089 L446 1080 L447 1081 L446 1084 L440 1090 L444 1089 L448 1084 Z M374 1080 L375 1081 L359 1097 L358 1099 L359 1100 L348 1110 L347 1109 L348 1106 L357 1097 L354 1097 L346 1105 L345 1103 L348 1097 L355 1090 L356 1092 L358 1092 L368 1082 Z M625 1080 L626 1079 L627 1080 L626 1081 Z M450 1080 L451 1079 L452 1080 L451 1081 Z M446 1080 L447 1079 L448 1080 L447 1081 Z M425 1080 L426 1079 L427 1080 L426 1081 Z M374 1080 L375 1079 L377 1080 L376 1081 Z M447 1079 L448 1078 L449 1079 L448 1080 Z M627 1077 L632 1084 L631 1086 L627 1082 L628 1081 L626 1079 Z M478 1078 L479 1077 L480 1078 L479 1079 Z M451 1079 L452 1077 L454 1078 L452 1080 Z M426 1079 L427 1077 L429 1078 L427 1080 Z M590 1077 L591 1076 L592 1077 L591 1078 Z M554 1077 L552 1080 L550 1080 L549 1088 L546 1091 L546 1099 L547 1100 L547 1105 L549 1109 L550 1117 L558 1125 L560 1125 L553 1117 L554 1114 L549 1106 L549 1102 L548 1101 L548 1094 L549 1093 L550 1095 L551 1094 L554 1099 L556 1108 L558 1111 L559 1110 L561 1112 L560 1114 L558 1113 L558 1115 L566 1122 L566 1120 L563 1117 L564 1115 L562 1111 L562 1108 L564 1106 L563 1101 L561 1098 L562 1094 L564 1096 L564 1093 L562 1089 L562 1082 L560 1082 L558 1093 L555 1096 L554 1095 L555 1077 Z M453 1076 L454 1075 L455 1076 L454 1077 Z M449 1076 L450 1075 L451 1076 L450 1077 Z M668 1075 L669 1074 L670 1075 L669 1076 Z M454 1075 L455 1074 L456 1075 L455 1076 Z M450 1075 L451 1074 L452 1075 L451 1076 Z M640 1075 L643 1073 L646 1076 L653 1079 L651 1080 L652 1082 L650 1083 L642 1078 Z M626 1074 L627 1073 L628 1074 L627 1075 Z M512 1073 L513 1076 L511 1080 L510 1076 Z M455 1074 L456 1073 L457 1074 L456 1075 Z M451 1074 L452 1073 L453 1074 L452 1075 Z M389 1074 L390 1073 L393 1074 L392 1075 Z M670 1073 L671 1072 L673 1073 L672 1074 Z M456 1073 L457 1072 L458 1073 L457 1074 Z M394 1073 L395 1072 L397 1073 L396 1074 Z M512 1072 L513 1071 L514 1073 L513 1074 Z M450 1071 L439 1083 L437 1084 L436 1080 L430 1084 L428 1083 L432 1078 L434 1078 L448 1070 Z M611 1070 L612 1069 L613 1070 L612 1071 Z M513 1070 L514 1069 L515 1070 L514 1071 Z M449 1070 L450 1069 L451 1070 L450 1071 Z M522 1069 L519 1072 L521 1072 Z M450 1069 L451 1068 L452 1069 L451 1070 Z M451 1068 L452 1067 L454 1068 L453 1069 Z M564 1067 L563 1071 L565 1074 L565 1085 L569 1094 L568 1096 L567 1095 L566 1096 L567 1098 L565 1099 L565 1103 L567 1107 L567 1110 L573 1117 L574 1120 L578 1120 L578 1119 L572 1113 L571 1111 L572 1108 L585 1121 L587 1120 L587 1118 L580 1113 L583 1108 L589 1113 L593 1113 L598 1118 L608 1123 L610 1123 L611 1121 L610 1119 L608 1120 L603 1118 L591 1108 L590 1105 L591 1104 L597 1105 L598 1101 L602 1105 L606 1106 L609 1109 L607 1110 L607 1112 L621 1122 L623 1121 L625 1122 L625 1121 L616 1113 L615 1116 L609 1111 L613 1110 L611 1107 L612 1106 L617 1111 L625 1114 L631 1118 L633 1122 L635 1122 L639 1118 L643 1121 L643 1119 L641 1117 L643 1116 L679 1128 L680 1125 L673 1118 L676 1117 L696 1127 L695 1124 L683 1117 L677 1116 L673 1114 L667 1115 L664 1113 L656 1111 L652 1108 L653 1106 L657 1106 L667 1110 L678 1112 L684 1115 L689 1116 L694 1120 L699 1121 L702 1123 L701 1125 L705 1130 L706 1136 L707 1136 L709 1131 L714 1137 L713 1139 L712 1138 L710 1140 L710 1146 L707 1147 L708 1176 L709 1176 L710 1172 L711 1173 L710 1186 L712 1193 L711 1199 L707 1209 L707 1211 L709 1212 L709 1216 L707 1221 L708 1222 L711 1216 L712 1206 L713 1205 L715 1207 L717 1205 L720 1191 L723 1187 L725 1188 L725 1185 L725 1187 L724 1188 L723 1187 L724 1177 L725 1176 L725 1153 L724 1152 L724 1147 L721 1144 L718 1133 L713 1126 L717 1125 L710 1119 L699 1112 L692 1110 L693 1113 L704 1118 L706 1120 L705 1121 L693 1117 L690 1114 L683 1111 L671 1109 L664 1106 L665 1105 L670 1105 L674 1107 L679 1107 L681 1104 L685 1105 L687 1107 L699 1109 L709 1114 L721 1123 L722 1122 L727 1127 L727 1129 L725 1130 L719 1124 L722 1129 L723 1134 L725 1134 L728 1130 L733 1141 L733 1153 L734 1154 L729 1159 L729 1176 L728 1177 L727 1190 L723 1192 L722 1205 L718 1212 L717 1209 L715 1209 L715 1215 L713 1222 L714 1225 L713 1234 L716 1235 L715 1240 L714 1241 L713 1239 L711 1241 L706 1258 L704 1261 L703 1258 L706 1250 L703 1249 L710 1235 L711 1224 L709 1224 L707 1232 L704 1238 L703 1245 L700 1251 L703 1254 L700 1260 L698 1269 L694 1277 L695 1278 L700 1270 L700 1268 L707 1260 L722 1232 L728 1214 L730 1203 L734 1196 L735 1187 L737 1182 L740 1186 L738 1190 L738 1193 L736 1197 L735 1204 L730 1220 L725 1229 L726 1231 L723 1240 L720 1241 L716 1251 L712 1256 L705 1269 L708 1268 L718 1251 L719 1253 L713 1265 L715 1265 L721 1256 L727 1239 L727 1230 L733 1219 L736 1208 L736 1204 L738 1201 L738 1197 L739 1196 L740 1197 L740 1206 L735 1218 L733 1230 L728 1243 L732 1239 L740 1222 L742 1216 L742 1207 L747 1194 L748 1184 L751 1177 L751 1160 L753 1153 L751 1136 L752 1135 L754 1139 L755 1138 L754 1137 L753 1123 L749 1112 L744 1103 L738 1097 L734 1096 L732 1092 L724 1085 L720 1084 L710 1078 L704 1078 L696 1072 L688 1070 L681 1070 L680 1071 L681 1072 L691 1073 L692 1074 L691 1075 L688 1075 L703 1080 L704 1081 L703 1082 L699 1082 L700 1085 L706 1089 L712 1091 L721 1098 L716 1100 L707 1096 L704 1093 L690 1086 L686 1081 L674 1077 L672 1074 L673 1073 L685 1077 L692 1083 L692 1081 L689 1080 L688 1078 L686 1078 L685 1076 L662 1066 L660 1068 L667 1071 L669 1073 L668 1075 L662 1073 L650 1066 L649 1067 L657 1073 L663 1075 L671 1080 L678 1081 L682 1083 L684 1086 L692 1090 L702 1093 L705 1096 L701 1097 L695 1094 L687 1093 L684 1091 L685 1090 L683 1088 L679 1087 L676 1084 L673 1084 L667 1081 L660 1082 L658 1084 L654 1080 L655 1078 L651 1075 L649 1075 L644 1072 L641 1073 L640 1070 L639 1074 L630 1066 L628 1067 L633 1072 L638 1081 L648 1089 L656 1093 L661 1094 L663 1097 L677 1103 L676 1104 L672 1104 L665 1102 L663 1104 L654 1100 L655 1099 L653 1100 L647 1096 L646 1094 L643 1095 L631 1079 L633 1077 L632 1075 L627 1070 L626 1074 L623 1072 L623 1074 L627 1077 L625 1080 L624 1077 L622 1077 L625 1083 L633 1090 L630 1091 L621 1082 L620 1078 L618 1077 L614 1067 L612 1067 L611 1070 L610 1068 L608 1068 L611 1074 L616 1079 L618 1083 L617 1084 L612 1083 L608 1080 L609 1079 L609 1075 L607 1073 L605 1073 L607 1078 L605 1079 L596 1069 L596 1067 L595 1066 L593 1067 L604 1085 L603 1086 L600 1085 L595 1080 L593 1075 L591 1075 L590 1077 L581 1068 L579 1068 L580 1071 L585 1076 L594 1081 L598 1086 L603 1088 L608 1093 L607 1094 L605 1094 L600 1091 L593 1084 L589 1084 L586 1081 L586 1079 L582 1078 L583 1080 L581 1082 L574 1073 L574 1069 L572 1068 L573 1070 L572 1072 L577 1080 L575 1082 L576 1086 L575 1088 L572 1085 L570 1081 L570 1078 L566 1072 L565 1067 Z M423 1066 L419 1066 L409 1071 L407 1074 L422 1068 Z M534 1076 L530 1079 L528 1088 L525 1091 L524 1095 L522 1097 L521 1094 L524 1085 L525 1089 L524 1080 L522 1080 L521 1087 L518 1088 L514 1093 L513 1092 L515 1087 L515 1083 L514 1084 L513 1081 L516 1076 L518 1068 L517 1065 L512 1067 L509 1073 L509 1078 L506 1084 L505 1083 L505 1078 L507 1074 L505 1074 L502 1076 L501 1080 L497 1086 L496 1085 L497 1083 L494 1080 L499 1074 L502 1067 L500 1067 L496 1075 L492 1079 L492 1081 L494 1082 L493 1083 L491 1083 L487 1087 L485 1086 L487 1083 L485 1083 L483 1085 L482 1084 L487 1076 L488 1078 L491 1077 L489 1075 L488 1077 L487 1076 L487 1073 L489 1071 L491 1065 L489 1066 L489 1068 L481 1078 L479 1077 L480 1076 L478 1076 L473 1082 L467 1084 L463 1083 L466 1078 L470 1074 L471 1076 L473 1075 L480 1067 L478 1067 L471 1074 L470 1071 L473 1068 L473 1066 L470 1068 L468 1067 L463 1076 L455 1084 L453 1082 L459 1074 L459 1072 L458 1073 L456 1071 L453 1074 L452 1072 L454 1070 L454 1068 L452 1065 L441 1073 L438 1071 L434 1075 L431 1074 L426 1075 L425 1076 L426 1077 L424 1079 L426 1081 L423 1084 L422 1081 L418 1082 L416 1084 L415 1081 L409 1084 L407 1083 L408 1080 L415 1079 L417 1077 L421 1076 L419 1075 L436 1067 L431 1067 L414 1075 L408 1076 L390 1088 L380 1092 L376 1095 L376 1096 L379 1097 L362 1109 L361 1108 L363 1106 L363 1104 L371 1099 L372 1097 L365 1099 L359 1104 L358 1102 L361 1097 L363 1097 L366 1094 L368 1094 L375 1089 L380 1087 L382 1084 L397 1080 L397 1079 L394 1079 L382 1083 L379 1083 L378 1082 L381 1079 L387 1077 L393 1077 L394 1076 L395 1077 L397 1075 L400 1075 L404 1073 L404 1072 L402 1072 L400 1070 L396 1070 L395 1071 L392 1070 L382 1074 L378 1078 L377 1077 L371 1078 L364 1083 L361 1083 L355 1086 L346 1096 L339 1101 L331 1114 L327 1126 L327 1140 L329 1142 L328 1158 L329 1161 L331 1162 L330 1166 L330 1179 L333 1183 L332 1184 L333 1185 L333 1190 L336 1197 L337 1206 L339 1212 L343 1218 L343 1223 L345 1230 L349 1237 L349 1239 L351 1240 L350 1231 L348 1228 L348 1225 L345 1218 L346 1217 L343 1214 L343 1207 L340 1205 L340 1200 L342 1198 L341 1196 L341 1185 L342 1184 L343 1185 L343 1190 L345 1197 L345 1208 L353 1234 L355 1237 L353 1239 L354 1246 L356 1251 L360 1256 L361 1256 L359 1251 L360 1247 L367 1260 L373 1267 L375 1267 L365 1253 L359 1239 L359 1235 L360 1234 L366 1244 L372 1259 L381 1268 L381 1270 L387 1278 L387 1275 L383 1268 L382 1263 L379 1259 L380 1252 L378 1250 L374 1241 L374 1239 L376 1237 L371 1224 L373 1223 L370 1213 L370 1210 L371 1209 L372 1210 L372 1206 L368 1190 L369 1185 L370 1184 L372 1185 L371 1169 L370 1168 L372 1167 L372 1154 L373 1153 L373 1146 L372 1145 L374 1140 L368 1141 L367 1138 L372 1130 L375 1133 L374 1132 L375 1126 L379 1122 L390 1117 L395 1120 L384 1125 L384 1126 L389 1125 L391 1127 L393 1127 L403 1122 L404 1124 L408 1124 L415 1121 L417 1119 L418 1121 L420 1121 L445 1104 L447 1104 L448 1107 L452 1108 L443 1111 L433 1118 L431 1116 L430 1117 L431 1121 L433 1121 L444 1114 L452 1110 L453 1111 L460 1107 L461 1109 L457 1112 L458 1114 L466 1111 L471 1107 L477 1106 L481 1104 L482 1105 L480 1108 L456 1120 L456 1122 L458 1121 L467 1121 L472 1118 L474 1119 L477 1117 L484 1116 L491 1109 L494 1109 L500 1103 L502 1103 L505 1100 L508 1093 L509 1096 L506 1106 L503 1109 L502 1108 L495 1116 L490 1118 L491 1120 L501 1114 L502 1116 L496 1120 L496 1121 L500 1121 L509 1115 L511 1112 L514 1113 L524 1099 L527 1091 L528 1095 L527 1096 L526 1104 L522 1111 L519 1112 L514 1117 L514 1118 L516 1118 L519 1114 L522 1115 L526 1110 L530 1095 L531 1084 Z M498 1039 L499 1038 L500 1039 L499 1040 Z M475 1035 L481 1033 L487 1033 L494 1035 L499 1038 L497 1040 L492 1038 L480 1037 Z M589 1024 L589 1025 L597 1023 L607 1023 L618 1026 L618 1025 L610 1022 L594 1022 Z M462 1027 L474 1023 L483 1023 L484 1024 L493 1025 L486 1022 L471 1022 L463 1025 Z M493 1002 L494 1011 L498 1020 L506 1028 L515 1032 L520 1032 L525 1034 L555 1034 L556 1033 L562 1033 L573 1029 L572 1028 L565 1031 L560 1031 L559 1032 L524 1032 L523 1031 L519 1032 L510 1029 L503 1024 L496 1012 L494 1001 Z M589 1000 L588 1000 L585 1014 L580 1023 L583 1021 L587 1014 L589 1006 Z M439 998 L439 1017 L444 1030 L450 1036 L458 1039 L478 1039 L479 1040 L503 1041 L509 1046 L522 1050 L528 1050 L529 1051 L556 1051 L557 1050 L565 1049 L580 1042 L585 1041 L583 1039 L596 1033 L604 1033 L610 1035 L609 1036 L603 1036 L602 1037 L588 1039 L588 1041 L605 1040 L606 1039 L625 1039 L632 1036 L638 1030 L643 1016 L643 998 L642 997 L641 987 L637 975 L629 961 L617 948 L615 948 L626 962 L635 979 L638 989 L639 1001 L640 1002 L640 1011 L639 1012 L639 1018 L637 1025 L627 1035 L620 1036 L616 1035 L614 1033 L607 1030 L595 1030 L583 1035 L572 1043 L563 1046 L552 1047 L551 1048 L532 1048 L531 1047 L524 1047 L513 1044 L507 1041 L499 1034 L488 1030 L479 1030 L472 1032 L469 1035 L465 1035 L464 1036 L453 1034 L446 1027 L443 1020 L443 1016 L442 1015 L443 995 L447 980 L452 969 L458 960 L465 953 L469 947 L467 947 L454 960 L450 966 L444 978 Z M613 946 L608 947 L602 953 L600 957 L600 960 L605 952 L608 949 L613 948 Z M472 946 L471 948 L475 949 L479 953 L483 960 L484 959 L481 953 L475 947 Z M442 930 L425 962 L419 980 L418 990 L417 991 L417 1011 L418 1015 L419 1015 L418 1012 L418 996 L419 995 L419 989 L420 988 L420 983 L422 975 L425 969 L426 964 L431 955 L431 953 L433 951 L440 937 Z M639 928 L642 936 L652 954 L652 956 L659 971 L663 987 L663 993 L664 994 L664 1011 L663 1012 L663 1015 L664 1015 L665 1012 L665 989 L661 972 L657 961 L647 941 Z M626 879 L626 888 L627 889 L628 898 L630 902 L631 908 L633 910 L629 897 L629 892 L627 887 L627 880 Z M457 877 L456 878 L455 891 L451 903 L450 911 L455 897 L455 893 L457 887 Z M842 866 L843 867 L843 871 L842 872 L841 871 L841 867 Z M624 831 L625 830 L628 831 L627 832 Z M455 831 L456 830 L458 831 L457 832 Z M447 824 L450 822 L453 825 L450 826 Z M664 819 L665 818 L666 819 L665 820 Z M419 819 L420 818 L421 819 L420 820 Z M858 808 L860 810 L860 837 L859 838 L860 840 L859 841 L859 874 L858 875 L856 958 L855 959 L854 1006 L853 1007 L853 1028 L852 1029 L852 1048 L851 1049 L851 1068 L850 1069 L850 1092 L849 1093 L849 1108 L848 1109 L846 1153 L845 1154 L845 1168 L844 1169 L841 1260 L840 1261 L840 1276 L839 1277 L838 1295 L839 1295 L840 1285 L841 1284 L842 1258 L843 1257 L845 1187 L846 1186 L846 1169 L847 1168 L850 1108 L851 1107 L851 1095 L852 1094 L853 1095 L853 1133 L854 1134 L854 1227 L853 1228 L853 1251 L852 1252 L852 1265 L851 1266 L850 1286 L849 1287 L847 1304 L844 1314 L838 1321 L836 1321 L830 1313 L834 1310 L838 1301 L836 1302 L834 1307 L829 1311 L825 1308 L820 1299 L815 1279 L810 1224 L807 1211 L801 1200 L797 1197 L794 1197 L793 1195 L798 1183 L807 1155 L812 1135 L812 1131 L814 1126 L814 1122 L816 1117 L817 1107 L818 1106 L821 1082 L822 1081 L822 1075 L823 1074 L823 1068 L824 1067 L827 1035 L828 1034 L828 1026 L829 1025 L829 1017 L830 1016 L831 996 L832 995 L834 956 L835 955 L835 940 L836 939 L837 904 L847 864 L848 855 L850 850 L850 845 L853 836 L855 821 L857 816 L857 809 Z M587 809 L587 817 L588 818 L588 824 L589 825 L591 839 L596 855 L596 858 L606 886 L606 889 L610 901 L611 910 L613 915 L614 942 L615 942 L615 917 L614 916 L612 900 L595 848 L590 827 L588 809 Z M497 804 L496 804 L494 821 L490 835 L490 839 L473 890 L470 902 L468 919 L467 920 L467 942 L468 942 L468 926 L469 925 L469 917 L470 916 L471 905 L476 890 L476 887 L490 846 L494 825 L495 824 Z M659 804 L659 810 L658 813 L655 816 L648 820 L639 823 L636 822 L654 804 L657 802 Z M426 803 L427 802 L429 803 L444 818 L445 821 L442 822 L428 815 L425 811 Z M421 803 L422 802 L423 804 L422 805 Z M472 802 L472 808 L473 808 Z M859 800 L860 801 L860 807 L859 808 L858 807 L858 801 Z M226 791 L226 798 L227 799 L227 791 Z M864 778 L871 778 L873 781 L872 808 L870 810 L864 810 L863 809 L863 797 L862 795 L863 794 L863 779 Z M213 778 L218 778 L219 779 L219 808 L220 809 L219 810 L214 810 L212 808 L212 804 L211 803 L211 780 Z M388 776 L391 777 L395 782 L397 789 L397 795 L395 797 L392 797 L387 794 L390 791 L390 783 L387 778 Z M758 776 L759 775 L760 776 L759 777 Z M385 776 L386 775 L388 776 L387 777 Z M759 775 L760 774 L761 775 L760 776 Z M751 769 L748 769 L739 776 L723 784 L701 792 L695 797 L695 800 L703 793 L733 781 Z M290 768 L294 775 L304 785 L321 797 L345 808 L375 818 L420 836 L435 844 L448 855 L438 844 L417 833 L399 827 L366 813 L342 805 L319 794 L305 784 Z M796 767 L781 783 L764 795 L735 808 L716 814 L708 818 L703 819 L685 827 L674 830 L662 836 L660 836 L646 844 L636 854 L638 854 L646 846 L652 842 L666 835 L680 830 L687 826 L696 824 L718 815 L745 806 L754 801 L758 800 L781 785 L787 779 Z M779 759 L771 768 L761 775 L760 774 L763 770 L778 758 Z M778 758 L779 757 L780 758 L779 759 Z M771 758 L772 757 L773 758 L772 759 Z M779 757 L780 756 L781 757 L780 758 Z M755 760 L755 771 L758 773 L753 778 L739 788 L724 796 L722 796 L713 801 L687 811 L682 814 L679 814 L668 819 L665 818 L668 814 L667 803 L665 797 L663 795 L665 792 L679 785 L681 783 L682 784 L681 787 L681 797 L683 801 L684 800 L683 798 L683 787 L684 783 L686 781 L696 776 L699 777 L695 785 L695 791 L696 792 L697 791 L697 784 L700 778 L699 775 L722 765 L730 763 L733 761 L745 758 L748 756 L751 756 Z M780 756 L781 755 L782 756 L781 757 Z M768 755 L769 756 L767 760 L760 766 L759 765 L760 764 L760 758 L762 756 Z M331 755 L334 755 L383 773 L385 775 L389 785 L389 790 L387 794 L344 775 L334 767 L336 771 L343 776 L359 784 L371 788 L390 797 L391 801 L395 799 L399 795 L399 789 L396 782 L397 780 L422 794 L419 796 L417 800 L416 809 L414 813 L416 815 L415 816 L416 815 L419 818 L418 819 L379 804 L341 786 L335 782 L327 774 L328 772 L327 769 L327 760 Z M781 755 L782 754 L783 755 L782 756 Z M754 755 L755 754 L758 755 L756 757 Z M314 755 L318 754 L324 757 L324 764 L323 765 Z M308 755 L309 754 L310 755 L309 756 Z M757 754 L758 753 L759 754 L758 755 Z M326 754 L327 753 L328 754 L327 755 Z M579 753 L577 756 L577 760 L575 766 L575 773 L574 774 L574 781 L573 782 L572 827 L573 828 L573 850 L574 851 L574 871 L575 872 L575 888 L576 889 L576 908 L577 909 L578 935 L579 936 L579 941 L586 965 L587 976 L588 977 L588 985 L589 986 L590 985 L590 981 L589 980 L588 966 L580 937 L577 877 L576 876 L576 857 L575 856 L574 795 L575 794 L575 780 L576 779 L576 772 L577 771 Z M505 753 L504 753 L504 757 L506 764 L507 782 L508 783 L508 838 L507 839 L505 904 L504 905 L504 922 L503 923 L502 939 L494 970 L494 977 L493 978 L493 985 L494 986 L495 984 L496 969 L503 944 L504 932 L505 931 L506 903 L507 902 L507 880 L508 879 L508 861 L509 860 L510 785 L509 784 L508 765 Z M324 753 L325 752 L326 753 L325 754 Z M784 751 L785 753 L783 755 L782 753 Z M784 751 L785 750 L786 751 L785 752 Z M785 750 L786 749 L787 750 L786 751 Z M786 749 L787 748 L788 749 L787 750 Z M295 748 L296 747 L299 749 L308 759 L319 768 L323 770 L327 776 L325 777 L314 769 L299 754 Z M784 746 L785 747 L782 751 L773 758 L772 757 L773 752 L770 750 Z M299 746 L302 745 L307 747 L309 754 L308 755 Z M789 745 L790 744 L791 745 L790 746 Z M298 745 L299 744 L300 745 L299 746 Z M790 744 L791 743 L792 744 L791 745 Z M290 742 L291 741 L294 742 L296 747 L295 748 Z M289 741 L290 740 L291 741 L290 742 Z M803 738 L804 737 L805 738 L804 739 Z M804 737 L805 736 L806 737 L805 738 Z M813 731 L805 733 L789 741 L753 752 L750 752 L747 754 L721 762 L701 770 L671 785 L656 794 L642 805 L623 826 L620 831 L621 835 L623 836 L677 819 L712 805 L745 789 L770 773 L783 763 L788 757 L785 760 L783 759 L791 750 L796 742 L803 738 L804 740 L799 746 L801 746 L808 736 Z M276 731 L281 736 L281 740 L283 743 L286 745 L283 741 L284 739 L291 747 L295 755 L309 769 L334 786 L357 798 L359 798 L387 811 L392 812 L413 821 L430 826 L433 828 L440 829 L443 831 L446 831 L458 836 L461 835 L461 831 L458 825 L448 812 L432 797 L414 785 L382 769 L377 768 L353 758 L310 745 L307 743 L289 737 L278 731 Z M653 729 L648 732 L637 743 L624 761 L619 771 L613 788 L612 800 L610 807 L611 808 L611 804 L612 803 L611 801 L614 789 L620 772 L625 762 L637 745 Z M596 729 L597 728 L598 730 L597 731 Z M431 729 L444 742 L456 758 L466 779 L471 800 L472 800 L469 785 L465 773 L457 757 L444 740 Z M488 728 L489 727 L490 728 L489 729 Z M485 728 L486 727 L487 728 L486 729 Z M597 727 L598 726 L599 728 L598 729 Z M598 725 L599 724 L600 726 L599 727 Z M484 725 L485 724 L486 726 L485 727 Z M488 723 L489 724 L488 727 L487 726 Z M604 723 L605 722 L606 723 L605 724 Z M477 723 L478 722 L479 723 L478 724 Z M798 722 L779 731 L743 739 L716 748 L675 767 L661 776 L640 793 L628 806 L620 819 L621 819 L630 806 L656 781 L682 765 L726 746 L738 743 L745 740 L765 735 L769 735 L785 730 L790 727 L792 727 Z M601 720 L602 722 L600 725 L599 722 Z M596 721 L597 720 L598 722 L597 723 Z M486 721 L487 720 L488 722 L487 723 Z M484 720 L485 721 L484 724 L483 723 Z M287 721 L294 726 L328 737 L331 737 L378 754 L416 773 L433 785 L453 805 L460 814 L465 823 L462 815 L449 798 L439 788 L412 769 L391 758 L389 758 L382 754 L357 744 L339 738 L315 732 L308 729 L305 729 Z M597 719 L598 718 L599 720 L598 721 Z M485 719 L486 718 L487 719 L486 720 Z M602 718 L603 717 L604 719 L603 720 Z M478 718 L479 717 L480 718 L479 719 Z M482 716 L484 718 L483 721 L481 718 Z M603 716 L604 715 L605 717 L604 718 Z M604 714 L605 713 L606 715 L605 716 Z M469 714 L470 713 L471 714 L470 715 Z M608 713 L609 712 L610 713 L609 714 Z M601 712 L602 715 L599 719 L598 716 Z M482 713 L483 712 L484 713 L483 714 Z M463 713 L464 712 L465 714 L464 715 Z M605 711 L606 710 L607 712 L606 713 Z M601 711 L602 710 L603 712 L602 713 Z M609 710 L610 709 L611 710 L610 711 Z M472 710 L473 709 L474 711 L473 712 Z M467 709 L469 712 L468 715 L466 712 Z M229 709 L230 710 L230 758 L229 759 L230 826 L231 827 L231 836 L232 837 L232 844 L233 845 L234 861 L235 862 L240 897 L242 901 L242 906 L243 907 L244 942 L245 943 L247 978 L248 979 L248 989 L249 990 L249 1000 L250 1001 L254 1045 L255 1046 L255 1052 L256 1053 L256 1059 L257 1060 L257 1066 L258 1067 L261 1091 L263 1097 L263 1102 L264 1103 L268 1127 L276 1158 L285 1185 L290 1196 L284 1198 L279 1203 L275 1213 L274 1221 L273 1222 L272 1237 L271 1238 L269 1267 L268 1268 L267 1280 L263 1297 L259 1305 L252 1311 L248 1308 L245 1300 L244 1300 L245 1306 L247 1310 L250 1312 L254 1312 L259 1308 L266 1293 L267 1285 L269 1280 L269 1275 L270 1274 L272 1250 L273 1249 L273 1237 L274 1236 L275 1221 L278 1209 L281 1203 L287 1198 L291 1199 L285 1209 L284 1217 L283 1218 L280 1262 L279 1263 L277 1283 L273 1300 L267 1314 L259 1321 L253 1321 L252 1317 L251 1321 L244 1321 L240 1317 L237 1311 L233 1294 L232 1278 L231 1277 L232 1276 L231 1275 L231 1266 L230 1265 L230 1250 L229 1249 L229 1225 L228 1224 L228 1135 L229 1134 L229 1112 L230 1111 L229 1108 L231 1101 L232 1102 L232 1120 L233 1121 L235 1170 L236 1171 L236 1197 L237 1198 L239 1263 L240 1264 L240 1274 L241 1275 L241 1287 L243 1294 L242 1270 L241 1269 L241 1251 L240 1250 L239 1192 L238 1191 L238 1173 L237 1172 L237 1156 L236 1155 L233 1089 L232 1088 L232 1066 L231 1065 L231 1039 L230 1038 L230 1018 L229 1017 L228 965 L227 964 L227 942 L226 941 L226 910 L225 909 L224 840 L223 839 L223 816 L224 815 L223 813 L224 810 L223 806 L223 777 L221 773 L220 735 L219 734 L219 725 L220 724 L221 715 Z M854 708 L860 712 L864 718 L862 773 L860 776 L860 780 L859 781 L859 788 L857 795 L856 809 L853 821 L853 826 L851 831 L851 835 L843 867 L842 866 L842 859 L843 858 L843 849 L844 848 L845 831 L846 830 L846 823 L847 822 L848 803 L849 802 L849 794 L852 786 L851 782 L851 735 L852 734 L851 724 L852 723 L852 709 Z M628 709 L629 708 L630 709 L629 710 Z M616 709 L617 708 L618 710 L617 711 Z M612 709 L613 708 L614 710 L613 711 Z M465 709 L466 708 L467 709 L466 710 Z M462 708 L464 710 L463 713 L461 710 Z M613 708 L614 707 L615 708 L614 709 Z M477 707 L482 715 L479 717 L476 714 L476 708 Z M629 707 L630 706 L631 708 L630 709 Z M617 707 L618 706 L619 708 L618 709 Z M603 707 L604 706 L605 707 L604 708 Z M472 706 L473 707 L472 710 L471 709 Z M630 706 L631 705 L632 706 L631 707 Z M626 706 L627 705 L628 706 L627 707 Z M618 706 L619 705 L620 706 L619 707 Z M614 706 L615 705 L616 706 L615 707 Z M475 706 L476 705 L477 707 L476 708 Z M467 706 L468 705 L469 706 L468 707 Z M464 706 L465 705 L466 707 L465 708 Z M447 706 L448 705 L449 706 L448 707 Z M611 705 L612 704 L613 705 L612 706 Z M604 705 L605 704 L606 705 L605 706 Z M474 705 L475 704 L476 705 L475 706 Z M450 705 L451 704 L452 705 L451 706 Z M631 704 L632 703 L633 704 L632 705 Z M627 704 L628 703 L629 705 L628 706 Z M619 704 L620 703 L621 705 L620 706 Z M615 704 L616 703 L617 704 L616 705 Z M470 704 L471 703 L472 705 L471 706 Z M463 704 L464 703 L465 705 L464 706 Z M612 703 L613 702 L614 703 L613 704 Z M605 703 L606 702 L607 703 L606 704 Z M466 703 L467 702 L468 703 L467 704 Z M449 703 L450 702 L451 704 L450 705 Z M636 702 L637 701 L638 702 L637 703 Z M632 702 L633 701 L634 702 L633 703 Z M628 702 L629 701 L630 703 L629 704 Z M624 702 L625 701 L626 703 L625 704 Z M616 702 L617 701 L618 703 L617 704 Z M462 702 L463 701 L464 702 L463 703 Z M453 702 L454 701 L455 703 L454 704 Z M613 701 L614 700 L615 701 L614 702 Z M469 701 L470 700 L471 702 L470 703 Z M465 701 L466 700 L467 701 L466 702 Z M448 701 L449 700 L450 702 L449 703 Z M637 700 L638 699 L639 700 L638 701 Z M633 700 L634 699 L635 701 L634 702 Z M629 700 L630 699 L631 701 L630 702 Z M625 700 L626 699 L627 701 L626 702 Z M617 700 L618 699 L619 701 L618 702 Z M606 700 L607 699 L608 700 L607 701 Z M452 700 L453 699 L454 701 L453 702 Z M638 699 L639 698 L640 699 L639 700 Z M634 699 L635 698 L636 699 L635 700 Z M614 699 L615 698 L616 699 L615 700 Z M468 699 L469 698 L470 700 L469 701 Z M457 698 L460 701 L462 706 L461 709 L456 701 Z M447 699 L448 698 L449 700 L448 701 Z M443 699 L444 698 L445 699 L444 700 Z M630 698 L631 697 L632 698 L631 699 Z M626 698 L627 697 L628 699 L627 700 Z M623 697 L624 700 L621 704 L620 702 Z M618 698 L619 697 L620 698 L619 699 Z M464 698 L465 697 L466 698 L465 699 Z M442 698 L443 697 L444 698 L443 699 Z M639 697 L640 696 L641 697 L640 698 Z M635 697 L636 696 L637 697 L636 698 Z M459 697 L460 696 L461 697 L460 698 Z M455 697 L456 696 L457 698 L456 699 Z M446 697 L447 696 L448 698 L447 699 Z M435 697 L436 696 L437 697 L436 698 Z M631 696 L632 695 L633 697 L632 698 Z M627 696 L628 695 L629 697 L628 698 Z M623 696 L624 695 L625 697 L624 698 Z M463 696 L464 695 L465 696 L464 697 Z M451 695 L453 697 L452 700 L450 697 Z M441 696 L442 695 L443 696 L442 697 Z M640 695 L641 694 L642 696 L641 697 Z M636 695 L637 694 L638 696 L637 697 Z M445 695 L446 694 L447 696 L446 697 Z M434 695 L435 694 L436 696 L435 697 Z M648 693 L649 694 L648 697 L641 704 L640 702 Z M637 694 L638 693 L639 694 L638 695 Z M632 694 L633 693 L634 695 L633 696 Z M628 694 L629 693 L630 695 L629 696 Z M453 694 L454 693 L455 694 L454 695 Z M444 694 L445 693 L446 694 L445 695 Z M440 694 L441 693 L442 695 L441 696 Z M433 694 L434 693 L435 694 L434 695 Z M653 693 L654 692 L655 693 L654 694 Z M648 693 L649 692 L650 693 L649 694 Z M625 692 L626 693 L625 696 L624 695 Z M439 693 L440 692 L441 693 L440 694 Z M432 693 L433 692 L434 693 L433 694 Z M654 692 L655 691 L656 692 L655 693 Z M646 692 L647 691 L648 692 L647 693 Z M633 692 L634 691 L635 693 L634 694 Z M629 692 L630 691 L631 692 L630 693 Z M452 692 L453 691 L454 693 L453 694 Z M449 691 L451 693 L450 696 L448 693 Z M625 691 L626 690 L627 692 L626 693 Z M457 690 L460 694 L459 697 L456 692 Z M451 691 L452 690 L453 691 L452 692 Z M447 691 L448 690 L449 691 L448 692 Z M434 691 L435 690 L436 691 L435 692 Z M431 691 L432 690 L433 691 L432 692 Z M661 690 L662 689 L663 691 L662 692 Z M634 690 L635 689 L636 691 L635 692 Z M630 690 L631 689 L632 690 L631 691 Z M455 690 L456 689 L457 690 L456 691 Z M433 690 L434 689 L435 690 L434 691 Z M430 690 L431 689 L432 690 L431 691 Z M426 690 L427 689 L428 690 L427 691 Z M662 689 L663 688 L664 689 L663 690 Z M649 688 L650 690 L648 692 L647 690 Z M626 689 L627 688 L628 689 L627 690 Z M450 689 L451 688 L452 690 L451 691 Z M446 689 L447 688 L448 689 L447 690 Z M429 689 L430 688 L431 689 L430 690 Z M425 689 L426 688 L427 689 L426 690 Z M653 688 L654 687 L655 688 L654 689 Z M635 688 L636 687 L637 689 L636 690 Z M454 688 L455 687 L456 688 L455 689 Z M432 688 L433 687 L434 688 L433 689 Z M654 687 L655 686 L656 687 L655 688 Z M627 687 L628 686 L629 687 L628 688 Z M449 687 L450 686 L451 687 L450 688 Z M431 687 L432 686 L433 687 L432 688 Z M671 686 L672 685 L673 686 L672 687 Z M660 685 L661 687 L656 692 L655 690 Z M636 686 L637 685 L638 687 L637 688 Z M453 686 L454 685 L455 687 L454 688 Z M441 685 L445 691 L444 692 L441 690 L440 687 Z M430 686 L431 685 L432 686 L431 687 Z M427 686 L428 685 L429 686 L428 687 Z M672 685 L673 684 L674 685 L673 686 Z M655 685 L656 684 L657 686 L656 687 Z M452 685 L453 684 L454 685 L453 686 Z M448 685 L449 684 L450 685 L449 686 Z M677 684 L678 683 L679 684 L678 685 Z M656 684 L657 683 L658 684 L657 685 Z M637 684 L638 683 L639 685 L638 686 Z M439 684 L440 683 L441 685 L440 686 Z M429 684 L430 683 L431 684 L430 685 Z M426 684 L427 683 L428 684 L427 685 Z M678 683 L679 682 L680 683 L679 684 Z M447 683 L448 682 L449 683 L448 684 Z M428 683 L429 682 L430 683 L429 684 Z M405 683 L406 682 L407 683 L406 684 Z M683 682 L684 681 L685 682 L684 683 Z M679 682 L680 681 L681 682 L680 683 Z M663 681 L664 683 L661 686 L660 684 Z M647 682 L648 681 L649 683 L648 684 Z M638 682 L639 681 L640 682 L639 683 Z M438 682 L439 681 L440 683 L439 684 Z M425 682 L426 681 L427 683 L426 684 Z M411 682 L412 681 L413 682 L412 683 Z M407 682 L408 681 L409 682 L408 683 Z M404 682 L405 681 L406 682 L405 683 Z M684 681 L685 680 L686 681 L685 682 Z M454 681 L455 680 L456 681 L455 682 Z M443 680 L447 687 L446 689 L442 683 Z M427 681 L428 680 L429 681 L428 682 Z M680 680 L681 679 L682 681 L681 682 Z M648 680 L649 679 L650 680 L649 681 Z M639 680 L640 679 L641 680 L640 681 Z M437 680 L438 679 L439 680 L438 681 Z M434 679 L439 687 L440 690 L439 692 L434 685 L435 684 L434 685 L432 683 L433 681 L434 682 L433 681 Z M410 680 L411 679 L412 680 L411 681 Z M685 679 L686 678 L687 680 L686 681 Z M681 679 L682 678 L683 679 L682 680 Z M640 679 L641 678 L642 679 L641 680 Z M441 679 L442 678 L443 680 L442 681 Z M426 679 L427 678 L428 680 L427 681 Z M682 678 L683 677 L684 678 L683 679 Z M649 678 L650 677 L651 678 L650 679 Z M440 678 L441 677 L442 678 L441 679 Z M436 678 L437 677 L438 678 L437 679 Z M409 678 L410 677 L411 679 L410 680 Z M406 677 L408 680 L407 682 L405 680 Z M700 677 L701 676 L702 677 L701 678 Z M683 677 L684 676 L685 677 L684 678 Z M646 676 L647 678 L642 687 L643 688 L647 683 L648 686 L642 695 L641 693 L639 694 L638 693 L638 690 L642 681 Z M641 677 L642 676 L643 677 L642 678 Z M435 677 L436 676 L437 677 L436 678 Z M688 675 L689 677 L687 679 L686 677 Z M650 676 L651 675 L652 676 L651 677 Z M646 676 L647 675 L648 676 L647 677 Z M434 676 L435 675 L436 676 L435 677 Z M386 676 L387 675 L388 676 L387 677 Z M685 675 L686 674 L687 675 L686 676 Z M642 675 L643 674 L644 676 L643 677 Z M651 674 L652 673 L653 674 L652 675 Z M647 674 L648 673 L649 674 L648 675 Z M643 674 L644 673 L645 674 L644 675 Z M433 674 L434 673 L435 675 L434 676 Z M392 674 L393 673 L394 674 L393 675 Z M703 673 L704 672 L705 673 L704 674 Z M692 673 L693 672 L694 674 L693 675 Z M432 673 L433 672 L434 673 L433 674 Z M708 672 L709 671 L710 672 L709 673 Z M704 672 L705 671 L706 672 L705 673 Z M648 672 L649 671 L650 672 L649 673 Z M644 672 L645 671 L646 672 L645 673 Z M394 672 L395 671 L396 672 L395 673 Z M709 671 L710 670 L711 671 L710 672 Z M705 671 L706 670 L707 671 L706 672 Z M649 671 L650 670 L651 671 L650 672 Z M438 671 L439 670 L440 671 L439 672 Z M431 671 L432 670 L433 671 L432 672 Z M710 670 L711 669 L712 670 L711 671 Z M706 670 L707 669 L708 670 L707 671 Z M393 670 L394 669 L395 670 L394 671 Z M370 670 L371 669 L372 670 L371 671 Z M711 669 L712 668 L713 669 L712 670 Z M437 669 L438 668 L439 669 L438 670 Z M369 669 L370 668 L371 669 L370 670 Z M721 668 L722 667 L723 668 L722 669 Z M717 667 L718 669 L713 673 L712 672 Z M707 668 L708 667 L709 668 L708 669 Z M368 668 L369 667 L370 668 L369 669 Z M717 667 L718 666 L719 667 L718 668 Z M708 667 L709 666 L710 667 L709 668 Z M433 667 L434 666 L435 667 L434 668 Z M372 667 L374 666 L376 668 L374 669 Z M367 667 L368 666 L369 667 L368 668 Z M732 666 L733 665 L734 666 L733 667 Z M718 666 L719 665 L720 666 L719 667 Z M714 665 L715 667 L713 669 L712 667 Z M662 666 L663 665 L664 666 L663 667 Z M371 666 L372 665 L373 666 L372 667 Z M356 666 L357 665 L358 666 L357 667 Z M719 665 L720 664 L721 665 L720 666 Z M714 665 L715 664 L716 665 L715 666 Z M709 665 L710 664 L711 666 L710 667 Z M663 665 L664 664 L665 665 L664 666 Z M355 665 L356 664 L357 665 L356 666 Z M744 664 L745 663 L746 664 L745 665 Z M733 664 L734 663 L735 665 L734 666 Z M710 664 L711 663 L712 664 L711 665 Z M469 664 L478 674 L487 687 L496 705 L495 699 L487 684 L478 672 Z M354 664 L355 663 L356 664 L355 665 Z M734 663 L735 662 L736 663 L735 664 Z M729 663 L730 662 L731 663 L730 664 Z M720 663 L721 662 L722 663 L721 664 Z M664 663 L665 662 L666 663 L665 664 Z M660 663 L661 662 L662 664 L661 665 Z M615 663 L603 675 L597 683 L589 698 L587 705 L588 705 L597 686 Z M421 663 L422 662 L423 664 L422 665 Z M353 663 L354 662 L355 663 L354 664 Z M340 663 L341 662 L342 663 L341 664 Z M735 662 L736 661 L737 662 L736 663 Z M730 662 L731 661 L732 662 L731 663 Z M721 662 L722 661 L723 662 L722 663 Z M711 662 L712 661 L713 663 L712 664 Z M661 662 L662 661 L663 662 L662 663 Z M420 662 L421 661 L422 662 L421 663 Z M357 662 L358 661 L359 662 L358 663 Z M349 662 L350 661 L351 662 L350 663 Z M339 662 L340 661 L341 662 L340 663 Z M769 661 L770 660 L771 661 L770 662 Z M731 661 L732 660 L733 661 L732 662 Z M662 661 L663 660 L664 661 L663 662 Z M356 661 L357 660 L358 661 L357 662 Z M352 661 L353 660 L354 661 L353 662 Z M343 661 L344 660 L345 661 L344 662 Z M286 661 L287 660 L288 661 L287 662 Z M750 660 L751 659 L752 660 L751 661 Z M742 660 L743 659 L744 660 L743 661 Z M722 660 L723 659 L724 660 L723 661 Z M359 660 L360 659 L361 660 L360 661 Z M355 660 L356 659 L357 660 L356 661 Z M342 660 L343 659 L344 660 L343 661 Z M787 659 L788 658 L789 659 L788 660 Z M758 660 L759 658 L763 658 L764 659 L759 661 Z M752 659 L753 658 L754 659 L753 660 Z M723 659 L724 658 L725 659 L724 660 Z M663 659 L664 658 L665 659 L664 660 Z M418 659 L419 658 L420 659 L419 660 Z M354 659 L355 658 L356 659 L355 660 Z M334 659 L335 658 L336 659 L335 660 Z M724 658 L725 657 L726 658 L725 659 Z M664 658 L665 657 L666 658 L665 659 Z M414 658 L415 657 L416 658 L415 659 Z M358 658 L359 657 L360 659 L359 660 Z M353 658 L354 657 L355 658 L354 659 Z M325 658 L326 657 L327 658 L326 659 Z M828 657 L827 658 L829 663 L830 677 L831 678 L830 743 L829 744 L829 760 L828 761 L828 777 L827 778 L827 794 L826 795 L825 826 L824 827 L823 855 L822 856 L822 869 L821 870 L821 882 L820 883 L820 897 L819 898 L818 919 L817 920 L817 929 L816 930 L816 941 L815 942 L813 977 L812 978 L812 990 L811 991 L811 1004 L810 1005 L810 1018 L809 1019 L809 1030 L808 1031 L808 1041 L807 1042 L804 1076 L803 1077 L803 1083 L802 1084 L802 1090 L801 1091 L799 1108 L797 1114 L797 1119 L785 1171 L768 1218 L764 1225 L760 1236 L754 1246 L753 1250 L756 1246 L772 1212 L787 1169 L795 1137 L795 1133 L799 1117 L799 1112 L801 1106 L803 1089 L804 1088 L805 1075 L806 1074 L808 1050 L809 1049 L809 1040 L810 1039 L810 1028 L811 1027 L815 962 L816 961 L817 940 L818 939 L819 919 L820 918 L820 907 L821 906 L821 897 L822 896 L825 842 L826 841 L826 825 L827 824 L827 810 L828 809 L829 778 L830 777 L831 743 L832 742 L833 682 L832 681 L832 671 Z M750 657 L751 656 L752 657 L751 658 Z M417 657 L418 656 L419 657 L418 658 Z M357 657 L358 656 L359 657 L358 658 Z M352 657 L353 656 L354 657 L353 658 Z M331 657 L332 656 L334 657 L333 658 Z M287 657 L288 656 L289 657 L288 658 Z M796 656 L797 655 L798 656 L797 657 Z M751 656 L752 655 L754 656 L753 657 Z M735 656 L736 655 L737 656 L736 657 Z M665 656 L666 655 L667 656 L666 657 Z M290 656 L291 655 L293 656 L292 657 Z M736 655 L737 654 L738 655 L737 656 Z M416 655 L417 654 L418 655 L417 656 Z M293 655 L294 654 L295 655 L294 656 Z M770 654 L771 653 L775 654 L774 655 Z M316 654 L317 653 L321 654 L320 655 Z M309 654 L310 653 L312 654 L311 655 Z M302 654 L303 653 L308 653 L309 654 L308 655 L303 655 Z M778 653 L779 652 L782 653 L781 654 Z M704 653 L703 653 L700 658 L704 655 Z M383 653 L384 656 L386 656 Z M332 653 L333 652 L334 653 L333 654 Z M331 652 L332 651 L333 652 L332 653 Z M775 650 L776 649 L778 650 L777 651 Z M753 650 L754 649 L756 650 L755 651 Z M307 650 L308 649 L312 649 L313 650 L312 651 L308 651 Z M332 649 L333 648 L334 649 L333 650 Z M318 651 L319 650 L323 650 L322 649 L323 648 L328 649 L331 651 L329 653 L332 656 L329 658 L326 655 L322 654 L321 652 Z M770 648 L764 650 L761 653 L762 654 L759 656 L758 659 L754 658 L753 655 L757 651 L756 649 L757 648 L764 648 L765 647 L769 647 Z M750 648 L751 647 L752 648 L751 649 Z M330 648 L331 647 L333 648 L332 649 Z M319 648 L320 647 L323 648 L322 649 Z M752 647 L753 646 L755 647 L754 648 Z M328 647 L329 646 L331 647 L330 648 Z M314 647 L315 646 L319 647 L318 648 Z M293 647 L294 646 L295 647 L294 648 Z M755 646 L756 645 L757 646 L756 647 Z M405 646 L406 645 L407 646 L406 647 Z M342 646 L343 645 L344 646 L343 647 Z M325 646 L326 645 L328 646 L327 647 Z M750 644 L751 645 L749 647 L750 649 L747 650 L746 652 L751 650 L754 651 L746 658 L743 657 L737 662 L736 660 L744 650 L744 648 L748 644 Z M751 644 L752 643 L753 644 L752 645 Z M743 644 L744 643 L745 644 L744 645 Z M404 644 L405 643 L406 645 L405 646 Z M330 644 L333 643 L338 646 L340 646 L339 645 L342 644 L343 645 L342 648 L347 653 L347 656 L350 661 L349 662 L342 657 L341 659 L337 656 L336 653 L333 650 L335 649 L342 653 L339 649 L340 648 L338 649 Z M754 643 L755 642 L757 643 L756 644 Z M744 643 L745 642 L747 643 L746 644 Z M698 643 L699 642 L700 643 L699 644 Z M336 643 L337 642 L339 643 L338 644 Z M328 643 L329 642 L331 643 L330 644 Z M746 642 L747 641 L750 642 L749 643 Z M334 642 L335 641 L337 642 L336 643 Z M323 642 L324 641 L328 642 L327 643 Z M749 641 L750 640 L753 641 L752 642 Z M699 641 L700 640 L701 641 L700 642 Z M378 641 L379 640 L380 642 L379 643 Z M332 641 L333 640 L334 641 L333 642 Z M318 641 L319 640 L323 640 L324 641 L323 642 L319 642 Z M760 640 L761 639 L768 639 L769 640 L768 641 L761 641 Z M754 640 L755 639 L757 640 L756 641 Z M329 640 L330 639 L331 640 L330 641 Z M309 640 L310 639 L317 639 L318 640 L317 641 L310 641 Z M356 639 L357 638 L358 639 L357 640 Z M336 639 L337 638 L338 639 L337 640 Z M729 638 L730 637 L731 638 L730 639 Z M688 638 L689 637 L690 638 L689 639 Z M381 638 L382 637 L383 638 L382 639 Z M334 638 L335 637 L336 638 L335 639 Z M730 637 L731 636 L732 637 L731 638 Z M357 637 L358 636 L359 637 L358 638 Z M331 637 L332 636 L334 637 L333 638 Z M731 636 L732 635 L734 636 L733 637 Z M713 636 L714 635 L715 636 L714 637 Z M689 636 L690 635 L691 636 L690 637 Z M380 636 L381 635 L382 637 L381 638 Z M375 636 L376 635 L378 638 L377 639 Z M373 636 L374 635 L375 637 L374 638 Z M358 636 L359 635 L360 636 L359 637 Z M733 635 L734 634 L735 635 L734 636 Z M703 635 L704 634 L705 635 L704 636 Z M383 635 L384 634 L385 635 L384 636 Z M379 635 L380 634 L381 635 L380 636 Z M374 635 L375 634 L376 635 L375 636 Z M352 635 L353 634 L354 635 L353 636 Z M345 635 L346 634 L348 635 L347 636 Z M335 635 L336 634 L340 634 L348 638 L347 636 L349 635 L351 638 L353 638 L364 650 L372 665 L370 666 L357 653 L355 655 L352 652 L351 649 L350 649 L349 653 L343 647 L346 646 L345 644 L341 642 L343 641 Z M735 634 L736 633 L737 634 L736 635 Z M714 634 L715 633 L716 634 L715 635 Z M704 634 L705 633 L706 634 L705 635 Z M378 634 L379 633 L380 634 L379 635 Z M373 634 L374 633 L375 634 L374 635 Z M370 634 L371 633 L372 634 L371 635 Z M350 634 L351 633 L353 634 L352 635 Z M344 634 L345 633 L346 634 L345 635 Z M332 634 L333 633 L336 634 L335 635 Z M737 633 L738 632 L740 633 L739 634 Z M723 633 L724 632 L725 633 L724 634 Z M705 633 L706 632 L707 633 L706 634 Z M349 633 L350 632 L351 633 L350 634 Z M342 633 L343 632 L345 633 L344 634 Z M715 632 L716 631 L717 633 L716 634 Z M706 632 L707 631 L708 632 L707 633 Z M700 633 L702 631 L703 632 L702 634 Z M372 632 L373 631 L374 632 L373 633 Z M369 632 L370 631 L371 633 L370 634 Z M347 632 L348 631 L350 632 L349 633 Z M340 632 L341 631 L342 632 L341 633 Z M716 631 L717 630 L718 631 L717 632 Z M707 631 L708 630 L709 631 L708 632 Z M376 631 L377 630 L378 631 L377 632 Z M368 631 L369 630 L370 631 L369 632 Z M352 631 L354 630 L359 635 L357 637 Z M345 631 L346 630 L348 631 L347 632 Z M712 630 L713 629 L714 630 L713 631 Z M375 630 L376 629 L377 630 L376 631 Z M351 630 L352 629 L353 630 L352 631 Z M343 630 L344 629 L345 630 L344 631 Z M717 629 L718 628 L719 629 L718 630 Z M374 629 L375 628 L376 629 L375 630 Z M370 629 L371 628 L372 629 L371 630 Z M357 629 L360 628 L372 639 L375 645 L377 645 L374 638 L375 637 L377 639 L378 638 L379 639 L378 642 L380 645 L381 650 L382 650 L381 648 L382 644 L386 650 L383 642 L384 640 L386 641 L386 639 L384 637 L385 635 L391 640 L390 641 L391 640 L402 660 L404 661 L404 659 L397 645 L399 642 L409 654 L415 665 L415 667 L416 667 L416 662 L415 661 L416 659 L418 661 L423 672 L424 672 L424 670 L422 665 L423 664 L427 669 L426 671 L427 670 L429 672 L429 674 L433 681 L432 682 L429 677 L427 677 L426 679 L425 676 L424 677 L426 679 L426 681 L425 682 L422 679 L422 681 L426 687 L425 689 L422 686 L412 665 L410 664 L413 673 L416 677 L416 679 L421 688 L420 689 L417 686 L412 677 L409 678 L408 677 L407 672 L405 671 L406 674 L404 682 L398 676 L398 672 L393 664 L392 660 L391 659 L391 664 L394 668 L393 670 L392 669 L393 671 L392 674 L385 664 L377 656 L375 652 L375 655 L381 662 L384 669 L389 674 L388 676 L387 675 L386 676 L380 671 L375 663 L369 657 L365 647 L358 638 L360 636 L363 638 L364 635 L363 636 Z M718 628 L719 627 L720 628 L719 629 Z M708 630 L710 627 L712 628 L709 631 Z M373 628 L374 627 L375 628 L374 629 Z M369 628 L370 627 L371 628 L370 629 Z M355 628 L356 627 L357 628 L356 629 Z M719 627 L720 626 L721 627 L720 628 Z M711 627 L712 626 L713 627 L712 628 Z M353 627 L354 626 L356 627 L355 628 Z M809 662 L804 656 L803 652 L799 648 L797 650 L795 648 L778 640 L771 641 L768 637 L763 636 L761 634 L756 634 L755 635 L753 632 L746 631 L743 628 L730 631 L729 630 L731 629 L731 627 L729 627 L721 632 L720 630 L725 624 L725 623 L722 622 L717 626 L714 624 L715 622 L713 622 L703 632 L702 630 L705 627 L705 625 L703 625 L695 634 L693 634 L691 636 L689 634 L687 636 L683 637 L677 643 L676 646 L669 652 L667 656 L666 653 L665 653 L661 659 L660 657 L658 657 L654 664 L652 666 L650 666 L646 672 L645 670 L648 665 L646 665 L637 675 L634 674 L629 680 L627 679 L620 688 L617 690 L615 689 L608 699 L606 698 L604 700 L603 703 L599 707 L598 711 L594 713 L593 717 L587 727 L583 739 L582 746 L584 746 L586 741 L588 742 L590 737 L591 738 L593 737 L593 735 L596 730 L597 732 L600 731 L604 723 L605 726 L610 724 L613 718 L617 714 L624 703 L625 705 L617 718 L617 720 L628 709 L629 712 L631 712 L640 703 L641 705 L644 704 L661 691 L662 692 L661 695 L662 695 L671 686 L672 687 L671 691 L674 692 L682 684 L683 685 L688 684 L698 673 L698 671 L702 664 L701 663 L694 673 L693 670 L692 670 L688 674 L687 672 L693 662 L693 660 L692 660 L683 675 L680 678 L679 677 L680 678 L674 685 L673 683 L675 681 L678 673 L676 674 L674 679 L664 689 L663 688 L668 680 L672 670 L674 668 L672 665 L676 660 L680 653 L680 651 L673 660 L670 666 L671 669 L668 673 L664 682 L662 680 L658 684 L657 682 L660 677 L658 677 L652 687 L650 689 L649 688 L652 679 L654 677 L655 678 L654 675 L658 666 L660 664 L661 665 L660 671 L663 670 L666 667 L677 649 L688 638 L690 641 L686 646 L681 656 L683 657 L695 637 L700 633 L701 636 L696 643 L696 645 L698 643 L699 644 L698 649 L700 648 L700 646 L704 639 L712 630 L713 633 L710 638 L711 640 L707 647 L709 646 L719 634 L723 633 L724 636 L728 633 L731 634 L720 645 L715 655 L717 655 L719 651 L728 642 L741 634 L745 635 L738 638 L734 643 L736 643 L739 640 L746 637 L750 637 L751 638 L747 639 L741 643 L741 645 L742 644 L744 645 L737 651 L723 668 L722 666 L728 658 L729 652 L716 665 L715 661 L717 658 L716 657 L713 662 L712 659 L711 659 L705 669 L697 678 L706 677 L712 672 L715 675 L718 673 L721 673 L723 671 L727 671 L731 667 L732 669 L734 669 L736 667 L739 667 L743 664 L745 665 L744 666 L747 666 L758 663 L759 664 L761 662 L771 663 L773 658 L775 659 L776 658 L779 660 L789 662 L788 660 L790 659 L794 662 L796 661 L801 665 L804 663 L809 664 Z M276 663 L279 662 L280 664 L282 664 L285 661 L288 663 L294 659 L295 661 L300 658 L302 662 L309 659 L314 659 L315 661 L321 661 L323 663 L331 663 L339 665 L343 664 L346 667 L351 669 L353 667 L358 669 L359 667 L364 672 L370 674 L373 670 L380 677 L383 676 L385 678 L387 678 L389 675 L396 682 L402 683 L408 689 L409 689 L409 686 L411 685 L419 692 L421 692 L420 690 L421 688 L429 697 L432 698 L435 701 L437 700 L436 698 L439 697 L447 708 L449 706 L455 713 L458 710 L464 718 L465 715 L469 721 L470 720 L468 715 L471 714 L476 726 L478 726 L479 724 L483 728 L485 734 L486 734 L486 730 L487 729 L490 737 L493 738 L496 741 L496 743 L499 744 L500 747 L502 746 L497 728 L491 717 L491 715 L489 713 L488 715 L485 708 L480 701 L479 701 L478 704 L472 692 L470 692 L469 694 L466 688 L463 688 L456 679 L454 680 L450 675 L449 675 L448 678 L439 666 L438 666 L437 669 L435 665 L433 667 L424 655 L422 658 L418 652 L416 654 L409 647 L407 642 L405 642 L404 644 L398 637 L396 638 L391 632 L390 632 L389 635 L378 624 L375 624 L370 620 L368 620 L368 622 L372 625 L369 628 L365 623 L359 621 L360 622 L359 623 L353 624 L352 627 L347 625 L341 629 L337 629 L334 631 L329 631 L321 636 L318 636 L315 638 L310 638 L308 641 L306 640 L289 648 L287 647 L279 654 Z M847 605 L848 604 L849 605 L848 606 Z M809 629 L793 618 L771 608 L747 600 L731 596 L712 593 L711 592 L685 589 L684 588 L655 586 L654 585 L641 585 L640 584 L608 583 L607 582 L581 582 L580 581 L558 581 L557 580 L531 580 L530 581 L504 581 L503 582 L480 582 L479 583 L464 583 L463 584 L428 585 L427 586 L416 586 L415 587 L389 589 L388 590 L376 591 L365 594 L360 594 L355 596 L339 599 L326 604 L323 604 L303 613 L301 613 L286 621 L273 631 L266 638 L258 650 L252 665 L251 674 L250 675 L250 683 L249 684 L249 702 L248 703 L248 759 L249 760 L248 762 L249 763 L249 790 L250 791 L251 832 L252 833 L252 849 L253 850 L253 867 L254 868 L254 880 L255 881 L256 909 L257 910 L258 933 L259 934 L259 944 L260 945 L260 954 L261 955 L265 1004 L266 1005 L267 1021 L268 1022 L268 1029 L269 1030 L269 1037 L270 1038 L270 1046 L271 1047 L274 1074 L276 1081 L276 1087 L278 1093 L282 1120 L284 1125 L284 1129 L290 1153 L301 1188 L303 1191 L307 1204 L310 1209 L311 1214 L322 1237 L330 1250 L329 1246 L316 1222 L316 1220 L306 1198 L294 1162 L289 1140 L287 1136 L287 1132 L281 1106 L277 1077 L276 1076 L276 1070 L275 1069 L275 1063 L274 1062 L274 1056 L272 1048 L272 1041 L271 1040 L268 1007 L267 1006 L267 997 L266 996 L265 977 L264 976 L264 967 L263 966 L262 947 L261 946 L261 936 L260 935 L258 899 L257 898 L256 866 L255 865 L254 835 L253 834 L253 815 L252 814 L252 793 L251 792 L251 765 L250 764 L250 695 L251 694 L251 680 L252 679 L252 673 L255 660 L265 642 L278 629 L293 619 L317 608 L354 597 L358 597 L374 593 L380 593 L381 592 L401 590 L402 589 L411 589 L412 588 L438 587 L439 586 L457 586 L458 585 L475 585 L476 584 L497 584 L498 583 L531 583 L532 582 L588 583 L589 584 L609 584 L610 585 L628 585 L629 586 L657 587 L658 588 L668 588 L669 589 L678 589 L679 590 L701 592 L702 593 L707 593 L708 594 L732 598 L769 609 L795 621 L805 628 L818 641 L827 655 L824 647 L820 641 Z M320 588 L356 579 L376 576 L382 574 L388 574 L394 572 L417 570 L418 569 L428 569 L429 568 L440 568 L441 567 L455 567 L456 566 L504 565 L505 564 L507 565 L510 564 L576 564 L577 565 L624 566 L625 567 L638 567 L639 568 L670 570 L671 571 L699 574 L700 575 L705 575 L706 576 L711 576 L712 577 L717 577 L732 581 L736 581 L760 587 L767 590 L770 590 L792 598 L805 605 L807 605 L826 617 L840 631 L847 643 L850 655 L850 692 L849 693 L850 696 L849 697 L849 718 L848 719 L849 722 L848 723 L846 796 L845 797 L845 812 L844 813 L841 850 L840 851 L839 869 L838 870 L838 879 L837 880 L836 911 L835 912 L835 925 L834 926 L834 937 L833 938 L831 975 L830 976 L829 995 L828 996 L825 1031 L824 1032 L823 1047 L821 1055 L821 1063 L819 1071 L818 1085 L817 1086 L817 1091 L816 1092 L816 1097 L815 1098 L815 1103 L813 1109 L811 1124 L809 1129 L809 1133 L805 1149 L800 1163 L800 1166 L785 1207 L772 1234 L754 1265 L740 1286 L718 1315 L704 1331 L683 1352 L669 1364 L638 1385 L612 1397 L591 1403 L574 1405 L573 1406 L564 1406 L563 1407 L526 1407 L525 1406 L515 1406 L514 1405 L508 1405 L507 1404 L502 1404 L492 1401 L488 1401 L469 1395 L451 1387 L426 1372 L402 1353 L374 1325 L344 1287 L328 1263 L308 1228 L298 1207 L286 1177 L278 1152 L271 1124 L271 1120 L266 1099 L266 1094 L264 1088 L261 1064 L260 1063 L259 1049 L258 1048 L257 1034 L256 1033 L256 1026 L255 1025 L254 1009 L253 1008 L251 982 L250 981 L249 962 L248 961 L246 928 L245 927 L245 914 L244 913 L244 899 L243 898 L242 880 L241 879 L241 860 L240 859 L240 855 L240 868 L239 869 L238 868 L238 862 L237 861 L237 855 L235 847 L235 839 L234 838 L233 813 L232 812 L233 701 L234 700 L233 697 L233 658 L234 657 L235 649 L240 637 L244 631 L257 618 L265 612 L287 600 Z M556 542 L557 541 L558 542 L557 543 Z M554 541 L555 540 L556 541 L555 542 Z M535 542 L536 539 L537 541 L540 539 L541 540 L538 543 Z M229 622 L232 615 L241 603 L262 586 L290 572 L295 571 L314 563 L317 563 L342 555 L347 555 L357 552 L367 551 L379 548 L393 547 L394 546 L415 544 L416 543 L426 543 L427 542 L437 542 L438 541 L453 541 L454 540 L518 539 L529 551 L542 556 L552 556 L565 551 L572 545 L576 539 L583 539 L584 540 L616 540 L617 541 L649 542 L650 543 L661 543 L669 545 L699 548 L700 549 L705 549 L711 551 L731 554 L736 556 L742 556 L780 568 L783 570 L796 574 L810 581 L812 581 L834 595 L849 611 L855 622 L855 630 L854 631 L854 643 L852 650 L849 640 L841 627 L833 618 L819 608 L798 597 L783 591 L761 584 L737 578 L733 578 L712 573 L701 572 L700 571 L686 570 L685 569 L671 568 L670 567 L662 567 L661 566 L627 564 L626 563 L575 562 L574 561 L509 561 L508 562 L476 562 L475 563 L455 563 L454 564 L427 565 L426 566 L409 567 L408 568 L401 568 L394 570 L376 572 L375 573 L355 576 L350 578 L346 578 L326 583 L293 594 L270 605 L254 616 L243 627 L237 636 L232 649 L230 646 Z M553 539 L554 538 L555 539 L554 540 Z M552 535 L553 534 L554 536 L553 537 Z M530 531 L531 530 L532 531 L531 532 Z M855 529 L856 530 L856 595 L855 596 L855 615 L854 616 L850 609 L850 603 L851 602 L851 572 L852 571 L853 534 Z M533 529 L534 528 L538 529 L537 530 Z M531 529 L532 528 L534 530 L532 531 Z M228 526 L231 533 L232 587 L233 588 L233 607 L234 608 L229 617 L228 616 L228 575 L227 574 L227 527 Z M527 522 L530 519 L534 519 L541 526 L540 527 L536 525 L532 525 L529 527 Z M567 521 L565 526 L563 525 L558 525 L554 527 L553 526 L559 519 L564 518 Z M839 514 L846 523 L850 535 L849 603 L847 605 L839 596 L838 593 L838 515 Z M245 514 L246 515 L246 537 L245 538 L246 539 L245 540 L246 594 L236 605 L235 604 L235 588 L234 587 L235 584 L234 583 L234 542 L233 541 L234 540 L235 529 L238 523 Z M548 509 L552 512 L551 513 L552 512 L553 513 L553 521 L548 532 L546 530 L542 520 L542 514 Z M832 504 L837 510 L836 512 L836 574 L835 575 L836 578 L835 580 L836 592 L835 593 L827 587 L830 582 L830 575 L831 574 L831 533 L832 532 L832 510 L831 509 L831 505 Z M252 504 L253 505 L252 563 L253 564 L253 581 L256 588 L248 594 L247 593 L248 592 L248 564 L247 563 L248 509 Z M252 504 L253 503 L254 504 L253 505 Z M546 503 L549 502 L551 506 L547 508 L546 507 Z M549 498 L547 498 L544 503 L544 508 L540 512 L540 519 L539 520 L534 516 L531 516 L525 520 L525 525 L528 530 L524 535 L526 538 L529 538 L528 535 L529 531 L531 532 L530 533 L533 533 L537 531 L541 531 L542 532 L541 534 L537 535 L533 539 L533 545 L534 546 L540 544 L548 534 L550 536 L552 542 L556 546 L558 546 L560 544 L560 540 L557 538 L556 534 L553 531 L554 530 L560 531 L564 535 L564 537 L568 536 L568 532 L567 531 L565 533 L557 528 L558 527 L562 527 L564 529 L567 529 L570 524 L570 521 L565 516 L560 516 L557 518 L556 517 L555 511 L553 509 L553 505 Z M541 491 L554 491 L564 495 L573 504 L577 513 L578 523 L577 524 L577 529 L573 538 L564 548 L552 553 L541 553 L530 548 L523 541 L519 533 L517 525 L518 514 L524 502 L532 495 Z M432 482 L433 486 L432 497 L426 503 L409 506 L408 507 L385 510 L379 512 L364 513 L360 510 L359 507 L360 495 L362 491 L365 489 L406 483 L423 479 L429 479 Z M652 482 L657 478 L658 479 L670 480 L681 483 L686 483 L692 485 L704 486 L705 487 L719 489 L724 495 L724 508 L723 511 L719 513 L716 512 L715 513 L713 512 L705 512 L704 511 L676 507 L659 503 L652 496 L652 492 L651 491 Z M650 482 L649 485 L650 496 L651 499 L656 504 L666 507 L693 511 L705 514 L722 514 L725 512 L726 509 L726 498 L725 497 L725 493 L721 488 L710 485 L686 482 L685 481 L665 478 L664 477 L654 477 Z M433 480 L429 477 L424 477 L423 478 L412 479 L406 481 L365 487 L359 492 L358 495 L358 504 L357 505 L358 510 L360 513 L365 515 L366 514 L378 514 L379 513 L408 509 L409 508 L419 507 L423 505 L426 505 L431 502 L434 497 L434 483 Z M747 470 L747 499 L749 499 L748 470 Z M755 465 L772 470 L799 482 L820 495 L829 503 L830 505 L830 515 L829 516 L829 568 L828 569 L828 582 L825 586 L805 575 L790 569 L776 565 L773 563 L770 563 L767 561 L759 559 L755 556 L755 551 L756 550 L756 484 L755 483 L755 467 L754 466 Z M329 464 L330 465 L330 471 L329 472 L329 498 L328 499 L328 550 L329 551 L329 555 L327 557 L310 562 L307 564 L284 572 L258 586 L255 579 L255 554 L254 553 L254 548 L255 547 L255 542 L254 541 L254 533 L255 532 L255 504 L264 495 L276 487 L296 477 Z M738 459 L744 460 L753 464 L752 466 L752 470 L753 471 L753 556 L754 557 L753 558 L740 555 L738 553 L739 551 L739 544 L740 543 L739 539 L740 538 L739 535 L740 534 L739 479 L738 478 L738 463 L737 462 Z M349 458 L350 459 L347 464 L346 499 L345 500 L345 526 L344 527 L344 548 L346 552 L344 554 L331 557 L330 556 L331 555 L331 492 L332 491 L332 464 L331 463 L335 461 Z M796 456 L797 455 L798 456 L797 457 Z M639 443 L640 444 L656 445 L657 446 L663 446 L664 447 L670 447 L677 449 L684 449 L696 452 L701 452 L725 458 L729 458 L735 461 L736 463 L736 490 L737 491 L736 492 L737 493 L737 550 L735 553 L724 550 L719 550 L713 548 L695 546 L688 544 L666 542 L665 541 L644 540 L643 539 L639 539 L637 537 L637 531 L638 530 L637 526 L637 449 Z M446 443 L448 445 L448 452 L447 453 L446 537 L444 539 L423 540 L422 541 L404 542 L403 543 L396 543 L389 545 L376 546 L375 547 L370 547 L349 552 L347 549 L347 511 L348 510 L348 489 L349 488 L349 465 L350 461 L353 458 L367 456 L372 454 L377 454 L378 453 L399 450 L411 447 L436 445 L437 444 Z M626 441 L633 441 L637 443 L635 448 L635 537 L636 538 L635 540 L625 539 L624 538 L626 534 L626 443 L625 442 Z M462 443 L468 441 L510 440 L511 439 L573 439 L574 440 L599 440 L600 441 L623 442 L624 443 L624 449 L623 450 L623 537 L622 538 L578 537 L577 536 L579 533 L581 525 L581 517 L579 509 L576 503 L565 492 L559 489 L545 487 L537 489 L531 492 L519 504 L514 519 L514 526 L516 534 L518 536 L517 537 L471 537 L470 538 L462 538 L460 536 L460 495 L461 494 Z M230 521 L234 509 L241 495 L262 474 L297 453 L336 438 L339 438 L346 435 L349 435 L353 433 L369 429 L373 429 L389 425 L395 425 L408 422 L422 421 L423 420 L437 419 L438 418 L460 417 L461 416 L476 416 L477 415 L494 415 L495 414 L558 413 L559 414 L588 414 L589 415 L623 416 L624 417 L635 417 L636 418 L653 419 L654 420 L661 420 L662 421 L670 421 L671 422 L688 424 L689 425 L708 428 L713 430 L717 430 L721 432 L736 435 L764 444 L786 454 L788 454 L790 456 L803 462 L828 479 L839 490 L846 500 L853 517 L854 528 L852 532 L846 519 L837 507 L819 491 L808 484 L784 472 L756 462 L724 454 L720 454 L699 449 L694 449 L688 447 L677 446 L676 445 L652 443 L651 442 L644 442 L643 441 L636 441 L635 440 L613 439 L612 438 L562 437 L561 436 L526 436 L525 437 L523 436 L522 437 L496 437 L495 438 L479 438 L478 439 L463 439 L462 440 L460 439 L459 441 L461 442 L459 448 L459 471 L458 472 L458 536 L459 537 L458 539 L448 539 L447 538 L448 537 L448 525 L449 524 L449 481 L450 480 L450 447 L449 443 L452 441 L456 441 L456 440 L429 442 L428 443 L420 443 L419 444 L400 446 L394 448 L389 448 L388 449 L344 457 L333 460 L330 462 L327 462 L324 464 L296 474 L276 484 L265 491 L247 507 L237 521 L233 530 L231 529 Z M849 370 L850 371 L850 402 L849 403 L849 444 L848 445 L848 479 L847 480 L848 482 L847 483 L847 495 L846 496 L839 486 L822 471 L800 458 L799 454 L817 438 L830 420 L841 398 Z M235 370 L243 397 L255 422 L266 437 L275 446 L286 454 L286 456 L284 458 L271 465 L252 479 L245 486 L238 496 L236 490 L235 443 L234 442 L234 371 Z M724 342 L731 340 L739 340 L750 344 L763 356 L771 370 L775 384 L776 404 L777 405 L776 436 L775 440 L771 444 L749 436 L746 436 L735 432 L703 424 L702 420 L702 381 L703 379 L702 378 L703 377 L704 366 L706 360 L711 352 L717 346 Z M359 341 L367 345 L374 352 L381 365 L381 369 L382 370 L382 413 L381 414 L382 418 L381 419 L381 423 L378 425 L365 427 L353 430 L346 433 L343 433 L319 441 L313 444 L310 442 L309 439 L309 397 L310 396 L311 384 L316 368 L324 355 L336 344 L347 340 Z M705 328 L711 325 L725 321 L742 322 L758 329 L775 346 L782 360 L787 378 L788 393 L789 394 L789 426 L791 434 L778 447 L773 445 L776 442 L778 436 L778 422 L779 421 L778 418 L779 416 L779 402 L778 401 L778 389 L777 388 L776 378 L769 361 L762 351 L754 344 L744 339 L729 338 L723 340 L713 346 L708 352 L702 364 L701 378 L700 379 L700 417 L701 418 L701 423 L699 424 L688 421 L690 413 L689 398 L686 387 L682 379 L682 373 L687 352 L691 343 L696 336 Z M373 325 L381 330 L392 342 L397 351 L401 365 L402 378 L397 392 L397 396 L395 402 L395 417 L396 421 L384 424 L382 423 L383 422 L383 414 L384 413 L384 370 L383 369 L383 364 L379 355 L368 343 L360 339 L356 338 L342 339 L333 343 L322 354 L312 372 L308 387 L307 410 L306 411 L307 435 L310 444 L308 446 L305 445 L292 433 L295 426 L296 395 L297 394 L298 380 L301 368 L307 353 L315 341 L325 331 L335 325 L343 322 L349 322 L350 321 L359 321 Z M398 404 L399 403 L399 398 L401 390 L405 380 L415 366 L426 356 L435 351 L450 346 L454 346 L455 345 L476 346 L478 338 L485 325 L497 312 L504 307 L514 302 L527 298 L532 298 L533 297 L552 297 L553 298 L562 299 L573 303 L587 312 L595 320 L601 328 L607 340 L608 346 L632 345 L640 347 L653 353 L664 361 L672 369 L682 385 L686 398 L687 410 L686 411 L686 420 L685 421 L669 419 L668 418 L661 418 L660 417 L652 417 L651 416 L643 416 L642 415 L634 415 L633 414 L623 414 L622 413 L590 412 L589 411 L561 411 L560 410 L522 410 L521 411 L474 412 L473 413 L462 413 L461 414 L431 416 L430 417 L415 418 L414 419 L408 419 L407 420 L399 421 L398 420 Z M228 297 L229 298 L230 345 L232 353 L232 445 L233 446 L234 488 L235 489 L235 498 L236 499 L228 521 L227 520 L227 510 L226 509 L226 324 L227 323 L226 320 L227 319 L227 298 Z M856 293 L857 294 L857 325 L858 326 L857 518 L856 519 L851 505 L848 500 L849 482 L850 481 L851 409 L852 408 L851 357 L853 349 L854 316 L855 315 L855 294 Z M477 215 L504 197 L509 195 L514 191 L536 179 L543 174 L558 182 L607 213 L609 215 L608 332 L607 333 L604 327 L596 316 L586 307 L578 302 L559 295 L541 293 L540 294 L531 294 L530 295 L522 296 L503 304 L488 316 L481 325 L477 333 L476 332 Z M830 151 L835 167 L835 201 L836 202 L836 358 L835 359 L835 369 L834 370 L833 378 L834 378 L836 372 L837 360 L838 359 L838 317 L839 316 L839 248 L838 247 L838 181 L837 180 L837 176 L838 175 L853 190 L853 279 L852 280 L852 309 L851 310 L849 357 L848 358 L848 363 L847 364 L844 381 L837 401 L830 415 L816 435 L807 444 L804 444 L802 448 L798 452 L797 455 L795 456 L780 448 L806 422 L813 412 L822 396 L826 396 L824 391 L827 387 L826 382 L827 381 L827 371 L828 370 L828 344 L829 343 L829 152 Z M256 151 L257 152 L257 248 L256 249 L256 355 L257 356 L257 377 L258 378 L258 383 L263 393 L263 395 L270 409 L283 427 L299 443 L305 447 L289 455 L280 446 L281 445 L279 446 L266 433 L255 417 L249 405 L240 380 L240 376 L238 372 L238 368 L235 357 L235 351 L234 350 L233 322 L232 321 L232 298 L231 297 L231 194 L232 190 L247 175 L248 176 L247 359 L248 360 L248 367 L250 373 L252 375 L250 369 L250 351 L249 350 L250 199 L251 198 L251 167 Z M457 203 L458 202 L471 211 L469 208 L459 201 L462 198 L503 171 L543 148 L586 172 L623 197 L627 201 L616 209 L616 210 L619 209 L628 202 L629 203 L628 341 L627 342 L615 342 L614 343 L612 343 L610 341 L610 333 L609 332 L610 331 L610 279 L611 278 L611 215 L610 213 L564 183 L543 172 L493 201 L476 213 L475 215 L475 235 L474 236 L474 325 L475 326 L474 327 L474 342 L473 343 L457 342 L456 341 Z M787 102 L790 102 L813 122 L826 141 L826 151 L827 152 L827 306 L826 307 L826 365 L825 366 L825 378 L821 393 L814 404 L811 411 L803 422 L793 432 L791 429 L791 420 L792 419 L791 387 L790 386 L790 380 L787 367 L785 364 L786 272 L787 271 L787 106 L786 105 Z M301 101 L302 102 L302 106 L301 107 L301 196 L300 197 L300 350 L301 351 L301 363 L297 374 L296 382 L295 383 L295 390 L294 391 L293 429 L290 430 L284 424 L269 402 L261 384 L260 372 L259 371 L260 140 L267 128 L283 111 L295 102 Z M776 93 L787 100 L785 102 L785 242 L784 243 L785 246 L784 247 L784 303 L783 304 L783 354 L782 355 L773 340 L774 339 L774 329 L775 328 L775 279 L776 278 L776 193 L777 192 L777 108 L776 107 L776 97 L775 96 Z M774 93 L775 92 L776 93 L775 94 Z M312 91 L313 94 L312 95 L312 108 L311 109 L312 113 L311 114 L311 267 L310 268 L311 269 L310 271 L310 328 L311 329 L311 341 L312 343 L309 346 L304 355 L302 350 L302 235 L303 234 L303 125 L304 124 L304 120 L303 119 L303 99 L301 98 Z M312 91 L313 90 L314 91 L313 92 Z M713 61 L727 66 L757 81 L766 87 L772 93 L774 97 L774 112 L775 113 L775 187 L774 188 L774 260 L773 261 L774 270 L773 271 L773 313 L772 314 L772 332 L773 333 L773 337 L772 338 L758 326 L740 319 L729 318 L728 319 L722 319 L714 321 L709 324 L708 323 L708 66 L707 65 L709 62 Z M379 61 L380 62 L380 117 L379 118 L380 122 L379 123 L378 324 L377 325 L372 322 L362 319 L355 319 L354 318 L352 319 L345 319 L341 321 L338 321 L328 326 L313 340 L312 339 L312 333 L313 332 L312 328 L313 326 L312 324 L313 320 L312 292 L313 291 L313 132 L314 131 L314 95 L324 84 L341 74 L371 61 Z M695 55 L704 57 L708 60 L706 62 L706 72 L705 73 L706 75 L705 78 L706 80 L706 85 L705 86 L706 87 L706 325 L697 332 L696 331 L696 300 L697 299 L697 71 L696 70 L696 59 L694 56 Z M693 55 L694 54 L695 55 L694 56 Z M392 54 L393 55 L393 59 L392 60 L392 72 L391 73 L390 223 L389 224 L390 228 L389 231 L389 333 L388 334 L379 326 L380 324 L380 273 L381 272 L380 269 L381 268 L381 140 L382 139 L382 60 L380 59 L382 57 Z M628 37 L629 38 L636 38 L637 39 L651 41 L671 46 L675 48 L678 48 L686 52 L694 59 L694 77 L695 78 L695 296 L694 297 L694 335 L686 348 L682 362 L681 371 L679 374 L676 369 L660 354 L646 346 L633 343 L631 341 L631 321 L632 320 L632 200 L633 197 L630 198 L622 193 L617 188 L616 184 L616 178 L617 177 L617 153 L618 152 L620 41 L622 39 Z M462 37 L463 38 L467 38 L471 41 L472 186 L468 191 L457 198 L454 197 L453 198 L454 199 L453 342 L442 345 L430 350 L421 356 L410 367 L405 374 L403 370 L403 365 L399 350 L391 337 L392 145 L393 144 L394 58 L405 49 L427 43 L431 43 L436 41 L445 40 L446 39 Z M606 35 L614 35 L621 37 L618 40 L618 52 L617 53 L617 96 L616 97 L617 101 L616 102 L616 141 L615 142 L615 173 L614 174 L615 186 L614 187 L604 181 L601 178 L603 176 L604 172 L604 155 L605 154 L606 92 L607 91 L606 88 L607 87 L607 40 L608 39 L609 40 L612 39 L607 39 L605 36 Z M485 35 L486 36 L483 41 L483 114 L484 115 L484 166 L485 167 L485 177 L486 178 L475 186 L474 185 L474 124 L473 123 L474 121 L473 118 L473 94 L474 92 L473 91 L473 42 L472 41 L477 39 L477 38 L473 38 L472 39 L470 37 L475 35 Z M604 35 L605 34 L606 35 L605 36 Z M489 36 L495 33 L501 33 L502 32 L517 32 L518 31 L569 31 L570 32 L594 33 L598 34 L605 40 L602 171 L601 175 L599 177 L544 144 L522 156 L489 177 L487 175 L486 49 L485 48 L485 40 Z M526 27 L525 28 L494 29 L488 31 L480 31 L479 32 L471 32 L470 33 L459 33 L458 34 L453 34 L452 35 L447 35 L446 36 L427 39 L407 44 L397 49 L367 58 L332 74 L292 99 L282 107 L267 122 L257 137 L257 139 L253 146 L247 170 L229 188 L228 191 L228 219 L227 220 L228 223 L227 224 L227 289 L224 293 L224 301 L223 302 L222 450 L223 451 L224 592 L225 593 L226 641 L227 642 L227 649 L229 656 L230 703 L225 708 L222 709 L217 715 L216 719 L216 749 L217 750 L217 769 L218 773 L211 775 L207 780 L207 793 L208 794 L207 795 L208 796 L208 809 L209 811 L212 813 L220 815 L219 816 L220 817 L221 897 L222 898 L223 952 L224 953 L225 1001 L226 1002 L226 1025 L227 1026 L227 1049 L228 1050 L226 1121 L225 1122 L225 1169 L224 1170 L225 1172 L225 1196 L224 1197 L225 1198 L225 1232 L226 1233 L226 1257 L227 1258 L227 1270 L228 1271 L228 1281 L229 1282 L230 1297 L233 1310 L237 1319 L242 1324 L245 1325 L258 1325 L262 1324 L271 1315 L277 1299 L280 1282 L281 1281 L283 1259 L284 1258 L285 1233 L286 1232 L287 1216 L289 1209 L292 1204 L294 1206 L298 1216 L316 1250 L327 1268 L352 1304 L371 1327 L400 1356 L416 1369 L430 1379 L447 1389 L462 1396 L482 1403 L503 1407 L504 1408 L509 1408 L510 1409 L532 1410 L533 1411 L554 1411 L555 1410 L568 1410 L569 1409 L577 1409 L578 1408 L589 1407 L617 1399 L640 1388 L650 1382 L677 1362 L705 1335 L725 1312 L738 1295 L766 1252 L773 1238 L775 1236 L790 1204 L793 1208 L796 1218 L800 1274 L801 1275 L804 1295 L809 1310 L813 1317 L819 1323 L824 1325 L838 1325 L845 1319 L849 1310 L852 1297 L852 1290 L853 1289 L853 1282 L854 1281 L854 1271 L855 1270 L855 1259 L856 1258 L856 1240 L857 1239 L858 1143 L857 1142 L856 1079 L855 1078 L854 1056 L855 1055 L855 1034 L856 1033 L857 993 L858 992 L859 939 L860 938 L861 887 L862 886 L862 862 L863 861 L862 860 L862 856 L863 855 L863 826 L864 825 L863 824 L864 823 L864 815 L872 813 L875 810 L876 806 L876 778 L872 775 L865 773 L866 752 L867 751 L867 730 L868 729 L867 716 L863 710 L853 703 L854 657 L857 647 L858 614 L859 613 L860 483 L861 482 L861 304 L860 303 L860 293 L856 288 L856 189 L839 171 L833 147 L826 133 L817 121 L807 111 L790 97 L758 77 L734 65 L675 43 L659 39 L655 39 L650 37 L641 36 L640 35 L635 35 L628 33 L600 31 L599 30 L587 29 L586 28 Z" fill="#eef3f4" fill-rule="evenodd"/>
</svg>
