<svg xmlns="http://www.w3.org/2000/svg" width="1086" height="1448" viewBox="0 0 1086 1448">
  <title>0292</title>
  <path d="M621 1306 L622 1305 L624 1306 L623 1307 Z M350 1172 L351 1171 L352 1152 L355 1145 L364 1153 L381 1165 L406 1177 L420 1182 L440 1187 L456 1189 L457 1190 L463 1190 L464 1191 L480 1192 L481 1193 L506 1194 L507 1195 L524 1195 L525 1196 L561 1196 L562 1195 L577 1195 L578 1194 L614 1192 L615 1191 L623 1191 L624 1190 L644 1188 L661 1184 L684 1176 L704 1166 L717 1157 L722 1152 L724 1159 L725 1179 L710 1191 L686 1206 L666 1215 L633 1226 L621 1232 L610 1241 L601 1256 L599 1264 L599 1274 L601 1282 L608 1294 L616 1302 L621 1305 L620 1306 L612 1304 L600 1298 L577 1282 L565 1276 L550 1272 L537 1271 L536 1272 L523 1273 L514 1276 L502 1282 L483 1296 L470 1303 L461 1306 L446 1308 L445 1307 L446 1306 L448 1306 L455 1302 L463 1294 L469 1283 L472 1265 L469 1252 L463 1242 L453 1232 L447 1228 L431 1220 L408 1211 L386 1199 L363 1183 Z M505 1141 L506 1140 L509 1143 L515 1146 L519 1146 L520 1147 L531 1146 L539 1142 L541 1147 L541 1159 L542 1160 L541 1161 L506 1160 L505 1159 L507 1158 L507 1149 Z M356 1138 L358 1137 L366 1144 L386 1157 L402 1165 L426 1174 L457 1182 L481 1185 L482 1186 L501 1187 L502 1188 L515 1188 L516 1189 L570 1189 L571 1188 L596 1187 L597 1186 L604 1186 L605 1185 L612 1185 L613 1184 L631 1182 L659 1175 L684 1166 L702 1157 L720 1144 L722 1150 L714 1157 L689 1172 L665 1181 L662 1181 L646 1186 L626 1188 L618 1190 L581 1192 L580 1193 L522 1194 L521 1193 L504 1193 L503 1192 L469 1190 L468 1189 L448 1187 L447 1186 L426 1182 L403 1174 L383 1164 L362 1149 L355 1143 Z M623 1137 L623 1152 L624 1153 L620 1155 L612 1156 L611 1157 L605 1157 L604 1158 L598 1158 L597 1159 L584 1159 L583 1160 L574 1160 L573 1161 L543 1161 L542 1160 L544 1159 L542 1158 L542 1143 L543 1142 L551 1146 L565 1148 L575 1145 L582 1141 L583 1142 L582 1143 L582 1153 L580 1157 L581 1158 L583 1154 L586 1141 L593 1145 L606 1145 L616 1141 L622 1136 Z M462 1136 L464 1134 L473 1142 L481 1145 L491 1145 L501 1140 L503 1140 L504 1141 L506 1158 L505 1159 L497 1159 L496 1158 L482 1157 L481 1156 L476 1156 L475 1155 L470 1155 L462 1153 L460 1151 L461 1143 L462 1142 Z M673 1129 L674 1128 L675 1130 L674 1131 Z M404 1128 L405 1127 L406 1128 L405 1129 Z M403 1125 L404 1124 L405 1126 L404 1127 Z M336 1123 L337 1122 L338 1123 L337 1124 Z M402 1122 L403 1121 L404 1123 L403 1124 Z M739 1121 L740 1120 L741 1121 L740 1122 Z M358 1134 L375 1116 L394 1130 L424 1144 L445 1151 L461 1155 L475 1157 L476 1158 L488 1159 L489 1160 L506 1161 L507 1162 L519 1162 L520 1163 L538 1163 L539 1164 L585 1162 L586 1161 L610 1159 L611 1158 L626 1156 L635 1153 L639 1153 L646 1150 L653 1149 L667 1142 L669 1142 L671 1140 L681 1136 L691 1130 L702 1122 L705 1123 L720 1141 L702 1154 L691 1160 L689 1160 L678 1166 L667 1169 L664 1171 L643 1177 L623 1180 L622 1181 L617 1181 L616 1182 L591 1184 L590 1185 L560 1186 L559 1187 L528 1187 L527 1186 L510 1186 L509 1185 L496 1185 L495 1184 L478 1183 L477 1182 L455 1179 L431 1173 L411 1166 L384 1153 L370 1144 Z M335 1113 L336 1112 L337 1113 L336 1114 Z M691 1110 L701 1121 L691 1128 L675 1136 L674 1135 L678 1130 L686 1111 L688 1109 Z M424 1117 L426 1115 L446 1113 L460 1107 L468 1106 L476 1109 L485 1117 L498 1111 L509 1111 L518 1115 L524 1120 L526 1120 L530 1117 L538 1114 L552 1113 L560 1116 L567 1121 L569 1121 L576 1116 L588 1112 L597 1113 L607 1119 L615 1111 L622 1107 L636 1106 L643 1112 L644 1117 L646 1120 L652 1120 L653 1122 L643 1132 L632 1133 L624 1130 L615 1139 L606 1143 L596 1143 L592 1142 L585 1137 L582 1137 L576 1142 L569 1145 L555 1145 L546 1141 L543 1138 L540 1138 L536 1141 L528 1144 L518 1144 L509 1140 L504 1136 L493 1142 L482 1143 L470 1137 L466 1133 L464 1129 L451 1133 L439 1133 L432 1130 L426 1124 Z M625 1103 L626 1102 L627 1103 L626 1104 Z M388 1098 L391 1103 L398 1122 L404 1131 L403 1132 L388 1124 L376 1115 L378 1114 L383 1107 L384 1108 Z M624 1093 L624 1103 L613 1109 L606 1116 L603 1113 L596 1110 L589 1109 L581 1111 L580 1107 L583 1098 L580 1099 L578 1107 L578 1112 L572 1115 L569 1118 L567 1118 L564 1115 L558 1112 L544 1111 L543 1110 L543 1099 L544 1098 L587 1096 L588 1095 L619 1093 L620 1092 Z M742 1086 L743 1085 L744 1086 L743 1087 Z M666 1084 L668 1088 L670 1096 L670 1102 L671 1103 L671 1114 L670 1115 L667 1139 L661 1143 L651 1146 L648 1148 L625 1154 L624 1153 L625 1135 L628 1134 L632 1136 L639 1136 L646 1133 L653 1124 L654 1126 L656 1125 L656 1117 L660 1113 L660 1111 L659 1111 L654 1115 L649 1115 L648 1116 L645 1110 L640 1105 L634 1103 L627 1103 L626 1102 L626 1092 L627 1091 L639 1090 L640 1089 L644 1089 L658 1085 Z M537 1083 L538 1082 L546 1082 L547 1083 L546 1084 L538 1084 Z M407 1104 L408 1103 L409 1086 L411 1082 L415 1082 L436 1088 L447 1089 L450 1091 L451 1095 L451 1091 L454 1090 L461 1092 L493 1095 L494 1096 L527 1097 L528 1098 L541 1098 L542 1099 L542 1109 L540 1111 L534 1112 L529 1115 L525 1115 L524 1117 L520 1113 L507 1108 L499 1108 L489 1112 L488 1111 L490 1108 L492 1097 L490 1098 L490 1103 L485 1114 L479 1108 L470 1104 L460 1104 L451 1108 L450 1106 L452 1098 L449 1104 L447 1106 L445 1106 L446 1108 L444 1110 L430 1109 L425 1111 L421 1115 L417 1115 L418 1117 L421 1118 L425 1126 L433 1133 L439 1135 L453 1135 L460 1132 L461 1133 L461 1141 L460 1142 L460 1150 L459 1151 L455 1151 L443 1147 L440 1147 L415 1137 L411 1131 L409 1124 Z M552 1082 L553 1081 L556 1082 L555 1083 Z M521 1082 L522 1081 L528 1081 L529 1082 L528 1083 L522 1083 Z M516 1081 L517 1080 L520 1081 L519 1082 Z M677 1078 L678 1079 L678 1085 L677 1086 L677 1094 L676 1095 L676 1102 L675 1103 L675 1110 L674 1111 L673 1110 L672 1095 L669 1088 L669 1084 L674 1079 L675 1080 Z M435 1079 L436 1078 L440 1079 L439 1080 Z M413 1074 L414 1073 L415 1074 L414 1075 Z M400 1085 L400 1074 L401 1073 L404 1076 L403 1075 L404 1071 L421 1080 L423 1080 L415 1075 L418 1074 L425 1076 L432 1080 L442 1081 L443 1082 L448 1082 L447 1081 L443 1081 L442 1080 L443 1079 L449 1079 L450 1080 L480 1080 L481 1079 L493 1078 L503 1074 L512 1079 L515 1079 L516 1080 L513 1081 L517 1083 L525 1084 L526 1085 L553 1085 L554 1084 L558 1084 L564 1082 L567 1079 L579 1073 L582 1075 L597 1079 L624 1080 L625 1081 L626 1080 L648 1079 L649 1078 L654 1078 L670 1074 L674 1075 L668 1081 L643 1087 L619 1090 L618 1091 L600 1092 L599 1093 L574 1094 L573 1095 L555 1095 L554 1096 L528 1096 L527 1095 L492 1094 L491 1093 L476 1092 L475 1091 L469 1091 L462 1089 L444 1087 L429 1083 L420 1082 L415 1080 L408 1081 L406 1079 L407 1081 L407 1092 L406 1093 L406 1100 L404 1108 L403 1107 L402 1093 Z M757 1045 L758 1048 L745 1072 L744 1071 L744 1055 L743 1053 Z M757 1045 L758 1044 L759 1045 L758 1046 Z M322 1044 L323 1043 L324 1045 L323 1046 Z M328 1042 L334 1046 L333 1055 L332 1056 L327 1045 Z M321 1038 L323 1041 L322 1044 L320 1041 Z M319 1038 L320 1037 L321 1038 L320 1039 Z M775 1032 L776 1036 L767 1056 L753 1076 L744 1086 L743 1084 L759 1053 L763 1041 L764 1040 L765 1041 L769 1036 Z M775 1032 L776 1031 L777 1032 L776 1033 Z M307 1028 L316 1035 L317 1040 L322 1051 L328 1058 L330 1065 L333 1070 L333 1075 L332 1076 L321 1064 L315 1055 L309 1043 L306 1034 L306 1029 Z M716 1028 L717 1027 L718 1029 L717 1030 Z M717 1027 L718 1026 L719 1027 L718 1028 Z M718 1025 L719 1024 L720 1025 L719 1026 Z M719 1024 L720 1023 L721 1024 L720 1025 Z M357 1019 L400 1071 L398 1081 L399 1082 L400 1105 L403 1117 L403 1121 L402 1122 L397 1114 L376 1058 L356 1021 Z M355 1018 L356 1017 L357 1018 L356 1019 Z M354 1017 L355 1016 L356 1017 L355 1018 Z M735 1006 L737 1010 L738 1022 L739 1023 L739 1032 L740 1033 L741 1073 L740 1074 L740 1093 L739 1094 L739 1104 L738 1105 L736 1131 L735 1132 L734 1143 L732 1146 L731 1145 L730 1146 L730 1155 L729 1156 L729 1165 L728 1166 L726 1161 L725 1151 L722 1140 L714 1132 L709 1125 L689 1105 L690 1099 L694 1090 L695 1084 L697 1081 L697 1078 L704 1063 L704 1059 L707 1053 L696 1075 L680 1121 L675 1129 L674 1126 L675 1125 L677 1109 L678 1108 L679 1090 L680 1089 L680 1072 L696 1056 L716 1029 L717 1031 L710 1044 L709 1048 L711 1046 L733 1007 Z M285 1006 L291 1012 L294 1017 L304 1026 L304 1037 L312 1055 L321 1068 L334 1080 L334 1093 L335 1094 L335 1105 L336 1106 L336 1112 L335 1113 L313 1088 L305 1077 L293 1054 L285 1028 L285 1023 L284 1022 L284 1007 Z M344 1005 L351 1015 L359 1032 L363 1036 L363 1039 L375 1061 L376 1066 L385 1087 L385 1093 L383 1098 L383 1102 L378 1110 L357 1132 L352 1144 L352 1147 L350 1151 L350 1158 L349 1159 L348 1158 L347 1138 L346 1138 L345 1144 L344 1145 L343 1144 L341 1126 L340 1125 L339 1107 L338 1106 L337 1084 L336 1083 L336 1046 L337 1045 L338 1024 L339 1023 L339 1017 L340 1016 L341 1008 Z M791 991 L792 990 L793 992 L792 993 Z M713 989 L714 988 L716 989 L715 990 Z M362 989 L363 988 L366 989 L365 990 Z M791 987 L792 988 L791 991 L790 990 Z M516 986 L520 985 L560 985 L561 986 L569 986 L573 990 L574 1023 L575 1024 L577 1069 L578 1070 L576 1072 L567 1077 L559 1079 L552 1079 L551 1080 L522 1079 L511 1076 L504 1072 L505 1062 L506 1061 L506 1053 L507 1052 L507 1044 L508 1043 L508 1035 L509 1034 L509 1026 L510 1025 L512 990 Z M520 983 L521 982 L528 982 L529 983 L528 984 L521 984 Z M788 980 L791 985 L790 988 L787 983 Z M732 1002 L721 1016 L703 1043 L688 1061 L678 1071 L669 1072 L653 1076 L648 1076 L647 1077 L639 1077 L638 1078 L607 1078 L606 1077 L599 1077 L598 1076 L589 1075 L580 1071 L577 1018 L576 1017 L576 1002 L575 1001 L575 991 L576 990 L583 994 L597 998 L622 999 L623 998 L629 998 L637 996 L640 994 L645 993 L665 980 L670 978 L678 978 L695 985 L717 992 L728 998 Z M346 1002 L357 994 L359 994 L369 989 L380 988 L414 977 L420 978 L428 982 L436 988 L450 995 L461 998 L469 998 L470 999 L488 998 L502 994 L509 990 L510 991 L510 1000 L509 1001 L509 1011 L508 1012 L506 1041 L505 1042 L505 1050 L504 1051 L504 1059 L503 1060 L502 1071 L498 1074 L486 1077 L454 1078 L453 1077 L443 1077 L442 1076 L430 1075 L406 1069 L403 1070 L393 1060 L355 1011 Z M786 975 L788 978 L787 981 L785 978 Z M298 975 L299 977 L293 989 L288 996 L287 992 L291 981 L293 978 L295 978 Z M298 975 L299 974 L300 975 L299 976 Z M783 972 L784 973 L783 980 L785 986 L797 1006 L772 1028 L744 1047 L743 1046 L741 1017 L737 1004 L724 994 L715 990 L718 988 L742 987 L743 986 L755 985 L771 979 Z M304 972 L310 976 L325 983 L328 983 L332 985 L344 986 L354 989 L362 989 L363 990 L354 994 L340 1005 L336 1019 L335 1034 L332 1040 L304 1022 L285 1003 L293 994 Z M621 973 L607 980 L595 983 L575 984 L574 983 L569 983 L565 981 L574 978 L586 972 L594 971 L595 970 L614 971 Z M465 974 L467 972 L475 971 L476 970 L492 970 L493 971 L501 972 L517 980 L505 983 L494 983 L493 982 L487 982 L475 979 Z M491 967 L492 966 L494 967 L493 968 Z M288 965 L289 964 L291 965 L290 966 Z M813 963 L820 969 L824 977 L826 984 L826 991 L827 992 L827 1004 L826 1005 L824 1024 L820 1040 L813 1060 L798 1091 L779 1120 L750 1155 L731 1173 L730 1171 L734 1158 L734 1154 L737 1143 L737 1136 L753 1120 L766 1102 L739 1132 L738 1131 L738 1127 L761 1104 L777 1083 L789 1063 L799 1038 L804 1017 L804 1011 L805 1010 L805 994 L804 991 L803 991 L804 1005 L803 1006 L803 1011 L801 1016 L800 1025 L797 1037 L789 1058 L783 1070 L767 1093 L741 1121 L740 1120 L740 1113 L741 1112 L742 1092 L758 1073 L770 1055 L778 1037 L780 1027 L800 1008 L800 1005 L798 1002 L798 999 L795 993 L793 984 L787 971 L788 970 L794 970 L797 971 L802 976 L806 984 L809 995 L809 987 L802 972 L805 971 L805 970 L800 968 L792 968 L791 967 L804 962 Z M276 962 L285 962 L289 964 L287 965 L288 966 L283 970 L278 977 L274 988 L274 1008 L275 1009 L276 1018 L280 1027 L277 1015 L276 998 L275 997 L276 989 L279 980 L282 975 L287 970 L291 968 L297 968 L300 970 L290 980 L286 990 L285 998 L282 1006 L283 1029 L290 1052 L301 1074 L319 1099 L337 1118 L337 1122 L336 1123 L329 1116 L312 1095 L325 1114 L338 1128 L340 1141 L341 1142 L341 1148 L346 1165 L345 1167 L320 1139 L294 1102 L278 1072 L278 1070 L271 1055 L265 1037 L261 1016 L260 1015 L259 991 L260 990 L261 981 L265 971 L269 966 Z M288 961 L289 960 L290 961 L289 962 Z M285 960 L286 959 L288 960 L287 961 Z M605 957 L606 956 L607 957 L606 958 Z M478 954 L479 953 L480 954 L479 955 Z M623 951 L630 955 L632 958 L632 955 L630 953 Z M641 958 L641 964 L639 968 L636 971 L631 973 L628 973 L617 968 L596 967 L595 966 L605 959 L608 959 L608 957 L606 956 L609 952 L620 948 L630 948 L633 949 L640 955 Z M446 958 L447 955 L452 950 L460 947 L466 947 L475 950 L478 953 L477 954 L483 960 L492 966 L491 967 L478 967 L466 970 L461 970 L457 964 L457 957 L460 954 L468 953 L469 951 L463 951 L458 953 L455 957 L455 963 L460 970 L458 972 L456 972 L451 970 L447 966 Z M636 892 L637 891 L638 892 L637 893 Z M638 895 L647 903 L652 913 L654 921 L655 943 L654 944 L653 954 L650 961 L643 968 L642 967 L643 960 L639 951 L631 946 L621 945 L608 950 L586 968 L585 967 L587 965 L587 955 L589 949 L591 932 L596 914 L602 903 L611 894 L622 890 L630 891 Z M594 889 L595 888 L596 889 L595 890 Z M457 889 L458 888 L459 889 L458 890 Z M479 866 L480 865 L481 866 L480 867 Z M610 858 L611 857 L612 858 L611 859 Z M598 834 L604 844 L613 856 L609 858 L602 851 L597 838 Z M493 832 L494 831 L495 832 L494 833 Z M859 811 L860 810 L861 812 L860 813 Z M741 810 L742 809 L743 810 L742 811 Z M227 809 L228 810 L227 813 L226 812 Z M858 808 L859 807 L860 809 L859 810 Z M858 804 L859 805 L858 808 L857 807 Z M768 795 L769 794 L771 795 L770 796 Z M502 795 L503 794 L504 796 L503 797 Z M770 794 L771 793 L772 794 L771 795 Z M588 794 L589 793 L590 794 L589 795 Z M771 793 L772 792 L773 793 L772 794 Z M854 822 L855 838 L856 839 L854 860 L846 884 L834 903 L815 922 L788 944 L772 953 L757 957 L741 957 L740 956 L736 956 L719 948 L708 937 L700 923 L696 910 L689 898 L678 887 L669 881 L641 869 L637 869 L629 866 L613 866 L612 867 L609 866 L611 864 L613 864 L618 861 L629 858 L645 859 L661 864 L674 867 L679 867 L680 868 L694 868 L712 863 L720 859 L730 852 L757 824 L779 806 L797 796 L809 792 L824 791 L837 796 L847 806 Z M773 792 L774 791 L775 792 L774 793 Z M774 791 L775 790 L776 791 L775 792 Z M772 790 L773 789 L774 790 L773 791 Z M232 827 L233 826 L234 818 L238 808 L242 802 L248 796 L254 792 L263 789 L279 789 L299 795 L311 801 L323 809 L351 836 L362 849 L374 858 L384 863 L398 867 L414 867 L415 866 L421 866 L446 858 L461 857 L469 859 L480 865 L479 866 L476 865 L463 865 L450 868 L436 873 L419 881 L407 890 L400 898 L395 907 L392 917 L386 930 L382 936 L371 947 L365 951 L353 956 L349 956 L348 957 L331 957 L313 952 L298 943 L271 921 L251 900 L240 881 L234 864 L233 854 L232 853 Z M829 780 L839 786 L847 794 L853 803 L860 821 L862 829 L862 835 L863 836 L863 844 L864 845 L863 903 L862 904 L859 958 L858 959 L858 969 L857 970 L855 995 L854 996 L854 1002 L853 1003 L853 1008 L852 1009 L849 1026 L835 1069 L825 1091 L825 1093 L820 1102 L820 1104 L818 1106 L818 1108 L815 1112 L806 1131 L792 1155 L759 1204 L715 1258 L690 1283 L677 1293 L664 1301 L651 1306 L642 1307 L641 1308 L636 1308 L625 1305 L619 1302 L611 1295 L606 1288 L602 1279 L601 1264 L603 1256 L607 1248 L617 1237 L626 1231 L640 1225 L657 1220 L660 1218 L675 1213 L704 1197 L724 1182 L725 1184 L722 1192 L723 1196 L727 1180 L740 1168 L769 1136 L785 1115 L802 1088 L814 1063 L823 1037 L826 1025 L827 1014 L828 1013 L829 992 L828 991 L827 980 L823 970 L815 962 L810 960 L802 960 L793 963 L782 970 L766 978 L745 984 L726 983 L718 980 L715 980 L703 974 L696 969 L687 960 L680 950 L672 931 L668 913 L661 899 L643 880 L631 871 L629 871 L643 882 L657 896 L663 905 L668 918 L669 926 L673 940 L677 949 L684 960 L693 970 L701 976 L710 981 L722 985 L719 987 L705 986 L689 981 L678 976 L672 975 L665 978 L643 992 L624 997 L603 997 L602 996 L597 996 L586 993 L579 989 L577 989 L576 988 L577 987 L588 987 L589 986 L600 985 L612 981 L623 975 L633 975 L643 971 L652 962 L655 955 L656 947 L657 946 L658 932 L657 931 L657 923 L654 911 L646 896 L635 885 L625 879 L617 878 L616 879 L611 879 L604 882 L596 889 L595 886 L599 878 L603 874 L612 869 L616 868 L628 868 L653 875 L669 883 L678 889 L686 897 L694 910 L702 931 L708 940 L715 947 L722 952 L730 956 L742 959 L756 959 L774 954 L788 946 L820 920 L837 902 L849 882 L856 860 L856 854 L857 853 L857 827 L853 813 L850 807 L839 795 L829 790 L815 789 L814 790 L805 791 L788 798 L774 807 L763 816 L727 852 L718 858 L707 863 L695 866 L680 866 L679 865 L674 865 L662 862 L654 859 L655 858 L671 856 L684 851 L697 841 L702 834 L705 827 L709 829 L715 829 L716 828 L725 827 L730 824 L727 824 L719 827 L708 827 L706 825 L710 823 L721 821 L744 811 L742 809 L744 807 L764 795 L766 796 L768 795 L769 796 L753 808 L755 808 L762 804 L783 789 L804 780 L817 779 L818 778 Z M575 782 L579 786 L579 790 L580 791 L577 819 L576 820 L576 829 L575 830 L575 851 L574 852 L575 892 L576 893 L576 907 L577 911 L578 911 L578 902 L577 901 L577 884 L576 883 L576 853 L577 852 L578 824 L579 823 L579 815 L580 814 L580 807 L581 806 L582 791 L583 790 L590 803 L595 842 L600 852 L607 859 L611 861 L600 872 L593 885 L586 908 L585 918 L584 919 L584 930 L585 930 L586 918 L591 898 L600 887 L608 882 L616 880 L617 881 L622 881 L629 884 L637 891 L635 892 L627 889 L617 890 L606 896 L598 906 L593 918 L589 934 L587 952 L586 953 L586 966 L585 967 L586 968 L584 970 L573 975 L560 979 L556 979 L555 980 L531 980 L516 976 L501 969 L479 950 L464 944 L457 945 L451 948 L447 952 L445 956 L445 960 L444 961 L445 966 L444 967 L441 964 L442 963 L441 964 L439 962 L435 952 L434 931 L435 930 L436 919 L439 910 L444 901 L455 892 L464 889 L471 890 L478 893 L487 902 L495 920 L496 928 L497 929 L497 936 L498 937 L499 954 L500 955 L501 954 L500 952 L500 941 L499 940 L498 926 L494 912 L489 902 L484 896 L473 889 L470 888 L461 888 L459 889 L458 888 L464 883 L472 880 L482 881 L490 886 L493 889 L499 899 L502 910 L503 930 L505 930 L504 911 L503 910 L502 899 L498 887 L489 870 L482 863 L477 860 L481 857 L483 858 L481 857 L488 852 L494 843 L498 829 L499 817 L500 816 L502 802 L510 789 L511 790 L510 801 L511 802 L511 812 L512 813 L512 823 L513 824 L513 847 L514 848 L513 891 L512 892 L512 907 L511 908 L512 910 L513 908 L513 898 L514 897 L515 861 L516 860 L516 832 L515 831 L515 817 L514 816 L514 807 L513 806 L513 789 L514 786 L520 781 L536 775 L556 775 L557 776 L565 777 Z M775 789 L786 781 L802 773 L813 770 L826 770 L837 774 L843 778 L849 784 L855 794 L858 804 L857 805 L851 795 L840 784 L829 778 L821 776 L815 776 L814 777 L809 777 L792 782 L776 791 Z M777 751 L778 750 L779 752 L778 753 Z M778 749 L779 748 L780 750 L779 751 Z M488 738 L492 742 L492 745 L495 752 L496 760 L498 765 L498 770 L499 771 L499 798 L498 799 L497 813 L493 826 L484 841 L484 843 L493 833 L494 834 L491 844 L487 850 L480 855 L477 855 L474 857 L469 857 L461 854 L447 854 L446 853 L437 853 L436 852 L425 851 L409 844 L398 833 L395 826 L401 824 L412 823 L428 818 L440 812 L447 807 L459 795 L469 780 L472 773 L474 771 L477 761 L479 758 L481 749 L483 746 L483 741 L485 738 Z M609 737 L612 740 L612 746 L615 754 L617 766 L622 779 L631 795 L640 805 L652 814 L667 821 L679 824 L701 825 L702 826 L700 831 L695 838 L687 845 L678 850 L659 855 L649 855 L648 856 L647 855 L628 855 L620 858 L617 858 L611 852 L607 846 L604 837 L602 835 L598 826 L595 814 L594 799 L593 798 L594 768 L601 746 L603 742 Z M611 729 L612 733 L609 734 L608 733 Z M502 747 L510 738 L515 735 L528 730 L537 729 L538 728 L561 729 L579 735 L590 744 L594 752 L594 757 L590 770 L590 788 L589 789 L590 791 L588 794 L584 788 L577 781 L568 776 L558 773 L542 772 L541 773 L531 774 L519 779 L507 790 L504 795 L503 794 L502 766 L500 760 L500 754 Z M376 724 L377 723 L378 724 L377 725 Z M368 723 L372 723 L377 726 L383 732 L386 739 L386 745 L383 753 L378 758 L374 760 L366 760 L360 754 L357 747 L358 735 L360 731 Z M715 722 L720 722 L724 724 L728 728 L731 735 L731 746 L728 753 L722 759 L719 760 L711 758 L706 753 L703 746 L704 734 L706 730 Z M649 722 L646 725 L644 731 L645 731 Z M373 721 L383 718 L395 718 L407 722 L413 726 L419 732 L423 741 L424 750 L423 751 L423 755 L420 761 L415 767 L404 773 L393 774 L392 773 L382 772 L380 770 L374 768 L368 763 L380 759 L385 753 L388 745 L388 738 L383 727 L378 722 L376 722 L377 723 L374 724 L372 722 Z M714 719 L715 720 L710 723 L703 731 L701 737 L701 746 L705 755 L711 760 L718 763 L715 766 L707 770 L697 773 L687 773 L675 768 L668 761 L665 754 L665 749 L664 748 L667 737 L671 731 L679 724 L692 718 L705 717 L706 718 Z M366 723 L360 729 L357 734 L355 740 L355 747 L359 756 L371 768 L378 772 L387 775 L401 776 L413 771 L421 763 L425 755 L425 750 L426 749 L425 748 L425 741 L421 732 L412 723 L402 718 L392 717 L391 716 L376 718 Z M727 725 L716 718 L704 715 L693 716 L682 720 L671 728 L664 739 L663 754 L666 761 L673 769 L680 773 L687 775 L696 775 L715 768 L729 755 L733 747 L733 736 Z M494 733 L502 725 L518 717 L532 715 L533 714 L542 714 L543 713 L561 714 L576 718 L591 726 L595 730 L597 734 L598 744 L596 749 L592 742 L588 738 L576 731 L559 726 L543 725 L542 726 L535 726 L534 727 L526 728 L514 733 L503 741 L498 750 L494 739 Z M481 713 L482 714 L481 718 L480 717 Z M329 711 L341 702 L349 699 L359 698 L360 697 L380 698 L400 704 L408 708 L417 714 L428 725 L435 738 L438 750 L438 758 L435 769 L431 776 L417 789 L411 792 L397 796 L390 796 L389 797 L374 796 L363 793 L352 788 L343 782 L333 773 L327 765 L321 752 L320 743 L319 742 L320 728 L324 718 Z M757 706 L763 712 L768 721 L770 727 L770 744 L767 754 L762 764 L743 783 L735 788 L721 794 L713 796 L707 796 L706 797 L696 797 L695 796 L689 796 L678 793 L667 787 L659 779 L655 771 L652 761 L652 751 L653 750 L654 742 L663 725 L678 711 L695 702 L708 698 L720 697 L721 696 L729 696 L730 697 L741 698 L747 700 Z M328 709 L322 717 L317 730 L317 742 L318 743 L319 751 L324 763 L330 772 L342 784 L348 788 L360 794 L373 798 L380 798 L381 799 L397 798 L411 794 L419 790 L434 775 L440 759 L439 742 L433 728 L428 721 L421 714 L414 709 L396 700 L380 696 L375 696 L374 695 L358 695 L357 696 L348 697 L337 702 Z M285 695 L286 694 L287 695 L286 696 Z M765 711 L758 704 L750 699 L732 694 L722 694 L721 695 L707 696 L685 704 L674 711 L663 721 L654 736 L650 750 L650 760 L651 761 L652 769 L655 776 L660 783 L671 792 L684 797 L694 798 L695 799 L707 799 L708 798 L718 797 L732 792 L734 790 L741 787 L749 781 L758 772 L766 760 L771 748 L773 733 L770 720 Z M486 688 L487 687 L488 688 L487 689 Z M692 683 L681 688 L675 689 L664 696 L646 713 L640 722 L634 736 L632 744 L632 750 L631 751 L632 766 L635 776 L639 783 L634 766 L634 746 L638 732 L643 722 L651 711 L660 702 L677 690 Z M396 682 L406 686 L433 704 L443 714 L451 726 L456 738 L458 753 L457 754 L456 768 L453 777 L449 783 L449 785 L456 773 L460 756 L458 737 L451 721 L447 715 L429 698 L409 686 Z M306 683 L312 679 L318 679 L319 678 L366 681 L397 689 L418 699 L425 704 L442 721 L447 729 L449 737 L450 760 L447 771 L440 784 L432 792 L423 798 L410 803 L401 804 L400 805 L384 805 L383 804 L378 804 L362 800 L346 793 L334 785 L323 774 L315 760 L315 754 L314 753 L314 736 L315 735 L314 732 L312 734 L312 742 L311 743 L312 744 L312 749 L311 750 L312 753 L311 754 L309 752 L305 741 L301 724 L299 706 L300 705 L301 693 Z M734 675 L735 674 L741 674 L742 675 L741 676 L735 676 Z M744 674 L745 673 L750 673 L751 674 L750 675 L745 675 Z M750 673 L751 672 L760 672 L761 673 L760 674 L751 674 Z M773 675 L787 668 L788 670 L790 670 L793 678 L793 691 L792 692 L791 691 L790 687 L783 679 Z M820 652 L821 654 L808 680 L803 693 L802 692 L801 679 L797 674 Z M267 652 L289 677 L286 683 L286 692 L285 693 L280 683 L280 681 L266 654 Z M820 652 L821 651 L822 652 L821 653 Z M265 652 L266 651 L267 652 L266 653 Z M261 626 L262 625 L269 635 L282 649 L295 659 L315 669 L337 675 L336 676 L328 676 L327 675 L317 674 L297 666 L283 656 L275 648 L266 636 Z M834 610 L826 628 L820 637 L805 653 L781 669 L776 670 L773 672 L760 672 L759 671 L780 663 L792 656 L804 647 L820 630 L829 616 L831 611 L833 609 Z M833 608 L834 607 L835 609 L834 610 Z M834 606 L835 605 L836 607 L835 608 Z M862 592 L863 593 L863 600 L862 601 L861 600 L861 593 Z M245 590 L250 600 L250 602 L262 624 L261 626 L258 624 L267 640 L283 658 L299 669 L295 678 L273 657 L261 642 L255 630 L254 623 L247 607 L244 595 L244 591 Z M248 589 L249 588 L250 590 L249 591 Z M244 587 L245 588 L244 591 L243 590 Z M247 587 L248 586 L249 587 L248 588 Z M863 584 L864 585 L864 589 L863 590 L862 589 L862 585 Z M246 585 L247 584 L248 585 L247 586 Z M242 585 L243 584 L244 585 L243 586 Z M844 583 L845 584 L845 589 L843 594 L842 602 L829 637 L821 649 L794 673 L789 667 L798 661 L811 650 L819 641 L828 628 L836 610 L835 603 Z M844 582 L845 581 L846 583 L845 584 Z M906 565 L907 566 L906 570 L905 569 Z M223 564 L224 565 L224 573 L223 574 L222 573 L222 565 Z M900 546 L902 548 L903 552 L903 583 L902 584 L902 592 L901 593 L901 603 L900 604 L898 630 L896 637 L896 643 L895 644 L895 650 L892 663 L889 691 L888 692 L888 699 L887 700 L885 728 L884 729 L884 740 L883 741 L883 754 L882 755 L882 776 L881 777 L881 898 L882 899 L882 931 L881 932 L880 945 L876 956 L870 963 L867 965 L862 966 L861 965 L861 955 L862 954 L862 944 L863 943 L863 930 L864 929 L864 918 L865 917 L865 899 L866 898 L866 880 L867 879 L867 788 L866 787 L866 747 L865 746 L866 696 L867 695 L867 686 L868 685 L868 678 L869 677 L871 679 L871 685 L872 686 L872 697 L871 698 L871 790 L872 787 L872 767 L873 766 L874 685 L875 684 L875 673 L876 672 L876 664 L877 663 L880 625 L881 624 L883 604 L884 603 L884 598 L885 597 L885 592 L886 591 L886 586 L887 585 L889 572 L891 568 L894 555 L897 550 L897 548 Z M193 514 L203 513 L205 519 L206 536 L208 544 L209 561 L210 562 L210 570 L211 571 L211 579 L212 580 L214 613 L215 614 L215 628 L216 629 L216 642 L217 643 L217 656 L218 657 L218 667 L219 668 L220 698 L221 699 L221 713 L222 714 L221 785 L220 786 L220 886 L221 887 L221 903 L222 904 L222 917 L223 918 L223 929 L224 930 L224 942 L225 943 L226 960 L227 961 L228 958 L228 947 L227 946 L225 901 L224 900 L224 883 L223 882 L223 848 L224 847 L225 829 L229 813 L238 796 L246 787 L253 782 L264 778 L277 778 L287 781 L303 789 L324 804 L329 809 L352 822 L371 828 L387 828 L391 826 L400 841 L409 848 L428 855 L434 855 L442 857 L435 860 L432 860 L416 865 L398 865 L397 864 L389 863 L370 853 L359 843 L351 833 L330 812 L318 803 L304 795 L288 789 L280 788 L279 787 L263 787 L256 789 L247 794 L238 804 L234 812 L230 828 L230 851 L231 852 L231 858 L238 881 L248 899 L264 917 L282 931 L295 943 L316 955 L331 959 L347 959 L348 958 L356 957 L367 952 L375 946 L386 933 L391 924 L396 909 L404 896 L412 888 L419 883 L436 875 L458 868 L473 867 L483 870 L484 872 L488 874 L492 879 L496 887 L495 890 L488 882 L478 878 L467 879 L454 887 L444 897 L438 906 L433 920 L431 941 L432 942 L432 951 L435 960 L444 970 L452 974 L459 974 L470 980 L486 985 L493 985 L494 986 L510 985 L511 986 L504 991 L488 996 L483 996 L482 997 L461 996 L450 993 L436 986 L427 979 L417 975 L409 976 L384 985 L373 986 L372 987 L367 987 L366 986 L368 984 L373 983 L388 975 L403 961 L414 942 L423 912 L431 897 L442 885 L453 876 L461 872 L446 880 L430 896 L422 910 L415 934 L410 943 L409 947 L397 964 L383 975 L373 980 L363 983 L358 983 L357 984 L336 983 L325 980 L308 972 L295 962 L283 955 L286 959 L285 960 L276 960 L270 963 L265 968 L261 975 L257 991 L257 1005 L258 1006 L259 1021 L264 1041 L271 1061 L285 1091 L302 1118 L319 1141 L329 1153 L348 1172 L349 1176 L352 1175 L363 1185 L393 1205 L413 1215 L436 1224 L447 1230 L454 1235 L461 1242 L465 1248 L469 1258 L469 1263 L470 1264 L470 1271 L467 1283 L463 1291 L459 1296 L452 1302 L444 1306 L434 1307 L424 1304 L409 1296 L397 1287 L365 1255 L342 1227 L333 1214 L328 1209 L322 1199 L317 1195 L313 1186 L304 1174 L301 1167 L280 1132 L268 1108 L257 1080 L254 1075 L241 1037 L236 1017 L234 1002 L233 1001 L233 995 L232 994 L232 988 L231 987 L229 965 L228 965 L226 969 L217 966 L211 960 L207 951 L206 940 L205 939 L205 903 L206 902 L206 868 L207 867 L207 782 L206 781 L206 754 L205 753 L205 738 L204 737 L204 724 L203 723 L201 691 L200 690 L198 665 L197 664 L195 640 L194 639 L194 632 L193 631 L191 598 L190 597 L190 585 L189 584 L189 553 L190 549 L192 547 L196 550 L199 560 L199 564 L201 569 L203 584 L205 590 L205 597 L206 598 L206 604 L207 605 L207 611 L209 619 L209 627 L210 628 L212 661 L213 662 L214 703 L215 704 L215 775 L216 778 L217 698 L216 697 L215 658 L214 657 L213 637 L212 636 L210 613 L208 606 L208 599 L206 593 L206 587 L205 586 L205 581 L204 580 L201 561 L199 557 L198 551 L195 546 L190 546 L188 549 L187 553 L187 572 L186 573 L185 572 L183 527 L186 518 Z M893 512 L905 516 L909 523 L908 561 L907 562 L905 559 L905 551 L902 545 L898 545 L893 553 L889 569 L887 573 L887 578 L883 594 L883 600 L882 601 L880 619 L879 620 L876 654 L875 655 L875 664 L874 665 L874 672 L872 679 L870 671 L871 640 L872 639 L873 611 L874 610 L874 599 L875 598 L875 588 L876 587 L877 567 L878 566 L879 548 L880 547 L880 539 L881 538 L881 529 L882 528 L882 522 L883 521 L884 513 L885 512 Z M258 480 L269 472 L281 469 L293 470 L305 474 L321 484 L343 503 L367 519 L386 528 L418 540 L435 549 L449 559 L469 580 L476 591 L486 614 L489 627 L489 634 L490 635 L490 660 L489 661 L489 668 L488 669 L487 679 L484 688 L482 690 L476 678 L470 669 L453 651 L430 636 L407 627 L390 624 L389 623 L375 622 L374 621 L362 621 L361 620 L331 619 L330 618 L325 618 L312 615 L291 606 L272 592 L264 583 L254 567 L254 565 L248 553 L245 541 L245 536 L244 535 L244 512 L247 499 L252 488 Z M833 481 L840 494 L844 509 L844 522 L845 523 L844 524 L843 540 L840 548 L840 551 L831 570 L824 580 L809 595 L799 602 L783 610 L768 615 L753 617 L752 618 L745 618 L744 619 L728 619 L727 620 L717 620 L716 621 L702 622 L682 627 L665 635 L663 635 L644 647 L627 664 L620 674 L613 689 L611 691 L610 690 L607 680 L605 663 L604 662 L604 638 L605 637 L606 625 L610 610 L619 590 L629 575 L642 561 L653 552 L664 545 L684 535 L691 533 L711 523 L713 523 L724 517 L746 502 L772 480 L785 472 L797 468 L813 468 L823 472 Z M712 468 L711 468 L706 479 L691 500 L674 517 L651 534 L629 546 L608 554 L579 561 L562 562 L561 563 L532 563 L531 562 L523 562 L522 561 L516 561 L515 560 L501 558 L478 551 L450 538 L434 528 L420 517 L403 500 L395 490 L383 470 L383 472 L393 490 L406 506 L426 524 L447 538 L472 550 L496 558 L513 561 L514 562 L526 563 L527 564 L550 565 L551 564 L575 563 L576 562 L596 559 L621 551 L646 539 L667 525 L688 506 L705 484 L711 473 Z M377 461 L378 460 L379 461 L378 462 Z M367 459 L368 458 L369 459 L368 460 Z M365 458 L366 457 L367 458 L366 459 Z M723 457 L724 456 L725 457 L724 458 Z M717 457 L718 456 L719 457 L718 458 Z M363 457 L364 456 L365 457 L364 458 Z M725 456 L726 455 L727 456 L726 457 Z M726 455 L727 454 L729 455 L728 456 Z M389 422 L394 404 L401 390 L415 371 L433 355 L446 347 L458 342 L468 339 L472 339 L484 343 L501 345 L502 346 L510 346 L511 347 L522 347 L523 348 L566 348 L567 347 L590 346 L591 345 L609 343 L623 339 L629 339 L645 344 L660 352 L674 363 L686 376 L692 384 L701 401 L706 418 L707 439 L706 440 L706 446 L705 447 L704 455 L702 458 L699 468 L687 488 L667 510 L644 527 L620 539 L603 545 L587 549 L568 551 L567 552 L529 552 L528 551 L521 551 L509 548 L504 548 L475 539 L449 526 L426 509 L415 498 L407 488 L395 467 L389 447 L389 438 L388 437 Z M334 320 L335 319 L336 321 L335 322 Z M335 318 L336 317 L337 318 L336 319 Z M200 320 L202 317 L204 325 L206 356 L207 357 L208 374 L209 375 L209 382 L210 383 L210 390 L211 391 L211 398 L212 399 L212 408 L213 409 L213 416 L214 417 L214 432 L215 433 L215 493 L216 494 L216 504 L218 507 L220 578 L221 579 L222 595 L224 599 L224 605 L225 606 L225 626 L226 627 L226 685 L225 686 L225 693 L226 676 L227 675 L227 655 L228 654 L227 587 L226 586 L226 563 L225 562 L225 525 L226 524 L226 515 L227 514 L230 494 L239 473 L247 462 L262 449 L271 444 L293 438 L316 438 L317 439 L323 439 L336 442 L349 447 L361 453 L364 456 L361 457 L349 452 L323 446 L297 446 L296 447 L291 447 L275 452 L263 459 L255 466 L245 480 L238 497 L236 510 L235 511 L234 525 L233 526 L233 575 L234 576 L234 603 L235 604 L235 626 L236 627 L236 652 L235 653 L235 668 L234 669 L233 688 L232 689 L232 696 L231 697 L231 703 L230 704 L228 723 L227 724 L227 731 L226 732 L226 736 L228 731 L230 713 L232 707 L234 688 L235 687 L236 670 L237 669 L237 651 L238 650 L237 603 L236 602 L235 564 L234 563 L234 552 L235 551 L238 559 L237 562 L238 563 L238 570 L239 571 L239 580 L240 581 L242 597 L246 613 L254 635 L276 678 L276 680 L283 694 L288 710 L291 729 L298 749 L308 768 L320 785 L337 797 L356 806 L374 811 L401 812 L421 807 L429 803 L438 796 L433 798 L426 803 L408 809 L403 809 L402 810 L379 810 L378 809 L369 808 L354 803 L333 793 L329 790 L315 774 L307 762 L298 743 L293 726 L291 710 L290 709 L290 701 L288 696 L288 683 L291 678 L295 681 L294 682 L294 689 L293 690 L294 698 L296 683 L299 674 L303 671 L313 676 L312 678 L310 678 L305 682 L302 686 L298 696 L298 719 L299 720 L299 725 L303 741 L311 761 L323 778 L335 789 L342 794 L359 802 L377 807 L397 808 L398 807 L404 807 L405 806 L413 805 L430 797 L443 784 L451 767 L452 763 L452 742 L450 735 L445 724 L439 715 L426 702 L416 695 L404 689 L384 682 L376 680 L371 680 L370 679 L365 679 L364 678 L357 678 L356 677 L343 677 L342 676 L343 675 L354 675 L346 673 L338 673 L337 672 L328 671 L315 667 L304 662 L293 655 L273 636 L265 625 L254 605 L254 603 L249 593 L250 590 L251 592 L250 587 L246 581 L245 576 L241 568 L242 566 L238 557 L237 549 L236 548 L236 542 L235 541 L235 524 L236 523 L237 510 L245 485 L252 472 L263 461 L282 451 L294 448 L301 448 L302 447 L324 448 L325 449 L330 449 L343 452 L368 461 L370 459 L381 466 L381 462 L377 449 L376 426 L377 425 L378 414 L382 401 L389 387 L401 371 L409 363 L422 354 L431 351 L433 352 L418 364 L409 374 L398 390 L392 403 L388 416 L387 427 L386 428 L386 442 L387 443 L388 454 L392 466 L399 480 L411 497 L427 513 L440 523 L467 538 L495 548 L507 551 L519 552 L520 553 L527 553 L528 554 L567 554 L568 553 L576 553 L577 552 L582 552 L583 551 L600 548 L623 540 L645 529 L666 514 L683 497 L695 480 L698 473 L700 471 L706 456 L708 448 L708 443 L709 442 L709 420 L703 400 L693 381 L686 372 L673 359 L664 352 L668 351 L679 356 L694 369 L706 385 L712 397 L718 416 L718 421 L719 422 L719 441 L718 442 L718 447 L715 459 L713 463 L715 463 L721 458 L724 459 L746 451 L758 448 L769 447 L770 446 L792 446 L793 447 L803 448 L818 454 L827 460 L835 468 L845 486 L851 508 L851 517 L852 518 L852 525 L853 526 L853 537 L852 538 L852 546 L849 559 L841 570 L840 573 L829 587 L810 604 L791 617 L770 627 L751 633 L709 640 L688 646 L669 654 L651 665 L643 671 L629 685 L623 693 L615 709 L614 715 L612 719 L611 727 L600 741 L599 740 L600 737 L596 729 L588 722 L572 715 L564 714 L563 713 L557 713 L556 712 L537 712 L536 713 L529 713 L528 714 L520 715 L509 719 L498 726 L494 730 L491 736 L490 735 L484 736 L483 734 L486 733 L486 732 L484 730 L484 723 L481 720 L481 718 L483 717 L483 702 L486 694 L493 687 L500 682 L510 677 L525 672 L539 671 L540 670 L563 671 L582 676 L597 684 L607 693 L611 702 L611 710 L610 711 L610 714 L611 714 L613 708 L613 701 L611 696 L620 677 L631 662 L639 654 L658 640 L672 633 L693 626 L708 624 L709 623 L755 620 L756 619 L769 617 L786 611 L810 598 L821 588 L833 571 L842 552 L842 549 L846 537 L847 512 L843 495 L837 483 L827 472 L814 466 L805 465 L804 466 L797 466 L787 469 L774 476 L748 498 L727 513 L705 525 L680 535 L664 543 L654 549 L641 559 L631 569 L620 584 L611 601 L606 615 L603 628 L603 633 L602 634 L602 643 L601 644 L602 666 L603 667 L605 681 L607 685 L606 688 L596 680 L586 675 L575 671 L562 668 L533 668 L532 669 L522 670 L510 674 L500 679 L488 688 L487 685 L491 671 L492 655 L493 654 L493 640 L492 639 L491 624 L485 604 L478 590 L468 575 L450 557 L437 548 L418 538 L390 528 L367 517 L346 503 L324 484 L311 475 L303 471 L288 467 L280 467 L279 468 L271 469 L260 475 L251 485 L244 501 L242 509 L242 515 L241 516 L241 527 L242 528 L242 537 L243 538 L244 547 L250 564 L265 589 L271 593 L279 601 L288 607 L300 613 L314 618 L318 618 L329 621 L336 621 L337 622 L372 623 L373 624 L381 624 L382 625 L394 626 L410 630 L435 641 L452 653 L467 668 L476 681 L481 694 L483 696 L481 701 L481 713 L480 714 L479 713 L479 710 L475 701 L464 685 L451 672 L429 657 L419 652 L397 644 L389 643 L379 640 L373 640 L372 639 L358 638 L357 637 L351 637 L350 636 L334 634 L307 625 L297 620 L282 610 L252 581 L255 586 L279 610 L297 622 L312 629 L331 635 L335 635 L346 638 L380 642 L401 647 L415 652 L431 660 L442 667 L451 674 L462 685 L472 699 L476 707 L480 721 L480 740 L479 741 L478 750 L472 767 L470 769 L470 771 L464 782 L457 792 L445 804 L433 812 L417 818 L412 818 L401 821 L387 822 L386 821 L380 821 L372 819 L369 817 L358 814 L351 810 L349 810 L340 804 L337 805 L334 803 L336 806 L355 816 L373 822 L389 824 L390 825 L389 826 L382 826 L381 827 L370 826 L352 820 L331 807 L306 787 L293 780 L273 775 L259 777 L245 785 L237 794 L228 810 L227 809 L227 804 L235 786 L244 777 L250 773 L261 769 L278 769 L291 773 L308 782 L331 798 L337 801 L338 800 L325 792 L322 789 L292 772 L277 767 L260 767 L247 772 L234 784 L228 795 L227 800 L225 803 L225 807 L224 808 L223 807 L225 742 L224 741 L222 674 L221 673 L221 660 L220 659 L220 646 L219 645 L216 590 L215 589 L213 560 L212 559 L210 534 L208 526 L208 517 L207 516 L206 502 L205 501 L204 481 L203 480 L202 454 L201 453 L201 436 L200 435 L200 415 L199 414 L198 333 L199 332 Z M897 316 L898 317 L899 329 L900 330 L900 354 L899 355 L898 382 L897 383 L896 402 L895 403 L892 438 L891 439 L889 461 L887 469 L884 501 L882 508 L882 516 L881 517 L879 538 L878 539 L878 545 L877 546 L877 552 L875 560 L875 569 L874 570 L874 579 L873 580 L873 589 L872 590 L872 601 L871 602 L871 613 L870 614 L870 627 L869 628 L867 674 L866 675 L866 685 L865 686 L865 694 L864 695 L863 744 L862 745 L861 743 L862 762 L863 763 L864 811 L863 812 L862 811 L862 807 L855 789 L844 776 L834 770 L826 768 L813 768 L797 773 L768 790 L762 795 L746 804 L738 810 L728 815 L714 820 L710 820 L709 821 L683 821 L663 816 L648 807 L637 797 L629 785 L621 767 L621 764 L617 753 L615 737 L614 736 L614 718 L616 714 L617 708 L625 693 L633 683 L647 670 L660 661 L677 652 L704 643 L708 643 L724 639 L729 639 L730 638 L735 638 L736 637 L757 633 L774 627 L789 620 L813 604 L830 589 L839 578 L846 565 L847 568 L845 571 L842 582 L829 611 L816 631 L798 649 L783 659 L768 666 L751 671 L734 673 L731 676 L729 675 L730 676 L729 677 L724 677 L719 679 L711 680 L690 687 L670 698 L653 714 L650 719 L666 704 L676 697 L685 692 L706 684 L723 680 L728 680 L729 679 L746 678 L747 677 L763 677 L764 676 L773 677 L782 680 L787 685 L790 693 L790 709 L789 710 L788 722 L781 747 L780 748 L779 747 L768 770 L757 782 L748 789 L727 800 L718 801 L714 803 L704 804 L703 805 L687 805 L671 801 L657 793 L650 786 L644 776 L640 762 L640 746 L641 745 L641 741 L640 740 L639 741 L638 755 L637 756 L639 770 L645 784 L655 795 L671 804 L688 808 L711 807 L729 802 L740 797 L755 787 L768 774 L777 761 L783 748 L789 729 L789 725 L791 719 L791 712 L792 711 L792 693 L794 692 L795 676 L796 675 L798 678 L797 679 L798 678 L800 682 L800 698 L799 699 L799 708 L798 709 L797 721 L791 742 L784 758 L777 769 L755 791 L734 803 L709 810 L685 810 L672 807 L655 799 L648 793 L654 799 L670 808 L687 812 L709 812 L710 811 L714 811 L737 804 L751 796 L762 788 L774 776 L784 762 L790 751 L796 734 L800 713 L801 712 L801 707 L810 681 L821 660 L825 649 L834 632 L842 610 L842 607 L847 591 L849 569 L850 568 L850 560 L852 554 L853 555 L853 575 L852 576 L851 610 L850 611 L850 664 L851 665 L851 678 L853 686 L854 700 L857 712 L857 717 L859 722 L859 716 L858 715 L858 709 L857 708 L856 695 L854 687 L853 663 L852 662 L852 617 L853 616 L854 577 L855 576 L855 524 L854 523 L853 508 L846 483 L841 473 L832 462 L821 454 L802 446 L797 446 L790 444 L773 444 L772 445 L765 445 L764 446 L759 446 L747 449 L731 455 L728 454 L730 452 L744 445 L759 440 L763 440 L774 437 L798 437 L814 441 L829 449 L842 461 L851 474 L858 492 L861 510 L862 511 L862 521 L863 522 L863 560 L862 561 L862 577 L861 578 L861 600 L862 601 L862 619 L861 620 L861 683 L862 686 L863 622 L864 621 L864 607 L865 606 L867 569 L868 568 L868 553 L869 552 L870 506 L873 497 L878 432 L879 431 L882 405 L883 404 L886 380 L888 373 L889 360 L891 353 L895 317 Z M206 311 L209 311 L215 314 L225 324 L243 346 L255 356 L269 364 L254 379 L242 396 L232 418 L223 451 L223 456 L221 462 L221 470 L220 471 L220 479 L219 480 L219 494 L218 495 L217 494 L217 473 L216 472 L216 462 L217 461 L216 423 L215 422 L215 412 L214 411 L214 403 L213 402 L213 394 L212 393 L212 385 L211 384 L210 367 L209 366 L208 349 L207 348 L207 339 L206 338 L205 317 L204 316 L204 313 Z M893 309 L895 311 L893 319 L889 355 L887 362 L885 382 L884 383 L883 395 L882 396 L880 414 L879 415 L879 421 L877 428 L877 437 L875 445 L874 467 L873 468 L872 493 L871 494 L870 493 L870 486 L869 485 L869 470 L868 469 L868 458 L867 457 L866 443 L858 412 L849 393 L842 382 L825 363 L835 358 L849 348 L880 315 L891 309 Z M653 236 L649 268 L648 269 L648 275 L647 276 L647 281 L646 282 L643 299 L636 319 L630 331 L625 338 L621 338 L605 342 L599 342 L598 343 L581 344 L580 345 L566 345 L565 346 L511 345 L510 344 L493 343 L492 342 L487 342 L474 339 L471 337 L464 324 L458 308 L452 282 L449 254 L448 253 L448 245 L447 244 L447 238 L448 237 L461 259 L468 268 L477 276 L490 283 L510 289 L522 290 L523 291 L566 292 L567 291 L576 291 L577 290 L589 289 L610 283 L618 279 L625 274 L634 265 L647 245 L652 235 Z M446 236 L447 235 L448 237 L447 238 Z M395 130 L396 129 L397 130 L396 131 Z M394 129 L395 128 L396 129 L395 130 Z M704 128 L705 127 L706 128 L705 129 Z M393 127 L394 126 L395 127 L394 128 Z M711 123 L719 123 L732 129 L740 138 L743 150 L745 200 L744 201 L744 210 L743 211 L740 241 L739 242 L738 265 L737 266 L736 296 L737 297 L737 319 L738 320 L738 355 L737 356 L736 367 L737 367 L739 359 L740 341 L741 340 L741 329 L740 328 L740 291 L739 290 L739 286 L740 285 L740 262 L741 261 L741 249 L742 248 L742 236 L743 235 L744 236 L744 264 L745 265 L747 282 L752 299 L759 316 L759 320 L764 336 L765 337 L764 329 L762 324 L763 320 L776 335 L788 343 L808 353 L817 359 L837 377 L843 387 L846 390 L853 404 L861 429 L863 444 L864 445 L864 452 L865 453 L866 479 L867 480 L867 526 L866 527 L865 526 L865 517 L864 516 L864 511 L863 510 L863 505 L860 492 L856 480 L851 470 L844 460 L833 449 L815 439 L805 436 L792 435 L791 434 L768 436 L742 444 L726 452 L719 457 L718 453 L721 441 L721 422 L720 421 L719 411 L711 390 L699 372 L687 360 L675 352 L662 348 L670 331 L678 302 L681 281 L682 280 L683 270 L686 258 L686 253 L687 252 L687 247 L688 246 L688 240 L689 239 L689 232 L690 231 L691 217 L692 216 L692 207 L693 206 L693 193 L692 201 L691 202 L691 208 L690 209 L689 223 L687 230 L687 236 L685 243 L685 249 L684 250 L681 272 L678 283 L678 288 L677 289 L677 293 L676 294 L676 298 L675 299 L671 320 L665 338 L658 349 L644 342 L635 340 L628 337 L634 328 L644 305 L649 284 L650 273 L651 272 L656 226 L658 224 L658 222 L660 220 L660 218 L672 194 L672 192 L677 183 L677 181 L692 149 L692 147 L700 132 L704 128 L705 130 L702 136 L697 154 L696 167 L695 168 L695 178 L694 179 L694 182 L695 182 L697 164 L698 163 L698 158 L701 145 L704 138 L704 135 Z M388 123 L391 125 L394 131 L399 146 L399 150 L402 161 L404 181 L405 182 L404 162 L403 161 L403 155 L402 154 L401 146 L396 133 L397 130 L405 142 L405 144 L409 151 L409 153 L412 158 L420 179 L425 188 L428 197 L441 224 L443 226 L444 237 L445 238 L447 266 L448 267 L450 285 L452 290 L452 295 L460 320 L466 332 L470 337 L467 339 L460 340 L449 344 L441 349 L439 349 L437 347 L431 329 L427 313 L427 309 L425 304 L422 285 L421 284 L421 279 L420 278 L419 267 L417 261 L417 255 L415 248 L415 242 L413 235 L413 229 L412 228 L412 222 L411 221 L411 215 L410 214 L410 208 L409 207 L409 201 L407 193 L406 196 L407 197 L410 231 L411 232 L412 246 L413 247 L413 253 L414 254 L417 277 L419 283 L419 288 L429 331 L436 348 L425 351 L410 360 L396 374 L387 387 L379 404 L375 419 L375 425 L374 426 L374 442 L375 443 L375 449 L378 460 L377 461 L370 456 L349 445 L323 437 L318 437 L317 436 L292 436 L273 441 L254 452 L246 460 L238 471 L232 483 L227 498 L224 518 L223 519 L223 527 L222 528 L221 527 L221 489 L222 488 L223 467 L224 466 L224 460 L225 459 L228 438 L232 426 L232 423 L238 407 L250 386 L262 373 L264 374 L265 371 L272 364 L287 354 L316 339 L334 321 L335 325 L331 335 L329 344 L324 354 L324 356 L317 370 L309 382 L309 384 L319 369 L330 347 L334 334 L336 331 L336 328 L340 316 L341 307 L347 291 L350 278 L351 262 L352 261 L352 241 L353 240 L354 241 L355 268 L356 269 L356 330 L355 331 L355 346 L356 347 L357 365 L358 368 L359 368 L358 342 L357 341 L358 340 L358 321 L359 320 L359 272 L358 271 L357 246 L356 245 L355 230 L353 222 L352 200 L351 199 L352 196 L353 157 L354 156 L354 149 L356 141 L358 137 L366 129 L376 124 Z M374 121 L360 129 L355 135 L351 145 L350 158 L349 159 L349 172 L348 173 L348 264 L347 265 L347 273 L346 274 L346 279 L342 295 L340 298 L339 303 L332 317 L326 325 L319 332 L308 340 L285 351 L271 361 L266 359 L254 351 L237 334 L228 322 L217 311 L208 307 L204 308 L199 313 L196 321 L195 333 L194 334 L194 384 L195 385 L195 406 L196 407 L196 430 L197 431 L198 464 L199 465 L199 476 L200 477 L201 498 L202 499 L203 509 L202 510 L191 511 L183 516 L180 523 L180 553 L181 554 L181 568 L182 569 L182 578 L183 579 L183 586 L185 594 L185 602 L186 603 L188 622 L189 623 L189 630 L190 631 L192 653 L193 654 L193 662 L194 663 L194 670 L195 671 L195 679 L196 680 L196 687 L197 688 L197 698 L198 699 L199 718 L200 719 L200 733 L201 734 L201 749 L202 750 L202 772 L203 773 L203 873 L202 874 L201 937 L202 938 L203 951 L207 961 L214 968 L219 971 L227 973 L228 992 L229 993 L232 1015 L239 1043 L247 1067 L259 1097 L264 1106 L264 1108 L287 1152 L319 1202 L342 1233 L369 1265 L385 1281 L399 1293 L414 1303 L435 1311 L454 1311 L455 1310 L463 1309 L478 1303 L488 1297 L504 1285 L521 1277 L530 1276 L531 1275 L548 1275 L549 1276 L554 1276 L572 1283 L590 1296 L610 1307 L624 1311 L645 1311 L646 1310 L650 1310 L659 1307 L676 1298 L687 1290 L705 1274 L721 1257 L746 1227 L767 1199 L792 1162 L794 1157 L808 1135 L824 1104 L824 1102 L831 1089 L839 1069 L840 1064 L842 1061 L854 1020 L854 1016 L857 1005 L861 971 L869 968 L877 961 L883 948 L884 938 L885 937 L885 923 L886 922 L886 914 L885 913 L885 862 L884 861 L884 809 L885 808 L885 769 L886 768 L887 737 L888 736 L888 725 L889 724 L889 716 L890 715 L890 707 L891 706 L891 698 L893 690 L894 675 L895 674 L896 661 L897 660 L900 635 L903 623 L903 617 L904 616 L908 584 L909 583 L909 575 L910 574 L911 557 L912 556 L912 541 L913 540 L913 530 L912 529 L911 518 L903 511 L895 509 L887 509 L886 508 L890 476 L891 475 L891 467 L892 466 L892 459 L893 458 L893 451 L894 450 L894 443 L895 442 L895 435 L896 434 L896 426 L897 425 L897 417 L898 416 L898 408 L899 407 L899 399 L900 398 L900 389 L901 388 L901 379 L902 378 L902 367 L903 366 L903 324 L902 323 L902 318 L899 310 L894 306 L889 306 L881 310 L865 325 L861 331 L847 345 L833 355 L823 360 L813 352 L785 337 L768 321 L763 314 L756 299 L750 279 L749 267 L748 266 L747 247 L748 246 L748 198 L749 197 L749 188 L748 187 L748 166 L747 165 L746 145 L742 134 L734 126 L724 121 L717 119 L708 120 L698 129 L691 141 L691 143 L681 163 L681 165 L673 181 L670 190 L645 241 L634 259 L622 272 L610 279 L590 285 L580 286 L579 287 L572 287 L571 288 L540 289 L539 288 L529 288 L528 287 L514 286 L492 280 L479 273 L468 262 L460 251 L441 216 L441 214 L424 179 L424 177 L408 142 L408 140 L403 131 L391 120 L387 119 Z" fill="#eef3f4" fill-rule="evenodd"/>
</svg>
