<svg xmlns="http://www.w3.org/2000/svg" width="1086" height="1448" viewBox="0 0 1086 1448">
  <title>0296</title>
  <path d="M567 1266 L568 1265 L569 1266 L568 1267 Z M630 1234 L613 1245 L597 1253 L595 1253 L599 1253 L611 1246 L613 1246 Z M607 1233 L608 1232 L609 1233 L608 1234 Z M608 1232 L609 1231 L610 1232 L609 1233 Z M610 1231 L611 1230 L612 1231 L611 1232 Z M460 1210 L462 1215 L469 1225 L475 1231 L485 1237 L485 1236 L477 1231 L470 1224 L461 1210 Z M631 1191 L629 1192 L626 1204 L624 1207 L626 1206 L625 1205 L628 1201 Z M451 1185 L455 1200 L459 1206 L453 1190 L453 1187 Z M576 1178 L575 1178 L576 1191 L574 1196 L575 1207 L573 1212 L573 1223 L574 1223 L575 1211 L576 1210 L576 1196 L577 1195 L577 1191 L576 1190 L577 1182 Z M446 1152 L447 1153 L447 1157 L446 1158 L445 1157 L445 1153 Z M708 1129 L693 1159 L674 1189 L655 1212 L635 1231 L646 1223 L673 1193 L694 1160 L707 1134 Z M496 1121 L502 1127 L518 1134 L531 1136 L532 1137 L539 1137 L540 1138 L553 1137 L554 1136 L571 1133 L582 1128 L587 1124 L569 1132 L561 1134 L541 1136 L540 1135 L529 1135 L528 1134 L520 1133 L506 1128 Z M502 1117 L503 1116 L507 1116 L508 1117 L517 1118 L535 1124 L540 1124 L542 1126 L544 1124 L551 1124 L560 1120 L564 1120 L569 1118 L573 1118 L579 1116 L583 1117 L577 1121 L567 1125 L559 1127 L553 1127 L552 1128 L544 1128 L543 1129 L542 1128 L541 1129 L540 1128 L530 1128 L529 1127 L521 1126 L508 1121 Z M582 1116 L583 1115 L585 1116 L584 1117 Z M500 1116 L501 1115 L503 1116 L502 1117 Z M499 1115 L500 1114 L501 1115 L500 1116 Z M615 1105 L612 1108 L609 1117 L602 1131 L596 1139 L588 1147 L575 1154 L559 1158 L550 1158 L549 1159 L545 1159 L544 1158 L540 1159 L526 1158 L507 1153 L494 1145 L486 1137 L480 1128 L481 1126 L479 1126 L475 1119 L478 1129 L484 1139 L494 1149 L502 1154 L515 1159 L523 1160 L524 1161 L555 1162 L556 1161 L567 1160 L576 1157 L586 1152 L593 1147 L603 1135 Z M602 1102 L603 1101 L604 1102 L603 1103 Z M479 1101 L480 1100 L481 1101 L480 1102 Z M575 1101 L567 1100 L563 1102 L560 1102 L555 1106 L549 1108 L545 1108 L544 1110 L550 1109 L563 1102 L574 1102 Z M720 1098 L719 1098 L717 1102 L715 1111 L719 1103 Z M642 1095 L641 1095 L641 1105 L642 1106 L641 1140 L640 1141 L640 1148 L638 1155 L637 1154 L637 1139 L636 1137 L636 1165 L632 1181 L634 1180 L640 1157 L641 1147 L642 1146 L642 1139 L643 1138 L644 1110 L643 1109 L643 1098 Z M474 1095 L475 1094 L476 1096 L475 1097 Z M471 1094 L472 1093 L473 1094 L472 1095 Z M473 1093 L474 1092 L475 1093 L474 1094 Z M625 1091 L626 1090 L627 1091 L626 1092 Z M458 1089 L459 1090 L458 1093 L457 1092 Z M456 1088 L457 1087 L458 1088 L457 1089 Z M627 1086 L628 1087 L627 1090 L626 1089 Z M636 1081 L637 1080 L638 1082 L637 1083 Z M446 1080 L447 1079 L448 1080 L447 1081 Z M760 1075 L761 1074 L764 1075 L763 1076 Z M365 1073 L368 1090 L370 1094 L371 1101 L374 1108 L377 1120 L387 1145 L400 1171 L408 1184 L422 1202 L435 1215 L445 1222 L442 1218 L431 1210 L418 1195 L407 1180 L398 1165 L381 1127 L372 1099 L366 1073 Z M634 1072 L635 1071 L636 1072 L635 1073 Z M762 1069 L763 1068 L764 1070 L763 1071 Z M319 1069 L320 1068 L322 1069 L321 1070 Z M763 1067 L764 1066 L765 1067 L764 1068 Z M523 1064 L524 1063 L525 1064 L524 1065 Z M766 1058 L767 1059 L766 1062 L765 1061 Z M525 1058 L526 1059 L525 1062 L524 1061 Z M560 1058 L560 1061 L559 1062 L557 1061 L557 1068 L559 1068 L559 1062 L560 1061 L561 1062 L562 1095 L564 1092 L564 1075 L563 1074 L563 1063 L562 1059 Z M559 1051 L560 1050 L562 1051 L561 1052 Z M561 1050 L562 1049 L563 1050 L562 1051 Z M599 1045 L602 1046 L603 1049 L602 1052 L598 1046 Z M599 1041 L600 1040 L602 1041 L601 1042 Z M600 1042 L597 1044 L594 1044 L592 1046 L598 1046 L602 1054 L602 1052 L603 1051 L604 1052 L607 1063 L608 1073 L609 1074 L609 1081 L610 1082 L609 1097 L607 1099 L595 1102 L577 1101 L577 1102 L580 1103 L598 1103 L599 1102 L603 1103 L593 1109 L578 1114 L565 1115 L548 1122 L538 1122 L529 1119 L524 1116 L508 1114 L492 1109 L480 1102 L484 1101 L489 1103 L492 1102 L493 1103 L505 1103 L506 1102 L514 1102 L516 1101 L524 1103 L535 1109 L541 1110 L540 1108 L534 1107 L523 1101 L513 1100 L512 1101 L504 1101 L503 1102 L490 1102 L482 1100 L477 1097 L477 1094 L474 1087 L474 1079 L475 1078 L477 1063 L484 1044 L492 1046 L494 1045 L506 1045 L513 1048 L525 1056 L523 1057 L522 1061 L521 1093 L523 1094 L523 1082 L525 1077 L525 1070 L527 1062 L527 1059 L525 1058 L526 1056 L538 1059 L555 1058 L561 1056 L577 1046 L583 1046 L584 1045 L588 1046 L590 1045 L590 1044 L585 1044 L584 1043 L585 1042 L593 1041 L594 1040 Z M519 1041 L521 1046 L525 1048 L521 1042 Z M484 1041 L485 1040 L490 1040 L491 1041 L496 1040 L500 1042 L498 1044 L494 1044 L493 1045 Z M598 1040 L599 1039 L600 1040 L599 1041 Z M469 1034 L467 1035 L456 1058 L454 1066 Z M570 1019 L569 1019 L568 1022 L568 1029 L570 1028 Z M465 1016 L464 1019 L465 1019 Z M569 1010 L568 1014 L570 1013 Z M311 1008 L312 1019 L313 1019 L312 1008 Z M520 1003 L519 1003 L518 1006 L518 1018 L519 1018 Z M567 995 L567 1000 L568 1004 L569 1004 L569 994 Z M591 989 L591 991 L598 992 L595 989 Z M567 983 L567 988 L568 988 L569 986 L568 983 Z M485 983 L486 982 L487 983 L486 984 Z M594 982 L595 981 L597 982 L596 983 Z M488 981 L495 981 L500 984 L504 988 L507 995 L506 996 L501 991 L494 988 L487 990 L482 997 L479 1004 L478 1023 L480 1030 L483 1033 L479 1020 L480 1017 L480 1007 L483 997 L489 991 L492 990 L498 991 L505 997 L508 1005 L509 1012 L511 1013 L508 1023 L508 1037 L510 1041 L509 1042 L499 1038 L496 1038 L495 1036 L484 1038 L482 1040 L477 1035 L475 1031 L474 1021 L473 1020 L475 1002 L481 990 L490 983 L488 983 L487 982 Z M600 981 L601 980 L602 981 L601 982 Z M351 960 L350 961 L351 994 L353 1000 L353 1009 L354 1010 L357 1038 L359 1041 L357 1024 L356 1023 L356 1012 L354 1009 L355 1001 L353 994 Z M717 957 L717 971 L719 970 L719 964 L718 963 L719 959 Z M443 953 L442 953 L442 960 L441 961 L442 967 L443 965 L443 958 L444 957 L445 958 L445 955 Z M432 949 L433 951 L438 952 Z M611 942 L612 941 L613 942 L612 943 Z M474 941 L475 940 L476 941 L475 942 Z M719 936 L719 940 L718 941 L719 945 L720 944 L720 937 Z M600 935 L601 934 L602 935 L601 936 Z M669 918 L670 917 L671 918 L670 919 Z M670 917 L671 916 L672 917 L671 918 Z M671 916 L672 915 L673 916 L672 917 Z M672 914 L673 913 L674 915 L673 916 Z M410 910 L411 909 L412 910 L411 911 Z M694 906 L695 905 L696 906 L695 907 Z M695 905 L696 904 L697 905 L696 906 Z M696 903 L697 902 L698 903 L697 904 Z M719 902 L720 905 L720 922 L721 921 L721 915 L720 914 L721 906 L720 902 Z M698 900 L699 899 L700 900 L699 901 Z M700 896 L701 895 L702 896 L701 897 Z M618 896 L619 895 L620 896 L619 897 Z M701 894 L702 893 L703 895 L702 896 Z M702 892 L703 891 L704 893 L703 894 Z M703 890 L704 889 L705 890 L704 891 Z M465 887 L469 893 L474 908 L474 914 L475 915 L475 933 L474 934 L475 935 L474 936 L461 933 L451 933 L445 931 L456 926 L461 921 L464 916 L467 905 L466 895 L464 890 Z M463 887 L464 886 L465 887 L464 888 Z M705 886 L706 885 L707 886 L706 887 Z M656 881 L664 889 L665 901 L663 907 L659 913 L654 917 L649 919 L643 919 L639 917 L634 910 L634 899 L638 890 L645 883 L649 881 Z M707 881 L708 880 L709 881 L708 882 Z M526 881 L524 882 L524 911 L523 912 L523 931 L522 932 L522 945 L521 946 L521 959 L520 960 L520 977 L521 976 L521 969 L522 968 L523 942 L524 941 L525 899 L526 898 L526 894 L525 893 L526 885 L525 884 Z M428 880 L438 879 L442 881 L447 886 L450 891 L452 897 L452 906 L450 911 L443 917 L433 916 L424 908 L421 901 L421 891 L424 884 Z M708 879 L709 878 L710 879 L709 880 Z M656 879 L650 879 L643 882 L637 888 L634 893 L632 899 L632 910 L635 916 L640 920 L648 921 L656 918 L662 912 L666 904 L667 892 L665 886 L660 881 Z M430 877 L425 880 L420 887 L419 890 L420 905 L423 910 L430 916 L437 919 L442 919 L447 917 L451 913 L454 905 L454 896 L451 888 L445 881 L437 877 Z M709 876 L710 875 L711 877 L710 878 Z M710 874 L711 873 L712 874 L711 875 Z M714 873 L715 872 L716 873 L715 874 Z M711 871 L712 870 L713 872 L712 873 Z M376 871 L377 870 L378 872 L377 873 Z M716 869 L717 870 L716 873 L715 872 Z M712 869 L713 868 L714 869 L713 870 Z M376 867 L377 868 L376 871 L375 870 Z M716 867 L717 866 L718 868 L717 869 Z M713 867 L714 866 L715 867 L714 868 Z M653 866 L662 869 L671 878 L675 891 L674 903 L669 915 L659 926 L648 931 L639 931 L632 928 L625 921 L620 906 L621 896 L623 889 L627 882 L636 873 L645 868 Z M714 864 L715 863 L716 865 L715 866 Z M695 863 L696 864 L695 871 L688 892 L682 904 L674 914 L673 912 L677 901 L677 887 L676 883 L671 874 L667 870 L658 865 L666 863 L679 863 L680 864 Z M698 862 L699 861 L700 862 L699 863 Z M715 861 L716 860 L717 862 L716 863 Z M569 860 L570 861 L570 865 L569 866 L568 865 L568 861 Z M390 860 L391 859 L394 860 L421 860 L422 861 L426 861 L428 863 L426 865 L438 864 L451 871 L460 881 L465 897 L465 906 L460 919 L453 926 L446 929 L436 929 L423 922 L417 915 L412 905 L411 897 L410 896 L410 888 L412 880 L417 872 L423 866 L416 870 L411 877 L408 886 L408 898 L411 907 L410 910 L403 901 L397 890 L390 867 Z M716 858 L717 857 L718 859 L717 860 Z M387 857 L390 859 L388 863 L386 859 Z M570 856 L571 857 L570 860 L569 859 Z M753 854 L752 855 L752 874 L751 875 L751 890 L750 891 L747 946 L746 947 L746 955 L745 956 L745 965 L744 966 L744 976 L743 977 L741 1001 L740 1002 L739 1015 L738 1016 L738 1021 L737 1022 L732 1051 L725 1079 L723 1083 L723 1087 L726 1081 L730 1063 L732 1059 L732 1055 L733 1054 L733 1050 L735 1045 L737 1030 L739 1024 L743 991 L744 990 L746 960 L747 959 L748 940 L749 939 L751 899 L752 898 Z M710 854 L711 853 L712 854 L711 855 Z M792 841 L800 838 L803 838 L806 841 L801 844 L800 843 L795 843 Z M790 839 L791 838 L792 839 L791 840 Z M793 837 L794 836 L796 837 L795 838 Z M365 837 L366 836 L368 838 L376 851 L380 855 L382 854 L384 856 L394 885 L402 902 L408 910 L422 924 L436 931 L449 934 L454 934 L455 935 L461 935 L462 934 L465 936 L469 936 L475 940 L474 941 L467 941 L466 940 L443 940 L442 939 L438 939 L428 936 L410 925 L400 915 L388 898 L377 875 L377 873 L378 872 L379 874 L376 866 L375 868 L374 867 L375 864 L374 865 L372 862 L369 849 L367 847 L368 845 Z M276 837 L277 836 L278 837 L277 838 Z M797 836 L800 834 L804 835 L800 837 Z M364 835 L365 834 L366 835 L365 836 Z M723 834 L724 833 L725 835 L724 836 Z M724 832 L725 831 L726 833 L725 834 Z M288 830 L293 832 L295 835 L295 867 L296 868 L297 915 L298 916 L298 936 L299 937 L301 982 L302 983 L302 994 L303 995 L304 1012 L306 1018 L306 1025 L308 1031 L309 1043 L315 1060 L315 1065 L319 1066 L318 1068 L316 1068 L314 1070 L308 1069 L302 1066 L296 1059 L292 1048 L293 1044 L295 1046 L297 1045 L297 1039 L298 1038 L294 967 L293 968 L293 987 L294 988 L295 1023 L296 1024 L296 1038 L297 1039 L295 1043 L290 1039 L290 1035 L289 1034 L287 999 L286 998 L286 985 L285 984 L285 970 L284 969 L284 955 L283 954 L283 940 L282 939 L282 922 L281 921 L281 903 L280 902 L278 852 L277 851 L277 838 L279 837 L282 839 L282 856 L283 857 L284 881 L285 882 L285 890 L286 892 L286 877 L285 876 L285 865 L284 864 L283 839 L284 838 L285 839 L286 838 L291 838 L292 836 L287 836 L283 838 L278 834 L281 832 L287 832 Z M580 830 L576 834 L571 845 L566 862 L565 873 L564 874 L564 884 L563 885 L563 928 L564 929 L566 969 L567 970 L567 976 L568 976 L567 952 L566 951 L566 942 L565 941 L565 912 L564 911 L564 904 L565 903 L564 892 L565 891 L566 872 L568 865 L569 866 L569 892 L570 893 L571 904 L576 919 L576 922 L586 948 L601 976 L601 980 L600 981 L591 980 L585 983 L582 986 L576 998 L575 1015 L577 1013 L577 1009 L579 1003 L583 996 L586 993 L589 992 L589 990 L586 991 L580 998 L579 996 L581 991 L587 984 L591 982 L594 982 L595 984 L606 993 L609 1000 L610 1009 L611 1010 L611 1024 L610 1025 L609 1033 L604 1040 L600 1038 L590 1038 L582 1040 L563 1050 L562 1049 L566 1045 L566 1043 L565 1043 L559 1050 L558 1053 L551 1055 L535 1055 L531 1054 L518 1048 L512 1043 L509 1035 L510 1020 L512 1016 L510 981 L517 956 L515 956 L514 963 L511 968 L511 973 L509 977 L508 989 L507 990 L504 985 L499 981 L494 979 L489 979 L485 981 L484 977 L490 962 L496 954 L502 942 L514 909 L517 892 L518 891 L518 876 L519 875 L518 862 L517 859 L516 859 L516 863 L517 864 L517 887 L516 888 L516 893 L513 906 L508 922 L499 942 L499 944 L493 954 L490 962 L485 969 L482 981 L478 983 L473 989 L467 1002 L469 1001 L469 998 L474 991 L482 983 L485 983 L486 984 L480 989 L475 998 L471 1015 L471 1023 L472 1024 L473 1033 L477 1040 L482 1044 L479 1050 L479 1053 L475 1063 L475 1067 L473 1073 L473 1081 L472 1082 L472 1087 L474 1090 L471 1094 L468 1093 L460 1085 L461 1082 L460 1080 L456 1080 L453 1083 L453 1088 L457 1092 L455 1095 L452 1094 L448 1090 L447 1087 L448 1079 L451 1076 L449 1075 L451 1073 L448 1074 L447 1073 L455 1047 L460 1037 L463 1025 L461 1027 L460 1033 L452 1050 L445 1073 L446 1077 L444 1079 L443 1086 L446 1087 L447 1091 L450 1094 L457 1096 L453 1102 L449 1116 L448 1126 L447 1127 L446 1151 L445 1152 L444 1151 L443 1132 L442 1131 L442 1106 L443 1105 L444 1094 L442 1094 L441 1107 L440 1108 L440 1132 L441 1133 L442 1149 L443 1150 L443 1155 L444 1156 L446 1169 L449 1176 L449 1179 L451 1182 L450 1172 L449 1171 L449 1161 L448 1160 L448 1132 L449 1131 L449 1124 L450 1123 L450 1118 L452 1113 L453 1105 L457 1098 L457 1096 L461 1091 L463 1091 L471 1099 L486 1109 L495 1117 L514 1127 L526 1130 L531 1130 L532 1131 L551 1131 L552 1130 L557 1130 L573 1126 L583 1121 L615 1098 L621 1092 L623 1093 L625 1097 L632 1095 L637 1089 L637 1083 L638 1082 L639 1085 L640 1085 L639 1078 L637 1075 L637 1069 L634 1061 L634 1058 L628 1041 L625 1036 L624 1030 L621 1023 L620 1024 L635 1068 L634 1072 L631 1067 L626 1053 L616 1034 L616 1036 L632 1071 L637 1077 L636 1080 L633 1076 L635 1080 L636 1088 L634 1092 L631 1095 L629 1095 L627 1093 L630 1088 L630 1085 L627 1081 L623 1081 L624 1083 L623 1087 L617 1093 L612 1096 L611 1095 L611 1075 L610 1074 L609 1063 L607 1059 L605 1049 L602 1045 L608 1040 L612 1033 L612 1029 L613 1028 L613 1010 L610 999 L607 993 L602 987 L596 983 L598 982 L604 984 L611 990 L615 996 L615 994 L604 982 L603 977 L585 941 L575 913 L572 901 L572 896 L571 895 L571 888 L570 887 L570 883 L571 882 L570 880 L571 877 L571 863 L572 862 L572 856 L571 857 L570 854 L574 842 L580 832 Z M510 830 L520 855 L524 878 L525 877 L525 872 L524 871 L521 853 L516 839 L512 831 Z M284 830 L285 829 L288 830 L287 831 Z M280 829 L281 828 L285 829 L284 830 Z M280 826 L281 825 L282 826 L281 827 Z M689 824 L690 823 L691 824 L690 825 Z M641 820 L636 821 L621 830 L610 842 L620 832 L635 823 L641 821 Z M502 820 L503 819 L504 820 L503 821 Z M730 810 L731 809 L732 811 L731 812 Z M356 808 L357 807 L358 809 L357 810 Z M731 807 L732 806 L733 808 L732 809 Z M355 805 L356 804 L357 806 L356 807 Z M343 792 L341 800 L342 861 L343 862 L345 896 L346 897 L346 913 L347 917 L348 917 L347 890 L346 889 L346 877 L345 876 L345 864 L344 863 L344 829 L342 826 Z M345 781 L346 780 L347 782 L346 783 Z M743 773 L741 773 L741 776 L733 800 L721 825 L710 839 L695 847 L690 847 L689 846 L691 844 L695 834 L695 829 L691 822 L686 818 L673 814 L660 814 L652 816 L652 817 L656 817 L657 816 L675 816 L683 818 L689 825 L692 826 L693 831 L692 832 L691 840 L688 845 L684 848 L664 848 L646 853 L632 861 L620 873 L611 886 L608 893 L608 896 L609 896 L614 884 L621 874 L631 864 L640 858 L649 854 L652 854 L660 851 L666 851 L667 850 L681 850 L684 853 L684 858 L683 859 L660 860 L647 864 L635 871 L625 881 L620 888 L611 909 L610 917 L609 918 L609 925 L608 926 L608 939 L606 944 L604 943 L603 939 L603 921 L604 920 L605 908 L607 904 L608 898 L606 899 L603 908 L602 922 L601 923 L601 933 L600 934 L596 926 L591 907 L591 886 L592 885 L592 880 L597 863 L607 845 L603 849 L595 864 L590 881 L590 886 L589 887 L589 908 L590 909 L590 914 L595 930 L603 944 L608 949 L614 953 L622 956 L638 958 L639 957 L646 957 L647 956 L655 955 L677 943 L691 928 L696 915 L694 916 L693 922 L688 930 L678 940 L664 949 L655 953 L642 956 L633 956 L632 955 L621 954 L611 949 L608 946 L612 944 L640 944 L648 942 L651 940 L641 941 L640 942 L626 942 L625 941 L624 942 L613 942 L612 941 L618 937 L632 936 L632 934 L630 935 L619 935 L612 938 L611 937 L611 921 L617 898 L618 897 L619 898 L619 912 L622 920 L630 929 L639 933 L638 934 L634 934 L634 935 L641 935 L649 933 L660 928 L671 920 L679 911 L689 894 L694 881 L694 878 L701 861 L710 854 L711 856 L709 858 L709 860 L711 859 L717 849 L718 844 L723 835 L724 838 L719 855 L718 856 L717 855 L714 860 L704 888 L698 899 L699 902 L698 903 L697 902 L694 906 L695 908 L692 912 L678 926 L670 932 L658 938 L656 938 L654 940 L662 938 L673 932 L688 919 L699 904 L714 874 L717 875 L718 883 L716 886 L718 888 L718 891 L720 891 L720 887 L719 886 L720 879 L718 873 L718 869 L719 868 L718 863 L730 824 L731 817 L729 818 L723 833 L714 846 L702 856 L694 859 L690 859 L689 855 L688 857 L689 858 L686 859 L685 858 L686 857 L686 853 L684 851 L691 849 L694 850 L708 843 L720 830 L730 811 L731 815 L732 815 L737 800 Z M344 769 L345 771 L344 785 L345 786 L347 782 L348 783 L351 798 L356 812 L357 812 L358 809 L361 816 L368 827 L380 840 L392 846 L390 854 L388 854 L381 850 L371 840 L367 834 L359 817 L358 818 L358 822 L362 833 L363 840 L372 868 L380 885 L380 887 L394 912 L407 925 L417 932 L427 937 L435 938 L438 940 L446 942 L473 942 L478 944 L475 948 L480 944 L481 946 L483 946 L485 944 L481 943 L483 942 L483 940 L492 926 L497 910 L498 884 L497 883 L497 877 L495 869 L493 866 L492 861 L488 853 L479 840 L468 829 L456 821 L451 819 L452 821 L466 829 L479 842 L489 858 L495 876 L495 881 L496 882 L496 901 L495 902 L494 913 L490 925 L485 934 L484 933 L484 916 L482 917 L482 940 L481 941 L478 938 L477 935 L476 910 L471 895 L464 882 L452 869 L443 863 L430 858 L416 857 L415 856 L396 856 L392 853 L392 849 L394 846 L420 847 L440 852 L451 858 L467 873 L468 876 L472 880 L472 882 L476 888 L477 893 L479 896 L481 909 L483 908 L482 901 L475 884 L472 881 L471 877 L464 868 L454 858 L440 850 L428 846 L413 845 L412 844 L401 845 L395 839 L394 836 L395 825 L402 816 L405 816 L412 813 L428 813 L441 817 L444 817 L444 816 L435 813 L423 812 L422 811 L415 811 L402 814 L397 819 L392 829 L392 837 L395 843 L393 844 L387 842 L378 836 L370 828 L365 820 L352 790 L352 787 L350 784 L346 769 Z M492 759 L492 767 L493 768 L494 767 L494 761 Z M691 751 L677 756 L658 760 L649 764 L647 763 L648 762 L648 757 L647 757 L646 762 L644 765 L643 764 L644 765 L629 773 L612 785 L596 801 L593 806 L610 789 L632 774 L651 765 L685 755 L691 752 Z M279 738 L278 742 L279 743 L279 751 L280 752 L280 739 Z M649 731 L648 733 L648 750 L647 753 L649 752 L649 743 L650 742 L650 732 Z M492 726 L491 728 L492 756 L493 755 L493 743 L492 742 L493 727 Z M371 725 L372 724 L373 726 L372 727 Z M370 722 L371 721 L372 723 L371 724 Z M808 719 L808 729 L809 729 L809 719 Z M721 713 L720 713 L718 721 L709 737 L701 745 L695 749 L697 749 L702 746 L712 736 L717 727 L718 728 L714 743 L709 753 L698 767 L689 774 L673 782 L661 786 L646 789 L620 798 L605 806 L593 815 L586 822 L585 820 L588 814 L584 819 L584 821 L586 822 L585 823 L587 823 L603 810 L620 801 L642 793 L645 793 L668 786 L687 777 L694 772 L708 758 L716 744 L721 726 Z M368 709 L367 711 L368 725 L373 741 L381 755 L391 766 L401 773 L419 782 L427 784 L430 786 L440 788 L465 797 L484 807 L495 815 L502 822 L506 823 L505 819 L503 818 L502 820 L493 811 L477 800 L458 791 L413 777 L405 773 L395 766 L384 755 L380 749 L372 730 L373 726 L377 732 L389 743 L399 747 L407 752 L419 756 L422 756 L441 763 L455 770 L469 779 L479 787 L490 798 L502 814 L492 798 L477 783 L461 771 L442 761 L429 756 L422 755 L415 752 L406 750 L403 748 L398 747 L390 742 L377 729 L373 722 L370 711 Z M337 693 L336 693 L335 696 L335 708 L334 709 L334 744 L335 744 L335 740 L336 739 L336 703 L337 702 Z M648 689 L648 691 L649 691 Z M807 684 L812 686 L809 691 L805 687 L809 692 L809 697 L808 698 L809 700 L808 703 L808 714 L809 715 L810 714 L810 692 L809 691 L813 688 L814 689 L813 746 L812 747 L812 768 L811 769 L809 825 L808 826 L808 831 L807 832 L803 832 L802 831 L804 824 L806 772 L807 771 L807 764 L806 763 L807 759 L806 757 L802 827 L801 828 L801 832 L797 834 L796 837 L795 836 L792 837 L791 836 L791 816 L792 815 L792 786 L793 785 L793 738 L792 737 L792 696 L791 694 L793 688 L803 689 L802 687 L797 687 L796 686 L799 684 Z M752 684 L752 695 L753 696 L753 705 L754 706 L754 720 L755 721 L756 771 L757 772 L757 776 L757 772 L758 771 L757 726 L756 725 L756 711 L755 710 L754 691 Z M277 683 L278 682 L279 683 L278 684 Z M272 681 L278 684 L277 685 L277 718 L278 719 L277 726 L278 727 L278 735 L279 735 L279 699 L278 698 L279 685 L281 683 L287 683 L294 681 L296 682 L295 722 L294 723 L294 762 L293 763 L293 788 L294 789 L294 830 L293 831 L289 828 L284 827 L282 824 L281 766 L280 766 L281 825 L277 826 L275 820 L273 741 L272 740 L272 696 L271 695 L271 682 Z M291 680 L292 679 L294 680 L293 681 Z M274 680 L281 677 L285 677 L290 679 L286 681 L275 681 Z M339 676 L338 676 L337 680 L337 687 L339 681 Z M385 661 L382 662 L373 672 L368 689 L368 701 L369 701 L369 693 L374 674 L377 669 Z M570 656 L571 657 L570 660 L569 659 Z M768 655 L769 656 L768 658 L770 661 L770 670 L771 671 L771 679 L772 680 L773 717 L774 718 L774 805 L773 806 L773 830 L772 831 L772 856 L771 857 L770 893 L769 894 L768 921 L767 922 L768 924 L767 925 L766 943 L765 944 L765 952 L764 953 L762 982 L761 983 L759 1009 L758 1010 L758 1017 L757 1018 L756 1032 L755 1033 L755 1039 L753 1047 L753 1055 L752 1056 L752 1069 L753 1073 L751 1076 L742 1076 L739 1074 L747 1041 L748 1030 L751 1018 L753 997 L754 996 L757 960 L758 959 L758 949 L759 948 L760 925 L761 924 L764 868 L765 867 L765 845 L766 844 L766 822 L767 821 L767 788 L768 787 L768 738 L767 737 L767 712 L766 711 L765 684 L764 683 L763 668 L760 657 L764 655 Z M776 654 L777 656 L780 657 L780 662 L782 666 L783 685 L784 686 L784 704 L785 705 L785 812 L784 813 L784 837 L783 838 L783 857 L782 858 L782 877 L781 878 L779 922 L778 923 L777 945 L776 946 L775 968 L774 969 L774 982 L773 983 L773 994 L772 995 L772 1003 L771 1004 L771 1012 L770 1013 L769 1032 L767 1038 L765 1054 L763 1057 L763 1062 L760 1070 L761 1071 L756 1075 L754 1073 L754 1055 L755 1054 L755 1046 L756 1045 L757 1031 L759 1023 L762 991 L763 990 L764 971 L765 970 L765 959 L766 958 L769 914 L770 913 L770 900 L771 899 L771 885 L772 884 L772 870 L773 869 L773 850 L774 849 L775 787 L776 786 L775 784 L776 783 L776 734 L775 733 L776 729 L775 728 L774 687 L773 686 L773 675 L772 674 L772 667 L771 666 L771 659 L772 657 L770 655 L771 654 Z M777 654 L778 653 L779 654 L778 655 Z M389 660 L401 657 L409 657 L410 656 L494 656 L494 655 L415 654 L414 655 L397 656 L393 658 L390 658 Z M778 652 L779 651 L780 652 L779 653 Z M316 651 L323 651 L328 653 L325 664 L323 684 L322 685 L321 708 L320 709 L320 727 L319 728 L319 828 L320 829 L320 860 L321 861 L321 881 L322 882 L322 900 L323 901 L324 940 L325 941 L327 977 L328 978 L330 1005 L331 1006 L331 1013 L332 1014 L335 1038 L336 1039 L339 1058 L342 1066 L341 1070 L340 1069 L339 1070 L328 1070 L327 1069 L329 1064 L329 1050 L328 1049 L327 1031 L326 1030 L325 1016 L323 1008 L320 968 L319 967 L319 956 L318 955 L317 927 L316 926 L315 886 L314 885 L314 858 L313 857 L313 827 L312 826 L312 727 L313 726 L313 703 L314 702 L315 674 L316 673 L317 656 L319 653 L316 653 L315 652 Z M309 646 L310 645 L311 646 L310 647 Z M731 642 L732 641 L736 641 L741 643 L747 643 L761 647 L765 647 L772 650 L773 652 L772 653 L761 653 L760 654 L748 647 Z M727 641 L728 640 L729 641 L728 642 Z M309 641 L310 640 L311 641 L310 642 Z M310 639 L311 638 L312 639 L311 640 Z M774 638 L775 637 L776 638 L775 639 Z M773 637 L774 636 L775 637 L774 638 Z M311 637 L312 636 L313 637 L312 638 Z M771 636 L772 635 L773 636 L772 637 Z M568 643 L570 641 L570 636 L571 635 L635 636 L636 637 L676 638 L677 639 L699 640 L700 641 L708 641 L709 642 L727 644 L743 649 L746 649 L752 652 L753 654 L749 656 L743 662 L734 653 L719 649 L696 647 L695 646 L671 645 L670 644 L644 644 L643 643 L571 643 L569 645 Z M567 636 L568 635 L569 636 L568 637 Z M312 636 L313 635 L314 636 L313 637 Z M770 635 L771 634 L772 635 L771 636 Z M340 646 L353 642 L358 642 L371 639 L390 638 L391 637 L406 637 L407 636 L469 635 L470 634 L564 635 L566 640 L565 642 L546 642 L545 643 L544 642 L500 642 L499 641 L435 641 L434 642 L414 642 L413 643 L384 644 L383 645 L376 645 L375 646 L366 647 L356 650 L351 653 L344 661 L345 662 L352 654 L358 651 L369 648 L391 646 L392 645 L425 644 L426 643 L565 644 L567 652 L566 656 L497 655 L495 660 L495 667 L494 668 L493 697 L492 698 L494 699 L496 663 L498 657 L535 657 L536 658 L566 658 L567 659 L568 675 L567 676 L567 693 L566 694 L566 721 L565 722 L564 763 L563 764 L563 776 L562 777 L562 789 L561 790 L560 818 L561 817 L561 810 L562 809 L562 797 L563 796 L564 774 L565 773 L569 675 L571 670 L571 665 L573 658 L637 658 L638 659 L637 660 L638 663 L639 663 L638 659 L639 658 L643 658 L645 661 L645 667 L646 668 L647 681 L648 682 L648 673 L646 667 L646 660 L644 659 L645 658 L681 659 L682 660 L688 660 L700 663 L711 671 L716 680 L719 691 L719 697 L720 698 L720 711 L722 709 L722 698 L721 697 L721 691 L718 680 L713 671 L707 665 L702 662 L686 658 L664 657 L663 656 L627 656 L626 657 L623 656 L573 656 L571 657 L570 656 L570 652 L571 651 L571 644 L572 643 L573 644 L598 644 L599 645 L652 645 L653 646 L674 646 L675 647 L708 649 L709 650 L721 651 L732 654 L736 656 L742 662 L742 664 L744 664 L748 659 L755 654 L757 655 L759 662 L760 677 L761 678 L762 701 L763 702 L763 721 L764 722 L764 809 L763 810 L762 855 L761 856 L760 888 L759 889 L757 926 L756 927 L756 937 L755 938 L755 950 L754 951 L754 960 L753 961 L750 997 L749 998 L749 1004 L748 1005 L748 1011 L747 1012 L744 1036 L743 1037 L741 1051 L739 1056 L739 1060 L735 1076 L725 1107 L723 1110 L716 1130 L700 1162 L686 1184 L673 1201 L651 1224 L634 1238 L619 1248 L606 1255 L578 1265 L574 1265 L573 1266 L569 1266 L568 1265 L568 1263 L571 1260 L571 1256 L570 1255 L570 1250 L571 1249 L590 1244 L601 1238 L603 1238 L611 1234 L628 1222 L642 1208 L653 1194 L671 1163 L687 1125 L701 1078 L701 1074 L703 1069 L704 1060 L706 1056 L708 1042 L710 1036 L711 1021 L715 1006 L714 997 L717 992 L717 987 L716 986 L717 973 L714 984 L715 988 L714 1003 L709 1024 L709 1033 L708 1034 L707 1046 L706 1047 L704 1061 L702 1065 L701 1073 L697 1089 L695 1093 L695 1096 L693 1100 L693 1103 L689 1112 L686 1123 L674 1153 L661 1178 L644 1203 L628 1220 L613 1231 L611 1230 L621 1217 L624 1211 L623 1210 L614 1225 L603 1235 L588 1243 L574 1247 L572 1241 L573 1228 L571 1232 L571 1241 L569 1246 L567 1248 L563 1249 L532 1250 L531 1249 L523 1249 L522 1248 L512 1247 L502 1243 L495 1242 L504 1246 L520 1250 L526 1250 L527 1251 L550 1252 L551 1251 L567 1250 L568 1251 L568 1256 L564 1266 L561 1268 L552 1268 L551 1269 L536 1269 L535 1268 L518 1267 L491 1260 L468 1249 L458 1243 L437 1227 L425 1216 L403 1191 L388 1170 L378 1153 L367 1131 L367 1129 L356 1104 L356 1101 L350 1085 L342 1054 L339 1033 L337 1027 L334 1001 L333 1000 L333 993 L332 992 L331 974 L330 973 L329 950 L328 949 L328 933 L327 932 L327 916 L326 915 L325 873 L324 872 L324 846 L323 845 L323 808 L322 807 L322 746 L323 745 L324 700 L325 699 L325 687 L326 686 L328 662 L330 654 L332 652 L336 654 L334 650 Z M768 634 L769 633 L770 634 L769 635 Z M766 633 L767 632 L768 633 L767 634 Z M315 633 L316 632 L317 633 L316 634 Z M763 632 L764 631 L766 632 L765 633 Z M336 628 L333 629 L333 630 L336 629 Z M358 621 L359 620 L361 621 L360 622 Z M365 620 L366 619 L371 619 L372 620 L371 621 L366 621 Z M373 619 L374 618 L383 618 L384 619 L383 620 L374 620 Z M386 618 L387 617 L398 617 L399 618 L398 619 L387 619 Z M313 639 L318 633 L317 632 L321 629 L336 624 L351 622 L352 621 L357 621 L359 623 L363 623 L364 622 L377 622 L378 621 L391 621 L392 620 L405 620 L406 619 L432 619 L433 618 L452 618 L453 617 L487 617 L488 616 L501 616 L502 617 L504 616 L506 617 L593 617 L594 618 L672 620 L673 621 L689 621 L690 622 L704 622 L705 623 L719 623 L720 624 L736 625 L756 630 L760 630 L762 633 L771 637 L775 641 L777 649 L775 650 L767 646 L763 646 L745 641 L734 641 L733 640 L723 641 L716 639 L689 637 L688 636 L657 635 L656 634 L635 634 L634 633 L633 634 L632 633 L549 632 L548 631 L458 631 L457 632 L426 632 L425 633 L391 634 L390 635 L371 636 L370 637 L355 639 L340 644 L329 650 L325 650 L320 648 L319 649 L314 649 L313 648 L331 641 L339 640 L344 638 L349 638 L350 637 L336 638 L319 643 L314 646 L312 645 Z M403 617 L404 616 L416 616 L417 617 L416 618 L404 618 Z M613 616 L614 615 L617 616 L616 617 Z M422 616 L423 615 L442 615 L443 616 L442 617 L423 617 Z M447 615 L448 614 L459 614 L460 615 L459 616 L448 616 Z M396 598 L403 599 L404 598 L447 597 L448 596 L555 594 L556 595 L582 595 L583 596 L605 596 L606 597 L661 599 L662 600 L695 602 L696 603 L712 604 L713 605 L719 605 L720 602 L720 598 L719 598 L717 603 L710 603 L702 601 L674 599 L673 598 L643 597 L642 596 L623 596 L622 595 L599 595 L598 594 L549 593 L548 592 L544 592 L543 593 L489 593 L488 594 L460 594 L459 595 L430 595 L429 596 L412 596 L411 597 Z M778 579 L777 579 L777 588 L778 586 Z M778 567 L777 568 L778 569 Z M722 558 L720 594 L721 594 L721 590 L722 589 L722 574 L723 573 L723 560 Z M722 531 L722 533 L723 533 L723 531 Z M775 522 L776 521 L777 522 L776 523 Z M310 517 L311 516 L312 517 L311 518 Z M389 503 L390 504 L390 511 L391 512 L391 521 L390 522 L390 546 L389 547 L389 579 L388 580 L388 587 L387 588 L387 597 L384 599 L366 600 L365 601 L359 601 L358 602 L347 603 L335 606 L319 612 L310 618 L309 617 L309 580 L308 580 L308 622 L304 629 L301 638 L301 643 L299 647 L298 663 L297 664 L297 676 L295 680 L291 676 L284 675 L283 674 L283 658 L282 657 L282 598 L283 597 L283 567 L284 566 L285 528 L289 524 L297 520 L310 517 L311 518 L311 523 L310 524 L310 533 L309 534 L309 552 L311 525 L312 524 L312 519 L315 515 L344 508 L350 508 L351 507 L357 507 L358 506 L364 506 L372 504 L379 504 L380 503 Z M555 493 L555 494 L559 494 L560 495 L604 496 L605 497 L645 499 L646 500 L675 502 L676 503 L684 503 L685 504 L693 504 L694 505 L719 508 L721 510 L722 513 L722 527 L723 527 L723 519 L724 518 L722 510 L726 509 L723 507 L718 507 L712 505 L691 503 L690 502 L682 502 L681 501 L673 501 L672 500 L664 500 L663 499 L643 498 L642 497 L599 495 L598 494 L580 494 L579 493 Z M530 493 L530 494 L533 494 L533 493 Z M539 494 L548 495 L553 493 L545 492 L544 493 L539 493 Z M770 490 L771 491 L770 493 L771 496 L772 491 Z M313 485 L312 486 L313 489 Z M291 505 L310 498 L313 499 L312 501 L312 504 L313 504 L315 498 L318 496 L345 491 L346 490 L352 490 L358 488 L365 488 L372 486 L392 484 L393 485 L393 489 L393 487 L398 483 L406 483 L407 482 L441 480 L442 479 L456 479 L457 478 L498 477 L499 476 L575 476 L576 477 L597 477 L598 478 L613 478 L614 479 L652 481 L653 482 L680 484 L681 485 L688 485 L689 486 L715 489 L720 492 L721 496 L722 495 L721 492 L722 491 L750 496 L768 501 L773 505 L774 503 L791 510 L797 515 L798 517 L798 529 L797 530 L794 527 L788 524 L783 523 L772 518 L769 518 L754 513 L736 510 L736 511 L752 514 L773 520 L775 522 L775 526 L776 527 L777 550 L778 550 L778 537 L777 536 L777 525 L776 524 L777 522 L784 524 L794 529 L799 534 L800 567 L801 568 L801 605 L802 606 L801 680 L793 684 L791 687 L790 686 L790 669 L789 668 L788 651 L784 635 L780 627 L776 622 L777 619 L777 609 L778 608 L778 591 L777 590 L777 599 L776 600 L776 611 L777 613 L774 620 L764 614 L755 611 L721 604 L721 605 L726 607 L740 609 L756 614 L759 614 L772 620 L775 623 L775 627 L776 625 L781 631 L787 654 L788 674 L789 675 L789 691 L790 692 L790 716 L791 717 L791 801 L790 802 L790 827 L789 828 L788 867 L787 868 L787 884 L786 885 L784 929 L783 930 L780 978 L779 979 L778 998 L777 999 L777 1008 L776 1009 L776 1018 L775 1019 L775 1027 L774 1028 L774 1036 L773 1037 L772 1049 L775 1037 L775 1030 L776 1029 L776 1022 L777 1021 L777 1014 L778 1013 L778 1004 L779 1003 L779 992 L780 991 L780 984 L781 983 L781 973 L782 972 L783 947 L784 946 L785 923 L786 922 L787 893 L788 892 L788 878 L789 877 L790 842 L792 841 L793 844 L801 846 L799 876 L798 877 L798 889 L797 890 L797 902 L796 903 L796 918 L799 882 L800 881 L800 871 L801 870 L802 846 L806 843 L807 844 L807 855 L806 856 L806 868 L805 869 L805 881 L804 882 L804 894 L803 895 L803 907 L802 908 L799 957 L798 958 L798 968 L797 969 L797 979 L796 980 L796 990 L795 991 L795 1000 L794 1001 L791 1038 L790 1039 L790 1045 L786 1049 L784 1049 L783 1047 L784 1046 L785 1033 L786 1032 L786 1017 L786 1023 L785 1024 L784 1037 L782 1045 L782 1052 L787 1050 L788 1054 L783 1067 L778 1072 L771 1075 L767 1075 L763 1073 L766 1071 L766 1066 L767 1065 L766 1054 L768 1051 L768 1042 L769 1041 L769 1033 L770 1032 L772 1006 L773 1005 L773 996 L774 995 L774 982 L775 981 L777 944 L778 943 L778 932 L779 931 L780 909 L781 908 L783 862 L784 861 L784 845 L785 844 L784 837 L785 836 L786 777 L787 776 L786 698 L785 697 L784 667 L780 651 L779 641 L772 633 L766 630 L757 627 L753 627 L737 623 L732 623 L731 622 L717 621 L716 620 L705 620 L704 619 L696 619 L695 618 L656 616 L655 615 L584 613 L583 612 L579 613 L577 612 L498 612 L497 613 L496 612 L479 612 L478 613 L474 612 L459 612 L458 613 L424 613 L423 614 L409 614 L408 615 L370 617 L369 618 L347 620 L324 626 L315 631 L309 638 L307 646 L307 653 L306 654 L305 668 L304 669 L304 679 L303 680 L303 698 L302 699 L302 714 L301 715 L301 757 L300 758 L300 764 L301 765 L301 772 L300 773 L300 783 L301 784 L301 788 L300 789 L300 797 L301 798 L301 852 L302 853 L302 876 L303 877 L303 894 L304 895 L304 928 L305 929 L306 967 L307 968 L307 978 L309 985 L309 994 L310 995 L310 1004 L311 1006 L311 996 L310 995 L308 968 L307 967 L306 927 L305 926 L304 868 L303 867 L303 845 L302 844 L302 772 L301 771 L301 767 L302 766 L302 728 L303 727 L303 700 L304 699 L304 686 L305 685 L305 671 L306 670 L307 656 L309 651 L312 650 L316 654 L316 659 L314 667 L314 677 L313 678 L313 688 L312 689 L311 738 L310 739 L311 845 L312 846 L312 872 L313 873 L313 895 L314 896 L314 914 L315 915 L317 962 L318 963 L320 997 L321 998 L322 1014 L323 1015 L325 1039 L326 1040 L326 1049 L327 1050 L327 1067 L324 1069 L320 1064 L319 1056 L317 1051 L313 1023 L314 1042 L316 1048 L316 1057 L318 1061 L318 1063 L317 1064 L316 1063 L311 1047 L311 1042 L310 1041 L310 1036 L307 1023 L307 1017 L306 1016 L306 1010 L305 1009 L304 990 L303 989 L301 947 L300 946 L300 929 L299 928 L297 853 L296 852 L296 820 L295 819 L295 732 L296 731 L296 704 L297 703 L297 686 L298 685 L299 659 L300 658 L300 651 L301 650 L301 645 L304 632 L309 622 L314 617 L325 611 L352 604 L371 602 L372 601 L379 601 L380 600 L385 600 L388 598 L389 599 L388 596 L390 594 L391 598 L392 598 L391 594 L389 592 L389 587 L390 586 L390 560 L391 559 L390 557 L391 525 L392 524 L392 510 L393 506 L396 502 L399 501 L410 501 L411 500 L421 500 L422 499 L434 499 L435 498 L504 495 L505 494 L502 493 L500 494 L497 493 L496 494 L474 494 L473 495 L454 495 L453 496 L438 496 L437 497 L404 499 L403 500 L395 501 L392 506 L389 501 L361 504 L360 505 L354 505 L342 508 L337 508 L332 510 L323 511 L312 515 L308 515 L291 521 L287 524 L286 523 L287 509 Z M319 466 L317 468 L316 474 L318 471 Z M734 458 L734 459 L737 460 L736 458 Z M641 456 L642 474 L644 473 L644 466 L643 465 L642 456 Z M365 437 L366 436 L367 437 L366 438 Z M545 430 L552 431 L557 434 L563 441 L564 448 L561 455 L557 458 L549 461 L547 460 L544 461 L541 459 L538 459 L531 453 L530 450 L530 442 L532 438 L537 433 Z M563 421 L564 420 L565 421 L564 422 Z M562 420 L563 419 L564 420 L563 421 Z M531 419 L532 418 L533 419 L532 420 Z M637 412 L638 414 L638 412 Z M681 405 L682 404 L683 405 L682 406 Z M556 404 L559 408 L558 410 L555 406 Z M634 404 L636 408 L636 404 Z M680 403 L681 402 L682 404 L681 405 Z M378 403 L374 409 L370 422 L363 436 L361 444 L359 446 L357 452 L358 455 L354 467 L354 472 L355 472 L356 464 L359 459 L359 453 L361 449 L361 444 L369 436 L367 434 L367 432 L369 429 L369 426 L375 413 Z M679 401 L680 400 L681 402 L680 403 Z M399 400 L394 404 L392 408 L394 407 Z M678 399 L679 398 L680 400 L679 401 Z M571 397 L572 396 L573 397 L572 398 Z M532 418 L547 395 L555 410 L563 419 L560 420 L551 417 L547 414 L542 417 L539 417 L535 419 Z M407 389 L408 388 L409 390 L408 391 Z M630 387 L632 394 L633 394 L632 389 Z M662 384 L676 403 L680 411 L684 416 L694 436 L706 468 L709 480 L708 484 L704 484 L699 482 L699 479 L696 473 L696 469 L696 474 L698 478 L698 482 L697 483 L693 480 L691 466 L689 462 L685 443 L675 417 L676 414 L675 415 L670 405 L671 401 L670 403 L665 394 L664 390 L661 386 Z M659 382 L660 381 L662 384 L661 385 Z M658 381 L659 380 L660 381 L659 382 Z M656 378 L657 377 L659 380 L658 381 Z M655 377 L656 376 L657 377 L656 378 Z M654 375 L655 374 L656 376 L655 377 Z M418 375 L419 374 L420 375 L419 376 Z M653 374 L654 373 L655 374 L654 375 Z M419 374 L420 373 L421 374 L420 375 Z M662 372 L666 371 L677 392 L679 397 L678 399 L661 375 Z M420 372 L421 371 L422 373 L421 374 Z M436 370 L437 372 L430 384 L428 385 L428 388 L426 390 L419 405 L409 433 L407 436 L398 465 L396 478 L394 480 L381 481 L380 482 L379 481 L384 459 L387 452 L387 449 L401 413 L404 409 L404 407 L417 382 L425 373 L427 375 L427 382 L428 382 L430 377 Z M596 370 L597 369 L598 370 L597 371 Z M663 369 L664 368 L665 369 L664 370 Z M421 371 L422 368 L424 370 L422 372 Z M623 368 L625 376 L627 378 L626 372 Z M439 366 L440 368 L437 371 L436 369 Z M422 367 L423 366 L424 367 L423 368 Z M441 363 L442 365 L440 367 L439 365 Z M441 363 L442 362 L443 363 L442 364 Z M505 366 L517 361 L532 362 L541 368 L546 378 L546 387 L544 393 L539 401 L538 407 L535 412 L517 431 L514 437 L512 444 L512 451 L516 461 L521 465 L515 455 L515 451 L514 450 L515 440 L519 432 L529 423 L541 419 L546 415 L549 418 L553 420 L556 420 L566 425 L573 432 L576 437 L578 444 L577 456 L574 462 L570 466 L565 467 L566 469 L565 472 L527 472 L525 470 L527 465 L533 458 L535 458 L540 461 L544 461 L545 462 L548 461 L549 462 L550 461 L555 461 L559 459 L564 454 L566 450 L566 444 L564 438 L557 431 L547 427 L544 429 L540 429 L536 431 L530 437 L527 444 L527 448 L529 454 L533 458 L528 463 L526 467 L524 468 L522 467 L524 471 L523 472 L500 472 L499 473 L480 473 L479 472 L483 456 L485 453 L488 443 L494 432 L503 420 L526 396 L532 385 L531 379 L526 374 L518 373 L512 378 L511 381 L515 385 L516 384 L513 381 L513 379 L517 375 L522 374 L527 376 L529 380 L529 385 L526 390 L518 395 L510 395 L503 393 L498 388 L496 384 L496 377 L499 371 Z M442 362 L443 361 L444 362 L443 363 Z M443 360 L444 359 L445 360 L444 361 Z M444 359 L445 358 L446 359 L445 360 Z M445 358 L446 357 L447 358 L446 359 Z M689 353 L690 352 L691 353 L690 354 Z M665 357 L683 348 L685 348 L687 350 L689 357 L696 370 L696 372 L699 377 L699 379 L702 384 L702 386 L705 391 L705 393 L708 398 L708 400 L711 405 L723 435 L723 438 L733 468 L734 477 L736 478 L735 470 L732 461 L732 456 L730 454 L729 448 L726 442 L726 439 L712 404 L704 388 L703 383 L700 378 L697 369 L690 355 L691 353 L716 383 L741 420 L760 453 L763 460 L762 464 L767 467 L768 472 L767 473 L761 467 L760 468 L766 474 L769 488 L767 474 L768 473 L770 475 L775 488 L775 492 L777 498 L776 500 L762 495 L742 490 L738 490 L735 488 L736 487 L734 486 L733 489 L721 486 L716 486 L712 484 L713 483 L712 482 L712 478 L709 466 L704 454 L704 451 L689 417 L689 415 L682 401 L682 399 L678 392 L678 390 L663 360 Z M613 349 L621 363 L618 355 L614 349 Z M424 355 L423 360 L414 378 L414 380 L411 386 L405 391 L402 397 L403 394 L407 390 L408 391 L407 395 L404 399 L404 401 L396 417 L389 437 L387 440 L380 462 L376 481 L371 483 L365 483 L358 485 L355 485 L354 481 L353 481 L353 484 L350 486 L335 488 L308 495 L307 491 L310 479 L317 463 L324 458 L321 455 L325 447 L352 404 L375 374 L399 348 L400 350 L392 368 L394 366 L404 344 Z M465 340 L466 339 L467 340 L466 341 Z M609 333 L623 344 L618 339 Z M601 326 L602 325 L604 326 L603 327 Z M573 318 L578 318 L579 319 L584 319 L592 321 L594 323 L599 324 L603 328 L604 326 L624 340 L646 362 L654 372 L653 374 L635 354 L637 358 L654 378 L667 401 L683 442 L690 470 L690 475 L692 480 L691 482 L674 480 L673 479 L643 477 L642 476 L631 476 L630 475 L617 475 L616 474 L617 461 L615 455 L616 450 L614 442 L614 434 L612 428 L609 405 L604 389 L603 391 L607 404 L611 432 L613 437 L614 453 L615 454 L615 473 L614 474 L613 473 L613 463 L610 455 L610 452 L601 432 L591 418 L572 398 L573 397 L580 399 L588 398 L592 396 L598 390 L600 384 L602 387 L604 386 L601 373 L596 361 L594 351 L583 332 L572 319 Z M521 317 L522 318 L513 328 L502 346 L491 378 L490 387 L492 386 L493 382 L495 389 L501 395 L508 398 L517 398 L521 396 L522 398 L502 418 L490 435 L485 445 L479 465 L478 464 L478 454 L479 453 L479 446 L480 445 L480 437 L481 436 L483 420 L485 414 L485 408 L491 389 L488 391 L483 409 L483 414 L480 427 L480 436 L478 440 L477 457 L476 458 L476 472 L472 474 L454 474 L453 475 L440 475 L439 476 L427 476 L426 477 L398 479 L397 478 L398 477 L398 473 L401 465 L402 457 L406 447 L406 444 L420 408 L427 393 L441 370 L441 368 L449 357 L467 340 L466 339 L470 335 L482 327 L492 322 L497 323 L495 322 L499 320 L513 318 L514 317 Z M546 304 L557 310 L562 315 L566 316 L577 327 L590 347 L597 368 L596 370 L593 369 L596 372 L598 377 L598 384 L596 389 L591 394 L585 396 L578 396 L569 392 L565 386 L565 380 L568 376 L570 375 L577 375 L579 376 L581 379 L581 382 L579 385 L582 384 L585 381 L576 373 L568 374 L564 378 L562 385 L563 389 L568 397 L587 416 L599 432 L609 455 L611 463 L611 473 L610 474 L577 473 L576 472 L569 472 L568 471 L568 469 L577 461 L579 457 L581 449 L580 440 L576 431 L558 411 L560 409 L558 406 L558 403 L554 401 L548 387 L549 375 L551 371 L558 364 L566 361 L575 361 L589 366 L587 364 L578 360 L567 359 L560 361 L555 364 L550 369 L547 374 L541 365 L537 362 L528 359 L518 359 L511 361 L504 365 L497 371 L496 370 L503 349 L508 339 L516 327 L524 318 L537 311 Z M587 304 L588 308 L590 308 Z M545 293 L546 292 L547 293 L546 294 Z M589 270 L589 271 L594 272 L593 270 Z M576 270 L577 269 L578 270 L577 271 Z M498 246 L497 249 L497 271 L502 282 L504 283 L499 272 L501 271 L501 269 L499 268 L499 246 Z M579 239 L578 241 L578 245 L579 246 L578 251 L579 254 L580 254 L580 239 Z M500 230 L499 233 L500 233 Z M578 226 L578 232 L579 233 L579 226 Z M577 214 L577 217 L578 217 Z M503 213 L501 215 L500 225 L502 223 Z M576 198 L575 199 L575 203 L576 206 L577 206 Z M506 198 L504 198 L502 208 L504 207 Z M508 185 L506 187 L505 194 L507 192 Z M573 179 L573 184 L574 185 L574 179 Z M517 148 L515 150 L514 158 L515 158 Z M549 143 L548 144 L548 183 L547 184 L547 257 L545 264 L546 281 L545 282 L544 293 L542 295 L536 295 L536 296 L553 296 L553 295 L550 295 L548 293 L548 289 L547 288 L547 280 L548 279 L547 268 L549 267 L548 263 L548 255 L549 254 L549 247 L548 246 Z M522 133 L521 133 L518 141 L520 140 Z M560 113 L559 115 L564 130 L564 135 L567 145 L568 156 L571 166 L571 172 L572 173 L572 177 L573 177 L573 170 L572 169 L568 142 L566 137 L566 131 L562 119 L562 116 Z M530 112 L527 116 L525 122 L526 122 Z M560 96 L572 108 L579 119 L588 137 L594 155 L596 158 L600 174 L602 178 L607 198 L607 202 L609 207 L611 222 L612 223 L612 229 L614 237 L614 246 L615 247 L615 274 L613 282 L606 294 L596 303 L581 298 L592 287 L599 273 L607 274 L607 273 L604 272 L600 272 L598 270 L600 267 L600 240 L599 239 L599 229 L598 228 L598 221 L597 220 L597 213 L596 212 L594 193 L593 192 L592 182 L590 177 L586 156 L580 137 L577 131 L577 128 L570 114 L567 111 L565 106 L561 101 L559 97 Z M558 96 L559 95 L560 96 L559 97 Z M557 95 L558 94 L559 95 L558 96 Z M556 94 L557 93 L558 94 L557 95 Z M543 90 L544 89 L545 90 L544 91 Z M549 88 L555 94 L567 111 L575 127 L583 151 L589 175 L589 180 L591 185 L594 209 L595 210 L595 216 L596 217 L597 233 L598 234 L598 246 L599 247 L599 260 L598 261 L598 267 L596 270 L597 274 L592 284 L586 292 L580 298 L570 297 L565 295 L567 294 L571 288 L571 286 L575 279 L577 271 L580 270 L578 267 L579 265 L579 256 L578 256 L577 266 L574 269 L576 271 L571 282 L570 287 L567 290 L564 296 L562 295 L558 295 L559 297 L572 298 L585 301 L599 307 L605 314 L606 317 L606 323 L605 324 L590 318 L566 315 L563 312 L551 305 L547 301 L540 307 L525 315 L512 315 L511 316 L494 319 L488 322 L485 321 L486 313 L493 305 L506 300 L527 297 L527 296 L515 297 L507 289 L514 296 L513 297 L494 301 L482 288 L477 277 L478 273 L476 271 L477 247 L478 246 L478 239 L479 238 L482 215 L483 214 L483 210 L485 205 L488 188 L496 162 L498 159 L504 141 L514 121 L521 110 L536 94 L542 90 L544 91 L536 100 L536 102 L534 103 L532 108 L535 103 L546 91 L548 99 L548 117 L549 118 L548 120 L549 120 L549 113 L550 112 L550 108 L549 107 L549 91 L548 90 Z M549 84 L546 84 L538 88 L530 94 L519 106 L511 118 L498 145 L486 181 L482 197 L478 221 L477 222 L477 228 L476 229 L475 242 L474 243 L474 251 L473 252 L473 275 L475 282 L484 297 L491 303 L484 309 L482 313 L481 324 L469 331 L449 348 L430 369 L428 368 L425 363 L427 358 L427 355 L425 352 L405 341 L401 342 L386 357 L369 377 L347 406 L333 427 L311 467 L304 489 L304 495 L302 497 L290 501 L285 505 L283 509 L283 516 L282 517 L282 524 L283 525 L281 532 L280 570 L279 571 L279 600 L278 601 L278 657 L279 658 L279 673 L270 677 L268 679 L268 683 L267 684 L267 689 L268 690 L268 736 L269 737 L271 818 L272 819 L272 826 L276 830 L273 834 L273 851 L274 852 L274 865 L275 866 L278 936 L279 937 L279 952 L280 953 L281 983 L282 984 L282 997 L283 998 L285 1033 L286 1034 L286 1040 L290 1055 L294 1063 L300 1069 L305 1072 L313 1073 L314 1074 L338 1074 L339 1073 L343 1073 L344 1074 L346 1085 L352 1104 L364 1134 L374 1154 L386 1174 L398 1191 L412 1208 L432 1228 L459 1248 L484 1261 L505 1268 L519 1270 L520 1271 L527 1271 L528 1272 L558 1272 L559 1271 L566 1271 L567 1270 L577 1269 L588 1265 L591 1265 L618 1253 L642 1237 L656 1225 L673 1207 L687 1189 L705 1161 L722 1126 L729 1105 L731 1102 L731 1099 L737 1083 L737 1080 L739 1078 L746 1080 L765 1080 L766 1079 L775 1078 L779 1076 L788 1066 L792 1055 L793 1046 L794 1045 L796 1020 L797 1019 L797 1010 L798 1009 L798 999 L799 998 L799 988 L800 987 L800 978 L801 977 L801 967 L802 966 L804 933 L805 932 L808 882 L809 881 L809 868 L810 867 L810 853 L811 852 L811 841 L808 837 L812 832 L812 823 L813 822 L815 766 L816 765 L816 742 L817 741 L817 715 L818 714 L818 686 L814 682 L805 681 L804 680 L804 676 L805 675 L805 643 L806 642 L806 603 L805 602 L804 548 L803 547 L803 534 L802 533 L802 519 L801 515 L796 509 L780 501 L779 492 L773 473 L753 435 L724 390 L710 371 L690 347 L687 345 L683 345 L664 355 L661 358 L661 367 L658 370 L634 344 L610 325 L610 316 L607 310 L601 304 L610 295 L616 284 L619 273 L619 255 L618 254 L618 242 L617 241 L617 234 L616 233 L613 208 L611 203 L610 194 L605 174 L597 149 L591 134 L581 114 L566 95 L557 88 Z" fill="#eef3f4" fill-rule="evenodd"/>
</svg>
