<svg xmlns="http://www.w3.org/2000/svg" width="1254" height="1254" viewBox="0 0 1254 1254">
  <title>0302</title>
  <path d="M626 1106 L630 1106 L633 1109 L634 1122 L631 1124 L628 1124 L624 1121 L625 1120 L629 1120 L630 1121 L629 1119 L624 1119 L623 1118 L623 1108 Z M721 1096 L722 1095 L723 1097 L722 1098 Z M723 1008 L724 1009 L723 1010 L724 1011 L723 1013 L724 1017 L724 1047 L723 1048 L722 1071 L721 1072 L720 1071 L720 1009 Z M542 1006 L543 1007 L543 1012 L542 1013 L543 1029 L542 1030 L541 1057 L540 1058 L540 1065 L539 1066 L538 1065 L539 1012 L540 1011 L540 1007 Z M711 1001 L712 1000 L724 1000 L725 1001 L725 1006 L724 1007 L713 1007 L711 1005 Z M532 999 L533 998 L547 998 L548 1002 L544 1005 L535 1005 L532 1002 Z M543 995 L545 993 L547 994 L546 997 L544 997 Z M725 981 L726 982 L726 986 L725 987 L724 986 L724 982 Z M724 978 L725 977 L726 978 L725 979 Z M725 975 L726 974 L727 976 L726 977 Z M714 963 L715 972 L717 977 L717 998 L716 999 L711 999 L709 1002 L709 1005 L713 1009 L717 1008 L718 1009 L718 1036 L719 1037 L719 1042 L718 1043 L718 1070 L719 1071 L719 1091 L720 1092 L720 1103 L721 1104 L721 1111 L718 1115 L706 1118 L688 1118 L687 1119 L659 1121 L658 1122 L636 1123 L635 1122 L636 1121 L634 1114 L634 1108 L631 1105 L625 1105 L621 1109 L622 1120 L624 1123 L623 1124 L599 1124 L598 1123 L584 1123 L583 1122 L572 1121 L559 1116 L542 1106 L539 1097 L539 1087 L540 1086 L540 1077 L541 1076 L541 1069 L542 1068 L542 1062 L544 1054 L544 1027 L545 1026 L545 1019 L546 1018 L545 1006 L549 1003 L549 995 L548 993 L544 991 L544 977 L546 971 L560 976 L570 977 L571 978 L596 979 L597 980 L618 980 L619 979 L654 977 L661 975 L673 974 L693 969 L697 967 L700 967 L713 962 Z M712 925 L713 926 L713 943 L712 944 L711 943 L711 926 Z M733 923 L734 924 L733 927 L732 926 Z M736 912 L737 913 L737 918 L734 924 L732 922 L732 913 Z M620 912 L621 911 L625 911 L626 912 L625 913 L621 913 Z M540 910 L545 911 L552 916 L549 920 L550 943 L549 944 L548 956 L546 960 L546 964 L542 978 L542 994 L541 995 L540 994 L540 964 L539 963 L539 939 L538 938 L538 912 Z M735 910 L736 909 L737 910 L736 911 Z M712 910 L711 923 L709 929 L709 943 L710 944 L711 955 L713 960 L705 964 L670 973 L649 975 L648 976 L626 977 L625 978 L590 978 L589 977 L569 976 L549 971 L546 969 L548 966 L552 952 L551 920 L554 916 L556 916 L563 921 L572 922 L573 923 L598 925 L599 926 L610 926 L611 927 L633 927 L634 926 L659 925 L667 923 L681 922 L697 918 L702 916 L711 909 Z M707 910 L704 913 L698 916 L695 916 L687 919 L663 922 L662 923 L640 924 L639 925 L605 925 L604 924 L595 924 L594 923 L570 921 L568 919 L574 910 L589 912 L590 913 L618 915 L619 916 L651 916 L652 915 L675 914 L676 913 L682 913 L683 912 L688 912 L701 909 L706 909 Z M706 909 L707 908 L708 909 L707 910 Z M737 906 L738 905 L739 906 L738 907 Z M730 903 L733 904 L736 907 L730 913 L730 946 L727 958 L726 970 L723 976 L723 997 L721 998 L719 993 L719 979 L718 978 L715 957 L714 956 L714 922 L715 921 L715 916 L714 915 L713 907 L717 905 Z M568 904 L572 903 L587 907 L612 909 L618 911 L617 912 L610 912 L609 911 L592 910 L591 909 L580 908 Z M565 903 L566 902 L569 903 L568 904 Z M563 902 L564 901 L565 902 L564 903 Z M562 901 L563 900 L564 901 L563 902 Z M559 900 L560 899 L562 900 L561 901 Z M538 903 L542 899 L544 899 L554 904 L570 908 L572 910 L565 920 L555 914 L554 915 L547 910 L539 909 L538 908 Z M557 899 L558 898 L560 899 L559 900 Z M555 898 L556 897 L557 898 L556 899 Z M550 898 L551 897 L553 898 L552 899 Z M544 884 L539 889 L539 892 Z M735 879 L736 878 L737 879 L736 880 Z M529 879 L530 878 L532 879 L531 880 Z M734 878 L735 877 L736 878 L735 879 Z M733 877 L734 876 L735 877 L734 878 Z M730 875 L731 874 L732 875 L731 876 Z M729 874 L730 873 L731 874 L730 875 Z M728 873 L729 872 L730 873 L729 874 Z M727 872 L728 871 L729 872 L728 873 Z M726 871 L727 870 L728 871 L727 872 Z M725 870 L726 869 L727 870 L726 871 Z M724 869 L725 868 L726 869 L725 870 Z M723 868 L724 867 L725 868 L724 869 Z M722 867 L723 866 L724 867 L723 868 Z M721 866 L722 865 L723 866 L722 867 Z M403 864 L404 865 L403 868 L402 867 Z M407 854 L410 860 L405 865 L404 864 L404 857 Z M600 847 L601 846 L608 846 L609 847 L608 848 L601 848 Z M612 846 L613 845 L621 845 L622 846 L621 847 L613 847 Z M673 845 L674 844 L675 845 L674 846 Z M584 845 L585 844 L589 844 L595 846 L594 847 L589 847 Z M580 844 L581 843 L583 844 L582 845 Z M656 843 L657 842 L658 843 L657 844 Z M578 843 L579 842 L580 843 L579 844 Z M617 843 L620 841 L632 841 L633 842 L646 841 L647 842 L643 844 L618 844 Z M654 841 L656 840 L657 842 L655 843 Z M607 842 L609 840 L613 840 L614 841 L610 843 Z M605 841 L604 844 L601 844 L597 842 L604 840 Z M691 840 L692 839 L693 840 L692 841 Z M644 840 L645 839 L651 839 L652 842 L649 843 Z M589 842 L593 839 L597 839 L598 840 L592 843 Z M692 839 L693 838 L694 839 L693 840 Z M658 840 L660 838 L675 838 L681 841 L680 842 L662 842 L661 843 Z M597 839 L598 838 L602 838 L603 839 L602 840 L598 840 Z M572 838 L573 837 L574 838 L573 839 Z M571 836 L572 835 L573 836 L572 837 Z M570 833 L571 832 L572 834 L571 835 Z M638 832 L639 831 L640 832 L639 833 Z M922 820 L923 819 L924 820 L923 821 Z M906 812 L911 817 L916 820 L916 824 L910 841 L904 818 L904 814 Z M560 812 L561 813 L560 816 L559 815 Z M904 811 L905 810 L906 811 L905 812 Z M561 809 L562 810 L561 813 L560 812 Z M707 808 L708 807 L709 808 L708 809 Z M561 808 L562 807 L563 809 L562 810 Z M562 806 L563 805 L564 807 L563 808 Z M563 805 L564 804 L565 805 L564 806 Z M564 803 L565 802 L566 803 L565 804 Z M605 801 L606 800 L607 801 L606 802 Z M654 800 L655 799 L656 800 L655 801 Z M604 800 L605 799 L606 800 L605 801 Z M603 799 L604 798 L605 799 L604 800 Z M602 798 L603 797 L604 798 L603 799 Z M430 783 L440 784 L456 791 L462 795 L473 806 L480 816 L489 833 L494 849 L494 855 L495 856 L494 888 L493 889 L492 899 L486 917 L474 944 L468 951 L464 954 L458 956 L454 956 L445 951 L435 940 L428 927 L422 903 L421 879 L422 878 L422 868 L425 856 L431 849 L434 849 L442 856 L446 864 L448 871 L448 877 L449 878 L449 891 L448 892 L443 888 L437 872 L433 870 L429 875 L428 883 L427 884 L428 901 L431 913 L438 926 L445 932 L450 932 L456 926 L464 910 L470 888 L471 868 L470 867 L469 854 L465 841 L458 829 L450 821 L443 817 L433 816 L427 819 L421 826 L415 839 L410 859 L407 852 L407 829 L408 828 L408 823 L409 822 L411 809 L415 798 L419 791 L425 785 Z M603 777 L602 777 L601 787 L602 787 Z M393 775 L396 788 L396 801 L397 802 L396 824 L394 829 L390 834 L381 836 L380 835 L388 828 L392 818 L392 812 L393 811 L393 783 L392 782 L392 776 Z M873 773 L879 776 L885 782 L892 796 L896 812 L896 826 L895 827 L894 842 L893 843 L892 842 L892 839 L883 819 L875 810 L862 805 L854 805 L844 808 L833 817 L826 827 L820 839 L817 849 L816 864 L817 865 L817 877 L818 878 L820 897 L823 906 L831 919 L837 925 L843 928 L851 926 L861 916 L865 907 L868 896 L868 891 L869 890 L868 880 L866 875 L862 872 L859 874 L857 878 L856 885 L853 893 L850 896 L845 893 L848 882 L852 854 L855 848 L858 845 L863 844 L868 847 L873 856 L876 869 L876 899 L875 900 L875 905 L870 923 L865 933 L860 940 L848 952 L839 956 L831 956 L820 951 L808 939 L799 923 L791 900 L789 886 L788 885 L788 879 L787 878 L787 859 L788 858 L789 844 L796 821 L804 805 L818 789 L827 782 L836 778 L839 778 L851 774 L862 773 L863 772 Z M905 770 L906 771 L906 792 L908 800 L915 812 L923 819 L922 820 L919 820 L913 817 L908 812 L905 806 L904 795 L903 794 L904 771 Z M392 760 L393 761 L393 771 L392 772 L391 771 L391 761 Z M906 748 L907 749 L907 767 L906 768 L905 767 L905 749 Z M661 739 L662 738 L663 740 L662 741 Z M447 734 L448 733 L449 734 L448 735 Z M440 728 L441 727 L442 728 L441 729 Z M429 728 L430 727 L431 728 L430 729 Z M855 727 L856 726 L857 727 L856 728 Z M426 726 L427 725 L428 727 L427 728 Z M442 727 L446 724 L449 725 L448 727 L445 728 Z M579 723 L580 722 L584 723 L583 724 Z M676 721 L677 720 L679 721 L678 722 Z M836 720 L837 719 L838 720 L837 721 Z M679 720 L680 719 L683 720 L682 721 Z M683 719 L684 718 L687 719 L686 720 Z M830 718 L833 717 L836 719 L833 720 Z M686 718 L687 717 L690 718 L689 719 Z M659 715 L660 716 L659 720 L658 719 Z M429 714 L430 715 L430 724 L428 726 L427 725 L427 719 Z M810 713 L812 711 L820 712 L831 717 L827 718 L823 716 Z M391 710 L392 711 L392 750 L391 751 L390 750 L390 711 Z M838 710 L839 709 L844 709 L850 711 L857 720 L860 726 L858 727 L855 725 L856 726 L854 727 L838 716 L841 713 Z M831 712 L833 709 L836 710 L839 713 L836 715 Z M658 709 L659 710 L659 714 L658 715 L657 714 L657 710 Z M657 701 L658 702 L658 707 L657 708 L656 707 L656 702 Z M447 701 L448 702 L447 706 L447 720 L448 721 L434 730 L432 730 L431 729 L433 728 L431 728 L430 727 L431 726 L436 726 L439 724 L443 708 L444 707 L445 708 L444 706 Z M906 700 L907 699 L908 700 L907 701 Z M907 699 L908 698 L909 699 L908 700 Z M448 697 L449 698 L448 701 L447 700 Z M905 696 L906 695 L907 697 L906 698 Z M656 694 L657 695 L656 699 L655 698 Z M449 693 L450 694 L449 697 L448 696 Z M449 692 L450 691 L451 692 L450 693 Z M450 688 L451 687 L452 689 L451 690 Z M593 685 L600 691 L594 719 L592 723 L589 724 L584 721 L582 721 L581 719 L585 712 L587 702 Z M904 685 L905 684 L906 685 L905 686 Z M451 684 L452 683 L453 684 L452 685 Z M599 681 L600 680 L601 681 L600 682 Z M594 679 L600 684 L599 688 L593 683 Z M591 677 L592 676 L593 678 L592 679 Z M896 674 L897 673 L898 674 L897 675 Z M388 673 L390 676 L391 682 L393 686 L393 693 L391 696 L387 684 L387 674 Z M665 669 L667 672 L669 683 L672 691 L678 699 L683 710 L687 715 L684 717 L671 721 L667 724 L662 720 L661 717 L659 697 L658 696 L658 688 L657 687 L661 676 Z M390 668 L391 669 L390 673 L389 672 Z M599 666 L601 668 L601 679 L599 681 L595 677 L596 672 Z M904 664 L905 665 L905 670 L904 671 L903 670 L903 665 Z M895 665 L898 664 L901 669 L899 671 L896 671 L895 670 Z M664 664 L665 667 L658 679 L657 675 L660 671 L661 667 Z M660 664 L661 666 L658 670 L657 669 L657 665 Z M600 663 L601 664 L600 667 L599 666 Z M895 661 L896 660 L897 662 L896 663 Z M663 658 L664 661 L662 664 L659 661 Z M394 658 L395 659 L394 660 L395 661 L395 667 L393 669 L391 664 L392 663 L392 659 Z M826 656 L827 657 L826 661 L825 660 Z M664 654 L665 655 L664 659 L663 658 Z M660 652 L661 653 L661 658 L659 659 L658 655 Z M418 650 L417 653 L408 653 L407 652 L410 650 L416 650 L417 649 Z M395 649 L396 650 L396 655 L394 656 L393 655 L393 651 Z M586 649 L587 648 L588 649 L587 650 Z M824 647 L826 651 L826 656 L825 657 L823 652 L823 648 Z M598 646 L599 647 L598 648 L599 649 L599 662 L593 676 L592 675 L591 647 L592 646 Z M398 646 L399 647 L399 695 L398 696 L398 706 L399 707 L399 757 L400 758 L400 781 L401 782 L401 807 L402 808 L402 819 L403 820 L403 830 L400 839 L398 833 L398 824 L399 823 L398 819 L398 793 L397 792 L396 775 L394 772 L393 712 L390 707 L390 701 L395 692 L393 679 L392 678 L392 672 L396 668 L397 665 L397 647 Z M632 645 L633 646 L633 653 L632 654 L631 653 L631 646 Z M904 644 L905 645 L905 654 L904 655 L903 654 L903 645 Z M408 645 L409 644 L416 644 L418 647 L416 649 L411 648 Z M404 644 L406 644 L410 648 L405 653 L402 651 L402 647 Z M463 643 L464 644 L463 649 L461 651 L459 651 L458 650 L458 645 L460 643 Z M821 641 L822 640 L823 642 L822 643 Z M820 639 L821 638 L822 640 L821 641 Z M584 639 L588 636 L596 636 L599 644 L598 645 L587 646 L585 644 Z M465 635 L466 634 L467 635 L466 636 Z M467 630 L468 629 L469 630 L468 631 Z M633 628 L634 629 L634 635 L633 636 L632 635 L632 629 Z M816 627 L821 633 L822 637 L820 639 L816 634 L815 631 Z M592 627 L593 626 L594 627 L593 628 Z M668 625 L669 627 L665 639 L664 653 L663 654 L660 648 L660 645 L665 627 Z M815 624 L816 625 L815 628 L814 627 Z M810 624 L813 626 L815 635 L821 643 L822 654 L826 666 L826 677 L829 686 L829 691 L832 702 L832 707 L830 712 L819 710 L813 707 L815 703 L815 698 L816 697 L816 669 L815 668 L814 650 L811 638 L811 632 L809 627 Z M396 624 L397 625 L397 643 L396 644 L397 645 L393 649 L392 648 L392 627 L394 624 Z M634 622 L635 623 L635 628 L634 629 L633 628 L633 623 Z M395 623 L396 622 L397 623 L396 624 Z M580 621 L582 620 L594 631 L594 633 L596 634 L595 635 L590 635 L587 631 L586 626 L585 628 Z M360 621 L351 623 L350 625 Z M579 620 L580 619 L581 620 L580 621 Z M578 619 L579 618 L580 619 L579 620 Z M577 618 L578 617 L579 618 L578 619 Z M576 617 L577 616 L578 617 L577 618 Z M515 617 L516 616 L517 618 L516 619 Z M669 615 L672 617 L672 620 L670 624 L666 624 L665 623 Z M635 615 L636 616 L635 619 L634 618 Z M949 615 L950 614 L953 615 L951 617 Z M805 615 L806 614 L813 614 L815 617 L815 621 L813 623 L808 623 L806 620 Z M388 614 L391 618 L391 635 L390 636 L390 649 L389 650 L389 659 L388 660 L387 659 L387 615 Z M515 613 L516 614 L515 617 L514 616 Z M526 609 L527 610 L527 617 L522 621 L518 621 L516 619 L517 618 L517 612 L522 609 Z M528 609 L529 608 L530 610 L529 611 Z M391 607 L392 608 L392 612 L390 615 L389 611 Z M512 601 L516 602 L514 605 L513 618 L517 622 L523 622 L528 618 L531 613 L531 607 L529 604 L530 601 L540 602 L562 608 L570 612 L577 619 L579 623 L586 631 L583 635 L583 644 L585 650 L587 652 L589 650 L590 651 L590 663 L591 664 L590 680 L589 681 L589 686 L588 687 L585 707 L583 713 L569 735 L560 744 L546 754 L533 759 L528 759 L527 760 L514 760 L513 759 L499 759 L496 760 L495 759 L488 759 L468 754 L456 746 L451 735 L450 722 L449 721 L449 704 L457 675 L457 671 L466 644 L466 640 L474 622 L478 616 L485 609 L500 603 L511 602 Z M800 600 L803 602 L808 610 L807 613 L805 613 L803 611 L803 609 L799 602 Z M677 601 L678 600 L679 601 L678 602 Z M798 600 L799 599 L800 600 L799 601 Z M678 600 L679 599 L680 600 L679 601 Z M526 600 L528 603 L528 606 L526 608 L520 609 L516 612 L515 609 L516 608 L516 604 L518 601 L522 599 Z M679 599 L680 598 L681 599 L680 600 Z M680 598 L681 597 L682 598 L681 599 Z M637 596 L638 595 L639 596 L638 597 Z M681 597 L683 594 L685 595 L682 598 Z M845 593 L846 594 L845 597 L844 596 Z M684 594 L685 593 L686 594 L685 595 Z M685 593 L687 591 L689 592 L687 594 Z M688 591 L689 590 L690 591 L689 592 Z M638 591 L639 590 L640 592 L639 593 Z M733 589 L736 593 L735 595 L732 591 Z M690 590 L691 589 L692 590 L691 591 Z M747 589 L747 591 L744 595 L740 595 L737 593 L740 590 L743 590 L746 588 Z M692 589 L693 588 L694 589 L693 590 Z M639 587 L640 586 L641 587 L640 588 Z M691 586 L692 585 L693 586 L692 587 Z M482 608 L493 597 L509 588 L521 585 L539 585 L552 588 L561 593 L568 595 L574 599 L585 610 L593 625 L592 626 L574 612 L566 608 L542 601 L531 600 L524 598 L520 598 L517 600 L503 601 L490 605 L484 609 Z M732 582 L735 587 L734 588 L731 587 L731 583 Z M640 583 L641 582 L642 584 L641 585 Z M773 581 L774 580 L776 581 L775 582 Z M771 580 L772 579 L774 580 L773 581 Z M770 581 L782 586 L788 590 L794 596 L801 608 L803 616 L809 630 L811 646 L812 647 L813 661 L814 662 L814 676 L815 677 L815 693 L814 694 L814 701 L812 709 L807 715 L793 723 L786 725 L776 731 L772 731 L756 736 L726 738 L711 734 L700 728 L691 718 L683 707 L680 699 L676 695 L670 681 L667 669 L667 663 L666 662 L666 643 L670 627 L673 623 L673 613 L678 604 L693 590 L706 584 L709 584 L717 581 L729 580 L730 581 L730 585 L728 588 L735 596 L744 597 L748 594 L748 586 L744 580 L745 579 L761 579 L762 580 Z M732 581 L734 579 L741 579 L745 583 L746 587 L744 589 L738 590 L735 583 Z M641 580 L642 579 L643 581 L642 582 Z M768 579 L769 578 L771 579 L770 580 Z M642 577 L643 576 L644 578 L643 579 Z M769 578 L765 579 L764 578 L757 578 L756 577 L737 577 L736 578 L716 579 L695 586 L692 585 L697 581 L707 576 L731 570 L759 574 Z M596 571 L597 570 L598 571 L597 572 Z M595 569 L596 568 L597 569 L596 570 Z M645 567 L646 566 L647 568 L646 569 Z M594 566 L595 565 L596 567 L595 568 Z M647 563 L648 564 L647 567 L646 566 Z M916 547 L917 548 L911 557 L909 555 L910 561 L907 567 L907 570 L905 574 L905 580 L904 581 L904 603 L905 604 L905 631 L904 632 L903 631 L903 613 L902 612 L902 604 L901 603 L901 584 L900 580 L907 554 L910 552 L911 549 Z M916 547 L917 546 L918 547 L917 548 Z M370 544 L374 546 L380 553 L386 572 L387 596 L386 597 L386 614 L385 615 L385 655 L386 656 L385 676 L386 677 L386 686 L390 697 L389 700 L387 699 L384 694 L382 688 L381 673 L380 672 L380 662 L379 661 L380 593 L381 592 L380 570 L377 558 L369 545 Z M925 543 L935 543 L936 544 L928 548 L920 556 L918 560 L913 578 L912 588 L911 589 L911 596 L910 597 L910 618 L911 619 L911 624 L912 625 L913 634 L918 645 L921 656 L922 654 L920 646 L915 636 L915 631 L912 621 L911 603 L912 602 L913 586 L914 585 L917 568 L922 556 L929 549 L939 545 L945 547 L950 552 L952 556 L952 560 L954 566 L955 579 L956 580 L956 593 L957 594 L955 612 L954 613 L944 612 L945 614 L948 615 L952 619 L951 698 L952 699 L952 715 L953 716 L953 726 L954 727 L955 746 L956 747 L956 787 L955 788 L954 799 L950 810 L946 817 L942 821 L938 823 L928 821 L922 817 L916 811 L909 799 L908 785 L907 784 L908 763 L909 762 L909 751 L907 743 L908 708 L905 703 L912 699 L916 694 L921 681 L921 678 L920 678 L915 693 L909 699 L907 691 L906 577 L911 561 L915 553 Z M911 543 L912 544 L911 548 L910 547 Z M374 543 L380 544 L387 549 L391 562 L391 568 L392 569 L392 585 L391 586 L391 602 L390 603 L391 604 L388 610 L387 609 L388 605 L388 575 L387 574 L387 569 L383 556 L377 547 L378 546 L377 547 L373 544 Z M367 544 L368 543 L370 544 L369 545 Z M359 543 L365 544 L370 548 L376 559 L378 567 L378 573 L379 574 L379 621 L378 622 L377 656 L378 657 L378 667 L379 668 L379 682 L383 694 L388 701 L388 708 L389 709 L388 733 L389 734 L389 760 L390 761 L390 777 L391 778 L391 815 L387 827 L381 833 L374 837 L372 837 L366 831 L364 827 L360 811 L360 803 L359 802 L357 786 L356 785 L355 758 L354 757 L353 674 L351 666 L352 665 L357 669 L358 668 L353 665 L350 661 L350 657 L349 656 L349 640 L348 639 L348 624 L347 623 L347 618 L351 615 L355 614 L367 615 L367 614 L364 613 L354 613 L350 615 L348 614 L350 611 L352 612 L350 611 L348 606 L347 596 L346 595 L346 560 L350 550 L355 545 Z M710 537 L708 537 L692 553 L686 561 L678 575 L672 594 L674 592 L680 574 L685 565 L693 554 Z M670 485 L671 484 L672 486 L671 487 Z M526 454 L527 453 L530 454 L529 455 Z M684 440 L684 441 L687 442 L683 446 L679 460 L672 477 L674 475 L679 464 L684 449 L684 446 L688 443 L706 443 L707 444 L725 446 L726 447 L730 447 L753 453 L761 454 L790 463 L793 465 L807 469 L822 476 L843 490 L860 507 L865 514 L875 533 L880 548 L884 565 L885 576 L886 577 L886 586 L887 587 L887 594 L888 595 L888 607 L889 608 L889 656 L890 657 L890 694 L891 695 L891 787 L890 788 L886 781 L880 775 L871 771 L859 771 L858 772 L841 775 L829 779 L817 788 L810 795 L802 806 L794 822 L790 834 L787 847 L787 852 L786 853 L785 870 L786 871 L786 882 L787 883 L788 894 L797 922 L803 934 L807 940 L822 954 L834 958 L841 957 L849 953 L860 942 L866 934 L870 926 L877 902 L877 892 L878 891 L877 867 L876 866 L875 858 L871 849 L864 843 L857 844 L853 849 L851 854 L850 864 L847 876 L847 882 L844 894 L849 898 L854 894 L858 878 L861 874 L863 874 L865 876 L867 882 L867 895 L864 906 L858 918 L853 923 L847 926 L842 926 L838 924 L831 917 L823 903 L820 891 L819 878 L818 877 L818 850 L822 837 L832 820 L843 810 L852 807 L865 807 L869 808 L874 811 L880 817 L890 838 L891 857 L892 858 L891 869 L894 851 L895 850 L894 844 L896 839 L896 832 L897 831 L897 817 L898 815 L897 814 L896 804 L893 797 L893 716 L892 715 L892 670 L891 669 L891 619 L890 618 L890 599 L889 598 L887 568 L884 558 L883 548 L869 518 L860 505 L845 490 L821 474 L806 467 L794 464 L783 459 L750 450 L746 450 L737 447 L716 444 L710 442 Z M682 444 L678 440 L674 440 L673 439 L630 437 L629 438 L611 438 L610 439 L601 439 L600 440 L591 440 L590 441 L577 442 L562 446 L547 448 L542 450 L554 449 L578 443 L602 441 L603 440 L612 440 L613 439 L671 440 L672 441 L677 441 Z M479 427 L516 415 L532 411 L541 410 L546 408 L564 406 L565 405 L572 405 L573 404 L598 403 L599 402 L661 402 L662 403 L677 403 L678 404 L688 404 L689 405 L697 405 L698 406 L719 408 L720 409 L725 409 L726 410 L731 410 L732 411 L737 411 L742 413 L751 414 L771 419 L781 423 L784 423 L806 431 L834 445 L854 458 L874 475 L884 486 L894 500 L905 521 L910 536 L910 540 L909 541 L909 547 L905 554 L899 577 L899 597 L900 598 L900 611 L901 612 L901 621 L902 622 L902 664 L901 665 L897 658 L894 657 L894 673 L896 676 L898 676 L899 673 L901 671 L902 672 L903 698 L904 699 L904 706 L905 707 L904 762 L903 763 L903 778 L902 779 L902 800 L904 806 L903 809 L903 819 L907 832 L908 843 L909 844 L909 849 L906 861 L892 905 L890 908 L882 932 L850 993 L826 1023 L781 1074 L767 1087 L754 1095 L743 1100 L730 1102 L726 1099 L723 1093 L723 1067 L724 1066 L726 1031 L727 1030 L727 982 L742 974 L758 958 L761 957 L769 944 L771 934 L773 930 L773 923 L772 922 L772 918 L768 910 L759 898 L739 880 L718 858 L715 851 L716 827 L712 811 L704 797 L697 790 L691 786 L689 786 L693 788 L706 802 L707 813 L708 814 L708 836 L707 839 L709 837 L709 832 L710 831 L710 822 L709 821 L708 810 L709 809 L711 812 L714 824 L714 839 L712 843 L711 842 L711 849 L716 861 L720 867 L730 877 L739 884 L745 887 L758 899 L768 913 L771 920 L771 931 L768 942 L765 948 L745 970 L730 979 L728 978 L730 960 L731 959 L733 933 L739 917 L739 913 L737 910 L739 904 L731 900 L727 896 L716 892 L691 892 L672 885 L662 886 L652 892 L644 893 L643 894 L627 893 L610 885 L606 885 L588 891 L572 889 L571 888 L555 888 L551 890 L568 889 L581 892 L592 892 L605 887 L611 887 L628 895 L642 896 L643 895 L651 894 L664 887 L674 887 L693 894 L704 894 L705 893 L719 894 L726 897 L728 899 L725 901 L720 901 L698 907 L668 909 L667 910 L630 911 L629 910 L620 910 L607 907 L598 907 L597 906 L584 905 L572 902 L546 893 L546 895 L550 896 L551 897 L550 898 L547 898 L538 894 L535 896 L539 897 L535 902 L535 910 L534 911 L534 916 L535 917 L536 974 L537 977 L536 978 L530 973 L521 969 L510 959 L505 952 L498 938 L498 935 L496 931 L496 914 L500 905 L517 886 L525 881 L527 882 L529 881 L536 881 L537 880 L536 879 L532 879 L531 878 L537 874 L547 863 L548 864 L555 843 L556 826 L557 825 L558 816 L559 815 L560 816 L559 834 L561 840 L561 824 L562 823 L563 812 L567 802 L573 795 L572 794 L577 790 L575 790 L565 799 L559 809 L555 822 L553 844 L547 860 L536 873 L516 885 L507 894 L505 898 L497 907 L494 916 L494 928 L502 950 L508 959 L516 967 L525 973 L532 976 L537 983 L537 995 L532 997 L530 1000 L531 1004 L537 1007 L536 1008 L536 1026 L535 1027 L535 1079 L532 1080 L524 1075 L504 1060 L478 1038 L456 1016 L443 997 L429 968 L420 943 L407 892 L406 883 L403 873 L403 868 L412 861 L413 851 L419 832 L423 825 L429 819 L435 817 L442 818 L448 821 L458 831 L463 840 L468 856 L468 862 L469 863 L469 885 L462 911 L455 925 L449 931 L443 929 L438 924 L431 911 L431 907 L429 902 L428 884 L429 883 L430 875 L433 872 L435 872 L437 874 L441 887 L443 890 L448 894 L451 890 L450 875 L447 863 L443 855 L435 848 L430 848 L426 852 L424 856 L421 869 L420 885 L421 886 L421 902 L422 903 L423 914 L426 924 L431 935 L436 943 L443 951 L450 956 L460 957 L469 952 L475 945 L488 916 L493 901 L494 893 L495 892 L495 886 L496 885 L496 851 L491 834 L484 820 L473 804 L460 792 L445 784 L439 782 L428 782 L424 784 L419 789 L413 800 L406 828 L405 854 L402 857 L401 856 L401 845 L400 842 L404 830 L404 818 L403 817 L403 807 L402 806 L402 776 L401 775 L401 753 L400 752 L400 706 L399 705 L399 700 L400 699 L400 652 L401 651 L404 655 L409 655 L410 654 L417 655 L419 653 L418 642 L415 643 L407 643 L405 642 L400 648 L399 647 L400 597 L401 596 L401 582 L402 581 L403 566 L405 558 L405 548 L410 532 L421 512 L429 503 L459 477 L485 466 L523 454 L526 454 L527 455 L526 456 L530 456 L539 453 L546 453 L553 457 L554 465 L558 474 L559 480 L562 485 L574 515 L584 534 L584 537 L591 552 L595 565 L594 566 L587 556 L577 546 L567 539 L547 529 L528 523 L505 522 L504 523 L496 524 L477 533 L467 540 L455 552 L450 559 L444 571 L438 595 L434 606 L431 619 L430 637 L429 638 L429 651 L428 652 L429 703 L428 704 L428 713 L426 719 L426 729 L427 730 L425 737 L420 742 L414 745 L414 746 L418 745 L427 738 L426 736 L429 728 L432 732 L448 728 L449 729 L448 732 L446 732 L430 740 L424 744 L422 747 L435 739 L439 739 L447 736 L450 736 L452 742 L456 748 L463 753 L476 758 L490 760 L491 761 L504 761 L508 760 L516 762 L531 761 L539 759 L547 755 L561 745 L570 736 L578 725 L589 725 L591 726 L593 724 L598 712 L598 708 L601 698 L601 691 L603 688 L604 689 L603 732 L602 733 L600 751 L598 756 L598 763 L593 782 L596 778 L599 756 L601 751 L602 740 L604 734 L604 723 L605 722 L605 690 L604 689 L604 680 L602 676 L602 658 L601 657 L599 638 L595 625 L586 609 L571 595 L548 585 L526 583 L525 584 L518 584 L510 586 L492 596 L480 608 L469 624 L464 634 L463 640 L458 642 L456 645 L456 649 L458 651 L459 655 L450 683 L449 690 L443 707 L440 712 L438 722 L434 726 L431 724 L430 695 L431 694 L433 696 L433 697 L431 689 L431 673 L432 672 L432 661 L437 643 L438 635 L441 628 L442 622 L452 601 L466 578 L476 567 L488 560 L501 557 L507 557 L508 556 L529 556 L530 557 L536 557 L537 558 L545 559 L554 562 L570 571 L579 580 L592 602 L585 587 L579 578 L571 570 L562 564 L544 557 L540 557 L534 555 L525 555 L524 554 L503 555 L487 559 L479 563 L468 573 L452 598 L441 621 L436 637 L435 646 L432 654 L431 664 L430 665 L429 664 L430 639 L431 638 L431 630 L432 629 L434 611 L438 600 L445 572 L452 558 L468 541 L475 536 L498 525 L511 524 L512 523 L526 524 L546 530 L566 540 L576 547 L586 557 L594 569 L600 581 L604 598 L609 612 L610 622 L611 623 L612 644 L613 645 L615 747 L616 748 L616 756 L617 757 L617 796 L618 797 L618 826 L616 830 L616 839 L614 840 L603 837 L597 837 L591 839 L587 843 L580 842 L575 839 L572 830 L574 821 L578 815 L586 807 L583 808 L576 816 L571 826 L571 832 L570 833 L569 832 L569 821 L572 812 L577 803 L583 798 L588 796 L599 797 L606 804 L607 801 L612 808 L610 803 L602 795 L590 794 L579 799 L572 806 L569 811 L567 817 L567 838 L569 845 L570 845 L570 841 L569 840 L570 837 L575 843 L588 848 L612 849 L613 848 L650 847 L651 846 L664 846 L665 847 L664 848 L656 849 L659 850 L660 849 L666 849 L668 847 L688 846 L696 842 L698 840 L701 833 L702 819 L700 811 L697 806 L689 798 L683 794 L675 791 L669 791 L662 794 L656 800 L655 799 L656 793 L661 788 L674 784 L683 784 L683 783 L672 783 L668 784 L662 788 L661 787 L659 788 L652 797 L648 814 L648 820 L649 820 L650 809 L652 805 L652 800 L653 799 L655 801 L654 803 L655 804 L665 794 L677 793 L684 797 L683 798 L680 797 L680 798 L689 806 L692 812 L694 828 L695 828 L695 819 L693 811 L690 805 L683 798 L685 797 L688 799 L696 807 L699 813 L700 826 L697 836 L687 843 L685 841 L684 843 L682 840 L676 837 L659 837 L656 839 L655 838 L646 838 L642 835 L641 832 L637 829 L636 826 L636 810 L637 809 L638 810 L638 815 L638 799 L637 798 L637 756 L636 755 L636 714 L635 713 L636 709 L635 708 L634 645 L635 644 L635 632 L636 631 L636 622 L637 621 L639 598 L649 565 L659 551 L674 536 L699 518 L713 511 L743 502 L759 501 L760 502 L776 503 L792 509 L806 517 L817 527 L824 537 L832 555 L836 571 L843 589 L845 611 L846 612 L846 606 L845 605 L845 597 L846 596 L849 604 L851 618 L853 624 L853 631 L854 632 L854 658 L853 659 L851 680 L849 682 L848 681 L848 668 L847 667 L847 647 L846 646 L845 622 L843 617 L843 613 L836 595 L837 594 L835 593 L829 579 L821 566 L807 547 L794 536 L783 530 L776 529 L767 525 L758 524 L757 523 L739 523 L738 524 L734 524 L725 527 L714 533 L712 536 L726 528 L737 525 L760 525 L761 526 L765 526 L787 534 L795 539 L814 559 L824 573 L837 600 L842 614 L843 626 L844 627 L844 635 L845 636 L845 653 L846 654 L846 668 L847 669 L847 697 L848 698 L847 704 L848 707 L847 708 L841 708 L840 707 L834 708 L833 707 L832 688 L830 687 L828 679 L828 675 L829 674 L830 675 L830 678 L828 654 L823 639 L822 632 L817 625 L817 618 L815 614 L810 612 L806 604 L792 590 L777 579 L765 573 L757 572 L752 570 L729 569 L728 570 L714 572 L703 576 L693 582 L679 596 L671 609 L668 612 L658 639 L655 651 L655 657 L654 658 L654 698 L655 699 L655 708 L656 709 L656 716 L658 722 L659 734 L662 745 L663 743 L664 744 L664 748 L669 766 L670 776 L674 781 L678 781 L674 779 L671 775 L670 764 L665 745 L665 741 L662 729 L659 723 L660 719 L662 723 L665 725 L671 725 L691 720 L700 730 L707 734 L723 739 L734 740 L735 739 L754 738 L767 735 L774 732 L778 732 L792 724 L801 721 L810 714 L822 717 L832 721 L841 722 L869 735 L868 733 L865 732 L861 728 L859 721 L852 711 L853 707 L852 706 L851 710 L849 709 L849 698 L850 697 L851 699 L849 694 L849 685 L852 680 L852 676 L853 675 L854 658 L855 657 L855 645 L856 644 L855 630 L851 613 L851 608 L847 594 L845 591 L841 577 L837 569 L829 545 L821 530 L807 516 L801 512 L784 504 L768 500 L746 500 L745 501 L740 501 L712 510 L687 524 L672 536 L658 550 L648 564 L647 560 L652 546 L653 539 L658 527 L660 516 L664 507 L664 504 L669 488 L670 487 L671 488 L673 484 L673 482 L672 484 L671 480 L670 481 L665 495 L664 502 L659 515 L655 532 L650 545 L646 562 L642 572 L641 579 L639 583 L636 596 L635 607 L634 608 L633 621 L631 628 L631 640 L630 641 L630 656 L629 657 L630 803 L631 804 L631 808 L633 801 L631 799 L631 716 L630 715 L630 660 L631 659 L632 660 L632 676 L633 677 L633 690 L634 691 L634 730 L635 731 L635 781 L636 782 L636 788 L634 789 L635 792 L635 825 L638 834 L644 838 L642 839 L644 840 L643 841 L640 840 L619 840 L617 838 L617 831 L619 826 L619 777 L618 776 L618 737 L617 736 L617 728 L616 727 L615 660 L614 659 L614 642 L613 641 L612 620 L597 565 L595 562 L593 554 L583 529 L575 514 L575 512 L568 498 L562 482 L558 475 L558 471 L556 467 L553 453 L551 455 L547 452 L537 452 L531 454 L529 452 L522 453 L468 471 L457 477 L426 504 L415 519 L410 529 L405 543 L402 555 L400 572 L399 573 L398 598 L397 599 L397 619 L395 623 L393 621 L393 605 L392 604 L393 578 L394 577 L393 575 L393 564 L390 552 L387 547 L387 538 L389 536 L393 538 L396 537 L396 528 L402 513 L409 503 L420 492 L439 478 L473 460 L506 448 L509 448 L528 442 L546 439 L551 437 L569 435 L570 434 L578 434 L579 433 L614 432 L615 431 L675 432 L676 433 L690 433 L691 434 L711 435 L712 436 L719 436 L720 437 L737 439 L743 441 L748 441 L787 451 L790 453 L803 457 L825 468 L850 484 L862 494 L877 510 L889 531 L884 518 L878 509 L857 488 L826 467 L797 453 L763 443 L754 442 L734 437 L715 435 L714 434 L695 433 L694 432 L679 432 L678 431 L657 431 L656 430 L610 430 L609 431 L576 432 L575 433 L561 434 L560 435 L555 435 L554 436 L549 436 L544 438 L535 439 L504 447 L474 458 L465 463 L463 463 L461 465 L441 475 L419 491 L409 501 L400 514 L395 526 L395 536 L393 537 L388 534 L387 538 L385 533 L385 514 L390 497 L400 481 L418 462 L437 448 L452 439 Z M879 346 L880 345 L881 346 L880 347 Z M407 334 L408 333 L409 334 L408 335 Z M382 381 L392 354 L416 330 L428 322 L455 309 L478 301 L514 292 L519 292 L520 291 L525 291 L538 288 L544 288 L545 287 L559 286 L560 285 L578 284 L579 283 L633 282 L634 283 L655 283 L656 284 L669 284 L670 285 L681 285 L682 286 L693 286 L694 287 L722 289 L723 290 L747 293 L748 294 L752 294 L753 295 L757 295 L783 301 L787 303 L794 304 L816 311 L843 323 L867 338 L880 348 L894 362 L900 370 L902 374 L902 381 L903 382 L904 405 L905 406 L905 422 L906 423 L906 445 L907 446 L907 519 L906 520 L905 519 L905 517 L900 507 L892 494 L875 474 L855 457 L840 447 L820 437 L818 435 L816 435 L799 427 L756 414 L752 414 L732 409 L715 407 L714 406 L708 406 L700 404 L691 404 L690 403 L681 403 L680 402 L666 402 L665 401 L623 400 L622 401 L595 401 L594 402 L581 402 L580 403 L564 404 L563 405 L551 406 L550 407 L523 412 L481 425 L453 437 L451 439 L444 442 L421 458 L404 474 L393 489 L389 497 L387 491 L384 461 L383 460 L380 430 L379 429 L379 421 L378 420 L378 400 L379 399 L379 393 Z M408 332 L421 306 L432 290 L433 287 L455 260 L466 249 L479 239 L508 223 L534 213 L537 213 L547 209 L550 209 L554 207 L570 203 L573 203 L579 207 L591 211 L607 213 L608 214 L614 214 L615 215 L627 215 L628 216 L645 216 L646 215 L664 214 L665 213 L673 212 L682 209 L688 205 L691 205 L709 211 L712 211 L757 227 L786 241 L804 253 L819 265 L839 285 L851 299 L868 324 L880 345 L879 346 L859 331 L830 315 L815 309 L789 301 L765 295 L761 295 L745 291 L740 291 L739 290 L734 290 L733 289 L727 289 L726 288 L700 286 L699 285 L689 285 L688 284 L677 284 L676 283 L649 282 L648 281 L585 281 L584 282 L573 282 L572 283 L564 283 L563 284 L556 284 L548 286 L541 286 L540 287 L535 287 L534 288 L529 288 L528 289 L523 289 L522 290 L502 293 L486 297 L479 300 L476 300 L451 309 L425 322 L409 334 Z M572 135 L576 129 L590 115 L599 109 L611 104 L615 104 L616 103 L639 104 L652 107 L668 113 L673 116 L687 131 L692 140 L695 150 L695 154 L696 155 L696 176 L695 177 L695 183 L692 195 L689 203 L686 206 L673 211 L668 211 L667 212 L666 211 L662 213 L651 214 L650 215 L629 215 L622 211 L624 210 L630 213 L637 213 L637 212 L630 212 L625 209 L621 209 L616 211 L622 212 L623 213 L622 214 L608 213 L607 212 L602 212 L593 209 L585 208 L575 204 L571 200 L568 192 L567 182 L566 181 L566 174 L565 173 L566 152 L568 144 Z M628 101 L612 102 L596 109 L589 114 L575 128 L571 134 L566 145 L565 153 L564 154 L564 178 L565 179 L565 185 L566 186 L567 194 L570 201 L568 203 L543 209 L514 219 L481 236 L464 249 L454 259 L438 278 L425 297 L418 309 L404 339 L394 349 L389 357 L381 379 L377 395 L376 415 L377 416 L378 434 L379 435 L380 450 L381 451 L383 473 L384 474 L385 488 L386 489 L386 497 L387 498 L387 501 L384 506 L384 515 L383 516 L384 537 L386 544 L384 545 L382 543 L374 541 L358 542 L354 544 L349 549 L346 554 L344 561 L344 591 L345 592 L346 605 L348 608 L348 611 L346 614 L347 651 L348 652 L348 661 L351 672 L353 770 L354 771 L354 781 L355 782 L355 789 L358 801 L359 814 L362 826 L365 832 L372 838 L379 838 L385 836 L393 836 L395 833 L394 834 L392 833 L396 828 L397 829 L397 836 L398 837 L398 843 L400 850 L400 864 L401 865 L404 884 L408 897 L408 901 L410 906 L410 910 L415 930 L417 934 L417 937 L421 947 L421 950 L423 953 L428 969 L442 998 L455 1017 L476 1038 L507 1064 L531 1081 L535 1081 L537 1079 L538 1080 L538 1101 L542 1108 L567 1121 L580 1124 L586 1124 L587 1125 L640 1125 L641 1124 L666 1123 L667 1122 L675 1122 L676 1121 L684 1121 L685 1120 L710 1119 L717 1117 L722 1113 L723 1110 L722 1098 L723 1097 L728 1103 L737 1103 L747 1100 L757 1095 L772 1085 L809 1045 L841 1007 L852 992 L867 962 L876 948 L886 926 L904 874 L917 823 L919 821 L927 823 L932 823 L933 824 L939 824 L943 822 L949 815 L954 804 L957 792 L957 784 L958 783 L958 751 L957 750 L957 740 L956 739 L954 707 L953 706 L953 635 L954 634 L954 619 L953 617 L955 615 L958 607 L957 575 L956 574 L953 554 L948 547 L933 541 L926 541 L915 546 L913 543 L912 537 L909 530 L909 456 L908 455 L908 432 L907 431 L906 398 L905 397 L905 386 L904 385 L903 372 L895 361 L884 350 L880 341 L869 323 L847 292 L820 264 L809 255 L785 239 L765 229 L745 222 L742 220 L691 204 L690 203 L692 200 L693 194 L695 190 L697 174 L698 173 L698 157 L697 156 L696 147 L692 136 L686 127 L671 113 L651 105 L637 103 L636 102 L629 102 Z" fill="#eef3f4" fill-rule="evenodd"/>
</svg>
