<svg xmlns="http://www.w3.org/2000/svg" width="1254" height="1254" viewBox="0 0 1254 1254">
  <title>0306</title>
  <path d="M574 1010 L577 1004 L576 1001 L577 1000 L577 995 L580 989 L585 985 L594 984 L595 983 L616 984 L617 985 L637 985 L638 984 L650 984 L651 983 L669 983 L672 984 L681 993 L683 1000 L682 1014 L680 1016 L679 1022 L674 1027 L671 1028 L667 1034 L665 1035 L661 1034 L658 1036 L654 1036 L649 1040 L648 1043 L645 1043 L641 1041 L639 1043 L636 1043 L630 1046 L623 1042 L618 1044 L613 1044 L608 1041 L601 1041 L598 1037 L593 1037 L589 1032 L586 1033 L578 1025 L576 1021 L577 1020 L577 1013 Z M572 1010 L575 1013 L575 1023 L577 1027 L585 1035 L587 1034 L591 1038 L596 1038 L600 1043 L609 1043 L613 1046 L624 1044 L630 1048 L635 1045 L639 1045 L641 1043 L648 1045 L653 1038 L661 1036 L667 1037 L671 1033 L672 1030 L681 1023 L681 1018 L684 1015 L685 1000 L682 991 L674 983 L669 981 L653 981 L652 982 L640 982 L639 983 L615 983 L614 982 L595 981 L594 982 L585 983 L578 989 L575 996 L575 1004 Z M727 954 L728 953 L729 954 L728 955 Z M762 949 L763 948 L764 949 L763 950 Z M526 949 L527 948 L528 949 L527 950 Z M760 948 L761 947 L763 948 L762 949 Z M525 947 L526 946 L527 947 L526 948 Z M524 944 L525 943 L526 945 L525 946 Z M465 939 L466 938 L467 939 L466 940 Z M695 922 L660 942 L646 947 L637 948 L636 949 L613 949 L612 948 L603 947 L581 939 L553 924 L554 923 L558 923 L559 924 L572 925 L573 926 L597 927 L598 928 L608 928 L609 929 L618 929 L619 930 L633 930 L634 929 L659 926 L660 925 L677 924 L678 923 L690 922 L691 921 Z M679 921 L678 922 L653 924 L652 925 L646 925 L645 926 L632 927 L631 928 L619 928 L618 927 L608 927 L607 926 L598 926 L597 925 L584 925 L583 924 L571 924 L570 923 L571 921 L583 921 L584 920 L610 920 L619 923 L627 923 L630 921 L642 918 L673 919 Z M782 916 L783 915 L785 916 L784 917 Z M707 917 L674 918 L673 917 L661 917 L660 916 L643 916 L626 921 L619 921 L610 918 L583 918 L582 919 L573 919 L572 920 L545 920 L544 921 L541 920 L540 921 L545 921 L559 930 L581 941 L600 948 L613 951 L636 951 L637 950 L646 949 L662 943 L676 934 L689 928 L702 919 L706 919 Z M740 911 L741 910 L742 911 L741 912 Z M783 915 L781 917 L777 917 L773 915 L765 914 L762 912 L750 909 L735 908 L742 917 L747 929 L761 947 L759 948 L753 944 L738 927 L736 927 L735 929 L733 926 L733 920 L734 919 L736 921 L735 922 L736 921 L740 925 L741 924 L734 916 L731 916 L731 924 L732 925 L733 933 L731 937 L731 948 L729 953 L728 952 L728 946 L729 945 L729 922 L727 918 L723 914 L708 907 L681 906 L680 907 L672 907 L671 908 L641 908 L634 910 L623 910 L617 907 L613 907 L605 910 L597 910 L596 909 L584 910 L580 908 L568 907 L567 908 L560 908 L559 909 L551 910 L542 913 L530 920 L526 919 L524 925 L524 938 L525 939 L524 943 L521 936 L519 928 L517 929 L510 939 L505 949 L504 963 L502 966 L499 962 L499 955 L504 944 L503 938 L506 928 L510 921 L514 917 L514 915 L510 915 L499 919 L482 928 L468 939 L466 938 L475 928 L482 923 L510 910 L533 890 L537 888 L544 881 L551 877 L562 874 L573 874 L585 877 L593 881 L607 892 L617 898 L620 899 L630 899 L640 895 L651 883 L658 878 L676 873 L683 873 L694 876 L700 879 L715 890 L725 894 L731 899 L750 907 L759 907 L761 906 L763 909 L775 910 Z M792 919 L786 914 L775 908 L764 907 L762 904 L751 905 L739 901 L730 896 L726 892 L723 892 L715 888 L702 878 L683 871 L677 871 L658 876 L653 879 L641 892 L634 896 L626 898 L619 897 L613 894 L599 883 L587 876 L578 873 L563 872 L551 875 L539 882 L535 887 L510 908 L504 910 L500 913 L493 915 L491 917 L477 924 L467 933 L462 940 L461 945 L463 945 L466 942 L469 941 L486 928 L492 926 L499 921 L508 918 L509 919 L502 933 L502 937 L501 938 L502 943 L499 948 L498 954 L496 958 L501 969 L504 968 L506 962 L506 952 L510 945 L510 943 L518 932 L522 945 L526 953 L534 965 L536 965 L536 962 L527 944 L526 926 L529 922 L542 915 L554 911 L565 910 L566 909 L576 909 L583 912 L587 912 L588 911 L605 912 L613 909 L617 909 L623 912 L633 912 L641 910 L670 910 L671 909 L680 909 L681 908 L703 909 L705 908 L718 913 L727 922 L727 946 L726 947 L726 955 L725 956 L725 962 L727 962 L733 948 L733 937 L737 930 L754 947 L765 953 L769 953 L758 941 L750 930 L743 915 L741 913 L742 911 L750 911 L755 913 L759 913 L768 917 L773 917 L778 919 L787 919 L788 920 L792 920 Z M606 863 L612 870 L619 873 L632 873 L641 868 L641 866 L640 866 L637 869 L632 871 L619 871 L612 868 Z M670 848 L667 846 L661 846 L653 849 L643 857 L641 861 L641 864 L646 862 L652 856 L659 855 L663 853 L667 849 L668 851 L662 856 L662 857 L664 857 L668 854 L670 851 Z M579 849 L579 850 L581 850 L584 847 L588 851 L587 852 L589 854 L591 853 L604 861 L606 859 L607 861 L608 860 L607 856 L600 849 L594 846 L586 845 L582 846 Z M661 841 L653 843 L647 847 L649 847 L651 845 Z M590 840 L596 842 L594 840 Z M581 840 L587 840 L587 839 L582 839 Z M665 795 L664 797 L672 800 L679 807 L685 818 L688 829 L688 843 L686 850 L682 856 L675 861 L676 862 L680 860 L685 855 L688 850 L690 842 L690 830 L686 815 L682 808 L676 801 L669 796 Z M588 795 L582 796 L577 799 L568 808 L561 820 L558 829 L558 846 L560 851 L565 858 L573 862 L578 862 L578 861 L573 861 L569 859 L562 851 L560 845 L560 830 L563 820 L568 811 L576 802 L580 799 L588 796 Z M743 734 L744 733 L750 733 L751 734 L750 735 L744 735 Z M752 733 L753 732 L756 733 L755 734 Z M756 732 L757 731 L761 732 L760 733 Z M508 732 L509 731 L526 731 L527 732 L526 733 L509 733 Z M760 731 L761 730 L764 731 L763 732 Z M764 730 L765 729 L768 730 L767 731 Z M497 730 L498 729 L499 730 L498 731 Z M767 729 L768 728 L770 729 L769 730 Z M519 729 L520 728 L521 729 L520 730 Z M770 728 L771 727 L773 728 L772 729 Z M772 727 L773 726 L775 727 L774 728 Z M774 726 L775 725 L777 726 L776 727 Z M776 725 L777 724 L779 725 L778 726 Z M778 724 L779 723 L781 724 L780 725 Z M780 723 L781 722 L783 723 L782 724 Z M782 722 L783 721 L785 722 L784 723 Z M784 721 L785 720 L786 721 L785 722 Z M473 721 L475 720 L482 724 L492 727 L495 729 L494 730 L486 729 L478 725 Z M785 720 L786 719 L788 720 L787 721 Z M471 720 L472 719 L474 720 L473 721 Z M468 720 L469 719 L470 720 L469 721 Z M787 719 L788 718 L789 719 L788 720 Z M466 719 L467 718 L468 719 L467 720 Z M788 718 L789 717 L791 718 L790 719 Z M558 718 L559 717 L560 718 L559 719 Z M465 718 L466 717 L467 718 L466 719 Z M790 717 L791 716 L792 717 L791 718 Z M557 717 L558 716 L559 717 L558 718 Z M463 717 L464 716 L465 717 L464 718 Z M820 716 L804 731 L789 742 L772 750 L757 754 L750 754 L749 755 L724 754 L711 751 L692 744 L687 741 L687 742 L706 751 L720 755 L735 756 L736 757 L755 756 L774 751 L792 742 L812 726 L818 720 Z M434 716 L446 729 L463 742 L476 749 L493 754 L499 754 L500 755 L530 754 L546 750 L563 742 L565 740 L550 747 L532 752 L527 752 L526 753 L496 753 L478 748 L466 742 L453 733 Z M793 715 L794 714 L795 715 L794 716 Z M794 714 L795 713 L796 714 L795 715 Z M798 711 L799 710 L800 711 L799 712 Z M456 711 L458 710 L464 716 L463 717 Z M799 710 L800 709 L801 710 L800 711 Z M455 710 L456 709 L457 710 L456 711 Z M738 731 L737 732 L718 732 L717 731 L706 730 L698 727 L696 728 L694 727 L712 711 L722 706 L731 704 L732 706 L730 709 L730 713 L729 714 L730 721 L734 728 Z M731 704 L732 703 L733 704 L732 705 Z M748 702 L740 706 L738 709 L737 716 L739 721 L743 725 L748 727 L752 727 L756 725 L760 721 L762 716 L762 712 L760 707 L757 704 L752 702 Z M523 702 L524 701 L530 702 L544 708 L549 711 L556 718 L558 722 L536 729 L521 729 L520 728 L525 723 L527 718 L527 708 Z M791 701 L792 700 L794 701 L793 702 Z M765 726 L769 720 L769 715 L770 714 L769 713 L768 705 L764 700 L765 699 L781 700 L789 702 L800 707 L793 713 L782 720 L767 727 Z M738 702 L745 699 L759 699 L765 704 L768 713 L767 720 L765 724 L760 729 L754 731 L744 732 L738 729 L734 725 L731 718 L732 709 Z M505 700 L500 702 L497 705 L495 709 L495 717 L500 723 L504 725 L511 725 L516 722 L519 717 L519 708 L514 702 L509 700 Z M762 699 L763 698 L764 699 L763 700 Z M734 699 L735 698 L737 699 L736 700 Z M738 698 L739 697 L741 698 L740 699 Z M492 724 L490 725 L475 718 L473 718 L460 710 L457 707 L459 705 L473 700 L493 697 L494 698 L490 702 L488 707 L488 718 Z M470 698 L471 697 L474 698 L473 699 Z M743 697 L744 696 L747 697 L746 698 Z M497 698 L504 696 L505 697 L516 698 L523 704 L526 711 L526 715 L524 721 L519 727 L515 729 L503 729 L497 727 L492 722 L490 718 L489 711 L491 704 Z M749 696 L750 695 L754 696 L753 697 Z M757 695 L758 694 L763 694 L764 695 L763 696 L758 696 Z M819 699 L804 698 L803 697 L779 694 L778 693 L752 693 L751 694 L745 694 L740 696 L736 696 L724 700 L704 712 L697 719 L691 730 L698 729 L713 735 L722 736 L723 737 L749 737 L750 736 L760 735 L777 729 L788 723 L796 717 L802 711 L803 706 L794 703 L793 702 L794 701 L811 703 L812 702 L816 702 Z M431 696 L431 698 L442 702 L450 702 L460 699 L470 698 L471 699 L470 700 L452 705 L456 709 L455 711 L458 715 L470 724 L478 728 L493 733 L506 734 L507 735 L526 735 L527 734 L533 734 L549 730 L553 728 L557 724 L563 725 L559 720 L560 718 L562 718 L562 716 L550 707 L534 699 L519 694 L509 693 L508 692 L489 691 L488 692 L471 693 L470 694 L460 695 L448 698 L436 698 Z M657 690 L655 693 L651 708 L651 712 L649 718 L649 725 L648 726 L648 733 L647 734 L647 744 L646 745 L645 785 L646 786 L646 813 L647 814 L647 834 L648 835 L648 827 L649 826 L648 824 L649 823 L648 822 L648 795 L647 794 L648 793 L647 790 L648 743 L649 742 L649 731 L650 730 L653 706 Z M595 688 L601 710 L603 727 L604 728 L604 736 L605 737 L605 751 L606 752 L605 834 L606 835 L606 812 L607 811 L607 792 L608 791 L607 742 L606 741 L606 731 L605 730 L605 724 L604 723 L602 707 L597 691 Z M584 667 L585 666 L586 667 L585 668 Z M583 665 L584 664 L585 666 L584 667 Z M892 644 L879 684 L864 748 L864 753 L863 754 L861 770 L860 771 L860 777 L859 778 L859 784 L858 785 L857 801 L856 802 L856 814 L855 815 L855 833 L856 834 L856 838 L857 838 L857 833 L856 832 L857 809 L858 808 L860 783 L861 782 L861 776 L862 775 L863 764 L865 758 L865 753 L881 684 L883 680 L889 656 L892 649 Z M357 638 L356 640 L357 651 L358 652 L361 671 L363 676 L365 690 L367 695 L372 728 L373 729 L375 753 L376 754 L376 763 L377 764 L377 774 L378 775 L378 795 L379 796 L379 801 L378 802 L379 803 L378 804 L377 825 L373 842 L376 837 L378 829 L378 824 L379 823 L379 816 L380 815 L380 801 L381 800 L381 796 L380 795 L380 777 L379 776 L377 746 L376 745 L376 737 L375 736 L375 730 L373 723 L373 717 L372 716 L371 706 L368 695 L368 690 L360 658 Z M373 635 L374 634 L375 635 L374 636 Z M816 631 L795 635 L794 636 L788 636 L787 637 L758 642 L739 648 L720 657 L711 663 L696 677 L687 690 L684 698 L689 689 L698 677 L711 665 L723 657 L743 648 L749 647 L756 644 L773 641 L778 639 L795 637 Z M433 625 L459 634 L481 637 L482 638 L488 638 L504 642 L522 649 L524 651 L526 651 L539 659 L550 668 L560 679 L570 694 L570 692 L555 671 L544 661 L529 651 L514 644 L502 640 L489 637 L460 633 Z M878 612 L879 613 L878 616 L877 615 Z M892 607 L907 612 L914 617 L914 628 L913 629 L913 634 L911 636 L910 634 L901 628 L889 623 L890 615 L891 614 L891 608 Z M507 606 L508 605 L509 606 L508 607 Z M363 601 L364 602 L364 617 L362 619 L349 622 L337 630 L335 627 L335 613 L338 609 L347 605 Z M491 601 L492 600 L493 601 L492 602 Z M785 593 L768 602 L768 604 L771 605 L770 606 L761 606 L741 611 L736 614 L728 616 L718 621 L716 621 L709 626 L699 631 L687 639 L681 645 L671 659 L668 666 L663 672 L662 671 L665 659 L675 641 L685 630 L699 620 L720 609 L725 608 L744 600 L746 601 L745 602 L747 602 L767 594 L770 596 L782 592 Z M464 593 L465 592 L470 593 L477 597 L490 602 L495 601 L498 603 L501 603 L507 608 L510 606 L556 628 L573 640 L580 653 L584 664 L583 665 L578 660 L570 649 L538 629 L525 624 L516 619 L495 617 L494 616 L498 614 L487 609 L484 605 Z M784 592 L785 591 L786 592 L785 593 Z M463 592 L464 591 L465 592 L464 593 Z M461 591 L462 590 L463 591 L462 592 Z M809 583 L807 582 L777 592 L771 591 L755 597 L752 595 L744 599 L736 601 L716 609 L696 620 L680 632 L669 647 L661 665 L658 677 L658 682 L661 680 L666 671 L672 665 L672 661 L677 654 L684 648 L684 645 L689 640 L698 634 L711 629 L717 623 L720 623 L739 614 L745 613 L752 610 L769 608 L776 606 L777 603 L787 602 L788 600 L785 598 L787 596 L808 585 Z M428 573 L428 575 L436 580 L450 586 L467 597 L474 604 L487 611 L491 612 L493 614 L486 617 L474 618 L473 619 L465 619 L464 620 L463 619 L459 620 L459 621 L460 620 L473 620 L474 619 L496 619 L497 620 L514 620 L517 621 L523 625 L528 626 L540 632 L543 635 L550 638 L561 645 L567 651 L571 658 L574 659 L577 662 L577 664 L586 676 L592 681 L592 678 L587 668 L582 653 L573 637 L568 635 L557 627 L508 603 L506 603 L501 600 L497 600 L491 597 L485 596 L482 594 L479 595 L468 590 L463 586 L460 586 L441 576 L430 572 Z M380 542 L382 549 L382 564 L381 565 L381 572 L380 573 L379 591 L378 592 L377 603 L375 607 L374 606 L373 568 L375 565 L378 546 Z M883 540 L896 549 L890 552 L887 555 L884 562 L884 565 L887 568 L887 572 L885 575 L882 588 L881 610 L879 613 L877 611 L877 580 L878 579 L878 573 L880 566 L880 549 L882 542 L881 541 Z M379 531 L380 532 L375 551 L374 560 L372 562 L367 547 L364 543 L359 540 L372 533 Z M850 526 L865 531 L878 537 L880 539 L879 547 L878 548 L877 571 L876 572 L875 585 L874 586 L876 620 L878 620 L879 617 L880 618 L880 623 L877 629 L876 628 L873 633 L871 631 L869 596 L868 595 L867 580 L866 579 L864 564 L857 542 L849 527 Z M405 523 L406 524 L400 534 L392 558 L387 578 L384 598 L383 599 L382 611 L381 612 L381 618 L377 633 L375 629 L375 624 L376 623 L377 609 L378 608 L380 592 L381 591 L383 566 L384 565 L384 550 L383 549 L383 545 L380 542 L382 531 L386 528 Z M348 544 L352 542 L359 542 L361 543 L366 549 L369 557 L370 567 L371 568 L372 605 L373 606 L373 612 L372 613 L373 631 L371 635 L372 638 L377 638 L380 631 L382 623 L382 618 L383 617 L383 612 L384 611 L386 593 L388 587 L388 582 L400 538 L409 522 L425 518 L430 518 L431 517 L438 517 L439 516 L454 515 L455 514 L466 514 L467 513 L506 512 L507 511 L554 511 L555 510 L684 511 L685 512 L728 512 L729 513 L758 513 L759 514 L789 515 L790 516 L800 516 L801 517 L815 518 L816 519 L827 520 L844 524 L848 528 L852 535 L852 537 L857 547 L862 564 L862 568 L865 579 L865 585 L866 586 L866 594 L867 595 L869 631 L870 632 L871 641 L873 645 L874 645 L873 638 L876 632 L880 636 L880 629 L881 628 L882 615 L883 614 L884 589 L887 576 L892 564 L892 561 L891 561 L889 565 L887 566 L886 565 L887 559 L893 552 L896 551 L904 552 L909 558 L913 570 L913 579 L914 580 L913 612 L911 613 L909 611 L897 607 L892 604 L894 585 L900 565 L896 571 L892 586 L891 596 L890 597 L890 604 L889 605 L888 622 L887 623 L887 633 L888 634 L889 633 L889 626 L890 625 L903 631 L910 637 L908 666 L907 667 L907 675 L906 676 L906 682 L904 689 L904 695 L903 696 L900 716 L898 721 L898 725 L896 730 L896 734 L889 762 L887 766 L883 784 L881 788 L881 791 L879 795 L879 798 L877 802 L877 805 L875 809 L875 812 L864 848 L857 857 L851 857 L846 850 L845 840 L844 839 L844 815 L845 814 L846 789 L847 788 L847 781 L848 780 L848 774 L849 773 L849 767 L850 766 L850 760 L851 759 L854 738 L869 678 L871 674 L877 650 L881 649 L885 645 L886 639 L888 636 L886 637 L886 639 L883 644 L879 648 L877 647 L875 648 L874 656 L872 660 L871 667 L869 671 L868 678 L866 682 L865 689 L863 693 L855 725 L855 729 L850 750 L848 767 L847 768 L847 775 L846 776 L845 791 L844 792 L844 802 L843 803 L843 821 L842 822 L843 845 L846 854 L851 859 L851 862 L830 924 L816 956 L816 958 L797 997 L769 1043 L749 1069 L724 1094 L705 1108 L681 1120 L661 1126 L645 1128 L644 1129 L632 1129 L631 1130 L595 1129 L594 1128 L579 1127 L559 1122 L533 1110 L508 1092 L480 1063 L455 1028 L438 999 L416 953 L406 928 L405 923 L401 915 L383 858 L383 856 L391 848 L394 835 L394 826 L395 825 L395 782 L394 781 L393 761 L392 760 L392 753 L391 752 L388 728 L387 727 L384 706 L382 701 L379 682 L377 677 L377 673 L372 652 L371 642 L369 642 L369 646 L370 647 L370 652 L371 653 L371 657 L372 658 L372 662 L376 677 L376 681 L377 682 L377 686 L378 687 L378 691 L379 692 L379 696 L385 722 L385 727 L387 733 L390 759 L391 760 L392 778 L393 779 L394 811 L393 812 L392 836 L389 848 L385 853 L383 854 L376 854 L369 849 L363 833 L362 825 L357 807 L357 803 L355 798 L355 794 L350 773 L350 768 L348 762 L345 739 L344 738 L342 717 L341 716 L341 708 L340 707 L339 686 L338 685 L338 632 L343 627 L353 622 L361 620 L364 621 L364 630 L365 631 L366 630 L366 591 L365 590 L365 582 L364 581 L364 574 L363 573 L362 563 L358 552 L353 548 L359 559 L361 567 L364 599 L351 602 L339 607 L338 606 L340 562 L343 551 Z M349 521 L350 520 L351 500 L353 496 L361 489 L392 476 L395 476 L399 474 L419 469 L424 469 L425 468 L442 466 L443 465 L449 465 L450 464 L458 464 L459 463 L481 462 L482 461 L498 461 L499 460 L560 459 L561 458 L699 459 L700 460 L726 460 L727 461 L746 461 L747 462 L775 463 L776 464 L785 464 L786 465 L809 467 L810 468 L821 469 L847 475 L873 484 L894 494 L903 501 L905 508 L904 548 L902 550 L898 549 L892 543 L876 534 L874 534 L865 529 L844 522 L822 518 L821 517 L808 516 L807 515 L776 513 L775 512 L758 512 L757 511 L685 510 L684 509 L609 509 L608 508 L605 509 L604 508 L507 509 L506 510 L469 511 L468 512 L457 512 L456 513 L432 515 L431 516 L426 516 L425 517 L421 517 L420 518 L399 522 L377 529 L360 537 L356 540 L351 540 L350 541 L349 540 Z M600 436 L601 437 L600 441 L599 440 Z M671 431 L672 430 L673 431 L672 432 Z M597 429 L600 431 L600 436 L599 437 L596 430 Z M588 431 L588 429 L590 427 L594 428 L593 431 L591 432 Z M672 430 L672 428 L675 425 L680 425 L682 427 L673 431 Z M634 393 L642 406 L653 419 L652 420 L648 420 L647 428 L646 429 L647 443 L655 450 L650 457 L622 456 L617 449 L622 444 L623 429 L622 428 L622 424 L620 422 L618 422 L616 419 L622 412 Z M635 349 L639 349 L642 352 L646 362 L662 390 L668 395 L673 404 L682 411 L684 417 L692 425 L691 428 L687 432 L685 431 L684 426 L679 423 L674 424 L670 428 L669 432 L670 444 L677 456 L676 457 L654 457 L653 456 L657 451 L657 449 L648 442 L649 441 L648 425 L650 421 L656 421 L656 420 L644 406 L634 390 L633 390 L628 400 L613 421 L616 423 L619 423 L621 425 L621 443 L614 449 L618 452 L620 455 L619 456 L595 456 L594 455 L598 451 L602 441 L602 432 L598 427 L595 426 L589 426 L585 431 L581 427 L582 422 L589 416 L590 413 L598 406 L613 389 L622 374 L628 356 Z M362 424 L363 423 L364 411 L365 410 L365 406 L366 405 L370 384 L374 372 L385 353 L400 335 L422 315 L439 303 L467 288 L503 275 L519 271 L538 268 L539 267 L565 264 L566 263 L584 262 L585 261 L598 261 L599 260 L658 260 L659 261 L672 261 L673 262 L690 263 L691 264 L697 264 L698 265 L709 266 L715 268 L720 268 L725 270 L729 270 L745 274 L770 282 L790 291 L792 291 L817 304 L838 318 L853 330 L873 350 L884 365 L890 376 L895 390 L896 398 L898 403 L899 417 L900 418 L900 494 L898 495 L896 493 L882 486 L847 473 L826 468 L816 467 L815 466 L809 466 L808 465 L802 465 L794 463 L775 462 L774 461 L762 461 L761 460 L725 459 L724 458 L701 458 L700 457 L679 457 L672 444 L672 436 L676 431 L682 429 L683 430 L682 433 L685 434 L688 433 L693 428 L694 425 L693 422 L686 417 L684 411 L674 402 L671 396 L662 387 L650 364 L648 362 L643 350 L640 347 L635 347 L629 352 L624 362 L622 370 L611 389 L579 423 L579 427 L583 432 L589 434 L594 431 L596 433 L599 444 L596 451 L592 456 L501 458 L500 459 L483 459 L482 460 L470 460 L469 461 L443 463 L442 464 L430 465 L429 466 L415 468 L392 475 L389 475 L371 482 L362 487 L360 486 L361 487 L359 489 L358 488 L358 474 L359 473 L359 456 L360 455 L360 443 L361 442 Z M682 85 L683 84 L690 84 L691 85 L688 89 L686 89 Z M387 149 L400 127 L410 117 L422 109 L434 103 L448 98 L474 92 L499 89 L500 88 L528 86 L529 85 L553 84 L554 85 L552 88 L553 92 L559 101 L567 110 L576 117 L584 112 L589 114 L589 116 L587 118 L584 126 L584 135 L588 142 L596 150 L603 155 L613 160 L626 163 L643 163 L660 157 L671 149 L680 139 L684 131 L684 125 L682 121 L677 116 L679 114 L684 114 L689 118 L692 118 L702 109 L705 103 L712 94 L712 89 L710 87 L711 86 L741 89 L742 90 L748 90 L749 91 L755 91 L756 92 L773 94 L779 96 L784 96 L789 98 L798 99 L806 102 L813 103 L833 110 L847 117 L854 122 L863 131 L867 137 L880 167 L888 192 L891 208 L893 213 L894 225 L895 226 L895 235 L896 236 L896 293 L895 294 L894 327 L893 328 L893 340 L892 341 L892 353 L891 354 L890 369 L889 370 L883 360 L871 345 L850 325 L822 305 L792 289 L790 289 L770 280 L733 269 L729 269 L714 265 L703 264 L702 263 L690 262 L689 261 L671 260 L670 259 L655 259 L654 258 L603 258 L602 259 L587 259 L586 260 L576 260 L575 261 L560 262 L559 263 L546 264 L545 265 L540 265 L539 266 L534 266 L519 270 L515 270 L479 281 L469 286 L467 286 L442 299 L418 316 L394 339 L380 357 L375 366 L374 365 L372 326 L371 325 L371 310 L370 309 L369 264 L368 263 L368 232 L369 231 L370 207 L371 206 L373 191 L377 179 L377 176 Z M646 86 L647 83 L668 83 L669 84 L665 90 L657 87 L647 87 Z M576 84 L577 83 L584 83 L585 84 L580 88 Z M554 87 L560 84 L573 83 L576 86 L577 89 L580 91 L583 87 L590 83 L592 83 L596 87 L596 90 L598 93 L597 97 L599 97 L606 106 L615 107 L618 110 L619 118 L623 122 L633 125 L644 122 L647 120 L651 114 L651 108 L655 105 L667 106 L668 104 L665 105 L662 104 L669 97 L668 89 L672 84 L677 84 L681 86 L683 88 L682 89 L683 88 L685 91 L689 91 L694 85 L699 85 L708 88 L710 90 L710 93 L702 104 L701 107 L691 116 L689 116 L684 112 L679 112 L675 116 L675 118 L682 125 L682 131 L676 141 L663 153 L648 160 L644 160 L643 161 L624 161 L613 158 L603 153 L591 143 L586 135 L586 125 L592 114 L586 110 L580 112 L577 115 L572 112 L559 98 L555 92 Z M611 83 L612 82 L641 82 L644 84 L644 89 L649 94 L647 96 L638 97 L639 107 L636 111 L631 111 L628 108 L628 97 L620 96 L617 93 L619 87 Z M595 83 L596 82 L605 82 L615 87 L614 88 L610 89 L607 92 L615 89 L616 91 L614 96 L620 98 L625 98 L627 100 L626 108 L629 112 L633 114 L636 113 L641 107 L640 99 L651 96 L651 94 L647 90 L648 89 L658 89 L661 90 L666 94 L666 97 L660 103 L655 103 L649 107 L649 114 L645 119 L633 123 L632 122 L628 122 L620 117 L619 115 L619 108 L617 106 L611 104 L606 104 L602 99 L603 95 L600 94 L598 90 L598 87 Z M510 85 L509 86 L502 86 L501 87 L494 87 L493 88 L475 90 L474 91 L452 95 L432 102 L411 114 L402 122 L390 139 L381 159 L373 183 L370 196 L369 207 L368 208 L367 231 L366 232 L367 288 L368 289 L369 324 L370 325 L370 338 L371 339 L371 352 L372 353 L373 371 L367 388 L365 400 L363 405 L362 416 L361 417 L359 442 L358 443 L356 490 L351 495 L349 500 L348 521 L347 522 L347 543 L343 547 L339 557 L338 572 L337 573 L336 609 L333 613 L333 627 L336 632 L336 682 L337 683 L337 697 L338 698 L340 723 L341 724 L342 737 L343 738 L347 767 L349 773 L349 778 L364 843 L367 849 L371 853 L381 857 L397 909 L399 912 L400 917 L406 930 L413 950 L424 973 L424 975 L446 1017 L473 1057 L489 1076 L510 1096 L531 1111 L549 1120 L570 1127 L585 1129 L586 1130 L594 1130 L595 1131 L628 1132 L629 1131 L651 1130 L652 1129 L669 1126 L688 1119 L705 1110 L722 1098 L754 1066 L776 1036 L798 999 L817 960 L817 958 L829 931 L838 904 L840 901 L849 874 L852 861 L854 859 L856 859 L861 856 L866 848 L877 812 L877 809 L880 802 L880 799 L882 795 L886 777 L888 773 L890 762 L892 758 L898 734 L902 711 L904 706 L904 701 L905 700 L906 689 L908 682 L908 675 L909 674 L910 656 L911 655 L911 643 L912 639 L914 637 L915 629 L916 628 L916 616 L914 614 L915 611 L915 596 L916 595 L915 571 L914 570 L913 562 L910 556 L905 551 L906 547 L907 508 L906 507 L906 503 L904 499 L902 498 L902 419 L901 418 L901 411 L900 410 L900 403 L898 398 L898 394 L893 378 L891 375 L892 374 L892 364 L893 363 L893 353 L894 352 L896 311 L897 310 L897 292 L898 291 L898 236 L897 235 L897 226 L896 225 L893 204 L887 185 L887 182 L878 156 L868 135 L862 127 L853 119 L840 111 L838 111 L828 106 L797 97 L788 96 L778 93 L767 92 L761 90 L740 88 L732 86 L724 86 L723 85 L715 85 L714 84 L688 83 L687 82 L641 81 L640 80 L639 81 L637 80 L604 80 L603 81 L562 81 L561 82 L544 82 L543 83 L530 83 L529 84 Z" fill="#eef3f4" fill-rule="evenodd"/>
</svg>
