<svg xmlns="http://www.w3.org/2000/svg" width="1086" height="1448" viewBox="0 0 1086 1448">
  <title>0312</title>
  <path d="M482 1158 L483 1157 L484 1159 L483 1160 Z M474 1146 L475 1145 L476 1146 L475 1147 Z M356 1150 L366 1145 L373 1145 L385 1150 L396 1162 L395 1163 L400 1165 L403 1168 L403 1175 L398 1184 L389 1191 L383 1193 L372 1193 L361 1188 L354 1181 L350 1170 L351 1158 Z M472 1145 L473 1144 L475 1145 L474 1146 Z M442 1147 L452 1144 L462 1144 L470 1146 L476 1149 L480 1153 L479 1161 L482 1166 L483 1165 L483 1160 L484 1159 L485 1160 L486 1164 L486 1175 L482 1184 L473 1193 L464 1197 L451 1197 L443 1194 L434 1186 L429 1175 L429 1164 L434 1153 Z M470 1144 L471 1143 L473 1144 L472 1145 Z M442 1144 L443 1143 L445 1144 L444 1145 Z M360 1144 L361 1143 L363 1144 L362 1145 Z M531 1141 L535 1140 L548 1140 L554 1142 L560 1146 L566 1152 L571 1161 L572 1176 L570 1182 L567 1187 L559 1195 L554 1198 L548 1200 L535 1200 L529 1198 L524 1195 L515 1186 L512 1180 L511 1176 L511 1164 L517 1152 L523 1146 Z M444 1143 L447 1141 L455 1140 L456 1139 L465 1140 L471 1143 L470 1144 L462 1143 L461 1142 L454 1142 L448 1144 Z M362 1143 L364 1141 L371 1139 L383 1139 L389 1141 L399 1150 L402 1155 L402 1160 L399 1162 L386 1148 L379 1144 L375 1143 L365 1143 L363 1144 Z M622 1138 L632 1139 L638 1141 L645 1146 L652 1155 L655 1164 L654 1177 L648 1188 L641 1194 L635 1197 L627 1199 L617 1198 L605 1192 L598 1184 L594 1172 L595 1161 L599 1152 L611 1141 Z M534 1138 L524 1142 L513 1153 L509 1164 L509 1176 L512 1185 L523 1197 L535 1202 L548 1202 L558 1198 L569 1188 L574 1175 L574 1165 L570 1154 L561 1144 L552 1139 L548 1138 Z M450 1138 L441 1142 L431 1152 L427 1163 L427 1174 L431 1185 L441 1195 L451 1199 L464 1199 L475 1194 L483 1186 L488 1175 L488 1163 L486 1156 L483 1151 L474 1142 L465 1138 Z M164 1138 L165 1137 L166 1138 L165 1139 Z M372 1137 L361 1141 L353 1149 L349 1157 L348 1170 L351 1180 L360 1190 L372 1195 L383 1195 L391 1192 L401 1183 L404 1178 L406 1171 L406 1162 L402 1151 L394 1142 L383 1137 Z M125 1126 L126 1125 L128 1126 L127 1127 Z M935 1078 L936 1077 L937 1079 L936 1080 Z M108 1077 L115 1079 L120 1084 L125 1094 L126 1103 L127 1104 L127 1116 L125 1123 L121 1129 L116 1132 L108 1130 L103 1124 L100 1118 L97 1106 L97 1097 L98 1096 L99 1088 L102 1082 Z M142 1076 L149 1076 L155 1081 L163 1094 L167 1109 L167 1123 L166 1124 L165 1132 L160 1142 L152 1147 L147 1147 L142 1144 L134 1134 L131 1126 L129 1125 L130 1124 L129 1125 L128 1124 L130 1121 L131 1109 L132 1108 L131 1099 L130 1098 L131 1091 L136 1080 Z M942 1062 L943 1063 L943 1069 L940 1075 L937 1078 L936 1075 L940 1063 Z M92 1049 L99 1048 L110 1053 L115 1054 L146 1073 L145 1074 L141 1074 L134 1079 L130 1088 L129 1097 L128 1098 L125 1089 L119 1080 L115 1077 L109 1075 L101 1080 L98 1085 L97 1091 L95 1095 L96 1112 L100 1123 L104 1129 L110 1133 L115 1134 L119 1133 L125 1128 L127 1128 L128 1126 L130 1128 L135 1139 L144 1147 L143 1148 L135 1148 L132 1150 L125 1146 L115 1146 L99 1136 L94 1137 L90 1136 L86 1133 L85 1131 L85 1121 L87 1114 L87 1091 L86 1090 L84 1066 L85 1065 L86 1056 Z M106 1047 L119 1047 L120 1046 L137 1045 L147 1048 L164 1058 L176 1069 L184 1074 L185 1091 L186 1092 L186 1100 L187 1101 L186 1113 L180 1123 L166 1138 L165 1136 L169 1123 L169 1109 L165 1094 L159 1083 L149 1073 L123 1056 L108 1049 L106 1049 L105 1048 Z M931 931 L923 945 L917 952 L910 963 L860 1028 L829 1075 L801 1127 L798 1136 L791 1150 L785 1169 L786 1171 L790 1171 L791 1172 L813 1174 L814 1175 L839 1178 L852 1181 L858 1181 L859 1182 L882 1185 L898 1189 L903 1189 L904 1190 L902 1193 L895 1198 L891 1198 L890 1199 L873 1199 L872 1198 L861 1198 L860 1197 L843 1196 L842 1195 L835 1195 L834 1194 L824 1194 L823 1193 L789 1192 L788 1193 L782 1193 L781 1194 L773 1195 L761 1202 L757 1202 L756 1203 L742 1201 L741 1200 L735 1200 L734 1199 L720 1199 L719 1200 L707 1200 L706 1201 L698 1201 L697 1202 L671 1203 L670 1204 L627 1205 L626 1206 L594 1206 L593 1207 L488 1207 L487 1206 L462 1206 L461 1205 L410 1206 L409 1207 L352 1207 L351 1206 L332 1206 L331 1205 L291 1203 L290 1202 L267 1200 L266 1199 L249 1197 L243 1195 L244 1193 L264 1191 L265 1190 L284 1190 L285 1191 L292 1191 L299 1193 L314 1193 L322 1190 L330 1183 L329 1169 L321 1141 L311 1116 L302 1099 L300 1093 L294 1083 L293 1075 L296 1067 L299 1068 L303 1068 L304 1067 L312 1070 L319 1079 L320 1082 L326 1088 L331 1090 L340 1090 L341 1091 L349 1091 L350 1092 L364 1093 L365 1094 L388 1095 L389 1096 L420 1097 L421 1098 L422 1097 L423 1098 L442 1098 L443 1099 L467 1099 L468 1100 L495 1100 L496 1101 L497 1100 L498 1101 L546 1101 L547 1100 L563 1100 L564 1099 L599 1097 L600 1096 L609 1096 L610 1095 L626 1095 L627 1094 L663 1095 L664 1096 L700 1097 L701 1098 L751 1097 L752 1096 L761 1095 L769 1089 L776 1088 L782 1082 L786 1075 L791 1070 L798 1068 L800 1069 L807 1069 L809 1068 L815 1078 L810 1088 L802 1097 L790 1116 L765 1170 L758 1177 L753 1180 L742 1183 L714 1182 L713 1183 L706 1183 L698 1185 L688 1185 L687 1184 L678 1183 L673 1180 L664 1177 L657 1176 L656 1175 L657 1173 L657 1164 L652 1151 L647 1145 L640 1140 L627 1136 L616 1137 L603 1144 L597 1151 L594 1157 L593 1165 L592 1166 L593 1177 L599 1189 L609 1197 L623 1201 L632 1200 L640 1197 L651 1188 L655 1180 L658 1178 L664 1179 L675 1184 L687 1187 L699 1187 L700 1186 L713 1185 L714 1184 L743 1185 L753 1182 L759 1179 L768 1169 L768 1167 L774 1156 L777 1147 L791 1118 L801 1102 L815 1084 L817 1078 L811 1068 L845 1015 L871 983 L895 959 L915 943 L929 930 Z M930 930 L931 929 L932 930 L931 931 Z M931 929 L932 928 L933 929 L932 930 Z M201 923 L224 949 L244 979 L249 988 L250 993 L270 1031 L284 1055 L293 1067 L292 1076 L291 1077 L246 996 L218 951 L200 925 Z M199 923 L200 922 L201 923 L200 924 Z M960 921 L1007 960 L1016 969 L1024 973 L1027 973 L1029 975 L1028 981 L1026 983 L1023 990 L1018 995 L1015 995 L1003 989 L993 980 L984 982 L973 973 L971 973 L960 967 L960 933 L959 932 L959 922 Z M198 922 L199 921 L200 922 L199 923 Z M452 902 L463 903 L471 907 L478 914 L482 923 L482 936 L479 943 L473 950 L467 954 L461 956 L451 956 L444 954 L435 947 L432 943 L429 935 L429 924 L433 914 L441 906 Z M951 901 L954 905 L956 912 L957 930 L958 931 L958 971 L957 972 L956 991 L955 992 L955 997 L954 998 L954 1003 L953 1004 L950 1024 L947 1032 L945 1043 L942 1050 L942 1053 L940 1057 L940 1060 L938 1063 L938 1066 L936 1069 L936 1072 L934 1075 L927 1097 L920 1112 L914 1131 L911 1149 L910 1150 L910 1156 L909 1157 L905 1186 L904 1187 L899 1187 L898 1186 L893 1186 L882 1183 L877 1183 L876 1182 L871 1182 L870 1181 L865 1181 L852 1178 L846 1178 L839 1176 L833 1176 L832 1175 L826 1175 L819 1173 L813 1173 L812 1172 L788 1169 L787 1168 L792 1153 L798 1141 L800 1134 L811 1111 L813 1109 L821 1094 L822 1095 L821 1093 L833 1072 L864 1026 L919 954 L934 931 L937 924 Z M176 897 L185 906 L233 978 L267 1037 L271 1046 L273 1048 L277 1057 L279 1059 L305 1107 L305 1109 L310 1118 L312 1125 L315 1130 L317 1138 L319 1141 L319 1144 L323 1154 L323 1157 L327 1169 L328 1182 L323 1187 L318 1190 L314 1191 L300 1191 L299 1190 L292 1190 L291 1189 L284 1189 L283 1188 L264 1188 L257 1190 L250 1190 L243 1192 L231 1193 L205 1185 L193 1185 L158 1175 L149 1166 L147 1162 L135 1151 L136 1150 L151 1150 L156 1148 L163 1143 L181 1125 L188 1114 L189 1110 L187 1082 L186 1081 L186 1074 L185 1073 L183 1046 L182 1045 L182 1037 L181 1036 L181 1027 L180 1026 L180 1017 L179 1016 L176 967 L175 966 L175 954 L174 953 L174 941 L173 940 L173 928 L172 927 L172 907 L174 899 Z M422 754 L434 760 L444 769 L452 780 L459 794 L464 808 L470 834 L471 851 L472 852 L471 879 L474 882 L457 888 L449 889 L444 891 L439 891 L438 892 L432 892 L431 893 L410 894 L409 895 L377 894 L372 876 L371 864 L370 863 L370 854 L369 853 L369 841 L368 840 L369 811 L370 810 L370 804 L373 791 L381 773 L392 761 L405 754 L410 754 L411 753 Z M694 743 L703 748 L713 758 L721 773 L726 792 L726 797 L727 798 L727 806 L728 807 L728 833 L727 834 L727 842 L724 853 L724 860 L725 861 L713 867 L688 875 L684 875 L673 878 L665 878 L664 879 L643 879 L642 878 L643 874 L641 869 L639 851 L638 850 L637 815 L638 814 L639 798 L645 775 L648 770 L648 768 L655 757 L663 749 L669 745 L677 742 L690 742 Z M382 745 L388 741 L402 735 L406 735 L407 734 L424 735 L435 739 L443 744 L460 762 L473 787 L478 803 L481 820 L483 825 L483 830 L484 831 L485 845 L486 846 L487 868 L486 869 L486 875 L479 882 L476 882 L473 879 L474 853 L473 852 L473 843 L472 842 L470 823 L463 799 L457 785 L448 771 L436 759 L421 752 L411 751 L400 754 L390 760 L381 770 L373 785 L367 810 L366 842 L367 843 L368 864 L369 865 L370 876 L374 892 L370 894 L369 893 L367 894 L364 893 L359 888 L358 879 L357 878 L355 843 L354 842 L354 808 L355 807 L355 799 L356 798 L356 793 L359 781 L362 773 L371 756 Z M430 735 L423 733 L416 733 L415 732 L403 733 L399 735 L396 735 L384 741 L371 753 L360 772 L355 788 L355 792 L353 798 L353 806 L352 807 L352 846 L353 847 L353 858 L354 859 L356 886 L359 892 L367 896 L379 895 L380 896 L403 897 L404 896 L418 896 L419 895 L428 895 L429 894 L442 893 L443 892 L460 889 L474 884 L477 885 L480 884 L488 876 L489 855 L488 854 L487 837 L486 836 L486 831 L485 830 L485 825 L481 810 L481 806 L475 787 L467 770 L459 757 L445 743 Z M701 726 L714 734 L722 742 L730 754 L736 770 L738 785 L739 786 L739 795 L740 796 L740 830 L739 831 L739 841 L738 842 L738 849 L736 857 L732 861 L730 860 L727 861 L726 860 L726 855 L729 843 L729 835 L730 834 L730 806 L729 805 L729 797 L728 796 L727 785 L722 770 L716 759 L705 747 L693 741 L678 740 L667 744 L654 755 L648 764 L648 766 L645 770 L641 781 L637 798 L636 814 L635 815 L636 850 L637 851 L639 870 L641 876 L639 879 L634 881 L630 879 L627 875 L629 851 L630 850 L630 824 L629 823 L629 806 L628 805 L628 785 L629 784 L628 783 L629 782 L629 776 L630 775 L631 767 L637 752 L644 742 L654 732 L665 726 L676 723 L691 723 Z M387 676 L388 677 L368 698 L317 762 L315 759 L317 742 L314 729 L314 718 Z M387 676 L388 675 L389 676 L388 677 Z M388 675 L389 674 L390 675 L389 676 Z M716 668 L730 676 L762 698 L759 704 L758 718 L757 719 L733 689 L715 669 Z M748 775 L745 783 L744 794 L742 796 L741 795 L741 785 L740 784 L740 779 L737 766 L730 750 L724 741 L717 734 L703 725 L688 721 L672 722 L660 726 L655 729 L643 740 L633 756 L627 777 L626 805 L627 806 L627 823 L628 824 L628 849 L627 850 L627 859 L626 860 L626 868 L625 869 L625 875 L627 879 L632 882 L637 882 L638 881 L663 881 L664 880 L678 879 L698 874 L702 872 L705 872 L726 863 L733 863 L737 859 L738 860 L738 867 L739 868 L739 885 L738 889 L733 896 L725 900 L723 905 L723 910 L717 917 L712 919 L701 918 L685 922 L659 921 L653 923 L637 936 L627 942 L614 946 L602 947 L597 953 L595 958 L586 965 L577 966 L576 967 L552 966 L547 964 L539 956 L538 953 L532 948 L525 950 L514 950 L508 946 L504 939 L484 933 L485 932 L484 931 L485 928 L484 927 L483 919 L479 912 L474 907 L465 902 L461 901 L449 901 L438 906 L432 912 L429 917 L428 923 L426 926 L417 925 L416 924 L399 924 L398 925 L383 926 L361 932 L358 934 L343 939 L312 955 L296 971 L290 972 L281 969 L259 984 L251 986 L247 982 L241 970 L225 947 L205 924 L196 916 L198 903 L199 902 L201 904 L208 904 L217 901 L232 893 L250 878 L279 850 L317 808 L390 718 L411 697 L423 687 L435 679 L453 671 L461 669 L477 669 L484 671 L491 675 L499 683 L507 698 L513 722 L514 752 L515 753 L513 800 L512 801 L512 811 L511 812 L510 828 L509 829 L509 836 L508 837 L508 850 L507 851 L508 852 L509 861 L515 867 L519 869 L530 870 L541 867 L544 865 L547 866 L559 865 L563 867 L570 867 L572 866 L579 869 L592 869 L597 866 L601 861 L603 850 L602 849 L602 838 L601 837 L601 828 L600 827 L596 779 L595 778 L594 725 L595 724 L595 717 L596 716 L597 707 L604 689 L617 675 L624 671 L631 669 L637 669 L638 668 L653 670 L670 677 L689 690 L705 705 L717 719 L732 743 L740 759 L743 768 Z M714 668 L715 667 L716 668 L715 669 Z M713 667 L714 666 L715 667 L714 668 Z M600 656 L613 643 L619 639 L629 635 L644 634 L645 635 L651 635 L666 639 L683 647 L699 657 L713 669 L732 691 L819 799 L866 852 L887 872 L895 878 L903 879 L914 886 L917 891 L917 893 L911 905 L907 909 L901 911 L896 910 L888 905 L882 898 L878 891 L872 887 L863 887 L858 885 L845 872 L817 835 L798 813 L767 782 L752 773 L749 773 L747 771 L742 758 L740 756 L734 742 L721 721 L713 711 L692 690 L683 683 L662 671 L648 667 L631 667 L618 672 L605 684 L598 697 L595 706 L593 722 L592 723 L592 765 L593 766 L594 789 L595 790 L595 799 L596 800 L596 809 L597 810 L597 819 L598 820 L600 850 L601 852 L600 853 L600 858 L595 865 L591 867 L579 867 L575 864 L574 828 L573 827 L573 786 L572 785 L572 780 L573 779 L573 767 L574 766 L574 752 L575 751 L575 743 L576 742 L576 734 L577 733 L579 712 L580 711 L583 693 L589 675 Z M510 651 L516 660 L522 673 L526 686 L528 703 L529 704 L529 719 L530 720 L530 850 L529 851 L529 865 L530 866 L529 867 L524 868 L517 866 L511 860 L510 857 L510 838 L511 837 L511 829 L512 828 L514 803 L515 802 L515 789 L516 788 L517 751 L516 750 L515 722 L509 697 L499 680 L488 671 L477 667 L461 667 L447 671 L433 678 L408 697 L391 714 L378 729 L341 776 L296 829 L258 868 L238 886 L227 894 L215 900 L208 902 L202 902 L199 900 L195 900 L191 896 L184 883 L184 878 L186 873 L194 865 L198 863 L201 863 L217 858 L227 853 L252 835 L269 820 L292 796 L313 771 L368 701 L406 663 L422 652 L445 640 L466 634 L482 634 L490 636 L501 642 Z M214 630 L215 629 L216 630 L215 631 Z M581 653 L586 643 L594 632 L607 619 L620 612 L628 610 L633 610 L634 609 L649 610 L657 612 L685 624 L715 643 L749 670 L759 680 L787 703 L819 726 L823 730 L823 732 L820 736 L816 735 L753 689 L750 688 L723 669 L703 658 L687 647 L663 636 L651 633 L635 632 L623 635 L611 642 L599 654 L594 661 L586 677 L580 696 L577 716 L576 717 L575 732 L574 733 L574 740 L573 741 L573 751 L572 752 L571 751 L571 699 L572 698 L572 688 L573 687 L573 681 L574 680 L574 675 Z M546 861 L544 863 L535 867 L533 867 L531 865 L531 846 L532 845 L532 721 L531 720 L531 705 L530 704 L530 697 L529 696 L528 686 L521 665 L515 654 L503 641 L490 634 L482 632 L466 632 L447 637 L423 649 L385 675 L360 690 L353 693 L320 713 L318 713 L316 715 L290 728 L288 728 L264 739 L206 758 L191 764 L188 764 L186 759 L192 752 L205 749 L212 746 L215 746 L245 736 L248 734 L253 733 L273 725 L304 710 L340 689 L358 677 L413 635 L416 634 L427 626 L444 617 L457 612 L470 609 L484 609 L485 610 L493 611 L503 615 L512 621 L523 632 L535 652 L542 674 L543 687 L544 688 L544 699 L545 700 L544 702 L545 703 L545 732 L546 733 L546 795 L547 796 L547 842 L545 847 L546 849 Z M357 610 L334 635 L318 648 L304 657 L275 664 L255 666 L254 667 L244 667 L243 668 L227 667 L221 664 L220 652 L222 645 L220 639 L215 631 L216 630 L232 636 L245 639 L250 639 L251 640 L276 640 L277 639 L289 638 L313 631 L339 619 L355 609 Z M356 609 L357 608 L358 609 L357 610 Z M357 608 L358 607 L359 608 L358 609 Z M973 553 L964 570 L953 584 L942 595 L924 608 L904 618 L876 627 L872 627 L866 629 L851 629 L822 619 L815 613 L817 612 L830 616 L851 617 L852 616 L860 616 L861 615 L876 613 L901 605 L922 595 L938 585 L954 572 L965 561 L972 552 Z M972 552 L973 551 L974 552 L973 553 Z M973 550 L974 549 L975 550 L974 551 Z M996 506 L997 505 L998 506 L997 507 Z M997 503 L998 502 L999 504 L998 505 Z M222 503 L223 502 L224 503 L223 504 Z M915 486 L916 485 L917 486 L916 487 Z M916 484 L917 483 L918 484 L917 485 Z M917 482 L918 481 L919 483 L918 484 Z M114 454 L115 453 L116 454 L115 455 Z M113 450 L114 449 L115 451 L114 452 Z M113 445 L114 446 L113 449 L112 448 Z M112 441 L113 442 L112 446 L111 445 Z M111 438 L112 439 L111 442 L110 441 Z M1010 433 L1011 434 L1010 438 L1009 437 Z M664 408 L665 411 L663 415 L663 419 L661 425 L660 442 L659 443 L660 475 L661 476 L663 492 L668 509 L674 521 L674 523 L682 537 L693 552 L709 570 L745 604 L759 615 L776 626 L794 635 L805 639 L788 644 L782 647 L774 655 L767 670 L767 679 L765 682 L734 655 L707 635 L689 624 L663 612 L648 608 L636 607 L635 608 L628 608 L618 611 L604 619 L592 631 L583 644 L576 660 L571 680 L570 697 L569 698 L569 754 L570 755 L570 789 L571 790 L571 841 L572 842 L573 863 L569 865 L564 865 L559 863 L548 864 L547 863 L548 862 L548 857 L547 856 L547 851 L548 850 L548 736 L547 735 L547 703 L546 702 L545 683 L544 682 L544 676 L543 675 L542 667 L537 652 L527 634 L514 620 L499 611 L483 607 L465 608 L457 610 L454 612 L451 612 L430 622 L425 626 L417 630 L393 647 L356 676 L346 682 L343 685 L314 702 L312 701 L311 698 L313 674 L310 667 L305 660 L305 658 L323 647 L334 638 L346 626 L364 604 L388 580 L401 563 L411 547 L425 517 L430 502 L435 481 L436 467 L437 466 L438 444 L437 443 L436 422 L433 411 L434 409 L439 412 L462 434 L484 460 L519 509 L550 560 L552 560 L582 505 L613 457 L626 441 L646 421 Z M296 404 L305 409 L312 416 L317 426 L319 434 L319 442 L320 443 L319 456 L314 473 L310 481 L302 493 L291 504 L275 514 L261 518 L248 518 L236 514 L226 504 L221 492 L220 483 L219 482 L219 470 L220 469 L221 458 L225 445 L231 433 L235 427 L249 413 L261 406 L275 402 L287 402 L288 403 Z M833 398 L851 392 L861 392 L862 393 L867 393 L875 395 L883 399 L895 408 L907 422 L914 435 L917 444 L918 452 L919 453 L919 469 L913 487 L903 498 L897 501 L886 504 L862 503 L858 501 L855 501 L840 493 L824 477 L818 466 L814 455 L814 451 L812 445 L812 433 L813 432 L814 424 L818 414 L821 410 L822 411 L821 409 Z M844 391 L845 390 L846 391 L845 392 Z M837 392 L821 405 L816 413 L811 428 L810 444 L811 445 L812 455 L815 464 L821 476 L826 483 L839 495 L858 504 L866 505 L867 506 L886 506 L904 500 L912 494 L921 484 L929 465 L930 449 L929 449 L927 466 L925 472 L919 482 L918 479 L921 469 L921 452 L920 451 L919 443 L913 428 L901 411 L885 398 L871 392 L861 391 L860 390 L846 391 L844 389 Z M826 382 L816 391 L808 402 L803 412 L798 431 L798 450 L799 451 L799 456 L801 464 L808 480 L815 490 L824 499 L838 509 L851 515 L870 520 L891 520 L892 519 L901 518 L918 511 L928 504 L940 491 L946 482 L950 472 L951 464 L952 463 L952 446 L949 433 L943 420 L935 407 L917 388 L897 376 L881 371 L860 370 L852 372 L853 373 L857 373 L858 372 L874 372 L875 373 L886 374 L895 377 L914 388 L931 405 L944 426 L950 446 L950 463 L944 481 L936 493 L921 507 L910 513 L892 518 L870 518 L853 514 L835 505 L826 498 L816 488 L807 474 L803 464 L801 456 L801 451 L800 450 L800 432 L804 415 L811 401 L819 391 L828 384 L830 381 Z M760 367 L761 366 L762 367 L761 368 Z M761 366 L762 365 L763 366 L762 367 Z M762 365 L763 364 L764 365 L763 366 Z M861 349 L882 349 L883 350 L897 352 L909 356 L921 362 L932 370 L945 383 L955 398 L961 411 L967 433 L968 455 L967 456 L966 470 L960 488 L949 507 L933 524 L919 534 L901 542 L889 545 L883 545 L882 546 L858 546 L857 545 L852 545 L839 542 L818 533 L808 526 L794 513 L782 497 L775 482 L769 458 L769 436 L770 435 L770 429 L771 428 L772 420 L775 411 L782 397 L793 382 L809 368 L829 357 L845 352 L860 350 Z M863 347 L862 348 L849 349 L827 356 L807 367 L793 379 L787 386 L780 397 L771 417 L768 430 L768 437 L767 438 L767 457 L768 458 L768 464 L771 476 L779 495 L789 510 L806 527 L818 535 L840 544 L848 546 L853 546 L854 547 L861 547 L862 548 L879 548 L880 547 L892 546 L911 540 L927 531 L944 516 L959 495 L966 478 L969 465 L969 457 L970 456 L970 441 L969 440 L968 427 L962 408 L952 389 L934 369 L918 358 L897 350 L889 348 L882 348 L881 347 Z M892 331 L893 332 L900 332 L917 336 L939 346 L946 351 L960 365 L970 380 L980 401 L984 417 L985 429 L986 430 L987 454 L986 455 L986 465 L985 466 L983 482 L976 503 L962 528 L942 549 L925 561 L906 570 L878 577 L859 578 L858 577 L850 577 L849 576 L839 575 L818 568 L799 557 L790 550 L771 531 L759 515 L745 491 L735 463 L735 459 L733 453 L733 446 L732 445 L733 422 L736 410 L740 400 L750 383 L772 360 L781 354 L800 345 L818 339 L838 334 L858 332 L859 331 Z M213 324 L214 323 L218 324 L217 325 Z M553 320 L568 324 L580 330 L601 346 L620 368 L632 387 L634 393 L625 400 L610 415 L593 437 L579 459 L569 479 L567 481 L552 513 L552 515 L549 519 L527 478 L501 437 L480 411 L467 399 L462 396 L459 393 L459 391 L465 380 L477 363 L498 342 L511 333 L525 326 L542 321 Z M554 318 L547 318 L530 322 L514 329 L496 341 L476 361 L466 375 L457 391 L457 394 L471 405 L481 415 L500 439 L526 480 L549 523 L552 520 L555 511 L571 478 L573 476 L584 455 L597 435 L611 417 L627 401 L637 393 L630 380 L617 361 L597 340 L577 326 L568 322 Z M110 439 L101 413 L101 410 L89 373 L89 370 L84 356 L80 339 L74 322 L70 306 L70 299 L72 298 L91 307 L103 310 L108 310 L109 311 L167 315 L168 316 L175 316 L176 317 L182 317 L183 318 L189 318 L190 319 L196 319 L208 322 L213 322 L214 323 L213 324 L186 325 L160 331 L142 340 L124 355 L120 360 L112 375 L108 390 L107 413 L108 414 L109 427 L111 433 L111 438 Z M69 298 L70 297 L71 298 L70 299 Z M69 294 L68 295 L69 311 L79 342 L83 359 L86 366 L88 377 L96 400 L96 403 L107 436 L107 439 L112 452 L112 455 L138 514 L155 543 L172 565 L187 580 L208 595 L222 602 L234 606 L238 606 L244 608 L251 608 L252 609 L271 608 L293 602 L311 593 L330 579 L353 555 L369 532 L383 504 L392 476 L392 472 L395 462 L395 456 L396 455 L396 445 L397 444 L395 418 L394 417 L393 409 L387 393 L376 376 L362 362 L354 356 L330 344 L318 340 L305 337 L300 337 L299 336 L281 335 L280 334 L263 334 L262 335 L242 336 L241 337 L227 339 L200 348 L186 355 L171 365 L159 376 L148 391 L141 405 L137 419 L137 423 L136 424 L136 450 L137 451 L139 467 L145 486 L158 513 L173 536 L194 556 L216 568 L229 572 L240 573 L241 574 L255 574 L256 573 L263 573 L268 571 L272 571 L293 562 L307 553 L318 544 L327 535 L341 517 L346 509 L356 487 L363 461 L363 455 L364 454 L364 432 L363 431 L363 425 L362 424 L361 416 L357 405 L346 386 L336 375 L322 365 L315 361 L297 354 L293 354 L283 351 L274 351 L273 350 L262 350 L261 351 L246 352 L245 353 L236 354 L218 360 L204 367 L191 376 L174 394 L163 415 L162 421 L160 425 L159 437 L158 438 L159 459 L167 488 L172 499 L179 510 L195 527 L211 537 L225 542 L235 543 L236 544 L255 543 L273 538 L287 531 L297 524 L315 506 L325 491 L330 481 L335 466 L336 456 L337 455 L337 435 L333 418 L323 399 L308 383 L291 372 L268 365 L255 365 L254 364 L253 365 L244 365 L229 369 L216 375 L207 381 L193 395 L186 406 L182 415 L177 433 L176 452 L177 453 L179 470 L185 489 L189 497 L197 508 L203 514 L209 518 L221 522 L225 522 L226 523 L244 523 L245 522 L253 522 L257 520 L266 519 L281 513 L294 504 L302 496 L308 488 L315 475 L321 457 L322 439 L321 438 L321 432 L317 421 L307 406 L300 399 L292 394 L279 390 L264 390 L254 393 L253 394 L255 395 L259 393 L269 392 L270 391 L281 392 L292 396 L301 403 L299 404 L292 401 L287 401 L286 400 L276 400 L275 401 L267 402 L251 409 L234 425 L222 447 L218 462 L217 482 L218 483 L219 492 L223 501 L222 503 L216 496 L210 480 L210 476 L209 475 L210 451 L214 437 L219 426 L229 412 L237 404 L241 403 L245 399 L245 398 L243 398 L228 410 L220 421 L212 436 L207 457 L207 475 L210 488 L217 501 L226 510 L232 514 L244 519 L239 521 L224 521 L208 515 L198 506 L191 496 L186 486 L180 465 L178 444 L179 443 L179 435 L180 434 L181 425 L185 413 L194 397 L209 382 L224 373 L242 367 L262 366 L263 367 L269 367 L284 371 L293 375 L304 382 L315 392 L327 409 L331 418 L334 429 L334 434 L335 435 L335 454 L334 455 L334 461 L332 469 L324 489 L312 507 L294 524 L276 535 L265 539 L257 540 L256 541 L250 541 L249 542 L229 541 L211 535 L197 526 L182 511 L176 502 L169 488 L161 460 L160 434 L161 433 L162 425 L165 418 L165 415 L169 406 L178 392 L199 372 L215 363 L223 361 L232 357 L245 354 L259 353 L260 352 L275 352 L276 353 L284 353 L285 354 L294 355 L309 360 L328 371 L345 388 L352 399 L356 408 L360 421 L361 432 L362 433 L361 460 L353 489 L343 510 L338 518 L327 532 L314 545 L293 560 L281 566 L264 571 L240 572 L239 571 L233 571 L232 570 L224 569 L211 564 L196 555 L186 547 L168 526 L156 506 L149 491 L148 486 L144 478 L139 458 L139 451 L138 450 L138 424 L143 405 L150 391 L158 380 L178 362 L186 357 L207 347 L226 341 L241 339 L242 338 L259 337 L260 336 L283 336 L284 337 L293 337 L294 338 L306 339 L318 342 L333 347 L349 355 L363 365 L371 373 L379 383 L388 400 L392 412 L394 431 L395 432 L394 457 L393 458 L391 473 L380 506 L369 528 L352 553 L327 579 L312 590 L295 599 L281 604 L277 604 L271 606 L264 606 L263 607 L251 607 L250 606 L243 606 L238 604 L234 604 L220 599 L208 593 L190 580 L172 562 L154 538 L145 523 L132 497 L126 481 L124 479 L125 478 L114 442 L114 438 L111 427 L111 421 L110 420 L110 412 L109 411 L110 391 L114 375 L121 362 L138 345 L151 337 L153 337 L163 332 L174 329 L184 328 L185 327 L198 327 L199 326 L210 326 L211 327 L221 326 L222 327 L223 326 L229 326 L229 325 L225 323 L217 322 L212 320 L197 318 L196 317 L190 317 L189 316 L183 316 L182 315 L149 312 L148 311 L135 311 L134 310 L122 310 L121 309 L103 308 L83 302 Z M564 291 L565 292 L579 294 L600 303 L614 313 L631 330 L641 344 L653 366 L662 390 L662 393 L665 401 L665 405 L645 419 L625 439 L607 462 L582 501 L551 558 L520 507 L488 462 L462 431 L432 404 L440 375 L451 352 L462 336 L480 318 L499 305 L509 300 L523 295 L535 292 L541 292 L542 291 Z M1030 275 L1031 276 L1031 283 L1030 284 L1030 300 L1029 301 L1029 315 L1028 316 L1027 338 L1026 339 L1025 354 L1024 355 L1023 369 L1021 376 L1019 394 L1018 395 L1014 422 L1011 433 L1010 432 L1010 403 L1009 402 L1009 392 L1008 391 L1006 376 L999 356 L990 341 L977 328 L962 319 L944 314 L936 314 L935 313 L917 313 L916 314 L912 314 L911 313 L935 305 L955 300 L962 297 L969 296 L976 293 L996 288 Z M58 266 L73 272 L87 281 L102 286 L128 284 L158 291 L186 292 L187 293 L199 293 L200 294 L209 294 L210 295 L223 296 L224 297 L229 297 L230 298 L259 303 L268 306 L272 306 L281 309 L285 309 L302 314 L318 317 L343 327 L352 326 L353 325 L361 326 L372 332 L400 358 L414 375 L417 377 L418 381 L425 392 L430 405 L434 422 L435 443 L436 444 L434 474 L433 475 L432 486 L428 502 L421 522 L411 543 L392 572 L369 597 L344 614 L318 627 L301 633 L289 636 L277 637 L276 638 L252 638 L251 637 L245 637 L232 634 L210 625 L195 613 L154 559 L140 537 L119 497 L119 495 L110 476 L102 452 L100 449 L89 414 L87 411 L86 405 L84 402 L84 399 L79 386 L78 379 L76 375 L76 372 L74 368 L69 348 L69 344 L65 330 L65 326 L59 300 L58 289 L57 288 L56 275 L57 274 L57 267 Z M681 378 L673 390 L669 400 L667 401 L656 368 L642 342 L631 327 L615 311 L595 298 L579 292 L571 290 L565 290 L564 289 L542 289 L541 290 L526 292 L509 298 L495 305 L478 317 L462 333 L447 355 L439 372 L431 400 L429 398 L428 394 L419 378 L419 375 L422 366 L428 356 L429 349 L441 331 L441 323 L443 319 L458 305 L491 284 L520 270 L525 269 L531 266 L544 263 L566 262 L587 267 L602 275 L630 294 L647 311 L653 319 L661 333 L670 352 L676 369 Z M1056 236 L1057 237 L1057 247 L1056 248 L1056 255 L1054 263 L1054 271 L1053 272 L1053 279 L1052 280 L1052 288 L1051 289 L1051 297 L1050 298 L1050 305 L1049 306 L1049 313 L1048 314 L1047 330 L1046 331 L1045 344 L1044 345 L1042 362 L1040 367 L1037 386 L1028 422 L1026 426 L1020 450 L1015 463 L1015 466 L1006 490 L999 503 L998 500 L1002 488 L1002 483 L1004 479 L1005 469 L1007 465 L1011 442 L1013 437 L1016 417 L1018 411 L1018 406 L1019 405 L1019 400 L1021 394 L1024 371 L1025 370 L1027 348 L1028 347 L1028 339 L1029 338 L1029 330 L1030 329 L1032 285 L1033 284 L1032 273 L1029 273 L1019 278 L1008 281 L1002 284 L999 284 L986 289 L983 289 L955 298 L945 300 L901 314 L901 316 L933 315 L934 316 L949 317 L959 320 L975 329 L989 343 L1000 363 L1005 380 L1006 390 L1007 391 L1007 399 L1008 400 L1008 432 L1007 433 L1007 444 L1006 445 L1006 452 L1005 453 L1005 462 L1003 467 L1002 478 L1000 483 L998 495 L996 498 L995 504 L988 522 L973 548 L966 557 L949 574 L930 588 L910 599 L908 599 L901 603 L872 612 L862 613 L861 614 L852 614 L851 615 L837 615 L836 614 L824 613 L812 609 L795 600 L777 587 L764 575 L749 557 L735 535 L724 512 L718 494 L714 477 L714 471 L713 470 L713 443 L714 442 L715 431 L721 412 L730 396 L736 388 L751 373 L760 367 L761 368 L746 385 L738 399 L731 421 L731 427 L730 428 L730 446 L731 447 L731 454 L735 471 L741 487 L749 503 L758 517 L773 536 L786 549 L802 561 L818 570 L835 576 L850 578 L851 579 L877 579 L878 578 L883 578 L900 574 L906 571 L911 570 L930 560 L945 549 L959 535 L973 514 L984 487 L986 474 L987 473 L988 455 L989 454 L988 429 L987 428 L986 416 L983 404 L977 388 L969 373 L959 360 L941 345 L932 340 L913 333 L900 330 L893 330 L892 329 L860 329 L859 330 L851 330 L850 331 L844 331 L843 332 L838 332 L825 335 L793 346 L768 359 L754 368 L734 387 L725 400 L716 419 L712 435 L711 453 L710 454 L711 470 L712 471 L714 487 L721 510 L724 515 L726 522 L733 536 L746 556 L756 569 L775 588 L796 603 L812 611 L814 616 L821 621 L835 626 L841 627 L844 629 L834 632 L824 637 L808 639 L804 636 L792 632 L778 625 L748 604 L729 587 L706 564 L690 545 L680 530 L672 514 L667 500 L664 483 L663 482 L662 464 L661 463 L662 432 L663 431 L664 419 L668 405 L674 392 L682 379 L701 362 L718 351 L742 339 L752 331 L758 328 L769 328 L774 330 L787 331 L791 329 L793 330 L794 329 L800 329 L806 326 L813 320 L819 320 L820 321 L833 320 L843 314 L856 310 L859 308 L1023 256 L1043 247 L1049 243 Z M1059 232 L1057 232 L1044 244 L1035 249 L1020 255 L853 308 L829 319 L813 318 L800 327 L787 328 L786 329 L774 328 L763 325 L755 327 L740 338 L708 355 L691 368 L683 376 L681 375 L669 345 L659 325 L647 308 L633 294 L614 280 L592 267 L573 261 L553 260 L552 261 L545 261 L544 262 L535 263 L522 267 L496 279 L463 299 L452 307 L441 319 L439 323 L439 331 L430 343 L427 349 L425 358 L423 360 L417 374 L392 347 L374 331 L362 324 L347 324 L344 325 L322 316 L306 312 L302 312 L285 307 L281 307 L272 304 L268 304 L263 302 L259 302 L254 300 L250 300 L245 298 L235 297 L229 295 L224 295 L223 294 L201 292 L200 291 L188 291 L187 290 L157 289 L129 282 L118 282 L111 284 L103 284 L92 281 L70 268 L67 268 L63 265 L57 264 L55 267 L55 273 L54 274 L57 300 L58 301 L59 311 L63 326 L64 335 L74 375 L78 386 L78 389 L101 458 L103 461 L111 484 L124 510 L124 512 L126 514 L139 539 L156 565 L193 614 L200 621 L203 622 L214 632 L220 645 L218 652 L218 662 L221 667 L232 670 L254 669 L255 668 L262 668 L263 667 L269 667 L275 665 L285 664 L303 659 L311 673 L311 682 L309 690 L309 698 L311 703 L309 705 L280 720 L278 720 L259 729 L225 741 L222 741 L209 746 L192 750 L188 752 L185 756 L184 760 L185 764 L188 766 L191 766 L200 762 L203 762 L206 760 L247 747 L250 745 L261 742 L281 733 L283 733 L311 719 L312 720 L312 728 L313 729 L313 735 L315 742 L314 754 L313 755 L313 759 L314 760 L313 768 L292 793 L266 820 L245 838 L225 852 L214 857 L198 861 L192 864 L185 871 L182 877 L182 883 L188 895 L196 902 L195 912 L194 913 L188 905 L180 897 L174 896 L172 898 L171 906 L170 907 L170 927 L171 928 L171 939 L172 940 L172 954 L173 955 L176 1004 L177 1005 L178 1026 L179 1027 L179 1036 L180 1037 L180 1046 L181 1047 L183 1070 L182 1071 L166 1057 L163 1056 L155 1050 L141 1044 L129 1043 L128 1044 L119 1044 L118 1045 L95 1045 L86 1052 L82 1065 L84 1089 L85 1090 L85 1115 L83 1122 L83 1132 L84 1134 L90 1138 L101 1139 L105 1143 L112 1146 L114 1148 L125 1148 L128 1149 L131 1152 L136 1154 L156 1176 L163 1179 L174 1181 L184 1185 L192 1186 L193 1187 L204 1187 L222 1193 L254 1199 L255 1200 L273 1202 L274 1203 L282 1203 L283 1204 L301 1205 L302 1206 L330 1207 L331 1208 L350 1208 L351 1209 L411 1209 L412 1208 L460 1207 L461 1208 L483 1208 L484 1209 L556 1210 L557 1209 L593 1209 L594 1208 L672 1206 L673 1205 L686 1205 L687 1204 L697 1204 L698 1203 L719 1202 L720 1201 L735 1201 L747 1204 L758 1205 L762 1204 L771 1198 L781 1195 L789 1195 L790 1194 L833 1196 L834 1197 L851 1198 L852 1199 L859 1199 L860 1200 L872 1200 L873 1201 L890 1201 L900 1198 L904 1194 L907 1187 L913 1145 L920 1118 L922 1115 L927 1099 L930 1094 L930 1091 L933 1088 L936 1082 L941 1077 L945 1069 L945 1063 L944 1062 L943 1054 L950 1032 L954 1010 L955 1009 L957 991 L958 990 L958 982 L959 981 L959 970 L960 969 L965 971 L984 984 L992 982 L1001 990 L1015 997 L1020 996 L1024 992 L1031 979 L1031 975 L1029 972 L1027 972 L1016 966 L968 925 L958 919 L957 908 L955 902 L952 899 L950 899 L947 902 L939 917 L926 931 L892 959 L870 981 L858 995 L841 1017 L821 1048 L814 1061 L809 1067 L808 1066 L807 1067 L802 1067 L801 1066 L794 1067 L786 1072 L782 1079 L775 1087 L768 1087 L761 1093 L753 1094 L752 1095 L744 1095 L743 1096 L694 1096 L693 1095 L675 1095 L674 1094 L657 1094 L656 1093 L615 1093 L614 1094 L603 1094 L602 1095 L567 1097 L566 1098 L553 1098 L552 1099 L488 1099 L487 1098 L457 1098 L456 1097 L398 1095 L397 1094 L383 1094 L382 1093 L362 1092 L361 1091 L354 1091 L353 1090 L339 1089 L338 1088 L333 1089 L329 1088 L321 1080 L319 1076 L312 1068 L308 1066 L298 1066 L293 1064 L285 1053 L270 1027 L250 988 L261 985 L281 971 L286 973 L296 973 L300 971 L308 961 L314 956 L343 941 L367 932 L387 927 L417 926 L418 927 L426 928 L429 941 L434 949 L440 954 L451 958 L460 958 L469 955 L477 949 L482 942 L484 936 L489 936 L492 938 L496 938 L501 940 L513 952 L533 951 L539 959 L547 966 L558 969 L576 969 L577 968 L586 967 L592 964 L596 960 L600 952 L605 948 L614 948 L627 944 L639 937 L652 926 L658 923 L662 923 L663 922 L664 923 L681 924 L682 923 L689 923 L701 920 L705 920 L706 921 L715 920 L719 918 L723 914 L725 910 L726 902 L729 899 L735 897 L738 894 L741 886 L741 867 L740 866 L739 850 L740 849 L741 835 L742 834 L744 801 L747 791 L748 780 L750 775 L754 776 L757 779 L764 782 L799 817 L826 850 L839 868 L856 886 L863 889 L872 889 L874 890 L884 904 L894 911 L905 912 L909 910 L913 906 L919 893 L918 888 L911 881 L903 877 L896 876 L889 871 L862 845 L837 817 L760 723 L761 705 L762 701 L765 700 L814 736 L818 738 L822 737 L825 730 L820 724 L814 721 L790 703 L768 684 L769 670 L775 657 L783 649 L794 644 L801 643 L805 641 L824 639 L827 637 L832 636 L834 634 L844 631 L856 632 L857 631 L872 630 L880 627 L887 626 L909 618 L921 612 L939 600 L953 587 L965 572 L970 564 L983 537 L985 535 L987 529 L998 511 L1010 486 L1021 454 L1021 451 L1028 430 L1030 419 L1033 412 L1033 408 L1038 391 L1038 387 L1039 386 L1039 382 L1041 377 L1043 362 L1045 356 L1046 345 L1047 344 L1051 306 L1052 305 L1052 297 L1053 296 L1053 289 L1054 288 L1054 280 L1055 279 L1055 271 L1056 270 L1056 263 L1057 262 L1058 247 L1059 246 Z" fill="#eef3f4" fill-rule="evenodd"/>
</svg>
