<svg xmlns="http://www.w3.org/2000/svg" width="1122" height="1402" viewBox="0 0 1122 1402">
  <title>0337</title>
  <path d="M472 1303 L480 1311 L494 1320 L508 1327 L530 1335 L548 1338 L549 1339 L557 1339 L558 1340 L595 1340 L596 1339 L604 1339 L605 1338 L622 1335 L640 1329 L653 1323 L665 1316 L678 1305 L652 1322 L626 1332 L610 1336 L598 1337 L597 1338 L569 1339 L568 1338 L548 1337 L517 1329 L495 1319 Z M673 1172 L658 1184 L641 1194 L618 1202 L605 1204 L604 1205 L599 1205 L598 1206 L590 1206 L589 1207 L554 1207 L553 1206 L544 1206 L543 1205 L527 1203 L500 1194 L485 1186 L475 1178 L474 1179 L481 1185 L496 1194 L520 1203 L533 1206 L538 1206 L539 1207 L546 1207 L547 1208 L584 1209 L585 1208 L594 1208 L595 1207 L608 1206 L636 1198 L655 1188 L663 1182 Z M454 1137 L455 1136 L456 1137 L455 1138 Z M692 1122 L692 1124 L678 1150 L660 1169 L653 1174 L643 1179 L631 1183 L617 1184 L616 1185 L576 1184 L575 1185 L566 1185 L565 1186 L550 1187 L549 1188 L523 1188 L522 1187 L517 1187 L505 1184 L486 1175 L477 1168 L465 1155 L455 1139 L456 1137 L465 1142 L491 1151 L508 1155 L525 1157 L526 1158 L547 1159 L548 1160 L582 1160 L583 1159 L592 1159 L593 1158 L599 1158 L600 1157 L620 1154 L650 1145 L672 1135 L682 1129 L691 1121 Z M691 1121 L692 1120 L693 1121 L692 1122 Z M688 1119 L689 1118 L690 1119 L689 1120 Z M689 1120 L674 1131 L672 1131 L662 1137 L660 1137 L645 1144 L615 1152 L600 1154 L599 1155 L593 1155 L592 1156 L584 1156 L583 1157 L546 1157 L545 1156 L534 1156 L533 1155 L514 1153 L513 1152 L509 1152 L508 1151 L487 1147 L467 1140 L460 1136 L461 1135 L478 1134 L503 1126 L520 1125 L542 1131 L555 1137 L563 1139 L576 1139 L586 1136 L603 1125 L619 1119 L637 1118 L638 1119 L644 1119 L645 1120 L655 1121 L656 1122 L663 1122 L664 1123 L678 1122 L686 1119 Z M716 1117 L711 1107 L711 1103 L709 1097 L707 1097 L704 1104 L697 1111 L683 1118 L675 1119 L674 1120 L660 1120 L643 1116 L634 1116 L633 1115 L620 1116 L607 1120 L599 1124 L589 1131 L578 1136 L562 1136 L529 1124 L517 1123 L516 1122 L499 1124 L475 1132 L456 1132 L449 1130 L444 1127 L436 1119 L435 1116 L433 1116 L433 1126 L428 1136 L427 1141 L428 1141 L436 1124 L450 1134 L459 1151 L469 1164 L476 1171 L489 1180 L499 1185 L512 1189 L522 1190 L523 1191 L551 1191 L558 1189 L579 1188 L580 1187 L618 1188 L619 1187 L630 1186 L643 1182 L655 1176 L667 1167 L680 1152 L693 1128 L697 1117 L707 1105 L710 1108 L715 1120 L716 1120 Z M494 1058 L495 1057 L496 1058 L495 1059 Z M493 1052 L496 1049 L504 1049 L518 1054 L522 1057 L521 1058 L510 1058 L509 1059 L507 1058 L500 1058 L496 1056 Z M643 1046 L644 1045 L645 1046 L644 1047 Z M644 1042 L641 1045 L631 1049 L625 1050 L622 1048 L635 1041 L643 1041 Z M671 1002 L665 988 L652 975 L644 971 L636 970 L635 969 L626 970 L621 973 L635 971 L636 972 L644 973 L653 978 L660 985 L666 995 L670 1011 L669 1023 L665 1033 L659 1040 L647 1046 L644 1045 L646 1043 L646 1041 L643 1038 L632 1039 L625 1042 L602 1058 L591 1064 L571 1069 L560 1069 L559 1068 L554 1068 L546 1066 L529 1058 L516 1050 L507 1047 L495 1047 L491 1050 L491 1053 L495 1057 L494 1058 L484 1057 L470 1051 L460 1041 L455 1029 L455 1012 L461 997 L475 983 L484 979 L491 979 L492 978 L483 978 L474 981 L468 985 L461 992 L457 998 L453 1008 L451 1023 L455 1038 L463 1049 L475 1057 L489 1061 L524 1061 L528 1060 L543 1068 L549 1070 L560 1071 L561 1072 L570 1072 L571 1071 L578 1071 L591 1067 L601 1062 L619 1049 L625 1053 L642 1046 L644 1047 L643 1048 L647 1048 L659 1042 L666 1035 L671 1025 L671 1020 L672 1019 Z M214 900 L215 901 L214 905 L213 904 Z M478 892 L462 895 L450 901 L432 907 L403 912 L407 912 L408 913 L409 912 L417 912 L418 911 L423 911 L435 908 L454 901 L459 898 L472 894 L476 894 Z M308 887 L309 889 L317 894 L333 902 L349 908 L366 912 L373 912 L374 913 L392 913 L392 912 L386 912 L385 911 L365 910 L352 907 L328 898 Z M631 886 L631 887 L649 886 L650 887 L656 887 L657 888 L670 889 L671 890 L710 890 L711 889 L718 889 L725 887 L705 888 L704 889 L678 889 L677 888 L668 888 L667 887 L661 887 L660 886 L647 885 L646 884 L638 884 Z M394 882 L395 881 L396 882 L395 883 Z M412 881 L413 880 L415 881 L414 882 Z M391 881 L392 880 L394 881 L393 882 Z M348 881 L349 880 L352 881 L351 882 Z M422 880 L423 879 L424 880 L423 881 Z M414 880 L415 879 L417 880 L416 881 Z M389 880 L390 879 L391 880 L390 881 Z M472 879 L473 878 L474 879 L473 880 Z M387 879 L388 878 L390 879 L389 880 Z M416 879 L418 877 L420 878 L418 880 Z M386 878 L387 877 L388 878 L387 879 Z M385 877 L386 876 L387 877 L386 878 Z M384 876 L385 875 L386 876 L385 877 Z M349 880 L348 881 L336 881 L335 880 L326 880 L320 878 L321 877 L327 877 L339 872 L343 877 Z M655 865 L656 864 L657 865 L656 866 Z M455 864 L473 878 L472 879 L459 879 L455 878 L452 875 L452 870 Z M693 861 L694 860 L695 861 L694 862 Z M712 860 L713 859 L715 860 L714 861 Z M690 860 L691 859 L693 860 L692 861 Z M714 859 L715 858 L717 859 L716 860 Z M688 859 L689 858 L691 859 L690 860 Z M716 858 L717 857 L718 858 L717 859 Z M758 854 L759 853 L762 854 L761 855 Z M761 853 L762 852 L765 853 L764 854 Z M722 852 L723 854 L718 858 L717 857 Z M428 852 L443 857 L452 863 L449 871 L449 874 L452 878 L451 879 L439 879 L438 880 L424 880 L423 879 L426 876 L430 866 L430 859 L429 855 L427 853 Z M387 882 L386 883 L363 883 L359 881 L353 880 L339 872 L360 857 L371 852 L376 851 L377 853 L375 856 L375 860 L374 861 L375 862 L375 868 L378 874 Z M422 850 L426 855 L427 867 L424 874 L420 878 L419 876 L422 873 L425 865 L424 856 L421 852 Z M385 853 L388 851 L398 851 L401 850 L402 851 L400 853 L397 853 L397 855 L402 856 L405 853 L406 850 L417 851 L422 857 L422 867 L419 873 L413 878 L407 880 L397 880 L389 876 L383 867 L382 861 Z M383 850 L385 851 L381 855 L380 866 L385 875 L384 876 L380 872 L377 864 L378 856 L380 852 Z M376 851 L377 850 L378 851 L377 852 Z M724 849 L725 851 L723 853 L722 851 Z M650 848 L655 855 L656 858 L655 862 L651 866 L636 871 L629 875 L628 873 L632 867 Z M681 847 L684 853 L689 858 L688 859 L682 854 L680 850 Z M787 845 L768 853 L764 852 L782 844 L786 844 Z M484 887 L483 884 L470 871 L451 858 L441 853 L424 847 L420 847 L415 845 L408 845 L407 844 L382 845 L367 849 L350 858 L334 869 L315 876 L299 876 L292 874 L295 877 L311 881 L325 882 L326 883 L336 883 L337 884 L347 884 L348 885 L403 886 L404 885 L416 885 L417 884 L436 883 L437 882 L469 882 L470 883 L478 883 Z M904 839 L909 850 L911 863 L912 864 L913 878 L914 879 L915 893 L916 894 L916 902 L917 903 L917 910 L918 911 L918 918 L919 919 L919 926 L920 927 L920 934 L921 935 L922 947 L923 950 L924 950 L923 941 L922 940 L922 932 L921 931 L921 924 L920 923 L918 895 L917 894 L917 886 L916 885 L914 865 L910 848 L907 841 Z M757 835 L758 834 L759 835 L758 836 Z M754 834 L755 833 L756 834 L755 835 Z M676 833 L677 834 L676 837 L677 851 L681 857 L688 862 L687 863 L657 865 L656 864 L658 861 L658 856 L652 846 L667 836 Z M752 833 L753 832 L754 833 L753 834 Z M676 833 L677 832 L678 833 L677 834 Z M683 831 L684 833 L681 837 L681 847 L680 848 L678 842 L679 841 L679 836 L680 833 Z M720 860 L727 853 L730 846 L731 836 L728 829 L729 828 L747 833 L762 840 L771 841 L779 844 L776 846 L755 853 L754 854 L757 854 L758 855 L757 856 L752 856 L747 858 L728 860 L727 861 L721 861 Z M722 827 L725 828 L728 834 L728 844 L725 850 L724 847 L726 843 L726 837 L724 831 L721 828 Z M721 831 L723 836 L723 845 L719 852 L714 856 L707 859 L696 859 L690 856 L686 852 L683 845 L683 839 L685 834 L690 830 L691 833 L694 836 L698 835 L698 830 L701 828 L717 827 Z M621 882 L639 873 L657 868 L663 868 L671 866 L716 865 L717 864 L734 863 L735 862 L741 862 L742 861 L756 859 L776 853 L795 844 L806 841 L813 837 L810 837 L801 841 L786 842 L785 841 L776 840 L748 828 L729 823 L703 822 L702 823 L691 824 L678 828 L665 834 L646 847 L633 861 L626 871 L623 878 L621 880 Z M492 816 L498 835 L498 840 L501 853 L501 862 L502 863 L502 901 L501 904 L502 904 L503 891 L504 890 L503 853 L501 848 L501 842 L495 820 L493 816 Z M583 811 L582 826 L581 827 L581 864 L582 865 L583 895 L584 896 L584 908 L585 909 L585 919 L586 920 L586 930 L587 931 L587 944 L588 945 L590 985 L591 986 L591 1023 L589 1029 L589 1034 L584 1046 L577 1053 L571 1056 L563 1058 L556 1057 L556 1058 L560 1058 L561 1059 L570 1058 L578 1054 L584 1048 L588 1040 L592 1024 L592 980 L591 979 L591 965 L590 964 L590 955 L589 954 L589 940 L588 939 L587 917 L586 916 L586 904 L585 903 L585 892 L584 891 L584 875 L583 874 L583 855 L582 854 L582 831 L583 830 L583 817 L584 816 Z M336 793 L338 793 L347 787 L356 783 L372 778 L384 777 L385 776 L407 776 L408 777 L414 777 L431 782 L443 788 L454 796 L461 803 L472 818 L478 830 L486 857 L486 863 L487 864 L487 887 L488 886 L489 882 L488 857 L487 856 L487 851 L484 839 L481 833 L480 828 L467 806 L454 793 L446 787 L432 780 L418 776 L407 775 L406 774 L386 774 L385 775 L378 775 L357 781 L350 785 L348 785 Z M165 773 L166 772 L167 773 L166 774 Z M294 767 L295 766 L296 767 L295 768 Z M295 766 L296 765 L297 766 L296 767 Z M296 764 L297 763 L298 764 L297 765 Z M898 763 L899 762 L900 763 L899 764 Z M754 761 L744 757 L731 754 L726 754 L725 753 L699 752 L698 753 L691 753 L670 758 L653 766 L641 775 L632 784 L622 799 L614 821 L613 833 L612 834 L612 855 L613 856 L613 862 L614 863 L614 868 L615 869 L617 882 L619 883 L617 869 L616 868 L616 859 L615 858 L615 832 L616 831 L618 817 L628 794 L632 788 L645 775 L657 767 L669 761 L692 755 L719 754 L720 755 L734 756 L752 762 L754 762 Z M166 746 L176 770 L176 773 L181 786 L181 789 L185 801 L190 810 L194 814 L196 819 L196 825 L197 826 L197 832 L200 845 L200 851 L203 864 L205 882 L208 891 L211 907 L219 928 L220 942 L221 943 L222 956 L224 964 L224 971 L225 972 L228 995 L230 1001 L230 1008 L232 1014 L232 1019 L233 1020 L236 1039 L240 1052 L243 1068 L250 1089 L250 1092 L253 1098 L259 1117 L262 1122 L261 1124 L251 1129 L240 1132 L220 1132 L210 1128 L205 1123 L202 1117 L200 1109 L200 1103 L199 1102 L199 1058 L200 1057 L201 1007 L200 1006 L199 966 L198 965 L196 936 L195 935 L192 905 L191 904 L187 848 L186 847 L185 836 L179 812 L166 777 L166 775 L168 773 L168 768 L165 755 L165 747 Z M164 745 L165 744 L166 746 L165 747 Z M451 729 L452 728 L453 729 L452 730 Z M449 728 L450 727 L452 728 L451 729 Z M447 727 L448 726 L450 727 L449 728 Z M155 724 L164 740 L163 743 L163 755 L166 767 L166 772 L165 773 L160 760 L160 757 L156 747 L156 743 L154 738 L153 726 Z M792 724 L793 723 L794 724 L793 725 Z M791 723 L792 722 L793 723 L792 724 Z M790 722 L791 721 L792 722 L791 723 Z M789 721 L790 720 L791 721 L790 722 Z M788 720 L789 719 L790 720 L789 721 Z M619 719 L620 718 L621 719 L620 720 Z M620 718 L621 717 L622 718 L621 719 Z M151 717 L154 721 L152 724 L150 720 Z M621 717 L622 716 L623 717 L622 718 Z M448 726 L445 727 L427 721 L411 719 L410 718 L399 718 L398 717 L378 718 L377 719 L366 720 L346 726 L328 735 L317 743 L304 756 L298 764 L297 763 L300 756 L307 745 L322 728 L336 718 L357 709 L367 708 L368 707 L376 707 L377 706 L388 706 L389 707 L404 708 L430 716 Z M473 741 L457 728 L446 721 L428 712 L408 706 L403 706 L402 705 L396 705 L395 704 L370 704 L369 705 L363 705 L346 710 L325 722 L307 740 L300 750 L291 767 L283 789 L281 800 L282 800 L284 793 L296 771 L305 759 L319 745 L337 733 L357 725 L370 722 L375 722 L376 721 L383 721 L384 720 L413 721 L414 722 L419 722 L420 723 L433 725 L453 732 L464 738 L466 738 L473 743 Z M622 716 L634 705 L650 694 L671 684 L696 678 L719 678 L720 679 L733 681 L755 690 L776 705 L789 719 L787 720 L770 707 L752 698 L736 693 L726 692 L725 691 L716 691 L715 690 L692 691 L691 692 L686 692 L685 693 L668 696 L646 704 L634 710 L624 717 Z M605 734 L606 735 L614 727 L631 715 L638 711 L640 711 L642 709 L644 709 L661 701 L690 694 L720 693 L721 694 L728 694 L729 695 L738 696 L750 700 L770 710 L791 726 L806 742 L816 757 L817 757 L816 753 L800 728 L788 713 L778 703 L765 693 L749 684 L733 678 L725 677 L724 676 L718 676 L717 675 L697 675 L696 676 L685 677 L666 683 L650 691 L626 708 L613 722 Z M154 667 L158 667 L162 669 L167 673 L171 679 L172 687 L175 697 L175 702 L177 707 L178 716 L182 731 L187 764 L189 770 L189 776 L190 777 L190 783 L191 784 L191 790 L192 791 L192 797 L194 805 L194 809 L193 810 L187 800 L182 784 L182 781 L168 743 L158 724 L149 713 L148 710 L147 695 L146 694 L147 679 L151 669 Z M932 604 L937 608 L939 612 L940 620 L941 621 L942 638 L941 639 L941 653 L940 654 L940 661 L939 662 L939 668 L938 669 L934 702 L933 703 L932 721 L931 722 L931 730 L930 731 L930 741 L929 742 L928 784 L927 785 L928 786 L927 788 L927 846 L928 847 L928 864 L929 865 L929 877 L930 878 L930 888 L931 889 L932 914 L933 915 L934 934 L935 935 L935 946 L936 947 L937 963 L938 964 L938 971 L939 972 L939 979 L940 980 L943 1008 L945 1015 L945 1022 L946 1023 L947 1035 L948 1036 L948 1046 L949 1047 L948 1060 L944 1069 L939 1074 L928 1079 L924 1079 L923 1080 L907 1080 L894 1077 L891 1075 L892 1065 L893 1064 L893 1057 L894 1056 L895 1037 L896 1036 L897 993 L898 992 L897 895 L896 894 L895 849 L894 846 L893 846 L894 926 L895 927 L894 1015 L893 1016 L891 1054 L890 1055 L889 1070 L888 1071 L888 1076 L887 1077 L884 1097 L872 1140 L870 1143 L869 1148 L861 1168 L855 1179 L855 1181 L836 1215 L809 1252 L774 1287 L751 1305 L721 1324 L690 1339 L662 1349 L628 1357 L614 1358 L613 1359 L602 1359 L601 1360 L568 1360 L567 1359 L548 1358 L547 1357 L526 1354 L495 1345 L492 1343 L472 1336 L440 1320 L407 1299 L382 1280 L358 1259 L338 1239 L320 1218 L308 1202 L291 1176 L272 1140 L272 1138 L261 1114 L248 1075 L240 1043 L240 1039 L235 1018 L235 1013 L233 1007 L233 1002 L232 1001 L232 996 L231 995 L231 990 L230 989 L230 984 L227 971 L227 965 L225 958 L224 945 L222 938 L221 928 L223 925 L223 915 L220 914 L218 910 L217 897 L215 890 L215 882 L213 874 L212 858 L211 857 L211 850 L210 849 L210 842 L209 841 L206 803 L205 802 L205 791 L204 790 L204 775 L203 774 L203 727 L204 726 L204 714 L205 713 L207 696 L214 674 L226 650 L244 624 L271 595 L294 573 L307 562 L315 558 L322 558 L323 559 L330 559 L331 560 L338 560 L339 561 L353 562 L361 564 L369 564 L370 565 L378 565 L379 566 L401 567 L402 568 L419 568 L420 569 L501 569 L502 568 L522 568 L523 567 L536 567 L537 566 L556 565 L557 564 L564 564 L565 563 L594 560 L595 559 L600 559 L606 557 L611 557 L617 555 L622 555 L623 554 L642 551 L651 548 L655 548 L660 546 L664 546 L673 543 L677 543 L682 541 L686 541 L706 536 L724 535 L754 550 L774 563 L792 577 L817 602 L837 631 L859 674 L873 713 L877 732 L879 736 L881 751 L884 762 L884 767 L885 768 L885 773 L888 786 L888 792 L889 793 L889 799 L890 800 L890 806 L891 807 L891 813 L893 814 L896 789 L897 788 L898 769 L905 760 L908 753 L909 716 L910 715 L910 707 L911 706 L913 687 L920 663 L931 640 L933 645 L933 654 L932 655 L931 671 L930 672 L930 678 L928 684 L928 690 L927 691 L925 711 L924 712 L924 721 L923 722 L923 732 L924 732 L926 708 L927 707 L928 695 L929 694 L929 689 L930 688 L932 672 L933 671 L933 665 L934 664 L935 645 L934 644 L933 636 L937 630 L936 629 L934 631 L928 641 L920 657 L913 677 L910 694 L909 695 L908 708 L907 709 L907 718 L906 719 L906 752 L904 758 L900 763 L899 762 L899 689 L900 688 L900 667 L901 666 L901 653 L902 652 L902 642 L903 641 L904 618 L907 613 L914 606 L922 603 Z M198 643 L199 643 L202 634 L209 621 L235 584 L259 539 L265 530 L274 521 L281 518 L294 519 L345 538 L348 538 L364 543 L373 544 L378 546 L384 546 L385 547 L398 548 L399 549 L407 549 L408 550 L417 550 L418 551 L432 551 L433 552 L480 552 L481 551 L425 550 L424 549 L414 549 L413 548 L405 548 L404 547 L378 544 L348 537 L294 517 L281 516 L272 520 L261 532 L232 585 L207 621 L199 637 Z M546 547 L560 547 L561 546 L582 544 L588 542 L598 541 L611 537 L615 537 L638 530 L641 528 L656 523 L699 502 L709 496 L711 496 L723 490 L726 490 L734 487 L740 487 L741 486 L748 486 L758 489 L770 497 L780 508 L819 567 L862 618 L873 635 L879 647 L883 660 L885 663 L885 659 L878 641 L862 615 L818 563 L781 506 L772 496 L766 491 L757 486 L749 485 L748 484 L741 484 L740 485 L734 485 L723 488 L713 492 L661 519 L623 533 L595 540 Z M381 476 L382 475 L385 476 L384 477 Z M349 473 L361 462 L365 465 L364 463 L365 460 L377 472 L382 475 L381 476 L375 476 L374 475 L350 474 Z M618 457 L619 456 L620 457 L619 458 Z M650 451 L649 452 L642 452 L641 453 L631 454 L623 457 L620 456 L628 448 L634 439 L639 444 Z M379 395 L377 396 L371 409 L368 419 L356 440 L343 454 L335 460 L324 466 L307 471 L285 471 L277 469 L266 464 L251 452 L258 460 L268 467 L283 473 L306 474 L326 468 L346 455 L359 440 L367 426 Z M233 395 L234 394 L235 395 L234 396 Z M854 413 L872 441 L884 468 L894 503 L896 518 L897 519 L897 525 L898 526 L899 542 L900 543 L900 556 L901 557 L901 627 L900 628 L900 640 L899 641 L898 666 L897 667 L897 688 L896 689 L896 768 L895 769 L894 787 L892 794 L891 793 L890 780 L889 779 L889 774 L888 773 L888 768 L887 767 L887 762 L885 756 L883 741 L874 706 L864 681 L863 676 L855 660 L855 658 L837 625 L814 594 L793 574 L763 552 L730 534 L722 532 L713 532 L712 533 L700 534 L695 536 L668 541 L637 549 L633 549 L617 553 L612 553 L606 555 L583 558 L582 559 L561 561 L560 562 L552 562 L551 563 L543 563 L542 564 L495 566 L494 567 L431 567 L430 566 L411 566 L410 565 L395 565 L394 564 L373 563 L372 562 L349 560 L348 559 L342 559 L341 558 L335 558 L327 556 L314 556 L308 558 L293 570 L256 606 L240 624 L221 653 L207 685 L203 701 L202 713 L201 714 L201 724 L200 725 L200 778 L201 779 L202 802 L203 803 L203 811 L204 812 L204 822 L205 823 L207 849 L208 850 L211 878 L212 879 L212 886 L214 894 L214 900 L213 901 L212 900 L209 888 L208 878 L207 877 L206 865 L205 864 L205 858 L204 857 L201 831 L200 830 L199 818 L197 811 L197 804 L196 803 L194 783 L192 776 L191 763 L190 762 L188 746 L186 741 L178 697 L174 682 L170 654 L169 653 L168 638 L167 637 L167 627 L166 626 L166 616 L165 615 L164 570 L165 569 L166 540 L167 539 L167 532 L168 531 L170 514 L176 490 L182 473 L194 447 L208 424 L225 403 L233 395 L234 399 L232 407 L232 425 L233 426 L235 441 L244 462 L254 474 L265 482 L276 487 L289 490 L313 489 L327 485 L341 478 L365 477 L366 478 L375 478 L383 480 L395 480 L408 485 L429 489 L430 490 L437 490 L438 491 L447 491 L448 492 L489 491 L490 490 L496 490 L497 489 L512 487 L516 485 L549 485 L550 484 L557 484 L558 483 L567 482 L589 475 L613 462 L641 455 L658 455 L678 463 L686 465 L691 465 L692 466 L698 466 L699 467 L723 467 L724 466 L729 466 L737 464 L755 456 L762 451 L772 442 L785 424 L793 406 L797 392 L798 376 L799 375 L799 367 L798 366 L798 361 L799 360 L831 387 Z M549 357 L538 369 L528 376 L508 384 L497 385 L496 386 L482 386 L481 385 L475 385 L460 381 L444 372 L437 364 L435 364 L446 376 L458 383 L471 387 L494 389 L495 388 L502 388 L503 387 L512 386 L528 379 L538 372 L543 367 L549 359 Z M592 340 L618 367 L634 391 L648 408 L662 421 L680 433 L682 433 L692 438 L706 442 L711 442 L712 443 L736 443 L749 440 L759 435 L761 435 L772 426 L755 436 L737 441 L715 441 L714 440 L700 438 L686 433 L678 429 L661 417 L640 395 L624 372 L608 353 Z M449 316 L446 320 L439 325 L434 332 L434 334 L431 339 L430 346 L414 358 L400 374 L384 403 L379 416 L379 419 L373 438 L369 446 L359 460 L346 472 L330 481 L318 485 L310 486 L309 487 L287 487 L276 484 L264 478 L248 463 L242 452 L237 436 L236 425 L235 424 L235 407 L236 406 L237 396 L240 388 L259 372 L278 360 L300 349 L302 349 L309 345 L319 342 L322 340 L347 332 L363 328 L367 328 L376 325 L385 324 L405 319 L411 319 L417 317 L432 316 L433 315 L445 315 L446 314 Z M549 312 L550 311 L564 311 L565 310 L593 310 L594 311 L611 311 L612 312 L623 312 L624 313 L635 313 L636 314 L646 314 L647 315 L656 315 L657 316 L667 316 L668 317 L683 318 L684 319 L690 319 L691 320 L696 320 L697 321 L717 324 L758 337 L777 346 L794 357 L795 365 L796 366 L796 379 L795 380 L794 392 L788 411 L780 427 L774 435 L759 450 L753 454 L738 461 L725 464 L707 465 L706 464 L696 464 L695 463 L685 462 L666 456 L645 445 L627 428 L616 410 L616 408 L611 399 L602 373 L594 357 L587 346 L574 330 L554 318 Z M631 436 L631 438 L626 446 L613 458 L599 467 L581 475 L556 481 L534 482 L533 483 L529 482 L544 475 L546 475 L558 468 L577 453 L575 453 L561 464 L537 476 L507 485 L497 486 L496 487 L489 487 L488 488 L479 488 L478 489 L449 489 L448 488 L430 487 L429 486 L424 486 L423 485 L410 483 L406 481 L400 480 L381 471 L374 466 L365 457 L376 437 L385 408 L394 390 L395 391 L396 401 L400 411 L405 418 L416 429 L425 435 L438 441 L462 447 L486 448 L487 447 L502 446 L518 442 L543 431 L562 417 L572 407 L576 401 L562 415 L553 422 L527 436 L503 443 L498 443 L497 444 L489 444 L488 445 L460 444 L435 437 L420 429 L404 414 L401 409 L401 407 L399 405 L397 397 L397 391 L400 380 L405 372 L412 364 L429 350 L430 351 L431 359 L433 359 L432 357 L432 346 L435 336 L438 331 L451 319 L463 331 L477 339 L488 342 L500 342 L511 339 L520 334 L531 323 L540 308 L549 316 L554 326 L555 330 L555 343 L554 346 L555 346 L557 338 L557 329 L555 324 L556 323 L565 327 L580 341 L586 353 L588 361 L588 378 L584 388 L586 387 L590 376 L590 371 L591 370 L590 359 L591 358 L600 375 L607 396 L617 418 L625 430 Z M329 302 L320 304 L311 308 L300 311 L286 318 L284 318 L266 328 L255 336 L242 348 L235 357 L233 363 L234 363 L239 354 L252 341 L267 330 L293 316 L313 308 L324 305 Z M445 311 L444 312 L434 312 L433 313 L426 313 L425 314 L406 316 L405 317 L376 322 L371 324 L369 323 L382 310 L389 305 L404 298 L420 294 L433 293 L436 296 L439 303 Z M541 305 L543 303 L546 293 L549 289 L559 286 L574 284 L575 285 L585 285 L601 290 L616 298 L629 309 L628 310 L623 310 L622 309 L593 308 L592 307 L564 307 L563 308 L548 308 L547 309 Z M672 280 L687 281 L688 282 L700 283 L701 284 L721 287 L737 291 L762 300 L780 309 L793 318 L804 329 L810 340 L811 339 L806 329 L793 315 L779 306 L763 298 L758 297 L744 291 L716 284 L711 284 L698 281 L691 281 L690 280 L679 280 L678 279 Z M398 297 L390 301 L380 308 L370 317 L364 325 L340 331 L314 340 L299 347 L297 347 L272 360 L250 375 L232 392 L224 384 L221 379 L217 367 L217 361 L216 360 L217 341 L221 331 L228 324 L245 312 L277 294 L286 291 L293 287 L319 278 L335 274 L352 272 L353 271 L375 269 L381 274 Z M373 262 L375 264 L375 266 L371 267 L370 266 Z M597 284 L620 258 L631 255 L637 255 L638 254 L667 254 L668 255 L689 256 L690 257 L714 260 L749 269 L752 271 L767 276 L786 286 L797 294 L806 304 L812 316 L815 329 L815 345 L814 346 L814 352 L810 363 L808 364 L801 358 L783 346 L758 334 L729 324 L708 320 L707 319 L703 319 L702 318 L698 318 L697 317 L678 315 L677 314 L637 311 L621 298 L610 291 L598 286 Z M484 216 L491 216 L503 219 L513 224 L518 228 L527 239 L531 247 L535 262 L534 281 L527 300 L519 313 L510 323 L502 328 L498 328 L497 329 L489 328 L474 319 L464 310 L458 303 L451 292 L445 274 L445 257 L448 246 L454 235 L464 225 L470 221 Z M399 216 L403 216 L404 215 L426 216 L427 217 L444 218 L448 220 L441 227 L436 235 L430 251 L429 274 L430 275 L431 284 L434 290 L433 291 L417 292 L401 296 L393 287 L382 271 L377 266 L378 251 L384 232 L391 222 L395 218 Z M486 213 L469 219 L462 224 L453 233 L447 243 L443 255 L443 276 L451 296 L459 307 L470 318 L481 326 L490 330 L497 331 L498 330 L502 330 L508 327 L518 317 L527 304 L535 285 L537 266 L536 265 L536 257 L534 249 L525 233 L512 221 L498 215 L487 214 Z M597 205 L607 216 L615 231 L619 245 L618 256 L613 263 L598 278 L594 285 L582 282 L568 282 L567 283 L550 286 L549 282 L550 281 L550 272 L551 271 L551 261 L550 260 L549 250 L541 231 L536 224 L529 217 L531 215 L539 214 L553 209 L573 204 L591 203 Z M481 178 L484 180 L491 193 L500 202 L522 215 L534 226 L542 238 L548 258 L547 282 L544 290 L544 293 L535 312 L528 322 L519 331 L513 335 L501 339 L483 338 L471 333 L464 328 L451 315 L442 302 L437 292 L432 274 L432 256 L437 239 L448 223 L469 204 L476 192 L479 181 Z M484 176 L485 175 L486 176 L485 177 Z M328 102 L334 106 L342 114 L358 138 L369 160 L383 199 L387 216 L387 221 L388 222 L383 228 L378 239 L375 256 L366 267 L348 269 L347 270 L342 270 L332 273 L328 273 L290 285 L261 299 L246 308 L231 319 L223 310 L210 291 L199 269 L190 241 L188 226 L187 225 L187 217 L186 216 L186 191 L187 190 L188 177 L193 160 L203 142 L209 134 L223 120 L237 110 L251 103 L268 98 L280 97 L281 96 L308 97 Z M469 94 L473 98 L477 107 L482 127 L484 151 L485 152 L485 175 L484 176 L482 174 L479 175 L476 181 L474 190 L470 198 L466 203 L452 216 L450 217 L446 215 L448 211 L448 206 L449 205 L449 197 L451 189 L451 177 L452 176 L452 146 L451 145 L451 136 L450 135 L450 128 L449 127 L448 118 L441 101 L437 97 L444 113 L447 125 L447 130 L448 131 L448 138 L449 139 L449 156 L450 157 L449 187 L448 188 L448 196 L447 197 L447 204 L446 205 L445 215 L444 216 L440 216 L439 215 L425 214 L424 213 L400 213 L395 215 L390 219 L389 218 L385 197 L378 176 L364 144 L345 114 L332 101 L326 98 L339 94 L352 94 L353 95 L361 95 L362 96 L369 96 L370 97 L394 98 L395 99 L418 98 L442 92 L465 92 Z M463 89 L464 88 L465 89 L464 90 Z M465 87 L475 84 L483 84 L484 85 L515 87 L516 88 L523 88 L524 89 L526 97 L526 103 L527 104 L527 141 L528 142 L529 185 L530 186 L532 206 L534 211 L532 213 L525 214 L505 202 L494 192 L488 182 L487 146 L486 145 L485 131 L484 130 L484 125 L483 124 L481 111 L476 98 L470 91 L466 90 L464 88 Z M665 76 L666 77 L660 80 L653 85 L640 99 L632 111 L622 131 L609 170 L605 191 L604 192 L603 205 L602 206 L597 202 L591 200 L580 200 L579 201 L573 201 L561 204 L536 212 L534 209 L534 205 L533 204 L532 186 L531 185 L529 105 L528 104 L527 94 L524 89 L525 88 L530 88 L531 89 L575 89 L576 88 L589 88 L590 87 L599 87 L600 86 L608 86 L609 85 L630 83 L631 82 Z M657 85 L674 77 L683 76 L684 75 L691 75 L692 74 L724 74 L725 75 L737 76 L757 82 L775 91 L786 99 L800 113 L806 121 L814 136 L819 152 L820 162 L821 163 L822 189 L821 190 L820 214 L819 215 L816 238 L804 279 L798 291 L785 282 L767 273 L745 265 L742 265 L735 262 L723 259 L703 256 L702 255 L697 255 L696 254 L681 253 L680 252 L668 252 L667 251 L639 251 L638 252 L626 253 L622 255 L621 254 L621 240 L619 233 L614 222 L605 209 L605 202 L606 201 L606 196 L608 190 L610 175 L621 140 L635 110 L642 100 Z M731 72 L724 72 L723 71 L692 71 L691 72 L684 72 L677 74 L661 73 L631 80 L610 82 L609 83 L601 83 L600 84 L576 85 L575 86 L532 86 L531 85 L518 85 L517 84 L476 81 L475 82 L467 83 L458 89 L441 89 L418 95 L382 95 L381 94 L363 93 L362 92 L354 92 L353 91 L339 91 L338 92 L330 93 L322 97 L316 95 L303 94 L302 93 L271 94 L259 97 L246 102 L233 109 L221 118 L206 133 L195 149 L189 162 L184 181 L184 188 L183 189 L183 216 L184 217 L184 225 L185 226 L186 237 L190 253 L197 272 L205 288 L220 311 L228 320 L219 329 L216 334 L213 346 L213 361 L214 362 L215 371 L220 383 L230 394 L212 414 L195 439 L186 456 L173 490 L167 514 L165 530 L164 531 L163 548 L162 549 L162 568 L161 569 L162 617 L163 618 L164 637 L165 638 L166 653 L167 654 L169 669 L168 670 L159 664 L151 665 L148 668 L144 679 L143 697 L144 698 L144 705 L145 706 L145 711 L146 712 L146 717 L149 727 L150 736 L152 740 L153 747 L160 770 L162 773 L166 787 L176 812 L176 815 L181 831 L183 848 L184 849 L185 869 L186 870 L186 883 L187 884 L187 897 L188 898 L188 906 L189 907 L190 921 L192 929 L192 938 L194 946 L194 956 L195 957 L195 967 L196 968 L196 981 L197 982 L196 1104 L197 1105 L198 1115 L202 1124 L211 1132 L221 1135 L239 1135 L240 1134 L244 1134 L253 1131 L262 1126 L266 1132 L266 1134 L278 1159 L280 1161 L291 1182 L307 1206 L321 1224 L335 1240 L358 1263 L380 1282 L402 1299 L436 1321 L474 1340 L511 1353 L527 1357 L541 1359 L542 1360 L547 1360 L548 1361 L567 1362 L568 1363 L601 1363 L602 1362 L612 1362 L613 1361 L620 1361 L621 1360 L638 1358 L643 1356 L659 1353 L688 1343 L720 1328 L737 1318 L764 1299 L784 1282 L805 1261 L832 1227 L833 1224 L844 1208 L853 1190 L855 1188 L857 1182 L859 1180 L859 1178 L863 1171 L871 1151 L872 1146 L874 1143 L881 1121 L883 1110 L885 1106 L885 1102 L887 1097 L890 1080 L893 1079 L906 1083 L925 1083 L937 1079 L947 1070 L951 1060 L951 1054 L952 1053 L950 1028 L949 1027 L949 1021 L946 1008 L946 1001 L945 1000 L943 979 L941 971 L940 955 L939 954 L939 945 L938 944 L937 925 L936 924 L936 915 L935 914 L935 904 L934 903 L933 879 L932 878 L932 866 L931 865 L931 849 L930 848 L930 778 L931 777 L931 757 L932 756 L932 742 L933 741 L935 711 L936 710 L937 696 L938 695 L941 670 L943 663 L943 656 L944 655 L944 643 L945 642 L944 618 L940 607 L936 603 L928 600 L922 600 L915 602 L909 606 L905 611 L904 610 L904 585 L905 584 L904 583 L904 556 L903 555 L902 532 L901 531 L900 518 L899 517 L896 497 L888 470 L882 455 L877 446 L877 444 L859 415 L839 391 L812 366 L817 353 L818 329 L814 313 L808 302 L801 294 L801 292 L809 274 L809 271 L811 268 L811 265 L815 255 L815 251 L817 247 L817 243 L820 232 L820 227 L823 214 L823 206 L824 205 L825 174 L824 173 L823 157 L818 138 L809 120 L798 106 L786 95 L774 87 L760 80 L745 75 L732 73 Z" fill="#eef3f4" fill-rule="evenodd"/>
</svg>
