<svg xmlns="http://www.w3.org/2000/svg" width="1122" height="1402" viewBox="0 0 1122 1402">
  <title>0342</title>
  <path d="M630 1081 L634 1081 L635 1082 L634 1083 L635 1086 L635 1102 L634 1103 L630 1102 L630 1086 L629 1085 Z M390 1071 L391 1070 L395 1070 L401 1072 L410 1072 L411 1076 L410 1077 L403 1076 L393 1073 Z M450 1032 L451 1031 L452 1032 L451 1033 Z M714 1027 L714 1031 L713 1032 L713 1039 L712 1040 L712 1046 L711 1047 L711 1053 L708 1065 L708 1070 L700 1074 L685 1078 L684 1077 L685 1052 L684 1051 L669 1052 L667 1054 L666 1100 L665 1101 L640 1102 L639 1103 L638 1102 L638 1046 L642 1036 L648 1031 L654 1029 L670 1027 L671 1026 L692 1025 L693 1024 L710 1024 Z M455 1024 L456 1023 L465 1023 L466 1024 L469 1053 L470 1054 L470 1059 L472 1061 L499 1061 L500 1028 L501 1027 L508 1027 L509 1028 L513 1056 L516 1062 L543 1063 L545 1049 L546 1048 L555 1048 L559 1063 L588 1063 L589 1048 L590 1047 L599 1047 L601 1051 L601 1056 L603 1063 L634 1062 L635 1063 L634 1064 L634 1077 L633 1078 L620 1078 L617 1076 L598 1076 L597 1077 L597 1101 L598 1103 L597 1104 L584 1104 L583 1103 L583 1080 L581 1076 L553 1076 L553 1103 L552 1104 L541 1104 L540 1103 L540 1083 L537 1077 L535 1076 L513 1076 L511 1079 L511 1102 L510 1103 L499 1103 L498 1102 L498 1078 L496 1074 L471 1073 L470 1074 L470 1089 L469 1090 L469 1100 L470 1101 L468 1103 L467 1102 L457 1102 L456 1101 Z M385 1022 L414 1023 L415 1024 L423 1024 L424 1025 L437 1027 L443 1030 L452 1039 L452 1061 L453 1062 L453 1101 L452 1102 L438 1102 L437 1101 L428 1101 L427 1100 L427 1055 L426 1051 L424 1050 L417 1050 L416 1049 L411 1049 L409 1051 L409 1061 L410 1062 L410 1069 L409 1070 L401 1068 L396 1068 L395 1067 L390 1069 L387 1066 L388 1065 L388 1061 L387 1060 L387 1053 L385 1047 L384 1035 L383 1034 L383 1026 L382 1025 Z M693 1021 L694 1020 L699 1020 L700 1021 L699 1022 L694 1022 Z M773 1012 L774 1011 L775 1012 L774 1013 Z M726 1006 L730 1010 L731 1018 L730 1019 L730 1029 L729 1030 L729 1037 L728 1038 L728 1044 L727 1045 L724 1068 L721 1081 L719 1085 L712 1092 L703 1096 L694 1097 L693 1098 L670 1100 L669 1099 L670 1056 L677 1054 L681 1054 L682 1055 L682 1063 L681 1064 L681 1081 L682 1082 L687 1080 L696 1079 L706 1075 L710 1071 L713 1061 L714 1049 L715 1048 L716 1036 L717 1035 L717 1025 L715 1021 L709 1017 L693 1017 L670 1024 L664 1024 L663 1025 L662 1022 L665 1014 L670 1009 L681 1008 L682 1007 L706 1006 L707 1005 L723 1005 Z M369 1006 L372 1005 L410 1006 L411 1007 L425 1008 L430 1012 L433 1020 L432 1023 L424 1021 L410 1020 L409 1019 L385 1018 L379 1021 L376 1027 L381 1060 L388 1074 L395 1077 L413 1081 L414 1080 L414 1069 L413 1068 L412 1053 L413 1052 L414 1053 L423 1053 L424 1054 L423 1056 L423 1064 L424 1065 L424 1099 L423 1100 L391 1097 L382 1092 L377 1086 L372 1069 L372 1064 L371 1063 L369 1047 L368 1046 L368 1040 L367 1039 L366 1025 L365 1024 L365 1011 Z M361 1013 L363 1036 L364 1037 L364 1043 L366 1049 L370 1076 L375 1089 L381 1095 L391 1100 L401 1101 L402 1102 L434 1104 L435 1105 L455 1105 L456 1106 L472 1106 L473 1105 L473 1078 L474 1077 L488 1077 L495 1079 L495 1098 L494 1099 L494 1106 L495 1107 L514 1107 L514 1088 L515 1087 L515 1081 L514 1080 L515 1079 L533 1079 L536 1081 L536 1086 L537 1087 L537 1107 L556 1107 L557 1106 L556 1105 L556 1080 L557 1079 L561 1080 L573 1080 L574 1079 L578 1080 L579 1079 L580 1080 L580 1107 L601 1107 L601 1092 L600 1091 L600 1081 L601 1080 L625 1081 L626 1082 L627 1106 L669 1104 L670 1103 L678 1103 L679 1102 L687 1102 L688 1101 L700 1100 L709 1097 L716 1093 L722 1087 L724 1083 L728 1066 L731 1041 L733 1034 L733 1026 L734 1025 L734 1012 L733 1009 L730 1005 L724 1002 L701 1002 L700 1003 L689 1003 L688 1004 L672 1005 L667 1007 L662 1012 L658 1025 L646 1028 L640 1033 L637 1038 L635 1045 L635 1057 L634 1058 L607 1059 L606 1060 L604 1055 L603 1044 L601 1043 L588 1043 L586 1045 L586 1054 L584 1059 L562 1059 L560 1054 L559 1046 L554 1044 L546 1044 L542 1046 L541 1048 L541 1058 L540 1059 L518 1058 L514 1046 L512 1025 L509 1023 L501 1023 L497 1027 L496 1057 L495 1058 L489 1058 L488 1057 L474 1057 L473 1056 L471 1034 L468 1021 L463 1019 L454 1019 L452 1021 L452 1030 L450 1032 L445 1027 L436 1023 L436 1018 L432 1009 L426 1005 L414 1004 L413 1003 L400 1003 L399 1002 L371 1002 L363 1007 Z M616 945 L617 947 L617 954 L615 958 L609 963 L603 960 L594 960 L591 962 L589 961 L593 949 L600 942 L602 941 L611 941 Z M665 901 L662 890 L654 875 L645 865 L636 859 L625 855 L612 854 L601 857 L596 860 L589 867 L589 869 L591 869 L599 862 L605 859 L609 858 L623 858 L636 863 L648 873 L657 887 L661 900 L662 924 L661 925 L660 934 L657 942 L650 954 L638 965 L630 969 L626 969 L625 970 L615 969 L611 966 L618 960 L620 956 L621 950 L618 942 L609 937 L603 937 L598 939 L591 946 L587 956 L585 965 L581 973 L569 984 L559 987 L546 987 L539 985 L532 981 L524 970 L521 960 L521 955 L518 947 L512 940 L508 938 L499 937 L494 939 L490 943 L488 947 L488 954 L490 958 L498 965 L495 968 L488 970 L476 969 L462 962 L451 951 L445 939 L442 927 L442 907 L447 888 L454 876 L463 867 L469 863 L480 859 L496 860 L502 863 L509 869 L511 866 L501 859 L494 856 L487 856 L486 855 L485 856 L474 857 L461 864 L451 874 L447 880 L441 894 L440 902 L439 903 L439 909 L438 910 L438 923 L439 924 L440 935 L447 951 L453 959 L463 967 L478 973 L494 972 L500 969 L504 965 L513 968 L512 965 L506 962 L499 962 L492 956 L491 952 L492 946 L498 941 L506 941 L510 943 L514 947 L517 953 L520 970 L523 976 L528 982 L532 985 L544 990 L561 990 L568 988 L575 984 L583 976 L588 966 L594 963 L601 962 L610 970 L617 973 L631 972 L644 965 L653 956 L657 950 L664 933 L665 922 L666 921 Z M825 851 L826 850 L828 851 L827 852 Z M827 850 L828 849 L830 850 L829 851 Z M263 849 L264 848 L265 849 L264 850 Z M833 844 L834 846 L830 850 L829 849 Z M258 845 L259 844 L263 848 L261 849 Z M257 844 L258 843 L259 844 L258 845 Z M833 843 L834 842 L835 844 L834 845 Z M256 842 L257 841 L258 843 L257 844 Z M835 838 L836 839 L835 842 L834 841 Z M255 839 L256 838 L257 839 L256 840 Z M836 833 L837 834 L836 838 L835 837 Z M837 827 L838 828 L837 832 L836 831 Z M838 821 L839 822 L838 825 L837 824 Z M839 814 L840 815 L839 819 L838 818 Z M840 807 L841 808 L840 811 L839 810 Z M841 798 L842 799 L841 803 L840 802 Z M842 784 L843 785 L843 794 L842 795 L841 794 L841 785 Z M821 785 L822 784 L823 785 L822 786 Z M248 783 L249 784 L248 788 L247 787 Z M841 781 L842 782 L841 785 L840 784 Z M835 781 L838 786 L838 797 L837 798 L836 813 L835 814 L832 837 L830 842 L825 847 L821 848 L819 846 L819 826 L820 825 L820 817 L821 816 L823 796 L827 785 L831 781 Z M839 781 L840 780 L841 781 L840 782 Z M838 780 L839 779 L840 780 L839 781 Z M837 779 L838 778 L839 779 L838 780 Z M257 773 L260 774 L263 777 L266 784 L266 789 L269 801 L270 815 L271 816 L271 822 L272 823 L272 830 L273 831 L273 842 L271 846 L265 846 L261 842 L257 830 L255 812 L254 811 L254 803 L253 802 L253 792 L252 791 L252 779 Z M365 719 L366 718 L367 720 L366 721 Z M832 706 L833 707 L832 710 L831 709 Z M891 703 L900 709 L903 713 L906 721 L906 725 L907 726 L907 755 L906 756 L906 763 L905 764 L905 770 L904 771 L901 791 L897 807 L895 811 L894 819 L890 831 L890 835 L887 843 L883 864 L878 880 L872 890 L865 897 L853 904 L836 909 L832 909 L816 913 L804 914 L803 913 L804 912 L804 906 L806 900 L806 894 L807 893 L809 874 L810 873 L810 865 L811 864 L811 857 L813 849 L813 842 L814 841 L816 843 L816 847 L820 853 L824 855 L831 854 L837 848 L839 842 L841 826 L842 825 L842 819 L844 812 L845 797 L846 796 L846 783 L841 776 L833 775 L832 774 L835 768 L840 763 L844 761 L853 761 L859 764 L864 769 L867 775 L868 779 L868 792 L867 793 L860 840 L858 845 L858 849 L854 859 L848 867 L843 871 L835 874 L829 874 L823 870 L821 865 L820 856 L818 856 L817 858 L818 867 L820 872 L823 875 L827 877 L839 876 L849 870 L857 860 L862 846 L867 813 L868 812 L868 807 L869 806 L869 801 L870 800 L870 795 L871 794 L871 788 L872 787 L870 773 L866 766 L859 760 L849 757 L842 758 L838 760 L831 768 L830 777 L823 784 L822 783 L825 757 L826 756 L826 749 L827 748 L830 713 L834 710 L839 710 L843 708 L847 708 L852 706 L872 703 L873 702 L888 702 Z M200 699 L212 698 L236 704 L240 706 L247 707 L253 710 L257 710 L259 707 L261 709 L263 731 L264 732 L264 738 L266 745 L269 771 L271 777 L271 783 L273 789 L276 817 L275 818 L274 817 L269 781 L266 775 L260 770 L252 770 L247 775 L245 779 L244 786 L245 787 L245 795 L246 796 L248 817 L249 818 L249 823 L250 824 L250 829 L251 830 L251 835 L253 843 L255 847 L259 851 L263 853 L268 853 L272 851 L273 852 L273 863 L271 868 L267 872 L257 873 L251 871 L240 861 L234 846 L234 842 L230 827 L229 816 L227 810 L225 793 L224 792 L224 774 L228 765 L232 761 L241 757 L247 757 L252 759 L261 768 L259 761 L255 757 L249 754 L240 754 L232 757 L227 761 L223 767 L220 778 L220 786 L221 787 L224 812 L225 813 L227 828 L228 829 L232 851 L237 862 L247 872 L257 876 L266 876 L270 874 L274 870 L276 866 L276 856 L274 852 L274 848 L276 845 L276 840 L277 839 L276 838 L275 818 L276 817 L277 818 L284 876 L286 881 L286 889 L287 890 L288 901 L290 908 L289 911 L268 909 L247 904 L236 898 L228 890 L222 880 L218 870 L217 864 L215 861 L215 858 L212 851 L212 848 L208 838 L206 828 L203 821 L201 811 L194 790 L190 769 L189 768 L189 763 L186 750 L186 743 L185 742 L185 719 L187 712 L190 707 L195 702 Z M398 655 L415 654 L426 657 L432 660 L443 670 L446 674 L451 685 L453 700 L452 701 L451 711 L448 719 L445 724 L434 735 L422 741 L407 743 L406 742 L396 741 L387 737 L372 722 L366 706 L366 691 L368 683 L372 675 L384 662 Z M426 653 L414 650 L405 650 L404 651 L395 652 L390 655 L388 655 L377 663 L366 678 L362 690 L362 721 L363 722 L363 726 L365 732 L370 740 L381 748 L389 749 L388 747 L380 743 L372 735 L366 723 L367 720 L372 728 L385 740 L401 746 L418 746 L428 743 L439 736 L445 730 L453 717 L456 707 L456 690 L453 680 L446 668 L437 659 Z M685 648 L694 648 L695 649 L703 650 L717 658 L723 664 L730 675 L733 685 L733 692 L734 693 L731 709 L724 722 L717 729 L708 735 L694 739 L685 739 L684 738 L676 737 L662 729 L654 720 L649 710 L647 703 L647 696 L646 695 L647 694 L648 682 L656 665 L664 657 L670 653 Z M681 645 L666 651 L653 663 L646 676 L643 686 L643 701 L646 712 L651 722 L664 735 L671 739 L681 742 L698 742 L708 739 L718 733 L730 720 L736 706 L736 702 L737 701 L737 685 L731 669 L727 663 L718 654 L708 648 L699 645 Z M431 611 L432 612 L440 612 L453 615 L468 622 L479 630 L489 641 L497 654 L503 671 L504 682 L505 683 L504 711 L499 728 L492 741 L480 755 L468 764 L454 771 L440 775 L423 776 L422 777 L418 776 L405 776 L386 771 L372 764 L365 759 L353 747 L348 740 L341 724 L340 716 L339 715 L339 691 L343 674 L352 655 L359 645 L374 630 L386 622 L396 617 L414 612 Z M418 608 L417 609 L403 611 L388 617 L375 625 L358 641 L347 657 L341 670 L336 689 L335 709 L336 710 L336 717 L338 725 L345 741 L352 751 L366 764 L382 773 L397 778 L408 779 L409 780 L431 780 L432 779 L438 779 L439 778 L447 777 L463 771 L477 762 L491 748 L497 739 L505 720 L507 712 L507 706 L508 705 L508 682 L502 658 L495 644 L490 637 L478 625 L464 616 L451 611 L443 609 L436 609 L435 608 Z M652 608 L660 606 L665 606 L666 605 L686 605 L703 609 L718 616 L730 625 L742 638 L748 647 L755 661 L759 675 L760 687 L761 688 L761 701 L760 702 L760 709 L757 720 L752 731 L745 741 L734 752 L718 762 L700 768 L686 769 L685 770 L663 769 L641 763 L627 755 L613 742 L608 735 L601 721 L597 705 L597 679 L603 655 L613 636 L626 622 L636 615 Z M653 604 L636 611 L623 620 L615 628 L609 636 L602 649 L596 667 L596 671 L594 677 L594 685 L593 686 L594 706 L596 711 L597 719 L603 733 L614 748 L624 757 L642 767 L654 771 L665 772 L666 773 L692 773 L713 768 L724 763 L736 755 L750 740 L759 724 L764 704 L764 684 L758 660 L750 644 L743 634 L729 620 L719 613 L707 607 L688 602 L663 602 L662 603 Z M271 570 L272 569 L273 570 L272 571 Z M387 565 L395 563 L400 563 L401 562 L406 562 L407 561 L428 560 L429 559 L461 560 L462 561 L469 561 L470 562 L485 564 L513 573 L527 580 L542 591 L551 601 L550 698 L549 699 L548 884 L550 884 L550 871 L551 870 L552 707 L553 706 L552 705 L553 704 L554 601 L561 593 L573 584 L587 576 L589 576 L601 570 L625 563 L641 561 L642 560 L650 560 L651 559 L691 559 L692 560 L699 560 L700 561 L710 562 L733 569 L749 577 L763 587 L774 598 L785 613 L793 628 L800 647 L803 659 L804 671 L805 672 L805 680 L806 681 L806 713 L805 714 L803 751 L802 752 L801 771 L800 772 L798 799 L797 800 L797 808 L796 809 L796 817 L795 818 L795 827 L794 828 L794 836 L793 837 L793 845 L792 846 L792 854 L791 855 L791 862 L790 863 L790 871 L789 872 L784 919 L783 920 L783 926 L782 927 L782 933 L781 934 L781 940 L779 948 L778 962 L775 975 L774 988 L773 989 L772 1000 L770 1006 L770 1012 L769 1013 L764 1048 L762 1054 L762 1059 L750 1110 L739 1143 L732 1156 L723 1164 L713 1168 L700 1169 L699 1170 L627 1175 L622 1177 L617 1181 L614 1188 L613 1359 L608 1364 L601 1367 L590 1368 L589 1369 L579 1369 L578 1370 L527 1370 L526 1369 L515 1369 L514 1368 L508 1368 L507 1367 L499 1366 L493 1363 L489 1358 L489 1346 L490 1345 L491 1241 L492 1240 L492 1187 L490 1182 L485 1177 L475 1174 L455 1174 L454 1173 L439 1173 L438 1172 L397 1170 L396 1169 L381 1168 L371 1164 L363 1156 L360 1151 L354 1135 L347 1107 L345 1103 L342 1087 L338 1074 L338 1070 L335 1061 L335 1057 L334 1056 L330 1032 L328 1027 L328 1023 L326 1018 L324 1004 L323 1003 L321 986 L319 980 L317 963 L315 957 L315 952 L314 951 L314 946 L313 945 L313 940 L310 927 L305 887 L304 886 L304 879 L302 871 L302 864 L301 863 L301 856 L300 855 L300 848 L299 847 L299 840 L298 839 L298 831 L297 830 L297 823 L296 822 L296 815 L295 814 L294 797 L293 796 L292 776 L291 775 L289 735 L288 734 L288 700 L289 699 L290 679 L291 678 L294 660 L302 638 L313 618 L322 606 L337 591 L346 584 L367 572 Z M297 532 L299 534 L295 539 L294 538 L294 534 Z M786 531 L804 531 L805 530 L812 530 L813 531 L812 546 L811 547 L811 553 L809 560 L802 551 L803 549 L802 544 L800 544 L798 546 L785 532 Z M318 515 L319 516 L302 531 L300 529 L293 529 L291 532 L292 542 L285 551 L283 544 L282 527 L281 526 L281 518 L284 514 L289 514 L290 515 Z M742 486 L742 493 L740 499 L729 493 L731 491 L737 489 L741 485 Z M310 528 L334 509 L361 494 L395 482 L411 478 L415 478 L420 476 L434 474 L435 473 L465 469 L466 472 L471 478 L488 486 L501 488 L502 489 L507 489 L508 490 L516 490 L517 491 L557 493 L558 492 L589 491 L590 490 L606 488 L620 482 L627 475 L628 471 L632 470 L633 471 L638 471 L639 472 L659 475 L691 483 L727 496 L745 505 L753 511 L756 512 L775 527 L792 544 L803 558 L814 576 L820 589 L825 604 L827 618 L828 619 L828 625 L829 626 L829 639 L830 640 L830 678 L829 679 L829 693 L828 694 L825 735 L824 736 L822 759 L821 760 L818 788 L816 795 L816 803 L815 804 L812 832 L811 833 L811 839 L809 847 L806 877 L804 884 L804 891 L800 908 L800 914 L799 915 L798 925 L795 936 L795 941 L792 952 L792 957 L789 968 L789 973 L786 984 L786 989 L784 996 L779 1006 L775 1011 L774 1010 L774 1006 L775 1005 L775 999 L776 998 L778 980 L780 973 L780 967 L782 960 L782 953 L783 952 L785 931 L786 930 L786 924 L787 923 L787 917 L789 909 L792 877 L793 876 L793 868 L794 867 L794 860 L795 859 L798 823 L799 822 L799 814 L800 813 L800 805 L801 804 L801 796 L802 795 L802 786 L803 785 L803 777 L804 776 L804 767 L805 766 L805 758 L806 757 L807 737 L808 736 L809 707 L810 706 L810 685 L809 684 L809 674 L808 673 L808 666 L807 665 L806 656 L799 633 L791 616 L777 596 L761 581 L749 573 L723 562 L706 558 L701 558 L700 557 L678 556 L677 555 L641 557 L640 558 L624 560 L600 567 L573 580 L563 587 L553 597 L540 585 L528 577 L509 568 L490 562 L470 559 L469 558 L450 557 L449 556 L426 556 L425 557 L405 558 L373 566 L352 576 L335 588 L315 609 L305 624 L298 638 L292 654 L288 670 L287 682 L286 683 L286 691 L285 692 L284 728 L285 729 L285 747 L286 748 L288 782 L289 783 L289 791 L290 792 L293 828 L294 829 L299 876 L300 877 L305 917 L306 918 L306 925 L307 926 L315 979 L317 985 L317 990 L319 996 L319 1001 L321 1009 L320 1010 L315 1003 L308 987 L300 945 L299 944 L299 940 L298 939 L298 935 L297 934 L297 930 L296 929 L296 925 L295 924 L294 914 L293 913 L293 907 L292 906 L291 894 L289 887 L286 858 L285 857 L284 843 L283 842 L282 830 L280 823 L280 816 L278 809 L275 781 L274 780 L272 763 L270 757 L270 750 L269 749 L268 736 L267 735 L265 716 L264 715 L261 683 L260 682 L260 670 L259 669 L259 625 L260 624 L262 607 L266 594 L272 579 L279 566 L293 546 Z M267 392 L268 391 L269 392 L268 393 Z M265 388 L264 390 L264 398 L265 399 L268 429 L270 434 L276 439 L294 439 L299 437 L301 434 L301 429 L302 428 L301 420 L300 419 L300 415 L296 409 L291 407 L283 407 L280 411 L282 422 L286 424 L288 423 L285 420 L284 411 L285 410 L293 411 L296 414 L298 421 L298 432 L295 435 L276 435 L273 432 L271 425 L270 410 L268 402 L268 393 L269 392 L278 392 L279 393 L302 394 L305 395 L310 400 L313 413 L313 418 L314 419 L314 425 L315 426 L316 439 L319 452 L319 458 L320 459 L320 466 L321 467 L321 474 L322 475 L322 489 L318 494 L313 494 L312 495 L288 495 L281 490 L279 484 L278 470 L277 469 L277 457 L278 456 L298 456 L303 460 L304 463 L305 474 L303 477 L296 477 L294 472 L296 468 L295 467 L291 467 L290 469 L291 470 L292 478 L295 480 L303 481 L308 476 L308 467 L306 459 L302 454 L298 452 L274 452 L273 455 L274 475 L275 476 L275 484 L278 492 L282 496 L290 499 L307 499 L308 498 L319 497 L324 491 L325 476 L324 475 L324 467 L323 466 L323 458 L322 457 L322 451 L320 444 L320 438 L319 437 L319 432 L318 431 L318 426 L315 413 L315 407 L313 400 L307 393 L303 391 Z M311 372 L312 374 L310 376 L308 376 L307 375 Z M475 323 L476 324 L476 328 L480 332 L488 335 L501 338 L506 338 L507 339 L522 340 L523 341 L534 341 L535 342 L580 342 L581 341 L592 341 L593 340 L605 339 L616 336 L622 332 L622 328 L623 327 L627 330 L625 471 L618 479 L607 484 L599 485 L598 486 L592 486 L591 487 L570 488 L569 489 L539 489 L538 488 L524 488 L523 487 L514 487 L513 486 L506 486 L505 485 L495 484 L479 479 L470 472 L468 468 L469 401 L470 400 L470 328 Z M479 325 L485 321 L495 320 L496 319 L536 318 L537 317 L541 317 L542 318 L568 318 L569 319 L582 319 L583 320 L599 321 L616 325 L620 329 L618 331 L611 334 L596 336 L595 337 L569 338 L568 339 L548 339 L547 338 L531 338 L530 337 L520 337 L519 336 L511 336 L510 335 L499 334 L484 330 Z M841 269 L798 276 L791 280 L789 283 L787 290 L786 300 L785 301 L785 306 L784 307 L784 312 L783 313 L783 318 L782 319 L782 324 L781 325 L781 330 L778 343 L776 366 L775 367 L775 381 L778 387 L782 390 L785 391 L795 391 L796 390 L816 388 L826 384 L830 378 L831 366 L832 365 L832 357 L833 356 L833 346 L834 344 L833 343 L833 338 L829 335 L801 339 L798 341 L795 347 L794 362 L793 363 L794 368 L799 373 L806 373 L813 371 L815 368 L816 355 L815 354 L808 354 L807 355 L807 358 L810 357 L813 358 L812 365 L810 369 L803 369 L802 370 L799 369 L797 367 L797 358 L798 357 L799 346 L804 342 L811 342 L812 341 L824 340 L825 339 L829 339 L830 340 L827 375 L826 378 L821 383 L814 385 L808 385 L807 386 L799 386 L798 387 L784 387 L779 382 L779 363 L780 362 L781 348 L783 341 L783 335 L786 322 L788 304 L790 298 L791 287 L793 283 L798 279 L828 275 L834 273 L838 274 L836 296 L834 304 L834 311 L830 318 L822 320 L815 320 L814 321 L808 321 L806 319 L807 306 L809 298 L813 295 L820 294 L821 295 L821 302 L819 306 L821 307 L824 304 L825 301 L825 294 L824 292 L822 291 L811 292 L806 296 L804 301 L804 307 L802 314 L804 323 L806 325 L826 323 L832 321 L837 314 L839 295 L840 294 L840 287 L841 286 Z M258 262 L255 267 L256 294 L257 295 L257 301 L258 302 L259 310 L265 315 L282 316 L283 317 L291 315 L294 310 L294 300 L290 285 L286 282 L276 281 L275 280 L271 283 L270 286 L271 297 L275 302 L279 302 L280 299 L279 298 L277 299 L275 297 L274 285 L277 284 L278 285 L286 286 L289 291 L289 296 L290 297 L290 311 L287 313 L278 313 L277 312 L265 311 L261 304 L260 285 L259 284 L259 267 L260 266 L270 266 L271 267 L291 268 L297 270 L301 274 L303 278 L305 294 L306 295 L306 301 L307 302 L307 312 L308 313 L308 321 L309 322 L309 330 L310 331 L310 342 L311 343 L311 351 L312 352 L312 369 L306 374 L282 373 L281 372 L273 372 L268 368 L265 343 L264 342 L264 333 L263 331 L264 330 L289 331 L293 334 L295 341 L295 353 L293 356 L282 356 L280 354 L279 346 L280 345 L285 346 L285 342 L278 341 L276 343 L275 350 L277 356 L280 359 L294 360 L298 356 L299 352 L298 339 L295 331 L290 328 L261 326 L260 328 L260 341 L261 342 L262 357 L265 370 L269 374 L273 376 L312 379 L315 372 L315 349 L314 348 L314 339 L313 338 L313 329 L312 328 L309 294 L308 293 L308 288 L305 275 L296 266 L287 265 L286 264 Z M306 220 L307 221 L307 227 L306 228 L305 227 L305 221 Z M305 212 L306 213 L306 219 L305 220 L304 219 L304 213 Z M304 204 L305 205 L305 211 L304 212 L303 211 L303 205 Z M246 151 L247 147 L251 148 L247 152 Z M854 134 L842 133 L841 134 L828 135 L827 136 L822 136 L814 138 L805 147 L801 164 L798 187 L797 188 L794 218 L793 219 L791 241 L790 242 L790 252 L792 256 L797 260 L807 261 L808 260 L815 260 L816 259 L835 256 L844 247 L846 232 L847 231 L847 225 L848 224 L848 218 L849 217 L849 211 L851 204 L850 200 L823 204 L813 209 L811 213 L810 225 L809 226 L810 236 L814 240 L823 240 L828 238 L831 235 L833 228 L833 223 L830 220 L825 221 L823 223 L823 226 L825 226 L827 224 L829 225 L829 229 L827 234 L823 236 L815 236 L813 234 L813 224 L814 223 L814 215 L819 209 L838 206 L839 205 L845 205 L846 204 L847 205 L841 244 L839 249 L836 252 L829 254 L812 256 L811 257 L799 257 L794 252 L794 239 L795 238 L795 231 L797 223 L797 216 L798 215 L801 186 L802 185 L802 180 L803 179 L803 174 L805 168 L808 148 L812 143 L818 140 L837 138 L838 137 L853 137 L856 140 L856 154 L855 155 L853 174 L851 181 L848 184 L833 185 L832 186 L821 186 L820 185 L820 174 L821 173 L822 162 L826 157 L833 156 L837 154 L841 154 L842 155 L839 168 L836 170 L832 167 L831 169 L835 173 L838 173 L843 169 L845 161 L845 153 L841 150 L829 152 L822 155 L819 159 L817 172 L816 173 L816 185 L820 190 L831 190 L832 189 L847 188 L850 187 L855 181 L856 173 L857 172 L857 166 L858 165 L859 151 L860 150 L859 139 Z M236 84 L253 85 L254 86 L250 89 L250 94 L249 95 L250 97 L250 106 L252 112 L251 115 L245 115 L237 113 L240 107 L240 94 L237 86 L235 85 Z M198 85 L201 82 L209 82 L210 83 L228 84 L235 88 L237 95 L237 104 L236 108 L233 111 L217 109 L214 105 L214 100 L213 99 L214 97 L226 98 L226 95 L220 93 L213 93 L210 96 L210 104 L212 109 L215 112 L233 115 L234 116 L239 116 L240 117 L263 118 L264 119 L272 119 L275 117 L277 113 L277 105 L273 100 L263 99 L261 101 L261 103 L264 102 L265 103 L271 103 L274 107 L273 114 L269 116 L257 114 L254 109 L253 91 L257 87 L279 89 L287 94 L290 101 L291 114 L289 122 L284 130 L281 132 L276 133 L275 132 L265 132 L264 131 L250 130 L249 129 L225 125 L206 120 L202 117 L199 109 L199 102 L198 101 L198 94 L197 93 Z M890 81 L890 84 L897 83 L894 79 L892 79 Z M908 78 L907 89 L902 93 L896 93 L889 95 L881 95 L877 91 L878 80 L880 78 L883 77 L902 77 L903 76 L906 76 Z M996 85 L999 75 L1013 75 L1014 76 L1014 84 L1011 87 L998 87 Z M84 80 L87 76 L94 74 L110 74 L111 75 L120 76 L122 78 L123 82 L123 94 L124 96 L122 99 L104 99 L100 95 L100 89 L101 88 L105 88 L106 87 L113 88 L112 84 L101 84 L97 88 L97 96 L101 101 L103 102 L120 103 L125 101 L127 98 L127 87 L125 79 L123 76 L124 75 L128 76 L142 76 L143 77 L138 82 L138 92 L139 93 L139 99 L141 103 L149 104 L150 105 L159 105 L160 104 L164 104 L167 100 L167 91 L162 87 L152 88 L152 91 L162 91 L164 93 L164 99 L162 101 L145 101 L142 97 L141 83 L146 78 L170 79 L174 81 L177 85 L178 98 L179 99 L178 110 L175 114 L169 116 L94 115 L90 113 L86 109 L85 106 L84 88 L83 87 Z M911 76 L908 73 L890 73 L889 74 L878 75 L875 78 L873 88 L875 95 L879 98 L872 100 L866 100 L866 102 L867 103 L872 103 L873 102 L892 100 L907 95 L910 92 L911 89 L911 85 L912 84 Z M998 72 L994 79 L993 89 L997 91 L1013 90 L1016 87 L1017 84 L1017 74 L1013 71 Z M951 74 L952 77 L965 75 L967 80 L970 78 L970 74 L967 71 L954 72 Z M81 79 L80 91 L81 92 L82 107 L84 112 L88 116 L92 118 L96 118 L97 119 L165 120 L166 119 L172 119 L176 117 L181 112 L182 108 L182 94 L181 93 L180 84 L174 77 L169 75 L149 74 L148 73 L135 73 L134 72 L121 72 L120 71 L91 71 L84 74 Z M923 68 L923 80 L922 81 L919 98 L917 102 L910 107 L890 110 L884 112 L878 112 L877 113 L851 115 L850 116 L843 116 L842 117 L832 117 L831 118 L820 118 L814 113 L813 97 L814 96 L815 83 L818 77 L825 72 L838 71 L839 70 L854 70 L858 75 L858 86 L857 87 L857 94 L854 98 L848 100 L832 100 L830 98 L830 89 L834 85 L842 85 L843 86 L843 91 L846 91 L847 84 L844 81 L834 81 L830 83 L827 86 L826 89 L826 99 L829 103 L831 104 L848 104 L856 101 L859 98 L861 93 L861 83 L862 82 L861 73 L856 69 L857 68 L899 66 L900 65 L920 65 Z M1028 67 L1029 71 L1028 91 L1025 98 L1021 101 L1018 102 L993 102 L992 101 L949 100 L945 99 L941 96 L942 73 L944 68 L949 64 L978 63 L982 66 L981 67 L979 82 L976 87 L957 87 L956 86 L956 81 L955 80 L952 84 L953 88 L955 90 L959 90 L960 91 L976 91 L981 87 L984 77 L985 65 L988 62 L1021 62 Z M1032 69 L1030 64 L1026 60 L1021 58 L905 61 L904 62 L888 62 L887 63 L874 63 L873 64 L862 64 L861 65 L852 65 L851 66 L830 67 L820 70 L815 75 L812 81 L811 90 L810 91 L810 103 L809 104 L810 112 L812 117 L815 120 L823 122 L824 121 L837 121 L838 120 L868 118 L869 117 L890 115 L891 114 L896 114 L897 113 L902 113 L910 111 L916 108 L920 104 L923 98 L923 94 L926 85 L926 77 L927 76 L927 71 L924 65 L925 64 L942 64 L943 65 L940 68 L938 75 L937 96 L939 100 L945 104 L1004 105 L1005 106 L1008 105 L1021 105 L1026 102 L1031 92 Z M85 56 L91 56 L92 55 L135 56 L136 57 L151 57 L152 58 L165 58 L166 59 L195 60 L196 61 L208 61 L209 62 L220 62 L221 63 L246 64 L247 65 L258 65 L259 66 L289 68 L302 74 L309 83 L311 89 L312 99 L313 100 L313 107 L314 108 L314 115 L315 116 L315 123 L316 124 L317 140 L318 141 L320 169 L321 170 L321 177 L322 178 L322 186 L323 187 L323 195 L324 196 L325 212 L326 213 L326 222 L327 223 L328 239 L329 240 L329 247 L330 248 L330 255 L331 256 L332 273 L333 274 L333 281 L334 282 L334 290 L335 291 L335 299 L336 300 L336 308 L337 309 L337 317 L338 318 L340 345 L341 346 L342 363 L343 364 L343 371 L344 372 L344 380 L345 381 L345 389 L346 390 L346 398 L347 399 L347 407 L348 408 L348 416 L349 417 L349 425 L350 426 L354 469 L355 473 L360 482 L368 487 L347 497 L345 499 L343 498 L342 484 L340 477 L340 469 L339 468 L339 461 L338 460 L338 453 L337 452 L337 445 L336 444 L336 437 L335 436 L335 428 L334 427 L334 420 L333 419 L333 412 L332 411 L328 368 L326 360 L326 352 L325 351 L322 319 L321 318 L321 310 L320 309 L320 302 L319 301 L317 274 L316 273 L316 266 L315 265 L315 258 L314 257 L314 250 L313 249 L313 242 L312 241 L312 234 L311 233 L311 225 L310 224 L310 217 L309 216 L309 208 L308 207 L308 200 L307 199 L307 192 L306 191 L304 165 L303 164 L300 136 L299 135 L299 130 L298 129 L298 124 L295 113 L293 98 L290 92 L286 88 L276 84 L267 84 L266 83 L258 83 L257 82 L249 82 L248 81 L205 79 L202 78 L199 79 L194 85 L194 98 L195 99 L196 113 L199 119 L206 124 L227 128 L232 130 L246 132 L247 133 L259 134 L260 135 L273 135 L274 136 L281 135 L286 132 L291 124 L291 120 L292 119 L294 122 L294 127 L295 128 L295 134 L298 147 L301 176 L302 177 L302 185 L303 186 L303 195 L304 196 L304 204 L303 205 L302 204 L301 192 L300 191 L300 186 L299 185 L295 162 L293 157 L289 152 L277 148 L262 147 L261 146 L247 145 L246 144 L243 145 L243 150 L244 151 L247 181 L249 187 L252 190 L257 192 L278 193 L281 191 L283 187 L282 171 L278 166 L274 164 L269 164 L268 163 L264 164 L262 166 L262 175 L263 177 L267 178 L267 175 L265 171 L266 167 L273 167 L278 171 L279 175 L279 187 L275 190 L255 188 L252 184 L250 176 L250 170 L249 169 L249 156 L250 153 L254 149 L256 149 L257 150 L284 153 L290 158 L294 170 L297 190 L298 191 L298 196 L299 197 L299 202 L300 203 L300 210 L301 211 L302 225 L303 226 L302 246 L300 249 L296 251 L293 251 L292 250 L263 247 L257 242 L256 234 L255 233 L254 216 L253 215 L253 208 L254 207 L261 207 L262 208 L270 208 L271 209 L281 210 L284 213 L285 216 L286 230 L287 231 L286 236 L283 238 L280 238 L279 237 L274 237 L271 234 L269 228 L269 224 L270 223 L277 226 L276 221 L274 220 L266 221 L266 230 L268 236 L272 240 L285 241 L288 239 L290 234 L290 225 L289 224 L288 214 L287 211 L283 207 L278 205 L249 203 L251 230 L252 231 L253 242 L258 249 L271 252 L298 254 L301 253 L305 247 L306 228 L307 227 L308 228 L310 252 L311 253 L311 260 L312 261 L312 269 L313 270 L316 302 L317 303 L317 312 L318 313 L318 320 L319 321 L319 330 L321 338 L323 363 L324 364 L324 371 L325 372 L325 380 L326 381 L328 405 L329 406 L330 421 L331 422 L331 429 L332 430 L332 438 L333 439 L334 453 L335 454 L335 460 L337 467 L337 474 L338 475 L338 482 L339 483 L339 490 L340 491 L341 500 L326 511 L286 511 L283 510 L279 512 L277 519 L277 524 L278 525 L278 534 L279 535 L279 541 L280 542 L280 548 L282 556 L273 570 L271 567 L270 544 L269 543 L268 525 L267 524 L267 516 L266 515 L266 505 L265 504 L265 496 L264 495 L264 485 L263 484 L263 475 L262 474 L261 457 L260 456 L260 449 L259 448 L259 438 L258 437 L258 429 L257 428 L257 419 L256 418 L254 382 L253 381 L253 368 L252 367 L250 332 L249 331 L249 321 L248 320 L247 297 L246 296 L246 287 L245 286 L245 277 L244 276 L244 265 L243 264 L241 234 L240 233 L237 189 L236 188 L234 163 L231 152 L225 143 L213 136 L206 134 L195 133 L194 132 L177 131 L176 130 L163 130 L162 129 L117 129 L116 130 L107 131 L103 133 L98 138 L96 145 L96 151 L95 152 L96 189 L97 190 L98 204 L100 210 L106 218 L113 222 L121 224 L127 224 L128 225 L135 225 L136 226 L156 226 L157 224 L156 222 L132 222 L131 221 L119 220 L108 215 L103 208 L101 201 L100 181 L99 180 L99 146 L102 138 L105 135 L109 133 L122 133 L123 132 L156 132 L157 133 L171 133 L172 134 L183 134 L184 135 L199 136 L200 137 L209 138 L220 143 L225 148 L228 154 L230 161 L232 185 L233 186 L233 195 L234 196 L235 218 L236 219 L236 229 L237 230 L237 239 L238 240 L238 251 L239 252 L240 272 L241 273 L243 303 L244 304 L244 315 L245 316 L245 326 L246 327 L246 337 L247 338 L247 349 L248 350 L248 362 L249 363 L249 373 L250 374 L252 411 L253 412 L254 432 L255 433 L256 452 L257 453 L257 461 L258 462 L258 470 L259 471 L259 480 L260 481 L260 490 L261 491 L262 510 L263 511 L263 521 L264 522 L264 532 L265 533 L265 542 L266 543 L266 554 L267 555 L268 575 L269 576 L269 579 L267 581 L261 597 L258 610 L256 605 L256 594 L255 593 L255 581 L254 580 L254 570 L253 569 L253 558 L252 557 L252 545 L251 544 L251 534 L250 533 L248 498 L247 497 L246 476 L245 475 L245 466 L244 465 L244 454 L243 453 L243 442 L242 441 L240 410 L239 409 L238 387 L237 386 L237 377 L236 376 L236 367 L235 366 L232 328 L231 327 L231 317 L230 316 L230 307 L229 306 L229 297 L228 296 L228 285 L227 284 L227 275 L226 274 L223 231 L222 230 L222 221 L221 220 L221 212 L220 211 L218 189 L215 176 L210 166 L204 160 L194 155 L180 153 L179 152 L163 151 L162 150 L132 150 L121 154 L116 159 L113 167 L113 184 L114 185 L114 192 L116 199 L125 208 L137 211 L151 211 L157 205 L157 198 L156 197 L156 186 L157 185 L167 185 L168 186 L173 186 L177 188 L181 194 L181 206 L182 207 L182 229 L183 230 L182 231 L182 237 L180 241 L176 245 L168 248 L141 247 L140 246 L126 245 L125 244 L114 243 L113 242 L96 239 L87 236 L76 230 L69 223 L64 212 L62 184 L61 183 L60 156 L59 155 L58 104 L59 103 L59 88 L64 71 L73 61 Z M1034 46 L1044 53 L1050 63 L1053 76 L1054 96 L1053 97 L1053 111 L1052 112 L1051 134 L1050 135 L1047 165 L1046 166 L1042 194 L1038 206 L1028 217 L1021 221 L1007 225 L991 227 L990 228 L984 228 L983 229 L954 231 L953 232 L927 232 L923 230 L918 225 L916 220 L917 196 L918 195 L918 190 L920 182 L924 176 L933 173 L944 173 L946 175 L945 176 L945 183 L944 184 L943 192 L947 198 L952 200 L969 200 L978 197 L983 192 L987 181 L988 157 L984 147 L979 143 L974 141 L968 141 L967 140 L941 141 L940 142 L919 144 L909 147 L903 150 L897 156 L893 162 L889 172 L886 184 L883 208 L881 215 L881 221 L880 222 L880 230 L879 231 L878 246 L876 254 L876 262 L875 263 L874 279 L873 280 L873 287 L872 288 L869 318 L868 319 L867 335 L866 336 L865 350 L864 351 L863 368 L862 369 L860 393 L859 394 L859 401 L858 402 L858 410 L857 411 L857 418 L855 426 L855 433 L854 434 L854 441 L853 442 L853 449 L852 450 L852 457 L851 458 L851 465 L850 466 L850 473 L849 474 L849 481 L848 482 L848 490 L847 491 L846 507 L845 508 L845 515 L844 516 L844 523 L843 524 L843 532 L842 533 L842 540 L841 541 L841 548 L840 549 L840 557 L839 558 L838 573 L836 581 L833 613 L831 614 L827 598 L823 589 L823 586 L824 585 L825 569 L826 568 L829 536 L830 535 L830 528 L831 527 L831 519 L832 518 L832 511 L833 510 L833 503 L834 502 L834 495 L835 494 L835 487 L836 486 L836 479 L837 478 L837 471 L838 470 L838 462 L839 461 L841 436 L842 435 L842 426 L843 425 L844 409 L845 408 L845 401 L846 400 L847 381 L848 380 L849 364 L850 363 L850 354 L851 353 L851 346 L852 345 L852 338 L853 337 L853 330 L854 329 L854 322 L855 321 L855 314 L856 313 L856 306 L857 305 L857 298 L858 297 L858 290 L859 289 L859 282 L860 281 L860 274 L861 273 L861 265 L862 264 L862 256 L863 255 L863 248 L864 247 L864 238 L865 237 L865 230 L866 229 L869 195 L870 194 L870 187 L871 186 L876 151 L880 141 L888 133 L896 129 L908 126 L920 125 L921 124 L957 123 L958 122 L1002 123 L1006 128 L1007 135 L1006 136 L1006 153 L1005 154 L1003 189 L999 202 L993 208 L980 212 L958 213 L957 214 L939 212 L939 216 L941 217 L979 216 L980 215 L985 215 L995 211 L1000 207 L1004 200 L1006 193 L1008 166 L1009 165 L1010 130 L1007 123 L1001 120 L991 120 L990 119 L944 119 L943 120 L918 121 L917 122 L910 122 L909 123 L901 124 L888 129 L879 137 L874 147 L871 164 L870 165 L868 184 L866 191 L866 198 L865 199 L864 217 L863 218 L860 252 L859 253 L858 269 L857 270 L857 277 L856 278 L856 286 L854 294 L852 318 L851 319 L851 326 L850 327 L850 334 L849 335 L849 342 L848 343 L848 350 L847 351 L847 359 L846 360 L846 368 L845 369 L845 376 L844 377 L844 386 L843 387 L841 414 L840 415 L838 440 L837 441 L837 448 L836 449 L835 466 L834 467 L831 499 L830 500 L830 507 L829 508 L829 515 L828 516 L828 524 L827 525 L826 539 L825 540 L822 573 L820 581 L812 566 L814 559 L816 538 L817 537 L817 530 L816 528 L813 526 L809 526 L808 527 L792 527 L791 528 L783 528 L782 529 L770 519 L771 518 L800 517 L810 514 L814 510 L817 502 L817 495 L818 494 L818 487 L819 486 L819 473 L817 470 L809 470 L808 471 L788 473 L782 476 L780 480 L778 499 L783 504 L791 504 L792 503 L796 503 L801 499 L802 488 L801 487 L793 488 L793 491 L797 490 L799 491 L798 497 L796 499 L783 500 L782 499 L782 490 L783 489 L784 480 L787 477 L792 477 L793 476 L800 476 L801 475 L808 475 L809 474 L814 474 L816 476 L812 505 L810 509 L806 512 L795 513 L794 514 L769 515 L764 511 L762 502 L763 501 L763 490 L764 489 L764 478 L765 477 L766 461 L767 460 L768 447 L769 446 L769 441 L770 440 L770 435 L771 434 L774 414 L781 408 L805 406 L806 405 L812 405 L820 403 L824 403 L825 404 L820 445 L818 451 L815 454 L808 456 L802 456 L801 457 L793 457 L785 459 L784 458 L788 431 L792 426 L800 424 L805 424 L807 426 L807 434 L805 441 L804 442 L800 442 L799 441 L800 436 L797 436 L796 437 L797 445 L803 446 L806 445 L809 442 L811 426 L807 421 L792 422 L786 427 L784 432 L782 449 L781 450 L781 462 L782 463 L783 462 L791 462 L792 461 L812 459 L817 457 L821 453 L823 448 L825 430 L826 429 L826 422 L827 421 L827 414 L829 406 L829 399 L780 405 L776 407 L772 411 L769 420 L768 432 L767 433 L764 458 L763 459 L763 465 L762 466 L762 476 L761 477 L761 487 L760 488 L760 507 L761 510 L760 511 L744 500 L745 499 L745 483 L746 482 L746 473 L747 472 L747 465 L748 464 L748 455 L749 454 L749 444 L750 443 L750 436 L751 435 L753 409 L754 408 L755 394 L756 393 L757 375 L758 374 L759 360 L760 359 L761 345 L762 344 L762 337 L764 329 L765 313 L766 312 L766 305 L767 304 L767 297 L768 296 L768 288 L770 280 L772 256 L774 248 L774 241 L775 240 L779 202 L781 194 L786 147 L787 146 L788 132 L790 124 L794 85 L798 69 L801 64 L811 55 L821 52 L828 52 L829 51 L845 51 L846 50 L893 48 L894 47 L935 46 L936 45 L996 44 L997 43 L1018 43 L1019 44 L1028 44 Z M1034 42 L1027 40 L968 40 L967 41 L900 43 L899 44 L881 44 L880 45 L865 45 L864 46 L823 48 L822 49 L817 49 L807 53 L797 63 L793 72 L791 86 L790 87 L790 93 L789 94 L788 109 L787 110 L785 132 L784 133 L784 141 L782 148 L778 187 L776 195 L775 210 L773 218 L773 225 L772 226 L772 233 L771 234 L771 241 L770 242 L770 249 L769 250 L769 257 L768 258 L768 265 L767 266 L767 273 L766 274 L766 281 L765 282 L765 289 L764 290 L764 297 L763 298 L760 330 L759 331 L755 369 L754 370 L754 377 L753 378 L753 385 L752 386 L752 394 L751 395 L750 409 L749 410 L749 418 L748 419 L748 426 L747 427 L747 436 L746 437 L746 445 L745 446 L745 454 L744 455 L743 473 L741 480 L735 486 L726 489 L718 489 L715 487 L683 477 L663 472 L649 470 L648 469 L631 467 L629 465 L630 344 L631 343 L631 330 L628 325 L622 322 L611 319 L599 318 L598 317 L590 317 L589 316 L579 316 L578 315 L565 315 L564 314 L510 314 L509 315 L488 316 L487 317 L478 318 L471 321 L467 327 L465 464 L461 466 L448 467 L447 468 L442 468 L441 469 L431 470 L411 475 L407 475 L381 483 L378 483 L374 485 L367 483 L361 477 L358 470 L358 464 L357 463 L355 436 L354 435 L353 418 L352 417 L352 409 L351 408 L351 399 L350 398 L346 355 L345 354 L345 347 L344 346 L344 337 L343 336 L343 328 L342 327 L342 319 L341 318 L337 274 L336 273 L336 266 L335 265 L335 257 L334 256 L334 249 L333 248 L332 231 L331 230 L331 223 L330 222 L330 215 L329 214 L329 206 L328 205 L328 197 L327 196 L327 188 L326 187 L326 179 L325 178 L325 169 L324 168 L324 161 L323 160 L319 116 L318 115 L315 89 L309 76 L300 68 L288 64 L244 61 L243 60 L233 60 L232 59 L220 59 L219 58 L208 58 L207 57 L178 56 L177 55 L148 54 L147 53 L132 53 L131 52 L112 52 L111 51 L86 52 L76 55 L66 62 L59 74 L56 85 L56 92 L55 93 L55 150 L56 151 L56 166 L57 167 L59 203 L60 204 L61 215 L64 222 L68 228 L75 234 L82 238 L93 242 L114 246 L115 247 L120 247 L121 248 L144 250 L145 251 L159 251 L160 252 L167 252 L175 250 L181 246 L186 237 L186 210 L185 209 L185 197 L183 189 L179 185 L173 182 L168 182 L167 181 L154 182 L152 184 L153 204 L151 207 L136 207 L128 205 L121 200 L118 193 L118 188 L117 187 L117 166 L118 163 L123 157 L127 155 L138 154 L139 153 L182 156 L197 160 L202 163 L207 168 L211 176 L214 194 L215 195 L216 209 L217 210 L217 219 L218 220 L218 229 L219 230 L219 239 L220 240 L220 249 L221 250 L221 261 L222 262 L222 273 L223 274 L223 284 L224 285 L224 295 L225 296 L225 305 L226 306 L226 314 L227 315 L227 325 L228 326 L229 345 L230 346 L230 355 L231 356 L231 366 L232 367 L232 378 L233 379 L233 388 L234 389 L236 421 L237 422 L237 430 L238 431 L241 474 L242 475 L242 484 L243 485 L243 496 L244 497 L247 542 L248 543 L248 554 L249 555 L249 565 L250 566 L253 615 L254 616 L254 626 L255 627 L255 664 L256 665 L256 680 L257 681 L257 690 L258 691 L258 703 L255 706 L253 706 L249 704 L231 700 L220 696 L202 695 L193 699 L186 706 L183 712 L181 720 L181 739 L182 740 L182 749 L183 750 L183 755 L184 756 L184 761 L185 762 L188 781 L190 785 L192 796 L201 824 L203 834 L209 851 L209 854 L213 864 L213 867 L215 870 L217 878 L224 891 L235 902 L247 908 L264 912 L269 912 L270 913 L290 914 L291 915 L294 937 L298 952 L299 962 L302 972 L305 990 L310 1001 L321 1018 L323 1023 L324 1032 L329 1048 L331 1061 L334 1070 L334 1074 L343 1110 L354 1146 L360 1158 L369 1167 L382 1172 L414 1174 L415 1175 L428 1175 L429 1176 L478 1178 L483 1180 L487 1184 L489 1189 L489 1216 L488 1217 L486 1360 L494 1368 L511 1372 L531 1373 L532 1374 L573 1374 L574 1373 L586 1373 L587 1372 L599 1371 L606 1369 L614 1364 L616 1360 L617 1191 L619 1185 L624 1180 L629 1178 L674 1176 L675 1175 L686 1175 L687 1174 L712 1172 L724 1168 L735 1158 L739 1152 L745 1138 L755 1106 L763 1074 L763 1070 L765 1065 L766 1056 L768 1051 L768 1046 L771 1036 L773 1021 L782 1008 L789 992 L790 983 L794 967 L794 962 L797 951 L797 946 L800 935 L802 919 L803 918 L810 918 L816 916 L836 913 L853 908 L863 903 L872 896 L878 888 L882 880 L908 776 L910 754 L911 753 L911 728 L910 727 L910 722 L908 715 L903 707 L897 702 L890 699 L886 699 L885 698 L871 699 L870 700 L860 701 L855 703 L836 706 L833 701 L833 675 L834 674 L834 630 L835 629 L835 621 L836 620 L839 589 L840 588 L844 550 L845 549 L845 541 L846 540 L846 533 L847 532 L847 525 L848 524 L852 481 L853 480 L853 473 L854 472 L854 465 L855 464 L855 457 L856 456 L856 449 L857 448 L857 441 L858 440 L858 433 L859 432 L859 425 L860 424 L860 417 L861 416 L861 409 L862 408 L862 401 L863 400 L863 393 L864 392 L864 385 L865 384 L865 376 L866 375 L866 368 L867 367 L867 359 L868 358 L868 351 L869 350 L869 343 L870 342 L870 334 L871 333 L871 326 L872 325 L872 318 L873 317 L873 310 L874 309 L874 302 L875 301 L876 286 L878 278 L878 270 L879 269 L879 262 L880 261 L880 254 L881 253 L883 229 L884 228 L888 194 L895 167 L901 157 L907 152 L914 149 L930 147 L931 146 L948 145 L949 144 L969 144 L977 147 L982 152 L984 157 L985 167 L983 174 L983 181 L980 190 L977 193 L969 196 L952 196 L949 195 L947 192 L948 181 L949 180 L949 171 L948 170 L941 170 L940 169 L925 171 L917 179 L915 185 L914 197 L913 198 L912 219 L917 230 L928 236 L949 236 L950 235 L962 235 L963 234 L989 232 L990 231 L1002 230 L1018 226 L1027 222 L1036 215 L1039 211 L1044 200 L1047 183 L1048 182 L1049 171 L1050 170 L1054 132 L1055 131 L1055 123 L1056 122 L1056 111 L1057 110 L1057 78 L1056 77 L1055 67 L1050 55 L1043 47 Z" fill="#eef3f4" fill-rule="evenodd"/>
</svg>
