<svg xmlns="http://www.w3.org/2000/svg" width="1086" height="1448" viewBox="0 0 1086 1448">
  <title>0348</title>
  <path d="M503 1206 L504 1205 L507 1206 L506 1207 Z M689 1192 L690 1191 L691 1192 L690 1193 Z M689 1188 L690 1187 L691 1188 L690 1189 Z M689 1189 L686 1192 L675 1195 L669 1198 L661 1199 L642 1204 L639 1203 L648 1197 L657 1195 L663 1188 L668 1187 L674 1190 L686 1189 L687 1188 Z M734 1171 L735 1170 L736 1171 L735 1172 Z M735 1170 L736 1169 L737 1170 L736 1171 Z M367 1134 L369 1133 L387 1148 L430 1174 L445 1181 L460 1186 L480 1196 L485 1197 L504 1205 L500 1206 L495 1204 L487 1203 L481 1200 L466 1197 L463 1195 L460 1195 L440 1187 L435 1186 L418 1178 L391 1157 Z M366 1133 L367 1132 L368 1133 L367 1134 Z M365 1132 L366 1131 L367 1132 L366 1133 Z M364 1131 L365 1130 L366 1131 L365 1132 Z M363 1130 L364 1129 L365 1130 L364 1131 Z M362 1129 L363 1128 L364 1129 L363 1130 Z M361 1128 L362 1127 L363 1128 L362 1129 Z M360 1127 L361 1126 L362 1127 L361 1128 Z M359 1126 L360 1125 L361 1126 L360 1127 Z M785 1043 L786 1045 L785 1058 L786 1059 L788 1049 L787 1048 L787 1044 Z M716 1034 L716 1036 L719 1037 L719 1035 Z M720 1029 L720 1031 L723 1033 L723 1038 L724 1039 L724 1042 L723 1043 L720 1041 L720 1043 L722 1045 L724 1045 L726 1043 L726 1038 L723 1030 Z M336 1018 L337 1017 L338 1018 L337 1019 Z M806 1005 L807 1009 L802 1025 L799 1040 L789 1069 L786 1082 L783 1088 L777 1112 L772 1126 L764 1141 L753 1155 L737 1170 L736 1167 L740 1158 L736 1155 L738 1151 L746 1143 L752 1131 L750 1131 L747 1138 L736 1151 L733 1157 L738 1159 L735 1164 L735 1167 L730 1174 L723 1180 L709 1187 L695 1192 L691 1192 L690 1191 L692 1189 L693 1184 L700 1178 L704 1171 L712 1162 L714 1157 L734 1137 L737 1131 L744 1123 L747 1116 L747 1113 L751 1108 L752 1103 L755 1098 L754 1088 L759 1078 L759 1071 L764 1063 L766 1055 L773 1049 L774 1040 L782 1026 L786 1023 L787 1026 L789 1028 L791 1028 L794 1025 L795 1020 L803 1012 Z M806 1004 L807 1003 L808 1005 L807 1006 Z M530 1010 L530 1014 L521 1018 L514 1030 L512 1031 L503 1030 L499 1033 L491 1033 L484 1028 L480 1028 L475 1025 L474 1022 L476 1019 L476 1016 L473 1011 L476 1006 L473 1001 L480 995 L485 995 L488 993 L496 994 L500 991 L505 995 L509 996 L515 1001 L524 1004 Z M531 1009 L525 1003 L515 999 L511 995 L505 993 L502 990 L499 990 L496 992 L486 992 L483 994 L481 993 L474 997 L471 1001 L474 1006 L471 1010 L471 1012 L474 1016 L474 1019 L472 1023 L477 1029 L480 1030 L482 1029 L491 1035 L499 1035 L505 1031 L512 1033 L517 1030 L517 1027 L524 1018 L529 1017 L532 1014 Z M632 984 L615 986 L606 990 L590 989 L581 994 L578 994 L576 996 L581 996 L591 989 L593 989 L595 991 L603 992 L611 990 L616 987 L631 986 Z M563 984 L572 992 L565 984 Z M561 984 L552 985 L547 987 L540 987 L536 985 L532 985 L538 988 L549 988 L550 987 L558 986 Z M709 982 L710 981 L711 982 L710 983 Z M461 975 L462 974 L463 975 L462 976 Z M492 971 L489 972 L488 974 L492 972 Z M491 966 L492 965 L493 966 L492 967 Z M494 964 L495 963 L500 963 L503 965 L500 966 Z M479 959 L480 958 L481 959 L480 960 Z M838 957 L836 960 L836 965 L833 970 L832 976 L834 975 L838 964 L838 961 L841 960 Z M666 955 L667 954 L668 955 L667 956 Z M662 953 L663 952 L664 953 L663 954 Z M484 953 L485 952 L486 953 L485 954 Z M661 952 L662 951 L663 952 L662 953 Z M485 952 L486 951 L488 952 L487 953 Z M664 951 L665 950 L666 951 L665 952 Z M660 951 L661 950 L662 951 L661 952 Z M662 961 L661 964 L655 970 L646 974 L632 974 L631 975 L617 975 L616 976 L615 975 L614 976 L610 975 L596 976 L595 975 L562 974 L561 973 L551 973 L550 972 L541 972 L540 971 L527 970 L526 969 L513 967 L509 964 L496 959 L492 959 L490 957 L492 955 L498 955 L504 957 L516 957 L517 956 L525 956 L526 955 L542 955 L543 954 L554 954 L555 953 L580 954 L581 955 L622 954 L623 953 L636 952 L641 950 L647 950 L660 957 Z M663 950 L664 949 L665 950 L664 951 Z M488 949 L489 948 L490 949 L489 950 Z M661 948 L662 947 L663 948 L662 949 Z M660 947 L661 946 L662 947 L661 948 Z M659 946 L660 945 L661 946 L660 947 Z M486 946 L487 945 L489 946 L488 947 Z M650 945 L644 948 L632 949 L631 950 L617 950 L616 949 L617 948 L627 948 L644 943 Z M585 944 L588 945 L596 945 L597 944 Z M669 954 L667 950 L660 945 L660 943 L657 945 L654 945 L649 942 L640 942 L628 946 L606 948 L605 949 L597 949 L596 950 L576 950 L575 949 L557 949 L556 948 L516 949 L508 947 L505 948 L507 948 L508 949 L507 950 L503 950 L492 944 L488 943 L481 945 L478 947 L476 951 L477 952 L482 946 L486 946 L487 947 L480 953 L480 958 L479 959 L478 958 L479 963 L485 966 L478 970 L473 971 L477 972 L487 967 L489 967 L491 969 L496 970 L498 972 L516 978 L517 977 L516 976 L507 974 L502 971 L497 970 L493 967 L494 966 L496 967 L503 967 L504 965 L506 965 L515 970 L531 972 L532 973 L540 973 L548 975 L557 975 L558 976 L602 977 L603 978 L639 977 L645 975 L656 974 L662 971 L669 961 Z M494 927 L495 926 L496 927 L495 928 Z M495 926 L496 925 L497 926 L496 927 Z M832 923 L838 927 L839 926 L845 931 L842 945 L837 949 L834 941 L828 938 L829 929 Z M496 924 L497 923 L498 925 L497 926 Z M334 922 L336 924 L342 938 L341 947 L339 952 L339 963 L342 969 L343 975 L346 978 L346 983 L344 986 L344 996 L342 999 L343 1006 L339 1013 L333 1004 L330 997 L330 984 L326 972 L324 959 L321 953 L321 937 L322 936 L326 936 L329 933 L331 925 Z M657 920 L664 928 L664 932 L663 933 L658 931 L653 926 Z M334 921 L330 923 L329 929 L326 934 L322 934 L320 936 L319 939 L319 943 L320 944 L319 953 L323 961 L323 967 L328 983 L328 997 L330 999 L330 1002 L336 1013 L338 1012 L339 1013 L339 1015 L337 1017 L335 1017 L335 1020 L338 1022 L340 1019 L342 1011 L344 1009 L344 999 L346 995 L346 987 L348 984 L348 978 L345 975 L340 958 L341 951 L343 947 L343 943 L342 942 L343 934 L338 926 L337 922 Z M666 929 L664 925 L657 918 L652 923 L652 927 L656 931 L655 932 L636 931 L635 929 L632 931 L616 931 L610 927 L602 926 L601 925 L593 925 L592 926 L585 925 L584 926 L563 926 L562 927 L550 927 L549 928 L534 928 L527 930 L513 929 L509 931 L501 931 L495 933 L481 933 L475 937 L464 938 L459 942 L456 951 L457 953 L461 954 L462 955 L461 957 L464 957 L466 960 L465 961 L466 962 L466 966 L462 971 L462 974 L460 977 L462 978 L463 977 L475 982 L482 988 L482 991 L483 991 L484 988 L475 980 L476 979 L473 980 L471 978 L466 977 L464 975 L466 974 L466 972 L464 971 L467 967 L468 961 L466 956 L463 953 L460 953 L458 951 L458 948 L462 941 L469 939 L475 939 L481 935 L499 934 L505 932 L507 933 L515 930 L516 931 L523 931 L524 932 L525 931 L531 931 L539 929 L548 930 L549 929 L557 929 L558 928 L578 928 L579 927 L587 927 L588 926 L590 927 L604 927 L611 929 L618 933 L649 933 L650 934 L657 934 L658 935 L659 934 L663 934 L664 932 L666 932 Z M648 913 L649 912 L650 913 L649 914 Z M647 912 L648 911 L649 912 L648 913 Z M879 909 L880 910 L880 914 L879 915 L878 941 L877 942 L876 941 L875 923 L877 919 L877 912 Z M443 910 L420 931 L429 925 Z M645 909 L646 908 L648 911 L647 912 Z M644 907 L645 906 L646 908 L645 909 Z M371 905 L373 907 L373 909 L369 918 L370 921 L369 924 L365 928 L363 933 L360 932 L359 933 L357 926 L361 922 L363 910 L367 909 Z M642 904 L643 903 L645 906 L644 907 Z M641 903 L642 902 L643 903 L642 904 Z M372 903 L370 903 L364 909 L361 910 L360 919 L358 923 L355 925 L356 936 L359 934 L364 935 L367 928 L371 923 L371 918 L374 911 L374 905 Z M640 900 L639 903 L644 910 L644 912 L649 915 L650 917 L653 918 L653 916 L647 905 L642 900 Z M462 890 L445 909 L458 897 Z M647 880 L658 903 L659 908 L666 921 L675 930 L682 940 L685 940 L689 937 L696 947 L701 958 L704 961 L709 973 L709 981 L703 987 L692 988 L685 981 L679 980 L677 982 L676 986 L671 988 L668 991 L664 990 L660 986 L654 986 L650 991 L652 999 L648 1003 L648 1009 L643 1014 L644 1023 L642 1025 L636 1024 L633 1021 L633 1018 L631 1016 L621 1013 L620 1009 L624 1004 L625 999 L628 996 L635 995 L638 992 L638 987 L642 983 L648 982 L648 981 L644 981 L638 984 L636 988 L637 991 L635 993 L629 994 L623 998 L623 1002 L618 1009 L618 1013 L620 1015 L629 1017 L633 1024 L640 1027 L643 1027 L646 1023 L645 1014 L650 1009 L650 1004 L654 999 L652 991 L655 988 L659 987 L663 991 L668 993 L670 991 L673 991 L678 986 L679 983 L682 989 L686 993 L685 1002 L692 1009 L694 1014 L700 1020 L702 1030 L705 1033 L708 1032 L709 1030 L711 1030 L710 1024 L708 1025 L708 1028 L706 1031 L702 1026 L701 1019 L695 1013 L692 1007 L686 1000 L688 997 L688 994 L681 984 L682 981 L692 990 L703 989 L707 985 L712 985 L716 989 L719 997 L718 1014 L721 1020 L721 1024 L719 1025 L714 1021 L712 1022 L712 1024 L715 1024 L719 1027 L722 1026 L723 1020 L719 1010 L721 1004 L721 998 L718 989 L714 985 L713 981 L711 979 L711 974 L706 961 L702 957 L692 938 L689 935 L685 938 L683 938 L668 921 L662 911 L658 899 L650 882 Z M503 879 L497 883 L494 881 L487 886 L485 886 L479 890 L476 890 L473 893 L470 891 L471 890 L471 886 L469 886 L468 888 L469 889 L469 893 L472 895 L476 892 L488 887 L493 883 L494 884 L498 884 L500 882 L504 881 L507 884 L507 889 L504 892 L503 896 L508 901 L500 907 L496 913 L496 919 L497 920 L493 925 L493 929 L494 930 L496 930 L499 925 L498 913 L500 909 L505 906 L510 901 L510 899 L505 896 L505 894 L509 889 L509 885 Z M608 876 L609 878 L606 880 L605 879 Z M602 877 L603 876 L605 877 L604 878 Z M608 876 L609 875 L610 876 L609 877 Z M604 876 L605 875 L606 876 L605 877 Z M591 875 L593 873 L596 876 L602 877 L603 878 L602 879 L606 880 L603 882 L599 882 L598 883 L592 878 Z M549 874 L550 873 L551 874 L550 875 Z M550 873 L551 872 L552 873 L551 874 Z M599 872 L600 871 L602 872 L601 873 Z M601 871 L602 870 L603 871 L602 872 Z M545 870 L546 869 L547 870 L546 871 Z M543 870 L544 869 L545 870 L544 871 Z M542 869 L543 868 L544 869 L543 870 Z M650 868 L649 871 L650 872 L650 878 L652 877 L652 870 Z M544 868 L545 867 L547 868 L546 869 Z M540 868 L541 867 L543 868 L542 869 Z M542 867 L543 865 L547 866 L544 868 Z M598 862 L594 864 L590 868 L589 876 L591 880 L596 883 L600 884 L601 883 L605 883 L611 878 L612 868 L608 863 Z M546 859 L539 861 L535 866 L535 874 L538 877 L543 879 L544 878 L540 876 L536 872 L537 869 L542 874 L545 875 L549 874 L550 875 L547 878 L549 878 L555 871 L555 865 L551 861 Z M535 834 L535 836 L539 839 L544 839 L547 836 L547 835 L545 837 L541 838 Z M868 817 L868 825 L870 833 L872 836 L872 847 L871 848 L871 857 L869 860 L869 870 L870 871 L869 873 L869 886 L866 889 L863 888 L859 893 L859 903 L860 904 L860 914 L861 915 L860 916 L860 920 L861 921 L861 940 L860 942 L862 940 L862 935 L863 934 L861 895 L863 890 L865 889 L868 890 L870 887 L870 882 L871 881 L871 861 L873 856 L873 848 L874 847 L874 839 L870 826 L870 818 Z M627 816 L628 815 L629 816 L628 817 Z M509 808 L510 807 L511 809 L510 810 Z M594 806 L597 806 L599 804 L596 804 Z M689 793 L689 794 L697 794 L698 795 L712 795 L712 794 L704 794 L703 793 L692 793 L691 792 Z M685 792 L687 793 L687 792 Z M656 790 L657 789 L659 790 L658 791 Z M450 789 L451 788 L452 789 L451 790 Z M713 783 L714 782 L715 783 L714 784 Z M715 782 L716 781 L719 782 L718 783 Z M718 781 L719 780 L721 781 L720 782 Z M720 780 L721 779 L722 780 L721 781 Z M714 779 L715 778 L716 779 L715 780 Z M474 778 L475 777 L476 778 L475 779 Z M437 778 L438 777 L441 778 L440 779 Z M712 777 L713 776 L714 777 L713 778 Z M741 773 L726 781 L722 779 L726 776 L736 772 L740 772 Z M646 773 L644 774 L646 778 L645 780 L638 776 L635 776 L632 778 L630 784 L631 789 L632 789 L632 781 L636 777 L642 779 L648 783 L649 782 Z M740 772 L741 771 L743 772 L742 773 Z M743 771 L744 770 L745 771 L744 772 Z M790 771 L796 769 L801 773 L798 776 Z M753 766 L754 765 L755 766 L754 767 Z M407 765 L408 764 L409 765 L408 766 Z M404 763 L405 762 L406 763 L405 764 Z M790 762 L791 761 L792 763 L791 764 Z M708 762 L710 761 L719 764 L727 772 L723 776 L716 779 L712 774 L711 771 L712 769 L711 770 L709 768 L710 766 Z M641 763 L643 761 L646 762 L643 765 Z M705 761 L706 760 L708 761 L707 762 Z M645 761 L646 760 L647 761 L646 762 Z M406 761 L407 760 L408 761 L407 762 Z M704 760 L705 759 L706 760 L705 761 Z M647 760 L648 759 L649 760 L648 761 Z M404 760 L405 759 L407 760 L406 761 Z M384 760 L385 759 L389 759 L390 760 L389 761 L385 761 Z M702 759 L703 758 L704 759 L703 760 Z M649 759 L650 758 L651 759 L650 760 Z M391 759 L392 758 L393 759 L392 760 Z M383 759 L384 758 L385 759 L384 760 Z M770 759 L777 757 L783 757 L791 761 L790 762 L779 762 Z M651 758 L652 757 L653 758 L652 759 Z M719 757 L720 756 L721 757 L720 758 Z M648 767 L656 761 L667 756 L686 757 L703 765 L708 770 L710 774 L710 780 L705 784 L699 784 L698 785 L690 785 L689 784 L679 783 L655 774 Z M715 755 L716 754 L717 755 L716 756 Z M413 755 L414 754 L415 755 L414 756 Z M413 751 L414 752 L409 759 L408 758 L408 754 Z M705 751 L706 750 L707 751 L706 752 Z M413 751 L414 750 L415 751 L414 752 Z M702 750 L703 749 L705 750 L704 751 Z M414 750 L415 749 L416 750 L415 751 Z M699 749 L700 748 L703 749 L702 750 Z M415 749 L416 748 L417 749 L416 750 Z M738 748 L744 753 L746 753 L747 751 L743 751 Z M696 748 L697 747 L699 748 L698 749 Z M417 748 L418 747 L419 748 L418 749 Z M623 757 L623 758 L625 757 L636 761 L653 775 L679 785 L678 786 L673 786 L671 789 L669 788 L661 789 L652 786 L659 795 L659 798 L668 808 L665 812 L662 813 L660 818 L654 824 L655 838 L650 842 L647 848 L647 855 L649 858 L650 864 L652 862 L649 856 L648 850 L650 845 L657 838 L656 824 L659 822 L662 818 L662 816 L667 813 L668 811 L668 806 L661 798 L661 796 L658 791 L659 790 L662 791 L664 790 L673 790 L676 787 L681 788 L688 786 L692 787 L715 786 L718 787 L726 794 L725 795 L717 795 L717 796 L727 796 L728 793 L736 792 L742 795 L745 799 L749 801 L760 801 L765 798 L773 797 L787 804 L791 804 L797 798 L800 798 L802 796 L802 788 L796 780 L785 776 L781 771 L782 770 L788 772 L796 777 L800 777 L802 773 L814 781 L810 776 L800 770 L794 768 L790 768 L791 770 L790 771 L781 769 L780 773 L784 777 L795 781 L800 787 L801 793 L799 796 L796 797 L790 803 L784 801 L776 796 L762 797 L758 800 L748 799 L740 792 L735 790 L726 792 L720 786 L717 785 L723 782 L727 782 L746 773 L749 770 L749 768 L729 770 L720 763 L705 757 L692 753 L685 753 L678 751 L679 750 L699 751 L731 764 L752 766 L753 767 L752 769 L774 767 L773 765 L761 765 L760 762 L756 763 L748 761 L741 761 L740 762 L734 761 L718 754 L720 751 L712 753 L710 751 L709 747 L708 747 L709 749 L707 750 L705 748 L698 746 L670 748 L640 761 L638 761 L628 756 Z M664 746 L665 745 L666 746 L665 747 Z M420 746 L421 745 L422 746 L421 747 Z M423 745 L424 744 L426 745 L425 746 Z M666 744 L667 743 L668 744 L667 745 Z M414 759 L423 751 L436 745 L445 744 L446 743 L453 743 L454 744 L466 745 L478 749 L483 754 L486 760 L486 765 L481 772 L474 776 L465 777 L464 778 L453 778 L452 777 L445 777 L441 775 L437 775 L427 770 L422 769 L414 763 Z M426 744 L427 743 L428 744 L427 745 Z M858 742 L860 745 L864 746 L864 749 L867 752 L870 752 L872 750 L874 750 L878 755 L878 775 L877 776 L877 780 L879 784 L879 797 L875 803 L875 807 L872 808 L870 812 L871 813 L874 809 L877 810 L877 804 L881 797 L881 784 L879 780 L880 756 L876 749 L873 748 L869 750 L865 743 L862 744 L860 742 Z M338 742 L337 744 L337 752 L335 755 L333 763 L333 769 L336 774 L334 790 L332 791 L333 792 L328 798 L327 803 L325 806 L326 810 L323 816 L323 820 L327 824 L330 823 L332 818 L332 812 L336 807 L339 800 L343 799 L344 800 L343 803 L346 802 L346 795 L349 790 L349 783 L350 782 L350 779 L348 775 L354 768 L354 765 L351 761 L351 758 L356 755 L361 754 L366 748 L377 747 L397 752 L398 751 L405 759 L402 760 L394 757 L375 757 L373 756 L375 758 L373 760 L373 764 L376 769 L374 771 L370 772 L367 775 L367 777 L374 783 L374 785 L377 788 L382 791 L386 790 L386 789 L382 788 L386 786 L388 788 L389 787 L395 787 L396 788 L401 788 L405 790 L409 794 L414 793 L416 791 L422 792 L428 799 L432 799 L435 801 L438 800 L438 799 L435 799 L433 797 L429 798 L424 791 L418 789 L412 792 L409 792 L403 787 L395 786 L394 785 L390 785 L389 786 L384 785 L383 787 L378 787 L376 785 L376 783 L369 777 L370 774 L376 772 L379 768 L381 768 L381 767 L378 768 L375 765 L375 760 L376 759 L382 760 L384 762 L392 762 L396 760 L402 770 L405 769 L411 771 L418 775 L417 776 L413 776 L416 779 L424 782 L432 783 L437 787 L439 787 L439 786 L432 781 L419 779 L417 777 L419 774 L417 772 L408 768 L402 768 L400 764 L401 763 L406 766 L410 765 L419 770 L437 776 L438 777 L437 778 L433 778 L430 776 L425 775 L426 777 L435 780 L443 780 L444 781 L447 779 L451 780 L465 780 L472 778 L473 781 L475 780 L478 781 L477 787 L472 790 L465 788 L447 787 L445 786 L444 787 L452 792 L455 792 L457 795 L450 801 L448 799 L444 799 L440 801 L440 803 L446 800 L450 803 L458 796 L458 793 L455 790 L456 789 L467 790 L477 800 L479 804 L484 808 L482 819 L473 837 L473 843 L477 847 L480 847 L482 849 L482 854 L479 861 L467 872 L466 880 L468 881 L468 874 L481 861 L481 858 L484 854 L483 847 L481 845 L478 845 L474 841 L479 828 L485 817 L485 813 L486 812 L485 806 L489 802 L488 801 L485 806 L479 801 L478 798 L472 793 L473 791 L475 791 L478 788 L480 778 L476 777 L480 775 L486 769 L488 763 L494 757 L493 755 L500 752 L506 752 L507 753 L506 754 L498 755 L507 755 L511 752 L505 750 L499 750 L494 752 L490 756 L477 744 L470 740 L462 738 L456 738 L455 737 L439 738 L422 743 L410 750 L405 756 L401 751 L398 751 L394 749 L401 746 L407 746 L427 735 L422 736 L408 744 L395 746 L391 748 L385 748 L379 746 L367 746 L360 753 L357 753 L350 756 L349 761 L352 765 L352 768 L346 775 L348 778 L347 782 L348 784 L346 792 L343 798 L340 797 L337 800 L336 804 L330 812 L330 820 L327 823 L325 820 L325 815 L328 810 L327 806 L330 798 L336 789 L336 785 L338 779 L338 774 L335 769 L336 757 L339 752 L340 741 Z M708 734 L709 733 L712 734 L711 735 Z M704 733 L705 732 L708 733 L707 734 Z M429 734 L433 734 L434 733 Z M686 731 L684 733 L680 733 L676 735 L680 733 L684 733 Z M470 728 L473 731 L483 735 Z M629 749 L629 751 L631 752 L637 752 L638 751 L643 752 L649 748 L650 749 L654 748 L657 751 L661 748 L666 747 L667 745 L671 743 L676 738 L687 736 L690 734 L702 734 L720 739 L723 741 L728 742 L732 745 L734 745 L727 740 L725 740 L720 737 L713 736 L712 735 L714 734 L713 733 L710 733 L703 729 L705 732 L704 733 L700 732 L688 733 L685 735 L678 736 L671 741 L664 743 L658 748 L657 747 L653 747 L652 748 L650 747 L653 743 L651 738 L663 727 L667 727 L669 725 L673 726 L681 720 L688 720 L690 721 L694 719 L698 719 L699 720 L705 719 L710 724 L721 725 L724 727 L727 727 L734 730 L747 743 L750 751 L765 757 L770 757 L771 758 L770 760 L776 763 L780 763 L781 764 L790 763 L791 766 L794 763 L794 761 L791 758 L782 755 L781 756 L772 757 L771 756 L763 755 L756 751 L754 751 L751 748 L746 739 L735 729 L720 723 L712 723 L706 718 L698 718 L697 717 L691 719 L683 718 L673 724 L670 723 L667 725 L663 725 L650 737 L649 740 L651 742 L647 748 L643 750 L630 750 Z M381 703 L382 702 L383 703 L382 704 Z M419 702 L418 701 L415 703 L412 703 L398 710 L396 710 L393 707 L393 710 L395 712 L398 712 L406 707 L411 706 Z M380 698 L381 697 L382 698 L381 699 Z M367 698 L368 697 L369 698 L368 699 Z M637 697 L635 697 L632 701 L626 714 L626 718 L625 719 L625 737 L627 745 L628 745 L627 743 L627 731 L626 730 L627 717 L629 710 Z M368 697 L369 696 L370 697 L369 698 Z M382 695 L380 697 L373 700 L371 696 L377 693 Z M445 692 L445 693 L447 692 L456 693 L455 692 Z M641 690 L642 689 L644 690 L643 691 Z M643 689 L644 688 L645 689 L644 690 Z M367 685 L368 684 L369 685 L368 686 Z M502 733 L496 724 L497 723 L496 715 L490 707 L491 701 L482 691 L471 691 L452 684 L432 689 L424 693 L419 693 L414 697 L409 699 L404 699 L401 702 L404 700 L413 699 L418 695 L427 694 L433 690 L437 690 L451 686 L455 686 L472 693 L479 692 L489 701 L488 707 L491 711 L491 714 L492 713 L494 715 L495 727 L500 734 L499 737 L494 739 L485 739 L474 733 L460 728 L459 726 L460 725 L463 727 L462 725 L445 719 L437 720 L428 723 L424 726 L417 728 L409 733 L401 734 L396 732 L416 715 L426 709 L445 704 L462 708 L474 714 L488 726 L492 734 L495 732 L477 714 L471 712 L463 707 L458 706 L455 704 L451 704 L448 702 L445 702 L441 704 L437 703 L433 706 L430 706 L423 709 L411 717 L405 723 L400 725 L393 733 L368 734 L365 736 L352 735 L345 740 L344 739 L343 740 L346 741 L353 736 L366 737 L369 735 L381 735 L382 734 L391 734 L396 737 L398 737 L399 735 L410 734 L414 731 L423 728 L431 723 L439 721 L447 721 L456 725 L455 726 L447 726 L446 727 L438 725 L430 727 L423 732 L411 737 L411 738 L420 735 L431 728 L435 728 L436 727 L442 727 L443 728 L442 730 L444 732 L457 733 L470 737 L470 736 L459 732 L447 732 L442 729 L443 728 L454 728 L457 727 L461 730 L471 733 L477 737 L487 741 L488 740 L500 739 L502 737 Z M368 684 L369 683 L370 684 L369 685 Z M369 681 L366 684 L361 693 L368 700 L376 700 L380 698 L381 699 L380 701 L381 707 L383 708 L391 708 L391 707 L385 707 L383 705 L385 701 L385 697 L379 691 L370 694 L368 696 L366 696 L363 693 L364 690 L367 687 L370 686 L371 683 Z M355 679 L353 679 L352 681 Z M631 695 L631 696 L635 694 L640 690 L643 692 L650 688 L649 687 L654 684 L658 684 L666 681 L681 680 L682 679 L696 679 L697 680 L714 682 L731 688 L748 696 L778 716 L768 707 L765 706 L751 696 L749 696 L739 690 L719 682 L707 679 L702 679 L701 678 L686 677 L685 678 L674 678 L673 679 L663 680 L644 686 L634 692 Z M591 667 L596 673 L597 676 L596 680 L588 673 Z M398 664 L390 669 L398 665 Z M511 662 L512 661 L513 662 L512 663 Z M826 648 L832 651 L841 653 L856 660 L863 665 L871 673 L877 681 L880 688 L882 690 L884 698 L886 701 L888 713 L887 714 L884 712 L878 698 L867 686 L864 686 L866 689 L865 702 L867 710 L864 714 L864 718 L867 723 L867 726 L866 727 L863 724 L860 724 L857 727 L857 733 L863 738 L864 737 L858 732 L859 731 L859 727 L862 725 L867 729 L869 728 L869 724 L866 718 L866 715 L869 710 L868 704 L866 702 L867 701 L867 690 L868 689 L870 693 L878 701 L882 712 L890 719 L891 734 L892 735 L892 752 L893 753 L892 763 L893 764 L893 768 L892 769 L892 782 L891 783 L891 792 L890 793 L890 800 L889 801 L885 849 L884 850 L882 885 L881 886 L881 891 L880 892 L879 890 L878 892 L880 898 L880 904 L877 905 L876 907 L875 919 L873 924 L875 932 L874 933 L874 944 L871 949 L871 957 L872 958 L871 963 L866 968 L864 975 L862 977 L855 978 L852 980 L851 983 L848 986 L843 986 L839 989 L836 981 L836 988 L838 991 L840 991 L845 987 L848 988 L854 981 L858 979 L864 978 L866 976 L868 968 L874 961 L873 949 L876 944 L877 945 L877 954 L876 955 L876 964 L875 965 L874 982 L873 983 L873 990 L872 991 L872 999 L871 1000 L870 1012 L869 1013 L865 1035 L856 1062 L849 1076 L842 1086 L830 1098 L822 1103 L807 1107 L794 1107 L793 1106 L784 1105 L781 1102 L788 1083 L788 1080 L791 1074 L793 1064 L796 1057 L796 1054 L804 1029 L812 997 L812 993 L815 984 L818 966 L820 961 L822 946 L824 940 L824 935 L825 934 L826 935 L826 939 L827 940 L831 941 L833 943 L834 947 L837 950 L839 950 L843 946 L846 938 L846 929 L840 925 L837 925 L833 921 L830 922 L830 924 L827 929 L827 933 L826 934 L825 933 L826 917 L827 916 L828 862 L829 861 L828 816 L827 815 L827 804 L826 803 L826 792 L825 791 L824 753 L823 752 L824 749 L824 729 L825 728 L825 686 L824 685 L823 649 Z M404 660 L404 661 L406 661 L420 655 L437 651 L442 651 L443 650 L464 650 L465 651 L470 651 L478 653 L490 658 L505 669 L515 684 L513 677 L503 665 L506 661 L510 663 L517 669 L515 671 L515 673 L519 672 L519 669 L512 658 L512 654 L508 651 L505 652 L505 656 L506 657 L510 657 L512 661 L511 662 L508 660 L505 660 L503 663 L501 663 L490 656 L483 653 L462 648 L446 648 L445 649 L429 651 L418 654 Z M708 625 L709 624 L711 626 L709 627 Z M280 624 L276 624 L271 627 L267 631 L267 636 L273 634 L273 633 L269 632 L272 629 L274 629 L276 626 L278 626 L280 628 L281 627 Z M268 620 L269 619 L270 620 L269 621 Z M269 619 L270 618 L271 619 L270 620 Z M758 618 L757 619 L758 624 L763 630 L764 634 L770 643 L769 650 L771 653 L771 656 L776 664 L776 669 L782 678 L781 679 L782 682 L779 688 L778 693 L782 698 L784 698 L789 705 L789 707 L792 710 L796 711 L801 716 L805 717 L807 715 L807 710 L803 703 L803 700 L799 691 L799 683 L791 664 L790 658 L780 642 L777 639 L776 636 L767 625 L764 625 L775 637 L789 660 L789 663 L797 682 L798 692 L802 704 L805 709 L805 714 L802 715 L797 710 L793 709 L790 706 L787 699 L780 694 L780 689 L783 684 L783 676 L778 670 L776 660 L772 655 L771 651 L772 644 L771 641 L765 633 L764 628 L761 626 L759 622 L760 620 L762 622 L762 620 L760 618 Z M270 618 L271 617 L272 618 L271 619 Z M271 617 L272 616 L273 617 L272 618 Z M268 616 L269 617 L264 622 L258 624 L255 627 L255 633 L253 637 L246 645 L247 651 L244 656 L243 661 L238 666 L238 669 L236 671 L233 671 L228 674 L226 671 L226 668 L229 665 L230 662 L228 658 L234 649 L236 640 L250 626 L251 622 L253 620 L261 616 Z M268 609 L283 609 L284 612 L283 613 L281 612 L275 616 L274 615 L259 615 L253 618 L250 621 L249 624 L244 628 L235 639 L233 643 L232 649 L227 656 L228 663 L225 667 L224 671 L227 676 L229 676 L233 673 L238 672 L239 667 L244 663 L246 656 L249 651 L248 645 L254 639 L257 633 L257 629 L256 628 L258 626 L264 624 L268 620 L270 622 L280 614 L283 615 L281 616 L281 618 L283 619 L282 651 L281 652 L279 649 L280 645 L279 632 L278 632 L278 646 L277 647 L279 653 L282 655 L283 667 L284 668 L283 679 L282 680 L281 679 L281 687 L283 688 L282 721 L283 722 L283 734 L284 735 L283 742 L284 740 L285 741 L285 749 L283 750 L283 754 L285 756 L285 763 L284 764 L284 774 L282 777 L280 775 L277 775 L274 779 L273 786 L274 790 L276 790 L275 789 L275 785 L280 779 L281 780 L281 782 L279 784 L279 788 L281 790 L281 797 L280 798 L278 797 L278 799 L283 801 L282 802 L283 803 L282 806 L282 820 L283 821 L284 878 L285 879 L285 893 L286 894 L286 904 L287 905 L287 916 L288 917 L288 926 L289 927 L289 936 L290 937 L292 957 L294 962 L299 989 L302 998 L302 1002 L311 1038 L318 1059 L323 1069 L320 1071 L314 1071 L313 1072 L295 1070 L289 1067 L286 1067 L272 1060 L261 1052 L252 1043 L244 1032 L236 1015 L231 998 L229 995 L214 935 L214 930 L213 929 L211 913 L210 912 L210 906 L209 905 L209 897 L208 896 L208 885 L207 884 L207 874 L206 873 L206 858 L205 857 L205 838 L204 837 L203 750 L204 749 L205 701 L206 700 L206 687 L207 686 L207 678 L208 677 L209 665 L211 657 L218 642 L223 634 L232 624 L253 613 Z M301 603 L304 603 L306 600 L307 601 L307 607 L301 620 L300 627 L298 629 L298 633 L296 639 L293 634 L293 631 L294 630 L294 623 L297 617 L297 613 L300 609 L300 606 L299 606 L292 625 L292 636 L296 642 L298 641 L300 643 L298 649 L298 660 L300 664 L300 670 L305 676 L307 676 L309 674 L314 663 L322 655 L326 648 L326 646 L328 644 L330 635 L332 633 L334 633 L336 635 L336 638 L339 640 L342 640 L347 637 L351 641 L350 648 L352 650 L360 649 L364 647 L367 643 L368 644 L370 643 L371 647 L369 652 L369 657 L371 660 L375 662 L371 657 L371 651 L373 644 L370 640 L370 638 L373 634 L376 638 L376 642 L379 646 L379 650 L381 653 L384 654 L386 658 L386 661 L384 665 L380 664 L371 670 L369 673 L370 674 L380 666 L386 667 L388 659 L385 652 L382 652 L380 650 L381 647 L377 641 L377 636 L373 631 L369 637 L369 641 L366 642 L361 647 L353 648 L352 647 L353 643 L350 636 L347 635 L341 639 L337 636 L337 632 L336 631 L332 631 L329 633 L328 639 L324 649 L321 652 L320 655 L313 662 L309 671 L306 674 L301 669 L301 662 L299 654 L301 647 L302 637 L301 637 L299 642 L298 638 L300 630 L302 628 L301 627 L302 626 L302 622 L308 608 L309 599 L306 598 L303 602 L302 601 Z M591 573 L594 574 L596 576 L597 580 L604 585 L614 584 L616 586 L614 589 L615 596 L611 600 L609 600 L602 605 L600 609 L600 612 L607 616 L607 621 L612 625 L613 629 L618 634 L611 643 L604 646 L602 648 L602 651 L600 653 L596 653 L592 656 L590 662 L591 667 L588 668 L587 670 L586 669 L585 659 L586 658 L586 649 L588 641 L576 628 L576 624 L571 618 L572 616 L577 616 L579 618 L583 619 L587 614 L587 610 L584 602 L580 598 L574 597 L575 598 L574 600 L571 597 L574 592 L573 583 L578 580 L586 579 L589 574 Z M590 571 L588 572 L587 576 L585 578 L581 579 L578 578 L571 582 L573 589 L570 597 L572 601 L576 601 L577 600 L581 601 L586 609 L585 615 L583 617 L581 617 L577 614 L571 614 L569 618 L574 624 L575 629 L586 641 L585 649 L584 650 L585 656 L583 660 L584 662 L584 669 L586 674 L589 675 L595 682 L597 681 L599 685 L604 708 L613 736 L613 740 L615 745 L615 749 L617 754 L617 758 L621 774 L621 779 L624 791 L624 801 L625 802 L624 811 L625 811 L626 808 L628 812 L626 817 L628 823 L633 831 L637 844 L637 857 L635 863 L630 868 L625 869 L619 861 L613 858 L605 856 L603 851 L600 848 L587 843 L580 844 L570 849 L557 852 L531 853 L524 856 L519 860 L509 859 L505 855 L502 847 L503 831 L507 819 L518 799 L520 801 L525 801 L534 795 L538 797 L546 797 L550 802 L555 805 L556 808 L555 818 L552 825 L548 828 L546 826 L537 824 L533 826 L533 830 L535 831 L537 826 L541 826 L546 828 L548 830 L548 833 L549 833 L549 830 L554 825 L557 817 L556 816 L557 814 L556 804 L546 795 L532 794 L525 799 L521 799 L520 800 L516 799 L511 807 L510 806 L511 791 L514 781 L514 777 L522 753 L522 749 L524 745 L528 728 L529 710 L530 709 L529 708 L529 702 L530 701 L530 679 L531 678 L530 669 L529 669 L527 717 L526 718 L525 732 L523 736 L520 752 L514 768 L512 780 L510 785 L507 811 L500 835 L500 847 L503 856 L507 860 L511 862 L520 862 L526 857 L531 855 L536 855 L537 854 L556 854 L574 849 L579 846 L589 845 L600 850 L602 855 L605 858 L614 860 L619 863 L623 870 L627 871 L633 868 L634 869 L633 871 L634 871 L637 868 L636 864 L639 858 L639 853 L640 852 L639 851 L639 844 L637 836 L633 827 L631 815 L627 804 L627 796 L624 784 L623 773 L621 768 L620 758 L618 753 L618 749 L613 728 L607 711 L604 696 L601 688 L601 684 L599 680 L599 675 L598 672 L593 666 L593 658 L596 655 L601 654 L606 647 L613 644 L619 636 L619 632 L609 620 L609 616 L606 613 L602 612 L603 607 L616 598 L617 596 L615 591 L618 587 L618 585 L615 582 L604 583 L598 578 L596 573 Z M674 561 L675 560 L676 562 L675 563 Z M505 527 L513 535 L513 537 L516 541 L516 544 L512 550 L512 553 L518 557 L525 564 L529 574 L537 581 L537 583 L534 586 L534 590 L535 591 L533 595 L527 595 L522 599 L521 598 L521 594 L517 589 L509 588 L508 587 L500 591 L499 590 L495 592 L493 595 L492 600 L486 606 L482 612 L478 624 L474 629 L465 624 L464 625 L455 626 L449 621 L435 618 L432 615 L432 611 L428 608 L428 603 L431 596 L431 585 L430 583 L439 568 L441 566 L445 565 L451 572 L461 578 L468 577 L472 573 L472 570 L470 568 L471 566 L471 558 L475 554 L477 550 L477 546 L482 543 L486 538 L489 538 L498 534 Z M506 526 L503 526 L495 534 L491 536 L485 537 L475 546 L475 551 L469 559 L468 567 L470 570 L470 573 L468 575 L460 576 L451 570 L444 563 L437 568 L429 581 L430 592 L426 604 L426 608 L430 612 L431 617 L433 619 L438 621 L447 622 L453 627 L463 627 L466 626 L474 631 L478 628 L479 624 L481 622 L483 614 L486 609 L493 602 L495 598 L495 595 L498 592 L503 592 L507 589 L515 590 L519 593 L519 598 L522 601 L528 596 L529 597 L534 597 L536 594 L536 586 L538 582 L531 574 L528 566 L524 560 L514 553 L514 550 L518 544 L518 541 L516 539 L514 533 L511 532 Z M656 516 L658 514 L660 514 L666 518 L672 518 L676 516 L680 519 L684 520 L688 524 L694 525 L697 530 L703 530 L709 534 L713 534 L716 537 L718 537 L715 534 L718 533 L722 528 L724 528 L728 532 L728 534 L725 539 L728 538 L729 535 L732 540 L738 546 L743 548 L751 548 L754 552 L753 558 L756 564 L754 568 L747 568 L744 571 L742 571 L740 568 L741 565 L740 560 L737 557 L729 554 L727 552 L725 546 L723 546 L726 554 L736 558 L739 561 L739 565 L738 566 L740 571 L739 573 L734 574 L731 572 L725 572 L724 571 L711 571 L700 564 L694 563 L686 555 L682 555 L677 558 L676 560 L674 559 L672 562 L674 563 L669 566 L667 569 L666 567 L671 560 L672 554 L671 550 L661 541 L660 538 L657 537 L660 535 L657 528 Z M657 513 L654 516 L654 518 L655 519 L655 527 L658 534 L652 538 L657 538 L669 550 L670 557 L668 562 L664 566 L664 569 L659 573 L658 577 L655 580 L649 582 L645 588 L637 591 L634 594 L635 597 L638 600 L636 594 L640 591 L645 590 L652 582 L657 581 L660 576 L660 574 L665 571 L666 568 L667 569 L667 576 L676 587 L683 590 L687 597 L691 601 L696 603 L699 602 L705 608 L709 606 L717 608 L723 613 L725 617 L721 627 L718 630 L715 630 L710 627 L711 626 L716 628 L716 626 L711 623 L708 623 L706 625 L707 627 L701 633 L700 637 L698 639 L695 639 L691 641 L687 645 L680 645 L677 643 L677 636 L675 632 L664 630 L658 624 L657 622 L657 615 L658 614 L657 610 L652 606 L647 607 L641 603 L639 603 L643 607 L653 608 L656 612 L655 616 L656 624 L662 631 L672 632 L675 635 L676 638 L675 644 L680 647 L688 647 L693 642 L699 641 L702 637 L702 634 L708 628 L716 632 L720 631 L723 628 L723 625 L725 623 L727 617 L724 611 L719 607 L716 607 L712 604 L708 604 L705 606 L699 600 L694 601 L691 599 L686 591 L683 588 L677 586 L668 575 L669 569 L673 565 L675 565 L681 557 L684 556 L692 563 L703 567 L709 572 L712 573 L725 573 L737 576 L750 569 L753 570 L756 569 L758 566 L758 563 L755 558 L756 552 L752 547 L744 547 L739 545 L734 540 L734 538 L729 532 L728 529 L724 526 L721 527 L714 533 L710 530 L707 531 L705 529 L698 529 L695 524 L689 523 L684 518 L682 518 L676 514 L673 513 L673 515 L671 517 L670 516 L668 517 L661 513 Z M302 497 L300 497 L299 499 L299 504 L300 505 L296 512 L295 524 L292 528 L292 540 L296 546 L293 537 L293 529 L297 523 L300 503 L302 499 L303 501 Z M585 459 L586 458 L587 459 L586 460 Z M587 456 L588 455 L589 456 L588 457 Z M495 456 L522 455 L523 454 L585 455 L586 456 L585 457 L581 458 L583 461 L589 461 L594 463 L613 466 L615 468 L611 471 L612 472 L608 474 L606 474 L604 472 L596 471 L595 470 L596 467 L593 469 L593 471 L596 473 L605 474 L607 476 L612 475 L612 473 L616 470 L616 467 L613 464 L590 460 L588 457 L589 456 L602 456 L603 457 L622 458 L623 459 L630 459 L631 460 L638 460 L644 462 L649 462 L674 468 L688 473 L695 474 L717 482 L755 502 L779 525 L782 530 L787 535 L796 549 L804 566 L812 590 L816 611 L817 612 L817 616 L818 617 L818 623 L820 629 L821 660 L822 661 L822 747 L821 748 L821 762 L822 763 L823 794 L824 795 L825 817 L826 818 L826 897 L825 898 L825 913 L824 914 L822 938 L821 939 L820 950 L819 951 L816 970 L814 975 L813 984 L809 991 L807 999 L801 1012 L795 1017 L793 1023 L791 1025 L790 1024 L789 1025 L787 1021 L785 1021 L781 1025 L772 1041 L772 1048 L765 1054 L763 1058 L763 1061 L757 1071 L757 1078 L752 1088 L753 1098 L751 1103 L745 1113 L743 1121 L734 1132 L732 1137 L728 1141 L725 1142 L722 1147 L714 1154 L711 1160 L701 1174 L691 1185 L686 1187 L680 1187 L679 1186 L678 1189 L670 1186 L664 1186 L660 1188 L656 1194 L648 1195 L637 1203 L632 1205 L627 1205 L624 1203 L630 1197 L627 1194 L608 1195 L604 1192 L608 1188 L615 1186 L620 1186 L623 1184 L631 1185 L634 1183 L640 1183 L643 1185 L647 1183 L653 1183 L661 1179 L665 1180 L668 1183 L676 1182 L675 1180 L669 1181 L666 1178 L659 1178 L651 1182 L642 1183 L639 1181 L635 1181 L631 1183 L624 1182 L618 1185 L611 1185 L607 1187 L603 1191 L604 1195 L609 1197 L624 1195 L628 1197 L623 1202 L624 1205 L619 1207 L610 1207 L609 1208 L581 1210 L580 1211 L568 1211 L567 1212 L537 1212 L536 1211 L528 1211 L517 1208 L508 1204 L502 1203 L490 1197 L482 1194 L479 1194 L472 1190 L470 1190 L460 1184 L444 1179 L440 1176 L438 1176 L419 1166 L383 1143 L368 1131 L348 1112 L337 1096 L331 1085 L313 1038 L305 1006 L305 1002 L303 997 L303 993 L300 983 L297 965 L295 960 L295 956 L294 955 L294 950 L292 943 L292 935 L291 934 L289 905 L288 904 L287 877 L286 876 L285 775 L286 774 L286 764 L287 763 L287 755 L286 754 L287 752 L287 738 L285 732 L285 724 L284 723 L283 711 L284 710 L284 698 L285 697 L285 662 L284 661 L285 616 L286 615 L286 609 L287 608 L287 603 L290 591 L296 577 L297 572 L309 549 L323 530 L346 507 L369 491 L387 482 L411 473 L415 473 L465 460 L485 458 L486 457 L494 457 Z M631 412 L631 413 L634 413 L634 411 Z M670 399 L673 396 L679 400 L675 401 Z M461 397 L425 409 L414 411 L399 418 L394 419 L388 422 L387 424 L403 418 L410 414 L413 414 L416 412 L423 411 L430 408 L433 408 L437 406 L453 402 L460 399 Z M641 391 L643 389 L647 388 L650 389 L654 387 L657 387 L659 389 L663 389 L666 392 L670 393 L671 396 L668 399 L659 396 L643 394 Z M587 381 L588 383 L591 383 L595 387 L594 388 L588 388 L588 389 L598 390 L603 395 L603 401 L600 408 L608 418 L619 417 L621 419 L625 420 L629 417 L633 417 L634 418 L635 416 L629 415 L625 418 L622 418 L620 416 L613 416 L612 417 L608 416 L602 408 L605 400 L605 395 L602 391 L603 390 L617 391 L618 392 L624 392 L625 391 L627 393 L635 394 L636 395 L635 398 L644 404 L644 406 L637 410 L637 412 L642 410 L646 406 L646 404 L642 400 L643 397 L640 400 L637 398 L637 396 L639 394 L667 400 L668 401 L667 405 L668 409 L674 413 L678 418 L680 419 L688 419 L697 425 L697 433 L694 446 L698 454 L698 457 L707 470 L707 468 L700 457 L696 447 L696 442 L699 429 L698 428 L698 424 L694 420 L689 418 L686 414 L685 414 L687 416 L685 418 L679 417 L676 412 L669 408 L669 404 L671 401 L680 404 L678 410 L681 405 L684 404 L704 412 L715 415 L729 423 L737 429 L744 432 L757 443 L763 446 L782 466 L793 481 L796 483 L783 465 L762 444 L751 435 L730 423 L719 415 L682 402 L678 397 L664 388 L661 388 L656 385 L654 385 L651 387 L642 388 L637 393 L636 392 L623 391 L622 390 L602 389 L601 388 L600 389 L594 383 Z M677 337 L680 335 L686 335 L691 332 L695 332 L702 335 L709 335 L716 340 L718 340 L721 343 L720 350 L727 358 L729 362 L728 368 L725 369 L724 374 L723 375 L715 374 L707 369 L704 363 L694 354 L689 351 L685 351 L679 347 L675 342 Z M674 339 L675 345 L684 352 L693 355 L703 364 L704 368 L712 374 L719 377 L723 376 L731 365 L730 360 L722 351 L723 348 L722 341 L714 337 L709 333 L705 334 L692 330 L684 334 L678 334 Z M349 315 L350 314 L351 316 L350 317 Z M350 314 L351 313 L352 314 L351 315 Z M313 300 L310 303 L311 305 L312 304 L313 305 L312 313 L310 319 L307 322 L305 320 L305 318 L308 310 L306 311 L303 319 L306 323 L302 329 L302 332 L308 340 L308 343 L310 347 L315 348 L317 346 L320 351 L325 350 L328 355 L332 355 L339 348 L342 343 L342 341 L348 329 L349 325 L348 319 L356 313 L360 314 L360 316 L363 319 L364 322 L365 344 L362 353 L362 358 L359 366 L359 372 L362 380 L367 386 L367 390 L364 395 L363 403 L361 408 L353 416 L347 429 L347 434 L346 435 L347 447 L346 449 L320 470 L320 473 L318 475 L316 481 L310 487 L306 489 L302 493 L303 494 L315 485 L319 478 L320 472 L325 467 L327 467 L333 461 L347 451 L350 447 L371 435 L380 428 L376 429 L351 445 L348 442 L348 433 L353 419 L364 406 L365 399 L369 390 L368 384 L364 380 L361 372 L361 366 L364 358 L364 353 L367 344 L367 327 L364 317 L360 314 L359 311 L354 312 L352 314 L351 313 L351 309 L350 309 L349 313 L347 307 L343 307 L339 304 L337 304 L340 308 L345 308 L346 309 L347 313 L346 323 L347 325 L346 329 L344 331 L344 334 L340 340 L340 343 L334 352 L330 354 L326 348 L325 349 L321 349 L319 344 L317 344 L316 346 L313 347 L310 344 L306 334 L303 331 L304 327 L309 325 L309 322 L314 311 L314 307 L315 306 Z M327 285 L324 287 L324 289 L329 286 L332 287 L331 298 L335 302 L335 299 L332 295 L334 291 L334 286 L333 285 Z M517 255 L518 254 L520 255 L519 256 Z M515 254 L516 253 L518 254 L517 255 Z M786 216 L787 215 L788 216 L787 217 Z M336 202 L353 187 L366 180 L381 174 L410 165 L414 166 L403 171 L397 176 L405 171 L409 170 L419 164 L435 163 L436 164 L450 164 L451 165 L462 165 L463 166 L472 166 L473 167 L506 169 L507 170 L514 170 L522 172 L529 172 L530 173 L538 173 L545 175 L558 176 L559 177 L577 179 L584 181 L590 181 L591 182 L606 183 L607 184 L636 188 L642 190 L671 194 L677 196 L682 196 L683 197 L688 197 L689 198 L694 198 L695 199 L700 199 L701 200 L706 200 L707 201 L712 201 L713 202 L718 202 L719 203 L731 204 L737 206 L743 206 L749 208 L755 208 L767 211 L772 211 L779 213 L786 218 L785 222 L780 227 L763 240 L746 249 L711 262 L707 262 L698 265 L684 266 L669 270 L653 271 L652 272 L622 273 L621 272 L596 271 L595 270 L588 270 L587 269 L582 269 L577 267 L572 267 L567 265 L559 264 L542 258 L516 252 L495 244 L474 233 L456 218 L442 208 L443 207 L442 206 L440 206 L429 199 L423 197 L415 192 L389 180 L395 176 L388 178 L389 182 L412 193 L417 194 L421 198 L426 199 L439 207 L444 212 L460 223 L464 227 L463 228 L464 230 L474 234 L478 238 L491 243 L498 248 L500 248 L518 257 L524 262 L526 262 L529 265 L529 268 L535 276 L536 279 L544 287 L557 294 L567 294 L572 298 L574 298 L583 303 L588 303 L593 300 L601 298 L605 299 L613 309 L617 310 L621 314 L625 322 L624 329 L621 331 L620 335 L616 339 L608 343 L603 343 L599 340 L594 339 L588 343 L582 343 L577 345 L575 347 L572 354 L563 361 L557 363 L554 363 L550 361 L545 361 L534 366 L529 371 L526 372 L519 380 L519 385 L523 388 L522 389 L500 391 L499 392 L493 392 L492 393 L486 393 L478 395 L470 395 L467 396 L468 397 L482 396 L488 394 L496 394 L497 393 L519 391 L520 390 L533 390 L537 394 L542 394 L543 393 L549 393 L555 389 L559 389 L560 390 L566 389 L567 388 L565 387 L568 384 L571 383 L581 383 L583 381 L585 381 L583 380 L579 382 L570 382 L567 383 L561 388 L556 386 L551 388 L552 389 L547 392 L544 391 L537 392 L535 390 L538 389 L538 388 L526 388 L521 385 L521 380 L527 373 L530 372 L538 365 L541 365 L547 362 L552 364 L559 364 L566 361 L573 355 L574 350 L577 347 L580 347 L581 345 L587 345 L594 341 L597 341 L601 344 L609 344 L614 341 L616 341 L621 337 L622 333 L627 326 L627 322 L622 312 L619 309 L613 307 L610 304 L608 299 L604 297 L597 297 L588 301 L584 301 L572 296 L567 292 L563 292 L562 293 L561 292 L557 292 L544 285 L532 270 L529 262 L521 258 L519 256 L520 255 L531 257 L535 259 L539 259 L545 262 L560 265 L568 268 L584 270 L590 272 L596 272 L597 273 L613 273 L614 274 L649 274 L650 273 L659 273 L660 272 L667 272 L680 269 L686 269 L691 267 L702 266 L726 259 L735 254 L738 254 L741 252 L746 251 L769 238 L779 229 L784 226 L787 221 L787 217 L788 216 L796 221 L802 228 L810 242 L820 271 L821 278 L823 282 L830 310 L831 319 L833 324 L834 334 L837 345 L838 358 L839 359 L839 369 L840 370 L840 403 L839 404 L839 419 L838 420 L838 434 L837 435 L834 509 L833 510 L832 539 L831 540 L831 550 L830 551 L828 592 L827 593 L826 610 L825 611 L823 629 L822 630 L821 629 L819 611 L812 582 L810 579 L808 570 L803 560 L803 558 L801 556 L801 554 L788 533 L780 523 L762 505 L735 488 L733 488 L720 481 L710 478 L708 476 L709 474 L708 472 L705 475 L702 475 L700 473 L702 470 L698 473 L695 473 L678 467 L649 460 L631 458 L630 457 L623 457 L622 456 L615 456 L614 455 L592 454 L591 453 L574 453 L573 452 L524 452 L523 453 L495 454 L494 455 L465 458 L408 472 L394 477 L365 491 L343 507 L324 526 L307 549 L297 568 L296 567 L296 556 L297 555 L297 551 L296 550 L295 553 L296 559 L294 562 L294 566 L296 571 L289 588 L289 591 L287 594 L285 606 L282 607 L281 606 L281 590 L280 589 L279 569 L278 568 L277 548 L276 547 L276 537 L275 536 L275 526 L274 525 L271 464 L270 463 L270 447 L269 446 L269 406 L270 405 L271 389 L272 388 L274 373 L277 364 L277 360 L279 356 L283 338 L286 331 L289 318 L294 305 L294 302 L299 289 L302 276 L304 273 L304 270 L312 246 L323 221 Z M409 163 L378 173 L356 183 L344 191 L330 206 L320 222 L310 246 L285 323 L284 330 L280 340 L279 347 L277 351 L273 367 L273 371 L269 386 L268 400 L267 401 L266 431 L267 432 L267 454 L268 455 L268 472 L269 473 L269 485 L270 486 L270 501 L271 502 L273 541 L274 542 L277 582 L278 583 L279 606 L278 607 L277 606 L265 607 L257 610 L254 610 L240 617 L238 617 L232 621 L221 633 L210 653 L206 667 L205 680 L204 681 L204 694 L203 695 L203 706 L202 707 L202 728 L201 729 L201 819 L202 820 L202 846 L203 847 L204 879 L205 880 L205 890 L206 891 L208 914 L209 915 L212 936 L214 941 L214 945 L217 954 L217 958 L221 974 L236 1021 L242 1033 L251 1045 L260 1054 L268 1060 L288 1070 L301 1074 L315 1074 L323 1072 L325 1074 L329 1086 L336 1099 L358 1128 L380 1150 L388 1156 L397 1165 L411 1176 L423 1183 L453 1195 L462 1197 L481 1204 L489 1205 L511 1211 L531 1213 L532 1214 L544 1214 L545 1215 L594 1212 L595 1211 L603 1211 L604 1210 L611 1210 L619 1208 L621 1209 L622 1208 L633 1208 L634 1207 L651 1205 L671 1199 L684 1198 L708 1190 L721 1184 L738 1173 L750 1162 L758 1153 L769 1137 L775 1125 L779 1109 L781 1106 L793 1109 L810 1109 L820 1106 L832 1099 L845 1086 L857 1065 L866 1040 L871 1020 L872 1010 L873 1009 L873 1002 L874 1001 L874 994 L875 993 L876 978 L877 977 L879 949 L880 948 L880 936 L881 935 L881 925 L882 924 L882 906 L883 905 L883 893 L884 892 L884 879 L885 878 L885 866 L886 865 L886 858 L887 857 L887 844 L888 843 L890 813 L891 812 L891 804 L892 803 L893 786 L894 785 L894 774 L895 773 L894 729 L893 728 L893 722 L892 721 L890 707 L885 691 L880 681 L875 674 L863 662 L852 655 L850 655 L843 651 L823 645 L823 639 L824 638 L826 621 L827 620 L827 611 L828 610 L828 603 L829 602 L829 595 L830 594 L830 583 L831 582 L831 572 L832 571 L833 543 L834 542 L835 515 L836 514 L836 501 L837 500 L839 443 L840 442 L841 412 L842 411 L842 366 L841 365 L841 357 L840 356 L840 350 L839 349 L839 344 L838 343 L838 338 L837 337 L833 313 L829 300 L829 296 L824 276 L816 251 L808 233 L798 220 L793 216 L783 211 L775 209 L770 209 L769 208 L764 208 L763 207 L756 207 L740 203 L720 201 L719 200 L714 200 L702 197 L696 197 L695 196 L690 196 L689 195 L684 195 L671 192 L665 192 L664 191 L654 190 L642 187 L623 185 L612 182 L599 181 L587 178 L581 178 L580 177 L574 177 L567 175 L533 171 L526 169 L515 169 L514 168 L507 168 L506 167 L486 166 L478 164 L466 164 L465 163 L440 162 L439 161 L418 161 L417 162 Z" fill="#eef3f4" fill-rule="evenodd"/>
</svg>
