<svg xmlns="http://www.w3.org/2000/svg" width="1086" height="1448" viewBox="0 0 1086 1448">
  <title>0349</title>
  <path d="M268 1015 L269 1016 L273 1015 Z M623 973 L620 973 L612 976 L618 976 Z M859 971 L860 970 L863 971 L865 975 L864 976 Z M582 968 L583 967 L587 968 L586 969 Z M442 950 L443 949 L444 950 L443 951 Z M820 949 L825 961 L826 960 L823 951 Z M655 949 L654 949 L653 954 L647 965 L635 977 L630 980 L614 986 L601 988 L600 989 L587 990 L586 991 L576 991 L575 992 L559 992 L558 993 L512 992 L511 991 L502 991 L501 990 L493 990 L492 989 L475 987 L466 984 L447 973 L437 962 L432 950 L431 952 L435 962 L442 971 L459 983 L475 989 L491 991 L492 992 L499 992 L500 993 L509 993 L510 994 L562 995 L563 994 L577 994 L578 993 L588 993 L589 992 L601 991 L626 984 L637 978 L648 967 L653 958 Z M607 944 L608 943 L609 944 L608 945 Z M610 943 L611 942 L614 943 L613 944 Z M613 942 L614 941 L617 942 L616 943 Z M567 944 L568 943 L580 942 L581 941 L592 941 L598 943 L597 944 L586 944 L585 945 L577 945 L576 946 L568 945 Z M616 941 L617 940 L619 941 L618 942 Z M619 940 L620 939 L621 940 L620 941 Z M621 939 L622 938 L623 939 L622 940 Z M469 938 L472 937 L487 941 L515 944 L516 945 L554 945 L555 946 L554 947 L538 947 L537 948 L515 947 L508 949 L503 947 L492 947 L491 946 L481 945 L476 943 Z M467 937 L468 936 L470 937 L469 938 Z M260 931 L259 932 L258 947 L260 945 Z M442 929 L443 928 L455 934 L457 934 L479 947 L492 950 L500 949 L506 951 L513 951 L519 949 L526 949 L527 950 L542 950 L543 949 L551 950 L559 948 L572 948 L576 949 L584 947 L607 948 L622 943 L636 933 L644 931 L645 934 L644 935 L643 944 L636 962 L633 965 L626 968 L611 968 L610 967 L600 967 L599 966 L592 966 L591 965 L568 965 L567 964 L554 963 L547 961 L535 961 L534 962 L527 962 L526 963 L514 963 L513 962 L465 963 L464 962 L460 962 L453 959 L447 952 L444 944 Z M640 928 L641 927 L642 928 L641 929 Z M436 924 L441 927 L440 928 L440 938 L443 947 L442 950 L437 942 L435 935 L435 925 Z M525 920 L526 919 L527 920 L526 921 Z M521 919 L522 918 L525 919 L524 920 Z M519 918 L520 917 L522 918 L521 919 Z M517 917 L518 916 L520 917 L519 918 Z M554 916 L551 919 L543 920 L542 921 L532 920 L528 918 L529 917 L540 917 L541 916 L548 916 L549 915 L553 915 Z M432 910 L436 908 L442 908 L443 909 L459 910 L460 911 L473 911 L474 912 L494 913 L495 914 L506 915 L529 923 L548 922 L554 920 L566 919 L571 917 L581 916 L582 915 L589 915 L596 913 L629 913 L630 914 L644 914 L645 915 L638 918 L632 918 L631 919 L625 919 L617 921 L609 921 L608 922 L601 922 L600 923 L586 924 L585 925 L513 925 L512 924 L491 921 L482 918 L475 918 L474 919 L459 918 L442 913 L438 913 Z M555 917 L559 914 L586 906 L601 906 L602 907 L613 908 L618 910 L617 911 L600 911 L599 912 L584 913 L583 914 L568 916 L562 918 L556 918 Z M420 905 L422 903 L426 903 L433 906 L431 908 L429 908 L428 910 L436 914 L449 916 L457 919 L467 920 L468 921 L473 921 L480 919 L487 921 L489 924 L501 927 L511 927 L512 926 L514 927 L563 927 L564 928 L570 928 L578 930 L579 929 L590 929 L591 928 L596 928 L608 925 L617 925 L637 920 L649 915 L651 917 L646 922 L628 934 L606 942 L600 942 L592 939 L581 939 L580 940 L573 940 L560 943 L513 942 L512 941 L497 940 L496 939 L490 939 L489 938 L475 936 L450 928 L432 919 L425 913 Z M457 908 L458 907 L469 906 L474 904 L491 902 L499 904 L507 908 L518 916 L515 917 L500 911 L494 911 L493 910 L485 911 L484 910 L468 910 L467 909 L458 909 Z M599 859 L596 860 L590 865 L593 864 Z M486 856 L487 855 L488 856 L487 857 Z M485 845 L487 848 L487 855 L486 856 L483 851 L483 847 Z M529 845 L530 844 L531 845 L530 846 Z M485 845 L486 844 L487 845 L486 846 Z M551 843 L552 844 L550 846 L548 852 L550 857 L550 861 L549 862 L545 858 L544 854 L543 854 L544 859 L548 863 L547 864 L536 865 L532 863 L531 861 L533 857 L533 852 L530 846 L531 845 L542 846 Z M594 843 L595 842 L596 843 L595 844 Z M489 845 L492 841 L503 838 L508 838 L515 840 L522 844 L526 848 L526 851 L519 859 L510 863 L500 863 L495 861 L490 856 Z M558 841 L570 837 L581 838 L590 842 L593 846 L592 852 L587 860 L581 865 L576 867 L565 866 L558 862 L554 858 L551 852 L552 847 Z M599 843 L592 838 L587 838 L584 836 L576 835 L575 834 L564 835 L549 842 L542 844 L531 844 L528 842 L522 841 L515 837 L505 835 L504 836 L495 837 L483 843 L481 847 L481 853 L486 860 L500 866 L510 866 L520 861 L525 861 L528 856 L528 853 L530 849 L532 856 L529 860 L529 862 L536 867 L544 867 L552 862 L554 862 L563 868 L575 870 L584 866 L592 858 L596 848 L595 844 L596 843 L599 845 Z M472 813 L470 819 L471 826 L472 826 L472 815 L473 814 Z M606 804 L607 810 L610 815 L612 823 L611 834 L607 842 L609 842 L613 834 L614 826 L608 807 Z M491 767 L492 766 L493 767 L492 768 Z M581 760 L579 760 L579 761 L589 770 L606 794 L613 808 L616 817 L616 821 L617 822 L616 835 L610 848 L603 856 L607 854 L615 844 L616 845 L617 850 L628 868 L639 881 L653 906 L654 912 L653 913 L647 913 L639 911 L632 911 L631 910 L621 909 L604 905 L583 905 L569 910 L556 913 L542 914 L541 915 L523 915 L519 914 L513 911 L510 908 L494 901 L482 901 L462 906 L441 906 L428 902 L422 902 L421 901 L425 898 L437 880 L446 869 L452 859 L458 852 L461 845 L461 842 L463 839 L461 841 L456 852 L452 856 L418 904 L419 912 L422 915 L426 916 L429 920 L434 923 L433 924 L433 937 L437 947 L451 962 L453 962 L465 969 L487 975 L494 975 L495 976 L513 976 L517 975 L518 976 L551 977 L552 978 L559 978 L560 977 L563 979 L577 979 L578 980 L596 980 L599 978 L575 978 L574 977 L559 977 L558 976 L550 976 L549 975 L519 974 L518 973 L508 973 L507 972 L497 972 L496 971 L478 971 L474 969 L467 968 L464 966 L465 965 L509 965 L510 966 L553 968 L554 969 L576 970 L577 971 L626 971 L634 968 L640 963 L641 957 L646 944 L647 933 L648 932 L647 930 L653 925 L652 924 L645 928 L641 927 L647 923 L654 916 L655 914 L655 906 L645 887 L629 866 L619 850 L616 841 L619 833 L619 820 L616 812 L616 809 L611 798 L595 774 Z M506 759 L504 759 L493 767 L492 766 L491 767 L492 768 L481 780 L474 790 L465 809 L463 817 L463 833 L468 845 L476 853 L477 853 L470 844 L471 842 L470 843 L468 841 L465 831 L466 814 L470 803 L481 784 L488 775 L496 767 L505 761 Z M318 754 L319 753 L320 754 L319 755 Z M319 753 L320 752 L321 753 L320 754 Z M331 750 L332 749 L333 750 L332 751 Z M333 749 L334 748 L336 749 L335 750 Z M335 748 L336 747 L338 748 L337 749 Z M761 746 L762 745 L763 746 L762 747 Z M759 745 L760 744 L761 745 L760 746 Z M757 744 L758 743 L760 744 L759 745 Z M755 743 L756 742 L758 743 L757 744 Z M193 743 L194 742 L195 744 L194 745 Z M194 742 L195 740 L199 738 L208 738 L209 739 L208 740 L202 740 L195 743 Z M742 737 L743 736 L745 737 L744 738 Z M890 734 L891 733 L892 735 L891 736 Z M384 733 L377 736 L374 736 L371 738 L355 742 L340 748 L337 747 L339 745 L342 745 L355 739 L360 738 L363 735 L364 736 L368 736 L378 732 L383 732 Z M867 727 L868 726 L880 726 L886 728 L891 733 L890 734 L888 732 L880 729 L875 729 L874 728 L869 728 L868 729 Z M349 723 L350 724 L350 728 L349 729 L349 737 L350 738 L345 740 L344 736 Z M459 723 L460 722 L463 723 L462 724 Z M463 722 L464 721 L465 722 L464 723 Z M349 722 L350 721 L351 722 L350 723 Z M737 719 L738 720 L737 724 L736 723 Z M722 720 L723 719 L724 720 L723 721 Z M436 720 L429 719 L428 720 L419 721 L419 722 Z M765 718 L775 733 L789 750 L793 753 L791 749 L779 736 L769 721 Z M736 714 L737 715 L736 718 L735 717 Z M734 711 L735 710 L736 712 L735 713 Z M350 710 L351 712 L343 732 L342 742 L340 744 L336 745 L321 753 L320 752 L327 744 Z M350 709 L351 708 L352 710 L351 711 Z M611 708 L613 707 L619 711 L618 710 L620 709 L627 713 L643 717 L664 719 L676 722 L698 724 L705 726 L711 726 L716 728 L728 730 L743 736 L740 737 L727 732 L722 732 L718 730 L694 727 L693 726 L628 720 L621 717 Z M351 708 L352 707 L353 708 L352 709 Z M610 707 L611 706 L612 707 L611 708 Z M616 706 L617 705 L618 706 L617 707 Z M609 706 L610 705 L611 706 L610 707 Z M613 704 L615 702 L617 705 L615 706 Z M484 696 L485 699 L482 705 L478 698 Z M389 694 L390 695 L382 703 L376 713 L367 722 L363 731 L359 735 L353 737 L352 736 L353 721 L360 700 L362 698 L374 695 Z M364 694 L365 693 L366 694 L365 695 Z M483 691 L485 690 L486 692 L484 693 Z M729 690 L730 689 L731 690 L730 691 Z M728 688 L729 687 L730 689 L729 690 Z M501 688 L500 688 L500 694 L499 695 L499 710 L498 711 L498 722 L497 723 L497 733 L496 734 L496 743 L494 751 L494 759 L497 748 L499 724 L500 723 Z M727 687 L728 686 L729 687 L728 688 Z M467 687 L468 686 L473 687 L482 694 L478 696 Z M726 685 L727 684 L728 686 L727 687 Z M725 684 L726 683 L727 684 L726 685 Z M405 684 L406 683 L407 684 L406 685 Z M407 683 L408 682 L409 683 L408 684 Z M408 682 L409 681 L411 682 L410 683 Z M410 681 L411 680 L413 681 L412 682 Z M678 680 L679 679 L681 680 L680 681 Z M480 708 L472 717 L460 721 L437 723 L429 725 L410 726 L409 727 L398 728 L390 731 L385 730 L366 735 L364 734 L371 721 L378 715 L383 706 L398 691 L410 684 L420 681 L436 679 L437 680 L443 680 L444 681 L448 681 L451 683 L454 683 L470 692 L478 701 L478 704 Z M413 680 L414 679 L416 680 L415 681 Z M405 680 L406 679 L407 680 L406 681 Z M676 679 L677 678 L679 679 L678 680 Z M416 679 L417 678 L420 679 L419 680 Z M674 678 L675 677 L677 678 L676 679 Z M441 678 L442 677 L443 678 L442 679 Z M419 678 L420 677 L424 677 L425 678 L424 679 L420 679 Z M425 677 L426 676 L438 676 L439 677 L438 678 L426 678 Z M618 697 L626 688 L632 684 L640 681 L647 676 L653 674 L669 674 L675 677 L674 678 L667 676 L661 676 L661 677 L674 680 L684 685 L691 690 L701 699 L705 705 L725 727 L723 728 L713 725 L633 713 L627 711 L619 706 L617 702 L618 701 Z M487 674 L488 673 L489 674 L488 675 Z M486 672 L487 671 L488 672 L487 673 Z M689 669 L693 669 L698 671 L718 685 L726 694 L734 721 L734 728 L733 729 L724 722 L726 720 L726 718 L719 716 L712 709 L702 696 L689 685 L687 680 L687 672 Z M705 669 L706 668 L707 669 L706 670 Z M407 670 L407 672 L400 685 L394 691 L376 692 L370 694 L366 694 L365 693 L379 678 L388 672 L398 668 L405 668 Z M687 665 L688 664 L689 665 L688 666 Z M387 665 L388 664 L389 665 L388 666 Z M451 666 L456 663 L465 663 L473 665 L478 668 L489 681 L488 687 L487 688 L479 688 L477 686 L471 684 L457 682 L452 676 L450 671 Z M388 664 L389 663 L390 664 L389 665 Z M686 663 L687 662 L688 663 L687 664 Z M449 663 L450 662 L451 663 L450 664 Z M389 663 L390 662 L391 663 L390 664 Z M638 663 L641 666 L641 674 L637 679 L625 685 L617 693 L615 698 L610 702 L604 694 L602 678 L604 674 L611 667 L623 661 Z M450 662 L451 661 L452 662 L451 663 Z M390 662 L391 661 L393 662 L392 663 Z M471 661 L472 660 L473 661 L472 662 Z M470 660 L471 659 L472 660 L471 661 Z M619 659 L620 658 L621 659 L620 660 Z M468 659 L469 658 L471 659 L470 660 Z M411 659 L408 662 L407 666 L399 664 L409 658 Z M634 658 L635 657 L641 658 L644 661 L644 663 L643 664 L640 661 Z M620 658 L621 657 L623 658 L622 659 Z M406 679 L410 672 L409 663 L415 659 L423 658 L424 657 L444 657 L445 659 L442 662 L442 664 L448 659 L450 660 L447 664 L447 670 L448 674 L450 676 L449 677 L445 676 L444 674 L441 673 L442 674 L441 675 L427 674 L426 675 L416 676 L408 680 Z M411 658 L412 657 L413 658 L412 659 Z M645 659 L648 657 L653 657 L654 656 L666 656 L682 661 L687 667 L684 671 L684 678 L685 680 L684 681 L681 678 L672 673 L663 672 L662 671 L653 672 L645 675 L644 673 L647 664 Z M622 657 L623 656 L624 657 L623 658 Z M472 657 L473 656 L474 657 L473 658 Z M700 656 L701 655 L702 656 L701 657 Z M674 656 L675 655 L676 656 L675 657 Z M642 656 L643 655 L645 656 L644 657 Z M623 656 L624 655 L625 656 L624 657 Z M471 656 L472 655 L473 656 L472 657 Z M698 655 L699 654 L701 655 L700 656 Z M644 655 L645 654 L648 655 L647 656 Z M470 655 L471 654 L472 655 L471 656 Z M697 654 L698 653 L699 654 L698 655 Z M647 654 L648 653 L654 653 L655 654 L654 655 L648 655 Z M469 654 L470 653 L471 654 L470 655 Z M695 653 L696 652 L697 653 L696 654 Z M467 653 L468 652 L469 653 L468 654 Z M693 652 L694 651 L696 652 L695 653 Z M411 652 L394 662 L392 661 L395 658 L405 652 L408 651 Z M692 651 L693 650 L694 651 L693 652 Z M410 651 L411 650 L414 651 L413 652 Z M690 650 L691 649 L692 650 L691 651 Z M413 650 L414 649 L417 650 L416 651 Z M688 649 L689 648 L690 649 L689 650 Z M686 648 L687 647 L688 648 L687 649 Z M457 648 L458 647 L459 648 L458 649 Z M684 647 L685 646 L686 647 L685 648 Z M626 655 L635 650 L644 647 L666 646 L667 647 L672 647 L685 652 L697 660 L706 668 L704 669 L699 666 L695 666 L694 665 L692 666 L690 664 L690 662 L686 658 L676 653 L667 652 L666 651 L648 651 L630 657 L628 657 Z M418 649 L424 647 L434 647 L435 646 L437 647 L445 647 L461 652 L469 658 L467 659 L456 654 L440 652 L439 651 L419 652 Z M682 646 L683 645 L684 646 L683 647 Z M442 644 L443 643 L444 644 L443 645 Z M425 644 L426 643 L429 644 L428 645 Z M643 643 L644 642 L645 643 L644 644 Z M668 642 L669 641 L670 642 L669 643 Z M646 642 L647 641 L651 642 L650 643 Z M654 641 L655 640 L662 640 L663 641 L662 642 L655 642 Z M599 674 L599 684 L604 702 L613 713 L624 720 L630 722 L650 723 L651 724 L660 724 L661 725 L669 725 L670 726 L683 726 L684 727 L690 727 L691 728 L697 728 L705 730 L712 730 L728 734 L748 742 L751 742 L744 738 L747 737 L756 742 L753 743 L753 744 L771 753 L784 763 L784 761 L770 750 L767 746 L754 739 L751 736 L745 735 L738 731 L740 728 L740 718 L736 705 L730 692 L731 690 L774 748 L779 752 L743 697 L729 678 L708 657 L698 650 L684 643 L665 638 L652 638 L636 642 L624 648 L615 655 L606 665 L603 672 L601 674 Z M515 626 L515 630 L514 631 L514 696 L513 697 L513 711 L512 712 L512 728 L511 729 L510 751 L512 746 L512 736 L513 735 L513 726 L514 725 L514 712 L515 711 L515 697 L516 696 L516 627 Z M354 626 L355 625 L356 627 L355 628 Z M466 635 L459 629 L446 624 L442 624 L441 623 L424 623 L409 627 L399 632 L378 649 L364 666 L364 668 L350 685 L348 691 L334 710 L319 734 L310 746 L303 753 L301 758 L318 738 L356 681 L372 659 L382 648 L395 637 L409 629 L423 625 L442 625 L453 628 Z M609 650 L613 647 L616 642 L621 637 L630 631 L643 626 L653 625 L654 624 L669 624 L689 629 L702 636 L717 649 L737 676 L738 679 L756 704 L757 707 L763 713 L731 664 L722 652 L709 639 L699 632 L689 627 L680 624 L668 623 L667 622 L656 622 L655 623 L643 624 L632 628 L621 635 L616 640 Z M725 618 L728 622 L726 618 Z M575 616 L573 623 L573 631 L571 637 L571 652 L570 653 L571 655 L570 659 L570 715 L571 716 L572 741 L575 753 L574 733 L573 732 L573 718 L572 717 L572 653 L573 652 L573 633 L574 632 L574 626 L576 618 Z M804 602 L805 603 L805 608 L804 609 L803 608 L803 603 Z M495 604 L493 603 L493 605 L497 612 L501 627 L501 652 L500 653 L500 658 L498 661 L498 664 L493 678 L489 669 L485 666 L487 670 L486 672 L473 658 L475 657 L481 663 L480 660 L474 654 L459 645 L446 641 L438 641 L437 640 L418 642 L408 645 L398 650 L388 657 L366 679 L351 699 L348 705 L333 726 L320 748 L313 757 L298 771 L298 773 L314 760 L316 761 L326 755 L341 749 L373 738 L380 737 L395 731 L403 729 L407 729 L408 730 L403 732 L405 731 L418 731 L426 729 L418 729 L417 730 L409 730 L408 729 L409 728 L428 727 L429 726 L452 724 L453 723 L459 723 L460 724 L441 729 L447 729 L466 724 L473 720 L477 716 L479 716 L483 712 L485 708 L485 704 L489 696 L491 685 L495 679 L499 667 L500 668 L500 682 L502 680 L503 627 L500 614 Z M378 600 L380 598 L381 599 L380 601 Z M803 595 L804 596 L804 600 L803 601 L802 600 L802 596 Z M802 590 L803 591 L802 594 L801 593 Z M801 584 L802 585 L801 588 L800 587 Z M799 582 L800 581 L801 583 L800 584 Z M687 583 L675 577 L664 574 L645 574 L644 575 L636 576 L622 582 L613 588 L603 597 L596 607 L587 628 L586 638 L585 639 L585 650 L584 651 L585 732 L586 733 L587 756 L589 762 L590 762 L590 760 L589 759 L589 750 L588 749 L587 701 L586 700 L586 651 L587 650 L587 639 L588 638 L589 628 L597 609 L603 600 L613 590 L620 585 L635 578 L643 576 L649 576 L650 575 L659 575 L660 576 L665 576 L673 578 L689 586 L705 598 L724 616 L703 594 Z M577 607 L577 609 L578 609 L583 597 L591 585 L601 575 L612 567 L627 560 L635 558 L642 558 L643 557 L661 558 L679 564 L699 577 L722 601 L734 619 L742 636 L744 636 L738 622 L728 606 L717 592 L704 579 L686 566 L671 559 L660 556 L650 556 L649 555 L637 556 L625 559 L612 565 L593 580 L581 597 Z M512 603 L508 593 L501 582 L493 573 L481 564 L471 559 L457 555 L450 555 L449 554 L431 555 L414 560 L404 565 L389 576 L369 597 L356 617 L348 637 L350 636 L354 627 L355 630 L365 618 L364 617 L356 626 L355 625 L356 621 L364 609 L375 601 L378 600 L379 601 L370 611 L372 610 L389 593 L397 587 L407 581 L421 575 L429 574 L430 573 L449 573 L463 577 L471 581 L479 587 L492 601 L492 599 L487 592 L472 580 L460 574 L453 572 L449 572 L448 571 L432 571 L431 572 L422 573 L411 577 L394 587 L386 594 L384 593 L369 604 L368 603 L378 589 L394 574 L411 563 L429 557 L453 556 L454 557 L463 558 L476 563 L487 570 L498 581 L505 591 L511 604 Z M776 476 L777 475 L778 476 L777 477 Z M772 475 L773 474 L774 475 L773 476 Z M771 474 L772 473 L773 474 L772 475 Z M834 454 L835 453 L836 454 L835 455 Z M281 425 L282 424 L283 425 L282 426 Z M531 411 L561 411 L562 412 L586 413 L587 414 L600 415 L601 416 L605 416 L606 417 L627 421 L656 431 L681 443 L714 465 L726 475 L748 497 L765 518 L782 544 L793 567 L799 587 L801 605 L802 606 L803 632 L804 633 L806 739 L807 740 L807 828 L806 829 L804 892 L803 893 L803 908 L802 909 L800 943 L799 944 L795 988 L793 996 L793 1004 L792 1005 L792 1011 L791 1012 L788 1033 L772 1073 L768 1080 L768 1082 L735 1150 L696 1217 L672 1252 L650 1277 L629 1293 L616 1300 L607 1303 L595 1304 L594 1305 L584 1305 L583 1306 L530 1306 L529 1305 L515 1305 L514 1304 L484 1302 L483 1301 L477 1301 L476 1300 L470 1300 L469 1299 L454 1297 L446 1294 L436 1287 L415 1267 L391 1236 L353 1180 L342 1161 L337 1150 L335 1148 L308 1092 L306 1085 L301 1076 L298 1067 L285 1039 L281 1027 L278 1005 L277 1004 L277 998 L276 997 L276 991 L275 990 L273 962 L272 961 L272 950 L271 949 L271 938 L270 937 L270 918 L269 917 L269 817 L270 816 L270 779 L271 778 L271 757 L272 756 L272 733 L273 732 L273 716 L274 715 L275 690 L276 689 L276 680 L277 679 L277 670 L278 669 L279 656 L280 655 L280 650 L281 649 L285 625 L287 620 L287 616 L296 586 L306 564 L306 562 L317 542 L327 527 L345 504 L371 478 L397 457 L424 440 L458 425 L491 416 L496 416 L502 414 L509 414 L510 413 L517 413 L518 412 L530 412 Z M732 464 L765 498 L784 524 L797 547 L797 549 L803 561 L809 580 L809 584 L812 594 L812 600 L814 608 L814 618 L815 619 L816 652 L817 653 L817 694 L818 695 L818 822 L817 823 L817 836 L816 837 L816 845 L815 846 L815 879 L814 880 L814 892 L813 893 L813 901 L812 902 L812 922 L813 923 L815 940 L816 943 L818 944 L815 931 L814 918 L813 917 L815 892 L816 891 L818 896 L818 904 L819 905 L822 926 L831 954 L842 977 L851 990 L860 1000 L857 1003 L853 1002 L844 993 L831 973 L828 974 L819 963 L819 961 L815 955 L811 951 L822 970 L827 975 L831 976 L841 992 L853 1004 L850 1006 L842 1007 L841 1008 L830 1008 L827 1009 L826 1008 L811 1007 L800 1004 L795 1001 L797 994 L799 970 L800 969 L800 962 L801 961 L801 952 L802 951 L802 943 L803 942 L803 932 L804 931 L806 890 L807 889 L808 852 L809 851 L809 829 L810 828 L810 750 L809 749 L809 712 L808 711 L808 619 L807 618 L807 606 L804 593 L804 587 L800 577 L800 573 L798 568 L799 571 L799 575 L798 576 L792 560 L778 534 L752 499 L724 471 L694 449 L679 440 L658 430 L626 419 L605 415 L604 414 L585 412 L584 411 L557 410 L556 409 L535 409 L534 410 L520 410 L519 411 L504 412 L503 413 L498 413 L468 420 L441 430 L409 447 L380 468 L345 501 L329 521 L311 549 L299 574 L287 608 L283 629 L282 630 L282 634 L281 635 L281 639 L280 640 L280 644 L279 645 L278 656 L277 657 L277 663 L276 664 L275 676 L274 677 L274 685 L273 686 L272 707 L271 708 L270 741 L269 742 L269 763 L268 764 L268 785 L267 786 L267 818 L266 819 L266 914 L267 915 L267 934 L268 935 L269 962 L270 963 L270 972 L271 973 L271 980 L272 981 L272 988 L273 989 L274 999 L273 1000 L271 998 L265 999 L263 1002 L263 1005 L269 999 L272 1002 L273 1010 L275 1008 L276 1009 L276 1015 L277 1016 L270 1023 L248 1034 L245 1034 L237 1037 L224 1037 L221 1035 L224 1033 L234 1019 L248 994 L257 968 L258 960 L259 959 L259 953 L257 957 L257 961 L254 969 L254 972 L247 989 L246 994 L227 1026 L219 1034 L214 1028 L220 1024 L228 1014 L239 989 L249 955 L252 935 L253 934 L254 921 L255 920 L256 898 L257 897 L258 793 L259 792 L262 714 L263 713 L263 700 L264 699 L264 689 L265 688 L267 663 L268 662 L268 656 L269 655 L270 644 L275 624 L275 620 L279 604 L281 600 L281 597 L289 574 L305 541 L324 511 L344 487 L369 463 L388 448 L411 433 L433 422 L440 420 L445 417 L478 407 L498 404 L499 403 L504 403 L505 402 L523 401 L524 400 L543 400 L547 399 L548 400 L582 401 L583 402 L590 402 L591 403 L597 403 L598 404 L618 407 L640 414 L643 414 L671 425 L689 434 L710 447 Z M749 445 L773 470 L768 472 L767 478 L770 479 L771 481 L775 481 L778 476 L785 484 L801 508 L814 533 L814 535 L819 545 L826 565 L830 581 L830 586 L833 599 L833 607 L834 608 L835 639 L836 640 L836 724 L835 725 L835 770 L834 771 L833 870 L834 871 L835 883 L838 892 L846 901 L855 907 L868 921 L872 930 L873 945 L872 946 L872 955 L871 956 L869 974 L868 975 L866 971 L862 967 L861 962 L859 960 L856 960 L854 962 L855 970 L861 976 L864 981 L865 985 L864 995 L862 997 L860 997 L853 990 L844 977 L830 946 L827 934 L824 927 L824 922 L821 910 L821 903 L819 895 L819 885 L818 884 L819 881 L818 866 L817 865 L818 863 L818 856 L819 855 L819 826 L820 825 L820 739 L821 738 L821 725 L820 724 L820 658 L819 657 L818 620 L817 619 L816 602 L815 601 L815 595 L814 594 L812 580 L805 558 L794 535 L775 506 L756 483 L741 468 L727 456 L712 445 L691 432 L662 418 L636 409 L633 409 L617 404 L590 400 L589 399 L569 398 L568 397 L526 397 L525 398 L515 398 L514 399 L507 399 L506 400 L500 400 L499 401 L483 403 L448 413 L416 427 L387 445 L355 471 L330 498 L309 528 L290 564 L282 584 L282 587 L279 593 L279 596 L275 606 L272 618 L272 622 L268 638 L268 643 L267 644 L267 649 L266 650 L266 655 L265 656 L263 680 L262 681 L260 716 L259 717 L259 734 L258 735 L258 757 L257 758 L256 833 L255 834 L255 897 L254 898 L254 911 L253 912 L251 935 L250 936 L245 963 L234 997 L227 1012 L223 1018 L216 1025 L214 1025 L212 1021 L209 1008 L209 990 L212 982 L216 979 L218 980 L214 985 L213 992 L214 993 L214 991 L216 989 L217 990 L220 989 L221 987 L221 979 L218 976 L215 977 L213 974 L211 966 L211 952 L213 948 L225 936 L232 922 L237 902 L237 897 L239 890 L239 882 L240 881 L240 872 L241 871 L242 840 L243 839 L245 683 L246 682 L246 669 L247 668 L248 649 L249 648 L249 641 L250 640 L250 634 L253 622 L253 617 L256 608 L256 604 L260 588 L265 573 L267 570 L271 557 L283 531 L285 529 L292 515 L306 494 L330 465 L355 441 L378 423 L393 413 L419 399 L421 399 L438 391 L474 380 L478 380 L489 377 L502 376 L503 375 L526 374 L527 373 L563 373 L564 374 L590 375 L591 376 L611 378 L640 385 L666 394 L694 407 L725 426 Z M360 335 L361 334 L362 335 L361 336 Z M743 329 L744 331 L738 337 L736 337 L735 336 Z M743 329 L744 328 L745 329 L744 330 Z M744 328 L745 327 L746 328 L745 329 Z M745 327 L746 326 L747 327 L746 328 Z M746 326 L747 325 L748 326 L747 327 Z M750 321 L751 320 L752 321 L751 322 Z M751 320 L752 319 L753 320 L752 321 Z M752 319 L753 318 L754 319 L753 320 Z M753 318 L754 317 L755 318 L754 319 Z M306 316 L307 320 L305 328 L305 356 L297 386 L296 408 L286 421 L285 420 L286 405 L287 404 L288 393 L289 392 L292 372 L293 371 L294 355 L295 354 L297 336 L300 327 Z M323 310 L326 318 L326 324 L325 325 L325 355 L324 356 L325 358 L326 373 L320 378 L318 370 L317 370 L318 382 L299 405 L298 404 L298 395 L301 385 L301 380 L302 379 L305 362 L308 358 L313 337 L315 334 L315 331 L321 313 Z M325 305 L331 310 L354 340 L352 345 L328 370 L327 369 L327 355 L326 354 L327 350 L327 316 L324 306 Z M321 304 L322 305 L319 313 L318 320 L316 323 L316 326 L308 349 L307 348 L307 327 L308 326 L309 311 L314 306 L318 304 Z M775 300 L783 309 L783 314 L782 315 L784 317 L784 320 L782 325 L780 338 L779 339 L778 336 L777 337 L778 340 L777 351 L773 364 L773 368 L771 371 L739 340 L757 320 L767 307 L768 308 L768 312 L769 312 L769 309 L770 308 L771 309 L773 326 L775 330 L774 317 L773 316 L773 302 L772 301 Z M288 276 L291 279 L305 308 L305 312 L301 318 L296 330 L294 328 L294 325 L291 317 L289 291 L288 290 L288 283 L287 282 L287 277 Z M807 275 L816 292 L822 310 L825 340 L826 341 L826 349 L827 350 L827 358 L828 359 L829 379 L830 380 L831 406 L832 407 L831 410 L832 411 L832 420 L833 421 L833 429 L834 430 L834 442 L835 443 L835 453 L834 454 L827 442 L806 412 L806 382 L805 381 L805 278 Z M286 275 L287 274 L288 276 L287 277 Z M276 273 L278 276 L278 280 L279 281 L279 320 L278 321 L278 329 L276 336 L276 344 L275 345 L274 362 L273 363 L273 376 L272 377 L272 389 L271 390 L271 400 L270 401 L270 415 L269 416 L269 428 L268 429 L267 447 L264 454 L255 467 L243 488 L232 510 L232 512 L230 514 L225 528 L223 530 L222 529 L223 526 L223 503 L224 502 L225 486 L226 485 L227 477 L232 471 L232 454 L239 433 L240 423 L241 422 L242 412 L245 401 L246 390 L249 379 L249 374 L251 368 L251 363 L253 357 L253 352 L255 346 L255 341 L258 330 L261 310 L265 294 L270 280 Z M280 271 L284 273 L284 277 L286 282 L286 288 L287 289 L288 306 L289 307 L289 322 L288 323 L289 324 L288 325 L286 342 L287 342 L288 339 L289 326 L291 321 L293 325 L295 335 L292 348 L290 369 L289 370 L289 376 L286 387 L286 394 L285 395 L283 412 L279 425 L279 431 L270 444 L269 443 L269 439 L270 438 L270 427 L271 426 L271 412 L272 411 L272 401 L273 400 L275 364 L276 363 L276 353 L277 352 L277 344 L278 343 L280 319 L281 318 L281 307 L282 306 L281 302 L281 285 L280 284 L280 276 L279 275 Z M802 268 L803 269 L803 284 L802 285 L802 376 L803 377 L803 406 L802 407 L785 387 L784 382 L783 384 L773 373 L779 348 L781 353 L781 357 L783 359 L781 351 L781 346 L780 345 L780 340 L783 332 L787 308 L780 301 L785 287 L791 275 L796 270 Z M822 250 L824 251 L824 253 L827 256 L827 288 L828 289 L828 294 L829 295 L830 306 L833 319 L833 325 L834 326 L838 370 L839 371 L839 378 L840 379 L840 386 L841 387 L841 396 L842 397 L842 406 L843 407 L843 416 L844 417 L845 436 L846 437 L846 448 L847 449 L847 474 L846 475 L838 461 L836 434 L835 433 L834 409 L833 408 L831 368 L830 367 L828 343 L826 335 L824 311 L816 288 L809 275 L806 273 L807 269 L811 271 L821 281 L818 275 L818 268 L821 259 L821 255 L817 262 L816 271 L815 272 L812 269 L817 255 Z M832 248 L836 250 L845 261 L854 283 L854 286 L859 302 L863 326 L864 327 L867 351 L868 352 L869 363 L871 370 L871 376 L873 383 L874 396 L875 397 L878 429 L879 430 L879 439 L880 440 L880 451 L881 452 L880 493 L873 511 L867 518 L854 491 L854 485 L853 484 L852 486 L849 481 L849 451 L848 450 L846 418 L845 417 L844 399 L843 398 L842 381 L841 380 L839 355 L838 354 L837 335 L836 334 L835 320 L834 319 L833 307 L830 295 L829 278 L828 277 L828 263 L829 262 L828 254 L829 251 Z M539 202 L573 221 L649 272 L707 316 L746 350 L782 387 L810 422 L838 466 L862 513 L878 555 L878 559 L879 560 L879 582 L884 592 L889 607 L890 621 L891 622 L891 638 L892 639 L892 673 L891 674 L891 702 L890 703 L889 726 L887 727 L884 725 L880 725 L879 724 L871 724 L869 721 L867 721 L864 726 L865 730 L868 732 L870 730 L876 730 L884 732 L888 735 L888 753 L887 754 L887 764 L886 765 L886 776 L885 777 L885 786 L884 787 L884 794 L883 795 L883 804 L882 805 L882 812 L881 813 L881 820 L880 821 L880 828 L879 829 L879 836 L877 844 L875 865 L873 872 L873 878 L872 879 L872 885 L871 886 L867 914 L866 915 L858 906 L849 900 L842 893 L838 883 L837 874 L836 873 L836 809 L837 808 L838 692 L839 691 L838 689 L839 686 L839 675 L838 674 L839 673 L839 652 L838 651 L837 612 L836 611 L836 602 L835 601 L835 594 L834 593 L832 578 L829 566 L824 553 L824 550 L817 535 L817 533 L801 503 L782 476 L771 463 L753 445 L727 424 L698 406 L660 389 L619 377 L603 375 L602 374 L595 374 L594 373 L575 372 L574 371 L536 370 L535 371 L518 371 L517 372 L499 373 L498 374 L492 374 L491 375 L486 375 L471 379 L467 379 L431 391 L398 407 L368 427 L352 440 L332 459 L311 483 L286 520 L281 531 L279 533 L279 535 L277 537 L277 539 L271 550 L265 565 L257 589 L253 605 L253 609 L251 614 L250 623 L249 624 L247 642 L246 643 L246 650 L245 651 L244 674 L243 675 L243 690 L242 691 L241 806 L240 807 L240 843 L239 844 L239 863 L238 864 L237 884 L236 885 L236 892 L235 893 L233 908 L228 925 L223 934 L215 942 L209 916 L209 911 L208 910 L205 888 L204 887 L203 874 L202 873 L201 853 L200 852 L200 839 L199 838 L199 820 L198 819 L197 759 L196 758 L196 746 L199 743 L202 742 L209 743 L212 737 L210 734 L207 736 L198 736 L197 737 L196 736 L196 700 L197 699 L197 674 L198 673 L199 652 L200 651 L202 627 L203 626 L203 620 L204 619 L205 607 L208 596 L208 591 L214 565 L230 521 L250 481 L280 434 L309 396 L340 361 L369 332 L409 295 L468 246 L505 220 Z M580 144 L581 143 L582 144 L581 145 Z M361 333 L388 294 L416 256 L420 252 L422 248 L426 244 L428 240 L455 206 L486 170 L516 141 L525 136 L541 131 L554 132 L570 139 L583 149 L609 174 L655 228 L734 332 L732 334 L726 328 L690 299 L674 288 L658 275 L615 245 L575 219 L547 203 L543 202 L540 199 L541 171 L540 188 L537 201 L535 201 L510 214 L478 235 L424 278 L396 303 L366 332 L362 335 Z M517 136 L526 120 L537 108 L543 105 L552 105 L559 109 L568 119 L574 128 L581 143 L580 144 L562 133 L548 129 L537 130 L525 134 L518 138 Z M543 102 L535 106 L527 114 L519 126 L513 138 L513 140 L482 170 L448 210 L399 274 L355 337 L333 308 L326 302 L318 301 L312 304 L308 308 L307 304 L302 296 L296 282 L289 272 L283 269 L277 269 L272 272 L269 276 L265 285 L261 298 L261 302 L259 306 L236 433 L230 449 L229 470 L225 475 L222 486 L221 504 L220 505 L220 523 L219 524 L220 540 L214 555 L206 586 L203 606 L202 607 L202 612 L201 613 L200 625 L199 626 L198 641 L197 642 L195 675 L194 676 L193 739 L191 741 L190 745 L194 750 L194 791 L195 792 L195 817 L196 818 L196 838 L197 839 L198 864 L199 865 L200 880 L201 881 L201 887 L202 888 L205 911 L206 912 L210 936 L212 941 L212 945 L208 953 L208 966 L211 978 L206 989 L206 1008 L210 1025 L215 1035 L219 1038 L225 1040 L241 1039 L264 1030 L272 1025 L277 1020 L278 1021 L278 1027 L281 1037 L299 1076 L302 1085 L308 1096 L308 1098 L318 1118 L318 1120 L347 1176 L368 1208 L402 1256 L412 1268 L435 1290 L442 1295 L451 1299 L459 1301 L464 1301 L465 1302 L478 1303 L479 1304 L486 1304 L487 1305 L494 1305 L495 1306 L505 1306 L506 1307 L517 1307 L518 1308 L535 1308 L536 1309 L580 1309 L581 1308 L593 1308 L594 1307 L610 1305 L631 1295 L650 1281 L661 1270 L680 1246 L706 1206 L708 1201 L728 1169 L756 1115 L756 1113 L775 1073 L776 1068 L791 1033 L795 1006 L796 1005 L803 1008 L816 1011 L826 1011 L827 1012 L829 1011 L841 1011 L842 1010 L851 1009 L859 1005 L865 999 L867 995 L873 969 L874 955 L875 954 L875 943 L876 942 L874 926 L869 918 L869 915 L870 914 L873 892 L874 891 L874 885 L875 884 L875 878 L876 877 L876 871 L877 870 L877 864 L878 863 L878 857 L879 856 L880 843 L882 835 L882 828 L883 827 L883 820 L884 819 L884 812 L885 811 L885 804 L886 803 L886 796 L887 795 L887 787 L888 786 L891 743 L895 738 L895 734 L892 730 L895 645 L894 644 L894 625 L893 624 L892 608 L889 597 L882 581 L882 559 L879 549 L875 541 L873 532 L868 522 L875 513 L880 503 L883 491 L884 452 L883 451 L883 442 L882 441 L881 421 L879 413 L879 406 L878 405 L874 371 L873 370 L871 352 L870 351 L870 346 L869 345 L869 340 L868 339 L868 334 L867 333 L867 328 L865 322 L863 307 L857 283 L848 260 L844 254 L835 246 L827 245 L820 248 L815 253 L809 268 L807 266 L798 266 L794 268 L789 273 L785 280 L778 299 L774 297 L768 298 L736 330 L645 211 L611 172 L585 147 L584 142 L578 129 L566 112 L561 107 L552 102 Z" fill="#eef3f4" fill-rule="evenodd"/>
</svg>
