<svg xmlns="http://www.w3.org/2000/svg" width="1122" height="1402" viewBox="0 0 1122 1402">
  <title>0352</title>
  <path d="M456 1216 L457 1215 L467 1215 L468 1216 L467 1217 L457 1217 Z M427 1211 L428 1210 L434 1210 L442 1212 L441 1213 L434 1213 Z M426 1210 L427 1209 L428 1210 L427 1211 Z M710 1210 L708 1209 L695 1215 L676 1219 L675 1221 L680 1221 L684 1219 L691 1218 L697 1215 L707 1213 Z M351 1205 L352 1204 L354 1205 L353 1206 Z M373 1203 L374 1202 L378 1202 L379 1203 L378 1204 L374 1204 Z M370 1202 L371 1201 L373 1202 L372 1203 Z M345 1198 L346 1197 L360 1198 L366 1200 L370 1204 L375 1206 L386 1206 L387 1205 L388 1206 L399 1206 L400 1207 L419 1207 L424 1209 L425 1212 L429 1215 L448 1215 L452 1217 L451 1218 L411 1218 L398 1215 L381 1214 L363 1207 L354 1207 L353 1206 L354 1205 L358 1205 L352 1203 L351 1205 L349 1203 L349 1201 Z M465 1194 L461 1192 L453 1195 L447 1195 L444 1196 L443 1199 L446 1201 L459 1200 L460 1199 L449 1199 L448 1198 L449 1197 L455 1197 L461 1194 L465 1195 Z M372 1189 L372 1191 L375 1194 L383 1197 L389 1195 L391 1196 L394 1194 L391 1191 L388 1194 L386 1193 L383 1195 L379 1194 L375 1191 L376 1190 L379 1191 L379 1189 L377 1188 L373 1188 Z M725 1187 L726 1186 L727 1187 L726 1188 Z M726 1186 L727 1185 L728 1186 L727 1187 Z M403 1186 L404 1185 L405 1186 L404 1187 Z M727 1185 L728 1184 L729 1185 L728 1186 Z M728 1184 L729 1183 L730 1184 L729 1185 Z M729 1183 L730 1182 L731 1183 L730 1184 Z M383 1172 L384 1171 L387 1172 L390 1175 L395 1177 L404 1185 L403 1186 L397 1185 Z M745 1171 L742 1175 L732 1183 L730 1182 L743 1170 Z M475 1174 L478 1172 L484 1172 L488 1170 L491 1170 L500 1173 L502 1178 L492 1181 L483 1182 L480 1181 Z M382 1171 L383 1170 L384 1171 L383 1172 Z M744 1170 L745 1169 L746 1170 L745 1171 Z M381 1170 L382 1169 L383 1170 L382 1171 Z M745 1169 L746 1168 L747 1169 L746 1170 Z M380 1169 L381 1168 L382 1169 L381 1170 Z M541 1175 L542 1169 L544 1167 L547 1167 L549 1169 L558 1172 L560 1174 L551 1178 L543 1177 Z M473 1173 L473 1175 L476 1180 L482 1184 L487 1184 L497 1181 L501 1181 L504 1178 L504 1175 L501 1171 L493 1168 L487 1168 L483 1170 L478 1170 Z M570 1167 L571 1166 L575 1166 L582 1168 L587 1173 L587 1180 L584 1182 L578 1182 L575 1180 L569 1179 L568 1178 L572 1173 L572 1170 Z M539 1176 L543 1179 L549 1180 L560 1176 L562 1174 L562 1172 L547 1165 L544 1165 L541 1167 Z M751 1164 L752 1163 L753 1164 L752 1165 Z M569 1165 L568 1167 L570 1172 L566 1176 L566 1179 L568 1181 L575 1182 L579 1184 L586 1183 L590 1177 L588 1171 L583 1166 L580 1165 L576 1165 L575 1164 Z M376 1164 L378 1163 L381 1168 L380 1169 Z M752 1162 L753 1161 L754 1163 L753 1164 Z M589 1162 L594 1168 L598 1169 L591 1162 Z M758 1160 L759 1159 L760 1160 L759 1161 Z M373 1163 L378 1171 L395 1186 L400 1188 L406 1187 L406 1184 L397 1176 L384 1169 L379 1160 L377 1160 Z M762 1156 L761 1155 L759 1156 L754 1162 L753 1161 L749 1165 L739 1171 L721 1189 L716 1191 L713 1194 L714 1198 L711 1201 L699 1202 L698 1201 L703 1195 L702 1192 L700 1191 L693 1192 L691 1190 L691 1184 L688 1181 L684 1181 L679 1177 L676 1176 L669 1177 L663 1173 L653 1173 L648 1177 L643 1176 L640 1174 L637 1174 L635 1176 L635 1180 L636 1181 L635 1182 L635 1187 L639 1191 L628 1199 L625 1199 L619 1203 L616 1202 L610 1203 L608 1206 L616 1212 L616 1216 L609 1220 L607 1220 L607 1222 L610 1222 L618 1217 L624 1220 L643 1220 L639 1220 L633 1218 L625 1218 L621 1216 L618 1213 L617 1210 L611 1206 L612 1205 L619 1206 L624 1202 L627 1202 L632 1198 L640 1194 L642 1190 L637 1185 L638 1181 L637 1178 L639 1176 L642 1178 L648 1179 L654 1175 L658 1176 L662 1175 L668 1179 L673 1179 L674 1178 L678 1179 L682 1183 L686 1183 L689 1185 L689 1192 L692 1195 L700 1194 L701 1195 L694 1201 L695 1204 L697 1205 L701 1204 L708 1204 L710 1205 L717 1199 L715 1196 L716 1194 L719 1192 L725 1191 L736 1183 L747 1173 L751 1171 L758 1160 L759 1161 L759 1163 L757 1165 L758 1166 L761 1162 Z M407 1154 L408 1153 L409 1154 L408 1155 Z M409 1150 L410 1149 L411 1151 L410 1152 Z M792 1149 L793 1148 L794 1149 L793 1150 Z M793 1148 L794 1147 L795 1148 L794 1149 Z M801 1145 L802 1146 L802 1151 L799 1153 L795 1153 L794 1152 Z M794 1146 L795 1145 L796 1147 L795 1148 Z M426 1145 L427 1144 L429 1145 L428 1146 Z M739 1141 L741 1143 L741 1148 L737 1155 L737 1157 L730 1164 L726 1165 L725 1163 L729 1157 L729 1152 L733 1146 Z M413 1141 L416 1139 L422 1142 L419 1143 Z M305 1140 L320 1161 L332 1173 L330 1169 L324 1163 L308 1141 Z M741 1139 L736 1140 L727 1151 L726 1158 L723 1163 L724 1167 L730 1166 L739 1157 L739 1155 L743 1148 L743 1141 Z M805 1134 L806 1136 L803 1141 L799 1145 L796 1146 L795 1143 Z M805 1134 L806 1133 L807 1134 L806 1135 Z M806 1133 L807 1132 L808 1133 L807 1134 Z M594 1130 L595 1132 L597 1130 L602 1130 L605 1132 L604 1135 L607 1132 L603 1128 L598 1128 Z M622 1125 L624 1123 L641 1124 L644 1122 L648 1122 L652 1129 L657 1127 L660 1130 L659 1132 L659 1136 L660 1137 L653 1143 L650 1148 L647 1148 L640 1144 L632 1136 L625 1134 Z M719 1121 L717 1121 L715 1124 L719 1124 Z M364 1120 L367 1125 L366 1127 L370 1129 L378 1138 L380 1143 L377 1149 L371 1144 L370 1140 L364 1131 L364 1127 L363 1126 L363 1121 Z M291 1121 L293 1125 L297 1129 L298 1132 L303 1137 L298 1128 Z M361 1116 L362 1115 L363 1116 L362 1117 Z M700 1115 L698 1115 L697 1117 Z M359 1113 L360 1112 L361 1113 L360 1114 Z M533 1114 L539 1110 L547 1114 L556 1112 L558 1114 L558 1117 L560 1118 L553 1122 L546 1120 L539 1121 Z M739 1105 L740 1104 L742 1105 L741 1106 Z M387 1105 L393 1122 L393 1132 L391 1133 L389 1131 L387 1131 L387 1135 L388 1136 L390 1134 L404 1141 L401 1137 L395 1134 L398 1131 L399 1127 L397 1128 L396 1131 L395 1130 L395 1123 L392 1117 L391 1111 Z M688 1117 L691 1113 L694 1112 L697 1109 L696 1104 L698 1102 L702 1102 L705 1100 L707 1102 L706 1103 L706 1108 L707 1109 L717 1108 L723 1112 L724 1117 L727 1119 L731 1118 L733 1116 L733 1113 L738 1108 L742 1109 L744 1108 L746 1110 L745 1112 L746 1114 L744 1120 L740 1127 L738 1128 L736 1127 L735 1128 L730 1128 L729 1129 L722 1128 L719 1131 L714 1133 L711 1130 L711 1126 L709 1125 L705 1126 L700 1132 L693 1127 L692 1123 L690 1122 Z M702 1099 L703 1098 L704 1099 L703 1100 Z M809 1097 L810 1096 L811 1097 L810 1098 Z M440 1097 L441 1096 L443 1097 L442 1098 Z M346 1091 L349 1099 L352 1102 L351 1103 L344 1097 Z M447 1090 L440 1094 L437 1093 L443 1089 Z M446 1089 L447 1088 L449 1089 L448 1090 Z M379 1089 L380 1088 L381 1089 L380 1090 Z M448 1088 L449 1087 L451 1088 L450 1089 Z M451 1087 L452 1086 L453 1087 L452 1088 Z M811 1085 L812 1084 L813 1086 L812 1087 Z M710 1083 L711 1084 L711 1092 L708 1099 L704 1099 L703 1098 L707 1093 Z M812 1083 L813 1082 L814 1084 L813 1085 Z M813 1082 L814 1081 L815 1082 L814 1083 Z M761 1069 L762 1068 L763 1070 L762 1071 Z M623 1065 L624 1063 L626 1064 L624 1066 Z M592 1060 L593 1062 L597 1062 L598 1063 L610 1063 L615 1061 L615 1060 L611 1060 L610 1061 Z M803 1055 L800 1055 L797 1058 L795 1069 L792 1074 L792 1078 L795 1084 L797 1084 L801 1080 L800 1079 L797 1082 L794 1077 L799 1063 L799 1059 L801 1057 L805 1060 L806 1063 L806 1067 L804 1070 L803 1075 L804 1075 L804 1073 L807 1068 L807 1060 Z M770 1054 L771 1055 L770 1059 L763 1069 L762 1068 L763 1064 L762 1060 L768 1054 Z M755 1052 L756 1051 L757 1053 L756 1054 Z M248 1049 L248 1054 L252 1058 L253 1054 Z M858 1043 L859 1047 L853 1053 L852 1051 Z M306 1044 L306 1046 L309 1048 L309 1046 Z M858 1042 L859 1041 L860 1042 L859 1043 Z M313 1029 L314 1030 L313 1034 L312 1033 Z M813 1028 L810 1032 L810 1049 L812 1052 L815 1052 L816 1051 L814 1051 L812 1049 L812 1037 L811 1036 L812 1032 L815 1028 Z M454 1026 L455 1023 L458 1024 L468 1024 L469 1025 L461 1029 L459 1029 Z M242 1024 L242 1033 L245 1039 L247 1039 L246 1035 L244 1033 L245 1031 L244 1024 Z M486 1024 L490 1020 L500 1023 L534 1022 L540 1030 L553 1030 L554 1031 L553 1032 L534 1032 L533 1031 L525 1031 L524 1030 L518 1030 L511 1028 L497 1027 Z M310 1021 L312 1024 L310 1033 L313 1038 L315 1039 L316 1030 L314 1027 L313 1022 Z M460 1020 L466 1018 L473 1021 L469 1022 L468 1021 L461 1021 Z M836 1018 L834 1018 L831 1025 L833 1025 L836 1020 Z M794 1016 L789 1021 L790 1023 L791 1023 L791 1021 Z M870 1014 L871 1013 L872 1015 L871 1016 Z M871 1011 L872 1010 L873 1012 L872 1013 Z M709 1052 L709 1071 L710 1072 L710 1077 L706 1090 L704 1094 L699 1099 L687 1102 L676 1100 L650 1091 L639 1089 L638 1088 L639 1087 L643 1086 L648 1081 L648 1078 L643 1074 L639 1074 L633 1068 L631 1068 L631 1070 L636 1073 L635 1074 L631 1074 L624 1067 L626 1064 L629 1067 L628 1063 L624 1060 L621 1061 L622 1067 L630 1076 L642 1076 L646 1080 L641 1084 L637 1085 L636 1084 L628 1083 L621 1079 L617 1079 L616 1081 L606 1079 L588 1072 L568 1067 L539 1066 L538 1067 L519 1068 L518 1069 L504 1070 L503 1071 L488 1073 L472 1078 L459 1084 L456 1083 L450 1084 L447 1086 L441 1087 L439 1089 L438 1087 L441 1080 L445 1076 L451 1073 L454 1074 L457 1073 L459 1071 L459 1066 L461 1064 L463 1058 L466 1055 L474 1053 L474 1051 L470 1051 L462 1056 L457 1066 L457 1069 L455 1071 L449 1071 L445 1073 L440 1078 L436 1088 L434 1090 L431 1087 L435 1083 L436 1079 L429 1086 L429 1090 L434 1093 L436 1093 L437 1094 L436 1095 L415 1096 L414 1097 L392 1097 L391 1096 L387 1096 L380 1091 L381 1089 L383 1090 L378 1082 L378 1072 L383 1054 L391 1042 L397 1036 L413 1027 L429 1023 L452 1023 L453 1027 L459 1031 L461 1031 L468 1027 L472 1041 L476 1047 L476 1044 L472 1035 L472 1031 L470 1026 L471 1025 L484 1027 L485 1028 L479 1030 L478 1032 L483 1032 L489 1028 L491 1028 L492 1029 L512 1031 L520 1033 L548 1034 L549 1035 L581 1035 L582 1034 L614 1030 L622 1027 L644 1029 L653 1033 L659 1039 L664 1047 L665 1058 L663 1064 L664 1067 L664 1072 L663 1073 L663 1081 L664 1083 L662 1085 L663 1086 L667 1082 L667 1078 L668 1077 L668 1073 L667 1072 L668 1069 L667 1049 L665 1043 L661 1037 L651 1029 L635 1024 L629 1024 L628 1025 L619 1025 L618 1026 L602 1028 L596 1030 L590 1030 L589 1031 L581 1031 L580 1032 L573 1032 L572 1031 L576 1029 L587 1029 L599 1024 L607 1024 L616 1019 L625 1017 L639 1008 L648 1005 L657 1004 L661 1006 L673 1006 L681 1008 L686 1013 L691 1016 L697 1023 L707 1044 L707 1049 Z M794 1003 L793 1003 L784 1023 L787 1021 L788 1017 L793 1009 Z M312 1002 L310 1002 L310 1004 L304 1013 L304 1015 L306 1015 L306 1013 L309 1010 L312 1004 L313 1005 Z M872 989 L868 989 L868 990 L869 989 L870 990 L868 1000 L870 999 Z M775 980 L773 981 L773 983 L774 983 Z M462 976 L463 975 L464 976 L463 977 Z M450 976 L448 978 L443 978 L442 977 L448 975 Z M229 974 L231 976 L235 977 L232 979 L231 982 L228 979 L228 975 Z M463 975 L459 978 L460 982 L455 988 L451 988 L445 990 L437 990 L424 997 L417 997 L415 999 L405 1000 L399 1003 L391 1002 L388 1005 L386 1005 L384 1003 L385 998 L384 994 L382 992 L382 989 L385 983 L391 979 L394 979 L398 981 L408 981 L415 977 L422 977 L425 982 L430 983 L436 978 L442 981 L449 980 L456 973 Z M877 973 L877 979 L878 979 L878 973 Z M227 973 L228 972 L229 973 L228 974 Z M614 972 L613 972 L618 980 L617 981 L617 986 L629 1002 L627 1004 L619 1003 L612 1008 L609 1007 L605 1002 L603 994 L608 989 L610 984 L607 981 L600 978 L599 979 L601 981 L605 982 L607 985 L607 988 L602 992 L601 997 L605 1006 L610 1009 L613 1009 L619 1005 L627 1006 L630 1003 L630 1000 L625 995 L624 992 L619 986 L619 977 Z M611 972 L609 971 L604 973 L603 975 L606 975 Z M547 981 L544 984 L538 985 L531 989 L527 989 L528 990 L525 993 L513 994 L510 992 L513 990 L513 988 L507 986 L498 977 L501 974 L508 974 L510 973 L516 967 L520 967 L521 970 L526 973 L533 971 L539 978 L538 973 L534 969 L537 966 L546 973 Z M303 965 L303 967 L306 966 Z M227 964 L228 968 L230 968 L229 964 Z M218 960 L216 962 L214 968 L215 974 L218 977 L224 978 L227 982 L230 983 L231 987 L234 990 L235 988 L233 984 L234 980 L237 978 L237 975 L236 974 L232 974 L230 971 L225 971 L226 976 L225 977 L224 976 L220 976 L216 971 L217 965 L219 963 L219 960 Z M636 932 L634 944 L629 952 L631 954 L632 949 L636 946 L641 953 L643 954 L643 952 L640 947 L636 943 L636 938 L637 937 L637 933 Z M307 929 L312 933 L313 939 L316 943 L316 949 L311 961 L312 968 L308 974 L303 973 L303 976 L306 978 L306 984 L310 992 L310 995 L313 998 L319 999 L322 1002 L320 1009 L323 1015 L323 1022 L317 1037 L317 1040 L320 1048 L320 1052 L322 1054 L322 1057 L320 1061 L321 1063 L321 1068 L320 1069 L319 1068 L318 1069 L313 1062 L310 1060 L298 1042 L298 1039 L299 1038 L302 1039 L303 1036 L302 1034 L301 1035 L298 1030 L298 1021 L300 1019 L300 1013 L298 1009 L298 1005 L300 998 L297 990 L301 984 L301 973 L299 970 L301 964 L298 959 L298 950 L304 940 L305 931 Z M798 929 L799 928 L800 929 L799 930 Z M440 929 L432 930 L424 934 L424 935 L428 935 L431 933 L436 932 L440 930 Z M306 927 L303 931 L302 934 L303 937 L296 952 L296 959 L299 964 L299 967 L297 970 L300 979 L295 990 L298 996 L298 1001 L296 1005 L298 1013 L298 1018 L296 1021 L296 1030 L299 1035 L296 1039 L296 1043 L303 1055 L312 1065 L319 1075 L322 1075 L323 1074 L323 1066 L324 1065 L323 1064 L324 1053 L322 1050 L322 1046 L320 1041 L320 1034 L325 1022 L325 1014 L323 1011 L324 1001 L321 998 L314 996 L312 994 L312 991 L308 985 L309 984 L307 976 L312 972 L313 969 L313 962 L318 948 L318 942 L315 938 L314 932 L309 927 Z M601 923 L607 921 L617 921 L618 922 L617 923 L609 923 L608 924 L602 924 Z M743 920 L750 922 L754 919 L760 922 L760 924 L756 931 L756 934 L758 937 L758 940 L756 942 L753 942 L750 939 L746 939 L745 938 L744 939 L743 938 L741 930 L739 927 Z M747 918 L748 917 L749 918 L748 919 Z M484 919 L484 921 L500 920 L501 921 L514 922 L512 920 L502 919 L501 918 Z M640 915 L641 917 L639 921 L636 923 L635 919 Z M756 910 L760 914 L760 918 L758 920 L753 918 L754 913 Z M719 912 L715 911 L709 913 L703 919 L701 923 L701 926 L706 932 L710 934 L716 934 L720 931 L710 932 L703 925 L704 921 L711 914 L718 914 L726 921 L725 917 Z M795 906 L795 908 L798 909 Z M813 904 L817 907 L815 914 L811 913 L811 908 Z M597 904 L598 903 L599 904 L598 905 Z M520 904 L516 905 L514 907 L514 910 L517 907 L521 906 Z M594 899 L595 898 L596 899 L595 900 Z M510 899 L510 902 L513 903 L512 900 Z M250 899 L249 901 L249 913 L250 914 L250 918 L252 918 L252 915 L250 911 L250 902 L251 901 L251 899 Z M591 895 L592 894 L595 898 L593 899 Z M590 894 L591 893 L592 894 L591 895 Z M243 882 L244 883 L244 887 L240 898 L239 897 L239 893 Z M269 879 L267 880 L267 885 L269 884 Z M198 874 L199 873 L200 874 L199 875 Z M861 873 L860 873 L859 876 L859 881 Z M300 864 L301 863 L302 865 L301 866 Z M244 864 L242 864 L239 869 L241 882 L236 896 L240 907 L242 906 L241 900 L243 898 L245 890 L245 882 L244 883 L243 882 L243 876 L242 875 L242 870 L245 868 Z M200 860 L201 861 L201 872 L200 873 L199 872 L199 861 Z M513 860 L514 859 L516 862 L516 873 L518 877 L520 889 L534 903 L560 909 L573 909 L582 912 L586 912 L585 910 L578 909 L574 907 L559 907 L551 904 L564 899 L565 897 L572 897 L574 895 L578 894 L582 889 L589 888 L590 890 L588 895 L590 899 L595 903 L595 905 L599 909 L603 911 L608 916 L603 919 L575 918 L574 919 L559 920 L555 918 L554 921 L544 921 L543 922 L536 922 L535 923 L532 923 L531 921 L528 921 L523 918 L521 918 L516 915 L508 906 L508 892 L509 891 L509 885 L511 878 L511 870 L512 869 Z M254 857 L253 859 L255 865 L256 864 L256 860 L255 857 Z M858 855 L859 856 L858 859 L857 858 Z M397 855 L401 855 L410 865 L417 869 L420 869 L424 867 L429 869 L434 873 L434 888 L433 889 L434 904 L431 909 L428 908 L415 911 L406 902 L401 899 L400 897 L400 889 L398 886 L399 871 L397 866 L393 862 L394 858 Z M593 853 L592 858 L593 857 Z M395 854 L391 859 L391 863 L395 867 L397 872 L396 887 L398 890 L398 898 L399 900 L405 904 L415 914 L423 911 L433 912 L435 910 L437 902 L435 895 L436 878 L437 877 L436 872 L430 867 L425 865 L420 867 L414 865 L401 853 Z M778 850 L777 851 L779 852 Z M248 850 L246 850 L245 852 L244 862 L246 860 L246 856 L248 853 Z M362 849 L361 852 L362 855 L364 855 L363 849 Z M865 844 L870 850 L871 855 L868 860 L868 864 L863 869 L861 866 L860 860 L862 856 L862 848 L863 845 Z M845 844 L846 845 L846 849 L845 850 L844 849 L844 845 Z M760 843 L761 842 L762 843 L761 844 Z M743 843 L742 848 L744 852 L748 855 L753 854 L754 852 L751 854 L748 853 L745 850 L744 843 Z M598 842 L594 848 L594 851 L597 847 Z M348 841 L350 842 L351 847 L356 851 L356 857 L354 863 L357 866 L352 872 L345 865 L346 864 L346 857 L343 854 L344 846 Z M258 841 L257 844 L257 849 L256 850 L257 852 L260 847 L260 842 Z M349 840 L346 841 L343 844 L341 848 L341 855 L344 859 L343 866 L348 873 L352 874 L359 867 L357 862 L359 853 L357 849 L352 845 L352 842 Z M247 836 L247 845 L250 847 L251 846 L251 842 L249 841 L250 837 Z M846 835 L845 835 L842 845 L843 863 L844 863 L845 859 L845 854 L848 841 L846 845 L845 844 Z M529 832 L530 836 L525 842 L524 841 L524 837 Z M530 829 L531 828 L532 830 L531 831 Z M777 825 L780 830 L780 836 L779 837 L774 833 L776 831 L776 826 Z M538 824 L540 827 L540 830 L539 831 L539 846 L537 851 L536 891 L540 900 L539 902 L533 900 L528 895 L527 892 L522 889 L522 883 L521 882 L521 878 L519 875 L518 860 L517 859 L518 853 L523 848 L524 845 L528 842 L534 832 L534 829 Z M268 824 L266 824 L265 827 L265 832 L266 833 Z M770 823 L762 829 L760 836 L760 840 L761 841 L760 843 L758 840 L752 836 L750 836 L747 839 L752 838 L758 843 L759 846 L757 850 L761 847 L762 843 L763 844 L771 843 L771 841 L764 842 L762 839 L764 830 L770 825 Z M231 822 L229 823 L228 831 L230 829 Z M800 820 L801 819 L802 820 L801 821 Z M773 815 L773 817 L774 816 Z M262 812 L261 815 L263 815 L266 818 L266 815 L264 816 Z M539 807 L540 810 L538 814 L538 822 L534 825 L532 829 L531 826 Z M810 809 L809 810 L808 818 L804 826 L803 825 L803 818 L802 817 L799 819 L796 818 L795 819 L794 818 L794 814 L796 812 L796 810 L793 807 L785 808 L781 812 L776 826 L775 822 L774 821 L772 822 L772 825 L774 828 L774 832 L772 834 L776 837 L773 841 L773 847 L771 849 L768 849 L764 854 L763 857 L765 861 L765 866 L758 877 L751 876 L747 880 L749 888 L753 891 L752 893 L755 895 L759 895 L760 898 L757 903 L757 906 L753 910 L751 915 L749 911 L751 900 L747 908 L748 917 L747 918 L742 918 L738 923 L737 930 L739 932 L738 936 L740 937 L740 939 L737 940 L737 942 L741 942 L742 941 L747 941 L748 942 L748 953 L752 958 L751 968 L753 972 L759 977 L759 985 L764 993 L764 996 L761 1004 L761 1007 L759 1010 L759 1016 L761 1023 L756 1029 L755 1032 L756 1038 L753 1043 L753 1054 L744 1064 L741 1069 L741 1073 L743 1075 L742 1081 L733 1094 L732 1100 L730 1102 L728 1108 L725 1111 L722 1108 L715 1105 L713 1106 L709 1106 L708 1105 L713 1091 L712 1055 L707 1039 L699 1022 L693 1015 L690 1014 L685 1008 L681 1006 L676 1006 L672 1003 L661 1004 L657 1002 L652 1002 L639 1006 L627 1014 L613 1018 L607 1022 L599 1022 L589 1025 L586 1027 L575 1027 L565 1031 L560 1031 L553 1028 L541 1028 L539 1024 L534 1020 L500 1021 L490 1017 L486 1021 L482 1021 L481 1022 L477 1021 L473 1018 L478 1015 L480 1016 L483 1015 L484 1013 L477 1014 L472 1017 L462 1017 L458 1020 L451 1019 L448 1017 L443 1016 L444 1018 L447 1019 L446 1020 L431 1020 L430 1021 L424 1021 L416 1023 L398 1032 L389 1040 L384 1047 L379 1057 L375 1073 L375 1084 L377 1091 L384 1098 L392 1099 L393 1100 L418 1100 L419 1099 L428 1099 L435 1097 L440 1097 L441 1098 L422 1124 L422 1127 L420 1131 L417 1134 L412 1134 L413 1136 L412 1140 L413 1141 L409 1144 L406 1143 L399 1144 L396 1146 L393 1151 L391 1152 L389 1151 L388 1149 L383 1146 L379 1137 L367 1123 L365 1116 L360 1108 L363 1107 L370 1113 L370 1118 L374 1123 L383 1127 L383 1124 L380 1124 L373 1119 L372 1113 L368 1107 L365 1105 L358 1106 L354 1102 L350 1096 L349 1086 L348 1085 L347 1048 L348 1047 L349 1039 L353 1030 L355 1028 L358 1018 L363 1013 L367 1004 L372 999 L374 993 L379 989 L382 997 L382 1004 L385 1007 L388 1007 L392 1003 L396 1005 L399 1005 L405 1002 L412 1002 L418 999 L424 999 L426 997 L440 991 L444 992 L445 991 L456 990 L461 985 L465 983 L465 982 L461 982 L460 981 L463 978 L467 979 L471 984 L474 985 L480 985 L485 982 L490 982 L491 983 L499 982 L505 987 L510 988 L511 989 L508 993 L513 996 L515 995 L525 995 L531 990 L536 989 L548 983 L549 978 L547 975 L547 971 L540 966 L535 965 L530 970 L525 970 L523 968 L523 966 L515 965 L509 971 L501 972 L496 976 L496 980 L495 981 L484 980 L482 982 L475 983 L472 982 L466 976 L465 973 L460 971 L454 971 L450 976 L448 973 L444 975 L438 975 L435 976 L429 981 L426 980 L423 975 L414 975 L409 978 L404 978 L403 979 L399 979 L396 977 L390 977 L385 980 L380 987 L375 989 L372 992 L371 997 L366 1002 L361 1012 L356 1017 L354 1024 L347 1037 L346 1046 L344 1051 L346 1065 L345 1066 L345 1072 L343 1075 L343 1079 L346 1084 L346 1087 L342 1094 L342 1097 L345 1102 L349 1105 L353 1106 L356 1109 L357 1113 L361 1119 L361 1125 L362 1126 L363 1134 L367 1139 L369 1145 L377 1152 L379 1152 L381 1146 L389 1153 L395 1153 L399 1146 L408 1146 L409 1147 L408 1150 L404 1154 L404 1155 L407 1154 L408 1158 L405 1161 L404 1164 L396 1156 L393 1157 L399 1162 L399 1165 L400 1164 L402 1165 L399 1167 L401 1169 L404 1167 L404 1164 L405 1163 L406 1164 L412 1156 L412 1148 L413 1147 L412 1146 L413 1145 L420 1144 L424 1147 L428 1148 L433 1146 L441 1137 L445 1136 L452 1131 L458 1130 L468 1122 L471 1122 L481 1118 L490 1117 L504 1112 L514 1112 L515 1113 L522 1111 L530 1111 L531 1112 L531 1116 L535 1119 L536 1122 L540 1124 L542 1123 L550 1123 L551 1124 L556 1123 L562 1119 L562 1117 L559 1113 L560 1112 L563 1112 L570 1115 L580 1115 L585 1117 L598 1117 L602 1118 L606 1121 L614 1123 L618 1128 L620 1128 L622 1130 L622 1134 L624 1136 L627 1136 L631 1138 L641 1148 L649 1151 L661 1139 L662 1134 L665 1131 L664 1127 L661 1125 L658 1125 L654 1127 L649 1120 L644 1120 L640 1122 L623 1121 L620 1123 L616 1121 L610 1120 L600 1115 L586 1115 L582 1113 L571 1113 L568 1111 L563 1111 L562 1110 L561 1111 L560 1110 L559 1111 L552 1110 L547 1112 L541 1108 L538 1108 L535 1110 L530 1110 L526 1108 L519 1110 L504 1110 L499 1112 L495 1112 L489 1115 L480 1116 L477 1118 L474 1118 L462 1123 L461 1126 L458 1128 L449 1130 L447 1132 L440 1135 L431 1143 L423 1141 L421 1139 L415 1137 L418 1133 L419 1134 L423 1130 L424 1126 L434 1112 L435 1109 L446 1096 L461 1086 L475 1080 L487 1077 L490 1075 L507 1073 L508 1072 L538 1070 L539 1069 L559 1069 L560 1070 L573 1071 L594 1077 L604 1082 L610 1082 L626 1086 L637 1091 L653 1095 L668 1101 L676 1103 L681 1103 L682 1104 L693 1103 L695 1108 L686 1115 L686 1119 L688 1122 L678 1127 L675 1130 L671 1131 L670 1133 L673 1133 L688 1124 L691 1126 L691 1128 L693 1130 L700 1134 L707 1127 L712 1134 L716 1134 L722 1130 L730 1131 L731 1130 L738 1130 L743 1126 L748 1116 L748 1109 L743 1105 L753 1096 L760 1086 L761 1078 L764 1073 L764 1071 L771 1061 L783 1034 L783 1027 L781 1027 L780 1035 L778 1038 L777 1043 L773 1049 L773 1051 L771 1053 L770 1052 L766 1053 L760 1060 L760 1067 L755 1080 L756 1082 L758 1080 L759 1081 L757 1087 L746 1101 L744 1102 L742 1101 L738 1103 L737 1106 L732 1111 L731 1114 L729 1116 L727 1116 L726 1113 L731 1107 L731 1105 L734 1101 L734 1097 L744 1083 L746 1076 L743 1072 L743 1070 L746 1065 L752 1060 L754 1056 L758 1054 L758 1052 L756 1051 L755 1044 L758 1040 L758 1031 L763 1025 L763 1018 L761 1012 L763 1009 L764 1003 L766 999 L766 991 L761 984 L762 977 L755 971 L753 967 L754 957 L750 951 L751 945 L752 944 L757 944 L761 939 L759 931 L763 922 L762 921 L763 917 L762 913 L759 909 L760 905 L761 904 L763 906 L768 905 L771 898 L774 898 L781 902 L786 899 L787 895 L790 891 L792 891 L800 897 L803 897 L807 895 L811 898 L811 903 L809 908 L809 915 L813 917 L813 919 L811 921 L809 919 L807 919 L807 920 L810 923 L812 923 L814 921 L815 914 L816 913 L819 916 L819 924 L818 925 L817 922 L818 925 L817 929 L813 930 L811 926 L810 926 L810 932 L813 933 L814 931 L817 931 L821 924 L821 917 L818 912 L819 909 L818 903 L814 902 L813 897 L810 894 L806 893 L804 895 L800 895 L794 890 L790 889 L787 891 L785 897 L783 899 L780 900 L775 896 L771 896 L769 897 L767 902 L764 904 L761 901 L762 900 L761 894 L755 892 L755 890 L751 887 L749 881 L752 878 L759 879 L761 877 L762 878 L761 883 L764 882 L764 878 L762 878 L761 876 L768 865 L766 855 L770 850 L772 851 L775 849 L776 841 L779 838 L782 837 L783 831 L779 825 L779 823 L782 819 L782 814 L785 811 L790 810 L792 812 L792 819 L794 821 L799 821 L804 832 L807 833 L811 837 L814 844 L817 844 L819 846 L820 850 L823 854 L826 865 L825 867 L825 874 L824 875 L825 882 L823 889 L820 894 L821 904 L823 909 L823 923 L825 927 L824 932 L821 935 L816 933 L813 936 L811 941 L812 945 L814 947 L813 949 L808 948 L806 950 L804 950 L802 948 L800 948 L797 951 L795 957 L793 958 L791 956 L790 950 L783 944 L790 937 L790 931 L788 928 L788 922 L791 919 L797 924 L797 928 L795 931 L797 933 L800 932 L804 928 L804 926 L800 929 L799 928 L799 924 L797 921 L791 917 L786 921 L785 925 L788 932 L788 937 L781 943 L782 947 L785 948 L788 951 L789 958 L792 961 L795 961 L798 967 L800 967 L796 958 L800 951 L803 952 L808 951 L809 952 L810 958 L807 967 L811 961 L812 963 L813 962 L811 960 L811 951 L815 950 L816 947 L819 954 L819 957 L810 969 L807 981 L799 992 L796 1003 L796 1010 L797 1010 L797 1006 L799 1002 L801 992 L808 983 L813 968 L817 962 L821 959 L821 953 L819 948 L813 941 L816 937 L821 937 L826 931 L826 925 L824 921 L825 911 L824 910 L822 894 L826 886 L827 861 L825 854 L823 852 L820 844 L814 840 L813 836 L805 828 L810 818 Z M688 805 L690 808 L692 808 L690 805 Z M351 803 L353 807 L357 810 L360 809 L364 803 L369 805 L383 803 L389 807 L389 804 L384 801 L376 801 L373 803 L370 803 L365 800 L362 802 L361 805 L358 808 L355 806 L354 801 L361 795 L365 795 L366 796 L367 795 L371 795 L380 798 L385 798 L391 796 L409 796 L419 800 L420 799 L424 799 L425 800 L424 804 L425 807 L430 814 L433 822 L433 827 L424 834 L421 832 L420 825 L415 819 L406 821 L403 818 L395 818 L393 816 L393 813 L390 810 L383 810 L378 806 L377 807 L382 812 L389 812 L391 814 L393 820 L396 821 L402 820 L405 823 L410 823 L414 821 L417 825 L419 833 L421 836 L425 836 L435 827 L435 821 L430 809 L427 806 L427 799 L425 797 L417 797 L410 794 L389 794 L382 796 L373 793 L361 792 L352 800 Z M585 785 L586 784 L587 785 L586 786 Z M556 779 L564 785 L573 783 L578 786 L581 784 L589 792 L591 800 L596 806 L596 811 L595 812 L595 817 L596 818 L592 823 L590 823 L585 828 L585 832 L581 838 L579 846 L582 851 L583 858 L586 864 L591 867 L593 867 L596 862 L599 863 L601 862 L603 864 L603 874 L600 881 L602 887 L600 890 L600 896 L599 897 L592 890 L592 886 L591 885 L593 883 L593 877 L593 881 L586 887 L580 888 L577 892 L571 895 L563 895 L559 892 L560 896 L562 897 L549 903 L546 903 L542 900 L537 889 L538 866 L539 865 L539 849 L541 843 L540 814 L543 807 L545 809 L548 817 L550 818 L553 818 L560 811 L560 804 L559 803 L558 794 L556 792 L553 793 L551 788 L552 782 Z M808 778 L812 787 L814 788 L812 781 Z M619 775 L621 786 L622 786 L620 775 Z M898 767 L903 769 L908 774 L909 777 L910 788 L906 794 L903 792 L903 790 L897 778 L896 769 Z M849 763 L850 765 L847 772 L847 779 L844 782 L843 781 L844 771 Z M561 764 L560 766 L563 771 L564 768 L562 764 Z M539 763 L540 762 L541 764 L540 765 Z M207 762 L210 767 L212 768 L211 771 L211 789 L212 790 L213 810 L212 811 L209 838 L206 842 L201 857 L200 856 L201 815 L202 814 L204 778 L205 777 L205 770 Z M540 762 L541 761 L542 762 L541 763 Z M542 758 L543 757 L544 758 L543 759 Z M339 758 L348 767 L351 768 L362 776 L378 784 L422 795 L454 796 L463 792 L478 792 L482 790 L486 791 L494 790 L487 789 L484 787 L476 790 L461 790 L453 794 L435 794 L434 793 L420 792 L408 788 L393 786 L377 781 L361 773 L342 759 Z M543 757 L544 756 L545 757 L544 758 Z M581 751 L585 756 L584 765 L585 766 L585 770 L587 771 L587 767 L586 766 L587 757 L586 754 L583 751 Z M250 748 L251 747 L252 748 L251 749 Z M680 745 L681 744 L683 745 L682 746 Z M876 744 L875 744 L874 752 L870 764 L870 770 L868 774 L866 799 L864 805 L864 812 L863 813 L862 827 L861 828 L861 837 L857 847 L855 855 L854 868 L853 869 L852 868 L852 863 L849 862 L850 863 L850 870 L851 871 L851 898 L849 901 L849 913 L845 922 L843 934 L839 938 L836 949 L840 940 L844 936 L848 920 L852 910 L852 901 L854 893 L853 886 L854 885 L854 879 L856 872 L856 862 L857 861 L858 865 L862 871 L867 867 L868 868 L869 876 L872 883 L869 890 L870 905 L868 909 L868 916 L865 923 L862 946 L856 962 L857 967 L854 973 L854 980 L848 986 L845 996 L845 1002 L843 1006 L843 1011 L841 1016 L841 1023 L839 1027 L832 1034 L831 1041 L827 1049 L827 1052 L824 1060 L817 1070 L817 1076 L816 1077 L815 1074 L814 1075 L813 1079 L805 1089 L804 1092 L789 1113 L786 1119 L785 1125 L782 1130 L782 1135 L784 1138 L778 1145 L768 1153 L764 1159 L772 1153 L788 1137 L790 1133 L790 1130 L795 1124 L801 1114 L801 1112 L798 1115 L793 1124 L786 1132 L785 1128 L787 1126 L788 1120 L801 1099 L811 1086 L812 1087 L811 1092 L806 1098 L804 1102 L804 1105 L805 1105 L809 1098 L811 1100 L816 1096 L815 1095 L813 1097 L812 1096 L812 1092 L819 1077 L819 1071 L824 1065 L827 1059 L828 1053 L833 1043 L835 1034 L841 1028 L843 1024 L843 1015 L845 1011 L845 1007 L848 998 L848 993 L852 984 L855 985 L856 983 L857 971 L861 965 L864 968 L864 974 L867 974 L867 970 L869 965 L869 951 L870 950 L870 944 L869 943 L868 944 L867 956 L866 957 L867 963 L865 965 L859 959 L862 950 L864 948 L865 950 L865 936 L866 935 L867 925 L870 918 L870 910 L872 906 L872 897 L871 896 L872 887 L874 884 L877 890 L878 888 L875 880 L875 876 L873 876 L871 874 L871 868 L870 867 L870 863 L873 855 L873 852 L874 851 L875 852 L875 857 L876 858 L876 851 L874 847 L873 847 L872 850 L865 841 L863 842 L862 841 L862 839 L863 838 L864 823 L866 816 L866 806 L869 796 L870 776 L873 767 L873 760 L875 758 L875 754 L876 753 Z M677 744 L678 743 L680 744 L679 745 Z M676 743 L677 742 L678 743 L677 744 Z M599 743 L597 744 L596 752 L595 753 L595 758 L594 759 L594 768 L595 770 L594 771 L595 771 L596 768 L596 758 L597 757 Z M674 742 L675 741 L676 742 L675 743 Z M359 742 L360 741 L361 742 L360 743 Z M358 741 L359 740 L360 741 L359 742 Z M357 740 L358 739 L359 740 L358 741 Z M528 738 L529 739 L528 742 L527 741 Z M608 737 L611 743 L612 750 L614 753 L619 771 L620 767 L617 759 L617 756 L612 741 Z M646 732 L647 731 L649 732 L648 733 Z M371 732 L363 736 L359 736 L357 733 L358 732 L366 732 L367 731 Z M645 731 L646 730 L647 731 L646 732 Z M441 734 L437 735 L430 732 L431 731 L439 731 L440 730 Z M428 731 L429 730 L430 731 L429 732 Z M371 731 L372 730 L374 731 L373 732 Z M644 730 L645 729 L646 730 L645 731 Z M505 730 L506 729 L507 730 L506 731 Z M507 729 L508 728 L509 729 L508 730 Z M523 729 L521 737 L522 748 L517 757 L514 767 L509 775 L509 777 L502 781 L456 781 L455 780 L443 780 L417 774 L392 765 L378 755 L363 739 L364 738 L368 738 L379 733 L404 731 L405 730 L421 731 L428 735 L434 736 L438 738 L442 738 L444 733 L443 732 L447 728 L450 728 L465 737 L484 739 L485 738 L491 738 L492 737 L497 737 L505 735 L511 732 L515 727 L519 727 Z M508 728 L509 727 L510 728 L509 729 Z M389 728 L390 727 L394 728 L393 729 Z M681 727 L679 727 L676 730 L673 730 L668 733 L669 734 L673 731 L676 731 Z M581 727 L581 738 L583 737 L583 728 Z M409 726 L405 728 L398 728 L397 727 L404 725 L408 725 Z M777 740 L759 758 L752 762 L711 775 L693 783 L682 785 L669 781 L655 780 L651 777 L648 772 L643 769 L641 769 L639 767 L639 765 L633 756 L633 754 L630 749 L626 732 L627 731 L640 731 L643 734 L649 737 L670 743 L677 748 L686 749 L727 738 L744 724 L748 723 L765 732 Z M507 722 L508 721 L509 722 L508 723 Z M215 722 L216 721 L217 722 L216 723 Z M626 721 L627 720 L633 720 L638 727 L637 728 L627 728 L626 727 Z M347 719 L348 718 L349 719 L348 720 Z M227 717 L228 718 L227 721 L221 729 L215 734 L214 733 L214 728 L224 718 Z M524 716 L524 724 L523 725 L516 724 L511 728 L509 727 L513 723 L514 719 L517 715 L523 715 Z M750 713 L751 712 L752 713 L751 714 Z M751 712 L752 711 L753 712 L752 713 Z M585 712 L586 719 L588 721 L588 715 L587 712 Z M337 711 L344 719 L349 727 L358 737 L357 740 L353 737 L345 726 L340 722 L336 714 Z M513 710 L514 713 L511 720 L509 722 L508 720 Z M852 710 L851 710 L851 714 L847 724 L846 737 L849 732 L850 722 L853 714 Z M716 710 L703 711 L702 712 L703 713 L709 713 L716 711 Z M870 708 L871 707 L872 709 L871 710 Z M217 707 L221 718 L218 721 L216 719 L214 719 L213 722 L216 723 L213 725 L208 721 L207 714 L208 711 L212 707 Z M514 706 L515 707 L514 711 L513 710 Z M383 703 L384 702 L385 703 L384 704 Z M677 702 L679 705 L685 708 L696 710 L696 709 L682 705 Z M382 702 L383 701 L384 702 L383 703 Z M901 701 L899 701 L894 709 L895 734 L897 726 L900 722 L898 723 L896 720 L896 710 L901 703 Z M433 700 L431 700 L427 706 L428 710 L430 710 L429 708 Z M649 697 L650 696 L651 698 L650 699 Z M629 697 L630 696 L631 698 L630 699 Z M627 696 L628 697 L629 708 L632 716 L631 717 L626 717 L625 716 L626 715 L626 708 L625 707 L626 706 L626 697 Z M798 695 L799 697 L797 700 L796 697 Z M734 696 L735 695 L736 696 L735 697 Z M418 696 L421 698 L425 697 L419 695 Z M345 694 L347 699 L347 709 L348 710 L348 718 L347 719 L344 715 L344 702 L343 701 Z M735 694 L736 693 L737 695 L736 696 Z M485 691 L483 693 L480 705 L475 714 L475 717 L478 715 L480 711 L482 703 L484 700 Z M330 689 L331 690 L330 694 L329 693 Z M271 686 L270 687 L272 693 L269 702 L270 703 L270 716 L267 722 L266 727 L264 729 L264 735 L262 739 L258 743 L257 750 L254 754 L253 758 L257 755 L259 751 L260 744 L265 737 L266 734 L265 731 L268 727 L272 717 L271 701 L273 697 L273 690 L271 688 Z M804 683 L805 682 L806 683 L805 684 Z M782 682 L784 681 L788 683 L793 688 L795 692 L793 693 L781 686 Z M636 681 L638 683 L641 692 L648 701 L647 704 L641 707 L635 707 L632 702 L632 686 Z M465 682 L466 681 L467 682 L466 683 Z M770 680 L777 687 L789 693 L794 697 L791 713 L789 715 L789 717 L781 731 L774 728 L754 716 L766 699 L768 691 L768 685 Z M805 680 L806 679 L807 681 L806 682 Z M785 679 L786 678 L787 679 L786 680 Z M774 679 L775 678 L780 678 L781 682 L779 684 Z M522 678 L525 689 L525 711 L524 712 L517 710 L519 707 L520 691 L521 690 L521 679 Z M349 679 L352 678 L360 682 L369 693 L384 708 L402 722 L398 724 L355 729 L352 726 L350 699 L349 698 Z M860 677 L859 677 L857 689 L853 699 L852 708 L856 698 L857 691 L859 688 Z M591 674 L589 675 L589 680 L586 689 L586 702 L587 706 L588 706 L588 693 L589 692 Z M349 674 L350 673 L351 674 L350 675 Z M341 671 L344 674 L343 675 L344 686 L341 697 L341 707 L340 708 L338 705 L336 707 L332 700 L332 693 L333 689 L338 682 L338 679 L341 675 L339 672 Z M338 671 L339 670 L340 671 L339 672 Z M337 670 L338 669 L339 670 L338 671 Z M538 660 L537 668 L538 668 Z M884 659 L882 661 L880 675 L876 683 L877 694 L873 698 L872 702 L869 706 L869 709 L867 711 L859 727 L859 729 L854 736 L853 746 L851 749 L850 754 L847 758 L847 763 L844 766 L842 771 L841 792 L839 796 L839 801 L835 814 L835 823 L836 823 L838 815 L838 811 L841 802 L841 796 L843 790 L849 779 L852 780 L849 776 L849 774 L853 764 L853 762 L851 761 L851 758 L855 744 L856 743 L861 750 L864 749 L867 740 L867 735 L870 729 L870 725 L867 730 L865 738 L865 743 L862 748 L857 740 L857 735 L860 732 L868 714 L870 712 L873 713 L872 720 L873 720 L873 718 L875 716 L874 706 L880 700 L875 704 L874 701 L879 695 L879 682 L882 677 L884 680 L885 686 L886 686 L886 679 L882 674 L884 667 Z M588 653 L587 653 L587 657 L586 658 L586 665 L588 663 L588 658 L589 657 Z M270 646 L272 649 L271 664 L273 667 L273 670 L268 676 L267 675 L267 667 L268 665 L267 664 L265 667 L265 676 L266 677 L265 693 L266 694 L266 698 L262 708 L261 716 L259 719 L258 730 L260 730 L260 722 L263 716 L264 707 L268 697 L267 693 L267 680 L269 677 L273 681 L277 678 L279 681 L277 686 L277 695 L280 700 L280 707 L279 708 L279 714 L276 722 L277 724 L279 724 L281 726 L278 734 L279 740 L287 752 L293 758 L298 760 L305 770 L308 779 L305 789 L307 793 L309 793 L312 790 L313 791 L313 804 L315 807 L315 810 L311 818 L311 827 L310 828 L311 838 L310 839 L310 843 L307 850 L301 854 L298 862 L298 865 L300 868 L300 872 L301 873 L299 881 L299 895 L298 896 L297 904 L295 907 L290 905 L287 908 L286 919 L285 920 L281 918 L275 924 L274 930 L272 933 L273 934 L273 942 L276 946 L276 949 L279 955 L279 959 L280 960 L280 966 L279 967 L279 994 L276 1004 L278 1030 L276 1033 L276 1042 L271 1045 L268 1050 L268 1055 L269 1056 L268 1058 L268 1063 L269 1064 L268 1075 L270 1081 L267 1082 L264 1085 L263 1088 L260 1088 L251 1084 L246 1079 L239 1066 L231 1056 L223 1040 L212 1025 L209 1018 L202 991 L200 964 L196 950 L195 923 L196 922 L196 913 L199 908 L199 904 L198 904 L197 907 L196 906 L198 881 L201 877 L203 871 L203 857 L205 853 L206 847 L208 844 L209 848 L211 850 L210 859 L212 865 L211 867 L212 881 L210 885 L210 891 L209 892 L210 894 L207 898 L206 897 L207 893 L207 869 L206 869 L205 872 L206 890 L205 891 L205 901 L204 902 L203 901 L203 891 L201 894 L202 903 L203 902 L205 905 L208 903 L214 890 L216 883 L216 876 L220 862 L220 856 L225 850 L226 847 L226 840 L227 838 L226 837 L225 838 L223 836 L224 820 L222 818 L223 812 L227 809 L229 805 L230 794 L232 792 L233 788 L234 789 L235 800 L237 800 L242 787 L243 778 L245 774 L244 770 L245 759 L247 753 L249 751 L251 752 L253 750 L253 748 L251 747 L251 738 L255 728 L255 709 L258 703 L258 693 L261 686 L261 680 L263 675 L263 670 L261 664 L264 655 L268 647 Z M523 646 L523 649 L525 652 L526 657 L529 660 L530 659 L527 651 L524 646 Z M484 644 L483 645 L487 652 L490 663 L490 678 L486 685 L489 683 L490 684 L488 691 L489 692 L489 690 L491 688 L491 683 L493 677 L493 670 L492 669 L492 663 L489 651 Z M539 639 L541 646 L541 641 Z M358 634 L357 633 L355 634 L352 639 L354 639 Z M794 630 L794 627 L796 625 L798 625 L801 628 L798 630 L796 629 L795 631 Z M473 626 L474 625 L475 626 L474 627 Z M294 623 L295 622 L296 623 L295 624 Z M889 621 L890 622 L889 625 L888 624 Z M717 621 L732 628 L744 640 L748 647 L750 655 L749 669 L742 688 L737 694 L736 693 L737 685 L735 681 L733 682 L734 684 L734 693 L730 703 L725 708 L718 711 L721 712 L727 709 L742 692 L749 678 L752 666 L752 661 L753 660 L756 670 L756 682 L757 685 L754 697 L748 710 L747 718 L739 725 L723 736 L704 740 L701 742 L689 745 L686 745 L685 743 L677 739 L665 738 L657 736 L647 728 L644 730 L641 727 L633 711 L634 708 L636 709 L643 708 L650 704 L650 699 L651 698 L653 700 L655 698 L663 705 L670 709 L668 706 L663 703 L656 696 L653 697 L646 681 L647 662 L657 643 L662 638 L663 639 L666 638 L673 629 L684 623 L694 620 L712 620 L713 621 Z M804 645 L801 647 L801 651 L802 652 L801 658 L791 668 L791 670 L786 677 L782 678 L777 675 L771 677 L770 676 L770 646 L769 645 L768 636 L765 629 L760 624 L760 626 L765 635 L767 651 L768 652 L767 654 L767 679 L762 700 L760 704 L753 712 L752 709 L757 698 L757 695 L759 691 L759 685 L760 684 L758 665 L755 656 L746 638 L739 630 L728 622 L714 617 L696 617 L684 620 L676 624 L665 632 L653 644 L649 650 L644 662 L643 679 L646 686 L646 689 L650 696 L649 697 L644 693 L641 687 L640 682 L638 680 L635 680 L631 684 L630 695 L629 696 L627 694 L627 681 L628 680 L630 665 L638 651 L638 648 L636 648 L635 652 L628 664 L625 676 L624 697 L623 698 L623 730 L628 750 L637 768 L641 772 L646 774 L652 782 L658 784 L666 784 L667 785 L672 785 L676 787 L686 788 L694 786 L715 777 L748 767 L754 764 L755 765 L760 765 L762 763 L758 762 L776 746 L783 735 L809 682 L810 677 L807 680 L806 679 L808 674 L808 669 L806 669 L806 673 L803 682 L804 686 L799 695 L794 685 L788 680 L790 673 L793 670 L793 668 L803 659 L805 655 L803 650 Z M332 617 L333 616 L334 617 L333 618 Z M323 619 L323 617 L326 615 L329 615 L333 618 L327 621 L325 621 Z M336 616 L337 614 L340 615 L337 617 Z M890 613 L891 614 L891 619 L890 620 L889 619 L889 614 Z M339 614 L340 613 L341 614 L340 615 Z M287 613 L289 612 L290 615 L289 616 Z M753 612 L761 619 L755 612 Z M285 612 L286 611 L288 612 L287 613 Z M300 609 L301 612 L302 610 Z M333 663 L334 665 L333 667 L336 671 L337 675 L335 677 L335 682 L328 688 L327 695 L330 701 L330 704 L333 708 L333 713 L337 722 L347 732 L349 736 L361 747 L363 745 L381 761 L396 770 L426 780 L441 782 L442 783 L473 784 L474 785 L487 785 L488 784 L502 784 L506 783 L507 784 L499 788 L496 788 L496 789 L503 789 L507 787 L508 785 L506 783 L511 779 L519 763 L521 755 L525 747 L525 743 L527 741 L528 744 L524 760 L526 758 L527 749 L531 741 L531 735 L534 727 L535 714 L533 707 L533 691 L531 684 L531 674 L530 673 L530 667 L528 665 L527 666 L527 670 L528 671 L529 686 L531 692 L531 704 L532 705 L532 716 L533 717 L532 718 L532 726 L529 732 L529 737 L526 740 L525 739 L525 729 L526 728 L526 719 L527 718 L527 709 L528 708 L528 690 L527 689 L526 678 L524 674 L522 657 L518 650 L517 652 L520 658 L519 666 L521 668 L521 673 L518 675 L518 683 L517 684 L518 690 L517 691 L516 706 L515 707 L514 706 L514 701 L513 701 L508 715 L505 720 L503 728 L500 732 L487 735 L472 735 L464 733 L451 726 L446 726 L442 729 L441 728 L434 729 L431 726 L437 718 L435 718 L431 722 L429 726 L432 728 L431 729 L419 728 L414 725 L412 725 L398 716 L389 706 L384 697 L380 685 L379 674 L378 673 L380 655 L384 644 L387 639 L404 622 L413 616 L427 610 L431 610 L432 609 L451 609 L462 613 L468 618 L468 622 L474 628 L478 641 L477 642 L477 657 L476 658 L476 665 L475 666 L476 670 L473 676 L469 680 L465 679 L455 689 L451 688 L440 692 L431 692 L436 694 L440 694 L441 693 L456 691 L462 686 L468 684 L475 677 L478 669 L477 666 L479 649 L480 648 L481 650 L482 649 L480 645 L480 635 L474 624 L473 626 L472 625 L470 617 L465 612 L458 608 L451 606 L433 606 L432 607 L424 608 L409 615 L387 634 L380 646 L376 662 L377 685 L380 694 L383 699 L382 702 L372 692 L374 689 L374 682 L373 680 L372 680 L372 689 L371 690 L361 679 L358 678 L344 664 L342 664 L342 665 L350 673 L349 674 L343 671 L335 662 Z M278 605 L276 606 L278 606 Z M249 602 L250 603 L249 606 L248 605 Z M720 598 L721 600 L725 600 L724 598 Z M680 597 L680 598 L683 599 L697 599 L697 598 L694 597 Z M528 596 L529 595 L530 596 L529 597 Z M306 596 L307 595 L308 596 L307 597 Z M746 603 L754 599 L760 593 L767 593 L768 594 L765 598 L765 601 L769 605 L777 606 L782 604 L786 600 L793 606 L797 616 L803 617 L807 624 L810 624 L814 622 L816 623 L816 625 L814 627 L814 631 L810 634 L806 634 L800 638 L795 636 L794 637 L793 636 L794 634 L800 632 L804 628 L803 625 L799 623 L795 623 L791 628 L793 633 L789 636 L785 633 L786 631 L785 628 L786 616 L783 613 L779 613 L773 615 L767 613 L758 605 L755 605 L752 608 L750 608 Z M730 600 L730 602 L739 604 L749 610 L753 610 L754 608 L757 607 L766 615 L769 615 L772 617 L782 616 L783 617 L783 623 L782 624 L783 626 L782 627 L783 634 L787 639 L794 638 L796 641 L799 641 L804 637 L813 635 L816 632 L816 629 L818 627 L818 622 L816 620 L813 620 L809 622 L806 616 L800 615 L797 612 L796 606 L791 601 L785 597 L780 597 L778 593 L781 589 L778 589 L776 592 L776 595 L780 602 L775 604 L770 603 L767 600 L770 596 L770 593 L766 590 L757 592 L753 597 L745 601 L743 604 L734 600 Z M408 587 L418 591 L419 590 L421 592 L427 594 L430 594 L428 592 L419 590 L416 588 Z M675 590 L671 590 L669 588 L670 587 L668 586 L663 590 L656 593 L640 592 L636 596 L641 594 L649 595 L650 597 L660 593 L672 592 Z M906 578 L903 580 L901 584 L899 592 L896 598 L895 605 L893 607 L891 606 L889 608 L887 614 L882 618 L879 629 L879 634 L877 639 L877 650 L876 651 L874 671 L871 679 L871 682 L869 685 L869 689 L870 689 L872 684 L873 678 L876 671 L876 665 L877 664 L878 652 L879 651 L879 643 L881 637 L881 626 L882 622 L886 616 L887 620 L884 630 L886 630 L888 624 L890 629 L890 638 L886 651 L888 651 L890 647 L891 637 L892 636 L893 637 L894 645 L897 648 L895 642 L895 637 L897 631 L899 629 L900 630 L900 623 L903 618 L904 612 L902 614 L899 624 L896 628 L893 637 L892 636 L892 617 L893 615 L890 613 L890 610 L893 607 L894 610 L895 610 L898 598 Z M592 578 L589 579 L584 585 L584 588 L582 591 L582 596 L575 603 L574 610 L572 613 L572 617 L574 622 L570 638 L573 646 L573 654 L574 655 L572 670 L575 675 L573 679 L572 689 L571 690 L572 707 L569 715 L569 721 L570 721 L570 718 L572 714 L572 695 L573 694 L573 689 L574 688 L573 687 L577 670 L575 663 L576 661 L576 653 L575 652 L574 641 L572 635 L574 633 L576 633 L581 637 L586 630 L591 632 L594 629 L599 620 L602 618 L603 619 L602 624 L597 629 L597 630 L599 630 L603 626 L608 615 L608 612 L604 608 L607 602 L607 598 L610 595 L609 594 L605 597 L604 602 L601 603 L601 605 L602 604 L603 605 L602 610 L606 614 L603 617 L598 618 L597 621 L593 625 L593 627 L590 629 L588 629 L586 627 L588 624 L589 625 L589 622 L586 622 L584 624 L583 632 L581 635 L574 629 L575 625 L574 614 L579 608 L582 609 L587 614 L590 614 L594 612 L595 610 L591 612 L588 612 L581 606 L579 606 L577 608 L575 607 L581 600 L587 604 L590 603 L589 601 L595 594 L595 582 L594 581 L592 583 L593 584 L593 595 L586 601 L583 598 L583 595 L585 593 L586 586 Z M586 575 L581 575 L577 579 L574 586 L576 591 L577 591 L575 588 L577 586 L577 582 L581 577 L586 576 Z M503 573 L504 572 L505 573 L504 574 Z M502 572 L503 571 L504 572 L503 573 Z M501 571 L502 570 L503 571 L502 572 Z M781 570 L782 569 L783 570 L782 571 Z M500 569 L501 568 L502 569 L501 570 Z M417 569 L418 568 L419 569 L418 570 Z M631 568 L632 567 L633 568 L632 569 Z M504 567 L510 572 L511 575 L518 583 L521 590 L526 596 L529 602 L529 607 L528 608 L519 601 L519 597 L517 594 L517 589 L515 588 L512 581 L508 577 L505 570 L503 568 Z M418 568 L419 567 L420 568 L419 569 Z M499 567 L500 566 L501 567 L500 568 Z M412 565 L415 566 L416 568 L412 572 L411 575 L412 578 L411 579 L403 573 L409 566 Z M609 561 L611 561 L613 564 L612 568 L609 566 L608 562 Z M468 563 L459 562 L455 564 L449 564 L440 567 L442 568 L450 565 L468 564 Z M705 571 L702 569 L695 570 L689 566 L687 566 L682 570 L681 567 L684 565 L686 561 L679 566 L681 567 L680 568 L677 568 L671 573 L670 575 L671 581 L675 582 L680 579 L683 579 L686 581 L691 581 L699 578 L694 578 L687 580 L683 577 L674 581 L673 580 L673 574 L679 569 L681 572 L684 572 L688 568 L693 571 L701 571 L705 573 Z M612 560 L607 560 L604 562 L601 567 L595 573 L596 576 L597 576 L598 572 L602 569 L607 562 L609 568 L611 569 L613 567 L615 570 L615 577 L612 580 L604 575 L600 576 L600 577 L604 577 L612 582 L611 585 L608 588 L607 592 L612 587 L613 582 L617 576 L617 568 Z M540 609 L539 608 L539 604 L535 598 L523 589 L518 579 L507 566 L504 564 L502 566 L500 563 L498 563 L492 558 L480 555 L479 554 L480 553 L475 553 L467 558 L464 558 L460 556 L455 556 L451 558 L443 558 L437 561 L431 561 L421 567 L412 563 L408 564 L401 571 L401 575 L410 581 L397 593 L392 596 L386 597 L361 612 L353 612 L347 608 L343 608 L335 614 L336 616 L335 617 L329 613 L325 613 L320 616 L320 618 L323 621 L317 627 L316 631 L314 633 L310 631 L300 630 L298 622 L295 621 L292 618 L291 610 L287 609 L285 612 L279 614 L276 617 L276 619 L281 615 L285 615 L289 619 L291 624 L297 628 L298 632 L304 632 L314 636 L318 633 L318 631 L322 625 L342 617 L345 612 L349 612 L355 615 L362 614 L385 600 L397 596 L411 582 L414 578 L414 574 L422 570 L431 563 L437 563 L446 559 L452 560 L455 558 L460 558 L464 560 L468 560 L476 555 L479 555 L481 557 L495 563 L498 567 L499 571 L505 577 L505 584 L508 588 L506 604 L511 616 L518 620 L522 618 L525 618 L529 623 L534 623 L535 620 L534 621 L530 621 L524 615 L520 617 L517 617 L512 613 L509 604 L510 588 L507 583 L508 581 L510 582 L513 588 L516 591 L517 602 L525 610 L529 611 L531 609 L531 602 L529 598 L530 596 L537 603 L539 607 L539 613 Z M254 548 L255 547 L256 549 L255 550 Z M889 585 L885 584 L882 581 L879 581 L873 585 L866 583 L860 585 L858 584 L851 584 L847 586 L832 585 L831 584 L819 584 L810 574 L808 577 L801 578 L783 571 L784 570 L793 571 L794 572 L798 571 L789 570 L785 568 L774 566 L759 559 L751 557 L746 557 L739 554 L731 553 L726 551 L714 550 L705 547 L697 547 L696 546 L679 546 L675 548 L671 548 L665 551 L657 552 L649 557 L639 559 L629 567 L629 568 L632 569 L625 582 L623 594 L620 600 L620 604 L621 605 L612 623 L610 629 L610 633 L607 635 L605 642 L605 647 L603 651 L604 655 L601 665 L602 669 L602 688 L601 690 L603 694 L603 698 L605 701 L602 707 L602 721 L601 722 L601 735 L602 736 L603 735 L604 704 L605 703 L605 694 L604 693 L604 661 L606 657 L605 652 L607 649 L607 644 L609 642 L610 646 L611 645 L612 631 L616 619 L621 612 L623 607 L623 599 L625 596 L627 582 L629 580 L629 578 L636 564 L638 562 L647 558 L650 558 L656 554 L662 554 L668 551 L671 551 L679 548 L699 548 L714 552 L729 553 L733 555 L739 556 L744 559 L752 559 L800 580 L809 580 L810 578 L818 586 L841 587 L842 588 L849 588 L853 586 L857 586 L858 587 L870 586 L873 587 L877 584 L882 583 L885 586 L887 586 L888 588 L885 594 L871 600 L866 605 L865 612 L863 614 L863 621 L856 636 L851 656 L849 660 L845 664 L841 672 L841 675 L832 685 L822 699 L819 705 L817 719 L811 726 L808 732 L805 749 L797 756 L794 761 L792 761 L776 771 L752 779 L738 782 L727 789 L718 791 L710 796 L705 796 L702 794 L698 794 L689 791 L677 795 L667 795 L654 792 L648 794 L641 788 L641 790 L646 794 L641 798 L639 802 L637 798 L637 784 L638 783 L637 781 L635 782 L634 793 L636 801 L639 803 L636 808 L635 835 L636 836 L636 845 L637 846 L637 853 L638 854 L639 877 L640 878 L642 901 L639 913 L629 923 L621 923 L619 920 L615 918 L620 912 L612 917 L609 915 L605 907 L601 908 L598 905 L600 903 L600 901 L596 900 L600 899 L602 897 L602 891 L604 888 L602 881 L606 872 L605 871 L606 861 L604 857 L601 856 L603 860 L602 861 L596 860 L592 864 L588 863 L586 861 L584 850 L581 846 L584 836 L587 832 L587 829 L597 821 L598 806 L592 797 L592 792 L588 787 L588 782 L589 781 L588 780 L592 776 L592 770 L590 769 L590 775 L587 778 L585 785 L583 783 L579 783 L578 784 L574 781 L570 781 L565 783 L558 777 L552 779 L550 783 L550 791 L553 795 L555 794 L557 796 L557 800 L558 801 L558 810 L552 816 L550 816 L548 814 L546 808 L543 805 L540 808 L539 807 L539 800 L541 795 L541 778 L543 774 L541 776 L539 780 L539 797 L538 798 L539 800 L535 812 L532 817 L532 820 L530 822 L530 825 L528 829 L522 837 L521 847 L517 851 L516 850 L518 841 L521 834 L521 830 L525 817 L525 812 L529 803 L532 786 L537 775 L541 770 L544 760 L546 757 L545 756 L551 748 L552 740 L559 726 L559 722 L560 721 L559 720 L559 716 L565 702 L565 690 L563 682 L566 677 L566 673 L568 667 L568 652 L569 650 L568 647 L567 647 L565 672 L564 673 L564 677 L560 682 L560 688 L563 690 L563 704 L557 715 L558 723 L551 738 L550 744 L547 751 L539 759 L538 765 L539 764 L540 766 L531 783 L527 802 L525 806 L525 811 L520 824 L519 833 L516 841 L512 845 L510 850 L510 854 L507 865 L507 874 L506 875 L508 878 L507 879 L506 901 L505 902 L505 906 L507 910 L515 917 L525 922 L531 923 L535 927 L538 927 L542 929 L549 929 L551 930 L551 929 L546 927 L539 926 L538 925 L539 924 L557 923 L558 922 L561 923 L562 922 L581 921 L582 920 L600 921 L601 922 L600 923 L594 923 L594 925 L598 925 L604 927 L612 927 L617 925 L623 925 L624 926 L634 926 L636 929 L637 925 L640 923 L642 919 L643 907 L644 906 L644 893 L643 892 L643 885 L641 877 L640 851 L639 850 L639 842 L638 841 L638 805 L648 795 L657 795 L665 797 L680 797 L689 793 L696 796 L700 796 L707 799 L710 799 L717 794 L726 792 L739 784 L750 782 L782 771 L785 768 L796 762 L799 757 L806 751 L808 747 L809 737 L811 730 L819 719 L821 707 L824 700 L836 684 L837 685 L838 684 L838 682 L841 679 L846 667 L851 661 L854 655 L857 640 L865 623 L865 615 L867 613 L867 609 L869 605 L873 601 L875 601 L885 596 L889 591 L890 588 Z M301 541 L302 548 L304 550 L306 556 L310 561 L307 567 L312 571 L312 574 L308 583 L308 591 L304 593 L303 596 L308 601 L308 608 L312 611 L315 610 L316 608 L312 609 L310 607 L311 601 L307 597 L308 596 L307 593 L310 590 L310 583 L314 574 L314 570 L309 566 L312 560 L308 555 L306 549 L303 545 L303 540 Z M369 539 L370 538 L371 539 L370 540 Z M370 537 L371 536 L372 538 L371 539 Z M371 536 L372 535 L373 536 L372 537 Z M372 535 L373 534 L374 535 L373 536 Z M259 526 L260 525 L261 526 L260 527 Z M908 522 L913 529 L912 531 L906 524 Z M905 523 L906 521 L908 522 L906 524 Z M904 521 L905 520 L906 521 L905 522 Z M905 518 L906 517 L907 518 L906 519 Z M736 515 L732 516 L726 523 L723 522 L722 526 L725 527 L733 518 L736 517 Z M407 511 L406 510 L402 512 L397 512 L395 514 L396 515 L400 514 L402 515 L407 513 Z M266 508 L267 509 L266 519 L261 526 L260 525 L260 516 L263 514 Z M266 507 L267 506 L268 507 L267 508 Z M267 505 L268 504 L269 505 L268 506 Z M403 500 L404 499 L406 500 L405 501 Z M726 497 L729 498 L733 505 L733 507 L731 509 L728 508 L728 504 L725 500 Z M726 495 L723 498 L725 507 L728 511 L733 511 L735 505 L730 496 Z M576 494 L577 495 L580 493 L584 497 L588 497 L581 490 Z M838 488 L838 490 L842 494 L857 499 L866 499 L864 497 L859 497 L848 493 L845 493 Z M656 491 L652 488 L649 491 L648 494 L649 495 L654 494 Z M825 486 L828 488 L829 487 Z M566 483 L558 485 L553 489 L553 491 L557 493 L555 498 L550 500 L551 502 L555 502 L556 501 L556 497 L559 494 L565 493 L567 495 L568 499 L571 500 L569 494 L566 491 L556 491 L555 490 L558 487 L567 485 Z M684 482 L683 482 L682 486 L679 489 L674 489 L667 485 L665 485 L675 491 L680 491 L684 487 Z M445 482 L434 484 L430 487 L442 485 Z M580 476 L578 476 L577 478 L577 482 L578 483 Z M666 475 L666 478 L667 478 L667 475 Z M462 486 L455 481 L450 475 L447 474 L446 475 L441 475 L436 477 L427 478 L424 480 L419 481 L416 485 L416 489 L412 493 L410 493 L403 498 L397 497 L394 495 L394 493 L397 490 L397 484 L395 482 L387 489 L373 495 L370 498 L361 501 L358 503 L357 509 L360 512 L369 511 L372 515 L371 520 L375 523 L375 529 L367 537 L366 542 L369 543 L384 534 L397 530 L386 532 L381 535 L377 535 L375 533 L377 530 L378 525 L376 521 L373 519 L374 517 L373 512 L368 508 L364 510 L359 508 L359 505 L363 502 L371 500 L375 496 L379 494 L390 491 L390 489 L392 487 L393 488 L392 487 L394 485 L395 489 L391 493 L392 497 L394 499 L399 499 L404 501 L402 502 L398 510 L403 508 L407 508 L407 506 L404 507 L402 506 L404 503 L409 503 L411 506 L414 506 L418 509 L421 509 L422 508 L421 507 L419 507 L405 499 L407 497 L413 495 L418 490 L418 485 L420 483 L433 479 L449 477 L452 482 L460 487 L461 493 L456 499 L452 501 L446 507 L436 510 L433 510 L431 508 L426 508 L422 511 L423 513 L428 509 L431 511 L436 512 L448 508 L454 502 L459 499 L463 493 Z M652 471 L650 470 L645 474 L642 474 L640 472 L638 472 L635 474 L635 476 L638 474 L642 476 L650 474 L652 476 Z M682 472 L682 475 L685 479 L688 480 L700 489 L713 488 L719 485 L724 491 L732 492 L733 493 L739 493 L744 489 L752 489 L753 488 L755 491 L758 492 L762 499 L762 502 L760 505 L760 510 L763 516 L765 516 L762 509 L762 506 L764 503 L764 498 L760 491 L754 487 L760 481 L774 480 L788 485 L799 485 L804 487 L812 487 L831 495 L841 502 L848 502 L854 504 L862 504 L863 503 L850 501 L849 500 L841 500 L828 491 L819 487 L821 486 L820 484 L815 486 L814 485 L806 485 L801 483 L789 483 L775 478 L759 479 L755 481 L752 486 L750 487 L743 487 L740 490 L736 491 L725 489 L720 483 L717 483 L709 487 L708 486 L701 487 L698 486 L696 483 L685 476 L688 475 L688 474 L684 473 L689 471 L690 469 L685 469 Z M265 462 L266 461 L267 462 L266 463 Z M617 455 L617 457 L621 462 L621 464 L618 468 L620 472 L621 472 L620 467 L623 464 L626 464 L630 468 L642 469 L641 467 L637 467 L634 465 L630 466 L622 460 L622 458 L620 458 Z M634 454 L635 456 L643 458 L648 461 L656 469 L661 469 L664 467 L668 467 L669 466 L676 468 L678 467 L676 465 L674 465 L672 463 L670 463 L658 456 L655 457 L669 464 L660 467 L656 467 L647 458 Z M845 448 L846 449 L846 454 L843 456 L840 454 L842 453 Z M614 432 L615 431 L616 433 L615 434 Z M858 429 L862 432 L861 436 L857 432 Z M282 428 L283 429 L283 438 L272 449 L274 449 L278 444 L279 445 L278 453 L275 456 L274 454 L272 454 L271 456 L272 458 L267 462 L266 458 L270 447 Z M299 421 L295 423 L295 424 L297 424 Z M610 416 L615 429 L614 434 L616 433 L617 434 L619 441 L619 445 L618 446 L617 445 L617 453 L618 453 L619 450 L620 453 L622 454 L623 453 L621 451 L622 450 L621 449 L620 436 L618 433 L618 430 L616 427 L615 422 L611 416 Z M349 414 L350 413 L352 414 L351 415 Z M853 410 L852 417 L858 424 L860 424 L854 416 L855 411 Z M312 410 L309 411 L305 415 L305 417 Z M691 407 L691 408 L697 410 L711 411 L719 415 L737 416 L745 418 L747 420 L762 421 L780 429 L783 429 L813 440 L829 448 L840 457 L858 466 L885 485 L885 483 L880 478 L876 476 L868 469 L846 456 L850 450 L848 446 L846 445 L841 449 L840 452 L838 452 L832 449 L826 441 L818 440 L816 438 L790 430 L763 419 L742 416 L731 413 L718 413 L712 410 L707 410 L697 407 Z M437 405 L436 406 L428 406 L427 407 L410 407 L410 408 L412 409 L422 409 L423 408 L435 407 Z M379 404 L377 406 L370 409 L361 410 L353 414 L351 413 L357 409 L376 403 Z M378 403 L379 402 L380 403 L379 404 Z M675 402 L676 404 L681 406 L689 407 L688 405 Z M653 399 L654 401 L658 401 L659 402 L664 402 L665 401 L671 402 L668 399 Z M411 398 L406 401 L399 402 L393 405 L381 405 L380 404 L391 399 L401 399 L405 397 L410 397 Z M542 396 L543 395 L553 395 L559 399 L556 401 L552 401 Z M609 389 L608 391 L611 392 L609 393 L608 396 L614 402 L616 409 L617 408 L617 403 L610 396 L612 394 L618 395 L623 398 L625 398 L627 396 L616 393 Z M517 387 L516 389 L527 390 L539 393 L540 394 L539 398 L545 399 L552 403 L561 402 L563 404 L563 407 L567 411 L566 419 L570 422 L568 430 L572 436 L570 447 L576 455 L575 466 L577 471 L573 474 L563 478 L559 481 L559 483 L562 482 L565 479 L572 477 L577 474 L582 467 L585 465 L586 466 L585 471 L587 476 L594 480 L599 479 L603 484 L599 490 L599 496 L602 500 L596 506 L592 507 L587 505 L574 505 L567 501 L563 502 L574 507 L571 512 L574 517 L572 521 L572 532 L570 535 L570 542 L572 546 L572 564 L570 567 L570 592 L567 599 L566 626 L565 627 L566 636 L568 638 L568 632 L567 631 L568 610 L569 609 L569 599 L573 595 L572 594 L572 587 L571 586 L572 585 L572 568 L575 559 L575 551 L572 540 L572 536 L575 528 L574 524 L575 520 L574 510 L577 506 L579 507 L585 506 L589 508 L597 508 L602 504 L603 498 L601 495 L601 491 L603 489 L605 483 L600 477 L596 477 L595 478 L588 474 L587 471 L588 469 L588 462 L587 461 L579 468 L577 465 L577 460 L579 454 L572 447 L574 439 L574 436 L570 429 L572 425 L572 422 L568 418 L569 411 L565 406 L563 401 L569 399 L568 398 L561 398 L553 393 L542 393 L539 391 L536 391 L528 388 Z M725 377 L726 379 L732 379 L733 378 L734 379 L754 379 L761 382 L777 384 L784 386 L806 397 L807 399 L831 416 L836 421 L833 425 L835 427 L839 427 L839 423 L837 421 L838 420 L842 420 L848 423 L846 425 L848 428 L848 424 L852 422 L852 421 L844 420 L842 418 L836 418 L809 396 L795 387 L792 388 L780 382 L760 379 L751 376 L746 376 L745 377 L726 376 Z M464 360 L463 363 L458 363 L457 364 L447 361 L448 360 L452 360 L457 357 Z M475 356 L476 357 L474 360 L475 362 L473 364 L470 364 L467 362 L468 361 L466 360 L472 356 Z M577 352 L573 352 L563 356 L555 357 L549 360 L541 360 L534 364 L530 364 L529 363 L513 363 L506 365 L494 365 L488 363 L481 363 L476 360 L479 357 L479 355 L477 353 L471 354 L466 357 L455 356 L452 358 L448 358 L447 359 L428 358 L421 360 L418 359 L404 360 L395 363 L387 368 L385 368 L380 372 L366 379 L358 385 L352 387 L330 402 L319 413 L325 410 L331 404 L344 396 L347 393 L383 372 L402 363 L408 364 L414 361 L417 362 L436 361 L437 362 L443 362 L447 364 L452 364 L456 366 L460 365 L480 366 L481 365 L489 367 L503 368 L510 366 L525 365 L530 368 L539 368 L539 366 L536 365 L542 362 L549 363 L557 359 L565 358 L568 356 L572 356 L577 353 Z M794 340 L795 339 L796 340 L795 341 Z M792 339 L793 338 L794 339 L793 340 Z M710 297 L711 296 L713 297 L712 298 Z M708 296 L709 295 L711 296 L710 297 Z M705 294 L709 299 L712 300 L716 299 L716 297 L710 293 L706 293 Z M435 290 L436 289 L437 290 L436 291 Z M534 275 L533 276 L537 287 L542 293 L542 291 L540 289 L536 280 L536 277 Z M539 270 L540 273 L543 276 L552 280 L554 279 L548 277 Z M557 267 L557 269 L559 270 L567 268 L581 268 L584 266 L594 267 L595 268 L608 268 L606 266 L600 265 L598 263 L601 262 L601 261 L597 261 L595 263 L592 263 L585 260 L583 258 L574 257 L569 254 L566 255 L566 257 L570 257 L574 259 L579 259 L586 263 L581 266 L575 266 L574 267 L573 266 L561 267 L559 265 Z M532 254 L526 257 L524 260 L528 259 Z M616 243 L616 244 L621 245 L621 243 Z M537 243 L535 243 L530 246 L527 246 L517 251 L510 250 L501 255 L496 256 L490 259 L483 264 L486 264 L509 253 L517 253 L523 250 L528 249 L535 246 Z M595 238 L595 239 L602 240 L606 242 L610 242 L603 238 Z M691 237 L692 236 L693 237 L692 238 Z M579 231 L579 233 L584 233 L585 232 L583 230 Z M680 219 L687 226 L692 236 L689 239 L684 233 L684 228 L679 223 Z M678 219 L679 218 L680 219 L679 220 Z M675 215 L674 218 L677 221 L677 224 L682 229 L683 236 L689 242 L691 243 L694 242 L696 239 L689 225 L681 216 Z M578 212 L579 211 L580 212 L579 213 Z M579 211 L580 210 L583 211 L582 212 Z M643 209 L646 211 L649 211 L649 210 L645 208 Z M587 209 L585 207 L581 207 L572 213 L568 214 L568 215 L573 215 L577 212 L579 213 L575 217 L571 217 L567 219 L562 224 L555 222 L554 223 L555 226 L552 228 L552 230 L559 227 L562 227 L565 224 L569 223 L571 221 L574 222 L576 219 L587 211 Z M609 203 L609 204 L620 207 L622 206 L619 204 Z M548 202 L540 205 L533 212 L547 204 Z M576 188 L573 188 L560 193 L553 197 L550 201 L556 199 L558 197 L571 191 L576 190 Z M617 186 L617 187 L623 190 L636 191 L635 189 Z M597 183 L591 184 L587 186 L588 187 L593 186 Z M640 182 L641 181 L643 182 L642 183 Z M599 183 L605 182 L605 181 L600 181 Z M583 177 L609 177 L610 178 L619 178 L620 179 L632 180 L634 182 L644 186 L652 193 L666 199 L667 198 L665 196 L654 192 L642 183 L643 182 L648 182 L667 187 L673 191 L692 213 L717 249 L753 293 L756 298 L793 338 L791 339 L780 333 L772 331 L763 327 L743 324 L733 320 L715 320 L710 322 L700 321 L693 323 L674 323 L664 320 L658 320 L642 324 L636 324 L631 322 L623 322 L619 320 L608 320 L607 319 L601 319 L600 320 L582 319 L581 320 L582 321 L593 321 L594 322 L603 322 L604 321 L616 322 L621 324 L634 325 L635 326 L646 326 L655 323 L667 323 L671 325 L677 325 L678 326 L681 325 L689 326 L696 324 L711 324 L716 322 L720 322 L721 323 L732 322 L742 326 L762 329 L766 332 L774 333 L805 348 L824 363 L839 378 L851 394 L857 407 L862 423 L868 433 L866 434 L859 427 L855 428 L853 431 L861 439 L863 439 L865 435 L868 434 L884 467 L892 488 L906 516 L905 518 L901 518 L896 514 L896 517 L911 533 L913 533 L915 535 L916 538 L916 553 L909 569 L909 576 L910 577 L911 576 L911 569 L914 563 L915 564 L915 588 L914 589 L912 609 L907 619 L907 627 L909 635 L909 646 L910 647 L911 708 L907 724 L905 746 L904 747 L904 765 L905 766 L903 767 L898 764 L901 759 L900 757 L896 762 L894 767 L894 778 L903 796 L903 799 L902 800 L901 820 L900 821 L899 835 L897 841 L896 854 L895 855 L895 860 L894 861 L894 866 L893 867 L893 872 L892 873 L889 892 L886 901 L885 948 L884 949 L884 957 L883 958 L882 970 L880 975 L880 980 L876 996 L873 1001 L870 1011 L867 1015 L868 1018 L864 1029 L860 1037 L853 1047 L852 1046 L852 1041 L857 1031 L859 1023 L864 1015 L864 1013 L862 1011 L862 1005 L866 998 L864 998 L859 1007 L851 1016 L844 1033 L844 1036 L848 1030 L853 1016 L859 1010 L861 1013 L860 1017 L857 1021 L855 1030 L853 1032 L849 1045 L849 1049 L853 1054 L844 1071 L843 1078 L840 1086 L828 1100 L820 1114 L808 1130 L806 1130 L793 1143 L792 1146 L784 1157 L763 1179 L735 1201 L721 1209 L714 1215 L711 1216 L706 1215 L704 1216 L700 1221 L695 1224 L680 1225 L679 1226 L637 1227 L636 1226 L628 1226 L627 1225 L597 1224 L596 1223 L575 1223 L574 1222 L564 1222 L563 1221 L553 1221 L552 1220 L527 1219 L526 1218 L497 1216 L496 1215 L488 1215 L480 1213 L472 1213 L471 1212 L456 1211 L448 1209 L433 1208 L432 1207 L414 1205 L401 1202 L390 1202 L385 1200 L373 1199 L354 1194 L338 1194 L325 1186 L301 1167 L302 1156 L300 1150 L297 1146 L271 1095 L267 1090 L266 1086 L268 1084 L272 1084 L272 1079 L270 1074 L271 1071 L271 1063 L270 1062 L271 1055 L270 1054 L270 1050 L273 1046 L277 1045 L278 1033 L280 1029 L278 1003 L280 998 L280 991 L281 990 L280 974 L281 973 L282 960 L277 943 L275 941 L275 931 L277 925 L282 921 L284 922 L287 921 L288 919 L288 911 L291 908 L295 910 L298 908 L301 896 L301 882 L302 881 L302 873 L303 872 L302 871 L302 867 L303 866 L302 857 L309 850 L312 844 L313 840 L313 818 L317 811 L317 807 L315 804 L315 791 L313 788 L309 790 L308 789 L309 773 L303 762 L299 758 L294 756 L286 747 L280 737 L280 734 L282 730 L282 724 L278 721 L281 714 L281 707 L282 706 L282 700 L279 695 L279 686 L281 681 L279 677 L276 677 L273 679 L271 677 L271 675 L275 670 L272 661 L274 654 L274 649 L273 646 L268 643 L269 632 L267 627 L267 621 L269 613 L272 610 L268 614 L268 616 L265 621 L267 646 L260 661 L261 675 L259 680 L259 687 L256 693 L256 702 L253 712 L253 725 L250 732 L249 747 L247 750 L245 745 L243 745 L244 748 L244 757 L242 761 L242 772 L243 773 L240 780 L240 786 L237 793 L236 792 L236 786 L234 788 L233 787 L237 782 L234 781 L231 785 L227 797 L227 804 L220 815 L220 820 L222 824 L221 837 L224 842 L224 846 L218 856 L218 862 L214 875 L213 874 L213 849 L210 844 L210 840 L212 836 L212 831 L213 830 L213 819 L215 812 L215 806 L220 790 L224 785 L225 777 L222 773 L222 765 L221 765 L219 769 L220 772 L223 774 L223 781 L222 785 L218 790 L217 796 L215 799 L214 798 L215 792 L213 788 L213 771 L214 770 L214 763 L216 757 L214 757 L213 762 L211 764 L209 763 L207 758 L211 741 L215 737 L216 738 L214 742 L214 749 L215 751 L217 752 L221 749 L224 750 L223 747 L221 747 L217 750 L215 748 L215 743 L217 739 L216 736 L222 731 L228 723 L231 716 L231 714 L228 718 L227 717 L227 710 L229 707 L229 703 L230 702 L230 700 L228 701 L227 700 L229 693 L229 683 L227 683 L225 685 L225 687 L226 686 L227 687 L227 693 L224 700 L224 710 L222 712 L220 711 L220 708 L218 706 L218 700 L219 699 L222 680 L224 675 L229 646 L234 629 L236 614 L240 601 L243 583 L246 575 L246 571 L247 570 L248 571 L248 589 L247 590 L246 608 L250 621 L249 646 L247 650 L246 658 L248 657 L251 634 L252 633 L251 610 L254 605 L258 589 L259 588 L260 589 L260 596 L263 599 L266 599 L269 596 L269 589 L276 577 L277 568 L282 564 L285 567 L285 572 L279 583 L280 588 L282 590 L282 596 L285 599 L283 604 L281 605 L282 607 L285 605 L287 599 L284 595 L284 590 L281 584 L281 582 L287 572 L287 567 L285 563 L282 562 L275 568 L274 577 L267 589 L267 596 L266 597 L262 596 L262 588 L260 584 L262 579 L261 575 L260 576 L260 580 L256 588 L255 596 L250 603 L249 602 L250 568 L251 567 L250 558 L254 549 L255 552 L253 556 L253 559 L255 565 L256 576 L258 577 L257 575 L257 564 L254 558 L256 556 L259 546 L262 545 L264 541 L265 543 L267 541 L269 534 L267 533 L266 540 L265 541 L264 538 L259 546 L258 545 L256 548 L255 547 L255 536 L258 530 L265 524 L268 518 L268 509 L272 504 L274 504 L276 506 L279 506 L283 502 L284 497 L288 492 L292 484 L289 486 L285 492 L282 500 L278 505 L275 502 L279 498 L280 499 L281 497 L275 502 L272 502 L269 505 L267 502 L264 506 L261 514 L259 510 L260 493 L262 492 L267 497 L275 497 L281 491 L283 487 L295 475 L296 470 L299 467 L305 464 L316 452 L318 452 L320 454 L323 461 L323 470 L316 477 L314 483 L311 486 L306 488 L301 487 L297 490 L294 496 L294 501 L292 506 L284 515 L285 521 L288 527 L287 539 L289 541 L291 541 L296 538 L297 536 L295 536 L290 539 L289 538 L290 527 L287 521 L286 515 L293 508 L296 501 L296 497 L298 492 L302 489 L306 490 L311 488 L315 484 L318 478 L324 472 L325 470 L325 460 L320 450 L315 450 L304 462 L298 465 L295 468 L293 474 L282 485 L274 495 L273 494 L269 495 L268 493 L261 489 L263 485 L264 471 L266 466 L274 459 L286 451 L317 437 L326 431 L335 423 L351 416 L352 417 L356 417 L364 413 L382 408 L389 408 L397 406 L402 407 L403 406 L401 405 L402 404 L409 402 L420 396 L424 396 L425 395 L432 395 L433 394 L438 394 L450 391 L473 390 L474 389 L481 389 L482 388 L511 388 L512 386 L497 386 L496 387 L478 386 L477 387 L470 387 L469 388 L452 388 L439 392 L431 392 L418 395 L412 394 L411 395 L404 395 L398 397 L394 396 L380 401 L368 403 L355 408 L323 429 L317 435 L308 438 L306 440 L294 445 L292 443 L281 451 L280 450 L281 442 L283 440 L284 435 L286 432 L286 429 L284 427 L285 424 L308 396 L375 338 L412 310 L431 294 L434 294 L441 290 L443 290 L445 288 L456 283 L460 279 L473 273 L475 270 L470 273 L461 276 L454 282 L438 290 L436 289 L462 268 L472 258 L478 254 L505 227 L527 212 L527 209 L544 194 L553 188 L567 181 Z M662 182 L645 179 L644 178 L622 176 L614 174 L597 174 L596 173 L580 174 L562 180 L541 192 L519 213 L506 222 L454 271 L404 312 L370 338 L344 360 L317 385 L302 397 L294 409 L279 427 L267 446 L267 449 L262 464 L262 480 L260 483 L257 494 L257 517 L258 518 L258 524 L252 537 L253 545 L250 554 L246 561 L246 565 L243 573 L242 580 L239 586 L237 601 L232 619 L232 625 L225 650 L223 667 L220 675 L215 704 L209 706 L204 713 L204 720 L208 725 L212 727 L212 730 L208 746 L206 750 L206 753 L204 757 L204 762 L202 769 L202 779 L201 780 L201 794 L200 795 L199 820 L198 821 L198 852 L197 853 L197 863 L196 864 L195 895 L194 896 L194 903 L193 904 L193 948 L194 949 L194 954 L197 960 L198 977 L199 978 L199 992 L203 1002 L204 1012 L210 1027 L221 1041 L222 1046 L228 1055 L230 1061 L237 1068 L242 1078 L249 1086 L252 1088 L264 1091 L269 1097 L284 1127 L286 1129 L292 1143 L298 1152 L300 1158 L298 1163 L298 1168 L303 1173 L339 1200 L346 1201 L348 1207 L353 1210 L360 1210 L365 1212 L369 1212 L380 1217 L403 1219 L410 1221 L455 1221 L456 1220 L497 1219 L504 1221 L547 1223 L548 1224 L558 1224 L559 1225 L567 1225 L568 1226 L578 1226 L586 1228 L590 1228 L595 1226 L601 1226 L608 1228 L609 1227 L610 1228 L631 1229 L636 1231 L639 1230 L654 1231 L655 1230 L668 1230 L669 1229 L683 1229 L684 1228 L691 1228 L705 1224 L714 1219 L722 1212 L730 1208 L740 1201 L769 1178 L791 1155 L798 1156 L802 1155 L805 1152 L805 1140 L811 1133 L831 1101 L838 1094 L845 1083 L847 1073 L853 1063 L855 1055 L862 1048 L862 1037 L864 1035 L864 1033 L868 1026 L869 1021 L873 1020 L876 1013 L877 1005 L882 986 L882 982 L883 981 L883 977 L884 976 L884 972 L885 971 L885 962 L887 957 L888 924 L889 923 L889 899 L893 890 L895 873 L896 872 L898 856 L899 855 L901 834 L904 821 L905 798 L911 794 L913 788 L912 786 L912 777 L906 766 L907 762 L907 744 L908 743 L908 737 L910 729 L910 722 L913 715 L913 651 L912 650 L912 637 L911 636 L909 622 L915 609 L915 598 L918 587 L917 562 L918 561 L918 551 L919 550 L919 537 L895 488 L891 476 L877 446 L877 444 L865 423 L862 411 L852 390 L838 372 L829 363 L796 338 L791 333 L789 328 L764 303 L745 278 L726 256 L698 216 L682 196 L673 187 Z" fill="#eef3f4" fill-rule="evenodd"/>
</svg>
