<svg xmlns="http://www.w3.org/2000/svg" width="1086" height="1448" viewBox="0 0 1086 1448">
  <title>0353</title>
  <path d="M542 1235 L543 1234 L544 1235 L543 1236 Z M546 1234 L547 1233 L549 1234 L548 1235 Z M571 1231 L572 1230 L575 1231 L574 1232 Z M575 1230 L576 1229 L578 1230 L577 1231 Z M578 1229 L579 1228 L581 1229 L580 1230 Z M580 1228 L581 1227 L583 1228 L582 1229 Z M445 1218 L446 1217 L447 1218 L446 1219 Z M443 1217 L444 1216 L445 1217 L444 1218 Z M450 1210 L455 1215 L460 1216 Z M627 1203 L618 1207 L617 1209 L625 1206 Z M643 1199 L644 1198 L646 1199 L645 1200 Z M645 1198 L646 1197 L647 1198 L646 1199 Z M643 1196 L644 1195 L645 1196 L644 1197 Z M645 1195 L646 1194 L647 1195 L646 1196 Z M388 1195 L390 1194 L396 1198 L395 1199 L389 1199 Z M646 1194 L647 1193 L648 1194 L647 1195 Z M656 1193 L649 1198 L646 1197 L654 1192 Z M648 1193 L649 1192 L650 1193 L649 1194 Z M610 1193 L611 1192 L612 1193 L611 1194 Z M576 1193 L577 1195 L581 1195 L582 1199 L586 1202 L589 1202 L593 1200 L600 1194 L600 1193 L589 1200 L586 1200 L582 1194 Z M655 1192 L656 1191 L657 1192 L656 1193 Z M649 1192 L650 1191 L651 1192 L650 1193 Z M621 1192 L619 1192 L618 1196 L621 1194 Z M612 1192 L613 1191 L616 1192 L615 1193 Z M550 1192 L547 1193 L542 1198 L540 1197 L528 1197 L527 1198 L530 1197 L533 1200 L533 1203 L530 1206 L519 1209 L513 1215 L506 1214 L504 1210 L505 1209 L510 1209 L514 1205 L519 1205 L519 1204 L513 1203 L509 1208 L508 1207 L505 1208 L502 1212 L497 1209 L492 1210 L489 1215 L481 1214 L476 1219 L468 1219 L467 1218 L465 1218 L465 1219 L469 1221 L477 1221 L483 1215 L488 1217 L491 1216 L494 1211 L497 1211 L499 1213 L507 1216 L514 1216 L518 1211 L521 1211 L527 1208 L532 1207 L536 1199 L543 1199 Z M656 1191 L657 1190 L658 1191 L657 1192 Z M650 1191 L651 1190 L653 1191 L652 1192 Z M552 1191 L553 1193 L561 1195 L566 1195 L567 1194 L566 1193 L560 1193 Z M652 1190 L654 1188 L656 1189 L654 1191 Z M617 1191 L615 1189 L613 1189 L608 1192 L602 1193 L602 1195 L610 1193 L611 1194 L610 1196 L612 1197 L611 1199 L613 1200 L607 1202 L601 1209 L595 1213 L583 1219 L577 1220 L572 1223 L571 1225 L573 1225 L579 1221 L587 1219 L603 1210 L609 1203 L611 1203 L615 1200 L616 1198 L611 1196 L615 1194 Z M674 1180 L675 1179 L676 1180 L675 1181 Z M678 1177 L679 1176 L680 1177 L679 1178 Z M679 1176 L680 1175 L681 1176 L680 1177 Z M680 1175 L681 1174 L682 1175 L681 1176 Z M681 1174 L682 1173 L684 1174 L683 1175 Z M683 1173 L684 1172 L685 1173 L684 1174 Z M684 1172 L685 1171 L686 1172 L685 1173 Z M685 1171 L686 1170 L687 1171 L686 1172 Z M686 1170 L687 1169 L688 1170 L687 1171 Z M687 1169 L688 1168 L689 1169 L688 1170 Z M688 1168 L689 1167 L690 1168 L689 1169 Z M689 1167 L690 1166 L691 1167 L690 1168 Z M690 1166 L691 1165 L692 1166 L691 1167 Z M691 1165 L692 1164 L693 1165 L692 1166 Z M692 1164 L693 1163 L694 1164 L693 1165 Z M431 1163 L432 1162 L433 1163 L432 1164 Z M636 1161 L635 1160 L629 1167 L631 1167 Z M702 1153 L703 1155 L694 1164 L693 1162 Z M702 1153 L703 1152 L704 1153 L703 1154 Z M703 1152 L704 1151 L705 1152 L704 1153 Z M704 1151 L705 1150 L706 1151 L705 1152 Z M705 1150 L706 1149 L707 1150 L706 1151 Z M706 1149 L707 1148 L708 1149 L707 1150 Z M493 1149 L490 1153 L489 1160 L495 1166 L495 1169 L498 1173 L502 1175 L505 1175 L509 1173 L512 1169 L509 1162 L511 1158 L511 1151 L508 1149 L510 1157 L507 1161 L510 1169 L505 1173 L501 1173 L497 1169 L497 1166 L491 1160 L492 1153 L495 1149 L497 1150 L499 1148 L500 1149 L503 1148 L504 1149 L502 1154 L502 1157 L503 1157 L503 1155 L506 1150 L504 1147 Z M652 1138 L646 1143 L644 1149 L646 1148 L648 1143 Z M666 1121 L663 1122 L657 1128 L656 1131 Z M688 1099 L686 1099 L683 1106 L673 1113 L670 1117 L673 1116 L685 1105 Z M708 1094 L709 1093 L710 1094 L709 1095 Z M440 1092 L438 1092 L439 1098 L437 1102 L438 1105 L439 1105 L439 1101 L440 1100 Z M745 1083 L746 1084 L745 1087 L744 1086 Z M715 1066 L711 1066 L708 1068 L699 1082 L688 1095 L688 1097 L689 1097 L697 1085 L704 1079 L704 1077 L707 1072 L711 1068 L712 1069 L714 1068 L715 1069 L715 1074 L707 1089 L707 1093 L709 1095 L709 1097 L706 1103 L709 1101 L712 1095 L712 1092 L711 1091 L709 1093 L708 1091 L710 1089 L710 1086 L717 1074 L717 1068 Z M442 1065 L440 1067 L440 1069 L437 1074 L438 1076 L437 1077 L437 1086 L439 1085 L439 1077 L438 1075 L441 1071 Z M463 1060 L454 1059 L453 1058 L452 1059 L448 1059 L444 1062 L444 1064 L450 1060 L456 1060 L457 1061 L463 1061 Z M496 1064 L485 1053 L484 1054 L491 1059 L493 1062 L491 1067 L492 1069 L491 1073 L476 1068 L471 1062 L465 1063 L466 1065 L471 1064 L476 1070 L484 1072 L489 1075 L494 1073 L493 1067 Z M753 1052 L745 1070 L745 1074 L747 1072 L753 1057 Z M518 1047 L518 1048 L521 1048 L521 1047 Z M363 1038 L364 1037 L365 1038 L364 1039 Z M476 1037 L477 1036 L478 1037 L477 1038 Z M572 1023 L570 1028 L559 1038 L565 1035 L572 1028 L573 1026 Z M620 1022 L617 1026 L618 1028 Z M681 1011 L680 1012 L680 1021 L683 1024 L683 1028 L685 1031 L685 1035 L682 1041 L684 1049 L677 1066 L677 1071 L671 1081 L672 1087 L671 1088 L671 1095 L668 1099 L668 1103 L669 1104 L671 1104 L677 1098 L682 1096 L682 1094 L680 1094 L670 1103 L669 1102 L673 1094 L672 1089 L676 1085 L675 1083 L674 1085 L673 1084 L673 1080 L676 1077 L677 1070 L679 1068 L679 1065 L685 1050 L684 1049 L684 1040 L686 1037 L687 1032 L681 1019 L681 1017 L684 1012 L683 1013 Z M684 1004 L685 1009 L686 1009 L687 1006 L686 1004 Z M439 1002 L440 1005 L444 1009 L446 1013 L448 1014 L445 1008 Z M632 1001 L631 1001 L631 1003 L628 1008 L631 1006 Z M475 1001 L476 1003 L481 1004 L481 1003 Z M441 995 L442 994 L443 995 L442 996 Z M427 992 L427 995 L429 999 L430 999 L430 996 Z M606 991 L604 991 L593 999 L590 999 L587 1002 L582 1004 L579 1007 L576 1015 L573 1018 L572 1021 L574 1021 L579 1013 L579 1010 L582 1006 L590 1001 L594 1000 L602 994 L605 993 Z M447 991 L448 990 L459 998 L466 1000 L468 1002 L467 1004 L463 1005 L462 1003 L454 1002 L447 997 L446 995 Z M623 989 L624 988 L625 989 L624 990 Z M624 988 L625 987 L626 988 L625 989 Z M625 987 L626 986 L627 987 L626 988 Z M626 986 L627 985 L628 986 L627 987 Z M435 986 L436 985 L437 986 L436 987 Z M434 985 L435 984 L436 985 L435 986 Z M606 981 L607 980 L608 981 L607 982 Z M630 979 L627 981 L622 989 L612 1000 L609 1005 L583 1028 L565 1041 L555 1046 L538 1051 L509 1052 L508 1051 L499 1050 L487 1045 L477 1038 L478 1037 L481 1038 L473 1028 L471 1028 L473 1032 L477 1036 L475 1037 L460 1021 L448 1005 L443 1000 L442 1001 L451 1011 L465 1030 L475 1039 L484 1045 L494 1050 L505 1053 L511 1053 L512 1054 L534 1053 L535 1052 L545 1051 L559 1046 L582 1031 L589 1024 L599 1017 L612 1004 L623 990 L624 992 L628 989 L630 985 L628 986 L627 984 Z M419 979 L421 983 L424 985 L423 982 Z M637 974 L635 974 L633 980 L636 978 Z M616 969 L618 974 L614 978 L608 981 L607 979 L610 975 L610 972 L608 970 L609 969 Z M424 970 L423 971 L424 974 L430 980 L433 985 L433 987 L437 991 L438 994 L442 998 L443 998 L442 996 L444 995 L450 1001 L456 1005 L461 1004 L463 1006 L464 1014 L469 1019 L468 1020 L471 1022 L472 1020 L466 1014 L465 1008 L472 1001 L470 1001 L466 998 L462 998 L454 993 L449 988 L447 988 L444 993 L442 992 L441 995 L437 992 L436 989 L438 984 L435 981 L433 983 Z M443 975 L443 973 L446 970 L451 968 L489 968 L490 969 L514 969 L515 970 L518 969 L540 969 L541 968 L543 969 L550 969 L551 968 L559 968 L560 969 L575 969 L584 972 L589 972 L596 969 L602 968 L608 972 L604 982 L598 986 L581 990 L576 990 L575 991 L567 991 L566 992 L558 991 L557 992 L544 993 L543 994 L504 992 L491 989 L484 986 L476 985 L468 982 L464 982 L460 980 L449 978 Z M372 972 L369 975 L368 980 L362 985 L362 990 L359 993 L358 997 L356 999 L353 999 L347 1007 L347 1011 L351 1018 L351 1020 L350 1021 L347 1018 L348 1029 L344 1031 L345 1037 L350 1043 L350 1050 L352 1053 L352 1062 L355 1068 L361 1074 L363 1085 L376 1102 L377 1107 L383 1114 L387 1117 L390 1117 L391 1115 L391 1110 L393 1107 L391 1099 L391 1094 L393 1091 L399 1105 L405 1110 L410 1110 L412 1115 L416 1117 L416 1124 L423 1139 L423 1147 L422 1148 L423 1151 L428 1158 L429 1164 L432 1167 L438 1169 L439 1168 L439 1163 L440 1162 L441 1164 L443 1164 L446 1159 L445 1158 L446 1152 L443 1146 L440 1133 L441 1118 L439 1110 L438 1109 L438 1115 L439 1116 L438 1132 L439 1133 L440 1141 L444 1151 L443 1154 L444 1159 L443 1160 L440 1159 L437 1164 L438 1166 L436 1167 L432 1164 L434 1162 L433 1156 L431 1157 L432 1158 L432 1162 L431 1163 L429 1156 L424 1149 L425 1142 L421 1130 L418 1125 L417 1121 L418 1114 L416 1111 L415 1112 L416 1113 L414 1114 L410 1109 L410 1107 L407 1109 L403 1107 L397 1097 L396 1092 L394 1089 L392 1089 L389 1095 L391 1101 L391 1107 L389 1109 L389 1113 L390 1114 L387 1115 L381 1109 L376 1100 L376 1097 L378 1095 L378 1088 L376 1084 L374 1083 L372 1085 L373 1088 L375 1086 L377 1089 L376 1095 L374 1097 L364 1083 L364 1078 L362 1072 L357 1068 L356 1064 L354 1062 L354 1052 L352 1050 L352 1043 L347 1036 L347 1030 L348 1029 L349 1032 L351 1031 L351 1027 L349 1023 L353 1021 L353 1018 L349 1011 L349 1007 L350 1006 L351 1008 L353 1007 L352 1003 L355 1000 L357 1004 L357 1007 L360 1012 L359 1015 L361 1017 L361 1022 L363 1028 L363 1035 L364 1037 L363 1038 L361 1037 L361 1038 L371 1045 L370 1049 L371 1057 L364 1064 L365 1071 L368 1077 L370 1078 L366 1068 L366 1064 L373 1057 L372 1054 L373 1045 L372 1043 L365 1039 L367 1037 L365 1035 L365 1028 L364 1027 L364 1023 L362 1020 L363 1017 L362 1016 L362 1012 L359 1007 L358 999 L364 991 L364 986 L370 980 L371 975 L373 974 L376 976 L385 972 L386 969 L376 974 L375 972 Z M580 968 L585 966 L594 966 L595 967 L588 970 Z M434 969 L440 963 L449 966 L441 973 L439 973 Z M467 964 L472 961 L476 961 L483 964 L490 964 L491 965 L501 965 L505 963 L527 963 L528 964 L542 964 L543 965 L550 965 L551 966 L550 967 L522 967 L521 968 L511 968 L508 967 L506 968 L505 967 L488 967 L487 966 L468 966 Z M409 961 L401 967 L399 967 L394 964 L385 964 L383 967 L384 968 L386 966 L394 966 L398 969 L401 969 L405 967 L409 963 Z M468 960 L469 959 L470 960 L469 961 Z M446 962 L456 959 L457 960 L464 959 L469 961 L461 966 L453 966 Z M557 956 L558 958 L563 958 L564 959 L566 958 L566 957 L563 956 Z M439 954 L438 953 L436 954 L434 957 Z M556 951 L557 950 L558 951 L557 952 Z M512 947 L513 946 L514 947 L513 948 Z M509 946 L510 945 L512 946 L511 947 Z M471 946 L472 945 L474 946 L473 947 Z M589 945 L589 947 L597 950 L599 952 L601 952 L616 960 L618 960 L617 958 Z M507 945 L508 944 L510 945 L509 946 Z M506 944 L507 943 L508 944 L507 945 Z M253 943 L254 942 L255 944 L254 945 Z M579 941 L580 940 L581 941 L580 942 Z M500 940 L501 939 L502 940 L501 941 Z M430 967 L434 972 L442 977 L459 983 L467 984 L499 993 L504 993 L505 994 L545 996 L546 995 L553 995 L554 994 L576 993 L577 992 L582 992 L599 988 L612 982 L619 976 L618 973 L619 972 L619 968 L625 966 L627 968 L627 965 L623 962 L620 962 L622 964 L621 966 L615 966 L614 967 L600 966 L599 963 L603 962 L604 959 L593 955 L589 956 L584 960 L583 959 L569 957 L579 961 L586 961 L591 957 L595 957 L601 960 L600 961 L595 961 L593 964 L583 964 L574 967 L567 965 L570 964 L563 964 L567 966 L566 967 L562 967 L561 966 L553 966 L552 965 L553 964 L549 964 L548 963 L528 962 L527 961 L506 961 L504 964 L486 963 L474 959 L475 958 L490 958 L491 957 L492 958 L500 958 L501 959 L503 959 L503 958 L496 954 L491 955 L486 949 L472 943 L473 942 L477 941 L477 940 L474 940 L466 943 L465 942 L464 943 L460 943 L446 949 L445 951 L447 951 L457 946 L469 944 L470 947 L476 950 L477 947 L487 952 L486 953 L483 953 L479 951 L479 953 L487 954 L488 955 L487 956 L449 957 L444 960 L439 957 L437 958 L438 962 L434 966 Z M499 939 L500 938 L501 939 L500 940 Z M255 938 L256 939 L255 943 L254 942 Z M498 938 L499 937 L500 938 L499 939 Z M497 937 L498 936 L499 937 L498 938 Z M560 935 L558 935 L545 944 L538 947 L541 948 L547 945 L553 940 L559 937 Z M632 934 L633 948 L635 953 L636 953 L636 949 L634 947 L635 943 L634 936 Z M586 941 L576 937 L563 934 L566 937 L574 939 L567 941 L562 944 L561 947 L558 950 L557 949 L550 950 L535 956 L539 956 L548 952 L556 951 L557 952 L553 955 L554 957 L559 952 L561 948 L568 942 L575 941 L579 943 L586 942 Z M258 933 L263 941 L266 943 L266 955 L267 956 L266 958 L254 951 L256 949 L256 947 L254 945 L258 942 L258 939 L256 935 Z M485 936 L485 937 L488 937 L491 935 L494 935 L500 942 L507 947 L522 952 L528 952 L528 951 L521 951 L519 949 L520 948 L522 949 L533 949 L534 947 L518 947 L510 943 L505 944 L501 941 L503 939 L498 935 L497 936 L494 933 L488 934 Z M658 931 L657 933 L659 938 L664 942 L665 945 L664 951 L661 954 L658 961 L659 969 L662 974 L667 979 L673 981 L681 990 L681 993 L678 996 L675 1002 L676 1005 L680 1009 L677 1001 L680 995 L683 993 L683 990 L678 983 L673 979 L670 979 L660 968 L662 965 L660 960 L667 947 L665 941 L662 940 Z M243 923 L247 933 L249 934 L246 925 Z M560 917 L560 931 L561 931 L561 918 Z M255 915 L258 919 L256 924 L254 918 Z M666 915 L664 916 L663 919 L664 920 L658 926 L658 929 L660 928 L661 924 L664 921 L665 922 L666 921 Z M629 915 L628 916 L629 922 L631 924 L631 919 Z M498 915 L496 923 L496 928 L499 931 L498 927 L499 926 L499 915 Z M333 909 L334 908 L335 909 L334 910 Z M739 907 L741 913 L745 915 L743 921 L747 933 L746 934 L742 929 L739 931 L726 963 L725 962 L726 952 L737 918 L738 908 Z M332 907 L333 906 L334 908 L333 909 Z M738 904 L739 905 L738 908 L737 907 Z M330 904 L331 903 L333 906 L332 907 Z M626 903 L626 907 L628 912 L629 912 L628 906 Z M736 901 L737 900 L738 902 L737 903 Z M753 898 L754 897 L755 898 L754 899 Z M735 898 L736 897 L737 899 L736 900 Z M253 896 L257 902 L257 906 L255 910 L252 901 L252 897 Z M556 895 L555 899 L557 904 L557 895 Z M734 894 L735 893 L736 895 L735 896 Z M733 891 L734 890 L735 892 L734 893 Z M732 888 L733 887 L734 889 L733 890 Z M731 885 L732 884 L733 886 L732 887 Z M253 879 L256 882 L259 883 L259 886 L253 892 L252 891 L252 880 Z M690 877 L691 878 L691 884 L690 885 L689 884 L689 878 Z M356 878 L357 877 L358 878 L357 879 Z M355 877 L356 876 L357 877 L356 878 Z M354 876 L355 875 L356 876 L355 877 Z M436 873 L437 872 L438 874 L437 875 Z M437 872 L438 871 L439 872 L438 873 Z M694 868 L695 867 L696 868 L695 869 Z M695 867 L696 866 L697 867 L696 868 Z M309 866 L315 877 L330 869 L332 870 L317 881 L319 885 L320 884 L318 882 L321 879 L325 877 L326 878 L326 892 L331 902 L330 904 L322 895 L313 882 L299 888 L296 888 L291 885 L292 884 L299 884 L311 879 L311 875 L308 869 Z M696 866 L697 865 L698 866 L697 867 Z M611 865 L611 868 L614 872 L614 874 L619 883 L621 891 L623 895 L624 895 L622 886 L620 884 L616 872 Z M727 863 L732 884 L731 885 L730 884 L730 889 L735 902 L735 907 L736 908 L736 914 L732 925 L730 924 L728 915 L726 913 L727 912 L727 907 L725 899 L727 897 L728 888 L725 894 L723 886 L723 873 Z M307 861 L309 864 L308 867 L306 864 Z M683 861 L677 863 L674 869 L674 877 L676 879 L675 882 L669 888 L668 895 L665 901 L665 903 L668 904 L667 905 L668 909 L669 909 L669 904 L667 903 L667 901 L670 894 L670 889 L676 883 L677 880 L675 876 L676 867 L679 863 L683 863 L687 866 L686 863 Z M305 861 L306 860 L307 861 L306 862 Z M728 860 L726 860 L721 873 L721 887 L723 892 L723 902 L725 909 L725 915 L731 930 L723 956 L723 967 L721 971 L721 976 L723 976 L727 968 L729 960 L742 931 L748 939 L750 938 L749 931 L745 919 L758 893 L756 893 L750 900 L747 906 L749 908 L745 915 L741 908 L738 894 L735 888 L735 885 L731 874 L730 864 Z M553 860 L548 864 L539 867 L542 868 L548 866 L551 864 Z M497 860 L498 859 L499 861 L498 862 Z M496 859 L497 858 L498 859 L497 860 Z M304 859 L305 858 L306 859 L305 860 Z M339 857 L340 856 L341 857 L340 858 Z M303 857 L304 856 L305 857 L304 858 Z M554 856 L555 855 L557 856 L556 857 Z M497 856 L498 855 L500 856 L499 857 Z M338 855 L339 854 L340 855 L339 856 Z M302 855 L303 854 L304 855 L303 856 Z M572 855 L572 857 L574 856 L591 856 L591 855 L588 854 Z M301 853 L302 852 L303 854 L302 855 Z M708 852 L709 851 L710 852 L709 853 Z M300 852 L301 851 L302 852 L301 853 Z M562 851 L559 851 L552 855 L552 857 L557 859 L553 865 L555 887 L556 889 L557 887 L558 888 L559 892 L559 906 L558 907 L557 906 L557 916 L558 916 L558 913 L560 912 L560 878 L558 876 L558 883 L557 884 L556 883 L556 870 L554 866 L559 860 L560 863 L561 863 L561 861 L559 860 L556 855 Z M475 851 L477 853 L485 853 L490 855 L495 859 L497 863 L497 868 L499 870 L499 874 L496 877 L496 888 L497 889 L497 898 L500 900 L498 903 L497 902 L497 907 L496 908 L497 909 L497 913 L498 913 L501 905 L501 896 L502 895 L501 888 L499 889 L498 888 L498 881 L501 875 L501 869 L499 868 L499 863 L498 862 L500 861 L499 857 L500 856 L503 857 L508 854 L502 855 L499 852 L496 858 L489 853 L486 853 L482 851 Z M299 850 L300 849 L301 850 L300 851 Z M709 849 L710 848 L711 850 L710 851 Z M361 849 L346 862 L347 865 L355 874 L354 876 L343 865 L333 870 L331 869 L341 861 L340 859 L341 857 L343 859 L345 859 L359 848 Z M285 849 L284 850 L283 870 L285 866 Z M376 848 L377 847 L378 848 L377 849 Z M360 848 L361 847 L362 848 L361 849 Z M298 848 L299 847 L300 848 L299 849 Z M361 847 L362 846 L363 847 L362 848 Z M727 846 L724 849 L725 851 L728 850 Z M297 846 L298 845 L299 846 L298 847 Z M577 843 L578 842 L579 843 L578 844 Z M557 843 L558 842 L559 843 L558 844 Z M558 842 L559 841 L561 842 L560 843 Z M494 838 L495 837 L496 838 L495 839 Z M362 846 L366 842 L366 838 L367 837 L368 838 L373 837 L374 838 L372 841 L377 847 L375 848 L369 843 L364 847 Z M473 837 L474 842 L479 844 L474 839 L474 837 Z M373 837 L374 836 L375 837 L374 838 Z M581 842 L575 838 L566 837 L565 836 L560 836 L553 838 L547 841 L542 846 L540 851 L540 856 L545 858 L545 856 L542 853 L542 849 L545 845 L546 848 L547 848 L548 845 L551 843 L555 843 L558 846 L560 844 L562 844 L567 841 L571 841 L574 843 L573 845 L576 846 L572 850 L568 850 L569 852 L572 852 L577 848 L579 843 L581 844 Z M374 836 L375 835 L376 836 L375 837 Z M715 835 L716 834 L717 835 L716 836 Z M375 835 L376 834 L378 835 L377 836 Z M714 834 L715 833 L716 834 L715 835 Z M377 834 L378 833 L379 834 L378 835 Z M712 833 L713 832 L714 833 L713 834 Z M462 833 L460 833 L458 838 L460 845 L463 847 L460 848 L459 851 L453 854 L448 859 L445 865 L444 861 L448 853 L448 849 L446 845 L446 854 L443 859 L442 865 L435 872 L427 885 L427 892 L419 904 L422 914 L419 919 L415 935 L413 937 L408 949 L408 959 L410 959 L409 951 L412 944 L415 943 L419 924 L423 915 L423 910 L421 904 L429 892 L429 884 L431 880 L436 874 L437 875 L435 879 L436 880 L440 874 L440 870 L444 864 L446 866 L450 859 L454 855 L461 852 L462 850 L473 850 L474 849 L484 848 L484 847 L466 848 L460 841 Z M378 833 L379 832 L380 833 L379 834 Z M361 832 L362 831 L367 837 L366 838 Z M326 832 L327 831 L328 832 L327 833 Z M360 831 L361 830 L362 831 L361 832 Z M325 831 L326 830 L327 831 L326 832 Z M705 830 L704 830 L704 832 L707 835 L708 839 L708 847 L707 848 L708 852 L691 870 L691 872 L687 879 L687 884 L690 887 L692 886 L692 876 L690 874 L693 873 L711 854 L714 847 L718 846 L722 841 L721 840 L717 844 L714 844 L711 849 L709 844 L709 836 Z M479 834 L479 837 L481 838 L483 842 L491 848 L492 847 L484 840 L481 835 L484 833 L493 836 L494 837 L493 842 L497 847 L497 850 L499 850 L500 847 L495 842 L502 838 L504 839 L509 844 L509 848 L511 848 L513 850 L513 853 L510 857 L511 860 L523 864 L533 864 L540 862 L538 861 L535 863 L534 862 L515 861 L513 859 L515 853 L515 849 L514 846 L509 840 L498 833 L489 830 L485 830 Z M359 830 L360 829 L361 830 L360 831 Z M324 829 L325 828 L326 829 L325 830 Z M285 829 L283 834 L283 839 L284 839 L285 836 L285 831 L286 830 Z M358 828 L359 827 L360 828 L359 829 Z M357 827 L358 826 L359 827 L358 828 Z M323 827 L324 826 L325 827 L324 828 Z M356 826 L357 825 L358 826 L357 827 Z M322 825 L323 824 L324 825 L323 826 Z M355 824 L356 823 L357 824 L356 825 Z M354 823 L355 822 L356 823 L355 824 Z M321 823 L322 822 L323 823 L322 824 Z M319 822 L339 860 L338 862 L326 870 L322 854 L320 837 L318 832 L318 823 Z M692 822 L693 821 L695 822 L694 823 Z M466 821 L465 821 L465 824 L461 829 L467 823 Z M353 821 L354 820 L355 821 L354 822 Z M729 820 L731 819 L733 822 L731 823 Z M690 820 L691 819 L693 821 L691 822 Z M352 820 L353 819 L354 820 L353 821 Z M688 817 L689 822 L696 826 L697 829 L695 832 L695 835 L696 835 L698 832 L698 826 L695 824 L697 823 L701 826 L701 824 L698 821 L695 821 L692 818 Z M318 817 L319 816 L320 817 L319 818 Z M698 815 L697 817 L701 817 L707 823 L709 828 L713 832 L712 834 L714 837 L716 837 L717 835 L719 836 L721 835 L722 838 L726 831 L727 824 L728 823 L731 825 L733 822 L742 832 L740 837 L737 838 L737 840 L740 841 L741 838 L746 834 L747 835 L747 839 L745 841 L745 845 L747 847 L748 847 L748 845 L746 843 L748 842 L750 834 L747 835 L746 833 L750 829 L752 830 L752 834 L754 837 L754 841 L752 844 L752 851 L751 852 L748 849 L745 852 L736 869 L738 869 L746 853 L748 851 L750 854 L753 853 L754 844 L755 843 L754 832 L750 828 L744 833 L742 827 L739 826 L732 817 L730 817 L727 820 L724 828 L724 831 L722 833 L718 834 L712 829 L707 820 L701 815 Z M319 813 L317 815 L317 835 L318 836 L319 846 L322 854 L324 870 L316 875 L314 873 L299 844 L296 842 L292 847 L289 859 L292 856 L293 850 L295 846 L305 863 L310 877 L308 879 L297 883 L291 882 L289 883 L289 885 L292 888 L301 889 L306 886 L313 884 L319 894 L328 904 L330 908 L334 912 L336 912 L337 909 L328 892 L327 876 L339 868 L343 867 L357 881 L360 881 L359 877 L349 865 L348 862 L353 859 L368 845 L370 845 L375 850 L380 851 L380 849 L374 841 L385 830 L385 828 L380 832 L379 831 L376 832 L370 837 L359 825 L354 817 L351 815 L350 816 L350 820 L365 841 L348 855 L343 857 L335 845 L333 839 L328 831 L328 829 L325 825 L321 815 Z M773 804 L772 805 L772 889 L771 890 L771 912 L770 913 L769 934 L768 935 L768 941 L766 948 L767 952 L767 950 L768 949 L769 950 L768 964 L767 965 L766 977 L763 988 L763 993 L761 998 L761 1003 L759 1007 L756 1021 L751 1036 L749 1039 L747 1049 L748 1049 L752 1039 L752 1036 L762 1006 L762 1002 L764 998 L764 993 L765 992 L765 986 L768 975 L769 964 L770 963 L771 942 L772 941 L772 933 L773 932 L773 847 L774 846 L774 809 L773 808 Z M466 803 L464 805 L464 817 L465 817 Z M459 803 L457 806 L456 814 L455 815 L455 823 L458 831 L459 828 L457 825 L457 813 L460 805 Z M292 803 L291 803 L290 807 L290 815 L291 815 L292 811 Z M579 784 L581 793 L583 795 L582 788 L580 784 Z M291 784 L289 786 L287 794 L287 798 L288 799 L291 788 Z M472 783 L467 787 L463 793 L462 799 Z M268 780 L269 782 L267 784 L266 782 Z M268 780 L269 779 L270 780 L269 781 Z M540 773 L540 778 L541 781 L542 781 L541 773 Z M598 771 L599 770 L600 772 L599 773 Z M302 770 L300 774 L300 782 L298 788 L298 793 L299 793 L301 785 Z M574 768 L575 769 L574 773 L573 772 Z M244 769 L244 780 L246 784 L245 795 L246 795 L248 790 L248 786 L246 782 L245 770 Z M597 768 L598 767 L599 769 L598 770 Z M596 766 L597 765 L598 766 L597 767 Z M600 757 L601 758 L605 758 Z M269 755 L268 755 L265 762 L265 767 L268 772 L268 776 L269 777 L264 783 L264 794 L265 797 L266 797 L266 785 L269 784 L272 779 L270 777 L270 773 L266 765 L269 758 Z M462 754 L463 753 L464 755 L463 756 Z M277 753 L278 754 L277 758 L275 756 Z M592 754 L593 765 L598 775 L607 807 L608 823 L609 824 L609 841 L610 842 L609 853 L606 857 L595 856 L593 855 L593 857 L606 862 L605 859 L610 855 L611 847 L612 846 L611 820 L610 819 L608 802 L604 790 L603 782 L601 778 L602 775 L601 768 L598 763 L596 765 L595 764 L594 753 Z M490 748 L491 749 L490 753 L489 752 Z M595 748 L596 745 L597 746 L600 744 L607 744 L608 745 L607 746 L601 746 L596 749 Z M538 746 L538 751 L540 758 L539 759 L539 768 L540 769 L540 758 L539 757 L540 756 L540 745 Z M612 743 L613 742 L615 743 L614 744 Z M262 743 L260 749 L264 748 L266 750 L266 753 L267 753 L267 749 L263 746 L264 743 Z M615 742 L616 741 L619 742 L618 743 Z M464 739 L463 740 L464 751 L461 752 L459 759 L459 764 L457 767 L456 772 L453 779 L450 781 L449 786 L447 789 L446 795 L448 797 L447 801 L444 805 L444 813 L443 814 L443 830 L445 831 L446 834 L445 840 L446 841 L448 839 L450 843 L454 846 L455 845 L450 840 L447 833 L446 815 L447 814 L447 808 L448 807 L451 790 L455 781 L455 778 L458 772 L461 760 L465 756 L466 745 Z M446 739 L447 738 L451 738 L452 739 L451 740 L447 740 Z M432 739 L433 738 L443 738 L444 739 L443 740 L433 740 Z M475 738 L472 744 L475 741 Z M596 736 L597 735 L598 736 L597 737 Z M668 734 L669 733 L670 734 L669 735 Z M597 734 L598 733 L599 735 L598 736 Z M401 734 L402 733 L407 733 L412 735 L417 735 L430 738 L429 739 L423 739 L416 737 L409 737 Z M598 733 L599 732 L600 733 L599 734 Z M397 733 L398 732 L402 733 L401 734 Z M674 732 L675 731 L676 732 L675 733 Z M393 732 L394 731 L397 732 L396 733 Z M668 731 L669 730 L672 731 L671 732 Z M390 731 L391 730 L393 731 L392 732 Z M387 730 L388 729 L390 730 L389 731 Z M400 729 L401 728 L402 729 L401 730 Z M384 729 L385 728 L387 729 L386 730 Z M585 728 L585 732 L586 732 Z M396 728 L397 727 L401 728 L400 729 Z M458 727 L459 726 L460 727 L459 728 Z M457 725 L458 724 L459 725 L458 726 Z M577 724 L575 726 L573 761 L572 762 L572 770 L571 771 L573 785 L575 785 L574 773 L576 772 L575 746 L576 745 Z M456 724 L457 723 L458 724 L457 725 Z M622 723 L623 722 L624 724 L623 725 Z M620 722 L623 730 L631 736 L630 737 L624 737 L620 734 L617 729 Z M694 722 L694 724 L692 726 L678 732 L676 731 L678 729 L688 725 L693 721 Z M615 721 L617 724 L615 728 L615 731 L621 737 L615 740 L604 741 L598 743 L597 741 L600 736 Z M491 722 L490 723 L490 732 L492 731 L492 723 Z M455 722 L456 721 L457 722 L456 723 Z M621 721 L622 720 L623 721 L622 722 Z M615 721 L616 720 L617 721 L616 722 Z M611 721 L612 720 L613 721 L612 722 Z M478 721 L475 724 L474 731 L475 731 L477 724 L479 722 Z M454 721 L455 720 L456 721 L455 722 Z M616 720 L617 719 L619 720 L618 721 Z M612 720 L613 719 L614 720 L613 721 Z M458 730 L458 732 L453 736 L432 736 L431 735 L441 729 L444 726 L447 719 L451 721 Z M618 719 L619 718 L620 719 L619 720 Z M613 719 L614 718 L615 719 L614 720 Z M614 718 L615 717 L616 718 L615 719 Z M444 717 L445 718 L444 721 L443 720 Z M364 718 L365 717 L369 718 L381 725 L383 728 L381 729 L369 723 Z M615 717 L616 716 L617 717 L616 718 Z M316 717 L315 721 L317 722 L318 718 Z M541 716 L540 717 L540 739 L541 740 Z M369 716 L370 715 L371 716 L370 717 Z M264 713 L265 716 L263 719 L260 715 Z M585 713 L584 717 L586 720 L586 713 Z M710 711 L711 710 L712 711 L711 712 Z M481 709 L479 714 L480 716 L479 718 L481 716 Z M588 705 L586 706 L587 710 L588 709 Z M507 702 L505 702 L503 709 L505 709 L505 706 Z M394 702 L395 701 L396 702 L395 703 Z M356 704 L357 703 L360 704 L366 701 L367 702 L367 709 L370 715 L369 716 Z M265 702 L270 710 L275 723 L277 725 L275 717 L271 711 L268 703 Z M749 704 L760 704 L760 702 L753 701 L752 703 Z M535 701 L535 707 L536 710 L537 710 L537 705 L536 701 Z M493 700 L492 700 L493 704 L493 711 L492 712 L491 711 L491 706 L490 705 L489 706 L490 716 L492 715 L492 712 L493 711 L494 712 L494 735 L493 736 L492 748 L491 749 L490 748 L491 738 L489 737 L486 759 L483 766 L483 769 L475 784 L478 783 L484 771 L484 768 L488 759 L488 753 L489 752 L490 755 L491 755 L493 752 L493 748 L495 742 L495 734 L496 733 L496 716 L495 715 L495 706 Z M394 708 L400 699 L405 699 L409 701 L412 701 L425 706 L440 714 L442 716 L442 720 L440 723 L443 724 L439 728 L432 729 L428 732 L424 732 L423 733 L421 732 L414 732 L404 728 L397 721 L394 712 Z M395 700 L396 699 L397 700 L396 701 Z M697 700 L700 705 L699 711 L697 715 L688 723 L679 727 L669 729 L668 728 L674 720 L676 715 L677 707 L676 706 L676 702 L674 699 L675 698 L691 698 Z M716 697 L719 701 L727 704 L742 704 L743 705 L747 704 L747 703 L732 702 Z M371 698 L374 696 L379 696 L380 697 L382 696 L394 699 L392 703 L392 711 L394 719 L398 725 L394 727 L386 726 L378 721 L374 717 L369 708 L369 704 Z M367 698 L368 696 L370 697 L368 699 Z M741 697 L744 696 L741 696 Z M342 696 L343 695 L347 695 L348 696 L347 697 L343 697 Z M347 695 L348 694 L352 695 L351 696 Z M720 705 L709 710 L708 712 L709 711 L711 712 L706 716 L703 714 L695 722 L694 720 L699 715 L702 708 L700 702 L701 700 L713 706 L715 705 L715 704 L708 702 L703 699 L699 699 L696 697 L697 696 L701 696 L702 697 L711 698 L713 696 L712 695 L705 693 L695 693 L694 694 L687 694 L687 695 L696 695 L697 696 L696 697 L682 697 L681 696 L682 695 L674 695 L673 697 L658 698 L639 706 L621 719 L619 718 L620 716 L618 717 L616 716 L620 712 L619 711 L607 723 L608 725 L600 733 L599 731 L597 731 L594 737 L596 736 L597 738 L595 740 L592 750 L595 749 L598 750 L604 747 L608 747 L609 745 L621 744 L622 742 L619 741 L624 739 L631 739 L632 738 L633 740 L637 740 L638 741 L637 742 L630 742 L630 743 L639 743 L640 742 L649 741 L650 739 L643 741 L638 741 L637 740 L638 739 L650 737 L650 736 L637 737 L628 733 L623 728 L624 724 L623 722 L626 717 L627 718 L626 725 L627 725 L629 717 L634 711 L651 702 L654 702 L662 699 L671 699 L673 701 L675 707 L675 712 L673 718 L665 730 L658 734 L659 735 L662 734 L665 730 L669 732 L666 735 L655 738 L653 740 L672 736 L697 726 L702 723 Z M786 692 L787 691 L788 692 L787 693 Z M487 692 L488 700 L490 700 L489 693 Z M326 698 L347 699 L354 696 L366 695 L367 696 L363 702 L355 702 L354 701 L356 699 L352 700 L352 703 L354 703 L356 705 L356 707 L365 714 L363 717 L354 708 L353 709 L361 718 L375 728 L380 730 L384 729 L385 731 L396 735 L404 736 L413 739 L419 739 L426 741 L438 741 L439 742 L440 741 L453 741 L454 740 L453 739 L460 733 L461 730 L463 735 L465 736 L465 732 L459 722 L456 719 L454 721 L443 712 L424 702 L418 700 L413 700 L410 698 L402 697 L395 694 L385 693 L384 692 L376 692 L375 691 L350 692 L349 693 L329 696 Z M241 690 L242 691 L242 695 L241 696 L240 695 L240 691 Z M542 690 L541 690 L541 707 L542 704 Z M419 690 L439 702 L456 716 L451 710 L449 710 L440 701 L429 694 Z M662 686 L636 697 L625 705 L622 709 L633 701 L640 699 L647 694 L663 688 Z M532 684 L531 684 L531 690 L532 689 Z M246 684 L247 683 L248 685 L247 686 Z M666 686 L666 687 L669 687 L677 685 L700 685 L701 686 L709 687 L735 696 L738 696 L736 694 L727 691 L719 687 L717 688 L701 683 L697 685 L693 683 L684 683 L683 684 L676 683 Z M382 682 L384 684 L401 686 L415 690 L414 688 L400 684 Z M247 682 L248 681 L249 683 L248 684 Z M378 681 L362 682 L359 685 L365 683 L379 683 Z M537 679 L537 682 L538 682 L538 679 Z M778 678 L776 684 L776 692 Z M250 676 L253 678 L249 682 L248 678 Z M789 674 L790 675 L790 681 L789 682 L788 681 L788 675 Z M597 675 L592 679 L584 693 L585 698 L579 705 L577 711 L577 717 L579 715 L579 710 L581 704 L586 700 L587 695 L585 694 Z M543 675 L542 675 L541 679 L542 685 Z M250 674 L247 676 L244 688 L243 689 L240 688 L239 690 L239 696 L240 698 L242 698 L243 697 L243 693 L247 686 L248 687 L246 692 L246 697 L248 701 L253 703 L254 705 L251 708 L248 708 L245 705 L244 701 L242 700 L243 705 L247 709 L252 709 L259 701 L258 700 L255 703 L252 702 L248 697 L248 692 L250 689 L249 687 L250 684 L254 680 L257 682 L260 692 L258 693 L254 688 L252 688 L252 689 L258 695 L261 694 L261 688 L258 680 Z M236 672 L237 673 L237 680 L236 681 L235 680 L235 673 Z M235 668 L236 667 L237 669 L236 670 Z M539 665 L538 669 L539 669 Z M471 665 L471 667 L475 672 L481 687 L481 698 L482 699 L483 691 L481 687 L481 682 L474 667 Z M614 659 L609 661 L598 672 L600 672 Z M464 655 L464 657 L467 659 Z M734 652 L735 653 L734 656 L733 655 Z M543 651 L542 654 L542 672 L543 671 L543 660 L544 659 Z M733 648 L733 650 L730 655 L730 658 L733 663 L735 663 L736 662 L732 658 L737 654 L737 652 Z M543 645 L543 647 L544 647 L544 645 Z M462 643 L463 645 L475 655 L476 654 L464 643 Z M735 640 L736 639 L737 641 L736 642 Z M475 638 L479 645 L480 653 L482 657 L482 660 L481 661 L479 660 L479 662 L481 665 L483 665 L484 656 L481 653 L482 652 L482 648 L478 639 Z M735 637 L736 636 L737 637 L736 638 Z M577 635 L578 634 L579 635 L578 636 Z M436 635 L436 637 L444 641 L460 653 L454 646 Z M610 633 L606 633 L598 644 L598 646 L600 645 L605 637 L608 634 L610 634 Z M601 633 L594 640 L594 645 L590 652 L594 649 L594 645 Z M532 633 L531 633 L530 637 L531 637 Z M528 633 L526 634 L523 642 L524 657 L526 660 L526 652 L524 646 Z M654 632 L652 632 L630 645 L624 650 L620 651 L614 657 L623 651 L625 651 L643 639 L653 634 Z M585 630 L579 635 L577 630 L576 631 L576 637 L578 638 Z M741 628 L736 630 L733 636 L733 639 L730 640 L731 642 L733 641 L735 645 L738 643 L738 638 L736 636 L737 632 L740 631 Z M257 628 L256 629 L256 638 L257 641 L258 641 L258 629 Z M649 625 L637 632 L637 633 L641 632 L647 628 Z M617 625 L618 624 L619 625 L618 626 Z M585 627 L585 628 L587 628 L591 626 L598 628 L601 631 L601 629 L599 629 L595 625 L587 625 Z M579 623 L577 623 L578 627 Z M429 623 L431 626 L442 631 L459 642 L459 640 L456 639 L445 631 Z M407 623 L410 626 L422 630 L427 633 L432 634 L428 631 L419 628 L412 624 Z M265 618 L266 619 L266 624 L265 625 L264 624 L264 619 Z M380 615 L380 617 L384 617 L392 619 L395 621 L399 621 L399 620 L391 617 Z M738 613 L742 618 L742 622 L744 623 L744 618 L745 617 L747 617 L749 615 L751 617 L750 632 L749 633 L748 632 L747 626 L746 626 L746 631 L748 636 L749 636 L750 633 L751 634 L752 649 L750 651 L748 649 L743 649 L740 653 L741 661 L742 662 L742 667 L740 669 L741 670 L737 673 L736 672 L736 667 L737 666 L735 665 L733 670 L734 673 L738 676 L737 677 L741 682 L742 691 L745 693 L745 687 L747 679 L746 677 L744 677 L745 682 L743 683 L739 677 L740 676 L740 672 L741 671 L743 672 L745 669 L742 656 L743 652 L744 651 L748 651 L751 653 L754 650 L754 641 L752 636 L753 618 L750 613 L746 615 L744 618 L743 616 Z M359 614 L359 615 L368 615 L369 616 L373 616 L374 615 L373 614 L366 614 L365 613 Z M271 610 L272 609 L273 610 L272 611 Z M248 608 L252 612 L254 617 L253 612 Z M244 608 L248 613 L250 618 L251 618 L250 613 L246 608 Z M726 606 L726 608 L729 608 L729 606 Z M326 605 L324 606 L324 610 L325 611 L324 614 L326 615 L326 618 L329 623 L329 627 L330 628 L328 630 L324 639 L321 637 L322 635 L321 633 L320 637 L322 641 L326 640 L331 627 L331 624 L329 621 L328 616 L325 614 L327 611 Z M366 604 L366 605 L369 606 L374 606 L394 611 L427 624 L424 621 L422 621 L415 617 L400 612 L397 610 L373 604 Z M579 613 L575 610 L578 614 L577 617 L573 613 L571 609 L560 610 L553 607 L548 603 L548 605 L552 608 L544 614 L542 630 L541 631 L541 640 L540 643 L537 646 L536 645 L536 648 L542 642 L543 638 L543 623 L547 612 L552 611 L554 609 L558 611 L569 610 L574 616 L577 617 L578 621 L579 621 Z M331 602 L329 602 L329 604 Z M707 601 L688 606 L676 612 L669 614 L653 623 L654 624 L669 616 L678 613 L692 606 L696 606 L706 603 Z M725 598 L725 600 L733 603 L736 609 L738 610 L738 608 L735 603 L731 600 Z M792 597 L793 596 L794 598 L793 599 Z M795 593 L796 595 L794 597 L792 595 Z M723 598 L716 595 L706 594 L705 593 L681 593 L680 594 L672 595 L660 599 L653 603 L648 604 L634 611 L621 619 L616 624 L609 626 L608 628 L612 628 L617 625 L618 627 L623 627 L623 625 L619 625 L618 624 L627 617 L648 606 L655 604 L664 599 L670 598 L674 596 L685 595 L686 594 L707 595 L718 598 L715 599 L714 601 L723 599 Z M340 603 L343 606 L364 605 L363 603 L356 603 L348 605 L343 603 L351 599 L365 595 L387 594 L393 596 L398 596 L435 607 L452 615 L458 619 L473 635 L475 635 L464 622 L452 613 L432 604 L429 604 L413 598 L401 595 L397 595 L391 593 L367 593 L346 599 Z M335 593 L333 594 L331 599 L333 599 L335 597 Z M268 593 L264 602 L258 599 L267 592 Z M267 592 L268 591 L269 592 L268 593 Z M287 575 L288 574 L289 575 L288 576 Z M291 568 L292 567 L293 568 L292 569 Z M803 565 L804 564 L805 565 L804 566 Z M293 565 L294 564 L295 565 L294 566 Z M525 564 L526 563 L528 564 L527 565 Z M294 564 L295 563 L296 564 L295 565 Z M261 564 L261 566 L262 566 L262 564 Z M319 563 L320 562 L321 564 L320 565 Z M522 562 L523 565 L525 566 L531 565 L531 564 L529 564 L527 562 L525 563 Z M320 562 L321 561 L322 562 L321 563 Z M295 562 L296 561 L297 562 L296 563 Z M544 560 L536 561 L535 562 L538 563 L543 561 L546 566 L545 567 L546 568 L546 572 L544 576 L544 582 L541 584 L538 589 L539 599 L535 604 L537 609 L537 614 L539 616 L539 619 L533 626 L532 629 L536 625 L537 628 L538 628 L539 625 L537 626 L536 624 L540 621 L541 617 L541 610 L540 609 L541 610 L539 614 L538 613 L537 604 L540 600 L539 590 L542 586 L543 587 L542 597 L544 592 L544 587 L542 586 L545 581 L546 574 L548 570 L546 562 Z M323 558 L324 560 L322 562 L321 560 Z M528 553 L526 553 L522 556 L523 557 Z M337 546 L330 553 L332 553 Z M313 546 L312 547 L313 548 L314 547 Z M319 534 L320 533 L321 534 L320 535 Z M316 529 L317 528 L318 529 L317 530 Z M268 528 L269 529 L268 533 L267 532 Z M317 528 L318 527 L319 528 L318 529 Z M318 527 L319 526 L320 527 L319 528 Z M319 526 L320 525 L321 526 L320 527 Z M320 525 L321 524 L323 525 L322 526 Z M341 517 L323 533 L321 534 L320 533 L321 531 L320 532 L318 531 L334 518 L339 516 Z M340 516 L341 515 L342 516 L341 517 Z M270 516 L269 518 L269 525 L266 530 L266 546 L265 547 L265 551 L266 552 L267 544 L270 534 L270 529 L271 528 L270 524 L271 517 Z M341 515 L342 514 L344 515 L343 516 Z M808 513 L811 524 L813 527 L813 541 L809 557 L805 564 L804 561 L805 560 L805 553 L807 546 L806 517 Z M338 514 L339 513 L340 514 L339 515 Z M554 512 L552 513 L551 520 L549 522 L549 528 L551 535 L547 546 L544 549 L535 550 L532 552 L533 553 L535 553 L537 551 L543 551 L548 547 L552 537 L552 530 L550 526 L550 522 L553 519 Z M337 513 L324 523 L321 522 L324 517 L324 515 L329 510 L331 512 L336 512 Z M807 509 L808 510 L807 514 L806 513 Z M740 508 L756 521 L749 513 L742 508 Z M795 504 L794 512 L795 513 L795 526 L796 527 L797 526 L797 513 L796 512 L797 509 L795 507 L796 506 L796 504 Z M729 501 L734 505 L738 506 L732 501 Z M438 497 L428 498 L424 500 L418 501 L415 503 L411 503 L402 506 L401 505 L406 502 L404 502 L399 505 L401 505 L402 506 L401 507 L389 511 L370 521 L368 520 L360 524 L334 541 L322 555 L316 564 L312 574 L308 580 L300 602 L299 611 L298 612 L298 619 L297 620 L296 637 L295 638 L295 667 L296 668 L297 691 L298 692 L298 700 L299 701 L299 728 L298 729 L298 739 L297 740 L297 748 L295 756 L293 777 L294 777 L295 774 L295 769 L297 762 L297 754 L298 753 L299 737 L300 736 L300 726 L301 725 L301 704 L300 703 L299 682 L298 681 L298 672 L297 671 L297 636 L298 635 L298 627 L299 626 L299 617 L300 616 L300 610 L308 584 L315 571 L315 569 L319 564 L320 566 L325 561 L327 556 L324 559 L323 557 L339 539 L389 513 L411 505 L435 499 Z M375 494 L376 493 L378 494 L377 495 Z M377 493 L378 492 L380 493 L379 494 Z M380 492 L381 491 L383 492 L382 493 Z M702 492 L709 497 L719 502 L717 499 L703 491 Z M541 491 L542 490 L543 491 L542 492 Z M382 491 L383 490 L385 491 L384 492 Z M471 489 L465 489 L464 490 L450 492 L446 494 L440 495 L440 497 L469 491 Z M481 489 L480 490 L481 491 L483 490 L536 490 L542 494 L545 494 L549 496 L551 498 L550 502 L552 508 L553 508 L552 502 L553 501 L555 503 L556 523 L555 524 L555 534 L553 542 L553 551 L551 559 L550 579 L549 580 L548 593 L546 599 L547 601 L550 590 L551 570 L552 569 L552 563 L554 555 L554 546 L555 545 L555 537 L556 536 L555 530 L556 529 L556 521 L557 520 L557 507 L556 506 L556 502 L547 493 L545 493 L544 492 L545 491 L577 492 L578 493 L599 494 L606 496 L615 496 L640 502 L647 505 L686 514 L700 519 L708 525 L723 533 L726 536 L736 542 L755 561 L761 570 L760 572 L761 574 L767 580 L776 601 L780 614 L782 635 L783 636 L783 645 L782 646 L780 645 L781 677 L780 678 L780 686 L779 687 L777 716 L776 717 L775 716 L775 721 L774 722 L774 734 L773 735 L773 744 L772 745 L772 767 L771 768 L772 798 L773 800 L774 798 L774 793 L773 792 L773 746 L774 745 L774 737 L775 736 L775 718 L776 717 L777 718 L777 747 L778 748 L779 795 L781 799 L780 810 L781 811 L781 848 L782 848 L782 799 L781 798 L781 791 L780 790 L780 755 L779 754 L779 716 L778 715 L778 711 L779 710 L781 685 L782 684 L782 675 L783 674 L784 632 L783 631 L782 616 L775 594 L768 579 L764 573 L763 569 L758 562 L736 540 L722 532 L717 527 L712 525 L698 516 L693 515 L690 513 L686 513 L678 510 L651 504 L622 495 L600 493 L599 492 L589 492 L581 490 L561 490 L560 489 L537 489 L536 488 L487 488 L486 489 Z M789 485 L790 486 L789 490 L788 489 Z M313 484 L310 489 L309 495 L307 499 L305 507 L306 509 L313 487 Z M789 483 L790 482 L791 484 L790 485 Z M426 483 L424 483 L424 487 L419 493 L418 496 L423 492 L426 487 Z M449 478 L448 481 L450 482 Z M416 477 L417 476 L420 477 L419 478 Z M419 476 L422 474 L425 475 L422 477 Z M788 473 L789 472 L790 473 L789 474 Z M670 473 L672 475 L687 480 L701 487 L706 488 L721 497 L723 497 L720 494 L709 488 L703 487 L700 484 L698 484 L679 475 Z M309 473 L307 478 L307 482 L309 478 Z M261 472 L264 470 L266 471 L264 473 Z M440 470 L441 469 L444 470 L443 471 Z M266 470 L267 469 L268 470 L267 471 Z M486 467 L483 467 L482 470 L486 468 Z M472 466 L473 468 L471 472 L473 474 L473 476 L470 479 L472 479 L474 477 L473 473 L474 467 Z M468 467 L464 465 L465 463 L459 463 L458 464 L453 464 L448 466 L435 468 L416 475 L414 477 L417 478 L410 481 L409 483 L426 477 L427 475 L425 474 L432 471 L440 470 L441 472 L444 472 L447 470 L445 470 L444 469 L445 468 L458 465 L464 465 L465 466 L461 467 L461 468 L467 468 Z M554 463 L555 464 L567 465 L568 466 L581 466 L582 467 L593 467 L594 468 L623 470 L624 471 L638 473 L658 478 L665 481 L668 481 L672 483 L689 487 L695 490 L698 490 L691 486 L679 482 L627 469 L620 469 L613 467 L591 466 L590 465 L582 465 L581 464 L569 464 L568 463 L560 463 L559 462 L555 462 Z M320 460 L319 460 L317 468 L317 474 L319 471 Z M616 459 L618 461 L640 465 L665 473 L666 472 L656 468 L651 468 L646 465 L639 464 L635 462 Z M470 462 L470 464 L480 463 L481 462 L484 462 L487 464 L493 464 L494 463 L501 463 L502 461 L503 463 L528 463 L529 462 L534 462 L535 463 L551 464 L550 462 L544 462 L543 461 L504 461 L503 462 L502 459 L490 459 L489 460 Z M290 458 L291 460 L288 463 L287 461 Z M290 458 L291 457 L292 458 L291 459 Z M310 456 L311 457 L310 461 L309 460 Z M572 454 L572 455 L590 456 L591 457 L610 459 L610 458 L607 457 L601 457 L594 455 Z M506 454 L507 455 L517 455 L518 454 L522 454 L522 453 L509 453 Z M526 454 L554 454 L555 455 L568 455 L569 454 L567 453 L540 453 L539 452 L538 453 L534 453 L533 452 L527 452 Z M307 452 L308 451 L309 452 L308 453 Z M291 451 L292 450 L293 451 L292 452 Z M773 449 L774 448 L775 449 L774 450 Z M309 449 L310 448 L311 449 L310 450 Z M305 449 L306 448 L307 449 L306 450 Z M278 448 L279 449 L279 454 L277 458 L276 457 L276 451 Z M306 448 L307 447 L308 448 L307 449 Z M778 446 L783 452 L784 460 L783 461 L777 454 L777 447 Z M353 447 L351 449 L352 451 L354 450 Z M323 447 L324 446 L325 447 L324 448 Z M760 444 L764 449 L762 445 Z M272 444 L270 445 L270 454 L271 454 L272 451 Z M329 441 L330 440 L332 443 L331 444 Z M539 439 L542 441 L546 441 L552 443 L564 442 L572 440 L572 439 L568 439 L560 441 L549 441 L545 439 Z M290 437 L292 439 L290 447 L290 451 L292 453 L286 460 L285 459 L285 442 Z M307 437 L305 438 L304 442 L300 448 L303 447 Z M303 435 L298 440 L293 450 L292 449 L293 438 L291 436 L289 436 L285 440 L283 458 L288 463 L287 465 L290 464 L294 459 L294 457 L292 458 L291 456 L293 454 L299 441 L303 437 Z M327 433 L329 435 L327 442 L325 443 L323 440 L319 443 L323 442 L325 443 L319 447 L316 455 L315 463 L313 465 L312 464 L312 457 L310 452 L313 448 L313 446 Z M583 430 L584 429 L585 430 L584 431 Z M326 430 L327 429 L328 430 L327 431 Z M327 429 L328 428 L329 429 L328 430 Z M584 428 L585 427 L586 429 L585 430 Z M740 424 L741 423 L742 424 L741 425 Z M739 423 L740 422 L741 423 L740 424 Z M314 422 L309 432 L310 432 L311 428 L314 425 Z M775 421 L775 426 L776 427 L775 428 L771 426 L769 426 L769 427 L774 429 L778 433 L779 432 L775 428 L776 427 L776 422 Z M511 421 L511 425 L513 427 L513 429 L518 434 Z M592 419 L593 418 L594 419 L593 420 Z M516 418 L517 417 L518 418 L517 419 Z M306 417 L302 423 L300 433 L301 433 L302 430 L303 433 L304 433 L306 425 L309 421 L309 419 L305 425 L305 428 L303 431 L302 428 Z M294 416 L292 417 L291 422 L288 427 L291 425 Z M319 414 L320 429 L321 428 L321 415 Z M289 414 L287 414 L285 420 L285 426 L281 438 L280 445 L279 446 L278 443 L277 444 L277 450 L274 453 L275 454 L275 459 L279 463 L279 465 L276 467 L275 475 L277 472 L277 468 L279 466 L278 459 L281 450 L281 443 L286 427 L286 422 Z M272 412 L272 417 L274 418 L274 412 Z M269 410 L270 411 L269 415 L268 414 Z M357 407 L358 406 L359 407 L358 408 Z M358 406 L359 405 L360 406 L359 407 Z M516 404 L517 405 L517 414 L516 415 L515 414 L515 405 Z M315 404 L314 404 L313 409 L315 407 Z M513 402 L514 403 L513 406 L512 405 Z M592 402 L591 402 L592 406 L591 407 L591 418 L588 426 L586 428 L585 427 L587 419 L585 415 L583 415 L584 416 L584 425 L582 429 L580 431 L569 436 L573 436 L578 433 L580 433 L583 430 L584 432 L580 436 L581 437 L586 433 L589 427 L591 428 L593 426 L596 417 L596 413 L595 412 L595 407 Z M516 402 L517 401 L518 403 L517 404 Z M517 400 L518 399 L519 400 L518 401 Z M514 399 L515 400 L514 403 L513 402 Z M518 398 L519 397 L520 398 L519 399 Z M519 396 L520 395 L521 396 L520 397 Z M523 391 L524 390 L525 391 L524 392 Z M307 388 L303 392 L295 412 L296 412 Z M582 386 L588 396 L593 400 L592 396 Z M390 382 L391 381 L392 382 L391 383 Z M391 381 L392 380 L394 381 L393 382 Z M268 380 L271 388 L268 397 L267 396 L267 381 Z M393 380 L394 379 L395 380 L394 381 Z M395 379 L396 378 L397 379 L396 380 Z M766 378 L764 379 L764 383 Z M397 378 L398 377 L399 378 L398 379 Z M389 376 L392 379 L384 386 L383 384 Z M389 376 L390 375 L391 376 L390 377 Z M570 381 L564 378 L552 377 L547 375 L542 376 L534 381 L532 381 L521 390 L521 391 L524 392 L522 394 L520 393 L515 400 L514 399 L515 395 L513 395 L511 400 L511 405 L509 407 L509 416 L511 417 L510 409 L512 405 L514 411 L515 421 L519 423 L520 426 L525 432 L536 438 L535 436 L529 433 L522 426 L519 418 L518 408 L520 400 L526 391 L525 389 L532 383 L543 378 L544 379 L547 378 L561 379 L570 383 L577 391 L576 393 L569 385 L567 385 L574 394 L580 409 L583 411 L576 395 L577 392 L584 402 L587 414 L589 414 L588 408 L584 398 L579 392 L577 387 Z M530 375 L522 380 L523 381 L527 377 L530 376 Z M289 373 L287 374 L287 381 L285 385 L284 394 L280 408 L279 407 L279 399 L278 399 L278 407 L280 408 L280 410 L278 412 L279 417 L278 418 L277 441 L279 439 L280 414 L286 392 Z M553 371 L558 373 L567 374 L573 377 L576 377 L566 372 Z M414 370 L415 369 L416 370 L415 371 Z M416 369 L417 368 L418 369 L417 370 Z M300 367 L297 373 L297 377 L293 389 L293 394 L294 394 L294 391 L296 387 Z M267 359 L270 367 L270 373 L271 374 L271 380 L270 381 L266 371 L266 360 Z M320 359 L319 368 L318 369 L318 382 L319 383 L318 403 L319 404 L319 411 L320 412 L321 410 L321 403 L320 402 L320 398 L321 397 L320 396 L320 388 L319 387 L320 385 L320 362 L321 361 Z M417 356 L409 362 L408 366 L410 365 L411 362 Z M446 346 L447 345 L448 346 L447 347 Z M318 346 L315 351 L311 368 L308 375 L311 372 L315 356 L319 347 Z M447 345 L448 344 L449 345 L448 346 Z M448 344 L449 343 L450 344 L449 345 Z M436 344 L437 343 L438 344 L437 345 Z M448 342 L443 347 L439 346 L446 341 Z M296 337 L293 344 L292 352 L287 369 L289 369 L296 342 Z M465 335 L466 334 L467 335 L466 336 Z M466 334 L467 333 L468 334 L467 335 Z M305 332 L302 343 L302 353 L306 362 L307 370 L308 369 L307 363 L309 360 L308 360 L307 363 L305 355 L303 352 L305 334 L306 333 Z M441 331 L436 332 L432 338 L427 339 L420 347 L410 356 L406 357 L403 361 L407 358 L411 357 L428 340 L435 338 L435 335 L441 332 Z M319 329 L318 329 L318 339 L319 338 Z M447 329 L449 327 L451 328 L449 330 Z M476 319 L477 318 L478 319 L477 320 Z M299 318 L300 317 L301 318 L300 319 Z M300 314 L301 313 L302 315 L301 316 Z M495 311 L496 310 L497 311 L496 312 Z M502 308 L501 307 L497 308 L490 313 L486 313 L481 316 L478 315 L472 320 L464 321 L460 323 L453 329 L452 326 L449 325 L444 328 L444 330 L446 329 L447 330 L446 332 L448 333 L449 331 L457 328 L463 323 L471 322 L476 319 L477 321 L481 317 L489 315 L494 311 L496 312 L495 314 L497 313 Z M273 306 L273 321 L274 322 L274 330 L275 331 L275 341 L277 342 L276 325 L275 324 L275 313 Z M317 305 L317 313 L318 315 L318 306 Z M672 303 L678 307 L674 303 Z M557 299 L564 302 L579 313 L586 316 L612 334 L642 352 L655 362 L666 368 L689 385 L701 392 L714 403 L718 404 L723 409 L739 421 L737 423 L753 439 L754 439 L754 437 L741 425 L742 424 L746 426 L764 442 L786 467 L786 472 L788 478 L789 478 L789 474 L790 473 L795 481 L794 483 L789 480 L788 481 L784 497 L785 500 L783 506 L784 507 L786 503 L785 501 L786 500 L787 490 L788 489 L789 490 L789 495 L788 496 L790 495 L791 492 L791 487 L792 486 L791 484 L795 483 L798 487 L805 506 L804 531 L802 536 L803 539 L806 541 L806 544 L804 549 L804 557 L802 562 L802 566 L797 575 L795 572 L792 561 L788 554 L780 545 L778 541 L766 528 L759 523 L777 542 L790 560 L794 572 L794 575 L796 574 L797 575 L796 578 L798 577 L802 569 L803 570 L803 578 L800 587 L796 594 L794 591 L793 592 L792 591 L791 581 L786 565 L771 543 L753 524 L726 505 L721 503 L723 506 L735 513 L754 527 L771 545 L782 560 L787 571 L789 579 L790 592 L791 593 L792 621 L793 622 L793 656 L792 657 L791 673 L789 674 L785 669 L787 672 L786 706 L784 707 L784 778 L786 785 L786 843 L785 844 L783 885 L782 886 L782 897 L781 898 L779 954 L778 955 L777 967 L774 976 L773 975 L773 970 L772 972 L772 987 L768 998 L767 1009 L765 1015 L765 1022 L764 1023 L763 1034 L760 1046 L753 1063 L750 1074 L748 1077 L747 1083 L746 1084 L745 1080 L744 1080 L740 1092 L728 1113 L733 1108 L739 1098 L744 1086 L745 1089 L738 1108 L734 1116 L727 1124 L719 1137 L708 1149 L707 1148 L708 1146 L706 1146 L696 1157 L693 1158 L686 1165 L687 1167 L672 1180 L656 1189 L655 1188 L671 1171 L673 1165 L683 1154 L684 1151 L683 1147 L689 1139 L692 1132 L690 1127 L692 1121 L702 1112 L701 1110 L704 1104 L702 1104 L700 1108 L700 1112 L693 1118 L689 1125 L690 1133 L688 1138 L682 1146 L682 1152 L680 1156 L672 1164 L672 1166 L669 1171 L659 1180 L654 1187 L651 1188 L631 1203 L633 1203 L639 1199 L643 1199 L644 1200 L585 1228 L582 1227 L611 1212 L602 1214 L588 1223 L577 1228 L569 1230 L564 1230 L563 1231 L559 1230 L543 1232 L533 1238 L518 1239 L516 1237 L504 1238 L489 1234 L479 1233 L477 1231 L474 1231 L467 1227 L456 1223 L455 1221 L452 1220 L444 1214 L439 1208 L441 1207 L448 1211 L447 1209 L439 1204 L436 1204 L437 1209 L444 1216 L442 1217 L438 1215 L442 1219 L454 1223 L461 1227 L481 1235 L485 1235 L501 1239 L507 1239 L508 1240 L514 1239 L518 1241 L526 1241 L531 1239 L543 1238 L552 1233 L554 1235 L556 1235 L567 1231 L571 1231 L572 1232 L558 1239 L553 1239 L537 1243 L497 1243 L493 1241 L483 1241 L475 1238 L460 1237 L451 1234 L448 1231 L442 1229 L422 1212 L407 1204 L369 1178 L350 1161 L341 1151 L331 1136 L314 1104 L304 1088 L296 1068 L295 1068 L295 1070 L297 1075 L293 1078 L291 1077 L291 1063 L292 1060 L279 1023 L279 1020 L276 1013 L273 1001 L272 991 L271 990 L271 981 L270 980 L269 957 L268 956 L268 923 L269 922 L269 905 L270 904 L269 902 L270 898 L270 874 L271 873 L271 854 L272 853 L272 843 L273 842 L273 834 L274 833 L274 820 L275 819 L274 810 L275 809 L277 811 L278 807 L276 803 L276 799 L279 798 L278 783 L281 779 L281 775 L282 774 L282 768 L280 770 L279 767 L280 766 L280 760 L283 747 L283 741 L282 741 L281 752 L280 753 L279 752 L280 730 L278 728 L278 743 L277 744 L275 739 L272 736 L270 736 L268 738 L267 737 L268 729 L266 729 L262 732 L259 729 L261 723 L266 718 L266 710 L263 703 L261 703 L264 709 L264 711 L260 714 L258 714 L263 719 L258 725 L258 731 L260 733 L263 733 L266 731 L267 732 L266 733 L266 739 L270 739 L271 737 L273 739 L277 748 L277 751 L274 754 L273 758 L276 757 L278 759 L278 767 L277 768 L277 781 L276 782 L275 798 L273 805 L272 833 L271 834 L271 841 L270 842 L269 880 L268 881 L268 897 L267 898 L267 911 L266 912 L266 922 L267 925 L266 926 L266 940 L265 941 L259 931 L260 919 L256 912 L259 906 L259 901 L255 896 L255 892 L258 888 L259 890 L261 889 L262 866 L263 865 L263 860 L262 859 L262 840 L264 837 L266 822 L269 813 L269 809 L267 805 L266 799 L265 799 L265 804 L263 808 L260 809 L258 812 L257 817 L253 820 L248 829 L248 831 L249 831 L251 828 L252 823 L258 819 L260 816 L260 812 L262 810 L264 810 L266 806 L267 807 L267 815 L265 819 L263 834 L261 838 L261 851 L260 852 L259 851 L259 847 L258 846 L259 839 L258 839 L257 842 L256 841 L257 843 L254 846 L254 850 L255 850 L256 847 L259 852 L258 859 L259 859 L259 856 L260 855 L261 856 L261 870 L260 871 L260 881 L259 882 L258 880 L253 877 L253 871 L255 868 L255 862 L253 855 L253 867 L251 871 L250 900 L252 907 L252 917 L255 926 L255 934 L251 944 L250 943 L250 938 L248 937 L248 943 L252 948 L251 949 L246 945 L242 933 L241 921 L238 908 L236 886 L235 885 L235 878 L234 877 L234 870 L237 859 L238 844 L240 838 L237 841 L237 849 L235 855 L235 861 L233 863 L232 862 L232 856 L230 849 L229 827 L228 826 L228 804 L227 803 L228 759 L229 758 L229 750 L230 749 L231 723 L232 722 L232 715 L233 714 L234 687 L238 681 L239 677 L239 659 L236 655 L236 649 L237 648 L238 622 L242 606 L246 603 L248 605 L250 605 L249 603 L250 602 L254 602 L255 601 L260 601 L264 606 L266 616 L263 618 L262 622 L263 623 L265 636 L268 644 L268 648 L271 655 L271 660 L273 663 L273 667 L277 680 L279 699 L281 704 L282 715 L284 721 L284 734 L285 735 L285 711 L280 696 L280 671 L278 664 L278 621 L277 620 L277 613 L274 610 L274 607 L278 599 L279 590 L287 575 L288 576 L288 580 L286 583 L286 586 L287 586 L290 579 L291 571 L297 565 L299 559 L302 555 L308 550 L311 542 L309 542 L303 549 L299 557 L294 561 L284 578 L278 585 L274 593 L277 594 L274 604 L269 609 L269 611 L273 611 L275 613 L275 619 L276 620 L277 667 L278 668 L278 673 L277 674 L269 641 L265 629 L265 625 L266 624 L267 627 L269 627 L272 631 L271 635 L272 636 L272 644 L273 644 L274 641 L273 631 L267 619 L267 611 L265 605 L265 602 L271 591 L270 587 L273 582 L290 562 L297 551 L303 545 L306 539 L316 529 L319 532 L314 536 L313 539 L316 537 L322 536 L341 519 L362 505 L365 506 L369 501 L378 497 L381 494 L383 495 L388 492 L390 492 L398 488 L399 486 L392 490 L385 491 L384 490 L412 478 L412 477 L410 477 L402 480 L399 479 L390 482 L385 487 L379 488 L373 493 L371 492 L374 490 L374 488 L368 491 L367 493 L371 492 L372 493 L371 495 L373 494 L376 495 L358 505 L345 514 L344 513 L340 514 L339 512 L346 506 L354 502 L365 494 L360 495 L338 510 L326 510 L323 513 L319 523 L304 539 L297 550 L281 569 L276 577 L273 579 L268 589 L257 598 L256 597 L256 587 L255 586 L255 550 L256 549 L256 537 L257 536 L258 520 L259 519 L259 507 L258 506 L257 490 L256 489 L258 474 L259 473 L261 476 L262 482 L265 488 L265 495 L267 494 L267 485 L264 481 L263 475 L268 471 L269 472 L270 485 L272 492 L272 500 L265 515 L264 514 L264 509 L263 509 L263 514 L265 515 L265 517 L261 527 L261 531 L260 532 L261 534 L267 515 L273 504 L274 499 L279 490 L279 488 L286 481 L293 470 L307 452 L308 453 L308 461 L313 467 L315 466 L317 462 L317 457 L319 454 L319 450 L323 447 L324 449 L322 451 L325 452 L327 446 L326 444 L327 442 L331 446 L334 445 L334 437 L336 435 L336 432 L338 430 L338 428 L335 430 L334 435 L331 441 L330 440 L331 433 L329 432 L330 430 L338 422 L340 423 L339 424 L340 425 L343 419 L351 410 L354 411 L355 410 L356 411 L354 415 L353 422 L347 433 L345 442 L343 444 L343 449 L342 450 L341 447 L340 447 L337 452 L336 457 L334 460 L333 467 L326 486 L320 476 L318 476 L325 488 L328 486 L330 482 L333 471 L335 468 L337 457 L341 449 L342 453 L351 461 L357 470 L362 474 L362 472 L357 467 L352 459 L343 452 L345 449 L349 433 L354 426 L358 410 L367 403 L371 398 L377 396 L391 385 L401 380 L408 374 L415 373 L418 370 L417 368 L423 364 L445 355 L450 351 L455 349 L459 345 L463 344 L467 341 L472 340 L490 331 L497 326 L513 318 L515 318 L541 304 L546 303 L553 299 Z M662 295 L663 297 L669 300 L667 297 Z M645 284 L647 287 L653 291 L655 291 Z M334 284 L335 283 L336 284 L335 285 Z M333 283 L334 282 L335 283 L334 284 Z M315 278 L312 280 L308 289 L306 300 L303 306 L303 311 L302 312 L301 311 L301 305 L300 306 L300 312 L296 327 L298 331 L301 324 L307 298 L309 295 L309 291 L312 283 L315 282 Z M622 277 L623 279 L634 283 L637 283 L635 281 Z M274 275 L274 284 L275 284 L276 277 Z M619 259 L620 258 L623 259 L622 260 Z M469 258 L470 257 L472 258 L471 259 Z M297 248 L300 260 L301 279 L303 284 L302 285 L301 298 L300 299 L300 301 L302 302 L304 281 L302 273 L302 264 L301 263 L299 248 Z M296 235 L303 238 L313 248 L320 258 L319 260 L325 266 L334 282 L333 283 L329 280 L321 277 L318 277 L318 278 L331 283 L338 289 L342 298 L346 303 L350 313 L353 316 L359 332 L358 355 L351 368 L343 390 L342 398 L338 413 L341 415 L330 424 L308 447 L307 446 L305 447 L304 449 L306 450 L294 465 L285 479 L279 485 L274 495 L273 494 L273 485 L271 479 L271 474 L269 468 L269 464 L271 458 L269 459 L268 458 L268 431 L269 430 L275 441 L275 438 L273 436 L270 428 L270 396 L272 394 L272 373 L268 359 L268 355 L265 349 L265 319 L264 318 L264 295 L265 294 L268 307 L270 311 L270 308 L268 303 L267 292 L264 284 L264 267 L265 266 L266 256 L269 252 L273 259 L274 268 L276 268 L275 260 L271 252 L272 251 L276 251 L278 249 L278 239 L280 236 L283 236 L284 237 L283 241 L283 278 L282 279 L281 331 L280 332 L280 352 L279 353 L278 352 L278 347 L276 345 L277 354 L279 359 L279 375 L278 376 L278 383 L277 384 L277 390 L279 390 L279 382 L280 381 L280 374 L281 373 L281 355 L282 354 L282 322 L283 321 L282 314 L283 313 L283 302 L284 301 L285 270 L286 269 L286 260 L287 259 L287 254 L289 246 L291 243 L293 243 L293 241 L289 243 L286 252 L285 251 L285 239 L289 235 Z M500 233 L501 232 L503 233 L502 234 Z M502 232 L503 231 L505 232 L504 233 Z M504 231 L506 229 L509 230 L506 232 Z M502 229 L503 228 L504 229 L503 230 Z M503 228 L504 227 L505 228 L504 229 Z M505 227 L506 226 L507 227 L506 228 Z M506 226 L507 225 L508 226 L507 227 Z M522 212 L523 211 L524 212 L523 213 Z M519 212 L520 211 L521 212 L520 213 Z M521 209 L522 208 L523 209 L522 210 Z M518 199 L519 200 L518 205 L520 208 L517 213 L517 217 L508 226 L507 224 L514 211 L513 207 Z M528 183 L529 184 L528 187 L527 186 Z M528 182 L529 181 L530 183 L529 184 Z M524 182 L525 181 L526 183 L525 184 Z M525 181 L526 180 L527 181 L526 182 Z M529 180 L530 179 L531 181 L530 182 Z M526 179 L527 178 L528 179 L527 180 Z M563 178 L564 177 L565 178 L564 179 Z M530 178 L531 177 L532 179 L531 180 Z M527 178 L528 177 L529 178 L528 179 Z M531 177 L532 176 L533 177 L532 178 Z M528 177 L529 176 L530 177 L529 178 Z M529 176 L530 175 L531 176 L530 177 Z M534 173 L535 172 L536 173 L535 174 Z M340 411 L344 400 L345 392 L354 367 L363 350 L374 333 L390 313 L405 298 L431 278 L466 260 L474 260 L500 253 L533 252 L554 259 L567 262 L569 261 L592 260 L593 259 L592 258 L584 258 L576 260 L565 260 L564 259 L556 258 L544 253 L540 253 L534 250 L511 250 L510 251 L503 251 L502 252 L487 254 L475 258 L471 257 L476 253 L479 253 L498 235 L501 237 L502 235 L511 231 L515 227 L516 224 L510 230 L508 229 L522 212 L524 214 L523 222 L518 227 L521 226 L524 223 L526 218 L525 207 L521 205 L520 203 L525 198 L521 200 L518 197 L520 194 L522 185 L524 183 L528 190 L534 193 L539 193 L540 191 L538 191 L537 189 L536 190 L532 190 L530 188 L530 185 L534 179 L534 176 L536 174 L535 172 L539 169 L547 167 L552 167 L560 172 L564 177 L563 178 L557 178 L554 175 L555 174 L554 171 L553 175 L547 175 L543 173 L541 173 L541 174 L549 176 L554 176 L556 178 L566 180 L571 187 L563 191 L551 192 L551 193 L559 194 L562 192 L570 191 L571 188 L576 208 L587 230 L601 245 L620 258 L619 259 L614 259 L613 258 L602 257 L601 258 L602 259 L608 259 L609 260 L629 263 L665 278 L697 302 L713 318 L726 340 L735 359 L743 390 L746 420 L754 427 L758 424 L762 424 L767 426 L766 424 L763 423 L764 417 L767 409 L772 401 L770 402 L764 412 L762 420 L763 422 L762 423 L756 423 L755 419 L756 418 L757 386 L758 385 L760 368 L762 366 L766 367 L768 365 L770 365 L780 370 L784 375 L788 387 L788 392 L791 405 L791 413 L792 414 L792 421 L791 422 L788 418 L785 404 L784 404 L784 409 L786 413 L786 416 L788 421 L791 423 L792 448 L790 451 L787 439 L786 439 L786 442 L788 450 L796 462 L805 481 L812 504 L813 520 L812 521 L811 520 L810 512 L806 505 L800 487 L793 474 L785 463 L786 462 L785 453 L779 444 L775 443 L773 449 L754 430 L750 428 L724 407 L713 400 L702 391 L642 350 L612 332 L606 327 L603 326 L568 303 L559 295 L557 297 L554 297 L544 302 L539 303 L525 310 L521 314 L518 314 L515 316 L510 317 L508 319 L489 328 L486 331 L473 337 L469 340 L465 339 L472 333 L485 327 L489 322 L491 322 L502 316 L523 308 L526 305 L519 307 L517 309 L514 309 L500 316 L497 316 L493 320 L491 320 L482 327 L480 327 L468 334 L466 333 L465 337 L456 345 L455 342 L451 342 L450 344 L448 340 L444 340 L441 343 L438 344 L437 343 L438 340 L437 340 L433 347 L439 346 L440 347 L439 349 L447 348 L454 344 L456 345 L446 352 L416 366 L400 378 L398 377 L400 375 L395 378 L393 378 L392 377 L394 375 L394 373 L400 365 L400 363 L399 363 L394 371 L387 376 L380 386 L381 387 L383 385 L385 387 L381 391 L355 405 L341 415 Z M551 164 L545 164 L540 166 L534 171 L529 173 L523 179 L520 184 L518 193 L515 197 L514 201 L508 211 L499 231 L489 241 L466 258 L432 275 L415 287 L408 294 L402 298 L389 311 L372 332 L361 350 L360 349 L361 331 L357 320 L350 308 L347 299 L334 278 L331 270 L327 266 L324 260 L313 245 L304 236 L297 233 L284 233 L277 236 L275 240 L276 248 L275 249 L269 249 L266 251 L264 255 L263 265 L262 266 L262 315 L263 316 L262 332 L263 333 L263 356 L264 357 L265 394 L266 395 L266 456 L267 457 L267 466 L256 473 L254 481 L254 493 L255 494 L256 507 L257 508 L256 529 L253 542 L253 591 L254 592 L254 599 L253 600 L248 600 L244 602 L240 606 L236 621 L235 649 L234 650 L234 679 L233 680 L233 690 L231 696 L231 715 L229 723 L228 747 L227 748 L227 756 L226 757 L226 777 L225 778 L226 829 L227 830 L228 849 L231 862 L231 870 L233 877 L233 884 L234 885 L234 892 L235 893 L235 900 L236 901 L236 908 L237 909 L237 915 L239 922 L239 928 L240 929 L241 938 L245 947 L249 951 L254 953 L257 956 L265 959 L267 961 L267 969 L269 976 L269 992 L270 993 L271 1002 L278 1023 L279 1030 L285 1045 L288 1057 L290 1060 L288 1079 L290 1081 L292 1081 L296 1078 L298 1079 L304 1092 L319 1117 L324 1128 L337 1149 L348 1162 L361 1174 L377 1187 L387 1193 L387 1195 L385 1197 L385 1199 L387 1201 L401 1202 L413 1210 L420 1213 L432 1222 L441 1231 L446 1232 L452 1237 L464 1240 L474 1240 L482 1243 L492 1243 L496 1245 L533 1246 L539 1244 L549 1243 L554 1241 L559 1241 L565 1239 L572 1234 L578 1233 L581 1231 L591 1228 L602 1222 L607 1221 L621 1213 L623 1213 L648 1200 L654 1198 L660 1192 L663 1191 L671 1185 L675 1185 L678 1180 L686 1175 L703 1158 L723 1135 L728 1126 L736 1117 L742 1105 L749 1081 L751 1078 L756 1061 L758 1058 L765 1035 L765 1028 L767 1023 L767 1015 L769 1011 L769 1002 L773 991 L773 987 L777 975 L777 970 L781 954 L783 895 L784 894 L784 887 L785 886 L785 869 L786 868 L787 843 L788 842 L788 787 L787 786 L787 780 L785 772 L785 762 L786 761 L786 716 L789 710 L788 699 L790 695 L790 690 L791 689 L791 681 L792 680 L792 674 L794 666 L794 655 L795 654 L795 622 L794 621 L794 613 L793 612 L793 603 L797 597 L804 582 L805 568 L808 564 L814 547 L815 528 L816 527 L815 509 L812 499 L812 495 L809 489 L806 478 L793 454 L793 449 L794 448 L793 404 L792 403 L791 391 L788 379 L785 373 L779 367 L770 363 L764 363 L759 366 L757 372 L757 378 L755 386 L753 421 L751 422 L747 417 L748 409 L747 408 L747 401 L745 394 L745 387 L742 380 L736 355 L728 339 L716 319 L700 302 L679 287 L669 278 L662 274 L660 274 L626 259 L611 250 L601 242 L591 232 L583 219 L576 201 L574 189 L570 181 L561 170 Z" fill="#eef3f4" fill-rule="evenodd"/>
</svg>
