<svg xmlns="http://www.w3.org/2000/svg" width="1023" height="1537" viewBox="0 0 1023 1537">
  <title>0356</title>
  <path d="M762 1039 L761 1063 L760 1064 L759 1077 L758 1078 L757 1086 L749 1109 L736 1133 L720 1155 L711 1164 L711 1166 L730 1145 L741 1128 L750 1110 L758 1088 L759 1080 L760 1079 L761 1067 L762 1066 L762 1057 L763 1056 L763 1041 Z M775 1009 L779 1022 L779 1026 L781 1030 L781 1035 L784 1047 L784 1054 L785 1055 L786 1076 L785 1077 L784 1100 L782 1107 L783 1108 L784 1107 L785 1095 L786 1094 L786 1086 L787 1085 L787 1057 L786 1056 L786 1049 L785 1048 L785 1042 L784 1041 L782 1027 L778 1012 Z M802 1005 L803 1004 L804 1006 L803 1007 Z M778 1004 L779 1003 L780 1005 L779 1006 Z M635 982 L636 981 L637 982 L636 983 Z M634 981 L635 980 L636 981 L635 982 Z M289 980 L285 990 L284 999 L283 1000 L284 1001 L283 1002 L284 1002 L286 991 L290 982 Z M631 979 L633 978 L635 980 L633 981 Z M630 978 L631 977 L632 978 L631 979 Z M768 977 L773 992 L775 995 L775 998 L777 1000 L777 1002 L778 1001 L779 1002 L778 1005 L779 1007 L780 1005 L787 1019 L790 1031 L793 1038 L795 1053 L796 1054 L796 1060 L797 1063 L798 1063 L796 1044 L794 1040 L794 1036 L790 1022 L786 1012 L773 988 L770 978 Z M629 977 L630 976 L631 977 L630 978 Z M663 975 L665 977 L665 983 L664 984 L662 981 L662 976 Z M628 976 L629 975 L630 976 L629 977 Z M626 975 L627 974 L628 975 L627 976 Z M766 952 L787 974 L794 984 L801 997 L803 1003 L802 1005 L785 980 L768 962 L769 965 L782 979 L794 995 L804 1014 L811 1038 L812 1056 L813 1057 L813 1073 L812 1074 L813 1080 L813 1076 L814 1075 L813 1041 L812 1040 L810 1026 L806 1014 L803 1009 L804 1006 L807 1012 L804 1000 L796 984 L789 974 L772 956 Z M779 949 L780 951 L795 962 L804 971 L811 981 L809 976 L804 969 L791 957 Z M387 941 L395 949 L417 966 L435 978 L475 1001 L537 1031 L539 1031 L567 1044 L617 1064 L651 1074 L665 1075 L666 1076 L681 1076 L682 1075 L693 1074 L706 1069 L718 1062 L726 1055 L725 1054 L720 1059 L707 1067 L705 1067 L695 1072 L687 1073 L686 1074 L661 1074 L660 1073 L654 1073 L622 1064 L619 1062 L614 1061 L606 1057 L601 1056 L576 1046 L562 1039 L555 1037 L532 1026 L530 1026 L467 995 L441 980 L415 963 Z M761 934 L764 937 L769 938 L781 944 L783 944 L783 943 L773 938 Z M350 931 L349 931 L339 961 L333 988 L335 987 L335 983 L337 978 L340 962 L347 940 L350 934 Z M378 930 L381 942 L386 947 L386 945 L382 940 L380 932 Z M662 924 L681 945 L688 956 L697 977 L700 996 L701 995 L700 985 L694 965 L680 942 L667 927 Z M307 923 L305 924 L295 940 L295 942 L286 962 L281 980 L280 992 L279 993 L279 1015 L280 1016 L280 1021 L283 1034 L284 1034 L284 1031 L281 1018 L281 990 L282 989 L282 983 L285 971 L288 964 L288 961 L291 956 L292 951 Z M323 916 L321 917 L311 930 L297 958 L292 973 L294 973 L297 962 L304 948 L304 946 L308 940 L308 938 Z M336 913 L330 919 L323 930 L313 953 L306 976 L306 980 L304 985 L304 991 L303 992 L303 999 L302 1000 L302 1024 L303 1025 L303 1034 L304 1035 L306 1050 L314 1073 L324 1091 L325 1091 L313 1067 L307 1048 L307 1044 L305 1038 L305 1031 L304 1030 L303 1009 L304 1008 L304 997 L305 996 L306 982 L316 949 L326 927 Z M348 899 L344 901 L343 903 L348 901 Z M451 897 L456 892 L467 888 L484 890 L485 891 L499 893 L509 896 L519 897 L532 901 L536 901 L552 905 L598 922 L618 932 L641 949 L658 966 L661 971 L660 979 L662 987 L660 990 L659 989 L655 989 L640 982 L623 968 L610 959 L586 945 L553 929 L509 913 L496 911 L495 910 L488 910 L487 909 L480 909 L479 908 L470 907 L454 901 Z M343 880 L338 882 L325 891 L322 891 L306 909 L298 921 L295 928 L297 927 L308 909 L319 896 L320 897 L319 899 L325 892 L328 891 Z M661 863 L661 865 L673 880 L692 910 L704 934 L722 980 L725 993 L725 998 L726 999 L726 1017 L722 1033 L715 1044 L716 1044 L720 1040 L724 1033 L728 1018 L728 997 L727 996 L724 979 L715 955 L699 920 L687 899 L673 878 Z M371 850 L364 852 L359 855 L355 855 L346 860 L328 874 L328 876 L336 869 L351 859 L364 854 Z M424 887 L423 890 L424 897 L428 901 L434 904 L450 908 L487 911 L488 912 L494 912 L495 913 L509 915 L556 932 L581 944 L595 952 L607 962 L621 971 L657 1005 L672 1014 L677 1015 L680 1017 L688 1017 L693 1015 L700 1007 L701 999 L699 1001 L698 1008 L693 1013 L688 1015 L679 1015 L666 1009 L655 1001 L636 983 L638 982 L643 986 L654 991 L662 992 L664 990 L664 985 L667 984 L667 977 L664 969 L660 963 L647 950 L626 934 L610 924 L585 913 L546 900 L530 896 L521 895 L512 892 L503 891 L498 889 L488 888 L487 887 L464 886 L457 888 L452 891 L445 899 L438 899 L438 901 L445 901 L461 905 L462 906 L461 907 L439 904 L430 900 L425 895 L425 889 L433 876 L457 856 L463 853 L471 851 L495 851 L496 852 L508 853 L524 858 L531 859 L541 863 L544 863 L566 870 L569 872 L580 875 L595 881 L621 894 L658 920 L650 912 L637 904 L633 900 L621 892 L595 879 L557 865 L554 865 L544 861 L523 856 L519 854 L507 851 L500 851 L499 850 L492 850 L491 849 L476 849 L475 850 L468 850 L462 852 L452 858 L432 875 L431 878 L426 883 L426 885 Z M638 838 L638 840 L652 855 L654 855 Z M375 835 L373 835 L353 846 L328 866 L309 886 L292 909 L279 934 L271 958 L271 962 L269 967 L269 973 L268 974 L268 981 L267 982 L267 1012 L268 1013 L269 1012 L268 1010 L268 985 L269 984 L271 965 L276 950 L276 947 L278 944 L278 941 L286 925 L286 923 L294 909 L313 884 L333 864 L349 851 Z M512 795 L514 797 L527 800 L540 806 L577 805 L586 808 L591 811 L603 814 L603 813 L595 811 L579 804 L568 803 L567 804 L550 804 L546 805 L545 804 L539 804 L528 798 Z M754 793 L763 803 L761 799 Z M805 765 L797 764 L790 766 L788 769 L796 766 L805 766 Z M512 763 L512 764 L541 765 L542 766 L552 767 L578 773 L582 775 L599 779 L620 791 L610 783 L596 776 L571 770 L567 768 L563 768 L558 766 L543 764 L542 763 L535 763 L534 762 L517 762 L516 763 Z M717 758 L721 763 L720 766 L716 762 Z M715 757 L716 756 L717 758 L716 759 Z M714 756 L715 755 L716 756 L715 757 Z M713 754 L714 753 L715 754 L714 755 Z M712 753 L713 752 L714 753 L713 754 Z M711 752 L712 751 L713 752 L712 753 Z M808 739 L801 747 L793 752 L786 754 L784 756 L784 760 L785 760 L784 758 L790 755 L802 756 L809 759 L805 755 L796 754 L795 753 L802 748 L807 742 Z M652 742 L655 740 L666 740 L672 738 L680 738 L694 743 L696 745 L698 745 L703 748 L712 756 L715 765 L722 771 L727 782 L730 794 L729 795 L724 795 L709 790 L695 790 L680 785 L674 778 L670 776 L665 771 L664 765 L655 750 Z M652 738 L653 737 L654 738 L653 739 Z M653 737 L658 733 L664 733 L665 732 L678 732 L679 733 L689 734 L702 740 L712 751 L711 752 L702 743 L688 737 L682 737 L681 736 L672 736 L667 738 L654 738 Z M805 731 L795 737 L793 737 L783 742 L781 745 L802 735 Z M649 739 L649 743 L662 765 L664 773 L668 777 L672 779 L680 787 L693 792 L709 792 L720 796 L735 798 L736 799 L743 798 L747 795 L749 791 L747 790 L746 793 L743 796 L736 797 L733 795 L739 789 L739 786 L732 793 L731 792 L731 788 L730 787 L731 780 L726 769 L721 763 L719 757 L709 744 L697 735 L683 731 L659 731 L653 734 Z M220 727 L221 726 L222 727 L221 728 Z M221 724 L222 723 L223 724 L222 725 Z M222 722 L223 721 L224 722 L223 723 Z M223 719 L224 718 L225 720 L224 721 Z M797 709 L789 717 L778 724 L774 728 L774 730 L777 734 L785 732 L793 728 L799 722 L801 718 L792 727 L779 732 L775 731 L775 729 L779 725 L788 720 L796 712 Z M309 708 L317 717 L323 721 L332 725 L345 728 L365 728 L366 727 L399 725 L400 724 L422 724 L423 725 L424 724 L423 723 L395 723 L394 724 L383 724 L382 725 L371 725 L370 726 L352 726 L351 727 L349 726 L342 726 L341 725 L333 724 L322 719 Z M641 686 L641 687 L645 686 L662 687 L675 691 L694 700 L707 709 L733 732 L761 763 L775 782 L774 792 L777 786 L776 782 L765 766 L744 741 L712 711 L695 699 L674 689 L658 685 L644 685 Z M261 669 L254 674 L242 686 L227 707 L217 732 L215 748 L214 749 L214 757 L215 757 L217 741 L227 718 L235 707 L263 676 L238 701 L225 719 L224 717 L229 707 L246 684 Z M307 662 L305 662 L302 670 L301 681 L302 681 L303 671 Z M253 651 L235 667 L226 678 L221 687 L223 686 L227 679 L236 668 Z M407 649 L408 648 L409 649 L408 650 Z M406 648 L407 647 L408 648 L407 649 Z M405 647 L406 646 L407 647 L406 648 Z M404 646 L405 645 L406 646 L405 647 Z M403 645 L404 644 L405 645 L404 646 Z M402 644 L403 643 L404 644 L403 645 Z M400 643 L401 642 L402 643 L401 644 Z M399 642 L400 641 L401 642 L400 643 Z M398 641 L399 640 L400 641 L399 642 Z M537 640 L539 645 L541 646 L546 646 L559 650 L571 652 L585 658 L582 655 L576 652 L563 648 L542 644 L540 641 Z M397 640 L398 639 L399 640 L398 641 Z M694 645 L681 641 L670 640 L669 639 L657 639 L656 640 L642 642 L634 645 L625 651 L618 658 L610 672 L607 685 L607 698 L608 699 L608 706 L609 707 L609 716 L610 717 L612 734 L617 752 L617 756 L620 762 L620 765 L623 771 L626 782 L629 787 L631 801 L629 809 L624 814 L619 816 L608 815 L608 817 L614 819 L626 829 L616 819 L618 817 L621 817 L627 814 L630 811 L632 807 L633 797 L626 773 L618 753 L618 749 L615 741 L615 735 L613 732 L612 720 L610 713 L610 705 L609 704 L609 682 L610 681 L610 677 L614 667 L624 654 L636 646 L648 642 L654 642 L655 641 L671 641 L672 642 L683 643 L689 646 L692 646 L706 653 L719 663 L739 684 L756 708 L756 706 L746 691 L732 674 L713 656 Z M395 639 L396 638 L397 639 L396 640 Z M394 638 L395 637 L396 638 L395 639 Z M392 637 L393 636 L395 637 L394 638 Z M390 636 L391 635 L393 636 L392 637 Z M389 635 L390 634 L391 635 L390 636 Z M330 657 L340 647 L345 644 L352 642 L366 635 L379 634 L392 639 L404 648 L415 659 L421 667 L427 679 L424 682 L416 684 L392 687 L391 688 L372 688 L365 691 L359 691 L352 689 L342 680 L331 662 Z M386 634 L387 633 L389 634 L388 635 Z M263 634 L257 637 L240 651 L230 663 L224 672 L215 691 L210 713 L212 711 L215 695 L227 670 L236 658 L247 647 Z M551 633 L552 635 L556 635 L564 638 L571 639 L584 644 L583 642 L564 635 Z M487 633 L486 635 L487 636 L487 645 L486 646 L486 652 L484 660 L484 669 L483 670 L482 683 L481 684 L479 698 L477 702 L477 706 L467 738 L465 755 L464 756 L464 766 L466 773 L469 778 L475 783 L473 785 L464 789 L446 802 L431 815 L411 835 L382 870 L367 893 L365 900 L366 900 L372 888 L383 872 L409 840 L428 820 L451 800 L467 789 L476 785 L480 785 L486 788 L503 793 L500 790 L489 787 L479 782 L477 782 L475 780 L475 777 L478 773 L487 768 L494 766 L500 766 L501 765 L509 765 L510 764 L509 763 L498 763 L486 766 L479 770 L474 775 L472 779 L467 772 L466 764 L465 763 L466 751 L467 750 L469 736 L478 708 L484 684 L484 678 L486 671 L487 652 L488 651 L488 634 Z M384 633 L385 632 L387 633 L386 634 Z M381 632 L382 631 L384 632 L383 633 Z M308 655 L310 654 L313 645 L321 638 L354 630 L361 630 L362 629 L380 630 L381 631 L380 632 L368 632 L351 640 L349 640 L341 644 L327 656 L325 653 L325 649 L327 646 L325 646 L321 652 L323 655 L328 658 L335 673 L339 679 L348 688 L356 692 L368 692 L376 689 L388 690 L389 689 L402 688 L403 687 L408 687 L409 686 L414 686 L422 684 L429 680 L429 678 L424 668 L412 651 L399 638 L390 632 L383 629 L373 628 L372 627 L362 627 L361 628 L348 629 L340 632 L323 635 L317 638 L313 642 Z M476 620 L476 623 L480 632 L479 626 Z M529 620 L529 621 L548 620 L549 621 L559 622 L574 628 L588 639 L588 637 L580 630 L563 621 L550 618 L538 618 L537 619 Z M262 618 L253 620 L239 627 L229 634 L222 641 L216 650 L212 660 L210 669 L212 667 L212 664 L217 651 L222 643 L229 636 L242 627 Z M265 609 L252 612 L238 619 L228 626 L215 640 L209 654 L207 668 L206 669 L207 670 L208 669 L208 663 L210 655 L217 640 L221 635 L231 626 L240 620 L252 614 L264 611 Z M527 598 L528 600 L530 599 L546 600 L566 605 L581 613 L593 624 L582 612 L563 602 L546 598 Z M191 590 L193 591 L192 592 L194 599 L196 622 L198 629 L199 650 L200 651 L201 668 L202 669 L203 685 L204 686 L206 715 L207 716 L207 723 L208 724 L209 745 L210 746 L210 763 L211 764 L211 770 L210 771 L207 767 L206 741 L205 740 L205 723 L204 722 L203 704 L202 703 L201 692 L194 670 L192 657 L191 656 L191 651 L190 650 L190 639 L189 638 L189 593 Z M740 574 L740 576 L745 581 L754 594 L765 618 L775 653 L779 678 L780 675 L779 674 L779 668 L778 667 L776 652 L765 614 L755 593 L746 580 Z M289 594 L289 595 L306 582 L323 572 L347 566 L373 566 L374 567 L380 567 L381 568 L395 570 L419 579 L443 593 L455 602 L470 616 L452 598 L438 588 L424 581 L422 579 L396 569 L388 567 L383 567 L382 566 L376 566 L375 565 L353 564 L352 565 L339 566 L322 571 L308 579 Z M673 546 L673 547 L691 549 L705 553 L720 560 L734 570 L736 570 L723 560 L704 551 L701 551 L693 548 L682 547 L681 546 Z M600 508 L602 507 L618 516 L632 526 L638 533 L637 534 L624 523 Z M598 507 L599 506 L601 507 L600 508 Z M594 505 L597 504 L599 506 L597 507 Z M591 503 L593 502 L595 504 L593 505 Z M586 501 L589 500 L591 502 L589 503 Z M643 500 L644 499 L645 500 L644 501 Z M584 500 L585 499 L587 500 L586 501 Z M642 499 L643 498 L644 499 L643 500 Z M582 499 L583 498 L585 499 L584 500 Z M581 498 L582 497 L583 498 L582 499 Z M639 497 L640 496 L641 497 L640 498 Z M638 496 L639 495 L640 496 L639 497 Z M514 556 L504 541 L491 527 L481 519 L463 508 L448 501 L429 496 L396 497 L395 498 L383 499 L368 503 L364 503 L344 509 L329 515 L304 529 L294 537 L282 550 L270 569 L262 587 L262 590 L263 590 L271 570 L280 555 L290 543 L304 531 L313 525 L341 512 L369 504 L389 501 L390 500 L396 500 L397 499 L429 498 L430 499 L439 500 L457 507 L475 517 L491 529 L503 542 L514 558 Z M637 495 L638 494 L639 495 L638 496 Z M636 494 L637 493 L638 494 L637 495 Z M635 493 L636 492 L637 493 L636 494 Z M658 492 L659 491 L660 492 L659 493 Z M633 492 L634 491 L636 492 L635 493 Z M657 491 L658 490 L659 491 L658 492 Z M632 491 L633 490 L634 491 L633 492 Z M631 490 L632 489 L633 490 L632 491 Z M656 489 L657 488 L658 489 L657 490 Z M670 488 L671 491 L691 516 L690 512 Z M655 488 L656 487 L657 488 L656 489 Z M628 488 L630 487 L632 489 L630 490 Z M654 487 L655 486 L656 487 L655 488 Z M627 487 L628 486 L629 487 L628 488 Z M653 486 L654 485 L655 486 L654 487 Z M652 485 L653 484 L654 485 L653 486 Z M621 483 L623 482 L628 486 L626 487 Z M650 482 L651 481 L653 484 L652 485 Z M620 482 L621 481 L622 482 L621 483 Z M649 481 L650 480 L651 481 L650 482 Z M648 480 L649 479 L650 480 L649 481 Z M617 480 L619 479 L621 481 L619 482 Z M647 479 L648 478 L649 479 L648 480 Z M646 478 L647 477 L648 478 L647 479 Z M614 478 L616 477 L618 479 L616 480 Z M645 477 L646 476 L647 477 L646 478 Z M612 477 L613 476 L615 477 L614 478 Z M644 476 L645 475 L646 476 L645 477 Z M611 476 L612 475 L613 476 L612 477 Z M643 475 L644 474 L645 475 L644 476 Z M609 475 L610 474 L612 475 L611 476 Z M642 474 L643 473 L644 474 L643 475 Z M641 473 L642 472 L643 473 L642 474 Z M606 473 L608 472 L610 474 L608 475 Z M640 472 L641 471 L642 472 L641 473 Z M604 472 L605 471 L607 472 L606 473 Z M602 471 L603 470 L605 471 L604 472 Z M512 471 L512 473 L521 475 L530 479 L541 482 L544 484 L569 492 L615 519 L632 531 L636 536 L638 545 L642 550 L632 557 L624 566 L633 558 L642 552 L651 555 L654 555 L657 552 L658 543 L657 542 L656 527 L654 526 L654 534 L656 541 L656 550 L652 554 L645 552 L641 547 L637 538 L637 535 L639 534 L637 529 L632 524 L612 510 L591 499 L589 499 L570 490 L555 485 L552 485 L549 483 L546 483 Z M601 470 L602 469 L603 470 L602 471 Z M599 469 L600 468 L602 469 L601 470 Z M597 468 L598 467 L600 468 L599 469 Z M595 467 L596 466 L598 467 L597 468 Z M593 466 L594 465 L596 466 L595 467 Z M591 465 L592 464 L594 465 L593 466 Z M589 464 L590 463 L592 464 L591 465 Z M587 463 L588 462 L590 463 L589 464 Z M585 462 L586 461 L588 462 L587 463 Z M583 461 L584 460 L585 461 L584 462 Z M494 438 L496 440 L520 443 L556 452 L580 461 L600 471 L616 481 L642 501 L662 520 L677 537 L675 533 L668 525 L667 522 L640 494 L622 479 L604 468 L590 461 L582 459 L579 457 L574 457 L548 448 L527 444 L526 443 L522 443 L521 442 L517 442 L516 441 L495 439 Z M616 431 L618 430 L620 432 L618 433 Z M615 430 L616 429 L617 430 L616 431 Z M613 429 L614 428 L615 429 L614 430 Z M561 427 L565 426 L573 429 L576 429 L604 442 L605 444 L606 443 L627 458 L641 471 L639 472 L632 465 L620 456 L595 440 L579 433 Z M556 426 L557 425 L561 425 L562 426 L561 427 L557 427 Z M552 425 L553 424 L557 425 L556 426 Z M549 424 L550 423 L552 424 L551 425 Z M546 424 L547 423 L548 424 L547 425 Z M473 421 L502 421 L503 420 L511 420 L517 422 L536 423 L537 424 L542 424 L547 426 L563 429 L590 439 L618 456 L639 473 L651 485 L665 502 L669 505 L682 523 L682 521 L679 518 L666 497 L657 485 L640 467 L620 451 L605 441 L590 433 L575 427 L568 426 L564 424 L560 424 L550 421 L543 421 L542 420 L536 420 L528 418 L520 418 L519 417 L506 417 L501 419 L482 419 L481 420 Z M461 409 L461 411 L463 410 L470 410 L471 409 L478 409 L479 408 L500 408 L501 407 L533 407 L534 408 L536 407 L537 408 L553 409 L554 410 L559 410 L560 411 L565 411 L578 414 L598 421 L614 431 L631 444 L650 463 L648 459 L636 447 L619 433 L621 432 L640 446 L670 477 L685 496 L695 511 L699 519 L698 521 L701 524 L708 539 L710 540 L702 524 L700 517 L675 481 L650 453 L635 440 L619 429 L590 416 L570 410 L554 408 L553 407 L536 406 L535 405 L496 405 L495 406 L484 406 L483 407 L474 407 L473 408 Z M320 313 L353 301 L373 296 L393 293 L394 292 L399 292 L400 291 L422 289 L423 288 L434 288 L435 287 L488 287 L489 288 L499 288 L500 289 L514 290 L515 291 L526 292 L531 294 L540 295 L560 300 L588 309 L596 313 L606 316 L613 320 L615 320 L634 330 L647 338 L668 354 L699 385 L722 413 L737 435 L754 468 L764 493 L775 528 L777 539 L779 543 L779 547 L785 569 L786 579 L788 584 L790 599 L793 610 L795 628 L796 629 L799 653 L800 654 L800 660 L801 661 L801 668 L802 669 L806 707 L807 708 L807 716 L809 724 L812 760 L814 767 L814 777 L815 778 L816 799 L817 800 L817 810 L818 811 L821 868 L822 869 L822 887 L823 888 L824 934 L825 935 L826 1004 L825 1005 L824 1004 L821 993 L821 989 L819 986 L817 977 L812 967 L805 957 L785 939 L760 922 L760 924 L776 934 L796 950 L806 961 L812 970 L820 989 L823 1006 L825 1011 L825 1035 L824 1036 L824 1050 L823 1051 L822 1069 L821 1070 L821 1076 L819 1082 L817 1097 L809 1128 L798 1161 L787 1182 L775 1198 L761 1212 L740 1226 L725 1232 L686 1241 L681 1241 L680 1242 L675 1242 L662 1245 L656 1245 L649 1247 L643 1247 L642 1248 L635 1248 L634 1249 L599 1250 L598 1251 L568 1250 L567 1249 L556 1249 L555 1248 L547 1248 L540 1246 L534 1246 L533 1245 L529 1245 L503 1239 L474 1230 L471 1228 L453 1222 L439 1215 L437 1215 L409 1201 L378 1183 L343 1158 L322 1140 L283 1100 L270 1082 L256 1056 L245 1026 L245 1023 L242 1016 L237 996 L234 975 L232 969 L232 963 L230 957 L230 951 L229 950 L229 944 L228 943 L227 930 L226 929 L226 923 L225 922 L225 916 L223 908 L222 893 L221 892 L219 865 L218 864 L218 854 L217 853 L217 842 L216 841 L211 740 L210 739 L209 720 L208 719 L208 711 L207 710 L207 702 L206 701 L206 691 L205 690 L204 674 L202 666 L199 627 L197 619 L197 611 L196 610 L194 584 L193 583 L193 575 L192 574 L192 565 L191 564 L191 555 L190 554 L190 543 L189 542 L189 497 L190 496 L190 487 L191 486 L191 480 L192 479 L194 463 L201 439 L214 410 L229 386 L244 368 L271 343 L297 325 Z M325 309 L299 322 L271 341 L259 351 L238 372 L230 382 L216 403 L202 431 L192 464 L190 479 L189 480 L189 487 L188 488 L188 498 L187 499 L187 538 L188 539 L188 552 L189 553 L190 573 L191 574 L191 581 L192 582 L192 587 L188 590 L187 593 L187 641 L188 642 L188 650 L189 651 L189 657 L193 674 L195 677 L195 680 L200 696 L200 702 L202 709 L203 737 L204 738 L204 749 L205 750 L205 766 L207 771 L211 774 L211 789 L212 790 L212 806 L213 807 L213 823 L214 824 L214 838 L215 839 L216 861 L217 862 L219 890 L221 898 L221 905 L222 906 L222 913 L223 914 L223 921 L224 922 L225 935 L227 942 L227 948 L228 949 L228 954 L229 955 L229 960 L230 961 L230 966 L231 967 L231 972 L232 973 L232 978 L233 979 L233 984 L236 994 L237 1003 L242 1019 L242 1022 L254 1056 L263 1074 L271 1087 L285 1105 L316 1137 L339 1157 L363 1175 L402 1199 L440 1218 L442 1218 L449 1222 L469 1230 L503 1241 L524 1245 L529 1247 L547 1249 L548 1250 L556 1250 L557 1251 L586 1252 L587 1253 L622 1252 L623 1251 L633 1251 L634 1250 L655 1248 L656 1247 L661 1247 L662 1246 L667 1246 L668 1245 L673 1245 L674 1244 L679 1244 L680 1243 L685 1243 L686 1242 L691 1242 L701 1239 L705 1239 L735 1230 L747 1224 L760 1215 L782 1192 L797 1168 L807 1142 L807 1139 L810 1132 L820 1092 L823 1068 L824 1067 L824 1060 L825 1059 L826 1029 L827 1028 L827 945 L826 944 L825 894 L824 893 L824 877 L823 876 L823 860 L822 859 L821 831 L820 830 L820 818 L819 817 L819 803 L818 802 L816 770 L815 769 L815 760 L814 759 L811 723 L810 722 L810 715 L809 714 L809 707 L808 706 L808 698 L807 697 L805 675 L804 674 L802 653 L801 652 L799 634 L797 627 L797 621 L795 615 L795 610 L794 609 L787 570 L773 515 L757 471 L744 444 L725 414 L704 388 L679 362 L658 344 L642 333 L610 316 L608 316 L593 309 L556 297 L540 294 L535 292 L521 290 L520 289 L508 288 L507 287 L499 287 L498 286 L489 286 L488 285 L466 285 L465 284 L426 286 L425 287 L416 287 L415 288 L394 290 L393 291 L383 292 L357 298 Z" fill="#eef3f4" fill-rule="evenodd"/>
</svg>
