<svg xmlns="http://www.w3.org/2000/svg" width="1122" height="1402" viewBox="0 0 1122 1402">
  <title>0364</title>
  <path d="M696 1230 L697 1229 L698 1230 L697 1231 Z M548 1213 L549 1215 L557 1217 L557 1216 L553 1214 Z M509 1205 L510 1208 L516 1211 L520 1215 L523 1215 L525 1211 L528 1213 L529 1212 L533 1215 L538 1215 L540 1217 L548 1219 L552 1222 L569 1227 L572 1233 L577 1233 L585 1231 L594 1225 L594 1224 L592 1224 L589 1227 L579 1231 L573 1231 L566 1224 L565 1225 L562 1224 L560 1222 L554 1221 L548 1217 L545 1217 L538 1213 L536 1214 L532 1213 L529 1210 L527 1211 L525 1209 L520 1213 Z M602 1194 L600 1195 L600 1200 L602 1200 Z M576 1194 L571 1195 L568 1197 L576 1196 Z M729 1193 L730 1192 L731 1193 L730 1194 Z M529 1193 L526 1196 L526 1200 L528 1204 L535 1210 L540 1212 L540 1210 L532 1206 L527 1200 L527 1197 L530 1194 Z M740 1187 L741 1188 L733 1198 L711 1220 L698 1230 L697 1229 L700 1226 L700 1220 L708 1214 L722 1199 L731 1195 Z M740 1187 L741 1186 L742 1187 L741 1188 Z M741 1186 L742 1185 L743 1186 L742 1187 Z M742 1185 L743 1184 L744 1185 L743 1186 Z M611 1181 L608 1183 L606 1187 L607 1188 L609 1188 L611 1186 L612 1182 Z M566 1205 L566 1206 L571 1208 L575 1208 L579 1212 L582 1213 L585 1217 L590 1219 L591 1218 L597 1219 L600 1216 L607 1216 L610 1217 L616 1225 L623 1227 L630 1226 L630 1224 L623 1224 L622 1223 L618 1224 L610 1215 L607 1214 L611 1212 L610 1211 L604 1211 L599 1207 L595 1206 L592 1208 L588 1208 L581 1202 L580 1198 L583 1194 L582 1190 L584 1188 L587 1188 L589 1186 L591 1186 L594 1182 L597 1182 L600 1180 L594 1181 L592 1184 L583 1187 L581 1189 L580 1195 L578 1197 L580 1201 L579 1203 L576 1201 L576 1199 L573 1199 L573 1200 L577 1204 L581 1205 L589 1210 L592 1210 L594 1208 L600 1209 L602 1212 L606 1212 L607 1213 L606 1214 L601 1214 L597 1217 L586 1216 L582 1211 L579 1210 L575 1206 Z M749 1175 L750 1174 L751 1175 L750 1176 Z M750 1174 L751 1173 L752 1174 L751 1175 Z M571 1173 L578 1181 L582 1183 L586 1182 L586 1181 L579 1180 Z M568 1171 L569 1179 L574 1190 L574 1185 L570 1179 L569 1171 Z M605 1170 L604 1171 L604 1176 L606 1173 Z M510 1169 L511 1168 L512 1169 L511 1170 Z M497 1158 L498 1157 L500 1159 L503 1159 L505 1157 L508 1158 L512 1162 L511 1168 L510 1169 L505 1168 L504 1170 L499 1165 L499 1162 L497 1160 Z M497 1155 L497 1158 L495 1160 L499 1164 L499 1167 L505 1172 L507 1169 L510 1171 L515 1172 L512 1167 L513 1162 L506 1153 L502 1158 Z M395 1146 L396 1145 L397 1146 L396 1147 Z M658 1141 L656 1141 L652 1146 L649 1147 L652 1148 Z M645 1141 L646 1140 L647 1141 L646 1142 Z M675 1138 L679 1142 L678 1143 L673 1143 L673 1144 L677 1146 L679 1145 L680 1140 Z M669 1132 L670 1131 L671 1132 L670 1133 Z M377 1127 L378 1126 L379 1127 L378 1128 Z M380 1122 L393 1137 L396 1143 L395 1146 L379 1129 L380 1128 L379 1125 Z M378 1122 L379 1121 L380 1122 L379 1123 Z M686 1115 L687 1114 L688 1115 L687 1116 Z M687 1113 L688 1112 L689 1114 L688 1115 Z M686 1110 L687 1111 L685 1114 L684 1111 Z M683 1109 L685 1107 L686 1108 L685 1110 Z M377 1105 L385 1114 L391 1125 L399 1133 L403 1140 L406 1149 L410 1154 L409 1155 L407 1155 L400 1151 L399 1145 L395 1137 L380 1120 L375 1110 L375 1107 Z M379 1104 L380 1103 L381 1104 L380 1105 Z M375 1104 L376 1103 L377 1105 L376 1106 Z M802 1100 L793 1108 L774 1133 L775 1136 L771 1142 L773 1142 L777 1135 L777 1131 L780 1126 L787 1119 Z M699 1100 L700 1099 L701 1100 L700 1101 Z M679 1094 L677 1094 L676 1096 L678 1103 L673 1115 L673 1120 L671 1123 L671 1125 L672 1124 L673 1126 L670 1129 L669 1128 L667 1130 L662 1131 L660 1133 L656 1132 L643 1141 L642 1143 L645 1143 L648 1145 L647 1143 L655 1134 L661 1134 L664 1132 L667 1133 L669 1132 L670 1133 L669 1138 L670 1139 L671 1138 L672 1131 L674 1127 L674 1125 L672 1124 L674 1121 L676 1110 L680 1101 L680 1095 Z M380 1092 L391 1105 L391 1108 L389 1111 L384 1106 L379 1096 Z M367 1090 L371 1097 L373 1098 L372 1099 L373 1103 L372 1105 L370 1103 L370 1100 L366 1093 Z M366 1087 L367 1088 L366 1091 L365 1090 Z M364 1085 L365 1084 L366 1086 L365 1087 Z M640 1083 L637 1083 L635 1086 L636 1087 L639 1086 Z M403 1082 L404 1081 L405 1083 L404 1084 Z M653 1079 L651 1080 L649 1085 L642 1094 L632 1103 L623 1109 L605 1117 L593 1120 L586 1120 L585 1121 L572 1121 L571 1120 L565 1120 L550 1116 L536 1108 L528 1100 L524 1094 L523 1090 L522 1089 L521 1090 L529 1104 L540 1113 L548 1117 L561 1121 L581 1123 L582 1122 L592 1122 L608 1118 L625 1110 L634 1104 L647 1091 L653 1081 Z M391 1079 L397 1078 L401 1082 L402 1086 L406 1092 L411 1094 L419 1101 L420 1105 L425 1112 L428 1121 L429 1138 L430 1139 L429 1143 L422 1139 L415 1132 L411 1126 L409 1117 L402 1109 L398 1102 L398 1099 L393 1091 L390 1083 Z M552 1066 L553 1065 L555 1066 L554 1067 Z M554 1065 L555 1064 L558 1065 L557 1066 Z M558 1064 L559 1063 L560 1064 L559 1065 Z M712 1062 L709 1064 L708 1068 L709 1073 L710 1073 L710 1067 Z M703 1062 L701 1069 L701 1075 L707 1081 L707 1086 L706 1087 L705 1085 L703 1086 L703 1091 L701 1093 L701 1095 L692 1107 L689 1113 L685 1106 L682 1108 L683 1114 L687 1116 L679 1123 L675 1130 L674 1135 L681 1123 L690 1115 L693 1110 L693 1108 L698 1103 L702 1101 L703 1099 L701 1100 L700 1098 L703 1094 L706 1087 L707 1089 L708 1088 L709 1077 L707 1076 L706 1079 L703 1074 L703 1069 L704 1068 Z M711 1055 L712 1054 L713 1055 L712 1056 Z M393 1049 L394 1050 L393 1053 L392 1052 Z M408 1045 L409 1044 L410 1045 L409 1046 Z M721 1044 L719 1044 L714 1048 L707 1057 L703 1052 L703 1049 L701 1049 L701 1053 L700 1054 L701 1057 L702 1057 L701 1056 L702 1054 L705 1059 L708 1059 L711 1055 L712 1058 Z M474 1038 L475 1037 L476 1038 L475 1039 Z M721 1035 L720 1039 L721 1042 L723 1040 L723 1036 Z M686 1035 L685 1042 L673 1055 L668 1058 L661 1060 L649 1071 L631 1080 L607 1089 L604 1089 L597 1092 L575 1094 L574 1095 L558 1094 L529 1084 L509 1074 L500 1068 L487 1057 L487 1055 L484 1051 L483 1052 L480 1051 L475 1046 L475 1042 L477 1040 L486 1041 L492 1046 L501 1051 L506 1051 L513 1053 L520 1059 L539 1064 L543 1064 L553 1069 L564 1065 L569 1065 L581 1069 L591 1064 L600 1064 L605 1066 L618 1059 L623 1059 L624 1060 L630 1059 L635 1056 L645 1053 L656 1045 L665 1044 L673 1040 L681 1034 L685 1034 Z M460 1035 L461 1034 L462 1035 L461 1036 Z M457 1034 L459 1036 L454 1040 L453 1037 Z M461 1034 L462 1033 L463 1034 L462 1035 Z M462 1033 L463 1032 L464 1033 L463 1034 Z M690 1040 L688 1034 L684 1031 L678 1033 L675 1036 L666 1041 L655 1043 L651 1045 L646 1050 L629 1057 L617 1057 L606 1063 L602 1063 L596 1061 L590 1062 L581 1067 L574 1064 L566 1063 L564 1060 L556 1063 L546 1063 L545 1062 L524 1058 L517 1055 L512 1050 L502 1049 L495 1046 L487 1039 L476 1038 L475 1036 L471 1039 L471 1043 L473 1047 L494 1066 L514 1079 L533 1088 L550 1094 L558 1096 L572 1097 L573 1096 L583 1096 L584 1095 L597 1094 L632 1082 L650 1073 L658 1066 L664 1064 L674 1057 L682 1050 L687 1041 Z M663 1031 L665 1029 L667 1030 L665 1032 Z M465 1032 L468 1029 L472 1030 L467 1033 Z M666 1029 L667 1028 L669 1029 L668 1030 Z M472 1029 L473 1028 L475 1029 L474 1030 Z M668 1028 L669 1027 L670 1028 L669 1029 Z M721 1026 L722 1025 L723 1026 L722 1027 Z M719 1025 L720 1024 L722 1025 L721 1026 Z M718 1024 L719 1023 L720 1024 L719 1025 Z M716 1023 L717 1022 L718 1023 L717 1024 Z M714 1022 L715 1021 L717 1022 L716 1023 Z M712 1021 L713 1020 L715 1021 L714 1022 Z M711 1020 L712 1019 L713 1020 L712 1021 Z M708 1019 L709 1018 L711 1019 L710 1020 Z M384 1014 L386 1019 L382 1024 L383 1028 L390 1039 L390 1052 L393 1056 L395 1054 L396 1046 L398 1042 L403 1037 L405 1038 L406 1044 L408 1048 L409 1059 L413 1066 L413 1075 L414 1076 L414 1080 L408 1084 L406 1082 L405 1075 L402 1070 L395 1067 L389 1068 L383 1065 L377 1057 L376 1051 L380 1044 L380 1036 L377 1031 L378 1029 L376 1026 L376 1020 L379 1019 Z M395 1011 L396 1015 L400 1018 L401 1024 L397 1029 L393 1025 L393 1019 Z M371 1011 L376 1018 L373 1022 L370 1013 Z M356 1011 L357 1010 L358 1012 L357 1013 Z M313 1002 L314 1003 L313 1006 L312 1005 Z M312 998 L313 999 L312 1002 L311 1001 Z M311 994 L312 995 L311 998 L310 997 Z M444 994 L445 993 L446 994 L445 995 Z M359 991 L360 990 L361 991 L360 992 Z M358 988 L359 987 L360 988 L359 989 Z M358 984 L359 985 L358 988 L357 987 Z M825 983 L826 982 L827 983 L826 984 Z M356 983 L357 982 L358 984 L357 985 Z M698 983 L701 981 L702 982 L701 984 Z M355 981 L356 980 L357 982 L356 983 Z M354 978 L355 977 L356 979 L355 980 Z M353 976 L354 975 L355 976 L354 977 Z M705 973 L706 972 L707 973 L706 974 Z M311 971 L312 970 L313 972 L312 973 Z M686 970 L687 969 L688 970 L687 971 Z M387 964 L388 965 L388 969 L390 970 L387 974 L387 981 L389 986 L386 992 L383 987 L382 980 L385 979 L385 972 Z M691 964 L692 963 L693 964 L692 965 Z M351 964 L350 970 L352 973 L355 986 L360 997 L362 999 L364 999 L365 998 L362 992 L362 988 L357 979 L355 969 L353 972 L351 970 L351 966 L353 965 L353 964 Z M315 963 L316 966 L313 971 L312 967 Z M677 958 L679 963 L683 966 Z M602 956 L603 974 L604 975 L605 987 L608 1000 L608 1007 L610 1015 L610 1032 L611 1033 L610 1006 L608 999 L608 992 L606 986 L607 985 L605 979 L604 965 L603 964 Z M549 954 L547 957 L547 964 L546 965 L545 979 L543 987 L543 995 L541 1003 L540 1026 L539 1027 L540 1034 L542 1005 L544 998 L544 989 L546 982 L546 973 L547 972 Z M867 951 L868 952 L868 958 L866 963 L865 962 L865 956 Z M408 945 L411 948 L417 964 L424 971 L426 975 L431 993 L434 994 L439 989 L441 988 L443 989 L443 994 L442 995 L443 996 L434 1002 L432 1001 L432 1003 L426 1009 L426 1020 L425 1021 L413 1009 L409 1001 L406 987 L403 981 L404 971 L401 963 L401 958 L404 950 Z M832 941 L830 941 L828 958 L825 966 L824 985 L826 987 L822 993 L822 996 L824 996 L826 992 L830 975 L832 972 L831 971 L833 969 L834 962 L832 965 L831 973 L829 975 L827 982 L826 981 L827 964 L830 958 L830 953 L832 948 L834 954 L836 955 L832 945 Z M644 940 L645 939 L649 940 L654 943 L658 948 L657 949 Z M642 939 L643 938 L645 939 L644 940 Z M393 938 L394 939 L394 946 L392 947 L391 943 Z M717 938 L718 937 L719 939 L718 940 Z M640 938 L641 937 L643 938 L642 939 Z M637 937 L638 936 L640 937 L639 938 Z M394 937 L395 936 L396 937 L395 938 Z M544 935 L545 934 L547 935 L546 936 Z M524 935 L525 934 L529 934 L530 935 L529 936 L525 936 Z M622 933 L623 932 L625 933 L624 934 Z M612 933 L613 932 L615 933 L614 934 Z M613 934 L597 944 L581 948 L569 947 L561 945 L553 941 L548 937 L549 935 L552 935 L562 938 L574 938 L583 932 L594 932 L595 933 L594 934 L600 934 L601 933 L612 933 Z M533 933 L534 932 L541 932 L545 934 L544 935 L540 935 Z M866 930 L867 931 L868 947 L865 951 L864 950 L864 945 L865 944 L865 931 Z M784 1038 L780 1032 L768 1020 L762 1018 L749 1011 L746 1011 L732 1004 L727 1003 L719 999 L708 990 L703 982 L703 976 L705 973 L706 975 L708 974 L709 971 L711 970 L711 968 L718 962 L721 957 L708 970 L703 972 L701 976 L701 981 L698 983 L695 981 L694 975 L689 972 L694 965 L697 967 L702 968 L706 966 L710 962 L715 955 L717 950 L716 948 L719 940 L722 951 L723 951 L722 940 L715 932 L714 928 L712 927 L713 933 L716 939 L715 950 L713 952 L713 956 L704 966 L697 965 L693 962 L693 959 L691 958 L691 962 L686 969 L685 968 L684 971 L693 978 L693 981 L696 984 L700 986 L703 986 L711 995 L723 1003 L735 1007 L767 1021 L782 1037 L780 1045 L777 1042 L772 1040 L767 1036 L757 1035 L755 1033 L743 1034 L729 1026 L726 1026 L719 1021 L707 1016 L700 1020 L696 1025 L692 1021 L688 1019 L674 1021 L670 1026 L665 1027 L660 1033 L649 1037 L644 1037 L643 1038 L608 1037 L596 1042 L581 1046 L565 1046 L564 1045 L560 1045 L542 1038 L529 1038 L528 1039 L520 1039 L519 1040 L504 1039 L493 1035 L487 1030 L479 1026 L468 1027 L465 1025 L460 1025 L452 1029 L434 1042 L428 1041 L428 1043 L431 1044 L436 1043 L452 1031 L460 1027 L465 1027 L466 1028 L465 1030 L457 1032 L452 1036 L451 1042 L455 1044 L463 1035 L465 1034 L467 1036 L469 1036 L474 1031 L483 1030 L486 1032 L487 1035 L492 1036 L496 1039 L503 1041 L521 1042 L522 1041 L529 1041 L530 1040 L541 1040 L553 1045 L564 1048 L583 1048 L597 1044 L608 1039 L645 1040 L646 1039 L654 1038 L668 1032 L672 1028 L674 1023 L680 1021 L691 1023 L696 1029 L699 1029 L698 1027 L700 1023 L706 1019 L721 1028 L724 1029 L728 1029 L729 1028 L744 1036 L755 1035 L758 1037 L767 1038 L775 1043 L779 1047 L782 1046 Z M867 920 L870 926 L870 939 L869 940 L868 939 L868 929 L866 925 L866 921 Z M652 931 L650 935 L635 929 L633 929 L632 931 L624 930 L619 932 L600 932 L599 933 L595 933 L594 932 L599 930 L604 930 L616 924 L618 924 L625 918 L628 918 L630 920 L630 924 L632 926 L636 926 L648 922 L651 924 L651 930 Z M377 916 L379 918 L379 922 L377 925 L377 932 L379 935 L379 938 L382 942 L382 945 L380 947 L380 949 L386 959 L386 962 L383 966 L384 967 L384 972 L382 979 L381 975 L377 970 L374 963 L372 947 L369 943 L369 938 L375 928 L375 920 Z M396 913 L397 914 L397 924 L394 927 L395 933 L391 937 L387 933 L387 930 L389 927 L392 927 L393 925 L392 920 L395 917 Z M379 914 L380 913 L381 914 L380 915 Z M397 909 L395 909 L393 912 L394 914 L390 919 L390 924 L385 929 L385 933 L390 939 L389 944 L392 952 L395 951 L396 939 L398 937 L398 932 L396 928 L399 924 L399 916 Z M435 908 L436 907 L437 908 L436 909 Z M438 907 L439 906 L440 907 L439 908 Z M535 906 L534 909 L538 913 L538 918 L544 923 L543 924 L541 923 L531 924 L530 927 L538 924 L542 926 L545 926 L550 932 L554 931 L555 927 L552 930 L550 930 L548 926 L544 924 L546 923 L539 917 L539 912 L535 908 L536 906 Z M436 906 L437 905 L438 907 L437 908 Z M374 904 L376 908 L375 910 L372 909 Z M440 900 L438 901 L431 910 L426 911 L423 916 L422 922 L423 923 L423 933 L425 938 L427 938 L424 931 L424 917 L428 911 L429 914 L430 914 L435 908 L436 911 L440 910 L441 908 L441 901 Z M809 892 L807 892 L808 893 L807 894 L802 893 L801 898 L799 901 L799 904 L795 905 L795 916 L798 924 L797 931 L800 933 L800 940 L798 944 L799 949 L801 949 L802 947 L803 940 L802 941 L801 940 L802 938 L801 931 L798 929 L799 921 L797 917 L797 908 L801 905 L802 898 L804 894 L805 897 L807 897 L808 894 L811 897 L814 905 L813 914 L808 924 L809 927 L807 929 L804 937 L807 935 L807 933 L810 929 L810 924 L813 919 L813 916 L815 912 L814 899 Z M416 891 L421 900 L421 903 L419 905 L414 897 L414 893 Z M858 889 L860 891 L861 905 L860 906 L860 931 L859 932 L859 944 L858 945 L857 969 L856 970 L855 969 L855 961 L854 960 L854 920 L855 919 L855 908 L856 907 L856 899 L857 898 L857 890 Z M379 888 L382 892 L382 894 L377 898 L375 896 L375 892 Z M414 887 L413 889 L413 897 L417 906 L420 909 L422 905 L422 899 L417 889 Z M507 880 L503 879 L492 885 L489 889 L495 884 L502 881 L507 881 Z M512 878 L512 880 L516 883 L516 888 L521 893 L521 895 L523 897 L523 902 L527 907 L523 913 L525 920 L525 928 L526 928 L525 912 L527 910 L528 906 L530 907 L531 910 L532 909 L530 905 L528 903 L527 904 L524 901 L525 896 L527 894 L529 894 L530 892 L527 892 L523 895 L516 886 L517 882 L514 878 Z M865 874 L866 875 L867 915 L866 916 L865 913 L864 913 L864 918 L865 919 L864 920 L864 927 L863 928 L863 961 L866 964 L862 969 L859 969 L858 966 L859 965 L861 927 L862 926 L862 901 L863 900 L862 893 L863 892 L864 875 Z M644 875 L641 875 L636 878 L634 878 L631 881 L630 885 L631 887 L626 894 L623 906 L624 906 L624 904 L627 899 L626 898 L631 890 L633 881 L636 878 L637 879 L643 877 Z M680 874 L674 870 L660 864 L639 861 L639 863 L651 864 L659 866 L675 873 L685 881 L692 892 L696 907 L696 927 L695 928 L695 933 L691 942 L680 952 L673 954 L668 954 L662 952 L670 946 L675 937 L677 929 L677 910 L675 902 L670 892 L659 880 L652 876 L648 876 L660 883 L671 897 L676 914 L676 925 L675 926 L674 935 L670 943 L663 950 L654 941 L647 937 L633 933 L626 933 L625 932 L626 931 L635 931 L643 933 L646 935 L653 936 L656 938 L653 934 L652 924 L650 921 L633 924 L631 918 L628 915 L622 918 L620 921 L607 927 L594 930 L584 930 L574 935 L561 936 L554 934 L548 934 L543 931 L530 931 L529 933 L523 932 L522 933 L514 934 L503 940 L497 946 L498 950 L494 952 L487 949 L482 944 L479 938 L477 930 L477 915 L478 914 L478 909 L480 901 L486 887 L497 876 L509 869 L509 868 L507 868 L496 874 L486 884 L480 895 L475 912 L475 931 L476 935 L481 946 L485 950 L491 953 L488 955 L484 955 L475 952 L469 948 L462 940 L458 928 L458 920 L457 919 L458 907 L463 893 L474 879 L491 868 L501 865 L512 865 L513 863 L496 864 L488 867 L477 874 L466 885 L458 899 L458 903 L456 907 L456 926 L457 927 L457 931 L462 943 L473 953 L476 964 L480 968 L477 973 L472 977 L471 976 L472 968 L470 961 L468 959 L465 952 L458 945 L460 949 L465 954 L465 957 L470 965 L471 973 L469 977 L464 982 L461 983 L453 993 L449 995 L445 993 L443 987 L440 987 L433 993 L431 989 L431 984 L429 981 L428 976 L426 974 L425 970 L418 963 L411 945 L408 943 L401 952 L400 955 L400 965 L402 970 L402 982 L407 995 L407 999 L412 1010 L415 1013 L409 1016 L403 1023 L401 1016 L397 1012 L395 1007 L394 1007 L391 1019 L391 1025 L393 1028 L388 1031 L385 1027 L385 1023 L388 1021 L388 1018 L386 1014 L384 1012 L378 1017 L372 1009 L369 1011 L370 1020 L374 1024 L376 1033 L378 1036 L378 1044 L374 1051 L374 1054 L378 1062 L383 1067 L389 1070 L395 1069 L403 1073 L403 1078 L404 1079 L403 1082 L398 1077 L393 1076 L388 1080 L388 1084 L399 1107 L408 1119 L409 1125 L414 1133 L426 1144 L430 1144 L431 1142 L430 1131 L431 1130 L429 1125 L429 1119 L426 1111 L421 1104 L420 1100 L414 1094 L408 1091 L404 1086 L405 1083 L409 1088 L411 1088 L412 1086 L411 1084 L412 1083 L413 1084 L416 1080 L416 1077 L414 1073 L414 1064 L410 1058 L410 1048 L409 1046 L411 1044 L421 1040 L418 1039 L408 1043 L407 1042 L407 1038 L404 1035 L396 1042 L393 1049 L392 1048 L392 1039 L389 1035 L389 1033 L391 1031 L397 1032 L409 1018 L415 1015 L424 1022 L427 1022 L427 1011 L433 1004 L441 999 L449 997 L456 993 L469 981 L474 978 L480 972 L482 968 L488 963 L488 962 L486 962 L480 968 L475 957 L476 954 L481 956 L491 956 L494 955 L499 950 L497 949 L498 947 L504 941 L517 935 L524 935 L525 936 L517 938 L507 945 L516 940 L519 940 L523 938 L533 937 L534 938 L541 938 L565 948 L569 948 L570 949 L588 949 L599 945 L612 938 L630 937 L638 939 L646 943 L657 951 L662 952 L665 955 L672 956 L682 953 L690 946 L695 939 L698 929 L698 907 L697 906 L696 897 L691 886 Z M857 858 L858 859 L858 879 L859 880 L859 888 L858 889 L857 888 L857 881 L856 880 L856 859 Z M382 858 L384 861 L385 875 L381 884 L380 883 L380 871 L381 870 L381 859 Z M392 857 L395 858 L394 861 L395 862 L394 863 L392 862 L391 859 Z M352 858 L353 857 L354 858 L353 859 Z M382 857 L383 856 L384 857 L383 858 Z M383 852 L379 859 L380 868 L378 873 L378 886 L373 893 L374 900 L370 907 L370 910 L372 912 L374 912 L376 910 L377 914 L373 919 L373 929 L368 935 L367 943 L371 950 L372 963 L375 970 L379 975 L380 986 L383 989 L384 992 L387 994 L390 988 L390 983 L388 979 L388 976 L390 974 L391 970 L387 963 L388 959 L386 954 L384 953 L382 949 L384 942 L381 937 L381 934 L379 932 L379 925 L383 915 L377 905 L374 904 L376 900 L378 901 L382 897 L385 890 L385 887 L383 886 L383 883 L386 878 L387 869 L386 868 L386 860 L384 856 L385 852 Z M369 843 L368 844 L364 844 L362 847 L366 850 L366 847 L368 845 L370 845 Z M390 834 L391 833 L392 834 L391 835 Z M385 827 L381 831 L379 839 L381 844 L384 845 L387 848 L388 844 L385 842 L383 843 L381 840 L382 833 L387 828 L390 836 L390 842 L392 846 L395 849 L396 848 L397 849 L397 853 L394 856 L391 854 L389 857 L389 859 L392 864 L395 865 L399 853 L399 849 L394 844 L394 842 L393 843 L392 842 L392 839 L393 838 L395 839 L394 834 L390 831 L390 829 L388 827 Z M326 824 L328 827 L331 828 L331 837 L333 839 L333 843 L328 847 L326 858 L319 868 L316 866 L317 846 L319 841 L324 834 L324 830 Z M377 824 L374 827 L373 835 L375 836 L375 829 Z M328 822 L326 822 L324 824 L322 835 L317 841 L315 846 L315 855 L314 856 L314 869 L315 870 L314 873 L314 883 L316 884 L318 880 L318 873 L327 859 L329 849 L334 844 L334 838 L332 835 L332 830 L333 829 L332 826 L330 826 Z M376 809 L374 809 L372 811 L370 811 L361 816 L353 825 L351 829 L354 837 L353 840 L351 841 L351 843 L348 846 L347 854 L348 857 L353 861 L357 856 L365 852 L362 851 L359 854 L357 854 L354 858 L349 855 L350 845 L354 843 L355 841 L355 834 L353 832 L353 828 L362 817 L371 812 L373 812 Z M376 805 L377 804 L378 805 L377 806 Z M366 803 L367 802 L368 803 L367 804 Z M377 804 L374 806 L368 806 L367 805 L373 801 Z M367 802 L368 801 L369 802 L368 803 Z M363 802 L364 801 L365 802 L364 803 Z M368 801 L369 800 L370 801 L369 802 Z M364 801 L365 800 L366 801 L365 802 Z M365 800 L366 799 L367 800 L366 801 Z M366 799 L367 798 L368 799 L367 800 Z M367 798 L368 797 L369 798 L368 799 Z M378 795 L379 796 L376 801 L374 798 Z M368 796 L369 795 L370 796 L369 797 Z M378 795 L379 794 L380 795 L379 796 Z M369 795 L370 794 L371 795 L370 796 Z M379 794 L380 793 L381 794 L380 795 Z M370 794 L371 793 L372 794 L371 795 Z M380 793 L381 792 L382 793 L381 794 Z M376 793 L377 792 L378 793 L377 794 Z M371 793 L372 792 L373 793 L372 794 Z M377 792 L378 791 L379 792 L378 793 Z M372 792 L373 791 L374 792 L373 793 Z M378 791 L379 790 L380 791 L379 792 Z M379 790 L380 789 L381 790 L380 791 Z M427 792 L432 789 L436 789 L437 788 L454 788 L458 790 L457 791 L450 791 L436 795 L432 795 Z M382 788 L383 787 L384 788 L383 789 Z M383 787 L384 786 L385 787 L384 788 Z M384 786 L385 785 L386 786 L385 787 Z M385 785 L386 784 L387 785 L386 786 Z M304 785 L306 800 L307 801 L307 822 L309 822 L309 801 L305 785 Z M386 784 L388 782 L390 783 L388 785 Z M744 782 L736 787 L727 788 L726 789 L713 789 L704 785 L704 787 L713 791 L726 791 L738 788 L743 785 Z M858 779 L859 780 L858 784 L857 783 Z M673 780 L674 779 L675 780 L674 781 Z M674 779 L675 778 L676 779 L675 780 Z M601 779 L602 778 L603 779 L602 780 Z M340 779 L341 778 L342 779 L341 780 Z M676 778 L677 777 L678 778 L677 779 Z M678 777 L679 776 L680 777 L679 778 Z M600 777 L601 776 L602 778 L601 779 Z M399 777 L391 783 L389 782 L397 776 Z M680 776 L681 775 L682 776 L681 777 Z M470 776 L473 775 L487 781 L492 782 L505 790 L509 794 L507 796 L494 797 L493 798 L483 798 L482 797 L472 796 L471 795 L472 780 Z M398 776 L399 775 L401 776 L400 777 Z M696 775 L695 783 L694 784 L694 790 L697 796 L695 798 L683 798 L682 799 L671 799 L670 800 L663 800 L662 799 L651 800 L650 799 L653 795 L671 784 L692 774 Z M681 775 L682 774 L684 775 L683 776 Z M469 775 L470 774 L471 775 L470 776 Z M400 775 L401 774 L402 775 L401 776 Z M340 775 L341 774 L342 776 L341 777 Z M684 774 L685 773 L687 774 L686 775 Z M419 777 L419 783 L418 784 L418 791 L420 798 L419 802 L410 803 L409 804 L401 804 L400 805 L381 805 L379 803 L379 800 L382 795 L391 786 L403 777 L411 773 L417 775 Z M402 774 L403 773 L404 774 L403 775 Z M686 773 L687 772 L689 773 L688 774 Z M404 773 L405 772 L406 773 L405 774 Z M468 772 L469 771 L470 772 L469 773 Z M406 772 L407 771 L408 772 L407 773 Z M339 772 L340 771 L341 773 L340 774 Z M857 770 L858 771 L858 779 L857 780 L856 779 L856 771 Z M746 771 L747 770 L751 770 L767 777 L779 785 L782 788 L782 790 L778 792 L767 793 L766 794 L758 794 L757 795 L746 794 L745 792 L748 786 L748 776 Z M465 771 L466 770 L467 771 L466 772 Z M462 770 L463 769 L464 770 L463 771 Z M417 770 L414 772 L410 772 L409 771 L414 769 Z M418 774 L425 770 L435 769 L436 768 L451 769 L463 772 L470 779 L470 791 L469 792 L470 796 L467 798 L455 799 L454 798 L456 796 L458 796 L462 793 L462 791 L459 788 L452 786 L439 786 L438 787 L432 787 L428 789 L426 791 L426 794 L429 796 L440 796 L453 792 L458 792 L459 793 L454 795 L453 799 L437 800 L436 801 L423 801 L421 798 L421 793 L420 792 L421 777 Z M416 769 L417 768 L421 768 L422 769 L421 770 L417 770 Z M421 768 L422 767 L424 768 L423 769 Z M745 770 L746 787 L744 790 L744 794 L745 795 L744 796 L724 797 L723 798 L702 798 L698 795 L697 793 L697 786 L699 783 L699 780 L700 779 L701 782 L703 782 L701 775 L697 773 L698 772 L715 767 L723 767 L724 766 L741 767 Z M663 762 L661 763 L660 769 L662 769 L664 765 Z M797 791 L780 777 L765 768 L755 764 L743 761 L722 760 L721 761 L714 761 L701 764 L686 770 L661 785 L643 798 L642 800 L647 798 L650 802 L657 802 L658 801 L670 802 L671 801 L681 801 L682 800 L724 801 L725 800 L742 798 L743 797 L773 795 L774 794 L783 793 L786 791 L781 784 L769 776 L757 770 L745 766 L740 766 L739 765 L718 765 L717 766 L707 767 L697 771 L694 771 L691 773 L688 772 L700 766 L711 763 L717 763 L718 762 L739 762 L758 767 L769 772 L780 779 L796 793 L797 793 Z M335 757 L332 764 L332 768 L334 766 L334 763 L336 759 L340 764 L340 770 L339 771 L338 767 L337 767 L337 772 L339 779 L338 780 L333 775 L335 779 L341 785 L343 782 L342 767 L338 758 Z M585 754 L582 757 L582 760 L584 764 L588 767 L591 773 L596 775 L600 779 L605 788 L606 786 L604 782 L602 781 L603 777 L599 770 L595 766 L591 758 L589 756 L593 763 L593 765 L601 775 L600 777 L594 772 L590 771 L589 770 L589 766 L584 762 L582 758 L586 755 Z M355 809 L358 807 L361 808 L366 803 L367 804 L366 807 L401 807 L402 806 L408 806 L409 805 L421 804 L422 803 L436 803 L437 802 L450 802 L451 801 L459 801 L460 802 L456 806 L452 808 L441 811 L434 810 L429 807 L427 807 L430 810 L435 812 L444 812 L453 809 L464 800 L467 799 L472 799 L473 798 L483 799 L484 800 L501 799 L509 797 L510 793 L497 782 L478 772 L470 769 L457 766 L451 766 L450 765 L424 765 L423 766 L413 767 L399 773 L398 772 L396 775 L393 776 L385 782 L376 791 L374 792 L373 791 L377 785 L393 769 L400 764 L413 758 L421 757 L422 756 L428 756 L429 755 L448 755 L467 760 L484 769 L507 786 L503 781 L487 769 L469 759 L458 755 L449 754 L448 753 L427 753 L410 757 L391 768 L378 781 Z M646 792 L662 778 L681 764 L693 758 L717 752 L734 752 L735 753 L747 754 L759 758 L778 769 L797 787 L798 786 L782 770 L769 761 L759 756 L740 751 L718 750 L717 751 L711 751 L710 752 L702 753 L683 761 L664 774 Z M371 755 L372 752 L376 749 L380 755 L384 754 L387 751 L390 751 L392 754 L391 756 L393 757 L392 758 L388 758 L385 760 L378 760 L377 761 L374 760 Z M300 746 L305 758 L305 763 L301 773 L300 772 L300 759 L299 758 L299 747 Z M665 745 L663 752 L663 759 L665 753 Z M862 741 L864 747 L864 768 L863 769 L863 878 L861 885 L860 884 L860 875 L859 874 L860 854 L858 851 L857 842 L859 837 L860 814 L861 813 L859 747 Z M308 737 L309 736 L310 738 L309 739 Z M860 735 L861 736 L860 740 L859 739 Z M309 734 L310 733 L311 735 L310 736 Z M524 732 L525 731 L526 732 L525 733 Z M859 729 L860 730 L860 735 L859 736 L858 735 L858 730 Z M396 729 L402 736 L403 742 L400 745 L397 744 L395 746 L389 736 L389 733 Z M286 730 L288 729 L291 731 L288 732 Z M668 726 L669 727 L668 730 L667 729 Z M297 726 L298 727 L297 756 L298 757 L298 770 L299 771 L299 777 L298 778 L296 777 L296 772 L295 771 L296 760 L295 761 L294 760 L294 744 L293 743 L293 729 Z M301 720 L303 721 L303 725 L304 724 L305 725 L306 731 L308 732 L305 742 L305 746 L303 749 L302 745 L300 743 L300 721 Z M296 721 L297 720 L298 722 L297 723 Z M293 719 L294 720 L294 724 L290 728 L287 725 L287 722 L289 720 Z M298 716 L299 717 L298 720 L297 719 Z M863 712 L864 713 L864 737 L863 738 L862 737 L861 724 L859 717 L861 716 Z M297 713 L298 712 L299 713 L298 714 Z M761 709 L762 708 L763 709 L762 710 Z M757 708 L753 711 L756 710 Z M771 706 L768 706 L763 709 L762 708 L764 706 L763 705 L759 708 L761 710 L754 714 L754 716 Z M683 705 L684 704 L685 706 L684 707 Z M684 704 L685 703 L686 704 L685 705 Z M375 702 L376 704 L373 706 L372 704 Z M687 701 L684 702 L670 716 L666 727 L666 733 L666 731 L667 730 L668 731 L667 735 L668 738 L669 738 L669 733 L670 732 L670 727 L668 726 L668 723 L671 717 L683 706 L684 708 L680 715 L681 716 L688 703 Z M283 700 L285 701 L286 709 L292 716 L287 719 L280 714 L278 709 L279 703 Z M284 700 L285 699 L286 700 L285 701 Z M782 698 L783 697 L784 698 L783 699 Z M370 697 L372 699 L371 703 L366 710 L366 715 L364 716 L363 715 L364 713 L362 712 L362 710 L365 705 L366 700 Z M290 697 L291 698 L292 708 L296 714 L295 716 L291 713 L289 710 L290 708 L289 709 L287 706 L287 701 Z M327 697 L325 697 L323 702 L325 702 L325 699 L326 698 L327 699 L328 703 L327 707 L325 708 L324 706 L322 706 L324 714 L327 712 L329 706 L329 702 Z M283 697 L284 696 L285 697 L284 698 Z M754 696 L754 698 L757 701 L757 705 L756 706 L758 706 L759 702 L757 698 Z M869 693 L872 696 L872 705 L871 706 L870 734 L869 735 L869 803 L868 804 L868 822 L867 823 L867 834 L866 835 L865 834 L865 774 L866 773 L866 748 L865 747 L866 712 L865 711 L865 696 Z M287 694 L288 693 L289 694 L288 695 Z M376 692 L377 693 L377 697 L374 701 L372 696 Z M300 688 L301 689 L300 697 L297 708 L295 709 L293 705 L293 696 Z M862 687 L863 688 L863 709 L860 715 L858 708 L858 700 Z M785 688 L786 687 L787 688 L786 689 Z M375 688 L376 689 L365 699 L363 704 L361 699 L363 695 L371 687 Z M300 688 L301 687 L302 688 L301 689 Z M366 687 L367 686 L368 688 L367 689 Z M273 686 L274 685 L275 687 L274 688 Z M863 684 L864 685 L863 688 L862 687 Z M874 683 L875 684 L875 691 L874 692 L867 692 L865 694 L864 693 L865 687 L868 684 Z M408 683 L409 684 L409 688 L401 696 L397 706 L397 711 L394 714 L392 710 L386 709 L385 705 L388 693 L396 685 L403 683 Z M368 683 L369 684 L368 687 L367 686 Z M374 682 L375 683 L374 686 L373 685 Z M335 682 L338 687 L336 690 L333 686 Z M305 683 L306 682 L307 684 L306 685 Z M306 682 L307 681 L308 682 L307 683 Z M408 681 L405 682 L403 681 L401 683 L399 681 L394 684 L388 690 L385 695 L383 708 L386 711 L390 711 L393 715 L392 716 L393 722 L396 727 L394 729 L390 730 L387 734 L387 736 L394 749 L393 750 L388 749 L383 753 L377 748 L369 750 L368 752 L369 754 L368 755 L374 762 L378 762 L379 761 L383 761 L384 762 L389 759 L391 760 L394 759 L396 748 L398 746 L399 747 L402 746 L405 741 L402 733 L395 723 L395 719 L399 711 L399 705 L401 702 L401 699 L409 691 L411 687 L411 684 Z M307 680 L308 679 L309 680 L308 681 Z M308 679 L309 678 L310 679 L309 680 Z M371 677 L374 681 L373 683 L370 682 L369 683 L368 682 Z M781 677 L782 676 L783 677 L782 678 Z M780 675 L781 674 L782 676 L781 677 Z M866 673 L867 677 L864 685 L863 684 L863 678 Z M779 673 L780 672 L781 674 L780 675 Z M778 672 L779 671 L780 672 L779 673 Z M298 671 L299 672 L293 680 L290 688 L290 691 L276 700 L274 697 L274 694 L276 692 L276 687 L279 681 L286 675 Z M867 670 L868 671 L867 674 L866 673 Z M298 671 L299 670 L301 671 L300 672 Z M777 670 L778 669 L779 670 L778 671 Z M374 670 L375 669 L376 670 L375 671 Z M334 669 L337 671 L338 675 L342 678 L344 682 L344 684 L342 686 L340 686 L329 674 Z M293 670 L283 675 L277 681 L275 685 L274 684 L276 678 L280 674 L290 669 Z M776 669 L777 668 L778 669 L777 670 Z M375 669 L376 668 L377 669 L376 670 Z M376 668 L377 667 L378 668 L377 669 Z M773 667 L775 665 L777 668 L776 669 Z M772 666 L773 665 L774 666 L773 667 Z M377 666 L378 665 L379 666 L378 667 Z M773 665 L774 664 L775 665 L774 666 Z M771 665 L772 664 L773 665 L772 666 Z M324 664 L325 665 L325 669 L327 671 L328 676 L330 679 L326 686 L324 683 L321 686 L320 690 L316 696 L315 722 L311 733 L307 722 L304 719 L304 710 L302 706 L301 699 L302 698 L304 685 L305 684 L306 686 L308 685 L313 674 L322 668 Z M307 665 L296 670 L292 669 L297 666 L300 666 L304 664 Z M772 664 L773 663 L774 664 L773 665 Z M306 664 L307 663 L309 664 L308 665 Z M771 663 L772 662 L773 663 L772 664 Z M319 662 L321 664 L321 666 L309 675 L293 693 L292 689 L297 677 L305 669 L311 665 Z M309 663 L310 662 L312 663 L311 664 Z M770 662 L771 661 L772 662 L771 663 Z M866 660 L867 663 L865 670 L864 669 L864 663 Z M319 660 L321 658 L323 658 L325 663 L323 664 Z M327 651 L328 650 L329 651 L328 652 Z M268 649 L276 672 L276 676 L274 678 L271 686 L272 697 L277 703 L276 705 L277 713 L279 717 L285 722 L285 726 L287 728 L286 730 L279 725 L271 717 L266 708 L262 695 L262 685 L268 670 L268 659 L267 658 L267 650 Z M394 655 L394 656 L396 656 L406 652 L414 651 L415 650 L432 649 L433 650 L440 650 L441 651 L450 652 L463 656 L484 668 L500 684 L511 699 L521 718 L525 729 L525 731 L523 733 L525 740 L526 760 L527 761 L526 788 L525 789 L525 797 L524 798 L524 804 L522 812 L522 821 L521 822 L520 835 L517 845 L517 849 L514 856 L515 856 L520 842 L520 837 L523 824 L524 807 L526 800 L527 781 L528 780 L528 754 L527 753 L527 744 L525 738 L525 734 L526 733 L527 734 L526 728 L522 717 L514 701 L503 685 L489 670 L475 660 L460 653 L444 649 L438 649 L437 648 L418 648 L417 649 L407 650 Z M360 698 L360 705 L362 709 L360 711 L360 714 L365 719 L368 715 L369 707 L370 706 L371 707 L370 713 L372 713 L373 709 L377 706 L378 704 L377 701 L379 698 L379 693 L377 691 L381 687 L397 678 L408 674 L416 673 L417 672 L424 672 L425 671 L439 671 L440 672 L451 673 L463 677 L473 682 L483 689 L501 708 L501 706 L496 699 L478 683 L463 675 L446 670 L426 669 L425 670 L411 671 L392 678 L377 689 L375 688 L377 686 L377 683 L374 679 L374 676 L380 668 L380 666 L378 665 L385 658 L392 653 L402 648 L417 644 L426 644 L427 643 L447 644 L463 648 L480 656 L492 665 L502 675 L515 693 L524 711 L529 728 L530 728 L529 721 L524 707 L516 692 L505 676 L490 661 L480 654 L465 647 L451 643 L446 643 L445 642 L421 642 L420 643 L414 643 L413 644 L405 645 L392 651 L386 655 L372 670 L365 684 L363 690 L363 694 Z M268 640 L273 640 L274 641 L279 657 L285 669 L280 672 L275 665 L275 662 L267 641 Z M770 640 L771 639 L772 640 L771 641 Z M763 651 L743 641 L732 638 L726 638 L725 637 L710 637 L709 638 L703 638 L690 641 L675 647 L656 659 L641 673 L631 685 L617 707 L612 718 L611 723 L612 723 L612 721 L625 697 L640 677 L659 659 L673 650 L684 645 L696 641 L706 640 L707 639 L729 639 L730 640 L734 640 L749 645 L763 653 L771 660 L770 662 L772 664 L770 665 L759 656 L749 651 L743 650 L739 648 L724 647 L723 646 L704 648 L686 654 L673 661 L660 670 L640 689 L626 709 L621 719 L615 739 L617 741 L617 744 L615 749 L614 765 L613 766 L613 793 L615 797 L614 800 L615 801 L617 818 L619 824 L620 837 L623 847 L624 847 L624 843 L623 842 L623 836 L621 831 L621 826 L618 815 L617 799 L615 794 L615 785 L614 784 L614 780 L615 779 L615 761 L616 760 L616 754 L618 747 L619 731 L624 717 L636 697 L650 681 L664 669 L676 661 L699 651 L707 650 L708 649 L714 649 L715 648 L726 648 L727 649 L735 649 L752 654 L759 658 L767 664 L776 673 L785 684 L786 687 L784 688 L775 681 L759 673 L747 669 L742 669 L736 667 L708 668 L703 670 L699 670 L689 674 L684 678 L699 672 L707 670 L712 670 L713 669 L737 669 L738 670 L747 671 L768 679 L778 685 L781 688 L780 689 L773 689 L770 691 L767 691 L763 695 L765 695 L769 692 L778 691 L781 688 L787 693 L782 697 L781 694 L779 695 L780 699 L783 700 L775 704 L774 703 L773 705 L777 706 L782 703 L788 697 L786 695 L787 693 L789 694 L787 690 L788 689 L787 682 L783 673 L776 663 Z M281 635 L282 636 L283 652 L284 653 L284 659 L283 660 L279 651 L279 643 Z M284 631 L289 640 L289 667 L288 668 L286 666 L286 653 L285 652 L285 643 L283 635 Z M869 630 L870 631 L870 638 L869 639 L868 638 L868 631 Z M282 630 L283 629 L284 630 L283 631 Z M762 628 L763 627 L764 628 L763 629 Z M305 624 L306 623 L307 624 L306 625 Z M745 620 L747 619 L751 623 L759 626 L762 631 L763 631 L764 628 L768 632 L768 635 L770 636 L771 639 L769 640 L760 634 Z M744 619 L745 618 L746 619 L745 620 Z M285 618 L293 626 L295 634 L295 643 L296 644 L295 665 L292 667 L291 666 L290 637 L288 632 L285 629 L283 620 Z M735 611 L735 613 L744 618 L742 619 L758 634 L771 643 L774 643 L772 636 L766 628 L762 627 L754 622 L752 622 L746 617 Z M682 611 L683 610 L684 611 L683 612 Z M683 609 L684 608 L685 610 L684 611 Z M875 604 L876 605 L876 619 L875 620 L874 662 L872 670 L872 681 L868 683 L867 681 L870 672 L869 657 L871 652 L872 613 Z M875 602 L876 601 L877 603 L876 604 Z M792 601 L795 601 L797 603 L801 603 L804 606 L806 612 L813 617 L815 621 L815 626 L813 629 L812 626 L808 622 L807 618 L804 616 L802 617 L799 613 L797 607 L791 603 Z M684 606 L689 601 L693 605 L700 608 L696 609 L693 607 L687 607 L685 609 Z M873 599 L874 602 L870 614 L870 618 L864 644 L864 651 L865 644 L866 643 L867 644 L868 659 L867 660 L865 654 L863 654 L862 678 L861 679 L861 686 L859 689 L858 688 L859 671 L860 670 L860 660 L861 659 L864 627 L865 626 L865 621 L868 609 Z M704 609 L694 604 L690 600 L687 600 L683 605 L683 610 L682 611 L683 612 L678 618 L688 608 L702 611 Z M790 601 L790 605 L793 606 L797 610 L798 615 L800 617 L806 619 L806 622 L810 627 L811 632 L814 634 L816 631 L816 619 L814 616 L807 610 L805 605 L802 602 L797 601 L794 599 Z M873 598 L874 597 L875 598 L874 599 Z M874 596 L875 595 L876 596 L875 597 Z M308 583 L309 582 L310 583 L309 584 Z M311 576 L312 579 L310 583 L309 579 Z M299 576 L300 577 L300 598 L299 599 L299 626 L297 634 L293 621 L290 616 L287 615 L287 591 L289 587 Z M311 576 L312 575 L313 576 L312 577 Z M309 568 L310 572 L306 585 L306 606 L305 609 L303 610 L302 662 L300 664 L298 664 L297 663 L297 649 L300 645 L299 634 L300 633 L300 624 L301 623 L302 574 Z M443 568 L444 567 L445 569 L444 570 Z M445 567 L450 565 L454 565 L455 566 L451 568 L446 568 Z M460 565 L461 564 L465 565 L464 566 Z M850 559 L859 567 L863 573 L867 585 L867 590 L874 592 L870 600 L864 618 L861 644 L860 645 L859 661 L858 662 L857 661 L857 657 L858 673 L857 674 L857 700 L856 701 L855 700 L855 671 L854 670 L855 666 L855 647 L854 646 L854 635 L853 634 L854 609 L852 601 L852 594 L850 589 L849 577 L847 573 L849 565 L849 560 Z M760 559 L761 558 L762 559 L761 560 Z M750 559 L750 564 L752 567 L760 571 L760 581 L762 584 L763 590 L764 590 L766 584 L764 585 L761 579 L762 572 L759 568 L756 568 L751 562 L752 560 Z M759 555 L758 557 L759 561 L761 561 L762 559 L766 563 L764 569 L764 576 L766 578 L765 571 L767 566 L767 562 Z M473 567 L462 563 L461 562 L461 558 L459 556 L455 555 L450 555 L449 556 L443 555 L428 560 L424 564 L422 569 L414 575 L414 581 L412 585 L413 587 L415 583 L415 576 L423 571 L423 569 L428 561 L432 561 L442 557 L457 557 L460 559 L459 562 L461 564 L460 565 L448 564 L441 567 L441 569 L445 574 L440 577 L439 581 L443 585 L440 591 L440 594 L434 599 L432 598 L426 599 L423 597 L417 596 L413 591 L412 593 L418 598 L421 598 L425 600 L429 600 L430 599 L431 600 L435 600 L440 597 L442 594 L442 590 L444 584 L441 581 L441 579 L447 574 L447 572 L444 570 L445 569 L448 570 L458 567 L468 567 L469 568 Z M277 543 L278 542 L279 543 L278 544 Z M278 540 L279 539 L280 540 L279 541 Z M359 543 L403 530 L423 527 L424 526 L429 526 L430 525 L451 523 L452 522 L479 520 L480 519 L491 519 L492 518 L503 518 L504 517 L516 517 L517 516 L532 516 L533 515 L607 515 L608 516 L635 516 L636 517 L666 517 L667 518 L704 519 L705 520 L730 521 L731 522 L740 522 L741 523 L749 523 L750 524 L771 526 L802 534 L841 553 L847 557 L846 575 L847 576 L847 581 L851 598 L851 606 L852 607 L854 718 L855 719 L855 743 L856 744 L856 752 L857 753 L856 763 L855 764 L855 774 L854 775 L855 776 L855 782 L857 787 L857 795 L858 796 L858 825 L857 826 L857 837 L855 844 L857 852 L856 853 L856 858 L854 862 L854 876 L856 884 L856 896 L854 903 L853 934 L852 935 L853 964 L854 965 L854 972 L856 976 L855 977 L855 986 L854 987 L851 1007 L841 1037 L825 1072 L811 1093 L804 1099 L805 1098 L806 1099 L804 1104 L767 1156 L752 1174 L751 1172 L749 1174 L750 1176 L748 1179 L738 1186 L731 1193 L730 1192 L731 1188 L736 1178 L736 1175 L741 1171 L749 1156 L754 1142 L755 1136 L764 1118 L768 1116 L772 1116 L780 1111 L781 1113 L776 1122 L777 1123 L782 1114 L783 1110 L785 1108 L785 1106 L783 1106 L778 1112 L773 1113 L771 1115 L766 1115 L762 1118 L753 1137 L752 1144 L749 1149 L747 1157 L741 1168 L735 1174 L734 1178 L731 1182 L730 1188 L728 1192 L724 1196 L720 1198 L717 1201 L716 1204 L698 1220 L698 1224 L699 1225 L683 1240 L671 1246 L642 1255 L627 1257 L626 1258 L619 1258 L618 1259 L608 1259 L607 1260 L572 1260 L571 1259 L555 1258 L554 1257 L537 1254 L523 1249 L513 1244 L485 1226 L464 1210 L431 1182 L406 1158 L407 1156 L408 1157 L410 1156 L410 1152 L406 1146 L401 1133 L392 1123 L388 1115 L385 1112 L386 1111 L392 1112 L392 1106 L390 1102 L385 1097 L382 1091 L379 1089 L377 1092 L378 1093 L378 1099 L380 1102 L379 1104 L376 1099 L371 1094 L368 1086 L366 1084 L365 1079 L361 1074 L360 1071 L360 1067 L361 1066 L362 1070 L365 1072 L360 1064 L359 1066 L358 1065 L358 1062 L355 1056 L356 1040 L357 1039 L357 1022 L356 1020 L357 1019 L357 1014 L358 1013 L359 1014 L358 1010 L356 1011 L355 1010 L355 1008 L348 995 L348 983 L345 976 L344 967 L340 956 L336 933 L333 929 L329 931 L326 928 L326 926 L323 925 L322 927 L323 930 L325 929 L329 933 L333 932 L335 935 L339 958 L347 985 L346 988 L347 989 L347 996 L349 1002 L355 1012 L355 1031 L356 1032 L355 1045 L354 1046 L355 1063 L360 1075 L364 1093 L370 1105 L371 1111 L378 1125 L377 1127 L360 1108 L341 1084 L325 1059 L314 1015 L315 999 L313 995 L314 972 L317 968 L317 963 L315 962 L316 958 L321 956 L323 952 L324 933 L323 932 L322 933 L322 949 L321 953 L315 957 L313 963 L310 967 L310 972 L312 973 L312 984 L311 985 L311 993 L310 994 L309 993 L308 981 L307 980 L306 935 L305 934 L305 913 L304 912 L304 870 L303 869 L303 857 L301 849 L299 786 L300 785 L300 777 L304 774 L307 762 L307 758 L306 757 L306 745 L307 744 L310 751 L312 753 L312 771 L315 778 L315 789 L316 790 L316 825 L313 830 L311 837 L310 859 L308 864 L308 868 L306 871 L306 876 L307 876 L311 862 L313 836 L318 825 L317 777 L314 772 L314 764 L313 763 L314 756 L313 752 L310 748 L311 747 L309 743 L312 738 L317 720 L317 711 L318 710 L317 701 L318 700 L318 696 L320 694 L323 686 L327 689 L331 681 L334 690 L337 692 L340 687 L342 688 L344 687 L345 681 L343 676 L339 673 L338 670 L335 667 L330 672 L326 665 L326 659 L324 657 L320 657 L317 660 L315 658 L316 641 L317 640 L322 650 L329 654 L330 657 L332 657 L331 650 L328 649 L326 651 L321 645 L322 642 L324 644 L326 644 L326 643 L324 641 L322 641 L321 643 L318 638 L312 643 L312 645 L313 644 L314 645 L313 659 L306 662 L304 661 L304 633 L306 627 L309 626 L309 624 L306 623 L305 614 L308 607 L309 590 L311 588 L314 579 L314 568 L313 566 L320 561 L342 550 L344 550 Z M291 493 L292 492 L293 493 L292 494 Z M812 491 L811 493 L815 496 L816 495 L815 492 Z M815 484 L815 487 L817 487 L817 485 Z M826 474 L827 473 L828 474 L827 475 Z M282 473 L283 472 L284 473 L283 474 Z M854 458 L855 457 L857 458 L856 459 Z M853 457 L854 456 L855 457 L854 458 Z M852 456 L853 455 L854 456 L853 457 Z M312 456 L313 455 L314 456 L313 457 Z M309 455 L310 456 L306 463 L306 470 L307 472 L303 481 L299 480 L295 485 L294 490 L293 491 L290 490 L289 494 L286 495 L283 498 L281 504 L281 520 L279 526 L279 539 L276 541 L275 544 L275 550 L276 551 L276 561 L275 562 L276 577 L275 578 L273 572 L273 495 L274 494 L274 488 L280 475 L282 479 L286 477 L291 471 L294 464 L296 462 Z M313 455 L314 454 L315 455 L314 456 Z M309 455 L310 454 L311 455 L310 456 Z M315 454 L316 453 L317 454 L316 455 Z M316 453 L317 452 L318 453 L317 454 Z M851 452 L852 451 L853 452 L852 453 Z M319 451 L320 450 L321 451 L320 452 Z M843 450 L844 449 L845 450 L844 451 Z M320 450 L321 449 L322 450 L321 451 Z M322 449 L323 448 L324 449 L323 450 Z M836 448 L842 458 L848 463 L851 468 L852 467 L848 460 L844 458 L839 450 Z M324 448 L325 447 L326 448 L325 449 Z M830 441 L831 440 L832 441 L831 442 Z M819 432 L827 437 L831 447 L831 458 L828 465 L827 464 L826 453 L818 445 L819 442 L819 434 L818 433 Z M816 432 L817 431 L819 432 L818 433 Z M810 432 L811 431 L812 432 L811 433 Z M809 431 L810 430 L811 431 L810 432 Z M813 429 L817 431 L816 432 L818 436 L817 439 L811 433 L813 432 L812 430 Z M811 429 L812 428 L813 429 L812 430 Z M802 426 L805 425 L810 430 L808 431 Z M801 425 L802 424 L803 425 L802 426 Z M390 410 L391 409 L392 410 L391 411 Z M414 405 L411 409 L409 415 L406 411 L402 414 L393 413 L381 424 L367 429 L361 436 L353 441 L351 445 L347 449 L342 450 L337 448 L334 445 L332 445 L327 448 L325 447 L329 443 L336 440 L338 438 L383 415 L385 415 L387 413 L400 409 L411 404 Z M413 404 L414 403 L416 404 L415 405 Z M808 385 L809 384 L810 385 L809 386 Z M807 384 L808 383 L809 384 L808 385 Z M806 382 L807 381 L808 382 L807 383 Z M800 363 L811 375 L810 377 L809 376 L807 377 L806 381 L797 370 L797 367 Z M798 361 L796 366 L797 373 L802 378 L803 381 L806 383 L806 386 L812 392 L813 388 L809 381 L810 379 L812 380 L813 379 L812 374 L800 361 Z M276 585 L276 582 L278 580 L277 577 L278 575 L277 548 L278 547 L279 548 L281 542 L281 525 L283 520 L283 504 L284 500 L286 497 L290 495 L293 496 L295 493 L297 485 L300 482 L303 483 L306 480 L309 472 L307 467 L308 463 L311 459 L324 451 L326 452 L332 447 L342 451 L345 451 L351 448 L352 445 L359 438 L362 437 L369 429 L382 425 L393 415 L402 416 L406 413 L407 414 L407 418 L409 419 L409 422 L406 423 L406 425 L409 426 L411 419 L411 413 L414 407 L416 406 L415 403 L416 402 L426 399 L447 389 L456 386 L527 352 L545 346 L557 346 L565 348 L644 377 L647 377 L663 383 L679 387 L727 403 L768 413 L795 422 L815 438 L817 443 L817 447 L824 453 L826 467 L826 465 L827 464 L828 465 L828 468 L822 477 L819 474 L814 472 L811 473 L806 472 L804 473 L804 483 L802 487 L803 490 L802 492 L799 487 L799 479 L801 476 L799 476 L797 480 L799 492 L805 495 L806 499 L809 501 L812 506 L815 506 L817 504 L821 504 L827 498 L831 498 L832 499 L833 498 L830 496 L827 496 L819 503 L815 499 L816 503 L814 505 L813 502 L807 497 L806 492 L804 489 L806 484 L806 475 L807 474 L818 475 L821 480 L824 480 L829 476 L832 479 L832 483 L830 486 L826 485 L825 488 L828 490 L832 485 L838 496 L840 494 L841 495 L840 500 L845 495 L845 492 L843 494 L842 493 L839 495 L835 489 L834 480 L832 476 L827 473 L830 468 L833 459 L833 447 L834 446 L831 443 L832 441 L839 445 L841 447 L840 448 L842 451 L849 455 L854 460 L861 459 L868 465 L866 467 L861 465 L858 467 L858 469 L861 467 L867 469 L870 468 L879 476 L883 485 L883 489 L880 491 L882 496 L882 506 L881 507 L881 514 L880 515 L879 528 L877 535 L876 548 L875 549 L872 571 L868 580 L866 578 L866 576 L861 567 L853 559 L843 552 L809 535 L796 530 L793 530 L781 526 L765 524 L764 523 L758 523 L757 522 L731 520 L730 519 L690 517 L689 516 L604 514 L603 513 L535 513 L534 514 L518 514 L517 515 L492 516 L491 517 L481 517 L480 518 L444 521 L443 522 L437 522 L436 523 L412 526 L387 532 L351 544 L315 562 L301 572 L288 585 L285 591 L285 595 L283 597 L279 594 Z M852 449 L852 451 L850 452 L846 448 L830 438 L824 432 L819 431 L817 429 L802 422 L764 410 L727 401 L660 379 L644 375 L568 347 L555 344 L546 344 L527 350 L482 372 L480 372 L433 394 L400 406 L398 405 L392 407 L376 417 L344 433 L328 443 L321 446 L316 450 L295 461 L292 464 L287 473 L286 472 L287 456 L293 437 L308 407 L324 382 L348 353 L372 329 L387 317 L402 307 L424 295 L467 280 L473 276 L482 276 L483 277 L540 276 L541 275 L552 275 L553 274 L562 274 L563 273 L571 273 L572 272 L579 272 L580 271 L604 269 L605 268 L611 268 L623 265 L626 265 L632 268 L638 268 L639 269 L644 269 L645 270 L663 273 L716 290 L737 300 L761 317 L775 329 L794 348 L807 363 L822 383 L835 405 Z M515 81 L524 77 L535 74 L554 74 L555 75 L559 75 L567 78 L577 84 L591 99 L595 107 L598 119 L598 143 L597 144 L597 149 L591 164 L576 185 L572 194 L572 198 L571 199 L572 218 L578 230 L586 238 L618 254 L624 256 L628 261 L626 263 L618 265 L598 267 L597 268 L590 268 L582 270 L572 270 L565 272 L545 273 L544 274 L528 274 L527 275 L526 274 L525 275 L523 274 L514 274 L513 275 L512 274 L511 275 L510 274 L495 274 L494 275 L490 275 L489 274 L472 274 L471 273 L473 268 L489 260 L508 247 L518 236 L524 224 L525 211 L522 199 L518 192 L505 178 L497 167 L493 159 L488 141 L488 117 L491 107 L497 96 L506 87 Z M540 71 L523 75 L513 80 L503 87 L493 99 L489 107 L486 117 L486 140 L491 159 L499 173 L518 195 L521 201 L523 209 L522 225 L515 237 L502 249 L487 259 L473 266 L469 271 L470 274 L469 277 L432 290 L410 300 L388 314 L368 330 L347 351 L321 383 L304 410 L292 434 L286 451 L285 461 L284 462 L284 469 L277 475 L273 484 L272 492 L271 493 L271 570 L272 571 L272 577 L276 592 L280 598 L284 598 L285 599 L285 614 L286 615 L280 620 L278 642 L277 643 L273 638 L265 639 L266 670 L261 682 L260 694 L264 708 L271 720 L287 734 L291 735 L292 765 L293 766 L293 773 L295 778 L295 786 L296 787 L296 795 L297 796 L298 840 L299 841 L299 851 L300 852 L301 873 L302 874 L302 915 L303 916 L305 981 L306 982 L308 998 L310 1003 L310 1007 L312 1012 L312 1016 L314 1021 L314 1025 L321 1053 L324 1062 L328 1069 L355 1105 L381 1135 L436 1189 L471 1218 L490 1232 L511 1245 L525 1252 L537 1256 L550 1258 L551 1259 L556 1259 L557 1260 L563 1260 L564 1261 L573 1261 L574 1262 L604 1262 L605 1261 L615 1261 L616 1260 L624 1260 L625 1259 L636 1258 L666 1250 L686 1241 L697 1234 L713 1221 L733 1201 L745 1187 L748 1182 L764 1163 L799 1115 L829 1069 L838 1050 L845 1030 L847 1027 L847 1024 L853 1007 L856 987 L857 986 L858 972 L864 970 L868 965 L869 956 L870 955 L869 947 L872 941 L872 929 L871 928 L871 924 L869 921 L869 915 L868 914 L867 839 L868 838 L869 820 L870 819 L872 712 L874 705 L874 697 L877 694 L877 684 L874 681 L873 677 L874 676 L874 668 L876 661 L876 634 L877 633 L877 617 L878 616 L878 593 L875 590 L870 589 L868 586 L868 583 L873 575 L874 567 L875 566 L875 560 L877 554 L877 548 L878 547 L878 541 L879 540 L879 534 L880 533 L880 527 L881 526 L881 520 L883 512 L883 505 L884 504 L884 497 L885 496 L885 486 L883 479 L880 474 L868 462 L854 452 L851 440 L849 437 L839 409 L832 395 L823 381 L809 362 L795 346 L770 322 L742 301 L718 289 L666 272 L650 268 L630 265 L629 264 L629 259 L626 255 L590 238 L578 227 L575 221 L573 213 L573 198 L578 185 L591 167 L598 151 L599 141 L600 140 L599 115 L593 99 L588 92 L579 83 L560 73 L551 72 L550 71 Z" fill="#eef3f4" fill-rule="evenodd"/>
</svg>
