<svg xmlns="http://www.w3.org/2000/svg" width="1122" height="1402" viewBox="0 0 1122 1402">
  <title>0369</title>
  <path d="M633 1276 L636 1278 L640 1278 L647 1274 L659 1274 L660 1275 L665 1275 L665 1274 L663 1273 L647 1273 L641 1276 Z M649 1270 L653 1269 L649 1269 Z M625 1267 L626 1266 L629 1269 L626 1270 Z M668 1237 L669 1236 L670 1237 L669 1238 Z M531 1234 L532 1233 L533 1234 L532 1235 Z M530 1232 L531 1231 L532 1232 L531 1233 Z M530 1213 L532 1219 L532 1223 L530 1226 L531 1230 L530 1231 L529 1230 L530 1235 L537 1244 L544 1247 L551 1252 L548 1248 L537 1242 L534 1239 L532 1235 L533 1234 L532 1232 L533 1217 L532 1214 Z M625 1205 L626 1216 L624 1218 L618 1212 L616 1212 L611 1218 L612 1226 L610 1230 L610 1233 L620 1243 L623 1244 L626 1243 L630 1252 L631 1265 L629 1267 L628 1266 L628 1261 L624 1267 L624 1270 L626 1272 L629 1272 L632 1267 L633 1259 L632 1258 L632 1253 L628 1244 L628 1241 L633 1234 L625 1242 L620 1241 L612 1234 L612 1228 L614 1225 L613 1217 L616 1214 L623 1220 L623 1224 L623 1222 L625 1221 L627 1224 L634 1228 L634 1232 L635 1230 L634 1226 L627 1221 L628 1211 L627 1207 Z M671 1204 L669 1206 L670 1214 L668 1219 L655 1235 L657 1238 L661 1240 L672 1239 L681 1234 L693 1224 L693 1223 L682 1232 L673 1237 L669 1236 L671 1232 L666 1238 L659 1237 L657 1234 L664 1227 L671 1216 Z M710 1200 L706 1200 L702 1206 L701 1211 L696 1219 L700 1215 L705 1204 Z M536 1188 L537 1190 L536 1191 L536 1200 L537 1201 L530 1205 L526 1212 L525 1218 L526 1218 L526 1216 L531 1206 L536 1203 L539 1205 L539 1208 L542 1214 L542 1210 L538 1204 L539 1203 L548 1203 L554 1207 L560 1213 L563 1219 L563 1225 L566 1233 L566 1239 L563 1248 L559 1252 L555 1254 L549 1254 L549 1255 L556 1255 L564 1249 L567 1240 L567 1236 L568 1235 L565 1227 L565 1220 L560 1211 L548 1201 L538 1201 L537 1200 L537 1192 L538 1191 L538 1187 Z M522 1185 L520 1187 L520 1192 L521 1193 Z M783 1181 L784 1180 L785 1181 L784 1182 Z M784 1180 L785 1179 L786 1180 L785 1181 Z M785 1178 L786 1177 L787 1178 L786 1179 Z M786 1176 L787 1175 L788 1177 L787 1178 Z M511 1174 L521 1174 L532 1178 L536 1183 L535 1179 L529 1175 L523 1173 L512 1173 Z M712 1168 L714 1166 L717 1168 L716 1169 Z M715 1166 L717 1164 L719 1165 L717 1168 Z M721 1163 L718 1162 L710 1168 L701 1168 L693 1175 L685 1174 L682 1170 L681 1171 L681 1182 L682 1184 L680 1189 L675 1194 L675 1198 L673 1203 L676 1200 L676 1195 L682 1189 L683 1186 L682 1183 L683 1176 L684 1175 L695 1176 L700 1169 L709 1170 L710 1171 L714 1170 L715 1171 L714 1173 L714 1183 L716 1189 L711 1194 L711 1198 L712 1198 L712 1196 L717 1190 L717 1186 L716 1185 L721 1179 L719 1177 L718 1181 L716 1183 L715 1182 L716 1180 L716 1173 L719 1169 Z M418 1154 L425 1160 L425 1164 L424 1165 L422 1164 L417 1156 Z M799 1151 L801 1153 L801 1157 L788 1176 L787 1175 L788 1167 L796 1154 Z M412 1152 L413 1151 L414 1152 L413 1153 Z M521 1151 L522 1150 L523 1151 L522 1152 Z M524 1150 L525 1149 L526 1150 L525 1151 Z M526 1149 L527 1148 L529 1149 L528 1150 Z M405 1149 L406 1148 L407 1149 L406 1150 Z M529 1148 L530 1147 L532 1148 L531 1149 Z M531 1147 L532 1146 L534 1147 L533 1148 Z M403 1147 L404 1146 L406 1148 L404 1149 Z M534 1146 L535 1145 L536 1146 L535 1147 Z M417 1146 L418 1145 L419 1146 L418 1147 Z M536 1145 L537 1144 L539 1145 L538 1146 Z M416 1145 L417 1144 L418 1145 L417 1146 Z M412 1145 L413 1144 L414 1145 L413 1146 Z M751 1143 L752 1142 L753 1144 L752 1145 Z M677 1138 L678 1137 L680 1138 L679 1139 Z M672 1137 L673 1136 L676 1137 L675 1138 Z M410 1128 L413 1129 L417 1133 L417 1135 L413 1137 L413 1144 L412 1145 L405 1132 L406 1130 Z M404 1123 L407 1126 L406 1129 L403 1127 Z M756 1122 L756 1128 L757 1127 L757 1123 Z M590 1115 L583 1115 L575 1117 L585 1117 L586 1116 L590 1116 Z M653 1115 L657 1116 L656 1114 Z M472 1166 L483 1154 L511 1135 L530 1125 L540 1122 L543 1120 L546 1120 L558 1116 L562 1116 L578 1112 L594 1111 L595 1110 L636 1110 L637 1111 L657 1112 L658 1113 L663 1113 L664 1114 L677 1116 L684 1119 L690 1120 L717 1132 L728 1139 L734 1145 L737 1150 L734 1151 L705 1141 L679 1135 L669 1134 L668 1133 L661 1133 L660 1132 L653 1132 L652 1131 L640 1131 L639 1130 L598 1131 L597 1132 L572 1134 L571 1135 L544 1140 L516 1151 L509 1156 L502 1158 L500 1160 L490 1164 L485 1164 L484 1165 L486 1166 L497 1163 L507 1158 L516 1156 L524 1152 L534 1149 L541 1145 L562 1138 L583 1135 L584 1134 L605 1133 L606 1132 L645 1132 L646 1133 L654 1133 L666 1137 L671 1137 L678 1140 L683 1140 L688 1142 L701 1144 L709 1147 L713 1147 L717 1149 L729 1150 L735 1153 L728 1156 L697 1156 L696 1155 L687 1155 L686 1154 L679 1154 L678 1153 L657 1151 L656 1150 L602 1149 L601 1150 L582 1151 L581 1152 L575 1152 L568 1154 L544 1157 L534 1160 L529 1160 L519 1163 L515 1163 L510 1165 L494 1167 L493 1168 L487 1168 L486 1169 L478 1169 Z M594 1108 L595 1107 L598 1108 L597 1109 Z M592 1087 L594 1091 L594 1096 L593 1097 L591 1092 L591 1088 Z M734 1081 L730 1084 L726 1085 L720 1090 L718 1094 L718 1097 L712 1108 L716 1112 L716 1114 L722 1109 L724 1097 L731 1092 L735 1092 L742 1100 L744 1109 L749 1115 L752 1123 L752 1138 L749 1147 L746 1151 L746 1153 L747 1153 L755 1144 L758 1137 L756 1133 L756 1138 L753 1143 L752 1142 L754 1137 L753 1120 L751 1115 L745 1107 L743 1099 L737 1092 L730 1091 L723 1096 L723 1099 L721 1102 L721 1107 L718 1110 L716 1110 L714 1108 L714 1105 L718 1100 L720 1093 L728 1085 L734 1082 Z M437 1066 L430 1074 L416 1080 L409 1080 L405 1076 L406 1074 L409 1073 L419 1073 L428 1070 L436 1065 Z M436 1065 L437 1064 L438 1065 L437 1066 Z M583 1060 L584 1059 L585 1061 L584 1062 Z M582 1059 L583 1058 L584 1059 L583 1060 Z M615 1040 L616 1039 L617 1040 L616 1041 Z M620 1038 L621 1037 L622 1038 L621 1039 Z M618 1034 L619 1035 L619 1039 L618 1040 L616 1038 Z M299 996 L300 997 L300 1004 L297 1006 L296 1005 L297 1004 L297 997 Z M552 989 L553 991 L556 992 L566 1001 L558 992 Z M665 988 L663 988 L653 998 L646 999 L648 1001 L655 999 Z M668 987 L669 992 L670 992 L671 989 L670 987 Z M711 982 L712 983 L712 988 L711 989 L710 988 L710 983 Z M817 978 L814 976 L812 980 L817 979 Z M613 958 L615 963 L618 1001 L619 1002 L619 1017 L620 1018 L620 1034 L619 1035 L618 1034 L615 986 L614 985 L614 976 L613 975 L613 966 L612 965 L612 959 Z M556 955 L557 954 L558 955 L557 956 Z M717 954 L722 964 L724 972 L724 988 L725 988 L726 985 L725 970 L723 963 Z M554 954 L555 953 L556 954 L555 955 Z M811 953 L809 954 L804 965 L804 975 L807 978 L810 978 L811 975 L808 977 L806 976 L806 970 L805 969 L806 964 L811 955 Z M505 951 L506 950 L507 951 L506 952 Z M299 949 L301 953 L300 965 L301 966 L303 996 L304 997 L304 1005 L305 1006 L304 1007 L300 1006 L302 1005 L302 998 L299 989 L298 977 L297 976 L296 954 L297 953 L298 954 L298 958 L298 950 Z M543 948 L544 947 L546 948 L545 949 Z M296 947 L297 948 L296 952 L295 951 Z M819 947 L813 952 L812 958 L813 959 L814 954 L819 949 L822 954 L824 961 L823 975 L825 979 L825 982 L824 983 L820 979 L819 980 L824 985 L826 984 L826 976 L825 975 L826 961 L824 957 L824 954 Z M540 947 L541 946 L544 947 L543 948 Z M301 942 L302 943 L301 946 L300 945 Z M526 937 L524 938 L517 938 L526 938 Z M683 933 L684 932 L685 933 L684 934 Z M293 929 L296 940 L296 947 L295 948 L294 947 L293 935 L292 934 L292 930 Z M560 941 L558 941 L555 944 L553 943 L548 945 L543 945 L536 942 L516 940 L500 936 L497 934 L489 932 L469 924 L469 926 L504 939 L517 942 L532 943 L541 946 L540 947 L527 946 L526 945 L518 946 L512 948 L508 951 L506 950 L507 949 L504 949 L490 958 L476 973 L463 997 L448 1044 L442 1056 L433 1066 L421 1071 L410 1071 L407 1072 L403 1075 L404 1078 L410 1082 L414 1082 L422 1080 L430 1076 L436 1071 L439 1066 L437 1064 L443 1059 L443 1057 L445 1055 L445 1053 L449 1046 L462 1004 L472 982 L481 969 L490 960 L504 951 L506 952 L500 957 L493 967 L490 973 L490 976 L488 979 L486 987 L486 1005 L490 1017 L493 1022 L489 1012 L488 1002 L487 1001 L487 992 L491 976 L499 961 L507 953 L519 948 L536 948 L548 952 L557 958 L566 967 L568 970 L569 975 L574 981 L578 992 L578 998 L574 1002 L570 1004 L566 1003 L563 1006 L555 1001 L550 996 L548 992 L548 995 L556 1004 L561 1007 L571 1006 L577 1002 L580 996 L580 992 L574 976 L569 968 L557 956 L558 954 L547 947 L548 946 L555 946 Z M291 921 L293 926 L292 930 L290 926 L290 922 Z M370 922 L367 926 L368 935 L364 942 L364 950 L368 960 L377 969 L384 972 L387 972 L396 978 L406 978 L408 977 L410 971 L413 967 L413 961 L415 956 L407 942 L408 939 L407 933 L403 928 L406 935 L406 944 L413 956 L412 965 L408 971 L408 974 L406 976 L397 977 L389 971 L382 970 L374 965 L367 954 L366 942 L370 935 L369 926 L372 923 L377 925 L395 925 L398 927 L401 927 L392 923 L385 924 L384 923 L376 923 L372 921 Z M648 917 L649 916 L650 917 L649 918 Z M646 911 L647 919 L652 930 L659 936 L667 935 L669 930 L667 930 L666 932 L661 934 L656 932 L653 929 L650 924 L649 918 L650 917 L653 921 L654 921 L654 919 Z M294 908 L295 909 L295 917 L296 918 L296 926 L295 927 L293 922 L293 909 Z M639 890 L638 890 L636 903 L632 915 L632 922 L637 904 Z M439 888 L440 887 L444 887 L445 888 L458 889 L459 890 L474 889 L479 887 L483 888 L476 891 L471 891 L470 892 L450 891 Z M482 887 L483 886 L487 887 L486 888 Z M486 886 L487 885 L490 886 L489 887 Z M489 885 L490 884 L492 885 L491 886 Z M491 884 L492 883 L495 884 L494 885 Z M427 884 L428 883 L429 884 L428 885 Z M869 882 L870 883 L869 887 L868 886 Z M494 883 L495 882 L497 883 L496 884 Z M425 883 L426 882 L427 883 L426 884 Z M496 882 L497 881 L499 882 L498 883 Z M422 882 L423 881 L425 882 L424 883 Z M498 881 L499 880 L501 881 L500 882 Z M420 881 L421 880 L423 881 L422 882 Z M500 880 L501 879 L503 880 L502 881 Z M418 880 L419 879 L421 880 L420 881 Z M416 879 L417 878 L419 879 L418 880 Z M415 878 L416 877 L417 878 L416 879 Z M413 877 L414 876 L415 877 L414 878 Z M411 876 L412 875 L414 876 L413 877 Z M513 872 L506 879 L504 880 L502 879 L512 871 Z M512 871 L513 870 L514 871 L513 872 Z M300 870 L301 869 L302 870 L301 871 Z M558 869 L558 875 L561 883 L561 891 L562 892 L562 907 L560 915 L556 922 L547 931 L542 933 L542 934 L544 934 L553 929 L559 921 L562 913 L563 904 L565 899 L567 905 L567 921 L564 928 L564 931 L560 937 L561 939 L561 937 L564 934 L567 926 L569 911 L568 910 L568 903 L566 899 L566 896 L562 887 L560 871 Z M513 869 L514 868 L515 870 L514 871 Z M635 868 L636 867 L637 868 L636 869 Z M404 867 L405 866 L406 867 L405 868 Z M301 867 L302 866 L303 868 L302 869 Z M403 866 L404 865 L405 866 L404 867 Z M402 865 L403 864 L404 865 L403 866 Z M401 864 L402 863 L403 864 L402 865 Z M400 863 L401 862 L402 863 L401 864 Z M399 862 L400 861 L401 862 L400 863 Z M398 861 L399 860 L400 861 L399 862 Z M397 860 L398 859 L399 860 L398 861 Z M396 859 L397 858 L398 859 L397 860 Z M552 858 L553 857 L554 858 L553 859 Z M770 857 L771 856 L773 857 L772 858 Z M551 856 L552 855 L553 856 L552 857 Z M394 856 L395 855 L397 858 L396 859 Z M393 855 L394 854 L395 855 L394 856 Z M293 853 L294 855 L292 857 L291 855 Z M648 847 L648 852 L646 856 L644 872 L642 873 L640 881 L639 880 L639 873 L638 872 L638 869 L640 867 L637 865 L638 863 L636 864 L632 871 L630 879 L628 882 L625 882 L617 875 L613 876 L611 875 L612 874 L612 861 L611 860 L612 859 L636 855 L641 853 L642 855 L640 860 L642 857 L644 858 L642 856 L643 855 L642 852 L647 846 Z M291 847 L292 846 L293 848 L292 849 Z M647 845 L648 844 L649 846 L648 847 Z M868 843 L870 846 L870 850 L869 851 L867 846 Z M602 844 L603 847 L600 850 L604 848 L606 853 L606 848 Z M711 842 L712 841 L713 842 L712 843 Z M552 841 L558 848 L566 852 L574 854 L579 854 L567 851 L557 846 Z M707 837 L708 836 L712 841 L710 842 Z M383 836 L394 853 L393 855 L386 846 L382 838 Z M706 836 L707 835 L708 836 L707 837 Z M791 835 L784 844 L774 853 L762 861 L746 867 L727 867 L726 866 L722 866 L712 863 L703 858 L704 857 L708 858 L725 858 L726 859 L734 859 L735 860 L757 858 L759 857 L757 857 L756 856 L757 855 L769 851 L781 843 L790 834 Z M381 835 L382 834 L383 836 L382 837 Z M546 835 L547 833 L549 834 L547 836 Z M686 833 L694 849 L695 849 L694 844 L688 834 Z M545 833 L546 832 L547 833 L546 834 Z M793 830 L794 832 L791 835 L790 833 Z M793 829 L794 828 L795 830 L794 831 Z M796 825 L797 827 L795 829 L794 827 Z M646 826 L646 828 L647 828 L647 826 Z M869 824 L870 825 L870 835 L869 836 L868 835 L868 825 Z M796 824 L797 823 L798 825 L797 826 Z M855 822 L856 821 L857 822 L856 823 Z M797 822 L798 821 L799 823 L798 824 Z M631 821 L612 821 L605 823 L590 823 L577 826 L570 829 L574 829 L594 824 L631 822 Z M798 820 L799 819 L800 821 L799 822 Z M799 818 L800 817 L801 819 L800 820 Z M868 815 L869 816 L869 820 L868 821 L867 820 L867 816 Z M802 812 L803 815 L801 818 L800 815 Z M322 812 L323 815 L318 823 L317 821 Z M802 811 L803 810 L804 812 L803 813 Z M532 809 L542 829 L544 836 L547 840 L548 853 L551 863 L551 878 L550 879 L549 887 L547 893 L539 907 L527 915 L509 920 L492 920 L473 915 L458 907 L451 900 L453 898 L462 895 L467 895 L484 891 L507 881 L514 875 L517 871 L525 853 L526 845 L527 844 L527 837 L528 836 L529 819 Z M654 818 L654 821 L652 823 L648 819 L644 817 L640 817 L634 815 L591 816 L590 817 L583 817 L582 818 L573 819 L559 825 L549 833 L546 831 L548 825 L555 818 L561 815 L574 812 L585 811 L586 810 L592 810 L593 809 L622 808 L623 809 L639 810 L649 813 Z M804 807 L805 808 L804 811 L803 810 Z M324 807 L325 810 L323 813 L322 810 Z M858 807 L864 821 L864 819 L862 817 L861 812 Z M804 806 L805 805 L806 807 L805 808 Z M324 806 L325 805 L326 807 L325 808 Z M805 803 L806 802 L807 804 L806 805 Z M325 803 L326 802 L327 804 L326 805 Z M598 803 L603 804 L601 802 Z M806 800 L807 799 L808 801 L807 802 Z M807 797 L808 796 L809 798 L808 799 Z M867 794 L868 795 L868 800 L867 801 L865 798 Z M808 794 L809 793 L810 794 L809 795 Z M325 794 L326 793 L327 794 L326 795 Z M665 789 L667 794 L667 810 L668 811 L668 816 L670 824 L679 841 L689 852 L698 858 L717 867 L725 868 L726 869 L747 869 L748 870 L745 875 L734 885 L717 894 L711 896 L692 897 L672 892 L667 889 L659 881 L653 870 L650 860 L650 847 L652 840 L651 826 L656 822 L659 816 L661 809 L662 796 Z M687 789 L685 791 L684 799 L683 800 L683 819 L686 829 L685 820 L684 819 L684 804 L685 803 L685 797 Z M444 777 L445 776 L446 777 L445 778 Z M543 794 L551 787 L559 783 L576 778 L586 777 L587 776 L595 776 L596 775 L628 775 L629 776 L640 777 L651 781 L659 789 L659 788 L652 780 L639 775 L627 774 L626 773 L598 773 L597 774 L582 775 L557 782 L547 788 L544 791 Z M268 769 L271 770 L271 776 L272 777 L272 783 L274 791 L275 812 L276 813 L276 821 L277 822 L277 829 L278 830 L278 837 L279 838 L279 845 L280 846 L280 854 L279 855 L273 837 L268 814 L265 807 L273 843 L275 847 L276 854 L278 858 L282 874 L282 878 L284 883 L284 889 L286 895 L288 913 L290 918 L290 932 L291 933 L291 940 L294 952 L295 971 L296 972 L296 1001 L294 1004 L290 997 L287 980 L286 979 L286 973 L285 972 L282 947 L280 940 L276 906 L274 900 L272 881 L271 880 L270 869 L267 856 L267 850 L266 849 L262 817 L261 816 L261 810 L258 797 L256 777 L254 772 L255 771 L263 771 Z M378 769 L379 768 L398 768 L399 769 L421 770 L422 771 L431 772 L442 775 L443 776 L439 777 L443 779 L451 778 L464 783 L475 791 L486 802 L492 810 L499 824 L503 845 L500 858 L496 865 L491 870 L484 874 L461 877 L460 876 L453 876 L439 872 L429 867 L419 860 L405 845 L392 822 L383 795 L383 791 L381 786 Z M376 769 L382 799 L392 826 L403 845 L419 862 L429 869 L437 873 L455 878 L480 877 L490 873 L498 865 L501 860 L504 851 L504 837 L500 823 L491 806 L473 787 L460 779 L449 776 L446 774 L431 771 L423 768 L403 768 L395 766 L380 766 Z M251 763 L252 762 L255 764 L263 766 L269 764 L271 766 L260 770 L256 770 L251 767 Z M792 754 L791 757 L792 758 L792 764 L793 764 L794 762 L794 755 Z M817 753 L818 752 L819 754 L818 755 Z M819 748 L820 749 L819 752 L818 751 Z M806 746 L805 762 L795 798 L786 817 L772 833 L757 842 L739 847 L725 847 L717 845 L711 840 L708 835 L706 836 L705 835 L703 828 L703 814 L710 796 L723 778 L725 778 L748 762 L759 757 L769 754 L779 753 L784 750 L799 745 L805 745 Z M820 744 L821 745 L820 748 L819 747 Z M805 745 L806 744 L807 745 L806 746 Z M865 743 L868 746 L868 750 L867 751 L866 750 L861 751 L860 750 Z M346 743 L347 742 L348 744 L347 745 Z M807 742 L799 743 L787 748 L783 748 L776 751 L761 754 L754 758 L752 758 L726 774 L716 784 L709 794 L704 804 L701 816 L702 831 L705 838 L710 844 L719 848 L727 848 L728 849 L736 849 L737 848 L746 847 L750 845 L756 844 L766 839 L773 834 L781 826 L789 815 L795 803 L799 791 L799 788 L802 781 L807 761 L807 755 L808 754 L808 743 Z M824 733 L825 736 L821 745 L820 741 L821 737 Z M857 730 L859 730 L862 734 L863 738 L863 743 L862 744 L856 735 L856 731 Z M874 728 L876 731 L877 741 L879 743 L881 743 L882 740 L883 741 L883 892 L884 893 L884 930 L885 931 L885 990 L884 994 L881 998 L877 1000 L870 1001 L869 1000 L870 999 L870 983 L871 982 L871 968 L872 967 L872 946 L873 945 L872 881 L871 880 L871 862 L870 861 L870 855 L872 850 L872 826 L871 825 L871 813 L870 812 L870 750 L871 749 L871 743 L872 742 L873 729 Z M331 720 L340 734 L356 768 L361 782 L364 796 L371 818 L384 846 L393 858 L403 868 L412 875 L411 876 L375 858 L361 853 L357 853 L341 849 L330 849 L322 851 L314 855 L303 867 L302 866 L302 863 L309 845 L326 812 L333 785 L333 778 L334 777 L334 749 L333 748 L333 740 L332 739 L332 732 L331 731 L331 724 L330 723 Z M833 719 L834 720 L833 742 L835 748 L835 766 L836 767 L837 781 L840 790 L856 821 L855 822 L853 821 L842 821 L829 825 L823 829 L826 829 L836 824 L846 823 L847 822 L854 823 L859 827 L865 841 L865 845 L868 854 L868 859 L869 860 L869 882 L868 883 L867 882 L863 869 L858 861 L854 857 L847 853 L840 851 L827 851 L814 855 L802 861 L780 875 L736 911 L728 916 L717 921 L702 926 L688 929 L668 937 L668 939 L657 947 L648 958 L643 969 L640 981 L640 991 L645 997 L647 997 L652 990 L649 992 L648 995 L645 995 L642 991 L641 986 L646 966 L653 954 L662 945 L676 937 L688 934 L698 935 L704 937 L716 944 L724 952 L731 962 L736 973 L737 979 L740 986 L742 999 L748 1019 L754 1032 L760 1041 L770 1050 L778 1054 L788 1055 L777 1052 L768 1047 L763 1042 L756 1032 L751 1022 L745 1004 L744 996 L738 973 L727 953 L712 939 L701 934 L687 933 L686 932 L714 924 L731 916 L745 906 L777 879 L780 878 L800 864 L816 856 L831 852 L843 853 L850 856 L858 864 L863 873 L870 899 L870 910 L871 911 L871 948 L870 949 L870 971 L869 972 L869 987 L868 988 L867 1010 L859 1042 L848 1072 L833 1102 L831 1104 L810 1143 L803 1153 L800 1149 L796 1151 L786 1168 L785 1176 L779 1186 L777 1192 L770 1202 L751 1224 L735 1240 L713 1258 L704 1264 L695 1268 L690 1272 L676 1279 L661 1284 L658 1284 L657 1283 L660 1282 L662 1280 L655 1283 L656 1284 L655 1285 L644 1288 L632 1289 L631 1290 L620 1290 L619 1291 L604 1291 L603 1290 L575 1288 L574 1287 L568 1287 L567 1286 L561 1286 L553 1284 L527 1275 L511 1267 L485 1250 L463 1232 L463 1229 L448 1202 L432 1183 L430 1177 L424 1167 L427 1162 L426 1158 L421 1154 L416 1152 L413 1148 L414 1145 L427 1155 L429 1153 L414 1141 L414 1139 L419 1135 L416 1129 L411 1126 L409 1126 L404 1121 L401 1123 L401 1127 L413 1151 L412 1152 L403 1143 L401 1144 L401 1146 L405 1151 L408 1153 L409 1152 L417 1158 L424 1169 L429 1179 L429 1181 L436 1191 L447 1203 L462 1229 L461 1230 L455 1226 L432 1205 L398 1169 L380 1147 L350 1105 L318 1049 L318 1047 L312 1035 L307 1014 L307 1008 L306 1007 L304 958 L303 957 L303 931 L304 930 L305 912 L309 899 L315 889 L321 883 L330 877 L339 874 L360 874 L382 880 L403 890 L459 922 L462 923 L463 922 L436 908 L406 890 L384 879 L359 872 L340 872 L332 874 L323 879 L314 887 L310 893 L304 908 L303 919 L302 920 L302 933 L301 934 L301 941 L300 942 L299 941 L299 934 L298 933 L298 918 L297 917 L297 890 L300 877 L303 870 L307 864 L313 858 L319 854 L327 851 L345 851 L346 852 L351 852 L359 854 L376 860 L428 887 L441 891 L457 893 L458 894 L451 897 L449 899 L449 901 L459 910 L473 917 L491 922 L510 922 L511 921 L520 920 L532 915 L538 911 L543 905 L548 895 L552 882 L552 875 L553 874 L552 861 L553 860 L556 863 L555 857 L553 855 L549 846 L548 838 L553 833 L564 831 L567 829 L559 830 L558 829 L565 824 L573 821 L582 820 L583 819 L601 818 L602 817 L635 817 L646 820 L650 824 L649 825 L650 837 L645 848 L641 852 L625 855 L620 857 L613 857 L612 856 L614 855 L614 852 L616 849 L622 849 L622 848 L617 848 L616 845 L613 851 L613 854 L610 858 L587 857 L572 861 L564 865 L575 877 L580 885 L580 888 L574 898 L567 887 L562 873 L565 885 L572 898 L580 909 L589 929 L590 936 L592 938 L587 921 L581 910 L581 908 L575 900 L580 889 L585 884 L593 880 L597 879 L600 880 L609 889 L609 887 L600 878 L591 879 L585 882 L581 886 L578 879 L566 866 L573 862 L583 859 L605 860 L606 861 L605 863 L609 859 L610 860 L611 909 L612 910 L613 922 L614 923 L614 938 L611 947 L614 957 L611 959 L611 968 L612 969 L614 1006 L615 1007 L616 1026 L617 1027 L617 1031 L612 1041 L603 1041 L602 1040 L588 1039 L556 1030 L543 1030 L542 1031 L538 1030 L524 1030 L518 1028 L508 1018 L503 1005 L503 989 L506 979 L510 972 L520 963 L530 960 L539 960 L547 962 L553 965 L565 974 L557 966 L548 961 L542 959 L532 958 L531 959 L526 959 L517 963 L510 969 L506 975 L501 990 L501 1003 L505 1017 L509 1024 L514 1028 L524 1032 L536 1032 L538 1034 L544 1034 L548 1032 L555 1032 L568 1035 L578 1039 L577 1040 L578 1042 L578 1051 L582 1060 L583 1066 L585 1068 L584 1066 L584 1062 L585 1061 L590 1066 L591 1076 L590 1077 L588 1074 L587 1075 L591 1079 L591 1084 L589 1089 L593 1098 L593 1102 L592 1103 L593 1108 L592 1109 L559 1114 L531 1123 L508 1135 L484 1151 L476 1158 L472 1163 L473 1165 L472 1166 L467 1164 L464 1161 L462 1162 L466 1166 L477 1170 L491 1170 L492 1169 L498 1169 L499 1168 L523 1164 L532 1161 L537 1161 L538 1160 L559 1157 L560 1156 L566 1156 L567 1155 L586 1153 L587 1152 L611 1151 L612 1150 L647 1151 L648 1152 L658 1152 L659 1153 L666 1153 L667 1154 L689 1156 L690 1157 L701 1157 L702 1158 L725 1158 L726 1157 L731 1157 L736 1155 L739 1151 L735 1144 L725 1135 L702 1123 L689 1119 L686 1117 L680 1116 L676 1114 L672 1114 L668 1112 L656 1111 L652 1109 L650 1104 L648 1103 L649 1102 L648 1103 L645 1100 L644 1097 L645 1071 L643 1068 L644 1079 L643 1080 L642 1097 L647 1107 L648 1105 L651 1108 L650 1110 L630 1109 L629 1108 L600 1108 L599 1107 L600 1105 L597 1106 L594 1104 L595 1097 L597 1096 L599 1098 L596 1094 L596 1091 L593 1084 L593 1076 L592 1075 L591 1066 L580 1052 L580 1048 L579 1047 L579 1040 L580 1039 L594 1041 L595 1042 L602 1042 L603 1043 L622 1043 L645 1037 L662 1028 L671 1025 L684 1025 L693 1022 L699 1019 L705 1013 L710 1004 L713 994 L713 977 L711 970 L705 959 L697 951 L689 947 L679 947 L673 949 L667 953 L672 950 L680 948 L689 949 L697 953 L705 962 L710 972 L711 980 L710 981 L705 968 L695 959 L692 959 L704 970 L708 980 L708 987 L709 988 L708 998 L707 999 L708 1004 L705 1010 L697 1018 L689 1022 L680 1023 L679 1024 L677 1024 L676 1023 L677 1022 L671 1023 L660 1027 L643 1036 L629 1040 L624 1040 L623 1039 L624 1038 L621 1037 L621 1033 L622 1032 L621 1004 L620 1003 L620 988 L618 981 L618 968 L617 967 L618 960 L617 959 L618 958 L618 945 L621 937 L623 923 L621 929 L620 938 L617 944 L617 956 L616 957 L613 947 L616 940 L616 924 L615 923 L615 916 L613 910 L612 877 L613 876 L617 876 L626 884 L629 884 L632 878 L633 873 L637 872 L638 873 L638 886 L639 887 L640 883 L641 884 L642 899 L645 908 L644 895 L641 891 L642 889 L642 876 L643 875 L644 876 L644 883 L645 884 L647 898 L653 910 L648 896 L647 885 L646 884 L646 866 L648 858 L653 875 L660 885 L667 891 L672 894 L684 898 L705 899 L720 895 L733 888 L747 876 L750 871 L749 869 L750 867 L756 866 L766 861 L781 856 L783 854 L789 852 L791 850 L814 838 L816 836 L814 836 L807 841 L790 849 L786 852 L784 852 L774 857 L772 856 L788 842 L799 827 L804 817 L810 800 L821 750 Z M833 718 L834 717 L835 719 L834 720 Z M328 715 L329 714 L330 715 L329 716 Z M327 713 L328 712 L329 713 L328 714 Z M947 710 L949 711 L951 717 L949 719 L945 719 L944 718 L946 715 L946 711 Z M958 710 L961 709 L963 712 L961 714 L958 712 Z M876 709 L877 710 L881 710 L882 709 L884 711 L884 727 L883 728 L883 737 L882 738 L883 739 L880 741 L878 739 L876 722 L876 725 L875 726 L874 725 L875 710 Z M328 709 L329 708 L330 709 L329 710 Z M935 708 L936 707 L937 708 L936 709 Z M945 707 L946 706 L947 708 L946 709 Z M923 707 L924 706 L927 708 L936 710 L937 713 L936 714 L932 714 L927 711 L925 711 L923 709 Z M836 707 L837 706 L838 707 L837 708 Z M327 707 L328 706 L329 707 L328 708 Z M246 706 L247 707 L247 711 L246 712 L245 711 L245 707 Z M921 704 L922 705 L921 708 L918 706 Z M324 704 L328 711 L327 712 L324 710 L323 707 Z M959 707 L960 704 L962 703 L965 704 L965 706 L963 708 Z M933 703 L935 702 L938 705 L936 706 Z M916 703 L918 702 L921 704 L918 706 Z M322 703 L323 702 L324 703 L323 704 Z M931 702 L932 701 L934 702 L933 703 Z M955 700 L957 702 L957 709 L953 715 L950 711 L949 706 L950 705 L952 707 L953 706 L952 701 Z M941 700 L944 702 L943 706 L944 715 L942 718 L939 715 L939 710 L941 709 L940 706 L940 701 Z M930 701 L931 700 L932 701 L931 702 Z M946 699 L950 701 L950 703 L947 706 L945 701 Z M929 700 L930 699 L931 700 L930 701 Z M910 699 L912 698 L915 702 L914 703 L912 702 Z M904 695 L905 694 L909 696 L910 698 L908 700 L904 697 Z M926 693 L927 696 L930 699 L929 700 L924 696 Z M903 694 L904 693 L905 694 L904 695 Z M918 686 L924 691 L924 693 L922 695 L917 690 Z M892 688 L894 686 L896 688 L895 689 L897 688 L898 689 L897 690 L898 689 L903 693 L900 695 L897 692 L894 691 Z M909 684 L910 683 L911 684 L910 685 Z M912 683 L913 682 L918 686 L914 688 L912 686 Z M315 683 L316 682 L317 684 L316 685 Z M911 682 L912 681 L913 682 L912 683 Z M878 681 L883 685 L883 703 L876 708 L875 707 L876 706 L876 684 Z M888 679 L889 678 L894 679 L911 687 L924 699 L932 704 L934 707 L931 708 L924 705 L893 684 Z M886 677 L887 676 L888 677 L887 678 Z M878 677 L879 676 L881 677 L880 678 L882 677 L893 686 L890 688 L886 684 L880 681 L878 679 Z M841 677 L842 676 L843 677 L842 678 Z M875 676 L876 675 L877 676 L876 677 Z M891 675 L893 674 L904 677 L908 679 L910 681 L910 683 L908 684 L900 680 L900 678 L897 679 L892 677 Z M869 671 L874 675 L875 678 L873 722 L872 723 L872 732 L870 735 L869 734 L869 678 L868 677 L868 672 Z M313 671 L316 679 L315 683 L312 676 L312 672 Z M312 668 L313 669 L312 672 L311 671 Z M800 668 L790 674 L787 674 L783 678 L791 673 L795 672 Z M891 667 L892 666 L893 667 L892 668 Z M287 667 L290 688 L291 689 L292 704 L293 705 L296 758 L297 759 L297 793 L296 794 L295 813 L297 805 L297 800 L298 799 L298 753 L297 752 L297 736 L296 735 L296 719 L295 718 L294 699 L293 698 L290 674 Z M888 665 L889 669 L891 668 L892 669 L891 673 L888 677 L887 676 L887 666 Z M310 666 L311 665 L312 667 L311 668 Z M843 663 L844 664 L843 667 L842 666 Z M240 663 L243 667 L243 669 L249 680 L258 706 L258 709 L262 718 L266 739 L267 740 L269 758 L270 759 L270 761 L266 764 L255 762 L252 757 L250 738 L249 737 L247 719 L246 718 L246 714 L247 713 L248 714 L248 708 L246 700 L246 704 L245 705 L244 704 L243 693 L240 681 L240 674 L239 673 L239 664 Z M309 663 L310 662 L311 663 L310 664 Z M889 661 L891 663 L890 666 L888 663 Z M887 661 L888 660 L889 661 L888 662 Z M851 637 L852 636 L853 637 L852 638 Z M824 630 L825 629 L826 631 L825 632 Z M384 630 L382 628 L380 629 L368 641 L367 640 L367 636 L369 633 L367 633 L365 636 L366 643 L367 644 L373 639 L375 635 L381 631 L382 634 L377 640 L379 640 L384 635 Z M824 626 L825 627 L824 630 L823 629 Z M871 616 L879 619 L883 623 L883 626 L881 628 L879 643 L880 643 L882 631 L884 628 L885 629 L885 674 L884 675 L883 674 L883 655 L880 646 L871 641 L871 643 L876 645 L880 651 L881 663 L882 664 L882 673 L881 674 L877 674 L870 670 L868 667 L869 634 L870 633 L870 617 Z M541 616 L533 618 L532 620 L540 618 Z M571 614 L571 616 L573 615 L579 617 L597 615 L603 618 L602 616 L598 614 L592 614 L591 615 Z M573 607 L568 608 L563 613 L563 615 L569 609 Z M324 606 L325 609 L314 628 L312 641 L311 642 L311 650 L310 651 L309 650 L310 632 L316 616 Z M588 606 L593 609 L597 609 L601 612 L601 610 L596 607 L593 608 Z M559 604 L553 606 L549 610 Z M326 604 L327 603 L328 604 L327 605 Z M327 603 L328 602 L329 603 L328 604 Z M328 602 L329 601 L330 602 L329 603 Z M329 601 L330 600 L332 601 L331 602 Z M331 600 L332 599 L333 600 L332 601 Z M332 599 L333 598 L334 599 L333 600 Z M333 598 L334 597 L335 598 L334 599 Z M558 601 L552 597 L550 597 L545 604 L545 606 L550 599 L552 599 L557 602 Z M334 597 L335 596 L337 597 L336 598 Z M336 596 L338 594 L340 595 L338 597 Z M711 593 L700 595 L700 596 L707 596 L711 594 Z M339 594 L341 592 L343 593 L341 595 Z M342 592 L343 591 L344 592 L343 593 Z M343 591 L344 590 L345 591 L344 592 Z M315 590 L316 589 L317 590 L316 591 Z M743 588 L734 592 L727 597 L717 593 L716 594 L727 599 L737 592 L741 591 Z M716 582 L708 585 L693 586 L690 587 L689 589 L695 587 L710 588 Z M267 579 L283 628 L301 698 L302 713 L303 714 L302 749 L303 750 L303 756 L305 763 L305 771 L306 772 L306 780 L305 781 L305 790 L307 789 L307 765 L304 753 L304 728 L305 727 L305 721 L304 720 L303 699 L298 682 L297 674 L294 666 L294 662 L292 658 L291 651 L284 629 L284 626 L279 613 L279 610 L275 598 L272 592 L272 589 L270 586 L270 583 L268 579 Z M815 572 L816 571 L817 572 L816 573 Z M814 571 L815 570 L816 571 L815 572 Z M813 570 L814 569 L815 570 L814 571 Z M811 569 L812 568 L813 569 L812 570 Z M258 566 L259 567 L258 571 L257 570 Z M257 561 L258 562 L257 566 L256 565 Z M810 599 L799 587 L785 577 L755 563 L745 560 L738 560 L737 559 L691 560 L690 561 L681 561 L680 562 L665 562 L664 563 L629 565 L628 566 L619 566 L618 567 L573 569 L572 570 L551 571 L550 572 L542 572 L541 573 L533 573 L532 574 L524 574 L523 575 L515 575 L514 576 L499 576 L498 577 L461 579 L455 581 L447 581 L441 583 L436 583 L416 588 L409 593 L405 601 L402 604 L395 605 L392 603 L389 595 L382 590 L385 588 L402 585 L403 584 L416 584 L416 583 L402 583 L383 588 L380 591 L378 591 L369 596 L363 602 L360 609 L359 615 L354 620 L350 622 L340 623 L334 628 L332 634 L332 643 L330 648 L330 662 L336 679 L343 691 L357 706 L368 714 L383 721 L400 726 L452 733 L481 742 L495 749 L508 758 L520 769 L530 781 L530 779 L525 772 L513 760 L498 749 L485 742 L463 734 L455 733 L450 731 L431 729 L430 728 L423 728 L422 727 L415 727 L414 726 L409 726 L408 725 L391 722 L375 716 L361 707 L345 691 L337 677 L336 672 L333 666 L331 653 L334 642 L334 634 L336 629 L342 624 L349 624 L355 622 L360 617 L365 602 L371 597 L381 593 L388 597 L390 603 L393 606 L400 607 L404 605 L410 595 L414 591 L416 591 L429 604 L434 605 L442 611 L458 619 L476 624 L501 625 L502 624 L509 624 L512 622 L508 623 L481 623 L460 618 L437 606 L418 590 L421 588 L433 585 L439 585 L447 583 L458 583 L459 584 L479 585 L480 586 L479 584 L471 584 L470 583 L462 583 L461 582 L468 580 L509 578 L510 577 L538 575 L539 574 L556 573 L557 572 L594 570 L595 569 L608 569 L609 568 L623 568 L624 567 L648 566 L649 565 L672 564 L673 563 L684 563 L685 562 L715 561 L716 560 L734 560 L735 561 L746 562 L758 566 L765 570 L762 571 L762 572 L767 570 L784 578 L798 588 L810 601 Z M730 557 L735 556 L731 556 Z M569 554 L570 553 L572 554 L571 555 Z M560 554 L561 553 L567 553 L568 554 L567 555 L561 555 Z M582 555 L585 552 L589 552 L590 553 L586 556 Z M568 553 L569 552 L570 553 L569 554 Z M758 546 L778 547 L802 553 L821 563 L837 577 L846 592 L850 608 L850 635 L849 636 L849 645 L847 650 L846 649 L846 638 L845 637 L843 599 L836 586 L827 577 L815 568 L809 565 L806 565 L799 560 L797 560 L792 557 L778 553 L768 552 L763 549 L758 548 L757 547 Z M837 590 L841 598 L841 602 L842 603 L842 618 L843 619 L843 631 L844 632 L844 656 L838 670 L840 670 L842 666 L843 669 L842 673 L840 675 L832 693 L826 702 L816 712 L801 721 L790 724 L777 724 L776 725 L760 727 L740 734 L726 741 L713 750 L699 764 L692 774 L688 782 L688 784 L701 764 L712 753 L729 741 L744 734 L768 727 L774 727 L775 726 L793 725 L803 722 L812 717 L828 702 L834 693 L840 681 L840 679 L841 678 L842 679 L841 687 L838 697 L839 705 L838 706 L837 705 L832 715 L826 733 L825 734 L824 731 L823 732 L822 730 L820 730 L819 734 L820 738 L816 750 L810 783 L808 787 L805 800 L796 821 L787 835 L777 844 L765 851 L760 852 L757 854 L749 856 L744 856 L743 857 L725 857 L724 856 L707 856 L706 855 L699 856 L692 852 L680 839 L673 826 L670 813 L670 806 L669 805 L669 790 L665 786 L663 780 L661 780 L663 784 L663 789 L660 795 L660 804 L656 817 L651 812 L657 806 L649 811 L638 808 L622 807 L621 806 L593 807 L592 808 L586 808 L585 809 L569 811 L559 814 L555 816 L547 824 L544 829 L532 806 L532 804 L537 797 L539 792 L539 786 L538 786 L537 793 L529 806 L524 849 L522 853 L521 859 L515 869 L513 868 L502 877 L483 885 L469 887 L468 888 L450 887 L430 881 L420 876 L409 868 L399 858 L393 850 L386 837 L382 833 L381 835 L373 818 L358 768 L347 746 L348 744 L349 745 L349 743 L339 730 L337 725 L333 720 L329 710 L330 709 L349 728 L367 738 L385 744 L426 750 L431 752 L439 753 L446 756 L449 756 L459 761 L461 761 L483 773 L495 784 L500 791 L507 805 L512 820 L514 839 L515 839 L514 836 L514 825 L513 824 L512 816 L508 804 L501 790 L496 783 L487 774 L475 766 L461 759 L442 752 L430 749 L415 747 L414 746 L408 746 L407 745 L394 744 L377 740 L362 734 L349 726 L334 712 L324 697 L318 683 L315 671 L315 666 L314 665 L314 658 L313 657 L313 640 L314 639 L314 635 L316 628 L327 608 L338 597 L341 596 L350 589 L373 579 L376 579 L387 575 L390 576 L367 587 L365 587 L357 592 L383 580 L388 579 L392 577 L396 573 L402 573 L403 572 L404 573 L440 572 L441 571 L452 571 L453 570 L471 568 L472 567 L473 568 L480 568 L481 567 L521 567 L522 566 L533 566 L541 564 L549 564 L556 562 L562 562 L563 561 L567 561 L569 559 L574 561 L578 560 L581 557 L582 559 L585 560 L586 559 L590 560 L610 560 L611 559 L618 559 L619 558 L637 557 L638 556 L670 552 L671 551 L677 551 L678 550 L701 549 L702 548 L717 548 L718 547 L726 547 L727 546 L750 546 L765 551 L768 553 L781 555 L793 559 L804 565 L816 575 L821 585 L822 601 L821 602 L819 598 L818 598 L818 600 L820 604 L820 608 L824 623 L823 627 L813 608 L806 599 L793 587 L781 579 L766 574 L754 573 L753 574 L749 574 L743 577 L734 578 L725 585 L720 585 L719 586 L720 587 L724 587 L725 586 L729 587 L726 586 L733 580 L740 578 L743 579 L752 575 L760 575 L761 576 L767 576 L783 582 L793 589 L803 598 L814 613 L827 641 L827 645 L826 646 L827 661 L820 676 L812 684 L801 690 L792 693 L788 693 L787 694 L758 694 L757 695 L745 696 L728 701 L715 707 L691 725 L675 742 L668 752 L663 762 L660 772 L649 763 L634 757 L625 756 L624 755 L616 755 L615 754 L592 755 L591 756 L578 757 L558 763 L545 770 L537 777 L533 783 L534 784 L548 770 L558 765 L574 760 L589 758 L590 757 L599 757 L600 756 L617 756 L618 757 L625 757 L626 758 L634 759 L651 766 L661 774 L666 759 L679 740 L697 722 L720 706 L739 699 L743 699 L748 697 L754 697 L755 696 L785 696 L790 694 L798 693 L809 688 L819 680 L824 673 L828 663 L830 639 L828 635 L828 631 L824 618 L824 611 L822 607 L824 602 L824 590 L822 583 L816 573 L818 572 L821 574 Z M254 545 L259 557 L258 560 L255 559 L255 555 L253 549 Z M733 544 L732 545 L713 546 L712 547 L696 547 L695 548 L683 548 L682 549 L675 549 L674 550 L666 550 L665 551 L660 551 L647 554 L625 556 L624 557 L610 558 L609 559 L590 559 L582 557 L583 556 L589 556 L595 551 L601 549 L613 549 L614 548 L622 548 L623 547 L642 547 L643 546 L697 544 L698 543 L732 543 Z M869 542 L871 548 L871 558 L870 559 L868 552 L868 543 Z M253 542 L254 543 L253 546 L252 545 Z M307 541 L306 544 L309 548 L309 558 L310 559 L310 567 L311 568 L311 575 L312 576 L312 583 L313 584 L313 589 L312 590 L311 589 L311 590 L314 593 L309 595 L312 597 L315 597 L318 593 L318 589 L315 586 L313 579 L312 560 L310 557 L311 550 L309 542 Z M251 540 L252 539 L253 540 L252 541 Z M868 537 L869 538 L868 541 L867 540 Z M615 533 L615 535 L613 537 L601 541 L600 542 L602 544 L595 550 L588 550 L585 552 L582 552 L579 557 L577 556 L579 557 L577 559 L568 558 L561 561 L544 562 L543 563 L530 564 L529 565 L523 565 L522 564 L493 565 L492 566 L470 566 L469 565 L467 566 L466 565 L465 567 L456 568 L455 569 L447 569 L446 570 L429 570 L428 571 L419 571 L418 572 L407 572 L406 571 L421 567 L445 564 L446 563 L452 563 L453 562 L483 560 L484 559 L492 559 L493 558 L500 558 L501 557 L543 554 L544 553 L556 553 L561 556 L569 556 L570 555 L573 556 L574 553 L572 551 L566 551 L559 553 L556 550 L559 546 L565 544 L569 538 L581 539 L590 535 L596 535 L602 537 L614 532 Z M418 526 L419 529 L416 532 L415 529 Z M290 527 L290 531 L292 535 L292 542 L290 549 L293 557 L293 566 L296 572 L298 574 L301 574 L304 569 L304 564 L303 563 L304 550 L298 542 L303 553 L303 556 L301 560 L303 568 L299 573 L295 567 L295 557 L292 551 L292 546 L295 538 L293 535 L292 529 Z M859 520 L863 526 L863 531 L864 532 L864 538 L862 542 L862 545 L859 549 L856 544 L856 539 L858 535 L858 521 Z M708 521 L720 509 L726 511 L731 511 L735 509 L744 517 L746 520 L746 523 L741 526 L736 524 L717 526 L711 524 Z M707 519 L707 522 L711 526 L714 527 L736 526 L741 528 L744 527 L747 524 L748 521 L747 518 L737 508 L725 509 L722 507 L718 508 Z M751 500 L747 498 L743 501 L743 503 L751 502 Z M256 485 L257 484 L258 485 L257 486 Z M255 482 L256 481 L257 483 L256 484 Z M748 480 L750 482 L753 482 L753 481 L749 479 Z M444 478 L445 479 L445 487 L449 494 L450 502 L446 505 L439 505 L437 506 L425 518 L422 519 L415 526 L413 530 L414 531 L413 533 L408 535 L401 533 L398 530 L400 521 L396 517 L385 512 L382 509 L380 501 L382 496 L385 494 L397 495 L410 487 L422 487 L431 482 Z M254 479 L255 478 L256 480 L255 481 Z M854 476 L855 477 L854 480 L853 479 Z M446 477 L441 477 L432 480 L423 485 L411 485 L403 489 L398 493 L385 492 L380 495 L379 497 L380 508 L384 513 L393 517 L398 521 L396 529 L399 534 L403 536 L410 536 L418 533 L420 530 L421 523 L438 507 L448 506 L451 503 L452 499 L447 487 L448 480 Z M253 470 L255 474 L254 478 L252 474 Z M263 466 L269 471 L275 470 L280 473 L291 472 L292 473 L297 473 L300 475 L284 492 L273 511 L261 493 L261 487 L258 480 L258 476 L262 472 L261 470 Z M578 468 L577 477 L578 481 L580 483 L592 484 L599 480 L598 479 L590 483 L589 482 L581 482 L579 480 L579 469 L582 466 L590 469 L599 467 L601 469 L600 470 L600 473 L601 473 L602 468 L600 466 L589 467 L583 464 Z M719 447 L720 446 L726 447 L731 450 L734 453 L734 455 L730 458 L724 457 L721 454 L719 450 Z M244 444 L247 445 L255 459 L257 465 L257 469 L259 472 L257 474 L255 471 L253 463 L247 451 L243 446 Z M717 447 L717 450 L722 458 L729 460 L732 459 L735 456 L735 452 L727 446 L721 444 Z M244 442 L245 441 L246 442 L245 443 Z M241 442 L242 441 L244 444 L243 445 Z M232 442 L233 441 L234 443 L233 444 Z M603 440 L604 439 L605 440 L604 441 Z M238 439 L240 438 L242 441 L241 442 Z M876 437 L877 438 L877 453 L876 454 L875 496 L874 497 L874 517 L873 518 L872 517 L872 507 L871 506 L871 480 L872 479 L872 472 L873 471 L874 446 L875 445 L875 438 Z M240 438 L243 436 L245 440 L244 441 Z M703 417 L703 421 L705 427 L706 424 Z M597 428 L596 430 L585 432 L575 438 L572 438 L566 432 L564 425 L567 421 L571 421 L575 419 L576 416 L580 413 L583 418 L590 425 Z M598 427 L588 422 L581 412 L578 412 L573 419 L567 420 L563 424 L563 429 L565 433 L572 439 L576 439 L580 435 L588 432 L594 432 L598 429 Z M775 404 L776 403 L778 404 L777 405 Z M771 403 L772 402 L774 403 L773 404 Z M766 402 L767 401 L770 402 L769 403 Z M761 401 L762 400 L766 401 L765 402 Z M756 400 L757 399 L761 399 L762 400 L761 401 L757 401 Z M843 395 L841 396 L841 406 L842 406 L843 402 Z M864 392 L871 392 L872 393 L870 411 L869 412 L867 409 L866 399 L863 394 Z M292 391 L292 394 L295 397 L294 392 Z M855 386 L863 396 L866 408 L866 418 L868 425 L870 423 L870 419 L871 418 L872 400 L873 399 L875 403 L876 415 L877 416 L877 430 L875 433 L874 441 L873 442 L873 448 L872 449 L872 465 L870 473 L869 499 L868 500 L867 497 L867 506 L868 509 L868 503 L869 502 L870 503 L870 518 L871 522 L873 523 L873 534 L871 541 L868 530 L868 525 L867 527 L865 523 L862 507 L856 489 L856 481 L857 480 L856 465 L859 453 L860 442 L863 430 L863 423 L864 422 L863 421 L864 420 L863 420 L861 427 L858 450 L854 466 L854 475 L853 476 L849 469 L852 425 L853 424 L853 410 L854 409 L854 387 Z M286 365 L285 366 L286 367 L286 373 L287 374 L287 378 L289 380 L289 375 Z M608 350 L620 350 L621 351 L632 352 L650 359 L652 361 L672 371 L689 387 L699 401 L698 405 L702 413 L703 412 L700 406 L699 402 L700 401 L756 402 L757 403 L762 403 L763 404 L780 407 L795 412 L806 418 L813 426 L816 426 L826 435 L837 450 L844 467 L844 465 L845 464 L852 479 L852 482 L858 499 L863 519 L862 521 L859 518 L856 522 L855 546 L858 551 L861 551 L864 544 L864 540 L865 539 L866 540 L867 556 L870 566 L869 574 L868 575 L868 582 L870 583 L869 600 L868 601 L867 599 L868 630 L867 631 L867 653 L866 654 L866 725 L865 726 L864 725 L864 721 L862 716 L862 706 L860 703 L860 700 L862 697 L862 690 L859 683 L860 682 L860 678 L859 677 L862 675 L862 671 L863 670 L863 658 L861 656 L861 673 L856 676 L856 681 L860 689 L860 697 L858 702 L861 709 L860 715 L863 725 L863 731 L862 732 L859 728 L856 728 L854 731 L855 737 L862 744 L859 748 L859 751 L866 753 L866 761 L865 762 L865 769 L866 770 L865 790 L866 791 L864 796 L864 800 L867 804 L866 808 L866 822 L865 823 L867 829 L867 837 L868 838 L868 842 L867 843 L863 831 L859 824 L858 819 L855 816 L846 797 L839 773 L839 768 L838 767 L838 725 L839 724 L839 715 L840 714 L841 701 L845 686 L845 683 L844 685 L843 681 L845 676 L847 659 L850 650 L851 642 L854 639 L857 632 L856 630 L854 631 L855 634 L853 637 L852 636 L852 609 L851 608 L851 602 L848 592 L844 584 L839 577 L830 568 L816 558 L808 554 L805 554 L798 550 L782 546 L766 545 L765 544 L752 544 L751 543 L744 543 L743 542 L736 542 L735 541 L704 541 L703 542 L699 541 L698 542 L677 542 L676 543 L631 545 L630 546 L604 547 L602 548 L601 547 L606 541 L613 539 L616 536 L617 533 L616 513 L614 511 L614 503 L613 502 L612 440 L611 439 L611 418 L610 417 L610 401 L609 400 L609 379 L608 378 L608 366 L607 365 L607 359 L608 358 L607 351 Z M602 349 L604 351 L604 355 L605 356 L605 377 L606 378 L607 400 L608 401 L609 436 L608 437 L605 436 L603 438 L601 447 L595 454 L595 456 L601 450 L607 436 L609 439 L609 469 L610 470 L610 488 L611 489 L613 526 L614 527 L614 531 L613 532 L610 532 L603 535 L592 533 L591 534 L587 534 L582 537 L570 536 L564 542 L559 544 L554 551 L551 552 L538 552 L537 553 L498 556 L497 557 L479 558 L478 559 L457 560 L450 562 L443 562 L442 563 L418 566 L413 568 L409 568 L383 574 L365 580 L362 582 L358 583 L357 582 L341 590 L331 597 L317 611 L313 617 L309 628 L308 637 L307 638 L307 659 L308 660 L308 666 L311 678 L319 695 L321 706 L329 727 L330 739 L331 740 L331 748 L332 749 L332 772 L331 773 L331 778 L330 779 L330 784 L328 792 L327 793 L325 791 L326 798 L322 808 L308 835 L294 854 L293 851 L300 834 L302 818 L305 807 L306 794 L304 796 L303 808 L299 825 L299 831 L293 847 L292 846 L293 800 L292 799 L292 786 L291 785 L291 779 L290 779 L290 790 L291 791 L291 840 L290 841 L289 861 L291 861 L297 854 L310 835 L317 822 L318 823 L316 831 L311 837 L301 860 L298 874 L296 878 L296 883 L294 889 L294 897 L293 898 L293 907 L291 915 L290 914 L286 885 L281 864 L282 862 L282 849 L281 848 L280 831 L279 830 L277 805 L276 804 L276 779 L275 780 L273 776 L272 761 L271 760 L268 736 L262 712 L259 706 L253 688 L253 685 L248 673 L248 670 L247 671 L240 660 L244 655 L252 653 L257 650 L258 651 L264 683 L272 715 L274 729 L282 759 L283 767 L281 771 L283 769 L284 770 L286 786 L288 786 L286 771 L284 765 L284 758 L277 733 L272 706 L266 684 L266 680 L260 654 L260 649 L258 643 L256 626 L255 625 L253 610 L251 604 L251 599 L250 598 L248 583 L245 572 L245 567 L242 556 L242 551 L241 550 L241 545 L240 544 L240 539 L239 538 L239 533 L238 532 L238 527 L235 514 L235 508 L233 501 L231 477 L230 476 L229 455 L230 454 L231 444 L232 443 L233 444 L233 458 L234 459 L235 470 L242 494 L242 499 L244 504 L244 508 L248 524 L249 538 L251 544 L252 554 L254 559 L254 564 L257 575 L257 580 L258 581 L259 591 L262 602 L262 607 L265 617 L268 635 L271 644 L271 648 L274 657 L274 661 L279 677 L282 699 L283 700 L284 714 L288 724 L288 731 L289 732 L289 737 L290 737 L290 727 L285 712 L285 704 L284 703 L284 695 L282 688 L282 682 L266 618 L263 598 L261 592 L261 587 L258 576 L258 571 L259 570 L274 632 L282 657 L282 654 L267 598 L267 594 L265 589 L265 585 L261 569 L258 562 L259 559 L261 562 L266 577 L267 577 L267 575 L259 552 L257 549 L253 537 L253 534 L249 524 L245 502 L242 493 L242 487 L237 474 L236 463 L235 462 L235 441 L236 440 L242 446 L247 454 L253 468 L252 470 L251 469 L250 470 L254 487 L266 506 L272 513 L267 531 L267 538 L268 539 L269 530 L273 516 L284 496 L291 487 L305 473 L323 461 L340 453 L352 449 L368 446 L387 440 L403 438 L404 437 L416 437 L424 435 L436 435 L443 433 L449 433 L471 403 L494 381 L512 369 L530 360 L550 353 L554 353 L559 351 L576 350 L577 349 Z M842 339 L842 378 L843 379 L843 374 L844 373 L844 367 L843 366 L844 365 L844 354 L843 353 L843 339 Z M425 333 L426 334 L425 337 L424 336 Z M601 331 L590 327 L575 325 L574 324 L566 324 L565 325 L559 325 L558 326 L553 326 L545 328 L525 335 L504 346 L484 360 L471 371 L459 383 L453 391 L446 404 L443 414 L439 421 L432 421 L431 420 L397 420 L396 421 L381 423 L373 426 L366 427 L353 432 L351 434 L353 434 L363 429 L391 422 L398 422 L399 421 L440 422 L445 414 L446 409 L453 394 L457 388 L469 375 L481 364 L485 362 L496 353 L507 346 L529 335 L534 334 L540 331 L556 327 L562 327 L563 326 L576 326 L577 327 L582 327 L587 329 L595 330 L599 332 Z M281 322 L280 323 L280 334 L281 335 L281 342 L283 344 L282 340 L282 323 Z M697 312 L698 313 L698 317 L697 318 L696 317 L696 313 Z M598 310 L599 311 L598 315 L597 314 Z M698 305 L699 306 L698 310 L697 309 Z M597 305 L598 306 L598 310 L597 311 L596 310 L596 306 Z M840 304 L841 303 L842 304 L841 305 Z M595 297 L597 302 L596 306 L594 302 L594 298 Z M832 294 L833 296 L839 295 L841 298 L840 299 L840 305 L841 306 L841 310 L840 311 L841 314 L840 316 L841 320 L837 327 L832 317 L829 304 L829 299 Z M699 294 L700 295 L700 303 L699 304 L698 303 L698 295 Z M594 294 L595 295 L594 298 L593 297 Z M592 293 L593 292 L594 294 L593 295 Z M832 293 L834 291 L837 294 L835 295 Z M832 290 L828 296 L827 304 L831 319 L835 328 L837 329 L842 323 L842 310 L845 303 L841 294 L835 290 Z M592 289 L593 290 L592 293 L591 292 Z M700 287 L701 288 L701 294 L700 295 L699 294 L699 288 Z M590 288 L591 287 L592 289 L591 290 Z M589 286 L590 285 L591 286 L590 287 Z M588 284 L589 283 L590 284 L589 285 Z M581 265 L582 264 L583 266 L582 267 Z M429 265 L430 264 L431 265 L430 266 Z M431 264 L432 263 L433 264 L432 265 Z M432 263 L433 262 L434 263 L433 264 Z M570 280 L553 285 L545 285 L544 284 L537 284 L536 283 L527 282 L511 277 L484 264 L480 261 L462 255 L447 255 L443 256 L422 267 L415 269 L409 269 L408 270 L401 270 L395 268 L384 267 L374 263 L362 260 L341 259 L321 264 L311 269 L304 274 L293 285 L289 291 L282 308 L282 313 L288 296 L295 285 L304 276 L314 269 L329 263 L338 262 L339 261 L363 262 L375 266 L390 269 L400 275 L401 274 L398 272 L399 271 L413 271 L421 269 L429 265 L430 266 L425 272 L421 284 L421 299 L422 300 L422 309 L423 310 L423 316 L425 324 L425 331 L424 332 L417 304 L406 281 L406 283 L410 290 L420 320 L420 324 L424 340 L424 345 L426 351 L426 356 L427 357 L427 364 L428 365 L428 373 L429 374 L431 394 L432 395 L432 399 L434 401 L432 385 L431 384 L431 378 L430 377 L430 369 L429 368 L427 324 L425 318 L424 303 L423 302 L423 282 L424 278 L429 269 L433 265 L445 258 L457 256 L458 257 L463 257 L471 259 L503 275 L505 275 L510 278 L514 278 L525 283 L541 285 L542 286 L555 286 L566 283 L570 281 Z M685 251 L691 256 L695 262 L699 273 L699 268 L695 259 L691 254 Z M577 245 L578 244 L579 246 L578 247 Z M572 242 L573 241 L574 243 L573 244 Z M571 240 L572 239 L573 241 L572 242 Z M570 238 L571 237 L572 239 L571 240 Z M569 237 L570 236 L571 237 L570 238 Z M568 235 L569 234 L570 235 L569 236 Z M567 233 L568 232 L569 234 L568 235 Z M714 232 L715 231 L716 232 L715 233 Z M566 232 L567 231 L568 232 L567 233 Z M565 230 L566 229 L567 231 L566 232 Z M563 227 L564 226 L566 229 L565 230 Z M561 221 L564 225 L563 227 L560 224 Z M559 221 L560 220 L561 221 L560 222 Z M558 220 L559 219 L560 220 L559 221 Z M571 204 L573 205 L570 213 L570 222 L572 227 L573 226 L574 227 L576 238 L578 242 L577 244 L564 222 L557 215 L553 213 Z M577 202 L578 204 L576 206 L574 212 L574 217 L572 223 L571 222 L571 215 L573 209 L573 204 L575 202 Z M577 202 L578 201 L579 202 L578 203 Z M839 246 L847 273 L847 278 L850 291 L850 299 L851 300 L851 311 L852 312 L853 387 L852 388 L851 424 L850 425 L848 461 L847 462 L845 461 L840 451 L831 438 L819 426 L796 410 L778 402 L765 398 L755 397 L744 394 L731 393 L730 392 L718 392 L717 391 L706 390 L700 382 L699 379 L691 370 L693 369 L694 365 L696 328 L698 324 L698 320 L700 314 L701 299 L702 298 L704 276 L705 275 L705 262 L707 257 L707 251 L711 240 L717 233 L725 228 L729 228 L730 227 L737 227 L738 226 L758 227 L774 234 L783 240 L797 254 L801 261 L802 261 L802 259 L798 253 L779 235 L766 228 L751 224 L731 225 L730 226 L722 227 L699 235 L689 235 L680 239 L677 239 L673 241 L653 246 L640 252 L641 253 L649 249 L659 246 L673 246 L677 248 L676 246 L671 243 L688 238 L702 236 L712 232 L715 233 L709 240 L706 247 L705 257 L704 258 L704 265 L703 266 L702 286 L701 287 L700 286 L700 278 L699 277 L698 279 L697 300 L696 301 L695 315 L694 316 L694 343 L693 344 L692 369 L691 370 L684 363 L649 342 L647 342 L637 337 L619 332 L615 332 L614 331 L604 331 L604 332 L628 336 L645 342 L659 349 L684 365 L694 375 L702 388 L707 392 L740 395 L741 396 L756 398 L757 399 L756 400 L700 399 L692 388 L676 371 L667 364 L648 354 L645 355 L636 351 L622 349 L621 348 L607 348 L605 340 L604 341 L601 336 L603 344 L602 348 L601 347 L578 347 L577 348 L568 348 L567 349 L560 349 L559 350 L550 351 L532 357 L502 373 L491 381 L475 396 L460 414 L451 428 L447 432 L436 432 L435 433 L425 433 L424 434 L400 436 L393 438 L387 438 L355 446 L340 451 L321 460 L302 473 L293 470 L295 469 L284 470 L283 469 L284 468 L278 468 L277 469 L276 468 L268 468 L265 464 L262 464 L260 467 L258 465 L257 459 L246 439 L245 431 L246 430 L246 316 L247 315 L248 297 L253 281 L260 267 L269 254 L290 233 L302 225 L320 216 L346 207 L400 194 L418 192 L419 191 L429 191 L430 190 L446 190 L447 191 L457 191 L458 192 L465 192 L466 193 L474 194 L491 202 L493 202 L503 208 L522 215 L536 216 L549 213 L560 223 L563 230 L571 241 L574 249 L573 244 L574 243 L576 246 L582 261 L582 263 L580 264 L581 269 L594 301 L595 311 L600 328 L600 324 L598 319 L598 315 L599 314 L602 325 L602 321 L601 320 L602 319 L601 318 L598 300 L585 270 L595 260 L602 247 L605 237 L605 230 L606 229 L608 210 L606 214 L604 235 L600 249 L594 260 L585 269 L582 258 L581 247 L579 243 L575 227 L575 214 L578 205 L583 200 L588 199 L596 195 L615 181 L616 184 L611 195 L607 207 L608 208 L613 197 L614 191 L617 186 L618 180 L622 177 L642 169 L675 160 L682 160 L683 159 L714 159 L715 160 L723 160 L724 161 L735 162 L762 170 L783 180 L803 194 L816 207 L822 215 L832 231 Z M715 157 L694 156 L693 157 L680 157 L679 158 L673 158 L672 159 L667 159 L659 161 L621 175 L615 178 L597 192 L589 196 L574 200 L560 208 L537 214 L523 213 L510 209 L496 202 L494 200 L492 200 L475 192 L467 190 L462 190 L461 189 L451 189 L450 188 L426 188 L425 189 L410 190 L345 205 L317 215 L298 225 L284 235 L270 249 L258 266 L250 282 L245 301 L245 310 L244 311 L244 429 L243 433 L240 436 L235 437 L229 443 L227 451 L227 465 L228 466 L228 478 L230 486 L230 494 L231 495 L233 515 L234 516 L240 557 L242 562 L244 578 L246 583 L246 588 L248 594 L248 599 L250 605 L250 610 L252 616 L252 621 L255 632 L257 647 L253 650 L248 651 L242 654 L237 660 L237 674 L238 675 L239 688 L240 689 L240 694 L243 707 L243 713 L244 714 L244 720 L247 733 L249 752 L251 758 L249 762 L249 767 L253 774 L253 779 L254 780 L254 785 L255 786 L255 791 L258 804 L258 810 L259 811 L262 836 L264 843 L264 849 L266 856 L266 862 L267 863 L267 868 L268 869 L268 874 L269 875 L269 880 L272 893 L272 899 L273 900 L273 906 L274 907 L275 919 L277 926 L281 960 L282 961 L283 973 L284 974 L287 994 L291 1004 L294 1007 L298 1009 L304 1009 L305 1010 L306 1020 L313 1043 L329 1073 L351 1110 L361 1125 L392 1165 L423 1199 L445 1220 L465 1237 L504 1265 L532 1279 L565 1289 L573 1289 L574 1290 L589 1291 L590 1292 L604 1292 L605 1293 L622 1293 L623 1292 L640 1291 L641 1290 L646 1290 L659 1287 L691 1274 L719 1256 L736 1242 L764 1213 L776 1198 L782 1188 L802 1160 L807 1150 L815 1139 L847 1079 L847 1077 L855 1060 L863 1036 L867 1015 L868 1014 L868 1010 L869 1009 L869 1004 L882 1000 L885 997 L887 991 L887 977 L888 976 L887 965 L888 964 L887 963 L886 889 L885 888 L885 773 L884 772 L884 748 L885 747 L885 730 L886 729 L886 712 L885 711 L886 688 L887 687 L890 690 L902 697 L906 701 L910 702 L927 714 L937 715 L943 721 L949 721 L957 714 L963 715 L965 712 L964 709 L967 705 L966 702 L964 701 L963 702 L959 702 L955 698 L950 699 L947 697 L941 698 L937 702 L932 699 L929 696 L928 693 L916 682 L906 676 L896 673 L894 671 L894 664 L887 656 L887 631 L885 623 L883 619 L872 615 L870 613 L871 612 L872 565 L873 564 L873 552 L874 551 L874 540 L875 539 L876 498 L877 497 L877 480 L878 479 L879 417 L878 416 L877 402 L874 393 L871 390 L861 390 L859 389 L855 379 L855 347 L854 346 L854 309 L853 308 L853 300 L852 299 L852 292 L851 291 L851 285 L850 284 L848 268 L839 241 L831 225 L821 210 L805 193 L796 186 L782 177 L763 168 L739 161 L724 159 L723 158 L716 158 Z" fill="#eef3f4" fill-rule="evenodd"/>
</svg>
