<svg xmlns="http://www.w3.org/2000/svg" width="1122" height="1402" viewBox="0 0 1122 1402">
  <title>0372</title>
  <path d="M582 1117 L583 1116 L591 1116 L592 1117 L591 1118 L583 1118 Z M597 1116 L598 1115 L608 1115 L609 1116 L608 1117 L598 1117 Z M612 1115 L613 1114 L617 1114 L618 1115 L617 1116 L613 1116 Z M667 1088 L659 1099 L647 1108 L635 1113 L625 1114 L624 1115 L620 1115 L619 1114 L636 1109 L646 1104 L660 1094 L666 1087 Z M666 1087 L667 1086 L668 1087 L667 1088 Z M667 1086 L668 1085 L669 1086 L668 1087 Z M668 1084 L669 1083 L670 1085 L669 1086 Z M669 1083 L670 1082 L671 1083 L670 1084 Z M670 1082 L671 1081 L672 1082 L671 1083 Z M671 1080 L672 1079 L673 1081 L672 1082 Z M672 1079 L673 1078 L674 1079 L673 1080 Z M673 1077 L674 1076 L675 1078 L674 1079 Z M670 1075 L671 1074 L672 1075 L671 1076 Z M671 1073 L672 1072 L673 1073 L672 1074 Z M672 1071 L673 1070 L674 1071 L673 1072 Z M669 1047 L680 1048 L685 1050 L688 1053 L688 1057 L686 1062 L675 1077 L674 1074 L675 1073 L676 1062 L673 1054 L668 1048 Z M609 1045 L613 1046 L628 1046 L633 1048 L629 1058 L624 1066 L618 1066 L617 1067 L610 1067 L609 1066 L610 1065 L610 1050 L608 1046 Z M568 1041 L589 1043 L591 1045 L588 1050 L584 1065 L576 1065 L568 1063 L568 1045 L567 1044 Z M518 1036 L520 1035 L527 1037 L547 1039 L548 1040 L545 1046 L543 1058 L541 1060 L537 1060 L536 1059 L528 1059 L527 1058 L519 1057 L518 1056 L519 1054 Z M476 1022 L501 1031 L497 1035 L490 1051 L484 1051 L480 1049 L477 1049 L475 1047 L475 1023 Z M423 1002 L452 1015 L447 1022 L442 1034 L439 1037 L428 1034 L425 1032 L426 1031 L425 1032 L423 1030 L423 1006 L422 1005 Z M365 996 L374 987 L386 987 L398 991 L417 1000 L419 1002 L420 1006 L420 1029 L422 1034 L427 1037 L440 1040 L444 1037 L449 1025 L454 1018 L462 1018 L471 1021 L473 1023 L473 1027 L472 1028 L473 1031 L472 1032 L472 1048 L474 1051 L483 1054 L487 1054 L488 1055 L492 1054 L500 1036 L504 1034 L511 1034 L516 1039 L516 1053 L515 1056 L517 1060 L541 1063 L546 1058 L549 1043 L551 1041 L562 1041 L565 1044 L566 1066 L568 1067 L574 1067 L575 1068 L585 1068 L587 1067 L590 1053 L592 1049 L596 1045 L602 1045 L606 1047 L606 1067 L609 1070 L625 1069 L629 1065 L634 1051 L637 1048 L664 1049 L670 1055 L673 1064 L668 1074 L660 1086 L653 1094 L641 1103 L630 1108 L624 1109 L620 1111 L604 1112 L603 1113 L554 1112 L553 1111 L529 1109 L528 1108 L516 1107 L504 1104 L497 1104 L496 1103 L485 1102 L480 1100 L475 1100 L459 1096 L452 1093 L449 1093 L429 1086 L413 1078 L401 1070 L387 1056 L381 1048 L371 1029 L365 1008 Z M346 983 L350 978 L355 976 L363 976 L383 983 L382 984 L371 985 L363 993 L362 996 L362 1010 L365 1022 L375 1044 L383 1056 L396 1070 L412 1081 L436 1092 L475 1103 L502 1107 L503 1108 L515 1109 L516 1110 L545 1113 L546 1114 L579 1115 L580 1116 L579 1117 L544 1116 L543 1115 L534 1115 L533 1114 L501 1111 L500 1110 L494 1110 L493 1109 L481 1108 L480 1107 L445 1104 L412 1095 L391 1085 L374 1069 L359 1043 L357 1036 L353 1029 L346 1007 L346 1003 L344 997 L344 989 Z M374 976 L375 975 L378 976 L377 977 Z M605 971 L601 974 L597 974 L596 973 L598 971 L602 970 Z M486 963 L487 962 L498 962 L505 964 L517 964 L522 961 L528 967 L539 970 L550 970 L557 966 L562 969 L571 969 L572 970 L559 974 L547 975 L546 974 L537 974 L536 973 L525 972 Z M563 965 L567 962 L576 959 L589 959 L590 960 L588 962 L578 965 L573 965 L572 966 L564 966 Z M605 964 L605 966 L603 968 L596 970 L587 970 L579 968 L594 963 L596 958 L600 959 Z M488 959 L489 958 L490 959 L489 960 Z M593 958 L594 957 L595 958 L594 959 Z M486 958 L487 957 L488 958 L487 959 Z M482 956 L483 955 L484 956 L483 957 Z M481 955 L482 954 L483 955 L482 956 Z M480 954 L481 953 L482 954 L481 955 Z M479 953 L480 952 L481 953 L480 954 Z M482 951 L486 948 L497 948 L506 951 L516 957 L518 960 L517 961 L500 960 L486 955 Z M496 945 L497 944 L498 945 L497 946 Z M733 816 L734 815 L735 816 L734 817 Z M745 814 L746 813 L747 814 L746 815 Z M766 812 L767 811 L768 812 L767 813 Z M553 803 L548 812 L534 855 L530 876 L529 877 L529 881 L528 882 L524 910 L523 911 L518 902 L510 894 L506 892 L501 892 L494 895 L477 911 L473 918 L470 927 L470 941 L472 944 L473 944 L472 941 L472 928 L476 917 L480 911 L491 900 L500 895 L506 895 L510 897 L519 907 L523 917 L523 926 L525 926 L528 897 L529 896 L530 885 L535 865 L535 861 L544 834 L544 830 L548 821 L548 818 L554 805 Z M631 795 L632 794 L633 795 L632 796 Z M632 793 L633 792 L634 793 L633 794 Z M633 791 L634 790 L635 791 L634 792 Z M659 816 L661 814 L662 808 L666 800 L672 793 L682 788 L690 788 L699 792 L705 797 L708 801 L711 809 L711 817 L715 817 L716 818 L715 819 L684 819 L683 818 L669 818 L668 817 L660 817 Z M570 789 L569 792 L570 793 L573 819 L574 820 L575 837 L576 838 L576 850 L577 851 L577 893 L576 894 L576 904 L575 905 L573 928 L575 928 L577 919 L580 912 L585 906 L590 903 L597 903 L605 907 L611 912 L618 923 L621 935 L621 941 L620 942 L619 951 L615 959 L609 966 L607 965 L607 963 L604 959 L595 955 L585 954 L584 955 L576 955 L566 958 L548 968 L535 967 L529 965 L512 948 L503 943 L496 941 L492 941 L492 942 L496 944 L495 945 L484 946 L480 948 L478 951 L474 950 L482 959 L487 962 L486 963 L474 960 L464 954 L458 947 L454 937 L454 931 L457 918 L461 910 L468 900 L479 889 L490 881 L500 876 L502 876 L503 874 L491 878 L474 890 L462 904 L455 917 L445 926 L432 933 L418 937 L406 938 L405 939 L380 940 L379 941 L359 941 L358 942 L348 942 L347 943 L339 944 L330 948 L324 954 L320 962 L318 970 L318 975 L317 976 L317 986 L318 987 L319 1001 L324 1022 L332 1045 L335 1050 L336 1055 L352 1088 L369 1114 L385 1130 L400 1139 L411 1143 L423 1145 L428 1147 L434 1147 L440 1149 L447 1149 L448 1150 L455 1150 L456 1151 L463 1151 L464 1152 L473 1152 L474 1153 L483 1153 L484 1154 L493 1154 L494 1155 L506 1155 L507 1156 L517 1156 L518 1157 L529 1157 L530 1158 L540 1158 L541 1159 L596 1162 L597 1163 L628 1163 L638 1160 L650 1153 L659 1146 L674 1131 L694 1104 L707 1079 L713 1058 L713 1045 L711 1039 L704 1032 L698 1029 L694 1028 L646 1028 L645 1027 L601 1026 L600 1025 L569 1023 L568 1022 L561 1022 L560 1021 L535 1018 L483 1006 L466 1000 L456 998 L429 989 L426 987 L423 987 L406 980 L403 980 L396 977 L387 976 L382 974 L375 974 L374 973 L355 973 L348 976 L343 982 L342 990 L341 991 L342 1002 L352 1034 L364 1059 L374 1074 L381 1081 L390 1088 L402 1094 L427 1103 L444 1106 L445 1107 L451 1107 L452 1108 L479 1110 L480 1111 L494 1112 L502 1114 L535 1117 L536 1118 L547 1118 L548 1119 L604 1120 L605 1119 L623 1118 L640 1114 L656 1105 L667 1094 L680 1076 L691 1058 L691 1053 L687 1048 L680 1045 L633 1045 L632 1044 L605 1043 L604 1042 L593 1042 L592 1041 L584 1041 L583 1040 L558 1038 L557 1037 L547 1037 L546 1036 L539 1036 L538 1035 L532 1035 L531 1034 L508 1031 L484 1023 L481 1021 L445 1010 L426 1001 L412 992 L400 986 L378 978 L377 977 L378 976 L383 976 L395 979 L402 982 L405 982 L417 987 L425 989 L428 991 L434 992 L475 1006 L527 1019 L551 1022 L552 1023 L558 1023 L559 1024 L566 1024 L567 1025 L585 1026 L586 1027 L594 1027 L595 1028 L608 1028 L609 1029 L689 1030 L690 1031 L696 1031 L703 1034 L709 1041 L711 1048 L711 1055 L710 1056 L709 1066 L704 1080 L697 1094 L685 1113 L675 1126 L661 1141 L646 1153 L634 1159 L625 1160 L624 1161 L589 1160 L588 1159 L574 1159 L573 1158 L561 1158 L560 1157 L549 1157 L548 1156 L535 1156 L534 1155 L511 1154 L510 1153 L500 1153 L499 1152 L488 1152 L487 1151 L478 1151 L477 1150 L469 1150 L468 1149 L436 1146 L435 1145 L430 1145 L429 1144 L412 1141 L389 1130 L372 1114 L360 1097 L345 1069 L345 1067 L334 1043 L326 1020 L322 1004 L321 992 L320 991 L320 972 L321 971 L322 963 L325 957 L331 951 L333 950 L338 951 L360 962 L358 959 L336 948 L344 945 L362 944 L363 943 L398 942 L399 941 L407 941 L408 940 L419 939 L433 935 L445 929 L452 923 L453 924 L452 927 L452 939 L454 945 L457 950 L464 957 L470 961 L485 966 L491 966 L492 967 L505 969 L515 973 L519 973 L530 976 L536 976 L537 977 L547 977 L548 978 L557 977 L572 973 L580 973 L581 974 L602 976 L603 977 L609 977 L617 975 L624 971 L631 963 L633 958 L634 947 L635 946 L641 958 L655 974 L665 981 L680 988 L684 988 L682 986 L677 985 L669 981 L660 975 L646 961 L637 946 L635 940 L635 934 L632 921 L624 902 L617 892 L612 887 L602 881 L602 883 L609 887 L615 893 L622 903 L630 922 L631 935 L633 942 L631 956 L627 965 L623 969 L613 974 L607 974 L606 973 L616 962 L621 952 L623 944 L622 928 L618 918 L613 911 L608 906 L596 900 L589 901 L585 903 L578 912 L577 911 L578 896 L579 895 L579 848 L578 847 L577 825 L575 819 L574 806 Z M823 785 L827 787 L834 788 L835 792 L827 820 L826 829 L823 838 L823 842 L819 856 L814 884 L812 889 L807 916 L805 921 L805 925 L801 941 L801 946 L799 951 L799 956 L798 957 L795 976 L793 981 L793 985 L792 986 L792 990 L791 991 L791 995 L790 996 L790 1000 L784 1026 L784 1031 L783 1032 L781 1047 L776 1068 L776 1073 L772 1089 L772 1094 L768 1110 L766 1125 L761 1128 L743 1128 L742 1125 L748 1111 L750 1102 L752 1099 L752 1096 L758 1079 L769 1035 L772 1017 L774 1012 L775 1002 L777 997 L777 993 L781 977 L781 972 L783 966 L790 919 L791 918 L791 912 L793 905 L793 899 L796 886 L798 866 L799 865 L805 825 L819 787 L821 785 Z M831 785 L832 784 L834 785 L833 786 Z M636 785 L637 784 L638 785 L637 786 Z M828 784 L829 783 L832 784 L831 785 Z M825 783 L826 782 L829 783 L828 784 Z M638 782 L639 781 L640 782 L639 783 Z M822 781 L823 780 L826 782 L823 783 Z M733 779 L740 791 L745 808 L743 813 L738 816 L734 815 L739 809 L739 797 L736 788 L732 781 Z M639 780 L640 779 L641 780 L640 781 Z M640 779 L641 778 L642 779 L641 780 Z M731 778 L732 777 L733 779 L732 780 Z M641 778 L642 777 L643 778 L642 779 Z M642 776 L643 775 L644 776 L643 777 Z M643 775 L644 774 L645 775 L644 776 Z M357 775 L358 774 L359 775 L358 776 Z M728 774 L729 773 L732 777 L731 778 Z M644 774 L645 773 L646 774 L645 775 Z M385 772 L386 771 L387 773 L386 774 Z M725 770 L726 769 L729 773 L728 774 Z M499 770 L500 769 L501 771 L500 772 Z M724 769 L725 768 L726 769 L725 770 Z M723 768 L724 767 L725 768 L724 769 Z M722 767 L723 766 L724 767 L723 768 Z M721 766 L722 765 L723 766 L722 767 Z M498 766 L499 765 L500 767 L499 768 Z M388 765 L389 768 L387 771 L386 768 Z M720 765 L721 764 L722 765 L721 766 Z M497 763 L498 762 L499 764 L498 765 Z M716 762 L718 761 L721 764 L719 765 Z M715 761 L716 760 L717 761 L716 762 Z M496 761 L497 760 L498 761 L497 762 Z M417 781 L421 772 L429 764 L435 761 L439 761 L440 760 L450 761 L457 765 L464 773 L468 783 L469 795 L468 796 L459 795 L440 790 L435 790 L422 786 L418 786 L417 785 Z M710 758 L712 757 L716 760 L714 761 Z M495 758 L496 757 L497 759 L496 760 Z M736 798 L736 808 L731 814 L728 815 L715 815 L712 803 L704 792 L693 786 L681 785 L671 790 L665 796 L659 807 L657 814 L632 814 L630 811 L631 804 L636 793 L642 783 L648 776 L660 765 L666 761 L683 756 L695 756 L703 758 L714 764 L728 779 L734 791 Z M392 756 L393 759 L389 766 L388 763 Z M494 756 L495 755 L496 757 L495 758 Z M392 755 L393 754 L394 756 L393 757 Z M493 754 L494 753 L495 755 L494 756 Z M393 754 L394 753 L395 754 L394 755 Z M492 753 L493 752 L494 753 L493 754 Z M394 752 L395 751 L396 753 L395 754 Z M836 750 L837 753 L834 760 L830 778 L828 780 L823 777 Z M491 751 L492 750 L493 751 L492 752 Z M711 757 L709 758 L704 755 L696 753 L680 753 L663 759 L656 764 L646 774 L645 773 L660 758 L671 752 L679 750 L684 750 L685 749 L696 750 L700 752 L703 752 Z M395 750 L396 749 L397 751 L396 752 Z M836 749 L837 748 L838 750 L837 751 Z M490 749 L491 748 L492 749 L491 750 Z M396 749 L397 748 L398 749 L397 750 Z M489 748 L490 747 L491 748 L490 749 Z M397 748 L398 747 L399 748 L398 749 Z M837 746 L838 745 L839 747 L838 748 Z M488 746 L489 745 L490 746 L489 747 Z M398 746 L399 745 L400 747 L399 748 Z M487 745 L488 744 L489 745 L488 746 Z M399 745 L400 744 L401 745 L400 746 Z M400 744 L401 743 L402 744 L401 745 Z M401 743 L402 742 L403 743 L402 744 Z M541 743 L543 741 L547 741 L553 743 L581 745 L582 746 L603 746 L604 747 L604 752 L603 753 L602 767 L600 773 L600 782 L597 783 L592 781 L576 779 L575 778 L541 776 L539 774 Z M402 742 L403 741 L404 742 L403 743 Z M561 729 L562 728 L566 728 L567 729 L566 730 L562 730 Z M388 776 L401 750 L406 744 L416 736 L423 732 L435 728 L454 728 L464 731 L473 736 L489 752 L495 764 L496 770 L498 774 L499 787 L500 788 L500 797 L498 799 L493 800 L472 795 L471 794 L472 792 L471 781 L467 772 L459 763 L453 759 L447 757 L438 757 L425 763 L418 771 L413 783 L394 782 L390 780 L388 778 Z M403 740 L412 732 L425 725 L442 721 L451 721 L467 725 L474 729 L484 738 L488 744 L487 745 L474 733 L464 728 L453 725 L436 725 L435 726 L431 726 L415 733 L404 742 Z M551 721 L554 725 L562 728 L561 729 L554 729 L552 730 L553 731 L587 732 L593 730 L599 731 L605 728 L605 727 L601 727 L600 728 L597 727 L596 728 L577 729 L576 728 L562 726 Z M854 710 L855 711 L855 715 L850 731 L850 735 L848 739 L846 750 L843 757 L841 768 L839 772 L838 779 L836 783 L832 780 L832 778 L842 745 L842 736 L847 726 L849 719 Z M268 710 L270 712 L272 720 L273 755 L274 756 L274 792 L275 793 L274 853 L273 854 L272 883 L271 884 L271 897 L270 898 L270 914 L269 915 L266 974 L265 975 L264 999 L263 1000 L263 1011 L262 1012 L262 1023 L261 1024 L258 1063 L257 1064 L256 1074 L253 1081 L246 1089 L243 1089 L242 1088 L242 1065 L243 1064 L243 1046 L244 1045 L245 1012 L246 1011 L249 951 L250 950 L250 936 L251 935 L251 920 L252 919 L252 906 L253 905 L253 890 L254 889 L254 876 L255 875 L258 822 L259 821 L262 777 L263 776 L263 765 L264 764 L264 752 L265 751 L266 711 Z M854 709 L855 708 L856 710 L855 711 Z M267 707 L268 706 L289 706 L290 709 L289 710 L271 709 Z M859 676 L860 677 L859 678 L860 689 L859 690 L858 698 L856 700 L845 722 L841 733 L827 761 L809 806 L808 805 L808 800 L809 799 L809 792 L810 791 L812 767 L815 757 L815 753 L817 749 L819 738 L833 699 L845 674 Z M363 695 L392 673 L409 665 L422 661 L433 660 L434 659 L459 659 L478 664 L498 675 L518 694 L533 704 L552 712 L565 715 L570 715 L571 716 L578 716 L579 717 L592 717 L608 713 L643 696 L651 691 L661 687 L677 683 L696 682 L697 683 L709 684 L713 686 L719 687 L740 699 L758 717 L765 727 L771 740 L770 741 L753 728 L729 714 L713 708 L700 705 L675 705 L674 706 L664 707 L640 713 L632 717 L622 724 L604 743 L586 743 L585 742 L561 741 L548 738 L540 739 L528 722 L511 706 L490 693 L468 685 L453 683 L452 682 L444 682 L443 681 L424 681 L423 682 L415 682 L414 683 L398 685 L380 691 L377 691 L365 696 Z M353 701 L354 703 L361 699 L387 690 L408 686 L409 685 L425 684 L426 683 L439 683 L440 684 L449 684 L450 685 L462 686 L474 689 L487 694 L497 699 L509 707 L523 720 L539 741 L538 754 L536 762 L536 776 L534 778 L532 785 L524 801 L518 810 L509 820 L501 826 L495 829 L487 831 L472 832 L471 833 L441 832 L440 831 L421 829 L405 824 L392 817 L379 808 L365 793 L358 779 L358 776 L360 775 L375 782 L393 787 L419 788 L437 793 L441 793 L442 794 L446 794 L472 800 L484 801 L485 802 L496 803 L501 801 L504 796 L504 792 L505 791 L505 779 L499 758 L487 738 L476 728 L465 722 L452 719 L442 719 L441 720 L439 719 L424 723 L408 732 L394 747 L384 765 L382 774 L384 779 L387 782 L386 783 L373 779 L357 771 L354 772 L357 783 L365 797 L377 809 L393 820 L416 830 L424 831 L425 832 L431 832 L432 833 L438 833 L439 834 L449 834 L450 835 L476 835 L477 834 L483 834 L496 831 L508 824 L517 815 L525 804 L528 797 L530 795 L534 784 L538 778 L541 779 L554 779 L555 780 L575 781 L576 782 L592 784 L597 786 L601 785 L603 787 L603 790 L610 809 L618 825 L627 837 L636 845 L650 853 L662 857 L672 858 L673 859 L699 860 L700 859 L713 858 L731 852 L745 843 L758 830 L770 812 L769 808 L759 812 L747 814 L746 813 L747 811 L747 804 L743 792 L738 781 L728 767 L714 755 L704 750 L694 747 L681 747 L670 750 L660 755 L651 762 L643 771 L634 784 L629 794 L627 800 L627 813 L632 817 L647 818 L648 819 L686 821 L687 822 L718 822 L719 821 L733 820 L742 817 L751 816 L763 812 L766 812 L767 813 L760 824 L744 841 L737 846 L723 853 L720 853 L712 856 L695 857 L694 858 L668 856 L656 852 L653 852 L637 843 L624 830 L614 813 L606 789 L604 786 L604 768 L605 767 L605 759 L607 752 L606 744 L624 725 L635 717 L668 708 L684 707 L685 706 L706 708 L722 713 L733 718 L757 733 L774 746 L775 745 L767 726 L758 713 L740 696 L729 689 L715 683 L702 680 L674 681 L657 686 L608 711 L591 715 L581 715 L580 714 L571 714 L570 713 L556 711 L536 703 L519 691 L498 672 L480 662 L461 657 L439 656 L438 657 L430 657 L429 658 L424 658 L416 660 L394 669 L379 679 L360 694 Z M485 632 L486 631 L487 632 L486 633 Z M482 631 L483 630 L485 631 L484 632 Z M278 630 L282 641 L282 646 L285 659 L287 684 L288 685 L288 696 L290 703 L289 704 L276 704 L275 703 L276 682 L277 681 L277 631 Z M480 630 L481 629 L483 630 L482 631 Z M411 620 L412 619 L427 618 L428 617 L448 618 L449 619 L463 621 L481 629 L478 630 L466 625 L453 622 L447 622 L446 621 L436 621 L435 620 L412 621 Z M386 633 L388 635 L393 630 L398 627 L413 623 L442 623 L443 624 L449 624 L450 625 L464 627 L486 635 L502 643 L543 674 L560 683 L573 687 L589 688 L590 687 L598 687 L599 686 L607 685 L627 678 L649 667 L651 667 L673 657 L690 653 L698 653 L699 652 L714 653 L734 659 L746 666 L761 680 L763 680 L763 678 L752 667 L734 656 L713 650 L690 650 L689 651 L680 652 L665 657 L629 674 L611 681 L599 684 L581 685 L580 684 L574 684 L563 681 L547 673 L535 665 L516 649 L496 635 L474 623 L460 618 L452 617 L451 616 L445 616 L444 615 L419 615 L418 616 L414 616 L398 622 Z M472 589 L473 588 L474 589 L473 590 Z M469 588 L470 587 L472 588 L471 589 Z M280 587 L282 588 L284 592 L289 608 L289 612 L293 628 L293 633 L294 634 L294 640 L295 641 L296 659 L297 660 L297 675 L298 676 L298 748 L297 749 L297 758 L296 759 L296 767 L295 768 L295 780 L294 781 L293 802 L292 803 L291 824 L290 825 L290 837 L289 838 L289 848 L288 849 L287 881 L286 882 L286 895 L285 896 L285 932 L284 933 L285 1027 L286 1028 L286 1044 L287 1045 L287 1055 L288 1056 L288 1069 L287 1070 L285 1087 L281 1098 L270 1095 L250 1092 L248 1090 L254 1084 L257 1078 L260 1066 L260 1061 L261 1060 L261 1049 L262 1048 L264 1017 L265 1016 L265 1007 L266 1006 L266 994 L267 993 L267 981 L268 980 L270 937 L271 936 L271 920 L272 919 L272 903 L273 902 L275 860 L276 859 L276 842 L277 841 L277 768 L276 767 L275 726 L274 725 L274 718 L272 711 L273 710 L274 711 L287 711 L290 712 L293 709 L291 682 L290 681 L290 674 L289 673 L286 648 L281 628 L276 620 L275 622 L275 632 L274 633 L274 647 L273 648 L273 653 L274 654 L274 690 L272 697 L272 703 L271 704 L267 704 L266 703 L267 685 L268 684 L268 669 L269 668 L269 650 L270 649 L271 622 L272 621 L272 615 L273 614 L273 608 L274 607 L277 590 Z M466 587 L467 586 L469 587 L468 588 Z M400 584 L401 583 L404 584 L403 585 Z M404 583 L408 581 L420 580 L421 579 L437 579 L438 580 L446 580 L447 581 L456 582 L466 586 L462 587 L461 586 L456 586 L443 583 L413 583 L412 584 L405 584 Z M382 593 L382 595 L384 595 L389 591 L396 588 L406 587 L407 586 L414 586 L415 585 L442 585 L443 586 L460 588 L472 592 L475 592 L478 594 L481 594 L503 604 L531 623 L551 634 L565 639 L578 642 L586 642 L587 643 L616 642 L617 641 L633 639 L646 635 L651 635 L688 625 L703 624 L704 623 L716 623 L717 624 L730 625 L746 630 L760 638 L772 648 L773 650 L776 651 L774 647 L765 638 L758 633 L735 623 L727 622 L726 621 L718 621 L717 620 L702 620 L701 621 L687 622 L643 634 L639 634 L623 638 L617 638 L616 639 L586 640 L585 639 L573 638 L559 634 L545 628 L507 603 L476 587 L463 582 L446 578 L439 578 L438 577 L412 578 L396 583 L390 586 Z M383 549 L385 551 L398 546 L413 544 L414 543 L425 543 L426 542 L460 543 L461 544 L467 544 L468 545 L485 548 L499 553 L519 563 L545 580 L564 595 L574 600 L589 604 L596 604 L597 605 L629 605 L630 604 L639 604 L640 603 L652 602 L658 600 L663 600 L664 599 L680 597 L681 596 L687 596 L688 595 L695 595 L696 594 L736 593 L737 594 L748 595 L760 599 L772 605 L783 614 L785 613 L782 609 L774 603 L760 596 L747 592 L735 591 L734 590 L708 590 L707 591 L689 592 L688 593 L682 593 L681 594 L676 594 L675 595 L670 595 L669 596 L664 596 L663 597 L658 597 L657 598 L640 600 L639 601 L631 601 L630 602 L597 602 L596 601 L584 600 L568 594 L537 571 L516 558 L494 548 L466 541 L448 540 L447 539 L415 540 L414 541 L394 544 Z M684 234 L684 236 L689 238 L703 248 L732 276 L754 303 L770 328 L772 328 L770 323 L757 303 L737 278 L704 246 L693 238 Z M707 214 L723 220 L739 233 L756 250 L774 271 L783 283 L788 292 L793 311 L793 331 L787 342 L763 365 L763 367 L780 396 L822 457 L832 476 L840 496 L844 512 L846 516 L847 524 L850 534 L850 539 L851 540 L852 559 L853 560 L853 602 L852 603 L852 613 L851 614 L851 622 L850 623 L848 643 L846 649 L846 654 L845 655 L842 674 L838 681 L838 683 L834 690 L826 710 L817 737 L812 757 L810 774 L809 775 L809 782 L808 783 L806 807 L805 808 L805 818 L803 823 L800 843 L799 844 L799 850 L796 863 L796 869 L795 870 L792 896 L791 897 L789 915 L788 916 L788 921 L785 934 L785 940 L783 946 L778 979 L777 980 L772 1009 L770 1014 L768 1028 L762 1049 L761 1057 L756 1072 L754 1083 L744 1114 L742 1117 L739 1128 L724 1158 L709 1182 L694 1201 L663 1231 L639 1248 L625 1255 L623 1257 L621 1257 L612 1262 L597 1267 L594 1269 L591 1269 L577 1274 L573 1274 L557 1278 L552 1278 L551 1279 L545 1279 L544 1280 L520 1281 L519 1282 L489 1282 L488 1281 L478 1281 L477 1280 L466 1279 L442 1272 L416 1260 L392 1245 L368 1226 L344 1202 L322 1174 L302 1140 L285 1100 L285 1095 L289 1083 L289 1077 L291 1069 L291 1057 L290 1056 L289 1035 L288 1034 L288 1011 L287 1010 L287 915 L288 914 L288 892 L289 891 L289 875 L290 874 L292 833 L293 832 L293 821 L294 820 L296 788 L297 787 L299 756 L300 755 L301 690 L300 689 L300 669 L299 668 L299 655 L298 654 L296 630 L295 629 L295 625 L289 599 L283 586 L284 585 L303 585 L305 584 L309 590 L315 612 L315 617 L316 618 L318 635 L319 636 L321 666 L322 667 L322 687 L321 689 L323 690 L324 668 L323 667 L323 649 L322 648 L322 641 L320 633 L320 626 L319 625 L319 620 L312 590 L305 580 L306 579 L307 565 L308 564 L310 550 L316 526 L318 522 L322 506 L324 503 L330 485 L338 468 L352 446 L367 428 L385 410 L402 396 L429 377 L470 354 L472 354 L491 344 L493 344 L498 341 L500 341 L505 338 L535 326 L562 317 L580 313 L587 304 L601 296 L624 289 L635 287 L658 279 L669 285 L691 302 L751 358 L751 356 L721 326 L699 306 L670 283 L658 277 L659 260 L660 259 L661 250 L667 234 L675 226 L683 222 L695 214 Z M828 195 L829 194 L830 196 L829 197 Z M706 156 L728 147 L736 147 L739 145 L743 145 L744 144 L755 145 L770 153 L786 167 L797 179 L810 197 L817 210 L822 225 L823 236 L824 237 L823 252 L819 260 L812 268 L790 289 L788 287 L790 286 L793 280 L796 269 L796 249 L791 231 L780 208 L772 196 L763 185 L748 171 L730 161 L724 159 L723 160 L724 162 L732 164 L748 174 L765 191 L780 213 L787 227 L789 235 L791 238 L793 246 L793 251 L794 252 L794 268 L793 269 L792 277 L788 287 L778 272 L762 253 L730 222 L721 216 L714 213 L705 212 L704 211 L699 211 L698 212 L696 211 L696 200 L697 199 L697 187 L698 186 L699 172 L702 161 Z M742 91 L751 87 L760 87 L761 88 L768 88 L769 89 L767 90 L768 91 L775 90 L776 91 L788 92 L805 96 L831 105 L847 113 L863 125 L864 135 L861 146 L851 164 L830 195 L829 194 L828 175 L825 165 L818 150 L810 137 L797 121 L785 109 L775 101 L760 92 L761 95 L778 106 L793 120 L807 137 L817 153 L825 173 L826 185 L827 186 L825 203 L820 211 L813 197 L797 175 L780 158 L771 151 L759 144 L749 141 L740 142 L731 145 L730 144 L729 120 L730 119 L731 109 L736 98 Z M812 94 L782 87 L762 85 L761 84 L747 85 L741 88 L735 94 L730 103 L727 113 L727 120 L726 121 L727 144 L714 150 L709 151 L705 153 L701 157 L697 167 L696 177 L695 178 L693 211 L690 214 L670 226 L664 233 L658 249 L658 253 L656 259 L655 276 L653 278 L603 292 L590 298 L577 311 L569 312 L565 314 L555 316 L543 321 L532 324 L497 338 L479 347 L477 347 L475 349 L473 349 L469 352 L461 355 L459 357 L443 365 L416 382 L397 396 L372 418 L349 445 L331 475 L331 477 L322 497 L314 522 L306 554 L302 581 L301 582 L283 582 L280 583 L276 586 L272 595 L270 612 L269 613 L269 621 L268 622 L268 632 L267 633 L267 651 L266 652 L266 668 L265 669 L265 680 L264 681 L264 694 L263 695 L263 703 L261 705 L261 708 L264 712 L263 716 L263 734 L262 735 L261 765 L260 766 L260 777 L259 778 L259 789 L258 790 L258 800 L257 801 L257 811 L256 812 L256 822 L255 823 L255 835 L254 836 L254 847 L253 848 L253 860 L252 861 L252 873 L251 874 L250 905 L249 906 L246 967 L245 968 L244 998 L243 999 L243 1014 L242 1015 L242 1030 L241 1031 L240 1064 L239 1065 L239 1089 L245 1094 L282 1101 L292 1126 L299 1139 L299 1141 L314 1167 L330 1190 L349 1212 L368 1230 L397 1252 L421 1266 L451 1278 L472 1283 L492 1284 L493 1285 L516 1285 L517 1284 L543 1283 L544 1282 L557 1281 L558 1280 L562 1280 L563 1279 L584 1275 L619 1262 L638 1252 L652 1243 L669 1230 L692 1208 L704 1194 L720 1171 L741 1131 L762 1131 L763 1130 L765 1131 L769 1126 L771 1111 L773 1105 L773 1100 L776 1089 L776 1084 L777 1083 L777 1079 L783 1053 L783 1048 L785 1042 L785 1037 L787 1031 L787 1026 L788 1025 L795 986 L797 981 L797 977 L801 961 L801 956 L803 950 L803 945 L805 940 L805 935 L807 930 L811 907 L814 898 L819 870 L828 834 L828 830 L832 817 L832 813 L838 791 L840 789 L840 780 L842 776 L851 739 L853 735 L859 711 L859 707 L861 702 L862 692 L863 691 L863 677 L860 673 L850 672 L846 670 L848 657 L849 656 L849 651 L850 650 L850 645 L851 644 L851 639 L852 638 L853 624 L854 623 L855 605 L856 604 L856 587 L857 586 L857 573 L856 572 L856 558 L855 557 L854 539 L853 538 L850 519 L846 507 L846 504 L838 482 L828 461 L816 442 L788 403 L766 367 L786 348 L795 335 L796 331 L796 311 L791 292 L816 268 L825 256 L827 249 L827 235 L826 234 L826 229 L824 221 L822 217 L822 213 L849 173 L864 147 L867 136 L866 125 L864 121 L856 114 L840 105 Z" fill="#eef3f4" fill-rule="evenodd"/>
</svg>
