<svg xmlns="http://www.w3.org/2000/svg" width="1122" height="1402" viewBox="0 0 1122 1402">
  <title>0380</title>
  <path d="M887 947 L888 946 L889 947 L888 948 Z M586 920 L587 919 L588 920 L587 921 Z M587 919 L588 918 L590 919 L589 920 Z M677 909 L678 908 L680 909 L679 910 Z M679 908 L680 907 L682 908 L681 909 Z M694 904 L695 903 L696 904 L695 905 Z M695 903 L696 902 L697 903 L696 904 Z M413 900 L415 899 L430 906 L479 935 L492 944 L504 950 L519 955 L533 956 L534 957 L551 957 L552 956 L558 956 L574 952 L577 950 L587 947 L598 941 L600 941 L640 921 L675 909 L678 910 L670 915 L664 921 L658 923 L650 928 L634 941 L611 963 L596 974 L583 981 L569 986 L565 986 L559 988 L537 989 L536 988 L527 988 L526 987 L520 987 L501 981 L486 972 L462 949 L454 939 L432 916 Z M411 899 L412 898 L414 899 L413 900 Z M410 898 L411 897 L412 898 L411 899 Z M408 897 L409 896 L411 897 L410 898 Z M405 895 L407 894 L409 896 L407 897 Z M392 878 L394 880 L404 884 L426 886 L449 893 L467 902 L485 915 L501 924 L506 928 L517 933 L528 936 L548 936 L560 933 L573 927 L584 920 L586 922 L589 922 L591 921 L591 919 L589 918 L610 907 L626 901 L638 898 L643 898 L650 896 L658 896 L659 895 L686 896 L691 894 L691 893 L680 893 L679 892 L654 892 L653 893 L640 894 L628 897 L606 905 L560 929 L545 933 L531 933 L516 929 L508 925 L470 900 L448 889 L427 883 L402 880 L393 877 Z M702 872 L710 878 L720 888 L727 899 L731 908 L737 934 L738 962 L739 963 L739 982 L740 983 L741 1000 L742 1001 L744 1015 L749 1028 L751 1027 L749 1024 L745 1003 L744 1002 L744 996 L743 995 L742 970 L741 969 L741 948 L740 947 L740 938 L739 937 L739 931 L738 930 L736 916 L732 904 L724 889 L712 877 L706 873 Z M697 864 L699 866 L714 871 L717 871 L733 878 L742 884 L755 898 L761 911 L763 919 L763 925 L764 926 L765 978 L766 979 L767 992 L771 1005 L776 1014 L777 1012 L775 1009 L775 1006 L772 999 L770 984 L769 983 L767 922 L762 904 L758 896 L746 883 L734 875 L716 868 L713 868 L701 864 Z M385 855 L378 855 L377 856 L367 857 L363 859 L357 860 L342 867 L336 871 L327 880 L322 888 L317 901 L317 905 L314 916 L313 970 L312 971 L310 989 L305 1005 L303 1008 L305 1009 L311 997 L315 982 L316 966 L317 965 L317 922 L318 921 L318 914 L319 913 L319 908 L321 900 L326 888 L330 882 L339 873 L345 869 L360 862 L381 857 Z M493 741 L494 743 L492 745 L490 743 Z M555 705 L569 712 L581 724 L588 737 L591 746 L592 747 L593 745 L597 749 L592 754 L594 754 L597 751 L603 749 L605 747 L610 747 L616 749 L615 747 L608 744 L604 744 L601 746 L596 744 L591 737 L591 735 L584 723 L573 712 L563 706 L557 704 Z M208 702 L209 703 L209 738 L210 739 L210 748 L209 749 L207 744 L206 733 L205 732 L206 710 Z M236 732 L238 732 L244 726 L257 717 L277 707 L298 701 L310 700 L311 699 L337 699 L338 700 L360 702 L380 707 L384 709 L387 709 L402 715 L425 722 L440 723 L441 724 L445 724 L446 722 L420 718 L395 710 L392 708 L389 708 L385 706 L365 701 L359 701 L358 700 L346 699 L345 698 L337 698 L336 697 L308 697 L307 698 L296 699 L284 702 L273 706 L248 720 Z M594 692 L595 691 L596 692 L595 693 Z M507 688 L508 687 L509 688 L508 689 Z M649 702 L650 703 L680 685 L701 676 L709 675 L710 674 L728 674 L729 675 L734 675 L753 681 L772 691 L790 703 L817 718 L846 729 L849 729 L857 732 L858 731 L856 729 L844 726 L812 712 L774 688 L759 680 L741 673 L727 671 L726 670 L705 671 L688 677 L673 685 Z M938 659 L938 674 L946 700 L946 722 L944 727 L944 731 L942 734 L942 737 L936 750 L932 763 L934 763 L941 745 L945 738 L949 721 L949 699 L942 679 L941 671 L940 670 L940 660 Z M463 692 L448 677 L440 671 L422 661 L402 655 L391 655 L390 654 L373 655 L372 656 L366 656 L341 662 L318 670 L315 672 L312 672 L273 685 L268 688 L261 690 L247 698 L233 710 L230 714 L232 714 L241 706 L253 698 L275 688 L296 681 L299 681 L347 664 L364 661 L365 660 L380 659 L381 658 L402 659 L420 664 L435 672 L461 692 Z M208 633 L209 634 L209 654 L208 655 L209 657 L209 696 L206 700 L203 712 L202 733 L203 734 L203 739 L205 747 L210 755 L213 811 L214 812 L214 822 L215 823 L216 843 L217 844 L217 851 L218 852 L218 861 L219 862 L219 869 L220 870 L220 876 L222 884 L221 886 L211 880 L200 867 L197 857 L196 839 L195 838 L195 816 L196 815 L196 807 L197 806 L197 801 L198 800 L198 795 L201 782 L201 768 L200 767 L200 762 L197 750 L197 738 L196 737 L196 670 L201 653 L202 642 Z M632 688 L632 694 L634 694 L666 672 L692 659 L703 656 L727 655 L728 656 L742 658 L754 662 L782 677 L825 706 L842 714 L845 714 L856 718 L857 716 L853 715 L838 707 L825 698 L803 676 L787 655 L774 642 L765 635 L746 625 L725 620 L710 620 L709 621 L698 622 L685 626 L669 634 L659 642 L646 657 L637 673 Z M473 659 L470 649 L464 638 L453 626 L443 619 L431 613 L419 609 L409 608 L408 607 L401 607 L400 606 L387 606 L386 607 L375 608 L356 616 L305 652 L281 666 L250 681 L272 674 L291 665 L322 655 L325 653 L334 651 L340 648 L347 647 L359 643 L376 641 L377 640 L384 640 L385 639 L389 640 L390 639 L406 640 L420 644 L436 652 L453 663 L469 678 L471 678 L473 672 Z M972 599 L977 603 L976 621 L975 622 L975 627 L974 628 L970 649 L964 666 L963 674 L961 679 L960 691 L959 692 L959 715 L953 735 L952 753 L951 754 L950 765 L940 801 L941 818 L946 830 L945 846 L935 876 L933 888 L929 901 L927 915 L924 924 L924 928 L921 936 L916 941 L912 943 L900 946 L889 947 L888 944 L894 932 L894 929 L902 906 L908 882 L911 862 L912 861 L912 856 L913 855 L914 841 L916 833 L916 825 L917 824 L917 816 L918 815 L921 774 L922 773 L922 763 L923 762 L923 751 L924 750 L924 743 L925 742 L925 733 L926 732 L928 707 L929 706 L929 700 L931 693 L933 672 L934 671 L939 638 L942 627 L945 601 L946 600 L957 600 L958 599 Z M250 556 L251 555 L252 556 L251 557 Z M251 554 L252 553 L253 554 L252 555 Z M252 553 L253 552 L254 553 L253 554 Z M253 551 L254 550 L255 552 L254 553 Z M618 613 L612 633 L612 639 L611 640 L611 666 L614 675 L615 675 L614 665 L613 664 L614 642 L615 641 L616 630 L621 614 L626 604 L635 591 L658 569 L674 559 L685 554 L697 550 L712 548 L713 547 L739 546 L740 547 L755 548 L773 553 L788 560 L799 567 L811 579 L819 593 L823 609 L824 626 L825 627 L825 643 L824 644 L825 665 L824 666 L811 650 L802 641 L798 635 L777 616 L765 608 L749 600 L725 594 L711 594 L710 595 L697 596 L677 602 L663 608 L649 618 L636 633 L628 645 L628 647 L630 646 L636 636 L653 619 L663 612 L677 605 L693 600 L697 600 L703 598 L710 598 L711 597 L723 597 L724 598 L740 600 L764 611 L780 622 L803 645 L822 669 L834 682 L851 695 L862 701 L863 700 L850 691 L828 671 L828 660 L827 659 L828 629 L827 628 L827 619 L826 618 L826 611 L825 610 L825 605 L822 593 L817 582 L813 576 L802 565 L788 556 L777 551 L757 545 L745 544 L744 543 L715 543 L686 550 L667 559 L651 570 L634 587 L626 598 Z M494 636 L493 635 L491 621 L482 598 L471 582 L459 570 L451 564 L434 554 L410 545 L402 544 L398 542 L393 542 L392 541 L384 541 L383 540 L360 541 L345 545 L329 553 L321 559 L307 574 L299 587 L299 589 L294 599 L288 620 L288 624 L283 645 L272 652 L268 653 L266 655 L264 655 L262 657 L246 665 L237 668 L236 670 L239 670 L256 664 L275 654 L296 639 L320 617 L336 604 L352 594 L367 587 L370 587 L374 585 L401 584 L402 585 L414 586 L438 593 L445 597 L461 610 L474 626 L482 640 L482 637 L470 616 L460 605 L444 593 L420 584 L410 583 L409 582 L387 581 L386 582 L378 582 L377 583 L376 580 L371 577 L369 577 L366 581 L367 582 L373 582 L374 583 L373 584 L357 588 L341 597 L313 619 L307 626 L288 642 L287 641 L288 634 L292 621 L295 605 L298 599 L299 594 L305 582 L310 575 L325 559 L335 552 L352 545 L360 544 L361 543 L367 543 L368 542 L383 542 L384 543 L395 544 L411 548 L415 550 L418 550 L428 555 L430 555 L448 565 L456 571 L472 587 L484 608 L490 629 L490 636 L491 637 L491 665 L494 653 Z M933 533 L934 534 L933 538 L932 537 Z M933 554 L932 553 L931 557 L926 565 L922 551 L915 538 L906 528 L899 524 L896 524 L897 526 L901 528 L909 536 L918 551 L923 566 L923 582 L919 591 L916 578 L910 565 L898 548 L891 541 L889 541 L912 574 L915 584 L916 595 L917 596 L918 614 L917 615 L917 630 L916 631 L916 643 L915 644 L913 677 L912 678 L912 685 L911 686 L911 693 L909 701 L906 729 L899 757 L894 766 L887 773 L883 775 L870 774 L852 763 L830 746 L822 742 L817 738 L799 730 L776 724 L757 723 L756 722 L742 722 L741 723 L720 724 L719 725 L713 725 L712 726 L697 728 L657 738 L637 739 L637 741 L660 740 L684 734 L688 734 L693 732 L697 732 L702 730 L718 728 L719 727 L726 727 L727 726 L737 726 L738 725 L768 726 L769 727 L785 729 L805 735 L827 747 L856 769 L870 777 L882 778 L889 775 L897 767 L902 757 L909 730 L912 706 L913 705 L914 690 L915 689 L915 680 L916 679 L917 661 L918 660 L918 649 L919 648 L919 637 L920 636 L920 623 L921 622 L920 596 L922 594 L926 584 L927 572 L929 569 L933 557 Z M210 513 L211 514 L211 519 L210 520 L210 565 L209 566 L209 626 L202 638 L201 634 L191 625 L189 620 L189 596 L190 595 L190 590 L193 578 L193 544 L194 543 L196 528 L200 519 L204 515 Z M843 592 L828 571 L807 549 L783 531 L761 520 L742 514 L738 514 L732 512 L724 512 L723 511 L696 512 L669 519 L646 530 L628 543 L615 556 L608 565 L596 586 L590 601 L585 621 L585 627 L584 628 L584 642 L583 643 L584 660 L590 681 L595 691 L594 692 L588 688 L588 689 L610 710 L618 716 L618 714 L605 702 L598 692 L592 679 L588 666 L587 655 L586 654 L586 635 L587 634 L588 620 L591 607 L595 595 L604 576 L615 560 L632 543 L640 537 L655 528 L671 521 L684 517 L699 515 L700 514 L728 514 L729 515 L734 515 L751 519 L766 525 L784 535 L802 548 L825 571 L842 594 L843 594 Z M346 496 L345 497 L324 500 L310 505 L298 511 L281 523 L264 540 L255 551 L254 550 L260 539 L271 525 L283 513 L295 504 L311 496 L329 490 Z M924 485 L929 488 L938 488 L939 487 L942 492 L946 504 L945 520 L943 523 L935 525 L933 527 L933 533 L932 534 L931 533 L930 522 L921 504 L920 492 Z M926 425 L934 426 L941 433 L943 438 L942 448 L945 453 L947 460 L947 469 L944 477 L939 483 L935 485 L928 484 L924 481 L924 475 L921 467 L921 464 L913 444 L916 432 Z M947 419 L952 422 L955 433 L952 449 L949 454 L945 446 L945 435 L940 427 Z M959 408 L963 416 L963 421 L961 425 L957 429 L953 420 L950 417 Z M867 398 L868 397 L869 399 L868 400 Z M229 384 L234 398 L245 418 L265 445 L292 469 L304 477 L327 489 L312 493 L293 502 L279 512 L269 522 L254 543 L240 573 L238 581 L240 580 L244 570 L256 554 L283 526 L298 515 L314 507 L332 501 L353 498 L366 503 L369 503 L387 509 L395 510 L421 517 L425 517 L450 528 L476 545 L496 566 L503 577 L511 594 L515 607 L517 623 L518 624 L519 645 L518 646 L517 661 L514 669 L514 672 L510 680 L503 690 L491 701 L474 712 L479 711 L506 692 L523 683 L526 680 L535 677 L545 676 L546 675 L561 676 L571 679 L583 686 L585 686 L581 682 L566 675 L559 673 L548 672 L547 673 L541 673 L533 675 L519 681 L509 688 L508 687 L516 673 L521 652 L521 627 L520 626 L519 614 L515 598 L509 583 L497 563 L480 545 L462 532 L442 522 L435 520 L434 519 L435 518 L463 521 L464 522 L479 522 L480 523 L520 523 L521 522 L536 522 L537 521 L548 521 L549 520 L558 520 L559 519 L583 517 L584 516 L601 514 L607 512 L612 512 L617 510 L621 510 L637 506 L665 496 L690 484 L715 469 L718 466 L724 463 L727 460 L730 459 L750 445 L768 436 L770 434 L780 445 L800 459 L811 463 L822 463 L830 459 L842 471 L857 480 L871 484 L872 483 L877 483 L885 478 L888 483 L898 491 L905 494 L912 494 L916 497 L920 509 L926 521 L926 524 L929 531 L930 540 L931 541 L930 547 L933 547 L935 540 L936 539 L937 540 L940 570 L941 571 L943 599 L941 605 L939 622 L938 623 L935 644 L933 650 L933 656 L931 662 L931 668 L930 669 L928 688 L927 689 L925 708 L924 709 L921 742 L920 743 L920 752 L919 753 L918 773 L917 774 L917 784 L916 785 L915 809 L913 817 L912 834 L911 835 L911 841 L909 848 L908 861 L907 862 L907 867 L906 868 L906 873 L903 883 L903 887 L900 896 L900 900 L893 921 L893 924 L885 946 L872 971 L863 985 L851 1001 L838 1015 L822 1026 L809 1029 L779 1030 L778 1031 L731 1032 L727 1031 L722 1026 L706 993 L695 961 L692 948 L693 919 L696 908 L704 897 L705 894 L705 884 L704 882 L681 868 L669 857 L659 844 L652 827 L652 822 L654 817 L654 809 L655 808 L655 798 L651 781 L648 774 L642 765 L628 752 L619 749 L631 758 L640 768 L647 780 L651 795 L651 812 L650 813 L649 821 L645 829 L638 836 L634 838 L631 837 L628 828 L622 822 L616 819 L611 819 L610 818 L604 818 L603 819 L595 820 L582 827 L567 839 L557 844 L545 847 L535 847 L522 843 L496 825 L481 819 L471 819 L463 823 L458 830 L456 838 L449 834 L445 830 L441 823 L438 814 L437 792 L438 791 L439 781 L443 772 L443 769 L449 759 L454 754 L466 747 L473 745 L475 743 L484 742 L493 751 L495 751 L495 746 L496 745 L495 741 L498 738 L505 726 L517 714 L531 706 L537 705 L539 703 L533 703 L527 705 L515 712 L504 722 L493 739 L481 739 L473 743 L467 743 L462 745 L453 752 L451 756 L444 763 L443 766 L440 769 L434 787 L434 811 L437 822 L441 828 L438 831 L432 841 L421 852 L403 863 L383 870 L377 878 L376 882 L376 900 L378 905 L380 920 L381 921 L381 929 L382 930 L381 951 L380 952 L377 969 L371 986 L361 1005 L354 1015 L345 1023 L341 1024 L328 1024 L327 1023 L332 1013 L334 1005 L334 1000 L335 999 L336 981 L337 980 L337 961 L338 960 L339 932 L340 931 L341 918 L342 917 L345 900 L353 882 L364 870 L375 863 L375 862 L373 862 L363 868 L352 879 L343 897 L343 900 L339 912 L338 924 L337 925 L333 991 L332 992 L331 1005 L325 1023 L324 1024 L312 1024 L311 1023 L281 1022 L274 1020 L268 1014 L259 999 L244 966 L231 920 L231 916 L227 900 L227 895 L226 894 L226 888 L225 887 L225 881 L223 873 L223 865 L222 864 L222 857 L221 856 L218 816 L217 815 L217 804 L216 803 L215 775 L214 774 L214 757 L213 756 L213 626 L212 625 L212 602 L213 601 L213 528 L214 527 L215 485 L216 484 L216 469 L217 468 L219 438 L220 437 L220 429 L221 428 L221 421 L222 420 L225 396 Z M598 364 L613 359 L621 371 L631 381 L638 386 L658 395 L666 396 L667 397 L678 397 L679 398 L672 403 L670 403 L642 417 L611 428 L607 427 L603 420 L602 389 L601 388 L601 381 L598 370 Z M853 349 L856 357 L872 379 L881 396 L885 401 L889 410 L886 414 L895 414 L901 416 L912 426 L914 430 L913 435 L910 440 L910 445 L918 464 L922 480 L921 485 L916 490 L906 491 L897 488 L890 481 L885 473 L885 470 L880 455 L880 451 L875 437 L870 427 L871 424 L872 425 L881 420 L881 419 L875 421 L870 425 L865 417 L865 413 L867 410 L869 409 L881 409 L882 410 L882 408 L880 407 L871 407 L870 408 L869 407 L869 402 L868 401 L869 394 L864 383 L858 375 L845 363 Z M759 347 L780 346 L792 349 L807 358 L820 374 L818 377 L812 378 L805 382 L801 386 L800 389 L805 399 L805 401 L808 405 L813 422 L818 432 L818 436 L821 445 L828 456 L826 458 L821 460 L813 460 L806 458 L795 452 L787 446 L773 432 L764 419 L737 365 L744 362 Z M228 353 L229 349 L234 341 L243 334 L244 332 L252 350 L270 378 L279 389 L302 412 L312 420 L334 434 L363 447 L382 453 L389 454 L393 456 L420 461 L421 462 L435 463 L436 464 L447 464 L448 465 L461 465 L462 466 L498 466 L499 465 L513 465 L514 464 L533 463 L534 462 L540 462 L541 461 L563 458 L598 449 L628 439 L650 429 L652 429 L688 411 L698 404 L701 404 L717 420 L732 430 L750 435 L759 434 L766 431 L768 431 L770 433 L763 436 L760 436 L748 442 L705 471 L673 489 L643 501 L640 501 L633 504 L621 507 L611 508 L610 509 L600 510 L588 513 L575 514 L574 515 L545 517 L544 518 L532 518 L531 519 L484 520 L483 519 L467 519 L466 518 L456 518 L455 517 L431 515 L430 514 L425 514 L424 513 L405 510 L381 504 L340 491 L319 481 L317 481 L293 466 L275 451 L261 436 L242 409 L230 383 L229 373 L228 372 Z M662 331 L671 326 L683 322 L704 321 L705 322 L718 323 L731 327 L745 335 L755 346 L742 359 L738 361 L733 361 L733 365 L746 389 L746 391 L756 410 L757 414 L766 428 L756 431 L741 430 L730 425 L714 412 L705 402 L697 390 L694 381 L680 354 L669 338 Z M478 324 L481 322 L487 321 L501 332 L512 337 L526 341 L534 341 L547 337 L556 349 L566 357 L573 361 L575 361 L578 364 L581 388 L582 389 L583 417 L582 418 L582 427 L580 433 L575 438 L565 442 L557 443 L556 444 L550 444 L549 445 L531 447 L530 448 L523 448 L522 449 L511 449 L510 450 L469 450 L468 449 L462 449 L456 444 L455 441 L456 409 L457 408 L457 399 L458 398 L461 375 L470 339 L473 331 Z M870 316 L873 316 L885 329 L914 366 L925 383 L930 393 L932 401 L932 407 L933 408 L933 418 L930 422 L923 423 L916 428 L912 421 L907 416 L901 413 L894 412 L891 410 L887 399 L878 381 L858 353 L856 349 L856 344 L863 331 L866 322 Z M868 314 L869 312 L872 313 L869 315 Z M645 314 L643 313 L638 315 L637 318 L640 319 Z M596 309 L612 302 L620 300 L625 300 L626 299 L635 299 L636 300 L652 302 L665 308 L673 314 L678 319 L677 320 L668 323 L660 328 L655 325 L653 325 L653 326 L665 338 L671 346 L679 359 L694 389 L689 392 L681 393 L680 394 L665 393 L649 388 L633 378 L623 368 L615 356 L615 353 L613 350 L613 347 L604 323 Z M875 294 L880 301 L900 322 L912 337 L926 357 L934 372 L938 382 L941 394 L943 410 L944 411 L944 418 L941 420 L938 425 L932 422 L935 419 L936 415 L936 403 L931 386 L922 371 L902 344 L883 321 L871 310 L871 304 L873 296 Z M414 281 L417 284 L423 294 L432 301 L444 306 L447 306 L451 308 L458 308 L459 309 L457 317 L454 320 L446 346 L446 350 L442 366 L442 371 L441 372 L441 377 L440 378 L440 383 L439 384 L434 432 L431 440 L428 443 L425 444 L416 444 L415 443 L403 442 L398 440 L386 438 L365 431 L336 417 L330 412 L328 407 L339 373 L346 358 L348 351 L357 333 L369 314 L381 299 L389 291 L395 287 L397 284 L398 285 L407 284 Z M528 287 L533 283 L543 279 L549 279 L550 278 L581 278 L599 283 L611 290 L618 296 L615 298 L603 301 L597 305 L593 306 L593 310 L595 312 L603 329 L612 355 L605 359 L591 361 L590 360 L584 360 L577 358 L565 352 L551 338 L544 328 L531 301 Z M460 268 L467 264 L470 264 L478 261 L483 261 L484 260 L504 260 L505 261 L517 262 L527 265 L543 274 L545 276 L544 277 L536 278 L525 284 L524 287 L531 309 L540 327 L545 333 L543 335 L537 337 L524 337 L509 332 L498 325 L486 314 L473 298 L463 280 Z M366 262 L371 271 L379 279 L358 298 L338 326 L328 345 L328 347 L318 369 L311 390 L311 394 L309 396 L307 396 L285 372 L272 353 L271 345 L277 328 L279 326 L279 324 L285 312 L298 293 L313 277 L325 267 L334 261 L342 258 L348 262 L352 262 L353 263 L356 262 Z M409 247 L412 245 L425 241 L446 240 L467 245 L483 254 L486 257 L485 258 L478 258 L477 259 L468 260 L461 263 L456 267 L462 285 L473 302 L471 304 L456 305 L439 301 L431 296 L421 286 L416 278 L410 257 Z M434 236 L435 235 L436 236 L435 237 Z M866 231 L871 236 L885 243 L906 257 L931 282 L935 288 L943 305 L951 330 L954 346 L960 366 L960 390 L959 391 L957 405 L949 416 L947 417 L946 416 L945 393 L938 372 L929 355 L913 332 L896 312 L876 293 L874 288 L873 261 L871 255 L869 254 L869 259 L873 276 L873 285 L871 291 L871 296 L867 308 L867 311 L865 314 L860 329 L844 360 L842 362 L842 364 L844 366 L846 366 L853 373 L865 389 L868 397 L867 398 L853 385 L840 378 L838 378 L837 376 L839 373 L839 370 L837 371 L834 377 L830 378 L830 380 L836 380 L851 387 L858 392 L866 402 L866 407 L862 412 L862 417 L873 440 L880 461 L881 470 L882 471 L882 473 L873 481 L864 479 L848 471 L838 463 L829 453 L824 440 L820 433 L816 421 L816 418 L812 410 L809 400 L804 391 L804 389 L810 383 L816 380 L825 379 L825 377 L822 372 L828 366 L839 350 L849 332 L849 330 L857 313 L864 289 L866 273 L867 272 L867 244 L865 236 L865 232 Z M864 230 L865 229 L866 231 L865 232 Z M245 281 L249 274 L249 272 L260 255 L281 233 L302 219 L310 215 L313 216 L312 218 L313 219 L313 226 L315 234 L319 243 L325 249 L306 261 L287 279 L275 296 L271 305 L269 307 L262 323 L261 330 L259 334 L257 330 L252 325 L253 329 L259 338 L261 338 L263 335 L263 332 L266 326 L267 321 L276 302 L292 279 L308 264 L328 251 L330 252 L339 252 L342 256 L341 257 L330 261 L318 269 L294 293 L283 309 L278 320 L276 322 L268 344 L268 351 L276 365 L298 391 L309 400 L314 396 L316 385 L328 353 L340 329 L351 311 L381 280 L394 285 L385 291 L372 304 L355 329 L341 358 L325 404 L326 412 L334 419 L363 434 L384 441 L400 444 L405 446 L411 446 L412 447 L426 447 L432 444 L436 437 L438 429 L444 376 L445 375 L445 370 L446 369 L446 364 L447 363 L450 344 L455 328 L456 318 L463 308 L467 308 L475 305 L486 319 L477 322 L471 328 L466 341 L466 344 L464 347 L458 371 L456 387 L455 388 L455 394 L454 395 L454 402 L453 403 L451 439 L453 446 L459 451 L468 452 L469 453 L518 453 L519 452 L528 452 L529 451 L548 449 L572 443 L578 440 L583 434 L585 427 L585 417 L586 416 L585 390 L584 389 L584 383 L581 372 L581 366 L580 365 L581 363 L583 364 L596 363 L597 364 L596 365 L597 366 L596 372 L597 373 L598 389 L599 390 L600 422 L602 426 L605 429 L608 430 L614 430 L621 427 L624 427 L629 424 L634 423 L636 421 L641 420 L656 412 L658 412 L683 400 L684 396 L690 395 L695 392 L701 400 L665 419 L663 419 L645 428 L643 428 L636 432 L631 433 L623 437 L577 451 L573 451 L559 455 L542 457 L541 458 L517 460 L516 461 L504 461 L503 462 L455 462 L454 461 L443 461 L442 460 L426 459 L425 458 L414 457 L388 451 L353 439 L327 426 L304 409 L279 383 L258 353 L249 335 L247 327 L245 325 L245 317 L244 316 L244 311 L245 310 L245 305 L244 304 L244 285 Z M826 211 L831 213 L847 216 L852 218 L859 224 L863 241 L864 259 L863 260 L863 273 L862 274 L861 285 L854 310 L848 325 L835 349 L820 369 L815 361 L810 356 L800 349 L791 345 L783 343 L778 343 L773 341 L781 332 L794 313 L813 274 L823 242 L823 238 L825 232 L825 216 L823 212 Z M316 209 L321 206 L330 206 L331 205 L339 205 L345 203 L350 203 L357 206 L362 212 L360 214 L352 215 L348 217 L348 218 L358 217 L359 216 L372 216 L373 217 L377 217 L388 224 L374 228 L374 229 L380 229 L387 227 L409 227 L410 228 L418 229 L428 234 L431 237 L430 238 L425 238 L418 241 L415 241 L407 245 L406 247 L409 266 L411 270 L411 273 L414 278 L403 282 L395 282 L382 277 L375 271 L368 259 L368 231 L366 230 L366 238 L365 239 L365 257 L362 259 L357 259 L356 260 L348 258 L344 254 L341 246 L341 236 L344 227 L345 218 L343 218 L339 232 L339 238 L338 239 L338 247 L339 248 L335 250 L328 248 L321 241 L321 238 L317 228 L316 220 L315 219 Z M360 204 L361 203 L375 202 L376 203 L374 206 L374 212 L375 213 L374 214 L367 213 Z M754 198 L756 199 L765 199 L766 200 L779 201 L791 204 L802 208 L808 214 L810 218 L810 233 L809 234 L807 247 L802 260 L793 241 L785 229 L767 210 L753 199 Z M737 197 L749 198 L751 201 L767 214 L776 223 L792 244 L798 256 L801 266 L803 266 L805 262 L813 233 L814 222 L811 214 L809 212 L810 211 L819 211 L822 216 L821 233 L817 250 L811 269 L808 274 L804 286 L787 317 L770 339 L769 342 L759 343 L754 338 L762 333 L768 327 L780 311 L796 281 L795 272 L786 251 L773 232 L750 208 L736 198 Z M437 198 L430 207 L426 215 L422 228 L408 224 L391 224 L385 217 L382 215 L379 215 L376 211 L376 208 L380 203 L388 200 L406 199 L407 198 L419 198 L420 197 L436 197 Z M735 197 L736 196 L737 197 L736 198 Z M568 196 L586 196 L587 197 L584 201 L584 220 L585 221 L588 269 L590 274 L589 277 L581 275 L572 275 L571 274 L574 262 L574 243 L573 242 L572 212 L571 211 L570 202 L567 197 Z M522 196 L523 197 L520 200 L515 212 L511 233 L510 234 L510 241 L509 242 L509 256 L510 257 L509 258 L493 257 L492 256 L492 252 L494 249 L496 233 L504 207 L510 197 Z M508 197 L509 196 L510 197 L509 198 Z M591 197 L595 195 L640 195 L647 199 L656 208 L666 224 L667 228 L673 239 L683 272 L685 287 L686 288 L686 296 L687 297 L687 310 L683 319 L671 308 L655 300 L643 297 L637 297 L636 296 L625 296 L623 297 L614 288 L605 282 L596 279 L592 276 L591 273 L591 257 L590 256 L590 239 L589 238 L589 227 L588 226 L588 216 L587 215 L587 202 Z M566 196 L567 195 L568 196 L567 197 Z M450 195 L451 196 L447 200 L439 214 L435 227 L435 235 L434 236 L429 231 L424 228 L434 207 L439 200 L445 195 Z M649 195 L666 194 L667 195 L665 201 L675 214 L682 227 L682 229 L691 248 L696 263 L700 284 L701 285 L701 290 L702 291 L702 297 L703 298 L705 316 L706 317 L705 318 L687 318 L686 317 L688 314 L689 306 L690 305 L690 292 L689 291 L689 283 L688 282 L687 273 L680 251 L680 248 L678 245 L673 230 L668 222 L668 220 L658 205 L648 196 Z M530 195 L535 195 L536 194 L557 194 L562 196 L567 203 L568 215 L569 216 L569 227 L570 228 L570 247 L571 248 L571 269 L569 274 L549 275 L539 267 L526 261 L518 259 L513 259 L511 256 L514 229 L519 213 L519 210 L524 200 Z M459 194 L495 195 L496 196 L501 196 L505 199 L501 206 L497 217 L492 238 L491 255 L490 256 L483 250 L471 243 L459 239 L448 238 L447 237 L439 237 L438 236 L438 229 L442 219 L442 216 L449 203 Z M669 196 L676 194 L685 194 L686 193 L722 194 L734 200 L748 210 L766 227 L778 243 L789 263 L793 275 L793 281 L791 283 L780 306 L765 325 L756 334 L752 336 L749 333 L736 325 L715 319 L710 319 L708 317 L705 287 L701 274 L701 270 L697 260 L697 257 L688 233 L681 219 L668 200 Z M913 258 L892 243 L878 236 L876 234 L871 233 L867 226 L861 219 L850 213 L826 207 L807 207 L798 202 L779 197 L774 197 L767 195 L759 195 L758 194 L738 194 L733 192 L723 191 L722 190 L714 190 L713 189 L679 189 L678 190 L664 190 L656 192 L635 191 L634 190 L595 191 L594 192 L564 192 L558 190 L532 190 L519 193 L507 193 L506 192 L487 191 L486 190 L453 190 L452 191 L444 191 L443 192 L430 192 L429 193 L394 195 L393 196 L387 196 L386 197 L380 197 L379 198 L366 199 L365 200 L358 200 L357 201 L355 200 L339 200 L338 201 L319 203 L314 205 L311 209 L310 213 L299 217 L284 226 L274 234 L263 245 L246 270 L242 278 L240 286 L240 310 L241 311 L243 327 L241 331 L230 340 L226 347 L224 354 L224 370 L227 381 L222 394 L220 408 L219 409 L216 441 L215 442 L215 451 L214 452 L214 461 L213 462 L211 509 L203 512 L197 518 L193 526 L191 534 L190 549 L189 550 L190 575 L189 576 L189 581 L188 582 L188 586 L186 591 L186 598 L185 599 L185 617 L188 627 L194 633 L199 636 L199 645 L193 667 L193 675 L192 676 L193 747 L194 748 L194 753 L198 769 L197 787 L196 788 L195 798 L192 810 L192 846 L193 847 L194 859 L196 866 L202 876 L208 882 L223 892 L224 904 L231 931 L231 935 L233 939 L234 946 L241 968 L257 1003 L268 1020 L274 1024 L282 1025 L283 1026 L326 1027 L327 1028 L331 1028 L332 1027 L346 1026 L350 1024 L357 1017 L367 1002 L374 988 L383 960 L383 955 L385 948 L385 925 L384 924 L384 917 L379 897 L379 883 L382 874 L385 872 L388 872 L400 868 L420 857 L431 848 L436 842 L440 833 L442 831 L451 839 L460 841 L460 836 L467 830 L475 828 L485 828 L498 832 L523 847 L534 850 L549 850 L565 844 L584 831 L597 827 L611 827 L623 831 L628 835 L629 837 L628 840 L629 841 L635 841 L639 839 L650 829 L658 849 L666 859 L678 870 L702 885 L701 896 L695 900 L667 906 L643 914 L578 945 L556 951 L527 951 L526 950 L517 949 L504 944 L483 933 L478 929 L468 924 L436 904 L422 897 L402 889 L402 891 L406 894 L404 895 L384 881 L390 888 L409 901 L426 915 L478 970 L492 980 L502 985 L514 989 L518 989 L524 991 L532 991 L533 992 L552 992 L553 991 L560 991 L561 990 L570 989 L587 983 L608 970 L644 937 L661 924 L694 904 L695 906 L690 918 L689 928 L688 929 L688 949 L689 950 L689 954 L700 988 L706 1003 L711 1012 L711 1014 L720 1029 L725 1033 L731 1035 L765 1035 L766 1034 L806 1033 L807 1032 L818 1031 L828 1027 L840 1018 L847 1011 L863 991 L873 976 L887 950 L897 950 L898 949 L906 948 L915 945 L921 941 L927 930 L932 902 L934 898 L939 875 L945 859 L945 856 L949 844 L950 833 L949 832 L949 827 L944 814 L944 800 L955 758 L956 738 L963 713 L963 687 L964 686 L968 665 L970 661 L970 658 L973 651 L977 635 L977 630 L979 624 L980 604 L979 600 L976 597 L971 595 L959 595 L958 596 L951 596 L950 597 L946 596 L945 568 L944 567 L940 540 L937 529 L940 527 L945 526 L948 523 L949 520 L950 506 L945 491 L945 482 L950 471 L950 458 L952 456 L956 447 L957 435 L964 427 L966 420 L964 409 L960 404 L963 394 L964 369 L953 323 L950 316 L949 310 L941 293 L941 291 L926 270 Z" fill="#eef3f4" fill-rule="evenodd"/>
</svg>
