<svg xmlns="http://www.w3.org/2000/svg" width="1122" height="1402" viewBox="0 0 1122 1402">
  <title>0381</title>
  <path d="M509 1114 L510 1115 L521 1105 L534 1099 L538 1099 L539 1098 L558 1098 L568 1101 L576 1105 L589 1115 L587 1111 L582 1106 L573 1100 L562 1096 L552 1095 L551 1094 L537 1095 L528 1098 L518 1104 Z M411 1090 L412 1089 L413 1090 L412 1091 Z M410 1089 L411 1088 L412 1089 L411 1090 Z M637 998 L638 997 L639 999 L638 1000 Z M466 990 L467 989 L475 997 L492 1025 L508 1041 L525 1051 L537 1055 L547 1056 L548 1057 L575 1056 L588 1052 L596 1048 L608 1039 L616 1030 L623 1020 L630 1007 L637 999 L638 1003 L633 1019 L625 1036 L618 1046 L604 1059 L593 1065 L579 1069 L548 1070 L547 1069 L539 1069 L526 1066 L512 1059 L503 1052 L496 1045 L485 1030 Z M465 989 L466 988 L467 989 L466 990 Z M464 988 L465 987 L466 988 L465 989 Z M644 979 L645 978 L646 979 L645 980 Z M454 977 L456 973 L459 974 L463 978 L472 983 L492 999 L509 1008 L515 1009 L519 1011 L537 1013 L538 1014 L539 1013 L540 1014 L547 1014 L552 1016 L561 1013 L588 1012 L600 1009 L620 998 L641 980 L644 979 L645 981 L627 1006 L617 1024 L602 1040 L593 1046 L578 1052 L568 1053 L567 1054 L550 1054 L549 1053 L538 1052 L524 1047 L508 1037 L495 1024 L484 1007 L481 1000 L475 992 L465 983 L461 984 L458 981 L455 980 Z M451 981 L455 983 L463 991 L483 1032 L492 1045 L504 1057 L521 1067 L533 1071 L549 1072 L550 1073 L570 1073 L571 1072 L585 1071 L594 1068 L608 1060 L617 1052 L624 1043 L631 1031 L640 1006 L640 1002 L642 997 L641 995 L645 986 L654 973 L646 974 L640 977 L617 996 L597 1007 L589 1009 L582 1009 L581 1008 L588 1004 L590 1002 L589 1001 L576 1007 L563 1010 L556 1010 L555 1011 L543 1011 L542 1010 L518 1007 L508 1004 L498 999 L486 991 L466 975 L459 971 L461 969 L469 969 L483 975 L500 987 L508 991 L513 991 L513 990 L504 986 L482 971 L470 966 L458 966 L452 972 Z M661 969 L658 966 L653 964 L640 965 L629 970 L610 983 L594 991 L580 991 L579 992 L573 991 L570 992 L564 990 L552 981 L543 989 L547 988 L549 986 L552 987 L554 986 L559 990 L567 994 L594 994 L611 986 L637 969 L643 967 L654 967 L659 970 L661 970 Z M401 939 L396 948 L394 956 L394 963 L393 964 L393 982 L394 983 L395 997 L403 1025 L411 1040 L420 1051 L419 1047 L412 1037 L406 1025 L398 997 L397 982 L396 981 L396 957 L399 946 L402 941 L402 939 Z M465 923 L466 922 L467 924 L466 925 Z M598 887 L587 897 L585 901 L581 917 L581 926 L582 926 L582 918 L585 908 L591 898 L596 893 L602 890 L609 890 L618 894 L627 904 L630 910 L632 918 L632 928 L629 939 L625 946 L619 952 L612 956 L609 954 L605 954 L604 953 L593 954 L585 958 L576 967 L570 971 L556 975 L547 975 L535 972 L525 966 L516 956 L507 958 L514 960 L528 972 L536 976 L545 977 L546 978 L563 977 L576 971 L585 962 L595 956 L608 955 L610 957 L614 957 L620 954 L628 946 L633 935 L634 925 L635 924 L637 931 L643 943 L665 971 L669 981 L670 990 L671 991 L671 1013 L670 1014 L668 1030 L663 1046 L663 1049 L654 1076 L651 1082 L651 1084 L652 1084 L662 1061 L672 1025 L673 1013 L674 1012 L674 989 L673 988 L672 980 L665 965 L652 950 L645 940 L640 930 L634 910 L629 900 L624 894 L615 888 L609 886 Z M494 883 L488 884 L482 887 L474 895 L470 901 L466 911 L466 915 L460 930 L451 946 L440 960 L435 970 L432 982 L432 1003 L433 1004 L434 1017 L437 1027 L437 1031 L446 1059 L457 1084 L459 1084 L450 1063 L438 1021 L437 1009 L436 1008 L436 1000 L435 999 L435 983 L440 966 L458 941 L465 925 L467 927 L467 930 L472 942 L482 952 L494 958 L499 958 L500 959 L502 958 L492 955 L483 950 L474 940 L471 934 L469 926 L469 914 L475 899 L482 891 L489 887 L499 888 L506 894 L512 905 L515 915 L515 925 L517 926 L516 908 L510 893 L504 887 Z M505 842 L507 842 L518 836 L533 832 L558 831 L559 832 L567 832 L580 835 L588 838 L596 843 L598 843 L595 840 L578 832 L572 830 L560 829 L559 828 L542 828 L541 829 L534 829 L533 830 L525 831 L508 839 Z M688 807 L689 806 L691 807 L690 808 Z M502 805 L503 804 L504 805 L503 806 Z M501 804 L502 803 L503 804 L502 805 Z M499 803 L500 802 L501 803 L500 804 Z M498 802 L499 801 L500 802 L499 803 Z M742 797 L748 795 L758 795 L768 800 L772 805 L770 806 L759 800 L743 798 Z M360 794 L361 793 L362 794 L361 795 Z M674 793 L676 792 L692 802 L701 806 L700 807 L691 807 L687 802 Z M362 793 L363 792 L365 793 L364 794 Z M758 792 L747 792 L727 798 L721 801 L720 803 L724 803 L725 802 L732 803 L739 801 L751 801 L759 803 L770 809 L776 815 L782 827 L783 836 L784 837 L783 858 L777 875 L766 892 L748 909 L715 931 L709 937 L702 948 L699 946 L699 948 L703 953 L707 966 L707 971 L708 972 L707 1007 L706 1008 L703 1025 L695 1045 L685 1061 L689 1058 L699 1042 L706 1024 L710 1007 L710 1000 L711 999 L711 973 L710 972 L709 962 L703 948 L718 932 L746 914 L764 899 L774 886 L785 862 L786 852 L787 851 L787 836 L784 824 L774 803 L767 796 Z M672 792 L673 791 L675 792 L674 793 Z M364 792 L365 791 L369 792 L368 793 Z M670 791 L671 790 L673 791 L672 792 Z M368 791 L369 790 L372 791 L371 792 Z M668 790 L669 789 L671 790 L670 791 Z M665 789 L666 788 L668 789 L667 790 Z M662 788 L663 787 L665 788 L664 789 Z M364 788 L358 791 L352 797 L344 811 L339 831 L339 846 L340 847 L342 864 L347 880 L352 890 L360 902 L374 917 L379 924 L383 932 L384 938 L386 942 L386 936 L383 927 L378 918 L364 902 L354 887 L348 874 L342 854 L341 834 L342 833 L343 823 L350 806 L357 799 L364 796 L374 795 L375 794 L389 796 L385 792 L378 789 Z M591 812 L595 820 L605 830 L615 837 L635 845 L639 845 L640 846 L657 846 L658 845 L667 844 L681 838 L690 832 L699 823 L697 823 L691 829 L677 838 L660 843 L639 843 L625 839 L613 833 L597 819 L602 816 L611 813 L625 811 L626 810 L646 810 L659 813 L662 815 L670 817 L680 812 L710 807 L712 806 L712 804 L707 805 L698 802 L677 789 L664 784 L646 783 L634 786 L620 794 L596 817 L591 810 Z M441 781 L418 794 L414 799 L408 797 L434 781 L437 780 Z M440 780 L441 779 L444 780 L443 781 Z M711 779 L712 778 L713 779 L712 780 Z M444 779 L445 778 L451 778 L452 779 L451 780 L445 780 Z M320 778 L321 777 L322 778 L321 779 Z M321 777 L322 776 L323 777 L322 778 Z M399 796 L399 798 L412 801 L428 806 L439 806 L454 802 L470 801 L471 802 L484 803 L506 810 L502 816 L494 824 L486 830 L472 837 L464 839 L459 839 L458 840 L445 840 L429 836 L416 828 L403 814 L403 816 L406 821 L417 832 L432 840 L440 842 L445 842 L446 843 L465 842 L475 839 L485 834 L501 821 L507 813 L511 804 L511 799 L510 802 L507 804 L478 783 L465 777 L455 776 L454 775 L441 776 L434 778 L424 783 L410 793 L403 796 Z M363 775 L364 774 L366 775 L365 776 Z M361 774 L362 773 L364 774 L363 775 Z M359 773 L360 772 L362 773 L361 774 Z M590 802 L591 803 L597 791 L605 780 L620 765 L627 760 L637 755 L649 752 L668 753 L682 758 L696 767 L713 784 L715 784 L712 780 L713 779 L725 780 L726 779 L733 779 L737 777 L715 777 L714 776 L710 776 L701 767 L690 759 L678 753 L669 750 L662 750 L661 749 L644 750 L628 756 L614 766 L602 779 L595 790 Z M507 782 L502 772 L489 756 L475 746 L457 740 L443 740 L442 741 L434 742 L424 746 L411 755 L398 768 L393 770 L393 771 L396 772 L393 777 L388 776 L386 774 L373 774 L364 771 L356 763 L351 751 L350 751 L350 755 L353 763 L360 772 L357 773 L359 776 L370 780 L392 779 L393 780 L392 784 L393 784 L399 771 L410 758 L418 752 L428 747 L438 744 L456 743 L470 747 L483 755 L494 765 L505 781 Z M843 717 L846 721 L846 746 L845 747 L844 761 L838 778 L833 783 L830 784 L825 782 L821 778 L817 771 L814 758 L815 742 L818 734 L820 733 L822 738 L822 742 L826 750 L828 751 L833 746 L836 737 L836 719 L839 717 Z M830 713 L833 718 L833 739 L830 746 L828 748 L824 738 L824 729 L828 716 Z M825 702 L828 705 L828 710 L824 719 L824 722 L821 730 L817 732 L813 739 L812 748 L811 749 L812 764 L817 778 L817 786 L818 787 L820 809 L821 810 L821 825 L820 826 L820 837 L819 838 L821 839 L822 835 L823 813 L824 812 L823 809 L823 798 L822 797 L820 783 L821 782 L825 786 L829 787 L834 786 L837 784 L844 773 L847 761 L847 755 L849 753 L853 754 L856 758 L856 765 L855 766 L855 782 L854 783 L854 797 L853 798 L853 817 L852 818 L852 835 L851 836 L850 873 L843 881 L825 892 L819 894 L808 895 L807 894 L807 881 L806 880 L804 827 L803 826 L803 809 L802 808 L802 791 L801 790 L801 759 L802 758 L802 748 L803 747 L804 735 L810 714 L814 706 L817 703 Z M603 734 L604 735 L615 723 L625 716 L640 709 L660 704 L685 704 L686 705 L694 706 L707 711 L716 717 L727 727 L728 726 L718 715 L709 709 L700 705 L683 701 L661 701 L640 706 L623 714 L617 718 L606 729 Z M381 722 L382 723 L391 715 L409 705 L420 702 L436 701 L437 702 L450 703 L460 706 L478 716 L494 729 L490 723 L476 711 L460 703 L444 699 L422 699 L407 703 L392 711 Z M315 686 L319 693 L319 699 L315 707 L313 702 L313 688 Z M346 706 L346 716 L352 738 L356 745 L366 755 L376 759 L381 759 L388 756 L412 739 L420 735 L433 731 L450 731 L462 734 L475 740 L487 748 L504 762 L516 767 L521 767 L527 764 L532 756 L534 758 L535 762 L540 768 L544 770 L553 770 L557 768 L561 764 L565 756 L572 767 L576 769 L585 769 L592 766 L614 749 L624 743 L638 737 L646 735 L651 735 L652 734 L670 734 L671 735 L680 736 L695 742 L714 756 L724 761 L737 762 L743 760 L751 755 L757 749 L765 734 L765 731 L764 731 L759 742 L749 753 L740 758 L730 759 L729 758 L725 758 L717 754 L707 746 L690 736 L672 731 L650 731 L634 735 L619 742 L588 765 L585 766 L577 766 L575 765 L570 760 L568 755 L568 740 L570 733 L575 723 L581 715 L592 706 L605 700 L618 697 L618 696 L613 696 L600 700 L592 704 L578 716 L569 730 L560 761 L555 766 L549 768 L542 766 L538 762 L536 758 L531 731 L528 723 L520 709 L510 698 L489 685 L487 685 L487 686 L504 696 L518 709 L523 717 L523 719 L528 729 L529 737 L530 738 L530 752 L528 758 L524 762 L520 764 L511 762 L502 757 L478 738 L465 732 L450 728 L434 728 L419 732 L409 737 L389 752 L380 756 L372 755 L366 752 L358 744 L355 739 L351 729 L347 712 L347 707 Z M783 624 L782 624 L782 629 L781 630 L781 638 L780 639 L778 655 L766 700 L766 705 L767 705 L770 691 L772 687 L772 684 L775 677 L775 674 L780 658 L780 653 L782 646 L782 637 L783 636 Z M665 576 L660 594 L653 608 L653 610 L639 631 L626 644 L611 655 L592 665 L577 670 L574 672 L578 672 L593 667 L608 660 L618 654 L636 639 L652 618 L659 604 L665 585 L665 581 L666 580 Z M436 568 L436 576 L437 577 L438 587 L444 605 L453 622 L463 635 L474 646 L491 658 L514 669 L529 673 L528 671 L510 665 L494 657 L481 648 L465 633 L454 618 L446 602 L438 576 L438 571 L437 568 Z M298 566 L309 578 L310 583 L317 588 L324 588 L329 590 L324 599 L323 607 L321 610 L314 605 L306 596 L305 588 L298 574 L297 570 Z M359 572 L362 572 L374 568 L395 565 L396 564 L402 564 L403 563 L428 561 L429 560 L440 560 L441 559 L452 559 L453 558 L465 558 L466 557 L474 557 L475 556 L477 558 L477 560 L482 570 L488 578 L496 586 L504 592 L511 596 L529 602 L550 603 L551 602 L558 602 L566 600 L586 590 L599 578 L608 563 L611 562 L618 564 L650 567 L651 568 L659 568 L660 569 L672 569 L673 570 L681 570 L682 571 L692 571 L693 572 L703 572 L704 573 L713 573 L714 574 L750 577 L764 581 L774 586 L781 591 L791 603 L795 616 L796 635 L797 636 L795 677 L780 720 L776 739 L771 755 L765 766 L753 777 L741 782 L714 786 L714 787 L717 790 L720 796 L720 792 L719 791 L720 789 L726 789 L747 784 L756 779 L764 772 L769 765 L769 763 L771 761 L775 751 L782 723 L793 693 L795 683 L797 680 L805 685 L810 690 L813 697 L813 703 L807 713 L803 725 L800 738 L799 754 L798 755 L798 788 L799 789 L799 801 L800 802 L800 814 L801 815 L801 832 L802 833 L802 849 L803 850 L803 872 L804 873 L804 885 L805 886 L805 897 L806 898 L805 901 L806 902 L806 917 L807 918 L807 932 L805 939 L790 956 L783 969 L764 1024 L749 1052 L737 1068 L723 1082 L713 1090 L703 1096 L702 1094 L706 1090 L720 1067 L720 1065 L728 1048 L734 1030 L739 1010 L739 1005 L742 993 L742 986 L743 985 L743 959 L742 959 L742 970 L741 971 L740 988 L739 989 L734 1018 L724 1050 L712 1077 L700 1096 L695 1101 L685 1103 L680 1106 L663 1122 L641 1139 L634 1141 L621 1142 L604 1149 L596 1149 L593 1151 L585 1153 L577 1153 L564 1150 L545 1150 L537 1152 L526 1152 L521 1150 L500 1151 L489 1146 L481 1146 L472 1143 L465 1139 L452 1128 L445 1117 L440 1113 L440 1110 L438 1112 L436 1112 L431 1109 L417 1094 L412 1091 L413 1089 L401 1069 L383 1029 L373 997 L373 993 L365 961 L364 945 L362 944 L362 953 L363 954 L363 961 L365 967 L365 973 L366 974 L366 978 L367 979 L367 983 L373 1009 L385 1042 L397 1066 L411 1088 L410 1089 L403 1084 L383 1064 L373 1050 L365 1035 L354 1007 L338 943 L333 932 L327 924 L326 920 L326 910 L325 909 L326 893 L324 886 L326 882 L327 871 L328 870 L330 854 L331 853 L332 840 L333 839 L336 806 L337 805 L337 797 L338 796 L338 787 L339 786 L339 777 L340 776 L340 767 L339 768 L337 785 L336 786 L336 794 L335 795 L335 802 L334 803 L334 810 L333 811 L333 818 L332 819 L332 827 L331 828 L330 841 L329 842 L327 861 L326 862 L325 874 L324 875 L324 884 L323 885 L321 884 L292 885 L288 878 L292 827 L293 826 L293 819 L295 812 L296 792 L297 791 L298 766 L299 765 L299 758 L300 757 L301 748 L302 747 L303 748 L303 753 L309 773 L312 777 L320 778 L321 779 L311 794 L309 793 L309 825 L308 826 L308 842 L309 843 L310 842 L310 827 L311 826 L311 819 L312 818 L312 811 L313 810 L314 800 L316 794 L331 765 L335 748 L338 746 L337 734 L338 733 L338 721 L339 720 L339 708 L340 707 L341 680 L340 679 L340 673 L338 666 L335 641 L334 641 L334 650 L335 651 L336 668 L338 675 L338 696 L337 697 L336 719 L334 725 L324 719 L319 713 L318 709 L322 698 L322 693 L318 685 L312 680 L310 687 L310 698 L312 706 L314 709 L312 721 L314 720 L314 717 L317 713 L318 716 L324 722 L331 726 L326 731 L323 732 L323 733 L326 734 L332 729 L334 730 L333 745 L330 757 L324 770 L319 775 L315 775 L311 770 L307 759 L307 755 L304 746 L303 734 L302 733 L300 674 L305 669 L312 666 L315 663 L316 654 L317 653 L317 645 L318 644 L319 619 L321 614 L324 621 L325 629 L328 636 L328 639 L329 639 L328 626 L325 616 L325 607 L331 593 L341 582 Z M848 552 L842 558 L839 558 L837 556 L842 552 L845 551 Z M816 506 L819 505 L840 514 L846 518 L851 523 L857 532 L859 538 L859 546 L857 548 L849 547 L840 550 L834 555 L833 553 L835 549 L835 535 L833 528 L827 517 Z M815 505 L816 504 L817 505 L816 506 Z M787 496 L809 502 L821 513 L826 520 L830 529 L831 537 L832 538 L832 546 L831 547 L830 555 L825 562 L820 573 L808 588 L794 602 L789 594 L781 587 L791 580 L796 575 L803 565 L808 553 L808 549 L810 543 L810 532 L809 531 L809 525 L803 511 L793 501 L786 497 Z M700 484 L749 489 L750 490 L756 490 L768 493 L784 495 L796 507 L804 520 L806 528 L806 533 L807 534 L806 548 L803 558 L793 574 L783 584 L780 586 L770 580 L755 575 L768 563 L773 554 L777 539 L777 528 L774 517 L768 507 L759 498 L748 491 L746 491 L763 505 L767 510 L772 520 L774 528 L774 541 L771 552 L764 564 L752 575 L751 574 L739 573 L738 572 L718 571 L712 569 L724 558 L728 551 L732 536 L732 525 L729 513 L724 503 L714 493 L708 489 L699 485 Z M378 480 L361 489 L349 500 L342 512 L340 519 L340 532 L346 546 L356 557 L367 564 L368 563 L361 558 L353 550 L347 541 L343 530 L343 521 L346 510 L351 502 L364 490 L377 483 Z M766 489 L775 478 L783 491 L782 492 L777 492 Z M336 476 L337 475 L344 481 L336 484 L335 483 Z M585 475 L586 474 L591 474 L592 475 L607 476 L608 477 L622 478 L623 479 L637 480 L638 481 L698 484 L699 487 L709 492 L719 501 L727 515 L728 523 L729 524 L729 536 L728 537 L727 545 L723 554 L719 560 L708 570 L707 569 L673 567 L672 566 L653 565 L650 563 L655 560 L661 554 L667 544 L669 537 L670 525 L669 524 L668 512 L663 501 L653 489 L649 487 L658 497 L664 508 L666 515 L667 533 L663 546 L657 555 L649 564 L611 560 L610 558 L613 550 L614 538 L615 537 L615 529 L614 528 L614 521 L609 505 L601 491 Z M584 474 L585 473 L586 474 L585 475 Z M512 468 L498 477 L489 486 L482 496 L477 506 L472 525 L472 542 L475 552 L474 553 L452 555 L444 546 L439 536 L438 528 L437 527 L438 510 L442 498 L448 489 L455 482 L464 477 L466 474 L457 478 L446 487 L442 492 L435 508 L435 513 L434 514 L435 533 L440 544 L449 554 L448 555 L407 559 L396 549 L388 535 L386 520 L389 507 L397 493 L403 487 L416 479 L416 478 L414 478 L402 485 L392 495 L386 506 L383 519 L384 532 L388 542 L401 556 L406 559 L405 560 L398 560 L397 561 L370 565 L353 571 L350 568 L341 563 L332 555 L323 540 L321 532 L321 523 L326 508 L332 499 L340 490 L333 495 L325 504 L320 514 L318 521 L318 533 L320 541 L328 555 L335 562 L351 571 L341 578 L328 573 L323 570 L313 561 L304 547 L302 540 L303 523 L308 511 L319 498 L317 498 L308 506 L301 518 L299 525 L299 531 L298 532 L299 543 L305 556 L317 569 L326 575 L328 575 L338 580 L331 587 L326 586 L318 582 L295 559 L288 545 L288 528 L293 516 L298 511 L300 506 L306 499 L324 490 L351 482 L366 480 L367 479 L373 479 L374 478 L380 478 L381 477 L411 475 L412 474 L424 474 L425 473 L451 472 L452 471 L482 469 L483 468 L498 468 L499 467 L511 467 Z M533 464 L541 464 L542 463 L555 464 L568 468 L582 476 L595 488 L602 498 L608 511 L611 523 L611 544 L606 560 L599 572 L591 581 L579 590 L569 595 L559 598 L554 598 L553 599 L533 599 L515 594 L499 584 L487 571 L479 556 L476 546 L476 540 L475 539 L476 521 L480 507 L488 493 L502 478 L509 473 L521 467 Z M507 464 L508 463 L509 464 L508 465 Z M673 479 L681 474 L686 469 L692 459 L699 473 L708 481 L707 482 L700 482 L699 481 L687 481 L686 480 L674 480 Z M331 457 L332 456 L333 458 L332 459 Z M809 424 L818 426 L831 435 L843 449 L850 463 L851 467 L851 482 L847 494 L846 514 L845 515 L838 510 L812 500 L819 494 L823 487 L826 475 L826 463 L823 450 L818 439 L808 425 Z M805 422 L806 421 L807 422 L806 423 Z M804 421 L805 420 L806 421 L805 422 Z M803 420 L804 419 L805 420 L804 421 Z M802 419 L803 418 L804 419 L803 420 Z M727 407 L732 405 L740 405 L747 407 L754 411 L766 424 L772 435 L775 444 L775 458 L772 466 L768 470 L760 473 L752 473 L746 471 L736 465 L726 454 L719 439 L718 435 L718 422 L722 412 Z M742 403 L743 402 L745 403 L744 404 Z M705 398 L714 395 L726 395 L739 399 L743 402 L742 403 L737 403 L736 402 L730 403 L721 409 L717 416 L715 424 L716 438 L720 449 L727 460 L734 467 L744 473 L750 475 L763 475 L767 473 L774 466 L775 467 L773 475 L770 481 L763 489 L755 488 L754 487 L748 487 L747 486 L716 483 L705 476 L700 470 L694 455 L697 444 L697 431 L696 430 L696 425 L692 415 L697 405 Z M702 395 L703 396 L694 404 L691 411 L689 410 L688 407 L681 399 L683 397 L691 394 Z M372 393 L379 398 L383 407 L383 421 L380 432 L375 442 L370 449 L359 459 L349 463 L341 462 L334 457 L330 449 L331 432 L336 417 L343 406 L354 396 L362 393 Z M359 391 L360 390 L361 391 L360 392 Z M550 387 L563 392 L572 401 L577 414 L577 422 L573 433 L563 444 L555 448 L544 450 L529 446 L518 436 L515 431 L513 424 L513 413 L518 401 L526 393 L537 388 Z M409 387 L410 386 L411 387 L410 388 Z M407 386 L408 385 L409 386 L408 387 Z M614 390 L620 387 L632 384 L652 385 L661 388 L670 393 L685 408 L693 425 L694 444 L693 445 L692 453 L688 462 L682 470 L675 476 L669 479 L653 479 L652 478 L621 476 L612 472 L604 465 L598 454 L596 447 L596 442 L598 438 L600 430 L600 423 L601 422 L601 412 L599 406 L605 397 Z M589 385 L590 384 L600 385 L612 388 L599 401 L594 391 Z M542 384 L529 388 L523 392 L517 398 L511 411 L511 419 L510 420 L511 421 L511 427 L516 438 L524 446 L538 452 L550 452 L560 449 L565 446 L573 438 L577 431 L579 424 L579 411 L575 401 L566 391 L554 385 Z M403 384 L409 390 L403 398 L397 412 L397 416 L396 417 L396 433 L399 444 L404 454 L414 465 L422 470 L415 472 L395 473 L394 474 L379 475 L371 477 L364 477 L347 481 L336 470 L333 464 L332 459 L333 458 L338 463 L343 465 L352 465 L363 460 L373 450 L380 439 L386 419 L386 408 L382 397 L377 392 L372 390 L364 390 L363 391 L360 390 L373 383 L382 382 L383 381 L393 381 Z M483 378 L488 376 L505 376 L511 378 L503 386 L497 396 L491 385 Z M478 377 L488 385 L495 399 L491 412 L491 434 L493 441 L491 448 L488 453 L480 462 L471 467 L448 468 L447 469 L437 469 L436 470 L426 470 L422 468 L407 454 L403 447 L399 434 L399 417 L400 416 L400 412 L408 395 L419 383 L428 377 L437 373 L445 372 L446 371 L462 371 Z M508 384 L521 374 L530 370 L538 369 L539 368 L555 368 L556 369 L560 369 L566 371 L580 379 L591 391 L596 401 L597 411 L598 412 L598 425 L597 426 L597 431 L594 443 L590 452 L581 463 L583 463 L589 457 L594 448 L600 463 L610 473 L609 474 L603 474 L602 473 L595 473 L594 472 L581 472 L566 464 L551 460 L537 460 L517 465 L511 463 L503 455 L502 455 L504 459 L508 463 L507 464 L480 466 L479 465 L489 456 L494 447 L494 445 L495 444 L497 446 L494 433 L494 412 L497 401 L501 393 Z M759 361 L765 363 L774 372 L785 389 L788 399 L788 403 L803 418 L802 419 L794 411 L781 403 L779 403 L771 412 L776 415 L780 407 L786 408 L803 423 L811 433 L819 447 L823 463 L823 476 L822 477 L821 485 L817 493 L809 500 L803 497 L782 492 L784 490 L782 488 L776 474 L779 463 L779 452 L778 451 L777 442 L770 426 L766 420 L755 409 L757 408 L758 404 L758 390 L754 379 L755 378 L755 365 Z M368 350 L369 349 L370 350 L369 351 Z M699 366 L701 365 L702 362 L710 354 L718 351 L722 351 L730 354 L740 362 L741 361 L739 358 L728 350 L717 348 L709 351 L702 358 Z M395 345 L401 351 L405 363 L405 380 L404 381 L396 379 L379 379 L370 382 L359 389 L339 407 L331 421 L327 436 L327 452 L330 464 L335 473 L334 474 L334 479 L331 485 L317 490 L314 487 L314 485 L311 481 L307 467 L310 442 L317 426 L323 417 L357 386 L359 382 L359 378 L362 367 L368 356 L377 347 L382 344 L391 343 Z M487 322 L494 335 L494 338 L497 346 L496 368 L495 369 L496 372 L495 373 L486 374 L480 376 L478 374 L466 369 L446 368 L432 372 L426 375 L415 384 L412 384 L407 381 L407 367 L416 334 L436 314 L449 308 L462 307 L470 309 L476 312 Z M602 318 L612 309 L620 304 L626 302 L633 302 L634 301 L641 302 L655 308 L672 326 L673 326 L672 324 L673 322 L676 323 L686 322 L687 323 L681 329 L692 323 L705 323 L714 327 L716 329 L720 330 L726 336 L730 342 L731 342 L730 340 L733 339 L750 345 L763 358 L762 359 L760 358 L756 359 L753 362 L753 375 L752 376 L750 372 L745 368 L754 388 L756 396 L756 406 L754 408 L740 398 L727 393 L713 393 L705 395 L701 393 L695 392 L694 391 L695 389 L695 379 L694 378 L693 370 L689 360 L683 351 L677 345 L667 338 L657 334 L649 333 L648 332 L633 333 L620 338 L608 348 L603 356 L615 345 L623 340 L635 336 L652 336 L664 340 L677 349 L685 359 L689 367 L692 378 L692 391 L691 392 L686 393 L679 397 L669 389 L652 382 L633 381 L632 382 L624 383 L618 386 L607 383 L597 382 L596 378 L597 377 L598 361 L599 360 L598 352 L600 344 Z M418 294 L421 297 L424 303 L424 308 L419 317 L413 332 L407 356 L406 357 L402 348 L396 342 L390 340 L381 341 L376 344 L370 350 L369 347 L376 328 L385 311 L390 304 L397 297 L405 293 L413 292 Z M405 290 L406 289 L407 290 L406 291 Z M496 272 L503 285 L506 297 L506 306 L503 315 L500 335 L498 338 L493 326 L489 320 L480 311 L473 307 L463 304 L448 305 L437 310 L427 319 L424 325 L419 330 L418 329 L421 320 L438 288 L449 273 L457 265 L469 259 L478 259 L488 264 Z M678 229 L679 228 L680 230 L679 231 Z M520 239 L523 249 L523 257 L517 270 L509 294 L507 291 L505 282 L499 271 L489 261 L478 256 L465 257 L460 259 L453 264 L440 279 L430 295 L427 302 L424 296 L420 292 L416 290 L407 290 L406 289 L454 245 L468 234 L484 225 L490 223 L506 224 L511 227 L517 233 Z M495 220 L496 219 L498 220 L497 221 Z M549 227 L550 228 L557 223 L567 218 L575 216 L586 216 L596 220 L608 232 L608 230 L605 225 L598 218 L586 213 L574 213 L564 216 L557 220 Z M612 187 L616 190 L619 195 L621 203 L621 210 L620 211 L620 219 L618 224 L616 236 L613 243 L613 246 L607 265 L605 280 L604 281 L603 297 L602 298 L601 297 L598 285 L593 276 L581 265 L568 260 L555 260 L545 263 L536 268 L524 281 L524 283 L525 283 L534 273 L541 268 L555 263 L568 263 L583 270 L592 280 L596 288 L599 298 L599 303 L600 304 L599 346 L597 348 L592 337 L581 324 L568 316 L558 313 L546 312 L545 313 L539 313 L532 315 L523 320 L511 333 L512 334 L525 322 L541 316 L558 316 L573 322 L579 326 L586 333 L594 347 L596 355 L596 369 L595 370 L595 379 L594 380 L595 381 L594 382 L587 382 L580 376 L570 370 L550 365 L541 365 L540 366 L531 367 L518 373 L516 375 L506 374 L505 373 L498 373 L497 372 L497 368 L498 367 L498 357 L499 356 L499 349 L500 348 L502 329 L508 305 L510 301 L512 290 L524 260 L535 239 L549 220 L565 204 L582 192 L596 186 L606 185 Z M720 132 L715 132 L714 131 L681 131 L680 132 L664 133 L645 139 L637 143 L626 151 L610 154 L597 160 L592 161 L589 163 L584 164 L559 174 L539 184 L520 196 L505 207 L494 218 L484 221 L466 231 L451 243 L413 277 L388 301 L378 316 L369 336 L364 353 L364 357 L358 367 L357 376 L354 385 L331 404 L322 413 L313 426 L313 428 L307 440 L306 450 L305 451 L305 458 L304 459 L305 475 L311 488 L313 490 L307 493 L299 500 L294 510 L289 516 L284 529 L284 544 L288 555 L294 562 L294 573 L302 590 L303 598 L311 607 L319 612 L316 619 L315 642 L314 643 L312 662 L302 667 L297 673 L298 750 L295 763 L292 808 L291 809 L291 817 L289 823 L288 844 L287 845 L286 863 L285 864 L285 879 L286 883 L290 888 L293 889 L310 888 L311 887 L321 887 L322 888 L323 892 L323 901 L322 902 L323 922 L325 927 L331 935 L336 946 L341 966 L341 970 L343 975 L343 979 L345 983 L348 998 L355 1020 L364 1041 L378 1063 L401 1087 L414 1096 L431 1113 L440 1117 L454 1135 L470 1146 L480 1149 L488 1149 L499 1154 L519 1153 L525 1155 L539 1155 L547 1153 L562 1153 L574 1156 L587 1156 L595 1153 L605 1152 L621 1145 L640 1143 L649 1138 L654 1133 L664 1126 L685 1106 L695 1105 L702 1099 L707 1098 L718 1091 L739 1071 L750 1057 L759 1042 L773 1010 L786 970 L792 959 L807 942 L810 935 L809 898 L810 897 L821 897 L832 892 L846 883 L853 875 L859 758 L858 755 L854 751 L850 751 L849 750 L850 748 L850 737 L849 736 L849 720 L848 717 L844 714 L835 715 L832 711 L830 702 L826 699 L819 699 L817 700 L816 699 L817 696 L815 693 L798 678 L799 658 L800 657 L800 627 L799 626 L798 614 L795 606 L823 577 L831 560 L835 559 L839 561 L843 561 L849 557 L852 550 L858 551 L862 548 L862 536 L857 525 L849 516 L850 495 L854 484 L855 471 L852 459 L847 449 L835 434 L825 426 L816 422 L811 422 L791 401 L790 392 L784 380 L779 373 L772 366 L770 361 L762 353 L758 347 L753 343 L747 340 L744 340 L730 335 L721 326 L716 325 L710 321 L704 319 L678 319 L677 320 L671 320 L660 308 L654 304 L642 299 L632 298 L620 301 L613 305 L604 315 L602 314 L603 313 L603 301 L605 294 L606 282 L608 277 L608 273 L610 268 L613 252 L621 227 L621 223 L623 217 L623 209 L624 208 L623 206 L623 198 L619 189 L614 185 L609 183 L599 182 L587 186 L570 196 L549 215 L537 231 L526 251 L523 238 L518 229 L509 222 L500 221 L497 219 L516 203 L541 187 L563 176 L583 168 L588 167 L601 161 L609 159 L612 157 L629 153 L640 145 L648 141 L667 136 L686 135 L687 134 L718 135 L721 136 L728 141 L731 149 L732 168 L731 169 L731 179 L730 180 L729 189 L724 201 L718 209 L718 212 L715 219 L709 225 L710 226 L710 235 L708 240 L701 247 L692 251 L689 254 L682 268 L676 273 L675 271 L677 268 L677 260 L678 259 L678 243 L680 235 L684 227 L690 220 L694 218 L701 218 L706 221 L707 220 L701 216 L695 215 L690 217 L683 224 L682 227 L680 229 L679 228 L679 221 L680 220 L681 211 L685 199 L690 191 L695 188 L699 191 L701 199 L701 206 L703 205 L703 203 L708 194 L712 180 L712 169 L710 163 L710 152 L708 153 L704 149 L698 149 L683 154 L672 160 L662 167 L651 177 L636 197 L637 198 L650 182 L662 171 L678 160 L697 152 L704 152 L707 155 L708 167 L709 168 L709 182 L705 196 L704 197 L702 195 L702 191 L698 186 L691 187 L683 196 L678 211 L677 221 L676 222 L676 229 L675 230 L675 269 L674 270 L670 264 L661 257 L655 255 L642 255 L630 260 L620 270 L621 271 L629 264 L643 258 L658 259 L663 262 L671 271 L677 286 L677 291 L675 294 L675 297 L677 297 L680 292 L680 279 L678 275 L686 268 L691 257 L695 253 L697 253 L704 249 L712 240 L713 228 L720 217 L721 210 L728 201 L733 186 L734 175 L735 174 L734 147 L730 138 L725 134 Z" fill="#eef3f4" fill-rule="evenodd"/>
</svg>
