<svg xmlns="http://www.w3.org/2000/svg" width="1024" height="1536" viewBox="0 0 1024 1536">
  <title>0387</title>
  <path d="M407 1199 L408 1198 L409 1199 L408 1200 Z M622 1201 L618 1198 L611 1207 L619 1199 L622 1202 Z M406 1198 L407 1197 L408 1198 L407 1199 Z M385 1184 L389 1189 L392 1190 L387 1184 Z M614 1183 L615 1185 L618 1185 Z M606 1184 L592 1185 L588 1183 L584 1179 L576 1176 L562 1177 L557 1180 L551 1181 L544 1185 L542 1185 L533 1193 L528 1195 L526 1199 L521 1202 L516 1202 L508 1207 L504 1207 L503 1206 L502 1207 L491 1208 L484 1212 L477 1213 L469 1220 L464 1219 L456 1213 L449 1217 L441 1216 L436 1213 L433 1213 L433 1214 L445 1219 L449 1219 L454 1215 L456 1215 L460 1218 L459 1219 L454 1218 L454 1219 L458 1220 L460 1218 L465 1223 L469 1225 L476 1225 L481 1222 L489 1222 L492 1220 L495 1220 L498 1218 L506 1216 L510 1213 L511 1210 L508 1213 L502 1216 L498 1216 L489 1220 L480 1221 L477 1223 L473 1223 L472 1224 L468 1222 L471 1221 L479 1214 L486 1213 L496 1208 L511 1208 L516 1204 L523 1203 L540 1188 L550 1183 L559 1181 L564 1178 L568 1178 L569 1177 L579 1178 L588 1185 L593 1187 L601 1187 L606 1185 Z M642 1161 L639 1162 L637 1168 L636 1167 L632 1167 L625 1171 L618 1171 L617 1170 L612 1172 L610 1174 L609 1178 L614 1172 L628 1172 L631 1169 L634 1168 L638 1171 L638 1175 L640 1180 L644 1175 L644 1169 L642 1168 L643 1174 L641 1177 L638 1169 L640 1167 L640 1163 Z M697 1157 L695 1159 L696 1161 Z M655 1146 L651 1153 L647 1164 L649 1163 L651 1159 Z M676 1133 L673 1135 L671 1140 Z M361 1083 L362 1086 L360 1090 L359 1086 Z M361 1082 L362 1081 L363 1083 L362 1084 Z M381 1038 L382 1039 L382 1045 L384 1046 L379 1054 L372 1061 L371 1059 L374 1050 Z M381 1038 L382 1037 L383 1038 L382 1039 Z M371 1024 L369 1024 L366 1028 L363 1035 L363 1038 L367 1029 Z M650 1009 L651 1008 L652 1010 L651 1011 Z M678 1003 L677 1003 L677 1023 L676 1024 L676 1031 L674 1036 L674 1040 L676 1037 L677 1029 L678 1028 L678 1022 L679 1021 Z M537 996 L538 995 L539 996 L538 997 Z M641 996 L639 992 L634 988 L629 988 L626 990 L604 1018 L603 1021 L583 1050 L568 1064 L562 1068 L548 1074 L531 1076 L530 1075 L524 1075 L512 1072 L506 1069 L498 1067 L467 1052 L444 1046 L432 1046 L431 1045 L416 1046 L400 1051 L392 1056 L391 1058 L402 1052 L416 1048 L420 1048 L421 1047 L440 1047 L441 1048 L452 1049 L468 1054 L494 1067 L521 1076 L525 1076 L526 1077 L546 1076 L550 1074 L553 1074 L565 1068 L584 1051 L590 1041 L594 1037 L607 1016 L624 994 L631 989 L635 990 L638 993 L640 1000 L638 1009 L632 1025 L633 1026 L636 1015 L641 1004 Z M560 985 L557 986 L553 991 L560 986 Z M407 983 L408 982 L409 983 L408 984 Z M262 972 L264 981 L269 991 L279 1005 L288 1022 L295 1043 L295 1046 L298 1052 L289 1021 L278 1001 L269 988 Z M635 971 L634 973 L627 973 L617 978 L604 991 L596 1002 L573 1024 L559 1033 L542 1040 L528 1042 L527 1043 L516 1043 L515 1042 L503 1041 L502 1040 L488 1038 L478 1035 L472 1035 L471 1034 L462 1034 L461 1033 L454 1033 L453 1032 L440 1031 L439 1030 L423 1030 L422 1031 L411 1032 L400 1036 L386 1044 L384 1043 L384 1040 L387 1034 L395 1025 L411 1014 L431 1005 L435 1005 L444 1002 L458 1003 L513 1018 L527 1019 L539 1016 L554 1009 L575 995 L591 982 L612 969 L622 966 L628 966 Z M475 967 L473 974 L473 985 L471 987 L466 982 L458 978 L446 979 L433 983 L433 984 L448 980 L460 980 L464 982 L473 991 L474 990 L473 987 L474 986 Z M740 964 L738 966 L730 982 L726 995 L724 998 L716 1035 L712 1044 L710 1052 L707 1057 L706 1062 L710 1055 L714 1042 L716 1039 L724 1007 L724 1003 L729 988 L732 983 L735 974 L740 966 Z M546 964 L544 967 L544 981 L541 991 L534 997 L524 1002 L518 1004 L510 1004 L509 1003 L501 1002 L495 999 L488 998 L481 994 L479 994 L489 1000 L500 1002 L511 1006 L516 1006 L523 1008 L517 1005 L529 1001 L537 996 L539 997 L541 995 L541 993 L546 985 Z M548 960 L553 969 L559 975 L564 977 L573 977 L577 975 L563 975 L559 973 Z M426 957 L431 970 L431 976 L426 978 L431 978 L432 977 L432 969 L430 962 L427 957 Z M544 949 L544 955 L546 957 Z M407 946 L406 947 L410 956 L410 972 L405 985 L395 995 L396 996 L408 985 L417 980 L424 978 L416 979 L410 983 L408 982 L411 974 L412 960 L411 959 L410 951 Z M785 942 L784 942 L784 945 L782 949 L778 967 L765 1002 L763 1013 L779 968 Z M597 943 L598 944 L606 938 L616 934 L633 933 L641 935 L655 943 L666 954 L672 964 L675 974 L677 977 L674 965 L666 952 L656 942 L643 934 L640 934 L636 932 L618 932 L617 933 L613 933 L603 938 Z M316 925 L313 937 L313 947 L315 954 L321 964 L323 971 L324 971 L322 963 L317 956 L316 950 L314 946 L314 938 L317 929 L317 925 Z M386 919 L385 920 L390 936 L392 953 L396 966 L390 978 L367 1001 L367 1003 L390 980 L397 968 L397 962 L395 960 L395 955 L393 951 L392 938 Z M673 916 L679 923 L693 944 L700 958 L700 960 L702 964 L703 964 L702 959 L691 938 L683 928 L679 921 Z M665 925 L658 919 L646 914 L637 913 L636 912 L626 913 L616 916 L607 921 L598 929 L592 938 L608 922 L615 918 L627 914 L640 914 L641 915 L649 916 L659 921 L663 925 Z M373 908 L373 915 L375 921 L374 940 L377 930 L377 922 L375 917 L374 908 Z M260 888 L264 893 L278 900 L286 901 L290 903 L287 900 L282 900 L266 893 Z M691 884 L696 894 L699 907 L701 911 L700 926 L702 923 L702 916 L703 915 L702 909 L695 888 Z M528 884 L527 884 L520 894 L522 894 L528 886 Z M369 879 L367 881 L366 898 L363 910 L360 917 L361 919 L359 922 L359 925 L367 900 Z M799 875 L800 874 L801 876 L800 877 Z M805 866 L808 873 L812 877 L818 879 L819 881 L804 895 L803 901 L799 905 L798 903 L801 890 L803 869 Z M227 853 L227 859 L228 860 L229 868 L235 883 L245 895 L256 901 L261 906 L264 911 L268 927 L267 948 L269 943 L269 923 L264 908 L257 900 L246 894 L236 882 L231 870 L228 853 Z M600 862 L600 874 L599 875 L598 885 L591 901 L585 909 L569 922 L543 936 L536 943 L526 961 L516 971 L507 974 L501 973 L494 969 L477 954 L465 949 L449 948 L448 947 L440 946 L423 938 L412 928 L403 916 L395 900 L387 875 L388 872 L400 885 L406 889 L420 893 L428 893 L429 894 L428 895 L428 901 L430 905 L437 912 L439 912 L432 905 L430 900 L430 895 L434 893 L446 893 L451 895 L470 908 L479 912 L502 913 L511 910 L520 904 L544 882 L552 878 L560 880 L563 884 L563 890 L561 895 L557 899 L558 900 L564 893 L565 883 L562 879 L557 877 L555 875 L556 874 L562 873 L566 871 L575 870 L583 866 L590 860 L597 849 L599 853 L599 861 Z M265 849 L266 848 L267 849 L266 850 Z M634 841 L642 842 L647 845 L649 845 L657 849 L660 852 L656 854 L650 854 L642 852 L645 854 L656 855 L661 852 L682 863 L688 865 L713 889 L729 899 L723 893 L714 888 L694 867 L687 862 L679 859 L649 843 L641 840 L636 840 L635 839 Z M283 839 L278 839 L270 841 L268 843 L283 840 Z M258 838 L259 842 L264 846 L264 850 L266 851 L271 850 L275 852 L279 852 L290 845 L296 845 L300 843 L312 843 L324 854 L317 857 L311 863 L308 872 L309 872 L312 864 L318 858 L320 858 L325 855 L323 851 L315 843 L310 841 L300 841 L296 843 L289 843 L280 850 L274 850 L268 848 Z M293 831 L289 834 L285 842 L287 841 Z M628 829 L636 831 L642 834 L642 833 L636 829 L632 829 L631 828 Z M258 821 L266 830 L269 831 Z M772 818 L771 818 L771 822 L774 834 L775 852 L773 857 L773 863 L770 871 L770 875 L773 868 L775 854 L776 853 L776 840 L775 839 L775 832 L774 831 L774 825 Z M714 814 L721 821 L733 839 L738 849 L740 858 L742 860 L744 868 L746 871 L746 885 L743 895 L741 898 L741 901 L745 897 L744 894 L746 891 L747 883 L748 882 L748 876 L747 875 L747 852 L746 851 L746 862 L745 863 L743 861 L740 850 L734 838 L722 820 Z M351 802 L335 811 L325 822 L324 827 L326 832 L331 839 L332 844 L334 838 L334 832 L336 827 L334 828 L333 837 L332 838 L327 831 L326 823 L336 812 L351 803 Z M773 801 L778 812 L779 820 L780 821 L780 832 L781 833 L781 862 L780 863 L780 872 L779 873 L775 894 L780 879 L782 880 L783 893 L785 894 L784 884 L783 883 L783 875 L782 874 L783 840 L782 839 L781 818 L778 808 L775 802 Z M786 799 L791 812 L791 818 L793 824 L792 811 L789 802 Z M714 812 L703 804 L701 804 L699 802 L686 797 L681 797 L677 799 L666 797 L659 804 L656 804 L652 802 L643 803 L638 799 L626 803 L615 804 L614 803 L615 802 L619 801 L617 800 L610 804 L610 805 L612 804 L614 805 L623 805 L637 801 L644 805 L654 804 L657 806 L667 808 L660 805 L665 799 L668 798 L673 800 L678 800 L684 798 L694 801 Z M834 792 L835 793 L834 798 L831 803 L830 799 Z M837 788 L834 789 L829 795 L828 807 L831 810 L836 809 L836 808 L833 809 L831 806 L836 799 L837 795 L836 791 L837 790 L840 792 L840 800 L839 802 L841 801 L842 793 Z M764 783 L771 795 L772 795 L770 789 Z M355 779 L356 778 L357 779 L356 780 Z M357 778 L358 777 L359 778 L358 779 Z M148 778 L148 785 L151 792 L151 789 L148 782 Z M600 797 L601 798 L618 784 L628 779 L637 778 L638 777 L657 777 L658 778 L692 782 L702 785 L713 790 L727 799 L739 809 L750 821 L758 835 L761 845 L762 856 L763 857 L764 875 L762 880 L761 889 L756 893 L756 895 L759 895 L761 893 L765 884 L764 882 L765 878 L765 860 L764 859 L764 854 L763 853 L761 840 L757 830 L751 820 L733 802 L717 791 L705 785 L693 781 L648 775 L647 776 L635 776 L625 779 L616 784 Z M257 771 L265 780 L272 785 L289 791 L317 792 L318 791 L323 791 L331 789 L338 785 L326 789 L313 790 L312 791 L290 790 L279 787 L271 783 Z M372 770 L373 769 L374 770 L373 771 Z M373 769 L374 768 L375 769 L374 770 Z M374 768 L375 767 L376 768 L375 769 Z M379 764 L380 765 L376 768 L375 767 Z M379 764 L380 763 L381 764 L380 765 Z M262 760 L263 764 L269 769 L271 769 L266 766 L263 762 L265 759 L267 759 L274 764 L282 767 L288 767 L292 765 L280 765 L273 762 L268 758 L265 758 Z M238 757 L238 763 L241 773 L247 783 L249 784 L243 774 Z M173 755 L178 756 L181 761 L181 765 L178 769 L174 769 L170 765 L170 758 Z M167 754 L170 755 L168 757 L167 761 L168 766 L172 770 L177 772 L173 775 L167 774 L162 767 L163 758 Z M170 751 L166 753 L162 757 L160 762 L160 766 L162 771 L168 776 L175 776 L182 769 L183 759 L176 752 Z M801 747 L802 746 L803 748 L802 749 Z M800 745 L801 744 L802 746 L801 747 Z M797 741 L798 740 L801 744 L800 745 Z M796 740 L797 739 L798 740 L797 741 Z M795 739 L796 738 L797 739 L796 740 Z M794 738 L795 737 L796 738 L795 739 Z M793 737 L794 736 L795 737 L794 738 Z M792 736 L793 735 L794 736 L793 737 Z M648 735 L651 736 L652 734 L659 734 L665 736 L678 736 L688 739 L684 740 L685 741 L686 740 L687 741 L688 740 L710 741 L711 742 L717 742 L732 746 L743 752 L756 762 L768 774 L772 782 L771 783 L757 768 L747 761 L739 757 L716 750 L707 750 L706 749 L698 750 L699 751 L712 751 L713 752 L722 753 L737 758 L753 767 L767 779 L782 796 L774 785 L774 783 L768 772 L748 754 L731 744 L717 740 L695 739 L691 737 L683 735 L677 735 L676 734 L666 734 L665 733 L656 733 L655 732 L654 733 L650 733 Z M350 731 L360 737 L359 735 Z M465 729 L464 729 L464 749 L463 750 L463 755 L460 768 L459 783 L457 788 L457 801 L458 802 L458 806 L457 807 L457 841 L459 841 L458 813 L459 812 L459 803 L461 798 L461 791 L461 795 L460 796 L459 795 L459 787 L462 777 L462 766 L463 765 L464 753 L466 746 L466 732 Z M383 724 L384 723 L385 725 L384 726 Z M744 723 L745 722 L747 723 L746 724 Z M742 722 L743 721 L745 722 L744 723 Z M740 721 L741 720 L743 721 L742 722 Z M738 720 L739 719 L741 720 L740 721 Z M736 719 L737 718 L739 719 L738 720 Z M734 718 L735 717 L736 718 L735 719 Z M231 713 L233 717 L237 721 L252 726 L246 728 L240 728 L237 729 L237 730 L259 728 L267 730 L290 731 L291 732 L298 732 L299 733 L305 733 L315 736 L319 736 L331 739 L341 743 L343 742 L333 738 L330 738 L326 736 L319 735 L315 733 L299 729 L257 726 L253 724 L240 721 Z M778 711 L778 712 L781 713 L789 713 L788 712 L780 712 Z M595 710 L594 714 L596 719 L605 730 L608 735 L608 737 L610 737 L609 733 L618 720 L611 726 L608 732 L598 719 L595 713 Z M293 709 L298 720 L299 720 L295 710 Z M616 711 L613 715 L607 718 L604 717 L605 710 L608 706 Z M787 703 L788 702 L790 703 L789 704 Z M784 700 L785 699 L788 702 L785 703 Z M661 695 L645 703 L635 711 L622 719 L621 721 L623 721 L651 701 L658 697 L660 697 Z M818 692 L817 692 L815 698 L815 703 L818 696 Z M837 690 L834 706 L836 705 L836 700 L838 694 Z M776 690 L777 689 L778 690 L777 691 Z M775 689 L776 688 L777 689 L776 690 Z M774 688 L775 687 L776 688 L775 689 Z M773 687 L774 686 L775 687 L774 688 Z M573 688 L572 687 L572 722 L575 735 L578 741 L580 754 L583 762 L586 784 L592 799 L590 800 L583 796 L575 796 L563 801 L558 805 L552 812 L546 822 L541 835 L541 840 L550 818 L555 811 L562 804 L571 799 L575 798 L585 799 L589 801 L594 806 L597 811 L600 821 L599 841 L593 853 L585 862 L579 866 L561 870 L548 876 L541 881 L518 903 L510 908 L500 911 L484 911 L477 909 L469 905 L456 895 L440 887 L427 883 L416 882 L410 880 L405 877 L408 880 L414 883 L427 886 L432 886 L441 890 L440 891 L421 891 L420 890 L415 890 L405 886 L390 872 L385 865 L380 850 L380 837 L384 828 L391 821 L401 817 L409 817 L417 820 L426 826 L434 837 L437 839 L431 829 L424 822 L411 815 L415 803 L414 802 L415 793 L417 789 L417 785 L420 776 L420 771 L424 759 L424 757 L423 757 L421 765 L420 766 L419 765 L419 758 L417 763 L418 778 L416 782 L416 787 L413 795 L412 807 L410 811 L410 814 L409 815 L399 815 L398 816 L391 815 L379 819 L377 818 L385 800 L392 792 L391 791 L384 799 L375 819 L368 825 L361 827 L360 826 L366 819 L363 820 L359 825 L358 829 L355 832 L351 833 L347 837 L327 870 L326 879 L317 893 L316 901 L315 902 L316 903 L316 909 L310 924 L312 922 L312 920 L314 918 L314 916 L317 911 L317 897 L319 892 L327 880 L329 869 L348 838 L356 833 L360 828 L365 828 L371 825 L377 819 L381 820 L388 817 L391 817 L392 818 L387 821 L381 828 L377 839 L377 845 L365 854 L354 865 L344 879 L336 899 L330 925 L328 928 L325 939 L327 937 L333 919 L339 894 L346 879 L356 865 L365 856 L377 848 L379 852 L379 856 L384 868 L386 880 L391 892 L391 895 L393 898 L394 903 L401 917 L408 927 L422 940 L439 948 L471 953 L479 958 L491 969 L502 975 L512 975 L515 974 L527 963 L529 963 L529 960 L534 950 L544 938 L567 926 L580 917 L591 905 L598 892 L601 881 L602 862 L601 861 L601 853 L600 852 L600 843 L602 837 L602 820 L599 810 L595 804 L595 801 L587 783 L584 760 L582 756 L580 743 L577 738 L572 718 L573 716 Z M225 687 L224 687 L224 703 L225 702 Z M772 686 L773 685 L774 686 L773 687 Z M771 685 L772 684 L773 685 L772 686 Z M245 683 L246 682 L248 683 L247 684 Z M243 682 L244 681 L246 682 L245 683 Z M593 677 L592 679 L594 684 L594 677 Z M872 672 L873 673 L872 676 L871 675 Z M234 673 L235 672 L239 672 L241 678 L244 681 L242 682 Z M867 669 L869 668 L872 672 L871 673 Z M865 668 L866 667 L868 668 L867 669 Z M864 667 L865 666 L866 667 L865 668 Z M242 672 L264 661 L278 656 L282 656 L288 654 L297 654 L298 653 L312 653 L313 654 L325 655 L340 661 L358 675 L365 683 L372 694 L377 705 L379 714 L375 718 L369 718 L352 710 L313 697 L309 697 L300 694 L286 692 L281 690 L277 690 L256 685 L244 678 L242 676 Z M611 705 L611 702 L614 696 L622 685 L633 674 L641 668 L667 654 L677 651 L691 650 L692 649 L703 649 L704 650 L721 651 L739 658 L753 668 L764 679 L773 691 L781 699 L781 701 L779 703 L773 703 L770 701 L761 699 L751 694 L726 685 L713 682 L705 682 L704 681 L687 681 L686 682 L678 682 L677 683 L668 684 L655 688 L642 694 L620 708 L615 708 Z M197 650 L196 650 L195 653 L195 657 L199 668 L198 671 L193 662 L188 657 L186 657 L186 658 L194 666 L198 674 L199 682 L200 683 L201 706 L202 707 L202 756 L201 757 L201 793 L196 807 L189 814 L182 817 L170 816 L165 813 L156 804 L157 807 L167 816 L172 818 L184 818 L189 816 L195 811 L200 802 L201 798 L202 799 L201 815 L196 824 L191 829 L195 827 L199 823 L203 815 L203 808 L204 807 L203 803 L203 780 L202 779 L202 762 L203 761 L203 745 L204 744 L204 704 L203 703 L202 682 L200 675 L200 665 L197 659 Z M602 708 L604 710 L603 711 L603 720 L605 720 L614 716 L617 713 L620 712 L640 698 L660 689 L671 686 L682 685 L683 684 L707 684 L708 685 L715 685 L728 688 L768 704 L776 705 L777 706 L791 705 L802 709 L784 697 L782 697 L777 692 L778 690 L780 692 L778 688 L757 668 L747 660 L726 650 L717 649 L716 648 L709 648 L708 647 L686 647 L685 648 L674 649 L646 662 L630 673 L622 681 L613 693 L607 704 Z M842 644 L845 648 L844 650 L841 649 L841 645 Z M841 653 L844 651 L851 650 L859 643 L862 643 L866 645 L869 645 L877 650 L878 652 L878 662 L876 666 L872 669 L869 666 L862 663 L843 660 L841 658 Z M265 642 L261 645 L265 643 Z M584 641 L585 640 L586 641 L585 642 Z M585 639 L586 638 L587 639 L586 640 Z M226 640 L226 659 L230 670 L233 671 L233 674 L235 678 L240 683 L254 688 L264 689 L282 694 L292 695 L297 697 L301 697 L317 701 L335 707 L338 709 L350 712 L370 721 L374 721 L381 717 L382 718 L382 724 L381 725 L380 736 L381 736 L382 733 L383 734 L382 742 L380 743 L359 725 L322 710 L318 710 L314 708 L297 704 L286 704 L285 703 L276 702 L247 693 L249 695 L270 702 L278 703 L283 705 L300 706 L305 708 L309 708 L337 717 L342 720 L352 723 L363 729 L380 746 L382 746 L383 740 L385 736 L384 726 L385 725 L388 731 L389 731 L389 729 L381 712 L378 701 L367 681 L355 669 L346 662 L335 656 L323 652 L318 652 L317 651 L291 651 L270 656 L241 670 L232 670 L228 661 L227 639 Z M588 635 L589 637 L587 639 L586 637 Z M132 651 L132 645 L134 640 L139 635 L150 632 L168 632 L180 636 L183 641 L183 644 L180 650 L178 649 L168 649 L167 648 L148 649 L141 651 L135 657 L133 655 Z M183 631 L189 631 L192 634 L192 644 L190 648 L187 650 L183 649 L185 644 L185 639 L181 634 Z M592 630 L593 632 L589 636 L588 634 Z M248 643 L249 644 L253 644 L266 639 L273 639 L282 635 L295 633 L296 632 L314 632 L315 633 L321 633 L322 634 L327 634 L340 637 L352 641 L365 648 L374 655 L389 672 L395 686 L395 698 L391 710 L394 720 L394 726 L392 733 L392 741 L387 752 L380 761 L370 770 L372 771 L370 773 L360 778 L358 776 L354 779 L355 780 L354 781 L345 784 L342 787 L355 782 L366 776 L368 776 L379 768 L395 753 L406 732 L409 720 L410 708 L408 713 L408 718 L405 730 L399 743 L394 751 L381 764 L380 762 L390 750 L394 740 L394 732 L395 731 L396 722 L393 712 L393 708 L396 701 L397 688 L390 671 L380 659 L370 650 L361 644 L343 636 L326 632 L315 631 L314 630 L292 631 L291 632 L283 633 L273 637 L264 638 L255 642 Z M441 627 L440 627 L440 649 L439 650 L439 657 L438 658 L438 672 L439 673 L439 681 L438 682 L439 684 L440 683 L440 670 L439 669 L440 666 L439 664 L440 663 L440 653 L441 652 Z M804 666 L803 665 L799 667 L792 667 L786 665 L773 658 L741 636 L727 630 L719 629 L718 628 L712 628 L711 627 L701 627 L700 626 L674 628 L658 633 L655 633 L644 638 L631 646 L615 658 L603 673 L598 682 L596 688 L597 693 L595 697 L595 701 L596 701 L597 696 L603 686 L603 682 L601 688 L599 690 L598 689 L598 686 L602 677 L610 666 L620 656 L642 641 L655 635 L672 630 L687 629 L688 628 L704 628 L705 629 L715 629 L728 632 L751 644 L764 654 L784 666 L790 668 L800 668 Z M596 625 L597 627 L593 631 L592 629 Z M596 625 L597 624 L598 625 L597 626 Z M597 624 L598 623 L599 624 L598 625 Z M598 623 L599 622 L600 623 L599 624 Z M599 622 L600 621 L601 622 L600 623 Z M600 621 L602 618 L604 619 L601 622 Z M603 618 L604 617 L605 618 L604 619 Z M823 617 L824 616 L825 617 L824 618 Z M604 617 L605 616 L606 617 L605 618 Z M605 616 L606 615 L607 616 L606 617 Z M606 615 L607 614 L608 615 L607 616 Z M607 614 L608 613 L609 614 L608 615 Z M608 613 L609 612 L610 613 L609 614 Z M609 612 L610 611 L611 612 L610 613 Z M451 606 L463 634 L464 644 L465 645 L465 652 L466 653 L465 657 L466 661 L466 689 L464 697 L464 710 L459 728 L459 741 L460 742 L461 741 L461 726 L466 710 L466 695 L468 687 L468 660 L467 659 L468 655 L467 654 L466 641 L462 627 L454 609 Z M213 606 L210 616 L203 623 L198 626 L194 631 L192 631 L187 628 L182 629 L178 633 L170 630 L175 626 L182 627 L188 625 L205 613 L212 605 Z M241 605 L236 616 L235 632 L237 638 L241 642 L244 642 L238 637 L236 629 L236 623 L240 609 L242 606 Z M634 599 L635 598 L637 599 L636 600 Z M252 591 L247 593 L243 597 L242 600 Z M614 589 L607 591 L586 603 L577 612 L577 614 L572 619 L569 625 L561 635 L554 648 L556 647 L561 637 L567 630 L577 614 L589 602 Z M825 585 L826 586 L825 614 L823 615 L821 610 L821 601 Z M255 585 L257 586 L264 584 L281 584 L287 586 L292 586 L293 587 L298 587 L299 588 L318 591 L340 598 L360 608 L377 620 L408 650 L414 659 L414 657 L409 649 L381 621 L363 608 L346 599 L328 592 L307 588 L306 587 L302 587 L301 586 L281 583 L280 582 L268 582 Z M771 580 L767 578 L761 578 L760 577 L741 577 L740 576 L702 577 L701 578 L695 578 L694 579 L681 581 L674 584 L662 587 L651 592 L648 592 L633 597 L621 603 L611 611 L606 613 L592 627 L582 641 L583 643 L580 646 L575 656 L573 662 L572 676 L573 677 L573 670 L574 669 L575 660 L579 651 L588 641 L599 626 L616 609 L630 600 L634 599 L635 600 L631 603 L633 603 L639 598 L650 593 L673 585 L699 579 L734 577 L735 578 L756 578 L757 579 Z M755 571 L769 572 L776 574 L788 580 L799 589 L793 582 L777 573 L769 571 L764 571 L763 570 L762 571 Z M332 567 L333 566 L334 567 L333 568 Z M621 555 L616 557 L613 560 L609 560 L605 564 L615 560 Z M867 551 L870 553 L873 562 L872 574 L869 581 L867 578 L866 572 L864 572 L867 592 L868 593 L868 607 L860 636 L857 642 L851 648 L848 649 L842 641 L843 623 L845 620 L864 603 L866 598 L845 619 L844 618 L844 612 L846 605 L846 599 L847 598 L849 585 L854 570 L862 555 Z M398 550 L399 549 L400 550 L399 551 Z M273 548 L271 547 L261 555 L263 555 L267 551 Z M247 570 L256 564 L261 564 L262 565 L267 564 L274 557 L284 551 L294 550 L297 548 L301 548 L333 569 L338 571 L341 574 L349 577 L352 577 L363 584 L367 585 L383 601 L398 613 L419 636 L422 638 L419 633 L405 618 L391 605 L384 600 L379 595 L377 591 L372 587 L351 575 L344 574 L334 565 L329 564 L323 561 L302 547 L295 546 L292 549 L288 549 L286 547 L280 547 L277 549 L285 548 L286 549 L273 556 L266 563 L264 564 L262 563 L255 563 L251 565 Z M648 560 L648 561 L658 553 L663 551 L669 551 L670 550 L698 550 L705 546 L717 546 L718 547 L728 548 L739 553 L745 553 L762 548 L768 548 L770 550 L779 554 L792 565 L780 553 L764 545 L762 547 L747 551 L736 551 L729 547 L719 546 L714 544 L707 544 L697 549 L674 548 L673 549 L659 551 Z M369 524 L370 523 L371 524 L370 525 Z M367 523 L368 522 L370 523 L369 524 Z M366 522 L367 521 L368 522 L367 523 Z M849 519 L850 518 L851 520 L850 521 Z M361 519 L363 518 L367 521 L365 522 Z M358 517 L360 516 L362 518 L360 519 Z M865 514 L877 524 L878 527 L888 538 L888 574 L883 592 L883 599 L879 615 L879 620 L877 625 L875 644 L872 645 L869 643 L861 642 L860 640 L863 634 L863 631 L870 609 L869 583 L873 577 L874 567 L875 566 L875 561 L873 554 L868 549 L872 546 L878 547 L882 554 L882 558 L883 558 L883 553 L881 548 L876 544 L872 544 L868 546 L861 553 L854 565 L847 584 L847 588 L843 604 L841 626 L840 627 L841 628 L840 629 L840 638 L839 639 L839 670 L840 671 L841 670 L841 662 L842 661 L843 662 L848 662 L859 665 L866 670 L870 676 L869 692 L867 698 L868 702 L868 735 L863 747 L863 762 L861 768 L861 789 L858 800 L859 807 L858 811 L853 820 L853 824 L846 835 L845 842 L843 848 L839 854 L835 868 L828 876 L823 878 L818 878 L814 876 L809 871 L806 862 L806 855 L808 850 L811 825 L812 824 L812 817 L813 816 L813 809 L815 801 L815 790 L816 789 L816 782 L818 775 L819 761 L820 760 L821 749 L824 744 L827 750 L824 774 L826 773 L827 770 L827 762 L828 761 L828 750 L824 743 L828 734 L828 730 L830 724 L830 716 L829 717 L824 741 L823 742 L822 741 L823 723 L824 722 L825 704 L826 703 L826 684 L827 683 L827 639 L826 638 L827 612 L828 611 L833 582 L844 546 L848 530 L848 525 L855 518 Z M353 514 L355 513 L359 516 L357 517 Z M351 513 L352 512 L354 513 L353 514 Z M349 512 L350 511 L352 512 L351 513 Z M347 511 L348 510 L349 511 L348 512 Z M345 510 L346 509 L348 510 L347 511 Z M186 504 L190 507 L194 513 L208 542 L211 551 L212 559 L214 564 L214 595 L211 604 L203 612 L191 621 L183 625 L178 625 L170 621 L166 617 L165 614 L164 614 L166 620 L173 625 L168 630 L161 630 L160 629 L156 630 L155 628 L157 622 L157 613 L158 612 L158 608 L159 607 L160 608 L161 604 L161 598 L160 597 L161 578 L162 577 L163 565 L168 546 L170 524 L173 516 L180 506 Z M852 500 L859 507 L863 513 L851 519 L850 518 L850 510 L851 509 L851 501 Z M381 499 L397 503 L407 507 L411 507 L414 509 L433 515 L474 535 L504 547 L525 548 L549 540 L549 539 L548 540 L544 540 L536 544 L528 546 L523 546 L522 547 L505 546 L472 533 L456 524 L454 524 L421 509 L383 498 Z M653 478 L651 477 L632 483 L619 485 L608 490 Z M813 574 L812 570 L812 557 L810 551 L808 548 L804 534 L792 513 L776 498 L757 486 L747 482 L727 477 L721 477 L720 476 L687 478 L672 482 L659 489 L669 486 L674 483 L686 480 L690 480 L691 479 L712 479 L713 478 L723 478 L751 485 L774 498 L790 513 L802 533 L804 542 L807 547 L810 556 L811 563 L810 564 L808 562 L808 560 L802 550 L801 545 L797 539 L797 537 L787 524 L764 508 L762 508 L760 506 L758 506 L753 502 L748 500 L744 500 L739 498 L732 498 L731 497 L719 497 L718 496 L711 496 L710 495 L683 496 L682 497 L677 497 L659 504 L643 506 L642 507 L628 508 L606 517 L603 517 L600 519 L587 522 L572 530 L552 538 L555 538 L575 530 L588 523 L598 521 L627 510 L658 506 L679 498 L687 498 L688 497 L700 496 L701 497 L711 497 L712 498 L720 498 L721 499 L734 499 L735 500 L741 500 L749 502 L770 513 L785 524 L795 536 L801 551 L811 570 L812 574 Z M227 528 L228 527 L229 518 L233 507 L242 494 L249 488 L258 484 L267 483 L278 476 L283 476 L286 474 L297 473 L298 472 L313 473 L333 479 L343 484 L350 490 L352 490 L364 496 L372 502 L389 523 L391 529 L398 542 L399 548 L398 549 L381 531 L375 527 L371 526 L370 525 L371 524 L367 520 L352 512 L342 505 L329 500 L317 497 L307 497 L301 495 L286 495 L272 499 L263 499 L251 504 L241 515 L236 526 L235 522 L238 516 L237 515 L234 521 L235 531 L229 545 L227 540 Z M230 511 L226 526 L226 541 L227 542 L228 552 L230 551 L229 549 L231 545 L231 542 L234 537 L240 519 L245 512 L252 505 L258 502 L267 501 L268 500 L276 500 L279 498 L295 496 L296 497 L303 497 L311 499 L320 499 L337 504 L346 509 L343 510 L337 507 L338 509 L353 515 L375 530 L379 531 L398 551 L402 557 L410 574 L412 576 L412 574 L410 572 L401 554 L400 544 L392 528 L392 526 L379 507 L365 495 L350 488 L344 483 L325 474 L318 472 L311 472 L310 471 L293 471 L276 475 L268 481 L265 482 L258 482 L249 486 L241 493 L237 498 Z M682 470 L671 475 L668 475 L665 477 L666 478 L664 480 L651 484 L646 487 L606 497 L588 505 L583 506 L560 517 L554 518 L534 526 L524 527 L523 528 L510 528 L500 525 L472 512 L470 512 L447 500 L434 496 L401 482 L394 481 L391 484 L388 484 L383 482 L375 481 L371 479 L354 476 L350 474 L336 472 L341 474 L345 474 L355 478 L376 482 L380 484 L408 487 L443 501 L448 502 L482 519 L484 519 L501 527 L509 529 L526 529 L527 528 L536 527 L547 522 L561 518 L575 511 L600 501 L624 494 L633 493 L648 488 L666 480 L669 477 L681 472 Z M788 458 L789 457 L791 458 L790 459 Z M786 457 L787 456 L789 457 L788 458 Z M312 454 L313 456 L321 460 L334 464 L341 464 L351 467 L372 468 L379 470 L382 469 L383 470 L389 470 L394 472 L399 472 L403 474 L406 474 L414 477 L426 484 L433 486 L453 496 L460 498 L469 503 L509 518 L521 519 L522 518 L542 516 L551 513 L558 509 L569 506 L574 503 L599 493 L599 492 L593 495 L588 496 L583 499 L571 503 L569 505 L545 514 L537 515 L536 516 L529 516 L528 517 L512 517 L507 515 L503 515 L487 509 L482 506 L480 506 L475 503 L445 491 L439 487 L437 487 L405 472 L388 469 L387 468 L363 466 L362 465 L350 465 L340 462 L334 462 L320 458 Z M320 445 L321 447 L323 447 L324 446 L332 446 L333 445 L362 444 L363 445 L377 446 L378 447 L382 447 L383 448 L387 448 L392 450 L409 453 L441 465 L448 469 L450 469 L494 489 L514 496 L534 496 L546 493 L561 488 L596 473 L642 459 L657 458 L658 457 L690 457 L689 456 L651 456 L650 457 L635 459 L616 466 L613 466 L606 469 L597 471 L550 490 L530 495 L519 495 L518 494 L509 493 L503 490 L498 489 L433 460 L409 451 L400 450 L395 448 L391 448 L375 444 L360 443 L359 442 L356 443 L345 443 L344 444 Z M215 433 L216 434 L216 446 L215 447 L215 471 L214 472 L214 513 L215 514 L216 537 L217 538 L218 560 L219 561 L219 592 L218 593 L218 603 L217 604 L216 622 L215 623 L215 634 L214 635 L214 644 L213 645 L213 653 L212 654 L212 685 L213 686 L214 714 L215 715 L215 726 L216 727 L216 745 L215 746 L215 827 L216 828 L217 864 L216 865 L216 894 L215 895 L211 889 L210 878 L207 870 L207 849 L204 839 L201 841 L195 835 L189 833 L168 833 L166 832 L139 806 L138 801 L132 790 L132 692 L135 687 L135 662 L136 659 L141 654 L152 651 L161 651 L163 650 L164 651 L176 651 L181 653 L189 652 L194 646 L194 640 L196 632 L200 627 L209 621 L214 613 L215 595 L216 594 L216 565 L215 564 L215 559 L213 551 L211 548 L211 545 L205 530 L196 512 L190 503 L185 498 L176 494 L172 495 L168 499 L166 506 L167 506 L169 500 L174 496 L177 496 L186 502 L179 505 L176 508 L169 523 L168 534 L166 541 L166 548 L160 573 L158 603 L155 614 L154 629 L142 632 L140 631 L141 628 L141 617 L142 616 L143 603 L144 602 L144 595 L146 587 L149 582 L149 566 L150 565 L151 557 L153 554 L154 538 L157 529 L157 521 L161 509 L163 488 L166 484 L171 484 L181 489 L180 487 L174 484 L168 484 L167 483 L171 480 L174 474 L181 466 L190 464 L194 461 L202 460 L206 456 L209 448 L213 443 L214 434 Z M659 428 L656 429 L655 431 L657 431 Z M393 428 L393 429 L398 429 L399 430 L421 432 L422 433 L443 437 L475 450 L476 449 L480 449 L501 457 L509 458 L513 460 L526 462 L527 463 L543 463 L544 462 L548 462 L590 445 L593 445 L609 440 L621 439 L621 438 L613 438 L612 439 L606 439 L594 442 L548 460 L544 460 L543 461 L526 461 L494 453 L476 446 L472 447 L451 438 L429 432 L403 429 L402 428 Z M216 427 L217 428 L217 433 L216 434 L215 433 L215 428 Z M857 421 L858 422 L858 432 L857 433 L856 432 L856 422 Z M855 413 L856 414 L855 417 L854 416 Z M230 405 L227 426 L230 415 Z M791 334 L792 333 L793 334 L792 335 Z M349 293 L346 293 L339 297 L337 297 L327 302 L325 305 L336 299 L343 297 L349 294 Z M559 257 L570 263 L579 264 L585 267 L588 267 L599 272 L612 275 L619 279 L621 279 L621 278 L616 277 L611 274 L602 272 L583 264 L570 262 Z M543 246 L544 245 L546 246 L545 247 Z M567 166 L580 169 L593 175 L611 181 L628 190 L642 194 L651 200 L662 202 L676 210 L681 211 L701 220 L703 220 L724 230 L728 233 L732 234 L749 248 L758 251 L764 255 L775 266 L778 267 L787 274 L799 286 L823 306 L846 329 L850 339 L859 348 L860 352 L866 361 L867 364 L866 365 L866 372 L869 381 L869 388 L867 393 L866 408 L861 415 L858 422 L857 421 L856 395 L851 380 L846 370 L839 360 L827 348 L817 341 L804 335 L801 335 L791 331 L778 328 L770 324 L749 317 L737 311 L725 308 L719 305 L712 304 L687 296 L675 294 L660 289 L630 277 L595 261 L575 254 L570 251 L565 250 L559 247 L542 243 L522 243 L506 247 L502 249 L499 249 L480 256 L475 256 L454 262 L441 263 L416 270 L409 270 L398 273 L388 274 L384 276 L370 278 L366 280 L342 285 L333 288 L328 291 L318 292 L309 295 L290 304 L283 305 L267 314 L257 324 L258 325 L265 318 L278 309 L292 305 L316 294 L325 293 L326 294 L323 295 L324 296 L331 291 L344 286 L354 285 L364 281 L373 280 L381 277 L383 278 L375 284 L367 288 L364 291 L376 285 L390 275 L422 270 L443 264 L457 263 L468 259 L482 257 L509 248 L513 248 L524 245 L536 244 L543 246 L546 249 L557 254 L556 252 L552 251 L546 247 L550 246 L558 249 L561 249 L579 257 L584 258 L604 266 L618 273 L620 273 L639 284 L642 283 L645 285 L653 287 L673 295 L676 295 L690 300 L699 301 L713 306 L733 311 L755 321 L760 322 L784 332 L790 333 L791 334 L789 335 L799 341 L800 340 L795 338 L792 335 L795 334 L809 339 L823 347 L836 359 L846 373 L854 395 L854 401 L855 402 L855 413 L854 414 L847 393 L838 375 L828 362 L821 355 L811 347 L807 346 L815 352 L831 368 L839 380 L846 395 L851 410 L854 423 L854 428 L855 429 L855 453 L854 454 L853 465 L850 474 L849 502 L848 503 L847 520 L846 521 L846 525 L845 526 L841 547 L835 565 L828 593 L827 592 L827 584 L828 583 L827 582 L828 581 L828 574 L829 573 L829 564 L830 563 L830 554 L832 546 L833 531 L834 530 L835 518 L836 517 L837 488 L841 477 L842 465 L843 464 L844 446 L843 445 L843 433 L842 432 L841 419 L836 402 L829 391 L825 380 L820 372 L808 361 L798 354 L788 350 L786 348 L766 338 L758 336 L708 315 L599 278 L591 274 L583 272 L563 264 L547 256 L539 254 L523 253 L510 257 L508 259 L493 265 L484 270 L465 275 L461 275 L446 280 L439 280 L433 282 L428 282 L405 288 L399 288 L391 290 L382 290 L381 291 L369 292 L368 293 L361 293 L342 303 L339 303 L323 310 L299 316 L274 325 L266 332 L255 344 L247 355 L247 357 L261 340 L276 326 L298 318 L309 316 L316 313 L325 311 L334 306 L337 306 L348 302 L358 296 L365 294 L372 294 L378 292 L383 292 L384 291 L408 289 L421 285 L441 282 L442 281 L447 281 L451 279 L487 270 L519 255 L538 255 L546 257 L565 266 L570 267 L583 273 L588 274 L623 288 L661 300 L686 310 L706 316 L731 327 L744 331 L756 337 L769 341 L781 348 L797 355 L806 361 L815 369 L823 379 L825 386 L835 404 L840 422 L841 437 L842 438 L842 457 L841 458 L841 467 L839 473 L839 478 L836 485 L834 484 L831 472 L823 457 L809 442 L803 438 L793 433 L776 429 L752 432 L751 433 L742 433 L741 434 L742 435 L749 435 L750 434 L756 434 L769 431 L777 431 L793 435 L807 443 L822 459 L831 477 L833 488 L835 492 L835 513 L834 514 L834 519 L832 523 L827 506 L816 485 L807 473 L800 466 L790 459 L792 458 L796 460 L808 469 L799 461 L789 455 L786 455 L787 456 L785 457 L778 453 L757 448 L754 446 L733 440 L731 438 L728 438 L729 440 L733 442 L736 442 L761 451 L768 452 L780 456 L796 465 L809 478 L814 485 L824 503 L827 515 L832 525 L829 552 L827 558 L826 569 L822 584 L822 590 L819 603 L819 610 L821 615 L822 625 L823 626 L823 633 L824 634 L824 696 L823 697 L823 707 L822 708 L822 720 L820 725 L818 719 L818 714 L816 710 L816 716 L820 730 L820 738 L819 739 L819 749 L817 757 L817 765 L816 766 L815 778 L813 780 L812 779 L812 776 L809 769 L809 765 L807 762 L807 759 L804 752 L803 744 L794 734 L778 727 L755 724 L729 713 L717 710 L693 709 L692 710 L679 710 L674 712 L667 712 L661 715 L646 715 L638 721 L627 739 L616 729 L619 734 L627 741 L641 748 L655 752 L671 753 L672 754 L687 754 L693 756 L690 753 L660 751 L659 750 L646 748 L635 744 L628 739 L632 735 L636 726 L641 721 L646 718 L647 719 L646 718 L647 717 L655 716 L656 717 L644 724 L643 726 L645 726 L654 720 L672 714 L683 713 L684 712 L704 712 L710 714 L720 715 L729 718 L744 725 L750 729 L772 750 L790 771 L770 745 L757 732 L746 724 L749 723 L756 726 L760 726 L765 728 L778 729 L783 731 L789 735 L795 741 L800 748 L806 761 L813 789 L808 835 L807 836 L807 841 L806 842 L803 859 L793 887 L783 905 L787 902 L799 877 L800 878 L800 882 L799 883 L796 907 L795 908 L795 931 L793 935 L793 942 L789 950 L789 954 L788 955 L788 977 L787 978 L787 984 L779 994 L779 1002 L775 1008 L775 1018 L770 1025 L768 1040 L763 1050 L756 1058 L755 1067 L746 1082 L746 1089 L739 1095 L736 1102 L736 1109 L734 1113 L724 1123 L723 1126 L714 1138 L704 1147 L703 1158 L697 1163 L691 1174 L691 1176 L688 1179 L682 1180 L679 1182 L672 1190 L664 1190 L663 1189 L655 1190 L654 1189 L656 1187 L647 1190 L645 1193 L646 1199 L645 1200 L644 1199 L645 1202 L644 1210 L638 1216 L636 1217 L618 1217 L617 1218 L613 1218 L605 1213 L603 1213 L591 1218 L588 1217 L576 1218 L575 1217 L571 1217 L558 1209 L553 1209 L550 1211 L549 1209 L551 1206 L548 1206 L545 1210 L547 1213 L543 1217 L532 1220 L523 1221 L514 1226 L505 1226 L498 1230 L491 1236 L464 1236 L455 1227 L451 1227 L446 1230 L441 1229 L426 1213 L414 1206 L408 1200 L409 1197 L404 1192 L403 1193 L407 1197 L406 1198 L399 1197 L392 1194 L388 1195 L382 1190 L381 1185 L377 1178 L377 1174 L371 1165 L371 1161 L369 1158 L364 1140 L364 1135 L361 1122 L361 1094 L365 1082 L365 1076 L368 1070 L369 1065 L370 1064 L371 1065 L371 1073 L375 1085 L382 1097 L387 1102 L377 1086 L372 1070 L372 1062 L390 1044 L404 1037 L419 1033 L443 1033 L444 1034 L458 1035 L459 1036 L468 1036 L469 1037 L480 1038 L499 1043 L511 1044 L512 1045 L532 1045 L533 1044 L541 1043 L552 1039 L566 1032 L576 1025 L596 1006 L614 984 L620 979 L629 975 L636 975 L644 983 L647 989 L649 996 L649 1014 L652 1020 L651 1029 L650 1030 L650 1034 L651 1034 L653 1027 L653 1021 L654 1020 L654 1011 L653 1010 L653 1003 L651 999 L650 991 L645 981 L638 973 L638 971 L632 966 L633 965 L637 965 L645 968 L653 975 L658 984 L659 983 L655 975 L647 967 L639 963 L622 963 L612 966 L591 978 L556 1005 L540 1013 L530 1016 L516 1016 L515 1015 L506 1014 L495 1010 L482 1008 L472 1004 L469 1004 L466 1002 L463 1002 L461 999 L441 1000 L424 1005 L411 1011 L393 1023 L377 1040 L371 1052 L365 1072 L358 1085 L358 1088 L360 1090 L359 1094 L359 1123 L360 1124 L360 1130 L363 1142 L362 1145 L354 1144 L348 1139 L340 1137 L319 1117 L317 1112 L305 1100 L303 1094 L296 1086 L295 1079 L290 1072 L289 1064 L284 1056 L283 1049 L281 1045 L282 1039 L279 1031 L275 1027 L271 1020 L259 1007 L256 1005 L248 1004 L235 991 L233 980 L226 972 L224 961 L221 953 L221 924 L220 923 L219 909 L218 908 L218 870 L219 869 L218 799 L217 798 L218 721 L217 720 L217 708 L216 707 L216 695 L215 694 L215 682 L214 681 L214 662 L215 661 L216 638 L217 637 L219 610 L221 602 L221 588 L222 587 L222 565 L221 564 L219 533 L218 532 L218 515 L225 493 L230 484 L239 475 L252 468 L261 467 L267 465 L273 465 L274 464 L301 464 L307 466 L310 466 L310 465 L299 462 L273 462 L268 464 L257 465 L253 467 L247 468 L236 475 L226 487 L220 503 L219 512 L218 513 L217 512 L217 505 L216 504 L216 489 L222 471 L228 460 L239 449 L254 440 L262 438 L274 438 L297 444 L311 445 L311 444 L306 444 L305 443 L286 440 L280 437 L280 432 L283 425 L284 417 L291 401 L303 388 L312 382 L320 378 L329 376 L335 372 L334 371 L308 383 L301 388 L292 397 L283 415 L281 427 L278 435 L279 436 L278 437 L274 437 L273 436 L259 437 L252 439 L244 444 L243 443 L243 438 L250 417 L247 421 L244 433 L242 436 L242 440 L241 441 L242 445 L236 449 L229 456 L223 465 L218 478 L217 477 L218 429 L219 428 L219 419 L220 418 L220 407 L223 398 L222 384 L225 376 L232 367 L233 368 L232 374 L229 379 L228 384 L225 388 L225 390 L227 389 L233 374 L232 366 L244 346 L251 338 L248 339 L244 343 L229 368 L228 367 L228 358 L233 347 L233 342 L238 334 L241 324 L248 312 L248 310 L266 289 L295 260 L304 253 L310 251 L316 246 L325 242 L330 238 L350 229 L366 218 L401 200 L410 194 L428 189 L430 187 L432 187 L437 184 L454 178 L457 178 L460 176 L463 176 L470 173 L474 173 L478 171 L493 169 L499 167 L505 167 L506 166 L522 166 L523 165 Z M564 163 L548 163 L547 162 L510 163 L509 164 L501 164 L500 165 L483 167 L470 171 L466 171 L454 176 L447 177 L422 188 L414 189 L409 191 L402 196 L365 215 L353 224 L331 234 L322 241 L320 241 L310 248 L302 251 L293 258 L262 289 L259 294 L247 306 L247 308 L239 322 L236 332 L231 340 L230 348 L226 355 L226 368 L225 372 L223 374 L220 382 L220 387 L219 388 L220 398 L217 408 L217 418 L213 428 L211 436 L211 441 L207 446 L205 453 L201 457 L194 458 L190 461 L183 462 L178 465 L173 470 L171 475 L162 484 L159 492 L159 507 L155 517 L154 530 L151 539 L151 550 L147 560 L146 582 L142 590 L142 598 L140 604 L138 629 L137 633 L134 635 L130 642 L130 653 L132 657 L131 658 L131 664 L133 667 L132 669 L132 683 L133 685 L129 694 L129 699 L130 700 L129 703 L129 713 L130 714 L130 728 L129 729 L129 787 L130 791 L137 807 L165 835 L167 836 L191 836 L199 843 L203 845 L204 847 L204 869 L205 870 L205 874 L208 880 L209 891 L214 898 L215 914 L218 919 L219 957 L222 963 L222 967 L224 973 L231 982 L232 990 L234 994 L246 1006 L256 1008 L269 1022 L274 1030 L278 1034 L279 1037 L279 1047 L282 1054 L282 1058 L286 1063 L287 1071 L293 1081 L293 1086 L296 1091 L301 1096 L305 1104 L316 1115 L317 1119 L330 1132 L339 1139 L346 1141 L354 1147 L358 1146 L364 1150 L365 1156 L369 1163 L369 1166 L375 1176 L375 1181 L376 1184 L379 1187 L380 1192 L386 1197 L392 1197 L395 1199 L403 1199 L412 1208 L423 1214 L439 1231 L441 1232 L448 1232 L451 1230 L454 1230 L460 1237 L465 1239 L487 1239 L488 1238 L491 1239 L494 1238 L501 1231 L505 1229 L513 1229 L522 1224 L543 1220 L553 1212 L560 1213 L567 1218 L573 1220 L594 1220 L603 1216 L605 1216 L610 1220 L637 1220 L645 1213 L647 1209 L647 1203 L649 1200 L648 1197 L648 1193 L651 1191 L652 1192 L671 1193 L674 1192 L681 1184 L685 1182 L688 1182 L692 1179 L698 1167 L704 1161 L706 1157 L706 1150 L707 1148 L716 1140 L725 1128 L725 1126 L736 1115 L738 1111 L739 1100 L747 1092 L749 1087 L749 1081 L752 1078 L755 1071 L757 1069 L758 1060 L762 1056 L769 1044 L772 1035 L772 1026 L777 1019 L777 1010 L782 1002 L782 994 L786 990 L790 982 L791 952 L795 944 L795 937 L797 933 L798 910 L805 903 L807 896 L823 880 L826 880 L830 878 L837 870 L841 856 L846 848 L848 837 L852 832 L855 826 L855 822 L860 814 L861 798 L863 793 L863 773 L864 772 L864 765 L866 759 L866 746 L868 743 L871 733 L871 703 L870 702 L870 696 L872 691 L872 685 L876 678 L875 671 L879 666 L881 661 L881 654 L877 643 L878 642 L880 624 L883 613 L883 608 L885 603 L886 591 L891 571 L891 539 L889 534 L880 525 L879 522 L874 517 L870 515 L852 496 L852 483 L853 482 L853 475 L856 465 L856 460 L858 455 L858 440 L861 431 L861 421 L869 408 L869 396 L871 391 L871 377 L869 372 L869 361 L864 353 L862 347 L852 337 L849 328 L830 308 L801 284 L783 267 L777 264 L763 251 L749 245 L734 232 L726 229 L717 223 L712 222 L703 217 L701 217 L679 207 L676 207 L663 199 L654 198 L640 191 L638 189 L628 187 L618 181 L606 177 L601 174 L598 174 L586 168 L583 168 L577 165 L565 164 Z" fill="#eef3f4" fill-rule="evenodd"/>
</svg>
