<svg xmlns="http://www.w3.org/2000/svg" width="1024" height="1536" viewBox="0 0 1024 1536">
  <title>0392</title>
  <path d="M428 1242 L428 1246 L429 1247 L430 1246 L429 1242 L431 1240 L432 1242 L434 1239 L438 1238 L444 1243 L444 1247 L447 1246 L445 1242 L438 1237 L432 1238 Z M449 1223 L454 1224 L458 1229 L457 1233 L454 1236 L450 1236 L444 1231 L444 1227 Z M425 1225 L427 1223 L432 1222 L437 1226 L438 1229 L435 1233 L429 1234 L424 1229 Z M447 1222 L443 1226 L443 1232 L447 1236 L450 1237 L456 1236 L459 1232 L458 1226 L455 1223 Z M407 1222 L408 1221 L415 1222 L419 1227 L419 1232 L417 1234 L412 1234 L407 1229 L406 1226 Z M423 1225 L423 1230 L428 1235 L436 1234 L439 1230 L438 1225 L433 1221 L428 1221 Z M406 1221 L405 1227 L406 1230 L410 1234 L417 1235 L420 1233 L421 1231 L420 1226 L414 1220 L411 1219 Z M458 1218 L459 1217 L460 1219 L459 1220 Z M458 1216 L457 1220 L462 1223 L462 1231 L463 1233 L468 1237 L475 1237 L479 1241 L479 1243 L475 1247 L470 1247 L466 1245 L462 1245 L460 1247 L459 1244 L458 1244 L458 1249 L460 1249 L463 1246 L469 1248 L477 1247 L482 1239 L480 1240 L476 1236 L468 1236 L463 1231 L463 1226 L466 1222 L471 1222 L476 1227 L476 1225 L471 1221 L466 1221 L462 1223 L461 1222 L461 1217 Z M517 1212 L518 1213 L518 1218 L508 1225 L505 1220 L507 1212 L508 1211 L509 1212 Z M402 1206 L404 1206 L408 1209 L409 1213 L406 1217 L403 1217 L399 1214 L399 1208 Z M402 1205 L398 1209 L397 1212 L402 1218 L406 1218 L410 1214 L410 1210 L407 1206 Z M421 1203 L424 1204 L429 1211 L429 1215 L425 1218 L419 1216 L416 1213 L416 1208 Z M438 1205 L441 1202 L446 1201 L451 1203 L455 1207 L455 1210 L452 1214 L447 1215 L438 1210 Z M437 1204 L436 1209 L441 1214 L445 1216 L451 1216 L456 1211 L455 1205 L450 1201 L443 1200 L440 1201 Z M417 1187 L420 1187 L423 1190 L423 1194 L421 1196 L416 1192 L416 1188 Z M417 1186 L414 1189 L415 1193 L420 1197 L423 1196 L431 1204 L431 1210 L430 1211 L429 1210 L429 1207 L425 1203 L420 1202 L416 1205 L414 1209 L414 1212 L420 1218 L426 1219 L429 1217 L432 1212 L432 1205 L431 1202 L424 1196 L425 1192 L424 1189 L421 1186 Z M398 1178 L399 1177 L400 1178 L399 1179 Z M394 1177 L398 1179 L402 1184 L398 1191 L394 1190 L391 1186 L391 1179 Z M397 1177 L398 1176 L399 1177 L398 1178 Z M394 1170 L398 1176 L397 1177 L393 1175 L393 1171 Z M393 1163 L391 1168 L393 1176 L390 1178 L389 1185 L392 1190 L396 1192 L399 1192 L404 1186 L408 1190 L408 1196 L405 1198 L401 1198 L398 1195 L397 1196 L402 1200 L407 1199 L410 1195 L409 1189 L402 1183 L401 1177 L396 1171 L394 1163 Z M446 1137 L456 1141 L472 1142 L473 1143 L491 1143 L492 1142 L505 1141 L509 1139 L499 1140 L498 1141 L463 1141 Z M365 1135 L360 1138 L357 1137 L362 1134 Z M364 1134 L365 1133 L367 1134 L366 1135 Z M634 1101 L635 1100 L636 1101 L635 1102 Z M442 1096 L443 1095 L444 1096 L443 1097 Z M446 1097 L449 1094 L454 1094 L455 1095 L465 1096 L466 1099 L465 1100 L456 1100 Z M444 1094 L445 1093 L448 1094 L446 1096 Z M520 1091 L521 1090 L522 1091 L521 1092 Z M518 1090 L516 1094 L500 1099 L497 1099 L496 1097 L494 1100 L484 1100 L483 1101 L468 1101 L467 1100 L468 1096 L498 1095 L510 1091 L513 1091 L516 1089 Z M531 1084 L531 1086 L524 1091 L521 1090 L521 1088 L523 1086 L529 1083 Z M421 1084 L422 1083 L432 1088 L445 1093 L442 1096 L430 1093 L421 1088 Z M590 1083 L589 1083 L587 1087 L581 1107 L581 1121 L582 1121 L583 1107 L585 1103 L587 1091 Z M396 1082 L396 1079 L398 1078 L401 1083 L410 1088 L421 1090 L427 1094 L446 1100 L450 1100 L456 1102 L485 1103 L486 1102 L505 1100 L514 1097 L519 1094 L522 1094 L531 1089 L540 1087 L547 1082 L549 1082 L556 1078 L558 1079 L551 1092 L551 1096 L549 1101 L549 1109 L538 1117 L519 1126 L510 1129 L506 1129 L501 1131 L493 1131 L492 1132 L471 1132 L470 1131 L454 1129 L445 1126 L429 1118 L407 1105 L400 1103 L398 1101 L399 1100 L399 1090 Z M669 1078 L670 1077 L671 1078 L670 1079 Z M338 1077 L339 1078 L340 1090 L341 1091 L342 1108 L347 1118 L356 1123 L352 1125 L340 1126 L333 1124 L326 1118 L323 1112 L323 1100 L326 1091 L333 1081 Z M599 1075 L607 1081 L611 1086 L615 1096 L615 1105 L611 1116 L603 1124 L597 1126 L596 1125 L599 1122 L601 1115 L600 1114 L601 1113 L600 1112 L599 1095 L598 1094 L598 1076 Z M670 1077 L672 1073 L675 1075 L672 1078 Z M258 1070 L259 1069 L260 1070 L259 1071 Z M243 1069 L244 1068 L250 1075 L254 1077 L264 1078 L266 1080 L271 1091 L273 1093 L273 1095 L276 1099 L278 1105 L282 1111 L291 1120 L297 1124 L307 1128 L311 1133 L311 1135 L315 1141 L321 1146 L332 1150 L334 1149 L341 1149 L373 1134 L385 1135 L396 1142 L404 1151 L410 1160 L424 1174 L440 1185 L448 1189 L468 1194 L481 1194 L497 1190 L498 1191 L498 1198 L503 1203 L506 1208 L506 1212 L504 1216 L504 1222 L507 1227 L507 1230 L510 1229 L518 1221 L522 1227 L529 1228 L531 1230 L531 1233 L533 1237 L529 1239 L521 1240 L514 1246 L508 1246 L500 1244 L492 1245 L489 1248 L490 1256 L487 1258 L477 1258 L475 1256 L468 1253 L461 1254 L458 1256 L451 1256 L450 1257 L449 1256 L443 1256 L433 1252 L423 1252 L422 1253 L421 1252 L414 1252 L403 1246 L395 1246 L393 1245 L382 1234 L373 1234 L359 1228 L348 1217 L343 1214 L336 1212 L315 1212 L298 1204 L295 1201 L286 1196 L274 1185 L261 1158 L253 1138 L250 1127 L248 1124 L248 1121 L244 1110 L244 1106 L242 1100 L242 1091 L241 1090 L241 1079 L242 1078 Z M564 1068 L564 1071 L562 1073 L549 1080 L547 1079 L546 1076 L545 1077 L545 1081 L537 1086 L534 1087 L531 1083 L535 1079 L555 1066 L561 1065 Z M581 1066 L574 1073 L570 1079 L561 1098 L560 1107 L561 1108 L562 1116 L564 1118 L561 1119 L547 1130 L537 1136 L506 1146 L492 1147 L491 1148 L469 1148 L468 1147 L452 1145 L438 1140 L427 1135 L425 1133 L419 1131 L404 1122 L391 1112 L392 1109 L398 1103 L413 1110 L425 1118 L445 1128 L457 1132 L470 1133 L471 1134 L491 1134 L492 1133 L506 1132 L526 1125 L553 1110 L551 1108 L551 1101 L552 1100 L553 1092 L560 1079 L565 1073 L567 1067 L566 1068 L563 1065 L568 1063 L569 1064 L577 1064 Z M384 1066 L387 1062 L392 1064 L404 1073 L419 1081 L421 1083 L419 1087 L416 1088 L405 1083 L401 1079 L400 1075 L397 1077 L391 1076 L385 1071 Z M384 1061 L385 1063 L381 1067 L380 1066 L381 1062 Z M358 1062 L361 1062 L365 1060 L380 1060 L381 1061 L379 1064 L379 1067 L386 1075 L394 1080 L397 1091 L397 1098 L395 1104 L389 1111 L380 1110 L379 1109 L382 1102 L382 1096 L380 1089 L374 1079 L356 1064 Z M595 1058 L596 1059 L596 1089 L597 1090 L597 1103 L599 1109 L599 1117 L596 1123 L593 1126 L588 1128 L580 1128 L574 1126 L565 1118 L562 1110 L562 1102 L565 1092 L574 1076 L586 1064 Z M338 1055 L343 1056 L362 1071 L370 1080 L371 1079 L375 1083 L378 1089 L380 1097 L380 1103 L378 1109 L370 1118 L362 1121 L353 1120 L345 1112 L343 1093 L342 1092 L342 1085 L341 1084 L339 1069 L338 1068 L338 1061 L337 1060 L337 1056 Z M730 1054 L731 1053 L732 1054 L731 1055 Z M321 1103 L321 1109 L324 1118 L331 1125 L337 1127 L349 1127 L366 1122 L371 1119 L379 1111 L384 1111 L392 1114 L404 1124 L412 1129 L438 1142 L465 1149 L488 1150 L489 1149 L497 1149 L498 1148 L512 1146 L525 1142 L528 1140 L535 1139 L547 1132 L555 1125 L563 1120 L572 1127 L581 1130 L587 1130 L599 1127 L605 1124 L612 1117 L616 1108 L616 1093 L611 1083 L605 1077 L598 1073 L598 1060 L596 1057 L593 1057 L582 1065 L576 1062 L564 1062 L552 1065 L525 1084 L508 1091 L500 1093 L495 1093 L494 1094 L471 1095 L470 1094 L451 1093 L432 1087 L407 1074 L401 1069 L385 1059 L381 1058 L367 1058 L354 1063 L347 1057 L341 1054 L337 1054 L336 1055 L336 1065 L337 1066 L338 1075 L327 1087 L323 1095 Z M669 1051 L670 1050 L671 1051 L670 1052 Z M249 1048 L250 1046 L252 1047 L250 1049 Z M535 1046 L518 1062 L507 1068 L511 1068 L521 1062 L533 1050 Z M227 1045 L228 1044 L229 1045 L228 1046 Z M667 1041 L666 1041 L665 1045 L662 1049 L667 1044 Z M231 1040 L234 1043 L236 1043 L239 1040 L242 1043 L245 1050 L245 1056 L244 1057 L245 1061 L246 1061 L246 1057 L247 1056 L247 1052 L244 1046 L245 1043 L250 1051 L251 1055 L257 1062 L258 1061 L251 1052 L252 1048 L256 1046 L265 1053 L262 1061 L262 1069 L261 1070 L258 1066 L257 1067 L259 1069 L258 1070 L256 1069 L257 1071 L263 1075 L261 1077 L257 1077 L253 1075 L235 1058 L230 1044 Z M683 1038 L684 1039 L683 1043 L682 1042 Z M232 1038 L235 1036 L237 1039 L233 1040 Z M242 1035 L245 1042 L244 1044 L239 1040 Z M297 1035 L298 1034 L299 1035 L298 1036 Z M359 1032 L360 1031 L361 1032 L360 1033 Z M574 1029 L575 1028 L576 1029 L575 1030 Z M637 1027 L640 1030 L641 1035 L636 1042 L631 1043 L627 1039 L628 1033 L631 1029 Z M668 1031 L664 1036 L658 1039 L652 1039 L650 1037 L650 1033 L655 1028 L659 1026 L664 1026 Z M637 1026 L632 1027 L628 1030 L626 1034 L626 1040 L630 1044 L637 1043 L642 1036 L642 1031 Z M289 1024 L294 1026 L297 1030 L296 1036 L293 1038 L289 1038 L284 1033 L284 1029 Z M285 1024 L286 1023 L287 1024 L286 1025 Z M665 1025 L658 1023 L653 1024 L653 1025 L657 1026 L654 1027 L649 1032 L648 1034 L649 1038 L651 1040 L655 1041 L665 1037 L668 1034 L668 1029 Z M269 1019 L269 1020 L276 1021 L275 1019 L271 1018 Z M258 1016 L262 1018 L265 1022 L265 1025 L263 1028 L263 1036 L264 1037 L256 1039 L255 1040 L257 1044 L256 1045 L248 1046 L244 1038 L243 1029 L241 1026 L241 1021 L243 1018 L245 1020 L246 1024 L245 1028 L249 1031 L251 1031 L254 1027 L254 1019 Z M246 1013 L249 1015 L252 1022 L252 1028 L250 1030 L247 1027 L247 1021 L244 1017 L244 1015 Z M695 1013 L696 1012 L697 1014 L696 1015 Z M696 1011 L697 1010 L698 1011 L697 1012 Z M703 1009 L705 1011 L705 1019 L699 1025 L697 1023 L697 1016 L698 1013 Z M685 1009 L689 1018 L687 1020 L685 1020 L683 1017 L683 1011 Z M342 1001 L339 1004 L335 1012 L330 1017 L326 1025 L328 1021 L333 1016 L341 1012 L339 1010 L339 1008 L342 1003 Z M694 995 L697 998 L697 1007 L694 1013 L690 1017 L688 1015 L687 1011 L687 1002 L689 998 L692 995 Z M675 995 L671 996 L666 1003 L666 1006 L667 1006 L667 1004 L671 998 L673 997 L677 998 L679 1002 L679 1008 L677 1012 L674 1014 L675 1015 L678 1013 L681 1006 L679 998 Z M691 994 L686 1001 L685 1006 L682 1012 L682 1017 L684 1021 L687 1022 L695 1014 L696 1015 L696 1024 L698 1026 L700 1026 L705 1022 L707 1018 L707 1013 L706 1010 L703 1008 L701 1008 L698 1011 L697 1010 L699 1005 L698 997 L696 994 Z M701 992 L701 1000 L702 1002 L704 1002 L702 999 L702 994 L703 993 L703 991 Z M264 987 L267 990 L267 994 L262 1000 L259 1000 L257 998 L257 993 L262 987 Z M265 986 L261 986 L256 992 L256 998 L258 1001 L262 1001 L268 996 L269 991 Z M712 985 L709 985 L705 991 L705 997 L708 1003 L710 1003 L713 1000 L709 1001 L707 999 L707 995 L706 994 L708 988 L710 986 L713 988 L714 992 L715 991 L714 987 Z M697 975 L699 978 L699 984 L698 985 L694 981 Z M678 974 L679 975 L675 981 L673 982 L672 981 L673 976 L675 974 Z M243 974 L246 977 L246 984 L242 989 L239 989 L238 988 L238 981 Z M242 974 L238 978 L236 987 L238 991 L239 1001 L244 997 L245 998 L245 1006 L242 1008 L244 1009 L247 1004 L247 998 L244 995 L240 999 L238 996 L238 993 L241 990 L245 989 L247 986 L248 978 L245 974 Z M684 971 L688 976 L688 984 L684 990 L678 991 L674 988 L673 985 L679 978 L680 974 Z M269 971 L271 971 L273 975 L270 982 L268 982 L266 980 L266 974 Z M257 970 L261 975 L261 979 L260 982 L257 985 L255 985 L252 982 L251 979 L252 975 Z M684 969 L679 974 L677 972 L675 972 L671 977 L671 984 L674 990 L677 992 L685 991 L690 984 L690 978 L688 972 Z M250 978 L251 983 L256 987 L261 983 L262 979 L264 977 L265 981 L269 984 L273 980 L274 974 L273 971 L271 969 L269 969 L266 972 L265 976 L263 977 L260 970 L256 969 L253 971 Z M705 966 L708 972 L708 977 L706 982 L702 985 L700 983 L700 973 L702 968 Z M706 965 L703 965 L698 973 L695 968 L692 966 L689 969 L689 970 L691 968 L693 968 L695 970 L695 977 L693 982 L696 987 L698 987 L699 984 L702 986 L705 985 L708 982 L709 970 Z M716 963 L713 964 L711 970 L711 975 L713 978 L714 978 L713 968 L715 964 L717 965 Z M265 957 L268 957 L270 959 L270 963 L267 967 L264 967 L262 965 L262 961 Z M273 955 L274 958 L271 961 L270 957 Z M678 947 L682 951 L683 954 L682 960 L680 962 L678 962 L675 957 L675 949 Z M254 946 L258 946 L260 948 L260 954 L256 960 L252 960 L250 958 L250 953 Z M245 946 L246 947 L246 954 L243 956 L242 955 L243 954 L243 949 Z M690 945 L693 947 L695 951 L695 957 L691 962 L687 959 L686 956 L687 955 L687 949 Z M700 944 L703 946 L704 950 L703 954 L701 956 L698 951 L698 946 Z M259 945 L254 945 L249 951 L246 945 L243 946 L241 956 L244 958 L247 955 L247 951 L248 950 L249 951 L249 959 L250 961 L246 968 L242 967 L243 969 L242 970 L239 968 L240 965 L238 966 L238 970 L240 972 L243 969 L244 970 L247 969 L249 967 L251 961 L257 961 L259 959 L262 952 L261 947 Z M709 942 L711 943 L713 947 L713 955 L710 958 L707 954 L707 945 Z M708 941 L706 944 L706 955 L709 959 L712 959 L715 952 L714 946 L710 941 Z M279 932 L277 932 L277 938 L276 939 L271 938 L271 940 L266 947 L266 954 L267 956 L263 957 L260 962 L261 966 L263 968 L269 967 L271 963 L276 958 L276 953 L274 952 L271 955 L269 955 L267 953 L267 948 L272 940 L278 942 Z M675 928 L678 929 L681 936 L680 937 L680 941 L678 943 L675 943 L673 940 L673 930 Z M690 927 L692 927 L694 929 L696 934 L696 938 L694 941 L691 941 L687 937 L687 930 Z M691 925 L686 929 L685 935 L687 940 L692 943 L689 944 L686 947 L684 953 L682 949 L678 945 L681 942 L682 939 L681 932 L678 927 L674 926 L672 929 L671 933 L672 939 L674 941 L675 945 L678 946 L673 950 L674 958 L678 964 L676 966 L674 966 L671 963 L673 967 L678 966 L685 957 L689 963 L694 962 L696 959 L696 952 L697 951 L701 958 L703 958 L704 956 L704 946 L702 942 L699 942 L696 951 L695 947 L692 944 L697 939 L697 931 Z M263 923 L266 926 L266 935 L263 939 L260 940 L257 936 L257 933 L259 927 Z M703 922 L707 926 L708 933 L706 936 L701 929 L701 924 Z M256 922 L255 922 L249 930 L252 929 L253 930 L253 938 L250 942 L252 942 L254 939 L254 930 L252 928 Z M385 919 L386 918 L387 919 L386 920 Z M275 918 L276 919 L276 924 L274 928 L271 930 L270 929 L270 923 L272 919 Z M251 918 L252 917 L253 918 L252 919 Z M276 917 L273 917 L270 920 L269 928 L268 929 L267 925 L264 922 L259 925 L256 932 L256 937 L259 941 L263 941 L266 938 L269 929 L270 932 L272 932 L275 929 L277 925 L277 918 Z M699 913 L701 916 L701 921 L700 922 L698 916 Z M697 913 L698 912 L699 913 L698 914 Z M560 912 L560 914 L568 919 L580 931 L585 939 L594 959 L604 989 L610 1002 L616 1011 L622 1017 L634 1024 L638 1024 L639 1025 L646 1024 L646 1023 L637 1023 L629 1020 L618 1011 L613 1004 L607 992 L592 950 L585 936 L581 930 L569 918 Z M690 912 L690 916 L693 923 L697 924 L699 921 L700 922 L699 925 L700 931 L703 936 L707 937 L709 934 L709 929 L706 922 L702 919 L701 913 L696 911 L698 920 L695 922 L692 918 L692 913 Z M550 945 L546 935 L538 928 L526 926 L517 931 L516 930 L516 924 L518 920 L524 914 L534 911 L535 912 L539 912 L537 911 L529 911 L521 915 L516 922 L516 935 L515 938 L518 946 L522 949 L519 950 L515 947 L515 949 L521 952 L523 952 L528 949 L528 948 L521 947 L517 941 L517 935 L521 930 L525 928 L534 928 L540 931 L545 937 L549 948 L549 957 L546 966 L536 977 L531 979 L527 979 L517 975 L508 976 L503 978 L493 985 L484 994 L478 997 L474 997 L473 998 L468 998 L460 995 L448 983 L438 977 L432 975 L424 975 L416 978 L403 973 L392 963 L390 958 L389 948 L393 935 L391 937 L388 945 L388 956 L389 960 L395 970 L403 975 L415 980 L413 982 L412 986 L421 995 L416 989 L415 983 L419 979 L424 977 L435 978 L442 981 L459 997 L468 1000 L479 999 L490 992 L500 982 L509 978 L516 977 L517 978 L521 978 L527 982 L527 989 L522 995 L518 997 L521 997 L528 991 L530 984 L532 990 L533 990 L533 986 L530 981 L540 976 L547 968 L550 959 L549 958 L550 957 Z M394 932 L395 933 L400 929 L409 926 L421 925 L424 927 L427 932 L427 940 L423 946 L429 946 L430 945 L426 944 L429 940 L431 932 L429 932 L424 925 L420 923 L415 923 L407 925 L404 927 L402 926 L410 917 L419 912 L422 912 L428 916 L431 921 L431 925 L432 926 L432 920 L430 916 L424 911 L418 911 L409 916 Z M679 908 L683 912 L686 919 L686 923 L684 926 L679 922 L677 916 L677 911 Z M251 907 L252 910 L250 917 L249 916 L249 910 Z M679 907 L676 909 L675 915 L679 924 L682 927 L685 927 L687 925 L687 917 L685 912 Z M398 904 L399 903 L400 904 L399 905 Z M399 903 L400 902 L401 903 L400 904 Z M248 903 L246 905 L245 910 L243 913 L240 925 L243 919 Z M400 902 L401 901 L402 902 L401 903 Z M402 901 L403 900 L404 901 L403 902 Z M403 900 L404 899 L405 900 L404 901 Z M266 900 L263 901 L260 909 L261 909 Z M405 899 L406 898 L407 899 L406 900 Z M691 897 L694 901 L694 905 L693 906 L690 901 Z M408 897 L409 896 L410 897 L409 898 Z M410 896 L411 895 L412 896 L411 897 Z M276 895 L277 897 L273 908 L272 907 L272 898 Z M263 896 L261 897 L258 902 L258 904 L255 907 L252 907 L250 905 L249 906 L247 914 L248 917 L251 918 L252 920 L255 920 L252 917 L253 909 L258 907 L260 901 L263 898 Z M684 893 L688 896 L688 905 L687 906 L684 904 L682 900 L682 895 Z M684 891 L681 894 L681 901 L683 905 L687 908 L690 904 L692 907 L695 908 L696 907 L695 900 L692 896 L690 896 L688 893 Z M258 889 L259 888 L260 889 L259 890 Z M259 887 L260 886 L261 888 L260 889 Z M275 883 L273 883 L273 885 L269 889 L269 893 L268 894 L271 897 L270 907 L273 909 L264 918 L262 917 L261 912 L260 912 L260 917 L262 919 L265 919 L272 913 L276 906 L279 893 L277 892 L272 896 L270 894 Z M627 869 L628 868 L629 869 L628 870 Z M628 867 L629 866 L630 868 L629 869 Z M629 866 L630 865 L631 866 L630 867 Z M630 865 L631 864 L632 865 L631 866 Z M631 863 L632 862 L633 863 L632 864 Z M632 861 L633 860 L634 862 L633 863 Z M633 860 L634 859 L635 860 L634 861 Z M548 860 L549 859 L551 862 L550 863 Z M547 859 L548 858 L549 859 L548 860 Z M634 858 L635 857 L636 859 L635 860 Z M546 857 L547 856 L548 857 L547 858 Z M510 856 L511 855 L512 856 L511 857 Z M304 856 L305 855 L306 856 L305 857 Z M514 853 L516 857 L515 859 L513 857 Z M306 851 L307 850 L308 851 L307 852 Z M513 848 L514 849 L513 853 L512 852 Z M511 846 L512 845 L513 846 L512 847 Z M303 845 L304 844 L305 845 L304 846 Z M443 833 L448 841 L450 848 L451 859 L452 860 L452 868 L453 869 L453 877 L454 878 L454 912 L453 913 L447 898 L440 893 L434 891 L426 891 L419 893 L414 896 L411 895 L424 883 L433 869 L438 857 L442 834 Z M755 828 L756 827 L757 829 L756 830 Z M540 817 L539 833 L540 834 L540 839 L543 848 L544 856 L551 868 L560 876 L568 880 L585 884 L586 883 L601 882 L613 879 L627 871 L629 871 L636 863 L642 853 L643 848 L641 848 L638 856 L636 858 L635 857 L638 851 L642 837 L642 830 L643 829 L642 818 L642 832 L639 845 L633 859 L628 865 L618 873 L612 876 L598 880 L582 878 L571 874 L565 870 L568 873 L587 881 L586 882 L580 882 L572 880 L559 873 L550 864 L551 862 L553 863 L547 855 L542 842 L542 838 L541 837 L541 816 Z M277 811 L278 812 L275 815 L275 823 L277 828 L281 833 L287 836 L295 837 L298 840 L304 850 L305 855 L304 856 L298 853 L289 853 L276 860 L261 874 L256 881 L250 893 L251 894 L255 887 L256 888 L255 891 L256 893 L261 891 L262 885 L260 884 L256 888 L255 886 L261 876 L273 864 L285 856 L296 854 L305 858 L307 860 L315 882 L325 898 L334 907 L346 914 L357 917 L369 917 L383 913 L397 904 L399 905 L387 918 L385 918 L380 921 L367 934 L358 947 L350 963 L345 978 L331 1003 L322 1013 L315 1018 L309 1020 L309 1022 L313 1022 L315 1020 L317 1020 L321 1025 L321 1031 L316 1037 L313 1035 L310 1025 L307 1028 L300 1030 L300 1034 L299 1035 L298 1034 L298 1028 L295 1025 L288 1022 L280 1023 L279 1024 L279 1034 L277 1036 L273 1036 L269 1032 L263 1017 L257 1015 L252 1019 L250 1015 L246 1012 L243 1015 L240 1021 L237 1023 L237 1026 L238 1027 L239 1025 L241 1028 L242 1035 L241 1036 L238 1029 L239 1037 L238 1038 L235 1035 L233 1035 L230 1039 L229 1038 L228 1028 L227 1027 L227 1019 L226 1018 L226 991 L227 990 L227 981 L228 980 L229 968 L236 940 L237 939 L239 942 L242 941 L246 932 L244 930 L245 932 L240 940 L239 939 L240 927 L238 929 L238 932 L232 947 L227 968 L225 990 L224 991 L224 1019 L225 1020 L226 1034 L228 1040 L228 1044 L226 1045 L218 1040 L219 1039 L219 1023 L220 1022 L220 1008 L221 1007 L221 999 L222 998 L222 990 L223 989 L223 977 L224 976 L226 945 L229 942 L231 923 L232 922 L232 894 L233 893 L233 886 L234 885 L234 879 L235 878 L237 862 L247 834 L255 818 L261 813 L266 811 Z M439 806 L440 805 L443 812 L449 819 L451 818 L458 818 L465 820 L453 824 L444 831 L441 824 L441 817 L440 816 Z M438 804 L439 803 L440 805 L439 806 Z M412 801 L413 800 L414 801 L413 802 Z M307 801 L308 800 L309 801 L308 802 Z M639 800 L640 799 L641 800 L640 801 Z M638 798 L639 797 L640 798 L639 799 Z M592 797 L602 797 L615 804 L621 811 L626 823 L626 838 L623 847 L618 855 L614 859 L608 863 L602 865 L591 865 L580 859 L573 850 L569 837 L569 827 L574 812 L581 803 Z M411 798 L412 797 L413 798 L412 799 Z M308 798 L309 797 L310 799 L309 800 Z M337 795 L346 796 L353 800 L360 807 L363 812 L367 824 L367 837 L361 852 L355 859 L349 863 L341 865 L340 864 L335 864 L328 861 L320 853 L316 846 L313 836 L313 823 L317 811 L320 806 L327 799 Z M309 796 L310 795 L311 797 L310 798 Z M601 795 L589 796 L580 801 L573 810 L569 818 L568 826 L567 827 L568 842 L571 851 L575 857 L585 865 L597 868 L598 867 L606 866 L615 861 L622 853 L628 839 L628 822 L624 811 L616 802 L605 796 Z M436 794 L438 795 L438 799 L437 800 L435 795 Z M714 794 L715 793 L716 794 L715 795 Z M511 854 L510 855 L508 852 L508 849 L502 832 L494 825 L481 820 L484 818 L490 818 L496 815 L501 808 L502 804 L497 814 L490 818 L489 817 L487 818 L451 817 L448 816 L445 813 L439 798 L440 797 L451 803 L460 806 L480 807 L481 806 L487 806 L499 803 L515 793 L516 795 L511 807 L510 817 L509 818 L509 826 L508 827 L509 846 Z M334 794 L325 798 L317 807 L312 818 L311 835 L316 850 L319 855 L325 861 L335 866 L346 866 L357 860 L363 853 L368 842 L369 824 L367 816 L363 808 L355 799 L345 794 Z M220 793 L225 802 L226 816 L227 817 L227 862 L226 863 L227 866 L226 867 L226 912 L225 913 L224 957 L223 958 L223 967 L222 968 L222 977 L221 978 L220 1000 L219 1001 L219 1008 L218 1009 L217 1038 L216 1039 L210 1033 L203 1023 L202 1020 L202 1000 L203 999 L205 979 L207 973 L207 967 L208 966 L208 960 L210 952 L210 944 L211 943 L211 935 L212 934 L213 907 L214 906 L214 888 L215 887 L215 866 L216 865 L217 797 Z M715 793 L716 792 L717 793 L716 794 Z M636 793 L637 792 L638 793 L637 794 Z M515 793 L516 792 L517 793 L516 794 Z M305 792 L307 796 L303 811 L303 822 L302 823 L302 831 L304 839 L304 843 L303 844 L296 835 L285 833 L280 829 L277 823 L277 815 L280 814 L285 817 L290 815 L299 805 L299 803 Z M217 792 L218 791 L219 792 L218 793 Z M223 790 L227 793 L230 802 L230 807 L231 808 L231 836 L232 837 L234 859 L235 860 L235 868 L233 873 L232 885 L231 886 L231 895 L230 896 L230 924 L229 925 L228 938 L227 939 L226 938 L226 927 L227 926 L227 902 L228 901 L229 825 L228 824 L227 803 L224 795 L221 792 Z M717 790 L718 789 L719 790 L718 791 Z M426 786 L427 785 L428 786 L427 787 Z M785 782 L790 787 L790 891 L791 892 L792 943 L793 944 L794 957 L796 961 L798 974 L803 992 L804 1009 L805 1010 L805 1025 L804 1026 L804 1031 L802 1035 L793 1044 L783 1051 L781 1049 L781 1042 L780 1041 L777 1022 L768 998 L767 989 L764 978 L763 963 L762 962 L762 936 L763 935 L763 926 L764 925 L764 918 L766 912 L766 907 L771 887 L771 883 L773 878 L775 863 L777 857 L777 851 L778 850 L778 841 L779 840 L779 795 L780 794 L781 786 Z M636 807 L631 796 L619 784 L604 778 L592 778 L580 782 L574 786 L565 795 L556 811 L553 826 L554 827 L554 822 L557 811 L565 797 L576 786 L588 780 L602 779 L610 781 L618 785 L628 794 L636 809 Z M724 776 L725 775 L726 776 L725 777 Z M261 776 L262 775 L263 776 L262 777 Z M729 774 L733 782 L731 784 L725 786 L724 784 Z M347 771 L351 771 L352 772 L355 771 L362 773 L371 778 L379 786 L390 806 L393 816 L394 831 L393 832 L392 841 L388 850 L384 856 L371 869 L357 876 L340 877 L339 876 L335 876 L323 869 L315 861 L311 855 L305 839 L305 817 L311 798 L320 785 L330 777 L336 774 Z M496 771 L497 770 L498 771 L497 772 Z M497 770 L498 769 L499 770 L498 771 Z M498 769 L499 768 L500 769 L499 770 Z M499 767 L500 766 L501 767 L500 768 Z M500 765 L501 764 L502 766 L501 767 Z M446 764 L447 763 L448 764 L447 765 Z M501 763 L502 762 L503 764 L502 765 Z M502 761 L503 760 L504 762 L503 763 Z M445 761 L446 760 L447 762 L446 763 Z M346 761 L346 762 L358 761 L375 765 L377 767 L379 767 L386 771 L395 778 L406 791 L411 802 L412 823 L407 844 L399 861 L402 858 L408 845 L413 827 L415 811 L416 810 L416 801 L409 783 L409 787 L412 794 L411 797 L406 788 L397 778 L398 777 L389 770 L377 764 L364 760 L350 760 Z M579 745 L602 746 L611 749 L620 754 L637 771 L644 783 L648 796 L648 812 L647 813 L645 805 L639 791 L635 785 L623 773 L606 764 L594 761 L586 761 L579 764 L573 765 L563 770 L556 775 L544 788 L535 802 L531 814 L531 822 L535 806 L546 788 L563 772 L573 767 L585 764 L601 765 L614 770 L627 781 L636 794 L640 803 L641 801 L642 802 L641 805 L642 804 L643 805 L647 821 L648 843 L645 853 L645 857 L638 878 L628 896 L618 907 L608 913 L597 916 L580 915 L566 911 L561 908 L562 907 L573 906 L589 901 L608 892 L620 884 L626 878 L628 873 L623 881 L620 882 L611 889 L597 896 L595 896 L589 900 L571 905 L555 905 L541 897 L528 886 L520 876 L512 861 L513 859 L515 860 L516 858 L521 869 L530 881 L540 890 L548 895 L554 897 L554 896 L547 892 L537 884 L528 875 L523 868 L518 858 L513 838 L513 814 L516 803 L518 800 L519 794 L521 793 L522 789 L527 780 L536 769 L547 759 L556 753 L564 749 Z M230 744 L236 747 L242 757 L248 777 L259 800 L257 813 L247 830 L237 858 L235 853 L235 845 L234 844 L234 837 L232 829 L233 809 L232 808 L231 798 L229 793 L224 788 L219 792 L218 791 L218 759 L223 750 Z M352 742 L372 742 L373 743 L381 744 L397 751 L404 756 L419 772 L427 784 L426 786 L427 789 L428 786 L430 788 L436 803 L438 811 L438 817 L439 818 L439 842 L438 843 L438 848 L433 864 L427 875 L421 883 L408 895 L405 896 L404 895 L419 875 L427 858 L430 846 L431 828 L432 827 L432 811 L431 810 L431 804 L428 792 L429 808 L430 809 L429 840 L428 841 L426 854 L418 873 L402 891 L377 905 L374 905 L366 908 L377 906 L404 891 L405 892 L403 895 L392 905 L382 911 L366 915 L358 915 L347 912 L335 905 L327 897 L320 887 L316 879 L307 855 L308 852 L314 862 L324 872 L343 881 L351 882 L352 883 L362 882 L376 876 L386 867 L392 857 L394 851 L394 845 L392 854 L388 862 L377 874 L368 879 L357 882 L348 881 L345 879 L346 878 L353 878 L363 875 L373 869 L389 851 L393 842 L394 834 L395 833 L395 821 L394 820 L393 811 L391 805 L383 790 L373 778 L365 773 L356 770 L345 770 L337 772 L329 776 L321 782 L315 789 L311 796 L310 793 L317 781 L328 770 L336 765 L343 763 L344 762 L343 761 L333 765 L324 771 L315 781 L308 794 L307 793 L307 787 L309 781 L312 776 L312 774 L321 760 L335 748 L344 744 Z M448 738 L449 741 L447 746 L446 759 L445 760 L444 759 L444 747 Z M448 738 L449 737 L450 738 L449 739 Z M359 724 L365 728 L365 727 Z M505 723 L503 724 L504 726 Z M214 712 L217 713 L217 723 L215 726 L209 717 L209 715 Z M740 711 L742 714 L745 724 L746 738 L747 739 L747 752 L743 767 L736 774 L732 776 L729 773 L734 759 L735 750 L737 744 L738 726 L739 725 L739 712 Z M447 701 L448 702 L448 706 L447 707 L446 706 L446 702 Z M199 699 L202 696 L207 694 L208 695 L207 696 L206 705 L209 703 L212 697 L218 702 L218 708 L216 710 L208 713 L201 706 Z M777 692 L786 692 L787 691 L789 692 L789 707 L788 708 L783 700 L776 693 Z M779 697 L787 709 L789 716 L790 782 L789 783 L787 781 L783 781 L780 784 L778 789 L778 796 L777 797 L777 805 L778 806 L777 844 L776 845 L776 853 L775 854 L774 865 L773 866 L768 895 L763 914 L762 929 L761 930 L760 954 L761 955 L762 976 L763 977 L765 992 L768 1000 L768 1003 L774 1015 L778 1032 L778 1037 L779 1038 L779 1044 L781 1051 L780 1052 L775 1052 L774 1053 L752 1053 L751 1054 L732 1054 L731 1053 L734 1043 L735 1025 L736 1024 L735 989 L734 988 L734 980 L733 979 L733 973 L732 972 L729 951 L724 931 L721 924 L721 921 L711 896 L698 875 L688 865 L682 861 L677 859 L668 859 L665 861 L667 860 L668 861 L667 863 L671 860 L675 860 L682 863 L697 877 L706 891 L718 918 L718 921 L720 924 L720 927 L722 931 L726 947 L729 967 L730 968 L731 981 L732 982 L733 1004 L734 1005 L734 1024 L733 1025 L733 1034 L732 1035 L731 1045 L729 1053 L727 1055 L709 1056 L703 1058 L700 1061 L699 1060 L700 1048 L699 1047 L699 1043 L696 1037 L691 1031 L683 1028 L680 1028 L680 1029 L690 1032 L697 1042 L698 1045 L698 1061 L697 1063 L689 1071 L688 1077 L677 1089 L670 1090 L664 1085 L677 1075 L680 1074 L687 1066 L687 1059 L685 1058 L682 1058 L676 1063 L672 1062 L671 1058 L672 1050 L678 1047 L682 1042 L684 1049 L683 1054 L686 1052 L691 1053 L694 1049 L693 1048 L690 1051 L686 1051 L684 1048 L685 1038 L682 1037 L680 1043 L673 1048 L670 1046 L668 1051 L670 1052 L669 1055 L671 1062 L673 1064 L677 1064 L684 1059 L686 1061 L686 1064 L684 1068 L677 1074 L673 1073 L671 1071 L671 1073 L667 1080 L660 1088 L652 1094 L642 1096 L636 1101 L635 1100 L635 1096 L636 1095 L636 1079 L631 1067 L623 1059 L611 1049 L603 1044 L588 1030 L580 1027 L577 1024 L575 1024 L560 1043 L558 1044 L550 1044 L549 1043 L538 1044 L537 1045 L555 1045 L559 1046 L566 1040 L574 1029 L575 1030 L574 1034 L575 1034 L579 1028 L589 1034 L602 1046 L613 1053 L621 1062 L624 1063 L629 1068 L634 1082 L634 1092 L633 1093 L633 1100 L632 1101 L631 1109 L624 1126 L616 1135 L610 1139 L596 1143 L576 1142 L556 1147 L540 1157 L532 1165 L513 1180 L499 1187 L484 1191 L464 1191 L463 1190 L459 1190 L452 1188 L440 1182 L420 1167 L399 1142 L390 1135 L377 1130 L365 1131 L354 1137 L353 1139 L356 1137 L358 1138 L356 1140 L352 1141 L346 1145 L334 1148 L325 1146 L315 1137 L314 1128 L312 1127 L311 1128 L307 1123 L306 1116 L303 1109 L303 1103 L305 1099 L305 1095 L301 1085 L301 1079 L305 1074 L310 1079 L312 1079 L312 1077 L306 1070 L307 1069 L314 1067 L322 1061 L324 1061 L330 1055 L345 1044 L355 1034 L358 1032 L362 1033 L369 1026 L372 1025 L376 1026 L377 1034 L381 1040 L393 1042 L424 1062 L436 1068 L450 1073 L464 1075 L465 1076 L484 1076 L485 1075 L496 1074 L504 1070 L494 1073 L487 1073 L486 1074 L463 1074 L462 1073 L452 1072 L440 1068 L422 1059 L400 1044 L381 1037 L378 1031 L378 1022 L377 1021 L359 1029 L320 1061 L303 1069 L304 1072 L300 1076 L298 1083 L300 1090 L303 1095 L300 1109 L304 1117 L306 1125 L305 1126 L299 1123 L286 1113 L283 1109 L278 1098 L277 1090 L276 1089 L276 1082 L275 1081 L274 1082 L274 1087 L275 1088 L274 1092 L269 1082 L265 1077 L263 1070 L263 1063 L266 1052 L270 1047 L274 1049 L277 1049 L280 1045 L281 1040 L279 1041 L278 1046 L276 1048 L270 1046 L265 1051 L257 1044 L257 1041 L259 1039 L261 1040 L265 1039 L264 1029 L266 1027 L270 1036 L272 1037 L279 1037 L280 1035 L280 1025 L281 1024 L285 1024 L286 1025 L283 1028 L283 1034 L290 1040 L297 1039 L301 1035 L301 1033 L304 1029 L308 1028 L310 1030 L311 1035 L313 1038 L312 1041 L305 1046 L301 1047 L299 1046 L298 1047 L299 1048 L306 1047 L320 1036 L323 1030 L323 1026 L318 1018 L333 1003 L349 973 L350 968 L359 950 L368 936 L385 919 L386 921 L384 923 L379 935 L376 948 L377 970 L380 980 L385 989 L396 1002 L404 1009 L416 1014 L430 1013 L439 1008 L443 1003 L446 996 L448 994 L445 997 L444 1000 L436 1008 L430 1011 L416 1012 L405 1007 L389 991 L382 979 L378 965 L378 947 L381 934 L387 922 L392 915 L402 905 L416 896 L427 893 L434 893 L441 896 L448 904 L452 920 L451 937 L448 944 L445 947 L440 944 L440 946 L444 950 L440 954 L434 957 L424 957 L421 955 L421 956 L425 959 L433 959 L441 955 L447 949 L452 939 L455 927 L456 898 L455 897 L455 876 L454 875 L454 865 L453 864 L452 850 L450 842 L445 831 L457 824 L468 821 L479 821 L494 827 L500 832 L496 841 L496 849 L495 850 L494 862 L493 863 L492 884 L491 885 L491 920 L492 921 L492 931 L493 932 L493 937 L495 945 L500 954 L508 959 L512 960 L515 959 L514 958 L510 958 L504 955 L501 952 L496 941 L495 928 L497 923 L498 915 L503 904 L510 897 L516 894 L526 895 L540 903 L551 914 L561 931 L565 942 L566 951 L567 952 L567 970 L563 985 L554 999 L542 1010 L529 1016 L518 1017 L517 1016 L509 1015 L502 1011 L495 1002 L493 997 L494 1002 L497 1008 L504 1015 L508 1017 L516 1019 L524 1019 L535 1016 L548 1008 L556 1000 L561 993 L567 979 L568 970 L569 969 L569 954 L564 933 L557 919 L552 912 L542 902 L529 894 L523 892 L515 892 L509 895 L501 903 L497 911 L495 920 L494 921 L492 918 L492 887 L493 886 L493 875 L494 874 L495 859 L497 851 L497 844 L500 834 L502 836 L505 849 L512 867 L521 881 L535 895 L546 903 L548 903 L550 905 L564 912 L577 916 L582 916 L589 918 L601 917 L612 913 L618 909 L627 900 L635 888 L635 886 L645 868 L644 866 L654 855 L659 852 L672 849 L681 844 L695 828 L703 815 L711 806 L721 790 L723 788 L733 784 L736 791 L737 804 L732 814 L727 828 L723 844 L722 856 L721 857 L721 875 L722 876 L722 880 L726 896 L726 901 L727 902 L727 913 L728 914 L727 927 L729 924 L729 908 L727 900 L727 893 L723 877 L723 856 L724 855 L725 842 L729 828 L733 821 L740 819 L745 821 L756 830 L757 829 L762 836 L761 831 L753 821 L750 815 L751 805 L758 786 L756 784 L756 781 L756 786 L754 794 L750 804 L750 807 L748 810 L749 817 L756 827 L754 828 L746 820 L742 818 L739 818 L733 821 L732 820 L733 816 L738 807 L738 802 L739 801 L738 799 L738 791 L733 777 L741 771 L745 766 L749 750 L749 740 L748 739 L747 726 L746 725 L745 717 L739 706 L737 685 L739 684 L751 688 L770 691 L775 693 Z M511 685 L512 684 L513 685 L512 686 Z M224 676 L225 675 L227 676 L226 677 Z M257 673 L258 677 L256 681 L256 685 L253 696 L253 702 L252 703 L252 710 L251 711 L252 745 L253 746 L253 752 L254 753 L256 767 L262 783 L268 793 L271 796 L276 808 L275 809 L268 809 L267 808 L269 807 L267 807 L259 813 L258 811 L260 806 L260 799 L249 776 L243 755 L239 748 L232 743 L228 743 L223 747 L219 754 L218 753 L219 712 L220 711 L220 706 L222 698 L225 693 L237 681 L246 676 L249 676 Z M256 658 L255 658 L245 671 L253 664 L256 660 Z M520 644 L510 661 L503 667 L499 673 L491 690 L489 698 L490 714 L493 723 L502 738 L504 750 L503 751 L502 759 L498 767 L492 773 L484 777 L480 777 L479 778 L466 778 L462 777 L454 773 L449 767 L450 766 L447 758 L447 752 L451 737 L450 735 L459 722 L463 708 L463 689 L462 685 L454 671 L454 673 L458 679 L461 688 L462 706 L459 719 L450 731 L444 742 L444 745 L442 749 L442 758 L444 764 L455 776 L465 779 L481 779 L493 774 L496 771 L497 773 L492 778 L485 782 L471 784 L447 778 L434 771 L434 775 L438 779 L453 780 L459 783 L467 785 L480 785 L484 784 L492 780 L501 771 L508 758 L509 760 L510 758 L512 760 L518 756 L517 755 L514 757 L506 757 L504 760 L503 759 L505 751 L504 739 L492 716 L490 704 L491 703 L491 696 L493 688 L500 674 L515 655 Z M231 612 L232 611 L233 612 L232 613 Z M232 606 L233 605 L234 606 L233 607 Z M322 604 L323 603 L324 604 L323 605 Z M322 596 L323 599 L319 604 L318 603 L319 599 Z M404 589 L413 599 L420 611 L428 636 L438 652 L439 657 L442 663 L441 665 L437 661 L432 653 L430 652 L438 665 L449 677 L455 691 L455 699 L456 699 L455 687 L453 681 L444 667 L438 647 L433 643 L428 633 L425 620 L421 610 L413 597 Z M730 585 L735 588 L735 597 L730 608 L727 611 L719 591 L728 585 Z M509 692 L516 684 L521 683 L522 684 L520 692 L523 699 L527 703 L531 705 L547 709 L567 709 L568 708 L573 708 L586 704 L600 697 L612 689 L623 678 L630 666 L632 660 L633 647 L636 640 L641 635 L649 633 L651 629 L647 623 L639 616 L638 612 L639 608 L646 600 L664 598 L667 595 L667 586 L668 585 L674 586 L691 595 L705 608 L718 627 L725 641 L729 653 L730 661 L733 670 L733 675 L734 676 L735 690 L736 691 L736 701 L737 702 L736 735 L735 736 L735 743 L734 744 L733 754 L729 768 L723 775 L716 778 L710 777 L704 771 L700 761 L697 743 L692 731 L685 722 L682 715 L674 707 L668 705 L664 710 L664 714 L666 716 L676 721 L678 721 L678 720 L669 715 L667 715 L665 713 L666 709 L669 706 L673 708 L681 716 L683 719 L683 722 L691 732 L696 745 L698 760 L704 774 L708 778 L713 780 L719 779 L723 776 L725 777 L720 785 L706 798 L698 801 L690 800 L684 795 L681 790 L678 780 L678 775 L672 756 L660 738 L653 732 L642 726 L630 722 L627 722 L621 719 L652 702 L660 699 L684 694 L697 688 L704 683 L712 674 L716 667 L719 657 L720 641 L717 635 L716 630 L715 630 L715 632 L717 636 L717 642 L718 643 L718 652 L717 653 L716 662 L709 675 L703 681 L696 686 L686 691 L672 695 L664 696 L652 700 L622 717 L592 729 L586 730 L579 733 L567 736 L562 736 L561 737 L547 738 L546 737 L534 736 L524 732 L512 721 L507 710 L507 698 Z M259 581 L258 585 L258 598 L259 599 L259 625 L261 632 L261 638 L259 644 L260 644 L262 640 L262 626 L261 625 L260 581 Z M380 575 L379 576 L380 577 L382 577 L390 582 L401 593 L409 604 L416 618 L422 640 L425 646 L426 646 L421 632 L421 629 L419 626 L417 617 L410 603 L402 592 L391 581 Z M587 573 L586 573 L587 575 L579 579 L576 579 L562 586 L547 598 L535 615 L524 640 L526 639 L537 614 L549 598 L558 590 L566 585 L579 579 L583 579 L589 577 L589 575 Z M275 634 L282 623 L299 606 L315 596 L318 595 L319 596 L318 606 L320 607 L338 603 L339 604 L330 616 L327 623 L327 631 L329 633 L338 634 L344 639 L346 643 L345 664 L347 671 L355 684 L367 696 L378 704 L393 711 L405 714 L414 714 L424 711 L433 702 L435 696 L435 690 L432 685 L433 684 L439 685 L444 689 L447 695 L447 700 L446 701 L442 692 L439 689 L443 696 L445 703 L444 718 L440 726 L430 736 L417 741 L402 741 L389 738 L369 730 L380 736 L395 742 L405 743 L406 744 L419 743 L432 737 L441 728 L445 722 L450 706 L449 696 L446 689 L439 683 L429 682 L429 684 L433 689 L432 701 L424 709 L418 712 L414 712 L413 713 L401 712 L389 708 L381 704 L371 697 L355 681 L349 671 L347 665 L347 649 L348 645 L346 639 L341 634 L329 630 L330 621 L334 613 L341 603 L340 602 L333 602 L328 604 L324 604 L323 603 L325 599 L325 596 L321 594 L328 588 L343 580 L352 577 L371 574 L385 565 L386 566 L388 564 L390 564 L406 556 L432 550 L437 550 L438 549 L453 548 L454 547 L467 547 L468 546 L502 546 L503 547 L516 547 L517 548 L532 549 L533 550 L538 550 L539 551 L543 551 L544 552 L565 556 L577 560 L597 570 L633 570 L647 574 L666 584 L665 585 L665 594 L662 597 L650 597 L643 600 L636 611 L636 615 L648 628 L648 630 L645 633 L640 634 L635 638 L631 647 L631 654 L628 666 L623 675 L613 686 L589 701 L574 706 L560 707 L559 708 L557 707 L554 708 L543 707 L530 703 L523 696 L522 693 L522 687 L524 684 L523 682 L518 681 L511 683 L505 687 L503 686 L507 676 L516 667 L530 645 L536 630 L546 613 L560 598 L577 587 L569 590 L559 597 L545 612 L522 656 L515 666 L505 677 L504 682 L502 684 L502 686 L498 693 L497 701 L498 696 L501 691 L504 688 L511 685 L512 686 L509 689 L505 698 L505 709 L508 719 L511 724 L518 731 L529 737 L536 739 L556 740 L557 739 L572 737 L595 730 L620 719 L623 722 L641 727 L652 733 L663 744 L667 750 L673 762 L676 771 L676 779 L679 790 L681 794 L688 801 L697 803 L709 798 L713 794 L715 796 L710 804 L701 814 L691 830 L679 843 L674 846 L668 848 L664 848 L657 851 L647 860 L646 857 L650 841 L650 802 L651 801 L657 813 L667 826 L671 828 L676 828 L684 825 L687 822 L677 826 L670 825 L662 817 L657 809 L647 784 L637 767 L624 754 L609 746 L597 743 L578 743 L561 748 L541 761 L530 772 L522 784 L510 795 L503 798 L501 800 L488 804 L467 805 L451 801 L438 793 L431 786 L418 767 L406 755 L394 747 L378 741 L373 741 L372 740 L351 740 L334 746 L328 750 L318 760 L308 778 L306 785 L295 807 L288 813 L282 813 L277 807 L274 798 L275 797 L279 798 L283 796 L287 792 L292 781 L299 748 L304 738 L314 727 L320 723 L328 720 L340 718 L331 718 L323 720 L314 725 L304 735 L298 745 L298 750 L295 757 L295 761 L290 782 L286 790 L281 795 L274 796 L269 791 L262 777 L268 775 L272 770 L274 746 L279 726 L285 721 L287 716 L293 710 L296 710 L298 708 L305 705 L301 705 L292 709 L286 715 L278 726 L274 736 L274 740 L272 745 L272 765 L270 770 L266 774 L262 774 L260 772 L258 766 L256 752 L255 751 L255 745 L254 744 L254 708 L255 707 L255 700 L256 699 L258 683 L265 660 L266 659 L267 660 L268 668 L273 679 L279 686 L288 691 L291 691 L294 693 L314 699 L351 719 L331 706 L313 697 L285 688 L275 680 L270 670 L269 657 L268 656 L269 648 Z M245 546 L246 547 L245 550 L244 549 Z M712 543 L712 544 L714 542 L721 542 L729 550 L728 546 L724 542 L720 540 L716 540 Z M673 515 L682 515 L687 517 L690 520 L693 526 L694 538 L692 545 L687 553 L658 534 L658 531 L661 525 L666 519 Z M461 506 L440 507 L439 508 L419 511 L407 514 L400 517 L397 517 L394 519 L383 522 L368 529 L366 529 L346 540 L331 551 L316 566 L309 577 L329 554 L348 540 L369 529 L371 529 L381 524 L395 520 L398 518 L401 518 L412 514 L416 514 L430 510 L436 510 L437 509 Z M478 505 L510 505 L511 506 L522 506 L523 507 L531 507 L532 508 L560 511 L561 512 L588 517 L624 529 L657 546 L682 564 L700 582 L708 593 L713 603 L714 603 L712 597 L705 586 L698 577 L685 564 L660 546 L655 544 L650 540 L625 528 L597 518 L577 513 L557 510 L556 509 L550 509 L549 508 L543 508 L535 506 L526 506 L525 505 L513 505 L512 504 L507 504 L506 505 L505 504 L479 504 Z M746 501 L747 500 L748 501 L747 502 Z M253 501 L250 502 L246 506 L242 514 L238 527 L238 533 L235 543 L235 553 L234 554 L234 564 L233 565 L232 600 L231 601 L230 612 L225 628 L218 641 L208 651 L195 658 L191 658 L190 659 L178 658 L182 660 L192 660 L207 654 L220 643 L226 635 L230 627 L235 611 L238 585 L240 582 L242 571 L244 567 L249 547 L250 536 L248 544 L246 547 L245 543 L252 527 L255 524 L258 518 L251 525 L246 535 L246 538 L242 550 L244 549 L245 550 L245 554 L242 561 L242 564 L239 569 L238 581 L235 592 L234 591 L234 586 L235 585 L235 564 L236 563 L236 552 L237 551 L238 535 L245 513 L250 504 Z M289 609 L294 592 L299 582 L309 567 L329 547 L351 532 L378 519 L417 507 L437 504 L438 503 L443 503 L444 502 L461 501 L462 500 L508 499 L509 500 L524 500 L525 501 L535 501 L536 502 L556 504 L557 505 L562 505 L567 507 L581 509 L590 512 L594 512 L611 518 L614 518 L617 520 L635 526 L671 544 L689 557 L705 573 L711 581 L720 598 L721 603 L723 606 L726 619 L727 631 L725 637 L718 624 L708 610 L694 596 L685 590 L672 585 L649 573 L633 568 L599 568 L598 567 L597 568 L576 558 L553 551 L548 551 L543 549 L524 547 L523 546 L500 545 L499 544 L498 545 L496 544 L473 544 L472 545 L448 546 L447 547 L433 548 L414 553 L410 553 L401 556 L390 562 L388 562 L371 572 L342 578 L332 583 L320 592 L306 599 L290 612 Z M745 499 L746 498 L747 499 L746 500 Z M523 498 L524 497 L525 498 L524 499 Z M371 498 L378 507 L380 516 L375 519 L366 522 L344 534 L341 529 L341 525 L340 524 L340 512 L345 501 L350 497 L358 494 L362 494 Z M614 488 L621 485 L627 485 L635 488 L642 495 L646 506 L646 515 L644 522 L641 527 L625 520 L614 517 L611 515 L608 515 L602 512 L604 501 L608 494 Z M276 486 L277 485 L278 486 L277 487 Z M277 485 L278 484 L279 485 L278 486 Z M540 498 L544 491 L550 485 L558 482 L562 482 L570 485 L578 492 L581 498 L583 507 L582 508 L577 506 L573 506 L557 502 L544 501 L541 500 Z M459 489 L462 480 L466 473 L474 465 L487 459 L499 459 L510 463 L517 469 L524 479 L524 490 L523 491 L523 495 L521 498 L508 498 L507 497 L476 497 L475 498 L474 497 L473 498 L462 498 L460 499 L459 498 Z M275 564 L277 558 L282 553 L286 553 L290 557 L286 540 L286 534 L287 533 L287 527 L292 516 L301 508 L310 505 L318 506 L324 509 L322 511 L325 515 L327 515 L327 502 L334 488 L344 479 L350 476 L358 475 L359 474 L372 475 L381 479 L387 484 L387 486 L385 488 L383 486 L381 486 L386 491 L390 482 L399 472 L416 464 L420 464 L421 463 L435 464 L444 468 L449 475 L448 468 L450 462 L455 454 L462 446 L469 441 L481 436 L499 435 L510 439 L523 450 L531 462 L534 470 L535 477 L539 474 L541 470 L547 464 L550 463 L564 463 L568 464 L577 469 L587 480 L597 503 L598 503 L596 499 L595 492 L591 483 L598 475 L605 470 L619 466 L626 466 L633 468 L642 473 L649 480 L656 494 L657 510 L658 510 L659 507 L664 502 L674 498 L682 498 L692 502 L699 509 L703 516 L705 530 L702 542 L704 541 L707 533 L712 528 L718 525 L730 526 L738 534 L740 539 L741 552 L740 553 L740 558 L738 566 L735 573 L733 575 L735 575 L740 572 L741 570 L743 570 L747 577 L747 586 L742 597 L739 601 L738 607 L729 627 L728 626 L727 613 L730 610 L735 601 L737 590 L735 586 L731 584 L728 584 L721 589 L719 587 L722 584 L728 572 L731 561 L731 555 L729 552 L730 556 L729 557 L728 568 L719 586 L717 587 L710 576 L698 563 L698 561 L706 550 L702 553 L697 562 L688 554 L690 552 L695 540 L695 527 L693 522 L688 516 L681 513 L677 513 L669 516 L659 526 L656 534 L645 529 L643 527 L647 516 L647 507 L645 499 L643 495 L635 487 L626 483 L615 485 L606 493 L599 512 L586 509 L584 507 L584 503 L582 497 L572 485 L563 481 L557 481 L547 486 L541 493 L538 500 L526 499 L524 497 L525 493 L525 480 L521 472 L511 462 L505 459 L497 457 L489 457 L479 460 L471 465 L466 470 L459 483 L457 491 L457 498 L456 499 L448 500 L445 493 L438 486 L429 482 L420 482 L412 485 L411 487 L417 484 L421 484 L422 483 L431 484 L437 487 L444 494 L446 499 L443 501 L421 504 L400 510 L399 509 L400 508 L400 503 L404 495 L400 501 L397 511 L382 516 L377 503 L369 495 L365 493 L358 492 L348 496 L343 501 L339 511 L339 527 L343 535 L334 541 L330 537 L332 542 L320 552 L306 567 L302 559 L300 551 L300 537 L303 529 L309 523 L315 522 L321 524 L316 521 L310 521 L306 523 L301 529 L299 535 L299 553 L305 570 L299 578 L290 597 L285 589 L283 581 L284 589 L287 595 L290 597 L287 608 L283 603 L282 594 L277 584 L275 576 Z M332 418 L325 420 L313 426 L294 439 L275 458 L265 471 L257 486 L256 492 L254 496 L257 493 L264 475 L278 457 L291 444 L295 442 L301 436 L320 424 L332 419 Z M360 381 L327 391 L322 394 L313 397 L293 408 L276 420 L262 432 L242 456 L226 482 L218 498 L210 518 L202 544 L199 564 L197 570 L197 575 L196 576 L195 589 L191 606 L182 624 L171 634 L175 633 L183 626 L189 616 L195 597 L203 546 L209 528 L209 525 L212 519 L212 516 L228 481 L245 454 L253 444 L272 425 L291 411 L306 402 L323 394 L339 388 L360 383 L361 382 Z M278 483 L287 470 L301 453 L329 427 L355 410 L381 398 L414 387 L426 385 L431 383 L454 380 L455 379 L471 378 L472 377 L483 377 L484 376 L531 376 L532 377 L546 377 L547 378 L564 379 L565 380 L570 380 L571 381 L576 381 L577 382 L582 382 L583 383 L588 383 L601 386 L632 396 L666 412 L697 432 L721 455 L738 480 L746 498 L745 499 L734 487 L715 473 L695 462 L693 462 L684 457 L674 454 L671 452 L616 435 L612 435 L591 430 L580 429 L579 428 L566 427 L565 426 L535 424 L534 423 L522 423 L521 422 L478 422 L477 423 L450 424 L449 425 L441 425 L440 426 L433 426 L432 427 L425 427 L424 428 L407 430 L377 437 L352 445 L349 447 L341 449 L331 454 L329 454 L297 471 L284 480 L279 485 Z M647 357 L671 360 L687 365 L690 365 L697 368 L700 368 L720 376 L738 385 L757 397 L765 403 L790 429 L804 450 L818 478 L820 485 L823 490 L829 507 L836 522 L843 542 L845 550 L845 555 L846 556 L846 561 L847 562 L847 587 L842 605 L840 622 L838 628 L832 638 L823 647 L821 651 L821 654 L819 656 L811 656 L801 652 L787 639 L788 642 L800 653 L809 657 L818 657 L819 658 L811 668 L789 689 L786 690 L773 690 L772 689 L767 689 L766 688 L747 685 L738 682 L736 679 L736 674 L735 673 L735 668 L732 655 L727 642 L728 641 L729 631 L736 617 L741 602 L746 594 L747 598 L746 599 L746 612 L745 613 L744 625 L741 636 L733 653 L735 652 L738 647 L738 645 L743 635 L746 623 L746 617 L748 609 L749 585 L750 584 L752 566 L757 546 L757 525 L756 524 L755 516 L752 509 L753 507 L758 513 L763 522 L774 550 L778 566 L779 577 L780 578 L779 617 L782 630 L785 634 L781 621 L781 576 L780 575 L778 560 L771 537 L761 515 L755 507 L751 504 L747 493 L740 479 L730 463 L723 454 L705 436 L688 423 L666 410 L645 400 L624 392 L623 390 L633 376 L684 393 L699 400 L701 400 L729 416 L740 425 L759 445 L778 472 L791 497 L791 499 L796 509 L808 548 L810 564 L811 565 L813 590 L814 591 L816 609 L822 624 L829 632 L832 633 L823 623 L817 608 L816 597 L815 596 L815 588 L814 587 L814 579 L813 578 L813 571 L812 570 L812 564 L811 563 L809 547 L806 535 L803 528 L803 525 L794 501 L785 482 L769 456 L752 435 L733 417 L718 407 L698 397 L678 390 L675 388 L672 388 L663 384 L658 384 L646 378 L635 375 L634 374 Z M547 355 L548 354 L549 355 L548 356 Z M548 353 L549 352 L550 353 L549 354 Z M549 352 L550 351 L551 352 L550 353 Z M550 350 L551 349 L552 350 L551 351 Z M410 349 L411 348 L412 349 L411 350 Z M551 348 L552 347 L553 349 L552 350 Z M552 346 L553 345 L554 347 L553 348 Z M553 345 L554 344 L555 345 L554 346 Z M554 343 L555 342 L556 344 L555 345 Z M557 339 L558 341 L556 343 L555 341 Z M561 333 L562 335 L558 340 L557 338 Z M776 312 L777 311 L779 312 L778 313 Z M259 302 L260 301 L261 302 L260 303 Z M557 283 L558 284 L543 309 L533 329 L507 372 L505 374 L497 374 L496 375 L468 376 L467 374 L472 364 L482 348 L491 330 L519 281 L522 278 L525 277 L549 283 Z M573 275 L559 282 L548 281 L547 280 L537 279 L526 276 L520 278 L512 290 L499 315 L467 371 L466 376 L465 377 L445 379 L444 380 L439 380 L438 379 L479 315 L480 311 L482 309 L494 285 L503 276 L511 272 L513 273 L520 273 L521 274 L572 274 Z M294 267 L295 266 L296 267 L295 268 Z M676 266 L675 266 L672 271 Z M295 265 L296 264 L297 265 L296 266 Z M797 263 L800 264 L806 270 L810 277 L813 287 L813 300 L810 308 L803 316 L797 319 L788 320 L778 313 L781 312 L782 313 L791 314 L798 312 L803 308 L807 300 L807 289 L804 282 L801 279 L800 279 L798 287 L795 289 L792 288 L788 284 L786 280 L786 273 L788 268 L792 264 Z M256 255 L262 260 L262 266 L259 269 L250 270 L244 274 L240 281 L239 291 L242 298 L244 300 L248 302 L259 302 L260 303 L252 307 L244 307 L236 300 L233 293 L233 281 L236 272 L242 262 L249 256 Z M357 255 L374 248 L378 249 L394 275 L431 330 L432 334 L419 354 L404 334 L370 282 L361 266 L357 261 L356 258 Z M706 262 L700 273 L657 339 L620 390 L600 385 L599 382 L624 344 L625 341 L670 275 L649 303 L648 306 L645 309 L603 373 L598 383 L595 384 L594 383 L574 380 L573 379 L574 376 L606 328 L607 325 L670 239 L683 248 L680 259 L685 249 Z M649 221 L668 238 L663 244 L649 266 L609 319 L585 355 L572 377 L570 379 L567 379 L566 378 L558 378 L557 377 L550 377 L549 376 L540 376 L539 375 L540 371 L558 345 L576 316 L632 243 L644 225 Z M414 215 L425 235 L445 265 L453 275 L469 299 L479 311 L463 338 L442 369 L437 379 L433 382 L428 382 L402 389 L401 388 L404 382 L411 372 L414 365 L435 330 L433 331 L431 329 L379 248 L379 246 L397 231 L408 251 L449 312 L450 312 L450 309 L416 260 L399 232 L400 228 Z M304 213 L310 219 L311 229 L306 248 L297 265 L296 262 L299 253 L298 242 L296 238 L292 237 L288 233 L287 226 L289 221 L293 216 L298 213 Z M720 201 L722 200 L728 201 L735 205 L739 210 L735 223 L736 244 L739 256 L745 272 L755 290 L764 302 L778 316 L792 325 L794 325 L796 327 L798 327 L810 333 L814 337 L810 346 L808 357 L805 365 L802 353 L798 349 L779 339 L765 326 L764 326 L764 338 L766 346 L765 349 L758 340 L751 324 L750 313 L732 288 L724 271 L719 255 L719 251 L717 246 L717 240 L716 239 L716 231 L715 230 L715 214 L716 213 L717 205 Z M720 199 L717 202 L714 211 L714 236 L715 237 L715 244 L720 264 L731 290 L748 313 L750 327 L757 342 L768 356 L770 356 L768 352 L767 341 L766 340 L766 332 L767 331 L782 343 L798 351 L802 357 L803 361 L802 376 L799 388 L796 395 L794 403 L794 408 L793 409 L793 415 L794 418 L795 418 L795 405 L805 374 L813 342 L816 341 L815 335 L812 332 L791 322 L799 320 L807 315 L813 306 L815 299 L815 286 L812 277 L806 267 L799 262 L792 262 L789 264 L785 271 L785 275 L784 276 L785 282 L788 287 L792 290 L796 290 L799 287 L800 284 L802 283 L806 292 L805 302 L798 310 L793 312 L784 312 L773 307 L763 297 L751 280 L743 262 L737 237 L737 224 L738 223 L738 218 L741 211 L734 202 L727 199 Z M705 255 L706 257 L705 260 L694 252 L684 248 L676 241 L670 238 L658 226 L648 219 L645 213 L642 211 L647 219 L562 334 L561 332 L566 325 L574 307 L580 288 L579 286 L578 287 L578 290 L574 302 L567 317 L567 319 L550 348 L541 361 L534 375 L516 375 L515 374 L508 374 L507 373 L514 364 L522 349 L532 334 L538 321 L554 294 L559 283 L574 276 L575 274 L578 274 L581 272 L627 203 L632 198 L636 197 L637 198 L641 198 L651 203 L689 237 Z M430 194 L436 199 L458 234 L494 284 L480 309 L476 305 L450 269 L422 227 L416 216 L416 212 L418 208 Z M428 195 L418 205 L413 213 L396 230 L393 231 L376 246 L371 247 L358 253 L357 252 L359 248 L415 198 L425 194 Z M331 195 L335 199 L337 212 L336 213 L335 230 L330 247 L319 270 L311 282 L295 299 L293 311 L285 329 L280 336 L279 335 L279 314 L277 313 L275 316 L266 322 L253 328 L245 330 L239 337 L236 348 L236 355 L235 356 L233 354 L229 321 L236 315 L250 310 L264 302 L268 298 L272 296 L286 282 L301 262 L306 252 L311 238 L312 230 L313 229 L313 223 L310 215 L305 212 L304 210 L310 201 L316 196 L323 193 L327 193 Z M329 192 L320 192 L314 195 L307 202 L302 212 L301 211 L293 214 L288 219 L286 223 L286 233 L289 239 L294 239 L296 241 L297 255 L294 265 L290 273 L285 280 L271 294 L260 300 L250 301 L246 299 L241 292 L241 285 L245 276 L249 272 L255 272 L263 268 L264 261 L262 257 L258 254 L253 253 L246 256 L239 263 L234 272 L231 283 L232 296 L235 302 L239 306 L247 309 L235 314 L228 319 L227 325 L228 326 L228 332 L230 339 L230 345 L236 370 L239 395 L243 404 L245 413 L245 407 L242 400 L241 390 L239 384 L239 377 L237 371 L237 352 L238 351 L239 342 L241 337 L246 331 L260 327 L268 323 L276 317 L277 318 L277 326 L278 327 L278 339 L277 340 L280 339 L287 329 L295 311 L296 301 L308 289 L319 274 L327 259 L335 238 L338 225 L338 217 L339 216 L338 202 L336 197 Z M224 257 L234 237 L243 224 L260 207 L284 192 L306 184 L318 181 L333 180 L334 179 L345 179 L346 178 L362 178 L363 177 L430 176 L431 175 L550 175 L551 176 L623 177 L624 178 L642 178 L643 179 L670 180 L671 181 L702 183 L703 184 L716 185 L717 186 L722 186 L746 193 L769 204 L789 218 L800 229 L807 238 L814 249 L822 266 L827 284 L827 289 L829 296 L829 321 L828 322 L826 342 L824 347 L823 356 L820 364 L819 371 L805 413 L797 431 L795 432 L789 424 L773 407 L758 395 L733 380 L697 365 L694 365 L672 358 L650 355 L649 354 L681 307 L687 296 L707 266 L709 260 L708 255 L703 248 L668 214 L649 199 L641 196 L632 196 L625 202 L581 269 L578 272 L520 272 L519 271 L509 271 L500 276 L495 282 L464 239 L439 199 L431 192 L424 192 L414 196 L365 239 L357 247 L354 253 L354 259 L357 265 L382 305 L410 345 L411 348 L409 350 L393 350 L392 351 L378 352 L377 353 L356 356 L340 361 L337 361 L330 364 L327 364 L324 366 L309 371 L284 384 L264 398 L243 418 L236 427 L226 399 L225 392 L220 377 L220 373 L216 357 L216 352 L215 351 L215 344 L214 343 L214 327 L213 326 L214 301 L215 300 L215 293 L216 292 L216 287 L217 286 L217 281 Z M723 184 L705 182 L704 181 L673 179 L672 178 L660 178 L659 177 L626 176 L625 175 L602 175 L601 174 L571 174 L570 173 L424 173 L423 174 L360 175 L359 176 L343 176 L342 177 L331 177 L330 178 L318 179 L305 182 L288 188 L271 197 L256 208 L241 223 L232 236 L224 252 L218 269 L215 286 L214 287 L214 292 L213 293 L213 300 L212 301 L212 341 L213 342 L214 356 L215 357 L215 362 L218 372 L218 376 L222 388 L223 395 L227 405 L227 408 L232 423 L234 426 L234 429 L220 449 L210 466 L208 472 L203 480 L200 489 L193 502 L193 504 L190 509 L190 511 L187 516 L187 518 L184 523 L184 525 L181 530 L181 532 L178 537 L178 539 L175 544 L165 569 L160 586 L159 597 L158 598 L158 607 L157 608 L158 635 L159 636 L159 641 L163 658 L172 678 L184 693 L189 691 L186 691 L180 685 L173 675 L168 665 L163 650 L161 634 L160 633 L160 625 L159 624 L160 600 L161 599 L163 583 L169 565 L172 560 L192 510 L207 479 L207 477 L228 441 L246 418 L258 406 L273 394 L292 382 L312 372 L337 363 L366 356 L384 354 L385 353 L392 353 L393 352 L414 352 L417 355 L417 357 L413 363 L408 363 L412 363 L413 364 L400 388 L397 391 L392 392 L372 401 L370 401 L349 412 L333 423 L316 437 L298 455 L285 470 L271 490 L265 502 L260 516 L259 528 L258 529 L258 555 L259 556 L260 567 L264 583 L270 600 L269 603 L272 606 L273 609 L274 609 L274 606 L266 583 L265 575 L262 566 L261 555 L260 554 L260 531 L261 530 L262 518 L265 509 L272 496 L290 478 L305 468 L326 457 L365 442 L404 432 L409 432 L410 431 L415 431 L428 428 L435 428 L436 427 L455 426 L456 425 L510 423 L511 424 L525 424 L526 425 L539 425 L540 426 L551 426 L552 427 L568 428 L569 429 L594 432 L595 433 L609 435 L629 440 L680 457 L690 462 L692 462 L712 473 L725 482 L741 497 L747 505 L752 515 L754 522 L755 544 L754 545 L751 565 L748 573 L744 568 L740 566 L743 555 L743 542 L740 533 L734 526 L728 523 L718 523 L711 526 L708 529 L707 528 L707 523 L705 515 L702 509 L696 502 L687 497 L673 496 L663 500 L660 503 L657 490 L654 483 L640 469 L630 465 L624 465 L623 464 L613 465 L601 470 L590 481 L586 475 L578 467 L565 461 L560 461 L559 460 L550 461 L545 463 L536 470 L533 461 L526 450 L518 442 L512 438 L498 433 L486 433 L485 434 L477 435 L462 443 L455 450 L446 467 L440 464 L428 461 L412 463 L398 470 L391 477 L388 482 L380 476 L368 472 L353 473 L343 477 L332 487 L327 496 L324 507 L319 504 L309 503 L302 505 L297 508 L290 515 L286 523 L285 531 L284 532 L284 542 L286 550 L279 552 L276 555 L273 563 L273 578 L279 592 L281 601 L287 612 L285 617 L277 626 L271 637 L260 668 L257 671 L243 675 L236 679 L226 688 L222 693 L219 700 L213 696 L209 691 L218 683 L228 678 L229 676 L226 674 L224 676 L225 677 L214 684 L210 688 L208 692 L207 691 L203 691 L192 685 L186 684 L186 685 L203 693 L198 697 L195 692 L197 698 L197 703 L202 711 L207 716 L212 725 L216 729 L216 782 L215 783 L215 830 L214 831 L213 889 L212 890 L212 908 L211 909 L211 923 L210 924 L209 944 L208 945 L206 966 L204 972 L204 977 L201 990 L201 998 L200 999 L200 1020 L201 1024 L208 1034 L217 1043 L225 1046 L230 1050 L235 1061 L242 1067 L240 1072 L239 1088 L240 1089 L240 1099 L245 1120 L268 1178 L276 1190 L295 1204 L304 1208 L309 1212 L316 1214 L337 1214 L343 1216 L348 1219 L360 1231 L370 1234 L373 1236 L377 1236 L378 1237 L381 1236 L391 1246 L396 1248 L404 1248 L409 1252 L414 1254 L434 1254 L444 1258 L459 1258 L462 1256 L468 1255 L477 1260 L489 1260 L492 1256 L491 1249 L495 1246 L514 1248 L522 1242 L534 1239 L534 1235 L531 1227 L526 1227 L521 1223 L520 1212 L517 1210 L510 1210 L499 1196 L501 1189 L503 1189 L518 1181 L546 1157 L560 1149 L569 1146 L582 1145 L583 1144 L586 1145 L604 1144 L615 1139 L625 1129 L629 1121 L631 1111 L636 1104 L644 1097 L648 1098 L652 1097 L663 1088 L665 1088 L670 1092 L675 1092 L679 1090 L690 1078 L691 1076 L690 1073 L705 1059 L707 1058 L720 1058 L721 1057 L734 1057 L735 1056 L758 1056 L759 1055 L777 1055 L778 1054 L782 1054 L789 1050 L805 1035 L806 1024 L807 1023 L806 997 L805 996 L803 981 L800 973 L799 964 L795 951 L794 925 L793 924 L791 691 L818 664 L822 658 L824 649 L831 643 L841 627 L843 607 L847 599 L848 590 L849 589 L849 560 L848 559 L848 553 L844 537 L829 498 L808 452 L797 435 L804 421 L809 406 L811 403 L827 349 L829 332 L830 331 L830 322 L831 321 L831 296 L830 295 L830 288 L827 275 L821 258 L813 243 L802 228 L785 212 L763 198 L761 198 L747 191 Z" fill="#eef3f4" fill-rule="evenodd"/>
</svg>
