<svg xmlns="http://www.w3.org/2000/svg" width="1024" height="1536" viewBox="0 0 1024 1536">
  <title>0393</title>
  <path d="M371 1276 L372 1275 L373 1276 L372 1277 Z M652 1267 L654 1266 L659 1269 L667 1271 L678 1271 L684 1278 L683 1279 L678 1279 L671 1277 L654 1269 Z M650 1266 L651 1265 L653 1266 L652 1267 Z M648 1265 L649 1264 L651 1265 L650 1266 Z M647 1264 L648 1263 L649 1264 L648 1265 Z M645 1263 L646 1262 L648 1263 L647 1264 Z M421 1251 L422 1252 L409 1265 L407 1259 L412 1255 Z M421 1251 L422 1250 L423 1251 L422 1252 Z M422 1250 L423 1249 L424 1250 L423 1251 Z M581 1241 L582 1240 L587 1241 L605 1250 L616 1258 L619 1259 L626 1265 L623 1270 L621 1271 Z M579 1240 L580 1239 L582 1240 L581 1241 Z M577 1239 L578 1238 L580 1239 L579 1240 Z M575 1238 L576 1237 L577 1238 L576 1239 Z M569 1236 L570 1235 L571 1236 L570 1237 Z M566 1235 L567 1234 L568 1235 L567 1236 Z M408 1266 L413 1263 L426 1251 L435 1245 L448 1239 L481 1231 L487 1231 L495 1229 L504 1229 L505 1228 L516 1228 L517 1229 L537 1230 L571 1238 L581 1243 L605 1262 L618 1270 L620 1273 L615 1275 L606 1275 L590 1264 L576 1257 L551 1250 L546 1250 L539 1248 L531 1248 L530 1247 L494 1247 L493 1248 L485 1248 L484 1249 L468 1251 L445 1258 L415 1272 L412 1272 L409 1269 Z M346 1224 L347 1223 L349 1225 L347 1226 Z M345 1222 L346 1221 L347 1223 L346 1224 Z M718 1219 L720 1221 L715 1225 L714 1223 Z M345 1218 L346 1219 L345 1222 L344 1221 Z M720 1203 L721 1204 L713 1224 L710 1227 L706 1229 L703 1229 L698 1224 L696 1220 L696 1216 L698 1215 L701 1217 L706 1217 L710 1215 L715 1209 L716 1206 Z M679 1202 L680 1201 L681 1202 L680 1203 Z M678 1201 L679 1200 L680 1201 L679 1202 Z M677 1200 L678 1199 L679 1200 L678 1201 Z M313 1200 L314 1199 L315 1200 L314 1201 Z M675 1199 L676 1198 L677 1199 L676 1200 Z M674 1198 L675 1197 L676 1198 L675 1199 Z M358 1197 L359 1199 L348 1211 L347 1209 L350 1204 Z M673 1197 L674 1196 L675 1197 L674 1198 Z M358 1197 L359 1196 L360 1197 L359 1198 Z M359 1196 L360 1195 L361 1196 L360 1197 Z M666 1190 L667 1189 L668 1190 L667 1191 Z M719 1196 L712 1210 L708 1214 L702 1215 L687 1208 L681 1203 L681 1201 L674 1196 L673 1197 L667 1191 L669 1190 L679 1196 L688 1199 L697 1199 L698 1200 L697 1201 L700 1200 L702 1197 L711 1193 L718 1187 L719 1188 Z M301 1192 L302 1188 L304 1187 L310 1196 L310 1199 L314 1210 L315 1210 L314 1206 L314 1201 L315 1200 L324 1206 L323 1208 L323 1215 L322 1216 L319 1211 L323 1219 L324 1226 L326 1229 L327 1234 L334 1247 L344 1258 L345 1261 L349 1260 L356 1263 L366 1263 L380 1257 L382 1255 L405 1243 L411 1242 L413 1240 L422 1236 L450 1227 L460 1226 L466 1224 L472 1224 L473 1223 L488 1222 L489 1221 L508 1221 L509 1220 L538 1221 L539 1222 L558 1223 L564 1225 L574 1226 L590 1230 L603 1235 L625 1247 L646 1262 L645 1263 L641 1262 L649 1268 L669 1278 L678 1281 L683 1281 L686 1283 L686 1285 L683 1287 L678 1288 L677 1287 L669 1287 L660 1284 L645 1276 L625 1261 L594 1242 L567 1232 L555 1229 L544 1228 L543 1227 L536 1227 L535 1226 L492 1226 L491 1227 L483 1227 L482 1228 L477 1228 L462 1232 L458 1232 L444 1237 L433 1243 L431 1243 L392 1265 L382 1267 L381 1270 L382 1269 L384 1270 L384 1276 L383 1277 L378 1277 L371 1272 L369 1272 L366 1276 L366 1278 L367 1278 L369 1275 L371 1278 L371 1281 L367 1284 L356 1284 L344 1280 L330 1272 L320 1263 L311 1250 L306 1239 L302 1226 L301 1213 L300 1212 Z M324 1210 L327 1205 L333 1211 L337 1210 L345 1205 L346 1209 L342 1219 L343 1223 L348 1229 L354 1231 L369 1225 L386 1213 L403 1204 L406 1204 L419 1197 L425 1196 L432 1193 L445 1191 L446 1190 L451 1190 L452 1189 L458 1189 L466 1187 L475 1187 L476 1186 L487 1186 L488 1185 L532 1185 L533 1186 L546 1186 L547 1187 L555 1187 L556 1188 L564 1188 L571 1190 L577 1190 L578 1191 L592 1193 L612 1198 L627 1203 L645 1211 L655 1218 L666 1228 L672 1232 L680 1235 L688 1234 L692 1230 L696 1222 L703 1231 L707 1230 L720 1223 L723 1224 L724 1229 L722 1236 L716 1246 L704 1258 L690 1266 L673 1270 L665 1269 L651 1263 L624 1244 L599 1231 L587 1227 L566 1223 L565 1222 L553 1221 L552 1220 L544 1220 L543 1219 L530 1219 L529 1218 L497 1218 L496 1219 L471 1221 L470 1222 L465 1222 L464 1223 L459 1223 L449 1226 L445 1226 L429 1231 L402 1243 L399 1242 L394 1247 L371 1259 L363 1261 L356 1261 L352 1260 L344 1255 L337 1248 L331 1239 L326 1227 Z M381 1171 L382 1172 L382 1182 L380 1190 L380 1197 L386 1204 L392 1207 L367 1224 L357 1228 L350 1228 L348 1226 L349 1224 L346 1218 L346 1213 L348 1211 L350 1211 L358 1203 L366 1191 L377 1178 Z M649 1169 L667 1194 L685 1210 L694 1214 L694 1220 L692 1226 L687 1232 L680 1233 L671 1229 L653 1214 L638 1205 L645 1202 L648 1199 L649 1196 L649 1188 L648 1187 L648 1170 Z M694 1167 L695 1166 L696 1167 L695 1168 Z M696 1164 L697 1163 L698 1164 L697 1165 Z M703 1161 L700 1164 L697 1163 L701 1160 Z M713 1148 L714 1150 L712 1153 L703 1161 L702 1160 Z M713 1148 L714 1147 L715 1148 L714 1149 Z M714 1146 L715 1145 L716 1146 L715 1147 Z M665 1119 L663 1127 L663 1146 L664 1147 L665 1155 L671 1169 L679 1180 L683 1183 L672 1168 L666 1154 L666 1149 L664 1142 Z M363 1113 L362 1114 L364 1118 L365 1129 L366 1130 L366 1144 L365 1145 L364 1154 L357 1173 L351 1182 L345 1188 L355 1179 L363 1163 L366 1152 L366 1148 L367 1147 L367 1125 Z M660 1112 L661 1111 L662 1112 L661 1113 Z M661 1110 L662 1109 L663 1110 L662 1111 Z M662 1107 L663 1106 L664 1108 L663 1109 Z M669 1104 L671 1105 L673 1121 L679 1141 L690 1165 L694 1171 L706 1182 L716 1186 L712 1191 L701 1197 L697 1198 L687 1197 L681 1195 L668 1188 L657 1178 L649 1165 L649 1157 L650 1156 L650 1151 L654 1134 L657 1125 L666 1107 Z M359 1092 L367 1107 L375 1131 L377 1143 L379 1148 L380 1159 L381 1160 L381 1168 L373 1180 L364 1189 L342 1205 L333 1209 L329 1205 L325 1197 L321 1186 L321 1183 L329 1181 L334 1178 L341 1168 L347 1151 L351 1135 L351 1131 L355 1115 L357 1093 Z M607 1091 L608 1090 L609 1091 L608 1092 Z M608 1089 L609 1088 L610 1089 L609 1090 Z M676 1074 L696 1074 L700 1073 L709 1079 L714 1079 L720 1090 L723 1102 L723 1122 L720 1133 L709 1150 L701 1158 L693 1164 L690 1161 L682 1143 L677 1128 L672 1103 L670 1101 L664 1107 L663 1106 L671 1083 Z M341 1070 L348 1071 L351 1074 L359 1089 L355 1093 L352 1120 L345 1147 L342 1145 L336 1135 L330 1112 L330 1095 L331 1094 L331 1090 L335 1079 Z M339 1067 L340 1066 L344 1067 L343 1068 Z M363 1066 L374 1081 L370 1074 Z M327 1066 L331 1063 L334 1065 L339 1065 L340 1066 L334 1068 Z M758 1062 L756 1069 L752 1075 L753 1075 L757 1068 Z M710 1058 L711 1057 L713 1058 L712 1059 Z M702 1057 L712 1061 L718 1066 L719 1072 L716 1076 L710 1077 L706 1073 L700 1070 L702 1066 L702 1059 L701 1058 Z M701 1057 L700 1068 L696 1072 L678 1072 L677 1071 L684 1057 L693 1057 L694 1056 L700 1056 Z M334 1051 L338 1051 L340 1053 L346 1064 L345 1066 L341 1064 L335 1063 L332 1061 L331 1056 Z M414 1069 L421 1063 L431 1058 L448 1054 L453 1054 L454 1053 L461 1053 L462 1052 L469 1052 L470 1051 L485 1051 L486 1050 L542 1050 L543 1051 L565 1052 L566 1053 L572 1053 L573 1054 L600 1058 L604 1060 L608 1064 L611 1071 L612 1077 L603 1100 L600 1103 L588 1122 L572 1153 L570 1155 L568 1154 L559 1154 L558 1153 L526 1152 L525 1151 L491 1151 L490 1152 L464 1153 L447 1124 L420 1090 L420 1087 L414 1074 Z M333 1050 L334 1048 L337 1049 L334 1051 Z M331 1047 L332 1050 L330 1055 L330 1061 L325 1066 L323 1066 L318 1060 L319 1059 L318 1058 L319 1053 L325 1048 Z M322 1043 L320 1042 L316 1044 L313 1047 L312 1051 L316 1046 Z M335 1037 L339 1036 L353 1041 L379 1055 L398 1069 L417 1088 L421 1095 L443 1122 L461 1152 L461 1156 L459 1158 L458 1163 L459 1163 L460 1159 L464 1155 L474 1155 L475 1154 L520 1153 L521 1154 L555 1155 L556 1156 L570 1157 L574 1173 L574 1164 L572 1157 L590 1123 L614 1087 L634 1067 L654 1053 L671 1045 L673 1043 L688 1037 L691 1037 L692 1039 L681 1057 L673 1073 L656 1118 L644 1169 L646 1172 L646 1184 L648 1190 L648 1196 L644 1201 L640 1203 L634 1204 L631 1202 L628 1202 L625 1200 L602 1193 L604 1192 L607 1180 L609 1177 L615 1158 L624 1139 L624 1137 L640 1106 L658 1080 L659 1077 L643 1099 L629 1126 L627 1128 L626 1132 L624 1134 L617 1149 L608 1175 L600 1193 L583 1189 L566 1187 L565 1186 L536 1184 L535 1183 L488 1183 L487 1184 L475 1184 L474 1185 L466 1185 L465 1186 L445 1188 L426 1193 L425 1192 L424 1177 L422 1174 L420 1166 L415 1156 L413 1149 L400 1123 L383 1095 L385 1100 L394 1114 L414 1155 L422 1177 L422 1181 L423 1182 L422 1185 L424 1192 L421 1195 L413 1197 L397 1205 L391 1205 L382 1198 L381 1194 L383 1187 L383 1159 L382 1158 L382 1151 L375 1123 L373 1120 L370 1109 L362 1092 L362 1090 L343 1054 L341 1052 L335 1040 Z M604 1029 L605 1028 L607 1029 L606 1030 Z M603 1028 L604 1027 L605 1028 L604 1029 Z M719 1014 L720 1013 L721 1014 L720 1015 Z M458 1007 L459 1006 L460 1007 L459 1008 Z M536 1005 L537 1004 L538 1005 L537 1006 Z M324 1003 L325 1002 L326 1003 L325 1004 Z M746 1064 L748 1077 L749 1078 L749 1083 L750 1084 L751 1107 L752 1108 L751 1156 L750 1157 L750 1166 L749 1167 L749 1172 L746 1185 L741 1196 L733 1203 L728 1203 L724 1201 L720 1201 L719 1199 L721 1195 L721 1186 L719 1184 L715 1184 L705 1179 L695 1168 L696 1167 L718 1168 L723 1165 L726 1160 L726 1158 L723 1163 L719 1166 L708 1166 L702 1164 L713 1155 L719 1144 L724 1128 L725 1116 L726 1115 L724 1096 L720 1084 L717 1079 L721 1072 L721 1068 L719 1064 L712 1059 L713 1058 L723 1062 L735 1074 L741 1088 L744 1100 L744 1106 L745 1107 L746 1115 L745 1098 L742 1086 L738 1076 L735 1071 L726 1062 L711 1055 L702 1054 L701 1053 L687 1053 L686 1052 L693 1041 L694 1038 L693 1036 L687 1036 L680 1038 L653 1051 L642 1058 L633 1057 L640 1060 L623 1074 L610 1089 L609 1087 L613 1081 L613 1070 L607 1059 L603 1056 L605 1047 L601 1056 L598 1056 L595 1054 L600 1051 L599 1048 L593 1053 L583 1053 L582 1052 L575 1052 L567 1050 L546 1049 L545 1048 L480 1048 L479 1049 L468 1049 L467 1050 L459 1050 L452 1052 L445 1052 L430 1056 L417 1063 L411 1070 L415 1080 L414 1082 L400 1068 L376 1051 L353 1039 L336 1034 L333 1037 L334 1042 L336 1045 L335 1046 L331 1045 L325 1046 L318 1052 L307 1077 L300 1105 L300 1120 L304 1092 L311 1071 L316 1060 L321 1067 L328 1069 L333 1069 L338 1071 L332 1081 L328 1094 L328 1111 L329 1112 L329 1118 L333 1133 L338 1143 L344 1150 L344 1153 L342 1157 L333 1151 L327 1144 L324 1134 L325 1119 L323 1125 L324 1141 L328 1148 L334 1154 L341 1158 L336 1161 L327 1163 L321 1166 L318 1169 L329 1164 L336 1163 L339 1161 L341 1162 L337 1171 L332 1177 L326 1180 L321 1180 L319 1183 L322 1195 L326 1202 L325 1203 L318 1200 L305 1186 L295 1168 L295 1165 L292 1157 L291 1137 L290 1136 L291 1097 L292 1096 L292 1088 L293 1087 L293 1080 L294 1079 L296 1061 L300 1044 L304 1033 L312 1019 L325 1006 L331 1002 L341 998 L353 997 L354 996 L356 997 L365 997 L366 998 L374 999 L384 1003 L387 1007 L389 1016 L396 1029 L400 1033 L410 1037 L408 1040 L402 1040 L408 1042 L404 1048 L401 1050 L402 1051 L419 1034 L429 1029 L434 1025 L444 1021 L452 1014 L466 1006 L480 1006 L494 1015 L504 1016 L505 1017 L516 1017 L520 1015 L523 1015 L531 1010 L544 1011 L550 1008 L556 1009 L570 1019 L574 1019 L569 1017 L559 1010 L563 1009 L579 1013 L597 1014 L603 1018 L599 1014 L600 1013 L609 1012 L620 1007 L627 1002 L632 997 L635 992 L636 993 L635 1005 L630 1020 L628 1023 L629 1026 L622 1034 L614 1034 L608 1032 L606 1030 L610 1029 L612 1031 L610 1028 L600 1027 L585 1022 L569 1022 L566 1023 L565 1022 L540 1022 L539 1021 L535 1021 L534 1022 L471 1021 L470 1022 L462 1022 L461 1023 L449 1024 L448 1025 L444 1025 L443 1023 L442 1024 L443 1025 L439 1029 L447 1028 L452 1026 L458 1026 L464 1024 L474 1024 L475 1023 L495 1023 L496 1024 L509 1024 L510 1025 L559 1024 L571 1027 L570 1025 L571 1024 L582 1024 L583 1025 L593 1026 L602 1030 L608 1034 L616 1042 L620 1048 L618 1042 L614 1037 L615 1036 L620 1037 L624 1035 L629 1030 L637 1011 L637 1008 L639 1006 L657 1000 L676 999 L677 1000 L689 1001 L693 1003 L699 1004 L704 1007 L706 1007 L718 1015 L726 1023 L733 1033 L739 1044 Z M386 990 L387 989 L392 996 L401 1003 L417 1010 L429 1011 L430 1010 L434 1010 L445 1007 L452 1007 L453 1006 L458 1008 L444 1018 L428 1026 L420 1027 L403 1018 L399 1014 L391 1001 L394 1009 L401 1018 L405 1021 L407 1021 L413 1025 L421 1028 L423 1030 L414 1035 L413 1034 L411 1035 L407 1032 L405 1025 L402 1027 L404 1030 L403 1032 L397 1026 L393 1020 L387 1000 Z M282 989 L283 988 L284 989 L283 990 Z M526 987 L525 987 L525 993 L526 994 L525 1000 L528 995 Z M586 981 L587 980 L588 982 L587 983 Z M737 977 L742 987 L741 990 L736 980 Z M419 976 L420 975 L421 976 L420 977 Z M731 967 L732 966 L733 967 L732 968 Z M298 963 L299 962 L300 963 L299 964 Z M376 958 L379 974 L385 986 L384 989 L385 1000 L384 1001 L368 995 L349 994 L335 998 L327 1003 L325 1002 L334 988 L349 972 L362 963 L374 957 Z M270 957 L282 963 L286 963 L287 964 L298 963 L299 964 L291 979 L284 989 L281 976 L276 967 L269 958 Z M268 957 L269 956 L270 957 L269 958 Z M267 956 L268 955 L269 956 L268 957 Z M313 955 L314 954 L315 955 L314 956 Z M314 954 L315 953 L316 954 L315 955 Z M592 950 L591 950 L591 955 L588 962 L579 972 L570 988 L574 985 L579 978 L581 972 L590 962 L593 954 L596 960 L594 962 L589 980 L588 981 L585 975 L583 975 L581 977 L585 978 L584 989 L588 985 L590 981 L596 960 L599 967 L599 976 L596 982 L589 989 L579 996 L571 998 L568 1000 L576 999 L585 994 L597 983 L601 975 L600 964 L595 953 Z M788 946 L789 948 L782 960 L774 969 L768 980 L767 991 L766 992 L758 982 L753 972 L753 969 L760 967 L770 962 L777 957 Z M644 947 L645 946 L646 947 L650 947 L661 952 L682 967 L698 983 L715 1004 L720 1013 L719 1014 L708 1006 L697 1001 L685 998 L679 998 L678 997 L657 998 L639 1004 L638 1003 L638 999 L639 998 L638 986 L640 983 L643 973 Z M425 946 L426 947 L426 957 L428 964 L436 975 L427 978 L424 976 L423 969 L423 973 L422 974 L418 968 L419 954 L421 950 Z M788 945 L789 944 L790 946 L789 947 Z M789 944 L790 943 L791 944 L790 945 Z M428 942 L420 950 L416 959 L415 966 L418 976 L420 978 L421 976 L423 978 L424 983 L433 992 L442 997 L444 997 L446 999 L447 998 L445 996 L436 992 L428 986 L426 981 L429 978 L437 976 L445 982 L445 986 L446 987 L448 987 L446 984 L448 983 L457 991 L467 997 L466 995 L459 991 L447 980 L437 974 L432 968 L428 960 L428 956 L427 955 L427 946 L429 942 Z M491 941 L495 959 L497 963 L498 983 L499 983 L499 964 L494 947 Z M585 939 L586 943 L586 951 L585 953 L586 953 L587 942 Z M542 933 L543 932 L544 933 L543 934 Z M543 930 L544 929 L545 931 L544 932 Z M368 929 L366 929 L363 933 L362 936 L359 939 L344 962 L340 971 L341 971 L342 968 Z M544 927 L545 926 L546 928 L545 929 Z M541 918 L534 931 L524 970 L518 984 L506 997 L499 997 L495 994 L497 997 L501 999 L505 999 L506 998 L507 999 L506 998 L517 988 L524 975 L529 957 L531 963 L532 978 L535 988 L535 979 L533 971 L532 951 L531 950 L532 949 L534 935 Z M573 886 L574 885 L575 886 L574 887 Z M575 885 L576 884 L577 885 L576 886 Z M408 888 L418 884 L431 884 L443 889 L455 898 L468 913 L477 930 L481 943 L483 945 L480 969 L474 986 L475 993 L477 997 L482 1003 L481 1004 L478 1003 L462 1004 L456 1002 L450 1002 L437 1007 L422 1008 L410 1005 L402 1001 L390 990 L384 979 L379 963 L378 944 L379 943 L380 930 L383 920 L388 909 L396 898 Z M585 881 L586 880 L587 881 L586 882 Z M573 889 L583 884 L590 882 L602 882 L615 886 L628 893 L645 907 L659 922 L703 981 L701 976 L691 961 L680 948 L662 923 L649 908 L635 895 L628 890 L617 884 L603 880 L604 879 L609 879 L621 883 L637 891 L676 919 L695 935 L719 959 L730 966 L735 982 L743 998 L748 1005 L765 1021 L771 1032 L774 1042 L775 1058 L774 1059 L773 1072 L769 1088 L762 1106 L764 1104 L769 1093 L774 1074 L774 1068 L776 1061 L775 1039 L773 1035 L773 1032 L766 1019 L744 997 L741 991 L742 989 L749 997 L750 996 L745 990 L740 980 L735 975 L734 969 L733 970 L732 968 L736 967 L740 969 L751 969 L752 970 L752 974 L756 981 L767 994 L775 1009 L779 1019 L783 1035 L783 1069 L782 1070 L782 1078 L781 1079 L780 1091 L774 1109 L763 1153 L760 1157 L755 1153 L754 1154 L752 1153 L753 1152 L753 1139 L754 1138 L754 1110 L753 1109 L752 1085 L751 1084 L750 1073 L746 1057 L736 1034 L725 1019 L715 1001 L702 985 L681 964 L661 950 L655 947 L644 944 L643 932 L637 915 L631 906 L622 897 L612 891 L602 888 L592 888 L584 890 L570 898 L557 911 L546 927 L545 924 L554 908 L562 898 Z M403 878 L404 877 L405 878 L404 879 Z M405 877 L406 876 L408 877 L407 878 Z M450 884 L460 894 L471 909 L473 910 L473 912 L476 916 L475 917 L477 918 L481 927 L483 935 L483 940 L482 941 L480 936 L480 932 L471 913 L455 895 L444 887 L432 882 L426 882 L425 881 L415 882 L406 886 L396 894 L385 909 L378 927 L377 937 L376 938 L376 954 L374 956 L372 956 L360 962 L342 976 L331 989 L324 1000 L321 1007 L317 1010 L307 1023 L302 1033 L295 1055 L295 1060 L294 1061 L294 1066 L293 1067 L293 1073 L292 1074 L287 1066 L284 1053 L285 1029 L289 1017 L295 1007 L292 1010 L285 1025 L282 1036 L283 1057 L287 1070 L292 1077 L291 1088 L290 1089 L290 1100 L289 1101 L289 1116 L288 1117 L288 1138 L289 1139 L289 1144 L288 1145 L286 1142 L279 1121 L278 1114 L274 1102 L274 1097 L271 1085 L270 1067 L269 1066 L269 1044 L270 1043 L270 1035 L271 1034 L273 1019 L279 1001 L286 988 L289 985 L299 969 L302 962 L307 959 L309 960 L307 965 L306 975 L304 978 L304 981 L301 989 L303 988 L309 969 L309 964 L310 963 L310 957 L311 956 L314 957 L318 955 L357 914 L374 899 L388 889 L407 879 L416 876 L424 876 L425 875 L437 877 Z M575 866 L576 865 L577 866 L576 867 Z M445 861 L446 860 L447 861 L446 862 Z M439 844 L443 855 L446 859 L445 861 L435 857 L430 857 L429 856 L434 852 Z M511 836 L515 843 L519 855 L517 871 L514 882 L514 888 L512 891 L511 890 L510 877 L509 876 L507 859 L506 858 L506 846 L508 839 Z M433 833 L428 841 L423 846 L412 852 L402 855 L396 858 L396 859 L410 854 L422 848 L430 840 L433 835 Z M591 832 L589 833 L588 839 L583 851 L570 872 L582 865 L600 860 L600 859 L595 859 L583 863 L578 866 L576 865 L587 847 L591 835 Z M553 831 L539 868 L535 884 L535 888 L531 901 L531 905 L529 909 L529 913 L527 917 L526 924 L524 928 L520 946 L513 969 L514 969 L516 965 L516 962 L524 937 L525 930 L531 912 L531 908 L540 872 L544 859 L550 846 L550 843 L554 832 Z M521 829 L520 829 L522 835 L521 848 L520 849 L518 848 L516 841 L512 833 L510 832 L506 839 L505 848 L504 849 L505 862 L506 863 L509 885 L511 891 L512 902 L513 902 L513 898 L514 897 L515 884 L516 883 L517 873 L518 872 L520 857 L522 851 L522 846 L523 845 L523 840 L524 839 L523 833 Z M563 820 L568 832 L561 838 L560 836 L561 835 L562 821 Z M565 820 L566 819 L567 820 L566 821 Z M370 804 L371 803 L372 804 L371 805 Z M753 799 L747 809 L741 827 L732 847 L725 857 L712 869 L715 868 L721 863 L731 851 L741 831 L746 815 Z M587 797 L588 796 L589 797 L588 798 Z M586 796 L587 795 L588 796 L587 797 Z M335 796 L336 795 L337 796 L336 797 Z M449 795 L450 794 L451 796 L450 797 Z M356 795 L357 794 L371 808 L377 812 L396 821 L408 821 L419 818 L434 810 L449 796 L450 799 L444 811 L439 818 L428 827 L419 828 L418 829 L411 829 L398 834 L390 835 L389 836 L380 836 L370 832 L363 823 L358 809 Z M334 795 L335 794 L336 795 L335 796 Z M585 794 L586 793 L587 795 L586 796 Z M355 794 L356 793 L357 794 L356 795 Z M333 794 L334 793 L335 794 L334 795 Z M748 792 L745 802 L740 809 L736 820 L748 800 L748 796 L749 795 Z M481 792 L485 794 L492 795 L497 798 L503 798 L503 797 L494 795 L492 793 Z M583 791 L584 790 L586 793 L585 794 Z M582 789 L583 788 L584 790 L583 791 Z M581 787 L582 786 L583 788 L582 789 Z M662 786 L656 790 L659 789 Z M585 787 L586 786 L598 785 L615 797 L635 806 L648 806 L649 805 L658 804 L661 802 L663 803 L653 813 L641 821 L636 821 L635 822 L620 821 L620 822 L624 823 L632 823 L633 824 L641 823 L646 821 L666 801 L676 796 L686 786 L687 788 L682 808 L675 822 L666 831 L662 833 L652 835 L651 834 L642 834 L624 828 L605 816 L590 801 L588 798 L589 796 Z M453 786 L446 797 L438 805 L427 812 L416 817 L406 818 L405 817 L391 816 L377 810 L371 805 L374 804 L385 807 L399 807 L413 803 L423 798 L441 786 L444 785 L452 785 Z M601 785 L606 783 L613 786 L621 786 L623 788 L634 792 L645 798 L657 801 L654 803 L650 803 L649 804 L636 804 L632 803 L617 796 Z M464 781 L465 782 L465 797 L466 798 L465 818 L466 822 L468 824 L467 830 L465 832 L462 831 L452 823 L439 818 L445 812 L450 803 L455 785 Z M567 780 L568 779 L572 780 L571 781 Z M564 779 L565 778 L568 779 L567 780 Z M562 778 L563 777 L565 778 L564 779 Z M419 778 L420 777 L423 778 L422 779 Z M560 777 L561 776 L563 777 L562 778 Z M417 777 L418 776 L420 777 L419 778 Z M558 776 L559 775 L561 776 L560 777 Z M415 776 L416 775 L417 776 L416 777 Z M283 776 L284 775 L285 776 L284 777 Z M556 775 L557 774 L559 775 L558 776 Z M555 774 L556 773 L557 774 L556 775 Z M553 773 L554 772 L555 773 L554 774 Z M552 772 L553 771 L554 772 L553 773 Z M622 771 L617 775 L607 780 L597 783 L581 784 L571 781 L572 780 L578 780 L579 781 L595 780 L609 776 L620 770 Z M621 770 L622 769 L623 770 L622 771 Z M549 770 L550 769 L551 770 L550 771 Z M667 769 L668 768 L670 769 L669 770 Z M548 769 L549 768 L550 769 L549 770 Z M669 768 L670 767 L671 768 L670 769 Z M637 768 L628 779 L625 786 L615 782 L610 782 L609 781 L613 779 L620 778 L632 769 L636 767 Z M622 769 L624 767 L626 768 L624 770 Z M547 768 L548 767 L549 768 L548 769 Z M636 767 L637 766 L638 767 L637 768 Z M629 767 L630 766 L631 767 L630 768 Z M625 767 L626 766 L627 767 L626 768 Z M637 766 L638 765 L639 766 L638 767 Z M631 766 L632 765 L633 766 L632 767 Z M626 766 L627 765 L628 766 L627 767 Z M543 766 L544 765 L545 766 L544 767 Z M676 765 L672 768 L670 767 L674 764 Z M632 765 L633 764 L634 765 L633 766 Z M627 765 L628 764 L629 765 L628 766 Z M675 764 L676 763 L677 764 L676 765 Z M633 764 L634 763 L635 764 L634 765 Z M676 763 L677 762 L678 763 L677 764 Z M634 763 L635 762 L636 763 L635 764 Z M630 763 L631 762 L632 763 L631 764 Z M635 762 L636 761 L637 762 L636 763 Z M631 762 L632 761 L633 762 L632 763 Z M751 761 L752 760 L753 761 L752 762 Z M632 761 L633 760 L634 761 L633 762 Z M633 760 L634 759 L635 760 L634 761 Z M634 759 L635 758 L636 759 L635 760 Z M635 758 L636 757 L637 758 L636 759 Z M495 758 L496 757 L498 758 L497 759 Z M636 757 L637 756 L638 757 L637 758 Z M493 757 L494 756 L496 757 L495 758 Z M637 756 L638 755 L639 756 L638 757 Z M529 761 L537 755 L544 765 L542 766 L538 763 L530 762 Z M484 764 L489 755 L493 759 L497 761 L485 765 Z M385 756 L386 755 L387 756 L386 757 Z M259 755 L260 756 L259 759 L258 758 Z M384 755 L385 754 L386 755 L385 756 Z M485 754 L486 753 L487 755 L486 756 Z M383 754 L384 753 L385 754 L384 755 Z M765 752 L767 755 L765 758 L764 757 L764 753 Z M387 753 L388 752 L389 753 L388 754 Z M642 752 L643 751 L644 752 L643 753 Z M538 752 L539 751 L540 753 L539 754 Z M386 752 L387 751 L388 752 L387 753 Z M382 752 L383 751 L384 752 L383 753 Z M648 750 L649 751 L637 762 L636 761 Z M643 751 L644 750 L645 751 L644 752 Z M385 751 L386 750 L387 751 L386 752 Z M381 751 L382 750 L383 751 L382 752 Z M648 750 L649 749 L650 750 L649 751 Z M644 750 L645 749 L646 750 L645 751 Z M384 750 L385 749 L386 750 L385 751 Z M380 750 L381 749 L382 750 L381 751 Z M645 749 L646 748 L647 749 L646 750 Z M351 749 L350 750 L350 757 L351 757 Z M646 748 L647 747 L648 748 L647 749 Z M379 748 L380 747 L381 749 L380 750 Z M745 746 L747 753 L752 760 L751 761 L745 756 L744 753 L744 747 Z M647 747 L648 746 L649 747 L648 748 Z M378 747 L379 746 L380 747 L379 748 Z M648 746 L649 745 L650 746 L649 747 Z M377 746 L378 745 L379 746 L378 747 Z M791 745 L791 750 L792 751 L792 792 L793 793 L793 835 L792 836 L792 842 L791 843 L789 858 L781 884 L772 903 L768 909 L759 919 L750 924 L746 925 L730 925 L726 924 L712 917 L703 910 L708 916 L722 924 L732 927 L742 927 L743 926 L748 926 L757 922 L767 913 L777 896 L788 867 L792 851 L793 840 L794 839 L794 829 L795 828 L794 774 L795 773 L798 780 L798 786 L799 787 L800 810 L801 811 L802 824 L804 831 L804 850 L800 867 L792 888 L784 901 L776 911 L787 899 L796 883 L804 858 L805 848 L806 847 L806 835 L805 834 L805 826 L804 825 L803 813 L802 812 L801 792 L796 771 L794 767 L793 749 Z M654 744 L655 745 L650 750 L649 748 Z M649 745 L650 744 L651 745 L650 746 Z M654 744 L655 743 L656 744 L655 745 Z M650 744 L651 743 L652 744 L651 745 Z M376 744 L377 743 L378 745 L377 746 Z M655 743 L656 742 L657 743 L656 744 Z M651 743 L652 742 L653 743 L652 744 Z M375 743 L376 742 L377 743 L376 744 Z M352 743 L351 744 L359 751 L371 766 L372 771 L374 772 L378 782 L378 786 L379 785 L379 779 L374 767 L361 751 Z M656 742 L657 741 L658 742 L657 743 Z M647 742 L648 741 L649 742 L648 743 Z M374 742 L375 741 L376 742 L375 743 Z M648 741 L649 740 L650 741 L649 742 Z M331 741 L330 749 L329 750 L329 756 L328 757 L328 771 L329 772 L330 782 L334 791 L333 794 L327 786 L321 772 L324 783 L328 790 L333 796 L337 798 L346 806 L336 793 L331 780 L331 775 L330 774 Z M372 739 L373 738 L375 741 L374 742 Z M371 738 L372 737 L373 738 L372 739 Z M274 736 L275 737 L274 740 L273 739 Z M370 736 L371 735 L372 737 L371 738 Z M369 735 L370 734 L371 735 L370 736 Z M781 735 L780 734 L780 746 L779 747 L778 759 L776 765 L773 785 L760 833 L758 836 L755 846 L744 865 L730 878 L718 883 L709 883 L708 884 L692 883 L687 881 L683 881 L668 875 L665 875 L638 863 L629 861 L622 858 L614 857 L604 854 L595 855 L592 850 L593 836 L590 843 L590 851 L591 853 L596 857 L598 855 L603 855 L615 859 L626 861 L633 864 L636 864 L651 871 L653 871 L666 878 L667 877 L687 884 L700 885 L701 886 L711 886 L712 885 L721 884 L732 879 L747 864 L759 841 L767 816 L774 788 L775 779 L777 774 L777 770 L780 759 L780 752 L781 751 L781 740 L782 739 Z M368 734 L369 733 L370 734 L369 735 Z M742 732 L741 735 L735 741 L734 740 L735 741 L733 743 L733 745 L742 736 L743 737 L743 746 L742 747 L743 755 L745 759 L753 765 L756 774 L756 778 L757 779 L757 795 L755 798 L756 799 L759 794 L759 791 L764 779 L766 757 L767 756 L773 764 L774 764 L775 759 L772 760 L770 758 L764 747 L764 744 L763 744 L764 766 L763 767 L763 776 L759 787 L758 786 L758 776 L754 766 L755 763 L746 747 L746 744 L744 742 L744 735 L743 732 Z M367 732 L368 731 L369 733 L368 734 Z M449 731 L450 730 L451 731 L450 732 Z M365 729 L366 728 L368 731 L367 732 Z M270 728 L274 734 L273 737 L269 730 Z M268 727 L269 726 L270 727 L269 728 Z M363 726 L364 725 L366 728 L365 729 Z M362 725 L363 724 L364 725 L363 726 Z M267 724 L268 723 L269 725 L268 726 Z M361 723 L362 722 L363 724 L362 725 Z M304 723 L305 722 L307 723 L306 724 Z M266 722 L267 721 L268 722 L267 723 Z M360 721 L361 720 L362 722 L361 723 Z M359 720 L360 719 L361 720 L360 721 Z M307 720 L304 720 L300 724 L298 729 L296 764 L297 763 L297 757 L299 749 L299 730 L303 724 L304 725 L307 723 L309 725 L311 731 L312 731 L311 726 Z M265 719 L266 718 L267 720 L266 721 Z M264 716 L265 715 L266 717 L265 718 Z M801 710 L804 710 L808 713 L810 718 L811 731 L812 734 L818 739 L824 738 L833 728 L840 729 L843 734 L844 752 L843 753 L843 764 L842 765 L841 774 L836 784 L827 792 L820 792 L817 790 L813 790 L809 795 L808 794 L806 786 L806 781 L805 780 L805 746 L808 733 L806 735 L804 742 L803 766 L802 767 L793 734 L793 728 L794 727 L795 719 L797 714 Z M684 704 L685 703 L686 704 L685 705 Z M536 703 L540 719 L542 723 L542 736 L541 737 L540 745 L537 751 L528 759 L520 762 L510 763 L498 760 L497 759 L498 758 L517 759 L526 755 L531 750 L534 741 L534 710 Z M512 703 L517 714 L519 728 L517 735 L514 738 L509 738 L504 732 L504 720 Z M346 704 L347 703 L348 704 L348 706 L364 732 L375 747 L384 757 L402 783 L406 786 L386 758 L387 756 L404 773 L411 778 L417 780 L421 783 L418 785 L415 785 L410 788 L405 789 L398 793 L395 793 L391 795 L385 794 L384 796 L373 795 L372 793 L369 792 L363 787 L364 790 L367 793 L374 797 L384 798 L397 795 L419 785 L422 785 L423 788 L424 785 L427 783 L437 786 L419 798 L410 802 L407 802 L399 805 L379 804 L372 802 L363 797 L356 790 L350 774 L349 762 L346 749 L346 741 L345 740 L346 737 L345 735 L346 732 L346 725 L345 724 Z M685 703 L686 702 L687 703 L686 704 Z M277 701 L278 702 L278 707 L277 708 L276 707 L276 702 Z M586 699 L587 700 L586 703 L585 702 Z M586 697 L587 696 L588 698 L587 699 Z M698 695 L700 698 L700 705 L701 706 L701 721 L700 722 L700 729 L699 730 L696 756 L694 758 L690 751 L688 750 L679 759 L670 764 L660 774 L652 780 L648 787 L648 791 L651 794 L650 787 L652 783 L666 771 L671 770 L678 765 L688 752 L692 757 L693 767 L690 776 L686 783 L673 795 L661 799 L645 796 L628 788 L626 786 L630 779 L639 769 L640 766 L638 765 L655 749 L683 718 L682 717 L677 721 L658 740 L654 743 L652 742 Z M587 693 L588 692 L589 694 L588 695 Z M495 690 L496 706 L495 707 L495 714 L494 715 L494 722 L493 723 L493 739 L494 743 L497 747 L494 738 L494 728 L495 727 L495 720 L496 719 L496 712 L497 711 L496 692 Z M443 687 L441 688 L437 694 L444 691 Z M701 684 L702 683 L703 684 L702 685 Z M522 681 L523 680 L524 682 L523 683 Z M523 679 L524 678 L525 679 L524 680 Z M619 676 L620 675 L621 677 L620 678 Z M524 676 L525 675 L526 677 L525 678 Z M620 674 L621 673 L622 675 L621 676 Z M329 672 L338 686 L341 694 L345 699 L344 717 L343 718 L331 688 L328 676 Z M719 670 L720 671 L720 676 L715 696 L709 711 L704 720 L703 719 L702 697 L700 693 Z M255 671 L256 670 L257 671 L256 672 Z M252 670 L254 673 L254 676 L252 680 L251 679 L251 671 Z M719 670 L720 669 L721 670 L720 671 Z M250 670 L251 669 L252 670 L251 671 Z M783 669 L783 676 L784 677 L784 670 Z M623 668 L624 671 L622 674 L621 671 Z M292 667 L296 672 L297 681 L294 683 L291 683 L289 678 L288 679 L289 685 L286 688 L283 685 L284 672 L288 667 Z M624 665 L625 666 L624 669 L623 668 Z M488 666 L490 674 L490 679 L492 684 L492 689 L493 687 L492 686 L491 675 Z M419 666 L420 665 L421 666 L420 667 Z M624 664 L625 663 L626 665 L625 666 Z M763 661 L766 661 L770 664 L774 674 L771 682 L768 685 L766 685 L763 682 L763 675 L766 673 L766 672 L764 672 L761 677 L763 685 L765 687 L768 687 L772 683 L774 677 L776 681 L776 690 L775 691 L776 694 L776 704 L775 705 L775 714 L774 715 L771 705 L768 701 L770 697 L768 697 L767 699 L764 696 L764 693 L763 693 L759 702 L755 691 L755 675 L756 671 L759 665 Z M625 661 L626 660 L627 662 L626 663 Z M447 660 L446 661 L447 664 L446 677 L448 675 L448 663 Z M626 658 L627 657 L628 659 L627 660 Z M427 651 L431 660 L439 668 L437 673 L433 677 L427 676 L420 668 L423 657 Z M349 649 L349 654 L351 658 Z M315 644 L316 643 L317 644 L316 645 Z M740 635 L741 634 L742 635 L741 636 Z M596 633 L597 634 L596 637 L595 636 Z M454 633 L456 643 L465 668 L466 675 L468 679 L469 688 L473 698 L474 698 L474 695 L469 682 L466 667 L460 651 L460 648 L458 646 L458 642 Z M445 625 L446 626 L446 638 L447 638 L447 628 Z M775 621 L776 622 L776 629 L778 635 L779 648 L778 649 L776 668 L774 669 L769 657 L769 652 L768 651 L769 648 L768 649 L767 648 L767 640 L770 629 Z M441 620 L442 619 L443 621 L442 622 Z M493 618 L499 642 L503 654 L505 655 L505 652 L500 640 L500 636 L498 632 L497 625 Z M745 613 L746 612 L747 613 L746 614 Z M320 610 L320 616 L319 617 L320 623 L323 630 L326 633 L323 626 L322 618 L321 617 L321 611 Z M783 605 L777 616 L771 624 L766 637 L766 650 L767 651 L768 659 L767 660 L762 660 L759 662 L755 669 L753 676 L754 694 L762 715 L762 733 L758 740 L759 743 L760 743 L760 740 L764 731 L763 713 L759 703 L761 702 L763 697 L769 704 L772 713 L772 720 L773 721 L773 725 L775 728 L775 742 L776 741 L776 736 L777 735 L777 712 L776 711 L776 706 L778 699 L778 685 L776 678 L776 672 L777 671 L779 654 L780 653 L780 640 L777 628 L777 620 Z M235 601 L236 600 L237 602 L236 603 Z M284 600 L285 599 L286 601 L285 602 Z M283 599 L284 598 L285 599 L284 600 Z M234 595 L236 596 L236 598 L234 600 L235 611 L238 618 L238 621 L240 623 L236 609 L236 604 L237 603 L239 607 L239 611 L241 615 L244 630 L249 645 L247 646 L240 643 L238 644 L250 649 L256 667 L255 671 L252 668 L246 658 L235 648 L227 642 L225 642 L222 637 L222 611 L231 602 Z M281 595 L282 594 L283 595 L282 596 Z M556 594 L557 593 L558 594 L557 595 Z M739 593 L738 593 L736 605 L734 610 L734 615 L730 626 L731 628 L735 618 L735 613 L737 608 Z M685 593 L682 619 L684 611 Z M557 592 L558 591 L559 592 L558 593 Z M354 591 L354 600 L355 601 L356 610 L357 609 L357 605 L356 604 L356 597 Z M463 585 L471 602 L468 592 L465 586 Z M488 576 L489 575 L490 576 L489 577 Z M487 575 L488 574 L489 575 L488 576 Z M830 571 L831 572 L830 575 L829 574 Z M698 571 L698 579 L699 580 L701 601 L702 592 L701 591 L701 586 L699 583 Z M837 558 L838 557 L839 558 L838 559 Z M455 547 L457 557 L459 560 L456 563 L458 561 L460 563 L482 604 L493 638 L493 641 L497 651 L497 654 L501 664 L501 667 L510 694 L512 697 L512 700 L504 715 L502 721 L502 730 L504 736 L507 739 L513 740 L518 736 L520 732 L520 719 L514 703 L514 698 L517 694 L520 685 L522 683 L523 684 L522 686 L523 686 L536 654 L539 642 L541 639 L545 625 L550 615 L550 613 L561 592 L571 577 L571 575 L563 585 L559 592 L558 591 L550 599 L538 619 L530 640 L528 651 L530 650 L531 642 L539 621 L547 605 L556 594 L557 596 L549 611 L549 613 L542 628 L530 666 L528 670 L524 673 L516 693 L513 696 L510 691 L510 688 L506 678 L504 668 L497 649 L493 633 L491 630 L486 609 L476 588 L468 576 Z M686 533 L685 535 L685 543 L686 541 Z M324 533 L324 538 L326 542 L326 549 L325 550 L321 546 L320 552 L322 550 L324 554 L326 574 L332 595 L332 590 L329 583 L328 573 L327 572 L327 541 Z M732 531 L731 532 L732 559 L733 558 L733 541 L732 540 L733 532 Z M638 512 L639 514 L627 549 L626 556 L622 568 L622 572 L620 576 L617 596 L616 597 L616 602 L614 608 L614 614 L612 621 L610 639 L608 643 L606 653 L602 659 L599 656 L599 652 L598 651 L598 635 L599 634 L601 618 L604 609 L604 603 L609 588 L609 584 L615 560 L617 557 L620 546 L629 527 Z M320 512 L322 525 L323 525 L322 514 Z M217 516 L221 512 L224 511 L229 511 L235 514 L240 529 L239 533 L243 540 L245 549 L251 567 L256 577 L259 590 L262 597 L258 581 L258 558 L259 557 L261 540 L262 539 L263 540 L263 544 L266 552 L266 555 L271 570 L277 583 L277 586 L279 589 L279 598 L278 599 L280 597 L282 599 L288 614 L291 616 L285 604 L285 602 L286 601 L288 605 L296 616 L298 620 L299 626 L312 644 L319 651 L321 655 L321 657 L325 664 L326 676 L330 688 L330 691 L343 723 L344 746 L345 747 L345 753 L347 760 L348 774 L352 787 L354 790 L354 800 L357 813 L364 828 L370 834 L380 838 L390 838 L401 835 L410 831 L424 831 L429 829 L434 825 L437 834 L437 844 L435 848 L427 856 L418 857 L419 858 L430 858 L441 861 L446 864 L448 864 L458 872 L449 862 L443 851 L437 829 L437 824 L440 821 L448 823 L465 835 L474 848 L478 856 L483 861 L485 867 L486 875 L489 885 L493 924 L499 946 L501 961 L507 974 L508 973 L505 969 L505 966 L503 962 L501 948 L494 920 L492 892 L491 891 L488 872 L486 867 L483 851 L474 823 L475 832 L482 854 L481 858 L466 835 L469 830 L472 818 L478 811 L483 811 L490 816 L490 813 L483 809 L478 809 L472 814 L469 823 L468 824 L467 823 L467 815 L466 814 L467 813 L467 802 L468 801 L467 792 L466 791 L467 780 L468 779 L470 780 L470 784 L474 792 L476 790 L480 794 L475 788 L470 779 L475 775 L496 765 L502 765 L503 764 L504 765 L524 765 L525 764 L529 764 L541 769 L551 776 L562 781 L564 789 L564 803 L566 808 L566 818 L565 819 L563 815 L558 810 L551 809 L542 815 L534 825 L523 814 L517 811 L512 810 L503 813 L498 818 L495 826 L496 828 L495 829 L504 825 L498 827 L497 826 L499 820 L505 814 L511 812 L515 812 L524 817 L529 822 L533 829 L534 829 L540 820 L546 814 L552 811 L556 811 L560 815 L560 829 L559 830 L559 835 L557 843 L551 855 L558 843 L563 838 L577 828 L586 824 L590 824 L593 827 L594 831 L593 834 L595 833 L603 840 L611 844 L614 844 L610 843 L602 838 L595 830 L594 825 L590 822 L583 823 L570 830 L567 826 L568 809 L566 802 L566 790 L564 784 L565 782 L578 786 L589 803 L603 817 L611 823 L622 829 L644 836 L657 836 L661 835 L670 830 L678 821 L685 805 L690 780 L694 771 L698 756 L702 726 L716 699 L723 673 L723 666 L732 654 L737 644 L751 627 L773 591 L784 566 L787 554 L790 547 L791 537 L792 536 L794 541 L795 556 L796 557 L796 576 L795 577 L795 602 L794 603 L792 626 L791 627 L791 634 L790 635 L789 664 L788 665 L788 691 L789 692 L789 710 L790 711 L790 733 L791 734 L791 739 L792 737 L793 738 L796 753 L798 757 L798 760 L800 764 L804 780 L805 789 L813 813 L819 823 L828 833 L836 838 L840 838 L841 839 L841 859 L840 860 L839 877 L835 890 L831 897 L827 901 L824 902 L823 901 L824 893 L823 893 L821 899 L820 911 L816 922 L811 942 L810 952 L808 957 L802 999 L800 1001 L794 1001 L784 994 L780 996 L779 998 L778 997 L778 993 L782 992 L781 990 L779 990 L777 994 L778 996 L777 997 L777 1002 L775 1005 L769 994 L769 984 L774 972 L784 960 L790 950 L790 948 L792 946 L795 938 L797 936 L810 911 L813 902 L813 898 L816 891 L815 890 L816 886 L815 885 L810 906 L794 935 L787 944 L769 960 L755 966 L743 967 L732 964 L723 959 L686 924 L668 910 L657 903 L649 896 L636 888 L622 881 L604 876 L594 876 L577 881 L570 885 L557 897 L546 915 L541 929 L539 943 L538 944 L538 959 L539 963 L540 949 L544 936 L548 928 L560 911 L570 901 L585 892 L592 890 L606 891 L621 899 L630 908 L635 916 L640 928 L641 937 L642 938 L642 966 L641 967 L641 972 L639 980 L635 989 L628 998 L622 1003 L614 1008 L606 1010 L596 1010 L589 1008 L587 1006 L586 1006 L587 1008 L586 1009 L587 1008 L589 1009 L587 1011 L581 1011 L571 1008 L557 1007 L556 1006 L542 1006 L537 1004 L538 1002 L538 994 L536 1002 L528 1010 L518 1014 L504 1014 L497 1012 L488 1007 L477 995 L476 984 L482 968 L483 959 L486 957 L486 953 L487 952 L484 930 L480 918 L471 901 L465 893 L456 884 L444 876 L437 873 L429 872 L428 871 L418 871 L417 872 L409 873 L399 877 L385 886 L361 906 L325 943 L315 951 L295 961 L285 961 L284 960 L280 960 L272 956 L261 945 L256 938 L248 922 L241 902 L241 898 L238 887 L238 881 L237 880 L237 868 L236 865 L237 891 L244 917 L252 935 L267 959 L277 972 L281 982 L281 994 L279 997 L272 988 L274 986 L275 987 L275 985 L273 985 L270 988 L265 998 L260 1003 L256 1005 L252 1004 L248 996 L247 985 L243 969 L241 965 L241 962 L239 958 L238 951 L236 947 L233 930 L232 929 L232 923 L231 922 L231 916 L229 908 L228 883 L227 882 L227 843 L233 837 L233 818 L237 816 L242 811 L254 762 L256 736 L257 735 L259 743 L259 754 L257 757 L257 769 L256 770 L256 780 L255 781 L255 789 L254 790 L253 839 L259 865 L268 886 L274 895 L284 905 L296 912 L308 915 L318 913 L330 907 L346 896 L319 911 L312 913 L303 913 L293 909 L284 903 L276 895 L267 881 L259 860 L258 852 L255 842 L255 835 L254 834 L255 796 L256 795 L258 768 L260 764 L261 765 L261 822 L262 823 L262 831 L263 832 L264 842 L273 871 L281 887 L290 897 L282 886 L275 872 L268 852 L264 835 L263 815 L262 814 L262 792 L263 791 L262 751 L261 750 L260 740 L256 732 L256 713 L258 710 L264 720 L268 732 L272 739 L275 749 L277 752 L282 769 L283 787 L288 807 L290 811 L290 814 L292 818 L292 821 L302 849 L311 864 L317 870 L325 875 L335 878 L350 878 L351 877 L359 876 L393 863 L401 862 L401 861 L390 862 L366 872 L359 873 L355 875 L335 876 L320 870 L311 861 L305 851 L294 821 L289 800 L286 793 L285 785 L284 784 L284 778 L285 777 L293 794 L301 806 L310 825 L317 835 L311 824 L304 810 L304 808 L297 798 L288 781 L283 768 L283 765 L278 750 L276 747 L276 741 L278 733 L276 730 L276 724 L277 723 L277 718 L278 717 L280 718 L278 716 L279 705 L280 704 L284 704 L285 705 L282 716 L282 721 L284 723 L284 714 L286 707 L294 697 L298 687 L298 682 L299 681 L297 669 L291 664 L287 665 L284 668 L281 677 L281 685 L284 690 L287 690 L291 685 L295 684 L296 685 L295 690 L291 698 L286 703 L283 703 L279 701 L276 695 L276 687 L274 688 L274 693 L275 694 L274 707 L276 712 L276 719 L275 720 L275 725 L273 729 L269 722 L266 711 L266 702 L269 692 L271 689 L272 682 L274 679 L276 671 L277 656 L280 643 L280 635 L278 633 L278 646 L277 647 L274 674 L269 686 L268 685 L269 673 L273 656 L272 630 L275 622 L278 619 L282 624 L282 628 L283 627 L283 622 L280 618 L276 618 L272 623 L270 631 L270 641 L271 642 L271 651 L272 652 L271 653 L269 672 L268 673 L268 681 L267 682 L267 686 L269 688 L269 690 L266 696 L264 704 L265 715 L264 716 L258 707 L256 708 L254 712 L253 722 L254 723 L255 739 L254 740 L252 763 L251 764 L248 782 L247 783 L242 778 L235 784 L228 784 L226 782 L222 770 L222 738 L225 734 L229 737 L232 742 L236 758 L241 751 L244 738 L243 738 L241 746 L237 753 L235 750 L233 741 L227 733 L226 730 L226 645 L227 644 L232 649 L237 652 L247 663 L250 669 L250 675 L252 680 L252 688 L254 678 L257 673 L262 682 L265 684 L258 671 L255 657 L246 630 L235 585 L230 572 L229 566 L216 534 L215 523 Z M638 511 L639 510 L640 512 L639 513 Z M598 511 L596 513 L593 524 L587 534 L587 536 L580 546 L578 555 L575 558 L573 564 L569 568 L571 573 L571 570 L580 558 L582 546 L586 541 L593 528 Z M394 510 L399 517 L412 552 L416 568 L418 585 L419 586 L419 593 L421 600 L422 616 L423 617 L423 624 L424 625 L424 633 L426 641 L426 648 L422 655 L419 666 L415 657 L414 647 L413 646 L413 637 L412 636 L412 629 L411 628 L410 594 L409 593 L407 567 L406 566 L406 561 L403 548 L396 525 L395 516 L393 512 Z M639 509 L640 508 L641 509 L640 510 Z M735 503 L728 525 L728 529 L721 555 L716 567 L708 579 L717 568 L721 559 L721 556 L723 553 L723 550 L726 543 L733 512 L735 508 Z M570 502 L571 501 L572 502 L571 503 Z M569 500 L570 499 L571 500 L570 501 Z M440 499 L439 500 L440 501 L440 506 L442 510 L442 514 L445 523 L445 536 L446 537 L446 543 L448 548 L450 562 L455 577 L461 589 L462 589 L457 579 L450 556 L450 550 L446 533 L447 524 Z M523 497 L525 499 L532 515 L534 523 L534 528 L535 529 L535 540 L534 541 L533 551 L530 559 L519 578 L517 576 L510 560 L508 552 L508 547 L507 546 L507 534 L508 533 L508 527 L510 519 L514 509 L519 501 Z M523 493 L514 505 L510 513 L507 522 L506 533 L505 534 L505 545 L506 546 L507 557 L510 566 L518 581 L520 580 L531 562 L535 551 L536 540 L537 539 L537 530 L536 529 L535 518 L532 509 L525 495 Z M412 493 L412 512 L413 513 L414 527 L416 529 L415 517 L414 516 L414 508 L413 507 L413 495 L412 494 L413 493 Z M479 489 L480 488 L482 489 L481 490 Z M481 488 L482 487 L484 488 L483 489 Z M364 481 L368 485 L374 499 L375 509 L376 510 L376 517 L377 518 L377 527 L378 528 L378 578 L379 579 L380 595 L381 599 L384 603 L383 610 L380 615 L378 615 L374 611 L370 600 L370 594 L369 593 L369 579 L368 578 L368 521 L367 520 L367 502 L362 485 Z M320 481 L317 481 L312 484 L303 493 L299 501 L298 505 L299 509 L300 509 L300 502 L304 494 L313 485 Z M353 469 L354 471 L350 477 L347 489 L346 488 L347 478 L350 472 Z M634 465 L635 477 L634 478 L634 484 L633 485 L632 493 L619 526 L617 528 L615 527 L616 529 L621 524 L623 520 L623 518 L632 499 L632 496 L636 486 L636 470 Z M584 464 L585 463 L586 464 L585 465 Z M583 462 L584 461 L585 462 L584 463 Z M354 462 L355 461 L356 462 L355 463 Z M484 457 L487 459 L481 463 L478 469 L477 477 L476 478 L471 474 L469 469 L472 462 L477 458 Z M614 451 L613 451 L618 459 L619 471 L616 484 L612 491 L608 507 L606 510 L605 516 L602 523 L602 528 L600 533 L600 537 L596 547 L596 550 L601 537 L606 513 L611 502 L613 508 L614 523 L615 525 L615 510 L613 505 L612 497 L619 478 L620 460 L619 457 Z M491 450 L492 453 L488 459 L485 456 L478 456 L473 459 L469 464 L468 472 L473 478 L481 484 L480 486 L477 487 L480 490 L475 494 L470 502 L468 499 L469 495 L467 493 L468 495 L467 496 L464 495 L467 497 L454 514 L450 525 L450 531 L451 532 L452 524 L457 512 L468 499 L469 500 L468 503 L469 519 L474 531 L481 540 L481 550 L482 551 L484 564 L488 572 L487 575 L472 552 L468 542 L466 530 L465 530 L466 541 L471 554 L475 561 L504 601 L506 608 L509 609 L511 612 L511 626 L509 631 L509 638 L516 652 L516 654 L519 656 L522 652 L519 654 L517 652 L515 646 L511 640 L512 617 L513 616 L515 621 L516 621 L517 616 L522 605 L540 580 L547 566 L553 544 L553 537 L554 536 L553 522 L552 521 L553 524 L552 542 L548 559 L538 580 L524 599 L519 610 L517 612 L515 606 L507 594 L498 576 L494 565 L491 552 L491 526 L492 525 L492 521 L497 506 L502 497 L508 489 L525 471 L532 483 L545 500 L552 516 L552 514 L547 501 L534 483 L528 472 L525 469 L505 490 L497 502 L494 509 L489 530 L490 555 L497 577 L507 597 L515 610 L517 615 L515 616 L512 611 L509 608 L508 609 L507 608 L505 600 L501 592 L495 585 L486 564 L484 556 L484 551 L483 550 L483 538 L482 537 L482 520 L486 507 L485 507 L482 513 L480 521 L480 535 L479 536 L474 528 L470 514 L471 502 L480 492 L493 484 L496 490 L494 501 L497 494 L497 486 L495 483 L493 482 L486 486 L484 486 L478 479 L478 471 L480 467 L485 462 L488 461 L493 454 L493 452 Z M584 445 L572 447 L565 452 L566 455 L575 457 L582 462 L584 467 L582 474 L575 480 L570 482 L565 479 L560 480 L557 483 L554 489 L554 499 L561 516 L562 525 L563 526 L562 527 L562 534 L555 557 L550 566 L554 562 L560 552 L559 548 L564 533 L564 520 L556 500 L556 489 L558 485 L562 481 L565 481 L569 484 L565 491 L566 497 L570 504 L577 509 L580 515 L581 522 L582 521 L581 513 L578 507 L571 499 L571 495 L569 499 L567 496 L567 489 L573 482 L579 479 L583 475 L585 471 L585 466 L586 465 L587 466 L586 478 L581 486 L573 491 L579 490 L584 484 L584 482 L586 480 L589 472 L588 465 L584 459 L578 456 L568 455 L566 453 L569 450 L578 447 L579 448 L585 448 L593 450 L605 458 L601 453 L602 452 L601 453 L594 449 L585 447 Z M482 450 L472 445 L458 445 L447 450 L443 454 L437 465 L436 473 L435 474 L435 485 L437 488 L436 478 L437 477 L438 467 L442 458 L447 452 L454 448 L461 446 L470 446 L479 449 L481 451 Z M436 444 L437 445 L432 451 L432 453 L424 469 L424 485 L428 502 L427 512 L426 513 L426 546 L427 547 L427 561 L428 562 L428 566 L427 567 L425 559 L420 549 L420 547 L413 533 L409 528 L414 538 L414 540 L425 565 L437 606 L438 616 L440 622 L440 628 L441 629 L441 635 L442 636 L442 654 L441 655 L440 664 L438 665 L434 661 L428 648 L424 609 L422 602 L421 587 L420 586 L420 580 L418 574 L416 559 L402 519 L398 512 L394 508 L391 510 L390 514 L390 525 L389 526 L388 539 L387 540 L385 599 L384 600 L383 599 L382 590 L381 589 L381 580 L380 579 L380 529 L379 528 L379 521 L378 520 L378 512 L373 492 L366 480 L363 480 L360 483 L355 496 L352 523 L348 535 L345 522 L338 501 L332 489 L325 480 L322 481 L318 488 L318 491 L315 497 L314 506 L311 515 L309 537 L308 538 L309 557 L310 558 L310 565 L311 566 L311 573 L309 579 L309 588 L308 589 L309 608 L310 609 L309 613 L303 604 L295 588 L289 568 L289 564 L286 553 L286 547 L285 546 L285 538 L284 537 L285 511 L289 502 L294 495 L288 500 L282 511 L281 515 L282 537 L283 538 L283 546 L284 547 L285 558 L287 562 L287 566 L290 575 L289 579 L291 585 L293 587 L294 591 L301 604 L311 618 L313 629 L312 630 L309 627 L315 636 L315 640 L316 641 L315 644 L301 626 L300 623 L304 622 L301 620 L293 609 L283 592 L275 575 L273 567 L268 555 L263 535 L263 518 L270 503 L281 492 L299 483 L301 483 L322 473 L327 473 L333 469 L343 466 L348 463 L354 462 L355 463 L347 474 L344 483 L344 489 L347 501 L348 500 L348 491 L349 490 L350 482 L353 474 L357 469 L356 468 L354 470 L353 468 L361 459 L384 452 L388 452 L404 448 L409 448 L410 447 L415 447 L416 446 L421 446 L422 445 Z M783 500 L789 511 L791 518 L791 532 L790 533 L790 538 L786 554 L779 573 L769 594 L761 608 L742 635 L741 632 L745 617 L755 604 L764 587 L768 575 L768 572 L770 569 L774 556 L775 546 L776 545 L776 532 L777 528 L776 527 L775 514 L769 501 L761 494 L769 504 L774 517 L775 536 L774 537 L773 554 L769 563 L769 566 L760 591 L755 601 L747 613 L746 612 L747 588 L746 587 L745 555 L743 548 L741 507 L737 491 L734 488 L731 490 L718 517 L716 524 L711 533 L711 535 L704 550 L702 548 L702 542 L701 541 L701 513 L700 512 L700 502 L699 501 L698 492 L696 486 L692 480 L687 484 L674 507 L669 520 L666 534 L665 535 L661 532 L657 537 L657 540 L658 540 L658 538 L661 534 L665 535 L664 549 L663 550 L663 562 L662 563 L661 589 L659 596 L656 600 L655 599 L655 571 L658 558 L662 547 L660 550 L659 556 L656 563 L655 562 L655 536 L654 535 L652 513 L650 510 L650 494 L649 493 L646 495 L640 504 L631 522 L625 531 L616 551 L616 554 L614 557 L614 560 L611 567 L608 579 L606 592 L598 614 L592 640 L592 645 L591 646 L591 665 L594 674 L589 683 L586 692 L580 717 L580 728 L583 740 L587 747 L592 752 L598 755 L605 755 L614 752 L624 744 L620 747 L606 753 L598 753 L594 751 L587 744 L585 740 L582 728 L582 716 L583 715 L583 708 L585 703 L586 704 L586 729 L588 736 L591 741 L595 744 L602 745 L603 744 L596 743 L591 738 L588 731 L588 727 L587 726 L587 709 L588 708 L589 695 L591 691 L593 696 L599 701 L607 700 L612 696 L623 676 L630 657 L630 653 L632 647 L631 636 L632 635 L634 612 L635 611 L635 596 L634 597 L634 608 L633 609 L630 637 L624 662 L619 673 L614 678 L615 680 L600 695 L604 694 L609 690 L619 677 L620 679 L613 692 L607 698 L603 700 L598 699 L594 695 L591 685 L595 674 L598 677 L604 679 L595 671 L593 665 L593 644 L594 643 L594 638 L595 637 L596 638 L597 657 L601 667 L604 669 L601 662 L605 659 L608 653 L608 650 L612 638 L619 590 L622 581 L622 577 L627 556 L643 508 L644 502 L648 496 L649 497 L648 499 L649 510 L647 513 L645 527 L643 531 L641 542 L638 549 L635 565 L633 570 L633 574 L631 580 L631 592 L632 591 L633 578 L636 568 L637 559 L645 529 L646 518 L649 512 L651 518 L652 535 L653 536 L653 605 L655 613 L658 617 L663 618 L669 613 L673 603 L674 594 L675 593 L676 553 L677 552 L677 544 L678 543 L677 541 L678 532 L683 515 L691 499 L692 494 L691 494 L686 507 L682 514 L677 530 L676 542 L675 543 L675 561 L674 562 L674 588 L673 589 L673 596 L672 597 L671 605 L667 614 L662 617 L658 615 L656 611 L655 603 L658 601 L661 595 L663 587 L665 550 L666 549 L667 536 L671 520 L680 499 L688 485 L691 482 L695 487 L698 499 L698 507 L699 508 L699 537 L700 538 L700 548 L704 564 L705 577 L706 577 L706 566 L705 565 L704 554 L708 546 L709 541 L717 526 L721 514 L731 495 L732 491 L734 490 L737 494 L738 503 L739 504 L741 542 L742 543 L743 563 L744 564 L745 607 L744 608 L743 621 L738 637 L732 650 L723 662 L703 684 L702 682 L704 679 L707 666 L706 663 L705 664 L706 665 L704 673 L700 683 L687 703 L686 700 L690 693 L675 715 L650 741 L649 739 L654 731 L657 722 L656 723 L655 722 L655 725 L652 732 L643 746 L636 754 L623 766 L614 772 L607 775 L593 775 L589 774 L583 771 L577 766 L582 772 L588 775 L596 776 L597 777 L590 779 L577 779 L565 776 L554 770 L544 761 L542 756 L541 746 L544 735 L544 727 L543 726 L544 707 L549 689 L557 671 L559 669 L570 646 L572 644 L583 623 L590 604 L593 592 L599 579 L604 564 L604 561 L613 537 L614 529 L607 550 L605 553 L598 577 L590 595 L584 616 L551 679 L545 695 L542 710 L540 712 L538 707 L538 690 L539 689 L540 680 L543 668 L545 665 L545 662 L548 655 L548 652 L558 627 L552 638 L543 663 L536 691 L536 700 L533 707 L533 713 L532 714 L532 727 L533 728 L532 743 L530 748 L525 753 L516 757 L502 757 L493 754 L486 747 L483 736 L484 722 L485 721 L485 706 L484 705 L483 695 L479 681 L466 650 L464 640 L453 611 L452 611 L453 616 L461 636 L463 646 L472 668 L474 676 L476 679 L482 699 L482 705 L483 706 L482 741 L484 745 L484 754 L479 764 L470 773 L456 780 L448 782 L430 782 L422 779 L423 778 L427 778 L428 779 L444 779 L448 777 L451 777 L462 771 L469 764 L474 755 L476 747 L476 729 L475 728 L474 720 L470 710 L469 711 L474 727 L474 748 L472 755 L467 764 L456 773 L448 776 L445 775 L451 772 L454 769 L454 767 L445 774 L439 776 L430 776 L428 777 L427 776 L419 775 L405 767 L386 748 L372 731 L339 685 L330 668 L325 661 L319 647 L318 639 L314 627 L312 612 L311 611 L311 603 L310 602 L310 579 L312 573 L319 597 L321 598 L325 610 L325 605 L318 588 L312 566 L311 552 L310 551 L310 539 L311 538 L311 527 L312 526 L313 514 L315 509 L315 504 L317 496 L321 489 L322 490 L322 495 L329 519 L329 523 L331 528 L331 533 L334 545 L339 556 L333 535 L329 512 L327 508 L325 497 L321 488 L321 486 L324 481 L327 484 L334 496 L345 529 L346 539 L347 540 L341 556 L342 556 L345 550 L352 529 L352 525 L355 514 L355 505 L356 504 L357 495 L359 489 L361 487 L362 488 L363 501 L364 502 L365 514 L366 515 L366 529 L367 530 L367 570 L366 571 L367 591 L371 608 L373 612 L377 616 L380 616 L383 613 L386 604 L388 547 L389 546 L389 537 L390 536 L390 529 L391 528 L391 518 L392 517 L392 513 L393 512 L394 513 L395 527 L398 535 L398 539 L401 547 L404 564 L405 565 L405 570 L406 571 L407 589 L408 590 L408 603 L409 604 L410 635 L411 636 L413 656 L416 663 L416 666 L412 670 L408 657 L408 653 L407 656 L408 657 L408 663 L411 675 L420 694 L428 702 L437 703 L444 699 L448 691 L450 694 L450 699 L451 697 L452 698 L452 705 L453 706 L452 721 L446 735 L438 743 L433 744 L433 745 L437 745 L441 743 L445 739 L449 732 L450 735 L448 740 L441 750 L436 753 L428 754 L421 752 L412 746 L420 753 L428 756 L436 755 L440 753 L446 747 L451 737 L451 734 L453 730 L453 724 L454 723 L454 700 L451 694 L451 676 L450 676 L449 685 L445 695 L438 701 L431 701 L427 699 L422 694 L414 679 L412 673 L413 670 L416 673 L415 669 L417 668 L426 678 L431 680 L434 679 L438 675 L440 671 L444 654 L444 639 L443 638 L443 630 L442 629 L442 624 L444 623 L444 621 L440 614 L439 605 L437 600 L437 592 L436 591 L435 582 L434 581 L434 584 L433 585 L432 584 L432 580 L433 579 L431 576 L429 561 L428 560 L428 507 L429 506 L429 496 L425 480 L425 473 L428 462 L436 446 L441 443 L452 442 L453 441 L467 441 L468 440 L472 440 L473 441 L474 440 L507 440 L508 439 L516 439 L517 440 L518 439 L520 440 L556 440 L557 441 L577 441 L578 442 L582 441 L583 442 L605 442 L613 445 L626 446 L627 447 L650 450 L655 452 L660 452 L669 455 L690 459 L717 468 L720 468 L742 477 L757 493 L758 493 L745 479 L746 478 L772 490 Z M825 434 L822 438 L814 455 L800 497 L799 515 L800 516 L800 530 L803 543 L803 534 L802 533 L802 525 L801 524 L801 500 L802 499 L802 495 L814 459 Z M276 489 L287 481 L315 467 L340 457 L368 448 L384 445 L389 443 L417 439 L418 438 L446 436 L447 435 L458 435 L459 434 L496 433 L497 432 L534 432 L535 433 L558 433 L559 434 L592 435 L593 436 L629 439 L630 440 L636 440 L637 441 L643 441 L649 443 L660 444 L665 446 L669 446 L674 448 L678 448 L698 453 L736 465 L744 469 L772 479 L780 483 L785 487 L780 494 L774 489 L759 481 L729 469 L717 465 L714 465 L701 460 L665 451 L660 451 L655 449 L622 444 L621 443 L615 443 L605 440 L559 439 L558 438 L529 438 L528 437 L499 437 L498 438 L454 439 L453 440 L446 440 L438 442 L429 442 L422 444 L409 445 L404 447 L384 450 L348 461 L340 465 L327 469 L322 472 L314 474 L278 492 Z M811 421 L812 420 L813 421 L812 422 Z M812 418 L813 417 L814 419 L813 420 Z M830 395 L833 398 L835 404 L835 416 L833 421 L833 425 L830 432 L830 435 L827 442 L827 468 L826 469 L826 488 L825 489 L824 512 L823 513 L823 519 L820 528 L819 536 L811 556 L805 581 L807 578 L812 563 L813 556 L822 532 L823 524 L825 519 L831 527 L834 527 L842 524 L848 525 L851 529 L851 538 L847 548 L839 558 L838 554 L841 548 L839 549 L835 559 L835 563 L833 569 L831 572 L830 571 L831 563 L830 564 L826 579 L825 588 L820 599 L818 596 L818 605 L815 611 L810 615 L804 615 L803 614 L801 615 L795 622 L794 621 L794 617 L795 616 L796 599 L797 598 L798 556 L797 555 L797 548 L796 547 L792 515 L790 509 L782 495 L789 483 L794 466 L798 459 L804 441 L809 435 L809 433 L821 409 L823 401 L827 395 Z M729 395 L730 396 L729 401 L726 403 L725 402 Z M706 396 L707 395 L708 396 L707 397 Z M705 394 L706 393 L707 395 L706 396 Z M367 393 L368 392 L370 393 L369 394 Z M704 392 L705 391 L706 393 L705 394 Z M703 391 L704 390 L705 391 L704 392 Z M702 390 L703 389 L704 390 L703 391 Z M698 387 L699 386 L700 387 L699 388 Z M697 386 L698 385 L699 386 L698 387 Z M642 383 L643 382 L644 383 L643 384 Z M399 386 L378 391 L374 393 L371 392 L378 385 L382 383 L391 382 L397 384 Z M667 387 L674 383 L685 381 L694 385 L699 390 L701 390 L704 395 L701 396 L697 394 L693 394 Z M636 382 L637 381 L638 382 L637 383 Z M426 381 L427 380 L428 381 L427 382 Z M638 379 L639 378 L643 382 L640 383 Z M637 378 L638 377 L639 378 L638 379 Z M268 448 L272 442 L279 436 L298 424 L323 412 L358 399 L361 399 L371 395 L382 393 L394 389 L398 389 L403 387 L409 387 L415 385 L420 385 L421 384 L443 382 L444 381 L453 381 L454 380 L463 380 L464 379 L492 378 L493 377 L555 377 L556 378 L574 378 L575 379 L599 380 L600 381 L609 381 L610 382 L642 385 L643 386 L648 386 L665 390 L675 391 L714 401 L741 410 L746 413 L748 413 L749 414 L748 415 L751 414 L759 417 L786 431 L792 436 L795 440 L796 444 L796 449 L795 450 L795 455 L792 468 L787 483 L785 485 L774 477 L773 478 L752 469 L725 460 L722 458 L719 458 L699 451 L683 447 L674 446 L669 444 L660 443 L659 442 L654 442 L653 441 L637 439 L636 438 L630 438 L629 437 L623 437 L622 436 L612 436 L611 435 L592 434 L591 433 L575 433 L574 432 L558 432 L557 431 L530 431 L529 430 L501 430 L500 431 L474 431 L473 432 L461 432 L460 433 L447 433 L446 434 L427 435 L426 436 L420 436 L419 437 L395 440 L361 448 L340 455 L337 457 L322 462 L315 466 L313 466 L285 480 L276 487 L274 484 L272 476 L271 466 L268 454 Z M426 376 L427 375 L428 376 L427 377 Z M559 375 L560 374 L561 375 L560 376 Z M554 374 L555 373 L559 374 L558 375 Z M553 373 L554 372 L555 373 L554 374 Z M508 374 L517 371 L526 371 L527 370 L538 371 L548 374 L547 375 L509 375 Z M411 371 L412 370 L413 371 L412 372 Z M572 369 L573 368 L574 369 L573 370 Z M623 367 L628 377 L632 381 L631 382 L620 381 L615 379 L620 373 Z M572 365 L573 366 L572 369 L571 368 Z M570 364 L571 363 L572 364 L571 365 Z M436 362 L441 374 L445 379 L444 380 L428 381 L427 380 L431 374 L434 364 Z M721 362 L722 361 L723 362 L722 363 Z M569 362 L570 361 L571 362 L570 363 Z M347 362 L348 361 L349 362 L348 363 Z M717 361 L718 360 L722 361 L721 362 Z M478 375 L482 372 L484 373 L494 366 L506 361 L514 360 L515 359 L522 359 L523 358 L536 358 L557 363 L568 368 L576 374 L578 374 L579 372 L583 376 L582 377 L567 376 L559 372 L553 372 L552 373 L546 370 L536 369 L535 368 L520 368 L514 370 L509 370 L499 375 L489 375 L488 376 L479 376 Z M348 360 L353 356 L358 360 L359 363 L358 364 L353 361 L349 362 Z M410 350 L403 352 L397 359 L396 358 L396 354 L400 348 L407 347 Z M736 341 L737 342 L736 345 L735 344 Z M331 341 L332 342 L331 345 L330 344 Z M737 333 L738 334 L738 338 L737 339 L736 338 L736 334 Z M330 333 L331 334 L330 338 L329 337 Z M640 344 L650 335 L653 334 L663 334 L669 337 L676 345 L680 338 L688 331 L698 330 L702 332 L706 336 L712 352 L720 346 L726 347 L729 351 L730 355 L730 371 L729 375 L728 376 L727 375 L727 369 L724 361 L721 358 L718 358 L713 363 L708 376 L708 381 L710 382 L710 375 L712 369 L717 364 L721 364 L725 369 L725 380 L721 390 L718 392 L715 388 L715 381 L713 386 L715 391 L717 393 L720 393 L723 390 L725 385 L728 383 L730 378 L731 369 L732 368 L732 358 L730 350 L726 345 L722 344 L714 349 L713 348 L714 347 L714 340 L721 336 L727 338 L734 348 L735 362 L734 363 L734 371 L733 372 L732 383 L730 387 L730 390 L724 401 L722 402 L710 398 L707 391 L700 384 L691 380 L686 380 L685 379 L677 380 L668 384 L665 387 L654 386 L653 385 L662 379 L667 368 L667 363 L665 357 L661 353 L654 351 L658 348 L666 350 L663 347 L657 347 L652 351 L649 357 L649 365 L651 368 L651 371 L649 373 L643 372 L641 368 L639 367 L640 371 L645 375 L651 374 L653 371 L653 368 L651 366 L651 358 L655 354 L658 353 L663 357 L665 362 L665 369 L662 376 L657 381 L653 383 L647 383 L637 374 L635 369 L635 356 Z M229 330 L228 344 L227 345 L227 369 L231 384 L240 404 L246 423 L248 426 L254 447 L256 463 L257 464 L257 471 L259 478 L259 486 L260 487 L258 520 L260 506 L261 505 L261 481 L259 473 L258 459 L257 458 L253 437 L243 407 L235 390 L234 384 L230 374 L230 369 L229 368 L229 338 L230 337 L230 330 Z M738 326 L739 327 L739 332 L738 333 L737 332 L737 327 Z M389 327 L390 326 L391 327 L390 328 Z M388 326 L389 325 L390 326 L389 327 Z M329 325 L330 326 L330 332 L329 333 L328 332 L328 326 Z M413 332 L420 340 L424 354 L423 364 L419 374 L411 381 L407 381 L400 376 L398 372 L397 365 L399 358 L403 354 L408 353 L413 358 L412 368 L410 371 L407 370 L409 373 L412 373 L414 371 L412 370 L415 365 L415 357 L411 349 L406 345 L401 345 L397 348 L394 356 L394 362 L396 366 L396 371 L397 372 L396 373 L393 372 L381 372 L372 376 L381 373 L397 374 L402 380 L408 384 L407 385 L403 385 L402 386 L394 381 L385 380 L373 385 L367 390 L363 396 L359 397 L358 395 L361 388 L369 379 L364 383 L363 382 L363 376 L361 372 L360 360 L357 356 L352 354 L347 358 L344 368 L344 379 L346 383 L350 386 L350 389 L346 390 L343 387 L338 370 L338 357 L339 356 L339 352 L343 345 L346 343 L353 343 L359 348 L362 337 L365 331 L371 324 L376 322 L383 324 L389 330 L392 339 L398 332 L402 330 L409 330 Z M709 329 L713 338 L713 345 L712 346 L707 335 L702 330 L695 328 L688 330 L683 333 L679 337 L676 343 L669 336 L663 333 L655 332 L647 335 L638 344 L633 357 L633 372 L637 381 L635 382 L629 376 L626 370 L626 366 L625 365 L626 347 L632 335 L642 326 L651 323 L658 323 L669 328 L675 335 L674 331 L680 324 L689 320 L695 320 L703 323 Z M739 319 L740 320 L740 324 L739 325 L738 324 L738 320 Z M407 319 L416 320 L422 323 L430 332 L433 338 L435 346 L434 362 L430 373 L428 375 L427 373 L428 372 L426 375 L426 378 L422 382 L414 384 L411 383 L415 381 L419 377 L425 365 L425 347 L423 341 L417 333 L410 328 L401 328 L396 331 L393 335 L390 329 L391 327 L392 328 L401 321 Z M498 333 L500 333 L503 330 L513 324 L526 320 L540 321 L546 323 L560 331 L551 324 L549 324 L542 320 L535 318 L524 318 L508 324 L500 330 Z M328 316 L329 317 L329 325 L328 326 L327 325 L327 317 Z M813 315 L816 336 L820 347 L819 339 L817 336 L815 317 Z M740 309 L741 310 L741 316 L740 317 L739 316 L739 310 Z M327 309 L328 310 L328 315 L327 316 L326 315 L326 310 Z M437 354 L438 353 L439 343 L445 331 L455 321 L464 316 L472 315 L473 314 L481 314 L489 316 L498 321 L507 313 L513 310 L524 307 L535 307 L547 310 L555 314 L566 323 L576 320 L586 319 L587 320 L593 320 L605 325 L619 339 L622 346 L623 359 L620 369 L616 375 L612 379 L605 379 L604 378 L610 372 L614 364 L615 357 L614 356 L613 348 L607 338 L603 335 L588 329 L581 329 L575 331 L589 331 L600 335 L603 338 L602 339 L604 338 L611 348 L613 356 L612 364 L608 372 L602 378 L591 378 L588 377 L582 373 L579 369 L578 369 L579 371 L578 373 L576 371 L573 364 L572 358 L575 350 L578 347 L585 344 L589 344 L595 347 L598 351 L599 358 L600 357 L600 352 L598 348 L592 343 L588 342 L579 344 L575 347 L571 353 L569 361 L568 360 L568 350 L573 341 L569 345 L566 352 L566 356 L569 364 L568 366 L559 362 L545 358 L525 356 L524 357 L518 357 L517 358 L503 360 L494 364 L489 368 L488 366 L490 364 L491 360 L491 350 L489 346 L485 342 L479 339 L475 339 L468 342 L465 345 L463 350 L463 356 L465 357 L464 355 L465 349 L471 342 L479 341 L483 343 L489 350 L488 362 L486 366 L481 371 L472 376 L463 377 L462 378 L456 377 L450 370 L447 362 L447 354 L449 346 L454 337 L459 332 L466 328 L472 326 L485 326 L488 327 L482 324 L471 324 L457 331 L450 339 L445 351 L445 361 L448 370 L451 375 L454 377 L453 378 L449 379 L444 375 L439 366 Z M326 302 L327 303 L327 308 L326 309 L325 308 L325 303 Z M232 294 L231 297 L232 317 L233 318 L233 326 L234 327 L234 336 L235 337 L235 342 L236 343 L239 362 L253 406 L261 420 L269 427 L264 422 L257 411 L257 409 L253 402 L242 367 L240 354 L238 349 L236 331 L235 330 L235 322 L234 321 L234 313 L233 312 L233 298 L232 297 L233 295 Z M328 301 L332 298 L346 293 L362 291 L363 290 L378 289 L379 288 L392 288 L393 287 L413 286 L414 285 L430 285 L431 284 L449 284 L450 283 L532 283 L533 284 L536 283 L537 284 L563 284 L564 285 L579 285 L580 286 L594 286 L595 287 L608 287 L609 288 L623 288 L624 289 L636 289 L637 290 L646 290 L647 291 L656 291 L657 292 L681 294 L682 295 L688 295 L689 296 L694 296 L695 297 L700 297 L701 298 L706 298 L711 300 L720 301 L737 307 L738 311 L737 312 L737 321 L735 329 L735 337 L733 343 L725 335 L719 335 L715 337 L710 327 L703 321 L694 318 L690 318 L683 320 L677 324 L673 329 L661 322 L652 321 L644 323 L637 327 L631 333 L624 347 L618 334 L609 325 L599 320 L591 318 L577 318 L567 321 L560 315 L549 309 L533 305 L525 305 L513 308 L505 312 L498 318 L496 318 L489 314 L480 313 L479 312 L473 312 L459 316 L453 320 L443 330 L437 344 L429 327 L425 323 L416 318 L412 317 L404 318 L398 321 L392 326 L387 319 L381 316 L374 316 L366 320 L374 318 L381 318 L385 320 L389 325 L388 326 L383 322 L377 320 L372 321 L363 330 L358 345 L356 343 L349 340 L344 342 L340 346 L338 350 L337 362 L336 363 L337 374 L340 384 L342 388 L346 392 L349 392 L351 390 L351 384 L349 384 L345 378 L345 371 L347 366 L349 364 L353 363 L359 368 L361 373 L361 383 L357 396 L353 399 L340 403 L337 393 L337 388 L335 381 L335 371 L333 363 L335 347 L338 340 L343 334 L347 332 L353 332 L357 335 L359 328 L363 322 L364 318 L360 322 L356 332 L351 330 L347 330 L343 332 L339 336 L334 345 L333 344 L333 335 L332 334 L332 327 L331 326 L331 319 L330 318 L330 311 L329 310 L329 303 Z M324 287 L329 283 L357 276 L376 274 L377 273 L406 271 L407 270 L418 270 L419 269 L451 268 L452 267 L530 267 L531 268 L554 268 L555 269 L556 268 L557 269 L574 269 L575 270 L593 270 L594 271 L636 273 L637 274 L665 276 L666 277 L681 278 L682 279 L688 279 L689 280 L705 282 L709 284 L720 286 L739 293 L742 296 L742 309 L741 310 L739 306 L723 300 L706 296 L689 294 L688 293 L658 290 L657 289 L646 289 L645 288 L634 288 L633 287 L622 287 L621 286 L607 286 L606 285 L591 285 L590 284 L558 283 L557 282 L555 283 L554 282 L531 282 L530 281 L526 282 L522 281 L461 281 L460 282 L434 282 L433 283 L417 283 L416 284 L391 285 L390 286 L382 286 L381 287 L373 287 L372 288 L364 288 L363 289 L362 288 L361 289 L343 292 L327 298 L325 302 L324 301 Z M261 246 L261 254 L262 255 L261 279 L264 292 L267 321 L277 360 L276 349 L270 328 L269 316 L268 315 L267 299 L266 298 L266 292 L265 291 L264 279 L263 278 L263 250 L262 246 Z M826 205 L828 207 L820 215 L820 220 L824 227 L824 260 L825 261 L825 274 L826 275 L826 301 L825 302 L825 315 L824 316 L822 350 L821 351 L821 358 L820 359 L820 366 L819 367 L816 395 L812 409 L812 413 L806 434 L798 452 L797 451 L798 447 L797 440 L789 431 L784 428 L784 425 L788 414 L791 398 L794 389 L794 385 L797 376 L797 372 L801 356 L801 351 L803 345 L806 320 L807 319 L807 311 L808 310 L808 303 L810 296 L812 269 L813 268 L813 261 L814 260 L816 215 L819 208 L823 205 Z M711 204 L716 209 L719 209 L714 204 Z M233 202 L237 206 L237 216 L236 217 L237 243 L238 244 L239 263 L240 264 L243 292 L244 293 L250 327 L256 349 L257 358 L266 393 L268 407 L270 411 L272 425 L275 434 L275 437 L268 445 L265 441 L263 433 L260 429 L258 423 L251 414 L249 408 L247 406 L250 414 L255 421 L261 433 L266 448 L266 454 L268 460 L271 480 L273 484 L273 487 L277 493 L268 503 L262 517 L261 532 L260 533 L258 554 L256 562 L256 570 L255 571 L252 565 L248 549 L245 542 L245 539 L242 532 L242 529 L239 523 L237 512 L233 500 L231 487 L229 482 L227 464 L226 463 L226 454 L225 453 L225 441 L224 440 L224 395 L225 394 L225 390 L219 364 L218 290 L223 279 L224 280 L223 283 L225 285 L225 276 L219 253 L219 230 L223 215 L227 207 Z M691 193 L693 195 L695 195 Z M806 177 L807 178 L811 178 L819 182 L827 190 L831 198 L831 203 L829 206 L826 203 L821 204 L816 209 L814 215 L814 232 L813 233 L812 259 L811 260 L810 279 L809 280 L809 288 L808 289 L808 296 L806 304 L803 334 L802 335 L800 351 L799 352 L795 376 L793 381 L793 385 L791 390 L790 399 L785 415 L785 418 L783 424 L781 426 L768 419 L768 415 L775 387 L775 383 L781 357 L781 352 L783 346 L783 341 L786 330 L786 325 L789 315 L789 310 L790 309 L790 304 L791 303 L791 298 L794 285 L794 279 L795 278 L795 272 L796 271 L796 263 L797 262 L798 224 L797 223 L795 207 L792 198 L796 194 L798 190 L798 179 L800 177 Z M674 177 L678 181 L682 182 L676 177 Z M306 177 L302 177 L297 180 L296 182 Z M270 174 L272 176 L274 182 L277 185 L277 187 L275 189 L275 191 L271 198 L266 216 L264 210 L264 188 L266 181 Z M260 173 L269 173 L270 174 L264 183 L262 191 L262 209 L263 210 L263 217 L265 224 L265 235 L267 242 L267 275 L268 276 L268 285 L269 286 L269 293 L270 294 L272 313 L274 318 L274 324 L277 334 L281 361 L284 371 L284 376 L288 392 L289 403 L291 408 L293 423 L294 424 L281 432 L278 435 L276 433 L274 426 L271 408 L269 403 L269 399 L266 390 L265 381 L262 372 L262 368 L256 346 L256 342 L254 337 L254 333 L252 328 L252 324 L247 304 L247 299 L246 298 L244 282 L243 281 L241 257 L240 256 L240 246 L239 245 L239 209 L238 208 L238 203 L234 198 L236 191 L246 180 L250 177 Z M330 172 L334 179 L334 182 L342 202 L342 204 L334 211 L331 218 L333 255 L334 256 L334 266 L335 267 L335 276 L336 277 L335 280 L331 281 L329 280 L329 275 L327 270 L326 251 L325 250 L325 200 L326 199 L326 190 L327 189 L325 186 L325 182 L327 176 Z M747 165 L755 166 L769 172 L784 186 L791 200 L791 203 L794 211 L795 225 L796 226 L796 250 L795 251 L793 278 L792 279 L787 314 L784 325 L784 330 L779 351 L779 356 L778 357 L774 381 L772 386 L770 400 L767 409 L767 414 L765 418 L738 407 L740 399 L740 394 L742 389 L742 383 L744 377 L744 371 L747 358 L747 352 L749 345 L751 324 L752 323 L752 317 L754 309 L754 302 L755 301 L755 294 L756 293 L756 286 L757 285 L757 278 L758 277 L758 263 L759 262 L759 254 L760 253 L760 242 L761 241 L761 230 L762 229 L762 211 L763 210 L763 187 L759 177 L750 168 L746 166 Z M740 165 L749 169 L757 177 L761 188 L761 218 L760 219 L759 244 L758 245 L758 254 L757 255 L757 264 L756 265 L755 288 L754 289 L754 297 L753 298 L751 318 L750 319 L748 338 L747 339 L747 346 L746 347 L745 359 L743 365 L743 370 L742 371 L737 404 L734 406 L730 404 L730 401 L734 385 L734 378 L735 377 L736 362 L737 361 L737 350 L738 349 L738 343 L739 342 L741 323 L742 322 L743 310 L744 309 L744 300 L745 299 L743 294 L739 290 L739 280 L740 279 L741 260 L742 259 L742 250 L743 249 L744 224 L745 223 L745 191 L739 173 L740 185 L738 189 L738 192 L740 191 L740 187 L741 186 L743 191 L743 221 L742 222 L742 234 L741 235 L741 249 L740 250 L739 269 L738 270 L737 288 L736 289 L728 287 L726 285 L728 258 L729 257 L729 249 L730 248 L732 214 L730 209 L723 202 L723 198 L726 186 L729 180 Z M325 162 L330 165 L330 168 L324 179 L323 183 L323 225 L322 226 L323 227 L324 264 L328 281 L323 285 L322 288 L322 299 L323 300 L323 308 L324 309 L324 316 L325 317 L325 324 L328 337 L328 343 L331 355 L331 364 L333 372 L335 395 L337 401 L337 404 L331 407 L328 405 L328 399 L326 393 L324 374 L321 361 L321 354 L318 341 L318 334 L317 333 L315 311 L314 310 L314 301 L313 300 L311 263 L310 262 L310 249 L309 248 L309 197 L310 196 L310 182 L313 172 L319 165 Z M321 161 L322 162 L318 164 L311 173 L308 183 L307 237 L308 238 L308 261 L309 262 L309 273 L310 274 L310 285 L311 286 L313 317 L314 318 L316 341 L319 354 L319 361 L320 362 L320 367 L321 368 L327 408 L296 423 L295 422 L295 418 L290 397 L290 392 L287 381 L283 353 L278 334 L277 324 L276 323 L276 319 L274 314 L274 308 L272 302 L272 295 L271 294 L271 287 L270 286 L270 276 L269 275 L269 270 L270 269 L270 265 L269 264 L270 236 L269 237 L267 235 L267 222 L273 198 L279 186 L285 178 L292 171 L304 164 L310 162 Z M445 155 L446 156 L446 186 L445 187 L444 265 L443 266 L434 266 L433 267 L418 267 L417 268 L385 270 L384 271 L362 273 L350 276 L349 275 L349 269 L347 262 L345 228 L384 195 L409 176 L429 163 Z M614 154 L616 154 L638 166 L661 181 L702 212 L718 227 L716 247 L715 248 L715 256 L714 257 L714 265 L713 266 L713 274 L711 282 L700 279 L683 277 L682 276 L658 274 L657 273 L648 273 L647 272 L637 272 L636 271 L612 270 L611 269 L612 180 L613 179 L613 155 Z M619 146 L626 148 L636 153 L644 159 L649 161 L659 169 L663 170 L662 168 L655 163 L650 161 L643 155 L624 146 Z M463 132 L464 133 L464 159 L463 160 L463 216 L462 217 L461 264 L460 265 L453 265 L452 266 L446 266 L445 265 L446 264 L446 229 L447 228 L447 153 L445 153 L429 161 L406 176 L343 226 L344 249 L345 250 L346 267 L348 275 L346 277 L339 278 L337 276 L337 262 L336 261 L336 253 L335 252 L334 214 L367 186 L410 154 L436 140 L456 133 Z M597 132 L604 131 L605 132 L614 133 L625 137 L648 149 L661 157 L694 181 L718 200 L729 211 L730 213 L729 234 L728 235 L728 244 L727 245 L725 276 L724 277 L724 284 L723 285 L713 282 L714 281 L716 254 L717 253 L717 246 L718 245 L718 238 L719 237 L719 227 L720 226 L719 224 L688 198 L659 177 L639 164 L614 151 L611 152 L609 269 L608 270 L607 269 L596 269 L592 267 L593 266 L594 162 L595 161 L595 137 Z M816 178 L806 175 L799 175 L796 177 L796 190 L792 196 L785 184 L771 171 L755 164 L740 163 L736 166 L727 179 L723 189 L722 197 L720 199 L683 170 L649 147 L628 136 L614 131 L606 130 L605 129 L595 130 L593 134 L593 154 L592 155 L591 248 L590 249 L590 267 L589 268 L559 267 L558 266 L537 266 L536 265 L498 265 L497 264 L464 265 L463 264 L463 259 L464 258 L464 216 L465 215 L466 130 L460 130 L440 136 L412 150 L381 172 L345 202 L343 201 L340 189 L333 174 L331 163 L324 159 L314 159 L303 162 L294 167 L283 177 L279 183 L275 180 L273 174 L269 171 L260 171 L248 176 L237 186 L233 193 L232 197 L233 199 L226 205 L221 214 L217 230 L217 252 L218 253 L218 258 L222 275 L220 279 L220 282 L215 291 L216 292 L217 363 L218 364 L218 371 L219 372 L220 382 L222 386 L222 439 L223 440 L224 463 L225 464 L225 470 L228 482 L228 487 L234 510 L233 511 L230 509 L220 510 L216 514 L213 523 L213 529 L214 530 L215 538 L224 558 L233 586 L231 598 L220 609 L220 638 L224 643 L224 729 L225 730 L225 732 L222 734 L220 738 L220 771 L224 782 L228 786 L235 786 L239 784 L241 781 L243 781 L246 785 L246 789 L244 793 L241 809 L235 815 L232 816 L231 818 L231 836 L225 842 L224 845 L224 849 L225 850 L225 882 L226 883 L226 896 L227 897 L228 914 L229 915 L231 935 L236 955 L239 962 L240 969 L242 973 L246 995 L249 1004 L253 1007 L257 1007 L264 1003 L269 994 L272 991 L276 996 L277 1002 L272 1015 L271 1023 L268 1033 L268 1040 L267 1041 L268 1079 L269 1080 L269 1086 L270 1087 L273 1106 L275 1110 L279 1128 L285 1145 L290 1153 L290 1158 L294 1171 L302 1184 L299 1191 L299 1196 L298 1197 L298 1215 L299 1216 L299 1221 L303 1237 L311 1254 L319 1265 L332 1276 L348 1284 L354 1286 L368 1286 L371 1285 L373 1282 L372 1279 L373 1276 L380 1280 L384 1279 L386 1277 L386 1271 L385 1270 L387 1268 L391 1268 L404 1260 L408 1272 L412 1274 L415 1274 L448 1259 L469 1253 L486 1251 L487 1250 L496 1250 L497 1249 L528 1249 L529 1250 L538 1250 L539 1251 L550 1252 L576 1259 L586 1264 L605 1277 L616 1277 L619 1276 L625 1271 L626 1267 L628 1266 L643 1277 L662 1287 L674 1290 L684 1289 L688 1286 L689 1282 L681 1271 L693 1267 L706 1259 L717 1248 L721 1242 L726 1230 L726 1226 L724 1221 L718 1217 L722 1206 L724 1204 L734 1205 L742 1198 L749 1183 L751 1169 L752 1168 L752 1158 L755 1156 L758 1159 L761 1159 L763 1158 L765 1154 L770 1132 L775 1117 L775 1113 L781 1096 L783 1080 L784 1079 L785 1038 L784 1037 L784 1031 L783 1030 L782 1022 L777 1010 L778 1009 L778 1002 L783 996 L794 1003 L800 1003 L804 999 L805 990 L806 989 L806 982 L807 981 L807 974 L808 973 L809 963 L812 952 L812 947 L815 938 L817 926 L822 911 L822 905 L829 902 L832 899 L837 890 L841 878 L842 861 L843 860 L843 839 L842 837 L834 835 L823 825 L815 813 L811 802 L811 797 L813 792 L817 792 L820 794 L828 794 L839 783 L844 771 L844 765 L845 764 L845 734 L844 731 L839 726 L833 726 L829 728 L822 737 L818 737 L813 732 L811 715 L809 711 L804 708 L799 709 L796 712 L793 720 L791 718 L790 658 L791 657 L792 635 L794 627 L801 617 L803 616 L811 617 L818 610 L823 597 L827 590 L834 570 L839 561 L848 550 L853 538 L853 529 L850 524 L846 522 L841 522 L832 525 L828 521 L825 515 L826 514 L827 489 L828 488 L829 443 L831 439 L831 436 L833 432 L837 416 L837 404 L836 400 L832 394 L826 393 L824 395 L815 417 L814 418 L813 417 L815 404 L819 389 L820 377 L821 376 L821 369 L822 368 L822 361 L823 360 L823 353 L824 352 L824 343 L825 342 L825 331 L826 330 L827 302 L828 301 L827 299 L828 295 L828 275 L827 274 L827 260 L826 259 L826 226 L823 222 L822 216 L828 209 L830 209 L832 207 L833 204 L833 198 L829 189 L821 181 Z" fill="#eef3f4" fill-rule="evenodd"/>
</svg>
