<svg xmlns="http://www.w3.org/2000/svg" width="1448" height="1086" viewBox="0 0 1448 1086">
  <title>0394</title>
  <path d="M760 774 L762 775 L762 777 L769 779 L774 783 L786 782 L793 778 L792 777 L783 781 L774 781 L765 777 L763 774 Z M816 758 L817 757 L818 759 L817 760 Z M574 755 L576 760 L581 765 L587 769 L589 769 Z M794 754 L795 753 L797 754 L796 755 Z M633 748 L634 747 L705 747 L711 749 L710 750 L702 750 L701 749 L700 750 L696 750 L695 749 L690 749 L689 750 L653 750 L652 749 L634 749 Z M620 747 L621 746 L630 746 L631 747 L630 748 L621 748 Z M615 746 L616 745 L620 746 L619 747 Z M610 745 L611 744 L615 745 L614 746 Z M608 740 L608 738 L611 736 L621 735 L622 734 L637 738 L650 738 L651 739 L701 739 L702 740 L721 741 L722 742 L741 742 L742 741 L751 740 L764 735 L777 735 L782 738 L781 740 L765 745 L760 745 L759 746 L753 746 L749 747 L745 750 L744 749 L718 749 L714 747 L709 747 L704 745 L628 745 L627 744 L615 743 Z M825 733 L826 734 L825 743 L822 752 L818 758 L816 753 Z M778 733 L779 732 L781 733 L780 734 Z M813 729 L812 735 L806 745 L800 751 L795 751 L789 754 L794 754 L795 755 L784 761 L776 762 L775 763 L768 763 L767 764 L738 764 L737 763 L748 760 L750 758 L745 758 L730 763 L726 763 L720 765 L712 765 L711 766 L687 766 L659 759 L655 759 L650 757 L618 758 L600 752 L596 753 L592 752 L586 749 L579 742 L577 737 L577 732 L578 731 L579 732 L580 730 L590 740 L607 747 L615 749 L622 749 L623 750 L635 750 L636 751 L647 751 L648 752 L754 752 L755 753 L778 753 L786 750 L802 739 L812 728 Z M578 729 L579 728 L580 729 L579 730 Z M779 731 L778 733 L773 733 L772 732 L763 733 L746 739 L713 739 L712 738 L728 734 L757 723 L770 723 L773 724 Z M612 720 L613 719 L614 720 L613 721 Z M608 711 L610 716 L613 719 L612 720 L607 715 Z M819 705 L820 706 L819 710 L818 709 Z M793 703 L795 706 L794 718 L792 722 L784 730 L781 731 L774 724 L787 713 L791 707 L791 704 Z M660 704 L661 703 L662 704 L661 705 Z M658 703 L659 702 L660 703 L659 704 Z M656 702 L657 701 L659 702 L658 703 Z M789 703 L789 707 L782 716 L779 715 L781 716 L778 717 L773 722 L767 720 L751 722 L733 730 L707 736 L684 736 L683 735 L672 734 L659 730 L655 730 L628 721 L618 720 L610 712 L610 707 L612 704 L618 702 L628 702 L629 703 L642 705 L682 722 L699 724 L700 723 L708 722 L721 717 L752 700 L755 700 L761 703 L777 702 L779 705 L780 702 L788 702 Z M654 701 L655 700 L657 701 L656 702 Z M535 697 L541 701 L542 709 L541 710 L535 704 L534 701 Z M819 694 L821 698 L821 704 L820 705 L818 698 Z M817 694 L818 693 L819 694 L818 695 Z M795 686 L800 688 L804 692 L806 700 L808 701 L806 702 L806 706 L806 703 L807 702 L808 703 L808 708 L805 719 L801 727 L796 733 L788 739 L785 740 L780 734 L789 728 L794 722 L797 714 L797 705 L796 703 L792 700 L763 700 L759 701 L756 699 L762 695 L774 691 L776 688 L784 686 Z M826 694 L828 702 L827 733 L826 734 L825 733 L825 729 L824 729 L823 734 L817 749 L814 753 L814 755 L800 772 L804 770 L811 763 L814 758 L816 763 L805 775 L792 783 L781 786 L774 786 L773 787 L741 787 L740 788 L720 789 L719 790 L667 790 L666 789 L653 789 L652 788 L641 788 L640 787 L633 787 L632 788 L629 787 L627 788 L615 787 L614 786 L603 785 L597 782 L598 781 L613 782 L619 780 L624 780 L628 778 L632 778 L636 776 L646 775 L658 771 L663 771 L676 768 L714 768 L715 767 L721 767 L728 765 L771 766 L772 765 L778 765 L785 763 L798 756 L808 746 L813 737 L815 731 L815 727 L821 713 L823 705 L823 697 L816 687 L811 682 L814 681 L818 683 L822 687 Z M809 681 L810 680 L812 681 L811 682 Z M570 708 L571 692 L574 686 L577 683 L583 680 L599 680 L600 681 L605 681 L606 682 L611 682 L612 683 L617 683 L637 689 L647 694 L655 700 L653 701 L642 694 L624 687 L620 687 L615 685 L594 683 L593 684 L588 684 L582 687 L578 691 L575 699 L575 714 L577 722 L576 725 L572 717 L571 709 Z M817 699 L817 706 L816 707 L815 717 L811 726 L800 738 L787 747 L778 751 L755 751 L751 749 L752 748 L769 746 L780 743 L784 740 L785 741 L789 740 L794 737 L802 729 L809 714 L810 697 L805 689 L795 684 L784 684 L774 687 L773 690 L755 696 L715 717 L697 722 L684 720 L675 716 L667 714 L653 707 L627 700 L621 700 L614 698 L602 698 L598 700 L594 705 L593 712 L594 715 L595 715 L595 707 L600 701 L604 699 L606 704 L607 704 L606 703 L608 699 L616 701 L611 703 L608 707 L606 706 L605 714 L610 721 L613 722 L614 720 L618 723 L606 731 L610 730 L622 723 L627 723 L634 726 L640 727 L643 729 L662 733 L666 735 L671 735 L672 736 L671 737 L638 736 L621 732 L620 733 L610 734 L606 739 L604 739 L593 729 L588 718 L587 706 L591 695 L588 698 L586 703 L586 717 L589 726 L593 732 L599 738 L611 744 L607 745 L600 743 L586 735 L580 727 L577 715 L577 699 L579 693 L585 687 L593 685 L602 685 L603 686 L624 689 L635 693 L660 706 L664 705 L679 713 L691 716 L700 716 L713 712 L727 705 L744 694 L757 688 L770 684 L782 683 L798 679 L801 679 L807 682 L813 688 Z M666 673 L667 672 L668 673 L667 674 Z M745 672 L746 671 L749 672 L748 673 Z M797 671 L798 673 L809 674 L807 672 Z M642 671 L643 670 L652 670 L653 671 L652 672 L643 672 Z M535 669 L536 670 L537 681 L540 693 L540 697 L539 698 L535 694 L533 689 L533 671 Z M765 643 L766 642 L767 644 L766 645 Z M619 639 L617 639 L615 642 L612 651 L612 655 L614 654 L614 651 Z M626 636 L627 638 L625 641 L624 638 Z M626 635 L627 634 L628 636 L627 637 Z M627 634 L628 633 L629 634 L628 635 Z M628 633 L629 632 L630 633 L629 634 Z M634 627 L635 626 L636 627 L635 628 Z M794 678 L782 681 L774 681 L762 685 L759 685 L757 687 L752 688 L742 693 L717 708 L700 714 L692 714 L677 710 L662 702 L647 692 L625 683 L612 681 L611 680 L606 680 L605 679 L600 679 L599 678 L582 678 L575 681 L569 687 L565 695 L564 706 L565 707 L566 698 L567 697 L568 698 L569 713 L572 722 L575 727 L574 730 L575 731 L575 737 L578 744 L585 751 L594 755 L600 754 L612 759 L616 759 L620 761 L651 760 L652 761 L658 761 L678 766 L677 767 L672 767 L671 768 L651 771 L638 775 L634 775 L621 780 L592 779 L586 775 L576 765 L571 757 L565 742 L561 726 L561 721 L560 720 L560 697 L562 689 L565 683 L573 675 L578 673 L602 673 L609 670 L616 663 L619 656 L622 643 L624 640 L625 641 L624 644 L624 657 L628 665 L633 670 L643 674 L651 674 L659 672 L670 677 L687 689 L693 692 L699 692 L709 689 L724 679 L735 674 L741 674 L742 675 L752 674 L763 668 L770 655 L770 646 L765 633 L758 625 L760 624 L769 632 L773 638 L775 645 L775 651 L780 667 L786 674 Z M757 624 L758 623 L759 624 L758 625 Z M739 624 L741 622 L750 622 L754 624 L762 632 L766 642 L765 643 L760 635 L753 629 Z M528 621 L529 622 L529 626 L528 627 L527 626 L527 622 Z M783 604 L784 603 L786 604 L785 605 Z M787 603 L788 602 L790 603 L789 604 Z M763 603 L764 602 L772 602 L773 603 L772 604 L764 604 Z M790 602 L791 601 L792 602 L791 603 Z M757 602 L758 601 L761 602 L760 603 Z M635 601 L636 600 L638 601 L637 602 Z M638 600 L639 599 L642 600 L641 601 Z M592 600 L593 599 L595 600 L594 601 Z M590 599 L591 598 L592 599 L591 600 Z M527 598 L528 599 L528 605 L527 606 L527 616 L526 617 L525 616 L525 604 Z M808 598 L798 608 L787 614 L773 613 L767 610 L764 610 L750 605 L751 604 L756 604 L757 605 L780 608 L793 605 L803 600 L806 597 Z M588 598 L589 597 L591 598 L590 599 Z M807 597 L808 596 L809 597 L808 598 Z M586 597 L587 596 L589 597 L588 598 Z M808 596 L809 595 L810 596 L809 597 Z M788 596 L789 595 L792 596 L791 597 Z M585 596 L586 595 L587 596 L586 597 Z M792 595 L793 594 L794 595 L793 596 Z M590 595 L591 594 L592 595 L591 596 Z M584 595 L585 594 L586 595 L585 596 Z M795 594 L796 593 L797 594 L796 595 Z M598 594 L599 593 L601 594 L600 595 Z M588 594 L589 593 L590 594 L589 595 Z M776 593 L777 592 L779 593 L778 594 Z M595 593 L596 592 L598 593 L597 594 Z M587 593 L588 592 L589 593 L588 594 Z M593 592 L594 591 L596 592 L595 593 Z M585 592 L586 591 L588 592 L587 593 Z M591 591 L592 590 L593 591 L592 592 Z M584 591 L585 590 L586 591 L585 592 Z M796 590 L797 589 L798 590 L797 591 Z M778 590 L779 589 L781 590 L780 591 Z M589 590 L590 589 L591 590 L590 591 Z M583 590 L584 589 L585 590 L584 591 Z M793 589 L789 592 L782 592 L781 591 L782 590 L787 590 L791 588 Z M588 589 L589 588 L590 589 L589 590 Z M582 589 L583 588 L584 589 L583 590 Z M792 588 L793 587 L795 588 L794 589 Z M581 588 L582 587 L583 588 L582 589 Z M794 587 L795 586 L796 587 L795 588 Z M585 587 L586 586 L587 587 L586 588 Z M580 587 L581 586 L582 587 L581 588 Z M584 586 L585 585 L586 586 L585 587 Z M579 586 L580 585 L581 586 L580 587 Z M583 585 L584 584 L585 585 L584 586 Z M573 586 L575 584 L580 590 L578 591 Z M582 584 L583 583 L584 584 L583 585 Z M528 584 L529 583 L530 584 L529 585 Z M581 583 L582 582 L583 583 L582 584 Z M580 582 L581 581 L582 582 L581 583 Z M579 581 L580 580 L581 581 L580 582 Z M727 579 L728 578 L732 578 L736 588 L741 594 L756 601 L755 602 L744 602 L739 599 L732 591 L727 582 Z M724 579 L725 578 L726 579 L725 580 Z M878 577 L880 581 L880 603 L879 604 L879 612 L878 613 L876 634 L874 639 L872 640 L872 643 L869 648 L868 688 L867 689 L866 708 L863 719 L859 727 L855 731 L847 733 L844 731 L846 729 L847 715 L850 711 L849 704 L851 698 L853 679 L855 673 L856 674 L856 684 L855 685 L856 696 L852 703 L855 703 L858 696 L859 675 L857 670 L855 669 L855 667 L856 666 L856 658 L857 657 L859 637 L860 636 L861 595 L862 594 L863 595 L863 603 L864 604 L864 610 L866 618 L865 597 L860 588 L860 585 L861 584 L864 587 L872 590 Z M723 578 L724 577 L725 578 L724 579 Z M670 578 L669 589 L667 593 L662 598 L657 601 L649 603 L640 607 L635 607 L634 608 L610 607 L609 606 L601 605 L594 601 L597 600 L601 602 L612 603 L613 604 L637 604 L650 601 L655 599 L663 591 L667 584 L668 578 L669 577 Z M864 577 L865 576 L866 577 L865 578 Z M721 577 L722 576 L724 577 L723 578 Z M829 696 L825 687 L817 678 L815 680 L806 677 L796 677 L787 672 L781 663 L777 651 L777 643 L772 633 L763 624 L755 620 L748 620 L747 619 L737 621 L730 626 L723 637 L723 642 L724 643 L725 642 L726 635 L732 629 L736 627 L743 627 L753 631 L760 638 L766 649 L766 657 L763 663 L758 668 L751 668 L732 673 L718 680 L707 688 L705 687 L711 681 L723 674 L734 665 L741 661 L747 660 L749 658 L748 656 L743 657 L733 663 L698 690 L697 689 L697 674 L698 673 L697 672 L697 623 L698 622 L697 590 L698 589 L698 581 L702 579 L703 580 L706 602 L707 591 L706 590 L705 581 L706 580 L711 581 L719 585 L722 584 L718 581 L710 578 L702 577 L699 579 L698 577 L696 577 L695 580 L694 578 L687 578 L681 582 L681 583 L683 583 L688 580 L692 580 L694 582 L694 601 L695 602 L695 667 L694 668 L694 672 L695 673 L695 689 L694 690 L680 681 L660 662 L650 655 L645 655 L643 657 L648 656 L652 658 L667 672 L666 673 L655 668 L639 668 L638 667 L635 668 L631 665 L627 658 L626 646 L631 634 L639 627 L644 625 L652 625 L660 627 L667 633 L669 636 L670 641 L672 642 L672 638 L669 632 L664 626 L655 621 L645 620 L635 624 L625 633 L621 640 L616 658 L610 667 L605 670 L598 672 L578 671 L571 674 L563 682 L558 695 L557 709 L558 710 L558 721 L559 722 L560 732 L564 743 L564 746 L569 757 L577 769 L588 779 L596 784 L604 787 L614 788 L615 789 L623 789 L624 790 L642 789 L643 790 L670 791 L671 792 L716 792 L717 791 L729 791 L730 790 L739 790 L740 789 L774 789 L775 788 L780 788 L794 784 L803 779 L815 768 L819 762 L826 747 L828 739 L828 734 L829 733 L829 726 L830 725 L830 701 L829 700 Z M672 580 L674 576 L677 577 L673 581 Z M666 578 L665 583 L662 589 L655 596 L645 600 L641 599 L651 594 L658 587 L661 582 L661 577 L662 576 Z M638 577 L638 579 L635 584 L628 591 L622 594 L609 597 L601 595 L602 594 L615 594 L621 592 L626 589 L635 580 L637 576 Z M861 575 L864 580 L862 582 L860 579 Z M764 576 L765 575 L766 576 L765 577 Z M719 576 L720 575 L722 576 L721 577 Z M731 575 L732 574 L734 575 L733 576 Z M717 575 L718 574 L720 575 L719 576 Z M733 574 L734 573 L735 574 L734 575 Z M638 573 L639 574 L638 577 L637 576 Z M735 573 L736 572 L737 573 L736 574 Z M509 572 L512 582 L518 590 L521 590 L528 585 L529 586 L528 592 L526 594 L523 603 L523 618 L527 630 L528 630 L528 627 L529 626 L530 627 L531 643 L532 644 L533 657 L534 658 L534 663 L532 665 L531 677 L530 678 L532 700 L535 707 L543 713 L545 721 L545 728 L541 731 L537 731 L530 726 L525 717 L522 707 L521 692 L520 691 L520 681 L519 680 L519 670 L518 669 L517 640 L514 637 L514 635 L511 630 L509 616 L506 605 L506 599 L505 598 L505 583 L507 575 Z M737 572 L738 571 L739 572 L738 573 Z M738 571 L739 570 L740 571 L739 572 Z M739 570 L740 569 L741 570 L740 571 Z M727 570 L728 569 L729 570 L728 571 Z M625 570 L626 569 L627 571 L626 572 Z M740 569 L741 568 L742 569 L741 570 Z M667 569 L668 568 L669 569 L668 570 Z M743 567 L744 566 L745 567 L744 568 Z M738 567 L739 566 L740 567 L739 568 Z M626 567 L627 566 L628 567 L627 568 Z M744 566 L745 565 L746 566 L745 567 Z M739 566 L740 565 L742 566 L741 567 Z M656 566 L657 565 L658 566 L657 567 Z M741 565 L742 564 L743 565 L742 566 Z M734 578 L741 574 L753 563 L754 564 L754 574 L758 584 L766 592 L775 596 L782 596 L783 597 L787 596 L788 597 L784 599 L779 599 L778 600 L764 600 L749 596 L740 590 Z M747 564 L748 563 L749 564 L748 565 Z M742 564 L743 563 L744 564 L743 565 Z M653 564 L654 563 L655 564 L654 565 Z M596 571 L602 565 L606 563 L615 563 L618 564 L624 569 L625 575 L617 584 L612 586 L602 586 L596 581 L595 578 Z M856 563 L857 562 L858 563 L857 564 Z M743 563 L744 562 L745 563 L744 564 Z M658 574 L659 576 L658 583 L647 594 L637 598 L628 599 L627 600 L613 600 L612 599 L613 598 L622 597 L629 593 L636 586 L641 576 L642 572 L642 565 L641 563 L642 562 Z M744 562 L745 561 L747 562 L746 563 Z M720 562 L721 561 L723 562 L722 563 Z M650 562 L651 561 L652 562 L651 563 Z M639 561 L640 562 L640 572 L639 573 L638 572 L638 562 Z M627 561 L628 565 L626 567 L625 565 Z M746 561 L747 560 L748 561 L747 562 Z M666 561 L669 560 L677 562 L671 568 L670 565 Z M649 561 L650 560 L651 561 L650 562 Z M747 560 L748 559 L749 560 L748 561 Z M731 559 L732 561 L726 568 L725 565 L722 563 L724 561 L727 561 Z M665 560 L666 559 L667 560 L666 561 Z M648 560 L649 559 L650 560 L649 561 Z M748 559 L749 558 L750 559 L749 560 Z M731 559 L732 558 L733 559 L732 560 Z M680 559 L681 558 L682 559 L681 560 Z M646 559 L647 558 L648 559 L647 560 Z M749 558 L750 557 L751 558 L750 559 Z M732 558 L733 557 L734 558 L733 559 Z M644 558 L645 557 L647 558 L646 559 Z M876 556 L877 557 L877 569 L876 570 L875 579 L872 586 L868 587 L864 585 L862 582 L864 580 L866 581 L866 577 L867 576 L870 576 L873 569 Z M733 557 L734 556 L735 557 L734 558 Z M643 557 L644 556 L645 557 L644 558 Z M752 556 L753 555 L754 556 L753 557 Z M734 556 L735 555 L736 556 L735 557 Z M725 568 L725 570 L722 573 L709 568 L705 568 L702 570 L699 569 L696 570 L686 570 L676 574 L673 573 L673 568 L684 560 L688 558 L701 558 L705 557 L707 555 L711 559 L721 564 Z M641 556 L642 555 L644 556 L643 557 Z M765 554 L766 556 L762 566 L763 579 L766 584 L771 589 L776 592 L775 593 L770 592 L765 589 L761 585 L757 577 L756 564 L758 560 Z M753 555 L754 554 L755 555 L754 556 Z M735 555 L736 554 L737 555 L736 556 Z M640 555 L641 554 L642 555 L641 556 Z M754 554 L755 553 L756 554 L755 555 Z M736 554 L737 553 L738 554 L737 555 Z M638 554 L639 553 L640 554 L639 555 Z M635 558 L636 561 L636 572 L633 579 L625 587 L619 590 L612 592 L600 591 L598 589 L599 587 L603 589 L614 588 L621 584 L625 580 L628 575 L630 568 L629 558 L627 554 L629 553 Z M756 553 L757 552 L758 553 L757 554 Z M737 553 L738 552 L739 553 L738 554 Z M626 553 L627 552 L628 553 L627 554 Z M877 551 L878 552 L877 556 L876 555 Z M757 552 L758 551 L759 552 L758 553 Z M738 552 L739 551 L740 552 L739 553 Z M759 551 L760 550 L761 551 L760 552 Z M739 551 L740 550 L741 551 L740 552 Z M568 551 L569 550 L570 552 L569 553 Z M760 550 L761 549 L762 550 L761 551 Z M635 550 L636 549 L637 550 L636 551 Z M762 549 L763 548 L764 549 L763 550 Z M684 549 L685 548 L686 550 L685 551 Z M633 549 L634 548 L635 549 L634 550 Z M763 548 L764 547 L765 548 L764 549 Z M631 548 L632 547 L633 548 L632 549 Z M765 547 L766 546 L767 547 L766 548 Z M685 547 L686 546 L687 548 L686 549 Z M629 547 L630 546 L632 547 L631 548 Z M767 546 L768 545 L769 546 L768 547 Z M627 546 L628 545 L630 546 L629 547 Z M769 545 L770 544 L771 545 L770 546 Z M625 545 L626 544 L628 545 L627 546 Z M623 544 L624 543 L626 544 L625 545 Z M513 543 L516 548 L520 562 L521 574 L519 578 L512 557 L512 544 Z M746 543 L747 542 L748 543 L747 544 Z M621 543 L622 542 L624 543 L623 544 Z M747 542 L748 541 L749 542 L748 543 Z M619 542 L620 541 L622 542 L621 543 Z M748 541 L749 540 L750 541 L749 542 Z M617 541 L618 540 L620 541 L619 542 Z M821 540 L822 539 L823 541 L822 542 Z M615 540 L616 539 L618 540 L617 541 Z M612 539 L613 538 L616 539 L615 540 Z M645 538 L646 537 L647 538 L646 539 Z M610 538 L611 537 L613 538 L612 539 Z M607 537 L608 536 L611 537 L610 538 Z M833 535 L834 536 L833 540 L832 539 Z M605 536 L606 535 L608 536 L607 537 Z M740 535 L741 534 L743 535 L742 536 Z M603 535 L604 534 L605 535 L604 536 Z M750 534 L751 533 L752 534 L751 535 Z M600 534 L601 533 L603 534 L602 535 Z M584 533 L588 533 L620 547 L622 549 L624 556 L624 564 L623 565 L618 562 L607 561 L601 563 L595 569 L593 573 L593 580 L597 588 L596 590 L589 586 L582 580 L576 571 L573 562 L573 557 L572 556 L573 544 L575 540 Z M563 533 L565 539 L565 546 L566 547 L568 566 L571 576 L575 583 L573 586 L566 578 L558 558 L558 545 Z M798 533 L799 532 L800 533 L799 534 Z M598 533 L599 532 L601 533 L600 534 Z M832 531 L833 532 L832 535 L831 534 Z M800 532 L801 531 L802 532 L801 533 Z M596 532 L597 531 L598 532 L597 533 Z M802 531 L803 530 L804 531 L803 532 Z M594 531 L595 530 L596 531 L595 532 Z M879 529 L882 532 L882 552 L881 553 L880 552 L880 545 L879 542 L877 541 L875 547 L873 561 L871 566 L871 570 L869 574 L867 571 L867 558 L874 534 Z M813 529 L818 536 L819 542 L821 546 L821 560 L819 568 L815 576 L807 585 L798 590 L797 588 L799 586 L801 580 L800 570 L795 564 L791 562 L784 561 L783 562 L784 563 L791 564 L797 569 L799 574 L799 578 L794 584 L788 587 L779 587 L773 584 L769 580 L767 575 L766 561 L769 554 L776 547 L781 544 L797 537 L810 529 Z M592 530 L593 529 L594 530 L593 531 Z M510 529 L513 532 L515 539 L514 541 L510 542 L510 558 L516 576 L519 580 L522 580 L526 576 L527 571 L528 570 L529 571 L528 581 L522 587 L518 587 L515 584 L509 566 L508 556 L507 555 L507 534 Z M756 529 L754 531 L752 531 L745 535 L742 534 L748 530 L754 528 Z M755 528 L756 527 L757 528 L756 529 Z M631 528 L632 527 L634 528 L633 529 Z M860 526 L861 527 L860 530 L859 529 Z M764 526 L765 527 L750 541 L749 539 L755 532 L761 527 Z M757 527 L758 526 L759 527 L758 528 Z M633 527 L634 526 L636 527 L635 528 Z M576 526 L584 531 L578 534 L572 541 L570 549 L568 546 L569 533 Z M764 526 L765 525 L767 526 L766 527 Z M631 526 L632 525 L634 526 L633 527 Z M818 524 L821 527 L821 534 L822 535 L821 539 L819 534 L814 527 Z M766 525 L767 524 L768 525 L767 526 Z M629 525 L630 524 L632 525 L631 526 Z M768 524 L769 523 L770 524 L769 525 Z M728 524 L729 523 L730 524 L729 525 Z M671 523 L671 532 L669 536 L662 540 L653 539 L647 536 L641 535 L633 529 L637 527 L650 533 L659 534 L666 531 L669 528 L669 523 L670 522 Z M569 522 L573 525 L569 529 L567 533 L566 532 L566 525 Z M823 521 L829 532 L831 540 L831 545 L832 546 L832 553 L827 573 L823 581 L817 588 L816 586 L822 573 L824 565 L824 558 L825 557 L824 532 L823 531 L823 526 L820 523 Z M726 521 L727 522 L727 528 L731 533 L738 534 L741 536 L735 539 L728 538 L724 532 L724 524 Z M572 519 L573 518 L574 519 L573 520 Z M860 518 L861 517 L862 519 L861 520 Z M827 517 L832 527 L832 531 L831 532 L829 527 L824 520 Z M571 518 L572 517 L573 518 L572 519 Z M732 517 L733 516 L734 517 L733 518 Z M569 517 L570 516 L571 517 L570 518 Z M562 516 L567 520 L565 522 L563 527 L563 531 L559 538 L557 545 L556 544 L556 534 L557 533 L558 525 Z M568 516 L569 515 L570 516 L569 517 Z M566 515 L567 514 L569 515 L568 516 Z M861 511 L862 510 L863 511 L862 512 Z M731 510 L732 511 L731 516 L728 519 L725 520 L722 527 L723 534 L725 538 L730 541 L735 541 L741 539 L749 534 L751 535 L730 557 L726 559 L719 559 L716 558 L712 554 L709 548 L709 535 L715 523 L721 517 Z M735 507 L736 506 L737 508 L736 509 Z M664 506 L670 513 L680 521 L684 529 L684 544 L683 548 L680 554 L674 559 L670 559 L664 556 L659 550 L646 539 L648 538 L655 541 L664 541 L670 538 L673 534 L674 530 L673 529 L674 528 L673 524 L663 517 L664 516 L663 515 L663 507 Z M557 507 L558 506 L567 514 L564 515 Z M732 506 L733 505 L734 507 L733 508 Z M556 506 L557 505 L558 506 L557 507 Z M862 505 L863 504 L864 505 L863 506 Z M662 505 L663 504 L664 505 L663 506 Z M555 505 L556 504 L557 505 L556 506 Z M554 504 L555 503 L556 504 L555 505 Z M553 502 L554 501 L555 502 L554 503 Z M863 500 L864 499 L865 500 L864 501 Z M865 492 L866 491 L867 492 L866 493 Z M866 488 L867 487 L868 488 L867 489 Z M573 488 L574 487 L575 488 L574 489 Z M572 487 L573 486 L574 487 L573 488 Z M867 485 L868 484 L869 485 L868 486 Z M814 485 L815 484 L816 485 L815 486 Z M571 485 L572 484 L573 486 L572 487 Z M815 484 L816 483 L817 484 L816 485 Z M570 484 L571 483 L572 484 L571 485 Z M816 482 L817 481 L818 482 L817 483 Z M817 480 L818 479 L819 481 L818 482 Z M818 479 L819 478 L820 479 L819 480 Z M819 477 L820 476 L821 477 L820 478 Z M625 476 L626 475 L627 477 L626 478 Z M820 475 L821 474 L822 476 L821 477 Z M626 474 L627 473 L628 474 L627 475 Z M821 473 L822 472 L823 474 L822 475 Z M822 472 L823 471 L824 472 L823 473 Z M823 470 L824 469 L825 471 L824 472 Z M872 469 L873 468 L874 469 L873 470 Z M824 468 L825 467 L826 469 L825 470 Z M767 466 L770 471 L770 482 L769 483 L766 477 L766 467 Z M873 466 L874 465 L875 466 L874 467 Z M765 465 L766 464 L767 465 L766 466 Z M835 457 L845 468 L856 491 L854 499 L854 505 L853 506 L852 524 L853 525 L853 545 L854 546 L855 574 L859 591 L859 618 L858 619 L858 632 L857 633 L854 665 L853 666 L849 695 L847 701 L845 718 L842 728 L842 733 L840 738 L839 747 L837 750 L837 753 L831 769 L822 785 L807 801 L795 809 L781 816 L778 816 L767 820 L751 822 L750 823 L704 822 L703 821 L647 822 L646 821 L637 821 L636 820 L627 820 L626 819 L614 818 L592 810 L585 805 L572 792 L567 785 L561 773 L560 768 L553 752 L548 733 L547 718 L545 713 L545 706 L543 701 L543 697 L541 693 L540 681 L538 675 L536 656 L534 649 L534 641 L533 640 L533 632 L532 631 L531 614 L530 613 L530 591 L531 590 L531 584 L533 580 L533 577 L535 574 L536 562 L537 561 L537 552 L538 551 L538 517 L537 516 L537 508 L536 507 L536 501 L535 500 L534 492 L538 480 L542 473 L548 465 L552 462 L558 473 L568 486 L576 494 L595 508 L609 515 L618 521 L630 531 L638 536 L662 559 L668 567 L667 569 L664 568 L655 562 L642 551 L631 544 L617 537 L612 536 L607 533 L598 530 L580 521 L570 514 L556 501 L550 493 L548 487 L547 487 L546 489 L549 499 L555 509 L560 514 L556 523 L556 527 L554 532 L554 550 L558 566 L564 579 L572 589 L591 603 L600 607 L608 609 L625 610 L626 611 L625 612 L620 612 L616 614 L599 614 L589 611 L584 608 L578 601 L564 595 L555 589 L548 582 L544 575 L543 575 L544 579 L550 587 L572 604 L591 614 L598 616 L617 616 L622 614 L626 614 L659 603 L669 594 L673 587 L673 585 L679 578 L686 574 L694 572 L701 572 L702 573 L707 573 L719 578 L725 584 L732 596 L741 604 L749 608 L758 610 L765 613 L772 614 L776 616 L796 618 L804 616 L810 613 L822 604 L840 586 L847 575 L848 569 L847 569 L842 580 L837 586 L829 593 L820 598 L821 601 L811 610 L800 615 L793 615 L792 614 L800 609 L823 585 L828 578 L834 565 L835 557 L836 556 L836 536 L834 531 L834 527 L831 519 L829 517 L829 515 L838 503 L843 486 L841 486 L839 493 L832 503 L817 517 L803 526 L790 532 L783 537 L781 537 L762 546 L754 551 L739 564 L730 570 L728 569 L736 558 L760 534 L774 523 L793 511 L814 491 L825 475 L833 461 L833 459 Z M831 455 L832 456 L831 460 L826 468 L825 466 L827 463 L827 460 Z M1222 652 L1223 829 L1132 932 L802 932 L771 897 L614 898 L613 899 L488 899 L487 900 L367 900 L366 901 L355 901 L354 900 L354 477 L355 476 L493 476 L494 475 L498 475 L499 476 L499 487 L500 488 L503 522 L505 530 L504 549 L505 550 L506 562 L508 569 L503 580 L503 600 L504 601 L504 606 L508 622 L508 629 L515 642 L515 660 L516 661 L516 671 L517 672 L517 684 L518 685 L518 694 L519 695 L519 703 L520 704 L521 712 L526 724 L533 732 L537 734 L542 734 L545 732 L546 733 L549 748 L551 751 L559 774 L565 786 L574 798 L588 810 L602 817 L613 820 L617 820 L623 822 L630 822 L631 823 L641 823 L642 824 L728 824 L729 825 L754 825 L755 824 L760 824 L773 821 L791 814 L807 804 L815 797 L828 780 L837 760 L841 748 L843 736 L844 735 L848 736 L852 735 L860 730 L864 723 L868 709 L869 692 L870 691 L871 649 L875 643 L878 635 L879 625 L880 624 L881 607 L882 606 L882 580 L880 577 L880 572 L881 571 L881 566 L884 553 L885 535 L884 531 L881 527 L881 523 L882 522 L882 510 L883 509 L884 467 L885 466 L885 456 L887 454 L891 455 L919 477 L1075 477 Z M831 455 L832 454 L833 455 L832 456 Z M830 452 L831 451 L832 453 L831 454 Z M882 450 L883 451 L883 462 L882 463 L882 484 L881 485 L881 504 L880 505 L879 526 L873 531 L870 538 L864 564 L864 572 L865 573 L864 576 L861 569 L861 559 L860 558 L863 517 L864 516 L865 505 L870 485 Z M501 450 L504 454 L512 471 L523 506 L525 524 L527 531 L527 537 L528 538 L528 564 L527 565 L527 569 L524 575 L522 569 L521 557 L517 545 L515 531 L512 527 L509 527 L507 529 L506 528 L503 495 L502 494 L502 484 L501 483 L501 470 L500 469 L500 451 Z M878 450 L879 449 L880 451 L879 452 Z M831 450 L832 449 L833 451 L832 452 Z M833 446 L834 447 L833 450 L832 449 Z M838 444 L848 453 L859 471 L857 484 L856 485 L849 470 L835 453 L835 450 Z M834 443 L835 444 L834 447 L833 446 Z M881 441 L882 442 L882 446 L880 449 L879 446 Z M835 439 L836 440 L835 444 L834 443 Z M836 436 L837 437 L836 440 L835 439 Z M837 432 L838 433 L837 437 L836 436 Z M591 426 L592 427 L591 431 L590 430 Z M868 424 L871 432 L872 461 L871 462 L871 468 L866 481 L860 505 L858 525 L857 526 L857 553 L856 554 L855 553 L855 507 L856 506 L856 499 L857 498 L859 481 L861 475 L861 468 L864 460 L864 454 L866 447 L866 439 L867 438 L867 425 Z M735 422 L732 430 L732 462 L733 463 L732 464 L731 490 L727 500 L717 512 L720 511 L726 505 L731 496 L733 489 L734 465 L735 464 L734 432 L736 429 L738 432 L739 440 L740 441 L740 449 L741 450 L741 457 L742 458 L741 459 L742 460 L741 479 L742 479 L742 473 L743 472 L743 450 L742 449 L741 438 Z M794 420 L795 421 L794 425 L793 424 Z M656 421 L655 421 L655 436 L654 437 L653 451 L652 452 L652 472 L654 476 L654 454 L655 453 L655 444 L656 443 L657 429 L658 428 Z M721 417 L721 428 L723 434 L725 453 L726 454 L725 455 L725 462 L726 464 L725 465 L724 474 L719 485 L705 503 L700 514 L699 522 L701 518 L701 515 L704 511 L703 510 L705 506 L719 488 L723 481 L726 472 L726 467 L727 466 L726 440 L725 439 L723 423 Z M538 415 L540 418 L541 428 L540 429 L538 427 L535 427 L535 428 L542 432 L548 454 L551 459 L540 472 L533 488 L531 485 L531 480 L529 478 L529 476 L535 460 L541 453 L541 451 L534 459 L529 471 L527 463 L527 449 L528 448 L529 438 L531 435 L530 434 L527 439 L526 435 L531 420 L536 415 Z M845 413 L853 419 L857 429 L857 439 L859 446 L859 459 L860 460 L860 467 L859 468 L851 454 L843 445 L838 442 L842 430 L842 427 L845 423 L842 422 Z M795 404 L798 415 L798 419 L797 420 L796 419 L795 421 L794 420 L794 405 Z M607 412 L609 414 L617 409 L631 404 L653 400 L654 399 L659 399 L660 398 L676 397 L677 396 L714 396 L715 397 L732 398 L733 399 L738 399 L739 400 L744 400 L757 403 L771 408 L781 413 L781 411 L774 406 L766 403 L764 401 L756 401 L751 399 L735 397 L734 396 L718 395 L717 394 L705 394 L704 393 L702 394 L700 393 L669 394 L668 395 L661 395 L660 396 L658 395 L657 396 L639 398 L627 401 L612 408 Z M842 383 L843 384 L843 407 L842 408 L841 423 L838 433 L837 432 L837 427 L838 426 L839 414 L840 413 L841 384 Z M823 379 L824 380 L824 384 L821 389 L820 388 L820 383 Z M593 380 L594 379 L595 380 L594 381 Z M592 379 L593 378 L594 379 L593 380 Z M824 376 L825 377 L824 380 L823 379 Z M840 376 L841 375 L842 376 L841 377 Z M799 372 L802 375 L798 390 L798 401 L797 402 L794 393 L793 383 L794 382 L795 373 Z M756 373 L757 372 L759 373 L758 374 Z M607 371 L608 370 L609 371 L608 372 Z M594 376 L594 372 L598 367 L600 368 L600 370 L602 371 L605 370 L606 372 L607 371 L608 372 L608 374 L603 378 L596 378 Z M782 365 L783 364 L784 365 L783 366 Z M600 365 L601 364 L602 365 L601 366 Z M599 363 L600 364 L595 367 L591 375 L589 371 L590 367 L594 363 Z M588 364 L589 363 L590 364 L589 365 Z M727 361 L729 372 L732 377 L736 379 L731 373 Z M742 360 L743 359 L744 360 L743 361 Z M822 357 L823 358 L822 361 L821 360 Z M820 356 L821 355 L822 357 L821 358 Z M748 354 L749 353 L750 354 L749 355 Z M570 353 L572 356 L572 360 L571 361 L571 385 L572 389 L567 395 L565 395 L560 387 L559 372 L563 363 Z M818 353 L819 352 L820 353 L819 354 Z M747 351 L748 350 L749 352 L748 353 Z M567 351 L568 350 L569 351 L568 352 Z M745 350 L746 349 L747 350 L746 351 Z M689 350 L692 349 L699 350 L705 355 L707 359 L706 367 L699 373 L691 373 L687 371 L682 365 L682 358 L684 354 Z M645 350 L646 349 L648 350 L647 351 Z M744 349 L745 348 L746 349 L745 350 Z M603 348 L605 348 L607 350 L607 362 L608 363 L608 369 L607 370 L605 369 L606 368 L604 364 L600 361 L594 361 L590 364 L589 363 L590 358 L596 351 Z M736 348 L737 347 L739 348 L738 349 Z M568 348 L569 347 L570 349 L569 350 Z M688 348 L681 355 L680 358 L680 366 L683 371 L690 375 L702 374 L706 371 L709 365 L709 359 L706 353 L700 348 L696 347 Z M569 346 L570 345 L571 347 L570 348 Z M571 342 L572 343 L571 346 L570 345 Z M877 342 L878 341 L879 342 L878 343 Z M814 340 L819 349 L818 352 L813 343 Z M767 341 L768 340 L769 341 L768 342 Z M812 340 L813 339 L814 340 L813 341 Z M572 338 L573 339 L572 343 L571 342 Z M834 344 L836 351 L837 365 L838 366 L838 386 L839 387 L837 421 L832 442 L830 445 L830 448 L822 468 L816 479 L805 495 L791 509 L781 516 L778 515 L756 525 L752 525 L739 531 L732 531 L729 528 L730 521 L732 517 L733 519 L735 519 L735 513 L742 503 L743 504 L743 511 L746 518 L747 518 L747 515 L745 511 L745 503 L749 498 L753 498 L754 499 L762 498 L768 493 L770 489 L770 486 L772 482 L772 471 L768 463 L766 462 L766 458 L765 457 L766 449 L765 449 L765 451 L763 453 L763 459 L764 460 L763 461 L763 469 L764 470 L764 477 L767 486 L767 491 L763 495 L758 497 L754 497 L753 496 L755 493 L754 492 L746 497 L737 507 L736 504 L743 489 L743 483 L741 482 L741 485 L738 490 L738 492 L731 505 L725 512 L720 515 L713 522 L708 530 L708 532 L705 535 L704 545 L707 553 L706 555 L689 556 L683 559 L681 558 L685 555 L689 548 L689 534 L683 521 L675 513 L671 511 L667 506 L660 490 L661 464 L662 463 L662 456 L664 453 L664 429 L662 431 L662 436 L661 437 L661 455 L660 456 L660 463 L659 464 L659 477 L655 486 L659 496 L659 501 L661 506 L661 520 L664 520 L667 524 L667 527 L664 530 L658 531 L651 525 L649 520 L655 512 L655 510 L657 509 L656 504 L651 499 L643 494 L641 497 L635 496 L629 489 L628 481 L630 475 L630 464 L631 462 L629 462 L627 469 L623 476 L623 481 L624 481 L625 478 L626 479 L626 488 L630 495 L638 499 L647 500 L653 504 L654 506 L653 511 L651 513 L651 515 L648 520 L651 527 L653 529 L652 530 L649 530 L630 521 L615 516 L592 503 L578 490 L563 467 L557 454 L550 433 L548 416 L546 409 L547 365 L550 352 L556 344 L557 345 L557 383 L560 392 L565 398 L567 398 L573 391 L578 380 L585 373 L586 374 L586 395 L585 396 L585 403 L583 411 L583 418 L585 416 L585 410 L586 409 L587 381 L589 375 L594 385 L593 407 L591 412 L589 428 L587 432 L584 421 L583 425 L591 447 L596 451 L602 452 L610 445 L616 442 L620 441 L624 442 L626 444 L627 443 L623 440 L615 440 L611 442 L603 449 L599 450 L595 448 L591 443 L590 433 L592 430 L594 434 L598 435 L617 426 L634 420 L654 417 L655 416 L661 416 L662 415 L670 415 L671 416 L670 417 L671 418 L669 424 L668 441 L667 442 L667 466 L665 472 L665 485 L671 501 L681 510 L676 504 L669 492 L668 480 L667 479 L667 475 L669 474 L675 488 L679 494 L686 500 L676 487 L671 474 L671 470 L669 464 L669 442 L670 441 L670 433 L672 425 L672 415 L673 414 L692 414 L693 413 L719 414 L720 415 L729 415 L730 416 L743 417 L744 418 L765 422 L776 427 L784 429 L793 436 L793 440 L794 441 L793 443 L790 440 L784 437 L773 436 L766 443 L766 446 L767 446 L767 444 L773 438 L781 438 L786 440 L794 448 L796 448 L797 442 L801 435 L800 432 L798 438 L796 440 L795 439 L795 436 L797 434 L800 426 L800 391 L803 383 L803 380 L805 377 L809 384 L817 392 L821 391 L825 387 L827 380 L827 367 L825 361 L825 348 L827 344 L827 341 L830 337 Z M811 338 L812 337 L813 338 L812 339 Z M505 329 L515 339 L528 367 L528 371 L524 379 L524 383 L521 394 L521 405 L519 412 L519 418 L520 419 L521 449 L523 455 L525 471 L528 479 L528 483 L530 487 L531 493 L533 496 L534 509 L535 510 L536 549 L535 550 L534 568 L532 574 L531 573 L531 545 L530 544 L530 537 L529 536 L525 502 L517 472 L508 452 L508 445 L506 439 L507 431 L505 430 L504 408 L503 407 L503 391 L502 390 L502 356 L501 355 L501 341 L500 340 L500 333 L501 332 L504 335 L508 347 L508 351 L510 357 L510 378 L511 379 L513 395 L514 396 L515 410 L517 412 L516 395 L514 390 L514 382 L512 375 L512 356 L508 340 L504 332 Z M503 329 L504 328 L505 329 L504 330 Z M594 381 L595 380 L603 380 L607 378 L611 372 L610 363 L608 358 L608 353 L609 352 L612 356 L613 355 L608 348 L609 347 L617 345 L621 346 L619 353 L619 361 L623 369 L629 373 L636 373 L644 368 L646 364 L645 360 L644 359 L639 360 L637 358 L637 356 L641 352 L645 352 L649 355 L651 359 L651 367 L650 370 L645 375 L637 378 L632 378 L622 375 L628 379 L635 380 L636 379 L640 379 L650 373 L653 368 L653 358 L649 352 L647 351 L648 350 L652 350 L656 352 L661 357 L663 361 L663 364 L665 365 L670 359 L671 362 L673 362 L673 357 L675 352 L682 345 L689 342 L699 342 L710 348 L715 355 L715 362 L716 364 L712 374 L705 380 L698 382 L691 382 L682 379 L676 373 L673 367 L673 364 L672 364 L671 368 L674 374 L682 381 L691 384 L699 384 L708 380 L714 374 L716 370 L717 361 L718 360 L720 362 L719 363 L722 362 L727 354 L732 349 L735 348 L737 349 L734 352 L731 359 L731 364 L733 369 L739 375 L744 377 L749 377 L741 374 L736 369 L733 362 L733 358 L738 351 L740 350 L745 351 L747 357 L746 358 L744 357 L741 358 L741 365 L746 371 L755 373 L756 374 L753 376 L754 377 L757 374 L759 374 L765 368 L767 364 L769 356 L769 349 L768 348 L768 342 L769 341 L782 345 L785 348 L787 348 L787 346 L782 343 L780 343 L778 341 L778 337 L773 324 L761 305 L748 291 L737 283 L738 282 L761 283 L783 289 L798 296 L810 305 L830 325 L842 340 L855 363 L862 383 L865 404 L866 404 L865 388 L864 387 L863 378 L860 371 L860 365 L869 348 L875 342 L878 343 L873 361 L872 374 L871 375 L871 410 L873 413 L872 401 L873 400 L874 366 L879 346 L881 343 L882 344 L882 349 L883 350 L883 370 L884 371 L884 407 L883 408 L883 430 L882 431 L882 436 L879 441 L875 454 L873 447 L872 427 L870 422 L866 418 L865 437 L864 438 L863 456 L862 457 L861 456 L861 437 L857 422 L855 418 L844 410 L845 407 L845 383 L843 377 L843 372 L842 371 L839 352 L833 337 L830 333 L829 333 L825 341 L823 348 L823 355 L822 356 L821 355 L820 347 L810 330 L808 330 L809 339 L819 358 L822 369 L822 377 L817 389 L810 382 L807 376 L802 371 L803 370 L796 370 L795 369 L797 366 L797 355 L794 351 L792 351 L795 356 L795 363 L794 364 L789 359 L784 359 L780 363 L780 367 L784 368 L786 365 L788 367 L788 371 L783 375 L780 375 L775 370 L774 358 L773 359 L772 363 L773 370 L778 376 L784 377 L790 372 L789 365 L787 363 L784 363 L783 362 L784 361 L789 361 L791 363 L794 370 L791 380 L791 397 L792 398 L792 408 L791 409 L791 429 L792 431 L791 432 L780 425 L763 419 L754 418 L750 416 L745 416 L739 414 L723 413 L722 412 L711 412 L710 411 L682 411 L681 412 L669 412 L668 413 L660 413 L659 414 L647 415 L626 420 L623 422 L615 424 L606 429 L596 432 L594 429 L594 425 L593 424 L593 414 L595 407 L595 396 L596 395 L596 386 Z M654 280 L655 281 L651 283 L643 289 L624 309 L612 329 L608 345 L607 346 L599 347 L590 355 L587 361 L587 371 L583 373 L574 383 L572 380 L572 354 L570 353 L574 345 L575 333 L573 332 L570 336 L570 339 L565 351 L564 358 L560 365 L559 364 L559 340 L557 340 L552 345 L547 354 L545 362 L544 383 L543 384 L544 407 L545 408 L546 423 L553 449 L560 465 L571 482 L570 484 L565 479 L558 469 L550 453 L544 432 L544 428 L542 424 L540 402 L538 403 L539 411 L533 415 L529 420 L526 426 L524 434 L524 440 L523 441 L522 440 L521 410 L522 409 L525 385 L530 370 L537 356 L552 332 L560 322 L581 302 L592 295 L610 287 L630 282 Z M610 341 L613 334 L613 331 L618 321 L630 304 L643 291 L645 292 L644 291 L648 287 L661 279 L668 279 L669 278 L714 278 L715 279 L728 279 L738 285 L750 295 L760 306 L769 320 L776 337 L775 340 L770 339 L765 336 L764 337 L766 344 L766 359 L764 364 L757 370 L747 369 L743 365 L742 362 L744 360 L749 361 L752 358 L752 354 L750 350 L743 345 L738 345 L730 348 L721 360 L717 356 L714 350 L706 343 L699 340 L689 340 L679 345 L674 350 L672 355 L666 360 L658 351 L652 348 L643 347 L639 349 L635 353 L635 359 L638 363 L642 361 L643 365 L640 369 L632 371 L626 369 L622 363 L621 353 L622 352 L623 344 L621 342 L616 344 L611 344 Z M566 311 L567 304 L571 297 L582 286 L602 275 L638 265 L653 264 L654 263 L667 263 L668 262 L711 262 L712 263 L732 264 L740 266 L751 266 L764 269 L782 275 L794 281 L804 288 L814 298 L816 302 L816 306 L815 307 L799 294 L786 287 L773 282 L766 282 L759 280 L743 279 L742 278 L735 278 L734 277 L722 277 L721 276 L666 276 L665 277 L652 277 L651 278 L633 279 L632 280 L627 280 L611 284 L587 295 L575 304 L567 312 Z M547 167 L548 166 L549 167 L548 168 Z M522 143 L534 143 L548 149 L557 156 L559 159 L550 167 L548 166 L547 167 L548 168 L544 171 L529 191 L527 190 L524 183 L519 177 L517 177 L515 179 L509 174 L505 165 L506 158 L508 154 L516 146 Z M847 140 L853 140 L862 143 L869 150 L871 154 L871 166 L869 170 L866 173 L863 172 L856 179 L858 182 L853 188 L850 186 L844 177 L821 156 L829 148 L835 144 Z M615 137 L616 138 L607 146 L601 157 L599 165 L599 171 L598 172 L600 194 L605 210 L614 229 L627 249 L639 263 L638 264 L633 264 L616 268 L601 273 L581 284 L569 296 L567 296 L556 288 L546 277 L535 262 L524 243 L519 229 L519 220 L520 219 L521 211 L527 198 L544 175 L563 158 L579 147 L587 143 L601 139 Z M771 136 L775 136 L791 141 L813 153 L829 165 L842 178 L849 187 L860 207 L861 216 L862 217 L861 230 L858 241 L854 250 L838 274 L822 290 L815 295 L800 282 L788 275 L769 268 L753 265 L749 263 L757 254 L775 225 L784 206 L790 184 L791 170 L790 169 L790 162 L788 155 L782 145 L773 138 L771 138 L770 137 Z M616 137 L617 136 L618 137 L617 138 Z M768 136 L769 135 L771 136 L770 137 Z M608 147 L614 141 L621 137 L631 134 L637 134 L645 132 L668 131 L669 130 L692 130 L693 129 L732 130 L733 131 L752 132 L767 137 L775 141 L783 149 L788 164 L788 182 L787 183 L786 193 L781 208 L774 223 L755 254 L747 263 L740 263 L739 262 L732 262 L731 261 L718 261 L717 260 L664 260 L663 261 L652 261 L651 262 L644 262 L642 263 L633 254 L617 231 L608 213 L603 199 L601 183 L600 182 L600 170 L601 169 L601 163 L603 156 Z M513 145 L507 151 L504 157 L503 167 L507 175 L516 183 L521 184 L527 194 L520 207 L517 218 L517 231 L519 237 L526 251 L543 277 L556 291 L568 299 L564 306 L564 315 L550 331 L535 355 L530 365 L528 364 L521 345 L514 334 L507 327 L503 325 L498 330 L497 336 L499 344 L501 409 L502 410 L502 422 L503 423 L504 441 L506 448 L505 452 L500 445 L497 450 L498 473 L497 474 L494 473 L493 474 L352 474 L352 903 L526 902 L527 901 L529 902 L531 901 L639 901 L640 900 L645 901 L646 900 L741 900 L742 899 L770 899 L801 934 L1133 934 L1225 830 L1224 651 L1076 475 L919 475 L885 448 L884 446 L884 438 L885 437 L885 415 L886 414 L886 365 L885 364 L885 349 L884 348 L883 340 L881 338 L878 338 L874 340 L867 347 L858 364 L844 339 L829 320 L818 309 L819 306 L818 305 L818 301 L816 298 L818 295 L822 293 L841 274 L851 260 L860 242 L864 226 L864 215 L860 201 L853 191 L869 174 L873 167 L874 158 L871 149 L863 141 L859 139 L845 138 L834 142 L818 155 L812 150 L797 141 L781 135 L764 132 L763 131 L757 131 L756 130 L737 129 L736 128 L716 128 L715 127 L667 128 L666 129 L645 130 L644 131 L636 131 L635 132 L609 135 L585 141 L569 151 L562 157 L560 157 L556 152 L547 146 L535 141 L526 140 L518 142 Z" fill="#eef3f4" fill-rule="evenodd"/>
</svg>
