<svg xmlns="http://www.w3.org/2000/svg" width="1086" height="1448" viewBox="0 0 1086 1448">
  <title>0396</title>
  <path d="M477 1297 L482 1293 L497 1286 L508 1283 L514 1283 L515 1282 L539 1283 L556 1288 L572 1296 L563 1299 L547 1301 L546 1302 L538 1302 L537 1303 L507 1303 L506 1302 L492 1301 Z M416 1267 L417 1266 L418 1267 L417 1268 Z M363 1214 L364 1213 L365 1214 L364 1215 Z M362 1212 L363 1211 L364 1212 L363 1213 Z M419 1247 L424 1233 L428 1227 L436 1219 L447 1212 L461 1207 L477 1205 L478 1204 L504 1203 L505 1202 L555 1203 L556 1204 L569 1205 L584 1209 L593 1213 L602 1219 L611 1228 L617 1237 L621 1251 L621 1264 L618 1275 L613 1282 L597 1289 L579 1295 L575 1295 L565 1289 L541 1281 L536 1281 L535 1280 L512 1280 L493 1285 L481 1291 L475 1296 L472 1296 L451 1288 L424 1273 L421 1270 L419 1263 Z M711 1200 L712 1199 L713 1200 L712 1201 Z M712 1198 L713 1197 L714 1199 L713 1200 Z M400 1235 L403 1224 L406 1218 L413 1208 L419 1202 L426 1197 L438 1191 L450 1187 L460 1186 L461 1185 L468 1185 L469 1184 L480 1184 L481 1183 L565 1183 L566 1184 L582 1185 L600 1190 L609 1194 L621 1202 L631 1213 L637 1223 L641 1239 L641 1250 L636 1268 L630 1273 L620 1278 L619 1277 L621 1274 L624 1262 L624 1253 L621 1240 L614 1227 L604 1217 L589 1208 L573 1203 L562 1202 L561 1201 L552 1201 L551 1200 L529 1200 L528 1199 L491 1200 L490 1201 L472 1202 L449 1208 L434 1217 L426 1225 L421 1233 L416 1248 L416 1262 L417 1263 L416 1267 L402 1256 L400 1250 Z M544 1140 L545 1141 L544 1144 L543 1143 Z M455 1139 L456 1138 L457 1140 L456 1141 Z M594 1136 L595 1135 L596 1136 L595 1137 Z M515 1144 L518 1132 L520 1130 L539 1129 L541 1131 L541 1142 L542 1143 L538 1145 L516 1145 Z M487 1142 L489 1138 L490 1132 L492 1130 L495 1129 L510 1129 L513 1132 L513 1139 L514 1140 L514 1144 L513 1145 L488 1145 Z M546 1130 L549 1128 L553 1128 L554 1127 L568 1127 L569 1128 L570 1140 L571 1141 L563 1143 L547 1144 L546 1143 Z M460 1128 L462 1126 L479 1126 L483 1127 L486 1130 L485 1133 L485 1143 L484 1144 L478 1144 L477 1143 L469 1143 L468 1142 L459 1141 L458 1140 L458 1136 Z M760 1104 L761 1103 L762 1104 L761 1105 Z M436 1135 L433 1136 L413 1128 L398 1119 L391 1113 L398 1110 L418 1105 L435 1103 L436 1106 L435 1107 L434 1120 L435 1121 Z M595 1135 L599 1123 L601 1108 L602 1107 L602 1099 L603 1098 L636 1102 L646 1105 L650 1105 L654 1107 L652 1110 L627 1125 L597 1136 Z M596 1097 L600 1099 L599 1100 L599 1108 L598 1109 L598 1114 L595 1126 L589 1142 L580 1152 L578 1152 L576 1150 L576 1143 L575 1142 L575 1132 L576 1131 L576 1123 L578 1115 L576 1097 L577 1096 Z M460 1123 L465 1103 L467 1099 L493 1098 L494 1097 L517 1097 L518 1096 L573 1096 L574 1097 L575 1115 L574 1116 L574 1125 L572 1128 L571 1126 L567 1124 L555 1124 L546 1127 L544 1130 L540 1127 L536 1127 L535 1126 L522 1127 L516 1131 L513 1128 L508 1126 L496 1126 L489 1130 L484 1125 L481 1124 L477 1124 L476 1123 L461 1124 Z M456 1096 L460 1099 L463 1099 L464 1101 L462 1105 L462 1108 L460 1112 L460 1115 L458 1119 L453 1139 L448 1150 L445 1151 L441 1145 L438 1132 L438 1122 L437 1121 L438 1104 L440 1101 L446 1100 L452 1096 Z M387 1113 L392 1118 L407 1128 L422 1135 L436 1139 L439 1148 L442 1152 L446 1154 L450 1152 L452 1149 L453 1144 L456 1143 L457 1144 L469 1145 L470 1146 L493 1147 L494 1148 L532 1148 L533 1147 L548 1147 L549 1146 L559 1146 L560 1145 L572 1144 L573 1145 L574 1153 L576 1155 L581 1155 L586 1151 L593 1139 L607 1136 L627 1128 L645 1118 L658 1109 L660 1106 L639 1100 L634 1100 L621 1097 L614 1097 L613 1096 L595 1095 L594 1094 L506 1094 L505 1095 L485 1095 L484 1096 L464 1097 L457 1093 L451 1092 L445 1094 L437 1100 L420 1102 L415 1104 L403 1106 L388 1111 Z M676 1084 L677 1083 L678 1084 L677 1085 Z M674 1083 L675 1082 L676 1083 L675 1084 Z M686 1098 L685 1108 L681 1114 L671 1124 L655 1135 L632 1146 L617 1151 L597 1156 L587 1157 L586 1158 L562 1160 L561 1161 L525 1162 L524 1163 L498 1163 L497 1162 L461 1161 L460 1160 L438 1158 L421 1154 L414 1151 L411 1151 L391 1142 L381 1135 L371 1125 L367 1118 L365 1111 L367 1101 L371 1094 L377 1088 L386 1082 L396 1077 L408 1073 L412 1073 L418 1071 L429 1071 L430 1070 L453 1072 L454 1073 L465 1074 L482 1078 L496 1079 L497 1080 L524 1080 L525 1079 L532 1079 L533 1078 L542 1077 L563 1071 L568 1071 L575 1069 L584 1069 L585 1068 L615 1069 L616 1070 L629 1071 L646 1075 L666 1082 L681 1090 Z M608 994 L623 1019 L633 1033 L654 1059 L674 1080 L675 1082 L674 1083 L652 1074 L636 1071 L631 1069 L612 1067 L611 1066 L580 1066 L579 1067 L572 1067 L552 1072 L548 1072 L535 1076 L523 1077 L522 1078 L498 1078 L497 1077 L482 1076 L481 1075 L477 1075 L461 1071 L456 1071 L455 1070 L449 1070 L448 1069 L424 1068 L423 1069 L416 1069 L399 1073 L381 1082 L369 1092 L364 1100 L363 1108 L362 1109 L363 1115 L369 1127 L383 1140 L401 1150 L425 1158 L445 1161 L446 1162 L452 1162 L453 1163 L476 1164 L477 1165 L544 1165 L545 1164 L558 1164 L559 1163 L577 1162 L578 1161 L584 1161 L585 1160 L600 1158 L616 1154 L641 1145 L660 1135 L675 1124 L683 1116 L688 1108 L689 1099 L690 1098 L697 1108 L702 1121 L702 1125 L703 1126 L702 1152 L701 1153 L698 1170 L686 1204 L669 1239 L662 1251 L641 1266 L639 1265 L642 1258 L643 1249 L644 1248 L643 1233 L639 1221 L633 1211 L625 1202 L607 1190 L594 1185 L581 1183 L580 1182 L572 1182 L571 1181 L559 1181 L558 1180 L492 1180 L491 1181 L463 1182 L462 1183 L456 1183 L455 1184 L447 1185 L433 1190 L417 1200 L407 1211 L400 1224 L397 1236 L397 1247 L398 1248 L397 1252 L381 1236 L371 1224 L371 1222 L364 1208 L358 1190 L356 1187 L348 1161 L348 1157 L344 1142 L344 1136 L343 1135 L343 1121 L344 1120 L345 1111 L349 1101 L394 1035 L405 1016 L412 1001 L414 999 L419 1003 L429 1008 L441 1011 L448 1011 L449 1012 L472 1010 L506 1001 L525 1001 L526 1002 L530 1002 L546 1006 L551 1006 L552 1007 L572 1008 L573 1007 L582 1007 L598 1002 Z M404 982 L408 992 L412 996 L402 1016 L388 1040 L348 1097 L344 1105 L341 1115 L340 1136 L341 1137 L343 1152 L355 1191 L357 1194 L359 1202 L363 1209 L362 1212 L343 1185 L327 1154 L321 1134 L321 1113 L325 1098 L331 1086 L371 1033 L384 1014 L401 985 Z M424 988 L430 984 L442 981 L462 982 L485 988 L479 991 L471 993 L466 993 L465 994 L435 993 Z M421 988 L421 990 L428 993 L441 996 L452 996 L453 997 L472 996 L480 993 L483 993 L492 989 L492 987 L467 980 L452 979 L451 978 L438 979 L430 981 L424 984 Z M618 976 L629 994 L646 1016 L670 1043 L700 1073 L711 1086 L720 1100 L725 1115 L725 1120 L726 1121 L726 1142 L725 1143 L725 1149 L724 1150 L722 1164 L716 1184 L700 1216 L670 1245 L668 1244 L676 1231 L676 1229 L686 1210 L700 1172 L705 1151 L705 1144 L706 1143 L705 1122 L702 1112 L696 1101 L645 1044 L627 1020 L613 998 L610 991 L613 988 Z M253 963 L254 962 L255 963 L254 964 Z M616 969 L616 975 L613 980 L610 975 L603 972 L581 972 L580 973 L573 973 L572 974 L558 976 L532 986 L533 988 L542 989 L546 991 L559 992 L560 993 L570 993 L571 992 L577 992 L591 988 L593 986 L589 986 L573 990 L559 990 L558 989 L552 989 L541 986 L555 980 L567 977 L578 976 L579 975 L597 974 L598 975 L603 975 L610 979 L610 987 L602 996 L591 1002 L583 1004 L577 1004 L576 1005 L551 1004 L550 1003 L536 1001 L531 999 L525 999 L524 998 L507 998 L467 1008 L458 1008 L457 1009 L440 1008 L427 1004 L417 998 L412 992 L414 985 L410 988 L407 982 L407 977 L413 971 L423 966 L431 964 L450 966 L462 970 L473 972 L480 975 L497 979 L504 979 L505 980 L524 979 L570 964 L583 962 L584 961 L604 962 L613 966 Z M254 953 L255 952 L256 954 L255 955 Z M253 952 L254 951 L255 952 L254 953 Z M252 950 L253 949 L254 950 L253 951 Z M251 947 L252 946 L253 947 L252 948 Z M836 933 L837 934 L837 940 L835 946 L834 957 L832 962 L832 971 L815 1015 L793 1057 L771 1091 L762 1103 L761 1102 L762 1098 L769 1083 L771 1075 L774 1070 L775 1065 L779 1057 L780 1052 L784 1045 L785 1040 Z M450 914 L451 913 L452 914 L451 915 Z M564 911 L565 910 L566 911 L565 912 Z M563 910 L564 909 L565 910 L564 911 Z M451 903 L452 902 L453 903 L452 904 Z M617 959 L617 965 L616 966 L613 963 L607 960 L599 959 L598 958 L588 958 L587 959 L574 960 L532 974 L524 976 L519 976 L518 977 L496 976 L480 971 L473 970 L469 968 L466 968 L462 966 L458 966 L443 962 L428 962 L424 963 L414 969 L412 969 L407 974 L406 973 L406 966 L407 965 L408 956 L412 945 L416 938 L429 922 L451 903 L452 905 L449 910 L445 923 L443 926 L442 939 L447 948 L457 955 L469 959 L482 962 L487 962 L488 963 L516 964 L517 963 L525 963 L526 962 L537 961 L562 953 L567 950 L575 942 L577 937 L577 927 L576 924 L565 912 L566 911 L566 905 L564 899 L565 896 L588 912 L605 929 L614 945 L614 948 L616 952 L616 958 Z M563 896 L564 895 L565 896 L564 897 Z M846 895 L847 894 L848 896 L847 897 Z M847 893 L848 892 L849 893 L848 894 Z M226 868 L227 867 L228 869 L227 870 Z M898 828 L899 827 L900 828 L899 829 Z M901 811 L902 810 L903 811 L902 812 Z M298 766 L299 765 L300 766 L299 767 Z M302 751 L303 752 L303 765 L302 766 L301 765 L301 752 Z M729 749 L730 748 L731 749 L730 750 Z M303 746 L304 747 L304 751 L303 752 L302 751 L302 747 Z M304 743 L305 744 L304 747 L303 746 Z M304 741 L305 740 L306 742 L305 743 Z M373 737 L381 740 L385 744 L388 752 L387 762 L384 767 L381 770 L375 773 L371 773 L366 771 L360 765 L358 760 L358 751 L361 744 L365 740 Z M307 735 L308 738 L306 741 L305 738 Z M371 735 L362 739 L357 745 L355 751 L355 760 L357 766 L362 772 L368 775 L377 775 L383 772 L387 768 L390 761 L391 753 L389 745 L385 740 L379 736 Z M307 734 L308 733 L309 735 L308 736 Z M726 730 L727 731 L726 734 L725 733 Z M644 730 L647 730 L654 733 L659 739 L661 745 L661 751 L659 757 L653 763 L649 765 L642 765 L637 762 L634 759 L631 752 L631 744 L635 735 Z M310 730 L311 732 L309 734 L308 732 Z M639 729 L632 735 L628 743 L628 753 L632 761 L639 766 L642 767 L654 766 L660 761 L663 756 L664 752 L663 741 L660 735 L656 731 L649 728 Z M312 727 L313 729 L311 731 L310 729 Z M216 727 L233 758 L241 770 L257 790 L273 805 L290 817 L319 831 L322 831 L334 835 L340 835 L341 836 L364 836 L365 835 L370 835 L383 832 L402 825 L442 806 L445 806 L449 809 L448 820 L436 836 L430 842 L428 846 L396 883 L346 944 L334 955 L321 963 L314 965 L302 965 L290 960 L279 950 L266 932 L254 912 L227 862 L223 850 L221 828 L220 827 L219 801 L218 800 L218 782 L217 781 L217 762 L216 761 L216 737 L215 736 L215 728 Z M725 726 L726 727 L725 730 L724 729 Z M723 725 L724 724 L725 726 L724 727 Z M722 723 L723 722 L724 724 L723 725 Z M721 721 L722 720 L723 722 L722 723 Z M720 719 L721 718 L722 720 L721 721 Z M718 716 L719 715 L721 718 L720 719 Z M305 765 L306 749 L312 734 L321 724 L329 719 L320 722 L313 728 L312 726 L320 719 L330 715 L333 715 L345 719 L350 719 L363 722 L404 736 L425 745 L431 746 L435 749 L417 765 L402 775 L384 783 L366 788 L349 789 L348 788 L335 787 L331 785 L325 784 L309 775 L307 773 Z M717 715 L718 714 L719 715 L718 716 Z M711 709 L713 708 L718 714 L717 715 Z M708 707 L710 706 L712 708 L710 709 Z M724 752 L720 759 L700 772 L680 778 L658 779 L657 778 L651 778 L638 775 L618 767 L602 758 L582 742 L613 732 L616 730 L637 723 L682 705 L696 705 L706 709 L718 721 L721 727 L724 738 Z M520 704 L522 709 L522 714 L527 731 L527 736 L529 743 L529 750 L530 751 L531 765 L533 773 L533 781 L534 782 L535 802 L536 803 L539 851 L540 852 L540 859 L541 860 L541 866 L542 867 L544 882 L550 898 L557 908 L573 924 L575 933 L572 941 L565 948 L557 952 L545 956 L528 959 L527 960 L521 960 L520 961 L495 961 L494 960 L487 960 L486 959 L472 957 L455 951 L448 945 L445 939 L445 929 L448 922 L467 904 L472 896 L478 880 L479 872 L481 867 L483 846 L484 845 L484 832 L485 831 L485 749 L486 748 L487 725 L489 719 L489 710 L491 707 L506 719 L507 782 L506 783 L506 821 L505 822 L504 879 L503 880 L503 918 L504 919 L505 938 L507 937 L506 877 L507 876 L509 783 L510 782 L509 781 L510 779 L510 740 L509 739 L508 718 Z M868 702 L869 701 L870 703 L869 704 Z M691 702 L694 700 L698 700 L707 704 L709 706 L706 707 L703 705 Z M868 694 L869 695 L869 699 L868 700 L867 699 L867 695 Z M840 688 L846 693 L851 701 L858 720 L862 737 L862 743 L864 751 L865 771 L864 772 L863 791 L862 792 L858 814 L849 842 L840 862 L838 869 L826 893 L826 895 L815 915 L800 936 L788 948 L778 955 L770 959 L758 962 L739 962 L738 961 L734 961 L718 955 L703 945 L666 912 L600 846 L575 818 L574 810 L576 806 L581 801 L586 799 L598 800 L632 816 L658 823 L682 823 L683 822 L688 822 L699 818 L702 818 L712 813 L714 813 L734 802 L758 784 L776 766 L795 743 L820 708 L828 695 L834 689 Z M244 686 L251 690 L271 697 L274 699 L280 700 L294 705 L297 705 L301 707 L305 707 L309 709 L316 710 L325 714 L315 720 L310 725 L304 734 L299 749 L299 755 L298 756 L299 765 L298 766 L281 750 L269 735 L249 702 L243 689 Z M242 686 L243 685 L244 686 L243 687 Z M842 686 L839 685 L834 686 L825 694 L813 713 L786 750 L774 764 L757 781 L738 796 L718 808 L689 819 L675 820 L674 821 L664 821 L663 820 L651 819 L640 815 L637 815 L622 808 L620 808 L601 798 L589 796 L588 797 L583 797 L579 799 L574 804 L571 811 L572 818 L579 828 L595 845 L663 913 L690 938 L705 950 L722 960 L740 965 L757 965 L772 961 L780 957 L790 950 L802 938 L817 917 L826 899 L828 897 L841 869 L845 857 L848 852 L853 836 L855 833 L856 827 L861 813 L863 801 L865 796 L866 783 L867 782 L867 753 L866 752 L865 738 L860 717 L854 701 L848 691 Z M239 683 L240 689 L253 715 L266 735 L276 748 L296 768 L300 771 L302 771 L301 770 L303 769 L304 773 L307 777 L316 783 L332 789 L341 790 L342 791 L364 791 L384 786 L405 776 L408 773 L418 768 L427 761 L440 748 L401 732 L366 720 L334 714 L331 712 L325 711 L318 708 L311 707 L307 705 L279 698 L245 685 L243 683 Z M206 672 L208 674 L208 688 L209 689 L209 696 L210 697 L208 699 L204 699 L194 703 L180 713 L171 724 L165 736 L162 753 L163 754 L164 767 L172 789 L171 791 L171 798 L170 799 L170 814 L174 828 L182 842 L203 864 L209 868 L209 866 L196 854 L185 841 L176 825 L173 813 L174 784 L170 776 L166 762 L166 744 L168 736 L175 723 L183 714 L194 706 L203 702 L209 701 L210 702 L211 714 L201 719 L190 729 L181 746 L181 750 L179 756 L179 766 L180 767 L181 775 L185 784 L185 793 L182 803 L182 820 L185 831 L190 841 L196 850 L207 860 L207 858 L199 850 L193 841 L188 831 L185 821 L184 809 L185 808 L185 801 L188 792 L188 784 L183 772 L182 755 L185 743 L191 732 L201 722 L210 717 L212 724 L215 803 L216 804 L217 829 L219 837 L220 852 L221 853 L222 863 L223 864 L223 868 L224 869 L228 890 L239 924 L248 945 L249 950 L254 960 L253 963 L232 943 L226 935 L212 912 L193 875 L176 852 L168 839 L158 817 L154 801 L152 797 L152 793 L149 782 L148 767 L147 766 L147 747 L148 746 L148 740 L151 727 L158 711 L165 701 L173 693 L188 683 L197 679 Z M206 672 L207 671 L208 672 L207 673 Z M798 663 L799 664 L796 670 L774 701 L755 724 L731 749 L730 748 L730 744 L731 743 L730 732 L726 720 L718 709 L709 702 L702 699 L704 697 L754 677 Z M798 663 L799 662 L800 663 L799 664 Z M211 662 L221 669 L233 675 L240 677 L247 681 L274 690 L277 690 L301 698 L330 705 L334 707 L366 715 L384 721 L391 722 L398 725 L405 726 L412 729 L419 730 L423 732 L451 739 L457 742 L462 747 L467 759 L468 769 L469 770 L469 779 L470 780 L471 819 L470 820 L470 833 L469 834 L468 852 L467 853 L464 875 L459 891 L428 919 L413 937 L407 949 L406 955 L404 959 L403 979 L397 987 L372 1027 L335 1075 L324 1093 L324 1095 L321 1100 L318 1112 L318 1129 L317 1130 L303 1095 L279 1017 L277 1014 L276 1009 L274 1006 L274 1003 L270 995 L269 990 L255 955 L256 954 L262 966 L278 989 L290 1001 L297 1006 L307 1011 L319 1014 L332 1013 L344 1008 L350 1004 L362 992 L389 953 L443 866 L461 832 L459 831 L448 852 L413 910 L383 956 L382 959 L359 991 L345 1004 L340 1007 L328 1011 L313 1010 L300 1005 L293 1000 L279 986 L266 967 L258 953 L237 908 L228 879 L227 871 L228 870 L231 874 L240 893 L245 900 L259 926 L277 952 L285 960 L296 966 L304 968 L317 967 L323 965 L335 958 L355 938 L376 911 L420 860 L448 825 L452 817 L452 809 L449 805 L445 803 L439 804 L397 824 L371 832 L366 832 L365 833 L340 833 L339 832 L334 832 L314 826 L297 818 L273 801 L254 782 L235 756 L229 746 L213 712 L213 695 L214 694 L215 682 L217 680 L219 681 L224 687 L249 738 L266 764 L284 784 L299 796 L310 803 L323 809 L337 813 L361 815 L362 814 L373 814 L374 813 L384 812 L405 806 L408 804 L416 802 L436 794 L449 793 L457 797 L463 807 L463 811 L464 812 L464 824 L463 825 L464 824 L465 825 L466 830 L467 830 L466 808 L461 797 L458 794 L448 790 L442 790 L441 791 L433 792 L408 802 L389 808 L385 808 L374 811 L365 811 L364 812 L341 811 L326 807 L312 801 L298 792 L284 780 L263 755 L244 723 L233 700 L233 698 L231 696 L231 694 L224 682 L219 678 L215 678 L212 682 L211 681 L211 671 L210 670 L210 663 Z M803 661 L799 660 L795 662 L791 662 L770 669 L767 669 L764 671 L756 673 L721 687 L706 694 L698 696 L690 700 L669 707 L627 724 L578 741 L578 742 L584 748 L605 763 L627 774 L642 779 L646 779 L652 781 L679 781 L692 778 L702 774 L714 767 L724 758 L724 754 L726 751 L727 754 L730 753 L744 740 L766 715 L790 684 L800 669 Z M911 645 L926 651 L938 663 L943 675 L944 695 L941 708 L935 720 L935 726 L938 737 L938 746 L937 747 L937 752 L934 765 L925 784 L920 792 L908 807 L903 811 L902 810 L902 804 L903 803 L904 786 L905 785 L905 774 L906 773 L905 646 L906 645 Z M209 642 L225 651 L248 659 L251 659 L268 665 L290 670 L301 674 L308 675 L319 679 L330 681 L334 683 L341 684 L359 690 L366 691 L370 693 L401 701 L447 716 L467 721 L482 726 L484 728 L483 748 L482 749 L482 828 L481 829 L480 853 L479 854 L479 860 L478 861 L476 876 L471 892 L466 901 L461 907 L453 914 L451 913 L463 888 L466 879 L469 859 L470 858 L471 845 L472 844 L472 829 L473 828 L473 815 L474 814 L472 771 L471 770 L469 755 L465 746 L459 740 L447 735 L433 732 L411 725 L404 724 L400 722 L393 721 L386 718 L383 718 L358 710 L347 708 L329 702 L322 701 L297 693 L290 692 L242 676 L217 663 L210 657 L211 656 L210 657 L209 656 L209 651 L208 650 L208 643 Z M846 641 L850 643 L855 648 L860 658 L866 679 L868 694 L867 695 L866 694 L866 691 L861 676 L853 661 L847 655 L842 653 L834 653 L829 655 L818 664 L784 715 L761 745 L734 772 L713 787 L694 796 L679 800 L656 801 L655 800 L647 800 L646 799 L637 798 L595 786 L579 786 L568 791 L563 796 L558 806 L554 842 L556 837 L557 828 L558 827 L561 831 L560 823 L559 822 L559 815 L560 814 L561 806 L565 798 L572 791 L576 789 L589 787 L602 790 L609 793 L616 794 L630 799 L634 799 L643 802 L657 803 L658 804 L678 803 L701 796 L713 790 L727 781 L744 767 L753 758 L780 725 L815 673 L824 662 L834 656 L842 656 L846 658 L851 663 L858 676 L867 705 L869 720 L870 721 L871 743 L872 744 L872 767 L873 768 L873 802 L872 803 L872 809 L871 810 L868 830 L862 848 L862 851 L850 882 L833 916 L815 947 L812 950 L802 966 L787 985 L769 1003 L754 1013 L741 1018 L724 1019 L713 1016 L705 1012 L697 1006 L679 988 L661 966 L594 874 L570 838 L565 834 L566 838 L569 841 L580 859 L666 977 L676 989 L695 1008 L705 1015 L720 1021 L734 1022 L735 1021 L744 1020 L758 1014 L772 1004 L788 988 L807 964 L825 936 L846 896 L847 897 L831 938 L810 980 L810 982 L802 997 L802 999 L784 1037 L768 1077 L767 1082 L759 1100 L753 1119 L749 1127 L739 1155 L724 1184 L714 1198 L713 1196 L718 1186 L727 1155 L728 1143 L729 1142 L729 1121 L725 1104 L722 1097 L710 1080 L654 1021 L637 1000 L625 983 L619 972 L620 961 L619 960 L619 953 L617 945 L608 928 L590 910 L568 895 L561 888 L555 865 L551 832 L550 831 L548 794 L547 793 L547 760 L548 759 L548 755 L552 746 L559 739 L566 735 L568 735 L588 726 L596 724 L623 713 L634 710 L648 704 L659 701 L662 699 L709 683 L712 681 L747 670 L753 667 L756 667 L772 661 L775 661 L782 658 L785 658 L810 650 L824 647 L841 641 Z M907 631 L908 632 L920 633 L934 639 L948 652 L955 666 L958 685 L957 686 L957 696 L955 704 L948 720 L948 724 L947 725 L948 745 L947 746 L946 756 L942 768 L934 784 L926 795 L925 798 L913 814 L900 828 L899 827 L900 815 L906 812 L919 798 L927 786 L935 770 L939 758 L940 745 L941 744 L938 720 L944 708 L946 700 L946 695 L947 694 L946 676 L941 663 L931 651 L923 646 L913 643 L907 643 L906 642 L906 632 Z M915 629 L904 629 L904 634 L903 635 L903 649 L902 650 L903 727 L904 728 L903 774 L902 775 L902 786 L901 787 L901 797 L900 798 L899 813 L898 814 L895 834 L899 832 L912 819 L920 809 L934 789 L945 768 L950 752 L950 746 L951 745 L950 725 L958 704 L959 696 L960 695 L960 688 L961 687 L960 673 L958 665 L950 650 L944 643 L935 636 L926 632 Z M534 629 L520 649 L502 670 L489 657 L467 630 L469 629 L471 631 L482 636 L490 638 L509 638 L523 634 L532 628 Z M466 629 L467 628 L468 629 L467 630 Z M533 628 L534 627 L535 628 L534 629 Z M534 627 L535 626 L536 627 L535 628 Z M525 624 L524 623 L516 627 L518 628 Z M208 602 L209 601 L210 602 L209 603 Z M922 599 L936 603 L942 606 L954 618 L974 646 L980 659 L983 671 L984 687 L983 688 L982 706 L981 707 L981 712 L980 713 L980 718 L976 733 L976 737 L972 749 L972 752 L966 768 L949 799 L937 817 L907 856 L880 899 L864 920 L845 942 L836 960 L835 957 L836 956 L836 951 L839 939 L840 923 L844 914 L867 845 L867 842 L872 827 L872 823 L876 808 L877 797 L878 796 L879 780 L880 779 L880 768 L881 767 L881 745 L882 744 L881 679 L880 678 L880 630 L881 629 L882 616 L886 607 L892 601 L900 598 Z M209 639 L226 609 L243 587 L249 593 L267 606 L315 634 L410 681 L412 681 L455 702 L485 714 L486 715 L486 720 L484 724 L481 724 L474 721 L471 721 L458 716 L445 713 L435 709 L432 709 L422 705 L419 705 L382 693 L379 693 L354 685 L343 683 L332 679 L325 678 L321 676 L310 674 L271 662 L264 661 L230 650 L211 641 Z M499 582 L504 582 L510 584 L517 590 L520 596 L520 607 L518 612 L512 618 L505 621 L496 621 L490 618 L484 612 L482 607 L482 597 L486 589 L492 584 Z M499 579 L489 583 L484 587 L479 597 L479 607 L482 614 L489 621 L497 624 L505 624 L513 621 L520 614 L523 607 L523 596 L520 589 L514 583 L507 580 Z M459 569 L460 568 L461 569 L460 570 Z M540 566 L541 565 L542 566 L541 567 Z M844 611 L825 618 L822 618 L802 625 L799 625 L732 647 L729 649 L704 657 L701 659 L679 666 L676 668 L641 680 L630 685 L622 687 L604 695 L576 705 L571 708 L566 709 L545 718 L535 721 L530 724 L527 723 L525 715 L526 712 L528 712 L629 662 L631 662 L633 660 L643 656 L645 654 L647 654 L649 652 L684 635 L686 633 L717 617 L761 590 L787 571 L801 559 L820 578 L837 600 Z M507 552 L519 555 L527 559 L534 564 L544 574 L546 582 L546 602 L543 613 L541 617 L533 625 L527 629 L515 634 L497 636 L496 635 L488 635 L481 632 L475 631 L462 621 L458 612 L456 604 L456 582 L457 578 L460 573 L468 565 L476 559 L492 553 Z M244 585 L272 557 L295 539 L317 525 L324 539 L328 544 L337 560 L360 592 L377 612 L407 642 L432 664 L461 687 L488 706 L488 710 L486 712 L461 701 L459 701 L448 695 L446 695 L426 685 L424 685 L405 675 L403 675 L380 663 L378 663 L328 638 L326 636 L311 629 L273 607 L249 590 Z M800 557 L768 582 L734 604 L701 623 L671 638 L669 640 L619 664 L613 668 L611 668 L580 684 L578 684 L547 700 L545 700 L525 711 L523 708 L523 702 L530 698 L576 661 L632 605 L674 554 L713 501 L718 502 L729 508 L731 508 L761 525 L783 541 Z M501 484 L517 512 L533 544 L541 565 L540 566 L529 557 L511 550 L494 550 L476 556 L464 565 L461 569 L460 566 L465 553 L469 546 L469 544 L487 510 L493 501 Z M500 479 L498 486 L496 488 L472 534 L470 536 L470 538 L463 551 L457 566 L453 582 L453 602 L457 617 L466 634 L481 652 L501 673 L503 673 L523 649 L542 621 L548 605 L549 585 L548 584 L547 576 L544 569 L544 566 L534 540 L518 508 L502 481 L502 479 Z M333 515 L360 502 L385 492 L412 483 L457 472 L462 472 L463 471 L468 471 L481 468 L486 468 L487 469 L472 489 L468 497 L459 510 L441 544 L433 566 L432 574 L431 575 L431 583 L430 584 L431 602 L437 623 L445 639 L451 647 L452 650 L462 663 L480 682 L480 686 L479 687 L475 685 L442 657 L407 623 L389 603 L371 580 L356 558 L332 517 Z M513 465 L542 508 L558 541 L565 561 L566 569 L567 570 L567 575 L568 576 L568 600 L567 601 L566 610 L561 624 L549 646 L536 664 L508 696 L505 701 L489 687 L465 662 L446 635 L440 622 L435 606 L435 601 L434 600 L434 576 L440 554 L447 540 L447 538 L466 504 L483 479 L484 476 L491 467 L511 466 Z M711 500 L683 537 L681 541 L653 576 L621 613 L585 649 L553 676 L521 700 L513 708 L507 716 L458 681 L439 666 L409 640 L377 608 L346 569 L326 538 L319 525 L321 522 L328 518 L331 519 L333 525 L337 530 L347 549 L375 590 L402 622 L428 648 L469 684 L477 688 L479 688 L483 684 L501 701 L506 703 L513 695 L515 691 L523 684 L524 681 L527 678 L528 679 L556 640 L563 627 L568 614 L571 601 L571 592 L572 591 L571 575 L570 574 L568 560 L556 529 L544 506 L537 496 L533 488 L518 467 L516 466 L517 465 L531 465 L532 464 L558 464 L559 465 L574 465 L575 466 L585 466 L586 467 L608 469 L609 470 L628 473 L652 479 L669 485 L672 485 L700 495 L704 498 L674 533 L633 584 L600 621 L557 662 L531 683 L529 683 L528 685 L534 684 L551 671 L578 647 L606 619 L641 579 L704 502 L708 498 Z M207 613 L209 611 L209 609 L215 597 L231 575 L259 546 L288 523 L325 500 L358 484 L378 476 L383 475 L386 473 L417 463 L445 456 L465 453 L466 452 L484 450 L485 449 L493 449 L494 448 L516 447 L517 446 L572 446 L573 447 L585 447 L586 448 L594 448 L595 449 L615 451 L616 452 L635 455 L659 461 L710 478 L729 487 L731 487 L774 510 L814 538 L846 565 L862 575 L900 595 L891 598 L887 601 L881 610 L878 621 L878 627 L877 628 L877 666 L876 667 L875 666 L875 659 L873 653 L871 638 L866 623 L858 614 L853 613 L857 615 L865 625 L869 637 L871 652 L873 658 L874 671 L875 672 L875 681 L877 682 L878 685 L879 744 L878 745 L878 769 L877 770 L877 781 L876 782 L875 781 L875 774 L874 773 L872 701 L871 700 L871 694 L870 693 L868 677 L865 665 L859 649 L852 641 L845 638 L838 639 L792 653 L785 654 L775 658 L772 658 L759 663 L747 666 L744 668 L732 671 L729 673 L706 680 L695 685 L692 685 L676 692 L659 697 L651 701 L643 703 L616 714 L608 716 L605 718 L576 728 L557 737 L549 745 L546 751 L545 762 L544 763 L544 780 L545 781 L546 817 L547 818 L547 829 L548 830 L548 837 L550 845 L550 852 L551 853 L551 858 L552 859 L555 879 L557 883 L557 886 L561 892 L563 898 L563 906 L564 907 L563 910 L552 896 L547 883 L546 875 L545 874 L543 854 L542 853 L542 844 L541 843 L541 830 L540 829 L539 807 L538 806 L538 796 L537 795 L537 783 L536 782 L536 775 L535 774 L535 767 L534 766 L531 738 L528 727 L588 703 L593 702 L598 699 L624 690 L632 686 L659 677 L689 665 L692 665 L714 656 L740 648 L743 646 L776 635 L779 635 L792 630 L795 630 L802 627 L815 624 L848 613 L849 611 L846 609 L840 599 L822 576 L786 540 L755 518 L722 501 L692 489 L689 489 L686 487 L668 481 L665 481 L655 477 L652 477 L648 475 L632 471 L628 471 L623 469 L608 467 L607 466 L600 466 L599 465 L584 464 L583 463 L573 463 L572 462 L514 462 L513 463 L500 463 L499 464 L483 465 L482 466 L469 467 L468 468 L463 468 L462 469 L443 472 L412 480 L367 496 L335 511 L333 513 L317 521 L293 537 L267 558 L246 579 L232 596 L219 615 L209 634 L208 638 L207 637 Z M748 355 L729 368 L713 376 L691 384 L695 384 L704 381 L728 370 L738 364 L746 358 Z M302 339 L307 345 L320 353 L319 351 L309 345 Z M390 311 L391 310 L392 311 L391 312 Z M391 310 L392 309 L393 310 L392 311 Z M821 245 L819 246 L814 262 L802 286 L802 288 L789 312 L782 322 L757 347 L763 343 L783 323 L791 312 L812 271 L818 256 Z M257 224 L264 237 L268 251 L268 256 L269 257 L271 277 L275 292 L288 319 L296 332 L301 337 L285 310 L278 295 L273 279 L270 253 L267 241 L263 231 L259 225 Z M218 223 L224 217 L232 214 L248 215 L263 222 L287 240 L307 260 L335 294 L350 309 L362 316 L369 318 L381 317 L387 314 L390 311 L391 313 L388 317 L373 332 L357 342 L343 349 L341 349 L337 351 L337 352 L339 352 L365 339 L379 329 L388 319 L396 308 L397 303 L401 298 L405 290 L405 288 L410 279 L419 256 L435 221 L439 209 L442 204 L454 174 L467 137 L475 105 L483 85 L498 62 L509 51 L521 44 L528 42 L542 42 L552 45 L561 50 L574 62 L599 94 L609 109 L633 157 L653 190 L691 268 L702 284 L708 290 L719 296 L742 302 L750 301 L757 298 L774 281 L792 256 L793 253 L813 223 L826 208 L833 203 L843 200 L850 200 L859 203 L868 212 L875 226 L881 243 L884 261 L885 262 L887 283 L889 291 L889 298 L891 306 L892 322 L893 323 L894 352 L895 353 L894 394 L893 395 L893 407 L892 408 L892 419 L891 420 L892 460 L893 461 L895 478 L901 501 L904 531 L905 532 L905 537 L906 538 L909 557 L920 588 L925 596 L922 597 L916 595 L905 595 L892 587 L871 577 L848 563 L812 533 L776 508 L759 498 L729 483 L727 483 L710 475 L659 458 L639 453 L615 449 L614 448 L594 446 L593 445 L585 445 L584 444 L571 444 L570 443 L519 443 L518 444 L505 444 L504 445 L496 445 L495 446 L473 448 L472 449 L461 450 L460 451 L446 453 L441 455 L437 455 L417 460 L365 478 L321 499 L286 521 L255 546 L237 564 L226 577 L210 601 L209 600 L209 587 L210 586 L211 525 L212 524 L212 466 L211 465 L211 409 L210 408 L210 362 L209 361 L209 324 L208 323 L208 265 L209 264 L209 255 L210 254 L211 243 L215 229 Z M539 39 L525 40 L508 48 L496 60 L485 76 L475 97 L467 128 L464 135 L464 138 L462 141 L462 144 L458 156 L456 159 L455 164 L453 167 L452 172 L440 202 L437 207 L437 209 L434 214 L422 244 L418 251 L409 274 L405 281 L405 283 L395 302 L385 312 L378 315 L369 315 L362 313 L351 306 L333 287 L310 259 L289 238 L263 219 L247 212 L234 211 L223 215 L215 223 L210 235 L207 253 L206 254 L206 262 L205 263 L205 306 L206 307 L206 340 L207 341 L207 405 L208 406 L207 409 L208 410 L208 464 L209 465 L208 563 L207 564 L206 603 L205 604 L205 614 L204 615 L204 641 L205 642 L205 653 L206 654 L207 667 L198 675 L184 682 L172 690 L160 703 L152 717 L148 728 L145 741 L145 751 L144 752 L146 781 L148 786 L152 807 L159 827 L170 848 L184 867 L196 886 L213 920 L224 937 L231 946 L247 962 L258 971 L269 998 L274 1014 L276 1017 L285 1045 L285 1048 L289 1058 L289 1061 L307 1114 L312 1124 L323 1153 L337 1181 L345 1194 L360 1215 L380 1239 L397 1256 L416 1271 L441 1286 L466 1297 L483 1302 L500 1304 L501 1305 L510 1305 L511 1306 L534 1306 L535 1305 L544 1305 L545 1304 L562 1302 L578 1297 L581 1297 L611 1286 L637 1272 L659 1257 L688 1233 L709 1210 L723 1191 L732 1176 L746 1146 L753 1124 L758 1113 L792 1064 L806 1040 L822 1006 L830 983 L834 975 L835 970 L846 946 L880 904 L912 854 L944 812 L963 781 L970 766 L977 745 L981 724 L982 723 L982 719 L983 718 L983 713 L986 700 L986 691 L987 690 L987 678 L986 677 L985 666 L978 647 L969 633 L952 611 L941 602 L939 602 L934 599 L931 599 L928 597 L920 581 L911 553 L909 538 L908 537 L908 531 L907 530 L907 524 L906 523 L905 508 L904 507 L901 487 L896 468 L895 450 L894 449 L894 421 L895 420 L895 406 L896 405 L896 394 L897 393 L897 375 L898 374 L898 353 L897 352 L897 335 L896 334 L895 315 L894 314 L890 276 L889 275 L889 269 L888 268 L885 247 L879 228 L870 210 L862 202 L853 198 L839 198 L828 203 L813 218 L781 267 L760 292 L753 297 L747 299 L742 299 L722 294 L715 291 L709 287 L702 280 L691 263 L659 196 L640 164 L614 112 L604 96 L577 61 L567 51 L556 44 Z" fill="#eef3f4" fill-rule="evenodd"/>
</svg>
