<svg xmlns="http://www.w3.org/2000/svg" width="1086" height="1448" viewBox="0 0 1086 1448">
  <title>0397</title>
  <path d="M572 861 L572 862 L577 862 L576 860 Z M529 858 L529 860 L535 860 L532 856 Z M504 853 L506 852 L508 854 L506 855 Z M553 851 L551 854 L555 855 L556 853 Z M472 851 L473 853 L475 853 L475 851 Z M507 850 L503 851 L502 853 L506 857 L510 854 Z M654 848 L655 847 L657 848 L656 849 Z M622 847 L619 848 L620 851 L622 849 Z M592 845 L591 848 L592 850 L594 850 L595 849 L595 845 Z M565 847 L569 847 L570 848 L573 846 L572 845 L570 846 L567 844 Z M648 842 L645 842 L644 845 L646 845 Z M577 842 L577 844 L580 843 L580 842 Z M607 840 L605 843 L608 845 L609 841 Z M528 837 L526 839 L528 842 L530 842 L531 838 Z M513 837 L513 839 L515 839 Z M478 838 L479 841 L481 842 L484 841 L484 839 L480 837 Z M548 834 L551 837 L553 836 L552 834 L549 833 Z M423 833 L424 832 L425 833 L424 834 Z M588 833 L587 832 L585 835 L587 835 Z M444 832 L443 833 L443 837 L444 838 L448 838 L448 835 Z M460 832 L461 834 L465 835 L465 833 L463 831 Z M627 830 L625 833 L628 835 L630 833 Z M570 829 L568 830 L569 832 L571 831 Z M490 829 L491 833 L493 834 L495 833 L495 831 L493 829 Z M651 827 L649 827 L647 829 L647 831 L649 831 L651 829 Z M673 826 L670 828 L670 830 L672 830 Z M427 826 L427 827 L430 827 L430 825 Z M613 824 L609 825 L608 827 L611 828 L613 826 Z M528 824 L525 822 L522 825 L523 827 L526 827 Z M663 822 L662 821 L658 824 L658 826 L660 824 L662 824 Z M558 819 L555 821 L556 824 L560 823 L560 821 Z M595 819 L596 821 L599 821 L598 818 Z M580 817 L580 819 L583 818 Z M502 817 L503 821 L507 820 L505 817 Z M459 815 L459 816 L461 816 L461 815 Z M656 813 L654 814 L654 817 L656 816 Z M539 813 L540 812 L541 813 L540 814 Z M634 812 L632 812 L631 816 L633 816 L635 814 Z M482 812 L482 814 L485 815 L485 813 Z M469 812 L468 814 L470 816 L472 816 L472 814 Z M438 812 L437 816 L441 817 L441 814 Z M615 810 L613 811 L614 814 Z M540 810 L538 811 L538 814 L541 816 L544 813 Z M452 810 L452 812 L453 812 L453 810 Z M681 809 L679 809 L677 811 L677 813 Z M426 808 L426 812 L428 812 L429 809 Z M567 806 L566 807 L567 811 L570 811 L571 807 Z M511 802 L510 805 L513 806 L514 803 Z M669 802 L667 801 L665 803 L665 805 L668 805 Z M606 800 L604 800 L602 803 L604 804 Z M581 800 L580 804 L583 806 L585 804 L585 802 L583 800 Z M545 799 L543 802 L545 804 L547 804 L548 801 Z M645 798 L642 799 L643 802 L645 800 Z M485 798 L485 801 L486 802 L488 801 L488 799 Z M476 798 L475 801 L478 802 L479 799 Z M624 797 L625 799 L629 798 L628 795 L626 795 Z M456 795 L455 798 L459 799 L460 796 Z M684 793 L681 795 L682 798 Z M523 793 L522 796 L526 798 L527 794 Z M594 792 L592 795 L596 796 L597 793 Z M560 792 L560 794 L564 794 L564 792 Z M425 793 L423 792 L422 795 L424 795 Z M494 791 L494 793 L496 794 L497 792 Z M440 787 L441 786 L442 788 L441 789 Z M662 784 L660 784 L659 787 L661 787 Z M464 784 L461 785 L461 788 L463 789 L465 788 Z M441 784 L439 785 L438 788 L439 790 L442 791 L444 789 L444 787 Z M675 782 L672 784 L673 787 L676 786 Z M619 781 L616 782 L616 785 L618 784 Z M481 781 L480 783 L484 786 L484 784 Z M585 781 L583 780 L581 781 L581 783 L585 783 Z M558 780 L558 782 L561 783 L561 781 Z M647 779 L644 780 L643 782 L645 785 L648 782 Z M507 779 L506 782 L510 783 L511 780 Z M428 778 L427 781 L429 783 L431 780 Z M605 776 L603 776 L601 778 L598 777 L594 779 L595 780 L600 778 L603 779 L605 778 Z M543 777 L544 780 L546 781 L548 780 L547 776 Z M634 775 L631 777 L631 780 L634 780 L636 778 Z M685 771 L682 773 L683 775 L686 774 Z M524 771 L522 771 L522 774 L524 773 Z M488 770 L488 772 L492 775 L493 772 L491 770 Z M471 770 L468 771 L468 773 L470 775 L472 774 Z M675 769 L673 769 L672 771 L673 772 L675 771 Z M446 769 L445 772 L448 775 L450 774 L450 771 L448 769 Z M662 767 L662 770 L664 770 L665 768 Z M557 767 L555 769 L556 771 L558 770 Z M574 766 L572 769 L574 771 L576 771 L577 767 Z M430 764 L430 767 L432 768 L434 767 L433 764 Z M626 763 L624 763 L623 766 L625 766 Z M491 761 L491 764 L493 765 L496 764 L496 762 Z M646 760 L643 762 L643 765 L646 765 L648 763 Z M608 760 L605 760 L603 762 L603 764 L606 765 L608 763 Z M524 760 L527 763 L530 762 L530 760 L527 758 Z M462 758 L465 761 L465 759 Z M652 758 L652 759 L655 759 L655 757 Z M562 757 L562 758 L565 758 L565 757 Z M513 758 L512 757 L509 758 L510 760 L512 760 Z M676 755 L674 756 L675 759 L677 757 Z M624 755 L622 755 L621 757 L623 758 Z M586 753 L584 753 L581 756 L583 759 L587 756 Z M455 752 L454 754 L457 755 L457 753 Z M688 750 L685 751 L685 753 L687 755 L689 753 Z M553 750 L550 751 L551 755 L554 753 Z M468 748 L467 750 L470 752 L471 749 Z M439 748 L438 750 L440 752 L442 752 L442 749 Z M638 747 L636 748 L636 752 L638 752 L640 750 Z M485 746 L484 749 L486 749 Z M729 744 L730 743 L731 744 L730 745 Z M667 743 L664 745 L665 748 L668 746 Z M566 741 L567 740 L568 741 L567 742 Z M731 739 L732 740 L731 743 L730 742 Z M648 740 L648 743 L651 744 L650 740 Z M527 740 L526 742 L528 744 L530 744 L531 742 L530 740 Z M509 740 L507 740 L504 745 L505 746 L510 741 Z M608 739 L606 741 L606 743 L610 744 L612 741 L610 739 Z M565 739 L564 741 L565 743 L568 744 L569 740 Z M454 739 L454 741 L456 742 L456 739 Z M585 735 L584 739 L588 740 L590 737 Z M444 735 L444 737 L446 738 L447 735 Z M732 733 L733 734 L733 739 L732 740 L731 739 L731 734 Z M488 734 L487 735 L490 737 L491 735 Z M466 734 L466 736 L469 737 L469 735 Z M627 733 L628 737 L632 736 L629 732 Z M683 731 L682 734 L685 735 L686 732 Z M672 729 L669 730 L671 731 Z M477 729 L481 733 L481 731 Z M733 727 L734 728 L734 732 L733 733 L732 732 L732 728 Z M643 728 L643 730 L645 730 Z M562 728 L561 731 L564 732 L565 729 Z M549 728 L541 730 L539 733 L541 733 Z M663 727 L661 728 L660 730 L661 731 L664 731 Z M577 725 L579 728 L582 727 L579 724 Z M465 724 L464 727 L467 728 L468 725 Z M734 722 L735 723 L734 727 L733 726 Z M517 721 L516 725 L520 726 L521 723 L519 721 Z M604 720 L602 723 L606 724 L607 720 Z M625 718 L624 721 L627 722 L628 719 Z M493 718 L492 720 L496 722 L496 720 Z M533 717 L532 721 L536 722 L537 721 L536 718 Z M558 716 L556 716 L554 719 L557 719 Z M449 716 L449 718 L451 720 L454 718 L452 716 Z M659 715 L656 716 L657 719 L660 717 Z M582 714 L583 713 L584 714 L583 715 Z M679 713 L676 714 L676 716 L678 718 L680 717 Z M644 713 L642 714 L643 717 L645 715 Z M582 711 L581 712 L581 716 L584 716 L586 714 L584 711 Z M481 711 L480 714 L483 714 L484 711 Z M501 708 L500 710 L502 711 L503 709 Z M597 707 L595 707 L594 710 L596 710 Z M459 705 L459 708 L462 709 L463 706 Z M548 705 L546 704 L545 707 L547 707 Z M649 703 L647 706 L650 708 L651 704 Z M669 701 L666 702 L667 706 L670 704 Z M583 700 L581 702 L581 704 L585 705 L586 702 Z M492 700 L491 702 L493 704 L495 704 L496 702 L494 700 Z M624 699 L621 702 L623 705 L626 703 L626 700 Z M604 699 L605 698 L606 699 L605 700 Z M507 700 L507 702 L511 705 L512 702 L509 699 Z M559 698 L559 700 L561 702 L563 702 L561 698 Z M604 696 L602 699 L603 701 L607 701 L608 698 L606 696 Z M523 696 L522 699 L525 700 L525 697 Z M537 695 L538 694 L539 695 L538 696 Z M537 692 L535 695 L537 698 L539 698 L540 694 Z M568 688 L567 692 L570 692 L571 690 L570 688 Z M652 687 L650 690 L653 692 L655 689 Z M639 686 L637 686 L636 689 Z M622 684 L623 683 L624 684 L623 685 Z M487 684 L486 686 L488 688 L490 688 L490 685 Z M500 682 L499 685 L502 686 L503 682 Z M624 681 L621 683 L622 687 L624 687 L626 685 L626 683 Z M514 681 L515 686 L518 686 L519 685 L518 682 Z M538 680 L536 681 L536 683 L539 682 Z M599 680 L599 682 L601 683 L604 682 L603 679 Z M552 679 L551 681 L553 683 L555 680 Z M580 679 L580 682 L582 683 L585 682 L584 679 L582 678 Z M424 738 L433 719 L439 710 L447 701 L463 689 L475 683 L490 678 L502 675 L512 674 L513 673 L538 671 L539 670 L551 670 L552 669 L606 669 L607 670 L617 670 L618 671 L627 671 L628 672 L640 673 L658 678 L674 686 L686 697 L694 711 L697 721 L698 735 L699 736 L697 766 L696 767 L696 772 L692 787 L691 796 L689 801 L689 805 L687 811 L687 820 L684 827 L684 831 L658 848 L656 847 L656 845 L654 844 L652 845 L652 847 L655 849 L639 857 L616 864 L597 866 L596 867 L586 867 L585 868 L535 868 L534 867 L524 867 L523 866 L514 866 L513 865 L496 863 L468 855 L434 840 L428 835 L424 826 L420 813 L419 802 L418 801 L418 792 L417 791 L418 761 Z M752 668 L753 671 L751 675 L751 678 L749 681 L741 705 L741 708 L735 722 L734 718 L735 717 L735 711 L736 710 L737 702 L743 689 L745 681 Z M752 667 L753 666 L754 668 L753 669 Z M753 665 L754 664 L755 666 L754 667 Z M754 663 L755 662 L756 664 L755 665 Z M350 662 L363 679 L374 696 L378 704 L385 727 L386 739 L387 740 L387 744 L386 745 L387 748 L387 761 L384 766 L380 763 L377 756 L377 754 L381 747 L381 740 L377 729 L362 700 L360 692 L349 665 Z M755 661 L756 660 L757 661 L756 662 Z M348 661 L349 660 L350 662 L349 663 Z M347 660 L348 659 L349 660 L348 661 Z M319 659 L331 659 L332 660 L332 666 L333 667 L333 715 L334 716 L335 730 L340 745 L348 761 L362 782 L370 792 L391 813 L413 830 L431 841 L445 848 L447 848 L454 852 L464 855 L467 857 L480 861 L479 862 L400 862 L399 861 L294 861 L293 860 L270 860 L268 862 L270 863 L365 863 L366 864 L368 863 L370 864 L494 864 L505 867 L519 868 L520 869 L554 870 L555 871 L588 870 L589 869 L605 868 L612 866 L807 867 L806 865 L630 864 L629 863 L643 858 L663 848 L680 837 L694 826 L707 813 L723 793 L735 773 L735 771 L743 754 L752 725 L753 717 L755 713 L757 702 L759 698 L766 670 L770 662 L773 663 L776 684 L777 685 L779 700 L782 711 L782 716 L784 722 L784 727 L786 733 L786 738 L788 744 L789 755 L791 761 L791 766 L794 777 L794 782 L798 798 L803 831 L804 832 L805 842 L806 843 L807 853 L810 865 L809 869 L809 885 L808 886 L808 902 L807 903 L807 919 L806 920 L806 936 L805 937 L805 953 L804 954 L804 970 L803 971 L803 985 L802 986 L802 1001 L801 1002 L801 1017 L800 1018 L800 1032 L799 1033 L799 1047 L798 1048 L798 1062 L797 1063 L797 1077 L796 1078 L796 1094 L795 1095 L795 1109 L794 1110 L794 1125 L793 1126 L793 1141 L792 1142 L791 1171 L790 1172 L790 1186 L789 1187 L789 1203 L788 1204 L788 1218 L787 1219 L787 1234 L786 1235 L786 1250 L785 1251 L785 1260 L784 1261 L760 1261 L759 1260 L630 1260 L629 1259 L464 1259 L463 1258 L454 1258 L452 1259 L451 1258 L289 1258 L288 1257 L287 1258 L286 1257 L283 1185 L282 1184 L282 1165 L281 1164 L281 1145 L280 1144 L280 1125 L279 1124 L276 1051 L275 1050 L274 1011 L273 1010 L272 974 L271 973 L269 919 L268 918 L268 899 L267 898 L267 880 L266 879 L266 862 L265 861 L268 853 L271 838 L273 834 L273 830 L279 806 L281 802 L285 783 L287 779 L295 744 L301 725 L303 714 L305 710 L310 688 Z M556 650 L557 651 L556 654 L555 653 Z M557 639 L559 637 L563 637 L564 638 L579 638 L580 637 L581 638 L582 646 L587 653 L584 655 L580 655 L579 654 L558 654 L557 653 L562 648 L562 644 L561 644 L557 651 L556 650 Z M549 638 L549 650 L551 653 L550 654 L533 654 L528 652 L530 646 L530 640 L532 637 L544 637 L545 636 Z M618 635 L625 638 L624 639 L624 648 L622 651 L619 647 L619 640 L617 636 Z M526 635 L529 638 L528 647 L527 648 L525 646 L525 639 L524 638 Z M676 634 L677 633 L678 635 L677 636 Z M646 634 L647 643 L650 648 L649 649 L633 651 L632 652 L625 652 L624 651 L626 648 L626 638 L628 636 L637 635 L642 633 Z M588 633 L593 637 L593 646 L590 653 L587 651 L583 640 L583 637 Z M551 633 L554 633 L556 636 L554 644 L554 649 L553 650 L551 645 L551 640 L549 636 Z M523 634 L522 640 L525 651 L524 653 L507 652 L500 649 L504 634 L505 635 L521 634 L522 633 Z M500 633 L501 634 L501 639 L499 645 L498 644 L498 635 Z M649 632 L651 632 L653 635 L653 646 L652 647 L649 642 L649 638 L648 637 L648 633 Z M591 632 L592 631 L609 631 L613 633 L611 635 L616 638 L617 646 L619 650 L618 651 L597 651 L594 652 L593 651 L595 647 L595 638 L596 637 L603 637 L606 636 L607 634 L594 635 Z M558 634 L561 632 L569 632 L570 631 L580 631 L585 633 L582 635 L578 635 L577 636 L562 636 Z M525 632 L526 631 L545 631 L548 633 L543 635 L531 635 L529 636 Z M483 631 L496 632 L497 633 L496 634 L496 647 L497 648 L494 650 L484 650 L479 647 L481 639 L481 634 Z M334 632 L339 642 L340 647 L348 666 L348 669 L357 690 L357 693 L359 696 L360 701 L374 728 L379 741 L379 746 L375 753 L376 759 L379 765 L382 768 L385 768 L388 765 L389 761 L388 735 L387 734 L386 722 L379 701 L364 677 L345 652 L336 632 Z M699 630 L700 629 L701 630 L700 631 Z M616 632 L622 629 L637 629 L643 631 L627 635 L623 635 Z M479 630 L480 629 L481 630 L480 631 Z M500 629 L501 628 L504 629 L515 629 L520 631 L512 633 L506 631 L503 633 Z M480 629 L481 628 L483 629 L482 630 Z M771 628 L767 633 L760 647 L760 649 L741 685 L740 691 L733 709 L732 722 L728 739 L727 750 L725 753 L726 755 L729 752 L729 750 L733 744 L735 738 L737 722 L743 708 L746 696 L750 687 L757 664 L760 659 L763 645 L771 631 Z M653 632 L657 627 L662 629 L671 627 L676 641 L669 645 L656 648 L655 647 L655 635 Z M482 628 L486 626 L494 626 L498 629 L497 630 L489 630 Z M638 627 L643 625 L654 625 L655 626 L651 630 L645 630 Z M476 626 L479 625 L480 627 L479 628 Z M674 624 L677 627 L678 632 L676 634 L673 629 L673 625 Z M473 625 L474 624 L477 625 L476 626 Z M427 624 L428 623 L429 624 L428 625 Z M658 625 L662 622 L668 622 L672 624 L668 626 L659 626 Z M431 624 L432 623 L433 624 L445 624 L452 621 L459 621 L467 625 L472 626 L477 629 L477 635 L476 636 L476 645 L477 647 L475 649 L464 649 L453 646 L447 646 L446 645 L432 643 L429 641 L430 640 L430 633 L431 632 Z M694 620 L696 623 L696 626 L699 633 L695 637 L689 640 L680 641 L679 642 L678 641 L679 639 L679 627 L678 626 L689 623 Z M435 621 L436 620 L446 620 L447 621 L446 622 L436 622 Z M696 618 L699 619 L700 622 L699 626 L695 619 Z M374 618 L375 617 L376 618 L375 619 Z M693 618 L690 621 L683 623 L676 623 L675 622 L678 619 L685 616 L690 616 Z M428 619 L429 616 L433 616 L437 618 L430 622 Z M717 616 L718 615 L719 617 L718 618 Z M427 616 L428 615 L429 616 L428 617 Z M414 616 L421 615 L425 616 L427 619 L426 622 L426 639 L427 640 L426 641 L417 640 L410 637 L408 635 L411 619 Z M713 614 L715 616 L719 625 L710 631 L704 632 L700 618 L701 617 L707 617 Z M411 614 L412 615 L410 617 L408 623 L407 622 L407 618 Z M716 614 L717 613 L718 615 L717 616 Z M396 613 L400 615 L406 615 L407 616 L405 620 L405 631 L406 632 L405 635 L398 634 L390 629 L392 625 L393 618 Z M415 613 L416 612 L418 613 L417 614 Z M392 613 L393 612 L394 613 L393 614 Z M715 612 L716 611 L717 613 L716 614 Z M714 611 L715 610 L716 611 L715 612 Z M699 615 L701 612 L705 610 L711 610 L712 611 L705 616 L703 615 L700 616 Z M378 609 L379 608 L380 609 L379 610 Z M394 609 L396 606 L399 606 L412 611 L410 613 L401 613 L397 609 L396 610 Z M392 606 L393 609 L390 614 L390 624 L388 629 L382 626 L379 623 L378 617 L384 607 Z M379 607 L380 606 L381 607 L380 608 Z M728 604 L730 606 L733 614 L728 620 L723 622 L721 619 L720 613 L717 610 L725 607 Z M623 603 L626 602 L627 603 L633 603 L634 604 L640 604 L641 605 L663 608 L670 610 L676 613 L679 616 L672 621 L662 620 L655 624 L654 623 L641 623 L637 624 L633 627 L624 627 L623 626 L624 625 L623 622 Z M715 606 L720 601 L727 601 L728 602 L721 607 L716 607 Z M380 603 L383 601 L388 601 L390 603 L382 606 Z M738 598 L739 597 L740 598 L739 599 Z M373 596 L378 602 L374 618 L370 615 L367 610 L371 598 Z M730 595 L733 595 L741 605 L741 607 L736 612 L734 611 L731 603 L727 599 Z M375 596 L377 594 L379 594 L384 598 L379 601 Z M370 594 L371 593 L372 594 L371 595 Z M732 592 L736 591 L739 596 L738 597 Z M371 593 L376 589 L380 592 L373 594 Z M370 589 L371 588 L372 589 L371 590 Z M744 585 L747 588 L748 594 L743 602 L739 590 Z M735 588 L737 583 L741 583 L742 584 L737 589 Z M374 584 L375 583 L376 584 L375 585 Z M741 583 L742 582 L743 583 L742 584 Z M621 582 L621 626 L618 628 L614 628 L613 629 L590 629 L589 630 L565 629 L564 630 L553 631 L547 629 L534 629 L533 628 L520 629 L514 627 L505 627 L504 626 L499 626 L495 624 L487 624 L486 623 L486 619 L487 618 L487 585 L488 584 L493 584 L499 581 L501 581 L506 584 L520 584 L533 580 L534 581 L546 582 L553 580 L593 580 L594 579 L610 579 Z M748 578 L750 579 L750 584 L751 585 L749 589 L747 584 L745 583 L745 580 Z M549 578 L550 577 L553 578 L552 579 Z M470 578 L471 577 L472 578 L471 579 Z M666 577 L667 576 L668 577 L667 578 Z M639 577 L640 576 L643 577 L642 578 Z M629 578 L632 576 L635 578 L634 579 L630 579 Z M667 576 L669 574 L671 576 L670 577 Z M495 574 L498 579 L495 581 L490 582 L489 581 L492 579 Z M524 579 L527 573 L531 578 L527 580 Z M356 580 L358 576 L362 573 L366 577 L368 581 L373 585 L370 587 L362 589 L356 585 Z M738 573 L738 576 L733 586 L729 592 L726 594 L724 599 L719 599 L711 608 L705 607 L701 609 L695 615 L691 615 L690 614 L682 615 L674 609 L660 605 L642 603 L641 602 L636 602 L635 601 L628 601 L623 599 L624 598 L623 597 L623 582 L624 581 L634 581 L638 579 L641 580 L652 580 L653 581 L664 581 L673 578 L700 579 L703 577 L713 578 L718 575 L724 577 L731 574 L734 574 L737 572 Z M432 573 L433 572 L434 573 L433 574 Z M577 577 L581 574 L582 571 L586 576 L592 576 L593 577 L592 578 L578 578 Z M493 572 L494 571 L495 573 L494 574 Z M366 571 L369 570 L371 572 L371 574 L375 581 L374 584 L365 573 Z M330 570 L331 584 L342 608 L348 617 L363 632 L373 639 L396 650 L431 660 L446 662 L447 663 L453 663 L454 664 L460 664 L461 665 L489 666 L481 665 L480 664 L470 664 L469 663 L462 663 L461 662 L455 662 L448 660 L442 660 L441 659 L419 655 L394 647 L374 637 L363 629 L352 618 L346 610 L336 591 L332 579 L332 570 Z M558 568 L559 569 L559 574 L562 577 L561 578 L553 578 L552 577 L557 572 Z M783 568 L782 568 L776 589 L771 600 L759 617 L748 627 L727 640 L712 647 L674 659 L650 663 L648 665 L660 664 L665 662 L674 661 L708 651 L737 637 L746 631 L760 619 L771 604 L777 592 L782 577 Z M746 568 L750 567 L753 570 L754 573 L754 582 L753 583 L751 576 L748 576 L740 580 L739 579 L740 574 Z M470 567 L476 570 L476 574 L474 578 L470 572 L469 569 Z M609 566 L610 567 L609 572 L613 576 L612 577 L602 577 L601 576 L605 574 Z M752 566 L753 565 L754 566 L753 567 Z M746 565 L747 564 L748 565 L747 566 Z M609 565 L610 564 L611 565 L610 566 Z M734 570 L736 563 L740 563 L745 565 L736 571 Z M525 563 L527 567 L527 571 L528 572 L527 573 L525 573 L523 571 L523 565 Z M752 563 L753 562 L757 563 L756 564 Z M732 562 L734 564 L732 570 L727 574 L721 574 L720 572 L723 563 L724 562 Z M372 570 L374 568 L377 568 L381 566 L386 566 L390 564 L410 562 L417 577 L422 579 L428 579 L434 574 L439 580 L442 581 L449 580 L458 584 L467 584 L472 581 L475 581 L478 583 L484 584 L485 585 L484 586 L485 587 L485 591 L484 592 L484 602 L480 604 L464 604 L463 603 L448 604 L443 607 L440 611 L441 612 L445 608 L452 606 L484 606 L485 607 L484 608 L484 623 L481 624 L477 622 L467 622 L459 619 L452 619 L450 620 L439 615 L417 611 L401 604 L394 604 L382 593 L378 587 L377 580 Z M746 562 L747 561 L751 562 L750 563 Z M720 562 L721 561 L722 562 L721 563 Z M720 562 L721 563 L720 567 L715 575 L707 576 L705 574 L709 563 L711 561 L712 562 Z M706 562 L707 561 L708 562 L707 563 Z M465 561 L468 566 L468 572 L471 577 L470 578 L467 576 L465 571 L465 567 L464 566 L464 562 Z M470 580 L466 582 L459 582 L451 578 L451 573 L454 570 L456 570 L456 567 L454 567 L449 571 L449 576 L447 578 L441 579 L436 575 L436 572 L433 565 L435 563 L439 563 L440 562 L458 562 L462 561 L463 562 L462 563 L463 570 L465 575 Z M412 562 L413 561 L423 561 L430 563 L431 564 L431 574 L427 577 L419 576 Z M740 561 L741 560 L745 561 L744 562 Z M705 561 L707 564 L703 574 L699 577 L691 577 L690 576 L693 572 L696 561 L697 560 Z M490 561 L491 560 L492 561 L491 562 Z M674 559 L677 558 L687 558 L688 559 L693 559 L695 561 L688 573 L685 576 L675 576 L671 574 L672 572 L672 562 Z M525 559 L526 558 L527 559 L526 560 Z M585 573 L585 563 L584 562 L584 557 L585 556 L593 557 L594 558 L606 558 L607 557 L610 558 L605 568 L605 570 L602 574 L596 575 L595 574 L586 574 Z M559 557 L560 556 L561 557 L581 556 L582 559 L580 564 L579 573 L575 576 L563 576 L561 574 Z M557 557 L555 571 L553 574 L542 579 L535 578 L530 575 L529 567 L526 560 L527 559 L540 560 L556 556 Z M467 563 L468 562 L478 562 L479 561 L475 561 L469 559 L480 556 L491 556 L492 557 L497 557 L509 560 L518 557 L522 557 L523 558 L523 561 L521 565 L522 579 L516 582 L509 582 L501 579 L498 576 L494 565 L494 561 L497 560 L490 559 L487 561 L487 563 L490 561 L491 562 L491 577 L485 581 L478 581 L476 579 L478 575 L478 571 L486 567 L484 566 L476 568 L469 565 Z M581 556 L582 555 L583 556 L582 557 Z M642 555 L643 554 L645 555 L644 556 Z M611 572 L613 564 L613 559 L614 558 L617 560 L624 560 L625 561 L628 560 L628 559 L621 559 L615 557 L622 554 L629 554 L635 557 L635 562 L637 564 L643 565 L645 567 L640 574 L636 575 L632 572 L632 567 L633 566 L633 559 L630 560 L629 569 L626 574 L624 575 L616 575 Z M659 554 L660 556 L665 556 Z M529 556 L541 553 L550 553 L553 555 L543 558 L532 558 Z M346 549 L342 548 L338 549 L338 550 L341 552 Z M776 541 L776 543 L779 543 L778 541 Z M379 542 L381 545 L384 545 L385 543 L384 541 L380 541 Z M751 540 L750 542 L753 544 L755 541 Z M726 542 L724 540 L721 543 L716 541 L716 543 L721 545 L724 545 Z M431 540 L432 539 L433 540 L432 541 Z M364 540 L363 543 L365 545 L368 545 L368 542 L366 540 Z M332 537 L335 541 L337 541 L339 539 L339 538 L336 539 L334 537 Z M346 535 L344 535 L343 537 L345 538 Z M322 535 L320 538 L320 541 L323 545 L325 545 L322 540 L323 539 L323 535 Z M766 534 L764 536 L765 538 L767 538 L768 536 Z M794 533 L792 533 L792 536 L794 535 Z M776 530 L776 532 L779 533 L778 530 Z M393 531 L396 534 L398 533 L397 530 Z M736 530 L734 529 L732 531 L732 533 L736 533 Z M383 528 L382 530 L384 532 L386 532 L387 530 Z M346 531 L348 531 L350 529 L353 530 L354 528 L351 529 L348 528 Z M714 527 L712 529 L713 531 L716 531 L717 528 Z M640 527 L643 526 L670 535 L673 537 L682 539 L715 553 L738 560 L737 561 L709 560 L708 562 L707 560 L704 559 L679 556 L671 559 L667 570 L667 573 L663 578 L660 578 L656 575 L650 578 L645 577 L643 574 L649 565 L650 566 L665 566 L665 565 L663 564 L648 564 L647 563 L643 564 L637 561 L640 558 L654 555 L654 554 L650 554 L649 555 L645 555 L644 554 L647 548 L647 539 L644 531 Z M359 527 L359 529 L363 529 L364 527 Z M639 526 L640 525 L641 526 L640 527 Z M413 526 L412 529 L416 530 L417 528 Z M372 524 L370 524 L368 526 L370 527 Z M757 523 L755 524 L755 527 L758 526 Z M692 522 L691 525 L695 526 L696 523 Z M403 521 L401 521 L401 523 Z M667 519 L666 522 L670 523 L671 520 Z M328 519 L325 519 L321 522 L320 526 L322 529 L324 529 L326 527 L332 526 L332 524 L325 526 L323 525 L323 523 L325 521 L327 521 Z M784 518 L783 521 L786 522 L786 518 Z M768 518 L766 520 L767 523 L769 523 L770 521 Z M346 518 L343 518 L342 522 L344 522 L344 520 Z M390 516 L391 515 L392 516 L391 517 Z M792 515 L798 522 L797 523 L796 522 L791 523 L791 526 L795 523 L797 525 L800 525 L799 519 L796 516 Z M741 515 L743 518 L745 518 L745 516 Z M388 516 L390 519 L394 517 L392 514 L389 514 Z M376 514 L373 515 L373 516 L375 517 Z M775 513 L777 516 L779 515 L778 513 Z M444 513 L443 515 L446 516 L447 514 Z M723 513 L724 517 L728 516 L727 512 Z M425 512 L423 515 L425 518 L428 519 L429 517 L426 516 L428 513 Z M756 511 L756 513 L758 513 L758 511 Z M628 511 L628 513 L630 514 L634 513 L634 511 L632 510 Z M403 510 L401 512 L401 514 L404 512 Z M684 509 L682 511 L682 513 L685 512 Z M603 508 L604 507 L605 508 L604 509 Z M788 508 L789 510 L796 511 L793 508 L789 507 Z M602 507 L603 506 L604 507 L603 508 Z M454 509 L457 509 L458 507 L455 507 Z M600 506 L601 505 L603 506 L602 507 Z M599 505 L600 504 L601 505 L600 506 Z M708 504 L706 506 L706 508 L710 509 L711 505 Z M669 504 L664 505 L664 506 L667 507 Z M447 504 L445 504 L443 506 L444 507 Z M760 502 L755 504 L755 505 L758 507 Z M645 503 L647 501 L649 502 L648 504 Z M432 502 L431 503 L432 505 L433 504 Z M414 502 L412 505 L416 506 L417 503 Z M792 502 L793 501 L796 502 L797 500 L799 502 L799 505 L798 506 Z M468 500 L465 502 L465 504 L469 502 Z M349 502 L349 503 L355 503 L356 502 L358 503 L371 503 L371 502 L367 501 L358 501 L357 500 L353 500 Z M647 499 L644 501 L644 505 L649 506 L651 504 L651 502 Z M323 506 L323 512 L325 512 L329 509 L333 509 L336 511 L344 511 L350 513 L352 512 L351 510 L335 509 L333 507 L326 508 L325 507 L328 503 L329 504 L336 504 L337 505 L339 504 L337 502 L332 502 L331 499 L327 500 Z M801 502 L796 498 L795 500 L791 499 L792 501 L791 502 L786 502 L785 504 L792 504 L799 509 L799 505 L801 504 Z M480 498 L481 502 L484 502 L484 500 L482 498 Z M392 497 L392 499 L397 500 L396 497 L394 496 Z M364 495 L364 496 L367 497 L371 497 L380 500 L381 501 L378 502 L376 505 L378 508 L381 507 L380 502 L383 501 L383 499 L375 497 L372 495 L368 495 L367 494 Z M348 495 L347 494 L337 495 L334 498 L337 497 L347 497 Z M798 493 L799 492 L800 493 L799 494 Z M738 493 L736 495 L736 499 L740 498 L740 495 Z M638 493 L636 492 L634 493 L634 495 L637 496 L636 495 Z M612 494 L614 497 L618 497 L617 493 L615 492 Z M506 492 L507 496 L509 496 L510 495 Z M446 492 L443 491 L441 493 L441 495 L442 496 L446 495 Z M802 493 L799 489 L797 489 L797 491 L799 492 L798 493 L788 494 L781 497 L780 499 L786 498 L792 495 L797 495 L801 497 Z M788 489 L782 489 L777 492 L775 492 L769 496 L768 498 L769 500 L773 500 L774 498 L772 498 L771 497 L783 491 L788 491 Z M718 489 L716 492 L719 494 L721 491 Z M421 489 L422 488 L423 489 L422 490 Z M379 488 L381 490 L383 489 Z M560 489 L564 489 L565 490 L564 491 L565 490 L578 491 L575 488 L571 489 L568 487 L561 487 Z M468 489 L466 487 L464 488 L463 491 L467 491 Z M657 486 L658 490 L660 490 L660 488 Z M597 486 L594 488 L595 491 L597 491 L599 489 Z M488 486 L489 485 L490 486 L489 487 Z M477 486 L475 488 L477 488 Z M423 486 L421 486 L419 488 L419 491 L421 492 L424 490 Z M368 487 L365 486 L364 487 L356 488 L353 490 L356 491 L360 489 L368 488 Z M699 485 L697 491 L695 490 L695 488 L691 488 L696 494 L698 493 L700 489 Z M791 483 L792 482 L796 482 L797 483 L796 484 L792 484 Z M488 483 L486 487 L488 489 L490 489 L492 486 L491 484 Z M645 482 L643 482 L642 484 L644 484 Z M355 481 L332 482 L328 486 L327 490 L330 489 L345 489 L345 487 L331 487 L330 486 L333 484 L355 483 Z M683 483 L679 480 L678 482 L681 483 L671 486 L668 488 L667 492 L671 488 L676 486 L681 486 Z M454 480 L453 484 L456 484 L456 481 Z M787 480 L785 479 L779 481 L768 487 L767 489 L769 489 L779 483 L785 482 Z M625 479 L626 478 L627 479 L626 480 Z M714 477 L711 480 L712 482 L716 481 L716 479 Z M409 477 L404 479 L402 482 L402 485 L404 488 L406 488 L404 483 L409 480 Z M796 476 L797 475 L798 476 L797 477 Z M527 478 L525 476 L523 478 L524 479 L523 480 L519 479 L519 481 L525 481 L527 480 Z M626 475 L624 477 L624 481 L628 482 L629 478 Z M435 475 L434 481 L437 482 L437 480 L440 478 L439 476 Z M757 473 L754 473 L746 477 L746 478 L748 479 L756 475 Z M497 473 L498 472 L499 473 L498 474 Z M791 472 L794 471 L796 473 L794 474 Z M603 472 L601 474 L602 477 L606 477 L606 474 Z M335 472 L336 471 L337 472 L336 473 Z M501 470 L498 470 L495 473 L495 475 L499 476 L501 473 Z M361 471 L361 472 L363 471 L365 474 L371 474 L394 480 L398 480 L397 478 L390 476 L377 474 L365 470 Z M336 471 L339 469 L349 469 L350 470 L342 472 L337 472 Z M793 468 L794 467 L795 468 L794 469 Z M541 469 L540 472 L542 474 L545 474 L546 470 L543 468 Z M450 467 L451 469 L453 469 L453 467 Z M331 477 L342 473 L352 472 L354 470 L348 467 L340 467 L337 468 L332 473 Z M745 466 L746 465 L748 466 L747 467 Z M661 465 L659 467 L659 469 L663 470 L663 466 Z M635 464 L635 467 L638 469 L640 466 L638 464 Z M360 464 L361 465 L380 466 L392 470 L404 472 L403 470 L400 469 L396 469 L375 463 L364 463 L363 464 L361 463 Z M476 462 L474 462 L472 465 L474 468 L477 466 Z M457 462 L455 463 L456 467 L457 466 Z M758 461 L750 466 L747 465 L755 460 Z M732 461 L733 460 L734 461 L733 462 Z M522 461 L523 460 L524 461 L523 462 Z M734 460 L735 459 L736 460 L735 461 Z M588 461 L588 463 L590 465 L592 465 L594 463 L591 460 Z M785 459 L786 458 L788 459 L787 460 Z M735 459 L736 458 L738 459 L737 460 Z M737 458 L738 457 L740 458 L739 459 Z M619 458 L617 459 L618 462 L620 460 Z M395 458 L396 460 L413 466 L427 473 L430 473 L429 471 L418 466 L406 462 L399 458 Z M317 457 L318 458 L317 461 L316 460 Z M771 460 L779 459 L780 457 L775 457 L772 458 Z M524 457 L521 459 L521 462 L523 464 L526 462 L526 458 Z M797 465 L792 459 L785 456 L783 458 L783 460 L787 462 L793 463 L794 464 L793 468 L792 467 L780 467 L779 466 L782 465 L780 463 L768 466 L766 468 L767 469 L776 466 L780 467 L770 472 L768 475 L758 479 L755 481 L755 483 L768 477 L769 474 L771 476 L773 473 L781 469 L791 469 L792 470 L791 472 L787 473 L786 472 L782 472 L777 474 L777 475 L783 475 L786 473 L793 475 L797 479 L796 480 L790 480 L789 484 L782 485 L782 487 L789 487 L790 486 L795 486 L797 484 L800 484 L800 482 L797 477 L799 476 L799 472 L794 469 L797 468 Z M342 457 L345 455 L357 455 L358 456 L357 457 L346 457 L345 458 Z M654 455 L653 459 L656 458 Z M406 455 L406 457 L420 460 L436 466 L436 464 L429 461 L410 455 Z M604 453 L605 452 L606 453 L605 454 Z M560 453 L561 452 L562 453 L561 454 Z M337 462 L340 460 L345 460 L346 459 L357 459 L359 458 L359 456 L356 453 L345 453 L342 454 L337 459 Z M765 452 L766 451 L767 452 L766 453 Z M605 452 L606 451 L608 452 L607 453 Z M767 451 L768 450 L771 451 L770 452 Z M514 451 L513 455 L516 456 L517 452 Z M318 450 L319 451 L319 456 L318 457 L317 456 L317 451 Z M770 450 L771 449 L773 450 L772 451 Z M766 450 L767 449 L768 450 L767 451 Z M640 449 L641 448 L642 449 L641 450 Z M754 448 L749 449 L739 454 L727 462 L724 466 L727 466 L742 459 L742 458 L739 457 L750 451 L754 450 Z M560 448 L561 447 L562 448 L561 449 Z M561 447 L562 446 L563 447 L562 448 Z M774 446 L775 445 L777 446 L776 447 Z M642 446 L640 446 L638 448 L638 451 L640 452 L643 450 Z M408 447 L410 449 L423 453 L437 460 L437 458 L424 451 L416 448 L413 448 L410 446 Z M503 443 L502 447 L506 447 L507 444 Z M345 448 L345 449 L347 449 L350 447 L365 447 L367 450 L363 454 L363 456 L377 457 L377 455 L367 454 L366 453 L368 451 L371 451 L372 452 L377 452 L388 457 L393 458 L393 456 L391 456 L384 452 L369 449 L368 448 L372 446 L371 444 L367 444 L366 443 L352 444 Z M791 449 L785 447 L780 447 L777 445 L780 443 L784 443 L784 442 L777 442 L768 446 L767 449 L765 451 L763 451 L765 453 L764 454 L762 454 L741 465 L740 467 L744 466 L746 467 L740 472 L734 475 L734 477 L742 473 L747 469 L759 463 L768 460 L768 458 L760 461 L757 460 L768 454 L773 453 L773 450 L776 448 L781 448 L785 450 L789 450 L790 451 L786 452 L786 453 L794 455 Z M410 441 L411 440 L412 441 L411 442 Z M377 441 L380 444 L391 446 L402 450 L401 447 Z M760 440 L761 439 L764 440 L763 441 Z M522 440 L523 439 L524 440 L523 441 Z M406 440 L407 439 L410 440 L409 441 Z M765 439 L766 438 L767 439 L766 440 Z M449 439 L450 438 L451 439 L450 440 Z M403 439 L404 438 L407 439 L406 440 Z M693 438 L691 438 L679 445 L675 449 L676 450 L679 449 L692 440 Z M521 438 L522 437 L523 439 L522 440 Z M399 438 L400 437 L404 438 L403 439 Z M772 437 L761 437 L758 439 L753 440 L752 442 L749 441 L735 446 L723 453 L717 455 L710 460 L710 462 L734 449 L744 446 L747 444 L751 444 L753 441 L758 443 L762 443 L771 440 Z M395 437 L396 436 L400 437 L399 438 Z M727 436 L728 435 L729 436 L728 437 Z M392 436 L393 435 L394 436 L393 437 Z M780 435 L780 437 L782 437 L786 442 L788 442 L788 440 L784 436 Z M481 435 L488 444 L490 444 L489 441 L484 436 Z M449 435 L451 434 L452 436 L451 437 Z M466 434 L467 436 L475 441 L472 437 Z M378 437 L378 439 L390 438 L403 441 L407 443 L411 443 L412 441 L418 445 L422 445 L417 441 L409 437 L399 434 L387 434 L386 436 Z M371 435 L367 434 L355 435 L349 442 L364 437 L371 437 Z M740 434 L742 432 L745 433 L742 435 Z M744 432 L746 430 L749 431 L746 433 Z M749 430 L750 429 L751 430 L750 431 Z M713 431 L715 429 L717 430 L715 432 Z M771 429 L772 428 L776 429 L775 430 Z M716 429 L717 428 L719 429 L718 430 Z M718 428 L719 427 L721 428 L720 429 Z M410 428 L411 427 L414 428 L413 429 Z M720 427 L721 426 L723 427 L722 428 Z M408 427 L409 426 L410 427 L409 428 Z M781 430 L778 426 L772 426 L763 431 L766 432 L771 429 L772 432 L780 432 Z M722 426 L723 425 L724 426 L723 427 Z M376 426 L377 425 L381 426 L380 427 Z M764 425 L758 426 L751 430 L750 428 L745 428 L739 432 L729 436 L728 435 L732 432 L732 430 L731 430 L718 443 L726 438 L729 439 L738 434 L740 434 L741 435 L735 439 L735 440 L737 440 L749 433 L753 433 L754 430 L759 429 L763 427 Z M723 425 L724 424 L726 425 L725 426 Z M369 425 L370 424 L375 424 L376 425 L375 426 L370 426 Z M398 424 L398 425 L404 426 L407 429 L418 433 L421 436 L426 438 L433 443 L434 442 L436 445 L440 447 L451 456 L451 454 L447 450 L436 443 L432 438 L425 436 L413 429 L416 428 L420 430 L427 431 L429 433 L432 433 L437 436 L439 436 L447 441 L452 441 L465 452 L468 453 L465 449 L458 444 L451 437 L454 436 L454 434 L448 429 L447 430 L450 434 L449 435 L443 431 L439 432 L441 432 L448 436 L450 438 L449 439 L424 428 L420 428 L407 424 Z M679 424 L681 422 L683 423 L681 425 Z M360 427 L360 428 L367 427 L368 428 L377 428 L378 429 L387 428 L392 431 L392 429 L388 426 L379 423 L366 423 Z M682 422 L683 421 L684 422 L683 423 Z M494 422 L495 421 L496 422 L495 423 Z M683 421 L684 420 L686 421 L685 422 Z M455 421 L455 423 L461 425 L467 429 L468 428 L473 431 L475 431 L474 429 L469 426 L469 424 L464 425 Z M758 420 L759 419 L760 420 L759 421 Z M740 420 L728 425 L725 424 L736 419 Z M706 420 L701 422 L699 421 L689 430 L689 432 L698 425 L705 423 Z M685 420 L686 419 L688 420 L687 421 Z M760 419 L761 418 L763 419 L762 420 Z M688 419 L689 418 L690 419 L689 420 Z M579 419 L580 418 L581 419 L580 420 Z M762 418 L763 417 L768 417 L769 418 L768 419 L763 419 Z M606 418 L607 423 L607 419 Z M689 416 L686 416 L667 430 L656 442 L656 444 L669 431 L679 424 L680 425 L667 439 L669 439 L674 435 L679 429 L690 420 Z M722 415 L713 419 L716 420 L722 417 Z M772 419 L768 414 L766 414 L759 417 L751 423 L748 424 L747 426 L750 426 L756 422 L772 420 Z M750 414 L743 415 L736 418 L732 418 L705 432 L704 435 L712 431 L714 432 L699 443 L698 442 L698 437 L697 437 L696 444 L692 449 L694 449 L724 428 L732 425 L737 425 L742 422 L742 420 L739 419 L740 418 L744 419 L745 417 L749 416 Z M381 414 L382 413 L388 413 L389 414 L388 415 L382 415 Z M375 414 L376 416 L389 417 L399 420 L402 422 L405 422 L405 421 L402 419 L388 415 L389 414 L397 414 L415 419 L414 417 L407 414 L402 414 L396 412 L384 411 Z M596 409 L601 409 L608 415 L613 427 L613 436 L610 444 L606 449 L599 453 L593 453 L588 451 L583 446 L579 435 L579 430 L583 419 L587 414 Z M555 409 L558 410 L564 416 L568 427 L568 436 L566 443 L563 447 L562 445 L564 439 L564 425 L562 420 L560 419 L562 426 L562 439 L560 445 L561 449 L554 453 L547 454 L539 451 L533 445 L530 438 L530 432 L533 428 L534 422 L542 413 L548 409 Z M762 409 L760 409 L758 407 L744 409 L734 413 L733 416 L738 413 L748 410 L752 410 L753 409 L754 412 L756 412 L757 411 L762 411 Z M450 407 L450 409 L455 410 L464 416 L479 430 L480 429 L470 418 L462 412 L453 407 Z M654 406 L655 405 L656 406 L655 407 Z M388 403 L391 405 L402 407 L419 413 L445 429 L445 427 L425 414 L417 410 L404 406 L405 405 L423 405 L438 412 L448 419 L452 420 L450 417 L435 408 L420 402 L417 403 L406 403 L402 405 L399 405 L395 403 Z M750 401 L747 400 L741 403 L739 406 L741 406 L743 404 Z M738 400 L732 400 L721 405 L717 405 L709 409 L707 412 L715 409 L720 405 L723 407 L730 403 L736 402 Z M690 401 L688 400 L684 401 L677 409 L675 409 L673 411 L672 410 L665 411 L656 421 L651 430 L653 430 L660 420 L668 412 L671 413 L669 415 L669 416 L671 416 L677 411 L678 408 L682 407 L687 403 L690 403 Z M439 400 L440 399 L442 400 L441 401 Z M732 393 L710 402 L691 414 L691 416 L696 414 L705 407 L721 399 L726 398 L729 396 L732 396 Z M461 391 L462 393 L472 399 L483 409 L483 407 L475 399 L467 393 Z M423 395 L423 397 L436 400 L447 406 L447 404 L441 401 L442 400 L452 401 L451 398 L449 397 L452 396 L468 407 L471 408 L476 414 L479 415 L485 420 L494 424 L498 428 L500 427 L493 411 L483 398 L481 400 L487 406 L495 420 L494 422 L485 418 L481 414 L478 413 L470 405 L450 393 L441 391 L442 393 L445 394 L448 397 L447 398 L442 398 L441 397 L435 398 Z M715 390 L710 390 L706 392 L704 394 L705 395 L696 402 L696 404 L711 393 L715 392 Z M691 388 L692 387 L693 388 L692 389 Z M696 387 L691 385 L681 391 L676 396 L672 395 L666 398 L656 406 L655 404 L658 400 L672 386 L672 385 L670 385 L662 392 L654 403 L641 414 L636 421 L635 425 L638 423 L642 416 L648 409 L650 410 L649 412 L651 412 L654 409 L656 409 L663 404 L668 399 L671 398 L672 400 L674 400 L684 391 L689 388 L691 388 L692 389 L686 395 L687 397 L696 389 Z M612 376 L613 375 L614 376 L613 377 Z M530 376 L531 375 L532 376 L531 377 Z M611 375 L612 374 L613 375 L612 376 Z M531 375 L532 374 L533 375 L532 376 Z M787 373 L791 379 L796 396 L796 401 L800 417 L800 425 L801 426 L801 434 L802 435 L802 439 L801 440 L797 424 L795 421 L789 403 L789 398 L788 397 L789 385 L786 375 Z M533 374 L534 373 L535 374 L534 375 Z M534 373 L535 372 L536 373 L535 374 Z M521 384 L529 377 L531 378 L538 374 L550 371 L556 371 L563 373 L568 376 L574 383 L576 383 L577 380 L582 375 L586 373 L599 372 L605 374 L614 379 L622 387 L626 395 L628 403 L628 416 L627 417 L625 431 L621 439 L615 447 L608 452 L607 451 L618 439 L618 436 L615 440 L614 438 L620 420 L620 411 L618 403 L612 392 L607 388 L600 385 L589 385 L585 386 L577 391 L575 391 L569 386 L560 381 L550 380 L538 385 L531 391 L526 398 L521 413 L521 433 L522 434 L521 438 L518 434 L514 421 L514 406 L515 405 L517 392 Z M536 372 L537 371 L539 372 L538 373 Z M538 371 L539 370 L541 371 L540 372 Z M784 368 L783 371 L787 384 L787 389 L786 390 L787 402 L790 413 L796 427 L801 449 L804 458 L806 459 L805 457 L804 439 L803 438 L802 417 L801 416 L801 411 L798 401 L797 392 L790 374 Z M322 357 L323 358 L325 373 L329 385 L330 404 L331 406 L330 407 L330 415 L322 435 L321 445 L319 450 L318 449 L318 444 L319 443 L320 434 L319 433 L319 421 L318 419 L322 404 L322 387 L320 380 L320 369 L319 366 Z M578 356 L579 355 L581 356 L580 357 Z M323 353 L321 354 L319 358 L317 366 L319 387 L320 388 L320 404 L317 412 L317 418 L316 419 L318 434 L317 435 L316 453 L315 454 L315 482 L316 482 L317 479 L317 470 L319 465 L323 440 L326 430 L331 419 L332 410 L333 409 L333 399 L332 398 L331 384 L327 373 L325 358 Z M540 367 L544 362 L552 358 L556 360 L562 361 L562 360 L550 356 L548 354 L550 351 L558 351 L568 357 L564 360 L566 360 L570 357 L576 357 L582 360 L593 360 L597 362 L601 366 L607 368 L612 374 L610 375 L602 371 L592 370 L591 371 L587 371 L579 375 L574 380 L567 373 L560 370 L551 369 L550 370 L541 371 Z M563 349 L569 343 L576 343 L581 347 L583 351 L591 350 L594 353 L591 356 L589 355 L590 354 L585 354 L585 355 L589 355 L590 356 L586 359 L583 359 L580 354 L575 356 L567 355 L563 352 Z M780 560 L774 562 L762 562 L757 560 L739 558 L731 555 L728 555 L725 553 L722 553 L700 544 L695 543 L677 535 L665 532 L658 529 L656 527 L649 527 L643 525 L613 511 L604 505 L595 497 L588 489 L583 481 L578 463 L578 455 L579 454 L579 449 L578 449 L576 455 L576 464 L580 480 L589 494 L600 504 L598 505 L578 495 L576 495 L576 497 L585 500 L627 524 L636 526 L643 533 L645 539 L644 550 L638 557 L625 552 L619 553 L615 555 L610 554 L607 556 L591 556 L585 554 L574 554 L573 553 L574 552 L582 552 L583 551 L599 551 L598 550 L575 550 L574 551 L569 551 L559 555 L548 551 L542 551 L527 555 L513 556 L509 558 L485 554 L484 555 L472 556 L462 559 L445 550 L452 556 L459 559 L458 560 L441 560 L432 563 L429 561 L421 559 L412 559 L410 561 L402 560 L401 561 L396 561 L395 562 L390 562 L385 564 L376 565 L365 570 L359 570 L350 567 L382 559 L411 546 L425 541 L431 542 L439 548 L443 549 L443 548 L435 543 L438 541 L445 540 L487 525 L501 518 L503 518 L511 513 L513 513 L542 498 L552 495 L560 495 L558 493 L552 493 L541 496 L524 504 L507 514 L505 514 L472 529 L438 540 L433 540 L432 539 L501 513 L536 495 L545 489 L554 479 L557 474 L557 471 L560 467 L563 458 L564 449 L566 447 L570 438 L570 425 L566 415 L558 408 L546 407 L536 413 L530 421 L528 427 L528 439 L532 447 L537 452 L543 455 L547 455 L548 456 L547 457 L540 457 L528 448 L526 445 L524 432 L523 431 L523 414 L527 401 L535 390 L546 383 L555 382 L562 384 L576 394 L589 387 L600 387 L606 390 L612 396 L616 404 L617 412 L618 413 L617 425 L616 426 L614 424 L612 417 L607 410 L600 406 L594 405 L592 407 L594 407 L595 408 L594 409 L591 409 L585 413 L581 418 L580 416 L578 417 L577 427 L576 428 L577 430 L577 437 L579 444 L583 450 L591 455 L601 455 L603 454 L604 455 L603 456 L606 456 L616 449 L624 438 L629 424 L630 402 L628 394 L623 385 L609 367 L602 364 L599 361 L591 358 L598 354 L595 350 L593 349 L585 349 L580 343 L576 341 L570 341 L566 343 L560 350 L558 349 L551 349 L547 351 L546 353 L549 357 L539 364 L539 368 L533 372 L531 372 L517 386 L512 404 L512 423 L513 427 L520 442 L531 454 L539 459 L548 459 L559 453 L561 454 L560 461 L556 472 L553 477 L544 487 L537 492 L498 512 L468 524 L430 537 L425 540 L414 543 L379 558 L357 564 L340 564 L334 562 L332 560 L331 561 L336 565 L341 566 L347 569 L355 570 L360 573 L355 578 L353 584 L354 586 L361 591 L364 591 L368 589 L371 590 L369 591 L366 597 L364 605 L362 601 L362 605 L366 610 L366 613 L380 627 L387 631 L389 631 L396 636 L407 637 L409 639 L416 642 L429 643 L431 645 L456 649 L457 650 L463 650 L464 651 L476 651 L477 650 L483 652 L499 651 L505 654 L511 654 L512 655 L524 655 L526 654 L527 655 L540 656 L541 657 L545 657 L550 655 L558 657 L587 657 L590 655 L601 654 L602 653 L634 654 L635 653 L652 651 L655 649 L664 649 L677 644 L690 642 L696 639 L702 634 L705 635 L715 631 L722 624 L724 625 L729 622 L736 614 L739 613 L742 610 L745 605 L745 603 L750 595 L750 593 L756 582 L757 578 L755 569 L753 567 L754 566 L758 566 L760 563 L771 564 L772 565 L762 570 L760 572 L761 573 L777 564 Z M764 326 L765 325 L766 326 L765 327 Z M585 326 L584 327 L570 327 L569 326 L562 326 L561 325 L567 323 L581 322 Z M568 321 L561 323 L560 325 L557 326 L556 325 L554 326 L551 324 L555 321 L562 321 L563 320 L567 320 Z M587 327 L587 325 L582 321 L569 321 L568 320 L569 319 L581 318 L581 317 L569 317 L568 318 L556 319 L549 323 L550 327 L555 327 L556 328 L585 329 Z M735 305 L736 304 L737 305 L736 306 Z M452 306 L451 305 L446 308 L436 309 L435 311 L442 311 L443 312 L442 311 L443 310 L447 310 L451 308 Z M734 304 L735 303 L736 304 L735 305 Z M733 303 L734 302 L735 303 L734 304 Z M554 303 L555 302 L559 302 L560 303 L578 304 L581 307 L580 308 L560 308 L556 307 L554 305 L555 304 Z M412 303 L413 302 L414 304 L413 305 Z M569 301 L573 298 L575 299 L574 302 L570 302 Z M442 296 L443 295 L446 296 L445 297 Z M583 306 L576 301 L577 299 L576 295 L573 296 L567 301 L560 301 L559 300 L554 300 L553 301 L554 308 L560 310 L580 310 L583 308 Z M445 295 L446 294 L447 295 L446 296 Z M317 294 L318 293 L319 294 L318 295 Z M318 293 L319 292 L320 293 L319 294 Z M319 292 L320 291 L321 292 L320 293 Z M320 291 L321 290 L322 291 L321 292 Z M322 290 L323 289 L324 290 L323 291 Z M323 289 L324 288 L325 289 L324 290 Z M324 288 L325 287 L326 288 L325 289 Z M325 287 L326 286 L327 287 L326 288 Z M445 281 L447 283 L447 285 L445 288 L444 293 L441 296 L436 296 L430 292 L429 289 L435 282 L441 280 Z M333 281 L335 279 L337 280 L335 282 Z M445 279 L446 278 L448 279 L447 280 Z M450 277 L444 277 L432 281 L424 290 L423 295 L424 295 L424 293 L427 289 L429 294 L435 298 L443 299 L449 297 L452 294 L453 289 L451 290 L451 292 L449 294 L447 293 L448 290 L447 287 L449 285 L449 282 L447 280 L451 279 Z M704 272 L705 271 L706 272 L705 273 Z M703 271 L704 270 L705 271 L704 272 Z M472 279 L474 283 L474 290 L469 298 L458 307 L442 315 L434 316 L433 317 L425 317 L418 315 L413 310 L412 306 L415 305 L416 293 L421 286 L421 284 L426 278 L443 271 L453 270 L461 272 Z M702 270 L703 269 L704 270 L703 271 Z M681 270 L682 269 L683 270 L682 271 Z M681 273 L676 280 L668 279 L663 274 L666 270 L674 271 L675 269 L678 270 Z M475 280 L466 272 L454 268 L445 268 L432 272 L421 279 L413 289 L409 301 L410 309 L415 316 L421 319 L433 319 L434 318 L443 317 L462 307 L469 301 L476 291 L477 285 Z M741 265 L742 264 L743 265 L742 266 Z M733 265 L736 269 L745 275 L779 306 L769 294 L748 276 L747 277 L742 271 Z M359 265 L338 280 L336 279 L357 264 Z M740 264 L741 263 L742 264 L741 265 Z M739 263 L740 262 L741 263 L740 264 Z M653 269 L652 277 L655 280 L656 279 L653 276 L653 272 L657 267 L660 266 L670 266 L671 267 L670 268 L665 268 L661 272 L662 277 L667 281 L675 282 L680 278 L681 279 L682 284 L680 286 L664 285 L668 288 L675 288 L676 289 L683 285 L684 283 L680 274 L681 273 L684 274 L689 279 L692 286 L691 289 L688 292 L681 295 L675 295 L670 293 L671 295 L675 297 L686 296 L694 288 L694 285 L691 280 L691 278 L683 272 L682 269 L681 270 L676 266 L665 263 L661 264 Z M500 286 L500 292 L498 299 L495 305 L489 311 L475 322 L464 327 L450 331 L446 331 L440 333 L420 332 L409 329 L402 329 L401 328 L396 328 L395 327 L390 327 L389 326 L370 323 L364 320 L362 317 L385 293 L391 289 L397 283 L418 271 L420 271 L430 266 L442 263 L463 262 L482 267 L488 270 L496 277 Z M736 261 L737 260 L738 261 L737 262 Z M735 260 L736 259 L737 260 L736 261 Z M638 266 L644 261 L649 259 L663 259 L674 262 L683 267 L692 275 L697 285 L697 294 L693 299 L688 301 L678 301 L677 299 L670 300 L663 296 L655 295 L646 290 L639 283 L636 277 L636 271 Z M366 260 L360 265 L358 264 L364 259 Z M734 259 L735 258 L736 259 L735 260 Z M733 258 L734 257 L735 258 L734 259 Z M365 259 L367 257 L369 258 L367 260 Z M635 267 L634 277 L636 282 L644 291 L655 297 L658 297 L671 302 L688 303 L695 300 L698 296 L700 290 L697 279 L693 273 L686 266 L674 259 L668 257 L648 257 L640 261 Z M508 282 L508 293 L501 308 L490 319 L483 324 L469 331 L456 335 L447 336 L446 337 L411 337 L410 336 L400 335 L386 330 L371 331 L361 327 L349 327 L338 330 L335 329 L349 321 L358 314 L379 293 L393 281 L395 282 L379 296 L368 307 L361 316 L354 321 L353 323 L357 322 L360 318 L362 321 L367 324 L383 328 L409 331 L414 333 L420 333 L427 335 L441 335 L461 330 L475 324 L489 314 L498 304 L502 293 L502 285 L499 277 L493 271 L487 267 L470 261 L449 260 L448 261 L433 263 L413 271 L396 282 L394 281 L403 273 L427 261 L444 258 L445 257 L453 257 L454 256 L471 256 L472 257 L480 258 L495 265 L503 273 Z M368 257 L370 255 L372 256 L370 258 Z M509 279 L505 272 L497 264 L484 257 L477 255 L473 255 L472 254 L451 254 L450 255 L438 256 L426 259 L409 267 L398 274 L370 298 L357 312 L341 323 L335 325 L329 332 L330 334 L333 334 L340 331 L348 330 L349 329 L361 329 L369 333 L384 332 L412 339 L446 339 L447 338 L453 338 L461 336 L477 330 L484 326 L492 320 L503 309 L508 300 L510 293 Z M609 269 L612 264 L619 258 L627 254 L639 251 L648 251 L649 250 L654 250 L655 251 L663 249 L677 253 L691 260 L700 266 L703 269 L702 270 L687 261 L687 263 L692 265 L703 273 L705 273 L718 286 L731 301 L736 311 L740 315 L739 316 L722 316 L711 320 L701 321 L700 322 L680 322 L679 321 L664 319 L648 314 L629 305 L623 301 L614 292 L610 285 L608 278 Z M723 249 L724 248 L725 249 L724 250 Z M722 248 L723 247 L724 248 L723 249 Z M601 270 L606 261 L611 256 L619 251 L633 247 L651 247 L652 248 L651 249 L639 249 L624 253 L613 260 L609 265 L606 272 L607 283 L613 294 L621 302 L634 310 L651 317 L668 322 L679 323 L680 324 L700 324 L701 323 L712 322 L724 318 L741 318 L743 319 L744 316 L737 309 L736 307 L737 305 L747 314 L757 321 L765 325 L762 326 L751 322 L737 321 L736 322 L729 322 L728 323 L723 323 L706 327 L687 328 L686 327 L670 326 L644 319 L627 311 L621 307 L607 294 L601 283 L600 279 Z M375 248 L376 247 L377 248 L376 249 Z M720 247 L721 246 L722 247 L721 248 Z M719 246 L720 245 L721 246 L720 247 Z M599 269 L598 281 L603 292 L615 305 L623 311 L641 320 L665 327 L669 327 L675 329 L685 329 L686 330 L698 330 L699 329 L706 329 L707 328 L718 327 L730 324 L745 323 L754 326 L762 327 L775 333 L778 333 L772 327 L756 318 L752 314 L740 306 L713 277 L709 274 L702 265 L692 258 L678 251 L654 245 L632 245 L631 246 L627 246 L610 254 L604 260 Z M380 245 L381 244 L382 245 L381 246 Z M381 244 L382 243 L383 244 L382 245 Z M394 243 L373 256 L371 255 L374 252 L391 242 Z M383 243 L384 242 L385 243 L384 244 Z M717 242 L718 241 L720 242 L719 243 Z M393 242 L394 241 L396 242 L395 243 Z M713 241 L714 240 L717 241 L716 242 Z M395 241 L396 240 L398 241 L397 242 Z M711 240 L712 239 L714 240 L713 241 Z M397 240 L398 239 L399 240 L398 241 Z M398 239 L399 238 L400 239 L399 240 Z M397 234 L398 233 L399 234 L398 235 Z M580 232 L581 231 L582 232 L581 233 Z M501 235 L493 233 L488 233 L487 232 L457 232 L456 233 L450 233 L449 234 L444 234 L432 237 L412 244 L405 248 L408 248 L432 239 L445 236 L450 236 L451 235 L457 235 L458 234 L486 234 L499 237 Z M698 232 L700 230 L705 230 L706 231 L705 234 L707 236 L706 237 Z M696 231 L697 230 L698 231 L697 232 Z M518 230 L521 234 L520 236 L517 233 Z M514 231 L515 230 L516 231 L515 232 Z M397 230 L398 229 L406 229 L411 231 L411 229 L406 227 L407 226 L413 226 L420 230 L401 239 L399 238 L398 235 L401 232 Z M692 224 L693 223 L696 224 L695 225 Z M603 230 L606 231 L616 228 L633 227 L634 226 L637 227 L650 227 L651 228 L660 229 L672 232 L690 239 L707 248 L712 252 L714 252 L726 261 L728 261 L727 259 L707 246 L686 235 L683 235 L675 231 L657 226 L632 224 L631 225 L621 225 L616 227 L611 227 Z M508 218 L509 217 L510 218 L509 219 Z M444 218 L445 217 L446 218 L445 219 Z M588 217 L589 216 L590 217 L589 218 Z M507 217 L508 216 L509 217 L508 218 Z M481 217 L482 216 L483 217 L482 218 Z M411 222 L412 221 L421 221 L433 224 L432 220 L429 217 L430 216 L438 217 L444 221 L448 221 L449 222 L448 223 L431 226 L421 230 L419 229 L418 226 Z M677 216 L678 215 L680 216 L679 217 Z M427 216 L428 215 L430 216 L429 217 Z M679 214 L680 213 L681 214 L680 215 Z M662 218 L671 213 L675 213 L676 214 L671 218 L672 219 L676 216 L679 219 L690 218 L691 219 L687 224 L691 223 L693 225 L692 227 L695 227 L696 230 L695 231 L684 225 Z M459 214 L460 213 L461 214 L460 215 Z M445 214 L446 213 L447 214 L446 215 Z M676 213 L677 212 L678 213 L677 214 Z M603 212 L604 211 L605 212 L604 213 Z M450 212 L451 211 L452 212 L451 213 Z M455 211 L457 210 L460 213 L459 214 Z M481 210 L483 209 L487 211 L490 217 L493 218 L490 212 L492 211 L500 219 L501 223 L503 223 L503 216 L504 215 L509 224 L510 224 L509 220 L510 218 L515 224 L515 230 L513 231 L502 225 L485 221 L484 220 L485 216 Z M453 210 L454 209 L455 210 L454 211 Z M482 215 L481 217 L482 220 L481 221 L479 220 L465 220 L464 221 L456 221 L455 222 L449 222 L448 221 L448 217 L446 215 L447 214 L451 214 L452 215 L456 214 L461 218 L462 217 L462 213 L464 212 L469 215 L471 218 L473 218 L473 215 L469 209 L470 208 L478 211 Z M663 208 L664 207 L665 208 L664 209 Z M629 206 L630 205 L631 206 L630 207 Z M633 205 L634 204 L636 205 L635 206 Z M630 207 L625 212 L625 214 L627 215 L626 216 L610 218 L594 225 L585 231 L583 230 L584 231 L583 232 L581 231 L581 229 L586 219 L588 217 L589 218 L586 226 L588 226 L588 224 L595 212 L601 207 L603 208 L601 213 L598 215 L598 217 L601 215 L604 216 L616 204 L618 205 L616 212 L618 212 L628 206 Z M543 227 L538 224 L535 225 L529 230 L528 233 L531 236 L536 233 L536 231 L533 233 L530 232 L535 227 L540 227 L542 231 L542 237 L537 241 L530 241 L524 237 L518 224 L508 214 L501 210 L501 215 L500 216 L489 207 L487 207 L486 209 L482 206 L479 206 L478 210 L476 208 L465 205 L465 207 L469 212 L468 213 L465 211 L450 206 L448 207 L451 210 L450 212 L440 211 L439 210 L432 210 L432 212 L439 212 L445 217 L444 218 L435 214 L419 213 L417 214 L418 215 L422 215 L430 220 L428 221 L420 219 L407 219 L404 220 L405 222 L408 223 L406 225 L399 227 L394 227 L393 229 L396 232 L389 234 L386 237 L395 235 L397 238 L390 241 L381 241 L378 243 L379 244 L378 245 L371 247 L371 249 L373 250 L333 278 L331 280 L331 281 L334 282 L328 287 L327 285 L325 285 L316 292 L303 306 L297 314 L296 317 L311 302 L322 293 L352 272 L355 271 L365 263 L405 239 L425 230 L428 230 L444 225 L456 224 L457 223 L469 223 L470 222 L471 223 L472 222 L475 223 L487 223 L506 229 L515 234 L521 239 L535 244 L540 242 L544 237 Z M626 214 L633 207 L636 207 L640 203 L641 206 L639 208 L639 210 L641 212 L647 208 L651 209 L648 211 L647 214 L652 213 L654 210 L659 208 L663 208 L664 209 L661 212 L663 217 L662 218 L653 217 L652 216 L641 216 L640 215 L632 216 Z M635 204 L636 203 L637 204 L636 205 Z M617 204 L618 203 L619 204 L618 205 Z M579 190 L578 190 L577 194 L571 202 L561 207 L549 207 L540 203 L533 196 L531 192 L530 192 L530 194 L533 199 L540 205 L550 209 L560 209 L571 204 L577 198 L579 194 Z M571 180 L569 181 L569 184 L566 189 L558 194 L548 193 L544 191 L539 186 L537 181 L536 183 L537 186 L542 192 L549 195 L557 196 L563 194 L569 188 L571 184 Z M569 139 L570 138 L577 138 L581 140 L580 141 L574 141 Z M586 135 L587 134 L589 135 L588 136 Z M506 134 L507 133 L511 133 L514 135 L511 136 Z M543 132 L546 134 L551 141 L550 145 L547 148 L539 141 L539 137 Z M518 133 L519 131 L525 131 L526 132 L524 134 L519 134 Z M503 132 L504 131 L506 132 L505 133 Z M558 129 L559 128 L560 129 L559 130 Z M506 131 L508 128 L520 128 L521 129 L517 130 L514 133 Z M559 128 L561 126 L564 127 L563 129 Z M568 129 L569 126 L576 124 L582 124 L585 126 L585 128 L581 130 L573 130 L572 131 Z M566 125 L567 124 L568 125 L567 126 Z M585 124 L586 123 L593 123 L595 125 L590 128 L588 128 Z M567 124 L568 123 L570 124 L569 125 Z M508 124 L509 123 L529 123 L530 124 L527 126 L511 126 Z M504 124 L505 123 L506 124 L505 125 Z M480 123 L481 122 L500 122 L503 126 L502 127 L487 127 L481 125 Z M614 124 L609 129 L593 134 L591 133 L590 134 L589 133 L571 134 L574 135 L566 138 L568 141 L579 143 L582 142 L583 139 L578 137 L582 136 L593 139 L597 142 L597 145 L595 147 L584 150 L578 150 L565 147 L554 141 L543 130 L535 137 L519 141 L512 141 L511 142 L496 140 L491 136 L496 132 L502 132 L503 133 L502 135 L505 137 L523 136 L528 134 L529 130 L526 128 L531 125 L543 127 L543 125 L538 125 L537 124 L538 123 L564 123 L565 124 L564 125 L560 125 L555 129 L555 131 L567 131 L568 132 L579 132 L580 131 L589 130 L597 126 L598 122 L612 121 Z M764 94 L776 95 L785 103 L789 111 L792 121 L792 126 L794 133 L794 144 L795 145 L796 191 L795 192 L794 204 L788 218 L782 224 L774 227 L766 227 L758 225 L744 216 L728 199 L722 189 L719 180 L719 166 L722 154 L735 126 L749 106 L757 98 Z M288 92 L296 92 L303 95 L310 100 L320 111 L332 127 L342 143 L349 156 L356 175 L357 190 L354 200 L349 210 L334 225 L323 231 L316 233 L303 234 L302 233 L297 233 L288 229 L280 221 L275 211 L271 195 L270 180 L269 179 L269 166 L268 165 L269 125 L270 124 L271 114 L276 102 L282 95 Z M766 91 L756 96 L745 107 L734 123 L728 136 L726 138 L718 159 L717 169 L716 170 L716 178 L719 188 L726 200 L743 218 L755 226 L764 229 L775 229 L781 227 L789 220 L795 208 L796 200 L797 199 L797 193 L798 192 L798 156 L797 155 L796 131 L790 107 L786 101 L780 95 L775 92 Z M287 90 L282 92 L275 99 L270 109 L268 117 L267 130 L266 131 L266 172 L267 173 L267 183 L268 184 L269 197 L275 217 L279 223 L287 231 L296 235 L312 236 L313 235 L321 234 L332 229 L339 224 L349 214 L353 208 L359 192 L359 178 L354 161 L347 147 L338 132 L323 111 L306 94 L297 90 Z M764 62 L757 65 L743 77 L732 90 L721 107 L709 131 L703 147 L699 163 L698 178 L699 178 L700 167 L707 142 L722 110 L732 94 L744 79 L756 68 L764 63 Z M294 57 L294 59 L303 63 L312 70 L326 84 L341 103 L355 125 L366 147 L372 164 L374 166 L373 159 L368 146 L353 117 L343 102 L327 82 L315 70 L303 61 Z M285 48 L296 45 L311 48 L345 67 L380 90 L385 92 L399 101 L412 107 L432 112 L441 113 L446 115 L450 115 L459 118 L463 118 L468 120 L477 121 L478 124 L481 127 L489 129 L497 129 L498 130 L497 131 L492 132 L489 136 L494 141 L501 143 L517 143 L518 142 L528 141 L536 138 L538 143 L546 150 L551 146 L553 142 L563 148 L574 151 L587 151 L594 149 L599 146 L599 142 L596 139 L589 136 L592 134 L594 135 L595 134 L600 134 L611 130 L616 125 L615 121 L616 120 L625 119 L636 115 L639 115 L642 113 L666 105 L680 98 L702 84 L736 59 L753 51 L769 50 L775 52 L786 61 L794 73 L800 88 L807 118 L807 124 L808 125 L809 138 L810 139 L810 147 L811 148 L812 172 L813 173 L813 189 L814 190 L814 219 L813 220 L813 227 L799 283 L797 302 L796 303 L796 318 L795 319 L792 312 L777 295 L762 281 L757 278 L752 273 L752 271 L743 262 L732 254 L720 243 L721 241 L719 239 L713 237 L712 234 L710 233 L710 230 L705 228 L701 228 L700 226 L702 225 L702 223 L700 222 L692 222 L691 221 L694 219 L694 217 L692 216 L683 216 L682 215 L683 214 L682 211 L678 210 L665 213 L664 211 L668 207 L668 205 L664 205 L652 209 L651 208 L657 204 L657 202 L643 208 L642 204 L645 200 L639 200 L628 204 L620 209 L619 207 L623 200 L622 199 L611 205 L605 211 L604 209 L608 203 L608 201 L592 211 L583 220 L578 232 L574 236 L567 238 L564 237 L560 233 L560 227 L563 224 L567 224 L570 227 L569 231 L564 226 L565 230 L568 233 L572 231 L572 227 L569 223 L562 222 L558 227 L559 235 L562 238 L569 240 L576 237 L578 235 L580 236 L603 223 L615 219 L621 219 L622 218 L633 218 L634 217 L637 218 L651 218 L652 219 L662 220 L678 225 L696 233 L725 252 L736 263 L766 287 L788 310 L792 317 L796 320 L797 345 L798 346 L798 352 L799 353 L803 386 L804 387 L804 397 L805 398 L806 418 L807 419 L807 431 L808 432 L808 447 L809 448 L810 471 L811 472 L812 488 L813 489 L813 515 L812 516 L811 526 L804 554 L802 558 L801 565 L795 582 L795 585 L790 597 L789 603 L786 609 L781 626 L772 647 L761 679 L751 719 L749 723 L747 734 L736 765 L728 781 L715 800 L700 817 L689 827 L687 825 L689 819 L690 807 L692 802 L692 798 L697 778 L699 759 L700 758 L701 736 L700 735 L700 725 L698 720 L698 716 L696 710 L688 696 L675 684 L664 678 L650 673 L646 673 L635 670 L622 669 L621 668 L622 667 L641 666 L640 664 L638 665 L631 665 L630 666 L611 666 L610 667 L602 667 L601 666 L549 667 L548 668 L535 668 L534 669 L511 671 L510 672 L489 676 L474 681 L460 688 L449 696 L441 704 L431 718 L422 737 L416 759 L415 795 L416 796 L417 810 L420 822 L424 831 L423 833 L410 825 L397 815 L373 792 L359 774 L348 756 L341 741 L337 727 L337 721 L336 720 L336 671 L335 670 L334 658 L329 642 L329 639 L320 612 L318 609 L318 606 L316 603 L316 600 L308 577 L307 569 L302 551 L299 532 L297 527 L295 513 L294 512 L293 500 L292 499 L291 466 L292 465 L292 445 L293 444 L294 383 L293 382 L293 364 L292 363 L291 343 L285 319 L285 315 L280 295 L278 291 L278 288 L276 284 L276 281 L268 258 L268 255 L266 252 L258 228 L256 215 L255 214 L255 208 L254 207 L254 197 L253 196 L252 134 L253 133 L253 120 L254 119 L254 111 L255 110 L257 93 L261 79 L267 66 L272 59 L279 52 Z M286 45 L279 49 L266 63 L259 78 L254 95 L252 114 L251 115 L250 149 L249 150 L251 202 L252 203 L252 210 L253 211 L253 216 L256 229 L269 266 L269 269 L278 296 L283 316 L283 320 L285 325 L285 329 L288 340 L289 353 L290 354 L290 366 L291 367 L291 436 L290 437 L290 459 L289 460 L289 492 L290 493 L291 508 L294 519 L294 524 L297 533 L300 552 L302 557 L302 561 L304 566 L304 570 L306 574 L310 591 L319 616 L319 619 L325 634 L325 637 L328 644 L331 656 L330 657 L317 657 L316 658 L313 672 L311 676 L311 680 L309 684 L299 724 L294 739 L294 743 L287 766 L281 793 L279 797 L267 848 L263 860 L284 1258 L286 1260 L787 1262 L788 1241 L789 1240 L789 1226 L790 1225 L790 1209 L791 1208 L791 1193 L792 1192 L792 1178 L793 1177 L793 1162 L794 1161 L794 1146 L795 1145 L795 1130 L796 1129 L796 1115 L797 1114 L797 1100 L798 1099 L798 1084 L799 1083 L799 1068 L800 1067 L800 1053 L801 1052 L801 1038 L802 1037 L802 1023 L803 1022 L803 1008 L804 1007 L804 992 L805 991 L805 977 L806 976 L806 961 L807 960 L807 945 L808 944 L808 927 L809 926 L809 910 L810 909 L812 863 L811 862 L810 851 L809 850 L808 840 L807 839 L805 824 L803 818 L803 813 L800 802 L800 797 L797 786 L797 781 L795 775 L795 770 L793 764 L789 737 L786 726 L786 721 L783 710 L783 705 L779 689 L775 661 L770 658 L785 621 L801 573 L806 552 L808 548 L808 544 L811 536 L811 532 L815 517 L815 509 L816 508 L815 486 L814 485 L813 468 L812 467 L812 456 L811 455 L808 403 L807 402 L806 384 L805 383 L804 370 L802 363 L802 357 L801 356 L801 350 L799 342 L799 329 L798 328 L798 308 L799 307 L800 290 L816 223 L816 185 L815 184 L815 168 L814 167 L814 156 L813 155 L813 145 L812 144 L810 122 L809 121 L809 116 L808 115 L808 110 L806 105 L805 97 L798 76 L789 61 L782 54 L776 50 L762 47 L761 48 L755 48 L738 55 L716 70 L698 84 L681 95 L665 103 L638 113 L612 119 L602 119 L601 120 L580 120 L579 121 L509 121 L508 120 L486 120 L485 119 L476 119 L475 118 L460 116 L408 103 L386 91 L333 57 L314 47 L301 43 L293 43 Z" fill="#eef3f4" fill-rule="evenodd"/>
</svg>
