<svg xmlns="http://www.w3.org/2000/svg" width="1122" height="1402" viewBox="0 0 1122 1402">
  <title>0438</title>
  <path d="M264 1221 L265 1220 L267 1221 L266 1222 Z M663 1158 L664 1157 L665 1158 L664 1159 Z M547 1152 L548 1151 L549 1152 L548 1153 Z M669 1147 L669 1150 L661 1159 L658 1160 L634 1162 L633 1163 L623 1163 L622 1164 L614 1164 L613 1165 L605 1165 L604 1166 L582 1168 L581 1169 L577 1168 L593 1152 L633 1151 L634 1150 L655 1149 L666 1146 Z M851 1141 L850 1143 L851 1144 L851 1150 L853 1158 L855 1161 L855 1164 L863 1181 L868 1188 L877 1196 L888 1202 L896 1204 L904 1204 L909 1202 L909 1201 L908 1202 L895 1202 L888 1200 L878 1195 L872 1189 L873 1188 L872 1189 L867 1184 L858 1168 L854 1156 Z M741 1137 L726 1144 L714 1147 L699 1153 L678 1156 L677 1157 L671 1157 L670 1158 L665 1158 L664 1157 L670 1151 L671 1148 L686 1147 L687 1146 L701 1145 L702 1144 L710 1144 L731 1139 L738 1136 Z M266 1220 L280 1207 L285 1200 L293 1185 L296 1176 L303 1162 L309 1153 L319 1143 L332 1137 L336 1137 L337 1136 L355 1136 L359 1138 L370 1139 L406 1149 L421 1151 L427 1153 L439 1154 L440 1155 L447 1155 L448 1156 L463 1156 L464 1157 L498 1157 L499 1156 L510 1167 L509 1168 L499 1168 L498 1169 L476 1169 L475 1170 L454 1169 L453 1168 L447 1168 L441 1166 L436 1166 L430 1164 L415 1162 L411 1160 L394 1157 L365 1149 L358 1149 L357 1148 L342 1149 L330 1154 L319 1163 L318 1162 L319 1163 L312 1172 L303 1190 L293 1203 L276 1218 L270 1221 Z M740 1136 L741 1135 L744 1136 L743 1137 Z M743 1135 L744 1134 L746 1135 L745 1136 Z M745 1134 L746 1133 L748 1134 L747 1135 Z M748 1133 L749 1132 L751 1133 L750 1134 Z M751 1132 L752 1131 L753 1132 L752 1133 Z M769 1126 L773 1124 L776 1124 L783 1121 L799 1117 L811 1117 L823 1122 L832 1131 L837 1140 L837 1143 L839 1147 L839 1172 L840 1173 L841 1183 L843 1189 L849 1199 L859 1209 L868 1214 L874 1215 L881 1218 L900 1219 L901 1220 L887 1224 L855 1224 L845 1219 L835 1209 L823 1190 L815 1172 L807 1145 L802 1136 L796 1131 L782 1126 L770 1127 Z M311 1071 L308 1073 L302 1087 L302 1091 L300 1094 L299 1107 L296 1115 L296 1121 L297 1121 L301 1107 L303 1090 L306 1083 L306 1080 Z M408 1040 L409 1039 L410 1040 L409 1041 Z M537 1037 L547 1042 L565 1047 L585 1046 L597 1042 L602 1038 L603 1039 L601 1082 L600 1083 L600 1090 L599 1091 L598 1111 L597 1112 L597 1120 L596 1121 L596 1127 L594 1135 L593 1149 L574 1168 L573 1167 L573 1148 L572 1151 L572 1168 L571 1169 L569 1169 L561 1163 L560 1164 L565 1168 L564 1169 L511 1168 L510 1167 L511 1166 L501 1157 L502 1156 L528 1156 L529 1155 L530 1156 L531 1155 L543 1155 L546 1154 L549 1155 L556 1161 L555 1158 L551 1154 L549 1147 L548 1136 L544 1120 L544 1113 L543 1112 L542 1101 L540 1094 L539 1076 L538 1075 L538 1061 L537 1060 L537 1048 L536 1047 L536 1038 Z M497 1030 L505 1029 L506 1028 L514 1028 L525 1031 L534 1036 L535 1054 L536 1055 L536 1063 L537 1064 L538 1091 L539 1092 L540 1105 L541 1106 L544 1129 L545 1130 L547 1146 L548 1147 L548 1151 L545 1153 L529 1153 L528 1154 L501 1154 L500 1153 L500 1143 L499 1142 L499 1133 L498 1132 L498 1123 L497 1122 L496 1103 L495 1102 L495 1085 L494 1084 L494 1043 L493 1042 L493 1033 Z M661 1031 L663 1033 L665 1095 L666 1096 L666 1112 L667 1113 L667 1134 L668 1135 L669 1144 L668 1145 L660 1145 L656 1147 L646 1147 L645 1148 L595 1150 L594 1146 L597 1134 L596 1132 L598 1126 L598 1119 L599 1118 L599 1111 L600 1110 L600 1098 L601 1097 L603 1067 L604 1066 L604 1048 L605 1047 L605 1039 L604 1038 L616 1030 L629 1025 L643 1025 Z M741 1017 L741 1019 L738 1024 L735 1024 L728 1020 L740 1016 Z M740 1016 L741 1015 L742 1016 L741 1017 Z M542 1005 L543 1004 L544 1005 L543 1006 Z M180 1000 L181 999 L182 1000 L181 1001 Z M736 1026 L730 1031 L723 1034 L715 1036 L702 1037 L701 1036 L683 1036 L682 1035 L677 1035 L669 1033 L664 1030 L652 1026 L651 1025 L652 1024 L649 1025 L643 1023 L628 1023 L615 1028 L593 1042 L585 1044 L579 1044 L578 1045 L567 1045 L566 1044 L556 1043 L547 1040 L528 1030 L516 1026 L504 1026 L496 1028 L479 1039 L469 1043 L467 1045 L455 1048 L450 1048 L449 1049 L429 1049 L415 1045 L409 1041 L410 1040 L418 1039 L431 1032 L447 1020 L459 1009 L467 1005 L474 999 L487 994 L504 994 L520 999 L557 1018 L563 1020 L568 1020 L600 1003 L623 994 L632 993 L633 992 L654 992 L655 993 L660 993 L686 1001 Z M607 981 L601 989 L605 985 Z M515 968 L515 970 L520 980 L527 989 L543 1006 L545 1005 L547 1006 L544 1002 L537 998 L525 985 L518 973 L515 970 Z M1015 945 L1020 961 L1012 969 L998 979 L977 988 L973 988 L968 990 L966 989 L966 983 L968 979 L973 978 L986 971 L988 971 L1004 962 L1011 951 L1012 945 L1013 944 Z M885 929 L884 930 L892 945 L896 961 L896 984 L895 985 L895 990 L890 1007 L881 1024 L875 1032 L854 1053 L866 1044 L878 1031 L887 1017 L895 997 L897 989 L897 984 L898 983 L898 960 L893 943 Z M511 928 L509 935 L509 950 L510 951 L510 959 L513 965 L512 955 L510 949 Z M252 919 L253 918 L254 920 L253 921 Z M253 918 L254 917 L255 918 L254 919 Z M534 889 L532 896 L527 905 L515 917 L513 917 L501 924 L498 924 L494 926 L475 927 L477 928 L492 928 L500 925 L503 925 L518 917 L525 910 L530 903 L534 895 Z M758 874 L759 873 L763 873 L764 874 L763 875 L759 875 Z M751 873 L752 872 L756 872 L757 873 L756 874 L752 874 Z M957 871 L958 872 L957 875 L956 874 Z M956 866 L957 867 L956 871 L955 870 Z M697 865 L698 864 L699 865 L698 866 Z M696 864 L697 863 L698 864 L697 865 Z M368 864 L369 863 L373 864 L372 865 Z M695 863 L696 862 L697 863 L696 864 Z M530 863 L531 862 L532 863 L531 864 Z M448 863 L449 862 L451 863 L450 864 Z M450 862 L451 861 L452 862 L451 863 Z M451 861 L452 860 L453 861 L452 862 Z M459 856 L460 855 L461 856 L460 857 Z M461 855 L462 854 L463 855 L462 856 Z M463 854 L464 853 L465 854 L464 855 Z M465 853 L466 852 L467 853 L466 854 Z M956 825 L957 824 L958 825 L957 826 Z M707 817 L708 816 L709 817 L708 818 Z M816 815 L817 817 L814 820 L813 818 Z M705 816 L706 815 L708 816 L707 817 Z M270 816 L274 815 L284 820 L286 820 L331 848 L355 859 L369 863 L368 864 L363 864 L342 857 L323 847 L290 825 Z M816 815 L817 814 L818 815 L817 816 Z M811 815 L812 814 L813 815 L812 816 Z M704 815 L705 814 L706 815 L705 816 Z M267 815 L268 814 L271 815 L270 816 Z M817 814 L818 813 L819 814 L818 815 Z M812 814 L813 813 L814 814 L813 815 Z M702 814 L703 813 L704 814 L703 815 Z M265 814 L266 813 L268 814 L267 815 Z M813 813 L814 812 L815 813 L814 814 Z M701 813 L702 812 L703 813 L702 814 Z M346 813 L347 812 L348 813 L347 814 Z M814 812 L815 811 L816 812 L815 813 Z M700 812 L701 811 L702 812 L701 813 Z M866 811 L867 810 L869 811 L868 812 Z M815 811 L816 810 L817 811 L816 812 Z M698 811 L699 810 L700 811 L699 812 Z M343 811 L345 810 L347 812 L345 813 Z M869 810 L870 809 L871 810 L870 811 Z M816 810 L817 809 L818 810 L817 811 Z M697 810 L698 809 L699 810 L698 811 Z M342 810 L343 809 L344 810 L343 811 Z M219 815 L219 816 L235 811 L247 811 L248 812 L261 814 L289 826 L326 850 L349 861 L367 866 L393 866 L397 865 L396 864 L394 865 L385 865 L379 863 L369 862 L343 853 L318 839 L296 824 L278 815 L272 814 L269 812 L250 811 L249 810 L239 810 L237 811 L236 810 L235 811 L226 812 Z M817 809 L818 808 L819 809 L818 810 Z M696 809 L697 808 L698 809 L697 810 Z M341 809 L342 808 L343 809 L342 810 Z M783 808 L784 807 L786 808 L785 809 Z M695 808 L696 807 L697 808 L696 809 Z M340 808 L341 807 L342 808 L341 809 Z M786 807 L787 806 L788 807 L787 808 Z M694 807 L695 806 L696 807 L695 808 Z M339 807 L340 806 L341 807 L340 808 Z M338 806 L339 805 L340 806 L339 807 Z M924 812 L916 808 L904 805 L887 805 L886 806 L883 805 L881 807 L880 806 L874 806 L864 809 L853 815 L842 823 L833 831 L826 840 L811 855 L804 860 L792 866 L789 866 L786 868 L778 870 L772 870 L771 871 L752 871 L751 870 L745 871 L744 870 L739 870 L724 865 L708 857 L713 861 L719 863 L721 865 L729 867 L731 869 L749 875 L768 876 L769 875 L777 875 L778 874 L787 874 L806 866 L816 859 L829 846 L838 835 L815 858 L805 865 L797 869 L783 873 L778 873 L777 874 L766 874 L765 873 L766 872 L775 872 L791 868 L803 862 L813 855 L843 824 L854 816 L864 811 L866 812 L864 814 L857 817 L847 825 L846 827 L862 816 L884 808 L904 807 L905 808 L913 809 L922 813 L924 813 Z M823 802 L824 801 L825 802 L824 803 Z M333 802 L334 801 L335 802 L334 803 Z M824 801 L825 800 L826 801 L825 802 Z M332 801 L333 800 L334 801 L333 802 Z M825 800 L826 799 L827 800 L826 801 Z M331 800 L332 799 L333 800 L332 801 Z M809 795 L807 799 L798 808 L795 808 L788 815 L779 821 L773 823 L771 825 L763 827 L753 827 L752 826 L777 815 L779 815 L783 812 L785 812 L797 805 L808 794 Z M349 795 L350 794 L351 795 L350 796 Z M325 795 L326 794 L327 795 L326 796 Z M808 794 L809 793 L810 794 L809 795 Z M348 794 L349 793 L350 794 L349 795 Z M324 794 L325 793 L326 794 L325 795 Z M809 793 L810 792 L811 793 L810 794 Z M175 792 L176 795 L158 832 L145 854 L137 862 L133 864 L126 864 L125 863 L141 846 L149 832 L149 829 L152 822 Z M321 791 L322 790 L323 791 L322 792 Z M175 791 L176 790 L177 792 L176 793 Z M847 789 L845 789 L841 792 L842 793 Z M176 789 L177 788 L178 790 L177 791 Z M290 789 L295 790 L302 794 L295 790 L293 790 L291 788 Z M315 786 L316 785 L317 786 L316 787 Z M258 787 L267 787 L268 786 L278 786 L281 787 L282 786 L260 786 Z M180 782 L181 781 L182 782 L181 783 Z M181 780 L182 779 L183 780 L182 781 Z M182 778 L183 777 L184 778 L183 779 Z M843 776 L844 775 L845 776 L844 777 Z M302 775 L303 774 L304 775 L303 776 Z M827 747 L828 746 L829 747 L828 748 Z M564 746 L562 800 L561 801 L561 822 L560 823 L559 851 L558 852 L558 864 L557 865 L557 877 L556 878 L555 900 L554 901 L554 916 L553 917 L553 953 L554 954 L556 978 L559 990 L562 997 L564 1008 L567 1013 L567 1015 L568 1015 L565 1008 L564 1001 L562 997 L562 993 L560 989 L559 980 L557 975 L556 960 L555 959 L555 946 L554 945 L555 907 L556 906 L559 858 L560 857 L560 844 L561 843 L561 827 L562 826 L562 815 L563 814 L564 767 L565 766 L565 747 Z M566 739 L567 738 L568 739 L567 740 Z M568 729 L569 728 L570 729 L569 730 Z M526 727 L527 726 L528 727 L527 728 Z M848 720 L849 719 L850 721 L849 722 Z M601 719 L602 718 L604 719 L603 720 Z M695 717 L696 716 L697 717 L696 718 Z M696 715 L697 714 L698 715 L697 716 Z M719 705 L726 708 L733 716 L738 731 L738 742 L737 743 L737 749 L734 760 L725 777 L718 782 L708 783 L702 775 L695 760 L691 742 L689 740 L689 729 L693 719 L695 717 L696 719 L706 708 L713 705 Z M526 725 L528 721 L541 709 L550 704 L562 701 L581 702 L596 712 L602 718 L601 719 L598 718 L586 718 L578 721 L568 727 L566 727 L564 725 L548 718 L540 719 L528 727 Z M477 701 L478 700 L479 701 L478 702 Z M808 699 L832 699 L835 698 L838 700 L841 700 L844 703 L848 711 L848 721 L849 724 L847 729 L835 741 L825 747 L824 746 L824 742 L822 739 L822 736 L816 723 L806 709 L801 704 Z M476 699 L477 698 L478 699 L477 700 Z M614 751 L606 742 L596 736 L587 733 L579 733 L568 739 L567 738 L567 735 L571 729 L580 722 L586 720 L598 720 L608 724 L605 719 L596 710 L586 703 L580 700 L569 699 L568 698 L567 699 L560 699 L552 701 L538 709 L526 721 L525 727 L523 731 L525 731 L536 723 L541 721 L551 721 L564 727 L567 730 L565 735 L565 740 L563 741 L560 738 L553 735 L541 737 L532 742 L522 752 L520 756 L530 746 L541 739 L553 737 L560 740 L565 744 L572 738 L579 735 L587 735 L599 739 L605 743 L614 752 Z M474 696 L475 695 L476 696 L475 697 Z M755 682 L756 681 L759 682 L758 683 Z M728 681 L733 681 L734 682 L733 683 L729 683 L731 684 L739 684 L740 683 L741 684 L744 683 L760 684 L758 683 L759 682 L763 682 L774 686 L785 692 L804 710 L810 718 L817 730 L817 732 L820 737 L821 745 L822 746 L822 762 L817 780 L803 796 L789 804 L779 807 L768 808 L767 809 L747 808 L731 803 L725 800 L718 795 L709 786 L710 785 L716 785 L722 782 L727 777 L733 766 L739 750 L739 727 L733 713 L724 705 L717 703 L712 703 L710 705 L700 709 L694 715 L689 723 L689 726 L687 729 L688 743 L696 767 L699 771 L699 773 L704 782 L718 797 L724 801 L743 809 L751 810 L752 811 L769 811 L781 808 L784 809 L769 817 L746 825 L735 825 L734 824 L726 823 L709 815 L702 810 L692 800 L681 782 L676 769 L675 760 L674 759 L674 748 L673 745 L675 737 L675 730 L680 716 L685 708 L693 699 L703 691 L720 683 Z M734 681 L735 680 L753 680 L754 681 L753 682 L735 682 Z M393 677 L385 679 L375 684 L364 694 L360 700 L360 702 L358 704 L354 714 L352 732 L353 733 L354 745 L358 755 L362 761 L372 771 L389 779 L405 780 L420 774 L415 774 L409 777 L403 777 L402 778 L395 778 L394 777 L385 776 L372 769 L361 757 L357 749 L354 738 L354 721 L358 707 L363 698 L371 689 L378 684 L380 684 L385 681 L389 681 L394 679 L408 679 L412 680 L425 687 L432 694 L437 701 L443 715 L444 733 L443 734 L443 739 L438 751 L435 756 L422 770 L431 763 L438 754 L442 746 L445 736 L445 717 L438 700 L433 693 L426 686 L413 679 L405 677 Z M271 674 L288 679 L293 682 L308 687 L310 689 L330 698 L326 703 L319 721 L319 735 L318 736 L315 734 L316 733 L315 734 L312 733 L297 723 L283 709 L274 696 L270 682 L270 675 Z M873 673 L874 672 L876 673 L875 674 Z M383 666 L407 667 L411 669 L417 670 L435 680 L447 692 L452 699 L458 711 L462 725 L462 738 L461 739 L461 746 L459 749 L458 757 L453 768 L448 775 L434 789 L428 793 L409 802 L406 802 L402 804 L396 804 L395 805 L384 805 L372 802 L361 798 L350 791 L333 773 L324 754 L321 741 L321 724 L322 723 L323 715 L327 706 L335 694 L353 677 L367 670 Z M887 663 L888 662 L889 663 L888 664 Z M888 662 L889 661 L890 662 L889 663 Z M754 662 L755 661 L757 662 L756 663 Z M745 661 L746 660 L750 660 L751 661 L750 662 L746 662 Z M891 658 L892 660 L890 662 L889 660 Z M675 670 L682 666 L684 666 L686 664 L708 658 L732 657 L733 658 L739 658 L746 660 L745 661 L715 661 L714 662 L705 663 L694 667 L684 673 L672 685 L664 695 L659 704 L658 703 L656 706 L651 724 L650 737 L649 738 L649 746 L650 747 L652 764 L654 771 L657 776 L657 779 L666 797 L680 817 L694 830 L710 840 L733 846 L748 846 L749 845 L760 844 L768 841 L771 841 L789 833 L811 815 L812 817 L810 819 L809 823 L813 819 L814 821 L807 829 L787 842 L775 847 L755 850 L754 851 L726 850 L705 843 L695 838 L683 830 L656 803 L641 781 L636 769 L634 753 L633 752 L634 751 L634 737 L640 713 L648 698 L659 683 Z M233 637 L234 636 L235 638 L234 639 Z M539 625 L540 626 L539 630 L538 629 Z M660 619 L661 618 L662 619 L661 620 Z M859 615 L860 614 L861 615 L860 616 Z M168 606 L169 607 L169 612 L168 613 L167 612 L167 607 Z M536 603 L537 604 L537 611 L538 612 L538 619 L539 620 L539 625 L538 626 L535 615 L535 604 Z M535 594 L536 595 L536 602 L535 603 L534 602 L534 595 Z M217 592 L218 591 L220 595 L221 604 L223 608 L225 618 L228 624 L229 632 L239 652 L253 665 L271 674 L268 675 L268 680 L269 681 L270 690 L274 700 L283 712 L295 724 L319 739 L320 755 L326 769 L332 778 L345 790 L345 792 L349 796 L352 795 L366 803 L376 806 L388 807 L389 808 L403 806 L413 803 L434 792 L442 785 L453 772 L460 759 L462 753 L463 741 L464 740 L464 724 L461 712 L449 691 L443 684 L433 676 L418 668 L402 664 L381 664 L380 665 L375 665 L357 672 L342 683 L331 695 L323 693 L304 683 L296 681 L286 676 L283 676 L280 674 L266 670 L258 666 L245 656 L236 644 L234 639 L235 638 L247 651 L265 663 L271 666 L288 671 L315 670 L320 668 L325 668 L331 663 L335 663 L341 661 L344 662 L343 661 L346 659 L349 659 L361 655 L371 654 L372 653 L383 653 L384 652 L398 652 L399 653 L405 653 L406 654 L423 657 L439 664 L453 674 L466 687 L473 697 L479 709 L485 731 L485 742 L486 744 L485 745 L485 755 L484 756 L483 765 L479 777 L473 789 L466 798 L453 810 L442 817 L434 821 L412 827 L390 827 L373 823 L353 814 L336 801 L296 765 L257 716 L242 692 L231 667 L225 648 L221 627 L220 626 L220 622 L219 621 L219 617 L218 616 Z M592 588 L597 605 L597 608 L595 610 L594 609 L595 606 L594 608 L593 607 L593 600 L591 594 L591 589 Z M242 587 L243 586 L244 588 L243 589 Z M563 585 L564 584 L565 585 L564 586 Z M241 585 L242 584 L243 585 L242 586 Z M591 583 L592 584 L591 588 L590 587 Z M622 582 L622 584 L619 589 L618 597 L615 605 L615 610 L613 614 L613 618 L609 630 L609 633 L606 639 L605 646 L600 658 L597 669 L587 687 L587 689 L597 671 L600 661 L603 656 L603 653 L605 650 L607 641 L610 635 L610 632 L614 621 L614 617 L616 613 L617 603 L623 583 Z M906 579 L907 580 L907 620 L906 621 L904 646 L899 667 L897 670 L897 673 L893 682 L891 683 L890 687 L880 701 L851 728 L850 725 L854 716 L856 704 L855 702 L854 704 L855 707 L852 714 L852 717 L850 720 L848 714 L848 709 L845 702 L842 699 L837 699 L836 698 L844 695 L849 695 L855 691 L856 692 L856 696 L857 696 L857 692 L860 689 L872 681 L892 662 L891 658 L894 656 L893 655 L897 650 L898 642 L900 637 L901 625 L902 624 L902 616 L903 615 L904 588 L905 587 L905 580 Z M589 578 L590 577 L591 579 L590 580 Z M584 570 L583 573 L585 571 Z M539 569 L542 576 L548 583 L556 586 L560 585 L564 586 L564 611 L563 612 L563 626 L562 627 L561 626 L561 618 L550 592 L545 587 L540 587 L536 583 L538 570 Z M584 558 L581 558 L575 562 L570 570 L567 578 L563 583 L556 584 L549 582 L542 573 L540 568 L540 561 L538 562 L536 566 L533 579 L532 603 L533 604 L534 620 L551 686 L552 685 L551 677 L548 668 L546 656 L539 634 L539 631 L541 627 L540 626 L538 592 L537 591 L537 587 L538 586 L539 588 L545 589 L549 593 L555 608 L557 610 L559 618 L559 623 L560 624 L560 629 L561 630 L561 639 L563 645 L564 687 L566 690 L566 694 L567 695 L568 691 L570 689 L572 674 L573 673 L574 637 L575 636 L575 626 L576 625 L576 617 L577 616 L576 612 L578 608 L577 606 L579 602 L580 594 L583 587 L580 591 L581 592 L579 593 L578 602 L577 603 L577 610 L575 617 L575 626 L574 627 L574 633 L572 640 L572 670 L571 671 L570 682 L568 688 L567 687 L567 679 L566 678 L565 637 L564 636 L565 606 L566 605 L566 592 L567 591 L566 581 L570 576 L576 563 L582 559 L586 562 L587 565 L586 569 L588 576 L588 584 L591 596 L592 607 L594 611 L594 634 L591 643 L591 647 L590 648 L589 647 L590 650 L588 652 L589 657 L588 658 L587 657 L587 661 L585 665 L585 672 L584 673 L583 683 L586 675 L589 660 L591 656 L592 647 L594 644 L594 638 L596 631 L596 610 L597 609 L600 616 L600 614 L601 613 L602 614 L601 620 L602 620 L601 619 L604 614 L604 612 L602 613 L601 609 L599 608 L599 605 L595 593 L593 579 L590 572 L590 568 L587 561 Z M499 528 L498 535 L500 540 L505 545 L519 552 L526 561 L527 569 L528 570 L528 576 L527 577 L527 583 L526 584 L524 599 L526 595 L526 591 L529 582 L529 567 L527 560 L524 555 L519 550 L507 544 L502 540 Z M157 522 L158 523 L157 526 L156 525 Z M932 513 L933 512 L934 513 L933 514 Z M579 513 L580 512 L581 513 L580 514 Z M581 512 L582 511 L583 512 L582 513 Z M992 498 L987 503 L980 522 L979 535 L978 536 L978 546 L977 547 L973 585 L972 586 L972 594 L971 595 L968 615 L963 631 L964 635 L967 627 L973 601 L973 596 L974 595 L974 588 L975 587 L977 561 L978 560 L979 547 L980 546 L982 522 L988 503 Z M930 493 L931 492 L932 493 L931 494 Z M931 492 L932 491 L933 492 L932 493 Z M932 490 L933 489 L934 491 L933 492 Z M507 490 L508 489 L509 490 L508 491 Z M933 489 L934 488 L935 489 L934 490 Z M506 488 L507 487 L508 489 L507 490 Z M934 487 L935 486 L936 487 L935 488 Z M935 485 L936 484 L937 485 L936 486 Z M606 484 L607 483 L608 484 L607 485 Z M611 480 L607 483 L605 482 L597 491 L597 492 L600 493 L601 496 L602 496 L607 489 Z M365 477 L369 489 L369 493 L367 498 L366 497 L366 491 L364 484 L364 478 Z M156 475 L157 474 L158 475 L157 476 Z M145 471 L154 481 L156 480 L159 481 L168 502 L158 523 L157 522 L157 509 L155 504 L155 500 L147 478 L144 473 Z M949 471 L950 470 L951 471 L950 472 Z M622 470 L621 470 L616 483 L619 480 Z M143 470 L144 469 L145 471 L144 472 Z M142 469 L143 468 L144 469 L143 470 Z M141 468 L142 467 L143 468 L142 469 Z M140 466 L141 465 L142 466 L141 467 Z M139 464 L140 463 L141 465 L140 466 Z M883 468 L877 463 L875 463 L871 467 L871 476 L870 477 L869 488 L863 499 L857 505 L860 504 L865 499 L870 490 L871 482 L872 481 L873 467 L875 464 L877 464 L882 469 L883 473 L886 477 L892 496 L894 524 L893 525 L893 540 L892 541 L890 560 L885 578 L877 595 L873 601 L864 610 L850 617 L839 618 L838 619 L822 618 L777 603 L756 599 L755 598 L743 597 L742 596 L732 596 L731 595 L707 597 L681 605 L668 611 L650 612 L642 609 L634 602 L630 594 L629 587 L627 583 L627 564 L625 564 L624 568 L625 583 L628 594 L633 603 L639 609 L645 612 L652 614 L662 614 L663 613 L664 615 L659 619 L661 621 L654 628 L653 631 L650 634 L636 660 L631 667 L629 673 L625 678 L625 680 L621 686 L620 694 L624 682 L628 678 L632 671 L632 669 L634 667 L636 668 L657 647 L670 639 L669 638 L655 647 L635 667 L634 666 L651 635 L656 629 L657 626 L662 621 L664 616 L668 612 L673 611 L678 608 L683 607 L688 604 L697 601 L710 599 L711 598 L721 598 L722 597 L743 598 L744 599 L751 599 L771 604 L775 604 L803 613 L809 616 L826 620 L843 620 L858 615 L860 616 L852 624 L844 630 L832 636 L829 636 L818 640 L810 640 L809 641 L780 640 L779 639 L767 638 L752 634 L731 632 L730 631 L713 631 L712 632 L695 634 L686 637 L702 635 L703 634 L710 634 L711 633 L736 633 L737 634 L744 634 L745 635 L750 635 L751 636 L755 636 L771 640 L776 640 L777 641 L784 641 L785 642 L814 642 L831 638 L847 630 L865 613 L865 611 L870 607 L879 595 L887 578 L893 556 L895 534 L896 533 L895 502 L889 479 Z M615 463 L616 462 L617 463 L616 464 Z M159 461 L160 462 L159 465 L158 464 Z M138 462 L139 461 L140 463 L139 464 Z M137 460 L138 459 L139 461 L138 462 Z M136 459 L137 458 L138 459 L137 460 Z M160 457 L161 458 L160 461 L159 460 Z M956 457 L957 456 L958 457 L957 458 Z M135 457 L136 456 L137 458 L136 459 Z M160 455 L161 454 L162 456 L161 457 Z M134 455 L135 454 L136 456 L135 457 Z M819 453 L820 452 L821 453 L820 454 Z M133 453 L134 452 L135 454 L134 455 Z M132 451 L133 450 L134 452 L133 453 Z M967 440 L968 439 L969 441 L968 442 Z M968 439 L969 438 L970 439 L969 440 Z M947 438 L948 439 L948 444 L947 445 L946 444 L946 439 Z M969 438 L970 437 L971 438 L970 439 Z M970 437 L971 436 L972 437 L971 438 Z M947 435 L948 434 L949 435 L948 436 Z M973 434 L974 433 L975 434 L974 435 Z M124 429 L133 448 L133 450 L132 451 L129 450 L129 452 L131 453 L135 462 L145 478 L154 502 L154 506 L155 507 L155 529 L154 532 L156 533 L154 540 L151 538 L142 520 L140 509 L138 505 L137 496 L134 487 L131 469 L128 461 L127 449 L125 445 L124 435 L123 434 L123 430 Z M122 428 L123 427 L124 428 L123 429 Z M949 424 L950 425 L950 430 L949 431 L948 430 L948 425 Z M345 425 L346 424 L347 425 L346 426 Z M344 423 L345 422 L346 423 L345 424 Z M982 421 L983 420 L984 421 L983 422 Z M983 420 L984 419 L985 420 L984 421 Z M590 419 L591 418 L592 419 L591 420 Z M587 419 L588 418 L589 419 L588 420 Z M519 419 L514 423 L507 437 L506 449 L505 450 L505 459 L506 460 L506 464 L508 467 L507 463 L507 446 L509 441 L509 437 L513 431 L512 429 Z M342 419 L343 418 L344 419 L343 420 Z M984 418 L985 417 L986 418 L985 419 Z M341 417 L342 416 L343 417 L342 418 Z M579 414 L580 413 L581 414 L580 415 Z M556 412 L563 412 L564 413 L574 414 L582 418 L584 421 L585 420 L589 423 L597 432 L602 443 L603 452 L604 453 L602 468 L596 481 L586 491 L579 495 L566 499 L551 499 L543 497 L537 493 L533 492 L525 485 L517 471 L516 461 L515 460 L516 449 L518 444 L517 441 L522 432 L532 422 L544 415 Z M516 413 L517 412 L518 413 L517 414 Z M517 412 L518 411 L519 412 L518 413 Z M518 411 L519 410 L520 411 L519 412 Z M578 411 L558 410 L557 411 L546 412 L543 414 L542 413 L538 413 L536 414 L538 416 L529 422 L523 428 L517 437 L516 445 L514 450 L514 464 L517 472 L517 475 L524 486 L529 491 L539 497 L554 501 L562 501 L563 500 L573 499 L587 492 L597 482 L600 477 L605 463 L604 445 L598 431 L588 420 L592 419 L596 423 L600 423 L600 422 L598 422 L590 417 L586 419 L580 415 L582 413 Z M207 410 L208 409 L210 410 L209 411 Z M209 409 L210 408 L212 409 L211 410 Z M526 406 L527 405 L528 406 L527 407 Z M239 398 L214 409 L211 408 L236 397 Z M840 415 L832 423 L825 434 L821 445 L820 452 L819 453 L818 452 L812 453 L809 455 L800 465 L797 471 L783 491 L769 505 L759 511 L750 512 L745 510 L740 504 L740 494 L742 492 L743 493 L742 496 L742 500 L743 500 L749 467 L761 434 L770 419 L792 397 L784 402 L772 414 L763 427 L756 441 L752 454 L750 457 L749 456 L750 460 L747 467 L744 480 L744 485 L743 486 L742 485 L735 485 L731 487 L711 507 L703 511 L690 511 L684 506 L683 503 L684 493 L682 490 L678 490 L669 497 L659 513 L649 522 L640 524 L633 521 L625 521 L618 525 L611 533 L606 544 L606 550 L604 557 L604 592 L605 590 L606 553 L607 552 L608 543 L610 541 L613 533 L621 525 L625 523 L631 522 L637 525 L642 526 L652 522 L661 513 L670 498 L679 491 L681 491 L683 493 L682 501 L681 502 L683 507 L688 512 L701 513 L707 511 L715 506 L731 489 L740 486 L741 489 L737 498 L739 507 L743 511 L748 513 L758 513 L769 507 L782 495 L795 477 L801 466 L809 457 L816 453 L818 454 L819 453 L821 457 L821 466 L822 467 L822 472 L824 480 L831 495 L840 504 L845 507 L853 507 L855 506 L845 505 L841 503 L833 496 L832 492 L827 484 L824 473 L824 464 L823 463 L823 456 L822 455 L823 447 L832 426 Z M238 397 L239 396 L242 397 L241 398 Z M241 396 L242 395 L245 396 L244 397 Z M939 379 L940 378 L941 379 L940 380 Z M938 377 L939 376 L940 377 L939 378 Z M937 376 L938 375 L939 376 L938 377 Z M169 376 L170 375 L171 376 L170 377 Z M325 375 L247 396 L244 395 L247 393 L259 390 L265 387 L272 386 L276 384 L308 376 L312 376 L317 374 L324 374 Z M936 374 L937 373 L938 374 L937 375 Z M170 375 L172 373 L174 374 L172 376 Z M935 373 L936 372 L937 373 L936 374 Z M173 373 L174 372 L175 373 L174 374 Z M174 372 L175 371 L176 372 L175 373 Z M175 371 L176 370 L177 371 L176 372 Z M993 488 L1001 500 L1004 508 L1004 512 L1005 513 L1005 535 L1004 536 L1004 543 L1003 544 L1003 550 L1001 558 L1001 567 L1000 568 L999 585 L998 586 L996 611 L995 612 L990 678 L989 679 L988 693 L987 694 L985 708 L980 724 L974 703 L973 704 L976 721 L978 725 L975 737 L975 742 L976 743 L973 747 L973 768 L974 769 L975 784 L980 803 L979 806 L956 761 L950 740 L949 728 L948 727 L948 702 L949 701 L949 695 L950 694 L951 684 L955 671 L958 655 L964 639 L963 637 L962 637 L957 651 L957 654 L955 658 L955 663 L951 676 L951 680 L947 696 L946 722 L947 723 L947 733 L948 734 L949 743 L955 763 L962 777 L962 779 L964 781 L977 807 L982 814 L991 843 L991 847 L993 852 L994 869 L995 870 L995 888 L994 889 L993 898 L995 895 L997 887 L997 873 L996 872 L995 853 L988 825 L983 813 L983 807 L979 793 L979 789 L977 783 L977 775 L975 768 L975 747 L977 745 L980 738 L980 735 L982 733 L989 748 L997 793 L1010 841 L1010 845 L1016 871 L1018 888 L1019 889 L1020 918 L1021 919 L1021 954 L1020 955 L1013 936 L1012 913 L1009 905 L1007 904 L1005 898 L1004 898 L1004 902 L1007 908 L1007 914 L1002 920 L993 917 L985 910 L981 900 L981 869 L976 857 L966 844 L961 839 L957 837 L970 852 L977 864 L979 871 L978 897 L981 907 L987 915 L992 919 L999 922 L1004 922 L1008 916 L1008 908 L1009 907 L1010 908 L1010 918 L1009 921 L1010 922 L1011 935 L1012 936 L1011 946 L1006 958 L1003 961 L1001 961 L996 965 L986 970 L984 970 L971 977 L969 977 L968 979 L967 978 L968 964 L969 963 L969 940 L968 939 L968 933 L966 929 L965 915 L964 914 L964 904 L963 903 L963 894 L962 893 L962 887 L959 874 L959 866 L958 865 L958 853 L959 852 L958 853 L957 852 L957 843 L954 833 L953 821 L954 820 L956 823 L956 829 L957 829 L958 825 L983 851 L985 850 L985 844 L984 843 L984 839 L983 843 L985 847 L983 848 L956 821 L947 803 L946 797 L944 794 L944 791 L941 785 L939 776 L937 773 L934 756 L933 755 L932 744 L930 738 L929 721 L928 720 L927 640 L926 639 L926 608 L925 607 L924 565 L923 564 L923 553 L922 552 L922 543 L921 542 L920 519 L919 518 L917 502 L915 502 L915 504 L916 505 L917 522 L918 523 L919 546 L920 547 L920 557 L921 558 L921 571 L922 572 L922 590 L923 591 L926 725 L927 726 L928 739 L930 745 L930 750 L931 751 L931 756 L932 757 L934 770 L951 819 L953 844 L954 845 L955 859 L956 860 L956 865 L955 866 L948 842 L944 834 L941 824 L932 806 L926 797 L917 787 L903 776 L892 770 L884 768 L872 768 L845 776 L844 775 L845 773 L851 767 L856 759 L847 768 L842 776 L828 792 L823 800 L800 822 L784 833 L769 840 L757 843 L746 844 L745 845 L737 845 L736 844 L725 843 L706 836 L694 828 L678 812 L669 799 L661 783 L657 773 L655 762 L652 754 L652 731 L658 710 L662 702 L669 692 L681 680 L683 680 L683 678 L687 674 L697 668 L708 665 L715 665 L716 664 L760 664 L761 665 L765 665 L764 664 L765 663 L770 665 L767 666 L771 665 L776 668 L777 667 L781 670 L783 669 L786 670 L785 669 L786 668 L789 668 L802 673 L814 676 L847 676 L848 675 L868 674 L869 673 L873 673 L874 674 L858 686 L857 685 L854 688 L852 688 L845 692 L828 696 L811 696 L807 697 L799 702 L791 694 L781 687 L767 681 L759 679 L754 679 L753 678 L731 678 L730 679 L726 679 L714 683 L704 688 L694 695 L685 704 L675 723 L671 739 L671 753 L672 754 L672 760 L675 773 L677 776 L679 784 L685 795 L694 805 L696 811 L700 815 L714 823 L718 822 L732 827 L750 828 L751 829 L766 828 L775 825 L784 820 L794 812 L800 809 L806 803 L814 792 L822 773 L824 759 L825 758 L825 751 L829 749 L847 732 L850 727 L852 728 L860 722 L874 708 L875 709 L875 717 L876 719 L870 729 L869 733 L861 747 L861 749 L876 723 L877 724 L878 739 L880 742 L880 745 L885 752 L879 734 L879 721 L877 714 L877 707 L892 689 L898 676 L906 646 L906 639 L908 631 L908 617 L909 616 L909 606 L908 605 L909 601 L909 585 L908 584 L908 556 L907 555 L907 515 L906 514 L906 508 L905 507 L905 503 L903 498 L903 491 L902 490 L902 471 L900 473 L900 492 L901 493 L901 498 L903 502 L903 510 L905 518 L906 579 L903 581 L902 585 L900 624 L899 625 L896 643 L890 656 L884 665 L880 669 L873 671 L855 672 L854 673 L840 673 L839 674 L816 674 L800 670 L804 668 L815 668 L816 667 L830 666 L834 664 L838 664 L847 661 L857 656 L874 641 L880 632 L880 630 L885 621 L892 601 L893 591 L895 585 L895 574 L896 573 L896 562 L895 560 L894 560 L895 566 L894 567 L894 578 L892 585 L892 591 L887 611 L883 619 L882 624 L880 626 L880 628 L871 642 L860 652 L843 661 L840 661 L828 665 L811 666 L810 667 L806 666 L805 667 L789 667 L783 665 L773 664 L767 661 L751 659 L740 656 L733 656 L732 655 L707 656 L694 659 L681 664 L666 674 L655 684 L643 701 L636 717 L634 725 L631 751 L632 752 L632 760 L633 761 L634 769 L640 783 L654 803 L670 821 L686 834 L699 842 L713 848 L730 852 L751 853 L752 852 L769 850 L793 841 L809 829 L819 817 L818 813 L834 795 L833 794 L827 800 L826 799 L836 785 L839 782 L843 781 L845 779 L852 776 L860 774 L866 771 L884 770 L900 776 L912 785 L927 801 L938 822 L939 827 L945 840 L955 876 L955 881 L958 894 L958 902 L959 903 L959 916 L960 917 L959 950 L958 951 L958 957 L957 958 L957 963 L956 964 L956 969 L955 970 L953 983 L951 986 L951 989 L942 1013 L935 1027 L929 1036 L926 1039 L917 1044 L904 1048 L900 1048 L896 1050 L892 1050 L876 1054 L853 1055 L838 1050 L822 1042 L810 1034 L801 1030 L783 1019 L770 1007 L765 1000 L759 988 L749 949 L747 946 L747 943 L745 940 L740 925 L733 910 L720 889 L698 866 L699 865 L702 866 L721 878 L746 891 L785 906 L793 908 L798 908 L799 909 L810 909 L811 910 L822 910 L823 909 L833 909 L834 908 L855 908 L867 912 L880 923 L872 914 L866 910 L855 906 L833 906 L832 907 L813 908 L812 907 L794 906 L782 903 L763 895 L758 894 L726 879 L705 867 L685 853 L649 831 L639 828 L629 828 L626 830 L621 831 L616 834 L614 837 L621 832 L627 831 L631 829 L637 829 L649 833 L679 851 L688 860 L694 864 L714 885 L727 904 L737 924 L746 948 L746 951 L749 958 L749 961 L752 969 L752 973 L755 980 L757 989 L765 1004 L782 1021 L827 1047 L839 1062 L847 1082 L847 1090 L848 1091 L847 1109 L848 1110 L848 1117 L849 1116 L849 1085 L848 1084 L848 1079 L840 1061 L831 1050 L833 1049 L840 1053 L854 1057 L865 1057 L866 1056 L876 1056 L877 1055 L893 1053 L901 1050 L915 1047 L924 1043 L932 1035 L938 1026 L948 1004 L953 990 L953 987 L955 984 L956 976 L958 971 L959 960 L960 959 L960 952 L961 951 L962 922 L963 921 L964 922 L964 929 L966 932 L966 936 L967 937 L967 962 L966 963 L966 970 L965 971 L965 978 L964 979 L964 1000 L963 1001 L963 1010 L962 1011 L962 1019 L961 1020 L961 1031 L959 1039 L958 1056 L956 1063 L956 1070 L954 1077 L953 1089 L951 1094 L951 1098 L945 1122 L923 1188 L918 1199 L917 1197 L915 1199 L917 1198 L918 1201 L914 1210 L908 1216 L887 1217 L886 1216 L877 1215 L862 1209 L852 1200 L847 1193 L842 1181 L841 1149 L837 1136 L832 1128 L825 1121 L817 1117 L809 1115 L796 1116 L780 1120 L770 1124 L766 1124 L763 1126 L740 1133 L737 1135 L715 1141 L705 1142 L704 1143 L697 1143 L696 1144 L687 1144 L686 1145 L675 1145 L674 1146 L671 1145 L670 1137 L669 1136 L669 1127 L668 1126 L668 1104 L667 1103 L667 1087 L666 1086 L666 1057 L665 1056 L664 1034 L665 1033 L671 1036 L682 1037 L683 1038 L716 1038 L727 1035 L740 1026 L746 1010 L746 999 L745 998 L745 991 L744 990 L742 971 L738 959 L737 952 L727 926 L722 917 L722 915 L720 913 L720 911 L714 902 L714 900 L701 883 L683 866 L658 849 L637 840 L624 840 L617 842 L609 847 L607 846 L601 859 L602 874 L606 883 L617 898 L624 917 L624 929 L625 932 L624 933 L623 944 L618 960 L619 960 L625 942 L626 919 L625 918 L624 910 L620 900 L605 879 L602 870 L602 862 L606 852 L612 846 L621 842 L633 841 L649 846 L674 861 L684 869 L699 884 L711 900 L727 932 L738 964 L738 968 L741 979 L741 985 L742 986 L743 1002 L744 1003 L743 1012 L741 1014 L740 1013 L739 1015 L725 1018 L697 1003 L682 997 L656 990 L638 989 L612 995 L569 1017 L562 1017 L556 1015 L554 1013 L552 1013 L524 998 L510 993 L506 993 L505 992 L485 992 L479 994 L465 1002 L444 1020 L429 1031 L414 1038 L406 1038 L399 1029 L395 1018 L394 1006 L393 1005 L394 984 L395 983 L397 967 L404 945 L413 927 L413 925 L423 909 L435 895 L455 877 L478 862 L497 854 L512 853 L522 857 L532 867 L535 878 L535 870 L533 867 L533 862 L530 855 L531 858 L531 862 L530 863 L526 858 L520 854 L518 854 L517 852 L513 852 L512 851 L502 851 L488 855 L472 863 L450 878 L432 895 L417 914 L410 926 L407 934 L405 936 L395 964 L395 968 L392 979 L392 987 L391 988 L391 1010 L395 1026 L402 1038 L412 1046 L422 1050 L426 1050 L427 1051 L448 1051 L449 1050 L460 1049 L465 1046 L473 1044 L485 1038 L490 1034 L492 1035 L491 1036 L491 1042 L492 1043 L493 1103 L494 1104 L494 1113 L495 1114 L496 1132 L498 1139 L498 1153 L499 1154 L498 1155 L461 1155 L460 1154 L449 1154 L448 1153 L441 1153 L440 1152 L433 1152 L421 1149 L416 1149 L411 1147 L393 1144 L377 1139 L369 1138 L364 1136 L359 1136 L358 1135 L352 1135 L351 1134 L333 1135 L324 1138 L319 1141 L309 1150 L302 1160 L283 1200 L273 1212 L261 1221 L259 1219 L259 1208 L260 1207 L260 1202 L264 1185 L266 1182 L271 1167 L278 1153 L292 1131 L292 1129 L290 1130 L279 1148 L266 1175 L260 1194 L260 1199 L258 1205 L258 1220 L259 1221 L255 1222 L243 1218 L240 1218 L230 1211 L226 1204 L226 1201 L222 1192 L220 1183 L218 1180 L213 1164 L210 1159 L205 1142 L201 1134 L201 1131 L196 1118 L194 1106 L192 1102 L182 1046 L179 1034 L175 1025 L179 1015 L181 1002 L182 1001 L183 1002 L185 1009 L195 1029 L203 1041 L215 1053 L229 1061 L251 1067 L281 1067 L282 1066 L295 1065 L312 1060 L331 1051 L342 1044 L351 1037 L365 1022 L371 1013 L380 993 L385 976 L385 972 L387 968 L387 964 L392 950 L392 947 L401 927 L401 925 L416 900 L436 878 L448 870 L449 867 L450 868 L453 864 L462 858 L480 849 L474 850 L469 853 L466 852 L489 838 L503 836 L514 839 L520 843 L529 853 L525 846 L514 838 L506 835 L490 836 L482 840 L471 848 L461 853 L451 860 L438 866 L436 868 L425 872 L416 877 L410 878 L395 885 L383 889 L380 889 L376 891 L369 892 L353 897 L341 898 L340 899 L304 899 L303 898 L286 899 L285 900 L277 901 L264 907 L256 913 L248 922 L239 939 L237 945 L236 953 L235 954 L235 961 L234 962 L234 971 L235 972 L235 979 L236 980 L237 989 L242 1003 L248 1015 L257 1028 L269 1040 L277 1046 L288 1052 L297 1054 L283 1048 L270 1039 L255 1023 L249 1014 L242 999 L236 975 L236 956 L237 955 L238 946 L241 940 L242 935 L249 923 L252 920 L253 921 L250 928 L249 938 L248 939 L248 949 L249 950 L250 961 L256 979 L264 995 L271 1006 L284 1022 L301 1037 L312 1044 L311 1042 L308 1041 L290 1026 L280 1015 L267 997 L258 980 L252 963 L251 954 L250 953 L250 945 L249 944 L250 943 L251 930 L257 917 L256 915 L260 911 L270 905 L285 901 L303 900 L304 899 L308 899 L314 901 L341 901 L342 900 L348 900 L365 896 L369 894 L380 892 L392 888 L394 886 L399 885 L424 875 L447 863 L449 864 L436 875 L422 889 L421 888 L422 889 L411 903 L404 914 L396 930 L395 935 L390 946 L385 966 L383 970 L380 985 L375 1000 L369 1012 L360 1025 L345 1039 L337 1045 L317 1056 L294 1063 L283 1064 L282 1065 L274 1065 L273 1066 L260 1066 L259 1065 L250 1065 L249 1064 L240 1063 L224 1057 L213 1049 L206 1042 L197 1029 L185 1005 L180 991 L180 988 L175 972 L173 957 L172 956 L171 940 L170 939 L170 911 L171 910 L171 902 L172 901 L172 896 L175 883 L183 861 L195 838 L206 823 L207 820 L225 798 L246 779 L248 780 L247 779 L257 772 L266 769 L282 769 L294 773 L306 780 L329 801 L336 806 L358 827 L357 828 L353 828 L351 826 L343 823 L317 805 L316 803 L309 798 L318 807 L344 825 L352 827 L358 830 L357 829 L359 828 L362 831 L368 834 L391 842 L407 843 L408 844 L427 843 L441 839 L457 832 L472 822 L482 813 L491 802 L503 780 L507 765 L507 759 L508 758 L508 742 L507 741 L506 726 L499 703 L491 688 L480 673 L466 659 L455 651 L440 643 L428 639 L415 637 L414 636 L406 636 L405 635 L376 636 L375 637 L368 637 L352 641 L328 643 L327 644 L326 643 L322 644 L306 643 L305 642 L300 642 L288 639 L272 630 L260 619 L248 602 L243 589 L244 588 L246 590 L252 600 L263 610 L276 617 L288 620 L308 620 L309 619 L315 619 L316 618 L324 617 L362 600 L365 600 L382 594 L393 593 L394 592 L402 592 L403 591 L430 592 L431 593 L450 595 L492 606 L502 607 L507 605 L513 631 L520 645 L520 647 L538 679 L548 694 L549 693 L532 666 L521 646 L512 623 L511 611 L508 604 L507 605 L491 604 L455 594 L437 592 L436 591 L429 591 L428 590 L409 589 L408 590 L389 591 L369 596 L352 603 L347 604 L338 610 L336 610 L331 613 L313 618 L285 618 L275 615 L263 608 L249 593 L243 582 L238 567 L238 563 L236 558 L236 552 L235 551 L234 531 L235 530 L235 521 L236 520 L236 515 L239 502 L243 494 L247 491 L253 504 L262 513 L271 517 L281 518 L287 516 L292 512 L296 505 L296 499 L294 497 L294 494 L291 495 L294 500 L294 504 L292 509 L287 514 L282 516 L273 516 L262 511 L253 501 L249 491 L245 490 L241 494 L238 500 L234 515 L234 521 L233 522 L233 552 L235 559 L236 574 L239 581 L242 593 L245 600 L247 602 L247 604 L256 617 L268 629 L275 634 L287 640 L301 644 L308 644 L309 645 L336 645 L337 644 L343 644 L344 643 L349 643 L350 642 L360 641 L366 639 L372 639 L373 638 L408 637 L409 638 L416 638 L429 641 L435 644 L440 645 L453 652 L463 659 L481 677 L491 691 L499 706 L502 719 L504 723 L504 728 L506 735 L506 761 L504 766 L504 770 L496 790 L483 809 L465 825 L454 832 L443 837 L437 838 L433 840 L427 840 L420 842 L402 842 L401 841 L390 840 L382 837 L379 837 L364 830 L360 827 L347 814 L348 813 L360 820 L376 826 L389 828 L390 829 L412 829 L432 824 L448 816 L455 811 L470 796 L477 786 L483 772 L487 757 L487 748 L488 747 L487 729 L481 708 L478 703 L479 701 L472 689 L462 678 L452 672 L439 662 L423 655 L410 652 L395 651 L394 650 L366 652 L349 656 L329 663 L326 665 L313 668 L308 668 L307 669 L283 668 L279 666 L276 666 L261 659 L247 649 L238 640 L228 621 L218 584 L218 560 L219 559 L219 553 L221 545 L221 537 L220 537 L220 544 L218 549 L217 564 L216 565 L215 607 L216 608 L216 615 L217 616 L219 632 L230 669 L242 695 L256 717 L291 762 L303 774 L301 775 L290 769 L278 766 L265 767 L256 770 L239 782 L211 811 L199 828 L195 836 L192 839 L183 856 L183 858 L179 865 L176 876 L174 879 L174 882 L170 894 L169 906 L168 907 L168 919 L167 920 L168 943 L169 944 L170 958 L173 968 L173 972 L179 992 L179 1003 L178 1004 L177 1014 L174 1022 L172 1023 L167 1021 L158 1021 L152 1019 L147 1019 L128 1012 L122 1006 L121 1003 L127 999 L131 991 L132 992 L132 999 L130 1004 L131 1005 L133 1002 L133 996 L134 995 L130 942 L131 941 L132 918 L133 917 L135 901 L140 885 L143 880 L146 871 L159 850 L166 841 L171 830 L173 822 L163 844 L145 869 L138 884 L138 887 L133 900 L133 904 L130 915 L130 921 L129 922 L129 930 L128 931 L128 957 L129 958 L129 965 L130 966 L130 980 L131 983 L129 987 L128 993 L126 997 L122 1001 L120 1000 L119 997 L119 986 L118 985 L118 937 L119 936 L119 920 L120 919 L120 903 L121 902 L120 862 L121 861 L126 866 L137 864 L148 853 L154 844 L176 800 L180 789 L185 781 L188 771 L188 767 L190 761 L191 744 L192 743 L192 692 L191 691 L191 652 L190 651 L190 570 L191 569 L192 539 L193 538 L193 529 L194 528 L194 518 L196 510 L196 503 L197 502 L199 488 L208 459 L212 453 L213 454 L212 457 L213 455 L212 453 L214 448 L208 454 L204 462 L204 465 L201 472 L201 476 L198 482 L195 500 L194 501 L194 506 L193 507 L192 524 L191 525 L191 533 L190 534 L189 558 L188 559 L188 581 L187 582 L187 633 L188 634 L189 701 L190 702 L190 737 L189 738 L188 755 L184 770 L176 787 L167 800 L152 818 L143 840 L130 856 L124 861 L123 860 L124 857 L122 854 L128 833 L128 826 L129 825 L129 788 L134 772 L142 754 L144 725 L143 724 L143 716 L142 715 L142 708 L141 707 L139 691 L135 675 L133 671 L133 668 L131 664 L127 643 L117 603 L117 597 L115 589 L115 580 L114 579 L114 569 L116 561 L122 554 L126 552 L132 553 L142 559 L150 567 L149 569 L150 568 L153 572 L159 585 L161 594 L164 601 L168 629 L171 641 L172 657 L173 658 L173 697 L171 703 L170 720 L168 728 L166 726 L162 710 L160 707 L160 704 L153 682 L153 678 L151 674 L150 667 L145 653 L145 650 L143 646 L143 643 L141 639 L136 619 L134 602 L133 601 L132 584 L130 578 L130 564 L128 566 L128 576 L129 577 L129 584 L130 585 L130 592 L131 593 L132 609 L139 637 L139 641 L146 661 L146 665 L150 675 L158 707 L160 710 L160 713 L164 722 L166 730 L167 743 L164 753 L165 754 L169 739 L172 710 L173 709 L173 702 L174 701 L174 692 L175 691 L175 660 L174 659 L174 651 L173 650 L173 643 L172 642 L170 594 L169 593 L170 527 L168 534 L168 548 L167 549 L167 589 L168 590 L168 605 L167 606 L160 583 L153 568 L145 559 L134 553 L133 551 L134 550 L142 550 L145 548 L153 546 L155 544 L159 531 L159 527 L170 503 L170 499 L173 493 L181 466 L188 452 L198 439 L210 429 L222 422 L239 414 L264 405 L265 407 L272 411 L285 425 L296 442 L296 444 L298 446 L307 466 L313 484 L312 485 L300 478 L300 464 L298 457 L297 484 L298 484 L300 480 L305 482 L315 489 L328 501 L338 506 L344 508 L355 509 L363 506 L368 501 L370 496 L370 486 L367 479 L368 475 L378 476 L399 493 L407 497 L415 498 L416 499 L422 498 L426 496 L430 491 L430 481 L431 480 L435 480 L439 483 L446 494 L457 503 L475 512 L481 514 L491 515 L497 520 L496 517 L492 514 L477 511 L460 503 L454 499 L445 490 L442 485 L434 478 L431 478 L428 480 L428 491 L423 496 L414 497 L402 493 L396 489 L389 482 L377 474 L368 473 L364 476 L363 475 L362 460 L360 457 L360 454 L358 451 L356 443 L349 428 L349 426 L339 408 L328 395 L341 414 L340 417 L343 422 L343 424 L348 434 L350 435 L349 436 L350 435 L354 443 L356 450 L356 455 L362 476 L364 496 L367 499 L362 505 L357 507 L348 507 L337 504 L329 500 L316 487 L313 479 L313 476 L307 461 L295 437 L283 420 L276 413 L269 409 L265 405 L268 403 L274 402 L281 399 L336 386 L361 383 L362 382 L374 381 L375 380 L381 380 L382 379 L389 379 L390 378 L426 375 L427 374 L434 374 L435 373 L454 372 L456 376 L468 388 L475 393 L493 401 L501 403 L506 403 L507 404 L516 404 L522 406 L515 411 L506 420 L496 438 L495 448 L494 449 L494 462 L495 463 L496 471 L498 477 L507 493 L520 506 L524 509 L537 515 L548 518 L558 519 L559 518 L568 518 L584 514 L598 506 L598 505 L584 512 L583 511 L585 509 L588 508 L594 503 L592 503 L587 507 L577 512 L575 512 L571 515 L567 515 L566 516 L549 516 L535 512 L520 502 L518 502 L512 497 L508 492 L509 490 L510 491 L510 489 L506 481 L504 470 L503 474 L507 486 L506 488 L500 478 L497 469 L496 445 L498 437 L502 428 L511 416 L516 413 L518 415 L532 405 L545 404 L546 403 L571 403 L572 402 L589 401 L601 408 L612 419 L620 433 L622 441 L622 449 L617 461 L616 460 L616 453 L613 443 L611 429 L609 424 L603 418 L602 421 L605 430 L608 433 L613 447 L613 473 L620 461 L622 452 L624 449 L623 437 L618 425 L610 414 L602 407 L591 401 L594 399 L610 394 L612 392 L621 388 L632 381 L644 369 L652 371 L661 371 L662 372 L671 372 L672 373 L681 373 L682 374 L714 377 L715 378 L721 378 L722 379 L728 379 L729 380 L753 383 L754 384 L764 385 L769 387 L794 392 L795 393 L793 394 L796 395 L794 394 L795 393 L799 393 L800 394 L810 395 L821 398 L827 398 L828 399 L849 403 L855 406 L846 410 L842 414 L856 406 L862 407 L868 410 L873 411 L895 423 L909 437 L915 446 L923 467 L926 488 L929 500 L930 512 L931 513 L931 522 L932 523 L935 557 L936 558 L936 567 L937 568 L938 599 L939 600 L939 685 L940 683 L940 670 L941 669 L941 593 L940 592 L939 565 L938 564 L938 557 L937 556 L937 546 L936 545 L936 537 L935 536 L933 514 L934 513 L941 514 L948 511 L978 480 L984 481 Z M176 370 L177 369 L178 370 L177 371 Z M362 368 L358 370 L354 370 L338 374 L330 374 L329 375 L325 375 L324 374 L328 372 L345 370 L356 367 L361 367 Z M177 369 L179 367 L181 368 L179 370 Z M361 367 L362 366 L366 366 L367 367 L366 368 L362 368 Z M180 367 L181 366 L182 367 L181 368 Z M366 366 L367 365 L371 365 L372 366 L371 367 L367 367 Z M181 366 L183 364 L185 365 L183 367 Z M648 364 L649 363 L650 365 L649 366 Z M379 364 L380 363 L381 364 L380 365 Z M184 364 L185 363 L186 364 L185 365 Z M649 363 L650 362 L651 363 L650 364 Z M384 363 L385 362 L388 363 L387 364 Z M185 363 L186 362 L188 363 L187 364 Z M194 359 L189 363 L187 362 L192 358 Z M452 369 L451 370 L442 370 L441 371 L432 371 L431 372 L423 372 L422 373 L413 373 L405 375 L389 376 L388 377 L374 378 L373 379 L341 383 L277 398 L249 408 L246 410 L241 411 L209 427 L202 432 L193 441 L181 460 L169 496 L167 495 L160 479 L160 469 L163 456 L169 443 L175 435 L183 427 L196 418 L211 411 L214 411 L225 407 L241 399 L320 378 L348 374 L366 369 L371 369 L372 368 L387 366 L404 362 L409 362 L410 361 L415 361 L416 360 L422 360 L433 357 L444 357 L445 356 Z M193 358 L195 356 L197 357 L195 359 Z M646 367 L648 365 L649 366 L656 366 L657 363 L655 360 L651 363 L650 362 L652 356 L654 354 L655 355 L667 355 L668 356 L674 356 L686 359 L726 364 L732 366 L743 367 L748 369 L767 371 L781 375 L800 378 L804 380 L817 381 L822 383 L830 384 L840 388 L843 388 L856 394 L866 395 L878 399 L912 419 L930 437 L935 446 L939 459 L939 470 L937 477 L932 488 L930 490 L928 487 L927 475 L923 459 L918 449 L918 447 L912 437 L895 420 L871 408 L842 399 L800 392 L792 389 L778 387 L773 385 L768 385 L758 382 L753 382 L752 381 L747 381 L746 380 L741 380 L728 377 L721 377 L714 375 L691 373 L690 372 L684 372 L676 370 L647 368 Z M202 354 L198 357 L196 356 L200 353 Z M201 353 L202 352 L204 353 L203 354 Z M443 352 L444 351 L445 352 L444 353 Z M203 352 L204 351 L206 352 L205 353 Z M205 351 L206 350 L208 351 L207 352 Z M207 350 L208 349 L210 350 L209 351 Z M209 349 L210 348 L212 349 L211 350 Z M211 348 L213 346 L216 347 L213 349 Z M215 346 L217 344 L220 345 L217 347 Z M219 344 L220 343 L222 344 L221 345 Z M221 343 L222 342 L224 343 L223 344 Z M223 342 L224 341 L226 342 L225 343 Z M225 341 L226 340 L228 341 L227 342 Z M227 340 L228 339 L231 340 L230 341 Z M230 339 L231 338 L233 339 L232 340 Z M144 291 L169 293 L177 296 L182 302 L174 321 L172 331 L170 335 L170 339 L168 343 L168 347 L165 358 L165 365 L164 366 L165 378 L164 379 L163 378 L164 379 L157 389 L154 397 L153 407 L152 408 L152 439 L153 440 L154 457 L157 470 L156 476 L154 478 L147 471 L137 453 L141 448 L143 443 L143 439 L145 435 L147 420 L148 419 L148 406 L149 405 L149 349 L148 348 L148 333 L146 325 L146 312 L145 311 L144 299 L142 294 Z M652 287 L653 286 L657 286 L658 287 L678 289 L684 291 L706 294 L711 296 L721 297 L731 300 L745 302 L750 304 L754 304 L763 307 L772 308 L777 310 L785 311 L789 313 L801 315 L805 317 L827 322 L834 325 L841 326 L869 335 L872 337 L887 342 L907 352 L923 363 L934 374 L942 385 L945 392 L946 404 L947 405 L947 421 L946 422 L946 432 L943 445 L942 459 L941 460 L940 459 L939 452 L937 448 L937 444 L934 437 L928 429 L919 420 L903 409 L877 397 L832 383 L792 373 L788 373 L783 371 L764 368 L759 366 L754 366 L743 363 L738 363 L732 361 L720 360 L707 357 L699 357 L691 355 L682 356 L681 355 L674 355 L673 354 L667 354 L666 355 L663 353 L655 353 L654 351 L656 348 L657 336 L658 335 L658 312 Z M447 287 L443 298 L442 311 L441 312 L441 334 L442 335 L442 342 L444 348 L443 352 L437 352 L421 356 L413 356 L412 357 L399 358 L398 359 L393 359 L380 362 L374 362 L368 364 L350 366 L349 367 L315 373 L302 377 L298 377 L274 383 L237 395 L234 397 L219 402 L204 410 L202 410 L185 421 L170 436 L164 445 L158 459 L156 457 L156 450 L154 443 L153 416 L154 415 L155 401 L158 396 L158 394 L163 387 L161 385 L169 376 L170 377 L169 379 L172 378 L182 369 L199 358 L226 344 L281 325 L378 300 L387 299 L423 290 L428 290 L432 288 L438 288 L444 286 Z M448 282 L447 285 L431 287 L395 296 L372 300 L368 302 L360 303 L347 307 L343 307 L326 312 L322 312 L303 318 L295 319 L291 321 L277 324 L263 329 L260 329 L235 339 L232 338 L258 327 L264 326 L267 324 L277 322 L284 319 L299 316 L303 314 L307 314 L323 310 L327 308 L331 308 L383 295 L400 292 L404 290 L408 290 L429 284 L434 284 L435 283 L439 284 L444 281 Z M447 281 L448 280 L449 281 L448 282 Z M134 280 L138 284 L139 289 L141 292 L140 293 L140 297 L143 307 L144 326 L146 333 L146 349 L147 350 L147 403 L146 404 L146 419 L145 420 L143 435 L140 442 L140 445 L138 448 L136 446 L138 442 L140 434 L140 427 L141 426 L141 416 L142 415 L142 406 L143 405 L144 365 L143 364 L143 346 L140 333 L140 327 L136 313 L132 306 L132 304 L129 305 L135 315 L135 318 L138 326 L140 348 L141 349 L141 357 L142 358 L142 382 L141 383 L142 390 L141 391 L141 402 L140 403 L140 415 L139 416 L139 423 L138 424 L138 434 L136 439 L136 443 L134 445 L121 419 L119 411 L119 406 L118 405 L118 400 L117 399 L116 384 L115 383 L115 371 L114 370 L114 345 L115 344 L117 324 L122 308 L122 305 L126 297 L126 294 Z M649 280 L650 279 L660 280 L666 282 L695 286 L706 289 L711 289 L712 290 L751 297 L756 299 L760 299 L765 301 L769 301 L774 303 L778 303 L783 305 L787 305 L803 309 L807 311 L836 318 L859 326 L862 326 L881 333 L913 350 L929 363 L936 372 L935 373 L923 361 L915 355 L900 346 L875 335 L842 324 L816 318 L801 313 L797 313 L771 306 L766 306 L748 301 L744 301 L723 296 L718 296 L708 293 L686 290 L680 288 L667 287 L660 285 L652 285 Z M136 279 L137 278 L144 278 L150 280 L166 279 L168 287 L169 288 L170 286 L176 293 L174 294 L164 290 L151 290 L146 288 L142 289 L140 283 Z M978 267 L980 274 L983 277 L992 282 L991 294 L990 295 L990 314 L991 315 L993 342 L994 343 L995 393 L989 409 L987 410 L986 413 L975 429 L963 442 L957 451 L942 480 L951 471 L958 458 L957 456 L964 444 L967 441 L969 442 L976 435 L978 431 L988 419 L989 412 L995 399 L998 405 L998 425 L996 432 L996 443 L992 457 L981 470 L978 475 L978 478 L946 510 L938 512 L934 511 L932 509 L930 495 L931 494 L932 495 L935 492 L940 481 L941 477 L940 474 L941 463 L942 462 L943 463 L945 445 L946 444 L947 445 L947 448 L949 446 L951 427 L954 415 L954 353 L955 352 L956 327 L957 326 L958 311 L959 310 L961 297 L968 281 L977 272 L977 268 Z M972 260 L973 261 L977 261 L978 265 L976 267 L975 271 L971 274 L966 281 L961 291 L956 311 L955 328 L954 329 L954 341 L953 342 L953 354 L952 355 L952 416 L950 424 L949 423 L948 395 L944 381 L936 368 L933 365 L933 352 L927 327 L915 300 L905 286 L921 279 L936 268 L948 262 Z M529 235 L533 235 L539 233 L565 233 L578 236 L586 239 L588 241 L590 241 L604 250 L617 263 L624 273 L631 287 L636 307 L636 322 L635 323 L635 328 L633 336 L628 349 L619 362 L610 371 L597 380 L581 387 L569 390 L563 390 L562 391 L536 391 L513 385 L492 373 L478 358 L469 342 L465 326 L465 304 L466 303 L467 294 L472 281 L481 267 L493 254 L513 241 Z M530 233 L518 237 L498 248 L483 262 L474 274 L467 289 L464 301 L464 306 L463 307 L463 322 L464 323 L465 334 L469 346 L478 361 L492 375 L514 387 L528 391 L541 392 L542 393 L565 392 L585 387 L600 380 L611 372 L624 358 L632 344 L635 336 L636 323 L637 322 L637 306 L633 289 L628 277 L619 263 L611 254 L595 242 L583 236 L564 231 L540 231 L539 232 Z M479 246 L489 239 L504 231 L509 230 L517 226 L530 223 L542 222 L543 221 L568 222 L585 226 L600 233 L602 233 L619 244 L632 256 L641 268 L648 282 L654 300 L655 313 L656 314 L655 339 L653 345 L653 351 L651 353 L651 355 L644 367 L631 379 L622 385 L600 396 L596 396 L587 399 L517 403 L516 402 L508 402 L507 401 L494 399 L473 389 L459 376 L450 362 L447 354 L444 341 L444 336 L443 335 L443 315 L444 314 L444 305 L445 304 L446 294 L454 274 L467 257 Z M932 359 L931 363 L916 350 L888 334 L886 334 L876 329 L873 329 L868 326 L849 320 L846 320 L836 316 L807 309 L803 307 L799 307 L791 304 L787 304 L773 300 L755 297 L751 295 L746 295 L741 293 L736 293 L735 292 L720 290 L710 287 L704 287 L703 286 L683 283 L677 281 L671 281 L670 280 L659 279 L653 277 L648 277 L642 266 L634 255 L625 246 L608 234 L594 227 L579 222 L575 222 L569 220 L559 220 L558 219 L542 219 L541 220 L528 221 L524 223 L520 223 L513 226 L510 226 L491 235 L474 247 L467 254 L457 266 L450 278 L442 279 L429 283 L425 283 L412 287 L408 287 L404 289 L387 292 L374 296 L370 296 L366 298 L362 298 L335 305 L331 305 L310 311 L306 311 L302 313 L283 317 L257 325 L222 339 L204 348 L186 359 L172 370 L167 376 L166 375 L166 363 L167 362 L168 351 L170 346 L173 330 L180 309 L191 288 L201 276 L213 265 L223 259 L240 251 L242 251 L253 245 L255 245 L339 201 L359 194 L366 193 L395 184 L399 184 L403 182 L414 180 L418 178 L429 176 L445 171 L449 171 L454 169 L459 169 L470 166 L475 166 L476 165 L498 163 L499 162 L508 162 L509 161 L521 161 L522 160 L578 159 L579 158 L617 158 L618 159 L652 160 L653 161 L660 161 L661 162 L678 164 L684 166 L719 171 L745 179 L755 184 L778 200 L798 208 L821 219 L847 235 L878 260 L906 289 L915 303 L923 320 L930 344 L931 358 Z M134 277 L130 281 L124 292 L124 295 L120 303 L119 310 L116 318 L115 328 L112 340 L112 378 L113 379 L113 388 L114 389 L116 408 L118 413 L118 417 L120 423 L120 431 L124 447 L125 460 L129 472 L128 477 L129 475 L141 523 L150 538 L152 544 L140 548 L128 549 L122 552 L115 559 L112 565 L112 588 L114 594 L115 607 L124 641 L124 646 L127 655 L129 667 L132 673 L136 689 L138 704 L139 705 L139 712 L140 713 L140 722 L141 723 L141 744 L140 745 L140 750 L137 761 L132 771 L126 790 L126 806 L127 807 L126 829 L117 863 L117 873 L118 874 L118 912 L117 913 L116 941 L115 942 L116 994 L117 995 L117 1001 L120 1007 L126 1013 L131 1016 L145 1021 L170 1024 L174 1027 L179 1042 L188 1095 L196 1126 L198 1129 L199 1135 L202 1141 L204 1149 L217 1181 L223 1199 L223 1202 L227 1210 L234 1217 L240 1220 L260 1225 L264 1225 L275 1221 L280 1218 L296 1203 L307 1188 L312 1176 L318 1167 L329 1157 L342 1151 L364 1151 L376 1155 L397 1159 L418 1165 L430 1166 L446 1170 L462 1171 L463 1172 L484 1172 L485 1171 L506 1171 L507 1170 L509 1171 L511 1170 L545 1170 L546 1171 L576 1172 L577 1171 L592 1170 L599 1168 L606 1168 L607 1167 L614 1167 L615 1166 L622 1166 L623 1165 L647 1164 L648 1163 L653 1163 L666 1160 L679 1159 L685 1157 L694 1157 L715 1149 L725 1147 L758 1132 L772 1128 L775 1129 L776 1128 L780 1128 L781 1129 L789 1130 L797 1134 L800 1137 L806 1148 L808 1159 L810 1162 L813 1173 L823 1194 L831 1207 L846 1222 L856 1226 L880 1227 L881 1226 L893 1225 L902 1222 L909 1218 L916 1210 L923 1194 L927 1182 L927 1179 L935 1159 L935 1156 L937 1153 L937 1150 L939 1147 L941 1138 L949 1115 L953 1099 L953 1095 L955 1090 L955 1085 L956 1084 L957 1073 L959 1066 L959 1059 L960 1058 L960 1051 L961 1050 L961 1043 L962 1042 L962 1033 L963 1032 L963 1023 L964 1022 L964 1013 L965 1012 L966 993 L969 991 L982 989 L999 981 L1013 971 L1023 960 L1023 917 L1022 916 L1022 900 L1021 899 L1021 889 L1020 888 L1019 876 L1013 850 L1013 845 L1008 828 L1008 824 L1000 797 L992 751 L988 739 L982 727 L989 701 L990 689 L992 682 L992 675 L993 674 L993 662 L994 661 L997 614 L998 613 L999 595 L1000 594 L1001 578 L1002 577 L1002 570 L1003 569 L1004 551 L1007 538 L1007 513 L1004 502 L997 490 L989 482 L982 479 L980 477 L983 470 L995 456 L995 452 L998 444 L998 432 L1000 425 L1000 405 L996 397 L997 394 L997 358 L996 357 L996 338 L994 331 L993 308 L992 307 L992 294 L993 293 L994 282 L993 280 L985 276 L982 273 L980 261 L976 258 L954 258 L939 264 L918 279 L909 283 L904 283 L875 254 L866 248 L855 238 L844 230 L826 219 L822 218 L810 211 L801 208 L799 206 L790 203 L776 196 L753 180 L751 180 L746 177 L743 177 L740 175 L737 175 L716 168 L700 166 L699 165 L692 165 L691 164 L675 162 L664 159 L654 159 L647 157 L646 158 L645 157 L635 157 L634 156 L563 156 L562 157 L532 157 L531 158 L504 159 L503 160 L487 161 L480 163 L473 163 L472 164 L453 167 L448 169 L444 169 L420 175 L416 177 L379 186 L343 197 L325 205 L312 213 L262 238 L260 240 L251 243 L241 249 L239 249 L220 258 L207 267 L197 277 L190 286 L183 299 L180 297 L178 293 L172 287 L169 280 L165 276 L158 278 L149 278 L141 275 L139 276 L138 275 Z" fill="#eef3f4" fill-rule="evenodd"/>
</svg>
