<svg xmlns="http://www.w3.org/2000/svg" width="1122" height="1402" viewBox="0 0 1122 1402">
  <title>0440</title>
  <path d="M436 1107 L463 1090 L487 1078 L502 1072 L525 1065 L541 1063 L542 1062 L552 1062 L553 1061 L570 1061 L571 1062 L589 1063 L606 1067 L621 1072 L638 1080 L640 1080 L661 1091 L685 1107 L659 1125 L632 1139 L601 1150 L588 1153 L583 1153 L582 1154 L575 1154 L574 1155 L545 1155 L544 1154 L537 1154 L536 1153 L521 1151 L499 1144 L466 1128 L446 1115 Z M433 1106 L433 1108 L458 1126 L477 1137 L481 1138 L492 1144 L515 1152 L532 1156 L547 1157 L548 1158 L580 1157 L581 1156 L586 1156 L607 1151 L622 1146 L652 1132 L682 1113 L689 1107 L669 1093 L638 1076 L606 1064 L588 1061 L587 1060 L580 1060 L579 1059 L546 1059 L545 1060 L526 1062 L514 1066 L511 1066 L487 1075 L461 1088 Z M400 1107 L413 1096 L436 1080 L475 1059 L500 1049 L513 1046 L517 1044 L521 1044 L532 1041 L538 1041 L539 1040 L547 1040 L548 1039 L576 1039 L577 1040 L585 1040 L586 1041 L597 1042 L614 1046 L632 1052 L642 1057 L644 1057 L676 1074 L700 1090 L721 1107 L702 1123 L679 1139 L666 1147 L642 1159 L640 1159 L630 1164 L601 1173 L597 1173 L586 1176 L565 1177 L564 1178 L540 1177 L539 1176 L532 1176 L531 1175 L517 1173 L513 1171 L503 1169 L500 1167 L497 1167 L477 1159 L454 1147 L435 1135 L416 1121 Z M396 1107 L422 1129 L444 1144 L463 1155 L482 1164 L510 1174 L527 1177 L528 1178 L533 1178 L534 1179 L541 1179 L542 1180 L576 1180 L577 1179 L585 1179 L586 1178 L608 1174 L627 1168 L642 1162 L678 1143 L700 1128 L724 1108 L724 1106 L692 1081 L666 1065 L646 1055 L644 1055 L629 1048 L610 1042 L592 1039 L591 1038 L574 1037 L573 1036 L552 1036 L551 1037 L541 1037 L540 1038 L528 1039 L507 1044 L482 1053 L453 1067 L434 1078 L411 1094 Z M287 998 L289 996 L293 996 L299 998 L313 1005 L333 1018 L348 1026 L359 1029 L375 1029 L376 1028 L385 1027 L402 1021 L424 1010 L450 995 L452 995 L465 988 L499 976 L520 972 L521 971 L525 971 L526 970 L533 970 L534 969 L541 969 L542 968 L553 968 L554 967 L591 967 L592 968 L603 968 L604 969 L622 971 L649 978 L674 988 L688 995 L738 1025 L747 1028 L765 1028 L772 1026 L786 1019 L802 1008 L819 999 L828 996 L832 996 L834 998 L834 1003 L835 1004 L835 1013 L832 1021 L817 1034 L802 1044 L801 1047 L820 1084 L820 1086 L842 1131 L825 1142 L808 1150 L806 1148 L805 1143 L789 1103 L788 1098 L772 1060 L748 1061 L734 1057 L722 1051 L683 1027 L660 1016 L632 1006 L615 1003 L614 1002 L602 1001 L601 1000 L563 998 L562 999 L545 999 L544 1000 L529 1001 L528 1002 L517 1003 L512 1005 L496 1008 L475 1015 L456 1024 L454 1024 L416 1044 L414 1046 L392 1056 L374 1061 L365 1061 L364 1062 L361 1061 L351 1061 L350 1060 L348 1061 L331 1102 L321 1131 L317 1139 L315 1147 L312 1150 L290 1139 L279 1131 L282 1123 L293 1102 L293 1100 L320 1046 L288 1021 L286 1014 Z M837 999 L836 996 L832 993 L825 994 L809 1001 L775 1022 L761 1026 L753 1026 L740 1023 L725 1015 L697 997 L686 992 L684 990 L682 990 L680 988 L678 988 L659 979 L641 973 L620 969 L619 968 L607 967 L606 966 L597 966 L596 965 L583 965 L582 964 L564 964 L563 965 L547 965 L546 966 L530 967 L529 968 L509 971 L490 977 L487 977 L459 988 L402 1018 L389 1023 L377 1026 L369 1026 L368 1027 L350 1024 L303 997 L295 994 L288 994 L286 995 L283 1003 L283 1014 L285 1021 L288 1025 L299 1034 L316 1046 L316 1048 L302 1075 L301 1079 L299 1081 L299 1083 L288 1104 L288 1106 L276 1131 L279 1135 L297 1146 L313 1153 L316 1151 L318 1147 L320 1139 L324 1131 L326 1123 L330 1115 L337 1094 L350 1063 L354 1063 L355 1064 L372 1064 L373 1063 L382 1062 L397 1057 L465 1022 L499 1010 L520 1005 L539 1003 L540 1002 L550 1002 L551 1001 L585 1001 L586 1002 L597 1002 L598 1003 L605 1003 L606 1004 L621 1006 L651 1015 L683 1030 L720 1053 L734 1060 L750 1064 L770 1063 L772 1065 L773 1070 L780 1085 L781 1090 L792 1116 L804 1150 L806 1152 L810 1152 L827 1144 L844 1132 L844 1129 L841 1124 L841 1122 L804 1046 L819 1036 L834 1023 L838 1011 Z M864 626 L872 626 L877 631 L878 634 L876 641 L870 645 L866 645 L862 643 L859 640 L858 637 L859 631 Z M252 626 L256 626 L260 628 L263 631 L264 634 L264 638 L262 642 L255 646 L248 644 L245 641 L244 638 L245 631 L249 627 Z M249 624 L242 631 L241 634 L242 641 L246 646 L250 648 L258 648 L262 646 L266 640 L267 637 L266 631 L262 626 L258 624 Z M862 624 L858 627 L855 634 L857 642 L863 647 L873 647 L875 646 L880 640 L880 631 L875 625 L871 623 Z M554 612 L567 612 L573 614 L581 619 L586 624 L592 633 L597 647 L599 660 L600 661 L600 666 L602 672 L604 689 L605 690 L606 702 L608 708 L608 714 L609 715 L609 720 L612 733 L614 752 L615 753 L615 759 L616 760 L616 766 L617 767 L617 773 L619 781 L619 788 L620 789 L621 805 L622 806 L623 828 L624 829 L624 855 L623 856 L623 862 L619 876 L614 885 L606 894 L599 899 L584 905 L572 906 L571 907 L549 907 L548 906 L537 905 L530 903 L516 895 L509 888 L501 874 L498 862 L498 857 L497 856 L497 830 L498 829 L500 800 L501 799 L501 792 L503 784 L503 777 L504 776 L510 728 L511 727 L513 709 L515 702 L515 696 L518 684 L522 656 L528 636 L533 627 L543 617 Z M555 609 L544 613 L532 624 L527 632 L521 649 L519 664 L517 670 L517 675 L516 676 L516 681 L515 682 L515 687 L513 693 L513 699 L512 700 L509 723 L508 724 L508 730 L507 731 L507 737 L506 738 L506 744 L505 745 L505 751 L504 752 L504 758 L503 759 L503 765 L502 766 L502 772 L500 780 L500 787 L499 788 L499 795 L498 796 L497 811 L496 812 L494 850 L495 851 L496 865 L500 878 L505 887 L514 897 L528 905 L538 908 L551 909 L552 910 L568 910 L569 909 L578 909 L593 905 L608 896 L616 887 L623 873 L625 865 L625 860 L626 859 L626 823 L625 822 L625 811 L624 810 L624 801 L623 800 L621 776 L620 775 L618 756 L617 755 L616 743 L614 736 L613 723 L612 722 L605 675 L604 674 L599 645 L591 626 L582 616 L567 609 Z M649 607 L663 599 L686 574 L687 576 L681 586 L677 600 L677 623 L681 637 L685 645 L697 658 L703 662 L711 665 L727 666 L735 664 L738 662 L741 663 L736 666 L728 668 L713 668 L706 666 L696 661 L689 656 L673 640 L652 613 Z M686 574 L687 573 L688 574 L687 575 Z M431 573 L432 572 L433 573 L432 574 Z M689 570 L690 572 L688 574 L687 572 Z M689 570 L690 569 L691 570 L690 571 Z M690 569 L691 568 L692 569 L691 570 Z M691 568 L692 567 L693 568 L692 569 Z M692 567 L693 566 L694 567 L693 568 Z M693 566 L694 565 L695 566 L694 567 Z M694 565 L695 564 L696 565 L695 566 Z M696 564 L697 563 L698 564 L697 565 Z M697 563 L698 562 L699 563 L698 564 Z M698 562 L699 561 L700 562 L699 563 Z M394 561 L410 562 L417 565 L425 571 L436 585 L442 603 L442 611 L443 612 L442 626 L436 643 L430 652 L424 658 L414 664 L407 666 L392 666 L377 659 L368 650 L363 642 L359 631 L358 621 L357 620 L358 602 L361 591 L365 583 L370 576 L377 569 L387 563 Z M699 561 L700 560 L702 561 L701 562 Z M701 560 L702 559 L703 560 L702 561 Z M729 558 L739 562 L746 567 L756 579 L760 587 L764 602 L764 620 L760 635 L753 647 L741 658 L729 663 L721 664 L705 660 L699 656 L690 647 L682 632 L680 624 L680 619 L679 618 L679 606 L684 586 L689 577 L699 566 L712 559 L716 558 Z M702 559 L703 558 L705 559 L704 560 Z M322 549 L324 548 L327 550 L340 554 L356 555 L357 556 L376 555 L377 554 L402 554 L418 560 L427 566 L432 571 L431 573 L422 565 L412 560 L408 559 L392 559 L388 560 L374 568 L365 578 L360 587 L356 598 L355 612 L354 613 L356 631 L359 640 L366 652 L374 660 L386 667 L394 668 L395 669 L405 669 L416 666 L426 660 L436 649 L441 639 L444 629 L444 625 L445 624 L445 604 L441 589 L437 581 L432 575 L433 573 L440 580 L447 590 L460 603 L473 611 L444 648 L436 656 L424 665 L412 670 L402 671 L401 672 L392 671 L382 668 L370 661 L358 649 L349 636 L342 622 L334 600 L334 597 L331 590 L326 570 Z M799 545 L800 547 L793 577 L791 581 L787 598 L780 617 L772 633 L761 648 L752 657 L741 663 L740 662 L751 654 L756 648 L761 640 L766 626 L767 603 L764 590 L758 577 L755 573 L742 561 L730 556 L714 556 L706 559 L704 558 L710 554 L726 550 L765 553 L766 552 L781 551 Z M319 545 L320 555 L322 560 L323 569 L329 593 L339 622 L347 638 L355 650 L367 662 L382 671 L393 674 L407 674 L418 671 L424 668 L436 659 L457 636 L476 611 L476 608 L472 607 L462 601 L448 587 L440 576 L427 563 L414 555 L398 551 L383 551 L382 552 L372 552 L371 553 L349 553 L348 552 L338 551 L321 544 Z M803 541 L800 541 L795 544 L783 548 L773 549 L772 550 L752 550 L751 549 L741 549 L740 548 L723 548 L708 552 L694 561 L662 596 L655 601 L646 605 L645 607 L656 623 L674 645 L685 656 L694 663 L706 669 L714 670 L715 671 L728 671 L741 667 L750 662 L764 649 L773 637 L780 624 L780 622 L785 612 L794 584 L800 560 L800 556 L802 551 Z M287 491 L288 490 L326 516 L346 525 L363 529 L369 529 L370 530 L403 531 L424 537 L435 543 L446 551 L463 568 L482 584 L498 592 L507 594 L508 596 L486 629 L464 657 L446 675 L435 683 L421 690 L409 693 L389 693 L370 687 L357 679 L344 667 L333 652 L320 627 L304 582 L298 557 L296 553 L295 544 L292 534 L290 517 L289 516 Z M835 488 L832 518 L831 519 L831 524 L830 525 L830 529 L829 530 L829 534 L828 535 L824 556 L813 590 L813 593 L811 596 L811 599 L799 629 L793 641 L781 659 L765 675 L748 685 L729 690 L714 690 L698 686 L680 676 L652 648 L631 620 L614 594 L615 592 L623 590 L641 580 L652 571 L675 549 L687 540 L698 534 L718 528 L752 527 L778 521 L799 511 L834 487 Z M285 488 L284 496 L285 497 L286 515 L287 516 L289 533 L294 552 L294 556 L297 564 L299 575 L302 582 L302 585 L311 612 L320 632 L320 634 L329 651 L342 669 L358 683 L373 691 L387 695 L405 696 L406 695 L416 694 L428 690 L443 681 L466 659 L476 647 L511 596 L511 594 L509 592 L498 589 L481 580 L467 568 L449 550 L437 541 L426 535 L407 529 L367 527 L366 526 L361 526 L349 523 L334 517 L323 511 L288 487 Z M835 484 L832 485 L795 510 L773 520 L761 523 L755 523 L754 524 L720 525 L719 526 L710 527 L696 532 L677 544 L638 579 L621 588 L613 590 L611 592 L611 594 L615 601 L646 645 L655 656 L672 673 L686 683 L702 690 L710 691 L711 692 L732 692 L747 688 L758 683 L774 671 L783 661 L795 643 L806 620 L813 599 L815 596 L816 590 L823 570 L832 534 L835 510 L836 509 L837 486 Z M281 331 L284 328 L289 329 L298 333 L320 346 L338 358 L363 377 L403 412 L475 484 L506 518 L513 528 L517 537 L517 547 L516 550 L512 554 L508 555 L498 551 L489 545 L454 518 L317 404 L301 388 L293 377 L287 365 L282 349 Z M842 327 L841 346 L836 362 L825 381 L809 398 L720 473 L635 541 L625 548 L616 552 L612 552 L607 548 L605 542 L606 533 L609 526 L616 516 L643 486 L716 413 L758 376 L790 352 L813 337 L836 325 L840 325 Z M279 329 L278 332 L278 343 L284 365 L293 382 L299 390 L313 404 L396 474 L479 541 L498 554 L506 557 L514 556 L517 553 L520 545 L519 535 L515 526 L508 516 L477 482 L409 414 L366 376 L344 359 L322 344 L300 331 L291 327 L282 326 Z M842 323 L832 324 L806 338 L774 360 L756 374 L712 413 L642 483 L614 514 L607 524 L604 531 L603 545 L605 550 L611 554 L618 554 L625 551 L634 545 L711 484 L812 399 L830 379 L839 362 L845 340 L845 327 Z M556 307 L563 317 L574 340 L580 358 L580 362 L583 372 L583 381 L584 382 L584 402 L583 403 L583 411 L582 412 L580 426 L572 449 L561 471 L556 478 L549 467 L537 441 L532 425 L532 421 L529 410 L529 402 L528 401 L529 372 L530 371 L533 354 L540 335 L548 319 Z M555 303 L539 331 L529 359 L527 375 L526 376 L526 406 L527 407 L527 413 L528 414 L528 419 L531 431 L537 448 L549 472 L554 480 L557 482 L564 471 L574 451 L582 428 L585 415 L585 408 L586 407 L586 376 L585 375 L585 369 L581 352 L574 333 L562 310 L558 304 Z M556 266 L569 285 L586 318 L595 344 L598 361 L599 362 L599 367 L600 368 L600 376 L601 377 L601 407 L600 408 L600 416 L599 417 L599 422 L593 447 L580 481 L568 504 L556 522 L543 501 L529 473 L523 458 L515 431 L513 415 L512 414 L512 408 L511 407 L511 372 L512 371 L512 365 L513 364 L513 359 L514 358 L516 345 L524 322 L537 295 Z M556 262 L538 288 L524 315 L520 325 L513 347 L511 360 L510 361 L509 377 L508 378 L508 400 L509 401 L509 411 L510 412 L512 429 L522 463 L540 501 L555 525 L557 526 L574 499 L590 464 L596 446 L601 425 L602 412 L603 411 L604 386 L603 385 L603 372 L602 371 L600 354 L590 321 L575 290 L558 263 Z M307 208 L339 198 L343 198 L363 193 L387 190 L388 189 L416 187 L417 186 L429 186 L430 185 L474 184 L475 183 L524 183 L525 182 L629 182 L630 183 L667 183 L668 184 L705 185 L706 186 L735 188 L736 189 L742 189 L743 190 L749 190 L750 191 L756 191 L768 194 L773 194 L778 196 L794 199 L823 209 L839 217 L853 227 L865 240 L875 258 L884 286 L884 290 L888 306 L889 320 L890 321 L891 347 L892 348 L892 366 L893 367 L893 388 L894 389 L895 450 L896 451 L897 573 L898 574 L898 866 L897 867 L896 1015 L895 1016 L895 1042 L894 1043 L893 1065 L892 1066 L892 1074 L891 1075 L889 1096 L888 1097 L887 1107 L885 1112 L883 1124 L876 1143 L866 1159 L850 1176 L829 1191 L798 1207 L792 1208 L783 1215 L769 1222 L749 1229 L732 1233 L727 1233 L726 1234 L702 1236 L701 1237 L672 1238 L671 1239 L644 1239 L643 1240 L559 1240 L553 1238 L545 1228 L542 1229 L522 1229 L518 1224 L513 1232 L505 1239 L488 1239 L487 1238 L469 1238 L468 1237 L441 1236 L440 1235 L431 1235 L430 1234 L421 1234 L420 1233 L412 1233 L411 1232 L389 1230 L388 1229 L361 1225 L347 1221 L331 1214 L291 1191 L276 1180 L260 1164 L248 1147 L242 1135 L235 1113 L235 1109 L231 1094 L230 1083 L229 1082 L227 1057 L226 1056 L226 1049 L225 1048 L224 999 L223 998 L223 707 L224 706 L224 625 L225 624 L226 509 L227 508 L228 417 L229 416 L229 380 L230 379 L231 339 L232 338 L232 326 L233 325 L235 307 L237 302 L237 298 L241 282 L248 262 L255 248 L263 237 L275 226 L290 216 Z M336 177 L337 176 L338 177 L337 178 Z M296 204 L297 200 L301 195 L310 190 L325 184 L360 174 L380 171 L381 170 L386 170 L387 169 L392 169 L393 168 L401 168 L402 167 L419 166 L420 165 L430 165 L431 164 L468 163 L469 162 L498 162 L499 161 L640 161 L641 162 L671 162 L672 163 L688 163 L689 164 L713 165 L714 166 L730 167 L731 168 L743 169 L744 170 L763 173 L783 178 L787 180 L790 180 L820 191 L828 197 L830 201 L830 208 L829 209 L818 204 L781 193 L777 193 L761 189 L742 187 L741 186 L715 184 L714 183 L685 182 L684 181 L608 180 L607 179 L487 180 L486 181 L455 181 L454 182 L420 183 L419 184 L409 184 L408 185 L383 187 L382 188 L370 189 L369 190 L364 190 L363 191 L344 194 L307 205 L300 209 L297 208 Z M561 111 L568 110 L572 113 L573 119 L569 124 L566 125 L562 124 L558 120 L557 117 L558 114 Z M564 107 L559 109 L556 112 L555 120 L560 126 L568 127 L574 123 L576 116 L573 110 L570 108 Z M785 174 L784 176 L775 173 L771 173 L762 170 L747 168 L741 166 L719 164 L718 163 L710 163 L709 162 L699 162 L698 161 L658 160 L657 159 L617 159 L616 158 L530 158 L529 159 L483 159 L482 160 L456 160 L455 161 L425 162 L424 163 L415 163 L414 164 L406 164 L405 165 L383 167 L382 168 L377 168 L376 169 L371 169 L361 172 L357 172 L341 177 L337 176 L337 172 L341 160 L347 153 L351 151 L380 144 L401 142 L402 141 L410 141 L411 140 L435 139 L436 138 L456 138 L457 137 L491 137 L492 136 L493 126 L499 119 L501 118 L539 118 L541 117 L543 110 L546 105 L552 99 L558 96 L562 96 L563 95 L572 96 L580 100 L587 108 L591 121 L594 122 L636 122 L641 127 L642 136 L643 137 L662 137 L663 138 L686 138 L687 139 L715 140 L716 141 L724 141 L725 142 L733 142 L734 143 L752 145 L768 149 L772 151 L779 158 Z M558 93 L550 97 L544 103 L538 115 L500 115 L498 116 L492 122 L490 126 L490 133 L489 134 L443 135 L442 136 L427 136 L426 137 L397 139 L396 140 L383 141 L382 142 L362 145 L354 148 L351 148 L345 151 L340 156 L337 162 L333 178 L331 180 L315 185 L300 192 L296 196 L294 200 L294 211 L277 221 L261 235 L250 251 L244 264 L236 289 L236 293 L234 298 L231 318 L230 319 L230 326 L229 327 L228 359 L227 360 L227 386 L226 387 L226 425 L225 426 L223 569 L222 570 L222 632 L221 633 L221 710 L220 711 L220 999 L221 1000 L221 1028 L222 1029 L222 1046 L223 1047 L224 1066 L225 1067 L225 1073 L226 1074 L226 1080 L227 1081 L227 1087 L230 1099 L230 1104 L235 1124 L238 1130 L239 1135 L247 1151 L257 1165 L274 1182 L286 1191 L325 1214 L344 1223 L367 1229 L391 1232 L392 1233 L398 1233 L399 1234 L405 1234 L406 1235 L434 1237 L435 1238 L445 1238 L446 1239 L458 1239 L459 1240 L474 1240 L475 1241 L503 1241 L504 1242 L508 1241 L512 1238 L518 1229 L521 1232 L544 1232 L551 1240 L555 1242 L662 1242 L663 1241 L682 1241 L683 1240 L697 1240 L698 1239 L717 1238 L718 1237 L724 1237 L725 1236 L730 1236 L745 1232 L749 1232 L767 1226 L787 1216 L793 1211 L800 1209 L819 1200 L846 1183 L864 1166 L875 1151 L881 1139 L886 1124 L888 1112 L890 1107 L893 1083 L894 1082 L895 1067 L896 1066 L897 1041 L898 1040 L899 960 L900 959 L900 838 L901 837 L901 583 L900 582 L900 511 L899 510 L899 461 L898 460 L898 424 L897 423 L896 367 L895 366 L895 349 L894 348 L894 333 L893 332 L892 313 L891 312 L890 301 L889 300 L885 278 L876 253 L867 238 L850 221 L833 211 L833 200 L831 196 L827 192 L808 183 L793 178 L790 178 L788 176 L785 164 L781 156 L774 149 L761 144 L756 144 L755 143 L738 141 L737 140 L730 140 L729 139 L711 138 L710 137 L697 137 L696 136 L650 135 L649 134 L645 134 L644 133 L645 132 L643 125 L637 119 L594 119 L590 108 L587 103 L582 98 L572 93 Z" fill="#eef3f4" fill-rule="evenodd"/>
</svg>
