<svg xmlns="http://www.w3.org/2000/svg" width="1122" height="1402" viewBox="0 0 1122 1402">
  <title>0447</title>
  <path d="M400 1259 L401 1258 L402 1260 L401 1261 Z M461 1256 L462 1255 L463 1257 L462 1258 Z M435 1256 L436 1255 L437 1257 L436 1258 Z M439 1254 L440 1255 L439 1258 L438 1257 Z M409 1255 L410 1254 L411 1255 L410 1256 Z M400 1254 L401 1255 L400 1258 L399 1257 Z M490 1254 L491 1253 L492 1254 L491 1255 Z M498 1252 L499 1253 L498 1256 L497 1255 Z M455 1251 L456 1252 L455 1255 L454 1254 Z M417 1252 L418 1251 L419 1252 L418 1253 Z M360 1252 L361 1251 L362 1252 L361 1253 Z M461 1250 L462 1251 L461 1255 L460 1254 Z M409 1250 L410 1251 L409 1254 L408 1253 Z M438 1249 L439 1250 L438 1253 L437 1252 Z M413 1250 L414 1249 L415 1251 L414 1252 Z M372 1250 L373 1249 L374 1251 L373 1252 Z M500 1248 L501 1249 L500 1252 L499 1251 Z M497 1248 L498 1249 L497 1253 L496 1252 Z M435 1248 L436 1249 L436 1253 L435 1254 L434 1253 L434 1249 Z M430 1248 L431 1249 L430 1253 L429 1252 Z M394 1248 L395 1249 L394 1253 L393 1252 Z M390 1249 L391 1248 L392 1250 L391 1251 Z M359 1249 L360 1248 L361 1250 L360 1251 Z M371 1248 L372 1247 L373 1249 L372 1250 Z M358 1248 L359 1247 L360 1248 L359 1249 Z M495 1247 L496 1246 L497 1247 L496 1248 Z M492 1247 L493 1246 L494 1248 L493 1249 Z M490 1246 L491 1247 L491 1251 L490 1252 L489 1251 L489 1247 Z M460 1245 L461 1246 L460 1250 L459 1249 Z M377 1245 L378 1246 L377 1249 L376 1248 Z M370 1246 L371 1245 L372 1246 L371 1247 Z M354 1246 L355 1245 L356 1246 L355 1247 Z M437 1244 L438 1245 L437 1248 L436 1247 Z M468 1243 L470 1251 L470 1258 L469 1259 L467 1253 L467 1244 Z M440 1243 L443 1253 L442 1257 L439 1249 L439 1244 Z M356 1244 L357 1243 L358 1245 L357 1246 Z M353 1244 L354 1243 L355 1244 L354 1245 Z M488 1243 L489 1242 L490 1244 L489 1245 Z M390 1242 L391 1243 L390 1247 L389 1246 Z M378 1243 L379 1242 L380 1244 L379 1245 Z M369 1243 L370 1242 L371 1244 L370 1245 Z M429 1241 L430 1242 L430 1246 L429 1247 L428 1246 L428 1242 Z M499 1240 L500 1241 L500 1248 L499 1249 L497 1244 Z M352 1241 L353 1240 L354 1241 L353 1242 Z M459 1239 L460 1240 L459 1244 L458 1243 Z M378 1239 L379 1240 L378 1243 L377 1242 Z M439 1238 L440 1239 L440 1243 L439 1244 L438 1243 L438 1239 Z M369 1238 L370 1239 L369 1242 L368 1241 Z M354 1239 L355 1238 L356 1240 L355 1241 Z M351 1239 L352 1238 L353 1239 L352 1240 Z M436 1237 L437 1238 L436 1242 L435 1241 Z M414 1237 L416 1240 L418 1248 L417 1251 L415 1248 L413 1240 Z M498 1236 L499 1237 L498 1240 L497 1239 Z M389 1236 L390 1237 L390 1241 L389 1242 L388 1241 L388 1237 Z M377 1236 L378 1237 L377 1240 L376 1239 Z M350 1237 L351 1236 L352 1237 L351 1238 Z M467 1234 L468 1235 L468 1243 L467 1244 L466 1243 L466 1235 Z M454 1233 L455 1234 L455 1250 L454 1251 L453 1250 L453 1234 Z M376 1233 L377 1234 L376 1237 L375 1236 Z M346 1234 L347 1233 L348 1234 L347 1235 Z M336 1233 L337 1234 L336 1237 L335 1236 Z M332 1234 L333 1233 L334 1234 L333 1235 Z M522 1232 L524 1239 L522 1247 L521 1246 L521 1233 Z M374 1231 L375 1230 L376 1232 L375 1233 Z M345 1231 L346 1230 L347 1232 L346 1233 Z M341 1230 L342 1231 L341 1234 L340 1233 Z M334 1231 L335 1230 L336 1232 L335 1233 Z M331 1231 L332 1230 L333 1231 L332 1232 Z M466 1229 L467 1230 L466 1234 L465 1233 Z M371 1229 L372 1230 L371 1233 L370 1232 Z M337 1230 L338 1229 L339 1230 L338 1231 Z M555 1228 L556 1229 L556 1234 L555 1235 L554 1234 L554 1229 Z M490 1228 L491 1229 L491 1235 L493 1242 L493 1246 L492 1247 L489 1238 L489 1229 Z M373 1228 L374 1227 L375 1229 L374 1230 Z M333 1228 L334 1227 L335 1229 L334 1230 Z M330 1228 L331 1227 L332 1229 L331 1230 Z M339 1227 L340 1226 L341 1227 L340 1228 Z M337 1225 L338 1226 L337 1229 L336 1228 Z M515 1224 L516 1225 L516 1232 L517 1233 L516 1235 L516 1251 L515 1252 L513 1246 L513 1230 Z M332 1225 L333 1224 L334 1226 L333 1227 Z M329 1225 L330 1224 L331 1225 L330 1226 Z M610 1222 L611 1223 L610 1226 L609 1225 Z M550 1222 L552 1225 L553 1238 L554 1239 L554 1249 L553 1250 L552 1249 L552 1243 L549 1232 L549 1223 Z M474 1223 L473 1225 L473 1238 L479 1253 L481 1262 L483 1267 L485 1268 L479 1249 L479 1244 L475 1228 L475 1223 Z M338 1223 L339 1222 L340 1224 L339 1225 Z M336 1222 L337 1223 L336 1226 L335 1225 Z M558 1221 L560 1227 L560 1239 L559 1240 L557 1233 L557 1222 Z M366 1221 L367 1222 L367 1227 L369 1231 L369 1238 L368 1239 L365 1229 L365 1222 Z M331 1222 L332 1221 L333 1222 L332 1223 Z M328 1222 L329 1221 L330 1222 L329 1223 Z M319 1222 L320 1221 L321 1222 L320 1223 Z M607 1220 L608 1221 L608 1227 L607 1228 L606 1227 L606 1221 Z M565 1220 L567 1227 L567 1242 L566 1243 L564 1235 L564 1221 Z M425 1221 L426 1244 L427 1245 L431 1268 L432 1268 L432 1263 L430 1257 L430 1253 L431 1252 L442 1276 L440 1268 L440 1263 L439 1262 L440 1258 L446 1270 L447 1270 L447 1268 L445 1263 L444 1250 L440 1234 L438 1230 L438 1226 L437 1225 L436 1226 L436 1235 L435 1236 L434 1233 L433 1233 L433 1240 L435 1245 L434 1248 L431 1243 L431 1239 L427 1223 Z M335 1219 L336 1220 L335 1223 L334 1222 Z M522 1219 L521 1230 L520 1231 L520 1249 L521 1250 L524 1269 L525 1268 L524 1264 L525 1236 L524 1235 L523 1219 Z M327 1219 L328 1218 L329 1219 L328 1220 Z M321 1219 L322 1218 L323 1219 L322 1220 Z M532 1217 L533 1218 L533 1224 L532 1225 L531 1224 L531 1218 Z M338 1217 L339 1218 L338 1222 L337 1221 Z M330 1218 L331 1217 L332 1219 L331 1220 Z M318 1218 L319 1217 L320 1219 L319 1220 Z M571 1216 L573 1224 L573 1239 L572 1240 L571 1239 L571 1230 L570 1229 L570 1217 Z M365 1216 L366 1217 L366 1221 L365 1222 L364 1221 L364 1217 Z M386 1216 L385 1217 L385 1223 L386 1224 L387 1245 L390 1255 L395 1266 L397 1267 L394 1259 L394 1253 L395 1252 L401 1265 L405 1271 L406 1271 L402 1254 L402 1245 L401 1244 L401 1240 L402 1239 L411 1264 L413 1266 L412 1258 L413 1257 L416 1267 L418 1271 L419 1271 L414 1255 L415 1251 L420 1259 L423 1267 L424 1267 L424 1264 L421 1257 L417 1238 L415 1235 L415 1230 L414 1229 L413 1230 L414 1236 L412 1238 L410 1234 L409 1228 L408 1228 L408 1245 L409 1246 L409 1250 L408 1251 L402 1234 L401 1227 L399 1227 L400 1231 L399 1234 L400 1237 L400 1249 L401 1250 L401 1253 L399 1255 L392 1240 Z M608 1214 L609 1215 L609 1220 L608 1221 L607 1220 L607 1215 Z M584 1214 L585 1215 L585 1224 L582 1234 L581 1233 L581 1220 L582 1219 L582 1215 Z M329 1215 L330 1214 L331 1216 L330 1217 Z M489 1214 L488 1215 L488 1231 L487 1232 L487 1249 L491 1261 L493 1274 L494 1274 L494 1269 L493 1268 L493 1251 L494 1250 L498 1265 L499 1266 L499 1260 L498 1259 L499 1255 L501 1259 L503 1269 L504 1269 L502 1259 L502 1244 L501 1243 L500 1233 L497 1227 L497 1222 L496 1222 L495 1238 L494 1239 L493 1238 L493 1233 L492 1232 Z M318 1212 L319 1213 L318 1217 L317 1216 Z M333 1211 L335 1216 L334 1220 L332 1216 L332 1212 Z M626 1211 L627 1210 L628 1211 L627 1212 Z M340 1210 L346 1227 L345 1231 L342 1227 L342 1224 L340 1220 L340 1216 L339 1215 L339 1211 Z M624 1209 L625 1210 L624 1214 L623 1213 Z M583 1210 L584 1209 L585 1210 L584 1211 Z M515 1210 L514 1211 L514 1219 L513 1220 L513 1226 L511 1233 L511 1242 L514 1255 L515 1272 L516 1274 L517 1271 L516 1269 L516 1256 L517 1255 L517 1243 L518 1242 L518 1228 L517 1227 L517 1218 Z M451 1211 L451 1247 L452 1248 L452 1253 L455 1260 L456 1266 L457 1266 L457 1252 L458 1251 L459 1252 L459 1257 L463 1266 L465 1274 L465 1259 L461 1244 L461 1225 L462 1224 L463 1225 L466 1257 L469 1269 L471 1271 L472 1241 L471 1240 L471 1228 L468 1217 L468 1212 L467 1211 L466 1212 L466 1229 L465 1230 L464 1229 L464 1224 L461 1214 L461 1210 L459 1211 L460 1217 L459 1218 L459 1239 L458 1240 L456 1234 L454 1219 L452 1211 Z M329 1209 L330 1210 L330 1214 L329 1215 L328 1214 L328 1210 Z M336 1207 L338 1212 L338 1216 L337 1217 L335 1212 L335 1208 Z M633 1207 L634 1206 L635 1208 L634 1209 Z M628 1206 L629 1207 L628 1210 L627 1209 Z M338 1207 L339 1206 L340 1208 L339 1209 Z M625 1204 L626 1205 L625 1209 L624 1208 Z M335 1204 L336 1205 L335 1208 L334 1207 Z M632 1202 L633 1203 L632 1206 L631 1205 Z M635 1201 L636 1202 L635 1206 L634 1205 Z M307 1201 L308 1202 L307 1205 L306 1204 Z M601 1200 L603 1206 L603 1219 L602 1220 L600 1233 L598 1237 L597 1233 L598 1232 L598 1221 L599 1220 L599 1211 L600 1210 L600 1201 Z M626 1199 L627 1200 L626 1204 L625 1203 Z M535 1199 L535 1208 L533 1216 L532 1215 L532 1208 L531 1207 L530 1208 L530 1225 L529 1226 L530 1242 L531 1243 L533 1259 L534 1258 L533 1255 L533 1233 L534 1232 L534 1221 L535 1220 L538 1223 L543 1252 L544 1252 L544 1247 L543 1246 L541 1230 L540 1229 L539 1214 Z M306 1197 L307 1198 L306 1202 L305 1201 Z M636 1196 L637 1197 L636 1201 L635 1200 Z M626 1196 L627 1195 L628 1197 L627 1198 Z M589 1195 L591 1198 L591 1207 L590 1208 L589 1207 L589 1200 L588 1199 Z M362 1196 L363 1225 L368 1246 L372 1255 L373 1255 L373 1252 L374 1251 L375 1252 L376 1257 L379 1263 L380 1263 L377 1252 L377 1249 L378 1248 L382 1255 L384 1263 L387 1266 L384 1258 L381 1241 L377 1231 L372 1211 L371 1211 L371 1228 L370 1229 L364 1206 L364 1198 Z M570 1193 L569 1225 L568 1226 L567 1225 L567 1219 L563 1205 L562 1206 L562 1210 L563 1211 L563 1233 L562 1234 L561 1233 L560 1218 L558 1214 L557 1207 L556 1207 L556 1215 L555 1216 L555 1226 L554 1227 L553 1226 L551 1204 L550 1200 L549 1200 L548 1233 L549 1234 L549 1239 L551 1245 L554 1266 L555 1265 L555 1235 L556 1234 L557 1235 L557 1241 L560 1253 L561 1253 L561 1247 L562 1246 L562 1237 L563 1236 L564 1237 L564 1243 L566 1251 L566 1263 L567 1262 L567 1254 L568 1253 L568 1231 L569 1230 L570 1231 L571 1249 L572 1250 L573 1248 L573 1244 L574 1243 L574 1222 L573 1221 L573 1215 L571 1207 L571 1196 Z M627 1191 L628 1190 L629 1192 L628 1193 Z M313 1187 L313 1204 L314 1205 L316 1219 L326 1239 L328 1240 L325 1229 L326 1226 L329 1229 L329 1231 L336 1244 L338 1246 L338 1244 L335 1239 L337 1237 L345 1253 L347 1254 L343 1245 L343 1241 L341 1237 L342 1233 L347 1243 L349 1243 L348 1242 L349 1238 L354 1249 L356 1247 L357 1248 L358 1252 L364 1261 L369 1265 L362 1248 L358 1231 L355 1224 L353 1211 L352 1211 L352 1217 L353 1218 L354 1233 L355 1234 L355 1238 L354 1239 L346 1222 L340 1199 L339 1199 L339 1206 L338 1207 L337 1206 L336 1197 L333 1186 L332 1189 L333 1190 L333 1195 L332 1196 L333 1211 L332 1212 L331 1211 L330 1204 L329 1204 L329 1208 L328 1209 L326 1208 L326 1220 L325 1221 L324 1220 L323 1199 L322 1199 L322 1204 L320 1209 L317 1203 L317 1199 Z M299 1179 L298 1180 L299 1188 L304 1204 L308 1213 L313 1221 L315 1222 L307 1193 L306 1180 L305 1180 L305 1194 L304 1195 L302 1192 L301 1184 Z M291 1170 L290 1174 L291 1175 L292 1184 L296 1196 L300 1203 L301 1203 L296 1191 L295 1182 L293 1179 L292 1171 Z M623 1169 L621 1174 L621 1180 L618 1191 L617 1203 L615 1208 L614 1216 L611 1223 L610 1222 L610 1211 L611 1210 L611 1199 L613 1194 L613 1179 L612 1178 L611 1181 L611 1190 L610 1191 L609 1202 L605 1219 L604 1218 L604 1202 L603 1201 L602 1188 L601 1188 L600 1198 L599 1199 L598 1217 L597 1218 L596 1217 L596 1205 L595 1204 L596 1203 L596 1198 L598 1196 L598 1190 L599 1189 L598 1180 L597 1180 L596 1190 L593 1193 L594 1195 L594 1224 L591 1231 L590 1230 L590 1219 L591 1218 L592 1219 L592 1223 L592 1219 L591 1218 L592 1196 L590 1192 L588 1180 L587 1180 L587 1198 L586 1199 L585 1198 L584 1194 L583 1208 L580 1216 L580 1234 L581 1235 L580 1248 L586 1225 L587 1204 L588 1203 L590 1208 L590 1214 L588 1222 L588 1244 L587 1245 L586 1254 L588 1250 L592 1232 L595 1226 L595 1218 L596 1217 L597 1218 L597 1227 L596 1228 L596 1240 L595 1241 L595 1249 L594 1251 L595 1251 L599 1241 L604 1220 L605 1221 L604 1245 L605 1245 L607 1237 L614 1222 L617 1207 L619 1203 L621 1202 L622 1205 L619 1212 L617 1222 L615 1224 L614 1230 L611 1237 L613 1236 L618 1224 L618 1221 L621 1218 L620 1215 L621 1214 L622 1216 L623 1213 L624 1214 L624 1218 L623 1219 L624 1222 L622 1230 L623 1229 L631 1207 L632 1208 L632 1212 L631 1213 L630 1222 L632 1220 L638 1203 L639 1181 L638 1180 L637 1181 L635 1193 L632 1195 L629 1207 L628 1206 L628 1202 L631 1189 L630 1174 L629 1174 L624 1201 L622 1203 L620 1200 L621 1188 L622 1187 L622 1179 L623 1178 Z M261 1096 L262 1097 L261 1100 L260 1099 Z M259 1094 L260 1093 L261 1095 L260 1096 Z M360 1069 L361 1068 L362 1069 L361 1070 Z M302 1069 L303 1068 L304 1069 L303 1070 Z M248 1068 L248 1071 L250 1074 L251 1079 L261 1101 L262 1100 L264 1103 L276 1137 L285 1156 L284 1151 L277 1136 L276 1131 L274 1128 L273 1123 L271 1120 L269 1112 L261 1092 L259 1094 L258 1093 Z M694 1061 L693 1061 L691 1077 L683 1107 L668 1140 L654 1162 L658 1158 L669 1141 L683 1111 L691 1084 Z M481 1041 L482 1042 L482 1058 L483 1059 L483 1076 L480 1086 L476 1089 L468 1091 L447 1091 L440 1089 L437 1086 L436 1082 L436 1048 L437 1047 L437 1043 L438 1042 Z M507 1038 L509 1043 L510 1058 L511 1059 L511 1070 L513 1078 L509 1083 L498 1087 L485 1088 L482 1086 L485 1075 L484 1045 L483 1041 L484 1040 L495 1040 L496 1039 Z M393 1038 L394 1039 L408 1040 L409 1041 L435 1042 L436 1043 L434 1049 L434 1082 L436 1087 L432 1089 L416 1089 L415 1088 L411 1088 L399 1083 L395 1079 L392 1069 L392 1039 Z M524 1036 L525 1037 L524 1038 L524 1045 L519 1060 L519 1063 L514 1076 L513 1075 L513 1065 L512 1064 L510 1039 L513 1037 Z M361 1032 L377 1035 L382 1037 L381 1045 L377 1054 L370 1064 L364 1069 L361 1068 L362 1066 L362 1050 L361 1049 L361 1034 L360 1033 Z M631 1028 L632 1027 L633 1028 L632 1029 Z M586 1023 L587 1024 L588 1045 L589 1046 L589 1053 L587 1057 L584 1060 L569 1067 L556 1071 L546 1071 L542 1067 L541 1035 L540 1034 L543 1032 L567 1028 Z M322 1023 L342 1028 L346 1030 L357 1031 L359 1033 L360 1067 L358 1070 L340 1064 L330 1059 L324 1053 L321 1046 L321 1030 L320 1026 Z M654 1019 L640 1037 L625 1052 L611 1064 L587 1082 L551 1104 L526 1116 L497 1126 L480 1130 L461 1132 L460 1133 L450 1133 L449 1134 L421 1134 L420 1133 L411 1133 L410 1132 L403 1132 L402 1131 L393 1130 L381 1127 L378 1125 L365 1121 L341 1107 L325 1094 L309 1077 L306 1070 L302 1053 L292 1023 L293 1019 L300 1032 L311 1046 L314 1048 L320 1049 L322 1054 L328 1060 L349 1070 L355 1072 L362 1072 L368 1069 L379 1055 L383 1046 L384 1038 L387 1037 L390 1039 L390 1071 L393 1080 L398 1085 L406 1089 L414 1091 L421 1091 L422 1092 L439 1090 L446 1093 L470 1093 L477 1091 L481 1088 L485 1090 L493 1090 L506 1087 L510 1085 L514 1081 L517 1075 L520 1062 L524 1052 L526 1044 L526 1036 L527 1035 L537 1034 L538 1033 L539 1034 L539 1063 L540 1067 L544 1072 L550 1074 L551 1073 L556 1073 L564 1071 L583 1063 L588 1059 L591 1054 L593 1055 L599 1054 L627 1033 L639 1028 L653 1018 Z M291 1019 L292 1018 L293 1019 L292 1020 Z M653 1018 L654 1017 L655 1018 L654 1019 Z M295 1014 L319 1023 L318 1026 L318 1035 L319 1036 L319 1045 L320 1046 L319 1047 L315 1046 L308 1040 L299 1026 L294 1016 Z M289 1013 L290 1012 L291 1014 L290 1015 Z M656 1012 L657 1011 L658 1012 L657 1013 Z M629 1011 L631 1017 L631 1025 L630 1027 L624 1033 L597 1053 L593 1053 L590 1048 L588 1024 L593 1021 L596 1021 L600 1019 L603 1019 Z M657 1011 L658 1010 L659 1011 L658 1012 Z M537 1004 L538 1003 L539 1004 L538 1005 Z M725 1003 L726 1002 L727 1003 L726 1004 Z M655 1002 L658 1007 L658 1010 L656 1012 L657 1013 L643 1023 L633 1028 L632 1027 L633 1023 L632 1010 L645 1005 L649 1006 L652 1005 L653 1006 L652 1003 Z M667 1002 L668 1001 L669 1003 L668 1004 Z M536 1002 L537 1001 L538 1002 L537 1003 Z M724 1001 L725 1000 L726 1001 L725 1002 Z M520 1001 L521 1000 L522 1002 L521 1003 Z M269 1000 L274 1004 L285 1009 L287 1011 L292 1033 L294 1036 L300 1054 L303 1066 L302 1069 L290 1053 L279 1032 L270 1005 L268 1002 Z M723 998 L724 997 L725 999 L724 1000 Z M667 997 L668 998 L659 1011 L658 1010 L658 1005 L656 1002 L662 998 Z M719 997 L720 996 L721 997 L720 998 Z M667 997 L668 996 L669 997 L668 998 Z M722 996 L723 995 L724 997 L723 998 Z M718 996 L719 995 L720 996 L719 997 Z M707 996 L708 995 L709 996 L708 997 Z M577 996 L578 995 L579 996 L578 997 Z M537 996 L538 995 L539 997 L538 998 Z M721 994 L722 993 L723 995 L722 996 Z M706 994 L707 993 L708 994 L707 995 Z M548 994 L549 993 L550 994 L549 995 Z M576 993 L577 992 L578 994 L577 995 Z M720 992 L721 991 L722 993 L721 994 Z M514 992 L515 991 L516 992 L515 993 Z M383 992 L384 991 L385 992 L384 993 Z M357 991 L358 992 L357 995 L356 994 Z M262 992 L263 991 L264 992 L263 993 Z M702 991 L703 990 L704 991 L703 992 Z M377 991 L378 990 L379 992 L378 993 Z M260 991 L261 990 L262 991 L261 992 Z M719 990 L720 989 L721 991 L720 992 Z M589 990 L590 989 L591 990 L590 991 Z M575 990 L576 989 L577 990 L576 991 Z M573 990 L574 989 L575 990 L574 991 Z M536 989 L538 991 L537 995 L535 991 Z M374 990 L375 989 L376 990 L375 991 Z M357 990 L358 989 L359 991 L358 992 Z M354 990 L355 989 L356 991 L355 992 Z M259 990 L260 989 L261 990 L260 991 Z M255 990 L256 989 L266 998 L266 1002 L268 1005 L276 1030 L291 1059 L300 1071 L324 1096 L346 1113 L367 1124 L393 1132 L397 1132 L403 1134 L410 1134 L411 1135 L420 1135 L421 1136 L449 1136 L450 1135 L460 1135 L461 1134 L468 1134 L469 1133 L485 1131 L516 1122 L548 1108 L579 1090 L611 1067 L623 1057 L643 1037 L652 1026 L667 1003 L668 1004 L668 1008 L663 1022 L651 1045 L641 1060 L629 1075 L596 1108 L571 1127 L547 1142 L525 1153 L502 1162 L499 1162 L489 1166 L477 1169 L461 1171 L460 1172 L441 1173 L440 1174 L420 1174 L419 1173 L407 1173 L406 1172 L389 1170 L369 1164 L359 1159 L357 1159 L331 1143 L306 1119 L290 1097 L281 1080 L281 1078 L274 1063 L270 1050 L270 1044 L269 1043 L266 1024 L259 1003 L256 998 Z M701 989 L702 988 L703 989 L702 990 Z M510 988 L525 1014 L524 1015 L514 1016 L513 1017 L512 1016 L511 1008 L510 1007 L510 994 L509 993 L509 989 Z M384 989 L385 988 L386 990 L385 991 Z M381 989 L382 988 L383 990 L382 991 Z M352 988 L353 989 L352 992 L351 991 Z M254 989 L255 988 L256 989 L255 990 Z M718 988 L719 987 L720 989 L719 990 Z M617 988 L618 987 L619 989 L618 990 Z M602 988 L603 987 L604 989 L603 990 Z M572 988 L573 987 L574 988 L573 989 Z M562 988 L563 987 L564 988 L563 989 Z M534 988 L535 987 L536 989 L535 990 Z M389 987 L390 988 L389 991 L388 990 Z M378 988 L379 987 L380 989 L379 990 Z M706 987 L707 986 L708 988 L707 989 Z M700 987 L701 986 L702 988 L701 989 Z M574 987 L575 986 L576 988 L575 989 Z M486 987 L487 986 L488 987 L487 988 Z M352 987 L353 986 L354 987 L353 988 Z M349 986 L350 987 L349 990 L348 989 Z M729 986 L730 985 L731 986 L730 987 Z M705 986 L706 985 L707 986 L706 987 Z M573 985 L574 984 L575 986 L574 987 Z M534 984 L535 985 L534 988 L533 987 Z M356 984 L357 985 L356 988 L355 987 Z M349 985 L350 984 L351 986 L350 987 Z M728 984 L729 983 L730 985 L729 986 Z M717 983 L719 986 L718 988 L716 986 Z M595 983 L597 984 L596 985 L597 984 L605 995 L607 999 L605 1001 L601 1001 L594 986 Z M383 983 L384 984 L383 988 L382 987 Z M350 984 L351 983 L352 984 L351 985 Z M616 982 L618 985 L617 988 L614 984 Z M591 982 L595 990 L594 993 L589 985 Z M532 983 L533 982 L534 984 L533 985 Z M353 983 L354 982 L355 983 L354 984 Z M335 983 L336 982 L337 984 L336 985 Z M593 982 L594 981 L595 983 L594 984 Z M564 982 L565 981 L566 982 L565 983 Z M592 981 L593 980 L594 981 L593 982 Z M531 981 L532 980 L533 981 L532 982 Z M384 980 L385 981 L384 984 L383 983 Z M357 980 L358 981 L357 984 L356 983 Z M715 979 L717 982 L716 984 L713 981 Z M575 980 L578 979 L593 996 L594 999 L595 999 L594 995 L595 992 L598 997 L598 999 L600 1001 L584 1005 L582 1002 L581 996 L579 993 Z M712 980 L713 978 L715 979 L713 981 Z M630 979 L631 978 L632 979 L631 980 Z M627 979 L628 978 L629 979 L628 980 Z M594 979 L595 978 L596 979 L595 980 Z M591 979 L592 978 L593 979 L592 980 Z M486 978 L487 979 L487 984 L486 985 L485 984 L485 979 Z M384 979 L385 978 L386 980 L385 981 Z M352 979 L353 978 L354 980 L353 981 Z M312 979 L313 978 L314 979 L313 980 Z M576 978 L577 977 L578 979 L577 980 Z M366 977 L367 978 L366 981 L365 980 Z M337 977 L338 978 L337 982 L336 981 Z M633 977 L634 976 L635 978 L634 979 Z M626 977 L627 976 L628 977 L627 978 Z M593 977 L594 976 L595 977 L594 978 Z M590 977 L591 976 L592 977 L591 978 Z M539 976 L544 989 L554 1009 L553 1010 L549 1010 L543 1012 L541 1011 L542 1010 L542 1005 L541 1004 L541 998 L540 997 L539 984 L538 983 L538 977 Z M530 977 L531 976 L532 978 L531 979 Z M383 977 L384 976 L385 977 L384 978 Z M358 976 L359 977 L358 980 L357 979 Z M328 977 L329 976 L330 978 L329 979 Z M313 977 L314 976 L315 977 L314 978 Z M657 976 L658 975 L659 977 L658 978 Z M629 976 L630 975 L631 977 L630 978 Z M581 975 L590 988 L589 990 L579 977 Z M385 976 L386 975 L387 977 L386 978 Z M592 975 L593 974 L594 975 L593 976 Z M578 976 L579 974 L581 975 L579 977 Z M570 975 L571 974 L572 976 L571 977 Z M559 975 L560 974 L561 975 L560 976 Z M537 975 L538 974 L539 976 L538 977 Z M358 975 L359 974 L360 975 L359 976 Z M338 974 L339 975 L338 978 L337 977 Z M656 974 L657 973 L658 975 L657 976 Z M646 974 L647 973 L648 974 L647 975 Z M633 973 L634 974 L633 977 L632 976 Z M625 974 L626 973 L627 975 L626 976 Z M529 974 L530 973 L531 975 L530 976 Z M393 974 L394 973 L395 975 L394 976 Z M390 973 L391 974 L391 979 L386 989 L385 986 L387 982 L388 976 Z M366 974 L367 973 L368 975 L367 976 Z M314 974 L315 973 L316 975 L315 976 Z M311 974 L312 973 L313 975 L312 976 Z M680 973 L681 972 L682 973 L681 974 Z M612 973 L613 972 L614 973 L613 974 Z M330 972 L331 973 L330 976 L329 975 Z M315 972 L316 971 L317 973 L316 974 Z M679 971 L680 970 L681 972 L680 973 Z M611 971 L612 970 L613 971 L612 972 Z M573 970 L577 977 L575 979 L572 973 Z M528 971 L529 970 L530 972 L529 973 Z M391 970 L392 971 L391 974 L390 973 Z M376 971 L377 970 L378 971 L377 972 Z M367 970 L368 969 L369 971 L368 972 Z M655 968 L657 972 L656 974 L654 972 Z M652 969 L653 968 L654 969 L653 970 Z M571 969 L572 968 L573 970 L572 971 Z M557 969 L558 968 L559 969 L558 970 Z M317 968 L318 969 L317 972 L316 971 Z M313 968 L314 969 L313 973 L312 972 Z M282 968 L283 969 L282 973 L281 972 Z M256 968 L257 969 L257 974 L256 975 L255 974 L255 969 Z M570 968 L571 967 L572 968 L571 969 Z M647 967 L648 966 L649 967 L648 968 Z M642 967 L643 966 L644 968 L643 969 Z M598 967 L599 966 L600 967 L599 968 Z M302 967 L303 966 L304 968 L303 969 Z M645 965 L647 971 L646 974 L643 969 Z M641 966 L642 965 L643 966 L642 967 Z M575 965 L580 973 L578 975 L573 967 Z M373 965 L375 967 L374 976 L372 980 L372 983 L369 988 L368 987 L368 979 L370 975 L371 976 L370 972 Z M648 965 L649 964 L650 965 L649 966 Z M599 965 L600 964 L601 966 L600 967 Z M597 965 L598 964 L599 966 L598 967 Z M593 965 L594 964 L595 965 L594 966 Z M569 965 L570 964 L571 965 L570 966 Z M517 964 L519 967 L524 982 L536 1006 L540 1011 L537 1013 L527 1014 L525 1011 L525 1006 L522 997 L522 992 L517 975 L517 970 L516 969 L516 965 Z M369 964 L370 965 L369 969 L368 968 Z M640 964 L641 963 L642 964 L641 965 Z M596 964 L597 963 L598 964 L597 965 Z M378 963 L379 964 L378 968 L377 967 Z M337 963 L338 964 L337 967 L336 966 Z M304 963 L305 964 L304 967 L303 966 Z M664 963 L665 962 L666 964 L665 965 Z M598 963 L599 962 L600 964 L599 965 Z M391 963 L392 962 L393 964 L392 965 Z M667 962 L668 961 L669 962 L668 963 Z M629 961 L633 971 L632 974 L627 963 Z M602 961 L605 962 L604 964 L605 963 L606 964 L605 966 L606 965 L608 968 L607 970 L608 969 L609 970 L608 972 L609 971 L615 979 L616 982 L614 984 L606 973 L601 963 Z M304 962 L305 961 L306 963 L305 964 Z M623 961 L624 960 L625 961 L624 962 Z M597 961 L598 960 L599 962 L598 963 Z M392 961 L393 960 L394 962 L393 963 Z M301 961 L302 960 L303 962 L302 963 Z M668 960 L669 959 L670 961 L669 962 Z M666 960 L667 959 L668 961 L667 962 Z M602 960 L603 959 L604 961 L603 962 Z M338 959 L339 960 L338 963 L337 962 Z M294 960 L295 959 L296 961 L295 962 Z M267 959 L268 960 L267 963 L266 962 Z M264 959 L265 960 L264 964 L263 963 Z M254 959 L255 960 L254 963 L253 962 Z M622 959 L623 958 L624 959 L623 960 Z M311 959 L312 958 L313 960 L312 961 Z M260 959 L261 958 L262 960 L261 961 Z M597 957 L598 958 L597 961 L596 960 Z M375 957 L376 958 L376 963 L374 966 L373 962 Z M299 958 L300 957 L301 958 L300 959 Z M665 957 L666 956 L667 958 L666 959 Z M621 957 L622 956 L623 957 L622 958 Z M518 956 L519 957 L518 960 L517 959 Z M394 956 L395 957 L394 960 L393 959 Z M595 956 L596 955 L597 956 L596 957 Z M398 955 L399 956 L399 962 L395 974 L394 973 L394 967 Z M339 955 L340 956 L339 960 L338 959 Z M677 955 L678 954 L679 956 L678 957 Z M664 955 L665 954 L666 956 L665 957 Z M349 954 L350 955 L349 958 L348 957 Z M288 955 L289 954 L290 955 L289 956 Z M246 954 L247 955 L247 961 L246 962 L245 961 L245 955 Z M485 953 L486 954 L486 960 L485 961 L486 963 L485 964 L486 975 L485 976 L484 975 L484 968 L483 967 L483 960 Z M676 953 L677 952 L678 954 L677 955 Z M399 952 L400 953 L399 956 L398 955 Z M293 952 L294 953 L293 956 L292 955 Z M268 952 L269 953 L269 957 L268 958 L267 957 L267 953 Z M696 951 L710 971 L713 977 L712 979 L694 954 Z M349 952 L350 951 L351 953 L350 954 Z M340 951 L341 952 L340 956 L339 955 Z M675 951 L676 950 L677 952 L676 953 Z M628 951 L629 950 L630 952 L629 953 Z M534 950 L549 990 L548 993 L536 966 L535 959 L533 955 L533 951 Z M517 950 L518 951 L518 955 L517 956 L516 955 L516 951 Z M488 950 L490 954 L490 959 L492 964 L492 996 L491 997 L490 996 L488 974 L487 973 L487 951 Z M289 951 L290 950 L291 952 L290 953 Z M674 950 L675 949 L676 950 L675 951 Z M662 950 L663 949 L664 951 L663 952 Z M293 950 L294 949 L295 951 L294 952 Z M641 948 L646 955 L646 957 L649 962 L648 964 L640 950 Z M520 948 L523 955 L523 959 L525 963 L529 980 L537 999 L536 1001 L534 999 L526 983 L519 964 L520 962 L519 959 L519 949 Z M386 948 L387 949 L386 959 L382 975 L376 989 L375 986 Z M368 948 L369 949 L368 962 L366 967 L365 975 L359 990 L358 986 L361 974 L360 970 Z M350 949 L351 948 L352 950 L351 951 Z M673 948 L674 947 L675 949 L674 950 Z M661 948 L662 947 L663 949 L662 950 Z M634 947 L635 948 L636 947 L638 949 L645 963 L644 966 L637 958 L633 950 Z M629 948 L630 947 L631 949 L630 950 Z M533 947 L534 948 L533 951 L532 950 Z M341 947 L342 948 L341 951 L340 950 Z M294 948 L295 947 L296 949 L295 950 Z M651 946 L652 948 L650 950 L649 948 Z M648 947 L649 946 L650 947 L649 948 Z M259 947 L260 946 L261 947 L260 948 Z M672 946 L673 945 L674 946 L673 947 Z M660 946 L661 945 L662 947 L661 948 Z M634 946 L635 945 L636 947 L635 948 Z M632 946 L633 945 L634 947 L633 948 Z M628 946 L629 945 L630 947 L629 948 Z M477 945 L479 947 L482 973 L483 974 L483 984 L484 985 L483 999 L481 1004 L480 1003 L480 995 L478 989 L478 982 L477 981 L477 974 L476 973 L476 946 Z M351 946 L352 945 L353 947 L352 948 Z M320 945 L321 946 L320 953 L314 969 L313 968 L314 960 Z M649 945 L650 944 L651 946 L650 947 Z M519 944 L520 945 L519 949 L518 948 Z M516 944 L517 945 L517 949 L516 950 L515 949 L515 945 Z M503 944 L507 960 L509 964 L509 967 L511 971 L511 975 L515 989 L514 991 L510 985 L505 969 L503 952 L502 951 L502 945 Z M293 944 L294 946 L291 951 L290 948 L291 945 Z M671 944 L672 943 L673 944 L672 945 Z M644 943 L649 951 L650 956 L655 967 L654 969 L652 967 L651 963 L645 951 L646 950 L645 951 L644 950 L645 948 L644 949 L642 946 Z M633 944 L634 943 L635 945 L634 946 Z M631 944 L632 943 L633 945 L632 946 Z M626 945 L628 943 L629 944 L628 946 Z M532 943 L533 944 L532 948 L531 947 Z M689 942 L696 950 L694 953 L688 945 Z M680 942 L687 954 L692 969 L701 985 L700 987 L687 967 L678 950 L679 948 L680 949 L679 947 L679 943 Z M676 942 L679 946 L678 949 L675 944 Z M317 942 L318 943 L317 946 L316 945 Z M687 942 L688 941 L689 942 L688 943 Z M670 942 L671 941 L672 943 L671 944 Z M643 941 L644 943 L642 945 L641 943 Z M632 942 L633 941 L634 943 L633 944 Z M625 943 L627 941 L628 942 L627 944 Z M373 941 L376 944 L372 957 L372 961 L370 965 L369 964 L370 951 L371 950 L371 945 Z M294 941 L295 942 L294 945 L293 944 Z M678 941 L679 940 L680 942 L679 943 Z M637 940 L641 947 L640 949 L636 943 Z M614 941 L615 940 L616 941 L615 942 Z M530 941 L531 940 L532 942 L531 943 Z M292 941 L293 940 L294 941 L293 942 Z M261 940 L262 941 L261 945 L260 944 Z M697 940 L698 939 L699 940 L698 941 Z M686 940 L687 939 L688 940 L687 941 Z M669 940 L670 939 L671 940 L670 941 Z M598 939 L612 968 L611 971 L601 952 L597 942 Z M487 939 L488 940 L488 946 L486 953 L485 952 L485 944 Z M387 939 L388 940 L388 948 L387 949 L386 948 L386 940 Z M631 938 L633 941 L631 944 L629 941 Z M575 938 L576 939 L575 942 L574 941 Z M502 938 L503 939 L502 943 L501 942 Z M393 938 L394 939 L394 945 L393 946 L392 957 L385 976 L384 975 L385 967 L387 962 L389 948 Z M372 939 L373 938 L374 939 L373 940 Z M696 938 L697 937 L698 938 L697 939 Z M641 937 L643 940 L641 943 L640 942 L640 938 Z M613 938 L614 937 L615 938 L614 939 Z M314 937 L315 938 L315 943 L310 959 L308 960 L306 957 Z M695 937 L696 936 L697 937 L696 938 Z M597 936 L598 937 L597 940 L596 939 Z M499 936 L500 937 L500 949 L501 950 L502 963 L504 967 L504 971 L508 984 L508 998 L507 999 L504 993 L497 964 L495 961 L495 951 L496 950 L497 940 Z M676 935 L679 939 L678 941 L675 937 Z M672 935 L676 941 L675 943 L671 938 Z M612 936 L613 935 L614 936 L613 937 Z M670 935 L671 934 L672 935 L671 936 Z M595 935 L596 934 L597 936 L596 937 Z M333 934 L334 935 L333 938 L332 937 Z M315 934 L316 935 L315 938 L314 937 Z M394 933 L395 934 L394 938 L393 937 Z M374 933 L375 934 L374 938 L373 937 Z M594 933 L595 932 L596 934 L595 935 Z M552 932 L562 947 L567 958 L568 966 L571 972 L570 975 L555 947 L551 935 Z M541 932 L544 937 L546 946 L557 971 L558 976 L563 985 L562 987 L554 975 L545 956 L540 938 L540 933 Z M674 931 L676 934 L675 936 L673 934 Z M649 931 L662 953 L661 956 L662 955 L665 961 L664 963 L659 957 L652 945 L648 934 Z M550 932 L551 931 L552 932 L551 933 Z M315 932 L316 931 L317 933 L316 934 Z M593 931 L594 930 L595 931 L594 932 Z M375 930 L376 931 L375 934 L374 933 Z M359 930 L360 931 L359 945 L358 946 L358 950 L352 976 L349 982 L348 981 L349 966 L353 952 L353 948 L355 944 L355 940 Z M672 930 L673 929 L674 931 L673 932 Z M647 930 L648 929 L649 931 L648 932 Z M611 929 L613 933 L612 935 L609 931 Z M684 929 L685 928 L686 929 L685 930 Z M576 928 L584 945 L582 947 L585 948 L594 966 L594 968 L597 969 L596 972 L597 971 L600 976 L603 985 L602 988 L594 974 L590 963 L587 961 L589 963 L593 972 L592 975 L581 955 L577 945 L576 932 L575 931 Z M567 928 L578 950 L578 952 L584 964 L585 969 L591 981 L589 984 L582 975 L573 957 L572 951 L568 941 L568 937 L566 933 L566 929 Z M478 929 L479 928 L480 930 L479 931 Z M680 928 L681 927 L682 928 L681 929 Z M646 928 L647 927 L648 929 L647 930 Z M683 927 L684 926 L685 927 L684 928 Z M677 926 L683 934 L687 946 L715 986 L719 994 L718 996 L703 980 L696 969 L686 948 L681 941 L675 929 Z M625 926 L631 936 L631 938 L629 940 L628 939 L629 937 L628 938 L627 937 L628 935 L627 936 L624 930 Z M682 926 L683 925 L684 926 L683 927 Z M679 926 L680 925 L681 926 L680 927 Z M645 926 L646 925 L647 927 L646 928 Z M574 926 L575 925 L576 927 L575 928 Z M272 925 L273 926 L273 933 L272 934 L272 941 L269 953 L268 952 L268 943 L269 942 L269 936 Z M693 924 L704 938 L720 963 L729 981 L728 984 L718 970 L710 955 L692 926 Z M623 925 L624 924 L625 926 L624 927 Z M305 924 L306 925 L306 932 L305 933 L304 942 L300 954 L296 960 L295 959 L295 955 L298 948 L301 933 Z M670 923 L673 928 L672 930 L668 925 Z M658 924 L659 923 L660 924 L659 925 Z M644 924 L645 923 L646 925 L645 926 Z M603 923 L620 956 L623 966 L626 971 L625 974 L623 972 L615 955 L613 953 L613 951 L611 949 L607 937 L604 932 L604 929 L602 926 Z M573 924 L574 923 L575 924 L574 925 Z M691 923 L692 922 L693 924 L692 925 Z M690 922 L691 921 L692 922 L691 923 Z M673 921 L677 926 L675 928 L672 923 Z M669 921 L670 923 L668 925 L667 923 Z M657 922 L658 921 L659 923 L658 924 Z M622 922 L623 921 L624 923 L623 924 Z M601 922 L602 921 L603 923 L602 924 Z M319 921 L320 922 L319 925 L318 924 Z M273 921 L274 922 L273 925 L272 924 Z M689 921 L690 920 L691 921 L690 922 Z M662 920 L671 933 L669 940 L661 924 Z M246 920 L247 921 L247 947 L245 955 L244 954 L244 926 Z M671 920 L672 919 L673 921 L672 922 Z M656 920 L657 919 L658 921 L657 922 Z M600 920 L601 919 L602 920 L601 921 Z M323 919 L324 920 L323 928 L321 933 L321 937 L318 943 L317 942 L317 937 L318 936 L319 927 L321 921 Z M670 919 L671 918 L672 919 L671 920 Z M320 918 L321 919 L320 922 L319 921 Z M669 918 L670 917 L671 918 L670 919 Z M659 918 L660 917 L662 920 L661 921 Z M643 917 L645 921 L644 924 L641 920 Z M658 917 L659 916 L660 917 L659 918 Z M637 916 L648 936 L650 944 L648 946 L647 945 L648 943 L647 944 L642 936 L643 933 L642 935 L639 930 L636 920 Z M657 916 L658 915 L659 916 L658 917 Z M635 915 L636 914 L637 916 L636 917 Z M321 914 L322 915 L321 919 L320 918 Z M321 912 L322 911 L323 913 L322 914 Z M278 910 L279 911 L279 922 L280 923 L279 932 L278 933 L278 938 L276 943 L275 951 L272 958 L272 961 L270 964 L269 961 L272 950 L272 945 L274 938 L274 930 L275 929 L275 916 L276 915 L275 913 L276 912 L277 913 Z M277 907 L278 908 L277 911 L276 910 Z M239 906 L240 907 L240 926 L241 927 L240 929 L240 958 L239 959 L238 958 L238 949 L237 948 L237 915 L238 914 L238 907 Z M295 904 L296 905 L296 913 L295 914 L295 920 L293 924 L293 931 L285 963 L283 967 L282 966 L282 962 L283 961 L283 955 L287 938 L287 933 L289 928 L289 924 L293 908 Z M642 903 L657 924 L656 926 L657 925 L660 928 L668 941 L670 947 L672 949 L680 967 L679 971 L677 969 L678 968 L676 967 L677 965 L676 967 L673 963 L670 956 L665 949 L658 935 L658 933 L651 923 L651 925 L661 944 L660 946 L651 932 L641 905 Z M619 902 L637 938 L636 941 L633 940 L624 920 L621 918 L618 907 L618 903 Z M607 902 L613 914 L620 936 L629 958 L628 962 L626 961 L615 937 L608 916 L607 906 L606 905 Z M640 902 L641 901 L642 902 L641 903 Z M617 901 L618 900 L619 902 L618 903 Z M296 891 L296 895 L292 906 L284 939 L283 950 L280 962 L277 990 L278 990 L280 983 L285 974 L292 955 L293 959 L290 968 L288 981 L290 980 L299 959 L300 960 L296 981 L293 989 L293 993 L294 993 L301 977 L309 965 L310 961 L311 960 L312 961 L310 974 L308 979 L307 991 L306 992 L306 997 L307 997 L319 973 L332 937 L333 938 L333 944 L331 951 L331 957 L330 958 L327 977 L322 997 L324 996 L325 992 L330 983 L336 966 L337 970 L333 983 L333 987 L331 993 L331 1000 L330 1002 L332 1002 L344 966 L348 957 L349 958 L349 962 L347 967 L346 989 L345 990 L345 996 L342 1008 L344 1008 L344 1006 L351 991 L352 992 L351 1010 L353 1009 L361 989 L363 986 L364 987 L363 984 L365 980 L366 981 L365 996 L367 996 L372 987 L373 988 L368 1008 L370 1007 L377 992 L378 996 L374 1011 L375 1012 L388 990 L389 991 L388 1003 L389 1003 L391 998 L394 981 L397 975 L401 961 L402 946 L403 945 L403 937 L402 937 L400 945 L395 957 L394 953 L395 952 L395 943 L396 942 L396 934 L397 933 L397 917 L395 918 L395 922 L390 941 L389 940 L388 920 L387 921 L383 952 L379 964 L378 963 L378 915 L379 914 L378 913 L377 914 L370 940 L365 950 L360 966 L359 967 L358 966 L359 969 L354 979 L353 976 L357 963 L360 943 L361 942 L362 918 L363 916 L361 917 L357 930 L356 929 L357 922 L355 921 L355 926 L350 946 L339 975 L338 974 L338 970 L344 947 L344 933 L343 929 L342 929 L341 939 L335 964 L333 967 L332 972 L331 973 L330 972 L330 967 L332 961 L334 943 L336 936 L336 927 L337 926 L337 918 L336 917 L335 918 L332 931 L328 941 L328 944 L318 969 L317 966 L321 954 L321 946 L320 945 L321 944 L320 943 L322 942 L321 940 L325 927 L325 913 L324 909 L323 910 L322 909 L323 902 L321 904 L316 925 L307 952 L303 960 L302 956 L303 955 L303 950 L306 941 L307 930 L308 929 L308 913 L306 912 L306 917 L295 942 L293 939 L293 936 L295 931 L296 919 L297 918 L297 907 L298 906 L298 899 L297 898 L297 894 L298 893 Z M593 898 L598 918 L608 946 L618 966 L620 968 L621 972 L632 991 L633 991 L631 985 L631 981 L632 980 L636 988 L641 995 L642 995 L641 989 L629 955 L630 952 L651 985 L652 989 L654 990 L651 978 L648 972 L649 968 L665 990 L663 981 L650 951 L652 948 L669 973 L671 978 L674 981 L670 968 L668 965 L668 963 L670 961 L683 980 L689 992 L689 988 L683 973 L680 962 L678 959 L679 956 L688 970 L691 977 L712 1007 L714 1012 L716 1012 L711 997 L707 990 L708 988 L724 1004 L732 1015 L734 1016 L727 998 L713 970 L688 938 L688 936 L685 931 L686 929 L696 941 L703 946 L718 973 L725 982 L736 1000 L737 1000 L735 992 L728 977 L728 975 L717 955 L705 937 L683 909 L682 910 L696 935 L695 937 L679 918 L678 919 L680 922 L680 925 L679 926 L658 898 L657 899 L668 918 L667 920 L666 919 L669 920 L667 923 L655 907 L653 906 L657 918 L656 920 L638 895 L638 900 L643 916 L641 919 L633 905 L631 904 L636 926 L640 935 L638 936 L615 891 L614 892 L615 893 L615 899 L619 914 L619 918 L622 930 L627 940 L625 942 L618 926 L614 914 L614 911 L611 905 L611 902 L605 890 L606 911 L607 912 L608 920 L611 927 L611 929 L609 931 L608 930 L609 928 L608 929 Z M769 868 L769 872 L775 889 L781 915 L781 920 L783 927 L783 935 L784 936 L784 948 L785 949 L783 989 L782 990 L778 1018 L771 1043 L772 1044 L778 1025 L778 1021 L782 1006 L783 995 L784 994 L784 988 L785 987 L785 978 L786 977 L786 938 L785 937 L785 929 L784 928 L784 922 L783 921 L783 916 L780 906 L780 902 L773 880 L773 877 Z M863 860 L864 861 L864 910 L862 916 L861 915 L861 910 L862 909 L861 885 L862 884 L862 861 Z M403 840 L403 842 L414 830 L418 828 L427 827 L428 826 L437 826 L457 832 L479 843 L478 841 L459 831 L446 826 L436 825 L435 824 L427 824 L426 825 L418 826 L411 830 Z M830 807 L833 818 L836 844 L837 845 L838 877 L839 878 L839 882 L838 883 L838 904 L837 905 L837 914 L835 921 L833 914 L833 883 L832 882 L832 860 L831 859 L830 815 L829 814 L829 808 Z M452 808 L454 809 L465 805 L474 805 L482 808 L476 804 L465 804 L458 807 Z M483 785 L482 788 L485 795 L486 795 L486 792 Z M474 774 L469 794 L464 802 L468 798 L471 792 L473 785 Z M869 771 L870 770 L871 772 L870 773 Z M841 761 L845 773 L847 798 L848 799 L848 811 L849 812 L850 842 L852 848 L852 861 L853 862 L853 911 L854 911 L854 898 L855 897 L855 871 L854 870 L854 848 L853 847 L852 818 L851 817 L849 790 L848 789 L847 772 L846 771 L846 764 L847 763 L848 764 L848 769 L851 780 L851 786 L853 792 L853 798 L854 799 L854 805 L855 806 L855 812 L857 820 L857 827 L858 828 L858 835 L859 836 L859 848 L860 849 L859 896 L858 897 L858 907 L857 908 L857 915 L855 923 L855 930 L853 935 L852 934 L852 922 L851 921 L851 910 L850 909 L848 860 L847 859 L847 850 L845 847 L845 837 L844 836 L844 817 L843 816 L843 801 L842 800 L841 772 L840 771 L840 762 Z M846 757 L847 758 L847 763 L846 764 L845 763 L845 758 Z M862 739 L865 752 L867 774 L868 775 L868 783 L869 784 L870 806 L871 807 L871 830 L872 831 L871 857 L870 858 L870 868 L869 869 L868 887 L867 888 L866 887 L866 866 L865 865 L864 794 L863 793 L862 766 L861 765 L861 740 Z M865 735 L866 736 L865 739 L864 738 Z M273 709 L274 708 L275 709 L274 710 Z M557 679 L558 678 L559 679 L558 680 Z M555 678 L556 677 L558 678 L557 679 Z M477 670 L482 688 L483 711 L482 712 L482 720 L479 732 L479 737 L475 752 L474 764 L477 753 L479 739 L481 734 L482 725 L483 724 L484 707 L485 706 L484 704 L485 701 L484 700 L483 686 L479 673 Z M884 667 L885 666 L886 667 L885 668 Z M525 672 L524 673 L538 675 L564 683 L581 692 L597 704 L624 732 L648 767 L672 813 L672 815 L680 831 L690 859 L692 862 L702 893 L702 896 L704 900 L708 916 L708 910 L701 887 L701 884 L692 857 L678 822 L660 785 L635 744 L622 727 L605 709 L588 695 L574 686 L562 680 L542 662 L542 664 L556 677 L555 678 L541 674 Z M885 666 L887 659 L887 652 L888 651 L892 653 L905 653 L917 656 L905 660 L894 661 L890 663 L886 667 Z M718 581 L714 581 L706 584 L701 584 L694 586 L683 586 L682 587 L635 586 L641 588 L674 589 L675 588 L699 587 L715 583 Z M850 563 L850 579 L856 602 L866 622 L878 640 L881 642 L865 617 L857 600 L852 582 L851 564 Z M548 563 L550 565 L555 564 L568 571 L573 572 L576 574 L579 574 L576 572 L568 570 L554 563 Z M309 550 L301 551 L300 552 L294 552 L288 555 L294 553 L301 553 Z M749 541 L750 543 L754 545 L758 549 L758 553 L759 553 L760 548 L754 543 Z M300 537 L301 536 L304 537 L303 538 Z M189 529 L187 529 L186 532 L187 533 L187 537 L182 543 L182 549 L185 552 L186 551 L183 546 L184 542 L187 538 L190 545 L191 545 L191 542 L188 534 L188 530 Z M319 523 L308 531 L294 538 L255 549 L251 549 L225 555 L207 555 L203 554 L197 550 L196 551 L201 555 L209 556 L210 557 L220 557 L221 556 L227 556 L228 555 L233 555 L234 554 L254 551 L262 548 L288 542 L295 539 L306 539 L313 537 L313 536 L309 536 L308 537 L304 537 L303 536 L316 527 Z M700 522 L701 521 L712 530 L711 531 L704 530 L702 528 Z M699 521 L700 520 L701 521 L700 522 Z M911 511 L905 511 L897 515 L890 521 L883 531 L877 546 L876 554 L875 555 L874 575 L875 576 L876 591 L881 606 L882 605 L879 598 L879 594 L877 588 L877 580 L876 579 L876 563 L877 562 L877 555 L878 554 L879 546 L882 537 L890 524 L896 518 L902 514 L910 513 L912 512 Z M568 506 L569 505 L570 506 L569 507 Z M567 505 L568 504 L569 505 L568 506 Z M251 503 L252 502 L253 503 L252 504 Z M565 502 L566 501 L567 502 L566 503 Z M252 502 L253 501 L254 502 L253 503 Z M564 501 L565 500 L566 501 L565 502 Z M563 499 L564 498 L565 499 L564 500 Z M915 505 L904 499 L894 496 L887 496 L881 499 L880 497 L878 498 L865 514 L859 524 L859 526 L853 538 L850 554 L855 537 L862 522 L868 513 L880 501 L887 498 L895 498 L905 501 L914 506 Z M206 471 L207 470 L208 471 L207 472 Z M207 469 L208 468 L209 469 L208 470 Z M649 467 L656 472 L689 506 L698 521 L698 523 L701 528 L700 530 L673 529 L672 528 L658 526 L635 519 L641 513 L645 507 L650 492 L650 475 L648 470 Z M647 467 L648 466 L649 467 L648 468 Z M208 467 L209 466 L210 467 L209 468 Z M209 465 L210 464 L211 465 L210 466 Z M563 457 L564 456 L565 457 L564 458 Z M564 455 L565 454 L566 456 L565 457 Z M565 454 L566 453 L567 454 L566 455 Z M221 453 L222 457 L219 470 L219 487 L220 488 L221 496 L225 506 L230 511 L237 514 L226 517 L222 519 L218 523 L214 524 L201 524 L197 523 L195 521 L199 519 L207 519 L211 521 L210 519 L205 517 L198 518 L197 517 L197 509 L205 481 L211 468 Z M221 453 L222 452 L223 453 L222 454 Z M566 452 L567 451 L568 452 L567 453 Z M567 451 L568 450 L569 451 L568 452 Z M568 450 L569 449 L570 450 L569 451 Z M569 449 L570 448 L571 449 L570 450 Z M572 446 L573 445 L574 446 L573 447 Z M573 445 L574 444 L575 445 L574 446 Z M612 441 L614 441 L630 450 L642 460 L645 464 L647 470 L649 485 L648 486 L648 493 L644 505 L633 518 L622 519 L621 520 L608 520 L607 521 L606 520 L599 520 L594 518 L597 516 L606 515 L615 510 L624 500 L628 491 L630 483 L630 470 L626 457 L622 451 L616 445 L611 442 Z M609 441 L610 440 L612 441 L611 442 Z M574 441 L575 440 L576 441 L575 442 Z M235 440 L239 440 L243 442 L248 447 L253 459 L254 468 L255 469 L255 484 L252 497 L248 505 L244 509 L240 511 L234 511 L227 505 L223 496 L222 487 L221 486 L221 471 L222 470 L222 464 L223 463 L224 455 L228 446 Z M608 440 L609 439 L610 440 L609 441 Z M592 439 L602 440 L613 445 L623 456 L628 469 L628 483 L626 491 L622 499 L611 510 L601 514 L596 514 L595 515 L581 512 L572 506 L566 499 L563 493 L562 485 L561 484 L562 468 L564 462 L570 452 L577 445 Z M575 440 L576 439 L577 440 L576 441 Z M605 439 L606 438 L607 439 L606 440 Z M577 439 L578 437 L582 438 L578 440 Z M576 438 L566 448 L558 465 L557 469 L557 487 L560 495 L559 497 L532 477 L504 453 L509 449 L531 443 L542 442 L543 441 L548 441 L549 440 L554 440 L567 437 L575 437 Z M247 436 L261 437 L272 443 L279 452 L282 460 L282 466 L270 481 L265 485 L261 493 L254 502 L253 499 L255 495 L256 485 L257 484 L257 468 L256 467 L255 458 L251 448 L241 438 Z M305 432 L306 433 L305 436 L285 463 L278 447 L272 441 L267 438 L271 435 L278 433 L292 433 L293 432 L303 432 L304 433 Z M747 430 L748 429 L749 430 L748 431 Z M284 430 L285 429 L299 429 L300 430 L299 431 L285 431 Z M746 429 L747 428 L748 429 L747 430 Z M239 427 L230 432 L220 442 L235 430 L239 428 Z M755 421 L756 420 L757 421 L756 422 Z M754 419 L755 418 L756 420 L755 421 Z M753 418 L754 417 L755 418 L754 419 Z M481 442 L482 447 L493 461 L520 488 L535 500 L553 512 L578 525 L584 524 L585 525 L608 527 L609 528 L616 528 L617 529 L646 530 L646 529 L641 529 L640 528 L626 528 L625 527 L616 527 L615 526 L601 525 L600 524 L584 523 L570 519 L560 514 L535 498 L518 484 L496 462 L483 446 L485 445 L502 454 L525 474 L555 496 L571 511 L581 517 L605 523 L622 522 L623 521 L633 520 L658 528 L666 529 L667 530 L673 530 L674 531 L717 532 L718 533 L720 532 L719 525 L713 514 L700 495 L689 482 L659 453 L633 436 L632 436 L659 455 L686 481 L698 495 L712 515 L720 530 L719 532 L714 530 L697 514 L688 501 L665 477 L653 467 L649 465 L636 452 L624 444 L612 438 L606 436 L586 435 L585 434 L566 435 L565 436 L553 437 L552 438 L547 438 L546 439 L541 439 L540 440 L521 443 L517 445 L511 446 L503 450 L502 452 L485 444 L483 442 L493 434 L511 425 L535 418 L555 417 L556 416 L572 417 L573 418 L578 418 L579 419 L596 422 L616 429 L606 424 L585 418 L575 417 L574 416 L567 416 L566 415 L540 416 L539 417 L534 417 L522 420 L508 425 L494 432 Z M737 412 L738 411 L739 412 L738 413 Z M726 405 L727 404 L728 405 L727 406 Z M728 403 L729 402 L730 403 L729 404 Z M188 403 L189 402 L190 404 L189 405 Z M727 401 L728 400 L729 401 L728 402 Z M189 401 L190 400 L191 402 L190 403 Z M726 400 L727 399 L728 400 L727 401 Z M725 399 L726 398 L727 399 L726 400 Z M724 398 L725 397 L726 398 L725 399 Z M192 395 L193 398 L191 401 L190 398 Z M446 410 L445 422 L444 423 L445 424 L445 430 L448 441 L462 471 L474 490 L492 513 L505 526 L522 539 L539 548 L559 555 L581 559 L582 560 L607 563 L608 564 L615 564 L616 565 L625 565 L626 566 L635 566 L636 567 L650 567 L651 568 L691 568 L692 567 L713 566 L714 565 L719 565 L720 564 L737 561 L748 556 L727 562 L717 563 L716 564 L709 564 L708 565 L677 566 L676 567 L674 566 L645 566 L644 565 L631 565 L630 564 L612 563 L611 562 L604 562 L603 561 L579 558 L551 551 L536 545 L519 535 L502 521 L489 507 L478 493 L465 473 L460 462 L457 458 L457 456 L450 442 L446 428 L447 411 L452 401 L457 395 L453 398 Z M192 394 L193 393 L194 395 L193 396 Z M188 393 L189 394 L188 397 L187 396 Z M745 393 L746 392 L747 393 L746 394 Z M737 393 L738 392 L739 393 L738 394 Z M193 393 L194 392 L195 393 L194 394 Z M744 392 L745 391 L746 392 L745 393 Z M743 390 L744 389 L745 390 L744 391 Z M189 389 L190 390 L189 393 L188 392 Z M742 389 L743 388 L744 389 L743 390 Z M186 388 L187 389 L186 392 L185 391 Z M741 388 L742 387 L743 388 L742 389 Z M189 387 L190 386 L191 388 L190 389 Z M740 386 L741 385 L742 386 L741 387 Z M739 385 L740 384 L741 385 L740 386 Z M738 384 L739 383 L740 384 L739 385 Z M190 384 L191 383 L192 385 L191 386 Z M918 383 L919 382 L920 383 L919 384 Z M737 383 L738 382 L739 383 L738 384 Z M196 383 L197 382 L198 384 L197 385 Z M709 382 L710 381 L711 382 L710 383 Z M306 396 L298 390 L290 386 L280 383 L266 382 L251 386 L241 391 L224 405 L216 415 L210 425 L194 460 L188 484 L188 506 L189 507 L189 493 L190 492 L191 477 L201 448 L217 417 L223 409 L238 395 L251 388 L265 384 L276 384 L277 385 L285 386 L293 389 L303 395 L311 403 L313 409 L313 414 L312 415 L311 424 L309 428 L286 427 L269 431 L260 435 L257 434 L248 434 L241 436 L238 435 L245 430 L257 424 L274 419 L294 419 L295 420 L309 422 L309 421 L306 421 L302 419 L290 418 L289 417 L278 417 L277 418 L271 418 L270 419 L266 419 L263 421 L260 421 L243 429 L233 437 L223 447 L211 464 L210 462 L212 459 L213 454 L205 469 L198 487 L193 507 L192 522 L200 526 L215 526 L223 524 L237 518 L248 511 L267 491 L273 481 L302 445 L311 430 L314 419 L314 405 Z M708 381 L709 380 L710 381 L709 382 Z M703 381 L704 380 L711 384 L716 389 L727 404 L726 405 Z M461 422 L476 407 L489 398 L505 391 L527 385 L541 384 L542 383 L568 384 L569 385 L574 385 L591 389 L606 394 L609 396 L617 398 L637 407 L639 407 L666 420 L688 434 L706 449 L723 468 L735 486 L744 505 L748 518 L749 528 L750 527 L749 516 L746 506 L735 483 L722 464 L704 445 L688 432 L664 417 L634 403 L614 395 L609 394 L606 392 L594 389 L587 386 L574 384 L573 383 L568 383 L567 382 L545 381 L544 382 L535 382 L534 383 L523 384 L503 390 L488 397 L475 406 L466 415 Z M191 381 L192 380 L193 382 L192 383 Z M197 380 L198 379 L199 381 L198 382 Z M734 379 L735 378 L738 382 L737 383 Z M733 378 L734 377 L735 378 L734 379 Z M729 378 L730 377 L731 378 L730 379 Z M305 378 L311 387 L322 409 L331 433 L334 445 L334 450 L335 451 L335 458 L336 459 L336 470 L335 471 L334 488 L333 489 L330 508 L311 581 L311 585 L308 594 L308 598 L302 621 L297 648 L288 679 L277 704 L274 707 L261 715 L250 726 L248 726 L243 731 L236 741 L225 763 L215 797 L213 817 L212 818 L211 846 L212 847 L212 860 L213 861 L215 888 L216 889 L216 895 L218 902 L221 926 L224 937 L224 942 L226 947 L226 951 L233 979 L238 994 L239 994 L238 987 L240 981 L241 955 L242 954 L243 955 L245 971 L247 975 L249 988 L250 988 L251 985 L253 989 L254 1000 L257 1010 L257 1014 L264 1035 L267 1050 L280 1083 L290 1101 L300 1115 L322 1138 L339 1151 L359 1162 L378 1169 L394 1173 L407 1174 L408 1175 L420 1175 L421 1176 L440 1176 L441 1175 L452 1175 L453 1174 L460 1174 L461 1173 L477 1171 L493 1166 L496 1166 L513 1160 L547 1144 L574 1127 L602 1105 L629 1078 L652 1047 L667 1017 L671 1004 L672 993 L649 1001 L641 1005 L610 1015 L589 1020 L585 1022 L581 1022 L576 1024 L572 1024 L567 1026 L558 1027 L543 1031 L537 1031 L525 1034 L504 1036 L503 1037 L484 1038 L483 1039 L466 1039 L465 1040 L423 1040 L422 1039 L410 1039 L409 1038 L401 1038 L394 1036 L388 1036 L383 1034 L363 1031 L358 1029 L354 1029 L331 1023 L327 1023 L313 1018 L307 1017 L292 1011 L278 1004 L270 998 L267 997 L263 993 L265 992 L288 1002 L306 1008 L322 1011 L327 1013 L349 1016 L350 1017 L385 1020 L386 1021 L418 1024 L419 1025 L442 1025 L443 1024 L461 1024 L462 1023 L476 1023 L477 1022 L498 1021 L499 1020 L526 1017 L527 1016 L542 1014 L559 1010 L584 1007 L601 1003 L607 1000 L609 1001 L612 1000 L612 999 L610 999 L608 996 L604 982 L599 971 L601 966 L608 979 L616 990 L623 998 L624 998 L624 996 L622 993 L622 990 L615 970 L598 935 L594 924 L586 908 L585 908 L592 932 L602 956 L601 958 L602 957 L603 958 L601 962 L599 959 L599 956 L596 949 L586 934 L584 928 L582 927 L584 932 L583 934 L584 933 L585 934 L584 936 L585 935 L593 949 L594 958 L593 959 L591 958 L579 932 L577 924 L571 911 L570 911 L571 919 L575 935 L574 939 L563 915 L562 916 L563 917 L563 924 L564 925 L564 931 L566 939 L572 955 L572 958 L575 963 L574 966 L572 965 L560 941 L552 930 L548 923 L548 921 L545 918 L548 931 L555 951 L557 952 L563 966 L566 969 L569 976 L574 983 L572 984 L573 985 L572 988 L564 978 L559 967 L556 966 L556 964 L547 945 L545 936 L539 922 L539 939 L546 962 L560 988 L565 995 L569 1004 L571 1005 L565 985 L566 982 L569 986 L568 987 L569 986 L581 1004 L579 1006 L573 1006 L572 1007 L560 1008 L559 1009 L555 1009 L554 1008 L554 1002 L552 998 L552 994 L536 951 L534 941 L532 938 L531 931 L528 924 L527 916 L526 916 L526 926 L527 927 L528 940 L535 967 L536 980 L537 981 L537 985 L536 986 L530 970 L530 967 L527 961 L526 955 L522 949 L516 927 L516 944 L515 945 L514 944 L513 931 L512 930 L512 921 L511 918 L510 919 L511 937 L512 938 L512 944 L515 957 L515 965 L514 966 L515 967 L514 968 L521 996 L521 1000 L520 1001 L517 994 L516 986 L505 946 L501 921 L500 921 L498 935 L494 947 L494 954 L492 958 L491 957 L489 927 L487 929 L485 936 L483 954 L482 955 L481 954 L480 942 L479 941 L479 932 L481 931 L481 927 L479 920 L479 914 L478 914 L478 924 L477 925 L477 932 L476 933 L475 946 L474 947 L474 973 L475 974 L475 982 L476 983 L478 1002 L482 1017 L484 1018 L483 1017 L484 996 L486 992 L491 1007 L492 1014 L493 1015 L494 1014 L493 1013 L493 1008 L494 1007 L493 979 L494 978 L494 968 L495 967 L498 980 L502 990 L502 993 L506 1001 L509 1011 L512 1016 L511 1017 L499 1018 L498 1019 L489 1019 L488 1020 L479 1020 L478 1021 L463 1021 L462 1022 L447 1022 L446 1023 L418 1023 L417 1022 L408 1022 L407 1021 L401 1021 L393 1019 L357 1016 L356 1015 L343 1014 L342 1013 L337 1013 L322 1009 L313 1008 L277 996 L259 988 L254 984 L252 985 L251 984 L252 967 L253 966 L254 967 L254 982 L255 982 L263 963 L264 964 L264 978 L263 982 L265 981 L265 979 L274 960 L274 957 L277 950 L277 946 L281 930 L281 925 L282 924 L282 917 L280 910 L279 894 L278 894 L274 912 L269 927 L269 931 L267 935 L266 951 L262 959 L261 958 L261 951 L265 938 L266 925 L267 924 L267 905 L265 906 L263 940 L262 941 L261 940 L261 934 L260 934 L258 950 L255 959 L254 958 L254 950 L257 937 L259 915 L262 905 L263 909 L263 905 L262 904 L263 894 L262 893 L257 921 L256 922 L256 929 L255 930 L253 951 L252 952 L251 970 L250 971 L249 970 L248 901 L247 900 L247 895 L246 896 L245 917 L243 925 L242 924 L241 900 L240 899 L241 891 L239 891 L237 909 L236 910 L236 917 L235 918 L235 943 L236 944 L236 955 L237 956 L237 965 L238 966 L238 983 L237 984 L236 983 L223 927 L220 903 L218 896 L217 881 L216 880 L215 862 L214 861 L214 846 L213 845 L215 808 L223 774 L235 746 L244 732 L250 726 L252 726 L260 718 L273 709 L274 711 L266 734 L264 749 L263 750 L263 759 L262 760 L263 787 L264 788 L268 809 L270 812 L271 817 L280 835 L292 853 L305 869 L320 884 L330 892 L348 902 L359 905 L365 905 L366 906 L385 904 L402 898 L424 886 L453 866 L464 860 L479 856 L507 856 L517 853 L528 847 L540 834 L547 818 L549 810 L549 804 L550 803 L550 782 L549 781 L549 774 L548 773 L545 756 L538 737 L528 717 L526 715 L514 689 L505 662 L500 642 L500 638 L498 633 L495 608 L494 607 L493 586 L492 585 L489 528 L489 565 L490 566 L491 595 L492 596 L493 612 L494 613 L494 619 L495 620 L495 625 L496 626 L496 631 L499 641 L499 645 L513 690 L536 736 L540 749 L542 752 L542 755 L545 762 L545 766 L547 771 L548 785 L549 786 L548 807 L544 822 L538 834 L528 845 L518 851 L508 854 L500 854 L499 855 L495 854 L473 855 L464 858 L452 864 L432 878 L405 894 L383 902 L379 902 L378 903 L361 903 L347 899 L326 886 L303 863 L292 849 L281 832 L273 816 L267 796 L267 791 L265 784 L265 753 L266 752 L266 746 L267 745 L270 728 L274 716 L287 688 L296 662 L299 646 L301 641 L301 637 L303 632 L305 618 L307 613 L307 609 L309 604 L309 600 L312 591 L312 587 L333 505 L335 490 L336 489 L336 482 L337 481 L337 472 L338 471 L338 460 L337 459 L336 445 L329 421 L313 388 L308 380 Z M192 378 L193 377 L194 379 L193 380 Z M732 377 L733 376 L734 377 L733 378 Z M728 377 L729 376 L730 377 L729 378 Z M723 377 L724 376 L725 377 L724 378 Z M198 377 L199 376 L200 378 L199 379 Z M727 376 L728 375 L729 376 L728 377 Z M722 376 L723 375 L724 376 L723 377 Z M193 376 L194 375 L195 376 L194 377 Z M726 375 L727 374 L728 375 L727 376 Z M721 375 L722 374 L723 375 L722 376 Z M702 375 L703 374 L709 380 L707 381 Z M199 375 L200 374 L201 375 L200 376 Z M725 374 L726 373 L727 374 L726 375 Z M720 374 L721 373 L722 374 L721 375 Z M701 374 L702 373 L703 374 L702 375 Z M196 374 L197 373 L198 375 L197 376 Z M724 373 L725 372 L726 373 L725 374 Z M719 373 L720 372 L721 373 L720 374 Z M700 373 L701 372 L702 373 L701 374 Z M723 372 L724 371 L725 372 L724 373 Z M699 372 L700 371 L701 372 L700 373 Z M200 372 L201 371 L202 373 L201 374 Z M722 371 L723 370 L724 371 L723 372 Z M698 371 L699 370 L700 371 L699 372 Z M201 370 L202 369 L203 370 L202 371 Z M208 369 L209 368 L210 370 L209 371 Z M194 369 L195 368 L196 369 L195 370 Z M202 368 L203 367 L204 368 L203 369 Z M189 367 L190 370 L194 371 L187 388 L186 387 L186 381 L187 380 L187 374 Z M195 367 L196 366 L197 367 L196 368 Z M715 365 L717 364 L723 370 L721 371 Z M679 365 L681 364 L694 375 L734 414 L730 408 L729 405 L730 403 L735 409 L738 417 L747 428 L746 429 L737 423 L724 412 L686 374 Z M191 365 L192 364 L193 365 L192 366 Z M714 364 L715 363 L716 364 L715 365 Z M678 364 L679 363 L680 364 L679 365 Z M196 364 L197 363 L198 364 L197 365 Z M924 361 L926 363 L927 370 L919 380 L918 379 L918 371 L921 363 Z M710 361 L711 360 L712 361 L711 362 Z M197 361 L198 360 L199 362 L198 363 Z M709 360 L710 359 L711 360 L710 361 Z M198 359 L199 358 L200 359 L199 360 Z M710 358 L711 357 L712 358 L711 359 Z M196 357 L197 359 L195 363 L193 365 L192 364 L191 365 L192 367 L190 368 L189 367 L190 359 L191 358 L192 361 L193 361 Z M216 356 L217 357 L216 363 L210 369 L209 366 Z M199 357 L200 356 L201 357 L200 358 Z M196 357 L197 356 L198 357 L197 358 Z M191 357 L192 356 L193 358 L192 359 Z M216 356 L217 355 L218 356 L217 357 Z M212 355 L213 354 L214 355 L213 356 Z M197 355 L198 354 L199 356 L198 357 Z M192 355 L193 354 L194 355 L193 356 Z M695 353 L711 363 L719 371 L720 376 L734 393 L744 402 L748 409 L754 416 L753 418 L739 404 L717 378 L696 357 L694 354 Z M217 354 L218 353 L219 354 L218 355 Z M193 354 L194 353 L195 354 L194 355 Z M923 358 L920 361 L916 370 L916 380 L917 383 L914 388 L915 390 L911 397 L906 414 L908 412 L910 404 L916 391 L925 378 L933 370 L943 363 L951 359 L965 355 L978 356 L988 361 L997 372 L1001 381 L1005 395 L1007 414 L1008 415 L1008 432 L1009 433 L1008 473 L1007 474 L1007 486 L1006 487 L1006 498 L1005 499 L1005 509 L1004 510 L1002 538 L1001 539 L1001 546 L1000 547 L999 562 L997 570 L996 585 L995 586 L993 607 L991 615 L990 633 L992 618 L993 617 L993 611 L994 610 L994 604 L995 603 L995 597 L996 596 L996 590 L997 589 L997 583 L998 582 L1000 561 L1001 560 L1002 544 L1003 543 L1004 527 L1005 526 L1006 506 L1007 505 L1008 483 L1009 482 L1010 420 L1009 419 L1009 409 L1008 408 L1007 396 L1004 384 L999 372 L991 361 L984 356 L973 353 L957 355 L941 362 L931 370 L929 369 L927 361 Z M693 353 L694 352 L695 353 L694 354 Z M210 353 L211 352 L212 353 L211 354 Z M195 352 L196 351 L197 352 L196 353 Z M677 351 L678 350 L679 351 L678 352 Z M290 351 L291 350 L292 351 L291 352 Z M211 351 L212 350 L213 351 L212 352 Z M288 350 L289 349 L291 350 L290 351 Z M217 349 L218 351 L214 355 L213 353 Z M212 350 L213 349 L214 350 L213 351 Z M304 349 L305 348 L306 349 L305 350 Z M217 349 L218 348 L219 349 L218 350 Z M213 349 L214 348 L215 349 L214 350 Z M193 349 L194 348 L195 349 L194 350 Z M865 347 L866 348 L866 352 L865 353 L864 352 L864 348 Z M303 348 L304 347 L305 348 L304 349 Z M699 347 L700 346 L701 347 L700 348 Z M297 347 L298 346 L299 347 L298 348 Z M284 347 L286 346 L289 349 L287 350 Z M214 347 L215 346 L216 347 L215 348 Z M697 346 L698 345 L700 346 L699 347 Z M296 346 L297 345 L298 346 L297 347 Z M283 346 L284 345 L285 346 L284 347 Z M215 346 L216 345 L217 346 L216 347 Z M295 345 L296 344 L297 345 L296 346 Z M287 345 L288 344 L290 345 L289 346 Z M282 345 L283 344 L284 345 L283 346 Z M219 345 L220 344 L221 345 L220 346 Z M294 344 L295 343 L296 344 L295 345 Z M286 344 L287 343 L288 344 L287 345 Z M676 343 L678 342 L682 345 L686 346 L693 352 L693 355 L709 373 L707 375 L687 358 L681 355 L678 352 L679 351 L685 351 L685 350 Z M626 343 L627 342 L629 343 L628 344 Z M304 343 L305 342 L306 343 L305 344 Z M285 343 L286 342 L287 343 L286 344 Z M275 343 L276 342 L277 343 L276 344 Z M878 342 L879 341 L880 343 L879 344 Z M864 341 L865 342 L865 346 L864 347 L863 346 L863 342 Z M675 342 L676 341 L677 342 L676 343 Z M624 342 L625 341 L627 342 L626 343 Z M303 342 L304 341 L305 342 L304 343 Z M293 342 L294 341 L295 342 L294 343 Z M289 342 L290 341 L291 342 L290 343 Z M273 342 L274 341 L275 342 L274 343 Z M238 342 L222 356 L221 355 L223 350 L227 345 L235 341 Z M227 342 L228 341 L229 342 L228 343 Z M673 341 L674 340 L675 341 L674 342 Z M302 341 L303 340 L304 341 L303 342 Z M296 341 L298 340 L304 347 L303 348 Z M292 341 L293 340 L294 341 L293 342 Z M288 341 L289 340 L290 341 L289 342 Z M282 341 L284 340 L286 342 L284 343 Z M237 341 L238 340 L239 341 L238 342 Z M229 341 L230 340 L231 341 L230 342 Z M672 340 L673 339 L674 340 L673 341 Z M621 340 L623 339 L625 341 L623 342 Z M295 340 L296 339 L297 340 L296 341 Z M287 340 L288 339 L289 340 L288 341 Z M280 340 L281 339 L283 340 L282 341 Z M230 340 L231 339 L233 340 L232 341 Z M224 340 L225 339 L227 340 L226 341 Z M619 339 L620 338 L622 339 L621 340 Z M478 339 L479 338 L480 339 L479 340 Z M447 339 L448 338 L449 339 L448 340 Z M300 339 L302 338 L303 340 L302 341 Z M285 339 L286 338 L287 339 L286 340 Z M279 339 L280 338 L281 339 L280 340 Z M232 339 L233 338 L235 339 L234 340 Z M226 339 L227 338 L229 339 L228 340 Z M669 338 L670 337 L671 338 L670 339 Z M617 338 L618 337 L620 338 L619 339 Z M448 338 L449 337 L450 338 L449 339 Z M274 338 L275 337 L276 338 L275 339 Z M228 338 L229 337 L230 338 L229 339 Z M616 337 L617 336 L618 337 L617 338 Z M282 337 L284 336 L286 338 L284 339 Z M277 337 L278 336 L280 338 L278 339 Z M211 337 L212 336 L213 337 L212 338 Z M636 336 L640 335 L647 338 L650 338 L674 350 L680 356 L683 357 L699 370 L698 371 L701 377 L704 380 L702 381 L692 371 L660 347 L648 343 Z M614 336 L615 335 L617 336 L616 337 Z M469 336 L454 349 L452 348 L462 338 L467 335 Z M288 336 L289 335 L293 340 L292 341 Z M281 336 L282 335 L283 336 L282 337 Z M258 336 L259 335 L262 336 L261 337 Z M212 336 L213 335 L215 336 L214 337 Z M634 335 L635 334 L637 335 L636 336 Z M612 335 L613 334 L615 335 L614 336 Z M473 335 L474 334 L475 335 L474 336 Z M295 335 L297 334 L301 338 L299 339 Z M279 335 L280 334 L281 335 L280 336 Z M226 334 L227 335 L223 338 L223 340 L225 341 L221 345 L220 344 L220 340 L218 341 L207 353 L208 356 L198 373 L197 372 L198 367 L205 353 L199 355 L198 354 L200 348 L205 343 L206 346 L207 346 L218 336 Z M863 333 L864 334 L864 341 L863 342 L862 341 L862 334 Z M611 334 L612 333 L613 334 L612 335 Z M475 334 L476 333 L477 334 L476 335 Z M294 334 L295 333 L296 334 L295 335 Z M287 334 L288 333 L289 334 L288 335 Z M283 334 L284 333 L285 334 L284 335 Z M278 334 L279 333 L280 334 L279 335 Z M609 333 L610 332 L612 333 L611 334 Z M476 333 L477 332 L479 333 L478 334 Z M292 333 L293 332 L294 333 L293 334 Z M286 333 L287 332 L288 333 L287 334 Z M276 333 L277 332 L278 333 L277 334 Z M676 332 L677 331 L678 332 L677 333 Z M607 332 L608 331 L610 332 L609 333 Z M285 332 L286 331 L287 332 L286 333 Z M275 332 L276 331 L277 332 L276 333 Z M259 332 L260 331 L262 332 L261 333 Z M232 334 L239 331 L244 331 L250 334 L249 335 L243 335 L237 339 L235 339 Z M677 333 L678 332 L680 333 L679 332 L680 330 L692 339 L698 345 L697 346 L694 345 Z M674 331 L675 330 L677 331 L676 332 Z M610 331 L611 330 L614 331 L613 332 Z M605 331 L606 330 L608 331 L607 332 Z M284 331 L285 330 L286 331 L285 332 Z M273 331 L274 330 L276 331 L275 332 Z M673 330 L674 329 L675 330 L674 331 Z M489 329 L490 330 L489 331 L490 334 L480 339 L479 338 L480 333 L478 332 L481 330 L484 331 Z M272 330 L273 329 L274 330 L273 331 Z M262 330 L265 329 L275 334 L274 335 L271 335 L271 337 L274 341 L272 342 L261 337 L262 336 L266 336 L266 334 Z M246 330 L247 329 L249 330 L248 331 Z M233 330 L234 329 L235 330 L234 331 Z M676 329 L677 328 L678 329 L677 330 Z M671 329 L672 328 L673 329 L672 330 Z M489 329 L490 328 L491 329 L490 330 Z M483 329 L484 328 L485 329 L484 330 Z M269 329 L270 328 L273 329 L272 330 Z M261 329 L262 328 L263 329 L262 330 Z M242 329 L243 328 L246 329 L245 330 Z M708 328 L709 330 L737 348 L755 363 L770 379 L784 398 L794 415 L806 439 L814 459 L821 481 L826 501 L829 520 L831 525 L831 520 L830 519 L830 514 L826 499 L826 495 L815 457 L809 442 L804 433 L804 431 L787 400 L771 378 L755 361 L738 347 Z M675 328 L676 327 L677 328 L676 329 Z M669 328 L670 327 L671 328 L670 329 Z M611 328 L612 327 L615 328 L614 329 Z M490 328 L491 327 L493 328 L492 329 Z M234 329 L238 327 L241 328 L239 330 L235 330 Z M213 328 L214 327 L215 328 L214 329 Z M673 327 L674 326 L675 327 L674 328 Z M608 327 L609 326 L612 327 L611 328 Z M492 327 L493 326 L495 327 L494 328 Z M484 328 L487 326 L489 327 L487 329 Z M273 327 L274 326 L276 327 L275 328 Z M232 327 L233 326 L236 327 L235 328 Z M494 326 L495 325 L497 326 L496 327 Z M488 326 L489 325 L490 326 L489 327 Z M219 326 L220 325 L221 326 L220 327 Z M664 325 L665 324 L666 325 L665 326 Z M496 325 L497 324 L499 325 L498 326 Z M489 325 L490 324 L492 325 L491 326 Z M220 325 L221 324 L222 325 L221 326 Z M491 324 L492 323 L493 324 L492 325 Z M255 324 L256 323 L258 324 L257 325 Z M492 323 L493 322 L494 323 L493 324 Z M486 323 L487 322 L489 323 L488 324 Z M493 322 L494 321 L496 322 L495 323 Z M489 322 L490 321 L491 322 L490 323 Z M495 321 L496 320 L498 321 L497 322 Z M490 321 L491 320 L493 321 L492 322 Z M258 321 L259 320 L263 322 L270 328 L268 329 L261 326 L258 326 L257 325 L259 323 Z M241 325 L246 321 L249 322 L252 320 L256 323 L255 324 L251 324 L251 325 L260 331 L257 332 L250 328 L244 327 Z M492 320 L493 319 L495 320 L494 321 Z M469 320 L470 319 L471 320 L470 321 Z M256 320 L257 319 L258 320 L257 321 Z M249 320 L250 319 L251 320 L250 321 Z M535 319 L536 318 L537 319 L536 320 Z M523 319 L525 318 L532 320 L531 321 L525 321 Z M494 319 L495 318 L497 319 L496 320 Z M486 319 L487 318 L488 319 L487 320 Z M254 319 L255 318 L257 319 L256 320 Z M483 318 L484 317 L485 318 L484 319 Z M472 318 L473 317 L474 318 L473 319 Z M252 318 L253 317 L254 318 L253 319 Z M244 318 L245 317 L246 318 L245 319 Z M506 317 L499 321 L496 318 L497 317 L500 318 L503 316 Z M498 317 L499 316 L501 317 L500 318 Z M484 317 L485 316 L486 317 L485 318 Z M474 317 L475 316 L476 317 L475 318 Z M258 317 L259 316 L268 317 L275 321 L285 330 L280 333 L278 331 L279 328 L274 323 L270 322 L268 324 Z M242 317 L243 316 L244 317 L243 318 Z M505 316 L506 315 L509 316 L508 317 Z M500 316 L501 315 L502 316 L501 317 Z M475 316 L476 315 L478 316 L477 317 Z M508 315 L509 314 L512 315 L511 316 Z M501 315 L502 314 L504 315 L503 316 Z M477 315 L478 314 L480 315 L479 316 Z M243 320 L243 322 L241 324 L234 324 L228 327 L228 328 L232 327 L233 328 L232 330 L228 330 L216 336 L214 335 L215 334 L214 333 L216 331 L226 325 L228 322 L232 322 L233 320 L224 321 L218 323 L212 327 L210 326 L211 327 L209 329 L209 332 L211 333 L206 336 L195 349 L194 348 L196 341 L203 330 L210 323 L217 318 L230 314 L231 317 L235 317 Z M503 314 L504 313 L505 314 L504 315 Z M479 314 L480 313 L482 314 L481 315 Z M240 314 L241 313 L248 313 L253 317 L250 318 Z M481 313 L482 312 L484 313 L483 314 Z M533 316 L534 315 L538 315 L544 311 L546 313 L550 313 L551 314 L559 314 L560 315 L566 315 L567 316 L582 318 L592 322 L600 324 L606 324 L609 326 L607 329 L606 328 L598 328 L591 325 L583 324 L582 323 L571 323 L570 322 L569 323 L568 322 L562 322 L557 320 L546 319 Z M554 322 L553 323 L540 323 L539 324 L526 325 L517 328 L512 328 L497 332 L494 331 L495 329 L496 330 L497 328 L504 324 L504 323 L499 325 L498 324 L506 319 L526 312 L534 312 L535 311 L539 311 L540 312 L513 320 L509 324 L511 324 L516 321 L530 323 L531 322 L536 322 L540 320 L545 320 L546 321 L553 321 Z M483 312 L484 311 L486 312 L485 313 Z M485 311 L486 310 L490 310 L491 311 L490 312 L486 312 Z M482 310 L462 323 L457 329 L451 333 L444 340 L443 338 L442 339 L439 338 L453 325 L474 310 L478 310 L479 309 Z M662 309 L663 308 L664 309 L663 310 Z M660 308 L661 307 L663 308 L662 309 Z M652 308 L654 307 L671 315 L688 328 L716 354 L733 376 L732 377 L717 363 L710 353 L692 337 Z M650 307 L651 306 L653 307 L652 308 Z M570 307 L571 306 L574 307 L573 308 Z M649 306 L650 305 L651 306 L650 307 Z M529 306 L530 305 L532 306 L531 307 Z M530 307 L528 310 L514 315 L511 314 L516 310 L514 310 L507 314 L504 313 L515 307 L527 305 Z M511 306 L512 305 L514 306 L513 307 Z M510 304 L511 307 L509 309 L490 319 L487 318 L490 315 L491 316 L490 315 L493 312 L493 311 L490 310 L504 304 L508 303 Z M463 309 L456 306 L448 305 L447 304 L424 304 L414 307 L401 314 L393 320 L374 338 L371 339 L363 338 L348 325 L339 319 L328 315 L318 315 L311 317 L289 330 L275 318 L266 314 L262 314 L261 313 L253 314 L251 312 L245 310 L244 311 L228 312 L220 314 L205 324 L199 331 L192 344 L189 355 L186 359 L186 362 L187 360 L188 364 L187 365 L187 369 L185 375 L185 382 L184 383 L183 404 L185 407 L185 412 L184 413 L183 427 L185 424 L186 417 L189 409 L196 396 L203 375 L204 374 L205 375 L209 374 L226 355 L241 342 L249 339 L251 337 L270 343 L284 351 L287 351 L297 357 L297 355 L292 348 L294 347 L306 354 L313 360 L312 356 L306 347 L307 346 L310 347 L307 341 L298 332 L291 329 L295 328 L316 317 L330 317 L344 324 L362 339 L369 341 L375 339 L397 319 L413 309 L430 305 L442 305 L443 306 L449 306 L459 309 Z M547 303 L548 302 L549 303 L548 304 Z M567 303 L564 304 L563 306 L547 309 L543 312 L540 310 L531 310 L530 309 L534 306 L540 305 L544 303 L547 303 L549 306 L553 306 L555 303 L562 301 L565 301 Z M566 301 L567 300 L570 301 L569 302 Z M506 301 L507 300 L508 301 L507 302 Z M555 300 L556 299 L559 300 L558 301 Z M513 300 L512 302 L508 301 L512 299 Z M924 298 L927 307 L926 318 L924 324 L923 323 L923 299 Z M570 300 L571 299 L586 298 L587 297 L602 297 L605 299 L609 299 L615 301 L620 304 L619 305 L615 305 L608 303 L589 303 L588 302 L580 302 L579 301 L571 301 Z M555 297 L556 296 L557 297 L556 298 Z M510 297 L511 296 L512 297 L511 298 Z M512 296 L513 295 L515 296 L514 297 Z M532 295 L533 294 L534 295 L533 296 Z M514 295 L515 294 L517 295 L516 296 Z M534 294 L535 293 L536 294 L535 295 Z M606 293 L607 294 L621 296 L621 295 L618 294 Z M922 292 L921 293 L921 330 L920 331 L919 343 L925 330 L928 318 L928 311 L929 310 L927 299 Z M539 292 L540 291 L541 292 L540 293 Z M541 291 L542 290 L544 291 L543 292 Z M517 291 L504 300 L505 302 L504 303 L483 310 L481 309 L500 296 L515 290 Z M556 296 L571 289 L577 289 L581 291 L585 291 L594 294 L589 296 L578 296 L577 297 L557 297 Z M544 290 L545 289 L546 290 L545 291 Z M564 289 L565 288 L567 289 L566 290 Z M549 311 L560 308 L569 308 L576 311 L592 314 L617 324 L644 332 L644 330 L641 330 L617 322 L609 318 L591 312 L574 309 L573 308 L574 307 L590 308 L598 311 L605 312 L617 317 L630 320 L635 322 L639 326 L645 328 L647 330 L646 331 L648 330 L655 334 L657 334 L656 332 L635 320 L623 316 L612 314 L607 311 L608 310 L612 310 L637 316 L635 314 L609 308 L608 309 L605 308 L607 309 L605 311 L588 306 L568 305 L567 304 L568 303 L583 303 L591 305 L611 305 L612 306 L622 305 L622 303 L611 298 L605 297 L600 294 L591 291 L587 291 L578 288 L579 287 L596 287 L597 288 L604 288 L605 289 L613 290 L616 292 L619 292 L628 296 L631 296 L637 299 L638 301 L647 304 L653 311 L674 326 L671 327 L667 325 L661 320 L639 308 L633 307 L627 304 L626 305 L627 307 L629 306 L632 308 L638 309 L662 322 L664 324 L663 325 L643 317 L643 319 L651 321 L672 331 L688 343 L704 352 L705 351 L711 357 L709 360 L706 359 L687 345 L680 342 L657 327 L656 328 L669 337 L668 339 L680 348 L679 349 L675 349 L654 338 L636 332 L630 332 L634 337 L642 341 L648 346 L650 345 L661 349 L679 363 L674 365 L670 363 L662 362 L653 359 L639 352 L628 344 L630 343 L633 345 L642 347 L657 355 L668 359 L669 358 L644 346 L630 342 L623 337 L613 332 L614 331 L619 331 L624 333 L625 332 L618 329 L609 323 L599 322 L581 316 L577 316 L566 313 L550 312 Z M907 284 L910 292 L910 309 L908 317 L906 312 L906 285 Z M536 285 L537 284 L539 285 L538 286 Z M536 286 L518 295 L516 294 L519 292 L519 291 L516 290 L517 289 L531 284 L534 284 Z M563 290 L553 296 L555 299 L554 300 L545 301 L537 304 L521 304 L516 306 L513 305 L519 302 L518 301 L514 302 L513 301 L515 300 L513 299 L520 296 L532 289 L542 286 L548 282 L556 282 L557 283 L528 295 L527 297 L531 298 L536 296 L540 296 L545 294 L547 291 L551 291 L556 289 L562 289 Z M558 282 L559 281 L560 282 L559 283 Z M556 282 L557 281 L558 282 L557 283 Z M547 289 L550 287 L567 282 L579 281 L580 280 L601 280 L602 281 L616 283 L639 292 L656 302 L661 307 L659 308 L629 294 L606 287 L601 287 L600 286 L578 286 L574 288 L572 287 L562 287 L550 290 Z M907 279 L905 280 L904 284 L905 340 L907 335 L907 331 L911 315 L911 310 L912 309 L912 292 L909 281 Z M427 350 L427 352 L435 344 L443 339 L444 341 L438 349 L439 349 L451 340 L466 325 L480 317 L482 317 L484 319 L481 323 L482 324 L484 323 L487 324 L470 336 L468 335 L476 329 L478 326 L464 334 L451 346 L439 362 L474 338 L476 339 L474 344 L476 344 L497 334 L508 333 L529 327 L546 326 L547 325 L574 325 L575 326 L585 326 L589 328 L592 328 L608 335 L636 353 L649 360 L664 365 L672 366 L680 370 L689 381 L716 408 L739 427 L741 427 L765 449 L750 428 L739 416 L738 413 L739 412 L744 418 L744 415 L732 404 L729 399 L724 395 L720 389 L707 375 L709 373 L726 390 L733 399 L732 400 L733 399 L763 431 L762 426 L758 419 L746 403 L739 392 L737 393 L724 379 L725 377 L728 379 L731 378 L745 395 L755 405 L752 398 L745 387 L720 355 L686 323 L667 309 L656 299 L640 290 L617 281 L604 278 L586 277 L585 278 L558 279 L557 280 L547 280 L546 281 L536 280 L521 285 L513 289 L500 293 L474 307 L469 312 L463 315 L449 325 L436 338 Z M881 270 L884 274 L890 287 L894 303 L894 308 L895 309 L894 332 L892 339 L891 338 L891 332 L889 325 L889 319 L888 318 L883 283 L880 273 Z M878 264 L877 265 L877 269 L882 290 L882 296 L884 302 L884 307 L885 308 L885 313 L886 314 L886 319 L887 320 L887 325 L890 338 L891 357 L892 357 L895 333 L896 332 L897 308 L896 307 L896 302 L893 289 L890 281 L882 267 Z M861 263 L867 276 L878 313 L879 331 L880 332 L880 338 L878 342 L871 322 L871 319 L869 315 L865 299 L861 272 L860 271 L860 264 Z M859 262 L860 261 L861 263 L860 264 Z M858 256 L857 258 L857 266 L858 267 L859 280 L860 281 L860 286 L863 296 L864 305 L877 344 L877 347 L879 350 L880 356 L881 356 L881 319 L880 318 L879 307 L865 265 L863 263 L863 261 L860 256 Z M834 254 L835 253 L836 255 L835 256 Z M516 261 L509 257 L499 254 L496 252 L460 241 L439 241 L438 242 L434 242 L420 247 L384 265 L369 269 L356 269 L349 267 L342 267 L299 253 L283 253 L271 259 L262 268 L255 278 L245 296 L248 293 L263 269 L275 258 L286 254 L295 254 L296 255 L305 256 L332 266 L345 269 L372 270 L390 264 L417 250 L427 246 L438 243 L454 242 L455 243 L461 243 L473 246 Z M817 234 L842 269 L852 292 L857 307 L859 322 L860 323 L860 337 L857 342 L857 359 L858 360 L858 373 L857 374 L855 369 L853 353 L852 352 L852 348 L848 332 L848 327 L845 318 L843 305 L834 276 L827 261 L838 294 L843 314 L844 323 L846 328 L847 338 L848 339 L848 343 L852 359 L852 364 L853 365 L853 371 L854 372 L854 387 L853 388 L846 366 L846 363 L833 326 L833 323 L831 319 L826 299 L826 295 L825 294 L825 290 L824 289 L824 285 L818 259 L818 253 L817 252 L817 245 L816 244 L816 235 Z M816 230 L813 235 L814 249 L815 250 L817 268 L821 282 L825 305 L829 321 L835 337 L835 340 L838 346 L843 361 L843 364 L845 367 L845 370 L848 377 L848 380 L852 392 L854 405 L856 407 L856 383 L857 382 L858 383 L859 395 L860 398 L861 398 L861 391 L860 390 L860 362 L859 361 L859 340 L860 339 L862 345 L864 360 L866 365 L866 372 L867 372 L868 368 L868 349 L867 348 L867 339 L866 338 L865 328 L857 300 L855 297 L854 292 L846 272 L838 256 L837 251 L835 250 L834 254 L825 240 Z M516 191 L498 182 L476 175 L461 174 L460 175 L449 176 L436 180 L403 196 L377 206 L367 207 L366 208 L356 208 L344 205 L336 201 L318 189 L312 187 L300 187 L290 191 L281 197 L272 206 L266 215 L286 195 L293 191 L305 188 L316 190 L324 194 L333 201 L342 206 L358 210 L371 209 L383 206 L398 200 L435 182 L458 176 L472 176 L473 177 L482 178 L499 184 L515 192 Z M248 168 L251 168 L258 165 L261 165 L277 160 L281 160 L297 156 L302 156 L303 155 L324 153 L325 152 L350 151 L351 150 L377 150 L378 149 L384 149 L385 150 L423 150 L424 151 L441 151 L442 152 L482 154 L483 155 L491 155 L492 156 L502 156 L503 157 L511 157 L512 158 L522 158 L523 159 L531 159 L532 160 L568 163 L569 164 L585 165 L586 166 L593 166 L594 167 L601 167 L602 168 L630 171 L631 172 L660 176 L671 179 L676 179 L732 192 L736 194 L760 200 L767 203 L770 203 L826 222 L829 224 L834 225 L842 229 L847 230 L877 242 L882 245 L912 257 L919 261 L921 261 L968 284 L970 286 L981 291 L1007 306 L1019 314 L1028 323 L1018 361 L1014 353 L1006 343 L995 335 L982 330 L978 330 L977 329 L957 330 L947 333 L929 343 L917 354 L910 363 L901 378 L893 395 L885 425 L882 489 L883 489 L883 484 L884 483 L886 438 L887 437 L887 429 L888 428 L888 422 L889 421 L891 407 L896 392 L904 376 L916 358 L927 347 L937 340 L953 333 L961 332 L962 331 L978 331 L989 334 L1000 340 L1011 351 L1015 357 L1019 366 L1019 369 L1023 380 L1024 391 L1025 392 L1025 405 L1026 406 L1026 426 L1025 427 L1025 449 L1024 450 L1023 475 L1022 476 L1020 506 L1019 507 L1019 515 L1018 516 L1018 523 L1017 524 L1014 558 L1012 565 L1012 573 L1011 574 L1008 605 L1007 606 L1006 620 L1004 628 L1004 636 L1002 644 L1002 651 L1000 659 L1000 666 L998 674 L998 681 L997 682 L997 689 L996 690 L996 697 L994 705 L994 712 L993 713 L993 720 L991 728 L991 735 L990 736 L987 763 L986 764 L986 769 L985 770 L985 775 L984 776 L984 781 L983 782 L980 802 L972 831 L967 841 L961 847 L950 853 L946 854 L932 854 L918 849 L904 838 L897 830 L889 818 L878 794 L872 776 L871 768 L868 762 L868 757 L865 744 L868 712 L874 691 L882 674 L890 665 L894 663 L904 662 L918 657 L927 656 L926 655 L920 655 L909 652 L891 651 L885 648 L885 658 L883 666 L874 686 L868 704 L867 714 L866 715 L866 723 L865 724 L865 734 L864 735 L863 734 L861 720 L860 719 L859 720 L860 721 L859 724 L859 764 L860 765 L862 812 L863 813 L863 854 L862 855 L861 854 L861 837 L860 836 L859 819 L857 812 L857 805 L854 792 L852 774 L850 769 L850 764 L849 763 L841 719 L840 718 L839 719 L840 721 L841 743 L843 750 L843 756 L842 757 L839 747 L838 747 L839 789 L840 790 L841 819 L842 820 L842 844 L843 845 L842 885 L841 886 L840 885 L840 859 L839 858 L839 846 L837 838 L837 831 L836 830 L835 819 L830 799 L829 791 L828 791 L828 798 L827 799 L827 804 L828 805 L828 843 L829 844 L829 863 L830 864 L830 883 L831 884 L832 937 L834 936 L836 927 L838 926 L840 919 L841 908 L842 907 L843 886 L844 885 L844 859 L845 858 L846 859 L846 874 L847 875 L847 890 L848 891 L848 909 L849 910 L849 921 L850 922 L850 932 L851 933 L852 948 L854 946 L856 929 L857 928 L857 921 L859 914 L860 915 L861 932 L862 932 L865 909 L866 908 L868 893 L869 892 L869 886 L870 885 L872 857 L873 856 L873 836 L874 835 L873 828 L874 827 L873 826 L872 794 L871 793 L871 783 L870 782 L870 775 L871 774 L872 775 L873 784 L885 814 L895 830 L907 843 L914 848 L930 855 L934 855 L935 856 L947 856 L951 854 L953 855 L952 867 L951 868 L948 888 L938 920 L931 935 L931 937 L913 973 L881 1029 L877 1034 L865 1056 L832 1110 L788 1174 L762 1205 L720 1246 L704 1258 L678 1273 L676 1273 L659 1281 L632 1289 L616 1291 L615 1292 L609 1292 L608 1293 L589 1294 L588 1295 L575 1295 L574 1296 L534 1297 L533 1298 L499 1298 L498 1299 L417 1298 L416 1297 L405 1297 L404 1296 L391 1295 L370 1290 L351 1283 L336 1275 L322 1265 L306 1250 L292 1233 L278 1211 L268 1191 L254 1156 L231 1085 L208 994 L208 990 L204 974 L204 969 L203 968 L200 936 L199 935 L199 930 L198 929 L194 905 L179 845 L179 841 L174 824 L174 820 L170 807 L170 803 L168 798 L168 794 L163 774 L163 769 L162 768 L162 763 L159 750 L159 743 L158 742 L157 724 L156 723 L156 706 L155 705 L156 662 L157 661 L158 642 L159 641 L160 625 L161 624 L163 602 L164 601 L165 563 L166 562 L166 556 L173 532 L174 519 L175 518 L175 506 L176 505 L177 429 L178 428 L179 388 L180 387 L180 379 L181 378 L182 366 L186 350 L189 343 L190 335 L191 334 L191 328 L192 327 L192 306 L188 290 L186 286 L186 283 L184 279 L182 264 L181 263 L181 248 L180 247 L181 245 L181 235 L186 217 L195 201 L212 185 L235 173 L245 170 Z M168 206 L170 200 L176 190 L192 174 L211 161 L231 151 L261 140 L289 133 L308 130 L309 129 L321 128 L322 127 L330 127 L331 126 L340 126 L341 125 L353 125 L354 124 L423 124 L424 125 L441 125 L442 126 L466 127 L467 128 L476 128 L477 129 L485 129 L486 130 L494 130 L495 131 L534 135 L535 136 L541 136 L542 137 L548 137 L549 138 L555 138 L556 139 L562 139 L563 140 L569 140 L570 141 L576 141 L577 142 L583 142 L584 143 L613 147 L624 150 L629 150 L630 151 L679 160 L688 163 L692 163 L701 166 L705 166 L741 175 L814 198 L817 200 L852 212 L882 224 L894 230 L901 232 L913 238 L915 238 L948 254 L950 254 L996 277 L1026 295 L1034 304 L1036 310 L1036 315 L1035 319 L1030 323 L1023 315 L1007 304 L975 287 L973 285 L927 262 L925 262 L916 257 L914 257 L884 243 L844 227 L839 226 L831 222 L812 216 L809 214 L753 196 L750 196 L746 194 L739 193 L735 191 L711 185 L707 185 L698 182 L694 182 L689 180 L685 180 L664 175 L659 175 L658 174 L636 171 L635 170 L608 167 L607 166 L600 166 L599 165 L592 165 L591 164 L584 164 L583 163 L576 163 L575 162 L567 162 L566 161 L558 161 L557 160 L549 160 L548 159 L530 158 L529 157 L500 155 L499 154 L466 152 L465 151 L452 151 L451 150 L435 150 L434 149 L360 148 L359 149 L330 150 L329 151 L320 151 L319 152 L299 154 L298 155 L274 159 L270 161 L266 161 L233 172 L212 183 L205 188 L195 198 L187 210 L182 223 L180 231 L180 236 L179 237 L179 242 L178 243 L172 232 L168 219 Z M354 80 L358 77 L365 77 L366 76 L377 76 L378 75 L387 75 L388 74 L417 74 L418 75 L436 76 L449 79 L493 78 L494 79 L512 79 L513 80 L527 80 L528 81 L560 83 L561 84 L568 84 L569 85 L577 85 L578 86 L585 86 L586 87 L615 90 L616 91 L635 93 L636 94 L641 94 L642 95 L647 95 L648 96 L681 101 L686 103 L705 106 L714 109 L718 109 L723 111 L739 114 L743 116 L765 121 L796 131 L806 133 L853 149 L856 151 L877 158 L902 169 L909 171 L954 192 L956 192 L1014 221 L1016 223 L1015 224 L1016 227 L1016 285 L1014 286 L1005 280 L984 270 L982 268 L937 246 L935 246 L917 237 L915 237 L910 234 L908 234 L903 231 L901 231 L896 228 L889 226 L862 214 L781 185 L778 185 L768 181 L765 181 L740 173 L700 163 L696 163 L682 159 L678 159 L677 158 L673 158 L663 155 L648 153 L632 149 L627 149 L621 147 L616 147 L615 146 L610 146 L609 145 L604 145 L603 144 L598 144 L597 143 L592 143 L579 140 L573 140 L560 137 L553 137 L546 135 L539 135 L538 134 L509 131 L501 129 L485 128 L484 127 L455 125 L454 124 L443 124 L442 123 L399 122 L398 121 L347 123 L346 121 L350 106 L350 101 L353 90 Z M355 75 L352 78 L352 83 L347 104 L347 109 L343 123 L314 126 L308 128 L288 131 L279 134 L275 134 L251 141 L226 151 L205 162 L187 175 L179 183 L170 195 L166 205 L166 210 L165 211 L166 221 L170 233 L178 249 L178 257 L179 258 L179 266 L180 267 L181 277 L189 303 L190 322 L189 323 L189 331 L188 332 L187 341 L180 364 L180 369 L178 375 L178 383 L177 384 L176 419 L175 420 L175 463 L174 464 L173 514 L172 515 L171 529 L164 554 L163 568 L162 569 L162 598 L161 599 L161 607 L160 608 L159 622 L158 623 L157 637 L156 638 L155 656 L154 657 L154 670 L153 671 L153 715 L154 716 L155 739 L156 740 L156 746 L157 747 L161 776 L164 786 L166 800 L170 813 L170 817 L172 822 L172 826 L191 902 L192 911 L194 916 L195 926 L197 932 L197 938 L198 939 L201 971 L202 972 L202 977 L206 992 L206 996 L208 1001 L208 1005 L221 1057 L223 1061 L225 1072 L227 1076 L233 1100 L236 1107 L236 1110 L238 1113 L238 1116 L250 1152 L252 1155 L253 1160 L267 1195 L281 1221 L296 1242 L317 1264 L326 1271 L342 1281 L360 1289 L384 1296 L400 1298 L401 1299 L410 1299 L411 1300 L428 1300 L429 1301 L541 1300 L542 1299 L561 1299 L562 1298 L592 1297 L593 1296 L603 1296 L604 1295 L612 1295 L613 1294 L629 1292 L645 1288 L670 1279 L683 1273 L705 1260 L734 1237 L760 1211 L775 1194 L807 1152 L848 1089 L850 1084 L854 1079 L881 1034 L899 1001 L908 987 L919 965 L921 963 L937 929 L948 897 L952 876 L953 875 L956 853 L962 849 L970 841 L977 823 L983 799 L986 779 L987 778 L987 773 L988 772 L988 767 L989 766 L989 760 L990 759 L990 753 L991 752 L991 746 L993 738 L993 731 L994 730 L994 723 L996 715 L996 708 L998 700 L998 693 L999 692 L999 685 L1001 677 L1001 670 L1003 662 L1005 639 L1006 638 L1007 624 L1009 616 L1009 608 L1010 607 L1012 584 L1014 576 L1019 529 L1020 528 L1021 510 L1022 509 L1022 501 L1023 500 L1023 490 L1024 489 L1024 479 L1025 478 L1025 467 L1026 466 L1027 436 L1028 435 L1028 400 L1027 399 L1027 390 L1026 389 L1025 378 L1021 367 L1021 359 L1029 328 L1037 320 L1038 309 L1035 301 L1027 293 L1018 287 L1018 221 L976 199 L974 199 L959 191 L957 191 L917 172 L915 172 L903 166 L888 161 L875 155 L828 139 L825 137 L822 137 L803 130 L800 130 L787 125 L784 125 L766 119 L759 118 L744 113 L720 107 L716 107 L707 104 L703 104 L702 103 L698 103 L693 101 L678 99 L667 96 L656 95 L650 93 L638 92 L637 91 L619 89 L618 88 L604 87 L603 86 L589 85 L588 84 L554 81 L553 80 L519 78 L518 77 L501 77 L500 76 L461 76 L460 77 L452 77 L451 76 L444 76 L431 73 L409 72 L408 71 L394 71 L393 72 Z" fill="#eef3f4" fill-rule="evenodd"/>
</svg>
