<svg xmlns="http://www.w3.org/2000/svg" width="1122" height="1402" viewBox="0 0 1122 1402">
  <title>0448</title>
  <path d="M585 1267 L586 1266 L587 1267 L586 1268 Z M559 1267 L560 1266 L561 1267 L560 1268 Z M519 1267 L520 1266 L521 1267 L520 1268 Z M520 1266 L521 1265 L522 1266 L521 1267 Z M551 1265 L554 1263 L557 1265 L557 1267 L556 1268 Z M557 1263 L558 1262 L559 1263 L558 1264 Z M628 1259 L629 1260 L628 1263 L627 1262 Z M456 1252 L459 1251 L461 1253 L463 1253 L466 1251 L471 1251 L472 1252 L471 1254 L474 1256 L473 1255 L474 1253 L476 1255 L476 1257 L473 1258 L470 1256 L464 1256 L460 1255 Z M448 1253 L451 1251 L453 1251 L455 1253 L454 1254 L449 1254 Z M608 1249 L606 1250 L606 1254 L608 1252 Z M579 1246 L580 1245 L581 1246 L580 1247 Z M676 1244 L674 1244 L673 1249 L675 1249 Z M592 1244 L591 1244 L590 1248 Z M703 1237 L704 1236 L705 1237 L704 1238 Z M632 1236 L633 1237 L632 1240 L631 1239 Z M704 1235 L705 1234 L706 1235 L705 1236 Z M672 1230 L670 1231 L669 1237 L671 1236 Z M508 1228 L509 1230 L513 1231 L512 1229 Z M513 1226 L516 1229 L515 1230 L516 1229 L517 1230 L516 1232 L517 1233 L520 1232 L516 1226 Z M634 1225 L635 1224 L636 1226 L635 1227 Z M427 1223 L428 1224 L427 1227 L426 1226 Z M426 1219 L427 1220 L426 1223 L425 1222 Z M671 1217 L672 1216 L673 1217 L672 1218 Z M424 1208 L425 1211 L428 1214 L425 1220 L423 1214 L423 1209 Z M690 1207 L691 1206 L692 1207 L691 1208 Z M736 1203 L737 1202 L738 1203 L737 1204 Z M737 1201 L738 1200 L739 1201 L738 1202 Z M596 1198 L595 1198 L595 1201 Z M395 1189 L394 1193 L395 1193 Z M390 1188 L391 1198 L392 1201 L394 1202 L392 1196 L392 1188 Z M599 1183 L597 1184 L597 1186 L600 1185 Z M578 1183 L578 1184 L585 1185 L588 1187 L591 1186 L593 1187 L594 1185 L590 1186 L587 1184 Z M631 1182 L626 1187 L629 1186 L631 1184 Z M399 1182 L400 1181 L401 1182 L400 1183 Z M727 1181 L725 1182 L719 1196 L722 1194 Z M598 1175 L599 1174 L600 1175 L599 1176 Z M759 1171 L760 1170 L761 1171 L760 1172 Z M599 1169 L600 1172 L598 1173 L597 1172 Z M725 1168 L721 1171 L717 1170 L709 1180 L707 1185 L714 1177 L716 1173 L719 1173 Z M632 1167 L629 1169 L629 1171 Z M386 1167 L386 1177 L388 1182 L389 1182 L388 1169 Z M493 1165 L496 1169 L498 1169 L496 1166 Z M356 1165 L357 1164 L358 1166 L357 1167 Z M564 1152 L565 1151 L566 1152 L565 1153 Z M499 1152 L497 1154 L497 1156 L500 1155 Z M753 1150 L749 1152 L749 1153 L751 1153 Z M734 1145 L735 1144 L736 1145 L735 1146 Z M622 1143 L617 1144 L611 1149 L612 1150 L618 1145 L621 1145 Z M743 1139 L741 1139 L734 1144 L730 1143 L729 1147 L734 1145 L736 1150 L735 1161 L731 1175 L733 1175 L736 1165 L736 1160 L738 1157 L738 1154 L740 1152 L740 1151 L737 1150 L737 1145 L740 1141 L743 1143 L747 1149 L748 1149 L748 1147 Z M603 1136 L604 1138 L602 1140 L601 1138 Z M758 1134 L759 1133 L760 1134 L759 1135 Z M654 1150 L653 1149 L630 1160 L621 1162 L614 1165 L607 1166 L606 1164 L609 1162 L609 1159 L606 1160 L604 1158 L602 1150 L602 1145 L606 1134 L602 1135 L600 1137 L588 1137 L587 1138 L580 1138 L576 1140 L572 1139 L562 1139 L561 1140 L551 1139 L555 1142 L567 1141 L568 1140 L572 1142 L575 1142 L584 1139 L599 1138 L600 1139 L599 1142 L601 1140 L602 1141 L600 1146 L601 1150 L601 1155 L600 1156 L598 1153 L599 1152 L598 1153 L596 1152 L592 1152 L591 1153 L590 1151 L588 1151 L589 1152 L588 1153 L575 1153 L574 1152 L567 1152 L559 1150 L549 1150 L549 1151 L562 1152 L563 1153 L561 1155 L558 1155 L554 1157 L549 1157 L538 1162 L545 1161 L548 1159 L553 1159 L557 1157 L561 1157 L566 1154 L574 1154 L582 1156 L586 1155 L589 1156 L593 1154 L596 1154 L598 1156 L600 1162 L599 1166 L597 1168 L582 1168 L581 1169 L565 1169 L564 1168 L560 1168 L559 1169 L555 1168 L554 1169 L553 1168 L543 1168 L542 1167 L543 1166 L541 1166 L539 1168 L533 1168 L532 1167 L519 1166 L514 1164 L505 1163 L476 1152 L474 1150 L470 1149 L467 1146 L461 1144 L466 1148 L470 1149 L472 1151 L496 1162 L506 1165 L511 1165 L523 1168 L522 1169 L512 1169 L508 1171 L507 1169 L502 1167 L509 1174 L510 1172 L513 1171 L514 1172 L515 1171 L527 1170 L528 1169 L541 1169 L542 1170 L592 1170 L595 1169 L596 1170 L593 1172 L576 1172 L575 1173 L594 1174 L595 1175 L594 1176 L590 1176 L587 1177 L587 1178 L593 1178 L595 1176 L597 1176 L598 1177 L598 1181 L600 1180 L601 1172 L603 1169 L603 1167 L600 1166 L601 1165 L601 1158 L602 1157 L605 1162 L605 1167 L612 1167 L630 1162 L635 1159 L644 1156 Z M731 1133 L729 1133 L726 1137 L725 1154 L727 1158 L728 1158 L727 1155 L728 1136 Z M551 1132 L551 1133 L556 1133 L556 1132 Z M502 1131 L506 1135 L510 1133 L511 1134 L515 1134 L517 1137 L515 1139 L516 1142 L519 1139 L523 1140 L536 1140 L541 1145 L540 1142 L536 1138 L526 1139 L520 1137 L517 1134 L517 1132 L510 1131 L505 1133 Z M645 1125 L612 1134 L613 1135 L620 1134 Z M768 1120 L766 1121 L764 1126 L756 1134 L756 1135 L758 1134 L759 1135 L757 1139 L759 1139 L766 1124 L768 1123 Z M737 1120 L735 1126 L737 1124 L738 1127 L741 1128 L740 1125 L736 1123 Z M471 1118 L472 1117 L475 1118 L474 1119 Z M466 1116 L469 1115 L472 1117 L469 1118 Z M661 1115 L662 1114 L664 1115 L663 1116 Z M617 1115 L618 1114 L622 1115 L621 1116 Z M515 1115 L516 1114 L523 1114 L527 1116 L528 1115 L536 1116 L538 1118 L537 1119 L520 1118 Z M464 1115 L465 1114 L467 1115 L466 1116 Z M362 1115 L360 1116 L360 1123 L358 1127 L358 1138 L360 1138 L361 1136 L361 1118 Z M621 1114 L622 1113 L623 1114 L622 1115 Z M426 1114 L447 1135 L454 1140 L456 1140 L445 1131 L441 1129 Z M459 1113 L462 1112 L465 1114 L462 1115 Z M638 1112 L639 1111 L640 1112 L639 1113 Z M633 1112 L634 1111 L636 1112 L635 1113 Z M458 1112 L459 1111 L460 1112 L459 1113 Z M765 1110 L767 1113 L764 1116 L763 1114 Z M456 1111 L457 1110 L458 1111 L457 1112 Z M765 1110 L766 1109 L767 1110 L766 1111 Z M638 1110 L639 1109 L640 1110 L639 1111 Z M454 1110 L455 1109 L456 1110 L455 1111 Z M766 1109 L768 1108 L769 1111 L768 1112 Z M453 1109 L454 1108 L455 1109 L454 1110 Z M638 1108 L639 1107 L640 1108 L639 1109 Z M450 1108 L451 1107 L452 1108 L451 1109 Z M448 1107 L449 1106 L450 1107 L449 1108 Z M639 1105 L640 1104 L641 1105 L640 1106 Z M642 1103 L644 1101 L647 1102 L644 1104 Z M646 1101 L647 1100 L649 1101 L648 1102 Z M456 1104 L459 1102 L458 1101 L459 1100 L467 1105 L474 1104 L478 1106 L479 1104 L480 1105 L480 1116 L478 1118 L460 1110 L456 1106 Z M693 1101 L684 1107 L672 1111 L666 1115 L663 1114 L679 1105 L687 1099 L690 1099 Z M648 1100 L649 1099 L650 1100 L649 1101 Z M705 1099 L706 1098 L707 1099 L706 1100 Z M543 1099 L544 1098 L545 1099 L544 1100 Z M364 1099 L363 1100 L363 1106 L364 1105 Z M706 1097 L707 1096 L708 1097 L707 1098 Z M703 1097 L704 1096 L705 1097 L704 1098 Z M433 1097 L434 1096 L435 1097 L434 1098 Z M784 1095 L782 1096 L774 1115 L773 1114 L773 1110 L771 1108 L771 1105 L774 1102 L772 1102 L768 1107 L765 1107 L762 1111 L763 1118 L766 1117 L769 1111 L770 1114 L772 1115 L773 1114 L774 1116 L769 1125 L769 1128 L764 1141 L759 1148 L749 1169 L752 1166 L758 1153 L765 1142 L766 1137 L770 1130 L771 1125 L773 1123 L774 1118 L778 1111 Z M707 1095 L708 1094 L709 1095 L708 1096 Z M740 1095 L741 1097 L743 1097 L742 1094 Z M708 1094 L709 1093 L710 1094 L709 1095 Z M483 1094 L484 1093 L485 1094 L484 1095 Z M709 1093 L710 1092 L711 1093 L710 1094 Z M484 1093 L485 1092 L486 1093 L485 1094 Z M705 1092 L706 1091 L707 1092 L706 1093 Z M706 1093 L704 1095 L700 1094 L703 1095 L695 1101 L693 1101 L691 1098 L692 1095 L700 1091 Z M456 1089 L457 1088 L460 1090 L478 1096 L479 1097 L478 1101 L476 1102 L473 1100 L466 1099 L459 1096 L457 1093 L458 1091 L457 1092 Z M544 1088 L543 1091 L544 1092 Z M498 1086 L499 1085 L500 1086 L499 1087 Z M790 1082 L788 1083 L787 1086 L789 1085 Z M752 1081 L753 1080 L754 1082 L753 1083 Z M755 1075 L756 1077 L754 1080 L753 1077 Z M597 1077 L597 1090 L595 1097 L590 1101 L584 1100 L582 1102 L559 1102 L556 1099 L553 1100 L550 1096 L550 1090 L549 1089 L550 1084 L549 1081 L554 1076 L581 1076 L582 1075 L587 1075 L588 1076 L589 1075 L595 1075 Z M501 1073 L502 1072 L510 1072 L511 1073 L518 1073 L519 1074 L546 1076 L549 1081 L548 1083 L548 1092 L545 1099 L543 1095 L542 1099 L540 1101 L539 1100 L525 1101 L519 1099 L513 1099 L510 1098 L509 1096 L506 1097 L502 1093 L501 1077 L504 1076 L503 1077 Z M424 1073 L425 1072 L426 1073 L425 1074 Z M754 1072 L755 1071 L756 1073 L755 1074 Z M423 1072 L424 1071 L425 1072 L424 1073 Z M406 1072 L407 1071 L408 1072 L407 1073 Z M493 1070 L497 1071 L499 1073 L499 1079 L497 1084 L491 1092 L490 1091 L491 1089 L489 1088 L489 1085 L491 1079 L490 1075 Z M422 1071 L423 1070 L424 1071 L423 1072 Z M328 1071 L336 1098 L338 1102 L340 1103 L335 1092 L336 1091 L330 1073 Z M652 1069 L655 1069 L657 1074 L657 1087 L655 1090 L653 1087 L653 1089 L651 1090 L650 1089 L651 1086 L650 1087 L648 1086 L648 1082 L650 1080 L651 1083 L652 1083 L653 1081 L651 1079 L651 1075 L650 1075 L649 1081 L648 1082 L647 1081 L647 1072 Z M421 1070 L422 1069 L423 1070 L422 1071 Z M405 1070 L406 1069 L407 1070 L406 1071 Z M358 1070 L359 1069 L360 1071 L359 1072 Z M580 1068 L581 1070 L578 1073 L577 1070 Z M404 1069 L405 1068 L406 1069 L405 1070 Z M580 1068 L581 1067 L582 1068 L581 1069 Z M403 1068 L404 1067 L405 1068 L404 1069 Z M494 1067 L495 1066 L496 1067 L495 1068 Z M723 1066 L724 1065 L725 1067 L724 1068 Z M402 1066 L403 1065 L404 1066 L403 1067 Z M358 1065 L359 1066 L358 1069 L357 1068 Z M724 1064 L725 1063 L726 1064 L725 1065 Z M648 1065 L647 1068 L643 1068 L642 1069 L641 1068 L641 1066 L645 1063 Z M604 1063 L605 1064 L604 1070 L601 1071 L600 1069 L602 1067 L602 1064 Z M454 1064 L455 1063 L459 1063 L463 1065 L467 1065 L472 1067 L489 1070 L490 1071 L489 1086 L484 1093 L480 1094 L476 1092 L470 1091 L468 1089 L461 1088 L460 1086 L458 1087 L453 1082 Z M725 1062 L726 1061 L727 1062 L726 1063 Z M449 1061 L452 1064 L452 1067 L450 1074 L445 1079 L442 1077 L443 1075 L443 1068 L445 1062 Z M602 1060 L603 1059 L604 1061 L603 1062 Z M392 1059 L393 1058 L394 1060 L393 1061 Z M645 1056 L646 1059 L644 1061 L643 1058 Z M391 1057 L392 1056 L393 1057 L392 1058 Z M357 1056 L358 1059 L358 1065 L357 1066 L353 1059 L352 1060 L356 1068 L357 1073 L359 1073 L361 1075 L362 1082 L370 1107 L374 1117 L376 1118 L364 1083 L360 1062 L359 1061 L359 1056 Z M601 1053 L602 1054 L602 1064 L600 1068 L594 1072 L584 1072 L582 1073 L581 1072 L583 1070 L583 1065 L586 1062 L586 1060 L590 1054 L593 1053 L596 1055 L599 1055 Z M419 1052 L446 1061 L443 1064 L442 1072 L439 1079 L430 1076 L425 1070 L423 1065 L422 1055 L422 1062 L421 1063 L422 1066 L421 1067 L418 1064 L418 1053 Z M603 1052 L604 1051 L605 1053 L604 1054 Z M728 1048 L729 1049 L727 1055 L719 1072 L721 1075 L720 1079 L716 1080 L713 1086 L708 1090 L707 1089 L705 1090 L703 1089 L702 1087 L712 1077 L719 1063 L720 1055 L724 1050 Z M408 1048 L411 1048 L416 1051 L416 1057 L414 1059 L410 1056 L407 1049 Z M728 1048 L729 1047 L730 1048 L729 1049 Z M372 1047 L371 1047 L371 1049 Z M500 1046 L499 1046 L498 1052 L500 1050 Z M725 1045 L726 1044 L727 1045 L726 1046 Z M400 1044 L405 1046 L404 1049 L407 1056 L414 1062 L417 1067 L417 1069 L422 1075 L424 1075 L430 1079 L439 1082 L444 1082 L449 1079 L451 1081 L451 1084 L454 1088 L454 1093 L455 1094 L454 1096 L456 1099 L454 1107 L446 1103 L428 1090 L415 1077 L406 1066 L399 1051 L399 1045 Z M663 1044 L664 1043 L665 1044 L664 1045 Z M394 1044 L395 1043 L396 1044 L395 1045 Z M693 1041 L694 1040 L695 1042 L694 1043 Z M387 1038 L395 1046 L399 1058 L403 1064 L402 1066 L396 1060 L393 1054 L388 1049 L386 1042 Z M715 1038 L716 1037 L717 1038 L716 1039 Z M684 1038 L685 1037 L686 1038 L685 1039 Z M385 1038 L386 1037 L387 1038 L386 1039 Z M631 1036 L627 1038 L629 1039 Z M567 1036 L567 1038 L569 1038 Z M710 1036 L707 1040 L700 1042 L698 1044 L697 1043 L698 1039 L702 1035 L708 1034 Z M638 1035 L639 1036 L640 1035 Z M554 1035 L552 1035 L552 1037 Z M656 1034 L657 1037 L655 1038 L652 1046 L653 1051 L654 1051 L653 1044 L658 1037 Z M630 1032 L630 1034 L632 1034 Z M697 1035 L696 1038 L691 1040 L691 1042 L693 1043 L691 1046 L688 1046 L684 1049 L682 1048 L683 1047 L682 1046 L681 1047 L677 1047 L674 1049 L672 1048 L670 1050 L668 1049 L666 1050 L665 1049 L666 1047 L665 1044 L666 1039 L665 1038 L667 1036 L670 1038 L674 1034 L676 1036 L681 1035 L683 1037 L684 1042 L688 1040 L687 1036 L688 1032 L690 1030 Z M727 1028 L728 1029 L727 1037 L725 1040 L724 1046 L721 1048 L720 1047 L721 1039 L718 1035 L725 1028 Z M727 1027 L728 1026 L729 1028 L728 1029 Z M724 1027 L720 1032 L713 1036 L711 1035 L719 1026 L723 1026 Z M612 1025 L614 1027 L614 1031 L616 1031 L620 1034 L619 1035 L615 1035 L614 1033 L612 1033 L613 1035 L608 1039 L606 1036 L610 1032 Z M747 1025 L752 1033 L752 1035 L753 1035 L752 1030 Z M316 1023 L317 1024 L316 1028 L315 1027 Z M314 1022 L315 1021 L316 1022 L315 1023 Z M467 1021 L464 1021 L462 1023 L462 1029 L463 1030 L464 1029 L463 1025 L465 1022 L468 1023 Z M700 1019 L702 1023 L702 1019 Z M672 1012 L671 1013 L672 1017 L674 1017 Z M380 1012 L378 1015 L378 1021 L377 1022 L378 1026 L382 1032 L380 1027 L382 1016 L381 1012 Z M641 1011 L638 1014 L640 1019 Z M500 1010 L498 1012 L499 1014 Z M614 1008 L613 1008 L613 1012 L610 1014 L609 1017 L614 1014 Z M360 1008 L354 1013 L352 1007 L351 1008 L351 1020 L353 1020 L353 1016 Z M613 1001 L613 1004 L614 1004 L614 1001 Z M540 1001 L544 1007 L543 1014 L545 1010 L544 1008 L546 1006 Z M458 1001 L455 1006 L455 1011 L458 1020 L457 1023 L451 1030 L451 1038 L452 1038 L453 1030 L457 1026 L459 1021 L459 1016 L458 1015 L459 1012 L456 1009 Z M668 1000 L667 1003 L670 1009 L672 1010 Z M767 998 L765 998 L760 1004 L757 1005 L755 1007 L755 1010 Z M777 993 L776 993 L777 1002 L773 1012 L773 1020 L771 1024 L770 1033 L765 1041 L764 1048 L761 1055 L761 1059 L756 1071 L755 1067 L756 1066 L756 1058 L757 1057 L757 1046 L756 1045 L756 1041 L755 1041 L754 1068 L750 1082 L749 1091 L744 1105 L746 1105 L751 1089 L755 1084 L756 1077 L759 1071 L759 1068 L766 1047 L766 1043 L770 1038 L772 1033 L775 1011 L778 1004 L778 995 Z M508 990 L505 998 L508 996 L507 994 Z M744 987 L730 996 L724 998 L716 999 L715 1000 L699 1000 L699 1001 L711 1002 L712 1001 L722 1000 L736 994 L741 991 Z M519 987 L520 986 L525 986 L528 989 L527 990 Z M477 987 L478 986 L479 987 L478 988 Z M383 986 L383 987 L395 987 L394 986 Z M556 985 L557 984 L560 985 L559 986 Z M528 985 L531 982 L538 985 L543 985 L550 988 L555 988 L556 985 L557 987 L560 987 L562 985 L566 985 L569 988 L575 988 L576 989 L573 991 L569 991 L563 993 L543 993 L542 992 L535 992 L528 987 Z M417 980 L418 979 L419 980 L418 981 Z M384 978 L381 980 L379 984 L376 984 L376 985 L380 986 L382 984 L382 982 L384 981 Z M588 977 L589 976 L590 977 L589 978 Z M777 975 L778 974 L779 976 L778 977 Z M330 975 L329 979 L332 982 L334 982 Z M825 971 L826 972 L825 976 L824 975 Z M779 971 L780 972 L779 975 L778 974 Z M335 965 L336 969 L340 975 L340 979 L342 981 L341 983 L342 988 L350 996 L354 997 L356 999 L361 1000 L359 998 L350 995 L344 989 L342 983 L345 980 L338 970 L337 966 Z M434 963 L435 962 L436 963 L435 964 Z M437 959 L438 961 L436 963 L435 961 Z M780 958 L781 957 L782 958 L781 959 Z M832 954 L833 955 L834 972 L836 976 L835 979 L836 1000 L840 1004 L839 1005 L839 1010 L841 1014 L841 1017 L851 1027 L850 1031 L855 1036 L853 1038 L860 1042 L856 1045 L847 1046 L842 1048 L834 1047 L833 1046 L834 1041 L833 1041 L830 1046 L828 1047 L825 1046 L821 1039 L821 1030 L822 1029 L822 1020 L823 1019 L823 1012 L825 1004 L825 996 L826 995 L829 967 Z M595 942 L593 942 L592 949 L594 948 Z M805 941 L805 943 L806 943 L806 941 Z M793 926 L792 926 L792 939 L791 940 L791 948 L789 956 L787 958 L780 972 L779 969 L782 964 L785 952 L783 951 L784 949 L784 941 L783 941 L782 950 L778 962 L780 958 L781 962 L778 968 L775 965 L775 969 L777 971 L773 977 L773 980 L777 976 L779 979 L777 990 L778 990 L781 981 L780 980 L781 973 L783 971 L792 951 L792 947 L793 946 Z M627 924 L630 929 L631 939 L633 944 L632 963 L628 977 L629 978 L632 973 L631 971 L634 962 L633 958 L635 953 L635 946 L633 941 L632 932 L630 930 L630 927 Z M296 918 L296 931 L297 932 L297 940 L298 941 L298 948 L301 961 L302 974 L304 979 L306 992 L308 995 L308 1001 L311 1011 L311 1017 L315 1034 L317 1037 L317 1033 L316 1032 L316 1028 L317 1027 L320 1034 L320 1040 L322 1043 L322 1047 L323 1048 L322 1051 L325 1056 L325 1053 L323 1049 L324 1046 L326 1049 L328 1057 L330 1057 L331 1054 L330 1050 L333 1049 L337 1057 L341 1060 L343 1060 L346 1055 L346 1050 L349 1045 L350 1046 L350 1054 L351 1056 L352 1053 L352 1048 L351 1047 L352 1032 L350 1032 L349 1042 L345 1048 L345 1053 L343 1057 L340 1055 L339 1056 L337 1054 L337 1052 L333 1046 L329 1049 L327 1046 L325 1047 L323 1045 L321 1032 L319 1029 L317 1020 L313 1016 L311 1003 L308 995 L306 981 L304 976 L301 951 L299 946 L299 936 L298 935 L297 918 Z M667 917 L660 922 L656 930 L655 935 L658 928 L660 926 L660 924 L666 918 L668 918 Z M783 914 L782 914 L778 932 L776 935 L771 950 L756 976 L748 984 L750 984 L756 978 L765 965 L777 940 L783 920 Z M323 911 L323 924 L326 931 L326 934 L330 945 L338 960 L344 968 L353 976 L355 976 L361 981 L369 983 L372 985 L372 984 L352 974 L338 957 L331 943 L326 929 L325 921 L324 920 L325 916 L324 915 L324 911 Z M473 909 L474 908 L475 909 L474 910 Z M645 905 L651 912 L651 914 L652 914 L650 909 Z M324 898 L322 900 L322 903 L324 903 Z M765 884 L767 886 L773 886 L782 889 L787 893 L789 893 L788 891 L779 886 L773 884 Z M679 885 L680 886 L684 886 L684 885 L681 884 Z M734 881 L728 881 L721 883 L702 884 L701 885 L692 885 L691 886 L688 885 L688 886 L692 887 L693 888 L692 890 L693 890 L696 887 L700 886 L708 886 L709 885 L718 885 L720 884 L722 886 L721 887 L723 888 L723 886 L725 884 L731 883 Z M623 877 L630 888 L640 898 L650 905 L669 913 L678 914 L679 915 L689 915 L690 916 L709 914 L725 909 L737 903 L753 891 L763 885 L755 888 L735 902 L720 909 L703 913 L687 914 L686 913 L677 913 L669 911 L652 904 L643 898 L629 884 L625 877 Z M550 875 L550 880 L551 880 L551 875 Z M709 874 L710 873 L711 874 L710 875 Z M633 874 L646 879 L655 880 L662 883 L666 883 L672 885 L674 884 L670 882 L655 880 L641 875 Z M710 873 L711 872 L712 873 L711 874 Z M361 1005 L362 1006 L370 1001 L371 1002 L366 1007 L358 1023 L355 1026 L357 1028 L356 1031 L356 1048 L358 1049 L357 1047 L357 1037 L358 1036 L359 1026 L361 1020 L368 1008 L374 1002 L382 998 L405 991 L421 982 L437 966 L445 955 L453 940 L454 943 L453 944 L453 952 L452 953 L452 964 L457 979 L462 983 L466 983 L478 988 L476 992 L477 994 L475 998 L473 1000 L470 997 L472 1002 L477 998 L479 994 L479 989 L481 986 L505 987 L506 988 L518 989 L532 994 L551 995 L552 996 L569 995 L577 992 L582 992 L588 989 L607 989 L611 991 L608 995 L609 998 L611 999 L609 995 L615 990 L633 990 L640 987 L643 984 L647 974 L648 956 L649 955 L657 975 L666 989 L678 1001 L682 1004 L700 1012 L712 1015 L717 1015 L718 1016 L726 1016 L731 1018 L725 1024 L719 1024 L712 1032 L710 1033 L705 1032 L699 1036 L696 1031 L693 1030 L689 1025 L686 1027 L682 1023 L681 1026 L680 1025 L680 1020 L678 1016 L675 1014 L678 1019 L677 1021 L679 1024 L680 1030 L682 1029 L681 1028 L682 1027 L686 1027 L687 1028 L687 1034 L685 1037 L682 1034 L676 1034 L675 1032 L670 1036 L666 1033 L664 1036 L663 1041 L656 1043 L656 1044 L663 1044 L664 1045 L660 1054 L660 1061 L656 1066 L654 1066 L652 1063 L646 1061 L648 1057 L648 1052 L650 1049 L648 1049 L646 1047 L647 1046 L646 1045 L646 1038 L648 1032 L648 1027 L647 1026 L646 1037 L644 1040 L645 1051 L640 1060 L640 1066 L641 1067 L639 1069 L637 1069 L636 1068 L638 1065 L634 1069 L617 1071 L616 1072 L607 1071 L606 1070 L606 1062 L605 1061 L606 1050 L603 1048 L603 1042 L602 1041 L606 1036 L607 1039 L610 1040 L614 1036 L621 1038 L624 1035 L626 1035 L626 1033 L620 1033 L615 1028 L615 1026 L612 1023 L610 1026 L610 1030 L602 1038 L601 1041 L602 1044 L601 1049 L602 1050 L599 1053 L595 1053 L593 1051 L593 1042 L595 1038 L593 1036 L592 1038 L592 1051 L588 1054 L584 1062 L574 1072 L561 1073 L560 1074 L549 1074 L548 1073 L537 1073 L536 1072 L519 1071 L513 1067 L512 1062 L507 1055 L508 1047 L506 1044 L506 1039 L502 1035 L502 1032 L500 1031 L500 1027 L498 1024 L498 1017 L496 1019 L496 1022 L494 1023 L489 1020 L475 1015 L472 1012 L472 1010 L474 1008 L473 1004 L472 1004 L472 1008 L471 1009 L470 1021 L472 1020 L477 1027 L479 1022 L477 1024 L472 1018 L473 1015 L477 1018 L480 1018 L490 1023 L496 1024 L499 1028 L495 1034 L495 1042 L497 1046 L497 1035 L500 1031 L501 1032 L501 1036 L505 1040 L505 1045 L507 1049 L507 1057 L512 1067 L511 1069 L507 1068 L505 1066 L500 1066 L504 1067 L505 1068 L504 1069 L498 1068 L497 1067 L498 1065 L496 1064 L498 1057 L494 1065 L491 1067 L470 1064 L469 1063 L472 1062 L468 1054 L467 1055 L469 1057 L470 1061 L469 1063 L467 1063 L465 1060 L462 1062 L454 1059 L446 1058 L444 1056 L447 1054 L448 1051 L444 1056 L435 1055 L424 1051 L423 1050 L424 1048 L422 1047 L420 1048 L413 1047 L395 1039 L386 1033 L384 1033 L385 1035 L384 1036 L384 1040 L385 1041 L384 1044 L387 1050 L387 1053 L390 1059 L393 1062 L392 1063 L393 1067 L399 1078 L412 1098 L423 1111 L424 1110 L410 1093 L399 1075 L393 1062 L394 1060 L402 1068 L404 1072 L426 1093 L450 1110 L452 1110 L454 1112 L474 1121 L476 1121 L474 1119 L477 1118 L486 1122 L496 1124 L503 1127 L512 1128 L517 1130 L522 1130 L520 1128 L514 1128 L510 1125 L510 1121 L513 1116 L516 1118 L521 1118 L523 1120 L525 1119 L531 1121 L534 1119 L535 1120 L544 1120 L548 1126 L545 1131 L541 1132 L534 1130 L527 1130 L531 1132 L540 1132 L541 1133 L548 1133 L548 1132 L545 1131 L546 1130 L551 1130 L549 1126 L554 1119 L557 1121 L566 1121 L567 1122 L569 1121 L572 1122 L577 1121 L578 1123 L584 1123 L585 1124 L586 1128 L585 1131 L577 1133 L570 1133 L570 1134 L582 1134 L583 1133 L596 1132 L596 1131 L588 1131 L587 1130 L587 1123 L583 1119 L561 1119 L554 1117 L549 1122 L544 1117 L540 1115 L529 1114 L523 1112 L515 1112 L512 1113 L510 1116 L507 1125 L501 1125 L493 1123 L490 1121 L485 1120 L482 1117 L483 1106 L481 1098 L482 1097 L490 1097 L495 1092 L498 1086 L500 1088 L500 1093 L503 1098 L507 1100 L515 1101 L516 1102 L522 1102 L523 1103 L539 1104 L543 1103 L549 1099 L551 1102 L555 1104 L560 1104 L561 1105 L565 1105 L566 1104 L572 1104 L573 1105 L575 1104 L589 1104 L594 1102 L598 1096 L605 1102 L611 1102 L614 1100 L615 1101 L614 1100 L609 1101 L606 1099 L605 1096 L606 1092 L605 1082 L604 1083 L605 1086 L604 1089 L605 1098 L604 1099 L601 1095 L599 1080 L602 1075 L643 1071 L645 1073 L645 1082 L644 1083 L643 1091 L640 1095 L638 1092 L638 1094 L636 1096 L634 1095 L632 1097 L627 1098 L624 1100 L635 1099 L641 1097 L644 1094 L646 1089 L648 1092 L652 1094 L655 1093 L659 1088 L659 1072 L658 1069 L662 1063 L662 1057 L664 1053 L666 1052 L668 1053 L674 1052 L677 1050 L685 1052 L688 1051 L691 1048 L701 1046 L713 1038 L716 1039 L717 1038 L718 1039 L717 1050 L719 1052 L715 1066 L709 1078 L705 1080 L697 1090 L691 1092 L688 1095 L685 1096 L678 1103 L668 1109 L665 1108 L665 1105 L660 1098 L656 1096 L651 1096 L639 1100 L637 1103 L637 1106 L635 1108 L632 1108 L629 1110 L622 1110 L615 1112 L613 1110 L610 1114 L610 1123 L611 1123 L611 1121 L614 1116 L618 1118 L622 1118 L631 1113 L637 1114 L639 1117 L641 1117 L640 1115 L641 1113 L640 1112 L641 1106 L648 1104 L652 1098 L655 1100 L654 1104 L657 1105 L658 1109 L657 1102 L659 1101 L662 1104 L664 1111 L659 1113 L653 1118 L645 1120 L643 1118 L641 1122 L638 1122 L635 1124 L624 1126 L620 1128 L607 1129 L600 1131 L608 1131 L613 1129 L620 1129 L636 1125 L649 1120 L652 1121 L656 1118 L666 1116 L694 1102 L697 1102 L703 1097 L704 1099 L700 1104 L701 1107 L700 1110 L676 1134 L656 1148 L658 1148 L665 1144 L684 1129 L701 1111 L705 1104 L709 1100 L717 1085 L721 1082 L725 1072 L724 1069 L727 1066 L731 1056 L732 1045 L728 1043 L727 1040 L731 1028 L732 1018 L733 1017 L743 1023 L745 1023 L744 1021 L736 1016 L744 1013 L745 1011 L737 1013 L734 1015 L725 1015 L699 1009 L694 1006 L691 1006 L679 999 L676 996 L677 994 L672 991 L665 984 L655 965 L654 960 L649 949 L647 940 L643 932 L645 923 L650 916 L645 920 L642 929 L636 920 L631 915 L629 910 L629 905 L627 902 L627 899 L623 888 L623 885 L620 880 L622 891 L624 894 L626 905 L629 913 L628 914 L626 912 L616 911 L609 914 L604 918 L599 925 L596 934 L597 934 L603 922 L609 916 L616 913 L626 915 L637 925 L643 937 L645 945 L645 950 L646 951 L645 973 L642 982 L638 986 L634 987 L632 984 L632 981 L630 980 L631 986 L633 987 L628 989 L623 988 L622 987 L628 982 L628 980 L627 980 L621 987 L609 987 L608 986 L605 987 L588 987 L587 985 L592 976 L592 971 L593 970 L592 968 L589 975 L581 982 L578 983 L579 984 L581 982 L585 981 L588 977 L589 978 L587 985 L581 989 L578 989 L577 987 L570 986 L567 983 L567 976 L568 975 L567 973 L566 973 L565 982 L564 983 L563 982 L561 983 L558 982 L552 987 L547 986 L544 984 L539 984 L531 977 L531 973 L530 972 L531 970 L529 964 L531 953 L530 953 L528 959 L528 967 L530 975 L530 979 L528 984 L524 986 L521 985 L519 987 L515 985 L513 986 L510 985 L508 981 L504 977 L503 968 L501 966 L501 960 L493 946 L490 946 L485 951 L482 950 L477 955 L479 955 L482 952 L484 954 L486 954 L486 952 L492 947 L495 954 L497 956 L496 957 L496 962 L497 962 L498 959 L499 960 L499 964 L501 967 L502 975 L500 979 L501 980 L504 979 L507 983 L506 984 L493 984 L491 985 L490 984 L486 984 L483 982 L481 984 L480 983 L476 983 L467 975 L467 977 L473 982 L472 983 L465 982 L463 980 L464 970 L467 967 L468 959 L471 954 L472 955 L472 962 L474 964 L473 947 L471 945 L472 938 L471 937 L470 938 L470 950 L462 972 L462 976 L460 979 L457 975 L455 969 L454 954 L455 953 L456 940 L460 928 L470 915 L479 910 L486 910 L491 912 L497 917 L501 923 L506 936 L507 944 L508 943 L505 928 L500 918 L493 911 L487 908 L483 907 L477 909 L474 908 L474 905 L480 892 L485 877 L485 873 L479 890 L471 907 L471 911 L462 920 L449 944 L438 960 L437 959 L438 955 L436 956 L432 963 L432 965 L434 963 L435 965 L425 975 L417 979 L418 981 L411 986 L400 991 L385 995 L375 999 L371 1002 L370 1001 L365 1001 Z M711 872 L712 871 L713 872 L712 873 Z M712 871 L713 870 L714 871 L713 872 Z M340 872 L339 871 L332 871 L326 873 L318 879 L316 884 L324 876 L331 873 Z M713 869 L714 868 L715 869 L714 870 Z M326 869 L323 870 L323 872 Z M714 868 L715 867 L716 868 L715 869 Z M764 867 L765 866 L766 867 L765 868 Z M763 866 L764 865 L765 866 L764 867 Z M394 866 L395 865 L396 866 L395 867 Z M762 865 L763 864 L764 865 L763 866 Z M392 865 L393 864 L394 865 L393 866 Z M329 864 L330 863 L331 864 L330 865 Z M346 863 L347 862 L348 863 L347 864 Z M760 862 L761 861 L763 864 L762 865 Z M390 862 L391 861 L393 864 L392 865 Z M759 861 L760 860 L761 861 L760 862 Z M718 860 L719 861 L718 864 L717 863 Z M753 859 L754 858 L755 859 L754 860 Z M719 857 L720 858 L719 861 L718 860 Z M340 858 L341 857 L342 858 L341 859 Z M434 857 L435 856 L436 857 L435 858 Z M341 857 L342 856 L343 857 L342 858 Z M616 856 L618 872 L619 872 L619 865 Z M342 856 L343 855 L344 856 L343 857 Z M343 855 L344 854 L345 855 L344 856 Z M720 851 L721 852 L721 856 L720 857 L719 856 L719 852 Z M347 850 L348 852 L345 855 L344 853 Z M351 850 L352 849 L353 850 L352 851 Z M352 849 L353 848 L354 849 L353 850 Z M475 847 L475 849 L477 851 Z M353 847 L354 846 L355 848 L354 849 Z M548 846 L543 848 L536 855 L532 862 L531 873 L529 877 L529 882 L532 894 L532 906 L531 907 L532 911 L531 947 L532 948 L532 937 L534 934 L534 928 L533 927 L533 919 L534 918 L533 906 L534 905 L534 901 L533 900 L533 889 L531 885 L532 870 L534 862 L537 856 L544 849 L551 847 L558 851 L565 858 L565 861 L569 868 L569 874 L571 882 L569 889 L570 899 L568 905 L567 919 L565 925 L565 944 L566 945 L566 953 L564 957 L565 960 L565 967 L564 969 L567 968 L567 964 L566 963 L566 955 L567 954 L566 927 L568 922 L570 901 L571 900 L572 878 L571 877 L570 866 L566 859 L566 856 L555 847 Z M354 846 L355 845 L356 846 L355 847 Z M355 845 L356 844 L357 845 L356 846 Z M356 844 L357 843 L358 844 L357 845 Z M720 841 L721 842 L720 845 L719 844 Z M358 841 L359 840 L360 841 L359 842 Z M359 840 L360 839 L361 840 L360 841 Z M718 839 L719 838 L720 839 L719 840 Z M360 839 L361 838 L362 839 L361 840 Z M362 836 L363 835 L364 836 L363 837 Z M281 835 L282 836 L281 839 L280 838 Z M363 835 L364 834 L365 835 L364 836 Z M364 834 L365 833 L366 834 L365 835 Z M334 834 L332 836 L332 839 Z M585 831 L585 833 L588 835 Z M366 831 L367 830 L368 831 L367 832 Z M386 830 L387 829 L388 831 L387 832 Z M367 830 L368 829 L369 830 L368 831 Z M368 829 L369 828 L370 829 L369 830 Z M369 828 L370 827 L371 828 L370 829 Z M716 827 L717 826 L721 828 L733 838 L754 864 L762 871 L756 873 L754 872 L746 872 L745 873 L736 873 L735 874 L714 875 L713 874 L718 867 L716 868 L715 866 L717 863 L718 865 L720 864 L721 858 L723 854 L722 839 Z M388 826 L389 827 L388 830 L387 829 Z M715 826 L716 825 L717 826 L716 827 Z M672 825 L665 837 L664 845 L663 846 L664 860 L668 866 L668 868 L672 873 L671 874 L646 870 L627 865 L632 860 L643 845 L655 833 L670 824 Z M388 825 L389 824 L390 826 L389 827 Z M819 824 L818 824 L818 873 L819 874 L818 887 L815 898 L815 904 L814 905 L812 919 L807 936 L809 934 L812 925 L817 896 L819 892 L819 885 L820 884 L820 859 L819 858 L819 832 L820 831 L820 826 Z M672 824 L673 823 L675 824 L674 825 Z M389 824 L390 823 L391 824 L390 825 Z M674 823 L675 822 L676 823 L675 824 Z M687 819 L699 819 L705 822 L712 829 L717 841 L718 852 L716 860 L712 868 L705 875 L680 875 L674 870 L670 864 L668 858 L668 851 L667 849 L670 836 L676 826 Z M391 819 L387 824 L382 835 L382 848 L384 855 L386 856 L383 840 L385 832 L386 831 L387 832 L386 846 L387 847 L387 852 L391 861 L390 862 L387 858 L386 859 L389 864 L392 866 L391 867 L371 864 L370 863 L365 863 L364 862 L346 861 L345 860 L354 853 L366 837 L379 824 L389 818 Z M703 818 L704 817 L707 818 L706 819 Z M428 818 L429 817 L433 818 L448 828 L463 844 L476 861 L473 863 L451 866 L450 867 L429 868 L428 867 L434 858 L435 860 L438 855 L439 850 L437 849 L438 846 L437 840 L438 839 L439 841 L439 836 L437 835 L437 831 L435 830 L436 829 Z M390 818 L391 817 L392 818 L391 819 Z M698 817 L699 816 L702 817 L701 818 Z M685 817 L686 816 L688 817 L687 818 Z M427 817 L428 816 L429 817 L428 818 Z M392 817 L393 816 L394 817 L393 818 Z M522 823 L523 824 L525 822 L536 817 L553 815 L554 816 L560 816 L567 818 L580 826 L574 820 L566 816 L558 814 L542 814 L529 818 Z M405 813 L418 813 L425 817 L431 825 L435 835 L435 851 L428 864 L423 868 L402 868 L393 860 L390 854 L389 846 L388 845 L388 839 L389 838 L390 830 L395 821 L401 815 Z M816 806 L817 809 L817 819 L819 820 L818 808 Z M652 801 L653 800 L654 801 L653 802 Z M459 797 L469 810 L473 813 L461 797 Z M478 862 L477 859 L463 841 L449 826 L439 817 L435 815 L431 815 L429 813 L420 809 L416 809 L414 811 L409 811 L407 809 L400 809 L390 812 L380 817 L372 823 L364 831 L348 851 L347 850 L360 829 L378 810 L393 802 L405 799 L421 800 L428 802 L438 807 L447 813 L457 823 L467 835 L472 844 L474 845 L472 840 L460 824 L443 808 L430 801 L420 798 L413 798 L412 797 L400 798 L396 800 L393 800 L377 809 L362 824 L348 846 L336 861 L326 862 L322 859 L317 858 L319 861 L329 864 L330 865 L328 866 L329 867 L335 864 L342 864 L343 863 L347 866 L363 870 L367 872 L371 872 L385 876 L391 876 L395 878 L404 878 L405 879 L414 879 L415 878 L418 879 L432 879 L433 878 L446 877 L467 872 L472 870 L472 869 L458 873 L454 873 L443 876 L436 876 L430 878 L429 877 L409 878 L408 877 L398 877 L393 875 L383 874 L374 871 L370 871 L366 869 L362 869 L348 864 L349 863 L360 863 L377 867 L399 869 L400 870 L440 870 L441 869 L456 868 L466 865 L476 864 Z M371 796 L368 797 L366 802 Z M624 794 L621 799 L620 805 L618 808 L617 817 L615 823 L615 829 L614 830 L614 845 L615 846 L616 854 L617 853 L616 843 L615 842 L616 820 L618 817 L620 806 L624 797 Z M634 813 L634 815 L648 801 L650 803 L652 802 L653 803 L652 806 L652 820 L640 832 L630 846 L629 850 L641 833 L654 820 L663 814 L681 807 L699 806 L714 810 L730 820 L744 835 L756 854 L759 857 L760 860 L759 861 L755 857 L747 846 L729 828 L717 820 L701 815 L696 815 L695 817 L693 817 L692 816 L693 815 L683 815 L669 819 L667 821 L668 822 L654 831 L642 843 L626 864 L626 866 L628 868 L634 868 L638 870 L643 870 L647 872 L657 873 L668 876 L682 876 L683 877 L721 877 L722 876 L742 875 L743 874 L762 874 L763 875 L762 876 L756 876 L751 878 L750 877 L740 880 L736 880 L737 882 L738 881 L744 881 L754 878 L759 878 L762 877 L763 875 L767 875 L768 876 L773 876 L790 882 L800 891 L800 889 L796 884 L781 877 L790 874 L796 870 L798 867 L786 874 L778 874 L771 870 L764 863 L750 841 L740 828 L726 815 L711 807 L703 805 L698 805 L697 804 L682 805 L672 808 L654 818 L653 817 L654 810 L657 805 L657 800 L659 798 L654 801 L653 799 L659 792 L656 793 L647 800 Z M809 791 L807 793 L807 799 L806 800 L808 800 Z M814 790 L813 790 L812 794 L812 799 L814 798 Z M607 785 L608 784 L609 785 L608 786 Z M815 782 L813 782 L813 786 L814 787 L815 786 Z M608 782 L609 781 L610 783 L609 784 Z M441 782 L445 786 L457 794 L451 788 Z M668 785 L668 787 L679 783 L697 783 L698 784 L703 784 L722 793 L712 786 L695 781 L680 781 Z M499 781 L499 785 L504 802 L504 810 L505 811 L505 801 L504 800 L503 791 L500 786 L500 781 Z M439 782 L432 778 L427 778 L419 775 L409 775 L408 776 L399 777 L383 785 L374 794 L378 792 L386 785 L396 780 L406 777 L427 778 L430 780 Z M850 772 L850 776 L851 777 L851 772 Z M612 772 L610 773 L606 784 L608 787 L605 792 L604 798 L602 802 L601 819 L602 819 L602 808 L603 807 L604 798 L606 792 L613 780 L612 779 L610 782 L609 781 Z M776 769 L777 768 L778 769 L777 770 Z M775 767 L776 766 L777 767 L776 768 Z M870 766 L868 768 L867 785 L866 786 L864 802 L863 803 L863 812 L861 820 L861 830 L860 831 L859 851 L857 858 L857 864 L855 869 L853 881 L850 890 L847 895 L847 898 L851 892 L859 862 L861 837 L862 836 L862 829 L863 828 L863 819 L864 818 L864 811 L865 810 L865 801 L866 800 L866 794 L869 781 Z M621 766 L619 767 L614 776 L617 774 Z M774 765 L775 764 L776 766 L775 767 Z M333 764 L334 763 L335 764 L334 765 Z M517 763 L521 775 L520 767 L518 763 Z M283 762 L284 763 L283 767 L282 766 Z M610 762 L607 772 L605 775 L606 777 L610 768 Z M334 762 L335 761 L336 763 L335 764 Z M281 762 L282 761 L283 762 L282 763 Z M302 760 L301 760 L301 764 L300 765 L300 777 L299 778 L299 785 L298 786 L298 798 L299 799 L299 852 L300 853 L300 869 L299 871 L300 872 L300 876 L299 877 L299 884 L298 885 L296 913 L297 913 L298 910 L297 908 L298 907 L300 883 L301 882 L301 868 L302 865 L304 864 L304 861 L302 860 L301 856 L301 839 L300 838 L300 781 L301 780 Z M621 759 L618 763 L618 765 L622 760 Z M384 755 L382 755 L378 758 L365 771 L356 783 L340 813 L334 829 L335 830 L341 815 L346 806 L346 804 L355 788 L370 768 L383 757 Z M628 753 L629 752 L630 753 L629 754 Z M501 753 L500 754 L501 755 L502 754 Z M629 752 L630 751 L631 752 L630 753 Z M630 751 L631 750 L632 751 L631 752 Z M631 750 L632 749 L633 750 L632 751 Z M632 749 L633 748 L634 749 L633 750 Z M815 748 L815 760 L816 761 L817 772 L818 772 L819 759 L817 756 L817 752 Z M633 748 L634 747 L635 748 L634 749 Z M764 747 L767 746 L774 759 L775 762 L774 765 L763 749 Z M626 789 L628 788 L632 780 L645 765 L653 758 L655 758 L664 753 L679 749 L694 749 L707 752 L722 759 L728 763 L746 780 L763 807 L763 809 L765 811 L765 813 L770 822 L777 844 L779 846 L779 843 L770 818 L762 801 L752 785 L745 776 L731 763 L722 757 L707 750 L699 748 L694 748 L693 747 L681 747 L680 748 L675 748 L667 750 L649 760 L636 773 Z M634 747 L635 746 L636 747 L635 748 Z M590 747 L588 750 L586 761 L587 761 Z M518 747 L516 750 L516 753 L514 755 L509 750 L515 760 L516 760 L515 757 L518 752 Z M765 745 L766 744 L767 746 L766 747 Z M761 745 L762 744 L764 747 L763 748 Z M764 744 L765 743 L766 744 L765 745 Z M760 744 L761 743 L762 744 L761 745 Z M638 744 L639 743 L640 744 L639 745 Z M759 743 L760 742 L761 743 L760 744 Z M639 743 L640 742 L641 743 L640 744 Z M758 742 L759 741 L760 742 L759 743 Z M640 742 L641 741 L642 742 L641 743 Z M350 741 L351 743 L346 748 L336 762 L335 761 L336 757 L343 744 L345 742 L347 744 Z M641 741 L642 740 L643 741 L642 742 Z M642 740 L643 739 L644 740 L643 741 Z M431 740 L418 740 L417 741 L408 742 L397 746 L388 752 L390 752 L400 746 L411 743 L415 743 L416 742 L433 742 L447 746 L464 757 L476 771 L482 782 L487 796 L490 809 L490 816 L491 817 L490 845 L484 867 L479 876 L465 889 L452 898 L443 902 L428 906 L416 907 L415 906 L402 905 L392 902 L371 891 L356 879 L343 872 L344 874 L353 879 L374 895 L395 905 L403 907 L408 907 L409 908 L427 908 L428 907 L437 906 L452 900 L463 893 L479 878 L485 869 L492 842 L493 817 L492 816 L491 805 L486 787 L478 771 L473 764 L462 753 L455 748 L447 744 Z M643 739 L644 738 L645 739 L644 740 Z M290 738 L291 737 L292 739 L291 740 Z M521 735 L518 741 L518 744 L520 741 Z M598 734 L599 733 L600 734 L599 735 Z M650 732 L641 739 L626 754 L628 756 L626 759 L647 739 L645 738 L651 733 Z M601 730 L602 732 L600 734 L599 732 Z M606 729 L607 728 L608 729 L607 730 Z M607 728 L608 727 L609 728 L608 729 Z M292 727 L293 728 L292 731 L291 730 Z M613 722 L614 721 L615 722 L614 723 Z M614 721 L615 720 L616 721 L615 722 Z M369 721 L370 720 L371 721 L370 722 Z M475 720 L477 723 L486 728 L506 747 L505 744 L491 730 L492 729 L491 727 L492 729 L490 730 L478 721 Z M370 720 L371 719 L372 720 L371 721 Z M372 719 L373 718 L374 719 L373 720 Z M373 718 L374 717 L375 718 L374 719 Z M485 717 L496 728 L495 729 L497 729 L503 737 L509 743 L510 748 L512 747 L511 740 L503 724 L501 722 L500 723 L509 737 L508 741 L503 736 L499 729 L499 727 L494 725 L490 720 Z M491 716 L492 715 L493 716 L492 717 Z M490 715 L491 714 L492 715 L491 716 Z M335 715 L333 716 L332 720 L334 719 Z M623 714 L624 713 L625 714 L624 715 Z M624 713 L625 712 L626 713 L625 714 Z M809 701 L808 702 L812 718 L813 733 L815 732 L814 721 L813 720 L811 705 Z M708 700 L709 699 L711 700 L710 701 Z M651 700 L652 699 L654 700 L653 701 Z M408 700 L409 699 L411 700 L410 701 Z M514 699 L520 718 L520 732 L522 731 L522 723 L521 722 L520 712 Z M596 697 L592 701 L585 721 L586 728 L587 728 L587 719 L589 711 Z M783 784 L781 773 L777 761 L767 741 L758 728 L754 726 L763 738 L765 742 L764 744 L754 731 L741 719 L725 710 L714 702 L711 702 L710 701 L713 700 L706 696 L704 696 L704 697 L709 699 L708 700 L703 700 L708 701 L718 706 L726 712 L737 718 L755 735 L759 741 L758 742 L744 728 L729 717 L722 715 L715 711 L694 705 L670 705 L669 706 L656 708 L633 717 L616 729 L602 742 L596 746 L597 747 L600 746 L614 733 L632 720 L649 712 L668 707 L694 707 L695 708 L699 708 L704 711 L707 710 L720 715 L731 721 L742 729 L756 743 L765 754 L777 773 L782 784 Z M253 695 L255 696 L255 706 L256 706 L258 702 L259 703 L259 720 L260 721 L259 725 L260 728 L261 728 L261 717 L262 716 L265 724 L265 726 L262 731 L263 751 L264 751 L264 729 L265 728 L271 746 L271 752 L268 760 L267 777 L266 778 L267 823 L268 824 L268 839 L269 840 L270 854 L271 855 L274 872 L276 877 L278 878 L273 861 L272 850 L271 849 L271 841 L270 840 L269 810 L268 809 L268 797 L267 796 L267 784 L268 783 L272 796 L273 813 L274 814 L276 830 L279 839 L279 843 L281 846 L283 878 L286 887 L286 897 L287 898 L288 932 L286 938 L286 946 L285 947 L284 956 L282 960 L281 966 L279 969 L279 971 L280 971 L283 966 L285 958 L284 956 L287 950 L287 944 L288 943 L289 944 L289 959 L290 960 L290 984 L289 985 L289 989 L285 993 L284 992 L283 993 L275 992 L269 990 L264 986 L265 985 L269 985 L274 982 L279 974 L277 974 L270 983 L262 984 L258 978 L258 975 L256 971 L256 933 L257 932 L259 877 L260 876 L260 856 L261 855 L262 793 L261 792 L261 772 L260 771 L258 743 L257 742 L254 714 L252 706 L252 696 Z M496 717 L488 709 L471 698 L462 694 L448 690 L422 689 L421 690 L409 691 L393 696 L372 708 L350 730 L343 740 L334 757 L328 773 L328 776 L326 779 L326 783 L327 783 L328 779 L340 759 L353 743 L373 726 L388 717 L401 712 L414 709 L437 708 L438 709 L444 709 L445 710 L453 711 L456 713 L462 714 L470 719 L473 719 L465 714 L461 714 L457 711 L454 711 L446 708 L442 708 L441 707 L416 707 L399 711 L384 717 L382 719 L380 719 L362 732 L352 742 L350 741 L362 728 L372 722 L377 716 L399 704 L407 702 L412 702 L413 701 L419 701 L425 699 L432 699 L436 701 L439 701 L437 699 L438 698 L446 699 L453 702 L454 701 L450 699 L451 698 L456 699 L454 697 L449 699 L444 696 L443 698 L442 697 L430 697 L417 700 L411 700 L410 699 L417 696 L416 695 L412 696 L404 701 L396 703 L394 705 L383 709 L367 721 L354 733 L346 743 L345 742 L354 728 L370 712 L385 702 L396 697 L402 696 L406 694 L410 694 L413 692 L419 692 L427 690 L430 691 L440 691 L441 692 L444 691 L462 696 L463 697 L462 698 L459 697 L458 698 L461 701 L466 702 L479 713 L480 712 L462 698 L465 697 L481 706 L487 712 L490 717 L492 718 L493 716 L496 719 Z M752 722 L752 723 L750 719 L736 706 L715 694 L697 688 L670 687 L655 691 L649 691 L630 700 L622 705 L604 721 L597 733 L594 742 L595 742 L598 736 L599 737 L606 729 L607 731 L604 735 L624 716 L649 703 L675 697 L683 697 L684 698 L691 698 L692 699 L701 700 L696 697 L691 697 L686 695 L675 696 L674 697 L666 697 L658 700 L654 700 L653 699 L656 697 L653 697 L647 700 L646 703 L644 702 L645 703 L638 708 L636 708 L634 710 L632 710 L627 713 L624 712 L602 731 L601 730 L606 722 L616 712 L628 703 L647 694 L659 691 L664 691 L669 689 L692 689 L696 691 L701 691 L714 695 L732 705 Z M804 676 L806 683 L807 682 L806 681 L806 677 Z M318 665 L317 665 L312 678 L312 681 L310 685 L310 690 L308 694 L307 703 L309 700 L314 676 L316 673 Z M611 657 L594 664 L590 664 L575 668 L546 669 L547 670 L578 669 L595 664 L599 664 L610 659 Z M618 672 L619 673 L628 667 L639 662 L655 657 L666 656 L667 655 L675 655 L676 654 L693 655 L694 656 L699 656 L719 662 L729 667 L744 677 L760 691 L752 682 L732 667 L709 657 L705 657 L701 655 L690 654 L689 653 L671 653 L670 654 L663 654 L662 655 L653 656 L633 663 Z M495 653 L496 655 L509 662 L521 665 L521 664 L517 662 L508 660 L497 653 Z M352 688 L369 673 L380 666 L402 657 L406 657 L412 655 L419 655 L420 654 L437 654 L438 655 L445 655 L446 656 L455 657 L472 663 L489 673 L490 672 L483 667 L471 661 L457 656 L444 654 L443 653 L415 653 L394 658 L377 666 L362 677 Z M326 649 L323 652 L320 660 L325 653 Z M516 644 L516 648 L515 649 L515 658 L516 660 L516 650 L517 649 L517 645 Z M521 633 L521 634 L524 635 L529 635 L530 636 L532 635 L526 633 Z M782 631 L789 639 L792 647 L797 653 L797 656 L800 661 L800 663 L801 663 L800 657 L796 652 L791 639 L784 631 Z M341 631 L331 640 L329 644 L333 641 Z M505 629 L505 630 L513 633 L518 633 L518 632 Z M614 626 L611 626 L596 631 L592 631 L581 635 L574 635 L573 636 L542 636 L541 635 L536 635 L536 636 L540 637 L554 637 L555 638 L578 637 L609 629 L614 627 Z M796 623 L795 623 L795 630 L793 635 L795 634 L795 632 L798 627 L798 625 Z M765 619 L766 621 L776 626 L772 622 Z M651 618 L635 620 L635 621 L641 621 L644 619 L650 619 Z M656 618 L658 618 L660 616 L657 616 Z M666 615 L667 617 L670 616 L670 615 Z M270 613 L271 614 L270 617 L269 616 Z M291 613 L291 615 L292 615 L292 613 Z M272 610 L273 612 L271 614 L270 612 Z M431 610 L433 612 L441 612 L442 613 L454 614 L470 618 L477 621 L480 621 L497 628 L499 627 L469 616 L461 615 L451 612 L446 612 L445 611 L433 611 Z M272 610 L273 609 L274 610 L273 611 Z M273 609 L274 608 L275 609 L274 610 Z M818 607 L853 609 L859 611 L865 611 L870 613 L869 616 L867 615 L870 621 L870 638 L869 639 L869 651 L868 652 L868 661 L867 662 L867 669 L866 670 L866 679 L860 689 L857 698 L857 702 L854 710 L854 715 L851 728 L850 767 L852 768 L855 765 L857 769 L857 783 L856 784 L855 801 L853 807 L852 818 L849 827 L849 833 L853 821 L853 817 L857 802 L857 796 L859 790 L859 767 L857 763 L857 758 L860 752 L869 725 L872 719 L875 716 L878 720 L879 732 L880 734 L881 733 L881 723 L880 722 L880 715 L881 714 L878 710 L879 709 L878 708 L873 712 L867 723 L862 739 L860 742 L860 745 L857 752 L855 761 L853 764 L852 763 L851 753 L852 752 L852 738 L853 737 L854 721 L862 691 L865 685 L869 681 L873 681 L876 684 L878 683 L882 687 L884 693 L884 701 L885 702 L885 715 L884 716 L883 736 L881 743 L880 755 L875 775 L872 799 L871 800 L870 817 L869 818 L868 854 L867 855 L867 880 L866 881 L866 968 L867 969 L867 1000 L866 1002 L867 1003 L866 1004 L865 1033 L862 1040 L860 1040 L857 1037 L856 1033 L853 1030 L853 1009 L854 1008 L854 999 L855 998 L855 982 L854 981 L854 977 L855 976 L856 938 L857 937 L857 928 L856 927 L855 943 L854 944 L854 965 L853 966 L853 985 L855 989 L853 994 L852 1008 L851 1009 L851 1023 L850 1024 L848 1020 L845 1019 L842 1015 L842 1011 L841 1010 L842 1003 L838 997 L837 983 L836 982 L837 981 L837 972 L835 967 L835 959 L834 958 L834 950 L835 949 L834 937 L835 936 L835 930 L836 929 L838 913 L840 908 L841 909 L841 914 L843 922 L844 922 L844 917 L843 916 L842 907 L841 908 L840 907 L840 902 L841 901 L841 893 L842 892 L842 885 L843 884 L843 874 L844 873 L845 852 L846 851 L846 841 L847 840 L848 811 L849 810 L849 792 L848 792 L847 811 L846 812 L846 827 L845 828 L844 851 L843 852 L842 851 L843 821 L842 820 L842 795 L841 794 L841 773 L840 772 L840 725 L839 724 L839 675 L840 674 L840 664 L841 663 L841 644 L842 643 L843 620 L841 622 L839 665 L838 666 L838 678 L837 679 L837 714 L838 715 L838 743 L839 744 L838 745 L838 749 L839 750 L839 759 L838 760 L839 761 L839 782 L840 783 L840 799 L841 800 L841 849 L840 850 L841 882 L840 883 L840 891 L838 895 L837 894 L837 880 L836 879 L836 866 L835 865 L835 857 L834 856 L834 847 L833 846 L832 832 L831 831 L831 818 L830 817 L830 805 L829 804 L829 792 L828 791 L828 779 L827 778 L827 766 L826 765 L825 739 L824 738 L824 728 L823 727 L823 717 L822 716 L822 702 L821 701 L821 690 L820 689 L818 628 L817 627 L817 618 L816 617 L816 610 L815 609 Z M406 607 L394 608 L373 613 L357 620 L354 623 L375 614 L391 610 L403 609 L406 608 Z M508 603 L506 604 L506 608 L507 608 Z M306 602 L307 603 L304 610 L305 614 L306 614 L306 609 L309 603 L310 607 L307 617 L307 625 L306 626 L305 639 L303 646 L301 667 L299 674 L299 683 L298 684 L298 690 L297 691 L296 703 L295 704 L295 712 L293 714 L294 715 L293 718 L294 721 L289 730 L290 761 L289 762 L288 793 L287 794 L286 793 L286 777 L284 782 L285 785 L284 791 L285 794 L287 795 L286 867 L285 868 L284 867 L283 848 L281 843 L282 833 L283 832 L282 769 L283 768 L284 772 L285 771 L284 767 L284 733 L283 732 L283 724 L284 723 L284 709 L286 702 L286 684 L287 683 L287 669 L289 661 L291 617 L290 617 L289 620 L289 630 L288 631 L289 635 L288 636 L288 648 L287 649 L287 660 L286 661 L284 702 L282 710 L281 734 L280 735 L280 782 L281 783 L281 835 L280 836 L275 815 L274 796 L269 779 L269 766 L270 765 L271 757 L273 754 L273 747 L264 711 L260 700 L260 697 L254 686 L253 686 L253 695 L252 696 L251 695 L251 675 L252 674 L253 666 L256 662 L259 665 L260 668 L262 669 L260 664 L257 661 L258 660 L266 659 L268 661 L273 680 L274 692 L276 699 L276 706 L277 707 L277 714 L278 715 L278 722 L279 722 L279 709 L278 708 L277 689 L276 688 L276 682 L275 681 L273 666 L270 659 L270 651 L269 650 L269 621 L276 609 L280 606 Z M707 603 L708 604 L714 604 L715 605 L720 605 L721 606 L726 606 L749 613 L757 617 L757 615 L753 613 L748 612 L745 610 L742 610 L733 606 L719 604 L718 603 L711 603 L710 602 Z M766 599 L767 598 L769 599 L768 600 Z M609 596 L610 595 L615 595 L616 596 L619 595 L624 597 L618 599 L616 601 Z M508 593 L509 592 L511 593 L510 594 Z M502 593 L503 592 L507 592 L509 594 L506 598 Z M314 603 L320 601 L334 600 L335 599 L371 597 L372 596 L399 596 L403 595 L404 596 L402 598 L403 599 L409 595 L417 595 L418 594 L493 593 L494 592 L499 592 L504 599 L506 600 L506 598 L507 597 L508 598 L512 593 L524 593 L525 594 L520 596 L518 600 L523 596 L525 596 L530 593 L543 592 L544 593 L575 593 L576 594 L598 594 L599 595 L605 595 L614 601 L613 604 L628 596 L661 596 L662 597 L679 597 L680 598 L694 598 L695 599 L731 600 L732 601 L744 601 L745 602 L759 601 L767 603 L795 604 L796 605 L809 606 L814 609 L815 625 L816 626 L817 670 L818 671 L821 726 L822 727 L822 734 L823 735 L824 760 L825 761 L825 772 L826 773 L826 784 L827 785 L827 799 L828 800 L829 825 L830 826 L829 830 L830 831 L830 838 L832 846 L832 856 L833 857 L834 878 L835 879 L835 889 L836 890 L836 906 L835 907 L835 919 L834 920 L834 925 L833 926 L833 931 L832 932 L832 937 L830 943 L828 958 L824 966 L819 989 L818 990 L817 989 L817 986 L815 990 L815 995 L813 1000 L813 1004 L807 1028 L792 1075 L793 1075 L800 1056 L800 1053 L810 1024 L816 995 L819 993 L824 976 L825 977 L825 982 L824 983 L822 1006 L820 1014 L820 1022 L818 1030 L818 1047 L810 1075 L808 1078 L806 1086 L799 1101 L799 1103 L784 1134 L768 1161 L761 1171 L760 1170 L760 1164 L762 1157 L761 1158 L758 1169 L759 1170 L758 1176 L743 1197 L739 1201 L738 1198 L742 1188 L741 1187 L732 1210 L709 1234 L708 1231 L712 1224 L718 1202 L716 1203 L714 1209 L714 1214 L711 1219 L708 1229 L703 1234 L701 1239 L696 1244 L688 1249 L681 1251 L676 1254 L674 1254 L672 1252 L666 1257 L662 1256 L664 1252 L663 1251 L657 1260 L648 1261 L639 1264 L630 1264 L629 1263 L631 1260 L631 1250 L637 1226 L641 1223 L642 1218 L648 1212 L650 1215 L652 1215 L659 1208 L659 1206 L663 1202 L663 1199 L667 1192 L669 1193 L669 1199 L670 1200 L669 1202 L669 1206 L670 1207 L669 1211 L670 1212 L670 1219 L672 1223 L673 1223 L674 1217 L680 1212 L682 1214 L684 1214 L690 1207 L691 1209 L688 1212 L688 1213 L690 1213 L693 1209 L693 1207 L691 1206 L692 1202 L696 1199 L698 1201 L699 1200 L698 1199 L699 1196 L702 1193 L704 1194 L700 1202 L702 1202 L704 1199 L706 1191 L711 1197 L711 1199 L713 1198 L713 1196 L709 1192 L707 1187 L701 1192 L697 1199 L695 1198 L684 1211 L680 1210 L673 1215 L672 1214 L672 1206 L671 1205 L671 1193 L669 1190 L669 1185 L671 1182 L670 1181 L668 1183 L668 1189 L664 1193 L662 1197 L662 1200 L658 1205 L658 1207 L652 1213 L648 1209 L641 1217 L636 1225 L634 1222 L633 1223 L633 1231 L631 1233 L625 1226 L621 1224 L618 1224 L615 1227 L614 1231 L612 1233 L610 1232 L609 1227 L606 1226 L598 1234 L595 1230 L596 1227 L595 1223 L593 1222 L590 1225 L588 1222 L591 1216 L593 1220 L593 1215 L591 1213 L591 1206 L592 1205 L591 1201 L590 1204 L591 1211 L587 1220 L588 1226 L585 1230 L582 1230 L585 1233 L587 1231 L587 1229 L588 1228 L589 1229 L589 1242 L587 1245 L588 1246 L590 1238 L590 1227 L593 1225 L595 1233 L598 1239 L599 1235 L605 1228 L609 1229 L609 1237 L612 1237 L616 1230 L616 1228 L619 1225 L626 1229 L630 1234 L630 1240 L631 1241 L631 1246 L629 1249 L630 1257 L629 1258 L627 1255 L625 1263 L620 1267 L607 1268 L606 1267 L607 1262 L606 1262 L606 1264 L603 1268 L589 1269 L588 1268 L590 1264 L588 1263 L588 1266 L587 1267 L586 1266 L586 1262 L588 1257 L585 1261 L585 1265 L583 1267 L576 1265 L571 1265 L565 1267 L561 1267 L560 1266 L560 1264 L563 1259 L561 1257 L561 1252 L564 1249 L567 1250 L570 1247 L575 1247 L578 1249 L579 1246 L581 1248 L584 1244 L581 1246 L580 1244 L577 1246 L571 1246 L570 1245 L565 1249 L563 1248 L559 1251 L555 1251 L554 1254 L557 1252 L560 1253 L561 1260 L559 1262 L558 1260 L556 1261 L546 1260 L550 1262 L546 1263 L536 1256 L533 1258 L537 1258 L542 1262 L541 1263 L531 1262 L528 1263 L525 1266 L523 1261 L523 1257 L524 1256 L531 1256 L533 1254 L537 1253 L536 1250 L535 1252 L530 1255 L526 1255 L524 1253 L522 1256 L522 1262 L519 1264 L518 1267 L515 1268 L503 1267 L502 1266 L488 1264 L485 1261 L484 1254 L481 1249 L482 1247 L483 1248 L482 1233 L486 1224 L489 1221 L493 1223 L499 1217 L501 1217 L506 1225 L508 1226 L504 1218 L499 1214 L493 1221 L487 1220 L481 1228 L477 1227 L468 1217 L464 1216 L468 1220 L468 1222 L470 1222 L475 1227 L478 1235 L479 1235 L478 1231 L479 1230 L481 1231 L482 1246 L481 1247 L480 1246 L479 1241 L478 1241 L478 1244 L480 1251 L483 1254 L481 1255 L484 1258 L483 1260 L479 1258 L476 1255 L476 1253 L471 1250 L464 1250 L462 1252 L453 1248 L448 1253 L446 1253 L431 1247 L427 1243 L428 1242 L426 1237 L427 1227 L428 1226 L429 1229 L430 1229 L430 1225 L427 1216 L428 1215 L431 1217 L439 1218 L440 1214 L442 1212 L449 1211 L453 1207 L454 1204 L456 1205 L458 1210 L457 1213 L461 1214 L461 1212 L457 1206 L456 1201 L452 1204 L449 1209 L440 1211 L437 1216 L436 1215 L433 1216 L428 1213 L422 1202 L420 1194 L418 1195 L420 1199 L419 1202 L412 1197 L412 1193 L406 1183 L403 1182 L399 1178 L397 1182 L397 1185 L399 1189 L401 1191 L400 1186 L402 1184 L404 1184 L408 1189 L412 1199 L421 1205 L422 1217 L426 1230 L425 1231 L425 1242 L423 1243 L411 1234 L406 1229 L405 1225 L403 1227 L399 1223 L395 1212 L395 1205 L393 1204 L394 1214 L395 1215 L394 1217 L374 1193 L363 1177 L358 1162 L357 1151 L358 1150 L359 1151 L359 1149 L357 1146 L352 1128 L349 1124 L345 1113 L343 1112 L354 1137 L354 1144 L355 1145 L355 1151 L357 1159 L357 1164 L356 1165 L349 1155 L330 1119 L330 1117 L324 1106 L314 1081 L300 1037 L299 1029 L294 1010 L294 1006 L293 1005 L293 999 L292 998 L292 983 L293 982 L292 973 L293 972 L293 967 L292 966 L292 954 L291 953 L289 901 L288 900 L288 892 L287 891 L287 886 L288 885 L287 883 L287 866 L288 865 L287 864 L287 858 L288 857 L288 826 L289 825 L288 820 L289 819 L290 780 L291 779 L291 764 L292 763 L292 749 L293 748 L293 741 L294 740 L294 730 L295 729 L295 722 L297 714 L297 706 L299 698 L300 682 L301 681 L301 674 L302 673 L302 667 L303 666 L303 660 L304 659 L304 653 L306 645 L306 638 L308 630 L308 622 L309 621 L311 608 Z M629 592 L630 591 L631 592 L630 593 Z M514 590 L515 589 L517 590 L516 591 Z M759 581 L764 587 L764 593 L767 598 L764 600 L761 599 L749 599 L748 598 L758 587 L757 586 Z M638 575 L637 574 L636 576 Z M508 564 L506 564 L506 569 Z M631 556 L630 559 L632 558 Z M538 552 L536 552 L533 555 L533 558 L531 560 L531 562 L532 562 L533 559 L538 554 Z M638 538 L638 545 L639 545 L639 538 Z M832 537 L829 539 L828 543 L830 543 Z M678 530 L676 531 L675 535 L677 534 Z M665 526 L667 529 L668 541 L670 544 L670 548 L668 553 L668 555 L670 556 L670 548 L672 546 L672 542 L674 537 L672 538 L671 541 L669 538 L669 533 L667 529 L668 528 L667 526 Z M467 523 L463 526 L464 528 L467 526 Z M406 520 L405 521 L406 524 L409 525 Z M536 516 L537 515 L538 516 L537 517 Z M506 515 L507 514 L510 515 L509 516 Z M258 538 L260 531 L267 527 L285 524 L286 523 L310 521 L311 520 L318 520 L319 519 L329 519 L330 518 L358 517 L359 516 L378 516 L379 515 L398 515 L399 516 L400 515 L401 518 L404 519 L403 517 L404 516 L414 515 L415 516 L414 520 L411 523 L411 526 L408 528 L409 534 L411 533 L409 528 L414 522 L416 516 L421 514 L455 514 L460 518 L460 516 L458 515 L459 514 L474 514 L475 515 L471 516 L468 521 L473 517 L483 514 L503 514 L507 517 L512 515 L516 516 L518 518 L521 516 L536 516 L537 517 L534 521 L533 527 L531 529 L528 536 L525 538 L522 537 L521 528 L518 525 L515 518 L514 518 L514 520 L516 522 L516 525 L521 530 L521 541 L522 541 L524 539 L529 539 L528 536 L534 531 L536 531 L540 537 L541 537 L540 533 L536 529 L535 526 L537 519 L541 515 L543 516 L542 517 L544 517 L545 515 L570 515 L574 517 L578 516 L635 517 L636 518 L651 518 L652 519 L656 519 L657 518 L660 519 L664 524 L665 524 L664 522 L665 520 L675 520 L676 521 L680 520 L681 522 L679 524 L678 528 L680 527 L680 525 L685 519 L686 520 L742 522 L746 523 L748 525 L750 525 L749 524 L750 523 L757 524 L758 526 L756 530 L756 535 L754 538 L754 542 L756 540 L757 532 L759 527 L762 523 L766 524 L780 524 L781 525 L788 525 L789 526 L798 525 L799 526 L809 526 L810 527 L821 527 L828 529 L834 528 L835 530 L832 534 L834 534 L837 529 L840 529 L841 532 L844 532 L845 529 L850 529 L851 530 L868 531 L869 532 L880 533 L884 538 L884 560 L883 561 L882 578 L881 579 L878 600 L875 607 L873 609 L849 607 L848 606 L839 606 L838 605 L828 605 L827 604 L813 604 L812 603 L804 603 L803 602 L799 603 L798 602 L788 602 L787 601 L772 600 L767 595 L765 591 L765 585 L758 579 L760 572 L760 564 L755 553 L755 548 L754 548 L753 552 L759 565 L759 570 L756 578 L756 587 L746 598 L743 599 L721 598 L718 596 L721 591 L714 597 L646 594 L641 590 L639 586 L638 586 L642 593 L641 594 L635 594 L631 592 L635 585 L634 582 L634 585 L632 589 L627 593 L605 593 L604 592 L586 592 L585 591 L581 592 L580 591 L532 591 L531 590 L520 590 L510 583 L509 584 L515 589 L514 590 L512 589 L510 590 L492 590 L491 589 L492 588 L494 588 L501 582 L505 575 L504 574 L503 578 L496 585 L490 587 L486 590 L479 590 L478 591 L477 590 L468 590 L467 591 L411 592 L410 593 L409 592 L408 593 L392 593 L391 594 L387 593 L386 594 L370 594 L369 595 L356 594 L354 596 L347 596 L337 589 L344 596 L343 597 L331 597 L330 596 L335 591 L335 590 L333 590 L327 597 L324 598 L288 601 L287 602 L275 603 L267 605 L264 602 L261 589 L260 573 L259 572 L259 559 L258 558 Z M523 427 L522 427 L521 443 L522 443 L522 441 L524 439 L524 435 L522 433 Z M525 418 L524 418 L523 423 L526 420 Z M523 413 L523 415 L524 415 Z M668 407 L667 407 L667 410 Z M590 367 L602 368 L608 371 L616 379 L620 388 L620 393 L621 394 L621 458 L620 459 L620 513 L618 515 L569 514 L564 512 L564 443 L565 442 L565 400 L566 399 L566 392 L568 384 L571 378 L579 371 Z M660 363 L661 362 L662 363 L661 364 Z M659 361 L660 360 L661 361 L660 362 Z M658 360 L659 359 L660 360 L659 361 Z M527 360 L528 359 L529 360 L528 361 Z M586 358 L600 358 L610 361 L615 364 L624 373 L629 384 L629 390 L630 391 L630 513 L628 515 L623 515 L621 513 L621 504 L622 503 L622 433 L623 432 L622 430 L623 427 L622 423 L623 420 L622 419 L623 417 L622 389 L618 379 L612 372 L604 367 L596 365 L586 366 L576 371 L569 379 L565 389 L565 393 L564 394 L565 395 L564 396 L564 431 L563 432 L563 508 L561 513 L556 513 L554 511 L554 453 L555 452 L556 390 L557 389 L557 385 L559 382 L559 379 L565 370 L573 363 Z M528 359 L529 358 L530 359 L529 360 Z M656 357 L657 356 L659 359 L658 360 Z M529 357 L530 356 L531 357 L530 358 Z M530 356 L531 355 L532 356 L531 357 Z M531 355 L532 354 L533 355 L532 356 Z M869 337 L876 337 L888 340 L890 346 L889 347 L890 349 L890 356 L889 357 L889 388 L888 389 L888 410 L887 411 L887 432 L886 433 L886 454 L885 455 L884 486 L883 487 L883 501 L882 502 L881 522 L880 523 L880 529 L878 531 L859 529 L855 527 L856 507 L857 506 L857 492 L858 491 L858 478 L859 477 L859 464 L860 463 L860 449 L861 448 L861 429 L862 428 L862 411 L863 410 L865 361 L866 360 L867 340 Z M256 335 L257 334 L258 335 L257 336 Z M280 332 L282 334 L283 338 L284 359 L285 360 L286 396 L287 397 L287 415 L288 416 L289 455 L290 456 L293 520 L292 521 L282 522 L281 523 L271 524 L264 526 L262 522 L260 481 L259 480 L259 465 L258 464 L256 412 L255 411 L255 392 L254 391 L254 371 L253 370 L253 342 L256 338 L263 335 L275 332 Z M873 331 L886 334 L888 337 L885 338 L880 336 L871 335 L868 336 L865 341 L864 366 L863 367 L863 383 L862 384 L862 401 L861 402 L861 418 L860 419 L860 435 L859 436 L859 452 L858 453 L857 483 L856 484 L856 497 L855 498 L855 512 L854 513 L854 525 L851 528 L849 526 L850 525 L850 512 L851 511 L851 496 L852 495 L852 480 L853 479 L853 462 L854 461 L854 444 L855 443 L855 427 L856 426 L856 410 L857 409 L857 394 L858 393 L858 377 L859 376 L859 360 L860 359 L861 334 L864 331 Z M509 330 L511 328 L512 329 L511 331 Z M511 328 L512 327 L513 328 L512 329 Z M512 327 L513 326 L514 327 L513 328 Z M513 326 L514 325 L515 326 L514 327 Z M514 325 L515 324 L516 325 L515 326 Z M532 353 L539 344 L558 325 L584 303 L594 296 L595 298 L598 297 L632 328 L648 344 L657 356 L656 357 L630 331 L596 303 L592 304 L579 313 L546 341 L533 355 Z M518 373 L518 375 L519 375 L531 359 L553 337 L579 315 L595 304 L630 333 L661 365 L668 375 L668 393 L669 396 L669 391 L670 390 L669 378 L671 376 L662 360 L650 344 L630 324 L597 294 L594 294 L588 298 L559 322 L537 344 L524 362 Z M331 274 L332 273 L333 274 L332 275 Z M883 267 L887 268 L891 271 L891 277 L892 278 L891 310 L890 311 L889 332 L886 333 L878 330 L864 329 L861 331 L859 336 L848 526 L847 527 L830 527 L825 525 L825 514 L826 513 L827 485 L828 484 L828 471 L829 470 L831 413 L832 412 L832 391 L833 390 L833 369 L834 368 L834 346 L835 345 L835 325 L836 324 L836 306 L837 305 L837 288 L838 287 L839 265 L842 263 L845 263 L846 264 L872 265 L878 267 Z M877 260 L885 262 L889 266 L886 267 L874 264 L856 263 L855 262 L841 262 L838 263 L835 261 L839 265 L837 267 L837 275 L836 276 L836 293 L835 294 L835 311 L834 312 L834 329 L833 330 L833 353 L832 354 L832 375 L831 376 L831 398 L830 399 L830 422 L829 423 L828 458 L827 459 L827 477 L826 478 L825 504 L824 505 L824 520 L823 524 L820 525 L819 524 L819 502 L820 501 L822 446 L823 445 L824 400 L825 399 L825 377 L826 376 L826 355 L827 354 L827 334 L828 333 L831 261 L834 257 L851 257 L852 258 L863 258 L864 259 Z M319 256 L323 259 L323 261 L329 271 L330 276 L333 282 L342 514 L340 516 L333 516 L332 517 L321 517 L320 518 L313 518 L312 519 L304 519 L303 518 L302 505 L301 504 L298 435 L297 434 L297 415 L296 414 L293 337 L292 336 L292 331 L291 331 L291 349 L292 350 L292 368 L293 369 L293 387 L294 388 L294 408 L295 409 L295 425 L296 426 L296 446 L297 447 L298 482 L299 483 L299 499 L300 500 L300 518 L297 520 L295 518 L295 511 L294 510 L286 350 L285 349 L284 333 L282 332 L284 331 L283 330 L275 330 L260 335 L257 334 L260 331 L269 327 L279 326 L280 325 L289 325 L290 326 L290 324 L288 323 L281 323 L280 324 L279 323 L280 319 L278 318 L278 322 L274 325 L264 327 L255 332 L253 330 L252 303 L251 302 L251 274 L254 269 L263 266 L267 266 L291 260 Z M329 250 L331 251 L332 254 L332 272 L331 273 L328 265 L322 256 L327 253 Z M328 250 L326 252 L318 255 L311 255 L310 256 L293 258 L283 261 L269 263 L256 267 L254 266 L258 262 L292 253 L297 253 L310 250 L317 250 L318 249 L327 249 Z M869 211 L867 211 L868 215 Z M868 203 L867 204 L868 208 L869 208 Z M838 187 L840 186 L841 188 L840 189 Z M833 186 L837 186 L838 187 L836 194 L832 187 Z M880 190 L888 192 L891 195 L892 198 L892 231 L891 232 L890 261 L888 262 L880 259 L860 257 L859 256 L838 255 L837 256 L833 256 L831 258 L829 264 L827 319 L826 320 L826 341 L825 342 L825 363 L824 364 L824 386 L823 387 L823 407 L822 408 L822 430 L821 431 L821 453 L820 454 L820 472 L819 473 L817 523 L815 525 L782 523 L779 521 L779 482 L780 481 L782 379 L783 378 L783 350 L784 349 L784 310 L785 309 L786 244 L787 243 L788 211 L790 209 L790 205 L792 202 L794 194 L803 185 L829 185 L833 192 L836 194 L836 198 L833 201 L833 203 L835 204 L835 208 L833 210 L834 214 L835 213 L835 207 L836 206 L836 201 L838 193 L840 190 L842 190 L843 186 L860 187 L861 188 Z M796 187 L797 185 L799 186 L797 188 Z M498 251 L500 251 L509 242 L553 204 L558 201 L595 171 L598 171 L691 253 L669 231 L598 169 L595 169 L552 203 L518 232 Z M366 162 L371 166 L371 174 L372 175 L371 176 L372 177 L372 207 L373 208 L374 297 L375 298 L377 408 L378 409 L378 436 L379 437 L381 512 L378 514 L346 515 L344 513 L344 502 L343 501 L341 421 L340 420 L340 398 L339 397 L338 351 L337 350 L337 329 L336 328 L336 302 L335 301 L335 278 L334 277 L334 256 L333 255 L333 251 L330 248 L325 246 L321 248 L313 248 L312 249 L307 249 L306 250 L301 250 L300 251 L276 255 L272 257 L261 259 L255 263 L253 261 L251 200 L252 199 L252 192 L257 186 L279 177 L322 167 L340 165 L341 164 Z M598 146 L610 155 L699 234 L699 258 L698 259 L699 260 L699 309 L698 310 L698 345 L697 346 L698 349 L697 505 L696 506 L696 516 L694 518 L682 517 L675 519 L672 518 L671 519 L667 519 L663 517 L634 516 L631 514 L631 469 L632 468 L632 397 L631 396 L631 385 L626 373 L618 364 L610 359 L600 356 L587 356 L577 359 L570 363 L562 371 L556 384 L556 388 L555 389 L555 406 L554 407 L554 443 L553 444 L553 501 L552 502 L553 504 L553 509 L552 510 L553 511 L551 513 L535 513 L532 515 L523 515 L522 514 L514 514 L508 512 L493 512 L491 510 L491 499 L492 498 L491 496 L491 490 L492 489 L491 488 L491 472 L492 471 L492 467 L491 466 L492 379 L495 371 L494 370 L494 372 L493 373 L492 372 L491 355 L492 354 L493 356 L493 354 L491 351 L491 346 L505 333 L507 332 L509 334 L508 335 L507 344 L504 349 L504 355 L501 359 L501 362 L499 363 L495 357 L495 359 L498 364 L497 374 L501 378 L503 386 L503 381 L501 375 L499 374 L500 373 L499 369 L505 356 L505 350 L508 344 L510 335 L514 329 L520 323 L521 320 L529 312 L578 269 L593 257 L596 256 L691 341 L676 325 L596 253 L553 288 L526 313 L511 325 L492 343 L491 346 L490 345 L490 321 L489 319 L496 314 L507 303 L565 252 L596 227 L626 253 L682 305 L696 316 L694 313 L685 306 L682 302 L671 293 L645 268 L635 260 L632 256 L597 226 L594 226 L535 276 L490 317 L489 316 L489 261 L490 259 L488 257 L489 256 L489 238 L490 236 L524 206 L570 169 L593 149 Z M869 143 L867 148 L869 146 Z M401 143 L401 145 L403 146 L403 143 Z M755 139 L757 142 L757 145 L755 148 L753 144 Z M756 135 L754 135 L752 142 L754 155 L756 154 L756 151 L758 147 L758 140 L756 138 Z M869 134 L868 138 L870 140 L870 134 Z M311 116 L309 120 L310 123 L311 123 L311 118 L312 117 Z M869 106 L866 110 L866 113 L868 116 L868 129 L867 130 L862 119 L855 113 L855 115 L860 119 L866 131 L870 130 L869 128 L870 117 L868 114 Z M534 95 L534 99 L531 104 L531 108 L533 113 L533 117 L535 119 L532 105 L536 98 L536 96 Z M406 94 L405 94 L405 102 L403 106 L404 116 L402 122 L400 119 L399 110 L397 108 L399 121 L403 127 L401 132 L401 137 L402 137 L403 129 L404 128 L405 104 L407 100 Z M310 92 L311 95 L312 95 L312 93 Z M651 88 L649 92 L649 98 L650 99 L652 95 L651 92 L652 89 Z M386 87 L387 89 L391 90 L393 102 L397 106 L397 104 L394 100 L394 95 L392 89 Z M318 86 L316 87 L315 91 L316 94 L308 100 L308 101 L309 100 L310 101 L309 106 L311 114 L312 113 L311 100 L315 97 Z M381 75 L380 76 L384 81 L382 85 L382 91 L383 92 L386 80 Z M410 66 L408 67 L408 71 L407 72 L410 78 L410 81 L408 83 L408 85 L405 90 L407 90 L411 83 L410 74 L409 73 Z M409 62 L409 64 L410 64 L410 62 Z M608 57 L607 60 L609 60 Z M587 56 L588 61 L590 62 L589 56 Z M686 55 L687 54 L690 55 L689 56 Z M685 54 L686 53 L687 54 L686 55 Z M715 51 L717 53 L717 90 L716 91 L717 103 L716 104 L715 487 L714 488 L714 517 L711 519 L708 518 L704 519 L700 518 L698 516 L698 491 L699 490 L699 383 L700 382 L700 371 L699 370 L700 368 L700 351 L699 350 L700 322 L699 319 L700 318 L700 294 L701 293 L701 260 L700 259 L701 255 L701 235 L700 233 L701 232 L702 81 L703 80 L703 56 L702 55 L711 51 Z M721 50 L756 54 L757 55 L762 55 L763 56 L783 59 L788 61 L809 65 L837 74 L843 86 L842 87 L842 92 L838 100 L839 103 L839 117 L842 130 L845 126 L847 119 L851 115 L853 115 L852 113 L850 114 L845 120 L844 124 L843 125 L842 124 L841 105 L840 104 L840 100 L844 92 L844 86 L841 79 L842 77 L846 79 L848 83 L853 81 L860 85 L869 88 L872 91 L871 99 L872 99 L872 97 L875 92 L881 96 L890 105 L893 117 L892 166 L891 167 L891 180 L890 181 L890 190 L889 191 L880 188 L868 187 L867 186 L859 186 L858 185 L848 185 L847 184 L790 183 L788 185 L794 185 L796 189 L793 193 L789 203 L788 202 L788 187 L787 187 L787 192 L786 193 L785 251 L784 252 L784 280 L783 281 L783 313 L782 314 L782 353 L781 354 L781 387 L780 388 L778 493 L777 494 L777 517 L775 522 L751 522 L750 521 L741 521 L740 520 L724 520 L723 519 L718 519 L716 513 L716 469 L717 468 L718 87 L719 86 L719 54 Z M647 50 L648 49 L659 50 L660 52 L657 54 L656 53 L657 54 L655 56 L651 55 L649 53 L649 51 Z M469 47 L477 48 L487 51 L488 52 L488 56 L490 55 L491 56 L491 58 L494 61 L497 67 L497 69 L489 78 L488 77 L489 65 L488 64 L487 65 L487 78 L488 79 L487 82 L487 226 L488 227 L488 244 L487 245 L487 317 L488 318 L488 326 L489 327 L488 347 L489 348 L489 359 L490 360 L490 491 L489 492 L490 494 L490 499 L489 500 L490 507 L489 508 L490 509 L487 512 L469 512 L466 508 L466 484 L465 483 L465 56 L466 55 L466 50 Z M463 48 L464 47 L466 48 L465 49 Z M462 47 L463 48 L462 49 L464 51 L464 55 L463 56 L463 401 L464 402 L464 510 L462 512 L421 512 L413 514 L403 514 L402 513 L397 513 L395 511 L394 471 L393 470 L393 442 L392 441 L391 376 L390 375 L390 340 L389 339 L389 298 L388 297 L388 254 L387 253 L386 184 L385 183 L385 164 L384 163 L383 165 L383 173 L384 174 L385 243 L386 244 L386 292 L387 293 L388 371 L389 372 L390 433 L391 434 L391 460 L392 461 L392 487 L393 488 L393 512 L392 513 L384 513 L383 512 L383 501 L382 500 L382 472 L381 471 L380 414 L379 413 L379 378 L378 377 L378 348 L377 347 L375 220 L374 219 L374 176 L373 175 L373 164 L370 162 L374 160 L379 160 L380 159 L383 160 L383 159 L374 158 L373 159 L367 159 L359 161 L330 164 L329 165 L324 165 L323 166 L299 170 L268 179 L257 184 L255 186 L254 185 L253 156 L252 155 L252 119 L255 110 L263 102 L270 97 L298 84 L303 84 L307 88 L307 90 L309 90 L305 83 L306 82 L319 78 L320 79 L318 82 L318 84 L319 84 L321 79 L324 76 L336 72 L375 63 L378 68 L378 70 L381 73 L380 68 L378 65 L379 63 L383 63 L384 64 L388 61 L393 63 L395 61 L406 57 L409 57 L410 58 L409 59 L411 60 L412 56 L416 54 L434 51 L435 50 L442 50 L449 48 L459 48 Z M587 47 L586 50 L589 52 L588 47 Z M491 53 L492 52 L503 52 L505 53 L514 50 L530 51 L532 49 L540 48 L541 49 L539 53 L540 56 L538 58 L539 66 L534 72 L534 80 L531 88 L529 87 L528 80 L523 73 L520 72 L515 75 L513 74 L509 75 L509 76 L510 75 L515 77 L520 73 L525 77 L525 79 L527 81 L527 87 L531 92 L532 92 L531 90 L534 85 L535 73 L540 67 L539 58 L541 54 L542 48 L544 46 L550 46 L557 44 L566 44 L567 45 L570 44 L584 44 L585 45 L598 44 L599 45 L609 45 L612 47 L610 48 L610 50 L614 46 L632 46 L633 47 L644 48 L650 56 L655 58 L664 49 L674 49 L680 51 L690 60 L694 69 L695 69 L694 64 L689 56 L691 54 L699 54 L701 56 L701 75 L700 76 L699 75 L701 83 L699 230 L698 231 L616 158 L598 144 L588 151 L559 176 L554 179 L490 233 L488 227 L489 226 L489 111 L488 110 L488 86 L493 75 L496 72 L501 71 L503 79 L506 77 L503 74 L503 70 L498 68 L498 65 L493 58 Z M461 44 L460 45 L446 46 L439 48 L421 50 L410 53 L407 55 L401 56 L398 58 L393 58 L386 60 L375 60 L327 72 L299 81 L284 87 L262 99 L252 109 L250 115 L250 119 L249 120 L249 146 L250 147 L250 172 L251 173 L251 184 L252 187 L249 193 L249 232 L250 233 L249 235 L250 236 L250 256 L251 257 L251 264 L252 266 L249 271 L248 288 L249 289 L250 328 L252 334 L252 338 L250 344 L252 406 L253 407 L253 422 L254 423 L254 438 L255 439 L255 456 L256 457 L258 506 L259 507 L259 519 L260 520 L260 527 L256 533 L256 540 L255 542 L256 543 L256 566 L257 567 L259 592 L262 604 L267 609 L267 613 L266 614 L267 655 L266 656 L258 657 L252 662 L249 671 L249 680 L248 681 L251 717 L252 718 L253 732 L254 733 L254 739 L256 747 L258 777 L259 778 L259 844 L258 845 L258 869 L257 870 L256 907 L255 908 L255 924 L254 925 L254 941 L253 942 L253 965 L254 966 L254 972 L256 980 L258 984 L265 991 L273 994 L288 995 L289 996 L290 1004 L292 1009 L292 1014 L294 1019 L294 1023 L299 1043 L302 1050 L302 1053 L305 1060 L307 1069 L309 1072 L310 1078 L312 1081 L313 1086 L321 1106 L339 1143 L353 1167 L375 1199 L396 1224 L411 1238 L424 1247 L426 1247 L428 1249 L443 1254 L446 1256 L450 1257 L458 1256 L461 1258 L465 1258 L471 1260 L479 1260 L486 1266 L494 1268 L499 1268 L500 1269 L505 1269 L506 1270 L522 1271 L525 1270 L531 1264 L534 1265 L547 1265 L556 1271 L565 1270 L567 1268 L579 1268 L586 1272 L617 1270 L618 1269 L623 1269 L627 1266 L637 1267 L652 1263 L656 1263 L664 1259 L672 1258 L683 1254 L703 1243 L720 1228 L751 1191 L781 1145 L799 1110 L799 1108 L805 1096 L811 1078 L813 1075 L813 1072 L816 1065 L820 1049 L822 1047 L827 1050 L848 1050 L852 1049 L863 1044 L867 1036 L868 1013 L869 1012 L868 893 L869 892 L869 864 L870 863 L871 825 L872 824 L872 812 L873 811 L874 796 L875 795 L876 784 L877 783 L880 763 L883 752 L885 733 L886 732 L886 721 L887 720 L887 696 L886 695 L885 687 L880 681 L869 677 L869 669 L870 668 L871 647 L872 646 L873 613 L878 608 L881 598 L883 582 L884 581 L884 575 L885 574 L886 555 L887 554 L887 538 L886 535 L882 531 L882 529 L883 528 L883 520 L884 519 L886 482 L887 481 L889 424 L890 423 L890 403 L891 402 L891 377 L892 376 L892 341 L890 337 L892 331 L892 320 L893 319 L894 272 L891 265 L892 264 L892 256 L893 255 L894 216 L895 215 L895 202 L892 190 L893 189 L893 177 L894 176 L896 116 L895 115 L895 110 L892 103 L882 93 L859 80 L847 77 L835 70 L819 66 L815 64 L812 64 L808 62 L800 61 L781 56 L777 56 L776 55 L772 55 L771 54 L767 54 L766 53 L755 52 L754 51 L732 49 L731 48 L712 48 L700 52 L690 52 L680 49 L677 47 L664 46 L661 48 L651 48 L645 45 L638 45 L637 44 L630 44 L629 43 L605 43 L604 42 L549 42 L548 43 L543 43 L536 47 L529 47 L528 48 L518 47 L517 48 L510 48 L503 50 L501 49 L499 50 L491 50 L489 48 L485 48 L471 44 Z" fill="#eef3f4" fill-rule="evenodd"/>
</svg>
