<svg xmlns="http://www.w3.org/2000/svg" width="1086" height="1448" viewBox="0 0 1086 1448">
  <title>0453</title>
  <path d="M510 1177 L509 1177 L509 1222 L510 1219 Z M728 1167 L705 1197 L687 1214 L667 1228 L651 1236 L632 1242 L625 1242 L624 1243 L614 1243 L613 1242 L612 1243 L602 1240 L581 1227 L568 1222 L554 1220 L553 1219 L536 1219 L530 1221 L533 1220 L549 1220 L550 1221 L557 1221 L558 1222 L566 1223 L575 1226 L600 1240 L613 1244 L628 1244 L629 1243 L634 1243 L650 1238 L673 1226 L695 1209 L706 1198 L719 1182 Z M351 1162 L353 1168 L367 1189 L389 1212 L408 1226 L430 1237 L450 1243 L470 1244 L482 1241 L506 1227 L511 1226 L517 1223 L524 1222 L516 1222 L505 1226 L497 1230 L489 1236 L474 1243 L473 1242 L469 1242 L468 1243 L453 1242 L434 1237 L431 1235 L426 1234 L409 1225 L390 1211 L373 1194 L365 1184 Z M748 1139 L741 1147 L743 1146 Z M405 1132 L406 1131 L408 1132 L407 1133 Z M485 1128 L505 1125 L506 1124 L511 1124 L512 1123 L517 1123 L518 1122 L528 1122 L529 1121 L563 1122 L564 1123 L571 1123 L572 1124 L578 1124 L579 1125 L591 1126 L592 1127 L592 1126 L579 1123 L557 1121 L556 1120 L523 1120 L522 1121 L516 1121 L515 1122 L499 1124 Z M427 1149 L447 1135 L469 1123 L479 1120 L482 1118 L485 1118 L497 1114 L512 1112 L513 1111 L521 1111 L522 1110 L562 1110 L563 1111 L572 1111 L573 1112 L578 1112 L579 1113 L597 1116 L614 1122 L628 1129 L658 1149 L658 1148 L642 1136 L626 1126 L611 1119 L596 1114 L583 1112 L582 1111 L577 1111 L576 1110 L570 1110 L569 1109 L560 1109 L559 1108 L528 1108 L527 1109 L516 1109 L515 1110 L498 1112 L486 1115 L467 1122 L457 1127 L440 1138 Z M630 1103 L631 1102 L632 1103 L631 1104 Z M451 1103 L452 1102 L453 1103 L452 1104 Z M477 1099 L493 1095 L509 1093 L510 1092 L516 1092 L517 1091 L554 1090 L555 1091 L566 1091 L567 1092 L581 1093 L582 1094 L603 1098 L610 1101 L605 1098 L591 1094 L576 1092 L575 1091 L553 1090 L552 1089 L531 1089 L530 1090 L509 1091 L508 1092 L493 1094 Z M811 1081 L812 1080 L813 1081 L812 1082 Z M813 1072 L814 1071 L815 1072 L814 1073 Z M636 1066 L639 1066 L654 1074 L666 1085 L672 1094 L674 1100 L674 1111 L671 1118 L667 1122 L660 1123 L656 1121 L643 1111 L637 1108 L634 1104 L630 1092 L630 1077 L632 1071 Z M447 1066 L451 1070 L454 1077 L454 1088 L449 1104 L427 1121 L421 1123 L415 1121 L412 1118 L409 1111 L409 1102 L413 1092 L418 1085 L428 1076 Z M866 1064 L863 1067 L855 1071 L852 1071 L845 1074 L817 1081 L813 1081 L812 1080 L812 1077 L814 1074 L835 1070 L854 1064 L861 1057 L862 1060 Z M635 1064 L629 1072 L628 1071 L629 1073 L628 1074 L627 1089 L631 1100 L630 1103 L605 1092 L598 1091 L594 1089 L577 1087 L576 1086 L548 1085 L547 1084 L519 1085 L518 1086 L508 1086 L507 1087 L489 1089 L473 1094 L454 1103 L452 1102 L456 1090 L456 1076 L454 1071 L449 1065 L452 1063 L466 1059 L473 1059 L474 1058 L565 1059 L566 1058 L580 1058 L581 1057 L608 1057 L609 1058 L621 1059 Z M205 1055 L209 1050 L210 1052 L219 1057 L247 1066 L257 1068 L260 1070 L261 1075 L260 1076 L222 1063 L210 1060 Z M752 1043 L751 1044 L757 1046 L765 1052 L774 1061 L779 1069 L778 1070 L779 1071 L778 1066 L774 1059 L761 1047 Z M381 1105 L384 1095 L388 1087 L397 1074 L408 1063 L428 1048 L455 1034 L463 1032 L472 1028 L493 1024 L494 1023 L498 1023 L499 1022 L506 1022 L507 1023 L515 1024 L530 1032 L537 1034 L549 1034 L559 1031 L563 1028 L574 1023 L587 1022 L588 1023 L594 1023 L595 1024 L609 1026 L632 1034 L650 1043 L666 1054 L677 1064 L676 1065 L677 1064 L687 1074 L696 1087 L701 1100 L702 1112 L699 1121 L691 1128 L679 1130 L667 1127 L666 1125 L673 1119 L676 1113 L676 1108 L677 1107 L677 1102 L674 1093 L669 1085 L655 1072 L641 1064 L628 1059 L625 1059 L624 1058 L626 1057 L622 1056 L621 1057 L617 1057 L611 1055 L580 1055 L579 1056 L566 1056 L565 1057 L517 1057 L516 1056 L487 1055 L486 1056 L471 1056 L470 1057 L469 1056 L449 1062 L427 1074 L416 1084 L411 1091 L407 1101 L408 1117 L415 1124 L419 1124 L420 1125 L415 1128 L408 1130 L400 1131 L390 1128 L384 1122 L382 1118 Z M715 1103 L710 1086 L704 1076 L688 1058 L673 1046 L654 1034 L628 1022 L607 1016 L587 1013 L585 1014 L614 1019 L639 1028 L660 1039 L676 1050 L689 1061 L701 1074 L711 1093 L713 1101 L713 1112 L711 1119 L707 1126 L703 1130 L695 1134 L683 1134 L678 1132 L679 1131 L690 1130 L694 1128 L700 1122 L704 1112 L704 1107 L701 1094 L690 1075 L676 1060 L658 1046 L634 1033 L612 1025 L599 1022 L594 1022 L593 1021 L586 1021 L585 1020 L575 1021 L567 1024 L557 1030 L545 1033 L540 1033 L527 1029 L517 1023 L514 1023 L510 1021 L494 1021 L493 1022 L476 1025 L455 1032 L431 1044 L411 1058 L395 1074 L386 1087 L381 1098 L380 1107 L379 1108 L380 1117 L386 1127 L390 1130 L396 1132 L404 1132 L405 1133 L400 1135 L389 1135 L380 1131 L375 1126 L372 1120 L371 1116 L371 1103 L374 1092 L379 1082 L386 1072 L404 1054 L416 1045 L431 1036 L453 1026 L475 1019 L494 1015 L494 1014 L491 1014 L470 1019 L440 1030 L418 1042 L403 1053 L385 1071 L376 1084 L369 1103 L369 1115 L372 1124 L380 1133 L390 1137 L400 1137 L416 1131 L427 1124 L442 1112 L455 1104 L481 1093 L498 1089 L514 1088 L515 1087 L529 1087 L530 1086 L570 1087 L571 1088 L590 1090 L612 1096 L630 1105 L663 1128 L676 1134 L684 1136 L692 1136 L703 1132 L709 1126 L714 1116 Z M566 976 L569 996 L574 1014 L575 1013 L574 1006 L572 1001 L567 976 Z M487 969 L488 968 L489 969 L488 970 Z M591 968 L592 967 L594 968 L593 969 Z M589 950 L594 954 L594 961 L587 969 L581 970 L572 965 L571 961 L578 953 L584 950 Z M489 952 L492 950 L496 950 L500 952 L509 962 L507 967 L502 971 L495 971 L493 970 L488 965 L486 959 Z M579 949 L580 948 L581 949 L580 950 Z M496 946 L497 947 L496 948 L491 948 L488 950 L484 956 L484 961 L486 964 L485 966 L486 965 L488 968 L486 969 L480 964 L478 960 L479 950 L486 945 Z M589 944 L593 944 L600 947 L603 951 L603 959 L601 963 L594 968 L593 967 L596 962 L596 954 L591 948 L581 949 L580 948 Z M605 951 L600 945 L596 943 L592 943 L591 942 L585 943 L577 948 L577 951 L573 954 L565 969 L559 975 L555 977 L546 978 L545 979 L531 979 L518 974 L513 968 L510 959 L505 951 L498 945 L492 943 L483 944 L478 949 L476 953 L476 959 L478 964 L483 969 L491 973 L500 974 L505 972 L510 967 L513 971 L512 973 L513 975 L511 980 L510 995 L507 1008 L507 1013 L508 1014 L509 1013 L509 1007 L511 1000 L512 985 L513 984 L513 974 L514 973 L523 979 L531 980 L532 981 L548 981 L555 979 L561 976 L566 971 L569 966 L575 972 L578 973 L588 973 L595 970 L603 963 L605 959 Z M562 898 L561 898 L561 900 Z M511 885 L512 884 L513 885 L512 886 Z M510 884 L511 883 L512 884 L511 885 Z M569 882 L570 881 L571 882 L570 883 Z M851 880 L852 881 L860 882 L862 886 L862 892 L863 893 L865 912 L866 913 L866 920 L867 921 L867 928 L868 929 L869 946 L870 947 L871 968 L872 969 L873 1029 L872 1030 L871 1051 L869 1059 L867 1062 L864 1060 L862 1056 L863 1053 L863 1039 L864 1038 L863 976 L862 975 L862 963 L861 962 L861 952 L860 951 L858 926 L857 925 L857 919 L856 918 L852 889 L850 883 Z M570 881 L571 880 L572 881 L571 882 Z M571 880 L572 879 L573 880 L572 881 Z M455 878 L449 881 L442 888 L435 898 L431 906 L427 918 L420 949 L413 967 L408 976 L399 989 L381 1007 L361 1020 L348 1025 L340 1026 L339 1027 L323 1027 L313 1024 L304 1019 L293 1008 L290 1003 L294 1011 L303 1020 L311 1025 L320 1028 L335 1029 L336 1028 L342 1028 L350 1026 L360 1022 L371 1016 L382 1008 L399 991 L411 974 L422 948 L432 908 L440 893 Z M670 867 L671 866 L675 866 L676 867 L675 868 L671 868 Z M666 866 L667 865 L670 866 L669 867 Z M579 870 L568 881 L562 893 L562 896 L563 896 L567 888 L573 882 L586 877 L600 877 L611 880 L621 886 L633 899 L640 913 L643 931 L642 932 L641 943 L637 951 L630 959 L623 964 L616 967 L606 969 L606 970 L614 969 L626 964 L634 958 L638 952 L659 986 L672 1002 L686 1016 L696 1024 L713 1035 L729 1042 L750 1048 L758 1052 L768 1061 L773 1069 L776 1077 L777 1092 L774 1103 L770 1111 L764 1120 L752 1133 L754 1132 L765 1121 L775 1104 L778 1095 L778 1090 L780 1086 L780 1075 L780 1082 L779 1083 L774 1068 L769 1060 L762 1053 L752 1047 L731 1041 L708 1030 L690 1017 L671 998 L658 981 L640 952 L640 949 L644 939 L644 920 L641 910 L636 900 L625 887 L615 880 L601 875 L587 875 L579 877 L574 880 L572 878 L579 872 L589 868 L603 868 L620 875 L632 884 L639 892 L646 904 L652 924 L656 945 L660 957 L669 975 L684 995 L695 1006 L706 1015 L717 1022 L727 1027 L739 1031 L744 1031 L745 1032 L761 1032 L762 1031 L766 1031 L777 1026 L781 1023 L791 1011 L794 1003 L786 1016 L780 1022 L770 1028 L758 1031 L749 1031 L748 1030 L738 1029 L724 1024 L710 1016 L696 1005 L684 993 L669 972 L663 960 L656 940 L656 936 L654 931 L654 926 L650 910 L644 897 L634 884 L621 874 L606 867 L589 866 Z M663 865 L664 864 L666 865 L665 866 Z M501 869 L494 866 L483 865 L469 869 L463 872 L457 877 L468 871 L477 868 L490 867 L502 871 L508 877 L511 883 L510 884 L506 880 L497 876 L478 875 L463 881 L456 886 L447 895 L439 909 L435 924 L435 936 L440 951 L433 960 L432 964 L412 993 L390 1016 L372 1029 L356 1037 L343 1041 L335 1045 L333 1045 L332 1043 L329 1043 L325 1045 L314 1053 L308 1060 L303 1069 L301 1077 L302 1093 L305 1102 L311 1113 L325 1128 L333 1133 L332 1131 L327 1128 L314 1115 L306 1100 L305 1083 L307 1075 L313 1065 L312 1064 L307 1071 L303 1086 L302 1085 L302 1076 L307 1064 L320 1050 L330 1044 L333 1045 L321 1052 L313 1061 L327 1050 L367 1034 L380 1026 L394 1015 L406 1003 L419 987 L430 971 L441 952 L451 963 L456 966 L470 971 L477 971 L471 970 L457 965 L451 961 L445 955 L440 946 L437 935 L438 919 L442 907 L448 897 L459 886 L474 878 L487 876 L503 880 L513 888 L517 898 L517 892 L513 881 Z M410 865 L411 864 L414 865 L413 866 Z M610 855 L600 852 L591 851 L590 852 L581 853 L574 856 L564 865 L557 878 L554 891 L554 899 L553 900 L553 944 L554 945 L554 949 L553 950 L553 966 L552 969 L546 974 L542 975 L535 975 L531 973 L530 974 L538 977 L545 976 L549 974 L554 967 L554 963 L555 962 L555 950 L554 949 L555 928 L554 927 L554 919 L555 918 L556 888 L559 877 L563 869 L567 864 L574 858 L587 853 L598 853 L606 855 L623 863 Z M462 859 L459 862 L470 856 L476 855 L480 853 L495 853 L504 857 L514 867 L518 875 L521 886 L522 908 L521 909 L521 931 L520 932 L520 958 L522 966 L526 971 L522 962 L522 954 L521 953 L522 925 L523 924 L523 890 L522 889 L521 879 L516 867 L508 858 L499 853 L492 851 L483 851 L475 853 Z M630 845 L631 844 L632 845 L631 846 Z M629 844 L630 843 L631 844 L630 845 Z M628 843 L629 842 L630 843 L629 844 Z M452 841 L453 840 L454 841 L453 842 Z M453 840 L454 839 L455 840 L454 841 Z M454 839 L455 838 L456 839 L455 840 Z M455 838 L456 837 L457 838 L456 839 Z M734 824 L735 823 L736 824 L735 825 Z M738 822 L739 821 L740 822 L739 823 Z M739 821 L740 820 L741 821 L740 822 Z M740 820 L741 819 L742 820 L741 821 Z M741 819 L742 818 L743 819 L742 820 Z M742 818 L743 817 L744 818 L743 819 Z M701 818 L702 817 L705 818 L704 819 Z M345 818 L346 817 L347 818 L346 819 Z M706 817 L707 816 L708 817 L707 818 Z M380 817 L381 816 L382 817 L381 818 Z M344 817 L345 816 L346 817 L345 818 Z M377 816 L378 815 L379 816 L378 817 Z M342 816 L343 815 L344 816 L343 817 Z M341 815 L342 814 L343 815 L342 816 Z M340 814 L341 813 L342 814 L341 815 Z M470 813 L468 818 L461 828 L442 848 L434 854 L424 859 L408 863 L389 862 L381 860 L368 853 L357 842 L352 834 L346 820 L347 818 L367 829 L382 834 L398 836 L399 837 L418 837 L419 836 L429 835 L447 828 L461 819 L467 813 L469 812 Z M469 811 L470 810 L471 812 L470 813 Z M470 810 L471 809 L472 810 L471 811 Z M752 809 L753 808 L754 809 L753 810 Z M608 808 L609 807 L617 816 L629 825 L644 832 L665 837 L672 837 L673 838 L697 837 L717 832 L734 824 L735 826 L725 846 L714 857 L707 861 L697 864 L677 865 L676 864 L671 864 L655 859 L638 848 L618 826 L612 817 Z M607 807 L608 806 L609 807 L608 808 Z M606 805 L607 804 L608 805 L607 806 Z M898 802 L899 801 L900 803 L899 804 Z M899 801 L900 800 L901 801 L900 802 Z M652 796 L653 795 L654 796 L653 797 Z M651 795 L652 794 L653 795 L652 796 Z M650 794 L651 793 L652 794 L651 795 Z M703 786 L704 785 L705 786 L704 787 Z M705 785 L706 784 L708 785 L707 786 Z M380 785 L381 784 L382 785 L381 786 Z M378 784 L379 783 L380 784 L379 785 Z M377 783 L378 782 L379 783 L378 784 Z M744 778 L745 777 L746 778 L745 779 Z M342 778 L343 777 L344 779 L343 780 Z M745 775 L746 774 L747 776 L746 777 Z M636 774 L637 775 L636 785 L633 788 L632 787 L632 782 L635 778 Z M342 774 L343 775 L342 778 L341 777 Z M595 786 L593 778 L589 773 L592 779 L593 789 L591 797 L586 805 L578 812 L569 817 L560 820 L549 821 L548 822 L531 822 L530 821 L520 820 L503 812 L494 803 L490 796 L489 784 L492 775 L489 778 L487 790 L492 803 L498 810 L505 815 L515 820 L522 822 L542 824 L543 823 L553 823 L554 822 L562 821 L578 814 L590 802 L594 793 Z M637 771 L638 772 L637 775 L636 774 Z M637 769 L638 768 L639 770 L638 771 Z M793 767 L795 772 L795 782 L796 783 L798 803 L800 808 L802 820 L809 840 L818 856 L826 866 L839 876 L845 878 L849 881 L849 886 L850 887 L850 892 L853 905 L853 911 L855 918 L855 924 L856 925 L856 931 L857 932 L859 959 L860 960 L861 991 L862 992 L862 1049 L860 1056 L854 1062 L850 1064 L819 1072 L815 1072 L814 1071 L814 1067 L815 1066 L818 1046 L820 1040 L823 1016 L824 1015 L825 1000 L826 999 L827 976 L828 975 L828 931 L827 930 L827 920 L826 919 L826 911 L825 910 L824 900 L816 873 L801 843 L781 816 L782 809 L784 806 L785 799 L788 791 L788 787 L790 783 L791 773 Z M446 765 L447 766 L447 773 L448 774 L448 784 L437 795 L436 793 L439 790 L444 778 L445 766 Z M643 763 L644 764 L645 781 L649 790 L651 792 L650 794 L645 791 L639 785 L639 775 Z M285 763 L289 779 L296 798 L297 807 L285 823 L277 838 L277 840 L267 861 L257 895 L254 915 L253 916 L253 921 L252 922 L252 929 L251 930 L249 973 L250 974 L250 995 L251 996 L251 1009 L252 1010 L253 1029 L254 1030 L255 1044 L256 1045 L256 1050 L259 1063 L259 1066 L256 1067 L220 1056 L214 1053 L209 1046 L207 1047 L207 1049 L204 1054 L202 1052 L199 1039 L200 1008 L201 1007 L201 999 L202 998 L202 990 L203 989 L203 982 L204 981 L207 952 L208 951 L210 934 L212 928 L212 923 L215 912 L215 907 L216 906 L220 882 L223 875 L233 873 L234 875 L232 879 L231 887 L229 892 L229 896 L223 922 L223 927 L221 933 L215 974 L214 975 L212 997 L211 998 L211 1006 L210 1007 L210 1015 L209 1016 L209 1026 L208 1027 L208 1040 L209 1040 L210 1037 L211 1015 L212 1014 L212 1005 L213 1004 L213 997 L214 996 L217 968 L218 967 L224 927 L225 926 L228 905 L232 890 L235 872 L247 865 L258 854 L270 833 L280 801 L281 791 L282 790 L282 783 L283 782 L283 770 Z M643 762 L644 761 L645 762 L644 763 Z M303 805 L308 802 L315 800 L316 801 L322 801 L326 803 L328 803 L329 801 L332 804 L333 808 L344 821 L350 835 L355 843 L362 851 L370 857 L380 862 L392 865 L409 865 L410 866 L403 868 L389 868 L369 863 L351 853 L333 838 L318 832 L308 833 L299 838 L291 846 L286 853 L283 859 L282 864 L291 848 L300 839 L307 835 L320 834 L330 838 L351 855 L365 863 L380 868 L393 869 L394 870 L411 868 L429 861 L441 852 L444 851 L456 841 L459 840 L469 831 L483 823 L492 820 L501 822 L501 820 L498 819 L489 819 L474 826 L458 838 L456 837 L469 820 L476 807 L479 800 L485 806 L480 797 L480 783 L484 772 L496 761 L509 760 L522 755 L530 754 L531 753 L547 753 L574 761 L583 761 L584 762 L585 761 L591 764 L597 770 L602 782 L602 796 L596 807 L597 809 L602 800 L610 818 L620 832 L629 842 L627 843 L607 828 L600 824 L591 822 L589 819 L584 820 L581 822 L582 823 L584 822 L592 823 L606 829 L648 860 L669 869 L677 870 L678 871 L701 871 L702 870 L706 870 L724 863 L736 855 L746 846 L752 842 L758 840 L769 840 L776 843 L788 854 L797 869 L793 859 L788 852 L780 844 L771 839 L767 838 L759 838 L751 841 L726 860 L708 868 L698 869 L697 870 L683 870 L675 868 L676 867 L693 867 L694 866 L703 865 L718 857 L729 844 L736 828 L738 827 L746 817 L755 810 L766 810 L774 814 L783 822 L791 832 L811 867 L820 893 L823 913 L824 914 L825 936 L826 937 L825 985 L824 986 L824 995 L823 996 L823 1004 L822 1005 L820 1026 L819 1027 L817 1044 L814 1055 L814 1060 L812 1065 L811 1074 L806 1094 L804 1098 L802 1108 L800 1111 L800 1114 L789 1138 L782 1149 L774 1159 L755 1178 L743 1188 L706 1227 L694 1237 L674 1250 L660 1257 L658 1257 L648 1262 L645 1262 L634 1266 L618 1268 L617 1269 L593 1269 L592 1268 L583 1267 L562 1260 L540 1259 L539 1260 L527 1261 L496 1269 L488 1269 L487 1270 L466 1269 L465 1268 L451 1266 L424 1257 L408 1249 L389 1237 L375 1226 L355 1206 L350 1199 L307 1160 L289 1140 L281 1128 L273 1112 L267 1094 L261 1062 L260 1061 L258 1042 L257 1041 L257 1034 L255 1026 L253 991 L252 990 L252 944 L253 943 L253 933 L254 932 L254 925 L255 924 L257 906 L265 874 L274 850 L290 819 Z M463 744 L464 743 L465 744 L464 745 Z M462 743 L463 742 L464 743 L463 744 Z M693 739 L699 739 L707 743 L712 749 L715 755 L715 759 L716 760 L715 769 L712 775 L706 782 L700 785 L692 785 L686 782 L680 775 L677 765 L677 760 L680 750 L687 742 Z M393 739 L402 742 L408 748 L411 755 L412 764 L411 765 L411 769 L407 777 L402 782 L396 785 L387 785 L382 783 L374 774 L372 766 L372 761 L375 751 L379 746 L384 742 Z M383 739 L384 740 L378 744 L374 749 L370 760 L371 772 L374 778 L378 782 L376 783 L370 777 L366 766 L366 759 L367 758 L367 754 L372 745 L377 741 Z M705 738 L708 738 L712 740 L718 746 L721 751 L723 759 L722 769 L719 777 L713 783 L709 785 L707 784 L712 779 L717 770 L718 759 L714 748 L710 743 L704 739 Z M383 739 L384 738 L386 739 L385 740 Z M701 738 L702 737 L705 738 L704 739 Z M901 736 L900 737 L904 744 L911 770 L912 800 L913 801 L912 802 L912 816 L911 817 L911 824 L907 841 L903 849 L892 859 L894 859 L899 856 L907 845 L911 833 L912 823 L913 822 L913 814 L914 813 L914 782 L913 781 L913 772 L912 771 L909 754 L906 745 Z M629 735 L630 737 L627 740 L626 738 Z M498 736 L498 740 L500 744 L504 747 L515 747 L527 743 L548 743 L549 744 L555 744 L567 748 L576 748 L583 742 L583 740 L582 740 L577 746 L574 747 L569 747 L559 744 L555 744 L549 742 L542 742 L541 741 L539 742 L523 743 L512 746 L506 746 L500 741 Z M696 735 L686 739 L679 746 L675 756 L675 769 L679 778 L686 785 L695 789 L703 789 L714 784 L721 776 L724 769 L725 759 L722 749 L716 741 L710 737 L704 735 Z M629 735 L630 734 L631 735 L630 736 Z M387 735 L375 740 L369 746 L365 755 L364 766 L368 777 L373 783 L381 788 L393 789 L401 786 L406 782 L412 774 L414 768 L414 755 L410 746 L403 739 L397 736 Z M314 735 L315 734 L316 735 L315 736 Z M630 734 L631 733 L632 734 L631 735 Z M430 734 L431 733 L432 734 L431 735 Z M349 734 L350 733 L351 734 L350 735 Z M432 733 L433 732 L434 733 L433 734 Z M316 733 L317 732 L319 733 L318 734 Z M735 732 L736 731 L737 732 L736 733 Z M774 731 L775 730 L776 731 L775 732 Z M638 727 L639 726 L640 727 L639 728 Z M639 726 L640 725 L641 726 L640 727 Z M640 725 L641 724 L642 725 L641 726 Z M714 723 L729 729 L739 739 L743 747 L745 755 L745 769 L743 777 L739 785 L727 798 L721 802 L704 808 L696 808 L695 809 L692 808 L681 808 L664 802 L657 797 L652 791 L646 777 L646 763 L651 749 L655 743 L665 733 L678 726 L693 722 Z M358 730 L372 724 L384 723 L385 722 L393 722 L394 723 L400 723 L408 725 L419 730 L426 735 L432 741 L433 745 L438 749 L443 762 L442 778 L440 784 L435 792 L429 798 L423 802 L405 808 L385 808 L372 804 L360 797 L348 784 L343 769 L343 755 L345 748 L350 738 Z M431 731 L431 733 L429 734 L421 728 L403 721 L399 721 L398 720 L378 720 L364 724 L352 731 L336 737 L327 737 L326 736 L322 736 L319 734 L320 733 L338 731 L359 722 L377 717 L399 717 L400 718 L408 719 L423 725 Z M230 719 L231 731 L232 732 L232 751 L231 752 L231 758 L229 766 L224 779 L219 787 L212 795 L204 800 L194 802 L185 798 L182 795 L177 786 L175 778 L175 761 L176 760 L176 755 L178 747 L183 736 L188 729 L192 725 L200 720 L205 720 L207 722 L208 721 L206 719 L199 716 L195 716 L186 719 L177 727 L173 733 L166 750 L163 763 L162 781 L161 782 L162 806 L163 807 L165 822 L168 831 L173 840 L181 848 L188 851 L183 848 L174 839 L169 829 L166 818 L165 808 L164 807 L164 797 L163 796 L163 777 L164 776 L164 769 L165 768 L167 752 L172 738 L179 727 L189 719 L198 718 L199 719 L193 722 L185 730 L177 744 L173 760 L173 778 L177 791 L186 801 L191 803 L202 803 L208 800 L219 790 L223 784 L231 765 L233 757 L233 749 L234 748 L234 737 L233 736 L232 723 Z M306 728 L315 738 L317 738 L315 736 L316 735 L322 737 L331 747 L332 746 L326 739 L327 738 L334 739 L345 736 L348 734 L350 735 L347 739 L342 750 L342 754 L341 755 L342 774 L341 775 L340 774 L339 768 L337 768 L344 785 L353 795 L362 801 L378 808 L386 810 L404 810 L417 807 L436 798 L449 786 L451 788 L446 793 L449 792 L454 787 L451 779 L450 768 L445 754 L437 741 L431 735 L434 733 L438 736 L447 748 L456 768 L458 776 L458 771 L453 756 L443 739 L435 731 L429 727 L409 718 L401 717 L400 716 L394 716 L393 715 L376 716 L371 718 L359 720 L340 729 L325 731 L324 732 L322 731 L315 731 Z M686 711 L679 711 L666 715 L654 721 L643 730 L664 717 L675 713 Z M223 703 L228 713 L228 710 L225 704 Z M839 696 L840 695 L841 697 L840 698 Z M840 694 L841 693 L842 694 L841 695 Z M233 693 L234 692 L237 695 L238 694 L239 698 L238 699 Z M232 692 L233 691 L234 692 L233 693 Z M865 686 L866 685 L869 686 L868 687 Z M181 675 L190 672 L209 674 L225 682 L233 691 L232 692 L225 687 L209 680 L198 679 L197 678 L186 678 Z M896 675 L891 678 L876 680 L868 682 L859 686 L848 696 L844 702 L844 704 L843 705 L842 704 L842 696 L851 686 L863 678 L874 674 L884 673 L889 671 L890 669 Z M279 658 L280 659 L279 713 L280 714 L280 727 L281 728 L281 741 L282 742 L281 743 L281 776 L280 777 L280 787 L279 788 L277 804 L268 832 L258 850 L245 864 L235 870 L225 873 L214 873 L213 872 L214 871 L219 871 L221 869 L234 864 L249 852 L258 840 L264 828 L267 816 L265 819 L263 827 L252 846 L236 861 L222 868 L216 869 L212 871 L211 873 L191 870 L190 869 L191 868 L208 867 L218 863 L230 855 L245 839 L251 830 L258 816 L264 798 L267 780 L268 779 L268 774 L269 773 L270 754 L271 753 L273 703 L274 702 L276 673 L277 672 L277 666 Z M280 652 L281 653 L281 658 L280 659 L279 658 L279 653 Z M281 645 L282 646 L281 649 L280 648 Z M288 640 L290 658 L297 677 L305 688 L312 695 L319 700 L325 703 L340 707 L360 707 L361 706 L375 705 L376 704 L403 704 L423 709 L435 715 L447 724 L460 738 L462 744 L461 745 L456 741 L450 733 L435 722 L423 716 L412 713 L412 714 L418 715 L434 723 L443 729 L466 751 L470 760 L473 772 L473 779 L472 780 L471 789 L464 801 L456 809 L448 814 L445 814 L437 819 L432 820 L429 822 L421 824 L402 824 L401 823 L393 822 L383 818 L384 817 L388 818 L408 817 L422 813 L422 812 L410 815 L405 815 L404 816 L385 816 L369 811 L355 803 L340 788 L331 773 L323 752 L319 746 L312 740 L322 754 L332 779 L339 789 L354 804 L370 815 L385 820 L388 822 L400 825 L405 825 L406 826 L417 826 L437 821 L457 810 L465 802 L473 788 L474 769 L470 757 L464 745 L465 744 L471 750 L476 753 L477 751 L471 748 L462 737 L444 719 L427 709 L408 703 L402 703 L401 702 L378 702 L377 703 L370 703 L362 705 L338 705 L327 702 L319 698 L307 688 L299 677 L292 660 L289 639 Z M802 635 L804 643 L805 668 L806 669 L806 746 L807 747 L808 769 L809 770 L809 777 L812 789 L812 794 L820 822 L825 833 L834 847 L850 863 L859 869 L861 869 L866 872 L876 875 L889 875 L890 876 L889 877 L873 879 L872 878 L863 877 L849 871 L839 864 L823 847 L814 828 L818 841 L820 843 L823 850 L832 860 L846 871 L856 876 L866 879 L865 880 L852 879 L838 873 L820 855 L808 831 L800 802 L798 780 L797 779 L797 741 L798 740 L798 731 L799 730 L800 707 L801 706 L801 690 L802 689 L802 647 L801 646 L801 636 Z M801 628 L802 629 L802 635 L801 636 L800 635 L800 629 Z M800 623 L801 624 L800 628 L799 627 Z M798 620 L799 619 L800 620 L799 621 Z M256 613 L252 616 L248 626 L248 631 L251 621 Z M830 611 L833 617 L834 625 L835 626 L834 639 L836 635 L836 620 L833 613 Z M290 611 L291 610 L292 611 L291 612 Z M640 600 L630 607 L617 620 L606 635 L593 660 L587 677 L583 694 L583 699 L582 700 L581 727 L583 735 L583 705 L584 704 L586 688 L592 667 L604 641 L614 626 Z M438 594 L458 613 L468 625 L479 642 L487 658 L493 674 L497 690 L497 695 L498 696 L498 702 L499 703 L499 730 L498 733 L499 733 L500 731 L500 724 L501 723 L500 698 L499 697 L499 692 L495 675 L489 659 L480 641 L468 623 L445 599 Z M784 578 L785 577 L786 578 L785 579 Z M783 576 L784 575 L785 576 L784 577 Z M782 574 L783 573 L784 574 L783 575 Z M759 581 L770 593 L774 601 L778 617 L778 637 L777 638 L777 643 L773 655 L766 667 L755 678 L739 686 L731 688 L725 688 L724 689 L688 689 L687 690 L680 690 L662 695 L649 701 L636 710 L622 724 L609 741 L598 752 L594 743 L593 731 L592 730 L592 714 L593 713 L593 704 L594 703 L595 692 L605 660 L615 640 L630 619 L634 615 L635 616 L647 604 L664 590 L670 588 L677 583 L696 576 L711 574 L712 573 L735 573 L736 574 L746 575 Z M319 586 L325 581 L333 577 L343 574 L348 574 L349 573 L372 573 L373 574 L378 574 L390 577 L393 579 L398 580 L411 587 L433 603 L451 621 L465 638 L476 659 L479 669 L481 672 L485 685 L487 700 L488 701 L488 708 L489 709 L489 734 L488 735 L488 741 L486 749 L485 750 L478 743 L464 724 L450 710 L430 697 L416 692 L408 691 L407 690 L400 690 L399 689 L353 689 L352 688 L348 688 L330 681 L320 673 L313 664 L308 654 L304 637 L304 625 L305 624 L305 618 L306 617 L307 609 L311 598 Z M781 572 L782 571 L783 572 L782 573 Z M780 570 L781 569 L782 570 L781 571 Z M779 568 L780 567 L781 569 L780 570 Z M778 567 L779 566 L780 567 L779 568 Z M570 567 L566 576 L565 584 L564 585 L564 591 L563 592 L563 617 L568 638 L572 646 L575 648 L568 633 L566 620 L565 619 L565 609 L564 608 L565 588 Z M512 567 L514 581 L515 582 L515 588 L516 589 L516 617 L515 618 L515 624 L510 641 L507 646 L510 644 L514 635 L514 631 L517 622 L517 612 L518 611 L517 585 L516 584 L516 579 L514 571 Z M777 565 L778 564 L779 565 L778 566 Z M776 564 L777 563 L778 564 L777 565 Z M775 562 L776 561 L777 563 L776 564 Z M774 561 L775 560 L776 561 L775 562 Z M773 560 L774 559 L775 560 L774 561 Z M772 559 L773 558 L774 559 L773 560 Z M277 556 L270 562 L267 567 L265 574 L265 583 L268 569 L273 560 Z M810 553 L818 563 L821 571 L821 577 L822 578 L821 588 L823 584 L822 569 L818 560 Z M596 552 L592 555 L586 566 L579 589 L578 613 L579 614 L579 620 L581 624 L581 627 L584 632 L584 629 L580 617 L580 595 L581 594 L581 588 L587 568 L594 554 Z M487 552 L496 569 L501 589 L502 607 L501 608 L500 622 L497 630 L500 626 L503 614 L503 590 L502 589 L502 584 L496 565 L490 554 Z M721 543 L733 546 L744 551 L767 569 L768 572 L777 581 L785 598 L788 602 L784 595 L784 592 L774 575 L767 567 L746 551 L733 545 L730 545 L726 543 Z M366 543 L362 543 L350 547 L338 553 L328 560 L323 565 L320 565 L309 577 L302 590 L307 583 L309 578 L319 568 L326 564 L331 559 L348 549 Z M700 542 L685 544 L669 549 L653 557 L644 563 L622 583 L611 597 L601 614 L613 596 L624 583 L645 564 L669 550 L683 545 Z M388 542 L395 543 L412 549 L426 556 L444 569 L465 590 L476 604 L469 593 L457 579 L436 561 L425 554 L410 547 L397 543 Z M779 505 L784 508 L793 518 L795 524 L795 534 L797 533 L797 526 L794 517 L785 507 Z M311 502 L306 503 L297 511 L293 523 L294 529 L295 520 L297 514 L305 505 Z M771 497 L772 496 L773 497 L772 498 Z M297 591 L306 574 L320 555 L332 542 L353 525 L373 513 L388 506 L393 505 L407 499 L410 499 L420 495 L431 493 L435 491 L440 491 L445 489 L466 486 L467 485 L479 484 L480 483 L512 481 L513 480 L530 480 L531 479 L588 480 L589 481 L601 481 L602 482 L611 482 L612 483 L625 484 L626 485 L637 486 L657 491 L661 491 L693 501 L708 508 L710 508 L727 517 L745 529 L765 548 L769 555 L767 556 L756 544 L732 526 L709 514 L694 508 L675 502 L659 498 L640 495 L639 494 L633 494 L632 493 L619 492 L618 491 L610 491 L609 490 L584 489 L583 488 L518 488 L517 489 L501 489 L500 490 L472 492 L471 493 L458 494 L457 495 L452 495 L451 496 L431 499 L415 503 L408 506 L405 506 L381 515 L353 530 L342 538 L333 547 L346 536 L363 525 L389 513 L410 506 L434 500 L454 497 L455 496 L476 494 L477 493 L485 493 L486 492 L510 491 L511 490 L563 489 L564 490 L589 490 L590 491 L602 491 L603 492 L628 494 L629 495 L656 499 L680 505 L708 515 L728 525 L752 542 L773 562 L781 574 L788 588 L796 614 L796 619 L798 626 L799 649 L800 650 L800 680 L799 681 L798 716 L797 717 L797 725 L796 726 L796 734 L794 741 L794 748 L791 759 L789 775 L780 812 L778 815 L773 811 L766 808 L757 808 L756 809 L753 808 L759 802 L772 783 L780 766 L785 751 L789 734 L789 727 L790 726 L790 708 L788 700 L788 704 L789 705 L789 723 L788 724 L788 732 L786 737 L786 742 L778 768 L771 782 L760 798 L746 813 L730 824 L710 832 L702 834 L696 834 L695 835 L687 835 L686 836 L676 836 L675 835 L673 836 L672 835 L666 835 L665 834 L660 834 L648 831 L630 823 L624 819 L606 800 L604 796 L605 794 L605 787 L604 786 L603 777 L601 774 L602 772 L601 773 L594 764 L588 761 L592 759 L597 754 L604 755 L612 752 L626 739 L627 741 L620 748 L610 765 L608 771 L609 787 L614 798 L626 811 L642 820 L654 824 L658 824 L664 826 L682 826 L699 822 L725 810 L737 802 L743 796 L753 782 L761 765 L764 754 L769 744 L774 737 L780 725 L779 724 L774 727 L767 729 L755 729 L754 728 L746 727 L731 721 L713 716 L706 716 L705 715 L696 715 L695 716 L693 715 L673 720 L659 727 L657 729 L655 729 L642 741 L631 761 L628 771 L629 771 L631 765 L642 745 L655 732 L662 727 L680 719 L689 718 L690 717 L712 717 L724 721 L727 721 L730 723 L752 730 L768 730 L769 729 L772 730 L762 735 L751 735 L741 732 L716 721 L712 720 L693 720 L675 725 L665 730 L658 735 L650 743 L642 755 L636 767 L632 780 L631 790 L633 790 L639 795 L634 789 L636 787 L638 787 L653 799 L662 804 L673 808 L681 809 L682 810 L703 810 L719 805 L734 796 L741 789 L747 780 L750 772 L750 768 L747 774 L746 773 L747 770 L747 754 L746 753 L746 749 L742 740 L736 733 L739 732 L749 736 L762 736 L763 737 L758 741 L755 747 L764 737 L773 731 L775 732 L774 736 L763 752 L761 760 L753 780 L742 795 L732 804 L717 812 L701 816 L681 816 L661 811 L661 812 L677 817 L701 818 L702 819 L701 820 L693 821 L684 824 L670 825 L669 824 L662 824 L649 821 L633 814 L627 810 L615 797 L610 785 L610 770 L618 753 L626 744 L630 737 L643 725 L641 724 L648 718 L660 711 L679 705 L685 705 L686 704 L711 704 L712 705 L720 705 L721 706 L740 707 L741 706 L751 705 L767 697 L776 689 L788 671 L794 651 L794 633 L792 653 L787 669 L778 684 L768 694 L761 699 L751 703 L742 704 L741 705 L729 705 L728 704 L719 704 L718 703 L710 703 L709 702 L688 702 L687 703 L680 703 L672 705 L656 711 L642 720 L611 751 L604 753 L600 752 L606 747 L625 723 L636 712 L650 702 L669 694 L683 692 L684 691 L694 691 L695 690 L718 691 L719 690 L728 690 L729 689 L737 688 L753 681 L766 669 L773 658 L778 644 L779 633 L780 632 L779 614 L778 613 L777 605 L769 589 L761 581 L753 576 L744 573 L733 572 L732 571 L715 571 L714 572 L707 572 L706 573 L693 575 L672 583 L659 590 L642 603 L634 611 L622 626 L611 643 L602 662 L597 676 L597 679 L594 687 L592 703 L591 704 L591 710 L590 711 L590 731 L591 732 L591 738 L595 753 L592 757 L587 759 L575 759 L545 751 L533 751 L532 752 L527 752 L505 759 L495 759 L488 752 L489 741 L491 736 L491 708 L490 707 L490 700 L489 699 L489 694 L487 689 L486 681 L481 666 L474 650 L460 627 L449 613 L437 601 L419 588 L397 577 L394 577 L383 573 L370 572 L369 571 L345 572 L334 575 L320 583 L314 590 L308 602 L303 620 L303 641 L304 642 L304 646 L307 655 L314 668 L329 682 L346 689 L355 690 L356 691 L385 691 L386 690 L403 691 L404 692 L414 693 L433 700 L448 710 L463 725 L480 748 L484 751 L480 752 L480 754 L483 754 L486 752 L489 757 L494 761 L489 764 L481 773 L480 772 L479 764 L477 759 L475 758 L479 770 L479 781 L477 788 L478 798 L466 812 L451 823 L437 830 L417 835 L402 835 L401 834 L387 833 L363 825 L354 820 L336 807 L322 792 L309 774 L302 760 L301 755 L298 749 L293 729 L292 712 L291 711 L293 693 L290 703 L290 717 L291 718 L291 725 L292 726 L295 744 L301 761 L316 789 L322 796 L323 795 L329 801 L327 802 L320 799 L311 799 L300 805 L299 804 L297 794 L288 766 L288 762 L285 751 L284 738 L283 737 L283 730 L282 729 L282 719 L281 718 L282 658 L283 657 L285 635 L286 634 L290 613 L291 612 L292 613 L293 609 L303 594 L314 587 L301 594 L292 611 L291 607 Z M352 461 L343 462 L337 465 L334 468 L330 477 L331 486 L332 476 L336 468 L344 463 L349 463 L350 462 L353 463 Z M737 461 L737 462 L749 462 L756 465 L761 470 L764 478 L763 490 L765 487 L765 475 L763 470 L757 464 L751 461 L747 460 Z M156 744 L157 743 L157 738 L160 726 L164 715 L173 700 L183 690 L189 687 L193 687 L194 686 L203 687 L213 692 L222 701 L223 701 L222 699 L213 690 L205 686 L206 685 L216 686 L228 692 L236 700 L239 705 L243 721 L244 735 L245 736 L244 758 L238 781 L234 790 L225 804 L217 812 L211 815 L202 816 L201 817 L200 816 L195 816 L188 813 L181 805 L186 813 L196 818 L207 818 L213 816 L220 812 L225 807 L227 802 L235 791 L240 781 L244 769 L245 759 L246 758 L247 740 L246 739 L245 721 L240 700 L241 696 L245 703 L246 703 L240 689 L240 675 L243 664 L249 653 L244 645 L242 633 L245 620 L249 613 L259 603 L264 601 L259 589 L259 584 L258 583 L259 572 L264 560 L273 550 L282 545 L290 543 L286 531 L286 519 L288 512 L293 503 L300 497 L309 493 L318 493 L326 496 L322 486 L321 478 L324 466 L327 461 L332 456 L338 453 L342 453 L343 452 L350 452 L358 454 L366 458 L371 463 L371 465 L376 473 L389 483 L374 490 L372 490 L352 501 L337 511 L320 525 L313 532 L296 553 L287 567 L278 585 L267 616 L262 637 L260 654 L259 655 L257 677 L256 678 L256 688 L255 689 L254 733 L253 734 L253 749 L252 750 L251 763 L253 758 L254 744 L255 743 L256 703 L257 702 L257 687 L258 686 L259 668 L260 667 L260 661 L261 660 L261 654 L262 653 L265 632 L269 616 L272 609 L272 606 L280 585 L294 559 L309 539 L327 521 L347 506 L376 490 L410 477 L441 469 L461 466 L462 465 L467 465 L468 464 L489 462 L490 461 L500 461 L501 460 L511 460 L512 459 L529 459 L530 458 L570 458 L571 459 L589 459 L590 460 L611 461 L612 462 L619 462 L620 463 L639 465 L659 470 L663 470 L699 481 L714 488 L716 488 L732 496 L752 509 L762 517 L781 536 L793 552 L804 572 L813 597 L817 613 L819 630 L820 631 L820 639 L821 640 L822 670 L823 671 L823 742 L824 743 L826 765 L834 792 L843 808 L851 816 L864 823 L883 824 L888 822 L898 812 L905 784 L904 761 L899 745 L895 737 L888 729 L881 725 L882 724 L887 724 L891 726 L898 733 L897 730 L888 723 L877 724 L877 726 L879 725 L884 728 L894 739 L902 761 L902 767 L903 768 L902 789 L898 800 L892 806 L888 808 L880 808 L872 803 L865 795 L859 783 L856 774 L856 770 L854 764 L854 757 L853 756 L853 741 L854 740 L855 728 L859 716 L864 706 L874 695 L882 691 L893 692 L897 694 L906 704 L911 714 L916 731 L919 751 L920 752 L921 765 L922 766 L922 775 L923 776 L923 800 L924 801 L923 803 L923 826 L922 827 L921 841 L916 857 L913 862 L907 868 L897 873 L880 874 L865 870 L851 862 L837 848 L826 831 L826 829 L822 822 L815 799 L815 795 L811 779 L810 768 L808 765 L809 764 L809 759 L807 754 L808 753 L808 731 L807 730 L807 660 L806 659 L805 638 L804 637 L804 631 L803 630 L803 626 L802 625 L798 604 L789 580 L782 567 L771 552 L751 532 L738 522 L725 514 L698 501 L671 492 L651 487 L637 485 L636 484 L617 482 L616 481 L609 481 L608 480 L585 479 L584 478 L563 478 L562 477 L515 478 L514 479 L503 479 L502 480 L492 480 L491 481 L468 483 L467 484 L462 484 L461 485 L441 488 L417 494 L377 509 L359 519 L336 536 L320 552 L310 565 L301 579 L289 605 L282 628 L282 632 L278 648 L278 653 L277 654 L276 667 L275 668 L273 696 L272 697 L272 707 L271 708 L270 746 L269 747 L268 768 L267 769 L266 781 L261 799 L261 803 L255 818 L246 835 L240 843 L229 854 L220 860 L205 866 L199 866 L198 867 L182 865 L171 859 L162 849 L158 840 L156 832 L155 820 L154 819 L154 806 L153 805 L153 775 L154 774 L154 760 L155 759 Z M696 441 L705 444 L710 448 L712 452 L712 459 L711 460 L712 461 L714 454 L711 447 L704 442 Z M398 440 L397 439 L388 440 L383 442 L381 445 L389 441 Z M681 441 L698 436 L705 436 L706 437 L711 437 L715 439 L719 443 L721 450 L721 456 L719 463 L715 470 L705 480 L710 477 L717 470 L722 461 L733 454 L744 451 L752 451 L761 454 L770 462 L773 467 L775 475 L774 487 L772 493 L768 499 L769 500 L770 499 L782 499 L790 503 L798 511 L801 517 L802 525 L803 526 L802 537 L800 543 L808 545 L814 548 L825 560 L829 573 L829 581 L828 582 L828 587 L823 599 L834 607 L837 611 L841 621 L841 629 L842 630 L841 637 L836 648 L833 651 L840 667 L841 685 L838 696 L831 710 L832 711 L837 700 L839 698 L840 699 L840 712 L839 713 L838 726 L836 734 L836 749 L837 750 L837 761 L838 762 L838 767 L841 780 L846 793 L853 804 L858 808 L868 811 L867 809 L861 808 L853 801 L846 788 L840 766 L838 737 L840 729 L841 714 L845 704 L850 697 L856 692 L864 689 L878 688 L880 690 L872 694 L867 699 L862 706 L856 719 L852 736 L852 761 L853 762 L853 768 L856 780 L863 795 L873 806 L878 809 L877 810 L870 810 L870 811 L877 812 L883 810 L888 810 L894 807 L898 803 L900 805 L896 813 L890 819 L884 822 L874 823 L873 822 L867 822 L857 818 L846 809 L841 802 L835 790 L828 765 L827 754 L826 753 L826 744 L825 743 L825 678 L824 677 L824 652 L823 651 L823 641 L822 640 L821 625 L820 624 L820 619 L816 604 L816 600 L810 582 L801 562 L788 542 L778 530 L761 514 L742 500 L720 488 L718 488 L701 480 L677 472 L662 469 L658 467 L669 456 L673 447 Z M371 442 L376 437 L382 435 L393 434 L401 436 L409 440 L416 446 L421 457 L433 469 L410 476 L407 476 L389 483 L387 480 L379 474 L372 464 L369 452 Z M629 431 L630 430 L631 431 L630 432 Z M445 421 L446 420 L447 421 L446 422 Z M675 426 L674 441 L668 454 L657 467 L644 465 L643 464 L638 464 L637 463 L632 463 L631 462 L626 462 L625 461 L618 461 L616 459 L624 449 L630 433 L639 425 L647 421 L653 421 L652 419 L653 418 L657 418 L658 417 L671 417 Z M513 432 L510 445 L510 452 L513 457 L512 458 L475 461 L469 463 L463 463 L462 464 L433 469 L424 458 L418 447 L416 440 L415 429 L419 418 L420 419 L430 418 L447 424 L461 436 L463 445 L467 453 L473 460 L473 458 L465 446 L461 431 L462 419 L465 412 L469 407 L472 406 L483 407 L495 412 L508 424 Z M626 414 L628 422 L628 433 L625 443 L621 451 L615 458 L616 459 L615 460 L599 459 L598 458 L585 458 L584 457 L562 457 L561 456 L517 457 L516 458 L513 457 L512 454 L512 444 L513 443 L514 435 L518 426 L532 410 L538 408 L540 406 L546 406 L547 408 L549 408 L554 411 L568 425 L575 441 L575 446 L576 447 L576 454 L575 455 L577 455 L577 442 L574 432 L580 421 L587 414 L599 406 L613 402 L618 402 L621 405 Z M310 396 L309 396 L306 410 L297 434 L282 461 L267 480 L246 500 L244 504 L269 480 L290 451 L302 426 L307 411 Z M802 390 L800 390 L798 395 L799 392 Z M426 385 L427 384 L428 385 L427 386 Z M446 420 L443 421 L440 419 L429 416 L418 417 L416 419 L413 430 L414 439 L415 440 L414 443 L407 437 L398 433 L393 433 L392 432 L382 433 L373 437 L370 434 L372 427 L376 421 L381 417 L383 417 L388 425 L389 425 L383 413 L383 408 L382 407 L383 406 L384 397 L391 387 L395 384 L405 380 L416 381 L424 385 L429 390 L430 396 L436 408 Z M488 318 L489 317 L490 318 L489 319 Z M594 309 L595 308 L596 309 L595 310 Z M491 307 L492 306 L493 307 L492 308 Z M539 296 L555 298 L572 307 L583 320 L587 329 L588 338 L589 339 L587 356 L582 367 L570 380 L561 385 L551 388 L533 388 L525 386 L515 381 L504 371 L500 365 L495 348 L495 340 L496 339 L497 330 L501 320 L507 312 L518 303 L526 299 Z M542 294 L541 295 L534 295 L524 298 L512 305 L503 314 L499 320 L494 333 L494 339 L493 340 L494 354 L497 363 L502 371 L511 380 L517 384 L526 388 L534 389 L535 390 L554 389 L568 383 L576 377 L582 370 L588 359 L590 352 L590 346 L591 345 L591 339 L588 326 L578 310 L571 304 L560 298 L550 295 L543 295 Z M532 285 L543 284 L544 285 L552 285 L553 286 L561 287 L577 298 L585 302 L594 312 L599 320 L604 334 L605 344 L604 345 L603 360 L601 366 L593 380 L586 388 L575 396 L567 400 L552 404 L533 404 L532 403 L527 403 L515 399 L508 395 L499 388 L492 380 L486 370 L482 358 L482 353 L481 352 L482 334 L485 324 L488 319 L489 320 L488 326 L490 324 L489 316 L493 310 L504 299 L512 295 L521 288 Z M553 283 L554 282 L556 283 L555 284 Z M554 282 L553 283 L541 282 L540 283 L532 283 L531 284 L528 283 L542 272 Z M889 575 L890 594 L891 595 L891 628 L890 629 L890 646 L889 647 L890 667 L887 670 L883 671 L882 670 L882 640 L883 639 L884 607 L883 606 L882 581 L881 580 L881 574 L878 561 L868 538 L854 518 L830 489 L816 466 L816 464 L809 450 L802 429 L799 413 L797 408 L797 404 L796 401 L795 401 L800 427 L811 459 L818 473 L828 489 L853 519 L868 541 L876 560 L879 572 L879 577 L880 578 L881 596 L882 597 L882 628 L881 629 L880 659 L881 660 L881 670 L882 671 L881 672 L871 673 L860 678 L850 685 L845 692 L842 694 L841 693 L843 687 L843 671 L839 658 L835 652 L841 643 L843 637 L844 626 L843 625 L842 617 L836 606 L825 598 L828 593 L831 582 L831 572 L829 564 L824 555 L817 548 L810 544 L802 542 L804 536 L805 527 L804 526 L804 520 L799 509 L792 502 L785 498 L773 497 L772 496 L775 490 L777 477 L774 465 L771 460 L765 454 L752 449 L744 449 L733 452 L723 459 L722 458 L723 449 L720 441 L717 438 L719 433 L718 427 L716 423 L708 415 L697 411 L699 408 L699 393 L695 384 L689 378 L680 374 L670 374 L660 378 L654 384 L653 383 L654 374 L653 373 L652 363 L646 352 L640 346 L631 341 L627 340 L617 340 L611 342 L622 341 L635 345 L645 354 L651 367 L652 380 L651 381 L650 390 L646 401 L644 403 L641 410 L634 418 L633 421 L644 408 L650 396 L652 388 L657 382 L663 378 L669 376 L680 376 L687 379 L693 385 L697 394 L697 408 L692 421 L698 413 L702 413 L705 415 L713 423 L716 429 L716 436 L715 437 L705 434 L697 434 L696 435 L688 436 L676 443 L675 442 L677 436 L676 422 L673 416 L669 416 L668 415 L658 415 L646 419 L640 422 L631 431 L630 430 L629 417 L623 405 L619 401 L608 401 L595 406 L585 413 L580 418 L573 430 L569 423 L559 413 L549 407 L552 405 L556 405 L567 402 L580 395 L594 382 L602 369 L606 356 L606 348 L607 347 L606 345 L607 343 L606 342 L606 334 L604 326 L599 316 L595 311 L596 309 L618 319 L639 325 L651 326 L652 327 L679 327 L680 326 L689 340 L705 357 L731 376 L761 391 L781 397 L787 397 L788 398 L793 398 L794 397 L779 395 L765 391 L748 383 L746 383 L730 374 L712 361 L696 346 L688 336 L682 325 L652 325 L651 324 L635 322 L618 317 L590 304 L581 296 L561 285 L542 270 L520 287 L506 294 L495 303 L474 313 L469 314 L463 317 L443 322 L436 322 L435 323 L409 323 L404 332 L392 348 L379 361 L368 370 L356 378 L338 387 L321 392 L311 393 L315 394 L323 393 L337 389 L352 382 L365 374 L380 362 L393 349 L402 338 L410 324 L412 325 L435 325 L436 324 L452 322 L469 317 L491 307 L492 308 L488 313 L483 323 L479 338 L479 354 L483 368 L492 383 L505 395 L520 403 L523 403 L527 405 L533 405 L537 407 L522 417 L518 422 L514 430 L511 427 L508 421 L501 414 L494 409 L484 405 L472 404 L467 406 L462 414 L460 421 L460 432 L459 433 L449 423 L448 420 L437 406 L431 393 L429 385 L429 374 L432 363 L435 357 L445 347 L458 342 L467 342 L477 345 L477 344 L474 344 L467 341 L454 341 L443 346 L436 352 L433 356 L428 368 L427 384 L426 385 L418 380 L411 378 L401 379 L394 382 L387 388 L382 397 L381 406 L380 407 L381 408 L381 412 L383 415 L378 417 L372 423 L369 429 L368 433 L369 442 L367 450 L368 451 L368 457 L367 458 L360 453 L350 450 L343 450 L333 453 L327 458 L321 468 L319 476 L319 481 L321 489 L323 492 L321 493 L316 491 L310 491 L309 492 L305 492 L299 495 L293 500 L286 511 L284 519 L284 531 L288 541 L286 543 L280 544 L271 549 L263 558 L259 566 L256 577 L257 589 L262 600 L256 603 L248 611 L241 626 L241 631 L240 632 L241 642 L244 650 L247 654 L245 656 L239 670 L239 674 L238 675 L238 689 L239 693 L238 694 L227 682 L218 676 L207 672 L197 671 L196 670 L196 657 L201 639 L216 609 L217 604 L220 598 L224 581 L224 576 L225 575 L225 566 L226 565 L226 555 L227 554 L228 541 L234 522 L242 508 L242 506 L241 506 L234 519 L228 536 L226 549 L225 550 L223 578 L222 579 L221 588 L214 609 L200 637 L196 648 L195 660 L194 661 L195 669 L194 670 L188 670 L186 672 L184 671 L187 665 L187 654 L191 640 L206 610 L213 589 L214 579 L215 578 L215 571 L216 570 L217 543 L220 530 L225 516 L234 499 L260 474 L279 447 L287 431 L292 418 L292 415 L294 412 L299 391 L299 384 L300 383 L317 381 L330 377 L343 371 L356 363 L375 347 L384 337 L396 320 L402 309 L406 310 L429 310 L430 309 L436 309 L437 308 L442 308 L454 305 L473 298 L500 283 L530 260 L543 252 L546 253 L564 269 L580 281 L601 294 L616 301 L640 309 L656 311 L657 312 L686 312 L687 311 L692 320 L705 338 L720 353 L742 369 L757 377 L778 385 L786 386 L787 387 L793 387 L794 388 L803 388 L814 432 L825 461 L828 465 L828 467 L843 491 L858 509 L873 530 L883 551 Z M902 581 L903 611 L904 612 L904 617 L903 618 L903 638 L902 639 L902 650 L901 651 L900 668 L899 671 L896 673 L891 668 L891 641 L892 640 L892 625 L893 624 L893 597 L892 596 L891 576 L890 575 L890 570 L886 554 L880 539 L874 528 L865 515 L846 492 L832 470 L824 454 L816 432 L814 421 L810 409 L809 400 L805 387 L804 386 L793 386 L792 385 L786 385 L778 383 L759 376 L739 365 L724 354 L705 335 L696 323 L689 310 L656 310 L655 309 L649 309 L636 306 L618 300 L603 293 L586 283 L563 266 L550 254 L543 250 L527 260 L492 286 L466 299 L443 306 L438 306 L437 307 L431 307 L430 308 L404 308 L402 307 L399 310 L396 317 L380 339 L357 360 L345 368 L328 376 L314 380 L299 381 L297 387 L295 401 L290 418 L283 433 L283 435 L275 450 L264 466 L251 481 L233 497 L222 518 L215 543 L213 578 L212 579 L212 584 L209 596 L206 602 L205 607 L190 637 L186 650 L185 666 L182 671 L179 673 L177 671 L175 665 L175 650 L177 642 L182 629 L186 622 L186 620 L188 618 L195 603 L202 581 L203 569 L204 568 L205 538 L206 537 L208 524 L213 509 L222 491 L250 464 L267 440 L273 428 L281 407 L289 371 L292 368 L309 366 L325 361 L347 349 L367 332 L382 313 L390 299 L395 294 L398 293 L428 293 L429 292 L435 292 L463 284 L488 271 L508 257 L517 249 L529 241 L540 236 L549 236 L553 238 L589 267 L607 278 L625 286 L649 293 L654 293 L655 294 L661 294 L662 295 L691 295 L696 297 L700 301 L703 307 L714 322 L732 340 L750 353 L767 362 L784 368 L792 369 L793 370 L799 370 L800 371 L808 371 L812 373 L815 378 L823 415 L825 419 L826 426 L835 451 L846 472 L866 500 L874 509 L887 529 L897 554 L900 567 L901 580 Z M553 235 L554 234 L555 235 L554 236 Z M296 227 L304 207 L308 201 L318 191 L330 183 L341 178 L345 175 L347 175 L354 171 L374 164 L377 162 L425 150 L443 148 L450 146 L472 144 L473 143 L493 142 L494 141 L509 141 L510 140 L530 140 L531 139 L560 139 L561 140 L563 139 L564 140 L582 140 L583 141 L596 141 L597 142 L616 143 L617 144 L632 145 L633 146 L639 146 L640 147 L664 150 L714 162 L754 177 L781 192 L798 207 L805 217 L810 228 L813 241 L813 249 L811 255 L802 265 L787 288 L771 322 L766 337 L764 340 L760 354 L758 355 L736 340 L736 336 L738 332 L743 312 L745 309 L747 301 L758 276 L758 274 L769 252 L791 216 L788 219 L771 246 L755 277 L755 279 L746 299 L743 310 L741 313 L735 337 L733 338 L716 321 L702 302 L701 299 L697 295 L693 293 L665 293 L664 292 L656 292 L650 290 L645 290 L631 286 L616 280 L599 271 L583 260 L555 236 L555 209 L556 208 L555 154 L555 233 L553 235 L546 233 L536 235 L519 245 L503 258 L477 275 L462 282 L434 290 L419 291 L417 288 L415 275 L413 271 L407 246 L398 220 L396 217 L396 214 L382 182 L391 203 L400 231 L403 237 L403 240 L409 257 L417 290 L416 291 L397 291 L394 292 L389 297 L376 318 L364 331 L354 298 L342 268 L325 234 L313 215 L327 242 L329 244 L330 248 L346 281 L354 305 L356 308 L356 311 L363 332 L354 341 L341 350 L323 305 L308 276 L293 254 L293 243 L294 242 L294 236 L295 235 Z M436 146 L435 147 L424 148 L423 149 L419 149 L393 155 L366 164 L349 172 L347 172 L317 189 L306 200 L299 212 L295 223 L292 240 L291 241 L291 254 L292 257 L302 270 L308 280 L323 310 L339 351 L337 353 L323 360 L310 364 L293 366 L287 370 L280 403 L274 420 L266 437 L249 462 L236 476 L220 490 L211 508 L203 536 L202 563 L201 564 L201 573 L200 574 L198 588 L193 602 L185 617 L185 619 L176 638 L172 655 L173 667 L176 674 L179 677 L185 680 L203 681 L204 682 L203 683 L193 683 L182 688 L169 702 L161 717 L155 739 L154 751 L153 752 L153 761 L152 762 L152 776 L151 777 L151 801 L152 802 L152 818 L153 819 L154 832 L155 833 L156 841 L159 846 L159 848 L163 854 L174 864 L191 872 L204 875 L219 875 L220 876 L218 881 L218 885 L217 886 L217 890 L211 916 L210 927 L207 938 L206 949 L205 950 L202 979 L201 980 L201 987 L200 988 L200 996 L199 997 L199 1005 L198 1006 L198 1015 L197 1016 L197 1041 L198 1042 L199 1050 L202 1057 L207 1061 L261 1078 L271 1113 L278 1127 L287 1141 L300 1156 L332 1185 L374 1228 L397 1245 L422 1258 L444 1266 L461 1270 L466 1270 L467 1271 L496 1271 L538 1261 L562 1262 L588 1270 L593 1270 L594 1271 L616 1271 L617 1270 L629 1269 L658 1260 L678 1250 L692 1241 L705 1231 L728 1208 L735 1199 L754 1182 L777 1159 L788 1144 L798 1125 L805 1106 L805 1103 L811 1084 L838 1078 L860 1071 L867 1067 L871 1061 L873 1053 L874 1034 L875 1033 L875 981 L874 980 L874 966 L873 965 L871 934 L870 933 L868 911 L867 910 L866 897 L865 896 L864 884 L863 883 L864 882 L873 882 L874 881 L885 880 L897 876 L908 870 L914 864 L919 856 L923 842 L924 827 L925 826 L925 805 L926 801 L925 800 L924 766 L923 765 L923 758 L922 757 L922 751 L921 750 L919 735 L913 713 L905 699 L895 690 L886 687 L869 686 L868 685 L877 682 L892 680 L899 676 L902 669 L903 656 L904 655 L904 643 L905 642 L905 628 L906 627 L905 589 L904 588 L904 579 L903 578 L902 566 L899 553 L890 530 L881 515 L856 483 L846 468 L836 448 L826 418 L822 402 L822 398 L820 393 L819 384 L815 373 L811 370 L807 369 L792 368 L780 364 L777 364 L765 358 L763 358 L761 356 L771 327 L782 304 L782 302 L784 300 L784 298 L786 296 L794 280 L813 256 L815 250 L815 239 L814 238 L813 230 L809 220 L800 206 L792 198 L772 184 L754 175 L752 175 L745 171 L735 168 L732 166 L707 158 L704 158 L700 156 L680 151 L665 149 L659 147 L654 147 L653 146 L648 146 L647 145 L619 142 L618 141 L610 141 L609 140 L586 139 L585 138 L528 137 L527 138 L491 139 L490 140 L481 140 L480 141 L472 141 L471 142 L464 142 L463 143 L456 143 L455 144 L449 144 L442 146 Z" fill="#eef3f4" fill-rule="evenodd"/>
</svg>
