<svg xmlns="http://www.w3.org/2000/svg" width="1086" height="1448" viewBox="0 0 1086 1448">
  <title>0455</title>
  <path d="M616 1246 L613 1246 L609 1248 Z M637 1233 L631 1238 L618 1245 L627 1241 Z M655 1210 L637 1223 L618 1233 L590 1243 L578 1246 L568 1247 L580 1246 L597 1242 L619 1234 L639 1223 L649 1216 Z M412 1207 L414 1210 L430 1221 L456 1233 L476 1238 L487 1239 L488 1240 L505 1240 L506 1241 L523 1240 L491 1239 L490 1238 L484 1238 L483 1237 L478 1237 L477 1236 L464 1234 L449 1229 L436 1223 L424 1216 Z M313 1109 L320 1123 L336 1148 L356 1173 L382 1199 L408 1219 L407 1217 L393 1207 L374 1190 L356 1171 L328 1134 Z M304 1091 L304 1093 L309 1102 Z M772 1087 L760 1107 L744 1128 L706 1172 L672 1215 L653 1234 L675 1213 L701 1180 L740 1135 L759 1110 Z M647 1078 L640 1085 L623 1098 L596 1111 L569 1118 L547 1120 L546 1121 L536 1121 L564 1120 L565 1119 L580 1117 L597 1112 L615 1104 L628 1096 L638 1088 Z M409 1075 L414 1082 L427 1095 L440 1104 L454 1111 L480 1119 L494 1120 L495 1121 L507 1121 L492 1120 L491 1119 L476 1117 L448 1107 L429 1095 Z M226 1039 L227 1038 L228 1039 L227 1040 Z M827 1031 L828 1030 L830 1032 L829 1033 L830 1032 L832 1033 L830 1035 L828 1035 Z M830 1030 L831 1029 L832 1030 L831 1031 Z M829 1029 L830 1028 L831 1029 L830 1030 Z M254 1029 L255 1028 L256 1030 L255 1031 Z M828 1027 L829 1026 L830 1027 L829 1028 Z M826 1021 L829 1026 L828 1027 L825 1024 Z M265 998 L268 1017 L276 1047 L286 1070 L293 1080 L289 1074 L289 1072 L283 1061 L277 1046 L277 1043 L274 1036 L269 1016 L266 998 Z M631 988 L632 987 L633 988 L632 989 Z M420 986 L421 985 L422 986 L421 987 Z M428 985 L431 984 L437 987 L473 998 L489 1000 L490 1001 L497 1001 L498 1002 L509 1002 L510 1003 L538 1003 L539 1002 L558 1001 L559 1000 L565 1000 L566 999 L572 999 L573 998 L588 996 L622 987 L626 987 L627 988 L627 996 L626 999 L613 1012 L601 1020 L587 1027 L572 1032 L555 1035 L554 1036 L535 1037 L534 1038 L520 1038 L519 1037 L500 1036 L499 1035 L494 1035 L481 1032 L458 1022 L443 1011 L433 1000 L428 990 Z M424 985 L425 984 L426 985 L425 986 Z M423 984 L424 983 L425 984 L424 985 Z M419 984 L420 983 L421 984 L420 985 Z M635 982 L636 983 L633 987 L632 984 Z M424 983 L425 982 L426 983 L425 984 Z M625 982 L626 981 L628 982 L627 983 Z M420 981 L422 980 L425 982 L423 984 Z M419 980 L420 979 L421 980 L420 981 Z M422 978 L423 977 L425 978 L424 979 Z M655 977 L656 976 L657 977 L656 978 Z M409 976 L410 975 L411 976 L410 977 Z M625 983 L624 984 L616 985 L609 988 L583 994 L566 996 L560 998 L550 998 L549 999 L523 1001 L522 1000 L497 999 L496 998 L485 997 L479 995 L468 994 L443 987 L424 979 L425 978 L429 978 L437 980 L456 980 L482 973 L492 973 L509 980 L513 980 L514 981 L530 981 L549 973 L563 972 L595 981 L601 981 L602 982 L624 982 Z M391 973 L392 972 L394 973 L393 974 Z M388 971 L389 970 L390 971 L389 972 Z M799 950 L797 967 L796 968 L792 989 L787 1005 L779 1024 L788 1005 L795 982 L795 978 L799 962 Z M615 934 L617 941 L623 951 L636 963 L641 965 L647 970 L639 963 L636 962 L622 948 Z M622 929 L625 938 L629 944 L638 953 L647 959 L673 972 L686 984 L696 1000 L697 1005 L699 1008 L700 1019 L701 1019 L700 1009 L697 1000 L693 992 L684 980 L672 970 L640 953 L629 942 L624 933 L623 929 Z M589 928 L590 927 L593 928 L592 929 Z M498 928 L499 927 L502 928 L501 929 Z M494 927 L495 926 L499 927 L498 928 Z M265 927 L264 928 L265 929 L265 944 L266 945 L266 953 L267 954 L269 970 L277 998 L282 1007 L274 985 L271 973 L269 958 L268 957 L268 951 L267 950 Z M570 928 L569 929 L563 929 L562 928 L554 928 L553 927 L554 926 L565 926 L568 925 Z M406 969 L419 961 L428 951 L434 938 L435 921 L436 920 L444 928 L451 931 L459 932 L460 933 L470 933 L471 932 L476 932 L482 930 L491 930 L492 929 L493 930 L500 930 L509 933 L516 933 L517 934 L528 934 L529 933 L534 933 L539 931 L551 930 L552 929 L553 930 L565 930 L566 931 L584 933 L598 929 L608 920 L609 921 L608 925 L609 927 L609 936 L612 946 L616 953 L628 965 L645 974 L633 979 L620 980 L619 981 L609 981 L608 980 L594 979 L568 971 L555 970 L547 972 L535 978 L526 979 L525 980 L518 980 L517 979 L508 978 L495 972 L484 971 L462 977 L445 979 L444 978 L433 978 L432 977 L427 977 L419 975 Z M559 920 L560 919 L564 920 L563 921 Z M471 921 L474 919 L480 919 L486 921 L485 922 L472 922 Z M577 919 L571 925 L569 924 L551 925 L550 924 L555 922 L558 923 L564 921 L570 921 L576 918 Z M694 1011 L686 994 L675 983 L667 978 L656 974 L643 971 L633 966 L626 961 L619 954 L611 937 L610 923 L611 922 L611 915 L614 906 L614 894 L611 883 L605 873 L597 865 L584 858 L578 858 L576 860 L571 860 L560 864 L555 868 L550 877 L553 872 L561 865 L568 862 L575 862 L576 861 L588 863 L596 867 L604 875 L609 883 L609 886 L611 890 L612 905 L607 918 L602 924 L596 928 L592 927 L595 926 L599 922 L590 927 L586 928 L588 928 L589 929 L588 930 L576 930 L574 928 L572 928 L571 926 L578 921 L579 918 L577 916 L566 916 L554 920 L547 915 L545 911 L544 905 L543 906 L545 913 L550 920 L541 928 L531 931 L509 931 L506 930 L500 924 L498 920 L498 912 L499 911 L498 897 L497 897 L498 900 L497 915 L493 920 L488 920 L477 917 L469 917 L463 921 L463 924 L468 928 L464 923 L466 921 L468 923 L479 923 L484 926 L492 926 L493 927 L492 928 L483 928 L477 930 L460 931 L459 930 L451 929 L448 926 L444 926 L438 920 L435 915 L433 908 L433 894 L438 880 L447 870 L457 865 L469 863 L464 862 L463 863 L455 864 L444 870 L439 875 L433 886 L430 898 L431 911 L433 917 L433 933 L431 941 L426 950 L416 961 L410 965 L394 971 L390 971 L389 970 L409 960 L422 948 L426 941 L429 932 L429 928 L430 927 L431 928 L429 926 L430 922 L429 920 L428 920 L427 934 L421 947 L411 957 L405 961 L386 970 L384 970 L370 978 L358 990 L352 1004 L352 1008 L356 996 L359 991 L371 979 L386 971 L388 971 L389 973 L392 974 L381 982 L372 992 L365 1004 L360 1022 L360 1037 L364 1052 L369 1062 L375 1070 L384 1078 L373 1066 L365 1051 L362 1039 L362 1020 L367 1004 L374 992 L385 981 L403 970 L410 975 L408 976 L411 988 L413 991 L414 996 L423 1013 L430 1022 L442 1033 L454 1041 L476 1050 L493 1053 L494 1054 L512 1055 L513 1056 L537 1056 L538 1055 L539 1056 L540 1055 L557 1054 L585 1047 L604 1038 L618 1028 L632 1013 L641 998 L644 990 L645 982 L643 984 L640 996 L631 1012 L619 1025 L609 1033 L599 1039 L580 1047 L559 1052 L554 1052 L553 1053 L545 1053 L544 1054 L508 1054 L507 1053 L499 1053 L498 1052 L486 1051 L471 1046 L468 1046 L459 1042 L443 1032 L429 1018 L422 1008 L414 992 L412 984 L410 981 L410 977 L411 976 L418 986 L442 1013 L456 1023 L475 1032 L489 1036 L508 1038 L509 1039 L531 1040 L532 1039 L553 1038 L554 1037 L572 1034 L589 1028 L603 1021 L617 1011 L625 1003 L640 985 L643 978 L646 975 L648 975 L663 985 L674 999 L680 1012 L682 1020 L682 1027 L683 1028 L682 1043 L678 1057 L670 1072 L655 1089 L667 1078 L676 1065 L679 1059 L684 1042 L684 1021 L679 1004 L670 990 L661 981 L656 978 L657 977 L663 978 L675 985 L685 995 L689 1001 L694 1015 Z M477 859 L470 857 L454 858 L442 863 L436 867 L430 873 L423 886 L421 894 L421 917 L418 928 L415 934 L403 947 L397 951 L373 962 L364 968 L355 977 L350 984 L344 999 L344 1003 L347 993 L355 979 L365 969 L372 964 L398 952 L404 948 L414 938 L420 927 L422 920 L423 892 L429 877 L439 867 L453 860 L466 858 L479 861 Z M570 852 L569 854 L572 853 L586 853 L595 856 L607 863 L615 871 L620 880 L623 892 L623 901 L622 902 L621 914 L620 915 L622 927 L622 912 L624 904 L624 889 L622 881 L616 870 L606 860 L592 853 L584 851 L573 851 Z M833 843 L836 850 L837 863 L838 864 L838 941 L839 942 L838 944 L839 945 L839 960 L840 961 L840 969 L841 970 L843 989 L847 1006 L854 1024 L858 1030 L863 1035 L870 1038 L869 1039 L852 1039 L842 1036 L837 1033 L830 1024 L826 1009 L827 973 L828 972 L828 944 L829 943 L829 915 L830 914 L830 887 L831 886 L831 848 Z M245 837 L246 838 L247 932 L248 933 L250 983 L251 984 L251 994 L252 995 L254 1021 L251 1028 L246 1033 L237 1037 L228 1039 L227 1037 L232 1029 L232 1026 L234 1022 L234 1017 L236 1010 L236 1001 L237 1000 L238 946 L237 945 L237 912 L236 911 L236 859 L239 847 Z M790 836 L797 850 L801 864 L801 860 L797 847 Z M773 829 L784 841 L792 855 L797 871 L800 892 L799 874 L793 854 L786 842 Z M282 828 L274 835 L268 847 L264 859 L262 874 L263 872 L262 871 L264 868 L269 848 L275 837 Z M279 815 L280 814 L281 815 L280 816 Z M280 814 L281 813 L282 814 L281 815 Z M368 812 L369 811 L372 812 L371 813 Z M771 810 L772 809 L773 810 L772 811 Z M769 809 L770 808 L772 809 L771 810 Z M631 809 L632 808 L633 809 L632 810 Z M425 809 L427 808 L425 808 Z M759 806 L760 805 L761 806 L760 807 Z M292 806 L293 805 L295 806 L294 807 Z M430 805 L431 804 L432 805 L431 806 Z M710 804 L711 803 L715 804 L714 805 Z M432 804 L433 803 L435 804 L434 805 Z M624 803 L625 802 L632 802 L645 805 L679 805 L680 804 L688 805 L694 803 L700 803 L701 804 L697 806 L685 809 L679 809 L678 810 L647 810 L646 809 L635 808 Z M623 802 L624 801 L625 802 L624 803 Z M378 802 L379 801 L381 802 L380 803 Z M313 802 L314 801 L316 802 L315 803 Z M693 801 L694 800 L695 801 L694 802 Z M689 801 L690 800 L691 801 L690 802 Z M635 801 L636 800 L637 801 L636 802 Z M384 801 L385 800 L390 800 L391 801 L390 802 L385 802 Z M335 801 L336 800 L356 801 L357 802 L362 802 L369 806 L381 807 L382 808 L413 808 L414 807 L421 807 L429 805 L430 807 L438 806 L439 805 L451 805 L452 806 L426 812 L388 813 L387 812 L380 812 L379 811 L370 810 L354 804 L344 803 L343 802 L336 802 Z M319 801 L320 800 L322 801 L321 802 Z M752 800 L753 799 L760 805 L759 806 L754 805 Z M391 800 L392 799 L395 800 L394 801 Z M381 800 L382 799 L385 800 L384 801 Z M751 799 L752 798 L753 799 L752 800 Z M395 799 L396 798 L398 799 L397 800 Z M378 799 L379 798 L381 799 L380 800 Z M299 798 L300 799 L299 803 L295 806 L294 805 Z M476 798 L474 799 L472 806 L466 816 L463 819 L463 821 L470 813 Z M397 798 L398 797 L400 798 L399 799 Z M376 798 L377 797 L379 798 L378 799 Z M750 797 L751 796 L752 797 L751 798 Z M570 797 L576 810 L582 816 L590 821 L588 818 L579 811 L574 804 L572 798 Z M399 797 L400 796 L401 797 L400 798 Z M299 797 L300 796 L301 798 L300 799 Z M749 796 L750 795 L751 796 L750 797 Z M652 796 L653 795 L654 796 L653 797 Z M373 796 L375 795 L377 797 L375 798 Z M300 796 L301 795 L302 796 L301 797 Z M402 795 L403 794 L404 795 L403 796 Z M372 795 L373 794 L374 795 L373 796 Z M301 795 L302 794 L303 795 L302 796 Z M403 794 L404 793 L405 794 L404 795 Z M371 794 L372 793 L373 794 L372 795 Z M370 793 L371 792 L372 793 L371 794 Z M302 793 L303 792 L304 793 L303 794 Z M404 792 L405 791 L406 792 L405 793 Z M369 792 L370 791 L371 792 L370 793 Z M303 792 L304 791 L305 792 L304 793 Z M405 791 L406 790 L407 791 L406 792 Z M368 790 L369 789 L370 790 L369 791 Z M301 790 L302 789 L303 790 L302 791 Z M683 789 L684 788 L685 789 L684 790 Z M406 789 L407 788 L408 789 L407 790 Z M367 788 L368 787 L369 789 L368 790 Z M684 787 L685 786 L686 787 L685 788 Z M407 786 L408 785 L409 787 L408 788 Z M366 786 L367 785 L368 787 L367 788 Z M685 785 L686 784 L687 785 L686 786 Z M408 783 L409 782 L410 784 L409 785 Z M686 781 L687 780 L688 782 L687 783 Z M455 781 L456 780 L457 781 L456 782 Z M366 780 L367 781 L366 784 L365 783 Z M454 780 L455 779 L456 780 L455 781 Z M311 780 L312 779 L313 780 L312 781 Z M595 775 L596 774 L597 775 L596 776 Z M365 775 L366 774 L367 775 L366 776 Z M596 774 L597 773 L598 774 L597 775 Z M597 773 L598 772 L599 773 L598 774 Z M409 772 L410 773 L409 776 L408 775 Z M598 772 L599 771 L601 772 L600 773 Z M421 765 L424 764 L438 771 L449 779 L462 793 L465 798 L465 802 L462 804 L451 801 L433 801 L432 802 L416 803 L415 802 L419 798 L423 790 L424 782 L425 781 L425 775 Z M404 765 L405 764 L406 765 L405 766 Z M369 765 L370 764 L371 765 L370 766 Z M370 764 L371 763 L372 764 L371 765 Z M631 763 L628 770 L627 779 L628 780 L629 789 L633 797 L636 800 L635 801 L624 800 L617 798 L610 798 L609 797 L587 797 L586 798 L582 798 L581 797 L581 795 L589 786 L601 776 L616 767 L629 762 Z M630 762 L631 761 L632 762 L631 763 Z M372 762 L373 761 L374 762 L373 763 Z M373 761 L374 760 L375 761 L374 762 Z M383 759 L392 759 L399 762 L404 767 L407 774 L407 783 L404 790 L399 795 L392 798 L385 798 L379 796 L372 790 L368 782 L368 775 L370 769 L374 764 Z M374 760 L375 759 L376 760 L375 761 Z M698 759 L700 758 L709 761 L719 766 L730 774 L741 786 L751 802 L750 803 L746 803 L745 802 L732 801 L731 800 L695 801 L694 800 L700 790 L703 777 L701 765 Z M662 758 L670 758 L677 761 L682 766 L685 774 L685 781 L682 789 L677 794 L671 797 L660 797 L655 795 L649 789 L646 781 L647 771 L649 767 L655 761 Z M398 759 L399 758 L400 759 L399 760 Z M376 759 L377 758 L378 759 L377 760 Z M697 758 L698 757 L699 758 L698 759 Z M395 758 L396 757 L398 758 L397 759 Z M378 758 L379 757 L380 758 L379 759 Z M357 757 L352 769 L352 784 L358 798 L360 799 L359 800 L347 799 L346 798 L320 798 L319 799 L310 800 L303 803 L301 802 L303 796 L317 777 L327 767 L337 761 L350 758 L354 756 Z M656 757 L649 761 L643 769 L642 773 L642 784 L646 792 L652 798 L659 801 L671 801 L674 800 L682 795 L688 786 L689 783 L689 771 L688 768 L682 760 L675 756 L676 757 L675 758 L669 756 L662 756 L657 758 Z M397 755 L406 756 L409 759 L416 761 L421 768 L422 772 L422 786 L421 790 L418 796 L410 804 L409 803 L405 804 L394 804 L393 803 L400 800 L406 795 L410 789 L412 783 L412 775 L410 768 L402 759 L396 756 Z M696 759 L699 765 L700 773 L701 774 L700 785 L697 792 L687 802 L680 802 L679 803 L648 803 L647 802 L641 802 L634 795 L630 786 L630 777 L629 776 L630 775 L631 767 L633 763 L637 759 L656 754 L665 754 L666 753 L693 756 Z M395 754 L396 755 L395 758 L392 757 L383 757 L382 758 L377 757 L373 759 L367 765 L364 771 L364 775 L363 776 L364 786 L367 792 L373 798 L378 801 L377 802 L364 801 L358 794 L354 784 L354 770 L358 759 L361 755 L365 755 L366 754 L380 754 L381 753 Z M600 771 L612 761 L639 748 L656 744 L662 744 L666 742 L689 744 L701 748 L704 748 L714 752 L731 763 L748 780 L770 808 L769 809 L762 803 L742 779 L729 768 L723 764 L708 757 L691 752 L680 751 L679 750 L653 751 L634 757 L631 757 L607 768 L602 772 Z M455 779 L453 780 L448 775 L433 765 L419 758 L410 756 L403 753 L395 752 L394 751 L387 751 L386 750 L361 751 L338 757 L319 768 L303 784 L286 810 L282 814 L281 813 L297 785 L314 765 L329 755 L339 750 L358 744 L378 742 L379 743 L393 744 L411 749 L425 756 L427 756 L444 768 Z M577 797 L578 801 L580 802 L582 801 L608 801 L620 804 L630 808 L626 809 L625 808 L609 806 L598 803 L588 803 L589 804 L600 805 L606 807 L611 807 L617 809 L622 809 L623 810 L628 810 L629 811 L640 812 L647 814 L656 814 L657 815 L731 814 L732 815 L739 815 L752 818 L766 825 L769 825 L773 827 L771 825 L769 825 L758 819 L742 814 L724 813 L723 812 L692 812 L691 813 L677 813 L676 812 L677 811 L684 811 L696 808 L706 804 L709 804 L711 806 L728 806 L730 805 L729 804 L716 804 L715 803 L716 802 L732 802 L733 803 L746 804 L749 806 L765 810 L793 823 L792 821 L781 815 L768 803 L745 772 L732 759 L722 752 L712 747 L686 740 L659 740 L658 741 L645 743 L620 753 L605 763 L588 779 L582 787 Z M464 788 L452 772 L435 758 L415 747 L400 742 L390 741 L389 740 L363 740 L342 745 L322 755 L314 761 L302 773 L292 787 L277 814 L265 829 L284 814 L298 807 L299 808 L312 804 L317 804 L318 803 L339 803 L340 804 L346 804 L347 805 L355 806 L368 811 L367 812 L326 812 L325 813 L319 813 L305 817 L293 824 L282 836 L282 838 L276 846 L270 861 L266 878 L266 884 L265 885 L264 912 L265 912 L265 901 L266 900 L266 889 L267 888 L268 875 L274 853 L282 837 L298 822 L306 818 L322 814 L351 813 L352 814 L378 814 L379 815 L414 815 L415 814 L429 813 L454 807 L461 807 L468 803 L468 796 Z M205 701 L206 702 L199 709 L198 712 L195 712 L193 710 L199 704 Z M205 701 L206 700 L208 701 L207 702 Z M207 700 L208 699 L209 700 L208 701 Z M209 699 L210 698 L211 699 L210 700 Z M870 695 L874 694 L883 697 L890 704 L887 707 L886 704 L882 700 Z M867 694 L868 693 L870 694 L869 695 Z M862 693 L863 692 L867 693 L866 694 Z M852 692 L854 694 L872 697 L884 704 L886 779 L887 780 L887 811 L888 812 L889 876 L890 877 L890 912 L891 913 L891 976 L890 977 L889 1001 L888 1002 L885 1020 L881 1030 L875 1036 L868 1036 L864 1034 L856 1025 L851 1014 L851 1011 L846 996 L844 980 L843 979 L843 973 L842 972 L841 949 L840 948 L840 870 L839 869 L839 857 L836 844 L832 838 L845 825 L850 812 L851 800 L852 799 L852 786 L853 785 L853 743 L852 742 L852 708 L851 707 L851 693 Z M857 692 L859 690 L860 691 L859 693 Z M219 685 L219 689 L221 692 L220 693 L218 693 L197 704 L193 709 L192 708 L192 700 L195 694 L206 690 L217 684 Z M218 684 L219 683 L220 684 L219 685 Z M859 683 L860 682 L865 682 L873 684 L887 685 L890 690 L890 700 L889 701 L885 697 L879 696 L874 693 L860 691 L859 690 Z M222 682 L224 684 L224 690 L223 691 L220 688 Z M858 682 L859 681 L860 682 L859 683 Z M856 681 L858 684 L858 689 L855 692 L853 690 L852 686 L853 683 Z M298 681 L299 680 L300 681 L299 682 Z M768 680 L769 679 L770 680 L769 681 Z M299 680 L300 679 L301 680 L300 681 Z M767 679 L768 678 L769 679 L768 680 Z M300 679 L301 678 L302 679 L301 680 Z M766 678 L767 677 L768 678 L767 679 Z M301 678 L302 677 L303 678 L302 679 Z M765 677 L766 676 L767 677 L766 678 Z M302 677 L303 676 L304 677 L303 678 Z M764 676 L765 675 L766 676 L765 677 Z M303 676 L304 675 L305 676 L304 677 Z M304 675 L305 674 L306 675 L305 676 Z M547 657 L545 663 L541 691 L540 692 L538 721 L537 722 L537 736 L536 737 L536 754 L535 755 L534 835 L535 836 L535 862 L536 863 L536 877 L537 879 L536 844 L535 843 L536 748 L537 747 L537 732 L538 731 L538 718 L539 717 L540 698 L541 697 L542 683 L544 677 Z M494 650 L498 666 L499 680 L500 681 L501 699 L502 700 L502 712 L503 713 L503 730 L504 731 L504 758 L505 759 L505 876 L504 880 L505 881 L506 878 L506 849 L507 848 L506 739 L505 738 L505 718 L504 717 L504 704 L503 703 L501 676 L500 675 L500 670 L499 669 L499 664 L496 651 Z M284 702 L286 701 L294 689 L312 672 L336 658 L353 652 L366 649 L373 649 L374 648 L397 648 L398 649 L404 649 L405 650 L413 651 L427 656 L440 664 L453 676 L465 696 L470 711 L470 715 L472 721 L472 729 L473 730 L473 764 L472 765 L472 775 L471 776 L470 788 L469 789 L470 790 L472 784 L474 765 L475 764 L475 731 L474 730 L473 717 L467 697 L462 687 L454 675 L440 662 L424 653 L412 649 L402 648 L401 647 L394 647 L393 646 L377 646 L376 647 L368 647 L367 648 L358 649 L339 655 L318 666 L307 675 L305 674 L314 665 L330 654 L344 647 L365 640 L369 640 L375 638 L382 638 L383 637 L406 637 L407 638 L419 639 L432 643 L448 652 L462 665 L469 675 L478 697 L480 711 L481 712 L481 720 L482 721 L482 754 L481 755 L481 765 L480 766 L480 774 L479 775 L479 782 L477 787 L477 792 L481 775 L482 760 L483 759 L483 744 L484 743 L483 715 L482 714 L482 709 L481 708 L481 703 L479 695 L470 674 L463 664 L452 653 L438 644 L425 639 L417 637 L412 637 L411 636 L404 636 L403 635 L377 636 L350 643 L334 650 L313 664 L297 680 Z M781 697 L772 681 L756 663 L739 651 L718 641 L690 634 L662 632 L661 633 L650 633 L649 634 L638 635 L617 642 L602 651 L589 663 L579 678 L573 692 L567 714 L566 726 L565 727 L565 738 L564 739 L565 772 L566 773 L566 779 L567 780 L568 788 L569 790 L570 789 L569 788 L569 783 L567 776 L567 768 L566 767 L566 734 L567 733 L567 724 L568 723 L569 711 L576 688 L583 674 L591 663 L603 652 L621 642 L636 637 L655 635 L656 634 L677 634 L678 635 L686 635 L687 636 L698 637 L719 643 L738 652 L756 665 L765 675 L764 676 L747 663 L732 655 L715 649 L703 646 L691 645 L690 644 L673 643 L672 644 L653 645 L634 650 L618 658 L611 663 L594 681 L584 699 L579 713 L577 726 L576 727 L575 741 L574 742 L574 778 L575 779 L576 790 L577 790 L576 767 L575 766 L576 741 L577 740 L577 732 L578 731 L579 721 L585 701 L591 689 L599 677 L612 664 L633 652 L646 648 L650 648 L656 646 L665 646 L666 645 L684 645 L685 646 L693 646 L694 647 L700 647 L713 650 L735 658 L752 668 L761 675 L774 688 L779 696 Z M299 628 L300 627 L301 628 L300 629 Z M300 626 L301 625 L302 626 L301 627 Z M301 625 L302 624 L303 625 L302 626 Z M302 623 L303 622 L304 624 L303 625 Z M563 620 L564 619 L565 620 L564 621 Z M478 620 L479 619 L480 620 L479 621 Z M759 619 L760 618 L761 619 L760 620 Z M477 619 L478 618 L479 619 L478 620 Z M758 618 L759 617 L760 618 L759 619 Z M565 617 L566 616 L567 617 L566 618 Z M757 616 L758 615 L759 616 L758 617 Z M566 616 L567 615 L568 616 L567 617 Z M756 615 L757 614 L758 615 L757 616 Z M567 615 L568 614 L569 615 L568 616 Z M755 614 L756 613 L757 614 L756 615 Z M217 599 L218 598 L219 599 L218 600 Z M211 598 L215 599 L222 607 L225 616 L226 627 L227 628 L227 640 L228 641 L228 691 L229 692 L228 694 L228 768 L229 769 L228 771 L228 780 L229 781 L229 800 L230 801 L230 810 L233 822 L237 829 L243 835 L243 833 L237 827 L234 821 L232 813 L232 807 L231 806 L231 795 L230 794 L230 650 L229 649 L229 632 L228 631 L227 618 L224 608 L222 604 L218 600 L219 599 L228 600 L240 605 L252 618 L250 637 L249 638 L249 648 L248 649 L248 664 L247 665 L247 700 L246 701 L247 702 L246 703 L246 834 L242 838 L238 845 L235 855 L235 864 L234 865 L235 925 L236 926 L236 995 L235 996 L235 1007 L234 1008 L233 1020 L231 1028 L227 1036 L222 1040 L219 1040 L215 1037 L210 1026 L210 1022 L206 1006 L205 993 L204 992 L202 966 L201 965 L201 948 L200 947 L200 833 L201 832 L200 710 L206 704 L220 695 L225 693 L226 690 L226 684 L224 681 L219 681 L201 690 L200 689 L202 608 L204 603 L208 599 Z M867 594 L872 595 L877 600 L881 612 L882 639 L883 640 L883 667 L884 668 L884 682 L883 683 L857 680 L856 679 L852 682 L851 681 L852 637 L853 636 L854 620 L858 605 L860 603 L861 599 Z M864 593 L865 594 L862 596 L862 598 L858 602 L855 609 L853 617 L853 622 L852 623 L852 632 L851 633 L851 649 L850 650 L850 719 L851 720 L852 772 L851 773 L850 803 L849 804 L848 814 L842 827 L833 835 L832 834 L832 819 L833 818 L833 796 L834 795 L834 774 L835 773 L835 745 L836 744 L837 672 L836 671 L835 646 L834 645 L833 633 L829 620 L829 616 L830 615 L831 606 L834 601 L838 599 L840 600 L839 601 L839 605 L837 609 L839 609 L841 605 L841 600 L844 596 L850 595 L851 596 L850 597 L852 597 L856 594 Z M842 593 L843 592 L845 594 L843 595 Z M258 593 L259 592 L260 594 L259 595 Z M253 589 L257 593 L258 599 L255 606 L254 613 L252 615 L241 604 L245 602 L246 600 L249 604 L253 606 L247 598 L250 591 Z M244 587 L249 589 L248 594 L246 596 L243 589 Z M303 622 L311 611 L319 603 L333 593 L347 586 L367 580 L372 580 L373 579 L380 579 L381 578 L413 579 L439 586 L460 598 L470 607 L478 617 L477 619 L468 610 L456 602 L446 597 L432 592 L420 589 L415 589 L414 588 L407 588 L406 587 L378 587 L377 588 L370 588 L369 589 L356 591 L339 597 L320 608 L304 623 Z M487 631 L483 622 L477 613 L464 599 L451 590 L436 583 L422 579 L418 579 L412 577 L403 577 L402 576 L383 576 L382 577 L374 577 L373 578 L360 580 L345 585 L333 591 L320 600 L304 617 L293 636 L287 652 L283 669 L283 674 L282 675 L282 686 L285 666 L291 647 L302 628 L315 614 L329 604 L343 597 L363 591 L368 591 L369 590 L375 590 L376 589 L408 589 L409 590 L415 590 L416 591 L421 591 L433 594 L444 598 L464 609 L481 625 L487 634 Z M568 614 L572 607 L581 598 L597 587 L621 577 L642 573 L643 572 L650 572 L651 571 L687 572 L688 573 L702 575 L714 579 L730 587 L737 592 L751 605 L756 612 L755 614 L747 606 L748 605 L747 606 L730 594 L708 585 L695 582 L690 582 L689 581 L680 581 L679 580 L654 580 L653 581 L644 581 L643 582 L628 584 L611 589 L591 598 L579 606 L569 615 Z M555 635 L557 634 L559 629 L567 619 L579 608 L589 601 L613 590 L631 585 L641 584 L642 583 L650 583 L651 582 L683 582 L684 583 L691 583 L692 584 L709 587 L720 591 L737 600 L746 607 L757 618 L768 635 L776 655 L779 672 L780 672 L777 654 L769 631 L762 618 L753 605 L740 592 L730 585 L716 578 L692 571 L675 570 L674 569 L646 570 L645 571 L639 571 L638 572 L625 574 L601 583 L582 595 L570 607 L563 617 Z M832 545 L833 544 L834 545 L833 546 Z M494 480 L509 480 L510 479 L565 479 L566 480 L594 481 L595 482 L605 482 L606 483 L629 485 L630 486 L635 486 L636 487 L641 487 L642 488 L662 491 L678 495 L682 497 L689 498 L722 510 L744 521 L761 532 L784 551 L799 567 L812 585 L820 599 L826 614 L832 638 L833 656 L834 657 L835 704 L834 705 L833 771 L832 772 L832 795 L831 796 L831 819 L830 820 L830 851 L829 852 L829 885 L828 886 L828 917 L827 918 L825 992 L824 993 L824 1006 L823 1007 L821 1039 L820 1040 L819 1048 L810 1073 L792 1109 L773 1136 L721 1194 L696 1225 L676 1245 L655 1261 L625 1277 L615 1280 L612 1282 L609 1282 L594 1287 L577 1289 L576 1290 L568 1290 L567 1291 L554 1291 L553 1292 L512 1291 L511 1290 L493 1289 L492 1288 L487 1288 L486 1287 L481 1287 L468 1284 L450 1278 L430 1268 L406 1251 L392 1239 L365 1212 L349 1193 L308 1135 L284 1096 L269 1066 L260 1042 L258 1027 L257 1026 L257 1020 L256 1019 L256 1013 L255 1012 L253 984 L252 983 L251 955 L250 954 L250 932 L249 931 L249 900 L248 899 L248 703 L249 702 L249 663 L250 662 L250 648 L251 647 L251 638 L252 637 L254 618 L262 592 L267 582 L274 572 L287 557 L298 547 L320 531 L354 513 L391 499 L394 499 L398 497 L429 489 L434 489 L445 486 L464 484 L465 483 L493 481 Z M252 586 L264 565 L274 553 L289 539 L316 520 L345 505 L347 505 L362 498 L399 486 L419 481 L438 478 L439 477 L450 476 L451 475 L472 473 L473 472 L481 472 L482 471 L511 470 L512 469 L560 469 L561 470 L578 470 L579 471 L603 472 L604 473 L612 473 L613 474 L620 474 L621 475 L627 475 L628 476 L652 479 L694 489 L730 502 L757 516 L777 530 L790 541 L803 554 L815 569 L829 593 L831 598 L831 602 L829 610 L827 612 L824 604 L814 585 L801 567 L787 552 L771 538 L745 520 L721 508 L684 495 L650 487 L645 487 L644 486 L627 484 L626 483 L620 483 L619 482 L603 481 L602 480 L578 479 L577 478 L558 478 L557 477 L515 477 L514 478 L498 478 L497 479 L485 479 L484 480 L460 482 L459 483 L447 484 L446 485 L422 489 L380 501 L377 503 L357 510 L348 515 L346 515 L316 532 L302 542 L282 560 L268 577 L260 591 Z M243 561 L246 550 L255 535 L265 522 L283 504 L311 483 L328 473 L349 463 L364 458 L367 456 L399 446 L419 441 L423 441 L428 439 L455 435 L456 434 L463 434 L464 433 L479 432 L480 431 L490 431 L491 430 L505 430 L506 429 L563 429 L564 430 L577 430 L578 431 L589 431 L590 432 L616 434 L617 435 L630 436 L631 437 L636 437 L637 438 L661 442 L692 450 L716 458 L719 460 L734 465 L755 475 L772 485 L788 497 L816 525 L827 540 L838 560 L840 567 L841 586 L840 587 L840 596 L834 599 L832 597 L828 587 L817 569 L805 554 L792 541 L778 529 L758 515 L727 499 L693 487 L665 480 L645 477 L644 476 L639 476 L638 475 L618 473 L617 472 L601 471 L600 470 L589 470 L588 469 L576 469 L575 468 L520 467 L519 468 L486 469 L485 470 L467 471 L466 472 L441 475 L440 476 L430 477 L400 484 L368 494 L348 502 L329 511 L301 528 L288 538 L272 553 L258 571 L250 587 L246 586 L243 581 Z M492 239 L493 240 L547 240 L548 241 L549 240 L582 240 L583 239 L587 239 L494 239 L493 238 Z M478 238 L479 239 L473 242 L458 252 L422 280 L395 307 L381 324 L358 359 L344 391 L338 412 L336 427 L335 428 L334 448 L333 449 L333 468 L330 471 L314 479 L286 499 L269 515 L252 536 L251 535 L252 514 L253 513 L253 504 L254 503 L256 480 L257 479 L260 458 L264 442 L266 438 L266 435 L271 420 L283 392 L285 390 L300 361 L320 332 L329 321 L351 299 L372 282 L393 268 L413 257 L415 257 L424 252 L426 252 L441 245 L465 237 Z M603 239 L617 236 L638 241 L675 254 L700 266 L727 283 L744 296 L767 319 L779 334 L796 360 L810 387 L823 424 L827 445 L828 446 L828 450 L829 451 L831 473 L832 474 L832 485 L833 486 L834 543 L832 545 L814 520 L791 497 L769 481 L740 466 L739 433 L738 432 L736 413 L734 408 L731 392 L718 357 L705 334 L685 307 L659 280 L631 258 L613 246 L602 240 Z M599 237 L600 236 L602 237 L601 238 Z M335 447 L336 446 L336 435 L337 434 L338 421 L343 400 L352 375 L362 355 L374 336 L386 320 L397 307 L420 284 L444 264 L459 253 L477 242 L480 239 L488 239 L488 238 L481 238 L478 236 L479 235 L507 233 L508 232 L523 232 L524 231 L562 232 L563 233 L587 234 L588 235 L598 236 L599 237 L598 238 L592 238 L592 239 L600 239 L601 241 L612 247 L642 268 L662 285 L675 298 L692 318 L702 332 L712 349 L721 368 L729 391 L732 407 L734 412 L735 423 L736 424 L737 441 L738 442 L738 456 L739 457 L738 463 L739 464 L738 465 L734 464 L724 459 L716 457 L705 452 L705 424 L704 423 L703 407 L702 406 L699 386 L691 358 L687 348 L673 321 L663 306 L651 291 L627 267 L594 242 L593 243 L609 254 L626 268 L648 290 L664 310 L677 331 L691 362 L691 365 L693 368 L693 371 L698 387 L699 397 L701 403 L701 409 L702 410 L702 419 L703 420 L703 436 L704 439 L703 440 L703 451 L702 452 L695 449 L692 449 L669 442 L665 442 L646 437 L641 437 L640 436 L635 436 L622 433 L616 433 L615 432 L589 430 L588 429 L577 429 L576 428 L561 428 L560 427 L508 427 L507 428 L492 428 L491 429 L464 431 L463 432 L434 436 L433 437 L429 437 L424 439 L420 439 L415 441 L399 444 L368 454 L367 453 L367 432 L368 431 L368 419 L369 418 L370 405 L376 380 L389 347 L405 321 L427 293 L451 269 L485 242 L479 245 L457 262 L424 294 L408 314 L392 339 L378 369 L371 392 L368 412 L367 413 L367 421 L366 422 L365 455 L347 462 L340 466 L338 466 L336 468 L335 467 Z M579 131 L596 143 L612 158 L618 166 L622 175 L623 183 L624 184 L624 192 L625 193 L625 205 L624 206 L623 221 L619 230 L615 234 L611 236 L595 234 L594 233 L600 218 L602 210 L602 205 L603 204 L603 182 L602 181 L602 175 L599 164 L594 153 L585 140 L578 133 Z M575 130 L577 129 L579 131 L577 132 Z M504 129 L505 128 L507 129 L506 130 Z M576 129 L575 131 L583 139 L593 154 L599 169 L599 173 L601 179 L601 188 L602 189 L601 206 L598 219 L593 233 L574 232 L573 231 L558 231 L557 230 L511 230 L510 231 L497 231 L496 232 L489 232 L488 233 L481 233 L475 235 L470 235 L465 231 L461 223 L460 210 L459 209 L459 198 L460 197 L460 187 L461 186 L462 175 L470 158 L486 141 L503 129 L505 130 L497 138 L488 151 L488 153 L482 165 L480 173 L479 187 L478 188 L479 208 L483 223 L487 231 L488 230 L483 218 L482 210 L481 209 L481 203 L480 202 L481 176 L485 161 L492 147 L496 141 L507 129 L506 128 L510 125 L523 120 L531 119 L532 118 L547 117 L560 120 Z M533 116 L515 121 L492 134 L477 147 L465 163 L461 173 L459 186 L458 187 L458 217 L459 218 L460 226 L466 235 L447 241 L422 251 L398 263 L365 285 L347 300 L326 322 L310 343 L292 371 L281 392 L281 394 L271 415 L264 435 L264 438 L259 454 L259 458 L255 474 L255 479 L254 480 L253 495 L252 496 L249 542 L245 548 L241 562 L241 588 L242 589 L242 593 L246 600 L239 602 L234 599 L212 596 L208 597 L203 601 L200 609 L200 619 L199 620 L198 690 L191 696 L190 710 L193 713 L198 713 L199 714 L198 715 L198 802 L199 803 L199 817 L198 818 L198 948 L199 949 L200 976 L201 977 L201 984 L202 985 L202 992 L204 999 L205 1012 L208 1025 L212 1036 L219 1042 L229 1042 L248 1035 L252 1035 L255 1037 L260 1047 L261 1052 L264 1057 L267 1066 L283 1098 L300 1126 L336 1179 L352 1200 L366 1216 L385 1235 L402 1250 L432 1271 L448 1279 L453 1280 L456 1282 L459 1282 L462 1284 L488 1290 L494 1290 L495 1291 L504 1291 L505 1292 L513 1292 L514 1293 L547 1294 L548 1293 L564 1293 L565 1292 L581 1291 L582 1290 L593 1289 L614 1283 L641 1271 L673 1250 L693 1231 L728 1189 L767 1146 L782 1127 L797 1104 L809 1080 L823 1042 L828 1037 L832 1035 L836 1035 L840 1038 L850 1042 L864 1042 L874 1039 L882 1032 L887 1020 L889 1007 L890 1006 L891 991 L892 990 L892 976 L893 975 L892 880 L891 879 L889 781 L888 780 L887 720 L886 719 L886 709 L889 708 L892 705 L892 691 L891 687 L886 683 L884 624 L883 623 L883 613 L880 601 L874 594 L867 591 L849 592 L848 591 L844 591 L842 589 L843 586 L842 567 L840 560 L835 551 L835 544 L836 543 L836 502 L835 501 L835 486 L834 485 L833 466 L832 465 L832 459 L831 458 L831 452 L830 451 L828 436 L824 420 L812 387 L794 353 L779 331 L765 314 L749 298 L726 280 L698 263 L675 252 L641 240 L618 235 L617 234 L619 233 L623 226 L626 214 L626 186 L623 173 L618 163 L600 144 L586 133 L572 124 L562 119 L552 116 Z" fill="#eef3f4" fill-rule="evenodd"/>
</svg>
