<svg xmlns="http://www.w3.org/2000/svg" width="1122" height="1402" viewBox="0 0 1122 1402">
  <title>0461</title>
  <path d="M413 1301 L414 1300 L416 1301 L415 1302 Z M480 1299 L481 1298 L482 1299 L481 1300 Z M452 1298 L453 1297 L454 1298 L453 1299 Z M460 1294 L461 1293 L462 1294 L461 1295 Z M349 1294 L350 1293 L351 1294 L350 1295 Z M461 1293 L462 1292 L463 1293 L462 1294 Z M373 1291 L374 1290 L376 1291 L375 1292 Z M375 1290 L376 1289 L377 1290 L376 1291 Z M423 1290 L425 1287 L427 1288 L424 1291 Z M426 1287 L427 1286 L428 1287 L427 1288 Z M381 1286 L382 1285 L384 1286 L383 1287 Z M383 1285 L384 1284 L386 1285 L385 1286 Z M510 1279 L511 1278 L512 1279 L511 1280 Z M663 1274 L664 1273 L665 1274 L664 1275 Z M555 1272 L556 1271 L557 1272 L556 1273 Z M556 1271 L557 1270 L558 1271 L557 1272 Z M632 1267 L633 1266 L634 1268 L633 1269 Z M494 1267 L486 1279 L483 1287 L479 1291 L472 1295 L463 1298 L460 1297 L476 1284 L493 1266 Z M493 1266 L494 1265 L495 1266 L494 1267 Z M494 1265 L495 1264 L496 1265 L495 1266 Z M639 1255 L640 1254 L641 1255 L640 1256 Z M732 1237 L733 1236 L734 1237 L733 1238 Z M368 1222 L369 1221 L370 1222 L369 1223 Z M725 1204 L726 1203 L727 1205 L726 1206 Z M726 1202 L727 1201 L728 1203 L727 1204 Z M552 1202 L547 1207 L546 1210 L540 1216 L524 1238 L511 1253 L502 1267 L496 1274 L492 1282 L508 1260 L529 1235 L536 1224 L547 1211 Z M361 1198 L358 1202 L358 1204 L353 1213 L350 1223 L348 1226 L345 1238 L345 1256 L343 1262 L343 1270 L342 1271 L344 1272 L345 1261 L348 1252 L348 1240 L351 1234 L349 1233 L349 1230 L354 1215 L361 1201 Z M770 1196 L771 1195 L772 1196 L771 1197 Z M771 1194 L772 1193 L773 1195 L772 1196 Z M339 1191 L340 1192 L339 1196 L338 1195 Z M622 1184 L623 1188 L622 1189 L621 1200 L618 1211 L600 1247 L580 1273 L567 1285 L561 1289 L560 1288 L559 1279 L558 1278 L557 1279 L556 1283 L551 1278 L552 1275 L555 1272 L557 1273 L562 1266 L577 1251 L597 1225 L608 1207 L611 1204 Z M622 1183 L623 1182 L624 1184 L623 1185 Z M787 1182 L788 1181 L789 1183 L788 1184 Z M792 1181 L793 1180 L794 1181 L793 1182 Z M258 1177 L259 1176 L260 1178 L259 1179 Z M853 1162 L854 1161 L855 1163 L854 1164 Z M785 1150 L786 1149 L787 1150 L786 1151 Z M448 1115 L446 1116 L441 1127 L425 1154 L390 1202 L385 1210 L384 1214 L379 1222 L379 1224 L380 1224 L386 1214 L387 1210 L396 1196 L404 1187 L424 1159 L439 1134 L439 1132 L445 1123 L446 1118 Z M604 1097 L600 1103 L599 1108 L594 1119 L595 1120 Z M881 1090 L882 1089 L883 1091 L882 1092 Z M883 1083 L884 1084 L883 1088 L882 1087 Z M530 1080 L529 1080 L528 1084 L528 1093 L525 1105 L528 1096 Z M755 1071 L752 1077 L747 1098 L729 1152 L719 1177 L714 1186 L714 1188 L699 1217 L697 1224 L690 1238 L688 1240 L693 1235 L699 1222 L701 1220 L728 1160 L748 1100 L753 1078 L755 1075 Z M511 1070 L503 1090 L503 1093 L499 1100 L495 1111 L472 1154 L441 1201 L413 1237 L397 1259 L396 1262 L401 1257 L404 1252 L407 1250 L409 1245 L414 1238 L422 1229 L451 1190 L475 1152 L482 1138 L484 1136 L501 1101 Z M591 1047 L592 1046 L593 1048 L592 1049 Z M674 1042 L675 1043 L675 1057 L674 1058 L672 1092 L671 1093 L668 1117 L667 1118 L665 1132 L660 1152 L650 1184 L648 1187 L643 1202 L639 1209 L639 1211 L622 1244 L605 1267 L591 1279 L590 1278 L591 1275 L603 1258 L613 1240 L616 1231 L618 1229 L615 1230 L603 1255 L592 1272 L589 1271 L589 1265 L603 1250 L604 1246 L607 1242 L618 1219 L618 1217 L633 1187 L635 1185 L635 1183 L638 1179 L638 1177 L647 1158 L648 1152 L653 1140 L653 1137 L658 1124 L658 1121 L663 1105 L663 1101 L665 1096 L665 1092 L669 1076 L670 1064 L672 1059 L673 1043 Z M529 1023 L529 1029 L529 1025 L530 1024 Z M594 1005 L590 1050 L582 1077 L573 1098 L570 1108 L561 1126 L561 1128 L559 1130 L546 1156 L542 1161 L541 1165 L535 1176 L550 1152 L552 1146 L554 1144 L568 1116 L579 1088 L582 1083 L582 1080 L586 1073 L586 1070 L590 1060 L593 1056 L599 1034 L601 1015 L602 1014 L602 1008 L600 1014 L600 1021 L599 1022 L597 1036 L595 1044 L593 1047 L592 1046 L592 1036 L594 1030 Z M370 955 L367 964 L362 997 L361 998 L361 1003 L360 1004 L360 1008 L359 1009 L359 1013 L353 1039 L353 1044 L351 1050 L348 1073 L345 1085 L345 1093 L352 1055 L353 1054 L354 1043 L359 1022 L359 1017 L363 1001 L363 996 L364 995 Z M540 946 L539 946 L536 952 L535 965 L534 966 L533 1019 L532 1020 L531 1043 L530 1044 L529 1057 L528 1058 L528 1067 L529 1067 L530 1057 L531 1056 L531 1047 L532 1046 L533 1029 L534 1028 L535 995 L536 994 L536 965 L537 964 L537 957 Z M904 944 L905 945 L905 962 L904 963 L903 962 L903 945 Z M602 937 L603 938 L602 941 L601 940 Z M600 936 L601 935 L602 936 L601 937 Z M620 934 L619 937 L622 949 L622 955 L623 958 L624 958 Z M572 933 L570 940 L570 948 L569 949 L566 938 L564 934 L562 933 L569 959 L569 968 L570 969 L570 1004 L569 1005 L568 1019 L567 1020 L562 1047 L559 1053 L559 1057 L548 1091 L537 1116 L535 1123 L529 1133 L526 1142 L519 1155 L492 1195 L468 1226 L481 1212 L496 1191 L500 1187 L518 1160 L534 1129 L536 1122 L550 1090 L553 1079 L555 1076 L564 1048 L568 1027 L569 1026 L569 1022 L570 1021 L570 1017 L571 1016 L572 992 L573 991 L573 978 L572 977 L572 936 L573 934 Z M584 931 L585 932 L584 935 L583 934 Z M537 930 L540 936 L542 949 L543 950 L543 965 L542 966 L542 1000 L543 1001 L543 1042 L542 1043 L542 1049 L543 1050 L543 1044 L544 1043 L544 1018 L545 1017 L544 1015 L544 969 L545 968 L546 953 L549 941 L553 933 L552 932 L551 933 L550 931 L545 948 L544 947 L544 941 L542 933 Z M584 929 L583 932 L580 930 L580 933 L582 935 L585 942 L587 950 L587 955 L588 956 L590 995 L591 994 L591 964 L590 963 L590 954 L588 947 L587 934 L586 933 L586 929 Z M504 927 L505 931 L503 938 L503 944 L499 956 L499 960 L497 965 L497 969 L493 985 L492 984 L492 977 L493 976 L493 967 L495 962 L494 961 L495 949 L499 933 L503 930 Z M534 928 L530 929 L525 936 L524 935 L524 928 L521 926 L522 927 L522 936 L521 937 L520 949 L515 968 L508 1016 L506 1021 L505 1030 L500 1050 L498 1053 L498 1056 L488 1081 L487 1086 L474 1113 L468 1123 L468 1125 L466 1127 L466 1129 L461 1137 L461 1139 L484 1097 L496 1067 L501 1052 L509 1020 L509 1015 L511 1010 L511 1005 L514 992 L515 980 L520 960 L520 956 L523 949 L524 943 L529 933 L532 930 L534 930 Z M603 925 L604 924 L605 925 L604 926 Z M494 914 L492 916 L491 923 L487 933 L483 954 L482 955 L482 961 L480 968 L480 981 L479 982 L479 997 L478 998 L478 1007 L477 1008 L477 1018 L476 1019 L474 1035 L475 1035 L477 1021 L478 1020 L480 993 L481 992 L481 981 L482 980 L482 968 L483 967 L483 961 L485 955 L486 945 L490 932 L494 924 L499 918 L501 918 Z M620 912 L620 915 L618 918 L622 921 L629 934 L636 958 L634 944 L626 919 L621 912 Z M438 910 L439 911 L438 914 L437 913 Z M659 906 L660 905 L661 907 L660 908 Z M642 905 L644 913 L648 919 L648 921 L649 921 L649 918 L647 915 L646 910 L644 906 Z M635 902 L634 905 L637 912 L636 913 L630 908 L628 908 L632 915 L640 938 L640 942 L642 947 L643 957 L645 963 L645 971 L647 978 L647 990 L648 992 L648 970 L647 969 L646 955 L645 954 L641 931 L632 914 L633 913 L641 921 L651 941 L661 975 L663 991 L664 992 L664 998 L665 999 L666 1036 L665 1037 L665 1046 L664 1047 L664 1053 L663 1054 L658 1087 L661 1079 L664 1059 L666 1053 L666 1048 L667 1047 L667 1041 L668 1040 L669 1008 L668 1007 L668 1000 L667 999 L667 993 L666 992 L664 976 L660 960 L657 953 L657 950 L655 947 L652 936 L639 911 L638 906 Z M656 895 L660 903 L659 906 L654 897 Z M465 896 L466 895 L467 897 L466 898 Z M647 894 L648 893 L649 894 L648 895 Z M466 894 L467 893 L468 895 L467 896 Z M467 891 L468 890 L469 892 L468 893 Z M651 889 L655 893 L654 897 L650 892 Z M649 889 L650 888 L651 889 L650 890 Z M468 889 L469 888 L470 890 L469 891 Z M456 886 L457 885 L458 887 L457 888 Z M651 885 L652 884 L653 885 L652 886 Z M454 883 L455 882 L456 883 L455 884 Z M475 874 L476 873 L477 874 L476 875 Z M660 872 L661 871 L662 873 L661 874 Z M475 870 L477 868 L491 867 L492 866 L514 869 L530 874 L538 878 L543 882 L554 887 L565 887 L587 876 L605 871 L615 871 L616 870 L617 871 L629 871 L639 874 L632 887 L623 897 L614 904 L601 911 L584 916 L579 916 L572 918 L546 918 L545 917 L533 916 L513 910 L495 900 L483 888 L476 876 L477 874 L479 875 L477 871 Z M637 857 L638 856 L639 857 L638 858 Z M482 862 L488 859 L500 856 L521 855 L537 859 L557 868 L564 868 L578 861 L589 858 L608 858 L609 859 L613 859 L620 862 L623 862 L633 867 L632 868 L629 867 L608 867 L607 868 L602 868 L582 874 L565 883 L554 883 L534 872 L512 865 L507 865 L506 864 L500 864 L499 863 L483 863 Z M623 854 L637 859 L652 868 L662 878 L668 889 L676 913 L679 929 L681 934 L682 943 L683 944 L686 968 L687 969 L688 983 L689 984 L690 1011 L691 1012 L691 1055 L690 1056 L690 1067 L689 1068 L687 1096 L686 1097 L684 1117 L682 1123 L680 1138 L675 1158 L669 1175 L669 1178 L659 1207 L654 1217 L652 1224 L640 1248 L631 1262 L628 1271 L622 1249 L631 1236 L649 1198 L650 1193 L656 1179 L658 1170 L661 1164 L673 1114 L676 1086 L677 1085 L678 1059 L679 1058 L679 990 L678 989 L677 965 L676 964 L676 958 L673 946 L672 935 L661 893 L656 882 L650 874 L640 866 L628 860 L626 860 L622 855 Z M483 855 L484 854 L485 855 L484 856 Z M488 854 L489 853 L490 854 L489 855 Z M466 854 L467 853 L468 854 L467 855 Z M467 853 L468 852 L470 853 L469 854 Z M490 853 L494 851 L498 852 L494 854 Z M469 852 L470 851 L471 852 L470 853 Z M520 851 L521 850 L522 851 L521 852 Z M470 851 L471 850 L472 851 L471 852 Z M504 848 L505 847 L507 848 L506 849 Z M618 847 L620 846 L627 850 L629 850 L636 855 L635 856 L631 855 L619 849 Z M523 846 L524 845 L526 846 L525 847 Z M521 845 L516 850 L508 851 L507 850 L510 849 L510 848 L507 847 L508 846 L516 844 L520 844 Z M544 839 L545 838 L546 839 L545 840 Z M667 837 L668 836 L669 838 L668 839 Z M635 836 L636 835 L637 836 L636 837 Z M666 835 L667 834 L668 836 L667 837 Z M634 835 L635 834 L636 835 L635 836 Z M665 834 L666 833 L667 834 L666 835 Z M633 834 L634 833 L635 834 L634 835 Z M632 833 L633 832 L634 833 L633 834 Z M664 832 L665 831 L666 832 L665 833 Z M631 832 L632 831 L633 832 L632 833 Z M630 831 L631 830 L632 831 L631 832 Z M663 830 L664 829 L665 830 L664 831 Z M629 830 L630 829 L631 830 L630 831 Z M552 829 L553 830 L552 833 L546 839 L545 838 L546 835 Z M662 829 L663 828 L664 829 L663 830 Z M628 829 L629 828 L630 829 L629 830 Z M675 828 L690 858 L697 878 L703 904 L704 914 L705 915 L705 921 L706 922 L707 935 L708 936 L708 945 L709 946 L710 976 L711 977 L711 1021 L710 1022 L708 1056 L707 1057 L707 1064 L706 1065 L704 1085 L703 1086 L702 1098 L701 1099 L700 1114 L700 1110 L703 1100 L703 1094 L705 1088 L705 1083 L706 1082 L709 1052 L710 1051 L710 1043 L711 1042 L711 1034 L712 1033 L712 1020 L713 1019 L713 964 L712 963 L712 950 L711 949 L710 931 L709 930 L709 923 L708 922 L706 905 L699 876 L689 849 L684 839 L678 830 Z M850 827 L851 826 L852 828 L851 829 Z M661 827 L662 826 L663 827 L662 828 Z M625 827 L626 826 L627 827 L626 828 Z M624 826 L625 825 L626 826 L625 827 Z M531 826 L524 831 L515 835 L514 837 L524 833 Z M660 825 L661 824 L662 825 L661 826 Z M623 825 L624 824 L625 825 L624 826 Z M849 824 L850 823 L851 825 L850 826 Z M659 824 L660 823 L661 824 L660 825 Z M575 817 L576 816 L577 817 L576 818 Z M653 816 L654 815 L655 816 L654 817 Z M652 815 L653 814 L654 815 L653 816 Z M574 815 L575 814 L576 815 L575 816 Z M846 814 L847 813 L848 815 L847 816 Z M479 814 L480 813 L481 814 L480 815 Z M651 813 L652 812 L653 814 L652 815 Z M573 813 L574 812 L575 814 L574 815 Z M480 813 L481 812 L482 813 L481 814 Z M650 812 L651 811 L652 812 L651 813 Z M481 812 L482 811 L483 812 L482 813 Z M649 811 L650 810 L651 811 L650 812 Z M482 811 L483 810 L484 811 L483 812 Z M483 810 L484 809 L485 810 L484 811 Z M602 805 L603 804 L604 805 L603 806 Z M550 805 L551 804 L552 806 L551 807 Z M601 804 L602 803 L603 804 L602 805 Z M597 804 L598 803 L599 804 L598 805 Z M551 803 L552 802 L553 804 L552 805 Z M596 802 L597 801 L598 802 L597 803 Z M564 800 L565 801 L564 806 L554 826 L548 831 L543 838 L528 846 L526 846 L525 844 L542 829 L552 816 L556 806 L556 802 L555 801 L556 800 Z M541 801 L542 800 L543 801 L542 802 Z M522 851 L537 844 L544 839 L545 841 L542 844 L541 848 L556 832 L562 822 L565 814 L567 817 L567 821 L571 834 L576 843 L579 845 L575 839 L576 836 L575 837 L573 835 L571 829 L572 819 L571 820 L570 819 L567 807 L567 801 L569 799 L571 799 L573 801 L573 809 L574 810 L573 813 L571 811 L572 814 L571 815 L572 814 L573 815 L576 824 L582 832 L588 838 L594 842 L609 848 L618 855 L615 856 L614 855 L600 854 L599 853 L588 854 L577 857 L570 860 L568 862 L558 864 L543 857 Z M553 799 L554 800 L553 803 L552 802 Z M549 799 L550 801 L548 805 L540 815 L540 816 L546 812 L550 806 L551 807 L549 816 L542 826 L534 834 L524 841 L504 845 L495 851 L492 850 L480 853 L479 854 L480 855 L484 856 L480 857 L462 867 L456 873 L449 884 L439 910 L438 906 L450 873 L457 864 L463 859 L472 854 L480 845 L489 839 L499 834 L506 833 L507 834 L499 840 L494 840 L490 842 L491 843 L499 841 L508 837 L513 832 L527 824 L538 813 L541 806 L544 803 L544 800 L545 799 Z M575 799 L578 798 L582 798 L583 799 L583 806 L591 823 L596 828 L600 828 L604 833 L616 843 L614 848 L596 841 L590 837 L584 831 L578 822 L578 817 L574 803 Z M542 799 L543 798 L544 799 L543 800 Z M586 798 L587 797 L591 798 L590 799 L592 800 L595 807 L599 813 L605 819 L600 811 L598 806 L599 804 L604 810 L615 819 L624 830 L645 848 L655 859 L659 865 L661 871 L660 872 L636 852 L619 842 L609 834 L594 819 L590 813 L587 806 Z M503 798 L504 797 L505 798 L504 799 Z M874 795 L875 796 L874 800 L873 799 Z M791 795 L795 796 L795 799 L797 802 L796 806 L790 797 Z M786 796 L787 795 L788 796 L787 797 Z M597 794 L599 795 L599 797 L602 802 L601 804 L593 796 Z M525 798 L527 794 L532 796 L526 799 Z M872 794 L873 793 L874 795 L873 796 Z M568 794 L569 793 L573 794 L572 795 Z M548 794 L549 793 L561 793 L562 794 L561 795 L549 795 Z M542 793 L543 792 L547 792 L548 793 L547 794 L543 794 Z M584 792 L585 791 L586 792 L585 793 Z M537 792 L538 791 L542 792 L541 793 Z M248 792 L246 792 L245 798 Z M810 793 L811 794 L810 795 L811 794 L815 798 L819 805 L829 830 L835 855 L836 869 L837 870 L837 880 L838 881 L837 944 L836 945 L834 977 L833 978 L832 991 L831 992 L827 1019 L823 1032 L823 1036 L821 1040 L821 1044 L817 1060 L811 1077 L809 1088 L795 1129 L788 1145 L787 1143 L786 1147 L780 1155 L775 1165 L767 1177 L773 1171 L785 1151 L786 1152 L785 1157 L779 1173 L770 1191 L762 1204 L734 1236 L733 1235 L734 1228 L736 1226 L742 1211 L749 1199 L749 1197 L758 1179 L770 1148 L773 1143 L791 1088 L800 1052 L802 1048 L807 1028 L810 1008 L811 1007 L813 989 L814 988 L814 981 L815 980 L815 973 L816 972 L816 965 L817 964 L818 923 L817 919 L816 919 L816 955 L815 956 L815 966 L814 967 L814 975 L813 976 L813 983 L812 984 L812 991 L811 992 L809 1010 L808 1011 L807 1021 L803 1035 L802 1043 L799 1050 L793 1076 L791 1080 L787 1096 L785 1099 L783 1109 L781 1112 L774 1135 L764 1160 L761 1165 L761 1167 L732 1226 L730 1232 L715 1253 L701 1266 L700 1264 L701 1263 L702 1253 L725 1206 L726 1208 L732 1198 L734 1191 L739 1182 L741 1175 L748 1160 L749 1155 L751 1152 L765 1113 L765 1110 L774 1083 L779 1063 L779 1059 L781 1054 L781 1050 L783 1045 L784 1035 L787 1024 L787 1019 L788 1018 L790 1001 L792 994 L792 988 L793 987 L794 969 L795 968 L795 955 L796 954 L796 914 L795 913 L795 901 L794 900 L792 876 L791 875 L791 870 L790 869 L787 852 L779 827 L770 808 L766 803 L766 801 L761 791 L763 790 L767 793 L768 801 L770 793 L773 793 L779 799 L789 820 L789 823 L792 830 L792 835 L797 851 L797 845 L792 827 L792 822 L790 819 L790 816 L788 813 L787 808 L779 796 L780 795 L783 796 L792 805 L801 820 L807 838 L810 858 L811 859 L812 877 L813 878 L814 910 L815 908 L815 884 L814 883 L814 872 L813 871 L813 862 L812 861 L811 849 L805 825 L796 806 L798 803 L796 795 L800 793 L804 793 L813 812 L813 815 L817 827 L815 813 L807 794 Z M609 791 L610 790 L611 791 L610 792 Z M588 791 L589 790 L591 791 L590 792 Z M534 791 L535 790 L538 791 L537 792 Z M872 789 L873 790 L872 793 L871 792 Z M591 790 L592 789 L594 790 L593 791 Z M531 790 L532 789 L534 790 L533 791 Z M594 789 L595 788 L598 789 L597 790 Z M528 789 L529 788 L531 789 L530 790 Z M695 788 L698 792 L705 808 L711 816 L720 835 L720 831 L712 814 L709 810 L708 806 L703 800 L698 790 Z M597 788 L598 787 L600 788 L599 789 Z M525 788 L526 787 L528 788 L527 789 Z M511 787 L517 790 L505 793 L486 804 L470 817 L456 832 L447 845 L435 869 L429 887 L427 890 L426 896 L422 905 L420 917 L417 926 L417 931 L416 932 L414 949 L412 956 L411 982 L410 983 L410 995 L409 996 L409 1010 L408 1011 L406 1035 L405 1036 L402 1056 L404 1054 L405 1044 L408 1032 L408 1026 L409 1025 L414 954 L415 953 L415 948 L416 947 L416 942 L418 936 L420 921 L422 916 L422 912 L426 902 L426 899 L431 887 L431 884 L443 856 L460 832 L478 814 L480 815 L479 816 L480 817 L486 811 L488 811 L494 807 L494 806 L487 810 L484 809 L497 800 L503 798 L504 799 L502 801 L504 801 L511 795 L521 792 L524 792 L527 794 L524 796 L519 805 L508 816 L489 825 L489 827 L499 822 L504 821 L510 817 L524 813 L530 809 L533 805 L518 813 L515 812 L522 805 L535 797 L539 797 L540 798 L539 803 L534 813 L523 824 L514 829 L498 832 L484 838 L470 848 L453 865 L446 875 L440 892 L435 913 L435 924 L432 936 L430 958 L429 959 L429 968 L428 969 L428 985 L427 986 L427 1000 L426 1001 L425 1023 L424 1024 L423 1037 L422 1038 L422 1042 L421 1043 L421 1047 L415 1073 L412 1080 L412 1083 L406 1102 L404 1105 L402 1113 L397 1123 L393 1135 L384 1153 L384 1155 L366 1189 L368 1188 L374 1178 L394 1137 L394 1135 L408 1103 L418 1071 L422 1050 L424 1045 L425 1035 L426 1034 L426 1028 L428 1020 L428 1011 L429 1010 L430 990 L431 989 L431 977 L432 976 L434 949 L435 948 L436 937 L441 917 L448 897 L451 892 L456 887 L457 890 L455 893 L449 911 L445 927 L445 931 L443 937 L443 948 L444 947 L445 935 L454 903 L460 891 L464 885 L467 883 L468 886 L462 899 L452 932 L450 948 L449 949 L449 957 L448 958 L447 980 L446 981 L446 990 L445 991 L445 1001 L444 1002 L442 1026 L441 1027 L440 1037 L438 1042 L438 1046 L434 1062 L427 1083 L424 1097 L430 1081 L430 1078 L436 1061 L440 1040 L442 1035 L442 1031 L443 1030 L443 1024 L444 1023 L446 1004 L447 1003 L447 995 L448 994 L451 953 L452 952 L452 945 L453 944 L456 926 L461 911 L469 897 L471 895 L473 895 L475 898 L469 914 L467 926 L465 930 L464 939 L466 935 L466 931 L469 924 L470 917 L477 902 L473 890 L469 887 L469 882 L466 875 L456 883 L455 882 L458 876 L461 873 L467 870 L470 871 L470 873 L475 883 L482 893 L495 905 L512 914 L520 917 L537 920 L538 921 L554 922 L555 923 L557 922 L574 922 L575 921 L586 920 L597 917 L612 910 L622 903 L633 892 L638 885 L643 874 L652 883 L651 885 L648 883 L647 884 L645 883 L644 885 L648 892 L647 893 L642 891 L639 896 L642 896 L647 901 L656 917 L663 939 L665 951 L666 951 L661 926 L658 917 L648 897 L649 894 L658 910 L663 916 L665 923 L664 925 L666 927 L668 940 L669 941 L669 946 L670 947 L670 952 L671 953 L670 962 L670 958 L671 957 L672 958 L674 985 L675 986 L675 1026 L672 1033 L670 1054 L667 1066 L666 1077 L665 1078 L660 1107 L655 1124 L653 1137 L648 1152 L644 1159 L636 1180 L631 1190 L624 1199 L623 1198 L623 1193 L624 1192 L625 1184 L631 1168 L636 1159 L639 1147 L639 1142 L646 1123 L647 1116 L651 1104 L653 1089 L651 1093 L651 1097 L647 1113 L635 1150 L627 1170 L623 1177 L623 1179 L616 1192 L597 1222 L585 1238 L574 1251 L561 1264 L553 1270 L549 1276 L547 1272 L547 1267 L555 1259 L555 1256 L567 1241 L568 1238 L571 1235 L592 1202 L609 1169 L623 1134 L635 1098 L645 1055 L647 1035 L648 1034 L648 1023 L649 1022 L649 1006 L648 1002 L647 1003 L647 1026 L646 1027 L645 1042 L644 1043 L643 1054 L642 1055 L642 1059 L641 1060 L641 1064 L635 1090 L628 1110 L628 1113 L626 1116 L622 1130 L615 1146 L614 1151 L604 1172 L604 1174 L592 1197 L561 1245 L559 1247 L558 1245 L555 1249 L555 1252 L549 1261 L532 1277 L525 1282 L512 1288 L511 1287 L518 1272 L518 1270 L531 1257 L555 1222 L579 1181 L593 1151 L592 1151 L587 1161 L587 1163 L583 1169 L583 1171 L578 1178 L570 1194 L551 1225 L537 1245 L524 1261 L502 1283 L482 1299 L481 1298 L482 1292 L484 1290 L488 1280 L510 1248 L531 1220 L556 1180 L581 1131 L583 1124 L590 1109 L592 1101 L594 1098 L604 1064 L607 1042 L608 1041 L608 1033 L609 1032 L608 1030 L609 1027 L609 967 L608 966 L608 951 L604 935 L606 933 L614 950 L615 958 L618 968 L618 973 L619 974 L620 996 L621 997 L621 1030 L620 1031 L619 1050 L618 1051 L618 1056 L617 1057 L613 1079 L611 1083 L609 1094 L606 1101 L601 1121 L592 1139 L591 1144 L599 1129 L607 1106 L607 1103 L615 1078 L618 1061 L620 1056 L620 1051 L621 1050 L622 1034 L623 1033 L623 1019 L624 1018 L624 999 L623 998 L623 987 L622 986 L622 979 L620 972 L620 965 L613 937 L612 922 L610 921 L610 931 L609 932 L606 928 L606 923 L604 922 L603 925 L599 923 L598 926 L601 933 L600 934 L595 927 L596 926 L593 927 L593 929 L597 935 L600 944 L599 948 L600 946 L601 947 L600 958 L601 957 L601 952 L602 951 L603 952 L605 968 L606 969 L607 1036 L606 1037 L604 1056 L594 1091 L592 1094 L589 1105 L577 1132 L577 1134 L552 1182 L529 1218 L527 1220 L526 1219 L525 1220 L526 1222 L513 1240 L511 1242 L510 1241 L511 1242 L505 1250 L471 1284 L460 1291 L458 1291 L446 1297 L429 1301 L420 1301 L419 1302 L418 1301 L417 1302 L415 1300 L428 1290 L470 1247 L496 1214 L524 1171 L536 1150 L556 1107 L571 1063 L574 1050 L574 1045 L576 1040 L576 1033 L573 1049 L571 1054 L571 1058 L567 1068 L567 1071 L565 1074 L565 1077 L563 1080 L562 1085 L560 1088 L559 1093 L549 1118 L539 1139 L512 1186 L493 1214 L470 1243 L440 1274 L432 1281 L424 1286 L413 1291 L405 1293 L392 1294 L391 1295 L377 1295 L376 1294 L391 1283 L422 1257 L451 1227 L479 1192 L491 1174 L510 1141 L509 1141 L500 1157 L495 1163 L489 1175 L466 1207 L444 1232 L425 1251 L399 1273 L385 1282 L378 1284 L372 1288 L353 1294 L350 1293 L365 1273 L388 1237 L390 1235 L391 1236 L390 1234 L421 1190 L451 1138 L468 1102 L476 1082 L486 1049 L486 1045 L489 1036 L491 1020 L492 1019 L492 1012 L493 1011 L497 978 L498 977 L498 973 L499 972 L503 951 L506 945 L507 946 L506 943 L510 934 L518 925 L517 924 L514 925 L508 933 L507 932 L508 921 L507 921 L499 931 L496 937 L494 953 L493 954 L493 962 L492 963 L492 984 L493 985 L493 990 L492 991 L492 999 L491 1000 L488 1028 L478 1068 L462 1110 L438 1157 L418 1190 L384 1238 L368 1263 L365 1265 L356 1281 L345 1296 L344 1292 L345 1291 L347 1278 L359 1251 L361 1249 L362 1250 L361 1248 L362 1247 L363 1248 L362 1246 L371 1232 L370 1229 L371 1223 L369 1221 L387 1198 L409 1164 L428 1129 L428 1127 L435 1114 L435 1112 L446 1088 L457 1053 L461 1032 L462 1031 L462 1027 L463 1026 L463 1022 L464 1021 L466 1002 L467 1001 L467 992 L468 991 L469 964 L470 963 L470 956 L471 955 L472 945 L478 924 L485 913 L484 912 L486 910 L488 910 L486 906 L482 909 L481 908 L481 904 L480 904 L468 953 L464 1005 L463 1006 L459 1033 L452 1061 L443 1088 L434 1108 L434 1110 L414 1150 L384 1198 L369 1218 L360 1227 L362 1227 L368 1222 L369 1223 L369 1227 L368 1228 L369 1232 L358 1249 L349 1266 L346 1274 L344 1285 L342 1288 L338 1273 L335 1269 L336 1268 L338 1247 L337 1247 L335 1251 L334 1265 L331 1272 L331 1277 L330 1278 L327 1269 L327 1261 L325 1254 L325 1248 L323 1243 L327 1234 L329 1223 L332 1217 L332 1211 L335 1205 L337 1196 L338 1195 L339 1197 L343 1190 L344 1185 L349 1174 L349 1171 L354 1160 L360 1140 L362 1137 L376 1087 L376 1083 L380 1067 L380 1062 L381 1061 L381 1056 L382 1055 L382 1050 L383 1049 L383 1044 L384 1043 L385 1031 L386 1030 L386 1024 L387 1023 L387 1017 L388 1016 L388 1010 L389 1009 L389 1003 L391 995 L391 988 L392 987 L392 980 L393 979 L394 966 L396 959 L396 953 L397 952 L398 942 L400 937 L400 933 L407 905 L409 902 L409 899 L419 871 L430 848 L438 835 L451 819 L461 809 L479 796 L489 792 L506 789 Z M638 787 L639 786 L640 787 L639 788 Z M599 787 L600 786 L602 787 L601 788 Z M523 787 L524 786 L526 787 L525 788 Z M490 787 L491 786 L502 786 L503 787 L502 788 L491 788 Z M636 786 L637 785 L638 786 L637 787 Z M602 786 L603 785 L604 786 L603 787 Z M521 786 L522 785 L524 786 L523 787 Z M828 784 L834 791 L842 808 L844 817 L847 824 L848 831 L850 835 L850 839 L853 850 L853 856 L854 857 L855 880 L856 881 L856 921 L855 922 L854 946 L853 947 L853 954 L852 955 L852 966 L850 967 L850 971 L849 972 L846 1002 L845 1003 L845 1008 L844 1009 L841 1028 L839 1033 L839 1037 L827 1078 L795 1155 L792 1165 L792 1169 L779 1188 L773 1194 L772 1192 L785 1166 L790 1148 L801 1121 L801 1118 L803 1115 L805 1106 L807 1103 L807 1100 L813 1084 L814 1077 L816 1073 L829 1021 L831 1006 L833 1000 L834 988 L835 987 L835 981 L836 980 L838 953 L839 952 L839 940 L840 939 L840 924 L841 923 L841 885 L840 884 L839 864 L838 863 L836 846 L829 822 L825 812 L820 804 L820 802 L818 800 L815 792 L813 790 L825 784 L827 785 Z M747 785 L749 784 L752 787 L750 789 Z M620 786 L622 784 L625 788 L629 788 L635 791 L637 790 L643 794 L648 799 L645 802 L650 810 L649 811 L644 806 L645 805 L644 806 L626 790 L624 791 Z M604 785 L605 784 L606 785 L605 786 Z M519 785 L520 784 L522 785 L521 786 Z M826 784 L827 783 L828 784 L827 785 Z M746 784 L747 783 L748 784 L747 785 Z M369 784 L370 783 L371 784 L370 785 Z M627 783 L633 781 L637 785 L635 786 L632 784 L628 784 Z M452 782 L454 780 L457 781 L454 783 Z M839 777 L847 787 L850 794 L857 817 L859 820 L860 831 L863 844 L864 862 L865 863 L865 870 L866 871 L866 884 L867 885 L867 919 L866 920 L864 956 L863 957 L862 973 L861 974 L860 987 L859 988 L859 993 L858 994 L855 1014 L853 1019 L853 1023 L849 1039 L847 1043 L846 1040 L846 1048 L844 1053 L843 1063 L835 1089 L835 1092 L825 1121 L816 1140 L816 1142 L810 1154 L794 1180 L793 1179 L794 1167 L798 1157 L798 1154 L819 1100 L830 1075 L834 1059 L837 1052 L838 1045 L840 1041 L841 1033 L846 1014 L847 1002 L848 1001 L851 967 L853 965 L853 960 L854 959 L856 931 L857 930 L857 915 L858 914 L857 862 L856 861 L856 853 L855 852 L853 838 L851 833 L852 827 L848 812 L847 811 L846 813 L845 812 L841 800 L834 788 L836 783 L835 782 L835 786 L834 787 L830 782 L837 777 Z M660 778 L661 777 L662 778 L661 779 Z M664 777 L665 776 L666 777 L665 778 Z M466 777 L467 776 L470 777 L469 778 Z M655 776 L658 775 L660 777 L658 778 Z M630 776 L631 775 L634 776 L633 777 Z M829 775 L830 774 L833 775 L832 776 Z M732 775 L733 774 L734 775 L733 776 Z M636 775 L637 774 L638 775 L637 776 Z M832 774 L833 773 L834 774 L833 775 Z M641 774 L642 773 L644 774 L643 775 Z M270 773 L266 781 L265 787 L270 777 Z M294 772 L295 771 L297 772 L296 773 Z M450 771 L441 777 L419 799 L412 808 L399 831 L392 851 L392 854 L393 854 L402 828 L412 812 L435 786 L446 777 L450 775 L451 773 Z M292 771 L293 770 L295 771 L294 772 Z M871 769 L872 768 L873 770 L872 771 Z M503 768 L504 767 L505 768 L504 769 Z M870 767 L871 766 L872 767 L871 768 Z M622 767 L623 766 L624 767 L623 768 Z M265 767 L266 766 L267 767 L266 768 Z M853 765 L856 766 L865 781 L870 796 L874 813 L874 818 L876 825 L876 833 L877 834 L877 845 L878 846 L878 916 L879 917 L879 909 L880 908 L880 841 L879 840 L879 830 L878 829 L877 816 L875 809 L875 804 L877 802 L876 801 L876 803 L875 804 L874 803 L874 800 L876 798 L874 795 L875 791 L874 790 L873 776 L872 775 L873 771 L875 775 L875 780 L878 789 L877 790 L878 791 L880 808 L882 812 L882 815 L881 816 L879 815 L881 837 L880 823 L882 817 L887 832 L892 841 L893 848 L897 858 L898 872 L899 873 L899 885 L900 886 L901 932 L902 933 L902 955 L901 956 L902 974 L901 976 L903 977 L900 1007 L899 1008 L896 1032 L895 1033 L894 1043 L889 1063 L889 1067 L884 1084 L883 1083 L883 1078 L884 1077 L886 1048 L887 1047 L889 1010 L890 1009 L890 993 L891 992 L891 973 L892 972 L892 924 L891 923 L890 894 L889 893 L889 887 L887 879 L888 902 L889 903 L890 952 L889 953 L889 978 L888 979 L888 995 L887 996 L887 1013 L886 1014 L886 1027 L885 1028 L885 1039 L884 1040 L882 1069 L881 1070 L879 1090 L878 1091 L878 1096 L877 1097 L873 1121 L864 1145 L855 1162 L854 1161 L854 1156 L855 1155 L858 1133 L860 1127 L860 1121 L861 1120 L861 1115 L864 1102 L864 1096 L865 1095 L865 1089 L866 1088 L867 1075 L868 1074 L868 1067 L869 1066 L869 1059 L870 1058 L871 1036 L872 1035 L872 1021 L873 1020 L873 1001 L872 1001 L870 1038 L869 1039 L869 1048 L868 1049 L865 1081 L864 1082 L864 1088 L863 1089 L863 1094 L862 1095 L862 1100 L861 1101 L861 1106 L858 1119 L858 1125 L857 1126 L857 1131 L856 1132 L853 1154 L852 1155 L851 1154 L851 1147 L850 1146 L848 1113 L847 1112 L845 1090 L844 1089 L842 1075 L846 1063 L846 1059 L855 1026 L855 1022 L857 1017 L857 1013 L861 997 L864 972 L865 971 L865 963 L866 962 L868 925 L869 924 L869 880 L868 879 L868 869 L867 868 L867 859 L866 858 L864 839 L856 808 L856 804 L850 787 L845 778 L845 776 L843 774 L844 772 Z M266 766 L267 765 L268 766 L267 767 Z M714 764 L715 763 L716 764 L715 765 Z M677 763 L678 762 L679 763 L678 764 Z M717 761 L718 760 L719 761 L718 762 Z M270 760 L272 762 L268 766 L267 764 Z M716 760 L717 759 L718 760 L717 761 Z M690 760 L691 759 L692 760 L691 761 Z M673 761 L675 759 L678 762 L676 763 Z M672 760 L673 759 L674 760 L673 761 Z M715 759 L716 758 L717 759 L716 760 Z M689 759 L690 758 L691 759 L690 760 Z M449 759 L450 758 L452 760 L450 761 Z M865 756 L869 767 L870 778 L872 784 L872 789 L871 790 L865 774 L863 772 L859 763 L859 761 Z M668 757 L668 759 L661 768 L648 774 L644 773 L654 769 L661 764 L667 756 Z M667 755 L668 754 L669 756 L668 757 Z M448 755 L449 754 L450 755 L449 756 Z M437 754 L438 753 L439 754 L438 755 Z M261 753 L268 759 L265 761 L261 772 L252 790 L251 795 L243 814 L240 825 L234 840 L234 843 L230 854 L222 886 L217 919 L216 920 L213 961 L212 962 L211 990 L210 991 L209 990 L209 973 L208 972 L208 922 L209 921 L209 908 L210 907 L211 889 L212 888 L212 882 L213 881 L215 866 L222 838 L224 834 L225 827 L241 782 L250 764 Z M438 753 L439 752 L442 753 L441 754 Z M669 751 L670 752 L669 755 L668 754 Z M258 752 L259 751 L260 752 L259 753 Z M675 748 L676 747 L686 753 L689 757 L687 759 L678 759 L677 758 L674 759 L673 757 L675 753 Z M256 747 L259 751 L254 754 L253 751 Z M670 746 L671 747 L670 751 L669 750 Z M440 746 L441 747 L434 752 L404 783 L392 798 L384 810 L377 824 L372 838 L372 841 L370 845 L371 845 L373 841 L377 828 L383 815 L392 801 L405 785 L428 762 L437 757 L441 756 L443 753 L441 752 L443 750 L448 749 L449 750 L449 754 L447 755 L448 758 L429 773 L412 790 L404 800 L390 822 L373 859 L373 862 L364 887 L361 901 L359 905 L357 917 L354 926 L354 930 L352 935 L352 939 L350 944 L350 949 L348 954 L348 958 L344 974 L344 979 L342 984 L342 989 L339 1000 L339 1006 L338 1007 L335 1031 L332 1043 L332 1049 L331 1050 L331 1056 L329 1063 L329 1070 L327 1077 L327 1083 L326 1084 L326 1090 L325 1091 L322 1114 L320 1120 L320 1125 L319 1126 L319 1131 L318 1132 L315 1151 L312 1160 L312 1164 L310 1167 L311 1168 L313 1165 L313 1162 L316 1155 L317 1146 L322 1126 L324 1109 L325 1108 L327 1093 L329 1087 L329 1082 L330 1081 L330 1076 L331 1075 L331 1069 L333 1062 L333 1056 L335 1049 L335 1043 L336 1042 L336 1036 L338 1029 L338 1023 L339 1022 L342 999 L343 998 L344 988 L345 987 L354 938 L356 933 L356 929 L366 889 L374 865 L384 840 L391 826 L405 803 L412 794 L430 776 L440 769 L452 764 L464 774 L452 780 L453 783 L440 792 L427 805 L414 823 L400 849 L394 864 L384 896 L381 912 L379 917 L378 926 L377 927 L376 937 L374 942 L371 964 L374 956 L374 950 L375 949 L380 920 L383 911 L383 907 L385 903 L386 896 L396 864 L409 836 L421 817 L427 809 L443 793 L458 784 L473 779 L476 780 L471 783 L464 785 L454 793 L441 808 L435 818 L445 808 L444 807 L446 805 L447 806 L446 805 L456 795 L464 789 L485 780 L490 780 L494 782 L482 787 L482 789 L487 787 L491 788 L485 790 L471 798 L457 809 L443 824 L431 841 L420 863 L414 878 L404 909 L395 948 L392 973 L391 974 L390 986 L389 987 L389 993 L388 994 L388 1000 L387 1001 L386 1013 L385 1014 L385 1020 L384 1021 L384 1027 L383 1028 L382 1040 L380 1047 L380 1053 L379 1054 L378 1065 L377 1066 L374 1085 L372 1090 L372 1094 L368 1110 L341 1191 L340 1192 L339 1188 L338 1188 L330 1210 L330 1214 L327 1221 L321 1245 L313 1258 L311 1251 L310 1228 L307 1215 L314 1194 L316 1191 L317 1185 L327 1160 L330 1149 L340 1124 L340 1121 L347 1100 L347 1094 L336 1130 L334 1133 L321 1170 L317 1178 L309 1203 L304 1210 L302 1208 L302 1212 L299 1215 L298 1214 L299 1215 L296 1218 L295 1215 L299 1202 L300 1182 L301 1181 L299 1134 L300 1133 L300 1129 L302 1123 L302 1116 L303 1115 L304 1091 L305 1090 L308 1064 L310 1058 L312 1040 L314 1033 L315 1019 L317 1011 L317 1004 L318 1003 L318 996 L319 995 L319 988 L320 987 L323 962 L330 934 L330 930 L332 925 L332 921 L335 913 L335 906 L331 919 L330 928 L327 936 L324 952 L322 957 L321 966 L320 967 L311 1040 L310 1041 L308 1057 L304 1073 L304 1079 L303 1080 L302 1092 L301 1093 L299 1121 L296 1133 L295 1132 L295 1118 L294 1117 L292 1096 L291 1095 L290 1084 L287 1074 L286 1064 L284 1059 L284 1052 L283 1051 L281 1028 L280 1027 L280 1014 L279 1013 L279 957 L280 956 L280 942 L279 943 L278 967 L277 968 L277 1020 L278 1021 L278 1033 L279 1034 L279 1043 L280 1044 L282 1061 L270 1113 L270 1118 L269 1119 L268 1130 L265 1143 L263 1170 L262 1171 L260 1163 L259 1135 L258 1134 L258 1114 L259 1113 L259 1102 L260 1101 L261 1082 L262 1081 L262 1066 L259 1094 L258 1095 L258 1103 L257 1104 L257 1114 L256 1115 L256 1145 L257 1146 L257 1157 L258 1158 L258 1167 L259 1168 L259 1176 L258 1177 L254 1170 L254 1168 L250 1161 L245 1148 L244 1095 L243 1094 L243 1054 L242 1053 L242 999 L241 999 L241 1023 L240 1024 L241 1126 L242 1127 L242 1135 L241 1136 L237 1124 L234 1097 L232 1090 L232 1079 L231 1078 L230 1049 L229 1048 L229 971 L230 970 L230 956 L231 955 L232 934 L233 933 L233 926 L234 925 L235 911 L237 903 L236 900 L234 908 L233 920 L232 921 L231 935 L230 936 L228 966 L227 967 L227 982 L226 983 L226 1046 L227 1047 L227 1065 L228 1066 L228 1077 L229 1078 L229 1090 L230 1091 L230 1098 L231 1099 L230 1103 L225 1089 L224 1081 L221 1072 L221 1068 L219 1063 L218 1053 L216 1047 L215 1034 L214 1033 L214 1009 L213 1008 L213 1003 L214 1002 L215 946 L216 945 L216 935 L217 934 L217 926 L218 925 L220 904 L222 899 L226 877 L228 873 L230 861 L235 847 L235 844 L243 820 L255 790 L263 775 L275 764 L283 769 L284 771 L281 774 L278 781 L276 783 L263 812 L262 818 L257 832 L257 835 L255 839 L255 843 L251 859 L247 892 L246 893 L246 901 L245 902 L245 910 L244 911 L244 922 L243 923 L243 934 L242 935 L242 953 L241 954 L241 984 L242 984 L243 948 L244 947 L244 935 L245 934 L247 904 L248 903 L248 896 L249 895 L249 888 L250 887 L253 862 L262 824 L276 786 L279 781 L284 776 L290 775 L291 776 L288 779 L284 788 L282 790 L282 792 L273 810 L262 839 L259 852 L259 857 L258 858 L256 879 L254 885 L254 892 L258 878 L259 864 L260 863 L264 840 L280 798 L288 784 L292 780 L296 778 L303 782 L305 782 L307 784 L302 789 L298 798 L290 810 L285 821 L283 823 L283 825 L276 840 L267 867 L266 875 L264 879 L264 883 L261 894 L261 898 L260 899 L258 921 L257 922 L257 931 L256 932 L256 942 L255 943 L255 959 L254 960 L254 1011 L255 1012 L256 1058 L257 1059 L258 1079 L259 1077 L259 1067 L258 1066 L257 1012 L256 1011 L256 979 L257 978 L258 939 L259 938 L261 911 L262 910 L263 897 L264 896 L267 877 L273 859 L273 856 L281 834 L292 811 L302 796 L312 785 L325 788 L327 790 L306 822 L292 851 L290 859 L286 868 L286 871 L284 875 L280 891 L277 912 L276 913 L276 919 L275 920 L275 933 L282 889 L287 874 L287 871 L295 849 L311 818 L314 815 L322 802 L335 789 L338 790 L328 811 L326 813 L326 815 L316 837 L307 863 L307 866 L305 870 L301 886 L298 914 L297 915 L297 922 L296 923 L296 931 L295 932 L295 941 L294 942 L291 988 L293 988 L293 974 L294 973 L295 951 L296 950 L296 940 L297 939 L297 931 L298 930 L298 923 L299 922 L299 915 L300 914 L300 906 L302 900 L302 893 L303 892 L304 882 L310 863 L310 860 L324 822 L336 800 L337 801 L336 799 L337 798 L338 799 L337 798 L340 793 L340 791 L344 789 L352 789 L353 788 L355 789 L352 791 L350 798 L342 809 L331 830 L319 861 L312 889 L311 900 L309 905 L309 910 L307 917 L307 924 L306 925 L306 932 L305 933 L305 940 L304 941 L303 956 L302 957 L302 964 L301 965 L301 973 L300 974 L300 983 L299 984 L298 1015 L297 1016 L297 1048 L298 1048 L299 1011 L300 1010 L301 985 L302 984 L302 977 L303 976 L303 969 L304 968 L304 961 L306 953 L306 946 L307 945 L308 930 L309 929 L312 904 L313 903 L316 884 L321 864 L328 843 L335 829 L335 827 L344 811 L355 795 L364 785 L369 784 L370 785 L368 786 L365 794 L362 797 L352 814 L343 833 L335 859 L332 865 L332 869 L327 883 L325 895 L327 894 L334 865 L338 856 L345 833 L352 818 L361 803 L366 797 L370 789 L380 778 L395 768 L410 754 L426 746 L429 747 L414 757 L389 780 L372 801 L360 820 L349 841 L349 843 L340 863 L338 871 L336 874 L327 904 L327 908 L322 927 L322 934 L323 934 L327 911 L330 903 L332 892 L343 860 L346 855 L349 846 L365 816 L383 791 L406 767 L425 753 L436 747 Z M257 747 L258 746 L259 747 L258 748 Z M685 745 L700 754 L711 764 L734 791 L743 806 L757 837 L763 856 L769 885 L769 876 L768 875 L765 856 L751 816 L735 788 L718 767 L719 766 L726 771 L731 777 L734 777 L733 776 L735 775 L736 778 L746 788 L763 821 L766 833 L769 840 L769 843 L770 843 L770 840 L765 821 L750 790 L752 787 L762 799 L773 818 L784 851 L788 873 L789 874 L790 887 L791 888 L792 908 L793 909 L793 960 L792 961 L792 971 L791 972 L790 990 L789 991 L789 997 L788 998 L785 1021 L784 1022 L778 1056 L775 1065 L772 1081 L767 1094 L764 1108 L753 1141 L729 1201 L728 1202 L727 1199 L725 1201 L724 1205 L701 1251 L688 1264 L668 1274 L664 1273 L668 1264 L667 1262 L675 1255 L683 1244 L691 1228 L688 1230 L682 1241 L673 1253 L665 1261 L648 1273 L632 1280 L631 1276 L635 1268 L635 1265 L634 1267 L633 1266 L634 1261 L639 1255 L641 1257 L656 1242 L668 1225 L680 1202 L680 1200 L684 1193 L684 1191 L691 1177 L691 1175 L693 1173 L696 1163 L698 1160 L698 1157 L700 1154 L706 1136 L706 1133 L717 1101 L717 1098 L720 1092 L726 1066 L729 1042 L730 1041 L731 1026 L732 1025 L733 982 L732 981 L732 974 L731 975 L731 1020 L730 1021 L728 1045 L727 1046 L723 1073 L719 1089 L717 1093 L717 1096 L715 1100 L715 1103 L712 1109 L697 1157 L693 1165 L691 1173 L687 1179 L679 1199 L667 1223 L656 1239 L652 1242 L641 1255 L640 1253 L647 1241 L651 1231 L653 1229 L653 1227 L664 1202 L676 1165 L683 1137 L686 1117 L687 1116 L687 1111 L688 1110 L688 1104 L689 1103 L689 1096 L690 1095 L690 1088 L691 1087 L691 1077 L692 1076 L692 1064 L693 1063 L693 1040 L694 1039 L693 998 L692 997 L691 978 L690 977 L690 970 L689 969 L689 963 L688 962 L688 956 L687 955 L685 940 L679 918 L679 914 L671 889 L666 881 L658 861 L648 848 L645 842 L626 822 L612 811 L603 800 L600 794 L602 792 L606 791 L609 795 L617 801 L633 817 L610 790 L616 786 L619 790 L638 804 L647 813 L660 830 L670 850 L670 852 L672 854 L680 877 L687 905 L691 934 L693 937 L693 941 L695 946 L690 913 L687 903 L685 889 L682 881 L682 877 L675 855 L668 839 L669 838 L671 840 L677 854 L678 854 L677 847 L665 825 L648 803 L648 800 L651 799 L662 810 L657 802 L637 782 L639 780 L647 782 L655 788 L658 789 L679 809 L693 830 L698 841 L701 851 L701 846 L697 834 L686 816 L666 793 L647 779 L653 777 L655 779 L665 783 L675 790 L689 805 L706 832 L715 854 L724 892 L726 913 L727 914 L728 945 L729 948 L729 920 L728 919 L726 894 L725 893 L724 882 L717 853 L708 830 L696 810 L688 799 L666 778 L668 776 L668 774 L664 771 L671 763 L679 767 L690 775 L707 793 L724 819 L737 848 L745 874 L748 895 L749 896 L750 909 L751 910 L752 928 L753 929 L753 945 L754 946 L754 978 L755 981 L754 982 L753 1015 L752 1016 L752 1025 L751 1026 L751 1034 L750 1035 L750 1041 L748 1048 L748 1054 L747 1055 L747 1059 L746 1060 L746 1064 L745 1065 L741 1086 L730 1120 L728 1122 L729 1124 L737 1105 L737 1102 L741 1092 L745 1076 L745 1072 L749 1058 L752 1034 L753 1033 L753 1026 L754 1025 L754 1017 L755 1016 L756 987 L757 986 L757 950 L756 949 L756 934 L755 933 L755 922 L754 921 L754 914 L753 913 L753 905 L752 904 L750 886 L749 885 L745 864 L733 832 L725 816 L714 798 L703 784 L680 762 L681 761 L690 761 L710 779 L728 802 L746 835 L759 872 L765 898 L765 904 L766 905 L766 911 L768 919 L768 930 L769 931 L769 979 L768 980 L767 1002 L766 1003 L765 1021 L764 1022 L764 1030 L763 1031 L763 1040 L761 1047 L760 1062 L761 1061 L763 1045 L764 1044 L768 1001 L769 1000 L769 991 L770 990 L771 957 L772 956 L771 927 L770 926 L770 916 L769 915 L768 901 L759 865 L757 862 L747 833 L734 808 L716 783 L692 756 L681 747 Z M428 746 L429 745 L431 746 L430 747 Z M418 746 L419 745 L420 746 L419 747 Z M256 746 L257 745 L258 746 L257 747 Z M235 746 L236 745 L237 746 L236 747 Z M430 745 L431 744 L432 745 L431 746 Z M877 743 L879 744 L879 750 L883 760 L882 752 L883 751 L884 752 L884 756 L886 761 L886 765 L890 781 L889 785 L892 796 L896 825 L902 849 L904 874 L905 875 L905 886 L906 887 L906 940 L905 941 L903 935 L902 880 L901 879 L901 866 L900 865 L899 854 L895 840 L891 835 L891 833 L889 831 L886 823 L880 787 L877 779 L877 775 L872 760 L865 756 Z M681 744 L682 743 L684 744 L683 745 Z M678 743 L679 742 L682 743 L681 744 Z M675 742 L676 741 L679 742 L678 743 Z M453 742 L454 741 L455 742 L455 749 L459 759 L466 767 L470 769 L478 769 L481 766 L488 763 L493 765 L495 768 L498 767 L520 784 L517 785 L509 781 L503 780 L499 778 L479 775 L467 771 L461 767 L456 761 L453 752 Z M449 741 L448 744 L443 744 L442 743 L447 740 Z M881 738 L883 741 L883 751 L882 752 L881 751 L881 744 L879 741 Z M246 737 L254 747 L252 749 L248 763 L238 783 L232 801 L230 804 L226 818 L224 821 L211 872 L209 869 L209 865 L208 864 L208 856 L210 855 L212 830 L213 829 L214 816 L218 801 L218 797 L220 793 L222 782 L231 757 L238 747 L239 749 L235 760 L233 770 L240 754 L242 743 L245 739 L246 740 L245 739 Z M454 737 L455 736 L456 738 L455 739 Z M455 733 L456 732 L457 733 L456 734 Z M242 731 L246 737 L242 739 L237 745 L236 744 L240 733 Z M222 726 L223 725 L224 726 L223 727 Z M890 723 L892 725 L896 739 L901 779 L902 780 L903 792 L904 793 L904 808 L905 812 L905 809 L906 808 L907 809 L908 849 L906 857 L905 856 L905 848 L903 840 L902 819 L901 815 L899 814 L900 815 L900 822 L899 823 L898 822 L897 811 L893 796 L893 786 L890 777 L888 757 L885 746 L885 741 L883 736 Z M236 725 L234 726 L231 724 L229 726 L229 729 L224 741 L221 757 L223 755 L225 745 L231 729 Z M223 723 L224 722 L225 724 L224 725 Z M233 717 L238 724 L239 729 L235 737 L232 749 L223 770 L222 777 L217 793 L216 802 L213 812 L211 830 L210 831 L209 854 L208 855 L207 854 L207 839 L206 838 L207 836 L207 817 L208 816 L208 808 L210 801 L209 797 L210 796 L210 787 L212 780 L213 767 L218 746 L221 740 L219 739 L220 734 Z M894 714 L899 725 L906 755 L906 761 L907 762 L907 789 L906 790 L902 773 L902 767 L900 762 L898 735 L895 724 L892 721 L892 718 Z M229 708 L232 715 L225 723 L224 722 L225 715 Z M230 698 L231 697 L232 699 L231 700 Z M503 697 L504 696 L505 697 L504 698 Z M229 696 L230 695 L231 696 L230 697 Z M486 695 L469 705 L459 715 L455 721 L449 738 L444 739 L441 741 L431 742 L421 746 L419 745 L446 717 L465 701 L479 694 L485 694 Z M665 694 L666 693 L672 693 L681 696 L693 703 L713 722 L722 733 L745 756 L756 764 L775 774 L792 779 L812 779 L827 775 L830 776 L828 778 L811 786 L790 791 L775 790 L759 785 L743 776 L731 767 L709 745 L683 709 L671 698 Z M641 694 L642 693 L654 693 L657 694 L673 705 L682 714 L704 745 L716 758 L714 759 L699 750 L696 747 L690 745 L684 741 L675 738 L669 720 L662 710 L655 703 L642 696 Z M663 693 L664 692 L666 693 L665 694 Z M477 690 L464 696 L460 699 L449 710 L440 717 L397 761 L381 773 L368 780 L348 785 L329 785 L312 781 L296 773 L300 772 L311 775 L328 776 L329 775 L342 774 L352 771 L364 765 L381 753 L413 722 L437 703 L440 702 L451 694 L462 689 L470 689 L472 688 Z M917 681 L918 680 L919 681 L918 682 Z M207 675 L208 676 L208 680 L207 681 L206 680 L206 676 Z M621 697 L623 690 L627 683 L635 675 L647 668 L649 669 L648 670 L650 670 L654 667 L663 666 L664 665 L685 666 L686 667 L700 669 L718 675 L743 688 L778 714 L792 723 L813 733 L824 736 L832 736 L833 737 L852 735 L861 732 L870 727 L883 714 L890 701 L894 696 L895 699 L889 717 L882 730 L872 744 L859 756 L845 765 L828 772 L816 775 L811 775 L810 776 L795 776 L794 775 L785 774 L774 770 L752 757 L731 738 L704 708 L693 699 L681 692 L672 689 L669 690 L668 689 L657 689 L656 688 L650 689 L649 688 L648 689 L637 689 L629 693 L622 699 Z M641 665 L642 664 L643 665 L642 666 Z M503 691 L501 693 L493 689 L464 687 L463 686 L457 687 L451 690 L448 693 L445 694 L422 710 L408 722 L388 742 L370 757 L353 767 L336 772 L313 772 L312 771 L307 771 L290 766 L274 758 L259 746 L248 734 L237 717 L231 702 L232 699 L237 706 L253 722 L267 730 L278 733 L300 733 L315 729 L328 723 L387 684 L415 671 L433 666 L445 665 L446 664 L462 664 L463 665 L469 665 L477 668 L480 668 L479 666 L481 665 L485 668 L484 669 L486 669 L498 681 Z M668 662 L669 661 L672 662 L671 663 Z M473 662 L475 661 L480 665 L478 666 Z M481 661 L482 660 L483 661 L482 662 Z M461 661 L462 660 L465 661 L464 662 Z M480 660 L481 659 L482 660 L481 661 Z M470 660 L472 659 L474 661 L472 662 Z M478 659 L479 658 L481 659 L480 660 Z M468 659 L469 658 L471 659 L470 660 Z M477 658 L478 657 L479 658 L478 659 Z M466 658 L467 657 L469 658 L468 659 Z M475 657 L476 656 L478 657 L477 658 Z M473 656 L474 655 L476 656 L475 657 Z M472 655 L473 654 L474 655 L473 656 Z M468 653 L469 652 L471 653 L470 654 Z M466 652 L467 651 L469 652 L468 653 Z M465 651 L466 650 L467 651 L466 652 Z M200 646 L201 645 L202 647 L201 648 Z M200 641 L201 642 L200 645 L199 644 Z M924 623 L925 624 L925 629 L922 639 L922 643 L920 647 L919 643 Z M925 619 L926 620 L925 624 L924 623 Z M220 631 L223 622 L223 618 L226 616 L227 617 L227 633 L228 637 L233 648 L238 655 L248 664 L253 667 L263 671 L271 672 L272 673 L279 673 L280 674 L298 674 L299 673 L314 672 L330 667 L333 667 L369 654 L384 652 L385 651 L393 651 L394 650 L417 650 L418 651 L435 652 L456 657 L462 660 L457 662 L435 663 L410 670 L387 681 L335 716 L318 725 L302 730 L283 731 L282 730 L273 729 L259 723 L240 704 L236 696 L232 691 L230 684 L223 670 L222 658 L221 657 L221 647 L220 646 Z M223 614 L224 613 L225 615 L224 616 Z M194 612 L200 637 L200 641 L199 642 L197 639 L194 628 L194 623 L193 622 L193 613 Z M908 605 L909 604 L910 605 L909 606 Z M922 603 L923 604 L923 613 L921 618 L920 628 L916 643 L916 648 L915 649 L915 654 L914 655 L914 660 L913 661 L913 666 L912 667 L912 672 L911 673 L910 684 L907 697 L907 704 L906 705 L906 734 L905 735 L900 718 L896 711 L896 708 L901 694 L903 679 L904 678 L904 671 L905 670 L908 611 Z M199 603 L213 611 L218 667 L219 668 L221 682 L227 700 L227 703 L223 711 L223 714 L217 731 L216 730 L216 710 L215 709 L214 692 L213 691 L207 650 L204 642 L203 633 L198 613 L198 604 Z M197 603 L198 602 L199 603 L198 604 Z M206 602 L208 601 L210 603 L208 604 Z M191 598 L195 601 L194 612 L193 613 L190 603 L190 599 Z M920 597 L921 596 L923 597 L922 598 Z M922 596 L923 595 L925 596 L924 597 Z M924 595 L925 594 L927 595 L926 596 Z M926 594 L928 592 L931 593 L928 595 Z M930 592 L931 591 L933 592 L932 593 Z M932 591 L933 590 L935 591 L934 592 Z M218 584 L222 586 L228 593 L228 605 L226 613 L225 614 L224 612 L222 615 L221 614 L220 615 L221 614 L222 615 L220 620 L218 616 L218 609 L217 608 L217 585 Z M947 583 L940 589 L936 591 L934 590 L945 582 Z M946 582 L947 581 L948 582 L947 583 Z M947 581 L948 580 L949 581 L948 582 Z M906 581 L905 584 L905 595 L894 600 L890 604 L888 608 L888 617 L891 627 L891 633 L892 636 L893 636 L893 630 L890 618 L890 608 L895 602 L901 599 L904 600 L902 656 L901 657 L901 669 L900 670 L900 677 L897 688 L897 693 L894 694 L893 697 L889 700 L884 709 L871 723 L867 726 L853 732 L844 733 L843 734 L829 734 L810 729 L789 718 L755 693 L738 682 L726 676 L702 667 L690 664 L674 663 L671 661 L683 657 L695 656 L696 655 L725 655 L726 656 L733 656 L751 661 L780 675 L804 684 L817 687 L824 687 L825 688 L849 688 L867 683 L876 677 L881 672 L887 663 L887 661 L890 656 L892 648 L892 639 L891 639 L889 651 L884 663 L871 677 L859 683 L851 685 L843 685 L842 686 L823 685 L822 684 L808 682 L785 674 L747 656 L739 654 L734 654 L733 653 L726 653 L725 652 L697 652 L696 653 L689 653 L688 654 L683 654 L675 656 L649 665 L647 663 L644 665 L642 664 L655 654 L669 647 L687 641 L700 639 L701 638 L706 638 L707 637 L736 637 L737 638 L749 639 L773 648 L785 654 L816 663 L844 664 L845 663 L855 662 L872 654 L877 650 L884 641 L887 634 L887 628 L884 615 L880 606 L881 600 L888 591 L893 588 L895 590 L895 587 L897 585 L901 583 L903 584 L905 580 Z M215 581 L216 580 L217 581 L216 582 Z M397 577 L398 576 L402 576 L403 577 L402 578 L398 578 Z M392 576 L393 575 L397 576 L396 577 Z M954 574 L955 576 L949 581 L948 580 Z M954 574 L955 573 L956 574 L955 575 Z M955 573 L956 572 L957 573 L956 574 Z M956 572 L957 571 L958 572 L957 573 Z M957 570 L958 569 L959 571 L958 572 Z M958 569 L959 568 L960 569 L959 570 Z M214 569 L215 568 L223 577 L231 579 L238 586 L240 592 L232 611 L232 623 L235 629 L245 639 L256 645 L271 649 L277 649 L278 650 L304 650 L305 649 L318 648 L334 644 L363 634 L369 634 L370 633 L400 633 L401 634 L412 634 L413 635 L425 636 L449 642 L463 648 L467 657 L465 658 L452 653 L434 650 L433 649 L428 649 L427 648 L397 647 L396 648 L386 648 L385 649 L377 649 L376 650 L368 651 L326 666 L313 669 L308 669 L307 670 L280 671 L279 670 L273 670 L261 667 L254 664 L245 658 L236 648 L231 639 L229 631 L229 618 L228 617 L228 610 L231 601 L231 595 L230 591 L226 585 L215 576 Z M213 568 L214 567 L215 568 L214 569 Z M959 567 L960 566 L961 568 L960 569 Z M201 564 L202 563 L204 564 L203 565 Z M194 565 L198 563 L200 563 L202 565 L201 566 L195 566 Z M200 563 L201 562 L202 563 L201 564 Z M206 559 L207 561 L204 564 L202 562 Z M206 558 L207 557 L208 559 L207 560 Z M917 557 L918 556 L919 557 L918 558 Z M912 557 L913 556 L920 562 L928 565 L927 566 L919 566 L912 561 Z M517 535 L516 536 L517 538 L516 564 L515 565 L515 571 L512 584 L505 604 L498 618 L485 638 L489 635 L502 615 L512 592 L516 571 L517 570 L518 554 L519 553 Z M610 534 L609 545 L608 546 L608 559 L609 560 L610 575 L614 592 L620 608 L627 621 L638 637 L643 641 L627 617 L619 600 L612 576 L611 563 L610 562 L610 542 L611 541 L611 535 Z M540 520 L541 519 L542 520 L541 521 Z M507 501 L508 500 L509 501 L508 502 Z M621 499 L614 508 L610 516 L607 527 L597 545 L591 550 L583 551 L582 552 L548 552 L539 549 L537 544 L532 546 L522 534 L518 526 L515 514 L508 502 L512 501 L523 506 L534 516 L537 521 L543 522 L544 520 L542 519 L549 516 L557 515 L558 514 L569 514 L585 519 L586 520 L585 521 L581 521 L583 523 L591 521 L606 505 L612 501 L619 498 Z M731 498 L730 499 L726 499 L720 502 L713 509 L710 517 L710 527 L712 532 L718 539 L726 543 L734 544 L741 542 L750 536 L754 530 L756 519 L755 518 L755 514 L752 508 L746 502 L740 499 Z M397 498 L386 502 L379 509 L376 517 L376 526 L381 536 L386 540 L392 543 L406 543 L412 540 L418 534 L421 528 L422 519 L418 508 L412 502 L406 499 Z M741 490 L751 494 L760 503 L764 512 L764 517 L765 518 L764 527 L759 538 L750 547 L744 550 L734 551 L733 552 L732 551 L721 550 L715 547 L707 539 L703 531 L703 527 L702 526 L703 514 L709 502 L717 495 L730 490 Z M483 491 L484 490 L485 491 L484 492 Z M388 491 L401 490 L411 493 L417 497 L425 505 L428 511 L429 519 L430 520 L428 533 L425 539 L417 547 L409 551 L395 552 L387 550 L381 547 L372 538 L367 527 L367 514 L370 506 L377 497 Z M642 490 L643 489 L644 490 L643 491 Z M741 488 L729 488 L716 493 L708 500 L701 513 L700 528 L703 537 L713 548 L721 552 L733 554 L734 553 L744 552 L750 549 L761 539 L766 528 L767 517 L764 505 L756 495 L748 490 Z M387 489 L375 496 L368 505 L364 518 L364 523 L366 531 L370 539 L378 547 L387 552 L394 554 L405 554 L412 552 L419 548 L427 540 L431 532 L431 528 L432 527 L431 513 L426 503 L418 495 L413 492 L401 488 Z M653 485 L654 484 L655 485 L654 486 Z M654 484 L655 483 L656 484 L655 485 Z M471 484 L472 483 L473 484 L472 485 Z M470 483 L471 482 L472 483 L471 484 Z M934 475 L941 478 L945 482 L950 491 L952 499 L952 516 L951 517 L951 521 L945 535 L938 543 L929 549 L921 551 L916 551 L913 549 L913 543 L914 542 L914 533 L915 532 L915 524 L916 523 L920 479 L923 476 L926 475 Z M603 476 L604 475 L605 476 L604 477 Z M186 475 L196 475 L201 478 L202 493 L203 494 L203 504 L204 505 L204 513 L205 514 L205 523 L206 524 L206 533 L207 534 L207 542 L208 543 L208 549 L204 551 L193 549 L181 541 L175 533 L170 520 L169 502 L170 501 L171 492 L177 481 L180 478 Z M417 462 L418 461 L419 462 L418 463 Z M948 455 L955 458 L961 463 L966 471 L970 484 L970 489 L971 490 L971 517 L970 518 L970 525 L969 526 L969 531 L968 532 L968 537 L961 559 L952 573 L943 581 L934 587 L915 597 L911 602 L919 597 L921 598 L913 604 L910 605 L909 604 L909 592 L910 591 L911 565 L913 564 L916 567 L919 568 L929 568 L935 566 L948 555 L953 547 L957 536 L957 530 L954 540 L950 548 L939 560 L935 562 L929 563 L918 558 L919 557 L923 557 L923 556 L919 554 L920 553 L925 553 L936 548 L944 540 L948 534 L953 522 L954 498 L952 490 L949 484 L939 474 L932 472 L929 473 L925 473 L924 472 L922 473 L921 472 L922 464 L930 457 L941 454 Z M173 455 L181 454 L189 456 L195 459 L200 463 L200 470 L201 472 L200 473 L198 472 L196 473 L194 472 L184 473 L179 476 L173 483 L169 491 L168 499 L167 500 L167 516 L168 517 L169 525 L177 540 L184 547 L196 553 L200 554 L206 553 L207 554 L202 559 L196 562 L192 563 L186 562 L178 557 L172 550 L169 545 L164 531 L163 532 L165 540 L172 554 L182 563 L194 568 L202 568 L208 564 L209 565 L211 589 L212 590 L212 601 L213 602 L212 606 L209 604 L210 602 L204 596 L197 591 L178 581 L168 571 L160 557 L154 540 L152 525 L151 524 L151 515 L150 514 L151 485 L154 474 L160 463 L167 457 Z M925 434 L933 434 L934 433 L935 434 L942 434 L956 440 L969 454 L975 469 L976 478 L977 479 L977 489 L978 490 L976 524 L975 525 L975 531 L971 548 L963 565 L961 567 L960 565 L964 558 L968 546 L972 524 L973 523 L974 494 L973 493 L972 482 L966 467 L955 456 L947 453 L936 453 L928 456 L923 460 L922 459 L923 443 L924 442 L924 435 Z M179 434 L186 434 L188 433 L189 434 L197 434 L198 435 L199 458 L197 459 L195 457 L186 453 L173 453 L164 457 L157 464 L152 473 L148 488 L148 498 L147 499 L148 520 L149 521 L150 532 L154 548 L165 571 L177 583 L188 590 L201 596 L207 601 L206 602 L200 598 L181 589 L164 574 L154 559 L149 545 L146 532 L146 526 L144 518 L144 505 L143 504 L143 489 L144 488 L144 479 L148 463 L155 450 L165 440 L170 437 Z M475 399 L476 398 L477 399 L476 400 Z M628 397 L629 396 L630 397 L629 398 Z M963 395 L972 398 L980 405 L985 413 L988 422 L988 426 L990 432 L991 456 L990 457 L990 472 L989 473 L989 481 L988 482 L987 501 L986 502 L983 530 L981 532 L980 536 L981 537 L981 543 L980 544 L980 550 L979 551 L979 557 L977 564 L977 570 L974 583 L971 607 L970 608 L969 618 L968 619 L966 633 L961 653 L953 672 L942 682 L932 684 L924 681 L919 676 L917 671 L917 656 L919 654 L920 649 L923 643 L928 622 L928 613 L927 612 L926 601 L931 597 L944 591 L953 584 L962 574 L972 557 L977 543 L977 538 L980 525 L980 517 L981 516 L981 479 L977 462 L968 446 L961 439 L951 433 L941 430 L925 430 L924 429 L925 428 L925 418 L933 406 L939 401 L950 396 Z M654 399 L653 403 L649 407 L641 410 L636 409 L633 407 L628 401 L628 399 L630 397 L632 400 L641 402 L648 399 L652 395 Z M149 396 L151 397 L158 395 L167 395 L174 397 L183 402 L194 413 L198 419 L198 430 L197 431 L196 430 L179 430 L172 432 L163 437 L153 446 L149 452 L142 468 L142 472 L140 478 L140 485 L139 486 L139 501 L140 502 L141 525 L142 526 L145 546 L149 558 L155 569 L164 580 L173 588 L187 596 L187 603 L190 614 L190 622 L191 623 L193 637 L196 646 L203 658 L203 672 L201 677 L194 683 L190 683 L189 684 L182 683 L176 680 L167 670 L161 657 L153 625 L151 610 L150 609 L150 604 L149 603 L149 598 L146 585 L146 579 L144 572 L144 566 L143 565 L143 559 L142 558 L142 552 L141 551 L140 532 L138 530 L138 524 L137 523 L136 511 L135 510 L132 477 L131 476 L131 466 L130 465 L131 426 L134 415 L138 406 Z M837 394 L838 393 L839 395 L838 396 Z M810 393 L815 404 L815 408 L818 419 L818 425 L819 426 L819 454 L818 455 L817 469 L811 494 L806 507 L798 522 L789 535 L773 551 L760 560 L746 567 L729 572 L712 573 L711 572 L703 572 L702 571 L694 570 L680 564 L670 557 L661 545 L659 533 L664 515 L669 506 L679 493 L696 477 L712 464 L758 430 L793 407 Z M317 392 L324 399 L338 410 L375 435 L419 468 L437 483 L452 498 L464 516 L468 527 L468 533 L469 534 L467 545 L462 553 L457 558 L443 567 L428 572 L422 572 L421 573 L394 572 L377 567 L367 562 L355 554 L340 540 L329 525 L323 514 L315 494 L312 478 L310 473 L309 458 L308 457 L308 425 L309 424 L309 417 L310 416 L311 407 Z M519 388 L520 389 L519 393 L514 400 L513 405 L510 410 L505 415 L504 414 L504 410 L509 405 L516 391 Z M301 384 L302 387 L298 404 L297 422 L296 423 L296 439 L295 440 L296 461 L297 462 L299 481 L308 509 L318 528 L332 547 L346 560 L358 568 L372 575 L387 580 L391 580 L397 582 L406 582 L407 583 L424 583 L425 582 L435 582 L455 577 L470 568 L480 558 L486 547 L488 539 L488 529 L487 528 L485 513 L478 495 L472 485 L474 484 L486 504 L487 509 L489 512 L491 526 L492 527 L492 539 L488 555 L480 567 L474 573 L461 581 L442 587 L426 588 L425 589 L393 588 L392 587 L375 584 L361 579 L351 574 L335 563 L321 549 L307 529 L298 511 L290 487 L286 470 L286 464 L285 463 L284 439 L285 438 L285 428 L286 427 L287 417 L293 398 Z M826 383 L834 397 L838 409 L840 425 L841 426 L841 458 L840 459 L840 466 L839 467 L837 482 L831 501 L819 527 L806 546 L789 563 L776 572 L757 581 L733 587 L712 588 L711 589 L684 587 L664 581 L651 573 L643 564 L637 553 L634 540 L634 531 L635 530 L636 519 L641 503 L652 485 L654 487 L648 496 L642 510 L639 523 L639 529 L638 530 L638 540 L640 548 L644 556 L658 570 L669 576 L693 582 L719 582 L720 581 L726 581 L727 580 L741 578 L753 574 L769 566 L784 555 L798 541 L810 524 L818 508 L825 488 L828 475 L829 463 L830 462 L830 451 L831 450 L831 425 L830 424 L829 404 L828 403 L828 398 L825 386 Z M301 383 L302 382 L303 384 L302 385 Z M824 382 L825 381 L826 382 L825 383 Z M613 377 L614 376 L615 377 L614 378 Z M600 377 L601 376 L602 378 L601 379 Z M665 374 L668 377 L669 380 L665 384 L662 392 L656 398 L655 394 L657 386 L662 377 Z M143 370 L160 370 L173 375 L183 382 L191 390 L197 400 L197 410 L196 411 L188 402 L181 397 L172 393 L156 392 L146 396 L136 406 L132 414 L129 424 L128 435 L127 436 L127 469 L128 470 L128 480 L129 481 L129 489 L130 490 L130 498 L131 499 L131 507 L133 515 L136 546 L138 553 L139 567 L140 568 L145 603 L146 604 L149 624 L156 654 L162 669 L170 680 L175 684 L182 687 L192 687 L202 682 L203 684 L197 696 L190 703 L181 707 L174 707 L167 705 L153 691 L148 681 L144 669 L141 653 L139 648 L135 621 L134 620 L133 607 L131 600 L130 587 L128 580 L127 567 L125 560 L125 554 L122 542 L124 563 L125 564 L125 570 L127 578 L127 585 L128 586 L128 592 L130 599 L130 606 L132 613 L132 619 L134 626 L136 644 L137 645 L141 667 L149 689 L154 697 L161 704 L171 709 L183 709 L194 703 L200 696 L204 688 L205 681 L206 680 L207 681 L207 691 L202 709 L199 714 L189 724 L179 728 L165 727 L155 721 L146 710 L141 700 L137 688 L133 666 L132 665 L127 629 L126 628 L124 605 L123 604 L123 598 L121 590 L120 575 L118 567 L117 552 L115 544 L115 537 L114 536 L114 529 L112 521 L112 514 L111 513 L111 506 L110 505 L110 498 L109 497 L109 490 L108 489 L108 481 L107 480 L107 473 L106 472 L106 462 L105 461 L105 423 L111 399 L119 385 L127 377 L136 372 Z M971 369 L972 370 L979 370 L991 375 L1001 384 L1006 391 L1013 408 L1015 422 L1016 423 L1016 458 L1015 459 L1015 470 L1014 471 L1013 488 L1012 489 L1008 527 L1007 528 L1006 542 L1005 543 L1005 549 L1003 557 L1003 565 L1001 573 L1001 581 L999 589 L997 611 L996 612 L992 646 L991 647 L991 652 L990 653 L990 658 L989 659 L989 664 L988 665 L988 670 L985 680 L985 684 L980 700 L975 710 L965 722 L956 727 L943 728 L932 724 L920 711 L914 693 L914 682 L915 681 L916 682 L916 685 L920 695 L929 705 L937 709 L941 709 L942 710 L951 709 L957 706 L965 699 L973 686 L977 676 L977 673 L979 670 L979 666 L982 657 L985 637 L986 636 L986 631 L987 630 L987 624 L989 617 L989 611 L990 610 L990 604 L991 603 L991 597 L992 596 L992 590 L993 589 L999 541 L998 541 L997 545 L997 550 L994 563 L994 570 L992 577 L992 583 L991 584 L991 590 L990 591 L990 597 L989 598 L989 604 L986 617 L984 635 L983 636 L983 640 L982 641 L982 645 L981 646 L981 650 L980 651 L976 672 L970 687 L964 696 L958 702 L951 706 L940 707 L936 706 L928 701 L923 695 L918 685 L919 681 L922 684 L929 687 L938 687 L947 683 L957 672 L965 652 L970 632 L973 613 L974 612 L974 607 L976 601 L976 596 L977 595 L978 584 L981 571 L982 558 L985 545 L985 539 L986 538 L986 531 L987 530 L987 523 L988 522 L988 515 L989 514 L989 507 L990 506 L990 498 L991 497 L991 490 L992 489 L992 480 L993 479 L994 438 L993 437 L993 429 L992 428 L991 420 L985 406 L979 399 L971 394 L964 392 L949 393 L938 398 L926 410 L925 408 L926 407 L926 396 L930 390 L939 381 L955 372 Z M683 368 L684 369 L684 373 L678 379 L672 381 L670 376 L681 368 Z M527 363 L534 373 L536 379 L535 383 L529 373 L524 369 Z M316 362 L345 387 L404 431 L447 466 L460 475 L473 492 L474 499 L481 513 L481 518 L484 527 L484 538 L483 539 L483 544 L478 554 L463 569 L448 575 L435 578 L418 578 L417 577 L418 576 L432 574 L444 570 L456 563 L467 552 L472 539 L472 530 L469 519 L464 509 L454 495 L440 481 L418 463 L419 462 L418 461 L416 462 L381 435 L337 405 L320 390 L316 388 L312 394 L308 406 L307 416 L306 417 L306 425 L305 426 L305 441 L306 442 L306 458 L307 459 L307 465 L308 466 L310 482 L314 494 L314 497 L319 510 L332 533 L351 553 L365 563 L381 571 L392 575 L388 576 L380 573 L377 573 L357 563 L344 553 L334 543 L324 530 L314 512 L308 497 L304 484 L302 469 L301 468 L301 461 L300 460 L300 429 L301 428 L301 416 L302 415 L302 407 L304 400 L304 394 L311 370 Z M813 361 L818 372 L822 393 L823 394 L823 398 L824 399 L824 406 L826 414 L826 430 L827 431 L826 458 L825 459 L825 467 L824 468 L823 479 L821 483 L817 499 L810 515 L801 530 L794 539 L779 554 L763 565 L753 570 L750 569 L751 567 L752 568 L753 566 L772 554 L789 538 L802 519 L809 505 L814 491 L818 474 L818 469 L819 468 L820 452 L821 451 L821 439 L822 438 L822 427 L821 426 L821 416 L819 411 L818 402 L814 393 L810 388 L787 407 L756 427 L700 469 L676 491 L661 513 L656 527 L656 543 L663 555 L674 564 L688 571 L702 575 L716 576 L717 577 L716 578 L709 578 L708 579 L694 578 L693 577 L685 576 L678 573 L674 574 L661 567 L648 555 L643 544 L642 532 L643 531 L643 525 L644 524 L647 507 L653 497 L653 493 L660 485 L664 478 L735 421 L791 380 Z M611 360 L614 365 L614 371 L613 372 L610 369 L602 377 L601 374 L608 362 Z M969 321 L983 325 L999 334 L1012 347 L1021 361 L1021 363 L1027 375 L1027 378 L1032 393 L1033 405 L1034 406 L1034 416 L1035 417 L1034 453 L1033 454 L1033 464 L1032 465 L1030 488 L1029 489 L1029 495 L1028 496 L1028 502 L1027 503 L1027 509 L1026 510 L1026 516 L1025 517 L1025 523 L1023 530 L1023 536 L1022 537 L1022 543 L1021 544 L1019 564 L1017 572 L1017 579 L1016 580 L1016 586 L1014 594 L1014 601 L1013 602 L1011 625 L1009 633 L1009 641 L1008 642 L1007 658 L1005 666 L1005 674 L1004 675 L1004 682 L1003 683 L1000 715 L999 716 L995 745 L989 767 L981 782 L968 795 L961 799 L949 803 L934 804 L933 803 L923 802 L910 796 L911 795 L911 761 L910 760 L910 706 L911 705 L911 697 L912 696 L913 697 L915 706 L920 715 L930 725 L941 730 L953 730 L963 726 L971 719 L980 705 L985 692 L986 685 L989 677 L994 644 L995 643 L995 637 L996 636 L996 630 L997 629 L997 623 L999 615 L999 608 L1000 607 L1001 594 L1002 593 L1002 587 L1004 579 L1005 564 L1007 556 L1008 541 L1010 533 L1012 509 L1013 508 L1015 486 L1016 485 L1018 453 L1019 452 L1019 427 L1018 426 L1018 418 L1017 417 L1016 408 L1008 389 L1004 383 L996 375 L990 371 L978 367 L963 367 L953 370 L945 374 L938 379 L927 391 L926 390 L926 355 L925 354 L925 342 L924 341 L924 333 L923 332 L928 328 L942 322 L946 322 L947 321 Z M153 321 L174 321 L175 322 L179 322 L190 326 L198 331 L202 335 L200 349 L199 350 L199 358 L198 359 L197 393 L196 394 L192 388 L183 379 L168 370 L157 367 L143 367 L131 371 L125 375 L117 383 L108 399 L104 412 L103 425 L102 426 L102 455 L103 456 L103 468 L104 469 L104 478 L105 479 L105 486 L106 487 L107 504 L108 505 L110 527 L112 534 L113 549 L114 550 L114 556 L116 564 L116 571 L117 572 L118 587 L119 588 L120 602 L122 610 L122 618 L124 625 L124 632 L125 633 L130 668 L132 673 L134 686 L139 701 L148 717 L154 723 L160 727 L168 730 L180 730 L188 727 L197 720 L205 708 L208 697 L209 696 L211 698 L212 748 L211 749 L211 761 L210 762 L210 767 L209 768 L209 773 L206 786 L205 798 L203 800 L188 804 L170 803 L164 801 L150 793 L142 785 L137 778 L131 765 L131 762 L128 755 L125 738 L124 737 L122 719 L121 718 L121 711 L120 710 L117 678 L115 670 L115 662 L114 661 L114 654 L113 653 L113 646 L112 645 L112 638 L111 637 L111 630 L110 629 L108 605 L107 604 L105 582 L104 581 L104 575 L103 574 L103 568 L102 567 L102 561 L101 560 L101 554 L100 553 L100 547 L99 546 L99 540 L98 539 L98 533 L97 532 L97 526 L96 525 L96 519 L95 518 L95 512 L94 511 L94 505 L93 504 L93 498 L91 490 L88 458 L87 457 L87 445 L86 444 L86 414 L87 413 L88 398 L93 377 L103 355 L113 342 L122 334 L136 326 Z M360 297 L364 296 L368 300 L377 305 L376 308 L372 309 L365 305 L361 301 Z M764 304 L763 310 L759 314 L753 317 L749 317 L744 314 L742 314 L729 302 L724 304 L717 313 L705 336 L700 343 L693 361 L686 370 L685 369 L686 360 L693 346 L695 339 L698 335 L705 320 L708 317 L710 312 L717 302 L725 294 L728 293 L735 304 L738 307 L746 311 L752 310 L763 303 Z M377 306 L380 304 L389 304 L396 301 L404 292 L414 303 L422 317 L428 331 L435 341 L439 349 L450 363 L463 377 L466 378 L469 381 L474 390 L476 398 L475 399 L472 398 L465 389 L464 385 L452 376 L448 368 L437 357 L433 349 L424 337 L423 333 L412 311 L404 301 L398 302 L393 306 L384 310 L376 310 L375 309 L377 308 Z M902 286 L908 292 L911 297 L919 328 L920 345 L921 346 L921 359 L922 360 L922 399 L921 400 L921 419 L920 420 L919 449 L918 450 L915 489 L914 490 L914 498 L913 499 L913 509 L912 510 L912 517 L911 518 L911 527 L910 528 L910 537 L909 538 L909 547 L908 548 L908 557 L907 558 L907 571 L905 576 L893 583 L892 582 L892 567 L893 566 L895 538 L896 537 L896 529 L897 528 L897 520 L898 519 L899 502 L900 501 L900 493 L901 492 L901 482 L902 481 L902 471 L903 470 L904 449 L905 448 L905 438 L906 437 L907 398 L908 397 L908 367 L907 366 L906 342 L905 341 L905 334 L904 333 L902 318 L896 296 L896 289 L898 286 Z M233 285 L237 286 L239 289 L234 295 L229 305 L226 317 L223 324 L223 328 L219 344 L219 351 L218 352 L218 359 L217 360 L217 370 L216 371 L216 384 L215 385 L216 439 L217 440 L217 454 L218 455 L220 489 L221 490 L221 497 L222 498 L223 518 L224 519 L224 527 L225 528 L226 545 L227 546 L227 556 L228 557 L228 573 L227 574 L213 561 L213 549 L212 548 L212 538 L211 537 L211 529 L210 528 L207 488 L206 487 L206 477 L205 476 L204 450 L203 449 L202 414 L201 413 L201 383 L202 382 L202 364 L203 363 L204 345 L205 344 L207 328 L212 308 L220 292 L224 288 Z M473 285 L474 284 L475 285 L474 286 Z M840 249 L841 250 L841 256 L838 263 L831 270 L826 272 L821 268 L830 264 L835 259 Z M807 246 L808 245 L809 247 L808 248 Z M320 238 L321 237 L322 238 L321 239 Z M809 233 L811 239 L802 249 L791 270 L780 285 L775 297 L773 299 L771 299 L770 304 L767 307 L766 306 L766 302 L768 298 L768 295 L774 283 L791 257 L800 241 Z M323 226 L328 231 L333 239 L344 261 L345 265 L354 280 L354 282 L359 291 L359 297 L358 298 L352 290 L349 283 L344 276 L334 256 L328 241 L323 235 L320 234 L321 229 Z M852 218 L858 232 L861 249 L862 250 L863 277 L862 278 L862 283 L860 291 L851 310 L833 335 L807 361 L793 373 L739 413 L735 417 L731 419 L660 476 L649 483 L636 488 L628 488 L616 482 L609 475 L603 465 L599 454 L596 441 L596 436 L595 435 L595 425 L594 424 L595 402 L598 389 L600 386 L600 383 L609 372 L611 373 L611 378 L613 386 L617 394 L621 399 L626 402 L628 406 L632 410 L640 413 L647 411 L651 407 L653 407 L659 401 L668 384 L676 384 L684 378 L685 379 L684 378 L691 371 L695 361 L697 359 L700 350 L717 319 L724 308 L728 304 L738 315 L745 319 L754 320 L761 317 L772 307 L775 301 L778 298 L781 290 L795 269 L807 247 L809 249 L809 255 L811 259 L811 262 L814 268 L818 272 L824 275 L828 275 L835 271 L841 264 L848 247 L849 237 L850 236 L850 228 L851 227 L851 219 Z M280 217 L281 218 L282 240 L286 253 L292 263 L291 265 L293 264 L296 267 L299 268 L304 268 L310 265 L318 254 L322 238 L328 248 L328 250 L342 279 L349 289 L353 297 L363 307 L373 313 L382 314 L391 311 L402 303 L404 304 L409 312 L420 335 L433 357 L443 368 L450 378 L463 390 L470 400 L472 405 L482 415 L485 415 L485 413 L476 405 L476 400 L477 399 L479 402 L484 404 L488 408 L494 411 L501 411 L502 410 L504 411 L503 415 L499 418 L492 418 L487 414 L488 417 L492 421 L500 421 L506 418 L512 412 L515 405 L517 403 L518 404 L518 401 L523 391 L527 376 L528 375 L538 392 L538 396 L540 401 L541 434 L540 435 L540 442 L539 443 L538 453 L535 463 L529 475 L519 486 L511 490 L500 492 L486 487 L465 474 L445 459 L441 455 L442 454 L440 455 L412 432 L338 376 L326 366 L294 333 L278 310 L272 298 L266 280 L266 259 L267 258 L268 247 L274 228 Z M847 216 L848 217 L848 226 L847 227 L847 235 L845 243 L844 242 L844 232 L845 231 L846 217 Z M280 216 L281 215 L282 217 L281 218 Z M847 213 L848 212 L849 214 L848 215 Z M285 212 L286 213 L287 234 L291 247 L296 256 L301 261 L305 261 L307 263 L305 265 L304 264 L303 265 L297 264 L293 260 L289 252 L288 248 L289 247 L288 243 L286 241 L285 228 L284 227 L284 213 Z M280 207 L270 227 L264 247 L263 258 L262 259 L262 279 L263 280 L263 284 L268 299 L279 319 L293 338 L313 359 L307 369 L297 381 L289 397 L283 417 L282 429 L281 430 L281 455 L282 456 L282 464 L283 465 L286 486 L291 504 L303 530 L318 552 L314 553 L307 551 L291 551 L290 552 L284 552 L272 555 L254 563 L243 570 L239 574 L259 562 L276 556 L290 554 L291 553 L311 553 L312 554 L321 555 L332 566 L352 579 L368 586 L386 591 L400 592 L401 593 L429 593 L430 592 L437 592 L454 588 L464 584 L474 578 L484 569 L491 558 L495 546 L496 529 L495 528 L495 521 L490 504 L484 492 L487 491 L490 493 L498 495 L509 508 L513 516 L513 519 L517 531 L524 542 L534 551 L533 552 L533 564 L534 565 L533 566 L532 602 L531 603 L531 616 L530 617 L528 646 L527 647 L526 660 L525 661 L525 666 L524 667 L521 686 L512 714 L512 718 L513 718 L517 702 L521 692 L526 672 L527 660 L528 659 L530 635 L531 634 L531 624 L532 623 L532 612 L533 611 L534 576 L535 575 L535 553 L536 552 L544 555 L583 555 L589 553 L592 554 L593 595 L594 596 L594 610 L595 611 L594 614 L595 615 L597 644 L598 645 L599 658 L600 659 L603 679 L607 691 L607 694 L612 707 L605 681 L605 676 L603 671 L603 666 L600 653 L599 639 L598 638 L597 613 L596 612 L596 602 L595 601 L595 584 L594 583 L594 552 L603 542 L609 529 L612 518 L619 505 L624 498 L631 492 L636 492 L641 490 L643 491 L635 508 L631 524 L630 539 L634 556 L640 567 L651 578 L668 587 L683 591 L698 592 L699 593 L716 593 L717 592 L727 592 L728 591 L739 590 L755 585 L758 585 L779 575 L792 566 L803 555 L811 554 L812 553 L827 553 L828 554 L834 554 L835 555 L843 556 L855 560 L867 566 L877 574 L880 575 L868 565 L847 555 L835 552 L829 552 L828 551 L816 551 L809 553 L806 552 L813 544 L824 526 L824 524 L830 512 L831 507 L836 497 L836 494 L840 482 L840 477 L841 476 L842 477 L841 473 L843 471 L844 455 L845 454 L845 428 L844 427 L844 419 L843 418 L842 409 L838 398 L839 395 L841 398 L848 422 L847 431 L849 431 L849 417 L848 416 L847 407 L843 397 L838 390 L838 393 L837 394 L836 393 L836 391 L831 381 L820 367 L816 358 L827 348 L846 325 L855 311 L862 297 L866 284 L867 257 L866 256 L865 243 L860 225 L856 215 L849 203 L847 204 L843 214 L842 230 L837 249 L833 256 L827 262 L820 264 L817 261 L814 252 L814 234 L810 229 L808 229 L803 232 L795 242 L788 255 L772 279 L763 298 L759 302 L748 308 L741 304 L735 298 L732 291 L730 289 L723 291 L714 300 L704 315 L689 344 L682 362 L672 371 L669 372 L664 368 L658 377 L651 392 L647 396 L643 398 L637 398 L628 389 L621 388 L627 395 L627 397 L625 398 L621 394 L614 380 L615 378 L617 381 L620 381 L617 370 L616 360 L612 356 L610 356 L606 359 L598 372 L594 386 L592 403 L591 404 L591 434 L592 435 L592 441 L598 463 L602 470 L602 473 L587 501 L586 507 L587 508 L588 507 L588 504 L591 500 L601 478 L603 476 L604 477 L605 476 L610 482 L616 487 L622 490 L621 491 L622 490 L624 492 L614 496 L601 505 L591 517 L586 515 L582 515 L575 512 L565 511 L564 510 L550 512 L538 517 L526 504 L512 497 L508 498 L505 496 L509 494 L515 493 L522 489 L533 477 L534 478 L534 482 L542 499 L543 505 L544 505 L544 499 L542 493 L534 476 L534 473 L538 466 L543 449 L543 443 L544 442 L544 429 L545 428 L544 402 L543 401 L543 394 L542 393 L541 384 L539 380 L539 376 L533 364 L529 360 L525 359 L523 361 L521 365 L521 372 L520 373 L519 383 L515 387 L507 402 L501 408 L496 408 L491 406 L483 400 L469 375 L466 372 L464 372 L455 363 L442 347 L443 345 L442 346 L440 344 L434 334 L420 306 L414 297 L406 289 L403 288 L393 298 L386 301 L378 301 L369 296 L359 285 L357 278 L355 276 L336 237 L327 224 L323 221 L318 225 L317 228 L317 241 L311 256 L308 259 L303 258 L297 251 L291 236 L290 224 L289 223 L290 215 L289 214 L288 206 L284 202 Z M578 174 L586 177 L589 177 L604 184 L618 194 L632 209 L644 230 L649 245 L650 256 L651 257 L651 279 L650 280 L648 293 L641 310 L630 326 L616 339 L607 345 L586 354 L582 354 L576 356 L569 356 L568 357 L548 356 L527 350 L517 345 L503 335 L487 317 L478 300 L474 287 L475 286 L487 300 L497 307 L507 312 L523 316 L542 316 L559 311 L575 301 L585 291 L594 278 L599 267 L603 253 L604 234 L603 233 L603 225 L602 224 L601 216 L593 197 L585 186 L572 175 L573 174 Z M570 174 L571 173 L573 174 L572 175 Z M557 173 L568 177 L579 185 L588 195 L595 207 L600 223 L600 228 L601 229 L601 248 L597 265 L593 272 L593 274 L586 285 L575 297 L566 304 L551 311 L543 312 L542 313 L522 313 L514 310 L511 310 L500 305 L489 297 L481 288 L474 276 L471 266 L471 250 L472 249 L474 235 L476 232 L479 222 L487 208 L507 188 L515 183 L531 176 L544 173 L550 173 L551 172 Z M542 169 L522 175 L504 185 L487 201 L480 211 L474 223 L468 242 L467 257 L466 258 L468 282 L473 299 L481 315 L491 329 L508 344 L526 354 L541 359 L552 360 L553 361 L572 361 L573 360 L583 359 L601 353 L615 345 L633 329 L643 315 L650 300 L655 280 L655 254 L654 253 L653 244 L648 229 L638 210 L630 200 L612 184 L600 177 L580 170 L568 169 L567 168 Z M306 177 L311 175 L316 171 L337 159 L357 149 L359 149 L364 146 L389 136 L411 129 L414 129 L418 127 L421 127 L425 125 L445 120 L449 120 L465 116 L489 113 L490 112 L496 112 L497 111 L525 109 L526 108 L542 108 L543 107 L595 107 L596 108 L623 109 L624 110 L631 110 L632 111 L640 111 L641 112 L660 114 L661 115 L685 119 L690 121 L694 121 L703 124 L707 124 L728 131 L731 131 L770 145 L801 160 L820 172 L831 177 L807 162 L780 148 L778 148 L759 139 L725 127 L722 127 L711 123 L683 116 L663 113 L662 112 L657 112 L656 111 L651 111 L650 110 L645 110 L644 109 L619 107 L618 106 L605 106 L604 105 L583 105 L582 104 L533 105 L532 106 L519 106 L518 107 L501 108 L500 109 L494 109 L493 110 L487 110 L486 111 L463 114 L462 115 L448 117 L428 122 L387 135 L358 148 L356 148 L327 163 Z M548 95 L590 95 L591 96 L607 96 L608 97 L628 98 L629 99 L661 103 L662 104 L681 107 L705 113 L740 124 L765 135 L767 135 L793 148 L818 164 L838 180 L857 200 L870 218 L877 230 L877 232 L879 234 L879 236 L886 251 L891 269 L892 280 L893 281 L893 299 L900 324 L902 346 L903 347 L903 358 L904 359 L903 431 L902 432 L902 446 L901 447 L899 482 L898 483 L898 490 L897 491 L896 510 L895 511 L895 519 L894 520 L891 554 L890 555 L890 564 L889 565 L889 584 L890 585 L880 594 L877 599 L876 606 L883 627 L883 633 L878 643 L868 652 L858 657 L845 660 L824 660 L823 659 L812 658 L794 653 L753 636 L745 634 L726 633 L725 632 L694 635 L682 638 L661 646 L655 650 L653 650 L643 657 L632 668 L621 685 L617 697 L617 702 L620 705 L622 710 L623 710 L622 705 L627 700 L633 697 L637 700 L641 701 L643 704 L647 705 L656 713 L664 726 L667 737 L667 746 L664 757 L657 765 L650 769 L638 773 L629 774 L628 778 L624 778 L612 782 L611 781 L629 766 L639 761 L641 762 L645 761 L645 760 L637 760 L634 758 L635 760 L624 767 L623 766 L624 751 L622 745 L621 746 L622 748 L622 761 L618 770 L611 778 L596 786 L581 790 L575 790 L574 791 L552 791 L551 790 L545 790 L530 786 L519 780 L511 773 L506 766 L504 760 L505 742 L502 749 L502 760 L504 765 L503 768 L491 761 L495 757 L495 755 L488 761 L478 767 L471 767 L462 760 L458 751 L458 738 L462 725 L468 715 L471 712 L471 709 L476 705 L489 699 L491 697 L497 698 L505 705 L506 709 L507 709 L507 706 L510 701 L510 696 L504 686 L503 681 L492 664 L482 654 L463 643 L436 634 L420 632 L419 631 L413 631 L412 630 L403 630 L402 629 L371 629 L370 630 L364 630 L326 642 L322 642 L312 645 L305 645 L304 646 L277 646 L276 645 L266 644 L257 641 L245 634 L239 627 L236 621 L237 609 L243 595 L244 590 L240 582 L231 575 L230 547 L229 546 L226 510 L225 509 L225 500 L224 499 L224 490 L223 489 L221 454 L220 453 L220 437 L219 436 L219 377 L220 376 L220 365 L221 364 L222 348 L223 347 L225 330 L231 309 L242 289 L242 277 L243 276 L244 267 L248 256 L248 253 L255 238 L255 236 L262 223 L272 208 L281 197 L300 178 L328 157 L354 142 L385 128 L427 114 L451 108 L460 107 L465 105 L493 101 L494 100 L509 99 L510 98 L531 97 L532 96 L547 96 Z M718 112 L715 112 L711 110 L708 110 L704 108 L684 103 L664 100 L658 98 L653 98 L652 97 L647 97 L646 96 L624 94 L623 93 L603 92 L602 91 L580 91 L579 90 L536 91 L535 92 L524 92 L523 93 L514 93 L513 94 L491 96 L490 97 L478 98 L477 99 L448 104 L432 108 L428 110 L425 110 L418 113 L415 113 L367 131 L338 146 L316 160 L299 173 L275 197 L261 216 L248 241 L240 264 L240 268 L238 273 L238 280 L236 282 L225 283 L217 289 L213 295 L206 314 L204 326 L202 329 L195 324 L184 319 L176 317 L169 317 L168 316 L151 317 L134 322 L119 331 L104 346 L93 365 L87 382 L85 395 L84 396 L84 401 L83 402 L83 409 L82 410 L82 450 L83 451 L83 459 L84 460 L87 493 L88 494 L88 500 L90 507 L90 514 L91 515 L91 521 L92 522 L92 528 L94 535 L94 542 L95 543 L95 549 L96 550 L96 556 L97 557 L97 563 L98 564 L98 570 L99 571 L99 577 L101 585 L101 592 L103 600 L103 608 L104 609 L104 616 L105 617 L105 624 L106 625 L106 632 L107 633 L108 649 L109 650 L109 657 L110 658 L110 665 L111 666 L114 698 L115 699 L115 705 L117 713 L117 720 L118 721 L119 733 L120 734 L120 739 L121 740 L124 757 L129 772 L135 783 L152 800 L160 804 L174 808 L190 808 L203 804 L205 805 L204 806 L203 826 L202 827 L202 843 L203 844 L204 863 L208 879 L208 886 L206 894 L205 916 L204 917 L204 939 L203 940 L204 978 L205 979 L205 991 L206 992 L206 1002 L207 1003 L210 1036 L211 1037 L214 1060 L215 1061 L215 1065 L216 1066 L220 1087 L234 1131 L236 1134 L244 1158 L263 1197 L265 1198 L266 1173 L267 1172 L268 1155 L269 1154 L272 1127 L273 1126 L274 1115 L275 1114 L279 1090 L281 1085 L282 1076 L283 1075 L284 1076 L285 1085 L287 1091 L288 1103 L289 1104 L290 1121 L291 1122 L291 1143 L289 1150 L289 1157 L292 1154 L295 1147 L296 1148 L296 1166 L297 1167 L296 1196 L295 1197 L295 1202 L292 1212 L292 1216 L287 1229 L292 1227 L303 1216 L306 1223 L306 1230 L307 1231 L307 1238 L308 1239 L308 1258 L309 1259 L308 1263 L310 1267 L311 1267 L321 1250 L322 1251 L325 1277 L327 1283 L329 1286 L331 1286 L334 1277 L335 1276 L336 1277 L340 1296 L344 1303 L350 1297 L353 1297 L357 1295 L373 1291 L374 1292 L368 1296 L369 1298 L400 1297 L415 1293 L416 1294 L410 1300 L405 1303 L406 1305 L430 1304 L452 1298 L453 1299 L448 1304 L448 1305 L451 1305 L461 1301 L464 1301 L467 1299 L470 1299 L477 1295 L478 1297 L477 1298 L477 1302 L475 1305 L475 1307 L477 1307 L502 1287 L510 1279 L511 1280 L510 1285 L506 1290 L506 1294 L508 1294 L532 1281 L543 1271 L545 1272 L545 1279 L547 1283 L549 1285 L552 1283 L556 1288 L558 1294 L571 1286 L585 1272 L586 1273 L586 1277 L585 1278 L584 1287 L588 1286 L596 1280 L613 1263 L619 1255 L622 1267 L626 1276 L626 1284 L634 1283 L639 1280 L641 1280 L649 1276 L663 1266 L664 1268 L657 1279 L662 1279 L666 1277 L669 1277 L686 1269 L696 1261 L697 1259 L698 1263 L694 1271 L694 1273 L696 1273 L708 1265 L721 1251 L726 1243 L727 1244 L727 1249 L747 1228 L760 1211 L761 1214 L762 1214 L763 1211 L771 1203 L787 1183 L788 1187 L786 1194 L788 1195 L793 1189 L809 1164 L821 1141 L821 1139 L831 1117 L837 1099 L837 1096 L840 1090 L841 1091 L841 1098 L843 1106 L845 1137 L846 1138 L847 1177 L848 1180 L849 1180 L860 1163 L877 1124 L877 1121 L880 1115 L880 1112 L885 1099 L885 1096 L887 1092 L895 1061 L895 1056 L897 1051 L901 1024 L902 1023 L902 1017 L903 1016 L905 997 L906 996 L906 988 L907 987 L907 978 L908 977 L908 969 L909 968 L909 955 L910 954 L910 940 L911 939 L911 897 L910 896 L910 882 L909 881 L909 874 L908 873 L911 860 L911 853 L912 852 L912 814 L911 813 L911 803 L912 802 L918 805 L931 808 L945 808 L958 805 L974 796 L983 787 L987 781 L994 766 L994 763 L998 752 L998 748 L1002 732 L1004 713 L1005 712 L1005 704 L1006 703 L1006 696 L1008 688 L1008 680 L1009 679 L1010 663 L1011 662 L1011 655 L1012 654 L1012 645 L1013 644 L1017 606 L1018 605 L1019 591 L1021 583 L1021 575 L1022 574 L1022 568 L1023 567 L1025 547 L1027 540 L1031 506 L1033 499 L1036 469 L1037 468 L1038 443 L1039 442 L1039 414 L1038 413 L1038 404 L1037 403 L1035 387 L1029 368 L1025 359 L1013 341 L1001 330 L987 322 L971 317 L952 316 L935 320 L923 326 L915 296 L912 290 L905 283 L897 281 L893 259 L883 232 L873 214 L857 193 L841 177 L828 166 L798 146 L755 125 Z" fill="#eef3f4" fill-rule="evenodd"/>
</svg>
