<svg xmlns="http://www.w3.org/2000/svg" width="1122" height="1402" viewBox="0 0 1122 1402">
  <title>0463</title>
  <path d="M630 1275 L620 1278 L603 1280 L602 1281 L583 1282 L582 1283 L567 1283 L566 1284 L535 1284 L534 1285 L526 1285 L525 1284 L488 1283 L487 1282 L478 1282 L469 1280 L469 1281 L473 1281 L478 1283 L484 1283 L485 1284 L506 1285 L507 1286 L550 1287 L551 1286 L568 1286 L569 1285 L580 1285 L581 1284 L605 1282 L606 1281 L611 1281 L630 1276 Z M405 1273 L407 1268 L409 1267 L420 1278 L427 1282 L445 1288 L462 1292 L467 1292 L468 1293 L482 1294 L483 1295 L493 1295 L494 1296 L507 1296 L508 1297 L567 1297 L568 1296 L580 1296 L581 1295 L591 1295 L592 1294 L606 1293 L607 1292 L612 1292 L633 1287 L649 1280 L652 1276 L655 1279 L657 1285 L657 1295 L654 1303 L648 1309 L642 1313 L628 1320 L604 1327 L589 1329 L588 1330 L582 1330 L581 1331 L575 1331 L574 1332 L553 1333 L552 1334 L536 1334 L535 1335 L496 1334 L495 1333 L479 1332 L478 1331 L473 1331 L472 1330 L459 1328 L441 1322 L426 1314 L416 1305 L411 1298 L406 1285 Z M714 1227 L715 1226 L716 1227 L715 1228 Z M410 1266 L417 1261 L427 1251 L430 1245 L431 1236 L432 1235 L432 1225 L429 1214 L426 1209 L427 1208 L435 1209 L445 1212 L463 1214 L464 1215 L489 1217 L490 1218 L501 1218 L502 1219 L518 1219 L519 1220 L581 1220 L582 1219 L598 1219 L599 1218 L618 1217 L619 1216 L625 1216 L633 1214 L634 1216 L630 1223 L629 1233 L628 1234 L629 1245 L636 1260 L651 1275 L644 1281 L629 1286 L616 1289 L605 1290 L604 1291 L587 1292 L586 1293 L574 1293 L573 1294 L556 1294 L555 1295 L521 1295 L520 1294 L501 1294 L500 1293 L489 1293 L488 1292 L471 1291 L470 1290 L465 1290 L450 1286 L446 1286 L422 1277 L416 1273 Z M351 1203 L352 1202 L353 1203 L352 1204 Z M554 1196 L555 1195 L559 1196 L558 1197 Z M600 1194 L601 1193 L605 1193 L606 1194 L605 1195 L601 1195 Z M496 1194 L497 1193 L501 1194 L500 1195 Z M487 1193 L488 1192 L490 1193 L489 1194 Z M637 1190 L638 1189 L640 1190 L639 1191 Z M642 1189 L643 1188 L645 1189 L644 1190 Z M645 1188 L646 1187 L648 1188 L647 1189 Z M444 1188 L445 1187 L448 1188 L447 1189 Z M648 1187 L649 1186 L651 1187 L650 1188 Z M413 1176 L414 1175 L416 1176 L415 1177 Z M669 1175 L670 1174 L671 1175 L670 1176 Z M412 1175 L413 1174 L414 1175 L413 1176 Z M410 1174 L411 1173 L413 1174 L412 1175 Z M409 1173 L410 1172 L411 1173 L410 1174 Z M408 1172 L409 1171 L410 1172 L409 1173 Z M670 1176 L662 1182 L652 1187 L650 1186 L655 1182 L657 1174 L660 1169 L663 1175 L669 1175 Z M522 1162 L526 1163 L528 1186 L533 1193 L538 1195 L534 1197 L506 1196 L505 1195 L506 1194 L514 1192 L518 1187 L519 1179 L520 1178 L521 1163 Z M572 1161 L576 1161 L577 1162 L577 1183 L580 1190 L585 1194 L591 1194 L592 1195 L591 1196 L573 1196 L572 1197 L568 1197 L567 1196 L560 1196 L559 1195 L563 1193 L567 1187 L570 1174 L570 1169 L571 1168 L571 1162 Z M662 1160 L663 1161 L663 1166 L662 1167 L661 1166 L661 1161 Z M477 1159 L478 1160 L479 1176 L481 1184 L484 1189 L488 1192 L483 1195 L476 1193 L469 1193 L468 1192 L449 1190 L448 1189 L449 1188 L463 1188 L468 1185 L470 1179 L472 1160 L473 1159 Z M626 1158 L628 1161 L628 1177 L627 1178 L626 1187 L630 1190 L635 1190 L636 1191 L635 1192 L630 1192 L618 1195 L608 1194 L607 1193 L608 1192 L611 1192 L615 1188 L621 1173 L623 1165 L623 1160 Z M430 1152 L431 1153 L431 1166 L432 1167 L433 1181 L436 1185 L435 1186 L424 1183 L415 1177 L416 1176 L418 1177 L423 1177 L426 1172 L427 1156 Z M396 1151 L399 1155 L402 1156 L402 1165 L401 1166 L397 1160 L395 1154 Z M394 1150 L395 1149 L396 1151 L395 1152 Z M401 1146 L402 1147 L402 1152 L400 1153 L399 1152 Z M466 1131 L467 1130 L471 1130 L472 1131 L471 1132 L467 1132 Z M462 1130 L463 1129 L466 1130 L465 1131 Z M683 1128 L684 1129 L683 1133 L682 1132 Z M572 1129 L573 1128 L588 1128 L589 1129 L588 1130 L573 1130 Z M648 1125 L644 1128 L626 1133 L616 1133 L614 1132 L613 1134 L604 1135 L603 1136 L578 1137 L577 1138 L536 1138 L535 1137 L495 1136 L494 1135 L477 1134 L471 1132 L472 1131 L489 1130 L490 1131 L518 1131 L519 1132 L535 1132 L536 1133 L578 1133 L579 1132 L610 1131 L611 1130 L616 1130 L621 1128 L629 1127 L639 1123 L643 1123 Z M627 1122 L630 1118 L633 1121 L630 1123 Z M424 1121 L432 1117 L436 1123 L442 1126 L439 1127 Z M472 1121 L480 1115 L485 1122 L484 1123 L479 1123 Z M665 1114 L666 1113 L667 1114 L666 1115 Z M419 1110 L421 1109 L428 1112 L434 1113 L436 1115 L435 1116 L431 1116 L425 1119 Z M671 1108 L672 1111 L667 1114 L666 1113 L667 1110 L669 1108 Z M394 1141 L394 1118 L395 1115 L399 1111 L405 1108 L415 1108 L422 1119 L421 1122 L415 1123 L410 1126 L411 1127 L419 1124 L425 1124 L437 1128 L447 1129 L459 1132 L465 1135 L480 1137 L481 1138 L491 1138 L492 1139 L532 1140 L538 1142 L586 1141 L587 1140 L599 1140 L611 1137 L625 1136 L644 1131 L656 1131 L650 1128 L654 1123 L657 1124 L661 1120 L667 1120 L674 1122 L673 1120 L666 1118 L672 1115 L674 1113 L674 1111 L677 1109 L679 1109 L681 1111 L682 1117 L680 1123 L683 1127 L682 1129 L679 1128 L680 1130 L680 1147 L676 1163 L671 1170 L668 1172 L665 1171 L666 1170 L666 1153 L662 1144 L660 1147 L660 1155 L659 1156 L657 1169 L654 1177 L650 1181 L646 1181 L629 1186 L628 1185 L630 1180 L630 1168 L631 1167 L630 1166 L630 1159 L628 1156 L622 1156 L621 1157 L619 1170 L615 1179 L614 1185 L610 1189 L602 1191 L594 1191 L593 1192 L588 1192 L582 1188 L580 1183 L580 1164 L579 1160 L576 1158 L570 1158 L569 1159 L565 1185 L558 1192 L538 1192 L535 1191 L531 1187 L529 1162 L525 1159 L522 1159 L519 1161 L516 1185 L512 1190 L509 1191 L491 1190 L488 1189 L485 1186 L483 1182 L483 1177 L481 1170 L481 1160 L480 1157 L478 1156 L472 1156 L470 1158 L468 1166 L467 1180 L465 1184 L463 1185 L438 1184 L435 1177 L433 1149 L425 1146 L426 1150 L423 1161 L423 1173 L422 1174 L418 1174 L408 1168 L405 1165 L404 1161 L404 1142 L408 1126 L404 1126 L401 1130 L400 1139 L399 1140 L399 1147 L398 1148 Z M672 1108 L673 1107 L674 1108 L673 1109 Z M430 1109 L433 1107 L435 1110 L433 1111 Z M680 1107 L681 1106 L682 1107 L681 1108 Z M679 1106 L680 1105 L681 1106 L680 1107 Z M410 1104 L399 1108 L394 1112 L393 1115 L392 1114 L393 1106 L397 1101 L403 1099 Z M682 1103 L688 1098 L690 1100 L691 1104 L690 1105 Z M396 1098 L397 1097 L398 1098 L397 1099 Z M399 1097 L400 1096 L401 1097 L400 1098 Z M397 1097 L398 1094 L400 1096 L398 1098 Z M398 1094 L399 1093 L400 1094 L399 1095 Z M589 1090 L590 1089 L592 1090 L622 1089 L624 1092 L624 1099 L627 1112 L626 1120 L623 1123 L618 1123 L617 1124 L592 1125 L591 1126 L587 1125 L586 1123 L588 1118 L589 1099 L590 1098 Z M585 1089 L587 1091 L587 1104 L586 1105 L585 1117 L583 1119 L583 1124 L584 1125 L576 1127 L575 1125 L576 1124 L576 1116 L577 1115 L577 1090 L578 1089 Z M629 1088 L635 1088 L636 1089 L636 1111 L635 1112 L635 1116 L633 1119 L629 1116 L628 1098 L626 1090 Z M539 1088 L540 1089 L573 1089 L574 1090 L574 1117 L572 1125 L570 1126 L540 1126 L535 1123 L536 1111 L537 1110 L537 1099 L538 1098 L537 1090 Z M542 1129 L541 1130 L511 1130 L510 1129 L486 1129 L485 1130 L479 1130 L478 1129 L462 1128 L461 1127 L455 1128 L439 1122 L436 1118 L437 1117 L446 1117 L449 1119 L453 1119 L466 1123 L481 1125 L482 1126 L488 1126 L489 1125 L522 1126 L527 1121 L526 1118 L526 1102 L527 1101 L528 1089 L529 1088 L534 1088 L535 1089 L535 1104 L534 1105 L532 1124 L536 1128 L541 1128 Z M668 1086 L671 1087 L671 1091 L672 1092 L672 1098 L669 1105 L668 1104 L668 1094 L667 1093 L667 1087 Z M663 1086 L665 1088 L665 1109 L664 1111 L659 1115 L653 1117 L649 1117 L645 1119 L637 1120 L636 1118 L638 1114 L638 1100 L639 1099 L639 1090 L638 1089 L639 1088 L662 1087 Z M489 1086 L516 1087 L517 1088 L524 1088 L525 1089 L524 1102 L523 1103 L524 1104 L523 1105 L523 1122 L522 1123 L497 1122 L496 1121 L487 1120 L484 1117 L486 1099 Z M484 1085 L485 1086 L485 1093 L484 1094 L483 1108 L481 1116 L476 1113 L476 1100 L477 1099 L478 1086 L479 1085 Z M690 1083 L691 1086 L687 1095 L674 1104 L673 1103 L674 1101 L674 1086 L675 1085 Z M376 1111 L378 1106 L378 1102 L380 1099 L383 1088 L386 1083 L396 1092 L393 1099 L393 1102 L390 1107 L390 1117 L391 1118 L392 1149 L397 1164 L406 1174 L419 1182 L421 1182 L430 1187 L460 1194 L467 1194 L475 1196 L485 1196 L486 1197 L490 1196 L491 1197 L500 1197 L501 1198 L515 1198 L516 1199 L523 1199 L524 1198 L526 1199 L563 1199 L564 1198 L600 1198 L601 1197 L610 1197 L611 1196 L612 1197 L616 1197 L617 1196 L624 1196 L630 1194 L635 1194 L639 1192 L652 1189 L659 1186 L670 1179 L675 1174 L678 1169 L680 1156 L682 1152 L683 1144 L687 1132 L687 1129 L684 1124 L684 1111 L683 1110 L684 1106 L691 1106 L692 1107 L696 1122 L697 1138 L698 1139 L697 1160 L696 1161 L695 1169 L691 1179 L680 1193 L668 1201 L641 1210 L625 1212 L624 1213 L618 1213 L617 1214 L610 1214 L609 1215 L582 1216 L581 1217 L520 1217 L519 1216 L502 1216 L501 1215 L490 1215 L489 1214 L465 1212 L464 1211 L452 1210 L451 1209 L431 1206 L414 1201 L402 1195 L390 1185 L385 1178 L380 1168 L376 1154 L375 1135 L374 1134 Z M708 1082 L714 1085 L726 1097 L728 1116 L729 1117 L729 1128 L730 1129 L730 1165 L729 1166 L729 1176 L728 1177 L727 1192 L721 1214 L717 1222 L711 1229 L704 1229 L697 1227 L696 1226 L697 1225 L695 1226 L687 1222 L669 1204 L679 1198 L687 1190 L692 1183 L698 1169 L699 1160 L700 1159 L700 1131 L699 1130 L699 1119 L697 1116 L696 1110 L705 1091 L706 1092 L706 1099 L707 1100 L706 1109 L708 1107 L708 1088 L707 1087 L707 1083 Z M706 1082 L707 1081 L708 1082 L707 1083 Z M702 1080 L704 1083 L704 1088 L697 1104 L697 1108 L696 1109 L691 1094 L693 1091 L694 1083 L697 1081 L701 1081 Z M441 1080 L453 1083 L474 1084 L475 1085 L474 1100 L473 1101 L473 1112 L474 1113 L473 1117 L465 1117 L450 1113 L441 1112 L436 1108 L437 1093 Z M433 1079 L436 1080 L437 1083 L434 1095 L434 1101 L433 1104 L430 1106 L428 1098 L428 1088 L429 1087 L429 1080 Z M406 1074 L422 1077 L427 1079 L427 1083 L426 1084 L426 1103 L427 1106 L426 1107 L419 1105 L409 1100 L403 1095 L402 1088 Z M402 1073 L403 1076 L399 1087 L398 1086 L399 1074 Z M719 1069 L723 1078 L723 1083 L725 1090 L724 1094 L717 1085 L706 1079 L714 1075 Z M387 1069 L397 1073 L396 1074 L396 1086 L395 1087 L391 1084 L387 1078 L386 1075 L386 1070 Z M357 1055 L362 1059 L370 1063 L362 1067 L358 1071 L354 1078 L364 1068 L368 1066 L369 1067 L367 1075 L367 1089 L368 1090 L369 1104 L371 1108 L372 1108 L370 1100 L370 1072 L371 1068 L373 1066 L378 1066 L383 1069 L383 1074 L385 1081 L380 1088 L375 1103 L373 1119 L372 1120 L372 1146 L373 1147 L373 1153 L374 1154 L375 1162 L379 1173 L384 1182 L392 1191 L381 1200 L373 1204 L365 1206 L357 1205 L352 1200 L349 1192 L347 1179 L346 1178 L345 1158 L344 1157 L344 1129 L345 1128 L346 1102 L348 1095 L350 1076 L353 1064 Z M360 1050 L362 1048 L364 1048 L380 1057 L392 1061 L409 1064 L418 1067 L432 1069 L433 1070 L439 1070 L440 1071 L458 1073 L459 1074 L487 1076 L488 1077 L498 1077 L499 1078 L512 1078 L513 1079 L534 1079 L535 1078 L543 1079 L544 1080 L620 1080 L621 1079 L639 1079 L640 1078 L654 1078 L655 1077 L665 1077 L666 1076 L688 1074 L706 1069 L714 1064 L716 1064 L718 1066 L718 1068 L714 1072 L708 1075 L695 1079 L679 1081 L678 1082 L671 1082 L670 1083 L662 1083 L661 1084 L648 1084 L647 1085 L634 1085 L633 1086 L592 1086 L591 1087 L518 1085 L517 1084 L500 1084 L499 1083 L463 1081 L462 1080 L440 1078 L439 1077 L434 1077 L423 1074 L408 1072 L392 1068 L369 1060 L361 1055 Z M538 1010 L536 1016 L536 1032 L535 1033 L535 1072 L536 1072 L536 1057 L537 1056 Z M642 998 L643 997 L644 998 L643 999 Z M564 997 L565 996 L566 997 L565 998 Z M505 995 L506 994 L507 995 L506 996 Z M577 994 L569 997 L565 996 L572 993 L576 993 Z M502 994 L503 993 L505 994 L504 995 Z M576 993 L577 992 L580 993 L579 994 Z M631 993 L636 990 L639 990 L643 994 L642 995 L632 995 Z M566 990 L567 989 L570 990 L569 991 Z M505 990 L508 989 L516 993 L532 997 L546 997 L547 996 L551 996 L564 990 L567 991 L553 1001 L547 1004 L536 1006 L519 999 Z M582 989 L583 988 L585 989 L584 990 Z M504 989 L505 988 L506 989 L505 990 Z M502 988 L503 987 L504 988 L503 989 Z M430 991 L433 990 L435 987 L437 989 L441 989 L442 990 L441 992 L431 992 Z M428 988 L429 987 L430 988 L429 989 Z M572 984 L573 983 L575 984 L574 985 Z M433 983 L434 986 L432 988 L430 988 L429 987 Z M499 983 L500 982 L502 983 L501 984 Z M433 983 L434 982 L435 983 L434 984 Z M584 988 L589 985 L604 980 L622 980 L628 982 L634 987 L634 989 L631 991 L611 990 L605 988 L599 988 L598 989 L585 989 Z M437 985 L446 977 L449 976 L461 976 L480 981 L493 987 L489 988 L481 986 L473 986 L472 987 L459 986 L451 989 L445 989 L444 988 L440 988 Z M458 971 L459 970 L465 970 L466 971 L465 972 L459 972 Z M897 966 L898 965 L899 966 L898 967 Z M898 965 L899 964 L900 965 L899 966 Z M445 966 L454 966 L454 965 Z M185 938 L186 937 L187 938 L186 939 Z M184 937 L185 936 L186 937 L185 938 Z M267 917 L268 916 L269 917 L268 918 Z M268 916 L269 915 L270 916 L269 917 Z M859 920 L878 912 L890 913 L897 920 L898 928 L899 929 L898 935 L896 939 L889 945 L886 946 L876 945 L868 938 Z M857 917 L856 921 L864 938 L872 946 L879 949 L887 949 L892 947 L898 941 L901 933 L901 922 L898 916 L893 911 L888 909 L877 909 Z M281 904 L282 903 L283 904 L282 905 Z M282 903 L283 902 L284 903 L283 904 Z M283 902 L284 901 L285 902 L284 903 Z M284 901 L285 900 L286 901 L285 902 Z M673 900 L674 899 L675 901 L674 902 Z M285 900 L286 899 L287 900 L286 901 Z M286 899 L287 898 L288 899 L287 900 Z M672 898 L673 897 L674 899 L673 900 Z M287 898 L288 897 L289 898 L288 899 Z M288 897 L289 896 L290 897 L289 898 Z M788 896 L789 895 L790 896 L789 897 Z M787 895 L788 894 L789 895 L788 896 Z M791 894 L792 893 L793 894 L792 895 Z M400 892 L401 891 L402 892 L401 893 Z M401 890 L402 889 L403 891 L402 892 Z M402 889 L403 888 L404 889 L403 890 Z M187 903 L187 898 L189 893 L192 889 L199 885 L215 886 L231 893 L241 896 L221 912 L208 918 L204 918 L195 914 Z M184 903 L188 911 L193 916 L200 920 L208 921 L215 919 L228 911 L245 897 L247 894 L234 891 L215 883 L199 882 L194 884 L189 888 L185 895 Z M307 879 L308 880 L290 897 L289 895 L293 890 L293 886 L289 882 L290 881 L301 881 Z M307 879 L308 878 L310 879 L309 880 Z M895 865 L905 870 L915 881 L919 891 L919 895 L921 901 L921 906 L919 911 L917 910 L915 903 L909 894 L899 888 L892 886 L880 886 L879 887 L874 887 L866 889 L841 898 L817 911 L817 913 L821 917 L848 937 L846 934 L820 913 L835 904 L846 899 L848 899 L858 894 L876 889 L895 889 L899 890 L906 894 L910 898 L917 914 L917 921 L906 953 L895 964 L887 969 L872 973 L865 972 L856 968 L849 963 L826 940 L789 897 L790 896 L793 897 L792 896 L793 894 L803 893 L809 891 L835 878 L863 867 L871 866 L872 865 L878 865 L879 864 Z M622 858 L612 865 L608 872 L606 879 L608 878 L613 867 Z M166 897 L168 883 L170 877 L176 867 L185 860 L197 857 L207 857 L208 858 L214 858 L215 859 L220 859 L232 862 L255 870 L265 876 L287 882 L291 886 L291 888 L277 906 L267 915 L266 917 L267 918 L261 924 L237 942 L222 947 L206 946 L197 942 L190 937 L179 925 L171 906 L168 903 Z M458 852 L458 853 L466 859 L470 865 L475 877 L477 878 L474 869 L469 860 L463 854 Z M448 849 L453 850 L452 849 Z M467 820 L468 819 L469 821 L468 822 Z M693 791 L694 790 L695 791 L694 792 Z M692 790 L693 789 L694 790 L693 791 Z M675 771 L676 770 L677 771 L676 772 Z M477 770 L478 769 L479 770 L478 771 Z M673 768 L674 767 L675 768 L674 769 Z M663 744 L664 743 L665 745 L664 746 Z M433 743 L434 744 L433 747 L432 746 Z M273 743 L274 742 L275 743 L274 744 Z M894 742 L895 741 L896 742 L895 743 Z M896 741 L901 739 L908 739 L914 742 L918 746 L916 747 L913 744 L908 742 L897 742 Z M273 739 L274 740 L273 743 L272 742 Z M181 740 L182 739 L183 740 L182 741 Z M663 738 L664 739 L663 743 L662 742 Z M182 739 L183 738 L185 739 L184 740 Z M184 738 L185 737 L188 738 L187 739 Z M540 736 L556 736 L558 738 L562 745 L567 765 L569 783 L571 790 L571 796 L572 797 L572 803 L573 804 L574 818 L575 819 L578 856 L579 857 L579 866 L580 867 L581 918 L580 919 L580 931 L577 944 L583 941 L591 940 L596 930 L596 928 L609 907 L623 893 L639 884 L651 884 L656 886 L668 897 L672 903 L678 916 L678 921 L681 931 L681 938 L680 939 L681 954 L677 969 L671 980 L662 989 L656 992 L648 993 L640 984 L628 977 L621 975 L612 975 L611 973 L607 973 L585 980 L577 984 L572 982 L570 984 L550 993 L533 994 L532 993 L522 992 L514 987 L507 985 L500 981 L499 983 L497 983 L477 975 L466 973 L465 972 L466 971 L470 971 L485 976 L488 976 L477 971 L463 969 L462 968 L452 968 L452 969 L457 969 L458 970 L457 971 L451 971 L444 973 L435 978 L424 988 L420 989 L411 984 L403 976 L397 966 L392 953 L391 945 L390 944 L390 926 L396 907 L405 892 L413 884 L419 880 L425 878 L430 878 L431 877 L432 878 L438 878 L448 882 L457 888 L464 895 L472 906 L484 929 L488 940 L490 942 L491 941 L496 941 L504 943 L504 939 L503 938 L504 905 L505 904 L506 883 L507 882 L507 874 L508 873 L508 866 L509 865 L509 858 L510 857 L514 823 L515 822 L517 806 L518 805 L521 786 L523 781 L523 777 L527 761 L533 744 Z M187 737 L188 736 L192 737 L191 738 Z M883 749 L883 750 L885 750 L895 745 L905 744 L916 749 L925 758 L923 751 L919 744 L914 739 L907 736 L898 737 L892 740 Z M491 736 L490 736 L489 741 L485 749 L483 757 L475 770 L473 776 L459 802 L452 810 L446 820 L432 836 L413 853 L395 873 L377 899 L355 935 L331 968 L322 983 L324 982 L333 968 L348 949 L373 911 L374 908 L401 869 L441 829 L453 813 L458 804 L462 800 L469 786 L471 784 L471 782 L477 771 L478 773 L480 772 Z M434 736 L435 735 L436 737 L435 738 Z M191 736 L192 735 L198 735 L199 736 L198 737 L192 737 Z M833 735 L834 734 L835 736 L834 737 Z M272 734 L273 735 L272 739 L271 738 Z M172 749 L186 741 L194 740 L195 739 L206 740 L216 744 L216 743 L210 738 L202 734 L190 733 L182 736 L174 744 Z M436 730 L437 731 L436 734 L435 733 Z M271 729 L272 730 L272 734 L271 735 L270 734 L270 730 Z M539 728 L540 727 L541 728 L540 729 Z M601 727 L602 735 L610 760 L617 776 L629 814 L635 827 L645 841 L675 873 L713 923 L746 972 L759 994 L765 1008 L766 1008 L764 1001 L749 973 L717 925 L675 870 L651 846 L638 829 L632 817 L621 782 L609 753 Z M566 727 L561 732 L558 733 L545 733 L540 729 L541 728 L550 728 L551 727 L558 727 L559 726 L565 726 Z M259 723 L260 734 L266 753 L273 766 L284 781 L292 789 L306 799 L321 806 L342 811 L359 811 L360 810 L367 810 L368 809 L376 808 L394 801 L409 791 L423 777 L429 769 L437 754 L445 729 L444 727 L437 748 L425 770 L403 792 L397 796 L378 805 L370 807 L365 807 L364 808 L339 808 L320 803 L310 798 L299 791 L288 781 L273 760 L266 746 L260 722 Z M736 719 L739 716 L741 716 L744 719 L744 721 L742 723 L737 723 Z M747 714 L755 715 L759 717 L766 724 L769 730 L769 741 L766 747 L759 754 L751 757 L743 756 L737 753 L733 749 L729 741 L729 732 L731 727 L735 723 L737 725 L735 728 L736 728 L737 725 L744 724 L746 722 L746 719 L743 716 Z M749 712 L748 713 L743 713 L735 717 L729 725 L726 734 L727 742 L730 749 L736 755 L745 759 L752 759 L762 755 L768 749 L772 738 L771 728 L768 722 L763 717 L755 713 L750 713 Z M576 711 L562 717 L549 718 L548 719 L534 718 L522 715 L534 720 L550 721 L551 720 L561 719 L572 714 Z M348 710 L354 710 L362 714 L367 719 L370 725 L370 736 L367 742 L359 749 L353 751 L347 751 L339 748 L332 741 L330 737 L330 726 L333 720 L336 718 L340 718 L342 720 L338 724 L340 724 L344 721 L349 720 L350 719 L350 714 L347 711 Z M336 715 L339 712 L345 710 L348 713 L349 716 L347 719 L344 719 Z M345 708 L338 711 L331 718 L328 724 L327 734 L331 744 L335 748 L342 752 L354 753 L362 750 L367 746 L371 740 L373 733 L373 728 L369 718 L363 712 L354 708 Z M669 709 L671 706 L699 706 L702 705 L703 706 L740 706 L741 707 L781 708 L782 709 L793 709 L794 710 L803 710 L804 711 L817 712 L822 714 L821 738 L818 749 L812 762 L806 771 L792 785 L777 794 L763 799 L751 800 L750 801 L731 800 L714 795 L703 789 L696 784 L682 769 L675 757 L669 739 L669 734 L668 733 Z M277 704 L279 701 L287 703 L300 703 L301 702 L374 702 L375 701 L376 702 L386 702 L387 701 L388 702 L429 702 L431 704 L431 725 L427 742 L420 757 L413 767 L403 777 L393 784 L374 792 L366 793 L365 794 L356 794 L355 795 L352 794 L342 794 L324 789 L312 783 L305 778 L291 763 L282 747 L278 735 L277 723 L276 722 Z M269 699 L272 703 L271 707 L271 729 L270 730 L267 718 L268 700 Z M438 698 L439 699 L440 712 L439 713 L439 722 L437 729 L436 728 L436 722 L437 721 L436 702 Z M916 697 L917 696 L918 697 L917 698 Z M268 697 L269 696 L270 698 L269 699 Z M915 696 L916 695 L917 696 L916 697 Z M185 694 L186 693 L187 694 L186 695 Z M270 692 L271 693 L270 696 L269 695 Z M186 693 L187 692 L188 693 L187 694 Z M209 691 L210 690 L211 691 L210 692 Z M899 690 L900 689 L909 689 L913 691 L916 695 L914 696 L909 693 L902 692 Z M435 690 L436 689 L437 691 L436 692 Z M270 690 L271 689 L272 691 L271 692 Z M187 692 L190 689 L196 687 L206 688 L209 690 L208 691 L203 691 L202 690 L194 691 L190 693 Z M434 687 L435 686 L436 688 L435 689 Z M272 686 L273 687 L272 690 L271 689 Z M884 695 L884 696 L893 693 L905 694 L914 698 L922 706 L924 706 L923 702 L918 693 L915 690 L909 687 L905 686 L899 687 L891 690 Z M178 701 L180 701 L185 697 L195 693 L208 693 L223 698 L217 692 L209 687 L204 685 L194 685 L185 690 Z M433 684 L434 683 L435 685 L434 686 Z M432 682 L433 681 L434 682 L433 683 Z M274 680 L275 683 L273 686 L272 683 Z M431 680 L432 679 L433 680 L432 681 Z M274 679 L275 678 L276 680 L275 681 Z M430 677 L431 676 L432 678 L431 679 Z M275 677 L276 676 L277 678 L276 679 Z M429 675 L430 674 L431 676 L430 677 Z M428 674 L429 673 L430 674 L429 675 Z M427 672 L428 671 L429 672 L428 673 Z M426 670 L427 669 L428 670 L427 671 Z M425 669 L426 668 L427 669 L426 670 Z M508 689 L512 682 L517 677 L528 670 L544 666 L556 667 L568 671 L574 675 L581 682 L586 692 L586 703 L581 712 L576 717 L567 722 L559 724 L554 724 L553 725 L538 725 L527 722 L518 718 L511 711 L507 703 Z M424 667 L425 666 L426 667 L425 668 Z M423 665 L424 664 L425 666 L424 667 Z M532 664 L533 663 L536 664 L535 665 Z M422 664 L423 663 L424 664 L423 665 Z M532 662 L529 664 L531 664 L532 665 L521 670 L510 680 L504 693 L504 703 L508 713 L514 719 L518 720 L524 724 L517 726 L515 728 L513 727 L513 725 L504 744 L504 747 L500 757 L500 760 L498 764 L497 771 L495 775 L491 791 L491 795 L489 800 L486 820 L485 821 L484 834 L483 835 L483 843 L482 844 L482 875 L483 876 L483 882 L484 883 L486 898 L488 906 L491 911 L486 891 L485 879 L484 878 L484 870 L483 869 L484 844 L485 843 L486 829 L487 828 L487 822 L490 811 L490 806 L492 801 L492 797 L494 792 L494 788 L501 760 L507 741 L511 732 L513 730 L519 727 L523 727 L531 734 L532 733 L527 729 L528 728 L540 731 L541 732 L540 733 L538 733 L534 736 L534 738 L530 744 L522 769 L522 773 L519 782 L519 786 L515 802 L515 807 L513 813 L513 818 L512 819 L512 824 L509 837 L509 843 L507 850 L507 858 L506 859 L506 866 L505 867 L505 874 L504 875 L504 882 L503 883 L502 907 L501 908 L501 939 L500 940 L490 937 L480 914 L470 898 L458 885 L452 881 L438 875 L429 874 L421 876 L415 879 L404 889 L403 888 L407 879 L417 865 L426 856 L436 849 L450 843 L452 845 L461 836 L467 822 L468 823 L469 839 L471 844 L472 844 L470 837 L470 822 L468 819 L468 816 L478 786 L480 775 L460 833 L457 836 L446 842 L439 844 L425 853 L410 869 L404 878 L396 894 L388 921 L387 935 L386 936 L387 937 L388 950 L391 958 L380 973 L368 996 L359 1020 L359 1023 L355 1035 L355 1040 L357 1037 L357 1033 L360 1025 L360 1022 L362 1019 L368 1001 L379 979 L387 966 L391 962 L400 977 L410 987 L414 989 L416 992 L425 996 L433 997 L434 998 L449 998 L450 997 L464 995 L464 993 L448 995 L447 996 L435 996 L434 995 L435 994 L444 994 L463 989 L483 989 L484 990 L502 992 L503 993 L502 994 L498 994 L497 993 L489 993 L489 994 L504 997 L515 1001 L522 1005 L526 1004 L529 1006 L537 1008 L561 1002 L564 1000 L570 999 L585 993 L592 993 L593 992 L612 992 L618 994 L623 994 L630 997 L635 997 L640 999 L639 1000 L625 999 L609 994 L615 998 L629 1002 L643 1002 L653 998 L668 988 L677 976 L682 963 L694 980 L707 1006 L716 1032 L719 1047 L720 1044 L719 1043 L717 1030 L707 1001 L694 976 L683 962 L683 957 L685 950 L684 923 L680 906 L673 887 L669 879 L659 865 L644 851 L627 840 L620 822 L612 786 L612 793 L613 794 L614 806 L617 816 L617 821 L621 834 L623 837 L617 844 L623 839 L630 846 L636 849 L650 860 L664 877 L672 892 L673 897 L672 898 L661 886 L652 881 L643 880 L633 883 L618 893 L607 905 L598 919 L592 931 L592 933 L587 938 L584 939 L581 938 L582 928 L583 927 L583 873 L582 872 L582 860 L581 859 L579 829 L578 828 L576 804 L575 803 L575 797 L574 796 L568 756 L564 742 L559 735 L564 733 L570 726 L575 727 L583 732 L586 740 L589 756 L591 760 L592 768 L594 773 L597 793 L598 794 L598 799 L599 800 L599 805 L600 806 L601 821 L602 822 L602 833 L603 834 L602 874 L600 882 L600 889 L598 893 L594 909 L599 898 L601 890 L602 878 L603 877 L603 870 L604 869 L604 859 L605 858 L605 828 L604 827 L604 819 L603 818 L603 811 L602 810 L599 786 L585 733 L583 730 L581 730 L577 726 L573 725 L571 723 L578 719 L585 712 L588 706 L589 694 L584 681 L576 673 L570 669 L557 664 L553 664 L550 661 Z M420 661 L421 660 L423 663 L422 664 Z M419 660 L420 659 L421 660 L420 661 Z M418 659 L419 658 L420 659 L419 660 Z M669 700 L673 690 L681 676 L697 659 L703 655 L717 648 L731 644 L756 643 L773 647 L787 654 L794 659 L808 673 L814 682 L819 692 L824 709 L823 710 L818 710 L817 709 L791 707 L790 706 L761 705 L760 704 L741 704 L740 703 L677 703 L676 704 L674 703 L673 704 Z M276 695 L280 684 L289 669 L307 651 L321 643 L326 642 L332 639 L340 638 L341 637 L348 637 L349 636 L358 636 L359 637 L371 638 L387 643 L398 649 L407 656 L414 663 L422 674 L429 689 L431 698 L430 699 L306 699 L305 700 L287 700 L286 699 L279 699 L276 697 Z M676 667 L692 651 L703 644 L723 636 L737 634 L738 633 L758 633 L759 634 L764 634 L772 636 L788 643 L800 651 L813 664 L823 679 L828 690 L833 709 L834 721 L833 722 L833 729 L831 737 L832 738 L833 736 L834 739 L830 753 L821 770 L817 765 L823 754 L824 749 L828 743 L826 738 L828 730 L828 716 L827 714 L830 710 L829 704 L826 697 L826 694 L819 679 L813 670 L797 654 L778 643 L754 637 L738 637 L737 638 L726 639 L719 642 L716 642 L700 650 L694 654 L679 669 L673 678 L666 692 L664 698 L665 705 L663 709 L663 717 L662 718 L662 730 L663 731 L663 737 L662 738 L660 732 L660 722 L659 721 L661 701 L665 687 Z M736 631 L710 638 L694 647 L677 662 L671 670 L664 683 L658 702 L657 730 L659 735 L659 739 L661 742 L661 745 L672 769 L681 780 L682 779 L693 789 L692 792 L696 791 L703 796 L722 804 L730 805 L731 806 L739 806 L740 807 L763 805 L767 803 L773 802 L784 797 L799 787 L809 777 L817 766 L818 770 L820 772 L816 778 L798 796 L786 804 L775 809 L756 814 L731 814 L730 813 L725 813 L703 805 L693 799 L681 789 L669 775 L664 767 L657 752 L653 738 L652 738 L652 741 L658 759 L665 773 L672 783 L687 798 L696 804 L710 811 L719 814 L723 814 L728 816 L748 817 L749 816 L763 815 L784 808 L799 799 L815 784 L826 768 L833 752 L834 744 L835 743 L834 730 L836 724 L836 714 L835 713 L833 697 L825 678 L815 663 L798 647 L778 636 L769 633 L759 632 L758 631 Z M276 676 L277 672 L286 658 L304 642 L306 643 L305 642 L307 640 L318 634 L334 629 L339 629 L340 628 L363 628 L386 634 L404 643 L419 657 L418 659 L404 646 L385 636 L365 631 L342 631 L341 632 L332 633 L318 638 L303 647 L288 661 L280 672 L279 675 L277 677 Z M345 625 L344 626 L328 628 L313 634 L295 646 L286 655 L276 669 L267 690 L266 702 L265 703 L265 716 L266 717 L266 724 L267 725 L268 734 L270 740 L279 756 L280 761 L284 763 L290 772 L298 780 L314 791 L332 798 L337 798 L343 800 L363 800 L392 793 L393 790 L398 788 L410 779 L420 768 L427 757 L432 746 L433 748 L434 746 L433 740 L434 739 L435 742 L437 740 L438 733 L440 729 L441 717 L442 716 L442 702 L441 701 L441 696 L439 688 L432 671 L422 656 L410 644 L403 639 L389 632 L367 626 L361 626 L360 625 Z M649 694 L648 708 L647 709 L647 720 L648 721 L648 711 L649 710 L650 698 L657 675 L667 659 L679 646 L694 635 L718 624 L730 621 L735 621 L736 620 L761 620 L781 625 L796 632 L813 644 L825 657 L833 669 L842 691 L844 705 L845 706 L845 732 L844 736 L845 736 L846 733 L846 728 L847 727 L847 708 L846 707 L845 695 L839 676 L829 658 L818 645 L801 632 L785 624 L769 619 L756 618 L755 617 L742 617 L741 618 L728 619 L708 625 L694 632 L681 641 L664 659 L655 675 Z M254 706 L254 717 L256 722 L256 702 L262 678 L274 656 L292 637 L305 628 L315 623 L327 619 L331 619 L337 617 L344 617 L345 616 L356 616 L357 617 L365 617 L378 620 L391 625 L409 636 L421 647 L435 665 L444 684 L448 699 L449 720 L450 720 L450 701 L449 700 L449 695 L444 678 L436 662 L429 652 L413 636 L400 627 L380 618 L368 615 L361 615 L360 614 L341 614 L340 615 L334 615 L322 618 L300 628 L289 636 L276 649 L266 664 L257 687 L256 696 L255 697 L255 705 Z M671 604 L661 607 L644 616 L631 625 L615 641 L606 654 L600 669 L599 693 L600 692 L600 679 L601 678 L602 669 L606 659 L615 645 L629 630 L639 622 L653 613 L665 607 L667 607 Z M425 603 L428 606 L440 612 L454 622 L468 635 L476 645 L486 664 L489 676 L490 692 L491 690 L491 681 L490 680 L490 673 L489 672 L488 664 L482 650 L474 638 L458 622 L440 610 Z M655 588 L656 587 L657 588 L656 589 Z M234 582 L237 584 L244 584 L244 583 Z M663 575 L662 575 L658 582 L658 586 Z M218 566 L220 565 L222 567 L220 568 Z M215 565 L216 564 L219 565 L218 566 Z M654 563 L655 562 L656 564 L655 565 Z M211 563 L213 562 L216 564 L213 565 Z M198 563 L200 569 L206 575 L211 576 L223 585 L207 568 L208 567 L207 564 L205 563 L206 567 L203 568 L200 563 Z M212 559 L213 558 L214 559 L213 560 Z M211 558 L212 557 L213 558 L212 559 Z M850 564 L854 562 L861 561 L867 558 L867 557 L862 557 L861 558 L856 557 L852 560 L852 562 Z M235 557 L236 556 L237 557 L236 558 Z M234 556 L235 555 L236 556 L235 557 Z M210 556 L211 555 L212 556 L211 557 Z M209 555 L210 554 L211 555 L210 556 Z M208 554 L209 553 L210 554 L209 555 Z M739 552 L737 552 L732 558 Z M760 551 L751 557 L742 566 L750 561 Z M433 550 L432 550 L429 564 L430 564 L433 558 Z M228 545 L231 547 L230 549 L231 548 L233 550 L235 554 L234 556 L231 555 L228 552 L227 549 Z M794 545 L795 544 L796 545 L795 546 Z M392 545 L393 544 L394 546 L393 547 Z M226 545 L227 544 L228 545 L227 546 Z M230 544 L232 542 L235 545 L233 546 Z M229 543 L230 542 L231 543 L230 544 Z M419 541 L422 547 L422 559 L421 560 L418 549 L418 542 Z M230 542 L231 541 L232 542 L231 543 Z M228 542 L229 541 L230 542 L229 543 Z M227 541 L228 540 L229 541 L228 542 Z M795 540 L796 539 L797 540 L796 541 Z M713 540 L714 539 L715 540 L714 541 Z M268 540 L271 543 L271 541 Z M796 539 L797 538 L798 539 L797 540 Z M306 539 L307 538 L308 539 L307 540 Z M249 538 L251 540 L251 544 L250 545 L248 543 L248 539 Z M305 538 L306 537 L307 538 L306 539 Z M417 536 L418 535 L419 536 L418 537 Z M741 535 L742 534 L743 536 L742 537 Z M745 534 L746 533 L747 535 L746 536 Z M767 533 L765 533 L757 540 L761 539 Z M742 533 L743 532 L744 534 L743 535 Z M720 531 L721 533 L719 537 L715 540 L714 539 L715 535 L718 534 Z M688 531 L689 530 L690 532 L689 533 Z M360 530 L361 529 L362 530 L361 531 Z M345 529 L346 530 L345 533 L344 532 Z M689 529 L690 528 L691 530 L690 531 Z M329 529 L330 528 L331 529 L330 530 Z M328 527 L329 526 L330 528 L329 529 Z M328 523 L329 524 L328 527 L327 526 Z M298 522 L300 523 L300 525 L306 536 L305 538 L298 529 L298 524 L297 523 Z M361 521 L362 520 L363 522 L362 523 Z M310 521 L311 520 L312 521 L311 522 Z M300 518 L301 517 L302 519 L301 520 Z M329 517 L330 516 L331 518 L330 519 Z M390 514 L391 515 L390 518 L389 517 Z M297 511 L297 517 L295 521 L297 531 L309 544 L316 549 L311 543 L302 525 L301 520 L302 519 L304 520 L301 514 Z M652 504 L653 503 L654 505 L653 506 Z M653 503 L654 502 L655 503 L654 504 Z M729 498 L730 497 L731 498 L730 499 Z M885 492 L879 492 L873 495 L849 518 L843 526 L843 529 L835 541 L831 545 L832 546 L834 544 L835 546 L823 554 L828 553 L835 549 L836 551 L834 553 L827 556 L826 558 L839 552 L837 550 L838 549 L837 545 L855 517 L870 503 L878 497 L883 495 Z M761 484 L762 483 L763 484 L762 485 Z M762 482 L763 481 L764 482 L763 483 Z M763 481 L764 480 L765 481 L764 482 Z M247 478 L246 480 L254 492 L267 519 L269 521 L268 526 L272 538 L273 538 L274 535 L276 537 L281 537 L284 539 L286 538 L285 534 L286 532 L294 539 L290 532 L286 528 L284 528 L283 532 L284 537 L283 538 L282 536 L272 533 L271 526 L273 525 L273 523 L263 498 L257 487 L251 480 Z M402 477 L412 503 L412 506 L415 514 L417 529 L418 530 L418 535 L416 536 L416 549 L418 553 L418 564 L414 572 L415 573 L419 566 L422 564 L425 552 L424 546 L420 539 L421 538 L421 521 L417 505 L412 491 L404 477 Z M824 471 L823 471 L823 479 L819 495 L813 511 L806 525 L802 531 L795 538 L794 540 L796 541 L784 552 L786 552 L793 547 L799 546 L808 539 L809 540 L808 539 L810 537 L811 541 L809 545 L798 556 L803 553 L811 545 L813 541 L813 534 L816 528 L813 528 L811 531 L811 534 L806 537 L801 542 L796 545 L795 544 L809 528 L816 517 L821 506 L826 487 L826 481 L825 480 L826 478 Z M721 470 L719 470 L713 478 L690 522 L687 533 L686 534 L685 532 L683 533 L676 547 L676 550 L677 550 L682 540 L683 544 L681 549 L681 556 L680 558 L682 557 L683 552 L688 544 L688 541 L686 544 L685 543 L686 534 L688 532 L689 533 L688 537 L691 536 L694 526 L701 512 L701 510 L713 489 L713 487 L721 473 L720 472 Z M352 470 L358 486 L361 498 L361 507 L362 508 L362 515 L359 516 L358 531 L366 545 L370 549 L363 535 L363 531 L362 530 L362 523 L363 522 L367 527 L372 538 L377 544 L377 542 L370 529 L368 523 L366 523 L363 518 L364 517 L364 491 L359 476 L354 470 Z M733 469 L731 469 L728 472 L728 474 L729 473 L731 474 L728 496 L720 521 L712 537 L708 549 L716 542 L720 540 L723 536 L723 532 L721 532 L720 530 L729 511 L735 489 L735 473 Z M261 469 L262 468 L263 469 L262 470 Z M575 468 L578 471 L584 482 L584 480 L578 469 Z M198 467 L195 471 L192 483 Z M375 464 L375 467 L377 470 L380 482 L385 494 L390 511 L389 515 L387 510 L385 510 L386 515 L389 521 L389 528 L388 529 L387 537 L391 547 L393 558 L395 560 L393 547 L394 546 L397 551 L398 551 L398 549 L392 537 L391 533 L391 527 L392 526 L399 539 L400 543 L401 543 L401 539 L394 526 L393 509 L386 482 L379 467 Z M315 461 L321 472 L327 493 L333 505 L336 516 L335 519 L330 511 L329 506 L326 503 L327 512 L326 513 L325 526 L332 537 L335 539 L330 531 L332 530 L330 523 L330 519 L331 518 L343 533 L346 533 L350 539 L345 522 L343 523 L344 525 L342 527 L336 520 L338 519 L337 509 L329 481 L321 465 L317 461 Z M812 459 L809 460 L806 463 L799 475 L781 510 L781 512 L773 529 L768 536 L767 539 L770 540 L764 546 L763 549 L780 536 L781 532 L771 540 L769 539 L770 536 L775 533 L781 524 L784 514 L790 502 L803 481 L810 463 L812 461 Z M549 455 L556 470 L572 496 L576 505 L564 529 L548 555 L544 549 L536 532 L531 525 L521 505 L521 503 Z M531 455 L529 456 L522 469 L519 472 L512 487 L514 486 L519 474 L525 466 Z M368 455 L366 455 L364 457 L368 456 Z M921 521 L921 529 L922 530 L921 543 L916 559 L906 574 L900 580 L889 587 L887 587 L882 590 L878 590 L873 592 L853 591 L841 588 L801 574 L812 571 L793 573 L792 572 L773 570 L772 569 L764 569 L763 568 L737 568 L736 569 L722 570 L721 571 L716 571 L703 574 L702 573 L716 557 L712 559 L705 566 L699 575 L681 581 L680 580 L683 575 L688 570 L689 568 L688 567 L675 583 L657 588 L656 587 L655 575 L656 574 L657 565 L662 557 L661 556 L656 563 L655 562 L657 548 L661 543 L661 540 L667 527 L668 522 L677 503 L694 478 L681 490 L676 497 L660 530 L655 546 L655 551 L654 552 L651 547 L649 547 L645 557 L645 570 L646 572 L648 573 L647 572 L647 558 L650 551 L652 558 L652 565 L655 566 L654 574 L653 575 L653 579 L654 580 L654 586 L653 587 L643 574 L639 560 L639 538 L640 537 L641 529 L650 507 L652 505 L653 508 L656 504 L656 502 L655 503 L654 502 L656 498 L663 491 L681 478 L689 474 L694 476 L706 468 L715 467 L717 464 L724 462 L733 463 L743 468 L745 470 L749 479 L750 479 L751 475 L759 478 L761 480 L754 493 L754 495 L747 510 L743 522 L743 525 L739 535 L739 537 L741 536 L742 538 L737 547 L740 545 L750 533 L752 527 L750 527 L744 533 L743 530 L751 516 L756 501 L762 489 L770 477 L771 472 L774 469 L778 469 L779 470 L785 469 L793 462 L798 455 L804 452 L808 452 L809 453 L803 459 L807 458 L812 454 L814 454 L818 457 L826 470 L835 479 L839 488 L841 487 L842 484 L840 483 L841 482 L846 482 L852 480 L854 481 L853 482 L855 482 L861 476 L865 474 L872 475 L882 471 L895 470 L903 473 L905 475 L906 481 L897 501 L897 503 L889 516 L874 533 L868 542 L870 542 L875 539 L891 522 L901 504 L908 483 L910 485 L913 500 L917 508 L917 516 L915 522 L915 527 L912 534 L903 548 L892 561 L888 564 L878 568 L877 566 L874 565 L874 560 L872 559 L870 561 L872 560 L873 561 L871 565 L873 567 L869 571 L861 576 L861 577 L863 577 L867 575 L876 568 L877 569 L880 568 L883 569 L880 571 L887 571 L890 574 L884 579 L883 584 L879 588 L892 575 L891 572 L896 570 L903 562 L896 567 L894 567 L891 572 L889 570 L883 568 L891 565 L904 554 L913 541 L913 539 L915 537 L918 529 L919 521 L920 520 Z M560 452 L572 470 L572 468 L563 454 Z M310 450 L311 449 L312 450 L311 451 Z M289 446 L286 453 L286 463 L287 464 L287 470 L288 471 L292 492 L302 512 L310 524 L314 527 L315 530 L319 534 L313 519 L310 520 L305 513 L299 498 L291 472 L291 467 L290 466 L290 446 Z M549 444 L561 460 L576 485 L585 503 L581 504 L577 502 L573 493 L561 474 L551 455 L548 453 L519 502 L519 505 L528 524 L548 558 L552 550 L555 547 L568 526 L576 511 L577 506 L578 505 L584 505 L585 506 L563 544 L548 565 L524 528 L513 508 L512 503 L536 460 Z M549 442 L538 454 L524 477 L510 504 L517 521 L537 554 L547 568 L549 568 L562 550 L582 517 L587 506 L587 503 L577 484 L563 463 L558 453 Z M184 522 L187 511 L192 504 L196 502 L200 502 L204 504 L204 507 L206 504 L207 505 L208 510 L212 518 L221 532 L228 540 L224 542 L225 550 L228 555 L221 557 L219 555 L217 555 L216 557 L204 543 L192 523 L190 522 L189 524 L190 525 L190 530 L193 531 L194 534 L200 541 L199 545 L205 555 L212 562 L209 563 L209 564 L215 568 L221 570 L223 569 L228 571 L216 558 L217 556 L220 559 L223 557 L227 557 L231 560 L236 560 L244 563 L247 563 L243 561 L235 551 L237 550 L241 552 L246 552 L248 550 L251 552 L249 546 L250 545 L251 547 L255 546 L256 542 L260 545 L268 548 L271 551 L277 553 L271 549 L265 542 L264 538 L265 534 L267 533 L266 527 L264 527 L264 530 L262 534 L262 539 L264 543 L262 544 L257 540 L255 540 L256 542 L255 543 L252 541 L252 539 L249 534 L251 531 L234 502 L228 489 L224 476 L224 462 L221 459 L220 461 L220 480 L222 487 L233 508 L246 527 L246 544 L247 547 L246 548 L242 547 L241 550 L234 546 L236 544 L224 528 L209 505 L209 502 L205 495 L204 487 L203 486 L203 468 L206 458 L209 453 L213 449 L219 446 L224 446 L228 449 L227 453 L229 455 L242 461 L251 469 L250 470 L259 470 L261 469 L262 470 L260 473 L262 473 L266 471 L269 467 L269 463 L271 458 L278 449 L280 442 L283 438 L289 433 L297 433 L302 437 L308 451 L313 458 L314 457 L311 452 L312 450 L317 455 L328 459 L342 470 L350 467 L361 467 L366 471 L367 470 L367 466 L372 461 L376 459 L379 459 L395 466 L403 473 L410 476 L413 479 L419 482 L424 487 L424 489 L425 488 L431 494 L440 511 L444 526 L444 545 L439 561 L427 574 L419 577 L412 577 L410 576 L399 564 L398 564 L399 567 L406 574 L405 575 L388 570 L380 569 L372 556 L368 552 L371 559 L377 567 L376 568 L354 565 L345 560 L338 554 L348 564 L347 565 L336 564 L331 560 L328 560 L334 564 L333 565 L319 565 L318 566 L307 567 L306 568 L297 569 L282 574 L280 573 L281 572 L277 572 L280 573 L279 575 L269 574 L252 567 L253 569 L265 575 L273 577 L245 588 L236 589 L235 590 L227 590 L215 587 L207 582 L198 573 L194 567 L189 557 L185 544 Z M876 341 L877 340 L878 341 L877 342 Z M875 340 L876 339 L877 340 L876 341 Z M249 333 L250 332 L251 333 L250 334 Z M181 521 L181 539 L182 540 L182 544 L186 558 L191 568 L200 580 L207 586 L220 592 L226 592 L227 593 L241 592 L252 589 L265 583 L270 582 L275 579 L293 573 L310 570 L311 569 L331 568 L332 567 L365 569 L366 570 L377 571 L391 575 L395 575 L411 580 L419 580 L425 578 L432 574 L436 570 L442 561 L447 547 L447 525 L446 524 L445 516 L437 498 L427 484 L421 479 L417 477 L418 476 L417 477 L407 469 L393 462 L392 460 L414 438 L437 420 L457 408 L472 401 L497 392 L501 392 L510 389 L515 389 L522 387 L530 387 L531 386 L562 386 L563 387 L577 388 L594 392 L611 398 L634 410 L647 419 L664 434 L678 450 L692 470 L690 472 L685 472 L681 474 L665 487 L663 486 L650 501 L640 522 L639 529 L637 533 L636 546 L635 547 L636 562 L638 570 L646 584 L655 593 L668 587 L677 587 L681 584 L689 582 L698 578 L702 578 L706 576 L710 576 L721 573 L736 572 L737 571 L766 571 L767 572 L775 572 L776 573 L787 574 L803 578 L848 593 L858 594 L859 595 L879 594 L888 591 L897 586 L910 574 L915 567 L920 557 L925 537 L925 528 L924 527 L923 517 L921 510 L916 501 L912 481 L908 474 L901 469 L895 467 L879 468 L874 471 L864 471 L861 472 L854 477 L850 477 L849 474 L848 474 L848 476 L850 477 L849 478 L842 478 L841 479 L838 478 L833 473 L825 462 L824 459 L817 452 L810 449 L801 449 L797 451 L782 467 L773 466 L769 470 L767 474 L764 476 L760 476 L753 472 L751 472 L745 465 L741 463 L726 459 L712 462 L693 471 L684 453 L672 438 L660 426 L644 413 L630 404 L614 396 L595 389 L583 386 L573 385 L572 384 L564 384 L563 383 L530 383 L529 384 L521 384 L520 385 L514 385 L513 386 L496 389 L471 398 L444 412 L425 425 L413 435 L395 453 L390 460 L383 457 L377 456 L368 459 L364 464 L356 463 L355 464 L346 465 L343 467 L335 460 L324 454 L327 452 L332 443 L351 418 L376 393 L398 376 L419 363 L456 346 L492 335 L513 332 L514 331 L520 331 L521 330 L529 330 L530 329 L561 328 L562 329 L578 329 L579 330 L589 330 L590 331 L603 332 L629 338 L659 349 L680 360 L695 370 L709 381 L727 399 L740 416 L750 433 L765 465 L765 467 L767 469 L767 466 L758 442 L747 421 L739 409 L718 385 L695 366 L681 357 L660 346 L630 335 L609 330 L598 329 L597 328 L582 327 L581 326 L565 326 L564 325 L530 326 L529 327 L520 327 L519 328 L512 328 L511 329 L495 331 L479 335 L455 343 L418 360 L391 377 L370 394 L352 412 L339 428 L332 438 L324 454 L317 451 L312 446 L308 437 L299 430 L290 430 L284 433 L279 438 L276 443 L275 448 L269 455 L267 463 L257 467 L251 467 L246 460 L236 454 L227 444 L218 443 L212 446 L204 455 L200 466 L200 487 L204 499 L203 500 L197 499 L191 501 L186 506 Z M863 322 L864 321 L865 322 L864 323 Z M862 321 L863 320 L864 321 L863 322 Z M861 320 L862 319 L863 320 L862 321 Z M839 317 L841 316 L842 317 L846 317 L849 319 L853 319 L863 324 L865 322 L874 333 L876 339 L875 340 L857 327 L841 319 Z M837 316 L838 315 L839 316 L838 317 Z M786 308 L787 307 L789 308 L788 309 Z M784 307 L785 306 L786 307 L785 308 Z M329 305 L330 304 L332 305 L331 306 Z M440 301 L430 302 L429 303 L412 306 L376 319 L342 337 L315 356 L291 378 L268 406 L255 427 L250 437 L244 454 L246 453 L247 449 L251 443 L259 426 L275 402 L289 385 L306 368 L323 354 L348 337 L377 322 L397 314 L422 306 L434 304 Z M308 302 L305 301 L304 302 L296 303 L292 306 L283 309 L276 313 L279 313 L294 306 Z M671 300 L683 303 L686 305 L705 311 L735 325 L756 338 L783 360 L805 384 L822 409 L836 437 L845 462 L847 472 L848 472 L847 462 L842 444 L828 413 L815 392 L805 379 L778 351 L754 333 L739 324 L719 314 L700 307 L693 306 L690 304 Z M447 300 L442 301 L446 301 Z M285 317 L315 307 L319 307 L325 305 L329 305 L330 306 L310 316 L289 330 L275 341 L252 364 L237 383 L227 399 L217 420 L213 433 L215 431 L217 424 L226 405 L244 378 L262 357 L289 333 L315 316 L329 308 L333 307 L337 303 L342 303 L355 300 L362 300 L363 299 L370 299 L371 298 L378 298 L379 297 L400 297 L401 296 L498 296 L499 297 L506 297 L507 298 L522 298 L523 299 L593 299 L595 298 L592 298 L591 297 L592 296 L600 296 L604 298 L666 298 L667 297 L668 298 L719 299 L720 300 L744 301 L745 302 L776 305 L800 318 L823 334 L835 344 L858 368 L867 380 L882 404 L892 425 L899 446 L901 449 L904 461 L906 463 L899 438 L897 435 L892 420 L887 411 L887 409 L876 389 L858 364 L828 335 L804 318 L788 309 L789 308 L794 308 L799 310 L803 310 L824 315 L838 320 L840 322 L842 322 L856 330 L870 340 L886 354 L903 373 L912 386 L924 408 L936 438 L936 441 L938 445 L938 448 L940 452 L944 468 L947 488 L948 489 L948 494 L949 495 L949 501 L950 502 L952 527 L953 528 L953 539 L954 540 L954 555 L955 556 L956 632 L957 633 L957 643 L956 644 L957 646 L957 656 L956 657 L955 735 L954 736 L954 761 L953 762 L953 783 L952 784 L950 828 L949 829 L949 839 L948 840 L948 848 L947 849 L947 857 L946 858 L945 868 L940 879 L922 898 L919 885 L913 874 L905 867 L892 862 L873 862 L872 863 L863 864 L846 870 L813 886 L800 891 L787 891 L777 887 L780 892 L825 944 L849 967 L857 972 L865 975 L878 975 L885 973 L896 966 L898 968 L890 981 L879 995 L853 1022 L836 1042 L818 1070 L806 1094 L804 1092 L802 1081 L795 1060 L795 1057 L785 1030 L779 1020 L774 1017 L768 1018 L765 1025 L765 1053 L766 1054 L765 1101 L764 1102 L763 1124 L762 1125 L762 1131 L761 1132 L761 1138 L760 1139 L758 1154 L749 1185 L740 1204 L730 1218 L726 1222 L718 1227 L715 1226 L719 1222 L723 1214 L729 1192 L730 1180 L731 1179 L731 1171 L732 1170 L733 1139 L732 1138 L731 1113 L730 1112 L730 1106 L729 1105 L725 1076 L721 1066 L716 1062 L714 1062 L706 1067 L692 1071 L686 1071 L685 1072 L672 1073 L671 1074 L649 1075 L648 1076 L608 1077 L607 1078 L519 1077 L518 1076 L503 1076 L502 1075 L491 1075 L490 1074 L479 1074 L478 1073 L461 1072 L460 1071 L454 1071 L453 1070 L447 1070 L446 1069 L435 1068 L429 1066 L424 1066 L390 1058 L374 1052 L367 1047 L362 1046 L355 1053 L350 1066 L348 1079 L347 1080 L347 1085 L346 1086 L346 1091 L345 1092 L344 1106 L343 1107 L343 1118 L342 1119 L342 1160 L343 1161 L343 1170 L344 1171 L346 1187 L349 1197 L352 1202 L350 1203 L339 1193 L332 1181 L323 1155 L320 1135 L319 1134 L319 1126 L318 1125 L318 1117 L317 1116 L317 1099 L316 1098 L316 1065 L317 1064 L317 1047 L318 1046 L319 1022 L320 1021 L321 1002 L322 1001 L322 993 L320 987 L316 986 L312 988 L307 993 L301 1002 L290 1023 L279 1052 L258 1028 L236 1000 L231 992 L229 992 L202 963 L186 940 L187 938 L198 946 L211 950 L222 950 L223 949 L231 948 L243 942 L259 930 L320 873 L320 871 L303 878 L293 879 L224 857 L214 856 L213 855 L193 855 L181 859 L173 866 L167 877 L164 890 L163 886 L156 873 L155 865 L154 864 L154 855 L153 854 L153 830 L152 829 L152 751 L153 749 L152 748 L153 747 L153 708 L154 707 L154 675 L155 674 L157 600 L158 599 L159 563 L160 562 L160 549 L161 548 L163 520 L164 519 L165 506 L166 505 L166 500 L167 499 L170 480 L172 475 L172 471 L177 455 L177 452 L190 416 L201 394 L212 377 L223 363 L242 344 L261 330 Z M508 296 L509 295 L516 295 L517 296 L516 297 L509 297 Z M760 296 L766 296 L766 295 Z M765 288 L766 287 L767 288 L766 289 Z M432 288 L440 290 L526 290 L525 289 L483 289 L482 288 L477 288 L476 289 Z M763 287 L764 286 L765 287 L764 288 Z M760 286 L761 285 L763 286 L762 287 Z M759 285 L760 284 L761 285 L760 286 Z M757 284 L758 283 L759 284 L758 285 Z M667 284 L668 283 L671 284 L670 285 Z M664 283 L665 282 L667 283 L666 284 Z M662 282 L663 281 L664 282 L663 283 Z M660 281 L661 280 L662 281 L661 282 Z M688 280 L689 279 L690 280 L689 281 Z M430 279 L431 278 L432 279 L431 280 Z M689 279 L690 277 L692 278 L690 280 Z M428 278 L429 277 L430 278 L429 279 Z M778 277 L779 276 L780 277 L779 278 Z M691 277 L692 276 L694 277 L693 278 Z M426 277 L427 276 L429 277 L428 278 Z M693 276 L694 275 L696 276 L695 277 Z M656 276 L659 275 L661 280 L659 281 L656 278 Z M424 276 L425 275 L427 276 L426 277 Z M342 276 L343 275 L344 276 L343 277 Z M695 275 L696 274 L697 275 L696 276 Z M422 275 L423 274 L425 275 L424 276 Z M696 274 L697 273 L699 274 L698 275 Z M421 274 L422 273 L423 274 L422 275 Z M698 273 L699 272 L700 273 L699 274 Z M456 272 L457 276 L454 279 L451 280 L450 279 L452 277 L451 275 Z M419 273 L420 272 L422 273 L421 274 Z M699 272 L700 271 L701 272 L700 273 Z M418 272 L419 271 L420 272 L419 273 Z M417 271 L418 270 L419 271 L418 272 Z M737 270 L738 269 L739 270 L738 271 Z M700 271 L702 269 L704 270 L702 272 Z M503 270 L504 269 L507 270 L506 271 Z M415 270 L416 269 L417 270 L416 271 Z M736 269 L737 268 L738 269 L737 270 Z M703 269 L704 268 L705 269 L704 270 Z M677 267 L683 270 L688 275 L683 281 L682 280 L682 274 L676 268 Z M614 268 L615 267 L617 268 L616 269 Z M780 267 L781 266 L784 267 L783 268 Z M733 267 L735 266 L737 268 L735 269 Z M674 267 L675 266 L677 267 L676 268 Z M616 267 L617 266 L619 267 L618 268 Z M437 267 L432 272 L432 276 L431 277 L422 272 L434 266 Z M411 267 L413 266 L416 269 L414 270 Z M672 266 L673 265 L674 266 L673 267 Z M619 266 L620 265 L622 266 L621 267 Z M436 266 L437 265 L438 266 L437 267 Z M621 265 L622 264 L624 265 L623 266 Z M438 265 L439 264 L440 265 L439 266 Z M624 264 L625 263 L626 264 L625 265 Z M440 264 L441 263 L442 264 L441 265 Z M714 263 L715 262 L716 263 L715 264 Z M626 263 L627 262 L628 263 L627 264 Z M715 262 L716 261 L717 262 L716 263 Z M629 262 L630 261 L631 262 L630 263 Z M405 262 L407 261 L412 266 L410 267 Z M631 261 L632 260 L634 261 L633 262 Z M404 261 L405 260 L406 261 L405 262 Z M730 260 L732 259 L737 261 L741 261 L742 262 L746 262 L772 268 L777 268 L782 270 L785 267 L796 273 L795 274 L778 275 L776 277 L778 279 L775 285 L773 287 L772 286 L773 287 L771 288 L763 285 L749 276 Z M452 260 L453 259 L455 260 L454 261 Z M457 259 L458 258 L462 259 L461 260 Z M359 259 L360 258 L362 259 L361 260 Z M536 258 L537 257 L539 258 L538 259 Z M362 258 L363 257 L364 258 L363 259 Z M580 257 L582 256 L602 270 L607 270 L612 268 L615 269 L603 276 Z M538 257 L539 256 L540 257 L539 258 Z M386 257 L375 264 L355 281 L351 283 L348 283 L345 281 L343 278 L345 277 L344 274 L342 273 L332 273 L331 272 L336 269 L355 263 L369 260 L373 258 L381 256 L385 256 Z M364 257 L365 256 L368 257 L367 258 Z M578 256 L579 255 L581 256 L580 257 Z M539 256 L540 255 L542 256 L541 257 Z M385 256 L386 255 L388 256 L387 257 Z M367 256 L368 255 L371 256 L370 257 Z M541 255 L542 254 L543 255 L542 256 Z M575 254 L577 253 L579 255 L577 256 Z M542 254 L543 253 L545 254 L544 255 Z M573 253 L574 252 L576 253 L575 254 Z M571 252 L572 251 L574 252 L573 253 Z M862 319 L860 320 L855 317 L849 317 L839 313 L828 313 L805 307 L800 307 L799 306 L778 303 L777 302 L763 301 L762 300 L731 298 L730 297 L716 297 L715 296 L673 295 L672 294 L635 294 L634 293 L635 292 L676 292 L677 291 L439 292 L438 293 L395 293 L389 291 L361 291 L360 292 L349 292 L348 293 L329 295 L316 298 L316 299 L322 299 L328 297 L334 297 L335 296 L340 296 L353 293 L374 293 L375 292 L391 292 L392 293 L391 294 L371 295 L370 296 L348 298 L347 299 L324 302 L319 304 L307 306 L284 314 L263 325 L252 333 L250 332 L264 315 L266 316 L264 318 L268 317 L268 316 L265 315 L272 308 L288 296 L297 294 L298 293 L296 293 L295 292 L316 279 L331 274 L340 274 L343 280 L347 284 L352 285 L359 281 L373 269 L387 259 L393 256 L396 256 L400 258 L413 272 L424 280 L436 284 L445 284 L453 282 L459 277 L459 272 L458 271 L453 271 L449 274 L449 275 L452 276 L448 279 L444 279 L443 280 L436 279 L434 277 L435 272 L439 268 L446 264 L459 261 L474 261 L486 264 L510 276 L517 278 L525 273 L537 262 L547 255 L558 251 L566 252 L576 257 L602 278 L604 278 L613 272 L615 272 L632 264 L640 263 L641 262 L659 263 L674 269 L681 277 L678 282 L674 283 L663 280 L662 279 L663 276 L662 274 L656 272 L653 273 L654 278 L659 283 L668 287 L680 287 L689 284 L711 267 L714 266 L717 263 L717 261 L720 259 L723 259 L731 263 L734 266 L732 267 L734 270 L741 274 L757 287 L767 291 L772 290 L776 286 L777 282 L782 276 L785 275 L798 275 L808 279 L835 296 L853 310 Z M544 253 L546 251 L549 252 L546 254 Z M577 251 L578 250 L615 250 L616 251 L633 251 L634 252 L644 252 L645 253 L646 252 L656 252 L657 253 L691 255 L692 256 L699 256 L700 257 L701 256 L705 256 L706 257 L716 257 L717 258 L714 259 L711 264 L706 269 L704 268 L708 264 L706 264 L695 273 L690 275 L683 268 L675 264 L667 262 L662 263 L658 261 L650 261 L649 260 L634 261 L633 259 L619 263 L603 270 L590 259 Z M568 251 L569 250 L572 251 L571 252 Z M548 251 L549 250 L551 251 L550 252 Z M661 250 L662 249 L664 250 L663 251 Z M574 250 L575 249 L578 250 L577 251 Z M564 250 L565 249 L566 250 L565 251 Z M551 250 L552 249 L555 250 L554 251 Z M397 254 L398 253 L404 253 L412 251 L433 250 L434 249 L471 249 L472 250 L477 250 L478 249 L544 249 L545 250 L517 268 L516 270 L523 267 L535 258 L537 259 L521 273 L516 276 L506 271 L507 270 L513 271 L513 270 L499 266 L494 263 L478 257 L471 257 L470 256 L454 257 L443 260 L422 270 L406 258 Z M663 249 L664 248 L666 249 L665 250 Z M632 249 L633 248 L641 248 L642 249 L641 250 L633 250 Z M657 245 L659 244 L662 247 L659 248 Z M655 244 L656 243 L658 244 L657 245 Z M645 242 L646 241 L647 242 L646 243 Z M467 245 L469 243 L475 241 L476 245 L478 246 L477 247 L468 247 Z M644 241 L645 240 L646 241 L645 242 Z M475 241 L476 240 L479 241 L478 242 Z M641 240 L642 239 L645 240 L644 241 Z M478 240 L479 239 L480 240 L479 241 Z M639 239 L640 238 L641 239 L640 240 Z M370 255 L384 249 L390 248 L393 246 L402 244 L412 240 L415 240 L419 238 L430 236 L442 232 L457 230 L463 228 L476 227 L483 225 L492 225 L493 224 L504 224 L505 223 L574 220 L575 221 L588 221 L589 222 L598 222 L599 223 L636 225 L637 226 L644 226 L645 227 L651 227 L652 228 L658 228 L659 229 L680 232 L711 240 L718 243 L721 243 L749 252 L752 254 L767 259 L781 266 L777 267 L768 264 L740 260 L719 255 L699 254 L698 253 L691 253 L684 251 L669 250 L661 243 L646 237 L633 234 L620 233 L614 231 L575 230 L574 229 L552 229 L551 230 L531 231 L595 231 L596 232 L607 232 L608 233 L627 235 L634 239 L646 243 L647 242 L655 246 L649 248 L646 248 L645 246 L595 246 L594 247 L587 247 L586 246 L589 245 L584 244 L583 245 L573 245 L583 245 L584 246 L583 247 L565 247 L564 246 L550 247 L549 246 L525 246 L520 244 L513 244 L512 243 L481 243 L480 242 L486 238 L490 238 L503 234 L516 233 L500 233 L499 234 L492 234 L491 235 L478 237 L462 244 L458 243 L457 244 L451 244 L443 246 L429 247 L423 249 L412 249 L411 250 L396 251 L392 253 L384 253 L375 256 L371 256 Z M960 219 L965 221 L971 226 L976 237 L977 249 L975 257 L972 263 L963 273 L955 278 L933 286 L919 293 L909 303 L904 314 L904 325 L907 332 L914 339 L923 343 L931 344 L943 341 L949 336 L953 327 L953 319 L951 314 L946 309 L941 307 L935 308 L930 311 L929 313 L930 321 L929 322 L925 319 L924 315 L926 310 L930 306 L934 304 L944 304 L947 305 L953 310 L957 320 L956 330 L953 337 L947 343 L941 346 L932 347 L931 348 L921 347 L910 342 L903 334 L900 328 L900 324 L899 323 L899 317 L901 309 L907 299 L916 291 L928 284 L945 278 L957 272 L964 267 L970 260 L973 253 L973 248 L974 247 L972 235 L967 227 L963 224 L957 222 L947 222 L940 225 L934 230 L930 237 L929 248 L933 253 L937 255 L944 254 L948 250 L949 246 L951 244 L952 245 L952 249 L948 255 L942 258 L933 257 L927 251 L925 246 L926 237 L929 231 L934 225 L944 219 L948 219 L949 218 Z M960 216 L945 216 L932 223 L924 234 L922 245 L925 253 L930 258 L939 261 L948 258 L953 253 L955 248 L955 243 L953 239 L947 237 L948 244 L946 248 L942 252 L936 252 L932 248 L931 245 L932 238 L934 234 L940 228 L946 225 L950 224 L959 225 L966 230 L970 238 L971 249 L968 258 L957 269 L917 287 L905 297 L898 309 L897 319 L896 320 L898 331 L902 338 L908 344 L918 349 L922 350 L937 350 L941 349 L950 344 L955 339 L959 331 L960 319 L958 313 L952 305 L944 301 L936 301 L928 304 L923 309 L921 315 L922 320 L927 324 L934 324 L935 323 L931 316 L931 314 L936 310 L944 311 L949 316 L950 318 L950 328 L946 335 L941 339 L935 341 L926 341 L917 338 L911 333 L907 327 L906 317 L910 306 L918 297 L934 288 L958 279 L966 274 L972 268 L973 269 L972 267 L976 262 L979 254 L979 248 L980 247 L979 238 L975 227 L967 219 Z M166 210 L176 209 L189 214 L196 221 L198 225 L198 236 L195 242 L191 245 L188 246 L178 246 L174 244 L171 240 L171 237 L173 233 L175 234 L177 241 L181 243 L185 243 L191 239 L193 235 L193 229 L190 222 L185 217 L174 213 L165 214 L161 216 L155 222 L152 229 L151 242 L152 243 L152 248 L155 255 L165 264 L175 267 L194 269 L209 276 L216 282 L223 293 L224 301 L225 302 L223 313 L220 319 L215 324 L206 329 L202 330 L183 329 L175 325 L168 316 L167 313 L167 302 L170 296 L175 291 L179 289 L189 288 L193 290 L198 295 L199 298 L199 302 L195 304 L194 303 L194 297 L191 294 L183 292 L178 294 L173 299 L171 304 L171 310 L173 315 L177 320 L188 325 L201 325 L210 321 L216 315 L219 308 L219 298 L214 287 L205 279 L194 274 L186 273 L185 272 L179 272 L164 268 L159 265 L152 258 L148 248 L148 231 L152 220 L159 213 Z M163 208 L152 215 L148 221 L146 227 L145 247 L149 258 L157 267 L163 270 L173 273 L190 275 L204 281 L210 286 L216 297 L216 309 L214 313 L207 320 L197 323 L186 322 L180 319 L176 315 L174 311 L174 303 L178 297 L182 295 L188 295 L192 298 L192 302 L190 305 L191 306 L199 305 L201 303 L201 296 L196 289 L190 286 L179 286 L172 290 L166 297 L164 303 L164 314 L168 322 L173 327 L178 330 L188 333 L199 333 L210 330 L220 323 L226 312 L227 299 L223 287 L214 277 L203 270 L187 265 L177 265 L165 261 L157 254 L154 244 L155 228 L158 222 L164 217 L167 216 L177 216 L185 220 L190 226 L191 233 L190 236 L186 240 L180 240 L177 237 L177 231 L174 228 L172 228 L169 232 L169 241 L173 246 L180 249 L190 248 L194 246 L198 242 L200 238 L200 226 L195 216 L185 209 L178 207 Z M982 205 L983 204 L984 206 L983 207 Z M982 201 L983 202 L982 205 L981 204 Z M137 199 L138 198 L139 200 L138 201 Z M941 195 L942 194 L944 195 L943 196 Z M567 188 L569 191 L570 197 L566 203 L563 198 L563 193 L564 190 Z M566 185 L563 187 L560 195 L562 202 L567 206 L571 201 L573 195 L571 189 Z M550 181 L551 182 L550 187 L545 191 L541 191 L540 188 L545 183 Z M580 180 L583 179 L591 183 L593 185 L593 188 L591 190 L587 188 Z M552 179 L545 180 L537 188 L537 193 L543 194 L550 191 L553 186 Z M580 176 L578 179 L582 187 L587 191 L594 192 L596 189 L595 183 L585 177 Z M989 164 L982 182 L982 186 L981 187 L982 201 L981 202 L978 197 L976 189 L974 187 L957 193 L953 193 L947 195 L943 194 L949 191 L963 188 L971 184 L982 174 L986 165 L988 163 Z M591 165 L594 162 L602 162 L605 165 L598 168 Z M528 164 L531 162 L538 162 L542 165 L539 167 L533 167 Z M988 162 L989 161 L990 162 L989 163 Z M989 159 L990 158 L991 160 L990 161 Z M607 163 L605 161 L599 159 L591 161 L588 165 L595 170 L602 170 L607 166 Z M525 163 L530 169 L538 170 L544 166 L544 163 L542 161 L536 159 L529 160 Z M990 157 L991 156 L992 158 L991 159 Z M991 155 L992 154 L993 156 L992 157 Z M566 154 L567 153 L572 154 L577 159 L579 165 L577 167 Z M992 153 L993 152 L994 154 L993 155 Z M563 152 L565 155 L558 159 L557 164 L563 170 L571 173 L568 176 L564 176 L558 174 L552 167 L552 160 L553 158 L558 154 Z M993 151 L994 150 L995 151 L994 152 Z M562 150 L553 155 L549 164 L552 171 L556 175 L562 178 L568 178 L572 176 L573 174 L571 168 L565 169 L558 162 L565 156 L569 160 L571 164 L578 169 L580 169 L581 167 L581 162 L575 153 L567 150 Z M994 149 L995 148 L996 149 L995 150 Z M131 140 L132 139 L133 141 L132 142 Z M130 137 L131 136 L132 138 L131 139 Z M588 135 L589 136 L589 141 L583 148 L580 145 L583 140 L583 138 L586 135 Z M540 137 L544 135 L550 137 L553 142 L553 144 L551 146 L546 145 L541 140 Z M129 135 L130 134 L131 135 L130 136 Z M590 132 L586 132 L579 137 L581 139 L578 144 L578 147 L582 150 L588 147 L592 139 Z M538 130 L536 133 L540 142 L544 146 L548 148 L553 148 L555 146 L555 141 L553 137 L547 133 Z M566 126 L568 131 L566 139 L563 135 L563 132 Z M566 123 L561 131 L561 137 L565 141 L567 141 L570 136 L570 129 Z M1007 119 L1002 126 L996 138 L996 140 L979 173 L973 179 L961 186 L947 189 L938 193 L929 202 L940 198 L959 195 L974 189 L979 205 L991 224 L990 216 L988 213 L988 210 L983 195 L983 187 L988 173 L992 166 L992 164 L1001 144 L1006 127 Z M122 119 L138 176 L138 188 L132 209 L141 200 L147 187 L147 185 L139 199 L138 197 L141 184 L141 178 L138 169 L135 152 L132 144 L133 141 L139 154 L143 167 L151 179 L157 184 L165 188 L180 191 L186 194 L185 195 L174 194 L160 190 L149 185 L150 187 L167 195 L187 197 L196 201 L196 199 L188 192 L178 188 L164 185 L157 181 L151 175 L145 165 L142 154 L131 130 L125 121 Z M455 115 L456 114 L457 115 L456 116 Z M1012 109 L1015 114 L1015 136 L1014 137 L1013 156 L1012 157 L1011 171 L1010 172 L1010 178 L1009 179 L1009 185 L1008 186 L1005 210 L1003 216 L1003 221 L1000 232 L1000 237 L997 248 L997 253 L995 259 L995 264 L993 270 L991 287 L990 288 L987 310 L986 311 L986 317 L985 318 L985 324 L984 325 L982 345 L980 353 L980 360 L979 361 L978 378 L977 379 L974 428 L973 429 L973 446 L972 447 L968 564 L967 565 L967 580 L966 581 L964 617 L963 618 L963 627 L962 628 L962 637 L961 638 L960 637 L960 617 L959 616 L958 552 L957 551 L957 538 L956 537 L955 517 L954 516 L951 488 L950 487 L947 468 L941 444 L928 409 L910 377 L899 363 L882 345 L881 341 L873 326 L855 308 L873 272 L895 234 L915 204 L938 173 L962 145 L983 125 L1001 112 L1009 109 Z M579 109 L604 109 L605 110 L629 110 L630 111 L661 112 L671 117 L679 126 L682 136 L681 179 L680 180 L679 200 L675 209 L671 213 L662 218 L648 219 L641 221 L600 220 L599 219 L579 218 L578 217 L582 213 L585 206 L594 209 L598 209 L603 207 L608 202 L611 195 L611 184 L610 181 L611 180 L615 180 L621 177 L627 171 L629 166 L627 159 L621 153 L616 150 L610 149 L604 146 L608 137 L608 130 L606 125 L602 121 L595 118 L583 120 L581 114 L578 110 Z M448 119 L453 115 L456 116 L450 123 L451 123 L457 117 L465 112 L470 110 L478 110 L479 109 L553 109 L554 110 L550 118 L542 115 L533 115 L526 119 L522 126 L522 131 L521 132 L523 141 L526 146 L522 148 L516 149 L507 154 L503 159 L503 166 L505 170 L512 177 L520 180 L522 182 L520 185 L518 193 L519 194 L519 200 L522 206 L527 211 L537 212 L548 207 L552 214 L556 217 L555 218 L541 218 L540 219 L526 219 L525 220 L524 219 L520 219 L519 220 L503 220 L502 221 L481 221 L478 218 L467 218 L458 215 L451 207 L447 199 L447 195 L446 194 L445 163 L444 162 L444 130 Z M116 109 L125 110 L133 114 L143 121 L169 146 L178 157 L207 197 L226 227 L228 232 L237 246 L245 263 L247 265 L266 307 L266 309 L250 326 L245 334 L244 338 L225 356 L211 373 L198 393 L188 413 L180 433 L169 470 L169 474 L164 494 L163 505 L162 506 L161 519 L160 520 L158 548 L157 549 L157 560 L156 561 L154 613 L153 614 L153 637 L152 638 L151 637 L151 624 L150 623 L150 611 L149 610 L148 561 L147 560 L148 433 L147 432 L147 398 L146 397 L145 365 L144 364 L143 342 L142 341 L142 333 L141 332 L141 324 L139 316 L138 301 L136 294 L136 287 L135 286 L133 267 L132 266 L125 219 L124 218 L121 196 L120 195 L117 165 L116 164 L115 144 L114 143 L114 113 Z M562 106 L569 106 L573 108 L578 113 L581 120 L581 123 L588 121 L599 121 L604 125 L606 130 L605 140 L601 149 L611 150 L624 158 L627 162 L626 168 L621 174 L616 177 L606 179 L609 185 L609 195 L606 201 L599 206 L592 206 L583 202 L582 209 L574 217 L559 217 L553 212 L550 203 L539 209 L535 210 L528 209 L523 204 L523 201 L521 197 L521 189 L526 179 L517 177 L505 165 L505 160 L509 155 L521 149 L529 149 L529 147 L524 138 L524 127 L526 122 L531 118 L541 117 L549 120 L551 123 L554 113 Z M573 104 L618 104 L619 105 L645 105 L646 106 L675 107 L680 109 L687 116 L690 123 L690 161 L689 162 L688 204 L687 205 L687 213 L684 219 L678 225 L671 228 L670 227 L657 226 L650 224 L642 224 L641 223 L648 221 L659 221 L667 218 L678 208 L680 204 L682 196 L682 186 L683 185 L685 139 L682 132 L681 126 L677 119 L669 113 L655 109 L591 108 L590 107 L579 107 L577 109 L572 105 Z M559 105 L555 107 L480 107 L479 108 L467 108 L462 111 L459 111 L452 114 L446 120 L443 127 L443 132 L441 138 L442 174 L443 175 L443 189 L444 190 L445 201 L447 206 L448 205 L452 210 L453 215 L461 219 L473 220 L480 223 L479 224 L464 225 L457 227 L447 223 L440 215 L438 209 L437 173 L436 172 L436 141 L435 140 L435 122 L438 114 L444 108 L451 105 L492 104 L493 103 L555 103 Z M412 96 L417 91 L423 88 L431 87 L432 86 L609 86 L610 87 L688 88 L689 89 L697 89 L704 91 L711 96 L715 103 L714 151 L713 152 L713 168 L712 169 L711 200 L710 201 L710 215 L709 216 L708 235 L705 236 L694 232 L681 230 L676 228 L682 225 L686 221 L689 215 L690 197 L691 196 L693 129 L692 128 L691 119 L688 113 L683 108 L672 104 L658 104 L657 103 L541 100 L540 101 L454 102 L446 104 L440 108 L435 115 L433 121 L433 155 L434 156 L435 201 L437 207 L436 211 L439 218 L446 225 L450 227 L446 229 L434 231 L414 237 L413 236 L413 217 L412 216 L412 199 L411 198 L411 175 L410 174 L410 152 L409 151 L409 128 L408 127 L408 104 Z M568 66 L570 70 L570 81 L571 82 L570 83 L566 83 L565 82 L565 74 L566 73 L566 69 Z M557 62 L559 64 L561 70 L561 81 L560 82 L556 81 L556 63 Z M571 61 L577 55 L585 53 L592 53 L593 52 L617 52 L618 53 L634 55 L648 61 L657 69 L661 76 L662 84 L661 85 L660 84 L621 84 L620 83 L573 83 L572 82 L573 80 L571 72 Z M557 61 L555 63 L554 73 L553 74 L553 81 L552 82 L465 82 L464 81 L469 70 L477 62 L486 57 L499 53 L511 52 L512 51 L539 52 L540 53 L548 54 L552 56 Z M562 45 L567 45 L567 44 L563 44 Z M523 47 L528 42 L541 35 L552 32 L565 31 L566 32 L575 32 L586 35 L596 41 L602 48 L596 50 L582 51 L574 54 L567 61 L565 67 L563 68 L559 59 L554 54 L547 51 L548 50 L558 49 L555 47 L552 47 L545 51 L544 50 L537 50 L536 49 L526 49 Z M1012 106 L1005 107 L997 111 L983 121 L955 148 L938 168 L916 197 L895 228 L868 275 L853 306 L824 285 L792 267 L790 267 L775 259 L755 251 L711 237 L712 235 L712 220 L713 219 L713 204 L714 203 L716 155 L717 154 L718 112 L719 111 L718 109 L718 102 L715 96 L708 90 L698 86 L666 85 L665 84 L664 76 L660 68 L649 58 L635 52 L631 52 L625 50 L606 49 L597 38 L580 30 L576 30 L575 29 L553 29 L538 33 L527 39 L519 48 L512 48 L511 49 L504 49 L503 50 L494 51 L478 58 L467 68 L464 73 L461 82 L431 83 L430 84 L422 85 L412 91 L408 96 L405 104 L408 200 L409 201 L409 219 L410 220 L410 236 L411 237 L398 242 L395 242 L380 247 L377 249 L372 250 L352 258 L343 263 L341 263 L300 285 L280 298 L269 307 L259 285 L259 283 L235 236 L204 187 L181 156 L158 130 L137 113 L123 106 L116 106 L112 110 L111 121 L110 122 L112 156 L113 157 L114 173 L115 174 L118 201 L119 202 L124 237 L126 243 L129 267 L132 280 L132 286 L133 287 L133 293 L134 294 L135 308 L136 309 L138 333 L139 334 L139 343 L140 344 L140 353 L141 354 L142 378 L143 379 L143 396 L144 397 L144 448 L145 449 L144 559 L145 560 L145 592 L146 593 L147 626 L148 627 L148 638 L149 639 L149 646 L150 647 L150 655 L152 663 L151 666 L151 698 L150 699 L150 736 L149 737 L149 837 L150 838 L150 857 L151 858 L152 870 L160 887 L164 902 L171 917 L171 919 L178 933 L189 951 L211 978 L231 998 L262 1038 L277 1055 L281 1056 L289 1033 L304 1003 L308 997 L316 989 L318 990 L319 993 L318 994 L318 1010 L317 1011 L317 1019 L316 1020 L315 1043 L314 1044 L314 1059 L313 1060 L313 1103 L314 1104 L314 1118 L315 1119 L316 1135 L324 1169 L326 1172 L329 1182 L335 1193 L343 1202 L351 1207 L359 1209 L371 1208 L385 1201 L394 1193 L404 1200 L413 1204 L421 1206 L423 1208 L428 1220 L428 1227 L429 1228 L427 1244 L425 1248 L418 1256 L405 1265 L402 1273 L402 1280 L406 1295 L412 1305 L425 1317 L442 1326 L462 1332 L477 1334 L478 1335 L484 1335 L485 1336 L493 1336 L494 1337 L507 1337 L508 1338 L555 1337 L556 1336 L583 1334 L584 1333 L595 1332 L596 1331 L613 1328 L636 1320 L648 1313 L655 1307 L659 1300 L660 1285 L655 1274 L643 1264 L634 1251 L631 1239 L632 1227 L634 1221 L639 1213 L650 1211 L667 1205 L672 1213 L686 1225 L698 1231 L713 1232 L717 1231 L726 1226 L738 1213 L743 1205 L752 1186 L761 1155 L764 1134 L765 1133 L767 1106 L768 1105 L768 1087 L769 1086 L769 1045 L768 1044 L768 1025 L769 1022 L771 1020 L774 1020 L778 1024 L782 1031 L794 1064 L803 1100 L807 1099 L820 1073 L837 1046 L852 1028 L885 993 L899 973 L909 954 L919 926 L926 898 L943 880 L948 869 L950 850 L951 849 L953 819 L954 818 L954 804 L955 803 L956 768 L957 767 L958 712 L959 711 L959 673 L961 667 L963 646 L964 645 L967 608 L968 607 L968 596 L969 595 L969 584 L970 583 L970 568 L971 567 L972 528 L973 527 L973 500 L974 499 L974 471 L975 470 L975 449 L976 448 L978 401 L979 400 L981 370 L982 369 L982 362 L983 361 L983 354 L984 353 L984 346 L985 345 L987 325 L989 318 L989 312 L990 311 L996 270 L998 264 L998 259 L999 258 L1002 238 L1005 227 L1005 222 L1007 216 L1007 211 L1008 210 L1008 205 L1011 192 L1011 186 L1012 185 L1012 179 L1013 178 L1013 172 L1014 171 L1014 165 L1015 164 L1015 157 L1016 156 L1017 137 L1018 136 L1018 113 L1017 110 Z" fill="#eef3f4" fill-rule="evenodd"/>
</svg>
