<svg xmlns="http://www.w3.org/2000/svg" width="1086" height="1448" viewBox="0 0 1086 1448">
  <title>0468</title>
  <path d="M613 1037 L607 1045 L599 1059 L589 1069 L577 1076 L566 1079 L560 1079 L559 1080 L512 1080 L511 1079 L499 1078 L491 1075 L480 1068 L471 1059 L463 1048 L464 1047 L463 1048 L455 1038 L458 1037 L468 1041 L476 1043 L481 1043 L482 1044 L493 1044 L494 1045 L503 1045 L504 1046 L515 1047 L533 1054 L545 1054 L564 1046 L595 1042 L608 1038 L611 1036 Z M454 1037 L455 1036 L456 1037 L455 1038 Z M612 1036 L613 1035 L615 1036 L614 1037 Z M613 1033 L592 1040 L566 1043 L543 1052 L535 1052 L520 1046 L507 1043 L487 1042 L486 1041 L470 1039 L459 1035 L460 1034 L468 1034 L501 1025 L512 1025 L522 1028 L534 1035 L541 1035 L555 1027 L566 1024 L582 1025 L605 1032 L612 1032 Z M651 1019 L644 1016 L637 1020 L636 1018 L637 1020 L628 1027 L620 1030 L606 1030 L577 1022 L565 1022 L554 1025 L538 1034 L523 1026 L513 1023 L494 1024 L472 1031 L467 1031 L466 1032 L452 1032 L441 1029 L435 1026 L426 1019 L421 1017 L414 1019 L412 1022 L422 1020 L432 1027 L448 1034 L457 1043 L469 1060 L480 1071 L493 1078 L505 1081 L510 1081 L511 1082 L558 1082 L559 1081 L567 1081 L571 1079 L574 1079 L589 1072 L598 1064 L613 1040 L619 1034 L634 1026 L643 1019 L646 1019 L651 1021 Z M870 873 L871 872 L872 873 L871 874 Z M428 894 L428 901 L431 914 L438 925 L444 930 L453 935 L459 936 L463 938 L485 941 L496 949 L503 953 L505 953 L507 955 L526 960 L549 959 L558 956 L570 950 L582 941 L611 935 L622 930 L631 922 L635 916 L639 901 L639 891 L638 890 L637 882 L633 873 L630 871 L635 883 L637 898 L636 899 L635 909 L632 916 L622 927 L610 933 L588 938 L587 937 L602 928 L605 927 L611 928 L611 926 L608 925 L598 927 L588 933 L576 943 L559 953 L547 957 L530 958 L529 957 L518 956 L504 951 L472 928 L465 926 L458 927 L458 928 L465 928 L476 933 L482 938 L481 939 L460 935 L445 928 L436 918 L431 905 L431 889 L433 881 L438 871 L435 873 L431 881 Z M824 848 L825 849 L824 852 L823 851 Z M174 848 L175 847 L176 848 L175 849 Z M195 847 L196 846 L197 847 L196 848 Z M175 847 L176 846 L178 847 L177 848 Z M196 846 L197 845 L198 846 L197 847 Z M177 846 L178 845 L179 846 L178 847 Z M197 845 L198 844 L199 845 L198 846 Z M178 845 L179 844 L180 845 L179 846 Z M198 844 L199 843 L200 844 L199 845 Z M179 844 L180 843 L181 844 L180 845 Z M928 831 L929 830 L931 831 L930 832 Z M216 829 L217 828 L218 829 L217 830 Z M175 827 L176 826 L177 828 L176 829 Z M907 826 L908 825 L909 826 L908 827 Z M155 826 L156 825 L157 826 L156 827 Z M176 825 L177 824 L178 826 L177 827 Z M884 824 L885 823 L886 824 L885 825 Z M229 820 L231 821 L231 825 L234 834 L235 843 L238 852 L241 868 L244 875 L244 878 L247 885 L250 898 L253 904 L251 906 L243 908 L238 908 L237 909 L219 907 L208 903 L198 897 L189 888 L183 880 L175 863 L176 859 L187 856 L198 850 L210 840 Z M903 820 L905 823 L905 830 L906 831 L906 843 L903 856 L897 866 L889 873 L884 875 L877 875 L872 871 L868 860 L868 854 L867 853 L868 833 L869 832 L868 820 L870 819 L872 821 L880 825 L880 830 L880 828 L882 826 L886 827 L888 829 L888 834 L890 838 L890 830 L889 829 L897 826 Z M220 815 L221 816 L215 825 L212 832 L200 844 L199 843 L204 838 L210 829 L213 822 L216 820 L215 817 L217 815 Z M227 810 L230 815 L227 820 L218 829 L217 828 L218 824 L222 816 L225 814 Z M910 809 L915 819 L918 822 L924 825 L929 830 L928 831 L920 830 L911 825 L906 820 L905 817 Z M146 804 L147 803 L148 804 L147 805 Z M226 801 L228 808 L222 814 L221 812 Z M147 801 L148 800 L149 802 L148 803 Z M148 799 L149 798 L150 800 L149 801 Z M150 794 L151 795 L150 798 L149 797 Z M196 793 L197 794 L196 804 L189 826 L180 841 L172 848 L167 851 L159 851 L157 849 L158 848 L160 848 L167 844 L174 837 L182 824 Z M151 791 L152 792 L151 795 L150 794 Z M152 788 L153 789 L152 792 L151 791 Z M835 787 L837 790 L836 792 L837 795 L844 802 L866 818 L865 819 L865 828 L866 829 L865 857 L866 858 L867 866 L871 872 L870 873 L860 872 L856 870 L849 869 L846 867 L843 867 L834 861 L826 853 L827 851 L825 845 L825 840 L829 824 L829 819 L832 807 L833 793 Z M210 776 L211 775 L212 776 L211 777 Z M146 762 L147 763 L146 776 L143 785 L141 777 Z M219 759 L222 770 L220 773 L217 791 L214 803 L211 810 L210 817 L213 814 L213 811 L217 801 L217 797 L222 777 L224 783 L225 795 L219 812 L213 817 L212 821 L205 833 L191 849 L184 854 L179 856 L164 856 L161 854 L162 853 L167 853 L172 849 L176 850 L185 844 L198 831 L202 825 L205 817 L207 800 L211 787 L211 783 L213 780 L213 777 L217 769 L219 770 L219 768 L218 769 L217 768 L218 760 Z M145 752 L146 754 L143 764 L142 760 L140 758 L141 767 L139 775 L138 774 L138 757 Z M149 747 L150 749 L151 748 L152 749 L153 761 L154 762 L154 770 L153 771 L151 785 L144 805 L142 802 L141 793 L147 779 L147 774 L148 773 L148 753 L146 750 Z M157 740 L159 746 L159 768 L158 769 L155 786 L153 789 L152 788 L152 784 L155 772 L155 759 L154 758 L154 749 L152 743 L154 740 Z M164 738 L166 743 L166 766 L165 767 L164 780 L156 804 L150 817 L148 819 L148 821 L149 821 L152 816 L160 796 L163 792 L164 796 L163 797 L163 802 L157 819 L155 821 L152 829 L150 830 L147 828 L145 824 L145 815 L152 799 L159 778 L159 773 L161 766 L161 749 L160 748 L160 741 L159 740 L161 738 Z M878 738 L879 737 L880 739 L879 740 Z M879 737 L880 736 L881 737 L880 738 Z M172 734 L173 735 L173 771 L172 772 L172 781 L171 782 L171 787 L170 788 L168 801 L163 816 L157 826 L156 823 L160 817 L161 811 L165 801 L165 794 L163 791 L164 790 L165 791 L164 785 L165 784 L165 780 L167 774 L167 767 L168 766 L168 741 L167 737 Z M898 733 L899 734 L897 739 L896 738 L896 734 Z M847 730 L854 730 L864 733 L879 734 L880 735 L878 738 L879 743 L877 750 L877 758 L876 759 L876 767 L875 768 L875 802 L878 812 L885 823 L884 824 L880 823 L866 815 L839 794 L839 789 L840 788 L839 789 L836 784 L836 773 L837 772 L838 755 L839 754 L839 747 L840 746 L840 738 L842 734 Z M884 728 L885 727 L886 728 L885 729 Z M193 726 L194 727 L194 742 L191 755 L189 773 L182 802 L180 805 L178 815 L172 831 L173 835 L167 842 L156 847 L154 843 L154 832 L160 826 L165 816 L167 807 L170 801 L173 784 L174 783 L174 774 L175 773 L175 735 L183 730 L184 731 L183 762 L182 763 L182 772 L181 773 L180 786 L171 814 L166 823 L166 825 L160 834 L156 837 L156 839 L163 833 L167 827 L172 817 L178 800 L184 775 L185 749 L186 748 L186 730 Z M841 725 L843 724 L848 728 L842 731 L841 730 Z M933 720 L952 720 L953 721 L957 721 L965 730 L968 737 L969 745 L970 746 L970 762 L969 763 L969 767 L970 768 L970 792 L969 793 L968 807 L962 820 L953 829 L944 833 L937 832 L934 830 L935 829 L932 830 L924 823 L920 822 L915 816 L911 807 L913 799 L913 791 L912 790 L912 781 L911 780 L912 773 L910 769 L910 757 L908 750 L908 744 L909 743 L914 745 L918 756 L918 753 L914 744 L918 743 L920 745 L933 770 L941 782 L941 780 L934 770 L920 743 L922 740 L929 749 L935 760 L931 753 L931 750 L929 749 L924 741 L924 738 L928 735 L940 745 L936 740 L928 734 L931 729 L932 730 L939 730 L941 728 L944 728 L932 729 L931 727 Z M895 720 L896 721 L896 729 L892 744 L894 740 L896 738 L897 739 L897 745 L895 752 L895 760 L894 761 L894 770 L895 762 L896 761 L896 755 L899 744 L899 738 L900 737 L901 738 L901 763 L902 764 L902 742 L904 741 L906 743 L908 765 L909 766 L909 774 L910 775 L911 795 L908 807 L902 818 L895 824 L890 825 L885 820 L879 808 L878 804 L878 791 L877 790 L877 773 L878 772 L878 761 L880 755 L880 745 L882 741 L882 734 L891 726 L892 723 Z M204 720 L205 721 L205 738 L204 739 L204 749 L203 750 L203 759 L202 760 L201 773 L198 785 L198 792 L197 793 L196 791 L194 792 L192 798 L185 811 L185 813 L178 825 L177 822 L182 809 L186 791 L188 787 L190 774 L192 769 L193 759 L194 758 L194 752 L195 751 L196 738 L197 737 L197 726 L196 725 Z M204 720 L205 719 L206 720 L205 721 Z M895 719 L896 718 L897 719 L896 720 Z M902 705 L903 706 L901 709 L900 706 Z M215 704 L216 705 L216 720 L217 721 L217 735 L218 736 L219 754 L217 756 L217 761 L215 769 L212 775 L211 774 L211 768 L212 767 L213 741 L210 735 L211 743 L210 744 L209 774 L208 775 L208 781 L204 798 L205 806 L204 807 L203 816 L200 824 L193 834 L186 841 L181 844 L180 843 L183 840 L191 827 L198 805 L199 793 L200 792 L201 782 L205 765 L205 753 L206 752 L206 742 L208 738 L209 715 L211 713 Z M905 700 L906 699 L907 700 L906 701 Z M917 697 L922 699 L927 704 L930 712 L931 720 L927 732 L919 740 L912 742 L905 740 L901 735 L901 733 L898 729 L899 727 L899 717 L907 703 L911 699 Z M621 689 L622 688 L623 689 L622 690 Z M444 689 L445 688 L446 689 L445 690 Z M364 688 L365 687 L381 687 L382 688 L381 689 L365 689 Z M673 687 L674 686 L676 687 L675 688 Z M383 687 L384 686 L388 686 L389 687 L388 688 L384 688 Z M669 686 L670 685 L671 686 L670 687 Z M388 686 L389 685 L393 685 L394 686 L393 687 L389 687 Z M665 685 L666 684 L668 685 L667 686 Z M394 685 L395 684 L398 685 L397 686 Z M399 684 L400 683 L401 684 L400 685 Z M439 683 L440 682 L441 683 L440 684 Z M402 683 L403 682 L404 683 L403 684 Z M623 682 L624 681 L625 682 L624 683 Z M405 682 L406 681 L407 682 L406 683 Z M624 681 L625 680 L626 681 L625 682 Z M438 681 L439 680 L440 682 L439 683 Z M634 679 L636 683 L635 684 L630 684 L629 683 Z M443 678 L446 683 L445 684 L441 681 Z M637 680 L643 674 L648 671 L650 675 L660 684 L656 685 L650 683 L640 683 Z M412 682 L418 677 L423 669 L433 677 L436 681 L435 682 L416 682 L415 683 Z M432 665 L443 678 L441 680 L439 678 L440 677 L439 678 L436 673 L430 667 Z M112 663 L113 662 L114 664 L113 665 Z M101 661 L102 660 L103 661 L102 662 Z M113 660 L114 659 L115 661 L114 662 Z M131 649 L132 650 L131 653 L130 652 Z M971 649 L972 648 L973 649 L972 650 Z M757 649 L758 648 L759 649 L758 650 Z M115 648 L116 651 L118 652 L114 656 L107 671 L105 673 L105 675 L101 681 L94 699 L97 695 L99 689 L101 687 L101 685 L112 664 L113 667 L108 685 L108 692 L107 693 L107 695 L108 695 L109 687 L111 683 L111 679 L113 675 L115 664 L121 648 L122 649 L121 714 L122 715 L123 723 L126 730 L133 737 L140 740 L150 740 L151 741 L140 753 L136 755 L130 755 L129 756 L128 755 L108 755 L94 750 L83 743 L72 731 L67 719 L67 711 L69 706 L69 702 L74 689 L76 687 L80 687 L89 682 L98 672 Z M215 647 L216 648 L216 653 L215 654 L214 653 L214 648 Z M756 647 L751 662 L746 670 L733 681 L723 686 L710 689 L679 689 L678 688 L679 687 L708 687 L717 684 L724 679 L732 670 L737 659 L737 655 L738 654 L737 647 L738 646 L755 646 Z M166 647 L165 648 L169 657 L169 667 L170 668 L169 684 L168 685 L168 691 L165 703 L157 721 L159 719 L167 703 L170 693 L171 681 L172 680 L172 661 L168 649 Z M758 648 L759 645 L762 646 L759 649 Z M374 646 L375 645 L378 646 L377 647 Z M310 647 L314 645 L328 645 L329 646 L330 645 L331 646 L332 657 L336 666 L341 673 L347 679 L353 683 L365 687 L364 688 L356 688 L352 686 L346 685 L336 680 L320 665 L312 654 Z M302 646 L306 645 L308 647 L309 651 L308 652 Z M761 645 L762 644 L763 645 L762 646 Z M372 645 L373 644 L375 645 L374 646 Z M301 645 L302 644 L303 645 L302 646 Z M369 644 L370 643 L372 644 L371 645 Z M127 645 L129 643 L130 644 L129 646 Z M367 643 L368 642 L370 643 L369 644 Z M990 642 L994 646 L996 650 L996 654 L992 669 L990 686 L982 705 L973 714 L960 719 L934 718 L931 709 L933 707 L938 706 L949 701 L941 703 L932 707 L930 706 L929 702 L960 682 L946 689 L928 702 L924 697 L937 684 L955 669 L972 651 L977 649 L977 648 L974 649 L972 648 L977 638 L981 638 L989 642 L979 647 L979 648 L987 645 Z M783 639 L774 648 L765 660 L760 669 L747 683 L735 691 L721 696 L711 697 L710 698 L684 698 L683 697 L670 696 L661 693 L641 690 L640 689 L623 689 L622 688 L630 686 L650 686 L651 687 L662 688 L668 690 L690 692 L691 693 L710 692 L723 689 L740 680 L749 671 L758 654 L767 644 L781 638 Z M283 639 L285 638 L295 643 L305 652 L315 665 L327 677 L337 684 L349 689 L357 690 L358 691 L365 691 L366 692 L378 692 L379 691 L393 690 L417 684 L437 684 L438 683 L439 685 L443 686 L445 688 L444 689 L441 688 L426 688 L399 695 L389 696 L388 697 L380 697 L379 698 L363 698 L362 697 L356 697 L355 696 L347 695 L329 687 L321 681 L309 669 L296 652 Z M130 639 L131 638 L132 639 L131 640 Z M782 638 L783 637 L784 638 L783 639 Z M281 638 L282 637 L284 638 L283 639 Z M845 636 L848 639 L848 642 L845 647 L844 646 L844 637 Z M784 637 L785 636 L786 637 L785 638 Z M865 636 L866 635 L867 636 L866 637 Z M889 632 L890 631 L891 632 L890 633 Z M879 631 L880 630 L881 631 L880 632 Z M781 631 L764 635 L714 638 L688 644 L669 651 L667 653 L665 653 L663 655 L656 658 L641 668 L627 681 L625 680 L639 666 L661 650 L679 641 L693 636 L706 634 L707 633 L727 632 L728 631 L772 631 L773 630 L780 630 Z M781 630 L782 629 L786 630 L785 631 Z M786 629 L787 628 L790 629 L789 630 Z M791 628 L792 627 L793 628 L792 629 Z M278 628 L281 627 L298 631 L315 631 L316 632 L354 631 L355 632 L362 632 L363 633 L370 633 L371 634 L380 635 L395 640 L408 646 L420 654 L432 665 L430 667 L415 656 L399 648 L381 642 L372 641 L367 639 L361 639 L360 638 L351 638 L350 637 L308 636 L296 633 L291 633 L284 630 L281 630 Z M275 627 L276 626 L279 627 L278 628 Z M272 626 L273 625 L275 626 L274 627 Z M134 625 L146 629 L149 629 L155 634 L161 643 L168 646 L173 646 L174 647 L189 649 L195 651 L206 651 L210 649 L211 650 L216 664 L216 671 L217 672 L216 691 L213 703 L210 707 L209 711 L200 720 L189 724 L179 730 L154 738 L141 738 L134 735 L127 727 L123 712 L124 648 L125 647 L126 648 L125 647 L127 645 L129 648 L130 664 L131 663 L131 654 L132 653 L133 654 L136 671 L138 675 L138 680 L138 671 L131 643 L132 639 L143 657 L137 644 L132 637 L132 627 Z M269 625 L270 624 L273 625 L272 626 Z M885 623 L888 626 L890 630 L889 633 L891 635 L894 636 L893 633 L895 632 L902 640 L913 645 L910 646 L903 653 L902 657 L910 648 L916 647 L918 649 L920 654 L918 675 L914 686 L907 699 L906 696 L907 695 L908 684 L907 685 L908 686 L906 688 L904 704 L903 705 L902 704 L902 696 L901 696 L901 703 L900 704 L897 701 L898 703 L897 705 L898 706 L897 708 L898 709 L898 713 L893 718 L890 724 L886 728 L885 726 L886 725 L887 713 L888 712 L888 700 L889 699 L891 683 L896 669 L899 664 L897 664 L895 667 L894 672 L887 689 L886 702 L885 703 L885 709 L886 710 L885 711 L885 718 L881 731 L880 732 L868 732 L867 731 L850 728 L846 724 L843 723 L841 719 L842 718 L842 705 L843 704 L844 651 L847 648 L854 648 L859 643 L868 640 L873 636 L884 635 L882 633 L884 631 L881 631 L880 628 Z M267 624 L268 623 L270 624 L269 625 Z M864 622 L865 623 L864 636 L861 640 L856 643 L855 641 L857 638 L858 633 L862 626 L862 624 Z M861 621 L862 620 L863 622 L862 623 Z M938 620 L939 619 L940 620 L939 621 Z M881 619 L882 618 L883 620 L882 621 Z M885 618 L886 617 L887 618 L886 619 Z M253 618 L254 620 L269 630 L282 637 L280 638 L282 641 L296 655 L315 679 L331 691 L333 691 L340 695 L360 700 L383 700 L384 699 L400 697 L426 690 L442 690 L446 691 L450 694 L452 693 L452 689 L447 679 L448 677 L447 678 L443 672 L421 651 L407 642 L396 637 L379 632 L375 632 L371 630 L364 630 L363 629 L350 629 L349 628 L303 629 L302 628 L292 628 L275 624 L269 621 L264 620 L268 623 L265 624 Z M816 617 L798 624 L785 626 L784 627 L779 627 L778 628 L765 628 L764 629 L726 628 L725 629 L706 630 L686 635 L665 644 L640 661 L621 680 L613 693 L617 694 L626 690 L629 691 L635 690 L636 691 L653 693 L670 698 L681 699 L682 700 L713 700 L726 697 L743 689 L747 686 L758 675 L777 647 L790 635 L810 621 L813 620 Z M974 610 L978 614 L978 628 L976 632 L976 635 L970 647 L971 650 L947 675 L944 676 L922 697 L921 695 L930 680 L930 678 L936 668 L935 668 L921 693 L918 696 L913 696 L912 697 L911 695 L913 693 L921 672 L921 667 L922 666 L922 653 L921 649 L927 635 L931 630 L931 627 L938 620 L940 621 L954 612 L962 610 L971 610 L972 611 Z M131 611 L132 610 L133 611 L132 612 Z M970 608 L971 607 L973 608 L972 609 Z M885 605 L887 607 L887 609 L883 618 L882 617 L882 613 L883 612 L883 607 Z M130 605 L131 606 L130 609 L129 608 Z M883 605 L884 604 L885 605 L884 606 Z M89 604 L90 603 L91 604 L90 605 Z M971 607 L970 608 L959 608 L947 612 L936 619 L930 624 L931 625 L928 628 L928 630 L923 638 L920 647 L913 641 L903 638 L898 632 L894 631 L886 622 L890 618 L890 617 L888 618 L886 617 L888 611 L894 607 L903 608 L904 607 L939 606 L951 603 L958 598 L967 603 Z M113 597 L118 598 L124 604 L130 614 L130 623 L131 625 L129 629 L130 630 L129 638 L125 644 L118 647 L109 644 L103 639 L99 632 L99 629 L97 625 L97 618 L100 608 L107 600 Z M880 595 L882 599 L882 606 L880 612 L879 623 L876 632 L875 633 L874 631 L874 633 L872 634 L871 633 L875 622 L878 596 Z M781 604 L775 601 L763 599 L758 597 L741 596 L740 595 L705 595 L704 596 L695 596 L694 597 L679 599 L658 606 L638 617 L630 623 L621 632 L620 631 L621 632 L613 643 L611 648 L621 634 L631 624 L639 618 L655 609 L677 601 L681 601 L692 598 L699 598 L700 597 L735 596 L736 597 L746 597 L747 598 L766 600 Z M290 602 L295 602 L296 601 L312 599 L313 598 L319 598 L320 597 L340 596 L341 595 L370 596 L371 597 L378 597 L379 598 L394 600 L414 607 L432 617 L449 632 L459 646 L456 640 L447 628 L433 616 L413 605 L396 599 L392 599 L381 596 L375 596 L374 595 L366 595 L365 594 L335 594 L334 595 L310 597 Z M106 593 L107 592 L108 594 L107 595 Z M68 591 L70 591 L71 592 L70 593 L74 594 L90 603 L88 605 L93 605 L98 609 L94 617 L89 616 L83 613 L80 613 L85 616 L94 619 L95 620 L96 629 L91 631 L83 632 L74 635 L72 637 L90 632 L96 632 L99 637 L92 642 L90 642 L88 644 L79 648 L85 647 L99 639 L112 648 L104 660 L101 661 L102 662 L101 664 L84 683 L72 686 L71 685 L67 685 L62 682 L55 674 L48 656 L49 652 L48 653 L47 652 L46 641 L45 640 L46 619 L49 610 L52 605 L58 599 L64 596 Z M105 591 L106 590 L107 592 L106 593 Z M104 589 L105 588 L106 590 L105 591 Z M103 587 L104 586 L105 588 L104 589 Z M874 573 L876 577 L875 580 L877 586 L877 596 L876 597 L873 622 L871 626 L870 634 L867 636 L866 635 L866 631 L867 630 L869 612 L871 605 L872 580 Z M965 569 L966 568 L970 573 L983 581 L982 582 L966 582 L965 581 L965 576 L966 575 Z M850 567 L851 568 L851 589 L847 606 L848 622 L845 632 L844 631 L845 582 L847 576 L846 575 Z M472 556 L473 555 L474 556 L473 557 Z M470 555 L471 554 L472 555 L471 556 Z M468 554 L469 553 L470 554 L469 555 Z M465 553 L466 552 L468 553 L467 554 Z M615 552 L616 551 L617 552 L616 553 Z M463 552 L464 551 L465 552 L464 553 Z M113 551 L114 552 L113 555 L112 554 Z M460 551 L461 550 L463 551 L462 552 Z M619 550 L620 549 L622 550 L621 551 Z M457 550 L458 549 L461 550 L460 551 Z M622 549 L623 548 L624 549 L623 550 Z M455 549 L456 548 L458 549 L457 550 Z M625 548 L626 547 L627 548 L626 549 Z M453 548 L454 547 L456 548 L455 549 Z M627 547 L628 546 L629 547 L628 548 Z M450 547 L451 546 L452 547 L451 548 Z M631 546 L632 545 L633 546 L632 547 Z M447 546 L448 545 L449 546 L448 547 Z M633 545 L634 544 L635 545 L634 546 Z M444 545 L445 544 L447 545 L446 546 Z M635 544 L636 543 L638 544 L637 545 Z M442 544 L443 543 L444 544 L443 545 Z M638 543 L639 542 L641 543 L640 544 Z M439 543 L440 542 L442 543 L441 544 Z M641 542 L642 541 L644 542 L643 543 Z M436 542 L437 541 L439 542 L438 543 Z M644 541 L645 540 L647 541 L646 542 Z M433 541 L434 540 L436 541 L435 542 Z M646 540 L647 539 L650 540 L649 541 Z M430 540 L431 539 L433 540 L432 541 Z M650 539 L651 538 L653 539 L652 540 Z M427 539 L428 538 L430 539 L429 540 Z M653 538 L654 537 L657 538 L656 539 Z M424 538 L425 537 L427 538 L426 539 Z M657 537 L658 536 L661 537 L660 538 Z M420 537 L421 536 L424 537 L423 538 Z M660 536 L661 535 L665 536 L664 537 Z M417 536 L418 535 L420 536 L419 537 Z M664 535 L665 534 L669 535 L668 536 Z M413 535 L414 534 L416 535 L415 536 Z M668 534 L669 533 L673 534 L672 535 Z M409 534 L410 533 L412 534 L411 535 Z M221 534 L218 537 L216 543 L216 547 L218 544 L218 541 Z M793 533 L794 532 L795 533 L794 534 Z M404 533 L405 532 L408 533 L407 534 Z M789 532 L790 531 L793 532 L792 533 Z M400 532 L401 531 L404 532 L403 533 Z M784 531 L785 530 L788 531 L787 532 Z M689 531 L678 534 L673 534 L672 533 L683 530 L688 530 Z M394 531 L395 530 L399 531 L398 532 Z M270 531 L271 530 L272 531 L271 532 Z M136 530 L140 530 L141 531 L139 533 L144 536 L152 544 L161 558 L165 571 L167 584 L169 588 L169 604 L166 613 L167 616 L163 626 L162 634 L160 639 L158 635 L151 628 L133 623 L133 621 L140 615 L138 615 L134 618 L132 614 L135 611 L142 597 L134 608 L133 611 L132 610 L132 606 L133 605 L133 595 L134 594 L135 581 L132 590 L132 599 L129 601 L128 605 L122 599 L120 595 L120 590 L115 574 L114 560 L123 538 L126 535 Z M779 530 L780 529 L783 530 L782 531 Z M388 530 L389 529 L393 530 L392 531 Z M274 530 L275 529 L278 530 L277 531 Z M142 532 L157 532 L158 531 L162 531 L165 529 L171 530 L174 532 L183 532 L188 534 L205 545 L214 552 L218 557 L220 562 L220 568 L217 579 L218 594 L217 595 L217 603 L215 609 L216 635 L214 643 L211 648 L208 649 L196 649 L187 646 L168 643 L162 639 L170 615 L170 608 L171 607 L171 600 L172 599 L171 586 L166 566 L160 552 L156 546 L141 533 Z M773 529 L774 528 L778 528 L779 529 L778 530 L774 530 Z M382 529 L383 528 L387 528 L388 529 L387 530 L383 530 Z M280 529 L281 528 L284 529 L283 530 Z M765 528 L766 527 L770 527 L771 528 L770 529 L766 529 Z M374 528 L375 527 L380 527 L381 528 L380 529 L375 529 Z M285 528 L286 527 L291 527 L292 528 L291 529 L286 529 Z M688 530 L701 527 L719 526 L720 525 L755 525 L756 526 L765 526 L766 527 L765 528 L728 527 L727 528 L714 528 L713 529 L706 529 L705 530 L704 529 L703 530 L696 530 L695 531 L689 531 Z M291 527 L299 525 L321 524 L322 523 L345 523 L346 524 L367 525 L375 527 L374 528 L367 528 L366 527 L365 528 L364 527 L355 527 L354 526 L310 526 L309 527 L300 527 L299 528 L292 528 Z M942 523 L943 522 L944 523 L943 524 Z M167 520 L168 521 L167 525 L168 527 L167 528 L162 528 L161 527 Z M820 541 L803 532 L791 528 L774 524 L769 524 L768 523 L754 522 L753 521 L733 521 L732 520 L695 523 L694 524 L683 525 L649 533 L616 545 L602 552 L592 559 L584 568 L584 571 L627 553 L647 546 L654 545 L665 541 L669 541 L683 537 L700 535 L701 534 L718 533 L719 532 L735 532 L736 531 L757 531 L758 532 L777 533 L790 536 L802 537 L807 539 L811 539 L818 542 L820 542 Z M167 520 L168 519 L169 520 L168 521 Z M247 537 L247 538 L250 538 L251 537 L267 535 L268 534 L293 532 L294 531 L310 531 L311 530 L349 530 L350 531 L363 531 L364 532 L379 533 L380 534 L386 534 L392 536 L402 537 L410 540 L419 541 L426 544 L436 546 L470 559 L494 571 L497 570 L495 566 L486 558 L477 552 L453 540 L423 530 L397 524 L380 522 L379 521 L358 520 L357 519 L309 520 L308 521 L289 523 L268 528 L254 533 Z M182 515 L183 518 L177 530 L175 528 L180 517 Z M182 514 L183 513 L184 515 L183 516 Z M183 513 L184 512 L185 513 L184 514 Z M184 511 L185 510 L186 511 L185 512 Z M185 509 L186 508 L187 509 L186 510 Z M171 509 L172 508 L173 509 L172 510 Z M186 508 L187 507 L188 508 L187 509 Z M168 508 L169 507 L170 509 L169 510 Z M172 507 L173 506 L174 508 L173 509 Z M72 506 L84 512 L95 522 L103 532 L104 538 L107 542 L111 555 L112 554 L113 555 L112 559 L112 572 L111 574 L112 572 L115 580 L118 593 L117 596 L116 595 L112 596 L110 595 L105 585 L105 583 L100 575 L100 573 L95 566 L104 586 L103 587 L101 585 L96 576 L93 573 L84 558 L83 558 L107 597 L106 599 L102 600 L81 580 L102 602 L99 606 L97 605 L98 604 L96 605 L84 597 L74 592 L71 592 L70 589 L59 594 L56 597 L41 582 L41 578 L40 577 L40 561 L41 560 L40 547 L43 536 L49 525 L50 526 L49 525 L55 517 L63 510 Z M173 505 L174 504 L175 506 L174 507 Z M170 504 L171 505 L170 508 L169 507 Z M188 504 L189 503 L190 504 L189 505 Z M174 503 L175 502 L176 504 L175 505 Z M137 503 L138 502 L139 504 L138 505 Z M229 501 L230 505 L226 517 L225 525 L223 530 L223 535 L218 553 L209 544 L216 531 L222 514 Z M138 502 L139 501 L140 502 L139 503 Z M229 501 L230 500 L231 501 L230 502 Z M982 498 L987 499 L1000 506 L1004 511 L1006 517 L1005 529 L1004 530 L1004 542 L1005 543 L1005 567 L1004 568 L1004 574 L1001 578 L992 582 L985 581 L978 577 L966 566 L962 550 L956 532 L953 527 L954 525 L959 524 L961 526 L960 527 L963 532 L961 528 L962 526 L980 543 L961 523 L965 519 L978 527 L982 528 L966 518 L971 510 L977 511 L976 510 L972 510 L971 509 L971 505 L976 503 Z M139 499 L140 498 L141 499 L140 500 Z M75 506 L79 504 L83 504 L99 500 L105 500 L111 498 L125 498 L135 506 L152 526 L155 527 L156 529 L155 530 L143 530 L139 528 L135 528 L126 532 L121 537 L118 542 L116 549 L115 550 L114 549 L115 550 L114 552 L112 550 L107 535 L102 527 L86 512 Z M932 496 L937 503 L936 512 L937 510 L940 517 L939 519 L940 518 L941 519 L941 541 L942 527 L943 526 L942 525 L944 524 L946 530 L947 550 L948 548 L948 537 L947 536 L947 525 L946 524 L948 523 L950 525 L949 526 L950 525 L954 532 L959 547 L963 563 L963 580 L960 590 L956 596 L952 592 L946 580 L934 561 L930 545 L930 538 L929 537 L930 502 L928 505 L929 509 L928 510 L928 517 L927 518 L927 542 L928 543 L929 555 L935 570 L941 576 L950 592 L956 597 L950 601 L942 602 L941 603 L922 604 L921 605 L898 604 L890 607 L884 598 L880 589 L879 578 L875 568 L876 539 L878 532 L877 525 L881 508 L883 504 L887 501 L894 501 L899 503 L909 503 L925 497 L928 498 L926 499 L931 498 L927 497 L928 496 Z M130 498 L132 496 L133 497 L132 499 Z M984 496 L985 495 L986 496 L985 497 Z M875 495 L879 502 L879 509 L877 513 L874 501 L874 496 Z M873 494 L874 493 L875 494 L874 495 Z M182 493 L183 492 L184 493 L183 494 Z M183 491 L184 490 L185 491 L184 492 Z M171 488 L172 489 L165 513 L165 518 L163 522 L158 527 L154 523 L159 512 L163 495 L166 488 L168 489 Z M185 488 L186 487 L187 488 L186 489 Z M163 487 L164 488 L161 495 L161 499 L159 503 L155 519 L152 522 L149 519 L149 515 L151 512 L154 502 L156 500 L156 497 L159 492 L159 490 L161 487 Z M186 486 L187 485 L188 486 L187 487 Z M187 485 L188 484 L189 485 L188 486 Z M150 484 L151 487 L145 500 L146 502 L142 509 L140 506 L144 498 L145 493 Z M188 483 L189 482 L190 483 L189 484 Z M155 482 L160 486 L156 493 L155 498 L147 516 L143 511 L146 506 L146 501 L150 495 L152 487 Z M150 483 L151 482 L152 484 L151 485 Z M151 482 L152 481 L153 482 L152 483 Z M189 481 L190 480 L191 482 L190 483 Z M949 477 L953 477 L958 479 L964 485 L967 491 L969 499 L969 507 L967 513 L961 520 L957 522 L949 522 L943 517 L940 512 L939 502 L937 499 L938 489 L940 484 Z M188 476 L189 478 L179 495 L178 499 L176 501 L175 498 L173 498 L173 501 L171 505 L170 501 L174 489 L173 488 L180 484 Z M193 475 L194 477 L191 481 L190 479 Z M188 476 L189 475 L190 476 L189 477 Z M952 474 L953 473 L954 474 L953 475 Z M189 474 L190 473 L191 474 L190 475 Z M149 473 L152 478 L152 480 L148 484 L141 499 L140 498 L141 491 L146 477 Z M146 468 L148 472 L145 475 L144 480 L141 485 L138 501 L136 503 L134 501 L135 490 L139 480 L139 477 L140 476 L141 477 Z M199 466 L200 467 L194 476 L193 473 L196 468 Z M198 465 L201 463 L202 464 L201 466 Z M195 463 L196 462 L197 463 L196 464 Z M196 461 L197 460 L198 461 L197 462 Z M861 459 L862 458 L863 459 L862 460 Z M858 458 L861 462 L864 463 L865 469 L869 479 L868 482 L870 485 L870 489 L871 490 L871 497 L872 498 L872 503 L874 510 L874 519 L875 520 L875 534 L874 535 L873 552 L872 553 L872 561 L871 562 L869 604 L868 605 L867 616 L865 623 L864 622 L863 613 L865 607 L866 593 L867 592 L867 581 L868 580 L869 517 L868 516 L868 496 L867 495 L866 483 L862 472 L862 469 L859 466 L859 463 L857 460 Z M851 459 L852 458 L853 460 L852 461 Z M203 458 L204 461 L202 464 L201 461 Z M856 458 L857 457 L858 458 L857 459 Z M855 457 L856 456 L857 457 L856 458 Z M205 455 L206 457 L204 459 L203 457 Z M850 455 L851 454 L852 456 L851 457 Z M143 454 L146 464 L142 474 L140 476 L139 475 L139 470 Z M833 454 L834 453 L835 454 L834 455 Z M205 454 L206 453 L207 454 L206 455 Z M844 451 L847 452 L849 458 L851 469 L858 492 L861 509 L862 507 L861 496 L858 487 L858 483 L853 469 L853 465 L855 464 L854 463 L855 460 L860 470 L865 491 L866 518 L867 519 L867 537 L864 538 L864 550 L865 551 L865 590 L864 591 L864 600 L863 601 L863 606 L862 607 L859 626 L855 636 L855 639 L851 646 L848 645 L856 621 L857 609 L858 608 L858 599 L859 598 L859 590 L860 589 L860 571 L861 570 L860 552 L859 551 L860 520 L859 519 L859 514 L857 506 L855 503 L851 491 L847 473 L845 470 L842 454 L840 453 Z M206 452 L207 451 L208 452 L207 453 Z M849 451 L850 450 L851 452 L850 453 Z M833 450 L836 450 L838 452 L845 473 L848 489 L852 497 L852 500 L856 510 L857 522 L858 523 L858 537 L857 538 L857 554 L858 555 L858 566 L859 567 L858 589 L857 590 L856 607 L854 612 L852 629 L848 639 L847 638 L847 632 L850 623 L851 597 L853 590 L853 569 L851 563 L851 521 L850 520 L849 506 L845 502 L846 499 L844 498 L844 492 L837 466 L837 459 L835 452 L832 451 Z M207 450 L208 449 L209 450 L208 451 Z M841 449 L842 448 L845 449 L844 450 Z M826 448 L830 449 L830 452 L836 468 L838 480 L841 489 L843 509 L844 509 L844 507 L846 505 L847 506 L847 514 L848 515 L848 523 L849 524 L849 553 L848 554 L848 566 L846 572 L845 571 L845 564 L844 563 L844 548 L843 547 L843 536 L842 535 L842 525 L840 517 L840 510 L839 509 L834 476 L827 453 L825 450 Z M837 448 L838 447 L839 448 L838 449 Z M203 436 L204 435 L205 436 L204 437 Z M841 435 L842 434 L850 441 L849 442 L846 441 Z M840 434 L841 433 L842 434 L841 435 Z M208 434 L209 433 L210 434 L209 435 Z M853 433 L855 432 L856 434 L855 435 Z M839 433 L840 432 L841 433 L840 434 Z M852 432 L853 431 L854 432 L853 433 Z M851 430 L852 429 L853 431 L852 432 Z M850 429 L851 428 L852 429 L851 430 Z M849 428 L850 427 L851 428 L850 429 Z M848 427 L849 426 L850 427 L849 428 Z M234 426 L235 429 L227 446 L227 448 L196 510 L196 512 L190 524 L189 530 L188 531 L181 530 L180 529 L183 524 L185 517 L189 511 L200 487 L213 467 Z M988 424 L993 428 L995 436 L995 456 L994 457 L993 471 L987 489 L972 504 L971 503 L971 495 L969 489 L961 478 L968 471 L969 468 L960 477 L958 476 L959 475 L957 476 L955 475 L962 459 L961 459 L954 473 L953 470 L950 475 L946 476 L945 473 L949 457 L953 447 L957 427 L961 425 Z M847 425 L848 424 L849 425 L848 426 Z M234 425 L235 424 L236 426 L235 427 Z M235 424 L236 423 L237 424 L236 425 Z M846 423 L847 422 L848 424 L847 425 Z M845 422 L846 421 L847 422 L846 423 Z M208 418 L209 420 L206 425 L205 422 Z M854 418 L855 417 L856 418 L855 419 Z M853 417 L854 416 L855 417 L854 418 Z M850 416 L858 426 L856 430 L850 424 L848 420 L849 418 L850 419 L849 418 Z M208 417 L209 416 L210 418 L209 419 Z M860 416 L861 415 L862 416 L861 417 Z M859 415 L860 414 L861 415 L860 416 Z M858 414 L859 413 L860 414 L859 415 Z M862 413 L863 412 L864 413 L863 414 Z M845 410 L850 416 L848 419 L844 412 Z M864 409 L865 408 L866 409 L865 410 Z M861 407 L863 410 L862 413 L860 411 Z M857 408 L858 407 L860 408 L859 409 Z M854 407 L855 406 L856 407 L855 408 Z M859 406 L860 405 L861 407 L860 408 Z M856 406 L857 405 L858 406 L857 407 Z M858 405 L859 404 L860 405 L859 406 Z M857 403 L858 402 L859 403 L858 404 Z M856 401 L857 400 L858 402 L857 403 Z M940 401 L939 400 L935 402 L932 407 L936 403 Z M874 400 L875 399 L877 401 L875 402 Z M249 398 L250 402 L244 420 L241 425 L241 428 L239 431 L238 436 L236 439 L235 445 L229 457 L229 460 L226 464 L221 477 L206 507 L204 509 L203 513 L201 515 L201 517 L198 522 L195 534 L193 535 L190 532 L191 527 L198 513 L198 511 L223 462 L223 460 L230 446 L231 441 L240 422 L243 410 Z M946 398 L951 402 L955 411 L955 428 L944 472 L942 474 L941 473 L941 478 L940 479 L939 478 L939 469 L938 468 L938 446 L937 450 L937 469 L938 470 L939 481 L936 486 L933 481 L929 468 L929 472 L931 475 L932 481 L935 486 L936 493 L934 495 L927 494 L924 496 L920 488 L917 476 L917 465 L918 464 L920 438 L921 437 L923 423 L926 418 L926 415 L921 424 L919 432 L917 452 L916 453 L916 461 L915 462 L915 480 L919 492 L922 496 L918 498 L913 498 L906 500 L887 499 L882 503 L873 484 L873 481 L871 478 L869 469 L867 467 L865 455 L861 449 L858 440 L860 427 L865 415 L874 405 L888 400 L908 398 L909 397 L940 397 L941 398 Z M853 397 L854 396 L855 397 L854 398 Z M250 395 L251 396 L250 399 L249 398 Z M854 394 L855 393 L856 394 L855 395 Z M250 394 L251 393 L252 395 L251 396 Z M252 390 L253 391 L252 394 L251 393 Z M237 390 L238 389 L239 390 L238 391 Z M238 389 L239 388 L240 389 L239 390 Z M253 387 L254 388 L253 391 L252 390 Z M239 387 L240 386 L241 387 L240 388 Z M891 385 L894 395 L889 398 L888 397 L888 390 L889 386 Z M824 385 L834 394 L845 409 L842 412 L845 415 L846 418 L845 422 L840 416 L837 409 L832 402 L832 400 L826 390 L823 387 Z M258 385 L260 389 L257 402 L247 427 L246 432 L244 435 L241 446 L239 449 L239 452 L234 465 L233 471 L228 482 L223 488 L214 507 L212 514 L210 516 L210 518 L205 528 L204 540 L203 541 L197 537 L201 521 L203 518 L204 513 L212 500 L224 475 L227 472 L233 453 L236 448 L240 435 L247 419 L253 401 L253 398 L256 392 L257 393 L256 390 Z M253 386 L254 385 L255 387 L254 388 Z M822 385 L823 384 L824 385 L823 386 Z M240 385 L241 384 L242 386 L241 387 Z M169 385 L170 384 L171 385 L170 386 Z M254 384 L255 383 L256 385 L255 386 Z M241 384 L242 383 L243 384 L242 385 Z M185 383 L190 385 L196 391 L201 403 L202 428 L201 429 L200 440 L193 463 L187 473 L178 482 L172 485 L165 485 L159 482 L154 477 L149 467 L146 456 L146 435 L152 415 L163 396 L173 386 L179 383 Z M870 383 L871 382 L872 383 L871 384 Z M259 382 L260 383 L259 386 L258 385 Z M857 381 L863 381 L868 390 L875 399 L874 403 L864 394 L856 382 Z M820 382 L821 381 L823 384 L822 385 Z M255 382 L256 381 L257 382 L256 383 Z M242 382 L243 381 L244 383 L243 384 Z M866 382 L868 380 L871 385 L872 383 L873 384 L875 391 L876 390 L884 396 L885 395 L886 397 L882 400 L879 400 L873 394 Z M852 380 L855 382 L857 387 L862 394 L871 403 L866 409 L863 406 L858 397 L855 388 L851 382 Z M819 381 L820 380 L821 381 L820 382 Z M790 381 L791 380 L792 381 L791 382 Z M213 380 L214 382 L204 401 L202 396 L206 390 L207 391 L206 388 Z M175 381 L176 380 L177 381 L176 382 Z M172 380 L173 383 L171 385 L170 383 Z M262 380 L263 379 L264 380 L263 381 Z M260 379 L261 380 L260 383 L259 382 Z M243 380 L244 379 L245 381 L244 382 Z M213 380 L214 379 L215 380 L214 381 Z M789 379 L790 378 L791 380 L790 381 Z M785 378 L793 384 L811 403 L839 438 L848 444 L856 444 L860 453 L862 455 L861 458 L858 456 L858 454 L849 448 L848 446 L849 448 L847 449 L846 446 L840 446 L832 440 L816 418 L788 386 L784 380 Z M256 379 L257 378 L258 380 L257 381 Z M214 379 L215 378 L216 379 L215 380 Z M172 379 L173 378 L174 380 L173 381 Z M783 378 L784 377 L785 378 L784 379 Z M253 378 L254 377 L255 378 L254 379 Z M215 378 L216 377 L217 378 L216 379 Z M173 378 L174 377 L175 378 L174 379 Z M875 376 L877 377 L884 392 L883 393 L880 391 L881 390 L880 391 L878 390 L873 381 L871 380 Z M263 377 L264 376 L265 378 L264 379 Z M257 377 L258 376 L259 378 L258 379 Z M216 377 L217 376 L218 377 L217 378 Z M842 375 L846 378 L845 379 L846 378 L847 379 L846 381 L847 380 L853 387 L855 391 L855 393 L853 395 L850 393 L850 391 L847 388 L841 376 Z M251 375 L252 378 L249 385 L249 390 L239 414 L230 428 L229 432 L224 439 L220 449 L218 451 L205 476 L183 509 L175 523 L174 527 L170 528 L169 524 L174 511 L203 468 L218 436 L224 426 L240 405 L243 398 L242 398 L234 411 L222 426 L215 437 L210 447 L209 445 L203 455 L201 457 L200 456 L201 458 L198 461 L197 459 L201 446 L206 438 L209 437 L212 434 L215 428 L238 396 L245 384 L247 382 L248 383 L247 382 Z M174 376 L175 375 L176 376 L175 377 Z M840 375 L841 374 L842 375 L841 376 Z M798 375 L799 374 L800 375 L799 376 Z M258 375 L259 374 L260 375 L259 376 Z M254 375 L255 374 L256 375 L255 376 Z M217 375 L218 374 L219 375 L218 376 Z M251 374 L252 373 L253 375 L252 376 Z M175 374 L176 373 L177 375 L176 376 Z M797 373 L798 372 L799 373 L798 374 Z M264 373 L265 372 L266 374 L265 375 Z M255 373 L256 372 L257 373 L256 374 Z M796 372 L797 371 L798 372 L797 373 Z M283 372 L284 371 L285 372 L284 373 Z M259 372 L260 371 L261 373 L260 374 Z M252 372 L253 371 L254 372 L253 373 Z M880 370 L882 372 L882 380 L881 381 L877 374 Z M795 371 L796 370 L797 371 L796 372 Z M265 371 L266 370 L267 372 L266 373 Z M256 371 L257 370 L258 371 L257 372 Z M825 370 L826 369 L827 370 L826 371 Z M284 370 L285 369 L286 370 L285 371 Z M260 369 L261 368 L262 370 L261 371 Z M882 368 L883 367 L884 369 L883 370 Z M824 368 L825 367 L826 369 L825 370 Z M793 368 L794 367 L795 368 L794 369 Z M257 368 L258 367 L259 369 L258 370 Z M251 367 L252 369 L245 380 L244 378 Z M823 367 L824 366 L825 367 L824 368 Z M792 367 L793 366 L794 367 L793 368 Z M267 366 L268 367 L267 370 L266 369 Z M791 366 L792 365 L793 366 L792 367 Z M261 366 L262 365 L263 367 L262 368 Z M251 366 L252 365 L253 367 L252 368 Z M822 365 L823 364 L824 365 L823 366 Z M818 364 L819 363 L820 364 L819 365 Z M790 364 L791 363 L792 364 L791 365 Z M262 364 L263 363 L264 364 L263 365 Z M259 363 L260 364 L259 367 L258 366 Z M180 363 L182 366 L177 374 L176 371 Z M821 363 L822 362 L823 364 L822 365 Z M813 362 L818 368 L825 372 L835 386 L839 394 L858 413 L858 415 L861 418 L859 423 L855 420 L856 418 L857 419 L858 418 L855 415 L852 415 L841 399 L820 377 L814 368 L815 367 L814 368 L811 365 Z M810 363 L811 362 L812 363 L811 364 Z M789 363 L790 362 L791 363 L790 364 Z M257 363 L258 362 L259 363 L258 364 Z M820 362 L821 361 L822 362 L821 363 Z M811 362 L812 361 L813 362 L812 363 Z M824 360 L838 374 L842 383 L855 404 L854 407 L838 389 L837 387 L838 384 L826 365 L823 362 Z M788 361 L789 360 L790 361 L789 362 Z M822 360 L823 359 L824 360 L823 361 Z M787 360 L788 359 L789 360 L788 361 Z M255 359 L256 362 L253 366 L252 364 Z M821 359 L822 358 L823 359 L822 360 Z M807 360 L809 358 L812 361 L810 363 Z M806 359 L807 358 L808 359 L807 360 Z M805 358 L806 357 L807 358 L806 359 Z M786 358 L787 357 L788 358 L787 359 Z M294 358 L295 359 L289 362 L290 364 L286 370 L285 366 L289 357 Z M255 358 L256 357 L257 359 L256 360 Z M785 357 L786 356 L787 357 L786 358 Z M261 356 L262 360 L260 364 L258 362 Z M256 357 L257 356 L258 357 L257 358 Z M884 354 L887 357 L888 366 L889 367 L888 384 L885 390 L883 386 L884 376 L886 371 L886 367 L883 359 L883 355 Z M812 354 L814 358 L819 362 L818 364 L810 356 Z M799 354 L820 379 L819 381 L812 374 L798 356 Z M284 354 L287 356 L287 358 L284 363 L277 386 L272 395 L271 392 L274 380 Z M257 355 L258 354 L259 355 L258 356 Z M797 354 L798 353 L799 354 L798 355 Z M783 354 L784 353 L785 354 L784 355 Z M262 353 L263 354 L262 357 L261 356 Z M811 352 L812 354 L810 356 L809 354 Z M802 354 L804 352 L806 354 L805 355 L806 354 L809 358 L808 359 L806 357 L805 358 Z M273 352 L274 354 L268 367 L267 366 L267 362 Z M258 353 L259 352 L260 353 L259 354 Z M262 352 L263 351 L264 352 L263 353 Z M813 352 L815 350 L817 352 L816 353 L817 352 L822 358 L821 359 L816 358 Z M781 351 L782 350 L783 351 L782 352 Z M280 350 L282 353 L279 356 L278 355 L279 358 L277 366 L270 386 L269 399 L259 424 L257 432 L248 451 L244 464 L238 476 L236 484 L221 511 L216 526 L212 533 L212 535 L209 539 L208 538 L209 540 L207 543 L206 542 L206 533 L209 524 L216 510 L219 501 L226 488 L226 486 L232 479 L242 451 L242 448 L247 433 L257 408 L269 370 L277 352 Z M273 351 L274 350 L275 352 L274 353 Z M269 351 L270 350 L271 351 L270 352 Z M259 351 L260 350 L261 351 L260 352 Z M249 350 L250 352 L248 356 L225 388 L218 402 L216 404 L216 406 L213 409 L212 414 L210 417 L209 414 L211 410 L211 407 L215 397 L220 389 L220 387 L225 382 L225 379 L230 372 Z M233 351 L234 350 L235 351 L234 352 Z M184 351 L185 350 L186 351 L185 352 Z M884 350 L885 349 L886 351 L885 352 Z M794 350 L795 349 L798 353 L797 354 Z M780 350 L781 349 L782 350 L781 351 Z M266 350 L267 349 L268 350 L267 351 Z M249 350 L250 349 L251 350 L250 351 Z M801 348 L804 351 L802 354 L799 350 Z M793 349 L794 348 L795 349 L794 350 Z M270 349 L271 348 L272 350 L271 351 Z M185 349 L186 348 L187 350 L186 351 Z M792 348 L793 347 L794 348 L793 349 Z M779 348 L780 347 L781 348 L780 349 Z M883 347 L884 346 L885 348 L884 349 Z M778 347 L779 346 L780 347 L779 348 Z M252 346 L253 348 L251 350 L250 348 Z M252 346 L253 345 L254 346 L253 347 Z M790 345 L791 344 L792 345 L791 346 Z M235 344 L236 345 L231 350 L231 351 L234 352 L205 386 L201 395 L198 389 L205 376 L218 359 L227 350 Z M883 343 L884 344 L883 347 L882 346 Z M789 344 L790 343 L791 344 L790 345 Z M271 347 L273 345 L274 346 L273 344 L275 343 L279 346 L280 349 L279 350 L277 349 L275 351 L274 348 L272 349 Z M253 344 L254 343 L255 345 L254 346 Z M775 343 L776 342 L777 343 L776 344 Z M254 343 L255 342 L256 343 L255 344 Z M804 341 L808 347 L807 349 L808 348 L811 352 L809 354 L807 352 L808 351 L807 352 L801 344 Z M325 342 L326 341 L327 342 L326 343 Z M321 342 L308 352 L298 357 L293 357 L289 354 L293 351 L306 347 L319 341 Z M269 343 L271 341 L273 343 L272 344 Z M787 341 L788 340 L789 341 L788 342 Z M327 341 L328 340 L329 341 L328 342 Z M320 341 L321 340 L323 341 L322 342 Z M275 341 L276 340 L277 341 L276 342 Z M255 341 L256 340 L257 341 L256 342 Z M802 340 L803 339 L804 340 L803 341 Z M770 339 L790 367 L802 379 L821 403 L832 422 L840 431 L839 433 L822 414 L808 395 L794 380 L789 372 L779 360 L770 345 L769 342 Z M329 340 L330 339 L331 340 L330 341 Z M267 340 L268 339 L269 340 L268 341 Z M252 340 L253 339 L254 340 L253 341 Z M773 339 L774 338 L775 339 L774 340 Z M330 339 L331 338 L332 339 L331 340 Z M318 339 L294 350 L289 350 L288 351 L285 350 L284 351 L280 345 L281 343 L282 344 L289 344 L290 343 L301 342 L313 338 L317 338 Z M256 339 L257 338 L258 339 L257 340 Z M768 338 L769 337 L770 339 L769 340 Z M332 338 L333 337 L334 338 L333 339 Z M317 338 L318 337 L321 338 L320 339 Z M270 338 L271 337 L272 338 L271 339 Z M268 338 L269 337 L270 338 L269 339 Z M264 338 L265 337 L266 339 L265 340 Z M262 337 L265 340 L264 342 L262 341 L264 342 L263 344 L261 343 L263 344 L263 346 L261 349 L258 350 L250 365 L243 375 L231 402 L217 421 L212 430 L207 433 L205 436 L204 435 L204 431 L212 419 L215 411 L229 385 L237 373 L250 357 Z M257 338 L258 337 L259 338 L258 339 Z M253 338 L254 337 L255 338 L254 339 Z M784 337 L785 336 L786 337 L785 338 Z M334 337 L335 336 L336 337 L335 338 Z M320 337 L321 336 L323 337 L322 338 Z M254 337 L255 336 L256 337 L255 338 Z M249 336 L251 338 L249 342 L251 344 L241 355 L222 380 L213 396 L213 398 L209 405 L209 409 L206 416 L204 409 L205 403 L208 398 L208 396 L210 394 L211 390 L221 374 L220 372 L230 361 Z M243 337 L244 336 L245 337 L244 338 Z M767 336 L768 335 L769 336 L768 337 Z M269 336 L270 335 L271 337 L270 338 Z M258 336 L259 335 L260 336 L259 337 Z M244 336 L245 335 L246 336 L245 337 Z M229 336 L230 335 L231 336 L230 337 Z M325 335 L326 334 L327 335 L326 336 Z M255 335 L256 334 L257 335 L256 336 Z M252 334 L253 335 L251 338 L249 336 Z M245 335 L246 334 L247 335 L246 336 Z M230 335 L231 334 L233 335 L232 336 Z M782 334 L783 333 L784 334 L783 335 Z M327 334 L328 333 L329 334 L328 335 Z M264 333 L265 336 L263 338 L262 336 Z M259 334 L260 333 L261 334 L260 335 Z M246 334 L247 333 L248 334 L247 335 Z M238 334 L239 333 L240 334 L239 335 Z M232 334 L233 333 L234 334 L233 335 Z M803 332 L815 349 L813 352 L802 334 Z M252 333 L253 332 L254 334 L253 335 Z M247 333 L248 332 L249 333 L248 334 Z M233 333 L234 332 L235 333 L234 334 Z M283 332 L284 331 L286 332 L285 333 Z M248 332 L249 331 L250 332 L249 333 Z M234 332 L235 331 L237 332 L236 333 Z M801 331 L802 330 L803 332 L802 333 Z M780 331 L781 330 L782 331 L781 332 Z M250 331 L251 330 L252 331 L251 332 Z M236 331 L237 330 L238 331 L237 332 Z M335 330 L336 329 L337 330 L336 331 Z M237 330 L238 329 L239 330 L238 331 Z M800 329 L801 328 L802 329 L801 330 Z M337 329 L338 328 L339 329 L338 330 Z M264 332 L266 328 L270 330 L280 331 L284 333 L274 336 L272 334 L272 332 L269 332 L268 335 L266 333 L265 334 Z M248 328 L249 329 L232 343 L217 357 L207 369 L198 386 L196 387 L194 385 L195 381 L210 360 L233 337 L237 334 L239 335 L240 332 Z M791 328 L792 327 L793 329 L792 330 Z M778 328 L779 327 L780 328 L779 329 Z M338 328 L339 327 L341 328 L340 329 Z M252 328 L253 327 L254 328 L253 329 Z M248 328 L249 327 L250 328 L249 329 Z M242 328 L243 327 L244 328 L243 329 Z M799 327 L800 326 L801 327 L800 328 Z M350 327 L351 326 L352 327 L351 328 Z M340 327 L341 326 L342 327 L341 328 Z M236 326 L237 327 L234 330 L227 334 L222 339 L223 340 L228 336 L230 337 L216 350 L205 363 L194 379 L193 382 L191 383 L188 381 L191 379 L203 362 L201 362 L188 381 L184 380 L183 379 L186 373 L198 357 L218 337 L221 336 L228 330 Z M207 326 L208 327 L194 340 L187 349 L186 348 L187 346 L186 342 L192 330 L195 328 L196 329 L195 331 L197 331 L201 326 Z M790 326 L791 325 L792 327 L791 328 Z M351 326 L352 325 L353 326 L352 327 Z M342 326 L343 325 L344 326 L343 327 Z M236 326 L237 325 L239 326 L238 327 Z M798 325 L799 324 L800 325 L799 326 Z M343 325 L344 324 L345 325 L344 326 Z M243 327 L245 324 L247 326 L245 328 Z M238 325 L239 324 L240 325 L239 326 Z M194 325 L195 324 L196 325 L195 326 Z M352 325 L354 323 L356 324 L354 326 Z M345 324 L346 323 L347 324 L346 325 Z M240 324 L241 323 L242 324 L241 325 Z M191 324 L192 323 L195 324 L194 325 Z M775 323 L776 322 L777 323 L776 324 Z M346 323 L347 322 L348 323 L347 324 Z M189 323 L190 322 L192 323 L191 324 Z M348 322 L349 321 L350 322 L349 323 Z M188 322 L189 321 L190 322 L189 323 Z M349 321 L350 320 L351 321 L350 322 Z M245 324 L249 321 L253 320 L258 323 L263 329 L262 330 L260 329 L257 331 L256 328 L253 327 L253 325 L249 324 L250 323 L249 326 L247 326 Z M187 321 L188 320 L189 321 L188 322 Z M351 320 L352 319 L353 320 L352 321 Z M251 320 L252 319 L253 320 L252 321 Z M352 319 L353 318 L354 319 L353 320 Z M354 318 L355 317 L356 318 L355 319 Z M355 317 L356 316 L357 317 L356 318 Z M254 317 L255 316 L256 317 L255 318 Z M767 315 L798 360 L825 392 L829 398 L835 412 L852 435 L856 438 L855 439 L848 436 L841 430 L831 417 L823 402 L810 386 L804 376 L794 364 L778 341 L766 317 Z M357 316 L358 315 L359 316 L358 317 Z M358 315 L359 314 L360 315 L359 316 Z M765 314 L766 313 L767 315 L766 316 Z M360 314 L361 313 L362 314 L361 315 Z M292 314 L293 313 L295 314 L294 315 Z M290 314 L288 316 L281 319 L269 322 L262 322 L258 320 L259 319 L274 318 L288 313 Z M246 314 L249 319 L248 320 L245 319 L231 326 L215 337 L195 357 L184 372 L180 380 L179 378 L180 380 L179 381 L176 380 L177 377 L188 361 L201 346 L217 330 L244 313 Z M764 313 L765 312 L766 313 L765 314 Z M361 313 L362 312 L363 313 L362 314 Z M278 314 L269 317 L257 317 L256 316 L268 311 L269 312 L271 311 Z M242 312 L225 322 L214 330 L191 354 L183 365 L180 363 L183 354 L186 353 L198 338 L210 327 L234 312 L238 312 L239 311 Z M763 311 L764 310 L765 311 L764 312 Z M364 311 L365 310 L366 311 L365 312 Z M294 313 L297 310 L306 310 L307 311 L299 314 L295 314 Z M242 311 L243 310 L244 311 L243 312 Z M727 311 L730 311 L734 309 L746 331 L779 374 L785 385 L805 408 L827 437 L837 447 L836 448 L827 445 L820 439 L817 433 L805 416 L786 394 L761 361 L747 339 L742 333 L734 318 L726 312 Z M376 310 L377 309 L378 310 L377 311 Z M365 310 L366 309 L367 310 L366 311 Z M331 310 L332 309 L335 310 L334 311 Z M307 310 L308 309 L311 310 L310 311 Z M762 309 L763 308 L764 309 L763 310 Z M377 309 L378 308 L379 309 L378 310 Z M366 309 L367 308 L368 309 L367 310 Z M334 309 L335 308 L337 309 L336 310 Z M311 309 L312 308 L313 309 L312 310 Z M236 309 L237 308 L239 309 L238 310 Z M378 308 L379 307 L380 308 L379 309 Z M367 308 L368 307 L369 308 L368 309 Z M314 308 L315 307 L316 308 L315 309 Z M761 307 L762 306 L763 307 L762 308 Z M738 306 L745 314 L748 321 L760 340 L769 348 L781 366 L787 373 L790 378 L789 379 L785 377 L774 365 L766 353 L761 348 L750 333 L739 313 L735 309 Z M379 307 L380 306 L381 307 L380 308 Z M355 307 L343 313 L336 318 L333 318 L330 320 L325 321 L310 328 L303 330 L297 330 L296 331 L292 331 L291 330 L302 324 L306 323 L316 316 L318 316 L328 310 L332 311 L327 314 L327 315 L329 315 L340 309 L345 309 L352 306 Z M238 307 L240 306 L243 308 L239 309 Z M380 306 L381 305 L382 306 L381 307 Z M376 306 L362 321 L357 324 L355 323 L375 305 Z M370 306 L371 305 L372 306 L371 307 Z M354 306 L355 305 L356 306 L355 307 Z M319 306 L320 305 L321 306 L320 307 Z M309 306 L310 305 L311 306 L310 307 Z M767 304 L770 307 L770 309 L773 313 L774 316 L773 319 L765 308 L765 306 Z M375 305 L376 304 L377 305 L376 306 Z M371 305 L372 304 L373 305 L372 306 Z M356 305 L357 304 L358 305 L357 306 Z M320 305 L321 304 L323 305 L322 306 Z M311 305 L312 304 L313 305 L312 306 Z M266 309 L264 311 L262 311 L257 314 L253 314 L248 311 L249 310 L257 309 L260 307 L261 304 Z M376 304 L377 303 L378 304 L377 305 Z M372 304 L373 303 L374 304 L373 305 Z M322 304 L323 303 L324 304 L323 305 Z M759 303 L760 302 L761 303 L760 304 Z M381 305 L383 302 L385 303 L382 306 Z M377 303 L378 302 L379 303 L378 304 Z M373 303 L374 302 L375 303 L374 304 Z M324 303 L325 302 L326 303 L325 304 Z M384 302 L385 301 L386 302 L385 303 Z M374 302 L375 301 L376 302 L375 303 Z M326 302 L327 301 L328 302 L327 303 Z M385 301 L386 300 L387 301 L386 302 Z M375 301 L376 300 L377 301 L376 302 Z M261 304 L255 308 L250 308 L249 309 L247 309 L245 306 L246 305 L248 306 L250 303 L256 300 L258 300 L259 302 L258 303 L257 302 L258 303 L259 302 Z M763 299 L767 303 L765 306 L762 302 Z M376 300 L377 299 L378 300 L377 301 Z M761 299 L762 298 L763 299 L762 300 Z M377 299 L378 298 L379 299 L378 300 Z M238 299 L239 298 L240 299 L239 300 Z M255 297 L256 296 L257 297 L256 298 Z M748 296 L749 295 L750 297 L749 298 Z M745 295 L746 298 L743 305 L744 303 L747 303 L748 300 L749 301 L754 315 L768 342 L767 345 L762 340 L752 324 L747 313 L741 306 L741 303 Z M396 296 L397 295 L398 296 L397 297 Z M335 296 L336 295 L337 296 L336 297 Z M753 294 L760 302 L757 303 L757 304 L759 306 L760 310 L774 336 L773 338 L767 330 L760 315 L758 313 L752 298 Z M397 295 L398 294 L399 295 L398 296 Z M336 295 L337 294 L338 295 L337 296 Z M751 294 L752 293 L753 294 L752 295 Z M398 294 L399 293 L400 294 L399 295 Z M338 294 L339 293 L340 294 L339 295 Z M750 293 L751 292 L752 293 L751 294 Z M256 293 L255 298 L251 301 L247 302 L245 304 L241 304 L240 303 L245 297 L247 297 L255 292 Z M378 292 L379 291 L380 292 L379 293 Z M379 291 L380 290 L381 291 L380 292 Z M390 290 L391 289 L392 290 L391 291 Z M380 290 L381 289 L382 290 L381 291 Z M750 289 L751 288 L752 289 L751 290 Z M391 289 L392 288 L393 289 L392 290 Z M361 287 L355 293 L340 304 L333 308 L330 306 L293 327 L285 330 L282 330 L281 329 L270 328 L266 326 L278 321 L285 320 L289 318 L293 318 L314 311 L323 307 L337 298 L354 290 L359 286 Z M254 286 L255 290 L248 294 L247 293 L251 289 L252 290 Z M797 285 L800 287 L816 290 L843 303 L856 308 L861 308 L865 312 L874 326 L879 340 L878 344 L879 343 L880 344 L880 361 L879 362 L879 366 L876 371 L871 376 L864 379 L857 379 L851 377 L840 371 L837 368 L838 367 L837 368 L835 367 L822 354 L805 330 L797 312 L794 300 L794 293 L795 292 L795 288 Z M769 285 L773 288 L781 301 L783 307 L785 309 L791 323 L790 326 L777 306 L774 299 L766 289 Z M754 286 L749 289 L745 289 L742 287 L750 285 Z M360 286 L361 285 L362 286 L361 287 Z M753 285 L754 284 L757 285 L756 286 Z M361 285 L362 284 L363 285 L362 286 Z M756 288 L763 285 L765 283 L767 284 L764 288 L764 290 L769 295 L789 329 L795 336 L799 345 L801 347 L799 350 L785 333 L779 322 L773 315 L773 311 L767 300 L759 291 L757 290 L758 292 L756 294 L754 292 L754 290 Z M756 284 L757 283 L760 284 L759 285 Z M791 282 L794 284 L792 289 L790 283 Z M766 283 L767 282 L768 283 L767 284 Z M759 283 L760 282 L762 283 L761 284 Z M441 283 L442 282 L444 283 L443 284 Z M364 283 L365 282 L366 283 L365 284 Z M761 282 L762 281 L764 282 L763 283 Z M430 282 L431 281 L432 282 L431 283 Z M404 282 L405 281 L406 282 L405 283 Z M365 282 L366 281 L367 282 L366 283 Z M763 281 L764 280 L765 281 L764 282 Z M765 280 L766 279 L767 280 L766 281 Z M787 278 L791 282 L788 285 L786 281 Z M766 279 L767 278 L769 279 L768 280 Z M416 279 L417 278 L418 279 L417 280 Z M350 279 L345 285 L332 296 L321 302 L317 303 L315 305 L312 304 L326 295 L335 287 L340 285 L348 278 Z M785 278 L786 277 L787 278 L786 279 Z M768 278 L769 277 L770 278 L769 279 Z M408 277 L409 279 L406 282 L405 281 L404 282 L405 283 L401 288 L387 301 L386 300 L387 298 L397 288 L405 278 L406 279 Z M349 278 L350 277 L351 278 L350 279 Z M401 276 L402 278 L397 285 L393 289 L392 288 L390 290 L391 291 L379 303 L378 301 L383 294 Z M350 277 L351 276 L352 277 L351 278 Z M784 276 L785 275 L786 276 L785 277 Z M773 275 L793 307 L794 313 L799 323 L797 326 L803 338 L802 340 L798 337 L797 335 L798 333 L797 334 L796 333 L796 330 L792 320 L784 305 L783 301 L779 294 L773 287 L772 284 L770 283 Z M414 275 L417 280 L404 292 L400 294 L399 293 L400 291 L411 280 Z M401 276 L402 275 L403 276 L402 277 Z M351 276 L352 275 L353 276 L352 277 Z M346 276 L347 275 L348 276 L347 277 Z M420 275 L421 274 L425 276 L427 278 L426 279 L428 278 L431 281 L428 282 L421 279 Z M352 275 L353 274 L354 275 L353 276 Z M347 275 L348 274 L349 275 L348 276 Z M671 274 L672 273 L673 274 L672 275 Z M414 274 L415 273 L416 275 L415 276 Z M410 274 L411 273 L412 274 L411 275 Z M668 273 L669 272 L671 273 L670 274 Z M411 273 L412 272 L413 273 L412 274 Z M404 272 L405 274 L403 276 L402 274 Z M355 273 L356 272 L357 273 L356 274 Z M554 272 L555 271 L558 272 L557 273 Z M404 272 L405 271 L406 272 L405 273 Z M356 272 L357 271 L358 272 L357 273 Z M558 271 L559 270 L561 271 L560 272 Z M405 271 L406 270 L407 271 L406 272 Z M357 271 L358 270 L359 271 L358 272 Z M770 270 L771 269 L772 270 L771 271 Z M560 270 L561 269 L563 270 L562 271 Z M392 270 L393 269 L394 270 L393 271 Z M771 269 L772 268 L773 269 L772 270 Z M563 269 L564 268 L566 269 L565 270 Z M406 269 L407 268 L408 269 L407 270 Z M565 268 L566 267 L568 268 L567 269 Z M407 268 L408 267 L409 268 L408 269 Z M258 267 L260 270 L257 274 L256 272 Z M751 267 L752 266 L754 267 L753 268 Z M568 267 L569 266 L570 267 L569 268 Z M753 266 L754 265 L757 266 L756 267 Z M570 266 L571 265 L573 266 L572 267 Z M432 266 L434 265 L444 270 L469 276 L468 277 L462 277 L461 276 L455 276 L454 275 L437 272 Z M408 266 L409 265 L410 266 L409 267 Z M778 264 L782 272 L782 275 L784 278 L785 283 L792 296 L792 300 L791 301 L777 278 L777 275 L774 272 L774 270 Z M756 265 L757 264 L759 265 L758 266 Z M431 265 L432 264 L433 265 L432 266 Z M409 265 L410 264 L411 265 L410 266 Z M758 264 L759 263 L760 264 L759 265 Z M692 264 L693 263 L695 264 L694 265 Z M581 264 L582 263 L583 264 L582 265 Z M416 263 L417 265 L415 271 L413 273 L412 272 L413 270 L410 274 L411 276 L406 279 L405 277 Z M760 263 L761 262 L762 263 L761 264 Z M690 263 L691 262 L693 263 L692 264 Z M583 263 L584 262 L585 263 L584 264 Z M577 263 L578 262 L579 263 L578 264 Z M410 263 L411 262 L412 263 L411 264 Z M756 262 L757 261 L758 262 L757 263 Z M579 262 L580 261 L581 262 L580 263 Z M419 262 L420 261 L423 264 L426 265 L428 267 L427 268 L429 267 L433 269 L434 272 L432 273 L428 270 L420 268 L419 267 Z M406 262 L407 261 L408 263 L407 264 Z M761 261 L762 260 L764 262 L762 263 Z M706 261 L707 260 L709 261 L708 262 Z M581 261 L582 260 L583 261 L582 262 Z M704 260 L705 259 L706 260 L705 261 Z M582 260 L583 259 L584 260 L583 261 Z M407 260 L408 259 L409 261 L408 262 Z M378 260 L379 259 L380 260 L379 261 Z M765 258 L766 260 L764 262 L763 260 Z M701 259 L702 258 L704 259 L703 260 Z M583 259 L584 258 L585 259 L584 260 Z M722 258 L723 257 L733 257 L734 259 L741 260 L744 262 L743 263 L745 262 L746 264 L739 266 L736 263 L734 263 L733 261 Z M622 258 L623 257 L624 258 L623 259 Z M593 258 L587 263 L584 262 L591 257 Z M585 258 L586 257 L587 258 L586 259 Z M408 258 L409 257 L410 259 L409 260 Z M379 258 L380 257 L381 259 L380 260 Z M765 257 L766 256 L767 258 L766 259 Z M738 257 L739 256 L740 257 L739 258 Z M720 257 L721 256 L723 257 L722 258 Z M621 257 L622 256 L623 257 L622 258 Z M604 256 L612 263 L660 288 L662 288 L667 291 L669 291 L674 294 L704 306 L722 311 L730 320 L737 331 L742 336 L747 345 L770 378 L809 426 L823 449 L829 467 L829 471 L831 475 L831 479 L834 490 L834 495 L837 508 L837 516 L838 517 L839 534 L840 535 L840 543 L841 544 L841 557 L842 558 L843 590 L842 591 L842 615 L841 616 L841 635 L842 636 L841 638 L841 687 L840 688 L840 710 L839 711 L837 749 L836 750 L835 766 L833 773 L833 780 L832 781 L832 787 L830 795 L829 809 L828 810 L828 815 L827 816 L826 826 L823 836 L821 850 L817 866 L815 870 L813 881 L810 888 L810 891 L808 894 L808 897 L802 915 L800 918 L793 938 L775 977 L773 979 L761 1002 L754 1012 L752 1017 L750 1019 L749 1018 L750 1019 L749 1022 L746 1025 L740 1036 L718 1068 L717 1067 L718 1069 L713 1075 L712 1074 L713 1076 L709 1080 L689 1109 L654 1152 L653 1151 L654 1152 L651 1156 L633 1174 L613 1188 L593 1196 L576 1200 L570 1200 L569 1201 L550 1202 L549 1203 L504 1202 L503 1201 L497 1201 L496 1200 L491 1200 L478 1197 L461 1191 L451 1186 L432 1173 L405 1147 L387 1126 L366 1097 L359 1089 L320 1032 L291 984 L269 940 L269 938 L258 913 L242 861 L240 849 L238 845 L237 837 L235 832 L229 798 L228 797 L228 791 L227 790 L225 772 L223 765 L223 757 L222 756 L221 739 L220 738 L219 714 L218 713 L218 699 L217 698 L217 694 L219 689 L219 665 L218 664 L219 661 L219 645 L218 644 L219 624 L218 623 L218 607 L220 601 L220 591 L221 590 L220 586 L220 578 L222 572 L222 557 L221 553 L222 552 L222 548 L224 543 L225 534 L227 529 L227 525 L232 504 L240 479 L258 437 L266 413 L278 390 L281 382 L283 380 L284 381 L283 379 L284 378 L285 379 L284 377 L290 366 L293 363 L298 360 L307 357 L314 352 L325 347 L363 324 L381 311 L383 312 L382 311 L385 308 L407 293 L420 280 L424 283 L430 285 L446 286 L447 287 L448 286 L461 286 L462 285 L490 285 L491 284 L502 284 L503 283 L518 282 L526 280 L534 280 L535 279 L541 279 L546 277 L559 275 L588 266 L599 261 Z M592 257 L593 256 L594 257 L593 258 Z M586 257 L587 256 L588 257 L587 258 Z M436 257 L437 256 L438 257 L437 258 Z M427 257 L428 256 L429 257 L428 258 Z M404 257 L405 256 L406 257 L405 258 Z M380 257 L381 256 L382 257 L381 258 Z M588 256 L589 255 L590 256 L589 257 Z M582 256 L583 255 L585 256 L584 257 Z M433 256 L434 255 L436 256 L435 257 Z M359 256 L360 255 L361 256 L360 257 Z M766 255 L767 254 L768 256 L767 257 Z M597 257 L599 254 L601 256 L599 258 Z M405 255 L406 254 L407 256 L406 257 Z M381 255 L382 254 L383 256 L382 257 Z M751 254 L744 257 L740 256 L747 253 Z M656 254 L656 255 L668 263 L677 267 L697 279 L721 288 L734 290 L735 291 L737 290 L733 288 L711 283 L707 279 L705 280 L698 276 L691 274 L689 272 L683 270 L666 258 Z M617 255 L619 253 L622 256 L620 257 Z M615 254 L616 253 L618 254 L617 255 Z M776 259 L776 263 L775 264 L772 263 L772 265 L767 270 L759 273 L757 276 L744 276 L740 274 L730 274 L727 271 L732 266 L735 268 L736 267 L743 267 L746 266 L747 264 L751 268 L747 270 L744 270 L743 271 L744 272 L748 272 L754 270 L764 265 L767 262 L771 252 Z M617 253 L618 252 L619 253 L618 254 Z M614 253 L615 252 L616 253 L615 254 Z M601 252 L602 253 L601 256 L599 254 Z M412 252 L413 253 L410 258 L409 255 Z M406 253 L407 252 L408 254 L407 255 Z M624 255 L626 254 L627 251 L645 264 L667 275 L672 276 L675 278 L678 278 L696 286 L711 291 L718 292 L725 295 L735 296 L736 297 L740 296 L741 297 L738 301 L723 301 L698 293 L695 291 L687 289 L667 280 L665 280 L637 266 L625 258 Z M616 252 L617 251 L618 252 L617 253 Z M407 252 L408 251 L409 252 L408 253 Z M182 252 L160 256 L158 258 L173 256 L182 253 Z M624 251 L625 250 L627 251 L626 252 Z M601 251 L602 250 L603 252 L602 253 Z M414 251 L415 250 L422 256 L420 257 L422 256 L432 264 L430 265 L420 259 L417 259 L412 263 L411 261 L414 255 Z M639 250 L640 249 L641 250 L640 251 Z M622 250 L623 249 L625 250 L624 251 Z M614 250 L615 249 L616 250 L615 251 Z M413 250 L414 249 L415 250 L414 251 Z M900 249 L900 251 L904 251 L920 255 L929 255 L930 254 L938 253 L941 251 L941 249 L935 252 L923 253 L922 252 Z M753 249 L754 248 L755 249 L754 250 Z M638 249 L639 248 L640 249 L639 250 Z M613 249 L614 248 L615 249 L614 250 Z M590 249 L580 255 L577 254 L588 248 Z M771 248 L772 247 L773 248 L772 249 Z M766 247 L770 251 L764 256 L761 261 L758 262 L757 261 L762 256 L764 252 L764 249 Z M762 249 L760 255 L755 261 L749 263 L746 260 L742 259 L751 256 L760 247 Z M754 248 L755 247 L756 248 L755 249 Z M385 247 L387 251 L383 255 L382 253 Z M755 247 L756 246 L757 247 L756 248 Z M589 248 L591 246 L593 247 L591 249 Z M415 247 L416 246 L417 247 L416 248 Z M777 245 L778 247 L775 252 L772 249 Z M760 247 L761 245 L763 246 L761 248 Z M756 246 L757 245 L758 246 L757 247 Z M592 246 L593 245 L594 246 L593 247 Z M416 246 L418 245 L426 251 L434 255 L432 256 L433 258 L447 265 L461 269 L466 269 L472 271 L479 271 L480 272 L488 272 L489 273 L512 273 L513 272 L535 270 L554 265 L558 265 L578 258 L581 256 L583 257 L571 264 L552 270 L549 272 L538 275 L532 274 L534 275 L527 277 L525 276 L526 275 L524 275 L523 278 L507 279 L500 281 L480 281 L479 282 L469 282 L468 283 L455 283 L454 282 L447 282 L433 277 L434 279 L433 280 L435 279 L441 282 L440 283 L434 283 L431 281 L431 279 L428 275 L421 273 L420 270 L421 269 L432 275 L434 273 L436 273 L443 276 L462 278 L463 279 L469 279 L470 278 L471 279 L472 278 L477 279 L478 277 L501 276 L501 275 L470 275 L467 273 L462 273 L444 268 L431 261 L428 258 L429 256 L427 255 L426 257 L423 253 L416 248 L417 247 Z M385 246 L386 245 L387 247 L386 248 Z M777 245 L778 244 L779 245 L778 246 Z M757 245 L758 244 L759 245 L758 246 Z M623 245 L625 244 L643 254 L646 257 L669 272 L667 273 L649 264 L636 256 Z M599 245 L600 244 L601 245 L600 246 Z M593 245 L594 244 L596 245 L595 246 Z M398 245 L399 244 L400 246 L399 247 Z M364 245 L365 244 L366 245 L365 246 Z M600 244 L601 243 L602 244 L601 245 Z M595 244 L596 243 L597 244 L596 245 Z M403 243 L410 248 L407 249 L402 256 L401 255 L402 257 L394 270 L392 268 L398 259 L401 246 Z M386 244 L387 243 L388 245 L387 246 Z M365 244 L366 243 L367 244 L366 245 Z M646 243 L647 242 L648 243 L647 244 Z M620 243 L622 242 L624 244 L622 245 Z M604 248 L609 242 L614 248 L613 249 L614 250 L612 251 L609 248 L608 249 L614 256 L624 262 L630 264 L642 271 L669 284 L689 292 L719 302 L727 303 L728 304 L735 304 L736 303 L738 304 L736 306 L729 309 L721 308 L711 304 L704 303 L676 291 L671 290 L630 270 L628 268 L614 261 L611 258 L604 255 L606 250 Z M596 243 L597 242 L598 243 L597 244 Z M889 242 L890 241 L891 242 L890 243 Z M644 242 L645 241 L646 242 L645 243 Z M618 242 L619 241 L621 242 L620 243 Z M612 242 L614 241 L623 249 L622 250 L619 249 Z M601 242 L602 241 L603 242 L602 243 Z M597 242 L598 241 L599 242 L598 243 Z M401 242 L402 241 L403 242 L402 243 Z M384 241 L385 243 L382 248 L381 253 L376 261 L377 263 L367 276 L359 284 L340 294 L339 293 L364 268 L374 256 L376 257 L377 255 L376 256 L375 254 Z M650 241 L651 240 L654 241 L664 248 L681 257 L683 257 L691 262 L690 263 L685 262 L667 253 Z M617 241 L618 240 L619 241 L618 242 Z M611 241 L612 240 L613 241 L612 242 Z M598 241 L599 240 L600 241 L599 242 Z M405 241 L406 240 L407 241 L406 242 Z M642 240 L643 239 L644 240 L643 241 Z M610 240 L611 239 L612 240 L611 241 Z M599 240 L600 239 L601 240 L600 241 Z M384 240 L385 239 L386 241 L385 242 Z M368 240 L369 239 L370 240 L369 241 Z M640 239 L641 238 L642 239 L641 240 Z M600 239 L601 238 L602 239 L601 240 Z M403 239 L404 238 L406 240 L404 241 Z M374 238 L375 239 L369 249 L361 256 L360 255 L361 252 L368 245 L369 242 Z M369 239 L370 238 L371 239 L370 240 Z M111 238 L122 247 L136 256 L139 256 L134 252 L135 251 L139 252 L151 252 L152 251 L153 252 L150 259 L150 266 L159 291 L165 300 L188 325 L192 327 L188 331 L183 328 L167 314 L130 276 L115 253 L115 251 L110 241 Z M646 238 L648 237 L651 240 L649 241 Z M639 238 L640 237 L641 238 L640 239 Z M601 238 L602 237 L603 238 L602 239 Z M402 238 L403 237 L404 238 L403 239 Z M378 238 L379 237 L380 239 L379 240 Z M374 238 L375 237 L376 238 L375 239 Z M211 238 L212 237 L214 238 L213 239 Z M109 238 L110 237 L111 238 L110 239 Z M401 237 L402 236 L403 237 L402 238 Z M636 236 L637 235 L638 236 L637 237 Z M598 238 L591 244 L576 252 L567 255 L564 254 L566 252 L582 244 L593 235 L595 235 Z M400 238 L399 241 L397 243 L396 242 L397 244 L382 269 L371 284 L361 293 L361 295 L363 295 L373 285 L398 247 L399 250 L396 258 L389 267 L389 269 L391 270 L384 278 L381 283 L381 285 L387 279 L392 271 L393 273 L397 270 L402 259 L404 257 L405 258 L404 263 L406 263 L407 265 L403 271 L383 290 L380 289 L378 292 L379 293 L368 305 L341 324 L322 334 L309 338 L305 338 L296 341 L289 341 L288 342 L280 342 L279 339 L278 340 L275 338 L289 333 L298 333 L311 330 L331 322 L355 309 L359 306 L358 304 L373 295 L375 292 L373 292 L368 296 L364 297 L348 306 L343 308 L339 307 L359 292 L369 281 L369 277 L391 249 L394 243 L395 236 L397 235 Z M642 235 L644 234 L647 237 L645 238 Z M610 238 L615 234 L621 235 L623 237 L630 240 L639 248 L637 249 L617 238 L618 240 L617 241 Z M400 235 L401 234 L402 235 L401 236 Z M384 233 L385 235 L380 244 L369 258 L358 269 L349 275 L348 273 L351 269 L370 250 L378 239 L379 240 L380 239 L379 237 Z M399 233 L400 232 L401 234 L400 235 Z M831 232 L832 231 L833 232 L832 233 Z M611 232 L612 231 L613 232 L612 233 Z M375 232 L376 231 L377 233 L376 234 Z M374 231 L376 234 L371 239 L370 237 Z M672 231 L673 230 L674 231 L673 232 Z M666 231 L667 230 L668 231 L667 232 Z M621 232 L624 230 L627 231 L644 242 L649 249 L650 248 L647 245 L648 243 L668 256 L684 264 L697 269 L698 271 L721 282 L723 284 L728 284 L735 282 L738 279 L739 276 L747 278 L759 278 L769 270 L771 272 L766 277 L758 281 L747 284 L737 285 L738 288 L749 293 L748 296 L746 296 L745 294 L734 295 L729 293 L725 293 L721 291 L701 286 L676 274 L673 271 L665 267 L646 253 L637 243 L627 236 L622 234 Z M664 230 L665 229 L667 230 L666 231 Z M656 230 L658 229 L665 233 L667 233 L669 235 L672 235 L676 238 L677 241 L684 245 L702 253 L712 256 L724 263 L727 263 L731 265 L727 266 L724 269 L717 267 L715 265 L713 265 L708 262 L709 261 L714 262 L712 259 L703 257 L698 254 L689 251 L675 243 L673 243 Z M379 233 L380 229 L384 229 L385 230 L380 234 Z M371 229 L372 231 L366 240 L365 239 L365 234 Z M829 229 L830 228 L832 231 L831 232 Z M376 228 L377 230 L375 232 L374 230 Z M371 229 L372 228 L373 229 L372 230 Z M828 228 L829 227 L830 228 L829 229 Z M652 228 L655 227 L657 229 L655 230 Z M611 227 L612 229 L603 238 L602 236 Z M606 227 L607 228 L599 237 L597 231 L600 228 Z M403 227 L413 241 L412 242 L413 241 L415 243 L414 244 L415 243 L417 245 L415 247 L410 243 L409 240 L403 233 L402 230 Z M650 227 L651 226 L653 227 L652 228 Z M611 227 L612 226 L613 227 L612 228 Z M606 227 L607 226 L608 227 L607 228 Z M439 227 L440 226 L442 227 L441 228 Z M392 226 L394 228 L394 235 L392 238 L392 243 L387 250 L386 249 L388 245 L387 241 L389 239 L389 237 L386 236 Z M827 226 L828 225 L829 227 L828 228 Z M649 226 L650 225 L651 226 L650 227 Z M612 226 L613 225 L614 226 L613 227 Z M607 226 L608 225 L609 226 L608 227 Z M437 226 L438 225 L440 226 L439 227 Z M627 225 L628 224 L632 226 L634 225 L643 234 L641 235 L629 228 Z M608 225 L609 224 L610 225 L609 226 Z M596 225 L598 224 L599 227 L598 228 Z M436 225 L437 224 L438 225 L437 226 Z M826 224 L827 223 L828 225 L827 226 Z M631 224 L632 223 L633 224 L632 225 Z M604 224 L605 223 L606 224 L605 225 Z M630 223 L631 222 L632 223 L631 224 Z M605 223 L606 222 L607 223 L606 224 Z M598 224 L600 222 L602 223 L600 225 Z M629 222 L630 221 L631 222 L630 223 Z M601 222 L602 221 L603 222 L602 223 Z M396 221 L400 230 L399 233 L396 229 L395 225 Z M841 221 L842 220 L843 221 L842 222 Z M246 221 L247 220 L248 221 L247 222 Z M840 220 L841 219 L842 220 L841 221 Z M602 221 L604 219 L606 220 L604 222 Z M597 220 L598 219 L599 220 L598 221 Z M474 220 L475 219 L477 220 L476 221 Z M247 220 L248 219 L249 220 L248 221 Z M839 219 L840 218 L841 219 L840 220 Z M598 219 L599 218 L600 219 L599 220 Z M386 219 L387 218 L388 219 L387 220 Z M248 219 L249 218 L250 219 L249 220 Z M838 218 L839 217 L840 218 L839 219 Z M599 218 L600 217 L601 218 L600 219 Z M837 217 L838 216 L839 217 L838 218 Z M632 218 L634 216 L646 227 L656 232 L674 246 L687 253 L689 253 L694 258 L723 272 L722 273 L718 273 L718 274 L726 276 L736 276 L737 277 L733 281 L723 281 L719 278 L717 278 L695 266 L694 265 L696 264 L690 259 L673 251 L648 235 L632 220 Z M600 217 L601 216 L602 217 L601 218 Z M394 216 L396 221 L393 222 L385 230 L384 229 L387 226 L392 217 Z M265 217 L266 216 L267 217 L266 218 Z M835 216 L836 215 L838 216 L837 217 Z M388 215 L389 216 L388 219 L387 218 Z M359 220 L362 227 L362 242 L360 248 L356 255 L356 257 L349 268 L330 288 L308 303 L292 310 L278 311 L274 310 L264 304 L259 295 L258 287 L257 286 L258 285 L259 276 L263 271 L268 273 L276 273 L282 271 L294 264 L302 256 L309 245 L335 220 L346 215 L353 215 Z M838 215 L839 214 L840 215 L839 216 Z M834 215 L835 214 L836 215 L835 216 Z M636 215 L637 214 L641 215 L649 220 L662 225 L665 229 L664 230 L661 229 L655 225 L643 221 Z M601 215 L602 214 L603 215 L602 216 Z M457 215 L458 214 L459 215 L458 216 Z M833 214 L834 213 L835 214 L834 215 Z M642 214 L643 213 L644 214 L643 215 Z M602 214 L603 213 L604 214 L603 215 Z M454 214 L455 213 L457 214 L456 215 Z M641 213 L642 212 L643 213 L642 214 Z M603 213 L604 212 L605 213 L604 214 Z M453 213 L454 212 L455 213 L454 214 Z M831 212 L833 211 L834 213 L833 214 Z M390 211 L391 214 L389 216 L388 214 Z M448 212 L451 210 L454 212 L453 213 L449 213 Z M834 210 L835 209 L837 210 L836 211 Z M829 210 L830 209 L832 211 L830 212 Z M642 210 L643 209 L647 209 L653 212 L659 220 L657 221 L650 218 L646 215 L645 213 L646 211 Z M636 211 L640 209 L642 212 L639 213 Z M449 210 L450 209 L451 210 L450 211 Z M392 212 L394 209 L406 225 L417 236 L426 242 L428 242 L430 244 L443 250 L451 256 L465 261 L469 261 L475 263 L483 263 L484 264 L507 265 L508 264 L525 264 L526 263 L550 261 L562 257 L571 256 L575 254 L578 255 L575 257 L549 265 L539 266 L527 269 L509 270 L508 271 L491 271 L490 270 L480 270 L479 269 L462 267 L448 263 L438 258 L440 257 L439 255 L419 244 L411 236 L404 226 L402 228 L395 214 Z M601 211 L599 215 L594 220 L591 220 L574 229 L549 238 L544 238 L531 241 L521 241 L520 242 L512 242 L511 243 L476 241 L475 240 L466 239 L456 235 L453 235 L441 228 L444 227 L450 230 L453 230 L465 234 L469 234 L483 239 L482 237 L467 231 L471 230 L472 231 L491 232 L492 233 L506 234 L507 235 L539 233 L548 230 L552 230 L556 228 L564 227 L567 225 L572 224 L586 216 L589 216 L590 213 L598 208 Z M418 209 L419 208 L420 209 L419 210 Z M838 208 L839 207 L842 208 L841 209 Z M827 208 L828 207 L829 209 L828 210 Z M833 207 L834 206 L838 207 L837 208 Z M599 207 L600 206 L601 208 L600 209 Z M830 206 L831 205 L833 206 L832 207 Z M273 204 L274 207 L271 210 L270 209 L270 205 Z M602 204 L603 203 L605 204 L604 205 Z M586 204 L587 203 L588 204 L587 205 Z M922 202 L943 214 L961 231 L968 246 L968 251 L969 252 L968 267 L964 278 L960 285 L940 305 L923 316 L912 322 L910 322 L903 327 L890 333 L883 334 L882 333 L883 328 L886 322 L891 317 L906 310 L917 302 L920 297 L922 288 L931 279 L936 272 L945 253 L946 249 L945 237 L941 230 L933 224 L934 223 L932 224 L930 222 L923 220 L911 214 L903 212 L901 210 L911 207 L916 204 L920 204 Z M604 201 L605 200 L606 201 L605 202 Z M399 201 L400 200 L401 202 L400 203 Z M640 197 L641 199 L638 202 L635 211 L631 216 L624 221 L623 223 L624 227 L613 232 L612 231 L619 224 L634 203 Z M609 198 L610 197 L611 198 L610 199 Z M392 198 L393 197 L417 223 L438 238 L456 245 L463 246 L466 248 L470 248 L486 252 L493 252 L494 253 L519 253 L520 252 L527 252 L528 251 L543 249 L567 241 L594 228 L597 229 L590 236 L578 244 L567 249 L563 253 L551 258 L534 260 L533 261 L521 261 L520 262 L487 262 L486 261 L479 261 L478 260 L467 259 L463 257 L456 256 L422 237 L403 218 L394 206 L394 204 L392 202 Z M640 197 L641 196 L642 197 L641 198 Z M439 197 L440 196 L441 197 L440 198 Z M270 196 L271 197 L269 200 L269 205 L267 213 L263 216 L250 219 L249 218 L262 205 L264 201 Z M256 197 L257 196 L258 197 L257 198 Z M615 195 L618 199 L618 202 L616 206 L616 209 L609 216 L605 207 L608 201 L609 203 L611 203 L611 200 Z M604 197 L602 201 L596 207 L587 212 L581 217 L560 226 L556 226 L546 229 L541 229 L534 231 L525 231 L524 232 L491 231 L490 230 L491 229 L500 229 L500 228 L484 226 L476 221 L477 220 L482 220 L483 221 L494 222 L495 223 L494 225 L496 224 L500 224 L501 225 L517 225 L529 222 L550 220 L568 215 L582 207 L586 208 L595 202 L602 195 Z M598 196 L591 203 L589 204 L587 203 L593 196 L595 195 Z M438 196 L439 195 L440 196 L439 197 Z M265 196 L266 195 L267 196 L266 197 Z M253 196 L254 195 L256 196 L255 197 Z M215 196 L216 195 L217 196 L216 197 Z M597 195 L598 194 L599 195 L598 196 Z M257 195 L258 194 L262 195 L259 197 Z M400 194 L401 193 L403 194 L412 208 L416 212 L417 212 L415 209 L416 207 L419 210 L420 209 L421 210 L419 213 L421 211 L440 230 L451 236 L477 243 L487 243 L488 244 L526 244 L527 243 L541 242 L563 236 L566 234 L576 231 L596 220 L598 221 L591 227 L573 236 L571 236 L559 242 L550 244 L547 246 L533 248 L527 250 L518 250 L517 251 L489 250 L488 249 L475 248 L459 244 L435 234 L426 228 L419 221 L420 220 L418 221 L406 209 L403 204 Z M284 194 L285 193 L286 195 L285 196 Z M631 192 L632 193 L620 209 L616 217 L610 225 L609 224 L610 219 L617 211 L620 204 L620 198 L619 197 L624 193 Z M419 193 L420 192 L439 210 L447 214 L464 220 L470 221 L475 224 L489 229 L488 230 L479 230 L478 229 L468 228 L457 224 L451 220 L442 218 L436 214 L423 200 Z M621 192 L622 191 L623 192 L622 193 Z M418 192 L419 191 L420 192 L419 193 Z M399 191 L400 190 L401 191 L400 192 Z M404 190 L405 189 L406 190 L405 191 Z M174 196 L177 188 L184 194 L182 196 L178 196 L177 197 Z M644 187 L645 189 L634 200 L619 221 L614 226 L613 224 L635 192 L635 190 L640 187 Z M603 188 L600 192 L596 194 L593 193 L594 191 L598 190 L601 187 Z M435 188 L436 187 L437 188 L436 189 Z M403 188 L404 187 L405 188 L404 189 Z M257 187 L260 192 L259 193 L250 195 L232 203 L231 202 L231 203 L233 203 L251 196 L256 198 L236 211 L234 210 L235 211 L223 220 L225 218 L231 216 L241 208 L246 206 L253 201 L265 196 L266 197 L260 205 L240 224 L239 223 L240 224 L233 229 L223 233 L215 238 L213 237 L214 236 L211 237 L208 241 L206 241 L202 244 L200 244 L186 251 L186 252 L192 250 L199 246 L213 241 L236 229 L244 223 L248 223 L250 221 L262 217 L266 218 L256 227 L253 231 L251 237 L251 254 L253 258 L253 261 L255 263 L255 270 L253 275 L255 275 L256 273 L257 274 L255 281 L247 288 L243 296 L238 299 L239 300 L235 307 L231 311 L223 315 L213 322 L205 324 L198 324 L187 317 L183 316 L165 296 L160 287 L160 285 L158 283 L152 265 L153 257 L160 244 L178 226 L188 219 L201 212 L187 218 L174 226 L161 240 L154 250 L141 250 L128 247 L125 245 L126 244 L124 245 L113 236 L114 234 L120 232 L139 213 L145 209 L159 203 L162 203 L181 197 L189 198 L197 195 L214 195 L216 197 L209 200 L198 208 L189 212 L187 214 L182 214 L182 216 L178 218 L199 209 L210 201 L212 201 L219 197 L225 196 L231 193 L247 188 Z M644 187 L645 186 L646 187 L645 188 Z M610 187 L611 186 L612 187 L611 188 Z M607 186 L608 189 L606 193 L604 194 L605 195 L603 196 L602 193 Z M602 187 L603 186 L604 187 L603 188 Z M434 187 L435 186 L436 187 L435 188 Z M285 186 L286 187 L283 193 L275 204 L272 201 L272 197 L274 193 L279 187 Z M650 185 L654 185 L655 186 L650 197 L648 199 L649 200 L648 201 L646 200 L645 202 L650 203 L652 205 L653 208 L652 210 L649 208 L641 207 L640 206 Z M607 186 L608 185 L609 186 L608 187 Z M603 186 L604 185 L605 186 L604 187 Z M433 186 L434 185 L435 186 L434 187 Z M285 186 L286 185 L287 186 L286 187 Z M621 184 L622 186 L619 192 L618 191 L619 192 L618 193 L614 193 L611 197 L610 195 L614 188 Z M608 184 L609 183 L610 184 L609 185 Z M425 184 L426 183 L429 185 L432 189 L436 190 L438 188 L440 190 L439 195 L438 196 L431 191 Z M654 183 L655 182 L656 183 L655 184 Z M622 183 L623 182 L624 183 L623 184 Z M424 183 L425 182 L426 183 L425 184 Z M623 182 L624 181 L625 182 L624 183 Z M616 183 L617 181 L620 182 L618 184 Z M429 182 L430 181 L431 182 L430 183 Z M391 181 L394 184 L397 190 L400 199 L399 201 L390 191 L390 182 Z M642 184 L630 191 L626 191 L625 192 L622 191 L623 187 L625 185 L629 184 L633 180 Z M619 181 L620 180 L621 181 L620 182 Z M428 181 L429 180 L430 181 L429 182 Z M411 180 L419 190 L418 192 L410 182 Z M620 180 L621 179 L622 180 L621 181 Z M391 180 L392 179 L393 180 L392 181 Z M654 180 L656 178 L658 179 L657 181 Z M637 179 L641 178 L650 182 L645 185 L643 182 Z M625 180 L627 178 L631 178 L632 179 L627 183 Z M409 179 L410 178 L411 180 L410 181 Z M657 178 L658 177 L659 178 L658 179 Z M635 178 L636 177 L638 178 L637 179 Z M615 177 L616 179 L612 186 L611 183 Z M408 178 L409 177 L410 178 L409 179 Z M176 178 L177 177 L189 187 L199 193 L192 195 L185 194 L176 186 Z M620 176 L621 178 L618 181 L617 179 Z M226 178 L242 182 L245 181 L231 179 L228 177 Z M615 176 L616 175 L617 176 L616 177 Z M590 177 L592 175 L603 175 L604 176 L597 181 L592 181 Z M407 176 L408 175 L409 176 L408 177 Z M603 175 L604 174 L605 175 L604 176 Z M423 175 L425 174 L430 178 L440 182 L441 186 L440 187 L434 184 L432 185 L430 183 L431 182 L429 180 L427 180 Z M662 174 L663 173 L664 174 L663 175 Z M620 174 L621 173 L622 175 L621 176 Z M418 173 L421 175 L422 178 L425 181 L424 183 L417 175 Z M396 173 L398 174 L398 177 L403 186 L401 190 L398 189 L394 179 L392 178 L393 175 Z M617 173 L618 172 L619 173 L618 174 Z M422 173 L423 172 L424 174 L423 175 Z M621 172 L622 171 L623 173 L622 174 Z M416 172 L417 171 L418 173 L417 174 Z M399 173 L403 171 L405 172 L405 176 L413 190 L418 195 L426 207 L435 216 L442 220 L452 223 L461 228 L464 228 L468 230 L467 231 L457 230 L439 223 L430 217 L423 210 L421 206 L412 196 L409 196 L419 207 L418 209 L416 207 L415 208 L405 193 L405 191 L406 190 L408 192 L408 190 L402 181 Z M622 171 L623 170 L624 171 L623 172 Z M415 171 L416 170 L417 171 L416 172 Z M404 171 L405 170 L406 171 L405 172 Z M657 186 L663 178 L670 172 L677 169 L681 169 L686 171 L704 187 L706 187 L717 195 L730 201 L732 204 L746 209 L754 215 L760 226 L760 232 L757 240 L747 250 L735 254 L714 253 L700 249 L693 245 L691 245 L673 232 L674 231 L673 230 L672 231 L662 221 L658 215 L654 201 L654 197 L655 196 L654 195 Z M623 177 L625 174 L626 175 L625 174 L627 172 L634 169 L640 169 L650 173 L656 173 L660 175 L653 179 L647 179 L640 176 L628 176 L624 178 Z M433 170 L434 169 L435 170 L434 171 Z M301 169 L302 168 L303 170 L302 171 Z M625 168 L626 167 L627 168 L626 169 Z M584 170 L585 168 L589 168 L590 167 L591 168 L593 167 L598 167 L599 168 L591 173 L588 173 Z M799 168 L804 166 L811 166 L818 168 L824 172 L832 181 L834 188 L834 193 L832 199 L826 206 L821 208 L816 203 L808 203 L804 205 L795 196 L795 194 L792 189 L792 179 L794 173 Z M774 167 L775 166 L776 167 L775 168 Z M440 167 L440 168 L444 168 L445 169 L445 167 Z M417 167 L419 166 L426 170 L432 171 L440 176 L443 176 L444 178 L442 181 L440 181 L436 178 L430 177 L424 172 L422 173 Z M407 169 L410 168 L413 165 L416 166 L415 167 L416 170 L415 171 L414 170 L415 174 L414 176 L415 175 L420 182 L434 196 L442 201 L449 210 L448 212 L442 210 L419 188 L408 172 L406 171 Z M596 165 L597 164 L599 165 L598 166 Z M636 167 L639 165 L649 163 L652 165 L660 167 L661 169 L659 173 L658 172 L652 172 L643 168 L637 168 Z M780 163 L781 164 L780 165 L785 173 L787 173 Z M639 163 L640 162 L641 163 L640 164 Z M638 163 L634 168 L632 168 L630 170 L628 169 L637 162 Z M612 163 L613 162 L614 163 L613 164 Z M420 165 L426 162 L434 169 L433 170 L428 169 Z M663 162 L662 165 L658 165 L652 163 L653 162 L661 162 L662 161 Z M614 162 L615 161 L616 162 L615 163 Z M616 161 L617 160 L618 161 L617 162 Z M617 160 L618 159 L619 160 L618 161 Z M571 160 L572 159 L580 159 L581 160 L601 159 L602 160 L597 163 L582 167 L578 163 L576 163 Z M658 159 L659 158 L664 158 L665 159 L663 162 L662 160 Z M641 162 L645 158 L654 159 L655 160 L643 163 Z M635 158 L636 161 L627 168 L626 166 L633 158 Z M650 157 L651 156 L654 157 L653 158 Z M635 158 L637 156 L641 156 L642 157 L639 161 L637 161 Z M428 161 L432 160 L437 163 L435 160 L431 158 L434 156 L438 159 L453 164 L455 166 L449 171 L447 169 L448 172 L446 174 L440 174 L436 171 L436 169 Z M292 157 L296 161 L298 165 L297 176 L293 180 L289 181 L284 185 L281 185 L272 194 L267 194 L263 192 L259 185 L259 179 L261 173 L266 165 L272 160 L278 157 L282 156 Z M622 156 L623 155 L624 156 L623 157 Z M308 156 L309 155 L310 156 L309 157 Z M267 156 L268 155 L269 157 L268 158 Z M623 157 L621 159 L617 158 L605 165 L599 165 L598 164 L608 160 L614 154 Z M611 155 L608 158 L606 157 L607 156 L605 157 L607 158 L604 160 L602 160 L600 158 L583 158 L582 157 L583 156 L595 156 L596 155 L605 155 L606 154 L610 154 Z M655 155 L658 153 L665 153 L666 154 L665 157 L664 156 L656 156 Z M610 154 L611 153 L612 154 L611 155 Z M589 154 L590 153 L591 154 L590 155 Z M266 154 L267 153 L268 154 L267 155 Z M666 153 L667 152 L668 153 L667 154 Z M309 153 L310 152 L311 153 L310 154 Z M297 152 L298 153 L297 156 L296 155 Z M589 153 L580 157 L568 157 L567 158 L559 154 L560 153 L578 153 L577 152 L578 151 L583 151 Z M435 154 L438 151 L440 151 L454 157 L464 158 L465 159 L458 164 L441 158 Z M265 152 L266 151 L267 152 L266 153 Z M660 151 L661 150 L663 151 L662 152 Z M572 151 L573 150 L577 150 L578 151 L577 152 L573 152 Z M443 186 L445 181 L447 179 L448 180 L447 179 L448 177 L455 170 L456 171 L455 170 L458 167 L471 159 L497 151 L512 150 L513 149 L523 149 L524 150 L531 150 L532 151 L537 151 L538 152 L543 152 L551 154 L571 163 L577 167 L587 177 L590 185 L590 193 L589 197 L582 204 L573 209 L556 215 L544 218 L536 218 L535 219 L493 220 L492 219 L478 218 L466 215 L453 209 L447 203 L443 196 Z M264 150 L265 149 L266 150 L265 151 Z M440 149 L441 148 L448 148 L453 150 L457 150 L468 153 L475 153 L476 154 L468 158 L467 157 L454 155 L445 152 Z M810 148 L811 147 L812 149 L811 150 Z M670 148 L668 151 L664 152 L662 150 L668 147 Z M158 146 L166 151 L164 156 L157 148 Z M156 146 L157 145 L158 146 L157 147 Z M665 145 L666 144 L670 144 L671 145 L670 146 L666 146 Z M523 145 L526 144 L534 146 L542 146 L543 147 L557 148 L558 149 L571 149 L572 150 L565 152 L553 152 L544 149 L525 147 Z M262 145 L263 144 L264 145 L263 146 Z M155 145 L156 144 L157 145 L156 146 Z M522 144 L523 143 L524 144 L523 145 Z M469 144 L470 143 L472 144 L471 145 Z M811 143 L812 142 L813 144 L812 145 Z M670 143 L671 142 L672 144 L671 145 Z M519 143 L520 142 L522 143 L521 144 Z M465 143 L466 142 L469 143 L468 144 Z M444 145 L449 142 L450 143 L457 143 L472 147 L484 147 L491 149 L484 152 L474 152 L473 151 L462 150 L457 148 L447 147 Z M261 143 L262 142 L263 143 L262 144 Z M671 142 L672 140 L674 141 L672 143 Z M455 141 L456 140 L460 140 L466 142 L465 143 L460 143 Z M363 140 L368 147 L382 177 L385 187 L388 192 L389 201 L391 206 L391 210 L386 213 L385 218 L387 220 L387 222 L383 226 L381 226 L376 223 L366 229 L362 219 L358 215 L354 213 L350 213 L349 212 L344 213 L337 216 L330 221 L326 217 L324 213 L319 209 L318 206 L313 200 L296 192 L297 189 L303 185 L316 184 L329 178 L345 175 L352 172 L358 165 L360 158 L361 148 L362 147 L362 141 Z M148 140 L152 143 L153 146 L166 161 L168 167 L174 175 L174 180 L173 181 L174 185 L173 186 L173 193 L172 194 L167 186 L152 155 L147 142 Z M667 141 L668 139 L670 140 L668 142 Z M260 140 L261 139 L262 141 L261 142 Z M813 138 L814 139 L813 142 L812 141 Z M449 140 L451 138 L452 139 L451 141 Z M321 137 L322 139 L311 153 L310 152 L311 149 Z M259 138 L260 137 L261 139 L260 140 Z M813 137 L814 136 L815 138 L814 139 Z M569 137 L570 136 L571 138 L570 139 Z M321 137 L322 136 L323 137 L322 138 Z M453 137 L457 135 L462 135 L465 137 L477 138 L489 141 L511 143 L522 146 L521 147 L491 147 L485 145 L479 145 L467 140 L459 138 L454 138 Z M322 136 L323 135 L324 136 L323 137 Z M258 136 L259 135 L260 137 L259 138 Z M476 136 L483 134 L494 134 L495 135 L509 137 L520 142 L516 143 L509 141 L481 138 Z M323 135 L324 134 L325 135 L324 136 Z M324 134 L325 133 L326 134 L325 135 Z M257 134 L258 133 L259 135 L258 136 Z M447 136 L447 132 L448 131 L456 134 L449 138 Z M328 127 L329 126 L330 127 L329 128 Z M669 115 L674 127 L676 135 L675 139 L674 138 L671 139 L668 135 L669 131 L668 116 Z M244 113 L246 119 L245 122 L238 117 Z M167 152 L169 150 L170 146 L175 140 L180 130 L191 117 L197 114 L201 114 L202 113 L219 113 L236 118 L251 129 L250 131 L251 130 L256 136 L265 154 L265 156 L268 160 L259 171 L246 157 L244 158 L240 154 L224 143 L243 158 L259 173 L256 178 L221 159 L241 172 L257 180 L257 184 L241 188 L237 190 L234 190 L224 194 L219 194 L218 193 L207 193 L203 191 L200 191 L191 186 L189 184 L190 183 L189 184 L185 180 L179 177 L171 168 L167 158 Z M883 108 L895 108 L900 110 L911 117 L919 125 L930 144 L934 160 L933 178 L931 182 L931 185 L925 196 L920 201 L918 201 L911 205 L896 209 L888 206 L887 207 L881 207 L868 204 L861 204 L857 202 L850 201 L847 199 L836 198 L835 197 L836 191 L839 189 L875 178 L866 179 L863 181 L860 181 L838 189 L836 188 L836 184 L852 172 L866 165 L869 165 L878 161 L864 165 L845 175 L836 182 L834 181 L830 174 L837 167 L838 164 L835 165 L829 174 L823 169 L832 151 L835 147 L836 148 L835 146 L845 134 L846 135 L845 134 L856 123 L860 121 L864 117 L876 110 Z M251 106 L255 117 L255 122 L258 131 L257 134 L248 123 L246 112 Z M713 102 L714 101 L715 102 L714 103 Z M397 96 L398 98 L397 99 L396 98 L397 99 L387 112 L374 125 L373 124 L363 134 L358 134 L357 133 L348 134 L338 138 L333 142 L334 143 L339 139 L350 135 L357 135 L361 137 L359 139 L359 146 L360 147 L357 154 L357 160 L354 167 L351 170 L344 173 L328 176 L314 183 L303 183 L297 186 L294 191 L295 195 L312 202 L318 212 L327 223 L312 238 L302 252 L288 265 L277 270 L266 270 L261 267 L255 259 L253 254 L253 239 L255 232 L269 218 L271 213 L277 208 L277 206 L284 196 L285 197 L287 194 L285 193 L286 190 L291 183 L294 182 L303 172 L308 170 L320 161 L337 151 L334 151 L318 161 L317 160 L321 153 L330 144 L319 155 L318 158 L315 160 L315 161 L316 160 L318 161 L310 167 L308 166 L304 169 L302 168 L303 165 L307 162 L312 154 L319 146 L323 138 L327 134 L325 133 L346 119 L352 113 L356 112 L371 98 L376 96 L382 96 L383 97 Z M733 92 L734 96 L732 97 L731 96 Z M733 92 L734 91 L735 92 L734 93 Z M460 90 L461 89 L462 90 L461 91 Z M425 90 L426 89 L427 90 L426 91 Z M457 89 L458 88 L460 89 L459 90 Z M571 85 L572 84 L573 85 L572 86 Z M473 125 L476 124 L475 113 L479 102 L487 94 L491 94 L502 90 L508 90 L507 89 L511 87 L518 87 L519 86 L525 86 L532 84 L548 86 L552 89 L565 90 L570 92 L576 98 L577 100 L577 114 L575 118 L575 121 L569 133 L569 137 L566 144 L567 145 L570 144 L574 136 L573 135 L571 137 L570 135 L571 131 L577 121 L579 107 L580 106 L583 109 L586 110 L594 110 L628 100 L649 99 L659 103 L667 111 L666 113 L667 112 L669 114 L668 116 L666 115 L667 131 L666 132 L663 127 L661 126 L666 133 L666 139 L662 146 L655 153 L651 155 L644 156 L640 154 L637 154 L633 158 L631 158 L623 168 L622 167 L618 168 L603 184 L595 188 L593 187 L594 183 L599 182 L613 171 L609 171 L605 173 L598 173 L597 174 L595 174 L594 173 L602 168 L618 163 L632 152 L630 151 L626 153 L615 153 L614 152 L596 153 L578 148 L571 148 L570 147 L563 147 L562 146 L551 146 L550 145 L529 143 L519 140 L512 136 L508 136 L496 132 L483 132 L475 134 L474 133 L475 132 L473 128 Z M428 84 L434 87 L450 88 L460 92 L462 92 L464 90 L480 98 L475 104 L473 110 L474 121 L471 122 L471 128 L473 132 L472 135 L466 135 L463 133 L449 130 L446 128 L435 103 L426 91 L428 90 L427 86 Z M335 84 L345 106 L347 115 L330 127 L329 124 L332 117 L332 113 L334 108 L334 87 L333 86 Z M572 84 L573 83 L574 84 L573 85 Z M424 82 L426 87 L425 90 L422 86 L422 84 Z M333 83 L334 82 L335 84 L334 85 Z M737 82 L728 97 L717 102 L714 101 L735 81 Z M736 81 L737 80 L738 81 L737 82 Z M561 81 L560 85 L563 85 L562 81 Z M737 80 L738 79 L739 80 L738 81 Z M410 79 L425 93 L432 103 L439 118 L443 124 L446 140 L424 161 L420 163 L411 163 L407 167 L403 169 L399 169 L393 172 L388 180 L388 184 L387 185 L381 170 L377 164 L374 155 L368 145 L369 143 L368 144 L365 139 L362 137 L371 129 L373 129 L380 122 L381 123 L380 122 L383 119 L384 120 L383 119 L400 100 L405 89 L408 85 L408 81 Z M425 79 L426 78 L434 78 L437 81 L438 84 L437 85 L431 84 Z M408 79 L409 78 L410 79 L409 80 Z M436 77 L437 76 L438 77 L437 78 Z M746 72 L754 75 L763 75 L770 80 L777 90 L778 103 L780 109 L781 125 L784 134 L786 150 L788 154 L789 163 L792 173 L790 179 L790 187 L789 188 L785 180 L778 172 L778 168 L774 161 L774 159 L772 157 L765 138 L763 129 L762 129 L767 148 L775 166 L774 167 L763 156 L763 158 L786 185 L785 188 L786 186 L789 191 L789 193 L802 207 L800 209 L799 208 L800 209 L798 211 L792 200 L789 198 L796 211 L790 219 L788 224 L799 215 L800 212 L805 206 L816 205 L819 208 L822 215 L826 220 L825 222 L826 221 L827 222 L825 224 L826 228 L832 235 L836 236 L840 241 L849 248 L861 260 L874 266 L891 266 L894 265 L896 262 L888 265 L887 264 L875 264 L870 261 L865 260 L844 242 L841 238 L842 237 L841 238 L834 231 L822 210 L825 209 L839 221 L842 222 L863 237 L862 235 L848 225 L839 216 L841 215 L878 232 L883 232 L838 213 L836 211 L840 210 L860 219 L869 221 L867 221 L866 219 L863 219 L841 209 L842 208 L846 209 L846 208 L842 206 L832 205 L831 204 L835 199 L852 202 L855 204 L872 209 L885 209 L887 207 L895 211 L924 221 L935 227 L941 233 L943 237 L943 244 L944 245 L943 252 L933 272 L918 290 L916 299 L907 307 L896 313 L892 314 L886 318 L879 331 L873 317 L863 307 L878 299 L886 293 L898 277 L898 275 L901 270 L901 259 L897 251 L890 243 L893 242 L901 246 L908 247 L886 238 L883 238 L891 246 L899 261 L898 271 L889 286 L879 295 L877 294 L878 295 L876 297 L863 305 L853 304 L835 297 L820 289 L796 283 L784 271 L777 256 L777 252 L789 226 L787 226 L785 229 L780 242 L771 248 L766 244 L759 241 L762 236 L763 228 L760 218 L754 211 L743 205 L733 202 L729 197 L723 195 L705 185 L689 170 L683 167 L680 167 L679 164 L676 167 L670 169 L664 174 L663 173 L665 164 L670 155 L670 153 L673 148 L674 150 L673 147 L683 132 L707 108 L727 99 L732 99 L733 100 L731 102 L730 106 L730 119 L736 133 L745 146 L760 159 L746 144 L737 131 L732 116 L733 103 L735 100 L739 101 L735 97 L740 82 Z M438 71 L439 74 L436 77 L435 75 Z M438 71 L439 70 L440 71 L439 72 Z M788 67 L789 66 L790 67 L789 68 Z M789 66 L790 65 L791 66 L790 67 Z M790 65 L791 64 L792 65 L791 66 Z M591 64 L586 67 L566 88 L563 87 L551 87 L546 84 L543 84 L539 82 L530 82 L529 83 L521 83 L520 82 L520 80 L524 74 L531 69 L543 64 L550 63 L554 61 L562 60 L563 59 L587 59 Z M438 78 L441 74 L442 69 L445 63 L450 56 L452 64 L465 77 L472 82 L489 90 L483 95 L480 96 L476 93 L472 92 L470 90 L468 90 L463 87 L455 85 L442 86 L440 84 Z M450 56 L454 52 L458 51 L470 51 L476 53 L488 54 L505 63 L517 76 L518 83 L513 85 L503 86 L499 79 L494 74 L493 71 L491 70 L501 86 L500 87 L496 87 L489 81 L486 80 L487 82 L494 87 L493 88 L486 87 L472 80 L469 76 L466 75 L456 66 L457 65 L454 64 Z M666 105 L665 106 L658 100 L649 97 L632 97 L593 108 L585 108 L582 106 L578 97 L570 89 L590 76 L590 75 L575 84 L573 83 L583 73 L597 63 L599 63 L618 53 L620 55 L630 49 L654 48 L657 51 L659 58 Z M833 48 L855 63 L868 77 L872 85 L875 96 L875 105 L874 106 L873 103 L874 110 L862 116 L851 125 L839 137 L832 147 L821 168 L813 164 L809 164 L808 163 L807 164 L806 161 L808 156 L810 155 L809 152 L812 149 L816 138 L817 137 L818 138 L817 135 L822 125 L824 117 L827 111 L823 117 L815 137 L814 136 L815 130 L814 130 L806 155 L805 163 L803 165 L799 164 L800 118 L799 130 L798 131 L798 163 L800 165 L794 170 L791 165 L790 156 L788 151 L787 142 L783 127 L781 103 L780 102 L780 93 L779 92 L782 80 L778 88 L775 83 L775 81 L788 67 L789 69 L785 76 L787 72 L792 67 L791 64 L802 55 L818 48 L822 48 L823 47 Z M306 47 L315 52 L326 63 L332 77 L333 97 L332 98 L332 107 L331 108 L330 118 L328 121 L327 120 L328 121 L326 128 L327 129 L316 139 L307 152 L301 165 L299 163 L298 158 L302 146 L302 142 L307 121 L307 107 L308 106 L307 100 L307 109 L306 110 L307 115 L302 135 L301 144 L299 148 L299 151 L298 152 L297 149 L296 149 L294 156 L290 154 L292 148 L291 124 L290 122 L291 145 L290 146 L290 151 L288 154 L284 149 L282 141 L281 129 L280 128 L280 120 L279 119 L279 108 L278 108 L279 133 L280 134 L281 144 L285 153 L277 155 L272 158 L270 156 L270 154 L263 140 L258 125 L257 115 L255 109 L254 93 L255 92 L256 84 L260 76 L266 70 L288 59 L302 48 Z M303 45 L285 58 L283 58 L269 65 L264 69 L262 68 L263 69 L256 77 L252 87 L252 103 L247 106 L246 105 L247 107 L239 115 L237 116 L230 113 L226 113 L215 110 L206 110 L205 111 L195 112 L189 115 L180 125 L167 148 L165 148 L150 138 L146 138 L145 139 L145 143 L150 156 L152 158 L152 160 L155 165 L157 172 L161 178 L161 180 L170 194 L170 197 L167 199 L152 203 L136 212 L117 231 L113 233 L108 233 L107 234 L107 240 L109 244 L109 247 L111 249 L115 258 L129 279 L163 314 L179 328 L186 332 L187 334 L184 339 L181 353 L178 358 L176 367 L171 375 L163 393 L155 403 L155 405 L148 419 L143 437 L143 445 L139 456 L135 483 L133 490 L129 496 L122 496 L121 495 L107 496 L102 498 L72 503 L60 509 L49 520 L41 533 L38 543 L38 564 L37 565 L38 580 L42 588 L49 595 L55 599 L50 603 L45 613 L45 616 L43 620 L42 639 L43 640 L44 651 L49 664 L49 667 L55 679 L63 686 L72 689 L69 693 L67 699 L67 704 L65 708 L65 722 L69 731 L74 738 L89 750 L110 758 L132 758 L135 757 L136 758 L136 776 L137 779 L140 782 L139 800 L142 807 L145 810 L142 817 L142 822 L144 828 L147 831 L152 833 L151 839 L155 852 L161 858 L164 859 L171 858 L172 859 L174 868 L179 878 L190 893 L200 901 L212 907 L223 910 L229 910 L230 911 L231 910 L232 911 L233 910 L236 911 L244 910 L253 907 L255 911 L254 914 L255 913 L258 918 L260 926 L264 933 L270 949 L283 975 L302 1008 L308 1016 L320 1037 L343 1070 L344 1073 L348 1077 L357 1091 L361 1095 L379 1120 L404 1150 L421 1167 L441 1183 L459 1193 L479 1200 L483 1200 L493 1203 L499 1203 L500 1204 L523 1205 L524 1206 L558 1205 L559 1204 L567 1204 L568 1203 L584 1201 L609 1193 L623 1185 L635 1176 L652 1159 L673 1134 L697 1103 L698 1100 L712 1082 L716 1075 L720 1071 L760 1009 L788 956 L807 909 L808 903 L816 880 L822 856 L823 855 L833 864 L849 872 L867 875 L872 877 L886 877 L892 874 L900 866 L906 856 L908 848 L908 827 L909 826 L914 830 L925 834 L946 835 L956 830 L964 822 L968 815 L972 799 L972 743 L971 742 L971 737 L968 730 L960 721 L968 719 L974 716 L983 708 L987 702 L989 694 L993 685 L994 672 L998 658 L998 649 L996 644 L992 640 L978 635 L981 627 L981 615 L976 607 L960 596 L965 585 L973 585 L974 584 L991 585 L995 584 L1001 581 L1005 577 L1007 572 L1007 527 L1008 526 L1008 515 L1005 508 L1002 505 L1003 504 L1002 505 L999 502 L997 502 L985 495 L992 485 L996 468 L996 463 L997 462 L997 431 L995 426 L992 423 L985 421 L983 422 L971 422 L970 423 L966 422 L958 424 L957 423 L958 416 L957 415 L956 405 L948 396 L928 395 L927 394 L897 396 L892 380 L891 363 L890 362 L889 352 L884 338 L887 336 L895 334 L903 330 L908 326 L925 318 L948 302 L959 291 L964 284 L970 271 L971 259 L972 258 L971 255 L971 246 L972 245 L971 246 L970 245 L969 240 L963 229 L951 217 L940 209 L938 209 L924 201 L929 195 L929 193 L931 191 L935 181 L936 156 L932 143 L922 125 L910 113 L897 106 L885 105 L878 107 L877 106 L878 105 L878 97 L876 89 L869 74 L859 63 L835 46 L820 45 L812 47 L800 53 L791 60 L773 80 L768 75 L764 73 L752 72 L748 70 L744 70 L734 78 L705 107 L697 113 L679 134 L677 132 L671 112 L669 109 L667 93 L666 92 L666 86 L665 85 L665 79 L664 78 L663 64 L659 49 L656 46 L649 46 L648 47 L629 46 L625 47 L596 61 L594 63 L591 59 L587 57 L559 57 L531 66 L526 69 L520 76 L518 75 L515 69 L509 63 L490 52 L478 51 L473 49 L456 49 L451 51 L446 56 L444 61 L434 72 L432 76 L429 75 L428 76 L424 76 L421 79 L420 82 L418 83 L412 77 L407 75 L405 77 L403 86 L399 93 L397 94 L377 94 L376 95 L371 95 L358 107 L350 112 L347 107 L338 82 L330 65 L325 58 L318 51 L310 46 Z" fill="#eef3f4" fill-rule="evenodd"/>
</svg>
