<svg xmlns="http://www.w3.org/2000/svg" width="1672" height="941" viewBox="0 0 1672 941">
  <title>0473</title>
  <path d="M1007 824 L1005 826 L1002 836 L998 843 L980 861 L971 867 L953 876 L934 883 L920 886 L916 888 L908 889 L889 894 L885 894 L884 895 L880 895 L879 896 L875 896 L874 897 L863 898 L862 899 L843 900 L842 901 L814 901 L813 900 L804 900 L803 899 L798 899 L776 893 L761 885 L760 886 L772 893 L786 898 L800 900 L801 901 L820 902 L821 903 L835 903 L836 902 L850 902 L851 901 L866 900 L867 899 L878 898 L883 896 L897 894 L906 891 L910 891 L926 887 L952 878 L972 868 L985 859 L1000 843 L1005 833 Z M991 757 L989 757 L987 759 L976 764 L960 768 L956 770 L952 770 L925 777 L911 779 L906 781 L902 781 L886 785 L881 785 L866 789 L861 789 L856 791 L852 791 L847 793 L833 795 L828 797 L814 799 L809 801 L805 801 L789 805 L783 805 L782 806 L769 807 L768 808 L760 808 L759 809 L743 809 L742 808 L737 808 L733 806 L731 806 L731 807 L739 810 L764 810 L765 809 L772 809 L773 808 L792 806 L797 804 L811 802 L820 799 L853 793 L858 791 L863 791 L864 790 L928 778 L942 774 L946 774 L978 765 L990 759 Z M661 748 L661 758 L660 760 L661 760 Z M1007 746 L1005 745 L999 749 L996 753 Z M694 730 L692 731 L690 735 L690 740 Z M706 724 L707 723 L711 724 L710 725 Z M716 722 L717 721 L720 722 L719 723 Z M930 707 L931 706 L932 707 L931 708 Z M742 707 L743 706 L744 707 L743 708 Z M743 705 L744 704 L745 706 L744 707 Z M930 703 L931 702 L932 703 L931 704 Z M932 702 L933 701 L934 702 L933 703 Z M934 701 L935 700 L936 701 L935 702 Z M935 700 L936 699 L937 700 L936 701 Z M1030 681 L1028 681 L1024 685 L1020 692 L1016 696 L1020 695 L1025 691 L1028 687 Z M1002 674 L997 679 L988 685 L980 688 L980 689 L983 689 L994 683 L1002 676 Z M970 673 L971 672 L972 673 L971 674 Z M984 671 L985 670 L988 671 L987 672 Z M987 670 L988 669 L991 670 L990 671 Z M757 670 L758 669 L759 670 L758 671 Z M991 669 L992 668 L995 669 L994 670 Z M996 668 L997 667 L1001 668 L1000 669 Z M979 664 L980 663 L981 664 L980 665 Z M942 655 L943 654 L944 655 L943 656 Z M943 654 L944 653 L945 654 L944 655 Z M957 651 L958 650 L959 651 L958 652 Z M644 651 L645 650 L646 651 L645 652 Z M1024 648 L1031 663 L1031 673 L1029 674 L1022 667 L1016 658 L1020 652 L1015 656 L1014 660 L1017 662 L1027 674 L1031 676 L1032 675 L1032 662 L1027 650 Z M630 647 L631 646 L632 647 L631 648 Z M643 645 L645 647 L644 650 L642 647 Z M965 648 L962 645 L960 645 L952 654 L945 654 L944 653 L945 652 L943 651 L939 657 L935 660 L930 655 L924 654 L916 658 L908 665 L898 670 L882 674 L873 675 L869 677 L860 678 L847 683 L831 687 L812 690 L802 693 L783 694 L777 696 L771 696 L765 702 L757 702 L754 700 L749 700 L746 702 L745 705 L744 702 L740 707 L729 706 L727 710 L722 707 L721 704 L717 704 L717 705 L720 708 L722 708 L729 713 L735 716 L739 716 L737 714 L732 713 L729 709 L730 708 L735 708 L736 709 L741 709 L742 708 L745 709 L747 707 L747 704 L749 702 L751 703 L750 704 L751 701 L758 704 L764 704 L770 698 L776 698 L781 696 L800 695 L801 694 L820 691 L825 689 L846 685 L859 680 L863 680 L872 677 L876 677 L881 675 L897 672 L906 668 L914 661 L922 656 L925 655 L928 656 L922 662 L916 663 L917 665 L923 663 L929 657 L931 660 L936 661 L941 656 L942 657 L950 656 L957 651 L959 652 L962 648 Z M989 638 L990 637 L991 638 L990 639 Z M670 637 L672 641 L683 651 L690 654 L699 655 L700 656 L711 656 L712 655 L720 654 L731 647 L730 646 L725 650 L715 654 L709 654 L708 655 L695 654 L682 649 Z M1011 637 L1003 644 L1000 651 L995 656 L984 661 L981 660 L990 647 L992 641 L992 634 L991 633 L992 630 L1005 634 L1006 635 L1004 637 L1003 641 L1006 635 Z M826 629 L827 628 L828 629 L827 630 Z M804 624 L805 623 L806 624 L805 625 Z M823 629 L822 630 L814 630 L805 625 L806 624 L813 624 L816 622 Z M862 622 L863 621 L864 622 L863 623 Z M941 622 L939 621 L933 625 L916 629 L900 626 L909 630 L913 630 L914 631 L919 630 L922 631 Z M823 614 L824 617 L827 620 L827 625 L824 628 L818 622 L819 618 L822 617 Z M638 613 L640 616 L641 625 L642 626 L642 632 L644 639 L644 644 L643 645 L635 630 L636 618 Z M812 609 L813 608 L814 609 L813 610 Z M831 607 L837 609 L840 613 L834 617 L835 618 L834 619 L828 619 L827 618 L828 616 L831 616 L831 615 L827 613 L829 612 Z M1072 607 L1073 606 L1074 607 L1073 608 Z M838 608 L840 606 L841 607 L840 609 Z M806 605 L813 608 L810 609 L811 612 L810 613 L803 614 L802 610 Z M743 606 L741 607 L738 630 L733 640 L733 642 L735 641 L740 629 Z M828 602 L829 601 L831 603 L829 604 Z M831 604 L835 599 L837 599 L842 603 L837 607 L835 607 Z M1073 599 L1072 599 L1071 602 L1071 610 L1072 611 L1075 608 L1077 602 L1074 606 L1073 605 Z M831 598 L832 600 L830 602 L829 600 Z M793 599 L794 598 L795 599 L794 600 Z M636 597 L637 598 L636 601 L635 600 Z M794 595 L795 594 L796 595 L795 596 Z M795 593 L796 592 L797 593 L796 594 Z M796 591 L797 590 L798 591 L797 592 Z M830 591 L831 594 L826 603 L827 605 L831 607 L828 609 L828 612 L820 614 L816 621 L808 623 L806 616 L807 615 L811 615 L815 610 L815 607 L812 605 L809 605 L806 602 L805 598 L806 597 L812 597 L818 600 L821 597 L821 593 L820 592 L821 589 L826 592 Z M797 589 L798 588 L799 590 L798 591 Z M846 587 L849 594 L850 594 L849 590 Z M815 586 L819 591 L819 596 L817 598 L813 596 L813 591 Z M745 587 L746 586 L747 588 L746 589 Z M746 585 L747 584 L748 586 L747 587 Z M814 581 L826 581 L836 586 L841 591 L845 598 L846 613 L844 615 L843 619 L836 626 L830 629 L827 628 L829 622 L836 620 L842 615 L840 610 L843 604 L843 602 L840 599 L832 598 L831 597 L832 589 L825 590 L823 588 L820 589 L815 583 L813 586 L811 595 L810 596 L809 595 L802 596 L804 599 L805 604 L802 607 L800 613 L805 617 L805 623 L804 624 L797 614 L796 611 L796 598 L797 595 L807 584 Z M1084 579 L1083 579 L1081 596 L1073 618 L1074 619 L1078 611 L1083 595 L1084 582 L1085 581 Z M812 580 L804 584 L799 589 L798 587 L795 590 L792 597 L792 599 L794 600 L794 610 L797 618 L805 627 L815 632 L826 632 L836 628 L844 620 L848 609 L847 601 L842 590 L834 583 L824 579 Z M683 734 L689 747 L698 757 L705 760 L717 760 L734 756 L759 748 L766 747 L770 745 L778 744 L782 742 L786 742 L804 737 L822 734 L852 726 L856 726 L880 720 L903 716 L930 709 L940 709 L941 708 L963 706 L971 704 L975 705 L976 704 L977 705 L985 704 L986 705 L1003 704 L1012 700 L1010 699 L1000 703 L964 703 L963 704 L955 704 L954 705 L948 705 L940 707 L932 707 L931 706 L946 695 L957 691 L968 685 L971 682 L969 682 L967 684 L945 694 L938 700 L936 699 L937 698 L922 705 L928 703 L931 704 L927 708 L916 710 L898 715 L894 715 L889 717 L885 717 L880 719 L876 719 L871 721 L857 723 L830 730 L821 731 L790 739 L786 739 L770 743 L766 745 L747 749 L744 751 L731 755 L725 755 L712 759 L704 758 L695 752 L689 744 L684 732 L684 725 L687 715 L689 712 L689 709 L692 703 L698 697 L698 694 L702 689 L707 686 L743 675 L747 675 L763 671 L778 671 L805 664 L814 663 L819 661 L823 661 L837 657 L850 655 L863 651 L867 651 L871 649 L918 641 L927 638 L944 635 L952 632 L960 632 L961 631 L978 630 L979 629 L987 629 L989 631 L989 635 L987 639 L974 649 L978 648 L989 639 L990 640 L988 648 L982 656 L981 660 L971 671 L967 673 L966 675 L961 677 L944 681 L938 681 L937 682 L926 683 L920 685 L915 685 L903 688 L896 691 L893 691 L886 694 L883 694 L876 697 L852 703 L848 703 L843 705 L825 708 L820 710 L806 712 L797 715 L788 716 L783 718 L779 718 L778 719 L762 718 L762 719 L765 720 L764 721 L755 721 L754 722 L723 722 L712 717 L708 714 L705 710 L706 707 L720 715 L719 713 L716 712 L707 705 L705 705 L704 706 L704 711 L709 716 L717 721 L716 722 L704 722 L703 723 L695 722 L696 724 L709 727 L718 724 L746 724 L747 723 L771 722 L781 719 L795 717 L800 715 L804 715 L814 712 L846 706 L851 704 L855 704 L914 687 L919 687 L925 685 L952 681 L968 676 L971 676 L983 671 L985 673 L988 673 L999 670 L1010 669 L1012 668 L1012 666 L1011 667 L1007 666 L993 666 L989 668 L983 669 L978 672 L974 673 L971 672 L980 666 L983 662 L989 661 L997 656 L1001 652 L1004 645 L1007 642 L1008 643 L1007 642 L1009 640 L1016 640 L1021 645 L1023 645 L1016 638 L1010 634 L995 629 L987 628 L986 627 L962 627 L947 632 L915 640 L877 646 L872 648 L864 649 L857 652 L853 652 L834 657 L806 662 L784 668 L759 670 L758 669 L763 666 L774 655 L775 651 L778 653 L793 657 L813 659 L813 657 L796 656 L779 652 L774 649 L768 643 L763 632 L763 617 L764 614 L771 605 L777 602 L777 601 L775 602 L773 601 L773 594 L779 573 L777 573 L775 584 L772 590 L771 603 L764 610 L761 618 L761 629 L763 637 L767 644 L775 651 L771 654 L764 663 L753 671 L711 683 L699 690 L690 699 L685 709 L687 711 L684 713 L683 717 Z M807 572 L805 572 L799 578 L807 573 Z M818 570 L834 573 L824 569 Z M707 568 L708 567 L709 568 L708 569 Z M704 567 L705 566 L707 567 L706 568 Z M719 563 L720 562 L721 563 L720 564 Z M718 562 L719 561 L720 562 L719 563 Z M712 559 L713 558 L714 559 L713 560 Z M777 556 L778 555 L779 556 L778 557 Z M760 557 L762 555 L763 556 L762 558 Z M879 555 L880 554 L881 555 L880 556 Z M877 554 L878 553 L879 554 L878 555 Z M775 553 L776 552 L777 553 L776 554 Z M896 552 L899 558 L903 562 L911 574 L925 600 L934 608 L945 612 L958 612 L959 611 L967 610 L980 605 L993 595 L1001 583 L1003 578 L1003 575 L1002 575 L1001 579 L994 591 L982 602 L974 606 L960 610 L954 610 L953 611 L943 610 L934 606 L927 600 L911 571 L899 554 Z M776 552 L777 551 L778 552 L777 553 Z M777 550 L778 549 L779 550 L778 551 Z M765 549 L766 552 L763 556 L762 554 Z M676 542 L681 552 L688 558 L680 548 L677 542 Z M882 554 L870 547 L862 540 L871 551 L876 564 L878 578 L879 579 L878 582 L873 580 L866 580 L864 581 L864 583 L867 581 L872 581 L884 587 L889 592 L896 605 L897 621 L893 630 L885 638 L883 637 L878 640 L874 640 L873 639 L878 634 L880 626 L876 619 L872 617 L866 617 L859 621 L853 628 L850 635 L851 641 L851 638 L855 628 L861 622 L863 623 L861 625 L860 629 L852 644 L848 648 L841 651 L829 650 L811 638 L801 634 L792 633 L791 632 L787 633 L783 636 L782 638 L783 643 L786 644 L784 642 L784 638 L788 634 L795 634 L796 636 L792 640 L792 642 L795 647 L794 649 L793 648 L792 649 L795 651 L803 653 L802 651 L800 651 L796 647 L794 643 L794 639 L798 636 L801 636 L813 641 L822 648 L824 648 L828 651 L836 653 L842 652 L849 649 L855 642 L862 626 L867 619 L874 620 L878 625 L878 630 L876 634 L872 638 L874 640 L870 641 L869 642 L870 643 L876 642 L888 637 L895 630 L897 626 L899 618 L899 612 L898 611 L897 603 L893 595 L885 586 L880 583 L880 574 L879 573 L878 565 L874 555 L870 550 L872 549 L877 553 L876 555 L886 562 L890 569 L891 569 L889 563 L884 558 Z M626 538 L629 540 L632 568 L633 569 L633 575 L634 576 L634 582 L636 590 L636 597 L635 598 L627 590 L622 590 L618 593 L616 598 L616 610 L617 611 L618 620 L627 645 L634 657 L634 662 L637 670 L642 679 L643 679 L644 677 L640 673 L640 671 L635 661 L633 646 L626 623 L626 619 L624 613 L624 601 L626 599 L626 597 L623 600 L622 610 L623 611 L623 616 L626 629 L631 643 L630 646 L623 631 L618 614 L618 608 L617 607 L618 596 L622 592 L627 592 L633 598 L636 605 L637 612 L634 619 L634 633 L637 641 L648 662 L650 676 L652 681 L653 690 L658 710 L661 717 L662 724 L667 738 L669 748 L676 769 L681 780 L680 782 L666 781 L662 779 L666 777 L668 774 L669 762 L668 763 L667 773 L662 777 L663 778 L662 779 L659 778 L655 772 L651 751 L650 750 L650 745 L649 744 L645 720 L644 719 L644 715 L637 687 L625 649 L619 634 L619 631 L616 624 L609 596 L609 592 L606 581 L605 568 L604 567 L605 557 L607 552 L614 545 Z M874 534 L875 533 L877 534 L876 535 Z M815 532 L811 536 L811 538 L813 540 L816 537 Z M788 532 L789 531 L790 532 L789 533 Z M874 530 L875 529 L876 530 L875 531 Z M873 528 L874 527 L875 529 L874 530 Z M859 528 L860 527 L861 528 L860 529 Z M778 527 L779 526 L780 527 L779 528 Z M759 526 L760 525 L761 526 L760 527 Z M763 524 L767 530 L769 537 L768 546 L766 550 L765 549 L766 536 L762 526 Z M777 524 L778 523 L779 525 L778 526 Z M761 524 L762 523 L763 524 L762 525 Z M706 524 L707 523 L708 524 L707 525 Z M757 526 L762 531 L764 536 L764 546 L759 556 L752 562 L742 566 L729 567 L723 564 L718 555 L718 543 L724 531 L733 524 L739 522 L747 522 Z M669 523 L670 542 L674 551 L679 556 L675 550 L671 540 L671 528 L670 527 L670 523 Z M776 521 L777 520 L778 522 L777 523 Z M928 519 L929 518 L930 519 L929 520 Z M775 519 L776 518 L777 520 L776 521 Z M845 524 L843 525 L837 523 L825 522 L824 523 L817 523 L804 526 L793 530 L791 532 L789 531 L789 529 L792 526 L798 523 L813 519 L819 519 L820 518 L829 518 L830 517 L831 518 L837 518 Z M774 517 L775 516 L776 518 L775 519 Z M761 522 L759 526 L750 521 L742 520 L734 522 L727 526 L720 534 L716 545 L716 553 L719 561 L718 562 L715 559 L712 550 L713 538 L715 533 L723 523 L731 518 L738 516 L753 517 Z M1054 516 L1055 515 L1056 516 L1055 517 Z M849 526 L844 521 L836 516 L822 516 L796 522 L789 526 L787 531 L789 533 L788 534 L789 535 L791 533 L800 529 L816 525 L833 524 L849 528 Z M939 515 L940 514 L941 515 L940 516 Z M927 515 L928 514 L929 516 L928 517 Z M773 515 L774 514 L775 516 L774 517 Z M940 514 L941 513 L942 514 L941 515 Z M772 514 L773 513 L774 514 L773 515 Z M941 513 L942 512 L944 513 L943 514 Z M943 512 L944 511 L945 512 L944 513 Z M771 512 L772 511 L773 513 L772 514 Z M944 511 L945 510 L946 511 L945 512 Z M770 511 L771 510 L772 511 L771 512 Z M945 510 L946 509 L947 510 L946 511 Z M769 510 L770 509 L771 510 L770 511 Z M946 509 L947 508 L948 509 L947 510 Z M811 510 L810 509 L793 514 L789 516 L789 517 L791 518 L795 515 Z M768 509 L769 508 L770 509 L769 510 Z M767 508 L768 507 L769 508 L768 509 Z M766 507 L767 506 L768 507 L767 508 Z M857 506 L858 505 L859 507 L858 508 Z M764 506 L765 505 L766 506 L765 507 Z M763 505 L764 504 L765 505 L764 506 Z M711 509 L715 509 L718 507 L723 506 L724 507 L719 510 L726 507 L733 506 L720 505 Z M837 504 L830 507 L822 507 L815 509 L831 508 L836 506 Z M858 502 L859 501 L860 503 L859 504 Z M923 501 L924 500 L925 502 L924 503 Z M683 501 L681 508 L681 523 L682 524 L682 530 L685 538 L685 541 L692 555 L705 566 L704 567 L698 566 L689 562 L687 560 L686 562 L702 569 L712 570 L713 571 L720 571 L718 569 L714 569 L703 563 L692 552 L684 532 L684 527 L683 526 L683 507 L685 501 Z M859 499 L860 498 L861 500 L860 501 Z M860 497 L861 496 L862 498 L861 499 Z M1071 496 L1071 499 L1073 503 L1072 507 L1070 505 L1064 503 L1060 504 L1055 509 L1053 514 L1053 531 L1055 537 L1062 550 L1070 573 L1072 584 L1073 584 L1072 575 L1069 567 L1069 564 L1062 547 L1065 542 L1065 531 L1066 529 L1064 525 L1063 525 L1064 534 L1063 535 L1063 542 L1061 543 L1055 533 L1055 520 L1060 514 L1065 513 L1071 516 L1077 525 L1080 538 L1080 570 L1079 571 L1079 579 L1076 590 L1079 586 L1080 576 L1081 575 L1081 551 L1082 550 L1082 545 L1081 544 L1080 530 L1076 521 L1070 514 L1066 512 L1060 512 L1056 516 L1055 515 L1057 509 L1060 506 L1066 505 L1074 509 L1080 517 L1083 527 L1084 546 L1085 547 L1084 576 L1086 572 L1086 536 L1085 535 L1085 529 L1082 517 L1075 507 L1073 499 Z M817 496 L811 496 L794 501 L790 503 L790 504 L804 499 L817 497 Z M978 495 L976 496 L977 502 L972 510 L964 511 L963 512 L965 513 L963 515 L936 529 L926 533 L925 530 L911 538 L908 537 L902 543 L903 551 L904 551 L904 547 L903 546 L904 543 L908 539 L911 540 L916 537 L919 537 L938 530 L961 518 L968 512 L972 511 L978 514 L986 522 L980 514 L972 510 L978 504 L979 501 Z M861 495 L862 494 L863 496 L862 497 Z M926 505 L926 515 L924 520 L922 522 L921 521 L922 522 L920 524 L914 527 L890 534 L885 534 L884 535 L881 534 L876 528 L874 521 L876 511 L881 503 L885 499 L892 495 L898 493 L907 493 L915 496 Z M862 493 L863 492 L864 494 L863 495 Z M863 492 L864 491 L865 492 L864 493 Z M864 490 L865 489 L866 491 L865 492 Z M865 489 L866 488 L867 489 L866 490 Z M866 488 L867 487 L868 488 L867 489 Z M923 497 L924 499 L923 501 L916 495 L909 492 L896 492 L887 496 L881 501 L874 512 L873 516 L874 527 L873 528 L870 522 L871 507 L876 498 L886 489 L890 487 L899 486 L900 485 L908 486 L915 489 Z M867 486 L868 485 L869 486 L868 487 Z M868 485 L869 484 L870 485 L869 486 Z M869 484 L870 483 L871 484 L870 485 Z M870 483 L871 482 L872 483 L871 484 Z M871 482 L872 481 L873 482 L872 483 Z M833 482 L834 481 L835 482 L834 483 Z M790 482 L789 482 L789 488 L786 499 L783 505 L779 508 L774 508 L768 504 L754 498 L738 496 L737 495 L706 495 L705 496 L685 498 L685 499 L700 499 L701 498 L727 496 L728 497 L736 497 L737 498 L752 500 L765 508 L769 512 L775 522 L779 538 L778 545 L776 549 L771 554 L767 556 L766 554 L770 545 L770 533 L766 525 L760 519 L755 516 L748 514 L734 515 L726 519 L717 527 L711 539 L711 553 L713 557 L712 559 L709 556 L706 550 L704 542 L705 529 L713 520 L712 519 L708 523 L707 522 L705 523 L703 527 L703 532 L702 533 L703 546 L707 556 L716 564 L726 568 L745 567 L766 559 L775 553 L776 555 L772 559 L770 563 L777 556 L779 558 L783 541 L783 533 L779 519 L773 510 L774 509 L779 509 L781 511 L784 507 L790 492 Z M872 481 L873 480 L874 481 L873 482 Z M622 481 L623 480 L624 482 L623 483 Z M873 480 L874 479 L875 480 L874 481 Z M662 478 L662 480 L671 489 L683 498 L682 495 L671 487 Z M785 473 L786 472 L787 474 L786 475 Z M784 470 L785 469 L786 470 L785 471 Z M783 467 L784 466 L785 468 L784 469 Z M649 467 L650 466 L651 467 L650 468 Z M782 466 L783 465 L784 466 L783 467 Z M621 465 L622 466 L622 475 L621 476 L619 467 Z M920 461 L922 463 L929 464 L937 471 L936 467 L930 463 Z M1040 460 L1040 462 L1042 461 L1044 462 L1054 462 L1054 461 L1051 460 Z M776 460 L777 459 L778 461 L777 462 Z M1030 456 L1045 457 L1046 458 L1062 458 L1063 459 L1067 459 L1073 462 L1079 468 L1081 473 L1083 486 L1084 487 L1084 493 L1085 494 L1086 509 L1087 510 L1088 535 L1089 536 L1089 547 L1090 548 L1090 565 L1091 566 L1091 658 L1092 659 L1092 672 L1093 673 L1093 695 L1090 699 L1088 699 L1085 696 L1079 680 L1075 657 L1074 656 L1074 651 L1073 650 L1073 639 L1072 638 L1072 629 L1071 628 L1071 645 L1072 646 L1072 654 L1073 655 L1075 670 L1082 694 L1085 699 L1089 702 L1082 708 L1065 716 L1059 722 L1058 721 L1058 715 L1068 710 L1080 699 L1077 700 L1064 711 L1060 712 L1058 710 L1059 709 L1059 645 L1058 644 L1058 627 L1057 626 L1056 607 L1055 606 L1055 592 L1058 579 L1060 575 L1061 564 L1060 563 L1059 554 L1056 549 L1053 537 L1049 528 L1046 525 L1054 542 L1059 559 L1059 573 L1054 588 L1053 587 L1052 572 L1051 571 L1051 565 L1050 564 L1049 553 L1048 552 L1046 536 L1045 535 L1044 523 L1041 513 L1044 509 L1043 506 L1040 505 L1038 502 L1033 482 L1031 478 L1029 470 L1029 465 L1028 464 L1028 458 Z M626 451 L627 455 L625 461 L625 475 L624 476 L623 475 L623 460 L624 459 L624 454 Z M801 451 L802 450 L804 451 L803 452 Z M803 450 L804 449 L806 450 L805 451 Z M799 450 L800 449 L801 450 L800 451 Z M963 465 L961 464 L962 466 L962 486 L960 494 L955 503 L948 509 L947 507 L952 501 L956 491 L957 476 L956 475 L956 470 L951 458 L942 449 L947 455 L952 464 L955 474 L955 488 L952 497 L946 507 L941 512 L931 519 L929 518 L933 513 L936 506 L935 495 L931 488 L923 480 L917 477 L909 475 L902 475 L898 476 L897 478 L900 477 L911 477 L918 479 L923 482 L931 491 L934 500 L934 505 L932 506 L931 512 L929 515 L928 514 L928 505 L926 499 L916 488 L906 484 L894 484 L883 489 L875 497 L871 503 L868 512 L868 521 L871 529 L875 533 L874 534 L870 534 L860 529 L861 528 L857 525 L854 519 L854 516 L851 512 L851 497 L850 497 L849 510 L851 518 L854 521 L856 527 L860 532 L865 535 L873 536 L874 537 L883 537 L884 536 L898 534 L916 528 L934 519 L936 520 L948 512 L956 504 L962 494 L964 486 L964 469 Z M806 449 L807 448 L808 449 L807 450 Z M800 449 L801 448 L802 449 L801 450 Z M627 448 L628 449 L627 452 L626 451 Z M807 448 L808 447 L809 448 L808 449 Z M939 447 L923 451 L907 457 L898 462 L894 463 L877 474 L861 491 L856 503 L856 507 L855 508 L856 516 L857 517 L858 516 L862 500 L870 487 L889 469 L895 465 L912 457 L939 449 Z M809 447 L810 446 L811 447 L810 448 Z M630 447 L631 446 L632 447 L631 448 Z M810 446 L811 445 L812 446 L811 447 Z M628 445 L629 446 L628 449 L627 448 Z M811 445 L812 444 L813 445 L812 446 Z M812 444 L813 443 L814 444 L813 445 Z M665 444 L666 443 L667 445 L666 446 Z M631 444 L632 443 L633 445 L632 446 Z M605 444 L606 443 L607 444 L606 445 Z M693 443 L694 442 L695 444 L694 445 Z M813 442 L814 441 L815 443 L814 444 Z M796 441 L799 441 L801 443 L799 448 L797 448 L794 445 L794 443 Z M739 444 L738 445 L739 452 L742 458 L748 464 L752 464 L755 466 L758 466 L761 463 L763 458 L762 448 L761 447 L762 444 L772 450 L775 461 L775 476 L779 489 L778 495 L775 499 L776 501 L780 494 L780 485 L778 477 L776 474 L777 462 L778 461 L780 463 L785 478 L785 491 L786 491 L787 487 L786 475 L787 474 L788 475 L788 470 L785 464 L779 459 L779 456 L777 458 L776 457 L776 455 L771 447 L764 444 L762 442 L760 443 L761 459 L758 464 L754 464 L749 462 L745 459 L743 455 L742 446 L741 444 Z M632 442 L633 441 L634 442 L633 443 Z M814 441 L815 440 L816 441 L815 442 Z M663 441 L664 440 L666 443 L665 444 Z M659 440 L665 447 L668 448 L669 456 L666 460 L662 457 L659 451 L659 443 L658 442 Z M664 440 L665 439 L666 440 L665 441 Z M662 440 L663 439 L664 440 L663 441 Z M657 440 L658 439 L659 440 L658 441 Z M630 439 L631 442 L629 446 L628 442 Z M633 439 L634 438 L635 440 L634 441 Z M943 438 L944 437 L945 438 L944 439 Z M815 438 L816 437 L817 439 L816 440 Z M786 437 L788 438 L787 442 L784 440 Z M944 437 L945 436 L946 437 L945 438 Z M693 436 L694 437 L694 442 L693 443 L692 442 L692 437 Z M712 435 L725 447 L724 459 L721 463 L716 460 L712 453 L712 439 L711 438 Z M710 435 L711 434 L712 435 L711 436 Z M692 433 L693 434 L692 437 L691 436 Z M682 433 L690 439 L694 448 L695 454 L694 458 L692 460 L689 459 L686 455 L684 449 L684 443 L681 436 Z M816 433 L817 432 L819 434 L817 435 Z M680 433 L681 432 L682 433 L681 434 Z M679 432 L680 431 L681 432 L680 433 Z M634 430 L635 433 L631 440 L630 437 Z M831 430 L832 429 L833 431 L832 432 Z M615 426 L616 425 L617 426 L616 427 Z M647 433 L644 436 L644 442 L647 454 L648 470 L650 472 L649 473 L649 479 L647 487 L646 519 L647 520 L647 527 L648 528 L651 545 L658 559 L668 570 L667 575 L665 577 L664 581 L671 575 L680 575 L694 579 L717 579 L718 578 L731 577 L735 575 L741 574 L745 580 L745 584 L742 592 L742 603 L743 603 L744 590 L745 589 L746 590 L746 593 L752 581 L758 575 L766 570 L769 566 L757 574 L751 580 L748 585 L745 576 L741 573 L731 573 L728 575 L720 576 L719 577 L713 577 L712 578 L691 577 L679 573 L675 573 L669 575 L667 574 L669 572 L669 568 L663 563 L657 555 L651 539 L651 535 L648 525 L648 492 L649 491 L649 485 L650 484 L650 478 L652 470 L651 469 L652 468 L657 471 L665 473 L671 473 L671 471 L659 470 L653 466 L651 467 L649 465 L649 457 L648 456 L646 438 L645 437 L647 435 L650 437 L655 437 L657 439 L658 453 L660 457 L664 461 L667 461 L670 458 L670 448 L664 428 L665 427 L671 428 L679 434 L683 445 L684 454 L686 458 L691 462 L696 457 L696 438 L693 429 L695 427 L702 429 L708 433 L711 442 L710 444 L711 455 L714 460 L719 464 L722 464 L725 461 L726 458 L726 454 L727 453 L726 433 L727 432 L739 437 L747 445 L751 454 L754 457 L757 457 L757 455 L755 455 L752 452 L748 444 L741 437 L728 430 L724 434 L724 439 L726 443 L725 445 L717 436 L711 432 L709 432 L704 428 L697 426 L692 427 L691 429 L691 436 L690 437 L683 431 L675 429 L673 427 L666 425 L663 426 L660 429 L661 430 L662 428 L663 429 L663 432 L665 435 L665 439 L664 440 L660 439 L655 435 Z M638 423 L639 425 L635 431 L634 429 Z M638 423 L639 422 L640 423 L639 424 Z M639 421 L640 420 L641 422 L640 423 Z M620 420 L621 421 L622 430 L627 442 L622 459 L619 464 L618 463 L619 447 L617 445 L617 438 L618 437 L618 425 Z M956 419 L951 430 L946 437 L945 436 L945 425 L938 426 L938 427 L942 427 L943 426 L945 427 L944 428 L944 437 L943 438 L944 440 L941 445 L943 445 L950 435 L957 420 Z M601 418 L603 418 L605 420 L608 429 L614 437 L614 445 L615 446 L615 455 L616 456 L617 468 L619 473 L622 489 L624 492 L625 511 L626 512 L626 519 L627 520 L627 527 L628 528 L628 534 L627 535 L625 533 L621 524 L611 494 L611 491 L604 470 L599 447 L597 443 L593 427 L594 425 L600 431 L604 437 L606 443 L605 444 L603 443 L603 444 L609 450 L613 464 L615 466 L614 460 L610 448 L607 443 L606 438 L602 431 L594 422 Z M643 415 L644 417 L641 421 L640 419 Z M800 414 L806 415 L812 421 L815 427 L814 439 L807 447 L803 449 L801 442 L804 439 L800 440 L799 439 L800 438 L799 434 L800 433 L805 433 L808 430 L808 426 L804 421 L799 421 L798 422 L796 421 L796 418 Z M788 414 L790 414 L795 418 L796 423 L802 422 L806 425 L806 430 L804 432 L798 432 L797 434 L799 438 L796 439 L792 443 L789 442 L790 441 L788 436 L786 436 L782 439 L778 434 L778 429 L782 422 L785 424 L784 428 L787 427 L787 424 L784 421 L784 419 Z M1016 414 L1017 413 L1018 414 L1017 415 Z M792 414 L793 413 L798 413 L799 414 L797 416 Z M646 411 L647 413 L644 416 L643 414 Z M651 410 L653 416 L645 424 L635 439 L634 436 L638 428 L647 414 Z M646 411 L647 410 L648 411 L647 412 Z M851 410 L852 409 L853 410 L852 411 Z M647 410 L648 409 L649 410 L648 411 Z M648 409 L649 408 L650 409 L649 410 Z M653 413 L653 408 L654 407 L660 410 L655 414 Z M649 408 L650 407 L651 408 L650 409 Z M616 407 L617 409 L615 412 L614 408 Z M956 407 L957 406 L958 407 L957 408 Z M650 407 L651 406 L652 407 L651 408 Z M793 404 L783 407 L773 416 L769 425 L769 436 L772 444 L777 450 L786 455 L798 456 L802 455 L811 450 L816 445 L820 437 L821 433 L816 431 L816 426 L813 420 L806 413 L803 412 L800 413 L796 411 L791 413 L790 412 L787 413 L784 416 L783 420 L778 424 L776 433 L779 439 L787 444 L793 445 L797 450 L802 452 L801 453 L797 452 L798 453 L797 454 L791 454 L779 447 L774 441 L773 436 L771 433 L771 426 L774 418 L779 412 L786 408 L792 406 L801 406 L808 408 L814 412 L818 417 L820 423 L821 422 L818 415 L811 408 L801 404 Z M597 404 L598 403 L599 404 L598 405 Z M614 402 L615 403 L615 407 L614 408 L613 407 L613 403 Z M596 403 L597 402 L598 403 L597 404 Z M609 400 L610 399 L611 400 L610 401 Z M678 398 L669 403 L660 401 L664 404 L672 404 L678 400 Z M883 396 L884 395 L885 396 L884 397 Z M592 394 L596 394 L602 396 L611 404 L614 416 L614 432 L613 433 L608 425 L605 416 L601 409 L602 408 L600 404 L591 395 Z M617 394 L618 393 L619 394 L618 395 Z M614 393 L620 398 L620 400 L617 405 L613 399 L613 394 Z M1013 393 L1014 392 L1015 393 L1014 394 Z M1002 392 L1003 391 L1004 392 L1003 393 Z M891 391 L892 392 L892 402 L893 403 L894 414 L893 417 L890 419 L886 415 L883 406 L883 400 Z M1001 391 L1002 390 L1003 391 L1002 392 Z M619 392 L621 390 L622 391 L621 393 Z M1012 390 L1013 389 L1014 390 L1013 391 Z M635 389 L636 390 L635 392 L635 405 L637 412 L640 417 L635 424 L629 436 L629 438 L627 439 L626 437 L627 436 L627 426 L628 425 L626 424 L626 433 L625 434 L622 425 L621 413 L626 401 L631 393 Z M617 390 L618 389 L619 390 L618 391 Z M711 388 L712 387 L713 388 L712 389 Z M639 387 L641 388 L644 396 L650 403 L650 405 L641 414 L638 411 L636 404 L636 394 Z M635 388 L636 387 L637 389 L636 390 Z M636 387 L637 386 L638 387 L637 388 Z M621 385 L622 386 L621 389 L619 387 Z M666 384 L662 383 L659 385 L659 387 L662 385 L666 385 Z M712 387 L716 381 L718 383 L722 384 L714 388 Z M941 379 L944 381 L944 388 L945 389 L945 393 L941 401 L937 395 L935 388 L935 383 Z M729 380 L730 379 L731 380 L730 381 Z M1009 378 L1012 380 L1012 384 L1013 385 L1012 389 L1008 381 Z M1005 379 L1006 378 L1007 379 L1006 380 Z M637 378 L638 379 L638 383 L631 391 L624 402 L617 423 L616 422 L616 417 L620 402 L627 389 L634 380 Z M1004 378 L1005 377 L1006 378 L1005 379 Z M989 378 L990 377 L991 378 L990 379 Z M935 377 L936 378 L935 381 L934 380 Z M663 378 L659 381 L655 380 L660 377 Z M1007 377 L1008 376 L1009 378 L1008 379 Z M988 377 L989 376 L990 377 L989 378 Z M944 376 L945 377 L944 380 L943 379 Z M662 377 L663 376 L664 377 L663 378 Z M654 377 L655 376 L656 377 L655 378 Z M1003 376 L1004 375 L1005 377 L1004 378 Z M987 376 L988 375 L989 376 L988 377 Z M944 376 L945 375 L946 376 L945 377 Z M1006 375 L1007 374 L1008 376 L1007 377 Z M1002 375 L1003 374 L1004 375 L1003 376 Z M658 375 L659 374 L660 375 L659 376 Z M659 374 L660 373 L664 374 L663 375 Z M655 374 L656 373 L657 374 L656 375 Z M629 374 L630 373 L632 374 L631 375 Z M617 373 L620 377 L621 383 L614 390 L613 387 Z M1005 373 L1006 372 L1007 374 L1006 375 Z M983 373 L985 372 L988 375 L986 376 Z M657 373 L658 372 L659 373 L658 374 Z M982 372 L983 371 L984 372 L983 373 Z M741 375 L740 377 L733 380 L730 379 L730 377 L736 371 L737 373 Z M729 372 L730 371 L732 372 L731 373 Z M631 372 L632 371 L633 373 L632 374 Z M1008 371 L1009 370 L1010 372 L1009 373 Z M981 371 L982 370 L983 371 L982 372 Z M731 371 L732 370 L733 371 L732 372 Z M633 371 L634 370 L635 371 L634 372 Z M1005 369 L1006 370 L1005 373 L1004 372 Z M669 370 L667 370 L666 373 L660 371 L655 372 L651 377 L649 377 L650 381 L652 380 L657 383 L662 381 L668 374 L670 375 Z M1007 369 L1008 368 L1009 369 L1008 370 Z M1006 366 L1007 365 L1008 367 L1007 368 Z M955 368 L949 369 L938 379 L935 366 L928 370 L923 370 L917 374 L916 379 L922 395 L921 403 L917 409 L915 409 L911 405 L908 397 L907 388 L909 383 L909 377 L907 375 L899 380 L885 396 L884 395 L884 391 L882 389 L875 392 L870 397 L868 401 L868 409 L864 419 L864 421 L865 421 L866 417 L867 416 L869 417 L869 428 L866 432 L864 432 L859 427 L856 421 L856 417 L858 411 L853 406 L846 413 L843 420 L844 426 L842 430 L842 434 L844 434 L845 430 L848 437 L848 444 L846 448 L844 450 L840 450 L835 446 L833 442 L833 433 L835 425 L830 429 L824 438 L823 442 L824 457 L829 473 L834 481 L832 482 L826 477 L823 473 L820 465 L819 467 L824 477 L832 484 L840 487 L834 479 L828 467 L828 464 L825 456 L824 444 L826 437 L831 431 L832 432 L832 444 L833 446 L840 452 L844 452 L848 448 L850 438 L845 427 L845 418 L847 414 L851 410 L852 412 L854 411 L856 412 L854 419 L858 428 L862 432 L867 433 L871 428 L870 400 L875 394 L881 391 L882 392 L881 404 L883 412 L886 418 L890 421 L892 421 L895 417 L895 405 L893 399 L893 392 L895 386 L906 377 L907 378 L907 383 L905 390 L908 402 L912 409 L916 411 L918 410 L923 403 L923 391 L919 383 L918 376 L922 372 L928 372 L933 368 L935 371 L935 377 L934 378 L933 374 L931 374 L933 382 L933 388 L938 400 L945 404 L943 401 L947 392 L945 385 L946 384 L946 379 L949 372 L954 369 L957 375 L957 385 L961 400 L941 419 L935 422 L919 427 L914 430 L911 430 L891 440 L876 450 L866 460 L857 474 L853 478 L850 484 L845 489 L843 488 L842 494 L848 488 L849 489 L849 494 L850 494 L850 486 L859 474 L865 464 L876 452 L903 435 L905 435 L917 429 L926 427 L929 425 L939 422 L949 415 L956 407 L957 411 L959 411 L959 405 L961 402 L964 406 L970 423 L973 428 L981 453 L982 465 L983 466 L982 486 L981 487 L981 491 L982 491 L984 485 L984 462 L983 461 L982 450 L979 442 L979 439 L965 406 L965 403 L960 391 L958 372 Z M632 366 L633 365 L634 366 L633 367 Z M1005 365 L1006 364 L1007 365 L1006 366 Z M993 365 L995 364 L997 366 L995 367 Z M734 364 L735 365 L734 369 L733 368 Z M992 364 L993 363 L994 364 L993 365 Z M723 363 L728 371 L727 375 L722 370 L722 364 Z M631 363 L632 364 L632 368 L631 369 L629 365 Z M969 363 L971 362 L975 364 L982 370 L980 371 Z M737 363 L739 362 L744 368 L752 373 L744 376 L742 373 L744 370 L739 372 L736 370 Z M990 362 L991 361 L992 362 L991 363 Z M967 362 L968 361 L970 362 L969 363 Z M989 361 L990 360 L991 361 L990 362 Z M965 361 L966 360 L968 361 L967 362 Z M726 360 L728 364 L732 368 L731 370 L728 369 L725 363 Z M631 361 L632 360 L633 361 L632 362 Z M628 361 L629 360 L630 362 L629 363 Z M992 360 L994 359 L995 361 L993 362 Z M964 360 L965 359 L966 360 L965 361 Z M625 359 L627 364 L627 374 L628 376 L631 377 L635 374 L637 376 L629 384 L624 391 L623 390 L623 382 L624 381 L624 360 Z M1005 359 L1006 358 L1007 359 L1006 360 Z M961 359 L962 358 L964 359 L963 360 Z M959 358 L960 357 L962 358 L961 359 Z M956 357 L957 356 L959 357 L958 358 Z M735 356 L736 357 L736 364 L735 365 L734 364 L734 357 Z M954 356 L955 355 L956 356 L955 357 Z M806 356 L807 355 L808 356 L807 357 Z M724 355 L726 358 L725 361 L723 358 Z M631 355 L632 358 L630 359 L629 358 Z M627 356 L628 355 L629 356 L628 357 Z M777 355 L770 361 L767 362 L762 362 L760 360 L759 361 L762 363 L768 363 L774 360 Z M998 353 L999 352 L1000 353 L999 354 Z M824 352 L827 349 L830 352 L829 353 L825 353 Z M996 348 L999 352 L998 353 L999 355 L1000 353 L1006 363 L1005 365 L1004 364 L1005 369 L1004 370 L1002 367 L1001 368 L1003 373 L1002 375 L998 370 L999 369 L998 370 L996 368 L997 366 L996 365 L996 361 L998 357 L995 350 Z M820 349 L821 348 L825 349 L824 350 Z M717 348 L718 349 L717 352 L716 351 Z M998 348 L999 347 L1000 348 L999 349 Z M894 348 L895 347 L897 348 L896 349 Z M824 348 L825 347 L826 348 L825 349 Z M818 348 L819 347 L821 348 L820 349 Z M612 348 L613 347 L614 348 L613 349 Z M994 347 L995 346 L996 347 L995 348 Z M826 347 L827 346 L828 347 L827 348 Z M817 347 L818 346 L819 347 L818 348 Z M730 347 L731 346 L732 347 L731 348 Z M710 347 L711 346 L712 347 L711 348 Z M611 347 L612 346 L613 347 L612 348 Z M1004 345 L1006 352 L1005 356 L1002 349 L1003 348 L1001 347 Z M997 346 L998 345 L999 346 L998 347 Z M979 346 L980 345 L981 347 L980 348 Z M834 351 L840 345 L846 350 L845 351 L837 351 L836 352 Z M816 346 L817 345 L818 346 L817 347 Z M807 355 L810 352 L813 345 L815 348 L823 353 L811 356 Z M717 346 L718 345 L719 347 L718 348 Z M647 346 L648 348 L648 359 L646 365 L647 369 L650 371 L652 369 L656 369 L658 366 L661 367 L664 364 L664 362 L661 359 L658 359 L658 360 L660 360 L662 362 L661 365 L657 364 L654 368 L650 367 L649 369 L648 368 L648 364 L649 363 L649 347 Z M629 345 L632 352 L630 354 L627 354 L623 359 L623 375 L624 378 L622 380 L618 370 L618 365 L622 353 Z M978 345 L979 344 L980 345 L979 346 Z M815 345 L816 344 L817 345 L816 346 Z M760 345 L761 344 L763 345 L762 346 Z M725 344 L729 349 L729 353 L731 353 L732 350 L733 351 L733 362 L731 365 L728 361 L727 354 L724 351 L724 345 Z M609 345 L610 344 L612 346 L610 347 Z M996 344 L997 343 L998 344 L997 345 Z M824 344 L825 343 L826 345 L825 346 Z M763 344 L764 343 L766 344 L765 345 Z M977 343 L978 342 L979 343 L978 344 Z M864 343 L864 345 L869 348 L873 349 L883 348 L883 347 L871 347 Z M828 342 L829 343 L828 346 L827 345 Z M976 342 L977 341 L978 342 L977 343 Z M823 342 L824 341 L825 343 L824 344 Z M820 340 L823 345 L822 346 L820 346 L818 344 Z M606 341 L607 340 L610 344 L608 345 Z M1003 339 L1004 343 L1001 345 L1000 341 Z M975 340 L976 339 L977 340 L976 341 Z M605 340 L606 339 L607 340 L606 341 Z M753 339 L754 338 L755 339 L754 340 Z M682 339 L674 340 L669 342 L666 341 L661 346 L661 348 L667 347 L676 342 L682 341 Z M604 338 L605 337 L606 339 L605 340 Z M769 337 L766 341 L762 343 L757 343 L755 341 L757 339 L762 338 L765 336 Z M712 336 L716 340 L716 347 L715 348 L713 347 L711 342 L711 337 Z M896 347 L903 340 L906 335 L908 338 L912 339 L918 337 L919 338 L934 339 L935 340 L949 342 L963 347 L975 353 L985 360 L1001 376 L1006 383 L1016 403 L1017 412 L1016 413 L1013 408 L1014 406 L1004 390 L996 383 L985 370 L976 363 L962 356 L949 352 L946 353 L945 352 L940 352 L928 349 L912 349 L911 348 L897 348 Z M821 335 L824 340 L823 342 L820 338 Z M658 336 L659 335 L660 336 L659 337 Z M605 336 L606 335 L607 336 L606 337 Z M659 335 L660 334 L661 335 L660 336 Z M826 333 L827 334 L827 340 L826 341 L824 338 Z M822 334 L823 333 L824 334 L823 335 Z M704 334 L705 333 L706 334 L705 335 Z M767 333 L766 335 L761 337 L758 337 L755 339 L754 338 L754 336 L755 335 L756 336 L755 335 L756 334 L760 334 L762 332 L766 332 Z M971 332 L972 331 L973 332 L972 333 Z M907 331 L908 332 L907 335 L906 334 Z M831 331 L838 342 L838 345 L832 350 L829 349 L830 347 L830 340 L828 335 L830 334 Z M1026 330 L1027 331 L1027 343 L1028 346 L1025 355 L1024 363 L1026 364 L1026 358 L1028 353 L1029 354 L1029 362 L1030 363 L1030 374 L1031 375 L1033 408 L1034 409 L1034 419 L1035 420 L1035 446 L1034 447 L1034 451 L1032 454 L1030 453 L1028 454 L1027 453 L1023 436 L1023 433 L1025 430 L1025 414 L1024 413 L1024 407 L1023 406 L1022 394 L1021 393 L1020 377 L1021 374 L1024 371 L1028 374 L1024 370 L1020 373 L1018 380 L1019 393 L1020 394 L1020 399 L1021 400 L1021 405 L1024 418 L1024 427 L1021 431 L1021 435 L1025 451 L1026 467 L1042 524 L1042 531 L1043 532 L1043 537 L1047 554 L1051 586 L1052 587 L1054 618 L1055 619 L1055 633 L1056 634 L1056 650 L1057 651 L1057 705 L1056 706 L1056 722 L1055 723 L1055 734 L1054 735 L1053 752 L1052 753 L1052 760 L1051 761 L1050 773 L1049 774 L1046 793 L1035 831 L1023 854 L1013 866 L1003 875 L982 887 L945 900 L886 914 L862 917 L861 918 L841 919 L840 920 L796 919 L795 918 L781 916 L770 912 L756 904 L741 890 L721 862 L704 829 L704 827 L687 791 L678 765 L676 762 L673 750 L670 743 L670 740 L667 733 L667 730 L664 723 L664 720 L662 716 L662 713 L660 709 L656 693 L655 684 L653 679 L653 675 L648 654 L646 638 L644 632 L644 627 L643 626 L643 621 L640 608 L640 602 L638 595 L638 589 L636 582 L633 553 L631 546 L628 516 L627 515 L627 507 L626 506 L626 497 L625 496 L626 473 L628 468 L629 459 L635 443 L647 424 L662 410 L670 411 L671 412 L682 412 L697 404 L709 392 L741 378 L744 378 L753 374 L764 374 L765 373 L772 373 L780 371 L790 367 L804 359 L822 356 L823 355 L828 355 L829 354 L844 353 L845 352 L849 352 L854 355 L861 357 L877 357 L884 355 L890 352 L891 350 L912 350 L913 351 L924 351 L925 352 L932 352 L933 353 L942 354 L960 360 L971 366 L982 374 L999 390 L1011 407 L1017 419 L1017 421 L1019 421 L1019 405 L1016 392 L1015 369 L1016 368 L1017 352 L1018 351 L1019 342 L1022 335 Z M1022 330 L1023 332 L1019 338 L1016 347 L1015 363 L1014 364 L1014 375 L1013 376 L1008 357 L1007 342 L1013 334 Z M820 331 L821 330 L822 332 L821 333 Z M727 330 L729 334 L729 339 L731 344 L730 347 L724 339 L724 335 Z M720 330 L721 331 L720 334 L719 333 Z M1022 330 L1023 329 L1024 330 L1023 331 Z M962 329 L964 334 L967 337 L972 339 L977 344 L977 346 L979 348 L981 347 L983 351 L990 359 L989 361 L975 351 L963 345 L954 342 L958 337 Z M773 330 L771 332 L762 330 L759 333 L757 332 L755 333 L752 337 L752 340 L751 341 L749 340 L749 346 L751 347 L750 344 L751 343 L755 343 L761 346 L759 349 L764 346 L771 346 L771 344 L767 344 L766 343 L772 335 L774 335 Z M722 330 L723 329 L724 330 L723 331 Z M714 329 L718 333 L718 337 L717 338 L716 335 L712 335 L711 334 L711 332 Z M701 330 L705 329 L706 331 L703 332 Z M962 329 L963 328 L968 328 L972 331 L971 332 L968 331 L966 332 Z M681 332 L672 329 L665 330 L659 333 L656 336 L655 339 L658 336 L661 337 L668 333 L673 333 L674 332 L680 333 Z M991 328 L992 327 L993 328 L992 329 Z M990 327 L991 326 L992 327 L991 328 Z M820 327 L822 326 L823 328 L822 329 Z M752 327 L753 326 L754 327 L753 328 Z M724 327 L725 326 L727 327 L726 328 Z M703 327 L704 326 L705 327 L704 328 Z M602 326 L606 334 L604 337 L601 330 Z M1008 325 L1015 330 L1011 333 L1006 340 L1003 327 L1005 325 Z M927 326 L928 325 L929 326 L928 327 Z M909 325 L911 326 L913 332 L912 336 L908 335 L910 334 L910 330 L908 326 Z M722 326 L723 325 L725 326 L724 327 Z M718 326 L720 328 L719 331 L716 328 L712 328 L710 330 L710 339 L709 340 L707 335 L709 327 L711 325 Z M639 326 L640 325 L641 326 L640 327 Z M720 325 L721 324 L722 325 L721 326 Z M699 325 L700 324 L701 325 L700 326 Z M640 325 L641 324 L642 325 L641 326 Z M999 323 L1000 324 L999 327 L998 326 Z M977 324 L979 323 L980 325 L979 326 Z M913 323 L917 329 L917 334 L915 336 L912 327 Z M719 324 L720 323 L721 324 L720 325 Z M642 324 L643 323 L644 324 L643 325 Z M600 324 L601 323 L602 325 L601 326 Z M995 322 L996 323 L995 326 L994 325 Z M976 323 L977 322 L978 323 L977 324 Z M723 323 L724 322 L725 323 L724 324 Z M643 323 L644 322 L645 323 L644 324 Z M722 322 L723 321 L724 322 L723 323 Z M645 322 L646 321 L647 322 L646 323 Z M713 321 L715 320 L720 323 L717 324 Z M703 321 L707 320 L711 323 L709 324 Z M646 321 L647 320 L649 321 L648 322 Z M719 320 L720 319 L721 320 L720 321 Z M711 320 L712 319 L714 320 L713 321 Z M700 320 L701 319 L704 320 L703 321 Z M649 320 L650 319 L651 320 L650 321 Z M977 320 L979 318 L980 319 L979 321 Z M945 319 L946 318 L947 319 L946 320 Z M867 320 L874 318 L880 318 L881 319 L878 322 L870 322 Z M822 319 L823 318 L824 320 L823 321 Z M723 319 L724 318 L725 319 L724 320 Z M709 319 L710 318 L712 319 L711 320 Z M699 319 L700 318 L701 319 L700 320 Z M651 319 L652 318 L654 319 L653 320 Z M962 317 L976 325 L994 344 L993 349 L995 355 L992 360 L985 351 L978 339 L979 331 L977 330 L977 335 L975 340 L970 338 L967 334 L968 333 L975 334 L975 332 L973 329 L965 324 L961 318 Z M918 318 L919 317 L921 318 L920 319 Z M865 318 L866 317 L867 318 L866 319 Z M721 318 L722 317 L724 318 L723 319 Z M706 318 L707 317 L709 318 L708 319 Z M653 318 L654 317 L657 318 L656 319 Z M960 317 L961 316 L962 317 L961 318 Z M944 317 L945 316 L946 317 L945 318 Z M826 316 L830 327 L828 332 L825 330 L825 327 L823 323 L825 321 L825 317 Z M818 316 L819 317 L818 321 L817 320 Z M724 317 L725 316 L726 317 L725 318 Z M720 317 L721 316 L722 317 L721 318 Z M713 317 L717 316 L720 319 L717 320 Z M703 317 L704 316 L707 317 L706 318 Z M672 316 L688 316 L689 317 L693 317 L695 319 L695 321 L701 333 L707 338 L709 346 L709 352 L711 353 L711 349 L712 348 L713 349 L713 353 L719 353 L720 350 L720 334 L721 333 L722 334 L721 360 L717 365 L715 365 L712 362 L712 360 L710 360 L711 362 L711 369 L713 370 L714 366 L716 367 L719 365 L722 374 L724 376 L728 376 L729 377 L726 381 L718 381 L716 379 L716 370 L715 370 L713 382 L704 395 L692 405 L681 410 L669 410 L668 409 L660 408 L653 404 L648 399 L640 383 L635 363 L635 359 L639 358 L646 353 L646 352 L644 351 L639 352 L636 355 L635 358 L633 350 L636 347 L643 345 L643 343 L639 342 L635 344 L633 347 L632 346 L632 339 L635 333 L640 328 L655 320 Z M656 317 L657 316 L660 317 L659 318 Z M630 319 L630 317 L632 316 L633 318 L631 320 Z M719 316 L720 315 L721 316 L720 317 Z M698 316 L699 315 L703 315 L704 316 L703 317 L699 317 Z M659 316 L660 315 L663 316 L662 317 Z M866 317 L869 314 L875 316 L868 318 Z M718 315 L719 314 L720 315 L719 316 Z M694 315 L695 314 L699 315 L698 316 Z M662 315 L663 314 L667 314 L668 315 L667 316 L663 316 Z M874 315 L877 313 L881 315 L880 316 L875 316 Z M638 314 L639 313 L641 314 L640 315 Z M822 312 L823 313 L823 318 L822 319 L821 318 L821 313 Z M723 313 L724 312 L725 313 L724 314 Z M720 313 L721 312 L722 313 L721 314 Z M715 313 L717 312 L719 314 L717 315 Z M667 314 L675 312 L686 312 L687 313 L694 313 L695 314 L694 315 L685 315 L684 314 L668 315 Z M640 313 L641 312 L642 313 L641 314 Z M860 317 L861 321 L865 320 L867 322 L875 325 L870 327 L870 329 L873 327 L881 327 L880 325 L876 324 L879 323 L884 317 L887 318 L885 312 L884 312 L883 315 L879 312 L871 313 L870 312 L863 318 Z M825 311 L826 312 L826 316 L825 317 L824 316 L824 312 Z M811 311 L812 313 L815 312 L816 313 L816 322 L814 326 L812 323 L812 319 L810 315 Z M719 312 L720 311 L721 312 L720 313 Z M714 312 L715 311 L716 312 L715 313 Z M696 312 L697 311 L699 312 L698 313 Z M641 312 L642 311 L643 312 L642 313 Z M628 312 L629 311 L630 312 L629 313 Z M912 310 L913 311 L913 318 L912 322 L910 323 L909 322 L908 314 L909 313 L911 314 Z M908 311 L909 310 L910 311 L909 312 Z M718 311 L719 310 L720 311 L719 312 Z M713 311 L714 310 L715 311 L714 312 Z M692 311 L693 310 L697 311 L696 312 Z M667 311 L668 310 L671 311 L670 312 Z M643 311 L644 310 L645 311 L644 312 Z M637 311 L638 310 L641 311 L640 312 Z M632 311 L633 310 L636 311 L637 315 L635 316 L632 313 Z M627 311 L628 310 L629 311 L628 312 Z M981 310 L982 309 L983 310 L982 311 Z M717 310 L718 309 L719 310 L718 311 Z M671 310 L672 309 L692 309 L693 310 L692 311 L672 311 Z M644 310 L645 309 L646 310 L645 311 Z M598 310 L599 309 L600 310 L599 311 Z M812 309 L813 308 L815 310 L813 311 Z M721 309 L722 308 L723 309 L722 310 Z M716 309 L717 308 L718 309 L717 310 Z M698 309 L699 308 L701 309 L700 310 Z M645 309 L646 308 L647 309 L646 310 Z M633 309 L634 308 L635 309 L634 310 Z M926 308 L927 307 L928 308 L927 309 Z M815 308 L816 307 L817 308 L816 309 Z M727 308 L728 307 L729 308 L728 309 Z M724 308 L725 307 L726 308 L725 309 Z M714 308 L715 307 L717 308 L716 309 Z M982 307 L983 306 L988 306 L997 317 L999 323 L998 324 L995 318 L994 319 L993 318 L992 314 L989 311 Z M931 307 L932 306 L935 307 L934 308 Z M914 307 L917 306 L925 309 L937 320 L935 324 L937 323 L939 324 L933 331 L927 332 L924 330 L921 330 L926 333 L932 333 L935 331 L937 332 L936 331 L940 326 L940 322 L927 309 L928 308 L930 308 L937 312 L944 319 L949 326 L948 330 L945 333 L939 336 L943 336 L949 332 L950 330 L950 322 L947 316 L945 315 L944 317 L934 308 L935 307 L942 308 L960 316 L959 317 L959 322 L961 324 L962 322 L964 325 L959 330 L957 336 L952 341 L935 338 L934 337 L919 336 L918 335 L919 334 L919 329 L914 321 L914 318 L915 317 L918 320 L921 321 L927 329 L929 327 L931 327 L932 323 L930 323 L927 326 L923 320 L922 313 L919 315 L918 318 L915 315 Z M875 307 L876 306 L877 307 L876 308 Z M824 306 L825 307 L824 310 L823 309 Z M746 309 L744 307 L742 307 L741 309 L736 310 L731 315 L731 317 L741 313 L744 310 L746 310 Z M723 307 L724 306 L725 307 L724 308 Z M719 307 L720 306 L722 308 L720 309 Z M699 313 L702 311 L704 306 L713 310 L712 312 L714 316 L711 317 Z M701 307 L702 306 L703 307 L702 308 Z M694 307 L695 306 L696 307 L695 308 Z M646 308 L648 306 L650 307 L648 309 Z M971 306 L972 305 L973 306 L972 307 Z M928 306 L929 305 L932 306 L931 307 Z M820 305 L822 306 L822 312 L821 313 L819 309 Z M812 306 L813 305 L814 306 L813 307 Z M722 306 L723 305 L724 306 L723 307 Z M717 306 L718 305 L720 306 L719 307 Z M700 306 L701 305 L702 306 L701 307 Z M649 306 L650 305 L651 306 L650 307 Z M633 306 L634 305 L635 306 L634 307 Z M920 305 L921 304 L926 304 L927 305 L926 306 L921 306 Z M813 305 L814 304 L816 305 L815 306 Z M716 305 L717 304 L718 305 L717 306 Z M712 305 L713 304 L715 307 L713 308 Z M698 305 L699 304 L700 305 L699 306 Z M654 305 L655 304 L656 305 L655 306 Z M915 304 L916 303 L920 303 L921 304 L920 305 L916 305 Z M822 304 L823 303 L824 305 L823 306 Z M715 304 L716 303 L717 304 L716 305 Z M655 304 L656 303 L658 304 L657 305 Z M747 303 L749 308 L749 320 L747 322 L747 328 L749 330 L753 330 L755 328 L758 329 L761 325 L765 326 L767 324 L767 320 L764 316 L762 316 L762 318 L764 318 L766 321 L765 324 L759 323 L757 327 L755 325 L752 325 L750 329 L748 325 L751 318 L751 310 L749 303 Z M714 303 L715 302 L716 303 L715 304 Z M709 303 L710 302 L711 303 L710 304 Z M659 303 L660 302 L661 303 L660 304 Z M638 303 L639 302 L640 303 L639 304 Z M818 302 L822 301 L823 303 L819 304 Z M805 302 L806 301 L808 302 L807 303 Z M712 302 L713 301 L714 302 L713 303 Z M696 304 L693 305 L691 308 L689 307 L675 307 L671 308 L670 307 L671 305 L670 305 L666 310 L661 313 L644 320 L634 329 L630 335 L629 334 L629 331 L633 323 L641 315 L647 314 L655 307 L666 303 L675 302 L676 301 L686 302 L688 304 L691 303 L695 303 Z M639 302 L640 301 L641 302 L640 303 Z M815 300 L816 301 L811 304 L811 311 L810 312 L809 311 L809 303 L812 300 Z M720 302 L722 300 L723 301 L722 303 Z M717 301 L718 300 L719 301 L718 302 Z M711 301 L712 300 L713 301 L712 302 Z M648 303 L643 309 L636 307 L639 306 L642 303 L643 300 Z M636 300 L637 301 L636 304 L635 303 Z M600 301 L601 300 L602 301 L601 302 Z M907 299 L908 300 L907 304 L906 303 Z M715 300 L716 299 L717 300 L716 301 Z M709 300 L710 299 L711 300 L710 301 Z M656 301 L658 299 L662 300 L658 302 Z M636 300 L637 299 L638 300 L637 301 Z M971 299 L972 298 L973 299 L972 300 Z M805 299 L806 298 L810 299 L809 300 Z M765 305 L767 304 L774 304 L780 301 L787 301 L788 299 L772 299 L768 301 Z M761 299 L760 304 L762 306 L762 299 Z M713 299 L714 298 L715 299 L714 300 Z M708 299 L709 298 L710 299 L709 300 Z M663 299 L664 298 L666 299 L665 300 Z M644 299 L645 298 L646 299 L645 300 Z M637 299 L638 298 L639 299 L638 300 Z M599 299 L600 298 L601 300 L600 301 Z M970 298 L971 297 L972 298 L971 299 Z M912 297 L913 298 L912 302 L911 301 Z M711 298 L712 297 L713 298 L712 299 Z M706 298 L707 297 L708 298 L707 299 Z M668 298 L669 297 L670 298 L669 299 Z M651 297 L654 302 L651 306 L650 305 L650 298 Z M646 298 L647 297 L648 298 L647 299 Z M628 297 L630 298 L632 304 L632 309 L631 310 L624 305 L624 303 Z M811 297 L812 296 L813 297 L812 298 Z M709 297 L710 296 L711 297 L710 298 Z M638 298 L641 296 L644 297 L641 299 Z M635 297 L636 296 L637 297 L636 298 Z M598 297 L599 296 L600 298 L599 299 Z M908 295 L910 296 L909 300 L907 296 Z M810 296 L811 295 L812 296 L811 297 Z M805 296 L806 295 L807 296 L806 297 Z M707 296 L708 295 L709 296 L708 297 Z M648 296 L650 295 L651 297 L650 298 Z M643 296 L644 295 L645 296 L644 297 Z M597 296 L598 295 L599 296 L598 297 Z M813 295 L814 294 L815 295 L814 296 Z M809 295 L810 294 L811 295 L810 296 Z M803 295 L804 294 L806 295 L805 296 Z M703 295 L704 294 L707 295 L706 296 Z M644 295 L645 294 L647 295 L646 296 Z M630 295 L631 294 L632 295 L631 296 Z M912 293 L913 294 L912 297 L911 296 Z M802 294 L803 293 L804 294 L803 295 Z M807 293 L808 292 L810 294 L808 295 Z M800 293 L801 292 L802 293 L801 294 Z M707 294 L710 292 L715 292 L722 297 L722 300 L721 301 L719 299 L720 298 L718 299 L714 296 Z M675 299 L676 298 L680 298 L685 295 L687 292 L693 292 L699 294 L702 297 L704 303 L702 304 L698 302 L688 302 L685 300 L676 300 Z M659 297 L664 294 L672 292 L683 292 L684 293 L677 298 L675 298 L673 296 L668 296 L663 298 Z M821 291 L822 295 L821 298 L819 299 L818 298 Z M634 291 L635 295 L633 302 L631 294 Z M907 292 L910 290 L912 293 L911 294 Z M720 291 L721 290 L722 292 L721 293 Z M716 291 L717 290 L718 291 L717 292 Z M634 291 L635 290 L636 291 L635 292 Z M965 290 L966 289 L971 295 L968 296 L967 295 L968 294 L967 295 L966 294 Z M724 290 L725 289 L726 291 L725 292 Z M644 290 L646 289 L648 292 L645 293 Z M964 289 L965 288 L966 289 L965 290 Z M763 296 L771 292 L786 293 L779 289 L771 289 L765 292 L763 294 Z M731 289 L732 288 L733 289 L732 290 Z M730 288 L732 290 L729 293 L726 301 L725 300 L725 295 Z M590 288 L593 290 L598 301 L598 306 L596 309 L596 317 L598 320 L601 335 L605 343 L611 349 L615 350 L621 354 L619 358 L617 370 L613 381 L612 395 L611 396 L607 387 L600 357 L598 353 L598 349 L594 336 L593 327 L591 322 L590 313 L586 298 L586 292 L587 291 L588 292 Z M732 288 L733 287 L734 288 L733 289 Z M730 288 L731 287 L732 288 L731 289 Z M685 288 L686 287 L687 289 L686 290 Z M662 287 L663 288 L661 291 L660 288 Z M733 287 L734 286 L735 287 L734 288 Z M957 285 L960 285 L963 288 L964 294 L970 300 L971 304 L968 307 L963 308 L958 301 L958 299 L955 296 L953 289 Z M877 289 L878 290 L879 289 L888 290 L889 289 L893 289 L893 288 L888 286 L880 286 Z M863 286 L862 287 L863 290 L864 290 Z M797 286 L799 285 L803 287 L808 292 L804 293 Z M734 286 L735 285 L736 286 L735 287 Z M717 290 L716 291 L708 291 L702 294 L699 292 L701 288 L713 285 L715 286 Z M681 289 L680 291 L669 291 L661 294 L660 293 L661 291 L663 291 L666 288 L669 289 L673 285 L675 285 Z M823 284 L824 287 L822 292 L821 291 L821 287 Z M817 285 L818 284 L819 285 L818 286 Z M816 284 L818 286 L818 292 L817 293 L815 288 Z M796 285 L797 284 L798 285 L797 286 Z M735 285 L736 284 L738 285 L737 286 Z M691 284 L692 285 L688 288 L687 286 Z M662 287 L667 284 L671 285 L664 288 Z M860 287 L856 284 L855 285 L851 284 L843 287 L840 289 L840 291 L846 289 L852 289 L856 287 L860 288 Z M820 284 L821 283 L822 284 L821 285 Z M737 284 L738 283 L739 284 L738 285 Z M691 284 L692 283 L695 284 L694 285 Z M679 284 L682 283 L685 287 L684 288 Z M816 283 L817 282 L818 284 L817 285 Z M651 282 L656 283 L659 287 L658 295 L655 300 L654 297 L648 290 L648 286 Z M921 282 L922 281 L923 282 L922 283 Z M824 281 L825 282 L824 285 L823 284 Z M736 282 L737 281 L738 282 L737 283 Z M811 281 L812 280 L813 281 L812 282 Z M714 283 L713 284 L701 285 L702 286 L699 288 L697 292 L692 291 L689 289 L697 284 L695 283 L696 282 L712 280 Z M648 280 L649 282 L647 286 L643 288 L643 293 L641 295 L638 295 L637 294 L637 290 L639 287 L638 286 L644 280 Z M821 280 L822 279 L823 281 L822 282 Z M789 281 L795 286 L801 299 L807 306 L809 317 L811 321 L812 333 L815 331 L816 324 L817 323 L818 324 L818 340 L815 343 L811 340 L811 345 L808 352 L800 360 L796 362 L794 362 L785 367 L775 370 L768 370 L761 372 L752 371 L747 368 L740 361 L734 350 L730 335 L729 319 L728 318 L728 310 L736 303 L741 301 L743 302 L745 301 L742 299 L736 299 L730 304 L729 307 L728 306 L729 297 L731 293 L736 288 L750 281 L758 279 L781 279 Z M733 280 L734 279 L735 281 L734 282 Z M924 279 L925 278 L926 280 L927 278 L929 283 L928 284 L925 282 Z M912 279 L915 278 L916 280 L915 281 Z M825 278 L826 279 L825 282 L824 281 Z M732 279 L733 278 L734 279 L733 280 Z M730 278 L733 283 L726 290 L725 289 L725 285 Z M723 278 L724 279 L724 285 L723 286 L722 285 L722 279 Z M925 278 L926 277 L927 278 L926 279 Z M822 278 L823 277 L824 278 L823 279 Z M805 278 L806 277 L807 278 L806 279 Z M751 278 L752 277 L755 278 L754 279 Z M738 283 L739 282 L738 281 L742 277 L750 278 L751 279 L740 284 Z M945 278 L952 276 L964 281 L977 294 L983 306 L981 307 L977 303 L972 293 L962 284 L958 283 L952 288 L944 280 Z M944 277 L945 276 L946 277 L945 278 Z M804 277 L805 276 L806 277 L805 278 Z M754 277 L755 276 L759 276 L760 277 L759 278 L755 278 Z M727 277 L728 276 L729 277 L728 278 Z M723 277 L724 276 L725 277 L724 278 Z M648 279 L653 276 L658 276 L659 277 L657 282 L652 280 L649 281 Z M915 276 L916 275 L917 276 L916 277 Z M894 282 L891 279 L885 276 L879 277 L876 280 L874 280 L872 283 L872 289 L875 298 L879 302 L879 305 L878 306 L874 305 L872 308 L869 305 L864 307 L863 306 L864 302 L863 300 L861 303 L861 306 L864 309 L866 309 L868 307 L869 310 L871 309 L872 311 L875 309 L877 310 L881 306 L881 302 L876 297 L874 289 L874 282 L882 280 L886 280 L894 284 Z M838 283 L846 278 L853 278 L859 281 L860 280 L852 276 L846 276 L842 278 Z M823 276 L824 275 L825 276 L824 277 Z M819 275 L821 277 L820 282 L818 283 L817 280 Z M803 276 L804 275 L805 276 L804 277 Z M738 277 L739 275 L741 276 L739 278 Z M728 276 L729 275 L730 276 L729 277 Z M721 276 L722 275 L723 276 L722 277 Z M824 275 L825 274 L826 275 L825 276 Z M802 275 L803 274 L804 275 L803 276 Z M759 276 L766 274 L784 275 L802 281 L810 286 L810 284 L808 284 L805 281 L807 278 L813 285 L814 293 L813 294 L811 292 L812 291 L811 292 L805 286 L793 280 L780 277 L760 277 Z M743 275 L744 274 L745 275 L744 276 Z M729 275 L730 274 L731 275 L730 276 Z M922 273 L923 277 L922 281 L920 282 L918 277 Z M900 273 L902 275 L905 282 L905 286 L903 288 L899 275 Z M825 274 L826 273 L827 274 L826 275 Z M800 274 L801 273 L802 274 L801 275 Z M737 274 L738 273 L739 275 L738 276 Z M730 274 L731 273 L732 274 L731 275 Z M902 273 L903 272 L904 273 L903 274 Z M867 273 L868 272 L869 273 L868 274 Z M816 272 L817 273 L817 278 L815 282 L814 281 L814 277 Z M803 273 L804 272 L805 273 L804 274 Z M799 273 L800 272 L801 273 L800 274 Z M759 273 L760 272 L762 273 L761 274 Z M752 273 L753 272 L754 273 L753 274 Z M746 273 L747 272 L748 273 L747 274 Z M741 273 L742 272 L743 273 L742 274 Z M736 273 L737 272 L738 273 L737 274 Z M731 273 L732 272 L733 273 L732 274 Z M898 272 L899 271 L900 273 L899 274 Z M868 272 L869 271 L870 272 L869 273 Z M826 272 L827 271 L828 272 L827 273 Z M807 272 L809 271 L811 274 L810 275 Z M802 272 L803 271 L804 272 L803 273 Z M762 272 L763 271 L764 272 L763 273 Z M753 272 L754 271 L755 272 L754 273 Z M745 272 L746 271 L747 272 L746 273 Z M732 272 L733 271 L734 272 L733 273 Z M923 270 L925 273 L924 275 L922 273 Z M901 271 L902 270 L903 272 L902 273 Z M827 271 L828 270 L829 271 L828 272 Z M806 271 L807 270 L808 271 L807 272 Z M801 271 L802 270 L803 271 L802 272 Z M742 272 L743 270 L746 271 L743 273 Z M739 271 L741 270 L742 272 L741 273 Z M733 271 L734 270 L735 271 L734 272 Z M583 270 L585 271 L584 274 L586 274 L589 277 L589 285 L586 290 L584 287 L584 283 L581 272 Z M927 269 L933 276 L935 284 L930 291 L924 293 L923 292 L925 290 L925 287 L922 283 L924 282 L928 285 L930 285 L931 283 L930 279 L926 273 Z M900 270 L901 269 L902 270 L901 271 Z M897 270 L898 269 L899 271 L898 272 Z M869 270 L870 269 L871 271 L870 272 Z M828 270 L829 269 L830 270 L829 271 Z M817 269 L818 270 L817 273 L816 272 Z M799 270 L800 269 L802 270 L801 271 Z M758 270 L759 269 L761 270 L760 271 Z M754 270 L755 269 L756 271 L755 272 Z M747 270 L748 269 L750 270 L749 271 Z M729 270 L730 269 L731 270 L730 271 Z M726 270 L727 269 L728 270 L727 271 Z M797 269 L798 268 L800 269 L799 270 Z M761 269 L762 268 L764 269 L763 270 Z M749 269 L751 268 L753 270 L751 271 Z M741 269 L742 268 L743 270 L742 271 Z M734 270 L736 268 L738 269 L736 271 Z M923 269 L924 267 L926 268 L924 270 Z M860 270 L860 272 L865 276 L868 276 L872 272 L872 270 L870 268 L868 268 L866 271 L863 268 Z M817 268 L818 267 L819 268 L818 269 Z M796 268 L797 267 L798 268 L797 269 Z M769 268 L770 267 L771 268 L770 269 Z M755 268 L756 267 L757 268 L756 269 Z M721 267 L723 269 L722 270 L723 269 L726 272 L726 276 L725 277 L724 274 L721 276 L720 275 L720 268 Z M836 266 L837 267 L826 279 L825 278 L826 275 Z M767 271 L768 270 L774 270 L776 266 L784 267 L785 268 L791 268 L799 272 L798 274 L806 280 L804 281 L796 277 L782 273 L768 273 Z M771 267 L772 266 L773 267 L772 268 Z M733 267 L734 266 L735 267 L734 268 Z M729 267 L730 266 L731 267 L730 268 Z M905 265 L911 268 L908 270 L913 270 L916 272 L910 280 L913 282 L919 283 L923 286 L922 292 L924 293 L923 294 L915 294 L911 289 L907 289 L906 288 L907 281 L905 273 L906 271 L904 269 Z M836 266 L837 265 L838 266 L837 267 Z M832 266 L833 265 L834 266 L833 267 Z M818 266 L819 265 L820 266 L819 267 Z M815 266 L816 265 L817 266 L816 267 Z M799 266 L800 265 L801 266 L800 267 Z M791 266 L794 265 L797 267 L794 268 Z M765 267 L767 265 L769 266 L767 268 Z M747 266 L748 265 L749 266 L748 267 Z M743 267 L745 265 L746 266 L745 268 Z M711 277 L708 279 L697 280 L691 282 L687 285 L684 282 L689 277 L689 276 L687 276 L683 282 L679 282 L677 284 L674 281 L676 276 L681 271 L680 270 L675 275 L672 282 L665 283 L663 285 L661 285 L659 283 L659 280 L663 274 L688 265 L694 265 L704 271 L701 273 L698 273 L697 275 L707 273 Z M972 265 L973 264 L974 265 L973 266 Z M900 265 L901 264 L902 265 L901 266 Z M884 265 L885 264 L888 265 L887 266 Z M833 265 L834 264 L835 265 L834 266 Z M807 264 L809 268 L808 269 L806 268 L807 270 L805 271 L802 268 L804 265 L806 266 Z M768 265 L769 264 L770 265 L769 266 Z M751 265 L752 264 L754 267 L753 268 Z M973 264 L974 263 L975 264 L974 265 Z M958 264 L959 263 L961 265 L959 266 Z M881 264 L882 263 L885 264 L884 265 Z M835 264 L836 263 L837 264 L836 265 Z M831 263 L832 264 L821 277 L820 274 L818 273 L822 265 L824 263 L825 265 L828 265 Z M819 264 L820 263 L821 264 L820 265 Z M813 263 L814 267 L815 266 L816 267 L814 272 L812 268 L812 264 Z M800 264 L801 263 L803 264 L802 265 Z M754 264 L755 263 L757 264 L756 265 Z M750 264 L751 263 L752 264 L751 265 Z M734 266 L736 263 L740 263 L741 264 L735 267 Z M879 263 L880 262 L881 263 L880 264 Z M824 263 L825 262 L826 263 L825 264 Z M806 262 L807 264 L805 266 L804 264 Z M974 262 L975 261 L976 262 L975 263 Z M962 262 L963 261 L964 262 L963 263 Z M899 262 L900 261 L901 263 L900 264 Z M844 265 L851 265 L860 261 L874 261 L878 263 L877 264 L885 268 L890 266 L895 270 L898 276 L906 307 L907 324 L905 332 L900 341 L893 347 L892 346 L885 349 L884 353 L877 355 L861 355 L854 353 L847 349 L840 343 L831 328 L826 310 L827 308 L827 287 L828 286 L828 282 L832 274 L838 268 Z M820 262 L821 261 L822 263 L821 264 Z M816 262 L817 261 L818 263 L817 264 Z M797 262 L798 261 L799 262 L798 263 Z M745 263 L747 261 L750 262 L747 264 Z M963 261 L964 260 L965 261 L964 262 Z M898 261 L899 260 L900 261 L899 262 Z M825 262 L827 260 L830 262 L829 263 Z M821 261 L822 260 L823 261 L822 262 Z M798 261 L799 260 L800 261 L799 262 Z M758 266 L758 263 L760 260 L765 260 L766 261 L765 265 L760 267 Z M753 261 L754 260 L756 261 L755 262 Z M975 260 L976 259 L977 260 L976 261 Z M902 260 L906 259 L907 260 L917 261 L922 265 L921 271 L919 273 L911 266 L904 263 Z M897 260 L898 259 L899 260 L898 261 Z M886 261 L888 259 L892 261 L891 262 L892 261 L896 265 L898 269 L897 270 L891 264 Z M827 260 L828 259 L829 260 L828 261 Z M767 260 L768 259 L779 260 L789 263 L792 265 L789 266 L776 262 L769 263 Z M756 260 L757 259 L758 260 L757 261 Z M979 259 L980 258 L981 259 L980 260 Z M828 259 L829 258 L830 259 L829 260 Z M819 259 L820 258 L821 259 L820 260 Z M799 260 L803 258 L805 260 L804 261 L800 261 Z M734 258 L735 262 L731 267 L730 264 Z M966 258 L967 257 L968 258 L967 259 Z M896 258 L897 257 L898 258 L897 259 Z M890 258 L891 257 L892 258 L891 259 Z M818 258 L819 257 L820 258 L819 259 Z M813 258 L814 257 L815 259 L814 260 Z M895 257 L896 256 L897 257 L896 258 Z M888 257 L889 256 L890 257 L889 258 Z M819 257 L820 256 L821 257 L820 258 Z M759 257 L760 256 L761 257 L760 258 Z M967 257 L969 255 L970 256 L969 258 Z M886 256 L887 255 L888 256 L887 257 Z M767 256 L768 255 L769 256 L768 257 Z M815 255 L817 254 L820 256 L818 258 Z M760 256 L762 254 L763 255 L762 257 Z M836 263 L838 261 L854 254 L860 254 L863 257 L861 254 L862 253 L877 254 L888 259 L884 261 L873 260 L872 259 L860 259 L853 262 L844 261 L839 266 L837 265 L839 263 L838 264 Z M847 254 L848 253 L849 254 L848 255 Z M739 253 L740 255 L738 261 L737 259 L734 258 L736 256 L737 257 L736 256 Z M968 253 L969 252 L970 253 L969 254 Z M894 253 L895 252 L896 253 L895 254 Z M801 252 L803 256 L802 257 L800 256 Z M762 253 L763 252 L764 254 L763 255 Z M739 253 L740 252 L741 253 L740 254 Z M843 251 L846 255 L832 264 L831 263 L831 259 L829 257 L836 252 L838 254 L841 251 Z M836 252 L837 251 L838 252 L837 253 Z M766 251 L767 252 L766 255 L765 254 Z M736 252 L737 253 L729 260 L729 264 L728 265 L727 262 L724 261 L727 266 L726 270 L721 265 L723 257 L727 253 L731 251 Z M845 251 L846 250 L848 251 L847 252 Z M837 251 L838 250 L839 251 L838 252 Z M818 251 L819 250 L823 250 L826 253 L825 254 L823 253 L824 254 L822 255 L818 253 L821 252 Z M797 250 L798 251 L798 258 L795 263 L792 263 L790 261 L790 259 L792 255 Z M763 251 L764 250 L765 251 L764 252 Z M878 250 L879 249 L881 250 L880 251 Z M848 250 L849 249 L853 250 L852 251 Z M747 249 L752 255 L752 257 L750 259 L742 261 L741 260 L741 256 L743 251 L745 249 Z M738 250 L739 249 L740 250 L739 251 Z M862 249 L863 248 L865 249 L864 250 Z M859 249 L861 248 L863 250 L860 251 Z M974 247 L975 248 L974 259 L970 265 L965 266 L963 263 L968 258 L971 257 L971 254 L973 252 L973 248 Z M864 248 L865 247 L866 248 L865 249 Z M854 248 L855 247 L858 248 L857 249 Z M769 247 L770 248 L770 254 L769 255 L768 254 L768 248 Z M888 247 L889 246 L890 247 L889 248 Z M876 247 L877 246 L878 247 L877 248 Z M848 247 L849 246 L850 247 L849 248 Z M973 246 L974 245 L975 246 L974 247 Z M887 246 L888 245 L889 246 L888 247 Z M879 246 L882 245 L888 250 L890 250 L889 248 L891 247 L895 251 L894 256 L893 257 L888 254 L884 255 L880 253 L883 252 L883 249 Z M873 245 L874 248 L871 249 L870 248 Z M859 246 L860 245 L864 246 L863 247 Z M829 249 L827 251 L825 249 L819 248 L817 250 L819 252 L818 253 L814 252 L815 248 L817 246 L825 245 Z M753 246 L754 245 L756 246 L755 247 Z M891 245 L892 244 L893 245 L892 246 Z M885 245 L886 244 L888 245 L887 246 Z M878 245 L879 244 L880 245 L879 246 Z M856 245 L857 244 L858 245 L857 246 Z M794 244 L799 248 L795 250 L790 255 L789 260 L787 261 L784 259 L785 251 L792 244 Z M760 244 L762 246 L762 250 L756 258 L749 248 L752 246 L754 247 L754 249 L758 248 L759 246 L755 245 L756 244 Z M883 244 L884 243 L886 244 L885 245 Z M789 243 L790 244 L786 247 L783 252 L782 258 L779 259 L778 258 L778 249 L780 245 L783 243 Z M881 243 L882 242 L884 243 L883 244 Z M865 247 L866 246 L865 244 L866 242 L870 245 L867 248 Z M767 243 L776 242 L779 244 L777 247 L776 257 L775 258 L771 258 L770 257 L771 256 L771 246 L772 244 L766 246 L765 245 Z M888 242 L889 241 L890 243 L889 244 Z M877 242 L878 241 L881 242 L880 243 Z M858 242 L859 241 L863 241 L864 242 L863 243 L859 243 Z M852 241 L855 246 L854 248 L852 247 L851 244 Z M850 242 L846 246 L845 250 L841 247 L832 252 L824 261 L822 260 L832 249 L842 243 L848 241 Z M874 241 L875 240 L878 241 L877 242 Z M577 240 L584 247 L587 258 L591 263 L595 263 L598 259 L597 246 L601 240 L603 243 L603 250 L606 256 L606 265 L605 268 L601 272 L598 273 L597 275 L600 282 L600 290 L597 294 L592 286 L592 283 L590 282 L591 279 L590 276 L585 269 L582 269 L580 266 L582 258 L580 260 L578 256 L577 247 L576 246 L576 241 Z M853 240 L854 239 L856 240 L855 241 Z M842 240 L843 239 L845 240 L844 241 Z M890 238 L892 241 L891 243 L889 241 Z M881 239 L882 238 L884 239 L883 240 Z M867 240 L870 238 L873 241 L873 243 L871 244 Z M845 239 L846 238 L848 239 L847 240 Z M816 244 L817 241 L823 236 L831 238 L836 242 L836 245 L832 246 L831 248 L826 244 L819 244 L818 245 Z M862 235 L863 234 L865 236 L863 237 Z M852 235 L853 234 L855 235 L854 236 Z M848 237 L849 234 L851 236 L849 238 Z M885 233 L889 236 L886 242 L883 240 L885 239 L884 238 L884 234 Z M879 233 L881 234 L881 238 L880 239 L878 239 L876 236 Z M869 233 L870 234 L869 237 L868 236 Z M846 233 L847 235 L844 239 L843 237 Z M866 233 L867 232 L869 233 L868 234 Z M851 233 L852 232 L854 233 L853 234 Z M846 233 L847 232 L849 233 L848 234 Z M881 232 L883 231 L885 233 L883 234 Z M850 232 L851 231 L852 232 L851 233 Z M861 231 L862 230 L864 231 L863 232 Z M835 231 L836 230 L837 231 L836 232 Z M825 234 L829 230 L833 230 L841 239 L841 241 L840 242 L839 241 L840 242 L838 243 L835 239 Z M982 228 L983 229 L983 235 L982 236 L981 235 L981 229 Z M970 228 L972 229 L972 235 L971 236 L965 231 Z M971 228 L972 227 L973 228 L972 229 Z M852 229 L856 227 L859 227 L861 229 L858 230 L857 233 L855 230 Z M972 226 L973 225 L974 226 L973 227 Z M856 225 L857 224 L858 225 L857 226 Z M843 224 L844 223 L852 223 L855 225 L849 230 L847 230 Z M841 223 L843 228 L846 231 L841 237 L836 232 L839 231 L836 227 Z M859 224 L861 222 L866 222 L869 224 L872 224 L878 228 L880 231 L876 235 L873 232 L875 236 L874 238 L871 234 L870 227 L866 231 Z M977 212 L978 213 L978 220 L979 221 L980 238 L982 242 L981 252 L977 260 L976 259 L977 245 L974 237 L974 229 L976 226 L975 220 Z M980 209 L982 214 L982 224 L981 225 L979 217 L979 210 Z M978 207 L979 206 L980 208 L979 209 Z M574 195 L575 194 L576 195 L575 196 Z M569 195 L570 194 L571 196 L573 196 L576 200 L574 201 L570 199 Z M568 193 L569 192 L570 193 L569 194 Z M972 192 L973 191 L974 192 L973 193 Z M948 190 L949 189 L951 192 L955 194 L962 194 L963 195 L961 198 L956 198 L952 196 L949 193 Z M588 182 L589 186 L586 191 L586 195 L588 200 L588 209 L584 214 L581 215 L583 220 L583 224 L576 239 L575 238 L575 232 L576 231 L575 217 L577 214 L574 216 L573 220 L571 215 L570 202 L572 201 L576 204 L578 203 L579 196 L581 192 L581 188 L585 183 Z M947 165 L949 165 L955 170 L957 182 L961 186 L964 187 L972 193 L977 203 L977 211 L975 212 L973 223 L968 228 L965 223 L965 219 L968 214 L970 207 L967 206 L964 201 L964 193 L954 192 L950 189 L949 183 L951 175 L947 170 L944 169 Z M972 165 L973 164 L974 165 L973 166 Z M564 164 L565 163 L566 164 L565 165 Z M971 163 L972 162 L973 164 L972 165 Z M970 157 L972 160 L971 163 L968 159 Z M950 156 L952 155 L959 155 L965 158 L969 162 L975 172 L975 180 L973 182 L973 189 L971 191 L967 187 L963 185 L969 182 L969 179 L965 170 L963 168 L962 169 L966 176 L967 181 L961 184 L958 180 L958 175 L956 169 L947 162 L947 160 Z M982 155 L983 154 L984 155 L983 156 Z M975 151 L977 150 L978 152 L977 153 Z M565 150 L566 149 L567 150 L566 151 Z M973 148 L975 150 L974 152 L976 154 L979 154 L985 160 L985 165 L986 166 L982 176 L981 185 L983 184 L983 179 L986 172 L989 179 L992 198 L996 212 L997 221 L999 226 L999 230 L1002 240 L1002 245 L1008 271 L1008 276 L1011 287 L1011 292 L1012 293 L1012 298 L1015 311 L1015 317 L1017 324 L1017 328 L1016 329 L1012 325 L1008 323 L1002 324 L997 314 L987 303 L986 299 L986 291 L985 290 L985 283 L983 275 L983 268 L980 258 L984 246 L984 215 L982 208 L976 198 L976 194 L975 193 L975 189 L977 184 L977 170 L971 155 Z M564 148 L565 152 L566 151 L568 152 L568 156 L574 165 L574 173 L573 174 L574 181 L575 181 L576 178 L581 173 L587 174 L590 178 L589 180 L582 183 L580 186 L580 191 L574 195 L571 193 L567 184 L565 166 L566 165 L569 169 L569 175 L571 173 L571 170 L568 164 L564 162 L564 156 L563 155 L563 149 Z M972 145 L973 146 L972 149 L971 148 Z M971 141 L972 142 L971 145 L970 144 Z M566 138 L568 142 L568 146 L567 147 L565 144 L565 139 Z M972 129 L974 130 L973 134 L971 130 Z M976 126 L978 129 L980 141 L982 146 L982 150 L983 151 L982 154 L974 146 L974 141 L972 142 L971 141 L971 139 L975 133 L975 127 Z M974 120 L975 119 L976 120 L975 121 Z M946 118 L952 115 L954 115 L956 117 L955 120 L951 120 Z M569 115 L570 116 L570 126 L567 132 L566 137 L563 141 L562 140 L562 128 L565 125 Z M972 109 L975 116 L974 118 L970 115 L969 112 Z M565 106 L568 108 L568 113 L566 117 L566 120 L563 125 L562 124 L562 118 Z M565 105 L566 104 L567 105 L566 106 Z M942 97 L943 96 L946 97 L950 95 L953 99 L953 103 L951 105 L948 105 L944 103 L942 100 Z M952 94 L953 93 L954 94 L953 95 Z M570 93 L571 92 L572 93 L571 94 Z M571 92 L572 91 L573 92 L572 93 Z M572 91 L573 90 L574 91 L573 92 Z M930 87 L934 87 L938 90 L940 95 L940 100 L944 105 L952 106 L955 102 L953 96 L954 94 L953 92 L954 91 L954 85 L955 84 L956 85 L956 98 L961 114 L964 117 L966 117 L967 113 L970 118 L976 124 L974 127 L970 128 L971 136 L969 140 L969 148 L971 152 L969 157 L962 131 L967 127 L967 125 L961 130 L955 130 L951 128 L944 121 L948 120 L952 122 L955 122 L958 119 L958 116 L955 114 L950 114 L946 116 L942 116 L936 111 L934 105 L935 99 L933 93 L929 89 Z M587 86 L587 87 L589 86 L605 87 L613 91 L620 98 L620 96 L614 90 L607 86 L599 84 L592 84 Z M598 78 L609 78 L622 82 L635 94 L639 101 L644 116 L646 119 L652 137 L652 140 L654 143 L654 146 L656 149 L656 152 L664 175 L664 178 L673 206 L675 216 L681 233 L686 254 L689 261 L688 264 L685 264 L678 267 L675 265 L671 249 L668 242 L668 239 L665 232 L665 229 L662 222 L662 219 L659 212 L659 209 L656 202 L652 185 L649 178 L649 175 L642 156 L642 153 L631 120 L623 101 L621 100 L627 113 L638 145 L638 148 L649 180 L655 204 L669 248 L670 255 L674 265 L674 267 L672 269 L662 272 L660 274 L649 275 L644 278 L628 294 L623 301 L623 306 L628 314 L627 339 L629 343 L621 352 L618 350 L614 344 L613 345 L612 344 L611 340 L609 338 L604 328 L604 326 L599 318 L600 310 L601 309 L600 305 L601 304 L604 307 L605 311 L607 304 L604 302 L605 300 L600 295 L602 289 L602 284 L599 275 L605 271 L608 264 L608 258 L605 251 L605 246 L603 239 L600 238 L595 248 L596 260 L595 261 L593 260 L594 259 L593 257 L591 261 L589 259 L587 250 L579 239 L580 233 L584 226 L584 218 L583 216 L587 214 L590 209 L590 201 L587 193 L591 186 L591 176 L589 173 L585 171 L580 172 L576 176 L575 175 L576 166 L571 159 L569 154 L569 137 L570 136 L571 127 L572 126 L573 127 L573 120 L572 119 L572 113 L570 110 L569 100 L567 99 L577 91 L584 88 L584 86 L574 91 L573 90 L578 85 L586 81 Z M921 80 L926 74 L933 73 L943 82 L940 76 L943 74 L950 80 L952 84 L952 91 L950 94 L945 95 L942 94 L939 88 L936 86 L931 85 L927 88 L925 88 L922 86 Z M936 39 L937 38 L938 39 L937 40 Z M933 36 L934 35 L935 36 L934 37 Z M932 34 L933 33 L934 34 L933 35 Z M931 33 L932 32 L933 33 L932 34 Z M930 32 L931 31 L932 32 L931 33 Z M929 31 L930 30 L931 31 L930 32 Z M928 30 L929 29 L930 30 L929 31 Z M926 29 L936 42 L945 51 L949 65 L954 73 L954 77 L955 78 L955 83 L954 84 L952 80 L946 74 L939 72 L939 67 L941 61 L943 62 L942 66 L944 66 L944 60 L941 55 L939 56 L937 72 L935 73 L934 72 L935 71 L934 72 L933 71 L934 69 L934 56 L930 48 L929 42 L924 32 Z M927 29 L928 28 L929 29 L928 30 Z M926 28 L927 27 L928 28 L927 29 Z M883 19 L875 23 L870 29 L878 23 L883 21 Z M912 11 L913 10 L915 11 L914 12 Z M884 13 L896 10 L908 10 L915 14 L914 12 L915 11 L920 11 L935 17 L944 26 L947 31 L958 57 L958 60 L962 69 L962 72 L967 85 L967 88 L972 104 L972 107 L969 109 L967 106 L966 100 L964 100 L967 109 L964 114 L961 110 L958 99 L956 73 L950 63 L950 60 L946 50 L937 40 L939 37 L935 34 L933 30 L926 23 L917 18 L913 17 L895 17 L892 18 L892 19 L914 19 L918 20 L927 27 L924 28 L923 34 L932 55 L933 65 L930 72 L927 72 L921 76 L919 83 L920 86 L923 89 L925 89 L931 93 L933 98 L933 110 L938 116 L943 119 L944 124 L951 130 L961 133 L967 156 L965 157 L963 155 L957 153 L949 155 L946 158 L945 164 L942 167 L942 170 L946 171 L949 174 L949 179 L946 187 L946 190 L948 194 L954 199 L961 200 L966 208 L968 209 L967 213 L964 217 L963 222 L966 228 L964 229 L964 232 L972 240 L972 249 L970 253 L969 251 L960 261 L955 264 L955 267 L957 268 L968 268 L969 267 L970 268 L975 266 L979 260 L980 261 L985 303 L984 304 L977 292 L966 281 L954 275 L945 275 L940 270 L939 270 L942 274 L942 280 L940 283 L940 290 L941 292 L940 293 L939 292 L940 293 L941 292 L945 297 L946 296 L942 291 L942 287 L943 286 L945 287 L942 284 L944 282 L951 289 L953 294 L953 298 L951 300 L945 300 L936 291 L935 292 L939 298 L946 302 L950 302 L955 298 L957 303 L963 310 L965 309 L970 310 L973 308 L974 305 L973 306 L972 305 L972 300 L973 299 L982 314 L986 311 L991 315 L991 319 L993 324 L989 326 L989 329 L992 331 L995 331 L997 328 L998 329 L1000 326 L1001 327 L1002 334 L1000 339 L997 340 L996 344 L991 337 L980 326 L982 321 L981 316 L977 317 L975 319 L977 322 L975 323 L965 316 L950 309 L945 308 L942 306 L938 306 L925 302 L919 302 L914 300 L914 296 L915 295 L925 295 L931 292 L936 286 L936 277 L925 265 L919 261 L910 258 L902 258 L894 247 L894 242 L892 237 L885 230 L882 206 L881 205 L881 199 L880 198 L880 192 L879 191 L879 185 L878 184 L878 178 L877 177 L877 171 L876 170 L876 164 L875 163 L875 157 L874 156 L874 148 L873 147 L870 114 L869 113 L869 106 L868 105 L868 96 L867 95 L866 69 L865 68 L865 36 L866 35 L866 31 L872 21 Z M908 7 L890 9 L877 14 L869 21 L863 33 L863 73 L864 74 L864 87 L865 88 L866 107 L867 108 L867 115 L868 116 L868 125 L869 126 L872 157 L874 165 L874 172 L875 173 L879 207 L881 213 L881 219 L882 220 L883 228 L882 229 L877 225 L866 220 L861 220 L858 222 L853 222 L852 221 L842 221 L839 222 L834 227 L827 229 L816 240 L813 248 L813 255 L811 259 L811 264 L810 265 L804 255 L803 250 L793 241 L780 242 L776 240 L770 240 L763 244 L759 242 L756 242 L747 247 L743 248 L735 247 L733 249 L725 252 L721 257 L721 260 L718 266 L718 274 L720 278 L720 284 L721 285 L721 290 L720 291 L710 273 L698 265 L692 263 L690 260 L687 246 L680 226 L680 223 L678 219 L672 195 L669 188 L669 185 L666 178 L666 175 L663 168 L663 165 L658 152 L658 149 L644 108 L637 93 L634 89 L623 80 L615 77 L597 76 L585 79 L577 83 L569 90 L564 98 L560 115 L559 134 L560 135 L561 159 L562 160 L562 167 L563 168 L563 174 L565 181 L565 188 L566 189 L566 195 L568 202 L568 208 L570 215 L573 242 L574 243 L590 327 L592 332 L592 336 L600 367 L605 379 L607 389 L610 394 L610 399 L609 400 L599 393 L593 392 L589 394 L589 396 L598 407 L602 414 L600 417 L594 419 L591 422 L591 428 L594 436 L596 447 L598 451 L607 487 L618 520 L625 536 L612 544 L606 550 L602 560 L602 568 L603 569 L603 575 L604 576 L606 592 L610 605 L613 621 L627 663 L630 669 L631 676 L638 698 L638 702 L645 729 L645 734 L646 735 L647 745 L649 750 L649 755 L650 756 L652 769 L655 776 L660 781 L664 783 L682 784 L683 785 L684 790 L687 795 L690 804 L715 856 L731 881 L738 890 L751 903 L767 913 L780 918 L794 920 L795 921 L802 921 L803 922 L845 922 L846 921 L855 921 L856 920 L876 918 L877 917 L882 917 L883 916 L902 913 L907 911 L911 911 L935 905 L946 901 L949 901 L976 892 L995 883 L1004 877 L1019 863 L1025 855 L1036 834 L1037 829 L1039 826 L1047 797 L1047 793 L1052 773 L1054 754 L1055 753 L1056 737 L1057 736 L1057 726 L1067 717 L1073 715 L1089 706 L1094 699 L1095 691 L1096 690 L1094 658 L1093 657 L1093 561 L1092 560 L1092 545 L1091 544 L1089 509 L1088 508 L1087 493 L1086 492 L1083 472 L1079 464 L1070 458 L1063 456 L1056 456 L1055 455 L1040 455 L1035 453 L1037 446 L1037 425 L1036 424 L1036 411 L1035 410 L1035 400 L1034 399 L1033 375 L1032 374 L1032 365 L1031 364 L1030 346 L1029 345 L1029 331 L1027 327 L1024 327 L1020 329 L1018 325 L1018 319 L1015 306 L1014 294 L1012 288 L1012 283 L1010 277 L1010 272 L1009 271 L1001 227 L999 222 L995 199 L991 185 L991 181 L987 166 L987 161 L985 156 L982 138 L980 133 L980 129 L972 97 L970 93 L969 86 L955 44 L946 25 L940 18 L930 12 L915 8 L909 8 Z" fill="#eef3f4" fill-rule="evenodd"/>
</svg>
