<svg xmlns="http://www.w3.org/2000/svg" width="1122" height="1402" viewBox="0 0 1122 1402">
  <title>1</title>
  <path d="M671 1352 L672 1351 L673 1352 L672 1353 Z M633 1235 L634 1234 L635 1236 L634 1237 Z M927 1228 L928 1227 L929 1228 L928 1229 Z M943 1213 L944 1212 L945 1213 L944 1214 Z M944 1212 L945 1211 L946 1212 L945 1213 Z M945 1211 L946 1210 L947 1211 L946 1212 Z M946 1210 L947 1209 L948 1210 L947 1211 Z M697 1207 L696 1207 L696 1209 Z M691 1206 L691 1212 L692 1213 L692 1232 L691 1233 L676 1234 L675 1235 L664 1235 L663 1236 L649 1236 L648 1237 L637 1237 L636 1236 L638 1234 L640 1235 L638 1234 L639 1227 L631 1210 L632 1209 L661 1208 L662 1207 L674 1207 L675 1206 L686 1206 L687 1205 Z M955 1201 L956 1200 L957 1201 L956 1202 Z M956 1200 L957 1199 L958 1200 L957 1201 Z M957 1199 L958 1198 L959 1199 L958 1200 Z M832 1194 L833 1195 L833 1206 L832 1207 L831 1206 L831 1195 Z M833 1188 L834 1189 L834 1193 L833 1194 L832 1193 L832 1189 Z M827 1185 L828 1189 L828 1185 Z M831 1183 L830 1191 L829 1192 L829 1207 L826 1209 L822 1209 L805 1214 L796 1215 L791 1217 L787 1217 L782 1219 L778 1219 L757 1224 L752 1224 L751 1225 L746 1225 L733 1228 L727 1228 L726 1229 L720 1229 L713 1231 L706 1231 L705 1232 L698 1232 L697 1233 L695 1232 L695 1219 L694 1218 L694 1207 L693 1206 L694 1205 L750 1198 L751 1197 L774 1194 L780 1192 L785 1192 L796 1189 L801 1189 L830 1182 Z M687 1119 L688 1120 L688 1126 L687 1127 L688 1185 L689 1186 L690 1202 L689 1203 L679 1203 L678 1204 L631 1207 L630 1206 L630 1153 L629 1152 L629 1128 L630 1124 L631 1123 L648 1123 L649 1122 L661 1122 L662 1121 L672 1121 L673 1120 Z M690 1105 L689 1115 L685 1117 L669 1118 L668 1119 L657 1119 L656 1120 L642 1120 L641 1121 L631 1121 L630 1120 L631 1112 L633 1111 L631 1112 L630 1111 L631 1109 L660 1108 L661 1107 L670 1107 L671 1106 L678 1106 L686 1104 Z M470 1088 L470 1090 L471 1089 Z M623 1028 L624 1031 L624 1028 Z M587 1025 L625 1026 L626 1027 L626 1057 L625 1058 L626 1106 L625 1107 L582 1107 L581 1106 L582 1091 L583 1090 L583 1073 L584 1072 L584 1038 Z M688 1022 L689 1023 L689 1041 L691 1048 L691 1095 L690 1096 L690 1100 L685 1102 L666 1104 L665 1105 L633 1106 L630 1107 L629 1106 L629 1097 L628 1096 L628 1039 L629 1038 L629 1029 L630 1028 L628 1027 L629 1026 L639 1026 L640 1025 L659 1025 L660 1024 Z M238 1016 L239 1015 L240 1016 L239 1017 Z M753 1009 L752 1010 L753 1011 L753 1030 Z M473 1008 L474 1007 L496 1013 L516 1016 L517 1017 L522 1017 L528 1019 L556 1022 L557 1023 L565 1023 L566 1024 L580 1024 L584 1026 L583 1027 L583 1037 L582 1038 L582 1064 L581 1065 L582 1066 L581 1067 L581 1080 L580 1081 L581 1083 L580 1084 L579 1105 L578 1106 L566 1106 L565 1105 L543 1104 L542 1103 L535 1103 L534 1102 L506 1099 L505 1098 L500 1098 L499 1097 L494 1097 L493 1096 L469 1092 L468 1091 L468 1086 L469 1085 L469 1070 L470 1069 Z M754 1006 L755 1007 L756 1084 L753 1086 L733 1091 L729 1093 L713 1097 L694 1100 L693 1099 L693 1090 L694 1089 L694 1052 L693 1051 L693 1043 L692 1042 L691 1022 L694 1020 L705 1019 L706 1018 L710 1018 L736 1012 Z M452 1001 L469 1006 L471 1008 L470 1009 L469 1042 L468 1043 L468 1058 L467 1059 L467 1078 L466 1079 L466 1090 L465 1091 L459 1089 L450 1088 L446 1086 L450 1008 Z M776 999 L777 1000 L777 1060 L778 1061 L778 1077 L759 1084 L758 1083 L759 1080 L759 1067 L758 1066 L758 1006 L766 1002 Z M585 986 L586 987 L586 992 L585 993 L584 992 L584 987 Z M794 985 L795 986 L796 985 Z M584 981 L585 982 L584 986 L583 985 Z M815 977 L814 976 L813 977 Z M583 975 L584 976 L584 980 L583 981 L582 980 L582 976 Z M840 969 L842 974 L841 977 L842 978 L842 1049 L819 1061 L817 1061 L796 1071 L786 1074 L781 1077 L780 1076 L780 1004 L779 1003 L780 1002 L779 998 L799 989 L801 989 L808 985 L810 985 Z M350 964 L410 988 L449 1001 L448 1002 L448 1012 L447 1013 L447 1029 L446 1030 L446 1042 L445 1043 L444 1074 L443 1075 L443 1085 L442 1086 L430 1082 L411 1078 L394 1072 L391 1072 L346 1056 L344 1054 L345 1053 L345 1037 L346 1036 L348 974 L349 973 L349 965 Z M362 962 L362 964 L364 963 Z M578 958 L580 959 L583 971 L583 975 L582 976 L577 961 Z M354 962 L357 960 L355 959 L358 958 L372 964 L369 965 L369 966 L374 964 L388 970 L426 983 L429 983 L442 988 L445 988 L455 992 L462 993 L481 999 L485 999 L503 1004 L523 1007 L524 1008 L529 1008 L530 1009 L535 1009 L536 1010 L557 1012 L558 1013 L587 1015 L588 1016 L587 1020 L588 1020 L588 1016 L589 1015 L606 1015 L607 1016 L653 1015 L654 1014 L665 1014 L666 1013 L673 1013 L674 1012 L683 1012 L690 1010 L691 1011 L691 1015 L688 1019 L682 1019 L674 1021 L665 1021 L664 1022 L652 1022 L651 1023 L593 1023 L592 1022 L563 1021 L562 1020 L554 1020 L553 1019 L532 1017 L531 1016 L514 1014 L509 1012 L486 1008 L458 1001 L441 995 L438 995 L390 978 L368 968 L356 964 Z M590 958 L591 957 L592 958 L591 959 Z M576 958 L577 957 L578 958 L577 959 Z M586 957 L587 956 L589 957 L588 958 Z M691 956 L691 961 L690 962 L691 1007 L690 1008 L689 1006 L688 1009 L682 1009 L681 1010 L665 1011 L664 1012 L650 1012 L649 1013 L629 1013 L628 1014 L607 1014 L606 1013 L589 1013 L588 1012 L589 1011 L588 1008 L588 994 L587 993 L587 986 L586 985 L584 970 L581 962 L582 959 L599 963 L634 964 L635 963 L646 963 L647 962 L657 962 L665 960 L672 960 L677 958 L685 957 L689 955 Z M583 956 L584 955 L586 956 L585 957 Z M693 954 L694 955 L693 958 L692 957 Z M580 955 L581 954 L583 955 L582 956 Z M577 954 L578 953 L581 954 L580 955 Z M575 953 L576 952 L578 953 L577 954 Z M573 952 L574 951 L576 952 L575 953 Z M335 954 L339 951 L341 951 L344 953 L342 955 L344 953 L346 953 L351 956 L348 957 L348 958 L350 958 L351 956 L356 958 L355 961 L352 962 Z M571 951 L572 950 L574 951 L573 952 Z M336 951 L337 950 L339 951 L338 952 Z M322 948 L324 947 L323 946 L324 945 L326 945 L335 949 L336 953 L335 954 L331 953 Z M553 938 L554 937 L555 938 L554 939 Z M301 938 L303 936 L305 936 L316 941 L317 944 L316 943 L319 942 L324 945 L322 946 L323 947 L322 948 L320 948 L305 940 L306 939 L304 940 L303 939 L304 938 L303 939 Z M545 934 L546 933 L547 934 L546 935 Z M546 935 L549 932 L554 937 L553 938 L554 939 L555 938 L572 950 L570 951 L565 949 Z M547 932 L548 931 L549 932 L548 933 Z M543 932 L545 931 L546 933 L545 934 Z M545 930 L546 929 L548 931 L546 932 Z M544 929 L545 928 L546 929 L545 930 Z M275 928 L277 930 L276 931 L278 930 L301 942 L300 943 L302 942 L347 963 L346 964 L345 999 L344 1000 L343 1040 L342 1041 L342 1053 L341 1054 L339 1053 L340 1050 L340 1052 L338 1053 L323 1046 L321 1046 L300 1036 L296 1033 L297 1032 L295 1033 L292 1031 L293 1030 L291 1031 L278 1024 L277 1021 L278 1022 L276 1023 L272 1020 L273 1019 L271 1020 L269 1018 L270 991 L271 990 L271 973 L272 972 L272 952 L273 951 L273 937 L274 936 L274 929 Z M903 927 L904 928 L904 953 L905 954 L905 962 L904 963 L905 964 L904 967 L905 971 L904 975 L904 1004 L903 1005 L903 1010 L899 1014 L883 1025 L881 1024 L882 1025 L878 1028 L876 1027 L877 1028 L875 1030 L850 1045 L848 1044 L849 1043 L847 1041 L847 1022 L847 1044 L849 1045 L846 1047 L845 1046 L844 967 L869 951 L871 952 L870 951 L878 945 L880 946 L879 945 L885 940 L887 941 L886 940 L889 937 L891 938 L890 937 L893 934 Z M900 925 L888 935 L859 955 L830 972 L804 985 L802 985 L792 990 L790 990 L788 988 L790 990 L785 993 L744 1007 L707 1016 L702 1016 L695 1018 L692 1017 L693 1011 L697 1009 L702 1009 L703 1008 L708 1008 L713 1006 L722 1005 L738 1001 L742 999 L749 998 L759 994 L762 994 L782 986 L785 986 L817 972 L819 973 L818 974 L819 975 L818 972 L827 967 L830 969 L828 967 L833 964 L835 965 L834 964 L839 961 L841 963 L840 961 L843 959 L845 961 L844 959 L848 956 L850 957 L849 956 L860 950 L879 937 L882 936 L898 924 Z M909 922 L910 921 L911 922 L910 923 Z M903 921 L904 922 L900 925 L899 924 Z M269 922 L272 921 L303 936 L300 938 Z M159 922 L160 921 L161 922 L160 923 Z M910 921 L911 920 L912 921 L911 922 Z M903 921 L904 920 L905 921 L904 922 Z M160 921 L161 920 L162 921 L161 922 Z M904 920 L906 918 L908 919 L906 921 Z M907 918 L908 917 L909 918 L908 919 Z M243 918 L254 917 L270 926 L269 928 L270 926 L271 927 L269 975 L268 976 L268 991 L267 992 L267 1008 L265 1016 L263 1014 L264 1011 L263 1012 L264 1013 L262 1014 L260 1012 L261 1011 L259 1012 L238 994 L226 978 L220 962 L219 943 L223 932 L233 923 L235 924 L234 923 L236 921 Z M908 917 L909 916 L911 917 L910 918 Z M258 917 L261 916 L270 921 L267 922 Z M910 916 L911 915 L912 916 L911 917 Z M256 916 L257 915 L259 916 L258 917 Z M918 914 L926 916 L928 918 L927 919 L929 918 L936 925 L941 938 L941 956 L940 957 L940 962 L933 980 L925 991 L907 1008 L906 1007 L906 998 L907 997 L907 923 L908 922 L910 923 L909 926 L909 924 L912 921 L911 920 Z M911 915 L912 914 L913 915 L912 916 Z M254 915 L255 914 L256 915 L255 916 Z M912 914 L913 913 L914 914 L913 915 Z M203 936 L209 926 L218 918 L231 913 L245 914 L246 915 L239 918 L237 918 L235 916 L237 918 L223 929 L218 939 L218 943 L217 944 L218 962 L220 966 L220 969 L227 982 L227 984 L233 992 L245 1004 L260 1016 L292 1035 L335 1055 L334 1056 L337 1055 L364 1066 L412 1081 L460 1093 L464 1093 L485 1098 L490 1098 L496 1100 L521 1103 L522 1104 L529 1104 L530 1105 L537 1105 L538 1106 L570 1108 L571 1109 L597 1109 L598 1110 L612 1110 L613 1109 L614 1110 L616 1109 L622 1109 L623 1110 L624 1109 L625 1110 L626 1109 L627 1110 L627 1120 L626 1121 L558 1120 L557 1119 L546 1119 L545 1118 L534 1118 L533 1117 L516 1116 L515 1115 L508 1115 L507 1114 L475 1110 L470 1108 L464 1108 L454 1105 L449 1105 L440 1102 L436 1102 L400 1093 L390 1089 L387 1089 L380 1086 L371 1084 L368 1082 L365 1082 L362 1080 L351 1077 L348 1075 L343 1074 L315 1062 L314 1061 L315 1060 L312 1061 L284 1047 L282 1045 L283 1044 L281 1045 L280 1044 L281 1043 L279 1044 L270 1039 L268 1037 L269 1036 L268 1035 L269 1036 L268 1037 L265 1036 L254 1028 L255 1027 L253 1028 L239 1017 L240 1016 L239 1015 L237 1016 L232 1011 L233 1010 L232 1011 L218 997 L208 982 L209 980 L208 981 L204 974 L201 963 L200 947 Z M914 913 L915 912 L916 913 L915 914 Z M915 912 L916 911 L917 912 L916 913 Z M926 912 L928 911 L926 911 Z M953 921 L956 926 L960 941 L959 959 L953 978 L939 1001 L920 1019 L904 1031 L902 1030 L903 1031 L900 1034 L885 1044 L883 1043 L884 1044 L882 1046 L855 1062 L820 1079 L808 1083 L798 1088 L757 1102 L742 1105 L738 1107 L717 1111 L716 1112 L706 1113 L705 1114 L693 1115 L692 1116 L690 1115 L691 1114 L691 1107 L693 1103 L712 1100 L736 1094 L747 1090 L750 1090 L788 1077 L815 1065 L818 1066 L817 1065 L848 1049 L850 1050 L849 1049 L851 1047 L871 1036 L898 1018 L916 1004 L927 993 L933 985 L938 976 L939 972 L940 971 L941 972 L940 969 L942 965 L943 956 L944 955 L944 940 L941 929 L937 922 L929 915 L930 914 L928 915 L919 912 L924 909 L934 909 L944 913 Z M175 907 L176 906 L177 907 L176 908 Z M989 906 L990 905 L991 906 L990 907 Z M987 905 L988 904 L990 905 L989 906 Z M986 904 L987 903 L988 904 L987 905 Z M998 903 L1010 912 L1018 920 L1031 938 L1041 959 L1048 986 L1049 1003 L1048 1004 L1048 1016 L1047 1017 L1046 1029 L1039 1054 L1030 1075 L1015 1099 L1003 1114 L980 1137 L958 1154 L927 1173 L897 1187 L866 1198 L863 1198 L856 1201 L836 1206 L835 1205 L835 1195 L836 1194 L836 1182 L837 1181 L839 1182 L839 1184 L838 1181 L839 1180 L850 1178 L888 1166 L913 1156 L941 1142 L961 1129 L982 1112 L1001 1091 L1013 1073 L1022 1055 L1026 1044 L1027 1046 L1026 1042 L1030 1030 L1032 1014 L1033 1013 L1033 989 L1032 988 L1030 972 L1026 961 L1027 958 L1026 959 L1016 938 L1004 921 L1005 920 L1004 921 L993 910 L994 909 L993 910 L990 907 L991 906 L989 903 L986 904 L983 902 L984 901 L994 901 Z M737 902 L738 901 L739 902 L738 903 Z M1002 923 L1014 940 L1022 956 L1026 967 L1029 979 L1029 984 L1030 985 L1030 998 L1031 999 L1030 1016 L1029 1017 L1029 1023 L1025 1039 L1013 1068 L1000 1088 L990 1100 L977 1113 L958 1128 L933 1143 L931 1142 L932 1143 L906 1156 L891 1162 L877 1166 L874 1168 L871 1168 L861 1172 L843 1176 L839 1178 L835 1178 L826 1181 L817 1182 L797 1187 L792 1187 L782 1190 L777 1190 L771 1192 L765 1192 L764 1193 L759 1193 L746 1196 L733 1197 L732 1198 L718 1199 L717 1200 L709 1200 L708 1201 L701 1201 L700 1202 L694 1202 L693 1201 L692 1186 L691 1185 L691 1150 L690 1149 L690 1119 L691 1118 L702 1117 L703 1116 L708 1116 L709 1115 L728 1112 L748 1107 L752 1105 L755 1105 L759 1103 L766 1102 L772 1099 L775 1099 L805 1088 L810 1085 L824 1080 L841 1071 L844 1072 L843 1071 L864 1060 L889 1044 L891 1045 L890 1044 L893 1041 L903 1035 L922 1020 L943 999 L952 986 L956 978 L957 979 L956 976 L958 973 L959 974 L958 971 L960 967 L961 969 L960 967 L961 959 L962 958 L962 937 L960 931 L961 927 L960 929 L957 922 L951 915 L952 914 L951 915 L949 913 L950 912 L949 913 L938 907 L930 905 L934 902 L945 898 L951 898 L962 901 L977 901 L989 910 Z M150 942 L162 925 L174 913 L189 902 L199 897 L210 901 L231 905 L236 908 L238 908 L239 909 L238 910 L232 910 L224 912 L213 918 L208 923 L207 922 L208 923 L204 928 L199 939 L197 954 L198 955 L199 967 L202 976 L206 983 L205 985 L206 984 L208 988 L217 1000 L239 1021 L275 1045 L308 1062 L310 1062 L319 1067 L326 1069 L341 1076 L354 1080 L357 1082 L356 1083 L359 1082 L378 1089 L381 1089 L405 1097 L433 1104 L437 1104 L442 1106 L471 1111 L472 1112 L478 1112 L484 1114 L503 1116 L504 1117 L511 1117 L512 1118 L539 1120 L540 1121 L551 1121 L552 1122 L568 1122 L569 1123 L596 1123 L597 1124 L620 1124 L621 1123 L624 1124 L625 1123 L626 1124 L626 1190 L625 1191 L625 1205 L626 1206 L625 1207 L606 1207 L605 1208 L531 1206 L530 1205 L518 1205 L517 1204 L505 1204 L504 1203 L477 1201 L476 1200 L469 1200 L468 1199 L462 1199 L461 1198 L455 1198 L442 1195 L418 1192 L407 1189 L402 1189 L396 1187 L385 1186 L384 1185 L350 1179 L303 1167 L277 1158 L276 1157 L278 1156 L274 1157 L235 1139 L205 1120 L189 1107 L174 1092 L159 1073 L151 1060 L151 1058 L149 1056 L149 1054 L144 1045 L138 1024 L137 1013 L136 1012 L136 986 L137 985 L137 979 L138 978 L138 973 L140 965 Z M937 897 L938 895 L941 896 L939 898 Z M136 931 L148 915 L166 900 L176 895 L184 893 L192 894 L196 896 L190 899 L188 898 L189 899 L187 901 L184 902 L178 907 L176 906 L175 907 L176 908 L171 912 L170 911 L171 912 L162 921 L161 920 L159 922 L160 924 L149 938 L141 954 L135 974 L134 988 L133 989 L133 1009 L134 1010 L135 1024 L140 1042 L147 1058 L157 1075 L172 1094 L185 1107 L203 1122 L221 1134 L253 1151 L255 1151 L262 1155 L282 1162 L285 1164 L291 1165 L318 1174 L338 1179 L342 1179 L351 1182 L375 1186 L376 1187 L381 1187 L387 1189 L392 1189 L398 1191 L403 1191 L409 1193 L414 1193 L420 1195 L425 1195 L426 1196 L431 1196 L444 1199 L450 1199 L457 1201 L487 1204 L488 1205 L507 1206 L508 1207 L535 1208 L536 1209 L557 1209 L558 1210 L624 1210 L625 1209 L627 1211 L630 1221 L634 1228 L631 1236 L623 1238 L545 1237 L544 1236 L531 1236 L530 1235 L497 1233 L496 1232 L480 1231 L479 1230 L473 1230 L472 1229 L466 1229 L465 1228 L459 1228 L458 1227 L434 1224 L433 1223 L389 1215 L384 1213 L350 1207 L341 1204 L337 1204 L321 1200 L300 1193 L297 1193 L256 1178 L247 1173 L248 1172 L245 1173 L219 1159 L217 1157 L218 1156 L217 1157 L214 1156 L212 1154 L213 1153 L211 1154 L184 1134 L157 1107 L140 1084 L133 1072 L125 1054 L120 1038 L120 1034 L117 1023 L116 992 L117 991 L117 984 L118 983 L118 978 L121 965 L128 946 Z M273 888 L274 887 L275 888 L274 889 Z M65 885 L66 884 L67 885 L66 886 Z M497 882 L498 881 L499 882 L498 883 Z M356 879 L357 878 L358 879 L357 880 Z M351 879 L352 878 L353 879 L352 880 Z M848 879 L857 879 L851 879 L850 878 Z M119 876 L120 875 L121 876 L120 877 Z M120 875 L121 874 L122 875 L121 876 Z M757 874 L758 873 L759 874 L758 875 Z M121 874 L122 873 L123 874 L122 875 Z M768 873 L767 872 L766 873 Z M760 870 L761 872 L759 874 L758 872 Z M367 871 L368 870 L369 871 L368 872 Z M938 895 L936 896 L938 898 L932 901 L926 906 L918 908 L863 946 L844 957 L814 972 L812 972 L803 977 L788 983 L756 994 L753 994 L749 996 L746 996 L742 998 L722 1003 L718 1003 L702 1007 L697 1007 L696 1008 L693 1007 L694 1006 L695 956 L696 953 L708 946 L718 937 L730 922 L744 898 L751 889 L752 886 L759 878 L770 878 L782 881 L804 883 L805 884 L846 885 L847 884 L858 884 L859 883 L875 881 L892 874 L898 869 L908 878 L920 886 Z M1041 866 L1050 882 L1056 897 L1066 932 L1069 954 L1070 955 L1070 961 L1071 962 L1071 970 L1072 971 L1071 1012 L1070 1013 L1067 1032 L1064 1038 L1064 1041 L1052 1068 L1032 1102 L1004 1141 L965 1187 L933 1219 L888 1258 L847 1288 L798 1317 L796 1317 L792 1320 L788 1321 L766 1332 L761 1333 L748 1339 L710 1351 L671 1359 L670 1358 L675 1352 L677 1344 L679 1342 L679 1340 L682 1335 L686 1323 L689 1306 L690 1305 L692 1283 L693 1282 L693 1272 L694 1271 L694 1253 L695 1252 L694 1249 L695 1248 L695 1237 L694 1236 L695 1235 L731 1231 L732 1230 L755 1227 L756 1226 L795 1219 L862 1202 L899 1189 L929 1175 L961 1155 L987 1134 L1004 1117 L1016 1102 L1030 1080 L1039 1061 L1040 1062 L1039 1059 L1046 1039 L1048 1026 L1049 1025 L1049 1020 L1050 1019 L1050 1008 L1051 1007 L1050 987 L1049 986 L1047 971 L1042 956 L1032 936 L1023 923 L1012 911 L1003 904 L994 899 L1003 896 L1020 886 Z M764 866 L765 865 L766 866 L765 867 Z M763 865 L765 867 L761 871 L760 869 Z M765 865 L766 864 L767 865 L766 866 Z M332 865 L333 864 L334 865 L333 866 Z M766 864 L767 863 L768 864 L767 865 Z M331 864 L332 863 L333 864 L332 865 Z M330 863 L331 862 L332 863 L331 864 Z M883 861 L884 860 L885 861 L884 862 Z M761 861 L762 860 L763 861 L762 862 Z M1042 863 L1046 858 L1058 871 L1064 874 L1072 876 L1063 880 L1053 882 L1044 866 L1045 865 L1044 866 Z M76 894 L77 893 L79 894 L86 894 L87 895 L99 894 L112 888 L127 874 L135 863 L141 850 L150 863 L162 875 L184 890 L182 892 L179 892 L170 896 L168 895 L169 896 L167 898 L165 897 L166 898 L165 899 L163 898 L164 899 L148 912 L135 929 L125 948 L124 947 L125 950 L123 953 L118 968 L118 972 L115 983 L115 989 L114 990 L114 1015 L115 1016 L115 1023 L116 1024 L116 1029 L120 1046 L125 1060 L129 1067 L128 1070 L129 1069 L140 1088 L139 1089 L140 1088 L157 1111 L177 1131 L190 1142 L224 1165 L254 1180 L301 1197 L304 1197 L311 1200 L326 1203 L334 1206 L338 1206 L352 1210 L400 1219 L410 1222 L415 1222 L425 1225 L430 1225 L431 1226 L453 1229 L454 1230 L474 1232 L475 1233 L490 1234 L491 1235 L520 1237 L521 1238 L534 1238 L535 1239 L552 1239 L553 1240 L605 1240 L606 1241 L607 1240 L628 1240 L629 1241 L625 1250 L625 1254 L623 1260 L624 1291 L623 1292 L622 1317 L621 1318 L621 1325 L620 1326 L618 1343 L622 1330 L623 1318 L624 1317 L624 1309 L625 1308 L625 1300 L626 1299 L626 1260 L631 1245 L635 1240 L682 1237 L683 1236 L690 1236 L691 1235 L692 1236 L691 1274 L690 1275 L690 1285 L689 1286 L688 1301 L687 1302 L685 1316 L681 1330 L679 1333 L678 1332 L679 1335 L678 1336 L677 1334 L678 1337 L674 1345 L670 1350 L665 1360 L652 1361 L651 1362 L630 1363 L629 1364 L614 1364 L613 1365 L549 1364 L548 1363 L537 1363 L536 1362 L510 1360 L509 1359 L486 1356 L437 1344 L393 1329 L378 1322 L371 1320 L364 1316 L365 1315 L364 1316 L360 1315 L337 1304 L335 1302 L336 1301 L334 1302 L322 1296 L277 1269 L229 1234 L183 1194 L147 1157 L115 1117 L94 1085 L80 1059 L72 1039 L67 1019 L66 1005 L65 1004 L65 990 L64 989 L65 958 L66 957 L67 938 L71 921 L72 911 L76 898 Z M907 847 L908 849 L906 853 L905 852 L905 848 Z M364 866 L365 859 L373 850 L379 846 L389 841 L413 835 L433 835 L446 838 L462 846 L478 859 L419 874 L414 874 L407 876 L393 876 L392 877 L383 877 L371 874 L368 872 L369 870 L367 871 L366 870 L367 867 L366 869 Z M132 833 L135 841 L139 847 L139 849 L136 854 L135 853 L136 855 L133 861 L131 863 L130 862 L131 863 L130 865 L129 864 L130 866 L123 874 L122 873 L119 876 L120 877 L110 886 L108 885 L109 886 L106 888 L103 887 L105 888 L102 890 L93 891 L92 892 L80 891 L70 888 L67 886 L68 885 L77 885 L86 882 L97 875 L108 865 L118 853 L125 842 L130 832 Z M889 852 L887 859 L885 861 L884 860 L883 861 L884 862 L877 867 L864 871 L848 872 L847 873 L846 872 L817 871 L812 869 L800 867 L778 858 L789 848 L807 836 L809 836 L818 831 L837 826 L854 826 L869 830 L879 836 L886 843 Z M350 857 L353 851 L362 842 L378 833 L392 828 L404 825 L409 825 L410 824 L417 824 L418 823 L437 823 L438 824 L444 824 L455 827 L469 834 L478 841 L490 853 L499 864 L530 910 L545 928 L543 932 L537 926 L538 925 L537 926 L535 924 L536 922 L535 924 L530 919 L518 904 L515 899 L516 898 L515 899 L497 875 L491 869 L492 868 L491 869 L480 857 L465 845 L447 836 L435 833 L430 833 L429 832 L422 832 L421 833 L405 834 L388 839 L377 844 L371 848 L365 854 L362 859 L362 863 L361 864 L362 865 L362 869 L367 875 L373 878 L386 879 L387 880 L396 880 L397 879 L405 879 L406 878 L423 876 L439 871 L455 868 L463 865 L480 862 L488 869 L498 881 L497 882 L491 881 L490 880 L493 879 L492 878 L490 880 L467 878 L466 879 L444 880 L443 881 L437 881 L436 882 L417 884 L416 885 L408 885 L407 886 L391 886 L390 887 L371 886 L359 882 L357 880 L358 879 L357 878 L355 879 L353 876 L354 875 L353 876 L351 874 L352 872 L351 873 L349 869 Z M903 848 L902 860 L893 870 L885 875 L882 875 L875 878 L867 879 L866 880 L849 881 L848 882 L815 882 L814 881 L793 880 L792 879 L787 879 L786 878 L781 878 L780 877 L775 877 L762 874 L775 861 L779 861 L792 867 L805 871 L819 873 L820 874 L826 874 L827 875 L853 875 L854 874 L867 873 L881 868 L888 862 L891 856 L891 848 L887 840 L878 832 L863 825 L841 823 L840 824 L824 826 L802 836 L790 844 L774 858 L773 857 L774 858 L768 864 L767 863 L764 866 L763 865 L772 850 L789 832 L807 821 L828 815 L836 815 L837 814 L857 815 L870 818 L880 822 L887 826 L896 834 L899 838 Z M124 779 L125 780 L124 783 L123 782 Z M886 762 L887 761 L888 762 L887 763 Z M885 761 L886 760 L887 761 L886 762 Z M884 760 L885 759 L886 760 L885 761 Z M131 752 L133 755 L130 761 L125 779 L124 778 L125 767 Z M131 751 L132 750 L134 753 L133 754 Z M872 739 L873 738 L874 739 L873 740 Z M139 738 L140 737 L141 739 L140 740 Z M138 737 L140 741 L138 744 L137 743 L138 745 L134 752 L132 750 L132 748 Z M140 737 L141 736 L142 737 L141 738 Z M147 732 L148 731 L149 732 L148 733 Z M148 731 L149 730 L150 731 L149 732 Z M143 731 L144 730 L145 731 L144 732 Z M142 730 L144 733 L139 738 L138 736 Z M149 730 L150 729 L151 730 L150 731 Z M144 729 L145 728 L146 730 L145 731 Z M142 729 L143 728 L144 730 L143 731 Z M145 728 L146 727 L147 728 L146 729 Z M1057 725 L1058 724 L1059 725 L1058 726 Z M155 724 L156 723 L157 724 L156 725 Z M1056 723 L1057 722 L1058 723 L1057 724 Z M156 723 L157 722 L158 723 L157 724 Z M1055 722 L1056 721 L1057 722 L1056 723 Z M157 722 L158 721 L159 722 L158 723 Z M155 721 L156 725 L151 730 L150 728 Z M158 721 L159 720 L160 721 L159 722 Z M1054 720 L1055 719 L1056 720 L1055 721 Z M157 718 L158 720 L156 722 L155 720 Z M149 718 L151 722 L144 729 L143 727 Z M848 718 L849 717 L850 718 L849 719 Z M152 717 L153 719 L151 721 L150 719 Z M1050 716 L1051 715 L1052 716 L1051 717 Z M152 716 L153 715 L154 717 L153 718 Z M151 715 L152 717 L150 719 L149 717 Z M153 715 L154 714 L155 715 L154 716 Z M1056 714 L1057 713 L1058 714 L1057 715 Z M1052 713 L1055 717 L1054 720 L1051 717 Z M433 713 L434 714 L427 722 L422 731 L418 747 L419 758 L423 770 L425 783 L426 784 L426 789 L427 790 L429 820 L428 821 L410 822 L409 823 L395 825 L378 831 L360 841 L353 848 L348 856 L347 860 L347 869 L352 878 L350 879 L347 877 L348 876 L346 877 L340 873 L333 866 L334 865 L331 862 L330 863 L325 857 L320 846 L319 835 L318 834 L318 818 L319 817 L320 803 L326 782 L335 764 L337 762 L338 763 L337 761 L339 759 L340 760 L339 759 L340 757 L346 751 L347 752 L346 751 L353 744 L363 737 L381 729 L387 728 L399 723 L406 722 Z M433 713 L434 712 L435 713 L434 714 Z M1057 707 L1063 718 L1068 732 L1068 736 L1069 737 L1069 742 L1068 743 L1062 726 L1057 716 L1058 713 L1056 713 L1054 711 Z M159 706 L160 705 L161 706 L160 707 Z M160 705 L161 704 L162 705 L161 706 Z M829 703 L831 704 L839 704 L858 709 L862 709 L884 718 L899 728 L913 742 L922 755 L929 769 L935 787 L937 801 L938 802 L938 809 L939 810 L939 834 L938 835 L937 848 L934 861 L925 885 L922 883 L924 881 L922 883 L917 881 L910 876 L906 872 L907 871 L905 872 L900 867 L907 858 L911 850 L915 833 L915 816 L912 805 L913 800 L912 802 L901 779 L902 776 L901 778 L890 760 L873 740 L874 739 L873 738 L872 739 L870 737 L871 736 L870 737 L867 735 L858 726 L849 719 L850 718 L849 717 L847 718 L828 704 Z M159 703 L160 704 L159 706 L160 708 L155 715 L154 714 L152 716 L151 714 Z M161 703 L162 702 L163 704 L162 705 Z M159 703 L160 702 L161 703 L160 704 Z M162 702 L163 701 L164 702 L163 703 Z M160 701 L161 700 L162 702 L161 703 Z M1049 700 L1050 699 L1051 701 L1050 702 Z M163 700 L164 699 L165 701 L164 702 Z M1048 699 L1049 698 L1050 699 L1049 700 Z M396 699 L396 701 L398 700 L398 699 L397 700 Z M164 699 L165 698 L166 699 L165 700 Z M825 699 L832 697 L839 697 L840 696 L858 696 L859 697 L870 697 L876 699 L881 699 L896 704 L904 708 L922 721 L932 732 L939 742 L947 758 L953 776 L955 789 L956 790 L956 795 L957 796 L957 802 L958 803 L958 819 L959 820 L958 823 L958 840 L957 841 L955 858 L947 886 L943 893 L938 891 L940 890 L936 891 L931 888 L932 887 L930 888 L929 887 L930 886 L929 887 L928 886 L929 880 L931 877 L939 850 L940 838 L941 837 L941 827 L942 826 L942 816 L941 815 L941 806 L940 805 L939 794 L936 782 L932 772 L933 769 L932 770 L923 752 L910 735 L901 727 L902 726 L901 727 L897 724 L898 723 L897 724 L883 715 L881 715 L874 711 L859 706 L825 701 L824 700 Z M404 697 L405 698 L400 702 L371 708 L359 712 L344 719 L332 727 L311 748 L310 747 L311 749 L298 769 L289 793 L286 810 L285 811 L285 818 L284 819 L284 868 L281 879 L277 886 L275 888 L274 887 L273 888 L274 889 L272 892 L271 891 L270 870 L269 869 L269 827 L270 826 L270 816 L271 815 L273 793 L280 768 L285 759 L286 760 L285 758 L295 741 L316 720 L328 712 L347 703 L372 697 L381 697 L382 696 Z M164 696 L165 698 L162 701 L161 699 Z M167 695 L168 697 L166 699 L165 697 Z M167 695 L168 694 L169 695 L168 696 Z M166 693 L167 695 L165 697 L164 695 Z M168 693 L169 692 L170 694 L169 695 Z M1041 687 L1042 686 L1044 689 L1043 690 Z M1035 675 L1036 676 L1037 674 L1039 676 L1038 678 L1039 677 L1042 680 L1055 702 L1057 707 L1054 710 L1052 707 L1053 705 L1054 706 L1053 705 L1052 706 L1050 703 L1051 701 L1049 697 L1048 698 L1044 693 L1043 690 L1044 689 L1045 690 L1043 686 L1041 687 L1034 677 Z M1033 675 L1034 674 L1035 675 L1034 676 Z M1032 673 L1033 672 L1034 674 L1033 675 Z M1031 672 L1032 671 L1033 672 L1032 673 Z M1030 670 L1031 669 L1032 671 L1031 672 Z M1029 669 L1030 668 L1031 669 L1030 670 Z M198 656 L199 658 L188 670 L180 681 L176 685 L175 684 L176 686 L170 693 L169 692 L167 694 L166 692 L188 664 L194 658 L195 659 Z M198 656 L199 655 L200 656 L199 657 Z M199 655 L200 654 L201 655 L200 656 Z M197 654 L198 656 L195 659 L194 657 Z M1018 654 L1019 653 L1020 654 L1019 655 Z M200 654 L201 653 L202 654 L201 655 Z M197 654 L198 653 L199 654 L198 655 Z M1017 653 L1018 652 L1019 653 L1018 654 Z M201 653 L202 652 L203 653 L202 654 Z M198 653 L199 652 L200 653 L199 654 Z M202 652 L203 651 L204 652 L203 653 Z M1020 650 L1037 673 L1036 675 L1030 668 L1029 669 L1019 656 L1021 654 L1019 652 Z M1016 651 L1017 650 L1018 652 L1017 653 Z M199 652 L200 650 L202 651 L200 653 Z M1015 650 L1016 649 L1017 650 L1016 651 Z M1017 648 L1018 647 L1020 650 L1019 651 Z M96 642 L97 641 L98 643 L97 644 Z M213 640 L214 639 L215 640 L214 641 Z M97 640 L98 639 L99 641 L98 642 Z M214 639 L215 638 L216 639 L215 640 Z M215 638 L216 637 L217 638 L216 639 Z M1009 636 L1018 647 L1015 650 L1013 648 L1014 645 L1013 647 L1008 641 L1010 640 L1009 639 L1008 641 L1006 639 Z M1005 637 L1006 636 L1007 638 L1006 639 Z M99 637 L100 636 L101 637 L100 638 Z M1004 636 L1005 635 L1006 636 L1005 637 Z M216 637 L217 635 L219 636 L217 638 Z M1003 635 L1004 634 L1005 635 L1004 636 Z M92 634 L95 636 L98 636 L100 638 L99 640 L97 639 L97 641 L95 642 L97 644 L95 648 L91 637 Z M1002 634 L1003 633 L1004 634 L1003 635 Z M1003 633 L1005 631 L1009 636 L1008 637 Z M1003 631 L1004 630 L1005 631 L1004 632 Z M87 628 L88 627 L89 628 L88 629 Z M220 624 L221 623 L222 624 L221 625 Z M990 620 L991 619 L992 620 L991 621 Z M989 619 L990 618 L991 619 L990 620 Z M988 618 L989 617 L990 618 L989 619 Z M987 617 L988 616 L989 617 L988 618 Z M986 616 L987 615 L988 616 L987 617 Z M237 616 L238 615 L239 616 L238 617 Z M994 615 L995 614 L996 615 L995 616 Z M238 615 L239 614 L240 615 L239 616 Z M993 614 L994 613 L995 614 L994 615 Z M984 614 L986 613 L987 615 L986 616 Z M239 614 L240 613 L241 614 L240 615 Z M240 613 L241 612 L242 613 L241 614 Z M987 611 L1004 629 L1002 634 L991 621 L992 620 L986 613 Z M239 611 L240 612 L237 615 L238 617 L229 626 L227 625 L232 620 L226 626 L227 625 L228 627 L219 636 L218 634 L221 631 L213 640 L214 641 L204 652 L203 650 L205 648 L202 651 L201 649 L212 637 Z M247 607 L248 605 L250 606 L248 608 Z M245 605 L248 608 L242 613 L239 611 Z M984 605 L985 604 L986 605 L985 606 Z M975 605 L976 604 L977 605 L976 606 Z M249 605 L250 604 L251 605 L250 606 Z M252 602 L253 601 L254 602 L253 603 Z M976 600 L987 611 L984 614 L976 606 L978 605 L977 604 L975 605 L973 603 Z M253 601 L255 599 L257 600 L255 602 Z M967 597 L968 596 L969 597 L968 598 Z M966 596 L967 595 L968 596 L967 597 Z M965 595 L966 594 L967 595 L966 596 Z M82 595 L82 617 L83 617 L82 614 Z M964 594 L965 593 L966 594 L965 595 Z M262 594 L263 593 L264 594 L263 595 Z M263 595 L261 597 L259 596 L260 597 L257 600 L256 598 L252 602 L253 603 L251 605 L250 604 L247 606 L245 605 L260 592 Z M958 589 L959 588 L960 589 L959 590 Z M268 589 L269 588 L270 589 L269 590 Z M957 588 L958 587 L959 588 L958 589 Z M956 587 L957 586 L958 587 L957 588 Z M955 586 L956 585 L957 586 L956 587 Z M957 585 L959 584 L976 600 L973 603 L968 598 L969 597 L966 593 L964 594 L959 590 L960 588 Z M951 583 L952 582 L953 583 L952 584 Z M950 582 L951 581 L952 582 L951 583 Z M949 581 L950 580 L951 581 L950 582 Z M950 579 L952 578 L958 584 L955 586 L952 584 L953 582 Z M279 579 L280 581 L274 586 L273 584 L272 585 L274 586 L270 589 L269 587 L268 588 L269 590 L264 594 L260 592 L277 578 Z M938 572 L939 571 L940 572 L939 573 Z M940 571 L942 570 L951 578 L949 581 L945 578 L946 576 L945 578 L939 573 Z M292 573 L285 578 L284 576 L283 577 L285 578 L281 581 L278 578 L288 570 Z M672 569 L674 571 L675 570 L676 571 L675 573 L676 572 L680 578 L685 593 L687 596 L695 622 L694 627 L695 625 L702 645 L701 648 L702 646 L712 667 L721 679 L720 680 L721 679 L730 688 L744 698 L764 708 L826 728 L850 739 L865 748 L877 757 L890 770 L897 779 L907 797 L912 814 L912 836 L910 841 L910 845 L908 848 L907 845 L906 845 L905 848 L904 847 L902 839 L890 826 L876 818 L863 814 L851 813 L850 812 L827 813 L811 817 L797 824 L787 831 L775 843 L764 860 L761 861 L762 862 L761 864 L760 863 L761 865 L739 902 L738 900 L737 902 L738 904 L737 905 L736 904 L737 906 L731 914 L730 917 L717 934 L711 940 L709 938 L710 940 L703 946 L701 945 L711 931 L715 922 L717 920 L717 918 L719 916 L727 892 L728 882 L731 870 L732 847 L733 846 L732 804 L731 803 L731 795 L730 794 L728 775 L720 741 L714 724 L696 688 L687 662 L684 645 L683 644 L682 632 L681 631 L677 591 L673 575 L671 571 Z M673 569 L674 568 L675 570 L674 571 Z M672 568 L673 567 L674 568 L673 569 Z M289 570 L292 567 L296 570 L292 573 Z M62 567 L68 584 L78 594 L77 595 L77 619 L78 623 L84 630 L86 630 L89 633 L89 640 L93 652 L86 667 L85 666 L86 668 L85 669 L84 668 L85 671 L83 674 L82 672 L83 676 L76 695 L76 698 L73 705 L70 718 L69 717 L69 713 L69 717 L70 718 L69 722 L65 711 L65 706 L62 693 L62 686 L61 685 L61 678 L60 677 L60 670 L59 669 L58 638 L57 637 L57 593 L58 592 L58 580 L59 579 L60 570 Z M303 564 L304 563 L305 564 L304 565 Z M927 564 L931 562 L941 570 L937 572 Z M928 562 L929 561 L930 562 L929 563 Z M302 561 L304 565 L301 567 L299 565 L300 567 L296 570 L293 567 Z M66 561 L79 561 L82 563 L81 571 L80 572 L80 579 L79 580 L78 579 L79 580 L79 587 L77 590 L72 586 L67 577 L63 563 Z M1044 560 L1046 567 L1045 568 L1044 567 L1043 570 L1041 563 L1042 562 L1043 564 Z M926 559 L929 561 L927 564 L924 562 Z M667 559 L673 566 L671 569 L666 561 Z M665 559 L666 558 L667 559 L666 560 Z M307 558 L308 562 L305 564 L302 561 Z M325 557 L326 556 L327 558 L326 559 Z M62 558 L67 553 L70 552 L79 552 L83 554 L81 560 L80 559 L65 559 L63 560 Z M654 551 L655 550 L656 551 L655 552 Z M905 550 L908 547 L912 550 L911 551 L913 550 L926 559 L923 562 L919 559 L920 557 L918 559 Z M328 551 L317 558 L309 562 L307 558 L314 553 L317 555 L315 553 L317 551 L320 550 L322 552 L320 550 L325 547 L326 550 Z M904 545 L907 547 L905 550 L901 548 Z M901 545 L902 544 L903 545 L902 546 Z M575 544 L578 545 L576 549 L575 561 L574 562 L574 648 L575 649 L575 656 L574 657 L575 658 L575 670 L574 671 L575 672 L575 679 L574 680 L574 695 L573 696 L573 707 L572 708 L572 719 L571 720 L571 760 L572 761 L571 840 L572 841 L573 871 L574 872 L574 879 L575 880 L575 886 L576 887 L579 911 L580 911 L580 908 L578 901 L578 894 L577 893 L577 886 L576 885 L576 878 L575 877 L574 851 L573 850 L573 803 L574 802 L573 717 L574 716 L574 704 L575 703 L575 693 L576 692 L576 623 L575 622 L575 565 L576 564 L576 557 L577 556 L578 547 L581 543 L590 542 L591 541 L613 541 L614 540 L636 542 L644 544 L655 550 L654 551 L655 552 L656 551 L663 559 L667 567 L666 569 L667 568 L669 572 L668 575 L669 573 L670 574 L675 594 L680 640 L681 641 L681 645 L682 646 L686 667 L694 689 L700 701 L699 703 L700 702 L704 708 L714 730 L723 761 L725 776 L727 782 L727 788 L728 789 L731 836 L730 837 L729 867 L728 868 L728 874 L727 875 L725 889 L724 890 L723 888 L724 890 L723 898 L712 925 L710 927 L709 926 L710 928 L708 932 L706 934 L705 933 L706 934 L705 937 L697 948 L696 947 L697 948 L696 950 L686 954 L678 955 L673 957 L668 957 L667 958 L649 959 L648 960 L616 960 L615 959 L606 959 L605 958 L600 958 L583 953 L571 947 L557 937 L542 922 L521 893 L522 892 L521 893 L514 882 L511 879 L508 874 L509 873 L508 874 L503 866 L492 852 L479 839 L471 833 L458 826 L455 826 L452 824 L444 822 L436 822 L431 820 L431 804 L430 803 L429 787 L420 749 L422 738 L429 722 L441 709 L443 709 L455 703 L472 692 L493 672 L500 662 L501 663 L500 662 L508 650 L518 630 L518 628 L523 618 L525 610 L527 607 L535 582 L544 565 L556 553 L564 548 Z M1034 534 L1035 535 L1034 539 L1033 538 Z M354 535 L354 536 L356 536 Z M518 534 L519 533 L520 535 L519 536 Z M873 534 L875 533 L874 532 L875 531 L881 534 L880 535 L883 534 L892 539 L890 540 L893 539 L900 543 L899 544 L901 543 L902 547 L900 548 Z M369 532 L346 543 L344 543 L330 551 L327 550 L328 549 L326 547 L328 545 L340 539 L344 541 L341 539 L346 536 L349 539 L349 537 L347 536 L359 530 L366 528 L367 531 Z M382 525 L382 523 L380 524 Z M583 521 L584 520 L585 521 L584 522 Z M389 524 L371 532 L369 532 L368 531 L369 530 L366 528 L371 525 L373 525 L374 526 L373 527 L375 528 L373 525 L384 520 L386 520 Z M582 520 L583 521 L582 522 L613 522 L610 521 L586 521 Z M127 784 L132 763 L140 747 L153 731 L167 718 L189 701 L205 691 L223 682 L248 674 L259 673 L260 672 L269 672 L270 671 L308 671 L309 672 L351 674 L352 675 L384 674 L385 673 L396 672 L416 666 L423 662 L425 662 L438 654 L439 655 L438 654 L445 649 L446 650 L445 649 L451 644 L452 645 L451 644 L458 638 L459 639 L458 638 L460 636 L461 637 L460 636 L476 617 L488 597 L493 586 L495 584 L496 585 L495 584 L496 580 L498 578 L506 562 L507 563 L506 561 L509 555 L521 537 L533 525 L535 524 L536 525 L535 524 L536 523 L538 524 L537 523 L538 522 L549 518 L560 523 L559 524 L562 523 L567 525 L579 526 L580 527 L615 527 L616 526 L625 526 L626 525 L643 523 L653 520 L656 518 L663 519 L664 520 L662 521 L665 520 L673 525 L684 537 L691 547 L690 549 L691 548 L693 551 L692 552 L693 551 L697 557 L710 583 L725 621 L731 633 L735 638 L734 640 L735 639 L741 646 L753 655 L770 663 L773 663 L784 667 L788 667 L794 669 L801 669 L802 670 L827 671 L828 670 L852 669 L853 668 L860 668 L861 667 L883 665 L884 664 L894 664 L895 663 L930 663 L931 664 L945 665 L970 671 L981 675 L982 676 L981 677 L984 676 L1011 689 L1027 699 L1043 712 L1057 728 L1062 736 L1068 752 L1068 758 L1069 759 L1069 781 L1068 782 L1067 797 L1066 798 L1063 816 L1058 831 L1049 849 L1038 865 L1018 884 L1012 888 L1010 887 L1011 888 L1009 890 L995 896 L987 897 L986 898 L980 898 L979 899 L971 899 L970 898 L963 898 L962 897 L964 896 L957 897 L956 896 L947 895 L946 892 L947 891 L948 893 L949 891 L948 892 L947 891 L947 889 L951 880 L952 881 L951 878 L956 863 L956 859 L959 848 L959 842 L960 841 L961 816 L960 815 L959 794 L958 793 L955 775 L950 760 L947 755 L948 752 L947 753 L938 737 L939 736 L938 737 L936 734 L937 733 L936 734 L925 721 L906 707 L894 701 L880 697 L868 696 L867 695 L857 695 L856 694 L829 695 L823 697 L821 699 L821 702 L850 723 L863 734 L873 744 L871 747 L873 745 L885 758 L884 760 L877 754 L878 753 L877 754 L872 750 L873 749 L872 750 L862 743 L863 742 L861 743 L839 731 L837 731 L827 726 L819 724 L816 722 L813 722 L797 716 L784 713 L781 711 L778 711 L762 705 L743 695 L733 688 L720 675 L713 665 L703 643 L696 621 L696 618 L693 611 L691 601 L689 598 L683 580 L675 565 L662 551 L655 546 L640 540 L627 539 L626 538 L595 538 L594 539 L587 539 L586 540 L572 542 L561 547 L553 552 L540 567 L532 584 L518 625 L510 642 L508 644 L504 653 L494 667 L476 686 L456 700 L435 710 L376 728 L357 738 L356 737 L357 738 L351 742 L338 755 L326 775 L320 792 L317 809 L316 810 L315 833 L316 834 L316 841 L319 851 L325 862 L341 877 L359 886 L367 888 L372 888 L373 889 L404 889 L405 888 L414 888 L415 887 L421 887 L422 886 L428 886 L429 885 L435 885 L443 883 L450 883 L451 882 L485 882 L486 883 L495 884 L502 887 L529 922 L545 938 L558 948 L572 955 L575 958 L580 973 L580 978 L582 983 L584 998 L586 1004 L586 1009 L585 1010 L584 1009 L584 1011 L586 1009 L587 1010 L586 1013 L559 1011 L558 1010 L551 1010 L550 1009 L543 1009 L536 1007 L524 1006 L523 1005 L494 1000 L485 997 L481 997 L473 994 L448 988 L441 985 L438 985 L359 957 L352 953 L347 952 L299 931 L297 931 L256 912 L250 911 L238 906 L242 904 L256 903 L268 898 L279 888 L284 879 L287 868 L287 841 L286 837 L287 836 L287 817 L288 816 L289 805 L294 789 L294 786 L305 762 L311 754 L312 755 L311 753 L313 751 L314 752 L313 750 L328 734 L343 723 L354 717 L370 711 L387 707 L392 707 L402 704 L407 700 L406 696 L395 695 L394 694 L374 695 L373 696 L357 698 L350 701 L341 703 L330 708 L313 719 L299 732 L291 742 L284 753 L275 774 L271 789 L269 807 L268 808 L266 854 L267 855 L268 883 L269 884 L269 892 L270 893 L257 900 L253 900 L247 902 L230 902 L229 901 L223 901 L210 898 L194 892 L193 891 L194 890 L193 891 L189 890 L179 884 L177 882 L178 881 L176 882 L170 878 L166 874 L167 873 L165 874 L151 860 L144 851 L133 830 L127 806 Z M406 518 L391 524 L389 524 L388 523 L390 522 L386 520 L392 517 L394 517 L395 519 L398 519 L394 517 L398 515 Z M551 514 L553 513 L557 515 L565 516 L566 517 L565 518 L562 518 L566 520 L563 521 L556 518 Z M549 513 L550 512 L551 513 L550 514 Z M437 512 L436 523 L432 540 L425 556 L416 569 L402 581 L400 580 L401 581 L397 584 L383 589 L372 590 L371 591 L355 589 L347 585 L348 584 L346 585 L341 582 L337 578 L338 577 L337 578 L332 573 L327 565 L326 559 L328 557 L326 556 L334 551 L336 551 L357 540 L364 538 L381 530 L428 514 L434 511 Z M442 511 L441 511 L441 515 Z M811 512 L815 511 L814 510 L817 509 L832 515 L829 516 L832 515 L837 516 L838 517 L836 518 L837 519 L839 519 L837 518 L840 517 L847 520 L845 521 L847 522 L846 521 L847 520 L854 522 L855 523 L852 524 L854 525 L856 523 L873 530 L874 533 L870 534 L855 527 Z M662 512 L660 514 L651 518 L634 522 L620 523 L619 524 L593 525 L592 524 L576 524 L565 521 L569 519 L567 519 L566 518 L567 517 L588 518 L589 519 L606 519 L607 518 L628 517 L629 518 L627 519 L632 520 L636 519 L628 517 L641 514 L645 514 L646 515 L643 516 L646 517 L648 516 L648 515 L645 514 L646 513 L652 512 L655 514 L655 513 L652 512 L659 509 Z M664 509 L665 508 L667 509 L666 510 Z M444 509 L444 514 L445 515 L444 531 L443 532 L442 542 L436 559 L424 578 L415 587 L405 594 L397 598 L394 597 L395 598 L392 600 L380 603 L373 603 L372 604 L359 603 L349 600 L346 598 L347 597 L346 598 L344 597 L345 596 L343 597 L342 596 L343 595 L341 596 L330 586 L329 584 L330 583 L329 584 L326 580 L320 564 L320 559 L321 558 L324 560 L324 563 L332 577 L341 585 L350 590 L361 593 L378 593 L379 592 L387 591 L397 586 L399 586 L413 576 L421 567 L427 558 L434 542 L435 543 L434 542 L435 537 L436 536 L437 537 L436 533 L439 520 L439 510 L443 508 Z M664 507 L665 510 L662 512 L661 511 L662 510 L660 509 Z M795 507 L799 504 L801 504 L805 506 L803 508 L806 509 L804 507 L808 506 L815 509 L812 510 L811 512 L808 512 Z M442 504 L443 503 L446 504 L445 505 Z M673 503 L667 509 L664 507 L671 502 Z M672 502 L673 501 L674 502 L673 503 Z M760 501 L763 500 L786 508 L789 508 L799 512 L815 516 L875 538 L876 539 L874 540 L876 539 L877 542 L873 555 L867 565 L859 573 L853 577 L839 582 L819 582 L802 577 L787 568 L779 560 L772 550 L767 539 L763 526 L761 510 L760 509 Z M673 501 L674 500 L675 501 L674 502 Z M777 499 L777 500 L780 500 Z M753 499 L756 498 L758 500 L758 510 L759 511 L760 525 L764 539 L770 552 L778 563 L792 575 L805 581 L820 585 L838 585 L849 582 L858 577 L868 568 L874 559 L879 542 L881 541 L883 543 L883 551 L880 562 L875 572 L860 587 L850 592 L837 595 L823 595 L822 594 L810 593 L790 585 L784 581 L778 575 L779 574 L778 575 L771 568 L766 561 L760 549 L753 523 L753 509 L752 508 Z M452 502 L448 504 L442 502 L443 505 L439 507 L436 506 L437 504 L433 505 L437 507 L431 510 L429 510 L428 509 L429 508 L427 507 L426 509 L428 509 L429 510 L428 511 L420 513 L408 518 L406 518 L404 515 L403 516 L400 515 L415 509 L417 509 L418 511 L421 511 L417 509 L423 506 L448 498 L450 498 L451 499 L449 500 Z M759 496 L762 495 L763 493 L766 493 L799 504 L798 505 L794 505 L796 506 L795 507 L792 507 L785 504 L789 503 L788 502 L783 504 L770 500 L769 499 L771 497 L768 496 L769 498 L766 499 Z M678 490 L679 489 L680 490 L679 491 Z M742 488 L746 487 L753 490 L750 491 L750 492 L753 492 L752 491 L755 490 L763 493 L759 494 L760 495 L759 496 L756 496 L743 492 L742 491 L744 489 Z M493 487 L494 486 L496 487 L495 488 Z M70 484 L71 483 L72 484 L71 485 Z M69 483 L70 482 L71 483 L70 484 Z M718 480 L720 479 L730 483 L742 486 L743 487 L741 489 L743 490 L740 491 L733 488 L735 486 L733 486 L734 487 L731 488 L724 484 L725 483 L723 484 Z M508 480 L500 486 L497 487 L495 486 L496 485 L492 486 L491 487 L493 487 L494 488 L493 489 L482 492 L473 496 L470 496 L469 495 L470 494 L467 494 L467 495 L470 496 L467 498 L454 502 L451 501 L453 500 L453 499 L450 498 L451 497 L459 495 L460 496 L458 497 L460 498 L462 497 L459 495 L460 494 L473 490 L478 492 L478 491 L475 490 L482 487 L485 488 L483 489 L486 489 L484 487 L485 486 L502 481 L505 479 Z M716 479 L717 478 L719 479 L718 480 Z M507 479 L508 478 L509 479 L508 480 Z M715 478 L716 477 L717 478 L716 479 Z M515 477 L515 482 L517 487 L517 498 L518 499 L518 521 L517 522 L517 531 L514 539 L514 542 L504 559 L484 599 L472 618 L464 628 L452 640 L438 651 L423 660 L421 660 L414 664 L402 668 L388 670 L387 671 L347 672 L346 671 L331 671 L330 670 L303 669 L302 668 L275 668 L274 669 L263 669 L262 670 L245 672 L226 678 L205 688 L187 699 L175 709 L171 711 L160 721 L157 718 L158 715 L175 691 L201 659 L208 652 L209 653 L208 652 L210 649 L221 638 L222 639 L221 638 L223 636 L224 637 L223 636 L234 625 L235 626 L234 625 L247 612 L274 589 L293 575 L317 560 L321 575 L326 584 L335 594 L346 601 L358 605 L372 606 L373 605 L381 605 L398 600 L406 596 L416 589 L430 574 L436 564 L437 565 L436 563 L441 553 L446 534 L446 527 L447 526 L447 509 L446 508 L449 506 L498 490 L505 486 L514 476 Z M1053 458 L1057 461 L1062 478 L1065 504 L1066 505 L1066 512 L1067 513 L1067 521 L1068 522 L1068 533 L1069 534 L1070 577 L1071 578 L1070 579 L1071 582 L1071 614 L1070 615 L1070 636 L1068 640 L1064 626 L1064 621 L1061 612 L1060 604 L1058 600 L1058 597 L1055 590 L1054 583 L1049 570 L1045 554 L1045 539 L1044 538 L1045 490 L1046 489 L1048 469 L1050 462 Z M60 457 L64 457 L71 461 L78 470 L85 486 L87 494 L87 499 L88 500 L89 517 L90 518 L90 538 L89 539 L89 555 L88 556 L87 576 L86 577 L86 584 L85 585 L85 592 L84 593 L84 613 L85 614 L85 619 L88 625 L87 628 L81 622 L80 611 L79 610 L79 600 L80 599 L81 586 L83 579 L83 570 L84 569 L84 562 L85 561 L85 547 L86 546 L85 510 L80 492 L75 483 L69 477 L61 473 L51 473 L49 474 L48 473 L53 462 L57 458 Z M1072 434 L1073 433 L1074 435 L1073 436 Z M1052 418 L1058 419 L1064 424 L1070 435 L1073 444 L1073 448 L1078 468 L1078 479 L1079 480 L1079 487 L1080 488 L1079 489 L1081 497 L1083 545 L1084 546 L1085 655 L1084 656 L1084 686 L1083 687 L1084 689 L1083 690 L1083 721 L1084 722 L1083 724 L1083 731 L1084 732 L1084 747 L1085 748 L1085 761 L1086 762 L1085 763 L1086 765 L1086 780 L1087 781 L1087 791 L1088 792 L1089 822 L1088 823 L1088 844 L1087 845 L1087 851 L1085 856 L1085 860 L1082 867 L1078 871 L1073 873 L1068 873 L1067 872 L1068 871 L1072 871 L1064 872 L1057 868 L1050 860 L1048 856 L1048 854 L1052 849 L1057 839 L1065 818 L1069 801 L1070 789 L1071 788 L1071 778 L1072 777 L1072 741 L1071 740 L1071 717 L1070 716 L1069 696 L1068 695 L1068 689 L1067 688 L1067 682 L1066 681 L1066 675 L1065 674 L1065 668 L1064 667 L1063 656 L1061 650 L1061 645 L1057 631 L1054 613 L1046 581 L1043 573 L1043 571 L1044 570 L1045 571 L1046 567 L1057 600 L1057 604 L1059 608 L1063 629 L1064 630 L1064 634 L1065 635 L1065 639 L1067 644 L1068 653 L1070 654 L1071 637 L1072 636 L1072 610 L1073 609 L1073 581 L1072 580 L1071 538 L1070 537 L1070 525 L1069 524 L1069 514 L1068 513 L1067 498 L1066 497 L1063 475 L1061 470 L1062 466 L1061 467 L1060 466 L1059 461 L1055 456 L1051 457 L1049 460 L1044 480 L1044 491 L1043 492 L1043 503 L1042 504 L1042 541 L1043 542 L1043 556 L1044 560 L1043 561 L1042 560 L1041 562 L1040 561 L1040 553 L1039 552 L1039 545 L1040 544 L1041 545 L1041 543 L1040 542 L1040 536 L1040 544 L1039 545 L1038 544 L1037 530 L1036 529 L1035 515 L1034 514 L1034 505 L1033 504 L1032 478 L1033 477 L1033 462 L1034 461 L1035 448 L1039 434 L1043 426 L1047 421 Z M498 414 L499 415 L498 418 L497 417 Z M85 404 L100 405 L109 408 L117 413 L128 424 L138 442 L137 445 L138 444 L140 447 L144 462 L144 468 L145 469 L146 500 L145 501 L145 512 L144 513 L144 521 L143 522 L141 538 L130 579 L128 582 L125 592 L121 599 L121 601 L119 604 L118 603 L119 605 L118 606 L117 605 L118 607 L116 610 L115 609 L116 611 L112 618 L111 617 L111 611 L112 610 L112 603 L114 596 L116 575 L119 562 L120 548 L122 540 L122 531 L123 530 L123 517 L124 516 L123 475 L122 474 L122 468 L121 467 L121 462 L118 449 L114 437 L109 427 L102 417 L93 409 L84 405 Z M1011 396 L1012 395 L1013 396 L1012 397 Z M1012 395 L1013 394 L1014 395 L1013 396 Z M1045 390 L1052 392 L1055 394 L1054 395 L1056 394 L1061 398 L1069 413 L1072 423 L1073 432 L1072 433 L1068 426 L1069 422 L1068 425 L1060 417 L1058 416 L1050 416 L1044 420 L1039 427 L1039 429 L1036 434 L1032 450 L1031 465 L1030 466 L1030 498 L1031 499 L1032 522 L1034 530 L1034 534 L1033 535 L1028 520 L1030 515 L1029 514 L1028 518 L1019 490 L1017 487 L1018 483 L1017 484 L1015 481 L1011 467 L1008 461 L1009 458 L1008 459 L1006 455 L1007 453 L1006 454 L1001 443 L1001 423 L1006 403 L1009 398 L1014 395 L1013 394 L1014 393 L1023 390 Z M469 370 L470 369 L471 370 L470 371 Z M744 339 L745 338 L746 339 L745 340 Z M755 328 L756 327 L757 328 L756 329 Z M253 328 L254 327 L255 328 L254 329 Z M254 327 L255 326 L256 327 L255 328 Z M255 326 L256 325 L257 326 L256 327 Z M261 325 L262 324 L263 325 L262 326 Z M263 324 L264 323 L265 324 L264 325 Z M761 323 L762 322 L763 323 L762 324 Z M265 323 L266 322 L268 323 L267 324 Z M925 320 L926 319 L927 320 L926 321 Z M267 318 L268 317 L269 318 L268 319 Z M434 340 L457 360 L469 374 L484 396 L498 423 L504 438 L513 467 L512 472 L506 477 L499 480 L416 506 L413 508 L380 519 L360 528 L358 528 L351 532 L349 532 L323 545 L311 553 L306 555 L268 582 L249 599 L247 600 L246 599 L247 600 L232 614 L231 613 L232 614 L230 616 L229 615 L230 616 L222 624 L221 623 L220 624 L221 625 L200 647 L187 663 L182 668 L181 667 L182 669 L175 677 L174 676 L175 677 L155 705 L154 706 L153 705 L154 706 L149 713 L138 732 L137 731 L138 733 L135 737 L135 739 L130 748 L125 761 L123 769 L123 774 L122 775 L122 781 L121 782 L120 781 L120 758 L121 757 L122 747 L144 667 L144 663 L153 629 L153 625 L156 616 L161 589 L164 580 L166 567 L169 558 L169 554 L173 541 L173 537 L180 509 L190 478 L190 475 L195 460 L197 457 L201 443 L206 432 L208 424 L213 413 L215 405 L223 386 L231 362 L240 343 L250 335 L275 323 L296 317 L312 315 L313 314 L323 314 L324 313 L355 313 L356 314 L364 314 L365 315 L381 317 L385 319 L401 323 L411 328 L413 328 Z M702 311 L704 318 L704 334 L705 335 L705 382 L704 383 L703 382 L703 350 L704 401 L703 402 L703 421 L702 422 L701 421 L701 412 L701 417 L700 418 L700 424 L701 422 L702 423 L701 434 L700 435 L700 456 L702 464 L707 474 L715 482 L714 483 L715 482 L722 487 L749 496 L751 498 L750 499 L750 517 L751 518 L751 525 L752 526 L754 539 L764 562 L774 575 L788 586 L806 594 L814 596 L821 596 L822 597 L844 596 L851 594 L864 587 L876 575 L877 572 L879 570 L880 571 L879 569 L883 561 L885 553 L885 546 L887 544 L901 551 L928 568 L945 581 L960 594 L990 624 L1018 658 L1037 685 L1050 708 L1049 712 L1050 709 L1052 711 L1050 716 L1037 703 L1013 687 L984 673 L954 664 L950 664 L944 662 L937 662 L936 661 L926 661 L925 660 L900 660 L899 661 L878 662 L877 663 L871 663 L863 665 L847 666 L846 667 L835 667 L834 668 L799 667 L798 666 L782 664 L767 659 L755 653 L745 646 L740 641 L733 631 L728 621 L712 581 L696 550 L679 527 L669 519 L662 516 L668 512 L675 505 L682 495 L690 477 L693 460 L694 459 L696 439 L697 438 L698 439 L698 444 L697 429 L698 428 L699 403 L700 402 L700 382 L701 381 L701 312 Z M518 311 L522 321 L522 324 L526 336 L537 359 L544 369 L556 381 L571 389 L582 392 L608 393 L609 392 L622 391 L625 396 L626 410 L627 411 L627 422 L628 423 L628 464 L624 478 L614 496 L613 505 L612 506 L614 512 L613 516 L581 516 L580 515 L571 515 L570 514 L559 513 L546 507 L543 504 L544 503 L543 504 L540 499 L534 481 L532 469 L530 464 L530 460 L527 449 L526 437 L525 436 L524 423 L523 422 L521 394 L520 393 L520 380 L519 379 L519 363 L518 362 L518 337 L517 336 L517 312 Z M700 307 L701 306 L702 308 L701 309 Z M513 303 L515 305 L514 308 L515 355 L516 356 L516 373 L517 374 L518 400 L519 401 L519 410 L520 411 L522 434 L523 435 L523 440 L524 441 L524 446 L526 452 L528 467 L530 471 L533 487 L540 505 L548 515 L546 517 L540 518 L531 523 L520 534 L519 533 L519 529 L520 528 L520 519 L521 518 L521 502 L520 501 L519 484 L515 471 L515 465 L511 453 L511 450 L502 428 L501 410 L500 409 L500 386 L499 385 L500 341 L501 340 L502 324 L507 309 Z M898 302 L899 301 L900 302 L899 303 Z M896 301 L897 300 L899 301 L898 302 Z M894 300 L895 299 L897 300 L896 301 Z M697 298 L698 299 L698 323 L699 324 L699 363 L698 364 L697 406 L696 407 L696 419 L695 420 L695 429 L694 430 L694 438 L693 439 L692 435 L693 439 L692 454 L691 455 L689 470 L686 479 L684 482 L683 481 L684 483 L681 489 L678 490 L679 492 L677 494 L676 492 L677 494 L666 503 L658 507 L637 513 L616 515 L614 510 L615 499 L619 490 L623 485 L627 477 L630 467 L630 460 L631 459 L631 418 L630 417 L630 409 L629 408 L629 396 L628 392 L626 390 L632 388 L646 380 L663 363 L674 347 L682 331 L684 329 L684 327 L695 304 L696 305 L696 309 L695 302 Z M774 318 L799 304 L821 297 L832 296 L833 295 L844 295 L845 294 L846 295 L853 294 L854 295 L872 296 L884 299 L899 305 L915 315 L935 333 L949 350 L960 366 L973 388 L991 424 L1009 469 L1026 520 L1026 523 L1029 530 L1034 551 L1037 558 L1038 565 L1044 583 L1044 587 L1047 595 L1049 608 L1056 634 L1058 649 L1062 664 L1062 671 L1064 677 L1064 687 L1066 694 L1066 703 L1067 704 L1067 712 L1068 713 L1068 724 L1067 725 L1063 715 L1064 713 L1063 714 L1053 694 L1037 670 L1038 668 L1037 669 L1035 667 L1036 665 L1035 666 L1018 643 L996 618 L995 616 L996 615 L994 613 L993 614 L985 606 L986 605 L985 604 L984 605 L982 603 L983 602 L982 603 L977 599 L973 594 L974 593 L973 594 L971 592 L972 591 L971 592 L964 586 L965 585 L964 586 L962 584 L963 583 L962 584 L943 568 L925 555 L900 540 L875 528 L855 520 L793 499 L790 499 L777 494 L767 492 L757 488 L754 488 L747 485 L744 485 L737 482 L725 479 L722 477 L724 476 L720 477 L713 473 L709 469 L710 468 L709 467 L710 468 L709 469 L707 468 L703 458 L703 448 L702 447 L703 444 L703 432 L704 431 L706 416 L713 395 L728 366 L739 351 L761 328 Z M516 293 L517 294 L516 298 L515 297 Z M267 322 L277 315 L307 302 L310 302 L313 300 L316 300 L324 297 L340 295 L341 294 L347 294 L348 293 L381 293 L382 294 L389 294 L390 295 L400 296 L404 298 L417 301 L431 307 L446 316 L455 323 L470 339 L479 353 L486 367 L487 372 L492 383 L496 396 L496 400 L498 404 L498 414 L497 415 L495 412 L496 409 L495 411 L484 391 L470 372 L471 370 L470 369 L469 370 L460 359 L445 345 L446 344 L444 345 L434 337 L435 336 L433 337 L428 333 L423 331 L421 329 L422 328 L420 329 L400 320 L379 314 L362 312 L361 311 L350 311 L349 310 L317 311 L316 312 L309 312 L292 316 L289 316 L288 315 L290 314 L287 313 L287 315 L289 316 L288 317 L282 318 L281 317 L282 316 L280 317 L282 318 L281 319 L269 323 Z M887 292 L888 291 L889 292 L888 293 Z M885 291 L886 290 L888 291 L887 292 Z M876 291 L874 292 L876 292 Z M517 287 L518 288 L517 292 L516 291 Z M518 280 L519 281 L519 285 L518 286 L517 285 L517 281 Z M895 299 L893 300 L883 296 L875 294 L870 294 L869 293 L862 293 L861 292 L838 292 L837 293 L829 293 L828 294 L823 294 L811 297 L793 304 L783 310 L781 309 L782 310 L774 315 L773 314 L774 315 L763 323 L762 322 L761 323 L762 324 L757 328 L756 327 L755 328 L756 329 L748 337 L747 336 L748 337 L746 339 L745 338 L744 339 L745 340 L743 342 L742 341 L743 342 L734 353 L733 352 L734 353 L731 357 L730 356 L731 358 L725 366 L724 369 L721 373 L720 372 L721 373 L720 376 L717 380 L716 379 L717 381 L711 393 L707 406 L706 407 L705 406 L707 375 L714 354 L722 336 L729 324 L736 315 L747 304 L762 294 L786 284 L803 280 L809 280 L810 279 L840 279 L841 280 L857 282 L873 287 L887 293 Z M256 325 L262 319 L263 320 L262 319 L272 309 L291 296 L321 284 L329 283 L334 281 L347 280 L348 279 L380 279 L381 280 L398 282 L422 290 L448 303 L463 307 L481 307 L498 302 L503 302 L504 301 L510 301 L511 302 L505 308 L502 314 L499 325 L498 349 L497 350 L497 390 L496 391 L493 383 L494 378 L493 381 L487 365 L480 352 L481 350 L480 351 L479 350 L480 348 L479 349 L471 337 L464 329 L465 328 L464 329 L458 323 L459 322 L458 323 L452 318 L453 317 L451 318 L439 309 L425 302 L408 296 L396 293 L391 293 L390 292 L368 291 L367 290 L334 293 L313 298 L303 302 L300 301 L301 302 L296 305 L294 305 L284 310 L282 309 L283 310 L270 318 L268 316 L267 320 L265 319 L266 320 L258 326 Z M886 290 L884 291 L872 285 L856 281 L852 279 L842 278 L841 277 L828 277 L827 276 L826 277 L810 277 L809 278 L797 279 L772 287 L758 294 L749 300 L748 299 L749 300 L736 312 L735 311 L736 312 L726 325 L725 324 L726 326 L723 327 L724 326 L725 328 L723 330 L716 344 L710 362 L709 363 L708 362 L707 322 L706 321 L705 308 L701 298 L702 296 L713 297 L714 298 L722 298 L723 297 L732 296 L771 276 L786 271 L801 269 L802 268 L810 268 L811 267 L837 268 L842 270 L850 271 L862 275 L874 281 Z M513 117 L514 118 L514 135 L515 136 L515 149 L516 150 L516 162 L517 163 L517 175 L518 176 L519 209 L520 210 L520 220 L521 221 L521 242 L522 243 L521 274 L519 281 L518 280 L519 254 L518 253 L518 242 L517 241 L518 216 L518 222 L517 223 L516 222 L516 199 L515 198 L516 178 L516 182 L515 183 L514 182 L512 145 L511 144 L511 125 Z M514 113 L515 114 L514 118 L513 117 Z M515 110 L516 111 L515 114 L514 113 Z M516 105 L517 106 L516 110 L515 109 Z M594 102 L594 142 L595 143 L597 190 L598 191 L599 218 L600 219 L600 232 L601 233 L601 246 L602 247 L602 273 L603 274 L603 283 L602 284 L602 344 L603 345 L604 344 L604 340 L603 339 L603 333 L604 332 L603 329 L603 316 L604 315 L604 293 L605 292 L605 267 L604 266 L604 246 L603 245 L603 234 L602 233 L602 219 L601 218 L601 207 L600 206 L599 174 L598 173 L596 137 L595 136 L595 110 L594 109 L595 108 L595 103 Z M815 93 L816 92 L817 94 L816 95 Z M815 88 L816 89 L815 92 L814 91 Z M813 86 L814 85 L815 87 L814 88 Z M813 81 L814 82 L813 85 L812 84 Z M811 79 L812 78 L813 80 L812 81 Z M811 74 L812 75 L811 78 L810 77 Z M810 71 L811 72 L810 75 L809 74 Z M809 68 L810 69 L809 72 L808 71 Z M807 67 L808 66 L809 68 L808 69 Z M806 64 L807 63 L808 64 L807 65 Z M805 62 L806 61 L807 62 L806 63 Z M513 61 L514 62 L514 71 L515 72 L516 85 L517 86 L517 97 L518 98 L518 103 L517 104 L515 98 L515 90 L514 89 L513 74 L512 73 L512 62 Z M804 60 L805 59 L806 60 L805 61 Z M803 58 L804 57 L805 58 L804 59 Z M514 56 L515 57 L514 61 L513 60 Z M806 56 L807 55 L808 57 L807 58 Z M802 56 L803 55 L804 56 L803 57 Z M805 55 L806 53 L809 54 L806 56 Z M801 54 L802 53 L803 54 L802 55 Z M514 54 L515 53 L516 55 L515 56 Z M515 52 L516 51 L517 52 L516 53 Z M512 51 L513 52 L510 61 L510 75 L511 76 L511 84 L513 92 L513 108 L509 120 L509 149 L510 150 L511 175 L512 176 L512 187 L513 188 L515 241 L516 242 L516 252 L517 253 L517 273 L516 274 L516 282 L514 290 L514 298 L513 299 L500 299 L477 305 L465 305 L450 301 L440 296 L442 295 L439 296 L416 285 L396 279 L386 278 L385 277 L377 277 L376 276 L343 277 L342 278 L337 278 L336 279 L319 282 L302 288 L286 296 L269 308 L254 323 L253 322 L254 323 L252 325 L251 324 L252 326 L249 329 L248 328 L249 330 L245 336 L238 343 L231 357 L216 400 L214 403 L212 411 L208 419 L207 418 L208 421 L201 438 L185 485 L185 488 L182 495 L182 498 L180 502 L178 513 L176 517 L172 533 L172 537 L168 550 L168 554 L163 571 L163 575 L157 596 L157 600 L153 613 L151 626 L147 639 L147 643 L145 647 L145 651 L132 703 L130 707 L129 714 L127 718 L126 725 L119 748 L118 759 L117 760 L117 779 L120 790 L124 798 L125 811 L129 824 L129 829 L119 848 L113 856 L97 872 L90 877 L79 882 L68 883 L61 881 L52 873 L48 865 L44 849 L44 835 L43 834 L43 770 L44 769 L44 746 L45 745 L45 719 L44 718 L44 688 L43 687 L42 658 L41 657 L40 617 L39 616 L39 589 L38 588 L38 527 L39 526 L39 495 L40 494 L41 465 L42 464 L43 450 L46 438 L54 421 L66 410 L75 407 L80 407 L89 410 L95 414 L106 427 L110 435 L109 437 L110 436 L111 437 L116 452 L115 457 L116 455 L118 460 L119 472 L120 473 L120 483 L121 484 L121 520 L120 521 L120 533 L119 534 L118 551 L117 552 L114 577 L113 578 L112 590 L111 591 L111 597 L110 598 L110 605 L108 613 L108 626 L104 632 L101 634 L94 633 L89 629 L90 628 L86 615 L85 602 L86 601 L86 590 L87 589 L89 562 L90 561 L90 551 L91 550 L91 515 L90 514 L89 497 L84 479 L76 464 L70 458 L64 455 L58 456 L52 461 L48 468 L47 473 L45 475 L45 477 L51 475 L62 476 L66 478 L70 482 L69 483 L71 485 L72 484 L74 487 L73 489 L74 487 L80 500 L82 516 L83 517 L83 551 L82 552 L77 550 L69 550 L65 552 L61 556 L57 572 L56 586 L55 587 L55 597 L54 598 L54 633 L55 634 L55 652 L56 653 L57 675 L58 676 L58 683 L59 684 L59 691 L60 692 L60 699 L61 700 L62 709 L68 729 L70 729 L73 720 L74 712 L76 708 L77 700 L87 671 L105 634 L117 615 L131 584 L142 547 L145 526 L146 525 L146 519 L147 518 L148 495 L149 494 L148 470 L141 442 L131 424 L119 411 L109 405 L92 401 L93 372 L94 371 L96 338 L97 337 L98 321 L99 320 L100 308 L101 307 L101 302 L102 301 L102 296 L104 290 L106 275 L118 227 L127 201 L140 172 L160 140 L173 125 L189 110 L195 106 L196 107 L195 106 L211 95 L229 86 L257 76 L289 68 L304 66 L305 65 L331 62 L332 61 L350 60 L351 59 L375 58 L376 57 L387 57 L388 56 L402 56 L403 55 L419 55 L420 54 L459 53 L460 52 Z M519 51 L520 50 L607 49 L608 48 L752 48 L753 47 L758 47 L759 48 L771 48 L772 49 L779 49 L780 50 L787 50 L788 51 L798 52 L805 65 L807 74 L817 103 L833 136 L839 146 L839 149 L843 160 L849 170 L856 176 L857 179 L857 189 L859 196 L862 202 L867 208 L873 220 L883 248 L884 247 L876 223 L869 208 L861 196 L859 189 L858 176 L849 167 L846 162 L839 141 L837 139 L824 112 L816 86 L813 72 L807 58 L809 54 L815 54 L816 55 L833 57 L844 60 L849 60 L877 67 L902 76 L916 83 L934 95 L957 117 L978 148 L992 180 L992 183 L1000 207 L1004 228 L1005 229 L1005 233 L1007 238 L1007 243 L1008 244 L1009 255 L1011 262 L1012 276 L1013 277 L1013 284 L1014 285 L1016 311 L1017 312 L1021 387 L1012 391 L1005 399 L1000 413 L999 423 L998 424 L998 431 L997 432 L995 428 L996 424 L995 427 L982 400 L983 398 L982 399 L980 397 L975 386 L960 362 L961 360 L960 361 L958 359 L959 357 L958 358 L943 338 L935 330 L934 328 L935 327 L934 328 L932 326 L933 325 L931 326 L926 321 L927 320 L926 319 L925 320 L919 315 L920 314 L919 315 L912 310 L913 309 L912 310 L907 307 L909 306 L907 307 L894 293 L895 292 L894 293 L881 282 L866 274 L856 271 L853 269 L841 266 L834 266 L833 265 L822 265 L821 264 L804 265 L803 266 L797 266 L780 270 L762 277 L730 294 L726 294 L725 295 L710 295 L702 293 L697 294 L694 298 L686 319 L678 335 L673 343 L672 341 L673 343 L665 356 L662 359 L661 358 L662 360 L648 375 L638 382 L627 387 L619 389 L614 389 L613 390 L587 390 L586 389 L580 389 L568 385 L557 378 L545 366 L535 350 L523 319 L521 311 L522 308 L521 309 L520 308 L520 306 L517 301 L519 293 L519 288 L521 283 L521 278 L522 277 L523 259 L524 258 L524 233 L523 232 L521 190 L520 189 L520 173 L519 172 L519 158 L518 157 L518 145 L517 144 L517 132 L516 131 L516 119 L520 105 L519 85 L518 84 L518 77 L517 76 L517 57 L519 52 L521 54 L521 52 L520 53 Z M877 64 L853 58 L849 58 L844 56 L839 56 L838 55 L810 51 L809 50 L801 50 L794 48 L770 46 L769 45 L755 45 L754 44 L744 44 L743 45 L742 44 L741 45 L627 45 L626 46 L620 45 L619 46 L564 46 L563 47 L519 47 L518 48 L463 49 L462 50 L441 50 L440 51 L423 51 L422 52 L405 52 L404 53 L364 55 L363 56 L326 59 L325 60 L319 60 L318 61 L312 61 L306 63 L295 64 L294 65 L290 65 L264 71 L236 80 L209 93 L191 105 L169 125 L156 141 L138 170 L129 189 L128 188 L129 191 L127 194 L126 193 L127 194 L126 198 L125 199 L124 198 L125 200 L115 228 L112 242 L110 246 L107 262 L105 267 L101 291 L100 292 L99 304 L96 317 L95 332 L94 333 L94 341 L93 342 L89 401 L88 402 L77 403 L63 409 L51 421 L45 433 L42 443 L40 459 L39 460 L39 471 L38 472 L38 483 L37 484 L37 503 L36 504 L36 608 L37 609 L37 631 L38 632 L39 668 L40 669 L41 702 L42 703 L42 754 L41 755 L41 792 L40 793 L40 800 L41 801 L40 802 L40 825 L41 826 L40 828 L41 829 L42 853 L45 865 L50 875 L57 883 L74 893 L68 917 L65 941 L64 942 L63 962 L62 963 L62 1001 L63 1002 L63 1010 L64 1011 L66 1027 L76 1057 L84 1073 L96 1092 L95 1094 L96 1093 L98 1095 L97 1097 L98 1096 L109 1113 L130 1141 L146 1160 L166 1181 L165 1182 L166 1181 L169 1184 L168 1185 L169 1184 L177 1192 L176 1193 L177 1192 L180 1194 L201 1214 L200 1215 L202 1214 L221 1231 L231 1238 L234 1241 L233 1242 L234 1241 L248 1252 L280 1274 L333 1305 L362 1319 L364 1319 L371 1323 L378 1325 L393 1332 L437 1347 L444 1348 L448 1350 L468 1355 L477 1356 L482 1358 L487 1358 L488 1359 L504 1361 L505 1362 L511 1362 L512 1363 L528 1364 L529 1365 L552 1366 L553 1367 L574 1367 L575 1368 L624 1367 L625 1366 L638 1366 L639 1365 L671 1362 L672 1361 L677 1361 L678 1360 L682 1360 L683 1359 L687 1359 L713 1353 L761 1337 L784 1326 L786 1326 L813 1312 L859 1283 L886 1263 L907 1246 L918 1236 L919 1237 L918 1236 L927 1228 L928 1229 L929 1228 L928 1227 L943 1213 L944 1214 L948 1210 L947 1209 L955 1201 L956 1202 L959 1199 L958 1198 L971 1184 L972 1185 L971 1184 L998 1153 L1023 1120 L1042 1091 L1047 1081 L1050 1077 L1051 1078 L1050 1076 L1063 1051 L1072 1021 L1073 1008 L1074 1007 L1074 995 L1075 994 L1075 981 L1074 980 L1074 967 L1073 966 L1072 950 L1071 949 L1069 934 L1065 921 L1065 917 L1062 910 L1062 907 L1054 885 L1069 881 L1075 878 L1081 873 L1087 863 L1089 855 L1089 848 L1090 847 L1090 837 L1091 836 L1091 803 L1090 802 L1089 767 L1088 766 L1087 736 L1086 735 L1086 671 L1087 670 L1087 640 L1088 639 L1087 637 L1087 633 L1088 632 L1087 561 L1086 560 L1086 537 L1085 536 L1085 518 L1084 517 L1083 492 L1082 491 L1082 481 L1081 480 L1081 471 L1080 470 L1080 461 L1079 460 L1079 451 L1078 450 L1076 430 L1070 408 L1065 399 L1058 392 L1052 389 L1044 387 L1026 387 L1025 388 L1023 387 L1024 385 L1023 384 L1023 359 L1022 358 L1021 328 L1020 327 L1020 317 L1019 316 L1017 288 L1016 287 L1015 272 L1014 271 L1014 265 L1012 258 L1010 240 L1009 239 L1009 235 L1008 234 L1008 230 L1002 204 L993 177 L994 174 L993 175 L991 172 L992 168 L991 170 L988 165 L988 163 L982 151 L983 149 L982 150 L974 136 L959 115 L941 97 L916 80 L897 71 Z" fill="#ffe4a3" fill-rule="evenodd"/>
</svg>
